v 0.149978 -0.808647 0.249
v 0.279931 -0.808647 0.249
v 0.149978 -0.808647 0.359926
v 0.149978 0.20128 0.249
v 0.295942 -0.808546 0.249
v 0.279931 -0.808647 0.263961
v 0.151984 -0.808647 0.359926
v 0.149978 -0.805336 0.377114
v 0.149978 0.216126 0.367601
v 0.30766 0.216126 0.249
v 0.311933 -0.808045 0.249
v 0.295942 -0.808145 0.263961
v 0.24797 -0.808647 0.295955
v 0.215968 -0.808647 0.327948
v 0.167975 -0.808145 0.359926
v 0.167975 -0.803731 0.37344
v 0.149978 -0.802628 0.383933
v 0.149978 0.216126 0.408049
v 0.35493 0.216126 0.249
v 0.279931 -0.808145 0.27995
v 0.326941 -0.80323 0.249
v 0.322527 -0.802327 0.258932
v 0.312074 -0.804434 0.264148
v 0.24797 -0.807944 0.311944
v 0.231959 -0.807343 0.327948
v 0.199977 -0.807844 0.343922
v 0.199977 -0.803431 0.356408
v 0.179973 -0.802126 0.370155
v 0.149978 -0.801424 0.385599
v 0.151984 0.216126 0.407519
v 0.149978 -0.743846 0.408049
v 0.35493 -0.743846 0.249
v 0.351399 0.216126 0.2549
v 0.353606 -0.759795 0.249
v 0.336652 -0.768422 0.272742
v 0.306837 -0.802227 0.274766
v 0.279891 -0.804233 0.295939
v 0.26378 -0.804133 0.31185
v 0.247288 -0.803631 0.327746
v 0.231959 -0.802929 0.339531
v 0.216108 -0.804434 0.344607
v 0.210872 -0.801625 0.353543
v 0.224335 -0.768021 0.368131
v 0.193356 -0.768522 0.384649
v 0.162337 -0.768924 0.401043
v 0.151984 -0.769927 0.402242
v 0.149978 -0.770027 0.402475
v 0.152125 0.216126 0.407473
v 0.151984 -0.743846 0.407519
v 0.149978 -0.759795 0.406538
v 0.151984 -0.759795 0.406056
v 0.351339 -0.743846 0.254994
v 0.351339 0.216126 0.254994
v 0.350576 -0.759795 0.254044
v 0.344176 -0.759795 0.263961
v 0.337515 -0.759795 0.273691
v 0.329489 -0.759795 0.281694
v 0.320601 -0.768322 0.288606
v 0.274514 -0.802026 0.306448
v 0.288318 -0.768121 0.320319
v 0.272167 -0.768021 0.336153
v 0.258343 -0.801926 0.322281
v 0.241509 -0.801123 0.336931
v 0.254992 -0.764109 0.35127
v 0.256156 -0.753476 0.352079
v 0.225278 -0.759795 0.368644
v 0.194841 -0.759795 0.385505
v 0.164424 -0.759795 0.402133
v 0.165327 0.216126 0.402662
v 0.165327 -0.743846 0.402662
v 0.34546 -0.743846 0.263961
v 0.34546 0.216126 0.263961
v 0.338036 -0.743846 0.274252
v 0.330051 -0.743846 0.282254
v 0.321504 -0.759795 0.289478
v 0.28904 -0.759795 0.32102
v 0.272809 -0.759795 0.336776
v 0.262476 -0.759194 0.345805
v 0.27333 -0.743846 0.337274
v 0.264262 -0.743846 0.345276
v 0.256256 -0.743846 0.352157
v 0.24797 -0.743846 0.356828
v 0.215968 -0.743846 0.37467
v 0.183966 -0.743846 0.392496
v 0.173312 -0.743846 0.398427
v 0.173433 0.216126 0.398365
v 0.338117 0.216126 0.274143
v 0.338036 0.216126 0.274252
v 0.330131 0.216126 0.282176
v 0.322065 -0.743846 0.290023
v 0.297568 -0.743846 0.313781
v 0.289662 0.216126 0.321456
v 0.27333 0.216126 0.337274
v 0.264262 0.216126 0.345276
v 0.256256 0.216126 0.352157
v 0.24797 0.216126 0.356828
v 0.215968 0.216126 0.37467
v 0.322065 0.216126 0.290023
f 1 2 6
f 1 6 13
f 1 13 14
f 1 14 7
f 1 7 3
f 1 3 8
f 1 8 17
f 1 17 29
f 1 29 47
f 1 47 50
f 1 50 31
f 1 31 18
f 1 18 9
f 1 9 4
f 1 4 10
f 1 10 19
f 1 19 32
f 1 32 34
f 1 34 21
f 1 21 11
f 1 11 5
f 1 5 2
f 2 5 6
f 3 7 8
f 4 9 10
f 5 11 12
f 5 12 6
f 6 12 13
f 7 14 15
f 7 15 8
f 8 15 16
f 8 16 17
f 9 18 30
f 9 30 48
f 9 48 69
f 9 69 86
f 9 86 97
f 9 97 96
f 9 96 95
f 9 95 94
f 9 94 93
f 9 93 92
f 9 92 98
f 9 98 89
f 9 89 88
f 9 88 87
f 9 87 72
f 9 72 53
f 9 53 33
f 9 33 19
f 9 19 10
f 11 20 12
f 11 21 22
f 11 22 23
f 11 23 20
f 12 20 14
f 12 14 13
f 14 20 24
f 14 24 25
f 14 25 26
f 14 26 15
f 15 26 16
f 16 27 28
f 16 28 17
f 16 26 25
f 16 25 27
f 17 28 29
f 18 31 49
f 18 49 30
f 19 33 32
f 20 23 24
f 21 34 35
f 21 35 22
f 22 36 23
f 22 35 36
f 23 36 37
f 23 37 24
f 24 37 38
f 24 38 25
f 25 38 39
f 25 39 40
f 25 40 41
f 25 41 27
f 27 40 28
f 27 41 40
f 28 40 42
f 28 42 43
f 28 43 44
f 28 44 45
f 28 45 29
f 29 45 46
f 29 46 47
f 30 49 48
f 31 50 51
f 31 51 49
f 32 52 34
f 32 33 52
f 33 53 52
f 34 52 54
f 34 54 35
f 35 54 55
f 35 55 56
f 35 56 57
f 35 57 58
f 35 58 36
f 36 59 38
f 36 38 37
f 36 58 60
f 36 60 61
f 36 61 59
f 38 59 62
f 38 62 39
f 39 62 63
f 39 63 40
f 40 63 42
f 42 63 43
f 43 64 65
f 43 65 66
f 43 66 67
f 43 67 68
f 43 68 44
f 43 63 64
f 44 68 45
f 45 68 51
f 45 51 50
f 45 50 46
f 46 50 47
f 48 49 70
f 48 70 69
f 49 51 68
f 49 68 70
f 52 71 55
f 52 55 54
f 52 53 72
f 52 72 71
f 55 71 56
f 56 71 73
f 56 73 74
f 56 74 57
f 57 75 61
f 57 61 60
f 57 60 58
f 57 74 75
f 59 61 62
f 61 75 76
f 61 76 77
f 61 77 78
f 61 78 64
f 61 64 63
f 61 63 62
f 64 78 65
f 65 78 77
f 65 77 79
f 65 79 80
f 65 80 81
f 65 81 82
f 65 82 83
f 65 83 84
f 65 84 85
f 65 85 67
f 65 67 66
f 67 85 68
f 68 85 70
f 69 70 86
f 70 85 86
f 71 72 87
f 71 87 73
f 73 87 88
f 73 88 89
f 73 89 74
f 74 90 75
f 74 89 90
f 75 90 76
f 76 90 77
f 77 90 91
f 77 91 79
f 79 91 92
f 79 92 93
f 79 93 94
f 79 94 80
f 80 94 95
f 80 95 81
f 81 95 96
f 81 96 82
f 82 96 97
f 82 97 83
f 83 97 86
f 83 86 84
f 84 86 85
f 89 98 90
f 90 98 92
f 90 92 91
