v -0.414056 0.202099 -0.124813
v -0.414056 0.327932 -0.124813
v -0.360309 0.202099 -0.124813
v -0.424527 0.202099 -0.0879718
v -0.409311 0.34392 -0.124813
v -0.424527 0.327932 -0.0879718
v -0.416511 0.338576 -0.114057
v -0.375474 0.327932 -0.124813
v -0.359951 0.202099 0.128978
v -0.429057 0.202099 -0.0719732
v -0.401697 0.352423 -0.124813
v -0.41616 0.352098 -0.0972133
v -0.429057 0.327932 -0.0719732
v -0.417692 0.34392 -0.103101
v -0.379403 0.344924 -0.124813
v -0.376512 0.335092 0.128978
v -0.375152 0.327932 0.128978
v -0.413426 0.202099 0.128978
v -0.429386 0.202099 -0.0698368
v -0.398963 0.352571 -0.124813
v -0.416597 0.352305 -0.0879718
v -0.407916 0.352792 -0.0879718
v -0.420898 0.343935 -0.0879718
v -0.423875 0.343935 -0.0719732
v -0.425571 0.343935 -0.0559746
v -0.431519 0.327932 -0.0559746
v -0.383282 0.352275 -0.124813
v -0.380906 0.348599 0.128978
v -0.379045 0.344525 0.128978
v -0.413426 0.327932 0.128978
v -0.427239 0.202099 0.0741011
v -0.431519 0.202099 -0.0559746
v -0.391026 0.352659 -0.124813
v -0.417305 0.352423 -0.0719732
v -0.407916 0.352851 -0.0719732
v -0.431934 0.336022 -0.0331443
v -0.432005 0.336391 -0.0239774
v -0.43212 0.337011 -0.00797875
v -0.432241 0.337602 0.00799502
v -0.432363 0.338177 0.0239936
v -0.432485 0.338724 0.0399923
v -0.426437 0.34671 0.0399923
v -0.431562 0.202099 -0.0540617
v -0.431819 0.327932 -0.041715
v -0.387147 0.352541 0.128978
v -0.383211 0.35232 0.128978
v -0.411351 0.33493 0.128978
v -0.416511 0.338591 0.114346
v -0.427776 0.327932 0.0719646
v -0.427776 0.202099 0.0719646
v -0.407916 0.35291 0.0719646
v -0.391484 0.352748 0.128978
v -0.417771 0.352423 -0.0559746
v -0.432091 0.327932 -0.0239774
v -0.432578 0.327932 0.00799502
v -0.433064 0.327932 0.0399923
v -0.432334 0.337971 0.0500038
v -0.416082 0.352054 0.0969066
v -0.416482 0.352261 0.0879633
v -0.417921 0.352423 0.055966
v -0.418436 0.352423 0.0399923
v -0.417885 0.352423 -0.039976
v -0.431819 0.202099 -0.041715
v -0.431962 0.202099 -0.0324238
v -0.408596 0.34392 0.128978
v -0.417542 0.34392 0.102918
v -0.430853 0.327932 0.0590217
v -0.430853 0.202099 0.0590217
v -0.417069 0.352423 0.0719646
v -0.407916 0.352762 0.0879633
v -0.401496 0.352423 0.128978
v -0.432091 0.202099 -0.0239774
v -0.432578 0.202099 0.00799502
v -0.433064 0.202099 0.0399923
v -0.432549 0.327932 0.0510224
v -0.405261 0.348747 0.128978
v -0.432549 0.202099 0.0510224
f 1 2 5
f 1 5 11
f 1 11 20
f 1 20 33
f 1 33 27
f 1 27 15
f 1 15 8
f 1 8 3
f 1 3 9
f 1 9 18
f 1 18 31
f 1 31 50
f 1 50 68
f 1 68 77
f 1 77 74
f 1 74 73
f 1 73 72
f 1 72 64
f 1 64 63
f 1 63 43
f 1 43 32
f 1 32 19
f 1 19 10
f 1 10 4
f 1 4 6
f 1 6 2
f 2 6 7
f 2 7 5
f 3 8 9
f 4 10 13
f 4 13 6
f 5 7 12
f 5 12 11
f 6 13 7
f 7 13 14
f 7 14 12
f 8 15 16
f 8 16 17
f 8 17 9
f 9 17 16
f 9 16 29
f 9 29 28
f 9 28 46
f 9 46 45
f 9 45 52
f 9 52 71
f 9 71 76
f 9 76 65
f 9 65 47
f 9 47 30
f 9 30 18
f 10 19 13
f 11 12 21
f 11 21 22
f 11 22 20
f 12 14 23
f 12 23 24
f 12 24 25
f 12 25 21
f 13 19 26
f 13 26 24
f 13 24 23
f 13 23 14
f 15 27 28
f 15 28 29
f 15 29 16
f 18 30 31
f 19 32 26
f 20 22 33
f 21 25 34
f 21 34 22
f 22 34 35
f 22 35 33
f 24 26 36
f 24 36 25
f 25 36 37
f 25 37 38
f 25 38 39
f 25 39 40
f 25 40 41
f 25 41 42
f 25 42 34
f 26 32 43
f 26 43 44
f 26 44 36
f 27 33 45
f 27 45 46
f 27 46 28
f 30 47 48
f 30 48 49
f 30 49 31
f 31 49 50
f 33 35 51
f 33 51 52
f 33 52 45
f 34 53 35
f 34 42 53
f 35 53 51
f 36 44 54
f 36 54 55
f 36 55 56
f 36 56 37
f 37 56 40
f 37 40 39
f 37 39 38
f 40 56 41
f 41 56 57
f 41 57 42
f 42 57 58
f 42 58 59
f 42 59 60
f 42 60 61
f 42 61 62
f 42 62 53
f 43 63 44
f 44 63 64
f 44 64 54
f 47 65 48
f 48 65 58
f 48 58 66
f 48 66 57
f 48 57 49
f 49 57 67
f 49 67 68
f 49 68 50
f 51 53 62
f 51 62 61
f 51 61 60
f 51 60 69
f 51 69 70
f 51 70 52
f 52 70 71
f 54 64 72
f 54 72 73
f 54 73 55
f 55 73 74
f 55 74 56
f 56 74 77
f 56 77 75
f 56 75 57
f 57 75 67
f 57 66 58
f 58 65 76
f 58 76 71
f 58 71 59
f 59 71 70
f 59 70 69
f 59 69 60
f 67 75 77
f 67 77 68
