v -0.2628 0.202099 0.248921
v -0.261859 0.202099 0.247945
v -0.251374 0.202099 0.249
v -0.231949 0.320207 0.249
v -0.231804 0.202099 0.220525
v -0.139551 0.202099 0.249
v -0.229536 0.327926 0.249
v -0.21595 0.202099 0.218483
v -0.225373 0.337346 0.249
v -0.222236 0.343935 0.249
v -0.220016 0.347999 0.249
v -0.21595 0.352005 0.249
v -0.140058 0.202099 0.235952
v -0.199963 0.332959 0.249
v -0.199963 0.202099 0.218047
v -0.155912 0.202099 0.219974
v -0.171307 0.202099 0.218413
v -0.183976 0.202099 0.218137
v -0.18692 0.202099 0.218074
f 1 2 5
f 1 5 8
f 1 8 15
f 1 15 19
f 1 19 18
f 1 18 17
f 1 17 16
f 1 16 13
f 1 13 6
f 1 6 3
f 1 3 4
f 1 4 2
f 2 4 5
f 3 6 14
f 3 14 12
f 3 12 11
f 3 11 10
f 3 10 9
f 3 9 7
f 3 7 4
f 4 7 5
f 5 7 9
f 5 9 10
f 5 10 11
f 5 11 12
f 5 12 8
f 6 13 14
f 8 12 15
f 12 14 16
f 12 16 17
f 12 17 18
f 12 18 19
f 12 19 15
f 13 16 14
