v -0.35623 -0.743837 0.249006
v -0.355082 -0.759268 0.249006
v -0.352073 -0.753438 0.256162
v -0.352152 -0.743837 0.256268
v -0.35623 0.329009 0.249006
v -0.352786 -0.76704 0.249006
v -0.351261 -0.764183 0.255009
v -0.336769 -0.759839 0.272819
v -0.337264 -0.743837 0.273337
v -0.345263 -0.743837 0.264267
v -0.336156 -0.767955 0.272183
v -0.352152 0.327866 0.256268
v -0.352073 0.336553 0.256162
v -0.353795 0.341468 0.249006
v -0.32689 -0.803274 0.249006
v -0.322258 -0.801903 0.258364
v -0.305232 -0.759839 0.305272
v -0.302559 -0.743837 0.309127
v -0.337264 0.327866 0.273337
v -0.345263 0.327866 0.264267
v -0.30444 -0.768183 0.304466
v -0.300738 -0.763726 0.309127
v -0.301471 -0.759839 0.309127
v -0.290602 -0.802131 0.290681
v -0.336829 0.338839 0.272878
v -0.348014 0.347183 0.252025
v -0.351914 0.344326 0.249006
v -0.326079 -0.803617 0.249006
v -0.311825 -0.804189 0.263802
v -0.301965 -0.752638 0.309127
v -0.302559 0.327866 0.309127
v -0.297115 -0.769784 0.309127
v -0.274764 -0.802131 0.306843
v -0.28003 -0.804417 0.295984
v -0.270131 -0.80316 0.309127
v -0.332612 0.349469 0.268646
v -0.305153 0.339525 0.305195
v -0.300401 0.342725 0.309127
v -0.298442 0.346726 0.309127
v -0.292859 0.356785 0.309127
v -0.292661 0.357128 0.309127
v -0.337363 0.352213 0.257981
v -0.342214 0.352441 0.249006
v -0.344985 0.350498 0.249006
v -0.311924 -0.807732 0.249006
v -0.273239 -0.799731 0.309127
v -0.267043 -0.804417 0.309127
v -0.295927 -0.808075 0.263955
v -0.263935 -0.808189 0.295943
v -0.290404 0.358956 0.309127
v -0.291572 0.358956 0.30642
v -0.29567 0.358956 0.295825
v -0.286009 0.358956 0.278969
v -0.273655 0.358956 0.271518
v -0.251205 0.358956 0.258423
v -0.250769 0.358956 0.258205
v -0.243207 0.358956 0.254603
v -0.242553 0.358956 0.254397
v -0.231962 0.358956 0.251472
v -0.23111 0.358956 0.251354
v -0.230219 0.358956 0.25126
v -0.215965 0.358956 0.249759
v -0.327524 0.352441 0.249006
v -0.310874 -0.807961 0.249006
v -0.264093 -0.805103 0.309127
v -0.294878 -0.808647 0.249006
v -0.247958 -0.808304 0.309127
v -0.250769 -0.808189 0.309127
v -0.201295 0.358956 0.309127
v -0.215114 0.358956 0.249882
v -0.199969 0.332895 0.249006
v -0.215965 0.351984 0.249006
v -0.247958 -0.808647 0.295943
v -0.153999 -0.808647 0.249006
v -0.234773 -0.808647 0.309127
v -0.193376 0.358956 0.30237
v -0.153999 0.201219 0.309127
v -0.199217 0.358956 0.253137
v -0.199969 0.343868 0.250406
v -0.18322 0.28946 0.249006
v -0.153999 -0.808647 0.309127
v -0.153999 0.206934 0.249006
v -0.187754 0.358956 0.294372
v -0.153999 0.210477 0.263955
v -0.175559 0.322265 0.273537
v -0.182805 0.358956 0.279946
v -0.198227 0.358956 0.253526
v -0.191377 0.35427 0.255468
v -0.190031 0.343868 0.25442
v -0.192248 0.358956 0.256056
v -0.18813 0.358956 0.261948
v -0.187536 0.358956 0.262896
v -0.175559 0.322265 0.270653
v -0.153999 0.207162 0.2496
v -0.153999 0.209334 0.257857
v -0.153999 0.207391 0.250459
f 1 2 3
f 1 3 4
f 1 4 12
f 1 12 5
f 1 5 14
f 1 14 27
f 1 27 44
f 1 44 43
f 1 43 63
f 1 63 72
f 1 72 71
f 1 71 80
f 1 80 82
f 1 82 74
f 1 74 66
f 1 66 64
f 1 64 45
f 1 45 28
f 1 28 15
f 1 15 6
f 1 6 2
f 2 6 7
f 2 7 3
f 3 8 9
f 3 9 10
f 3 10 4
f 3 7 11
f 3 11 8
f 4 10 20
f 4 20 12
f 5 12 13
f 5 13 14
f 6 15 7
f 7 15 16
f 7 16 11
f 8 17 18
f 8 18 9
f 8 11 17
f 9 18 31
f 9 31 19
f 9 19 20
f 9 20 10
f 11 21 22
f 11 22 23
f 11 23 17
f 11 16 24
f 11 24 21
f 12 20 13
f 13 20 19
f 13 19 25
f 13 25 26
f 13 26 14
f 14 26 27
f 15 28 16
f 16 28 29
f 16 29 24
f 17 23 30
f 17 30 18
f 18 30 23
f 18 23 22
f 18 22 32
f 18 32 46
f 18 46 35
f 18 35 47
f 18 47 65
f 18 65 68
f 18 68 67
f 18 67 75
f 18 75 81
f 18 81 77
f 18 77 69
f 18 69 50
f 18 50 41
f 18 41 40
f 18 40 39
f 18 39 38
f 18 38 31
f 19 31 25
f 21 32 22
f 21 24 33
f 21 33 32
f 24 29 34
f 24 34 35
f 24 35 33
f 25 36 26
f 25 31 37
f 25 37 38
f 25 38 39
f 25 39 40
f 25 40 41
f 25 41 36
f 26 36 41
f 26 41 42
f 26 42 43
f 26 43 44
f 26 44 27
f 28 45 29
f 29 45 34
f 31 38 37
f 32 33 46
f 33 35 46
f 34 47 35
f 34 45 48
f 34 48 49
f 34 49 47
f 41 50 42
f 42 50 43
f 43 50 51
f 43 51 52
f 43 52 53
f 43 53 54
f 43 54 55
f 43 55 56
f 43 56 57
f 43 57 58
f 43 58 59
f 43 59 60
f 43 60 61
f 43 61 62
f 43 62 63
f 45 64 48
f 47 49 65
f 48 64 66
f 48 66 49
f 49 67 68
f 49 68 65
f 49 66 67
f 50 69 76
f 50 76 83
f 50 83 86
f 50 86 92
f 50 92 91
f 50 91 90
f 50 90 87
f 50 87 78
f 50 78 70
f 50 70 62
f 50 62 61
f 50 61 60
f 50 60 59
f 50 59 58
f 50 58 57
f 50 57 56
f 50 56 55
f 50 55 54
f 50 54 53
f 50 53 52
f 50 52 51
f 62 70 71
f 62 71 72
f 62 72 63
f 66 73 67
f 66 74 81
f 66 81 75
f 66 75 73
f 67 73 75
f 69 77 76
f 70 78 79
f 70 79 71
f 71 79 80
f 74 82 94
f 74 94 96
f 74 96 95
f 74 95 84
f 74 84 77
f 74 77 81
f 76 77 83
f 77 84 85
f 77 85 86
f 77 86 83
f 78 87 79
f 79 87 88
f 79 88 89
f 79 89 80
f 80 89 82
f 82 89 88
f 82 88 90
f 82 90 91
f 82 91 92
f 82 92 93
f 82 93 94
f 84 95 93
f 84 93 85
f 85 93 86
f 86 93 92
f 87 90 88
f 93 95 96
f 93 96 94
