v 0.30766 0.216126 0.249
v 0.309546 0.329031 0.249
v 0.35493 0.216126 0.249
v 0.149978 0.216126 0.367601
v 0.149978 0.327934 0.368442
v 0.313659 0.342912 0.249
v 0.35493 0.327934 0.249
v 0.351399 0.216126 0.2549
v 0.149978 0.216126 0.408049
v 0.149978 0.345093 0.372879
v 0.157081 0.340783 0.366403
v 0.313759 0.343099 0.249
v 0.353024 0.336795 0.249
v 0.351339 0.327934 0.254994
v 0.351339 0.216126 0.254994
v 0.151984 0.216126 0.407519
v 0.149978 0.327934 0.408049
v 0.149978 0.346084 0.373502
v 0.32048 0.351318 0.249
v 0.31408 0.343541 0.249
v 0.350837 0.343929 0.249
v 0.337334 0.340275 0.273489
v 0.34546 0.327934 0.263961
v 0.34546 0.216126 0.263961
v 0.152125 0.216126 0.407473
v 0.151984 0.327934 0.407519
v 0.151984 0.343929 0.404219
v 0.149978 0.341921 0.405153
v 0.149978 0.352415 0.380772
v 0.161495 0.351451 0.369438
v 0.318594 0.352255 0.253639
v 0.32668 0.352482 0.249
v 0.349573 0.346271 0.249
v 0.330051 0.327934 0.282254
v 0.338036 0.327934 0.274252
v 0.333602 0.350929 0.269644
v 0.321343 0.339967 0.289322
v 0.338117 0.216126 0.274143
v 0.165327 0.216126 0.402662
v 0.165327 0.327934 0.402662
v 0.162799 0.343929 0.401354
v 0.16017 0.351987 0.4
v 0.149978 0.343929 0.404561
v 0.149978 0.352482 0.381893
v 0.327362 0.352522 0.249
v 0.341969 0.352442 0.249
v 0.330131 0.216126 0.282176
v 0.305192 0.339619 0.305171
v 0.272869 0.338842 0.336822
v 0.322065 0.327934 0.290023
v 0.338036 0.216126 0.274252
v 0.337033 0.352255 0.258979
v 0.322948 0.352255 0.274657
v 0.274153 0.352255 0.32197
v 0.257962 0.352255 0.337367
v 0.268635 0.349511 0.332619
v 0.28902 0.339244 0.321005
v 0.173433 0.216126 0.398365
v 0.173312 0.327934 0.398427
v 0.194439 0.340516 0.385287
v 0.16649 0.352362 0.390845
v 0.151984 0.352228 0.40042
v 0.149978 0.351184 0.401245
v 0.225338 0.338923 0.368691
v 0.256156 0.336607 0.352079
v 0.247207 0.342738 0.354244
v 0.241369 0.352241 0.352515
v 0.149978 0.352736 0.39192
v 0.328145 0.352522 0.249
v 0.231959 0.35287 0.343922
v 0.341206 0.352495 0.249
v 0.322065 0.216126 0.290023
v 0.27333 0.327934 0.337274
v 0.297568 0.327934 0.313781
v 0.252043 0.347275 0.348032
v 0.289662 0.216126 0.321456
v 0.328145 0.352522 0.264163
v 0.263559 0.352522 0.327559
v 0.247207 0.352509 0.34319
v 0.183966 0.327934 0.392496
v 0.215968 0.216126 0.37467
v 0.215968 0.327934 0.37467
v 0.151984 0.35271 0.39192
v 0.149978 0.352683 0.393072
v 0.149978 0.352241 0.400498
v 0.256256 0.327934 0.352157
v 0.264262 0.327934 0.345276
v 0.24797 0.327934 0.356828
v 0.27333 0.216126 0.337274
v 0.24797 0.216126 0.356828
v 0.256256 0.216126 0.352157
v 0.264262 0.216126 0.345276
f 1 2 6
f 1 6 12
f 1 12 20
f 1 20 19
f 1 19 32
f 1 32 45
f 1 45 69
f 1 69 71
f 1 71 46
f 1 46 33
f 1 33 21
f 1 21 13
f 1 13 7
f 1 7 3
f 1 3 8
f 1 8 15
f 1 15 24
f 1 24 38
f 1 38 51
f 1 51 47
f 1 47 72
f 1 72 76
f 1 76 89
f 1 89 92
f 1 92 91
f 1 91 90
f 1 90 81
f 1 81 58
f 1 58 39
f 1 39 25
f 1 25 16
f 1 16 9
f 1 9 4
f 1 4 5
f 1 5 2
f 2 5 6
f 3 7 8
f 4 9 17
f 4 17 28
f 4 28 43
f 4 43 63
f 4 63 85
f 4 85 84
f 4 84 68
f 4 68 44
f 4 44 29
f 4 29 18
f 4 18 10
f 4 10 5
f 5 10 11
f 5 11 6
f 6 11 10
f 6 10 12
f 7 13 14
f 7 14 8
f 8 14 15
f 9 16 26
f 9 26 17
f 10 18 19
f 10 19 20
f 10 20 12
f 13 21 22
f 13 22 14
f 14 23 24
f 14 24 15
f 14 22 23
f 16 25 26
f 17 26 27
f 17 27 28
f 18 29 30
f 18 30 19
f 19 31 32
f 19 30 29
f 19 29 31
f 21 33 22
f 22 34 35
f 22 35 23
f 22 33 36
f 22 36 37
f 22 37 34
f 23 35 38
f 23 38 24
f 25 39 40
f 25 40 26
f 26 40 41
f 26 41 27
f 27 41 42
f 27 42 43
f 27 43 28
f 29 44 45
f 29 45 32
f 29 32 31
f 33 46 36
f 34 47 35
f 34 37 48
f 34 48 49
f 34 49 50
f 34 50 47
f 35 47 51
f 35 51 38
f 36 48 37
f 36 46 52
f 36 52 53
f 36 53 54
f 36 54 55
f 36 55 56
f 36 56 49
f 36 49 57
f 36 57 48
f 39 58 40
f 40 58 59
f 40 59 60
f 40 60 41
f 41 60 42
f 42 61 62
f 42 62 63
f 42 63 43
f 42 60 64
f 42 64 65
f 42 65 66
f 42 66 67
f 42 67 61
f 44 68 45
f 45 68 70
f 45 70 69
f 46 71 52
f 47 50 72
f 48 57 49
f 49 65 73
f 49 73 74
f 49 74 50
f 49 56 75
f 49 75 65
f 50 74 76
f 50 76 72
f 52 77 53
f 52 71 77
f 53 77 78
f 53 78 54
f 54 78 55
f 55 78 79
f 55 79 67
f 55 67 56
f 56 67 75
f 58 80 59
f 58 81 82
f 58 82 80
f 59 80 65
f 59 65 64
f 59 64 60
f 61 83 62
f 61 67 83
f 62 83 84
f 62 84 85
f 62 85 63
f 65 86 87
f 65 87 73
f 65 75 67
f 65 67 66
f 65 80 82
f 65 82 88
f 65 88 86
f 67 79 70
f 67 70 83
f 68 84 83
f 68 83 70
f 69 70 71
f 70 79 78
f 70 78 77
f 70 77 71
f 73 87 92
f 73 92 89
f 73 89 76
f 73 76 74
f 81 90 88
f 81 88 82
f 86 88 90
f 86 90 91
f 86 91 92
f 86 92 87
