v -0.433064 -0.743843 0.0399606
v -0.432301 -0.756704 0.0499753
v -0.432471 -0.743843 0.0509767
v -0.433064 0.202099 0.0399606
v -0.431793 0.202099 -0.0406907
v -0.43281 -0.743843 0.0239372
v -0.431878 -0.752054 -0.0332131
v -0.431962 -0.752945 -0.0239996
v -0.432217 -0.755913 0.00798051
v -0.432471 -0.758584 0.0399606
v -0.427723 -0.743843 0.0719407
v -0.430775 -0.743843 0.0589884
v -0.431708 -0.766499 0.0399606
v -0.430351 -0.761157 0.0555835
v -0.415939 -0.767884 0.1124
v -0.416363 -0.759771 0.114069
v -0.432301 0.202099 0.0520449
v -0.432471 0.202099 0.0509767
v -0.431454 0.202099 -0.0560465
v -0.431454 -0.743843 -0.0560465
v -0.432047 -0.743843 -0.0239996
v -0.432301 -0.743843 -0.00804293
v -0.430351 -0.759771 -0.0560465
v -0.43103 -0.758386 -0.0391551
v -0.431369 -0.763927 0.00798051
v -0.431538 -0.765213 0.0239372
v -0.411615 -0.743843 0.135968
v -0.427723 0.202099 0.0719407
v -0.430775 0.202099 0.0589884
v -0.405256 -0.804194 -0.0560465
v -0.405595 -0.804194 -0.040023
v -0.406104 -0.804194 0.0399606
v -0.405426 -0.804194 0.055984
v -0.403645 -0.8037 0.0719407
v -0.401695 -0.802117 0.0879642
v -0.400424 -0.800633 0.0981791
v -0.405934 -0.759771 0.151924
v -0.385756 -0.802018 0.14892
v -0.401017 -0.768874 0.162273
v -0.40746 -0.743843 0.151924
v -0.428995 0.202099 -0.0720031
v -0.428995 -0.743843 -0.0720031
v -0.427299 -0.759771 -0.0720031
v -0.415939 -0.767884 -0.112262
v -0.404154 -0.803799 -0.0720031
v -0.43103 -0.76086 -0.0239996
v -0.40746 0.202099 0.151924
v -0.411021 0.202099 0.138104
v -0.423145 0.202099 0.0901006
v -0.391861 -0.808152 -0.0720031
v -0.391861 -0.808647 -0.0560465
v -0.391861 -0.808647 0.055984
v -0.391861 -0.808053 0.0719407
v -0.387622 -0.8037 0.135968
v -0.402119 -0.759771 0.164409
v -0.370072 -0.802117 0.179899
v -0.373378 -0.803799 0.167948
v -0.384569 -0.768379 0.193318
v -0.402628 -0.743843 0.165277
v -0.424502 0.202099 -0.0880266
v -0.424502 -0.743843 -0.0880266
v -0.416363 -0.759771 -0.113798
v -0.401441 -0.759771 -0.164939
v -0.400678 -0.768577 -0.162469
v -0.385332 -0.801622 -0.149116
v -0.400508 -0.800732 -0.0983083
v -0.402034 -0.802315 -0.0880266
v -0.387198 -0.803304 -0.135963
v -0.391861 -0.806767 -0.0880266
v -0.402628 0.202099 0.165277
v -0.375837 -0.807657 -0.135963
v -0.375837 -0.808548 -0.119873
v -0.359813 -0.808647 -0.15192
v -0.375837 -0.808647 0.119944
v -0.375837 -0.808053 0.135968
v -0.368037 -0.767983 0.224297
v -0.385417 -0.759771 0.194787
v -0.398389 -0.743843 0.173289
v -0.339466 -0.803007 0.231908
v -0.353455 -0.801622 0.21081
v -0.359813 -0.808152 0.167948
v -0.327851 -0.80736 0.231908
v -0.406274 0.202099 -0.15192
v -0.406274 -0.743843 -0.15192
v -0.40195 -0.743843 -0.166141
v -0.399237 -0.743843 -0.174153
v -0.398389 -0.759771 -0.172951
v -0.384909 -0.768676 -0.193714
v -0.383722 -0.798159 -0.159731
v -0.370496 -0.802315 -0.180362
v -0.373802 -0.803898 -0.167943
v -0.398389 0.202099 0.173289
v -0.359813 -0.808251 -0.167943
v -0.327851 -0.808647 -0.215947
v -0.327851 -0.808647 0.215951
v -0.352692 -0.767093 0.249
v -0.355065 -0.759178 0.248933
v -0.36863 -0.759771 0.225232
v -0.336922 -0.801127 0.241455
v -0.356168 -0.743843 0.249
v -0.385332 0.202099 0.196723
v -0.327681 -0.803601 0.247264
v -0.32607 -0.8037 0.249
v -0.311827 -0.807954 0.247931
v -0.402543 0.202099 -0.164205
v -0.40195 0.202099 -0.166141
v -0.399237 0.202099 -0.174153
v -0.393726 -0.743843 -0.1839
v -0.392454 -0.759771 -0.1839
v -0.367952 -0.767884 -0.224025
v -0.353455 -0.801622 -0.210606
v -0.338957 -0.802512 -0.231904
v -0.344468 -0.804392 -0.215947
v -0.327851 -0.806965 -0.231904
v -0.343874 -0.807657 -0.199924
v -0.311827 -0.808152 -0.247927
v -0.215939 -0.808647 -0.327911
v -0.279864 -0.808152 -0.279907
v -0.29487 -0.808647 0.249
v -0.310809 -0.807954 0.249
v -0.326833 -0.803304 0.249
v -0.354981 -0.759178 0.249
v -0.356168 0.201901 0.249
v -0.356761 0.202099 0.247931
v -0.393726 0.202099 -0.1839
v -0.37465 -0.743843 -0.215947
v -0.368461 -0.759771 -0.224827
v -0.385926 -0.759771 -0.195384
v -0.350487 -0.759771 -0.254003
v -0.336583 -0.768379 -0.272697
v -0.336413 -0.800534 -0.240783
v -0.322509 -0.802216 -0.258876
v -0.327851 -0.803403 -0.246859
v -0.311996 -0.804392 -0.264084
v -0.167952 -0.808152 -0.359891
v -0.183976 -0.808647 -0.343934
v -0.263925 -0.808053 -0.295931
v -0.247901 -0.807954 -0.311887
v -0.231878 -0.80736 -0.327911
v -0.0111911 -0.808647 0.249
v -0.355744 0.202099 0.249
v -0.356168 0.202099 0.248933
v -0.37465 0.202099 -0.215947
v -0.351335 -0.743843 -0.254937
v -0.344129 -0.759771 -0.263817
v -0.337431 -0.759771 -0.273631
v -0.329461 -0.759771 -0.281643
v -0.320559 -0.76828 -0.288587
v -0.306825 -0.802216 -0.2747
v -0.279864 -0.804293 -0.295931
v -0.13599 -0.808053 -0.375914
v -0.119966 -0.808647 -0.375914
v -0.167952 -0.803799 -0.373444
v -0.263756 -0.804194 -0.311821
v -0.247223 -0.803601 -0.32771
v -0.231878 -0.803007 -0.339528
v 0.279864 -0.808647 0.248933
v 0.295888 -0.808548 0.248933
v 0.311827 -0.808053 0.248933
v 0.326918 -0.803304 0.248933
v 0.35354 -0.759771 0.248933
v 0.354896 -0.743843 0.248933
v -0.0111911 0.201208 0.249
v -0.13955 0.202099 0.249
v -0.351335 0.202099 -0.254937
v -0.346163 0.202099 -0.262682
v -0.3454 -0.743843 -0.263817
v -0.338024 -0.743843 -0.274232
v -0.32997 -0.743843 -0.282244
v -0.313777 -0.743843 -0.298
v -0.272742 -0.759771 -0.336724
v -0.272064 -0.767983 -0.336123
v -0.288257 -0.768082 -0.3203
v -0.290631 -0.802117 -0.290589
v -0.0719795 -0.808053 -0.391871
v -0.13599 -0.8037 -0.387665
v -0.0719795 -0.8037 -0.403688
v -0.0559558 -0.808647 -0.391871
v -0.179907 -0.802117 -0.370106
v -0.148961 -0.802018 -0.385729
v -0.25833 -0.801919 -0.322236
v -0.241458 -0.801127 -0.336924
v -0.210852 -0.801622 -0.353548
v 0.295888 -0.808647 0.247931
v 0.311827 -0.808152 0.247931
v 0.359898 -0.808251 0.167881
v 0.343874 -0.807657 0.199928
v 0.327851 -0.806965 0.231908
v 0.344468 -0.804392 0.215885
v 0.339042 -0.802512 0.231908
v 0.336414 -0.800534 0.240854
v 0.353709 -0.76927 0.243325
v 0.368461 -0.759771 0.224831
v 0.367952 -0.767884 0.224097
v 0.393726 -0.743843 0.183904
v 0.355066 0.202099 0.248666
v 0.354896 0.202099 0.248933
v -0.3454 0.202099 -0.263817
v -0.338024 0.202099 -0.274232
v -0.331072 0.202099 -0.281176
v -0.313777 0.202099 -0.298
v -0.282408 0.202099 -0.328445
v -0.281305 -0.743843 -0.329513
v -0.273251 -0.743843 -0.337258
v -0.25604 -0.753341 -0.352079
v -0.262399 -0.759178 -0.345804
v -0.254938 -0.764125 -0.351278
v -0.0559558 -0.804194 -0.405424
v -0.098177 -0.800633 -0.400484
v -0.0880032 -0.802117 -0.401752
v -0.0400168 -0.766499 -0.431729
v -0.0111911 -0.808647 -0.391871
v -0.0400168 -0.804194 -0.406158
v -0.224247 -0.767983 -0.368103
v -0.193302 -0.768379 -0.384594
v -0.162272 -0.768874 -0.401018
v -0.11242 -0.767884 -0.415973
v 0.327851 -0.808647 0.215885
v 0.343874 -0.808647 0.183904
v 0.359898 -0.808647 0.151858
v 0.375837 -0.808548 0.119944
v 0.375837 -0.807657 0.135968
v 0.373802 -0.803898 0.167881
v 0.370496 -0.802315 0.180299
v 0.356507 -0.803304 0.199928
v 0.353455 -0.801622 0.210543
v 0.385841 -0.759771 0.195321
v 0.384909 -0.768676 0.193652
v 0.392454 -0.759771 0.183904
v 0.399152 -0.743843 0.17409
v 0.393726 0.202099 0.183904
v -0.273251 0.202099 -0.337258
v -0.264179 -0.743843 -0.345269
v -0.25621 -0.743843 -0.352146
v -0.247901 -0.743843 -0.35682
v -0.203645 -0.743843 -0.381522
v -0.173294 -0.743843 -0.398414
v -0.194828 -0.759771 -0.385462
v -0.22518 -0.759771 -0.368637
v -0.0556167 -0.761157 -0.430327
v -0.0500211 -0.756704 -0.43233
v -0.0400168 -0.758584 -0.432464
v -0.0111911 -0.75621 -0.432263
v 0.0331497 -0.752054 -0.431863
v -0.0111911 -0.762542 -0.431596
v 0.00796957 -0.762443 -0.431195
v -0.0111911 -0.764125 -0.431395
v 0.055956 -0.759771 -0.430327
v 0.055956 -0.804194 -0.405291
v 0.040017 -0.804194 -0.405558
v -0.0111911 -0.804194 -0.405958
v 0.055956 -0.808647 -0.391804
v -0.164391 -0.759771 -0.402086
v -0.151929 -0.759771 -0.406025
v -0.114031 -0.759771 -0.41644
v 0.391861 -0.808647 0.0559173
v 0.391861 -0.808152 0.071874
v 0.391861 -0.806767 0.0878974
v 0.387198 -0.803304 0.135968
v 0.385333 -0.801622 0.149053
v 0.383807 -0.798258 0.159669
v 0.400593 -0.768577 0.162406
v 0.398389 -0.759771 0.172888
v 0.40195 -0.743843 0.166078
v 0.399152 0.202099 0.17409
v 0.401526 -0.759771 0.164877
v -0.264179 0.202099 -0.345269
v -0.25621 0.202099 -0.352146
v -0.247901 0.202099 -0.35682
v -0.203645 0.202099 -0.381522
v -0.173294 0.202099 -0.398414
v -0.166341 0.202099 -0.402086
v -0.165239 -0.743843 -0.40262
v -0.0719795 -0.743843 -0.427723
v -0.0590079 -0.743843 -0.430795
v -0.0510385 -0.743843 -0.43253
v -0.0400168 -0.743843 -0.433064
v 0.0390844 -0.758386 -0.430995
v -0.0111911 -0.743843 -0.432597
v 0.0337432 -0.743843 -0.431863
v 0.0417127 -0.743843 -0.431729
v 0.055956 -0.743843 -0.431462
v 0.0719797 -0.759771 -0.427323
v 0.112336 -0.767884 -0.415973
v 0.0719797 -0.803799 -0.404089
v 0.0719797 -0.743843 -0.428992
v 0.0719797 -0.808152 -0.391804
v 0.119966 -0.808548 -0.375848
v 0.151929 -0.808647 -0.359891
v -0.151929 -0.743843 -0.407494
v -0.13599 -0.743843 -0.411633
v -0.103942 -0.743843 -0.419712
v -0.0880032 -0.743843 -0.423717
v 0.391861 -0.808647 -0.0561132
v 0.406189 -0.804194 -0.0400898
v 0.40568 -0.804194 0.0239372
v 0.405511 -0.804194 0.0399606
v 0.405256 -0.804194 0.0559173
v 0.404069 -0.803799 0.071874
v 0.402035 -0.802315 0.0878974
v 0.400509 -0.800732 0.0983126
v 0.415939 -0.767884 0.112266
v 0.406274 -0.743843 0.151858
v 0.40195 0.202099 0.166078
v 0.416363 -0.759771 0.113802
v -0.165239 0.202099 -0.40262
v -0.0719795 0.202099 -0.427723
v -0.0607883 0.202099 -0.430394
v -0.0590079 0.202099 -0.430795
v -0.0510385 0.202099 -0.43253
v -0.0400168 0.202099 -0.433064
v 0.0323867 0.202099 -0.43193
v 0.0406105 0.202099 -0.431796
v 0.0540908 0.202099 -0.431529
v 0.055956 0.202099 -0.431462
v 0.113777 -0.759771 -0.416373
v 0.164985 -0.759771 -0.401485
v 0.162442 -0.768577 -0.400617
v 0.149046 -0.801622 -0.385328
v 0.0983468 -0.800732 -0.40055
v 0.0879187 -0.802315 -0.402019
v 0.13599 -0.803304 -0.387197
v 0.13599 -0.807657 -0.375848
v 0.0879187 -0.806767 -0.391804
v 0.0719797 0.202099 -0.428992
v 0.13599 -0.743843 -0.410832
v 0.167953 -0.808251 -0.359891
v 0.183976 -0.808647 -0.343867
v -0.151929 0.202099 -0.407494
v -0.138109 0.202099 -0.411099
v -0.125138 0.202099 -0.41437
v -0.103942 0.202099 -0.419712
v -0.0880032 0.202099 -0.423717
v 0.375837 -0.808647 -0.11994
v 0.375837 -0.808053 -0.135897
v 0.391861 -0.808053 -0.0720031
v 0.405426 -0.804194 -0.0561132
v 0.431708 -0.766499 -0.0400898
v 0.430352 -0.759771 0.0559173
v 0.4273 -0.759771 0.071874
v 0.418991 -0.759771 0.103921
v 0.410852 -0.743843 0.135968
v 0.406274 0.202099 0.151858
v 0.428995 -0.743843 0.071874
v 0.151929 -0.743843 -0.406225
v 0.166172 -0.743843 -0.401886
v 0.174142 -0.743843 -0.399148
v 0.172955 -0.759771 -0.398414
v 0.193726 -0.768676 -0.384861
v 0.159813 -0.798258 -0.383726
v 0.180331 -0.802315 -0.370506
v 0.167953 -0.803898 -0.373778
v 0.13599 0.202099 -0.410832
v 0.149809 0.202099 -0.406893
v 0.247902 -0.808152 -0.311887
v 0.215854 -0.808647 -0.327844
v 0.199915 -0.807657 -0.343867
v 0.343874 -0.808647 -0.1839
v 0.359898 -0.808152 -0.167877
v 0.373378 -0.803799 -0.167877
v 0.387622 -0.8037 -0.135897
v 0.403645 -0.8037 -0.0720031
v 0.431369 -0.763927 -0.00804293
v 0.401695 -0.802117 -0.0880266
v 0.415939 -0.767884 -0.112329
v 0.430352 -0.761157 -0.0557126
v 0.432302 -0.756704 -0.0501044
v 0.432386 -0.758584 -0.0400898
v 0.432302 -0.757298 -0.0240664
v 0.431878 -0.752054 0.0331507
v 0.430945 -0.758386 0.0390927
v 0.431454 -0.743843 0.0559173
v 0.4312 -0.762443 0.00791374
v 0.425095 0.202099 0.0857609
v 0.417211 0.202099 0.113602
v 0.410852 0.202099 0.135968
v 0.429334 0.202099 0.0697375
v 0.428995 0.202099 0.071874
v 0.164307 0.202099 -0.402486
v 0.166172 0.202099 -0.401886
v 0.173124 0.202099 -0.399549
v 0.183976 -0.743843 -0.39374
v 0.183976 -0.759771 -0.392405
v 0.174142 0.202099 -0.399148
v 0.224078 -0.767884 -0.367969
v 0.210598 -0.801622 -0.353481
v 0.231878 -0.802512 -0.338994
v 0.199915 -0.803304 -0.356553
v 0.215854 -0.804392 -0.344468
v 0.231878 -0.806965 -0.327844
v 0.184994 -0.804887 -0.361026
v 0.279864 -0.808152 -0.27984
v 0.295888 -0.808647 -0.247927
v 0.231878 -0.808647 -0.311887
v 0.264095 -0.804392 -0.312021
v 0.327851 -0.808647 -0.21588
v 0.327851 -0.80736 -0.231904
v 0.339466 -0.803007 -0.231904
v 0.370072 -0.802117 -0.179894
v 0.385757 -0.802018 -0.148916
v 0.400424 -0.800633 -0.098108
v 0.400932 -0.768874 -0.162268
v 0.405935 -0.759771 -0.15192
v 0.416363 -0.759771 -0.113998
v 0.427723 -0.743843 -0.0720031
v 0.430776 -0.743843 -0.0591176
v 0.432471 -0.743843 -0.0511059
v 0.433065 -0.743843 -0.0400898
v 0.431793 -0.743843 0.0416965
v 0.431539 0.202099 0.0539811
v 0.431454 0.202099 0.0559173
v 0.183976 0.202099 -0.39374
v 0.246969 -0.743843 -0.356085
v 0.224841 -0.759771 -0.368437
v 0.195422 -0.759771 -0.385862
v 0.272658 -0.768379 -0.33659
v 0.24078 -0.800534 -0.336457
v 0.254006 -0.759771 -0.350544
v 0.258838 -0.802216 -0.322436
v 0.246884 -0.803403 -0.327844
v 0.279949 -0.804392 -0.295931
v 0.311827 -0.807954 -0.247927
v 0.274693 -0.802216 -0.306746
v 0.311742 -0.804194 -0.26375
v 0.327681 -0.803601 -0.247259
v 0.336838 -0.801127 -0.241451
v 0.353455 -0.801622 -0.210806
v 0.368037 -0.767983 -0.224293
v 0.38457 -0.768379 -0.193247
v 0.402035 -0.759771 -0.164405
v 0.407461 -0.743843 -0.15192
v 0.411615 -0.743843 -0.135897
v 0.414752 -0.743843 -0.123478
v 0.427215 0.202099 -0.0741396
v 0.427723 0.202099 -0.0720031
v 0.430776 0.202099 -0.0591176
v 0.432471 0.202099 -0.0511059
v 0.433065 0.202099 -0.0400898
v 0.431793 0.202099 0.0416965
v 0.253836 0.202099 -0.351946
v 0.254938 -0.743843 -0.351278
v 0.288512 -0.76828 -0.320567
v 0.263925 -0.759771 -0.344134
v 0.273675 -0.759771 -0.337458
v 0.281645 -0.759771 -0.329446
v 0.322255 -0.801919 -0.258342
v 0.336075 -0.767983 -0.272096
v 0.35125 -0.764125 -0.254937
v 0.352013 -0.753341 -0.256139
v 0.368546 -0.759771 -0.225227
v 0.385417 -0.759771 -0.194783
v 0.398389 -0.743843 -0.173218
v 0.402543 -0.743843 -0.165273
v 0.407461 0.202099 -0.15192
v 0.411021 0.202099 -0.138033
v 0.414752 0.202099 -0.123478
v 0.254938 0.202099 -0.351278
v 0.263925 -0.743843 -0.345403
v 0.274184 -0.743843 -0.337992
v 0.282238 -0.743843 -0.32998
v 0.320983 -0.759771 -0.288987
v 0.336668 -0.759771 -0.272697
v 0.337177 -0.743843 -0.273231
v 0.345231 -0.743843 -0.264218
v 0.352098 -0.743843 -0.256206
v 0.356761 -0.743843 -0.247927
v 0.392454 -0.743843 -0.1839
v 0.398389 0.202099 -0.173218
v 0.402543 0.202099 -0.165273
v 0.263925 0.202099 -0.345403
v 0.272827 0.202099 -0.338994
v 0.274184 0.202099 -0.337992
v 0.282238 0.202099 -0.32998
v 0.321492 -0.743843 -0.289521
v 0.337177 0.202099 -0.273231
v 0.345231 0.202099 -0.264218
v 0.352098 0.202099 -0.256206
v 0.356761 0.202099 -0.247927
v 0.363544 0.202099 -0.235843
v 0.392454 0.202099 -0.1839
v 0.321492 0.202099 -0.289521
f 1 2 3
f 1 3 18
f 1 18 4
f 1 4 5
f 1 5 6
f 1 6 7
f 1 7 8
f 1 8 9
f 1 9 10
f 1 10 2
f 2 11 12
f 2 12 3
f 2 10 13
f 2 13 14
f 2 14 15
f 2 15 16
f 2 16 11
f 3 12 17
f 3 17 18
f 4 18 17
f 4 17 29
f 4 29 28
f 4 28 49
f 4 49 48
f 4 48 47
f 4 47 70
f 4 70 92
f 4 92 101
f 4 101 124
f 4 124 142
f 4 142 141
f 4 141 164
f 4 164 197
f 4 197 196
f 4 196 231
f 4 231 265
f 4 265 304
f 4 304 343
f 4 343 376
f 4 376 375
f 4 375 374
f 4 374 378
f 4 378 377
f 4 377 411
f 4 411 410
f 4 410 439
f 4 439 438
f 4 438 437
f 4 437 436
f 4 436 435
f 4 435 434
f 4 434 456
f 4 456 455
f 4 455 454
f 4 454 469
f 4 469 468
f 4 468 480
f 4 480 479
f 4 479 478
f 4 478 477
f 4 477 476
f 4 476 475
f 4 475 481
f 4 481 473
f 4 473 472
f 4 472 471
f 4 471 470
f 4 470 457
f 4 457 440
f 4 440 412
f 4 412 384
f 4 384 381
f 4 381 380
f 4 380 379
f 4 379 354
f 4 354 353
f 4 353 325
f 4 325 315
f 4 315 314
f 4 314 313
f 4 313 312
f 4 312 311
f 4 311 310
f 4 310 309
f 4 309 308
f 4 308 307
f 4 307 333
f 4 333 332
f 4 332 331
f 4 331 330
f 4 330 329
f 4 329 306
f 4 306 272
f 4 272 271
f 4 271 270
f 4 270 269
f 4 269 268
f 4 268 267
f 4 267 232
f 4 232 202
f 4 202 201
f 4 201 200
f 4 200 199
f 4 199 198
f 4 198 166
f 4 166 165
f 4 165 143
f 4 143 125
f 4 125 107
f 4 107 106
f 4 106 105
f 4 105 83
f 4 83 60
f 4 60 41
f 4 41 19
f 4 19 5
f 5 19 20
f 5 20 7
f 5 7 21
f 5 21 22
f 5 22 6
f 6 22 7
f 7 22 21
f 7 20 23
f 7 23 24
f 7 24 25
f 7 25 8
f 8 25 26
f 8 26 13
f 8 13 9
f 9 13 10
f 11 27 28
f 11 28 29
f 11 29 12
f 11 16 27
f 12 29 17
f 13 26 23
f 13 23 30
f 13 30 31
f 13 31 32
f 13 32 33
f 13 33 34
f 13 34 35
f 13 35 36
f 13 36 15
f 13 15 14
f 15 37 16
f 15 36 38
f 15 38 39
f 15 39 37
f 16 37 40
f 16 40 27
f 19 41 42
f 19 42 20
f 20 42 23
f 23 43 44
f 23 44 45
f 23 45 30
f 23 26 25
f 23 25 46
f 23 46 24
f 23 42 43
f 24 46 25
f 27 40 47
f 27 47 48
f 27 48 49
f 27 49 28
f 30 45 50
f 30 50 51
f 30 51 31
f 31 51 32
f 32 51 52
f 32 52 33
f 33 52 53
f 33 53 34
f 34 53 75
f 34 75 54
f 34 54 35
f 35 54 36
f 36 54 38
f 37 55 40
f 37 39 55
f 38 56 39
f 38 54 57
f 38 57 56
f 39 56 58
f 39 58 55
f 40 59 70
f 40 70 47
f 40 55 59
f 41 60 61
f 41 61 42
f 42 61 62
f 42 62 44
f 42 44 43
f 44 62 63
f 44 63 64
f 44 64 65
f 44 65 66
f 44 66 67
f 44 67 45
f 45 68 69
f 45 69 50
f 45 67 68
f 50 71 72
f 50 72 51
f 50 69 71
f 51 72 73
f 51 73 94
f 51 94 117
f 51 117 136
f 51 136 152
f 51 152 178
f 51 178 212
f 51 212 252
f 51 252 289
f 51 289 328
f 51 328 356
f 51 356 394
f 51 394 393
f 51 393 396
f 51 396 358
f 51 358 334
f 51 334 294
f 51 294 256
f 51 256 220
f 51 220 219
f 51 219 218
f 51 218 184
f 51 184 157
f 51 157 140
f 51 140 119
f 51 119 95
f 51 95 74
f 51 74 52
f 52 74 75
f 52 75 53
f 54 75 57
f 55 76 77
f 55 77 78
f 55 78 59
f 55 58 76
f 56 57 79
f 56 79 80
f 56 80 76
f 56 76 58
f 57 75 81
f 57 81 82
f 57 82 79
f 59 78 92
f 59 92 70
f 60 83 84
f 60 84 61
f 61 84 62
f 62 84 63
f 63 84 85
f 63 85 86
f 63 86 87
f 63 87 64
f 64 88 89
f 64 89 65
f 64 87 88
f 65 90 91
f 65 91 68
f 65 68 67
f 65 67 66
f 65 89 90
f 68 91 71
f 68 71 69
f 71 93 72
f 71 91 93
f 72 93 73
f 73 93 94
f 74 95 81
f 74 81 75
f 76 96 97
f 76 97 98
f 76 98 77
f 76 80 99
f 76 99 96
f 77 98 78
f 78 100 101
f 78 101 92
f 78 98 100
f 79 99 80
f 79 82 102
f 79 102 99
f 81 95 82
f 82 103 102
f 82 95 104
f 82 104 103
f 83 105 84
f 84 105 85
f 85 105 106
f 85 106 107
f 85 107 86
f 86 107 125
f 86 125 108
f 86 108 109
f 86 109 87
f 87 109 88
f 88 90 89
f 88 109 110
f 88 110 90
f 90 110 111
f 90 111 112
f 90 112 113
f 90 113 91
f 91 113 114
f 91 114 115
f 91 115 93
f 93 115 116
f 93 116 94
f 94 116 118
f 94 118 117
f 95 119 120
f 95 120 104
f 96 99 121
f 96 121 103
f 96 103 120
f 96 120 119
f 96 119 140
f 96 140 163
f 96 163 164
f 96 164 141
f 96 141 123
f 96 123 100
f 96 100 122
f 96 122 97
f 97 122 100
f 97 100 98
f 99 102 121
f 100 123 101
f 101 123 124
f 102 103 121
f 103 104 120
f 108 125 143
f 108 143 126
f 108 126 127
f 108 127 128
f 108 128 109
f 109 128 110
f 110 128 127
f 110 127 129
f 110 129 130
f 110 130 131
f 110 131 111
f 111 131 112
f 112 131 132
f 112 132 133
f 112 133 113
f 113 133 114
f 114 133 134
f 114 134 116
f 114 116 115
f 116 134 118
f 117 135 136
f 117 118 137
f 117 137 138
f 117 138 139
f 117 139 135
f 118 134 137
f 123 141 142
f 123 142 124
f 126 143 165
f 126 165 144
f 126 144 127
f 127 144 129
f 129 144 145
f 129 145 130
f 130 145 146
f 130 146 147
f 130 147 148
f 130 148 149
f 130 149 132
f 130 132 131
f 132 149 134
f 132 134 133
f 134 150 137
f 134 149 150
f 135 151 152
f 135 152 136
f 135 139 153
f 135 153 151
f 137 150 138
f 138 150 154
f 138 154 139
f 139 154 155
f 139 155 156
f 139 156 153
f 140 157 158
f 140 158 159
f 140 159 160
f 140 160 161
f 140 161 162
f 140 162 197
f 140 197 163
f 144 165 166
f 144 166 167
f 144 167 145
f 145 167 146
f 146 167 168
f 146 168 147
f 147 168 169
f 147 169 170
f 147 170 171
f 147 171 172
f 147 172 173
f 147 173 148
f 148 173 149
f 149 173 174
f 149 174 154
f 149 154 150
f 151 175 178
f 151 178 152
f 151 153 176
f 151 176 177
f 151 177 175
f 153 156 179
f 153 179 180
f 153 180 176
f 154 174 181
f 154 181 155
f 155 181 182
f 155 182 156
f 156 182 183
f 156 183 179
f 157 184 158
f 158 184 185
f 158 185 159
f 159 185 186
f 159 186 187
f 159 187 188
f 159 188 160
f 160 188 189
f 160 189 190
f 160 190 191
f 160 191 192
f 160 192 161
f 161 193 162
f 161 192 194
f 161 194 193
f 162 193 195
f 162 195 196
f 162 196 197
f 163 197 164
f 166 198 167
f 167 198 199
f 167 199 168
f 168 199 200
f 168 200 169
f 169 200 170
f 170 200 201
f 170 201 202
f 170 202 203
f 170 203 171
f 171 203 204
f 171 204 205
f 171 205 206
f 171 206 172
f 172 206 207
f 172 207 182
f 172 182 181
f 172 181 173
f 173 181 174
f 175 177 208
f 175 208 178
f 176 180 209
f 176 209 210
f 176 210 177
f 177 210 211
f 177 211 208
f 178 208 213
f 178 213 212
f 179 183 214
f 179 214 215
f 179 215 216
f 179 216 180
f 180 216 217
f 180 217 209
f 182 207 214
f 182 214 183
f 184 218 185
f 185 218 186
f 186 218 219
f 186 219 220
f 186 220 221
f 186 221 222
f 186 222 223
f 186 223 187
f 187 223 188
f 188 223 189
f 189 223 224
f 189 224 225
f 189 225 190
f 190 225 224
f 190 224 226
f 190 226 191
f 191 226 194
f 191 194 192
f 193 194 227
f 193 227 195
f 194 226 224
f 194 224 228
f 194 228 229
f 194 229 227
f 195 227 229
f 195 229 230
f 195 230 265
f 195 265 231
f 195 231 196
f 202 232 203
f 203 232 204
f 204 232 267
f 204 267 233
f 204 233 205
f 205 233 234
f 205 234 235
f 205 235 236
f 205 236 237
f 205 237 238
f 205 238 239
f 205 239 214
f 205 214 207
f 205 207 206
f 208 211 213
f 209 217 211
f 209 211 210
f 211 217 240
f 211 240 241
f 211 241 242
f 211 242 243
f 211 243 244
f 211 244 245
f 211 245 246
f 211 246 247
f 211 247 248
f 211 248 249
f 211 249 250
f 211 250 251
f 211 251 213
f 212 213 252
f 213 251 252
f 214 239 238
f 214 238 253
f 214 253 215
f 215 253 216
f 216 253 254
f 216 254 217
f 217 254 255
f 217 255 241
f 217 241 240
f 220 256 221
f 221 257 222
f 221 256 257
f 222 257 258
f 222 258 259
f 222 259 223
f 223 259 260
f 223 260 224
f 224 260 261
f 224 261 228
f 228 261 262
f 228 262 263
f 228 263 229
f 229 263 230
f 230 264 304
f 230 304 265
f 230 263 266
f 230 266 264
f 233 267 268
f 233 268 234
f 234 268 269
f 234 269 235
f 235 269 270
f 235 270 236
f 236 270 271
f 236 271 237
f 237 271 272
f 237 272 273
f 237 273 253
f 237 253 238
f 241 274 275
f 241 275 276
f 241 276 277
f 241 277 242
f 241 255 274
f 242 277 243
f 243 277 244
f 244 278 246
f 244 246 245
f 244 277 279
f 244 279 280
f 244 280 281
f 244 281 282
f 244 282 248
f 244 248 278
f 246 278 248
f 246 248 247
f 248 283 284
f 248 284 285
f 248 285 249
f 248 282 286
f 248 286 283
f 249 285 287
f 249 287 252
f 249 252 250
f 250 252 251
f 252 287 288
f 252 288 289
f 253 273 290
f 253 290 254
f 254 290 255
f 255 290 291
f 255 291 292
f 255 292 293
f 255 293 274
f 256 294 295
f 256 295 296
f 256 296 297
f 256 297 298
f 256 298 257
f 257 298 299
f 257 299 258
f 258 299 259
f 259 300 260
f 259 299 300
f 260 301 302
f 260 302 262
f 260 262 261
f 260 300 301
f 262 302 266
f 262 266 263
f 264 266 303
f 264 303 343
f 264 343 304
f 266 302 305
f 266 305 303
f 272 306 273
f 273 306 329
f 273 329 290
f 274 293 333
f 274 333 307
f 274 307 308
f 274 308 275
f 275 308 309
f 275 309 310
f 275 310 276
f 276 310 311
f 276 311 277
f 277 311 312
f 277 312 279
f 279 312 313
f 279 313 280
f 280 313 281
f 281 313 282
f 282 313 314
f 282 314 315
f 282 315 325
f 282 325 286
f 283 286 284
f 284 286 316
f 284 316 317
f 284 317 318
f 284 318 319
f 284 319 320
f 284 320 321
f 284 321 285
f 285 322 323
f 285 323 324
f 285 324 287
f 285 321 322
f 286 325 353
f 286 353 326
f 286 326 316
f 287 324 323
f 287 323 288
f 288 323 327
f 288 327 289
f 289 327 328
f 290 329 330
f 290 330 291
f 291 330 331
f 291 331 292
f 292 331 332
f 292 332 333
f 292 333 293
f 294 334 335
f 294 335 336
f 294 336 337
f 294 337 295
f 295 337 338
f 295 338 296
f 296 338 297
f 297 338 298
f 298 338 339
f 298 339 299
f 299 339 300
f 300 302 301
f 300 339 302
f 302 339 340
f 302 340 341
f 302 341 305
f 303 305 342
f 303 342 376
f 303 376 343
f 305 341 344
f 305 344 342
f 316 326 345
f 316 345 317
f 317 345 346
f 317 346 347
f 317 347 348
f 317 348 318
f 318 349 350
f 318 350 319
f 318 348 349
f 319 350 351
f 319 351 352
f 319 352 322
f 319 322 321
f 319 321 320
f 322 352 323
f 323 352 327
f 326 353 354
f 326 354 345
f 327 355 356
f 327 356 328
f 327 352 357
f 327 357 355
f 334 358 359
f 334 359 335
f 335 359 360
f 335 360 361
f 335 361 362
f 335 362 336
f 336 362 337
f 337 362 338
f 338 363 339
f 338 362 364
f 338 364 365
f 338 365 366
f 338 366 367
f 338 367 368
f 338 368 369
f 338 369 370
f 338 370 363
f 339 371 370
f 339 370 372
f 339 372 344
f 339 344 340
f 339 363 373
f 339 373 371
f 340 344 341
f 342 344 374
f 342 374 375
f 342 375 376
f 344 372 377
f 344 377 378
f 344 378 374
f 345 354 379
f 345 379 346
f 346 379 380
f 346 380 381
f 346 381 347
f 347 382 383
f 347 383 348
f 347 381 384
f 347 384 412
f 347 412 382
f 348 383 349
f 349 385 351
f 349 351 350
f 349 383 385
f 351 385 386
f 351 386 387
f 351 387 388
f 351 388 352
f 352 388 389
f 352 389 390
f 352 390 391
f 352 391 357
f 355 392 396
f 355 396 393
f 355 393 394
f 355 394 356
f 355 357 390
f 355 390 395
f 355 395 392
f 357 391 390
f 358 396 359
f 359 396 397
f 359 397 360
f 360 397 398
f 360 398 399
f 360 399 400
f 360 400 361
f 361 400 401
f 361 401 364
f 361 364 362
f 363 370 373
f 364 401 365
f 365 401 400
f 365 400 402
f 365 402 403
f 365 403 404
f 365 404 367
f 365 367 366
f 367 404 405
f 367 405 406
f 367 406 407
f 367 407 408
f 367 408 368
f 368 408 369
f 369 408 370
f 370 371 373
f 370 408 409
f 370 409 372
f 372 409 410
f 372 410 411
f 372 411 377
f 382 412 413
f 382 413 414
f 382 414 415
f 382 415 383
f 383 415 385
f 385 416 417
f 385 417 386
f 385 415 414
f 385 414 418
f 385 418 416
f 386 417 387
f 387 417 419
f 387 419 420
f 387 420 389
f 387 389 388
f 389 420 390
f 390 420 395
f 392 395 421
f 392 421 422
f 392 422 396
f 395 420 419
f 395 419 423
f 395 423 421
f 396 422 397
f 397 424 425
f 397 425 398
f 397 422 424
f 398 426 427
f 398 427 399
f 398 425 426
f 399 427 428
f 399 428 429
f 399 429 402
f 399 402 400
f 402 429 430
f 402 430 403
f 403 430 431
f 403 431 404
f 404 431 432
f 404 432 433
f 404 433 405
f 405 434 435
f 405 435 436
f 405 436 406
f 405 433 434
f 406 436 437
f 406 437 407
f 407 437 438
f 407 438 408
f 408 438 439
f 408 439 409
f 409 439 410
f 412 440 413
f 413 440 441
f 413 441 414
f 414 441 418
f 416 442 423
f 416 423 419
f 416 419 417
f 416 418 443
f 416 443 444
f 416 444 445
f 416 445 442
f 418 441 443
f 421 423 424
f 421 424 422
f 423 442 446
f 423 446 424
f 424 446 425
f 425 446 426
f 426 446 447
f 426 447 448
f 426 448 428
f 426 428 427
f 428 448 449
f 428 449 450
f 428 450 451
f 428 451 430
f 428 430 429
f 430 451 452
f 430 452 453
f 430 453 431
f 431 453 469
f 431 469 454
f 431 454 432
f 432 454 455
f 432 455 456
f 432 456 433
f 433 456 434
f 440 457 441
f 441 458 443
f 441 457 470
f 441 470 458
f 442 447 446
f 442 445 447
f 443 458 444
f 444 458 459
f 444 459 460
f 444 460 445
f 445 461 447
f 445 460 461
f 447 461 462
f 447 462 449
f 447 449 448
f 449 451 450
f 449 462 463
f 449 463 464
f 449 464 465
f 449 465 466
f 449 466 467
f 449 467 452
f 449 452 451
f 452 467 480
f 452 480 468
f 452 468 469
f 452 469 453
f 458 470 471
f 458 471 459
f 459 471 472
f 459 472 473
f 459 473 460
f 460 473 481
f 460 481 474
f 460 474 461
f 461 474 463
f 461 463 462
f 463 474 481
f 463 481 475
f 463 475 476
f 463 476 464
f 464 476 477
f 464 477 465
f 465 477 478
f 465 478 466
f 466 478 479
f 466 479 467
f 467 479 480
