v -0.30256 -0.743837 0.309136
v -0.301483 -0.759839 0.309136
v -0.282244 -0.743837 0.330069
v -0.30256 0.327866 0.309136
v -0.289457 -0.759839 0.321513
v -0.300742 -0.763726 0.309136
v -0.281677 -0.759839 0.329502
v -0.273679 -0.759839 0.337539
v -0.274246 -0.743837 0.338049
v -0.282244 0.327866 0.330069
v -0.289312 0.340439 0.321362
v -0.300407 0.342725 0.309136
v -0.297121 -0.769784 0.309136
v -0.288585 -0.768298 0.320615
v -0.272734 -0.768412 0.33666
v -0.263936 -0.759839 0.344186
v -0.263936 -0.743837 0.345471
v -0.274246 0.327866 0.338049
v -0.273476 0.340211 0.33735
v -0.287727 0.35107 0.319726
v -0.298444 0.346726 0.309136
v -0.273228 -0.799731 0.309136
v -0.258919 -0.802246 0.322534
v -0.240873 -0.800531 0.336499
v -0.224135 -0.767841 0.368031
v -0.254033 -0.759839 0.350587
v -0.254978 -0.743837 0.351362
v -0.263936 0.327866 0.345471
v -0.225066 0.338496 0.368579
v -0.264998 0.344897 0.341349
v -0.271047 0.350841 0.335638
v -0.254978 0.327866 0.351362
v -0.278391 0.358956 0.324397
v -0.292671 0.357128 0.309136
v -0.292875 0.356785 0.309136
v -0.270131 -0.80316 0.309136
v -0.246908 -0.803503 0.327895
v -0.231944 -0.802589 0.339089
v -0.264125 -0.804532 0.312086
v -0.21064 -0.801674 0.353536
v -0.180393 -0.80236 0.370565
v -0.193728 -0.768755 0.384917
v -0.18397 -0.759839 0.392491
v -0.195415 -0.759839 0.385948
v -0.22492 -0.759839 0.368494
v -0.225618 -0.743837 0.36891
v -0.194818 0.341011 0.385617
v -0.225618 0.327866 0.36891
v -0.204227 0.327866 0.381693
v -0.18397 0.327866 0.393795
v -0.191139 0.351641 0.383092
v -0.277576 0.358956 0.325125
v -0.289588 0.358956 0.311027
v -0.290417 0.358956 0.309136
v -0.267048 -0.804417 0.309136
v -0.215962 -0.804417 0.344526
v -0.24794 -0.808304 0.311945
v -0.231944 -0.806932 0.327942
v -0.199966 -0.803389 0.356581
v -0.264096 -0.805103 0.309136
v -0.250761 -0.808189 0.309136
v -0.167974 -0.80396 0.373836
v -0.159801 -0.798245 0.383839
v -0.162521 -0.768641 0.400688
v -0.172976 -0.759839 0.398466
v -0.174183 -0.743837 0.399251
v -0.18397 -0.743837 0.393795
v -0.204227 -0.743837 0.381693
v -0.16412 0.340782 0.401302
v -0.174183 0.327866 0.399251
v -0.158478 0.351412 0.398428
v -0.264707 0.358956 0.332443
v -0.265259 0.358956 0.332178
v -0.201304 0.358956 0.309136
v -0.167974 -0.808304 0.359928
v -0.199966 -0.807732 0.34394
v -0.24794 -0.808304 0.309136
v -0.234765 -0.808647 0.309136
v -0.215962 -0.808647 0.327942
v -0.153999 -0.804417 0.377334
v -0.153999 -0.80396 0.378006
v -0.153999 -0.792987 0.385721
v -0.153999 -0.769441 0.401643
v -0.153999 -0.76144 0.404233
v -0.153999 -0.759839 0.404517
v -0.164978 -0.759839 0.401529
v -0.166185 -0.743837 0.401993
v -0.166185 0.327866 0.401993
v -0.153999 0.327866 0.405718
v -0.153999 0.344669 0.402626
v -0.153999 0.346612 0.401794
v -0.153999 0.351755 0.39927
v -0.247504 0.358956 0.337085
v -0.219481 0.358956 0.326826
v -0.153999 0.352441 0.392188
v -0.153999 0.352327 0.380729
v -0.153999 0.345812 0.372323
v -0.153999 0.342383 0.370007
v -0.153999 0.201219 0.309136
v -0.18397 -0.808647 0.34394
v -0.153999 -0.808647 0.357895
v -0.153999 -0.808532 0.359928
v -0.153999 -0.808647 0.309136
v -0.153999 -0.746352 0.405586
v -0.153999 -0.743837 0.405718
v -0.231944 0.358956 0.335478
f 1 2 3
f 1 3 10
f 1 10 4
f 1 4 12
f 1 12 21
f 1 21 35
f 1 35 34
f 1 34 54
f 1 54 74
f 1 74 99
f 1 99 103
f 1 103 78
f 1 78 77
f 1 77 61
f 1 61 60
f 1 60 55
f 1 55 36
f 1 36 22
f 1 22 13
f 1 13 6
f 1 6 2
f 2 5 3
f 2 6 5
f 3 5 7
f 3 7 8
f 3 8 9
f 3 9 18
f 3 18 10
f 4 10 11
f 4 11 12
f 5 6 7
f 6 13 14
f 6 14 7
f 7 14 15
f 7 15 8
f 8 15 16
f 8 16 17
f 8 17 9
f 9 17 28
f 9 28 18
f 10 18 19
f 10 19 11
f 11 19 20
f 11 20 12
f 12 20 21
f 13 22 14
f 14 22 23
f 14 23 15
f 15 23 24
f 15 24 25
f 15 25 26
f 15 26 16
f 16 26 27
f 16 27 17
f 17 27 32
f 17 32 28
f 18 28 19
f 19 29 30
f 19 30 31
f 19 31 20
f 19 28 32
f 19 32 29
f 20 31 33
f 20 33 34
f 20 34 35
f 20 35 21
f 22 36 23
f 23 37 38
f 23 38 24
f 23 36 39
f 23 39 37
f 24 38 40
f 24 40 25
f 25 40 41
f 25 41 42
f 25 42 43
f 25 43 44
f 25 44 45
f 25 45 26
f 26 45 27
f 27 45 46
f 27 46 48
f 27 48 32
f 29 47 31
f 29 31 30
f 29 32 48
f 29 48 49
f 29 49 50
f 29 50 47
f 31 47 51
f 31 51 52
f 31 52 33
f 33 52 73
f 33 73 72
f 33 72 93
f 33 93 106
f 33 106 94
f 33 94 74
f 33 74 54
f 33 54 53
f 33 53 34
f 34 53 54
f 36 55 39
f 37 56 38
f 37 39 57
f 37 57 58
f 37 58 56
f 38 59 41
f 38 41 40
f 38 56 59
f 39 60 61
f 39 61 57
f 39 55 60
f 41 59 62
f 41 62 63
f 41 63 42
f 42 63 64
f 42 64 65
f 42 65 43
f 43 65 66
f 43 66 67
f 43 67 44
f 44 67 45
f 45 67 68
f 45 68 46
f 46 68 49
f 46 49 48
f 47 69 51
f 47 50 70
f 47 70 69
f 49 68 67
f 49 67 50
f 50 67 66
f 50 66 70
f 51 69 71
f 51 71 72
f 51 72 73
f 51 73 52
f 56 62 59
f 56 58 62
f 57 75 76
f 57 76 58
f 57 61 77
f 57 77 78
f 57 78 79
f 57 79 75
f 58 76 62
f 62 80 81
f 62 81 63
f 62 76 75
f 62 75 80
f 63 82 83
f 63 83 64
f 63 81 82
f 64 83 84
f 64 84 85
f 64 85 86
f 64 86 65
f 65 86 66
f 66 86 87
f 66 87 88
f 66 88 70
f 69 70 88
f 69 88 89
f 69 89 90
f 69 90 71
f 71 91 92
f 71 92 72
f 71 90 91
f 72 92 93
f 74 94 95
f 74 95 96
f 74 96 97
f 74 97 98
f 74 98 99
f 75 79 100
f 75 100 101
f 75 101 102
f 75 102 80
f 78 103 101
f 78 101 100
f 78 100 79
f 80 102 101
f 80 101 103
f 80 103 99
f 80 99 98
f 80 98 97
f 80 97 96
f 80 96 95
f 80 95 92
f 80 92 91
f 80 91 90
f 80 90 89
f 80 89 105
f 80 105 104
f 80 104 85
f 80 85 84
f 80 84 83
f 80 83 82
f 80 82 81
f 85 104 86
f 86 104 105
f 86 105 87
f 87 105 89
f 87 89 88
f 92 95 106
f 92 106 93
f 94 106 95
