v 0.347238 0.202099 -0.147801
v 0.369537 0.327934 -0.147801
v 0.408598 0.202099 -0.147801
v 0.347414 0.202099 -0.139247
v 0.373629 0.344911 -0.147801
v 0.392676 0.327934 0.0607806
v 0.395827 0.343922 0.0607806
v 0.408598 0.327934 -0.147801
v 0.41111 0.202099 -0.138103
v 0.377527 0.202099 0.0607806
v 0.374965 0.347066 -0.147801
v 0.399431 0.352233 0.0607806
v 0.406161 0.339759 -0.147801
v 0.416513 0.338592 -0.114338
v 0.411665 0.327934 -0.135959
v 0.411665 0.202099 -0.135959
v 0.430779 0.202099 0.0607806
v 0.381115 0.35241 -0.147801
v 0.405279 0.352572 0.0607806
v 0.404926 0.343922 -0.147801
v 0.427771 0.327934 -0.0719719
v 0.423747 0.327934 -0.087979
v 0.414799 0.327934 -0.123525
v 0.416084 0.352056 -0.0969013
v 0.417538 0.343922 -0.102924
v 0.432334 0.337958 -0.050003
v 0.414799 0.202099 -0.123525
v 0.430779 0.327934 0.0607806
v 0.431519 0.202099 0.0559825
v 0.39192 0.352897 -0.135959
v 0.39192 0.352764 -0.147801
v 0.407917 0.35272 0.0607806
v 0.40212 0.350063 -0.147801
v 0.430847 0.327934 -0.0590274
v 0.430443 0.202099 -0.0607629
v 0.427771 0.202099 -0.0719719
v 0.427234 0.202099 -0.0741157
v 0.423747 0.202099 -0.087979
v 0.400591 0.352277 -0.147801
v 0.416487 0.352262 -0.087979
v 0.426435 0.346712 -0.0399986
v 0.432485 0.338711 -0.0399986
v 0.433065 0.327934 -0.0399986
v 0.432544 0.327934 -0.0510239
v 0.425066 0.343922 0.0607806
v 0.431519 0.327934 0.0559825
v 0.431561 0.202099 0.0540837
v 0.407917 0.352897 -0.0719719
v 0.407917 0.352764 -0.087979
v 0.414824 0.352543 0.0607806
v 0.432325 0.202099 -0.0520856
v 0.430847 0.202099 -0.0590274
v 0.417067 0.35241 -0.0719719
v 0.417916 0.35241 -0.0559853
v 0.418437 0.35241 -0.0399986
v 0.417773 0.35241 0.0559825
v 0.41763 0.35241 0.0607806
v 0.42557 0.343922 0.0559825
v 0.432367 0.338179 -0.024012
v 0.433065 0.202099 -0.0399986
v 0.432124 0.337013 0.00798174
v 0.43193 0.336024 0.0331765
v 0.431821 0.327934 0.0417722
v 0.431964 0.202099 0.0324619
v 0.432544 0.202099 -0.0510239
v 0.431821 0.202099 0.0417722
v 0.431998 0.336393 0.0239888
v 0.432241 0.337603 -0.0080049
v 0.431838 0.202099 0.0407105
f 1 2 5
f 1 5 11
f 1 11 18
f 1 18 31
f 1 31 39
f 1 39 33
f 1 33 20
f 1 20 13
f 1 13 8
f 1 8 3
f 1 3 9
f 1 9 16
f 1 16 27
f 1 27 38
f 1 38 37
f 1 37 36
f 1 36 35
f 1 35 52
f 1 52 51
f 1 51 65
f 1 65 60
f 1 60 64
f 1 64 69
f 1 69 66
f 1 66 47
f 1 47 29
f 1 29 17
f 1 17 10
f 1 10 4
f 1 4 2
f 2 4 6
f 2 6 7
f 2 7 5
f 3 8 9
f 4 10 6
f 5 7 12
f 5 12 11
f 6 10 17
f 6 17 28
f 6 28 45
f 6 45 57
f 6 57 50
f 6 50 32
f 6 32 19
f 6 19 12
f 6 12 7
f 8 13 14
f 8 14 15
f 8 15 9
f 9 15 16
f 11 12 18
f 12 19 18
f 13 20 14
f 14 21 22
f 14 22 23
f 14 23 15
f 14 20 24
f 14 24 25
f 14 25 26
f 14 26 21
f 15 23 27
f 15 27 16
f 17 29 46
f 17 46 28
f 18 30 31
f 18 19 32
f 18 32 30
f 20 33 24
f 21 34 35
f 21 35 36
f 21 36 37
f 21 37 22
f 21 26 34
f 22 37 38
f 22 38 27
f 22 27 23
f 24 33 39
f 24 39 40
f 24 40 41
f 24 41 26
f 24 26 25
f 26 41 42
f 26 42 43
f 26 43 44
f 26 44 34
f 28 46 45
f 29 47 46
f 30 48 49
f 30 49 31
f 30 32 48
f 31 49 39
f 32 50 48
f 34 51 52
f 34 52 35
f 34 44 51
f 39 49 40
f 40 49 53
f 40 53 54
f 40 54 41
f 41 54 55
f 41 55 56
f 41 56 57
f 41 57 58
f 41 58 42
f 42 58 59
f 42 59 43
f 43 60 65
f 43 65 44
f 43 59 61
f 43 61 62
f 43 62 63
f 43 63 64
f 43 64 60
f 44 65 51
f 45 46 62
f 45 62 58
f 45 58 57
f 46 47 63
f 46 63 62
f 47 66 63
f 48 54 53
f 48 53 49
f 48 50 55
f 48 55 54
f 50 57 56
f 50 56 55
f 58 62 67
f 58 67 61
f 58 61 68
f 58 68 59
f 59 68 61
f 61 67 62
f 63 66 69
f 63 69 64
