v -0.222577 0.202099 -0.309518
v -0.222577 0.202099 -0.37099
v -0.222577 0.327935 -0.328266
v -0.349387 0.202099 -0.136356
v -0.247958 0.202099 -0.356821
v -0.222577 0.327935 -0.37099
v -0.222577 0.339332 -0.330724
v -0.375462 0.327935 -0.124813
v -0.360297 0.202099 -0.124813
v -0.256281 0.202099 -0.352146
v -0.247958 0.327935 -0.356821
v -0.256168 0.336601 -0.352074
v -0.222577 0.335671 -0.370436
v -0.222577 0.343923 -0.331929
v -0.379398 0.344927 -0.124813
v -0.414058 0.202099 -0.124813
v -0.257349 0.202099 -0.351231
v -0.256281 0.327935 -0.352146
v -0.252025 0.347274 -0.348026
v -0.241359 0.352249 -0.352508
v -0.247208 0.342742 -0.354243
v -0.225332 0.338918 -0.368677
v -0.264266 0.327935 -0.345279
v -0.273338 0.327935 -0.337278
v -0.272889 0.338845 -0.33682
v -0.222577 0.340395 -0.369352
v -0.222577 0.35129 -0.335254
v -0.383278 0.352279 -0.124813
v -0.414058 0.327935 -0.124813
v -0.406335 0.202099 -0.151995
v -0.264266 0.202099 -0.345279
v -0.268652 0.349503 -0.332628
v -0.247208 0.352515 -0.343182
v -0.231968 0.352869 -0.343929
v -0.231968 0.352411 -0.353905
v -0.222577 0.352471 -0.357159
v -0.222577 0.350049 -0.362845
v -0.222577 0.348603 -0.364123
v -0.257986 0.352249 -0.337351
v -0.273338 0.202099 -0.337278
v -0.281343 0.327935 -0.329519
v -0.297595 0.327935 -0.313759
v -0.330061 0.327935 -0.28224
v -0.289047 0.339243 -0.320989
v -0.333604 0.350935 -0.269613
v -0.222577 0.35222 -0.336049
v -0.222952 0.352205 -0.335471
v -0.39102 0.352662 -0.124813
v -0.222577 0.352618 -0.344483
v -0.409296 0.343923 -0.124813
v -0.402792 0.345252 -0.15267
v -0.401292 0.340793 -0.164116
v -0.406335 0.327935 -0.151995
v -0.401986 0.202099 -0.166188
v -0.284848 0.349917 -0.31682
v -0.274182 0.352249 -0.321953
v -0.263572 0.352515 -0.327543
v -0.222577 0.352662 -0.352893
v -0.32813 0.352515 -0.264143
v -0.343932 0.352854 -0.231974
v -0.39192 0.352913 -0.135994
v -0.281343 0.202099 -0.329519
v -0.297595 0.202099 -0.313759
v -0.330061 0.202099 -0.28224
v -0.338046 0.327935 -0.27424
v -0.337334 0.340262 -0.273469
v -0.321345 0.339952 -0.289301
v -0.305205 0.339612 -0.305157
v -0.337034 0.352249 -0.258962
v -0.322938 0.352249 -0.27465
v -0.352405 0.352205 -0.240938
v -0.398949 0.352559 -0.124813
v -0.401686 0.352411 -0.124813
v -0.400449 0.352249 -0.147802
v -0.398424 0.351467 -0.158477
v -0.399249 0.327935 -0.174189
v -0.401986 0.327935 -0.166188
v -0.383091 0.351718 -0.191153
v -0.385621 0.341044 -0.194816
v -0.399249 0.202099 -0.174189
v -0.342995 0.352485 -0.246938
v -0.371844 0.352411 -0.199972
v -0.377017 0.352515 -0.18508
v -0.387608 0.352411 -0.167971
v -0.392613 0.352515 -0.15267
v -0.400955 0.352411 -0.135994
v -0.338046 0.202099 -0.27424
v -0.345451 0.327935 -0.263926
v -0.351337 0.327935 -0.254962
v -0.368582 0.338535 -0.225058
v -0.354373 0.343923 -0.244215
v -0.385003 0.352249 -0.180478
v -0.393794 0.327935 -0.183972
v -0.394525 0.202099 -0.182671
v -0.345451 0.202099 -0.263926
v -0.346238 0.202099 -0.262746
v -0.351337 0.202099 -0.254962
v -0.351974 0.202099 -0.253902
v -0.356117 0.327935 -0.246986
v -0.364121 0.327935 -0.233612
v -0.374674 0.327935 -0.215973
v -0.393794 0.202099 -0.183972
v -0.382322 0.202099 -0.203177
v -0.357185 0.202099 -0.245203
v -0.364758 0.202099 -0.232552
v -0.375612 0.202099 -0.214407
f 1 2 6
f 1 6 13
f 1 13 26
f 1 26 38
f 1 38 37
f 1 37 36
f 1 36 58
f 1 58 49
f 1 49 46
f 1 46 27
f 1 27 14
f 1 14 7
f 1 7 3
f 1 3 4
f 1 4 9
f 1 9 16
f 1 16 30
f 1 30 54
f 1 54 80
f 1 80 94
f 1 94 102
f 1 102 103
f 1 103 106
f 1 106 105
f 1 105 104
f 1 104 98
f 1 98 97
f 1 97 96
f 1 96 95
f 1 95 87
f 1 87 64
f 1 64 63
f 1 63 62
f 1 62 40
f 1 40 31
f 1 31 17
f 1 17 10
f 1 10 5
f 1 5 2
f 2 5 11
f 2 11 6
f 3 7 8
f 3 8 4
f 4 8 9
f 5 10 18
f 5 18 11
f 6 11 12
f 6 12 13
f 7 14 8
f 8 15 28
f 8 28 48
f 8 48 72
f 8 72 73
f 8 73 50
f 8 50 29
f 8 29 16
f 8 16 9
f 8 14 15
f 10 17 18
f 11 18 12
f 12 19 20
f 12 20 21
f 12 21 22
f 12 22 13
f 12 18 23
f 12 23 24
f 12 24 25
f 12 25 19
f 13 22 26
f 14 27 15
f 15 27 28
f 16 29 53
f 16 53 30
f 17 31 23
f 17 23 18
f 19 25 32
f 19 32 20
f 20 33 34
f 20 34 35
f 20 35 36
f 20 36 37
f 20 37 38
f 20 38 26
f 20 26 22
f 20 22 21
f 20 32 39
f 20 39 33
f 23 31 40
f 23 40 24
f 24 40 62
f 24 62 41
f 24 41 25
f 25 41 42
f 25 42 43
f 25 43 44
f 25 44 45
f 25 45 32
f 27 46 47
f 27 47 28
f 28 47 46
f 28 46 49
f 28 49 48
f 29 50 51
f 29 51 52
f 29 52 53
f 30 53 77
f 30 77 54
f 32 45 55
f 32 55 39
f 33 39 56
f 33 56 57
f 33 57 34
f 34 49 58
f 34 58 36
f 34 36 35
f 34 57 59
f 34 59 60
f 34 60 61
f 34 61 48
f 34 48 49
f 39 55 45
f 39 45 56
f 41 62 63
f 41 63 42
f 42 63 64
f 42 64 43
f 43 64 87
f 43 87 65
f 43 65 66
f 43 66 67
f 43 67 68
f 43 68 44
f 44 68 45
f 45 69 70
f 45 70 56
f 45 68 67
f 45 67 66
f 45 66 71
f 45 71 69
f 48 61 72
f 50 73 74
f 50 74 51
f 51 75 52
f 51 74 75
f 52 76 77
f 52 77 53
f 52 75 78
f 52 78 79
f 52 79 76
f 54 77 76
f 54 76 80
f 56 70 57
f 57 70 59
f 59 70 69
f 59 69 81
f 59 81 60
f 60 81 71
f 60 71 82
f 60 82 83
f 60 83 61
f 61 83 84
f 61 84 85
f 61 85 74
f 61 74 86
f 61 86 73
f 61 73 72
f 65 88 66
f 65 87 95
f 65 95 88
f 66 88 89
f 66 89 90
f 66 90 91
f 66 91 71
f 69 71 81
f 71 91 78
f 71 78 92
f 71 92 82
f 73 86 74
f 74 85 84
f 74 84 92
f 74 92 78
f 74 78 75
f 76 93 94
f 76 94 80
f 76 79 93
f 78 91 90
f 78 90 79
f 79 90 93
f 82 92 83
f 83 92 84
f 88 95 96
f 88 96 89
f 89 97 98
f 89 98 99
f 89 99 90
f 89 96 97
f 90 99 100
f 90 100 101
f 90 101 93
f 93 102 94
f 93 101 103
f 93 103 102
f 98 104 99
f 99 104 105
f 99 105 100
f 100 105 101
f 101 105 106
f 101 106 103
