v -0.153999 -0.808647 0.249
v 0.149958 -0.808647 0.249
v -0.153999 -0.808647 0.3579
v -0.153999 0.206913 0.249
v 0.149958 -0.808647 0.359931
v 0.149958 0.201224 0.249
v -0.151946 -0.808647 0.359931
v -0.153999 -0.808547 0.359931
v -0.153999 0.207213 0.249604
v 0.149958 -0.808347 0.361172
v 0.135974 -0.808547 0.361172
v 0.119967 -0.808647 0.361172
v -0.153999 0.209408 0.257861
v -0.153999 0.210506 0.263955
v 0.149958 0.205117 0.361172
v -0.118712 -0.808647 0.361172
v -0.150726 -0.808547 0.361172
v -0.153999 -0.808247 0.361172
v -0.153999 0.211005 0.361172
f 1 2 5
f 1 5 12
f 1 12 16
f 1 16 7
f 1 7 3
f 1 3 8
f 1 8 18
f 1 18 19
f 1 19 14
f 1 14 13
f 1 13 9
f 1 9 4
f 1 4 6
f 1 6 2
f 2 6 15
f 2 15 10
f 2 10 5
f 3 7 8
f 4 9 6
f 5 10 11
f 5 11 12
f 6 9 13
f 6 13 14
f 6 14 15
f 7 16 17
f 7 17 8
f 8 17 18
f 10 15 19
f 10 19 18
f 10 18 17
f 10 17 16
f 10 16 12
f 10 12 11
f 14 19 15
