v -0.153999 -0.808306 0.361172
v -0.150726 -0.808533 0.361172
v -0.135969 -0.807737 0.375929
v -0.153999 -0.80444 0.377344
v -0.153999 0.210902 0.361172
v -0.119962 -0.808533 0.375929
v -0.118712 -0.808647 0.361172
v -0.103955 -0.808647 0.375929
v -0.0719701 -0.808192 0.391932
v -0.0879772 -0.806827 0.391932
v -0.135969 -0.803416 0.387266
v -0.153999 -0.803871 0.378019
v -0.14912 -0.801711 0.385394
v -0.153999 0.327899 0.366577
v 0.149958 0.205103 0.361172
v -0.0559629 -0.808647 0.391932
v 0.119967 -0.808647 0.361172
v -0.0559629 -0.804212 0.405345
v -0.0719701 -0.803871 0.404177
v -0.0879772 -0.802393 0.40208
v -0.153999 -0.792956 0.385732
v -0.098361 -0.800801 0.400602
v -0.112345 -0.767942 0.416013
v -0.153999 -0.76942 0.401643
v -0.153999 0.336313 0.367428
v 0.149958 0.327899 0.368456
v 0.149958 -0.808306 0.361172
v 0.055968 -0.808647 0.391932
v 0.0399906 -0.804212 0.406203
v 0.0239835 -0.804212 0.406084
v -0.0399855 -0.804212 0.405605
v 0.135974 -0.808533 0.361172
v 0.119967 -0.808647 0.375929
v 0.0399906 -0.766578 0.431749
v -0.0559629 -0.759756 0.430398
v -0.0719701 -0.759756 0.427393
v -0.0719701 -0.743838 0.429053
v -0.113803 -0.759756 0.416436
v -0.153999 -0.759756 0.404521
v -0.153999 -0.761461 0.404233
v -0.153999 0.342339 0.370018
v 0.149958 0.345068 0.372889
v 0.149958 -0.805349 0.377118
v 0.135974 -0.808078 0.375929
v 0.0719751 -0.808078 0.391932
v 0.055968 -0.804212 0.405457
v 0.11241 -0.767942 0.41602
v 0.0555812 -0.76112 0.430376
v 0.0500174 -0.756686 0.43234
v 0.0399906 -0.758505 0.432488
v 0.0239835 -0.757254 0.432368
v 0.00797635 -0.75589 0.432248
v -0.0239784 -0.752934 0.432002
v -0.0331721 -0.752024 0.431932
v 0.00797635 -0.763849 0.431411
v 0.0719751 -0.803644 0.403719
v 0.0879823 -0.802166 0.40177
v -0.00797127 -0.762484 0.431235
v -0.039093 -0.758391 0.431045
v -0.0559629 -0.743838 0.431523
v -0.0879772 -0.743838 0.424528
v -0.0719701 0.327899 0.429053
v -0.135969 -0.743838 0.410883
v -0.151946 -0.743838 0.406337
v -0.153999 -0.746339 0.405584
v -0.153999 0.34575 0.372333
v 0.149958 0.346091 0.373508
v 0.149958 -0.80262 0.383938
v 0.135974 -0.803644 0.387681
v 0.149958 -0.769989 0.402474
v 0.149958 -0.759756 0.406534
v 0.114076 -0.759756 0.416443
v 0.0981876 -0.800688 0.400482
v 0.148976 -0.802052 0.385795
v 0.0719751 -0.743838 0.427773
v 0.0590326 -0.743838 0.430855
v 0.051029 -0.743838 0.432551
v 0.0399906 -0.743838 0.433065
v 0.00797635 -0.743838 0.432579
v -0.0239784 -0.743838 0.432094
v -0.0417707 -0.743838 0.431819
v -0.0559629 0.327899 0.431523
v -0.0879772 0.327899 0.424528
v -0.0719701 0.343931 0.423874
v -0.0879772 0.343931 0.420897
v -0.103121 0.343817 0.417688
v -0.114071 0.338474 0.416513
v -0.135969 0.327899 0.410883
v -0.153999 -0.743838 0.405718
v -0.151946 0.327899 0.406337
v -0.153999 0.352345 0.380736
v 0.149958 0.352345 0.380785
v 0.149958 -0.801483 0.385612
v 0.149958 -0.743838 0.408047
v 0.135974 -0.743838 0.411664
v 0.0879823 -0.743838 0.423747
v 0.0719751 0.327899 0.427773
v 0.0590326 0.327899 0.430855
v 0.051029 0.327899 0.432551
v 0.0399906 0.327899 0.433065
v 0.00797635 0.327899 0.432579
v -0.0239784 0.327899 0.432094
v -0.0417707 0.327899 0.431819
v -0.0331721 0.335972 0.431932
v -0.0559629 0.343931 0.425577
v -0.0972006 0.352004 0.416161
v -0.153999 0.344727 0.402628
v -0.153999 0.327899 0.405718
v -0.153999 0.352459 0.392199
v -0.135969 0.3528 0.391932
v 0.149958 0.352459 0.381911
v 0.149958 0.327899 0.408047
v 0.135974 0.327899 0.411664
v 0.0879823 0.327899 0.423747
v 0.114343 0.338587 0.416513
v 0.0500174 0.337905 0.43234
v 0.0399906 0.338701 0.432488
v 0.00797635 0.337564 0.432248
v -0.00797127 0.336995 0.432122
v 0.0399906 0.34666 0.426436
v -0.0719701 0.352345 0.417308
v -0.0879772 0.352231 0.416597
v -0.147781 0.352231 0.400447
v -0.153999 0.351776 0.399272
v -0.153999 0.34666 0.401798
v -0.0879772 0.3528 0.40792
v 0.135974 0.3528 0.391932
v 0.149958 0.352686 0.391932
v 0.149958 0.341885 0.405162
v 0.149958 0.343931 0.404564
v 0.0969082 0.352004 0.416084
v 0.102918 0.343931 0.41754
v 0.0879823 0.352231 0.416485
v 0.055968 0.352345 0.41792
v 0.0399906 0.352345 0.418441
v -0.0399855 0.352345 0.417885
v -0.0559629 0.352345 0.417773
v 0.0719751 0.3528 0.40792
v 0.0879823 0.352686 0.40792
v 0.149958 0.352231 0.400503
v 0.149958 0.351094 0.401242
v 0.0719751 0.352345 0.417069
f 1 2 3
f 1 3 4
f 1 4 12
f 1 12 21
f 1 21 24
f 1 24 40
f 1 40 39
f 1 39 65
f 1 65 89
f 1 89 108
f 1 108 107
f 1 107 125
f 1 125 124
f 1 124 109
f 1 109 91
f 1 91 66
f 1 66 41
f 1 41 25
f 1 25 14
f 1 14 5
f 1 5 15
f 1 15 27
f 1 27 32
f 1 32 17
f 1 17 7
f 1 7 2
f 2 6 3
f 2 7 8
f 2 8 6
f 3 6 9
f 3 9 10
f 3 10 11
f 3 11 4
f 4 11 13
f 4 13 12
f 5 14 15
f 6 8 16
f 6 16 9
f 7 17 33
f 7 33 28
f 7 28 16
f 7 16 8
f 9 18 19
f 9 19 10
f 9 16 18
f 10 19 11
f 11 19 20
f 11 20 13
f 12 13 21
f 13 20 22
f 13 22 23
f 13 23 24
f 13 24 21
f 14 25 26
f 14 26 15
f 15 26 42
f 15 42 67
f 15 67 92
f 15 92 111
f 15 111 128
f 15 128 140
f 15 140 141
f 15 141 130
f 15 130 129
f 15 129 112
f 15 112 94
f 15 94 71
f 15 71 70
f 15 70 93
f 15 93 68
f 15 68 43
f 15 43 27
f 16 28 29
f 16 29 30
f 16 30 31
f 16 31 18
f 17 32 33
f 18 31 34
f 18 34 35
f 18 35 19
f 19 35 23
f 19 23 20
f 20 23 22
f 23 35 36
f 23 36 37
f 23 37 38
f 23 38 39
f 23 39 40
f 23 40 24
f 25 41 42
f 25 42 26
f 27 43 44
f 27 44 33
f 27 33 32
f 28 33 44
f 28 44 45
f 28 45 46
f 28 46 29
f 29 46 34
f 29 34 30
f 30 34 31
f 34 47 48
f 34 48 49
f 34 49 50
f 34 50 51
f 34 51 52
f 34 52 53
f 34 53 54
f 34 54 55
f 34 55 35
f 34 46 56
f 34 56 57
f 34 57 47
f 35 55 58
f 35 58 59
f 35 59 54
f 35 54 60
f 35 60 37
f 35 37 36
f 37 61 38
f 37 60 82
f 37 82 62
f 37 62 83
f 37 83 61
f 38 63 64
f 38 64 65
f 38 65 39
f 38 61 63
f 41 66 67
f 41 67 42
f 43 68 69
f 43 69 44
f 44 69 56
f 44 56 45
f 45 56 46
f 47 70 71
f 47 71 72
f 47 72 49
f 47 49 48
f 47 57 73
f 47 73 74
f 47 74 70
f 49 72 75
f 49 75 76
f 49 76 77
f 49 77 78
f 49 78 50
f 50 78 51
f 51 78 52
f 52 78 53
f 53 78 54
f 54 59 58
f 54 58 55
f 54 78 79
f 54 79 80
f 54 80 81
f 54 81 60
f 56 69 57
f 57 69 74
f 57 74 73
f 60 81 103
f 60 103 82
f 61 83 88
f 61 88 63
f 62 82 84
f 62 84 85
f 62 85 86
f 62 86 87
f 62 87 83
f 63 88 90
f 63 90 64
f 64 89 65
f 64 90 108
f 64 108 89
f 66 91 92
f 66 92 67
f 68 93 74
f 68 74 69
f 70 74 93
f 71 94 72
f 72 94 95
f 72 95 96
f 72 96 75
f 75 96 114
f 75 114 97
f 75 97 98
f 75 98 76
f 76 98 99
f 76 99 77
f 77 99 100
f 77 100 78
f 78 100 101
f 78 101 79
f 79 101 102
f 79 102 80
f 80 102 103
f 80 103 81
f 82 103 104
f 82 104 84
f 83 87 88
f 84 105 106
f 84 106 85
f 84 104 105
f 85 106 86
f 86 106 107
f 86 107 87
f 87 108 90
f 87 90 88
f 87 107 108
f 91 109 110
f 91 110 111
f 91 111 92
f 94 112 113
f 94 113 95
f 95 113 114
f 95 114 96
f 97 114 115
f 97 115 116
f 97 116 98
f 98 116 99
f 99 116 100
f 100 116 117
f 100 117 118
f 100 118 104
f 100 104 101
f 101 104 102
f 102 104 103
f 104 118 119
f 104 119 105
f 105 119 118
f 105 118 117
f 105 117 120
f 105 120 121
f 105 121 122
f 105 122 106
f 106 122 123
f 106 123 124
f 106 124 125
f 106 125 107
f 109 124 123
f 109 123 110
f 110 126 138
f 110 138 127
f 110 127 111
f 110 123 126
f 111 127 128
f 112 129 115
f 112 115 113
f 113 115 114
f 115 129 130
f 115 130 131
f 115 131 132
f 115 132 116
f 116 132 131
f 116 131 120
f 116 120 117
f 120 131 133
f 120 133 134
f 120 134 135
f 120 135 136
f 120 136 137
f 120 137 121
f 121 137 126
f 121 126 122
f 122 126 123
f 126 137 136
f 126 136 135
f 126 135 138
f 127 138 139
f 127 139 128
f 128 139 140
f 130 141 131
f 131 141 140
f 131 140 133
f 133 140 139
f 133 139 142
f 133 142 134
f 134 142 138
f 134 138 135
f 138 142 139
