v 0.408588 0.327929 -0.147823
v 0.408588 0.202099 -0.147823
v 0.407516 0.327929 -0.151978
v 0.406167 0.339765 -0.147823
v 0.347227 0.202099 -0.147823
v 0.407516 0.202099 -0.151978
v 0.406869 0.202099 -0.153759
v 0.402655 0.327929 -0.165322
v 0.401343 0.343927 -0.162794
v 0.404226 0.343927 -0.151978
v 0.404928 0.343927 -0.147823
v 0.369517 0.327929 -0.147823
v 0.332978 0.202099 -0.157012
v 0.402655 0.202099 -0.165322
v 0.398423 0.327929 -0.173324
v 0.385282 0.340503 -0.194429
v 0.399994 0.352 -0.160178
v 0.402119 0.350066 -0.147823
v 0.37362 0.344916 -0.147823
v 0.219793 0.343956 -0.332838
v 0.219793 0.327929 -0.329145
v 0.220847 0.202099 -0.300852
v 0.398423 0.202099 -0.173324
v 0.397646 0.202099 -0.174731
v 0.39249 0.327929 -0.183987
v 0.35207 0.336607 -0.256181
v 0.368685 0.338909 -0.225338
v 0.390845 0.352354 -0.166487
v 0.400419 0.352221 -0.151978
v 0.354232 0.342731 -0.247212
v 0.352513 0.35225 -0.241364
v 0.400585 0.352265 -0.147823
v 0.37495 0.34707 -0.147823
v 0.219793 0.350125 -0.33629
v 0.219793 0.345403 -0.333564
v 0.219793 0.202099 -0.312152
v 0.391621 0.202099 -0.185547
v 0.356838 0.327929 -0.247959
v 0.348022 0.347277 -0.252026
v 0.352143 0.327929 -0.256269
v 0.345268 0.327929 -0.264249
v 0.337265 0.327929 -0.273328
v 0.336822 0.338835 -0.272867
v 0.391917 0.352708 -0.151978
v 0.391917 0.352767 -0.147823
v 0.332626 0.349505 -0.268624
v 0.337358 0.35225 -0.257984
v 0.34318 0.352516 -0.247212
v 0.381105 0.352413 -0.147823
v 0.22275 0.352236 -0.335345
v 0.219793 0.352368 -0.340027
v 0.219793 0.202099 -0.372387
v 0.356838 0.202099 -0.247959
v 0.35621 0.202099 -0.24908
v 0.352143 0.202099 -0.256269
v 0.351238 0.202099 -0.257346
v 0.345268 0.202099 -0.264249
v 0.337265 0.202099 -0.273328
v 0.329521 0.327929 -0.281331
v 0.313775 0.327929 -0.297576
v 0.282263 0.327929 -0.330046
v 0.305162 0.339617 -0.305183
v 0.320983 0.339248 -0.289025
v 0.269639 0.350937 -0.333608
v 0.343919 0.352855 -0.231977
v 0.231973 0.352855 -0.343918
v 0.219793 0.352575 -0.3446
v 0.321962 0.35225 -0.274164
v 0.327544 0.352516 -0.263546
v 0.219793 0.327929 -0.372387
v 0.225615 0.202099 -0.368914
v 0.329521 0.202099 -0.281331
v 0.313775 0.202099 -0.297576
v 0.282263 0.202099 -0.330046
v 0.281191 0.202099 -0.331124
v 0.27426 0.327929 -0.338049
v 0.273484 0.340267 -0.337323
v 0.289323 0.339957 -0.321341
v 0.240937 0.352206 -0.352404
v 0.258975 0.35225 -0.337037
v 0.274667 0.35225 -0.322946
v 0.264169 0.352516 -0.328134
v 0.246943 0.352487 -0.342995
v 0.231973 0.352383 -0.353701
v 0.219793 0.352487 -0.357966
v 0.219793 0.341492 -0.369947
v 0.225061 0.33854 -0.368584
v 0.225615 0.327929 -0.368914
v 0.25393 0.202099 -0.351986
v 0.27426 0.202099 -0.338049
v 0.272892 0.202099 -0.339038
v 0.263965 0.327929 -0.345457
v 0.254983 0.327929 -0.351349
v 0.244208 0.343927 -0.354382
v 0.219793 0.348413 -0.365462
v 0.219793 0.349417 -0.364781
v 0.254983 0.202099 -0.351349
v 0.263965 0.202099 -0.345457
v 0.262764 0.202099 -0.346248
f 1 2 6
f 1 6 3
f 1 3 4
f 1 4 11
f 1 11 18
f 1 18 32
f 1 32 45
f 1 45 49
f 1 49 33
f 1 33 19
f 1 19 12
f 1 12 5
f 1 5 2
f 2 5 13
f 2 13 22
f 2 22 36
f 2 36 52
f 2 52 71
f 2 71 89
f 2 89 97
f 2 97 99
f 2 99 98
f 2 98 91
f 2 91 90
f 2 90 75
f 2 75 74
f 2 74 73
f 2 73 72
f 2 72 58
f 2 58 57
f 2 57 56
f 2 56 55
f 2 55 54
f 2 54 53
f 2 53 37
f 2 37 24
f 2 24 23
f 2 23 14
f 2 14 7
f 2 7 6
f 3 6 7
f 3 7 8
f 3 8 9
f 3 9 10
f 3 10 4
f 4 10 11
f 5 12 13
f 7 14 8
f 8 14 23
f 8 23 15
f 8 15 16
f 8 16 9
f 9 17 10
f 9 16 17
f 10 17 11
f 11 17 18
f 12 19 20
f 12 20 13
f 13 20 21
f 13 21 22
f 15 23 24
f 15 24 25
f 15 25 26
f 15 26 27
f 15 27 16
f 16 27 17
f 17 28 29
f 17 29 18
f 17 27 26
f 17 26 30
f 17 30 31
f 17 31 28
f 18 29 32
f 19 33 34
f 19 34 35
f 19 35 20
f 20 35 34
f 20 34 51
f 20 51 67
f 20 67 85
f 20 85 96
f 20 96 95
f 20 95 86
f 20 86 70
f 20 70 52
f 20 52 36
f 20 36 21
f 21 36 22
f 24 37 25
f 25 37 38
f 25 38 26
f 26 39 31
f 26 31 30
f 26 38 40
f 26 40 41
f 26 41 42
f 26 42 43
f 26 43 39
f 28 44 29
f 28 31 44
f 29 44 45
f 29 45 32
f 31 39 46
f 31 46 47
f 31 47 48
f 31 48 44
f 33 49 50
f 33 50 34
f 34 50 51
f 37 53 38
f 38 53 54
f 38 54 40
f 39 43 46
f 40 54 55
f 40 55 56
f 40 56 41
f 41 57 58
f 41 58 42
f 41 56 57
f 42 58 72
f 42 72 59
f 42 59 43
f 43 59 60
f 43 60 61
f 43 61 62
f 43 62 63
f 43 63 64
f 43 64 46
f 44 48 65
f 44 65 45
f 45 65 66
f 45 66 67
f 45 67 49
f 46 64 47
f 47 64 68
f 47 68 48
f 48 68 69
f 48 69 65
f 49 67 51
f 49 51 50
f 52 70 88
f 52 88 71
f 59 72 73
f 59 73 60
f 60 73 74
f 60 74 61
f 61 74 75
f 61 75 76
f 61 76 77
f 61 77 78
f 61 78 62
f 62 78 64
f 62 64 63
f 64 78 77
f 64 77 79
f 64 79 80
f 64 80 81
f 64 81 68
f 65 69 82
f 65 82 66
f 66 82 83
f 66 83 79
f 66 79 84
f 66 84 85
f 66 85 67
f 68 81 69
f 69 81 82
f 70 86 87
f 70 87 88
f 71 88 89
f 75 90 76
f 76 90 91
f 76 91 92
f 76 92 77
f 77 92 93
f 77 93 87
f 77 87 94
f 77 94 79
f 79 94 87
f 79 87 86
f 79 86 95
f 79 95 96
f 79 96 85
f 79 85 84
f 79 83 80
f 80 82 81
f 80 83 82
f 87 93 88
f 88 93 89
f 89 93 97
f 91 98 92
f 92 98 99
f 92 99 93
f 93 99 97
