v -0.135958 0.352912 -0.391923
v -0.151971 0.35272 -0.391923
v -0.222558 0.352661 -0.352922
v -0.199946 0.35275 -0.359936
v -0.0719913 0.352897 -0.407922
v -0.0880037 0.352764 -0.407922
v -0.151971 0.352218 -0.400425
v -0.166473 0.352366 -0.390847
v -0.222558 0.352469 -0.357167
v -0.0880037 0.352262 -0.416484
v -0.222558 0.352632 -0.344493
v -0.0112101 0.35241 -0.409023
v -0.0112101 0.35241 -0.418214
v -0.0400077 0.35241 -0.418432
v -0.0559995 0.35241 -0.417912
v -0.0719913 0.35241 -0.417065
v -0.160163 0.351997 -0.400001
v -0.0969202 0.352056 -0.416085
v -0.210001 0.352248 -0.368655
v -0.222558 0.350048 -0.362875
v -0.0400077 0.346712 -0.426437
v -0.222558 0.352218 -0.336064
v -0.0112101 0.351642 -0.401029
v -0.0112101 0.345723 -0.426208
v -0.16277 0.343922 -0.401356
v -0.194423 0.340512 -0.385296
v -0.222558 0.340393 -0.369369
v -0.222558 0.348601 -0.364144
v -0.220676 0.349576 -0.364664
v -0.102961 0.343922 -0.417537
v -0.11436 0.338592 -0.416509
v -0.0500414 0.337958 -0.432339
v -0.0240159 0.338179 -0.432363
v -0.0400077 0.338711 -0.432484
v -0.222558 0.351288 -0.335265
v -0.0112101 0.350033 -0.400267
v -0.0112101 0.337721 -0.432266
v -0.151971 0.327934 -0.407523
v -0.165294 0.327934 -0.40265
v -0.222558 0.335669 -0.370457
v -0.1733 0.327934 -0.398429
v -0.0719913 0.327934 -0.427768
v -0.0880037 0.327934 -0.423741
v -0.115539 0.327934 -0.416811
v -0.135958 0.327934 -0.411659
v -0.0400077 0.327934 -0.433064
v -0.0510551 0.327934 -0.432544
v -0.0590406 0.327934 -0.430851
v -0.222558 0.343922 -0.33194
v -0.0112101 0.343641 -0.397716
v -0.0112101 0.327934 -0.432617
v -0.151971 0.202099 -0.407523
v -0.165294 0.202099 -0.40265
v -0.16637 0.202099 -0.402093
v -0.222558 0.327934 -0.371001
v -0.1733 0.202099 -0.398429
v -0.0607784 0.202099 -0.43044
v -0.0719913 0.202099 -0.427768
v -0.0741428 0.202099 -0.427236
v -0.116615 0.202099 -0.416545
v -0.135958 0.202099 -0.411659
v -0.0400077 0.202099 -0.433064
v -0.0510551 0.202099 -0.432544
v -0.0590406 0.202099 -0.430851
v -0.222558 0.339331 -0.330743
v -0.0112101 0.327934 -0.395503
v -0.222558 0.327934 -0.3283
v -0.222558 0.202099 -0.309519
v -0.200174 0.202099 -0.316666
v -0.0112101 0.202099 -0.432617
v -0.222558 0.202099 -0.371001
v -0.0112101 0.202099 -0.378197
f 1 2 3
f 1 3 4
f 1 4 5
f 1 5 6
f 1 6 2
f 2 7 8
f 2 8 9
f 2 9 3
f 2 6 10
f 2 10 7
f 3 9 20
f 3 20 28
f 3 28 27
f 3 27 40
f 3 40 55
f 3 55 71
f 3 71 68
f 3 68 67
f 3 67 65
f 3 65 49
f 3 49 35
f 3 35 22
f 3 22 11
f 3 11 4
f 4 11 5
f 5 12 13
f 5 13 14
f 5 14 15
f 5 15 16
f 5 16 6
f 5 11 12
f 6 16 10
f 7 17 8
f 7 10 18
f 7 18 17
f 8 17 19
f 8 19 9
f 9 19 20
f 10 16 15
f 10 15 21
f 10 21 18
f 11 22 12
f 12 23 36
f 12 36 50
f 12 50 66
f 12 66 72
f 12 72 70
f 12 70 51
f 12 51 37
f 12 37 24
f 12 24 13
f 12 22 23
f 13 24 21
f 13 21 14
f 14 21 15
f 17 25 26
f 17 26 27
f 17 27 28
f 17 28 29
f 17 29 19
f 17 18 30
f 17 30 31
f 17 31 25
f 18 21 32
f 18 32 30
f 19 29 20
f 20 29 28
f 21 24 33
f 21 33 34
f 21 34 32
f 22 35 23
f 23 35 36
f 24 37 33
f 25 38 39
f 25 39 26
f 25 31 38
f 26 40 27
f 26 39 41
f 26 41 40
f 30 32 31
f 31 32 42
f 31 42 43
f 31 43 44
f 31 44 45
f 31 45 38
f 32 34 46
f 32 46 47
f 32 47 48
f 32 48 42
f 33 37 46
f 33 46 34
f 35 49 36
f 36 49 50
f 37 51 46
f 38 45 61
f 38 61 52
f 38 52 53
f 38 53 39
f 39 53 54
f 39 54 41
f 40 41 55
f 41 54 56
f 41 56 71
f 41 71 55
f 42 48 57
f 42 57 58
f 42 58 59
f 42 59 43
f 43 59 44
f 44 59 60
f 44 60 45
f 45 60 61
f 46 62 63
f 46 63 47
f 46 51 70
f 46 70 62
f 47 63 64
f 47 64 48
f 48 64 57
f 49 65 50
f 50 65 67
f 50 67 68
f 50 68 69
f 50 69 66
f 52 61 60
f 52 60 59
f 52 59 58
f 52 58 57
f 52 57 64
f 52 64 63
f 52 63 62
f 52 62 70
f 52 70 72
f 52 72 69
f 52 69 68
f 52 68 71
f 52 71 56
f 52 56 54
f 52 54 53
f 66 69 72
