v -0.416743 -0.731678 -0.117429
v -0.41609 -0.731678 -0.129246
v -0.415927 -0.745088 -0.128307
v -0.41609 -0.747413 -0.117429
v -0.416743 -0.731678 0.117429
v -0.416743 0.749737 -0.117429
v -0.408752 -0.731678 -0.138273
v -0.41609 0.749737 -0.129246
v -0.415357 -0.756353 -0.117429
v -0.397908 -0.796942 -0.144794
v -0.404268 -0.785856 -0.135511
v -0.40011 -0.803379 -0.135881
v -0.409323 -0.785856 -0.117429
v -0.413563 -0.767797 -0.117429
v -0.41609 -0.747413 0.117429
v -0.415927 -0.745088 0.128307
v -0.41609 -0.731678 0.129246
v -0.416743 0.749737 0.117429
v -0.416661 0.767797 -0.0451608
v -0.416579 0.767797 -0.0993481
v -0.416498 0.767797 -0.117429
v -0.416009 0.767797 -0.128819
v -0.399784 -0.731678 -0.144993
v -0.399458 -0.749737 -0.144993
v -0.398887 -0.767797 -0.144993
v -0.398316 -0.785856 -0.144964
v -0.408752 0.749737 -0.138273
v -0.415357 -0.756353 0.117429
v -0.388451 -0.785856 -0.14542
v -0.381439 -0.821975 -0.144993
v -0.380053 -0.832346 -0.144822
v -0.398398 -0.815002 -0.130101
v -0.403453 -0.803916 -0.117429
v -0.409323 -0.785856 0.117429
v -0.413563 -0.767797 0.117429
v -0.408752 -0.731678 0.138273
v -0.40011 -0.803379 0.135881
v -0.404268 -0.785856 0.135511
v -0.397908 -0.796942 0.144794
v -0.41609 0.749737 0.129246
v -0.416009 0.767797 0.128819
v -0.416498 0.767797 0.117429
v -0.416579 0.767797 0.0993481
v -0.416661 0.767797 0.0451608
v -0.41609 0.781386 -0.00902646
v -0.41609 0.781207 -0.0451608
v -0.416009 0.78085 -0.0993481
v -0.415927 0.780671 -0.117429
v -0.415764 0.779241 -0.127766
v -0.408671 0.767797 -0.137846
v -0.388451 -0.767797 -0.145449
v -0.399784 0.749737 -0.144993
v -0.398724 0.803916 -0.144993
v -0.399294 0.785856 -0.144993
v -0.399702 0.767797 -0.144993
v -0.37035 -0.821975 -0.145449
v -0.36929 -0.838962 -0.145078
v -0.362605 -0.851479 -0.144822
v -0.357631 -0.863459 -0.14263
v -0.362686 -0.868644 -0.130585
v -0.379482 -0.849154 -0.126741
v -0.382173 -0.838962 -0.133859
v -0.398805 -0.815896 -0.117429
v -0.394402 -0.825015 -0.117429
v -0.403453 -0.803916 0.117429
v -0.398398 -0.815002 0.130101
v -0.398316 -0.785856 0.144964
v -0.398887 -0.767797 0.144993
v -0.399458 -0.749737 0.144993
v -0.399784 -0.731678 0.144993
v -0.408752 0.749737 0.138273
v -0.380053 -0.832346 0.144822
v -0.381439 -0.821975 0.144993
v -0.388451 -0.785856 0.14542
v -0.408671 0.767797 0.137846
v -0.415764 0.779241 0.127766
v -0.415927 0.780492 0.117429
v -0.416009 0.78085 0.0812951
v -0.41609 0.781207 0.0270794
v -0.41609 0.781386 0.00902646
v -0.414949 0.790327 -0.0270794
v -0.414949 0.790148 -0.0632137
v -0.414949 0.789969 -0.0812951
v -0.414949 0.789611 -0.117429
v -0.398071 0.817148 -0.144822
v -0.412095 0.803916 -0.117429
v -0.401414 0.822691 -0.13702
v -0.388451 0.803916 -0.145449
v -0.334231 -0.858094 -0.145449
v -0.351924 -0.857737 -0.145078
v -0.345564 -0.86918 -0.144822
v -0.327138 -0.886346 -0.144822
v -0.308059 -0.903869 -0.144822
v -0.339204 -0.88116 -0.141832
v -0.351108 -0.874902 -0.136194
v -0.344504 -0.886167 -0.129787
v -0.354125 -0.878478 -0.117429
v -0.363338 -0.869538 -0.117429
v -0.385434 -0.840035 -0.117429
v -0.372388 -0.858273 -0.117429
v -0.379482 -0.849333 -0.117429
v -0.398805 -0.815896 0.117429
v -0.394402 -0.825015 0.117429
v -0.379482 -0.849154 0.126741
v -0.382173 -0.838962 0.133859
v -0.388451 -0.767797 0.145449
v -0.399784 0.749737 0.144993
v -0.399702 0.767797 0.144993
v -0.399294 0.785856 0.144993
v -0.398724 0.803916 0.144993
v -0.362686 -0.868644 0.130585
v -0.357631 -0.863459 0.14263
v -0.362605 -0.851479 0.144822
v -0.36929 -0.838962 0.145078
v -0.37035 -0.821975 0.145449
v -0.398071 0.817148 0.144822
v -0.412095 0.803916 0.117429
v -0.414949 0.789611 0.117429
v -0.401414 0.822691 0.13702
v -0.414949 0.789969 0.0812951
v -0.414949 0.790327 0.00902646
v -0.395544 0.829128 -0.144053
v -0.380134 0.850406 -0.144822
v -0.383069 0.840035 -0.144993
v -0.389103 0.822691 -0.145078
v -0.406306 0.821975 -0.117429
v -0.399294 0.834492 -0.132008
v -0.37035 0.840035 -0.145449
v -0.316131 -0.876154 -0.145449
v -0.333579 -0.875617 -0.145078
v -0.314908 -0.893141 -0.145078
v -0.298112 -0.904048 -0.144964
v -0.298112 -0.908876 -0.135511
v -0.311809 -0.906015 -0.135511
v -0.298112 -0.894213 -0.14542
v -0.334231 -0.894929 -0.117429
v -0.345075 -0.886704 -0.117429
v -0.324039 -0.902439 -0.117429
v -0.354125 -0.878478 0.117429
v -0.363338 -0.869538 0.117429
v -0.385434 -0.840035 0.117429
v -0.372388 -0.858273 0.117429
v -0.379482 -0.849333 0.117429
v -0.388451 0.803916 0.145449
v -0.344504 -0.886167 0.129787
v -0.351108 -0.874902 0.136194
v -0.339204 -0.88116 0.141832
v -0.308059 -0.903869 0.144822
v -0.327138 -0.886346 0.144822
v -0.345564 -0.86918 0.144822
v -0.351924 -0.857737 0.145078
v -0.334231 -0.858094 0.145449
v -0.389103 0.822691 0.145078
v -0.383069 0.840035 0.144993
v -0.380134 0.850406 0.144822
v -0.395544 0.829128 0.144053
v -0.406306 0.821975 0.117429
v -0.399294 0.834492 0.132008
v -0.382662 0.8572 -0.13403
v -0.374671 0.862386 -0.13907
v -0.362605 0.868286 -0.144822
v -0.369372 0.8572 -0.145078
v -0.400191 0.836101 -0.117429
v -0.395218 0.84522 -0.117429
v -0.379563 0.867392 -0.127025
v -0.334231 0.876154 -0.145449
v -0.280011 -0.894213 -0.145449
v -0.280011 -0.904048 -0.144993
v -0.280011 -0.909054 -0.135511
v -0.298112 -0.912988 -0.117429
v -0.315071 -0.907982 -0.117429
v -0.334231 -0.894929 0.117429
v -0.345075 -0.886704 0.117429
v -0.324039 -0.902439 0.117429
v -0.37035 0.840035 0.145449
v -0.311809 -0.906015 0.135511
v -0.298112 -0.908876 0.135511
v -0.298112 -0.904048 0.144964
v -0.298112 -0.894213 0.14542
v -0.314908 -0.893141 0.145078
v -0.333579 -0.875617 0.145078
v -0.316131 -0.876154 0.145449
v -0.369372 0.8572 0.145078
v -0.362605 0.868286 0.144822
v -0.374671 0.862386 0.13907
v -0.382662 0.8572 0.13403
v -0.400191 0.836101 0.117429
v -0.395218 0.84522 0.117429
v -0.379563 0.867392 0.127025
v -0.369372 0.871505 -0.13403
v -0.357549 0.881518 -0.135511
v -0.344423 0.885988 -0.144822
v -0.35119 0.875081 -0.145078
v -0.386412 0.858094 -0.117429
v -0.379645 0.867392 -0.117429
v -0.37035 0.876333 -0.117429
v -0.361055 0.885094 -0.117429
v -0.348499 0.889028 -0.135511
v -0.334231 0.888313 -0.144993
v -0.298112 0.894213 -0.14542
v -0.280011 0.894213 -0.145449
v 0.28004 -0.894213 -0.145449
v 0.28004 -0.904048 -0.144993
v 0.28004 -0.909054 -0.135511
v -0.280011 -0.913167 -0.117429
v -0.298112 -0.912988 0.117429
v -0.315071 -0.907982 0.117429
v -0.334231 0.876154 0.145449
v -0.280011 -0.909054 0.135511
v -0.280011 -0.904048 0.144993
v -0.280011 -0.894213 0.145449
v -0.35119 0.875081 0.145078
v -0.344423 0.885988 0.144822
v -0.357549 0.881518 0.135511
v -0.369372 0.871505 0.13403
v -0.386412 0.858094 0.117429
v -0.348499 0.889028 0.135511
v -0.361055 0.885094 0.117429
v -0.37035 0.876333 0.117429
v -0.379645 0.867392 0.117429
v -0.328198 0.904942 -0.131667
v -0.322572 0.90065 -0.143712
v -0.310505 0.903869 -0.144822
v -0.352087 0.891531 -0.117429
v -0.316375 0.894571 -0.145078
v -0.298112 0.904048 -0.144993
v 0.28004 0.894213 -0.145449
v 0.298059 -0.894213 -0.14542
v 0.33426 -0.876154 -0.145449
v 0.298059 -0.904048 -0.144964
v 0.298059 -0.908876 -0.135511
v 0.28004 -0.913167 -0.117429
v -0.280011 -0.913167 0.117429
v -0.280011 0.894213 0.145449
v -0.298112 0.894213 0.14542
v -0.334231 0.888313 0.144993
v 0.28004 -0.909054 0.135511
v 0.28004 -0.904048 0.144993
v 0.28004 -0.894213 0.145449
v -0.310505 0.903869 0.144822
v -0.322572 0.90065 0.143712
v -0.328198 0.904942 0.131667
v -0.352087 0.891531 0.117429
v -0.329665 0.905657 -0.117429
v -0.316131 0.910485 -0.117429
v -0.316375 0.906551 -0.136821
v -0.338715 0.90065 -0.117429
v -0.298112 0.908876 -0.135511
v -0.280011 0.909054 -0.135511
v 0.28004 0.904048 -0.144993
v 0.298059 0.894213 -0.14542
v 0.33426 0.876154 -0.14542
v 0.352279 0.858094 -0.145449
v 0.309392 -0.903869 -0.144822
v 0.370379 -0.840035 -0.145449
v 0.369971 -0.857737 -0.145078
v 0.351626 -0.875617 -0.145078
v 0.345104 -0.885988 -0.144822
v 0.33426 -0.887598 -0.144993
v 0.298059 -0.912988 -0.117429
v 0.31567 -0.906194 -0.136109
v 0.28004 -0.913167 0.117429
v 0.28004 0.894213 0.145449
v -0.298112 0.904048 0.144993
v -0.316375 0.894571 0.145078
v 0.298059 -0.908876 0.135511
v 0.298059 -0.904048 0.144964
v 0.298059 -0.894213 0.14542
v 0.33426 -0.876154 0.145449
v -0.298112 0.908876 0.135511
v -0.316375 0.906551 0.136821
v -0.316131 0.910485 0.117429
v -0.329665 0.905657 0.117429
v -0.338715 0.90065 0.117429
v -0.298112 0.913167 -0.117429
v 0.28004 0.909054 -0.135511
v 0.298059 0.904048 -0.144964
v 0.309229 0.903869 -0.144822
v 0.33426 0.887419 -0.144993
v 0.344288 0.885988 -0.144822
v 0.351137 0.875081 -0.145078
v 0.370379 0.840035 -0.145449
v 0.327819 -0.904405 -0.130499
v 0.321459 -0.899578 -0.142544
v 0.388398 -0.803916 -0.145449
v 0.388398 -0.821975 -0.145392
v 0.380489 -0.851479 -0.144822
v 0.363775 -0.869002 -0.144822
v 0.387256 -0.838783 -0.145021
v 0.357171 -0.88116 -0.141604
v 0.351626 -0.889028 -0.135539
v 0.37576 -0.863637 -0.142743
v 0.316159 -0.90977 -0.117429
v 0.316159 -0.909948 0.00902646
v 0.298059 -0.912988 0.117429
v 0.33426 0.876154 0.14542
v 0.298059 0.894213 0.14542
v 0.28004 0.904048 0.144993
v 0.352279 0.858094 0.145449
v -0.280011 0.909054 0.135511
v 0.31567 -0.906194 0.136109
v 0.309392 -0.903869 0.144822
v 0.351626 -0.875617 0.145078
v 0.370053 -0.857737 0.145078
v 0.370379 -0.840035 0.145449
v 0.33426 -0.887598 0.144993
v 0.345104 -0.885988 0.144822
v -0.298112 0.913167 0.117429
v 0.28004 0.913167 -0.117429
v 0.298059 0.908876 -0.135511
v 0.321296 0.899399 -0.142288
v 0.315589 0.906015 -0.135966
v 0.327329 0.904227 -0.130243
v 0.348202 0.888849 -0.135511
v 0.357252 0.88116 -0.135511
v 0.362389 0.868286 -0.144822
v 0.369156 0.857022 -0.145078
v 0.38212 0.840035 -0.144993
v 0.388398 0.803916 -0.145449
v 0.329123 -0.904942 -0.117429
v 0.362389 -0.886167 -0.12956
v 0.338173 -0.901187 -0.117429
v 0.399568 -0.767797 -0.144993
v 0.399486 -0.785856 -0.144993
v 0.398997 -0.803916 -0.144993
v 0.398345 -0.821975 -0.144936
v 0.397856 -0.831989 -0.144765
v 0.380815 -0.868644 -0.130699
v 0.329286 -0.905121 0.00902646
v 0.329286 -0.905121 0.0270794
v 0.316159 -0.90977 0.117429
v 0.344288 0.885988 0.144822
v 0.33426 0.887419 0.144993
v 0.351137 0.875081 0.145078
v 0.309229 0.903869 0.144822
v 0.298059 0.904048 0.144964
v 0.28004 0.909054 0.135511
v 0.370379 0.840035 0.145449
v 0.327819 -0.904405 0.130499
v 0.321459 -0.899578 0.142544
v 0.363775 -0.869002 0.144822
v 0.380489 -0.851657 0.144822
v 0.387256 -0.838783 0.145021
v 0.388398 -0.821975 0.145392
v 0.388398 -0.803916 0.145449
v 0.351626 -0.889028 0.135539
v 0.357171 -0.88116 0.141604
v 0.375842 -0.863637 0.1428
v 0.28004 0.913167 0.117429
v 0.298059 0.912988 -0.117429
v 0.316159 0.909591 -0.117429
v 0.328308 0.904763 -0.117429
v 0.337358 0.900293 -0.117429
v 0.351545 0.891352 -0.117429
v 0.360595 0.884558 -0.117429
v 0.369727 0.875617 -0.117429
v 0.366302 0.87222 -0.135511
v 0.375352 0.863101 -0.135511
v 0.38 0.850227 -0.144822
v 0.398019 0.815896 -0.144822
v 0.398508 0.803916 -0.144993
v 0.399079 0.785856 -0.144993
v 0.399405 0.767797 -0.144993
v 0.399568 0.749737 -0.144993
v 0.37201 -0.878478 -0.117429
v 0.362959 -0.886525 -0.117429
v 0.352279 -0.893498 -0.117429
v 0.338336 -0.901187 0.00902646
v 0.408618 -0.767797 -0.137105
v 0.409923 -0.787466 -0.134372
v 0.399894 -0.835744 -0.135511
v 0.415711 -0.782459 -0.127595
v 0.404215 -0.821975 -0.135511
v 0.39704 -0.84826 -0.117429
v 0.39011 -0.858094 -0.117429
v 0.381549 -0.869359 -0.117429
v 0.329123 -0.904942 0.117429
v 0.338336 -0.901187 0.0270794
v 0.338173 -0.901187 0.117429
v 0.362389 0.868286 0.144822
v 0.357252 0.88116 0.135511
v 0.348202 0.888849 0.135511
v 0.327248 0.904227 0.130186
v 0.369156 0.857022 0.145078
v 0.315589 0.906015 0.13591
v 0.298059 0.908876 0.135511
v 0.38212 0.840035 0.144993
v 0.388398 0.803916 0.145449
v 0.362389 -0.886167 0.12956
v 0.397856 -0.831989 0.144765
v 0.398345 -0.821975 0.144936
v 0.398997 -0.803916 0.144993
v 0.399405 -0.785856 0.144993
v 0.399568 -0.767797 0.144993
v 0.369156 -0.874902 0.136166
v 0.380815 -0.868644 0.130756
v 0.298059 0.912988 0.117429
v 0.316159 0.909591 -0.0451608
v 0.328145 0.904763 0.117429
v 0.337195 0.900293 0.117429
v 0.351545 0.891352 0.117429
v 0.360595 0.884558 0.117429
v 0.369727 0.875617 0.117429
v 0.378777 0.866498 -0.117429
v 0.382854 0.853982 -0.135511
v 0.398916 0.833598 -0.131325
v 0.394431 0.828055 -0.14337
v 0.409841 0.769406 -0.134315
v 0.408536 0.749737 -0.137048
v 0.400872 0.821975 -0.136621
v 0.405275 0.803916 -0.135511
v 0.415711 0.764578 -0.127509
v 0.37201 -0.878478 0.117429
v 0.381549 -0.869538 0.117429
v 0.362959 -0.886525 0.117429
v 0.352279 -0.893498 0.117429
v 0.415874 -0.767797 -0.128079
v 0.415874 0.749737 -0.128022
v 0.401769 -0.83932 -0.117429
v 0.409189 -0.821975 -0.117429
v 0.416201 -0.767797 -0.117429
v 0.415874 -0.78532 -0.117429
v 0.415467 -0.794439 -0.117429
v 0.413918 -0.803916 -0.117429
v 0.401851 -0.83932 -0.0993481
v 0.397203 -0.848618 -0.0270794
v 0.397122 -0.848618 -0.0451608
v 0.390273 -0.858094 -0.0451608
v 0.375352 0.863101 0.135511
v 0.366302 0.87222 0.135511
v 0.38 0.850227 0.144822
v 0.316159 0.909412 0.117429
v 0.398019 0.815896 0.144822
v 0.399568 0.749737 0.144993
v 0.399405 0.767797 0.144993
v 0.399079 0.785856 0.144993
v 0.398508 0.803916 0.144993
v 0.399894 -0.835744 0.135511
v 0.404215 -0.821975 0.135511
v 0.415711 -0.782459 0.127509
v 0.409841 -0.787466 0.134315
v 0.408536 -0.767797 0.137048
v 0.39011 -0.858094 0.117429
v 0.39704 -0.84826 0.117429
v 0.378777 0.866498 0.117429
v 0.385381 0.857379 -0.117429
v 0.399568 0.835028 -0.117429
v 0.405275 0.821975 -0.117429
v 0.410982 0.803916 -0.117429
v 0.39435 0.843969 -0.117429
v 0.415874 0.767439 -0.117429
v 0.416201 0.749737 -0.117429
v 0.414325 0.785856 -0.117429
v 0.415548 0.776558 -0.117429
v 0.390273 -0.858094 0.0451608
v 0.40927 -0.821975 -0.0993481
v 0.416201 -0.767797 0.117429
v 0.415874 -0.78532 0.117429
v 0.415467 -0.794439 0.117429
v 0.413918 -0.803916 0.117429
v 0.401851 -0.839498 -0.0632137
v 0.397203 -0.848618 0.0270794
v 0.382854 0.853982 0.135511
v 0.394431 0.828055 0.14337
v 0.398916 0.833598 0.131325
v 0.405275 0.803916 0.135511
v 0.400872 0.821975 0.136621
v 0.408536 0.749737 0.137048
v 0.409841 0.769406 0.134315
v 0.415711 0.7644 0.127509
v 0.401769 -0.83932 0.117429
v 0.409189 -0.821975 0.117429
v 0.415874 -0.767797 0.128022
v 0.397122 -0.848618 0.0451608
v 0.401851 -0.83932 0.0993481
v 0.385381 0.857379 0.117429
v 0.399568 0.835028 0.117429
v 0.405275 0.821975 0.117429
v 0.410982 0.803916 0.117429
v 0.39435 0.843969 0.117429
v 0.415874 0.767439 -0.0993481
v 0.416201 0.749737 0.117429
v 0.414325 0.785856 0.117429
v 0.415467 0.776201 0.117429
v 0.415874 0.767082 0.117429
v 0.40927 -0.821975 0.0993481
v 0.401851 -0.839498 0.0632137
v 0.415874 0.749737 0.128022
f 1 2 3
f 1 3 4
f 1 4 15
f 1 15 5
f 1 5 18
f 1 18 6
f 1 6 8
f 1 8 2
f 2 7 3
f 2 8 27
f 2 27 7
f 3 9 4
f 3 7 10
f 3 10 11
f 3 11 12
f 3 12 13
f 3 13 14
f 3 14 9
f 4 9 28
f 4 28 15
f 5 15 16
f 5 16 17
f 5 17 40
f 5 40 18
f 6 18 44
f 6 44 19
f 6 19 20
f 6 20 21
f 6 21 22
f 6 22 8
f 7 23 24
f 7 24 25
f 7 25 26
f 7 26 10
f 7 27 52
f 7 52 23
f 8 22 50
f 8 50 27
f 9 14 35
f 9 35 28
f 10 26 29
f 10 29 30
f 10 30 31
f 10 31 32
f 10 32 12
f 10 12 11
f 12 32 13
f 13 32 33
f 13 33 65
f 13 65 34
f 13 34 35
f 13 35 14
f 15 28 16
f 16 36 17
f 16 28 35
f 16 35 34
f 16 34 37
f 16 37 38
f 16 38 39
f 16 39 36
f 17 36 71
f 17 71 40
f 18 40 41
f 18 41 42
f 18 42 43
f 18 43 44
f 19 44 80
f 19 80 45
f 19 45 46
f 19 46 20
f 20 46 47
f 20 47 21
f 21 47 48
f 21 48 49
f 21 49 22
f 22 49 50
f 23 51 24
f 23 52 88
f 23 88 51
f 24 51 25
f 25 51 29
f 25 29 26
f 27 50 53
f 27 53 54
f 27 54 55
f 27 55 52
f 29 51 56
f 29 56 30
f 30 56 31
f 31 56 57
f 31 57 58
f 31 58 59
f 31 59 60
f 31 60 61
f 31 61 62
f 31 62 32
f 32 63 33
f 32 62 61
f 32 61 64
f 32 64 63
f 33 63 102
f 33 102 65
f 34 65 66
f 34 66 37
f 36 39 67
f 36 67 68
f 36 68 69
f 36 69 70
f 36 70 107
f 36 107 71
f 37 66 39
f 37 39 38
f 39 66 72
f 39 72 73
f 39 73 74
f 39 74 67
f 40 71 75
f 40 75 41
f 41 75 76
f 41 76 42
f 42 76 77
f 42 77 43
f 43 77 78
f 43 78 79
f 43 79 44
f 44 79 80
f 45 80 121
f 45 121 81
f 45 81 82
f 45 82 46
f 46 82 83
f 46 83 84
f 46 84 47
f 47 84 48
f 48 84 49
f 49 85 50
f 49 84 86
f 49 86 87
f 49 87 85
f 50 85 53
f 51 88 128
f 51 128 166
f 51 166 201
f 51 201 227
f 51 227 253
f 51 253 282
f 51 282 319
f 51 319 285
f 51 285 255
f 51 255 229
f 51 229 202
f 51 202 167
f 51 167 129
f 51 129 89
f 51 89 56
f 52 55 88
f 53 85 88
f 53 88 54
f 54 88 55
f 56 89 90
f 56 90 57
f 57 90 58
f 58 90 91
f 58 91 59
f 59 91 92
f 59 92 93
f 59 93 94
f 59 94 95
f 59 95 60
f 60 95 96
f 60 96 97
f 60 97 98
f 60 98 61
f 61 99 64
f 61 98 100
f 61 100 101
f 61 101 99
f 63 64 103
f 63 103 102
f 64 99 141
f 64 141 103
f 65 102 66
f 66 102 103
f 66 103 104
f 66 104 105
f 66 105 72
f 67 74 68
f 68 74 106
f 68 106 69
f 69 106 70
f 70 106 144
f 70 144 107
f 71 107 108
f 71 108 109
f 71 109 110
f 71 110 75
f 72 105 104
f 72 104 111
f 72 111 112
f 72 112 113
f 72 113 114
f 72 114 115
f 72 115 73
f 73 115 74
f 74 115 106
f 75 110 116
f 75 116 76
f 76 117 118
f 76 118 77
f 76 116 119
f 76 119 117
f 77 118 78
f 78 118 79
f 79 118 80
f 80 118 120
f 80 120 121
f 81 121 117
f 81 117 86
f 81 86 82
f 82 86 83
f 83 86 84
f 85 87 122
f 85 122 123
f 85 123 124
f 85 124 125
f 85 125 88
f 86 117 157
f 86 157 126
f 86 126 127
f 86 127 87
f 87 127 122
f 88 125 124
f 88 124 128
f 89 129 90
f 90 129 130
f 90 130 91
f 91 130 131
f 91 131 92
f 92 131 93
f 93 132 133
f 93 133 134
f 93 134 96
f 93 96 94
f 93 131 135
f 93 135 132
f 94 96 95
f 96 136 137
f 96 137 97
f 96 134 138
f 96 138 136
f 97 137 173
f 97 173 139
f 97 139 140
f 97 140 98
f 98 140 142
f 98 142 100
f 99 101 143
f 99 143 141
f 100 142 143
f 100 143 101
f 103 141 104
f 104 141 143
f 104 143 142
f 104 142 140
f 104 140 111
f 106 115 152
f 106 152 182
f 106 182 211
f 106 211 239
f 106 239 269
f 106 269 305
f 106 305 345
f 106 345 388
f 106 388 338
f 106 338 299
f 106 299 263
f 106 263 234
f 106 234 208
f 106 208 175
f 106 175 144
f 107 144 108
f 108 144 109
f 109 144 110
f 110 144 116
f 111 140 139
f 111 139 145
f 111 145 146
f 111 146 112
f 112 146 147
f 112 147 148
f 112 148 149
f 112 149 150
f 112 150 113
f 113 150 151
f 113 151 114
f 114 151 115
f 115 151 152
f 116 144 153
f 116 153 154
f 116 154 155
f 116 155 156
f 116 156 119
f 117 121 120
f 117 120 118
f 117 119 158
f 117 158 157
f 119 156 158
f 122 127 159
f 122 159 123
f 123 159 160
f 123 160 161
f 123 161 162
f 123 162 124
f 124 162 128
f 126 157 187
f 126 187 163
f 126 163 127
f 127 163 164
f 127 164 165
f 127 165 159
f 128 162 166
f 129 167 135
f 129 135 131
f 129 131 130
f 132 135 167
f 132 167 168
f 132 168 169
f 132 169 133
f 133 169 205
f 133 205 170
f 133 170 134
f 134 170 171
f 134 171 138
f 136 172 173
f 136 173 137
f 136 138 174
f 136 174 172
f 138 171 207
f 138 207 174
f 139 173 145
f 144 175 154
f 144 154 153
f 145 147 146
f 145 173 172
f 145 172 174
f 145 174 176
f 145 176 148
f 145 148 147
f 148 176 177
f 148 177 178
f 148 178 179
f 148 179 180
f 148 180 149
f 149 180 150
f 150 181 151
f 150 180 181
f 151 181 182
f 151 182 152
f 154 175 183
f 154 183 155
f 155 183 184
f 155 184 185
f 155 185 186
f 155 186 156
f 156 186 158
f 157 158 187
f 158 188 187
f 158 186 189
f 158 189 188
f 159 165 160
f 160 165 190
f 160 190 191
f 160 191 192
f 160 192 161
f 161 193 162
f 161 192 193
f 162 193 166
f 163 187 188
f 163 188 164
f 164 188 216
f 164 216 194
f 164 194 165
f 165 194 195
f 165 195 196
f 165 196 197
f 165 197 198
f 165 198 191
f 165 191 190
f 166 193 199
f 166 199 200
f 166 200 201
f 167 202 203
f 167 203 168
f 168 203 204
f 168 204 169
f 169 204 232
f 169 232 205
f 170 205 233
f 170 233 206
f 170 206 207
f 170 207 171
f 174 207 176
f 175 208 183
f 176 207 206
f 176 206 177
f 177 206 233
f 177 233 209
f 177 209 178
f 178 210 211
f 178 211 179
f 178 209 210
f 179 211 182
f 179 182 180
f 180 182 181
f 183 208 212
f 183 212 184
f 184 212 213
f 184 213 185
f 185 213 214
f 185 214 215
f 185 215 189
f 185 189 186
f 188 189 216
f 189 215 214
f 189 214 217
f 189 217 218
f 189 218 219
f 189 219 220
f 189 220 216
f 191 198 192
f 192 198 221
f 192 221 222
f 192 222 223
f 192 223 199
f 192 199 193
f 194 216 220
f 194 220 195
f 195 220 219
f 195 219 196
f 196 219 218
f 196 218 197
f 197 218 243
f 197 243 224
f 197 224 221
f 197 221 198
f 199 223 225
f 199 225 200
f 200 225 223
f 200 223 226
f 200 226 201
f 201 226 250
f 201 250 227
f 202 228 230
f 202 230 203
f 202 229 228
f 203 230 204
f 204 230 231
f 204 231 260
f 204 260 232
f 205 232 262
f 205 262 233
f 208 234 235
f 208 235 236
f 208 236 212
f 209 237 238
f 209 238 210
f 209 233 262
f 209 262 237
f 210 238 239
f 210 239 211
f 212 236 213
f 213 236 240
f 213 240 241
f 213 241 242
f 213 242 217
f 213 217 214
f 217 242 218
f 218 242 243
f 221 244 245
f 221 245 246
f 221 246 222
f 221 224 247
f 221 247 244
f 222 246 223
f 223 246 248
f 223 248 226
f 224 243 274
f 224 274 247
f 226 248 249
f 226 249 276
f 226 276 250
f 227 250 277
f 227 277 251
f 227 251 252
f 227 252 253
f 228 254 230
f 228 229 254
f 229 255 256
f 229 256 257
f 229 257 258
f 229 258 259
f 229 259 254
f 230 254 231
f 231 254 261
f 231 261 260
f 232 260 295
f 232 295 262
f 234 263 298
f 234 298 264
f 234 264 235
f 235 264 240
f 235 240 265
f 235 265 236
f 236 265 240
f 237 266 267
f 237 267 238
f 237 262 295
f 237 295 266
f 238 267 268
f 238 268 239
f 239 268 269
f 240 264 270
f 240 270 271
f 240 271 241
f 241 271 242
f 242 271 272
f 242 272 273
f 242 273 274
f 242 274 243
f 244 247 274
f 244 274 273
f 244 273 272
f 244 272 245
f 245 272 308
f 245 308 275
f 245 275 246
f 246 275 248
f 248 275 249
f 249 275 309
f 249 309 276
f 250 276 277
f 251 277 278
f 251 278 279
f 251 279 252
f 252 279 280
f 252 280 281
f 252 281 253
f 253 281 282
f 254 283 261
f 254 259 258
f 254 258 284
f 254 284 283
f 255 285 286
f 255 286 256
f 256 287 288
f 256 288 257
f 256 286 289
f 256 289 287
f 257 288 258
f 258 290 291
f 258 291 284
f 258 288 292
f 258 292 290
f 260 261 293
f 260 293 294
f 260 294 295
f 261 283 293
f 263 296 297
f 263 297 336
f 263 336 298
f 263 299 296
f 264 298 337
f 264 337 300
f 264 300 270
f 266 295 301
f 266 301 302
f 266 302 267
f 267 302 268
f 268 302 269
f 269 303 304
f 269 304 305
f 269 302 306
f 269 306 307
f 269 307 303
f 270 300 308
f 270 308 271
f 271 308 272
f 275 308 349
f 275 349 309
f 276 310 277
f 276 309 350
f 276 350 310
f 277 310 278
f 278 311 280
f 278 280 279
f 278 310 312
f 278 312 313
f 278 313 311
f 280 314 315
f 280 315 316
f 280 316 281
f 280 311 313
f 280 313 314
f 281 316 317
f 281 317 282
f 282 317 318
f 282 318 319
f 283 320 293
f 283 284 291
f 283 291 321
f 283 321 322
f 283 322 320
f 285 323 324
f 285 324 325
f 285 325 286
f 285 319 364
f 285 364 323
f 286 325 326
f 286 326 327
f 286 327 289
f 287 292 288
f 287 289 327
f 287 327 292
f 290 321 291
f 290 292 321
f 292 327 328
f 292 328 321
f 293 320 329
f 293 329 294
f 294 329 330
f 294 330 331
f 294 331 295
f 295 331 301
f 296 332 333
f 296 333 297
f 296 299 334
f 296 334 332
f 297 335 336
f 297 333 335
f 298 336 337
f 299 338 334
f 300 337 349
f 300 349 308
f 301 339 302
f 301 331 339
f 302 339 340
f 302 340 307
f 302 307 306
f 303 341 304
f 303 307 341
f 304 341 342
f 304 342 343
f 304 343 344
f 304 344 305
f 305 344 345
f 307 340 346
f 307 346 347
f 307 347 348
f 307 348 341
f 309 349 397
f 309 397 350
f 310 350 312
f 312 350 351
f 312 351 313
f 313 351 352
f 313 352 353
f 313 353 354
f 313 354 314
f 314 354 355
f 314 355 315
f 315 355 356
f 315 356 357
f 315 357 316
f 316 357 358
f 316 358 359
f 316 359 317
f 317 359 318
f 318 359 360
f 318 360 319
f 319 360 361
f 319 361 362
f 319 362 363
f 319 363 364
f 320 322 329
f 321 328 365
f 321 365 366
f 321 366 367
f 321 367 322
f 322 367 368
f 322 368 329
f 323 369 324
f 323 364 369
f 324 369 325
f 325 369 326
f 326 369 370
f 326 370 327
f 327 371 328
f 327 370 372
f 327 372 373
f 327 373 371
f 328 371 374
f 328 374 375
f 328 375 376
f 328 376 365
f 329 368 378
f 329 378 330
f 330 377 331
f 330 378 379
f 330 379 377
f 331 377 339
f 332 335 333
f 332 334 380
f 332 380 381
f 332 381 382
f 332 382 383
f 332 383 335
f 334 338 384
f 334 384 380
f 335 383 385
f 335 385 386
f 335 386 336
f 336 386 337
f 337 386 397
f 337 397 349
f 338 387 384
f 338 388 387
f 339 377 379
f 339 379 389
f 339 389 346
f 339 346 340
f 341 348 342
f 342 348 390
f 342 390 343
f 343 390 344
f 344 391 392
f 344 392 345
f 344 390 391
f 345 392 393
f 345 393 394
f 345 394 434
f 345 434 388
f 346 389 347
f 347 389 395
f 347 395 348
f 348 395 396
f 348 396 390
f 350 397 398
f 350 398 351
f 351 398 352
f 352 398 399
f 352 399 400
f 352 400 353
f 353 400 401
f 353 401 354
f 354 401 402
f 354 402 355
f 355 402 403
f 355 403 356
f 356 403 445
f 356 445 404
f 356 404 358
f 356 358 357
f 358 404 405
f 358 405 359
f 359 405 406
f 359 406 407
f 359 407 360
f 360 408 409
f 360 409 361
f 360 407 410
f 360 410 411
f 360 411 412
f 360 412 408
f 361 409 362
f 362 409 363
f 363 409 364
f 364 409 369
f 365 413 415
f 365 415 366
f 365 376 414
f 365 414 413
f 366 415 416
f 366 416 367
f 367 416 378
f 367 378 368
f 369 417 372
f 369 372 370
f 369 409 418
f 369 418 417
f 371 419 374
f 371 373 420
f 371 420 419
f 372 417 421
f 372 421 422
f 372 422 423
f 372 423 424
f 372 424 373
f 373 424 420
f 374 419 425
f 374 425 426
f 374 426 427
f 374 427 375
f 375 428 376
f 375 427 426
f 375 426 428
f 376 428 414
f 378 416 379
f 379 416 389
f 380 429 430
f 380 430 381
f 380 384 431
f 380 431 429
f 381 402 382
f 381 430 403
f 381 403 402
f 382 402 401
f 382 401 383
f 383 399 432
f 383 432 385
f 383 401 400
f 383 400 399
f 384 387 431
f 385 432 397
f 385 397 386
f 387 388 433
f 387 433 431
f 388 434 435
f 388 435 436
f 388 436 437
f 388 437 433
f 389 416 415
f 389 415 413
f 389 413 414
f 389 414 396
f 389 396 395
f 390 396 438
f 390 438 439
f 390 439 440
f 390 440 441
f 390 441 391
f 391 441 442
f 391 442 392
f 392 442 393
f 393 442 394
f 394 442 468
f 394 468 434
f 396 414 443
f 396 443 444
f 396 444 438
f 397 432 398
f 398 432 399
f 403 430 429
f 403 429 445
f 404 445 476
f 404 476 446
f 404 446 406
f 404 406 405
f 406 447 448
f 406 448 449
f 406 449 410
f 406 410 407
f 406 446 450
f 406 450 447
f 408 412 409
f 409 412 418
f 410 449 411
f 411 449 412
f 412 451 452
f 412 452 418
f 412 449 453
f 412 453 454
f 412 454 451
f 414 428 455
f 414 455 443
f 417 418 452
f 417 452 421
f 419 420 456
f 419 456 425
f 420 424 456
f 421 457 458
f 421 458 422
f 421 452 482
f 421 482 457
f 422 458 459
f 422 459 423
f 423 459 460
f 423 460 424
f 424 460 486
f 424 486 456
f 425 461 426
f 425 456 461
f 426 461 487
f 426 487 462
f 426 462 455
f 426 455 428
f 429 431 463
f 429 463 445
f 431 464 465
f 431 465 463
f 431 433 464
f 433 466 467
f 433 467 464
f 433 437 468
f 433 468 469
f 433 469 470
f 433 470 466
f 434 468 435
f 435 468 436
f 436 468 437
f 438 444 471
f 438 471 472
f 438 472 439
f 439 472 460
f 439 460 440
f 440 460 459
f 440 459 458
f 440 458 457
f 440 457 473
f 440 473 442
f 440 442 441
f 442 473 488
f 442 488 468
f 443 455 462
f 443 462 474
f 443 474 444
f 444 474 462
f 444 462 475
f 444 475 471
f 445 463 465
f 445 465 476
f 446 476 480
f 446 480 450
f 447 477 478
f 447 478 448
f 447 450 480
f 447 480 477
f 448 478 479
f 448 479 449
f 449 479 483
f 449 483 453
f 451 481 482
f 451 482 452
f 451 454 481
f 453 483 454
f 454 483 484
f 454 484 485
f 454 485 481
f 456 486 487
f 456 487 461
f 457 482 488
f 457 488 473
f 460 472 486
f 462 487 475
f 464 467 465
f 465 467 479
f 465 479 478
f 465 478 477
f 465 477 480
f 465 480 476
f 466 479 467
f 466 470 479
f 468 488 470
f 468 470 469
f 470 488 482
f 470 482 485
f 470 485 484
f 470 484 483
f 470 483 479
f 471 475 486
f 471 486 472
f 475 487 486
f 481 485 482
