v -0.00631348 -0.0490849 -0.449048
v -0.020608 -0.0378741 -0.440798
v -0.00686819 -0.036565 -0.441707
v -0.000126298 -0.0490849 -0.449048
v -0.020608 -0.0490849 -0.447196
v -0.0540187 -0.041334 -0.43861
v -0.0448873 -0.0403365 -0.439216
v -0.020608 -0.0310168 -0.436185
v -0.102833 -0.0357754 -0.428542
v -0.00686819 -0.0297076 -0.437094
v -0.000126298 -0.036565 -0.441707
v -0.000126298 -0.0490849 -0.182978
v -0.045954 -0.0490849 -0.443862
v -0.0343051 -0.0479835 -0.444805
v -0.0616993 -0.0422691 -0.438104
v -0.102833 -0.028918 -0.423929
v -0.103985 -0.0490849 -0.436219
v -0.103985 -0.048742 -0.436017
v -0.116573 -0.0379988 -0.42706
v -0.0754391 -0.0439418 -0.437195
v -0.0891362 -0.0456146 -0.436286
v -0.0836745 -0.0271725 -0.425175
v -0.0343051 -0.0227672 -0.428441
v -0.020608 -0.0215515 -0.42935
v -0.00738023 -0.0193385 -0.429417
v -0.0031132 -0.0131669 -0.42541
v -0.000126298 -0.0297076 -0.437094
v -0.149002 -0.0490849 -0.105063
v -0.000126298 0.0570587 -0.18318
v -0.0799622 -0.0490849 -0.439384
v -0.110173 -0.0134786 -0.411471
v -0.102833 -0.0127513 -0.412009
v -0.0885815 -0.0217801 -0.420562
v -0.115421 -0.0490849 -0.433862
v -0.116573 -0.0311414 -0.422279
v -0.116573 -0.0479835 -0.432953
v -0.125065 -0.0400976 -0.42568
v -0.020608 0.00827796 -0.407295
v -0.00738023 -0.00789917 -0.420966
v -0.0480022 -0.0171358 -0.422481
v -0.000126298 -0.0131669 -0.42541
v -0.00686819 0.00948319 -0.408171
v -0.436002 -0.0490849 -0.105063
v -0.149899 0.0570587 -0.105063
v -0.000126298 0.0570587 -0.364264
v -0.115464 -0.0204502 -0.414703
v -0.13027 -0.0254893 -0.412817
v -0.119304 -0.0157955 -0.409619
v -0.112562 0.00148294 -0.398743
v -0.102833 0.00995074 -0.394669
v -0.0891362 0.0114469 -0.395914
v -0.0891362 -0.0115253 -0.412918
v -0.116573 -0.0490849 -0.433559
v -0.130014 -0.0490849 -0.428946
v -0.129886 -0.0350273 -0.420023
v -0.129886 -0.0478588 -0.428306
v -0.134239 -0.0432042 -0.423794
v -0.163553 -0.0418431 -0.410864
v -0.192867 -0.0405755 -0.397935
v -0.154379 -0.0389755 -0.412784
v -0.146442 -0.0298427 -0.409484
v -0.0754391 0.0126625 -0.396824
v -0.0578164 0.014221 -0.397968
v -0.000126298 0.00948319 -0.408171
v -0.0343051 0.0161743 -0.399517
v -0.020608 0.0172549 -0.400426
v -0.00686819 0.0182835 -0.401302
v -0.000126298 0.0139405 -0.404703
v -0.42926 -0.0377598 -0.105063
v -0.427041 -0.0379988 -0.116544
v -0.432972 -0.0479835 -0.116544
v -0.43357 -0.0490849 -0.116544
v -0.348357 0.0570587 -0.105063
v -0.000126298 0.0322579 -0.388641
v -0.00686819 0.0570587 -0.364264
v -0.137311 -0.0273283 -0.41137
v -0.13027 -0.018632 -0.407396
v -0.116872 0.00636621 -0.393086
v -0.116573 0.0157587 -0.385645
v -0.102833 0.0183978 -0.387833
v -0.0891362 0.0198835 -0.389046
v -0.13283 -0.0490849 -0.427801
v -0.212794 -0.0481913 -0.394164
v -0.201999 -0.0437548 -0.396049
v -0.212538 -0.0366793 -0.387025
v -0.175757 -0.0287622 -0.396554
v -0.020608 0.0241122 -0.394601
v -0.0891362 0.0267409 -0.38322
v -0.00686819 0.0251408 -0.39551
v -0.000126298 0.0217537 -0.398372
v -0.000126298 0.0182835 -0.401302
v -0.428279 -0.036139 -0.105063
v -0.425676 -0.0400976 -0.125063
v -0.42367 -0.0292816 -0.105063
v -0.411467 -0.0134786 -0.110147
v -0.422262 -0.0311414 -0.116544
v -0.433186 -0.0490849 -0.117723
v -0.348059 0.0570587 -0.105871
v -0.353563 0.0520923 -0.105063
v -0.000126298 0.0287357 -0.392042
v -0.00686819 0.0322579 -0.388641
v -0.020608 0.031354 -0.387766
v -0.0754391 0.0570587 -0.355341
v -0.157707 -0.0240036 -0.400292
v -0.205071 -0.0277439 -0.383624
v -0.198841 -0.00375358 -0.367193
v -0.156726 0.00633504 -0.376621
v -0.143967 0.00191932 -0.385409
v -0.129246 0.00695844 -0.387497
v -0.123955 0.013982 -0.384096
v -0.116573 0.0226161 -0.379382
v -0.102833 0.0252551 -0.381806
v -0.153269 0.0149171 -0.371166
v -0.182584 0.0158107 -0.358236
v -0.143967 0.0170886 -0.373085
v -0.143967 0.023946 -0.366856
v -0.197049 -0.0490849 -0.401201
v -0.212794 -0.0490849 -0.394669
v -0.213306 -0.0490849 -0.394433
v -0.2212 -0.0394326 -0.385039
v -0.212538 -0.0298219 -0.381907
v -0.0891362 0.0337229 -0.376385
v -0.0813703 0.0272915 -0.383759
v -0.000126298 0.0251408 -0.39551
v -0.0721962 0.0279045 -0.384365
v -0.412747 -0.0389755 -0.154391
v -0.399562 -0.0383001 -0.185099
v -0.39794 -0.0405755 -0.192843
v -0.410869 -0.0418431 -0.163549
v -0.423798 -0.0432042 -0.134222
v -0.428279 -0.0478588 -0.129912
v -0.428961 -0.0490849 -0.129979
v -0.412832 -0.0254893 -0.130249
v -0.420001 -0.0350273 -0.129912
v -0.409461 -0.0298427 -0.146445
v -0.411851 -0.0129695 -0.105063
v -0.399647 0.00272974 -0.105063
v -0.394441 0.00937929 -0.105063
v -0.398751 0.00148294 -0.112538
v -0.409632 -0.0157955 -0.119306
v -0.41471 -0.0204502 -0.115467
v -0.337946 0.0570587 -0.130518
v -0.370802 0.0280188 -0.124929
v -0.372509 0.0296604 -0.116544
v -0.361756 0.0441856 -0.105063
v -0.0877708 0.0570587 -0.353623
v -0.19594 -0.0253439 -0.38551
v -0.207034 -0.0128344 -0.370863
v -0.198841 0.00485967 -0.360324
v -0.191715 0.0135768 -0.356351
v -0.18604 0.00732209 -0.363691
v -0.171404 0.010252 -0.367429
v -0.116573 0.0296604 -0.372547
v -0.134068 0.0261486 -0.36891
v -0.124937 0.0280188 -0.370796
v -0.102833 0.0321332 -0.374937
v -0.0914831 0.0541911 -0.355778
v -0.186339 0.020455 -0.352411
v -0.171404 0.0252136 -0.354331
v -0.171404 0.0183562 -0.36056
v -0.225169 -0.0490849 -0.388406
v -0.226022 -0.0490849 -0.387934
v -0.225937 -0.0483472 -0.38753
v -0.22726 -0.0490849 -0.387126
v -0.230332 -0.0440146 -0.381907
v -0.236476 -0.0379261 -0.372782
v -0.226321 -0.034113 -0.377126
v -0.22231 -0.0249387 -0.372345
v -0.208186 0.00205439 -0.358068
v -0.0899897 0.0570587 -0.353253
v -0.394612 -0.0314428 -0.185099
v -0.387017 -0.0366793 -0.212541
v -0.396063 -0.0437548 -0.202002
v -0.41599 -0.047038 -0.158465
v -0.417227 -0.0490849 -0.15833
v -0.396873 -0.000896351 -0.121663
v -0.398452 -0.0263413 -0.166614
v -0.411339 -0.0273283 -0.137286
v -0.396532 -0.0287725 -0.175738
v -0.387486 0.0179718 -0.105063
v -0.385609 0.0157587 -0.116544
v -0.384115 0.013982 -0.123952
v -0.33641 0.0570587 -0.134256
v -0.368882 0.0261486 -0.134087
v -0.379379 0.0226161 -0.116544
v -0.324035 0.0570587 -0.164156
v -0.357873 0.0287565 -0.154256
v -0.355953 0.0269487 -0.163381
v -0.367516 0.0385854 -0.105063
v -0.381384 0.0248291 -0.105063
v -0.374557 0.031728 -0.105063
v -0.198841 0.011717 -0.354634
v -0.192526 0.0277071 -0.343051
v -0.102833 0.0570587 -0.349313
v -0.102833 0.0525287 -0.354027
v -0.102833 0.0389906 -0.367934
v -0.163382 0.0269487 -0.35598
v -0.185101 0.0291929 -0.344633
v -0.157707 0.0570587 -0.326787
v -0.128393 0.0570587 -0.338909
v -0.238738 -0.0490849 -0.379011
v -0.245608 -0.0424457 -0.369281
v -0.231484 -0.0287829 -0.368944
v -0.260713 -0.0408976 -0.35662
v -0.275818 -0.0395573 -0.343993
v -0.227132 -0.0197956 -0.364028
v -0.217317 -0.00171716 -0.354869
v -0.208613 0.0159769 -0.34497
v -0.212965 0.00719741 -0.34992
v -0.383603 -0.0277439 -0.205066
v -0.381896 -0.0298219 -0.212541
v -0.385011 -0.0394326 -0.221228
v -0.399988 -0.0490849 -0.199948
v -0.394143 -0.0481913 -0.212777
v -0.394441 -0.0490849 -0.213316
v -0.385395 0.00191932 -0.143987
v -0.367431 0.010252 -0.171395
v -0.371015 0.00107774 -0.180318
v -0.385523 -0.0253439 -0.195908
v -0.373106 0.0170886 -0.143987
v -0.371186 0.0149171 -0.15328
v -0.356337 0.0135768 -0.191732
v -0.366834 0.023946 -0.143987
v -0.354331 0.0252136 -0.171395
v -0.320878 0.0570587 -0.171395
v -0.343066 0.0277071 -0.192507
v -0.344602 0.0291929 -0.185099
v -0.197774 0.0205485 -0.346957
v -0.191715 0.0410166 -0.328909
v -0.171404 0.0570587 -0.320895
v -0.201657 0.02512 -0.340155
v -0.240018 -0.0490849 -0.378035
v -0.253971 -0.0474017 -0.366216
v -0.300055 -0.0429132 -0.327831
v -0.285888 -0.0291466 -0.327495
v -0.300994 -0.0279413 -0.314834
v -0.261652 -0.0264348 -0.343657
v -0.315117 -0.0413651 -0.315104
v -0.290881 -0.0382897 -0.331333
v -0.295959 -0.0331155 -0.323084
v -0.291862 -0.0241282 -0.31837
v -0.217787 0.0123612 -0.341502
v -0.247912 0.0146262 -0.316215
v -0.263017 0.0156756 -0.303554
v -0.223675 0.0169639 -0.332377
v -0.217403 0.0260967 -0.327528
v -0.367175 -0.00375358 -0.198803
v -0.360305 0.00485967 -0.198803
v -0.370845 -0.0128344 -0.207019
v -0.358086 0.002044 -0.208164
v -0.372338 -0.0249387 -0.222373
v -0.377117 -0.034113 -0.22638
v -0.372765 -0.0379261 -0.236515
v -0.381896 -0.0440146 -0.230387
v -0.387145 -0.0490849 -0.227289
v -0.387955 -0.0490849 -0.226043
v -0.358257 0.0158107 -0.182574
v -0.352411 0.020455 -0.186345
v -0.35463 0.011717 -0.198803
v -0.319811 0.0570587 -0.173685
v -0.346949 0.0205485 -0.197793
v -0.3289 0.0410166 -0.191699
v -0.340165 0.02512 -0.201665
v -0.188174 0.0570587 -0.311871
v -0.185656 0.0570587 -0.313555
v -0.181602 0.0570587 -0.315979
v -0.18109 0.0564249 -0.316989
v -0.178274 0.0570587 -0.317663
v -0.208271 0.0290267 -0.33103
v -0.198841 0.0388244 -0.326215
v -0.200292 0.0570587 -0.302847
v -0.254824 -0.0490849 -0.366688
v -0.263828 -0.0479835 -0.359044
v -0.296556 -0.0490849 -0.334667
v -0.310381 -0.0490849 -0.324026
v -0.30957 -0.0467056 -0.32305
v -0.30142 -0.013863 -0.301433
v -0.292289 -0.0100499 -0.305002
v -0.305943 -0.0370741 -0.318673
v -0.314861 -0.0279413 -0.300995
v -0.314989 -0.0490849 -0.320053
v -0.320067 -0.0490849 -0.315003
v -0.324035 -0.0490849 -0.31039
v -0.323054 -0.0467056 -0.309581
v -0.327833 -0.0429132 -0.300053
v -0.356636 -0.0408976 -0.260758
v -0.343962 -0.0395573 -0.275843
v -0.331332 -0.0382897 -0.290894
v -0.318702 -0.0370741 -0.305979
v -0.26737 0.00687532 -0.308504
v -0.272149 0.0120183 -0.300053
v -0.27808 0.016673 -0.290928
v -0.256702 0.0248187 -0.298706
v -0.271807 0.0258162 -0.286045
v -0.232465 0.0270318 -0.314868
v -0.344987 0.0159769 -0.208635
v -0.349936 0.00719741 -0.212979
v -0.368924 -0.0287829 -0.231498
v -0.364017 -0.0197956 -0.227154
v -0.327492 -0.0291466 -0.285911
v -0.369266 -0.0424457 -0.24564
v -0.379037 -0.0490849 -0.238771
v -0.317635 0.0570587 -0.178264
v -0.316995 0.0564249 -0.181092
v -0.326212 0.0388244 -0.198803
v -0.331033 0.0290267 -0.208265
v -0.315971 0.0570587 -0.181597
v -0.311874 0.0570587 -0.188197
v -0.29758 0.0570587 -0.207154
v -0.327492 0.0260967 -0.21739
v -0.240189 0.0570587 -0.272307
v -0.262633 0.0287773 -0.289581
v -0.30078 -0.000906741 -0.28682
v -0.287211 0.0131508 -0.287224
v -0.282432 0.00801821 -0.295844
v -0.356294 -0.0275881 -0.246583
v -0.343664 -0.0264348 -0.261701
v -0.335684 -0.0490849 -0.295238
v -0.353777 -0.0479835 -0.270725
v -0.377117 -0.0490849 -0.241296
v -0.276928 0.0296189 -0.276954
v -0.25986 0.0544612 -0.259916
v -0.266516 0.0337645 -0.280422
v -0.328857 0.0135145 -0.232845
v -0.341488 0.0123612 -0.21776
v -0.298689 0.0248187 -0.256751
v -0.294806 0.0207459 -0.267459
v -0.303554 0.0156756 -0.263048
v -0.316184 0.0146262 -0.247963
v -0.350662 -0.00570689 -0.227626
v -0.332484 0.00372717 -0.239949
v -0.359793 -0.0237854 -0.237458
v -0.353222 -0.0197541 -0.241195
v -0.280469 0.0570587 -0.229545
v -0.302231 0.0279045 -0.247593
v -0.314861 0.0270318 -0.232508
v -0.286059 0.0258162 -0.271836
v -0.250899 0.0570587 -0.263755
v -0.261268 0.0416193 -0.274833
v -0.300055 0.0120183 -0.272206
v -0.29583 0.00801821 -0.282442
v -0.321859 -0.00720304 -0.266954
v -0.290923 0.016673 -0.278099
v -0.257982 0.0570587 -0.258031
v -0.280427 0.0337645 -0.266583
v -0.267498 0.0570587 -0.246381
v -0.289558 0.0287773 -0.262678
f 1 2 3
f 1 3 11
f 1 11 4
f 1 4 12
f 1 12 28
f 1 28 43
f 1 43 72
f 1 72 97
f 1 97 132
f 1 132 175
f 1 175 213
f 1 213 215
f 1 215 256
f 1 256 255
f 1 255 302
f 1 302 320
f 1 320 318
f 1 318 283
f 1 283 282
f 1 282 281
f 1 281 275
f 1 275 274
f 1 274 272
f 1 272 232
f 1 232 201
f 1 201 164
f 1 164 162
f 1 162 161
f 1 161 119
f 1 119 118
f 1 118 117
f 1 117 82
f 1 82 54
f 1 54 53
f 1 53 34
f 1 34 17
f 1 17 30
f 1 30 13
f 1 13 5
f 1 5 6
f 1 6 7
f 1 7 2
f 2 8 10
f 2 10 3
f 2 7 9
f 2 9 16
f 2 16 8
f 3 10 27
f 3 27 11
f 4 11 27
f 4 27 41
f 4 41 64
f 4 64 68
f 4 68 91
f 4 91 90
f 4 90 124
f 4 124 100
f 4 100 74
f 4 74 45
f 4 45 29
f 4 29 12
f 5 13 14
f 5 14 6
f 6 14 15
f 6 15 9
f 6 9 7
f 8 16 10
f 9 17 18
f 9 18 19
f 9 19 16
f 9 15 20
f 9 20 21
f 9 21 17
f 10 22 23
f 10 23 24
f 10 24 25
f 10 25 26
f 10 26 41
f 10 41 27
f 10 16 22
f 12 29 28
f 13 30 14
f 14 30 17
f 14 17 15
f 15 17 20
f 16 19 31
f 16 31 32
f 16 32 33
f 16 33 22
f 17 34 18
f 17 21 20
f 18 34 19
f 19 35 31
f 19 34 36
f 19 36 37
f 19 37 35
f 22 33 23
f 23 33 24
f 24 38 39
f 24 39 26
f 24 26 25
f 24 33 40
f 24 40 38
f 26 39 42
f 26 42 64
f 26 64 41
f 28 29 44
f 28 44 73
f 28 73 99
f 28 99 145
f 28 145 189
f 28 189 191
f 28 191 190
f 28 190 180
f 28 180 138
f 28 138 137
f 28 137 136
f 28 136 94
f 28 94 92
f 28 92 69
f 28 69 43
f 29 45 75
f 29 75 103
f 29 103 146
f 29 146 170
f 29 170 194
f 29 194 200
f 29 200 199
f 29 199 230
f 29 230 268
f 29 268 266
f 29 266 265
f 29 265 264
f 29 264 271
f 29 271 311
f 29 311 338
f 29 338 344
f 29 344 346
f 29 346 334
f 29 334 309
f 29 309 308
f 29 308 307
f 29 307 303
f 29 303 260
f 29 260 225
f 29 225 186
f 29 186 183
f 29 183 142
f 29 142 98
f 29 98 73
f 29 73 44
f 31 35 46
f 31 46 47
f 31 47 48
f 31 48 49
f 31 49 50
f 31 50 51
f 31 51 32
f 32 51 52
f 32 52 33
f 33 52 40
f 34 53 36
f 35 37 47
f 35 47 46
f 36 53 54
f 36 54 37
f 37 55 47
f 37 54 56
f 37 56 57
f 37 57 58
f 37 58 59
f 37 59 60
f 37 60 61
f 37 61 55
f 38 42 39
f 38 40 52
f 38 52 62
f 38 62 63
f 38 63 42
f 42 63 65
f 42 65 66
f 42 66 67
f 42 67 68
f 42 68 64
f 43 69 70
f 43 70 71
f 43 71 72
f 45 74 101
f 45 101 75
f 47 55 76
f 47 76 77
f 47 77 49
f 47 49 48
f 49 77 78
f 49 78 79
f 49 79 80
f 49 80 50
f 50 80 51
f 51 81 62
f 51 62 52
f 51 80 81
f 54 82 56
f 55 61 76
f 56 82 57
f 57 82 58
f 58 82 83
f 58 83 84
f 58 84 59
f 59 84 85
f 59 85 60
f 60 85 61
f 61 85 86
f 61 86 76
f 62 81 63
f 63 81 65
f 65 87 66
f 65 81 88
f 65 88 87
f 66 87 89
f 66 89 67
f 67 89 90
f 67 90 91
f 67 91 68
f 69 92 70
f 70 93 71
f 70 92 94
f 70 94 95
f 70 95 96
f 70 96 93
f 71 97 72
f 71 93 97
f 73 98 99
f 74 100 101
f 75 101 102
f 75 102 103
f 76 104 77
f 76 86 105
f 76 105 104
f 77 104 106
f 77 106 107
f 77 107 108
f 77 108 78
f 78 108 109
f 78 109 110
f 78 110 79
f 79 111 112
f 79 112 80
f 79 110 113
f 79 113 114
f 79 114 115
f 79 115 116
f 79 116 111
f 80 112 88
f 80 88 81
f 82 117 83
f 83 118 119
f 83 119 120
f 83 120 84
f 83 117 118
f 84 120 85
f 85 120 121
f 85 121 105
f 85 105 86
f 87 88 89
f 88 122 123
f 88 123 89
f 88 112 122
f 89 102 101
f 89 101 100
f 89 100 124
f 89 124 90
f 89 123 125
f 89 125 102
f 93 126 127
f 93 127 128
f 93 128 129
f 93 129 130
f 93 130 131
f 93 131 132
f 93 132 97
f 93 96 133
f 93 133 134
f 93 134 135
f 93 135 126
f 94 136 95
f 95 137 138
f 95 138 139
f 95 139 140
f 95 140 133
f 95 133 141
f 95 141 96
f 95 136 137
f 96 141 133
f 98 142 143
f 98 143 144
f 98 144 99
f 99 144 145
f 102 125 103
f 103 125 123
f 103 123 122
f 103 122 146
f 104 105 147
f 104 147 106
f 105 121 148
f 105 148 149
f 105 149 106
f 105 106 147
f 106 149 150
f 106 150 151
f 106 151 152
f 106 152 107
f 107 152 110
f 107 110 109
f 107 109 108
f 110 152 150
f 110 150 113
f 111 153 112
f 111 116 154
f 111 154 155
f 111 155 153
f 112 153 156
f 112 156 157
f 112 157 122
f 113 150 114
f 114 150 158
f 114 158 159
f 114 159 160
f 114 160 115
f 115 160 159
f 115 159 116
f 116 159 154
f 119 161 120
f 120 161 162
f 120 162 163
f 120 163 164
f 120 164 165
f 120 165 166
f 120 166 167
f 120 167 168
f 120 168 169
f 120 169 121
f 121 169 148
f 122 157 170
f 122 170 146
f 126 135 127
f 127 135 171
f 127 171 172
f 127 172 128
f 128 173 129
f 128 172 173
f 129 173 174
f 129 174 130
f 130 174 132
f 130 132 131
f 132 174 175
f 133 140 139
f 133 139 176
f 133 176 177
f 133 177 178
f 133 178 134
f 134 178 135
f 135 178 179
f 135 179 171
f 138 180 139
f 139 180 181
f 139 181 182
f 139 182 176
f 142 183 143
f 143 184 185
f 143 185 144
f 143 183 186
f 143 186 187
f 143 187 188
f 143 188 184
f 144 189 145
f 144 185 190
f 144 190 191
f 144 191 189
f 148 169 149
f 149 169 192
f 149 192 150
f 150 193 158
f 150 152 151
f 150 192 193
f 153 194 195
f 153 195 196
f 153 196 156
f 153 155 197
f 153 197 198
f 153 198 199
f 153 199 200
f 153 200 194
f 154 159 197
f 154 197 155
f 156 196 157
f 157 196 195
f 157 195 170
f 158 193 159
f 159 193 197
f 162 164 163
f 164 201 165
f 165 201 202
f 165 202 166
f 166 203 167
f 166 202 204
f 166 204 205
f 166 205 203
f 167 203 168
f 168 203 206
f 168 206 207
f 168 207 169
f 169 208 192
f 169 207 209
f 169 209 208
f 170 195 194
f 171 210 172
f 171 179 210
f 172 210 211
f 172 211 212
f 172 212 173
f 173 213 175
f 173 175 174
f 173 212 214
f 173 214 215
f 173 215 213
f 176 182 216
f 176 216 177
f 177 179 178
f 177 216 217
f 177 217 218
f 177 218 219
f 177 219 210
f 177 210 179
f 180 190 181
f 181 190 185
f 181 185 220
f 181 220 221
f 181 221 182
f 182 221 222
f 182 222 217
f 182 217 216
f 184 223 185
f 184 188 224
f 184 224 223
f 185 223 220
f 186 225 226
f 186 226 227
f 186 227 187
f 187 227 226
f 187 226 188
f 188 226 224
f 192 208 228
f 192 228 193
f 193 229 230
f 193 230 199
f 193 199 198
f 193 198 197
f 193 228 231
f 193 231 229
f 201 232 202
f 202 233 234
f 202 234 204
f 202 232 233
f 203 205 235
f 203 235 236
f 203 236 237
f 203 237 206
f 204 234 238
f 204 238 205
f 205 238 239
f 205 239 240
f 205 240 235
f 206 237 241
f 206 241 207
f 207 242 209
f 207 241 242
f 208 231 228
f 208 209 242
f 208 242 243
f 208 243 244
f 208 244 245
f 208 245 246
f 208 246 231
f 210 219 247
f 210 247 248
f 210 248 249
f 210 249 211
f 211 249 250
f 211 250 212
f 212 251 252
f 212 252 253
f 212 253 254
f 212 254 255
f 212 255 256
f 212 256 215
f 212 215 214
f 212 250 251
f 217 247 218
f 217 222 247
f 218 247 219
f 220 223 224
f 220 224 257
f 220 257 221
f 221 257 222
f 222 257 258
f 222 258 226
f 222 226 259
f 222 259 248
f 222 248 247
f 224 226 258
f 224 258 257
f 225 260 226
f 226 261 259
f 226 260 262
f 226 262 263
f 226 263 261
f 229 264 265
f 229 265 266
f 229 266 267
f 229 267 268
f 229 268 230
f 229 231 269
f 229 269 270
f 229 270 271
f 229 271 264
f 231 246 269
f 232 272 233
f 233 272 273
f 233 273 234
f 234 273 274
f 234 274 275
f 234 275 276
f 234 276 238
f 235 240 236
f 236 277 278
f 236 278 241
f 236 241 237
f 236 240 279
f 236 279 238
f 236 238 277
f 238 280 277
f 238 279 239
f 238 276 275
f 238 275 281
f 238 281 282
f 238 282 283
f 238 283 284
f 238 284 285
f 238 285 286
f 238 286 287
f 238 287 288
f 238 288 289
f 238 289 280
f 239 279 240
f 241 278 290
f 241 290 242
f 242 290 291
f 242 291 243
f 243 291 244
f 244 291 292
f 244 292 293
f 244 293 246
f 244 246 245
f 246 293 294
f 246 294 295
f 246 295 269
f 248 259 250
f 248 250 249
f 250 259 296
f 250 296 297
f 250 297 251
f 251 298 252
f 251 297 299
f 251 299 298
f 252 298 253
f 253 298 300
f 253 300 287
f 253 287 286
f 253 286 301
f 253 301 254
f 254 301 302
f 254 302 255
f 259 261 296
f 260 303 304
f 260 304 262
f 261 263 296
f 262 305 306
f 262 306 263
f 262 304 307
f 262 307 308
f 262 308 309
f 262 309 305
f 263 306 310
f 263 310 296
f 266 268 267
f 269 311 271
f 269 271 270
f 269 295 312
f 269 312 311
f 272 274 273
f 277 280 313
f 277 313 314
f 277 314 315
f 277 315 278
f 278 315 290
f 280 289 300
f 280 300 298
f 280 298 316
f 280 316 317
f 280 317 313
f 283 285 284
f 283 318 285
f 285 318 319
f 285 319 320
f 285 320 286
f 286 320 301
f 287 300 288
f 288 300 289
f 290 315 291
f 291 315 314
f 291 314 292
f 292 314 294
f 292 294 293
f 294 314 321
f 294 321 322
f 294 322 323
f 294 323 312
f 294 312 295
f 296 324 325
f 296 325 297
f 296 310 326
f 296 326 327
f 296 327 328
f 296 328 329
f 296 329 324
f 297 330 299
f 297 325 331
f 297 331 330
f 298 299 332
f 298 332 316
f 299 330 333
f 299 333 317
f 299 317 332
f 301 320 302
f 303 307 304
f 305 309 306
f 306 309 334
f 306 334 335
f 306 335 336
f 306 336 310
f 310 336 337
f 310 337 326
f 311 322 338
f 311 312 323
f 311 323 339
f 311 339 322
f 313 340 341
f 313 341 314
f 313 317 342
f 313 342 340
f 314 343 337
f 314 337 321
f 314 341 340
f 314 340 343
f 316 332 317
f 317 333 330
f 317 330 342
f 318 320 319
f 321 337 322
f 322 344 338
f 322 339 323
f 322 337 345
f 322 345 346
f 322 346 344
f 324 331 325
f 324 329 340
f 324 340 331
f 326 337 327
f 327 337 343
f 327 343 328
f 328 343 340
f 328 340 329
f 330 331 342
f 331 340 342
f 334 346 347
f 334 347 335
f 335 347 337
f 335 337 336
f 337 347 345
f 345 347 346
