v -0.136631 0.16435 -0.292672
v -0.149456 0.16435 -0.287345
v -0.136631 0.179243 -0.288204
v -0.136631 0.16435 -0.122617
v -0.1577 0.16435 -0.283535
v -0.150947 0.205869 -0.274255
v -0.147672 0.215027 -0.27288
v -0.136631 0.272924 -0.260076
v -0.136631 0.435547 -0.122617
v -0.183166 0.16435 -5.21577e-05
v -0.162042 0.16435 -0.281101
v -0.165152 0.179614 -0.274656
v -0.151554 0.248396 -0.260964
v -0.137331 0.315743 -0.2469
v -0.136631 0.316248 -0.247044
v -0.136631 0.435547 -0.207115
v -0.183166 0.435547 -5.21577e-05
v -0.324592 0.16435 -5.21577e-05
v -0.169219 0.16435 -0.276775
v -0.16701 0.171385 -0.276031
v -0.175475 0.16435 -0.272078
v -0.147285 0.435547 -0.199267
v -0.139851 0.435547 -0.204909
v -0.13768 0.357687 -0.233438
v -0.136631 0.358403 -0.233724
v -0.136631 0.39878 -0.219861
v -0.137386 0.398196 -0.219575
v -0.248856 0.435547 -5.21577e-05
v -0.324592 0.16435 -0.00632505
v -0.301849 0.247652 -5.21577e-05
v -0.213582 0.16435 -0.242833
v -0.206572 0.166501 -0.247473
v -0.160681 0.435547 -0.188984
v -0.274635 0.344281 -5.21577e-05
v -0.248856 0.435547 -0.00686927
v -0.301849 0.247652 -0.00188533
v -0.320783 0.171385 -0.0205894
v -0.322734 0.16435 -0.0205894
v -0.222801 0.16435 -0.23573
v -0.217501 0.187844 -0.231634
v -0.170415 0.435547 -0.181479
v -0.274635 0.344281 -0.00343207
v -0.247789 0.435547 -0.0150613
v -0.244127 0.435547 -0.0430172
v -0.319146 0.16435 -0.0479438
v -0.321814 0.16435 -0.027607
v -0.229664 0.16435 -0.229628
v -0.219249 0.219115 -0.219231
v -0.178437 0.425539 -0.178414
v -0.172623 0.435547 -0.179531
v -0.20567 0.287923 -0.205654
v -0.243538 0.435547 -0.0474282
v -0.314932 0.16435 -0.0798811
v -0.315282 0.16435 -0.0772459
v -0.316625 0.16435 -0.0670776
v -0.232792 0.16435 -0.226306
v -0.235718 0.16435 -0.222783
v -0.234503 0.171385 -0.221207
v -0.18151 0.435547 -0.170394
v -0.176781 0.435547 -0.175722
v -0.176284 0.435547 -0.176266
v -0.24179 0.435547 -0.0580263
v -0.259915 0.368225 -0.0644424
v -0.274193 0.315319 -0.068567
v -0.246758 0.411257 -0.0685097
v -0.301996 0.206957 -0.0832038
v -0.311988 0.16435 -0.0893621
v -0.242839 0.16435 -0.21356
v -0.231633 0.187844 -0.217484
v -0.183718 0.435547 -0.167558
v -0.241164 0.435547 -0.0617213
v -0.236546 0.435547 -0.0761575
v -0.221568 0.435547 -0.112649
v -0.302861 0.182375 -0.0989862
v -0.306578 0.16435 -0.103054
v -0.260559 0.16435 -0.190473
v -0.194262 0.435547 -0.15381
v -0.272077 0.16435 -0.175464
v -0.217998 0.435547 -0.120326
v -0.219562 0.425618 -0.123705
v -0.246905 0.315743 -0.13734
v -0.274267 0.205869 -0.150917
v -0.28735 0.16435 -0.149427
v -0.290202 0.16435 -0.142581
v -0.298997 0.171465 -0.11623
v -0.30391 0.16435 -0.109498
v -0.201254 0.435547 -0.144672
v -0.273936 0.16435 -0.173001
v -0.274653 0.179588 -0.165124
v -0.212331 0.435547 -0.129721
v -0.233455 0.357687 -0.137683
v -0.260963 0.248396 -0.151518
v -0.283541 0.16435 -0.157676
v -0.285878 0.16435 -0.152692
v -0.301573 0.16435 -0.115141
v -0.207528 0.435547 -0.136394
v -0.276788 0.16435 -0.169191
v -0.276033 0.171385 -0.166986
f 1 2 3
f 1 3 8
f 1 8 15
f 1 15 25
f 1 25 26
f 1 26 16
f 1 16 9
f 1 9 4
f 1 4 10
f 1 10 18
f 1 18 29
f 1 29 38
f 1 38 46
f 1 46 45
f 1 45 55
f 1 55 54
f 1 54 53
f 1 53 67
f 1 67 75
f 1 75 86
f 1 86 95
f 1 95 84
f 1 84 83
f 1 83 94
f 1 94 93
f 1 93 97
f 1 97 88
f 1 88 78
f 1 78 76
f 1 76 68
f 1 68 57
f 1 57 56
f 1 56 47
f 1 47 39
f 1 39 31
f 1 31 21
f 1 21 19
f 1 19 11
f 1 11 5
f 1 5 2
f 2 5 6
f 2 6 7
f 2 7 3
f 3 7 8
f 4 9 17
f 4 17 10
f 5 11 12
f 5 12 13
f 5 13 6
f 6 13 14
f 6 14 7
f 7 14 15
f 7 15 8
f 9 16 23
f 9 23 22
f 9 22 33
f 9 33 41
f 9 41 50
f 9 50 61
f 9 61 60
f 9 60 59
f 9 59 70
f 9 70 77
f 9 77 87
f 9 87 96
f 9 96 90
f 9 90 79
f 9 79 73
f 9 73 72
f 9 72 71
f 9 71 62
f 9 62 52
f 9 52 44
f 9 44 43
f 9 43 35
f 9 35 28
f 9 28 17
f 10 17 28
f 10 28 34
f 10 34 30
f 10 30 18
f 11 19 20
f 11 20 12
f 12 20 19
f 12 19 21
f 12 21 22
f 12 22 23
f 12 23 13
f 13 23 24
f 13 24 14
f 14 24 25
f 14 25 15
f 16 26 24
f 16 24 27
f 16 27 23
f 18 30 36
f 18 36 29
f 21 31 32
f 21 32 22
f 22 32 33
f 23 27 24
f 24 26 25
f 28 35 42
f 28 42 34
f 29 36 35
f 29 35 37
f 29 37 38
f 30 34 42
f 30 42 36
f 31 39 40
f 31 40 32
f 32 40 33
f 33 40 41
f 35 36 42
f 35 43 37
f 37 44 45
f 37 45 46
f 37 46 38
f 37 43 44
f 39 47 48
f 39 48 40
f 40 48 41
f 41 49 50
f 41 48 51
f 41 51 49
f 44 52 53
f 44 53 54
f 44 54 55
f 44 55 45
f 47 56 48
f 48 56 57
f 48 57 58
f 48 58 59
f 48 59 51
f 49 59 60
f 49 60 61
f 49 61 50
f 49 51 59
f 52 62 63
f 52 63 64
f 52 64 53
f 53 64 65
f 53 65 66
f 53 66 67
f 57 68 58
f 58 68 69
f 58 69 70
f 58 70 59
f 62 71 63
f 63 71 65
f 63 65 64
f 65 71 72
f 65 72 66
f 66 72 73
f 66 73 74
f 66 74 75
f 66 75 67
f 68 76 70
f 68 70 69
f 70 76 78
f 70 78 77
f 73 79 80
f 73 80 81
f 73 81 82
f 73 82 83
f 73 83 84
f 73 84 85
f 73 85 86
f 73 86 75
f 73 75 74
f 77 78 87
f 78 88 89
f 78 89 87
f 79 90 80
f 80 90 91
f 80 91 92
f 80 92 81
f 81 92 82
f 82 92 93
f 82 93 94
f 82 94 83
f 84 95 85
f 85 95 86
f 87 89 96
f 88 97 89
f 89 97 98
f 89 98 93
f 89 93 92
f 89 92 96
f 90 96 91
f 91 96 92
f 93 98 97
