v -0.124868 0.673824 -0.133668
v -4.73822e-05 0.664926 -0.183176
v -0.124868 0.678639 -0.133715
v -0.124868 0.435547 -0.133668
v -4.73822e-05 0.678639 -0.183414
v -4.73822e-05 0.435547 -0.183176
v -0.124868 0.683882 -0.134174
v -0.124868 0.435547 -0.215238
v -0.124868 0.686629 -0.135123
v -4.73822e-05 0.689276 -0.187811
v -4.73822e-05 0.435547 -0.248866
v -0.120311 0.435547 -0.21799
v -0.124868 0.67874 -0.266423
v -0.124868 0.687915 -0.137543
v -4.73822e-05 0.693057 -0.198804
v -0.124868 0.690234 -0.144266
v -4.73822e-05 0.678639 -0.295242
v -0.00686511 0.435547 -0.248866
v -0.116218 0.435547 -0.219999
v -0.124868 0.685268 -0.265806
v -0.109693 0.68552 -0.274205
v -0.109693 0.68547 -0.274205
v -0.124868 0.693057 -0.163057
v -0.124868 0.692654 -0.157679
v -0.124868 0.691872 -0.149343
v -4.73822e-05 0.693057 -0.281054
v -0.00686511 0.678639 -0.295242
v -4.73822e-05 0.684008 -0.293692
v -0.0195231 0.435547 -0.247252
v -0.0205739 0.678639 -0.293676
v -0.103132 0.435547 -0.22544
v -0.124868 0.688293 -0.264699
v -0.069923 0.685999 -0.288219
v -0.102826 0.687058 -0.275629
v -0.069923 0.683983 -0.288219
v -0.0891054 0.678639 -0.281022
v -0.0761298 0.435547 -0.23656
v -0.124868 0.693057 -0.239929
v -4.73822e-05 0.689276 -0.292158
v -0.00686511 0.693057 -0.281054
v -0.0617001 0.686831 -0.28882
v -0.0479914 0.687864 -0.289722
v -0.0342826 0.688621 -0.290639
v -0.0205739 0.6891 -0.291478
v -0.00686511 0.689276 -0.292158
v -0.0474293 0.435547 -0.243551
v -0.0617001 0.681084 -0.28882
v -0.0342826 0.678639 -0.291921
v -0.0891054 0.688948 -0.278286
v -0.124868 0.690713 -0.258609
v -0.0748591 0.679118 -0.285831
v -0.0617001 0.435547 -0.241163
v -0.0649135 0.435547 -0.240198
v -0.102826 0.693057 -0.253627
v -0.116535 0.693032 -0.253627
v -0.124868 0.693032 -0.245307
v -0.0205739 0.692881 -0.281054
v -0.0753967 0.693057 -0.26734
v -0.0748591 0.688822 -0.281813
v -0.0617001 0.690612 -0.281054
v -0.0479914 0.691645 -0.281054
v -0.0342826 0.692402 -0.281054
v -0.102826 0.690839 -0.26734
v -0.0891054 0.692704 -0.26734
v -0.124868 0.692376 -0.253627
f 1 2 3
f 1 3 7
f 1 7 9
f 1 9 14
f 1 14 16
f 1 16 25
f 1 25 24
f 1 24 23
f 1 23 38
f 1 38 56
f 1 56 65
f 1 65 50
f 1 50 32
f 1 32 20
f 1 20 13
f 1 13 8
f 1 8 4
f 1 4 6
f 1 6 2
f 2 5 3
f 2 6 11
f 2 11 17
f 2 17 28
f 2 28 39
f 2 39 26
f 2 26 15
f 2 15 10
f 2 10 5
f 3 5 7
f 4 8 12
f 4 12 19
f 4 19 31
f 4 31 37
f 4 37 53
f 4 53 52
f 4 52 46
f 4 46 29
f 4 29 18
f 4 18 11
f 4 11 6
f 5 9 7
f 5 10 9
f 8 13 12
f 9 10 14
f 10 15 16
f 10 16 14
f 11 18 27
f 11 27 17
f 12 13 19
f 13 20 21
f 13 21 22
f 13 22 19
f 15 23 24
f 15 24 25
f 15 25 16
f 15 26 40
f 15 40 58
f 15 58 54
f 15 54 38
f 15 38 23
f 17 27 28
f 18 29 30
f 18 30 27
f 19 22 31
f 20 32 21
f 21 33 35
f 21 35 22
f 21 32 34
f 21 34 33
f 22 35 36
f 22 36 37
f 22 37 31
f 26 39 45
f 26 45 40
f 27 30 35
f 27 35 33
f 27 33 41
f 27 41 42
f 27 42 43
f 27 43 44
f 27 44 45
f 27 45 28
f 28 45 39
f 29 46 47
f 29 47 48
f 29 48 30
f 30 48 47
f 30 47 35
f 32 49 34
f 32 50 49
f 33 34 49
f 33 49 41
f 35 51 36
f 35 47 46
f 35 46 52
f 35 52 51
f 36 51 37
f 37 51 53
f 38 54 55
f 38 55 56
f 40 45 57
f 40 57 58
f 41 49 59
f 41 59 60
f 41 60 42
f 42 60 43
f 43 60 61
f 43 61 44
f 44 61 62
f 44 62 57
f 44 57 45
f 49 50 63
f 49 63 64
f 49 64 60
f 49 60 59
f 50 65 63
f 51 52 53
f 54 58 55
f 55 64 65
f 55 65 56
f 55 58 64
f 57 62 64
f 57 64 58
f 60 64 61
f 61 64 62
f 63 65 64
