v 0.00686749 0.678639 0.295257
v 0.0205694 0.678639 0.293672
v 0.0699194 0.683983 0.288217
v 0.0699194 0.685999 0.288217
v 0.0617008 0.686831 0.288821
v 0.0479988 0.687864 0.289736
v 0.0342841 0.688621 0.290634
v 0.0205694 0.6891 0.291484
v 0.00686749 0.689276 0.29217
v -3.46033e-05 0.683932 0.293721
v -3.46033e-05 0.678639 0.295257
v 0.00686749 0.435547 0.248854
v 0.0342841 0.678639 0.291925
v 0.0617008 0.681084 0.288821
v 0.0195213 0.435547 0.247253
v 0.0748531 0.679118 0.285832
v 0.0891046 0.678639 0.28103
v 0.109696 0.68547 0.274203
v 0.0474364 0.435547 0.243545
v 0.0617008 0.435547 0.241161
v 0.109696 0.68552 0.274203
v 0.102819 0.687058 0.275624
v 0.0891046 0.688948 0.278286
v 0.0748531 0.688822 0.281814
v 0.0617008 0.690612 0.281047
v 0.0479988 0.691645 0.281047
v 0.0342841 0.692402 0.281047
v 0.0205694 0.692881 0.281047
v 0.00686749 0.693057 0.281047
v -3.46033e-05 0.689276 0.29217
v -3.46033e-05 0.435547 0.248854
v 0.0649345 0.435547 0.240197
v 0.0761313 0.435547 0.236555
v 0.13053 0.677983 0.263913
v 0.103126 0.435547 0.225448
v 0.116227 0.435547 0.219992
v 0.13053 0.688117 0.263031
v 0.130236 0.688167 0.263096
v 0.130236 0.691948 0.253639
v 0.0891046 0.692704 0.267343
v 0.0754027 0.693057 0.267343
v -3.46033e-05 0.693057 0.281047
v -3.46033e-05 0.435547 0.183177
v 0.120305 0.435547 0.217983
v 0.121417 0.435547 0.217314
v 0.129686 0.435547 0.212299
v 0.13053 0.435547 0.211679
v 0.13053 0.688192 0.2629
v 0.13053 0.691897 0.253639
v 0.13053 0.691973 0.253345
v 0.116534 0.693032 0.253639
v 0.13053 0.693057 0.239919
v -3.46033e-05 0.693057 0.198808
v 0.13053 0.435547 0.128411
v -3.46033e-05 0.664926 0.183177
v 0.13053 0.693057 0.157403
v 0.13053 0.691771 0.143961
v 0.13053 0.691721 0.143683
v -3.46033e-05 0.689276 0.187799
v 0.13053 0.664926 0.128411
v -3.46033e-05 0.678639 0.183406
v 0.13053 0.678639 0.128509
v 0.13053 0.677051 0.128493
v 0.13053 0.690788 0.141004
v 0.13053 0.687688 0.132119
v 0.13053 0.687512 0.131776
f 1 2 3
f 1 3 4
f 1 4 5
f 1 5 6
f 1 6 7
f 1 7 8
f 1 8 9
f 1 9 10
f 1 10 11
f 1 11 31
f 1 31 12
f 1 12 2
f 2 13 14
f 2 14 3
f 2 12 15
f 2 15 13
f 3 16 17
f 3 17 18
f 3 18 21
f 3 21 4
f 3 14 19
f 3 19 20
f 3 20 16
f 4 21 22
f 4 22 23
f 4 23 5
f 5 23 24
f 5 24 6
f 6 24 25
f 6 25 7
f 7 25 26
f 7 26 8
f 8 26 27
f 8 27 28
f 8 28 9
f 9 28 29
f 9 29 42
f 9 42 30
f 9 30 10
f 10 30 42
f 10 42 53
f 10 53 59
f 10 59 61
f 10 61 55
f 10 55 43
f 10 43 31
f 10 31 11
f 12 31 43
f 12 43 54
f 12 54 47
f 12 47 46
f 12 46 45
f 12 45 44
f 12 44 36
f 12 36 35
f 12 35 33
f 12 33 32
f 12 32 20
f 12 20 19
f 12 19 15
f 13 15 14
f 14 15 19
f 16 20 32
f 16 32 33
f 16 33 17
f 17 33 18
f 18 34 21
f 18 33 35
f 18 35 36
f 18 36 34
f 21 37 22
f 21 34 37
f 22 37 38
f 22 38 23
f 23 38 39
f 23 39 40
f 23 40 25
f 23 25 24
f 25 40 26
f 26 40 27
f 27 40 28
f 28 40 41
f 28 41 29
f 29 41 52
f 29 52 56
f 29 56 53
f 29 53 42
f 34 36 44
f 34 44 45
f 34 45 46
f 34 46 47
f 34 47 54
f 34 54 60
f 34 60 63
f 34 63 62
f 34 62 66
f 34 66 65
f 34 65 64
f 34 64 58
f 34 58 57
f 34 57 56
f 34 56 52
f 34 52 50
f 34 50 49
f 34 49 48
f 34 48 37
f 37 48 38
f 38 48 49
f 38 49 39
f 39 49 50
f 39 50 51
f 39 51 40
f 40 51 41
f 41 51 52
f 43 55 60
f 43 60 54
f 50 52 51
f 53 56 57
f 53 57 58
f 53 58 59
f 55 61 62
f 55 62 63
f 55 63 60
f 58 64 59
f 59 65 66
f 59 66 61
f 59 64 65
f 61 66 62
