v -0.198807 0.693057 -0.0423333
v -0.267339 0.693057 -0.0423333
v -0.189471 0.690788 -0.0423333
v -0.124868 0.691872 -0.149344
v -0.124868 0.692654 -0.157658
v -0.124868 0.693057 -0.163033
v -0.267339 0.693057 -0.0754149
v -0.273022 0.69278 -0.0423333
v -0.184893 0.689402 -0.0423333
v -0.124868 0.690234 -0.144255
v -0.124868 0.693057 -0.239924
v -0.239916 0.693057 -0.143969
v -0.253636 0.693032 -0.116548
v -0.267339 0.692704 -0.0891258
v -0.281059 0.691948 -0.0423333
v -0.178674 0.67874 -0.0423333
v -0.177002 0.687083 -0.0510424
v -0.124868 0.686629 -0.135129
v -0.124868 0.687915 -0.137564
v -0.124868 0.693032 -0.245298
v -0.143962 0.693057 -0.239924
v -0.185104 0.693057 -0.198791
v -0.198807 0.692981 -0.198791
v -0.21251 0.692553 -0.18508
v -0.226213 0.691872 -0.171369
v -0.253636 0.691948 -0.130258
v -0.281059 0.690612 -0.061704
v -0.281059 0.691645 -0.0479931
v -0.278282 0.688948 -0.0891258
v -0.28502 0.690385 -0.0423333
v -0.178658 0.678639 -0.0423333
v -0.124868 0.683882 -0.134185
v -0.124868 0.692376 -0.253635
v -0.130258 0.691948 -0.253635
v -0.171384 0.691872 -0.226213
v -0.185104 0.692553 -0.212502
v -0.157681 0.693057 -0.226213
v -0.198904 0.689579 -0.212897
v -0.212883 0.689579 -0.198879
v -0.241085 0.690032 -0.158821
v -0.254188 0.68915 -0.143706
v -0.263102 0.688167 -0.130258
v -0.281822 0.688822 -0.0748665
v -0.288819 0.686831 -0.061704
v -0.289729 0.687864 -0.0479931
v -0.290102 0.688192 -0.0423333
v -0.275636 0.687058 -0.102837
v -0.288219 0.685999 -0.0699305
v -0.124868 0.678639 -0.133703
v -0.178512 0.665254 -0.0423333
v -0.124868 0.690713 -0.258614
v -0.124868 0.688293 -0.264691
v -0.130258 0.688167 -0.26309
v -0.143718 0.68915 -0.254183
v -0.158834 0.690032 -0.241086
v -0.155051 0.688016 -0.249993
v -0.194391 0.68736 -0.221211
v -0.208581 0.687915 -0.208575
v -0.221229 0.68736 -0.19436
v -0.249983 0.688016 -0.155026
v -0.261283 0.686579 -0.138968
v -0.290719 0.677958 -0.0423333
v -0.274207 0.68552 -0.109703
v -0.288219 0.683983 -0.0699305
v -0.124868 0.673824 -0.133681
v -0.178512 0.435547 -0.0423333
v -0.124868 0.685268 -0.26581
v -0.138977 0.686579 -0.261269
v -0.179291 0.686453 -0.233869
v -0.201291 0.678639 -0.21599
v -0.209149 0.678639 -0.209145
v -0.216001 0.678639 -0.20127
v -0.233877 0.686453 -0.179267
v -0.250713 0.678639 -0.155991
v -0.261283 0.681941 -0.138968
v -0.288819 0.681084 -0.061704
v -0.244122 0.435547 -0.0430133
v -0.244203 0.435547 -0.0423333
v -0.274207 0.68547 -0.109703
v -0.281026 0.678639 -0.0891258
v -0.285832 0.679118 -0.0748665
v -0.241167 0.435547 -0.061704
v -0.241784 0.435547 -0.0580404
v -0.243537 0.435547 -0.0474447
v -0.124868 0.435547 -0.133681
v -0.124868 0.67874 -0.266402
v -0.138977 0.681941 -0.261269
v -0.156009 0.678639 -0.250717
v -0.179291 0.682395 -0.233869
v -0.170426 0.435547 -0.181504
v -0.176287 0.435547 -0.176261
v -0.176775 0.435547 -0.175735
v -0.181515 0.435547 -0.170404
v -0.233877 0.682395 -0.179267
v -0.25802 0.677883 -0.143706
v -0.201242 0.435547 -0.144671
v -0.207526 0.435547 -0.136379
v -0.212315 0.435547 -0.12971
v -0.217982 0.435547 -0.120321
v -0.221554 0.435547 -0.112643
v -0.236556 0.435547 -0.0761388
v -0.124868 0.435547 -0.215222
v -0.143718 0.677883 -0.258022
v -0.129706 0.435547 -0.212304
v -0.139854 0.435547 -0.204933
v -0.153817 0.435547 -0.19425
v -0.183707 0.435547 -0.167552
v -0.194261 0.435547 -0.153819
f 1 2 8
f 1 8 15
f 1 15 30
f 1 30 46
f 1 46 62
f 1 62 78
f 1 78 66
f 1 66 50
f 1 50 31
f 1 31 16
f 1 16 9
f 1 9 3
f 1 3 4
f 1 4 5
f 1 5 6
f 1 6 11
f 1 11 21
f 1 21 37
f 1 37 22
f 1 22 12
f 1 12 7
f 1 7 2
f 2 7 8
f 3 9 4
f 4 9 10
f 4 10 19
f 4 19 18
f 4 18 32
f 4 32 49
f 4 49 65
f 4 65 85
f 4 85 102
f 4 102 86
f 4 86 67
f 4 67 52
f 4 52 51
f 4 51 33
f 4 33 20
f 4 20 11
f 4 11 6
f 4 6 5
f 7 12 13
f 7 13 14
f 7 14 15
f 7 15 8
f 9 16 17
f 9 17 18
f 9 18 19
f 9 19 10
f 11 20 21
f 12 22 23
f 12 23 24
f 12 24 25
f 12 25 26
f 12 26 13
f 13 26 14
f 14 27 28
f 14 28 15
f 14 26 29
f 14 29 27
f 15 28 30
f 16 31 32
f 16 32 18
f 16 18 17
f 20 33 21
f 21 33 34
f 21 34 35
f 21 35 36
f 21 36 23
f 21 23 37
f 22 37 23
f 23 36 38
f 23 38 39
f 23 39 24
f 24 39 25
f 25 39 40
f 25 40 26
f 26 40 41
f 26 41 42
f 26 42 29
f 27 30 28
f 27 29 43
f 27 43 44
f 27 44 45
f 27 45 46
f 27 46 30
f 29 42 47
f 29 47 48
f 29 48 44
f 29 44 43
f 31 49 32
f 31 50 49
f 33 51 34
f 34 51 52
f 34 52 53
f 34 53 54
f 34 54 55
f 34 55 35
f 35 55 38
f 35 38 36
f 38 55 56
f 38 56 57
f 38 57 58
f 38 58 39
f 39 58 59
f 39 59 60
f 39 60 40
f 40 60 41
f 41 60 61
f 41 61 42
f 42 61 47
f 44 48 62
f 44 62 45
f 45 62 46
f 47 61 63
f 47 63 48
f 48 63 79
f 48 79 64
f 48 64 62
f 49 50 65
f 50 66 85
f 50 85 65
f 52 67 68
f 52 68 53
f 53 68 54
f 54 68 56
f 54 56 55
f 56 68 69
f 56 69 57
f 57 69 70
f 57 70 71
f 57 71 58
f 58 71 59
f 59 71 72
f 59 72 73
f 59 73 60
f 60 73 61
f 61 73 74
f 61 74 75
f 61 75 79
f 61 79 63
f 62 64 76
f 62 76 77
f 62 77 78
f 64 79 80
f 64 80 81
f 64 81 82
f 64 82 83
f 64 83 84
f 64 84 76
f 66 78 77
f 66 77 84
f 66 84 83
f 66 83 82
f 66 82 101
f 66 101 100
f 66 100 99
f 66 99 98
f 66 98 97
f 66 97 96
f 66 96 108
f 66 108 107
f 66 107 93
f 66 93 92
f 66 92 91
f 66 91 90
f 66 90 106
f 66 106 105
f 66 105 104
f 66 104 102
f 66 102 85
f 67 86 68
f 68 86 87
f 68 87 88
f 68 88 69
f 69 89 70
f 69 88 89
f 70 89 90
f 70 90 71
f 71 90 91
f 71 91 92
f 71 92 93
f 71 93 72
f 72 94 73
f 72 93 94
f 73 94 74
f 74 95 75
f 74 94 96
f 74 96 97
f 74 97 98
f 74 98 95
f 75 95 99
f 75 99 100
f 75 100 79
f 76 84 77
f 79 100 101
f 79 101 80
f 80 101 81
f 81 101 82
f 86 102 87
f 87 103 88
f 87 102 103
f 88 103 104
f 88 104 105
f 88 105 89
f 89 105 106
f 89 106 90
f 93 107 94
f 94 107 108
f 94 108 96
f 95 98 99
f 102 104 103
