v 0.13053 0.677983 0.263889
v 0.1313 0.677883 0.263572
v 0.138966 0.681941 0.261277
v 0.138966 0.686579 0.261277
v 0.13053 0.688117 0.263035
v 0.13053 0.435547 0.211653
v 0.143713 0.677883 0.258006
v 0.155998 0.678639 0.250708
v 0.179285 0.686453 0.233866
v 0.155052 0.688016 0.249976
v 0.143713 0.68915 0.254174
v 0.13053 0.688192 0.262913
v 0.13053 0.435547 0.128417
v 0.139848 0.435547 0.204916
v 0.179285 0.682395 0.233866
v 0.194393 0.68736 0.221221
v 0.201289 0.678639 0.215998
v 0.198899 0.689579 0.212873
v 0.158837 0.690032 0.241091
v 0.13053 0.691897 0.253637
v 0.182445 0.435547 0.0145712
v 0.13053 0.664926 0.128417
v 0.147274 0.435547 0.199253
v 0.153817 0.435547 0.194249
v 0.155661 0.435547 0.192833
v 0.160681 0.435547 0.188977
v 0.170416 0.435547 0.181483
v 0.209164 0.678639 0.209139
v 0.208586 0.687915 0.208577
v 0.212884 0.689579 0.198887
v 0.198803 0.692981 0.198789
v 0.185091 0.692553 0.212507
v 0.171394 0.691872 0.226201
v 0.13053 0.691973 0.253344
v 0.247863 0.435547 0.0145712
v 0.182445 0.664926 0.0145712
v 0.13053 0.677051 0.12849
v 0.172613 0.435547 0.17953
v 0.215996 0.678639 0.201279
v 0.221224 0.68736 0.194371
v 0.176286 0.435547 0.176259
v 0.176783 0.435547 0.175722
v 0.181514 0.435547 0.170401
v 0.241079 0.690032 0.158831
v 0.226212 0.691872 0.171377
v 0.2125 0.692553 0.185071
v 0.24998 0.688016 0.155023
v 0.239924 0.693057 0.143941
v 0.171394 0.693057 0.212507
v 0.14397 0.693057 0.239919
v 0.13053 0.693057 0.239919
v 0.294357 0.678639 0.0145712
v 0.293667 0.678639 0.0205759
v 0.247799 0.435547 0.0150838
v 0.13053 0.678639 0.128514
v 0.182797 0.678639 0.0145712
v 0.233878 0.682395 0.179262
v 0.233878 0.686453 0.179262
v 0.183712 0.435547 0.167545
v 0.253637 0.691948 0.130272
v 0.254182 0.68915 0.143697
v 0.261287 0.686579 0.138962
v 0.253637 0.693032 0.116554
v 0.267349 0.693057 0.0754239
v 0.13053 0.693057 0.157366
v 0.291775 0.689175 0.0145712
v 0.29147 0.6891 0.0205759
v 0.290636 0.688621 0.034294
v 0.289722 0.687864 0.0479877
v 0.288824 0.686831 0.0617058
v 0.288214 0.685999 0.0699318
v 0.288214 0.683983 0.0699318
v 0.288824 0.681084 0.0617058
v 0.291919 0.678639 0.034294
v 0.243549 0.435547 0.0474507
v 0.13053 0.687512 0.131761
v 0.187545 0.689276 0.0145712
v 0.250718 0.678639 0.155975
v 0.194264 0.435547 0.153803
v 0.201241 0.435547 0.144649
v 0.267349 0.692704 0.0891176
v 0.263099 0.688167 0.130272
v 0.278287 0.688948 0.0891176
v 0.274197 0.68552 0.109719
v 0.275625 0.687058 0.102836
v 0.261287 0.681941 0.138962
v 0.281061 0.692881 0.0205759
v 0.281061 0.692956 0.0145712
v 0.273363 0.693057 0.0145712
v 0.198803 0.693057 0.0145712
v 0.13053 0.691771 0.143941
v 0.285937 0.691293 0.0145712
v 0.281061 0.692402 0.034294
v 0.281061 0.691645 0.0479877
v 0.281061 0.690612 0.0617058
v 0.281815 0.688822 0.0748625
v 0.274197 0.68547 0.109719
v 0.281029 0.678639 0.0891176
v 0.285841 0.679118 0.0748625
v 0.241175 0.435547 0.0617058
v 0.13053 0.687688 0.132127
v 0.13053 0.690788 0.140988
v 0.13053 0.691721 0.143673
v 0.19242 0.69094 0.0145712
v 0.258015 0.677883 0.143697
v 0.207528 0.435547 0.136374
v 0.212323 0.435547 0.129711
v 0.217985 0.435547 0.120313
v 0.220743 0.435547 0.114381
v 0.221545 0.435547 0.112648
v 0.236556 0.435547 0.0761562
v 0.214985 0.435547 0.125292
f 1 2 3
f 1 3 4
f 1 4 5
f 1 5 12
f 1 12 20
f 1 20 34
f 1 34 51
f 1 51 65
f 1 65 91
f 1 91 103
f 1 103 102
f 1 102 101
f 1 101 76
f 1 76 55
f 1 55 37
f 1 37 22
f 1 22 13
f 1 13 6
f 1 6 2
f 2 6 3
f 3 7 8
f 3 8 4
f 3 6 7
f 4 8 9
f 4 9 10
f 4 10 11
f 4 11 12
f 4 12 5
f 6 13 21
f 6 21 35
f 6 35 54
f 6 54 75
f 6 75 100
f 6 100 111
f 6 111 110
f 6 110 109
f 6 109 108
f 6 108 112
f 6 112 107
f 6 107 106
f 6 106 80
f 6 80 79
f 6 79 59
f 6 59 43
f 6 43 42
f 6 42 41
f 6 41 38
f 6 38 27
f 6 27 26
f 6 26 25
f 6 25 24
f 6 24 23
f 6 23 14
f 6 14 8
f 6 8 7
f 8 15 9
f 8 14 15
f 9 16 10
f 9 15 17
f 9 17 16
f 10 16 18
f 10 18 19
f 10 19 11
f 11 19 20
f 11 20 12
f 13 22 36
f 13 36 21
f 14 23 15
f 15 23 24
f 15 24 25
f 15 25 26
f 15 26 27
f 15 27 17
f 16 17 28
f 16 28 29
f 16 29 18
f 17 27 28
f 18 30 31
f 18 31 32
f 18 32 33
f 18 33 19
f 18 29 30
f 19 33 20
f 20 33 34
f 21 36 56
f 21 56 77
f 21 77 104
f 21 104 90
f 21 90 89
f 21 89 88
f 21 88 92
f 21 92 66
f 21 66 52
f 21 52 35
f 22 37 36
f 27 38 28
f 28 39 40
f 28 40 29
f 28 38 41
f 28 41 42
f 28 42 43
f 28 43 39
f 29 40 30
f 30 44 45
f 30 45 46
f 30 46 31
f 30 40 47
f 30 47 44
f 31 46 48
f 31 48 49
f 31 49 50
f 31 50 32
f 32 50 33
f 33 50 34
f 34 50 51
f 35 52 53
f 35 53 54
f 36 37 55
f 36 55 56
f 39 57 58
f 39 58 40
f 39 43 57
f 40 58 47
f 43 59 57
f 44 60 45
f 44 47 61
f 44 61 60
f 45 60 48
f 45 48 46
f 47 58 62
f 47 62 61
f 48 60 63
f 48 63 64
f 48 64 89
f 48 89 90
f 48 90 65
f 48 65 51
f 48 51 50
f 48 50 49
f 52 66 67
f 52 67 68
f 52 68 69
f 52 69 70
f 52 70 71
f 52 71 72
f 52 72 53
f 53 72 73
f 53 73 74
f 53 74 54
f 54 74 73
f 54 73 75
f 55 76 56
f 56 76 77
f 57 78 58
f 57 59 79
f 57 79 80
f 57 80 78
f 58 78 62
f 60 81 63
f 60 61 82
f 60 82 83
f 60 83 81
f 61 62 82
f 62 84 85
f 62 85 82
f 62 78 86
f 62 86 97
f 62 97 84
f 63 81 64
f 64 81 87
f 64 87 88
f 64 88 89
f 65 90 91
f 66 92 87
f 66 87 67
f 67 87 93
f 67 93 94
f 67 94 68
f 68 94 95
f 68 95 69
f 69 95 70
f 70 95 96
f 70 96 83
f 70 83 71
f 71 83 85
f 71 85 84
f 71 84 97
f 71 97 72
f 72 97 98
f 72 98 99
f 72 99 100
f 72 100 75
f 72 75 73
f 76 101 77
f 77 102 103
f 77 103 91
f 77 91 104
f 77 101 102
f 78 105 86
f 78 80 106
f 78 106 107
f 78 107 105
f 81 95 94
f 81 94 93
f 81 93 87
f 81 83 95
f 82 85 83
f 83 96 95
f 86 105 108
f 86 108 109
f 86 109 110
f 86 110 97
f 87 92 88
f 90 104 91
f 97 110 111
f 97 111 98
f 98 111 99
f 99 111 100
f 105 107 112
f 105 112 108
