v 0.0179479 0.0570587 0.362765
v 0.0179479 0.16435 0.323088
v 0.00684278 0.0570587 0.364249
v 0.0179479 0.0570587 0.182861
v 0.00630471 0.16435 0.324571
v 0.0179479 0.16435 0.182861
v -0.00686298 0.0570587 0.364273
v -0.134744 0.0570587 0.12371
v -0.00632491 0.16435 0.324571
v -0.134744 0.16435 0.12371
v -0.0802344 0.0570587 0.354736
v -0.0138877 0.16435 0.323606
v -0.134744 0.0570587 0.336204
v -0.134744 0.16435 0.293441
v -0.0899644 0.0570587 0.353229
v -0.0205687 0.16435 0.322734
v -0.0342894 0.16435 0.320945
v -0.0772301 0.16435 0.31527
v -0.0798458 0.16435 0.314917
v -0.13422 0.0570587 0.336439
v -0.112608 0.16435 0.302601
v -0.0950461 0.0570587 0.351675
v -0.080339 0.163615 0.315058
v -0.0893367 0.16435 0.311973
v -0.121815 0.0570587 0.341525
v -0.103027 0.16435 0.306557
v -0.102818 0.0570587 0.349296
v -0.0961372 0.16435 0.309312
f 1 2 3
f 1 3 7
f 1 7 11
f 1 11 15
f 1 15 22
f 1 22 27
f 1 27 25
f 1 25 20
f 1 20 13
f 1 13 8
f 1 8 4
f 1 4 6
f 1 6 2
f 2 5 3
f 2 6 10
f 2 10 14
f 2 14 21
f 2 21 26
f 2 26 28
f 2 28 24
f 2 24 19
f 2 19 18
f 2 18 17
f 2 17 16
f 2 16 12
f 2 12 9
f 2 9 5
f 3 5 7
f 4 8 10
f 4 10 6
f 5 9 7
f 7 9 12
f 7 12 11
f 8 13 14
f 8 14 10
f 11 12 16
f 11 16 17
f 11 17 18
f 11 18 19
f 11 19 15
f 13 20 14
f 14 20 21
f 15 19 23
f 15 23 22
f 19 24 23
f 20 25 26
f 20 26 21
f 22 23 27
f 23 24 27
f 24 28 27
f 25 27 26
f 26 27 28
