v -0.0063122 0.16435 0.324592
v -0.0205794 0.16435 0.322747
v 0.00630936 0.16435 0.324574
v 0.00186931 0.247652 0.301857
v -0.00188767 0.247652 0.301857
v -0.00685556 0.435547 0.248849
v -0.0150681 0.435547 0.247795
v -0.0711898 0.165784 0.315684
v -0.0552615 0.16435 0.318179
v -0.0474215 0.435547 0.243543
v 0.0135904 0.16435 0.323643
v 0.00685273 0.171385 0.322554
v 0.00685273 0.435547 0.248849
v 0.00339073 0.344281 0.274624
v -0.00340908 0.344281 0.274624
v -0.0772289 0.16435 0.31528
v -0.0720592 0.16435 0.315965
v -0.0580249 0.435547 0.241786
v -0.0644366 0.368225 0.259918
v -0.0685506 0.315319 0.274202
v -0.0798526 0.16435 0.314929
v 0.020561 0.16435 0.322747
v 0.0195053 0.435547 0.247251
v -0.0616887 0.435547 0.241171
v -0.068473 0.411257 0.246759
v -0.0831904 0.206957 0.301997
v -0.0893382 0.16435 0.311977
v 0.0405879 0.16435 0.320112
v 0.0469064 0.435467 0.243614
v 0.035946 0.435547 0.244879
v 0.0469064 0.17104 0.317406
v -0.0761267 0.435547 0.236551
v -0.103031 0.16435 0.306566
v -0.096138 0.16435 0.309306
v -0.111694 0.435547 0.22195
v 0.0469064 0.16435 0.319268
v 0.0469064 0.435547 0.241593
v -0.109458 0.16435 0.303913
v -0.111694 0.435547 0.145101
v -0.111694 0.166315 0.302402
v 0.0469064 0.16435 0.177025
v 0.0469064 0.435547 0.177025
v -0.111694 0.165067 0.302771
v -0.111694 0.16435 0.302981
v -0.111694 0.16435 0.145101
f 1 2 9
f 1 9 17
f 1 17 16
f 1 16 21
f 1 21 27
f 1 27 34
f 1 34 33
f 1 33 38
f 1 38 44
f 1 44 45
f 1 45 41
f 1 41 36
f 1 36 28
f 1 28 22
f 1 22 11
f 1 11 3
f 1 3 4
f 1 4 5
f 1 5 6
f 1 6 7
f 1 7 2
f 2 8 9
f 2 7 10
f 2 10 8
f 3 11 12
f 3 12 4
f 4 12 13
f 4 13 14
f 4 14 15
f 4 15 5
f 5 15 6
f 6 15 14
f 6 14 13
f 6 13 23
f 6 23 30
f 6 30 37
f 6 37 42
f 6 42 39
f 6 39 35
f 6 35 32
f 6 32 24
f 6 24 18
f 6 18 10
f 6 10 7
f 8 16 17
f 8 17 9
f 8 10 16
f 10 18 19
f 10 19 20
f 10 20 21
f 10 21 16
f 11 22 12
f 12 22 23
f 12 23 13
f 18 24 19
f 19 24 25
f 19 25 20
f 20 25 21
f 21 26 27
f 21 25 26
f 22 28 23
f 23 29 30
f 23 28 31
f 23 31 29
f 24 32 25
f 25 32 26
f 26 33 34
f 26 34 27
f 26 32 35
f 26 35 33
f 28 36 31
f 29 37 30
f 29 31 36
f 29 36 41
f 29 41 42
f 29 42 37
f 33 35 38
f 35 39 45
f 35 45 44
f 35 44 43
f 35 43 40
f 35 40 38
f 38 40 43
f 38 43 44
f 39 42 41
f 39 41 45
