v 0.140817 0.664926 -0.11683
v 0.140817 0.678639 -0.116935
v -3.36022e-05 0.664926 -0.183182
v 0.140817 0.435547 -0.11683
v 0.140817 0.687285 -0.119886
v -3.36022e-05 0.678639 -0.183426
v -3.36022e-05 0.435547 -0.183182
v 0.140817 0.435547 -0.203983
v 0.140817 0.690738 -0.130558
v -3.36022e-05 0.693057 -0.198813
v -3.36022e-05 0.689276 -0.18781
v -3.36022e-05 0.435547 -0.248852
v 0.136364 0.435547 -0.207511
v 0.140817 0.680353 -0.259995
v 0.140817 0.692654 -0.143971
v 0.130242 0.693057 -0.157682
v -3.36022e-05 0.693057 -0.281059
v 0.00686072 0.435547 -0.248852
v -3.36022e-05 0.678639 -0.295258
v 0.12969 0.435547 -0.212314
v 0.138956 0.681941 -0.26127
v 0.140817 0.683176 -0.259995
v 0.1203 0.435547 -0.21799
v 0.140817 0.693057 -0.157682
v 0.00686072 0.693057 -0.281059
v -3.36022e-05 0.689276 -0.292167
v 0.00686072 0.678639 -0.295241
v 0.0205666 0.678639 -0.293669
v 0.0342863 0.678639 -0.291922
v 0.0150788 0.435547 -0.247787
v -3.36022e-05 0.684008 -0.293704
v 0.00686072 0.689276 -0.292167
v 0.109696 0.68547 -0.274212
v 0.138956 0.686579 -0.26127
v 0.112633 0.435547 -0.221553
v 0.140817 0.687587 -0.258493
v 0.140817 0.693057 -0.239927
v 0.0754041 0.693057 -0.267348
v 0.0205666 0.692881 -0.281059
v 0.0205666 0.6891 -0.291468
v 0.0342863 0.688621 -0.29063
v 0.0479923 0.687864 -0.289722
v 0.0616982 0.686831 -0.288831
v 0.06993 0.685999 -0.288219
v 0.06993 0.683983 -0.288219
v 0.0616982 0.681084 -0.288831
v 0.0474407 0.435547 -0.243543
v 0.08911 0.678639 -0.281024
v 0.109696 0.68552 -0.274212
v 0.0761349 0.435547 -0.236556
v 0.102816 0.687058 -0.275627
v 0.130242 0.688167 -0.263087
v 0.140817 0.689755 -0.254074
v 0.130242 0.691948 -0.253638
v 0.116536 0.693032 -0.253638
v 0.08911 0.692704 -0.267348
v 0.0342863 0.692402 -0.281059
v 0.0479923 0.691645 -0.281059
v 0.0616982 0.690612 -0.281059
v 0.0748525 0.688822 -0.28181
v 0.08911 0.688948 -0.278282
v 0.0748525 0.679118 -0.285827
v 0.0616982 0.435547 -0.241167
v 0.0580304 0.435547 -0.241779
f 1 2 3
f 1 3 7
f 1 7 4
f 1 4 8
f 1 8 14
f 1 14 22
f 1 22 36
f 1 36 53
f 1 53 37
f 1 37 24
f 1 24 15
f 1 15 9
f 1 9 5
f 1 5 2
f 2 5 6
f 2 6 3
f 3 6 11
f 3 11 10
f 3 10 17
f 3 17 26
f 3 26 31
f 3 31 19
f 3 19 12
f 3 12 7
f 4 7 12
f 4 12 18
f 4 18 30
f 4 30 47
f 4 47 64
f 4 64 63
f 4 63 50
f 4 50 35
f 4 35 23
f 4 23 20
f 4 20 13
f 4 13 8
f 5 9 10
f 5 10 11
f 5 11 6
f 8 13 14
f 9 15 10
f 10 16 24
f 10 24 37
f 10 37 38
f 10 38 25
f 10 25 17
f 10 15 16
f 12 19 18
f 13 20 14
f 14 21 34
f 14 34 22
f 14 20 23
f 14 23 21
f 15 24 16
f 17 25 32
f 17 32 26
f 18 19 27
f 18 27 28
f 18 28 29
f 18 29 30
f 19 31 32
f 19 32 27
f 21 33 49
f 21 49 34
f 21 23 35
f 21 35 33
f 22 34 36
f 25 38 39
f 25 39 32
f 26 32 31
f 27 32 40
f 27 40 41
f 27 41 42
f 27 42 43
f 27 43 44
f 27 44 45
f 27 45 28
f 28 45 46
f 28 46 29
f 29 46 30
f 30 46 47
f 32 39 40
f 33 48 45
f 33 45 44
f 33 44 49
f 33 35 50
f 33 50 48
f 34 49 51
f 34 51 52
f 34 52 36
f 36 52 53
f 37 53 54
f 37 54 55
f 37 55 38
f 38 55 56
f 38 56 39
f 39 56 57
f 39 57 40
f 40 57 58
f 40 58 41
f 41 58 59
f 41 59 42
f 42 59 43
f 43 59 60
f 43 60 61
f 43 61 44
f 44 61 51
f 44 51 49
f 45 48 62
f 45 62 63
f 45 63 64
f 45 64 47
f 45 47 46
f 48 50 62
f 50 63 62
f 51 61 52
f 52 61 54
f 52 54 53
f 54 56 55
f 54 61 56
f 56 59 58
f 56 58 57
f 56 61 59
f 59 61 60
