v 0.0469314 0.16435 -0.319282
v 0.0617127 0.16435 -0.317335
v 0.0469314 0.16435 -0.177063
v 0.0469314 0.435547 -0.243618
v 0.067074 0.16435 -0.316625
v 0.144838 0.16435 -0.112069
v 0.0469314 0.435547 -0.177063
v 0.0474325 0.435547 -0.243537
v 0.0644434 0.368225 -0.259928
v 0.0685772 0.315319 -0.274188
v 0.079876 0.16435 -0.314921
v 0.302847 0.16435 -0.112069
v 0.144838 0.435547 -0.112069
v 0.0580299 0.435547 -0.241793
v 0.0617127 0.435547 -0.241164
v 0.068502 0.411257 -0.246763
v 0.0832081 0.206957 -0.301979
v 0.0893461 0.16435 -0.311979
v 0.293402 0.16435 -0.134849
v 0.301895 0.167536 -0.112069
v 0.221701 0.435547 -0.112069
v 0.0761432 0.435547 -0.236559
v 0.0956594 0.191507 -0.301492
v 0.10305 0.16435 -0.306563
v 0.0961604 0.16435 -0.309302
v 0.290195 0.16435 -0.142578
v 0.219997 0.435547 -0.116248
v 0.112645 0.435547 -0.221548
v 0.109489 0.16435 -0.303906
v 0.287339 0.16435 -0.149455
v 0.219546 0.425618 -0.123713
v 0.217993 0.435547 -0.120325
v 0.274262 0.205869 -0.150935
v 0.260959 0.248396 -0.151544
v 0.120337 0.435547 -0.217978
v 0.123719 0.425618 -0.21954
v 0.137347 0.315743 -0.246904
v 0.150951 0.205869 -0.274269
v 0.149473 0.16435 -0.287353
v 0.116228 0.171465 -0.298997
v 0.115126 0.16435 -0.301573
v 0.283531 0.16435 -0.157711
v 0.23345 0.357687 -0.137669
v 0.212306 0.435547 -0.129697
v 0.217316 0.435547 -0.121441
v 0.274663 0.179614 -0.165155
v 0.129706 0.435547 -0.212318
v 0.137673 0.357687 -0.233455
v 0.151552 0.248396 -0.260962
v 0.157715 0.16435 -0.283539
v 0.152705 0.16435 -0.285872
v 0.281101 0.16435 -0.162052
v 0.204915 0.435547 -0.13986
v 0.27604 0.171385 -0.167022
v 0.276792 0.16435 -0.169212
v 0.272057 0.16435 -0.17548
v 0.269602 0.16435 -0.178685
v 0.249885 0.16435 -0.204407
v 0.194243 0.435547 -0.153836
v 0.199253 0.435547 -0.147284
v 0.136395 0.435547 -0.207531
v 0.165156 0.179614 -0.274655
v 0.169215 0.16435 -0.276785
v 0.16701 0.171385 -0.276034
v 0.245501 0.16435 -0.210107
v 0.181491 0.435547 -0.170429
v 0.19284 0.435547 -0.155662
v 0.144688 0.435547 -0.201243
v 0.17167 0.185694 -0.267555
v 0.173023 0.16435 -0.273945
v 0.153832 0.435547 -0.194264
v 0.23573 0.16435 -0.222785
v 0.234503 0.171385 -0.221203
v 0.233225 0.178685 -0.21956
v 0.205642 0.287923 -0.205665
v 0.178409 0.425539 -0.178422
v 0.17628 0.435547 -0.176292
v 0.219245 0.219115 -0.219236
v 0.204063 0.16435 -0.25013
v 0.167586 0.435547 -0.183716
v 0.229642 0.16435 -0.229642
v 0.170417 0.435547 -0.181525
v 0.22631 0.16435 -0.232786
v 0.222778 0.16435 -0.235727
v 0.213558 0.16435 -0.242827
v 0.218068 0.16435 -0.239358
f 1 2 5
f 1 5 11
f 1 11 18
f 1 18 25
f 1 25 24
f 1 24 29
f 1 29 41
f 1 41 39
f 1 39 51
f 1 51 50
f 1 50 63
f 1 63 70
f 1 70 79
f 1 79 85
f 1 85 86
f 1 86 84
f 1 84 83
f 1 83 81
f 1 81 72
f 1 72 65
f 1 65 58
f 1 58 57
f 1 57 56
f 1 56 55
f 1 55 52
f 1 52 42
f 1 42 30
f 1 30 26
f 1 26 19
f 1 19 12
f 1 12 6
f 1 6 3
f 1 3 7
f 1 7 4
f 1 4 2
f 2 4 5
f 3 6 13
f 3 13 7
f 4 7 13
f 4 13 21
f 4 21 27
f 4 27 32
f 4 32 45
f 4 45 44
f 4 44 53
f 4 53 60
f 4 60 59
f 4 59 67
f 4 67 66
f 4 66 77
f 4 77 82
f 4 82 80
f 4 80 71
f 4 71 68
f 4 68 61
f 4 61 47
f 4 47 35
f 4 35 28
f 4 28 22
f 4 22 15
f 4 15 14
f 4 14 8
f 4 8 9
f 4 9 10
f 4 10 11
f 4 11 5
f 6 12 20
f 6 20 21
f 6 21 13
f 8 14 9
f 9 14 15
f 9 15 16
f 9 16 10
f 10 16 11
f 11 17 18
f 11 16 17
f 12 19 20
f 15 22 16
f 16 22 17
f 17 23 24
f 17 24 25
f 17 25 18
f 17 22 23
f 19 26 27
f 19 27 20
f 20 27 21
f 22 28 23
f 23 28 24
f 24 28 29
f 26 30 27
f 27 31 32
f 27 30 33
f 27 33 34
f 27 34 31
f 28 35 36
f 28 36 37
f 28 37 38
f 28 38 39
f 28 39 40
f 28 40 29
f 29 40 41
f 30 42 33
f 31 43 44
f 31 44 45
f 31 45 32
f 31 34 43
f 33 42 34
f 34 42 46
f 34 46 43
f 35 47 36
f 36 47 48
f 36 48 49
f 36 49 37
f 37 49 38
f 38 49 50
f 38 50 51
f 38 51 39
f 39 41 40
f 42 52 46
f 43 53 44
f 43 46 53
f 46 52 54
f 46 54 55
f 46 55 56
f 46 56 57
f 46 57 58
f 46 58 59
f 46 59 60
f 46 60 53
f 47 61 48
f 48 61 49
f 49 62 50
f 49 61 62
f 50 62 64
f 50 64 63
f 52 55 54
f 58 65 66
f 58 66 67
f 58 67 59
f 61 68 62
f 62 69 70
f 62 70 63
f 62 63 64
f 62 68 71
f 62 71 69
f 65 72 73
f 65 73 74
f 65 74 66
f 66 75 76
f 66 76 77
f 66 74 73
f 66 73 78
f 66 78 75
f 69 79 70
f 69 71 80
f 69 80 79
f 72 81 78
f 72 78 73
f 75 82 76
f 75 78 82
f 76 82 77
f 78 81 83
f 78 83 84
f 78 84 82
f 79 80 85
f 80 82 84
f 80 84 86
f 80 86 85
