v 0.138227 0.0570587 0.12059
v 0.341969 0.0570587 0.12059
v 0.138227 0.164351 0.12059
v 0.183188 0.164351 -5.21475e-05
v 0.183188 0.0570587 -4.0339e-05
v 0.299309 0.164351 0.12059
v 0.349315 0.0570587 0.102805
v 0.221644 0.435547 0.112489
v 0.144533 0.435547 0.112489
v 0.183188 0.435547 -5.21475e-05
v 0.324577 0.164351 -5.21475e-05
v 0.364273 0.0570587 -4.0339e-05
v 0.353231 0.0570587 0.0899568
v 0.241182 0.435547 0.0616858
v 0.236558 0.435547 0.0761284
v 0.248882 0.435547 -5.21475e-05
v 0.301831 0.247636 -5.21475e-05
v 0.364228 0.0570587 0.00686799
v 0.274615 0.344259 -5.21475e-05
v 0.248882 0.435547 0.00685618
v 0.355356 0.0570587 0.0753962
v 0.24355 0.435547 0.0474323
v 0.241802 0.435547 0.058025
v 0.363609 0.0570587 0.0118987
f 1 2 6
f 1 6 3
f 1 3 10
f 1 10 4
f 1 4 5
f 1 5 12
f 1 12 18
f 1 18 24
f 1 24 21
f 1 21 13
f 1 13 7
f 1 7 2
f 2 7 8
f 2 8 6
f 3 6 8
f 3 8 9
f 3 9 10
f 4 10 16
f 4 16 19
f 4 19 17
f 4 17 11
f 4 11 12
f 4 12 5
f 7 13 14
f 7 14 15
f 7 15 8
f 8 15 14
f 8 14 23
f 8 23 22
f 8 22 20
f 8 20 16
f 8 16 10
f 8 10 9
f 11 17 12
f 12 17 19
f 12 19 16
f 12 16 20
f 12 20 18
f 13 21 22
f 13 22 23
f 13 23 14
f 18 20 24
f 20 22 21
f 20 21 24
