v -0.136613 0.435547 -0.122612
v 0.0469064 0.435547 -0.177061
v -0.136613 0.435547 -0.207153
v -0.136613 0.16435 -0.122612
v 0.0469064 0.435547 -0.24361
v 0.0469064 0.16435 -0.177061
v -0.129679 0.435547 -0.212333
v -0.136613 0.39878 -0.219885
v -0.136613 0.16435 -0.292662
v 0.0429903 0.435547 -0.244124
v 0.0469064 0.172022 -0.317138
v 0.0275772 0.16435 -0.321824
v 0.0469064 0.16435 -0.319274
v -0.121415 0.435547 -0.217335
v -0.123697 0.425618 -0.219569
v -0.136613 0.358403 -0.233745
v -0.10302 0.16435 -0.306581
v -0.136613 0.166766 -0.29195
v 0.0150564 0.435547 -0.247782
v 0.0138708 0.16435 -0.323604
v 0.0205533 0.171385 -0.320776
v -0.120302 0.435547 -0.218007
v -0.116224 0.435547 -0.220004
v -0.136613 0.316248 -0.24705
v -0.0831882 0.206957 -0.301994
v -0.0893319 0.16435 -0.311978
v -0.103128 0.435547 -0.225441
v -0.0761284 0.435547 -0.236552
v -0.136613 0.222434 -0.275244
v 0.00684688 0.435547 -0.24885
v 0.00630797 0.16435 -0.324572
v 0.00684688 0.171385 -0.322556
v -0.136613 0.315 -0.247426
v -0.136613 0.272924 -0.260079
v -0.0798469 0.16435 -0.314924
v -0.0811583 0.16435 -0.314588
v -0.0684758 0.411257 -0.246774
v -0.0649189 0.435547 -0.24019
v 0.00339781 0.344281 -0.274631
v -0.00685958 0.435547 -0.24885
v 0.00187088 0.247652 -0.301856
v -0.00632066 0.16435 -0.324572
v -0.0711883 0.165784 -0.315675
v -0.0568352 0.16435 -0.317969
v -0.0685476 0.315319 -0.274196
v -0.0474221 0.435547 -0.243551
v -0.0616854 0.435547 -0.241159
v -0.0644339 0.368225 -0.259921
v -0.00341051 0.344281 -0.274631
v -0.0195241 0.435547 -0.247248
v -0.00188358 0.247652 -0.301856
v -0.00685958 0.171385 -0.322556
v -0.013596 0.16435 -0.323643
v -0.0616854 0.174889 -0.31439
v -0.0616854 0.168014 -0.316308
v -0.0272486 0.16435 -0.321864
v -0.0342905 0.171385 -0.318977
v -0.020566 0.171385 -0.320776
f 1 2 5
f 1 5 10
f 1 10 19
f 1 19 30
f 1 30 40
f 1 40 50
f 1 50 46
f 1 46 47
f 1 47 38
f 1 38 28
f 1 28 27
f 1 27 23
f 1 23 22
f 1 22 14
f 1 14 7
f 1 7 3
f 1 3 8
f 1 8 16
f 1 16 24
f 1 24 33
f 1 33 34
f 1 34 29
f 1 29 18
f 1 18 9
f 1 9 4
f 1 4 6
f 1 6 2
f 2 6 13
f 2 13 11
f 2 11 5
f 3 7 8
f 4 9 17
f 4 17 26
f 4 26 36
f 4 36 35
f 4 35 44
f 4 44 56
f 4 56 53
f 4 53 42
f 4 42 31
f 4 31 20
f 4 20 12
f 4 12 13
f 4 13 6
f 5 11 12
f 5 12 10
f 7 14 15
f 7 15 16
f 7 16 8
f 9 18 17
f 10 12 19
f 11 13 12
f 12 20 32
f 12 32 21
f 12 21 19
f 14 22 15
f 15 22 23
f 15 23 24
f 15 24 16
f 17 25 26
f 17 18 27
f 17 27 28
f 17 28 25
f 18 29 23
f 18 23 27
f 19 21 30
f 20 31 32
f 21 32 30
f 23 33 24
f 23 29 34
f 23 34 33
f 25 35 36
f 25 36 26
f 25 28 37
f 25 37 35
f 28 38 37
f 30 39 49
f 30 49 40
f 30 32 41
f 30 41 39
f 31 41 32
f 31 42 51
f 31 51 41
f 35 43 44
f 35 37 45
f 35 45 46
f 35 46 43
f 37 38 47
f 37 47 48
f 37 48 45
f 39 41 51
f 39 51 49
f 40 49 51
f 40 51 52
f 40 52 50
f 42 53 52
f 42 52 51
f 43 54 55
f 43 55 44
f 43 46 50
f 43 50 54
f 44 55 50
f 44 50 57
f 44 57 56
f 45 48 46
f 46 48 47
f 50 52 53
f 50 53 58
f 50 58 56
f 50 56 57
f 50 55 54
f 53 56 58
