v -0.436824 -0.0490849 0.0994059
v -0.436183 -0.0490849 0.104266
v -0.436098 -0.0477757 0.0994059
v -0.176943 -0.0490849 0.0994059
v -0.433875 -0.0490849 0.115423
v -0.427077 -0.0379988 0.116552
v -0.428531 -0.0357754 0.102828
v -0.430454 -0.0382274 0.0994059
v -0.153601 -0.0490433 0.0994059
v -0.15343 -0.0490849 0.0998166
v -0.433575 -0.0490849 0.116552
v -0.432934 -0.0479835 0.116552
v -0.425709 -0.0400976 0.125074
v -0.422289 -0.0311414 0.116552
v -0.411473 -0.0134786 0.110152
v -0.423914 -0.028918 0.102828
v -0.428573 -0.0351624 0.0994059
v -0.154072 0.0570587 0.0994059
v -0.0001264 0.0570587 0.183188
v -0.0001264 -0.0490849 0.182983
v -0.429642 -0.0490849 0.128018
v -0.412756 -0.0389755 0.154405
v -0.396553 -0.0287725 0.175761
v -0.409464 -0.0298427 0.146431
v -0.420023 -0.0350273 0.1299
v -0.412798 -0.0254893 0.130277
v -0.428958 -0.0490849 0.130003
v -0.423785 -0.0432042 0.134212
v -0.410875 -0.0418431 0.163543
v -0.397964 -0.0405755 0.192839
v -0.398905 0.00518176 0.0994059
v -0.41096 -0.0107356 0.0994059
v -0.411986 -0.0127513 0.102828
v -0.417758 -0.0205645 0.102828
v -0.409635 -0.0157955 0.11929
v -0.398734 0.00148294 0.112548
v -0.394672 0.00995074 0.102828
v -0.394971 0.0103248 0.0994059
v -0.420109 -0.0230892 0.0994059
v -0.424127 -0.0286063 0.0994059
v -0.35034 0.0570587 0.0994059
v -0.0001264 0.0570587 0.364271
v -0.0001264 -0.0490849 0.449046
v -0.399546 -0.0383001 0.185105
v -0.38702 -0.0366793 0.212519
v -0.3836 -0.0277439 0.205058
v -0.385524 -0.0253543 0.19592
v -0.411345 -0.0273283 0.137293
v -0.407369 -0.018632 0.130277
v -0.39309 0.00636621 0.116895
v -0.391124 -0.0200762 0.172305
v -0.422546 -0.0490849 0.145507
v -0.416005 -0.047038 0.158444
v -0.394159 -0.0481913 0.212793
v -0.39604 -0.0437652 0.201977
v -0.385011 -0.0394326 0.221246
v -0.385609 0.0157587 0.116552
v -0.387832 0.0183978 0.102828
v -0.389841 0.0166626 0.0994059
v -0.351238 0.0561963 0.0994059
v -0.349314 0.0570587 0.102828
v -0.0001264 0.0322579 0.388639
v -0.006881 0.0570587 0.364271
v -0.00632524 -0.0490849 0.449046
v -0.0001264 -0.036565 0.441688
v -0.38189 -0.0298219 0.212519
v -0.37086 -0.0128344 0.207009
v -0.367184 -0.00375358 0.198829
v -0.398605 -0.0124292 0.139586
v -0.3951 -0.00314058 0.130277
v -0.384113 0.013982 0.123945
v -0.356368 0.0135768 0.19171
v -0.417245 -0.0490849 0.158307
v -0.394672 -0.0490849 0.212793
v -0.394458 -0.0490849 0.213306
v -0.400786 -0.0490849 0.198042
v -0.388388 -0.0490849 0.225182
v -0.387533 -0.0483472 0.225969
v -0.387148 -0.0490849 0.227304
v -0.383643 -0.0490849 0.232711
v -0.381933 -0.0440146 0.230384
v -0.372784 -0.0379261 0.23651
v -0.377144 -0.034113 0.22638
v -0.372356 -0.0249387 0.222375
v -0.358078 0.002044 0.208172
v -0.371159 0.0149171 0.153276
v -0.358249 0.0158107 0.182572
v -0.373083 0.0170886 0.143967
v -0.379367 0.0226161 0.116552
v -0.381804 0.0252551 0.102828
v -0.386678 0.0204757 0.0994059
v -0.388131 0.0187718 0.0994059
v -0.354529 0.0530274 0.0994059
v -0.338883 0.0570587 0.128394
v -0.354016 0.0525287 0.102828
v -0.372527 0.0296604 0.116552
v -0.006881 0.0322579 0.388639
v -0.0001264 0.0251408 0.395484
v -0.0119256 0.0570587 0.363621
v -0.020604 -0.0490849 0.447198
v -0.006881 -0.036565 0.441688
v -0.020604 -0.0378741 0.440798
v -0.0342842 -0.0392456 0.439908
v -0.054035 -0.041334 0.438608
v -0.0001264 -0.0331779 0.439429
v -0.360301 0.00485967 0.198829
v -0.354615 0.011717 0.198829
v -0.343029 0.0277071 0.192531
v -0.352392 0.020455 0.186337
v -0.387918 -0.0490849 0.226037
v -0.379025 -0.0490849 0.238769
v -0.377144 -0.0477965 0.240104
v -0.369278 -0.0424457 0.245648
v -0.356624 -0.0408976 0.260741
v -0.34397 -0.0395573 0.2758
v -0.331316 -0.0382897 0.290893
v -0.335719 -0.0343519 0.280866
v -0.340122 -0.0304245 0.270838
v -0.368936 -0.0287829 0.231513
v -0.36402 -0.0197956 0.227167
v -0.354871 -0.00171716 0.21731
v -0.349912 0.00719741 0.212964
v -0.344996 0.0159769 0.208617
v -0.354316 0.0252136 0.171381
v -0.366842 0.023946 0.143967
v -0.370775 0.0280188 0.124938
v -0.368894 0.0261486 0.134076
v -0.374921 0.0321332 0.102828
v -0.373596 0.0342424 0.0994059
v -0.375306 0.0325281 0.0994059
v -0.382146 0.0256291 0.0994059
v -0.359488 0.0482377 0.0994059
v -0.326784 0.0570587 0.157691
v -0.36107 0.0456713 0.102828
v -0.355983 0.0269487 0.163406
v -0.36791 0.0389906 0.102828
v -0.020604 0.031354 0.38775
v -0.006881 0.0251408 0.395484
v -0.0001264 0.0182835 0.401303
v -0.0802411 0.0570587 0.354723
v -0.103754 -0.0490849 0.436246
v -0.0342842 -0.0479835 0.444802
v -0.006881 -0.0297076 0.437067
v -0.020604 -0.0310168 0.436178
v -0.102856 -0.0357754 0.428545
v -0.0891333 -0.0456146 0.43628
v -0.104267 -0.0490849 0.436178
v -0.0001264 -0.0297076 0.437067
v -0.346962 0.0205485 0.197768
v -0.344611 0.0291929 0.185105
v -0.340165 0.02512 0.201669
v -0.328879 0.0410166 0.19171
v -0.316652 0.0570587 0.180416
v -0.320885 0.0570587 0.171381
v -0.37552 -0.0490849 0.243355
v -0.354145 -0.0490849 0.271214
v -0.336275 -0.0490849 0.294487
v -0.32781 -0.0429132 0.300031
v -0.315113 -0.0413651 0.31509
v -0.318662 -0.0370741 0.305952
v -0.314857 -0.0279413 0.30099
v -0.356282 -0.0275881 0.246607
v -0.331016 -0.0252815 0.276759
v -0.339438 -0.0172917 0.25619
v -0.300065 0.0120183 0.272207
v -0.337301 0.00837147 0.228057
v -0.34149 0.0123612 0.217755
v -0.336275 0.0210368 0.212998
v -0.328836 0.0135145 0.232848
v -0.303571 0.0156756 0.263069
v -0.072204 0.0279045 0.384361
v -0.020604 0.0241122 0.394594
v -0.006881 0.0182835 0.401303
v -0.0891333 0.0267409 0.383232
v -0.0001264 0.0138262 0.404793
v -0.0899883 0.0570587 0.353251
v -0.0891333 0.0337229 0.376387
v -0.00311894 -0.0131669 0.425397
v -0.00735126 -0.0193385 0.429435
v -0.020604 -0.0215515 0.429333
v -0.0342842 -0.0227776 0.428443
v -0.0754103 -0.0264348 0.425739
v -0.0836612 -0.0271725 0.425191
v -0.102856 -0.028918 0.423925
v -0.116579 -0.0379988 0.427074
v -0.116579 -0.0490849 0.433576
v -0.116579 -0.0479835 0.43296
v -0.0001264 -0.0131669 0.425397
v -0.327511 0.0260967 0.217413
v -0.331016 0.0290267 0.208275
v -0.326186 0.0388244 0.198829
v -0.302844 0.0570587 0.200266
v -0.311864 0.0570587 0.188185
v -0.313574 0.0570587 0.185652
v -0.315968 0.0570587 0.181614
v -0.329905 -0.0490849 0.302769
v -0.32486 -0.0490849 0.309306
v -0.317764 -0.0490849 0.31776
v -0.310411 -0.0490849 0.324023
v -0.309598 -0.0467056 0.32303
v -0.300022 -0.0429132 0.327822
v -0.260692 -0.0408976 0.356639
v -0.290916 -0.0382897 0.331347
v -0.305965 -0.0370741 0.318684
v -0.301006 -0.0279413 0.314851
v -0.301433 -0.013863 0.301435
v -0.324005 -0.0490849 0.310402
v -0.318362 -0.0241282 0.291852
v -0.326784 -0.0161384 0.271283
v -0.295833 0.00801821 0.28244
v -0.28724 0.0131508 0.287231
v -0.290916 0.016673 0.278093
v -0.286043 0.0258162 0.27183
v -0.298697 0.0248187 0.256737
v -0.0342842 0.0230213 0.393705
v -0.0342842 0.0161743 0.399523
v -0.020604 0.0172549 0.400413
v -0.006881 0.00948319 0.408182
v -0.0891333 0.0198835 0.38905
v -0.102856 0.0252551 0.381794
v -0.102856 0.0183978 0.387818
v -0.0001264 0.00948319 0.408182
v -0.0914845 0.0541911 0.355784
v -0.102856 0.0570587 0.349315
v -0.006881 0.00263623 0.413247
v -0.020604 -0.00684978 0.418483
v -0.0886202 -0.0217801 0.420571
v -0.102856 -0.0127513 0.412015
v -0.110167 -0.0134786 0.411467
v -0.116579 -0.0311414 0.422282
v -0.125087 -0.0400976 0.425705
v -0.117733 -0.0490849 0.4332
v -0.314857 0.0270318 0.232506
v -0.272277 0.0570587 0.240241
v -0.283905 0.0570587 0.225045
v -0.302758 -0.0490849 0.32991
v -0.294507 -0.0482641 0.335694
v -0.284931 -0.0444821 0.340485
v -0.25398 -0.0474017 0.366222
v -0.245601 -0.0424457 0.369268
v -0.236452 -0.0379261 0.372793
v -0.270781 -0.0304245 0.340143
v -0.23145 -0.0287829 0.368926
v -0.246541 -0.0275881 0.356297
v -0.276766 -0.0252815 0.331005
v -0.286812 -0.000906741 0.300784
v -0.282452 0.00801821 0.295856
v -0.272149 0.0120183 0.300066
v -0.278091 0.016673 0.290928
v -0.271807 0.0258162 0.286068
v -0.276937 0.0296189 0.27693
v -0.280442 0.0337645 0.26656
v -0.289548 0.0287773 0.262692
v -0.0480071 0.0150418 0.398633
v -0.0578398 0.014221 0.397983
v -0.020604 0.00827796 0.407292
v -0.0891333 0.0114469 0.395895
v -0.0754103 0.0126625 0.396819
v -0.102856 0.00995074 0.394697
v -0.102856 0.0321332 0.374949
v -0.116579 0.0296604 0.372519
v -0.116579 0.0226161 0.379399
v -0.116579 0.0157587 0.385628
v -0.112561 0.00148294 0.398736
v -0.102856 0.0525287 0.354004
v -0.102856 0.0456713 0.361088
v -0.102856 0.0389906 0.367933
v -0.134235 0.0570587 0.336447
v -0.0617301 -0.00222626 0.409653
v -0.0891333 0.00458953 0.400994
v -0.119315 -0.0157955 0.409619
v -0.130259 -0.0254893 0.412836
v -0.115468 -0.0204502 0.414719
v -0.134235 -0.0432042 0.423788
v -0.129917 -0.0478588 0.428306
v -0.130003 -0.0490849 0.428956
v -0.129917 -0.0350273 0.420023
v -0.146419 -0.0298427 0.409482
v -0.154414 -0.0389755 0.412768
v -0.192846 -0.0405755 0.397948
v -0.163519 -0.0418431 0.410885
v -0.259879 0.0544612 0.25992
v -0.263727 0.0570587 0.250953
v -0.280699 -0.0490849 0.346851
v -0.280656 -0.0486277 0.346577
v -0.255818 -0.0490849 0.365948
v -0.240086 -0.0477965 0.37714
v -0.230339 -0.0440146 0.381931
v -0.22119 -0.0394326 0.385012
v -0.22632 -0.034113 0.37714
v -0.222344 -0.0249387 0.372348
v -0.227132 -0.0197956 0.363998
v -0.237435 -0.0237854 0.359788
v -0.271251 -0.0161384 0.326795
v -0.252398 -0.0213437 0.346064
v -0.232391 -0.000563873 0.342231
v -0.21777 0.0123612 0.341512
v -0.247909 0.0146262 0.31622
v -0.263 0.0156756 0.303557
v -0.208621 0.0159769 0.345003
v -0.213025 0.0210368 0.336275
v -0.217385 0.0260967 0.327514
v -0.232476 0.0270318 0.314851
v -0.247567 0.0279045 0.302222
v -0.262658 0.0287773 0.289559
v -0.266548 0.0337645 0.280421
v -0.124958 0.0280188 0.370808
v -0.134064 0.0261486 0.368892
v -0.143982 0.023946 0.366838
v -0.143982 0.0170886 0.373101
v -0.116878 0.00636621 0.393089
v -0.153259 0.0149171 0.371185
v -0.123975 0.013982 0.384087
v -0.164161 0.0570587 0.324057
v -0.137313 -0.0273283 0.411365
v -0.130259 -0.018632 0.407395
v -0.148728 -0.0148085 0.396716
v -0.195924 -0.0253543 0.385525
v -0.132824 -0.0490849 0.427792
v -0.201995 -0.0437548 0.396066
v -0.184168 -0.0490849 0.406539
v -0.143598 -0.0490849 0.423343
v -0.175746 -0.0287725 0.396545
v -0.212512 -0.0366793 0.387031
v -0.185108 -0.0383001 0.399557
v -0.246327 0.0570587 0.267552
v -0.257998 0.0570587 0.258038
v -0.238761 -0.0490849 0.379022
v -0.232647 -0.0490849 0.383643
v -0.226021 -0.0490849 0.387955
v -0.213324 -0.0490849 0.394458
v -0.212768 -0.0481913 0.39415
v -0.212512 -0.0298219 0.381897
v -0.208151 0.002044 0.358077
v -0.212982 0.00719741 0.349931
v -0.2173 -0.00171716 0.354859
v -0.198831 0.011717 0.35462
v -0.197805 0.0205485 0.346954
v -0.201653 0.02512 0.340143
v -0.208279 0.0290267 0.331005
v -0.185108 0.0291929 0.344626
v -0.163391 0.0269487 0.355989
v -0.171386 0.0252136 0.354312
v -0.171386 0.0183562 0.360575
v -0.182586 0.0158107 0.358248
v -0.129233 0.00695844 0.38751
v -0.191735 0.0135768 0.356365
v -0.171386 0.0570587 0.320874
v -0.192504 0.0277071 0.343052
v -0.205073 -0.0277439 0.383608
v -0.189469 -0.00131195 0.369131
v -0.198831 -0.0106109 0.372622
v -0.207168 0.0570587 0.297567
v -0.206997 -0.0128344 0.370842
v -0.198831 0.00485967 0.360335
v -0.191692 0.0410166 0.328883
v -0.198831 0.0388244 0.326213
v -0.186348 0.020455 0.35243
v -0.198831 -0.00375358 0.36718
v -0.173694 0.0570587 0.319813
v -0.180406 0.0570587 0.316665
v -0.192205 0.0570587 0.308861
v -0.181603 0.0570587 0.31598
v -0.188187 0.0570587 0.311873
f 1 2 3
f 1 3 8
f 1 8 17
f 1 17 40
f 1 40 39
f 1 39 32
f 1 32 31
f 1 31 38
f 1 38 59
f 1 59 92
f 1 92 91
f 1 91 131
f 1 131 130
f 1 130 129
f 1 129 132
f 1 132 93
f 1 93 60
f 1 60 41
f 1 41 18
f 1 18 9
f 1 9 4
f 1 4 10
f 1 10 20
f 1 20 43
f 1 43 64
f 1 64 100
f 1 100 141
f 1 141 147
f 1 147 186
f 1 186 232
f 1 232 276
f 1 276 319
f 1 319 322
f 1 322 321
f 1 321 331
f 1 331 330
f 1 330 329
f 1 329 328
f 1 328 286
f 1 286 284
f 1 284 236
f 1 236 199
f 1 199 198
f 1 198 207
f 1 207 197
f 1 197 196
f 1 196 157
f 1 157 156
f 1 156 155
f 1 155 111
f 1 111 80
f 1 80 79
f 1 79 110
f 1 110 77
f 1 77 75
f 1 75 74
f 1 74 76
f 1 76 73
f 1 73 52
f 1 52 27
f 1 27 21
f 1 21 11
f 1 11 5
f 1 5 2
f 2 5 6
f 2 6 7
f 2 7 3
f 3 7 8
f 4 9 10
f 5 11 12
f 5 12 6
f 6 13 14
f 6 14 15
f 6 15 16
f 6 16 7
f 6 12 13
f 7 17 8
f 7 16 17
f 9 18 19
f 9 19 20
f 9 20 10
f 11 21 13
f 11 13 12
f 13 22 23
f 13 23 24
f 13 24 25
f 13 25 26
f 13 26 14
f 13 21 27
f 13 27 28
f 13 28 29
f 13 29 30
f 13 30 22
f 14 26 15
f 15 31 32
f 15 32 33
f 15 33 34
f 15 34 16
f 15 26 35
f 15 35 36
f 15 36 37
f 15 37 38
f 15 38 31
f 16 34 39
f 16 39 40
f 16 40 17
f 18 41 61
f 18 61 94
f 18 94 133
f 18 133 154
f 18 154 153
f 18 153 195
f 18 195 194
f 18 194 193
f 18 193 192
f 18 192 235
f 18 235 234
f 18 234 283
f 18 283 327
f 18 327 326
f 18 326 353
f 18 353 362
f 18 362 364
f 18 364 363
f 18 363 361
f 18 361 360
f 18 360 348
f 18 348 314
f 18 314 268
f 18 268 224
f 18 224 176
f 18 176 140
f 18 140 99
f 18 99 63
f 18 63 42
f 18 42 19
f 19 42 62
f 19 62 98
f 19 98 139
f 19 139 175
f 19 175 222
f 19 222 188
f 19 188 148
f 19 148 105
f 19 105 65
f 19 65 43
f 19 43 20
f 22 30 44
f 22 44 45
f 22 45 23
f 23 45 46
f 23 46 47
f 23 47 48
f 23 48 24
f 24 48 25
f 25 48 26
f 26 49 50
f 26 50 35
f 26 48 47
f 26 47 51
f 26 51 49
f 27 52 53
f 27 53 29
f 27 29 28
f 29 53 54
f 29 54 30
f 30 54 55
f 30 55 56
f 30 56 45
f 30 45 44
f 32 39 33
f 33 39 34
f 35 50 36
f 36 50 57
f 36 57 58
f 36 58 37
f 37 58 59
f 37 59 38
f 41 60 61
f 42 63 97
f 42 97 62
f 43 65 101
f 43 101 64
f 45 56 66
f 45 66 46
f 46 66 67
f 46 67 68
f 46 68 47
f 47 68 51
f 49 69 70
f 49 70 50
f 49 51 69
f 50 71 57
f 50 70 72
f 50 72 71
f 51 70 69
f 51 68 70
f 52 73 53
f 53 73 54
f 54 74 75
f 54 75 56
f 54 56 55
f 54 73 76
f 54 76 74
f 56 75 77
f 56 77 78
f 56 78 79
f 56 79 80
f 56 80 81
f 56 81 82
f 56 82 83
f 56 83 84
f 56 84 85
f 56 85 66
f 57 71 86
f 57 86 87
f 57 87 88
f 57 88 125
f 57 125 89
f 57 89 90
f 57 90 58
f 58 90 91
f 58 91 92
f 58 92 59
f 60 93 61
f 61 93 95
f 61 95 96
f 61 96 94
f 62 97 138
f 62 138 98
f 63 99 97
f 64 101 102
f 64 102 103
f 64 103 104
f 64 104 100
f 65 105 101
f 66 85 67
f 67 85 106
f 67 106 68
f 68 106 72
f 68 72 70
f 71 72 86
f 72 106 107
f 72 107 108
f 72 108 109
f 72 109 87
f 72 87 86
f 77 110 78
f 78 110 79
f 80 111 112
f 80 112 113
f 80 113 81
f 81 113 82
f 82 113 114
f 82 114 115
f 82 115 116
f 82 116 117
f 82 117 118
f 82 118 119
f 82 119 83
f 83 119 84
f 84 119 120
f 84 120 121
f 84 121 122
f 84 122 85
f 85 122 123
f 85 123 107
f 85 107 106
f 87 109 124
f 87 124 125
f 87 125 88
f 89 126 96
f 89 96 90
f 89 125 127
f 89 127 126
f 90 96 128
f 90 128 129
f 90 129 130
f 90 130 131
f 90 131 91
f 93 132 95
f 94 96 133
f 95 132 134
f 95 134 96
f 96 126 135
f 96 135 133
f 96 134 136
f 96 136 128
f 97 99 137
f 97 137 138
f 98 138 173
f 98 173 139
f 99 140 137
f 100 104 142
f 100 142 141
f 101 105 143
f 101 143 144
f 101 144 102
f 102 144 184
f 102 184 145
f 102 145 103
f 103 145 104
f 104 145 146
f 104 146 147
f 104 147 141
f 104 141 142
f 105 148 143
f 107 149 108
f 107 123 149
f 108 133 150
f 108 150 135
f 108 135 124
f 108 124 109
f 108 149 151
f 108 151 152
f 108 152 153
f 108 153 154
f 108 154 133
f 111 155 112
f 112 155 113
f 113 156 157
f 113 157 158
f 113 158 114
f 113 155 156
f 114 158 159
f 114 159 115
f 115 159 116
f 116 159 160
f 116 160 161
f 116 161 117
f 117 161 118
f 118 161 119
f 119 162 120
f 119 161 162
f 120 162 163
f 120 163 164
f 120 164 165
f 120 165 121
f 121 165 166
f 121 166 167
f 121 167 122
f 122 167 123
f 123 168 151
f 123 151 149
f 123 167 169
f 123 169 170
f 123 170 168
f 124 135 127
f 124 127 125
f 126 127 135
f 128 136 132
f 128 132 129
f 132 136 134
f 133 135 150
f 137 140 171
f 137 171 138
f 138 172 217
f 138 217 173
f 138 171 174
f 138 174 172
f 139 173 175
f 140 176 177
f 140 177 174
f 140 174 171
f 143 148 188
f 143 188 178
f 143 178 179
f 143 179 180
f 143 180 181
f 143 181 182
f 143 182 183
f 143 183 184
f 143 184 144
f 145 184 185
f 145 185 147
f 145 147 146
f 147 185 187
f 147 187 186
f 151 168 189
f 151 189 190
f 151 190 152
f 152 190 191
f 152 191 192
f 152 192 193
f 152 193 194
f 152 194 195
f 152 195 153
f 157 196 158
f 158 196 197
f 158 197 159
f 159 198 199
f 159 199 200
f 159 200 201
f 159 201 202
f 159 202 203
f 159 203 204
f 159 204 205
f 159 205 206
f 159 206 161
f 159 161 160
f 159 197 207
f 159 207 198
f 161 208 163
f 161 163 162
f 161 206 165
f 161 165 208
f 163 208 209
f 163 209 164
f 164 209 165
f 165 206 210
f 165 210 211
f 165 211 212
f 165 212 170
f 165 170 169
f 165 169 167
f 165 167 166
f 165 209 208
f 168 170 189
f 170 212 213
f 170 213 214
f 170 214 189
f 172 215 216
f 172 216 217
f 172 174 215
f 173 217 218
f 173 218 175
f 174 219 216
f 174 216 215
f 174 177 220
f 174 220 221
f 174 221 219
f 175 218 222
f 176 223 177
f 176 224 223
f 177 223 220
f 178 218 225
f 178 225 179
f 178 188 222
f 178 222 218
f 179 226 180
f 179 225 226
f 180 226 181
f 181 226 227
f 181 227 182
f 182 227 183
f 183 227 184
f 184 228 229
f 184 229 185
f 184 227 228
f 185 229 230
f 185 230 231
f 185 231 187
f 186 187 232
f 187 231 232
f 189 214 213
f 189 213 233
f 189 233 190
f 190 233 234
f 190 234 235
f 190 235 192
f 190 192 191
f 199 236 201
f 199 201 200
f 201 236 237
f 201 237 238
f 201 238 202
f 202 239 240
f 202 240 241
f 202 241 203
f 202 238 239
f 203 242 205
f 203 205 204
f 203 241 243
f 203 243 242
f 205 242 243
f 205 243 244
f 205 244 245
f 205 245 246
f 205 246 206
f 206 246 247
f 206 247 211
f 206 211 210
f 211 247 248
f 211 248 249
f 211 249 250
f 211 250 251
f 211 251 213
f 211 213 212
f 213 251 252
f 213 252 253
f 213 253 233
f 216 218 217
f 216 219 254
f 216 254 218
f 218 254 255
f 218 255 256
f 218 256 226
f 218 226 225
f 219 257 258
f 219 258 255
f 219 255 254
f 219 221 259
f 219 259 257
f 220 260 261
f 220 261 262
f 220 262 263
f 220 263 221
f 220 223 260
f 221 263 264
f 221 264 259
f 223 224 265
f 223 265 266
f 223 266 267
f 223 267 260
f 224 268 261
f 224 261 265
f 226 256 269
f 226 269 227
f 227 269 228
f 228 269 270
f 228 270 257
f 228 257 229
f 229 259 264
f 229 264 271
f 229 271 272
f 229 272 273
f 229 273 230
f 229 257 259
f 230 273 272
f 230 272 231
f 231 274 275
f 231 275 276
f 231 276 232
f 231 272 277
f 231 277 278
f 231 278 279
f 231 279 280
f 231 280 281
f 231 281 274
f 233 253 234
f 234 253 252
f 234 252 282
f 234 282 283
f 236 284 285
f 236 285 237
f 237 285 238
f 238 285 239
f 239 286 287
f 239 287 240
f 239 285 286
f 240 287 288
f 240 288 241
f 241 288 289
f 241 289 290
f 241 290 243
f 243 290 291
f 243 291 292
f 243 292 293
f 243 293 244
f 244 293 245
f 245 294 246
f 245 293 295
f 245 295 296
f 245 296 294
f 246 294 297
f 246 297 248
f 246 248 247
f 248 297 298
f 248 298 299
f 248 299 249
f 249 299 300
f 249 300 301
f 249 301 250
f 250 301 302
f 250 302 303
f 250 303 304
f 250 304 305
f 250 305 306
f 250 306 282
f 250 282 251
f 251 282 252
f 255 258 270
f 255 270 256
f 256 270 269
f 257 270 258
f 260 267 261
f 261 267 266
f 261 266 265
f 261 268 307
f 261 307 262
f 262 307 308
f 262 308 309
f 262 309 310
f 262 310 263
f 263 311 264
f 263 310 312
f 263 312 313
f 263 313 311
f 264 311 272
f 264 272 271
f 268 314 307
f 272 315 277
f 272 311 316
f 272 316 317
f 272 317 318
f 272 318 315
f 274 281 275
f 275 319 276
f 275 281 320
f 275 320 321
f 275 321 322
f 275 322 319
f 277 315 278
f 278 315 323
f 278 323 324
f 278 324 279
f 279 324 325
f 279 325 280
f 280 325 324
f 280 324 320
f 280 320 281
f 282 306 326
f 282 326 327
f 282 327 283
f 284 286 285
f 286 328 287
f 287 328 288
f 288 329 289
f 288 328 329
f 289 291 290
f 289 329 330
f 289 330 331
f 289 331 332
f 289 332 320
f 289 320 324
f 289 324 333
f 289 333 334
f 289 334 291
f 291 334 335
f 291 335 336
f 291 336 292
f 292 336 293
f 293 336 297
f 293 297 296
f 293 296 295
f 294 296 297
f 297 336 335
f 297 335 300
f 297 300 298
f 298 300 299
f 300 335 334
f 300 334 337
f 300 337 338
f 300 338 339
f 300 339 301
f 301 339 340
f 301 340 302
f 302 340 303
f 303 340 304
f 304 340 326
f 304 326 305
f 305 326 306
f 307 314 341
f 307 341 342
f 307 342 308
f 308 342 343
f 308 343 309
f 309 343 344
f 309 344 310
f 310 344 345
f 310 345 312
f 311 313 346
f 311 346 316
f 312 345 347
f 312 347 313
f 313 347 346
f 314 348 349
f 314 349 341
f 315 318 350
f 315 350 323
f 316 346 317
f 317 351 318
f 317 346 351
f 318 351 352
f 318 352 350
f 320 332 331
f 320 331 321
f 323 350 324
f 324 350 333
f 326 340 353
f 333 350 354
f 333 354 334
f 334 354 355
f 334 355 337
f 337 355 347
f 337 347 349
f 337 349 338
f 338 349 339
f 339 349 356
f 339 356 340
f 340 356 357
f 340 357 353
f 341 349 342
f 342 349 343
f 343 349 358
f 343 358 345
f 343 345 344
f 345 358 347
f 346 347 351
f 347 358 349
f 347 355 359
f 347 359 351
f 348 360 349
f 349 360 361
f 349 361 356
f 350 352 359
f 350 359 355
f 350 355 354
f 351 359 352
f 353 357 362
f 356 361 363
f 356 363 364
f 356 364 362
f 356 362 357
