v 0.0937034 0.0570587 -0.15719
v 0.183178 0.0570587 -5.85421e-05
v 0.0937034 0.16435 -0.15719
v 0.326978 0.0570587 -0.15719
v 0.183178 0.16435 -5.85421e-05
v 0.364246 0.0570587 -5.85421e-05
v 0.283777 0.16435 -0.15719
v 0.287353 0.16435 -0.149453
v 0.304093 0.16435 -0.109032
v 0.338898 0.0570587 -0.128351
v 0.324568 0.16435 -5.85421e-05
v 0.364246 0.0570587 -0.0068569
v 0.306557 0.16435 -0.103018
v 0.349307 0.0570587 -0.102818
v 0.324568 0.16435 -0.00631857
v 0.354737 0.0570587 -0.0802392
v 0.32274 0.16435 -0.0205767
v 0.323641 0.16435 -0.0135937
v 0.311986 0.16435 -0.0893293
v 0.350764 0.0570587 -0.098081
v 0.314582 0.16435 -0.081162
v 0.353625 0.0570587 -0.087745
v 0.314927 0.16435 -0.0798546
v 0.31596 0.16435 -0.0720719
v 0.317973 0.16435 -0.0568602
v 0.321866 0.16435 -0.027252
v 0.353227 0.0570587 -0.0899599
f 1 2 5
f 1 5 3
f 1 3 7
f 1 7 4
f 1 4 10
f 1 10 14
f 1 14 20
f 1 20 27
f 1 27 22
f 1 22 16
f 1 16 12
f 1 12 6
f 1 6 2
f 2 6 11
f 2 11 5
f 3 5 11
f 3 11 15
f 3 15 18
f 3 18 17
f 3 17 26
f 3 26 25
f 3 25 24
f 3 24 23
f 3 23 21
f 3 21 19
f 3 19 13
f 3 13 9
f 3 9 8
f 3 8 7
f 4 7 8
f 4 8 9
f 4 9 10
f 6 12 15
f 6 15 11
f 9 13 10
f 10 13 14
f 12 16 17
f 12 17 18
f 12 18 15
f 13 19 14
f 14 19 21
f 14 21 20
f 16 22 23
f 16 23 24
f 16 24 25
f 16 25 26
f 16 26 17
f 20 21 27
f 21 23 27
f 22 27 23
