v -7.44775e-05 0.693057 0.281059
v -7.44775e-05 0.693057 0.198795
v -0.00687645 0.693057 0.281059
v -7.44775e-05 0.689276 0.292161
v -7.44775e-05 0.689276 0.187807
v -0.171371 0.692704 0.10004
v -0.171371 0.693007 0.10283
v -0.185083 0.693057 0.10004
v -0.0205888 0.692881 0.281059
v -0.00687645 0.689276 0.292161
v -0.0754111 0.693057 0.267338
v -7.44775e-05 0.683932 0.293709
v -7.44775e-05 0.678639 0.183412
v -0.158498 0.688873 0.10004
v -0.253618 0.693057 0.10004
v -0.0343012 0.692402 0.281059
v -0.0205888 0.6891 0.291473
v -0.0891235 0.692704 0.267338
v -0.00687645 0.678639 0.295237
v -0.116548 0.693032 0.253637
v -0.143946 0.693057 0.239917
v -7.44775e-05 0.678639 0.295237
v -7.44775e-05 0.664926 0.183183
v -0.153756 0.678639 0.10004
v -0.153837 0.678916 0.10004
v -0.26733 0.691217 0.10004
v -0.253618 0.693057 0.10283
v -0.0479864 0.691645 0.281059
v -0.0343012 0.688621 0.290632
v -0.0891235 0.688948 0.278288
v -0.0616988 0.690612 0.281059
v -0.130261 0.691948 0.253637
v -0.0479864 0.687864 0.289734
v -0.0616988 0.686831 0.288817
v -0.069937 0.685999 0.288225
v -0.069937 0.683983 0.288225
v -0.0205888 0.678639 0.293671
v -0.00687645 0.435547 0.24886
v -0.157658 0.693057 0.226216
v -0.198795 0.692981 0.198795
v -0.185083 0.692553 0.212496
v -0.171371 0.691872 0.226216
v -7.44775e-05 0.435547 0.24886
v -7.44775e-05 0.435547 0.183183
v -0.153675 0.665204 0.10004
v -0.276164 0.687436 0.10004
v -0.26733 0.690839 0.10283
v -0.253618 0.691948 0.130251
v -0.253618 0.693032 0.11655
v -0.239905 0.693057 0.143971
v -0.102836 0.687058 0.275632
v -0.0748691 0.688822 0.281823
v -0.130261 0.688167 0.263096
v -0.158823 0.690032 0.241083
v -0.143702 0.68915 0.254192
v -0.109719 0.68552 0.274199
v -0.109719 0.68547 0.274199
v -0.0891235 0.678639 0.28102
v -0.0748691 0.679118 0.285836
v -0.0616988 0.435547 0.241159
v -0.0580403 0.435547 0.24179
v -0.0474444 0.435547 0.243548
v -0.0616988 0.681084 0.288817
v -0.0343012 0.678639 0.291932
v -0.0150605 0.435547 0.24779
v -0.212508 0.693057 0.171393
v -0.22622 0.693057 0.157672
v -0.212508 0.692553 0.185094
v -0.212887 0.689579 0.198871
v -0.198877 0.689579 0.212878
v -0.153675 0.435547 0.10004
v -0.276733 0.685344 0.10004
v -0.275622 0.687058 0.10283
v -0.263075 0.688167 0.130251
v -0.254187 0.68915 0.143704
v -0.241071 0.690032 0.158838
v -0.22622 0.691872 0.171393
v -0.13896 0.686579 0.261281
v -0.15503 0.688016 0.249988
v -0.112646 0.435547 0.221554
v -0.103161 0.435547 0.225452
v -0.0761428 0.435547 0.236554
v -0.102755 0.68 0.275861
v -0.13896 0.681941 0.261281
v -0.221207 0.68736 0.194381
v -0.208578 0.687915 0.208579
v -0.249986 0.688016 0.155055
v -0.194351 0.68736 0.221229
v -0.226708 0.435547 0.10004
v -0.276896 0.679723 0.10004
v -0.274186 0.68552 0.109709
v -0.261287 0.686579 0.138965
v -0.179257 0.686453 0.233879
v -0.155978 0.678639 0.250714
v -0.11438 0.435547 0.220751
v -0.143702 0.677883 0.258013
v -0.120315 0.435547 0.21798
v -0.216003 0.678639 0.201279
v -0.209147 0.678639 0.209133
v -0.233862 0.686453 0.179285
v -0.201261 0.678639 0.215993
v -0.225434 0.435547 0.103155
v -0.274186 0.68547 0.109709
v -0.261287 0.681941 0.138965
v -0.250718 0.678639 0.15601
v -0.179257 0.682395 0.233879
v -0.15381 0.435547 0.194266
v -0.136385 0.435547 0.207508
v -0.129719 0.435547 0.212305
v -0.233862 0.682395 0.179285
v -0.181506 0.435547 0.170418
v -0.176276 0.435547 0.176284
v -0.175734 0.435547 0.176781
v -0.170395 0.435547 0.18152
v -0.16755 0.435547 0.183718
v -0.219987 0.435547 0.116244
v -0.258008 0.677883 0.143704
v -0.217982 0.435547 0.120314
v -0.217304 0.435547 0.121442
v -0.212291 0.435547 0.129697
v -0.20492 0.435547 0.139844
v -0.199256 0.435547 0.147277
v -0.194243 0.435547 0.153832
f 1 2 8
f 1 8 15
f 1 15 27
f 1 27 50
f 1 50 67
f 1 67 66
f 1 66 39
f 1 39 21
f 1 21 11
f 1 11 3
f 1 3 10
f 1 10 4
f 1 4 12
f 1 12 22
f 1 22 43
f 1 43 44
f 1 44 23
f 1 23 13
f 1 13 5
f 1 5 2
f 2 5 6
f 2 6 7
f 2 7 8
f 3 9 10
f 3 11 9
f 4 10 12
f 5 13 14
f 5 14 6
f 6 14 25
f 6 25 24
f 6 24 45
f 6 45 71
f 6 71 89
f 6 89 90
f 6 90 72
f 6 72 46
f 6 46 26
f 6 26 15
f 6 15 8
f 6 8 7
f 9 16 17
f 9 17 10
f 9 11 18
f 9 18 16
f 10 17 19
f 10 19 12
f 11 20 18
f 11 21 20
f 12 19 22
f 13 23 24
f 13 24 25
f 13 25 14
f 15 26 27
f 16 28 17
f 16 18 28
f 17 28 29
f 17 29 19
f 18 30 31
f 18 31 28
f 18 20 32
f 18 32 30
f 19 29 33
f 19 33 34
f 19 34 35
f 19 35 36
f 19 36 37
f 19 37 38
f 19 38 43
f 19 43 22
f 20 21 32
f 21 39 40
f 21 40 41
f 21 41 42
f 21 42 32
f 23 44 71
f 23 71 45
f 23 45 24
f 26 46 47
f 26 47 48
f 26 48 49
f 26 49 27
f 27 49 50
f 28 31 29
f 29 31 33
f 30 51 35
f 30 35 34
f 30 34 52
f 30 52 31
f 30 32 53
f 30 53 51
f 31 52 33
f 32 42 54
f 32 54 55
f 32 55 53
f 33 52 34
f 35 51 56
f 35 56 57
f 35 57 36
f 36 57 58
f 36 58 59
f 36 59 60
f 36 60 61
f 36 61 62
f 36 62 63
f 36 63 64
f 36 64 37
f 37 64 38
f 38 64 65
f 38 65 62
f 38 62 61
f 38 61 60
f 38 60 82
f 38 82 81
f 38 81 80
f 38 80 95
f 38 95 97
f 38 97 109
f 38 109 108
f 38 108 107
f 38 107 115
f 38 115 114
f 38 114 113
f 38 113 112
f 38 112 111
f 38 111 123
f 38 123 122
f 38 122 121
f 38 121 120
f 38 120 119
f 38 119 118
f 38 118 116
f 38 116 102
f 38 102 89
f 38 89 71
f 38 71 44
f 38 44 43
f 39 66 40
f 40 66 67
f 40 67 50
f 40 50 68
f 40 68 69
f 40 69 70
f 40 70 41
f 41 70 42
f 42 70 54
f 46 72 73
f 46 73 74
f 46 74 47
f 47 74 48
f 48 74 75
f 48 75 76
f 48 76 77
f 48 77 50
f 48 50 49
f 50 77 68
f 51 53 78
f 51 78 56
f 53 55 78
f 54 70 79
f 54 79 55
f 55 79 78
f 56 78 84
f 56 84 57
f 57 80 81
f 57 81 82
f 57 82 83
f 57 83 58
f 57 84 80
f 58 82 59
f 58 83 82
f 59 82 60
f 62 65 63
f 63 65 64
f 68 77 69
f 69 85 86
f 69 86 70
f 69 77 87
f 69 87 85
f 70 86 88
f 70 88 79
f 72 90 91
f 72 91 73
f 73 91 92
f 73 92 74
f 74 92 75
f 75 87 76
f 75 92 87
f 76 87 77
f 78 79 93
f 78 93 94
f 78 94 84
f 79 88 93
f 80 84 95
f 84 94 96
f 84 96 97
f 84 97 95
f 85 98 99
f 85 99 86
f 85 87 100
f 85 100 98
f 86 99 88
f 87 92 100
f 88 99 101
f 88 101 93
f 89 102 103
f 89 103 90
f 90 103 91
f 91 103 104
f 91 104 92
f 92 104 105
f 92 105 100
f 93 106 94
f 93 101 106
f 94 106 107
f 94 107 108
f 94 108 109
f 94 109 96
f 96 109 97
f 98 100 110
f 98 110 111
f 98 111 99
f 99 111 112
f 99 112 113
f 99 113 114
f 99 114 101
f 100 105 110
f 101 114 115
f 101 115 106
f 102 116 104
f 102 104 103
f 104 117 105
f 104 116 118
f 104 118 117
f 105 117 119
f 105 119 120
f 105 120 121
f 105 121 122
f 105 122 110
f 106 115 107
f 110 122 123
f 110 123 111
f 117 118 119
