v 0.129143 -0.0428491 0.425426
v 0.129143 -0.0368445 0.42155
v 0.125057 -0.0401011 0.425705
v 0.126765 -0.0428491 0.426604
v 0.129143 -0.0428491 0.12869
v 0.129143 -0.0357883 0.420868
v 0.116531 -0.0379985 0.427069
v 0.116531 -0.0428491 0.429921
v 0.122084 -0.0428491 0.428216
v 0.129143 -0.0348201 0.420155
v 0.129143 -0.0259403 0.413583
v 0.116531 -0.031143 0.422294
v -8.36505e-05 -0.0428491 0.183282
v -8.36505e-05 -0.0205616 0.183189
v -8.36505e-05 0.0570587 0.183189
v 0.129143 0.0570587 0.129713
v 0.102817 -0.0357785 0.428526
v 0.10345 -0.0428491 0.432618
v 0.110863 -0.0428491 0.431099
v 0.102817 -0.0289231 0.423937
v 0.129143 -0.0251188 0.412963
v 0.11543 -0.0204442 0.414699
v 0.110129 -0.0134812 0.411475
v -8.36505e-05 -0.0428491 0.44539
v -8.36505e-05 0.0570587 0.364262
v 0.129143 0.0570587 0.338531
v 0.092975 -0.0428491 0.434106
v 0.020575 -0.0378713 0.440802
v 0.0342883 -0.0392503 0.439903
v 0.0539981 -0.0413333 0.438601
v 0.0663832 -0.0428491 0.437795
v 0.0927852 -0.027994 0.424588
v 0.00686159 -0.0297054 0.437082
v 0.020575 -0.0310159 0.436183
v 0.102817 -0.0205616 0.417768
v 0.119263 -0.0157989 0.409646
v 0.129143 -0.00286057 0.395324
v 0.121654 -0.000894886 0.396874
v 0.11686 0.0063811 0.393092
v 0.102817 -0.0127477 0.412002
v 0.112508 0.00148154 0.398734
v 0.102817 0.00995063 0.394673
v 0.0891165 0.0114469 0.395913
v 0.00658327 -0.0428491 0.44539
v -8.36505e-05 -0.0365609 0.441701
v -8.36505e-05 0.0391132 0.381901
v 0.00686159 0.0570587 0.364262
v 0.128359 0.0570587 0.338903
v 0.129143 0.0338225 0.362898
v 0.00686159 -0.0365609 0.441701
v 0.0142876 -0.0428491 0.44446
v 0.0286335 -0.0428491 0.442662
v 0.041398 -0.0428491 0.44105
v 0.0754031 -0.0264391 0.425735
v 0.0891165 -0.00466979 0.407848
v 0.0617024 -0.0252166 0.426635
v 0.0342883 -0.0227717 0.428433
v 0.020575 -0.0215493 0.429332
v 0.00735497 -0.0193391 0.429425
v 0.00311698 -0.0131682 0.425395
v -8.36505e-05 -0.0297054 0.437082
v 0.129143 0.00703633 0.38745
v 0.123931 0.0139798 0.384102
v 0.116531 0.0157597 0.385621
v 0.102817 0.0184002 0.387822
v 0.0891165 0.0198867 0.389062
v 0.0669398 0.0134224 0.39737
v 0.0754031 0.00582366 0.401896
v -8.36505e-05 0.0356415 0.385311
v 0.00686159 0.0391132 0.381901
v 0.0754031 0.0570587 0.355334
v 0.020575 0.0313483 0.38776
v 0.102817 0.0570587 0.349289
v 0.116531 0.0296564 0.372539
v 0.124918 0.0280135 0.370803
v 0.129143 0.0201018 0.376414
v 0.047989 -0.0171387 0.42248
v 0.0347438 -0.00563797 0.415722
v 0.0342883 -0.0159163 0.423379
v 0.020575 -0.0146938 0.424279
v 0.020575 -0.00685063 0.418481
v 0.00686159 0.00263553 0.413242
v -8.36505e-05 -0.0131682 0.425395
v 0.00686159 0.00948121 0.408158
v 0.129143 0.01974 0.376724
v 0.129143 0.0200333 0.376476
v 0.116531 0.0226151 0.37939
v 0.102817 0.0252556 0.381808
v 0.0891165 0.0267421 0.383234
v 0.0342883 0.0230259 0.393712
v 0.020575 0.017256 0.400439
v 0.0342883 0.0161704 0.399509
v 0.047989 0.0150458 0.39861
v 0.020575 0.00827833 0.40729
v -8.36505e-05 0.0322578 0.388628
v 0.00686159 0.0322578 0.388628
v 0.0877376 0.0570587 0.353629
v 0.0342883 0.030429 0.386861
v 0.0813237 0.0272898 0.383761
v 0.0891165 0.0337247 0.376383
v 0.00686159 0.0251383 0.39551
v 0.0980732 0.0570587 0.350746
v 0.0914569 0.0541933 0.355768
v 0.102817 0.0525308 0.354001
v 0.102817 0.0321306 0.374957
v 0.102817 0.0456753 0.361069
v -8.36505e-05 0.00948121 0.408158
v 0.00686159 0.0182828 0.401307
v -8.36505e-05 0.0138233 0.404779
v 0.020575 0.0241114 0.394611
v -8.36505e-05 0.0251383 0.39551
v 0.0899641 0.0570587 0.353226
v 0.0891165 0.0405802 0.369625
v -8.36505e-05 0.0216665 0.398455
v -8.36505e-05 0.0182828 0.401307
f 1 2 3
f 1 3 4
f 1 4 9
f 1 9 8
f 1 8 19
f 1 19 18
f 1 18 27
f 1 27 31
f 1 31 53
f 1 53 52
f 1 52 51
f 1 51 44
f 1 44 24
f 1 24 13
f 1 13 5
f 1 5 16
f 1 16 26
f 1 26 49
f 1 49 76
f 1 76 86
f 1 86 85
f 1 85 62
f 1 62 37
f 1 37 21
f 1 21 11
f 1 11 10
f 1 10 6
f 1 6 2
f 2 6 3
f 3 7 8
f 3 8 9
f 3 9 4
f 3 6 10
f 3 10 11
f 3 11 12
f 3 12 7
f 5 13 14
f 5 14 15
f 5 15 16
f 7 17 18
f 7 18 19
f 7 19 8
f 7 12 20
f 7 20 17
f 11 21 22
f 11 22 12
f 12 22 23
f 12 23 20
f 13 24 45
f 13 45 61
f 13 61 83
f 13 83 107
f 13 107 109
f 13 109 115
f 13 115 114
f 13 114 111
f 13 111 95
f 13 95 69
f 13 69 46
f 13 46 25
f 13 25 15
f 13 15 14
f 15 25 47
f 15 47 71
f 15 71 97
f 15 97 112
f 15 112 102
f 15 102 73
f 15 73 48
f 15 48 26
f 15 26 16
f 17 27 18
f 17 20 28
f 17 28 29
f 17 29 30
f 17 30 31
f 17 31 27
f 20 32 33
f 20 33 34
f 20 34 28
f 20 23 35
f 20 35 32
f 21 36 23
f 21 23 22
f 21 37 38
f 21 38 39
f 21 39 36
f 23 40 35
f 23 36 41
f 23 41 42
f 23 42 43
f 23 43 40
f 24 44 50
f 24 50 45
f 25 46 70
f 25 70 47
f 26 48 49
f 28 50 51
f 28 51 29
f 28 34 33
f 28 33 50
f 29 51 52
f 29 52 30
f 30 52 53
f 30 53 31
f 32 54 33
f 32 35 40
f 32 40 55
f 32 55 54
f 33 54 56
f 33 56 57
f 33 57 58
f 33 58 59
f 33 59 60
f 33 60 83
f 33 83 61
f 33 61 45
f 33 45 50
f 36 39 41
f 37 62 63
f 37 63 39
f 37 39 38
f 39 63 64
f 39 64 41
f 40 43 55
f 41 64 65
f 41 65 42
f 42 65 43
f 43 65 66
f 43 66 67
f 43 67 68
f 43 68 55
f 44 51 50
f 46 69 70
f 47 70 72
f 47 72 71
f 48 73 74
f 48 74 75
f 48 75 49
f 49 75 76
f 54 55 77
f 54 77 79
f 54 79 56
f 55 68 78
f 55 78 77
f 56 79 57
f 57 79 80
f 57 80 58
f 58 80 59
f 59 80 81
f 59 81 82
f 59 82 60
f 60 82 84
f 60 84 107
f 60 107 83
f 62 85 63
f 63 85 86
f 63 86 64
f 64 86 76
f 64 76 87
f 64 87 88
f 64 88 65
f 65 88 89
f 65 89 66
f 66 90 91
f 66 91 92
f 66 92 93
f 66 93 67
f 66 89 90
f 67 93 94
f 67 94 68
f 68 94 78
f 69 95 96
f 69 96 70
f 70 96 72
f 71 72 98
f 71 98 99
f 71 99 100
f 71 100 97
f 72 96 101
f 72 101 98
f 73 102 103
f 73 103 104
f 73 104 74
f 74 105 88
f 74 88 87
f 74 87 75
f 74 104 106
f 74 106 105
f 75 87 76
f 77 78 79
f 78 81 79
f 78 94 81
f 79 81 80
f 81 94 82
f 82 94 84
f 84 94 93
f 84 93 92
f 84 92 91
f 84 91 108
f 84 108 109
f 84 109 107
f 88 105 103
f 88 103 100
f 88 100 89
f 89 100 99
f 89 99 101
f 89 101 110
f 89 110 90
f 90 110 91
f 91 110 101
f 91 101 108
f 95 111 101
f 95 101 96
f 97 100 113
f 97 113 112
f 98 101 99
f 100 103 112
f 100 112 113
f 101 111 114
f 101 114 108
f 102 112 103
f 103 106 104
f 103 105 106
f 108 114 115
f 108 115 109
