v 0.138251 0.0570587 0.12059
v 0.0179479 0.0570587 0.182869
v 0.138251 0.16435 0.12059
v 0.34197 0.0570587 0.12059
v 0.0179479 0.0570587 0.362785
v 0.0179479 0.16435 0.182869
v 0.299279 0.16435 0.12059
v 0.340036 0.0570587 0.125355
v 0.0205804 0.16435 0.322743
v 0.0179479 0.16435 0.323075
v 0.0754194 0.0570587 0.355341
v 0.298518 0.16435 0.122439
v 0.33642 0.0570587 0.134245
v 0.0272727 0.16435 0.321866
v 0.0798598 0.16435 0.31492
v 0.0720891 0.16435 0.315963
v 0.0405939 0.16435 0.320112
v 0.0877574 0.0570587 0.35361
v 0.295505 0.16435 0.129741
v 0.32405 0.0570587 0.16414
v 0.292079 0.16435 0.138038
v 0.287354 0.16435 0.149465
v 0.0811919 0.16435 0.314588
v 0.0899776 0.0570587 0.353231
v 0.320879 0.0570587 0.171395
v 0.285863 0.16435 0.152713
v 0.0980972 0.0570587 0.350765
v 0.102855 0.0570587 0.349295
v 0.0893432 0.16435 0.31198
v 0.317643 0.0570587 0.17827
v 0.283547 0.16435 0.157716
v 0.103045 0.16435 0.306575
v 0.128387 0.0570587 0.338912
v 0.315962 0.0570587 0.181589
v 0.276792 0.16435 0.169214
v 0.157694 0.0570587 0.326797
v 0.123947 0.16435 0.297921
v 0.311871 0.0570587 0.18818
v 0.273937 0.16435 0.173007
v 0.308858 0.0570587 0.192186
v 0.171396 0.0570587 0.320894
v 0.149479 0.16435 0.287348
v 0.272066 0.16435 0.175472
v 0.297566 0.0570587 0.207146
v 0.178278 0.0570587 0.317646
v 0.157694 0.16435 0.283531
v 0.280471 0.0570587 0.229525
v 0.250118 0.16435 0.204087
v 0.181577 0.0570587 0.315986
v 0.162039 0.16435 0.281113
v 0.26753 0.0570587 0.246334
v 0.242823 0.16435 0.213594
v 0.185637 0.0570587 0.313568
v 0.169207 0.16435 0.276774
v 0.257983 0.0570587 0.257998
v 0.235718 0.16435 0.222816
v 0.188142 0.0570587 0.311861
v 0.175487 0.16435 0.27208
v 0.200258 0.0570587 0.302853
v 0.25091 0.0570587 0.263735
v 0.232768 0.16435 0.226325
v 0.229628 0.16435 0.229668
v 0.222777 0.16435 0.235737
v 0.224998 0.0570587 0.28391
v 0.24019 0.0570587 0.27227
v 0.21821 0.16435 0.239269
v 0.242632 0.0570587 0.270326
f 1 2 6
f 1 6 3
f 1 3 7
f 1 7 4
f 1 4 8
f 1 8 13
f 1 13 20
f 1 20 25
f 1 25 30
f 1 30 34
f 1 34 38
f 1 38 40
f 1 40 44
f 1 44 47
f 1 47 51
f 1 51 55
f 1 55 60
f 1 60 67
f 1 67 65
f 1 65 64
f 1 64 59
f 1 59 57
f 1 57 53
f 1 53 49
f 1 49 45
f 1 45 41
f 1 41 36
f 1 36 33
f 1 33 28
f 1 28 27
f 1 27 24
f 1 24 18
f 1 18 11
f 1 11 5
f 1 5 2
f 2 5 10
f 2 10 6
f 3 6 10
f 3 10 9
f 3 9 14
f 3 14 17
f 3 17 16
f 3 16 15
f 3 15 23
f 3 23 29
f 3 29 32
f 3 32 37
f 3 37 42
f 3 42 46
f 3 46 50
f 3 50 54
f 3 54 58
f 3 58 66
f 3 66 63
f 3 63 62
f 3 62 61
f 3 61 56
f 3 56 52
f 3 52 48
f 3 48 43
f 3 43 39
f 3 39 35
f 3 35 31
f 3 31 26
f 3 26 22
f 3 22 21
f 3 21 19
f 3 19 12
f 3 12 7
f 4 7 8
f 5 9 10
f 5 11 9
f 7 12 13
f 7 13 8
f 9 11 14
f 11 15 16
f 11 16 17
f 11 17 14
f 11 18 15
f 12 19 13
f 13 19 21
f 13 21 22
f 13 22 20
f 15 18 24
f 15 24 23
f 20 22 25
f 22 26 25
f 23 24 27
f 23 27 28
f 23 28 29
f 25 26 31
f 25 31 30
f 28 32 29
f 28 33 32
f 30 31 34
f 31 35 34
f 32 33 36
f 32 36 37
f 34 35 38
f 35 39 40
f 35 40 38
f 36 41 42
f 36 42 37
f 39 43 44
f 39 44 40
f 41 45 46
f 41 46 42
f 43 47 44
f 43 48 47
f 45 49 46
f 46 49 50
f 47 48 52
f 47 52 51
f 49 53 50
f 50 53 54
f 51 52 56
f 51 56 55
f 53 57 54
f 54 57 59
f 54 59 58
f 55 56 61
f 55 61 62
f 55 62 63
f 55 63 60
f 58 59 64
f 58 64 65
f 58 65 66
f 60 63 67
f 63 66 65
f 63 65 67
