v 0.0469064 0.16435 0.177026
v 0.144517 0.16435 0.112497
v 0.0469064 0.16435 0.319282
v 0.0469064 0.435547 0.177026
v 0.302661 0.16435 0.112497
v 0.144517 0.435547 0.112497
v 0.0720663 0.16435 0.315962
v 0.0712151 0.165784 0.315679
v 0.0474321 0.435547 0.243539
v 0.0469064 0.435467 0.24362
v 0.0469064 0.435547 0.241596
v 0.302586 0.164616 0.112497
v 0.302611 0.16435 0.112618
v 0.221599 0.435547 0.112497
v 0.0798771 0.16435 0.31493
v 0.0685614 0.315319 0.274204
v 0.0644557 0.368225 0.259914
v 0.0617019 0.435547 0.241171
v 0.28774 0.16435 0.148506
v 0.221548 0.435547 0.112638
v 0.0811789 0.16435 0.314586
v 0.0832067 0.206957 0.301996
v 0.0685114 0.411257 0.246757
v 0.0649314 0.435547 0.240199
v 0.28734 0.16435 0.149457
v 0.220747 0.435547 0.114379
v 0.219546 0.425618 0.12371
v 0.246909 0.315743 0.137333
v 0.274247 0.205869 0.150935
v 0.0893653 0.16435 0.311975
v 0.103034 0.16435 0.30657
v 0.10326 0.171465 0.304364
v 0.0761469 0.435547 0.236556
v 0.285863 0.16435 0.152696
v 0.217994 0.435547 0.12033
v 0.212311 0.435547 0.129702
v 0.233465 0.357687 0.137677
v 0.260978 0.248396 0.151542
v 0.283534 0.16435 0.157696
v 0.129746 0.16435 0.295518
v 0.111421 0.166925 0.30234
v 0.103159 0.435547 0.225443
v 0.207504 0.435547 0.136381
v 0.274647 0.179588 0.165144
v 0.276775 0.16435 0.169213
v 0.276024 0.171385 0.167027
v 0.145768 0.16435 0.288879
v 0.116253 0.435547 0.219998
v 0.149474 0.16435 0.287341
v 0.20122 0.435547 0.14468
v 0.273946 0.16435 0.173018
v 0.123713 0.425618 0.219533
v 0.120333 0.435547 0.217994
v 0.150951 0.205869 0.274265
v 0.151551 0.248369 0.260967
v 0.150976 0.16435 0.286653
v 0.194236 0.435547 0.153829
v 0.269039 0.16435 0.179435
v 0.137682 0.357687 0.233459
v 0.129696 0.435547 0.212327
v 0.15771 0.16435 0.283536
v 0.165145 0.179588 0.27465
v 0.13986 0.435547 0.204939
v 0.183696 0.435547 0.167573
v 0.246558 0.16435 0.208724
v 0.162041 0.16435 0.281107
v 0.167023 0.171385 0.276046
v 0.17546 0.16435 0.272079
v 0.173882 0.171385 0.270844
v 0.144692 0.435547 0.201255
v 0.181493 0.435547 0.170427
v 0.242828 0.16435 0.213582
v 0.169201 0.16435 0.276795
v 0.183871 0.16435 0.265622
v 0.206553 0.166501 0.247466
v 0.170428 0.435547 0.18152
v 0.155657 0.435547 0.192855
v 0.176761 0.435547 0.175751
v 0.178414 0.425539 0.178423
v 0.205651 0.287923 0.205667
v 0.219245 0.219115 0.219229
v 0.235718 0.16435 0.222792
v 0.213562 0.16435 0.24283
v 0.172631 0.435547 0.179556
v 0.218219 0.16435 0.239248
v 0.221198 0.171385 0.234491
v 0.222775 0.16435 0.235726
v 0.176261 0.435547 0.176297
v 0.229635 0.16435 0.229633
v 0.232789 0.16435 0.226293
f 1 2 5
f 1 5 13
f 1 13 19
f 1 19 25
f 1 25 34
f 1 34 39
f 1 39 45
f 1 45 51
f 1 51 58
f 1 58 65
f 1 65 72
f 1 72 82
f 1 82 90
f 1 90 89
f 1 89 87
f 1 87 85
f 1 85 83
f 1 83 74
f 1 74 68
f 1 68 73
f 1 73 66
f 1 66 61
f 1 61 56
f 1 56 49
f 1 49 47
f 1 47 40
f 1 40 31
f 1 31 30
f 1 30 21
f 1 21 15
f 1 15 7
f 1 7 3
f 1 3 10
f 1 10 11
f 1 11 4
f 1 4 6
f 1 6 2
f 2 6 14
f 2 14 12
f 2 12 5
f 3 7 8
f 3 8 9
f 3 9 10
f 4 11 9
f 4 9 18
f 4 18 24
f 4 24 33
f 4 33 42
f 4 42 48
f 4 48 53
f 4 53 60
f 4 60 63
f 4 63 70
f 4 70 77
f 4 77 76
f 4 76 84
f 4 84 88
f 4 88 78
f 4 78 71
f 4 71 64
f 4 64 57
f 4 57 50
f 4 50 43
f 4 43 36
f 4 36 35
f 4 35 26
f 4 26 20
f 4 20 14
f 4 14 6
f 5 12 13
f 7 15 8
f 8 15 9
f 9 16 17
f 9 17 18
f 9 11 10
f 9 15 16
f 12 19 13
f 12 14 20
f 12 20 19
f 15 21 22
f 15 22 23
f 15 23 16
f 16 23 17
f 17 23 18
f 18 23 24
f 19 20 25
f 20 26 27
f 20 27 28
f 20 28 29
f 20 29 25
f 21 30 22
f 22 30 31
f 22 31 32
f 22 32 33
f 22 33 23
f 23 33 24
f 25 29 34
f 26 35 27
f 27 35 36
f 27 36 37
f 27 37 38
f 27 38 28
f 28 38 29
f 29 38 39
f 29 39 34
f 31 40 41
f 31 41 32
f 32 41 40
f 32 40 42
f 32 42 33
f 36 43 37
f 37 43 38
f 38 44 39
f 38 43 44
f 39 44 46
f 39 46 45
f 40 47 42
f 42 47 49
f 42 49 48
f 43 50 44
f 44 51 46
f 44 50 51
f 45 46 51
f 48 52 53
f 48 49 54
f 48 54 55
f 48 55 52
f 49 56 54
f 50 57 51
f 51 57 58
f 52 59 60
f 52 60 53
f 52 55 59
f 54 56 61
f 54 61 55
f 55 61 62
f 55 62 63
f 55 63 59
f 57 64 58
f 58 64 65
f 59 63 60
f 61 66 62
f 62 66 67
f 62 67 68
f 62 68 69
f 62 69 63
f 63 69 70
f 64 71 72
f 64 72 65
f 66 73 67
f 67 73 68
f 68 74 75
f 68 75 69
f 69 75 76
f 69 76 77
f 69 77 70
f 71 78 79
f 71 79 80
f 71 80 81
f 71 81 82
f 71 82 72
f 74 83 75
f 75 83 76
f 76 79 84
f 76 83 85
f 76 85 86
f 76 86 87
f 76 87 81
f 76 81 80
f 76 80 79
f 78 88 79
f 79 88 84
f 81 87 89
f 81 89 90
f 81 90 82
f 85 87 86
