v -0.324592 0.16435 -5.21475e-05
v -0.183174 0.16435 -5.21475e-05
v -0.324592 0.16435 0.000986084
v -0.301856 0.247652 -5.21475e-05
v -0.183174 0.435547 -5.21475e-05
v -0.111715 0.16435 0.145122
v -0.324571 0.16435 0.00632556
v -0.301856 0.247652 0.00190566
v -0.274619 0.344281 -5.21475e-05
v -0.248861 0.435547 -5.21475e-05
v -0.111715 0.435547 0.145122
v -0.111715 0.16435 0.302993
v -0.32255 0.171385 0.00685951
v -0.322737 0.16435 0.0205938
v -0.248861 0.435547 0.00685951
v -0.274619 0.344281 0.00341851
v -0.111715 0.435547 0.221922
v -0.112652 0.435547 0.221536
v -0.148517 0.16435 0.287746
v -0.320779 0.171385 0.0205938
v -0.247256 0.435547 0.0195259
v -0.320112 0.16435 0.0406169
v -0.114382 0.435547 0.220735
v -0.123718 0.425618 0.219549
v -0.150935 0.205869 0.274249
v -0.149455 0.16435 0.28733
v -0.243547 0.435547 0.0474395
v -0.315965 0.16435 0.0720901
v -0.120321 0.435547 0.217976
v -0.125281 0.435547 0.21498
v -0.129699 0.435547 0.212311
v -0.137681 0.357687 0.233461
v -0.15156 0.248369 0.260959
v -0.157708 0.16435 0.283533
v -0.152706 0.16435 0.285877
v -0.314923 0.16435 0.079862
v -0.274202 0.315319 0.0685601
v -0.259927 0.368225 0.0644665
v -0.241171 0.435547 0.0617078
v -0.136389 0.435547 0.207505
v -0.165148 0.179588 0.274634
v -0.167023 0.171385 0.276028
v -0.169211 0.16435 0.27677
v -0.314589 0.16435 0.0811672
v -0.301981 0.206957 0.083214
v -0.246756 0.411257 0.0685008
v -0.240191 0.435547 0.0649411
v -0.144683 0.435547 0.201216
v -0.173879 0.171385 0.270837
v -0.175484 0.16435 0.272053
v -0.173004 0.16435 0.273922
v -0.311984 0.16435 0.0893544
v -0.236544 0.435547 0.076154
v -0.306566 0.16435 0.103059
v -0.304357 0.171465 0.103267
v -0.153832 0.435547 0.194245
v -0.179444 0.16435 0.269028
v -0.225437 0.435547 0.103148
v -0.304086 0.16435 0.109051
v -0.302335 0.166925 0.111424
v -0.167586 0.435547 0.183685
v -0.207056 0.16435 0.247848
v -0.219998 0.435547 0.11623
v -0.287352 0.16435 0.149453
v -0.17042 0.435547 0.18149
v -0.217497 0.187844 0.231622
v -0.213579 0.16435 0.242835
v -0.219539 0.425618 0.123705
v -0.217997 0.435547 0.120323
v -0.274264 0.205869 0.150936
v -0.260969 0.248396 0.15153
v -0.283538 0.16435 0.15767
v -0.176297 0.435547 0.176269
v -0.178422 0.425539 0.178405
v -0.20566 0.287923 0.205636
v -0.219227 0.219115 0.219222
v -0.221206 0.171385 0.234499
v -0.21808 0.16435 0.239364
v -0.21733 0.435547 0.121451
v -0.23346 0.357687 0.137677
v -0.212329 0.435547 0.129697
v -0.2811 0.16435 0.162031
v -0.27466 0.179588 0.165116
v -0.204951 0.435547 0.139842
v -0.181507 0.435547 0.170396
v -0.192052 0.356704 0.192021
v -0.235732 0.16435 0.222782
v -0.229646 0.16435 0.229634
v -0.226291 0.16435 0.232779
v -0.22279 0.16435 0.235715
v -0.276036 0.171385 0.166984
v -0.276786 0.16435 0.16918
v -0.272076 0.16435 0.175439
v -0.269617 0.16435 0.178672
v -0.199283 0.435547 0.147288
v -0.242838 0.16435 0.213557
v -0.233231 0.178685 0.219549
f 1 2 6
f 1 6 12
f 1 12 19
f 1 19 26
f 1 26 35
f 1 35 34
f 1 34 43
f 1 43 51
f 1 51 50
f 1 50 57
f 1 57 62
f 1 62 67
f 1 67 78
f 1 78 90
f 1 90 89
f 1 89 88
f 1 88 87
f 1 87 96
f 1 96 94
f 1 94 93
f 1 93 92
f 1 92 82
f 1 82 72
f 1 72 64
f 1 64 59
f 1 59 54
f 1 54 52
f 1 52 44
f 1 44 36
f 1 36 28
f 1 28 22
f 1 22 14
f 1 14 7
f 1 7 3
f 1 3 8
f 1 8 4
f 1 4 9
f 1 9 10
f 1 10 5
f 1 5 2
f 2 5 11
f 2 11 6
f 3 7 8
f 4 8 16
f 4 16 9
f 5 10 15
f 5 15 21
f 5 21 27
f 5 27 39
f 5 39 47
f 5 47 53
f 5 53 58
f 5 58 63
f 5 63 69
f 5 69 79
f 5 79 81
f 5 81 84
f 5 84 95
f 5 95 85
f 5 85 73
f 5 73 65
f 5 65 61
f 5 61 56
f 5 56 48
f 5 48 40
f 5 40 31
f 5 31 30
f 5 30 29
f 5 29 23
f 5 23 18
f 5 18 17
f 5 17 11
f 6 11 17
f 6 17 12
f 7 13 8
f 7 14 13
f 8 13 15
f 8 15 16
f 9 16 15
f 9 15 10
f 12 17 18
f 12 18 19
f 13 14 20
f 13 20 21
f 13 21 15
f 14 22 20
f 18 23 24
f 18 24 25
f 18 25 19
f 19 25 26
f 20 22 21
f 21 22 28
f 21 28 27
f 23 29 24
f 24 29 30
f 24 30 31
f 24 31 32
f 24 32 33
f 24 33 25
f 25 33 34
f 25 34 35
f 25 35 26
f 27 28 36
f 27 36 37
f 27 37 38
f 27 38 39
f 31 40 32
f 32 40 33
f 33 41 34
f 33 40 41
f 34 41 42
f 34 42 43
f 36 44 45
f 36 45 46
f 36 46 37
f 37 46 38
f 38 46 39
f 39 46 47
f 40 48 41
f 41 49 50
f 41 50 42
f 41 48 49
f 42 50 51
f 42 51 43
f 44 52 45
f 45 53 46
f 45 52 54
f 45 54 55
f 45 55 53
f 46 53 47
f 48 56 49
f 49 57 50
f 49 56 57
f 53 55 58
f 54 59 60
f 54 60 55
f 55 60 58
f 56 61 62
f 56 62 57
f 58 60 64
f 58 64 63
f 59 64 60
f 61 65 66
f 61 66 67
f 61 67 62
f 63 68 69
f 63 64 70
f 63 70 71
f 63 71 68
f 64 72 70
f 65 73 74
f 65 74 75
f 65 75 76
f 65 76 77
f 65 77 66
f 66 77 78
f 66 78 67
f 68 79 69
f 68 71 80
f 68 80 81
f 68 81 79
f 70 72 71
f 71 72 82
f 71 82 83
f 71 83 84
f 71 84 80
f 73 85 74
f 74 85 86
f 74 86 75
f 75 86 85
f 75 85 76
f 76 87 88
f 76 88 89
f 76 89 90
f 76 90 77
f 76 85 87
f 77 90 78
f 80 84 81
f 82 91 83
f 82 92 91
f 83 91 92
f 83 92 93
f 83 93 94
f 83 94 95
f 83 95 84
f 85 95 96
f 85 96 97
f 85 97 87
f 87 97 96
f 94 96 95
