v -8.36403e-05 -0.0497043 -0.449449
v -8.36403e-05 -0.0365575 -0.441694
v 0.00581925 -0.0497043 -0.449449
v -8.36403e-05 -0.0497043 -0.182792
v -8.36403e-05 -0.0297019 -0.437072
v 0.00687334 -0.0365575 -0.441694
v 0.0205765 -0.0378743 -0.440808
v 0.0342796 -0.0392433 -0.43989
v 0.0448626 -0.0403406 -0.439193
v 0.0205765 -0.04798 -0.4466
v 0.0228111 -0.0497043 -0.447233
v -8.36403e-05 0.0570587 -0.183204
v 0.130159 -0.0497043 -0.126068
v -8.36403e-05 -0.0131691 -0.425392
v 0.00687334 -0.0297019 -0.437072
v 0.0205765 -0.0310187 -0.436186
v 0.102837 -0.0289181 -0.423936
v 0.102837 -0.0357737 -0.428526
v 0.0540121 -0.0413334 -0.438592
v 0.0754311 -0.043946 -0.437199
v 0.0664082 -0.0497043 -0.441504
v -8.36403e-05 0.0570587 -0.364267
v 0.132563 0.0570587 -0.126068
v 0.430658 -0.0497043 -0.126068
v -8.36403e-05 0.00947727 -0.408172
v 0.00312078 -0.0131691 -0.425392
v 0.00737929 -0.0193454 -0.429412
v 0.0205765 -0.0215505 -0.429349
v 0.0754311 -0.0264309 -0.42574
v 0.0928025 -0.027988 -0.424601
v 0.102837 -0.0127511 -0.412002
v 0.110174 -0.0134722 -0.411464
v 0.116541 -0.0379997 -0.42707
v 0.104819 -0.0497043 -0.436439
v 0.103976 -0.0487428 -0.436028
v 0.0891343 -0.0456181 -0.436281
v -8.36403e-05 0.0322491 -0.388641
v 0.00687334 0.0570587 -0.364267
v 0.339754 0.0570587 -0.126068
v 0.429562 -0.0497043 -0.129296
v 0.426231 -0.0417201 -0.126068
v -8.36403e-05 0.0182871 -0.401303
v 0.00687334 0.00947727 -0.408172
v 0.00687334 0.00263215 -0.413237
v 0.00737929 -0.00790203 -0.42096
v 0.0122703 -0.0139634 -0.424822
v 0.0205765 -0.0146949 -0.424284
v 0.0754311 -0.0195753 -0.420675
v 0.0891343 -0.0115284 -0.41292
v 0.0891343 0.011442 -0.395922
v 0.102837 0.00995799 -0.394687
v 0.112535 0.00148258 -0.398739
v 0.130286 -0.0254903 -0.412825
v 0.115444 -0.0204427 -0.414693
v 0.116541 -0.0311441 -0.42229
v 0.1251 -0.0401002 -0.425708
v 0.116541 -0.04798 -0.432957
v 0.116541 -0.0497043 -0.433939
v -8.36403e-05 0.0251427 -0.39551
v 0.00687334 0.0322491 -0.388641
v 0.0205765 0.0313503 -0.387755
v 0.0802799 0.0570587 -0.354739
v 0.368636 0.0295842 -0.126068
v 0.338911 0.0570587 -0.128378
v 0.429309 -0.0497043 -0.130024
v 0.424503 -0.0390343 -0.126068
v 0.428297 -0.0478545 -0.129898
v 0.423786 -0.043204 -0.134203
v 0.410884 -0.0418455 -0.163546
v 0.00687334 0.0182871 -0.401303
v 0.0205765 0.0172525 -0.400417
v 0.0342796 0.0161656 -0.39953
v 0.0480249 0.0150474 -0.398612
v 0.0578068 0.0142218 -0.397979
v 0.0205765 0.00827545 -0.407286
v 0.0347434 0.00580912 -0.407254
v 0.061728 -0.00908294 -0.414724
v 0.0891343 0.019886 -0.389053
v 0.0669563 0.0134171 -0.397378
v 0.102837 0.0184021 -0.387818
v 0.116541 0.0157581 -0.385634
v 0.123961 0.0139815 -0.384115
v 0.121684 -0.000900147 -0.396871
v 0.130286 -0.00313657 -0.395099
v 0.166631 -0.0263368 -0.398454
v 0.137285 -0.0273296 -0.411369
v 0.129906 -0.0478545 -0.428304
v 0.130033 -0.0497043 -0.429317
v 0.118396 -0.0497043 -0.433306
v 0.146434 -0.0298378 -0.40947
v 0.212547 -0.0366724 -0.387027
v 0.185098 -0.0383027 -0.399562
v 0.192856 -0.040581 -0.397948
v 0.163553 -0.0418455 -0.410863
v 0.134207 -0.043204 -0.423809
v 0.00687334 0.0251427 -0.39551
v 0.0480249 0.0295215 -0.385951
v 0.0891343 0.0337226 -0.376391
v 0.081334 0.027285 -0.383766
v 0.0899775 0.0570587 -0.353251
v 0.372388 0.0257802 -0.126068
v 0.368889 0.0261459 -0.134076
v 0.355987 0.0269506 -0.163388
v 0.357884 0.0287586 -0.15424
v 0.326768 0.0570587 -0.157722
v 0.423238 -0.0497043 -0.144712
v 0.412781 -0.038982 -0.154398
v 0.420033 -0.0350212 -0.129898
v 0.412823 -0.0254903 -0.130278
v 0.41569 -0.0272147 -0.126068
v 0.400301 -0.048189 -0.197987
v 0.396042 -0.0437579 -0.201975
v 0.39794 -0.040581 -0.192858
v 0.0205765 0.0241081 -0.394592
v 0.0342796 0.0230212 -0.393706
v 0.0891343 0.0267416 -0.383228
v 0.102837 0.0252576 -0.381804
v 0.116541 0.0226136 -0.379398
v 0.143989 0.0170957 -0.373099
v 0.153265 0.014922 -0.371168
v 0.133111 0.0116092 -0.382215
v 0.191718 0.0135843 -0.356354
v 0.143989 0.00876663 -0.379968
v 0.186026 0.00732445 -0.363697
v 0.195934 -0.025344 -0.385507
v 0.205084 -0.0277372 -0.383608
v 0.175738 -0.0287718 -0.396555
v 0.202006 -0.0437579 -0.396048
v 0.198 -0.048189 -0.40029
v 0.175443 -0.0497043 -0.410514
v 0.212547 -0.0298169 -0.381899
v 0.22119 -0.0394418 -0.385033
v 0.0914954 0.0541952 -0.355784
v 0.102837 0.0570587 -0.349295
v 0.377195 0.0206698 -0.126068
v 0.366865 0.0239409 -0.143984
v 0.3543 0.0252158 -0.171397
v 0.343043 0.0277031 -0.19251
v 0.344603 0.0291975 -0.185103
v 0.320865 0.0570587 -0.171397
v 0.399795 -0.0497043 -0.20131
v 0.394609 -0.0314472 -0.185103
v 0.396548 -0.0287718 -0.175733
v 0.40945 -0.0298378 -0.146421
v 0.414257 -0.0343524 -0.142718
v 0.387019 -0.0366724 -0.212516
v 0.411348 -0.0273296 -0.137305
v 0.398446 -0.0263368 -0.166617
v 0.400301 -0.0240064 -0.15769
v 0.398614 -0.0124271 -0.139584
v 0.407384 -0.0186348 -0.130278
v 0.395958 -0.00204971 -0.126068
v 0.401608 -0.009177 -0.126068
v 0.411601 -0.0218013 -0.126068
v 0.413329 -0.0240691 -0.126068
v 0.395621 -0.0497043 -0.211376
v 0.394145 -0.048189 -0.212769
v 0.385038 -0.0394418 -0.221253
v 0.102837 0.0321341 -0.374935
v 0.116541 0.0296573 -0.372529
v 0.124931 0.0280166 -0.370788
v 0.134081 0.0261459 -0.368889
v 0.143989 0.0239513 -0.366863
v 0.182569 0.0158103 -0.358253
v 0.171395 0.0102506 -0.367433
v 0.186321 0.0204504 -0.352428
v 0.192519 0.0277031 -0.343059
v 0.198801 0.0117137 -0.354644
v 0.198801 0.00485812 -0.36031
v 0.198801 -0.00375315 -0.367179
v 0.198801 -0.0106087 -0.372624
v 0.207023 -0.0128347 -0.370851
v 0.2128 -0.048189 -0.394149
v 0.199729 -0.0497043 -0.400448
v 0.206138 -0.0497043 -0.397789
v 0.208162 0.00204691 -0.358095
v 0.222329 -0.0249365 -0.372339
v 0.226334 -0.0341121 -0.377119
v 0.236453 -0.0379265 -0.372782
v 0.23034 -0.0440192 -0.38193
v 0.232954 -0.0497043 -0.38383
v 0.225955 -0.0483457 -0.387533
v 0.226081 -0.0497043 -0.388293
v 0.213685 -0.0497043 -0.394655
v 0.102837 0.0525336 -0.354011
v 0.102837 0.045678 -0.36107
v 0.102837 0.0389897 -0.367939
v 0.105873 0.0570587 -0.34806
v 0.380906 0.0165419 -0.126068
v 0.373105 0.0170957 -0.143984
v 0.358264 0.0158103 -0.182571
v 0.352403 0.0204504 -0.186338
v 0.356366 0.0135843 -0.191719
v 0.354638 0.0117137 -0.19881
v 0.346964 0.0205549 -0.197765
v 0.340176 0.0251218 -0.201658
v 0.328876 0.0410171 -0.191719
v 0.31766 0.0570587 -0.178266
v 0.383604 -0.0277372 -0.205045
v 0.381875 -0.0298169 -0.212516
v 0.385501 -0.025344 -0.195929
v 0.374918 -0.00627174 -0.184977
v 0.394862 -0.0171508 -0.15769
v 0.382213 0.0116092 -0.133095
v 0.391404 0.00368765 -0.126068
v 0.394651 -0.0497043 -0.213687
v 0.389127 -0.0497043 -0.224513
v 0.388284 -0.0497043 -0.226127
v 0.386808 -0.0497043 -0.228406
v 0.383815 -0.0497043 -0.232996
v 0.381917 -0.0440192 -0.230369
v 0.372768 -0.0379265 -0.23651
v 0.377111 -0.0341121 -0.226381
v 0.372346 -0.0249365 -0.22236
v 0.358095 0.00204691 -0.208148
v 0.134249 0.0570587 -0.336443
v 0.154277 0.0287586 -0.357873
v 0.163384 0.0269506 -0.355974
v 0.171395 0.0252158 -0.354328
v 0.191718 0.0410171 -0.328909
v 0.201669 0.0251218 -0.340147
v 0.19779 0.0205549 -0.346952
v 0.185098 0.0291975 -0.34461
v 0.164143 0.0570587 -0.324066
v 0.171395 0.0570587 -0.320869
v 0.173672 0.0570587 -0.319824
v 0.208626 0.0159775 -0.34499
v 0.212968 0.00719904 -0.349928
v 0.227135 -0.0197948 -0.364014
v 0.231478 -0.0287823 -0.368952
v 0.217269 -0.00171529 -0.354866
v 0.260697 -0.0408945 -0.356639
v 0.245603 -0.0424412 -0.369269
v 0.290887 -0.0382923 -0.331347
v 0.275792 -0.0395568 -0.343977
v 0.24008 -0.0478023 -0.377151
v 0.227262 -0.0497043 -0.387533
v 0.238098 -0.0497043 -0.379936
v 0.385459 0.0111494 -0.126068
v 0.371166 0.014922 -0.153259
v 0.36033 0.00486857 -0.19881
v 0.344982 0.0159775 -0.208622
v 0.336254 0.0210356 -0.213022
v 0.327527 0.0261041 -0.217391
v 0.331026 0.0290303 -0.208274
v 0.316648 0.0570587 -0.180418
v 0.302861 0.0570587 -0.200266
v 0.311842 0.0570587 -0.188174
v 0.31357 0.0570587 -0.185673
v 0.315974 0.0570587 -0.18159
v 0.370828 -0.0128347 -0.207008
v 0.388917 0.00681237 -0.126068
v 0.379936 -0.0497043 -0.238156
v 0.377153 -0.0478023 -0.240119
v 0.369268 -0.0424412 -0.245658
v 0.368931 -0.0287823 -0.231509
v 0.356619 -0.0408945 -0.260726
v 0.34397 -0.0395568 -0.275825
v 0.335748 -0.0343524 -0.280889
v 0.363998 -0.0197948 -0.227172
v 0.354848 -0.00171529 -0.217296
v 0.349915 0.00719904 -0.212959
v 0.180418 0.0570587 -0.316659
v 0.181599 0.0570587 -0.315963
v 0.188176 0.0570587 -0.311879
v 0.192224 0.0570587 -0.308872
v 0.20715 0.0570587 -0.297571
v 0.208246 0.0290303 -0.33103
v 0.217353 0.0261041 -0.327516
v 0.213011 0.0210356 -0.336253
v 0.271786 0.0258115 -0.286081
v 0.263016 0.0156745 -0.303554
v 0.247922 0.0146294 -0.316216
v 0.217733 0.0123616 -0.341508
v 0.241176 -0.019753 -0.35322
v 0.261667 -0.0264309 -0.34366
v 0.301006 -0.0279358 -0.314855
v 0.285911 -0.029148 -0.327485
v 0.270817 -0.030423 -0.340147
v 0.280852 -0.0343524 -0.335747
v 0.315088 -0.0413647 -0.315108
v 0.300036 -0.0429114 -0.327833
v 0.305981 -0.03708 -0.318685
v 0.248807 -0.0497043 -0.371738
v 0.244886 -0.0497043 -0.374745
v 0.293037 -0.0497043 -0.337804
v 0.341483 0.0123616 -0.217771
v 0.328834 0.0135112 -0.23287
v 0.316185 0.0146294 -0.247969
v 0.303536 0.0156745 -0.263068
v 0.332375 0.0169599 -0.223722
v 0.290929 0.0166673 -0.278136
v 0.298687 0.0248187 -0.256737
v 0.286038 0.0258115 -0.271836
v 0.314878 0.0270342 -0.23249
v 0.302228 0.0279121 -0.247589
v 0.28393 0.0570587 -0.225051
v 0.342242 -0.0497043 -0.287284
v 0.340471 -0.0444895 -0.284973
v 0.327822 -0.0429114 -0.30004
v 0.327484 -0.029148 -0.285923
v 0.356282 -0.0275909 -0.246608
v 0.331321 -0.0382923 -0.290892
v 0.323099 -0.0331088 -0.295957
v 0.343633 -0.0264309 -0.261707
v 0.339332 -0.00369045 -0.23996
v 0.229496 0.0570587 -0.28051
v 0.247542 0.0279121 -0.302225
v 0.232448 0.0270342 -0.314855
v 0.266516 0.0337644 -0.280478
v 0.27693 0.0296155 -0.276964
v 0.287218 0.0131454 -0.287252
v 0.278069 0.0166673 -0.290924
v 0.262637 0.028769 -0.289563
v 0.272166 0.0120168 -0.30004
v 0.257071 0.0108672 -0.312702
v 0.277226 -0.011194 -0.31764
v 0.281568 -0.0201396 -0.322578
v 0.291856 -0.0241318 -0.318368
v 0.286797 -0.000910597 -0.300768
v 0.301427 -0.0138693 -0.301433
v 0.310619 -0.0497043 -0.324288
v 0.309565 -0.046705 -0.323053
v 0.314835 -0.0279358 -0.30099
v 0.318672 -0.03708 -0.30596
v 0.323057 -0.0467154 -0.309568
v 0.32428 -0.0497043 -0.310613
v 0.317998 -0.0497043 -0.317988
v 0.326135 0.0105746 -0.23996
v 0.300036 0.0120168 -0.272184
v 0.28043 0.0337644 -0.266582
v 0.289579 0.028769 -0.262688
v 0.27225 0.0570587 -0.240245
v 0.336297 -0.0497043 -0.295007
v 0.314119 -0.0149875 -0.286397
v 0.24632 0.0570587 -0.267563
v 0.261288 0.0416232 -0.274843
v 0.259854 0.0544565 -0.259903
v 0.282454 0.00801419 -0.29583
v 0.29582 0.00801419 -0.282472
v 0.277647 0.00289341 -0.304282
v 0.271702 -0.00206016 -0.31343
v 0.300753 -0.000910597 -0.28684
v 0.263733 0.0570587 -0.250944
v 0.257999 0.0570587 -0.258035
f 1 2 6
f 1 6 3
f 1 3 11
f 1 11 21
f 1 21 34
f 1 34 58
f 1 58 89
f 1 89 88
f 1 88 130
f 1 130 174
f 1 174 175
f 1 175 184
f 1 184 183
f 1 183 237
f 1 237 181
f 1 181 238
f 1 238 285
f 1 285 284
f 1 284 286
f 1 286 322
f 1 322 328
f 1 328 327
f 1 327 334
f 1 334 298
f 1 298 253
f 1 253 210
f 1 210 209
f 1 209 208
f 1 208 207
f 1 207 206
f 1 206 156
f 1 156 141
f 1 141 106
f 1 106 65
f 1 65 40
f 1 40 24
f 1 24 13
f 1 13 4
f 1 4 12
f 1 12 22
f 1 22 37
f 1 37 59
f 1 59 42
f 1 42 25
f 1 25 14
f 1 14 5
f 1 5 2
f 2 5 15
f 2 15 6
f 3 6 7
f 3 7 8
f 3 8 9
f 3 9 10
f 3 10 11
f 4 13 12
f 5 14 26
f 5 26 15
f 6 15 16
f 6 16 7
f 7 16 17
f 7 17 18
f 7 18 8
f 8 18 9
f 9 19 10
f 9 18 19
f 10 19 20
f 10 20 21
f 10 21 11
f 12 13 23
f 12 23 39
f 12 39 64
f 12 64 105
f 12 105 140
f 12 140 198
f 12 198 246
f 12 246 250
f 12 250 249
f 12 249 248
f 12 248 247
f 12 247 297
f 12 297 333
f 12 333 344
f 12 344 345
f 12 345 336
f 12 336 307
f 12 307 267
f 12 267 266
f 12 266 265
f 12 265 264
f 12 264 263
f 12 263 226
f 12 226 225
f 12 225 224
f 12 224 216
f 12 216 188
f 12 188 134
f 12 134 100
f 12 100 62
f 12 62 38
f 12 38 22
f 13 24 41
f 13 41 66
f 13 66 110
f 13 110 155
f 13 155 154
f 13 154 153
f 13 153 152
f 13 152 205
f 13 205 252
f 13 252 239
f 13 239 189
f 13 189 135
f 13 135 101
f 13 101 63
f 13 63 39
f 13 39 23
f 14 25 43
f 14 43 26
f 15 26 27
f 15 27 28
f 15 28 29
f 15 29 30
f 15 30 17
f 15 17 16
f 17 30 31
f 17 31 32
f 17 32 33
f 17 33 18
f 18 33 34
f 18 34 35
f 18 35 36
f 18 36 20
f 18 20 19
f 20 36 35
f 20 35 34
f 20 34 21
f 22 38 60
f 22 60 37
f 24 40 41
f 25 42 70
f 25 70 43
f 26 43 44
f 26 44 45
f 26 45 46
f 26 46 27
f 27 46 28
f 28 46 47
f 28 47 48
f 28 48 29
f 29 48 30
f 30 48 49
f 30 49 31
f 31 49 50
f 31 50 32
f 32 51 52
f 32 52 53
f 32 53 54
f 32 54 55
f 32 55 33
f 32 50 51
f 33 55 56
f 33 56 57
f 33 57 34
f 34 57 58
f 37 60 96
f 37 96 59
f 38 61 60
f 38 62 61
f 39 63 64
f 40 65 41
f 41 65 67
f 41 67 68
f 41 68 69
f 41 69 66
f 42 59 96
f 42 96 70
f 43 70 71
f 43 71 72
f 43 72 73
f 43 73 74
f 43 74 75
f 43 75 46
f 43 46 44
f 44 46 45
f 46 75 47
f 47 75 76
f 47 76 77
f 47 77 48
f 48 77 49
f 49 77 50
f 50 78 80
f 50 80 51
f 50 77 76
f 50 76 79
f 50 79 78
f 51 80 52
f 52 80 81
f 52 81 82
f 52 82 83
f 52 83 53
f 53 56 55
f 53 55 54
f 53 83 84
f 53 84 85
f 53 85 86
f 53 86 56
f 56 87 88
f 56 88 89
f 56 89 58
f 56 58 57
f 56 86 90
f 56 90 91
f 56 91 92
f 56 92 93
f 56 93 94
f 56 94 95
f 56 95 87
f 60 61 96
f 61 62 97
f 61 97 96
f 62 98 99
f 62 99 97
f 62 100 98
f 63 101 102
f 63 102 103
f 63 103 104
f 63 104 64
f 64 104 105
f 65 106 67
f 66 69 107
f 66 107 108
f 66 108 109
f 66 109 110
f 67 106 69
f 67 69 68
f 69 106 111
f 69 111 112
f 69 112 113
f 69 113 107
f 70 96 71
f 71 114 115
f 71 115 72
f 71 96 114
f 72 115 116
f 72 116 78
f 72 78 73
f 73 78 74
f 74 78 79
f 74 79 75
f 75 79 76
f 78 116 80
f 80 117 81
f 80 116 117
f 81 117 118
f 81 118 163
f 81 163 119
f 81 119 120
f 81 120 82
f 82 121 84
f 82 84 83
f 82 120 122
f 82 122 121
f 84 121 123
f 84 123 124
f 84 124 85
f 85 124 125
f 85 125 126
f 85 126 86
f 86 126 127
f 86 127 90
f 87 95 94
f 87 94 128
f 87 128 129
f 87 129 130
f 87 130 88
f 90 127 91
f 91 128 93
f 91 93 92
f 91 127 126
f 91 126 131
f 91 131 132
f 91 132 128
f 93 128 94
f 96 97 99
f 96 99 116
f 96 116 114
f 98 116 99
f 98 100 133
f 98 133 117
f 98 117 116
f 100 134 133
f 101 135 102
f 102 135 136
f 102 136 103
f 103 137 138
f 103 138 139
f 103 139 105
f 103 105 104
f 103 136 137
f 105 139 138
f 105 138 140
f 106 141 111
f 107 142 143
f 107 143 144
f 107 144 145
f 107 145 108
f 107 113 146
f 107 146 142
f 108 145 144
f 108 144 147
f 108 147 109
f 109 147 148
f 109 148 149
f 109 149 150
f 109 150 151
f 109 151 152
f 109 152 153
f 109 153 154
f 109 154 155
f 109 155 110
f 111 141 156
f 111 156 112
f 112 156 157
f 112 157 158
f 112 158 113
f 113 158 146
f 114 116 115
f 117 133 159
f 117 159 160
f 117 160 118
f 118 160 161
f 118 161 162
f 118 162 163
f 119 163 164
f 119 164 120
f 120 164 122
f 121 122 165
f 121 165 124
f 121 124 123
f 122 164 166
f 122 166 167
f 122 167 168
f 122 168 169
f 122 169 170
f 122 170 124
f 122 124 165
f 124 170 171
f 124 171 126
f 124 126 125
f 126 172 131
f 126 171 170
f 126 170 169
f 126 169 172
f 128 132 173
f 128 173 129
f 129 174 130
f 129 173 175
f 129 175 174
f 131 172 176
f 131 176 132
f 132 177 178
f 132 178 179
f 132 179 180
f 132 180 181
f 132 181 182
f 132 182 183
f 132 183 184
f 132 184 173
f 132 176 177
f 133 134 185
f 133 185 186
f 133 186 187
f 133 187 159
f 134 188 160
f 134 160 185
f 135 189 190
f 135 190 136
f 136 190 191
f 136 191 137
f 137 191 192
f 137 192 138
f 138 192 193
f 138 193 194
f 138 194 195
f 138 195 196
f 138 196 197
f 138 197 198
f 138 198 140
f 142 146 199
f 142 199 143
f 143 148 147
f 143 147 144
f 143 199 148
f 146 158 200
f 146 200 199
f 148 199 201
f 148 201 149
f 149 201 202
f 149 202 203
f 149 203 150
f 150 204 205
f 150 205 151
f 150 203 193
f 150 193 204
f 151 205 152
f 156 206 157
f 157 206 158
f 158 206 207
f 158 207 208
f 158 208 209
f 158 209 210
f 158 210 211
f 158 211 212
f 158 212 213
f 158 213 214
f 158 214 215
f 158 215 200
f 159 187 160
f 160 187 186
f 160 186 185
f 160 188 216
f 160 216 161
f 161 216 217
f 161 217 218
f 161 218 162
f 162 218 219
f 162 219 163
f 163 219 164
f 164 219 166
f 166 219 167
f 167 220 221
f 167 221 222
f 167 222 168
f 167 219 218
f 167 218 223
f 167 223 224
f 167 224 225
f 167 225 226
f 167 226 220
f 168 222 227
f 168 227 176
f 168 176 169
f 169 176 172
f 173 184 175
f 176 227 228
f 176 228 177
f 177 229 230
f 177 230 178
f 177 228 231
f 177 231 229
f 178 230 179
f 179 232 233
f 179 233 180
f 179 230 234
f 179 234 235
f 179 235 232
f 180 233 236
f 180 236 181
f 181 237 182
f 181 236 238
f 182 237 183
f 189 239 204
f 189 204 240
f 189 240 190
f 190 240 191
f 191 193 192
f 191 240 193
f 193 240 204
f 193 203 202
f 193 202 201
f 193 201 241
f 193 241 194
f 194 241 215
f 194 215 242
f 194 242 195
f 195 242 196
f 196 242 243
f 196 243 244
f 196 244 245
f 196 245 197
f 197 246 198
f 197 245 247
f 197 247 248
f 197 248 249
f 197 249 250
f 197 250 246
f 199 200 251
f 199 251 241
f 199 241 201
f 200 215 251
f 204 239 252
f 204 252 205
f 210 253 211
f 211 253 254
f 211 254 255
f 211 255 212
f 212 256 213
f 212 255 257
f 212 257 258
f 212 258 259
f 212 259 256
f 213 256 214
f 214 256 260
f 214 260 261
f 214 261 262
f 214 262 215
f 215 262 242
f 215 241 251
f 216 224 217
f 217 224 223
f 217 223 218
f 220 226 263
f 220 263 264
f 220 264 265
f 220 265 266
f 220 266 267
f 220 267 268
f 220 268 221
f 221 268 269
f 221 269 270
f 221 270 227
f 221 227 222
f 227 270 271
f 227 271 272
f 227 272 273
f 227 273 274
f 227 274 228
f 228 274 275
f 228 275 229
f 228 229 231
f 229 275 230
f 230 275 276
f 230 276 277
f 230 277 278
f 230 278 279
f 230 279 280
f 230 280 234
f 232 236 233
f 232 235 281
f 232 281 282
f 232 282 236
f 234 277 283
f 234 283 281
f 234 281 235
f 234 280 278
f 234 278 277
f 236 284 285
f 236 285 238
f 236 282 286
f 236 286 284
f 242 287 288
f 242 288 289
f 242 289 290
f 242 290 291
f 242 291 243
f 242 262 287
f 243 291 244
f 244 291 292
f 244 292 293
f 244 293 294
f 244 294 295
f 244 295 245
f 245 295 296
f 245 296 297
f 245 297 247
f 253 298 254
f 254 298 255
f 255 298 299
f 255 299 300
f 255 300 257
f 256 259 301
f 256 301 302
f 256 302 260
f 257 300 281
f 257 281 258
f 258 303 259
f 258 281 303
f 259 303 304
f 259 304 301
f 260 302 305
f 260 305 306
f 260 306 287
f 260 287 261
f 261 287 262
f 267 307 268
f 268 307 308
f 268 308 309
f 268 309 269
f 269 309 271
f 269 271 270
f 271 310 311
f 271 311 312
f 271 312 313
f 271 313 272
f 271 309 308
f 271 308 314
f 271 314 310
f 272 313 315
f 272 315 273
f 273 315 316
f 273 316 274
f 274 316 317
f 274 317 275
f 275 317 318
f 275 318 276
f 276 318 319
f 276 319 277
f 277 319 341
f 277 341 320
f 277 320 321
f 277 321 281
f 277 281 283
f 278 280 279
f 281 322 323
f 281 323 282
f 281 321 324
f 281 324 325
f 281 325 303
f 281 300 326
f 281 326 327
f 281 327 328
f 281 328 322
f 282 323 322
f 282 322 286
f 287 306 329
f 287 329 288
f 288 329 330
f 288 330 289
f 289 330 290
f 290 330 292
f 290 292 291
f 292 330 312
f 292 312 294
f 292 294 293
f 294 331 332
f 294 332 296
f 294 296 295
f 294 312 311
f 294 311 331
f 296 332 297
f 297 332 333
f 298 334 300
f 298 300 299
f 300 334 327
f 300 327 326
f 301 304 324
f 301 324 302
f 302 324 305
f 303 325 304
f 304 325 324
f 305 324 335
f 305 335 306
f 306 335 329
f 307 336 310
f 307 310 308
f 308 310 314
f 310 336 337
f 310 337 338
f 310 338 311
f 311 338 331
f 312 339 315
f 312 315 313
f 312 330 340
f 312 340 321
f 312 321 339
f 315 339 320
f 315 320 341
f 315 341 316
f 316 341 342
f 316 342 317
f 317 342 341
f 317 341 319
f 317 319 318
f 320 339 321
f 321 340 343
f 321 343 324
f 324 343 335
f 329 335 343
f 329 343 330
f 330 343 340
f 331 333 332
f 331 338 344
f 331 344 333
f 336 345 338
f 336 338 337
f 338 345 344
