v -0.134744 0.0570587 0.336227
v -0.134744 0.16435 0.293434
v -0.138024 0.16435 0.292084
v -0.148516 0.16435 0.287739
v -0.164154 0.0570587 0.324047
v -0.134744 0.0570587 0.123711
v -0.134744 0.16435 0.123711
v -0.14946 0.16435 0.287344
v -0.171388 0.0570587 0.320887
v -0.183184 0.0570587 -5.85319e-05
v -0.183184 0.16435 -5.85319e-05
v -0.152695 0.16435 0.285863
v -0.180398 0.0570587 0.316674
v -0.157705 0.16435 0.283526
v -0.36425 0.0570587 -5.85319e-05
v -0.324572 0.16435 -5.85319e-05
v -0.181588 0.0570587 0.315982
v -0.169209 0.16435 0.276778
v -0.364273 0.0570587 0.00688706
v -0.324572 0.16435 0.00632746
v -0.188171 0.0570587 0.311868
v -0.175477 0.16435 0.27207
v -0.192193 0.0570587 0.308872
v -0.354746 0.0570587 0.0802602
v -0.32273 0.16435 0.0205807
v -0.179432 0.16435 0.269042
v -0.229534 0.0570587 0.280464
v -0.207134 0.0570587 0.297582
v -0.353623 0.0570587 0.0877654
v -0.314934 0.16435 0.0798652
v -0.315967 0.16435 0.0720637
v -0.320933 0.16435 0.0343073
v -0.213582 0.16435 0.24284
v -0.246363 0.0570587 0.267528
v -0.353241 0.0570587 0.0899708
v -0.314597 0.16435 0.0811819
v -0.222817 0.16435 0.23573
v -0.258001 0.0570587 0.257982
v -0.35077 0.0570587 0.0981015
v -0.349309 0.0570587 0.102842
v -0.311968 0.16435 0.0893454
v -0.226322 0.16435 0.232767
v -0.26373 0.0570587 0.250904
v -0.229669 0.16435 0.22964
v -0.235735 0.16435 0.222793
v -0.338907 0.0570587 0.128386
v -0.306576 0.16435 0.103039
v -0.27229 0.0570587 0.240206
v -0.239263 0.16435 0.218217
v -0.326797 0.0570587 0.157715
v -0.297926 0.16435 0.123942
v -0.242858 0.16435 0.213543
v -0.247868 0.16435 0.207025
v -0.272066 0.16435 0.175458
v -0.283928 0.0570587 0.224998
v -0.320888 0.0570587 0.171376
v -0.287344 0.16435 0.149453
v -0.276784 0.16435 0.16917
v -0.302869 0.0570587 0.200244
v -0.316686 0.0570587 0.180362
v -0.283547 0.16435 0.157715
v -0.28112 0.16435 0.16206
v -0.313563 0.0570587 0.185629
v -0.311878 0.0570587 0.188164
v -0.315967 0.0570587 0.18158
f 1 2 3
f 1 3 4
f 1 4 5
f 1 5 9
f 1 9 13
f 1 13 17
f 1 17 21
f 1 21 23
f 1 23 28
f 1 28 27
f 1 27 34
f 1 34 38
f 1 38 43
f 1 43 48
f 1 48 55
f 1 55 59
f 1 59 64
f 1 64 63
f 1 63 65
f 1 65 60
f 1 60 56
f 1 56 50
f 1 50 46
f 1 46 40
f 1 40 39
f 1 39 35
f 1 35 29
f 1 29 24
f 1 24 19
f 1 19 15
f 1 15 10
f 1 10 6
f 1 6 7
f 1 7 2
f 2 7 11
f 2 11 16
f 2 16 20
f 2 20 25
f 2 25 32
f 2 32 31
f 2 31 30
f 2 30 36
f 2 36 41
f 2 41 47
f 2 47 51
f 2 51 57
f 2 57 61
f 2 61 62
f 2 62 58
f 2 58 54
f 2 54 53
f 2 53 52
f 2 52 49
f 2 49 45
f 2 45 44
f 2 44 42
f 2 42 37
f 2 37 33
f 2 33 26
f 2 26 22
f 2 22 18
f 2 18 14
f 2 14 12
f 2 12 8
f 2 8 4
f 2 4 3
f 4 8 5
f 5 8 9
f 6 10 11
f 6 11 7
f 8 12 9
f 9 12 14
f 9 14 13
f 10 15 16
f 10 16 11
f 13 14 17
f 14 18 17
f 15 19 16
f 16 19 20
f 17 18 21
f 18 22 23
f 18 23 21
f 19 24 25
f 19 25 20
f 22 26 27
f 22 27 28
f 22 28 23
f 24 29 30
f 24 30 31
f 24 31 32
f 24 32 25
f 26 33 27
f 27 33 34
f 29 35 30
f 30 35 36
f 33 37 34
f 34 37 38
f 35 39 36
f 36 39 40
f 36 40 41
f 37 42 38
f 38 42 44
f 38 44 45
f 38 45 43
f 40 46 47
f 40 47 41
f 43 45 48
f 45 49 48
f 46 50 47
f 47 50 51
f 48 49 52
f 48 52 53
f 48 53 54
f 48 54 55
f 50 56 57
f 50 57 51
f 54 58 59
f 54 59 55
f 56 60 61
f 56 61 57
f 58 62 63
f 58 63 64
f 58 64 59
f 60 65 62
f 60 62 61
f 62 65 63
