v -0.185096 0.693057 0.10004
v -0.253631 0.693057 0.10004
v -0.171392 0.692704 0.10004
v -0.185096 0.693057 0.0891155
v -0.267349 0.693057 0.0754044
v -0.267349 0.692704 0.0891155
v -0.267349 0.691217 0.10004
v -0.189475 0.690788 -0.0423113
v -0.198801 0.693057 -0.0423113
v -0.158506 0.688873 0.10004
v -0.281054 0.693057 0.00686228
v -0.281054 0.692881 0.0205735
v -0.281054 0.692402 0.0342707
v -0.281054 0.691645 0.0479819
v -0.281054 0.690612 0.0616932
v -0.278296 0.688948 0.0891155
v -0.276176 0.687436 0.10004
v -0.184889 0.689402 -0.0423113
v -0.267349 0.693057 -0.0423113
v -0.15385 0.678916 0.10004
v -0.178667 0.67874 -0.0423113
v -0.281054 0.693057 -0.00684892
v -0.292167 0.689276 0.00686228
v -0.291474 0.6891 0.0205735
v -0.290628 0.688621 0.0342707
v -0.289728 0.687864 0.0479819
v -0.288827 0.686831 0.0616932
v -0.281816 0.688822 0.074847
v -0.288217 0.685999 0.0699143
v -0.27673 0.685344 0.10004
v -0.273017 0.69278 -0.0423113
v -0.281054 0.692881 -0.0205601
v -0.15378 0.678639 0.10004
v -0.178653 0.678639 -0.0423113
v -0.292167 0.689276 -0.00684892
v -0.295243 0.678639 0.00686228
v -0.288217 0.683983 0.0699143
v -0.281026 0.678639 0.0891155
v -0.276883 0.679723 0.10004
v -0.281054 0.691948 -0.0423113
v -0.281054 0.692402 -0.0342713
v -0.291474 0.6891 -0.0205601
v -0.153697 0.665204 0.10004
v -0.178515 0.665254 -0.0423113
v -0.295243 0.678639 -0.00684892
v -0.293677 0.678639 0.0205735
v -0.248865 0.435547 0.00686228
v -0.285834 0.679118 0.074847
v -0.288827 0.681084 0.0616932
v -0.243544 0.435547 0.0474246
v -0.241174 0.435547 0.0616932
v -0.23656 0.435547 0.0761289
v -0.226708 0.435547 0.10004
v -0.285017 0.690385 -0.0423113
v -0.290628 0.688621 -0.0342713
v -0.153697 0.435547 0.10004
v -0.178515 0.435547 -0.0423113
v -0.290102 0.688192 -0.0423113
v -0.293677 0.678639 -0.0205601
v -0.248865 0.435547 -0.00684892
v -0.291931 0.678639 0.0342707
v -0.247257 0.435547 0.0195284
v -0.24019 0.435547 0.0649119
v -0.244195 0.435547 -0.0423113
v -0.290725 0.677958 -0.0423113
v -0.291931 0.678639 -0.0342713
v -0.247798 0.435547 -0.0150561
f 1 2 7
f 1 7 17
f 1 17 30
f 1 30 39
f 1 39 53
f 1 53 56
f 1 56 43
f 1 43 33
f 1 33 20
f 1 20 10
f 1 10 3
f 1 3 4
f 1 4 9
f 1 9 19
f 1 19 22
f 1 22 11
f 1 11 5
f 1 5 2
f 2 5 6
f 2 6 7
f 3 8 9
f 3 9 4
f 3 10 8
f 5 11 12
f 5 12 6
f 6 12 13
f 6 13 14
f 6 14 15
f 6 15 16
f 6 16 7
f 7 16 17
f 8 10 18
f 8 18 21
f 8 21 34
f 8 34 44
f 8 44 57
f 8 57 64
f 8 64 65
f 8 65 58
f 8 58 54
f 8 54 40
f 8 40 31
f 8 31 19
f 8 19 9
f 10 20 21
f 10 21 18
f 11 22 35
f 11 35 23
f 11 23 12
f 12 23 24
f 12 24 13
f 13 24 14
f 14 24 25
f 14 25 15
f 15 25 26
f 15 26 27
f 15 27 28
f 15 28 16
f 16 28 27
f 16 27 29
f 16 29 17
f 17 29 30
f 19 31 32
f 19 32 22
f 20 33 21
f 21 33 34
f 22 32 35
f 23 35 45
f 23 45 36
f 23 36 24
f 24 36 25
f 25 36 26
f 26 36 27
f 27 36 29
f 29 37 38
f 29 38 39
f 29 39 30
f 29 36 37
f 31 40 41
f 31 41 32
f 32 41 42
f 32 42 35
f 33 43 44
f 33 44 34
f 35 42 45
f 36 46 37
f 36 45 60
f 36 60 47
f 36 47 46
f 37 48 38
f 37 46 49
f 37 49 50
f 37 50 51
f 37 51 48
f 38 48 52
f 38 52 39
f 39 52 53
f 40 54 42
f 40 42 41
f 42 55 45
f 42 54 55
f 43 56 57
f 43 57 44
f 45 55 58
f 45 58 59
f 45 59 60
f 46 61 49
f 46 47 62
f 46 62 61
f 47 60 67
f 47 67 64
f 47 64 57
f 47 57 56
f 47 56 53
f 47 53 52
f 47 52 63
f 47 63 51
f 47 51 50
f 47 50 62
f 48 51 63
f 48 63 52
f 49 61 62
f 49 62 50
f 54 58 55
f 58 65 66
f 58 66 59
f 59 66 60
f 60 66 67
f 64 67 66
f 64 66 65
