v 0.445391 -0.0428491 0.00658867
v 0.445391 -0.0428491 -3.39342e-05
v 0.441708 -0.0365609 0.00688022
v 0.44081 -0.0378713 0.0205836
v 0.439912 -0.0392503 0.034287
v 0.443658 -0.0428491 0.0205836
v 0.441708 -0.0365609 -3.39342e-05
v 0.183296 -0.0428491 -3.39342e-05
v 0.437095 -0.0297054 0.00688022
v 0.436198 -0.0310159 0.0205836
v 0.423939 -0.0289231 0.102846
v 0.428521 -0.0357785 0.102846
v 0.4392 -0.0403358 0.0448665
v 0.438612 -0.0413333 0.0540299
v 0.441924 -0.0428491 0.034287
v 0.437095 -0.0297054 -3.39342e-05
v 0.183203 -0.0205616 -3.39342e-05
v 0.129187 -0.0428491 0.128711
v 0.425394 -0.0131682 0.00313159
v 0.429418 -0.0193391 0.00738004
v 0.429326 -0.0215493 0.0205836
v 0.425735 -0.0264293 0.0754388
v 0.42459 -0.027994 0.0928076
v 0.417779 -0.0205616 0.102846
v 0.411465 -0.0134812 0.110135
v 0.422299 -0.031143 0.116549
v 0.427066 -0.0379985 0.116549
v 0.432607 -0.0428491 0.10347
v 0.437776 -0.0428491 0.0664421
v 0.439603 -0.0428491 0.0525721
v 0.425394 -0.0131682 -3.39342e-05
v 0.183203 0.0570587 -3.39342e-05
v 0.129187 0.0570587 0.129711
v 0.129187 -0.0428491 0.425396
v 0.408183 0.00948121 0.00688022
v 0.420968 -0.00789704 0.00738004
v 0.42428 -0.0146938 0.0205836
v 0.423382 -0.0159163 0.034287
v 0.41292 -0.0115253 0.0891422
v 0.420565 -0.021784 0.0886008
v 0.395925 0.0114469 0.0891422
v 0.411991 -0.0127477 0.102846
v 0.394687 0.00995063 0.102846
v 0.398742 0.00148154 0.11255
v 0.409638 -0.0157989 0.119298
v 0.412827 -0.0254904 0.130252
v 0.414715 -0.0204442 0.115466
v 0.425704 -0.0401011 0.125088
v 0.429914 -0.0428491 0.116549
v 0.408183 0.00948121 -3.39342e-05
v 0.364258 0.0570587 -3.39342e-05
v 0.129187 0.0570587 0.338552
v 0.134016 -0.0428491 0.423647
v 0.129187 -0.0368445 0.421564
v 0.401311 0.0182828 0.00688022
v 0.400414 0.017256 0.0205836
v 0.399516 0.0161704 0.034287
v 0.398618 0.0150458 0.0479904
v 0.39738 0.0134224 0.0669836
v 0.407286 0.00827833 0.0205836
v 0.412362 0.00143265 0.0205836
v 0.404716 0.0139309 -3.39342e-05
v 0.389053 0.0198867 0.0891422
v 0.387815 0.0184002 0.102846
v 0.385648 0.0157597 0.116549
v 0.393077 0.0063811 0.116882
v 0.385401 0.00192162 0.143997
v 0.411372 -0.027329 0.137292
v 0.426602 -0.0428491 0.126795
v 0.409484 -0.0298423 0.146455
v 0.412765 -0.0389764 0.15441
v 0.397937 -0.0405803 0.192855
v 0.410877 -0.0418418 0.163532
v 0.424032 -0.0428491 0.133168
v 0.388651 0.0322578 -3.39342e-05
v 0.364258 0.0570587 0.00688022
v 0.129187 0.0338518 0.362877
v 0.15426 0.0287567 0.357879
v 0.157696 0.0570587 0.326765
v 0.129187 -0.0357883 0.420856
v 0.162556 -0.0428491 0.411859
v 0.163547 -0.0418418 0.41086
v 0.154384 -0.0389764 0.412776
v 0.401311 0.0182828 -3.39342e-05
v 0.398433 0.0216763 -3.39342e-05
v 0.395492 0.0251383 0.00688022
v 0.394594 0.0241114 0.0205836
v 0.393697 0.0230259 0.034287
v 0.407255 0.00581388 0.0347452
v 0.383234 0.0267421 0.0891422
v 0.38181 0.0252556 0.102846
v 0.384101 0.0139798 0.123963
v 0.379395 0.0226151 0.116549
v 0.373112 0.0170897 0.143997
v 0.358253 0.0158086 0.182609
v 0.371161 0.0149186 0.153286
v 0.356365 0.0135788 0.19173
v 0.385524 -0.0253535 0.195937
v 0.396544 -0.0287666 0.175736
v 0.383605 -0.0277397 0.205059
v 0.399547 -0.0383017 0.185108
v 0.38701 -0.0366782 0.212514
v 0.396606 -0.0428491 0.199352
v 0.411867 -0.0428491 0.162574
v 0.395492 0.0251383 -3.39342e-05
v 0.388651 0.0322578 0.00688022
v 0.363608 0.0570587 0.0119201
v 0.129187 0.0201018 0.376414
v 0.134078 0.0261456 0.368916
v 0.163392 0.0269475 0.355963
v 0.185091 0.0291968 0.344633
v 0.171409 0.0570587 0.320892
v 0.192521 0.0277103 0.343051
v 0.129899 -0.0350255 0.420023
v 0.129187 -0.0348201 0.420148
v 0.194378 -0.0428491 0.398656
v 0.19283 -0.0405803 0.397948
v 0.146429 -0.0298423 0.409485
v 0.212518 -0.0366782 0.387035
v 0.387753 0.0313483 0.0205836
v 0.385958 0.0295195 0.0479904
v 0.38376 0.0272898 0.0813534
v 0.376393 0.0337247 0.0891422
v 0.355777 0.0541933 0.0914747
v 0.374938 0.0321306 0.102846
v 0.372523 0.0296564 0.116549
v 0.37079 0.0280135 0.124963
v 0.368902 0.0261456 0.134084
v 0.366859 0.0239452 0.143997
v 0.354322 0.0252165 0.171404
v 0.352403 0.0204539 0.186357
v 0.343054 0.0277103 0.192522
v 0.354631 0.0117207 0.198811
v 0.360327 0.00487505 0.198811
v 0.372616 -0.010606 0.198811
v 0.370852 -0.0128357 0.207016
v 0.381903 -0.0298228 0.212514
v 0.385029 -0.0394361 0.22122
v 0.390849 -0.0428491 0.212681
v 0.355343 0.0570587 0.0754388
v 0.129187 0.0101071 0.384869
v 0.133087 0.0116034 0.382203
v 0.143983 0.0170897 0.373082
v 0.143983 0.0239452 0.366834
v 0.171409 0.0252165 0.354297
v 0.191716 0.0410202 0.328889
v 0.178281 0.0570587 0.317643
v 0.18633 0.0204539 0.352422
v 0.191716 0.0135788 0.356338
v 0.198805 0.0117207 0.35463
v 0.197783 0.0205517 0.346966
v 0.201652 0.0251187 0.340135
v 0.137297 -0.027329 0.411359
v 0.13027 -0.0254904 0.412817
v 0.129187 -0.0259403 0.413567
v 0.203355 -0.0428491 0.394865
v 0.221247 -0.0394361 0.385036
v 0.185091 -0.0314462 0.394615
v 0.205057 -0.0277397 0.383619
v 0.212518 -0.0298228 0.38187
v 0.353238 0.0570587 0.0899753
v 0.349307 0.0570587 0.102846
v 0.354012 0.0525308 0.102846
v 0.36107 0.0456753 0.102846
v 0.367942 0.0389861 0.102846
v 0.33643 0.0570587 0.134251
v 0.324048 0.0570587 0.164157
v 0.357882 0.0287567 0.154244
v 0.344633 0.0291968 0.185108
v 0.355962 0.0269475 0.163407
v 0.346955 0.0205517 0.19777
v 0.320891 0.0570587 0.171404
v 0.328908 0.0410202 0.191689
v 0.340176 0.0251187 0.201643
v 0.344974 0.0159748 0.208641
v 0.358098 0.00204876 0.208183
v 0.372338 -0.0249428 0.222344
v 0.377136 -0.0341062 0.226343
v 0.372771 -0.0379202 0.236464
v 0.381346 -0.0428491 0.229883
v 0.382708 -0.0428491 0.228009
v 0.385989 -0.0428491 0.223011
v 0.129187 0.00703633 0.387451
v 0.143983 0.00876731 0.379954
v 0.162402 0.0125911 0.369291
v 0.15327 0.0149186 0.371166
v 0.182584 0.0158086 0.358254
v 0.188187 0.0570587 0.311854
v 0.18568 0.0570587 0.313561
v 0.181594 0.0570587 0.315977
v 0.181098 0.056423 0.316977
v 0.208246 0.0290305 0.331013
v 0.20029 0.0570587 0.302857
v 0.198805 0.00487505 0.360336
v 0.208153 0.00204876 0.358087
v 0.208617 0.0159748 0.344967
v 0.213013 0.0210406 0.336261
v 0.217408 0.0260967 0.327515
v 0.166611 -0.0263413 0.398447
v 0.129187 -0.0183514 0.407611
v 0.129187 -0.0251188 0.412942
v 0.217935 -0.0428491 0.388576
v 0.223042 -0.0428491 0.385994
v 0.229914 -0.0428491 0.38137
v 0.236508 -0.0379202 0.37279
v 0.226385 -0.0341062 0.377122
v 0.222361 -0.0249428 0.372332
v 0.207008 -0.0128357 0.370832
v 0.199826 -0.0206887 0.380204
v 0.31764 0.0570587 0.178277
v 0.30888 0.0570587 0.192188
v 0.326215 0.0388296 0.198811
v 0.331013 0.0290305 0.208266
v 0.31699 0.056423 0.181109
v 0.315969 0.0570587 0.181609
v 0.311852 0.0570587 0.18819
v 0.336275 0.0210406 0.212973
v 0.316216 0.0146253 0.247918
v 0.328846 0.0135104 0.23284
v 0.341507 0.0123662 0.217721
v 0.349926 0.00720258 0.212931
v 0.298727 0.0248155 0.256707
v 0.294827 0.0207473 0.267411
v 0.303556 0.0156717 0.262996
v 0.354879 -0.00171637 0.217263
v 0.364011 -0.0197988 0.227134
v 0.368933 -0.0287862 0.231466
v 0.369273 -0.0424384 0.245628
v 0.335749 -0.0343507 0.280865
v 0.343983 -0.0395632 0.275783
v 0.356644 -0.040903 0.260705
v 0.369861 -0.0428491 0.245211
v 0.129187 -0.00286057 0.395324
v 0.129218 0.00696787 0.387493
v 0.156706 0.00634198 0.376622
v 0.171409 0.00339833 0.372873
v 0.247589 0.0279059 0.302232
v 0.240222 0.0570587 0.272285
v 0.225054 0.0570587 0.283905
v 0.189456 -0.00130563 0.369125
v 0.212951 0.00720258 0.349923
v 0.217749 0.0123662 0.34151
v 0.232855 0.0135104 0.328847
v 0.247961 0.0146253 0.316185
v 0.263067 0.0156717 0.303565
v 0.271827 0.0258131 0.286071
v 0.129187 -0.0105766 0.401446
v 0.231555 -0.0428491 0.380162
v 0.231493 -0.0287862 0.368958
v 0.245639 -0.0424384 0.369291
v 0.260745 -0.040903 0.356629
v 0.275851 -0.0395632 0.343967
v 0.280897 -0.0343507 0.33572
v 0.285943 -0.029148 0.327473
v 0.222826 -0.0108505 0.359087
v 0.217285 -0.00171637 0.35488
v 0.297582 0.0570587 0.207141
v 0.314854 0.0270355 0.232466
v 0.327515 0.0260967 0.217346
v 0.280494 0.0570587 0.229508
v 0.289564 0.0287763 0.262663
v 0.300058 0.0120239 0.27216
v 0.33934 -0.00369184 0.239921
v 0.286097 0.0258131 0.271785
v 0.290926 0.0166692 0.278074
v 0.355591 -0.0146547 0.231924
v 0.346057 -0.0213439 0.252417
v 0.359801 -0.0237888 0.237422
v 0.356303 -0.0275833 0.246544
v 0.314854 -0.0279353 0.300983
v 0.327484 -0.029148 0.285905
v 0.327794 -0.0428491 0.300025
v 0.323088 -0.0331087 0.295943
v 0.318693 -0.0370792 0.305981
v 0.331322 -0.0382919 0.290903
v 0.315102 -0.0413724 0.315102
v 0.262695 0.0287763 0.28957
v 0.266565 0.0337638 0.280448
v 0.259909 0.0544573 0.259872
v 0.250933 0.0570587 0.263746
v 0.232422 -0.000562382 0.342218
v 0.272199 0.0120239 0.300066
v 0.278111 0.0166692 0.290903
v 0.287274 0.0131485 0.287237
v 0.276966 0.0296173 0.276908
v 0.245237 -0.0428491 0.369874
v 0.237467 -0.0237888 0.359795
v 0.300987 -0.0279353 0.314853
v 0.246599 -0.0275833 0.356296
v 0.300027 -0.0428491 0.327806
v 0.290895 -0.0382919 0.331347
v 0.295941 -0.0331087 0.3231
v 0.266503 -0.0212852 0.33522
v 0.251861 -0.00835668 0.334512
v 0.267555 0.0570587 0.246336
v 0.280464 0.0337638 0.266537
v 0.295848 0.00801428 0.282448
v 0.309933 -0.0189968 0.296651
v 0.314142 -0.014997 0.286363
v 0.316928 0.00173581 0.26258
v 0.330301 -0.0123467 0.262122
v 0.318352 -0.0241311 0.291861
v 0.30142 -0.0138626 0.301399
v 0.3173 -0.0428491 0.313561
v 0.30597 -0.0370792 0.318684
v 0.313585 -0.0428491 0.31731
v 0.258021 0.0570587 0.257998
v 0.28684 -0.000904666 0.300774
v 0.282476 0.00801428 0.295818
v 0.286376 -0.014997 0.314144
v 0.27678 -0.0252851 0.331013
f 1 2 7
f 1 7 3
f 1 3 4
f 1 4 5
f 1 5 6
f 1 6 15
f 1 15 30
f 1 30 29
f 1 29 28
f 1 28 49
f 1 49 69
f 1 69 74
f 1 74 104
f 1 104 103
f 1 103 139
f 1 139 182
f 1 182 181
f 1 181 180
f 1 180 232
f 1 232 272
f 1 272 304
f 1 304 306
f 1 306 290
f 1 290 286
f 1 286 248
f 1 248 204
f 1 204 203
f 1 203 202
f 1 202 156
f 1 156 116
f 1 116 81
f 1 81 53
f 1 53 34
f 1 34 18
f 1 18 8
f 1 8 2
f 2 8 17
f 2 17 32
f 2 32 51
f 2 51 75
f 2 75 105
f 2 105 85
f 2 85 84
f 2 84 62
f 2 62 50
f 2 50 31
f 2 31 16
f 2 16 7
f 3 9 10
f 3 10 4
f 3 7 16
f 3 16 9
f 4 10 11
f 4 11 12
f 4 12 5
f 5 13 6
f 5 12 13
f 6 13 14
f 6 14 15
f 8 18 17
f 9 16 31
f 9 31 19
f 9 19 20
f 9 20 21
f 9 21 22
f 9 22 23
f 9 23 11
f 9 11 10
f 11 23 24
f 11 24 25
f 11 25 26
f 11 26 27
f 11 27 12
f 12 27 28
f 12 28 29
f 12 29 14
f 12 14 13
f 14 29 30
f 14 30 15
f 17 18 32
f 18 33 32
f 18 34 54
f 18 54 80
f 18 80 115
f 18 115 155
f 18 155 201
f 18 201 200
f 18 200 247
f 18 247 233
f 18 233 183
f 18 183 141
f 18 141 108
f 18 108 77
f 18 77 52
f 18 52 33
f 19 31 50
f 19 50 35
f 19 35 36
f 19 36 20
f 20 36 37
f 20 37 21
f 21 37 22
f 22 37 38
f 22 38 39
f 22 39 40
f 22 40 24
f 22 24 23
f 24 40 39
f 24 39 41
f 24 41 42
f 24 42 25
f 25 43 44
f 25 44 45
f 25 45 46
f 25 46 47
f 25 47 26
f 25 42 41
f 25 41 43
f 26 48 27
f 26 47 46
f 26 46 48
f 27 48 49
f 27 49 28
f 32 33 52
f 32 52 79
f 32 79 112
f 32 112 147
f 32 147 190
f 32 190 189
f 32 189 188
f 32 188 193
f 32 193 239
f 32 239 238
f 32 238 280
f 32 280 307
f 32 307 295
f 32 295 260
f 32 260 257
f 32 257 211
f 32 211 216
f 32 216 215
f 32 215 210
f 32 210 172
f 32 172 167
f 32 167 166
f 32 166 162
f 32 162 161
f 32 161 140
f 32 140 107
f 32 107 76
f 32 76 51
f 34 53 54
f 35 55 56
f 35 56 57
f 35 57 58
f 35 58 59
f 35 59 60
f 35 60 61
f 35 61 36
f 35 50 62
f 35 62 55
f 36 61 37
f 37 61 38
f 38 61 39
f 39 61 41
f 41 63 64
f 41 64 43
f 41 61 59
f 41 59 63
f 43 64 44
f 44 64 65
f 44 65 66
f 44 66 46
f 44 46 45
f 46 67 68
f 46 68 48
f 46 66 67
f 48 69 49
f 48 68 70
f 48 70 71
f 48 71 72
f 48 72 73
f 48 73 74
f 48 74 69
f 51 76 106
f 51 106 75
f 52 77 78
f 52 78 79
f 53 80 54
f 53 81 82
f 53 82 83
f 53 83 80
f 55 62 84
f 55 84 85
f 55 85 86
f 55 86 87
f 55 87 56
f 56 87 88
f 56 88 57
f 57 88 90
f 57 90 63
f 57 63 58
f 58 63 59
f 59 61 89
f 59 89 60
f 60 89 61
f 63 90 64
f 64 90 91
f 64 91 65
f 65 92 66
f 65 91 93
f 65 93 129
f 65 129 94
f 65 94 95
f 65 95 96
f 65 96 92
f 66 92 67
f 67 92 97
f 67 97 98
f 67 98 68
f 68 99 70
f 68 98 100
f 68 100 99
f 70 101 71
f 70 99 102
f 70 102 101
f 71 101 72
f 72 102 103
f 72 103 73
f 72 101 102
f 73 104 74
f 73 103 104
f 75 106 86
f 75 86 105
f 76 107 106
f 77 108 109
f 77 109 78
f 78 110 111
f 78 111 79
f 78 109 110
f 79 111 113
f 79 113 112
f 80 114 115
f 80 83 114
f 81 116 82
f 82 116 117
f 82 117 83
f 83 118 114
f 83 117 119
f 83 119 118
f 85 105 86
f 86 106 120
f 86 120 121
f 86 121 122
f 86 122 90
f 86 90 87
f 87 90 88
f 90 123 91
f 90 122 123
f 91 123 124
f 91 124 125
f 91 125 126
f 91 126 93
f 92 96 97
f 93 126 127
f 93 127 128
f 93 128 129
f 94 129 95
f 95 129 130
f 95 130 131
f 95 131 97
f 95 97 96
f 97 132 133
f 97 133 134
f 97 134 98
f 97 131 132
f 98 134 135
f 98 135 100
f 99 100 102
f 100 135 134
f 100 134 136
f 100 136 137
f 100 137 102
f 102 137 138
f 102 138 103
f 103 138 139
f 106 107 140
f 106 140 120
f 108 141 142
f 108 142 143
f 108 143 109
f 109 143 144
f 109 144 145
f 109 145 110
f 110 145 113
f 110 113 111
f 112 146 147
f 112 113 146
f 113 145 148
f 113 148 149
f 113 149 150
f 113 150 151
f 113 151 152
f 113 152 146
f 114 118 153
f 114 153 154
f 114 154 115
f 115 154 155
f 116 156 117
f 117 156 157
f 117 157 119
f 118 119 158
f 118 158 159
f 118 159 153
f 119 157 160
f 119 160 159
f 119 159 158
f 120 140 121
f 121 140 122
f 122 140 123
f 123 161 124
f 123 140 161
f 124 161 162
f 124 162 163
f 124 163 164
f 124 164 165
f 124 165 125
f 125 165 126
f 126 165 164
f 126 164 163
f 126 163 162
f 126 162 166
f 126 166 127
f 127 166 167
f 127 167 168
f 127 168 169
f 127 169 170
f 127 170 128
f 128 170 130
f 128 130 129
f 130 170 132
f 130 132 131
f 132 171 133
f 132 170 169
f 132 169 167
f 132 167 172
f 132 172 173
f 132 173 174
f 132 174 171
f 133 171 175
f 133 175 176
f 133 176 134
f 134 176 136
f 136 176 137
f 137 176 138
f 138 177 178
f 138 178 179
f 138 179 180
f 138 180 181
f 138 181 182
f 138 182 139
f 138 176 177
f 141 183 142
f 142 184 185
f 142 185 186
f 142 186 143
f 142 183 184
f 143 186 187
f 143 187 144
f 144 187 145
f 145 187 148
f 146 188 189
f 146 189 190
f 146 190 191
f 146 191 147
f 146 152 192
f 146 192 193
f 146 193 188
f 147 191 190
f 148 187 149
f 149 187 186
f 149 186 185
f 149 185 194
f 149 194 150
f 150 194 195
f 150 195 196
f 150 196 151
f 151 196 152
f 152 196 197
f 152 197 198
f 152 198 192
f 153 199 154
f 153 159 199
f 154 199 200
f 154 200 201
f 154 201 155
f 156 202 157
f 157 202 203
f 157 203 204
f 157 204 205
f 157 205 206
f 157 206 207
f 157 207 195
f 157 195 160
f 159 160 208
f 159 208 194
f 159 194 209
f 159 209 199
f 160 195 208
f 167 169 168
f 171 174 175
f 172 210 173
f 173 211 212
f 173 212 213
f 173 213 174
f 173 210 214
f 173 214 215
f 173 215 216
f 173 216 211
f 174 213 217
f 174 217 175
f 175 218 219
f 175 219 220
f 175 220 221
f 175 221 176
f 175 217 222
f 175 222 223
f 175 223 224
f 175 224 218
f 176 221 177
f 177 221 225
f 177 225 226
f 177 226 227
f 177 227 178
f 178 227 179
f 179 228 180
f 179 227 229
f 179 229 230
f 179 230 231
f 179 231 228
f 180 228 232
f 183 233 234
f 183 234 235
f 183 235 184
f 184 235 185
f 185 235 236
f 185 236 194
f 192 198 237
f 192 237 238
f 192 238 239
f 192 239 193
f 194 236 240
f 194 240 209
f 194 208 195
f 195 241 196
f 195 207 241
f 196 241 242
f 196 242 243
f 196 243 244
f 196 244 245
f 196 245 197
f 197 245 246
f 197 246 198
f 198 246 237
f 199 247 200
f 199 209 236
f 199 236 247
f 204 248 205
f 205 249 206
f 205 248 250
f 205 250 251
f 205 251 252
f 205 252 253
f 205 253 254
f 205 254 249
f 206 249 207
f 207 249 255
f 207 255 256
f 207 256 241
f 209 240 236
f 210 215 214
f 211 257 212
f 212 257 213
f 213 258 259
f 213 259 217
f 213 257 260
f 213 260 261
f 213 261 258
f 217 259 222
f 218 224 262
f 218 262 219
f 219 262 220
f 220 225 221
f 220 262 263
f 220 263 225
f 222 264 223
f 222 259 264
f 223 264 265
f 223 265 224
f 224 265 262
f 225 263 266
f 225 266 226
f 226 266 267
f 226 267 268
f 226 268 227
f 227 268 269
f 227 269 270
f 227 270 271
f 227 271 229
f 228 231 272
f 228 272 232
f 229 271 270
f 229 270 273
f 229 273 274
f 229 274 275
f 229 275 230
f 230 275 276
f 230 276 231
f 231 276 272
f 233 247 236
f 233 236 235
f 233 235 234
f 237 246 277
f 237 277 238
f 238 278 279
f 238 279 280
f 238 277 278
f 241 256 242
f 242 256 255
f 242 255 281
f 242 281 282
f 242 282 243
f 243 282 244
f 244 282 245
f 245 282 283
f 245 283 246
f 246 283 284
f 246 284 285
f 246 285 279
f 246 279 278
f 246 278 277
f 248 286 250
f 249 287 255
f 249 254 288
f 249 288 289
f 249 289 287
f 250 286 290
f 250 290 251
f 251 290 276
f 251 276 252
f 252 276 291
f 252 291 253
f 253 291 254
f 254 291 292
f 254 292 288
f 255 289 293
f 255 293 294
f 255 294 281
f 255 287 289
f 258 261 264
f 258 264 259
f 260 295 261
f 261 296 264
f 261 295 296
f 262 265 284
f 262 284 297
f 262 297 298
f 262 298 299
f 262 299 300
f 262 300 263
f 263 267 266
f 263 300 301
f 263 301 267
f 264 296 279
f 264 279 285
f 264 285 284
f 264 284 265
f 267 269 268
f 267 301 299
f 267 299 302
f 267 302 270
f 267 270 269
f 270 302 298
f 270 298 303
f 270 303 276
f 270 276 274
f 270 274 273
f 272 276 304
f 274 276 275
f 276 288 305
f 276 305 291
f 276 290 306
f 276 306 304
f 276 303 288
f 279 307 280
f 279 296 295
f 279 295 307
f 281 294 282
f 282 308 309
f 282 309 284
f 282 284 283
f 282 294 293
f 282 293 308
f 284 309 308
f 284 308 303
f 284 303 297
f 288 310 311
f 288 311 289
f 288 292 305
f 288 303 308
f 288 308 310
f 289 311 293
f 291 305 292
f 293 311 310
f 293 310 308
f 297 303 298
f 298 302 299
f 299 301 300
