v -0.00012922 -0.0800489 0.46583
v -0.00012922 -0.0545229 0.452604
v -0.00514511 -0.0800489 0.46583
v -0.00012922 -0.0800489 -0.465831
v -0.00140599 -0.0545229 0.452604
v -0.00012922 -0.0491667 0.449046
v -0.00806343 -0.0761781 0.463458
v -0.0113921 -0.0800489 0.4651
v -0.00514511 -0.0800489 -0.465831
v -0.00012922 -0.0545199 -0.452605
v -0.0206031 -0.0636681 0.455066
v -0.00633068 -0.0491667 0.449046
v -0.0342827 -0.0490849 0.445398
v -0.00012922 -0.0490849 0.448955
v -0.0206031 -0.0800489 0.463914
v -0.0149488 -0.0800489 0.464644
v -0.0113921 -0.0800489 -0.465101
v -0.00806343 -0.076175 -0.46346
v -0.00140599 -0.0545199 -0.452605
v -0.00012922 -0.0491637 -0.449048
v -0.00633068 -0.0490849 0.448955
v -0.00728825 -0.0490849 0.448864
v -0.0937892 -0.0490849 0.437553
v -0.0568086 -0.0680786 0.452695
v -0.00012922 -0.0490849 -0.448957
v -0.0400282 -0.0800489 0.46136
v -0.0157696 -0.0800489 -0.464554
v -0.0206031 -0.0636681 -0.455068
v -0.0342827 -0.0490849 -0.445399
v -0.00633068 -0.0491637 -0.449048
v -0.104551 -0.0490849 0.436094
v -0.109338 -0.0549352 0.438648
v -0.104003 -0.0603823 0.442296
v -0.0891381 -0.0800489 0.454884
v -0.00642188 -0.0490849 -0.448957
v -0.0261662 -0.0800489 -0.463186
v -0.048008 -0.0754051 -0.457804
v -0.0799728 -0.0490849 -0.439379
v -0.00728825 -0.0490849 -0.448865
v -0.0719018 -0.0800489 -0.457166
v -0.116543 -0.0490849 0.43354
v -0.116543 -0.0565053 0.437736
v -0.118686 -0.0800489 0.450506
v -0.113032 -0.0800489 0.451509
v -0.109749 -0.0800489 0.452056
v -0.102863 -0.0800489 0.45306
v -0.0987595 -0.0800489 0.453607
v -0.109338 -0.0549352 -0.438649
v -0.102635 -0.0490849 -0.436369
v -0.0891381 -0.0800489 -0.454885
v -0.104003 -0.0603823 -0.442298
v -0.117729 -0.0490849 0.433175
v -0.126848 -0.0661022 0.440107
v -0.130633 -0.0800489 0.446583
v -0.116543 -0.0565053 -0.437737
v -0.116543 -0.0490849 -0.433541
v -0.115403 -0.0490849 -0.433815
v -0.104003 -0.0490849 -0.436187
v -0.0987595 -0.0800489 -0.453608
v -0.102863 -0.0800489 -0.453061
v -0.113032 -0.0800489 -0.451511
v -0.116315 -0.0800489 -0.450963
v -0.118686 -0.0800489 -0.450507
v -0.131317 -0.0490849 0.428432
v -0.135193 -0.0800489 0.444759
v -0.130952 -0.074526 0.4433
v -0.126848 -0.0661022 -0.440109
v -0.127988 -0.0490849 -0.429619
v -0.12434 -0.0800489 -0.448774
v -0.184166 -0.0490849 0.40654
v -0.18786 -0.0800489 0.422959
v -0.143994 -0.079085 0.440563
v -0.130952 -0.0616008 -0.435822
v -0.132822 -0.0490849 -0.427795
v -0.129995 -0.0490849 -0.428889
v -0.130633 -0.0800489 -0.446585
v -0.130952 -0.074526 -0.443301
v -0.213851 -0.0748625 0.409186
v -0.205734 -0.0490849 0.397601
v -0.212893 -0.0800489 0.412561
v -0.143994 -0.079085 -0.440565
v -0.144723 -0.0490849 -0.422869
v -0.153205 -0.0800489 -0.437281
v -0.22028 -0.0800489 0.409459
v -0.217544 -0.0561749 0.396781
v -0.213304 -0.0490849 0.394409
v -0.18786 -0.0800489 -0.422961
v -0.184166 -0.0490849 -0.406542
v -0.22671 -0.0800489 0.406632
v -0.226071 -0.0490849 0.387933
v -0.232455 -0.0690728 0.397237
v -0.209109 -0.0800489 -0.414113
v -0.213851 -0.0748625 -0.409187
v -0.212802 -0.0490849 -0.394684
v -0.237198 -0.0800489 0.400794
v -0.232729 -0.0490849 0.383646
v -0.240663 -0.0743472 0.394591
v -0.243855 -0.0800489 0.39596
v -0.236605 -0.078212 0.400064
v -0.217636 -0.0800489 -0.410555
v -0.217544 -0.0561719 -0.396782
v -0.225205 -0.0490849 -0.38839
v -0.239842 -0.0800489 0.398878
v -0.256851 -0.0726952 0.381092
v -0.255802 -0.0490849 0.36595
v -0.253157 -0.0800489 0.388845
v -0.22671 -0.0800489 -0.406633
v -0.232455 -0.0690728 -0.397238
v -0.226071 -0.0490849 -0.387934
v -0.262687 -0.0800489 0.381548
v -0.302769 -0.0490849 0.329921
v -0.314305 -0.0800489 0.341961
v -0.307055 -0.0800489 0.347525
v -0.237198 -0.0800489 -0.400795
v -0.243855 -0.0800489 -0.395961
v -0.240663 -0.0743472 -0.394593
v -0.234507 -0.0531619 -0.385015
v -0.227303 -0.0490849 -0.387113
v -0.236605 -0.078212 -0.400066
v -0.307146 -0.0490849 0.326546
v -0.313211 -0.0572541 0.327367
v -0.32192 -0.075878 0.333204
v -0.322376 -0.0800489 0.335667
v -0.253157 -0.0800489 -0.388846
v -0.262687 -0.0800489 -0.381549
v -0.253248 -0.0621434 -0.376715
v -0.243308 -0.0490849 -0.375529
v -0.238748 -0.0490849 -0.378995
v -0.310384 -0.0490849 0.323992
v -0.329763 -0.0800489 0.329738
v -0.307055 -0.0800489 -0.347526
v -0.254844 -0.0490849 -0.366681
v -0.314989 -0.0490849 0.320069
v -0.317771 -0.0490849 0.317698
v -0.324018 -0.0490849 0.310401
v -0.333229 -0.075878 0.321894
v -0.335737 -0.0800489 0.32235
v -0.314305 -0.0800489 -0.341962
v -0.30213 -0.0679664 -0.343148
v -0.264238 -0.0490849 -0.359476
v -0.335281 -0.0626133 0.307664
v -0.344264 -0.0800489 0.311313
v -0.342029 -0.0490849 0.286959
v -0.317588 -0.0800489 -0.339408
v -0.313211 -0.0572541 -0.327368
v -0.307146 -0.0490849 -0.326547
v -0.294789 -0.0490849 -0.336033
v -0.391914 -0.0800489 0.249196
v -0.378052 -0.0490849 0.239984
v -0.322376 -0.0800489 -0.335669
v -0.32192 -0.075878 -0.333206
v -0.328851 -0.0800489 -0.330469
v -0.310384 -0.0490849 -0.323993
v -0.387491 -0.0624375 0.239436
v -0.394605 -0.0743472 0.240622
v -0.395973 -0.0800489 0.243815
v -0.383615 -0.0490849 0.232595
v -0.384983 -0.0531649 0.234511
v -0.330493 -0.0800489 -0.328828
v -0.318272 -0.0505156 -0.318247
v -0.314989 -0.0490849 -0.320071
v -0.397204 -0.0690728 0.232413
v -0.400077 -0.0782151 0.236609
v -0.400852 -0.0800489 0.237156
v -0.387947 -0.0490849 0.226028
v -0.335737 -0.0800489 -0.322351
v -0.333229 -0.075878 -0.321895
v -0.324018 -0.0490849 -0.310402
v -0.320051 -0.0490849 -0.314963
v -0.406597 -0.0800489 0.226666
v -0.402767 -0.0800489 0.23369
v -0.396793 -0.0561749 0.217454
v -0.399438 -0.0653111 0.223291
v -0.394422 -0.0490849 0.213258
v -0.343671 -0.0800489 -0.312044
v -0.335281 -0.0626102 -0.307666
v -0.335645 -0.0490849 -0.295261
v -0.41061 -0.0800489 0.217545
v -0.395015 -0.0490849 0.21189
v -0.363506 -0.0800489 -0.286231
v -0.377095 -0.0490849 -0.241262
v -0.398709 -0.0529073 0.208332
v -0.413528 -0.0800489 0.210521
v -0.418043 -0.0490849 0.15634
v -0.394286 -0.0800489 -0.246096
v -0.387491 -0.0624375 -0.239438
v -0.384983 -0.0531649 -0.234512
v -0.37901 -0.0490849 -0.238708
v -0.424016 -0.0800489 0.185255
v -0.425521 -0.0490849 0.13828
v -0.440568 -0.079085 0.143935
v -0.395973 -0.0800489 -0.243816
v -0.394605 -0.0743472 -0.240624
v -0.397204 -0.0690728 -0.232414
v -0.387537 -0.0490849 -0.226668
v -0.441161 -0.0800489 0.143844
v -0.427801 -0.0490849 0.132716
v -0.435826 -0.0616008 0.130891
v -0.443304 -0.074526 0.130891
v -0.398937 -0.0800489 -0.239803
v -0.400077 -0.078212 -0.23661
v -0.400852 -0.0800489 -0.237157
v -0.406597 -0.0800489 -0.226668
v -0.399438 -0.0653111 -0.223293
v -0.396793 -0.0561749 -0.217455
v -0.387947 -0.0490849 -0.226029
v -0.446633 -0.0800489 0.130527
v -0.428941 -0.0490849 0.129888
v -0.440112 -0.0661022 0.126787
v -0.41061 -0.0800489 -0.217546
v -0.395015 -0.0490849 -0.211891
v -0.394422 -0.0490849 -0.213259
v -0.394194 -0.0490849 -0.213715
v -0.448822 -0.0800489 0.124324
v -0.429625 -0.0490849 0.127973
v -0.433546 -0.0490849 0.11648
v -0.413528 -0.0800489 -0.210523
v -0.398709 -0.0529073 -0.208334
v -0.416538 -0.0490849 -0.15999
v -0.450554 -0.0800489 0.118578
v -0.433865 -0.0490849 0.115385
v -0.426205 -0.0800489 -0.179966
v -0.440568 -0.079085 -0.143937
v -0.435826 -0.0616008 -0.130893
v -0.427801 -0.0490849 -0.132717
v -0.438653 -0.0549352 0.109274
v -0.451558 -0.0800489 0.112922
v -0.436145 -0.0490849 0.104257
v -0.441161 -0.0800489 -0.143845
v -0.444763 -0.0800489 -0.135089
v -0.443304 -0.074526 -0.130893
v -0.440112 -0.0661022 -0.126788
v -0.428393 -0.0490849 -0.131258
v -0.452105 -0.0800489 0.10973
v -0.436236 -0.0490849 0.10371
v -0.453199 -0.0800489 0.101977
v -0.446633 -0.0800489 -0.130528
v -0.428941 -0.0490849 -0.12989
v -0.450554 -0.0800489 -0.118579
v -0.433546 -0.0490849 -0.116481
v -0.433181 -0.0490849 -0.117667
v -0.437559 -0.0490849 0.0937673
v -0.460313 -0.0800489 0.0479779
v -0.451558 -0.0800489 -0.112924
v -0.438653 -0.0549352 -0.109275
v -0.436145 -0.0490849 -0.104258
v -0.44034 -0.0490849 0.0726057
v -0.451375 -0.0568145 0.0205224
v -0.457805 -0.0754051 0.0479779
v -0.464553 -0.0800489 0.0156881
v -0.453062 -0.0800489 -0.102799
v -0.449643 -0.0736924 -0.102799
v -0.436236 -0.0490849 -0.103711
v -0.443851 -0.0490849 0.0458799
v -0.44718 -0.0490849 0.0205224
v -0.448913 -0.0490849 0.00720516
v -0.452014 -0.055599 0.0104889
v -0.452606 -0.0545199 0.00136746
v -0.463459 -0.0761781 0.00793487
v -0.465876 -0.0800489 0.00510723
v -0.454886 -0.0800489 -0.0891169
v -0.450554 -0.0720222 -0.0891169
v -0.439383 -0.0490849 -0.0799043
v -0.449004 -0.0490849 0.00638423
v -0.452606 -0.0545199 -0.00136897
v -0.465876 -0.0800489 -0.00510875
v -0.460313 -0.0800489 -0.0479794
v -0.457805 -0.0754051 -0.0479794
v -0.451375 -0.0568145 -0.0205239
v -0.446998 -0.0490849 -0.0219834
v -0.449004 -0.0490849 -0.00629453
v -0.448913 -0.0490849 -0.00720667
v -0.452014 -0.055599 -0.0104904
v -0.463459 -0.0761781 -0.00793638
v -0.465101 -0.0800489 -0.0113113
v -0.463915 -0.0800489 -0.0205239
v -0.464645 -0.0800489 -0.0148687
f 1 2 5
f 1 5 3
f 1 3 8
f 1 8 16
f 1 16 15
f 1 15 26
f 1 26 34
f 1 34 47
f 1 47 46
f 1 46 45
f 1 45 44
f 1 44 43
f 1 43 54
f 1 54 65
f 1 65 71
f 1 71 80
f 1 80 84
f 1 84 89
f 1 89 95
f 1 95 103
f 1 103 98
f 1 98 106
f 1 106 110
f 1 110 113
f 1 113 112
f 1 112 123
f 1 123 130
f 1 130 137
f 1 137 142
f 1 142 148
f 1 148 156
f 1 156 164
f 1 164 171
f 1 171 170
f 1 170 178
f 1 178 183
f 1 183 189
f 1 189 196
f 1 196 207
f 1 207 214
f 1 214 220
f 1 220 227
f 1 227 234
f 1 234 236
f 1 236 243
f 1 243 250
f 1 250 260
f 1 260 266
f 1 266 275
f 1 275 277
f 1 277 276
f 1 276 267
f 1 267 261
f 1 261 251
f 1 251 244
f 1 244 239
f 1 239 237
f 1 237 230
f 1 230 229
f 1 229 222
f 1 222 217
f 1 217 210
f 1 210 203
f 1 203 202
f 1 202 200
f 1 200 192
f 1 192 185
f 1 185 180
f 1 180 175
f 1 175 166
f 1 166 159
f 1 159 152
f 1 152 150
f 1 150 144
f 1 144 138
f 1 138 131
f 1 131 125
f 1 125 124
f 1 124 115
f 1 115 114
f 1 114 107
f 1 107 100
f 1 100 92
f 1 92 87
f 1 87 83
f 1 83 76
f 1 76 69
f 1 69 63
f 1 63 62
f 1 62 61
f 1 61 60
f 1 60 59
f 1 59 50
f 1 50 40
f 1 40 36
f 1 36 27
f 1 27 17
f 1 17 9
f 1 9 4
f 1 4 10
f 1 10 20
f 1 20 25
f 1 25 14
f 1 14 6
f 1 6 2
f 2 6 12
f 2 12 5
f 3 7 8
f 3 5 7
f 4 9 19
f 4 19 10
f 5 11 7
f 5 12 13
f 5 13 11
f 6 14 21
f 6 21 12
f 7 15 16
f 7 16 8
f 7 11 15
f 9 17 18
f 9 18 19
f 10 19 30
f 10 30 20
f 11 13 15
f 12 21 22
f 12 22 13
f 13 22 21
f 13 21 14
f 13 14 25
f 13 25 35
f 13 35 39
f 13 39 29
f 13 29 38
f 13 38 49
f 13 49 58
f 13 58 57
f 13 57 56
f 13 56 68
f 13 68 75
f 13 75 74
f 13 74 82
f 13 82 88
f 13 88 94
f 13 94 102
f 13 102 109
f 13 109 118
f 13 118 128
f 13 128 127
f 13 127 132
f 13 132 140
f 13 140 147
f 13 147 146
f 13 146 153
f 13 153 161
f 13 161 169
f 13 169 168
f 13 168 177
f 13 177 181
f 13 181 188
f 13 188 195
f 13 195 206
f 13 206 213
f 13 213 212
f 13 212 211
f 13 211 219
f 13 219 225
f 13 225 233
f 13 233 238
f 13 238 241
f 13 241 240
f 13 240 246
f 13 246 253
f 13 253 263
f 13 263 270
f 13 270 272
f 13 272 271
f 13 271 264
f 13 264 256
f 13 256 255
f 13 255 254
f 13 254 247
f 13 247 242
f 13 242 235
f 13 235 228
f 13 228 221
f 13 221 216
f 13 216 215
f 13 215 208
f 13 208 197
f 13 197 190
f 13 190 184
f 13 184 179
f 13 179 174
f 13 174 165
f 13 165 157
f 13 157 149
f 13 149 143
f 13 143 135
f 13 135 134
f 13 134 133
f 13 133 129
f 13 129 120
f 13 120 111
f 13 111 105
f 13 105 96
f 13 96 90
f 13 90 86
f 13 86 79
f 13 79 70
f 13 70 64
f 13 64 52
f 13 52 41
f 13 41 31
f 13 31 23
f 13 23 24
f 13 24 15
f 15 24 26
f 17 27 18
f 18 27 28
f 18 28 19
f 19 28 29
f 19 29 30
f 20 30 35
f 20 35 25
f 23 31 32
f 23 32 33
f 23 33 34
f 23 34 24
f 24 34 26
f 27 36 37
f 27 37 29
f 27 29 28
f 29 39 30
f 29 37 40
f 29 40 38
f 30 39 35
f 31 41 32
f 32 41 42
f 32 42 43
f 32 43 44
f 32 44 45
f 32 45 46
f 32 46 47
f 32 47 33
f 33 47 34
f 36 40 37
f 38 48 49
f 38 40 50
f 38 50 51
f 38 51 48
f 41 52 53
f 41 53 43
f 41 43 42
f 43 53 54
f 48 55 56
f 48 56 57
f 48 57 58
f 48 58 49
f 48 51 59
f 48 59 60
f 48 60 61
f 48 61 62
f 48 62 63
f 48 63 55
f 50 59 51
f 52 64 53
f 53 65 66
f 53 66 54
f 53 64 65
f 54 66 65
f 55 63 56
f 56 63 67
f 56 67 68
f 63 69 67
f 64 70 71
f 64 71 72
f 64 72 65
f 65 72 71
f 67 73 74
f 67 74 75
f 67 75 68
f 67 69 76
f 67 76 77
f 67 77 73
f 70 78 71
f 70 79 78
f 71 78 80
f 73 77 81
f 73 81 74
f 74 81 82
f 76 83 81
f 76 81 77
f 78 84 80
f 78 79 85
f 78 85 84
f 79 86 85
f 81 83 87
f 81 87 88
f 81 88 82
f 84 85 89
f 85 86 90
f 85 90 91
f 85 91 89
f 87 92 93
f 87 93 94
f 87 94 88
f 89 91 95
f 90 96 91
f 91 96 97
f 91 97 98
f 91 98 99
f 91 99 95
f 92 100 93
f 93 100 101
f 93 101 94
f 94 101 102
f 95 99 103
f 96 104 97
f 96 105 104
f 97 106 98
f 97 104 106
f 98 103 99
f 100 107 101
f 101 108 102
f 101 107 108
f 102 108 109
f 104 110 106
f 104 105 111
f 104 111 112
f 104 112 113
f 104 113 110
f 107 114 108
f 108 115 116
f 108 116 117
f 108 117 118
f 108 118 109
f 108 114 119
f 108 119 115
f 111 120 112
f 112 120 121
f 112 121 122
f 112 122 123
f 114 115 119
f 115 124 116
f 116 124 125
f 116 125 126
f 116 126 127
f 116 127 117
f 117 127 128
f 117 128 118
f 120 129 121
f 121 130 122
f 121 129 130
f 122 130 123
f 125 131 126
f 126 132 127
f 126 131 132
f 129 133 130
f 130 133 134
f 130 134 135
f 130 135 136
f 130 136 137
f 131 138 139
f 131 139 140
f 131 140 132
f 135 141 142
f 135 142 137
f 135 137 136
f 135 143 141
f 138 144 145
f 138 145 146
f 138 146 147
f 138 147 139
f 139 147 140
f 141 143 142
f 142 143 148
f 143 149 148
f 144 150 151
f 144 151 145
f 145 151 152
f 145 152 153
f 145 153 146
f 148 149 154
f 148 154 155
f 148 155 156
f 149 157 158
f 149 158 154
f 150 152 151
f 152 159 160
f 152 160 161
f 152 161 153
f 154 158 155
f 155 158 162
f 155 162 163
f 155 163 156
f 156 163 164
f 157 165 162
f 157 162 158
f 159 166 167
f 159 167 168
f 159 168 160
f 160 169 161
f 160 168 169
f 162 170 171
f 162 171 164
f 162 164 163
f 162 165 172
f 162 172 173
f 162 173 170
f 165 174 172
f 166 175 176
f 166 176 168
f 166 168 167
f 168 176 177
f 170 173 172
f 170 172 178
f 172 174 179
f 172 179 178
f 175 180 176
f 176 180 181
f 176 181 177
f 178 179 182
f 178 182 183
f 179 184 182
f 180 185 181
f 181 185 186
f 181 186 187
f 181 187 188
f 182 184 189
f 182 189 183
f 184 190 191
f 184 191 189
f 185 192 193
f 185 193 186
f 186 193 187
f 187 194 195
f 187 195 188
f 187 193 194
f 189 191 196
f 190 197 198
f 190 198 191
f 191 198 199
f 191 199 196
f 192 200 193
f 193 200 194
f 194 200 201
f 194 201 202
f 194 202 203
f 194 203 204
f 194 204 205
f 194 205 206
f 194 206 195
f 196 199 207
f 197 208 209
f 197 209 198
f 198 209 199
f 199 209 207
f 200 202 201
f 203 210 205
f 203 205 204
f 205 211 212
f 205 212 213
f 205 213 206
f 205 210 211
f 207 209 214
f 208 215 209
f 209 215 216
f 209 216 214
f 210 217 218
f 210 218 211
f 211 218 219
f 214 216 220
f 216 221 220
f 217 222 218
f 218 222 219
f 219 222 223
f 219 223 224
f 219 224 225
f 220 221 226
f 220 226 227
f 221 228 226
f 222 229 223
f 223 229 230
f 223 230 231
f 223 231 224
f 224 231 232
f 224 232 233
f 224 233 225
f 226 234 227
f 226 228 235
f 226 235 236
f 226 236 234
f 230 237 231
f 231 237 232
f 232 238 233
f 232 237 239
f 232 239 240
f 232 240 241
f 232 241 238
f 235 242 236
f 236 242 243
f 239 244 245
f 239 245 240
f 240 245 246
f 242 247 248
f 242 248 249
f 242 249 243
f 243 249 248
f 243 248 250
f 244 251 245
f 245 251 252
f 245 252 253
f 245 253 246
f 247 254 248
f 248 255 256
f 248 256 257
f 248 257 250
f 248 254 255
f 250 257 258
f 250 258 259
f 250 259 260
f 251 261 252
f 252 261 262
f 252 262 253
f 253 262 263
f 256 264 258
f 256 258 257
f 258 264 271
f 258 271 265
f 258 265 266
f 258 266 260
f 258 260 259
f 261 267 262
f 262 267 263
f 263 267 268
f 263 268 269
f 263 269 270
f 265 271 272
f 265 272 273
f 265 273 274
f 265 274 266
f 266 274 275
f 267 276 269
f 267 269 268
f 269 276 274
f 269 274 273
f 269 273 272
f 269 272 270
f 274 276 277
f 274 277 275
