v -0.204039 -0.319173 -0.385829
v -0.201777 -0.328396 -0.385829
v -0.201595 -0.328338 -0.381749
v -0.200832 -0.327055 -0.373097
v -0.203235 -0.319173 -0.381749
v -0.203081 -0.307249 -0.385829
v -0.199688 -0.332614 -0.385829
v -0.198493 -0.334597 -0.381749
v -0.192221 -0.344354 -0.358623
v -0.196504 -0.331642 -0.358623
v -0.200941 -0.319173 -0.373121
v -0.200596 -0.312205 -0.374726
v -0.20106 -0.301943 -0.385829
v -0.198239 -0.334655 -0.385829
v -0.188343 -0.351643 -0.358623
v -0.195223 -0.319173 -0.358623
v -0.198562 -0.319173 -0.366865
v -0.190545 -0.309173 -0.358623
v -0.181752 -0.296529 -0.358623
v -0.198094 -0.298123 -0.385829
v -0.191981 -0.342352 -0.385829
v -0.192235 -0.342848 -0.381749
v -0.18302 -0.357522 -0.358623
v -0.180354 -0.294809 -0.358623
v -0.194097 -0.293896 -0.385829
v -0.187729 -0.34657 -0.385829
v -0.182116 -0.358387 -0.358623
v -0.190123 -0.290698 -0.385829
v -0.15764 -0.280115 -0.358623
v -0.185063 -0.348611 -0.385829
v -0.16959 -0.369602 -0.358623
v -0.183615 -0.286568 -0.385829
v -0.15764 -0.278502 -0.385829
v -0.169353 -0.280892 -0.385829
v -0.181521 -0.28546 -0.385829
v -0.15764 -0.377776 -0.358623
v -0.178809 -0.352896 -0.385829
v -0.167596 -0.371012 -0.358623
v -0.15764 -0.363315 -0.385829
v -0.171315 -0.357202 -0.385829
v -0.168649 -0.358533 -0.385829
v -0.160828 -0.362187 -0.385829
v -0.160615 -0.362265 -0.385829
f 1 2 3
f 1 3 4
f 1 4 5
f 1 5 6
f 1 6 13
f 1 13 20
f 1 20 25
f 1 25 28
f 1 28 32
f 1 32 35
f 1 35 34
f 1 34 33
f 1 33 39
f 1 39 43
f 1 43 42
f 1 42 41
f 1 41 40
f 1 40 37
f 1 37 30
f 1 30 26
f 1 26 21
f 1 21 14
f 1 14 7
f 1 7 2
f 2 7 3
f 3 7 8
f 3 8 9
f 3 9 4
f 4 10 11
f 4 11 5
f 4 9 10
f 5 11 6
f 6 12 13
f 6 11 12
f 7 14 15
f 7 15 8
f 8 15 9
f 9 15 23
f 9 23 27
f 9 27 31
f 9 31 38
f 9 38 36
f 9 36 29
f 9 29 24
f 9 24 19
f 9 19 18
f 9 18 16
f 9 16 10
f 10 16 17
f 10 17 11
f 11 17 12
f 12 17 16
f 12 16 18
f 12 18 13
f 13 18 19
f 13 19 20
f 14 21 22
f 14 22 15
f 15 22 21
f 15 21 23
f 19 24 20
f 20 24 25
f 21 26 23
f 23 26 27
f 24 28 25
f 24 29 28
f 26 30 31
f 26 31 27
f 28 29 32
f 29 33 34
f 29 34 35
f 29 35 32
f 29 36 39
f 29 39 33
f 30 37 38
f 30 38 31
f 36 38 37
f 36 37 40
f 36 40 41
f 36 41 42
f 36 42 43
f 36 43 39
