v -0.157627 -0.43171 -0.355715
v -0.156552 -0.43171 -0.355979
v -0.157627 -0.43171 -0.273304
v -0.157627 -0.363318 -0.385818
v -0.0824055 -0.43171 -0.374164
v -0.0252604 -0.43171 -0.301259
v -0.157627 0.544444 -0.273304
v -0.154478 -0.364434 -0.385818
v -0.0563339 -0.43171 -0.379793
v -0.0689032 -0.43171 -0.377469
v -0.157627 0.459715 -0.385818
v -0.0252604 -0.43171 -0.380046
v -0.0252604 0.556925 -0.301259
v -0.157627 0.556925 -0.273315
v -0.148103 -0.366362 -0.385818
v -0.0438163 -0.43171 -0.380443
v -0.157627 0.58006 -0.352411
v -0.12439 0.57387 -0.362775
v -0.0656637 0.577523 -0.376235
v -0.0563339 0.569406 -0.379143
v -0.0438163 0.569406 -0.379793
v -0.156707 0.460121 -0.385818
v -0.0314025 -0.43171 -0.380178
v -0.0571632 -0.36829 -0.385818
v -0.0556471 -0.367783 -0.385818
v -0.048559 -0.36484 -0.385818
v -0.0348364 -0.355403 -0.385818
v -0.0327631 -0.353171 -0.385818
v -0.0292774 -0.34414 -0.385818
v -0.0289534 -0.343125 -0.385818
v -0.027243 -0.331659 -0.385818
v -0.0252604 -0.331659 -0.384859
v -0.0252604 0.562911 -0.301567
v -0.0252604 0.569406 -0.301909
v -0.157627 0.557331 -0.273337
v -0.143671 -0.36758 -0.385818
v -0.135236 -0.369406 -0.385818
v -0.131413 -0.370218 -0.385818
v -0.123845 -0.371436 -0.385818
v -0.119479 -0.371943 -0.385818
v -0.108205 -0.372958 -0.385818
v -0.106378 -0.373059 -0.385818
v -0.0948582 -0.373262 -0.385818
v -0.0938605 -0.373262 -0.385818
v -0.0826647 -0.372552 -0.385818
v -0.0813689 -0.372451 -0.385818
v -0.0708469 -0.371131 -0.385818
v -0.157627 0.586148 -0.349492
v -0.156448 0.586554 -0.349591
v -0.116045 0.577625 -0.3638
v -0.106378 0.586351 -0.361982
v -0.0694345 0.581785 -0.373195
v -0.0563339 0.58554 -0.374054
v -0.0563339 0.579248 -0.376995
v -0.0438163 0.579959 -0.377314
v -0.0252604 0.579553 -0.377127
v -0.0312988 0.569406 -0.379528
v -0.0594568 0.466006 -0.385818
v -0.0688514 0.467934 -0.385818
v -0.0815503 0.469152 -0.385818
v -0.093679 0.469659 -0.385818
v -0.106378 0.469659 -0.385818
v -0.118546 0.468645 -0.385818
v -0.131413 0.466818 -0.385818
v -0.142479 0.464586 -0.385818
v -0.147766 0.463267 -0.385818
v -0.149282 0.462861 -0.385818
v -0.0272948 0.431811 -0.385818
v -0.0252604 0.431811 -0.384815
v -0.0252604 0.575494 -0.303638
v -0.157627 0.580567 -0.277258
v -0.157627 0.569406 -0.274108
v -0.157627 0.587163 -0.348842
v -0.149917 0.588076 -0.350384
v -0.0995231 0.587975 -0.362819
v -0.0911911 0.589192 -0.363811
v -0.0813689 0.590512 -0.365
v -0.0688514 0.591932 -0.366564
v -0.0563339 0.593048 -0.367798
v -0.0438163 0.58625 -0.374429
v -0.0252604 0.569406 -0.379396
v -0.0252604 0.585844 -0.37423
v -0.0430129 0.456874 -0.385818
v -0.0313247 0.445002 -0.385818
v -0.0252604 0.556925 -0.380046
v -0.0252604 0.581988 -0.3055
v -0.157627 0.581785 -0.277798
v -0.157627 0.593353 -0.34318
v -0.141572 0.589294 -0.351375
v -0.131413 0.590613 -0.352609
v -0.118895 0.592034 -0.354173
v -0.157627 0.593962 -0.342475
v -0.106378 0.593353 -0.355726
v -0.106378 0.599644 -0.348368
v -0.097411 0.600354 -0.34969
v -0.0688514 0.598223 -0.359074
v -0.0563339 0.59934 -0.360451
v -0.0438163 0.593454 -0.368172
v -0.0438163 0.599644 -0.361002
v -0.0312988 0.593353 -0.36804
v -0.0252604 0.593251 -0.367974
v -0.0325299 0.446321 -0.385818
v -0.157627 0.582394 -0.278128
v -0.0252604 0.590816 -0.310676
v -0.157627 0.599543 -0.335834
v -0.156448 0.599746 -0.335999
v -0.147818 0.600456 -0.337277
v -0.0890789 0.600862 -0.350725
v -0.0688514 0.601876 -0.352807
v -0.0563339 0.602384 -0.354195
v -0.0252604 0.599543 -0.36076
v -0.0438163 0.602587 -0.354746
v -0.157627 0.590613 -0.283658
v -0.0252604 0.59386 -0.314146
v -0.157627 0.591526 -0.284418
v -0.157627 0.599948 -0.335239
v -0.139473 0.600963 -0.338268
v -0.156448 0.602485 -0.329743
v -0.106378 0.602485 -0.342112
v -0.0688514 0.604312 -0.344194
v -0.0563339 0.604718 -0.344194
v -0.0252604 0.602485 -0.354503
v -0.0438163 0.604819 -0.344194
v -0.0252604 0.604819 -0.344194
v -0.0252604 0.597107 -0.317858
v -0.157627 0.597209 -0.29139
v -0.157627 0.602384 -0.329577
v -0.157627 0.602688 -0.328751
v -0.131413 0.603601 -0.331681
v -0.118895 0.604312 -0.331681
v -0.156448 0.604819 -0.31918
v -0.0938605 0.60492 -0.331681
v -0.131413 0.604819 -0.31918
v -0.118895 0.604616 -0.31918
v -0.0252604 0.603804 -0.331681
v -0.0252604 0.601471 -0.324114
v -0.157627 0.597818 -0.292194
v -0.157627 0.604718 -0.31918
v -0.157627 0.604718 -0.31799
v -0.157627 0.604007 -0.306656
v -0.157627 0.603804 -0.305654
v -0.157627 0.601673 -0.29845
v -0.157627 0.601369 -0.297856
v -0.138086 0.600659 -0.300521
f 1 2 5
f 1 5 10
f 1 10 9
f 1 9 16
f 1 16 23
f 1 23 12
f 1 12 6
f 1 6 3
f 1 3 7
f 1 7 14
f 1 14 35
f 1 35 72
f 1 72 71
f 1 71 87
f 1 87 103
f 1 103 113
f 1 113 115
f 1 115 126
f 1 126 137
f 1 137 143
f 1 143 142
f 1 142 141
f 1 141 140
f 1 140 139
f 1 139 138
f 1 138 128
f 1 128 127
f 1 127 116
f 1 116 105
f 1 105 92
f 1 92 88
f 1 88 73
f 1 73 48
f 1 48 17
f 1 17 11
f 1 11 4
f 1 4 2
f 2 4 5
f 3 6 13
f 3 13 7
f 4 8 9
f 4 9 10
f 4 10 5
f 4 11 22
f 4 22 67
f 4 67 66
f 4 66 65
f 4 65 64
f 4 64 63
f 4 63 62
f 4 62 61
f 4 61 60
f 4 60 59
f 4 59 58
f 4 58 83
f 4 83 102
f 4 102 84
f 4 84 68
f 4 68 31
f 4 31 30
f 4 30 29
f 4 29 28
f 4 28 27
f 4 27 26
f 4 26 25
f 4 25 24
f 4 24 47
f 4 47 46
f 4 46 45
f 4 45 44
f 4 44 43
f 4 43 42
f 4 42 41
f 4 41 40
f 4 40 39
f 4 39 38
f 4 38 37
f 4 37 36
f 4 36 15
f 4 15 8
f 6 12 32
f 6 32 69
f 6 69 85
f 6 85 81
f 6 81 56
f 6 56 82
f 6 82 101
f 6 101 111
f 6 111 122
f 6 122 124
f 6 124 135
f 6 135 136
f 6 136 125
f 6 125 114
f 6 114 104
f 6 104 86
f 6 86 70
f 6 70 34
f 6 34 33
f 6 33 13
f 7 13 14
f 8 15 16
f 8 16 9
f 11 17 18
f 11 18 19
f 11 19 20
f 11 20 21
f 11 21 22
f 12 23 24
f 12 24 25
f 12 25 26
f 12 26 27
f 12 27 28
f 12 28 29
f 12 29 30
f 12 30 31
f 12 31 32
f 13 33 14
f 14 33 34
f 14 34 35
f 15 36 16
f 16 36 37
f 16 37 38
f 16 38 39
f 16 39 40
f 16 40 41
f 16 41 42
f 16 42 43
f 16 43 44
f 16 44 45
f 16 45 46
f 16 46 47
f 16 47 24
f 16 24 23
f 17 48 49
f 17 49 19
f 17 19 50
f 17 50 18
f 18 50 19
f 19 49 51
f 19 51 52
f 19 52 53
f 19 53 54
f 19 54 20
f 20 54 21
f 21 54 55
f 21 55 56
f 21 56 57
f 21 57 58
f 21 58 59
f 21 59 60
f 21 60 61
f 21 61 62
f 21 62 63
f 21 63 64
f 21 64 65
f 21 65 66
f 21 66 67
f 21 67 22
f 31 68 32
f 32 68 69
f 34 70 71
f 34 71 72
f 34 72 35
f 48 73 49
f 49 73 74
f 49 74 75
f 49 75 51
f 51 75 52
f 52 75 53
f 53 75 76
f 53 76 77
f 53 77 78
f 53 78 79
f 53 79 80
f 53 80 54
f 54 80 55
f 55 80 56
f 56 81 57
f 56 80 82
f 57 81 58
f 58 81 83
f 68 84 85
f 68 85 69
f 70 86 71
f 71 86 87
f 73 88 74
f 74 89 76
f 74 76 75
f 74 88 89
f 76 89 77
f 77 89 90
f 77 90 91
f 77 91 78
f 78 91 88
f 78 88 92
f 78 92 93
f 78 93 94
f 78 94 95
f 78 95 96
f 78 96 97
f 78 97 79
f 79 98 80
f 79 97 99
f 79 99 98
f 80 98 100
f 80 100 101
f 80 101 82
f 81 85 83
f 83 85 102
f 84 102 85
f 86 103 87
f 86 104 103
f 88 91 90
f 88 90 89
f 92 105 106
f 92 106 94
f 92 94 93
f 94 106 107
f 94 107 95
f 95 107 108
f 95 108 97
f 95 97 96
f 97 108 109
f 97 109 110
f 97 110 99
f 98 99 111
f 98 111 100
f 99 110 112
f 99 112 122
f 99 122 111
f 100 111 101
f 103 104 113
f 104 114 115
f 104 115 113
f 105 116 106
f 106 116 107
f 107 117 108
f 107 116 118
f 107 118 117
f 108 117 119
f 108 119 109
f 109 119 110
f 110 119 120
f 110 120 121
f 110 121 112
f 112 121 123
f 112 123 124
f 112 124 122
f 114 125 115
f 115 125 126
f 116 127 118
f 117 118 119
f 118 127 128
f 118 128 119
f 119 128 129
f 119 129 120
f 120 130 131
f 120 131 121
f 120 129 130
f 121 131 132
f 121 132 123
f 123 132 124
f 124 132 133
f 124 133 134
f 124 134 135
f 125 136 137
f 125 137 126
f 128 138 131
f 128 131 129
f 129 131 130
f 131 138 139
f 131 139 140
f 131 140 133
f 131 133 132
f 133 140 134
f 134 140 135
f 135 140 141
f 135 141 142
f 135 142 136
f 136 142 143
f 136 143 144
f 136 144 137
f 137 144 143
