v 0.431823 0.604711 0.315346
v 0.444322 0.604711 0.281611
v 0.431823 0.604929 0.306648
v 0.423137 0.604383 0.315346
v 0.436458 0.604055 0.315346
v 0.444322 0.604164 0.29413
v 0.469362 0.604711 0.194019
v 0.456849 0.60482 0.231537
v 0.456849 0.604492 0.244056
v 0.469362 0.60482 0.143944
v 0.469362 0.60482 0.125881
v 0.419073 0.603727 0.315346
v 0.456849 0.603727 0.125881
v 0.443807 0.602525 0.315346
v 0.469362 0.604274 0.206537
v 0.445561 0.602744 0.307854
v 0.454733 0.602416 0.281611
v 0.478953 0.602307 0.194019
v 0.479301 0.602416 0.168981
v 0.479621 0.602525 0.143944
v 0.479788 0.602525 0.131426
v 0.479857 0.602525 0.125881
v 0.474053 0.603837 0.125881
v 0.412405 0.602088 0.315346
v 0.449402 0.601432 0.125881
v 0.450015 0.600449 0.315346
v 0.450558 0.600777 0.312842
v 0.466328 0.602197 0.244056
v 0.469808 0.602307 0.230498
v 0.477978 0.601869 0.206537
v 0.485216 0.599028 0.194019
v 0.486121 0.599684 0.125881
v 0.410847 0.601542 0.315346
v 0.443139 0.596952 0.125881
v 0.404318 0.597935 0.315346
v 0.45973 0.592143 0.315346
v 0.468416 0.593345 0.281611
v 0.480122 0.592689 0.244056
v 0.462431 0.600449 0.273284
v 0.47571 0.600777 0.225639
v 0.476433 0.601214 0.219056
v 0.466565 0.591815 0.29413
v 0.484242 0.598263 0.206537
v 0.485397 0.599137 0.1815
v 0.492566 0.592799 0.194019
v 0.493234 0.593345 0.131426
v 0.493289 0.593345 0.125881
v 0.492705 0.592908 0.1815
v 0.439144 0.593454 0.125881
v 0.395897 0.591378 0.315346
v 0.398069 0.593236 0.315346
v 0.462626 0.58952 0.315346
v 0.464727 0.590066 0.306648
v 0.489991 0.590285 0.219056
v 0.491703 0.591924 0.206537
v 0.474276 0.600012 0.233967
v 0.498829 0.584602 0.194019
v 0.498954 0.58493 0.1815
v 0.499553 0.586132 0.125881
v 0.435984 0.590613 0.125881
v 0.390316 0.584602 0.315346
v 0.463475 0.588646 0.315346
v 0.475598 0.588209 0.275268
v 0.488766 0.588974 0.22755
v 0.498328 0.581761 0.207093
v 0.501321 0.577389 0.203292
v 0.501724 0.578373 0.194019
v 0.502114 0.579247 0.156463
v 0.502379 0.579793 0.131426
v 0.50082 0.5834 0.125881
v 0.430988 0.581979 0.125881
v 0.388646 0.581542 0.315346
v 0.466746 0.582307 0.315346
v 0.474666 0.58646 0.281611
v 0.487583 0.587225 0.235895
v 0.489406 0.578591 0.244056
v 0.49489 0.581979 0.219056
v 0.48839 0.576296 0.251196
v 0.50036 0.573018 0.211619
v 0.501808 0.569083 0.207093
v 0.503436 0.569411 0.194019
v 0.504759 0.569411 0.131426
v 0.50487 0.569411 0.125881
v 0.502434 0.579903 0.125881
v 0.429387 0.576406 0.125881
v 0.386934 0.578263 0.315346
v 0.470573 0.569411 0.315346
v 0.476392 0.577498 0.290569
v 0.486386 0.584821 0.244056
v 0.477115 0.569411 0.293017
v 0.488835 0.569411 0.252735
v 0.498927 0.569083 0.21811
v 0.500806 0.564712 0.213306
v 0.502518 0.556952 0.206537
v 0.504063 0.556952 0.194019
v 0.50487 0.556952 0.156463
v 0.505399 0.556952 0.131426
v 0.505232 0.562417 0.125881
v 0.427382 0.569411 0.125881
v 0.384846 0.569411 0.315346
v 0.471061 0.560777 0.315346
v 0.471269 0.556952 0.315346
v 0.473803 0.556952 0.306648
v 0.500875 0.556952 0.213584
v 0.502518 -0.511549 0.206537
v 0.503492 -0.511549 0.198655
v 0.504063 -0.511549 0.194019
v 0.50487 -0.511549 0.156463
v 0.505483 -0.511549 0.127754
v 0.50551 0.556952 0.125881
v 0.42709 0.563947 0.125881
v 0.384108 0.556952 0.315346
v 0.471269 -0.511549 0.315346
v 0.472453 -0.511549 0.311285
v 0.473803 -0.511549 0.306648
v 0.500207 -0.511549 0.215884
v 0.500875 -0.511549 0.213584
v 0.50551 -0.511549 0.125881
v 0.426728 0.556952 0.125881
v 0.363327 -0.511549 0.315346
v 0.40848 -0.511549 0.125881
f 1 2 3
f 1 3 4
f 1 4 12
f 1 12 24
f 1 24 33
f 1 33 35
f 1 35 51
f 1 51 50
f 1 50 61
f 1 61 72
f 1 72 86
f 1 86 100
f 1 100 112
f 1 112 120
f 1 120 113
f 1 113 102
f 1 102 101
f 1 101 87
f 1 87 73
f 1 73 62
f 1 62 52
f 1 52 36
f 1 36 26
f 1 26 14
f 1 14 5
f 1 5 6
f 1 6 2
f 2 7 8
f 2 8 3
f 2 6 9
f 2 9 7
f 3 8 10
f 3 10 11
f 3 11 4
f 4 11 13
f 4 13 12
f 5 14 6
f 6 15 9
f 6 14 16
f 6 16 17
f 6 17 15
f 7 10 8
f 7 9 15
f 7 15 18
f 7 18 19
f 7 19 20
f 7 20 21
f 7 21 22
f 7 22 23
f 7 23 10
f 10 23 11
f 11 23 22
f 11 22 32
f 11 32 47
f 11 47 59
f 11 59 70
f 11 70 84
f 11 84 83
f 11 83 98
f 11 98 110
f 11 110 118
f 11 118 121
f 11 121 119
f 11 119 111
f 11 111 99
f 11 99 85
f 11 85 71
f 11 71 60
f 11 60 49
f 11 49 34
f 11 34 25
f 11 25 13
f 12 13 24
f 13 25 24
f 14 26 27
f 14 27 16
f 15 17 28
f 15 28 29
f 15 29 30
f 15 30 18
f 16 27 17
f 17 27 28
f 18 30 31
f 18 31 32
f 18 32 19
f 19 32 20
f 20 32 21
f 21 32 22
f 24 25 33
f 25 34 35
f 25 35 33
f 26 36 27
f 27 37 38
f 27 38 39
f 27 39 40
f 27 40 41
f 27 41 28
f 27 36 42
f 27 42 37
f 28 30 29
f 28 41 30
f 30 41 43
f 30 43 31
f 31 44 32
f 31 43 45
f 31 45 44
f 32 46 47
f 32 44 45
f 32 45 48
f 32 48 46
f 34 49 50
f 34 50 51
f 34 51 35
f 36 52 53
f 36 53 42
f 37 42 38
f 38 42 54
f 38 54 55
f 38 55 43
f 38 43 56
f 38 56 39
f 39 56 40
f 40 56 43
f 40 43 41
f 42 53 54
f 43 55 45
f 45 55 57
f 45 57 58
f 45 58 59
f 45 59 48
f 46 48 59
f 46 59 47
f 49 60 50
f 50 60 61
f 52 62 53
f 53 62 63
f 53 63 64
f 53 64 54
f 54 64 65
f 54 65 55
f 55 65 57
f 57 65 66
f 57 66 67
f 57 67 58
f 58 67 68
f 58 68 59
f 59 68 69
f 59 69 70
f 60 71 61
f 61 71 72
f 62 73 74
f 62 74 63
f 63 74 75
f 63 75 64
f 64 75 65
f 65 76 66
f 65 75 77
f 65 77 76
f 66 76 78
f 66 78 79
f 66 79 80
f 66 80 81
f 66 81 67
f 67 81 82
f 67 82 83
f 67 83 68
f 68 83 69
f 69 84 70
f 69 83 84
f 71 85 86
f 71 86 72
f 73 87 88
f 73 88 74
f 74 88 76
f 74 76 89
f 74 89 75
f 75 89 76
f 75 76 77
f 76 88 78
f 78 88 87
f 78 87 90
f 78 90 79
f 79 90 91
f 79 91 92
f 79 92 93
f 79 93 80
f 80 93 94
f 80 94 81
f 81 94 95
f 81 95 96
f 81 96 97
f 81 97 82
f 82 97 98
f 82 98 83
f 85 99 86
f 86 99 100
f 87 101 93
f 87 93 90
f 90 93 91
f 91 93 92
f 93 101 102
f 93 102 103
f 93 103 104
f 93 104 94
f 94 104 117
f 94 117 105
f 94 105 106
f 94 106 95
f 95 106 107
f 95 107 108
f 95 108 96
f 96 108 109
f 96 109 97
f 97 110 98
f 97 109 110
f 99 111 112
f 99 112 100
f 102 113 114
f 102 114 103
f 103 114 115
f 103 115 116
f 103 116 104
f 104 116 117
f 105 117 116
f 105 116 115
f 105 115 114
f 105 114 113
f 105 113 120
f 105 120 121
f 105 121 118
f 105 118 109
f 105 109 108
f 105 108 107
f 105 107 106
f 109 118 110
f 111 119 112
f 112 119 120
f 119 121 120
