v -0.444335 0.604483 0.245529
v -0.456842 0.604265 0.0596214
v -0.456842 0.60492 0.219033
v -0.456842 0.604811 0.231553
v -0.456842 0.604483 0.244055
v -0.456842 0.604374 0.245529
v -0.436402 0.602407 0.245529
v -0.46936 0.604702 0.0596214
v -0.435154 0.602079 0.245529
v -0.448445 0.60186 0.0596214
v -0.46936 0.604811 0.181473
v -0.46936 0.604811 0.106408
v -0.46936 0.604483 0.193993
v -0.46936 0.603827 0.206513
v -0.466123 0.602188 0.244055
v -0.457759 0.604155 0.245529
v -0.478917 0.602297 0.0596214
v -0.479127 0.602407 0.0688476
v -0.480099 0.602625 0.14395
v -0.48042 0.602625 0.168971
v -0.434424 0.601751 0.245529
v -0.428889 0.598691 0.245529
v -0.44218 0.598035 0.0596214
v -0.479911 0.602516 0.181473
v -0.478519 0.602079 0.193993
v -0.476155 0.601095 0.215794
v -0.475304 0.600549 0.224129
v -0.465957 0.602079 0.245529
v -0.483524 0.599893 0.0596214
v -0.48538 0.599128 0.0688476
v -0.486684 0.600002 0.168971
v -0.421288 0.592352 0.245529
v -0.436689 0.593336 0.0596214
v -0.486176 0.599675 0.181473
v -0.484773 0.598691 0.193993
v -0.492275 0.592462 0.193993
v -0.474177 0.600002 0.231553
v -0.471481 0.599128 0.245529
v -0.485181 0.599019 0.0596214
v -0.492573 0.59279 0.0596214
v -0.492683 0.592899 0.0688476
v -0.493611 0.593664 0.156451
v -0.493744 0.593773 0.168971
v -0.493435 0.593445 0.181473
v -0.420536 0.591478 0.245529
v -0.434778 0.591697 0.0596214
v -0.499688 0.586451 0.181473
v -0.490706 0.591041 0.206513
v -0.479878 0.592571 0.244055
v -0.473072 0.597926 0.245529
v -0.472387 0.5988 0.244055
v -0.47221 0.598582 0.245529
v -0.49718 0.586779 0.0596214
v -0.499213 0.585467 0.0938876
v -0.499478 0.586014 0.118909
v -0.499732 0.58656 0.14395
v -0.499865 0.586779 0.156451
v -0.499998 0.586997 0.168971
v -0.414703 0.583063 0.245529
v -0.428392 0.581752 0.0596214
v -0.498528 0.584047 0.193993
v -0.48833 0.588418 0.22613
v -0.48917 0.589402 0.219033
v -0.502616 0.580222 0.181473
v -0.501533 0.577708 0.193993
v -0.479701 0.592352 0.245529
v -0.498826 0.584593 0.0596214
v -0.49908 0.585139 0.0813676
v -0.501743 0.578364 0.0596214
v -0.501975 0.57891 0.0813676
v -0.502495 0.580003 0.131429
v -0.502749 0.580549 0.156451
v -0.502881 0.580768 0.168971
v -0.41267 0.57891 0.245529
v -0.425729 0.573118 0.0596214
v -0.487325 0.586669 0.234483
v -0.489137 0.578036 0.244055
v -0.505765 0.569402 0.168971
v -0.505235 0.569402 0.181473
v -0.500738 0.575959 0.200599
v -0.485226 0.58503 0.245529
v -0.505511 0.569402 0.156451
v -0.503467 0.569402 0.0596214
v -0.503666 0.569402 0.0688476
v -0.504461 0.569402 0.106408
v -0.411919 0.576397 0.245529
v -0.424812 0.568637 0.0596214
v -0.486132 0.584265 0.244055
v -0.48896 0.577599 0.245529
v -0.485966 0.583828 0.245529
v -0.506428 0.556944 0.168971
v -0.505897 0.556944 0.181473
v -0.503058 0.569402 0.193993
v -0.501091 0.569402 0.202055
v -0.490418 0.569402 0.245529
v -0.490253 0.570823 0.245529
v -0.504097 0.556944 0.0596214
v -0.504295 0.556944 0.0688476
v -0.505102 0.556944 0.106408
v -0.505367 0.556944 0.118909
v -0.506163 0.556944 0.156451
v -0.410703 0.570386 0.245529
v -0.409963 0.556944 0.245529
v -0.424293 0.556944 0.0596214
v -0.506339 -0.511549 0.164331
v -0.506428 -0.511549 0.168971
v -0.506096 -0.511549 0.176851
v -0.503699 0.556944 0.193993
v -0.505897 -0.511549 0.181473
v -0.504516 -0.511549 0.189371
v -0.501412 0.556944 0.203347
v -0.497567 0.556944 0.219033
v -0.49107 0.556944 0.245529
v -0.504097 -0.511549 0.0596214
v -0.504196 -0.511549 0.0642072
v -0.505003 -0.511549 0.101767
v -0.505102 -0.511549 0.106408
v -0.393567 -0.511549 0.245529
v -0.407676 -0.511549 0.0596214
v -0.503699 -0.511549 0.193993
v -0.502262 -0.511549 0.199889
v -0.49107 -0.511549 0.245529
f 1 2 3
f 1 3 4
f 1 4 5
f 1 5 6
f 1 6 16
f 1 16 28
f 1 28 38
f 1 38 52
f 1 52 50
f 1 50 66
f 1 66 81
f 1 81 90
f 1 90 89
f 1 89 96
f 1 96 95
f 1 95 113
f 1 113 122
f 1 122 118
f 1 118 103
f 1 103 102
f 1 102 86
f 1 86 74
f 1 74 59
f 1 59 45
f 1 45 32
f 1 32 22
f 1 22 21
f 1 21 9
f 1 9 7
f 1 7 2
f 2 8 3
f 2 7 9
f 2 9 10
f 2 10 23
f 2 23 33
f 2 33 46
f 2 46 60
f 2 60 75
f 2 75 87
f 2 87 104
f 2 104 119
f 2 119 114
f 2 114 97
f 2 97 83
f 2 83 69
f 2 69 67
f 2 67 53
f 2 53 40
f 2 40 39
f 2 39 29
f 2 29 17
f 2 17 8
f 3 11 4
f 3 8 12
f 3 12 11
f 4 11 13
f 4 13 5
f 5 13 14
f 5 14 15
f 5 15 16
f 5 16 6
f 8 17 18
f 8 18 19
f 8 19 20
f 8 20 12
f 9 21 10
f 10 21 22
f 10 22 23
f 11 12 20
f 11 20 24
f 11 24 13
f 13 24 14
f 14 24 25
f 14 25 15
f 15 25 26
f 15 26 27
f 15 27 28
f 15 28 16
f 17 29 18
f 18 29 30
f 18 30 31
f 18 31 19
f 19 31 20
f 20 31 24
f 22 32 23
f 23 32 33
f 24 31 34
f 24 34 25
f 25 34 26
f 26 34 27
f 27 34 35
f 27 35 36
f 27 36 37
f 27 37 28
f 28 37 38
f 29 39 30
f 30 39 40
f 30 40 41
f 30 41 31
f 31 42 43
f 31 43 44
f 31 44 34
f 31 41 42
f 32 45 46
f 32 46 33
f 34 44 36
f 34 36 35
f 36 47 48
f 36 48 49
f 36 49 37
f 36 44 47
f 37 50 51
f 37 51 38
f 37 49 50
f 38 51 52
f 40 53 54
f 40 54 55
f 40 55 56
f 40 56 57
f 40 57 58
f 40 58 41
f 41 58 42
f 42 58 43
f 43 58 44
f 44 58 47
f 45 59 46
f 46 59 60
f 47 61 62
f 47 62 63
f 47 63 48
f 47 58 64
f 47 64 65
f 47 65 61
f 48 63 49
f 49 63 62
f 49 62 66
f 49 66 50
f 50 52 51
f 53 67 68
f 53 68 54
f 54 68 69
f 54 69 70
f 54 70 55
f 55 70 71
f 55 71 72
f 55 72 56
f 56 72 57
f 57 72 73
f 57 73 58
f 58 73 64
f 59 74 60
f 60 74 75
f 61 76 62
f 61 65 77
f 61 77 76
f 62 76 66
f 64 73 78
f 64 78 79
f 64 79 65
f 65 79 80
f 65 80 77
f 66 76 81
f 67 69 68
f 69 82 78
f 69 78 70
f 69 83 84
f 69 84 85
f 69 85 82
f 70 78 71
f 71 78 72
f 72 78 73
f 74 86 75
f 75 86 87
f 76 77 88
f 76 88 81
f 77 80 89
f 77 89 90
f 77 90 88
f 78 82 91
f 78 91 92
f 78 92 79
f 79 92 93
f 79 93 80
f 80 93 94
f 80 94 95
f 80 95 96
f 80 96 89
f 81 88 90
f 82 85 91
f 83 97 98
f 83 98 84
f 84 98 99
f 84 99 100
f 84 100 101
f 84 101 91
f 84 91 85
f 86 102 87
f 87 102 103
f 87 103 104
f 91 101 105
f 91 105 106
f 91 106 107
f 91 107 92
f 92 108 93
f 92 107 109
f 92 109 110
f 92 110 108
f 93 108 94
f 94 108 111
f 94 111 112
f 94 112 113
f 94 113 95
f 97 114 115
f 97 115 98
f 98 115 116
f 98 116 99
f 99 116 117
f 99 117 105
f 99 105 100
f 100 105 101
f 103 118 119
f 103 119 104
f 105 117 116
f 105 116 115
f 105 115 114
f 105 114 119
f 105 119 118
f 105 118 122
f 105 122 121
f 105 121 120
f 105 120 110
f 105 110 109
f 105 109 107
f 105 107 106
f 108 110 120
f 108 120 121
f 108 121 111
f 111 121 112
f 112 121 113
f 113 121 122
