v -0.255173 0.0938844 -0.569495
v -0.255049 0.106391 -0.569495
v -0.254729 0.0563413 -0.582002
v -0.254729 0.056295 -0.582002
v -0.25512 0.056295 -0.569495
v -0.25071 0.193984 -0.549847
v -0.254711 0.118921 -0.569495
v -0.254355 0.0688479 -0.582002
v -0.251279 0.0563413 -0.589493
v -0.251279 0.056295 -0.589493
v -0.25167 0.056295 -0.561806
v -0.237337 0.292879 -0.504106
v -0.250728 0.181477 -0.550014
v -0.239134 0.2816 -0.510093
v -0.250497 0.20209 -0.550226
v -0.254249 0.131427 -0.569495
v -0.253964 0.0813777 -0.582002
v -0.250746 0.0813777 -0.588794
v -0.245037 0.0563413 -0.595739
v -0.245037 0.056295 -0.595739
v -0.244059 0.056295 -0.556898
v -0.244059 0.0563413 -0.556882
v -0.220195 0.292879 -0.485825
v -0.228571 0.292879 -0.492511
v -0.23042 0.292879 -0.494092
v -0.230989 0.292879 -0.494699
v -0.236964 0.292879 -0.503468
v -0.2386 0.292879 -0.509729
v -0.238742 0.292879 -0.510671
v -0.243917 0.256587 -0.531961
v -0.250497 0.20209 -0.551624
v -0.253466 0.143957 -0.569495
v -0.252577 0.118921 -0.579905
v -0.253039 0.106391 -0.581151
v -0.252862 0.0944171 -0.583172
v -0.250514 0.0906188 -0.588506
v -0.244611 0.0688479 -0.595405
v -0.242957 0.0822115 -0.59618
v -0.238031 0.0786216 -0.600967
v -0.238778 0.0563413 -0.601529
v -0.238778 0.056295 -0.601529
v -0.230527 0.056295 -0.551868
v -0.208494 0.292879 -0.480825
v -0.218452 0.292879 -0.484959
v -0.219057 0.292879 -0.485217
v -0.238671 0.292879 -0.518482
v -0.240503 0.2816 -0.519439
v -0.241659 0.269093 -0.531961
v -0.246798 0.23155 -0.544467
v -0.25055 0.188865 -0.563705
v -0.25103 0.181477 -0.56483
v -0.252061 0.156603 -0.570225
v -0.25135 0.143957 -0.577428
v -0.252044 0.131427 -0.578719
v -0.25023 0.0989565 -0.588126
v -0.245251 0.0944171 -0.593201
v -0.237746 0.0869594 -0.600739
v -0.23154 0.0563413 -0.606118
v -0.23154 0.056295 -0.606118
v -0.230224 0.056295 -0.551822
v -0.194001 0.292879 -0.47774
v -0.206698 0.292879 -0.480263
v -0.2386 0.292879 -0.518937
v -0.238529 0.292879 -0.519302
v -0.23812 0.288687 -0.526353
v -0.238956 0.280488 -0.531094
v -0.244273 0.244057 -0.544467
v -0.247438 0.181477 -0.571091
v -0.249945 0.160864 -0.574875
v -0.250728 0.152527 -0.576394
v -0.245606 0.21902 -0.556974
v -0.241641 0.231759 -0.557733
v -0.240183 0.21902 -0.566
v -0.246086 0.193428 -0.568523
v -0.247705 0.131427 -0.58498
v -0.249714 0.106391 -0.587412
v -0.241445 0.131427 -0.591469
v -0.242477 0.118921 -0.592502
v -0.243455 0.106391 -0.593505
v -0.237391 0.0938844 -0.600496
v -0.231149 0.0938844 -0.604386
v -0.232767 0.0822115 -0.604051
v -0.23154 0.0688479 -0.60548
v -0.22192 0.0563413 -0.611634
v -0.22192 0.056295 -0.611634
v -0.219537 0.056295 -0.550348
v -0.191832 0.292879 -0.477558
v -0.233176 0.292879 -0.530699
v -0.235666 0.283916 -0.534696
v -0.237907 0.275555 -0.538358
v -0.238991 0.269093 -0.540258
v -0.240645 0.256378 -0.544771
v -0.240023 0.244057 -0.553965
v -0.239329 0.193984 -0.577245
v -0.241179 0.181477 -0.57916
v -0.246478 0.143957 -0.583689
v -0.24445 0.15739 -0.58226
v -0.238689 0.227729 -0.564207
v -0.23812 0.201025 -0.57606
v -0.241427 0.205726 -0.569875
v -0.240218 0.143957 -0.59036
v -0.236324 0.106391 -0.599766
v -0.230064 0.106391 -0.603717
v -0.219928 0.0938844 -0.610647
v -0.220622 0.0813777 -0.610996
v -0.22128 0.0688479 -0.611315
v -0.215661 0.0563413 -0.614658
v -0.21438 0.0813777 -0.614051
v -0.215661 0.056295 -0.614658
v -0.20652 0.056295 -0.55009
v -0.181483 0.292879 -0.476829
v -0.232252 0.292879 -0.532204
v -0.227326 0.29098 -0.54041
v -0.230776 0.280118 -0.543555
v -0.234208 0.269093 -0.546519
v -0.236573 0.260408 -0.549148
v -0.238529 0.25207 -0.5517
v -0.237053 0.236066 -0.562414
v -0.234012 0.181477 -0.585406
v -0.236377 0.168994 -0.587168
v -0.23764 0.162254 -0.588126
v -0.238956 0.153916 -0.589266
v -0.236128 0.209386 -0.574297
v -0.225637 0.225945 -0.575999
v -0.227415 0.21902 -0.577321
v -0.231789 0.205726 -0.579114
v -0.230811 0.193891 -0.584038
v -0.230651 0.144004 -0.597244
v -0.233247 0.131427 -0.59773
v -0.234795 0.118921 -0.598748
v -0.226988 0.131427 -0.601802
v -0.228535 0.118921 -0.60276
v -0.21799 0.105812 -0.610358
v -0.213118 0.101226 -0.613458
v -0.213669 0.0938844 -0.613716
v -0.20652 0.0563413 -0.618412
v -0.20652 0.0813777 -0.617211
v -0.20652 0.0688479 -0.617819
v -0.20652 0.056295 -0.618412
v -0.198234 0.056295 -0.550515
v -0.168964 0.292879 -0.477209
v -0.178317 0.292879 -0.476905
v -0.230118 0.292879 -0.535091
v -0.223129 0.292879 -0.542735
v -0.220035 0.292879 -0.545455
v -0.222845 0.284657 -0.548752
v -0.225886 0.276319 -0.55126
v -0.234848 0.244057 -0.56021
v -0.231345 0.231017 -0.569298
v -0.226259 0.251839 -0.564025
v -0.228588 0.244057 -0.565939
v -0.226134 0.189653 -0.588825
v -0.227753 0.181477 -0.589904
v -0.232696 0.157437 -0.592791
v -0.223111 0.234283 -0.574388
v -0.224072 0.197991 -0.587564
v -0.224641 0.148219 -0.600435
v -0.225886 0.139858 -0.601149
v -0.219021 0.118921 -0.607851
v -0.219021 0.131427 -0.605966
v -0.211624 0.109564 -0.612835
v -0.20364 0.118921 -0.614613
v -0.207072 0.105812 -0.61516
v -0.20652 0.0938844 -0.616558
v -0.194001 0.0813777 -0.621603
v -0.194001 0.0563413 -0.622788
v -0.194001 0.0938844 -0.620965
v -0.194001 0.056295 -0.622788
v -0.191974 0.056295 -0.551184
v -0.16651 0.292879 -0.477482
v -0.217741 0.292879 -0.547263
v -0.214487 0.289729 -0.551928
v -0.218808 0.280928 -0.553828
v -0.223254 0.2602 -0.561791
v -0.218968 0.244427 -0.572489
v -0.219057 0.256239 -0.566623
v -0.219021 0.181477 -0.594888
v -0.222756 0.156464 -0.599432
v -0.219555 0.193891 -0.591241
v -0.218968 0.230693 -0.578203
v -0.221351 0.206514 -0.585983
v -0.214771 0.24049 -0.576911
v -0.215092 0.206514 -0.589524
v -0.216496 0.156464 -0.602669
v -0.219893 0.144004 -0.60355
v -0.209899 0.118921 -0.612136
v -0.20652 0.143957 -0.609689
v -0.200154 0.137472 -0.61326
v -0.201737 0.129111 -0.613868
v -0.194001 0.106391 -0.619719
v -0.18447 0.0688479 -0.624992
v -0.185644 0.0563413 -0.625281
v -0.183296 0.0813777 -0.624688
v -0.175152 0.0998598 -0.625797
v -0.180718 0.0949729 -0.624658
v -0.185644 0.056295 -0.625281
v -0.181483 0.056295 -0.552703
v -0.156462 0.292879 -0.478743
v -0.208405 0.292879 -0.553554
v -0.198909 0.286672 -0.562611
v -0.206947 0.282156 -0.560636
v -0.211411 0.273887 -0.56249
v -0.214914 0.26555 -0.564602
v -0.219057 0.269464 -0.559739
v -0.211428 0.248828 -0.575057
v -0.212015 0.17395 -0.60045
v -0.21422 0.165612 -0.601514
v -0.205845 0.19366 -0.597973
v -0.209792 0.181477 -0.599493
v -0.212904 0.212975 -0.588339
v -0.206965 0.244427 -0.579114
v -0.205845 0.231017 -0.584935
v -0.20652 0.206514 -0.593581
v -0.20652 0.156464 -0.607151
v -0.206147 0.132539 -0.611589
v -0.198678 0.143957 -0.612774
v -0.192419 0.143957 -0.61481
v -0.194001 0.118921 -0.617926
v -0.181483 0.106391 -0.623305
v -0.181483 0.131427 -0.619749
v -0.181483 0.118921 -0.621527
v -0.177037 0.0813777 -0.626268
v -0.179384 0.0563413 -0.626846
v -0.176041 0.091522 -0.626025
v -0.170173 0.0949729 -0.627013
v -0.168964 0.0813777 -0.627909
v -0.181483 0.143957 -0.617941
v -0.168964 0.143957 -0.620798
v -0.17284 0.106391 -0.625357
v -0.166581 0.106391 -0.626557
v -0.179384 0.056295 -0.626846
v -0.168964 0.056295 -0.555226
v -0.155947 0.292879 -0.478835
v -0.205098 0.292879 -0.555424
v -0.203071 0.278334 -0.564678
v -0.195175 0.292879 -0.560499
v -0.193326 0.292879 -0.561335
v -0.190569 0.289868 -0.564405
v -0.194446 0.282156 -0.566714
v -0.198589 0.26145 -0.575072
v -0.203088 0.253112 -0.577109
v -0.201221 0.189259 -0.601179
v -0.207321 0.169457 -0.603565
v -0.198269 0.19762 -0.60007
v -0.201239 0.226501 -0.588703
v -0.193557 0.24357 -0.585223
v -0.197433 0.234839 -0.587199
v -0.194037 0.15695 -0.61168
v -0.189894 0.153106 -0.61399
v -0.168964 0.0563413 -0.629064
v -0.156462 0.0938844 -0.629232
v -0.156462 0.0813777 -0.629855
v -0.182034 0.15695 -0.615251
v -0.168964 0.156464 -0.618397
v -0.156462 0.156464 -0.620494
v -0.156462 0.143957 -0.622864
v -0.163789 0.11415 -0.626025
v -0.168964 0.131427 -0.622591
v -0.168359 0.11855 -0.624521
v -0.156462 0.106391 -0.628046
v -0.168964 0.056295 -0.629064
v -0.156462 0.056295 -0.558584
v -0.14389 0.292879 -0.481372
v -0.146309 0.292879 -0.480841
v -0.18335 0.292879 -0.56521
v -0.180896 0.280812 -0.572367
v -0.184683 0.273262 -0.574753
v -0.190249 0.264901 -0.576744
v -0.19425 0.257003 -0.578947
v -0.194001 0.181477 -0.605662
v -0.194001 0.168994 -0.608732
v -0.194055 0.19366 -0.602577
v -0.194055 0.20656 -0.598581
v -0.189911 0.202414 -0.601529
v -0.189093 0.239077 -0.588764
v -0.183901 0.247415 -0.587077
v -0.193557 0.231017 -0.59001
v -0.186568 0.161443 -0.612987
v -0.156462 0.0563413 -0.630979
v -0.143944 0.0938844 -0.63028
v -0.143944 0.106391 -0.62911
v -0.143944 0.0813777 -0.630903
v -0.178228 0.166029 -0.614081
v -0.174209 0.174367 -0.613093
v -0.165869 0.177934 -0.613944
v -0.160339 0.186271 -0.612956
v -0.156462 0.168994 -0.617561
v -0.151999 0.18875 -0.613549
v -0.143944 0.168994 -0.618807
v -0.143944 0.156464 -0.621664
v -0.143944 0.143957 -0.624004
v -0.15143 0.126309 -0.625964
v -0.155947 0.130872 -0.624779
v -0.15977 0.122488 -0.625448
v -0.156462 0.056295 -0.630979
v -0.146451 0.056295 -0.561852
v -0.132456 0.292879 -0.484716
v -0.180469 0.292879 -0.566152
v -0.176326 0.276111 -0.576106
v -0.178993 0.292879 -0.566623
v -0.168964 0.284472 -0.57413
v -0.180896 0.269093 -0.577944
v -0.180433 0.255452 -0.584524
v -0.181483 0.193984 -0.606361
v -0.185235 0.210752 -0.60007
v -0.181234 0.20656 -0.602653
v -0.180433 0.24357 -0.589676
v -0.181483 0.23155 -0.593824
v -0.175543 0.250542 -0.588369
v -0.181483 0.181477 -0.609492
v -0.182034 0.169712 -0.612197
v -0.143944 0.0688479 -0.631465
v -0.143944 0.0563413 -0.632012
v -0.131425 0.0938844 -0.630356
v -0.131425 0.106391 -0.629186
v -0.143944 0.118921 -0.627438
v -0.131425 0.134878 -0.625448
v -0.131425 0.118921 -0.627545
v -0.131425 0.0813777 -0.630979
v -0.168964 0.193984 -0.609385
v -0.169604 0.181848 -0.612242
v -0.156285 0.181848 -0.614567
v -0.156285 0.193359 -0.611771
v -0.143944 0.181477 -0.615935
v -0.143944 0.196416 -0.612303
v -0.143944 0.190139 -0.613899
v -0.131425 0.181477 -0.616224
v -0.131425 0.168994 -0.61902
v -0.131425 0.156464 -0.621801
v -0.131425 0.143957 -0.624141
v -0.143944 0.134369 -0.625372
v -0.143944 0.056295 -0.632012
v -0.140191 0.056295 -0.564177
v -0.131247 0.292879 -0.485141
v -0.168964 0.292879 -0.569571
v -0.167434 0.292879 -0.569966
v -0.159983 0.286741 -0.575209
v -0.168964 0.278195 -0.577078
v -0.168964 0.206514 -0.605647
v -0.176895 0.21411 -0.60124
v -0.168964 0.244057 -0.592472
v -0.168964 0.23155 -0.597076
v -0.168964 0.258509 -0.586241
v -0.168964 0.252256 -0.589144
v -0.131425 0.0688479 -0.631526
v -0.131425 0.056295 -0.632073
v -0.118924 0.106391 -0.627864
v -0.118924 0.0938844 -0.629019
v -0.118924 0.0813777 -0.629657
v -0.123707 0.127004 -0.626056
v -0.156462 0.206514 -0.607881
v -0.131425 0.190765 -0.614066
v -0.131425 0.197018 -0.612455
v -0.143944 0.206514 -0.609249
v -0.131425 0.206514 -0.609598
v -0.121395 0.18956 -0.613762
v -0.118924 0.156464 -0.620646
v -0.118924 0.168994 -0.617956
v -0.118924 0.143957 -0.622956
v -0.131425 0.056295 -0.567991
v -0.118924 0.292879 -0.490004
v -0.124098 0.292879 -0.487816
v -0.156249 0.292879 -0.572519
v -0.151626 0.288363 -0.576014
v -0.156071 0.282179 -0.578051
v -0.156462 0.261242 -0.587533
v -0.168964 0.216774 -0.602152
v -0.162331 0.225112 -0.600723
v -0.156462 0.244057 -0.594903
v -0.156462 0.254988 -0.590375
v -0.118924 0.0563413 -0.63069
v -0.118924 0.056295 -0.63069
v -0.119279 0.117971 -0.626466
v -0.115367 0.121515 -0.625357
v -0.112486 0.113154 -0.625873
v -0.111402 0.106391 -0.626284
v -0.109961 0.0938844 -0.626861
v -0.119279 0.131265 -0.624779
v -0.153973 0.227011 -0.601362
v -0.143944 0.228678 -0.601909
v -0.118924 0.206514 -0.608671
v -0.131425 0.21902 -0.605556
v -0.131425 0.235788 -0.600131
v -0.118924 0.234746 -0.599827
v -0.118924 0.21902 -0.604766
v -0.113038 0.187499 -0.613245
v -0.117892 0.182589 -0.614902
v -0.117892 0.193845 -0.612197
v -0.106405 0.156464 -0.617379
v -0.110157 0.179161 -0.614127
v -0.106405 0.143957 -0.619536
v -0.120862 0.056295 -0.573309
v -0.117732 0.292879 -0.490536
v -0.155787 0.292879 -0.57261
v -0.143944 0.292879 -0.574404
v -0.143944 0.28922 -0.576486
v -0.143944 0.2816 -0.580041
v -0.148763 0.262539 -0.588126
v -0.157476 0.231319 -0.599371
v -0.143944 0.244057 -0.596438
v -0.143944 0.234932 -0.599827
v -0.144335 0.257652 -0.590709
v -0.108663 0.0688479 -0.627438
v -0.10813 0.0563413 -0.627697
v -0.109214 0.0813777 -0.62718
v -0.10813 0.056295 -0.627697
v -0.106405 0.131427 -0.621238
v -0.105142 0.106391 -0.623624
v -0.103702 0.0938844 -0.624126
v -0.111028 0.226686 -0.60121
v -0.131425 0.244057 -0.597016
v -0.118924 0.244057 -0.596377
v -0.106405 0.244057 -0.594052
v -0.106156 0.182589 -0.612014
v -0.106405 0.206514 -0.605905
v -0.106405 0.193984 -0.609401
v -0.106156 0.168415 -0.614947
v -0.101817 0.172213 -0.612683
v -0.0998073 0.163875 -0.613519
v -0.098936 0.156464 -0.614172
v -0.114602 0.056295 -0.576957
v -0.107703 0.292879 -0.495702
v -0.131425 0.292879 -0.575224
v -0.131425 0.289914 -0.576865
v -0.131425 0.2816 -0.580816
v -0.140423 0.263396 -0.588521
v -0.144335 0.26819 -0.586029
v -0.131425 0.256587 -0.591819
v -0.102955 0.0813777 -0.62443
v -0.101888 0.0563413 -0.624885
v -0.102404 0.0688479 -0.624658
v -0.101888 0.056295 -0.624885
v -0.0977445 0.143957 -0.615205
v -0.0969799 0.131427 -0.616041
v -0.0965531 0.118921 -0.616725
v -0.106671 0.231133 -0.598626
v -0.102688 0.222749 -0.600055
v -0.106671 0.218766 -0.602349
v -0.121644 0.263535 -0.588567
v -0.118052 0.257745 -0.590694
v -0.113304 0.262701 -0.588217
v -0.106405 0.254433 -0.589934
v -0.0990071 0.251769 -0.58884
v -0.099345 0.214411 -0.60124
v -0.0977268 0.206514 -0.602365
v -0.0957173 0.193984 -0.604051
v -0.0946326 0.181477 -0.60548
v -0.105249 0.056295 -0.584129
v -0.100056 0.292879 -0.500459
v -0.105409 0.292879 -0.4971
v -0.118924 0.292879 -0.574829
v -0.118924 0.289521 -0.576653
v -0.118924 0.2816 -0.580437
v -0.131425 0.270043 -0.585953
v -0.096233 0.106391 -0.617363
v -0.0960018 0.0938844 -0.617865
v -0.095824 0.0563413 -0.618625
v -0.0958952 0.0813777 -0.618169
v -0.0958418 0.0688479 -0.618397
v -0.095824 0.056295 -0.618625
v -0.0894579 0.193984 -0.598064
v -0.0883731 0.181477 -0.598398
v -0.0965709 0.244057 -0.590329
v -0.118052 0.268259 -0.586241
v -0.110708 0.288664 -0.576182
v -0.106476 0.282248 -0.578294
v -0.106405 0.269093 -0.584023
v -0.0969265 0.278496 -0.5772
v -0.0885687 0.273934 -0.575224
v -0.092961 0.231851 -0.592016
v -0.0881598 0.236229 -0.587776
v -0.0870928 0.227891 -0.588901
v -0.100145 0.056295 -0.588278
v -0.0927832 0.292879 -0.506081
v -0.115545 0.292879 -0.574449
v -0.0918052 0.143957 -0.607045
v -0.0912539 0.131427 -0.607045
v -0.0911116 0.118921 -0.607045
v -0.0917163 0.056295 -0.607045
v -0.0911828 0.106391 -0.607045
v -0.091574 0.0688479 -0.607045
v -0.086506 0.21902 -0.589797
v -0.0861148 0.206514 -0.590861
v -0.0862037 0.193984 -0.591803
v -0.0903114 0.244057 -0.586469
v -0.10235 0.286834 -0.575255
v -0.106903 0.292879 -0.573127
v -0.0929433 0.292879 -0.568492
v -0.09321 0.282248 -0.573659
v -0.0859903 0.292879 -0.564678
v -0.0856168 0.291628 -0.564967
v -0.0866127 0.265596 -0.576698
v -0.085439 0.256587 -0.578157
v -0.0747339 0.292879 -0.551503
v -0.0968021 0.056295 -0.593353
v -0.0809934 0.292879 -0.519105
v -0.0864704 0.292879 -0.51181
v -0.0924453 0.292879 -0.50637
v -0.0747873 0.2816 -0.551457
v -0.0735247 0.292879 -0.544604
v -0.0737737 0.292879 -0.533359
v -0.0758898 0.292879 -0.527265
v -0.106173 0.292879 -0.57296
v -0.0841409 0.292879 -0.562748
v -0.0837852 0.2816 -0.567261
f 1 2 3
f 1 3 4
f 1 4 5
f 1 5 6
f 1 6 2
f 2 7 3
f 2 6 7
f 3 8 9
f 3 9 10
f 3 10 4
f 3 7 8
f 4 10 20
f 4 20 41
f 4 41 59
f 4 59 85
f 4 85 109
f 4 109 139
f 4 139 168
f 4 168 196
f 4 196 231
f 4 231 261
f 4 261 295
f 4 295 332
f 4 332 346
f 4 346 372
f 4 372 406
f 4 406 432
f 4 432 460
f 4 460 479
f 4 479 495
f 4 495 473
f 4 473 448
f 4 448 421
f 4 421 392
f 4 392 360
f 4 360 333
f 4 333 296
f 4 296 262
f 4 262 232
f 4 232 197
f 4 197 169
f 4 169 140
f 4 140 110
f 4 110 86
f 4 86 60
f 4 60 42
f 4 42 21
f 4 21 11
f 4 11 5
f 5 11 12
f 5 12 13
f 5 13 6
f 6 14 15
f 6 15 7
f 6 13 14
f 7 16 17
f 7 17 8
f 7 15 16
f 8 17 9
f 9 17 18
f 9 18 19
f 9 19 20
f 9 20 10
f 11 21 22
f 11 22 23
f 11 23 24
f 11 24 25
f 11 25 26
f 11 26 27
f 11 27 12
f 12 27 26
f 12 26 25
f 12 25 24
f 12 24 23
f 12 23 45
f 12 45 44
f 12 44 43
f 12 43 62
f 12 62 61
f 12 61 87
f 12 87 111
f 12 111 142
f 12 142 141
f 12 141 170
f 12 170 198
f 12 198 233
f 12 233 264
f 12 264 263
f 12 263 297
f 12 297 334
f 12 334 362
f 12 362 361
f 12 361 393
f 12 393 422
f 12 422 450
f 12 450 449
f 12 449 474
f 12 474 498
f 12 498 497
f 12 497 496
f 12 496 502
f 12 502 501
f 12 501 500
f 12 500 494
f 12 494 504
f 12 504 490
f 12 490 488
f 12 488 503
f 12 503 487
f 12 487 475
f 12 475 451
f 12 451 423
f 12 423 395
f 12 395 394
f 12 394 363
f 12 363 336
f 12 336 335
f 12 335 300
f 12 300 298
f 12 298 265
f 12 265 237
f 12 237 236
f 12 236 234
f 12 234 199
f 12 199 171
f 12 171 145
f 12 145 144
f 12 144 143
f 12 143 112
f 12 112 88
f 12 88 64
f 12 64 63
f 12 63 46
f 12 46 29
f 12 29 28
f 12 28 14
f 12 14 13
f 14 28 15
f 15 28 29
f 15 29 30
f 15 30 31
f 15 31 16
f 16 32 33
f 16 33 34
f 16 34 17
f 16 31 32
f 17 34 35
f 17 35 36
f 17 36 18
f 18 36 19
f 19 36 37
f 19 37 38
f 19 38 39
f 19 39 40
f 19 40 41
f 19 41 20
f 21 42 22
f 22 42 43
f 22 43 44
f 22 44 45
f 22 45 23
f 29 46 47
f 29 47 30
f 30 47 46
f 30 46 48
f 30 48 49
f 30 49 31
f 31 49 50
f 31 50 51
f 31 51 32
f 32 51 52
f 32 52 53
f 32 53 54
f 32 54 33
f 33 55 34
f 33 54 55
f 34 55 35
f 35 55 36
f 36 55 56
f 36 56 38
f 36 38 37
f 38 56 57
f 38 57 39
f 39 58 40
f 39 57 58
f 40 58 59
f 40 59 41
f 42 60 61
f 42 61 62
f 42 62 43
f 46 63 48
f 48 63 64
f 48 64 65
f 48 65 66
f 48 66 67
f 48 67 49
f 49 67 50
f 50 68 69
f 50 69 70
f 50 70 51
f 50 67 71
f 50 71 72
f 50 72 73
f 50 73 74
f 50 74 68
f 51 70 53
f 51 53 52
f 53 70 75
f 53 75 76
f 53 76 55
f 53 55 54
f 55 76 77
f 55 77 78
f 55 78 79
f 55 79 80
f 55 80 56
f 56 80 57
f 57 80 81
f 57 81 82
f 57 82 58
f 58 82 83
f 58 83 84
f 58 84 85
f 58 85 59
f 60 86 61
f 61 86 87
f 64 88 65
f 65 88 89
f 65 89 90
f 65 90 66
f 66 90 67
f 67 90 91
f 67 91 92
f 67 92 93
f 67 93 71
f 68 74 94
f 68 94 95
f 68 95 69
f 69 95 70
f 70 96 75
f 70 95 97
f 70 97 96
f 71 93 72
f 72 93 98
f 72 98 73
f 73 99 100
f 73 100 74
f 73 98 99
f 74 100 94
f 75 96 101
f 75 101 77
f 75 77 76
f 77 101 102
f 77 102 78
f 78 102 79
f 79 102 80
f 80 102 103
f 80 103 81
f 81 103 104
f 81 104 105
f 81 105 106
f 81 106 84
f 81 84 83
f 81 83 82
f 84 107 109
f 84 109 85
f 84 106 108
f 84 108 107
f 86 110 111
f 86 111 87
f 88 112 89
f 89 112 90
f 90 112 113
f 90 113 114
f 90 114 115
f 90 115 116
f 90 116 117
f 90 117 93
f 90 93 91
f 91 93 92
f 93 117 118
f 93 118 98
f 94 100 99
f 94 99 119
f 94 119 120
f 94 120 121
f 94 121 95
f 95 121 122
f 95 122 97
f 96 97 122
f 96 122 101
f 98 118 99
f 99 118 123
f 99 123 124
f 99 124 125
f 99 125 126
f 99 126 127
f 99 127 119
f 101 122 128
f 101 128 129
f 101 129 130
f 101 130 102
f 102 130 131
f 102 131 132
f 102 132 103
f 103 133 104
f 103 132 133
f 104 133 134
f 104 134 135
f 104 135 105
f 105 135 108
f 105 108 106
f 107 136 139
f 107 139 109
f 107 108 136
f 108 137 138
f 108 138 136
f 108 135 137
f 110 140 141
f 110 141 142
f 110 142 111
f 112 143 113
f 113 143 144
f 113 144 145
f 113 145 146
f 113 146 147
f 113 147 114
f 114 147 115
f 115 147 116
f 116 147 148
f 116 148 118
f 116 118 117
f 118 149 123
f 118 148 150
f 118 150 151
f 118 151 149
f 119 152 120
f 119 127 152
f 120 152 121
f 121 152 153
f 121 153 154
f 121 154 122
f 122 154 128
f 123 149 124
f 124 149 151
f 124 151 155
f 124 155 156
f 124 156 125
f 125 156 126
f 126 156 127
f 127 156 152
f 128 154 157
f 128 157 158
f 128 158 129
f 129 131 130
f 129 158 131
f 131 158 133
f 131 133 132
f 133 158 159
f 133 159 160
f 133 160 134
f 134 160 161
f 134 161 162
f 134 162 163
f 134 163 164
f 134 164 135
f 135 164 137
f 136 138 165
f 136 165 166
f 136 166 168
f 136 168 139
f 137 165 138
f 137 164 167
f 137 167 165
f 140 169 141
f 141 169 170
f 145 171 146
f 146 171 172
f 146 172 173
f 146 173 147
f 147 173 174
f 147 174 150
f 147 150 148
f 150 175 155
f 150 155 151
f 150 174 176
f 150 176 175
f 152 177 178
f 152 178 157
f 152 157 153
f 152 156 179
f 152 179 177
f 153 157 154
f 155 180 181
f 155 181 156
f 155 175 182
f 155 182 180
f 156 181 183
f 156 183 179
f 157 178 184
f 157 184 185
f 157 185 158
f 158 185 160
f 158 160 159
f 160 186 161
f 160 185 187
f 160 187 186
f 161 186 188
f 161 188 189
f 161 189 162
f 162 189 190
f 162 190 163
f 163 190 164
f 164 190 167
f 165 167 191
f 165 191 192
f 165 192 166
f 166 192 196
f 166 196 168
f 167 193 191
f 167 190 194
f 167 194 195
f 167 195 193
f 169 197 198
f 169 198 170
f 171 199 172
f 172 200 201
f 172 201 202
f 172 202 173
f 172 199 200
f 173 202 203
f 173 203 204
f 173 204 174
f 174 204 203
f 174 203 176
f 175 176 205
f 175 205 182
f 176 203 205
f 177 206 207
f 177 207 178
f 177 179 206
f 178 207 184
f 179 183 208
f 179 208 209
f 179 209 206
f 180 182 181
f 181 210 183
f 181 182 210
f 182 205 211
f 182 211 212
f 182 212 210
f 183 210 213
f 183 213 208
f 184 207 214
f 184 214 187
f 184 187 185
f 186 187 215
f 186 215 188
f 187 216 188
f 187 188 215
f 187 214 216
f 188 216 217
f 188 217 218
f 188 218 190
f 188 190 189
f 190 219 194
f 190 218 217
f 190 217 220
f 190 220 221
f 190 221 219
f 191 193 222
f 191 222 192
f 192 222 223
f 192 223 231
f 192 231 196
f 193 195 224
f 193 224 222
f 194 225 226
f 194 226 224
f 194 224 195
f 194 219 221
f 194 221 220
f 194 220 227
f 194 227 228
f 194 228 229
f 194 229 230
f 194 230 225
f 197 232 233
f 197 233 198
f 199 234 200
f 200 235 201
f 200 234 236
f 200 236 237
f 200 237 238
f 200 238 239
f 200 239 240
f 200 240 241
f 200 241 235
f 201 235 202
f 202 235 205
f 202 205 203
f 205 241 211
f 205 235 241
f 206 209 242
f 206 242 243
f 206 243 214
f 206 214 207
f 208 213 244
f 208 244 242
f 208 242 209
f 210 212 245
f 210 245 213
f 211 241 246
f 211 246 247
f 211 247 212
f 212 247 245
f 213 245 244
f 214 243 242
f 214 242 248
f 214 248 216
f 216 248 249
f 216 249 217
f 217 249 227
f 217 227 220
f 222 224 250
f 222 250 223
f 223 250 261
f 223 261 231
f 224 226 250
f 225 230 251
f 225 251 226
f 226 251 252
f 226 252 250
f 227 249 253
f 227 253 254
f 227 254 228
f 228 254 255
f 228 255 256
f 228 256 257
f 228 257 258
f 228 258 229
f 229 259 257
f 229 257 230
f 229 258 259
f 230 257 260
f 230 260 251
f 232 262 263
f 232 263 264
f 232 264 233
f 237 265 238
f 238 265 266
f 238 266 267
f 238 267 268
f 238 268 239
f 239 268 240
f 240 268 269
f 240 269 241
f 241 269 246
f 242 270 271
f 242 271 248
f 242 244 272
f 242 272 270
f 244 245 273
f 244 273 274
f 244 274 272
f 245 247 273
f 246 275 247
f 246 269 276
f 246 276 275
f 247 277 273
f 247 275 277
f 248 271 249
f 249 271 270
f 249 270 278
f 249 278 253
f 250 279 295
f 250 295 261
f 250 252 279
f 251 280 282
f 251 282 252
f 251 260 281
f 251 281 280
f 252 282 279
f 253 278 283
f 253 283 254
f 254 283 284
f 254 284 285
f 254 285 286
f 254 286 255
f 255 286 287
f 255 287 288
f 255 288 289
f 255 289 290
f 255 290 256
f 256 290 291
f 256 291 292
f 256 292 293
f 256 293 294
f 256 294 257
f 257 259 258
f 257 294 260
f 260 294 292
f 260 292 281
f 262 296 297
f 262 297 263
f 265 298 266
f 266 299 267
f 266 298 300
f 266 300 301
f 266 301 299
f 267 299 302
f 267 302 303
f 267 303 268
f 268 303 276
f 268 276 269
f 270 272 304
f 270 304 278
f 272 274 304
f 273 277 275
f 273 275 274
f 274 305 306
f 274 306 304
f 274 275 305
f 275 276 307
f 275 307 308
f 275 308 305
f 276 303 309
f 276 309 307
f 278 304 310
f 278 310 311
f 278 311 283
f 279 312 313
f 279 313 332
f 279 332 295
f 279 282 312
f 280 281 315
f 280 315 314
f 280 314 319
f 280 319 282
f 281 292 316
f 281 316 317
f 281 317 318
f 281 318 315
f 282 319 312
f 283 311 310
f 283 310 284
f 284 310 304
f 284 304 320
f 284 320 321
f 284 321 285
f 285 321 320
f 285 320 286
f 286 288 322
f 286 322 287
f 286 320 323
f 286 323 288
f 287 322 288
f 288 324 289
f 288 323 325
f 288 325 326
f 288 326 324
f 289 324 327
f 289 327 290
f 290 327 328
f 290 328 329
f 290 329 330
f 290 330 291
f 291 330 317
f 291 317 331
f 291 331 292
f 292 294 293
f 292 331 316
f 296 333 334
f 296 334 297
f 299 301 309
f 299 309 303
f 299 303 302
f 300 335 301
f 301 335 336
f 301 336 337
f 301 337 338
f 301 338 309
f 304 306 339
f 304 339 320
f 305 340 306
f 305 308 340
f 306 340 339
f 307 341 342
f 307 342 308
f 307 309 341
f 308 342 340
f 309 338 343
f 309 343 344
f 309 344 341
f 312 319 313
f 313 319 345
f 313 345 346
f 313 346 332
f 314 315 347
f 314 347 348
f 314 348 349
f 314 349 319
f 315 318 350
f 315 350 347
f 316 331 317
f 317 330 350
f 317 350 318
f 319 349 345
f 320 339 351
f 320 351 323
f 323 351 325
f 324 326 352
f 324 352 327
f 325 353 352
f 325 352 326
f 325 351 354
f 325 354 355
f 325 355 353
f 327 356 328
f 327 352 356
f 328 356 329
f 329 357 330
f 329 356 358
f 329 358 357
f 330 359 350
f 330 357 359
f 333 360 361
f 333 361 362
f 333 362 334
f 336 363 337
f 337 363 364
f 337 364 365
f 337 365 366
f 337 366 344
f 337 344 343
f 337 343 338
f 339 340 367
f 339 367 368
f 339 368 351
f 340 342 367
f 341 344 369
f 341 369 342
f 342 369 368
f 342 368 367
f 344 370 369
f 344 366 370
f 345 349 346
f 346 371 372
f 346 349 371
f 347 350 373
f 347 373 374
f 347 374 375
f 347 375 376
f 347 376 348
f 348 376 377
f 348 377 349
f 349 377 371
f 350 359 378
f 350 378 373
f 351 368 379
f 351 379 380
f 351 380 354
f 352 353 356
f 353 355 381
f 353 381 356
f 354 382 355
f 354 380 383
f 354 383 382
f 355 382 384
f 355 384 385
f 355 385 381
f 356 386 387
f 356 387 358
f 356 381 388
f 356 388 386
f 357 389 359
f 357 358 386
f 357 386 390
f 357 390 389
f 358 387 386
f 359 391 375
f 359 375 374
f 359 374 378
f 359 389 391
f 360 392 393
f 360 393 361
f 363 394 364
f 364 394 395
f 364 395 396
f 364 396 397
f 364 397 398
f 364 398 370
f 364 370 366
f 364 366 365
f 368 369 399
f 368 399 379
f 369 370 400
f 369 400 401
f 369 401 399
f 370 398 402
f 370 402 400
f 371 403 404
f 371 404 406
f 371 406 372
f 371 377 405
f 371 405 403
f 373 378 374
f 375 391 407
f 375 407 376
f 376 408 377
f 376 407 408
f 377 408 409
f 377 409 405
f 379 399 401
f 379 401 380
f 380 401 383
f 381 385 410
f 381 410 386
f 381 386 388
f 382 383 384
f 383 401 400
f 383 400 411
f 383 411 412
f 383 412 384
f 384 412 413
f 384 413 410
f 384 410 385
f 386 414 390
f 386 410 415
f 386 415 416
f 386 416 414
f 389 390 417
f 389 417 418
f 389 418 419
f 389 419 391
f 390 414 418
f 390 418 417
f 391 419 420
f 391 420 407
f 392 421 422
f 392 422 393
f 395 423 396
f 396 423 424
f 396 424 425
f 396 425 397
f 397 425 426
f 397 426 427
f 397 427 398
f 398 427 402
f 400 402 426
f 400 426 428
f 400 428 411
f 402 427 426
f 403 405 429
f 403 429 404
f 404 430 432
f 404 432 406
f 404 429 431
f 404 431 430
f 405 409 429
f 407 420 433
f 407 433 408
f 408 433 409
f 409 433 434
f 409 434 435
f 409 435 429
f 410 413 436
f 410 436 437
f 410 437 438
f 410 438 415
f 411 428 439
f 411 439 412
f 412 439 440
f 412 440 441
f 412 441 413
f 413 441 442
f 413 442 443
f 413 443 436
f 414 416 418
f 415 438 437
f 415 437 444
f 415 444 416
f 416 444 418
f 418 444 445
f 418 445 419
f 419 445 446
f 419 446 420
f 420 446 447
f 420 447 433
f 421 448 449
f 421 449 450
f 421 450 422
f 423 451 424
f 424 451 452
f 424 452 453
f 424 453 425
f 425 453 439
f 425 439 454
f 425 454 426
f 426 454 428
f 428 454 439
f 429 435 455
f 429 455 456
f 429 456 431
f 430 457 460
f 430 460 432
f 430 431 456
f 430 456 458
f 430 458 459
f 430 459 457
f 433 447 461
f 433 461 434
f 434 461 462
f 434 462 435
f 435 462 455
f 436 443 437
f 437 443 463
f 437 463 444
f 439 464 441
f 439 441 440
f 439 453 464
f 441 464 453
f 441 453 465
f 441 465 466
f 441 466 467
f 441 467 442
f 442 467 443
f 443 467 468
f 443 468 469
f 443 469 463
f 444 463 470
f 444 470 471
f 444 471 445
f 445 471 446
f 446 471 472
f 446 472 461
f 446 461 447
f 448 473 474
f 448 474 449
f 451 475 452
f 452 475 465
f 452 465 453
f 455 462 476
f 455 476 477
f 455 477 456
f 456 477 458
f 457 459 478
f 457 478 460
f 458 477 459
f 459 477 478
f 460 478 480
f 460 480 481
f 460 481 479
f 461 472 482
f 461 482 462
f 462 478 477
f 462 477 476
f 462 482 483
f 462 483 484
f 462 484 478
f 463 485 471
f 463 471 470
f 463 469 485
f 465 486 466
f 465 475 487
f 465 487 486
f 466 486 467
f 467 486 468
f 468 486 488
f 468 488 489
f 468 489 469
f 469 489 488
f 469 488 490
f 469 490 491
f 469 491 492
f 469 492 471
f 469 471 485
f 471 492 493
f 471 493 472
f 472 493 494
f 472 494 482
f 473 495 496
f 473 496 497
f 473 497 498
f 473 498 474
f 478 484 480
f 479 481 484
f 479 484 499
f 479 499 500
f 479 500 501
f 479 501 502
f 479 502 495
f 480 484 481
f 482 494 483
f 483 494 484
f 484 494 499
f 486 487 503
f 486 503 488
f 490 504 491
f 491 504 505
f 491 505 492
f 492 505 494
f 492 494 493
f 494 505 504
f 494 500 499
f 495 502 496
