v -0.318913 -0.512199 -0.131684
v -0.321306 -0.512207 -0.118904
v -0.319185 -0.512207 -0.131395
v -0.318913 -0.512207 -0.134284
v -0.318913 -0.431718 -0.159265
v -0.39763 -0.512207 0.0563141
v -0.318913 -0.512207 -0.268403
v -0.318913 -0.431718 -0.268403
v -0.424281 -0.431718 0.0596213
v -0.40035 -0.512207 0.0596213
v -0.382492 -0.512207 -0.207461
v -0.382492 -0.431718 -0.207461
v -0.504104 -0.431718 0.0596213
v -0.504104 -0.512207 0.0596213
v -0.389019 -0.512207 -0.201199
v -0.389019 -0.431718 -0.201199
v -0.504032 -0.431718 0.0563141
v -0.504032 -0.512207 0.0563141
v -0.395274 -0.512207 -0.1942
v -0.395274 -0.431718 -0.1942
v -0.502291 -0.431718 0.0439522
v -0.502273 -0.512207 0.0438559
v -0.400676 -0.512207 -0.187938
v -0.400676 -0.43182 -0.187938
v -0.400712 -0.431718 -0.187874
v -0.502273 -0.431718 0.0438559
v -0.501584 -0.512207 0.0411908
v -0.40296 -0.512207 -0.184214
v -0.404628 -0.431718 -0.181484
v -0.500641 -0.431718 0.0375946
v -0.500641 -0.512207 0.0375946
v -0.404628 -0.512207 -0.181484
v -0.457729 -0.431718 -0.0938913
v -0.4772 -0.431718 -0.0429987
v -0.4772 -0.512207 -0.0429987
v -0.457729 -0.512207 -0.0938913
v -0.460376 -0.512207 -0.0894603
v -0.462298 -0.431718 -0.0861852
v -0.469676 -0.431718 -0.0688464
v -0.471779 -0.512207 -0.0616219
v -0.462298 -0.512207 -0.0861852
v -0.464129 -0.512207 -0.082589
v -0.465507 -0.431718 -0.0798597
v -0.469676 -0.512207 -0.0688464
v -0.46547 -0.512207 -0.079924
v -0.4679 -0.512207 -0.0735343
f 1 2 3
f 1 3 4
f 1 4 7
f 1 7 8
f 1 8 5
f 1 5 2
f 2 5 6
f 2 6 10
f 2 10 14
f 2 14 18
f 2 18 22
f 2 22 27
f 2 27 31
f 2 31 35
f 2 35 40
f 2 40 44
f 2 44 46
f 2 46 45
f 2 45 42
f 2 42 41
f 2 41 37
f 2 37 36
f 2 36 32
f 2 32 28
f 2 28 23
f 2 23 19
f 2 19 15
f 2 15 11
f 2 11 7
f 2 7 4
f 2 4 3
f 5 8 12
f 5 12 16
f 5 16 20
f 5 20 25
f 5 25 29
f 5 29 33
f 5 33 38
f 5 38 43
f 5 43 39
f 5 39 34
f 5 34 30
f 5 30 26
f 5 26 21
f 5 21 17
f 5 17 13
f 5 13 9
f 5 9 6
f 6 9 10
f 7 11 12
f 7 12 8
f 9 13 14
f 9 14 10
f 11 15 16
f 11 16 12
f 13 17 18
f 13 18 14
f 15 19 20
f 15 20 16
f 17 21 18
f 18 21 22
f 19 23 24
f 19 24 20
f 20 24 25
f 21 26 22
f 22 26 27
f 23 28 24
f 24 28 29
f 24 29 25
f 26 30 27
f 27 30 31
f 28 32 29
f 29 32 36
f 29 36 33
f 30 34 35
f 30 35 31
f 33 37 38
f 33 36 37
f 34 39 40
f 34 40 35
f 37 41 38
f 38 42 43
f 38 41 42
f 39 43 44
f 39 44 40
f 42 45 43
f 43 45 46
f 43 46 44
