v -0.0438216 -0.582007 -0.380445
v -0.0438216 -0.512216 -0.380445
v -0.0260103 -0.512216 -0.380057
v -0.0253072 -0.582007 -0.380014
v -0.0253072 -0.594531 -0.379755
v -0.0313068 -0.594531 -0.379885
v -0.0438216 -0.594531 -0.3801
v -0.0563364 -0.594531 -0.379497
v -0.0563364 -0.582007 -0.379799
v -0.0563364 -0.512216 -0.379799
v -0.0253072 -0.512216 -0.380014
v -0.0253072 -0.59851 -0.378679
v -0.0253072 -0.602828 -0.377472
v -0.0438216 -0.602947 -0.377645
v -0.0563364 -0.602709 -0.377343
v -0.0688513 -0.601657 -0.376266
v -0.0753196 -0.600852 -0.375534
v -0.0688513 -0.594531 -0.377257
v -0.0688513 -0.582007 -0.377472
v -0.0635547 -0.512216 -0.378463
v -0.0253072 -0.512216 -0.281714
v -0.0253072 -0.604008 -0.373509
v -0.0313068 -0.602874 -0.377516
v -0.0253072 -0.60527 -0.369202
v -0.0313068 -0.605307 -0.369202
v -0.0438216 -0.60538 -0.369202
v -0.0563364 -0.605142 -0.369202
v -0.106396 -0.602874 -0.365239
v -0.169017 -0.601895 -0.351454
v -0.125707 -0.600943 -0.363085
v -0.0757414 -0.594531 -0.37562
v -0.169017 -0.594531 -0.352704
v -0.126316 -0.594531 -0.363214
v -0.0760695 -0.582007 -0.375706
v -0.0688513 -0.512216 -0.377472
v -0.0253072 -0.512335 0.0596214
v -0.40033 -0.512216 0.0596214
v -0.0253072 -0.605481 -0.363171
v -0.0253072 -0.605664 -0.35671
v -0.0813661 -0.605664 -0.35671
v -0.0938809 -0.605655 -0.35671
v -0.106396 -0.605307 -0.35671
v -0.156502 -0.602919 -0.35279
v -0.180688 -0.602892 -0.344519
v -0.194046 -0.60259 -0.34047
v -0.175954 -0.601044 -0.350636
v -0.169017 -0.582007 -0.352919
v -0.17661 -0.594531 -0.350808
v -0.0760695 -0.512216 -0.375706
v -0.132878 -0.531957 -0.361793
v -0.130253 -0.512216 -0.362439
v -0.0253072 -0.605664 0.0596214
v -0.504104 -0.512216 0.0596214
v -0.14394 -0.605664 -0.344175
v -0.156502 -0.605353 -0.344175
v -0.169017 -0.604328 -0.344175
v -0.194046 -0.605023 -0.331683
v -0.206139 -0.603203 -0.331812
v -0.25662 -0.603102 -0.304717
v -0.241902 -0.602389 -0.314926
v -0.201686 -0.601565 -0.338661
v -0.182844 -0.594531 -0.348568
v -0.194046 -0.594531 -0.343528
v -0.176891 -0.582007 -0.350895
v -0.173563 -0.512216 -0.351756
v -0.169017 -0.512216 -0.352919
v -0.183125 -0.582007 -0.348956
v -0.48184 -0.605664 0.0596214
v -0.50401 -0.512216 0.0563045
v -0.504104 -0.582007 0.0596214
v -0.181531 -0.605664 -0.331683
v -0.206561 -0.605664 -0.319147
v -0.231591 -0.605636 -0.306612
v -0.25662 -0.605545 -0.29412
v -0.281603 -0.60538 -0.281585
v -0.219076 -0.60474 -0.319147
v -0.281603 -0.602947 -0.291406
v -0.266088 -0.602252 -0.302089
v -0.20253 -0.594531 -0.339135
v -0.290368 -0.602041 -0.289209
v -0.225966 -0.601181 -0.325781
v -0.194046 -0.582007 -0.344045
v -0.1805 -0.512216 -0.349774
v -0.176891 -0.512216 -0.350895
v -0.183125 -0.512216 -0.348956
v -0.494355 -0.604877 0.0596214
v -0.48184 -0.605664 0.0312772
v -0.50401 -0.582007 0.0563045
v -0.502276 -0.512216 0.0438555
v -0.50387 -0.594531 0.0596214
v -0.294118 -0.605664 -0.269093
v -0.307429 -0.603706 -0.269868
v -0.294399 -0.603487 -0.282059
v -0.250246 -0.599251 -0.312815
v -0.226482 -0.594531 -0.32604
v -0.303773 -0.602407 -0.278225
v -0.298102 -0.594531 -0.286237
v -0.291868 -0.594531 -0.290028
v -0.194046 -0.512216 -0.344045
v -0.25048 -0.590908 -0.312944
v -0.219076 -0.582007 -0.330304
v -0.502135 -0.602444 0.0596214
v -0.494355 -0.60485 0.0563045
v -0.48184 -0.605527 0.0187421
v -0.469325 -0.605655 -0.0187773
v -0.45681 -0.605664 -0.0563397
v -0.502276 -0.582007 0.0438555
v -0.502135 -0.594531 0.044157
v -0.503776 -0.594531 0.0563045
v -0.500636 -0.512216 0.0375664
v -0.502089 -0.602416 0.0563045
v -0.502604 -0.60034 0.0596214
v -0.319147 -0.605664 -0.244066
v -0.381721 -0.604767 -0.193968
v -0.369207 -0.604658 -0.206503
v -0.356692 -0.604548 -0.218995
v -0.316476 -0.602407 -0.266207
v -0.38069 -0.602197 -0.205556
v -0.305695 -0.594531 -0.279991
v -0.375816 -0.601081 -0.213094
v -0.363113 -0.600925 -0.225414
v -0.350411 -0.600083 -0.237733
v -0.311976 -0.594531 -0.274434
v -0.305976 -0.582007 -0.280336
v -0.298336 -0.582007 -0.286582
v -0.292055 -0.582007 -0.290157
v -0.281603 -0.582007 -0.295929
v -0.219076 -0.512216 -0.330304
v -0.26337 -0.512216 -0.305966
v -0.501573 -0.60184 0.0463108
v -0.491027 -0.603093 0.0187421
v -0.48184 -0.604676 0.00624999
v -0.469325 -0.605179 -0.0313124
v -0.45681 -0.605463 -0.0688748
v -0.431781 -0.605664 -0.106394
v -0.500636 -0.582007 0.0375664
v -0.500448 -0.594531 0.0378679
v -0.4772 -0.512216 -0.0429861
v -0.381721 -0.605664 -0.181476
v -0.394236 -0.605655 -0.168941
v -0.406751 -0.605069 -0.156492
v -0.395455 -0.603706 -0.182682
v -0.391471 -0.602334 -0.193968
v -0.388471 -0.601227 -0.200731
v -0.388846 -0.594531 -0.201076
v -0.376097 -0.594531 -0.213352
v -0.35552 -0.595354 -0.233038
v -0.350552 -0.59174 -0.237906
v -0.312257 -0.582007 -0.274736
v -0.305976 -0.512216 -0.280336
v -0.298336 -0.512216 -0.286582
v -0.292055 -0.512216 -0.290157
v -0.287649 -0.512216 -0.292612
v -0.489574 -0.602233 0.00624999
v -0.488543 -0.601273 -0.00141756
v -0.477715 -0.602746 -0.0313124
v -0.46581 -0.603029 -0.0688748
v -0.457467 -0.603551 -0.0818838
v -0.444296 -0.605142 -0.0939021
v -0.419266 -0.605499 -0.131465
v -0.406751 -0.605664 -0.143957
v -0.4772 -0.582007 -0.0429861
v -0.488824 -0.594531 -0.00240832
v -0.473309 -0.512216 -0.0563397
v -0.431781 -0.604529 -0.118929
v -0.406845 -0.60324 -0.168553
v -0.402767 -0.602407 -0.179322
v -0.40047 -0.600157 -0.187679
v -0.396158 -0.5954 -0.192805
v -0.395221 -0.582007 -0.194183
v -0.388987 -0.582007 -0.201205
v -0.369675 -0.582007 -0.219728
v -0.337849 -0.582007 -0.250225
v -0.312257 -0.512216 -0.274736
v -0.476497 -0.601776 -0.0407892
v -0.477059 -0.594531 -0.0427276
v -0.464497 -0.602151 -0.0780501
v -0.453623 -0.602709 -0.0939021
v -0.444483 -0.603304 -0.106136
v -0.473309 -0.582007 -0.0563397
v -0.469653 -0.582007 -0.0688748
v -0.469653 -0.512216 -0.0688748
v -0.427187 -0.602197 -0.14051
v -0.413876 -0.60162 -0.164073
v -0.400611 -0.591814 -0.187851
v -0.438155 -0.600907 -0.125348
v -0.438296 -0.594531 -0.125606
v -0.395221 -0.512216 -0.194183
v -0.392596 -0.512216 -0.197156
v -0.400658 -0.582007 -0.187937
v -0.388987 -0.512216 -0.201205
v -0.369675 -0.512216 -0.219728
v -0.337849 -0.512216 -0.250225
v -0.469091 -0.594531 -0.0688748
v -0.465294 -0.594531 -0.07973
v -0.461919 -0.594531 -0.0859761
v -0.451514 -0.60173 -0.101742
v -0.465482 -0.582007 -0.0799454
v -0.465482 -0.512216 -0.0799454
v -0.404595 -0.582007 -0.181476
v -0.424562 -0.582007 -0.148609
v -0.419781 -0.582007 -0.156492
v -0.452123 -0.594531 -0.102733
v -0.452264 -0.582007 -0.102905
v -0.400658 -0.512216 -0.187937
v -0.462294 -0.582007 -0.0861915
v -0.462294 -0.512216 -0.0861915
v -0.404595 -0.512216 -0.181476
v -0.424562 -0.512216 -0.148609
v -0.419781 -0.512216 -0.156492
v -0.457701 -0.582007 -0.0939021
v -0.452264 -0.512216 -0.102905
v -0.460373 -0.512216 -0.0894652
v -0.457701 -0.512216 -0.0939021
f 1 2 3
f 1 3 4
f 1 4 5
f 1 5 6
f 1 6 7
f 1 7 8
f 1 8 9
f 1 9 10
f 1 10 2
f 2 10 20
f 2 20 35
f 2 35 49
f 2 49 51
f 2 51 66
f 2 66 65
f 2 65 84
f 2 84 83
f 2 83 85
f 2 85 99
f 2 99 128
f 2 128 129
f 2 129 153
f 2 153 152
f 2 152 151
f 2 151 150
f 2 150 174
f 2 174 193
f 2 193 192
f 2 192 191
f 2 191 189
f 2 189 188
f 2 188 205
f 2 205 208
f 2 208 210
f 2 210 209
f 2 209 212
f 2 212 214
f 2 214 213
f 2 213 207
f 2 207 199
f 2 199 182
f 2 182 164
f 2 164 138
f 2 138 110
f 2 110 89
f 2 89 69
f 2 69 53
f 2 53 37
f 2 37 21
f 2 21 11
f 2 11 3
f 3 11 4
f 4 11 21
f 4 21 36
f 4 36 52
f 4 52 39
f 4 39 38
f 4 38 24
f 4 24 22
f 4 22 13
f 4 13 12
f 4 12 5
f 5 12 6
f 6 12 7
f 7 12 13
f 7 13 14
f 7 14 15
f 7 15 8
f 8 15 16
f 8 16 17
f 8 17 18
f 8 18 9
f 9 18 19
f 9 19 20
f 9 20 10
f 13 22 23
f 13 23 14
f 14 23 22
f 14 22 24
f 14 24 25
f 14 25 26
f 14 26 27
f 14 27 15
f 15 27 28
f 15 28 16
f 16 28 29
f 16 29 30
f 16 30 17
f 17 31 18
f 17 30 32
f 17 32 33
f 17 33 31
f 18 31 19
f 19 31 34
f 19 34 49
f 19 49 35
f 19 35 20
f 21 37 36
f 24 38 25
f 25 38 26
f 26 38 39
f 26 39 40
f 26 40 41
f 26 41 27
f 27 41 42
f 27 42 28
f 28 42 43
f 28 43 29
f 29 43 44
f 29 44 45
f 29 45 46
f 29 46 30
f 30 46 32
f 31 33 47
f 31 47 34
f 32 46 48
f 32 48 47
f 32 47 33
f 34 47 50
f 34 50 51
f 34 51 49
f 36 37 53
f 36 53 70
f 36 70 90
f 36 90 112
f 36 112 102
f 36 102 86
f 36 86 68
f 36 68 52
f 39 52 68
f 39 68 87
f 39 87 106
f 39 106 135
f 39 135 161
f 39 161 139
f 39 139 113
f 39 113 91
f 39 91 72
f 39 72 71
f 39 71 54
f 39 54 40
f 40 54 41
f 41 54 55
f 41 55 42
f 42 55 43
f 43 55 56
f 43 56 44
f 44 56 45
f 45 57 58
f 45 58 59
f 45 59 60
f 45 60 61
f 45 61 46
f 45 56 57
f 46 62 48
f 46 61 63
f 46 63 62
f 47 48 64
f 47 64 65
f 47 65 66
f 47 66 51
f 47 51 50
f 48 62 67
f 48 67 64
f 53 69 88
f 53 88 70
f 54 71 55
f 55 71 57
f 55 57 56
f 57 72 73
f 57 73 74
f 57 74 75
f 57 75 76
f 57 76 58
f 57 71 72
f 58 76 59
f 59 76 77
f 59 77 78
f 59 78 60
f 60 78 61
f 61 79 63
f 61 78 80
f 61 80 81
f 61 81 79
f 62 63 82
f 62 82 67
f 63 79 82
f 64 83 84
f 64 84 65
f 64 67 83
f 67 85 83
f 67 82 99
f 67 99 85
f 68 86 87
f 69 89 107
f 69 107 88
f 70 88 109
f 70 109 90
f 72 91 73
f 73 91 74
f 74 91 75
f 75 91 92
f 75 92 93
f 75 93 77
f 75 77 76
f 77 93 80
f 77 80 78
f 79 81 94
f 79 94 95
f 79 95 82
f 80 93 96
f 80 96 97
f 80 97 98
f 80 98 94
f 80 94 81
f 82 95 100
f 82 100 101
f 82 101 128
f 82 128 99
f 86 102 103
f 86 103 87
f 87 103 104
f 87 104 105
f 87 105 106
f 88 107 108
f 88 108 109
f 89 110 136
f 89 136 107
f 90 109 111
f 90 111 112
f 91 113 114
f 91 114 115
f 91 115 116
f 91 116 92
f 92 117 96
f 92 96 93
f 92 116 115
f 92 115 118
f 92 118 117
f 94 100 95
f 94 98 100
f 96 119 97
f 96 117 120
f 96 120 121
f 96 121 122
f 96 122 123
f 96 123 119
f 97 119 124
f 97 124 125
f 97 125 98
f 98 125 126
f 98 126 127
f 98 127 100
f 100 127 101
f 101 127 129
f 101 129 128
f 102 112 111
f 102 111 103
f 103 111 130
f 103 130 131
f 103 131 132
f 103 132 104
f 104 132 133
f 104 133 134
f 104 134 105
f 105 134 106
f 106 134 135
f 107 136 108
f 108 136 137
f 108 137 130
f 108 130 109
f 109 130 111
f 110 138 162
f 110 162 136
f 113 139 114
f 114 139 140
f 114 140 141
f 114 141 142
f 114 142 143
f 114 143 118
f 114 118 115
f 117 118 144
f 117 144 120
f 118 143 144
f 119 123 124
f 120 144 145
f 120 145 121
f 121 145 122
f 122 145 146
f 122 146 147
f 122 147 148
f 122 148 149
f 122 149 123
f 123 149 124
f 124 150 151
f 124 151 125
f 124 149 174
f 124 174 150
f 125 151 152
f 125 152 126
f 126 152 153
f 126 153 127
f 127 153 129
f 130 154 131
f 130 137 155
f 130 155 154
f 131 154 156
f 131 156 133
f 131 133 132
f 133 156 157
f 133 157 134
f 134 157 158
f 134 158 159
f 134 159 160
f 134 160 135
f 135 160 140
f 135 140 161
f 136 162 163
f 136 163 137
f 137 163 155
f 138 164 180
f 138 180 162
f 139 161 140
f 140 160 141
f 141 160 159
f 141 159 165
f 141 165 166
f 141 166 142
f 142 166 167
f 142 167 143
f 143 167 144
f 144 167 168
f 144 168 145
f 145 168 169
f 145 169 170
f 145 170 171
f 145 171 146
f 146 148 147
f 146 171 148
f 148 171 172
f 148 172 173
f 148 173 149
f 149 173 193
f 149 193 174
f 154 155 175
f 154 175 156
f 155 163 176
f 155 176 175
f 156 175 157
f 157 177 158
f 157 175 177
f 158 177 178
f 158 178 179
f 158 179 159
f 159 179 165
f 162 180 163
f 163 180 181
f 163 181 176
f 164 182 181
f 164 181 180
f 165 179 166
f 166 179 183
f 166 183 167
f 167 184 168
f 167 183 184
f 168 185 169
f 168 184 186
f 168 186 187
f 168 187 185
f 169 185 170
f 170 188 189
f 170 189 171
f 170 185 190
f 170 190 205
f 170 205 188
f 171 189 191
f 171 191 192
f 171 192 172
f 172 192 193
f 172 193 173
f 175 176 194
f 175 194 177
f 176 181 194
f 177 194 195
f 177 195 196
f 177 196 197
f 177 197 178
f 178 197 183
f 178 183 179
f 181 182 199
f 181 199 198
f 181 198 195
f 181 195 194
f 183 197 184
f 184 197 186
f 185 200 190
f 185 187 201
f 185 201 202
f 185 202 200
f 186 197 196
f 186 196 203
f 186 203 187
f 187 203 204
f 187 204 201
f 190 200 208
f 190 208 205
f 195 198 206
f 195 206 196
f 196 206 203
f 198 199 207
f 198 207 206
f 200 202 210
f 200 210 208
f 201 209 210
f 201 210 202
f 201 204 212
f 201 212 209
f 203 206 211
f 203 211 204
f 204 211 214
f 204 214 212
f 206 207 213
f 206 213 211
f 211 213 214
