v -0.491074 -0.511549 0.245544
v -0.393567 -0.511549 0.245544
v -0.479147 -0.511549 0.294142
v -0.491074 0.556908 0.245544
v -0.386946 -0.511549 0.249274
v -0.409951 0.556908 0.245544
v -0.477559 -0.511549 0.300339
v -0.479147 0.556908 0.294142
v -0.490966 0.559094 0.245544
v -0.310225 -0.511549 0.385303
v -0.410546 0.567947 0.245544
v -0.330867 0.556908 0.397356
v -0.476621 -0.511549 0.30398
v -0.476621 0.556908 0.30398
v -0.476296 0.569477 0.302851
v -0.478498 0.569477 0.294142
v -0.488692 0.569477 0.252618
v -0.490424 0.569477 0.245544
v -0.306761 -0.511549 0.397356
v -0.410691 0.570352 0.245544
v -0.331516 0.566089 0.397356
v -0.475466 -0.511549 0.307933
v -0.474781 0.556908 0.310237
v -0.47442 0.569477 0.309107
v -0.475863 0.576254 0.301275
v -0.488295 0.576144 0.250998
v -0.490244 0.570898 0.245544
v -0.427579 -0.511549 0.397356
v -0.411899 0.576363 0.245544
v -0.331769 0.569477 0.397356
v -0.474781 -0.511549 0.310237
v -0.470522 0.556908 0.319184
v -0.469783 0.569477 0.319184
v -0.47211 -0.511549 0.315869
v -0.463955 0.577565 0.326971
v -0.46603 0.581828 0.318946
v -0.471966 0.581063 0.305927
v -0.473734 0.58456 0.294142
v -0.476729 0.578221 0.294142
v -0.485968 0.583904 0.245544
v -0.488945 0.577565 0.245544
v -0.431549 -0.511549 0.390133
v -0.427579 0.556908 0.397356
v -0.412657 0.578877 0.245544
v -0.336659 0.581937 0.397356
v -0.427543 0.560406 0.397356
v -0.427164 0.566854 0.397356
v -0.470522 -0.511549 0.319184
v -0.467112 -0.511549 0.325396
v -0.451613 0.569477 0.352325
v -0.438098 0.575816 0.375554
v -0.451036 0.576691 0.35127
v -0.425252 0.587729 0.387458
v -0.461735 0.585871 0.322944
v -0.464009 0.58915 0.314621
v -0.465579 0.59079 0.306655
v -0.474889 0.586855 0.284883
v -0.475881 0.588604 0.276545
v -0.485228 0.585106 0.245544
v -0.414678 0.58303 0.245544
v -0.420524 0.591445 0.245544
v -0.342432 0.589587 0.397356
v -0.426731 0.570461 0.397356
v -0.438477 0.569477 0.376238
v -0.427435 0.579423 0.391486
v -0.422383 0.582811 0.397356
v -0.421138 0.584778 0.397356
v -0.416248 0.591227 0.397356
v -0.427525 0.590134 0.379121
v -0.438171 0.588385 0.363174
v -0.45109 0.588822 0.33889
v -0.453074 0.590571 0.331682
v -0.457279 0.592866 0.318946
v -0.45053 0.600735 0.312838
v -0.456521 0.597784 0.307859
v -0.460003 0.598877 0.294142
v -0.467473 0.592648 0.294142
v -0.476765 0.589587 0.269115
v -0.478317 0.591118 0.256601
v -0.479688 0.59232 0.245544
v -0.421264 0.59232 0.245544
v -0.422256 0.593194 0.245544
v -0.428878 0.598659 0.245544
v -0.345157 0.591445 0.397356
v -0.424331 0.577893 0.397356
v -0.408435 0.597347 0.397356
v -0.417114 0.591992 0.394265
v -0.444504 0.59232 0.343512
v -0.435356 0.599205 0.344196
v -0.437557 0.600517 0.337018
v -0.401976 0.601391 0.397356
v -0.402788 0.601719 0.394265
v -0.442248 0.602265 0.319184
v -0.452136 0.6015 0.3045
v -0.461807 0.60008 0.281628
v -0.462872 0.600626 0.274584
v -0.472218 0.598659 0.245544
v -0.4344 0.601719 0.245544
v -0.355388 0.598222 0.397356
v -0.405512 0.599424 0.397356
v -0.409049 0.598222 0.394265
v -0.424512 0.600298 0.361153
v -0.394271 0.603468 0.397356
v -0.411466 0.59997 0.385363
v -0.394271 0.603905 0.394265
v -0.432758 0.602812 0.332381
v -0.44555 0.602921 0.307859
v -0.453742 0.602156 0.294142
v -0.463684 0.601063 0.266231
v -0.465957 0.602047 0.245544
v -0.471479 0.599096 0.245544
v -0.435139 0.602047 0.245544
v -0.362822 0.601719 0.397356
v -0.360205 0.600517 0.397356
v -0.381767 0.604779 0.397356
v -0.419297 0.604342 0.344196
v -0.394271 0.604779 0.381736
v -0.444323 0.604561 0.294142
v -0.455546 0.602593 0.281628
v -0.456846 0.603796 0.256601
v -0.456846 0.604451 0.245544
v -0.436384 0.602375 0.245544
v -0.444323 0.604451 0.245544
v -0.36892 0.60314 0.397356
v -0.381767 0.604889 0.394265
v -0.419297 0.604998 0.331682
v -0.444323 0.604779 0.281628
v -0.444323 0.604889 0.269115
v -0.444323 0.604779 0.256601
f 1 2 5
f 1 5 10
f 1 10 19
f 1 19 28
f 1 28 42
f 1 42 49
f 1 49 48
f 1 48 34
f 1 34 31
f 1 31 22
f 1 22 13
f 1 13 7
f 1 7 3
f 1 3 8
f 1 8 4
f 1 4 9
f 1 9 18
f 1 18 27
f 1 27 41
f 1 41 40
f 1 40 59
f 1 59 80
f 1 80 97
f 1 97 111
f 1 111 110
f 1 110 121
f 1 121 123
f 1 123 122
f 1 122 112
f 1 112 98
f 1 98 83
f 1 83 82
f 1 82 81
f 1 81 61
f 1 61 60
f 1 60 44
f 1 44 29
f 1 29 20
f 1 20 11
f 1 11 6
f 1 6 2
f 2 6 5
f 3 7 8
f 4 8 9
f 5 6 10
f 6 11 12
f 6 12 10
f 7 13 14
f 7 14 8
f 8 14 15
f 8 15 16
f 8 16 9
f 9 16 17
f 9 17 18
f 10 12 19
f 11 20 12
f 12 20 21
f 12 21 30
f 12 30 45
f 12 45 62
f 12 62 84
f 12 84 99
f 12 99 114
f 12 114 113
f 12 113 124
f 12 124 115
f 12 115 103
f 12 103 91
f 12 91 100
f 12 100 86
f 12 86 68
f 12 68 67
f 12 67 66
f 12 66 85
f 12 85 63
f 12 63 47
f 12 47 46
f 12 46 43
f 12 43 28
f 12 28 19
f 13 22 14
f 14 23 15
f 14 22 23
f 15 24 25
f 15 25 16
f 15 23 24
f 16 25 26
f 16 26 17
f 17 26 18
f 18 26 27
f 20 29 30
f 20 30 21
f 22 31 23
f 23 32 33
f 23 33 24
f 23 31 34
f 23 34 32
f 24 33 35
f 24 35 25
f 25 35 36
f 25 36 37
f 25 37 38
f 25 38 39
f 25 39 26
f 26 39 40
f 26 40 41
f 26 41 27
f 28 43 42
f 29 44 30
f 30 44 45
f 32 43 46
f 32 46 47
f 32 47 33
f 32 34 48
f 32 48 49
f 32 49 43
f 33 50 51
f 33 51 52
f 33 52 35
f 33 47 50
f 35 52 53
f 35 53 54
f 35 54 36
f 36 54 55
f 36 55 37
f 37 55 38
f 38 55 56
f 38 56 57
f 38 57 40
f 38 40 39
f 40 57 58
f 40 58 59
f 42 43 49
f 44 60 45
f 45 60 61
f 45 61 62
f 47 63 51
f 47 51 64
f 47 64 50
f 50 64 51
f 51 63 65
f 51 65 52
f 52 65 53
f 53 66 67
f 53 67 68
f 53 68 69
f 53 69 70
f 53 70 54
f 53 65 66
f 54 70 71
f 54 71 55
f 55 71 72
f 55 72 73
f 55 73 74
f 55 74 75
f 55 75 56
f 56 58 57
f 56 75 76
f 56 76 77
f 56 77 58
f 58 77 78
f 58 78 59
f 59 78 79
f 59 79 80
f 61 81 62
f 62 81 82
f 62 82 83
f 62 83 84
f 63 85 65
f 65 85 66
f 68 86 87
f 68 87 69
f 69 87 72
f 69 72 71
f 69 71 70
f 72 87 88
f 72 88 73
f 73 88 87
f 73 87 89
f 73 89 74
f 74 76 75
f 74 89 90
f 74 90 91
f 74 91 92
f 74 92 93
f 74 93 94
f 74 94 76
f 76 94 95
f 76 95 77
f 77 95 80
f 77 80 79
f 77 79 78
f 80 95 96
f 80 96 97
f 83 98 99
f 83 99 84
f 86 100 101
f 86 101 87
f 87 101 89
f 89 101 90
f 90 101 102
f 90 102 91
f 91 103 92
f 91 102 104
f 91 104 100
f 92 103 93
f 93 103 105
f 93 105 106
f 93 106 107
f 93 107 94
f 94 107 108
f 94 108 96
f 94 96 95
f 96 109 110
f 96 110 111
f 96 111 97
f 96 108 109
f 98 112 113
f 98 113 114
f 98 114 99
f 100 104 101
f 101 104 102
f 103 115 105
f 105 116 107
f 105 107 106
f 105 115 117
f 105 117 116
f 107 116 118
f 107 118 108
f 108 118 119
f 108 119 110
f 108 110 109
f 110 119 120
f 110 120 121
f 112 122 113
f 113 122 123
f 113 123 124
f 115 125 117
f 115 124 125
f 116 117 126
f 116 126 118
f 117 125 126
f 118 126 127
f 118 127 121
f 118 121 120
f 118 120 119
f 121 127 128
f 121 128 129
f 121 129 123
f 123 129 125
f 123 125 124
f 125 129 126
f 126 129 128
f 126 128 127
