v 0.444322 0.604671 -0.0350546
v 0.444322 0.604452 -0.0438283
v 0.431815 0.604999 -0.0563272
v 0.431815 0.604561 -0.0438283
v 0.431815 0.604015 -0.0350546
v 0.454751 0.602376 -0.0350546
v 0.445334 0.602813 -0.057185
v 0.431815 0.604343 -0.0688507
v 0.406783 0.604889 -0.106396
v 0.453485 0.602048 -0.0438283
v 0.381751 0.604889 -0.143942
v 0.306656 0.60478 -0.231533
v 0.296245 0.604452 -0.231533
v 0.296245 0.602485 -0.219377
v 0.423303 0.60172 -0.0350546
v 0.459124 0.600627 -0.0350546
v 0.43252 0.602703 -0.0816682
v 0.406783 0.604015 -0.11892
v 0.41929 0.604234 -0.0938976
v 0.451967 0.601392 -0.0535579
v 0.441774 0.602048 -0.0688507
v 0.394258 0.60478 -0.131443
v 0.369245 0.604561 -0.168965
v 0.319181 0.60478 -0.219034
v 0.307415 0.602813 -0.244816
v 0.296245 0.604452 -0.244179
v 0.296245 0.601829 -0.216117
v 0.296245 0.600736 -0.212539
v 0.421423 0.600845 -0.0350546
v 0.461004 0.599534 -0.0350546
v 0.459757 0.59866 -0.0438283
v 0.394258 0.603687 -0.143942
v 0.428616 0.601938 -0.0938976
v 0.381751 0.604452 -0.156466
v 0.450196 0.600518 -0.0618905
v 0.344574 0.602703 -0.206854
v 0.319813 0.602813 -0.232145
v 0.296245 0.604124 -0.245992
v 0.316072 0.60172 -0.24114
v 0.303764 0.60172 -0.25283
v 0.296245 0.602266 -0.255869
v 0.296245 0.596692 -0.204868
v 0.417049 0.598004 -0.0350546
v 0.463263 0.597676 -0.0350546
v 0.467258 0.59243 -0.0438283
v 0.465233 0.590463 -0.0563272
v 0.456413 0.597457 -0.057185
v 0.393987 0.602048 -0.155436
v 0.402337 0.601501 -0.143942
v 0.400711 0.600845 -0.150584
v 0.381751 0.602485 -0.168916
v 0.457082 0.59243 -0.068287
v 0.429773 0.592102 -0.11892
v 0.421712 0.598332 -0.11892
v 0.437165 0.600299 -0.0860306
v 0.35296 0.601611 -0.202908
v 0.324422 0.600408 -0.236728
v 0.312096 0.600408 -0.249497
v 0.297854 0.599971 -0.261187
v 0.296245 0.60019 -0.261677
v 0.296245 0.591774 -0.196928
v 0.409061 0.591555 -0.0350546
v 0.469101 0.592648 -0.0350546
v 0.473927 0.587184 -0.0350546
v 0.474613 0.586309 -0.0350546
v 0.473529 0.584014 -0.0438283
v 0.463697 0.588823 -0.0637286
v 0.389632 0.601392 -0.1647
v 0.408591 0.597785 -0.143942
v 0.397982 0.599425 -0.158941
v 0.377595 0.601501 -0.17742
v 0.4526 0.590135 -0.0813741
v 0.440147 0.590244 -0.103946
v 0.406368 0.594506 -0.15573
v 0.427207 0.589916 -0.128233
v 0.416633 0.591555 -0.143942
v 0.385926 0.599862 -0.173057
v 0.381751 0.597567 -0.181562
v 0.319813 0.59855 -0.244816
v 0.318856 0.591993 -0.256188
v 0.314464 0.589479 -0.264153
v 0.307415 0.598332 -0.256825
v 0.306656 0.591774 -0.266775
v 0.296245 0.594725 -0.269079
v 0.296245 0.597457 -0.265451
v 0.296245 0.590353 -0.194649
v 0.406729 0.588823 -0.0350546
v 0.474939 0.585654 -0.0350546
v 0.476529 0.577784 -0.0438283
v 0.475716 0.575926 -0.0504209
v 0.471505 0.580845 -0.0552734
v 0.450774 0.588495 -0.0880157
v 0.465468 0.581391 -0.068287
v 0.46142 0.585216 -0.0720612
v 0.403114 0.590572 -0.168965
v 0.393987 0.59713 -0.168916
v 0.414266 0.589479 -0.15252
v 0.393301 0.590681 -0.180434
v 0.368504 0.591118 -0.205677
v 0.351478 0.589151 -0.226337
v 0.326808 0.58937 -0.251752
v 0.322814 0.584233 -0.260084
v 0.318856 0.580845 -0.265868
v 0.307415 0.583031 -0.273171
v 0.300005 0.58784 -0.275107
v 0.296245 0.588932 -0.276235
v 0.296245 0.586091 -0.190262
v 0.403096 0.583249 -0.0350546
v 0.477252 0.580735 -0.0350546
v 0.479746 0.571992 -0.0350546
v 0.463643 0.57691 -0.076105
v 0.480198 0.569478 -0.0350546
v 0.478084 0.569478 -0.0438283
v 0.476095 0.569478 -0.0515973
v 0.473945 0.569478 -0.0578467
v 0.43787 0.587949 -0.112303
v 0.412007 0.586528 -0.160828
v 0.400819 0.588495 -0.175557
v 0.388511 0.588714 -0.188252
v 0.397006 0.581938 -0.184086
v 0.38477 0.581938 -0.196879
v 0.328742 0.580845 -0.256188
v 0.325525 0.575817 -0.262927
v 0.303746 0.579533 -0.277338
v 0.296245 0.58161 -0.280769
v 0.296245 0.584123 -0.279396
v 0.296245 0.582266 -0.187713
v 0.400548 0.578112 -0.0350546
v 0.468866 0.569478 -0.0688507
v 0.45072 0.576036 -0.100392
v 0.414212 0.578112 -0.164872
v 0.480686 0.560735 -0.0350546
v 0.478734 0.556909 -0.0438283
v 0.476403 0.556909 -0.0526021
v 0.474324 0.556909 -0.0588515
v 0.409314 0.582156 -0.169014
v 0.402898 0.581938 -0.177812
v 0.337851 0.575052 -0.250208
v 0.333332 0.570243 -0.255624
v 0.325976 0.569478 -0.263393
v 0.319181 0.569478 -0.26925
v 0.312277 0.569478 -0.274936
v 0.306023 0.569478 -0.278735
v 0.296245 0.569478 -0.284665
v 0.296245 0.579096 -0.186341
v 0.296245 0.569478 -0.182395
v 0.399409 0.573522 -0.0350546
v 0.464275 0.569478 -0.0772568
v 0.469589 0.556909 -0.0688507
v 0.438268 0.564997 -0.125537
v 0.43778 0.573303 -0.124679
v 0.41517 0.569478 -0.166587
v 0.411501 0.569478 -0.172861
v 0.480867 0.556909 -0.0350546
v 0.479873 -0.511548 -0.0391964
v 0.478734 -0.511548 -0.0438283
v 0.47727 -0.511548 -0.0493426
v 0.476403 -0.511548 -0.0526021
v 0.475101 -0.511548 -0.0565478
v 0.474324 -0.511548 -0.0588515
v 0.471342 -0.511548 -0.06515
v 0.405247 0.569478 -0.180385
v 0.399464 0.569478 -0.186635
v 0.350195 0.573741 -0.237513
v 0.363118 0.564123 -0.225406
v 0.338429 0.566636 -0.25082
v 0.32641 0.556909 -0.263858
v 0.319181 0.556909 -0.270083
v 0.312891 0.556909 -0.275328
v 0.306638 0.556909 -0.279127
v 0.296245 0.558002 -0.285352
v 0.398578 0.569478 -0.0350546
v 0.296245 0.556909 -0.181439
v 0.397747 0.556909 -0.0350546
v 0.451497 0.556909 -0.101814
v 0.469589 -0.511548 -0.0688507
v 0.462468 -0.511548 -0.0818398
v 0.442099 0.556909 -0.11892
v 0.42867 0.556909 -0.143354
v 0.415531 0.556909 -0.167249
v 0.411934 0.556909 -0.173499
v 0.480867 -0.511548 -0.0350546
v 0.405681 0.556909 -0.180851
v 0.399915 0.556909 -0.1871
v 0.39321 0.569478 -0.193178
v 0.380974 0.569478 -0.205971
v 0.393662 0.556909 -0.193644
v 0.381426 0.556909 -0.206437
v 0.377649 -0.511548 -0.210383
v 0.32641 -0.511548 -0.263858
v 0.319181 -0.511548 -0.270083
v 0.315223 -0.511548 -0.273392
v 0.312891 -0.511548 -0.275328
v 0.308951 -0.511548 -0.27773
v 0.2963 0.556909 -0.285376
v 0.300131 -0.511548 -0.283072
v 0.296245 0.557019 -0.285401
v 0.296245 -0.511548 -0.156539
v 0.297203 -0.511548 -0.147006
v 0.372407 -0.511548 -0.0350546
v 0.43975 -0.511548 -0.123209
v 0.422851 -0.511548 -0.153941
v 0.415531 -0.511548 -0.167249
v 0.413272 -0.511548 -0.171195
v 0.411934 -0.511548 -0.173499
v 0.405681 -0.511548 -0.180851
v 0.402048 -0.511548 -0.184797
v 0.399915 -0.511548 -0.1871
v 0.393662 -0.511548 -0.193644
v 0.381426 -0.511548 -0.206437
v 0.2963 -0.511548 -0.285376
v 0.296245 -0.511439 -0.285401
v 0.296245 -0.511548 -0.285303
f 1 2 3
f 1 3 4
f 1 4 5
f 1 5 15
f 1 15 29
f 1 29 43
f 1 43 62
f 1 62 87
f 1 87 108
f 1 108 128
f 1 128 147
f 1 147 172
f 1 172 174
f 1 174 200
f 1 200 182
f 1 182 154
f 1 154 132
f 1 132 112
f 1 112 110
f 1 110 109
f 1 109 88
f 1 88 65
f 1 65 64
f 1 64 63
f 1 63 44
f 1 44 30
f 1 30 16
f 1 16 6
f 1 6 2
f 2 7 8
f 2 8 9
f 2 9 3
f 2 6 10
f 2 10 7
f 3 9 11
f 3 11 12
f 3 12 13
f 3 13 4
f 4 13 5
f 5 13 14
f 5 14 15
f 6 16 10
f 7 17 18
f 7 18 19
f 7 19 8
f 7 10 20
f 7 20 21
f 7 21 17
f 8 19 22
f 8 22 9
f 9 22 11
f 10 16 20
f 11 22 34
f 11 34 23
f 11 23 24
f 11 24 12
f 12 24 25
f 12 25 26
f 12 26 13
f 13 26 38
f 13 38 41
f 13 41 60
f 13 60 85
f 13 85 84
f 13 84 106
f 13 106 126
f 13 126 125
f 13 125 144
f 13 144 171
f 13 171 197
f 13 197 212
f 13 212 213
f 13 213 198
f 13 198 173
f 13 173 146
f 13 146 145
f 13 145 127
f 13 127 107
f 13 107 86
f 13 86 61
f 13 61 42
f 13 42 28
f 13 28 27
f 13 27 14
f 14 27 15
f 15 27 28
f 15 28 29
f 16 30 31
f 16 31 20
f 17 32 18
f 17 21 33
f 17 33 32
f 18 32 34
f 18 34 22
f 18 22 19
f 20 31 35
f 20 35 21
f 21 35 33
f 23 34 36
f 23 36 37
f 23 37 24
f 24 37 25
f 25 38 26
f 25 37 39
f 25 39 40
f 25 40 41
f 25 41 38
f 28 42 43
f 28 43 29
f 30 44 31
f 31 44 45
f 31 45 46
f 31 46 47
f 31 47 35
f 32 33 48
f 32 48 34
f 33 49 48
f 33 35 50
f 33 50 49
f 34 48 51
f 34 51 36
f 35 47 52
f 35 52 53
f 35 53 54
f 35 54 55
f 35 55 50
f 36 51 39
f 36 39 37
f 39 51 56
f 39 56 57
f 39 57 58
f 39 58 40
f 40 58 59
f 40 59 60
f 40 60 41
f 42 61 62
f 42 62 43
f 44 63 45
f 45 63 64
f 45 64 46
f 46 64 65
f 46 65 66
f 46 66 67
f 46 67 47
f 47 67 52
f 48 49 50
f 48 50 68
f 48 68 51
f 50 55 54
f 50 54 69
f 50 69 70
f 50 70 68
f 51 68 71
f 51 71 56
f 52 67 72
f 52 72 73
f 52 73 53
f 53 74 54
f 53 73 75
f 53 75 76
f 53 76 74
f 54 74 69
f 56 71 57
f 57 77 78
f 57 78 79
f 57 79 58
f 57 71 77
f 58 79 80
f 58 80 81
f 58 81 82
f 58 82 59
f 59 82 83
f 59 83 84
f 59 84 85
f 59 85 60
f 61 86 62
f 62 86 87
f 65 88 66
f 66 88 89
f 66 89 90
f 66 90 91
f 66 91 67
f 67 92 73
f 67 73 72
f 67 91 93
f 67 93 94
f 67 94 92
f 68 70 77
f 68 77 71
f 69 74 70
f 70 74 95
f 70 95 96
f 70 96 77
f 73 92 75
f 74 76 97
f 74 97 95
f 75 97 76
f 75 92 97
f 77 96 78
f 78 96 98
f 78 98 79
f 79 98 99
f 79 99 80
f 80 99 100
f 80 100 101
f 80 101 81
f 81 101 102
f 81 102 103
f 81 103 104
f 81 104 105
f 81 105 83
f 81 83 82
f 83 105 106
f 83 106 84
f 86 107 87
f 87 107 108
f 88 109 89
f 89 109 110
f 89 110 90
f 90 111 93
f 90 93 91
f 90 110 112
f 90 112 113
f 90 113 114
f 90 114 115
f 90 115 111
f 92 94 116
f 92 116 97
f 93 111 94
f 94 117 116
f 94 111 117
f 95 97 117
f 95 117 118
f 95 118 96
f 96 118 98
f 97 116 117
f 98 118 119
f 98 119 100
f 98 100 99
f 100 119 102
f 100 102 101
f 102 119 118
f 102 118 120
f 102 120 121
f 102 121 122
f 102 122 123
f 102 123 103
f 103 123 124
f 103 124 104
f 104 124 105
f 105 124 125
f 105 125 126
f 105 126 106
f 107 127 128
f 107 128 108
f 111 115 129
f 111 129 130
f 111 130 131
f 111 131 117
f 112 132 113
f 113 132 133
f 113 133 114
f 114 133 134
f 114 134 135
f 114 135 115
f 115 135 129
f 117 136 118
f 117 131 136
f 118 136 137
f 118 137 120
f 120 137 138
f 120 138 123
f 120 123 121
f 121 123 122
f 123 138 139
f 123 139 140
f 123 140 141
f 123 141 142
f 123 142 124
f 124 142 143
f 124 143 144
f 124 144 125
f 127 145 128
f 128 145 146
f 128 146 147
f 129 148 130
f 129 135 149
f 129 149 150
f 129 150 148
f 130 148 151
f 130 151 131
f 131 151 152
f 131 152 153
f 131 153 137
f 131 137 136
f 132 154 133
f 133 154 155
f 133 155 156
f 133 156 157
f 133 157 134
f 134 157 158
f 134 158 159
f 134 159 135
f 135 159 160
f 135 160 161
f 135 161 149
f 137 153 162
f 137 162 163
f 137 163 138
f 138 163 164
f 138 164 139
f 139 164 165
f 139 165 166
f 139 166 140
f 140 166 167
f 140 167 141
f 141 167 168
f 141 168 169
f 141 169 142
f 142 169 170
f 142 170 143
f 143 170 144
f 144 170 171
f 146 172 147
f 146 173 174
f 146 174 172
f 148 150 151
f 149 175 150
f 149 161 176
f 149 176 177
f 149 177 175
f 150 175 178
f 150 178 179
f 150 179 180
f 150 180 152
f 150 152 151
f 152 180 181
f 152 181 153
f 153 181 162
f 154 182 155
f 155 182 200
f 155 200 199
f 155 199 198
f 155 198 213
f 155 213 211
f 155 211 196
f 155 196 194
f 155 194 193
f 155 193 192
f 155 192 191
f 155 191 190
f 155 190 189
f 155 189 210
f 155 210 209
f 155 209 208
f 155 208 207
f 155 207 206
f 155 206 205
f 155 205 204
f 155 204 203
f 155 203 202
f 155 202 201
f 155 201 177
f 155 177 176
f 155 176 161
f 155 161 160
f 155 160 159
f 155 159 158
f 155 158 157
f 155 157 156
f 162 181 183
f 162 183 184
f 162 184 163
f 163 185 164
f 163 184 165
f 163 165 185
f 164 185 186
f 164 186 165
f 165 184 187
f 165 187 188
f 165 188 167
f 165 167 166
f 165 186 185
f 167 188 189
f 167 189 190
f 167 190 191
f 167 191 168
f 168 191 192
f 168 192 169
f 169 192 193
f 169 193 194
f 169 194 170
f 170 195 171
f 170 194 196
f 170 196 195
f 171 195 197
f 173 198 199
f 173 199 200
f 173 200 174
f 175 177 201
f 175 201 178
f 178 201 179
f 179 201 202
f 179 202 180
f 180 202 203
f 180 203 204
f 180 204 181
f 181 204 205
f 181 205 206
f 181 206 183
f 183 206 207
f 183 207 184
f 184 207 208
f 184 208 209
f 184 209 187
f 187 209 210
f 187 210 188
f 188 210 189
f 195 196 211
f 195 211 212
f 195 212 197
f 211 213 212
