v 0.469359 0.604811 0.125881
v 0.469359 0.604811 0.0688382
v 0.456838 0.60492 0.0312982
v 0.44433 0.60492 -0.0187657
v 0.44433 0.604811 -0.00625761
v 0.456838 0.603718 0.125881
v 0.474044 0.603827 0.125881
v 0.480108 0.602625 0.106378
v 0.480278 0.602625 0.0938701
v 0.480436 0.602625 0.0813462
v 0.469359 0.604374 0.0563143
v 0.44433 0.604702 -0.0350546
v 0.44433 0.604811 -0.0312895
v 0.479806 0.602516 0.0688382
v 0.431822 0.603937 -0.0350546
v 0.423317 0.601751 -0.0350546
v 0.449396 0.601423 0.125881
v 0.479858 0.602516 0.125881
v 0.486696 0.600002 0.0813462
v 0.469359 0.603718 0.043822
v 0.456838 0.603718 -0.00625761
v 0.456838 0.604374 0.00626623
v 0.454751 0.602407 -0.0350546
v 0.465907 0.602079 0.00626623
v 0.467665 0.602516 0.0187901
v 0.486066 0.599675 0.0688382
v 0.476052 0.600986 0.0351735
v 0.476892 0.601423 0.043822
v 0.421441 0.600877 -0.0350546
v 0.417057 0.598035 -0.0350546
v 0.443136 0.596942 0.125881
v 0.486119 0.599675 0.125881
v 0.493285 0.593445 0.125881
v 0.493757 0.593773 0.0813462
v 0.493324 0.593336 0.0688382
v 0.455289 0.602516 -0.0312895
v 0.463584 0.600986 -0.0152685
v 0.462704 0.600549 -0.0236177
v 0.459134 0.600549 -0.0350546
v 0.47512 0.600549 0.0268242
v 0.492051 0.592243 0.0563143
v 0.409077 0.591587 -0.0350546
v 0.439159 0.593445 0.125881
v 0.499545 0.586123 0.125881
v 0.499755 0.58656 0.106378
v 0.500018 0.587107 0.0813462
v 0.499585 0.586232 0.0688382
v 0.461011 0.599565 -0.0350546
v 0.463269 0.597707 -0.0350546
v 0.479661 0.592352 0.00626623
v 0.490489 0.590822 0.043822
v 0.4781 0.590932 -0.00625761
v 0.406741 0.588855 -0.0350546
v 0.435996 0.590604 0.125881
v 0.500831 0.583391 0.125881
v 0.50263 0.580331 0.106378
v 0.502761 0.580549 0.0938701
v 0.502892 0.580768 0.0813462
v 0.502525 0.580003 0.0688382
v 0.498745 0.58208 0.0551958
v 0.488192 0.588309 0.0247763
v 0.501606 0.577927 0.05863
v 0.469109 0.592571 -0.0350546
v 0.488967 0.589183 0.0312982
v 0.47575 0.588418 -0.0256184
v 0.403105 0.583282 -0.0350546
v 0.430982 0.58197 0.125881
v 0.502433 0.579894 0.125881
v 0.505806 0.569402 0.0813462
v 0.505044 0.569402 0.0688382
v 0.487182 0.586451 0.0164271
v 0.474608 0.586342 -0.0350546
v 0.500595 0.575194 0.0502808
v 0.488153 0.575741 -9.80853e-05
v 0.488927 0.577489 0.00626623
v 0.473926 0.587216 -0.0350546
v 0.400559 0.578145 -0.0350546
v 0.427386 0.569402 0.125881
v 0.504874 0.569402 0.125881
v 0.506462 0.556944 0.0813462
v 0.505714 0.556944 0.0688382
v 0.502275 0.570386 0.0551958
v 0.503286 0.556944 0.0563143
v 0.477246 0.580659 -0.0350546
v 0.501015 0.566779 0.0485637
v 0.488494 0.569402 -0.00143711
v 0.47974 0.571916 -0.0350546
v 0.480213 0.569402 -0.0350546
v 0.399431 0.573555 -0.0350546
v 0.398591 0.569402 -0.0350546
v 0.398512 0.568309 -0.0350546
v 0.397751 0.556944 -0.0350546
v 0.426717 0.556944 0.125881
v 0.505517 0.556944 0.125881
v 0.505937 0.556944 0.106378
v 0.506199 0.556944 0.0938701
v 0.50637 -0.511548 0.0859777
v 0.506462 -0.511548 0.0813462
v 0.505714 -0.511548 0.0688382
v 0.488809 0.556944 -0.00272888
v 0.503286 -0.511548 0.0563143
v 0.501973 -0.511548 0.0509582
v 0.480882 0.556944 -0.0350546
v 0.480685 0.560659 -0.0350546
v 0.372394 -0.511548 -0.0350546
v 0.372407 -0.511548 -0.0344559
v 0.408487 -0.511548 0.125881
v 0.505517 -0.511548 0.125881
v 0.505569 -0.511548 0.123533
v 0.506108 -0.511548 0.0985015
v 0.482943 -0.511548 -0.0266581
v 0.480882 -0.511548 -0.0350546
f 1 2 3
f 1 3 4
f 1 4 5
f 1 5 6
f 1 6 17
f 1 17 31
f 1 31 43
f 1 43 54
f 1 54 67
f 1 67 78
f 1 78 93
f 1 93 107
f 1 107 108
f 1 108 94
f 1 94 79
f 1 79 68
f 1 68 55
f 1 55 44
f 1 44 33
f 1 33 32
f 1 32 18
f 1 18 7
f 1 7 8
f 1 8 9
f 1 9 10
f 1 10 2
f 2 11 12
f 2 12 13
f 2 13 4
f 2 4 3
f 2 10 14
f 2 14 11
f 4 13 15
f 4 15 5
f 5 15 6
f 6 15 16
f 6 16 17
f 7 18 8
f 8 18 19
f 8 19 9
f 9 19 10
f 10 19 14
f 11 20 21
f 11 21 22
f 11 22 12
f 11 14 20
f 12 15 13
f 12 22 21
f 12 21 23
f 12 23 39
f 12 39 48
f 12 48 49
f 12 49 63
f 12 63 76
f 12 76 72
f 12 72 84
f 12 84 87
f 12 87 88
f 12 88 104
f 12 104 103
f 12 103 112
f 12 112 105
f 12 105 92
f 12 92 91
f 12 91 90
f 12 90 89
f 12 89 77
f 12 77 66
f 12 66 53
f 12 53 42
f 12 42 30
f 12 30 29
f 12 29 16
f 12 16 15
f 14 24 25
f 14 25 20
f 14 19 26
f 14 26 27
f 14 27 28
f 14 28 24
f 16 29 17
f 17 29 30
f 17 30 31
f 18 32 19
f 19 32 33
f 19 33 34
f 19 34 35
f 19 35 26
f 20 25 36
f 20 36 21
f 21 36 23
f 23 36 25
f 23 25 24
f 23 24 37
f 23 37 38
f 23 38 39
f 24 28 27
f 24 27 37
f 26 40 27
f 26 35 41
f 26 41 40
f 27 40 38
f 27 38 37
f 30 42 31
f 31 42 43
f 33 44 45
f 33 45 46
f 33 46 34
f 34 46 35
f 35 46 47
f 35 47 41
f 38 48 39
f 38 40 49
f 38 49 48
f 40 41 50
f 40 50 49
f 41 51 52
f 41 52 50
f 41 47 51
f 42 53 54
f 42 54 43
f 44 55 45
f 45 55 46
f 46 55 56
f 46 56 57
f 46 57 58
f 46 58 59
f 46 59 47
f 47 60 61
f 47 61 51
f 47 59 62
f 47 62 60
f 49 50 63
f 50 52 63
f 51 64 65
f 51 65 52
f 51 61 64
f 52 65 63
f 53 66 54
f 54 66 67
f 55 68 56
f 56 68 69
f 56 69 57
f 57 69 58
f 58 69 59
f 59 69 70
f 59 70 62
f 60 71 61
f 60 62 71
f 61 71 72
f 61 72 65
f 61 65 64
f 62 70 73
f 62 73 74
f 62 74 75
f 62 75 72
f 62 72 71
f 63 65 76
f 65 72 76
f 66 77 67
f 67 77 78
f 68 79 69
f 69 79 80
f 69 80 81
f 69 81 70
f 70 82 73
f 70 81 83
f 70 83 82
f 72 75 84
f 73 82 85
f 73 85 86
f 73 86 74
f 74 87 84
f 74 84 75
f 74 86 88
f 74 88 87
f 77 89 78
f 78 89 90
f 78 90 91
f 78 91 92
f 78 92 93
f 79 94 95
f 79 95 96
f 79 96 80
f 80 96 110
f 80 110 97
f 80 97 98
f 80 98 99
f 80 99 81
f 81 99 101
f 81 101 83
f 82 83 85
f 83 100 85
f 83 101 102
f 83 102 100
f 85 100 103
f 85 103 104
f 85 104 88
f 85 88 86
f 92 105 106
f 92 106 93
f 93 106 107
f 94 108 109
f 94 109 95
f 95 109 110
f 95 110 96
f 97 110 109
f 97 109 108
f 97 108 107
f 97 107 106
f 97 106 105
f 97 105 112
f 97 112 111
f 97 111 102
f 97 102 101
f 97 101 99
f 97 99 98
f 100 102 111
f 100 111 103
f 103 111 112
