v -0.0252604 -0.493671 -0.380047
v 0.0430898 -0.493671 -0.378589
v -0.0252604 -0.493671 -0.301096
v -0.0252604 -0.331612 -0.38485
v 0.0563322 -0.493671 -0.378306
v 0.16636 -0.493671 -0.269407
v 0.16636 0.544386 -0.269486
v -0.0252604 0.556968 -0.301254
v 0.068843 -0.493671 -0.378035
v -0.0252604 0.431795 -0.384816
v 0.068843 0.556968 -0.378035
v 0.16636 -0.493671 -0.351941
v 0.16636 0.556968 -0.269498
v -0.0252604 0.569443 -0.30191
v 0.0794219 -0.493671 -0.376769
v -0.0252604 0.556968 -0.380047
v 0.0563322 0.556968 -0.378306
v 0.068843 0.569443 -0.377414
v 0.0788029 0.569443 -0.376385
v 0.0800784 0.556968 -0.37669
v 0.165779 -0.493671 -0.35211
v 0.16636 0.556968 -0.351941
v 0.16636 0.569443 -0.270243
v -0.0252604 0.575465 -0.303639
v 0.0800784 -0.493671 -0.37669
v -0.0252604 0.569443 -0.379403
v -0.0187705 0.569443 -0.379267
v 0.0187808 0.569443 -0.378476
v 0.0438213 0.569443 -0.377945
v 0.068843 0.5774 -0.376137
v 0.0767209 0.576647 -0.375877
v 0.0850677 0.569443 -0.374826
v 0.0863432 0.556968 -0.375165
v 0.0859868 -0.493671 -0.375255
v 0.143927 -0.493671 -0.358473
v 0.143927 0.556968 -0.358473
v 0.126258 0.566324 -0.363287
v 0.165985 0.569443 -0.351409
v 0.16636 0.568797 -0.35133
v 0.16636 0.580841 -0.273521
v -0.0252604 0.581917 -0.305492
v -0.0252604 0.579551 -0.37712
v -0.0187705 0.579443 -0.377052
v 0.00626999 0.578906 -0.376792
v 0.0187808 0.578583 -0.376668
v 0.0438213 0.584283 -0.373492
v 0.068843 0.583637 -0.373221
v 0.0810725 0.581272 -0.372531
v 0.116429 0.578153 -0.364056
v 0.124776 0.574712 -0.362858
v 0.0938647 0.569443 -0.372339
v 0.0938647 0.556968 -0.373029
v 0.0934333 -0.493671 -0.373153
v 0.0863432 -0.493671 -0.375165
v 0.118174 -0.493671 -0.365965
v 0.118905 0.556968 -0.365751
v 0.164147 0.576755 -0.350878
v 0.16636 0.574712 -0.350517
v 0.16636 0.569443 -0.351296
v 0.16636 0.586111 -0.27612
v -0.0252604 0.590842 -0.310679
v -0.0252604 0.582777 -0.375628
v -0.0187705 0.585681 -0.374159
v 0.00626999 0.585143 -0.373899
v 0.068843 0.592455 -0.36696
v 0.0813539 0.591488 -0.366033
v 0.0938647 0.589659 -0.364282
v 0.101142 0.588584 -0.363242
v 0.10947 0.586541 -0.362055
v 0.105738 0.582239 -0.365152
v 0.0938647 -0.493671 -0.373029
v 0.16636 0.579013 -0.349093
v 0.156438 0.585358 -0.348957
v 0.16636 0.586433 -0.276312
v 0.16636 0.586864 -0.276685
v 0.16636 0.592563 -0.281748
v -0.0252604 0.593853 -0.314138
v -0.0252604 0.585788 -0.374227
v -0.0252604 0.593316 -0.367977
v -0.0252604 0.596542 -0.364248
v -0.0252604 0.599553 -0.360756
v 0.0563322 0.5988 -0.35975
v 0.068843 0.598693 -0.359546
v 0.118905 0.59224 -0.354404
v 0.131416 0.59052 -0.352562
v 0.0813539 0.597725 -0.358586
v 0.0992855 0.600628 -0.350178
v 0.140513 0.589122 -0.35124
v 0.14886 0.587509 -0.350064
v 0.16636 0.582024 -0.34759
v 0.16636 0.591595 -0.341238
v 0.16636 0.598262 -0.288393
v -0.0252604 0.59708 -0.317856
v -0.0252604 0.601058 -0.357523
v -0.00624087 0.602456 -0.354257
v 0.0312917 0.602349 -0.353794
v 0.0563322 0.602241 -0.3535
v 0.068843 0.602134 -0.353285
v 0.0813539 0.601704 -0.352325
v 0.156438 0.592886 -0.342696
v 0.0909387 0.601166 -0.351161
v 0.138506 0.600843 -0.338142
v 0.146834 0.600198 -0.336808
v 0.16636 0.59794 -0.333734
v 0.16636 0.599553 -0.289976
v -0.0252604 0.601489 -0.324117
v -0.0252604 0.602456 -0.354506
v 0.0312917 0.604715 -0.344199
v 0.0563322 0.604607 -0.344199
v 0.068843 0.6045 -0.344199
v 0.0813539 0.603962 -0.344199
v 0.106376 0.602564 -0.342651
v 0.118905 0.602026 -0.340583
v 0.156438 0.602241 -0.328931
v 0.16636 0.601704 -0.327485
v 0.16636 0.602349 -0.296236
v -0.0252604 0.603747 -0.331677
v -0.0252604 0.604822 -0.344199
v -0.0187705 0.604822 -0.344199
v 0.0938647 0.60493 -0.331677
v 0.106376 0.604822 -0.331677
v 0.156438 0.604607 -0.319178
v 0.16636 0.604069 -0.319178
v 0.16636 0.604715 -0.306656
v -0.0252604 0.604285 -0.337712
v 0.143927 0.604822 -0.319178
f 1 2 5
f 1 5 9
f 1 9 15
f 1 15 25
f 1 25 34
f 1 34 54
f 1 54 53
f 1 53 71
f 1 71 55
f 1 55 35
f 1 35 21
f 1 21 12
f 1 12 6
f 1 6 3
f 1 3 8
f 1 8 14
f 1 14 24
f 1 24 41
f 1 41 61
f 1 61 77
f 1 77 93
f 1 93 106
f 1 106 117
f 1 117 125
f 1 125 118
f 1 118 107
f 1 107 94
f 1 94 81
f 1 81 80
f 1 80 79
f 1 79 78
f 1 78 62
f 1 62 42
f 1 42 26
f 1 26 16
f 1 16 10
f 1 10 4
f 1 4 2
f 2 4 5
f 3 6 7
f 3 7 8
f 4 9 5
f 4 10 11
f 4 11 9
f 6 12 22
f 6 22 39
f 6 39 59
f 6 59 58
f 6 58 72
f 6 72 90
f 6 90 91
f 6 91 104
f 6 104 115
f 6 115 123
f 6 123 124
f 6 124 116
f 6 116 105
f 6 105 92
f 6 92 76
f 6 76 75
f 6 75 74
f 6 74 60
f 6 60 40
f 6 40 23
f 6 23 13
f 6 13 7
f 7 13 8
f 8 13 14
f 9 11 15
f 10 16 17
f 10 17 11
f 11 17 18
f 11 18 19
f 11 19 20
f 11 20 15
f 12 21 22
f 13 23 14
f 14 23 24
f 15 20 25
f 16 26 27
f 16 27 28
f 16 28 29
f 16 29 18
f 16 18 17
f 18 29 30
f 18 30 31
f 18 31 19
f 19 31 32
f 19 32 33
f 19 33 20
f 20 33 34
f 20 34 25
f 21 35 36
f 21 36 22
f 22 36 37
f 22 37 38
f 22 38 39
f 23 40 41
f 23 41 24
f 26 42 43
f 26 43 44
f 26 44 45
f 26 45 30
f 26 30 27
f 27 30 28
f 28 30 29
f 30 45 44
f 30 44 46
f 30 46 47
f 30 47 31
f 31 47 48
f 31 48 49
f 31 49 50
f 31 50 32
f 32 50 51
f 32 51 33
f 33 51 52
f 33 52 53
f 33 53 54
f 33 54 34
f 35 55 36
f 36 56 37
f 36 55 56
f 37 56 52
f 37 52 51
f 37 51 50
f 37 50 38
f 38 50 57
f 38 57 58
f 38 58 59
f 38 59 39
f 40 60 41
f 41 60 61
f 42 62 43
f 43 62 63
f 43 63 64
f 43 64 44
f 44 64 46
f 46 64 65
f 46 65 47
f 47 65 66
f 47 66 48
f 48 66 67
f 48 67 68
f 48 68 69
f 48 69 70
f 48 70 49
f 49 57 50
f 49 70 69
f 49 69 57
f 52 56 55
f 52 55 71
f 52 71 53
f 57 72 58
f 57 69 73
f 57 73 72
f 60 74 61
f 61 74 75
f 61 75 76
f 61 76 77
f 62 78 63
f 63 78 65
f 63 65 64
f 65 78 79
f 65 79 80
f 65 80 81
f 65 81 82
f 65 82 83
f 65 83 66
f 66 84 85
f 66 85 67
f 66 83 86
f 66 86 87
f 66 87 84
f 67 85 68
f 68 85 88
f 68 88 89
f 68 89 69
f 69 89 73
f 72 73 90
f 73 89 91
f 73 91 90
f 76 92 93
f 76 93 77
f 81 94 95
f 81 95 96
f 81 96 97
f 81 97 82
f 82 97 83
f 83 97 98
f 83 98 99
f 83 99 86
f 84 100 91
f 84 91 85
f 84 87 100
f 85 91 88
f 86 99 101
f 86 101 87
f 87 101 102
f 87 102 103
f 87 103 100
f 88 91 89
f 91 100 104
f 92 105 93
f 93 105 106
f 94 107 95
f 95 107 108
f 95 108 109
f 95 109 96
f 96 109 97
f 97 109 110
f 97 110 98
f 98 110 111
f 98 111 99
f 99 111 112
f 99 112 101
f 100 103 104
f 101 112 113
f 101 113 102
f 102 113 114
f 102 114 115
f 102 115 103
f 103 115 104
f 105 116 106
f 106 116 117
f 107 118 119
f 107 119 108
f 108 119 120
f 108 120 109
f 109 120 121
f 109 121 110
f 110 121 122
f 110 122 111
f 111 122 123
f 111 123 112
f 112 123 114
f 112 114 113
f 114 123 115
f 116 124 117
f 117 124 125
f 118 125 124
f 118 124 120
f 118 120 119
f 120 126 121
f 120 124 126
f 121 126 122
f 122 126 124
f 122 124 123
