v -0.0917273 0.0562718 -0.607037
v -0.086307 -0.107374 -0.572902
v -0.0849228 -0.107374 -0.581009
v -0.084806 -0.107374 -0.582011
v -0.0863237 -0.0938702 -0.591972
v -0.0911102 -0.0187752 -0.607037
v -0.09583 0.0562718 -0.618628
v -0.0967973 0.0562718 -0.593357
v -0.0866406 -0.107374 -0.572252
v -0.0859568 -0.107374 -0.590385
v -0.0861236 -0.106381 -0.591109
v -0.0882083 -0.0813437 -0.598343
v -0.0911936 -0.0312857 -0.607037
v -0.0958133 0.0437934 -0.618649
v -0.101801 0.0437934 -0.624914
v -0.101884 0.0562718 -0.624882
v -0.100149 0.0562718 -0.588275
v -0.0900595 -0.107374 -0.566701
v -0.0861403 -0.107374 -0.591024
v -0.0915939 -0.0437962 -0.607037
v -0.0890922 -0.0938702 -0.598226
v -0.0968473 -0.0312857 -0.616231
v -0.096447 -0.0187752 -0.616902
v -0.0959467 0.00624583 -0.617989
v -0.09588 0.0187724 -0.618234
v -0.09583 0.0312829 -0.618457
v -0.102251 0.0312829 -0.624722
v -0.108071 0.0437934 -0.627726
v -0.108138 0.0562718 -0.627694
v -0.0970975 -0.107374 -0.55869
v -0.0962803 -0.107374 -0.559457
v -0.105169 0.0562718 -0.584195
v -0.103502 -0.107374 -0.553192
v -0.0904764 -0.107374 -0.596798
v -0.0961469 -0.00626467 -0.617541
v -0.0908267 -0.106381 -0.597363
v -0.0953463 -0.0938702 -0.604469
v -0.0985651 -0.0563227 -0.614494
v -0.0974811 -0.0437962 -0.615464
v -0.103385 0.00624583 -0.624253
v -0.102801 0.0187724 -0.624487
v -0.108522 0.0312829 -0.627513
v -0.118912 0.0437934 -0.630773
v -0.118912 0.0562718 -0.630699
v -0.114609 0.0562718 -0.576972
v -0.103969 -0.107374 -0.552841
v -0.0910935 -0.107374 -0.597342
v -0.0970808 -0.106381 -0.60285
v -0.0995324 -0.0648286 -0.613716
v -0.106404 -0.0437962 -0.620077
v -0.106404 -0.0312857 -0.621643
v -0.104619 -0.00626467 -0.623806
v -0.109639 0.00624583 -0.627002
v -0.109055 0.0187724 -0.627257
v -0.118912 0.0312829 -0.630315
v -0.131437 0.0437934 -0.632147
v -0.131437 0.0562718 -0.632073
v -0.110523 -0.107374 -0.54827
v -0.109722 -0.107374 -0.548771
v -0.120863 0.0562718 -0.573317
v -0.0968807 -0.107374 -0.602413
v -0.0972809 -0.107374 -0.602711
v -0.10115 -0.0731742 -0.612917
v -0.106404 -0.0563227 -0.618042
v -0.118912 -0.0437962 -0.623529
v -0.114476 -0.0225235 -0.62551
v -0.112107 -0.0141778 -0.626021
v -0.110873 -0.00626467 -0.62649
v -0.118912 0.00624583 -0.629282
v -0.118912 0.0187724 -0.629804
v -0.131437 0.0312829 -0.631679
v -0.143945 0.0437934 -0.632094
v -0.143945 0.0562718 -0.63202
v -0.119913 -0.107374 -0.542997
v -0.131437 0.0562718 -0.568001
v -0.10557 -0.107374 -0.606344
v -0.107271 -0.0931174 -0.610744
v -0.103552 -0.0813437 -0.612086
v -0.109806 -0.0813437 -0.614249
v -0.105753 -0.0689293 -0.615346
v -0.118912 -0.0563227 -0.621376
v -0.118762 -0.0318143 -0.625041
v -0.131437 -0.0437962 -0.624711
v -0.122831 -0.0280019 -0.626203
v -0.118762 -0.0185189 -0.626725
v -0.118912 -0.00626467 -0.628269
v -0.131437 0.00624583 -0.630592
v -0.143945 0.0312829 -0.631615
v -0.15647 0.0437934 -0.631061
v -0.15647 0.0562718 -0.630986
v -0.120129 -0.107374 -0.54289
v -0.132221 -0.107374 -0.537244
v -0.120763 -0.107374 -0.542581
v -0.140193 0.0562718 -0.564187
v -0.132454 -0.107374 -0.537137
v -0.10637 -0.107374 -0.606621
v -0.106404 -0.106381 -0.606919
v -0.112024 -0.0884399 -0.613493
v -0.118912 -0.0688332 -0.618702
v -0.131437 -0.0563227 -0.622527
v -0.131437 -0.0364597 -0.625681
v -0.143945 -0.0437962 -0.624551
v -0.143945 -0.0359471 -0.625606
v -0.143945 -0.0187752 -0.627897
v -0.131437 -0.0187752 -0.628003
v -0.131437 -0.00626467 -0.629569
v -0.143945 0.00624583 -0.630507
v -0.15647 0.0312829 -0.630571
v -0.168978 0.0437934 -0.629143
v -0.168978 0.0562718 -0.629069
v -0.143912 -0.107374 -0.532844
v -0.132604 -0.107374 -0.537073
v -0.146463 0.0562718 -0.561865
v -0.117928 -0.107374 -0.609231
v -0.118912 -0.106381 -0.609743
v -0.118912 -0.0968177 -0.612502
v -0.118912 -0.0905704 -0.613993
v -0.118912 -0.0813437 -0.616018
v -0.131437 -0.0688332 -0.619789
v -0.143945 -0.0563227 -0.622367
v -0.15647 -0.0437962 -0.62339
v -0.152684 -0.0273131 -0.626128
v -0.143945 -0.00626467 -0.629484
v -0.15647 0.00624583 -0.629441
v -0.168978 0.0312829 -0.628653
v -0.178535 0.0312829 -0.626639
v -0.179552 0.0437934 -0.626895
v -0.179385 0.0562718 -0.626853
v -0.15647 0.0562718 -0.558594
v -0.157404 -0.107374 -0.528934
v -0.118912 -0.107374 -0.609434
v -0.130453 -0.107374 -0.610329
v -0.131437 -0.0989001 -0.613013
v -0.131437 -0.0926368 -0.614452
v -0.131437 -0.0813437 -0.616998
v -0.143945 -0.0688332 -0.619597
v -0.15647 -0.0563227 -0.621185
v -0.168978 -0.0437962 -0.621334
v -0.161023 -0.0235007 -0.625606
v -0.156703 -0.0191116 -0.626746
v -0.15647 -0.00626467 -0.628419
v -0.168878 -0.00533559 -0.626597
v -0.168978 0.00624583 -0.627502
v -0.1762 0.00624583 -0.626064
v -0.184805 0.0312829 -0.625073
v -0.185806 0.0437934 -0.625329
v -0.185656 0.0562718 -0.625286
v -0.168978 0.0562718 -0.555238
v -0.157571 -0.107374 -0.528891
v -0.131437 -0.107374 -0.610392
v -0.131437 -0.106381 -0.610701
v -0.143945 -0.106381 -0.610371
v -0.143945 -0.0982433 -0.612853
v -0.143945 -0.0919801 -0.614302
v -0.153885 -0.0898496 -0.613823
v -0.15647 -0.0688332 -0.618372
v -0.168978 -0.0563227 -0.619107
v -0.168878 -0.0191116 -0.624807
v -0.164625 -0.015155 -0.626181
v -0.181486 -0.0437962 -0.618479
v -0.172964 -0.00889172 -0.625372
v -0.175483 -0.000546041 -0.625883
v -0.182454 0.00624583 -0.624477
v -0.193995 0.00624583 -0.621163
v -0.193995 0.0312829 -0.622357
v -0.193995 0.0437934 -0.622879
v -0.193995 0.0562718 -0.622793
v -0.168978 -0.107374 -0.526356
v -0.158321 -0.107374 -0.528721
v -0.181486 0.0562718 -0.552692
v -0.142961 -0.107374 -0.610083
v -0.143945 -0.107374 -0.610041
v -0.15647 -0.107374 -0.608656
v -0.15647 -0.106381 -0.608976
v -0.157421 -0.0939663 -0.612342
v -0.162224 -0.0873026 -0.613226
v -0.157421 -0.082417 -0.615059
v -0.168978 -0.0688332 -0.616263
v -0.175483 -0.0753688 -0.613365
v -0.178451 -0.0688332 -0.614153
v -0.182654 -0.057476 -0.615655
v -0.190476 -0.0540961 -0.614185
v -0.194395 -0.0431074 -0.614803
v -0.193995 -0.0312857 -0.616625
v -0.193995 -0.0187752 -0.618425
v -0.181486 -0.0187752 -0.622016
v -0.180386 -0.00533559 -0.624061
v -0.193995 -0.00626467 -0.620098
v -0.20652 0.00624583 -0.616774
v -0.20652 0.0187724 -0.617381
v -0.20652 0.0312829 -0.617978
v -0.20652 0.0437934 -0.6185
v -0.20652 0.0562718 -0.618415
v -0.181486 -0.107374 -0.524406
v -0.19196 0.0562718 -0.551179
v -0.168962 -0.107374 -0.606429
v -0.168978 -0.106381 -0.606749
v -0.168978 -0.0938702 -0.610297
v -0.168978 -0.0844673 -0.612545
v -0.168978 -0.0782041 -0.614036
v -0.181486 -0.0938702 -0.607303
v -0.180386 -0.0802705 -0.610883
v -0.187624 -0.0624258 -0.613269
v -0.194395 -0.057476 -0.61214
v -0.198831 -0.0468077 -0.612822
v -0.200599 -0.038462 -0.613439
v -0.204285 -0.0187752 -0.614856
v -0.207337 -0.0062006 -0.615378
v -0.213307 -0.00197169 -0.613546
v -0.213908 0.00624583 -0.613823
v -0.214558 0.0187724 -0.614132
v -0.215192 0.0312829 -0.61443
v -0.215759 0.0437934 -0.614697
v -0.215659 0.0562718 -0.614654
v -0.198231 0.0562718 -0.550518
v -0.194945 -0.107374 -0.523309
v -0.18197 -0.107374 -0.603254
v -0.182087 -0.107118 -0.603308
v -0.190926 -0.103417 -0.60188
v -0.194662 -0.0942867 -0.603127
v -0.193995 -0.0688332 -0.609583
v -0.20652 -0.0563227 -0.607889
v -0.205469 -0.0431074 -0.610787
v -0.210539 -0.0187752 -0.612395
v -0.212057 -0.0103174 -0.613013
v -0.218094 -0.0062006 -0.610637
v -0.220162 0.00624583 -0.610776
v -0.220812 0.0187724 -0.611096
v -0.221463 0.0312829 -0.611405
v -0.222013 0.0437934 -0.611682
v -0.22193 0.0562718 -0.611639
v -0.20652 0.0562718 -0.550092
v -0.205569 -0.107374 -0.523426
v -0.182354 -0.107374 -0.603148
v -0.188925 -0.107374 -0.60122
v -0.194228 -0.107374 -0.599366
v -0.194662 -0.107118 -0.599302
v -0.199282 -0.0987239 -0.600431
v -0.2019 -0.0903782 -0.601465
v -0.20772 -0.0700026 -0.604075
v -0.21269 -0.0749523 -0.600751
v -0.214792 -0.0666066 -0.601806
v -0.217277 -0.0563227 -0.603052
v -0.220179 -0.0446772 -0.603894
v -0.208204 -0.0312857 -0.611458
v -0.219028 -0.0312857 -0.606493
v -0.219028 -0.0187752 -0.608379
v -0.228968 -0.0187752 -0.603031
v -0.230419 -0.00626467 -0.603936
v -0.23262 0.00720695 -0.603787
v -0.231553 0.0187724 -0.605034
v -0.231553 0.0312829 -0.605662
v -0.231553 0.0437934 -0.606206
v -0.231553 0.0562718 -0.60612
v -0.219445 0.0562718 -0.550337
v -0.219645 0.0562718 -0.550359
v -0.219028 -0.107374 -0.525003
v -0.194645 -0.107374 -0.599217
v -0.205536 -0.107374 -0.594817
v -0.20652 -0.106381 -0.594774
v -0.206253 -0.0942867 -0.598609
v -0.210822 -0.0813437 -0.599941
v -0.220012 -0.094575 -0.591823
v -0.219028 -0.0813437 -0.595775
v -0.218995 -0.0700026 -0.598737
v -0.223548 -0.0563227 -0.599856
v -0.225115 -0.0494507 -0.600687
v -0.226183 -0.0411051 -0.601326
v -0.227417 -0.0312857 -0.602072
v -0.235222 -0.0187752 -0.599036
v -0.23669 -0.00626467 -0.600016
v -0.237523 0.00366684 -0.60058
v -0.23784 0.0120125 -0.600804
v -0.238474 0.0312829 -0.601294
v -0.238824 0.0437934 -0.601571
v -0.238774 0.0562718 -0.601529
v -0.230219 0.0562718 -0.551807
v -0.230519 0.0562718 -0.551861
v -0.222997 -0.107374 -0.525834
v -0.206503 -0.107374 -0.594422
v -0.215926 -0.107374 -0.589959
v -0.216259 -0.106381 -0.590129
v -0.224848 -0.0992044 -0.588009
v -0.226583 -0.0908587 -0.589128
v -0.228417 -0.0813437 -0.590363
v -0.231553 -0.0563227 -0.594699
v -0.230836 -0.0446772 -0.597693
v -0.233671 -0.0312857 -0.598013
v -0.240642 -0.0437962 -0.590726
v -0.241743 -0.0312857 -0.591759
v -0.242744 -0.0187752 -0.592782
v -0.244978 -0.00531958 -0.592707
v -0.250382 -0.000530022 -0.58835
v -0.242827 0.00720695 -0.595893
v -0.244728 0.0312829 -0.595498
v -0.245078 0.0437934 -0.595797
v -0.245028 0.0562718 -0.595744
v -0.230736 0.0562718 -0.551935
v -0.230385 -0.107374 -0.528135
v -0.221379 -0.107374 -0.586933
v -0.22253 -0.106381 -0.586667
v -0.23182 -0.107374 -0.579763
v -0.232137 -0.106285 -0.579923
v -0.238574 -0.10204 -0.576514
v -0.231069 -0.094575 -0.584759
v -0.234672 -0.0813437 -0.585899
v -0.236506 -0.0716044 -0.587263
v -0.238024 -0.0632587 -0.588456
v -0.23202 -0.0680002 -0.591354
v -0.239091 -0.0563227 -0.589373
v -0.246896 -0.0437962 -0.584088
v -0.247997 -0.0312857 -0.585303
v -0.249781 -0.0088757 -0.587487
v -0.251566 -0.0437962 -0.577835
v -0.2522 -0.0312857 -0.579038
v -0.252717 -0.0187752 -0.580232
v -0.252633 -0.00531958 -0.582789
v -0.253667 0.00624583 -0.582011
v -0.250549 0.00624583 -0.588563
v -0.251082 0.0312829 -0.589234
v -0.251316 0.0437934 -0.589532
v -0.251282 0.0562718 -0.58949
v -0.244061 0.0562718 -0.5569
v -0.231103 -0.107374 -0.528433
v -0.22218 -0.107374 -0.586475
v -0.23739 -0.107374 -0.575416
v -0.239892 -0.0938702 -0.577824
v -0.24196 -0.107374 -0.569876
v -0.242076 -0.106285 -0.570174
v -0.246713 -0.0938382 -0.568726
v -0.241609 -0.0813437 -0.579635
v -0.246279 -0.0571877 -0.58134
v -0.250198 -0.0619452 -0.575459
v -0.250916 -0.0535995 -0.576727
v -0.249014 -0.0187752 -0.586496
v -0.25225 -0.0571877 -0.570569
v -0.253734 -0.0437962 -0.569503
v -0.254385 -0.0312857 -0.569503
v -0.254818 -0.0187752 -0.569503
v -0.254068 0.0187724 -0.582011
v -0.254451 0.0312829 -0.582011
v -0.254785 0.0437934 -0.582011
v -0.254735 0.0562718 -0.582011
v -0.251666 0.0562718 -0.561822
v -0.241643 -0.107374 -0.534687
v -0.248931 -0.107374 -0.556868
v -0.250699 -0.0896574 -0.564038
v -0.251232 -0.0813437 -0.56537
v -0.25185 -0.0688332 -0.567681
v -0.250549 -0.103465 -0.550135
v -0.250549 -0.103465 -0.552287
v -0.255102 -0.00626467 -0.569503
v -0.255185 0.00624583 -0.569503
v -0.255118 0.0562718 -0.569503
v -0.250665 -0.0813437 -0.550167
v -0.248297 -0.107374 -0.545351
v -0.249031 -0.107374 -0.556676
v -0.249081 -0.107134 -0.556666
v -0.250732 -0.0938702 -0.549868
f 1 2 3
f 1 3 4
f 1 4 5
f 1 5 6
f 1 6 7
f 1 7 16
f 1 16 29
f 1 29 44
f 1 44 57
f 1 57 73
f 1 73 90
f 1 90 110
f 1 110 128
f 1 128 147
f 1 147 167
f 1 167 193
f 1 193 214
f 1 214 231
f 1 231 254
f 1 254 276
f 1 276 297
f 1 297 322
f 1 322 343
f 1 343 354
f 1 354 344
f 1 344 323
f 1 323 298
f 1 298 278
f 1 278 277
f 1 277 256
f 1 256 255
f 1 255 232
f 1 232 215
f 1 215 195
f 1 195 170
f 1 170 148
f 1 148 129
f 1 129 113
f 1 113 94
f 1 94 75
f 1 75 60
f 1 60 45
f 1 45 32
f 1 32 17
f 1 17 8
f 1 8 2
f 2 9 18
f 2 18 31
f 2 31 30
f 2 30 33
f 2 33 46
f 2 46 59
f 2 59 58
f 2 58 74
f 2 74 91
f 2 91 93
f 2 93 92
f 2 92 95
f 2 95 112
f 2 112 111
f 2 111 130
f 2 130 149
f 2 149 169
f 2 169 168
f 2 168 194
f 2 194 216
f 2 216 233
f 2 233 257
f 2 257 279
f 2 279 299
f 2 299 324
f 2 324 345
f 2 345 356
f 2 356 357
f 2 357 346
f 2 346 328
f 2 328 326
f 2 326 302
f 2 302 325
f 2 325 300
f 2 300 281
f 2 281 280
f 2 280 259
f 2 259 258
f 2 258 236
f 2 236 235
f 2 235 234
f 2 234 217
f 2 217 196
f 2 196 173
f 2 173 172
f 2 172 171
f 2 171 150
f 2 150 132
f 2 132 131
f 2 131 114
f 2 114 96
f 2 96 76
f 2 76 62
f 2 62 61
f 2 61 47
f 2 47 34
f 2 34 19
f 2 19 10
f 2 10 4
f 2 4 3
f 2 8 9
f 4 10 5
f 5 10 11
f 5 11 12
f 5 12 6
f 6 13 14
f 6 14 7
f 6 12 13
f 7 14 15
f 7 15 16
f 8 17 18
f 8 18 9
f 10 19 11
f 11 19 12
f 12 20 13
f 12 19 21
f 12 21 22
f 12 22 23
f 12 23 20
f 13 20 24
f 13 24 25
f 13 25 26
f 13 26 14
f 14 26 15
f 15 27 28
f 15 28 29
f 15 29 16
f 15 26 25
f 15 25 24
f 15 24 27
f 17 30 31
f 17 31 18
f 17 32 33
f 17 33 30
f 19 34 21
f 20 23 35
f 20 35 24
f 21 34 36
f 21 36 37
f 21 37 38
f 21 38 39
f 21 39 22
f 22 39 40
f 22 40 23
f 23 40 35
f 24 35 27
f 27 41 42
f 27 42 28
f 27 35 41
f 28 42 43
f 28 43 29
f 29 43 44
f 32 45 33
f 33 45 46
f 34 47 36
f 35 40 41
f 36 47 48
f 36 48 37
f 37 48 49
f 37 49 38
f 38 49 50
f 38 50 51
f 38 51 52
f 38 52 39
f 39 52 40
f 40 52 53
f 40 53 54
f 40 54 41
f 41 54 42
f 42 54 43
f 43 54 53
f 43 53 55
f 43 55 56
f 43 56 57
f 43 57 44
f 45 58 59
f 45 59 46
f 45 60 58
f 47 61 48
f 48 61 62
f 48 62 63
f 48 63 49
f 49 63 64
f 49 64 50
f 50 64 65
f 50 65 66
f 50 66 67
f 50 67 51
f 51 67 68
f 51 68 52
f 52 68 53
f 53 68 69
f 53 69 70
f 53 70 55
f 55 70 71
f 55 71 56
f 56 71 72
f 56 72 73
f 56 73 57
f 58 60 74
f 60 75 74
f 62 76 77
f 62 77 78
f 62 78 63
f 63 78 79
f 63 79 80
f 63 80 64
f 64 80 79
f 64 79 81
f 64 81 65
f 65 82 66
f 65 81 83
f 65 83 84
f 65 84 82
f 66 82 84
f 66 84 85
f 66 85 86
f 66 86 67
f 67 86 68
f 68 86 69
f 69 86 87
f 69 87 71
f 69 71 70
f 71 87 88
f 71 88 72
f 72 88 89
f 72 89 90
f 72 90 73
f 74 75 91
f 75 92 93
f 75 93 91
f 75 94 95
f 75 95 92
f 76 96 97
f 76 97 77
f 77 97 98
f 77 98 78
f 78 98 79
f 79 98 81
f 81 98 99
f 81 99 100
f 81 100 83
f 83 101 84
f 83 100 120
f 83 120 102
f 83 102 103
f 83 103 104
f 83 104 101
f 84 101 105
f 84 105 106
f 84 106 86
f 84 86 85
f 86 106 87
f 87 106 123
f 87 123 107
f 87 107 88
f 88 107 108
f 88 108 89
f 89 108 125
f 89 125 109
f 89 109 110
f 89 110 90
f 94 111 112
f 94 112 95
f 94 113 111
f 96 114 98
f 96 98 97
f 98 114 115
f 98 115 116
f 98 116 117
f 98 117 118
f 98 118 99
f 99 118 100
f 100 119 120
f 100 118 119
f 101 104 105
f 102 120 121
f 102 121 122
f 102 122 103
f 103 122 104
f 104 122 123
f 104 123 105
f 105 123 106
f 107 123 141
f 107 141 124
f 107 124 108
f 108 124 125
f 109 125 126
f 109 126 127
f 109 127 110
f 110 127 128
f 111 113 129
f 111 129 130
f 114 131 115
f 115 131 132
f 115 132 133
f 115 133 116
f 116 133 117
f 117 133 134
f 117 134 135
f 117 135 119
f 117 119 118
f 119 135 136
f 119 136 120
f 120 136 137
f 120 137 121
f 121 137 138
f 121 138 139
f 121 139 122
f 122 139 140
f 122 140 141
f 122 141 123
f 124 141 142
f 124 142 143
f 124 143 125
f 125 143 144
f 125 144 126
f 126 144 145
f 126 145 127
f 127 145 146
f 127 146 147
f 127 147 128
f 129 148 130
f 130 148 149
f 132 150 151
f 132 151 133
f 133 151 152
f 133 152 153
f 133 153 154
f 133 154 134
f 134 154 136
f 134 136 135
f 136 154 155
f 136 155 156
f 136 156 137
f 137 156 157
f 137 157 138
f 138 158 159
f 138 159 139
f 138 157 160
f 138 160 161
f 138 161 158
f 139 159 141
f 139 141 140
f 141 159 142
f 142 159 161
f 142 161 162
f 142 162 143
f 143 162 144
f 144 162 163
f 144 163 145
f 145 163 164
f 145 164 165
f 145 165 146
f 146 165 166
f 146 166 167
f 146 167 147
f 148 168 169
f 148 169 149
f 148 170 168
f 150 171 152
f 150 152 151
f 152 172 173
f 152 173 174
f 152 174 153
f 152 171 172
f 153 174 175
f 153 175 155
f 153 155 154
f 155 175 176
f 155 176 177
f 155 177 156
f 156 177 176
f 156 176 157
f 157 176 178
f 157 178 179
f 157 179 180
f 157 180 181
f 157 181 160
f 158 161 159
f 160 181 182
f 160 182 183
f 160 183 184
f 160 184 185
f 160 185 186
f 160 186 161
f 161 186 162
f 162 186 187
f 162 187 188
f 162 188 163
f 163 188 164
f 164 188 189
f 164 189 190
f 164 190 191
f 164 191 165
f 165 191 192
f 165 192 166
f 166 192 193
f 166 193 167
f 168 170 194
f 170 195 194
f 173 196 197
f 173 197 174
f 174 197 175
f 175 197 198
f 175 198 176
f 176 198 199
f 176 199 200
f 176 200 178
f 178 200 179
f 179 201 202
f 179 202 203
f 179 203 180
f 179 200 199
f 179 199 198
f 179 198 201
f 180 203 181
f 181 203 182
f 182 203 204
f 182 204 205
f 182 205 183
f 183 185 184
f 183 205 185
f 185 205 206
f 185 206 207
f 185 207 188
f 185 188 186
f 186 188 187
f 188 207 208
f 188 208 189
f 189 208 209
f 189 209 210
f 189 210 190
f 190 210 191
f 191 210 211
f 191 211 212
f 191 212 192
f 192 212 213
f 192 213 214
f 192 214 193
f 194 195 215
f 194 215 216
f 196 217 197
f 197 217 218
f 197 218 201
f 197 201 198
f 201 218 219
f 201 219 220
f 201 220 203
f 201 203 202
f 203 220 221
f 203 221 204
f 204 221 222
f 204 222 205
f 205 222 223
f 205 223 206
f 206 223 224
f 206 224 207
f 207 224 225
f 207 225 208
f 208 225 209
f 209 225 226
f 209 226 227
f 209 227 210
f 210 227 228
f 210 228 229
f 210 229 211
f 211 229 212
f 212 229 230
f 212 230 213
f 213 230 231
f 213 231 214
f 215 232 216
f 216 232 233
f 217 234 218
f 218 234 235
f 218 235 219
f 219 235 236
f 219 236 237
f 219 237 238
f 219 238 220
f 220 238 221
f 221 238 239
f 221 239 222
f 222 239 240
f 222 240 241
f 222 241 242
f 222 242 243
f 222 243 244
f 222 244 223
f 223 244 245
f 223 245 224
f 224 244 225
f 224 245 244
f 225 244 246
f 225 246 247
f 225 247 226
f 226 247 248
f 226 248 249
f 226 249 227
f 227 249 250
f 227 250 251
f 227 251 228
f 228 251 229
f 229 251 252
f 229 252 230
f 230 252 253
f 230 253 254
f 230 254 231
f 232 255 233
f 233 255 256
f 233 256 257
f 236 258 237
f 237 258 259
f 237 259 260
f 237 260 238
f 238 260 261
f 238 261 239
f 239 261 262
f 239 262 241
f 239 241 240
f 241 262 263
f 241 263 264
f 241 264 265
f 241 265 242
f 242 265 266
f 242 266 243
f 243 266 267
f 243 267 244
f 244 267 246
f 246 267 247
f 247 267 268
f 247 268 269
f 247 269 248
f 248 269 270
f 248 270 271
f 248 271 249
f 249 271 272
f 249 272 250
f 250 272 251
f 251 272 273
f 251 273 252
f 252 273 274
f 252 274 253
f 253 274 275
f 253 275 276
f 253 276 254
f 256 277 257
f 257 277 278
f 257 278 279
f 259 280 260
f 260 280 281
f 260 281 282
f 260 282 261
f 261 282 263
f 261 263 262
f 263 265 264
f 263 282 283
f 263 283 266
f 263 266 265
f 266 283 284
f 266 284 267
f 267 284 285
f 267 285 286
f 267 286 287
f 267 287 288
f 267 288 270
f 267 270 268
f 268 270 269
f 270 288 289
f 270 289 271
f 271 289 290
f 271 290 291
f 271 291 292
f 271 292 272
f 272 292 293
f 272 293 294
f 272 294 273
f 273 294 295
f 273 295 274
f 274 295 296
f 274 296 275
f 275 296 276
f 276 296 297
f 278 298 299
f 278 299 279
f 281 300 301
f 281 301 283
f 281 283 282
f 283 301 302
f 283 302 303
f 283 303 304
f 283 304 305
f 283 305 284
f 284 305 306
f 284 306 307
f 284 307 308
f 284 308 285
f 285 308 309
f 285 309 286
f 286 309 308
f 286 308 310
f 286 310 287
f 287 310 289
f 287 289 288
f 289 310 311
f 289 311 312
f 289 312 313
f 289 313 293
f 289 293 290
f 290 293 291
f 291 293 292
f 293 295 294
f 293 313 314
f 293 314 315
f 293 315 316
f 293 316 317
f 293 317 318
f 293 318 319
f 293 319 295
f 295 319 296
f 296 319 320
f 296 320 321
f 296 321 322
f 296 322 297
f 298 323 299
f 299 323 324
f 300 325 301
f 301 325 302
f 302 326 304
f 302 304 303
f 304 327 307
f 304 307 306
f 304 306 305
f 304 326 328
f 304 328 329
f 304 329 330
f 304 330 327
f 307 327 308
f 308 327 310
f 310 327 331
f 310 331 332
f 310 332 311
f 311 332 333
f 311 333 334
f 311 334 312
f 312 334 335
f 312 335 313
f 313 335 334
f 313 334 314
f 314 334 336
f 314 336 337
f 314 337 315
f 315 337 316
f 316 337 318
f 316 318 317
f 318 337 338
f 318 338 339
f 318 339 340
f 318 340 320
f 318 320 319
f 320 340 341
f 320 341 321
f 321 341 342
f 321 342 343
f 321 343 322
f 323 344 345
f 323 345 324
f 327 330 333
f 327 333 331
f 328 346 347
f 328 347 330
f 328 330 329
f 330 347 333
f 331 333 332
f 333 347 334
f 334 347 348
f 334 348 336
f 336 348 349
f 336 349 337
f 337 350 338
f 337 349 348
f 337 348 351
f 337 351 350
f 338 350 339
f 339 352 342
f 339 342 341
f 339 341 340
f 339 350 352
f 342 352 353
f 342 353 354
f 342 354 343
f 344 354 355
f 344 355 345
f 345 355 356
f 346 357 347
f 347 351 348
f 347 357 358
f 347 358 351
f 350 357 356
f 350 356 359
f 350 359 352
f 350 351 357
f 351 358 357
f 352 359 353
f 353 359 354
f 354 359 355
f 355 359 356
