v -0.469364 0.60461 0.0596007
v -0.456842 0.604712 0.0437932
v -0.456842 0.604915 0.0312711
v -0.469364 0.60461 0.0563152
v -0.471931 0.604002 0.0596007
v -0.460137 0.604408 0.0596007
v -0.374215 0.604813 -0.151476
v -0.456842 0.604205 0.0596007
v -0.381759 0.604915 -0.143934
v -0.419292 0.605016 -0.0813447
v -0.444319 0.604915 -0.0187758
v -0.456842 0.604813 0.0187697
v -0.444319 0.604712 -0.0312978
v -0.469364 0.604103 0.0437932
v -0.478834 0.602276 0.0563152
v -0.478921 0.602276 0.0596007
v -0.368803 0.604103 -0.151476
v -0.381759 0.604509 -0.151476
v -0.450528 0.602479 0.0596007
v -0.360981 0.602581 -0.151476
v -0.406787 0.604813 -0.106389
v -0.394282 0.60461 -0.131412
v -0.431814 0.60461 -0.0688226
v -0.431814 0.604915 -0.0563213
v -0.444319 0.604002 -0.0438199
v -0.454448 0.602378 -0.0312978
v -0.468167 0.602581 0.0187697
v -0.477776 0.601769 0.0437932
v -0.485095 0.599029 0.0563152
v -0.485164 0.599029 0.0596007
v -0.387552 0.603697 -0.151476
v -0.44843 0.601871 0.0596007
v -0.358778 0.601972 -0.151476
v -0.406787 0.6039 -0.11889
v -0.419292 0.604306 -0.0938667
v -0.432924 0.602885 -0.0823779
v -0.442481 0.602378 -0.0688226
v -0.445447 0.602682 -0.0571685
v -0.450372 0.600653 -0.0619211
v -0.47559 0.600754 0.0251134
v -0.476492 0.601262 0.0334614
v -0.484037 0.598014 0.0437932
v -0.491547 0.591824 0.0437932
v -0.492518 0.592737 0.0563152
v -0.48709 0.597405 0.0596007
v -0.393172 0.602378 -0.151476
v -0.395305 0.602885 -0.144823
v -0.442168 0.598014 0.0596007
v -0.347921 0.596391 -0.151476
v -0.353072 0.599435 -0.151476
v -0.419725 0.602581 -0.106368
v -0.429317 0.602073 -0.0938667
v -0.440001 0.601566 -0.0788857
v -0.448742 0.599841 -0.0688226
v -0.457535 0.592737 -0.0682854
v -0.466311 0.591621 -0.0438199
v -0.479874 0.592534 0.00624766
v -0.489743 0.589997 0.0312711
v -0.498103 0.581676 0.0435039
v -0.498779 0.584619 0.0563152
v -0.49257 0.592737 0.0596007
v -0.415441 0.601668 -0.11889
v -0.406613 0.602175 -0.130565
v -0.399519 0.600145 -0.151476
v -0.400161 0.600551 -0.149575
v -0.434763 0.591722 0.0596007
v -0.337601 0.588374 -0.151476
v -0.34473 0.593955 -0.151476
v -0.437832 0.600653 -0.0872338
v -0.444232 0.598014 -0.0823779
v -0.45365 0.591114 -0.0813447
v -0.462166 0.586648 -0.0720875
v -0.463415 0.588577 -0.0637601
v -0.46449 0.589794 -0.0563213
v -0.476596 0.589388 -0.0160482
v -0.488598 0.58878 0.0233157
v -0.489171 0.578023 0.00624766
v -0.501312 0.577312 0.0474919
v -0.487419 0.586953 0.0149676
v -0.498831 0.584619 0.0596007
v -0.501711 0.578327 0.0563152
v -0.501745 0.578428 0.0596007
v -0.413429 0.600957 -0.125812
v -0.401601 0.598623 -0.151476
v -0.42838 0.581777 0.0596007
v -0.333629 0.583604 -0.151476
v -0.336439 0.587054 -0.151476
v -0.435578 0.599333 -0.0938667
v -0.444597 0.592636 -0.0934948
v -0.451448 0.589084 -0.0890728
v -0.474428 0.585938 -0.0312978
v -0.475417 0.587866 -0.0243962
v -0.459929 0.582285 -0.0814893
v -0.46423 0.578327 -0.0774186
v -0.465375 0.582285 -0.0682854
v -0.476232 0.577211 -0.0397078
v -0.488234 0.575891 -0.000343975
v -0.500306 0.569397 0.0387719
v -0.501953 0.569397 0.045033
v -0.503393 0.569397 0.0563152
v -0.503462 0.569397 0.0596007
v -0.406839 0.594665 -0.151476
v -0.332745 0.581879 -0.151476
v -0.425726 0.573151 0.0596007
v -0.327854 0.569397 -0.151476
v -0.41036 0.591925 -0.151476
v -0.416048 0.591012 -0.143934
v -0.439966 0.589997 -0.106389
v -0.438075 0.588272 -0.11265
v -0.448933 0.585431 -0.0974209
v -0.453355 0.581473 -0.0934948
v -0.451205 0.577008 -0.101161
v -0.461923 0.569397 -0.085498
v -0.465132 0.569397 -0.079237
v -0.468982 0.569397 -0.0688226
v -0.476874 0.569397 -0.0418775
v -0.488598 0.569397 -0.00160444
v -0.500635 0.556915 0.0375941
v -0.502266 0.556915 0.0438551
v -0.504017 0.556915 0.0563152
v -0.504104 0.556915 0.0596007
v -0.424807 0.568585 0.0596007
v -0.327767 0.568483 -0.151476
v -0.413794 0.588982 -0.151476
v -0.424668 0.58675 -0.136206
v -0.426923 0.578428 -0.139946
v -0.437798 0.573557 -0.124738
v -0.456963 0.569397 -0.0938667
v -0.462305 0.556915 -0.0861799
v -0.465479 0.556915 -0.0799189
v -0.469676 0.556915 -0.0688226
v -0.473318 0.556915 -0.0563213
v -0.498797 0.556915 0.0312711
v -0.500635 -0.43171 0.0375941
v -0.502266 -0.43171 0.0438551
v -0.502283 -0.43171 0.0439585
v -0.504035 -0.43171 0.0564185
v -0.504104 -0.43171 0.0596007
v -0.424287 0.556915 0.0596007
v -0.326935 0.556915 -0.151476
v -0.418078 0.581777 -0.151476
v -0.422049 0.569397 -0.151476
v -0.438301 0.565236 -0.125523
v -0.451898 0.569397 -0.102277
v -0.457726 0.556915 -0.0938667
v -0.462305 -0.43171 -0.0861799
v -0.465479 -0.43171 -0.0799189
v -0.469676 -0.43171 -0.0688226
v -0.473318 -0.43171 -0.0563213
v -0.498797 -0.43171 0.0312711
v -0.424269 -0.43171 0.0596007
v -0.424269 0.544432 0.0596007
v -0.326935 -0.43171 -0.151476
v -0.422362 0.564221 -0.151476
v -0.422795 0.556915 -0.151476
v -0.424564 0.556915 -0.148563
v -0.428363 0.556915 -0.142302
v -0.428415 -0.43171 -0.142219
v -0.457726 -0.43171 -0.0938667
v -0.422795 -0.43171 -0.151476
v -0.424564 -0.43171 -0.148563
f 1 2 3
f 1 3 4
f 1 4 5
f 1 5 16
f 1 16 30
f 1 30 45
f 1 45 61
f 1 61 80
f 1 80 82
f 1 82 101
f 1 101 121
f 1 121 138
f 1 138 151
f 1 151 152
f 1 152 139
f 1 139 122
f 1 122 104
f 1 104 85
f 1 85 66
f 1 66 48
f 1 48 32
f 1 32 19
f 1 19 8
f 1 8 6
f 1 6 2
f 2 7 3
f 2 6 8
f 2 8 7
f 3 9 10
f 3 10 11
f 3 11 12
f 3 12 4
f 3 7 9
f 4 12 13
f 4 13 14
f 4 14 15
f 4 15 5
f 5 15 16
f 7 8 17
f 7 17 20
f 7 20 33
f 7 33 50
f 7 50 49
f 7 49 68
f 7 68 67
f 7 67 87
f 7 87 86
f 7 86 103
f 7 103 105
f 7 105 123
f 7 123 140
f 7 140 153
f 7 153 160
f 7 160 155
f 7 155 154
f 7 154 142
f 7 142 141
f 7 141 124
f 7 124 106
f 7 106 102
f 7 102 84
f 7 84 64
f 7 64 46
f 7 46 31
f 7 31 18
f 7 18 9
f 8 19 20
f 8 20 17
f 9 21 10
f 9 18 22
f 9 22 21
f 10 21 23
f 10 23 24
f 10 24 11
f 11 24 13
f 11 13 12
f 13 23 25
f 13 25 14
f 13 24 23
f 14 25 26
f 14 26 27
f 14 27 28
f 14 28 15
f 15 28 29
f 15 29 16
f 16 29 30
f 18 31 22
f 19 32 33
f 19 33 20
f 21 22 23
f 22 31 34
f 22 34 35
f 22 35 23
f 23 35 36
f 23 36 37
f 23 37 25
f 25 37 38
f 25 38 26
f 26 38 39
f 26 39 40
f 26 40 41
f 26 41 27
f 27 41 28
f 28 41 29
f 29 41 40
f 29 40 42
f 29 42 43
f 29 43 44
f 29 44 45
f 29 45 30
f 31 46 47
f 31 47 34
f 32 48 49
f 32 49 50
f 32 50 33
f 34 47 51
f 34 51 36
f 34 36 35
f 36 51 52
f 36 52 53
f 36 53 37
f 37 53 39
f 37 39 38
f 39 53 54
f 39 54 55
f 39 55 56
f 39 56 57
f 39 57 40
f 40 57 43
f 40 43 42
f 43 57 56
f 43 56 58
f 43 58 59
f 43 59 60
f 43 60 44
f 44 60 80
f 44 80 61
f 44 61 45
f 46 62 63
f 46 63 52
f 46 52 47
f 46 64 65
f 46 65 62
f 47 52 51
f 48 66 67
f 48 67 68
f 48 68 49
f 52 63 62
f 52 62 53
f 53 62 69
f 53 69 54
f 54 69 70
f 54 70 71
f 54 71 55
f 55 71 72
f 55 72 73
f 55 73 74
f 55 74 56
f 56 74 75
f 56 75 58
f 58 75 76
f 58 76 59
f 59 77 78
f 59 78 60
f 59 76 79
f 59 79 77
f 60 78 81
f 60 81 82
f 60 82 80
f 62 65 83
f 62 83 69
f 64 84 65
f 65 84 69
f 65 69 83
f 66 85 86
f 66 86 87
f 66 87 67
f 69 84 88
f 69 88 70
f 70 88 89
f 70 89 71
f 71 89 90
f 71 90 72
f 72 91 79
f 72 79 92
f 72 92 73
f 72 90 93
f 72 93 94
f 72 94 95
f 72 95 96
f 72 96 91
f 73 92 76
f 73 76 75
f 73 75 74
f 76 92 79
f 77 96 97
f 77 97 78
f 77 79 96
f 78 97 98
f 78 98 99
f 78 99 100
f 78 100 81
f 79 91 96
f 81 100 101
f 81 101 82
f 84 102 88
f 85 103 86
f 85 104 105
f 85 105 103
f 88 102 89
f 89 106 107
f 89 107 108
f 89 108 90
f 89 102 106
f 90 109 110
f 90 110 93
f 90 108 109
f 93 111 112
f 93 112 94
f 93 110 111
f 94 96 95
f 94 112 113
f 94 113 114
f 94 114 115
f 94 115 96
f 96 115 97
f 97 115 116
f 97 116 117
f 97 117 98
f 98 117 118
f 98 118 99
f 99 118 119
f 99 119 120
f 99 120 100
f 100 120 121
f 100 121 101
f 104 122 105
f 105 122 123
f 106 124 107
f 107 124 108
f 108 124 109
f 109 124 125
f 109 125 110
f 110 125 126
f 110 126 112
f 110 112 111
f 112 126 127
f 112 127 128
f 112 128 113
f 113 128 129
f 113 129 114
f 114 129 130
f 114 130 131
f 114 131 115
f 115 131 116
f 116 131 132
f 116 132 117
f 117 132 133
f 117 133 118
f 118 133 150
f 118 150 134
f 118 134 135
f 118 135 119
f 119 135 136
f 119 136 137
f 119 137 120
f 120 137 121
f 121 137 138
f 122 139 140
f 122 140 123
f 124 141 125
f 125 141 126
f 126 141 142
f 126 142 127
f 127 142 143
f 127 143 144
f 127 144 128
f 128 144 143
f 128 143 145
f 128 145 129
f 129 145 159
f 129 159 146
f 129 146 147
f 129 147 130
f 130 147 148
f 130 148 131
f 131 148 149
f 131 149 132
f 132 149 150
f 132 150 133
f 134 150 149
f 134 149 148
f 134 148 147
f 134 147 146
f 134 146 159
f 134 159 158
f 134 158 161
f 134 161 160
f 134 160 153
f 134 153 151
f 134 151 138
f 134 138 137
f 134 137 136
f 134 136 135
f 139 152 140
f 140 152 151
f 140 151 153
f 142 154 143
f 143 154 155
f 143 155 156
f 143 156 157
f 143 157 145
f 145 157 158
f 145 158 159
f 155 160 161
f 155 161 156
f 156 161 158
f 156 158 157
