v 0.296245 -0.511548 -0.156529
v 0.284892 -0.511548 -0.159743
v 0.296245 -0.511548 -0.285305
v 0.296245 0.556926 -0.181454
v 0.16636 -0.511548 -0.247851
v 0.16636 0.556926 -0.269486
v 0.292342 -0.511548 -0.287773
v 0.296245 -0.511439 -0.28542
v 0.296245 0.569495 -0.18241
v 0.16636 0.569495 -0.270232
v 0.16636 -0.511548 -0.351951
v 0.269508 -0.511548 -0.301623
v 0.222276 -0.511548 -0.330259
v 0.296245 0.556926 -0.28542
v 0.296245 0.579113 -0.18637
v 0.16636 0.580862 -0.273503
v 0.16636 0.556926 -0.351951
v 0.194013 -0.511548 -0.343898
v 0.219047 -0.511548 -0.33221
v 0.219047 0.556926 -0.33221
v 0.250514 0.564249 -0.313023
v 0.296245 0.569495 -0.284674
v 0.296245 0.582283 -0.187747
v 0.16636 0.586108 -0.276104
v 0.16636 0.569495 -0.351301
v 0.194013 0.556926 -0.343898
v 0.197967 -0.511548 -0.342463
v 0.213948 -0.511548 -0.335213
v 0.210961 0.556926 -0.336973
v 0.219047 0.569495 -0.331464
v 0.227184 0.569495 -0.326548
v 0.289431 0.569495 -0.288825
v 0.288515 0.576599 -0.288251
v 0.296245 0.581627 -0.280753
v 0.296245 0.586108 -0.190272
v 0.16636 0.586436 -0.276296
v 0.16636 0.574741 -0.350516
v 0.194013 0.569495 -0.343209
v 0.203993 0.569495 -0.33967
v 0.204693 0.556926 -0.340014
v 0.204693 -0.511548 -0.340014
v 0.210961 -0.511548 -0.336973
v 0.210261 0.569495 -0.33659
v 0.226154 0.576818 -0.325936
v 0.2497 0.572555 -0.312526
v 0.261193 0.586545 -0.299384
v 0.284765 0.584906 -0.285975
v 0.296245 0.584141 -0.279395
v 0.16636 0.586873 -0.276659
v 0.296245 0.59037 -0.194653
v 0.16636 0.592556 -0.281728
v 0.16636 0.579004 -0.349082
v 0.20229 0.577911 -0.338867
v 0.206485 0.582064 -0.334505
v 0.218563 0.581408 -0.327982
v 0.222403 0.585124 -0.323659
v 0.237622 0.588075 -0.312794
v 0.296245 0.58895 -0.276257
v 0.296245 0.59671 -0.204887
v 0.16636 0.599551 -0.289954
v 0.16636 0.59824 -0.288385
v 0.16636 0.582064 -0.34759
v 0.196581 0.586217 -0.33682
v 0.193047 0.582064 -0.339842
v 0.214063 0.589059 -0.326165
v 0.276412 0.58884 -0.288481
v 0.291656 0.59037 -0.277635
v 0.296245 0.594742 -0.269084
v 0.296245 0.600753 -0.212577
v 0.16636 0.602393 -0.296209
v 0.16636 0.591682 -0.341239
v 0.18149 0.589496 -0.33902
v 0.188241 0.588403 -0.338063
v 0.206523 0.591026 -0.328269
v 0.218563 0.592447 -0.319355
v 0.229294 0.59048 -0.315319
v 0.281001 0.592228 -0.281728
v 0.274517 0.600535 -0.274842
v 0.281612 0.599005 -0.272489
v 0.296245 0.597475 -0.26545
v 0.296245 0.601846 -0.216135
v 0.16636 0.604688 -0.306634
v 0.16636 0.597912 -0.33374
v 0.186321 0.600535 -0.32496
v 0.193047 0.592447 -0.332267
v 0.194013 0.599661 -0.323296
v 0.207426 0.597912 -0.318992
v 0.244068 0.59824 -0.296362
v 0.219047 0.599223 -0.310231
v 0.212207 0.600535 -0.312545
v 0.244068 0.601628 -0.290107
v 0.266177 0.601519 -0.277042
v 0.289494 0.601191 -0.263709
v 0.296245 0.600207 -0.261662
v 0.296245 0.602502 -0.219387
v 0.294135 0.60436 -0.231572
v 0.296245 0.60447 -0.231572
v 0.168979 0.604797 -0.306634
v 0.16636 0.604032 -0.319164
v 0.16636 0.601737 -0.327485
v 0.168979 0.601628 -0.327102
v 0.177981 0.601081 -0.326012
v 0.181884 0.602612 -0.320139
v 0.194013 0.602284 -0.317041
v 0.203866 0.601519 -0.314726
v 0.219047 0.602065 -0.303975
v 0.281612 0.601956 -0.266234
v 0.296245 0.602284 -0.255866
v 0.296245 0.60447 -0.244197
v 0.294135 0.604688 -0.244082
v 0.269101 0.604907 -0.256574
v 0.281612 0.604688 -0.244082
v 0.244068 0.604907 -0.269103
v 0.206523 0.605016 -0.294124
v 0.18149 0.604907 -0.306634
v 0.194013 0.604579 -0.306634
v 0.168979 0.603923 -0.319164
v 0.207426 0.60283 -0.307686
v 0.244068 0.603814 -0.281614
v 0.269851 0.60283 -0.27004
v 0.281612 0.604251 -0.256574
v 0.256578 0.604579 -0.269103
v 0.219047 0.604251 -0.294124
f 1 2 5
f 1 5 11
f 1 11 18
f 1 18 27
f 1 27 41
f 1 41 42
f 1 42 28
f 1 28 19
f 1 19 13
f 1 13 12
f 1 12 7
f 1 7 3
f 1 3 8
f 1 8 14
f 1 14 22
f 1 22 34
f 1 34 48
f 1 48 58
f 1 58 68
f 1 68 80
f 1 80 94
f 1 94 108
f 1 108 109
f 1 109 97
f 1 97 95
f 1 95 81
f 1 81 69
f 1 69 59
f 1 59 50
f 1 50 35
f 1 35 23
f 1 23 15
f 1 15 9
f 1 9 4
f 1 4 2
f 2 4 6
f 2 6 5
f 3 7 8
f 4 9 10
f 4 10 6
f 5 6 10
f 5 10 16
f 5 16 24
f 5 24 36
f 5 36 49
f 5 49 51
f 5 51 61
f 5 61 60
f 5 60 70
f 5 70 82
f 5 82 99
f 5 99 100
f 5 100 83
f 5 83 71
f 5 71 62
f 5 62 52
f 5 52 37
f 5 37 25
f 5 25 17
f 5 17 11
f 7 12 8
f 8 12 13
f 8 13 14
f 9 15 16
f 9 16 10
f 11 17 26
f 11 26 18
f 13 19 20
f 13 20 14
f 14 20 21
f 14 21 22
f 15 23 16
f 16 23 24
f 17 25 26
f 18 26 27
f 19 28 20
f 20 29 30
f 20 30 21
f 20 28 29
f 21 30 31
f 21 31 32
f 21 32 22
f 22 32 33
f 22 33 34
f 23 35 36
f 23 36 24
f 25 37 38
f 25 38 26
f 26 38 39
f 26 39 40
f 26 40 27
f 27 40 41
f 28 42 29
f 29 40 39
f 29 39 43
f 29 43 30
f 29 42 41
f 29 41 40
f 30 43 44
f 30 44 45
f 30 45 31
f 31 45 32
f 32 45 33
f 33 45 44
f 33 44 46
f 33 46 47
f 33 47 48
f 33 48 34
f 35 49 36
f 35 50 51
f 35 51 49
f 37 52 53
f 37 53 38
f 38 53 39
f 39 53 43
f 43 53 44
f 44 53 54
f 44 54 55
f 44 55 56
f 44 56 46
f 46 56 57
f 46 57 58
f 46 58 47
f 47 58 48
f 50 59 60
f 50 60 61
f 50 61 51
f 52 62 63
f 52 63 64
f 52 64 53
f 53 64 63
f 53 63 54
f 54 63 65
f 54 65 56
f 54 56 55
f 56 65 57
f 57 65 66
f 57 66 58
f 58 66 67
f 58 67 68
f 59 69 60
f 60 69 70
f 62 71 72
f 62 72 73
f 62 73 63
f 63 73 74
f 63 74 65
f 65 74 75
f 65 75 76
f 65 76 67
f 65 67 66
f 67 76 75
f 67 75 77
f 67 77 78
f 67 78 79
f 67 79 68
f 68 79 80
f 69 81 70
f 70 81 82
f 71 83 84
f 71 84 85
f 71 85 72
f 72 85 73
f 73 85 74
f 74 85 86
f 74 86 87
f 74 87 75
f 75 87 88
f 75 88 77
f 77 88 78
f 78 88 89
f 78 89 90
f 78 90 91
f 78 91 92
f 78 92 93
f 78 93 94
f 78 94 80
f 78 80 79
f 81 95 82
f 82 96 97
f 82 97 98
f 82 98 99
f 82 95 96
f 83 100 101
f 83 101 102
f 83 102 84
f 84 102 103
f 84 103 104
f 84 104 105
f 84 105 86
f 84 86 85
f 86 105 90
f 86 90 87
f 87 90 89
f 87 89 88
f 90 105 106
f 90 106 91
f 91 106 92
f 92 106 107
f 92 107 93
f 93 107 108
f 93 108 94
f 95 97 96
f 97 109 110
f 97 110 111
f 97 111 112
f 97 112 98
f 98 113 114
f 98 114 115
f 98 115 99
f 98 112 113
f 99 115 116
f 99 116 117
f 99 117 100
f 100 117 103
f 100 103 101
f 101 103 102
f 103 117 104
f 104 117 116
f 104 116 118
f 104 118 105
f 105 118 106
f 106 118 119
f 106 119 120
f 106 120 107
f 107 120 108
f 108 120 121
f 108 121 109
f 109 121 110
f 110 114 111
f 110 121 122
f 110 122 114
f 111 114 113
f 111 113 112
f 114 122 116
f 114 116 115
f 116 122 123
f 116 123 118
f 118 123 119
f 119 123 121
f 119 121 120
f 121 123 122
