v -0.131426 0.292879 -0.57521
v -0.131426 0.296203 -0.573374
v -0.118923 0.31348 -0.563548
v -0.118923 0.306659 -0.567293
v -0.118923 0.295805 -0.573244
v -0.118923 0.292879 -0.574839
v -0.143928 0.292879 -0.574394
v -0.131426 0.313515 -0.563567
v -0.13865 0.313134 -0.563344
v -0.118923 0.31973 -0.560007
v -0.112113 0.313099 -0.563326
v -0.115549 0.292879 -0.57445
v -0.155768 0.292879 -0.572614
v -0.143928 0.295493 -0.572911
v -0.131426 0.319764 -0.55997
v -0.143266 0.30749 -0.566051
v -0.143266 0.31805 -0.559915
v -0.118923 0.329909 -0.553741
v -0.1064 0.328888 -0.553018
v -0.107331 0.318033 -0.559692
v -0.103771 0.31168 -0.562584
v -0.107331 0.307179 -0.565625
v -0.106917 0.292879 -0.573115
v -0.156224 0.292879 -0.572521
v -0.156058 0.293191 -0.572392
v -0.146992 0.312234 -0.562825
v -0.131426 0.329909 -0.553722
v -0.143928 0.329061 -0.553129
v -0.156451 0.319176 -0.557059
v -0.118923 0.336176 -0.549458
v -0.110084 0.35096 -0.538539
v -0.1064 0.335155 -0.548828
v -0.101742 0.350147 -0.537982
v -0.0969402 0.327191 -0.551868
v -0.0932143 0.320059 -0.554723
v -0.0963813 0.303335 -0.564772
v -0.106172 0.292879 -0.572948
v -0.106483 0.293364 -0.572781
v -0.167422 0.292879 -0.569963
v -0.168954 0.294143 -0.568888
v -0.168954 0.302106 -0.564253
v -0.156451 0.304564 -0.56568
v -0.156451 0.310831 -0.561991
v -0.131426 0.336159 -0.54944
v -0.156451 0.327433 -0.552035
v -0.143928 0.335328 -0.548828
v -0.164193 0.3261 -0.551145
v -0.118923 0.344209 -0.543804
v -0.118923 0.351306 -0.538798
v -0.118923 0.357573 -0.534293
v -0.1064 0.365173 -0.527508
v -0.10611 0.355773 -0.534515
v -0.10611 0.345265 -0.541894
v -0.0970437 0.364083 -0.526599
v -0.0932764 0.357729 -0.530233
v -0.0938767 0.348519 -0.536944
v -0.0938767 0.342252 -0.541023
v -0.0932143 0.331502 -0.547753
v -0.0885983 0.324802 -0.55033
v -0.0928831 0.307179 -0.561416
v -0.0880394 0.299994 -0.563048
v -0.0928831 0.295147 -0.567405
v -0.0929452 0.292879 -0.568498
v -0.168954 0.292879 -0.569574
v -0.180442 0.294091 -0.565532
v -0.175557 0.3006 -0.563344
v -0.131426 0.351116 -0.538668
v -0.138733 0.350701 -0.538372
v -0.156451 0.3337 -0.547697
v -0.147074 0.3498 -0.537686
v -0.143307 0.345057 -0.541801
v -0.172556 0.324127 -0.549903
v -0.168602 0.330844 -0.546455
v -0.168954 0.339933 -0.539725
v -0.131426 0.357366 -0.534089
v -0.118923 0.365796 -0.528027
v -0.1064 0.371423 -0.522168
v -0.0938767 0.383524 -0.509413
v -0.0938767 0.377274 -0.514678
v -0.0866525 0.376045 -0.513603
v -0.0887018 0.362559 -0.525357
v -0.0856175 0.339829 -0.539391
v -0.074771 0.350926 -0.525987
v -0.0848931 0.316458 -0.552703
v -0.0859901 0.292879 -0.564679
v -0.178993 0.292879 -0.566607
v -0.180484 0.292879 -0.566162
v -0.18334 0.292879 -0.565217
v -0.183899 0.298246 -0.561861
v -0.143307 0.355617 -0.533941
v -0.143928 0.364585 -0.526988
v -0.131426 0.365571 -0.527823
v -0.156451 0.342218 -0.541431
v -0.152167 0.363598 -0.526191
v -0.181477 0.315315 -0.552184
v -0.181477 0.321565 -0.54829
v -0.180753 0.3319 -0.541486
v -0.176095 0.338409 -0.538557
v -0.168954 0.354232 -0.528601
v -0.160508 0.36223 -0.525097
v -0.118923 0.372063 -0.522595
v -0.1064 0.378625 -0.51592
v -0.0938767 0.390656 -0.503165
v -0.0850173 0.389254 -0.50183
v -0.0816639 0.38155 -0.506743
v -0.0782899 0.373431 -0.511656
v -0.0813741 0.359876 -0.523447
v -0.0813741 0.353626 -0.527952
v -0.0734048 0.365087 -0.514697
v -0.0635725 0.373483 -0.499531
v -0.0732185 0.344209 -0.527915
v -0.0745226 0.326776 -0.538891
v -0.0772756 0.33512 -0.536703
v -0.0765511 0.309152 -0.549106
v -0.0750194 0.300808 -0.550867
v -0.0841272 0.292879 -0.562751
v -0.193317 0.292879 -0.561324
v -0.188184 0.313238 -0.550923
v -0.143928 0.370834 -0.521464
v -0.131426 0.371821 -0.522316
v -0.156451 0.348467 -0.536666
v -0.156369 0.357539 -0.529769
v -0.157114 0.369467 -0.519628
v -0.15374 0.37653 -0.514141
v -0.191351 0.327866 -0.539948
v -0.184437 0.336211 -0.536833
v -0.178144 0.352051 -0.526933
v -0.168954 0.360482 -0.523707
v -0.168954 0.367753 -0.517459
v -0.162082 0.375318 -0.512991
v -0.118923 0.378988 -0.516328
v -0.1064 0.384874 -0.510433
v -0.0938767 0.396923 -0.49688
v -0.1064 0.391764 -0.504166
v -0.1064 0.398031 -0.49803
v -0.0849552 0.401597 -0.489279
v -0.0768616 0.412383 -0.474929
v -0.0766132 0.399849 -0.487481
v -0.0766753 0.38709 -0.499847
v -0.0719144 0.378763 -0.503313
v -0.0627239 0.387817 -0.488
v -0.0608609 0.37949 -0.491189
v -0.0619166 0.365139 -0.501812
v -0.0735497 0.319176 -0.540633
v -0.0747296 0.294143 -0.551479
v -0.061544 0.356725 -0.503369
v -0.0747296 0.292879 -0.551479
v -0.19516 0.292879 -0.560489
v -0.194435 0.294091 -0.560081
v -0.193007 0.306261 -0.553073
v -0.196526 0.310156 -0.548939
v -0.193938 0.319124 -0.544453
v -0.143928 0.377672 -0.515216
v -0.131426 0.378642 -0.516069
v -0.118923 0.392076 -0.504407
v -0.118923 0.385238 -0.510655
v -0.153885 0.389185 -0.501793
v -0.143928 0.390501 -0.503017
v -0.199693 0.32501 -0.53789
v -0.194911 0.3319 -0.535016
v -0.186486 0.349783 -0.525116
v -0.181974 0.356431 -0.521742
v -0.181477 0.364931 -0.514919
v -0.168954 0.37402 -0.511656
v -0.162227 0.387852 -0.500495
v -0.0938767 0.402809 -0.490614
v -0.0852035 0.413854 -0.476524
v -0.118923 0.398325 -0.498363
v -0.1064 0.403761 -0.491763
v -0.0938767 0.414841 -0.477618
v -0.0938767 0.409076 -0.483866
v -0.0822228 0.419048 -0.469034
v -0.0792421 0.424241 -0.461433
v -0.0711486 0.427427 -0.45309
v -0.0677331 0.422493 -0.457094
v -0.0688509 0.415551 -0.466179
v -0.0688509 0.409924 -0.472427
v -0.0688509 0.403658 -0.47873
v -0.0620201 0.401182 -0.476246
v -0.0500764 0.413023 -0.450587
v -0.0506353 0.397529 -0.462044
v -0.0499108 0.389185 -0.463639
v -0.0272862 0.431807 -0.385847
v -0.0735083 0.292879 -0.544582
v -0.0281763 0.41929 -0.385847
v -0.205095 0.292879 -0.555409
v -0.201845 0.301812 -0.551627
v -0.131426 0.391626 -0.504018
v -0.157962 0.394742 -0.494878
v -0.153678 0.401476 -0.489242
v -0.143928 0.39675 -0.496788
v -0.131426 0.397893 -0.497937
v -0.207621 0.320162 -0.536073
v -0.214038 0.326741 -0.526766
v -0.205737 0.331225 -0.528972
v -0.201038 0.3386 -0.52621
v -0.194 0.341058 -0.528175
v -0.210187 0.29809 -0.549143
v -0.212547 0.312701 -0.538038
v -0.18808 0.3632 -0.513362
v -0.181477 0.371181 -0.508783
v -0.168954 0.380235 -0.505408
v -0.168954 0.386484 -0.499086
v -0.168954 0.39263 -0.492839
v -0.16202 0.400316 -0.487889
v -0.087584 0.425557 -0.463138
v -0.118923 0.403969 -0.492116
v -0.1064 0.410028 -0.484755
v -0.0938767 0.421091 -0.470091
v -0.1064 0.415551 -0.478508
v -0.1064 0.4218 -0.471018
v -0.0731357 0.438835 -0.439185
v -0.0647938 0.437087 -0.43659
v -0.0628066 0.425436 -0.450457
v -0.0620408 0.413525 -0.463713
v -0.050035 0.425592 -0.438147
v -0.0313226 0.445085 -0.385847
v -0.0371806 0.426371 -0.413916
v -0.0487724 0.404679 -0.453683
v -0.0737774 0.292879 -0.533347
v -0.0316745 0.408938 -0.385847
v -0.0322748 0.40738 -0.385847
v -0.208407 0.292879 -0.553537
v -0.206213 0.294004 -0.554112
v -0.150593 0.413144 -0.475782
v -0.143928 0.408834 -0.48292
v -0.143928 0.402584 -0.490521
v -0.131426 0.403536 -0.491671
v -0.214431 0.339829 -0.514789
v -0.210229 0.348173 -0.511063
v -0.201887 0.351878 -0.514363
v -0.20938 0.335085 -0.523132
v -0.224429 0.299336 -0.537389
v -0.218529 0.318241 -0.528972
v -0.225629 0.313445 -0.526061
v -0.222379 0.32179 -0.522539
v -0.196422 0.360222 -0.510692
v -0.217743 0.292879 -0.547234
v -0.219461 0.294541 -0.544768
v -0.192199 0.368099 -0.505742
v -0.187956 0.375647 -0.500792
v -0.181477 0.377326 -0.502516
v -0.168954 0.398879 -0.48622
v -0.179283 0.390206 -0.490391
v -0.158935 0.411915 -0.474151
v -0.155437 0.416399 -0.469738
v -0.168954 0.403883 -0.479972
v -0.0938767 0.426076 -0.463843
v -0.0938767 0.430976 -0.456853
v -0.0938767 0.436706 -0.448659
v -0.0813741 0.439943 -0.44078
v -0.0813741 0.435442 -0.447046
v -0.118923 0.410219 -0.48483
v -0.118923 0.415551 -0.4786
v -0.118923 0.4218 -0.47111
v -0.118923 0.426855 -0.464844
v -0.1064 0.426769 -0.464751
v -0.0813741 0.445344 -0.431825
v -0.0594533 0.466084 -0.385847
v -0.059888 0.439666 -0.428247
v -0.0559758 0.434334 -0.432177
v -0.0563277 0.427981 -0.44115
v -0.0515461 0.436948 -0.424094
v -0.0430179 0.456874 -0.385847
v -0.0420657 0.455939 -0.385847
v -0.0325439 0.446331 -0.385847
v -0.0758888 0.292879 -0.527248
v -0.0330821 0.406341 -0.385847
v -0.147074 0.424813 -0.462082
v -0.138733 0.425782 -0.463435
v -0.131426 0.421229 -0.470406
v -0.131426 0.414979 -0.47797
v -0.131426 0.409803 -0.484218
v -0.214658 0.352674 -0.50272
v -0.226002 0.326516 -0.514196
v -0.210643 0.361018 -0.498475
v -0.206275 0.356448 -0.506706
v -0.202301 0.364637 -0.502349
v -0.223125 0.292879 -0.542728
v -0.230121 0.292879 -0.535072
v -0.22002 0.292879 -0.545435
v -0.227554 0.306659 -0.52849
v -0.232253 0.292879 -0.532179
v -0.227678 0.318241 -0.518794
v -0.196319 0.372981 -0.497807
v -0.187625 0.387938 -0.488074
v -0.178082 0.401944 -0.477488
v -0.182864 0.395019 -0.482772
v -0.156451 0.42341 -0.460153
v -0.168954 0.410132 -0.471704
v -0.0938767 0.441034 -0.442411
v -0.0933592 0.447872 -0.430954
v -0.131426 0.426336 -0.464139
v -0.118923 0.432239 -0.456853
v -0.1064 0.437243 -0.449382
v -0.1064 0.432205 -0.456853
v -0.0813741 0.449707 -0.423964
v -0.0888467 0.450451 -0.425299
v -0.0688509 0.468006 -0.385847
v -0.0809808 0.292879 -0.519091
v -0.0442806 0.394932 -0.385847
v -0.143307 0.428639 -0.457484
v -0.156451 0.427704 -0.453906
v -0.143928 0.435494 -0.446249
v -0.131426 0.436567 -0.448121
v -0.131426 0.431097 -0.456853
v -0.218612 0.355981 -0.493599
v -0.214224 0.364654 -0.490132
v -0.223 0.347273 -0.497084
v -0.23631 0.297068 -0.521946
v -0.227575 0.331086 -0.506224
v -0.225836 0.338929 -0.501589
v -0.20108 0.3887 -0.476468
v -0.201659 0.37672 -0.489464
v -0.194 0.38574 -0.485571
v -0.233164 0.292879 -0.530678
v -0.186424 0.399832 -0.474688
v -0.194 0.391141 -0.479342
v -0.175805 0.413335 -0.463528
v -0.168954 0.414806 -0.465456
v -0.164917 0.426388 -0.451866
v -0.1064 0.441397 -0.443116
v -0.1064 0.447647 -0.432863
v -0.0971886 0.450902 -0.426189
v -0.118923 0.437191 -0.449197
v -0.0886397 0.463037 -0.400382
v -0.0815397 0.469235 -0.385847
v -0.0569073 0.384684 -0.385847
v -0.0864662 0.292879 -0.511786
v -0.15581 0.434213 -0.443412
v -0.151214 0.438385 -0.438611
v -0.143928 0.444081 -0.431825
v -0.134738 0.450157 -0.424669
v -0.131426 0.440376 -0.441855
v -0.126416 0.450746 -0.425855
v -0.118923 0.441138 -0.442949
v -0.225588 0.35096 -0.488741
v -0.213437 0.376357 -0.476654
v -0.238525 0.292879 -0.519276
v -0.237945 0.300877 -0.513584
v -0.232729 0.319176 -0.50691
v -0.203791 0.391228 -0.469368
v -0.199465 0.399953 -0.46223
v -0.194766 0.397685 -0.470054
v -0.210042 0.385255 -0.469368
v -0.184147 0.411136 -0.460357
v -0.180587 0.415828 -0.456464
v -0.191123 0.402792 -0.466346
v -0.189115 0.414027 -0.452015
v -0.173259 0.424726 -0.449197
v -0.169037 0.421471 -0.456371
v -0.169037 0.428864 -0.444747
v -0.159556 0.437104 -0.436312
v -0.118923 0.447387 -0.432622
v -0.118923 0.451005 -0.426374
v -0.1064 0.451127 -0.426616
v -0.0969816 0.46328 -0.400938
v -0.0936904 0.46972 -0.385847
v -0.0582527 0.383801 -0.385847
v -0.0924484 0.292879 -0.506354
v -0.15581 0.440722 -0.432011
v -0.143928 0.449205 -0.422648
v -0.143928 0.452044 -0.4164
v -0.131426 0.458311 -0.406797
v -0.130929 0.452719 -0.420034
v -0.130929 0.447162 -0.43075
v -0.1212 0.462674 -0.399548
v -0.117785 0.465028 -0.39495
v -0.112858 0.463124 -0.400586
v -0.118923 0.45426 -0.419311
v -0.231115 0.331692 -0.494396
v -0.226292 0.35283 -0.481882
v -0.224594 0.361469 -0.4715
v -0.216853 0.382797 -0.457725
v -0.213975 0.389825 -0.454147
v -0.212485 0.387661 -0.462489
v -0.238608 0.292879 -0.518924
v -0.238587 0.293398 -0.518423
v -0.23867 0.292879 -0.518479
v -0.238753 0.292879 -0.510655
v -0.237945 0.300877 -0.511082
v -0.225298 0.362992 -0.463157
v -0.229003 0.344209 -0.481882
v -0.202384 0.402584 -0.453869
v -0.200707 0.413456 -0.438833
v -0.197457 0.410928 -0.447176
v -0.193566 0.415949 -0.443542
v -0.186383 0.424813 -0.436553
v -0.181912 0.422701 -0.444747
v -0.174087 0.437554 -0.424576
v -0.165745 0.439407 -0.427969
v -0.178041 0.427046 -0.440854
v -0.1064 0.463262 -0.400864
v -0.1064 0.460371 -0.40713
v -0.1064 0.454658 -0.419311
v -0.1064 0.469702 -0.385847
v -0.0599294 0.383004 -0.385847
v -0.100045 0.292879 -0.50044
v -0.0928003 0.292879 -0.506057
v -0.156203 0.44756 -0.418755
v -0.151856 0.451092 -0.414231
v -0.143928 0.456026 -0.406797
v -0.14043 0.463799 -0.389759
v -0.131426 0.464665 -0.391706
v -0.118571 0.468664 -0.385847
v -0.214948 0.392145 -0.444339
v -0.212506 0.400057 -0.436386
v -0.211057 0.398412 -0.444339
v -0.238608 0.292879 -0.50971
v -0.238546 0.294143 -0.509673
v -0.233992 0.319176 -0.494396
v -0.225298 0.362992 -0.463083
v -0.213085 0.40113 -0.428043
v -0.202052 0.414962 -0.431825
v -0.198099 0.423687 -0.419311
v -0.191827 0.428915 -0.419311
v -0.189467 0.426838 -0.42821
v -0.177917 0.439666 -0.416233
v -0.169533 0.441865 -0.419978
v -0.0714384 0.379906 -0.385847
v -0.124098 0.292879 -0.487796
v -0.118923 0.292879 -0.489984
v -0.117723 0.292879 -0.490521
v -0.107704 0.292879 -0.495694
v -0.105406 0.292879 -0.497084
v -0.160198 0.449794 -0.410968
v -0.148772 0.462726 -0.386867
v -0.142479 0.46463 -0.385847
v -0.131426 0.46688 -0.385847
v -0.200893 0.426388 -0.403293
v -0.203708 0.41742 -0.419311
v -0.237345 0.292879 -0.504092
v -0.225691 0.356725 -0.462156
v -0.213893 0.394257 -0.420646
v -0.213085 0.40113 -0.422481
v -0.201266 0.427046 -0.394283
v -0.199817 0.42509 -0.411636
v -0.188453 0.438627 -0.402125
v -0.186259 0.437104 -0.410468
v -0.18185 0.441207 -0.4065
v -0.172845 0.449499 -0.397119
v -0.168788 0.447907 -0.406797
v -0.0814569 0.378123 -0.385847
v -0.143866 0.292879 -0.481344
v -0.132461 0.292879 -0.4847
v -0.13126 0.292879 -0.485126
v -0.156451 0.457324 -0.394283
v -0.164483 0.451369 -0.402625
v -0.149269 0.462881 -0.385847
v -0.147758 0.463314 -0.385847
v -0.1567 0.460198 -0.385847
v -0.150593 0.462414 -0.385847
v -0.192406 0.438593 -0.385847
v -0.190357 0.44067 -0.385847
v -0.189571 0.439684 -0.394283
v -0.212485 0.394257 -0.414379
v -0.225816 0.347411 -0.461878
v -0.236973 0.292879 -0.503462
v -0.202736 0.402965 -0.385847
v -0.20375 0.406981 -0.385847
v -0.206627 0.406774 -0.394283
v -0.204102 0.415222 -0.385847
v -0.209463 0.406774 -0.406797
v -0.202218 0.424466 -0.385847
v -0.201121 0.426994 -0.385847
v -0.196629 0.433261 -0.385847
v -0.182367 0.446989 -0.385847
v -0.178289 0.449915 -0.385847
v -0.17624 0.451265 -0.385847
v -0.175598 0.450815 -0.388776
v -0.168892 0.454987 -0.385847
v -0.168788 0.452546 -0.393467
v -0.0865904 0.377361 -0.385847
v -0.155934 0.292879 -0.478841
v -0.146288 0.292879 -0.480825
v -0.23099 0.292879 -0.494674
v -0.201328 0.398689 -0.385903
v -0.201349 0.398845 -0.385847
v -0.203439 0.41929 -0.385847
v -0.0980787 0.376028 -0.385847
v -0.156451 0.292879 -0.478749
v -0.230411 0.292879 -0.494081
v -0.196091 0.392266 -0.385847
v -0.201307 0.398741 -0.385847
v -0.118923 0.373864 -0.385847
v -0.166511 0.292879 -0.477488
v -0.228569 0.292879 -0.492486
v -0.194021 0.390397 -0.385847
v -0.220185 0.292879 -0.485812
v -0.12002 0.37376 -0.385847
v -0.168954 0.292879 -0.47721
v -0.189612 0.386605 -0.385847
v -0.219047 0.292879 -0.4852
v -0.131426 0.373119 -0.385847
v -0.17831 0.292879 -0.476895
v -0.185017 0.383887 -0.385847
v -0.218446 0.292879 -0.484941
v -0.181353 0.381914 -0.385847
v -0.133289 0.373102 -0.385847
v -0.181477 0.292879 -0.476839
v -0.20849 0.292879 -0.480806
v -0.173032 0.378832 -0.385847
v -0.143928 0.373448 -0.385847
v -0.191827 0.292879 -0.477562
v -0.206689 0.292879 -0.480269
v -0.168333 0.377205 -0.385847
v -0.170134 0.377828 -0.385847
v -0.145191 0.373552 -0.385847
v -0.194 0.292879 -0.477729
v -0.162082 0.375837 -0.385847
v -0.155623 0.374781 -0.385847
v -0.156451 0.374885 -0.385847
f 1 2 3
f 1 3 4
f 1 4 5
f 1 5 6
f 1 6 12
f 1 12 23
f 1 23 37
f 1 37 63
f 1 63 85
f 1 85 116
f 1 116 147
f 1 147 184
f 1 184 220
f 1 220 267
f 1 267 300
f 1 300 329
f 1 329 360
f 1 360 399
f 1 399 398
f 1 398 425
f 1 425 424
f 1 424 423
f 1 423 422
f 1 422 421
f 1 421 446
f 1 446 445
f 1 445 444
f 1 444 475
f 1 475 474
f 1 474 481
f 1 481 486
f 1 486 491
f 1 491 495
f 1 495 500
f 1 500 504
f 1 504 509
f 1 509 505
f 1 505 501
f 1 501 497
f 1 497 493
f 1 493 489
f 1 489 487
f 1 487 482
f 1 482 476
f 1 476 458
f 1 458 432
f 1 432 409
f 1 409 380
f 1 380 379
f 1 379 377
f 1 377 339
f 1 339 316
f 1 316 283
f 1 283 280
f 1 280 279
f 1 279 281
f 1 281 238
f 1 238 223
f 1 223 186
f 1 186 148
f 1 148 117
f 1 117 88
f 1 88 87
f 1 87 86
f 1 86 64
f 1 64 39
f 1 39 24
f 1 24 13
f 1 13 7
f 1 7 2
f 2 8 3
f 2 7 9
f 2 9 8
f 3 10 11
f 3 11 4
f 3 8 10
f 4 11 5
f 5 11 6
f 6 11 12
f 7 13 14
f 7 14 9
f 8 15 10
f 8 9 15
f 9 14 16
f 9 16 17
f 9 17 15
f 10 18 19
f 10 19 11
f 10 15 18
f 11 19 20
f 11 20 21
f 11 21 22
f 11 22 23
f 11 23 12
f 13 24 25
f 13 25 14
f 14 25 26
f 14 26 16
f 15 27 18
f 15 17 28
f 15 28 27
f 16 26 17
f 17 26 29
f 17 29 28
f 18 30 31
f 18 31 32
f 18 32 19
f 18 27 30
f 19 32 33
f 19 33 34
f 19 34 20
f 20 34 21
f 21 34 35
f 21 35 36
f 21 36 37
f 21 37 38
f 21 38 22
f 22 38 23
f 23 38 37
f 24 39 25
f 25 39 40
f 25 40 41
f 25 41 42
f 25 42 26
f 26 42 43
f 26 43 29
f 27 44 30
f 27 28 44
f 28 29 45
f 28 45 46
f 28 46 44
f 29 43 41
f 29 41 47
f 29 47 45
f 30 48 31
f 30 44 48
f 31 48 49
f 31 49 50
f 31 50 51
f 31 51 52
f 31 52 33
f 31 33 53
f 31 53 32
f 32 53 33
f 33 54 55
f 33 55 56
f 33 56 34
f 33 52 51
f 33 51 54
f 34 56 57
f 34 57 58
f 34 58 59
f 34 59 35
f 35 59 60
f 35 60 36
f 36 60 61
f 36 61 62
f 36 62 63
f 36 63 37
f 39 64 40
f 40 64 65
f 40 65 66
f 40 66 41
f 41 66 47
f 41 43 42
f 44 67 50
f 44 50 49
f 44 49 48
f 44 46 68
f 44 68 67
f 45 69 46
f 45 47 69
f 46 69 70
f 46 70 71
f 46 71 68
f 47 66 72
f 47 72 73
f 47 73 74
f 47 74 69
f 50 67 75
f 50 75 76
f 50 76 51
f 51 77 78
f 51 78 54
f 51 76 77
f 54 78 79
f 54 79 80
f 54 80 81
f 54 81 55
f 55 81 56
f 56 81 82
f 56 82 59
f 56 59 57
f 57 59 58
f 59 82 83
f 59 83 84
f 59 84 61
f 59 61 60
f 61 84 85
f 61 85 63
f 61 63 62
f 64 86 65
f 65 86 87
f 65 87 88
f 65 88 89
f 65 89 66
f 66 89 72
f 67 68 75
f 68 71 70
f 68 70 90
f 68 90 91
f 68 91 92
f 68 92 75
f 69 93 70
f 69 74 93
f 70 91 90
f 70 93 94
f 70 94 91
f 72 89 95
f 72 95 96
f 72 96 97
f 72 97 98
f 72 98 73
f 73 98 74
f 74 99 100
f 74 100 93
f 74 98 99
f 75 92 76
f 76 92 101
f 76 101 77
f 77 101 102
f 77 102 78
f 78 102 103
f 78 103 104
f 78 104 80
f 78 80 79
f 80 104 105
f 80 105 106
f 80 106 81
f 81 106 107
f 81 107 108
f 81 108 82
f 82 108 83
f 83 108 107
f 83 107 106
f 83 106 109
f 83 109 110
f 83 110 111
f 83 111 112
f 83 112 113
f 83 113 84
f 84 113 112
f 84 112 114
f 84 114 85
f 85 114 115
f 85 115 116
f 88 117 89
f 89 117 118
f 89 118 95
f 91 94 119
f 91 119 120
f 91 120 92
f 92 120 101
f 93 100 121
f 93 121 94
f 94 121 122
f 94 122 100
f 94 100 123
f 94 123 124
f 94 124 119
f 95 118 96
f 96 118 125
f 96 125 97
f 97 125 126
f 97 126 98
f 98 126 127
f 98 127 128
f 98 128 99
f 99 128 100
f 100 122 121
f 100 128 129
f 100 129 130
f 100 130 123
f 101 120 131
f 101 131 132
f 101 132 102
f 102 132 103
f 103 133 104
f 103 132 134
f 103 134 135
f 103 135 133
f 104 133 136
f 104 136 137
f 104 137 138
f 104 138 139
f 104 139 105
f 105 139 106
f 106 139 140
f 106 140 109
f 109 140 110
f 110 141 142
f 110 142 143
f 110 143 111
f 110 140 141
f 111 143 112
f 112 143 144
f 112 144 115
f 112 115 114
f 115 145 116
f 115 144 143
f 115 143 146
f 115 146 145
f 116 145 147
f 117 148 149
f 117 149 118
f 118 149 150
f 118 150 151
f 118 151 152
f 118 152 125
f 119 124 153
f 119 153 120
f 120 154 155
f 120 155 156
f 120 156 131
f 120 153 154
f 123 130 124
f 124 157 158
f 124 158 153
f 124 130 157
f 125 152 159
f 125 159 160
f 125 160 126
f 126 161 127
f 126 160 161
f 127 161 162
f 127 162 163
f 127 163 128
f 128 163 129
f 129 164 130
f 129 163 164
f 130 164 165
f 130 165 157
f 131 156 132
f 132 156 134
f 133 166 167
f 133 167 136
f 133 135 166
f 134 156 155
f 134 155 168
f 134 168 135
f 135 168 169
f 135 169 170
f 135 170 171
f 135 171 166
f 136 167 137
f 137 172 173
f 137 173 174
f 137 174 175
f 137 175 176
f 137 176 177
f 137 177 138
f 137 167 172
f 138 177 178
f 138 178 139
f 139 178 179
f 139 179 140
f 140 179 141
f 141 179 180
f 141 180 142
f 142 180 181
f 142 181 143
f 143 181 182
f 143 182 146
f 145 146 182
f 145 182 183
f 145 183 147
f 147 183 185
f 147 185 184
f 148 186 187
f 148 187 149
f 149 187 151
f 149 151 150
f 151 187 159
f 151 159 152
f 153 158 188
f 153 188 154
f 154 188 155
f 155 188 168
f 157 189 190
f 157 190 191
f 157 191 158
f 157 165 189
f 158 191 192
f 158 192 188
f 159 193 194
f 159 194 195
f 159 195 196
f 159 196 197
f 159 197 160
f 159 187 198
f 159 198 199
f 159 199 193
f 160 197 161
f 161 197 200
f 161 200 162
f 162 200 163
f 163 201 164
f 163 200 201
f 164 202 165
f 164 201 202
f 165 202 203
f 165 203 204
f 165 204 205
f 165 205 189
f 166 171 167
f 167 171 170
f 167 170 206
f 167 206 172
f 168 188 192
f 168 192 207
f 168 207 169
f 169 207 208
f 169 208 170
f 170 209 206
f 170 208 210
f 170 210 211
f 170 211 209
f 172 206 173
f 173 212 174
f 173 206 212
f 174 212 213
f 174 213 214
f 174 214 175
f 175 214 176
f 176 214 215
f 176 215 177
f 177 215 179
f 177 179 178
f 179 215 216
f 179 216 180
f 180 216 217
f 180 217 218
f 180 218 219
f 180 219 181
f 181 219 218
f 181 218 183
f 181 183 182
f 183 218 217
f 183 217 266
f 183 266 265
f 183 265 264
f 183 264 259
f 183 259 299
f 183 299 327
f 183 327 358
f 183 358 396
f 183 396 405
f 183 405 429
f 183 429 428
f 183 428 450
f 183 450 449
f 183 449 452
f 183 452 451
f 183 451 471
f 183 471 469
f 183 469 468
f 183 468 467
f 183 467 454
f 183 454 453
f 183 453 466
f 183 466 465
f 183 465 464
f 183 464 479
f 183 479 462
f 183 462 460
f 183 460 459
f 183 459 478
f 183 478 484
f 183 484 483
f 183 483 488
f 183 488 492
f 183 492 496
f 183 496 498
f 183 498 502
f 183 502 507
f 183 507 506
f 183 506 510
f 183 510 512
f 183 512 511
f 183 511 508
f 183 508 503
f 183 503 499
f 183 499 494
f 183 494 490
f 183 490 485
f 183 485 480
f 183 480 473
f 183 473 443
f 183 443 420
f 183 420 397
f 183 397 359
f 183 359 328
f 183 328 301
f 183 301 268
f 183 268 222
f 183 222 221
f 183 221 185
f 184 185 221
f 184 221 222
f 184 222 220
f 186 223 224
f 186 224 187
f 187 224 198
f 189 205 190
f 190 225 226
f 190 226 227
f 190 227 191
f 190 205 225
f 191 227 192
f 192 228 207
f 192 227 228
f 193 199 194
f 194 229 230
f 194 230 231
f 194 231 232
f 194 232 196
f 194 196 195
f 194 199 233
f 194 233 234
f 194 234 235
f 194 235 236
f 194 236 229
f 196 231 237
f 196 237 200
f 196 200 197
f 196 232 231
f 198 238 199
f 198 224 223
f 198 223 238
f 199 238 239
f 199 239 233
f 200 237 240
f 200 240 241
f 200 241 201
f 201 241 242
f 201 242 204
f 201 204 203
f 201 203 202
f 204 243 205
f 204 242 244
f 204 244 243
f 205 245 246
f 205 246 225
f 205 243 247
f 205 247 245
f 206 209 248
f 206 248 249
f 206 249 250
f 206 250 251
f 206 251 252
f 206 252 212
f 207 228 253
f 207 253 210
f 207 210 208
f 209 211 248
f 210 253 254
f 210 254 255
f 210 255 211
f 211 255 256
f 211 256 257
f 211 257 248
f 212 252 251
f 212 251 258
f 212 258 259
f 212 259 213
f 213 259 260
f 213 260 261
f 213 261 262
f 213 262 214
f 214 262 216
f 214 216 215
f 216 262 261
f 216 261 263
f 216 263 264
f 216 264 265
f 216 265 266
f 216 266 217
f 220 222 268
f 220 268 267
f 225 246 269
f 225 269 270
f 225 270 226
f 226 270 227
f 227 270 271
f 227 271 272
f 227 272 273
f 227 273 228
f 228 273 254
f 228 254 253
f 229 274 230
f 229 236 275
f 229 275 274
f 230 274 276
f 230 276 277
f 230 277 231
f 231 277 278
f 231 278 237
f 233 279 280
f 233 280 235
f 233 235 234
f 233 239 281
f 233 281 279
f 235 282 283
f 235 283 284
f 235 284 275
f 235 275 236
f 235 280 282
f 237 278 240
f 238 281 239
f 240 278 285
f 240 285 241
f 241 286 244
f 241 244 242
f 241 285 286
f 243 244 287
f 243 287 247
f 244 286 288
f 244 288 287
f 245 247 289
f 245 289 246
f 246 289 269
f 247 287 290
f 247 290 289
f 248 257 249
f 249 257 250
f 250 257 291
f 250 291 251
f 251 291 292
f 251 292 258
f 254 273 255
f 255 273 272
f 255 272 271
f 255 271 293
f 255 293 256
f 256 293 294
f 256 294 295
f 256 295 296
f 256 296 257
f 257 296 291
f 258 297 259
f 258 292 298
f 258 298 297
f 259 264 260
f 259 297 299
f 260 264 263
f 260 263 261
f 267 268 301
f 267 301 300
f 269 302 270
f 269 289 303
f 269 303 302
f 270 302 304
f 270 304 305
f 270 305 306
f 270 306 293
f 270 293 271
f 274 307 308
f 274 308 276
f 274 275 309
f 274 309 307
f 275 284 310
f 275 310 311
f 275 311 312
f 275 312 309
f 276 308 313
f 276 313 314
f 276 314 278
f 276 278 277
f 278 314 315
f 278 315 285
f 280 283 282
f 283 316 284
f 284 316 310
f 285 315 286
f 286 317 288
f 286 315 318
f 286 318 317
f 287 288 317
f 287 317 319
f 287 319 320
f 287 320 290
f 289 290 320
f 289 320 321
f 289 321 303
f 291 296 295
f 291 295 322
f 291 322 323
f 291 323 292
f 292 323 324
f 292 324 298
f 293 306 294
f 294 306 325
f 294 325 322
f 294 322 295
f 297 298 299
f 298 324 326
f 298 326 299
f 299 326 327
f 300 301 328
f 300 328 329
f 302 303 304
f 303 330 331
f 303 331 304
f 303 321 330
f 304 332 333
f 304 333 334
f 304 334 305
f 304 331 332
f 305 334 335
f 305 335 336
f 305 336 306
f 306 336 325
f 307 309 337
f 307 337 308
f 308 337 338
f 308 338 313
f 309 312 337
f 310 316 339
f 310 339 340
f 310 340 341
f 310 341 311
f 311 337 312
f 311 341 337
f 313 342 343
f 313 343 344
f 313 344 317
f 313 317 318
f 313 318 315
f 313 315 314
f 313 338 345
f 313 345 342
f 317 346 347
f 317 347 319
f 317 344 348
f 317 348 349
f 317 349 346
f 319 347 350
f 319 350 351
f 319 351 320
f 320 351 321
f 321 351 350
f 321 350 352
f 321 352 353
f 321 353 330
f 322 325 336
f 322 336 323
f 323 336 354
f 323 354 355
f 323 355 356
f 323 356 324
f 324 356 357
f 324 357 326
f 326 357 327
f 327 357 358
f 328 359 329
f 329 359 360
f 330 353 331
f 331 353 361
f 331 361 362
f 331 362 332
f 332 362 333
f 333 362 363
f 333 363 364
f 333 364 365
f 333 365 335
f 333 335 366
f 333 366 334
f 334 366 335
f 335 365 367
f 335 367 368
f 335 368 369
f 335 369 370
f 335 370 355
f 335 355 354
f 335 354 336
f 337 341 340
f 337 340 371
f 337 371 372
f 337 372 373
f 337 373 374
f 337 374 375
f 337 375 376
f 337 376 338
f 338 376 345
f 339 377 340
f 340 377 378
f 340 378 379
f 340 379 380
f 340 380 381
f 340 381 412
f 340 412 382
f 340 382 383
f 340 383 371
f 342 345 376
f 342 376 343
f 343 376 384
f 343 384 385
f 343 385 386
f 343 386 349
f 343 349 348
f 343 348 344
f 346 349 347
f 347 349 350
f 349 386 387
f 349 387 388
f 349 388 389
f 349 389 350
f 350 390 391
f 350 391 352
f 350 389 392
f 350 392 390
f 352 391 353
f 353 391 361
f 355 370 393
f 355 393 394
f 355 394 395
f 355 395 356
f 356 395 357
f 357 395 394
f 357 394 393
f 357 393 396
f 357 396 358
f 359 397 398
f 359 398 399
f 359 399 360
f 361 391 400
f 361 400 362
f 362 400 401
f 362 401 363
f 363 402 403
f 363 403 404
f 363 404 364
f 363 401 402
f 364 404 367
f 364 367 365
f 367 404 368
f 368 405 396
f 368 396 369
f 368 404 405
f 369 396 393
f 369 393 370
f 371 383 372
f 372 382 373
f 372 383 382
f 373 382 406
f 373 406 374
f 374 406 375
f 375 407 408
f 375 408 376
f 375 406 407
f 376 408 385
f 376 385 384
f 377 379 378
f 380 409 410
f 380 410 381
f 381 410 411
f 381 411 412
f 382 412 435
f 382 435 413
f 382 413 407
f 382 407 406
f 385 414 415
f 385 415 416
f 385 416 417
f 385 417 388
f 385 388 387
f 385 387 386
f 385 408 414
f 388 418 390
f 388 390 392
f 388 392 389
f 388 417 418
f 390 419 391
f 390 418 419
f 391 419 400
f 397 420 421
f 397 421 422
f 397 422 423
f 397 423 424
f 397 424 425
f 397 425 398
f 400 426 401
f 400 419 426
f 401 426 427
f 401 427 403
f 401 403 402
f 403 427 428
f 403 428 429
f 403 429 404
f 404 429 405
f 407 413 430
f 407 430 431
f 407 431 414
f 407 414 408
f 409 432 433
f 409 433 410
f 410 433 411
f 411 433 412
f 412 433 434
f 412 434 435
f 413 435 436
f 413 436 430
f 414 431 437
f 414 437 415
f 415 438 416
f 415 437 438
f 416 438 439
f 416 439 417
f 417 439 418
f 418 439 440
f 418 440 441
f 418 441 442
f 418 442 419
f 419 442 426
f 420 443 444
f 420 444 445
f 420 445 446
f 420 446 421
f 426 447 427
f 426 442 448
f 426 448 447
f 427 449 450
f 427 450 428
f 427 447 451
f 427 451 452
f 427 452 449
f 430 436 453
f 430 453 454
f 430 454 455
f 430 455 438
f 430 438 437
f 430 437 431
f 432 456 457
f 432 457 433
f 432 458 459
f 432 459 460
f 432 460 461
f 432 461 456
f 433 457 456
f 433 456 434
f 434 456 462
f 434 462 463
f 434 463 435
f 435 463 464
f 435 464 465
f 435 465 436
f 436 465 466
f 436 466 453
f 438 455 467
f 438 467 468
f 438 468 469
f 438 469 470
f 438 470 440
f 438 440 439
f 440 470 441
f 441 470 471
f 441 471 472
f 441 472 448
f 441 448 442
f 443 473 474
f 443 474 475
f 443 475 444
f 447 448 451
f 448 472 451
f 451 472 471
f 454 467 455
f 456 461 462
f 458 476 477
f 458 477 478
f 458 478 459
f 460 462 461
f 462 479 463
f 463 479 464
f 469 471 470
f 473 480 481
f 473 481 474
f 476 482 477
f 477 483 484
f 477 484 478
f 477 482 483
f 480 485 486
f 480 486 481
f 482 487 483
f 483 487 489
f 483 489 488
f 485 490 491
f 485 491 486
f 488 489 492
f 489 493 492
f 490 494 491
f 491 494 495
f 492 493 496
f 493 497 498
f 493 498 496
f 494 499 500
f 494 500 495
f 497 501 498
f 498 501 502
f 499 503 500
f 500 503 504
f 501 505 506
f 501 506 507
f 501 507 502
f 503 508 509
f 503 509 504
f 505 509 510
f 505 510 506
f 508 511 509
f 509 511 512
f 509 512 510
