v -0.178182 -0.511549 0.495493
v -0.170592 -0.511549 0.496064
v -0.178182 -0.511549 0.600514
v -0.178182 0.556953 0.51645
v -0.0252604 -0.511549 0.533653
v -0.0252604 0.556953 0.552195
v -0.176251 -0.511549 0.601085
v -0.178182 0.556953 0.600514
v -0.178182 0.567116 0.517033
v -0.0252604 0.569411 0.552858
v -0.0252604 -0.511549 0.630994
v -0.17167 -0.511549 0.602424
v -0.176251 0.556953 0.601085
v -0.178182 0.562308 0.600395
v -0.178182 0.569411 0.517179
v -0.0252604 0.575968 0.554729
v -0.0438086 -0.511549 0.630596
v -0.0252604 0.556953 0.630994
v -0.0894531 -0.511549 0.626352
v -0.0894531 0.556953 0.626352
v -0.175907 0.565149 0.600979
v -0.178182 0.567226 0.60009
v -0.178182 0.581214 0.520734
v -0.0252604 0.581979 0.556453
v -0.0609646 -0.511549 0.630225
v -0.0438086 0.556953 0.630596
v -0.0252604 0.562963 0.630676
v -0.0312934 0.569411 0.630212
v -0.0563388 0.569411 0.629681
v -0.068854 0.569411 0.629416
v -0.0843632 -0.511549 0.627639
v -0.0813691 0.556953 0.628395
v -0.0888393 0.566679 0.626166
v -0.0873423 0.574985 0.625742
v -0.169739 0.569411 0.602332
v -0.17444 0.573455 0.600541
v -0.178182 0.571051 0.599692
v -0.178182 0.585367 0.5234
v -0.0252604 0.590504 0.561321
v -0.068854 -0.511549 0.630052
v -0.068854 0.556953 0.630052
v -0.0252604 0.569411 0.630331
v -0.068854 0.579247 0.627294
v -0.0789889 0.577936 0.626763
v -0.082447 0.570286 0.627413
v -0.0813691 -0.511549 0.628395
v -0.0734798 -0.511549 0.629442
v -0.082447 0.582089 0.623898
v -0.126729 0.576843 0.613752
v -0.166086 0.577936 0.601761
v -0.178182 0.581979 0.596137
v -0.178182 0.588318 0.52535
v -0.178182 0.594657 0.532127
v -0.0252604 0.593782 0.565008
v -0.0252604 0.580231 0.627745
v -0.0438086 0.579794 0.627559
v -0.0563388 0.585804 0.624535
v -0.068854 0.585477 0.624402
v -0.0813691 0.592252 0.617227
v -0.0938843 0.590613 0.615449
v -0.103076 0.589192 0.614123
v -0.11143 0.587553 0.612942
v -0.1189 0.585477 0.611855
v -0.15914 0.586241 0.599745
v -0.169739 0.582089 0.598658
v -0.178182 0.590832 0.590673
v -0.178182 0.599247 0.537817
v -0.0252604 0.596733 0.56843
v -0.0252604 0.58646 0.624866
v -0.0312934 0.586351 0.6248
v -0.068854 0.593127 0.618142
v -0.1189 0.592908 0.605594
v -0.131415 0.591378 0.603751
v -0.068854 0.599356 0.61082
v -0.0813691 0.598482 0.609733
v -0.109409 0.60023 0.599692
v -0.14393 0.58952 0.60192
v -0.150802 0.588427 0.600952
v -0.168961 0.592034 0.592039
v -0.178182 0.597061 0.583298
v -0.178182 0.60023 0.539144
v -0.177539 0.60023 0.539276
v -0.0252604 0.599137 0.571666
v -0.0252604 0.593564 0.618606
v -0.0252604 0.599793 0.61147
v -0.0563388 0.599465 0.611059
v -0.1489 0.600558 0.587848
v -0.068854 0.602416 0.60456
v -0.0813691 0.601979 0.603486
v -0.10107 0.600886 0.601005
v -0.168961 0.598372 0.584479
v -0.178182 0.601432 0.577038
v -0.178182 0.602416 0.544741
v -0.0252604 0.601323 0.57469
v -0.0252604 0.602635 0.60521
v -0.0563388 0.602525 0.604799
v -0.156445 0.599793 0.586508
v -0.068854 0.604711 0.594519
v -0.0813691 0.604383 0.594519
v -0.0938843 0.603509 0.594519
v -0.1189 0.602307 0.59184
v -0.0938843 0.601323 0.601841
v -0.156445 0.602525 0.580248
v -0.178182 0.603618 0.569491
v -0.178182 0.60482 0.556983
v -0.168961 0.604602 0.556983
v -0.0252604 0.603618 0.582012
v -0.0252604 0.602525 0.57851
v -0.0252604 0.60482 0.594519
v -0.0563388 0.60482 0.594519
v -0.106385 0.60482 0.582012
v -0.156445 0.60482 0.569491
v -0.1189 0.604602 0.582012
v -0.168961 0.604274 0.569491
v -0.131415 0.603946 0.582012
v -0.14393 0.60493 0.569491
f 1 2 5
f 1 5 11
f 1 11 17
f 1 17 25
f 1 25 40
f 1 40 47
f 1 47 46
f 1 46 31
f 1 31 19
f 1 19 12
f 1 12 7
f 1 7 3
f 1 3 8
f 1 8 14
f 1 14 22
f 1 22 37
f 1 37 51
f 1 51 66
f 1 66 80
f 1 80 92
f 1 92 104
f 1 104 105
f 1 105 93
f 1 93 81
f 1 81 67
f 1 67 53
f 1 53 52
f 1 52 38
f 1 38 23
f 1 23 15
f 1 15 9
f 1 9 4
f 1 4 2
f 2 4 6
f 2 6 5
f 3 7 13
f 3 13 8
f 4 9 10
f 4 10 6
f 5 6 10
f 5 10 16
f 5 16 24
f 5 24 39
f 5 39 54
f 5 54 68
f 5 68 83
f 5 83 94
f 5 94 108
f 5 108 107
f 5 107 109
f 5 109 95
f 5 95 85
f 5 85 84
f 5 84 69
f 5 69 55
f 5 55 42
f 5 42 27
f 5 27 18
f 5 18 11
f 7 12 13
f 8 13 14
f 9 15 10
f 10 15 16
f 11 18 26
f 11 26 17
f 12 19 20
f 12 20 13
f 13 20 14
f 14 20 21
f 14 21 22
f 15 23 24
f 15 24 16
f 17 26 25
f 18 27 28
f 18 28 29
f 18 29 30
f 18 30 26
f 19 31 20
f 20 32 33
f 20 33 21
f 20 31 32
f 21 33 34
f 21 34 35
f 21 35 36
f 21 36 37
f 21 37 22
f 23 38 39
f 23 39 24
f 25 26 41
f 25 41 40
f 26 30 41
f 27 42 28
f 28 42 43
f 28 43 29
f 29 43 30
f 30 43 44
f 30 44 45
f 30 45 32
f 30 32 41
f 31 46 32
f 32 45 33
f 32 46 47
f 32 47 41
f 33 45 34
f 34 45 44
f 34 44 48
f 34 48 49
f 34 49 36
f 34 36 35
f 36 49 50
f 36 50 51
f 36 51 37
f 38 52 39
f 39 52 53
f 39 53 54
f 40 41 47
f 42 55 56
f 42 56 43
f 43 56 55
f 43 55 57
f 43 57 58
f 43 58 44
f 44 58 48
f 48 58 59
f 48 59 60
f 48 60 61
f 48 61 62
f 48 62 63
f 48 63 49
f 49 63 50
f 50 63 64
f 50 64 65
f 50 65 51
f 51 65 64
f 51 64 66
f 53 67 68
f 53 68 54
f 55 69 70
f 55 70 57
f 57 70 71
f 57 71 58
f 58 71 59
f 59 72 73
f 59 73 60
f 59 71 74
f 59 74 75
f 59 75 76
f 59 76 72
f 60 77 61
f 60 73 66
f 60 66 77
f 61 77 78
f 61 78 62
f 62 64 63
f 62 78 64
f 64 78 66
f 66 78 77
f 66 73 79
f 66 79 80
f 67 81 82
f 67 82 68
f 68 82 83
f 69 84 71
f 69 71 70
f 71 84 85
f 71 85 86
f 71 86 74
f 72 76 87
f 72 87 73
f 73 87 79
f 74 86 96
f 74 96 88
f 74 88 89
f 74 89 75
f 75 89 90
f 75 90 76
f 76 90 87
f 79 87 80
f 80 87 91
f 80 91 92
f 81 93 82
f 82 94 83
f 82 93 94
f 85 95 96
f 85 96 86
f 87 90 92
f 87 92 97
f 87 97 91
f 88 96 98
f 88 98 99
f 88 99 89
f 89 99 100
f 89 100 101
f 89 101 102
f 89 102 90
f 90 102 101
f 90 101 92
f 91 97 92
f 92 101 103
f 92 103 104
f 93 105 106
f 93 106 107
f 93 107 108
f 93 108 94
f 95 109 110
f 95 110 96
f 96 110 98
f 98 110 111
f 98 111 112
f 98 112 113
f 98 113 99
f 99 113 114
f 99 114 115
f 99 115 100
f 100 103 101
f 100 115 103
f 103 115 104
f 104 115 114
f 104 114 105
f 105 114 112
f 105 112 116
f 105 116 109
f 105 109 107
f 105 107 106
f 109 116 110
f 110 116 111
f 111 116 112
f 112 114 113
