v -0.427592 -0.511549 0.397356
v -0.306727 -0.511549 0.397356
v -0.42703 -0.511549 0.39839
v -0.427592 0.556917 0.397356
v -0.298012 -0.511549 0.398132
v -0.330846 0.556917 0.397356
v -0.418315 -0.511549 0.414241
v -0.415996 0.556917 0.418457
v -0.427543 0.560305 0.397356
v -0.185204 -0.511549 0.485597
v -0.331506 0.566098 0.397356
v -0.178197 0.556917 0.516422
v -0.415996 -0.511549 0.418457
v -0.412505 0.556917 0.424721
v -0.425639 0.564021 0.400717
v -0.427152 0.566863 0.397356
v -0.178197 -0.511549 0.495501
v -0.33175 0.569486 0.397356
v -0.178197 0.569486 0.517158
v -0.412505 -0.511549 0.424721
v -0.406451 0.556917 0.431821
v -0.400665 0.56424 0.438245
v -0.404864 0.56883 0.432796
v -0.41209 0.569486 0.424045
v -0.41563 0.569486 0.4178
v -0.408697 -0.511549 0.429196
v -0.422392 0.568721 0.405649
v -0.425151 0.572437 0.399842
v -0.426737 0.57047 0.397356
v -0.178197 -0.511549 0.600507
v -0.336656 0.581946 0.397356
v -0.178197 0.58118 0.520718
v -0.400738 0.556917 0.438304
v -0.406451 -0.511549 0.431821
v -0.402862 -0.511549 0.435918
v -0.376229 0.556917 0.4639
v -0.351719 0.556917 0.489475
v -0.327209 0.556917 0.51503
v -0.32677 0.569486 0.514573
v -0.375984 0.566863 0.463641
v -0.375399 0.575169 0.463044
v -0.400079 0.572656 0.437628
v -0.403546 0.581946 0.429037
v -0.414507 0.578667 0.415772
v -0.424321 0.577902 0.397356
v -0.178588 -0.511549 0.600407
v -0.178197 0.556917 0.600507
v -0.342418 0.589596 0.397356
v -0.178197 0.588394 0.525332
v -0.400738 -0.511549 0.438304
v -0.396954 -0.511549 0.442262
v -0.390803 -0.511549 0.448686
v -0.376229 -0.511549 0.4639
v -0.351719 -0.511549 0.489475
v -0.320349 0.556917 0.521275
v -0.327209 -0.511549 0.51503
v -0.322888 -0.511549 0.518968
v -0.319837 0.569486 0.520837
v -0.326037 0.576809 0.513817
v -0.350718 0.576262 0.488441
v -0.36307 0.575934 0.475733
v -0.357553 0.569486 0.482494
v -0.397833 0.581946 0.435282
v -0.4013 0.58894 0.426471
v -0.410039 0.582492 0.41969
v -0.41231 0.587082 0.411755
v -0.422368 0.58282 0.397356
v -0.18679 -0.511549 0.598021
v -0.182543 0.556917 0.599254
v -0.178197 0.562272 0.600387
v -0.345127 0.591454 0.397356
v -0.178197 0.594733 0.532114
v -0.314075 0.556917 0.526505
v -0.313563 0.569486 0.526147
v -0.320349 -0.511549 0.521275
v -0.316394 -0.511549 0.524576
v -0.313001 0.575825 0.52575
v -0.318176 0.580525 0.51859
v -0.323327 0.585115 0.510993
v -0.33568 0.584897 0.498325
v -0.389021 0.589159 0.43916
v -0.393634 0.591345 0.431105
v -0.39422 0.597684 0.41967
v -0.403692 0.591126 0.419312
v -0.41458 0.589815 0.403422
v -0.421123 0.584787 0.397356
v -0.194016 -0.511549 0.595913
v -0.194016 0.556917 0.595913
v -0.178197 0.567191 0.600089
v -0.194016 0.569486 0.595217
v -0.355356 0.59823 0.397356
v -0.178197 0.600307 0.539114
v -0.30663 0.556917 0.531139
v -0.314075 -0.511549 0.526505
v -0.309388 -0.511549 0.529429
v -0.30663 0.569486 0.530383
v -0.290835 0.569486 0.539989
v -0.251434 0.569486 0.563894
v -0.250677 0.576153 0.563436
v -0.289468 0.577683 0.539154
v -0.285708 0.585989 0.536887
v -0.309266 0.584241 0.523363
v -0.315003 0.589924 0.51501
v -0.327331 0.589815 0.50266
v -0.339684 0.589705 0.489972
v -0.331579 0.592438 0.494248
v -0.344981 0.598777 0.470283
v -0.382136 0.598121 0.432318
v -0.386555 0.600198 0.424065
v -0.398395 0.599651 0.409726
v -0.406622 0.594733 0.406564
v -0.41624 0.591236 0.397356
v -0.198581 -0.511549 0.594162
v -0.205636 0.569486 0.590841
v -0.20632 0.556917 0.591179
v -0.178197 0.571016 0.599691
v -0.203391 0.578995 0.589747
v -0.36019 0.600526 0.397356
v -0.361117 0.6014 0.398251
v -0.362802 0.601619 0.397356
v -0.178197 0.602493 0.544722
v -0.297695 0.556917 0.536568
v -0.30663 -0.511549 0.531139
v -0.301015 -0.511549 0.53456
v -0.228584 0.569486 0.577716
v -0.281631 0.556917 0.546313
v -0.229194 0.556917 0.578093
v -0.219039 0.556917 0.584239
v -0.219039 0.569486 0.583483
v -0.211886 0.569486 0.587779
v -0.227095 0.577902 0.576821
v -0.22336 0.586208 0.574553
v -0.262151 0.58752 0.550291
v -0.300941 0.588613 0.525988
v -0.305702 0.591673 0.519286
v -0.29894 0.600307 0.512246
v -0.307801 0.598996 0.507612
v -0.312757 0.600635 0.500493
v -0.319153 0.592656 0.506856
v -0.320203 0.599105 0.49556
v -0.325085 0.600635 0.487804
v -0.361972 0.600416 0.449561
v -0.374276 0.600307 0.436813
v -0.378206 0.601619 0.42848
v -0.390046 0.601619 0.415732
v -0.400934 0.600963 0.401373
v -0.405523 0.599433 0.397356
v -0.408428 0.597356 0.397356
v -0.20632 -0.511549 0.591179
v -0.21257 0.556917 0.588137
v -0.208639 -0.511549 0.590066
v -0.178197 0.581946 0.596131
v -0.194212 0.582711 0.591179
v -0.198533 0.587301 0.587719
v -0.20715 0.582711 0.585869
v -0.368905 0.603149 0.397356
v -0.178197 0.604788 0.556973
v -0.281631 -0.511549 0.546313
v -0.222798 -0.511549 0.581971
v -0.214962 -0.511549 0.586705
v -0.219136 0.582055 0.579326
v -0.215011 0.589487 0.577059
v -0.238568 0.588722 0.563655
v -0.253802 0.590252 0.552797
v -0.294155 0.590471 0.528057
v -0.244086 0.598886 0.547566
v -0.236615 0.600416 0.549953
v -0.275504 0.600744 0.52575
v -0.290591 0.6014 0.514533
v -0.304408 0.601837 0.503893
v -0.294521 0.597247 0.518988
v -0.316736 0.601837 0.49216
v -0.32904 0.601837 0.479452
v -0.353623 0.601728 0.453976
v -0.357358 0.602821 0.444967
v -0.382136 0.602602 0.41967
v -0.381746 0.60457 0.406803
v -0.394245 0.603477 0.397356
v -0.39422 0.602165 0.406047
v -0.401983 0.6014 0.397356
v -0.21257 -0.511549 0.588137
v -0.178197 0.590798 0.590682
v -0.181493 0.590361 0.590185
v -0.190184 0.58905 0.588932
v -0.193333 0.594514 0.581792
v -0.20654 0.591673 0.579466
v -0.381746 0.604788 0.397356
v -0.181493 0.604897 0.556973
v -0.178197 0.603586 0.569482
v -0.231562 0.59058 0.565783
v -0.24328 0.592001 0.556973
v -0.269108 0.591564 0.541898
v -0.20654 0.598012 0.571451
v -0.213058 0.600854 0.563397
v -0.269108 0.601509 0.52746
v -0.28046 0.601947 0.518988
v -0.294521 0.602712 0.507612
v -0.307801 0.603039 0.49556
v -0.332604 0.60293 0.470283
v -0.356699 0.604788 0.431821
v -0.178197 0.597028 0.583304
v -0.181493 0.596591 0.582886
v -0.188157 0.600854 0.575866
v -0.196506 0.59987 0.574016
v -0.319153 0.604897 0.469369
v -0.269108 0.605007 0.506896
v -0.20654 0.604897 0.544464
v -0.194016 0.604788 0.556973
v -0.181493 0.603367 0.569482
v -0.178197 0.6014 0.577039
v -0.20654 0.601509 0.565186
v -0.256145 0.602384 0.532074
v -0.20654 0.603695 0.556973
v -0.269108 0.603586 0.519425
v -0.281631 0.60446 0.506896
v -0.294155 0.604897 0.494407
v -0.192991 0.602165 0.569701
v -0.219039 0.60446 0.544464
v -0.244086 0.604132 0.531935
f 1 2 5
f 1 5 10
f 1 10 17
f 1 17 30
f 1 30 46
f 1 46 68
f 1 68 87
f 1 87 113
f 1 113 149
f 1 149 151
f 1 151 181
f 1 181 160
f 1 160 159
f 1 159 158
f 1 158 124
f 1 124 123
f 1 123 95
f 1 95 94
f 1 94 76
f 1 76 75
f 1 75 57
f 1 57 56
f 1 56 54
f 1 54 53
f 1 53 52
f 1 52 51
f 1 51 50
f 1 50 35
f 1 35 34
f 1 34 26
f 1 26 20
f 1 20 13
f 1 13 7
f 1 7 3
f 1 3 4
f 1 4 9
f 1 9 16
f 1 16 29
f 1 29 45
f 1 45 67
f 1 67 86
f 1 86 112
f 1 112 148
f 1 148 147
f 1 147 180
f 1 180 178
f 1 178 187
f 1 187 156
f 1 156 120
f 1 120 118
f 1 118 91
f 1 91 71
f 1 71 48
f 1 48 31
f 1 31 18
f 1 18 11
f 1 11 6
f 1 6 2
f 2 6 5
f 3 7 8
f 3 8 4
f 4 8 9
f 5 6 10
f 6 11 12
f 6 12 10
f 7 13 8
f 8 14 15
f 8 15 9
f 8 13 20
f 8 20 14
f 9 15 16
f 10 12 17
f 11 18 12
f 12 18 19
f 12 19 32
f 12 32 49
f 12 49 72
f 12 72 92
f 12 92 121
f 12 121 157
f 12 157 189
f 12 189 210
f 12 210 201
f 12 201 182
f 12 182 152
f 12 152 116
f 12 116 89
f 12 89 70
f 12 70 47
f 12 47 30
f 12 30 17
f 14 21 22
f 14 22 23
f 14 23 24
f 14 24 25
f 14 25 15
f 14 20 26
f 14 26 21
f 15 25 27
f 15 27 28
f 15 28 16
f 16 28 29
f 18 31 32
f 18 32 19
f 21 33 22
f 21 26 34
f 21 34 35
f 21 35 33
f 22 33 36
f 22 36 37
f 22 37 38
f 22 38 39
f 22 39 40
f 22 40 41
f 22 41 42
f 22 42 23
f 23 42 24
f 24 42 43
f 24 43 44
f 24 44 28
f 24 28 25
f 25 28 27
f 28 44 45
f 28 45 29
f 30 47 46
f 31 48 32
f 32 48 49
f 33 35 50
f 33 50 51
f 33 51 36
f 36 51 52
f 36 52 53
f 36 53 54
f 36 54 37
f 37 54 56
f 37 56 38
f 38 55 39
f 38 56 57
f 38 57 55
f 39 58 59
f 39 59 60
f 39 60 61
f 39 61 41
f 39 41 62
f 39 62 40
f 39 55 58
f 40 62 41
f 41 61 63
f 41 63 42
f 42 63 43
f 43 63 64
f 43 64 65
f 43 65 44
f 44 65 66
f 44 66 67
f 44 67 45
f 46 47 69
f 46 69 68
f 47 70 69
f 48 71 72
f 48 72 49
f 55 73 74
f 55 74 58
f 55 57 75
f 55 75 76
f 55 76 73
f 58 74 77
f 58 77 59
f 59 77 78
f 59 78 79
f 59 79 80
f 59 80 60
f 60 80 63
f 60 63 61
f 63 80 64
f 64 81 82
f 64 82 83
f 64 83 84
f 64 84 66
f 64 66 65
f 64 80 81
f 66 84 85
f 66 85 86
f 66 86 67
f 68 69 88
f 68 88 87
f 69 70 88
f 70 89 90
f 70 90 88
f 71 91 72
f 72 91 92
f 73 93 74
f 73 76 94
f 73 94 95
f 73 95 93
f 74 96 77
f 74 93 96
f 77 96 97
f 77 97 98
f 77 98 99
f 77 99 100
f 77 100 101
f 77 101 102
f 77 102 78
f 78 102 103
f 78 103 79
f 79 103 104
f 79 104 105
f 79 105 81
f 79 81 80
f 81 105 82
f 82 105 106
f 82 106 107
f 82 107 108
f 82 108 109
f 82 109 83
f 83 109 110
f 83 110 84
f 84 110 111
f 84 111 85
f 85 111 112
f 85 112 86
f 87 88 113
f 88 90 114
f 88 114 115
f 88 115 113
f 89 116 90
f 90 116 117
f 90 117 114
f 91 118 92
f 92 118 119
f 92 119 120
f 92 120 121
f 93 122 97
f 93 97 96
f 93 95 123
f 93 123 124
f 93 124 122
f 97 122 98
f 98 125 99
f 98 122 126
f 98 126 127
f 98 127 128
f 98 128 125
f 99 125 129
f 99 129 130
f 99 130 131
f 99 131 100
f 100 131 132
f 100 132 101
f 101 132 133
f 101 133 134
f 101 134 102
f 102 134 103
f 103 134 135
f 103 135 136
f 103 136 137
f 103 137 138
f 103 138 139
f 103 139 104
f 104 139 105
f 105 139 106
f 106 139 107
f 107 139 140
f 107 140 141
f 107 141 142
f 107 142 143
f 107 143 108
f 108 143 109
f 109 143 144
f 109 144 145
f 109 145 110
f 110 145 146
f 110 146 147
f 110 147 148
f 110 148 111
f 111 148 112
f 113 115 149
f 114 117 130
f 114 130 150
f 114 150 115
f 115 150 151
f 115 151 149
f 116 152 117
f 117 131 130
f 117 152 153
f 117 153 154
f 117 154 155
f 117 155 131
f 118 120 119
f 120 156 121
f 121 156 157
f 122 124 126
f 124 158 126
f 125 128 129
f 126 158 159
f 126 159 127
f 127 159 128
f 128 150 129
f 128 159 160
f 128 160 150
f 129 150 130
f 131 155 161
f 131 161 132
f 132 161 155
f 132 155 154
f 132 154 162
f 132 162 163
f 132 163 133
f 133 163 134
f 134 163 164
f 134 164 165
f 134 165 135
f 135 165 136
f 136 166 167
f 136 167 168
f 136 168 169
f 136 169 170
f 136 170 138
f 136 138 137
f 136 165 171
f 136 171 166
f 138 141 140
f 138 140 139
f 138 170 172
f 138 172 141
f 141 172 173
f 141 173 174
f 141 174 144
f 141 144 142
f 142 144 143
f 144 174 175
f 144 175 176
f 144 176 145
f 145 176 177
f 145 177 178
f 145 178 179
f 145 179 146
f 146 179 180
f 146 180 147
f 150 160 181
f 150 181 151
f 152 182 183
f 152 183 184
f 152 184 154
f 152 154 153
f 154 184 185
f 154 185 186
f 154 186 162
f 156 187 157
f 157 187 188
f 157 188 189
f 162 190 164
f 162 164 163
f 162 186 190
f 164 190 191
f 164 191 192
f 164 192 165
f 165 192 171
f 166 171 192
f 166 192 193
f 166 193 167
f 167 194 168
f 167 193 194
f 168 194 195
f 168 195 169
f 169 195 196
f 169 196 197
f 169 197 170
f 170 197 198
f 170 198 172
f 172 198 173
f 173 198 199
f 173 199 175
f 173 175 174
f 175 199 200
f 175 200 177
f 175 177 176
f 177 200 187
f 177 187 178
f 178 180 179
f 182 201 202
f 182 202 185
f 182 185 183
f 183 185 184
f 185 202 203
f 185 203 204
f 185 204 186
f 186 204 193
f 186 193 191
f 186 191 190
f 187 200 205
f 187 205 206
f 187 206 188
f 188 206 207
f 188 207 208
f 188 208 189
f 189 208 209
f 189 209 210
f 191 193 192
f 193 204 194
f 194 204 211
f 194 211 195
f 195 211 212
f 195 212 196
f 196 212 197
f 197 212 213
f 197 213 214
f 197 214 215
f 197 215 198
f 198 215 216
f 198 216 205
f 198 205 200
f 198 200 199
f 201 210 203
f 201 203 202
f 203 210 209
f 203 209 217
f 203 217 211
f 203 211 204
f 205 216 206
f 206 216 208
f 206 208 207
f 208 216 215
f 208 215 218
f 208 218 213
f 208 213 209
f 209 213 217
f 211 217 213
f 211 213 212
f 213 218 219
f 213 219 214
f 214 219 215
f 215 219 218
