v 0.148636 -0.511549 0.509215
v 0.148636 -0.446955 0.528567
v 0.148636 -0.511549 0.609932
v 0.143938 -0.511549 0.509782
v 0.148636 -0.446955 0.609932
v -0.0252433 -0.446955 0.552202
v 0.143938 -0.511549 0.61109
v -0.0252433 -0.511549 0.533659
v 0.143938 -0.446955 0.61109
v -0.0252433 -0.446955 0.630985
v 0.0938712 -0.511549 0.623372
v -0.0252433 -0.511549 0.630985
v 0.0938712 -0.446955 0.623372
v -0.0234048 -0.511549 0.631033
v -0.0187743 -0.446955 0.63113
v 0.0794862 -0.511549 0.626895
v 0.0794862 -0.446955 0.626895
v -0.0211747 -0.511549 0.631081
v 0.0161582 -0.446955 0.631878
v 0.0688294 -0.511549 0.629501
v 0.0688294 -0.446955 0.629501
v 0.0438216 -0.511549 0.632469
v 0.0438216 -0.446955 0.632469
v 0.056334 -0.511549 0.631817
v 0.056334 -0.446955 0.631817
v 0.0517036 -0.511549 0.632059
f 1 2 5
f 1 5 3
f 1 3 7
f 1 7 11
f 1 11 16
f 1 16 20
f 1 20 24
f 1 24 26
f 1 26 22
f 1 22 18
f 1 18 14
f 1 14 12
f 1 12 8
f 1 8 4
f 1 4 2
f 2 4 6
f 2 6 10
f 2 10 15
f 2 15 19
f 2 19 23
f 2 23 25
f 2 25 21
f 2 21 17
f 2 17 13
f 2 13 9
f 2 9 5
f 3 5 9
f 3 9 7
f 4 8 6
f 6 8 12
f 6 12 10
f 7 9 13
f 7 13 11
f 10 12 14
f 10 14 15
f 11 13 17
f 11 17 16
f 14 18 15
f 15 18 19
f 16 17 21
f 16 21 20
f 18 22 23
f 18 23 19
f 20 21 25
f 20 25 24
f 22 26 23
f 23 26 25
f 24 25 26
