v 0.246756 0.556924 0.567092
v 0.252075 0.556924 0.564184
v 0.27579 0.56523 0.550925
v 0.246756 0.561514 0.566846
v 0.246756 -0.511439 0.567092
v 0.249108 -0.511439 0.56581
v 0.293637 0.556924 0.541363
v 0.252075 -0.511439 0.564184
v 0.299902 0.556924 0.537863
v 0.299242 0.569493 0.537444
v 0.292978 0.569493 0.540969
v 0.274911 0.573537 0.550457
v 0.251437 0.569493 0.563839
v 0.246756 0.569493 0.566377
v 0.246756 -0.511439 0.45661
v 0.293637 -0.511439 0.541363
v 0.297572 -0.511439 0.53917
v 0.306671 0.556924 0.53185
v 0.313089 0.564356 0.525837
v 0.299902 -0.511439 0.537863
v 0.307638 0.568837 0.530174
v 0.312474 0.572662 0.525245
v 0.30388 0.581952 0.528843
v 0.290846 0.578892 0.53981
v 0.250646 0.576051 0.563395
v 0.246756 0.572116 0.566032
v 0.360103 -0.511439 0.319191
v 0.246756 0.556924 0.477089
v 0.313155 0.556924 0.525911
v 0.306671 -0.511439 0.53185
v 0.319419 0.556924 0.519922
v 0.357795 0.556924 0.483152
v 0.377093 0.556924 0.464644
v 0.389884 0.556924 0.452371
v 0.389423 0.569493 0.451952
v 0.325793 0.565667 0.51349
v 0.325178 0.573974 0.512923
v 0.310144 0.581952 0.523003
v 0.301308 0.588947 0.526502
v 0.294671 0.582608 0.535374
v 0.337882 0.575285 0.500576
v 0.286824 0.587308 0.537617
v 0.246756 0.584576 0.561005
v 0.246756 0.578564 0.564184
v 0.363312 -0.511439 0.315346
v 0.246756 0.569056 0.477632
v 0.384104 0.556924 0.315346
v 0.313155 -0.511439 0.525911
v 0.317111 -0.511439 0.52214
v 0.357795 -0.511439 0.483152
v 0.377093 -0.511439 0.464644
v 0.396127 0.556924 0.445298
v 0.389884 -0.511439 0.452371
v 0.393819 -0.511439 0.447935
v 0.396632 0.570476 0.443474
v 0.400478 0.575395 0.438028
v 0.388654 0.576816 0.451213
v 0.350586 0.575941 0.488229
v 0.363861 0.569493 0.476473
v 0.351091 0.569493 0.488722
v 0.38584 0.585231 0.448502
v 0.360432 0.584576 0.473196
v 0.343838 0.58086 0.491507
v 0.314012 0.589166 0.514204
v 0.305968 0.591352 0.518788
v 0.294495 0.5978 0.519454
v 0.294143 0.591243 0.528991
v 0.278494 0.589931 0.539884
v 0.262537 0.587964 0.550531
v 0.254207 0.590259 0.552823
v 0.246756 0.591352 0.555608
v 0.471274 -0.511439 0.315346
v 0.246756 0.570149 0.477952
v 0.386917 0.578346 0.315346
v 0.384829 0.569493 0.315346
v 0.401182 0.556924 0.439063
v 0.400962 0.566979 0.438742
v 0.396127 -0.511439 0.445298
v 0.404039 0.570476 0.433049
v 0.414655 0.569493 0.415724
v 0.438546 0.569493 0.376317
v 0.452393 0.569493 0.353472
v 0.438151 0.575941 0.375652
v 0.413864 0.577471 0.414443
v 0.398698 0.581952 0.435169
v 0.391951 0.581406 0.444337
v 0.363268 0.576269 0.475882
v 0.389797 0.589931 0.440196
v 0.377488 0.589822 0.452519
v 0.364806 0.589712 0.464841
v 0.3312 0.591898 0.493971
v 0.307155 0.598128 0.507304
v 0.298912 0.600205 0.51174
v 0.284758 0.599768 0.523643
v 0.281615 0.594849 0.531899
v 0.269109 0.592117 0.542447
v 0.246756 0.598128 0.547007
v 0.471274 0.556924 0.315346
v 0.470153 -0.511439 0.319191
v 0.246756 0.578346 0.48049
v 0.246756 0.58239 0.482043
v 0.388632 0.581515 0.315346
v 0.405622 0.556924 0.431817
v 0.401182 -0.511439 0.439063
v 0.411226 0.556924 0.4226
v 0.415029 0.556924 0.41634
v 0.428876 0.556924 0.393495
v 0.458745 0.556924 0.344205
v 0.457998 0.569493 0.344205
v 0.451536 0.57769 0.352067
v 0.462438 0.569493 0.336688
v 0.4116 0.585778 0.410697
v 0.40072 0.588401 0.425927
v 0.394083 0.59157 0.430782
v 0.386917 0.600205 0.423857
v 0.382346 0.598893 0.433
v 0.375334 0.600642 0.437929
v 0.381708 0.592663 0.444337
v 0.345135 0.598784 0.47014
v 0.332475 0.598565 0.482536
v 0.324408 0.600423 0.487144
v 0.30333 0.601626 0.503385
v 0.290582 0.601626 0.515289
v 0.276406 0.60097 0.526206
v 0.260449 0.600095 0.536779
v 0.269109 0.598347 0.534388
v 0.246756 0.599658 0.544739
v 0.47057 0.569493 0.315346
v 0.470153 0.556924 0.319191
v 0.465713 -0.511439 0.331143
v 0.246756 0.58851 0.486109
v 0.390302 0.584576 0.315346
v 0.405622 -0.511439 0.431817
v 0.40916 -0.511439 0.426001
v 0.413622 -0.511439 0.418657
v 0.415029 -0.511439 0.41634
v 0.428876 -0.511439 0.393495
v 0.462811 0.556924 0.337403
v 0.458745 -0.511439 0.344205
v 0.464394 0.578564 0.328285
v 0.46046 0.58239 0.332154
v 0.453954 0.581952 0.344181
v 0.449272 0.585996 0.348321
v 0.465383 0.569493 0.330429
v 0.425007 0.587308 0.387136
v 0.438393 0.588619 0.363551
v 0.427513 0.59015 0.378782
v 0.40272 0.590259 0.419322
v 0.416545 0.591461 0.394283
v 0.40716 0.592882 0.40663
v 0.40683 0.598347 0.39554
v 0.393775 0.597035 0.419544
v 0.400522 0.600751 0.400543
v 0.378587 0.601844 0.429599
v 0.362608 0.600642 0.450251
v 0.370389 0.599112 0.445372
v 0.366982 0.601844 0.441897
v 0.3543 0.601844 0.454219
v 0.328826 0.601735 0.478815
v 0.319815 0.602828 0.482536
v 0.294495 0.602609 0.507304
v 0.280999 0.602281 0.519454
v 0.269109 0.601735 0.528129
v 0.252097 0.601188 0.539046
v 0.246756 0.601626 0.54055
v 0.469427 0.573318 0.315346
v 0.469449 0.569493 0.319191
v 0.465713 0.556924 0.331143
v 0.462811 -0.511439 0.337403
v 0.246756 0.590805 0.488229
v 0.395885 0.591461 0.315346
v 0.466746 0.58228 0.315346
v 0.465647 0.58239 0.318969
v 0.462372 0.58698 0.323011
v 0.451778 0.589385 0.339991
v 0.440459 0.590477 0.356725
v 0.443712 0.594303 0.343219
v 0.446129 0.5978 0.331686
v 0.435272 0.599221 0.346448
v 0.424656 0.600314 0.36153
v 0.438151 0.600751 0.338093
v 0.439865 0.601516 0.331686
v 0.392082 0.602172 0.406803
v 0.382346 0.602609 0.419544
v 0.370389 0.603046 0.433
v 0.345135 0.602937 0.457768
v 0.306671 0.604795 0.481871
v 0.281637 0.604577 0.50691
v 0.269109 0.60403 0.519429
v 0.256405 0.6025 0.532343
v 0.246756 0.602063 0.539367
v 0.246756 0.594084 0.492221
v 0.246756 0.595505 0.49402
v 0.398061 0.59321 0.315346
v 0.463471 0.588619 0.315346
v 0.462614 0.589494 0.315346
v 0.457646 0.592991 0.318969
v 0.454064 0.59157 0.331686
v 0.449162 0.600095 0.319191
v 0.44292 0.602391 0.319191
v 0.431799 0.603593 0.331686
v 0.431381 0.601954 0.343047
v 0.45002 0.600423 0.315346
v 0.419996 0.602719 0.357119
v 0.406765 0.60403 0.369244
v 0.38173 0.604358 0.406803
v 0.369224 0.604904 0.419322
v 0.35674 0.604904 0.431817
v 0.344212 0.604904 0.444312
v 0.256603 0.604904 0.519429
v 0.246756 0.604358 0.529262
v 0.246756 0.603812 0.532023
v 0.246756 0.597691 0.497224
v 0.404303 0.59791 0.315346
v 0.459734 0.592117 0.315346
v 0.457163 0.594412 0.315346
v 0.443799 0.6025 0.315346
v 0.436458 0.60403 0.315346
v 0.431799 0.604686 0.319191
v 0.419293 0.604467 0.344205
v 0.406765 0.604904 0.356725
v 0.419293 0.604904 0.331686
v 0.246756 0.604795 0.519429
v 0.246756 0.601735 0.504075
v 0.410831 0.601626 0.315346
v 0.431799 0.604795 0.315346
v 0.423117 0.604358 0.315346
v 0.246756 0.604577 0.516767
v 0.246756 0.602172 0.505456
v 0.412391 0.602172 0.315346
v 0.419051 0.603702 0.315346
v 0.246756 0.6025 0.50686
f 1 2 3
f 1 3 4
f 1 4 14
f 1 14 26
f 1 26 44
f 1 44 43
f 1 43 71
f 1 71 97
f 1 97 127
f 1 127 165
f 1 165 191
f 1 191 212
f 1 212 211
f 1 211 223
f 1 223 228
f 1 228 232
f 1 232 229
f 1 229 224
f 1 224 213
f 1 213 193
f 1 193 192
f 1 192 170
f 1 170 131
f 1 131 101
f 1 101 100
f 1 100 73
f 1 73 46
f 1 46 28
f 1 28 15
f 1 15 5
f 1 5 6
f 1 6 2
f 2 7 3
f 2 6 8
f 2 8 16
f 2 16 7
f 3 7 9
f 3 9 10
f 3 10 11
f 3 11 12
f 3 12 13
f 3 13 14
f 3 14 4
f 5 15 27
f 5 27 45
f 5 45 72
f 5 72 99
f 5 99 130
f 5 130 169
f 5 169 139
f 5 139 137
f 5 137 136
f 5 136 135
f 5 135 134
f 5 134 133
f 5 133 104
f 5 104 78
f 5 78 54
f 5 54 53
f 5 53 51
f 5 51 50
f 5 50 49
f 5 49 48
f 5 48 30
f 5 30 20
f 5 20 17
f 5 17 16
f 5 16 8
f 5 8 6
f 7 16 17
f 7 17 9
f 9 18 19
f 9 19 10
f 9 17 20
f 9 20 30
f 9 30 18
f 10 21 22
f 10 22 23
f 10 23 24
f 10 24 12
f 10 12 11
f 10 19 21
f 12 25 13
f 12 24 25
f 13 25 26
f 13 26 14
f 15 28 27
f 18 29 19
f 18 30 48
f 18 48 29
f 19 29 31
f 19 31 32
f 19 32 33
f 19 33 34
f 19 34 35
f 19 35 36
f 19 36 41
f 19 41 37
f 19 37 22
f 19 22 21
f 22 37 23
f 23 38 39
f 23 39 40
f 23 40 24
f 23 37 41
f 23 41 38
f 24 40 42
f 24 42 25
f 25 42 43
f 25 43 44
f 25 44 26
f 27 28 45
f 28 46 47
f 28 47 45
f 29 48 49
f 29 49 31
f 31 49 32
f 32 49 50
f 32 50 51
f 32 51 33
f 33 51 53
f 33 53 34
f 34 52 35
f 34 53 54
f 34 54 52
f 35 55 56
f 35 56 57
f 35 57 58
f 35 58 41
f 35 41 59
f 35 59 36
f 35 52 55
f 36 59 60
f 36 60 41
f 38 61 62
f 38 62 39
f 38 41 58
f 38 58 63
f 38 63 61
f 39 64 65
f 39 65 66
f 39 66 67
f 39 67 42
f 39 42 40
f 39 62 61
f 39 61 64
f 41 60 59
f 42 67 68
f 42 68 69
f 42 69 43
f 43 69 70
f 43 70 71
f 45 47 75
f 45 75 74
f 45 74 102
f 45 102 132
f 45 132 171
f 45 171 194
f 45 194 214
f 45 214 225
f 45 225 230
f 45 230 231
f 45 231 227
f 45 227 226
f 45 226 218
f 45 218 217
f 45 217 203
f 45 203 216
f 45 216 215
f 45 215 196
f 45 196 195
f 45 195 172
f 45 172 166
f 45 166 128
f 45 128 98
f 45 98 72
f 46 73 74
f 46 74 75
f 46 75 47
f 52 76 77
f 52 77 55
f 52 54 78
f 52 78 104
f 52 104 76
f 55 77 56
f 56 77 79
f 56 79 80
f 56 80 81
f 56 81 82
f 56 82 83
f 56 83 84
f 56 84 85
f 56 85 86
f 56 86 57
f 57 87 58
f 57 86 61
f 57 61 87
f 58 87 61
f 58 61 63
f 61 86 88
f 61 88 89
f 61 89 90
f 61 90 64
f 64 90 91
f 64 91 65
f 65 91 92
f 65 92 93
f 65 93 66
f 66 93 94
f 66 94 67
f 67 94 95
f 67 95 68
f 68 95 96
f 68 96 70
f 68 70 69
f 70 96 71
f 71 96 97
f 72 98 129
f 72 129 99
f 73 100 74
f 74 100 101
f 74 101 102
f 76 103 77
f 76 104 133
f 76 133 103
f 77 82 81
f 77 81 80
f 77 80 79
f 77 103 105
f 77 105 106
f 77 106 107
f 77 107 108
f 77 108 82
f 82 108 109
f 82 109 83
f 83 110 84
f 83 109 111
f 83 111 110
f 84 110 143
f 84 143 112
f 84 112 85
f 85 112 113
f 85 113 88
f 85 88 86
f 88 113 114
f 88 114 115
f 88 115 116
f 88 116 117
f 88 117 118
f 88 118 89
f 89 118 91
f 89 91 90
f 91 118 119
f 91 119 120
f 91 120 92
f 92 120 93
f 93 120 121
f 93 121 122
f 93 122 123
f 93 123 94
f 94 123 124
f 94 124 125
f 94 125 126
f 94 126 95
f 95 126 96
f 96 126 97
f 97 126 125
f 97 125 127
f 98 128 167
f 98 167 129
f 99 129 168
f 99 168 130
f 101 131 132
f 101 132 102
f 103 133 134
f 103 134 105
f 105 134 135
f 105 135 106
f 106 135 136
f 106 136 137
f 106 137 107
f 107 137 139
f 107 139 108
f 108 138 109
f 108 139 169
f 108 169 138
f 109 138 111
f 110 111 140
f 110 140 141
f 110 141 142
f 110 142 143
f 111 144 140
f 111 138 144
f 112 143 145
f 112 145 113
f 113 145 146
f 113 146 147
f 113 147 148
f 113 148 114
f 114 149 150
f 114 150 151
f 114 151 152
f 114 152 115
f 114 148 149
f 115 153 154
f 115 154 117
f 115 117 116
f 115 152 151
f 115 151 153
f 117 155 156
f 117 156 118
f 117 154 157
f 117 157 158
f 117 158 155
f 118 156 119
f 119 156 155
f 119 155 121
f 119 121 120
f 121 155 122
f 122 159 160
f 122 160 161
f 122 161 123
f 122 155 159
f 123 161 162
f 123 162 124
f 124 162 163
f 124 163 164
f 124 164 125
f 125 164 127
f 127 164 165
f 128 166 140
f 128 140 167
f 129 167 144
f 129 144 168
f 130 168 138
f 130 138 169
f 131 170 132
f 132 170 171
f 138 168 144
f 140 144 167
f 140 166 172
f 140 172 173
f 140 173 174
f 140 174 141
f 141 174 175
f 141 175 143
f 141 143 142
f 143 175 146
f 143 146 145
f 146 175 147
f 147 176 149
f 147 149 148
f 147 175 176
f 149 177 151
f 149 151 150
f 149 176 177
f 151 177 178
f 151 178 153
f 153 178 179
f 153 179 180
f 153 180 181
f 153 181 182
f 153 182 183
f 153 183 154
f 154 183 184
f 154 184 185
f 154 185 157
f 155 158 159
f 157 185 158
f 158 185 186
f 158 186 160
f 158 160 159
f 160 186 187
f 160 187 188
f 160 188 161
f 161 188 162
f 162 188 189
f 162 189 190
f 162 190 191
f 162 191 163
f 163 191 164
f 164 191 165
f 170 192 171
f 171 192 193
f 171 193 194
f 172 195 174
f 172 174 173
f 174 195 196
f 174 196 197
f 174 197 198
f 174 198 175
f 175 198 176
f 176 198 177
f 177 198 178
f 178 198 199
f 178 199 181
f 178 181 179
f 179 181 180
f 181 199 182
f 182 200 201
f 182 201 202
f 182 202 183
f 182 199 203
f 182 203 200
f 183 202 204
f 183 204 201
f 183 201 184
f 184 201 205
f 184 205 206
f 184 206 185
f 185 206 207
f 185 207 208
f 185 208 209
f 185 209 187
f 185 187 186
f 187 209 210
f 187 210 188
f 188 210 189
f 189 210 211
f 189 211 212
f 189 212 191
f 189 191 190
f 193 213 194
f 194 213 214
f 196 215 197
f 197 215 216
f 197 216 199
f 197 199 198
f 199 216 203
f 200 203 217
f 200 217 218
f 200 218 219
f 200 219 201
f 201 219 220
f 201 220 205
f 201 204 202
f 205 220 206
f 206 220 207
f 207 220 219
f 207 219 221
f 207 221 222
f 207 222 210
f 207 210 209
f 207 209 208
f 210 222 223
f 210 223 211
f 213 224 214
f 214 224 225
f 218 226 219
f 219 226 221
f 221 226 222
f 222 226 223
f 223 226 227
f 223 227 228
f 224 229 225
f 225 229 230
f 227 231 228
f 228 231 230
f 228 230 232
f 229 232 230
