v 0.246724 -0.446955 0.567106
v 0.244065 -0.446955 0.568577
v 0.246724 -0.511549 0.567106
v 0.246724 -0.446955 0.477103
v 0.240493 -0.511549 0.570543
v 0.244065 -0.511549 0.568577
v 0.194007 -0.446955 0.596072
v 0.246724 -0.511549 0.456617
v 0.148653 -0.446955 0.528565
v 0.194007 -0.511549 0.596072
v 0.192298 -0.446955 0.596927
v 0.168978 -0.511549 0.498294
v 0.148653 -0.446955 0.609939
v 0.148653 -0.511549 0.50922
v 0.185846 -0.511549 0.600139
v 0.185846 -0.446955 0.600139
v 0.148653 -0.511549 0.609939
v 0.168978 -0.446955 0.604956
v 0.184531 -0.446955 0.600559
v 0.183533 -0.511549 0.600874
v 0.168978 -0.511549 0.604956
v 0.179587 -0.446955 0.602105
v 0.179587 -0.511549 0.602105
f 1 2 6
f 1 6 3
f 1 3 8
f 1 8 4
f 1 4 9
f 1 9 13
f 1 13 18
f 1 18 22
f 1 22 19
f 1 19 16
f 1 16 11
f 1 11 7
f 1 7 2
f 2 5 6
f 2 7 5
f 3 6 5
f 3 5 10
f 3 10 15
f 3 15 20
f 3 20 23
f 3 23 21
f 3 21 17
f 3 17 14
f 3 14 12
f 3 12 8
f 4 8 9
f 5 7 10
f 7 11 10
f 8 12 9
f 9 12 14
f 9 14 17
f 9 17 13
f 10 11 15
f 11 16 15
f 13 17 21
f 13 21 18
f 15 16 19
f 15 19 20
f 18 21 23
f 18 23 22
f 19 22 20
f 20 22 23
