v -0.0438107 -0.512207 -0.380445
v -0.0438107 -0.431718 -0.380445
v -0.028752 -0.512207 -0.38012
v -0.0563261 -0.512207 -0.379795
v -0.0312953 -0.431718 -0.380174
v -0.0563261 -0.431718 -0.379795
v -0.0252604 -0.431718 -0.380039
v -0.0252604 -0.512207 -0.380039
v -0.0688415 -0.512207 -0.37748
v -0.0564411 -0.431718 -0.379781
v -0.0252604 -0.431718 -0.30125
v -0.0252604 -0.512207 -0.281743
v -0.0730085 -0.512207 -0.376465
v -0.0689134 -0.431718 -0.377466
v -0.0688415 -0.43182 -0.37748
v -0.168965 -0.431718 -0.267813
v -0.17204 -0.431757 -0.266161
v -0.17204 -0.512207 -0.242159
v -0.156449 -0.512207 -0.246193
v -0.0760548 -0.512207 -0.37572
v -0.0760548 -0.43182 -0.37572
v -0.0824059 -0.431718 -0.374163
v -0.17204 -0.431718 -0.273052
v -0.17204 -0.512207 -0.352151
v -0.0938867 -0.512207 -0.371348
v -0.168965 -0.512207 -0.352937
v -0.168965 -0.431718 -0.352937
v -0.17204 -0.431718 -0.352151
f 1 2 3
f 1 3 8
f 1 8 12
f 1 12 19
f 1 19 18
f 1 18 24
f 1 24 26
f 1 26 25
f 1 25 20
f 1 20 13
f 1 13 9
f 1 9 4
f 1 4 6
f 1 6 2
f 2 5 3
f 2 6 10
f 2 10 14
f 2 14 22
f 2 22 27
f 2 27 28
f 2 28 23
f 2 23 16
f 2 16 11
f 2 11 7
f 2 7 5
f 3 7 8
f 3 5 7
f 4 9 10
f 4 10 6
f 7 11 12
f 7 12 8
f 9 13 14
f 9 14 15
f 9 15 10
f 10 15 14
f 11 16 17
f 11 17 18
f 11 18 19
f 11 19 12
f 13 20 14
f 14 20 21
f 14 21 22
f 16 23 17
f 17 23 28
f 17 28 24
f 17 24 18
f 20 25 22
f 20 22 21
f 22 25 26
f 22 26 27
f 24 28 27
f 24 27 26
