v -0.411215 -0.812726 -0.0456467
v -0.406466 -0.812726 -0.060485
v -0.405016 -0.830977 -0.0587937
v -0.408237 -0.830977 -0.0456467
v -0.411215 -0.812726 0.0456483
v -0.411215 0.849199 -0.0456467
v -0.392619 -0.0638929 -0.0668829
v -0.392619 -0.429093 -0.066867
v -0.392619 -0.757792 -0.066851
v -0.392619 -0.794475 -0.0668351
v -0.392619 -0.812726 -0.0668191
v -0.392619 -0.830977 -0.0647609
v -0.406466 0.849199 -0.060485
v -0.402923 -0.840915 -0.0563207
v -0.408237 -0.830977 0.0456483
v -0.403567 -0.841458 -0.0456467
v -0.408076 -0.830977 0.0639169
v -0.410893 -0.812726 0.0639169
v -0.411215 0.849199 0.0456483
v -0.41041 0.86745 -0.0456467
v -0.406144 0.86745 -0.060102
v -0.392619 -0.00895921 -0.0668829
v -0.370561 -0.0638929 -0.076807
v -0.370158 -0.410842 -0.0762645
v -0.369756 -0.72129 -0.0757221
v -0.369273 -0.739541 -0.0752115
v -0.368629 -0.757792 -0.0747169
v -0.367904 -0.776224 -0.0742063
v -0.366938 -0.794475 -0.0737117
v -0.366052 -0.804413 -0.0733128
v -0.374344 -0.830977 -0.0672659
v -0.337876 -0.849228 -0.0661011
v -0.337876 -0.8626 -0.0597829
v -0.374344 -0.846517 -0.0607402
v -0.392619 -0.843084 -0.0587459
v -0.392619 0.849199 -0.0668032
v -0.392619 0.812697 -0.0668351
v -0.392619 -0.846156 -0.0456467
v -0.351642 -0.86007 -0.0574375
v -0.353977 -0.860973 -0.0456467
v -0.403567 -0.841458 0.0456483
v -0.404775 -0.830977 0.0759311
v -0.403487 -0.841277 0.0639169
v -0.402843 -0.840915 0.0740962
v -0.406224 -0.812726 0.0772554
v -0.410893 0.849199 0.0639169
v -0.410249 0.86745 0.0639169
v -0.41041 0.86745 0.0456483
v -0.405741 0.880099 -0.0456467
v -0.404453 0.879015 -0.0580757
v -0.392619 0.86745 -0.0662128
v -0.370561 -0.00895921 -0.076807
v -0.35615 -0.0638929 -0.0805884
v -0.35615 -0.72129 -0.0784504
v -0.35615 -0.410842 -0.0795672
v -0.35615 -0.739541 -0.0774452
v -0.35615 -0.794475 -0.0744138
v -0.35615 -0.804956 -0.0734724
v -0.173486 -0.88573 -0.0673297
v -0.191761 -0.88573 -0.0668989
v -0.264778 -0.867479 -0.0671382
v -0.283053 -0.867479 -0.0657501
v -0.283053 -0.880128 -0.0594319
v -0.29698 -0.87814 -0.0571503
v -0.367582 0.794446 -0.0739989
v -0.363074 -0.85754 -0.0273941
v -0.374344 -0.853203 -0.0273941
v -0.392619 -0.846156 0.0456483
v -0.337876 -0.866756 -0.0456467
v -0.353977 -0.860973 0.0456483
v -0.392619 -0.845975 0.0639169
v -0.392619 -0.830977 0.0801273
v -0.351481 -0.86007 0.0749578
v -0.392619 -0.842903 0.0759151
v -0.353896 -0.860973 0.0639169
v -0.392619 -0.812726 0.0814835
v -0.406224 0.849199 0.0772554
v -0.405902 0.86745 0.0769682
v -0.404292 0.878834 0.0754684
v -0.405661 0.880099 0.0639169
v -0.405741 0.880099 0.0456483
v -0.392619 0.88534 -0.0456467
v -0.392619 0.881003 -0.0601978
v -0.301327 0.885701 -0.0654789
v -0.283053 0.885701 -0.0665319
v -0.374344 0.86745 -0.067202
v -0.35285 0.82372 -0.0736798
v -0.365006 0.821551 -0.0730257
v -0.366777 0.809444 -0.0736798
v -0.35615 -0.00895921 -0.0805884
v -0.301327 -0.0273909 -0.0814499
v -0.337876 -0.72129 -0.0785142
v -0.337876 -0.776224 -0.0754668
v -0.337876 -0.794475 -0.0744457
v -0.00909697 -0.903981 -0.0668829
v -0.0273714 -0.903981 -0.0667394
v -0.0456459 -0.903981 -0.0665638
v -0.0639203 -0.903981 -0.0663245
v -0.210035 -0.88573 -0.0657182
v -0.0821143 -0.903981 -0.065782
v -0.100389 -0.903981 -0.0648407
v -0.264778 -0.882658 -0.06082
v -0.210035 -0.898198 -0.0594
v -0.228229 -0.896211 -0.0568791
v -0.23797 -0.894946 -0.0550602
v -0.283053 -0.883742 -0.0456467
v -0.299395 -0.878863 -0.0456467
v -0.319602 -0.872538 -0.0456467
v -0.35615 0.794446 -0.0749403
v -0.363074 -0.85754 0.0456483
v -0.374344 -0.853203 0.0456483
v -0.337876 -0.866756 0.0456483
v -0.337876 -0.849228 0.0808293
v -0.374344 -0.830977 0.0814835
v -0.337876 -0.862238 0.0766012
v -0.337876 -0.866395 0.0639169
v -0.296819 -0.87796 0.0747185
v -0.35615 -0.830977 0.0815154
v -0.374344 -0.812726 0.0815154
v -0.392619 0.849199 0.0814835
v -0.392619 0.86745 0.0811963
v -0.392619 0.880641 0.0769841
v -0.332241 0.895459 0.073841
v -0.392619 0.885159 0.0639169
v -0.392619 0.88534 0.0456483
v -0.374344 0.888773 -0.0273941
v -0.343431 0.894194 -0.0456467
v -0.332482 0.895459 -0.0559697
v -0.319602 0.896543 -0.0575492
v -0.301327 0.897808 -0.0591607
v -0.283053 0.899254 -0.0602137
v -0.264778 0.900338 -0.06082
v -0.264778 0.885701 -0.0671382
v -0.155212 0.903952 -0.0644418
v -0.136938 0.903952 -0.0652715
v -0.337876 0.824804 -0.0739989
v -0.337876 0.812697 -0.0749403
v -0.357761 0.814323 -0.0741904
v 0.301327 -0.0273909 -0.0814499
v 0.337876 -0.72129 -0.0785142
v 0.337876 -0.776224 -0.0754668
v 0.337876 -0.794475 -0.0744457
v 0.00909697 -0.903981 -0.0668829
v -0.00909697 -0.918075 -0.0605647
v -0.0273714 -0.917714 -0.0604211
v -0.0456459 -0.917353 -0.0602456
v -0.0639203 -0.916991 -0.0600063
v -0.191761 -0.900005 -0.0605807
v -0.0821143 -0.916269 -0.0594638
v -0.118663 -0.903981 -0.0636122
v -0.132751 -0.913739 -0.0560016
v -0.191761 -0.905065 -0.0456467
v -0.210035 -0.901451 -0.0456467
v -0.228229 -0.897475 -0.0456467
v -0.238212 -0.895126 -0.0456467
v -0.264778 -0.888621 -0.0456467
v -0.283053 -0.883742 0.0456483
v -0.264778 -0.888802 -0.0273941
v -0.299395 -0.878863 0.0456483
v -0.319602 -0.872538 0.0456483
v -0.308411 -0.875791 0.0639169
v -0.319602 -0.849228 0.0815154
v -0.283053 -0.867479 0.0806538
v -0.264778 -0.867479 0.0815154
v -0.283053 -0.879947 0.0764097
v -0.299234 -0.878682 0.0639169
v -0.283053 -0.883561 0.0639169
v -0.237809 -0.894946 0.0731868
v -0.374344 0.86745 0.0815154
v -0.283053 0.885701 0.0812601
v -0.301327 0.885701 0.0804623
v -0.283053 0.898892 0.077016
v -0.301327 0.897627 0.0762342
v -0.319602 0.896362 0.0749738
v -0.20118 0.913168 0.073107
v -0.283053 0.903229 0.0639169
v -0.301327 0.900699 0.0639169
v -0.319602 0.897989 0.0639169
v -0.334173 0.89582 0.0639169
v -0.374344 0.888773 0.0456483
v -0.35615 0.892026 -0.0273941
v -0.334334 0.89582 -0.0456467
v -0.319602 0.898169 -0.0456467
v -0.283053 0.90359 -0.0456467
v -0.201582 0.913168 -0.0549485
v -0.173486 0.914433 -0.0570546
v -0.155212 0.915156 -0.0581236
v -0.136938 0.915878 -0.0589533
v -0.246504 0.885701 -0.0673776
v -0.118663 0.903952 -0.065798
v -0.100389 0.903952 -0.066165
v -0.0821143 0.903952 -0.0664681
v -0.118663 0.91642 -0.0594798
v -0.100389 0.916782 -0.0598468
v -0.319602 0.825165 -0.0739989
v -0.0639203 0.903952 -0.0666755
v -0.0456459 0.903952 -0.0667713
v -0.0273714 0.903952 -0.066851
v -0.00909697 0.903952 -0.0669149
v 0.337876 0.812697 -0.0749403
v 0.35615 -0.00895921 -0.0805884
v 0.35615 -0.0638929 -0.0805884
v 0.35615 -0.72129 -0.0784504
v 0.35615 0.794446 -0.0749403
v 0.35615 -0.739541 -0.0774452
v 0.35615 -0.794475 -0.0744138
v 0.173486 -0.88573 -0.0673297
v 0.0273714 -0.903981 -0.0667394
v 0.00909697 -0.918075 -0.0605647
v 0.35615 -0.804956 -0.0734724
v -0.00909697 -0.922954 -0.0456467
v -0.0456459 -0.92169 -0.0456467
v -0.0639203 -0.920967 -0.0456467
v -0.100389 -0.915365 -0.0585225
v -0.118663 -0.914461 -0.0572939
v -0.0821143 -0.919521 -0.0456467
v -0.118663 -0.915907 -0.0456467
v -0.135247 -0.9141 -0.0456467
v -0.144344 -0.912835 -0.0456467
v -0.191761 -0.905065 0.0456483
v -0.155212 -0.911209 -0.0273941
v -0.210035 -0.901451 0.0639169
v -0.228229 -0.897475 0.0456483
v -0.238212 -0.895126 0.0456483
v -0.247389 -0.892958 -0.0273941
v -0.264778 -0.888802 0.0456483
v -0.264778 -0.882116 0.0772713
v -0.210035 -0.88573 0.0806538
v -0.191761 -0.88573 0.0814356
v -0.173486 -0.88573 0.0815154
v -0.228229 -0.89603 0.0744951
v -0.210035 -0.898018 0.0764097
v -0.247389 -0.892958 0.0456483
v -0.228229 -0.897295 0.0639169
v -0.132429 -0.913739 0.0738569
v -0.264778 0.885701 0.0815154
v -0.100389 0.903952 0.0810207
v -0.118663 0.903952 0.0807176
v -0.136938 0.903952 0.0802868
v -0.136938 0.915698 0.0760428
v -0.155212 0.914975 0.0754046
v -0.173486 0.914252 0.0745909
v -0.191761 0.913529 0.0736335
v -0.118663 0.919492 0.0639169
v -0.136938 0.918408 0.0639169
v -0.191761 0.914071 0.0639169
v -0.201663 0.913168 0.0639169
v -0.211001 0.912264 0.0456483
v -0.228229 0.910277 0.0456483
v -0.264778 0.90594 0.0456483
v -0.283053 0.90359 0.0456483
v -0.319602 0.898169 0.0456483
v -0.334334 0.89582 0.0456483
v -0.35615 0.892026 0.0456483
v -0.264778 0.90594 -0.0456467
v -0.246504 0.908108 -0.0456467
v -0.211001 0.912264 -0.0273941
v -0.201904 0.913168 -0.0456467
v -0.191761 0.914071 -0.0456467
v -0.155212 0.917143 -0.0456467
v -0.136938 0.918408 -0.0456467
v -0.118663 0.919492 -0.0456467
v -0.0821143 0.921299 -0.0456467
v -0.0639203 0.922022 -0.0456467
v -0.0821143 0.917143 -0.0601499
v -0.0639203 0.917505 -0.0603573
v 0.319602 0.825165 -0.0739989
v -0.0456459 0.917685 -0.060469
v -0.00909697 0.918047 -0.0605966
v 0.00909697 0.903952 -0.0669149
v 0.337876 0.824804 -0.0739989
v 0.35285 0.82372 -0.0736798
v 0.357761 0.814323 -0.0741904
v 0.370561 -0.00895921 -0.076807
v 0.367582 0.794446 -0.0739989
v 0.370561 -0.0638929 -0.076807
v 0.369756 -0.72129 -0.0757221
v 0.369273 -0.739541 -0.0752115
v 0.368629 -0.757792 -0.0747169
v 0.367904 -0.776224 -0.0742063
v 0.366938 -0.794475 -0.0737117
v 0.366052 -0.804413 -0.0733128
v 0.366777 0.809444 -0.0736798
v 0.191761 -0.88573 -0.0668989
v 0.0639203 -0.903981 -0.0663245
v 0.0456459 -0.903981 -0.0665638
v 0.0273714 -0.917714 -0.0604211
v 0.00909697 -0.922954 -0.0456467
v -0.00909697 -0.922954 0.0456483
v -0.0456459 -0.92169 0.0456483
v -0.0639203 -0.920967 0.0456483
v -0.0821143 -0.919521 0.0639169
v -0.118663 -0.915907 0.0639169
v -0.135247 -0.9141 0.0456483
v -0.144344 -0.912835 0.0456483
v -0.155212 -0.911209 0.0456483
v -0.144102 -0.912654 0.0639169
v -0.191761 -0.899463 0.0771915
v -0.100389 -0.903981 0.0799518
v -0.0821143 -0.903981 0.0807017
v -0.0639203 -0.903981 0.0811484
v -0.0456459 -0.903981 0.0813399
v -0.0273714 -0.903981 0.0814515
v -0.00909697 -0.903981 0.0814994
v 0.173486 -0.88573 0.0815154
v -0.118663 -0.914461 0.0747823
v -0.135005 -0.9141 0.0639169
v -0.0639203 -0.920786 0.0639169
v -0.00909697 0.903952 0.0815154
v -0.0273714 0.903952 0.0814994
v -0.0456459 0.903952 0.0814675
v -0.0639203 0.903952 0.0814037
v -0.0821143 0.903952 0.0812601
v -0.0639203 0.917324 0.0771756
v -0.0821143 0.916962 0.077016
v -0.100389 0.916601 0.0767767
v -0.118663 0.91624 0.0764736
v -0.0639203 0.921841 0.0639169
v -0.0821143 0.921119 0.0639169
v -0.0821143 0.921299 0.0456483
v -0.155212 0.917143 0.0456483
v -0.201904 0.913168 0.0456483
v -0.228229 0.910277 -0.0273941
v -0.0639203 0.922022 0.0456483
v -0.00909697 0.923106 -0.0456467
v 0.00909697 0.918047 -0.0605966
v 0.0273714 0.903952 -0.066851
v 0.0456459 0.903952 -0.0667713
v 0.0639203 0.903952 -0.0666755
v 0.246504 0.885701 -0.0673776
v 0.264778 0.885701 -0.0671382
v 0.374344 0.86745 -0.067202
v 0.365006 0.821551 -0.0730257
v 0.392619 0.86745 -0.0662128
v 0.392619 -0.00895921 -0.0668829
v 0.392619 0.849199 -0.0668032
v 0.392619 0.812697 -0.0668351
v 0.392619 -0.0638929 -0.0668829
v 0.392619 -0.757792 -0.066851
v 0.392619 -0.794475 -0.0668351
v 0.392619 -0.812726 -0.0668191
v 0.392619 -0.830977 -0.0647609
v 0.374344 -0.830977 -0.0672659
v 0.337876 -0.849228 -0.0661011
v 0.264778 -0.867479 -0.0671382
v 0.210035 -0.88573 -0.0657182
v 0.100389 -0.903981 -0.0648407
v 0.0821143 -0.903981 -0.065782
v 0.0639203 -0.916991 -0.0600063
v 0.0456459 -0.917353 -0.0602456
v 0.00909697 -0.922954 0.0456483
v 0.0456459 -0.92169 -0.0456467
v -0.00909697 -0.922593 0.0639169
v -0.0456459 -0.921509 0.0639169
v -0.100389 -0.915365 0.0757077
v -0.0821143 -0.916269 0.0764576
v -0.0639203 -0.916811 0.0769043
v -0.0456459 -0.917172 0.0770958
v -0.00909697 -0.917714 0.0772713
v 0.00909697 -0.903981 0.0814994
v 0.191761 -0.88573 0.0814356
v 0.264778 -0.867479 0.0815154
v 0.0273714 -0.903981 0.0814515
v 0.00909697 0.903952 0.0815154
v -0.00909697 0.917685 0.0772873
v -0.0273714 0.917685 0.0772713
v -0.0456459 0.917505 0.0772394
v -0.0456459 0.922203 0.0639169
v -0.00909697 0.923106 0.0456483
v 0.00909697 0.923106 -0.0456467
v 0.0456459 0.917685 -0.060469
v 0.0639203 0.917505 -0.0603573
v 0.0821143 0.903952 -0.0664681
v 0.283053 0.885701 -0.0665319
v 0.100389 0.903952 -0.066165
v 0.118663 0.903952 -0.065798
v 0.136938 0.903952 -0.0652715
v 0.301327 0.885701 -0.0654789
v 0.392619 0.881003 -0.0601978
v 0.404453 0.879015 -0.0580757
v 0.406144 0.86745 -0.060102
v 0.406466 0.849199 -0.060485
v 0.406466 -0.812726 -0.060485
v 0.405016 -0.830977 -0.0587937
v 0.402923 -0.840915 -0.0563207
v 0.392619 -0.843084 -0.0587459
v 0.374344 -0.846517 -0.0607402
v 0.337876 -0.8626 -0.0597829
v 0.283053 -0.867479 -0.0657501
v 0.264778 -0.882658 -0.06082
v 0.210035 -0.898198 -0.0594
v 0.191761 -0.900005 -0.0605807
v 0.118663 -0.903981 -0.0636122
v 0.0821143 -0.916269 -0.0594638
v 0.0639203 -0.920967 -0.0456467
v 0.00909697 -0.922593 0.0639169
v 0.0456459 -0.92169 0.0456483
v 0.0456459 -0.921509 0.0639169
v 0.00909697 -0.917714 0.0772713
v 0.0456459 -0.903981 0.0813399
v 0.0639203 -0.903981 0.0811484
v 0.0821143 -0.903981 0.0807017
v 0.100389 -0.903981 0.0799518
v 0.210035 -0.88573 0.0806538
v 0.283053 -0.867479 0.0806538
v 0.337876 -0.849228 0.0808293
v 0.319602 -0.849228 0.0815154
v 0.0273714 0.903952 0.0814994
v 0.00909697 0.917685 0.0772873
v 0.264778 0.885701 0.0815154
v -0.00909697 0.922564 0.0639169
v 0.00909697 0.923106 0.0456483
v 0.0639203 0.922022 -0.0456467
v 0.0821143 0.917143 -0.0601499
v 0.155212 0.903952 -0.0644418
v 0.264778 0.900338 -0.06082
v 0.100389 0.916782 -0.0598468
v 0.118663 0.91642 -0.0594798
v 0.136938 0.915878 -0.0589533
v 0.283053 0.899254 -0.0602137
v 0.301327 0.897808 -0.0591607
v 0.319602 0.896543 -0.0575492
v 0.332482 0.895459 -0.0559697
v 0.392619 0.88534 -0.0456467
v 0.41041 0.86745 -0.0456467
v 0.405741 0.880099 -0.0456467
v 0.411215 0.849199 -0.0456467
v 0.411215 -0.812726 -0.0456467
v 0.408237 -0.830977 -0.0456467
v 0.403567 -0.841458 -0.0456467
v 0.392619 -0.846156 -0.0456467
v 0.353977 -0.860973 -0.0456467
v 0.351642 -0.86007 -0.0574375
v 0.29698 -0.87814 -0.0571503
v 0.283053 -0.880128 -0.0594319
v 0.228229 -0.896211 -0.0568791
v 0.132751 -0.913739 -0.0560016
v 0.118663 -0.914461 -0.0572939
v 0.100389 -0.915365 -0.0585225
v 0.0821143 -0.919521 -0.0456467
v 0.0639203 -0.920967 0.0456483
v 0.0639203 -0.916811 0.0769043
v 0.0456459 -0.917172 0.0770958
v 0.0639203 -0.920786 0.0639169
v 0.0821143 -0.916269 0.0764576
v 0.191761 -0.899463 0.0771915
v 0.264778 -0.882116 0.0772713
v 0.210035 -0.898018 0.0764097
v 0.337876 -0.862238 0.0766012
v 0.283053 -0.879947 0.0764097
v 0.392619 -0.830977 0.0801273
v 0.374344 -0.830977 0.0814835
v 0.35615 -0.830977 0.0815154
v 0.0456459 0.903952 0.0814675
v 0.0273714 0.917685 0.0772713
v 0.00909697 0.922564 0.0639169
v 0.374344 0.86745 0.0815154
v 0.283053 0.885701 0.0812601
v 0.100389 0.903952 0.0810207
v 0.0821143 0.903952 0.0812601
v 0.0639203 0.903952 0.0814037
v 0.0456459 0.922203 0.0639169
v 0.0639203 0.922022 0.0456483
v 0.0821143 0.921299 -0.0456467
v 0.155212 0.915156 -0.0581236
v 0.173486 0.914433 -0.0570546
v 0.201582 0.913168 -0.0549485
v 0.283053 0.90359 -0.0456467
v 0.319602 0.898169 -0.0456467
v 0.334334 0.89582 -0.0456467
v 0.343431 0.894194 -0.0456467
v 0.392619 0.88534 0.0456483
v 0.374344 0.888773 -0.0273941
v 0.41041 0.86745 0.0456483
v 0.405741 0.880099 0.0456483
v 0.411215 0.849199 0.0456483
v 0.411215 -0.812726 0.0456483
v 0.408237 -0.830977 0.0456483
v 0.403567 -0.841458 0.0456483
v 0.392619 -0.846156 0.0456483
v 0.374344 -0.853203 -0.0273941
v 0.363074 -0.85754 -0.0273941
v 0.353977 -0.860973 0.0456483
v 0.337876 -0.866756 -0.0456467
v 0.319602 -0.872538 -0.0456467
v 0.299395 -0.878863 -0.0456467
v 0.283053 -0.883742 -0.0456467
v 0.23797 -0.894946 -0.0550602
v 0.144344 -0.912835 -0.0456467
v 0.135247 -0.9141 -0.0456467
v 0.118663 -0.915907 -0.0456467
v 0.191761 -0.905065 -0.0456467
v 0.0821143 -0.919521 0.0639169
v 0.132429 -0.913739 0.0738569
v 0.118663 -0.914461 0.0747823
v 0.100389 -0.915365 0.0757077
v 0.228229 -0.89603 0.0744951
v 0.296819 -0.87796 0.0747185
v 0.351481 -0.86007 0.0749578
v 0.392619 -0.842903 0.0759151
v 0.237809 -0.894946 0.0731868
v 0.402843 -0.840915 0.0740962
v 0.404775 -0.830977 0.0759311
v 0.406224 -0.812726 0.0772554
v 0.392619 -0.812726 0.0814835
v 0.374344 -0.812726 0.0815154
v 0.0456459 0.917505 0.0772394
v 0.392619 0.849199 0.0814835
v 0.392619 0.86745 0.0811963
v 0.301327 0.885701 0.0804623
v 0.283053 0.898892 0.077016
v 0.136938 0.903952 0.0802868
v 0.118663 0.903952 0.0807176
v 0.0821143 0.916962 0.077016
v 0.0639203 0.917324 0.0771756
v 0.0639203 0.921841 0.0639169
v 0.0821143 0.921299 0.0456483
v 0.118663 0.919492 -0.0456467
v 0.136938 0.918408 -0.0456467
v 0.155212 0.917143 -0.0456467
v 0.191761 0.914071 -0.0456467
v 0.201904 0.913168 -0.0456467
v 0.211001 0.912264 -0.0273941
v 0.246504 0.908108 -0.0456467
v 0.264778 0.90594 -0.0456467
v 0.283053 0.90359 0.0456483
v 0.319602 0.898169 0.0456483
v 0.334334 0.89582 0.0456483
v 0.35615 0.892026 -0.0273941
v 0.392619 0.885159 0.0639169
v 0.405661 0.880099 0.0639169
v 0.374344 0.888773 0.0456483
v 0.410249 0.86745 0.0639169
v 0.410893 0.849199 0.0639169
v 0.410893 -0.812726 0.0639169
v 0.408076 -0.830977 0.0639169
v 0.403487 -0.841277 0.0639169
v 0.392619 -0.845975 0.0639169
v 0.353896 -0.860973 0.0639169
v 0.374344 -0.853203 0.0456483
v 0.363074 -0.85754 0.0456483
v 0.337876 -0.866756 0.0456483
v 0.319602 -0.872538 0.0456483
v 0.299395 -0.878863 0.0456483
v 0.264778 -0.888802 -0.0273941
v 0.264778 -0.888621 -0.0456467
v 0.283053 -0.883742 0.0456483
v 0.238212 -0.895126 -0.0456467
v 0.228229 -0.897475 -0.0456467
v 0.210035 -0.901451 -0.0456467
v 0.155212 -0.911209 -0.0273941
v 0.144344 -0.912835 0.0456483
v 0.135247 -0.9141 0.0456483
v 0.118663 -0.915907 0.0639169
v 0.191761 -0.905065 0.0456483
v 0.135005 -0.9141 0.0639169
v 0.144102 -0.912654 0.0639169
v 0.210035 -0.901451 0.0639169
v 0.283053 -0.883561 0.0639169
v 0.299234 -0.878682 0.0639169
v 0.308411 -0.875791 0.0639169
v 0.337876 -0.866395 0.0639169
v 0.228229 -0.897295 0.0639169
v 0.238212 -0.895126 0.0456483
v 0.247389 -0.892958 0.0456483
v 0.264778 -0.888802 0.0456483
v 0.406224 0.849199 0.0772554
v 0.405902 0.86745 0.0769682
v 0.404292 0.878834 0.0754684
v 0.392619 0.880641 0.0769841
v 0.20118 0.913168 0.073107
v 0.191761 0.913529 0.0736335
v 0.173486 0.914252 0.0745909
v 0.155212 0.914975 0.0754046
v 0.136938 0.915698 0.0760428
v 0.301327 0.897627 0.0762342
v 0.118663 0.91624 0.0764736
v 0.100389 0.916601 0.0767767
v 0.0821143 0.921119 0.0639169
v 0.118663 0.919492 0.0639169
v 0.136938 0.918408 0.0639169
v 0.155212 0.917143 0.0456483
v 0.191761 0.914071 0.0639169
v 0.201904 0.913168 0.0456483
v 0.228229 0.910277 -0.0273941
v 0.211001 0.912264 0.0456483
v 0.264778 0.90594 0.0456483
v 0.283053 0.903229 0.0639169
v 0.301327 0.900699 0.0639169
v 0.319602 0.897989 0.0639169
v 0.334173 0.89582 0.0639169
v 0.35615 0.892026 0.0456483
v 0.332241 0.895459 0.073841
v 0.247389 -0.892958 -0.0273941
v 0.228229 -0.897475 0.0456483
v 0.155212 -0.911209 0.0456483
v 0.319602 0.896362 0.0749738
v 0.228229 0.910277 0.0456483
v 0.201663 0.913168 0.0639169
f 1 2 3
f 1 3 4
f 1 4 15
f 1 15 5
f 1 5 19
f 1 19 6
f 1 6 13
f 1 13 2
f 2 7 8
f 2 8 9
f 2 9 10
f 2 10 11
f 2 11 12
f 2 12 3
f 2 13 22
f 2 22 7
f 3 14 4
f 3 12 14
f 4 14 16
f 4 16 41
f 4 41 15
f 5 15 17
f 5 17 18
f 5 18 46
f 5 46 19
f 6 19 48
f 6 48 20
f 6 20 21
f 6 21 13
f 7 22 52
f 7 52 23
f 7 23 8
f 8 23 9
f 9 23 10
f 10 23 11
f 11 23 24
f 11 24 25
f 11 25 26
f 11 26 27
f 11 27 28
f 11 28 29
f 11 29 30
f 11 30 12
f 12 31 32
f 12 32 33
f 12 33 34
f 12 34 35
f 12 35 14
f 12 30 31
f 13 21 36
f 13 36 37
f 13 37 22
f 14 38 16
f 14 35 39
f 14 39 40
f 14 40 38
f 15 41 43
f 15 43 17
f 16 38 68
f 16 68 41
f 17 42 18
f 17 43 44
f 17 44 42
f 18 42 45
f 18 45 77
f 18 77 46
f 19 46 47
f 19 47 48
f 20 48 81
f 20 81 49
f 20 49 50
f 20 50 21
f 21 50 51
f 21 51 36
f 22 37 52
f 23 52 90
f 23 90 53
f 23 53 24
f 24 53 25
f 25 54 26
f 25 53 55
f 25 55 54
f 26 54 27
f 27 54 28
f 28 54 29
f 29 54 30
f 30 54 56
f 30 56 57
f 30 57 58
f 30 58 59
f 30 59 60
f 30 60 61
f 30 61 32
f 30 32 31
f 32 61 62
f 32 62 33
f 33 62 63
f 33 63 64
f 33 64 39
f 33 39 35
f 33 35 34
f 36 65 52
f 36 52 37
f 36 51 65
f 38 66 67
f 38 67 111
f 38 111 68
f 38 40 66
f 39 64 69
f 39 69 40
f 40 69 112
f 40 112 70
f 40 70 110
f 40 110 66
f 41 68 71
f 41 71 43
f 42 44 72
f 42 72 45
f 43 71 44
f 44 73 74
f 44 74 72
f 44 71 75
f 44 75 73
f 45 72 76
f 45 76 120
f 45 120 77
f 46 77 78
f 46 78 47
f 47 78 79
f 47 79 80
f 47 80 48
f 48 80 81
f 49 81 125
f 49 125 82
f 49 82 50
f 50 82 83
f 50 83 51
f 51 83 84
f 51 84 85
f 51 85 86
f 51 86 87
f 51 87 88
f 51 88 89
f 51 89 65
f 52 65 90
f 53 90 91
f 53 91 55
f 54 92 56
f 54 55 91
f 54 91 92
f 56 92 57
f 57 93 94
f 57 94 95
f 57 95 58
f 57 92 93
f 58 95 59
f 59 95 96
f 59 96 97
f 59 97 98
f 59 98 60
f 60 99 61
f 60 98 100
f 60 100 101
f 60 101 99
f 61 99 62
f 62 99 102
f 62 102 63
f 63 102 103
f 63 103 104
f 63 104 64
f 64 104 105
f 64 105 106
f 64 106 107
f 64 107 108
f 64 108 69
f 65 89 109
f 65 109 90
f 66 110 111
f 66 111 67
f 68 111 75
f 68 75 71
f 69 108 160
f 69 160 112
f 70 75 110
f 70 112 75
f 72 113 114
f 72 114 76
f 72 74 115
f 72 115 113
f 73 75 116
f 73 116 117
f 73 117 115
f 73 115 74
f 75 112 116
f 75 111 110
f 76 114 118
f 76 118 119
f 76 119 169
f 76 169 120
f 77 120 121
f 77 121 78
f 78 121 79
f 79 121 122
f 79 122 123
f 79 123 124
f 79 124 80
f 80 124 125
f 80 125 81
f 82 125 180
f 82 180 126
f 82 126 127
f 82 127 128
f 82 128 83
f 83 128 129
f 83 129 130
f 83 130 131
f 83 131 84
f 84 131 132
f 84 132 85
f 85 133 86
f 85 132 134
f 85 134 135
f 85 135 133
f 86 133 136
f 86 136 87
f 87 136 137
f 87 137 138
f 87 138 88
f 88 138 89
f 89 138 109
f 90 109 91
f 91 139 140
f 91 140 92
f 91 109 137
f 91 137 200
f 91 200 139
f 92 140 141
f 92 141 93
f 93 141 142
f 93 142 94
f 94 142 143
f 94 143 95
f 95 143 209
f 95 209 144
f 95 144 96
f 96 144 97
f 97 144 98
f 98 144 145
f 98 145 146
f 98 146 147
f 98 147 100
f 99 101 148
f 99 148 103
f 99 103 102
f 100 147 149
f 100 149 101
f 101 150 148
f 101 149 150
f 103 148 151
f 103 151 104
f 104 151 105
f 105 151 152
f 105 152 153
f 105 153 154
f 105 154 155
f 105 155 156
f 105 156 106
f 106 157 159
f 106 159 107
f 106 156 158
f 106 158 226
f 106 226 157
f 107 159 160
f 107 160 108
f 109 138 137
f 112 160 161
f 112 161 116
f 113 162 114
f 113 115 163
f 113 163 164
f 113 164 162
f 114 162 118
f 115 117 165
f 115 165 163
f 116 161 117
f 117 161 166
f 117 166 167
f 117 167 168
f 117 168 165
f 118 162 164
f 118 164 230
f 118 230 305
f 118 305 362
f 118 362 407
f 118 407 453
f 118 453 506
f 118 506 457
f 118 457 410
f 118 410 364
f 118 364 309
f 118 309 236
f 118 236 169
f 118 169 119
f 120 169 121
f 121 169 170
f 121 170 171
f 121 171 122
f 122 171 172
f 122 172 173
f 122 173 174
f 122 174 123
f 123 174 175
f 123 175 176
f 123 176 177
f 123 177 178
f 123 178 179
f 123 179 124
f 124 179 180
f 124 180 125
f 126 180 254
f 126 254 181
f 126 181 182
f 126 182 127
f 127 182 128
f 128 182 183
f 128 183 184
f 128 184 185
f 128 185 129
f 129 185 130
f 130 185 131
f 131 185 186
f 131 186 187
f 131 187 132
f 132 187 188
f 132 188 134
f 133 189 136
f 133 135 190
f 133 190 191
f 133 191 192
f 133 192 189
f 134 188 135
f 135 188 193
f 135 193 194
f 135 194 190
f 136 195 137
f 136 189 196
f 136 196 197
f 136 197 198
f 136 198 199
f 136 199 195
f 137 195 267
f 137 267 200
f 139 201 202
f 139 202 203
f 139 203 140
f 139 200 204
f 139 204 201
f 140 203 205
f 140 205 206
f 140 206 141
f 141 206 142
f 142 206 143
f 143 207 208
f 143 208 209
f 143 206 210
f 143 210 207
f 144 209 288
f 144 288 211
f 144 211 145
f 145 211 146
f 146 211 147
f 147 211 212
f 147 212 213
f 147 213 149
f 148 150 149
f 148 149 214
f 148 214 215
f 148 215 151
f 149 213 214
f 151 215 213
f 151 213 216
f 151 216 217
f 151 217 218
f 151 218 219
f 151 219 152
f 152 220 222
f 152 222 153
f 152 219 221
f 152 221 296
f 152 296 220
f 153 222 223
f 153 223 154
f 154 223 224
f 154 224 155
f 155 224 233
f 155 233 225
f 155 225 158
f 155 158 156
f 157 167 159
f 157 226 167
f 158 225 233
f 158 233 226
f 159 167 166
f 159 166 160
f 160 166 161
f 163 165 227
f 163 227 228
f 163 228 164
f 164 228 229
f 164 229 230
f 165 168 231
f 165 231 232
f 165 232 227
f 167 226 168
f 168 226 233
f 168 233 224
f 168 224 234
f 168 234 222
f 168 222 235
f 168 235 231
f 169 236 170
f 170 236 237
f 170 237 238
f 170 238 239
f 170 239 172
f 170 172 171
f 172 239 240
f 172 240 241
f 172 241 242
f 172 242 243
f 172 243 175
f 172 175 173
f 173 175 174
f 175 243 242
f 175 242 244
f 175 244 245
f 175 245 246
f 175 246 247
f 175 247 248
f 175 248 249
f 175 249 250
f 175 250 176
f 176 251 177
f 176 250 251
f 177 251 252
f 177 252 178
f 178 252 179
f 179 252 253
f 179 253 254
f 179 254 180
f 181 254 253
f 181 253 182
f 182 253 252
f 182 252 183
f 183 252 251
f 183 251 184
f 184 251 250
f 184 250 255
f 184 255 185
f 185 255 256
f 185 256 257
f 185 257 258
f 185 258 259
f 185 259 260
f 185 260 261
f 185 261 262
f 185 262 186
f 186 262 187
f 187 262 263
f 187 263 188
f 188 263 264
f 188 264 193
f 189 192 196
f 190 194 265
f 190 265 266
f 190 266 191
f 191 266 192
f 192 266 196
f 193 264 194
f 194 264 265
f 195 199 270
f 195 270 267
f 196 266 268
f 196 268 269
f 196 269 197
f 197 269 198
f 198 269 199
f 199 269 326
f 199 326 270
f 200 267 271
f 200 271 272
f 200 272 273
f 200 273 204
f 201 274 276
f 201 276 202
f 201 204 275
f 201 275 274
f 202 276 277
f 202 277 203
f 203 277 278
f 203 278 279
f 203 279 280
f 203 280 281
f 203 281 282
f 203 282 205
f 204 273 283
f 204 283 275
f 205 282 206
f 206 282 210
f 207 284 285
f 207 285 286
f 207 286 208
f 207 210 282
f 207 282 284
f 208 286 209
f 209 286 285
f 209 285 287
f 209 287 288
f 211 288 351
f 211 351 289
f 211 289 290
f 211 290 212
f 212 290 291
f 212 291 213
f 213 291 292
f 213 292 216
f 213 215 214
f 216 292 293
f 216 293 217
f 217 293 294
f 217 294 218
f 218 294 295
f 218 295 219
f 219 295 296
f 219 296 221
f 220 296 297
f 220 297 222
f 222 234 223
f 222 297 235
f 223 234 224
f 227 232 228
f 228 232 298
f 228 298 299
f 228 299 229
f 229 299 300
f 229 300 301
f 229 301 302
f 229 302 303
f 229 303 230
f 230 303 304
f 230 304 360
f 230 360 305
f 231 235 232
f 232 235 306
f 232 306 298
f 235 297 307
f 235 307 293
f 235 293 292
f 235 292 308
f 235 308 306
f 236 309 310
f 236 310 311
f 236 311 312
f 236 312 313
f 236 313 237
f 237 313 314
f 237 314 315
f 237 315 238
f 238 315 316
f 238 316 317
f 238 317 239
f 239 317 240
f 240 317 318
f 240 318 319
f 240 319 244
f 240 244 241
f 241 244 242
f 244 319 320
f 244 320 263
f 244 263 262
f 244 262 261
f 244 261 245
f 245 261 260
f 245 260 321
f 245 321 246
f 246 259 258
f 246 258 322
f 246 322 247
f 246 321 260
f 246 260 259
f 247 322 248
f 248 322 258
f 248 258 257
f 248 257 323
f 248 323 249
f 249 323 256
f 249 256 255
f 249 255 250
f 256 323 257
f 263 320 324
f 263 324 264
f 264 324 369
f 264 369 325
f 264 325 266
f 264 266 265
f 266 325 268
f 267 270 271
f 268 325 269
f 269 325 370
f 269 370 326
f 270 326 327
f 270 327 271
f 271 327 328
f 271 328 329
f 271 329 330
f 271 330 331
f 271 331 332
f 271 332 272
f 272 333 273
f 272 332 334
f 272 334 333
f 273 333 283
f 274 335 338
f 274 338 276
f 274 275 336
f 274 336 337
f 274 337 335
f 275 283 334
f 275 334 336
f 276 338 339
f 276 339 340
f 276 340 341
f 276 341 277
f 277 341 278
f 278 341 279
f 279 341 280
f 280 341 281
f 281 341 282
f 282 341 342
f 282 342 343
f 282 343 344
f 282 344 345
f 282 345 284
f 283 333 334
f 284 346 347
f 284 347 348
f 284 348 285
f 284 345 346
f 285 348 349
f 285 349 350
f 285 350 287
f 287 350 288
f 288 350 349
f 288 349 352
f 288 352 397
f 288 397 351
f 289 351 396
f 289 396 353
f 289 353 354
f 289 354 290
f 290 354 308
f 290 308 291
f 291 308 292
f 293 307 294
f 294 307 295
f 295 307 296
f 296 307 297
f 298 306 355
f 298 355 356
f 298 356 299
f 299 356 300
f 300 356 357
f 300 357 301
f 301 357 358
f 301 358 302
f 302 358 359
f 302 359 303
f 303 359 304
f 304 359 399
f 304 399 360
f 305 361 362
f 305 360 363
f 305 363 361
f 306 308 355
f 308 354 356
f 308 356 355
f 309 364 409
f 309 409 365
f 309 365 366
f 309 366 310
f 310 366 311
f 311 366 312
f 312 366 367
f 312 367 314
f 312 314 313
f 314 367 368
f 314 368 318
f 314 318 315
f 315 318 316
f 316 318 317
f 318 324 320
f 318 320 319
f 318 368 369
f 318 369 324
f 325 369 412
f 325 412 370
f 326 371 329
f 326 329 328
f 326 328 327
f 326 370 371
f 329 371 372
f 329 372 373
f 329 373 330
f 330 373 331
f 331 374 332
f 331 373 375
f 331 375 376
f 331 376 377
f 331 377 374
f 332 374 334
f 334 374 378
f 334 378 379
f 334 379 380
f 334 380 381
f 334 381 336
f 335 337 382
f 335 382 383
f 335 383 338
f 336 381 382
f 336 382 337
f 338 383 339
f 339 383 340
f 340 383 341
f 341 383 342
f 342 383 384
f 342 384 385
f 342 385 386
f 342 386 387
f 342 387 388
f 342 388 344
f 342 344 343
f 344 388 389
f 344 389 345
f 345 389 346
f 346 389 390
f 346 390 391
f 346 391 392
f 346 392 347
f 347 392 393
f 347 393 394
f 347 394 348
f 348 394 349
f 349 394 395
f 349 395 352
f 351 397 398
f 351 398 396
f 352 395 441
f 352 441 397
f 353 396 399
f 353 399 359
f 353 359 358
f 353 358 357
f 353 357 354
f 354 357 356
f 360 399 363
f 361 363 400
f 361 400 401
f 361 401 402
f 361 402 403
f 361 403 404
f 361 404 362
f 362 404 405
f 362 405 406
f 362 406 407
f 363 399 400
f 364 408 455
f 364 455 409
f 364 410 408
f 365 409 456
f 365 456 411
f 365 411 366
f 366 411 368
f 366 368 367
f 368 411 369
f 369 411 456
f 369 456 412
f 370 413 372
f 370 372 371
f 370 412 463
f 370 463 413
f 372 414 376
f 372 376 375
f 372 375 373
f 372 413 414
f 374 377 415
f 374 415 416
f 374 416 378
f 376 414 417
f 376 417 377
f 377 417 418
f 377 418 419
f 377 419 415
f 378 416 420
f 378 420 379
f 379 420 421
f 379 421 422
f 379 422 423
f 379 423 424
f 379 424 380
f 380 425 381
f 380 424 426
f 380 426 425
f 381 425 427
f 381 427 382
f 382 427 428
f 382 428 383
f 383 428 384
f 384 429 385
f 384 428 429
f 385 430 431
f 385 431 432
f 385 432 433
f 385 433 386
f 385 429 430
f 386 433 388
f 386 388 387
f 388 434 435
f 388 435 389
f 388 433 434
f 389 435 390
f 390 435 391
f 391 436 437
f 391 437 392
f 391 435 436
f 392 437 438
f 392 438 439
f 392 439 394
f 392 394 393
f 394 439 395
f 395 440 493
f 395 493 441
f 395 439 438
f 395 438 437
f 395 437 440
f 396 398 442
f 396 442 443
f 396 443 399
f 397 441 444
f 397 444 398
f 398 444 445
f 398 445 442
f 399 443 400
f 400 443 401
f 401 443 442
f 401 442 402
f 402 442 445
f 402 445 403
f 403 446 404
f 403 445 446
f 404 447 405
f 404 446 448
f 404 448 447
f 405 449 406
f 405 447 450
f 405 450 449
f 406 449 451
f 406 451 452
f 406 452 407
f 407 452 453
f 408 454 455
f 408 410 454
f 409 455 456
f 410 457 458
f 410 458 459
f 410 459 460
f 410 460 461
f 410 461 454
f 412 456 462
f 412 462 516
f 412 516 463
f 413 464 419
f 413 419 418
f 413 418 417
f 413 417 414
f 413 463 517
f 413 517 464
f 415 419 416
f 416 419 465
f 416 465 420
f 419 464 465
f 420 465 466
f 420 466 467
f 420 467 421
f 421 467 422
f 422 467 423
f 423 467 468
f 423 468 469
f 423 469 470
f 423 470 471
f 423 471 424
f 424 472 475
f 424 475 426
f 424 471 473
f 424 473 532
f 424 532 472
f 425 426 475
f 425 475 474
f 425 474 476
f 425 476 427
f 427 476 477
f 427 477 428
f 428 477 478
f 428 478 429
f 429 478 479
f 429 479 430
f 430 479 480
f 430 480 431
f 431 480 540
f 431 540 481
f 431 481 482
f 431 482 432
f 432 483 542
f 432 542 484
f 432 484 433
f 432 482 541
f 432 541 483
f 433 484 434
f 434 484 485
f 434 485 486
f 434 486 487
f 434 487 488
f 434 488 436
f 434 436 435
f 436 488 437
f 437 489 490
f 437 490 491
f 437 491 440
f 437 488 492
f 437 492 489
f 440 491 554
f 440 554 493
f 441 493 444
f 444 493 494
f 444 494 495
f 444 495 496
f 444 496 445
f 445 496 446
f 446 496 495
f 446 495 448
f 447 448 450
f 448 495 494
f 448 494 497
f 448 497 450
f 449 450 498
f 449 498 499
f 449 499 500
f 449 500 451
f 450 497 501
f 450 501 498
f 451 500 502
f 451 502 503
f 451 503 504
f 451 504 505
f 451 505 452
f 452 505 453
f 453 505 506
f 454 461 455
f 455 461 507
f 455 507 462
f 455 462 456
f 457 508 509
f 457 509 458
f 457 506 505
f 457 505 508
f 458 509 510
f 458 510 511
f 458 511 512
f 458 512 513
f 458 513 459
f 459 513 514
f 459 514 515
f 459 515 460
f 460 515 461
f 461 515 507
f 462 507 515
f 462 515 516
f 463 516 579
f 463 579 517
f 464 518 465
f 464 517 580
f 464 580 518
f 465 518 466
f 466 518 467
f 467 518 519
f 467 519 520
f 467 520 521
f 467 521 522
f 467 522 523
f 467 523 524
f 467 524 525
f 467 525 468
f 468 526 527
f 468 527 469
f 468 525 587
f 468 587 526
f 469 527 528
f 469 528 470
f 470 528 592
f 470 592 529
f 470 529 473
f 470 473 471
f 472 530 531
f 472 531 475
f 472 532 530
f 473 529 592
f 473 592 532
f 474 533 476
f 474 475 531
f 474 531 533
f 476 533 534
f 476 534 535
f 476 535 477
f 477 535 536
f 477 536 478
f 478 536 537
f 478 537 479
f 479 537 538
f 479 538 480
f 480 538 539
f 480 539 540
f 481 540 541
f 481 541 482
f 483 541 539
f 483 539 542
f 484 542 543
f 484 543 485
f 485 543 544
f 485 544 486
f 486 544 547
f 486 547 487
f 487 545 546
f 487 546 488
f 487 547 566
f 487 566 545
f 488 546 548
f 488 548 549
f 488 549 550
f 488 550 492
f 489 551 596
f 489 596 552
f 489 552 553
f 489 553 490
f 489 492 551
f 490 553 554
f 490 554 491
f 492 550 558
f 492 558 555
f 492 555 596
f 492 596 551
f 493 554 494
f 494 554 556
f 494 556 557
f 494 557 558
f 494 558 501
f 494 501 497
f 498 501 559
f 498 559 560
f 498 560 561
f 498 561 562
f 498 562 499
f 499 502 500
f 499 562 539
f 499 539 502
f 501 558 563
f 501 563 564
f 501 564 565
f 501 565 566
f 501 566 559
f 502 539 538
f 502 538 537
f 502 537 536
f 502 536 503
f 503 536 535
f 503 535 504
f 504 535 534
f 504 534 567
f 504 567 508
f 504 508 505
f 508 567 509
f 509 568 569
f 509 569 570
f 509 570 510
f 509 567 568
f 510 570 511
f 511 571 572
f 511 572 573
f 511 573 574
f 511 574 575
f 511 575 512
f 511 570 576
f 511 576 571
f 512 575 577
f 512 577 513
f 513 577 578
f 513 578 514
f 514 578 516
f 514 516 515
f 516 578 577
f 516 577 575
f 516 575 579
f 517 579 580
f 518 580 581
f 518 581 519
f 519 581 582
f 519 582 520
f 520 582 583
f 520 583 521
f 521 583 584
f 521 584 522
f 522 584 586
f 522 586 523
f 523 585 524
f 523 586 598
f 523 598 585
f 524 585 598
f 524 598 587
f 524 587 525
f 526 588 589
f 526 589 590
f 526 590 527
f 526 587 588
f 527 590 591
f 527 591 528
f 528 591 592
f 530 532 591
f 530 591 593
f 530 593 569
f 530 569 531
f 531 569 533
f 532 592 591
f 533 568 534
f 533 569 568
f 534 568 567
f 539 562 542
f 539 541 540
f 542 562 561
f 542 561 543
f 543 561 560
f 543 560 544
f 544 560 559
f 544 559 547
f 545 566 565
f 545 565 594
f 545 594 548
f 545 548 546
f 547 559 566
f 548 594 565
f 548 565 564
f 548 564 595
f 548 595 549
f 549 595 558
f 549 558 550
f 552 596 556
f 552 556 553
f 553 556 554
f 555 558 557
f 555 557 596
f 556 596 557
f 558 595 563
f 563 595 564
f 569 593 570
f 570 593 597
f 570 597 576
f 571 588 587
f 571 587 598
f 571 598 586
f 571 586 599
f 571 599 583
f 571 583 581
f 571 581 580
f 571 580 573
f 571 573 572
f 571 576 597
f 571 597 593
f 571 593 588
f 573 580 574
f 574 580 575
f 575 580 579
f 581 583 582
f 583 599 584
f 584 599 586
f 588 593 589
f 589 593 590
f 590 593 591
