v 0.113212 0.806807 -0.00926449
v 0.112237 0.792789 -0.00926449
v 0.111528 0.796085 -0.019615
v 0.111638 0.806807 -0.0201691
v 0.111528 0.81751 -0.019615
v 0.112237 0.820824 -0.00926449
v 0.112237 0.820824 0.00926449
v 0.11319 0.806807 0.00926449
v 0.112237 0.792789 0.00926449
v 0.109777 0.783517 -0.00926449
v 0.107139 0.78924 -0.0265966
v 0.0999803 0.788244 -0.0463668
v 0.10346 0.806807 -0.0463668
v 0.109378 0.806807 -0.0294336
v 0.10807 0.824356 -0.0265966
v 0.0927327 0.927349 -0.0185733
v 0.0933312 0.928254 -0.00926449
v 0.0935085 0.928526 0.0055188
v 0.111528 0.81751 0.019615
v 0.111638 0.806807 0.0201691
v 0.111528 0.796085 0.019615
v 0.109777 0.783517 0.00926449
v 0.0913586 0.75253 -0.00926449
v 0.0882778 0.75253 -0.0276383
v 0.0876129 0.75253 -0.030032
v 0.0930874 0.778663 -0.0562297
v 0.0946831 0.788244 -0.0585569
v 0.100689 0.825352 -0.0463668
v 0.0961016 0.806807 -0.060596
v 0.0946831 0.825352 -0.0585791
v 0.0748688 0.9282 -0.0565178
v 0.0776393 0.930464 -0.0463668
v 0.0839559 0.931369 -0.025976
v 0.0834462 0.933343 -0.00926449
v 0.0851971 0.93213 0.0107273
v 0.0816952 0.932438 0.0278156
v 0.0776836 0.9305 0.0463668
v 0.0893195 0.918058 0.0278156
v 0.0925111 0.918058 0.0175316
v 0.108048 0.824356 0.0265966
v 0.10346 0.806807 0.0463668
v 0.109378 0.806807 0.0294336
v 0.0999803 0.788244 0.0463668
v 0.107139 0.78924 0.0265966
v 0.0930874 0.778663 0.0562297
v 0.0882778 0.75253 0.0276383
v 0.0913586 0.75253 0.00926449
v 0.0798335 0.75253 -0.0464776
v 0.0735833 0.75253 -0.0546117
v 0.0651168 0.75253 -0.0651174
v 0.0753343 0.778283 -0.0753349
v 0.0780382 0.788244 -0.0780389
v 0.0873026 0.788244 -0.0678436
v 0.0894304 0.806807 -0.0698826
v 0.08748 0.825352 -0.0678436
v 0.0635654 0.930391 -0.0635881
v 0.0782155 0.825352 -0.0782163
v 0.0564952 0.928164 -0.0748252
v 0.0648952 0.935553 -0.0463668
v 0.0648952 0.937454 -0.0278156
v 0.0648952 0.937527 -0.00926449
v 0.0648952 0.937527 0.0278156
v 0.0648952 0.935607 0.0463668
v 0.0635875 0.930391 0.0635659
v 0.0748245 0.928164 0.0564957
v 0.100689 0.825352 0.0463668
v 0.0946831 0.825352 0.0585791
v 0.0961016 0.806807 0.060596
v 0.0946831 0.788244 0.0585569
v 0.0651168 0.75253 0.0651174
v 0.0798335 0.75253 0.0464776
v 0.0873026 0.788244 0.0678436
v 0.0780382 0.788244 0.0780389
v 0.0753343 0.778283 0.0753349
v 0.0546113 0.75253 -0.073584
v 0.0562292 0.778663 -0.0930882
v 0.067843 0.788244 -0.0873034
v 0.0801438 0.806807 -0.0801445
v 0.0463664 0.935607 -0.0648958
v 0.0463664 0.9305 -0.0776843
v 0.069882 0.806807 -0.0894312
v 0.067843 0.825352 -0.0874807
v 0.0585785 0.825352 -0.094684
v 0.0463664 0.825352 -0.10069
v 0.0278154 0.918058 -0.0893203
v 0.0463664 0.937527 -0.0463668
v 0.0463664 0.937527 0.0463668
v 0.0463664 0.935553 0.0648958
v 0.0463664 0.930464 0.07764
v 0.0565173 0.9282 0.0748695
v 0.0782155 0.825352 0.0782163
v 0.08748 0.825352 0.0678436
v 0.0894304 0.806807 0.0698826
v 0.0562292 0.778663 0.0930882
v 0.0464772 0.75253 0.0798342
v 0.0801438 0.806807 0.0801445
v 0.067843 0.788244 0.0873034
v 0.0464772 0.75253 -0.0798342
v 0.0276381 0.75253 -0.0882786
v 0.00926441 0.783517 -0.109778
v 0.0265964 0.78924 -0.10714
v 0.0463664 0.788244 -0.0999812
v 0.0585564 0.788244 -0.094684
v 0.0278154 0.937527 -0.0648958
v 0.0278154 0.932438 -0.081696
v 0.00549659 0.928526 -0.0935093
v 0.0605954 0.806807 -0.0961025
v 0.0463664 0.806807 -0.103461
v 0.0265964 0.824356 -0.108049
v 0.0175315 0.918058 -0.0925119
v 0.00926441 0.937527 0.0648958
v 0.0278154 0.937454 0.0648958
v 0.00926441 0.933343 0.0834469
v 0.0259758 0.931369 0.0839567
v 0.0185731 0.927349 0.0927336
v 0.0463664 0.825352 0.10069
v 0.0585785 0.825352 0.094684
v 0.067843 0.825352 0.0874807
v 0.069882 0.806807 0.0894312
v 0.0585564 0.788244 0.094684
v 0.0463664 0.788244 0.0999812
v 0.0265964 0.78924 0.10714
v 0.00926441 0.783517 0.109778
v 0.0300318 0.75253 0.0876137
v 0.00926441 0.75253 -0.0913594
v -0.00926441 0.783517 -0.109778
v 0.00926441 0.792789 -0.112238
v 0.0196148 0.796085 -0.111529
v -0.00926441 0.937527 -0.0648958
v 0.0107272 0.93213 -0.0851979
v -0.00926441 0.933343 -0.0834469
v 0.0196148 0.81751 -0.111529
v 0.00926441 0.820824 -0.112238
v -0.00926441 0.820824 -0.112238
v -0.00926441 0.928254 -0.093332
v 0.0294333 0.806807 -0.109379
v -0.0278154 0.937527 0.0648958
v -0.0107272 0.93213 0.0851979
v -0.00549659 0.928526 0.0935093
v 0.00926441 0.928254 0.093332
v 0.00926441 0.820824 0.112238
v 0.0196148 0.81751 0.111529
v 0.0265964 0.824356 0.108071
v 0.0463664 0.806807 0.103461
v 0.0605954 0.806807 0.0961025
v 0.0196148 0.796085 0.111529
v 0.00926441 0.792789 0.112238
v -0.00926441 0.783517 0.109778
v 0.00926441 0.75253 0.0913594
v 0.0276381 0.75253 0.0882786
v -0.00926441 0.75253 -0.0913594
v -0.0265964 0.78924 -0.10714
v -0.0196148 0.796085 -0.111529
v -0.00926441 0.792789 -0.112238
v -0.0276381 0.75253 -0.0882786
v -0.0300318 0.75253 -0.0876137
v -0.0562292 0.778663 -0.0930882
v 0.00926441 0.806807 -0.113213
v 0.0201689 0.806807 -0.111639
v -0.0278154 0.937454 -0.0648958
v -0.0463664 0.937527 -0.0463668
v -0.0259758 0.931369 -0.0839567
v -0.0463664 0.935553 -0.0648958
v -0.00926441 0.806807 -0.113213
v -0.0196148 0.81751 -0.111529
v -0.0185731 0.927349 -0.0927336
v -0.0463664 0.937527 0.0463668
v -0.0463664 0.935607 0.0648958
v -0.0278154 0.932438 0.081696
v -0.0175315 0.918058 0.0925119
v -0.0196148 0.81751 0.111529
v -0.00926441 0.820824 0.112238
v -0.0463664 0.9305 0.0776843
v -0.0278154 0.918058 0.0893203
v 0.00926441 0.806807 0.113213
v 0.0201689 0.806807 0.111639
v 0.0294333 0.806807 0.109379
v -0.00926441 0.792789 0.112238
v -0.00926441 0.75253 0.0913594
v -0.0196148 0.796085 0.111529
v -0.0265964 0.78924 0.10714
v -0.0562292 0.778663 0.0930882
v -0.0276381 0.75253 0.0882786
v -0.0463664 0.788244 -0.0999812
v -0.0201689 0.806807 -0.111639
v -0.0463664 0.806807 -0.103461
v -0.0294333 0.806807 -0.109379
v -0.0464772 0.75253 -0.0798342
v -0.0753343 0.778283 -0.0753349
v -0.0780382 0.788244 -0.0780389
v -0.067843 0.788244 -0.0873034
v -0.0585564 0.788244 -0.094684
v -0.0651168 0.75253 -0.0651174
v -0.0648952 0.935607 -0.0463668
v -0.0648952 0.937527 -0.0278156
v -0.0463664 0.930464 -0.07764
v -0.0635875 0.930391 -0.0635659
v -0.0265964 0.824356 -0.108071
v -0.0463664 0.825352 -0.10069
v -0.0565173 0.9282 -0.0748695
v -0.0648952 0.935553 0.0463668
v -0.0648952 0.937527 0.00926449
v -0.0648952 0.937454 0.0278156
v -0.0635654 0.930391 0.0635881
v -0.0265964 0.824356 0.108049
v -0.0463664 0.806807 0.103461
v -0.0294333 0.806807 0.109379
v -0.0201689 0.806807 0.111639
v -0.00926441 0.806807 0.113213
v -0.0564952 0.928164 0.0748252
v -0.0463664 0.825352 0.10069
v -0.0463664 0.788244 0.0999812
v -0.0546113 0.75253 0.073584
v -0.0464772 0.75253 0.0798342
v -0.0585564 0.788244 0.094684
v -0.067843 0.788244 0.0873034
v -0.0780382 0.788244 0.0780389
v -0.0753343 0.778283 0.0753349
v -0.0651168 0.75253 0.0651174
v -0.0605954 0.806807 -0.0961025
v -0.0585785 0.825352 -0.094684
v -0.0930874 0.778663 -0.0562297
v -0.0801438 0.806807 -0.0801445
v -0.0873026 0.788244 -0.0678436
v -0.069882 0.806807 -0.0894312
v -0.0798335 0.75253 -0.0464776
v -0.0776836 0.9305 -0.0463668
v -0.0816952 0.932438 -0.0278156
v -0.0851971 0.93213 -0.0107273
v -0.0834462 0.933343 0.00926449
v -0.0748245 0.928164 -0.0564957
v -0.067843 0.825352 -0.0874807
v -0.0782155 0.825352 -0.0782163
v -0.0776393 0.930464 0.0463668
v -0.0839559 0.931369 0.025976
v -0.0748688 0.9282 0.0565178
v -0.0585785 0.825352 0.094684
v -0.0605954 0.806807 0.0961025
v -0.0782155 0.825352 0.0782163
v -0.067843 0.825352 0.0874807
v -0.069882 0.806807 0.0894312
v -0.0801438 0.806807 0.0801445
v -0.0873026 0.788244 0.0678436
v -0.0930874 0.778663 0.0562297
v -0.0735833 0.75253 0.0546117
v -0.0882778 0.75253 -0.0276383
v -0.109777 0.783517 -0.00926449
v -0.107139 0.78924 -0.0265966
v -0.0999803 0.788244 -0.0463668
v -0.0946831 0.788244 -0.0585569
v -0.0894304 0.806807 -0.0698826
v -0.0893195 0.918058 -0.0278156
v -0.0935085 0.928526 -0.0055188
v -0.0933312 0.928254 0.00926449
v -0.0946831 0.825352 -0.0585791
v -0.100689 0.825352 -0.0463668
v -0.08748 0.825352 -0.0678436
v -0.0927327 0.927349 0.0185733
v -0.100689 0.825352 0.0463668
v -0.0946831 0.825352 0.0585791
v -0.08748 0.825352 0.0678436
v -0.0894304 0.806807 0.0698826
v -0.0946831 0.788244 0.0585569
v -0.0999803 0.788244 0.0463668
v -0.107139 0.78924 0.0265966
v -0.109777 0.783517 0.00926449
v -0.0876129 0.75253 0.030032
v -0.0798335 0.75253 0.0464776
v -0.0913586 0.75253 -0.00926449
v -0.112237 0.792789 -0.00926449
v -0.111528 0.796085 -0.019615
v -0.10346 0.806807 -0.0463668
v -0.0961016 0.806807 -0.060596
v -0.108048 0.824356 -0.0265966
v -0.0925111 0.918058 -0.0175316
v -0.111528 0.81751 -0.019615
v -0.112237 0.820824 -0.00926449
v -0.112237 0.820824 0.00926449
v -0.111528 0.81751 0.019615
v -0.10807 0.824356 0.0265966
v -0.10346 0.806807 0.0463668
v -0.0961016 0.806807 0.060596
v -0.111528 0.796085 0.019615
v -0.0913586 0.75253 0.00926449
v -0.0882778 0.75253 0.0276383
v -0.112237 0.792789 0.00926449
v -0.113212 0.806807 -0.00926449
v -0.111638 0.806807 -0.0201691
v -0.109378 0.806807 -0.0294336
v -0.11319 0.806807 0.00926449
v -0.111638 0.806807 0.0201691
v -0.109378 0.806807 0.0294336
f 1 2 3
f 1 3 4
f 1 4 5
f 1 5 6
f 1 6 7
f 1 7 8
f 1 8 9
f 1 9 2
f 2 10 3
f 2 9 22
f 2 22 10
f 3 11 12
f 3 12 13
f 3 13 14
f 3 14 4
f 3 10 11
f 4 14 5
f 5 14 13
f 5 13 15
f 5 15 16
f 5 16 6
f 6 16 17
f 6 17 18
f 6 18 7
f 7 18 19
f 7 19 8
f 8 19 20
f 8 20 21
f 8 21 9
f 9 21 22
f 10 23 24
f 10 24 25
f 10 25 26
f 10 26 11
f 10 22 47
f 10 47 23
f 11 26 12
f 12 26 27
f 12 27 13
f 13 28 15
f 13 27 29
f 13 29 30
f 13 30 28
f 15 28 16
f 16 28 31
f 16 31 32
f 16 32 33
f 16 33 17
f 17 33 34
f 17 34 18
f 18 35 36
f 18 36 37
f 18 37 38
f 18 38 39
f 18 39 19
f 18 34 35
f 19 40 41
f 19 41 42
f 19 42 20
f 19 39 40
f 20 42 21
f 21 42 41
f 21 41 43
f 21 43 44
f 21 44 22
f 22 44 45
f 22 45 46
f 22 46 47
f 23 47 46
f 23 46 71
f 23 71 70
f 23 70 95
f 23 95 124
f 23 124 150
f 23 150 149
f 23 149 179
f 23 179 183
f 23 183 214
f 23 214 213
f 23 213 219
f 23 219 245
f 23 245 268
f 23 268 267
f 23 267 285
f 23 285 284
f 23 284 269
f 23 269 246
f 23 246 226
f 23 226 193
f 23 193 188
f 23 188 156
f 23 156 155
f 23 155 151
f 23 151 125
f 23 125 99
f 23 99 98
f 23 98 75
f 23 75 50
f 23 50 49
f 23 49 48
f 23 48 25
f 23 25 24
f 25 48 26
f 26 48 49
f 26 49 50
f 26 50 51
f 26 51 52
f 26 52 53
f 26 53 27
f 27 53 54
f 27 54 29
f 28 30 31
f 29 54 30
f 30 54 55
f 30 55 31
f 31 56 32
f 31 55 57
f 31 57 58
f 31 58 56
f 32 56 59
f 32 59 33
f 33 59 34
f 34 59 60
f 34 60 61
f 34 61 62
f 34 62 35
f 35 62 36
f 36 62 63
f 36 63 37
f 37 63 64
f 37 64 65
f 37 65 38
f 38 40 39
f 38 65 66
f 38 66 40
f 40 66 41
f 41 66 67
f 41 67 68
f 41 68 69
f 41 69 43
f 43 69 45
f 43 45 44
f 45 70 71
f 45 71 46
f 45 69 72
f 45 72 73
f 45 73 74
f 45 74 70
f 50 75 76
f 50 76 51
f 51 76 52
f 52 77 78
f 52 78 53
f 52 76 77
f 53 78 54
f 54 78 57
f 54 57 55
f 56 79 59
f 56 58 80
f 56 80 79
f 57 78 81
f 57 81 82
f 57 82 58
f 58 82 83
f 58 83 84
f 58 84 85
f 58 85 80
f 59 79 86
f 59 86 60
f 60 86 61
f 61 86 104
f 61 104 129
f 61 129 161
f 61 161 195
f 61 195 202
f 61 202 167
f 61 167 137
f 61 137 111
f 61 111 87
f 61 87 62
f 62 87 63
f 63 87 88
f 63 88 64
f 64 88 89
f 64 89 90
f 64 90 65
f 65 67 66
f 65 90 91
f 65 91 92
f 65 92 67
f 67 92 93
f 67 93 68
f 68 93 69
f 69 93 72
f 70 74 94
f 70 94 95
f 72 93 96
f 72 96 73
f 73 96 97
f 73 97 94
f 73 94 74
f 75 98 76
f 76 98 99
f 76 99 100
f 76 100 101
f 76 101 102
f 76 102 103
f 76 103 77
f 77 81 78
f 77 103 81
f 79 104 86
f 79 80 105
f 79 105 104
f 80 85 106
f 80 106 105
f 81 103 107
f 81 107 83
f 81 83 82
f 83 107 108
f 83 108 84
f 84 108 109
f 84 109 85
f 85 109 110
f 85 110 106
f 87 111 112
f 87 112 88
f 88 112 113
f 88 113 114
f 88 114 89
f 89 114 115
f 89 115 90
f 90 115 116
f 90 116 117
f 90 117 118
f 90 118 91
f 91 118 119
f 91 119 96
f 91 96 93
f 91 93 92
f 94 97 120
f 94 120 121
f 94 121 122
f 94 122 123
f 94 123 124
f 94 124 95
f 96 119 97
f 97 119 120
f 99 125 100
f 100 125 151
f 100 151 126
f 100 126 154
f 100 154 127
f 100 127 128
f 100 128 101
f 101 128 102
f 102 128 108
f 102 108 103
f 103 108 107
f 104 105 130
f 104 130 131
f 104 131 129
f 105 106 130
f 106 110 132
f 106 132 133
f 106 133 134
f 106 134 135
f 106 135 131
f 106 131 130
f 108 128 136
f 108 136 132
f 108 132 109
f 109 132 110
f 111 137 113
f 111 113 112
f 113 138 139
f 113 139 140
f 113 140 114
f 113 137 138
f 114 140 115
f 115 140 141
f 115 141 142
f 115 142 143
f 115 143 116
f 116 143 144
f 116 144 117
f 117 144 145
f 117 145 119
f 117 119 118
f 119 145 120
f 120 145 144
f 120 144 121
f 121 144 146
f 121 146 122
f 122 146 123
f 123 146 147
f 123 147 178
f 123 178 148
f 123 148 179
f 123 179 149
f 123 149 150
f 123 150 124
f 126 152 153
f 126 153 154
f 126 151 155
f 126 155 156
f 126 156 157
f 126 157 152
f 127 154 164
f 127 164 158
f 127 158 128
f 128 158 159
f 128 159 136
f 129 160 161
f 129 131 160
f 131 135 162
f 131 162 163
f 131 163 160
f 132 136 159
f 132 159 158
f 132 158 133
f 133 158 164
f 133 164 134
f 134 164 165
f 134 165 166
f 134 166 135
f 135 166 162
f 137 167 168
f 137 168 169
f 137 169 138
f 138 169 139
f 139 170 171
f 139 171 172
f 139 172 141
f 139 141 140
f 139 169 173
f 139 173 174
f 139 174 170
f 141 172 209
f 141 209 175
f 141 175 142
f 142 175 176
f 142 176 177
f 142 177 144
f 142 144 143
f 144 177 146
f 146 176 175
f 146 175 147
f 146 177 176
f 147 175 209
f 147 209 178
f 148 178 180
f 148 180 181
f 148 181 182
f 148 182 183
f 148 183 179
f 152 157 184
f 152 184 153
f 153 185 164
f 153 164 154
f 153 184 186
f 153 186 187
f 153 187 185
f 156 188 157
f 157 189 190
f 157 190 191
f 157 191 192
f 157 192 184
f 157 188 193
f 157 193 189
f 160 163 161
f 161 163 194
f 161 194 195
f 162 196 163
f 162 166 196
f 163 197 194
f 163 196 197
f 164 185 165
f 165 185 187
f 165 187 186
f 165 186 198
f 165 198 166
f 166 198 199
f 166 199 200
f 166 200 196
f 167 201 168
f 167 202 203
f 167 203 201
f 168 201 204
f 168 204 173
f 168 173 169
f 170 205 171
f 170 174 205
f 171 205 206
f 171 206 207
f 171 207 208
f 171 208 209
f 171 209 172
f 173 210 174
f 173 204 210
f 174 210 211
f 174 211 205
f 178 209 180
f 180 207 206
f 180 206 212
f 180 212 181
f 180 209 208
f 180 208 207
f 181 212 182
f 182 213 214
f 182 214 183
f 182 212 215
f 182 215 216
f 182 216 217
f 182 217 218
f 182 218 219
f 182 219 213
f 184 192 186
f 186 192 220
f 186 220 221
f 186 221 199
f 186 199 198
f 189 193 222
f 189 222 190
f 190 223 191
f 190 222 224
f 190 224 223
f 191 223 225
f 191 225 192
f 192 225 220
f 193 226 222
f 194 197 227
f 194 227 228
f 194 228 195
f 195 228 229
f 195 229 230
f 195 230 202
f 196 200 197
f 197 231 227
f 197 200 231
f 199 221 200
f 200 221 232
f 200 232 233
f 200 233 231
f 201 234 204
f 201 203 230
f 201 230 235
f 201 235 234
f 202 230 203
f 204 234 236
f 204 236 210
f 205 211 206
f 206 211 237
f 206 237 238
f 206 238 215
f 206 215 212
f 210 239 240
f 210 240 237
f 210 237 211
f 210 236 239
f 215 238 241
f 215 241 216
f 216 241 242
f 216 242 217
f 217 242 243
f 217 243 244
f 217 244 218
f 218 244 219
f 219 244 245
f 220 225 221
f 221 225 232
f 222 226 246
f 222 246 247
f 222 247 248
f 222 248 249
f 222 249 250
f 222 250 224
f 223 224 251
f 223 251 233
f 223 233 225
f 224 250 251
f 225 233 232
f 227 231 252
f 227 252 253
f 227 253 228
f 228 253 229
f 229 253 230
f 230 254 235
f 230 253 254
f 231 255 256
f 231 256 252
f 231 233 257
f 231 257 255
f 233 251 257
f 234 235 258
f 234 258 236
f 235 254 258
f 236 258 259
f 236 259 260
f 236 260 261
f 236 261 239
f 237 240 241
f 237 241 238
f 239 242 241
f 239 241 240
f 239 261 262
f 239 262 242
f 242 262 243
f 243 262 263
f 243 263 244
f 244 263 264
f 244 264 265
f 244 265 266
f 244 266 267
f 244 267 268
f 244 268 245
f 246 269 247
f 247 270 271
f 247 271 248
f 247 269 284
f 247 284 266
f 247 266 286
f 247 286 270
f 248 271 249
f 249 272 250
f 249 271 272
f 250 272 273
f 250 273 251
f 251 273 255
f 251 255 257
f 252 274 275
f 252 275 253
f 252 256 274
f 253 275 276
f 253 276 277
f 253 277 278
f 253 278 254
f 254 278 258
f 255 273 272
f 255 272 256
f 256 272 274
f 258 279 280
f 258 280 259
f 258 278 279
f 259 281 260
f 259 280 281
f 260 282 262
f 260 262 261
f 260 281 282
f 262 282 263
f 263 282 281
f 263 281 264
f 264 281 283
f 264 283 265
f 265 283 266
f 266 284 285
f 266 285 267
f 266 283 286
f 270 287 271
f 270 286 287
f 271 288 289
f 271 289 272
f 271 287 288
f 272 289 276
f 272 276 274
f 274 276 275
f 276 289 288
f 276 288 287
f 276 287 277
f 277 287 278
f 278 290 279
f 278 287 290
f 279 291 292
f 279 292 281
f 279 281 280
f 279 290 291
f 281 292 283
f 283 292 291
f 283 291 290
f 283 290 286
f 286 290 287
