v -0.120149 0.750163 -0.00924495
v -0.120126 0.750163 0.00924294
v -0.119585 0.768662 0.00924294
v -0.119585 0.768662 -0.00924495
v -0.116433 0.768662 -0.0277799
v -0.11695 0.750163 -0.0277799
v -0.118197 0.52725 -0.00990355
v -0.118291 0.52725 -0.00924495
v -0.118291 0.52725 0.00924294
v -0.11695 0.750163 0.0277779
v -0.116433 0.768662 0.0277779
v -0.111258 0.908648 0.019122
v -0.112717 0.898317 0.00924294
v -0.112717 0.898317 -0.00924495
v -0.111258 0.908648 -0.019124
v -0.112787 0.768662 -0.0411166
v -0.113022 0.750163 -0.041634
v -0.112082 0.52725 -0.0391878
v -0.114904 0.52725 -0.0283914
v -0.115045 0.52725 -0.0277799
v -0.115045 0.52725 0.0277779
v -0.113022 0.750163 0.041632
v -0.112787 0.768662 0.0411146
v -0.112082 0.52725 0.0391858
v -0.109047 0.898317 0.0286952
v -0.102979 0.898317 0.0462893
v -0.108036 0.915615 0.026296
v -0.110223 0.921822 0.00924294
v -0.111917 0.912572 0.00924294
v -0.111917 0.912572 -0.00924495
v -0.110223 0.921822 -0.00924495
v -0.108036 0.915615 -0.026298
v -0.102979 0.898317 -0.0462913
v -0.109047 0.898317 -0.0286972
v -0.108859 0.768662 -0.050384
v -0.109141 0.750163 -0.0509015
v -0.107895 0.52725 -0.0487846
v -0.109141 0.750163 0.0508995
v -0.108859 0.768662 0.050382
v -0.108271 0.52725 0.048124
v -0.095781 0.898317 0.060261
v -0.0947931 0.916857 0.0588262
v -0.100979 0.916857 0.0462893
v -0.0934053 0.926947 0.0567799
v -0.095781 0.928789 0.0462893
v -0.099027 0.930751 0.0277779
v -0.100956 0.931191 0.00924294
v -0.100956 0.931191 -0.00924495
v -0.099027 0.930751 -0.0277799
v -0.095781 0.928789 -0.0462913
v -0.0934053 0.926947 -0.0567819
v -0.100979 0.916857 -0.0462913
v -0.0947931 0.916857 -0.0588282
v -0.095781 0.898317 -0.060263
v -0.100509 0.768662 -0.0648262
v -0.101003 0.750163 -0.0648262
v -0.0977333 0.52725 -0.0662846
v -0.101003 0.750163 0.0648242
v -0.100509 0.768662 0.0648242
v -0.0977098 0.52725 0.0662826
v -0.0891009 0.898317 0.0695285
v -0.0934994 0.768662 0.0752207
v -0.0879248 0.916857 0.0680937
v -0.0763522 0.927908 0.0763498
v -0.0828441 0.92971 0.0636952
v -0.0833381 0.933874 0.0462893
v -0.0833381 0.935836 0.0277779
v -0.0833381 0.936277 0.00924294
v -0.0833381 0.936277 -0.00924495
v -0.0833381 0.935836 -0.0277799
v -0.0833381 0.933874 -0.0462913
v -0.0828441 0.92971 -0.0636972
v -0.0763522 0.927908 -0.0763518
v -0.0879248 0.916857 -0.0680957
v -0.0891009 0.898317 -0.0695305
v -0.0934994 0.768662 -0.0752227
v -0.0937346 0.750163 -0.0755285
v -0.0921117 0.533217 -0.0734351
v -0.0836204 0.52725 -0.0828907
v -0.0937346 0.750163 0.0755265
v -0.092488 0.52725 0.0739035
v -0.0798334 0.898317 0.0798309
v -0.0786573 0.916857 0.0786549
v -0.0847964 0.750163 0.084794
v -0.0844906 0.768662 0.0844882
v -0.0680961 0.916857 0.0879223
v -0.0567822 0.926947 0.0934028
v -0.0636975 0.92971 0.0828417
v -0.0648266 0.935116 0.0648242
v -0.0648266 0.936277 0.0462893
v -0.0648266 0.936277 -0.0462913
v -0.0648266 0.935116 -0.0648262
v -0.0567822 0.926947 -0.0934048
v -0.0680961 0.916857 -0.0879243
v -0.0786573 0.916857 -0.0786569
v -0.0636975 0.92971 -0.0828437
v -0.0798334 0.898317 -0.0798329
v -0.0844906 0.768662 -0.0844902
v -0.0847964 0.750163 -0.084796
v -0.0828912 0.52725 -0.0836199
v -0.0836204 0.52725 0.0828652
v -0.0695309 0.898317 0.0890984
v -0.0752231 0.768662 0.0934969
v -0.0755289 0.750163 0.0937321
v -0.0828677 0.52725 0.0836179
v -0.0739059 0.52725 0.0924855
v -0.0588286 0.916857 0.0947906
v -0.0462915 0.928789 0.0957785
v -0.0462915 0.916857 0.100977
v -0.0262982 0.915615 0.108033
v -0.0462915 0.933914 0.0833356
v -0.02778 0.935836 0.0833356
v -0.0462915 0.936277 0.0648242
v -0.0462915 0.936277 -0.0648262
v -0.0462915 0.933914 -0.0833376
v -0.02778 0.935836 -0.0833376
v -0.0462915 0.928789 -0.0957805
v -0.0262982 0.915615 -0.108035
v -0.0462915 0.916857 -0.100979
v -0.0588286 0.916857 -0.0947926
v -0.0695309 0.898317 -0.0891004
v -0.0752231 0.768662 -0.0934989
v -0.0755289 0.750163 -0.0937341
v -0.0734355 0.533217 -0.0921111
v -0.0662849 0.52725 -0.0977328
v -0.0602634 0.898317 0.0957785
v -0.0648266 0.750163 0.101
v -0.0648266 0.768662 0.100506
v -0.0662849 0.52725 0.0977308
v -0.0462915 0.898317 0.102976
v -0.02778 0.930751 0.099048
v -0.009245 0.921822 0.110221
v -0.0191241 0.908648 0.111256
v -0.009245 0.931191 0.100953
v -0.009245 0.936277 0.0833356
v -0.009245 0.936277 -0.0833376
v -0.02778 0.930751 -0.09905
v -0.009245 0.931191 -0.100955
v -0.009245 0.921822 -0.110223
v -0.0191241 0.908648 -0.111258
v -0.0462915 0.898317 -0.102978
v -0.0602634 0.898317 -0.0957805
v -0.0648266 0.768662 -0.100508
v -0.0648266 0.750163 -0.101002
v -0.0481262 0.52725 -0.10827
v -0.0509018 0.750163 -0.109141
v -0.0503843 0.768662 0.10888
v -0.0509018 0.750163 0.109139
v -0.0487848 0.52725 0.107892
v -0.0286974 0.898317 0.109045
v -0.0411168 0.768662 0.112785
v 0.009243 0.921822 0.110221
v -0.009245 0.912572 0.111914
v -0.009245 0.898317 0.112714
v -0.02778 0.768662 0.11643
v -0.009245 0.768662 0.119582
v 0.009243 0.931191 0.100953
v 0.009243 0.936277 0.0833356
v 0.009243 0.936277 -0.0833376
v 0.009243 0.931191 -0.100955
v 0.009243 0.921822 -0.110223
v -0.009245 0.912572 -0.111916
v -0.0286974 0.898317 -0.109047
v -0.009245 0.898317 -0.112716
v -0.009245 0.768662 -0.119584
v -0.02778 0.768662 -0.116432
v -0.0411168 0.768662 -0.112787
v -0.0503843 0.768662 -0.108882
v -0.039188 0.52725 -0.112081
v -0.0416343 0.750163 -0.113022
v -0.0416343 0.750163 0.11302
v -0.039188 0.52725 0.112079
v -0.02778 0.750163 0.116948
v 0.0462895 0.928789 0.0957785
v 0.027778 0.930751 0.099048
v 0.009243 0.912572 0.111914
v 0.0191221 0.908648 0.111256
v 0.0262962 0.915615 0.108033
v 0.009243 0.898317 0.112714
v -0.009245 0.750163 0.120147
v 0.009243 0.768662 0.119582
v 0.027778 0.935836 0.0833356
v 0.0462895 0.936277 0.0648242
v 0.0462895 0.936277 -0.0648262
v 0.027778 0.935836 -0.0833376
v 0.027778 0.930751 -0.0990265
v 0.0262962 0.915615 -0.108035
v 0.0191221 0.908648 -0.111258
v 0.009243 0.912572 -0.111916
v 0.0462895 0.928789 -0.0957805
v 0.009243 0.898317 -0.112716
v 0.009243 0.768662 -0.119584
v -0.009245 0.750163 -0.120149
v -0.02778 0.750163 -0.11695
v -0.02778 0.52725 -0.115045
v -0.0283916 0.52725 0.114901
v -0.02778 0.52725 0.115043
v -0.0099036 0.52725 0.118194
v 0.0567802 0.926947 0.0934028
v 0.0636955 0.92971 0.0828417
v 0.0462895 0.933914 0.0833356
v 0.0286954 0.898317 0.109045
v 0.0462895 0.898317 0.102976
v 0.027778 0.768662 0.11643
v 0.0411148 0.768662 0.112785
v 0.0462895 0.916857 0.100977
v 0.009243 0.750163 0.120123
v -0.009245 0.52725 0.118289
v 0.0648246 0.935116 0.0648242
v 0.0648246 0.936277 0.0462893
v 0.0648246 0.936277 -0.0462913
v 0.0648246 0.935116 -0.0648262
v 0.0462895 0.933914 -0.0833376
v 0.0567802 0.926947 -0.0934048
v 0.0462895 0.916857 -0.100979
v 0.0462895 0.898317 -0.102978
v 0.0286954 0.898317 -0.109047
v 0.0411148 0.768662 -0.112787
v 0.027778 0.768662 -0.116432
v 0.0636955 0.92971 -0.0828437
v 0.009243 0.750163 -0.120125
v -0.00860991 0.52725 -0.118291
v -0.009245 0.52725 -0.118291
v 0.0763502 0.927908 0.0763498
v 0.0588266 0.916857 0.0947906
v 0.0680941 0.916857 0.0879223
v 0.0602614 0.898317 0.0957785
v 0.0503823 0.768662 0.10888
v 0.027778 0.750163 0.116948
v 0.0416323 0.750163 0.11302
v 0.0508998 0.750163 0.109139
v 0.009243 0.52725 0.118265
v 0.0833361 0.935836 0.0277779
v 0.0828421 0.92971 0.0636952
v 0.0833361 0.933874 0.0462893
v 0.0833361 0.936277 0.00924294
v 0.0833361 0.936277 -0.00924495
v 0.0833361 0.935836 -0.0277799
v 0.0833361 0.933874 -0.0462913
v 0.0828421 0.92971 -0.0636972
v 0.0763502 0.927908 -0.0763518
v 0.0680941 0.916857 -0.0879243
v 0.0588266 0.916857 -0.0947926
v 0.0602614 0.898317 -0.0957805
v 0.0503823 0.768662 -0.108882
v 0.0508998 0.750163 -0.109141
v 0.0416323 0.750163 -0.113022
v 0.027778 0.750163 -0.11695
v 0.0099016 0.52725 -0.118196
v 0.009243 0.52725 -0.118267
v 0.0786553 0.916857 0.0786549
v 0.0879228 0.916857 0.0680937
v 0.0934033 0.926947 0.0567799
v 0.0695289 0.898317 0.0890984
v 0.0648246 0.768662 0.100506
v 0.0752211 0.768662 0.0934969
v 0.027778 0.52725 0.115043
v 0.039186 0.52725 0.112079
v 0.0648246 0.750163 0.101
v 0.0481242 0.52725 0.108268
v 0.0662829 0.52725 0.0977073
v 0.0990485 0.930751 0.0277779
v 0.100954 0.931191 0.00924294
v 0.095779 0.928789 0.0462893
v 0.100954 0.931191 -0.00924495
v 0.0990485 0.930751 -0.0277799
v 0.095779 0.928789 -0.0462913
v 0.0934033 0.926947 -0.0567819
v 0.0879228 0.916857 -0.0680957
v 0.0786553 0.916857 -0.0786569
v 0.0695289 0.898317 -0.0891004
v 0.0752211 0.768662 -0.0934989
v 0.0648246 0.768662 -0.100508
v 0.0648246 0.750163 -0.101002
v 0.0662829 0.52725 -0.0977093
v 0.0487828 0.52725 -0.107894
v 0.039186 0.52725 -0.112081
v 0.0283896 0.52725 -0.114903
v 0.027778 0.52725 -0.115045
v 0.0798314 0.898317 0.0798309
v 0.0890989 0.898317 0.069505
v 0.0947911 0.916857 0.0588262
v 0.100977 0.916857 0.0462893
v 0.108034 0.915615 0.026296
v 0.0755269 0.750163 0.0937321
v 0.0847944 0.750163 0.084794
v 0.0844886 0.768662 0.0844882
v 0.066424 0.52725 0.0975897
v 0.0734335 0.533176 0.0921091
v 0.110221 0.921822 0.00924294
v 0.110221 0.921822 -0.00924495
v 0.108034 0.915615 -0.026298
v 0.100977 0.916857 -0.0462913
v 0.0947911 0.916857 -0.0588282
v 0.0890989 0.898317 -0.069507
v 0.0798314 0.898317 -0.0798329
v 0.0844886 0.768662 -0.0844902
v 0.0847944 0.750163 -0.084796
v 0.0755269 0.750163 -0.0937341
v 0.0739039 0.52725 -0.0924875
v 0.0934974 0.768662 0.0752207
v 0.095779 0.898317 0.060261
v 0.102977 0.898317 0.0462893
v 0.111256 0.908648 0.019122
v 0.0828657 0.52725 0.0836179
v 0.0937326 0.750163 0.0755265
v 0.0836184 0.52725 0.0828652
v 0.111915 0.912572 0.00924294
v 0.111915 0.912572 -0.00924495
v 0.111256 0.908648 -0.019124
v 0.102977 0.898317 -0.0462913
v 0.095779 0.898317 -0.060263
v 0.0934974 0.768662 -0.0752227
v 0.0937326 0.750163 -0.0755285
v 0.092486 0.52725 -0.0739055
v 0.0836184 0.52725 -0.0828672
v 0.0828657 0.52725 -0.0836199
v 0.101001 0.750163 0.0648242
v 0.100507 0.768662 0.0648242
v 0.108881 0.768662 0.050382
v 0.109045 0.898317 0.0286952
v 0.112785 0.768662 0.0411146
v 0.112715 0.898317 0.00924294
v 0.116431 0.768662 0.0277779
v 0.119583 0.768662 0.00924294
v 0.0921097 0.533176 0.0734331
v 0.0977078 0.52725 0.0662826
v 0.0975902 0.52725 0.0664237
v 0.112715 0.898317 -0.00924495
v 0.109045 0.898317 -0.0286972
v 0.119583 0.768662 -0.00924495
v 0.116431 0.768662 -0.0277799
v 0.112785 0.768662 -0.0411166
v 0.108881 0.768662 -0.050384
v 0.100507 0.768662 -0.0648262
v 0.101001 0.750163 -0.0648262
v 0.0977313 0.52725 -0.0662846
v 0.109139 0.750163 0.0508995
v 0.11302 0.750163 0.041632
v 0.116948 0.750163 0.0277779
v 0.120124 0.750163 0.00924294
v 0.120147 0.750163 -0.00924495
v 0.107893 0.52725 0.0487826
v 0.116948 0.750163 -0.0277799
v 0.11302 0.750163 -0.041634
v 0.109139 0.750163 -0.0509015
v 0.108269 0.52725 -0.048126
v 0.11208 0.52725 0.0391858
v 0.114902 0.52725 0.0283894
v 0.115043 0.52725 0.0277779
v 0.118195 0.52725 0.00990155
v 0.118289 0.52725 0.00924294
v 0.118289 0.52725 -0.00924495
v 0.115043 0.52725 -0.0277799
v 0.11208 0.52725 -0.0391878
f 1 2 3
f 1 3 4
f 1 4 5
f 1 5 6
f 1 6 7
f 1 7 8
f 1 8 9
f 1 9 2
f 2 10 11
f 2 11 3
f 2 9 10
f 3 11 12
f 3 12 13
f 3 13 14
f 3 14 4
f 4 14 15
f 4 15 5
f 5 16 6
f 5 15 16
f 6 16 17
f 6 17 18
f 6 18 19
f 6 19 20
f 6 20 7
f 7 20 19
f 7 19 18
f 7 18 37
f 7 37 57
f 7 57 79
f 7 79 100
f 7 100 125
f 7 125 145
f 7 145 169
f 7 169 195
f 7 195 223
f 7 223 222
f 7 222 250
f 7 250 249
f 7 249 279
f 7 279 278
f 7 278 277
f 7 277 276
f 7 276 275
f 7 275 300
f 7 300 317
f 7 317 316
f 7 316 315
f 7 315 337
f 7 337 347
f 7 347 355
f 7 355 354
f 7 354 353
f 7 353 352
f 7 352 351
f 7 351 350
f 7 350 349
f 7 349 348
f 7 348 343
f 7 343 327
f 7 327 328
f 7 328 307
f 7 307 305
f 7 305 288
f 7 288 261
f 7 261 260
f 7 260 258
f 7 258 257
f 7 257 232
f 7 232 208
f 7 208 198
f 7 198 197
f 7 197 196
f 7 196 172
f 7 172 149
f 7 149 129
f 7 129 106
f 7 106 105
f 7 105 101
f 7 101 81
f 7 81 60
f 7 60 40
f 7 40 24
f 7 24 21
f 7 21 9
f 7 9 8
f 9 21 10
f 10 22 23
f 10 23 11
f 10 21 24
f 10 24 22
f 11 23 12
f 12 25 26
f 12 26 27
f 12 27 28
f 12 28 29
f 12 29 13
f 12 23 25
f 13 29 30
f 13 30 14
f 14 30 15
f 15 30 31
f 15 31 32
f 15 32 33
f 15 33 34
f 15 34 16
f 16 35 36
f 16 36 17
f 16 34 33
f 16 33 35
f 17 36 18
f 18 36 37
f 22 38 23
f 22 24 38
f 23 38 39
f 23 39 26
f 23 26 25
f 24 40 38
f 26 41 42
f 26 42 43
f 26 43 27
f 26 39 41
f 27 43 44
f 27 44 45
f 27 45 28
f 28 31 30
f 28 30 29
f 28 45 46
f 28 46 47
f 28 47 48
f 28 48 31
f 31 48 49
f 31 49 50
f 31 50 32
f 32 50 51
f 32 51 52
f 32 52 33
f 33 52 53
f 33 53 54
f 33 54 35
f 35 55 36
f 35 54 55
f 36 55 56
f 36 56 57
f 36 57 37
f 38 58 59
f 38 59 39
f 38 40 60
f 38 60 58
f 39 59 41
f 41 61 42
f 41 59 62
f 41 62 61
f 42 63 44
f 42 44 43
f 42 61 63
f 44 64 65
f 44 65 45
f 44 63 64
f 45 65 66
f 45 66 46
f 46 66 67
f 46 67 47
f 47 67 68
f 47 68 69
f 47 69 48
f 48 69 70
f 48 70 49
f 49 70 71
f 49 71 50
f 50 71 72
f 50 72 51
f 51 72 73
f 51 73 74
f 51 74 53
f 51 53 52
f 53 74 75
f 53 75 54
f 54 75 76
f 54 76 55
f 55 76 56
f 56 76 77
f 56 77 57
f 57 78 79
f 57 77 78
f 58 80 62
f 58 62 59
f 58 60 80
f 60 81 80
f 61 82 83
f 61 83 63
f 61 62 82
f 62 80 84
f 62 84 85
f 62 85 82
f 63 83 64
f 64 83 86
f 64 86 87
f 64 87 88
f 64 88 89
f 64 89 65
f 65 89 66
f 66 89 67
f 67 89 90
f 67 90 68
f 68 90 113
f 68 113 135
f 68 135 158
f 68 158 183
f 68 183 210
f 68 210 236
f 68 236 237
f 68 237 211
f 68 211 184
f 68 184 159
f 68 159 136
f 68 136 114
f 68 114 91
f 68 91 69
f 69 91 70
f 70 92 71
f 70 91 92
f 71 92 72
f 72 92 73
f 73 93 94
f 73 94 95
f 73 95 74
f 73 92 96
f 73 96 93
f 74 95 75
f 75 95 97
f 75 97 76
f 76 98 99
f 76 99 77
f 76 97 98
f 77 99 79
f 77 79 78
f 79 99 100
f 80 81 84
f 81 101 84
f 82 102 83
f 82 85 103
f 82 103 102
f 83 102 86
f 84 104 103
f 84 103 85
f 84 101 105
f 84 105 106
f 84 106 104
f 86 107 87
f 86 102 107
f 87 108 88
f 87 107 109
f 87 109 110
f 87 110 108
f 88 108 111
f 88 111 89
f 89 112 113
f 89 113 90
f 89 111 112
f 91 114 92
f 92 115 96
f 92 114 116
f 92 116 115
f 93 96 117
f 93 117 118
f 93 118 119
f 93 119 120
f 93 120 94
f 94 120 121
f 94 121 95
f 95 121 97
f 96 115 117
f 97 121 122
f 97 122 98
f 98 122 99
f 99 122 123
f 99 123 100
f 100 124 125
f 100 123 124
f 102 126 107
f 102 103 126
f 103 104 127
f 103 127 128
f 103 128 126
f 104 106 129
f 104 129 127
f 107 126 130
f 107 130 109
f 108 131 111
f 108 110 132
f 108 132 131
f 109 130 110
f 110 130 133
f 110 133 132
f 111 131 112
f 112 131 134
f 112 134 135
f 112 135 113
f 114 136 116
f 115 116 137
f 115 137 117
f 116 136 138
f 116 138 137
f 117 137 139
f 117 139 118
f 118 139 140
f 118 140 141
f 118 141 119
f 119 141 120
f 120 141 142
f 120 142 121
f 121 142 122
f 122 143 144
f 122 144 123
f 122 142 143
f 123 144 125
f 123 125 124
f 125 144 146
f 125 146 145
f 126 128 147
f 126 147 130
f 127 148 128
f 127 129 148
f 128 148 147
f 129 149 148
f 130 150 133
f 130 147 151
f 130 151 150
f 131 132 134
f 132 152 157
f 132 157 134
f 132 133 153
f 132 153 176
f 132 176 152
f 133 154 153
f 133 150 151
f 133 151 155
f 133 155 156
f 133 156 154
f 134 157 158
f 134 158 135
f 136 159 160
f 136 160 138
f 137 138 139
f 138 160 161
f 138 161 139
f 139 161 189
f 139 189 162
f 139 162 140
f 140 163 141
f 140 162 164
f 140 164 165
f 140 165 166
f 140 166 167
f 140 167 163
f 141 163 167
f 141 167 168
f 141 168 142
f 142 168 143
f 143 168 146
f 143 146 144
f 145 146 169
f 146 168 167
f 146 167 170
f 146 170 169
f 147 148 151
f 148 171 151
f 148 149 172
f 148 172 171
f 151 171 173
f 151 173 155
f 152 174 175
f 152 175 157
f 152 176 177
f 152 177 178
f 152 178 174
f 153 154 179
f 153 179 176
f 154 156 181
f 154 181 179
f 155 173 180
f 155 180 156
f 156 180 181
f 157 175 182
f 157 182 158
f 158 182 183
f 159 184 185
f 159 185 160
f 160 186 161
f 160 185 186
f 161 187 188
f 161 188 189
f 161 186 190
f 161 190 187
f 162 189 191
f 162 191 164
f 164 191 192
f 164 192 165
f 165 192 193
f 165 193 166
f 166 193 194
f 166 194 167
f 167 194 170
f 169 170 194
f 169 194 195
f 171 172 173
f 172 196 173
f 173 196 197
f 173 197 198
f 173 198 180
f 174 178 199
f 174 199 200
f 174 200 201
f 174 201 175
f 175 201 182
f 176 179 177
f 177 202 203
f 177 203 178
f 177 179 181
f 177 181 204
f 177 204 205
f 177 205 202
f 178 206 199
f 178 203 206
f 180 207 181
f 180 198 208
f 180 208 232
f 180 232 207
f 181 207 204
f 182 201 209
f 182 209 183
f 183 209 210
f 184 211 212
f 184 212 185
f 185 212 213
f 185 213 186
f 186 213 190
f 187 190 214
f 187 214 215
f 187 215 216
f 187 216 188
f 188 191 189
f 188 216 217
f 188 217 218
f 188 218 219
f 188 219 192
f 188 192 191
f 190 213 220
f 190 220 214
f 192 219 221
f 192 221 193
f 193 221 222
f 193 222 223
f 193 223 194
f 194 223 195
f 199 224 200
f 199 206 225
f 199 225 226
f 199 226 224
f 200 224 209
f 200 209 201
f 202 205 203
f 203 227 225
f 203 225 206
f 203 205 228
f 203 228 227
f 204 207 229
f 204 229 205
f 205 229 230
f 205 230 231
f 205 231 228
f 207 232 229
f 209 233 210
f 209 224 234
f 209 234 235
f 209 235 233
f 210 233 236
f 211 237 238
f 211 238 212
f 212 238 239
f 212 239 240
f 212 240 241
f 212 241 220
f 212 220 213
f 214 220 241
f 214 241 242
f 214 242 243
f 214 243 215
f 215 243 216
f 216 243 244
f 216 244 245
f 216 245 218
f 216 218 217
f 218 245 246
f 218 246 247
f 218 247 248
f 218 248 219
f 219 248 221
f 221 248 249
f 221 249 250
f 221 250 222
f 224 226 251
f 224 251 252
f 224 252 253
f 224 253 234
f 225 227 254
f 225 254 226
f 226 254 251
f 227 228 255
f 227 255 256
f 227 256 254
f 228 231 255
f 229 232 257
f 229 257 258
f 229 258 230
f 230 258 231
f 231 259 255
f 231 258 260
f 231 260 261
f 231 261 259
f 233 235 262
f 233 262 263
f 233 263 236
f 234 253 264
f 234 264 235
f 235 264 262
f 236 263 265
f 236 265 237
f 237 265 238
f 238 265 266
f 238 266 239
f 239 266 267
f 239 267 240
f 240 267 268
f 240 268 241
f 241 268 269
f 241 269 270
f 241 270 242
f 242 270 271
f 242 271 243
f 243 271 244
f 244 271 272
f 244 272 273
f 244 273 245
f 245 273 246
f 246 273 274
f 246 274 275
f 246 275 276
f 246 276 277
f 246 277 247
f 247 277 248
f 248 277 278
f 248 278 279
f 248 279 249
f 251 254 280
f 251 280 281
f 251 281 252
f 252 282 253
f 252 281 282
f 253 282 283
f 253 283 284
f 253 284 264
f 254 256 280
f 255 259 256
f 256 259 285
f 256 285 286
f 256 286 287
f 256 287 280
f 259 261 285
f 261 288 289
f 261 289 285
f 262 264 290
f 262 290 263
f 263 290 291
f 263 291 265
f 264 284 290
f 265 291 266
f 266 291 267
f 267 291 292
f 267 292 268
f 268 292 293
f 268 293 294
f 268 294 269
f 269 294 295
f 269 295 270
f 270 295 296
f 270 296 271
f 271 296 272
f 272 297 298
f 272 298 299
f 272 299 274
f 272 274 273
f 272 296 297
f 274 299 275
f 275 299 300
f 280 287 301
f 280 301 281
f 281 302 282
f 281 301 302
f 282 302 303
f 282 303 283
f 283 303 284
f 284 303 304
f 284 304 290
f 285 289 305
f 285 305 286
f 286 306 301
f 286 301 287
f 286 305 307
f 286 307 306
f 288 305 289
f 290 304 308
f 290 308 309
f 290 309 291
f 291 309 310
f 291 310 292
f 292 310 311
f 292 311 293
f 293 311 294
f 294 311 312
f 294 312 295
f 295 312 313
f 295 313 296
f 296 313 297
f 297 313 298
f 298 313 314
f 298 314 315
f 298 315 316
f 298 316 317
f 298 317 300
f 298 300 299
f 301 306 318
f 301 318 319
f 301 319 302
f 302 319 320
f 302 320 303
f 303 321 304
f 303 320 322
f 303 322 321
f 304 323 308
f 304 321 322
f 304 322 324
f 304 324 325
f 304 325 323
f 306 307 326
f 306 326 327
f 306 327 318
f 307 328 326
f 308 323 329
f 308 329 309
f 309 329 310
f 310 330 311
f 310 329 331
f 310 331 332
f 310 332 333
f 310 333 330
f 311 330 333
f 311 333 334
f 311 334 312
f 312 334 335
f 312 335 313
f 313 335 336
f 313 336 314
f 314 336 337
f 314 337 315
f 318 338 319
f 318 327 338
f 319 338 320
f 320 338 322
f 322 338 339
f 322 339 340
f 322 340 324
f 323 325 331
f 323 331 329
f 324 340 341
f 324 341 325
f 325 341 342
f 325 342 331
f 326 328 327
f 327 343 338
f 331 342 332
f 332 342 344
f 332 344 333
f 333 344 345
f 333 345 346
f 333 346 334
f 334 346 335
f 335 346 336
f 336 346 337
f 337 346 347
f 338 343 348
f 338 348 339
f 339 348 340
f 340 348 349
f 340 349 350
f 340 350 351
f 340 351 341
f 341 351 352
f 341 352 342
f 342 353 344
f 342 352 353
f 344 353 354
f 344 354 355
f 344 355 345
f 345 355 346
f 346 355 347
