v -0.00923089 0.324104 0.275736
v 0.00923064 0.342585 0.275682
v -0.00923089 0.342585 0.275682
v -0.0277464 0.342585 0.273306
v -0.00923089 -0.861247 0.275736
v 0.0277461 0.342585 0.273306
v 0.00923064 0.361066 0.272497
v 0.00923064 -0.861247 0.275682
v -0.00923089 0.361066 0.272497
v -0.0462619 0.342585 0.270877
v -0.0462619 0.361066 0.267746
v -0.0462619 -0.861247 0.270877
v -0.0462619 -0.879728 0.270823
v -0.00923089 -0.879728 0.275628
v 0.00923064 -0.879728 0.275628
v 0.0462617 0.342585 0.270877
v 0.0462617 0.361066 0.267746
v 0.0277461 -0.861247 0.273306
v 0.0647772 0.371811 0.260567
v 0.0462617 0.373387 0.26197
v 0.0277461 0.374533 0.263104
v 0.00923064 0.375536 0.264292
v -0.00923089 0.375536 0.264292
v -0.0277464 0.374533 0.263104
v -0.0462619 0.373387 0.26197
v -0.0647774 0.371811 0.260567
v -0.0647774 0.342585 0.26807
v -0.0748179 0.370665 0.259595
v -0.0647774 0.361066 0.264939
v -0.0647774 -0.861247 0.26807
v -0.0647774 -0.879728 0.268016
v -0.0462619 -0.898209 0.26888
v -0.00923089 -0.898209 0.273684
v 0.00923064 -0.898209 0.273684
v 0.0462617 -0.879728 0.270823
v 0.0647772 0.342585 0.26807
v 0.0462617 -0.861247 0.270877
v 0.0647772 0.361066 0.264939
v 0.0748177 0.370665 0.259595
v 0.0462617 0.405048 0.239082
v 0.0326584 0.40648 0.240108
v 0.0203507 0.407626 0.240972
v 0.00923064 0.408343 0.241673
v -0.00923089 0.408343 0.241673
v -0.020351 0.407626 0.240972
v -0.0326587 0.40648 0.240108
v -0.0462619 0.405048 0.239082
v -0.0790284 0.361066 0.261323
v -0.0828071 0.342585 0.262888
v -0.126694 0.367226 0.239406
v -0.0647774 0.401753 0.237031
v -0.0935493 0.40777 0.222618
v -0.114386 0.371811 0.242051
v -0.0828071 -0.879728 0.262888
v -0.0803779 -0.898209 0.261862
v -0.0647774 -0.898209 0.266073
v -0.0647774 -0.911389 0.2617
v -0.0462619 -0.913538 0.263158
v -0.0277464 -0.914971 0.264346
v -0.00761146 -0.918123 0.264346
v 0.00761121 -0.918123 0.264346
v 0.0277461 -0.914971 0.264346
v 0.0462617 -0.913538 0.263158
v 0.0647772 -0.911389 0.2617
v 0.0462617 -0.898209 0.26888
v 0.0647772 -0.879728 0.268016
v 0.0828068 0.342585 0.262888
v 0.0790282 0.361066 0.261323
v 0.0647772 -0.861247 0.26807
v 0.126693 0.367226 0.239406
v 0.114386 0.371811 0.242051
v 0.0935491 0.40777 0.222618
v 0.0647772 0.401753 0.237031
v 0.0647772 0.411781 0.2278
v 0.0462617 0.442296 0.201889
v 0.0326584 0.443728 0.203023
v 0.0203507 0.444731 0.203941
v 0.00923064 0.445448 0.204642
v -0.00923089 0.445448 0.204642
v -0.020351 0.444731 0.203941
v -0.0326587 0.443728 0.203023
v -0.0462619 0.442296 0.201889
v -0.0647774 0.411781 0.2278
v -0.120486 0.361066 0.244157
v -0.131336 0.354906 0.241673
v -0.0920918 0.342585 0.259055
v -0.13031 0.407913 0.204265
v -0.138893 0.374533 0.226559
v -0.149366 0.371238 0.223158
v -0.138084 0.361066 0.235142
v -0.0833469 0.409345 0.224615
v -0.0789205 0.446164 0.187099
v -0.0762754 0.482552 0.149258
v -0.0912821 0.443728 0.184615
v -0.120378 0.409918 0.207018
v -0.105857 0.404045 0.219919
v -0.0920918 -0.879728 0.259055
v -0.131336 -0.893338 0.241673
v -0.121619 -0.899069 0.244696
v -0.128583 -0.905659 0.240324
v -0.0766533 -0.90924 0.260351
v -0.0647774 -0.920558 0.254251
v -0.0462619 -0.922707 0.255924
v -0.000377992 -0.926145 0.259325
v 0.000377743 -0.926145 0.259325
v 0.0462617 -0.922707 0.255924
v 0.076653 -0.90924 0.260351
v 0.0647772 -0.898209 0.266073
v 0.0647772 -0.920558 0.254251
v 0.0803777 -0.898209 0.261862
v 0.0828068 -0.879728 0.262888
v 0.0920916 0.342585 0.259055
v 0.131336 0.354906 0.241673
v 0.120486 0.361066 0.244157
v 0.149366 0.371238 0.223158
v 0.138893 0.374533 0.226559
v 0.13031 0.407913 0.204265
v 0.138083 0.361066 0.235142
v 0.105857 0.404045 0.219919
v 0.120378 0.409918 0.207018
v 0.0912819 0.443728 0.184615
v 0.0762751 0.482552 0.149258
v 0.0789202 0.446164 0.187099
v 0.0833467 0.409345 0.224615
v 0.0647772 0.44817 0.18996
v 0.0462617 0.478398 0.164211
v 0.0326584 0.48069 0.165992
v 0.0203507 0.481693 0.16691
v 0.00923064 0.482409 0.167557
v -0.00923089 0.482409 0.167557
v -0.020351 0.481693 0.16691
v -0.0326587 0.48069 0.165992
v -0.0462619 0.478398 0.164211
v -0.0647774 0.44817 0.18996
v -0.185317 0.352184 0.203833
v -0.154818 0.342585 0.227314
v -0.141485 0.342585 0.236599
v -0.1322 0.342585 0.242159
v -0.120378 0.342585 0.247341
v -0.152389 0.361066 0.225479
v -0.1139 0.446021 0.168745
v -0.109852 0.480404 0.128637
v -0.150661 0.408772 0.187099
v -0.163023 0.403615 0.182294
v -0.169663 0.372384 0.205992
v -0.182024 0.364504 0.201242
v -0.0647774 0.484272 0.151633
v -0.09749 0.483985 0.133333
v -0.0391364 0.52725 0.112065
v -0.0483672 0.52725 0.10807
v -0.048799 0.52725 0.107854
v -0.0662349 0.52725 0.0977057
v -0.120378 -0.879728 0.247341
v -0.1322 -0.879728 0.242159
v -0.141485 -0.879728 0.236599
v -0.153252 -0.898209 0.226127
v -0.138084 -0.899069 0.236221
v -0.150553 -0.909957 0.224076
v -0.137652 -0.916403 0.227153
v -0.121619 -0.916833 0.235358
v -0.116221 -0.910673 0.242861
v -0.101862 -0.914398 0.24583
v -0.0920379 -0.925859 0.240486
v -0.0796762 -0.927578 0.242861
v -0.0647774 -0.928867 0.24502
v -0.0127397 -0.925286 0.258354
v -0.0462619 -0.929727 0.246694
v -0.00761146 -0.929727 0.251336
v 0.00761121 -0.929727 0.251336
v 0.0462617 -0.929727 0.246694
v 0.0647772 -0.928867 0.24502
v 0.0127394 -0.925286 0.258354
v 0.101862 -0.914398 0.24583
v 0.116221 -0.910673 0.242861
v 0.128583 -0.905659 0.240324
v 0.0920376 -0.925859 0.240486
v 0.0796759 -0.927578 0.242861
v 0.131336 -0.893338 0.241673
v 0.121619 -0.899069 0.244696
v 0.0920916 -0.879728 0.259055
v 0.120378 0.342585 0.247341
v 0.1322 0.342585 0.242159
v 0.141484 0.342585 0.236599
v 0.154818 0.342585 0.227314
v 0.185317 0.352184 0.203833
v 0.152388 0.361066 0.225479
v 0.182024 0.364504 0.201242
v 0.169662 0.372384 0.205992
v 0.163023 0.403615 0.182294
v 0.150661 0.408772 0.187099
v 0.109851 0.480404 0.128637
v 0.1139 0.446021 0.168745
v 0.0974897 0.483985 0.133333
v 0.0662347 0.52725 0.0977057
v 0.048097 0.52725 0.108286
v 0.0391362 0.52725 0.112065
v 0.0647772 0.484272 0.151633
v 0.0385424 0.52725 0.112227
v 0.0277461 0.52725 0.115034
v 0.00923064 0.52725 0.118273
v -0.00923089 0.52725 0.118273
v -0.00987866 0.52725 0.118165
v -0.0277464 0.52725 0.115034
v -0.0283942 0.52725 0.114872
v -0.193252 0.358344 0.193252
v -0.203833 0.352184 0.185317
v -0.194656 0.342585 0.194656
v -0.185371 0.342585 0.203887
v -0.164049 0.342585 0.220243
v -0.154818 -0.879728 0.227314
v -0.0739002 0.52725 0.0924696
v -0.116275 0.484701 0.116275
v -0.146559 0.443012 0.146559
v -0.169933 0.409632 0.169933
v -0.18888 0.373387 0.18888
v -0.201242 0.364504 0.182024
v -0.0663969 0.52725 0.0975978
v -0.185317 -0.88947 0.203833
v -0.183266 -0.901791 0.202213
v -0.170904 -0.911532 0.206964
v -0.163347 -0.923853 0.20108
v -0.142996 -0.922277 0.218138
v -0.130688 -0.926575 0.222942
v -0.101862 -0.923566 0.238273
v -0.120378 -0.927864 0.225101
v -0.101862 -0.929727 0.229042
v -0.0848584 -0.93073 0.233198
v -0.0647774 -0.934025 0.231525
v -0.0277464 -0.930156 0.247989
v -0.0462619 -0.934884 0.231525
v -0.00923089 -0.935744 0.231525
v 0.00923064 -0.935744 0.231525
v 0.0462617 -0.934884 0.231525
v 0.0277461 -0.930156 0.247989
v 0.0647772 -0.934025 0.231525
v 0.0848581 -0.93073 0.233198
v 0.101862 -0.923566 0.238273
v 0.121619 -0.916833 0.235358
v 0.138083 -0.899069 0.236221
v 0.137652 -0.916403 0.227153
v 0.150553 -0.909957 0.224076
v 0.130688 -0.926575 0.222942
v 0.120378 -0.927864 0.225101
v 0.101862 -0.929727 0.229042
v 0.153252 -0.898209 0.226127
v 0.141484 -0.879728 0.236599
v 0.1322 -0.879728 0.242159
v 0.120378 -0.879728 0.247341
v 0.164048 0.342585 0.220243
v 0.154818 -0.879728 0.227314
v 0.203832 0.352184 0.185317
v 0.193252 0.358344 0.193252
v 0.185371 0.342585 0.203887
v 0.194656 0.342585 0.194656
v 0.201241 0.364504 0.182024
v 0.18888 0.373387 0.18888
v 0.169932 0.409632 0.169933
v 0.146559 0.443012 0.146559
v 0.116275 0.484701 0.116275
v 0.0828608 0.52725 0.0836167
v 0.0663966 0.52725 0.0975978
v -0.225479 0.361066 0.152389
v -0.241673 0.354906 0.131336
v -0.227314 0.342585 0.154818
v -0.220243 0.342585 0.164049
v -0.203887 0.342585 0.185371
v -0.194656 -0.879728 0.194656
v -0.185371 -0.879728 0.203887
v -0.164049 -0.861247 0.220243
v -0.0828611 0.52725 0.0836167
v -0.0836168 0.52725 0.0828609
v -0.0924697 0.52725 0.0739001
v -0.128637 0.480404 0.109851
v -0.187099 0.408772 0.150661
v -0.182294 0.403615 0.163023
v -0.205992 0.372384 0.169663
v -0.223158 0.371238 0.149366
v -0.203833 -0.88947 0.185317
v -0.193792 -0.89563 0.193792
v -0.202213 -0.901791 0.183266
v -0.189852 -0.912822 0.189852
v -0.177328 -0.918409 0.195466
v -0.183698 -0.925142 0.183698
v -0.171336 -0.928008 0.188718
v -0.137652 -0.928867 0.212362
v -0.120378 -0.932735 0.213009
v -0.101862 -0.934884 0.213009
v -0.0833469 -0.935887 0.213009
v -0.0647774 -0.936317 0.213009
v 0.0647772 -0.936317 0.213009
v 0.0833467 -0.935887 0.213009
v 0.120378 -0.932735 0.213009
v 0.101862 -0.934884 0.213009
v 0.170904 -0.911532 0.206964
v 0.183266 -0.901791 0.202213
v 0.142996 -0.922277 0.218138
v 0.163347 -0.923853 0.20108
v 0.137652 -0.928867 0.212362
v 0.171336 -0.928008 0.188718
v 0.183697 -0.925142 0.183698
v 0.185317 -0.88947 0.203833
v 0.164048 -0.861247 0.220243
v 0.185371 -0.879728 0.203887
v 0.241673 0.354906 0.131336
v 0.225479 0.361066 0.152389
v 0.203886 0.342585 0.185371
v 0.220243 0.342585 0.164049
v 0.227314 0.342585 0.154818
v 0.194656 -0.879728 0.194656
v 0.223158 0.371238 0.149366
v 0.205992 0.372384 0.169663
v 0.182294 0.403615 0.163023
v 0.187098 0.408772 0.150661
v 0.128637 0.480404 0.109851
v 0.0836166 0.52725 0.0828609
v -0.235142 0.361066 0.138084
v -0.262888 0.342585 0.0828069
v -0.259055 0.342585 0.0920917
v -0.247341 0.342585 0.120378
v -0.242159 0.342585 0.1322
v -0.236599 0.342585 0.141484
v -0.239406 0.367226 0.126694
v -0.244157 0.361066 0.120486
v -0.261323 0.361066 0.0790283
v -0.227314 -0.879728 0.154818
v -0.220243 -0.861247 0.164049
v -0.203887 -0.879728 0.185371
v -0.0975979 0.52725 0.0663967
v -0.133333 0.483985 0.0974898
v -0.168745 0.446021 0.1139
v -0.204265 0.407913 0.13031
v -0.226559 0.374533 0.138893
v -0.226127 -0.898209 0.153252
v -0.224076 -0.909957 0.150553
v -0.206964 -0.911532 0.170904
v -0.195466 -0.918409 0.177328
v -0.20108 -0.923853 0.163347
v -0.222942 -0.926575 0.130688
v -0.188718 -0.928008 0.171336
v -0.176896 -0.930443 0.176896
v -0.157247 -0.92987 0.19471
v -0.138893 -0.934311 0.19444
v -0.120378 -0.935887 0.19444
v -0.101862 -0.936317 0.19444
v 0.101862 -0.936317 0.19444
v 0.120378 -0.935887 0.19444
v 0.138893 -0.934311 0.19444
v 0.177328 -0.918409 0.195466
v 0.189851 -0.912822 0.189852
v 0.202213 -0.901791 0.183266
v 0.193792 -0.89563 0.193792
v 0.157247 -0.92987 0.19471
v 0.188718 -0.928008 0.171336
v 0.176896 -0.930443 0.176896
v 0.222942 -0.926575 0.130688
v 0.201079 -0.923853 0.163347
v 0.195465 -0.918409 0.177328
v 0.203832 -0.88947 0.185317
v 0.236599 0.342585 0.141484
v 0.242159 0.342585 0.1322
v 0.247341 0.342585 0.120378
v 0.259055 0.342585 0.0920917
v 0.262888 0.342585 0.0828069
v 0.261322 0.361066 0.0790283
v 0.244156 0.361066 0.120486
v 0.239406 0.367226 0.126694
v 0.235141 0.361066 0.138084
v 0.203886 -0.879728 0.185371
v 0.220243 -0.861247 0.164049
v 0.227314 -0.879728 0.154818
v 0.226558 0.374533 0.138893
v 0.204264 0.407913 0.13031
v 0.168745 0.446021 0.1139
v 0.133333 0.483985 0.0974898
v 0.0975977 0.52725 0.0663967
v -0.26807 0.342585 0.0647772
v -0.262888 -0.879728 0.0828069
v -0.259055 -0.879728 0.0920917
v -0.247341 -0.879728 0.120378
v -0.242159 -0.879728 0.1322
v -0.236599 -0.879728 0.141484
v -0.242051 0.371811 0.114386
v -0.259595 0.370665 0.0748177
v -0.264939 0.361066 0.0647772
v -0.0977059 0.52725 0.0662347
v -0.149258 0.482552 0.0762752
v -0.184615 0.443728 0.091282
v -0.207018 0.409918 0.120378
v -0.222618 0.40777 0.0935492
v -0.219919 0.404045 0.105857
v -0.241673 -0.893338 0.131336
v -0.236221 -0.899069 0.138084
v -0.240324 -0.905659 0.128583
v -0.227153 -0.916403 0.137652
v -0.218138 -0.922277 0.142996
v -0.240486 -0.925859 0.0920377
v -0.242861 -0.927578 0.079676
v -0.225101 -0.927864 0.120378
v -0.213009 -0.932735 0.120378
v -0.212362 -0.928867 0.137652
v -0.235358 -0.916833 0.121619
v -0.238273 -0.923566 0.101862
v -0.19471 -0.92987 0.157247
v -0.19444 -0.934311 0.138893
v -0.175924 -0.935027 0.157409
v -0.157409 -0.935027 0.175924
v -0.138893 -0.936174 0.175924
v -0.157409 -0.936317 0.157409
v 0.157409 -0.936317 0.157409
v 0.138893 -0.936174 0.175924
v 0.157409 -0.935027 0.175924
v 0.206963 -0.911532 0.170904
v 0.224075 -0.909957 0.150553
v 0.226127 -0.898209 0.153252
v 0.19471 -0.92987 0.157247
v 0.212361 -0.928867 0.137652
v 0.175924 -0.935027 0.157409
v 0.19444 -0.934311 0.138893
v 0.213009 -0.932735 0.120378
v 0.225101 -0.927864 0.120378
v 0.242861 -0.927578 0.079676
v 0.240486 -0.925859 0.0920377
v 0.238272 -0.923566 0.101862
v 0.235357 -0.916833 0.121619
v 0.227152 -0.916403 0.137652
v 0.218137 -0.922277 0.142996
v 0.236599 -0.879728 0.141484
v 0.242159 -0.879728 0.1322
v 0.247341 -0.879728 0.120378
v 0.259055 -0.879728 0.0920917
v 0.26807 0.342585 0.0647772
v 0.262888 -0.879728 0.0828069
v 0.264939 0.361066 0.0647772
v 0.259595 0.370665 0.0748177
v 0.242051 0.371811 0.114386
v 0.219919 0.404045 0.105857
v 0.222618 0.40777 0.0935492
v 0.207017 0.409918 0.120378
v 0.184615 0.443728 0.091282
v 0.149258 0.482552 0.0762752
v 0.0977056 0.52725 0.0662347
v -0.270877 0.342585 0.0462617
v -0.26807 -0.861247 0.0647772
v -0.268016 -0.879728 0.0647772
v -0.261862 -0.898209 0.0803778
v -0.237031 0.401753 0.0647772
v -0.239082 0.405048 0.0462617
v -0.260567 0.371811 0.0647772
v -0.267746 0.361066 0.0462617
v -0.108286 0.52725 0.0480971
v -0.112065 0.52725 0.0391902
v -0.151633 0.484272 0.0647772
v -0.187099 0.446164 0.0789203
v -0.224615 0.409345 0.0833468
v -0.244696 -0.899069 0.121619
v -0.260351 -0.90924 0.0766531
v -0.242861 -0.910673 0.116221
v -0.24583 -0.914398 0.101862
v -0.254251 -0.920558 0.0647772
v -0.24502 -0.928867 0.0647772
v -0.233198 -0.93073 0.0848582
v -0.229042 -0.929727 0.101862
v -0.231525 -0.934025 0.0647772
v -0.213009 -0.934884 0.101862
v -0.19444 -0.935887 0.120378
v -0.175924 -0.936174 0.138893
v -0.19444 -0.936317 0.101862
v 0.175924 -0.936174 0.138893
v 0.19444 -0.936317 0.101862
v 0.240324 -0.905659 0.128583
v 0.236221 -0.899069 0.138084
v 0.241673 -0.893338 0.131336
v 0.19444 -0.935887 0.120378
v 0.213009 -0.934884 0.101862
v 0.231525 -0.934025 0.0647772
v 0.233198 -0.93073 0.0848582
v 0.229042 -0.929727 0.101862
v 0.254251 -0.920558 0.0647772
v 0.244966 -0.928867 0.0647772
v 0.260351 -0.90924 0.0766531
v 0.24583 -0.914398 0.101862
v 0.242861 -0.910673 0.116221
v 0.270877 0.342585 0.0462617
v 0.26807 -0.861247 0.0647772
v 0.261862 -0.898209 0.0803778
v 0.268016 -0.879728 0.0647772
v 0.267746 0.361066 0.0462617
v 0.260567 0.371811 0.0647772
v 0.239082 0.405048 0.0462617
v 0.237031 0.401753 0.0647772
v 0.224615 0.409345 0.0833468
v 0.187098 0.446164 0.0789203
v 0.151633 0.484272 0.0647772
v 0.112065 0.52725 0.0391362
v 0.10807 0.52725 0.048367
v 0.107854 0.52725 0.0487988
v -0.273306 0.342585 0.0277462
v -0.270877 -0.861247 0.0462617
v -0.270823 -0.879728 0.0462617
v -0.266073 -0.898209 0.0647772
v -0.2278 0.411781 0.0647772
v -0.201889 0.442296 0.0462617
v -0.203023 0.443728 0.0327124
v -0.240108 0.40648 0.0326585
v -0.26197 0.373387 0.0462617
v -0.272497 0.361066 0.00923065
v -0.240972 0.407626 0.0203508
v -0.115034 0.52725 0.0277462
v -0.165992 0.48069 0.0327124
v -0.164211 0.478398 0.0462617
v -0.18996 0.44817 0.0647772
v -0.2617 -0.911389 0.0647772
v -0.255924 -0.922707 0.0462617
v -0.246694 -0.929727 0.0462617
v -0.258354 -0.925286 0.0127394
v -0.259325 -0.926145 0.000377744
v -0.247989 -0.930156 0.0277462
v -0.231525 -0.934884 0.0462617
v -0.213009 -0.935887 0.0833468
v -0.213009 -0.936317 0.0647772
v 0.213009 -0.936317 0.0647772
v 0.213009 -0.935887 0.0833468
v 0.244696 -0.899069 0.121619
v 0.247989 -0.930156 0.0277462
v 0.246693 -0.929727 0.0462617
v 0.231525 -0.934884 0.0462617
v 0.255924 -0.922707 0.0462617
v 0.2617 -0.911389 0.0647772
v 0.259325 -0.926145 0.000377744
v 0.258353 -0.925286 0.0127394
v 0.266073 -0.898209 0.0647772
v 0.273306 0.342585 0.0277462
v 0.270877 -0.861247 0.0462617
v 0.270823 -0.879728 0.0462617
v 0.272496 0.361066 0.00923065
v 0.26197 0.373387 0.0462617
v 0.240971 0.407626 0.0203508
v 0.240108 0.40648 0.0326585
v 0.201889 0.442296 0.0462617
v 0.2278 0.411781 0.0647772
v 0.189959 0.44817 0.0647772
v 0.16421 0.478398 0.0462617
v 0.114872 0.52725 0.028394
v 0.165992 0.48069 0.0326585
v -0.275681 0.342585 0.00923065
v -0.273306 -0.861247 0.0277462
v -0.275627 -0.879728 0.00923065
v -0.26888 -0.898209 0.0462617
v -0.203941 0.444731 0.0203508
v -0.241673 0.408343 0.00923065
v -0.263104 0.374533 0.0277462
v -0.264291 0.375536 0.00923065
v -0.272497 0.361066 -0.0092309
v -0.118273 0.52725 0.00923065
v -0.16691 0.481693 0.0203508
v -0.273684 -0.898209 0.00923065
v -0.263158 -0.913538 0.0462617
v -0.251336 -0.929727 0.00761122
v -0.259325 -0.926145 -0.000377992
v -0.264345 -0.914971 0.0277462
v -0.264345 -0.918123 0.00761122
v -0.231525 -0.935744 0.00923065
v -0.213009 -0.936317 -0.0647775
v 0.213009 -0.936317 -0.0647775
v 0.231525 -0.935744 0.00923065
v 0.251336 -0.929727 0.00761122
v 0.263158 -0.913538 0.0462617
v 0.273684 -0.898209 0.00923065
v 0.26888 -0.898209 0.0462617
v 0.259325 -0.926145 -0.000377992
v 0.264345 -0.918123 0.00761122
v 0.264345 -0.914971 0.0277462
v 0.275681 0.342585 0.00923065
v 0.273306 -0.861247 0.0277462
v 0.275627 -0.879728 0.00923065
v 0.272496 0.361066 -0.0092309
v 0.264291 0.375536 0.00923065
v 0.263104 0.374533 0.0277462
v 0.241673 0.408343 0.00923065
v 0.20394 0.444731 0.0203508
v 0.115034 0.52725 0.0277462
v 0.166909 0.481693 0.0203508
v 0.118272 0.52725 0.00923065
v 0.118164 0.52725 0.00987842
v -0.275681 0.342585 -0.0092309
v -0.275735 0.324104 -0.0092309
v -0.275681 -0.861247 0.00923065
v -0.275735 -0.861247 -0.0092309
v -0.275627 -0.879728 -0.0092309
v -0.204642 0.445448 0.00923065
v -0.241673 0.408343 -0.0092309
v -0.264291 0.375536 -0.0092309
v -0.263104 0.374533 -0.0277464
v -0.26197 0.373387 -0.046262
v -0.260567 0.371811 -0.0647775
v -0.267746 0.361066 -0.046262
v -0.118273 0.52725 -0.0092309
v -0.167557 0.482409 0.00923065
v -0.273684 -0.898209 -0.0092309
v -0.251336 -0.929727 -0.00761147
v -0.255924 -0.922707 -0.046262
v -0.258354 -0.925286 -0.0127397
v -0.24502 -0.928867 -0.0647775
v -0.246694 -0.929727 -0.046262
v -0.264345 -0.918123 -0.00761147
v -0.264345 -0.914971 -0.0277464
v -0.263158 -0.913538 -0.046262
v -0.231525 -0.935744 -0.0092309
v -0.19444 -0.936317 -0.101863
v -0.213009 -0.935887 -0.083347
v 0.19444 -0.936317 -0.101863
v 0.213009 -0.935887 -0.083347
v 0.231525 -0.935744 -0.0092309
v 0.251336 -0.929727 -0.00761147
v 0.273684 -0.898209 -0.0092309
v 0.246693 -0.929727 -0.046262
v 0.24502 -0.928867 -0.0647775
v 0.258353 -0.925286 -0.0127397
v 0.255924 -0.922707 -0.046262
v 0.263158 -0.913538 -0.046262
v 0.264345 -0.914971 -0.0277464
v 0.264345 -0.918123 -0.00761147
v 0.275735 0.324104 -0.0092309
v 0.275681 0.342585 -0.0092309
v 0.275681 -0.861247 0.00923065
v 0.275627 -0.879728 -0.0092309
v 0.275735 -0.861247 -0.0092309
v 0.267746 0.361066 -0.046262
v 0.260567 0.371811 -0.0647775
v 0.26197 0.373387 -0.046262
v 0.263104 0.374533 -0.0277464
v 0.264291 0.375536 -0.0092309
v 0.241673 0.408343 -0.0092309
v 0.204642 0.445448 0.00923065
v 0.167557 0.482409 0.00923065
v 0.118272 0.52725 -0.0092309
v -0.273306 0.342585 -0.0277464
v -0.270877 -0.861247 -0.046262
v -0.270823 -0.879728 -0.046262
v -0.204642 0.445448 -0.0092309
v -0.240972 0.407626 -0.020351
v -0.259595 0.370665 -0.074818
v -0.240108 0.40648 -0.0326587
v -0.239082 0.405048 -0.046262
v -0.264939 0.361066 -0.0647775
v -0.270877 0.342585 -0.046262
v -0.118165 0.52725 -0.00987867
v -0.165992 0.48069 -0.0327127
v -0.16691 0.481693 -0.020351
v -0.167557 0.482409 -0.0092309
v -0.26888 -0.898209 -0.046262
v -0.2617 -0.911389 -0.0647775
v -0.247989 -0.930156 -0.0277464
v -0.231525 -0.934884 -0.046262
v -0.254251 -0.920558 -0.0647775
v -0.233198 -0.93073 -0.0848585
v -0.231525 -0.934025 -0.0647775
v -0.242861 -0.927578 -0.0796763
v -0.157409 -0.936317 -0.157409
v -0.19444 -0.935887 -0.120378
v -0.175924 -0.936174 -0.138894
v -0.213009 -0.934884 -0.101863
v 0.157409 -0.936317 -0.157409
v 0.175924 -0.936174 -0.138894
v 0.19444 -0.935887 -0.120378
v 0.213009 -0.934884 -0.101863
v 0.231525 -0.934025 -0.0647775
v 0.231525 -0.934884 -0.046262
v 0.247989 -0.930156 -0.0277464
v 0.2617 -0.911389 -0.0647775
v 0.26888 -0.898209 -0.046262
v 0.233198 -0.93073 -0.0848585
v 0.242861 -0.927578 -0.0796763
v 0.254251 -0.920558 -0.0647775
v 0.273306 0.342585 -0.0277464
v 0.270823 -0.879728 -0.046262
v 0.270877 -0.861247 -0.046262
v 0.264939 0.361066 -0.0647775
v 0.259595 0.370665 -0.074818
v 0.270877 0.342585 -0.046262
v 0.239082 0.405048 -0.046262
v 0.240108 0.40648 -0.0326587
v 0.240971 0.407626 -0.020351
v 0.204642 0.445448 -0.0092309
v 0.167557 0.482409 -0.0092309
v 0.115034 0.52725 -0.0277464
v 0.166909 0.481693 -0.020351
v 0.165992 0.48069 -0.0326587
v -0.26807 -0.861247 -0.0647775
v -0.268016 -0.879728 -0.0647775
v -0.203941 0.444731 -0.020351
v -0.203023 0.443728 -0.0326587
v -0.237031 0.401753 -0.0647775
v -0.222618 0.40777 -0.0935494
v -0.242051 0.371811 -0.114386
v -0.239406 0.367226 -0.126694
v -0.261323 0.361066 -0.0790285
v -0.201889 0.442296 -0.046262
v -0.2278 0.411781 -0.0647775
v -0.26807 0.342585 -0.0647775
v -0.115034 0.52725 -0.0277464
v -0.114872 0.52725 -0.0283942
v -0.112065 0.52725 -0.0391904
v -0.164211 0.478398 -0.046262
v -0.266073 -0.898209 -0.0647775
v -0.260351 -0.90924 -0.0766533
v -0.240486 -0.925859 -0.092038
v -0.213009 -0.932735 -0.120378
v -0.229042 -0.929727 -0.101863
v -0.222942 -0.926575 -0.130688
v -0.225101 -0.927864 -0.120378
v -0.175924 -0.935027 -0.157409
v -0.157409 -0.935027 -0.175925
v -0.138893 -0.936174 -0.175925
v -0.101862 -0.936317 -0.19444
v -0.19444 -0.934311 -0.138894
v 0.101862 -0.936317 -0.19444
v 0.138893 -0.936174 -0.175925
v 0.157409 -0.935027 -0.175925
v 0.175924 -0.935027 -0.157409
v 0.19444 -0.934311 -0.138894
v 0.213009 -0.932735 -0.120378
v 0.260351 -0.90924 -0.0766533
v 0.266073 -0.898209 -0.0647775
v 0.229042 -0.929727 -0.101863
v 0.225101 -0.927864 -0.120378
v 0.222942 -0.926575 -0.130688
v 0.240486 -0.925859 -0.092038
v 0.268016 -0.879728 -0.0647775
v 0.26807 -0.861247 -0.0647775
v 0.261322 0.361066 -0.0790285
v 0.26807 0.342585 -0.0647775
v 0.239406 0.367226 -0.126694
v 0.242051 0.371811 -0.114386
v 0.222618 0.40777 -0.0935494
v 0.237031 0.401753 -0.0647775
v 0.2278 0.411781 -0.0647775
v 0.201889 0.442296 -0.046262
v 0.20394 0.444731 -0.020351
v 0.112227 0.52725 -0.0385427
v 0.16421 0.478398 -0.046262
v 0.112065 0.52725 -0.0391365
v -0.262888 -0.879728 -0.0828072
v -0.261862 -0.898209 -0.080378
v -0.224615 0.409345 -0.083347
v -0.187099 0.446164 -0.0789206
v -0.149258 0.482552 -0.0762755
v -0.184615 0.443728 -0.0912822
v -0.207018 0.409918 -0.120378
v -0.204265 0.407913 -0.130311
v -0.219919 0.404045 -0.105857
v -0.226559 0.374533 -0.138894
v -0.223158 0.371238 -0.149366
v -0.235142 0.361066 -0.138084
v -0.241673 0.354906 -0.131336
v -0.244157 0.361066 -0.120486
v -0.262888 0.342585 -0.0828072
v -0.18996 0.44817 -0.0647775
v -0.10807 0.52725 -0.0483672
v -0.151633 0.484272 -0.0647775
v -0.240324 -0.905659 -0.128583
v -0.242861 -0.910673 -0.116222
v -0.24583 -0.914398 -0.101863
v -0.238273 -0.923566 -0.101863
v -0.212362 -0.928867 -0.137652
v -0.188718 -0.928008 -0.171336
v -0.235358 -0.916833 -0.12162
v -0.227153 -0.916403 -0.137652
v -0.224076 -0.909957 -0.150554
v -0.218138 -0.922277 -0.142996
v -0.20108 -0.923853 -0.163347
v -0.183698 -0.925142 -0.183698
v -0.176896 -0.930443 -0.176896
v -0.138893 -0.934311 -0.19444
v -0.120378 -0.935887 -0.19444
v -0.0647774 -0.936317 -0.21301
v -0.0833469 -0.935887 -0.21301
v -0.19471 -0.92987 -0.157247
v 0.0647772 -0.936317 -0.21301
v 0.0833467 -0.935887 -0.21301
v 0.120378 -0.935887 -0.19444
v 0.138893 -0.934311 -0.19444
v 0.176896 -0.930443 -0.176896
v 0.19471 -0.92987 -0.157247
v 0.212361 -0.928867 -0.137652
v 0.24583 -0.914398 -0.101863
v 0.242861 -0.910673 -0.116222
v 0.240324 -0.905659 -0.128583
v 0.261862 -0.898209 -0.080378
v 0.188718 -0.928008 -0.171336
v 0.183697 -0.925142 -0.183698
v 0.201079 -0.923853 -0.163347
v 0.218137 -0.922277 -0.142996
v 0.224075 -0.909957 -0.150554
v 0.227152 -0.916403 -0.137652
v 0.235357 -0.916833 -0.12162
v 0.238272 -0.923566 -0.101863
v 0.262888 -0.879728 -0.0828072
v 0.244156 0.361066 -0.120486
v 0.262888 0.342585 -0.0828072
v 0.241673 0.354906 -0.131336
v 0.223158 0.371238 -0.149366
v 0.226558 0.374533 -0.138894
v 0.204264 0.407913 -0.130311
v 0.235141 0.361066 -0.138084
v 0.219919 0.404045 -0.105857
v 0.207017 0.409918 -0.120378
v 0.184615 0.443728 -0.0912822
v 0.149258 0.482552 -0.0762755
v 0.187098 0.446164 -0.0789206
v 0.224615 0.409345 -0.083347
v 0.189959 0.44817 -0.0647775
v 0.151633 0.484272 -0.0647775
v 0.108286 0.52725 -0.0480973
v -0.255061 -0.861247 -0.101863
v -0.259055 -0.879728 -0.092092
v -0.241673 -0.893338 -0.131336
v -0.244696 -0.899069 -0.12162
v -0.107854 0.52725 -0.0487991
v -0.0977059 0.52725 -0.066235
v -0.133333 0.483985 -0.0974901
v -0.168745 0.446021 -0.1139
v -0.128637 0.480404 -0.109852
v -0.187099 0.408772 -0.150661
v -0.182294 0.403615 -0.163023
v -0.205992 0.372384 -0.169663
v -0.201242 0.364504 -0.182025
v -0.225479 0.361066 -0.152389
v -0.203833 0.352184 -0.185317
v -0.227314 0.342585 -0.154818
v -0.236599 0.342585 -0.141485
v -0.242159 0.342585 -0.1322
v -0.247341 0.342585 -0.120378
v -0.255061 0.342585 -0.101863
v -0.236221 -0.899069 -0.138084
v -0.171336 -0.928008 -0.188718
v -0.226127 -0.898209 -0.153253
v -0.202213 -0.901791 -0.183266
v -0.206964 -0.911532 -0.170904
v -0.195466 -0.918409 -0.177328
v -0.163347 -0.923853 -0.20108
v -0.130688 -0.926575 -0.222942
v -0.189852 -0.912822 -0.189852
v -0.177328 -0.918409 -0.195466
v -0.157247 -0.92987 -0.19471
v -0.101862 -0.934884 -0.21301
v -0.137652 -0.928867 -0.212362
v -0.120378 -0.932735 -0.21301
v -0.00923089 -0.935744 -0.231525
v -0.0647774 -0.934025 -0.231525
v -0.0462619 -0.934884 -0.231525
v 0.00923064 -0.935744 -0.231525
v 0.0462617 -0.934884 -0.231525
v 0.0647772 -0.934025 -0.231525
v 0.101862 -0.934884 -0.21301
v 0.120378 -0.932735 -0.21301
v 0.137652 -0.928867 -0.212362
v 0.157247 -0.92987 -0.19471
v 0.171336 -0.928008 -0.188718
v 0.236221 -0.899069 -0.138084
v 0.241673 -0.893338 -0.131336
v 0.244696 -0.899069 -0.12162
v 0.130688 -0.926575 -0.222942
v 0.163347 -0.923853 -0.20108
v 0.177328 -0.918409 -0.195466
v 0.189851 -0.912822 -0.189852
v 0.195465 -0.918409 -0.177328
v 0.206963 -0.911532 -0.170904
v 0.202213 -0.901791 -0.183266
v 0.226127 -0.898209 -0.153253
v 0.259055 -0.879728 -0.092092
v 0.259055 0.342585 -0.092092
v 0.247341 0.342585 -0.120378
v 0.242159 0.342585 -0.1322
v 0.236599 0.342585 -0.141485
v 0.227314 0.342585 -0.154818
v 0.203832 0.352184 -0.185317
v 0.225479 0.361066 -0.152389
v 0.201241 0.364504 -0.182025
v 0.205992 0.372384 -0.169663
v 0.182294 0.403615 -0.163023
v 0.187098 0.408772 -0.150661
v 0.128637 0.480404 -0.109852
v 0.168745 0.446021 -0.1139
v 0.133333 0.483985 -0.0974901
v 0.0977056 0.52725 -0.066235
v -0.247341 -0.879728 -0.120378
v -0.242159 -0.879728 -0.1322
v -0.236599 -0.879728 -0.141485
v -0.0975979 0.52725 -0.0663969
v -0.0836168 0.52725 -0.0828612
v -0.116275 0.484701 -0.116276
v -0.146559 0.443012 -0.146559
v -0.169933 0.409632 -0.169933
v -0.18888 0.373387 -0.18888
v -0.182024 0.364504 -0.201242
v -0.193252 0.358344 -0.193253
v -0.185317 0.352184 -0.203833
v -0.194656 0.342585 -0.194656
v -0.203887 0.342585 -0.185371
v -0.220243 0.342585 -0.164049
v -0.227314 -0.879728 -0.154818
v -0.203833 -0.88947 -0.185317
v -0.183266 -0.901791 -0.202213
v -0.193792 -0.89563 -0.193792
v -0.170904 -0.911532 -0.206964
v -0.150553 -0.909957 -0.224076
v -0.142996 -0.922277 -0.218138
v -0.0920379 -0.925859 -0.240486
v -0.0796762 -0.927578 -0.242861
v -0.120378 -0.927864 -0.225101
v -0.137652 -0.916403 -0.227153
v -0.121619 -0.916833 -0.235358
v -0.101862 -0.923566 -0.238273
v -0.101862 -0.929727 -0.229042
v -0.0848584 -0.93073 -0.233199
v -0.00761146 -0.929727 -0.251336
v -0.0647774 -0.928867 -0.245021
v -0.0462619 -0.929727 -0.246694
v -0.0277464 -0.930156 -0.247989
v 0.00761121 -0.929727 -0.251336
v 0.0277461 -0.930156 -0.247989
v 0.0462617 -0.929727 -0.246694
v 0.0647772 -0.928867 -0.245021
v 0.0848581 -0.93073 -0.233199
v 0.101862 -0.929727 -0.229042
v 0.120378 -0.927864 -0.225101
v 0.236599 -0.879728 -0.141485
v 0.242159 -0.879728 -0.1322
v 0.247341 -0.879728 -0.120378
v 0.0796759 -0.927578 -0.242861
v 0.0920376 -0.925859 -0.240486
v 0.101862 -0.923566 -0.238273
v 0.121619 -0.916833 -0.235358
v 0.137652 -0.916403 -0.227153
v 0.150553 -0.909957 -0.224076
v 0.142996 -0.922277 -0.218138
v 0.170904 -0.911532 -0.206964
v 0.183266 -0.901791 -0.202213
v 0.193792 -0.89563 -0.193792
v 0.203832 -0.88947 -0.185317
v 0.227314 -0.879728 -0.154818
v 0.220243 0.342585 -0.164049
v 0.185317 0.352184 -0.203833
v 0.193252 0.358344 -0.193253
v 0.203886 0.342585 -0.185371
v 0.194656 0.342585 -0.194656
v 0.182024 0.364504 -0.201242
v 0.18888 0.373387 -0.18888
v 0.169932 0.409632 -0.169933
v 0.146559 0.443012 -0.146559
v 0.116275 0.484701 -0.116276
v 0.0924695 0.52725 -0.0739003
v 0.0975977 0.52725 -0.0663969
v -0.0828611 0.52725 -0.0836169
v -0.109852 0.480404 -0.128637
v -0.150661 0.408772 -0.187099
v -0.163023 0.403615 -0.182294
v -0.169663 0.372384 -0.205992
v -0.149366 0.371238 -0.223158
v -0.152389 0.361066 -0.225479
v -0.131336 0.354906 -0.241674
v -0.154818 0.342585 -0.227315
v -0.164049 0.342585 -0.220243
v -0.185371 0.342585 -0.203887
v -0.194656 -0.879728 -0.194656
v -0.203887 -0.879728 -0.185371
v -0.220243 -0.861247 -0.164049
v -0.185317 -0.88947 -0.203833
v -0.153252 -0.898209 -0.226127
v -0.138084 -0.899069 -0.236222
v -0.128583 -0.905659 -0.240324
v -0.101862 -0.914398 -0.24583
v -0.0766533 -0.90924 -0.260351
v -0.0647774 -0.920558 -0.254251
v -0.116221 -0.910673 -0.242861
v -0.000377992 -0.926145 -0.259326
v -0.0462619 -0.922707 -0.255925
v -0.0127397 -0.925286 -0.258354
v 0.000377743 -0.926145 -0.259326
v 0.0127394 -0.925286 -0.258354
v 0.0462617 -0.922707 -0.255925
v 0.0647772 -0.920558 -0.254251
v 0.076653 -0.90924 -0.260351
v 0.101862 -0.914398 -0.24583
v 0.116221 -0.910673 -0.242861
v 0.128583 -0.905659 -0.240324
v 0.138083 -0.899069 -0.236222
v 0.153252 -0.898209 -0.226127
v 0.185317 -0.88947 -0.203833
v 0.194656 -0.879728 -0.194656
v 0.203886 -0.879728 -0.185371
v 0.220243 -0.861247 -0.164049
v 0.185371 0.342585 -0.203887
v 0.164048 0.342585 -0.220243
v 0.154818 0.342585 -0.227315
v 0.131336 0.354906 -0.241674
v 0.152388 0.361066 -0.225479
v 0.149366 0.371238 -0.223158
v 0.169662 0.372384 -0.205992
v 0.163023 0.403615 -0.182294
v 0.150661 0.408772 -0.187099
v 0.109851 0.480404 -0.128637
v 0.0739 0.52725 -0.0924698
v 0.0828608 0.52725 -0.0836169
v 0.0836166 0.52725 -0.0828612
v -0.0663969 0.52725 -0.097598
v -0.09749 0.483985 -0.133334
v -0.1139 0.446021 -0.168745
v -0.13031 0.407913 -0.204265
v -0.126694 0.367226 -0.239407
v -0.138084 0.361066 -0.235142
v -0.138893 0.374533 -0.226559
v -0.0828071 0.342585 -0.262888
v -0.101862 0.342585 -0.255061
v -0.120378 0.342585 -0.247342
v -0.1322 0.342585 -0.24216
v -0.141485 0.342585 -0.236599
v -0.120486 0.361066 -0.244157
v -0.0790284 0.361066 -0.261323
v -0.154818 -0.879728 -0.227315
v -0.164049 -0.861247 -0.220243
v -0.185371 -0.879728 -0.203887
v -0.141485 -0.879728 -0.236599
v -0.131336 -0.893338 -0.241674
v -0.121619 -0.899069 -0.244697
v -0.0803779 -0.898209 -0.261863
v -0.0647774 -0.898209 -0.266073
v -0.0647774 -0.911389 -0.261701
v -0.0462619 -0.913538 -0.263158
v -0.0277464 -0.914971 -0.264346
v -0.00761146 -0.918123 -0.264346
v 0.00761121 -0.918123 -0.264346
v 0.0277461 -0.914971 -0.264346
v 0.0462617 -0.913538 -0.263158
v 0.0647772 -0.911389 -0.261701
v 0.0647772 -0.898209 -0.266073
v 0.0803777 -0.898209 -0.261863
v 0.121619 -0.899069 -0.244697
v 0.131336 -0.893338 -0.241674
v 0.141484 -0.879728 -0.236599
v 0.154818 -0.879728 -0.227315
v 0.185371 -0.879728 -0.203887
v 0.164048 -0.861247 -0.220243
v 0.141484 0.342585 -0.236599
v 0.1322 0.342585 -0.24216
v 0.120378 0.342585 -0.247342
v 0.0920916 0.342585 -0.259056
v 0.0828068 0.342585 -0.262888
v 0.0790282 0.361066 -0.261323
v 0.120486 0.361066 -0.244157
v 0.126693 0.367226 -0.239407
v 0.138083 0.361066 -0.235142
v 0.138893 0.374533 -0.226559
v 0.13031 0.407913 -0.204265
v 0.1139 0.446021 -0.168745
v 0.0974897 0.483985 -0.133334
v 0.0663966 0.52725 -0.097598
v -0.0662349 0.52725 -0.097706
v -0.0762754 0.482552 -0.149258
v -0.0912821 0.443728 -0.184616
v -0.120378 0.409918 -0.207018
v -0.0935493 0.40777 -0.222618
v -0.105857 0.404045 -0.219919
v -0.114386 0.371811 -0.242052
v -0.0748179 0.370665 -0.259595
v -0.0647774 0.342585 -0.26807
v -0.0828071 -0.879728 -0.262888
v -0.101862 -0.879728 -0.255061
v -0.120378 -0.879728 -0.247342
v -0.1322 -0.879728 -0.24216
v -0.0647774 0.361066 -0.26494
v -0.0647774 -0.879728 -0.26807
v -0.0462619 -0.898209 -0.26888
v -0.00923089 -0.898209 -0.273684
v 0.00923064 -0.898209 -0.273684
v 0.0462617 -0.898209 -0.26888
v 0.0647772 -0.879728 -0.268017
v 0.0828068 -0.879728 -0.262888
v 0.0920916 -0.879728 -0.259056
v 0.120378 -0.879728 -0.247342
v 0.1322 -0.879728 -0.24216
v 0.0647772 0.342585 -0.26807
v 0.0647772 0.361066 -0.26494
v 0.0748177 0.370665 -0.259595
v 0.114386 0.371811 -0.242052
v 0.105857 0.404045 -0.219919
v 0.0935491 0.40777 -0.222618
v 0.120378 0.409918 -0.207018
v 0.0912819 0.443728 -0.184616
v 0.0762751 0.482552 -0.149258
v 0.0662347 0.52725 -0.097706
v -0.0480973 0.52725 -0.108286
v -0.0391904 0.52725 -0.112065
v -0.0647774 0.484272 -0.151633
v -0.0789205 0.446164 -0.187099
v -0.0833469 0.409345 -0.224616
v -0.0647774 0.401753 -0.237031
v -0.0462619 0.405048 -0.239083
v -0.0647774 0.371811 -0.260567
v -0.0462619 0.361066 -0.267747
v -0.0462619 0.342585 -0.270877
v -0.0462619 -0.861247 -0.270877
v -0.0462619 -0.879728 -0.270824
v -0.00923089 -0.879728 -0.275628
v 0.00923064 -0.879728 -0.275628
v 0.0462617 -0.879728 -0.270824
v 0.0647772 -0.861247 -0.26807
v 0.0462617 0.342585 -0.270877
v 0.0462617 0.361066 -0.267747
v 0.0647772 0.371811 -0.260567
v 0.0462617 0.405048 -0.239083
v 0.0647772 0.401753 -0.237031
v 0.0833467 0.409345 -0.224616
v 0.0789202 0.446164 -0.187099
v 0.0647772 0.484272 -0.151633
v 0.0391362 0.52725 -0.112065
v 0.0483669 0.52725 -0.10807
v 0.0487988 0.52725 -0.107854
v -0.0277464 0.52725 -0.115034
v -0.0327127 0.48069 -0.165992
v -0.0462619 0.478398 -0.164211
v -0.0647774 0.44817 -0.18996
v -0.0462619 0.442296 -0.20189
v -0.0647774 0.411781 -0.227801
v -0.0326587 0.443728 -0.203023
v -0.0327127 0.40648 -0.240108
v -0.0462619 0.373387 -0.261971
v -0.00923089 0.361066 -0.272497
v -0.0277464 0.342585 -0.273307
v -0.00923089 -0.861247 -0.275736
v 0.00923064 -0.861247 -0.275682
v 0.0277461 -0.861247 -0.273307
v 0.0462617 -0.861247 -0.270877
v 0.0277461 0.342585 -0.273307
v 0.00923064 0.361066 -0.272497
v 0.0462617 0.373387 -0.261971
v 0.0203507 0.407626 -0.240972
v 0.0326584 0.40648 -0.240108
v 0.0326584 0.443728 -0.203023
v 0.0462617 0.442296 -0.20189
v 0.0647772 0.411781 -0.227801
v 0.0647772 0.44817 -0.18996
v 0.0462617 0.478398 -0.164211
v 0.0283939 0.52725 -0.114872
v 0.0326584 0.48069 -0.165992
v -0.00923089 0.52725 -0.118273
v -0.020351 0.481693 -0.16691
v -0.020351 0.444731 -0.203941
v -0.020351 0.407626 -0.240972
v -0.00923089 0.408343 -0.241674
v -0.0277464 0.374533 -0.263104
v -0.00923089 0.375536 -0.264292
v -0.00923089 0.342585 -0.275682
v -0.00923089 0.324104 -0.275736
v 0.00923064 0.342585 -0.275682
v 0.00923064 0.375536 -0.264292
v 0.0277461 0.374533 -0.263104
v 0.00923064 0.408343 -0.241674
v 0.0203507 0.444731 -0.203941
v 0.0277461 0.52725 -0.115034
v 0.0203507 0.481693 -0.16691
v 0.00923064 0.52725 -0.118273
v 0.00987841 0.52725 -0.118165
v -0.00923089 0.482409 -0.167558
v -0.00923089 0.445448 -0.204643
v 0.00923064 0.445448 -0.204643
v 0.00923064 0.482409 -0.167558
f 1 2 3
f 1 3 4
f 1 4 10
f 1 10 12
f 1 12 5
f 1 5 8
f 1 8 2
f 2 6 17
f 2 17 7
f 2 7 9
f 2 9 3
f 2 8 18
f 2 18 6
f 3 9 11
f 3 11 4
f 4 11 10
f 5 12 13
f 5 13 14
f 5 14 15
f 5 15 8
f 6 16 17
f 6 18 37
f 6 37 16
f 7 17 19
f 7 19 20
f 7 20 21
f 7 21 22
f 7 22 23
f 7 23 9
f 8 15 18
f 9 23 24
f 9 24 25
f 9 25 26
f 9 26 11
f 10 11 29
f 10 29 27
f 10 27 30
f 10 30 12
f 11 26 28
f 11 28 29
f 12 30 31
f 12 31 13
f 13 31 56
f 13 56 32
f 13 32 33
f 13 33 14
f 14 33 34
f 14 34 15
f 15 34 65
f 15 65 35
f 15 35 18
f 16 36 38
f 16 38 17
f 16 37 69
f 16 69 36
f 17 38 39
f 17 39 19
f 18 35 37
f 19 39 40
f 19 40 41
f 19 41 42
f 19 42 20
f 20 42 43
f 20 43 21
f 21 43 22
f 22 43 44
f 22 44 23
f 23 44 24
f 24 44 25
f 25 44 45
f 25 45 26
f 26 45 46
f 26 46 47
f 26 47 28
f 27 29 48
f 27 48 49
f 27 49 54
f 27 54 30
f 28 50 48
f 28 48 29
f 28 47 51
f 28 51 52
f 28 52 53
f 28 53 50
f 30 54 31
f 31 54 55
f 31 55 56
f 32 56 57
f 32 57 33
f 33 57 58
f 33 58 59
f 33 59 60
f 33 60 61
f 33 61 34
f 34 61 62
f 34 62 63
f 34 63 64
f 34 64 65
f 35 65 108
f 35 108 66
f 35 66 69
f 35 69 37
f 36 67 68
f 36 68 38
f 36 69 111
f 36 111 67
f 38 68 39
f 39 68 70
f 39 70 71
f 39 71 72
f 39 72 73
f 39 73 40
f 40 73 74
f 40 74 75
f 40 75 76
f 40 76 41
f 41 76 42
f 42 76 77
f 42 77 78
f 42 78 43
f 43 78 79
f 43 79 44
f 44 79 80
f 44 80 45
f 45 80 81
f 45 81 46
f 46 81 47
f 47 81 82
f 47 82 83
f 47 83 51
f 48 50 84
f 48 84 85
f 48 85 49
f 49 85 86
f 49 86 97
f 49 97 54
f 50 53 87
f 50 87 88
f 50 88 89
f 50 89 90
f 50 90 85
f 50 85 84
f 51 83 91
f 51 91 52
f 52 91 92
f 52 92 93
f 52 93 94
f 52 94 95
f 52 95 87
f 52 87 96
f 52 96 53
f 53 96 87
f 54 97 98
f 54 98 55
f 55 98 99
f 55 99 100
f 55 100 101
f 55 101 56
f 56 101 57
f 57 101 102
f 57 102 103
f 57 103 58
f 58 103 104
f 58 104 59
f 59 104 60
f 60 104 105
f 60 105 61
f 61 105 62
f 62 105 63
f 63 105 106
f 63 106 64
f 64 107 108
f 64 108 65
f 64 106 109
f 64 109 107
f 66 108 110
f 66 110 111
f 66 111 69
f 67 112 113
f 67 113 68
f 67 111 180
f 67 180 112
f 68 114 70
f 68 113 114
f 70 115 116
f 70 116 117
f 70 117 71
f 70 114 113
f 70 113 118
f 70 118 115
f 71 117 119
f 71 119 72
f 72 119 117
f 72 117 120
f 72 120 121
f 72 121 122
f 72 122 123
f 72 123 124
f 72 124 73
f 73 124 74
f 74 124 75
f 75 124 125
f 75 125 126
f 75 126 127
f 75 127 76
f 76 127 128
f 76 128 77
f 77 128 78
f 78 128 129
f 78 129 130
f 78 130 79
f 79 130 131
f 79 131 80
f 80 131 132
f 80 132 81
f 81 132 82
f 82 91 83
f 82 132 133
f 82 133 134
f 82 134 91
f 85 135 136
f 85 136 137
f 85 137 138
f 85 138 139
f 85 139 86
f 85 90 140
f 85 140 135
f 86 139 153
f 86 153 97
f 87 95 94
f 87 94 93
f 87 93 141
f 87 141 142
f 87 142 143
f 87 143 144
f 87 144 145
f 87 145 89
f 87 89 88
f 89 145 146
f 89 146 140
f 89 140 90
f 91 134 92
f 92 134 147
f 92 147 93
f 93 148 141
f 93 147 149
f 93 149 150
f 93 150 151
f 93 151 152
f 93 152 148
f 97 153 98
f 98 153 154
f 98 154 155
f 98 155 156
f 98 156 157
f 98 157 100
f 98 100 99
f 100 157 158
f 100 158 159
f 100 159 160
f 100 160 161
f 100 161 101
f 101 161 162
f 101 162 163
f 101 163 102
f 102 163 164
f 102 164 165
f 102 165 103
f 103 166 104
f 103 165 166
f 104 166 165
f 104 165 167
f 104 167 168
f 104 168 169
f 104 169 105
f 105 169 170
f 105 170 171
f 105 171 172
f 105 172 106
f 106 172 171
f 106 171 109
f 107 173 174
f 107 174 175
f 107 175 110
f 107 110 108
f 107 109 176
f 107 176 173
f 109 171 177
f 109 177 176
f 110 178 111
f 110 175 179
f 110 179 178
f 111 178 180
f 112 181 113
f 112 180 248
f 112 248 181
f 113 181 182
f 113 182 183
f 113 183 184
f 113 184 185
f 113 185 186
f 113 186 118
f 115 118 186
f 115 186 187
f 115 187 188
f 115 188 117
f 115 117 116
f 117 189 190
f 117 190 191
f 117 191 192
f 117 192 122
f 117 122 121
f 117 121 120
f 117 188 189
f 122 192 193
f 122 193 194
f 122 194 195
f 122 195 196
f 122 196 197
f 122 197 123
f 123 197 125
f 123 125 124
f 125 197 126
f 126 197 196
f 126 196 127
f 127 196 198
f 127 198 199
f 127 199 200
f 127 200 128
f 128 200 129
f 129 200 201
f 129 201 130
f 130 201 131
f 131 201 132
f 132 201 202
f 132 202 203
f 132 203 204
f 132 204 149
f 132 149 133
f 133 149 147
f 133 147 134
f 135 140 146
f 135 146 205
f 135 205 206
f 135 206 207
f 135 207 208
f 135 208 209
f 135 209 136
f 136 209 269
f 136 269 210
f 136 210 155
f 136 155 137
f 137 155 154
f 137 154 138
f 138 154 153
f 138 153 139
f 141 148 142
f 142 148 211
f 142 211 212
f 142 212 213
f 142 213 143
f 143 213 214
f 143 214 144
f 144 214 215
f 144 215 145
f 145 215 146
f 146 215 216
f 146 216 205
f 148 152 217
f 148 217 211
f 149 204 203
f 149 203 202
f 149 202 201
f 149 201 200
f 149 200 199
f 149 199 198
f 149 198 196
f 149 196 195
f 149 195 194
f 149 194 261
f 149 261 260
f 149 260 315
f 149 315 375
f 149 375 441
f 149 441 496
f 149 496 495
f 149 495 494
f 149 494 543
f 149 543 581
f 149 581 584
f 149 584 583
f 149 583 636
f 149 636 686
f 149 686 740
f 149 740 742
f 149 742 814
f 149 814 886
f 149 886 954
f 149 954 953
f 149 953 1006
f 149 1006 1005
f 149 1005 1004
f 149 1004 1058
f 149 1058 1092
f 149 1092 1119
f 149 1119 1118
f 149 1118 1117
f 149 1117 1145
f 149 1145 1161
f 149 1161 1164
f 149 1164 1163
f 149 1163 1147
f 149 1147 1120
f 149 1120 1094
f 149 1094 1093
f 149 1093 1059
f 149 1059 1007
f 149 1007 955
f 149 955 891
f 149 891 890
f 149 890 820
f 149 820 819
f 149 819 759
f 149 759 703
f 149 703 702
f 149 702 701
f 149 701 647
f 149 647 597
f 149 597 554
f 149 554 508
f 149 508 451
f 149 451 450
f 149 450 385
f 149 385 328
f 149 328 272
f 149 272 271
f 149 271 270
f 149 270 211
f 149 211 217
f 149 217 152
f 149 152 151
f 149 151 150
f 155 210 156
f 156 210 218
f 156 218 219
f 156 219 158
f 156 158 157
f 158 219 220
f 158 220 221
f 158 221 222
f 158 222 223
f 158 223 159
f 159 223 160
f 160 223 224
f 160 224 161
f 161 224 162
f 162 224 163
f 163 223 164
f 163 224 223
f 164 223 225
f 164 225 226
f 164 226 227
f 164 227 165
f 165 227 228
f 165 228 167
f 167 229 168
f 167 228 229
f 168 229 230
f 168 230 231
f 168 231 232
f 168 232 169
f 169 232 233
f 169 233 234
f 169 234 170
f 170 234 235
f 170 235 171
f 171 235 236
f 171 236 177
f 173 176 237
f 173 237 174
f 174 237 238
f 174 238 175
f 175 239 178
f 175 178 179
f 175 238 240
f 175 240 241
f 175 241 239
f 176 177 242
f 176 242 237
f 177 243 242
f 177 236 244
f 177 244 243
f 178 245 246
f 178 246 247
f 178 247 248
f 178 248 180
f 178 239 245
f 181 248 247
f 181 247 182
f 182 247 246
f 182 246 183
f 183 246 250
f 183 250 184
f 184 249 185
f 184 250 302
f 184 302 249
f 185 251 252
f 185 252 187
f 185 187 186
f 185 249 253
f 185 253 254
f 185 254 251
f 187 255 256
f 187 256 188
f 187 252 255
f 188 256 189
f 189 257 190
f 189 256 257
f 190 257 258
f 190 258 191
f 191 259 260
f 191 260 261
f 191 261 193
f 191 193 192
f 191 258 259
f 193 261 194
f 205 216 206
f 206 216 262
f 206 262 263
f 206 263 264
f 206 264 265
f 206 265 266
f 206 266 207
f 207 266 327
f 207 327 267
f 207 267 268
f 207 268 208
f 208 268 269
f 208 269 209
f 210 269 268
f 210 268 218
f 211 270 212
f 212 270 271
f 212 271 272
f 212 272 273
f 212 273 213
f 213 274 214
f 213 273 274
f 214 274 275
f 214 275 215
f 215 276 216
f 215 275 276
f 216 276 277
f 216 277 262
f 218 268 267
f 218 267 278
f 218 278 279
f 218 279 219
f 219 280 281
f 219 281 220
f 219 279 280
f 220 281 282
f 220 282 221
f 221 282 283
f 221 283 223
f 221 223 222
f 223 284 285
f 223 285 286
f 223 286 225
f 223 283 284
f 225 286 226
f 226 286 227
f 227 286 228
f 228 286 287
f 228 287 288
f 228 288 230
f 228 230 229
f 230 288 231
f 231 288 289
f 231 289 290
f 231 290 232
f 232 290 291
f 232 291 233
f 233 291 235
f 233 235 234
f 235 292 236
f 235 291 293
f 235 293 292
f 236 292 244
f 237 242 238
f 238 242 240
f 239 241 245
f 240 242 241
f 241 294 295
f 241 295 245
f 241 242 296
f 241 296 297
f 241 297 294
f 242 243 292
f 242 292 298
f 242 298 299
f 242 299 300
f 242 300 297
f 242 297 296
f 243 244 292
f 245 301 250
f 245 250 246
f 245 295 301
f 249 302 303
f 249 303 253
f 250 301 303
f 250 303 302
f 251 304 305
f 251 305 255
f 251 255 252
f 251 254 306
f 251 306 307
f 251 307 308
f 251 308 304
f 253 303 309
f 253 309 254
f 254 309 368
f 254 368 306
f 255 305 310
f 255 310 311
f 255 311 256
f 256 311 312
f 256 312 257
f 257 312 313
f 257 313 258
f 258 313 314
f 258 314 259
f 259 314 315
f 259 315 260
f 262 277 316
f 262 316 263
f 263 317 318
f 263 318 319
f 263 319 320
f 263 320 321
f 263 321 264
f 263 316 322
f 263 322 323
f 263 323 324
f 263 324 317
f 264 321 381
f 264 381 325
f 264 325 326
f 264 326 265
f 265 326 327
f 265 327 266
f 267 327 278
f 272 328 329
f 272 329 273
f 273 329 330
f 273 330 331
f 273 331 274
f 274 331 275
f 275 331 276
f 276 331 277
f 277 322 316
f 277 331 332
f 277 332 322
f 278 327 325
f 278 325 333
f 278 333 280
f 278 280 279
f 280 334 335
f 280 335 281
f 280 333 334
f 281 336 283
f 281 283 282
f 281 335 336
f 283 337 338
f 283 338 339
f 283 339 284
f 283 336 337
f 284 339 340
f 284 340 341
f 284 341 285
f 285 341 342
f 285 342 286
f 286 342 287
f 287 343 288
f 287 342 343
f 288 343 344
f 288 344 289
f 289 344 408
f 289 408 467
f 289 467 520
f 289 520 563
f 289 563 609
f 289 609 659
f 289 659 715
f 289 715 776
f 289 776 779
f 289 779 717
f 289 717 663
f 289 663 611
f 289 611 564
f 289 564 521
f 289 521 469
f 289 469 409
f 289 409 345
f 289 345 290
f 290 345 291
f 291 346 293
f 291 345 346
f 292 293 347
f 292 347 298
f 293 346 347
f 294 297 348
f 294 348 349
f 294 349 295
f 295 349 350
f 295 350 351
f 295 351 301
f 297 300 348
f 298 347 352
f 298 352 299
f 299 353 300
f 299 352 354
f 299 354 353
f 300 353 355
f 300 355 356
f 300 356 357
f 300 357 349
f 300 349 348
f 301 351 358
f 301 358 309
f 301 309 303
f 304 308 359
f 304 359 360
f 304 360 361
f 304 361 362
f 304 362 363
f 304 363 364
f 304 364 365
f 304 365 366
f 304 366 367
f 304 367 305
f 305 367 310
f 306 368 369
f 306 369 307
f 307 369 370
f 307 370 308
f 308 370 427
f 308 427 359
f 309 358 368
f 310 367 366
f 310 366 371
f 310 371 372
f 310 372 311
f 311 372 312
f 312 372 313
f 313 372 314
f 314 373 374
f 314 374 375
f 314 375 315
f 314 372 373
f 317 324 376
f 317 376 443
f 317 443 377
f 317 377 378
f 317 378 318
f 318 378 379
f 318 379 319
f 319 379 380
f 319 380 320
f 320 380 381
f 320 381 321
f 322 332 331
f 322 331 382
f 322 382 383
f 322 383 324
f 322 324 323
f 324 383 384
f 324 384 376
f 325 381 333
f 325 327 326
f 328 385 329
f 329 386 330
f 329 385 386
f 330 386 331
f 331 386 387
f 331 387 388
f 331 388 389
f 331 389 390
f 331 390 382
f 333 381 391
f 333 391 392
f 333 392 334
f 334 392 393
f 334 393 394
f 334 394 338
f 334 338 395
f 334 395 337
f 334 337 335
f 335 337 336
f 337 395 338
f 338 396 397
f 338 397 398
f 338 398 399
f 338 399 400
f 338 400 339
f 338 394 401
f 338 401 402
f 338 402 396
f 339 400 403
f 339 403 340
f 340 403 404
f 340 404 405
f 340 405 406
f 340 406 342
f 340 342 341
f 342 406 343
f 343 407 344
f 343 406 407
f 344 407 408
f 345 409 410
f 345 410 346
f 346 411 347
f 346 410 411
f 347 354 352
f 347 411 354
f 349 357 412
f 349 412 350
f 350 412 413
f 350 413 414
f 350 414 358
f 350 358 351
f 353 354 415
f 353 415 416
f 353 416 355
f 354 411 417
f 354 417 418
f 354 418 415
f 355 416 419
f 355 419 420
f 355 420 421
f 355 421 422
f 355 422 423
f 355 423 424
f 355 424 425
f 355 425 413
f 355 413 426
f 355 426 356
f 356 426 413
f 356 413 412
f 356 412 357
f 358 414 370
f 358 370 368
f 359 427 428
f 359 428 360
f 360 428 429
f 360 429 361
f 361 429 430
f 361 430 362
f 362 430 432
f 362 432 363
f 363 431 364
f 363 432 484
f 363 484 431
f 364 433 434
f 364 434 366
f 364 366 365
f 364 431 433
f 366 434 435
f 366 435 372
f 366 372 371
f 368 370 369
f 370 414 427
f 372 435 436
f 372 436 437
f 372 437 438
f 372 438 439
f 372 439 440
f 372 440 373
f 373 440 374
f 374 440 441
f 374 441 375
f 376 384 449
f 376 449 442
f 376 442 498
f 376 498 443
f 377 443 444
f 377 444 445
f 377 445 391
f 377 391 378
f 378 391 379
f 379 391 380
f 380 391 381
f 382 390 389
f 382 389 383
f 383 389 446
f 383 446 447
f 383 447 448
f 383 448 449
f 383 449 384
f 385 450 386
f 386 450 451
f 386 451 452
f 386 452 453
f 386 453 389
f 386 389 387
f 387 389 388
f 389 453 454
f 389 454 446
f 391 445 455
f 391 455 393
f 391 393 392
f 393 455 445
f 393 445 456
f 393 456 457
f 393 457 401
f 393 401 394
f 396 402 458
f 396 458 456
f 396 456 459
f 396 459 397
f 397 459 460
f 397 460 461
f 397 461 462
f 397 462 398
f 398 462 399
f 399 462 461
f 399 461 463
f 399 463 464
f 399 464 404
f 399 404 400
f 400 404 403
f 401 457 402
f 402 457 458
f 404 464 465
f 404 465 405
f 405 465 466
f 405 466 408
f 405 408 406
f 406 408 407
f 408 466 467
f 409 468 417
f 409 417 411
f 409 411 410
f 409 469 468
f 413 425 470
f 413 470 471
f 413 471 414
f 414 472 427
f 414 471 472
f 415 418 416
f 416 418 419
f 417 468 473
f 417 473 418
f 418 473 474
f 418 474 419
f 419 475 476
f 419 476 477
f 419 477 420
f 419 474 475
f 420 477 421
f 421 478 422
f 421 477 476
f 421 476 479
f 421 479 478
f 422 478 480
f 422 480 481
f 422 481 423
f 423 481 482
f 423 482 424
f 424 482 470
f 424 470 425
f 427 472 428
f 428 472 429
f 429 472 430
f 430 472 432
f 431 483 487
f 431 487 433
f 431 484 533
f 431 533 483
f 432 472 485
f 432 485 486
f 432 486 484
f 433 487 434
f 434 488 489
f 434 489 490
f 434 490 437
f 434 437 435
f 434 487 488
f 435 437 436
f 437 490 491
f 437 491 492
f 437 492 440
f 437 440 439
f 437 439 438
f 440 492 493
f 440 493 494
f 440 494 495
f 440 495 496
f 440 496 441
f 442 449 497
f 442 497 546
f 442 546 498
f 443 498 499
f 443 499 444
f 444 499 548
f 444 548 500
f 444 500 445
f 445 500 456
f 446 454 501
f 446 501 447
f 447 501 502
f 447 502 503
f 447 503 504
f 447 504 448
f 448 505 506
f 448 506 449
f 448 504 507
f 448 507 505
f 449 506 545
f 449 545 497
f 451 508 509
f 451 509 510
f 451 510 452
f 452 510 511
f 452 511 453
f 453 511 454
f 454 502 501
f 454 511 502
f 456 458 457
f 456 500 512
f 456 512 459
f 459 513 460
f 459 512 513
f 460 514 463
f 460 463 461
f 460 513 515
f 460 515 516
f 460 516 514
f 463 514 517
f 463 517 518
f 463 518 519
f 463 519 464
f 464 519 465
f 465 519 467
f 465 467 466
f 467 519 520
f 468 469 473
f 469 521 522
f 469 522 473
f 470 523 472
f 470 472 471
f 470 482 480
f 470 480 485
f 470 485 523
f 472 523 485
f 473 522 474
f 474 522 475
f 475 524 525
f 475 525 479
f 475 479 476
f 475 522 526
f 475 526 524
f 478 479 527
f 478 527 528
f 478 528 480
f 479 525 529
f 479 529 530
f 479 530 527
f 480 528 531
f 480 531 485
f 480 482 481
f 483 532 487
f 483 533 574
f 483 574 532
f 484 486 534
f 484 534 533
f 485 531 486
f 486 531 569
f 486 569 534
f 487 535 488
f 487 532 573
f 487 573 535
f 488 535 536
f 488 536 537
f 488 537 538
f 488 538 489
f 489 538 539
f 489 539 540
f 489 540 490
f 490 540 491
f 491 540 539
f 491 539 541
f 491 541 492
f 492 541 493
f 493 541 542
f 493 542 494
f 494 542 544
f 494 544 543
f 497 545 587
f 497 587 546
f 498 546 499
f 499 546 547
f 499 547 556
f 499 556 548
f 500 548 512
f 502 511 510
f 502 510 509
f 502 509 503
f 503 507 504
f 503 509 555
f 503 555 549
f 503 549 507
f 505 507 550
f 505 550 551
f 505 551 506
f 506 551 552
f 506 552 592
f 506 592 553
f 506 553 585
f 506 585 545
f 507 549 590
f 507 590 550
f 508 554 509
f 509 554 555
f 512 548 556
f 512 556 557
f 512 557 513
f 513 557 516
f 513 516 515
f 514 516 558
f 514 558 517
f 516 559 600
f 516 600 558
f 516 557 560
f 516 560 561
f 516 561 605
f 516 605 559
f 517 558 518
f 518 562 519
f 518 558 562
f 519 562 520
f 520 562 608
f 520 608 563
f 521 564 613
f 521 613 565
f 521 565 522
f 522 565 526
f 524 566 525
f 524 526 566
f 525 566 529
f 526 565 566
f 527 530 529
f 527 529 567
f 527 567 528
f 528 567 568
f 528 568 569
f 528 569 531
f 529 566 614
f 529 614 570
f 529 570 622
f 529 622 571
f 529 571 572
f 529 572 567
f 532 574 625
f 532 625 573
f 533 534 574
f 534 569 568
f 534 568 575
f 534 575 574
f 535 576 632
f 535 632 577
f 535 577 578
f 535 578 536
f 535 573 624
f 535 624 576
f 536 578 579
f 536 579 537
f 537 579 634
f 537 634 580
f 537 580 538
f 538 580 544
f 538 544 539
f 539 544 542
f 539 542 541
f 543 544 581
f 544 580 582
f 544 582 583
f 544 583 584
f 544 584 581
f 545 585 586
f 545 586 588
f 545 588 587
f 546 587 547
f 547 587 588
f 547 588 589
f 547 589 599
f 547 599 556
f 549 555 590
f 550 591 592
f 550 592 552
f 550 552 551
f 550 590 640
f 550 640 591
f 553 592 593
f 553 593 594
f 553 594 595
f 553 595 596
f 553 596 637
f 553 637 585
f 554 597 650
f 554 650 598
f 554 598 555
f 555 598 590
f 556 599 605
f 556 605 561
f 556 561 560
f 556 560 557
f 558 600 608
f 558 608 562
f 559 601 602
f 559 602 603
f 559 603 604
f 559 604 600
f 559 605 606
f 559 606 607
f 559 607 601
f 563 608 610
f 563 610 609
f 564 611 612
f 564 612 613
f 565 613 614
f 565 614 566
f 567 572 568
f 568 572 571
f 568 571 622
f 568 622 615
f 568 615 626
f 568 626 575
f 570 614 616
f 570 616 617
f 570 617 618
f 570 618 619
f 570 619 620
f 570 620 621
f 570 621 622
f 573 623 624
f 573 625 627
f 573 627 623
f 574 575 625
f 575 626 627
f 575 627 625
f 576 628 629
f 576 629 630
f 576 630 631
f 576 631 632
f 576 624 675
f 576 675 628
f 577 632 633
f 577 633 579
f 577 579 578
f 579 633 684
f 579 684 634
f 580 634 582
f 582 634 635
f 582 635 583
f 583 635 685
f 583 685 636
f 585 637 586
f 586 637 646
f 586 646 638
f 586 638 588
f 588 638 639
f 588 639 589
f 589 639 651
f 589 651 599
f 590 598 650
f 590 650 640
f 591 641 594
f 591 594 593
f 591 593 592
f 591 640 691
f 591 691 641
f 594 641 595
f 595 642 596
f 595 641 643
f 595 643 644
f 595 644 642
f 596 642 645
f 596 645 700
f 596 700 646
f 596 646 637
f 597 647 648
f 597 648 649
f 597 649 650
f 599 651 652
f 599 652 607
f 599 607 606
f 599 606 605
f 600 604 653
f 600 653 654
f 600 654 608
f 601 607 652
f 601 652 655
f 601 655 603
f 601 603 602
f 603 656 657
f 603 657 604
f 603 655 658
f 603 658 656
f 604 657 653
f 608 654 610
f 609 610 660
f 609 660 661
f 609 661 659
f 610 654 657
f 610 657 662
f 610 662 660
f 611 663 664
f 611 664 665
f 611 665 612
f 612 665 666
f 612 666 667
f 612 667 668
f 612 668 613
f 613 668 614
f 614 668 669
f 614 669 616
f 615 622 621
f 615 621 620
f 615 620 670
f 615 670 671
f 615 671 676
f 615 676 626
f 616 669 667
f 616 667 617
f 617 667 672
f 617 672 673
f 617 673 674
f 617 674 619
f 617 619 618
f 619 674 670
f 619 670 620
f 623 675 624
f 623 627 677
f 623 677 680
f 623 680 675
f 626 676 627
f 627 676 677
f 628 678 679
f 628 679 629
f 628 675 680
f 628 680 732
f 628 732 678
f 629 679 681
f 629 681 682
f 629 682 683
f 629 683 630
f 630 683 633
f 630 633 631
f 631 633 632
f 633 683 739
f 633 739 684
f 634 684 685
f 634 685 635
f 636 685 687
f 636 687 688
f 636 688 686
f 638 689 690
f 638 690 639
f 638 646 700
f 638 700 689
f 639 690 705
f 639 705 651
f 640 650 649
f 640 649 691
f 641 691 692
f 641 692 643
f 642 644 693
f 642 693 694
f 642 694 695
f 642 695 696
f 642 696 697
f 642 697 645
f 643 692 644
f 644 692 698
f 644 698 699
f 644 699 693
f 645 697 700
f 647 701 648
f 648 691 649
f 648 701 702
f 648 702 703
f 648 703 704
f 648 704 698
f 648 698 692
f 648 692 691
f 651 705 652
f 652 705 706
f 652 706 655
f 653 657 654
f 655 707 658
f 655 706 707
f 656 708 657
f 656 658 709
f 656 709 708
f 657 708 662
f 658 707 710
f 658 710 711
f 658 711 709
f 659 661 712
f 659 712 713
f 659 713 714
f 659 714 715
f 660 662 716
f 660 716 712
f 660 712 661
f 662 708 716
f 663 717 718
f 663 718 719
f 663 719 720
f 663 720 664
f 664 720 665
f 665 720 721
f 665 721 666
f 666 721 722
f 666 722 667
f 667 722 672
f 667 669 668
f 670 723 724
f 670 724 671
f 670 674 723
f 671 724 729
f 671 729 676
f 672 722 725
f 672 725 673
f 673 726 727
f 673 727 728
f 673 728 674
f 673 725 726
f 674 728 723
f 676 729 730
f 676 730 677
f 677 730 732
f 677 732 680
f 678 731 679
f 678 732 731
f 679 733 734
f 679 734 735
f 679 735 736
f 679 736 681
f 679 731 733
f 681 736 737
f 681 737 738
f 681 738 682
f 682 738 688
f 682 688 739
f 682 739 683
f 684 739 687
f 684 687 685
f 686 688 740
f 687 739 688
f 688 741 742
f 688 742 740
f 688 738 741
f 689 743 690
f 689 700 757
f 689 757 743
f 690 743 744
f 690 744 705
f 693 699 745
f 693 745 694
f 694 745 746
f 694 746 747
f 694 747 748
f 694 748 749
f 694 749 750
f 694 750 751
f 694 751 695
f 695 751 750
f 695 750 696
f 696 750 752
f 696 752 753
f 696 753 754
f 696 754 755
f 696 755 756
f 696 756 697
f 697 756 755
f 697 755 757
f 697 757 700
f 698 745 699
f 698 704 758
f 698 758 745
f 703 759 747
f 703 747 760
f 703 760 704
f 704 760 758
f 705 744 706
f 706 744 761
f 706 761 762
f 706 762 763
f 706 763 707
f 707 763 764
f 707 764 710
f 708 709 711
f 708 711 710
f 708 710 765
f 708 765 716
f 710 766 765
f 710 764 767
f 710 767 768
f 710 768 769
f 710 769 770
f 710 770 771
f 710 771 772
f 710 772 766
f 712 716 773
f 712 773 713
f 713 773 774
f 713 774 775
f 713 775 714
f 714 775 715
f 715 775 777
f 715 777 776
f 716 765 778
f 716 778 773
f 717 779 780
f 717 780 781
f 717 781 718
f 718 781 719
f 719 782 783
f 719 783 720
f 719 781 782
f 720 783 721
f 721 783 784
f 721 784 785
f 721 785 722
f 722 785 727
f 722 727 726
f 722 726 725
f 723 786 787
f 723 787 788
f 723 788 789
f 723 789 724
f 723 728 786
f 724 789 729
f 727 785 790
f 727 790 791
f 727 791 792
f 727 792 793
f 727 793 794
f 727 794 795
f 727 795 796
f 727 796 797
f 727 797 728
f 728 797 786
f 729 798 730
f 729 789 798
f 730 798 800
f 730 800 732
f 731 799 733
f 731 732 800
f 731 800 801
f 731 801 799
f 733 802 803
f 733 803 804
f 733 804 734
f 733 799 801
f 733 801 805
f 733 805 802
f 734 804 806
f 734 806 735
f 735 806 804
f 735 804 807
f 735 807 808
f 735 808 809
f 735 809 810
f 735 810 811
f 735 811 736
f 736 811 737
f 737 811 738
f 738 811 812
f 738 812 741
f 741 813 742
f 741 812 813
f 742 813 809
f 742 809 814
f 743 815 816
f 743 816 817
f 743 817 744
f 743 757 834
f 743 834 815
f 744 817 818
f 744 818 761
f 745 758 746
f 746 758 760
f 746 760 747
f 747 759 819
f 747 819 820
f 747 820 821
f 747 821 822
f 747 822 750
f 747 750 748
f 748 750 749
f 750 822 823
f 750 823 824
f 750 824 825
f 750 825 826
f 750 826 753
f 750 753 752
f 753 826 827
f 753 827 828
f 753 828 754
f 754 828 755
f 755 829 830
f 755 830 831
f 755 831 832
f 755 832 833
f 755 833 834
f 755 834 757
f 755 828 829
f 761 818 817
f 761 817 835
f 761 835 769
f 761 769 768
f 761 768 767
f 761 767 762
f 762 767 764
f 762 764 763
f 765 766 778
f 766 772 836
f 766 836 773
f 766 773 778
f 769 835 837
f 769 837 838
f 769 838 839
f 769 839 771
f 769 771 770
f 771 839 840
f 771 840 772
f 772 841 842
f 772 842 836
f 772 840 843
f 772 843 844
f 772 844 841
f 773 845 774
f 773 836 845
f 774 846 775
f 774 845 847
f 774 847 848
f 774 848 846
f 775 846 777
f 776 777 849
f 776 849 852
f 776 852 779
f 777 846 850
f 777 850 851
f 777 851 849
f 779 852 780
f 780 852 853
f 780 853 854
f 780 854 855
f 780 855 781
f 781 855 782
f 782 855 856
f 782 856 857
f 782 857 858
f 782 858 783
f 783 858 859
f 783 859 790
f 783 790 784
f 784 790 785
f 786 797 787
f 787 797 796
f 787 796 788
f 788 860 861
f 788 861 862
f 788 862 789
f 788 796 795
f 788 795 794
f 788 794 860
f 789 861 798
f 789 862 861
f 790 859 791
f 791 859 863
f 791 863 864
f 791 864 865
f 791 865 866
f 791 866 867
f 791 867 792
f 792 867 868
f 792 868 794
f 792 794 793
f 794 868 869
f 794 869 870
f 794 870 860
f 798 861 871
f 798 871 872
f 798 872 800
f 800 872 801
f 801 872 873
f 801 873 874
f 801 874 875
f 801 875 876
f 801 876 877
f 801 877 878
f 801 878 805
f 802 805 878
f 802 878 879
f 802 879 880
f 802 880 804
f 802 804 803
f 804 881 882
f 804 882 883
f 804 883 884
f 804 884 809
f 804 809 808
f 804 808 807
f 804 880 881
f 809 885 886
f 809 886 814
f 809 813 810
f 809 884 885
f 810 813 812
f 810 812 811
f 815 887 816
f 815 834 833
f 815 833 887
f 816 887 817
f 817 887 888
f 817 888 889
f 817 889 837
f 817 837 835
f 820 890 821
f 821 823 822
f 821 890 823
f 823 890 891
f 823 891 892
f 823 892 893
f 823 893 824
f 824 893 894
f 824 894 825
f 825 894 895
f 825 895 826
f 826 895 827
f 827 895 896
f 827 896 897
f 827 897 829
f 827 829 828
f 829 897 898
f 829 898 899
f 829 899 900
f 829 900 901
f 829 901 830
f 830 901 968
f 830 968 902
f 830 902 889
f 830 889 831
f 831 889 888
f 831 888 832
f 832 888 887
f 832 887 833
f 836 842 847
f 836 847 845
f 837 889 902
f 837 902 903
f 837 903 838
f 838 904 843
f 838 843 839
f 838 903 905
f 838 905 904
f 839 843 840
f 841 844 906
f 841 906 907
f 841 907 908
f 841 908 842
f 842 909 910
f 842 910 911
f 842 911 848
f 842 848 847
f 842 908 907
f 842 907 912
f 842 912 913
f 842 913 914
f 842 914 909
f 843 904 906
f 843 906 844
f 846 848 850
f 848 911 915
f 848 915 916
f 848 916 850
f 849 851 917
f 849 917 921
f 849 921 852
f 850 916 918
f 850 918 919
f 850 919 920
f 850 920 851
f 851 920 917
f 852 921 853
f 853 921 922
f 853 922 854
f 854 922 923
f 854 923 924
f 854 924 925
f 854 925 856
f 854 856 855
f 856 925 926
f 856 926 927
f 856 927 863
f 856 863 857
f 857 863 859
f 857 859 858
f 860 870 861
f 861 870 928
f 861 928 929
f 861 929 930
f 861 930 871
f 863 927 931
f 863 931 932
f 863 932 933
f 863 933 934
f 863 934 935
f 863 935 936
f 863 936 937
f 863 937 864
f 864 937 936
f 864 936 938
f 864 938 865
f 865 938 866
f 866 938 939
f 866 939 869
f 866 869 868
f 866 868 867
f 869 939 940
f 869 940 941
f 869 941 870
f 870 941 942
f 870 942 928
f 871 930 873
f 871 873 872
f 873 930 929
f 873 929 874
f 874 929 928
f 874 928 875
f 875 928 942
f 875 942 876
f 876 943 877
f 876 942 993
f 876 993 943
f 877 944 945
f 877 945 879
f 877 879 878
f 877 943 946
f 877 946 947
f 877 947 944
f 879 948 949
f 879 949 880
f 879 945 948
f 880 949 881
f 881 950 882
f 881 949 950
f 882 950 951
f 882 951 883
f 883 952 953
f 883 953 885
f 883 885 884
f 883 951 952
f 885 953 954
f 885 954 886
f 891 955 892
f 892 955 956
f 892 956 893
f 893 957 894
f 893 956 957
f 894 957 958
f 894 958 895
f 895 959 896
f 895 958 959
f 896 959 960
f 896 960 961
f 896 961 898
f 896 898 897
f 898 962 963
f 898 963 964
f 898 964 965
f 898 965 899
f 898 961 962
f 899 965 1023
f 899 1023 966
f 899 966 967
f 899 967 900
f 900 967 968
f 900 968 901
f 902 968 967
f 902 967 903
f 903 967 966
f 903 966 969
f 903 969 905
f 904 907 906
f 904 905 969
f 904 969 970
f 904 970 907
f 907 970 971
f 907 971 972
f 907 972 912
f 909 914 973
f 909 973 974
f 909 974 975
f 909 975 910
f 910 975 918
f 910 918 916
f 910 916 915
f 910 915 911
f 912 972 913
f 913 972 976
f 913 976 914
f 914 976 973
f 917 920 919
f 917 919 977
f 917 977 980
f 917 980 921
f 918 975 978
f 918 978 979
f 918 979 977
f 918 977 919
f 921 980 923
f 921 923 922
f 923 980 924
f 924 980 981
f 924 981 982
f 924 982 983
f 924 983 931
f 924 931 925
f 925 931 926
f 926 931 927
f 931 983 932
f 932 983 984
f 932 984 985
f 932 985 933
f 933 985 986
f 933 986 934
f 934 986 987
f 934 987 935
f 935 987 936
f 936 987 988
f 936 988 989
f 936 989 939
f 936 939 938
f 939 989 990
f 939 990 940
f 940 990 941
f 941 990 991
f 941 991 992
f 941 992 942
f 942 992 993
f 943 993 992
f 943 992 946
f 944 947 994
f 944 994 995
f 944 995 996
f 944 996 997
f 944 997 998
f 944 998 948
f 944 948 945
f 946 992 991
f 946 991 947
f 947 991 1043
f 947 1043 994
f 948 998 999
f 948 999 1000
f 948 1000 949
f 949 1000 1001
f 949 1001 950
f 950 1001 1002
f 950 1002 951
f 951 1002 1003
f 951 1003 952
f 952 1003 1004
f 952 1004 1005
f 952 1005 1006
f 952 1006 953
f 955 1007 956
f 956 1007 1008
f 956 1008 1009
f 956 1009 1010
f 956 1010 957
f 957 1010 958
f 958 1010 959
f 959 1010 960
f 960 1011 1012
f 960 1012 961
f 960 1010 1013
f 960 1013 1011
f 961 1012 962
f 962 1014 1015
f 962 1015 1016
f 962 1016 1017
f 962 1017 1018
f 962 1018 963
f 962 1012 1011
f 962 1011 1019
f 962 1019 1020
f 962 1020 1014
f 963 1018 1024
f 963 1024 1021
f 963 1021 1022
f 963 1022 964
f 964 1022 1023
f 964 1023 965
f 966 1023 969
f 969 1023 1021
f 969 1021 970
f 970 1021 1024
f 970 1024 1025
f 970 1025 971
f 971 1025 972
f 972 1025 1026
f 972 1026 1027
f 972 1027 974
f 972 974 976
f 973 976 974
f 974 1027 1028
f 974 1028 1029
f 974 1029 975
f 975 1029 978
f 977 979 978
f 977 978 1030
f 977 1030 1031
f 977 1031 1032
f 977 1032 1033
f 977 1033 980
f 978 1029 1030
f 980 1033 1034
f 980 1034 1035
f 980 1035 982
f 980 982 981
f 982 1035 1036
f 982 1036 983
f 983 1036 984
f 984 1036 1037
f 984 1037 1038
f 984 1038 987
f 984 987 986
f 984 986 985
f 987 1039 1040
f 987 1040 988
f 987 1038 1039
f 988 1040 989
f 989 1040 1041
f 989 1041 1042
f 989 1042 990
f 990 1042 1043
f 990 1043 991
f 994 1043 1044
f 994 1044 995
f 995 1044 1042
f 995 1042 996
f 996 1045 997
f 996 1042 1041
f 996 1041 1045
f 997 1045 1046
f 997 1046 1047
f 997 1047 1048
f 997 1048 1049
f 997 1049 1050
f 997 1050 1051
f 997 1051 1052
f 997 1052 1053
f 997 1053 998
f 998 1053 999
f 999 1053 1052
f 999 1052 1054
f 999 1054 1055
f 999 1055 1000
f 1000 1055 1001
f 1001 1055 1002
f 1002 1055 1003
f 1003 1056 1057
f 1003 1057 1004
f 1003 1055 1056
f 1004 1057 1058
f 1007 1059 1008
f 1008 1060 1009
f 1008 1059 1060
f 1009 1060 1010
f 1010 1060 1061
f 1010 1061 1062
f 1010 1062 1063
f 1010 1063 1064
f 1010 1064 1065
f 1010 1065 1011
f 1010 1011 1013
f 1011 1065 1066
f 1011 1066 1020
f 1011 1020 1019
f 1014 1020 1067
f 1014 1067 1073
f 1014 1073 1068
f 1014 1068 1069
f 1014 1069 1015
f 1015 1069 1070
f 1015 1070 1016
f 1016 1070 1071
f 1016 1071 1017
f 1017 1071 1024
f 1017 1024 1018
f 1020 1066 1072
f 1020 1072 1067
f 1021 1023 1022
f 1024 1071 1025
f 1025 1071 1070
f 1025 1070 1069
f 1025 1069 1068
f 1025 1068 1027
f 1025 1027 1026
f 1027 1068 1073
f 1027 1073 1028
f 1028 1074 1029
f 1028 1073 1074
f 1029 1074 1075
f 1029 1075 1030
f 1030 1075 1031
f 1031 1075 1032
f 1032 1075 1076
f 1032 1076 1033
f 1033 1076 1034
f 1034 1076 1035
f 1035 1076 1036
f 1036 1076 1077
f 1036 1077 1037
f 1037 1077 1107
f 1037 1107 1078
f 1037 1078 1038
f 1038 1078 1079
f 1038 1079 1040
f 1038 1040 1039
f 1040 1079 1080
f 1040 1080 1081
f 1040 1081 1082
f 1040 1082 1041
f 1041 1082 1046
f 1041 1046 1045
f 1042 1044 1043
f 1046 1082 1081
f 1046 1081 1047
f 1047 1081 1080
f 1047 1080 1048
f 1048 1080 1079
f 1048 1079 1049
f 1049 1083 1050
f 1049 1079 1108
f 1049 1108 1083
f 1050 1084 1085
f 1050 1085 1052
f 1050 1052 1051
f 1050 1083 1084
f 1052 1085 1086
f 1052 1086 1055
f 1052 1055 1054
f 1055 1086 1087
f 1055 1087 1088
f 1055 1088 1089
f 1055 1089 1090
f 1055 1090 1091
f 1055 1091 1056
f 1056 1091 1057
f 1057 1091 1092
f 1057 1092 1058
f 1059 1093 1060
f 1060 1093 1094
f 1060 1094 1095
f 1060 1095 1096
f 1060 1096 1063
f 1060 1063 1061
f 1061 1063 1062
f 1063 1096 1097
f 1063 1097 1098
f 1063 1098 1066
f 1063 1066 1065
f 1063 1065 1064
f 1066 1098 1099
f 1066 1099 1100
f 1066 1100 1101
f 1066 1101 1072
f 1067 1072 1101
f 1067 1101 1102
f 1067 1102 1103
f 1067 1103 1073
f 1073 1103 1104
f 1073 1104 1074
f 1074 1104 1105
f 1074 1105 1075
f 1075 1105 1106
f 1075 1106 1076
f 1076 1106 1107
f 1076 1107 1077
f 1078 1107 1134
f 1078 1134 1108
f 1078 1108 1079
f 1083 1109 1110
f 1083 1110 1084
f 1083 1108 1134
f 1083 1134 1109
f 1084 1110 1085
f 1085 1111 1112
f 1085 1112 1113
f 1085 1113 1088
f 1085 1088 1086
f 1085 1110 1111
f 1086 1088 1087
f 1088 1113 1114
f 1088 1114 1115
f 1088 1115 1091
f 1088 1091 1090
f 1088 1090 1089
f 1091 1116 1117
f 1091 1117 1118
f 1091 1118 1119
f 1091 1119 1092
f 1091 1115 1116
f 1094 1120 1121
f 1094 1121 1122
f 1094 1122 1095
f 1095 1122 1123
f 1095 1123 1096
f 1096 1123 1097
f 1097 1124 1125
f 1097 1125 1098
f 1097 1123 1124
f 1098 1125 1099
f 1099 1125 1124
f 1099 1124 1126
f 1099 1126 1127
f 1099 1127 1100
f 1100 1128 1129
f 1100 1129 1101
f 1100 1127 1128
f 1101 1129 1154
f 1101 1154 1130
f 1101 1130 1102
f 1102 1130 1155
f 1102 1155 1131
f 1102 1131 1103
f 1103 1131 1104
f 1104 1131 1105
f 1105 1131 1106
f 1106 1131 1132
f 1106 1132 1133
f 1106 1133 1107
f 1107 1133 1134
f 1109 1135 1110
f 1109 1134 1133
f 1109 1133 1135
f 1110 1136 1111
f 1110 1135 1156
f 1110 1156 1136
f 1111 1136 1137
f 1111 1137 1138
f 1111 1138 1139
f 1111 1139 1112
f 1112 1139 1140
f 1112 1140 1141
f 1112 1141 1142
f 1112 1142 1113
f 1113 1142 1114
f 1114 1142 1141
f 1114 1141 1143
f 1114 1143 1115
f 1115 1143 1116
f 1116 1143 1144
f 1116 1144 1117
f 1117 1144 1146
f 1117 1146 1145
f 1120 1147 1121
f 1121 1147 1148
f 1121 1148 1149
f 1121 1149 1126
f 1121 1126 1124
f 1121 1124 1122
f 1122 1124 1123
f 1126 1150 1127
f 1126 1149 1150
f 1127 1150 1128
f 1128 1150 1151
f 1128 1151 1152
f 1128 1152 1129
f 1129 1152 1153
f 1129 1153 1157
f 1129 1157 1136
f 1129 1136 1156
f 1129 1156 1154
f 1130 1154 1155
f 1131 1155 1156
f 1131 1156 1132
f 1132 1156 1135
f 1132 1135 1133
f 1136 1157 1158
f 1136 1158 1137
f 1137 1158 1159
f 1137 1159 1138
f 1138 1159 1167
f 1138 1167 1160
f 1138 1160 1140
f 1138 1140 1139
f 1140 1160 1162
f 1140 1162 1146
f 1140 1146 1141
f 1141 1146 1144
f 1141 1144 1143
f 1145 1146 1161
f 1146 1162 1163
f 1146 1163 1164
f 1146 1164 1161
f 1147 1163 1168
f 1147 1168 1165
f 1147 1165 1148
f 1148 1165 1166
f 1148 1166 1149
f 1149 1166 1151
f 1149 1151 1150
f 1151 1159 1157
f 1151 1157 1153
f 1151 1153 1152
f 1151 1166 1167
f 1151 1167 1159
f 1154 1156 1155
f 1157 1159 1158
f 1160 1167 1162
f 1162 1167 1168
f 1162 1168 1163
f 1165 1168 1167
f 1165 1167 1166
