v 0.0950345 0.302352 0.426681
v 0.112303 0.302352 0.42192
v 0.112303 0.319631 0.421669
v 0.0950345 0.319631 0.42618
v -0.0950346 0.302352 0.426681
v 0.0950345 -0.786255 0.426681
v 0.122642 0.319631 0.415989
v 0.112303 -0.786255 0.42192
v 0.122074 0.329273 0.415572
v 0.112303 0.331527 0.418078
v -0.0950346 0.319631 0.42618
v 0.0950345 0.33328 0.420249
v -0.112303 0.319631 0.421586
v -0.112303 0.302352 0.421837
v -0.0950346 -0.786255 0.426681
v 0.0950345 -0.803535 0.42451
v 0.131276 0.302352 0.409724
v 0.233298 0.302352 0.335548
v 0.242557 0.319631 0.328782
v 0.242329 0.328647 0.328615
v 0.122642 -0.786255 0.415989
v 0.113382 -0.80391 0.419163
v 0.122074 -0.798401 0.415572
v 0.191944 0.329774 0.364199
v 0.141501 0.33065 0.399868
v 0.128549 0.332528 0.405798
v 0.112303 0.337912 0.406132
v -0.0950346 0.33328 0.420249
v -0.112303 0.331527 0.418078
v 0.0950345 0.340667 0.406132
v -0.12196 0.329147 0.415488
v -0.122471 0.319631 0.415906
v -0.112303 -0.786255 0.421837
v -0.0950346 -0.803535 0.42451
v 0.0777658 -0.816306 0.418579
v 0.0950345 -0.816181 0.418579
v 0.108384 -0.814804 0.417242
v 0.131276 -0.786255 0.409724
v 0.233298 -0.786255 0.335548
v 0.251191 0.319631 0.321013
v 0.242557 -0.786255 0.328782
v 0.259769 0.329147 0.311908
v 0.249089 0.331276 0.318507
v 0.233298 0.331026 0.331789
v 0.211371 0.3309 0.348495
v 0.242329 -0.796397 0.328615
v 0.119858 -0.80992 0.413985
v 0.189785 -0.811673 0.362696
v 0.191944 -0.800154 0.364283
v 0.198079 0.333029 0.354259
v 0.147125 0.334031 0.389426
v 0.233298 0.337286 0.319677
v 0.181435 0.338664 0.354259
v 0.129572 0.339916 0.388841
v 0.112587 0.343547 0.388591
v -0.0950346 0.340667 0.406132
v -0.112303 0.337912 0.406132
v -0.128493 0.332403 0.405715
v 0.0945232 0.405528 0.200978
v 0.0777658 0.405528 0.207995
v 0.0662344 0.405528 0.212088
v 0.0610084 0.405528 0.213925
v 0.0431717 0.405528 0.216181
v 0.025903 0.405528 0.217434
v 0.0086343 0.405528 0.218603
v -0.141217 0.330525 0.399701
v -0.191262 0.329273 0.363782
v -0.212109 0.319631 0.349164
v -0.162973 0.302352 0.385751
v -0.122471 -0.786255 0.415906
v -0.12196 -0.79815 0.415488
v -0.113326 -0.803785 0.41908
v -0.10827 -0.814804 0.417242
v -0.0950346 -0.816181 0.418579
v -0.0777659 -0.816306 0.418579
v 0.0777658 -0.824946 0.410142
v 0.0777658 -0.833586 0.401538
v 0.0777658 -0.850865 0.384247
v 0.0777658 -0.859505 0.37556
v 0.0950345 -0.824821 0.409641
v 0.0912286 -0.866392 0.365619
v 0.106509 -0.831207 0.39945
v 0.113212 -0.821315 0.406717
v 0.129572 -0.815806 0.401789
v 0.139285 -0.812926 0.398197
v 0.260109 0.319631 0.31241
v 0.251191 -0.786255 0.321013
v 0.250566 0.336911 0.302386
v 0.261814 0.319631 0.302386
v 0.276924 0.328897 0.142338
v 0.260507 0.330149 0.302386
v 0.243182 0.346427 0.280333
v 0.216654 0.334406 0.337803
v 0.240171 -0.807917 0.327028
v 0.250339 -0.803034 0.31951
v 0.259825 -0.79815 0.311992
v 0.209099 -0.813301 0.346825
v 0.22864 -0.814553 0.331121
v 0.239716 0.345175 0.291861
v 0.233695 0.343422 0.301968
v 0.198703 0.340542 0.336968
v 0.146897 0.341544 0.37155
v 0.148658 0.405528 0.16815
v 0.128777 0.405528 0.181348
v 0.111053 0.405528 0.192959
v 0.110713 0.405528 0.193126
v -0.11253 0.343547 0.388591
v -0.00960006 0.405528 0.218603
v -0.0268687 0.405528 0.217434
v -0.0441374 0.405528 0.216181
v -0.0610085 0.405528 0.213925
v -0.0633943 0.405528 0.213591
v -0.0743576 0.405528 0.209498
v -0.0941257 0.405528 0.201061
v -0.129572 0.339791 0.388841
v -0.181435 0.338163 0.354259
v -0.146954 0.333906 0.389259
v -0.160474 0.331401 0.383829
v -0.210519 0.330525 0.347994
v -0.259655 0.329022 0.311658
v -0.240966 0.319631 0.327529
v -0.232332 0.319631 0.334044
v -0.241023 0.302352 0.327612
v -0.220744 0.302352 0.342732
v -0.212109 -0.786255 0.349164
v -0.162973 -0.786255 0.385751
v -0.220744 -0.786255 0.342732
v -0.241023 -0.786255 0.327612
v -0.191262 -0.798651 0.363782
v -0.18916 -0.810171 0.362195
v -0.119801 -0.80967 0.413901
v -0.139002 -0.8128 0.39803
v -0.129572 -0.815555 0.401622
v -0.113099 -0.821315 0.406634
v -0.106396 -0.831207 0.399366
v -0.0910014 -0.866392 0.365619
v -0.0950346 -0.824821 0.409557
v -0.0777659 -0.859505 0.37556
v -0.0777659 -0.850865 0.384247
v -0.0777659 -0.833586 0.401538
v -0.0777659 -0.824946 0.410142
v 0.0777658 -0.867519 0.366956
v 0.0777658 -0.872277 0.354259
v 0.0961706 -0.869147 0.355596
v 0.112303 -0.866893 0.350166
v 0.102703 -0.863512 0.362278
v 0.104635 -0.847359 0.380906
v 0.11804 -0.827826 0.395357
v 0.215347 -0.817809 0.336968
v 0.260109 -0.786255 0.31241
v 0.268517 0.302352 0.233305
v 0.281922 0.302352 0.0949759
v 0.28357 0.319631 0.0777683
v 0.261814 -0.786255 0.302386
v 0.278344 0.3309 0.112267
v 0.261359 0.331276 0.285095
v 0.286751 0.319631 0.043186
v 0.288285 0.319631 0.0258949
v 0.289705 0.319631 0.00860379
v 0.217165 0.405528 0.00918852
v 0.215063 0.405528 0.0258949
v 0.212791 0.405528 0.043186
v 0.209553 0.405528 0.0578877
v 0.206315 0.405528 0.0669926
v 0.19166 0.405528 0.107756
v 0.187286 0.405528 0.117028
v 0.179901 0.405528 0.131145
v 0.24676 -0.815806 0.3155
v 0.258405 -0.80992 0.302386
v 0.260507 -0.801281 0.302386
v 0.276924 -0.797274 0.142422
v 0.233468 -0.820939 0.319844
v 0.169051 0.405528 0.147601
v 0.167233 0.405528 0.150274
v 0.165927 0.405528 0.151945
v 0.153487 0.405528 0.16389
v -0.110315 0.405528 0.193209
v -0.110713 0.405528 0.192959
v -0.128379 0.405528 0.181431
v -0.139683 0.405528 0.173747
v -0.198703 0.339916 0.336968
v -0.151385 0.405528 0.165644
v -0.146897 0.341293 0.37155
v -0.234604 0.335033 0.321097
v -0.216143 0.334031 0.337469
v -0.229776 0.331401 0.332123
v -0.260394 0.330024 0.302386
v -0.276867 0.328897 0.141921
v -0.263461 0.319631 0.285095
v -0.261643 0.319631 0.302386
v -0.259939 0.319631 0.311992
v -0.250566 0.319631 0.319844
v -0.250566 0.331401 0.315417
v -0.250566 0.33641 0.302386
v -0.243182 0.346427 0.279665
v -0.250566 0.302352 0.319927
v -0.250566 -0.786255 0.319927
v -0.259712 -0.797524 0.311658
v -0.239376 -0.803535 0.326443
v -0.208303 -0.8128 0.346324
v -0.227617 -0.814053 0.330453
v -0.232446 -0.820438 0.319092
v -0.163144 -0.820313 0.370798
v -0.130708 -0.824946 0.389175
v -0.130481 -0.83872 0.372219
v -0.104521 -0.847234 0.380822
v -0.102533 -0.863387 0.362111
v -0.112303 -0.866767 0.349832
v -0.0960571 -0.869147 0.355512
v -0.0777659 -0.872277 0.354259
v -0.0777659 -0.867519 0.366956
v 0.112303 -0.871651 0.336968
v 0.0777658 -0.873654 0.336968
v 0.0950345 -0.873529 0.336968
v 0.147181 -0.868646 0.320429
v 0.161099 -0.866767 0.315083
v 0.141671 -0.865891 0.330787
v 0.122187 -0.864764 0.346574
v 0.153203 -0.862761 0.32661
v 0.112303 -0.860757 0.35877
v 0.111167 -0.851366 0.371216
v 0.148374 -0.856375 0.338054
v 0.200635 -0.839346 0.321097
v 0.216029 -0.82695 0.32519
v 0.226765 -0.830831 0.312577
v 0.268517 -0.786255 0.233305
v 0.286921 0.302352 0.043186
v 0.281922 -0.786255 0.0949759
v 0.288569 0.302352 0.0258949
v 0.279196 0.331902 0.0949759
v 0.217222 0.405528 0.00860379
v 0.290159 0.302352 0.00860379
v 0.279991 0.332779 0.0777683
v 0.289591 0.319631 -0.00860379
v 0.282831 0.335158 -0.00860379
v 0.282888 0.335283 0.00860379
v 0.281525 0.334156 0.043186
v 0.280786 0.33353 0.0604772
v 0.212734 -0.850364 0.298126
v 0.224266 -0.846608 0.291443
v 0.249771 -0.819186 0.302386
v 0.259087 -0.811799 0.292362
v 0.277548 -0.800154 0.129558
v 0.275617 -0.808794 0.129558
v 0.286467 -0.803535 0.0258949
v 0.288057 -0.803535 0.00860379
v 0.290159 -0.786255 0.00860379
v 0.288569 -0.786255 0.0258949
v 0.286921 -0.786255 0.043186
v -0.216029 0.341418 0.319677
v -0.159451 0.405528 0.159128
v -0.23824 0.344924 0.291192
v -0.232786 0.343046 0.301467
v -0.261359 0.331276 0.285095
v -0.212791 0.405528 0.043186
v -0.277435 0.329774 0.129558
v -0.289591 0.319631 0.00860379
v -0.28499 0.319631 0.0604772
v -0.283343 0.319631 0.0777683
v -0.278401 0.319631 0.129558
v -0.277037 0.319631 0.143759
v -0.265165 0.302352 0.267804
v -0.263461 -0.786255 0.285095
v -0.261643 -0.786255 0.302386
v -0.259939 -0.786255 0.311992
v -0.16854 0.405528 0.149021
v -0.174221 0.405528 0.140334
v -0.179276 0.405528 0.131897
v -0.180469 0.405528 0.129642
v -0.187626 0.405528 0.116026
v -0.19166 0.405528 0.107756
v -0.206713 0.405528 0.0662409
v -0.209553 0.405528 0.0578877
v -0.209724 0.405528 0.0572194
v -0.26045 -0.800905 0.302386
v -0.258178 -0.809545 0.302386
v -0.246476 -0.815179 0.314749
v -0.251532 -0.803409 0.316753
v -0.225743 -0.830205 0.311908
v -0.199783 -0.838845 0.320512
v -0.137184 -0.828953 0.379402
v -0.121846 -0.864639 0.346324
v -0.141103 -0.865641 0.330453
v -0.16036 -0.866517 0.314665
v -0.146897 -0.868395 0.320095
v -0.112303 -0.871526 0.336968
v -0.0950346 -0.873404 0.336968
v -0.0777659 -0.873654 0.336968
v 0.129572 -0.872527 0.319677
v 0.181435 -0.872026 0.285095
v 0.112303 -0.873654 0.319677
v 0.164166 -0.873654 0.285095
v 0.146897 -0.873153 0.302386
v 0.181435 -0.867268 0.299044
v 0.192057 -0.86514 0.295202
v 0.17263 -0.864013 0.310906
v 0.165757 -0.860382 0.320429
v 0.19876 -0.855498 0.302469
v 0.217222 0.405528 -0.00860379
v 0.289989 0.302352 -0.00860379
v 0.28499 0.319631 -0.0604772
v 0.276867 0.328897 -0.141921
v 0.277435 0.329774 -0.129558
v 0.278287 0.330775 -0.112267
v 0.279934 0.332653 -0.0777683
v 0.28073 0.333405 -0.0604772
v 0.281411 0.334031 -0.043186
v 0.203589 -0.861884 0.28877
v 0.207735 -0.864388 0.277243
v 0.208303 -0.865014 0.267804
v 0.225004 -0.847234 0.279916
v 0.241761 -0.829329 0.292111
v 0.259598 -0.812675 0.280835
v 0.276696 -0.812425 0.106169
v 0.276185 -0.811173 0.117697
v 0.25068 -0.821064 0.286515
v 0.281241 -0.817058 0.00860379
v 0.281127 -0.817058 -0.00860379
v 0.287887 -0.803535 -0.00860379
v 0.289989 -0.786255 -0.00860379
v -0.263007 0.333029 0.250596
v -0.279934 0.332653 0.0777683
v -0.279082 0.331777 0.0949759
v -0.278287 0.330775 0.112267
v -0.215063 0.405528 0.0258949
v -0.217222 0.405528 0.00860379
v -0.289705 0.319631 -0.00860379
v -0.290159 0.302352 -0.00860379
v -0.289989 0.302352 0.00860379
v -0.28073 0.333405 0.0604772
v -0.282831 0.335158 0.00860379
v -0.2834 0.302352 0.0777683
v -0.273459 0.302352 0.181431
v -0.265165 -0.786255 0.267804
v -0.276867 -0.797024 0.142004
v -0.259087 -0.811799 0.292445
v -0.249544 -0.818685 0.302386
v -0.223698 -0.846232 0.290274
v -0.212223 -0.849738 0.297457
v -0.191148 -0.864764 0.294534
v -0.181435 -0.866767 0.298209
v -0.165359 -0.869272 0.303722
v -0.181435 -0.871526 0.285095
v -0.129572 -0.872402 0.319677
v -0.146897 -0.873028 0.302386
v -0.164166 -0.873529 0.285095
v -0.112303 -0.873654 0.319677
v 0.198703 -0.869773 0.267804
v 0.198192 -0.866893 0.283842
v 0.181435 -0.873654 0.267804
v 0.215063 0.405528 -0.0258949
v 0.263006 0.333029 -0.250596
v 0.261359 0.331276 -0.285095
v 0.283399 0.302352 -0.0777683
v 0.283343 0.319631 -0.0777683
v 0.259655 0.329022 -0.311658
v 0.260393 0.330024 -0.302386
v 0.278401 0.319631 -0.129558
v 0.277037 0.319631 -0.143759
v 0.263461 0.319631 -0.285095
v 0.279082 0.331777 -0.0949759
v 0.209155 -0.865766 0.250596
v 0.224834 -0.864263 0.105334
v 0.221141 -0.860632 0.181431
v 0.218642 -0.858128 0.233305
v 0.242329 -0.829955 0.280584
v 0.252441 -0.822817 0.250596
v 0.27113 -0.824195 0.043186
v 0.277151 -0.813051 0.0949759
v 0.279537 -0.815555 0.043186
v 0.242954 -0.830581 0.267804
v 0.27272 -0.825697 0.00860379
v 0.272663 -0.825697 -0.00860379
v 0.27664 -0.812425 -0.105584
v 0.276128 -0.810922 -0.117112
v 0.27556 -0.808543 -0.129558
v 0.277435 -0.799903 -0.129558
v 0.276867 -0.797024 -0.142004
v 0.283399 -0.786255 -0.0777683
v -0.217222 0.405528 -0.00860379
v -0.282888 0.335283 -0.00860379
v -0.281411 0.334031 0.043186
v -0.280786 0.33353 -0.0604772
v -0.279991 0.332779 -0.0777683
v -0.279196 0.331902 -0.0949759
v -0.278344 0.3309 -0.112267
v -0.276924 0.328897 -0.142338
v -0.288285 0.319631 -0.0258949
v -0.281525 0.334156 -0.043186
v -0.286751 0.319631 -0.043186
v -0.288569 0.302352 -0.0258949
v -0.290159 -0.786255 -0.00860379
v -0.289989 -0.786255 0.00860379
v -0.2834 -0.786255 0.0777683
v -0.273459 -0.786255 0.181431
v -0.287887 -0.803535 0.00860379
v -0.277435 -0.799903 0.129558
v -0.27556 -0.808543 0.129558
v -0.276128 -0.810922 0.117112
v -0.27664 -0.812425 0.105584
v -0.259598 -0.812675 0.280918
v -0.250737 -0.821064 0.286515
v -0.241762 -0.829329 0.292195
v -0.207735 -0.864388 0.277076
v -0.20268 -0.861258 0.288603
v -0.197624 -0.866517 0.283758
v -0.198703 -0.869773 0.267804
v -0.181435 -0.873654 0.267804
v 0.198703 -0.870524 0.250596
v 0.212507 -0.868145 0.181431
v 0.210803 -0.867143 0.216014
v 0.209951 -0.866517 0.233305
v 0.198703 -0.873654 0.129558
v 0.198703 -0.873529 0.146849
v 0.198703 -0.873279 0.16414
v 0.198703 -0.872903 0.181431
v 0.198703 -0.871901 0.216014
v 0.212791 0.405528 -0.043186
v 0.273459 0.302352 -0.181431
v 0.191262 0.329273 -0.363782
v 0.210519 0.330525 -0.347994
v 0.229776 0.331401 -0.332123
v 0.250566 0.331401 -0.315417
v 0.250566 0.33641 -0.302386
v 0.243182 0.346427 -0.279665
v 0.261643 0.319631 -0.302386
v 0.259939 0.319631 -0.311992
v 0.250566 0.319631 -0.319844
v 0.240966 0.319631 -0.327529
v 0.265165 0.302352 -0.267804
v 0.263461 -0.786255 -0.285095
v 0.226992 -0.866267 0.0604772
v 0.22614 -0.865515 0.0777683
v 0.237274 -0.859505 0.0258949
v 0.232332 -0.854497 0.129558
v 0.229832 -0.851992 0.181431
v 0.241591 -0.846483 0.117112
v 0.245965 -0.850865 0.0258949
v 0.263291 -0.833586 0.0258949
v 0.264086 -0.834337 0.00860379
v 0.264029 -0.834337 -0.00860379
v 0.269369 -0.822442 -0.0777683
v 0.259598 -0.812675 -0.280918
v 0.259087 -0.811799 -0.292445
v 0.267778 -0.820814 -0.111265
v 0.26045 -0.800905 -0.302386
v 0.265165 -0.786255 -0.267804
v 0.273459 -0.786255 -0.181431
v -0.217165 0.405528 -0.00918852
v -0.261359 0.331276 -0.285095
v -0.28357 0.319631 -0.0777683
v -0.260507 0.330149 -0.302386
v -0.259769 0.329147 -0.311908
v -0.261814 0.319631 -0.302386
v -0.265165 0.319631 -0.267804
v -0.286921 0.302352 -0.043186
v -0.288569 -0.786255 -0.0258949
v -0.276924 -0.797274 -0.142422
v -0.288057 -0.803535 -0.00860379
v -0.281127 -0.817058 0.00860379
v -0.272663 -0.825697 0.00860379
v -0.269369 -0.822442 0.0777683
v -0.267778 -0.820814 0.111265
v -0.262382 -0.832709 0.043186
v -0.247101 -0.834713 0.181431
v -0.21779 -0.857251 0.250596
v -0.208303 -0.865014 0.267804
v -0.21245 -0.868145 0.181431
v -0.198703 -0.870524 0.250596
v -0.209156 -0.865766 0.250596
v -0.210803 -0.867143 0.216014
v -0.198703 -0.872402 0.198723
v -0.198703 -0.872903 0.181431
v -0.198703 -0.873279 0.16414
v -0.198703 -0.873529 0.146849
v -0.198703 -0.873654 0.129558
v 0.213302 -0.86852 0.16414
v 0.229435 -0.86802 0.00860379
v 0.22864 -0.867519 0.0258949
v 0.227844 -0.866893 0.043186
v 0.216029 -0.872778 0.00860379
v 0.198703 -0.873654 -0.129558
v 0.216029 -0.872277 0.0258949
v 0.209724 0.405528 -0.0572194
v 0.232332 0.319631 -0.334044
v 0.212109 0.319631 -0.349164
v 0.12196 0.329147 -0.415488
v 0.141217 0.330525 -0.399701
v 0.160474 0.331401 -0.383829
v 0.216142 0.334031 -0.337469
v 0.234604 0.335033 -0.321097
v 0.232786 0.343046 -0.301467
v 0.23824 0.344924 -0.291192
v 0.16854 0.405528 -0.149021
v 0.17422 0.405528 -0.140334
v 0.179276 0.405528 -0.131897
v 0.180469 0.405528 -0.129642
v 0.187626 0.405528 -0.116026
v 0.19166 0.405528 -0.107756
v 0.206656 0.405528 -0.0662409
v 0.209553 0.405528 -0.0578877
v 0.261643 -0.786255 -0.302386
v 0.250566 0.302352 -0.319927
v 0.259939 -0.786255 -0.311992
v 0.241023 0.302352 -0.327612
v 0.238069 -0.860256 0.00860379
v 0.24676 -0.851617 0.00860379
v 0.255338 -0.842977 -0.00860379
v 0.262382 -0.832709 -0.043186
v 0.250737 -0.821064 -0.286515
v 0.258178 -0.809545 -0.302386
v 0.241761 -0.829329 -0.292195
v 0.249544 -0.818685 -0.302386
v 0.259712 -0.797524 -0.311658
v -0.215063 0.405528 -0.0258949
v -0.281923 0.302352 -0.0949759
v -0.243182 0.346427 -0.280333
v -0.212791 0.405528 -0.043186
v -0.250566 0.336911 -0.302386
v -0.249089 0.331276 -0.318507
v -0.24233 0.328647 -0.328615
v -0.251191 0.319631 -0.321013
v -0.260109 0.319631 -0.31241
v -0.268517 0.302352 -0.233305
v -0.261814 -0.786255 -0.302386
v -0.286921 -0.786255 -0.043186
v -0.259825 -0.79815 -0.311992
v -0.260507 -0.801281 -0.302386
v -0.277549 -0.800154 -0.129558
v -0.286467 -0.803535 -0.0258949
v -0.281923 -0.786255 -0.0949759
v -0.268517 -0.786255 -0.233305
v -0.276185 -0.811173 -0.117697
v -0.276697 -0.812425 -0.106169
v -0.281241 -0.817058 -0.00860379
v -0.27272 -0.825697 -0.00860379
v -0.264029 -0.834337 0.00860379
v -0.253691 -0.841349 0.043186
v -0.221937 -0.861383 0.16414
v -0.225231 -0.864639 0.0949759
v -0.229378 -0.867894 0.00860379
v -0.213245 -0.86852 0.16414
v -0.226083 -0.86539 0.0777683
v -0.226879 -0.866141 0.0604772
v -0.227731 -0.866767 0.043186
v -0.228526 -0.867393 0.0258949
v -0.216029 -0.872152 0.0258949
v -0.216029 -0.872653 0.00860379
v -0.216029 -0.872778 -0.00860379
v -0.198703 -0.873654 -0.129558
v 0.229378 -0.867894 -0.00860379
v 0.216029 -0.872653 -0.00860379
v 0.198703 -0.873529 -0.146849
v 0.181435 -0.873654 -0.267804
v 0.162973 0.302352 -0.385751
v 0.122471 0.319631 -0.415906
v 0.220744 0.302352 -0.342732
v 0.212109 -0.786255 -0.349164
v 0.112303 0.331527 -0.418078
v 0.128493 0.332403 -0.405715
v 0.112303 0.319631 -0.421586
v 0.146954 0.333906 -0.389259
v 0.181435 0.338163 -0.354259
v 0.198703 0.339916 -0.336968
v 0.216029 0.341418 -0.319677
v 0.151385 0.405528 -0.165644
v 0.159451 0.405528 -0.159128
v 0.250566 -0.786255 -0.319927
v 0.241023 -0.786255 -0.327612
v 0.238012 -0.860131 -0.00860379
v 0.25369 -0.841349 -0.043186
v 0.23716 -0.85938 -0.0258949
v 0.221937 -0.861383 -0.16414
v 0.247101 -0.834713 -0.181431
v 0.21779 -0.857251 -0.250596
v 0.208303 -0.865014 -0.267804
v 0.246476 -0.815179 -0.314749
v 0.223697 -0.846232 -0.290274
v 0.207735 -0.864388 -0.277076
v 0.251532 -0.803409 -0.316753
v 0.239376 -0.803535 -0.326443
v -0.239717 0.345175 -0.291861
v -0.209553 0.405528 -0.0578877
v -0.206315 0.405528 -0.0669926
v -0.19166 0.405528 -0.107756
v -0.187286 0.405528 -0.117028
v -0.179901 0.405528 -0.131145
v -0.233298 0.337286 -0.319677
v -0.233298 0.331026 -0.331789
v -0.211371 0.3309 -0.348495
v -0.191944 0.329774 -0.364199
v -0.122074 0.329273 -0.415572
v -0.122642 0.319631 -0.415989
v -0.242557 0.319631 -0.328782
v -0.251191 -0.786255 -0.321013
v -0.260109 -0.786255 -0.31241
v -0.24233 -0.796397 -0.328615
v -0.250339 -0.803034 -0.31951
v -0.24676 -0.815806 -0.3155
v -0.258405 -0.80992 -0.302386
v -0.259087 -0.811799 -0.292362
v -0.275617 -0.808794 -0.129558
v -0.259598 -0.812675 -0.280835
v -0.27113 -0.824195 -0.043186
v -0.277151 -0.813051 -0.0949759
v -0.279537 -0.815555 -0.043186
v -0.264086 -0.834337 -0.00860379
v -0.24676 -0.851617 -0.00860379
v -0.255338 -0.842977 0.00860379
v -0.235513 -0.857752 0.0604772
v -0.23716 -0.85938 0.0258949
v -0.229435 -0.86802 -0.00860379
v -0.238012 -0.860131 0.00860379
v -0.216029 -0.872277 -0.0258949
v -0.198703 -0.872903 -0.181431
v -0.198703 -0.873279 -0.16414
v -0.198703 -0.873529 -0.146849
v -0.181435 -0.873654 -0.267804
v 0.216029 -0.872152 -0.0258949
v 0.213245 -0.86852 -0.16414
v 0.21245 -0.868145 -0.181431
v 0.210803 -0.867143 -0.216014
v 0.228526 -0.867393 -0.0258949
v 0.198703 -0.873279 -0.16414
v 0.198703 -0.872903 -0.181431
v 0.198703 -0.872402 -0.198723
v 0.112303 -0.873654 -0.319677
v 0.164166 -0.873529 -0.285095
v 0.181435 -0.871526 -0.285095
v 0.198703 -0.869773 -0.267804
v 0.198703 -0.870524 -0.250596
v 0.162973 -0.786255 -0.385751
v 0.112303 0.302352 -0.421837
v 0.122471 -0.786255 -0.415906
v 0.220744 -0.786255 -0.342732
v 0.12196 -0.79815 -0.415488
v 0.0950345 0.319631 -0.42618
v 0.0950345 0.33328 -0.420249
v 0.112303 0.337912 -0.406132
v 0.0950345 0.302352 -0.426681
v 0.129572 0.339791 -0.388841
v 0.146897 0.341293 -0.37155
v 0.139683 0.405528 -0.173747
v 0.191262 -0.798651 -0.363782
v 0.227731 -0.866767 -0.043186
v 0.226879 -0.866141 -0.0604772
v 0.226083 -0.86539 -0.0777683
v 0.235513 -0.857752 -0.0604772
v 0.225231 -0.864639 -0.0949759
v 0.209155 -0.865766 -0.250596
v 0.227617 -0.814053 -0.330453
v 0.212223 -0.849738 -0.297457
v 0.225742 -0.830205 -0.311908
v 0.232445 -0.820438 -0.319092
v 0.20268 -0.861258 -0.288603
v 0.197624 -0.866517 -0.283758
v 0.191148 -0.864764 -0.294534
v 0.208303 -0.8128 -0.346324
v 0.18916 -0.810171 -0.362195
v -0.233695 0.343422 -0.301968
v -0.169051 0.405528 -0.147601
v -0.167234 0.405528 -0.150274
v -0.165927 0.405528 -0.151945
v -0.153487 0.405528 -0.16389
v -0.148658 0.405528 -0.16815
v -0.198703 0.340542 -0.336968
v -0.181435 0.338664 -0.354259
v -0.112303 0.337912 -0.406132
v -0.147125 0.334031 -0.389426
v -0.198079 0.333029 -0.354259
v -0.216654 0.334406 -0.337803
v -0.141501 0.33065 -0.399868
v -0.128549 0.332528 -0.405798
v -0.112303 0.331527 -0.418078
v -0.112303 0.319631 -0.421669
v -0.131276 0.302352 -0.409724
v -0.233298 0.302352 -0.335548
v -0.112303 0.302352 -0.42192
v -0.122642 -0.786255 -0.415989
v -0.242557 -0.786255 -0.328782
v -0.233298 -0.786255 -0.335548
v -0.131276 -0.786255 -0.409724
v -0.122074 -0.798401 -0.415572
v -0.191944 -0.800154 -0.364283
v -0.240171 -0.807917 -0.327028
v -0.22864 -0.814553 -0.331121
v -0.233468 -0.820939 -0.319844
v -0.226765 -0.830831 -0.312577
v -0.212734 -0.850364 -0.298126
v -0.224266 -0.846608 -0.291443
v -0.249771 -0.819186 -0.302386
v -0.241762 -0.829329 -0.292111
v -0.25068 -0.821064 -0.286515
v -0.252441 -0.822817 -0.250596
v -0.241591 -0.846483 -0.117112
v -0.232332 -0.854497 -0.129558
v -0.237274 -0.859505 -0.0258949
v -0.245965 -0.850865 -0.0258949
v -0.263291 -0.833586 -0.0258949
v -0.238069 -0.860256 -0.00860379
v -0.22864 -0.867519 -0.0258949
v -0.212507 -0.868145 -0.181431
v -0.213302 -0.86852 -0.16414
v -0.198703 -0.871901 -0.216014
v -0.164166 -0.873654 -0.285095
v -0.198703 -0.871275 -0.233305
v -0.198703 -0.870524 -0.250596
v -0.198703 -0.869773 -0.267804
v -0.181435 -0.872026 -0.285095
v 0.0777658 -0.873654 -0.336968
v 0.0950345 -0.873404 -0.336968
v 0.146897 -0.873028 -0.302386
v 0.112303 -0.871526 -0.336968
v 0.165359 -0.869272 -0.303722
v 0.181435 -0.866767 -0.298209
v 0.129572 -0.872402 -0.319677
v 0.112303 -0.786255 -0.421837
v 0.119801 -0.80967 -0.413901
v 0.113326 -0.803785 -0.41908
v -0.0950346 0.319631 -0.42618
v -0.0950346 0.33328 -0.420249
v 0.0950345 0.340667 -0.406132
v 0.11253 0.343547 -0.388591
v -0.0950346 0.302352 -0.426681
v 0.0950345 -0.786255 -0.426681
v 0.128379 0.405528 -0.181431
v 0.139001 -0.8128 -0.39803
v 0.199783 -0.838845 -0.320512
v 0.137184 -0.828953 -0.379402
v 0.163144 -0.820313 -0.370798
v 0.16036 -0.866517 -0.314665
v 0.141103 -0.865641 -0.330453
v 0.121846 -0.864639 -0.346324
v -0.128777 0.405528 -0.181348
v -0.129572 0.339916 -0.388841
v -0.146897 0.341544 -0.37155
v -0.112587 0.343547 -0.388591
v -0.0950346 0.340667 -0.406132
v -0.112303 -0.786255 -0.42192
v -0.113383 -0.80391 -0.419163
v -0.119858 -0.80992 -0.413985
v -0.189785 -0.811673 -0.362696
v -0.209099 -0.813301 -0.346825
v -0.139286 -0.812926 -0.398197
v -0.215347 -0.817809 -0.336968
v -0.216029 -0.82695 -0.32519
v -0.200635 -0.839346 -0.321097
v -0.19876 -0.855498 -0.302469
v -0.192057 -0.86514 -0.295202
v -0.203589 -0.861884 -0.28877
v -0.207735 -0.864388 -0.277243
v -0.208303 -0.865014 -0.267804
v -0.225004 -0.847234 -0.279916
v -0.24233 -0.829955 -0.280584
v -0.242954 -0.830581 -0.267804
v -0.218642 -0.858128 -0.233305
v -0.229833 -0.851992 -0.181431
v -0.221141 -0.860632 -0.181431
v -0.224834 -0.864263 -0.105334
v -0.22614 -0.865515 -0.0777683
v -0.226992 -0.866267 -0.0604772
v -0.227844 -0.866893 -0.043186
v -0.210803 -0.867143 -0.216014
v -0.112303 -0.873654 -0.319677
v -0.146897 -0.873153 -0.302386
v -0.0950346 -0.873529 -0.336968
v -0.209951 -0.866517 -0.233305
v -0.209156 -0.865766 -0.250596
v -0.198192 -0.866893 -0.283842
v -0.181435 -0.867268 -0.299044
v -0.147181 -0.868646 -0.320429
v -0.112303 -0.871651 -0.336968
v -0.129572 -0.872527 -0.319677
v -0.0777659 -0.873654 -0.336968
v 0.0777658 -0.872277 -0.354259
v 0.096057 -0.869147 -0.355512
v 0.146897 -0.868395 -0.320095
v 0.0950345 -0.803535 -0.42451
v 0.10827 -0.814804 -0.417242
v 0.00959998 0.405528 -0.218603
v 0.0268687 0.405528 -0.217434
v 0.0441373 0.405528 -0.216181
v 0.0610084 0.405528 -0.213925
v 0.0633942 0.405528 -0.213591
v 0.0743575 0.405528 -0.209498
v 0.0941256 0.405528 -0.201061
v 0.110315 0.405528 -0.193209
v 0.110713 0.405528 -0.192959
v -0.0950346 -0.786255 -0.426681
v 0.129572 -0.815555 -0.401622
v 0.130708 -0.824946 -0.389175
v 0.130481 -0.83872 -0.372219
v 0.112303 -0.866767 -0.349832
v 0.102533 -0.863387 -0.362111
v 0.104521 -0.847234 -0.380822
v -0.111054 0.405528 -0.192959
v -0.110713 0.405528 -0.193126
v -0.0945233 0.405528 -0.200978
v -0.0777659 0.405528 -0.207995
v -0.0662345 0.405528 -0.212088
v -0.0610085 0.405528 -0.213925
v -0.0431717 0.405528 -0.216181
v -0.0259031 0.405528 -0.217434
v -0.00863438 0.405528 -0.218603
v -0.0950346 -0.803535 -0.42451
v -0.108384 -0.814804 -0.417242
v -0.129572 -0.815806 -0.401789
v -0.118041 -0.827826 -0.395357
v -0.148374 -0.856375 -0.338054
v -0.165757 -0.860382 -0.320429
v -0.17263 -0.864013 -0.310906
v -0.122187 -0.864764 -0.346574
v -0.141671 -0.865891 -0.330787
v -0.161099 -0.866767 -0.315083
v -0.0777659 -0.872277 -0.354259
v -0.0961707 -0.869147 -0.355596
v -0.112303 -0.866893 -0.350166
v 0.0777658 -0.867519 -0.366956
v 0.0910013 -0.866392 -0.365619
v 0.0950345 -0.816181 -0.418579
v 0.0777658 -0.816306 -0.418579
v 0.113098 -0.821315 -0.406634
v 0.106395 -0.831207 -0.399366
v 0.0950345 -0.824821 -0.409557
v -0.0777659 -0.816306 -0.418579
v -0.0950346 -0.816181 -0.418579
v -0.0950346 -0.824821 -0.409641
v -0.0912286 -0.866392 -0.365619
v -0.106509 -0.831207 -0.39945
v -0.113212 -0.821315 -0.406717
v -0.104635 -0.847359 -0.380906
v -0.111167 -0.851366 -0.371216
v -0.112303 -0.860757 -0.35877
v -0.153203 -0.862761 -0.32661
v -0.102703 -0.863512 -0.362278
v -0.0777659 -0.867519 -0.366956
v 0.0777658 -0.859505 -0.37556
v 0.0777658 -0.850865 -0.384247
v 0.0777658 -0.833586 -0.401538
v 0.0777658 -0.824946 -0.410142
v -0.0777659 -0.824946 -0.410142
v -0.0777659 -0.833586 -0.401538
v -0.0777659 -0.850865 -0.384247
v -0.0777659 -0.859505 -0.37556
f 1 2 3
f 1 3 4
f 1 4 11
f 1 11 5
f 1 5 15
f 1 15 6
f 1 6 8
f 1 8 2
f 2 7 3
f 2 8 21
f 2 21 7
f 3 7 9
f 3 9 10
f 3 10 4
f 4 10 12
f 4 12 28
f 4 28 11
f 5 11 13
f 5 13 14
f 5 14 33
f 5 33 15
f 6 15 34
f 6 34 16
f 6 16 8
f 7 17 18
f 7 18 19
f 7 19 20
f 7 20 9
f 7 21 38
f 7 38 17
f 8 16 22
f 8 22 23
f 8 23 21
f 9 20 24
f 9 24 25
f 9 25 26
f 9 26 10
f 10 26 27
f 10 27 12
f 11 28 29
f 11 29 13
f 12 27 30
f 12 30 56
f 12 56 28
f 13 29 31
f 13 31 32
f 13 32 14
f 14 32 70
f 14 70 33
f 15 33 34
f 16 34 75
f 16 75 35
f 16 35 36
f 16 36 37
f 16 37 22
f 17 38 39
f 17 39 18
f 18 39 41
f 18 41 19
f 19 40 20
f 19 41 87
f 19 87 40
f 20 42 43
f 20 43 44
f 20 44 45
f 20 45 24
f 20 40 42
f 21 23 46
f 21 46 38
f 22 37 47
f 22 47 23
f 23 47 48
f 23 48 49
f 23 49 46
f 24 45 25
f 25 45 50
f 25 50 26
f 26 50 51
f 26 51 27
f 27 51 52
f 27 52 53
f 27 53 54
f 27 54 55
f 27 55 30
f 28 56 57
f 28 57 29
f 29 57 58
f 29 58 31
f 30 55 59
f 30 59 60
f 30 60 61
f 30 61 62
f 30 62 63
f 30 63 64
f 30 64 65
f 30 65 108
f 30 108 56
f 31 58 66
f 31 66 67
f 31 67 68
f 31 68 32
f 32 68 69
f 32 69 126
f 32 126 70
f 33 70 71
f 33 71 72
f 33 72 34
f 34 72 73
f 34 73 74
f 34 74 75
f 35 75 141
f 35 141 76
f 35 76 36
f 36 76 77
f 36 77 78
f 36 78 79
f 36 79 80
f 36 80 37
f 37 80 81
f 37 81 82
f 37 82 83
f 37 83 84
f 37 84 85
f 37 85 47
f 38 46 39
f 39 46 41
f 40 86 42
f 40 87 150
f 40 150 86
f 41 46 87
f 42 88 43
f 42 86 89
f 42 89 90
f 42 90 91
f 42 91 92
f 42 92 88
f 43 88 52
f 43 52 44
f 44 52 93
f 44 93 45
f 45 93 50
f 46 49 48
f 46 48 94
f 46 94 95
f 46 95 96
f 46 96 87
f 47 85 48
f 48 85 97
f 48 97 98
f 48 98 94
f 50 93 52
f 50 52 51
f 52 88 99
f 52 99 100
f 52 100 101
f 52 101 53
f 53 101 54
f 54 101 102
f 54 102 103
f 54 103 104
f 54 104 55
f 55 104 105
f 55 105 106
f 55 106 59
f 56 107 57
f 56 108 109
f 56 109 110
f 56 110 111
f 56 111 112
f 56 112 113
f 56 113 114
f 56 114 107
f 57 107 115
f 57 115 116
f 57 116 117
f 57 117 58
f 58 118 66
f 58 117 118
f 59 106 105
f 59 105 104
f 59 104 103
f 59 103 176
f 59 176 175
f 59 175 174
f 59 174 173
f 59 173 167
f 59 167 166
f 59 166 165
f 59 165 164
f 59 164 163
f 59 163 162
f 59 162 161
f 59 161 160
f 59 160 231
f 59 231 299
f 59 299 351
f 59 351 418
f 59 418 484
f 59 484 501
f 59 501 500
f 59 500 499
f 59 499 498
f 59 498 497
f 59 497 496
f 59 496 495
f 59 495 494
f 59 494 567
f 59 567 566
f 59 566 643
f 59 643 726
f 59 726 788
f 59 788 787
f 59 787 786
f 59 786 785
f 59 785 784
f 59 784 783
f 59 783 782
f 59 782 781
f 59 781 780
f 59 780 804
f 59 804 803
f 59 803 802
f 59 802 801
f 59 801 800
f 59 800 799
f 59 799 798
f 59 798 797
f 59 797 796
f 59 796 734
f 59 734 665
f 59 665 664
f 59 664 663
f 59 663 662
f 59 662 661
f 59 661 587
f 59 587 586
f 59 586 585
f 59 585 584
f 59 584 583
f 59 583 518
f 59 518 515
f 59 515 449
f 59 449 380
f 59 380 326
f 59 326 325
f 59 325 255
f 59 255 274
f 59 274 273
f 59 273 272
f 59 272 271
f 59 271 270
f 59 270 269
f 59 269 268
f 59 268 267
f 59 267 266
f 59 266 251
f 59 251 182
f 59 182 180
f 59 180 179
f 59 179 178
f 59 178 177
f 59 177 114
f 59 114 113
f 59 113 112
f 59 112 111
f 59 111 110
f 59 110 109
f 59 109 108
f 59 108 65
f 59 65 64
f 59 64 63
f 59 63 62
f 59 62 61
f 59 61 60
f 66 118 186
f 66 186 119
f 66 119 67
f 67 120 121
f 67 121 122
f 67 122 68
f 67 119 120
f 68 122 123
f 68 123 124
f 68 124 127
f 68 127 125
f 68 125 126
f 68 126 69
f 70 126 71
f 71 125 127
f 71 127 128
f 71 128 129
f 71 129 130
f 71 130 131
f 71 131 72
f 71 126 125
f 72 131 73
f 73 131 132
f 73 132 133
f 73 133 134
f 73 134 135
f 73 135 136
f 73 136 137
f 73 137 74
f 74 137 138
f 74 138 139
f 74 139 140
f 74 140 141
f 74 141 75
f 76 141 140
f 76 140 77
f 77 140 139
f 77 139 78
f 78 139 138
f 78 138 79
f 79 138 211
f 79 211 142
f 79 142 80
f 80 142 81
f 81 142 143
f 81 143 144
f 81 144 145
f 81 145 146
f 81 146 147
f 81 147 82
f 82 147 148
f 82 148 84
f 82 84 83
f 84 149 85
f 84 148 149
f 85 149 98
f 85 98 97
f 86 150 154
f 86 154 89
f 87 96 150
f 88 92 99
f 89 151 152
f 89 152 153
f 89 153 90
f 89 154 226
f 89 226 151
f 90 155 156
f 90 156 91
f 90 153 157
f 90 157 158
f 90 158 159
f 90 159 155
f 91 156 160
f 91 160 161
f 91 161 162
f 91 162 92
f 92 162 163
f 92 163 164
f 92 164 165
f 92 165 166
f 92 166 167
f 92 167 99
f 94 98 168
f 94 168 95
f 95 168 96
f 96 168 169
f 96 169 170
f 96 170 171
f 96 171 154
f 96 154 150
f 98 149 172
f 98 172 168
f 99 167 173
f 99 173 174
f 99 174 175
f 99 175 176
f 99 176 103
f 99 103 100
f 100 103 101
f 101 103 102
f 107 114 177
f 107 177 178
f 107 178 179
f 107 179 180
f 107 180 115
f 115 181 116
f 115 180 182
f 115 182 183
f 115 183 250
f 115 250 181
f 116 181 184
f 116 184 185
f 116 185 117
f 117 185 118
f 118 185 186
f 119 186 120
f 120 187 188
f 120 188 189
f 120 189 190
f 120 190 191
f 120 191 192
f 120 192 121
f 120 186 193
f 120 193 194
f 120 194 195
f 120 195 187
f 121 192 123
f 121 123 122
f 123 192 196
f 123 196 197
f 123 197 128
f 123 128 127
f 123 127 124
f 128 197 198
f 128 198 199
f 128 199 129
f 129 199 130
f 130 200 132
f 130 132 131
f 130 199 200
f 132 200 201
f 132 201 202
f 132 202 203
f 132 203 204
f 132 204 133
f 133 204 135
f 133 135 134
f 135 204 205
f 135 205 206
f 135 206 136
f 136 206 207
f 136 207 208
f 136 208 209
f 136 209 210
f 136 210 211
f 136 211 137
f 137 211 138
f 142 211 210
f 142 210 143
f 143 212 144
f 143 210 288
f 143 288 213
f 143 213 214
f 143 214 212
f 144 212 215
f 144 215 145
f 145 216 217
f 145 217 218
f 145 218 146
f 145 215 216
f 146 218 219
f 146 219 220
f 146 220 147
f 147 220 221
f 147 221 148
f 148 221 222
f 148 222 223
f 148 223 149
f 149 223 224
f 149 224 225
f 149 225 172
f 151 226 228
f 151 228 152
f 152 227 153
f 152 228 249
f 152 249 227
f 153 227 229
f 153 229 232
f 153 232 157
f 154 171 226
f 155 159 230
f 155 230 156
f 156 230 231
f 156 231 160
f 157 232 158
f 158 232 159
f 159 233 230
f 159 232 234
f 159 234 235
f 159 235 236
f 159 236 237
f 159 237 238
f 159 238 233
f 168 172 225
f 168 225 239
f 168 239 240
f 168 240 241
f 168 241 169
f 169 241 242
f 169 242 170
f 170 243 171
f 170 242 244
f 170 244 243
f 171 243 245
f 171 245 246
f 171 246 247
f 171 247 248
f 171 248 249
f 171 249 228
f 171 228 226
f 181 250 184
f 182 251 252
f 182 252 253
f 182 253 250
f 182 250 183
f 184 250 253
f 184 253 194
f 184 194 193
f 184 193 186
f 184 186 185
f 187 254 188
f 187 195 255
f 187 255 254
f 188 254 256
f 188 256 257
f 188 257 258
f 188 258 259
f 188 259 260
f 188 260 261
f 188 261 189
f 189 261 262
f 189 262 334
f 189 334 263
f 189 263 264
f 189 264 190
f 190 264 265
f 190 265 191
f 191 196 192
f 191 265 197
f 191 197 196
f 194 253 252
f 194 252 195
f 195 252 266
f 195 266 267
f 195 267 268
f 195 268 269
f 195 269 270
f 195 270 271
f 195 271 272
f 195 272 273
f 195 273 274
f 195 274 255
f 197 265 198
f 198 275 276
f 198 276 277
f 198 277 278
f 198 278 199
f 198 265 264
f 198 264 275
f 199 278 277
f 199 277 201
f 199 201 200
f 201 277 202
f 202 279 280
f 202 280 281
f 202 281 203
f 202 277 279
f 203 281 204
f 204 281 205
f 205 281 280
f 205 280 282
f 205 282 206
f 206 282 207
f 207 282 208
f 208 282 283
f 208 283 284
f 208 284 285
f 208 285 209
f 209 285 286
f 209 286 210
f 210 287 288
f 210 286 287
f 212 214 289
f 212 289 290
f 212 290 215
f 213 288 347
f 213 347 408
f 213 408 476
f 213 476 550
f 213 550 618
f 213 618 705
f 213 705 764
f 213 764 774
f 213 774 710
f 213 710 627
f 213 627 554
f 213 554 482
f 213 482 413
f 213 413 350
f 213 350 292
f 213 292 291
f 213 291 214
f 214 291 292
f 214 292 293
f 214 293 289
f 215 290 294
f 215 294 216
f 216 294 295
f 216 295 217
f 217 295 218
f 218 296 219
f 218 295 296
f 219 296 297
f 219 297 222
f 219 222 220
f 220 222 221
f 222 297 298
f 222 298 223
f 223 298 225
f 223 225 224
f 225 298 295
f 225 295 239
f 227 249 248
f 227 248 229
f 229 248 247
f 229 247 232
f 230 233 231
f 231 233 238
f 231 238 237
f 231 237 236
f 231 236 299
f 232 300 234
f 232 247 320
f 232 320 300
f 234 300 301
f 234 301 302
f 234 302 303
f 234 303 304
f 234 304 305
f 234 305 306
f 234 306 235
f 235 306 307
f 235 307 299
f 235 299 236
f 239 295 308
f 239 308 240
f 240 308 309
f 240 309 310
f 240 310 311
f 240 311 312
f 240 312 241
f 241 312 242
f 242 313 314
f 242 314 315
f 242 315 244
f 242 312 316
f 242 316 313
f 243 244 245
f 244 315 245
f 245 315 246
f 246 315 314
f 246 314 317
f 246 317 318
f 246 318 319
f 246 319 320
f 246 320 247
f 251 266 252
f 254 321 322
f 254 322 323
f 254 323 324
f 254 324 256
f 254 255 325
f 254 325 326
f 254 326 321
f 256 324 257
f 257 327 328
f 257 328 329
f 257 329 258
f 257 324 322
f 257 322 330
f 257 330 331
f 257 331 327
f 258 329 332
f 258 332 259
f 259 332 260
f 260 332 333
f 260 333 261
f 261 333 262
f 262 333 395
f 262 395 334
f 263 334 335
f 263 335 275
f 263 275 264
f 275 335 336
f 275 336 276
f 276 336 337
f 276 337 277
f 277 337 338
f 277 338 339
f 277 339 279
f 279 339 340
f 279 340 280
f 280 340 282
f 282 340 283
f 283 340 284
f 284 340 341
f 284 341 285
f 285 342 286
f 285 341 342
f 286 342 343
f 286 343 344
f 286 344 287
f 287 344 345
f 287 345 346
f 287 346 347
f 287 347 288
f 289 293 290
f 290 348 349
f 290 349 295
f 290 295 294
f 290 293 292
f 290 292 350
f 290 350 348
f 295 349 308
f 295 298 296
f 296 298 297
f 299 307 306
f 299 306 305
f 299 305 352
f 299 352 353
f 299 353 351
f 300 354 355
f 300 355 301
f 300 320 379
f 300 379 354
f 301 355 302
f 302 356 357
f 302 357 353
f 302 353 303
f 302 355 358
f 302 358 359
f 302 359 360
f 302 360 356
f 303 353 304
f 304 353 361
f 304 361 305
f 305 361 353
f 305 353 352
f 308 349 309
f 309 349 348
f 309 348 310
f 310 348 362
f 310 362 363
f 310 363 364
f 310 364 365
f 310 365 311
f 311 365 366
f 311 366 316
f 311 316 312
f 313 316 367
f 313 367 368
f 313 368 314
f 314 368 369
f 314 369 370
f 314 370 317
f 316 366 371
f 316 371 367
f 317 370 368
f 317 368 372
f 317 372 373
f 317 373 318
f 318 374 319
f 318 373 374
f 319 374 375
f 319 375 376
f 319 376 377
f 319 377 378
f 319 378 320
f 320 378 379
f 321 326 322
f 322 324 323
f 322 326 330
f 326 380 381
f 326 381 331
f 326 331 382
f 326 382 330
f 327 383 384
f 327 384 385
f 327 385 386
f 327 386 387
f 327 387 388
f 327 388 328
f 327 331 381
f 327 381 389
f 327 389 383
f 328 388 390
f 328 390 451
f 328 451 391
f 328 391 457
f 328 457 392
f 328 392 393
f 328 393 329
f 329 393 394
f 329 394 332
f 330 382 331
f 332 394 395
f 332 395 333
f 334 395 335
f 335 396 397
f 335 397 398
f 335 398 336
f 335 395 394
f 335 394 393
f 335 393 396
f 336 398 399
f 336 399 400
f 336 400 401
f 336 401 402
f 336 402 403
f 336 403 337
f 337 403 338
f 338 403 404
f 338 404 405
f 338 405 339
f 339 405 340
f 340 405 404
f 340 404 406
f 340 406 341
f 341 406 343
f 341 343 342
f 343 406 407
f 343 407 408
f 343 408 346
f 343 346 345
f 343 345 344
f 346 408 347
f 348 350 409
f 348 409 410
f 348 410 411
f 348 411 412
f 348 412 362
f 350 413 414
f 350 414 415
f 350 415 416
f 350 416 417
f 350 417 409
f 351 353 418
f 353 357 418
f 354 419 358
f 354 358 355
f 354 379 448
f 354 448 419
f 356 420 421
f 356 421 422
f 356 422 423
f 356 423 424
f 356 424 425
f 356 425 357
f 356 360 426
f 356 426 427
f 356 427 428
f 356 428 429
f 356 429 420
f 357 425 418
f 358 419 359
f 359 419 430
f 359 430 360
f 360 430 447
f 360 447 431
f 360 431 502
f 360 502 426
f 362 412 432
f 362 432 433
f 362 433 363
f 363 433 434
f 363 434 435
f 363 435 364
f 364 435 436
f 364 436 365
f 365 436 367
f 365 367 371
f 365 371 366
f 367 436 437
f 367 437 368
f 368 437 435
f 368 435 434
f 368 434 438
f 368 438 439
f 368 439 440
f 368 440 372
f 368 370 369
f 372 440 441
f 372 441 373
f 373 441 509
f 373 509 442
f 373 442 374
f 374 443 444
f 374 444 375
f 374 442 445
f 374 445 443
f 375 444 376
f 376 444 378
f 376 378 377
f 378 444 446
f 378 446 431
f 378 431 447
f 378 447 448
f 378 448 379
f 380 449 450
f 380 450 385
f 380 385 384
f 380 384 383
f 380 383 389
f 380 389 381
f 385 450 386
f 386 450 387
f 387 451 390
f 387 390 388
f 387 450 452
f 387 452 453
f 387 453 454
f 387 454 455
f 387 455 451
f 391 451 456
f 391 456 526
f 391 526 457
f 392 457 458
f 392 458 459
f 392 459 396
f 392 396 393
f 396 459 460
f 396 460 400
f 396 400 399
f 396 399 398
f 396 398 397
f 400 460 461
f 400 461 462
f 400 462 463
f 400 463 401
f 401 463 402
f 402 463 462
f 402 462 464
f 402 464 465
f 402 465 466
f 402 466 467
f 402 467 403
f 403 467 404
f 404 467 407
f 404 407 406
f 407 468 469
f 407 469 408
f 407 467 470
f 407 470 471
f 407 471 468
f 408 472 473
f 408 473 474
f 408 474 475
f 408 475 476
f 408 469 472
f 409 417 410
f 410 417 477
f 410 477 478
f 410 478 479
f 410 479 411
f 411 480 432
f 411 432 412
f 411 479 480
f 413 481 414
f 413 482 481
f 414 481 415
f 415 481 416
f 416 481 483
f 416 483 417
f 417 483 477
f 418 425 484
f 419 448 447
f 419 447 430
f 420 429 485
f 420 485 486
f 420 486 487
f 420 487 488
f 420 488 421
f 421 488 489
f 421 489 422
f 422 489 490
f 422 490 491
f 422 491 423
f 423 491 424
f 424 491 492
f 424 492 493
f 424 493 425
f 425 493 494
f 425 494 495
f 425 495 496
f 425 496 497
f 425 497 498
f 425 498 499
f 425 499 500
f 425 500 501
f 425 501 484
f 426 502 504
f 426 504 427
f 427 503 428
f 427 504 568
f 427 568 503
f 428 503 505
f 428 505 429
f 429 505 485
f 431 446 502
f 432 480 506
f 432 506 434
f 432 434 433
f 434 506 507
f 434 507 438
f 435 437 436
f 438 507 440
f 438 440 439
f 440 507 441
f 441 507 506
f 441 506 508
f 441 508 571
f 441 571 509
f 442 510 445
f 442 509 510
f 443 445 510
f 443 510 444
f 444 511 446
f 444 510 512
f 444 512 513
f 444 513 511
f 446 514 502
f 446 511 514
f 449 515 452
f 449 452 450
f 451 455 516
f 451 516 456
f 452 517 453
f 452 515 518
f 452 518 517
f 453 517 519
f 453 519 520
f 453 520 521
f 453 521 522
f 453 522 523
f 453 523 454
f 454 524 516
f 454 516 455
f 454 523 596
f 454 596 525
f 454 525 532
f 454 532 524
f 456 516 531
f 456 531 526
f 457 526 458
f 458 527 528
f 458 528 529
f 458 529 530
f 458 530 459
f 458 526 531
f 458 531 532
f 458 532 525
f 458 525 527
f 459 530 533
f 459 533 534
f 459 534 535
f 459 535 460
f 460 535 461
f 461 536 607
f 461 607 537
f 461 537 464
f 461 464 462
f 461 535 536
f 464 537 609
f 464 609 538
f 464 538 539
f 464 539 465
f 465 539 466
f 466 539 467
f 467 539 540
f 467 540 543
f 467 543 470
f 468 541 542
f 468 542 469
f 468 471 541
f 469 542 472
f 470 543 544
f 470 544 471
f 471 544 545
f 471 545 546
f 471 546 541
f 472 542 547
f 472 547 548
f 472 548 473
f 473 548 474
f 474 548 475
f 475 548 549
f 475 549 476
f 476 549 550
f 477 483 478
f 478 551 570
f 478 570 506
f 478 506 479
f 478 483 481
f 478 481 552
f 478 552 551
f 479 506 480
f 481 553 552
f 481 482 553
f 482 554 553
f 485 505 486
f 486 555 556
f 486 556 487
f 486 505 557
f 486 557 635
f 486 635 558
f 486 558 632
f 486 632 555
f 487 559 560
f 487 560 488
f 487 556 561
f 487 561 559
f 488 560 489
f 489 560 562
f 489 562 490
f 490 562 563
f 490 563 491
f 491 563 564
f 491 564 565
f 491 565 492
f 492 565 566
f 492 566 493
f 493 566 567
f 493 567 494
f 502 514 504
f 503 568 569
f 503 569 505
f 504 514 568
f 505 569 635
f 505 635 557
f 506 570 508
f 508 570 572
f 508 572 648
f 508 648 571
f 509 571 573
f 509 573 574
f 509 574 510
f 510 574 575
f 510 575 576
f 510 576 512
f 511 513 577
f 511 577 514
f 512 578 513
f 512 576 579
f 512 579 578
f 513 578 577
f 514 569 568
f 514 577 580
f 514 580 581
f 514 581 569
f 516 524 532
f 516 532 531
f 517 582 519
f 517 518 583
f 517 583 584
f 517 584 585
f 517 585 586
f 517 586 587
f 517 587 582
f 519 588 520
f 519 582 588
f 520 589 521
f 520 588 589
f 521 589 590
f 521 590 591
f 521 591 592
f 521 592 593
f 521 593 594
f 521 594 522
f 522 594 680
f 522 680 595
f 522 595 596
f 522 596 523
f 525 596 527
f 527 597 598
f 527 598 599
f 527 599 600
f 527 600 528
f 527 596 595
f 527 595 597
f 528 600 601
f 528 601 602
f 528 602 529
f 529 602 530
f 530 602 533
f 533 602 601
f 533 601 534
f 534 601 603
f 534 603 604
f 534 604 605
f 534 605 606
f 534 606 535
f 535 606 604
f 535 604 536
f 536 604 699
f 536 699 607
f 537 607 608
f 537 608 700
f 537 700 609
f 538 609 611
f 538 611 610
f 538 610 539
f 539 610 611
f 539 611 540
f 540 611 543
f 541 612 548
f 541 548 547
f 541 547 542
f 541 546 613
f 541 613 700
f 541 700 612
f 543 611 613
f 543 613 544
f 544 613 545
f 545 613 546
f 548 612 549
f 549 612 614
f 549 614 704
f 549 704 615
f 549 615 616
f 549 616 617
f 549 617 550
f 550 617 618
f 551 552 619
f 551 619 620
f 551 620 621
f 551 621 622
f 551 622 623
f 551 623 570
f 552 553 624
f 552 624 625
f 552 625 626
f 552 626 619
f 553 554 624
f 554 626 625
f 554 625 624
f 554 627 628
f 554 628 629
f 554 629 630
f 554 630 631
f 554 631 626
f 555 632 634
f 555 634 556
f 556 633 561
f 556 634 717
f 556 717 633
f 558 635 636
f 558 636 632
f 559 561 637
f 559 637 638
f 559 638 639
f 559 639 560
f 560 639 562
f 561 633 640
f 561 640 637
f 562 639 563
f 563 639 641
f 563 641 564
f 564 641 642
f 564 642 565
f 565 642 566
f 566 642 641
f 566 641 643
f 569 581 644
f 569 644 636
f 569 636 635
f 570 623 645
f 570 645 646
f 570 646 647
f 570 647 572
f 571 648 573
f 572 647 649
f 572 649 573
f 572 573 648
f 573 649 576
f 573 576 575
f 573 575 574
f 576 649 647
f 576 647 650
f 576 650 630
f 576 630 579
f 577 651 581
f 577 581 580
f 577 578 652
f 577 652 653
f 577 653 654
f 577 654 651
f 578 579 655
f 578 655 652
f 579 630 656
f 579 656 657
f 579 657 655
f 581 651 658
f 581 658 659
f 581 659 644
f 582 660 588
f 582 587 661
f 582 661 662
f 582 662 663
f 582 663 664
f 582 664 665
f 582 665 660
f 588 666 667
f 588 667 668
f 588 668 669
f 588 669 670
f 588 670 671
f 588 671 589
f 588 660 666
f 589 671 590
f 590 672 591
f 590 671 670
f 590 670 672
f 591 672 592
f 592 672 673
f 592 673 674
f 592 674 675
f 592 675 593
f 593 676 677
f 593 677 594
f 593 675 678
f 593 678 739
f 593 739 679
f 593 679 682
f 593 682 676
f 594 677 681
f 594 681 680
f 595 680 597
f 597 680 681
f 597 681 682
f 597 682 679
f 597 679 683
f 597 683 684
f 597 684 742
f 597 742 685
f 597 685 598
f 598 685 599
f 599 685 686
f 599 686 687
f 599 687 688
f 599 688 689
f 599 689 690
f 599 690 691
f 599 691 600
f 600 691 601
f 601 691 692
f 601 692 693
f 601 693 603
f 603 693 694
f 603 694 604
f 604 694 695
f 604 695 696
f 604 696 697
f 604 697 698
f 604 698 699
f 604 606 605
f 607 699 698
f 607 698 608
f 608 698 697
f 608 697 700
f 609 700 613
f 609 613 611
f 612 700 701
f 612 701 702
f 612 702 703
f 612 703 614
f 614 703 704
f 615 618 616
f 615 704 618
f 616 618 617
f 618 704 706
f 618 706 707
f 618 707 708
f 618 708 709
f 618 709 705
f 619 626 620
f 620 631 621
f 620 626 631
f 621 631 630
f 621 630 622
f 622 650 646
f 622 646 645
f 622 645 623
f 622 630 650
f 627 710 711
f 627 711 628
f 628 711 712
f 628 712 629
f 629 713 714
f 629 714 715
f 629 715 656
f 629 656 630
f 629 712 716
f 629 716 713
f 632 636 634
f 633 717 725
f 633 725 640
f 634 636 717
f 636 644 659
f 636 659 718
f 636 718 719
f 636 719 717
f 637 720 721
f 637 721 638
f 637 640 724
f 637 724 720
f 638 721 738
f 638 738 722
f 638 722 639
f 639 722 723
f 639 723 641
f 640 725 789
f 640 789 724
f 641 723 643
f 643 723 726
f 646 650 647
f 651 727 658
f 651 654 727
f 652 655 657
f 652 657 653
f 653 657 728
f 653 728 654
f 654 728 729
f 654 729 730
f 654 730 727
f 656 715 657
f 657 715 731
f 657 731 732
f 657 732 733
f 657 733 728
f 658 727 659
f 659 727 718
f 660 665 666
f 665 734 735
f 665 735 736
f 665 736 666
f 666 736 735
f 666 735 667
f 667 735 668
f 668 735 737
f 668 737 738
f 668 738 721
f 668 721 674
f 668 674 673
f 668 673 669
f 669 673 670
f 670 673 672
f 674 721 720
f 674 720 675
f 675 720 724
f 675 724 678
f 676 682 681
f 676 681 677
f 678 724 789
f 678 789 739
f 679 739 683
f 683 739 740
f 683 740 741
f 683 741 742
f 683 742 684
f 685 742 686
f 686 743 744
f 686 744 745
f 686 745 687
f 686 742 743
f 687 745 688
f 688 745 746
f 688 746 747
f 688 747 748
f 688 748 749
f 688 749 689
f 689 749 750
f 689 750 690
f 690 750 751
f 690 751 752
f 690 752 753
f 690 753 692
f 690 692 691
f 692 753 693
f 693 753 754
f 693 754 755
f 693 755 694
f 694 755 756
f 694 756 757
f 694 757 695
f 695 757 696
f 696 757 756
f 696 756 758
f 696 758 759
f 696 759 697
f 697 759 760
f 697 760 761
f 697 761 700
f 700 761 762
f 700 762 701
f 701 762 763
f 701 763 702
f 702 708 707
f 702 707 706
f 702 706 703
f 702 763 708
f 703 706 704
f 705 709 765
f 705 765 766
f 705 766 764
f 708 763 767
f 708 767 768
f 708 768 752
f 708 752 751
f 708 751 769
f 708 769 709
f 709 769 749
f 709 749 770
f 709 770 771
f 709 771 772
f 709 772 773
f 709 773 765
f 710 774 815
f 710 815 775
f 710 775 711
f 711 775 713
f 711 713 716
f 711 716 712
f 713 776 777
f 713 777 714
f 713 775 776
f 714 777 715
f 715 777 731
f 717 719 778
f 717 778 725
f 718 727 779
f 718 779 719
f 719 779 778
f 722 780 781
f 722 781 782
f 722 782 783
f 722 783 784
f 722 784 785
f 722 785 786
f 722 786 723
f 722 738 804
f 722 804 780
f 723 786 787
f 723 787 788
f 723 788 726
f 725 778 805
f 725 805 789
f 727 790 779
f 727 730 791
f 727 791 790
f 728 792 729
f 728 733 792
f 729 791 730
f 729 792 791
f 731 777 793
f 731 793 732
f 732 793 733
f 733 793 794
f 733 794 795
f 733 795 792
f 734 796 737
f 734 737 735
f 737 796 797
f 737 797 798
f 737 798 738
f 738 798 799
f 738 799 800
f 738 800 801
f 738 801 802
f 738 802 803
f 738 803 804
f 739 789 805
f 739 805 740
f 740 805 806
f 740 806 741
f 741 806 744
f 741 744 742
f 742 744 743
f 744 806 807
f 744 807 745
f 745 807 808
f 745 808 747
f 745 747 746
f 747 808 809
f 747 809 748
f 748 809 810
f 748 810 811
f 748 811 749
f 749 811 812
f 749 812 813
f 749 813 814
f 749 814 770
f 749 769 750
f 750 769 751
f 752 768 759
f 752 759 758
f 752 758 756
f 752 756 753
f 753 756 754
f 754 756 755
f 759 768 760
f 760 768 761
f 761 768 767
f 761 767 763
f 761 763 762
f 764 766 774
f 765 773 766
f 766 773 772
f 766 772 815
f 766 815 774
f 770 814 771
f 771 816 772
f 771 814 817
f 771 817 816
f 772 816 815
f 775 818 819
f 775 819 776
f 775 815 836
f 775 836 818
f 776 819 793
f 776 793 777
f 778 779 820
f 778 820 821
f 778 821 825
f 778 825 805
f 779 790 822
f 779 822 823
f 779 823 819
f 779 819 824
f 779 824 820
f 790 791 823
f 790 823 822
f 791 792 823
f 792 795 823
f 793 819 794
f 794 819 795
f 795 819 823
f 805 825 826
f 805 826 806
f 806 826 827
f 806 827 828
f 806 828 829
f 806 829 830
f 806 830 807
f 807 830 829
f 807 829 808
f 808 829 831
f 808 831 832
f 808 832 809
f 809 832 833
f 809 833 834
f 809 834 810
f 810 834 811
f 811 834 812
f 812 817 813
f 812 834 835
f 812 835 817
f 813 817 814
f 815 816 828
f 815 828 836
f 816 817 828
f 817 835 828
f 818 836 844
f 818 844 837
f 818 837 824
f 818 824 819
f 820 824 837
f 820 837 838
f 820 838 839
f 820 839 840
f 820 840 821
f 821 840 841
f 821 841 825
f 825 841 826
f 826 841 842
f 826 842 843
f 826 843 844
f 826 844 827
f 827 844 836
f 827 836 828
f 828 835 831
f 828 831 829
f 831 835 833
f 831 833 832
f 833 835 834
f 837 844 843
f 837 843 838
f 838 843 842
f 838 842 839
f 839 842 841
f 839 841 840
