v 0.00863334 0.405528 0.218613
v -0.00863365 0.405528 0.218613
v 0.0259003 0.405528 0.217457
v 0.00863334 0.838187 0.216986
v -0.00961183 0.405528 0.21857
v -0.00863365 0.838187 0.216986
v 0.0431673 0.405528 0.216173
v 0.0259003 0.838187 0.214761
v 0.0431673 0.851522 0.209925
v 0.0259003 0.853217 0.211037
v 0.00863334 0.854638 0.212193
v 0.0610297 0.405528 0.213905
v -0.0268788 0.405528 0.217414
v -0.00863365 0.854638 0.212193
v -0.0259006 0.853217 0.211037
v -0.0431676 0.851522 0.209925
v -0.0259006 0.838187 0.214761
v -0.0441458 0.405528 0.216173
v 0.0431673 0.838187 0.21245
v 0.0557986 0.849368 0.208683
v 0.0431673 0.860182 0.204361
v 0.0259003 0.861832 0.205474
v 0.00863334 0.863298 0.206586
v 0.0662183 0.405528 0.212107
v 0.066431 0.838187 0.206415
v 0.0577975 0.838187 0.209368
v -0.00863365 0.863298 0.206586
v -0.0259006 0.861832 0.205474
v -0.0431676 0.860182 0.204361
v -0.0557989 0.849368 0.208683
v -0.0431676 0.838187 0.21245
v -0.06103 0.405528 0.213905
v 0.104282 0.847535 0.190451
v 0.0950533 0.850651 0.19242
v 0.0611148 0.855279 0.20282
v 0.0604768 0.866872 0.19349
v 0.0431673 0.868385 0.195716
v 0.0259003 0.868797 0.196828
v 0.00863334 0.868889 0.197941
v 0.0777438 0.405528 0.208041
v 0.0777438 0.838187 0.201878
v -0.00863365 0.868889 0.197941
v -0.0259006 0.868797 0.196828
v -0.0431676 0.868385 0.195716
v -0.0604771 0.866872 0.19349
v -0.0611151 0.855279 0.20282
v -0.104283 0.847535 0.190451
v -0.0664313 0.838187 0.206415
v -0.0577978 0.838187 0.209368
v -0.0950536 0.850651 0.19242
v -0.0634117 0.405528 0.213562
v 0.124016 0.850239 0.17513
v 0.111129 0.854638 0.180693
v 0.106451 0.865681 0.174745
v 0.0950533 0.859312 0.186343
v 0.0950533 0.838187 0.194731
v 0.104622 0.838187 0.190623
v 0.113256 0.838187 0.18493
v 0.125504 0.838187 0.176285
v 0.0777013 0.856379 0.195502
v 0.0834428 0.862748 0.188868
v 0.0719598 0.865177 0.191265
v 0.0950533 0.867606 0.177698
v 0.0604768 0.871638 0.181464
v 0.0431673 0.87315 0.181464
v 0.0259003 0.873517 0.181464
v 0.00863334 0.873654 0.181464
v 0.094543 0.405528 0.20098
v -0.00863365 0.873654 0.181464
v -0.0259006 0.873517 0.181464
v -0.0431676 0.87315 0.181464
v -0.0604771 0.871638 0.181464
v -0.0950536 0.867606 0.177698
v -0.0719601 0.865177 0.191265
v -0.0777016 0.856379 0.195502
v -0.0834431 0.862748 0.188868
v -0.0950536 0.859312 0.186343
v -0.106452 0.865681 0.174745
v -0.11113 0.854638 0.180693
v -0.124016 0.850239 0.17513
v -0.125505 0.838187 0.176285
v -0.113256 0.838187 0.18493
v -0.104623 0.838187 0.190623
v -0.0950536 0.838187 0.194731
v -0.0777441 0.838187 0.201878
v -0.0743843 0.405528 0.209497
v 0.145366 0.838187 0.161049
v 0.142984 0.851705 0.159209
v 0.13703 0.863252 0.154587
v 0.117977 0.861786 0.17055
v 0.125504 0.86646 0.158995
v 0.112278 0.868385 0.164516
v 0.110747 0.405528 0.19319
v 0.128822 0.405528 0.181335
v 0.148683 0.405528 0.168154
v 0.0950533 0.872371 0.164173
v 0.0777438 0.873562 0.164173
v 0.0604768 0.873654 0.164173
v -0.0604771 0.873654 0.164173
v -0.0777441 0.873562 0.164173
v -0.0950536 0.872371 0.164173
v -0.112278 0.868385 0.164516
v -0.125505 0.86646 0.158995
v -0.13703 0.863252 0.154587
v -0.117977 0.861786 0.17055
v -0.142984 0.851705 0.159209
v -0.145366 0.838187 0.161049
v -0.151405 0.405528 0.165714
v -0.139667 0.405528 0.17376
v -0.128354 0.405528 0.181464
v -0.110705 0.405528 0.193019
v -0.0941605 0.405528 0.201065
v 0.153999 0.838187 0.153987
v 0.159188 0.851705 0.142988
v 0.148768 0.857479 0.148766
v 0.154595 0.863252 0.137039
v 0.143069 0.867056 0.143074
v 0.130608 0.869209 0.148039
v 0.153531 0.405528 0.163874
v 0.11232 0.873013 0.146883
v 0.129587 0.873425 0.129593
v 0.0950533 0.873654 0.146883
v -0.0950536 0.873654 0.146883
v -0.129588 0.873425 0.129593
v -0.112321 0.873013 0.146883
v -0.130608 0.869209 0.148039
v -0.143069 0.867056 0.143074
v -0.154595 0.863252 0.137039
v -0.148768 0.857479 0.148766
v -0.159188 0.851705 0.142988
v -0.154 0.838187 0.153987
v -0.159443 0.405528 0.159123
v 0.161017 0.838187 0.145342
v 0.175136 0.850239 0.123986
v 0.164079 0.405528 0.153773
v 0.165908 0.405528 0.151976
v 0.170543 0.861786 0.117994
v 0.174754 0.865681 0.106482
v 0.159018 0.86646 0.125484
v 0.148045 0.869209 0.130577
v 0.146897 0.873013 0.112302
v 0.164164 0.873562 0.0777641
v 0.146897 0.873654 0.0950545
v -0.146897 0.873654 0.0950545
v -0.146897 0.873013 0.112302
v -0.148045 0.869209 0.130577
v -0.164164 0.873562 0.0777641
v -0.159018 0.86646 0.125484
v -0.174754 0.865681 0.106482
v -0.170544 0.861786 0.117994
v -0.175137 0.850239 0.123986
v -0.161017 0.838187 0.145342
v -0.168545 0.405528 0.149023
v 0.169693 0.838187 0.134172
v 0.167226 0.405528 0.150307
v 0.176285 0.838187 0.125527
v 0.190447 0.847535 0.104299
v 0.180708 0.854638 0.111147
v 0.191255 0.865177 0.0719436
v 0.177688 0.867606 0.0950545
v 0.164547 0.868385 0.112259
v 0.186322 0.859312 0.0950545
v 0.188873 0.862748 0.0834562
v 0.164164 0.872371 0.0950545
v 0.181431 0.87315 0.0431833
v 0.181431 0.873517 0.0258928
v 0.181431 0.873654 0.00860241
v 0.164164 0.873654 0.0604737
v -0.164164 0.873654 0.0604737
v -0.164164 0.872371 0.0950545
v -0.164547 0.868385 0.112259
v -0.181431 0.873517 0.0258928
v -0.181431 0.87315 0.0431833
v -0.181431 0.873654 0.00860241
v -0.177689 0.867606 0.0950545
v -0.191255 0.865177 0.0719436
v -0.188874 0.862748 0.0834562
v -0.186322 0.859312 0.0950545
v -0.190447 0.847535 0.104299
v -0.180708 0.854638 0.111147
v -0.176285 0.838187 0.125527
v -0.169693 0.838187 0.134172
v -0.174244 0.405528 0.140378
v -0.184961 0.838187 0.113244
v 0.169055 0.405528 0.147568
v 0.184961 0.838187 0.113244
v 0.208692 0.849368 0.0558087
v 0.192403 0.850651 0.0950545
v 0.190617 0.838187 0.104598
v 0.194743 0.838187 0.0950545
v 0.201888 0.838187 0.0777641
v 0.206438 0.838187 0.0664226
v 0.193509 0.866872 0.0604737
v 0.202781 0.855279 0.0611156
v 0.181431 0.871638 0.0604737
v 0.195508 0.856379 0.0777213
v 0.195721 0.868385 0.0431833
v 0.196826 0.868797 0.0258928
v 0.197932 0.868889 0.00860241
v 0.181431 0.873654 -0.00860241
v -0.181431 0.871638 0.0604737
v -0.197933 0.868889 0.00860241
v -0.196827 0.868797 0.0258928
v -0.195721 0.868385 0.0431833
v -0.181431 0.873654 -0.00860241
v -0.193509 0.866872 0.0604737
v -0.202823 0.855279 0.0611156
v -0.195508 0.856379 0.0777213
v -0.192404 0.850651 0.0950545
v -0.208693 0.849368 0.0558087
v -0.206438 0.838187 0.0664226
v -0.201888 0.838187 0.0777641
v -0.194743 0.838187 0.0950545
v -0.190617 0.838187 0.104598
v -0.179262 0.405528 0.131861
v 0.179942 0.405528 0.131219
v 0.209926 0.851522 0.0431833
v 0.204354 0.860182 0.0431833
v 0.20933 0.838187 0.0577774
v 0.212477 0.838187 0.0431833
v 0.216986 0.838187 0.00860241
v 0.1873 0.405528 0.11701
v 0.191638 0.405528 0.107766
v 0.206353 0.405528 0.0670218
v 0.209585 0.405528 0.0579058
v 0.205503 0.861832 0.0258928
v 0.206566 0.863298 0.00860241
v 0.197932 0.868889 -0.00860241
v 0.181431 0.873517 -0.0258928
v 0.164164 0.873562 -0.0777641
v 0.164164 0.873654 -0.0604737
v -0.197933 0.868889 -0.00860241
v -0.206566 0.863298 0.00860241
v -0.205503 0.861832 0.0258928
v -0.204355 0.860182 0.0431833
v -0.164164 0.873654 -0.0604737
v -0.164164 0.873562 -0.0777641
v -0.181431 0.873517 -0.0258928
v -0.209926 0.851522 0.0431833
v -0.216986 0.838187 0.00860241
v -0.212478 0.838187 0.0431833
v -0.209373 0.838187 0.0577774
v -0.209586 0.405528 0.0579058
v -0.206694 0.405528 0.0662514
v -0.191638 0.405528 0.107766
v -0.18764 0.405528 0.116026
v -0.180495 0.405528 0.129678
v 0.211074 0.853217 0.0258928
v 0.212818 0.405528 0.0431833
v 0.215072 0.405528 0.0259356
v 0.216986 0.838187 -0.00860241
v 0.21218 0.854638 0.00860241
v 0.217198 0.405528 0.00920159
v 0.217241 0.405528 0.00860241
v 0.206566 0.863298 -0.00860241
v 0.196826 0.868797 -0.0258928
v 0.181431 0.87315 -0.0431833
v 0.164164 0.872371 -0.0950545
v 0.146897 0.873013 -0.112302
v 0.129587 0.873425 -0.129593
v 0.146897 0.873654 -0.0950545
v -0.181431 0.87315 -0.0431833
v -0.196827 0.868797 -0.0258928
v -0.206566 0.863298 -0.00860241
v -0.21218 0.854638 0.00860241
v -0.211074 0.853217 0.0258928
v -0.146897 0.873654 -0.0950545
v -0.129588 0.873425 -0.129593
v -0.146897 0.873013 -0.112302
v -0.164164 0.872371 -0.0950545
v -0.216986 0.838187 -0.00860241
v -0.217241 0.405528 -0.00860241
v -0.217198 0.405528 0.00860241
v -0.215072 0.405528 0.0258928
v -0.21286 0.405528 0.0426269
v -0.212775 0.405528 0.0431833
v 0.212477 0.838187 -0.0431833
v 0.208692 0.849368 -0.0558087
v 0.209926 0.851522 -0.0431833
v 0.211074 0.853217 -0.0258928
v 0.21218 0.854638 -0.00860241
v 0.217198 0.405528 -0.00860241
v 0.215072 0.405528 -0.0258928
v 0.205503 0.861832 -0.0258928
v 0.195721 0.868385 -0.0431833
v 0.181431 0.871638 -0.0604737
v 0.148045 0.869209 -0.130577
v 0.177688 0.867606 -0.0950545
v 0.164547 0.868385 -0.112259
v 0.130608 0.869209 -0.148039
v 0.11232 0.873013 -0.146883
v 0.0777438 0.873562 -0.164173
v 0.0950533 0.873654 -0.146883
v -0.181431 0.871638 -0.0604737
v -0.195721 0.868385 -0.0431833
v -0.205503 0.861832 -0.0258928
v -0.21218 0.854638 -0.00860241
v -0.0950536 0.873654 -0.146883
v -0.112321 0.873013 -0.146883
v -0.130608 0.869209 -0.148039
v -0.148045 0.869209 -0.130577
v -0.0777441 0.873562 -0.164173
v -0.164547 0.868385 -0.112259
v -0.177689 0.867606 -0.0950545
v -0.211074 0.853217 -0.0258928
v -0.209926 0.851522 -0.0431833
v -0.208693 0.849368 -0.0558087
v -0.212478 0.838187 -0.0431833
v -0.215072 0.405528 -0.0259356
v -0.217198 0.405528 -0.00920159
v 0.20933 0.838187 -0.0577774
v 0.21286 0.405528 -0.0426269
v 0.212775 0.405528 -0.0431833
v 0.190447 0.847535 -0.104299
v 0.192403 0.850651 -0.0950545
v 0.202781 0.855279 -0.0611156
v 0.204354 0.860182 -0.0431833
v 0.206438 0.838187 -0.0664226
v 0.193509 0.866872 -0.0604737
v 0.159018 0.86646 -0.125484
v 0.143069 0.867056 -0.143074
v 0.191255 0.865177 -0.0719436
v 0.174754 0.865681 -0.106482
v 0.0950533 0.872371 -0.164173
v 0.125504 0.86646 -0.158995
v 0.112278 0.868385 -0.164516
v 0.0431673 0.87315 -0.181464
v 0.0259003 0.873517 -0.181464
v 0.00863334 0.873654 -0.181464
v 0.0604768 0.873654 -0.164173
v -0.193509 0.866872 -0.0604737
v -0.204355 0.860182 -0.0431833
v -0.0604771 0.873654 -0.164173
v -0.0950536 0.872371 -0.164173
v -0.112278 0.868385 -0.164516
v -0.125505 0.86646 -0.158995
v -0.143069 0.867056 -0.143074
v -0.159018 0.86646 -0.125484
v -0.00863365 0.873654 -0.181464
v -0.0259006 0.873517 -0.181464
v -0.0431676 0.87315 -0.181464
v -0.174754 0.865681 -0.106482
v -0.191255 0.865177 -0.0719436
v -0.202823 0.855279 -0.0611156
v -0.192404 0.850651 -0.0950545
v -0.190447 0.847535 -0.104299
v -0.206438 0.838187 -0.0664226
v -0.209373 0.838187 -0.0577774
v -0.212818 0.405528 -0.0431833
v 0.209585 0.405528 -0.0579058
v 0.175136 0.850239 -0.123986
v 0.180708 0.854638 -0.111147
v 0.186322 0.859312 -0.0950545
v 0.201888 0.838187 -0.0777641
v 0.194743 0.838187 -0.0950545
v 0.190617 0.838187 -0.104598
v 0.184961 0.838187 -0.113244
v 0.176285 0.838187 -0.125527
v 0.195508 0.856379 -0.0777213
v 0.188873 0.862748 -0.0834562
v 0.206693 0.405528 -0.0662514
v 0.191638 0.405528 -0.107766
v 0.154595 0.863252 -0.137039
v 0.13703 0.863252 -0.154587
v 0.170543 0.861786 -0.117994
v 0.0604768 0.871638 -0.181464
v 0.0950533 0.867606 -0.177698
v 0.106451 0.865681 -0.174745
v 0.0431673 0.868385 -0.195716
v 0.0259003 0.868797 -0.196828
v 0.00863334 0.868889 -0.197941
v -0.0604771 0.871638 -0.181464
v -0.0950536 0.867606 -0.177698
v -0.106452 0.865681 -0.174745
v -0.13703 0.863252 -0.154587
v -0.154595 0.863252 -0.137039
v -0.00863365 0.868889 -0.197941
v -0.0259006 0.868797 -0.196828
v -0.0431676 0.868385 -0.195716
v -0.170544 0.861786 -0.117994
v -0.180708 0.854638 -0.111147
v -0.186322 0.859312 -0.0950545
v -0.188874 0.862748 -0.0834562
v -0.195508 0.856379 -0.0777213
v -0.175137 0.850239 -0.123986
v -0.176285 0.838187 -0.125527
v -0.184961 0.838187 -0.113244
v -0.190617 0.838187 -0.104598
v -0.194743 0.838187 -0.0950545
v -0.201888 0.838187 -0.0777641
v -0.191638 0.405528 -0.107766
v -0.206353 0.405528 -0.0670218
v -0.209586 0.405528 -0.0579058
v 0.169693 0.838187 -0.134172
v 0.161017 0.838187 -0.145342
v 0.153999 0.838187 -0.153987
v 0.159188 0.851705 -0.142988
v 0.18764 0.405528 -0.116026
v 0.180495 0.405528 -0.129678
v 0.179262 0.405528 -0.131861
v 0.174243 0.405528 -0.140378
v 0.168544 0.405528 -0.149023
v 0.148768 0.857479 -0.148766
v 0.142984 0.851705 -0.159209
v 0.124016 0.850239 -0.17513
v 0.117977 0.861786 -0.17055
v 0.0604768 0.866872 -0.19349
v 0.0719598 0.865177 -0.191265
v 0.111129 0.854638 -0.180693
v 0.104282 0.847535 -0.190451
v 0.0950533 0.859312 -0.186343
v 0.0834428 0.862748 -0.188868
v 0.0431673 0.860182 -0.204361
v 0.0259003 0.861832 -0.205474
v 0.00863334 0.863298 -0.206586
v -0.0604771 0.866872 -0.19349
v -0.0719601 0.865177 -0.191265
v -0.0834431 0.862748 -0.188868
v -0.0950536 0.859312 -0.186343
v -0.104283 0.847535 -0.190451
v -0.11113 0.854638 -0.180693
v -0.117977 0.861786 -0.17055
v -0.124016 0.850239 -0.17513
v -0.142984 0.851705 -0.159209
v -0.148768 0.857479 -0.148766
v -0.159188 0.851705 -0.142988
v -0.00863365 0.863298 -0.206586
v -0.0259006 0.861832 -0.205474
v -0.0431676 0.860182 -0.204361
v -0.154 0.838187 -0.153987
v -0.161017 0.838187 -0.145342
v -0.169693 0.838187 -0.134172
v -0.167226 0.405528 -0.150307
v -0.169055 0.405528 -0.147568
v -0.179943 0.405528 -0.131219
v -0.1873 0.405528 -0.11701
v 0.145366 0.838187 -0.161049
v 0.159443 0.405528 -0.159123
v 0.151405 0.405528 -0.165714
v 0.125504 0.838187 -0.176285
v 0.0611148 0.855279 -0.20282
v 0.0557986 0.849368 -0.208683
v 0.0950533 0.850651 -0.19242
v 0.113256 0.838187 -0.18493
v 0.104622 0.838187 -0.190623
v 0.0950533 0.838187 -0.194731
v 0.0777438 0.838187 -0.201878
v 0.066431 0.838187 -0.206415
v 0.0777013 0.856379 -0.195502
v 0.0431673 0.851522 -0.209925
v 0.0259003 0.853217 -0.211037
v 0.00863334 0.854638 -0.212193
v -0.0611151 0.855279 -0.20282
v -0.0777016 0.856379 -0.195502
v -0.0950536 0.850651 -0.19242
v -0.0557989 0.849368 -0.208683
v -0.0664313 0.838187 -0.206415
v -0.0777441 0.838187 -0.201878
v -0.0950536 0.838187 -0.194731
v -0.104623 0.838187 -0.190623
v -0.113256 0.838187 -0.18493
v -0.125505 0.838187 -0.176285
v -0.145366 0.838187 -0.161049
v -0.00863365 0.854638 -0.212193
v -0.0259006 0.853217 -0.211037
v -0.0431676 0.851522 -0.209925
v -0.148683 0.405528 -0.168154
v -0.153532 0.405528 -0.163874
v -0.164079 0.405528 -0.153773
v -0.165908 0.405528 -0.151976
v 0.139667 0.405528 -0.17376
v 0.0577975 0.838187 -0.209368
v 0.0431673 0.838187 -0.21245
v 0.0259003 0.838187 -0.214761
v 0.128354 0.405528 -0.181464
v 0.110704 0.405528 -0.193019
v 0.0941602 0.405528 -0.201065
v 0.074384 0.405528 -0.209497
v 0.0634114 0.405528 -0.213562
v 0.00863334 0.838187 -0.216986
v -0.0259006 0.838187 -0.214761
v -0.0431676 0.838187 -0.21245
v -0.0577978 0.838187 -0.209368
v -0.06103 0.405528 -0.213905
v -0.0662186 0.405528 -0.212107
v -0.0777441 0.405528 -0.208041
v -0.0945433 0.405528 -0.20098
v -0.110747 0.405528 -0.19319
v -0.128822 0.405528 -0.181335
v -0.00863365 0.838187 -0.216986
v 0.0610297 0.405528 -0.213905
v 0.0441455 0.405528 -0.216173
v 0.0268785 0.405528 -0.217414
v 0.00961152 0.405528 -0.21857
v 0.00863334 0.405528 -0.218613
v -0.0431676 0.405528 -0.216173
v -0.00863365 0.405528 -0.218613
v -0.0259006 0.405528 -0.217457
f 1 2 5
f 1 5 13
f 1 13 18
f 1 18 32
f 1 32 51
f 1 51 86
f 1 86 112
f 1 112 111
f 1 111 110
f 1 110 109
f 1 109 108
f 1 108 132
f 1 132 153
f 1 153 183
f 1 183 215
f 1 215 247
f 1 247 246
f 1 246 245
f 1 245 244
f 1 244 243
f 1 243 276
f 1 276 275
f 1 275 274
f 1 274 273
f 1 273 272
f 1 272 310
f 1 310 309
f 1 309 349
f 1 349 393
f 1 393 392
f 1 392 391
f 1 391 436
f 1 436 435
f 1 435 434
f 1 434 433
f 1 433 470
f 1 470 469
f 1 469 468
f 1 468 467
f 1 467 489
f 1 489 488
f 1 488 487
f 1 487 486
f 1 486 485
f 1 485 484
f 1 484 496
f 1 496 498
f 1 498 497
f 1 497 495
f 1 495 494
f 1 494 493
f 1 493 492
f 1 492 491
f 1 491 479
f 1 479 478
f 1 478 477
f 1 477 476
f 1 476 475
f 1 475 471
f 1 471 439
f 1 439 438
f 1 438 402
f 1 402 401
f 1 401 400
f 1 400 399
f 1 399 398
f 1 398 362
f 1 362 361
f 1 361 350
f 1 350 313
f 1 313 312
f 1 312 283
f 1 283 282
f 1 282 254
f 1 254 253
f 1 253 250
f 1 250 249
f 1 249 225
f 1 225 224
f 1 224 223
f 1 223 222
f 1 222 216
f 1 216 185
f 1 185 155
f 1 155 136
f 1 136 135
f 1 135 119
f 1 119 95
f 1 95 94
f 1 94 93
f 1 93 68
f 1 68 40
f 1 40 24
f 1 24 12
f 1 12 7
f 1 7 3
f 1 3 4
f 1 4 6
f 1 6 2
f 2 6 5
f 3 7 4
f 4 8 9
f 4 9 10
f 4 10 11
f 4 11 14
f 4 14 6
f 4 7 12
f 4 12 8
f 5 6 13
f 6 14 15
f 6 15 16
f 6 16 17
f 6 17 18
f 6 18 13
f 8 19 20
f 8 20 9
f 8 12 19
f 9 20 21
f 9 21 10
f 10 21 22
f 10 22 11
f 11 22 23
f 11 23 27
f 11 27 14
f 12 24 25
f 12 25 26
f 12 26 19
f 14 27 28
f 14 28 15
f 15 28 29
f 15 29 16
f 16 30 17
f 16 29 30
f 17 30 31
f 17 31 18
f 18 31 32
f 19 26 20
f 20 26 25
f 20 25 33
f 20 33 34
f 20 34 35
f 20 35 21
f 21 36 37
f 21 37 22
f 21 35 36
f 22 37 23
f 23 37 38
f 23 38 39
f 23 39 42
f 23 42 27
f 24 40 25
f 25 41 33
f 25 40 41
f 27 42 43
f 27 43 44
f 27 44 28
f 28 44 29
f 29 44 45
f 29 45 46
f 29 46 30
f 30 47 48
f 30 48 49
f 30 49 31
f 30 46 50
f 30 50 47
f 31 49 51
f 31 51 32
f 33 52 53
f 33 53 54
f 33 54 55
f 33 55 34
f 33 41 56
f 33 56 57
f 33 57 58
f 33 58 59
f 33 59 52
f 34 60 35
f 34 55 61
f 34 61 60
f 35 60 61
f 35 61 62
f 35 62 36
f 36 62 63
f 36 63 64
f 36 64 37
f 37 64 65
f 37 65 38
f 38 65 39
f 39 65 66
f 39 66 67
f 39 67 69
f 39 69 42
f 40 68 56
f 40 56 41
f 42 69 70
f 42 70 71
f 42 71 43
f 43 71 44
f 44 71 72
f 44 72 45
f 45 73 74
f 45 74 46
f 45 72 73
f 46 75 50
f 46 74 76
f 46 76 75
f 47 50 77
f 47 77 78
f 47 78 79
f 47 79 80
f 47 80 81
f 47 81 82
f 47 82 83
f 47 83 84
f 47 84 85
f 47 85 48
f 48 85 86
f 48 86 51
f 48 51 49
f 50 75 76
f 50 76 77
f 52 59 87
f 52 87 88
f 52 88 89
f 52 89 90
f 52 90 53
f 53 90 54
f 54 91 92
f 54 92 63
f 54 63 62
f 54 62 61
f 54 61 55
f 54 90 89
f 54 89 91
f 56 68 57
f 57 68 93
f 57 93 94
f 57 94 58
f 58 94 95
f 58 95 59
f 59 95 87
f 63 92 96
f 63 96 64
f 64 96 65
f 65 96 97
f 65 97 66
f 66 97 67
f 67 97 98
f 67 98 122
f 67 122 143
f 67 143 168
f 67 168 167
f 67 167 200
f 67 200 231
f 67 231 261
f 67 261 293
f 67 293 330
f 67 330 329
f 67 329 339
f 67 339 333
f 67 333 298
f 67 298 267
f 67 267 236
f 67 236 205
f 67 205 174
f 67 174 169
f 67 169 144
f 67 144 123
f 67 123 99
f 67 99 69
f 69 99 100
f 69 100 70
f 70 100 71
f 71 100 101
f 71 101 72
f 72 101 73
f 73 78 74
f 73 101 102
f 73 102 78
f 74 78 76
f 76 78 77
f 78 102 103
f 78 103 104
f 78 104 105
f 78 105 79
f 79 105 80
f 80 106 107
f 80 107 81
f 80 105 104
f 80 104 106
f 81 107 108
f 81 108 82
f 82 108 109
f 82 109 110
f 82 110 83
f 83 110 111
f 83 111 112
f 83 112 84
f 84 112 86
f 84 86 85
f 87 113 88
f 87 95 113
f 88 114 115
f 88 115 89
f 88 113 114
f 89 115 116
f 89 116 117
f 89 117 91
f 91 117 118
f 91 118 92
f 92 118 96
f 95 119 113
f 96 118 120
f 96 120 97
f 97 120 121
f 97 121 122
f 97 122 98
f 99 123 100
f 100 124 125
f 100 125 101
f 100 123 124
f 101 125 126
f 101 126 102
f 102 126 103
f 103 127 104
f 103 126 127
f 104 128 129
f 104 129 106
f 104 127 128
f 106 129 130
f 106 130 131
f 106 131 107
f 107 131 108
f 108 131 132
f 113 133 134
f 113 134 114
f 113 119 135
f 113 135 136
f 113 136 133
f 114 134 116
f 114 116 115
f 116 137 138
f 116 138 139
f 116 139 117
f 116 134 137
f 117 139 140
f 117 140 118
f 118 140 121
f 118 121 120
f 121 140 141
f 121 141 142
f 121 142 143
f 121 143 122
f 123 144 124
f 124 145 146
f 124 146 126
f 124 126 125
f 124 144 147
f 124 147 145
f 126 146 127
f 127 148 128
f 127 146 148
f 128 148 149
f 128 149 150
f 128 150 151
f 128 151 130
f 128 130 129
f 130 151 131
f 131 151 152
f 131 152 153
f 131 153 132
f 133 154 134
f 133 136 155
f 133 155 154
f 134 154 156
f 134 156 157
f 134 157 158
f 134 158 137
f 137 158 138
f 138 159 160
f 138 160 161
f 138 161 139
f 138 158 157
f 138 157 162
f 138 162 163
f 138 163 159
f 139 161 140
f 140 164 141
f 140 161 164
f 141 164 142
f 142 164 165
f 142 165 166
f 142 166 167
f 142 167 168
f 142 168 143
f 144 169 147
f 145 147 170
f 145 170 146
f 146 170 171
f 146 171 148
f 147 172 173
f 147 173 170
f 147 169 174
f 147 174 172
f 148 171 149
f 149 171 175
f 149 175 176
f 149 176 177
f 149 177 178
f 149 178 179
f 149 179 180
f 149 180 150
f 150 180 151
f 151 180 179
f 151 179 181
f 151 181 182
f 151 182 152
f 152 182 153
f 153 182 181
f 153 181 184
f 153 184 183
f 154 155 156
f 155 185 186
f 155 186 156
f 156 186 157
f 157 187 188
f 157 188 162
f 157 186 189
f 157 189 190
f 157 190 191
f 157 191 192
f 157 192 187
f 159 193 160
f 159 163 194
f 159 194 193
f 160 193 195
f 160 195 164
f 160 164 161
f 162 188 163
f 163 188 196
f 163 196 194
f 164 195 165
f 165 195 197
f 165 197 198
f 165 198 199
f 165 199 166
f 166 199 167
f 167 199 228
f 167 228 200
f 170 173 201
f 170 201 175
f 170 175 171
f 172 202 173
f 172 174 202
f 173 202 203
f 173 203 204
f 173 204 201
f 174 205 232
f 174 232 202
f 175 206 176
f 175 201 206
f 176 206 207
f 176 207 177
f 177 207 208
f 177 208 209
f 177 209 178
f 178 209 179
f 179 209 210
f 179 210 211
f 179 211 212
f 179 212 213
f 179 213 214
f 179 214 184
f 179 184 181
f 183 184 214
f 183 214 215
f 185 216 186
f 186 216 189
f 187 217 218
f 187 218 194
f 187 194 188
f 187 192 219
f 187 219 220
f 187 220 221
f 187 221 217
f 188 194 196
f 189 216 222
f 189 222 223
f 189 223 190
f 190 223 191
f 191 223 192
f 192 223 224
f 192 224 225
f 192 225 219
f 193 194 218
f 193 218 197
f 193 197 195
f 197 218 226
f 197 226 227
f 197 227 198
f 198 227 199
f 199 227 255
f 199 255 228
f 200 228 229
f 200 229 230
f 200 230 231
f 201 204 206
f 202 232 264
f 202 264 233
f 202 233 203
f 203 233 204
f 204 233 234
f 204 234 235
f 204 235 206
f 205 236 237
f 205 237 238
f 205 238 232
f 206 235 207
f 207 210 209
f 207 209 208
f 207 235 210
f 210 235 239
f 210 239 240
f 210 240 241
f 210 241 242
f 210 242 211
f 211 242 243
f 211 243 244
f 211 244 245
f 211 245 212
f 212 245 213
f 213 245 214
f 214 245 246
f 214 246 247
f 214 247 215
f 217 248 218
f 217 221 248
f 218 248 226
f 219 225 249
f 219 249 220
f 220 249 250
f 220 250 221
f 221 251 281
f 221 281 252
f 221 252 248
f 221 250 253
f 221 253 254
f 221 254 251
f 226 248 252
f 226 252 227
f 227 252 281
f 227 281 255
f 228 256 257
f 228 257 229
f 228 255 256
f 229 257 230
f 230 257 258
f 230 258 259
f 230 259 260
f 230 260 261
f 230 261 231
f 232 238 262
f 232 262 263
f 232 263 264
f 233 264 297
f 233 297 265
f 233 265 234
f 234 265 266
f 234 266 235
f 235 266 239
f 236 267 237
f 237 268 269
f 237 269 270
f 237 270 262
f 237 262 238
f 237 267 268
f 239 266 240
f 240 266 265
f 240 265 297
f 240 297 271
f 240 271 272
f 240 272 273
f 240 273 274
f 240 274 241
f 241 274 275
f 241 275 276
f 241 276 242
f 242 276 243
f 251 277 278
f 251 278 279
f 251 279 280
f 251 280 281
f 251 254 282
f 251 282 283
f 251 283 277
f 255 284 285
f 255 285 256
f 255 281 284
f 256 285 257
f 257 285 286
f 257 286 258
f 258 287 259
f 258 286 288
f 258 288 289
f 258 289 287
f 259 287 260
f 260 287 290
f 260 290 291
f 260 291 292
f 260 292 293
f 260 293 261
f 262 270 294
f 262 294 295
f 262 295 263
f 263 295 264
f 264 295 296
f 264 296 297
f 267 298 268
f 268 299 300
f 268 300 301
f 268 301 269
f 268 298 302
f 268 302 299
f 269 301 270
f 270 301 303
f 270 303 304
f 270 304 294
f 271 297 305
f 271 305 306
f 271 306 307
f 271 307 308
f 271 308 309
f 271 309 310
f 271 310 272
f 277 311 278
f 277 283 312
f 277 312 313
f 277 313 311
f 278 314 315
f 278 315 316
f 278 316 317
f 278 317 279
f 278 311 318
f 278 318 314
f 279 317 280
f 280 317 284
f 280 284 281
f 284 317 285
f 285 317 319
f 285 319 286
f 286 319 288
f 287 289 320
f 287 320 321
f 287 321 290
f 288 319 322
f 288 322 323
f 288 323 289
f 289 323 320
f 290 324 291
f 290 321 325
f 290 325 326
f 290 326 324
f 291 324 292
f 292 324 327
f 292 327 328
f 292 328 329
f 292 329 330
f 292 330 293
f 294 304 331
f 294 331 295
f 295 331 332
f 295 332 296
f 296 332 305
f 296 305 297
f 298 333 302
f 299 302 334
f 299 334 300
f 300 334 335
f 300 335 336
f 300 336 337
f 300 337 301
f 301 337 338
f 301 338 303
f 302 333 339
f 302 339 340
f 302 340 341
f 302 341 334
f 303 338 342
f 303 342 304
f 304 342 343
f 304 343 331
f 305 332 306
f 306 332 307
f 307 332 344
f 307 344 345
f 307 345 346
f 307 346 347
f 307 347 348
f 307 348 308
f 308 348 349
f 308 349 309
f 311 313 350
f 311 350 318
f 314 351 352
f 314 352 323
f 314 323 353
f 314 353 315
f 314 318 354
f 314 354 355
f 314 355 356
f 314 356 357
f 314 357 358
f 314 358 351
f 315 359 316
f 315 353 360
f 315 360 359
f 316 359 360
f 316 360 322
f 316 322 319
f 316 319 317
f 318 350 361
f 318 361 362
f 318 362 354
f 320 323 363
f 320 363 321
f 321 363 364
f 321 364 325
f 322 360 323
f 323 360 353
f 323 352 365
f 323 365 363
f 324 366 327
f 324 326 367
f 324 367 366
f 325 368 326
f 325 364 368
f 326 368 367
f 327 366 369
f 327 369 370
f 327 370 371
f 327 371 328
f 328 371 329
f 329 371 377
f 329 377 339
f 331 343 344
f 331 344 332
f 334 341 372
f 334 372 373
f 334 373 335
f 335 373 374
f 335 374 336
f 336 374 375
f 336 375 337
f 337 375 376
f 337 376 338
f 338 376 342
f 339 377 340
f 340 377 341
f 341 377 378
f 341 378 379
f 341 379 372
f 342 376 380
f 342 380 381
f 342 381 346
f 342 346 382
f 342 382 383
f 342 383 343
f 343 383 344
f 344 384 345
f 344 383 384
f 345 384 383
f 345 383 382
f 345 382 346
f 346 381 385
f 346 385 386
f 346 386 387
f 346 387 388
f 346 388 389
f 346 389 390
f 346 390 347
f 347 390 391
f 347 391 392
f 347 392 393
f 347 393 348
f 348 393 349
f 351 358 394
f 351 394 395
f 351 395 396
f 351 396 397
f 351 397 363
f 351 363 365
f 351 365 352
f 354 362 355
f 355 362 356
f 356 362 398
f 356 398 399
f 356 399 400
f 356 400 401
f 356 401 357
f 357 401 402
f 357 402 358
f 358 402 394
f 363 397 403
f 363 403 364
f 364 403 404
f 364 404 405
f 364 405 406
f 364 406 368
f 366 367 407
f 366 407 369
f 367 368 408
f 367 408 407
f 368 406 409
f 368 409 410
f 368 410 411
f 368 411 412
f 368 412 408
f 369 407 413
f 369 413 414
f 369 414 415
f 369 415 370
f 370 415 371
f 371 415 427
f 371 427 377
f 372 379 416
f 372 416 373
f 373 416 417
f 373 417 374
f 374 417 418
f 374 418 419
f 374 419 420
f 374 420 421
f 374 421 422
f 374 422 375
f 375 422 423
f 375 423 424
f 375 424 425
f 375 425 376
f 376 425 426
f 376 426 385
f 376 385 380
f 377 427 378
f 378 427 379
f 379 427 428
f 379 428 429
f 379 429 416
f 380 385 381
f 385 426 430
f 385 430 431
f 385 431 432
f 385 432 386
f 386 432 433
f 386 433 387
f 387 433 434
f 387 434 435
f 387 435 388
f 388 435 436
f 388 436 391
f 388 391 389
f 389 391 390
f 394 402 395
f 395 402 396
f 396 437 404
f 396 404 397
f 396 402 438
f 396 438 439
f 396 439 437
f 397 404 403
f 404 437 405
f 405 437 440
f 405 440 410
f 405 410 409
f 405 409 406
f 407 408 441
f 407 441 413
f 408 412 441
f 410 442 443
f 410 443 411
f 410 440 444
f 410 444 445
f 410 445 446
f 410 446 447
f 410 447 448
f 410 448 442
f 411 443 412
f 412 443 449
f 412 449 441
f 413 441 442
f 413 442 450
f 413 450 451
f 413 451 414
f 414 451 452
f 414 452 415
f 415 452 464
f 415 464 427
f 416 429 453
f 416 453 417
f 417 453 418
f 418 453 454
f 418 454 455
f 418 455 419
f 419 455 420
f 420 423 421
f 420 455 456
f 420 456 457
f 420 457 458
f 420 458 459
f 420 459 460
f 420 460 461
f 420 461 462
f 420 462 423
f 421 423 422
f 423 462 463
f 423 463 424
f 424 426 425
f 424 463 430
f 424 430 426
f 427 464 428
f 428 464 465
f 428 465 429
f 429 465 466
f 429 466 456
f 429 456 453
f 430 463 467
f 430 467 468
f 430 468 469
f 430 469 470
f 430 470 431
f 431 470 433
f 431 433 432
f 437 439 440
f 439 471 444
f 439 444 440
f 441 449 443
f 441 443 442
f 442 448 472
f 442 472 473
f 442 473 474
f 442 474 450
f 444 471 475
f 444 475 445
f 445 475 476
f 445 476 477
f 445 477 446
f 446 477 478
f 446 478 447
f 447 478 448
f 448 478 479
f 448 479 472
f 450 474 480
f 450 480 451
f 451 480 452
f 452 480 490
f 452 490 464
f 453 456 455
f 453 455 454
f 456 466 481
f 456 481 482
f 456 482 483
f 456 483 457
f 457 483 484
f 457 484 485
f 457 485 486
f 457 486 458
f 458 486 459
f 459 486 487
f 459 487 460
f 460 487 488
f 460 488 489
f 460 489 461
f 461 489 467
f 461 467 462
f 462 467 463
f 464 490 465
f 465 490 466
f 466 490 481
f 472 479 473
f 473 479 491
f 473 491 492
f 473 492 474
f 474 492 480
f 480 492 493
f 480 493 494
f 480 494 495
f 480 495 497
f 480 497 490
f 481 490 484
f 481 484 482
f 482 484 483
f 484 490 496
f 490 497 498
f 490 498 496
