v -0.0516017 0.495035 0.18983
v -0.114712 0.495035 0.18983
v -0.0519977 0.503294 0.18983
v -0.0875651 0.576546 0.270987
v -0.0887064 0.576546 0.273783
v -0.0950186 0.576546 0.289118
v -0.10925 0.534262 0.323412
v -0.109145 0.518774 0.323412
v -0.109902 0.503294 0.322149
v -0.107829 0.495027 0.312001
v -0.107829 0.495027 0.307791
v -0.116611 0.499767 0.18983
v -0.125322 0.495035 0.213194
v -0.0541173 0.534262 0.18983
v -0.0577159 0.547053 0.18983
v -0.0862956 0.576546 0.255516
v -0.0966025 0.576546 0.292576
v -0.105954 0.549742 0.314963
v -0.114642 0.534262 0.332929
v -0.113653 0.518774 0.332929
v -0.120663 0.518774 0.343408
v -0.122049 0.508632 0.342085
v -0.117787 0.503398 0.332884
v -0.119953 0.495035 0.328253
v -0.131704 0.495035 0.328344
v -0.139926 0.495035 0.325908
v -0.141079 0.495035 0.325352
v -0.154996 0.495035 0.317233
v -0.158118 0.495035 0.313865
v -0.158211 0.495035 0.304604
v -0.158234 0.495035 0.301958
v -0.156021 0.495035 0.292967
v -0.116983 0.503294 0.18983
v -0.125963 0.503294 0.211676
v -0.161763 0.503294 0.301958
v -0.0696882 0.551179 0.18983
v -0.0905698 0.576546 0.245879
v -0.104138 0.576546 0.30504
v -0.106525 0.565223 0.312587
v -0.121549 0.534262 0.342687
v -0.130994 0.533744 0.342566
v -0.132461 0.518686 0.343138
v -0.127861 0.508632 0.342085
v -0.1408 0.495131 0.325743
v -0.132461 0.503398 0.336026
v -0.151118 0.497094 0.323457
v -0.159259 0.507411 0.327727
v -0.161413 0.502663 0.317955
v -0.117042 0.515024 0.18983
v -0.163195 0.518774 0.301958
v -0.170579 0.524543 0.325517
v -0.170579 0.524543 0.324359
v -0.168296 0.519141 0.318496
v -0.0796107 0.550309 0.18983
v -0.120885 0.576546 0.233506
v -0.113385 0.576546 0.235626
v -0.100399 0.576546 0.240782
v -0.106106 0.576546 0.307806
v -0.107538 0.574639 0.310513
v -0.123226 0.542465 0.341138
v -0.125415 0.542465 0.341138
v -0.140532 0.528238 0.341153
v -0.135734 0.538555 0.339138
v -0.140532 0.523793 0.341153
v -0.138191 0.513468 0.340206
v -0.146425 0.502663 0.329847
v -0.146262 0.518686 0.33783
v -0.163684 0.519141 0.32902
v -0.163195 0.534262 0.301958
v -0.150443 0.565223 0.270987
v -0.144072 0.576546 0.255516
v -0.143013 0.576546 0.25296
v -0.117018 0.518774 0.18983
v -0.170579 0.527591 0.325517
v -0.170579 0.527591 0.324359
v -0.0964045 0.548171 0.18983
v -0.126894 0.576546 0.234363
v -0.113233 0.576546 0.309144
v -0.157442 0.543143 0.326524
v -0.118963 0.576546 0.307776
v -0.122003 0.576546 0.306844
v -0.132182 0.576546 0.303191
v -0.138342 0.576546 0.30086
v -0.146262 0.533744 0.336462
v -0.162601 0.533353 0.328298
v -0.150431 0.576546 0.270987
v -0.140124 0.576546 0.24606
v -0.115446 0.534262 0.18983
v -0.159667 0.546678 0.317444
v -0.156545 0.562382 0.299237
v -0.156545 0.562382 0.290051
v -0.108866 0.545258 0.18983
v -0.12955 0.576546 0.235746
v -0.144713 0.576546 0.297282
v -0.150187 0.576546 0.287014
v -0.138599 0.576546 0.24397
v -0.111137 0.543654 0.18983
f 1 2 12
f 1 12 33
f 1 33 49
f 1 49 73
f 1 73 88
f 1 88 97
f 1 97 92
f 1 92 76
f 1 76 54
f 1 54 36
f 1 36 15
f 1 15 14
f 1 14 3
f 1 3 4
f 1 4 5
f 1 5 6
f 1 6 7
f 1 7 8
f 1 8 9
f 1 9 10
f 1 10 11
f 1 11 2
f 2 11 13
f 2 13 12
f 3 14 4
f 4 14 15
f 4 15 16
f 4 16 37
f 4 37 57
f 4 57 56
f 4 56 55
f 4 55 77
f 4 77 93
f 4 93 96
f 4 96 87
f 4 87 72
f 4 72 71
f 4 71 86
f 4 86 95
f 4 95 94
f 4 94 83
f 4 83 82
f 4 82 81
f 4 81 80
f 4 80 78
f 4 78 58
f 4 58 38
f 4 38 17
f 4 17 6
f 4 6 5
f 6 17 7
f 7 17 18
f 7 18 19
f 7 19 20
f 7 20 8
f 8 20 9
f 9 20 21
f 9 21 22
f 9 22 23
f 9 23 10
f 10 23 24
f 10 24 25
f 10 25 26
f 10 26 27
f 10 27 28
f 10 28 29
f 10 29 30
f 10 30 31
f 10 31 11
f 11 31 32
f 11 32 13
f 12 13 34
f 12 34 33
f 13 32 35
f 13 35 34
f 15 36 37
f 15 37 16
f 17 38 39
f 17 39 18
f 18 39 19
f 19 40 21
f 19 21 20
f 19 39 40
f 21 40 41
f 21 41 42
f 21 42 43
f 21 43 22
f 22 43 25
f 22 25 24
f 22 24 23
f 25 44 26
f 25 43 45
f 25 45 44
f 26 44 27
f 27 44 28
f 28 44 46
f 28 46 47
f 28 47 29
f 29 47 48
f 29 48 30
f 30 48 31
f 31 48 35
f 31 35 32
f 33 34 50
f 33 50 49
f 34 35 50
f 35 48 51
f 35 51 52
f 35 52 53
f 35 53 50
f 36 54 55
f 36 55 56
f 36 56 57
f 36 57 37
f 38 58 39
f 39 58 59
f 39 59 40
f 40 59 60
f 40 60 61
f 40 61 41
f 41 62 42
f 41 61 63
f 41 63 62
f 42 62 64
f 42 64 65
f 42 65 43
f 43 65 47
f 43 47 66
f 43 66 45
f 44 45 46
f 45 66 46
f 46 66 47
f 47 65 67
f 47 67 68
f 47 68 51
f 47 51 48
f 49 69 70
f 49 70 71
f 49 71 72
f 49 72 73
f 49 50 69
f 50 53 52
f 50 52 75
f 50 75 69
f 51 74 75
f 51 75 52
f 51 68 64
f 51 64 62
f 51 62 74
f 54 76 77
f 54 77 55
f 58 78 59
f 59 78 60
f 60 78 61
f 61 79 63
f 61 78 80
f 61 80 81
f 61 81 82
f 61 82 83
f 61 83 79
f 62 63 84
f 62 84 85
f 62 85 74
f 63 79 84
f 64 68 67
f 64 67 65
f 69 75 86
f 69 86 70
f 70 86 71
f 72 87 73
f 73 87 88
f 74 85 79
f 74 79 89
f 74 89 90
f 74 90 91
f 74 91 75
f 75 91 86
f 76 92 77
f 77 92 93
f 79 85 84
f 79 83 94
f 79 94 90
f 79 90 89
f 86 91 90
f 86 90 95
f 87 96 88
f 88 96 97
f 90 94 95
f 92 97 93
f 93 97 96
