v 0.126669 0.618605 -0.0077259
v 0.106855 0.689171 -0.00788296
v 0.10693 0.689171 0.00722027
v 0.10693 0.689171 0.00816258
v 0.12657 0.618605 0.0077176
v 0.125851 0.618605 -0.0155524
v 0.125231 0.618605 -0.0202116
v 0.104648 0.689115 -0.0232218
v 0.104623 0.689171 -0.0232741
v 0.104549 0.689171 0.0231611
v 0.125206 0.618605 0.0204127
v 0.124635 0.618605 -0.0235882
v 0.12342 0.618605 -0.0288495
v 0.123321 0.618605 -0.0292421
v 0.120841 0.618605 -0.0386914
v 0.0998374 0.689171 -0.0387438
v 0.0999862 0.689171 0.038657
v 0.123569 0.618633 0.0292338
v 0.123569 0.618605 0.0292076
v 0.115039 0.618605 -0.0535852
v 0.0947538 0.689171 -0.0501824
v 0.095101 0.689171 0.0500956
v 0.0999862 0.689115 0.0387093
v 0.120519 0.618605 0.0395993
v 0.123544 0.618605 0.0293123
v 0.109583 0.618605 -0.0640292
v 0.0904886 0.689171 -0.0579304
v 0.090191 0.689171 0.0578697
v 0.0902158 0.689115 0.0578697
v 0.109707 0.618605 0.0639162
v 0.111344 0.618605 0.060749
v 0.114691 0.618605 0.0542313
v 0.117518 0.618605 0.0472687
v 0.104772 0.618605 -0.071751
v 0.101177 0.618605 -0.076672
v 0.0827516 0.689171 -0.0681126
v 0.0824788 0.689171 0.0680781
v 0.0963657 0.618605 0.0827887
v 0.104747 0.618605 0.0715856
v 0.0963409 0.618605 -0.0825876
v 0.075833 0.689171 -0.0758605
v 0.075833 0.689171 0.0758522
v 0.0918029 0.618605 0.0876312
v 0.089819 0.618605 -0.0896288
v 0.087612 0.618605 -0.0918014
v 0.0827764 0.618605 -0.0963821
v 0.0680712 0.689171 -0.0824829
v 0.0896207 0.618605 0.0898299
v 0.0681208 0.689171 0.0827625
v 0.082578 0.618605 0.0963214
v 0.0715925 0.618605 -0.104732
v 0.0578296 0.689171 -0.0902308
v 0.057904 0.689171 0.0905105
v 0.0766761 0.618605 0.101164
v 0.0639299 0.618605 -0.109705
v 0.0500926 0.689171 -0.0950995
v 0.0501918 0.689171 0.0947509
v 0.0640291 0.618605 0.109592
v 0.0717413 0.618605 0.104776
v 0.0542339 0.618605 -0.114705
v 0.0386359 0.689171 -0.0999943
v 0.0387103 0.689171 0.0998551
v -0.0399986 0.670243 0.140741
v 0.0535891 0.618605 0.115037
v 0.0472656 0.618605 -0.117532
v 0.023162 0.689171 -0.104549
v 0.0396031 0.618605 -0.120516
v 0.0293119 0.618605 -0.123552
v 0.0232116 0.689171 0.104619
v -0.0472892 0.673372 0.140741
v -0.0340222 0.65814 0.140741
v 0.0387103 0.618605 0.120848
v 0.0292127 0.618605 -0.123578
v 0.0204094 0.618605 -0.125201
v 0.00815919 0.689171 -0.106931
v 0.00882873 0.689171 0.106713
v -0.054183 0.675292 0.140741
v -0.0330551 0.618605 0.140741
v 0.00773762 0.618605 -0.126562
v -0.00773634 0.618605 -0.126667
v 0.00721686 0.689171 -0.106931
v 0.00788641 0.689171 0.106844
v -0.0633087 0.676025 0.140741
v -0.096786 0.618605 0.140741
v -0.0155477 0.618605 -0.125856
v -0.00788513 0.689171 -0.106852
v -0.00815791 0.689171 0.106949
v -0.0696818 0.676322 0.140741
v -0.0968108 0.618812 0.140741
v -0.123419 0.618605 0.0288412
v -0.0202097 0.618605 -0.125227
v -0.00882745 0.689171 -0.106721
v -0.0232103 0.689171 0.104567
v -0.0787826 0.675852 0.140741
v -0.0968108 0.65814 0.140741
v -0.124634 0.618605 0.0235799
v -0.0235823 0.618605 -0.124652
v -0.0232103 0.689115 -0.104627
v -0.0232599 0.689171 -0.104601
v -0.0387091 0.689171 0.100143
v -0.0854781 0.674077 0.140741
v -0.0502649 0.689171 0.095222
v -0.0580019 0.689171 0.0903011
v -0.0681195 0.689171 0.0825793
v -0.0758565 0.689171 0.0758261
v -0.0827751 0.689171 0.0680781
v -0.0905121 0.689171 0.0578959
v -0.0948517 0.668847 0.140741
v -0.125229 0.618605 0.0202295
v -0.0288394 0.618605 -0.123421
v -0.0387091 0.689115 -0.0998634
v -0.0387339 0.689171 -0.0998372
v -0.0387091 0.618605 -0.12083
v -0.0919752 0.670671 0.140741
v -0.0947526 0.689171 0.050148
v -0.0998362 0.689171 0.0387093
v -0.104622 0.689171 0.0232135
v -0.104647 0.689115 0.0232135
v -0.10673 0.689171 0.00884314
v -0.125849 0.618605 0.0155441
v -0.0535879 0.618605 -0.115045
v -0.0501905 0.689171 -0.094733
v -0.106854 0.689171 0.00787465
v -0.126668 0.618605 0.0077176
v -0.0640278 0.618605 -0.109574
v -0.0579027 0.689171 -0.0905188
v -0.106953 0.689171 -0.00814471
v -0.126568 0.618605 -0.0077259
v -0.07174 0.618605 -0.104758
v -0.0681195 0.689171 -0.0827447
v -0.0766748 0.618605 -0.101172
v -0.104548 0.689171 -0.0232218
v -0.125205 0.618605 -0.020421
v -0.0825767 0.618605 -0.0963297
v -0.0758317 0.689171 -0.0758605
v -0.123568 0.618633 -0.0292421
v -0.0999601 0.689171 -0.0386914
v -0.0999849 0.689115 -0.0386914
v -0.120518 0.618605 -0.0396076
v -0.123568 0.618605 -0.0292159
v -0.0862964 0.618605 -0.0929007
v -0.0824775 0.689171 -0.0680864
v -0.0896194 0.618605 -0.089812
v -0.0918016 0.618605 -0.0876133
v -0.0963644 0.618605 -0.0827708
v -0.0950997 0.689171 -0.0500777
v -0.11469 0.618605 -0.0542396
v -0.117517 0.618605 -0.047277
v -0.0902145 0.689115 -0.057878
v -0.0901897 0.689171 -0.0578518
v -0.104746 0.618605 -0.0715939
v -0.109706 0.618605 -0.0639245
f 1 2 3
f 1 3 4
f 1 4 5
f 1 5 11
f 1 11 19
f 1 19 25
f 1 25 24
f 1 24 33
f 1 33 32
f 1 32 31
f 1 31 30
f 1 30 39
f 1 39 38
f 1 38 43
f 1 43 48
f 1 48 50
f 1 50 54
f 1 54 59
f 1 59 58
f 1 58 64
f 1 64 72
f 1 72 78
f 1 78 84
f 1 84 90
f 1 90 96
f 1 96 109
f 1 109 120
f 1 120 124
f 1 124 128
f 1 128 133
f 1 133 140
f 1 140 139
f 1 139 148
f 1 148 147
f 1 147 152
f 1 152 151
f 1 151 145
f 1 145 144
f 1 144 143
f 1 143 141
f 1 141 134
f 1 134 131
f 1 131 129
f 1 129 125
f 1 125 121
f 1 121 113
f 1 113 110
f 1 110 97
f 1 97 91
f 1 91 85
f 1 85 80
f 1 80 79
f 1 79 74
f 1 74 73
f 1 73 68
f 1 68 67
f 1 67 65
f 1 65 60
f 1 60 55
f 1 55 51
f 1 51 46
f 1 46 45
f 1 45 44
f 1 44 40
f 1 40 35
f 1 35 34
f 1 34 26
f 1 26 20
f 1 20 15
f 1 15 14
f 1 14 13
f 1 13 12
f 1 12 7
f 1 7 6
f 1 6 2
f 2 6 7
f 2 7 8
f 2 8 9
f 2 9 16
f 2 16 21
f 2 21 27
f 2 27 36
f 2 36 41
f 2 41 47
f 2 47 52
f 2 52 56
f 2 56 61
f 2 61 66
f 2 66 75
f 2 75 81
f 2 81 86
f 2 86 92
f 2 92 99
f 2 99 112
f 2 112 122
f 2 122 126
f 2 126 130
f 2 130 135
f 2 135 142
f 2 142 150
f 2 150 146
f 2 146 137
f 2 137 132
f 2 132 127
f 2 127 123
f 2 123 119
f 2 119 117
f 2 117 116
f 2 116 115
f 2 115 107
f 2 107 106
f 2 106 105
f 2 105 104
f 2 104 103
f 2 103 102
f 2 102 100
f 2 100 93
f 2 93 87
f 2 87 82
f 2 82 76
f 2 76 69
f 2 69 62
f 2 62 57
f 2 57 53
f 2 53 49
f 2 49 42
f 2 42 37
f 2 37 28
f 2 28 22
f 2 22 17
f 2 17 10
f 2 10 4
f 2 4 3
f 4 10 11
f 4 11 5
f 7 12 9
f 7 9 8
f 9 12 13
f 9 13 14
f 9 14 15
f 9 15 16
f 10 17 18
f 10 18 11
f 11 18 19
f 15 20 16
f 16 20 21
f 17 22 23
f 17 23 24
f 17 24 18
f 18 25 19
f 18 24 25
f 20 26 21
f 21 26 27
f 22 28 29
f 22 29 30
f 22 30 31
f 22 31 32
f 22 32 23
f 23 32 33
f 23 33 24
f 26 34 27
f 27 34 35
f 27 35 36
f 28 37 29
f 29 37 38
f 29 38 39
f 29 39 30
f 35 40 36
f 36 40 41
f 37 42 38
f 38 42 43
f 40 44 41
f 41 44 45
f 41 45 46
f 41 46 47
f 42 48 43
f 42 49 50
f 42 50 48
f 46 51 52
f 46 52 47
f 49 53 54
f 49 54 50
f 51 55 52
f 52 55 56
f 53 57 58
f 53 58 59
f 53 59 54
f 55 60 56
f 56 60 61
f 57 62 63
f 57 63 64
f 57 64 58
f 60 65 61
f 61 65 67
f 61 67 68
f 61 68 66
f 62 69 70
f 62 70 63
f 63 70 77
f 63 77 83
f 63 83 88
f 63 88 94
f 63 94 101
f 63 101 114
f 63 114 108
f 63 108 95
f 63 95 89
f 63 89 84
f 63 84 78
f 63 78 71
f 63 71 72
f 63 72 64
f 66 68 73
f 66 73 74
f 66 74 75
f 69 76 77
f 69 77 70
f 71 78 72
f 74 79 75
f 75 79 80
f 75 80 81
f 76 82 83
f 76 83 77
f 80 85 86
f 80 86 81
f 82 87 88
f 82 88 83
f 84 89 90
f 85 91 86
f 86 91 92
f 87 93 88
f 88 93 94
f 89 95 90
f 90 95 96
f 91 97 98
f 91 98 92
f 92 98 99
f 93 100 94
f 94 100 102
f 94 102 103
f 94 103 104
f 94 104 105
f 94 105 106
f 94 106 107
f 94 107 101
f 95 108 109
f 95 109 96
f 97 110 99
f 97 99 98
f 99 111 112
f 99 110 113
f 99 113 111
f 101 107 115
f 101 115 116
f 101 116 114
f 108 114 116
f 108 116 117
f 108 117 118
f 108 118 119
f 108 119 109
f 109 119 120
f 111 113 121
f 111 121 112
f 112 121 122
f 117 119 118
f 119 123 120
f 120 123 124
f 121 125 122
f 122 125 126
f 123 127 124
f 124 127 128
f 125 129 126
f 126 129 131
f 126 131 130
f 127 132 133
f 127 133 128
f 130 131 134
f 130 134 135
f 132 136 133
f 132 137 138
f 132 138 139
f 132 139 136
f 133 136 140
f 134 141 135
f 135 141 143
f 135 143 144
f 135 144 145
f 135 145 142
f 136 139 140
f 137 146 138
f 138 146 147
f 138 147 148
f 138 148 139
f 142 149 150
f 142 145 149
f 145 151 149
f 146 150 149
f 146 149 152
f 146 152 147
f 149 151 152
