v 0.106954 0.689171 0.00816608
v 0.104002 0.766536 0.00772636
v 0.101845 0.766536 0.023221
v 0.104546 0.689171 0.0231582
v 0.106849 0.689171 -0.0078939
v 0.103918 0.766536 -0.00772639
v 0.0982225 0.778543 0.00772636
v 0.0972593 0.778314 0.023221
v 0.0981806 0.778543 -0.00772639
v 0.0951445 0.776829 0.0386947
v 0.0934904 0.775133 0.0474471
v 0.0974059 0.766536 0.0386947
v 0.0999813 0.689171 0.0386528
v 0.106724 0.689171 -0.00883614
v 0.101991 0.766536 -0.023221
v 0.097364 0.778424 -0.023221
v 0.0851569 0.782805 0.00772636
v 0.0851569 0.782576 0.023221
v 0.0851569 0.782805 -0.00772639
v 0.0851569 0.781082 0.0386947
v 0.0851569 0.782686 -0.023221
v 0.0850522 0.77791 0.0532471
v 0.0938045 0.766536 0.0479496
v 0.0798176 0.776636 0.064889
v 0.0810111 0.766536 0.0663547
v 0.0887583 0.766536 0.0556969
v 0.0951027 0.689171 0.0500853
v 0.104609 0.689171 -0.0232629
v 0.0972593 0.766536 -0.0386947
v 0.0932391 0.774757 -0.0471121
v 0.0950817 0.776655 -0.0386947
v 0.0851569 0.780907 -0.0386947
v 0.0696834 0.782805 0.0386947
v 0.0696834 0.782438 0.0541893
v 0.0696834 0.782805 -0.0386947
v 0.0696834 0.782383 -0.0541893
v 0.0698509 0.778772 0.0698933
v 0.0902031 0.689171 0.0578745
v 0.0648256 0.776563 0.079923
v 0.0739967 0.766536 0.074102
v 0.0758393 0.689171 0.0758609
v 0.0824977 0.689171 0.0680717
v 0.0998348 0.689171 -0.0387366
v 0.0934066 0.766536 -0.0474471
v 0.0889258 0.766536 -0.0551735
v 0.0811786 0.766536 -0.066271
v 0.0799223 0.776563 -0.0648262
v 0.085115 0.777645 -0.0530377
v 0.0698927 0.778772 -0.0698515
v 0.0386944 0.782805 0.069684
v 0.0541889 0.782383 0.069684
v 0.0541889 0.782438 -0.069684
v 0.0386944 0.782805 -0.069684
v 0.0386944 0.780907 0.0851576
v 0.0530373 0.777645 0.0851158
v 0.0471117 0.774757 0.09324
v 0.0662704 0.766536 0.0811793
v 0.068113 0.689171 0.0827497
v 0.0947467 0.689171 -0.0501901
v 0.0904962 0.689171 -0.0579374
v 0.082749 0.689171 -0.0681136
v 0.0758393 0.689171 -0.0758609
v 0.0741014 0.766536 -0.0739973
v 0.0648884 0.776636 -0.0798183
v 0.0532466 0.77791 -0.085053
v 0.0077264 0.782805 0.0851576
v 0.0232209 0.782686 0.0851576
v 0.0386944 0.781091 -0.0851577
v 0.0232209 0.782576 -0.0851577
v 0.0077264 0.782805 -0.0851577
v 0.0232209 0.778424 0.0973649
v 0.0386944 0.776655 0.0950826
v 0.0232209 0.766536 0.101992
v 0.0386944 0.766536 0.0972602
v 0.0474258 0.766536 0.0934075
v 0.055173 0.766536 0.0889266
v 0.057895 0.689171 0.0905179
v 0.0680711 0.689171 -0.0824985
v 0.0663541 0.766536 -0.0810118
v 0.0474467 0.775133 -0.0934913
v 0.0386944 0.776829 -0.0951454
v -0.00772619 0.782805 0.0851576
v -0.00772619 0.778543 0.0982234
v 0.0077264 0.778543 0.0981815
v 0.0232209 0.778314 -0.0972602
v 0.0077264 0.778543 -0.0982234
v -0.00772619 0.782805 -0.0851577
v 0.0077264 0.766536 0.103919
v 0.00789391 0.689171 0.10685
v 0.00883614 0.689171 0.106724
v 0.0232209 0.689171 0.104631
v 0.0386944 0.689171 0.0998566
v 0.0501896 0.689171 0.0947476
v 0.0578322 0.689171 -0.0902248
v 0.0556964 0.766536 -0.0887591
v 0.0479492 0.766536 -0.0938053
v 0.0386944 0.766536 -0.0974068
v 0.0232209 0.766536 -0.101846
v -0.0386942 0.782805 0.069684
v -0.0232207 0.782576 0.0851576
v -0.0232207 0.778314 0.0972602
v -0.00772619 0.766536 0.104002
v 0.0077264 0.766536 -0.104002
v -0.00772619 0.778543 -0.0981815
v -0.0232207 0.782686 -0.0851577
v -0.0386942 0.782805 -0.069684
v -0.0081659 0.689171 0.106955
v 0.0500849 0.689171 -0.0951035
v 0.0386525 0.689171 -0.0999823
v 0.0231581 0.689171 -0.104547
v 0.00816611 0.689171 -0.106955
v -0.0541887 0.782438 0.069684
v -0.0696831 0.782805 0.0386947
v -0.0386942 0.781082 0.0851576
v -0.0386942 0.776829 0.0951454
v -0.0232207 0.766536 0.101846
v -0.00772619 0.766536 -0.103919
v -0.0232207 0.778424 -0.0973649
v -0.0386942 0.780907 -0.0851577
v -0.0541887 0.782383 -0.069684
v -0.0696831 0.782438 -0.0541893
v -0.0696831 0.782805 -0.0386947
v -0.0232207 0.689171 0.104568
v -0.0078937 0.689171 -0.10685
v -0.0698925 0.778772 0.0698515
v -0.0532464 0.77791 0.0850529
v -0.0696831 0.782383 0.0541893
v -0.0851567 0.782805 0.00772636
v -0.0851567 0.782686 0.023221
v -0.0474465 0.775133 0.0934912
v -0.0386942 0.766536 0.0974068
v -0.0232207 0.766536 -0.101992
v -0.0386942 0.776655 -0.0950826
v -0.0530371 0.777645 -0.0851158
v -0.0698507 0.778772 -0.0698934
v -0.085052 0.77791 -0.0532471
v -0.0851567 0.781082 -0.0386947
v -0.0851567 0.782576 -0.023221
v -0.0851567 0.782805 -0.00772639
v -0.0386942 0.689171 0.100129
v -0.00883593 0.689171 -0.106725
v -0.0648673 0.776636 0.0798183
v -0.0851567 0.780907 0.0386947
v -0.0851148 0.777645 0.0530377
v -0.0799221 0.776563 0.0648262
v -0.0981804 0.778543 0.00772636
v -0.0982223 0.778543 -0.00772639
v -0.0973638 0.778424 0.023221
v -0.047949 0.766536 0.0938053
v -0.0663539 0.766536 0.0810118
v -0.0556962 0.766536 0.0887591
v -0.0232625 0.689171 -0.10461
v -0.0386942 0.766536 -0.0972602
v -0.0471115 0.774757 -0.09324
v -0.0648254 0.776563 -0.079923
v -0.0798174 0.776636 -0.0648681
v -0.0934902 0.775133 -0.0474471
v -0.0951443 0.776829 -0.0386947
v -0.0972591 0.778314 -0.023221
v -0.0502732 0.689171 0.0952082
v -0.0741012 0.766536 0.0739973
v -0.0950815 0.776655 0.0386947
v -0.0932389 0.774757 0.047112
v -0.0811784 0.766536 0.0662709
v -0.103918 0.766536 0.00772636
v -0.104001 0.766536 -0.00772639
v -0.101991 0.766536 0.023221
v -0.0580204 0.689171 0.0903086
v -0.0681128 0.689171 0.0825822
v -0.07586 0.689171 0.0758399
v -0.0387361 0.689171 -0.0998357
v -0.0474255 0.766536 -0.0934075
v -0.0551728 0.766536 -0.0889266
v -0.0662702 0.766536 -0.0811793
v -0.0739965 0.766536 -0.074102
v -0.0810109 0.766536 -0.0663547
v -0.0938043 0.766536 -0.0479496
v -0.0974057 0.766536 -0.0386947
v -0.101845 0.766536 -0.023221
v -0.0887581 0.766536 -0.0556969
v -0.0934064 0.766536 0.0474261
v -0.0889256 0.766536 0.0551734
v -0.0972591 0.766536 0.0386947
v -0.0827697 0.689171 0.0680926
v -0.0905169 0.689171 0.0578955
v -0.106849 0.689171 0.00789387
v -0.106954 0.689171 -0.0081661
v -0.106723 0.689171 0.00883612
v -0.104629 0.689171 0.023221
v -0.0501894 0.689171 -0.0947476
v -0.0578948 0.689171 -0.090518
v -0.0681128 0.689171 -0.0827497
v -0.0758391 0.689171 -0.0758609
v -0.0824975 0.689171 -0.0680717
v -0.0902028 0.689171 -0.0578746
v -0.0999811 0.689171 -0.0386947
v -0.0951025 0.689171 -0.0500854
v -0.104546 0.689171 -0.023221
v -0.0947674 0.689171 0.0501691
v -0.0998555 0.689171 0.0386947
f 1 2 3
f 1 3 4
f 1 4 13
f 1 13 27
f 1 27 38
f 1 38 42
f 1 42 41
f 1 41 58
f 1 58 77
f 1 77 93
f 1 93 92
f 1 92 91
f 1 91 90
f 1 90 89
f 1 89 107
f 1 107 123
f 1 123 140
f 1 140 160
f 1 160 168
f 1 168 169
f 1 169 170
f 1 170 184
f 1 184 185
f 1 185 199
f 1 199 200
f 1 200 189
f 1 189 188
f 1 188 186
f 1 186 187
f 1 187 198
f 1 198 196
f 1 196 197
f 1 197 195
f 1 195 194
f 1 194 193
f 1 193 192
f 1 192 191
f 1 191 190
f 1 190 171
f 1 171 152
f 1 152 141
f 1 141 124
f 1 124 111
f 1 111 110
f 1 110 109
f 1 109 108
f 1 108 94
f 1 94 78
f 1 78 62
f 1 62 61
f 1 61 60
f 1 60 59
f 1 59 43
f 1 43 28
f 1 28 14
f 1 14 5
f 1 5 6
f 1 6 2
f 2 7 8
f 2 8 3
f 2 6 9
f 2 9 7
f 3 8 10
f 3 10 11
f 3 11 12
f 3 12 4
f 4 12 13
f 5 14 15
f 5 15 6
f 6 15 16
f 6 16 9
f 7 17 18
f 7 18 8
f 7 9 19
f 7 19 17
f 8 18 20
f 8 20 10
f 9 16 21
f 9 21 19
f 10 20 22
f 10 22 11
f 11 23 12
f 11 22 24
f 11 24 25
f 11 25 26
f 11 26 23
f 12 23 13
f 13 23 27
f 14 28 15
f 15 28 29
f 15 29 30
f 15 30 31
f 15 31 16
f 16 31 32
f 16 32 21
f 17 33 18
f 17 19 35
f 17 35 53
f 17 53 70
f 17 70 87
f 17 87 106
f 17 106 122
f 17 122 139
f 17 139 128
f 17 128 113
f 17 113 99
f 17 99 82
f 17 82 66
f 17 66 50
f 17 50 33
f 18 33 34
f 18 34 20
f 19 21 35
f 20 34 22
f 21 32 36
f 21 36 35
f 22 34 37
f 22 37 24
f 23 26 38
f 23 38 27
f 24 37 39
f 24 39 40
f 24 40 25
f 25 40 41
f 25 41 42
f 25 42 38
f 25 38 26
f 28 43 29
f 29 43 44
f 29 44 30
f 30 44 45
f 30 45 46
f 30 46 47
f 30 47 48
f 30 48 31
f 31 48 32
f 32 48 49
f 32 49 36
f 33 50 34
f 34 50 51
f 34 51 37
f 35 36 52
f 35 52 53
f 36 49 52
f 37 51 54
f 37 54 55
f 37 55 39
f 39 55 56
f 39 56 57
f 39 57 40
f 40 57 41
f 41 57 58
f 43 59 44
f 44 59 60
f 44 60 45
f 45 60 46
f 46 60 61
f 46 61 62
f 46 62 63
f 46 63 47
f 47 63 64
f 47 64 49
f 47 49 48
f 49 64 65
f 49 65 52
f 50 66 67
f 50 67 51
f 51 67 54
f 52 65 68
f 52 68 69
f 52 69 53
f 53 69 70
f 54 67 71
f 54 71 72
f 54 72 55
f 55 72 56
f 56 72 73
f 56 73 74
f 56 74 75
f 56 75 76
f 56 76 57
f 57 76 77
f 57 77 58
f 62 78 79
f 62 79 63
f 63 79 64
f 64 79 80
f 64 80 65
f 65 80 81
f 65 81 68
f 66 82 83
f 66 83 84
f 66 84 67
f 67 84 71
f 68 81 85
f 68 85 69
f 69 85 86
f 69 86 70
f 70 86 87
f 71 84 88
f 71 88 73
f 71 73 72
f 73 88 89
f 73 89 90
f 73 90 91
f 73 91 74
f 74 91 92
f 74 92 75
f 75 93 77
f 75 77 76
f 75 92 93
f 78 94 79
f 79 94 95
f 79 95 80
f 80 96 97
f 80 97 98
f 80 98 81
f 80 95 96
f 81 98 85
f 82 99 100
f 82 100 83
f 83 101 102
f 83 102 84
f 83 100 101
f 84 102 88
f 85 98 103
f 85 103 86
f 86 103 104
f 86 104 87
f 87 105 106
f 87 104 105
f 88 102 107
f 88 107 89
f 94 108 96
f 94 96 95
f 96 108 109
f 96 109 97
f 97 109 110
f 97 110 98
f 98 110 111
f 98 111 103
f 99 112 100
f 99 113 112
f 100 112 114
f 100 114 101
f 101 115 116
f 101 116 102
f 101 114 115
f 102 116 107
f 103 111 117
f 103 117 104
f 104 117 118
f 104 118 105
f 105 119 120
f 105 120 106
f 105 118 119
f 106 120 121
f 106 121 122
f 107 116 123
f 111 124 117
f 112 125 126
f 112 126 114
f 112 113 127
f 112 127 125
f 113 128 129
f 113 129 127
f 114 126 115
f 115 130 116
f 115 126 130
f 116 130 131
f 116 131 140
f 116 140 123
f 117 124 132
f 117 132 118
f 118 132 133
f 118 133 119
f 119 134 135
f 119 135 120
f 119 133 134
f 120 135 121
f 121 136 137
f 121 137 138
f 121 138 122
f 121 135 136
f 122 138 139
f 124 141 132
f 125 142 126
f 125 127 143
f 125 143 144
f 125 144 145
f 125 145 142
f 126 142 130
f 127 129 143
f 128 146 129
f 128 139 147
f 128 147 146
f 129 146 148
f 129 148 143
f 130 149 131
f 130 142 150
f 130 150 151
f 130 151 149
f 131 149 140
f 132 141 152
f 132 152 153
f 132 153 154
f 132 154 133
f 133 154 134
f 134 155 135
f 134 154 155
f 135 155 156
f 135 156 136
f 136 156 157
f 136 157 158
f 136 158 137
f 137 158 159
f 137 159 138
f 138 159 147
f 138 147 139
f 140 149 160
f 142 161 150
f 142 145 161
f 143 148 162
f 143 162 144
f 144 162 163
f 144 163 145
f 145 163 164
f 145 164 161
f 146 165 148
f 146 147 166
f 146 166 165
f 147 159 166
f 148 165 167
f 148 167 162
f 149 151 168
f 149 168 160
f 150 169 168
f 150 168 151
f 150 161 170
f 150 170 169
f 152 171 153
f 153 172 154
f 153 171 172
f 154 172 173
f 154 173 174
f 154 174 155
f 155 174 175
f 155 175 156
f 156 175 176
f 156 176 157
f 157 177 178
f 157 178 179
f 157 179 158
f 157 176 180
f 157 180 177
f 158 179 159
f 159 179 166
f 161 164 170
f 162 167 163
f 163 181 182
f 163 182 164
f 163 167 183
f 163 183 181
f 164 184 170
f 164 182 185
f 164 185 184
f 165 186 167
f 165 166 187
f 165 187 186
f 166 179 187
f 167 186 188
f 167 188 189
f 167 189 183
f 171 190 172
f 172 191 173
f 172 190 191
f 173 191 174
f 174 192 193
f 174 193 175
f 174 191 192
f 175 193 176
f 176 193 194
f 176 194 195
f 176 195 180
f 177 196 178
f 177 180 195
f 177 195 197
f 177 197 196
f 178 196 198
f 178 198 179
f 179 198 187
f 181 199 185
f 181 185 182
f 181 183 200
f 181 200 199
f 183 189 200
