v -0.02831 0.587112 0.140741
v -0.02831 0.495027 0.140741
v -0.02831 0.584895 0.142104
v 0.00774882 0.583002 0.140741
v -0.02831 0.495027 0.187552
v 0.12647 0.495027 0.140741
v -0.02831 0.581181 0.144377
v 0.00774882 0.495027 0.189749
v 0.0232329 0.495027 0.18832
v 0.0232329 0.578963 0.140741
v -0.0232193 0.495027 0.188114
v 0.094896 0.527688 0.140741
v 0.117395 0.495027 0.1488
v -0.0118866 0.495027 0.188838
v -0.00773525 0.495027 0.189102
v 0.0376867 0.495027 0.185509
v 0.0542617 0.495027 0.181906
v 0.0397169 0.571832 0.140741
v 0.0943809 0.528192 0.140741
v 0.109516 0.495027 0.155565
v 0.0700336 0.495027 0.17638
v 0.0433077 0.570255 0.140741
v 0.108001 0.495027 0.156553
v 0.0683519 0.550098 0.140741
v 0.0848207 0.495027 0.169232
v 0.0541859 0.561988 0.140741
v 0.101032 0.495027 0.160707
v 0.0658217 0.552225 0.140741
f 1 2 5
f 1 5 7
f 1 7 3
f 1 3 4
f 1 4 10
f 1 10 18
f 1 18 22
f 1 22 26
f 1 26 28
f 1 28 24
f 1 24 19
f 1 19 12
f 1 12 6
f 1 6 2
f 2 6 13
f 2 13 20
f 2 20 23
f 2 23 27
f 2 27 25
f 2 25 21
f 2 21 17
f 2 17 16
f 2 16 9
f 2 9 8
f 2 8 15
f 2 15 14
f 2 14 11
f 2 11 5
f 3 7 4
f 4 8 9
f 4 9 10
f 4 7 8
f 5 11 7
f 6 12 13
f 7 11 14
f 7 14 15
f 7 15 8
f 9 16 10
f 10 16 17
f 10 17 18
f 12 19 20
f 12 20 13
f 17 21 22
f 17 22 18
f 19 23 20
f 19 24 23
f 21 25 22
f 22 25 26
f 23 24 28
f 23 28 26
f 23 26 27
f 25 27 26
