v -0.00772586 0.495039 -0.189749
v 0.00772756 0.495039 -0.189102
v -0.0197988 0.495039 -0.188616
v -0.00772586 0.618598 -0.126666
v 0.00772756 0.618598 -0.126569
v 0.0232181 0.495039 -0.188099
v -0.0232164 0.495039 -0.188293
v -0.0155269 0.618598 -0.125857
v 0.0204321 0.618598 -0.12521
v 0.0338424 0.495039 -0.186934
v -0.0235879 0.618598 -0.124628
v -0.0202075 0.618598 -0.125242
v -0.0376669 0.495039 -0.185511
v 0.0293103 0.618598 -0.12356
v 0.0429807 0.495039 -0.184799
v -0.0288257 0.618598 -0.123431
v -0.0542347 0.495039 -0.181887
v 0.0396002 0.618598 -0.120519
v 0.0541621 0.495039 -0.181402
v -0.0292343 0.618598 -0.123334
v -0.038707 0.618598 -0.120843
v -0.0700225 0.495039 -0.176356
v 0.0472527 0.618598 -0.117511
v 0.0804627 0.495039 -0.172085
v 0.0699499 0.495039 -0.176097
v 0.062929 0.495039 -0.178555
v -0.053566 0.618598 -0.115052
v -0.0848072 0.495039 -0.169206
v 0.0542364 0.618598 -0.114696
v 0.0847718 0.495039 -0.169821
v 0.063932 0.618598 -0.109714
v -0.0640045 0.618598 -0.109585
v -0.101004 0.495039 -0.160698
v 0.0889695 0.495039 -0.167589
v 0.0715844 0.618598 -0.104732
v 0.100002 0.495039 -0.16073
v -0.0717312 0.618598 -0.104765
v -0.107987 0.495039 -0.156525
v 0.0827658 0.618598 -0.0963859
v 0.115939 0.495039 -0.149958
v 0.112967 0.495039 -0.152028
v -0.0766719 0.618598 -0.101174
v -0.10951 0.495039 -0.155554
v 0.0876321 0.618598 -0.0917922
v 0.126563 0.495039 -0.142
v -0.0825784 0.618598 -0.0963212
v -0.117386 0.495039 -0.148793
v 0.0898239 0.618598 -0.0896247
v 0.129832 0.495039 -0.138571
v -0.0896364 0.618598 -0.0898188
v -0.130313 0.495039 -0.137438
v -0.133879 0.495039 -0.134236
v 0.0929071 0.618598 -0.0862926
v 0.134215 0.495039 -0.13388
v -0.091791 0.618598 -0.087619
v -0.13856 0.495039 -0.129836
v -0.141977 0.495039 -0.126569
v 0.0963247 0.618598 -0.0825724
v 0.137447 0.495039 -0.130321
v -0.0963601 0.618598 -0.0827665
v -0.149964 0.495039 -0.115958
v 0.101154 0.618598 -0.0766523
v 0.155538 0.495039 -0.109488
v 0.148777 0.495039 -0.117381
v -0.104755 0.618598 -0.0715733
v -0.152007 0.495039 -0.112949
v 0.104757 0.618598 -0.071735
v 0.156541 0.495039 -0.108
v -0.109696 0.618598 -0.0639063
v -0.160737 0.495039 -0.100009
v 0.109586 0.618598 -0.0640357
v 0.160702 0.495039 -0.101012
v -0.114711 0.618598 -0.0542336
v -0.167609 0.495039 -0.0889777
v -0.172104 0.495039 -0.0804696
v 0.115047 0.618598 -0.0535866
v 0.167351 0.495039 -0.088363
v -0.117534 0.618598 -0.0472783
v -0.176116 0.495039 -0.0699558
v -0.120506 0.618598 -0.0396113
v 0.120842 0.618598 -0.0387055
v 0.176378 0.495039 -0.0700205
v 0.169208 0.495039 -0.0848045
v -0.178568 0.495039 -0.0629034
v -0.123589 0.618598 -0.0291945
v -0.181391 0.495039 -0.0541689
v -0.184772 0.495039 -0.0429757
v 0.123331 0.618598 -0.0292269
v 0.181876 0.495039 -0.0542336
v -0.125187 0.618598 -0.02046
v -0.18544 0.495039 -0.0401936
v -0.186926 0.495039 -0.0338529
v 0.124631 0.618598 -0.0236303
v 0.185479 0.495039 -0.0376703
v -0.126561 0.618598 -0.00774633
v -0.188115 0.495039 -0.0232421
v 0.125226 0.618598 -0.0202659
v 0.188302 0.495039 -0.0232421
v -0.126635 0.618598 0.00771707
v -0.188821 0.495039 -0.0119195
v -0.189081 0.495039 -0.00774633
v -0.189749 0.495039 0.00771707
v 0.125857 0.618598 -0.0155751
v 0.189751 0.495039 -0.00774633
v 0.126637 0.618598 -0.00774633
v -0.125855 0.618598 0.0155458
v -0.188301 0.495039 0.0232128
v 0.189082 0.495039 0.00771707
v 0.126563 0.618598 0.00771707
v -0.125224 0.618598 0.0202042
v -0.185477 0.495039 0.0376734
v -0.124629 0.618598 0.0235687
v 0.188822 0.495039 0.0118902
v 0.125188 0.618598 0.0204307
v 0.188079 0.495039 0.0232128
v -0.181874 0.495039 0.0542367
v -0.123441 0.618598 0.0288418
v 0.123591 0.618598 0.0291976
v 0.186928 0.495039 0.033856
v -0.176376 0.495039 0.0700236
v -0.0967688 0.618598 0.140741
v 0.120508 0.618598 0.0396144
v 0.184773 0.495039 0.0429788
v 0.185442 0.495039 0.0401967
v -0.169207 0.495039 0.0848076
v -0.0330606 0.618598 0.140741
v -0.167349 0.495039 0.0883661
v -0.1607 0.495039 0.101015
v -0.156539 0.495039 0.108003
v -0.155536 0.495039 0.109491
v -0.148775 0.495039 0.117384
v -0.137445 0.495039 0.130324
v -0.134214 0.495039 0.133851
v -0.12983 0.495039 0.138574
v -0.127787 0.495039 0.140741
v 0.117536 0.618598 0.0472814
v 0.172106 0.495039 0.0804403
v 0.176118 0.495039 0.0699589
v 0.178532 0.495039 0.0629065
v 0.181393 0.495039 0.054172
v 0.0432779 0.570251 0.140741
v 0.0455067 0.572561 0.139156
v 0.0387087 0.618598 0.120846
v 0.126451 0.495039 0.140741
v 0.114713 0.618598 0.0542367
v 0.167611 0.495039 0.0889808
v 0.109698 0.618598 0.0639094
v 0.0541993 0.56199 0.140741
v 0.0658265 0.55224 0.140741
v 0.0935758 0.528859 0.140741
v 0.0535678 0.618598 0.115055
v 0.130315 0.495039 0.137441
v 0.0825801 0.618598 0.0963243
v 0.0766736 0.618598 0.101177
v 0.071733 0.618598 0.104768
v 0.0640062 0.618598 0.109588
v 0.0948759 0.527686 0.140741
v 0.160739 0.495039 0.100012
v 0.104757 0.618598 0.0715764
v 0.0943559 0.528194 0.140741
v 0.133844 0.495039 0.134239
v 0.0896381 0.618598 0.0898219
v 0.152009 0.495039 0.112952
v 0.0963618 0.618598 0.0827695
v 0.149966 0.495039 0.115961
v 0.138562 0.495039 0.129839
v 0.0917927 0.618598 0.0876221
v 0.141979 0.495039 0.126572
f 1 2 6
f 1 6 10
f 1 10 15
f 1 15 19
f 1 19 26
f 1 26 25
f 1 25 24
f 1 24 30
f 1 30 34
f 1 34 36
f 1 36 41
f 1 41 40
f 1 40 45
f 1 45 49
f 1 49 54
f 1 54 59
f 1 59 64
f 1 64 63
f 1 63 68
f 1 68 72
f 1 72 77
f 1 77 83
f 1 83 82
f 1 82 89
f 1 89 94
f 1 94 98
f 1 98 104
f 1 104 108
f 1 108 113
f 1 113 115
f 1 115 119
f 1 119 124
f 1 124 123
f 1 123 140
f 1 140 139
f 1 139 138
f 1 138 137
f 1 137 146
f 1 146 158
f 1 158 163
f 1 163 165
f 1 165 168
f 1 168 166
f 1 166 161
f 1 161 152
f 1 152 144
f 1 144 135
f 1 135 134
f 1 134 133
f 1 133 132
f 1 132 131
f 1 131 130
f 1 130 129
f 1 129 128
f 1 128 127
f 1 127 125
f 1 125 120
f 1 120 116
f 1 116 111
f 1 111 107
f 1 107 102
f 1 102 101
f 1 101 100
f 1 100 96
f 1 96 92
f 1 92 91
f 1 91 87
f 1 87 86
f 1 86 84
f 1 84 79
f 1 79 75
f 1 75 74
f 1 74 70
f 1 70 66
f 1 66 61
f 1 61 57
f 1 57 56
f 1 56 52
f 1 52 51
f 1 51 47
f 1 47 43
f 1 43 38
f 1 38 33
f 1 33 28
f 1 28 22
f 1 22 17
f 1 17 13
f 1 13 7
f 1 7 3
f 1 3 4
f 1 4 5
f 1 5 2
f 2 5 6
f 3 7 4
f 4 7 8
f 4 8 12
f 4 12 11
f 4 11 16
f 4 16 20
f 4 20 21
f 4 21 27
f 4 27 32
f 4 32 37
f 4 37 42
f 4 42 46
f 4 46 50
f 4 50 55
f 4 55 60
f 4 60 65
f 4 65 69
f 4 69 73
f 4 73 78
f 4 78 80
f 4 80 85
f 4 85 90
f 4 90 95
f 4 95 99
f 4 99 106
f 4 106 110
f 4 110 112
f 4 112 117
f 4 117 121
f 4 121 126
f 4 126 143
f 4 143 151
f 4 151 156
f 4 156 155
f 4 155 154
f 4 154 153
f 4 153 162
f 4 162 167
f 4 167 164
f 4 164 159
f 4 159 147
f 4 147 145
f 4 145 136
f 4 136 122
f 4 122 118
f 4 118 114
f 4 114 109
f 4 109 105
f 4 105 103
f 4 103 97
f 4 97 93
f 4 93 88
f 4 88 81
f 4 81 76
f 4 76 71
f 4 71 67
f 4 67 62
f 4 62 58
f 4 58 53
f 4 53 48
f 4 48 44
f 4 44 39
f 4 39 35
f 4 35 31
f 4 31 29
f 4 29 23
f 4 23 18
f 4 18 14
f 4 14 9
f 4 9 5
f 5 9 6
f 6 9 10
f 7 11 12
f 7 12 8
f 7 13 11
f 9 14 10
f 10 14 15
f 11 13 17
f 11 17 16
f 14 18 15
f 15 18 19
f 16 17 20
f 17 21 20
f 17 22 21
f 18 23 24
f 18 24 25
f 18 25 26
f 18 26 19
f 21 22 27
f 22 28 27
f 23 29 24
f 24 29 31
f 24 31 30
f 27 28 32
f 28 33 32
f 30 31 34
f 31 35 36
f 31 36 34
f 32 33 38
f 32 38 37
f 35 39 40
f 35 40 41
f 35 41 36
f 37 38 43
f 37 43 42
f 39 44 45
f 39 45 40
f 42 43 46
f 43 47 46
f 44 48 45
f 45 48 49
f 46 47 51
f 46 51 52
f 46 52 50
f 48 53 54
f 48 54 49
f 50 52 56
f 50 56 57
f 50 57 55
f 53 58 54
f 54 58 59
f 55 57 60
f 57 61 60
f 58 62 63
f 58 63 64
f 58 64 59
f 60 61 65
f 61 66 65
f 62 67 63
f 63 67 68
f 65 66 70
f 65 70 69
f 67 71 68
f 68 71 72
f 69 70 74
f 69 74 75
f 69 75 73
f 71 76 77
f 71 77 72
f 73 75 78
f 75 79 80
f 75 80 78
f 76 81 82
f 76 82 83
f 76 83 77
f 79 84 80
f 80 84 86
f 80 86 87
f 80 87 85
f 81 88 89
f 81 89 82
f 85 87 91
f 85 91 92
f 85 92 90
f 88 93 89
f 89 93 94
f 90 92 96
f 90 96 95
f 93 97 98
f 93 98 94
f 95 96 100
f 95 100 101
f 95 101 102
f 95 102 99
f 97 103 98
f 98 103 105
f 98 105 104
f 99 102 107
f 99 107 106
f 104 105 109
f 104 109 108
f 106 107 110
f 107 111 112
f 107 112 110
f 108 109 113
f 109 114 115
f 109 115 113
f 111 116 112
f 112 116 117
f 114 118 119
f 114 119 115
f 116 120 121
f 116 121 117
f 118 122 123
f 118 123 124
f 118 124 119
f 120 125 121
f 121 125 127
f 121 127 128
f 121 128 129
f 121 129 130
f 121 130 131
f 121 131 132
f 121 132 133
f 121 133 134
f 121 134 135
f 121 135 144
f 121 144 157
f 121 157 160
f 121 160 150
f 121 150 149
f 121 149 148
f 121 148 141
f 121 141 126
f 122 136 137
f 122 137 138
f 122 138 139
f 122 139 140
f 122 140 123
f 126 141 142
f 126 142 143
f 136 145 137
f 137 145 147
f 137 147 146
f 141 148 142
f 142 148 143
f 143 148 149
f 143 149 150
f 143 150 151
f 144 152 153
f 144 153 154
f 144 154 155
f 144 155 156
f 144 156 157
f 146 147 158
f 147 159 158
f 150 160 151
f 151 160 157
f 151 157 156
f 152 161 153
f 153 161 162
f 158 159 163
f 159 164 165
f 159 165 163
f 161 166 162
f 162 166 168
f 162 168 167
f 164 167 168
f 164 168 165
