v -0.120885 0.576546 0.233503
v -0.11339 0.576546 0.235629
v -0.12689 0.576546 0.234368
v -0.100587 0.626855 0.189815
v -0.0689279 0.621843 0.189815
v -0.0664767 0.621898 0.189815
v -0.100398 0.576546 0.240781
v -0.129549 0.576546 0.235734
v -0.11239 0.631769 0.189815
v -0.0600374 0.624207 0.189815
v -0.0905648 0.576546 0.245874
v -0.1386 0.576546 0.24397
v -0.116246 0.640251 0.189815
v -0.0577088 0.627753 0.189815
v -0.086294 0.576546 0.255511
v -0.140127 0.576546 0.246049
v -0.116708 0.642658 0.189815
v -0.0541356 0.642658 0.189815
v -0.0875573 0.576546 0.271
v -0.143012 0.576546 0.252941
v -0.117 0.654379 0.189815
v -0.0541262 0.658144 0.189815
v -0.0556818 0.642658 0.193577
v -0.0635917 0.658144 0.212804
v -0.0777146 0.642658 0.2471
v -0.0875573 0.627184 0.271
v -0.0887075 0.576546 0.273792
v -0.144068 0.576546 0.255511
v -0.144068 0.627184 0.255511
v -0.140127 0.642658 0.245932
v -0.140127 0.627184 0.245932
v -0.131321 0.642658 0.224544
v -0.117019 0.658144 0.189815
v -0.056304 0.673608 0.189815
v -0.0568414 0.67363 0.193577
v -0.0604994 0.67363 0.204908
v -0.074528 0.658144 0.239356
v -0.0875856 0.642658 0.271
v -0.0918375 0.611698 0.281373
v -0.0950241 0.580726 0.289118
v -0.0950241 0.576546 0.289118
v -0.150431 0.576546 0.271
v -0.150431 0.580726 0.271
v -0.150337 0.596212 0.271
v -0.143304 0.642658 0.255511
v -0.139872 0.653767 0.246551
v -0.131321 0.658144 0.224544
v -0.116604 0.673728 0.189815
v -0.0600563 0.682943 0.189815
v -0.0599809 0.683086 0.193577
v -0.0610462 0.682396 0.203611
v -0.0749051 0.67363 0.237779
v -0.0777335 0.658144 0.2471
v -0.0918658 0.642658 0.280544
v -0.0918375 0.627184 0.281233
v -0.0950901 0.596212 0.289118
v -0.0965986 0.576546 0.292575
v -0.150186 0.576546 0.287015
v -0.149451 0.611698 0.271
v -0.140957 0.654423 0.255511
v -0.146632 0.627184 0.271
v -0.124694 0.682144 0.214253
v -0.125551 0.67363 0.212314
v -0.122516 0.67363 0.204569
v -0.118141 0.67363 0.193577
v -0.112315 0.684399 0.189815
v -0.0666369 0.685066 0.189815
v -0.0696915 0.686226 0.193577
v -0.0690693 0.684837 0.208891
v -0.0736418 0.684169 0.224544
v -0.0759988 0.682637 0.234893
v -0.0922335 0.651622 0.279586
v -0.106092 0.576546 0.307808
v -0.104122 0.576546 0.305051
v -0.0957501 0.611698 0.289118
v -0.144718 0.576546 0.297283
v -0.14551 0.611698 0.284106
v -0.140975 0.652388 0.265148
v -0.124694 0.682144 0.220525
v -0.142691 0.627184 0.281256
v -0.142437 0.641597 0.270579
v -0.117019 0.684421 0.209078
v -0.11306 0.684826 0.193577
v -0.100662 0.688218 0.193577
v -0.100935 0.687376 0.189815
v -0.0697481 0.685581 0.189815
v -0.085172 0.687266 0.189815
v -0.085172 0.68789 0.193577
v -0.085172 0.68835 0.209066
v -0.085172 0.686642 0.224544
v -0.085172 0.683228 0.236762
v -0.0907345 0.667786 0.26551
v -0.100662 0.652169 0.280146
v -0.105517 0.623966 0.296045
v -0.103481 0.611698 0.298077
v -0.113239 0.576546 0.309139
v -0.138336 0.576546 0.300857
v -0.132019 0.612781 0.292178
v -0.140231 0.635731 0.279305
v -0.131623 0.64604 0.275439
v -0.131623 0.654817 0.267694
v -0.128502 0.668355 0.251329
v -0.130001 0.67131 0.240033
v -0.116699 0.68325 0.225233
v -0.100662 0.68801 0.209066
v -0.122233 0.680973 0.230852
v -0.0969097 0.687507 0.189815
v -0.100662 0.685603 0.224544
v -0.100662 0.682735 0.235898
v -0.100662 0.679605 0.243643
v -0.100662 0.673597 0.255511
v -0.100662 0.667622 0.265335
v -0.100662 0.659906 0.273079
v -0.11091 0.651534 0.279773
v -0.112956 0.623966 0.296045
v -0.118961 0.576546 0.307773
v -0.132179 0.576546 0.303194
v -0.11733 0.612781 0.2981
v -0.123279 0.618669 0.293977
v -0.131623 0.627184 0.286945
v -0.11733 0.628344 0.2924
v -0.131623 0.638292 0.281163
v -0.116095 0.643315 0.283884
v -0.121233 0.648918 0.2776
v -0.119989 0.664612 0.261655
v -0.115351 0.669723 0.256095
v -0.116699 0.678533 0.239356
v -0.111909 0.68198 0.233737
v -0.109666 0.666297 0.263769
v -0.122007 0.576546 0.30685
f 1 2 7
f 1 7 11
f 1 11 15
f 1 15 19
f 1 19 27
f 1 27 41
f 1 41 57
f 1 57 74
f 1 74 73
f 1 73 96
f 1 96 116
f 1 116 130
f 1 130 117
f 1 117 97
f 1 97 76
f 1 76 58
f 1 58 42
f 1 42 28
f 1 28 20
f 1 20 16
f 1 16 12
f 1 12 8
f 1 8 3
f 1 3 4
f 1 4 5
f 1 5 6
f 1 6 2
f 2 6 7
f 3 8 9
f 3 9 4
f 4 9 13
f 4 13 17
f 4 17 21
f 4 21 33
f 4 33 48
f 4 48 66
f 4 66 85
f 4 85 107
f 4 107 87
f 4 87 86
f 4 86 67
f 4 67 49
f 4 49 34
f 4 34 22
f 4 22 18
f 4 18 14
f 4 14 10
f 4 10 6
f 4 6 5
f 6 10 11
f 6 11 7
f 8 12 9
f 9 12 13
f 10 14 15
f 10 15 11
f 12 16 13
f 13 16 17
f 14 18 19
f 14 19 15
f 16 20 21
f 16 21 17
f 18 22 23
f 18 23 19
f 19 23 22
f 19 22 24
f 19 24 25
f 19 25 26
f 19 26 27
f 20 28 29
f 20 29 30
f 20 30 31
f 20 31 32
f 20 32 33
f 20 33 21
f 22 34 35
f 22 35 36
f 22 36 24
f 24 36 37
f 24 37 25
f 25 37 26
f 26 38 39
f 26 39 40
f 26 40 27
f 26 37 38
f 27 40 41
f 28 42 43
f 28 43 29
f 29 43 44
f 29 44 45
f 29 45 46
f 29 46 30
f 30 46 47
f 30 47 32
f 30 32 31
f 32 47 33
f 33 47 48
f 34 49 50
f 34 50 51
f 34 51 35
f 35 51 36
f 36 51 52
f 36 52 53
f 36 53 37
f 37 53 38
f 38 54 55
f 38 55 39
f 38 53 54
f 39 55 40
f 40 55 56
f 40 56 57
f 40 57 41
f 42 58 43
f 43 58 44
f 44 58 59
f 44 59 45
f 45 60 46
f 45 59 61
f 45 61 60
f 46 60 62
f 46 62 63
f 46 63 47
f 47 63 64
f 47 64 65
f 47 65 48
f 48 65 62
f 48 62 66
f 49 67 68
f 49 68 50
f 50 68 69
f 50 69 51
f 51 69 70
f 51 70 71
f 51 71 52
f 52 71 72
f 52 72 53
f 53 72 54
f 54 72 73
f 54 73 74
f 54 74 75
f 54 75 56
f 54 56 55
f 56 75 74
f 56 74 57
f 58 76 77
f 58 77 59
f 59 77 61
f 60 61 78
f 60 78 79
f 60 79 62
f 61 77 80
f 61 80 81
f 61 81 78
f 62 79 82
f 62 82 83
f 62 83 66
f 62 65 64
f 62 64 63
f 66 83 84
f 66 84 85
f 67 86 68
f 68 87 88
f 68 88 89
f 68 89 69
f 68 86 87
f 69 89 70
f 70 89 90
f 70 90 71
f 71 90 91
f 71 91 92
f 71 92 72
f 72 92 93
f 72 93 94
f 72 94 95
f 72 95 73
f 73 95 94
f 73 94 96
f 76 97 98
f 76 98 80
f 76 80 77
f 78 81 80
f 78 80 99
f 78 99 100
f 78 100 101
f 78 101 102
f 78 102 103
f 78 103 79
f 79 104 105
f 79 105 82
f 79 103 106
f 79 106 104
f 80 98 99
f 82 105 84
f 82 84 83
f 84 88 87
f 84 87 107
f 84 107 85
f 84 105 89
f 84 89 88
f 89 105 90
f 90 105 108
f 90 108 109
f 90 109 91
f 91 109 110
f 91 110 111
f 91 111 92
f 92 111 112
f 92 112 113
f 92 113 93
f 93 113 114
f 93 114 115
f 93 115 94
f 94 115 96
f 96 115 116
f 97 117 118
f 97 118 119
f 97 119 98
f 98 119 120
f 98 120 99
f 99 120 121
f 99 121 122
f 99 122 100
f 100 122 123
f 100 123 124
f 100 124 101
f 101 125 102
f 101 124 114
f 101 114 125
f 102 125 126
f 102 126 127
f 102 127 106
f 102 106 103
f 104 108 105
f 104 106 128
f 104 128 108
f 106 127 128
f 108 128 109
f 109 128 110
f 110 128 127
f 110 127 111
f 111 127 126
f 111 126 112
f 112 126 129
f 112 129 114
f 112 114 113
f 114 129 125
f 114 124 123
f 114 123 115
f 115 123 121
f 115 121 119
f 115 119 118
f 115 118 116
f 116 118 130
f 117 130 118
f 119 121 120
f 121 123 122
f 125 129 126
