v -0.359551 -0.479543 0.463157
v -0.359551 -0.477606 0.463026
v -0.36039 -0.479543 0.462525
v -0.359551 -0.479543 0.347583
v -0.359551 -0.468024 0.462314
v -0.364775 -0.479543 0.459177
v -0.362106 -0.479543 0.338411
v -0.359551 -0.437466 0.360603
v -0.359551 -0.453746 0.461233
v -0.364089 -0.465528 0.45865
v -0.364661 -0.477314 0.459098
v -0.391926 -0.479543 0.438356
v -0.375624 -0.479543 0.316693
v -0.359551 -0.437466 0.459889
v -0.467314 -0.437466 0.193924
v -0.359551 -0.44196 0.460337
v -0.362926 -0.44196 0.457754
v -0.377664 -0.465528 0.448239
v -0.390076 -0.44196 0.436932
v -0.411278 -0.477314 0.423332
v -0.406607 -0.479543 0.427075
v -0.445636 -0.479543 0.209738
v -0.38979 -0.437466 0.436722
v -0.456008 -0.479543 0.193924
v -0.551512 -0.437466 0.193924
v -0.403633 -0.44196 0.426521
v -0.411374 -0.479543 0.423411
v -0.410115 -0.453746 0.422436
v -0.416121 -0.44196 0.416084
v -0.392841 -0.437466 0.434376
v -0.554333 -0.479543 0.193924
v -0.551855 -0.441388 0.193924
v -0.520624 -0.437466 0.268566
v -0.406988 -0.437466 0.42349
v -0.409524 -0.44196 0.421988
v -0.417456 -0.477314 0.417428
v -0.417532 -0.479543 0.417507
v -0.422909 -0.465528 0.410681
v -0.423347 -0.477314 0.411261
v -0.423424 -0.479543 0.411366
v -0.418657 -0.479543 0.416374
v -0.415892 -0.437466 0.415873
v -0.422013 -0.44196 0.409521
v -0.540129 -0.479543 0.22824
v -0.55195 -0.453746 0.195637
v -0.540796 -0.44196 0.220728
v -0.519251 -0.44196 0.272756
v -0.516811 -0.44196 0.278634
v -0.519061 -0.437466 0.272308
v -0.409238 -0.437466 0.421751
v -0.433853 -0.479543 0.397793
v -0.45189 -0.44196 0.370593
v -0.451508 -0.454047 0.372279
v -0.445121 -0.479543 0.383112
v -0.419534 -0.437466 0.411788
v -0.421784 -0.437466 0.409205
v -0.436732 -0.437466 0.38978
v -0.482987 -0.43885 0.329713
v -0.518031 -0.479543 0.281586
v -0.516754 -0.437466 0.277791
v -0.512425 -0.44196 0.288755
v -0.514732 -0.437466 0.282508
v -0.493531 -0.44196 0.316324
v -0.505276 -0.477314 0.30449
v -0.499537 -0.479543 0.312186
v -0.482911 -0.437466 0.329608
v -0.503712 -0.437466 0.30246
v -0.503941 -0.44196 0.30275
v -0.514923 -0.479543 0.288755
v -0.508288 -0.44196 0.296847
v -0.508078 -0.437466 0.296557
v -0.510633 -0.437466 0.291549
v -0.512025 -0.437466 0.288755
v -0.506153 -0.479543 0.303488
v -0.505352 -0.479543 0.304595
v -0.510633 -0.479543 0.296741
v -0.509089 -0.465528 0.298006
v -0.509489 -0.477314 0.298586
v -0.509566 -0.479543 0.298691
f 1 2 3
f 1 3 6
f 1 6 12
f 1 12 21
f 1 21 27
f 1 27 37
f 1 37 41
f 1 41 40
f 1 40 51
f 1 51 54
f 1 54 65
f 1 65 75
f 1 75 74
f 1 74 79
f 1 79 76
f 1 76 69
f 1 69 59
f 1 59 44
f 1 44 31
f 1 31 24
f 1 24 22
f 1 22 13
f 1 13 7
f 1 7 4
f 1 4 8
f 1 8 14
f 1 14 16
f 1 16 9
f 1 9 5
f 1 5 2
f 2 5 6
f 2 6 3
f 4 7 8
f 5 9 10
f 5 10 11
f 5 11 6
f 6 11 12
f 7 13 8
f 8 13 15
f 8 15 25
f 8 25 33
f 8 33 49
f 8 49 60
f 8 60 62
f 8 62 73
f 8 73 72
f 8 72 71
f 8 71 67
f 8 67 66
f 8 66 57
f 8 57 56
f 8 56 55
f 8 55 42
f 8 42 50
f 8 50 34
f 8 34 30
f 8 30 23
f 8 23 14
f 9 16 17
f 9 17 10
f 10 17 19
f 10 19 18
f 10 18 11
f 11 18 12
f 12 18 19
f 12 19 20
f 12 20 21
f 13 22 15
f 14 23 17
f 14 17 16
f 15 22 24
f 15 24 31
f 15 31 32
f 15 32 25
f 17 23 19
f 19 23 26
f 19 26 20
f 20 27 21
f 20 26 28
f 20 28 29
f 20 29 27
f 23 30 26
f 25 32 33
f 26 34 35
f 26 35 28
f 26 30 34
f 27 29 36
f 27 36 37
f 28 35 29
f 29 38 39
f 29 39 40
f 29 40 41
f 29 41 36
f 29 35 42
f 29 42 43
f 29 43 38
f 31 44 45
f 31 45 32
f 32 45 46
f 32 46 47
f 32 47 33
f 33 47 48
f 33 48 49
f 34 50 35
f 35 50 42
f 36 41 37
f 38 51 39
f 38 43 52
f 38 52 53
f 38 53 54
f 38 54 51
f 39 51 40
f 42 55 43
f 43 55 56
f 43 56 57
f 43 57 58
f 43 58 52
f 44 59 47
f 44 47 46
f 44 46 45
f 47 59 48
f 48 60 49
f 48 59 61
f 48 61 62
f 48 62 60
f 52 58 63
f 52 63 53
f 53 63 54
f 54 63 64
f 54 64 65
f 57 66 58
f 58 66 67
f 58 67 68
f 58 68 63
f 59 69 61
f 61 69 70
f 61 70 71
f 61 71 72
f 61 72 73
f 61 73 62
f 63 68 64
f 64 68 70
f 64 70 74
f 64 74 75
f 64 75 65
f 67 71 68
f 68 71 70
f 69 76 70
f 70 76 77
f 70 77 74
f 74 77 78
f 74 78 79
f 76 79 78
f 76 78 77
