v 0.00523519 0.371831 0.445091
v 0.00523519 0.371831 0.351632
v -0.00590609 0.371831 0.445091
v 0.00523519 0.0771744 0.334078
v 0.00523519 0.370504 0.350796
v -0.25474 0.371831 0.241794
v -0.0171211 0.371831 0.443678
v -0.00590609 0.0771744 0.334078
v 0.00523519 0.0771744 0.255486
v 0.00523519 0.370186 0.350597
v -0.254113 0.371081 0.241794
v -0.371612 0.371831 0.241794
v 0.00523519 0.358821 0.344149
v 0.00523519 0.33811 0.332765
v 0.00523519 0.331534 0.329163
v 0.00523519 0.324495 0.32562
v 0.00523519 0.324091 0.325421
v 0.00523519 0.31414 0.320645
v 0.00523519 0.30765 0.317659
v 0.00523519 0.300929 0.314595
v 0.00523519 0.288525 0.308962
v 0.00523519 0.277766 0.304365
v 0.00523519 0.26516 0.299509
v 0.00523519 0.249786 0.293797
v 0.00523519 0.241593 0.290772
v 0.00523519 0.230459 0.286951
v 0.00523519 0.229796 0.286732
v 0.00523519 0.221027 0.284025
v 0.00523519 0.220507 0.283866
v 0.00523519 0.214623 0.282155
v 0.00523519 0.206258 0.279746
v 0.00523519 0.195123 0.276542
v 0.00523519 0.194489 0.276363
v 0.00523519 0.181624 0.272801
v -0.0177114 0.0771744 0.332546
v -0.100976 0.371831 0.432613
v 0.00523519 0.077809 0.255546
v -0.0800582 0.0771744 0.241794
v -0.0810173 0.0810397 0.241794
v -0.0830464 0.0888568 0.241794
v -0.0864404 0.0985777 0.241794
v -0.0953313 0.123991 0.241794
v -0.100164 0.1355 0.241794
v -0.100201 0.135586 0.241794
v -0.106104 0.147125 0.241794
v -0.253854 0.370763 0.241794
v -0.230096 0.0771744 0.241794
v -0.371575 0.371831 0.241893
v 0.00523519 0.170749 0.270313
v -0.216262 0.324351 0.241794
v -0.0760739 0.0771744 0.324844
v -0.111305 0.371831 0.430921
v -0.0766272 0.0771744 0.324764
v 0.00523519 0.0883953 0.256561
v -0.11267 0.159182 0.241794
v -0.229764 0.0771744 0.242072
v -0.314873 0.371831 0.314893
v -0.317123 0.371831 0.312206
v -0.323395 0.371831 0.304644
v -0.324797 0.371831 0.302833
v -0.346378 0.371831 0.274811
v 0.00523519 0.147327 0.265536
v -0.206633 0.311919 0.241794
v -0.207408 0.312928 0.241794
v -0.111969 0.371831 0.430801
v -0.0878423 0.0771744 0.322277
v 0.00523519 0.0891452 0.25666
v -0.119126 0.171009 0.241794
v -0.125767 0.182691 0.241794
v -0.159412 0.241103 0.241794
v -0.173726 0.264843 0.241794
v -0.196193 0.0771744 0.267905
v -0.288532 0.371831 0.33581
v -0.301297 0.371831 0.325978
v -0.304617 0.371831 0.323411
v -0.31218 0.371831 0.317142
v 0.00523519 0.136192 0.263327
v -0.194385 0.29539 0.241794
v -0.122779 0.371831 0.427617
v -0.0883956 0.0771744 0.322137
v 0.00523519 0.12376 0.261297
v -0.180219 0.275256 0.241794
v -0.181584 0.0771744 0.27909
v -0.228621 0.371831 0.381723
v -0.275104 0.371831 0.346119
v 0.00523519 0.135558 0.263208
v -0.189774 0.289131 0.241794
v -0.124328 0.371831 0.42698
v -0.0967331 0.0771744 0.319252
v -0.181916 0.27791 0.241794
v -0.17214 0.0771744 0.285936
v -0.228399 0.371831 0.381883
v -0.182691 0.279035 0.241794
v -0.111969 0.0771744 0.312963
v -0.136613 0.371831 0.421905
v -0.171808 0.0771744 0.286175
v -0.171623 0.0771744 0.286294
v -0.218033 0.371831 0.387953
v -0.171365 0.371831 0.407536
v -0.147348 0.0771744 0.298315
v -0.160556 0.0771744 0.292742
v -0.208441 0.371831 0.392132
v -0.195418 0.371831 0.397545
v -0.154653 0.0771744 0.29525
f 1 2 6
f 1 6 12
f 1 12 48
f 1 48 61
f 1 61 60
f 1 60 59
f 1 59 58
f 1 58 57
f 1 57 76
f 1 76 75
f 1 75 74
f 1 74 73
f 1 73 85
f 1 85 84
f 1 84 92
f 1 92 98
f 1 98 102
f 1 102 103
f 1 103 99
f 1 99 95
f 1 95 88
f 1 88 79
f 1 79 65
f 1 65 52
f 1 52 36
f 1 36 7
f 1 7 3
f 1 3 8
f 1 8 4
f 1 4 9
f 1 9 37
f 1 37 54
f 1 54 67
f 1 67 81
f 1 81 86
f 1 86 77
f 1 77 62
f 1 62 49
f 1 49 34
f 1 34 33
f 1 33 32
f 1 32 31
f 1 31 30
f 1 30 29
f 1 29 28
f 1 28 27
f 1 27 26
f 1 26 25
f 1 25 24
f 1 24 23
f 1 23 22
f 1 22 21
f 1 21 20
f 1 20 19
f 1 19 18
f 1 18 17
f 1 17 16
f 1 16 15
f 1 15 14
f 1 14 13
f 1 13 10
f 1 10 5
f 1 5 2
f 2 5 6
f 3 7 8
f 4 8 35
f 4 35 51
f 4 51 53
f 4 53 66
f 4 66 80
f 4 80 89
f 4 89 94
f 4 94 100
f 4 100 104
f 4 104 101
f 4 101 97
f 4 97 96
f 4 96 91
f 4 91 83
f 4 83 72
f 4 72 56
f 4 56 47
f 4 47 38
f 4 38 9
f 5 10 6
f 6 11 46
f 6 46 50
f 6 50 64
f 6 64 63
f 6 63 78
f 6 78 87
f 6 87 93
f 6 93 90
f 6 90 82
f 6 82 71
f 6 71 70
f 6 70 69
f 6 69 68
f 6 68 55
f 6 55 45
f 6 45 44
f 6 44 43
f 6 43 42
f 6 42 41
f 6 41 40
f 6 40 39
f 6 39 38
f 6 38 47
f 6 47 12
f 6 10 13
f 6 13 14
f 6 14 15
f 6 15 16
f 6 16 17
f 6 17 18
f 6 18 19
f 6 19 20
f 6 20 21
f 6 21 22
f 6 22 23
f 6 23 24
f 6 24 25
f 6 25 26
f 6 26 27
f 6 27 28
f 6 28 29
f 6 29 30
f 6 30 31
f 6 31 32
f 6 32 33
f 6 33 34
f 6 34 11
f 7 35 8
f 7 36 35
f 9 38 39
f 9 39 40
f 9 40 41
f 9 41 42
f 9 42 43
f 9 43 44
f 9 44 45
f 9 45 37
f 11 34 46
f 12 47 48
f 34 49 50
f 34 50 46
f 35 36 51
f 36 52 53
f 36 53 51
f 37 45 54
f 45 55 54
f 47 56 57
f 47 57 58
f 47 58 59
f 47 59 60
f 47 60 61
f 47 61 48
f 49 62 63
f 49 63 64
f 49 64 50
f 52 65 53
f 53 65 66
f 54 55 68
f 54 68 69
f 54 69 70
f 54 70 71
f 54 71 67
f 56 72 73
f 56 73 74
f 56 74 75
f 56 75 76
f 56 76 57
f 62 77 63
f 63 77 78
f 65 79 80
f 65 80 66
f 67 71 82
f 67 82 81
f 72 83 84
f 72 84 85
f 72 85 73
f 77 86 87
f 77 87 78
f 79 88 89
f 79 89 80
f 81 82 90
f 81 90 86
f 83 91 84
f 84 91 96
f 84 96 92
f 86 90 93
f 86 93 87
f 88 94 89
f 88 95 94
f 92 96 97
f 92 97 98
f 94 95 99
f 94 99 100
f 97 101 98
f 98 101 102
f 99 103 100
f 100 103 102
f 100 102 104
f 101 104 102
