v 0.590605 -0.479543 0.00102067
v 0.589324 -0.446982 0.000418882
v 0.5894 -0.449499 0.00102067
v 0.49902 -0.479543 0.00102067
v 0.590605 -0.479543 -0.00589323
v 0.589324 -0.446982 -0.000423624
v 0.588022 -0.437466 0.00102067
v 0.589216 -0.446405 0.00102067
v 0.509623 -0.437466 0.00102067
v 0.495862 -0.479543 -0.0126467
v 0.589563 -0.479543 -0.013984
v 0.589498 -0.477314 -0.0134758
v 0.589303 -0.470945 -0.0120181
v 0.588489 -0.442615 -0.00497048
v 0.58953 -0.453746 -0.00204177
v 0.588022 -0.437466 -0.0053583
v 0.493897 -0.479543 -0.0224759
v 0.491097 -0.437466 -0.135532
v 0.491076 -0.437491 -0.135599
v 0.588792 -0.479543 -0.0198815
v 0.586806 -0.44196 -0.0176883
v 0.586437 -0.437466 -0.0176883
v 0.48158 -0.479543 -0.116208
v 0.491249 -0.437466 -0.135599
v 0.479745 -0.479543 -0.135599
v 0.480407 -0.479543 -0.126425
v 0.582867 -0.453746 -0.0530468
v 0.578179 -0.479543 -0.100481
v 0.576768 -0.453936 -0.0994515
v 0.585851 -0.437466 -0.0221817
v 0.582151 -0.44196 -0.0530468
v 0.578179 -0.437466 -0.0808897
v 0.570918 -0.437466 -0.135599
v 0.531881 -0.479543 -0.135599
v 0.571276 -0.441898 -0.135599
v 0.575357 -0.479543 -0.121892
v 0.573414 -0.477248 -0.135599
v 0.572003 -0.453746 -0.135532
v 0.570929 -0.437466 -0.135532
v 0.573545 -0.479534 -0.135599
v 0.573555 -0.479543 -0.135532
f 1 2 3
f 1 3 8
f 1 8 7
f 1 7 9
f 1 9 4
f 1 4 10
f 1 10 17
f 1 17 23
f 1 23 26
f 1 26 25
f 1 25 34
f 1 34 41
f 1 41 36
f 1 36 28
f 1 28 20
f 1 20 11
f 1 11 5
f 1 5 6
f 1 6 2
f 2 6 16
f 2 16 7
f 2 7 8
f 2 8 3
f 4 9 10
f 5 11 12
f 5 12 13
f 5 13 14
f 5 14 15
f 5 15 6
f 6 15 14
f 6 14 16
f 7 16 22
f 7 22 30
f 7 30 32
f 7 32 39
f 7 39 33
f 7 33 24
f 7 24 18
f 7 18 9
f 9 17 10
f 9 18 19
f 9 19 17
f 11 20 12
f 12 20 21
f 12 21 13
f 13 21 14
f 14 21 16
f 16 21 22
f 17 19 23
f 18 24 19
f 19 24 33
f 19 33 35
f 19 35 37
f 19 37 40
f 19 40 34
f 19 34 25
f 19 25 26
f 19 26 23
f 20 27 21
f 20 28 29
f 20 29 27
f 21 30 22
f 21 27 31
f 21 31 32
f 21 32 30
f 27 29 35
f 27 35 31
f 28 36 37
f 28 37 29
f 29 37 38
f 29 38 35
f 31 35 32
f 32 35 39
f 33 39 35
f 34 40 41
f 35 38 37
f 36 41 37
f 37 41 40
