v -0.419199 -0.278149 0.217694
v -0.507689 -0.278149 0.217694
v -0.457494 -0.437446 0.217694
v -0.509623 -0.437446 -0.000194437
v -0.473906 -0.278149 -0.000194437
v -0.508416 -0.278149 0.215987
v -0.509325 -0.28342 0.217694
v -0.541637 -0.437446 0.217694
v -0.58803 -0.437446 -0.000194437
v -0.556264 -0.278149 -0.000194437
v -0.52301 -0.312332 0.206238
v -0.515672 -0.303958 0.217694
v -0.511127 -0.289236 0.217694
v -0.532084 -0.278149 0.158838
v -0.530563 -0.282172 0.165515
v -0.529142 -0.288753 0.173856
v -0.537654 -0.312332 0.170891
v -0.541009 -0.430164 0.217694
v -0.542116 -0.437446 0.216584
v -0.587733 -0.434125 -0.000194437
v -0.58803 -0.437446 0.00535196
v -0.557669 -0.282921 -0.000194437
v -0.556264 -0.278149 0.00639724
v -0.530944 -0.316277 0.190004
v -0.519556 -0.312332 0.214558
v -0.51825 -0.312332 0.217694
v -0.53648 -0.278149 0.147276
v -0.542463 -0.30533 0.154017
v -0.543554 -0.312332 0.156641
v -0.53934 -0.301057 0.158411
v -0.539571 -0.41878 0.217694
v -0.542315 -0.423006 0.212574
v -0.542728 -0.430164 0.213576
v -0.553851 -0.437041 0.188404
v -0.553868 -0.437446 0.188447
v -0.587369 -0.430164 -0.000194437
v -0.587369 -0.430164 0.00590659
v -0.586444 -0.437446 0.017682
v -0.559371 -0.288753 -0.000194437
v -0.559371 -0.288753 0.00590659
v -0.562776 -0.300542 0.00590659
v -0.56509 -0.308574 0.00590659
v -0.554909 -0.278149 0.0169354
v -0.521473 -0.323794 0.217694
v -0.54205 -0.318507 0.164811
v -0.53929 -0.278149 0.135522
v -0.542513 -0.293338 0.142668
v -0.541257 -0.29747 0.150518
v -0.546662 -0.312332 0.147318
v -0.545141 -0.323108 0.16016
v -0.549851 -0.324106 0.147318
v -0.539505 -0.418265 0.217694
v -0.541753 -0.415146 0.211209
v -0.55276 -0.418374 0.185759
v -0.566148 -0.421072 0.154315
v -0.56428 -0.430164 0.161547
v -0.560413 -0.430164 0.170891
v -0.564594 -0.437446 0.162315
v -0.586708 -0.424487 -0.000194437
v -0.585981 -0.418374 0.00590659
v -0.585849 -0.430164 0.017682
v -0.577717 -0.437446 0.0843241
v -0.577635 -0.434655 0.0835988
v -0.56114 -0.294866 -0.000194437
v -0.562776 -0.300542 -0.000194437
v -0.566776 -0.314468 0.00590659
v -0.566164 -0.316589 0.0153781
v -0.564578 -0.312519 0.0186633
v -0.56509 -0.308574 -0.000194437
v -0.547207 -0.278149 0.0754499
v -0.521688 -0.324651 0.217694
v -0.531985 -0.324106 0.192521
v -0.539472 -0.278149 0.134156
v -0.545736 -0.300542 0.135522
v -0.543472 -0.301057 0.14687
v -0.549124 -0.312332 0.135522
v -0.553405 -0.34402 0.151222
v -0.548645 -0.335895 0.159094
v -0.543042 -0.326367 0.1672
v -0.553554 -0.331763 0.138615
v -0.554363 -0.339622 0.143351
v -0.552562 -0.33577 0.147297
v -0.536183 -0.395263 0.217694
v -0.534414 -0.383037 0.217694
v -0.540282 -0.394811 0.207667
v -0.555091 -0.383021 0.167819
v -0.562098 -0.4066 0.159094
v -0.5639 -0.417641 0.158582
v -0.558694 -0.383021 0.159094
v -0.565602 -0.413212 0.152609
v -0.56861 -0.430164 0.147318
v -0.566677 -0.430164 0.155659
v -0.566991 -0.437446 0.156406
v -0.585981 -0.418374 -0.000194437
v -0.581221 -0.383021 0.00590659
v -0.585221 -0.412698 -0.000194437
v -0.584461 -0.418374 0.017682
v -0.57813 -0.430507 0.0766231
v -0.577221 -0.426795 0.0805696
v -0.57775 -0.422335 0.072698
v -0.570924 -0.437446 0.135522
v -0.57499 -0.430164 0.100195
v -0.570329 -0.430164 0.135522
v -0.569238 -0.324106 0.00590659
v -0.566776 -0.314468 -0.000194437
v -0.568065 -0.319459 -0.000194437
v -0.565652 -0.318414 0.0232284
v -0.554182 -0.317306 0.108067
v -0.55357 -0.307654 0.0916197
v -0.544199 -0.278149 0.0982967
v -0.524349 -0.335864 0.217694
v -0.530299 -0.330172 0.200244
v -0.54729 -0.300542 0.123746
v -0.55314 -0.321486 0.123746
v -0.552463 -0.324901 0.13501
v -0.553653 -0.319287 0.115917
v -0.55519 -0.34784 0.147297
v -0.557686 -0.359458 0.147318
v -0.560214 -0.371232 0.147318
v -0.554297 -0.351879 0.154123
v -0.555157 -0.359458 0.156193
v -0.549075 -0.359458 0.170891
v -0.541422 -0.333166 0.17505
v -0.559768 -0.359458 0.135522
v -0.562198 -0.371232 0.135522
v -0.554066 -0.329361 0.130764
v -0.565536 -0.330765 0.0459473
v -0.568792 -0.335895 0.0294788
v -0.55638 -0.335895 0.123746
v -0.567206 -0.358445 0.0775191
v -0.565949 -0.364168 0.0961635
v -0.532497 -0.372339 0.217694
v -0.54167 -0.380292 0.199241
v -0.554413 -0.374834 0.166176
v -0.556248 -0.371045 0.159755
v -0.562264 -0.383021 0.147318
v -0.565735 -0.400487 0.141601
v -0.566958 -0.417641 0.148129
v -0.569205 -0.437446 0.147318
v -0.568478 -0.437446 0.150497
v -0.568941 -0.418374 0.135522
v -0.578924 -0.370234 0.00678122
v -0.577916 -0.363263 0.00345338
v -0.581221 -0.383021 -0.000194437
v -0.582047 -0.389135 -0.000194437
v -0.579701 -0.383021 0.017682
v -0.577188 -0.379357 0.0330839
v -0.577701 -0.376051 0.0252337
v -0.578196 -0.373602 0.017682
v -0.578246 -0.406663 0.0529656
v -0.576709 -0.41839 0.0766231
v -0.573602 -0.418374 0.100195
v -0.571866 -0.335895 0.00590659
v -0.566065 -0.328457 0.0380757
v -0.566627 -0.326039 0.0294788
v -0.567338 -0.323045 0.0186633
v -0.569238 -0.324106 -0.000194437
v -0.56152 -0.324106 0.0648264
v -0.524448 -0.336285 0.217694
v -0.533291 -0.334819 0.195572
v -0.559966 -0.324106 0.0766231
v -0.554529 -0.327381 0.123746
v -0.553554 -0.36699 0.164128
v -0.542447 -0.363949 0.189322
v -0.539687 -0.359786 0.193737
v -0.527043 -0.347747 0.217694
v -0.565437 -0.366679 0.104014
v -0.564478 -0.384113 0.134434
v -0.566098 -0.375146 0.111949
v -0.565701 -0.377096 0.117901
v -0.575288 -0.359458 0.017682
v -0.57742 -0.365649 0.0113037
v -0.532398 -0.371794 0.217694
v -0.551835 -0.371045 0.170421
v -0.540794 -0.371232 0.197151
v -0.565206 -0.392628 0.137633
v -0.566065 -0.395856 0.134434
v -0.577916 -0.363263 -0.000194437
v -0.573503 -0.383021 0.0648264
v -0.571949 -0.383021 0.0766231
v -0.565189 -0.380916 0.125751
v -0.577006 -0.367708 0.017682
v -0.569966 -0.371232 0.0766231
v -0.571866 -0.335895 -0.000194437
v -0.532034 -0.370109 0.217694
v -0.534431 -0.359458 0.206238
v -0.529671 -0.359458 0.217694
v -0.566792 -0.370858 0.100131
f 1 2 7
f 1 7 13
f 1 13 12
f 1 12 26
f 1 26 44
f 1 44 71
f 1 71 111
f 1 111 159
f 1 159 166
f 1 166 187
f 1 187 185
f 1 185 173
f 1 173 132
f 1 132 84
f 1 84 83
f 1 83 52
f 1 52 31
f 1 31 18
f 1 18 8
f 1 8 3
f 1 3 4
f 1 4 5
f 1 5 10
f 1 10 23
f 1 23 43
f 1 43 70
f 1 70 110
f 1 110 73
f 1 73 46
f 1 46 27
f 1 27 14
f 1 14 6
f 1 6 2
f 2 6 7
f 3 8 19
f 3 19 35
f 3 35 58
f 3 58 93
f 3 93 140
f 3 140 139
f 3 139 101
f 3 101 62
f 3 62 38
f 3 38 21
f 3 21 9
f 3 9 4
f 4 9 20
f 4 20 36
f 4 36 59
f 4 59 94
f 4 94 96
f 4 96 145
f 4 145 144
f 4 144 178
f 4 178 184
f 4 184 157
f 4 157 106
f 4 106 105
f 4 105 69
f 4 69 65
f 4 65 64
f 4 64 39
f 4 39 22
f 4 22 10
f 4 10 5
f 6 11 12
f 6 12 13
f 6 13 7
f 6 14 15
f 6 15 16
f 6 16 17
f 6 17 11
f 8 18 19
f 9 21 20
f 10 22 23
f 11 24 25
f 11 25 12
f 11 17 24
f 12 25 26
f 14 27 28
f 14 28 29
f 14 29 30
f 14 30 15
f 15 30 16
f 16 30 17
f 17 30 29
f 17 29 24
f 18 31 32
f 18 32 33
f 18 33 34
f 18 34 19
f 19 34 35
f 20 21 37
f 20 37 36
f 21 38 37
f 22 39 40
f 22 40 23
f 23 40 41
f 23 41 42
f 23 42 43
f 24 44 26
f 24 26 25
f 24 29 45
f 24 45 44
f 27 46 47
f 27 47 48
f 27 48 28
f 28 48 49
f 28 49 29
f 29 50 45
f 29 49 51
f 29 51 50
f 31 52 32
f 32 52 53
f 32 53 54
f 32 54 55
f 32 55 56
f 32 56 57
f 32 57 33
f 33 57 34
f 34 57 56
f 34 56 58
f 34 58 35
f 36 37 59
f 37 60 59
f 37 38 61
f 37 61 97
f 37 97 60
f 38 62 63
f 38 63 61
f 39 64 40
f 40 64 41
f 41 64 65
f 41 65 69
f 41 69 42
f 42 66 67
f 42 67 68
f 42 68 43
f 42 69 105
f 42 105 66
f 43 68 70
f 44 45 72
f 44 72 71
f 45 50 72
f 46 73 74
f 46 74 47
f 47 51 49
f 47 49 75
f 47 75 48
f 47 74 76
f 47 76 51
f 48 75 49
f 50 51 77
f 50 77 78
f 50 78 79
f 50 79 72
f 51 76 80
f 51 80 81
f 51 81 82
f 51 82 77
f 52 83 53
f 53 83 84
f 53 84 85
f 53 85 86
f 53 86 54
f 54 86 87
f 54 87 88
f 54 88 55
f 55 88 87
f 55 87 89
f 55 89 90
f 55 90 91
f 55 91 92
f 55 92 56
f 56 92 58
f 58 92 93
f 59 60 94
f 60 95 96
f 60 96 94
f 60 97 146
f 60 146 95
f 61 63 98
f 61 98 99
f 61 99 100
f 61 100 97
f 62 101 63
f 63 102 98
f 63 101 103
f 63 103 102
f 66 104 67
f 66 105 106
f 66 106 104
f 67 104 107
f 67 107 68
f 68 107 108
f 68 108 109
f 68 109 110
f 68 110 70
f 71 72 112
f 71 112 111
f 72 79 112
f 73 113 74
f 73 110 108
f 73 108 113
f 74 113 108
f 74 108 76
f 76 114 115
f 76 115 80
f 76 108 116
f 76 116 114
f 77 82 81
f 77 81 117
f 77 117 118
f 77 118 119
f 77 119 120
f 77 120 78
f 78 120 121
f 78 121 122
f 78 122 123
f 78 123 79
f 79 123 112
f 80 124 125
f 80 125 119
f 80 119 81
f 80 115 126
f 80 126 127
f 80 127 128
f 80 128 129
f 80 129 130
f 80 130 131
f 80 131 124
f 81 119 118
f 81 118 117
f 84 132 133
f 84 133 85
f 85 133 86
f 86 89 87
f 86 133 89
f 89 133 134
f 89 134 135
f 89 135 119
f 89 119 136
f 89 136 90
f 90 136 137
f 90 137 138
f 90 138 91
f 91 139 140
f 91 140 92
f 91 138 141
f 91 141 103
f 91 103 101
f 91 101 139
f 92 140 93
f 95 142 143
f 95 143 178
f 95 178 144
f 95 144 145
f 95 145 96
f 95 146 147
f 95 147 148
f 95 148 149
f 95 149 142
f 97 150 147
f 97 147 146
f 97 100 151
f 97 151 150
f 98 102 99
f 99 102 103
f 99 103 100
f 100 152 151
f 100 103 141
f 100 141 152
f 104 153 154
f 104 154 155
f 104 155 156
f 104 156 107
f 104 106 157
f 104 157 184
f 104 184 153
f 107 156 155
f 107 155 158
f 107 158 116
f 107 116 108
f 108 110 109
f 111 112 159
f 112 123 160
f 112 160 159
f 114 116 115
f 115 116 161
f 115 161 162
f 115 162 126
f 116 158 161
f 119 125 136
f 119 135 121
f 119 121 120
f 121 135 163
f 121 163 122
f 122 163 164
f 122 164 165
f 122 165 123
f 123 165 166
f 123 166 160
f 124 131 167
f 124 167 125
f 125 168 136
f 125 167 169
f 125 169 170
f 125 170 168
f 126 162 154
f 126 154 127
f 127 154 128
f 128 154 153
f 128 153 171
f 128 171 130
f 128 130 129
f 130 171 131
f 131 171 172
f 131 172 167
f 132 173 133
f 133 173 134
f 134 174 135
f 134 173 175
f 134 175 174
f 135 174 163
f 136 168 137
f 137 168 176
f 137 176 177
f 137 177 141
f 137 141 138
f 141 177 152
f 142 172 143
f 142 149 172
f 143 172 153
f 143 153 184
f 143 184 178
f 147 150 179
f 147 179 180
f 147 180 181
f 147 181 170
f 147 170 148
f 148 182 149
f 148 170 169
f 148 169 183
f 148 183 182
f 149 182 172
f 150 151 177
f 150 177 179
f 151 152 177
f 153 172 171
f 154 161 158
f 154 158 155
f 154 162 161
f 159 160 166
f 163 174 164
f 164 185 186
f 164 186 165
f 164 174 185
f 165 186 166
f 166 186 187
f 167 172 182
f 167 182 183
f 167 183 188
f 167 188 169
f 168 170 181
f 168 181 180
f 168 180 177
f 168 177 176
f 169 188 183
f 173 185 175
f 174 175 185
f 177 180 179
f 185 187 186
