v -0.201571 0.305001 0.241784
v -0.197963 0.300162 0.241784
v -0.281324 0.305001 0.142638
v -0.319859 0.305001 0.241784
v -0.189794 0.289144 0.241784
v -0.278957 0.300229 0.142638
v -0.374933 0.305001 0.142638
v -0.181914 0.277925 0.241784
v -0.181452 0.277234 0.241784
v -0.173716 0.264856 0.241784
v -0.159428 0.241125 0.241784
v -0.125772 0.182691 0.241784
v -0.119104 0.171004 0.241784
v -0.113418 0.160566 0.241784
v -0.112061 0.158068 0.241784
v -0.106115 0.147117 0.241784
v -0.10014 0.135497 0.241784
v -0.321533 0.305001 0.239619
v -0.242039 0.0771744 0.229778
v -0.241722 0.0771744 0.230185
v -0.236584 0.0771744 0.236601
v -0.236151 0.0771744 0.23695
v -0.230089 0.0771744 0.241784
v -0.276417 0.295054 0.142638
v -0.300231 0.0771744 0.142638
v -0.298297 0.0771744 0.147326
v -0.358451 0.305001 0.182423
v -0.0953195 0.123989 0.241784
v -0.264842 0.270119 0.142638
v -0.267556 0.276476 0.142638
v -0.269894 0.281628 0.142638
v -0.27076 0.283412 0.142638
v -0.324593 0.305001 0.235659
v -0.246831 0.0771744 0.223556
v -0.0800789 0.0771744 0.241784
v -0.210808 0.0771744 0.142638
v -0.295237 0.0771744 0.154635
v -0.354756 0.305001 0.191304
v -0.083052 0.0888612 0.241784
v -0.244002 0.216948 0.142638
v -0.253066 0.241816 0.142638
v -0.262995 0.265681 0.142638
v -0.335503 0.305001 0.22144
v -0.272405 0.0771744 0.190304
v -0.261985 0.0771744 0.203853
v -0.0811469 0.0815235 0.241784
v -0.211125 0.0814343 0.142638
v -0.211385 0.0836646 0.142638
v -0.214098 0.100214 0.142638
v -0.216061 0.111967 0.142638
v -0.218081 0.123766 0.142638
v -0.22042 0.135497 0.142638
v -0.221776 0.14114 0.142638
v -0.292697 0.0771744 0.160536
v -0.354381 0.305001 0.192197
v -0.229137 0.170892 0.142638
v -0.232485 0.18249 0.142638
v -0.240278 0.206265 0.142638
v -0.341594 0.305001 0.213462
v -0.278986 0.0771744 0.181695
v -0.222527 0.144195 0.142638
v -0.292466 0.0771744 0.160953
v -0.352101 0.305001 0.197486
v -0.342633 0.305001 0.212064
v -0.286058 0.0771744 0.17195
v -0.286145 0.0771744 0.171804
v -0.346876 0.305001 0.206173
f 1 2 3
f 1 3 7
f 1 7 27
f 1 27 38
f 1 38 55
f 1 55 63
f 1 63 67
f 1 67 64
f 1 64 59
f 1 59 43
f 1 43 33
f 1 33 18
f 1 18 4
f 1 4 23
f 1 23 35
f 1 35 46
f 1 46 39
f 1 39 28
f 1 28 17
f 1 17 16
f 1 16 15
f 1 15 14
f 1 14 13
f 1 13 12
f 1 12 11
f 1 11 10
f 1 10 9
f 1 9 8
f 1 8 5
f 1 5 2
f 2 5 3
f 3 6 24
f 3 24 32
f 3 32 31
f 3 31 30
f 3 30 29
f 3 29 42
f 3 42 41
f 3 41 40
f 3 40 58
f 3 58 57
f 3 57 56
f 3 56 61
f 3 61 53
f 3 53 52
f 3 52 51
f 3 51 50
f 3 50 49
f 3 49 48
f 3 48 47
f 3 47 36
f 3 36 25
f 3 25 7
f 3 5 8
f 3 8 9
f 3 9 10
f 3 10 11
f 3 11 12
f 3 12 13
f 3 13 14
f 3 14 15
f 3 15 16
f 3 16 17
f 3 17 6
f 4 18 19
f 4 19 20
f 4 20 21
f 4 21 22
f 4 22 23
f 6 17 24
f 7 25 26
f 7 26 27
f 17 28 29
f 17 29 30
f 17 30 31
f 17 31 32
f 17 32 24
f 18 33 19
f 19 33 34
f 19 34 45
f 19 45 44
f 19 44 60
f 19 60 65
f 19 65 66
f 19 66 62
f 19 62 54
f 19 54 37
f 19 37 26
f 19 26 25
f 19 25 36
f 19 36 35
f 19 35 23
f 19 23 22
f 19 22 21
f 19 21 20
f 26 37 38
f 26 38 27
f 28 39 40
f 28 40 41
f 28 41 42
f 28 42 29
f 33 43 44
f 33 44 45
f 33 45 34
f 35 36 47
f 35 47 48
f 35 48 49
f 35 49 50
f 35 50 51
f 35 51 52
f 35 52 53
f 35 53 46
f 37 54 55
f 37 55 38
f 39 46 56
f 39 56 57
f 39 57 58
f 39 58 40
f 43 59 60
f 43 60 44
f 46 53 61
f 46 61 56
f 54 62 63
f 54 63 55
f 59 64 60
f 60 64 65
f 62 66 63
f 63 66 65
f 63 65 67
f 64 67 65
