v 0.347384 -0.279366 0.321042
v 0.45036 -0.279366 0.321042
v 0.391409 -0.437446 0.321042
v 0.168458 -0.279366 0.44008
v 0.428049 -0.279366 0.350112
v 0.424875 -0.304761 0.366156
v 0.448035 -0.317698 0.342042
v 0.45985 -0.305783 0.321042
v 0.489451 -0.437446 0.321042
v 0.168458 -0.437446 0.47788
v 0.168458 -0.279366 0.528491
v 0.402439 -0.279366 0.383475
v 0.4113 -0.312329 0.387392
v 0.458907 -0.320701 0.329065
v 0.462175 -0.312298 0.321042
v 0.46205 -0.311926 0.321042
v 0.4124 -0.318519 0.388831
v 0.489168 -0.434707 0.321042
v 0.483638 -0.437446 0.328687
v 0.168458 -0.437446 0.562067
v 0.168458 -0.286315 0.530638
v 0.170626 -0.279366 0.527595
v 0.399454 -0.279366 0.387345
v 0.400302 -0.283978 0.388407
v 0.401716 -0.291824 0.390247
v 0.403287 -0.300536 0.392276
v 0.404953 -0.312158 0.395532
v 0.466103 -0.324291 0.321042
v 0.423273 -0.321629 0.375854
v 0.438576 -0.324105 0.35686
v 0.401496 -0.315981 0.401526
v 0.409383 -0.323115 0.394471
v 0.413531 -0.326365 0.390318
v 0.488697 -0.430173 0.321042
v 0.482915 -0.437446 0.329631
v 0.168458 -0.430173 0.56143
v 0.187972 -0.437446 0.554069
v 0.188443 -0.437044 0.553856
v 0.168458 -0.28876 0.531394
v 0.18948 -0.279366 0.519785
v 0.198593 -0.285247 0.517826
v 0.399894 -0.308135 0.399921
v 0.393609 -0.279366 0.393621
v 0.4689 -0.334257 0.321042
v 0.460039 -0.328547 0.330551
v 0.424404 -0.329491 0.37734
v 0.387324 -0.279366 0.399496
v 0.395494 -0.312158 0.40497
v 0.388801 -0.318519 0.412427
v 0.394457 -0.323115 0.409406
v 0.397882 -0.335897 0.41035
v 0.402785 -0.324105 0.402823
v 0.410326 -0.335897 0.397915
v 0.488289 -0.427233 0.321042
v 0.471602 -0.423039 0.342066
v 0.435999 -0.424787 0.388855
v 0.472105 -0.430173 0.342679
v 0.436722 -0.437446 0.389799
v 0.436471 -0.432649 0.389492
v 0.168458 -0.418226 0.55992
v 0.271873 -0.433005 0.518888
v 0.21949 -0.430173 0.540289
v 0.270868 -0.425143 0.518463
v 0.212608 -0.423008 0.542318
v 0.272313 -0.437446 0.519053
v 0.168458 -0.300072 0.534886
v 0.190046 -0.316275 0.530945
v 0.26606 -0.31157 0.498006
v 0.263012 -0.279366 0.489323
v 0.391503 -0.279366 0.395627
v 0.444672 -0.359451 0.361225
v 0.460133 -0.363443 0.342443
v 0.47242 -0.34769 0.321042
v 0.422299 -0.34769 0.386354
v 0.424498 -0.36448 0.389232
v 0.387355 -0.312329 0.411318
v 0.312913 -0.279366 0.456597
v 0.378714 -0.300536 0.413724
v 0.316149 -0.324105 0.46981
v 0.324728 -0.324415 0.463321
v 0.377331 -0.329491 0.424436
v 0.367904 -0.312329 0.426253
v 0.354989 -0.315161 0.437178
v 0.295252 -0.316956 0.48366
v 0.310242 -0.324105 0.47434
v 0.390278 -0.326365 0.413559
v 0.392006 -0.335897 0.41488
v 0.395274 -0.348603 0.415706
v 0.400836 -0.353152 0.412615
v 0.401905 -0.359451 0.413441
v 0.409761 -0.371243 0.409784
v 0.413406 -0.359451 0.401927
v 0.412589 -0.353152 0.400865
v 0.486969 -0.418381 0.321042
v 0.486749 -0.416988 0.321042
v 0.451271 -0.430173 0.369837
v 0.46758 -0.430173 0.348578
v 0.435465 -0.418381 0.388171
v 0.420508 -0.418381 0.407637
v 0.421387 -0.430173 0.408769
v 0.423493 -0.437446 0.407
v 0.168458 -0.398449 0.557065
v 0.267662 -0.406589 0.517142
v 0.254339 -0.394332 0.520894
v 0.277781 -0.437446 0.516765
v 0.276273 -0.429507 0.516694
v 0.276964 -0.418381 0.514971
v 0.269705 -0.418381 0.517991
v 0.168458 -0.314836 0.53944
v 0.168458 -0.321165 0.541233
v 0.223104 -0.319602 0.518204
v 0.248274 -0.317172 0.507091
v 0.273476 -0.31499 0.495977
v 0.270553 -0.307144 0.494774
v 0.265023 -0.279366 0.488474
v 0.471005 -0.366972 0.329466
v 0.475499 -0.359451 0.321042
v 0.414945 -0.371243 0.403885
v 0.420822 -0.371243 0.39624
v 0.435371 -0.368055 0.376255
v 0.290853 -0.279366 0.473515
v 0.291419 -0.300536 0.480711
v 0.330541 -0.328547 0.460042
v 0.317595 -0.331889 0.470919
v 0.364353 -0.332926 0.435314
v 0.28372 -0.292861 0.483802
v 0.285511 -0.300536 0.4851
v 0.289188 -0.312746 0.486563
v 0.287931 -0.32443 0.491093
v 0.296667 -0.324105 0.484746
v 0.389209 -0.36448 0.424531
v 0.304711 -0.335897 0.481867
v 0.403853 -0.371243 0.414975
v 0.411363 -0.38302 0.411388
v 0.480778 -0.381472 0.321042
v 0.438011 -0.394812 0.3797
v 0.423807 -0.403509 0.40011
v 0.420193 -0.407099 0.405584
v 0.416485 -0.394487 0.407613
v 0.41218 -0.390355 0.412191
v 0.412903 -0.398216 0.412922
v 0.413626 -0.406589 0.413653
v 0.414631 -0.418381 0.414644
v 0.41548 -0.430173 0.415518
v 0.421764 -0.437446 0.409241
v 0.168458 -0.38302 0.554824
v 0.205255 -0.383747 0.539699
v 0.282714 -0.377557 0.506713
v 0.251762 -0.38302 0.520327
v 0.282494 -0.437446 0.514735
v 0.288748 -0.430173 0.511385
v 0.289722 -0.417855 0.509332
v 0.287334 -0.406589 0.508813
v 0.283971 -0.385418 0.507279
v 0.168458 -0.325328 0.542271
v 0.171066 -0.323099 0.540643
v 0.277247 -0.32443 0.496992
v 0.281332 -0.320716 0.494302
v 0.271433 -0.279366 0.48569
v 0.277247 -0.31157 0.49324
v 0.478516 -0.371135 0.321042
v 0.477353 -0.366631 0.321042
v 0.416171 -0.38302 0.40549
v 0.436345 -0.375901 0.377553
v 0.431789 -0.371676 0.382107
v 0.288842 -0.279366 0.475048
v 0.28152 -0.284999 0.482434
v 0.287428 -0.279366 0.476086
v 0.290759 -0.335897 0.492273
v 0.283469 -0.328578 0.49534
v 0.298803 -0.335897 0.486374
v 0.390341 -0.371243 0.42538
v 0.295661 -0.362407 0.495765
v 0.297138 -0.371243 0.496897
v 0.405487 -0.38302 0.416202
v 0.37752 -0.375901 0.436376
v 0.47198 -0.374833 0.330764
v 0.447218 -0.380745 0.364575
v 0.422079 -0.38302 0.397868
v 0.407592 -0.394487 0.416509
v 0.407592 -0.418381 0.420543
v 0.408724 -0.430173 0.421416
v 0.411803 -0.437446 0.419529
v 0.415857 -0.437446 0.415895
v 0.168458 -0.372837 0.553054
v 0.199253 -0.380296 0.541657
v 0.224455 -0.376118 0.530568
v 0.29431 -0.413568 0.506595
v 0.288245 -0.382107 0.504542
v 0.288748 -0.371243 0.502041
v 0.281112 -0.371243 0.506029
v 0.275204 -0.371243 0.508483
v 0.288748 -0.437446 0.512022
v 0.296069 -0.430173 0.507751
v 0.295284 -0.421429 0.507208
v 0.168458 -0.32963 0.543309
v 0.20029 -0.330172 0.530308
v 0.258518 -0.33141 0.506453
v 0.276964 -0.335897 0.499823
v 0.273979 -0.279366 0.484533
v 0.279792 -0.279366 0.481419
v 0.29299 -0.34769 0.49383
v 0.284883 -0.335897 0.49619
v 0.294278 -0.354561 0.494727
v 0.291356 -0.394812 0.505014
v 0.29874 -0.38302 0.498124
v 0.317783 -0.37912 0.482858
v 0.33073 -0.374833 0.471981
v 0.397851 -0.38302 0.422101
v 0.401716 -0.418381 0.425074
v 0.388832 -0.424787 0.436022
v 0.402847 -0.430173 0.425947
v 0.409226 -0.437446 0.42177
v 0.189354 -0.363939 0.542436
v 0.168458 -0.362205 0.550694
v 0.22898 -0.371816 0.52776
v 0.197179 -0.371243 0.540808
v 0.276838 -0.358739 0.505038
v 0.247614 -0.365177 0.518581
v 0.291544 -0.437446 0.51063
v 0.296572 -0.437446 0.508081
v 0.302448 -0.437446 0.503716
v 0.301977 -0.430173 0.503339
v 0.299746 -0.417855 0.503221
v 0.300563 -0.406589 0.50072
v 0.342042 -0.423039 0.471627
v 0.314421 -0.418381 0.49206
v 0.168458 -0.336455 0.544914
v 0.175088 -0.333174 0.541421
v 0.264834 -0.335572 0.504778
v 0.304648 -0.38302 0.493618
v 0.39562 -0.407099 0.427858
v 0.315552 -0.430173 0.492933
v 0.389461 -0.432649 0.436517
v 0.405581 -0.437446 0.424578
v 0.229828 -0.359451 0.524669
v 0.187218 -0.356108 0.541563
v 0.170909 -0.359451 0.549066
v 0.168458 -0.359451 0.550081
v 0.252296 -0.360534 0.515608
v 0.330698 -0.437446 0.48208
v 0.389775 -0.437446 0.43673
f 1 2 8
f 1 8 16
f 1 16 15
f 1 15 28
f 1 28 44
f 1 44 73
f 1 73 117
f 1 117 162
f 1 162 161
f 1 161 135
f 1 135 95
f 1 95 94
f 1 94 54
f 1 54 34
f 1 34 18
f 1 18 9
f 1 9 3
f 1 3 4
f 1 4 11
f 1 11 22
f 1 22 40
f 1 40 69
f 1 69 115
f 1 115 159
f 1 159 200
f 1 200 201
f 1 201 168
f 1 168 166
f 1 166 121
f 1 121 77
f 1 77 47
f 1 47 70
f 1 70 43
f 1 43 23
f 1 23 12
f 1 12 5
f 1 5 2
f 2 5 6
f 2 6 7
f 2 7 8
f 3 9 19
f 3 19 35
f 3 35 58
f 3 58 101
f 3 101 145
f 3 145 184
f 3 184 183
f 3 183 213
f 3 213 235
f 3 235 242
f 3 242 241
f 3 241 222
f 3 222 221
f 3 221 220
f 3 220 193
f 3 193 150
f 3 150 105
f 3 105 65
f 3 65 37
f 3 37 20
f 3 20 10
f 3 10 4
f 4 10 20
f 4 20 36
f 4 36 60
f 4 60 102
f 4 102 146
f 4 146 185
f 4 185 215
f 4 215 239
f 4 239 228
f 4 228 196
f 4 196 155
f 4 155 110
f 4 110 109
f 4 109 66
f 4 66 39
f 4 39 21
f 4 21 11
f 5 12 13
f 5 13 6
f 6 13 7
f 7 14 15
f 7 15 16
f 7 16 8
f 7 13 17
f 7 17 14
f 9 18 19
f 11 21 22
f 12 23 24
f 12 24 25
f 12 25 13
f 13 25 26
f 13 26 27
f 13 27 17
f 14 28 15
f 14 17 29
f 14 29 30
f 14 30 28
f 17 27 31
f 17 31 32
f 17 32 33
f 17 33 29
f 18 34 19
f 19 34 35
f 20 37 38
f 20 38 36
f 21 39 22
f 22 39 41
f 22 41 40
f 23 42 24
f 23 43 42
f 24 42 25
f 25 27 26
f 25 42 31
f 25 31 27
f 28 30 45
f 28 45 44
f 29 33 46
f 29 46 30
f 30 46 45
f 31 42 47
f 31 47 48
f 31 48 49
f 31 49 50
f 31 50 51
f 31 51 52
f 31 52 53
f 31 53 32
f 32 53 33
f 33 53 46
f 34 54 55
f 34 55 56
f 34 56 57
f 34 57 35
f 35 57 59
f 35 59 58
f 36 38 61
f 36 61 62
f 36 62 63
f 36 63 64
f 36 64 60
f 37 65 38
f 38 65 61
f 39 66 67
f 39 67 68
f 39 68 41
f 40 41 69
f 41 68 69
f 42 43 70
f 42 70 47
f 44 71 72
f 44 72 73
f 44 45 46
f 44 46 53
f 44 53 74
f 44 74 75
f 44 75 71
f 47 76 49
f 47 49 48
f 47 77 78
f 47 78 76
f 49 79 80
f 49 80 81
f 49 81 50
f 49 76 82
f 49 82 83
f 49 83 84
f 49 84 85
f 49 85 79
f 50 81 86
f 50 86 51
f 51 86 81
f 51 81 87
f 51 87 88
f 51 88 89
f 51 89 52
f 52 89 90
f 52 90 91
f 52 91 92
f 52 92 93
f 52 93 53
f 53 93 75
f 53 75 74
f 54 94 55
f 55 94 95
f 55 95 56
f 56 96 97
f 56 97 57
f 56 95 98
f 56 98 99
f 56 99 100
f 56 100 96
f 57 97 59
f 58 59 101
f 59 97 96
f 59 96 100
f 59 100 101
f 60 64 103
f 60 103 104
f 60 104 102
f 61 65 105
f 61 105 106
f 61 106 62
f 62 106 63
f 63 106 107
f 63 107 108
f 63 108 64
f 64 108 103
f 66 109 67
f 67 109 110
f 67 110 111
f 67 111 112
f 67 112 68
f 68 112 113
f 68 113 114
f 68 114 69
f 69 114 115
f 71 75 72
f 72 116 117
f 72 117 73
f 72 75 116
f 75 93 92
f 75 92 118
f 75 118 119
f 75 119 120
f 75 120 116
f 76 78 82
f 77 121 122
f 77 122 78
f 78 122 82
f 79 85 80
f 80 85 81
f 81 85 123
f 81 123 124
f 81 124 125
f 81 125 87
f 82 122 84
f 82 84 83
f 84 122 126
f 84 126 127
f 84 127 128
f 84 128 129
f 84 129 130
f 84 130 85
f 85 130 124
f 85 124 123
f 87 131 88
f 87 125 132
f 87 132 131
f 88 131 89
f 89 131 90
f 90 133 91
f 90 131 133
f 91 134 118
f 91 118 92
f 91 133 134
f 95 135 136
f 95 136 137
f 95 137 98
f 98 137 99
f 99 137 138
f 99 138 139
f 99 139 140
f 99 140 141
f 99 141 142
f 99 142 143
f 99 143 100
f 100 143 144
f 100 144 145
f 100 145 101
f 102 104 147
f 102 147 146
f 103 108 148
f 103 148 104
f 104 148 149
f 104 149 147
f 105 150 151
f 105 151 106
f 106 151 107
f 107 151 152
f 107 152 153
f 107 153 154
f 107 154 148
f 107 148 108
f 110 155 156
f 110 156 111
f 111 156 157
f 111 157 158
f 111 158 112
f 112 158 113
f 113 159 115
f 113 115 114
f 113 158 160
f 113 160 159
f 116 161 162
f 116 162 117
f 116 120 161
f 118 134 163
f 118 163 164
f 118 164 119
f 119 164 165
f 119 165 120
f 120 164 161
f 120 165 164
f 121 166 122
f 122 166 126
f 124 130 132
f 124 132 125
f 126 167 158
f 126 158 127
f 126 166 168
f 126 168 167
f 127 158 128
f 128 158 129
f 129 169 130
f 129 158 170
f 129 170 169
f 130 171 132
f 130 169 171
f 131 172 133
f 131 132 173
f 131 173 174
f 131 174 172
f 132 171 173
f 133 175 134
f 133 172 176
f 133 176 175
f 134 140 163
f 134 175 140
f 135 161 177
f 135 177 164
f 135 164 178
f 135 178 179
f 135 179 136
f 136 179 137
f 137 179 138
f 138 179 139
f 139 179 163
f 139 163 140
f 140 175 180
f 140 180 181
f 140 181 141
f 141 181 142
f 142 181 143
f 143 181 182
f 143 182 144
f 144 183 184
f 144 184 145
f 144 182 183
f 146 147 148
f 146 148 186
f 146 186 187
f 146 187 185
f 147 149 148
f 148 154 188
f 148 188 189
f 148 189 190
f 148 190 170
f 148 170 191
f 148 191 192
f 148 192 187
f 148 187 186
f 150 193 151
f 151 193 194
f 151 194 195
f 151 195 152
f 152 195 188
f 152 188 153
f 153 188 154
f 155 196 197
f 155 197 156
f 156 197 157
f 157 198 199
f 157 199 170
f 157 170 158
f 157 197 198
f 158 167 200
f 158 200 159
f 158 159 160
f 161 164 177
f 163 179 164
f 164 179 178
f 167 168 201
f 167 201 200
f 169 170 202
f 169 202 171
f 170 199 191
f 170 190 203
f 170 203 173
f 170 173 204
f 170 204 202
f 171 202 204
f 171 204 173
f 172 174 176
f 173 203 190
f 173 190 174
f 174 190 189
f 174 189 205
f 174 205 206
f 174 206 207
f 174 207 208
f 174 208 176
f 175 176 209
f 175 209 181
f 175 181 180
f 176 208 207
f 176 207 209
f 181 209 210
f 181 210 211
f 181 211 182
f 182 211 212
f 182 212 213
f 182 213 183
f 185 214 215
f 185 187 216
f 185 216 217
f 185 217 214
f 187 192 216
f 188 205 189
f 188 195 206
f 188 206 205
f 191 199 218
f 191 218 192
f 192 218 219
f 192 219 216
f 193 220 194
f 194 220 221
f 194 221 222
f 194 222 223
f 194 223 195
f 195 224 225
f 195 225 206
f 195 223 226
f 195 226 227
f 195 227 224
f 196 228 229
f 196 229 197
f 197 229 228
f 197 228 218
f 197 218 230
f 197 230 198
f 198 230 199
f 199 230 218
f 206 225 231
f 206 231 207
f 207 231 209
f 209 232 210
f 209 231 225
f 209 225 232
f 210 232 225
f 210 225 227
f 210 227 211
f 211 227 226
f 211 226 223
f 211 223 233
f 211 233 212
f 212 234 213
f 212 233 234
f 213 234 235
f 214 236 237
f 214 237 238
f 214 238 239
f 214 239 215
f 214 217 219
f 214 219 240
f 214 240 236
f 216 219 217
f 218 240 219
f 218 228 240
f 222 241 223
f 223 241 233
f 224 227 225
f 228 239 238
f 228 238 237
f 228 237 240
f 233 241 234
f 234 242 235
f 234 241 242
f 236 240 237
