v -0.477317 -0.479543 -0.14528
v -0.572174 -0.479543 -0.14528
v -0.487352 -0.437466 -0.14528
v -0.493851 -0.479543 -0.0294739
v -0.572152 -0.47916 -0.14528
v -0.57325 -0.479543 -0.13776
v -0.569502 -0.437466 -0.14528
v -0.509686 -0.437466 0.00532392
v -0.499085 -0.479543 0.00532392
v -0.572041 -0.477314 -0.14528
v -0.573561 -0.479543 -0.135533
v -0.573428 -0.477314 -0.135533
v -0.572718 -0.465528 -0.135533
v -0.571919 -0.475287 -0.14528
v -0.569713 -0.439938 -0.14528
v -0.569868 -0.437466 -0.142817
v -0.58781 -0.437466 0.00532392
v -0.590594 -0.479543 0.00532392
v -0.576732 -0.479543 -0.111455
v -0.578074 -0.477928 -0.100529
v -0.571287 -0.44196 -0.135533
v -0.589307 -0.470945 -0.012016
v -0.587522 -0.453746 -0.0176928
v -0.580602 -0.44196 -0.064832
v -0.577109 -0.44196 -0.0913579
v -0.570478 -0.451724 -0.14528
v -0.569879 -0.44196 -0.14528
v -0.570921 -0.437466 -0.135533
v -0.588021 -0.43747 0.00532392
v -0.588021 -0.437466 -0.000470799
v -0.58974 -0.46407 0.00532392
v -0.589529 -0.453746 0.00202108
v -0.58933 -0.446982 0.00041389
v -0.590594 -0.479543 -0.00589689
v -0.579771 -0.479543 -0.0883794
v -0.587234 -0.479543 -0.0317003
v -0.57152 -0.437466 -0.131036
v -0.57773 -0.437466 -0.0842951
v -0.577431 -0.437466 -0.0865658
v -0.589418 -0.479543 -0.0150977
v -0.589562 -0.479543 -0.0139918
v -0.59035 -0.479543 -0.00784321
v -0.589784 -0.466422 -0.00610332
v -0.588786 -0.453746 -0.00793168
v -0.586801 -0.44196 -0.0176928
v -0.582155 -0.44196 -0.0530361
v -0.588043 -0.43761 0.00532392
v -0.588021 -0.437466 -0.00535134
v -0.58852 -0.44402 0.00532392
v -0.588487 -0.442615 0.0049553
v -0.58933 -0.446982 -0.000426565
v -0.590461 -0.477314 -0.00589689
v -0.586446 -0.437466 -0.0176928
v -0.588487 -0.442615 -0.00496797
v -0.588409 -0.442253 0.00532392
v -0.587023 -0.437466 -0.0131808
v -0.588431 -0.442599 0.00532392
f 1 2 5
f 1 5 10
f 1 10 14
f 1 14 26
f 1 26 27
f 1 27 15
f 1 15 7
f 1 7 3
f 1 3 4
f 1 4 9
f 1 9 18
f 1 18 34
f 1 34 42
f 1 42 41
f 1 41 40
f 1 40 36
f 1 36 35
f 1 35 19
f 1 19 11
f 1 11 6
f 1 6 2
f 2 6 5
f 3 7 16
f 3 16 28
f 3 28 37
f 3 37 39
f 3 39 38
f 3 38 53
f 3 53 56
f 3 56 48
f 3 48 30
f 3 30 17
f 3 17 8
f 3 8 4
f 4 8 9
f 5 6 10
f 6 11 12
f 6 12 13
f 6 13 14
f 6 14 10
f 7 15 16
f 8 17 29
f 8 29 47
f 8 47 55
f 8 55 57
f 8 57 49
f 8 49 31
f 8 31 18
f 8 18 9
f 11 19 12
f 12 19 20
f 12 20 13
f 13 21 14
f 13 20 22
f 13 22 23
f 13 23 24
f 13 24 25
f 13 25 21
f 14 21 26
f 15 27 16
f 16 27 28
f 17 30 29
f 18 31 32
f 18 32 33
f 18 33 51
f 18 51 34
f 19 35 20
f 20 35 36
f 20 36 22
f 21 37 28
f 21 28 27
f 21 27 26
f 21 25 38
f 21 38 39
f 21 39 37
f 22 36 40
f 22 40 41
f 22 41 42
f 22 42 43
f 22 43 44
f 22 44 23
f 23 44 45
f 23 45 46
f 23 46 24
f 24 46 38
f 24 38 25
f 29 30 47
f 30 48 47
f 31 49 50
f 31 50 33
f 31 33 32
f 33 50 47
f 33 47 51
f 34 51 52
f 34 52 42
f 38 46 45
f 38 45 53
f 42 52 43
f 43 52 51
f 43 51 44
f 44 51 54
f 44 54 45
f 45 54 53
f 47 50 55
f 47 48 51
f 48 54 51
f 48 56 54
f 49 57 50
f 50 57 55
f 53 54 56
