v -0.180508 -0.185597 -0.390796
v -0.000113055 -0.185597 -0.433042
v -0.180508 -0.185597 -0.484403
v -0.180508 -0.437437 -0.472914
v -0.000113055 -0.437437 -0.509619
v -0.000113055 -0.185597 -0.520239
v -0.156402 -0.185597 -0.494366
v -0.142221 -0.199674 -0.507109
v -0.180508 -0.193782 -0.488399
v -0.180508 -0.437437 -0.55706
v -0.000113055 -0.437437 -0.58803
v -0.000113055 -0.189788 -0.52215
v -0.00590546 -0.185597 -0.520239
v -0.146724 -0.185597 -0.498362
v -0.135528 -0.197702 -0.507997
v -0.135528 -0.206257 -0.512014
v -0.14148 -0.223884 -0.518578
v -0.146619 -0.206676 -0.508692
v -0.154707 -0.210867 -0.507399
v -0.135528 -0.185597 -0.502282
v -0.135528 -0.19181 -0.505217
v -0.180508 -0.20887 -0.495737
v -0.1623 -0.437437 -0.56459
v -0.180508 -0.431446 -0.556539
v -0.161541 -0.430164 -0.564281
v -0.00535801 -0.437437 -0.58803
v -0.000113055 -0.430164 -0.587374
v -0.000113055 -0.204087 -0.528657
v -0.00590546 -0.204087 -0.528657
v -0.00846613 -0.185597 -0.519911
v -0.131519 -0.185597 -0.50317
v -0.125974 -0.18964 -0.506298
v -0.135528 -0.216587 -0.516667
v -0.150221 -0.229826 -0.517323
v -0.170724 -0.230048 -0.508924
v -0.174539 -0.226276 -0.505835
v -0.16668 -0.222307 -0.507476
v -0.162565 -0.214442 -0.505777
v -0.146177 -0.2192 -0.514601
v -0.135528 -0.222479 -0.519138
v -0.135528 -0.229826 -0.521957
v -0.135528 -0.249697 -0.529507
v -0.143193 -0.257512 -0.530994
v -0.151051 -0.261556 -0.529488
v -0.160111 -0.252409 -0.52217
v -0.180508 -0.210818 -0.496644
v -0.179907 -0.209487 -0.496277
v -0.15642 -0.437437 -0.566984
v -0.180508 -0.430164 -0.556423
v -0.154318 -0.421067 -0.566154
v -0.15566 -0.430164 -0.566675
v -0.0221878 -0.437437 -0.585849
v -0.0176845 -0.430164 -0.585849
v -0.00590546 -0.430164 -0.587374
v -0.000113055 -0.41838 -0.585984
v -0.000113055 -0.20998 -0.531322
v -0.00590546 -0.20998 -0.531322
v -0.0148943 -0.211262 -0.530743
v -0.0183733 -0.206898 -0.52831
v -0.0176845 -0.185597 -0.518713
v -0.123731 -0.185597 -0.504754
v -0.122725 -0.185597 -0.504889
v -0.0981248 -0.185597 -0.508133
v -0.100173 -0.204753 -0.51657
v -0.107573 -0.211705 -0.518752
v -0.123731 -0.206257 -0.514137
v -0.123731 -0.214269 -0.51769
v -0.160111 -0.240501 -0.517458
v -0.180508 -0.253198 -0.514041
v -0.180508 -0.231946 -0.505622
v -0.180508 -0.230048 -0.504869
v -0.180508 -0.229136 -0.504503
v -0.180508 -0.220236 -0.500815
v -0.180508 -0.217524 -0.499675
v -0.123731 -0.220162 -0.520065
v -0.123731 -0.229826 -0.523753
v -0.135528 -0.255589 -0.531708
v -0.135528 -0.26518 -0.535164
v -0.135528 -0.276964 -0.538949
v -0.142663 -0.293335 -0.542501
v -0.147307 -0.276964 -0.53611
v -0.147201 -0.265352 -0.532345
v -0.154724 -0.269396 -0.530974
v -0.176322 -0.259781 -0.518366
v -0.180508 -0.255589 -0.514987
v -0.150486 -0.437437 -0.568471
v -0.180508 -0.41838 -0.554936
v -0.147307 -0.430164 -0.568606
v -0.158592 -0.41764 -0.563895
v -0.159104 -0.406595 -0.562099
v -0.159104 -0.383026 -0.558701
v -0.152623 -0.413202 -0.565594
v -0.0843148 -0.437437 -0.57772
v -0.0835908 -0.434651 -0.577623
v -0.0294813 -0.430164 -0.584304
v -0.0805533 -0.426787 -0.577237
v -0.0727124 -0.422324 -0.577739
v -0.0176845 -0.41838 -0.584458
v -0.00590546 -0.41838 -0.585984
v -0.000113055 -0.383026 -0.581234
v -0.000113055 -0.235718 -0.542154
v -0.00590546 -0.218041 -0.534701
v -0.0227529 -0.21242 -0.530241
v -0.0530394 -0.206257 -0.523463
v -0.0275917 -0.185597 -0.51742
v -0.0658427 -0.205123 -0.521262
v -0.0883943 -0.208944 -0.520026
v -0.115431 -0.212913 -0.518231
v -0.0294813 -0.21348 -0.529796
v -0.0412603 -0.215403 -0.529024
v -0.0412603 -0.221296 -0.531399
v -0.0583726 -0.224131 -0.53026
v -0.111952 -0.229826 -0.525317
v -0.127528 -0.248267 -0.530067
v -0.123661 -0.25268 -0.53221
v -0.0694453 -0.259756 -0.541961
v -0.0883943 -0.269174 -0.542791
v -0.0956701 -0.270554 -0.542308
v -0.103529 -0.272231 -0.541787
v -0.0108149 -0.271516 -0.553797
v -0.0766152 -0.276964 -0.546711
v -0.0530394 -0.312294 -0.559995
v -0.0879704 -0.31185 -0.555264
v -0.135528 -0.312294 -0.549124
v -0.150521 -0.297477 -0.541246
v -0.147307 -0.324103 -0.549858
v -0.147307 -0.312294 -0.546653
v -0.146883 -0.301051 -0.543467
v -0.154018 -0.305341 -0.542463
v -0.158821 -0.277729 -0.531959
v -0.162583 -0.274326 -0.529333
v -0.180508 -0.276718 -0.522652
v -0.180508 -0.269124 -0.520123
v -0.179925 -0.267645 -0.519853
v -0.180508 -0.267078 -0.519409
v -0.180508 -0.262468 -0.517652
v -0.147307 -0.437437 -0.569205
v -0.180508 -0.406595 -0.553237
v -0.148137 -0.41764 -0.566946
v -0.135528 -0.41838 -0.568935
v -0.135528 -0.430164 -0.570325
v -0.140031 -0.437437 -0.570267
v -0.147307 -0.383026 -0.562273
v -0.180508 -0.398829 -0.552117
v -0.180508 -0.396955 -0.551847
v -0.16781 -0.383026 -0.55509
v -0.166186 -0.374841 -0.554415
v -0.159757 -0.371044 -0.556249
v -0.147307 -0.371241 -0.560207
v -0.141603 -0.400481 -0.565729
v -0.135528 -0.437437 -0.570923
v -0.123731 -0.430164 -0.571889
v -0.0766328 -0.430485 -0.578125
v -0.123731 -0.41838 -0.570499
v -0.0294813 -0.41838 -0.582914
v -0.0176845 -0.383026 -0.579709
v -0.00590546 -0.383026 -0.581234
v -0.000113055 -0.363253 -0.577913
v -0.000113055 -0.270012 -0.55428
v -0.00295628 -0.270012 -0.55428
v -0.00590546 -0.253395 -0.547946
v -0.0047929 -0.241216 -0.543602
v -0.0047929 -0.230985 -0.539818
v -0.0294813 -0.219373 -0.532171
v -0.0183733 -0.217031 -0.532673
v -0.0176845 -0.229826 -0.537732
v -0.0538871 -0.228766 -0.532577
v -0.0648361 -0.241611 -0.535879
v -0.0766152 -0.253395 -0.538678
v -0.0615867 -0.258351 -0.542482
v -0.0176845 -0.26518 -0.550688
v -0.0530394 -0.26518 -0.546035
v -0.0412603 -0.276964 -0.551364
v -0.00648824 -0.265722 -0.552329
v -0.00648824 -0.276052 -0.55565
v -0.00590546 -0.308571 -0.565092
v -0.0153711 -0.316559 -0.566173
v -0.0186558 -0.312491 -0.564571
v -0.10805 -0.317298 -0.554183
v -0.115908 -0.319271 -0.553662
v -0.123731 -0.321465 -0.55314
v -0.135016 -0.324892 -0.552445
v -0.138619 -0.331746 -0.553546
v -0.160164 -0.323092 -0.545127
v -0.156632 -0.312294 -0.543544
v -0.143351 -0.33961 -0.554376
v -0.14729 -0.335764 -0.552561
v -0.15121 -0.343999 -0.553411
v -0.170018 -0.277729 -0.527325
v -0.158415 -0.301051 -0.539335
v -0.16253 -0.312294 -0.541111
v -0.170883 -0.312294 -0.537655
v -0.180508 -0.280145 -0.523714
v -0.13763 -0.392616 -0.565208
v -0.134433 -0.384111 -0.564474
v -0.135528 -0.371241 -0.562196
v -0.180508 -0.383026 -0.549819
v -0.180508 -0.374076 -0.548217
v -0.180508 -0.371192 -0.547695
v -0.164119 -0.366976 -0.553546
v -0.162088 -0.359457 -0.552716
v -0.15619 -0.359457 -0.555148
v -0.154124 -0.351863 -0.554299
v -0.147307 -0.359457 -0.557697
v -0.0294813 -0.406595 -0.581331
v -0.029287 -0.383174 -0.578203
v -0.117904 -0.377084 -0.56571
v -0.0330838 -0.379352 -0.577179
v -0.0252253 -0.376049 -0.577701
v -0.0176845 -0.373608 -0.578203
v -0.00678845 -0.37023 -0.578936
v -0.00345076 -0.363253 -0.577913
v -0.000113055 -0.329896 -0.570537
v -0.000113055 -0.314438 -0.566772
v -0.00590546 -0.288749 -0.559377
v -0.00590546 -0.314438 -0.566772
v -0.00590546 -0.300534 -0.562775
v -0.0176845 -0.253395 -0.546421
v -0.00798931 -0.237025 -0.541652
v -0.0176845 -0.244643 -0.543197
v -0.0303466 -0.252335 -0.544374
v -0.00590546 -0.324103 -0.569243
v -0.0232297 -0.318383 -0.565652
v -0.0294813 -0.320134 -0.565247
v -0.123731 -0.327357 -0.554531
v -0.13076 -0.329354 -0.554067
v -0.0459402 -0.330759 -0.565536
v -0.0530394 -0.332978 -0.565073
v -0.0176845 -0.335887 -0.570344
v -0.064324 -0.336627 -0.564358
v -0.0883943 -0.347672 -0.563509
v -0.123731 -0.359457 -0.561327
v -0.135528 -0.359457 -0.559763
v -0.164808 -0.318482 -0.542057
v -0.159104 -0.335887 -0.548641
v -0.167192 -0.326346 -0.543042
v -0.180508 -0.290993 -0.527074
v -0.180508 -0.312318 -0.533658
v -0.180508 -0.306303 -0.531805
v -0.180508 -0.301988 -0.530472
v -0.125762 -0.380906 -0.565189
v -0.0883943 -0.383026 -0.570402
v -0.0961469 -0.364165 -0.565942
v -0.111952 -0.369244 -0.564899
v -0.100103 -0.370847 -0.566791
v -0.180508 -0.362045 -0.545668
v -0.180508 -0.341607 -0.541073
v -0.158468 -0.34782 -0.551596
v -0.0370926 -0.387217 -0.57772
v -0.0883943 -0.371241 -0.568413
v -0.0113094 -0.365645 -0.57743
v -0.00590546 -0.347672 -0.574341
v -0.00590546 -0.335887 -0.57185
v -0.000113055 -0.324103 -0.569243
v -0.0380816 -0.328442 -0.566058
v -0.0186558 -0.323018 -0.567332
v -0.0294813 -0.359457 -0.573742
v -0.0883943 -0.355857 -0.565227
v -0.0883943 -0.361749 -0.566463
v -0.180508 -0.323906 -0.536921
v -0.180508 -0.314537 -0.534295
v -0.175051 -0.333151 -0.54142
v -0.180508 -0.335961 -0.539798
v -0.180508 -0.326667 -0.537597
f 1 2 6
f 1 6 13
f 1 13 30
f 1 30 60
f 1 60 105
f 1 105 63
f 1 63 62
f 1 62 61
f 1 61 31
f 1 31 20
f 1 20 14
f 1 14 7
f 1 7 3
f 1 3 9
f 1 9 22
f 1 22 46
f 1 46 74
f 1 74 73
f 1 73 72
f 1 72 71
f 1 71 70
f 1 70 69
f 1 69 85
f 1 85 136
f 1 136 135
f 1 135 133
f 1 133 132
f 1 132 193
f 1 193 237
f 1 237 240
f 1 240 239
f 1 239 238
f 1 238 261
f 1 261 260
f 1 260 264
f 1 264 263
f 1 263 247
f 1 247 246
f 1 246 199
f 1 199 198
f 1 198 197
f 1 197 145
f 1 145 144
f 1 144 138
f 1 138 87
f 1 87 49
f 1 49 24
f 1 24 10
f 1 10 4
f 1 4 5
f 1 5 2
f 2 5 11
f 2 11 27
f 2 27 55
f 2 55 100
f 2 100 158
f 2 158 213
f 2 213 254
f 2 254 214
f 2 214 159
f 2 159 101
f 2 101 56
f 2 56 28
f 2 28 12
f 2 12 6
f 3 7 8
f 3 8 9
f 4 10 23
f 4 23 48
f 4 48 86
f 4 86 137
f 4 137 142
f 4 142 151
f 4 151 93
f 4 93 52
f 4 52 26
f 4 26 11
f 4 11 5
f 6 12 13
f 7 14 8
f 8 15 16
f 8 16 17
f 8 17 18
f 8 18 19
f 8 19 9
f 8 14 20
f 8 20 21
f 8 21 15
f 9 19 22
f 10 24 25
f 10 25 23
f 11 26 54
f 11 54 27
f 12 28 29
f 12 29 13
f 13 29 30
f 15 21 31
f 15 31 32
f 15 32 16
f 16 33 17
f 16 32 33
f 17 34 35
f 17 35 36
f 17 36 37
f 17 37 38
f 17 38 39
f 17 39 18
f 17 33 40
f 17 40 41
f 17 41 42
f 17 42 43
f 17 43 44
f 17 44 45
f 17 45 34
f 18 39 19
f 19 39 38
f 19 38 46
f 19 46 47
f 19 47 22
f 20 31 21
f 22 47 46
f 23 25 51
f 23 51 48
f 24 49 25
f 25 49 50
f 25 50 51
f 26 52 53
f 26 53 54
f 27 54 99
f 27 99 55
f 28 56 57
f 28 57 29
f 29 57 58
f 29 58 59
f 29 59 60
f 29 60 30
f 31 61 32
f 32 61 62
f 32 62 63
f 32 63 64
f 32 64 65
f 32 65 66
f 32 66 33
f 33 67 40
f 33 66 67
f 34 45 68
f 34 68 35
f 35 68 69
f 35 69 70
f 35 70 71
f 35 71 36
f 36 72 73
f 36 73 37
f 36 71 72
f 37 73 74
f 37 74 38
f 38 74 46
f 40 67 75
f 40 75 41
f 41 76 42
f 41 75 76
f 42 77 43
f 42 76 77
f 43 77 78
f 43 78 79
f 43 79 80
f 43 80 81
f 43 81 82
f 43 82 83
f 43 83 44
f 44 83 84
f 44 84 45
f 45 84 85
f 45 85 69
f 45 69 68
f 48 51 86
f 49 87 50
f 50 88 51
f 50 87 89
f 50 89 90
f 50 90 91
f 50 91 92
f 50 92 88
f 51 88 86
f 52 93 94
f 52 94 53
f 53 95 96
f 53 96 97
f 53 97 98
f 53 98 99
f 53 99 54
f 53 94 95
f 55 99 157
f 55 157 100
f 56 101 57
f 57 101 102
f 57 102 58
f 58 102 103
f 58 103 59
f 59 103 104
f 59 104 105
f 59 105 60
f 63 105 106
f 63 106 64
f 64 106 107
f 64 107 65
f 65 107 103
f 65 103 108
f 65 108 66
f 66 108 67
f 67 109 110
f 67 110 111
f 67 111 75
f 67 108 109
f 75 111 112
f 75 112 76
f 76 112 113
f 76 113 114
f 76 114 77
f 77 114 115
f 77 115 116
f 77 116 78
f 78 117 118
f 78 118 119
f 78 119 79
f 78 116 117
f 79 119 120
f 79 120 121
f 79 121 122
f 79 122 123
f 79 123 124
f 79 124 80
f 80 125 81
f 80 124 126
f 80 126 127
f 80 127 128
f 80 128 125
f 81 125 129
f 81 129 83
f 81 83 82
f 83 130 131
f 83 131 132
f 83 132 133
f 83 133 134
f 83 134 135
f 83 135 84
f 83 129 130
f 84 136 85
f 84 135 136
f 86 88 137
f 87 138 91
f 87 91 90
f 87 90 89
f 88 92 139
f 88 139 140
f 88 140 141
f 88 141 142
f 88 142 137
f 91 143 92
f 91 138 144
f 91 144 145
f 91 145 146
f 91 146 147
f 91 147 148
f 91 148 149
f 91 149 143
f 92 143 150
f 92 150 139
f 93 151 94
f 94 141 152
f 94 152 153
f 94 153 95
f 94 151 141
f 95 153 96
f 96 140 97
f 96 153 152
f 96 152 141
f 96 141 140
f 97 140 154
f 97 154 155
f 97 155 98
f 98 155 205
f 98 205 156
f 98 156 157
f 98 157 99
f 100 157 212
f 100 212 158
f 101 159 160
f 101 160 161
f 101 161 162
f 101 162 163
f 101 163 102
f 102 111 164
f 102 164 165
f 102 165 109
f 102 109 103
f 102 163 166
f 102 166 111
f 103 107 104
f 103 109 108
f 104 107 106
f 104 106 105
f 109 165 164
f 109 164 111
f 109 111 110
f 111 166 112
f 112 166 167
f 112 167 113
f 113 168 169
f 113 169 115
f 113 115 114
f 113 167 168
f 115 169 170
f 115 170 116
f 116 170 171
f 116 171 172
f 116 172 117
f 117 172 171
f 117 171 120
f 117 120 118
f 118 120 119
f 120 173 121
f 120 171 174
f 120 174 160
f 120 160 175
f 120 175 176
f 120 176 177
f 120 177 178
f 120 178 122
f 120 122 173
f 121 173 122
f 122 178 177
f 122 177 179
f 122 179 123
f 123 179 124
f 124 179 180
f 124 180 181
f 124 181 182
f 124 182 183
f 124 183 126
f 125 128 129
f 126 184 185
f 126 185 127
f 126 183 186
f 126 186 187
f 126 187 188
f 126 188 184
f 127 185 129
f 127 129 128
f 129 185 130
f 130 189 131
f 130 185 190
f 130 190 191
f 130 191 192
f 130 192 189
f 131 189 132
f 132 189 193
f 133 135 134
f 139 150 140
f 140 150 194
f 140 194 154
f 141 151 142
f 143 195 150
f 143 149 196
f 143 196 195
f 145 197 146
f 146 197 147
f 147 198 199
f 147 199 148
f 147 197 198
f 148 199 200
f 148 200 201
f 148 201 202
f 148 202 149
f 149 202 203
f 149 203 188
f 149 188 204
f 149 204 186
f 149 186 196
f 150 195 194
f 154 194 155
f 155 194 205
f 156 205 206
f 156 206 207
f 156 207 208
f 156 208 157
f 157 208 209
f 157 209 210
f 157 210 211
f 157 211 212
f 158 212 213
f 159 214 216
f 159 216 160
f 160 215 175
f 160 174 161
f 160 216 176
f 160 176 217
f 160 217 215
f 161 218 219
f 161 219 162
f 161 174 171
f 161 171 218
f 162 219 163
f 163 219 166
f 166 219 220
f 166 220 221
f 166 221 168
f 166 168 167
f 168 221 169
f 169 221 170
f 170 221 218
f 170 218 171
f 175 215 217
f 175 217 176
f 176 216 177
f 177 216 222
f 177 222 223
f 177 223 179
f 179 223 180
f 180 223 224
f 180 224 225
f 180 225 181
f 181 225 226
f 181 226 182
f 182 226 183
f 183 226 227
f 183 227 228
f 183 228 229
f 183 229 230
f 183 230 231
f 183 231 232
f 183 232 233
f 183 233 196
f 183 196 186
f 184 234 185
f 184 188 235
f 184 235 236
f 184 236 234
f 185 191 190
f 185 234 191
f 186 204 188
f 186 188 187
f 188 203 235
f 189 237 193
f 189 192 237
f 191 234 192
f 192 234 238
f 192 238 239
f 192 239 240
f 192 240 237
f 194 195 241
f 194 241 207
f 194 207 242
f 194 242 205
f 195 196 207
f 195 207 241
f 196 233 232
f 196 232 243
f 196 243 244
f 196 244 245
f 196 245 207
f 199 246 200
f 200 246 201
f 201 246 247
f 201 247 248
f 201 248 203
f 201 203 202
f 203 248 235
f 205 242 249
f 205 249 206
f 206 242 207
f 206 249 242
f 207 209 208
f 207 245 250
f 207 250 210
f 207 210 209
f 210 250 251
f 210 251 211
f 211 251 212
f 212 251 252
f 212 252 253
f 212 253 222
f 212 222 213
f 213 222 254
f 214 254 222
f 214 222 216
f 218 221 220
f 218 220 219
f 222 253 229
f 222 229 255
f 222 255 256
f 222 256 223
f 223 256 224
f 224 256 255
f 224 255 225
f 225 255 226
f 226 255 227
f 227 255 229
f 227 229 228
f 229 253 252
f 229 252 251
f 229 251 257
f 229 257 230
f 230 257 231
f 231 257 258
f 231 258 232
f 232 258 259
f 232 259 243
f 234 236 260
f 234 260 261
f 234 261 238
f 235 262 236
f 235 248 247
f 235 247 263
f 235 263 262
f 236 262 264
f 236 264 260
f 243 259 251
f 243 251 245
f 243 245 244
f 245 251 250
f 251 259 257
f 257 259 258
f 262 263 264
