v -0.00591708 -0.479543 -0.590605
v -0.0139931 -0.479543 -0.589559
v -0.0134729 -0.477314 -0.589497
v -0.00794848 -0.453746 -0.588779
v -0.0049757 -0.442615 -0.588482
v -0.000442217 -0.446982 -0.589325
v -0.000120167 -0.479543 -0.590605
v -0.0187743 -0.479543 -0.588935
v -0.0294763 -0.453746 -0.585969
v -0.0176843 -0.453746 -0.587515
v -0.0176843 -0.44196 -0.586797
v -0.00537207 -0.437466 -0.58803
v -0.000120167 -0.446982 -0.589325
v -0.000120167 -0.479543 -0.49902
v -0.0412684 -0.44196 -0.583706
v -0.07439 -0.479543 -0.581615
v -0.0176843 -0.437466 -0.586438
v -0.0843241 -0.437466 -0.577729
v -0.000120167 -0.437466 -0.58803
v -0.253178 -0.479543 -0.431159
v -0.000120167 -0.437466 -0.509649
v -0.10937 -0.479543 -0.577011
v -0.0854884 -0.44196 -0.577885
v -0.123763 -0.44196 -0.572844
v -0.13553 -0.44196 -0.571283
v -0.13553 -0.437466 -0.570924
v -0.253178 -0.437466 -0.441897
v -0.253178 -0.479543 -0.529783
v -0.133301 -0.479543 -0.573858
v -0.13553 -0.453746 -0.572001
v -0.147297 -0.479543 -0.571892
v -0.147297 -0.465528 -0.571033
v -0.147297 -0.44196 -0.569582
v -0.147297 -0.437466 -0.569207
v -0.253178 -0.437466 -0.526958
v -0.253178 -0.477314 -0.529642
v -0.227562 -0.479543 -0.540396
v -0.13553 -0.479543 -0.573562
v -0.159089 -0.479543 -0.568661
v -0.156885 -0.44196 -0.567178
v -0.156414 -0.437466 -0.566991
v -0.150493 -0.437466 -0.568473
v -0.253178 -0.437606 -0.526973
v -0.188891 -0.437466 -0.553678
v -0.253178 -0.457775 -0.528378
v -0.189882 -0.479543 -0.556003
v -0.165729 -0.479543 -0.566008
v -0.162781 -0.44196 -0.56479
v -0.16231 -0.437466 -0.564587
v -0.253178 -0.44196 -0.527348
v -0.18795 -0.437466 -0.554068
v -0.253178 -0.444551 -0.52752
v -0.2207 -0.44196 -0.540802
f 1 2 3
f 1 3 4
f 1 4 5
f 1 5 6
f 1 6 13
f 1 13 7
f 1 7 14
f 1 14 20
f 1 20 28
f 1 28 37
f 1 37 46
f 1 46 47
f 1 47 39
f 1 39 31
f 1 31 38
f 1 38 29
f 1 29 22
f 1 22 16
f 1 16 8
f 1 8 2
f 2 8 3
f 3 8 9
f 3 9 10
f 3 10 4
f 4 10 11
f 4 11 5
f 5 12 6
f 5 11 12
f 6 12 19
f 6 19 13
f 7 13 19
f 7 19 21
f 7 21 14
f 8 15 9
f 8 16 15
f 9 15 11
f 9 11 10
f 11 17 12
f 11 15 18
f 11 18 17
f 12 17 18
f 12 18 26
f 12 26 34
f 12 34 42
f 12 42 41
f 12 41 49
f 12 49 51
f 12 51 44
f 12 44 35
f 12 35 27
f 12 27 21
f 12 21 19
f 14 21 20
f 15 16 22
f 15 22 23
f 15 23 18
f 18 23 24
f 18 24 25
f 18 25 26
f 20 27 35
f 20 35 43
f 20 43 50
f 20 50 52
f 20 52 45
f 20 45 36
f 20 36 28
f 20 21 27
f 22 29 24
f 22 24 23
f 24 29 30
f 24 30 25
f 25 30 31
f 25 31 32
f 25 32 33
f 25 33 26
f 26 33 34
f 28 36 37
f 29 38 30
f 30 38 31
f 31 39 40
f 31 40 32
f 32 40 33
f 33 40 41
f 33 41 42
f 33 42 34
f 35 44 43
f 36 45 46
f 36 46 37
f 39 47 40
f 40 47 48
f 40 48 41
f 41 48 49
f 43 44 50
f 44 51 50
f 45 52 48
f 45 48 47
f 45 47 46
f 48 51 49
f 48 52 53
f 48 53 51
f 50 51 53
f 50 53 52
