v 0.590605 -0.479543 0.00590259
v 0.589063 -0.463085 0.0101616
v 0.5893 -0.470945 0.0120158
v 0.589491 -0.477314 0.013479
v 0.589558 -0.479543 0.013986
v 0.590605 -0.479543 0.00102068
v 0.589401 -0.449499 0.00102068
v 0.589288 -0.447522 0.00102068
v 0.589536 -0.453746 0.00204921
v 0.588489 -0.442615 0.00497546
v 0.587522 -0.453746 0.01768
v 0.588422 -0.466422 0.016637
v 0.589412 -0.479543 0.0151014
v 0.499019 -0.479543 0.00102068
v 0.589221 -0.446405 0.00102068
v 0.588028 -0.437466 0.0053521
v 0.587027 -0.437466 0.0131892
v 0.586801 -0.44196 0.01768
v 0.583707 -0.44196 0.0412638
v 0.582874 -0.479543 0.0648331
v 0.588602 -0.479543 0.0212726
v 0.49588 -0.479543 0.01768
v 0.509619 -0.437466 0.00102068
v 0.588028 -0.437466 0.00102068
v 0.586441 -0.437466 0.01768
v 0.577428 -0.437466 0.0865627
v 0.580601 -0.44196 0.0648331
v 0.572004 -0.453746 0.135527
v 0.577012 -0.479543 0.10935
v 0.493843 -0.479543 0.0294719
v 0.485921 -0.437466 0.149013
v 0.570924 -0.437466 0.135527
v 0.571284 -0.44196 0.135527
v 0.571757 -0.477314 0.147319
v 0.571892 -0.479543 0.147319
v 0.573557 -0.479543 0.135527
v 0.47576 -0.479543 0.147319
v 0.475659 -0.479534 0.149013
v 0.568786 -0.437466 0.149013
v 0.569214 -0.437466 0.147319
v 0.569585 -0.44196 0.147319
v 0.569157 -0.44196 0.149013
v 0.57143 -0.479543 0.149013
v 0.475659 -0.479543 0.148984
v 0.48546 -0.479543 0.149013
v 0.568853 -0.438261 0.149013
f 1 2 3
f 1 3 4
f 1 4 5
f 1 5 13
f 1 13 21
f 1 21 20
f 1 20 29
f 1 29 36
f 1 36 35
f 1 35 43
f 1 43 45
f 1 45 44
f 1 44 37
f 1 37 30
f 1 30 22
f 1 22 14
f 1 14 6
f 1 6 7
f 1 7 8
f 1 8 9
f 1 9 10
f 1 10 2
f 2 11 3
f 2 10 11
f 3 12 4
f 3 11 12
f 4 12 5
f 5 12 13
f 6 14 23
f 6 23 24
f 6 24 15
f 6 15 8
f 6 8 7
f 8 15 9
f 9 15 10
f 10 15 16
f 10 16 17
f 10 17 18
f 10 18 11
f 11 18 19
f 11 19 20
f 11 20 12
f 12 20 21
f 12 21 13
f 14 22 23
f 15 24 16
f 16 24 23
f 16 23 31
f 16 31 39
f 16 39 40
f 16 40 32
f 16 32 26
f 16 26 25
f 16 25 17
f 17 25 18
f 18 25 26
f 18 26 19
f 19 27 28
f 19 28 29
f 19 29 20
f 19 26 27
f 22 30 23
f 23 30 31
f 26 32 33
f 26 33 27
f 27 33 28
f 28 33 34
f 28 34 35
f 28 35 36
f 28 36 29
f 30 37 31
f 31 37 38
f 31 38 45
f 31 45 43
f 31 43 42
f 31 42 46
f 31 46 39
f 32 40 41
f 32 41 33
f 33 41 34
f 34 41 42
f 34 42 35
f 35 42 43
f 37 44 38
f 38 44 45
f 39 46 40
f 40 46 41
f 41 46 42
