v -0.14169 -0.437462 0.570038
v -0.14169 -0.430171 0.569436
v -0.147321 -0.437462 0.569213
v -0.14169 -0.437462 0.488701
v -0.14169 -0.424525 0.568768
v -0.147321 -0.430171 0.568612
v -0.156429 -0.437462 0.566985
v -0.155668 -0.430171 0.566673
v -0.261283 -0.437462 0.437114
v -0.261283 -0.186673 0.342384
v -0.14169 -0.186673 0.407498
v -0.14169 -0.418019 0.567965
v -0.148152 -0.417626 0.56694
v -0.152636 -0.413208 0.565603
v -0.154333 -0.421063 0.566138
v -0.16007 -0.437462 0.565514
v -0.161556 -0.430171 0.564266
v -0.261283 -0.437462 0.523598
v -0.261283 -0.186673 0.450618
v -0.14169 -0.186673 0.500668
v -0.14169 -0.400688 0.565737
v -0.144079 -0.406579 0.566138
v -0.147321 -0.383013 0.562261
v -0.15911 -0.383013 0.558695
v -0.212573 -0.423003 0.542316
v -0.170898 -0.430171 0.560411
v -0.158606 -0.417626 0.563887
v -0.170898 -0.418387 0.558918
v -0.188914 -0.437462 0.553681
v -0.261283 -0.434884 0.523375
v -0.254271 -0.186673 0.454317
v -0.261283 -0.206189 0.460712
v -0.258731 -0.200837 0.459398
v -0.146724 -0.186673 0.498907
v -0.142241 -0.199683 0.507108
v -0.14169 -0.199045 0.506952
v -0.14169 -0.383504 0.563241
v -0.14169 -0.377391 0.562238
v -0.14169 -0.371229 0.561169
v -0.147321 -0.371229 0.56021
v -0.159765 -0.371033 0.556244
v -0.166204 -0.374838 0.554417
v -0.199263 -0.380288 0.54167
v -0.167831 -0.383013 0.555085
v -0.177828 -0.406579 0.55435
v -0.261283 -0.429753 0.522929
v -0.194463 -0.418387 0.549158
v -0.261283 -0.418387 0.521481
v -0.244508 -0.186673 0.458395
v -0.261283 -0.208202 0.461626
v -0.253791 -0.217702 0.469381
v -0.254236 -0.205354 0.463476
v -0.154099 -0.186673 0.495854
v -0.154731 -0.210878 0.507397
v -0.146631 -0.20668 0.50869
v -0.14169 -0.223667 0.518406
v -0.14169 -0.199511 0.507175
v -0.143376 -0.339611 0.554372
v -0.14169 -0.336812 0.554082
v -0.147321 -0.359446 0.557692
v -0.151231 -0.344005 0.553414
v -0.154146 -0.351861 0.554305
v -0.156206 -0.359446 0.555152
v -0.164143 -0.366982 0.553548
v -0.170441 -0.371033 0.551832
v -0.261283 -0.371229 0.514239
v -0.224443 -0.376115 0.53055
v -0.261283 -0.383013 0.516378
v -0.182686 -0.383013 0.548935
v -0.260241 -0.397938 0.518963
v -0.229781 -0.186673 0.464501
v -0.241897 -0.206189 0.469002
v -0.261283 -0.227129 0.470139
v -0.257994 -0.225288 0.470874
v -0.250127 -0.221384 0.472501
v -0.24603 -0.213529 0.470807
v -0.238163 -0.210067 0.472434
v -0.162926 -0.186673 0.4922
v -0.200492 -0.200248 0.483264
v -0.212971 -0.211442 0.483554
v -0.187779 -0.212891 0.494651
v -0.162586 -0.214437 0.505771
v -0.146186 -0.2192 0.514595
v -0.14169 -0.224011 0.518539
v -0.166695 -0.222293 0.507464
v -0.224935 -0.222955 0.48362
v -0.199743 -0.224576 0.49474
v -0.153104 -0.235844 0.518517
v -0.160116 -0.252389 0.522172
v -0.151056 -0.261546 0.529481
v -0.147204 -0.253519 0.527876
v -0.143201 -0.25752 0.530996
v -0.147321 -0.324096 0.549848
v -0.14731 -0.335757 0.552567
v -0.14169 -0.333154 0.553191
v -0.160187 -0.323089 0.545124
v -0.15911 -0.335879 0.548645
v -0.261283 -0.34538 0.508467
v -0.189336 -0.363938 0.54245
v -0.258509 -0.331387 0.506461
v -0.261283 -0.359348 0.511609
v -0.221072 -0.186673 0.468111
v -0.261283 -0.232161 0.472233
v -0.261283 -0.232922 0.472545
v -0.253791 -0.229461 0.474283
v -0.191888 -0.220746 0.496367
v -0.14169 -0.255973 0.530706
v -0.252609 -0.254255 0.484601
v -0.171799 -0.252389 0.517336
v -0.201522 -0.25806 0.507264
v -0.176341 -0.259778 0.518361
v -0.154731 -0.269402 0.530974
v -0.147204 -0.265351 0.532333
v -0.147321 -0.276963 0.536099
v -0.142674 -0.293336 0.542495
v -0.14169 -0.292256 0.542339
v -0.14169 -0.276963 0.537458
v -0.14169 -0.257152 0.53113
v -0.14169 -0.324464 0.551052
v -0.14169 -0.318474 0.549492
v -0.14169 -0.312313 0.547843
v -0.147321 -0.312313 0.546662
v -0.156651 -0.312313 0.543542
v -0.171038 -0.323089 0.540645
v -0.16721 -0.326354 0.543029
v -0.164822 -0.318474 0.542049
v -0.200269 -0.33016 0.530305
v -0.245444 -0.35731 0.517715
v -0.261283 -0.333228 0.505726
v -0.250443 -0.324096 0.507999
v -0.261283 -0.324096 0.503498
v -0.261283 -0.237071 0.474194
v -0.261283 -0.253052 0.480523
v -0.261283 -0.257275 0.482194
v -0.234581 -0.260515 0.494517
v -0.209377 -0.262282 0.505637
v -0.238175 -0.268371 0.49601
v -0.212971 -0.270138 0.507108
v -0.18779 -0.272126 0.518227
v -0.162586 -0.274311 0.529347
v -0.15884 -0.277748 0.531954
v -0.154041 -0.305341 0.542472
v -0.150529 -0.297485 0.541247
v -0.14169 -0.293066 0.542584
v -0.16254 -0.312313 0.541113
v -0.223073 -0.319579 0.518205
v -0.190026 -0.316265 0.530952
v -0.248266 -0.317149 0.507085
v -0.261283 -0.320586 0.502539
v -0.261283 -0.261251 0.483732
v -0.253381 -0.265179 0.488501
v -0.24603 -0.273035 0.494384
v -0.261283 -0.265965 0.485515
v -0.190717 -0.279982 0.519453
v -0.241488 -0.312853 0.508578
v -0.252667 -0.312853 0.503943
v -0.261283 -0.312043 0.500111
v -0.261283 -0.276963 0.48928
v -0.261283 -0.299449 0.496233
f 1 2 6
f 1 6 3
f 1 3 7
f 1 7 16
f 1 16 29
f 1 29 18
f 1 18 9
f 1 9 4
f 1 4 11
f 1 11 20
f 1 20 36
f 1 36 57
f 1 57 56
f 1 56 84
f 1 84 107
f 1 107 118
f 1 118 117
f 1 117 116
f 1 116 144
f 1 144 121
f 1 121 120
f 1 120 119
f 1 119 95
f 1 95 59
f 1 59 39
f 1 39 38
f 1 38 37
f 1 37 21
f 1 21 12
f 1 12 5
f 1 5 2
f 2 5 6
f 3 6 8
f 3 8 7
f 4 9 10
f 4 10 11
f 5 12 13
f 5 13 6
f 6 13 14
f 6 14 15
f 6 15 8
f 7 8 16
f 8 17 16
f 8 15 17
f 9 18 30
f 9 30 46
f 9 46 48
f 9 48 68
f 9 68 66
f 9 66 101
f 9 101 98
f 9 98 129
f 9 129 131
f 9 131 149
f 9 149 157
f 9 157 159
f 9 159 158
f 9 158 153
f 9 153 150
f 9 150 134
f 9 134 133
f 9 133 132
f 9 132 104
f 9 104 103
f 9 103 73
f 9 73 50
f 9 50 32
f 9 32 19
f 9 19 10
f 10 19 31
f 10 31 49
f 10 49 71
f 10 71 102
f 10 102 78
f 10 78 53
f 10 53 34
f 10 34 20
f 10 20 11
f 12 21 22
f 12 22 13
f 13 22 14
f 14 22 21
f 14 21 23
f 14 23 24
f 14 24 15
f 15 25 26
f 15 26 17
f 15 24 27
f 15 27 28
f 15 28 25
f 16 17 29
f 17 26 29
f 18 29 30
f 19 32 33
f 19 33 31
f 20 34 35
f 20 35 36
f 21 37 23
f 23 37 38
f 23 38 39
f 23 39 40
f 23 40 24
f 24 40 41
f 24 41 42
f 24 42 43
f 24 43 44
f 24 44 45
f 24 45 28
f 24 28 27
f 25 46 26
f 25 28 47
f 25 47 48
f 25 48 46
f 26 46 29
f 28 45 47
f 29 46 30
f 31 33 49
f 32 50 51
f 32 51 33
f 33 51 52
f 33 52 49
f 34 53 54
f 34 54 35
f 35 54 55
f 35 55 56
f 35 56 57
f 35 57 36
f 39 58 40
f 39 59 58
f 40 58 60
f 40 60 61
f 40 61 62
f 40 62 63
f 40 63 41
f 41 63 64
f 41 64 42
f 42 64 65
f 42 65 66
f 42 66 67
f 42 67 43
f 43 67 68
f 43 68 69
f 43 69 44
f 44 69 45
f 45 48 47
f 45 69 68
f 45 68 70
f 45 70 48
f 48 70 68
f 49 52 72
f 49 72 71
f 50 73 74
f 50 74 51
f 51 74 75
f 51 75 76
f 51 76 52
f 52 76 77
f 52 77 72
f 53 78 54
f 54 78 79
f 54 79 80
f 54 80 81
f 54 81 82
f 54 82 83
f 54 83 55
f 55 83 56
f 56 83 82
f 56 82 85
f 56 85 86
f 56 86 87
f 56 87 88
f 56 88 89
f 56 89 90
f 56 90 91
f 56 91 92
f 56 92 84
f 58 61 60
f 58 59 93
f 58 93 94
f 58 94 61
f 59 95 93
f 61 94 93
f 61 93 96
f 61 96 97
f 61 97 62
f 62 98 99
f 62 99 63
f 62 97 100
f 62 100 98
f 63 99 64
f 64 99 65
f 65 99 66
f 66 99 101
f 66 68 67
f 71 72 102
f 72 77 80
f 72 80 79
f 72 79 102
f 73 103 74
f 74 103 104
f 74 104 105
f 74 105 87
f 74 87 86
f 74 86 75
f 75 86 106
f 75 106 76
f 76 106 82
f 76 82 81
f 76 81 80
f 76 80 77
f 78 102 79
f 82 106 85
f 84 92 107
f 85 106 86
f 87 105 108
f 87 108 109
f 87 109 88
f 88 109 89
f 89 109 110
f 89 110 111
f 89 111 90
f 90 111 112
f 90 112 92
f 90 92 91
f 92 112 113
f 92 113 114
f 92 114 115
f 92 115 116
f 92 116 117
f 92 117 118
f 92 118 107
f 93 95 119
f 93 119 120
f 93 120 121
f 93 121 122
f 93 122 123
f 93 123 96
f 96 124 125
f 96 125 97
f 96 123 126
f 96 126 124
f 97 125 127
f 97 127 100
f 98 101 128
f 98 128 99
f 98 100 129
f 99 128 101
f 100 127 130
f 100 130 131
f 100 131 129
f 104 132 105
f 105 132 108
f 108 132 133
f 108 133 134
f 108 134 110
f 108 110 109
f 110 134 135
f 110 135 111
f 111 135 136
f 111 136 112
f 112 114 113
f 112 136 137
f 112 137 138
f 112 138 139
f 112 139 140
f 112 140 141
f 112 141 142
f 112 142 114
f 114 142 143
f 114 143 115
f 115 144 116
f 115 143 142
f 115 142 122
f 115 122 121
f 115 121 144
f 122 142 123
f 123 145 126
f 123 142 145
f 124 130 127
f 124 127 125
f 124 126 146
f 124 146 130
f 126 145 147
f 126 147 148
f 126 148 146
f 130 146 131
f 131 146 148
f 131 148 149
f 134 150 135
f 135 150 136
f 136 150 151
f 136 151 137
f 137 152 138
f 137 151 153
f 137 153 152
f 138 152 139
f 139 152 140
f 140 152 154
f 140 154 145
f 140 145 142
f 140 142 141
f 145 154 147
f 147 155 148
f 147 154 155
f 148 155 156
f 148 156 157
f 148 157 149
f 150 153 151
f 152 153 158
f 152 158 154
f 154 158 159
f 154 159 155
f 155 159 156
f 156 159 157
