v -9.5405e-05 -0.437462 0.588031
v -9.5405e-05 -0.430171 0.587377
v -0.00536225 -0.437462 0.588031
v -9.5405e-05 -0.437462 0.509617
v -9.5405e-05 -0.424353 0.586687
v -0.0059028 -0.430171 0.587377
v -0.0131932 -0.437462 0.587023
v -0.14169 -0.437462 0.488727
v -0.14169 -0.186673 0.407486
v -9.5405e-05 -0.186673 0.433641
v -9.5405e-05 -0.418387 0.58598
v -0.0059028 -0.418387 0.58598
v -0.0176839 -0.430171 0.585857
v -0.0176839 -0.437462 0.58644
v -0.14169 -0.437462 0.570022
v -0.14169 -0.186673 0.500674
v -9.5405e-05 -0.186673 0.520733
v -9.5405e-05 -0.412569 0.585203
v -0.0176839 -0.418387 0.584461
v -0.0059028 -0.394796 0.582817
v -0.0726947 -0.42234 0.577745
v -0.0805396 -0.426783 0.577232
v -0.0878577 -0.43049 0.576649
v -0.0835749 -0.434639 0.577621
v -0.0842957 -0.437462 0.577727
v -0.135523 -0.437462 0.570923
v -0.14169 -0.436308 0.569934
v -0.139057 -0.186673 0.501611
v -0.14169 -0.199045 0.506948
v -0.0059028 -0.186673 0.520733
v -9.5405e-05 -0.209969 0.531336
v -9.5405e-05 -0.389003 0.582039
v -0.0176839 -0.394796 0.581297
v -0.04126 -0.406579 0.579777
v -0.123742 -0.418387 0.570499
v -0.0059028 -0.383013 0.581227
v -0.135523 -0.418387 0.568944
v -0.135523 -0.430171 0.57034
v -0.14169 -0.430171 0.569439
v -0.135523 -0.186673 0.502795
v -0.14169 -0.199511 0.507178
v -0.0176839 -0.186673 0.519213
v -0.0059028 -0.209969 0.531336
v -0.000136983 -0.235672 0.542152
v -9.5405e-05 -0.235647 0.542134
v -9.5405e-05 -0.383013 0.581227
v -0.0766033 -0.394796 0.573539
v -0.0176839 -0.383013 0.579707
v -0.0292848 -0.383185 0.578204
v -0.0648222 -0.383013 0.573504
v -0.100166 -0.406579 0.572019
v -0.134428 -0.395852 0.566063
v -0.0252238 -0.376041 0.57771
v -0.00344955 -0.363251 0.577922
v -0.00678984 -0.370247 0.578929
v -0.0176839 -0.373586 0.578204
v -0.14169 -0.424525 0.568767
v -0.14169 -0.400393 0.56571
v -0.14169 -0.418019 0.567972
v -0.125973 -0.189643 0.506294
v -0.124324 -0.186673 0.505163
v -0.135523 -0.197695 0.508008
v -0.135523 -0.206262 0.512002
v -0.14169 -0.223667 0.518418
v -0.0688278 -0.186673 0.51248
v -0.0766033 -0.20722 0.520803
v -0.014898 -0.211246 0.530753
v -0.0059028 -0.218046 0.534694
v -0.00479399 -0.230983 0.539819
v -0.0176839 -0.229829 0.537734
v -0.00479399 -0.24122 0.543601
v -0.0059028 -0.253396 0.547949
v -0.00296445 -0.269991 0.554293
v -9.5405e-05 -0.269991 0.554293
v -9.5405e-05 -0.363251 0.577922
v -0.0330825 -0.379355 0.577179
v -0.117906 -0.377097 0.56571
v -0.134428 -0.384117 0.564473
v -0.137629 -0.392611 0.565197
v -0.0883844 -0.371229 0.568414
v -0.0059028 -0.335879 0.57186
v -0.00678984 -0.359372 0.576685
v -0.0113082 -0.365632 0.577427
v -0.14169 -0.383504 0.563236
v -0.12273 -0.193939 0.50868
v -0.135523 -0.216573 0.516668
v -0.123742 -0.206262 0.514141
v -0.116465 -0.186673 0.506206
v -0.141483 -0.223888 0.518577
v -0.14169 -0.224011 0.518559
v -0.0912396 -0.186673 0.509528
v -0.100166 -0.210632 0.519248
v -0.107581 -0.211712 0.518753
v -0.0227567 -0.212424 0.530241
v -0.0183769 -0.217015 0.53268
v -0.029465 -0.219371 0.532167
v -0.0505047 -0.222808 0.530789
v -0.0583634 -0.224134 0.530276
v -0.0648222 -0.225288 0.529852
v -0.11196 -0.253396 0.534023
v -0.0303382 -0.242054 0.540579
v -0.0176839 -0.253396 0.546429
v -0.00649878 -0.265719 0.552332
v -0.0176839 -0.265179 0.550688
v -0.0956748 -0.270555 0.542311
v -0.0108093 -0.271513 0.553781
v -0.00649878 -0.276054 0.555654
v -0.0059028 -0.314448 0.566788
v -9.5405e-05 -0.314448 0.566788
v -9.5405e-05 -0.335879 0.57186
v -0.122591 -0.372383 0.564137
v -0.135523 -0.371229 0.562193
v -0.104005 -0.366663 0.565427
v -0.0380721 -0.328441 0.566063
v -0.0176839 -0.335879 0.57034
v -0.0059028 -0.324096 0.569244
v -0.067913 -0.343539 0.565339
v -0.0648222 -0.359446 0.569085
v -0.123742 -0.359446 0.561327
v -0.14169 -0.377391 0.562228
v -0.111683 -0.207171 0.516155
v -0.135523 -0.222489 0.519142
v -0.123742 -0.214265 0.517693
v -0.115439 -0.212915 0.518241
v -0.135523 -0.229829 0.521952
v -0.14169 -0.255973 0.5307
v -0.135523 -0.249689 0.529498
v -0.029465 -0.21348 0.529799
v -0.04126 -0.215394 0.529021
v -0.123742 -0.220157 0.520079
v -0.123742 -0.229829 0.523755
v -0.123658 -0.242398 0.52842
v -0.135523 -0.255581 0.531708
v -0.0694376 -0.259754 0.541958
v -0.0766033 -0.266971 0.543566
v -0.123742 -0.265179 0.536727
v -0.135523 -0.265179 0.535171
v -0.103534 -0.272249 0.541799
v -0.0176839 -0.273084 0.553339
v -0.0153693 -0.31656 0.566169
v -9.5405e-05 -0.324096 0.569244
v -0.135523 -0.359446 0.559772
v -0.14169 -0.371229 0.561168
v -0.123742 -0.327361 0.554523
v -0.130755 -0.329349 0.554064
v -0.138613 -0.331731 0.553551
v -0.0459308 -0.330749 0.565533
v -0.029465 -0.326035 0.566629
v -0.029465 -0.320144 0.56525
v -0.123742 -0.321469 0.553145
v -0.0530411 -0.332983 0.565074
v -0.023228 -0.318401 0.565657
v -0.14169 -0.257152 0.531142
v -0.135523 -0.276963 0.538953
v -0.0766033 -0.276963 0.546712
v -0.04126 -0.276963 0.55136
v -0.0305184 -0.287641 0.555848
v -0.029465 -0.312313 0.563094
v -0.0766033 -0.312313 0.556891
v -0.100166 -0.315479 0.5547
v -0.14169 -0.336812 0.554081
v -0.135024 -0.324882 0.552455
v -0.135523 -0.312313 0.549133
v -0.14169 -0.318474 0.549504
v -0.14169 -0.324464 0.551041
v -0.14169 -0.333154 0.553198
v -0.115911 -0.319284 0.553657
v -0.108052 -0.317296 0.55417
v -0.14169 -0.276963 0.537469
v -0.14169 -0.292256 0.542347
v -0.14169 -0.312313 0.547843
v -0.14169 -0.293066 0.542576
f 1 2 6
f 1 6 3
f 1 3 7
f 1 7 14
f 1 14 25
f 1 25 26
f 1 26 15
f 1 15 8
f 1 8 4
f 1 4 10
f 1 10 17
f 1 17 31
f 1 31 45
f 1 45 74
f 1 74 109
f 1 109 141
f 1 141 110
f 1 110 75
f 1 75 46
f 1 46 32
f 1 32 18
f 1 18 11
f 1 11 5
f 1 5 2
f 2 5 6
f 3 6 7
f 4 8 9
f 4 9 10
f 5 11 12
f 5 12 6
f 6 13 7
f 6 12 19
f 6 19 13
f 7 13 14
f 8 15 27
f 8 27 39
f 8 39 57
f 8 57 59
f 8 59 58
f 8 58 84
f 8 84 120
f 8 120 143
f 8 143 161
f 8 161 166
f 8 166 165
f 8 165 164
f 8 164 171
f 8 171 172
f 8 172 170
f 8 170 169
f 8 169 153
f 8 153 126
f 8 126 90
f 8 90 64
f 8 64 41
f 8 41 29
f 8 29 16
f 8 16 9
f 9 16 28
f 9 28 40
f 9 40 61
f 9 61 88
f 9 88 91
f 9 91 65
f 9 65 42
f 9 42 30
f 9 30 17
f 9 17 10
f 11 18 12
f 12 18 20
f 12 20 33
f 12 33 19
f 13 21 22
f 13 22 23
f 13 23 24
f 13 24 14
f 13 19 21
f 14 24 25
f 15 26 27
f 16 29 28
f 17 30 43
f 17 43 31
f 18 32 20
f 19 33 34
f 19 34 35
f 19 35 21
f 20 32 36
f 20 36 48
f 20 48 33
f 21 35 37
f 21 37 22
f 22 37 38
f 22 38 23
f 23 38 24
f 24 38 26
f 24 26 25
f 26 38 27
f 27 38 39
f 28 29 40
f 29 41 40
f 30 42 43
f 31 43 44
f 31 44 45
f 32 46 36
f 33 47 34
f 33 48 49
f 33 49 50
f 33 50 47
f 34 51 35
f 34 47 51
f 35 51 52
f 35 52 37
f 36 53 48
f 36 46 75
f 36 75 54
f 36 54 55
f 36 55 56
f 36 56 53
f 37 57 39
f 37 39 38
f 37 52 58
f 37 58 59
f 37 59 57
f 40 60 61
f 40 41 62
f 40 62 60
f 41 63 62
f 41 64 63
f 42 65 66
f 42 66 67
f 42 67 43
f 43 67 68
f 43 68 44
f 44 69 70
f 44 70 71
f 44 71 72
f 44 72 73
f 44 73 74
f 44 74 45
f 44 68 69
f 47 50 52
f 47 52 51
f 48 53 76
f 48 76 49
f 49 76 77
f 49 77 50
f 50 77 52
f 52 77 78
f 52 78 79
f 52 79 58
f 53 77 76
f 53 56 80
f 53 80 77
f 54 75 110
f 54 110 81
f 54 81 82
f 54 82 83
f 54 83 55
f 55 83 56
f 56 83 80
f 58 79 78
f 58 78 84
f 60 85 61
f 60 62 63
f 60 63 86
f 60 86 87
f 60 87 85
f 61 85 88
f 63 64 89
f 63 89 86
f 64 90 89
f 65 91 66
f 66 92 67
f 66 91 88
f 66 88 92
f 67 92 93
f 67 93 94
f 67 94 68
f 68 94 95
f 68 95 96
f 68 96 97
f 68 97 70
f 68 70 69
f 70 97 98
f 70 98 99
f 70 99 100
f 70 100 101
f 70 101 102
f 70 102 71
f 71 102 72
f 72 102 103
f 72 103 73
f 73 103 104
f 73 104 105
f 73 105 106
f 73 106 107
f 73 107 108
f 73 108 109
f 73 109 74
f 77 80 111
f 77 111 112
f 77 112 78
f 78 112 84
f 80 83 113
f 80 113 111
f 81 114 115
f 81 115 83
f 81 83 82
f 81 110 141
f 81 141 116
f 81 116 114
f 83 117 118
f 83 118 119
f 83 119 113
f 83 115 117
f 84 112 120
f 85 87 121
f 85 121 88
f 86 89 122
f 86 122 123
f 86 123 87
f 87 123 124
f 87 124 93
f 87 93 121
f 88 121 92
f 89 125 122
f 89 90 126
f 89 126 127
f 89 127 125
f 92 121 93
f 93 124 94
f 94 124 128
f 94 128 95
f 95 129 97
f 95 97 96
f 95 128 129
f 97 130 98
f 97 129 130
f 98 130 131
f 98 131 99
f 99 131 132
f 99 132 100
f 100 132 133
f 100 133 134
f 100 134 102
f 100 102 101
f 102 134 104
f 102 104 103
f 104 134 135
f 104 135 105
f 105 135 136
f 105 136 137
f 105 137 138
f 105 138 106
f 106 138 139
f 106 139 107
f 107 139 140
f 107 140 108
f 108 140 116
f 108 116 141
f 108 141 109
f 111 113 112
f 112 113 142
f 112 142 143
f 112 143 120
f 113 119 142
f 114 144 145
f 114 145 146
f 114 146 147
f 114 147 115
f 114 116 148
f 114 148 149
f 114 149 150
f 114 150 144
f 115 147 151
f 115 151 146
f 115 146 117
f 116 152 148
f 116 140 152
f 117 146 118
f 118 146 119
f 119 146 142
f 122 125 130
f 122 130 123
f 123 130 124
f 124 130 129
f 124 129 128
f 125 131 130
f 125 127 131
f 126 153 133
f 126 133 127
f 127 133 131
f 131 133 132
f 133 153 137
f 133 137 134
f 134 137 136
f 134 136 135
f 137 154 138
f 137 153 154
f 138 154 155
f 138 155 139
f 139 155 156
f 139 156 157
f 139 157 140
f 140 158 159
f 140 159 160
f 140 160 152
f 140 157 158
f 142 146 143
f 143 146 161
f 144 150 162
f 144 162 145
f 145 162 146
f 146 151 147
f 146 162 163
f 146 163 164
f 146 164 165
f 146 165 166
f 146 166 161
f 148 152 149
f 149 152 167
f 149 167 150
f 150 167 163
f 150 163 162
f 152 160 168
f 152 168 167
f 153 169 154
f 154 169 170
f 154 170 163
f 154 163 159
f 154 159 155
f 155 159 158
f 155 158 156
f 156 158 157
f 159 163 160
f 160 163 168
f 163 171 164
f 163 167 168
f 163 170 172
f 163 172 171
