v 0.467536 0.556129 0.206242
v 0.4567 0.555796 0.229812
v 0.453257 0.555852 0.242109
v 0.462788 0.556046 0.241597
v 0.486708 0.556101 0.182683
v 0.491491 0.556046 0.147328
v 0.452822 0.555796 0.24272
v 0.494355 0.554382 0.131357
v 0.458476 0.554743 0.221178
v 0.448111 0.553661 0.24272
v 0.453329 0.555824 0.24272
v 0.462064 0.556018 0.24272
v 0.462571 0.555935 0.24272
v 0.473697 0.555658 0.218027
v 0.497653 0.555879 0.159113
v 0.503777 0.555907 0.131357
v 0.500552 0.555796 0.131357
v 0.496022 0.555103 0.131357
v 0.492398 0.552913 0.131357
v 0.41437 0.528045 0.24272
v 0.468442 0.550834 0.24272
v 0.472139 0.554549 0.225647
v 0.495985 0.554798 0.167409
v 0.507075 0.554216 0.142204
v 0.507981 0.55502 0.135543
v 0.50838 0.555325 0.131357
v 0.50124 0.555796 0.146609
v 0.488665 0.549974 0.131357
v 0.401395 0.517954 0.24272
v 0.405962 0.52153 0.24272
v 0.47348 0.545455 0.24272
v 0.477031 0.547729 0.229158
v 0.483228 0.553939 0.200453
v 0.510663 0.548339 0.146609
v 0.518528 0.542101 0.141289
v 0.514795 0.547341 0.136633
v 0.514867 0.548311 0.131357
v 0.484062 0.546259 0.131357
v 0.374758 0.496856 0.24272
v 0.377041 0.498686 0.24272
v 0.474494 0.544346 0.24272
v 0.491093 0.526132 0.24272
v 0.494681 0.541796 0.199603
v 0.517295 0.540742 0.147328
v 0.500878 0.548034 0.170909
v 0.531901 0.520283 0.157009
v 0.543172 0.508112 0.156061
v 0.533713 0.522417 0.147328
v 0.539584 0.515736 0.147328
v 0.529907 0.529847 0.138312
v 0.519252 0.54296 0.133428
v 0.519397 0.543127 0.131357
v 0.470435 0.535253 0.131357
v 0.369648 0.492726 0.24272
v 0.496493 0.520199 0.24272
v 0.509938 0.522029 0.206242
v 0.520702 0.52092 0.182683
v 0.529038 0.517122 0.170898
v 0.536793 0.513296 0.160465
v 0.543172 0.503954 0.156061
v 0.547122 0.500876 0.135543
v 0.544549 0.509831 0.147328
v 0.53056 0.507059 0.189126
v 0.540997 0.517233 0.135543
v 0.53422 0.525328 0.134845
v 0.530378 0.530402 0.131357
v 0.467862 0.533146 0.131357
v 0.368561 0.491811 0.24272
v 0.461991 0.528322 0.131357
v 0.503415 0.512576 0.24272
v 0.517549 0.517455 0.197913
v 0.5402 0.500377 0.159636
v 0.541541 0.496108 0.151471
v 0.54444 0.500377 0.147459
v 0.53056 0.506088 0.189126
v 0.547702 0.500876 0.131357
v 0.542773 0.494417 0.143611
v 0.545781 0.511328 0.135543
v 0.508199 0.508556 0.239569
v 0.545781 0.512049 0.131357
v 0.542556 0.516013 0.131357
v 0.541287 0.517566 0.131357
v 0.362001 0.486211 0.24272
v 0.457171 0.524247 0.131357
v 0.505589 0.499961 0.24272
v 0.52882 0.498243 0.184896
v 0.530451 0.494888 0.177047
v 0.362436 0.272908 0.131357
v 0.517694 0.49669 0.21009
v 0.508199 0.503177 0.239569
v 0.505553 0.499878 0.24272
v 0.545346 0.49633 0.131357
v 0.543462 0.493807 0.135543
v 0.356058 0.480943 0.24272
v 0.454598 0.521946 0.131357
v 0.506604 0.495304 0.235285
v 0.341489 0.272908 0.181942
v 0.543752 0.493585 0.131357
v 0.270963 0.272908 0.131357
v 0.499138 0.491672 0.24272
v 0.336161 0.462812 0.24272
v 0.445537 0.51374 0.131357
v 0.335581 0.272908 0.193988
v 0.339531 0.272908 0.186357
v 0.34022 0.272908 0.184994
v 0.177533 0.272908 0.24272
v 0.273246 0.278314 0.131357
v 0.299159 0.272908 0.24272
v 0.300101 0.272908 0.241499
v 0.30532 0.272908 0.234707
v 0.326086 0.272908 0.207648
v 0.330834 0.272908 0.201423
v 0.331341 0.458377 0.24272
v 0.425206 0.494916 0.131357
v 0.304957 0.34058 0.131357
v 0.301732 0.335064 0.131357
v 0.29673 0.326192 0.131357
v 0.295281 0.323503 0.131357
v 0.293795 0.320675 0.131357
v 0.289265 0.311637 0.131357
v 0.283502 0.299855 0.131357
v 0.277704 0.287962 0.131357
v 0.179852 0.276623 0.24272
v 0.318946 0.364395 0.131357
v 0.316663 0.360514 0.131357
v 0.325796 0.453081 0.24272
v 0.424771 0.4945 0.131357
v 0.181157 0.278647 0.24272
v 0.323368 0.371187 0.131357
v 0.319273 0.446705 0.24272
v 0.420712 0.490536 0.131357
v 0.186665 0.286492 0.24272
v 0.342721 0.399382 0.131357
v 0.340329 0.395944 0.131357
v 0.332646 0.384882 0.131357
v 0.330036 0.381112 0.131357
v 0.328659 0.379116 0.131357
v 0.30782 0.43459 0.24272
v 0.418828 0.48865 0.131357
v 0.41292 0.482718 0.131357
v 0.188514 0.289043 0.24272
v 0.352796 0.41352 0.131357
v 0.347613 0.40634 0.131357
v 0.296368 0.422447 0.24272
v 0.395814 0.464559 0.131357
v 0.191087 0.292536 0.24272
v 0.364828 0.428435 0.131357
v 0.195762 0.298857 0.24272
v 0.205475 0.31197 0.24272
v 0.211128 0.3194 0.24272
v 0.214499 0.323669 0.24272
v 0.291874 0.417651 0.24272
v 0.390052 0.458404 0.131357
v 0.376461 0.442768 0.131357
v 0.263243 0.383524 0.24272
v 0.378853 0.445707 0.131357
v 0.284952 0.410027 0.24272
v 0.386682 0.454689 0.131357
v 0.280023 0.404067 0.24272
v 0.284372 0.409334 0.24272
v 0.384579 0.452305 0.131357
f 1 2 3
f 1 3 4
f 1 4 5
f 1 5 6
f 1 6 2
f 2 7 3
f 2 6 8
f 2 8 9
f 2 9 10
f 2 10 7
f 3 7 11
f 3 11 12
f 3 12 4
f 4 12 13
f 4 13 14
f 4 14 15
f 4 15 5
f 5 15 16
f 5 16 6
f 6 16 17
f 6 17 18
f 6 18 8
f 7 10 20
f 7 20 30
f 7 30 29
f 7 29 40
f 7 40 39
f 7 39 54
f 7 54 68
f 7 68 83
f 7 83 94
f 7 94 101
f 7 101 113
f 7 113 126
f 7 126 130
f 7 130 138
f 7 138 144
f 7 144 152
f 7 152 157
f 7 157 160
f 7 160 159
f 7 159 155
f 7 155 151
f 7 151 150
f 7 150 149
f 7 149 148
f 7 148 146
f 7 146 141
f 7 141 132
f 7 132 128
f 7 128 123
f 7 123 106
f 7 106 108
f 7 108 100
f 7 100 91
f 7 91 85
f 7 85 70
f 7 70 55
f 7 55 42
f 7 42 41
f 7 41 31
f 7 31 21
f 7 21 13
f 7 13 12
f 7 12 11
f 8 18 17
f 8 17 16
f 8 16 26
f 8 26 37
f 8 37 52
f 8 52 66
f 8 66 82
f 8 82 81
f 8 81 80
f 8 80 76
f 8 76 92
f 8 92 98
f 8 98 88
f 8 88 99
f 8 99 107
f 8 107 122
f 8 122 121
f 8 121 120
f 8 120 119
f 8 119 118
f 8 118 117
f 8 117 116
f 8 116 115
f 8 115 125
f 8 125 124
f 8 124 129
f 8 129 137
f 8 137 136
f 8 136 135
f 8 135 134
f 8 134 133
f 8 133 143
f 8 143 142
f 8 142 147
f 8 147 154
f 8 154 156
f 8 156 161
f 8 161 158
f 8 158 153
f 8 153 145
f 8 145 140
f 8 140 139
f 8 139 131
f 8 131 127
f 8 127 114
f 8 114 102
f 8 102 95
f 8 95 84
f 8 84 69
f 8 69 67
f 8 67 53
f 8 53 38
f 8 38 28
f 8 28 19
f 8 19 10
f 8 10 9
f 10 19 20
f 13 21 22
f 13 22 14
f 14 22 23
f 14 23 15
f 15 23 24
f 15 24 25
f 15 25 26
f 15 26 27
f 15 27 16
f 16 27 26
f 19 28 29
f 19 29 30
f 19 30 20
f 21 31 22
f 22 31 32
f 22 32 33
f 22 33 24
f 22 24 23
f 24 34 35
f 24 35 25
f 24 33 34
f 25 35 36
f 25 36 37
f 25 37 26
f 28 38 39
f 28 39 40
f 28 40 29
f 31 41 32
f 32 41 42
f 32 42 43
f 32 43 44
f 32 44 45
f 32 45 33
f 33 45 34
f 34 45 44
f 34 44 35
f 35 44 46
f 35 46 47
f 35 47 48
f 35 48 49
f 35 49 50
f 35 50 36
f 36 50 51
f 36 51 37
f 37 51 52
f 38 53 39
f 39 53 54
f 42 55 56
f 42 56 44
f 42 44 43
f 44 57 58
f 44 58 46
f 44 56 57
f 46 59 47
f 46 58 59
f 47 60 61
f 47 61 62
f 47 62 49
f 47 49 48
f 47 59 63
f 47 63 75
f 47 75 60
f 49 62 50
f 50 62 64
f 50 64 65
f 50 65 66
f 50 66 52
f 50 52 51
f 53 67 54
f 54 67 69
f 54 69 68
f 55 70 71
f 55 71 56
f 56 71 58
f 56 58 57
f 58 71 70
f 58 70 63
f 58 63 59
f 60 72 73
f 60 73 74
f 60 74 61
f 60 75 72
f 61 76 62
f 61 74 77
f 61 77 76
f 62 76 78
f 62 78 64
f 63 70 79
f 63 79 90
f 63 90 75
f 64 78 80
f 64 80 81
f 64 81 82
f 64 82 65
f 65 82 66
f 68 69 84
f 68 84 83
f 70 85 79
f 72 75 86
f 72 86 73
f 73 77 74
f 73 86 87
f 73 87 88
f 73 88 77
f 75 89 86
f 75 90 85
f 75 85 91
f 75 91 89
f 76 80 78
f 76 77 92
f 77 93 92
f 77 88 93
f 79 85 90
f 83 84 94
f 84 95 94
f 86 89 87
f 87 89 96
f 87 96 97
f 87 97 88
f 88 98 93
f 88 97 105
f 88 105 104
f 88 104 103
f 88 103 112
f 88 112 111
f 88 111 110
f 88 110 109
f 88 109 108
f 88 108 106
f 88 106 99
f 89 91 96
f 91 100 96
f 92 93 98
f 94 95 102
f 94 102 101
f 96 100 103
f 96 103 104
f 96 104 105
f 96 105 97
f 99 106 107
f 100 108 109
f 100 109 110
f 100 110 111
f 100 111 112
f 100 112 103
f 101 102 113
f 102 114 113
f 106 115 116
f 106 116 117
f 106 117 118
f 106 118 119
f 106 119 120
f 106 120 121
f 106 121 122
f 106 122 107
f 106 123 124
f 106 124 125
f 106 125 115
f 113 114 126
f 114 127 126
f 123 128 124
f 124 128 129
f 126 127 131
f 126 131 130
f 128 132 133
f 128 133 134
f 128 134 135
f 128 135 136
f 128 136 137
f 128 137 129
f 130 131 139
f 130 139 140
f 130 140 138
f 132 141 142
f 132 142 143
f 132 143 133
f 138 140 144
f 140 145 144
f 141 146 142
f 142 146 148
f 142 148 149
f 142 149 150
f 142 150 151
f 142 151 147
f 144 145 152
f 145 153 152
f 147 151 154
f 151 155 156
f 151 156 154
f 152 153 157
f 153 158 157
f 155 159 156
f 156 159 160
f 156 160 157
f 156 157 161
f 157 158 161
