v -8.2159e-05 -0.479543 -0.590605
v -8.2159e-05 -0.446982 -0.589326
v 0.0059056 -0.479543 -0.590605
v -8.2159e-05 -0.479543 -0.499014
v -8.2159e-05 -0.437466 -0.588025
v 0.00042124 -0.446982 -0.589326
v 0.00497829 -0.442615 -0.588491
v 0.0120126 -0.470945 -0.589304
v 0.0134698 -0.477314 -0.589499
v 0.0139864 -0.479543 -0.589564
v 0.0126484 -0.479543 -0.495859
v -8.2159e-05 -0.437466 -0.509639
v 0.00536246 -0.437466 -0.588025
v 0.0131916 -0.437466 -0.587027
v 0.0176824 -0.44196 -0.58681
v 0.0166359 -0.466422 -0.588426
v 0.0552781 -0.479543 -0.584132
v 0.0224779 -0.479543 -0.493897
v 0.135238 -0.437466 -0.491164
v 0.0176824 -0.437466 -0.586442
v 0.0865548 -0.437466 -0.577432
v 0.111963 -0.44196 -0.574396
v 0.135238 -0.453746 -0.572044
v 0.135238 -0.465231 -0.572738
v 0.101617 -0.479543 -0.578028
v 0.116215 -0.479543 -0.48158
v 0.126429 -0.479543 -0.480409
v 0.135238 -0.479543 -0.479856
v 0.135238 -0.437466 -0.57096
v 0.135238 -0.441668 -0.571307
v 0.135238 -0.44196 -0.571328
v 0.135238 -0.477314 -0.573464
v 0.125979 -0.479543 -0.574819
v 0.135238 -0.479543 -0.571252
v 0.135238 -0.479489 -0.573594
f 1 2 6
f 1 6 3
f 1 3 10
f 1 10 17
f 1 17 25
f 1 25 33
f 1 33 34
f 1 34 28
f 1 28 27
f 1 27 26
f 1 26 18
f 1 18 11
f 1 11 4
f 1 4 12
f 1 12 5
f 1 5 2
f 2 5 13
f 2 13 6
f 3 6 7
f 3 7 8
f 3 8 9
f 3 9 10
f 4 11 12
f 5 12 19
f 5 19 29
f 5 29 21
f 5 21 20
f 5 20 14
f 5 14 13
f 6 13 7
f 7 13 14
f 7 14 15
f 7 15 8
f 8 15 9
f 9 15 16
f 9 16 17
f 9 17 10
f 11 18 12
f 12 18 19
f 14 20 15
f 15 17 16
f 15 20 21
f 15 21 22
f 15 22 17
f 17 22 23
f 17 23 24
f 17 24 25
f 18 26 19
f 19 26 27
f 19 27 28
f 19 28 34
f 19 34 35
f 19 35 32
f 19 32 24
f 19 24 23
f 19 23 31
f 19 31 30
f 19 30 29
f 21 29 30
f 21 30 31
f 21 31 22
f 22 31 23
f 24 32 33
f 24 33 25
f 32 35 33
f 33 35 34
