v 0.208946 0.0771744 0.145086
v 0.299212 0.0771744 0.145086
v 0.209856 0.0858536 0.145086
v 0.256571 0.0884018 0.000105055
v 0.255487 0.0771744 0.000105055
v 0.312941 0.0771744 0.111959
v 0.356719 0.272908 0.145086
v 0.210066 0.0872523 0.145086
v 0.261294 0.123751 0.000105055
v 0.334069 0.0771744 0.000105055
v 0.31922 0.0771744 0.0967162
v 0.370781 0.272908 0.111122
v 0.264967 0.272908 0.145086
v 0.216012 0.122717 0.145086
v 0.263218 0.135553 0.000105055
v 0.334069 0.0771744 0.00589577
v 0.387606 0.272908 0.000105055
v 0.319395 0.0771744 0.0962195
v 0.374454 0.272908 0.100165
v 0.322124 0.0771744 0.088385
v 0.302465 0.272908 0.000105055
v 0.256711 0.253538 0.145086
v 0.216187 0.123751 0.145086
v 0.265544 0.147337 0.000105055
v 0.33253 0.0771744 0.0176901
v 0.387589 0.272908 0.00589577
v 0.387501 0.272908 0.00664799
v 0.385735 0.272908 0.0203016
v 0.376273 0.272908 0.0909113
v 0.324747 0.0771744 0.0766049
v 0.299492 0.265168 0.000105055
v 0.251832 0.24187 0.145086
v 0.217796 0.131798 0.145086
v 0.218531 0.135458 0.145086
v 0.270319 0.17073 0.000105055
v 0.324835 0.0771744 0.0760372
v 0.379875 0.272908 0.0648248
v 0.376622 0.272908 0.089123
v 0.376762 0.272908 0.088385
v 0.292303 0.245759 0.000105055
v 0.242859 0.218361 0.145086
v 0.221329 0.147049 0.145086
v 0.27282 0.181594 0.000105055
v 0.290782 0.241601 0.000105055
v 0.234254 0.193415 0.145086
v 0.227328 0.170309 0.145086
v 0.227486 0.170903 0.145086
v 0.229654 0.178931 0.145086
v 0.276388 0.19445 0.000105055
v 0.286724 0.229818 0.000105055
v 0.230686 0.182322 0.145086
v 0.283856 0.220488 0.000105055
v 0.28097 0.210486 0.000105055
v 0.279746 0.206233 0.000105055
v 0.278084 0.200428 0.000105055
v 0.285307 0.22522 0.000105055
f 1 2 7
f 1 7 13
f 1 13 22
f 1 22 32
f 1 32 41
f 1 41 45
f 1 45 51
f 1 51 48
f 1 48 47
f 1 47 46
f 1 46 42
f 1 42 34
f 1 34 33
f 1 33 23
f 1 23 14
f 1 14 8
f 1 8 3
f 1 3 4
f 1 4 5
f 1 5 10
f 1 10 16
f 1 16 25
f 1 25 36
f 1 36 30
f 1 30 20
f 1 20 18
f 1 18 11
f 1 11 6
f 1 6 2
f 2 6 7
f 3 8 9
f 3 9 4
f 4 9 15
f 4 15 24
f 4 24 35
f 4 35 43
f 4 43 49
f 4 49 55
f 4 55 54
f 4 54 53
f 4 53 52
f 4 52 56
f 4 56 50
f 4 50 44
f 4 44 40
f 4 40 31
f 4 31 21
f 4 21 17
f 4 17 10
f 4 10 5
f 6 11 12
f 6 12 7
f 7 12 19
f 7 19 29
f 7 29 38
f 7 38 39
f 7 39 37
f 7 37 28
f 7 28 27
f 7 27 26
f 7 26 17
f 7 17 21
f 7 21 13
f 8 14 15
f 8 15 9
f 10 17 16
f 11 18 12
f 12 18 20
f 12 20 19
f 13 21 22
f 14 23 15
f 15 23 24
f 16 17 26
f 16 26 27
f 16 27 28
f 16 28 25
f 19 20 30
f 19 30 29
f 21 31 32
f 21 32 22
f 23 33 24
f 24 33 34
f 24 34 35
f 25 28 37
f 25 37 36
f 29 30 38
f 30 36 39
f 30 39 38
f 31 40 41
f 31 41 32
f 34 42 43
f 34 43 35
f 36 37 39
f 40 44 41
f 41 44 45
f 42 46 43
f 43 46 47
f 43 47 48
f 43 48 49
f 44 50 45
f 45 50 51
f 48 51 52
f 48 52 53
f 48 53 54
f 48 54 55
f 48 55 49
f 50 56 51
f 51 56 52
