v 0.188444 0.288984 0.24272
v 0.195749 0.298855 0.24272
v 0.203735 0.288984 0.24272
v 0.00527405 0.288984 0.309188
v 0.203735 0.309617 0.24272
v 0.203735 0.288984 0.338384
v 0.00523519 0.300557 0.314413
v 0.00523519 0.288984 0.336706
v 0.203735 0.314566 0.245538
v 0.00523519 0.307994 0.317801
v 0.00523519 0.313571 0.320366
v 0.00523519 0.324543 0.325623
v 0.00523519 0.33156 0.32917
v 0.00523519 0.337452 0.3324
v 0.00523519 0.358452 0.343958
v 0.00523519 0.358845 0.344179
v 0.00523519 0.370209 0.350639
v 0.19948 0.288984 0.341393
v 0.203735 0.494797 0.51901
v 0.00523519 0.288984 0.395226
v 0.203735 0.320982 0.24937
v 0.00523519 0.370524 0.350829
v 0.193981 0.288984 0.344274
v 0.203735 0.500898 0.52205
v 0.184888 0.498228 0.528827
v 0.177019 0.494902 0.530442
v 0.20222 0.494378 0.519327
v 0.00589582 0.288984 0.395226
v 0.00523519 0.491577 0.557929
v 0.203735 0.324595 0.251587
v 0.00523519 0.376101 0.354249
v 0.182051 0.288984 0.349563
v 0.203735 0.508073 0.522114
v 0.189124 0.506083 0.530569
v 0.159628 0.500375 0.540195
v 0.151448 0.496107 0.541557
v 0.110936 0.288984 0.379013
v 0.111247 0.288984 0.378886
v 0.126713 0.288984 0.372489
v 0.160017 0.288984 0.358714
v 0.181604 0.288984 0.349753
v 0.01769 0.288984 0.393706
v 0.0616219 0.494693 0.554255
v 0.0294648 0.492886 0.556377
v 0.00589582 0.491577 0.557929
v 0.00523519 0.499249 0.563819
v 0.203735 0.326926 0.253043
v 0.00523519 0.407366 0.374358
v 0.203735 0.510168 0.521575
v 0.189124 0.507052 0.530569
v 0.156034 0.503962 0.543204
v 0.147446 0.500375 0.544439
v 0.143598 0.494431 0.54276
v 0.100405 0.288984 0.382243
v 0.0307278 0.288984 0.391996
v 0.0694718 0.495321 0.553749
v 0.00589582 0.499249 0.563819
v 0.00523519 0.50514 0.566225
v 0.203735 0.33342 0.257286
v 0.00523519 0.417238 0.381324
v 0.203735 0.362118 0.27692
v 0.203735 0.35984 0.275336
v 0.203735 0.356515 0.273056
v 0.203735 0.347821 0.267103
v 0.203735 0.340594 0.262163
v 0.203735 0.335305 0.258553
v 0.203735 0.514907 0.517427
v 0.170879 0.517133 0.529049
v 0.160444 0.51331 0.536775
v 0.156034 0.508099 0.543204
v 0.203735 0.516112 0.51635
v 0.135515 0.500872 0.54713
v 0.0883969 0.498097 0.552482
v 0.0766221 0.496316 0.553274
v 0.135515 0.493802 0.543489
v 0.0887078 0.288984 0.384333
v 0.100191 0.288984 0.382306
v 0.0756506 0.288984 0.386074
v 0.0854046 0.288984 0.384776
v 0.0128713 0.506345 0.565814
v 0.00589582 0.50514 0.566225
v 0.00523519 0.507497 0.566225
v 0.00523519 0.418416 0.382211
v 0.203735 0.368298 0.281353
v 0.160192 0.524308 0.526927
v 0.157005 0.520275 0.531899
v 0.203735 0.520642 0.512234
v 0.198761 0.529623 0.506122
v 0.203735 0.549891 0.485602
v 0.16571 0.530671 0.518852
v 0.14731 0.540726 0.5173
v 0.14731 0.515719 0.539594
v 0.14731 0.509828 0.544534
v 0.0977235 0.507314 0.554287
v 0.14731 0.528314 0.52851
v 0.141267 0.542087 0.518535
v 0.14731 0.522423 0.533704
v 0.0977235 0.505533 0.554287
v 0.123741 0.500872 0.548777
v 0.101065 0.501317 0.552102
v 0.111946 0.500872 0.550424
v 0.0128713 0.506947 0.565814
v 0.00589582 0.507497 0.566225
v 0.00523519 0.513389 0.561317
v 0.00523519 0.43939 0.398203
v 0.203735 0.370393 0.282968
v 0.00523519 0.445701 0.403016
v 0.150049 0.552483 0.505425
v 0.146591 0.548346 0.51065
v 0.203735 0.55518 0.479237
v 0.200451 0.553949 0.483227
v 0.138294 0.529859 0.529904
v 0.135515 0.517238 0.540987
v 0.135515 0.511346 0.5458
v 0.101065 0.511818 0.550107
v 0.142199 0.554211 0.507072
v 0.135515 0.555023 0.50799
v 0.136623 0.547324 0.514799
v 0.00589582 0.513389 0.561317
v 0.0883969 0.513939 0.550012
v 0.00523519 0.525905 0.550709
v 0.203735 0.373718 0.285533
v 0.00523519 0.452587 0.408558
v 0.203735 0.380736 0.291075
v 0.203735 0.555599 0.478446
v 0.194448 0.554944 0.484462
v 0.167381 0.554787 0.495989
v 0.130444 0.530461 0.530442
v 0.133417 0.542952 0.519264
v 0.123741 0.549707 0.514989
v 0.122691 0.523287 0.537567
v 0.118067 0.5186 0.542159
v 0.159104 0.555887 0.497667
v 0.123741 0.555913 0.509099
v 0.01769 0.519437 0.554667
v 0.00589582 0.546015 0.53364
v 0.00523519 0.546015 0.53364
v 0.00523519 0.458898 0.413814
v 0.203735 0.407549 0.312766
v 0.203735 0.397389 0.304501
v 0.203735 0.55573 0.477496
v 0.182673 0.556096 0.486711
v 0.111946 0.550624 0.515749
v 0.0294648 0.550074 0.527085
v 0.06578 0.549157 0.523095
v 0.0766221 0.547482 0.523095
v 0.0883969 0.526795 0.539119
v 0.111946 0.524962 0.537567
v 0.111946 0.556332 0.509859
v 0.0294648 0.556096 0.521195
v 0.041259 0.555573 0.520404
v 0.0530532 0.554944 0.519644
v 0.0624963 0.554368 0.51901
v 0.0293871 0.523444 0.549727
v 0.01769 0.532268 0.543774
v 0.01769 0.55099 0.527814
v 0.00589582 0.551907 0.52832
v 0.01769 0.53816 0.53877
v 0.00523519 0.551907 0.52832
v 0.203735 0.40912 0.314096
v 0.00523519 0.466413 0.420274
v 0.203735 0.556096 0.469642
v 0.100191 0.556489 0.51046
v 0.0579885 0.541983 0.53022
v 0.01769 0.556437 0.521892
v 0.00589582 0.556437 0.52243
v 0.00523519 0.556437 0.52243
v 0.203735 0.417787 0.321855
v 0.00523519 0.47618 0.428856
v 0.00523519 0.483721 0.435601
v 0.203735 0.555861 0.468059
v 0.00523519 0.556437 0.514704
v 0.100191 0.556489 0.502639
v 0.203735 0.419882 0.323755
v 0.00523519 0.484035 0.435886
v 0.203735 0.552902 0.463404
v 0.00523519 0.552195 0.508782
v 0.203735 0.443711 0.345636
v 0.00523519 0.489953 0.441459
v 0.203735 0.45133 0.352634
v 0.203735 0.551959 0.462169
v 0.00523519 0.541328 0.495925
v 0.203735 0.546958 0.455772
v 0.203735 0.53418 0.439622
v 0.203735 0.528078 0.432086
v 0.203735 0.527424 0.431294
v 0.00523519 0.495792 0.447032
v 0.203735 0.485999 0.386169
v 0.00523519 0.534572 0.488041
v 0.203735 0.52656 0.430281
v 0.203735 0.520982 0.423757
v 0.00523519 0.496107 0.447349
v 0.203735 0.491891 0.392123
v 0.203735 0.520014 0.422649
v 0.00523519 0.52601 0.478287
v 0.00523519 0.501998 0.453334
v 0.203735 0.493462 0.393769
v 0.00523519 0.513363 0.464892
v 0.00523519 0.519149 0.470782
v 0.203735 0.516479 0.418754
v 0.203735 0.497468 0.398013
v 0.203735 0.509959 0.411629
f 1 2 5
f 1 5 3
f 1 3 6
f 1 6 18
f 1 18 23
f 1 23 32
f 1 32 41
f 1 41 40
f 1 40 39
f 1 39 38
f 1 38 37
f 1 37 54
f 1 54 77
f 1 77 76
f 1 76 79
f 1 79 78
f 1 78 55
f 1 55 42
f 1 42 28
f 1 28 20
f 1 20 8
f 1 8 4
f 1 4 2
f 2 4 5
f 3 5 9
f 3 9 21
f 3 21 30
f 3 30 47
f 3 47 59
f 3 59 66
f 3 66 65
f 3 65 64
f 3 64 63
f 3 63 62
f 3 62 61
f 3 61 84
f 3 84 106
f 3 106 122
f 3 122 124
f 3 124 140
f 3 140 139
f 3 139 160
f 3 160 168
f 3 168 174
f 3 174 178
f 3 178 180
f 3 180 188
f 3 188 193
f 3 193 197
f 3 197 201
f 3 201 202
f 3 202 200
f 3 200 194
f 3 194 191
f 3 191 190
f 3 190 186
f 3 186 185
f 3 185 184
f 3 184 183
f 3 183 181
f 3 181 176
f 3 176 171
f 3 171 162
f 3 162 141
f 3 141 125
f 3 125 110
f 3 110 89
f 3 89 87
f 3 87 71
f 3 71 67
f 3 67 49
f 3 49 33
f 3 33 24
f 3 24 19
f 3 19 6
f 4 7 5
f 4 8 7
f 5 7 10
f 5 10 11
f 5 11 12
f 5 12 13
f 5 13 14
f 5 14 15
f 5 15 16
f 5 16 17
f 5 17 9
f 6 19 18
f 7 8 20
f 7 20 29
f 7 29 46
f 7 46 58
f 7 58 82
f 7 82 104
f 7 104 121
f 7 121 137
f 7 137 159
f 7 159 167
f 7 167 172
f 7 172 177
f 7 177 182
f 7 182 189
f 7 189 195
f 7 195 199
f 7 199 198
f 7 198 196
f 7 196 192
f 7 192 187
f 7 187 179
f 7 179 175
f 7 175 170
f 7 170 169
f 7 169 161
f 7 161 138
f 7 138 123
f 7 123 107
f 7 107 105
f 7 105 83
f 7 83 60
f 7 60 48
f 7 48 31
f 7 31 22
f 7 22 17
f 7 17 16
f 7 16 15
f 7 15 14
f 7 14 13
f 7 13 12
f 7 12 11
f 7 11 10
f 9 17 21
f 17 22 21
f 18 19 23
f 19 24 25
f 19 25 26
f 19 26 27
f 19 27 23
f 20 28 45
f 20 45 29
f 21 22 31
f 21 31 30
f 23 27 32
f 24 33 34
f 24 34 25
f 25 34 35
f 25 35 36
f 25 36 26
f 26 36 37
f 26 37 38
f 26 38 39
f 26 39 40
f 26 40 41
f 26 41 27
f 27 41 32
f 28 42 43
f 28 43 44
f 28 44 45
f 29 45 57
f 29 57 46
f 30 31 47
f 31 48 47
f 33 49 50
f 33 50 34
f 34 50 70
f 34 70 51
f 34 51 35
f 35 51 36
f 36 51 52
f 36 52 53
f 36 53 37
f 37 53 54
f 42 55 56
f 42 56 43
f 43 56 57
f 43 57 44
f 44 57 45
f 46 57 81
f 46 81 58
f 47 48 59
f 48 60 61
f 48 61 62
f 48 62 63
f 48 63 64
f 48 64 65
f 48 65 66
f 48 66 59
f 49 67 50
f 50 68 69
f 50 69 70
f 50 67 71
f 50 71 68
f 51 70 72
f 51 72 52
f 52 72 53
f 53 72 73
f 53 73 74
f 53 74 56
f 53 56 75
f 53 75 76
f 53 76 77
f 53 77 54
f 55 78 56
f 56 74 57
f 56 78 79
f 56 79 76
f 56 76 75
f 57 80 81
f 57 74 73
f 57 73 80
f 58 81 103
f 58 103 82
f 60 83 84
f 60 84 61
f 68 85 86
f 68 86 69
f 68 71 87
f 68 87 88
f 68 88 89
f 68 89 90
f 68 90 91
f 68 91 85
f 69 86 70
f 70 92 93
f 70 93 94
f 70 94 72
f 70 86 95
f 70 95 96
f 70 96 97
f 70 97 92
f 72 94 98
f 72 98 99
f 72 99 73
f 73 100 98
f 73 98 80
f 73 99 101
f 73 101 100
f 80 102 103
f 80 103 81
f 80 98 94
f 80 94 102
f 82 103 119
f 82 119 104
f 83 105 84
f 84 105 107
f 84 107 106
f 85 91 86
f 86 91 96
f 86 96 95
f 87 89 88
f 89 108 109
f 89 109 91
f 89 91 90
f 89 110 111
f 89 111 108
f 91 109 96
f 92 97 96
f 92 96 112
f 92 112 93
f 93 112 113
f 93 113 114
f 93 114 94
f 94 115 102
f 94 114 113
f 94 113 115
f 96 109 116
f 96 116 117
f 96 117 118
f 96 118 112
f 98 100 101
f 98 101 99
f 102 119 103
f 102 115 120
f 102 120 119
f 104 119 121
f 106 107 122
f 107 123 124
f 107 124 122
f 108 116 109
f 108 111 116
f 110 125 126
f 110 126 111
f 111 126 127
f 111 127 116
f 112 128 113
f 112 118 129
f 112 129 130
f 112 130 128
f 113 131 132
f 113 132 120
f 113 120 115
f 113 128 131
f 116 127 133
f 116 133 117
f 117 134 130
f 117 130 118
f 117 133 134
f 118 130 129
f 119 120 135
f 119 135 136
f 119 136 121
f 120 132 135
f 121 136 137
f 123 138 139
f 123 139 140
f 123 140 124
f 125 141 142
f 125 142 126
f 126 142 133
f 126 133 127
f 128 130 131
f 130 134 143
f 130 143 144
f 130 144 145
f 130 145 146
f 130 146 147
f 130 147 148
f 130 148 131
f 131 148 132
f 132 148 147
f 132 147 135
f 133 142 149
f 133 149 134
f 134 149 150
f 134 150 151
f 134 151 152
f 134 152 153
f 134 153 143
f 135 147 154
f 135 154 155
f 135 155 136
f 136 146 145
f 136 145 144
f 136 144 156
f 136 156 157
f 136 157 159
f 136 159 137
f 136 155 158
f 136 158 146
f 138 160 139
f 138 161 160
f 141 162 142
f 142 163 149
f 142 162 163
f 143 153 144
f 144 153 156
f 146 158 164
f 146 164 147
f 147 164 158
f 147 158 155
f 147 155 154
f 149 163 165
f 149 165 150
f 150 165 157
f 150 157 151
f 151 157 152
f 152 157 156
f 152 156 153
f 157 165 166
f 157 166 167
f 157 167 159
f 160 161 169
f 160 169 170
f 160 170 168
f 162 171 172
f 162 172 173
f 162 173 163
f 163 173 172
f 163 172 167
f 163 167 166
f 163 166 165
f 168 170 175
f 168 175 174
f 171 176 172
f 172 176 177
f 174 175 178
f 175 179 180
f 175 180 178
f 176 181 177
f 177 181 183
f 177 183 184
f 177 184 185
f 177 185 186
f 177 186 182
f 179 187 180
f 180 187 188
f 182 186 190
f 182 190 191
f 182 191 189
f 187 192 188
f 188 192 193
f 189 191 194
f 189 194 195
f 192 196 193
f 193 196 198
f 193 198 199
f 193 199 197
f 194 200 195
f 195 200 199
f 197 199 201
f 199 200 202
f 199 202 201
