v -0.135944 -0.185597 -0.502145
v -0.146741 -0.185597 -0.498358
v -0.142473 -0.1759 -0.49542
v -0.135944 -0.182253 -0.500578
v -0.135944 -0.185597 -0.409206
v -0.146759 -0.182973 -0.497085
v -0.151968 -0.185597 -0.496203
v -0.16291 -0.166691 -0.482329
v -0.146759 -0.171527 -0.491437
v -0.135944 -0.167232 -0.493363
v -0.135944 -0.167695 -0.493592
v -0.135944 -0.173379 -0.496367
v -0.135944 -0.173585 -0.496465
v -0.17132 -0.182124 -0.486508
v -0.22592 -0.175102 -0.460458
v -0.135944 0.0227219 -0.222577
v -0.198303 0.022156 -0.168648
v -0.320706 -0.0796498 -0.168648
v -0.320706 -0.185597 -0.288584
v -0.194469 -0.185597 -0.478608
v -0.188103 -0.165354 -0.471198
v -0.155061 -0.163682 -0.483929
v -0.246338 -0.165894 -0.447367
v -0.146271 -0.159489 -0.485104
v -0.135944 -0.159104 -0.488891
v -0.209444 -0.185597 -0.472406
v -0.24386 -0.185597 -0.45814
v -0.233751 -0.178421 -0.458825
v -0.250968 -0.173765 -0.449326
v -0.135944 0.0284835 -0.217484
v -0.193655 0.0271203 -0.168648
v -0.320706 0.0306698 -0.168648
v -0.320706 -0.185597 -0.40506
v -0.213314 -0.164171 -0.460099
v -0.15904 -0.159489 -0.479849
v -0.141641 -0.153059 -0.483276
v -0.238489 -0.163013 -0.448967
v -0.258835 -0.17716 -0.447628
v -0.254296 -0.170241 -0.445898
v -0.249503 -0.151233 -0.437215
v -0.24471 -0.143388 -0.434832
v -0.241111 -0.147297 -0.438684
v -0.242088 -0.159078 -0.44518
v -0.135944 -0.151079 -0.484386
v -0.135944 -0.158692 -0.488663
v -0.250353 -0.185597 -0.455398
v -0.254296 -0.181713 -0.451839
v -0.135944 0.0294609 -0.216766
v -0.192335 0.0288179 -0.168648
v -0.319729 0.0367401 -0.168648
v -0.320706 0.0358399 -0.168681
v -0.320706 -0.181276 -0.402612
v -0.308715 -0.185597 -0.414266
v -0.218034 -0.149895 -0.449783
v -0.166834 -0.151902 -0.472177
v -0.158045 -0.147709 -0.473352
v -0.14732 -0.133254 -0.469304
v -0.139996 -0.130656 -0.470806
v -0.135944 -0.144828 -0.480795
v -0.135944 -0.145163 -0.480991
v -0.254278 -0.185597 -0.453733
v -0.261403 -0.185597 -0.450109
v -0.261892 -0.185031 -0.449587
v -0.262127 -0.185597 -0.449718
v -0.267444 -0.185597 -0.445898
v -0.265563 -0.181713 -0.445147
v -0.265093 -0.171321 -0.439533
v -0.261114 -0.16291 -0.437443
v -0.247893 -0.12919 -0.424549
v -0.235179 -0.118206 -0.424059
v -0.229808 -0.132225 -0.434538
v -0.218921 -0.13454 -0.440414
v -0.135944 0.0381805 -0.213437
v -0.139887 0.0332934 -0.210956
v -0.188103 0.0412414 -0.168648
v -0.287989 0.0771744 -0.168648
v -0.320706 0.0355569 -0.169464
v -0.318752 -0.176028 -0.40111
v -0.271965 -0.175565 -0.436758
v -0.288821 -0.182973 -0.428042
v -0.320706 -0.170112 -0.396181
v -0.279742 -0.185597 -0.436497
v -0.186475 -0.142899 -0.45876
v -0.165189 -0.129498 -0.459707
v -0.135944 -0.135003 -0.475017
v -0.14761 -0.123171 -0.463232
v -0.135944 -0.124019 -0.468554
v -0.275438 -0.185597 -0.439794
v -0.268981 -0.167695 -0.43444
v -0.281948 -0.166126 -0.423569
v -0.294916 -0.16466 -0.412699
v -0.274099 -0.161573 -0.426605
v -0.265852 -0.158306 -0.430686
v -0.256611 -0.135517 -0.422231
v -0.260861 -0.127852 -0.413711
v -0.27032 -0.118644 -0.400131
v -0.257316 -0.119981 -0.410969
v -0.249467 -0.115943 -0.413972
v -0.237332 -0.104625 -0.413482
v -0.2416 -0.120727 -0.422296
v -0.229808 -0.102156 -0.41518
v -0.230676 -0.111905 -0.421578
v -0.194469 -0.108587 -0.434309
v -0.176944 -0.117743 -0.44789
v -0.215593 -0.127209 -0.437476
v -0.135944 0.0412414 -0.213143
v -0.188392 0.0450996 -0.168648
v -0.286162 0.0771744 -0.171815
v -0.320706 0.0134364 -0.211543
v -0.320706 0.0153912 -0.208377
v -0.320706 0.0170374 -0.2057
v -0.320706 0.0219245 -0.197702
v -0.320706 0.0253969 -0.191956
v -0.320706 0.025577 -0.191597
v -0.320706 0.0301554 -0.182228
v -0.320706 0.0336535 -0.174426
v -0.190852 0.0771744 -0.168648
v -0.276957 -0.170833 -0.430164
v -0.320706 -0.16219 -0.391251
v -0.31575 -0.168183 -0.398825
v -0.151715 -0.118875 -0.458989
v -0.143866 -0.11638 -0.460621
v -0.135944 -0.113988 -0.462253
v -0.320706 -0.158538 -0.38877
v -0.273846 -0.126514 -0.40284
v -0.320706 -0.127106 -0.36729
v -0.283287 -0.117409 -0.38926
v -0.320706 -0.121139 -0.363177
v -0.317089 -0.119055 -0.364483
v -0.253898 -0.111442 -0.406986
v -0.25048 -0.103211 -0.403003
v -0.246356 -0.09534 -0.399837
v -0.238489 -0.0916103 -0.40271
v -0.245199 -0.108072 -0.410838
v -0.23395 -0.0837653 -0.399674
v -0.226119 -0.0809102 -0.401795
v -0.218034 -0.0724992 -0.399412
v -0.218034 -0.0783895 -0.403558
v -0.223677 -0.094414 -0.412372
v -0.220765 -0.107944 -0.422949
v -0.170813 -0.0884209 -0.430131
v -0.135944 -0.0993268 -0.452133
v -0.154663 -0.105191 -0.448444
v -0.170904 -0.110053 -0.445082
v -0.215828 -0.0920733 -0.414005
v -0.135944 -0.107815 -0.458009
v -0.135944 0.0488549 -0.213632
v -0.188989 0.0530218 -0.168648
v -0.320706 0.00785482 -0.219737
v -0.28278 0.0771744 -0.176711
v -0.320706 -0.021262 -0.261326
v -0.19078 0.0765828 -0.168648
v -0.135944 0.0765828 -0.215656
v -0.135944 0.0771744 -0.215722
v -0.279181 -0.109538 -0.386093
v -0.275926 -0.112856 -0.391251
v -0.320706 -0.116895 -0.360076
v -0.320706 -0.113499 -0.357399
v -0.320706 -0.109538 -0.354232
v -0.320706 -0.107378 -0.352502
v -0.272309 -0.0930765 -0.378096
v -0.320706 -0.082222 -0.332197
v -0.253373 -0.0854886 -0.386485
v -0.247333 -0.0826335 -0.388803
v -0.239484 -0.0789296 -0.391806
v -0.235288 -0.0710588 -0.388607
v -0.227457 -0.0678951 -0.391153
v -0.212084 -0.0707502 -0.400653
v -0.186873 -0.0716762 -0.411785
v -0.221724 -0.06005 -0.387856
v -0.21789 -0.0643198 -0.393014
v -0.194469 -0.0798042 -0.414331
v -0.201396 -0.0818619 -0.412895
v -0.168335 -0.0804986 -0.425659
v -0.159112 -0.0862345 -0.433461
v -0.135999 -0.0885752 -0.444658
v -0.135944 -0.0793412 -0.438259
v -0.135944 0.0530218 -0.213926
v -0.278982 0.0771744 -0.181706
v -0.317396 -0.0243743 -0.27001
v -0.320398 -0.0215706 -0.262175
v -0.320706 -0.0220593 -0.262436
v -0.135944 0.0619215 -0.214579
v -0.135944 0.0771744 -0.303013
v -0.320706 -0.0692326 -0.320706
v -0.320326 -0.0684352 -0.320347
v -0.320055 -0.0807044 -0.331447
v -0.315877 -0.0728336 -0.328215
v -0.286271 -0.0792383 -0.356191
v -0.260318 -0.0815018 -0.377932
v -0.2416 -0.0673549 -0.380283
v -0.2416 -0.0614647 -0.374733
v -0.223207 -0.0359747 -0.364777
v -0.227746 -0.055806 -0.379989
v -0.282093 -0.0713932 -0.352959
v -0.295042 -0.0703386 -0.342089
v -0.303199 -0.0615162 -0.327562
v -0.2227 -0.0479866 -0.376333
v -0.213875 -0.0580437 -0.389619
v -0.196531 -0.0608731 -0.399119
v -0.153813 -0.0703901 -0.424516
v -0.135944 -0.073168 -0.433885
v -0.206261 -0.0429452 -0.380544
v -0.21534 -0.0328624 -0.367486
v -0.209299 -0.0249916 -0.363895
v -0.205736 -0.0291327 -0.369216
v -0.206261 -0.037055 -0.375712
v -0.272399 0.0771744 -0.190324
v -0.320706 -0.0280524 -0.270499
v -0.320706 -0.0263291 -0.268247
v -0.268095 0.0771744 -0.195939
v -0.306509 -0.0234997 -0.283002
v -0.303488 -0.0264834 -0.290869
v -0.135944 -0.0274094 -0.396768
v -0.136107 0.0771744 -0.302948
v -0.320706 -0.0680751 -0.319499
v -0.316166 -0.0605645 -0.316202
v -0.312097 -0.0649886 -0.323938
v -0.30801 -0.0693869 -0.331218
v -0.29081 -0.0384697 -0.315287
v -0.282943 -0.0352802 -0.318291
v -0.249141 -0.0340456 -0.343035
v -0.219282 -0.0284897 -0.360402
v -0.308299 -0.057375 -0.319694
v -0.155621 -0.0576836 -0.413482
v -0.135944 -0.05488 -0.419358
v -0.135944 -0.0649628 -0.427487
v -0.20013 -0.035486 -0.377018
v -0.141876 -0.0351516 -0.400881
v -0.20145 -0.0230882 -0.365821
v -0.215376 -0.0213391 -0.356028
v -0.171808 0.0771744 -0.286201
v -0.160957 0.0771744 -0.292502
v -0.160541 0.0771744 -0.29273
v -0.1955 -0.0295443 -0.373884
v -0.307413 -0.0343285 -0.295929
v -0.320706 -0.0328366 -0.276669
v -0.262271 0.0771744 -0.203513
v -0.242052 0.0771744 -0.229791
v -0.295639 -0.0226766 -0.295668
v -0.135944 -0.0334282 -0.401893
v -0.159112 -0.0323737 -0.391415
v -0.159112 -0.0264834 -0.386387
v -0.151118 -0.0245543 -0.388019
v -0.143251 -0.0227795 -0.389652
v -0.147772 0.0771744 -0.298149
v -0.320706 -0.0631366 -0.313818
v -0.320706 -0.0592012 -0.309248
v -0.3081 -0.0453888 -0.308106
v -0.29591 -0.0343285 -0.30742
v -0.262109 -0.0331196 -0.332197
v -0.223225 -0.0240913 -0.353025
v -0.192263 -0.0335311 -0.37865
v -0.182677 -0.0253002 -0.375615
v -0.154934 0.0771744 -0.295146
v -0.176709 0.0771744 -0.282806
v -0.320706 -0.0563718 -0.305788
v -0.315262 -0.0384697 -0.290837
v -0.318282 -0.0352802 -0.282969
v -0.320706 -0.0330939 -0.276995
v -0.236952 0.0771744 -0.23619
v -0.23659 0.0771744 -0.236614
v -0.229772 0.0771744 -0.242066
v -0.287645 -0.0207732 -0.299977
v -0.290828 -0.0264834 -0.303503
v -0.176311 -0.0238084 -0.37692
v -0.276957 -0.0329395 -0.320609
v -0.257027 -0.0252745 -0.32828
v -0.269994 -0.0243743 -0.317409
v -0.282979 -0.0234997 -0.306539
v -0.196205 0.0771744 -0.26792
v -0.181701 0.0771744 -0.279019
v -0.320706 -0.0419421 -0.288029
v -0.223569 0.0771744 -0.246865
v -0.276957 -0.0270493 -0.314733
f 1 2 3
f 1 3 4
f 1 4 13
f 1 13 12
f 1 12 11
f 1 11 10
f 1 10 25
f 1 25 45
f 1 45 44
f 1 44 60
f 1 60 59
f 1 59 85
f 1 85 87
f 1 87 123
f 1 123 146
f 1 146 142
f 1 142 177
f 1 177 202
f 1 202 227
f 1 227 226
f 1 226 241
f 1 241 214
f 1 214 184
f 1 184 154
f 1 154 153
f 1 153 183
f 1 183 178
f 1 178 147
f 1 147 106
f 1 106 73
f 1 73 48
f 1 48 30
f 1 30 16
f 1 16 5
f 1 5 19
f 1 19 33
f 1 33 53
f 1 53 82
f 1 82 88
f 1 88 65
f 1 65 64
f 1 64 62
f 1 62 61
f 1 61 46
f 1 46 27
f 1 27 26
f 1 26 20
f 1 20 7
f 1 7 2
f 2 6 3
f 2 7 6
f 3 8 9
f 3 9 10
f 3 10 11
f 3 11 12
f 3 12 13
f 3 13 4
f 3 6 14
f 3 14 15
f 3 15 8
f 5 16 17
f 5 17 18
f 5 18 19
f 6 7 14
f 7 20 14
f 8 21 22
f 8 22 9
f 8 15 23
f 8 23 21
f 9 22 10
f 10 22 24
f 10 24 25
f 14 20 26
f 14 26 15
f 15 26 27
f 15 27 28
f 15 28 29
f 15 29 23
f 16 30 17
f 17 31 49
f 17 49 75
f 17 75 107
f 17 107 148
f 17 148 152
f 17 152 117
f 17 117 76
f 17 76 50
f 17 50 32
f 17 32 18
f 17 30 31
f 18 32 51
f 18 51 77
f 18 77 116
f 18 116 115
f 18 115 114
f 18 114 113
f 18 113 112
f 18 112 111
f 18 111 110
f 18 110 109
f 18 109 149
f 18 149 151
f 18 151 182
f 18 182 210
f 18 210 209
f 18 209 237
f 18 237 260
f 18 260 273
f 18 273 257
f 18 257 248
f 18 248 247
f 18 247 216
f 18 216 185
f 18 185 162
f 18 162 160
f 18 160 159
f 18 159 158
f 18 158 157
f 18 157 128
f 18 128 126
f 18 126 124
f 18 124 119
f 18 119 81
f 18 81 52
f 18 52 33
f 18 33 19
f 21 34 22
f 21 23 34
f 22 35 36
f 22 36 24
f 22 34 35
f 23 37 34
f 23 29 38
f 23 38 39
f 23 39 40
f 23 40 41
f 23 41 42
f 23 42 43
f 23 43 37
f 24 36 44
f 24 44 45
f 24 45 25
f 27 46 47
f 27 47 29
f 27 29 28
f 29 47 38
f 30 48 31
f 31 48 49
f 32 50 51
f 33 52 53
f 34 54 55
f 34 55 35
f 34 37 43
f 34 43 54
f 35 55 36
f 36 55 56
f 36 56 57
f 36 57 58
f 36 58 59
f 36 59 60
f 36 60 44
f 38 47 61
f 38 61 62
f 38 62 63
f 38 63 64
f 38 64 65
f 38 65 66
f 38 66 67
f 38 67 68
f 38 68 40
f 38 40 39
f 40 68 69
f 40 69 41
f 41 69 70
f 41 70 42
f 42 70 71
f 42 71 72
f 42 72 54
f 42 54 43
f 46 61 47
f 48 73 74
f 48 74 49
f 49 74 75
f 50 76 51
f 51 76 77
f 52 78 79
f 52 79 80
f 52 80 53
f 52 81 78
f 53 80 82
f 54 72 55
f 55 72 83
f 55 83 84
f 55 84 57
f 55 57 56
f 57 84 58
f 58 85 59
f 58 84 86
f 58 86 87
f 58 87 85
f 62 64 63
f 65 88 66
f 66 88 79
f 66 79 67
f 67 79 89
f 67 89 68
f 68 89 90
f 68 90 91
f 68 91 92
f 68 92 93
f 68 93 94
f 68 94 69
f 69 94 95
f 69 95 96
f 69 96 97
f 69 97 98
f 69 98 99
f 69 99 100
f 69 100 70
f 70 100 99
f 70 99 101
f 70 101 102
f 70 102 103
f 70 103 104
f 70 104 84
f 70 84 105
f 70 105 72
f 70 72 71
f 72 105 84
f 72 84 83
f 73 106 75
f 73 75 74
f 75 106 107
f 76 108 109
f 76 109 110
f 76 110 111
f 76 111 112
f 76 112 113
f 76 113 114
f 76 114 115
f 76 115 116
f 76 116 77
f 76 117 154
f 76 154 184
f 76 184 215
f 76 215 246
f 76 246 255
f 76 255 234
f 76 234 233
f 76 233 232
f 76 232 256
f 76 256 272
f 76 272 271
f 76 271 274
f 76 274 263
f 76 263 262
f 76 262 261
f 76 261 239
f 76 239 238
f 76 238 211
f 76 211 208
f 76 208 179
f 76 179 150
f 76 150 108
f 78 81 79
f 79 118 89
f 79 88 82
f 79 82 80
f 79 81 118
f 81 119 120
f 81 120 90
f 81 90 89
f 81 89 118
f 84 104 86
f 86 121 87
f 86 104 121
f 87 121 122
f 87 122 123
f 90 120 91
f 91 120 119
f 91 119 92
f 92 94 93
f 92 119 124
f 92 124 94
f 94 125 95
f 94 124 126
f 94 126 125
f 95 125 96
f 96 127 98
f 96 98 97
f 96 125 126
f 96 126 128
f 96 128 129
f 96 129 127
f 98 127 130
f 98 130 131
f 98 131 132
f 98 132 133
f 98 133 134
f 98 134 99
f 99 134 133
f 99 133 135
f 99 135 136
f 99 136 101
f 101 136 137
f 101 137 138
f 101 138 139
f 101 139 102
f 102 140 103
f 102 139 140
f 103 141 142
f 103 142 143
f 103 143 144
f 103 144 104
f 103 140 139
f 103 139 145
f 103 145 141
f 104 144 146
f 104 146 123
f 104 123 122
f 104 122 121
f 106 147 148
f 106 148 107
f 108 149 109
f 108 150 151
f 108 151 149
f 117 152 153
f 117 153 154
f 127 155 156
f 127 156 130
f 127 129 157
f 127 157 158
f 127 158 159
f 127 159 160
f 127 160 155
f 128 157 129
f 130 156 131
f 131 156 155
f 131 155 132
f 132 155 160
f 132 160 161
f 132 161 162
f 132 162 163
f 132 163 164
f 132 164 165
f 132 165 133
f 133 165 166
f 133 166 135
f 135 166 167
f 135 167 136
f 136 167 137
f 137 168 169
f 137 169 138
f 137 167 170
f 137 170 171
f 137 171 168
f 138 169 172
f 138 172 173
f 138 173 139
f 139 173 145
f 141 174 175
f 141 175 176
f 141 176 142
f 141 145 174
f 142 146 143
f 142 176 177
f 143 146 144
f 145 173 174
f 147 178 152
f 147 152 148
f 150 179 180
f 150 180 181
f 150 181 182
f 150 182 151
f 152 178 183
f 152 183 153
f 160 162 161
f 162 185 186
f 162 186 187
f 162 187 188
f 162 188 189
f 162 189 190
f 162 190 163
f 163 190 164
f 164 190 165
f 165 190 166
f 166 191 192
f 166 192 193
f 166 193 194
f 166 194 167
f 166 190 189
f 166 189 188
f 166 188 195
f 166 195 196
f 166 196 197
f 166 197 191
f 167 194 198
f 167 198 170
f 168 171 199
f 168 199 200
f 168 200 201
f 168 201 169
f 169 201 202
f 169 202 177
f 169 177 174
f 169 174 172
f 170 203 199
f 170 199 171
f 170 198 204
f 170 204 205
f 170 205 206
f 170 206 207
f 170 207 203
f 172 174 173
f 174 177 176
f 174 176 175
f 179 208 180
f 180 209 210
f 180 210 182
f 180 182 181
f 180 208 211
f 180 211 212
f 180 212 213
f 180 213 209
f 184 214 215
f 185 216 186
f 186 216 217
f 186 217 218
f 186 218 188
f 186 188 187
f 188 218 219
f 188 219 196
f 188 196 195
f 191 197 192
f 192 197 193
f 193 197 220
f 193 220 221
f 193 221 222
f 193 222 223
f 193 223 204
f 193 204 198
f 193 198 194
f 196 219 197
f 197 219 218
f 197 218 224
f 197 224 250
f 197 250 220
f 199 203 200
f 200 203 225
f 200 225 201
f 201 226 227
f 201 227 202
f 201 225 226
f 203 228 229
f 203 229 226
f 203 226 225
f 203 207 228
f 204 223 205
f 205 230 206
f 205 223 231
f 205 231 232
f 205 232 233
f 205 233 234
f 205 234 230
f 206 235 228
f 206 228 207
f 206 230 235
f 209 213 236
f 209 236 237
f 211 238 212
f 212 238 239
f 212 239 213
f 213 240 236
f 213 239 240
f 214 241 242
f 214 242 243
f 214 243 244
f 214 244 245
f 214 245 215
f 215 245 244
f 215 244 246
f 216 247 217
f 217 224 218
f 217 247 248
f 217 248 249
f 217 249 224
f 220 250 221
f 221 250 251
f 221 251 222
f 222 251 223
f 223 251 252
f 223 252 231
f 224 249 250
f 226 229 241
f 228 253 229
f 228 235 253
f 229 253 242
f 229 242 241
f 230 254 235
f 230 234 255
f 230 255 246
f 230 246 254
f 231 252 256
f 231 256 232
f 235 254 253
f 236 257 258
f 236 258 259
f 236 259 237
f 236 240 249
f 236 249 248
f 236 248 257
f 237 259 260
f 239 261 240
f 240 261 262
f 240 262 263
f 240 263 264
f 240 264 265
f 240 265 250
f 240 250 249
f 242 253 254
f 242 254 243
f 243 254 244
f 244 254 266
f 244 266 246
f 246 266 254
f 250 267 251
f 250 265 267
f 251 267 268
f 251 268 252
f 252 268 269
f 252 269 270
f 252 270 271
f 252 271 272
f 252 272 256
f 257 273 258
f 258 273 259
f 259 273 260
f 263 274 270
f 263 270 264
f 264 270 265
f 265 270 269
f 265 269 268
f 265 268 275
f 265 275 267
f 267 275 268
f 270 274 271
