v -0.342858 -0.14145 0.217694
v -0.444959 -0.14145 0.217694
v -0.419199 -0.278149 0.217694
v -0.473895 -0.278149 -0.000194437
v -0.407269 -0.14145 -0.000194437
v -0.455781 -0.159797 0.217544
v -0.455614 -0.159637 0.217694
v -0.44757 -0.14145 0.211422
v -0.507699 -0.278149 0.217694
v -0.556273 -0.278149 -0.000194437
v -0.497858 -0.14145 -0.000194437
v -0.460106 -0.164187 0.213299
v -0.455906 -0.160145 0.217694
v -0.449346 -0.14145 0.207134
v -0.470552 -0.154699 0.174666
v -0.474563 -0.15882 0.170805
v -0.507322 -0.276958 0.217694
v -0.508409 -0.278149 0.215987
v -0.554288 -0.269986 -0.000194437
v -0.556273 -0.278149 0.00639724
v -0.505526 -0.155488 -0.000194437
v -0.497858 -0.14145 0.00590659
v -0.471221 -0.165378 0.188084
v -0.461882 -0.171078 0.217544
v -0.483944 -0.163705 0.155041
v -0.461715 -0.170905 0.217694
v -0.474208 -0.14145 0.147041
v -0.478637 -0.148423 0.146252
v -0.485135 -0.159516 0.146252
v -0.503499 -0.265757 0.217694
v -0.503666 -0.265784 0.217352
v -0.507114 -0.270133 0.212979
v -0.518228 -0.272113 0.187764
v -0.512086 -0.276958 0.206238
v -0.517288 -0.278149 0.194569
v -0.542171 -0.235768 -0.000194437
v -0.554288 -0.269986 0.00296275
v -0.54215 -0.235661 -0.000109103
v -0.554811 -0.278149 0.017682
v -0.553787 -0.271498 0.010813
v -0.555646 -0.276034 0.0065039
v -0.507072 -0.158325 -0.000194437
v -0.505526 -0.155488 0.00590659
v -0.504774 -0.156893 0.017682
v -0.494662 -0.142039 0.0328493
v -0.49533 -0.14145 0.025255
v -0.482335 -0.166703 0.162891
v -0.471555 -0.176485 0.200692
v -0.467857 -0.18331 0.217694
v -0.46184 -0.171145 0.217694
v -0.484299 -0.174558 0.167648
v -0.493701 -0.167572 0.135522
v -0.491423 -0.171547 0.146742
v -0.475984 -0.14145 0.142732
v -0.481082 -0.14505 0.135522
v -0.483275 -0.15308 0.141623
v -0.484466 -0.150938 0.135522
v -0.489063 -0.159115 0.135522
v -0.503374 -0.265422 0.217694
v -0.50212 -0.262184 0.217694
v -0.498506 -0.252883 0.217694
v -0.50563 -0.262264 0.209374
v -0.518375 -0.259762 0.17633
v -0.530973 -0.269384 0.154721
v -0.529343 -0.274295 0.162571
v -0.52763 -0.278149 0.169589
v -0.542087 -0.235567 -0.000194437
v -0.542798 -0.269156 0.0883986
v -0.549128 -0.265168 0.0294788
v -0.550674 -0.265168 0.017682
v -0.552325 -0.265703 0.0065039
v -0.547958 -0.253379 0.00590659
v -0.54215 -0.235661 0.00012555
v -0.531328 -0.209967 -0.000194437
v -0.533083 -0.214142 -0.000194437
v -0.543988 -0.278149 0.0998967
v -0.545158 -0.276958 0.0883986
v -0.541795 -0.272221 0.103544
v -0.542317 -0.270534 0.0956942
v -0.508722 -0.16139 -0.000194437
v -0.508722 -0.16139 0.00590659
v -0.50797 -0.162782 0.017682
v -0.5068 -0.164936 0.0356438
v -0.503645 -0.160252 0.0402516
v -0.49345 -0.156037 0.100195
v -0.488687 -0.147325 0.100195
v -0.485469 -0.14145 0.100195
v -0.491674 -0.14145 0.053051
v -0.495414 -0.175923 0.142455
v -0.473498 -0.194859 0.217694
v -0.492029 -0.182975 0.158966
v -0.494808 -0.165364 0.128311
v -0.496542 -0.173461 0.135522
v -0.507114 -0.199676 0.14222
v -0.478909 -0.14145 0.135628
v -0.482273 -0.14145 0.123746
v -0.482732 -0.14224 0.123746
v -0.497608 -0.250595 0.217694
v -0.50726 -0.258049 0.201524
v -0.522177 -0.252375 0.160096
v -0.529489 -0.261528 0.151051
v -0.503833 -0.25382 0.205769
v -0.530993 -0.2575 0.14318
v -0.532331 -0.265342 0.14719
v -0.536112 -0.276958 0.147318
v -0.53208 -0.278149 0.158838
v -0.531955 -0.277721 0.158816
v -0.541962 -0.259748 0.0694342
v -0.543571 -0.266961 0.0766231
v -0.546036 -0.265168 0.053051
v -0.535172 -0.265168 0.135522
v -0.542484 -0.25833 0.0615839
v -0.546433 -0.253379 0.017682
v -0.541649 -0.237012 0.00799716
v -0.53981 -0.230963 0.00479732
v -0.534691 -0.218023 0.00590659
v -0.531328 -0.209967 0.00590659
v -0.529949 -0.206916 -0.000194437
v -0.539288 -0.278149 0.135522
v -0.538953 -0.276958 0.135522
v -0.511188 -0.166314 -0.000194437
v -0.513465 -0.170891 0.00590659
v -0.506278 -0.166007 0.0434941
v -0.49533 -0.164374 0.12044
v -0.51194 -0.170891 0.017682
v -0.492405 -0.159918 0.12413
v -0.483777 -0.14145 0.113016
v -0.484132 -0.14145 0.110328
v -0.497085 -0.182975 0.146742
v -0.483547 -0.211426 0.212958
v -0.47941 -0.206983 0.217694
v -0.496291 -0.209485 0.179914
v -0.497608 -0.194404 0.158966
v -0.485991 -0.148142 0.123746
v -0.505651 -0.167331 0.053051
v -0.508409 -0.173233 0.053051
v -0.507636 -0.174906 0.0648264
v -0.507093 -0.176097 0.073146
v -0.505317 -0.180004 0.100195
v -0.497482 -0.169941 0.12413
v -0.504063 -0.183818 0.122722
v -0.506299 -0.189639 0.125986
v -0.512002 -0.20626 0.135522
v -0.518583 -0.223858 0.141473
v -0.508701 -0.206662 0.146614
v -0.48315 -0.14145 0.117688
v -0.483171 -0.141477 0.117666
v -0.489501 -0.230134 0.217694
v -0.51733 -0.229813 0.15022
v -0.52951 -0.249672 0.135522
v -0.531704 -0.25556 0.135522
v -0.536467 -0.278149 0.147276
v -0.534023 -0.253379 0.111949
v -0.529698 -0.237467 0.100195
v -0.534629 -0.229813 0.0412542
v -0.540583 -0.242044 0.0303321
v -0.541022 -0.238725 0.017682
v -0.537721 -0.229813 0.017682
v -0.53139 -0.221275 0.0412542
v -0.532163 -0.219361 0.0294788
v -0.532665 -0.217006 0.0183647
v -0.530241 -0.212389 0.0227591
v -0.530743 -0.211238 0.0149088
v -0.528654 -0.204079 0.00590659
v -0.52226 -0.190028 -0.000194437
v -0.513465 -0.170891 -0.000194437
v -0.517393 -0.179349 0.00590659
v -0.51664 -0.181021 0.017682
v -0.494662 -0.212871 0.187764
v -0.484884 -0.218612 0.217352
v -0.484571 -0.21825 0.217694
v -0.479807 -0.207839 0.217694
v -0.507385 -0.21085 0.154721
v -0.519252 -0.210623 0.100195
v -0.514154 -0.20626 0.123746
v -0.516682 -0.216564 0.135522
v -0.507469 -0.222278 0.166667
v -0.504042 -0.218224 0.17072
v -0.505776 -0.214423 0.162571
v -0.514614 -0.219174 0.146166
v -0.519127 -0.222452 0.135522
v -0.521947 -0.229813 0.135522
v -0.494724 -0.224567 0.199732
v -0.484821 -0.218812 0.217694
v -0.523765 -0.229813 0.123746
v -0.530074 -0.24824 0.127522
v -0.529071 -0.227377 0.0766231
v -0.536175 -0.229813 0.0294788
v -0.529844 -0.225276 0.0648264
v -0.530262 -0.224125 0.0583627
v -0.530785 -0.2228 0.0505124
v -0.520067 -0.220137 0.123746
v -0.518228 -0.212898 0.115427
v -0.518751 -0.211693 0.107598
v -0.528319 -0.206889 0.0183647
v -0.517685 -0.214236 0.123746
v -0.518688 -0.182186 -0.000194437
v -0.517393 -0.179349 -0.000194437
v -0.493471 -0.217287 0.195252
v -0.496354 -0.220726 0.191882
f 1 2 7
f 1 7 13
f 1 13 26
f 1 26 50
f 1 50 49
f 1 49 90
f 1 90 131
f 1 131 172
f 1 172 171
f 1 171 184
f 1 184 148
f 1 148 98
f 1 98 61
f 1 61 60
f 1 60 59
f 1 59 30
f 1 30 17
f 1 17 9
f 1 9 3
f 1 3 4
f 1 4 5
f 1 5 11
f 1 11 22
f 1 22 46
f 1 46 88
f 1 88 87
f 1 87 128
f 1 128 127
f 1 127 146
f 1 146 96
f 1 96 95
f 1 95 54
f 1 54 27
f 1 27 14
f 1 14 8
f 1 8 2
f 2 6 7
f 2 8 6
f 3 9 18
f 3 18 35
f 3 35 66
f 3 66 106
f 3 106 152
f 3 152 119
f 3 119 76
f 3 76 39
f 3 39 20
f 3 20 10
f 3 10 4
f 4 10 19
f 4 19 36
f 4 36 67
f 4 67 75
f 4 75 74
f 4 74 118
f 4 118 165
f 4 165 197
f 4 197 198
f 4 198 166
f 4 166 121
f 4 121 80
f 4 80 42
f 4 42 21
f 4 21 11
f 4 11 5
f 6 12 13
f 6 13 7
f 6 8 14
f 6 14 15
f 6 15 16
f 6 16 12
f 9 17 18
f 10 20 37
f 10 37 19
f 11 21 43
f 11 43 22
f 12 23 24
f 12 24 13
f 12 16 25
f 12 25 23
f 13 24 26
f 14 27 28
f 14 28 15
f 15 28 29
f 15 29 16
f 16 29 25
f 17 30 31
f 17 31 32
f 17 32 33
f 17 33 34
f 17 34 18
f 18 34 35
f 19 37 73
f 19 73 38
f 19 38 36
f 20 39 40
f 20 40 41
f 20 41 37
f 21 42 43
f 22 43 44
f 22 44 45
f 22 45 46
f 23 25 47
f 23 47 24
f 24 48 49
f 24 49 50
f 24 50 26
f 24 47 51
f 24 51 48
f 25 29 52
f 25 52 53
f 25 53 47
f 27 54 55
f 27 55 28
f 28 55 56
f 28 56 29
f 29 56 57
f 29 57 58
f 29 58 52
f 30 59 31
f 31 59 60
f 31 60 61
f 31 61 62
f 31 62 63
f 31 63 64
f 31 64 32
f 32 64 33
f 33 64 65
f 33 65 34
f 34 65 35
f 35 65 66
f 36 38 67
f 37 41 40
f 37 40 68
f 37 68 69
f 37 69 70
f 37 70 71
f 37 71 72
f 37 72 73
f 38 73 117
f 38 117 74
f 38 74 75
f 38 75 67
f 39 76 77
f 39 77 78
f 39 78 40
f 40 78 79
f 40 79 68
f 42 80 81
f 42 81 43
f 43 81 82
f 43 82 44
f 44 82 83
f 44 83 84
f 44 84 45
f 45 84 85
f 45 85 86
f 45 86 87
f 45 87 88
f 45 88 46
f 47 53 89
f 47 89 51
f 48 51 89
f 48 89 49
f 49 89 91
f 49 91 90
f 52 58 92
f 52 92 93
f 52 93 94
f 52 94 89
f 52 89 53
f 54 95 55
f 55 96 97
f 55 97 92
f 55 92 57
f 55 57 56
f 55 95 96
f 57 92 58
f 61 98 99
f 61 99 62
f 62 99 63
f 63 100 101
f 63 101 64
f 63 99 102
f 63 102 100
f 64 101 103
f 64 103 104
f 64 104 105
f 64 105 106
f 64 106 107
f 64 107 65
f 65 107 106
f 65 106 66
f 68 108 109
f 68 109 110
f 68 110 69
f 68 79 111
f 68 111 108
f 69 110 108
f 69 108 70
f 70 108 112
f 70 112 113
f 70 113 71
f 71 113 72
f 72 113 114
f 72 114 73
f 73 114 115
f 73 115 116
f 73 116 117
f 74 117 118
f 76 119 120
f 76 120 77
f 77 120 78
f 78 120 111
f 78 111 79
f 80 121 81
f 81 121 122
f 81 122 82
f 82 122 83
f 83 123 92
f 83 92 124
f 83 124 84
f 83 122 125
f 83 125 123
f 84 124 85
f 85 124 86
f 86 124 126
f 86 126 127
f 86 127 128
f 86 128 87
f 89 94 129
f 89 129 91
f 90 130 131
f 90 91 132
f 90 132 130
f 91 129 94
f 91 94 133
f 91 133 132
f 92 97 134
f 92 134 126
f 92 126 124
f 92 123 135
f 92 135 136
f 92 136 137
f 92 137 138
f 92 138 139
f 92 139 140
f 92 140 141
f 92 141 142
f 92 142 143
f 92 143 94
f 92 94 93
f 94 143 144
f 94 144 145
f 94 145 132
f 94 132 133
f 96 146 147
f 96 147 97
f 97 147 134
f 98 148 102
f 98 102 99
f 100 149 144
f 100 144 101
f 100 102 149
f 101 144 103
f 102 148 149
f 103 105 104
f 103 144 150
f 103 150 151
f 103 151 111
f 103 111 120
f 103 120 105
f 105 120 152
f 105 152 106
f 108 110 109
f 108 111 151
f 108 151 112
f 112 151 153
f 112 153 154
f 112 154 155
f 112 155 156
f 112 156 113
f 113 156 157
f 113 157 114
f 114 157 158
f 114 158 115
f 115 158 116
f 116 158 159
f 116 159 160
f 116 160 161
f 116 161 162
f 116 162 163
f 116 163 117
f 117 164 118
f 117 163 164
f 118 164 165
f 119 152 120
f 121 166 122
f 122 166 198
f 122 198 167
f 122 167 125
f 123 125 135
f 125 167 168
f 125 168 136
f 125 136 135
f 126 134 147
f 126 147 127
f 127 147 146
f 130 169 170
f 130 170 171
f 130 171 172
f 130 172 131
f 130 132 173
f 130 173 169
f 132 145 173
f 136 168 137
f 137 168 138
f 138 168 139
f 139 168 174
f 139 174 142
f 139 142 141
f 139 141 140
f 142 175 176
f 142 176 143
f 142 174 175
f 143 176 144
f 144 177 178
f 144 178 179
f 144 179 180
f 144 180 145
f 144 176 181
f 144 181 182
f 144 182 150
f 144 149 148
f 144 148 183
f 144 183 177
f 145 180 173
f 148 184 170
f 148 170 183
f 150 182 185
f 150 185 151
f 151 185 186
f 151 186 153
f 153 186 154
f 154 187 155
f 154 186 185
f 154 185 187
f 155 188 157
f 155 157 156
f 155 187 189
f 155 189 188
f 157 188 158
f 158 188 190
f 158 190 191
f 158 191 159
f 159 162 160
f 159 191 192
f 159 192 162
f 160 162 161
f 162 193 194
f 162 194 174
f 162 174 195
f 162 195 163
f 162 192 196
f 162 196 193
f 163 195 164
f 164 167 165
f 164 195 168
f 164 168 167
f 165 167 197
f 167 198 197
f 168 195 174
f 169 199 170
f 169 173 179
f 169 179 199
f 170 184 171
f 170 199 200
f 170 200 183
f 173 180 179
f 174 194 175
f 175 196 176
f 175 194 193
f 175 193 196
f 176 196 181
f 177 183 200
f 177 200 178
f 178 200 199
f 178 199 179
f 181 196 192
f 181 192 182
f 182 192 185
f 185 192 190
f 185 190 189
f 185 189 187
f 188 189 190
f 190 192 191
