v -0.145263 -0.479543 0.572193
v -0.145263 -0.475238 0.571929
v -0.147339 -0.477314 0.571753
v -0.147339 -0.479543 0.571885
v -0.145263 -0.479543 0.477323
v -0.145263 -0.44196 0.569884
v -0.147339 -0.465528 0.571027
v -0.156905 -0.44196 0.56718
v -0.159108 -0.479543 0.568653
v -0.145787 -0.479543 0.475762
v -0.145263 -0.437466 0.487349
v -0.145263 -0.437466 0.56951
v -0.147339 -0.44196 0.569576
v -0.156444 -0.437466 0.566982
v -0.160073 -0.437466 0.565509
v -0.1628 -0.44196 0.564783
v -0.165066 -0.471015 0.565729
v -0.165569 -0.477314 0.565927
v -0.165737 -0.479543 0.565993
v -0.151178 -0.479543 0.469474
v -0.350594 -0.479543 0.350618
v -0.359551 -0.437466 0.360622
v -0.147339 -0.437466 0.569203
v -0.188917 -0.437466 0.553681
v -0.173583 -0.479543 0.562761
v -0.359551 -0.479543 0.347584
v -0.359551 -0.437466 0.459889
v -0.246732 -0.44196 0.530024
v -0.222566 -0.465528 0.541566
v -0.182687 -0.477314 0.558847
v -0.272283 -0.437466 0.519075
v -0.278619 -0.44196 0.51681
v -0.218853 -0.478472 0.543941
v -0.243271 -0.479543 0.533893
v -0.359551 -0.479543 0.463164
v -0.359551 -0.44196 0.460328
v -0.357013 -0.44196 0.462285
v -0.329721 -0.43885 0.482996
v -0.329616 -0.437466 0.482908
v -0.265172 -0.465528 0.523912
v -0.27522 -0.437466 0.517843
v -0.277759 -0.437466 0.516766
v -0.28422 -0.437466 0.513974
v -0.28873 -0.437466 0.512017
v -0.28873 -0.44196 0.512413
v -0.28873 -0.465528 0.513996
v -0.281388 -0.477314 0.517953
v -0.265172 -0.479543 0.524813
v -0.359069 -0.479543 0.463538
v -0.359551 -0.477606 0.463033
v -0.359551 -0.453746 0.46123
v -0.344027 -0.453746 0.473146
v -0.334776 -0.44245 0.47939
v -0.30331 -0.453746 0.504388
v -0.316295 -0.44196 0.493527
v -0.302722 -0.44196 0.503926
v -0.302428 -0.437466 0.503707
v -0.328672 -0.437466 0.483633
v -0.296534 -0.437466 0.508082
v -0.296827 -0.44196 0.50828
v -0.28873 -0.479543 0.514919
v -0.281556 -0.479543 0.518019
v -0.331713 -0.479543 0.484535
v -0.359551 -0.477314 0.463011
v -0.305953 -0.479543 0.5043
v -0.304568 -0.479543 0.505355
v -0.300184 -0.437466 0.505399
v -0.298569 -0.477314 0.509489
v -0.298673 -0.479543 0.509555
v -0.299785 -0.479543 0.508763
f 1 2 3
f 1 3 4
f 1 4 9
f 1 9 19
f 1 19 25
f 1 25 34
f 1 34 48
f 1 48 62
f 1 62 61
f 1 61 69
f 1 69 70
f 1 70 66
f 1 66 65
f 1 65 63
f 1 63 49
f 1 49 35
f 1 35 26
f 1 26 21
f 1 21 20
f 1 20 10
f 1 10 5
f 1 5 11
f 1 11 12
f 1 12 6
f 1 6 2
f 2 6 3
f 3 6 7
f 3 7 8
f 3 8 4
f 4 8 9
f 5 10 11
f 6 12 23
f 6 23 13
f 6 13 7
f 7 13 8
f 8 14 15
f 8 15 16
f 8 16 17
f 8 17 18
f 8 18 9
f 8 13 14
f 9 18 19
f 10 20 11
f 11 20 21
f 11 21 22
f 11 22 27
f 11 27 39
f 11 39 58
f 11 58 57
f 11 57 67
f 11 67 59
f 11 59 44
f 11 44 43
f 11 43 42
f 11 42 41
f 11 41 31
f 11 31 24
f 11 24 15
f 11 15 14
f 11 14 23
f 11 23 12
f 13 23 14
f 15 24 16
f 16 24 25
f 16 25 17
f 17 25 18
f 18 25 19
f 21 26 22
f 22 26 35
f 22 35 50
f 22 50 64
f 22 64 51
f 22 51 36
f 22 36 27
f 24 28 29
f 24 29 30
f 24 30 25
f 24 31 32
f 24 32 28
f 25 30 33
f 25 33 34
f 27 36 37
f 27 37 38
f 27 38 39
f 28 40 29
f 28 32 40
f 29 40 34
f 29 34 33
f 29 33 30
f 31 41 32
f 32 41 42
f 32 42 43
f 32 43 44
f 32 44 45
f 32 45 46
f 32 46 47
f 32 47 40
f 34 40 47
f 34 47 48
f 35 49 50
f 36 51 37
f 37 51 52
f 37 52 53
f 37 53 38
f 38 53 54
f 38 54 55
f 38 55 56
f 38 56 57
f 38 57 58
f 38 58 39
f 44 59 45
f 45 59 60
f 45 60 46
f 46 61 47
f 46 60 61
f 47 61 62
f 47 62 48
f 49 63 50
f 50 63 65
f 50 65 64
f 51 64 52
f 52 54 53
f 52 64 54
f 54 65 66
f 54 66 60
f 54 60 56
f 54 56 55
f 54 64 65
f 56 60 67
f 56 67 57
f 59 67 60
f 60 66 68
f 60 68 61
f 61 68 69
f 66 70 68
f 68 70 69
