v -0.00590481 0.274234 -0.38822
v 0.00588271 0.274234 -0.38822
v -0.0166105 0.274234 -0.386838
v -0.0694506 0.495313 -0.553756
v -0.061597 0.494678 -0.554236
v -0.0294658 0.492882 -0.55638
v -0.00590481 0.491583 -0.557932
v 0.0176702 0.274234 -0.386697
v 0.00588271 0.491583 -0.557932
v 0.0176702 0.492219 -0.557142
v 0.0278983 0.492799 -0.556465
v -0.0176923 0.274234 -0.386697
v -0.115631 0.492688 -0.544814
v -0.0766018 0.496336 -0.553277
v -0.00590481 0.499265 -0.563799
v -0.0787795 0.274234 -0.378657
v -0.0883894 0.274234 -0.377387
v 0.018752 0.274234 -0.386556
v 0.00588271 0.499265 -0.563799
v 0.0278983 0.494015 -0.557254
v 0.0278983 0.274234 -0.385343
v -0.115631 0.500867 -0.54992
v -0.0909604 0.274234 -0.376908
v -0.0994463 0.274234 -0.375243
v -0.100177 0.274234 -0.375074
v -0.107904 0.274234 -0.372535
v -0.111107 0.274234 -0.371435
v -0.115631 0.274234 -0.369573
v -0.0883894 0.498076 -0.552487
v -0.0128734 0.506338 -0.56583
v -0.00590481 0.50515 -0.566197
v 0.00588271 0.50515 -0.566197
v 0.0128653 0.506338 -0.56583
v 0.0278983 0.500978 -0.561486
v 0.0278983 0.274234 -0.300064
v -0.101048 0.501309 -0.55212
v -0.11195 0.500867 -0.550428
v -0.115631 0.512942 -0.547183
v -0.0977182 0.507333 -0.554292
v -0.0977182 0.505537 -0.554292
v -0.115631 0.274234 -0.278032
v -0.0128734 0.506946 -0.56583
v -0.00590481 0.507499 -0.566197
v 0.00588271 0.507499 -0.566197
v 0.0128653 0.506946 -0.56583
v 0.0278983 0.502249 -0.561232
v 0.0278983 0.27697 -0.301136
v -0.11195 0.512666 -0.547917
v -0.115631 0.516203 -0.544475
v -0.101048 0.511809 -0.550117
v 0.0278983 0.286116 -0.304972
v -0.115631 0.276583 -0.279019
v -0.00590481 0.513384 -0.561317
v -0.0883894 0.513937 -0.550004
v -0.0648143 0.515788 -0.551556
v 0.00588271 0.513384 -0.561317
v 0.0278983 0.513384 -0.558355
v 0.0176702 0.519435 -0.554659
v 0.0278983 0.518634 -0.553982
v -0.115631 0.520513 -0.540836
v -0.115631 0.283242 -0.281953
v 0.0278983 0.291228 -0.307285
v -0.0176923 0.519435 -0.554659
v -0.00590481 0.526233 -0.550428
v -0.11195 0.524962 -0.537564
v -0.0415203 0.525487 -0.546394
v 0.00588271 0.526233 -0.550428
v 0.0176702 0.525321 -0.549666
v 0.0278983 0.531483 -0.543093
v 0.0278983 0.523663 -0.549722
v -0.115631 0.524381 -0.537564
v -0.115631 0.284845 -0.282714
v 0.0278983 0.315958 -0.318541
v 0.0278983 0.316731 -0.318908
v -0.0176923 0.525321 -0.549666
v -0.0294658 0.550079 -0.527098
v -0.00590481 0.545989 -0.533643
v -0.115631 0.546293 -0.518973
v -0.0883894 0.54657 -0.52233
v -0.0294658 0.537258 -0.537987
v 0.00588271 0.545989 -0.533643
v 0.0278983 0.545105 -0.531527
v -0.115631 0.288437 -0.284435
v 0.0278983 0.324109 -0.322519
v -0.115631 0.312117 -0.296001
v -0.11195 0.550631 -0.515758
v -0.0624821 0.554389 -0.51903
v -0.0176923 0.550991 -0.527803
v -0.00590481 0.551902 -0.528311
v -0.115631 0.550327 -0.515504
v 0.00588271 0.551902 -0.528311
v 0.0176702 0.550991 -0.527803
v 0.0278983 0.550189 -0.527183
v -0.115631 0.320821 -0.300402
v -0.115631 0.313692 -0.296791
v 0.0278983 0.334195 -0.327709
v -0.115631 0.552262 -0.51367
v -0.0530268 0.554969 -0.51965
v -0.115631 0.556213 -0.509608
v -0.0412533 0.555577 -0.520412
v -0.0294658 0.556102 -0.521202
v -0.0176923 0.556434 -0.521907
v -0.00590481 0.556434 -0.522415
v 0.00588271 0.556434 -0.522415
v 0.0176702 0.556434 -0.521907
v 0.0278983 0.556158 -0.521287
v -0.115631 0.324054 -0.302095
v 0.0278983 0.346518 -0.334452
v -0.115631 0.330243 -0.305452
v -0.115631 0.556102 -0.501427
v -0.11195 0.556323 -0.502019
v -0.11195 0.556323 -0.509862
v -0.100177 0.556489 -0.510454
v 0.0176702 0.556434 -0.514065
v 0.0278983 0.556158 -0.513388
v 0.0278983 0.362655 -0.343281
v -0.115631 0.331763 -0.306298
v -0.100177 0.556489 -0.50264
v -0.115631 0.555163 -0.499255
v 0.0278983 0.553422 -0.507492
v 0.0278983 0.371386 -0.348472
v -0.115631 0.35909 -0.32235
v -0.115631 0.355802 -0.320403
v -0.115631 0.553339 -0.495869
v -0.115631 0.552096 -0.494346
v -0.115631 0.547454 -0.488704
v 0.0278983 0.547841 -0.50075
v 0.0278983 0.377714 -0.352393
v -0.115631 0.365501 -0.326186
v -0.115631 0.536152 -0.47522
v 0.0278983 0.546791 -0.499509
v 0.0278983 0.383157 -0.355891
v -0.115631 0.368596 -0.328133
v -0.115631 0.531621 -0.469888
v 0.0278983 0.531649 -0.481652
v 0.0278983 0.542535 -0.494487
v 0.0278983 0.393381 -0.362492
v 0.0278983 0.399267 -0.366301
v 0.0278983 0.405511 -0.370419
v -0.115631 0.374315 -0.331913
v -0.115631 0.530046 -0.468054
v 0.0278983 0.530958 -0.480862
v 0.0278983 0.406616 -0.371153
v -0.115631 0.380228 -0.335947
v 0.0278983 0.413082 -0.375525
v -0.115631 0.526454 -0.463992
v 0.0278983 0.526454 -0.475756
v -0.115631 0.382881 -0.33778
v 0.0278983 0.413939 -0.376118
v -0.115631 0.524603 -0.461933
v -0.115631 0.520541 -0.457504
v -0.115631 0.518855 -0.45567
v 0.0278983 0.520541 -0.469352
v -0.115631 0.395592 -0.346582
v 0.0278983 0.419023 -0.379926
v -0.115631 0.408523 -0.355637
v -0.115631 0.403301 -0.351942
v -0.115631 0.495728 -0.431579
v 0.0278983 0.514793 -0.463456
v 0.0278983 0.427616 -0.386415
v -0.115631 0.413745 -0.359559
v -0.115631 0.491694 -0.427517
v 0.0278983 0.497192 -0.445571
v 0.0278983 0.502304 -0.450762
v 0.0278983 0.508134 -0.456686
v 0.0278983 0.446599 -0.400773
v -0.115631 0.416536 -0.361759
v 0.0278983 0.447179 -0.401225
v -0.115631 0.48987 -0.425683
v 0.0278983 0.491196 -0.439675
v -0.115631 0.420653 -0.36506
v 0.0278983 0.447843 -0.401761
v -0.115631 0.483929 -0.419928
v 0.0278983 0.490423 -0.438942
v -0.115631 0.422643 -0.366668
v 0.0278983 0.45301 -0.406049
v -0.115631 0.448893 -0.388022
v -0.115631 0.442206 -0.382522
v -0.115631 0.477684 -0.414145
v 0.0278983 0.485311 -0.434146
v 0.0278983 0.460166 -0.412057
v -0.115631 0.452954 -0.391577
v 0.0278983 0.471688 -0.422128
v -0.115631 0.464394 -0.40193
v 0.0278983 0.484426 -0.433356
v -0.115631 0.455082 -0.393495
v 0.0278983 0.478651 -0.42825
f 1 2 8
f 1 8 18
f 1 18 21
f 1 21 35
f 1 35 41
f 1 41 28
f 1 28 27
f 1 27 26
f 1 26 25
f 1 25 24
f 1 24 23
f 1 23 17
f 1 17 16
f 1 16 12
f 1 12 3
f 1 3 4
f 1 4 5
f 1 5 6
f 1 6 7
f 1 7 9
f 1 9 2
f 2 9 10
f 2 10 11
f 2 11 8
f 3 12 4
f 4 13 14
f 4 14 15
f 4 15 5
f 4 12 16
f 4 16 17
f 4 17 13
f 5 15 6
f 6 15 7
f 7 15 19
f 7 19 9
f 8 11 18
f 9 19 10
f 10 19 11
f 11 19 20
f 11 20 34
f 11 34 46
f 11 46 57
f 11 57 59
f 11 59 70
f 11 70 69
f 11 69 82
f 11 82 93
f 11 93 106
f 11 106 115
f 11 115 120
f 11 120 127
f 11 127 131
f 11 131 136
f 11 136 135
f 11 135 142
f 11 142 147
f 11 147 153
f 11 153 159
f 11 159 165
f 11 165 164
f 11 164 163
f 11 163 170
f 11 170 174
f 11 174 180
f 11 180 185
f 11 185 187
f 11 187 183
f 11 183 181
f 11 181 176
f 11 176 172
f 11 172 168
f 11 168 166
f 11 166 160
f 11 160 155
f 11 155 149
f 11 149 145
f 11 145 143
f 11 143 139
f 11 139 138
f 11 138 137
f 11 137 132
f 11 132 128
f 11 128 121
f 11 121 116
f 11 116 108
f 11 108 96
f 11 96 84
f 11 84 74
f 11 74 73
f 11 73 62
f 11 62 51
f 11 51 47
f 11 47 35
f 11 35 21
f 11 21 18
f 13 22 14
f 13 17 23
f 13 23 24
f 13 24 25
f 13 25 26
f 13 26 27
f 13 27 28
f 13 28 41
f 13 41 52
f 13 52 61
f 13 61 72
f 13 72 83
f 13 83 85
f 13 85 95
f 13 95 94
f 13 94 107
f 13 107 109
f 13 109 117
f 13 117 123
f 13 123 122
f 13 122 129
f 13 129 133
f 13 133 140
f 13 140 144
f 13 144 148
f 13 148 154
f 13 154 157
f 13 157 156
f 13 156 161
f 13 161 167
f 13 167 171
f 13 171 175
f 13 175 178
f 13 178 177
f 13 177 182
f 13 182 186
f 13 186 184
f 13 184 179
f 13 179 173
f 13 173 169
f 13 169 162
f 13 162 158
f 13 158 152
f 13 152 151
f 13 151 150
f 13 150 146
f 13 146 141
f 13 141 134
f 13 134 130
f 13 130 126
f 13 126 125
f 13 125 124
f 13 124 119
f 13 119 110
f 13 110 99
f 13 99 97
f 13 97 90
f 13 90 78
f 13 78 71
f 13 71 60
f 13 60 49
f 13 49 38
f 13 38 22
f 14 22 29
f 14 29 15
f 15 30 31
f 15 31 32
f 15 32 19
f 15 29 30
f 19 32 33
f 19 33 34
f 19 34 20
f 22 36 37
f 22 37 29
f 22 38 39
f 22 39 40
f 22 40 36
f 29 36 40
f 29 40 30
f 29 37 36
f 30 42 43
f 30 43 31
f 30 40 39
f 30 39 42
f 31 43 44
f 31 44 32
f 32 44 45
f 32 45 33
f 33 45 34
f 34 45 46
f 35 47 41
f 38 48 39
f 38 49 48
f 39 48 49
f 39 49 50
f 39 50 42
f 41 47 51
f 41 51 52
f 42 53 43
f 42 50 54
f 42 54 55
f 42 55 53
f 43 53 56
f 43 56 44
f 44 56 45
f 45 57 46
f 45 56 58
f 45 58 59
f 45 59 57
f 49 60 54
f 49 54 50
f 51 61 52
f 51 62 61
f 53 55 63
f 53 63 64
f 53 64 67
f 53 67 56
f 54 60 65
f 54 65 55
f 55 66 63
f 55 65 66
f 56 67 58
f 58 67 68
f 58 68 69
f 58 69 70
f 58 70 59
f 60 71 65
f 61 62 73
f 61 73 74
f 61 74 72
f 63 66 75
f 63 75 64
f 64 75 76
f 64 76 77
f 64 77 81
f 64 81 67
f 65 71 78
f 65 78 79
f 65 79 66
f 66 79 80
f 66 80 75
f 67 81 82
f 67 82 68
f 68 82 69
f 72 74 83
f 74 84 85
f 74 85 83
f 75 80 76
f 76 79 86
f 76 86 87
f 76 87 88
f 76 88 77
f 76 80 79
f 77 88 89
f 77 89 91
f 77 91 81
f 78 90 86
f 78 86 79
f 81 91 92
f 81 92 93
f 81 93 82
f 84 94 95
f 84 95 85
f 84 96 94
f 86 90 97
f 86 97 87
f 87 98 88
f 87 97 99
f 87 99 98
f 88 98 89
f 89 98 100
f 89 100 101
f 89 101 102
f 89 102 103
f 89 103 104
f 89 104 91
f 91 104 105
f 91 105 106
f 91 106 92
f 92 106 93
f 94 96 107
f 96 108 109
f 96 109 107
f 98 99 100
f 99 110 111
f 99 111 112
f 99 112 101
f 99 101 100
f 101 112 102
f 102 112 113
f 102 113 103
f 103 113 104
f 104 113 105
f 105 113 118
f 105 118 114
f 105 114 115
f 105 115 106
f 108 116 109
f 109 116 117
f 110 118 111
f 110 119 118
f 111 118 113
f 111 113 112
f 114 118 115
f 115 118 120
f 116 121 122
f 116 122 123
f 116 123 117
f 118 119 124
f 118 124 120
f 120 124 125
f 120 125 126
f 120 126 127
f 121 128 129
f 121 129 122
f 126 130 127
f 127 130 131
f 128 132 133
f 128 133 129
f 130 134 135
f 130 135 136
f 130 136 131
f 132 137 133
f 133 137 138
f 133 138 139
f 133 139 140
f 134 141 135
f 135 141 142
f 139 143 140
f 140 143 145
f 140 145 144
f 141 146 147
f 141 147 142
f 144 145 148
f 145 149 148
f 146 150 147
f 147 150 151
f 147 151 152
f 147 152 153
f 148 149 154
f 149 155 156
f 149 156 157
f 149 157 154
f 152 158 153
f 153 158 159
f 155 160 161
f 155 161 156
f 158 162 163
f 158 163 164
f 158 164 165
f 158 165 159
f 160 166 161
f 161 166 168
f 161 168 167
f 162 169 163
f 163 169 170
f 167 168 171
f 168 172 175
f 168 175 171
f 169 173 170
f 170 173 174
f 172 176 177
f 172 177 178
f 172 178 175
f 173 179 180
f 173 180 174
f 176 181 177
f 177 181 183
f 177 183 182
f 179 184 180
f 180 184 186
f 180 186 182
f 180 182 185
f 182 183 187
f 182 187 185
