v -0.403625 0.305001 9.08653e-05
v -0.403625 0.305001 0.00589546
v -0.316435 0.305001 9.08653e-05
v -0.334066 0.0771744 9.08653e-05
v -0.402096 0.305001 0.017686
v -0.334066 0.0771744 0.00589546
v -0.281344 0.305001 0.142638
v -0.278985 0.300229 0.142638
v -0.273832 0.289701 0.142638
v -0.270774 0.283412 0.142638
v -0.269924 0.281628 0.142638
v -0.267565 0.276476 0.142638
v -0.314397 0.300518 9.08653e-05
v -0.255503 0.0771744 9.08653e-05
v -0.396735 0.305001 0.0585554
v -0.332518 0.0771744 0.017686
v -0.374914 0.305001 0.142638
v -0.264865 0.270119 0.142638
v -0.304355 0.277791 9.08653e-05
v -0.308677 0.287917 9.08653e-05
v -0.311471 0.294073 9.08653e-05
v -0.255994 0.0824156 9.08653e-05
v -0.211106 0.0813228 0.142638
v -0.210804 0.0771744 0.142638
v -0.394375 0.305001 0.0764157
v -0.32476 0.0771744 0.0765971
v -0.375159 0.305001 0.142052
v -0.30024 0.0771744 0.142638
v -0.263016 0.265681 0.142638
v -0.253087 0.241816 0.142638
v -0.301901 0.271435 9.08653e-05
v -0.25656 0.0883929 9.08653e-05
v -0.211389 0.0836646 0.142638
v -0.392828 0.305001 0.0881086
v -0.322117 0.0771744 0.0883877
v -0.389713 0.305001 0.106206
v -0.391015 0.305001 0.100164
v -0.392318 0.305001 0.0916946
v -0.376254 0.305001 0.139415
v -0.312943 0.0771744 0.111955
v -0.386844 0.305001 0.113866
v -0.244026 0.216948 0.142638
v -0.290783 0.241593 9.08653e-05
v -0.292255 0.24563 9.08653e-05
v -0.299503 0.265168 9.08653e-05
v -0.261298 0.123766 9.08653e-05
v -0.262242 0.129565 9.08653e-05
v -0.214088 0.100214 0.142638
v -0.319229 0.0771744 0.0967039
v -0.389279 0.305001 0.107922
v -0.319116 0.0771744 0.0969969
v -0.240307 0.206265 0.142638
v -0.286724 0.229817 9.08653e-05
v -0.263223 0.135542 9.08653e-05
v -0.21607 0.111967 0.142638
v -0.232512 0.18249 0.142638
v -0.283855 0.220472 9.08653e-05
v -0.264356 0.141341 9.08653e-05
v -0.218071 0.123766 0.142638
v -0.22917 0.170892 0.142638
v -0.27974 0.206243 9.08653e-05
v -0.265545 0.14734 9.08653e-05
v -0.220412 0.135497 0.142638
v -0.222526 0.144195 0.142638
v -0.272812 0.181598 9.08653e-05
v -0.27638 0.194444 9.08653e-05
v -0.270321 0.170736 9.08653e-05
v -0.221771 0.14114 0.142638
f 1 2 5
f 1 5 15
f 1 15 25
f 1 25 34
f 1 34 38
f 1 38 37
f 1 37 36
f 1 36 50
f 1 50 41
f 1 41 39
f 1 39 27
f 1 27 17
f 1 17 7
f 1 7 3
f 1 3 13
f 1 13 21
f 1 21 20
f 1 20 19
f 1 19 31
f 1 31 45
f 1 45 44
f 1 44 43
f 1 43 53
f 1 53 57
f 1 57 61
f 1 61 66
f 1 66 65
f 1 65 67
f 1 67 62
f 1 62 58
f 1 58 54
f 1 54 47
f 1 47 46
f 1 46 32
f 1 32 22
f 1 22 14
f 1 14 4
f 1 4 6
f 1 6 2
f 2 6 5
f 3 7 8
f 3 8 9
f 3 9 10
f 3 10 11
f 3 11 12
f 3 12 13
f 4 14 24
f 4 24 28
f 4 28 40
f 4 40 51
f 4 51 49
f 4 49 35
f 4 35 26
f 4 26 16
f 4 16 6
f 5 6 15
f 6 16 15
f 7 17 28
f 7 28 24
f 7 24 23
f 7 23 33
f 7 33 48
f 7 48 55
f 7 55 59
f 7 59 63
f 7 63 68
f 7 68 64
f 7 64 60
f 7 60 56
f 7 56 52
f 7 52 42
f 7 42 30
f 7 30 29
f 7 29 18
f 7 18 12
f 7 12 11
f 7 11 10
f 7 10 9
f 7 9 8
f 12 18 19
f 12 19 20
f 12 20 21
f 12 21 13
f 14 22 23
f 14 23 24
f 15 16 26
f 15 26 25
f 17 27 28
f 18 29 19
f 19 29 30
f 19 30 31
f 22 32 23
f 23 32 33
f 25 26 34
f 26 35 36
f 26 36 37
f 26 37 38
f 26 38 34
f 27 39 28
f 28 39 41
f 28 41 40
f 30 42 43
f 30 43 44
f 30 44 45
f 30 45 31
f 32 46 33
f 33 46 47
f 33 47 48
f 35 49 50
f 35 50 36
f 40 41 51
f 41 50 51
f 42 52 43
f 43 52 53
f 47 54 48
f 48 54 55
f 49 51 50
f 52 56 53
f 53 56 57
f 54 58 59
f 54 59 55
f 56 60 61
f 56 61 57
f 58 62 59
f 59 62 63
f 60 64 65
f 60 65 66
f 60 66 61
f 62 67 63
f 63 67 65
f 63 65 68
f 64 68 65
