v 0.203765 0.28901 0.24272
v 0.203765 0.28901 0.338386
v 0.203765 0.309616 0.24272
v 0.30863 0.28901 0.24272
v 0.203765 0.494808 0.518998
v 0.206956 0.28901 0.336089
v 0.284165 0.494311 0.484128
v 0.260497 0.494599 0.495478
v 0.235292 0.495305 0.506581
v 0.203765 0.312544 0.244388
v 0.205479 0.311969 0.24272
v 0.499155 0.49167 0.24272
v 0.496939 0.493422 0.253413
v 0.495462 0.494599 0.260497
v 0.484115 0.494311 0.284181
v 0.307892 0.28901 0.243704
v 0.210118 0.496691 0.517712
v 0.203765 0.500901 0.522061
v 0.219248 0.28901 0.326681
v 0.317967 0.495279 0.459432
v 0.292024 0.498783 0.481174
v 0.28836 0.501973 0.485441
v 0.276689 0.501084 0.491813
v 0.268356 0.497292 0.493864
v 0.304996 0.4969 0.470317
v 0.203765 0.314558 0.245537
v 0.211152 0.319396 0.24272
v 0.505449 0.499724 0.24272
v 0.505567 0.499881 0.24272
v 0.493866 0.497292 0.268373
v 0.491798 0.501084 0.27666
v 0.485445 0.501973 0.288365
v 0.48119 0.498783 0.29203
v 0.470316 0.4969 0.304993
v 0.459443 0.495279 0.317984
v 0.291818 0.28901 0.264654
v 0.214284 0.504535 0.519353
v 0.272552 0.505163 0.495532
v 0.203765 0.508066 0.522088
v 0.265874 0.28901 0.290881
v 0.377713 0.494677 0.412939
v 0.364742 0.495749 0.423796
v 0.294713 0.506654 0.483253
v 0.3518 0.497423 0.434681
v 0.203765 0.320965 0.249366
v 0.209408 0.321645 0.2454
v 0.21452 0.323658 0.24272
v 0.505597 0.499959 0.24272
v 0.505567 0.499907 0.242747
v 0.49555 0.505163 0.27253
v 0.483229 0.506654 0.29471
v 0.434682 0.497423 0.351787
v 0.423808 0.495749 0.364778
v 0.412934 0.494677 0.377741
v 0.284903 0.28901 0.273651
v 0.214284 0.507804 0.519353
v 0.272552 0.50749 0.495532
v 0.203765 0.510184 0.521568
v 0.273646 0.28901 0.284892
v 0.390685 0.494049 0.402054
v 0.398545 0.497998 0.398526
v 0.394674 0.501502 0.403777
v 0.294713 0.50681 0.483253
v 0.3544 0.505268 0.43665
v 0.401056 0.505869 0.401042
v 0.203765 0.3246 0.251581
v 0.21257 0.329489 0.247834
v 0.216352 0.325933 0.24272
v 0.50341 0.512563 0.24272
v 0.50341 0.512537 0.242747
v 0.49555 0.50749 0.27253
v 0.436661 0.505268 0.354385
v 0.403775 0.501502 0.394697
v 0.483229 0.50681 0.29471
v 0.402061 0.494049 0.390677
v 0.279555 0.28901 0.279559
v 0.206276 0.515544 0.515825
v 0.203765 0.514891 0.517439
v 0.242768 0.512537 0.503409
v 0.288774 0.508981 0.485304
v 0.276778 0.512511 0.489023
v 0.273143 0.519676 0.48421
v 0.265195 0.5151 0.49184
v 0.273882 0.28901 0.2847
v 0.294447 0.518395 0.471247
v 0.289808 0.515518 0.477838
v 0.401056 0.507177 0.401042
v 0.394792 0.509504 0.403504
v 0.347693 0.515806 0.433122
v 0.203765 0.326927 0.253058
v 0.263245 0.383515 0.24272
v 0.503292 0.512694 0.24272
v 0.491827 0.5151 0.265201
v 0.48902 0.512511 0.276769
v 0.485297 0.508981 0.288748
v 0.484204 0.519676 0.273132
v 0.477822 0.515518 0.289815
v 0.433145 0.515806 0.347685
v 0.42174 0.516146 0.36207
v 0.403509 0.509504 0.394807
v 0.203765 0.51612 0.516345
v 0.281003 0.517532 0.482104
v 0.273232 0.531836 0.472778
v 0.265195 0.533928 0.474665
v 0.257867 0.541485 0.470836
v 0.203765 0.527181 0.50628
v 0.223148 0.518186 0.506445
v 0.286588 0.521245 0.474255
v 0.32825 0.51727 0.446496
v 0.324172 0.524488 0.441983
v 0.399992 0.517872 0.387969
v 0.39098 0.53228 0.37982
v 0.386814 0.540151 0.374404
v 0.382293 0.547343 0.370329
v 0.378954 0.543838 0.378972
v 0.370297 0.547343 0.382336
v 0.387996 0.517872 0.399976
v 0.380136 0.520722 0.403011
v 0.203765 0.333412 0.257269
v 0.280028 0.404068 0.24272
v 0.495905 0.520827 0.24272
v 0.493689 0.51714 0.256203
v 0.484706 0.533143 0.24272
v 0.474689 0.533928 0.265201
v 0.472769 0.531836 0.273214
v 0.482106 0.517532 0.280981
v 0.474246 0.521245 0.286587
v 0.421296 0.551108 0.314346
v 0.39884 0.528593 0.374733
v 0.410866 0.517009 0.375033
v 0.281092 0.52909 0.470098
v 0.272966 0.543499 0.461046
v 0.265195 0.551788 0.457244
v 0.258724 0.553645 0.459186
v 0.25438 0.548467 0.465914
v 0.203765 0.548101 0.487218
v 0.203765 0.534895 0.499252
v 0.285967 0.544361 0.450215
v 0.276748 0.547866 0.453552
v 0.323552 0.547604 0.417944
v 0.403006 0.520722 0.380148
v 0.39952 0.552808 0.3403
v 0.377802 0.554455 0.366227
v 0.374049 0.551683 0.374104
v 0.366219 0.554455 0.377823
v 0.340276 0.552808 0.399538
v 0.314333 0.551108 0.42128
v 0.203765 0.335295 0.258555
v 0.284933 0.410031 0.24272
v 0.473478 0.54546 0.24272
v 0.465914 0.548467 0.25437
v 0.459177 0.553645 0.258719
v 0.457256 0.551788 0.265201
v 0.461038 0.543499 0.272968
v 0.453563 0.547866 0.276742
v 0.442689 0.548728 0.289732
v 0.42431 0.553932 0.30647
v 0.27267 0.554821 0.449067
v 0.250864 0.555083 0.461018
v 0.22566 0.55456 0.472122
v 0.208315 0.55218 0.481612
v 0.203765 0.549879 0.485577
v 0.28972 0.548728 0.442694
v 0.28053 0.552206 0.446031
v 0.413437 0.554638 0.319461
v 0.402563 0.555214 0.332424
v 0.39166 0.555606 0.345415
v 0.380313 0.555554 0.359472
v 0.370563 0.555318 0.370603
v 0.306473 0.553932 0.424289
v 0.359453 0.555554 0.380339
v 0.345417 0.555606 0.391689
v 0.332446 0.555214 0.402546
v 0.203765 0.359849 0.27532
v 0.291877 0.417692 0.24272
v 0.203765 0.362124 0.276906
v 0.203765 0.368296 0.281336
v 0.203794 0.373761 0.285493
v 0.203765 0.380743 0.291073
v 0.468425 0.550847 0.24272
v 0.461009 0.555083 0.25087
v 0.449042 0.554821 0.272667
v 0.446028 0.552206 0.280516
v 0.285642 0.555344 0.438182
v 0.265195 0.555658 0.451364
v 0.241616 0.55605 0.462796
v 0.218036 0.555658 0.473708
v 0.203765 0.555187 0.479232
v 0.438168 0.555344 0.285658
v 0.395294 0.556077 0.336171
v 0.442039 0.55592 0.276742
v 0.336169 0.556077 0.395272
v 0.276748 0.55592 0.442038
v 0.296368 0.422478 0.24272
v 0.203765 0.395073 0.302614
v 0.203765 0.407546 0.31276
v 0.203765 0.373813 0.285575
v 0.462575 0.555946 0.24272
v 0.451347 0.555658 0.265201
v 0.289247 0.556103 0.430798
v 0.206276 0.556129 0.467555
v 0.203765 0.556077 0.469633
v 0.203765 0.555737 0.47751
v 0.205154 0.55571 0.477537
v 0.203765 0.555606 0.478439
v 0.430781 0.556103 0.28924
v 0.462073 0.556024 0.24272
v 0.203765 0.409115 0.314073
v 0.313062 0.440129 0.24272
v 0.203765 0.555867 0.468047
v 0.453326 0.555841 0.24272
v 0.452854 0.555815 0.24272
v 0.203765 0.417771 0.32184
v 0.319297 0.446692 0.24272
v 0.203765 0.552912 0.463425
v 0.448126 0.553671 0.24272
v 0.203765 0.419889 0.323754
v 0.325443 0.452759 0.24272
v 0.203765 0.443711 0.345633
v 0.203765 0.451321 0.352635
v 0.203765 0.551945 0.462167
v 0.414382 0.528044 0.24272
v 0.203765 0.528096 0.432083
v 0.203765 0.534189 0.439631
v 0.203765 0.54695 0.455767
v 0.331353 0.458381 0.24272
v 0.203765 0.457832 0.358925
v 0.40667 0.522082 0.24272
v 0.203765 0.520984 0.423742
v 0.336051 0.462696 0.24272
v 0.203765 0.485995 0.386164
v 0.405961 0.521533 0.24272
v 0.203765 0.520016 0.422648
v 0.401411 0.51795 0.24272
v 0.380461 0.501371 0.24272
v 0.377063 0.498678 0.24272
v 0.374758 0.496847 0.24272
v 0.355346 0.480321 0.24272
v 0.203765 0.48712 0.387286
v 0.203765 0.514603 0.416686
v 0.373074 0.495488 0.24272
v 0.369647 0.492716 0.24272
v 0.361964 0.486205 0.24272
v 0.203765 0.491879 0.392099
v 0.203765 0.505006 0.406211
v 0.368553 0.491801 0.24272
v 0.203765 0.497449 0.398006
v 0.203765 0.493448 0.39374
f 1 2 5
f 1 5 18
f 1 18 39
f 1 39 58
f 1 58 78
f 1 78 101
f 1 101 106
f 1 106 137
f 1 137 136
f 1 136 162
f 1 162 188
f 1 188 205
f 1 205 203
f 1 203 202
f 1 202 210
f 1 210 215
f 1 215 221
f 1 221 225
f 1 225 224
f 1 224 223
f 1 223 229
f 1 229 233
f 1 233 240
f 1 240 245
f 1 245 247
f 1 247 248
f 1 248 244
f 1 244 239
f 1 239 231
f 1 231 227
f 1 227 220
f 1 220 219
f 1 219 217
f 1 217 213
f 1 213 208
f 1 208 196
f 1 196 195
f 1 195 179
f 1 179 197
f 1 197 177
f 1 177 176
f 1 176 174
f 1 174 148
f 1 148 119
f 1 119 90
f 1 90 66
f 1 66 45
f 1 45 26
f 1 26 10
f 1 10 3
f 1 3 11
f 1 11 27
f 1 27 47
f 1 47 68
f 1 68 91
f 1 91 120
f 1 120 149
f 1 149 175
f 1 175 194
f 1 194 209
f 1 209 214
f 1 214 218
f 1 218 226
f 1 226 230
f 1 230 238
f 1 238 243
f 1 243 246
f 1 246 242
f 1 242 241
f 1 241 237
f 1 237 236
f 1 236 235
f 1 235 234
f 1 234 232
f 1 232 228
f 1 228 222
f 1 222 216
f 1 216 212
f 1 212 211
f 1 211 207
f 1 207 198
f 1 198 180
f 1 180 150
f 1 150 123
f 1 123 121
f 1 121 92
f 1 92 69
f 1 69 48
f 1 48 29
f 1 29 28
f 1 28 12
f 1 12 4
f 1 4 16
f 1 16 36
f 1 36 55
f 1 55 76
f 1 76 84
f 1 84 59
f 1 59 40
f 1 40 19
f 1 19 6
f 1 6 2
f 2 6 7
f 2 7 8
f 2 8 9
f 2 9 5
f 3 10 11
f 4 12 13
f 4 13 14
f 4 14 15
f 4 15 16
f 5 9 17
f 5 17 18
f 6 19 20
f 6 20 7
f 7 21 22
f 7 22 23
f 7 23 24
f 7 24 8
f 7 20 25
f 7 25 21
f 8 24 9
f 9 24 17
f 10 26 11
f 11 26 27
f 12 28 13
f 13 28 14
f 14 28 29
f 14 29 30
f 14 30 15
f 15 30 31
f 15 31 32
f 15 32 33
f 15 33 34
f 15 34 35
f 15 35 16
f 16 35 36
f 17 37 18
f 17 24 38
f 17 38 37
f 18 37 39
f 19 40 20
f 20 41 42
f 20 42 25
f 20 40 41
f 21 43 22
f 21 25 43
f 22 43 38
f 22 38 23
f 23 38 24
f 25 42 44
f 25 44 43
f 26 45 46
f 26 46 27
f 27 46 47
f 29 48 49
f 29 49 50
f 29 50 30
f 30 50 31
f 31 50 32
f 32 50 51
f 32 51 33
f 33 51 34
f 34 51 52
f 34 52 53
f 34 53 35
f 35 53 54
f 35 54 36
f 36 54 55
f 37 56 39
f 37 38 57
f 37 57 56
f 38 43 63
f 38 63 57
f 39 56 58
f 40 59 41
f 41 60 61
f 41 61 62
f 41 62 42
f 41 59 60
f 42 62 44
f 43 44 62
f 43 62 64
f 43 64 65
f 43 65 87
f 43 87 63
f 45 66 46
f 46 66 67
f 46 67 68
f 46 68 47
f 48 50 49
f 48 69 70
f 48 70 71
f 48 71 50
f 50 71 74
f 50 74 51
f 51 72 73
f 51 73 52
f 51 74 87
f 51 87 65
f 51 65 72
f 52 73 53
f 53 73 54
f 54 73 61
f 54 61 75
f 54 75 55
f 55 75 76
f 56 77 78
f 56 78 58
f 56 57 79
f 56 79 77
f 57 63 80
f 57 80 81
f 57 81 82
f 57 82 83
f 57 83 79
f 59 84 60
f 60 75 61
f 60 84 76
f 60 76 75
f 61 73 65
f 61 65 62
f 62 65 64
f 63 85 86
f 63 86 80
f 63 87 88
f 63 88 89
f 63 89 85
f 65 73 72
f 66 90 67
f 67 90 91
f 67 91 68
f 69 92 93
f 69 93 71
f 69 71 70
f 71 94 95
f 71 95 74
f 71 93 96
f 71 96 94
f 74 95 97
f 74 97 98
f 74 98 99
f 74 99 100
f 74 100 87
f 77 101 78
f 77 79 83
f 77 83 101
f 80 86 102
f 80 102 81
f 81 102 103
f 81 103 82
f 82 103 104
f 82 104 83
f 83 104 105
f 83 105 106
f 83 106 107
f 83 107 101
f 85 108 86
f 85 89 109
f 85 109 110
f 85 110 108
f 86 108 102
f 87 100 111
f 87 111 112
f 87 112 113
f 87 113 114
f 87 114 115
f 87 115 116
f 87 116 117
f 87 117 88
f 88 117 89
f 89 117 118
f 89 118 110
f 89 110 109
f 90 119 120
f 90 120 91
f 92 121 122
f 92 122 93
f 93 122 121
f 93 121 123
f 93 123 124
f 93 124 96
f 94 96 125
f 94 125 126
f 94 126 95
f 95 126 97
f 96 124 125
f 97 126 127
f 97 127 98
f 98 127 128
f 98 128 129
f 98 129 99
f 99 129 130
f 99 130 100
f 100 130 111
f 101 107 106
f 102 131 132
f 102 132 103
f 102 108 131
f 103 132 133
f 103 133 134
f 103 134 104
f 104 134 135
f 104 135 105
f 105 135 136
f 105 136 137
f 105 137 106
f 108 110 140
f 108 140 138
f 108 138 139
f 108 139 132
f 108 132 131
f 110 118 116
f 110 116 140
f 111 130 141
f 111 141 129
f 111 129 113
f 111 113 112
f 113 129 128
f 113 128 114
f 114 142 143
f 114 143 115
f 114 128 142
f 115 143 144
f 115 144 145
f 115 145 116
f 116 145 146
f 116 146 147
f 116 147 140
f 116 118 117
f 119 148 149
f 119 149 120
f 123 150 124
f 124 150 151
f 124 151 152
f 124 152 125
f 125 152 153
f 125 153 154
f 125 154 126
f 126 154 127
f 127 154 155
f 127 155 156
f 127 156 128
f 128 156 155
f 128 155 157
f 128 157 142
f 129 141 130
f 132 139 158
f 132 158 133
f 133 158 134
f 134 158 159
f 134 159 160
f 134 160 135
f 135 160 161
f 135 161 136
f 136 161 162
f 138 163 139
f 138 140 163
f 139 163 164
f 139 164 158
f 140 147 163
f 142 157 143
f 143 157 165
f 143 165 166
f 143 166 167
f 143 167 168
f 143 168 169
f 143 169 145
f 143 145 144
f 145 170 146
f 145 169 171
f 145 171 172
f 145 172 173
f 145 173 158
f 145 158 170
f 146 170 147
f 147 170 164
f 147 164 163
f 148 174 149
f 149 174 176
f 149 176 177
f 149 177 178
f 149 178 179
f 149 179 175
f 150 180 151
f 151 180 152
f 152 180 181
f 152 181 182
f 152 182 153
f 153 182 154
f 154 182 155
f 155 182 183
f 155 183 157
f 157 183 182
f 157 182 165
f 158 184 185
f 158 185 159
f 158 164 170
f 158 173 184
f 159 185 186
f 159 186 187
f 159 187 160
f 160 187 161
f 161 187 188
f 161 188 162
f 165 182 166
f 166 182 189
f 166 189 167
f 167 190 168
f 167 189 191
f 167 191 190
f 168 190 171
f 168 171 169
f 171 192 172
f 171 190 192
f 172 192 193
f 172 193 184
f 172 184 173
f 175 179 195
f 175 195 196
f 175 196 194
f 177 197 178
f 178 197 179
f 180 198 181
f 181 199 182
f 181 198 199
f 182 199 189
f 184 193 185
f 185 193 186
f 186 193 200
f 186 200 201
f 186 201 202
f 186 202 203
f 186 203 204
f 186 204 187
f 187 204 205
f 187 205 188
f 189 199 191
f 190 191 206
f 190 206 200
f 190 200 192
f 191 199 207
f 191 207 206
f 192 200 193
f 194 196 208
f 194 208 209
f 198 207 199
f 200 206 201
f 201 210 202
f 201 206 207
f 201 207 211
f 201 211 212
f 201 212 210
f 203 205 204
f 208 213 214
f 208 214 209
f 210 212 216
f 210 216 215
f 213 217 214
f 214 217 219
f 214 219 220
f 214 220 218
f 215 216 221
f 216 222 223
f 216 223 224
f 216 224 225
f 216 225 221
f 218 220 226
f 220 227 226
f 222 228 229
f 222 229 223
f 226 227 231
f 226 231 230
f 228 232 229
f 229 232 234
f 229 234 235
f 229 235 236
f 229 236 237
f 229 237 233
f 230 231 238
f 231 239 238
f 233 237 241
f 233 241 242
f 233 242 240
f 238 239 244
f 238 244 243
f 240 242 245
f 242 246 247
f 242 247 245
f 243 244 248
f 243 248 247
f 243 247 246
