v -0.00581904 -0.548029 -0.594473
v -0.00581904 -0.556434 -0.591912
v -0.0176899 -0.556052 -0.591214
v -0.0294443 -0.555412 -0.590516
v -0.0411988 -0.554555 -0.589701
v -0.0477161 -0.554024 -0.589235
v -0.0477161 -0.552262 -0.589235
v -0.0294443 -0.548029 -0.591447
v -0.0176899 -0.536239 -0.592494
v -0.00581904 -0.536239 -0.594007
v 0.00581904 -0.548029 -0.594473
v -0.00581904 -0.559069 -0.5833
v -0.0176899 -0.558687 -0.5833
v -0.100204 -0.556309 -0.579809
v 0.00581904 -0.556434 -0.591912
v -0.111958 -0.555818 -0.57911
v -0.123713 -0.555085 -0.578412
v -0.132558 -0.554414 -0.57783
v -0.123713 -0.548029 -0.57911
v -0.0463195 -0.544411 -0.589119
v -0.0119872 -0.479547 -0.589817
v -0.00581904 -0.52445 -0.593309
v -0.088333 -0.536239 -0.583184
v -0.100437 -0.479547 -0.578179
v -0.0293279 -0.499858 -0.58877
v 0 -0.530251 -0.593658
v 0.00581904 -0.536239 -0.594007
v 0.0176899 -0.536239 -0.592494
v 0.0294443 -0.548029 -0.591447
v 0.0477161 -0.552262 -0.589235
v 0.0477161 -0.554024 -0.589235
v 0.0411988 -0.554555 -0.589701
v 0.0294443 -0.555412 -0.590516
v 0.0176899 -0.556052 -0.591214
v -0.0765785 -0.559202 -0.571546
v -0.088333 -0.559178 -0.571546
v -0.100204 -0.558952 -0.571546
v 0.00581904 -0.559069 -0.5833
v -0.111958 -0.558453 -0.571546
v -0.159092 -0.556426 -0.569102
v 0.100087 -0.556309 -0.579809
v 0.111958 -0.558453 -0.571546
v 0.0176899 -0.558687 -0.5833
v -0.133023 -0.548029 -0.57783
v -0.170847 -0.555225 -0.567007
v -0.177015 -0.554063 -0.565727
v -0.159092 -0.548029 -0.572593
v -0.147338 -0.548029 -0.575619
v -0.138842 -0.548029 -0.577015
v -0.147338 -0.536239 -0.575386
v -0.00581904 -0.479547 -0.590516
v -0.0411988 -0.479547 -0.585977
v 0 -0.483126 -0.590748
v 0.00581904 -0.52445 -0.593309
v -0.125226 -0.512684 -0.576899
v -0.0765785 -0.479547 -0.581322
v -0.135467 -0.489114 -0.574106
v -0.135467 -0.479547 -0.573524
v 0.0199011 -0.479547 -0.58877
v 0.0293279 -0.499858 -0.58877
v 0.100437 -0.479547 -0.578179
v 0.088333 -0.536239 -0.583184
v 0.123713 -0.548029 -0.57911
v 0.0463195 -0.544411 -0.589119
v 0.132441 -0.554414 -0.57783
v 0.123713 -0.555085 -0.578412
v 0.111958 -0.555818 -0.57911
v -0.147338 -0.559202 -0.559791
v 0.0765785 -0.559202 -0.571546
v -0.159092 -0.559069 -0.559791
v 0.100087 -0.558952 -0.571546
v 0.088333 -0.559178 -0.571546
v -0.194472 -0.555911 -0.556067
v -0.170847 -0.557868 -0.559791
v -0.217981 -0.556309 -0.545244
v 0.159092 -0.556426 -0.569102
v 0.159092 -0.559069 -0.559791
v -0.227408 -0.555358 -0.543498
v -0.20227 -0.554804 -0.55467
v -0.177015 -0.551553 -0.565727
v -0.172011 -0.547787 -0.567705
v -0.26046 -0.554531 -0.530812
v -0.286762 -0.548029 -0.520105
v -0.159092 -0.536239 -0.572244
v -0.147338 -0.479547 -0.571895
v 0.00581904 -0.479547 -0.590516
v 0.00779751 -0.479547 -0.590283
v 0.0411988 -0.479547 -0.585977
v 0.125924 -0.479547 -0.574804
v 0.127902 -0.52445 -0.577248
v 0.147222 -0.536239 -0.575386
v 0.138842 -0.548029 -0.577015
v 0.147222 -0.548029 -0.575619
v 0.159092 -0.548029 -0.572593
v 0.177015 -0.554063 -0.565727
v 0.170847 -0.555225 -0.567007
v -0.182718 -0.559202 -0.54792
v 0.147222 -0.559202 -0.559791
v -0.24149 -0.559186 -0.524411
v -0.217981 -0.558944 -0.536166
v -0.27687 -0.558804 -0.512657
v -0.194472 -0.558555 -0.54792
v -0.27687 -0.556161 -0.521269
v -0.253361 -0.555677 -0.532209
v -0.253361 -0.558321 -0.524411
v 0.194356 -0.555911 -0.556067
v 0.217981 -0.556309 -0.545244
v 0.170847 -0.557868 -0.559791
v 0.194356 -0.558555 -0.54792
v 0.276986 -0.558804 -0.512657
v 0.241606 -0.559186 -0.524411
v 0.182601 -0.559202 -0.54792
v -0.285598 -0.555155 -0.51964
v -0.260693 -0.548029 -0.530929
v -0.17655 -0.543701 -0.56561
v -0.170149 -0.536239 -0.567821
v -0.253361 -0.536239 -0.533373
v -0.292581 -0.548029 -0.517429
v -0.291883 -0.536239 -0.517312
v -0.27687 -0.536239 -0.523597
v -0.159092 -0.479547 -0.568636
v 0.135467 -0.489114 -0.574106
v 0.135467 -0.479547 -0.573524
v 0.147222 -0.479547 -0.571895
v 0.159092 -0.536239 -0.572244
v 0.171894 -0.547787 -0.567705
v 0.177015 -0.551553 -0.565727
v 0.260809 -0.548029 -0.530929
v 0.286762 -0.548029 -0.520105
v 0.26046 -0.554531 -0.530812
v 0.202153 -0.554804 -0.55467
v 0.227408 -0.555358 -0.543498
v -0.265115 -0.559202 -0.512657
v -0.288741 -0.559202 -0.500786
v -0.312249 -0.558968 -0.489032
v -0.300379 -0.558508 -0.500786
v -0.289206 -0.556769 -0.513355
v 0.253361 -0.555677 -0.532209
v 0.276986 -0.556161 -0.521269
v 0.253361 -0.558321 -0.524411
v 0.289206 -0.556769 -0.513355
v 0.300495 -0.558508 -0.500786
v 0.312249 -0.558968 -0.489032
v 0.288741 -0.559202 -0.500786
v 0.265115 -0.559202 -0.512657
v -0.300379 -0.555865 -0.509747
v -0.307361 -0.554757 -0.507536
v -0.182718 -0.52445 -0.561886
v -0.182718 -0.500895 -0.560373
v -0.166424 -0.489114 -0.566308
v -0.16433 -0.479547 -0.566541
v -0.27687 -0.512684 -0.522084
v -0.281525 -0.479547 -0.51801
v -0.300379 -0.548029 -0.512657
v -0.300379 -0.536239 -0.512191
v -0.299098 -0.489114 -0.509864
v -0.298633 -0.479547 -0.509515
v -0.290952 -0.52445 -0.516963
v 0.159092 -0.479547 -0.568636
v 0.170149 -0.536239 -0.567821
v 0.17655 -0.543701 -0.56561
v 0.276986 -0.536239 -0.523597
v 0.291883 -0.536239 -0.517312
v 0.292697 -0.548029 -0.517429
v 0.285715 -0.555155 -0.51964
v -0.324004 -0.559202 -0.477277
v -0.371138 -0.559163 -0.441898
v -0.406518 -0.558726 -0.418272
v -0.347629 -0.558321 -0.465523
v -0.324237 -0.556902 -0.489381
v -0.311668 -0.556348 -0.50067
v 0.300495 -0.555865 -0.509747
v 0.311668 -0.556348 -0.50067
v 0.324237 -0.556902 -0.489381
v 0.347629 -0.558321 -0.465523
v 0.406518 -0.558726 -0.418272
v 0.371138 -0.559163 -0.441898
v 0.324004 -0.559202 -0.477277
v -0.320396 -0.555389 -0.496713
v -0.354263 -0.554516 -0.471924
v -0.307711 -0.548029 -0.507769
v -0.182718 -0.479547 -0.558977
v -0.180739 -0.479547 -0.559791
v -0.28746 -0.479547 -0.51545
v -0.307245 -0.536239 -0.50742
v -0.303404 -0.479547 -0.50614
v -0.288741 -0.479547 -0.514868
v 0.165726 -0.479547 -0.565959
v 0.166424 -0.489114 -0.566308
v 0.276986 -0.512684 -0.522084
v 0.284202 -0.512684 -0.519058
v 0.290952 -0.52445 -0.516963
v 0.298633 -0.479547 -0.509515
v 0.300495 -0.536239 -0.512191
v 0.300495 -0.548029 -0.512657
v 0.307478 -0.554757 -0.507536
v -0.382892 -0.559202 -0.430143
v -0.394763 -0.558126 -0.430143
v -0.430143 -0.559202 -0.383009
v -0.418272 -0.558726 -0.406518
v -0.418039 -0.556317 -0.418039
v -0.371138 -0.556792 -0.453885
v 0.320396 -0.555389 -0.496713
v 0.371138 -0.556792 -0.453885
v 0.394763 -0.558126 -0.430143
v 0.382892 -0.559202 -0.430143
v 0.418039 -0.556317 -0.418039
v 0.418272 -0.558726 -0.406518
v -0.380099 -0.555638 -0.450044
v -0.413966 -0.555038 -0.425371
v -0.321327 -0.548029 -0.497411
v -0.401048 -0.554243 -0.436195
v -0.305965 -0.510213 -0.506489
v -0.320862 -0.536239 -0.497062
v -0.312599 -0.52445 -0.502532
v -0.324469 -0.489114 -0.490777
v -0.322258 -0.479547 -0.491708
v 0.275706 -0.479547 -0.520454
v 0.281525 -0.479547 -0.51801
v 0.290719 -0.479547 -0.513821
v 0.288741 -0.479547 -0.514868
v 0.304568 -0.479547 -0.505325
v 0.305616 -0.500895 -0.50614
v 0.299098 -0.489114 -0.509864
v 0.307245 -0.536239 -0.50742
v 0.307827 -0.548029 -0.507769
v 0.354263 -0.554516 -0.471924
v 0.413966 -0.555038 -0.425371
v -0.477277 -0.559202 -0.324004
v -0.441898 -0.559163 -0.371138
v -0.453652 -0.558851 -0.359384
v -0.500786 -0.558508 -0.300495
v -0.430143 -0.558126 -0.394763
v -0.405587 -0.555849 -0.429678
v -0.453885 -0.556792 -0.371138
v -0.429678 -0.555849 -0.405587
v -0.425371 -0.555038 -0.413966
v 0.380099 -0.555638 -0.450044
v 0.405587 -0.555849 -0.429678
v 0.430027 -0.559202 -0.383009
v 0.425371 -0.555038 -0.413966
v 0.429678 -0.555849 -0.405587
v 0.453885 -0.556792 -0.371138
v 0.430027 -0.558126 -0.394763
v 0.500786 -0.558508 -0.300495
v 0.453652 -0.558851 -0.359384
v 0.441898 -0.559163 -0.371138
v -0.420367 -0.548029 -0.420367
v -0.414548 -0.548029 -0.425837
v -0.406867 -0.548029 -0.431772
v -0.405354 -0.536723 -0.432238
v -0.41222 -0.497464 -0.424091
v -0.378237 -0.479547 -0.448764
v 0.315043 -0.479547 -0.497295
v 0.371022 -0.479547 -0.45435
v 0.41222 -0.497464 -0.424091
v 0.312599 -0.52445 -0.502532
v 0.320862 -0.536239 -0.497062
v 0.367996 -0.548029 -0.461682
v 0.401048 -0.554243 -0.436195
v 0.414548 -0.548029 -0.425837
v 0.420367 -0.548029 -0.420367
v -0.489032 -0.558968 -0.312249
v -0.500786 -0.559202 -0.288741
v -0.512657 -0.558804 -0.27687
v -0.513355 -0.556769 -0.289206
v -0.509747 -0.555865 -0.300495
v -0.50067 -0.556348 -0.311784
v -0.489381 -0.556902 -0.32412
v -0.450044 -0.555638 -0.380099
v -0.496596 -0.555389 -0.320396
v -0.460984 -0.555225 -0.367181
v -0.507536 -0.554757 -0.307478
v -0.436311 -0.554243 -0.400932
v -0.425837 -0.548029 -0.414548
v 0.477161 -0.559202 -0.324004
v 0.425837 -0.548029 -0.414548
v 0.436311 -0.554243 -0.400932
v 0.471924 -0.554516 -0.354263
v 0.507536 -0.554757 -0.307478
v 0.460984 -0.555225 -0.367181
v 0.450044 -0.555638 -0.380099
v 0.496596 -0.555389 -0.320396
v 0.50067 -0.556348 -0.311784
v 0.489381 -0.556902 -0.32412
v 0.489032 -0.558968 -0.312249
v 0.509747 -0.555865 -0.300495
v 0.513355 -0.556769 -0.289206
v 0.512541 -0.558804 -0.27687
v -0.419902 -0.536239 -0.420018
v -0.425488 -0.536239 -0.414083
v -0.414083 -0.536239 -0.425371
v -0.411755 -0.489114 -0.423742
v -0.405354 -0.479547 -0.427932
v -0.416294 -0.479547 -0.418621
v 0.405354 -0.479547 -0.427932
v 0.405354 -0.536723 -0.432238
v 0.40035 -0.533128 -0.435846
v 0.411755 -0.489114 -0.423742
v 0.417458 -0.479547 -0.417458
v 0.419902 -0.536239 -0.420018
v 0.414083 -0.536239 -0.425371
v 0.406867 -0.548029 -0.431772
v 0.425488 -0.536239 -0.414083
v -0.512657 -0.559202 -0.265115
v -0.524411 -0.559186 -0.24149
v -0.536166 -0.558944 -0.217981
v -0.54792 -0.558555 -0.194356
v -0.524411 -0.558321 -0.253361
v -0.521269 -0.556161 -0.27687
v -0.51964 -0.555155 -0.285598
v -0.517429 -0.548029 -0.292581
v -0.512657 -0.548029 -0.300495
v -0.507769 -0.548029 -0.307827
v -0.436311 -0.548029 -0.400932
v -0.436078 -0.540988 -0.400815
v 0.500786 -0.559202 -0.288741
v 0.436078 -0.540988 -0.400815
v 0.436311 -0.548029 -0.400932
v 0.507769 -0.548029 -0.307827
v 0.512657 -0.548029 -0.300495
v 0.517429 -0.548029 -0.292581
v 0.51964 -0.555155 -0.285598
v 0.521153 -0.556161 -0.27687
v 0.524411 -0.558321 -0.253361
v 0.54792 -0.558555 -0.194356
v 0.536166 -0.558944 -0.217981
v 0.524411 -0.559186 -0.24149
v 0.512541 -0.559202 -0.265115
v -0.423742 -0.489114 -0.411755
v -0.411289 -0.479547 -0.423277
v -0.422229 -0.479547 -0.412453
v 0.411289 -0.479547 -0.423277
v 0.423277 -0.479547 -0.411173
v 0.423742 -0.489114 -0.411755
v -0.54792 -0.559202 -0.182601
v -0.559791 -0.559069 -0.158976
v -0.559791 -0.557868 -0.170847
v -0.545244 -0.556309 -0.217981
v -0.556067 -0.555911 -0.194356
v -0.532209 -0.555677 -0.253361
v -0.543498 -0.555358 -0.227408
v -0.55467 -0.554804 -0.202153
v -0.530812 -0.554531 -0.26046
v -0.520105 -0.548029 -0.286762
v -0.517312 -0.536239 -0.291883
v -0.512191 -0.536239 -0.300495
v -0.50742 -0.536239 -0.307361
v -0.45307 -0.479547 -0.372651
v -0.497295 -0.479547 -0.315043
v 0.470411 -0.479547 -0.350073
v 0.492523 -0.536239 -0.326797
v 0.50742 -0.536239 -0.307361
v 0.512075 -0.536239 -0.300495
v 0.517312 -0.536239 -0.291883
v 0.520105 -0.548029 -0.286762
v 0.530696 -0.554531 -0.26046
v 0.554554 -0.554804 -0.202153
v 0.543498 -0.555358 -0.227408
v 0.532093 -0.555677 -0.253361
v 0.556067 -0.555911 -0.194356
v 0.545127 -0.556309 -0.217981
v 0.559675 -0.557868 -0.170847
v 0.559675 -0.559069 -0.158976
v 0.54792 -0.559202 -0.182601
v -0.427815 -0.479547 -0.40547
v -0.423277 -0.479547 -0.411173
v 0.424208 -0.479547 -0.410126
v 0.427815 -0.479547 -0.40547
v -0.559791 -0.559202 -0.147222
v -0.571546 -0.559178 -0.088333
v -0.571546 -0.558952 -0.100087
v -0.571546 -0.558453 -0.111958
v -0.569102 -0.556426 -0.158976
v -0.567007 -0.555225 -0.170847
v -0.565727 -0.554063 -0.177015
v -0.523597 -0.536239 -0.27687
v -0.565727 -0.551553 -0.177015
v -0.567705 -0.547787 -0.171894
v -0.56561 -0.543701 -0.17655
v -0.516963 -0.52445 -0.290952
v -0.509515 -0.479547 -0.298633
v -0.505325 -0.479547 -0.304568
v -0.5087 -0.479547 -0.299797
v 0.505209 -0.479547 -0.304568
v 0.505674 -0.489114 -0.304917
v 0.509515 -0.479547 -0.298633
v 0.514868 -0.479547 -0.288741
v 0.519058 -0.512684 -0.284085
v 0.530114 -0.521448 -0.258831
v 0.567705 -0.536239 -0.170149
v 0.565494 -0.543701 -0.17655
v 0.565727 -0.551553 -0.177015
v 0.565727 -0.554063 -0.177015
v 0.56689 -0.555225 -0.170847
v 0.568985 -0.556426 -0.158976
v 0.559675 -0.559202 -0.147222
v 0.571546 -0.558453 -0.111958
v 0.571546 -0.558952 -0.100087
v 0.571546 -0.559178 -0.088333
v -0.571546 -0.559202 -0.0764621
v -0.5833 -0.559069 -0.00581904
v -0.5833 -0.558687 -0.0175735
v -0.591912 -0.556434 -0.00581904
v -0.579809 -0.556309 -0.100087
v -0.57911 -0.555818 -0.111958
v -0.578412 -0.555085 -0.123713
v -0.57783 -0.554414 -0.132441
v -0.572593 -0.548029 -0.158976
v -0.519989 -0.479547 -0.276753
v -0.51801 -0.479547 -0.281525
v -0.567821 -0.536239 -0.170149
v -0.572244 -0.536239 -0.158976
v -0.514868 -0.479547 -0.288741
v 0.525459 -0.479547 -0.263486
v 0.555834 -0.513004 -0.195403
v 0.563515 -0.479547 -0.171545
v 0.566425 -0.479547 -0.16433
v 0.572128 -0.536239 -0.158976
v 0.567589 -0.547787 -0.171894
v 0.572477 -0.548029 -0.158976
v 0.577714 -0.554414 -0.132441
v 0.578296 -0.555085 -0.123713
v 0.57911 -0.555818 -0.111958
v 0.571546 -0.559202 -0.0764621
v 0.579809 -0.556309 -0.100087
v 0.5833 -0.558687 -0.0175735
v 0.5833 -0.559069 -0.00581904
v -0.571546 -0.559202 0.0764621
v -0.5833 -0.559069 0.00581904
v -0.591214 -0.556052 -0.0175735
v -0.591912 -0.556434 0.00581904
v -0.594473 -0.548029 -0.00581904
v -0.590516 -0.555412 -0.0294443
v -0.589701 -0.554555 -0.0411988
v -0.589235 -0.554024 -0.0474833
v -0.57911 -0.548029 -0.123713
v -0.577015 -0.548029 -0.138842
v -0.575619 -0.548029 -0.147222
v -0.566308 -0.489114 -0.166424
v -0.549201 -0.479547 -0.206227
v -0.57527 -0.536239 -0.147222
v -0.573873 -0.512684 -0.147222
v -0.571895 -0.479547 -0.147222
v -0.568636 -0.479547 -0.158976
v 0.56852 -0.479547 -0.158976
v 0.571778 -0.479547 -0.147222
v 0.57527 -0.536239 -0.147222
v 0.575503 -0.548029 -0.147222
v 0.576899 -0.548029 -0.138842
v 0.57783 -0.548029 -0.132907
v 0.589235 -0.554024 -0.0474833
v 0.589701 -0.554555 -0.0411988
v 0.590399 -0.555412 -0.0294443
v 0.591214 -0.556052 -0.0175735
v 0.571546 -0.559202 0.0764621
v 0.591796 -0.556434 -0.00581904
v 0.5833 -0.559069 0.00581904
v -0.559791 -0.559202 0.147222
v -0.571546 -0.559178 0.088333
v -0.5833 -0.558687 0.0175735
v -0.571546 -0.558952 0.100087
v -0.571546 -0.558453 0.111958
v -0.579809 -0.556309 0.100087
v -0.591214 -0.556052 0.0175735
v -0.594473 -0.548029 0.00581904
v -0.594007 -0.536239 -0.00581904
v -0.591447 -0.548029 -0.0294443
v -0.589235 -0.552262 -0.0474833
v -0.583184 -0.536239 -0.088333
v -0.576899 -0.535335 -0.135234
v -0.589119 -0.544411 -0.0463195
v -0.565959 -0.479547 -0.165726
v -0.575503 -0.512684 -0.135467
v -0.574804 -0.479547 -0.125924
v 0.575037 -0.479547 -0.123713
v 0.575503 -0.512684 -0.135467
v 0.576899 -0.535335 -0.135234
v 0.589119 -0.544411 -0.0463195
v 0.589235 -0.552262 -0.0474833
v 0.594473 -0.548029 -0.00581904
v 0.571546 -0.559178 0.088333
v 0.559675 -0.559202 0.147222
v 0.591796 -0.556434 0.00581904
v 0.5833 -0.558687 0.0175735
v 0.571546 -0.558952 0.100087
v -0.54792 -0.559202 0.182601
v -0.559791 -0.559069 0.158976
v -0.569102 -0.556426 0.158976
v -0.57911 -0.555818 0.111958
v -0.590516 -0.555412 0.0294443
v -0.594007 -0.536239 0.00581904
v -0.589701 -0.554555 0.0411988
v -0.589235 -0.554024 0.0474833
v -0.589235 -0.552262 0.0474833
v -0.591447 -0.548029 0.0294443
v -0.593309 -0.52445 -0.00581904
v -0.592494 -0.536239 -0.0175735
v -0.587257 -0.500895 -0.0411988
v -0.58877 -0.499858 -0.0292116
v -0.589352 -0.479547 -0.0150131
v 0.576783 -0.479547 -0.110562
v 0.58621 -0.479547 -0.0389875
v 0.588886 -0.536239 -0.0444574
v 0.592378 -0.536239 -0.0175735
v 0.593891 -0.536239 -0.00581904
v 0.591447 -0.548029 -0.0294443
v 0.594473 -0.548029 0.00581904
v 0.559675 -0.559069 0.158976
v 0.54792 -0.559202 0.182601
v 0.591214 -0.556052 0.0175735
v 0.579809 -0.556309 0.100087
v 0.571546 -0.558453 0.111958
v -0.512657 -0.559202 0.265115
v -0.524411 -0.559186 0.24149
v -0.536166 -0.558944 0.217981
v -0.54792 -0.558555 0.194356
v -0.559791 -0.557868 0.170847
v -0.545244 -0.556309 0.217981
v -0.556067 -0.555911 0.194356
v -0.567007 -0.555225 0.170847
v -0.57783 -0.554414 0.132441
v -0.578412 -0.555085 0.123713
v -0.593309 -0.52445 0.00581904
v -0.592494 -0.536239 0.0175735
v -0.57911 -0.548029 0.123713
v -0.589119 -0.544411 0.0463195
v -0.590516 -0.479547 -0.00581904
v -0.590283 -0.479547 -0.00779751
v 0.590516 -0.479547 -0.00581904
v 0.593192 -0.52445 -0.00581904
v 0.593891 -0.536239 0.00581904
v 0.591447 -0.548029 0.0294443
v 0.589235 -0.552262 0.0474833
v 0.589235 -0.554024 0.0474833
v 0.589701 -0.554555 0.0411988
v 0.589119 -0.544411 0.0463195
v 0.559675 -0.557868 0.170847
v 0.54792 -0.558555 0.194356
v 0.536166 -0.558944 0.217981
v 0.524411 -0.559186 0.24149
v 0.568985 -0.556426 0.158976
v 0.512541 -0.559202 0.265115
v 0.590399 -0.555412 0.0294443
v 0.57911 -0.555818 0.111958
v -0.500786 -0.559202 0.288741
v -0.512657 -0.558804 0.27687
v -0.524411 -0.558321 0.253361
v -0.521269 -0.556161 0.27687
v -0.532209 -0.555677 0.253361
v -0.543498 -0.555358 0.227408
v -0.55467 -0.554804 0.202153
v -0.565727 -0.554063 0.177015
v -0.575619 -0.548029 0.147222
v -0.577015 -0.548029 0.138842
v -0.572593 -0.548029 0.158976
v -0.589817 -0.479547 0.0119872
v -0.590516 -0.479547 0.00581904
v -0.583184 -0.536239 0.088333
v -0.576899 -0.535335 0.135234
v 0.590516 -0.479547 0.00581904
v 0.593192 -0.52445 0.00581904
v 0.590283 -0.479547 0.00779751
v 0.592378 -0.536239 0.0175735
v 0.57783 -0.548029 0.132907
v 0.577714 -0.554414 0.132441
v 0.578296 -0.555085 0.123713
v 0.588886 -0.536239 0.0444574
v 0.576899 -0.535335 0.135234
v 0.556067 -0.555911 0.194356
v 0.524411 -0.558321 0.253361
v 0.512541 -0.558804 0.27687
v 0.56689 -0.555225 0.170847
v 0.500786 -0.559202 0.288741
v -0.477277 -0.559202 0.324004
v -0.489032 -0.558968 0.312249
v -0.500786 -0.558508 0.300495
v -0.513355 -0.556769 0.289206
v -0.51964 -0.555155 0.285598
v -0.530812 -0.554531 0.26046
v -0.565727 -0.551553 0.177015
v -0.567705 -0.547787 0.171894
v -0.520105 -0.548029 0.286762
v -0.57527 -0.536239 0.147222
v -0.572244 -0.536239 0.158976
v -0.573524 -0.479547 0.135467
v -0.573873 -0.512684 0.147222
v -0.571895 -0.479547 0.147222
v 0.589352 -0.479547 0.0150131
v 0.57527 -0.536239 0.147222
v 0.576899 -0.548029 0.138842
v 0.575503 -0.548029 0.147222
v 0.572477 -0.548029 0.158976
v 0.565727 -0.554063 0.177015
v 0.580972 -0.479547 0.0787897
v 0.575503 -0.512684 0.135467
v 0.543498 -0.555358 0.227408
v 0.532093 -0.555677 0.253361
v 0.521153 -0.556161 0.27687
v 0.545127 -0.556309 0.217981
v 0.513355 -0.556769 0.289206
v 0.500786 -0.558508 0.300495
v 0.489032 -0.558968 0.312249
v 0.554554 -0.554804 0.202153
v 0.477161 -0.559202 0.324004
v -0.430143 -0.559202 0.383009
v -0.441898 -0.559163 0.371138
v -0.453652 -0.558851 0.359384
v -0.50067 -0.556348 0.311784
v -0.509747 -0.555865 0.300495
v -0.418272 -0.558726 0.406518
v -0.430143 -0.558126 0.394763
v -0.453885 -0.556792 0.371138
v -0.489381 -0.556902 0.32412
v -0.507536 -0.554757 0.307478
v -0.517429 -0.548029 0.292581
v -0.56561 -0.543701 0.17655
v -0.567821 -0.536239 0.170149
v -0.517312 -0.536239 0.291883
v -0.523597 -0.536239 0.27687
v -0.566541 -0.479547 0.16433
v -0.568636 -0.479547 0.158976
v 0.573175 -0.479547 0.137678
v 0.571778 -0.479547 0.147222
v 0.572128 -0.536239 0.158976
v 0.567589 -0.547787 0.171894
v 0.565727 -0.551553 0.177015
v 0.530696 -0.554531 0.26046
v 0.520105 -0.548029 0.286762
v 0.51964 -0.555155 0.285598
v 0.509747 -0.555865 0.300495
v 0.50067 -0.556348 0.311784
v 0.489381 -0.556902 0.32412
v 0.453885 -0.556792 0.371138
v 0.430027 -0.558126 0.394763
v 0.418272 -0.558726 0.406518
v 0.453652 -0.558851 0.359384
v 0.441898 -0.559163 0.371138
v 0.430027 -0.559202 0.383009
v -0.382892 -0.559202 0.430143
v -0.406518 -0.558726 0.418272
v -0.496596 -0.555389 0.320396
v -0.418039 -0.556317 0.418039
v -0.429678 -0.555849 0.405587
v -0.425371 -0.555038 0.413966
v -0.450044 -0.555638 0.380099
v -0.460984 -0.555225 0.367181
v -0.436311 -0.554243 0.400932
v -0.507769 -0.548029 0.307827
v -0.512657 -0.548029 0.300495
v -0.512191 -0.536239 0.300495
v -0.566308 -0.489114 0.166424
v -0.51801 -0.479547 0.281525
v -0.516963 -0.52445 0.290952
v -0.509515 -0.479547 0.298633
v -0.549201 -0.479547 0.206227
v 0.56852 -0.479547 0.158976
v 0.565494 -0.479547 0.166774
v 0.567705 -0.536239 0.170149
v 0.565494 -0.543701 0.17655
v 0.517312 -0.536239 0.291883
v 0.517429 -0.548029 0.292581
v 0.507536 -0.554757 0.307478
v 0.496596 -0.555389 0.320396
v 0.450044 -0.555638 0.380099
v 0.425371 -0.555038 0.413966
v 0.429678 -0.555849 0.405587
v 0.418039 -0.556317 0.418039
v 0.406518 -0.558726 0.418272
v 0.382892 -0.559202 0.430143
v -0.324004 -0.559202 0.477277
v -0.371138 -0.559163 0.441898
v -0.312249 -0.558968 0.489032
v -0.300379 -0.558508 0.500786
v -0.347629 -0.558321 0.465523
v -0.394763 -0.558126 0.430143
v -0.371138 -0.556792 0.453885
v -0.405587 -0.555849 0.429678
v -0.413966 -0.555038 0.425371
v -0.420367 -0.548029 0.420367
v -0.425837 -0.548029 0.414548
v -0.436311 -0.548029 0.400932
v -0.50742 -0.536239 0.307361
v -0.436078 -0.540988 0.400815
v -0.509864 -0.489114 0.299098
v -0.514868 -0.479547 0.288741
v -0.505325 -0.479547 0.304568
v 0.555834 -0.513004 0.195403
v 0.517894 -0.479547 0.281525
v 0.529067 -0.489114 0.25627
v 0.530114 -0.521448 0.258831
v 0.514868 -0.479547 0.288741
v 0.509515 -0.479547 0.298633
v 0.512075 -0.536239 0.300495
v 0.512657 -0.548029 0.300495
v 0.519058 -0.512684 0.284085
v 0.507769 -0.548029 0.307827
v 0.471924 -0.554516 0.354263
v 0.460984 -0.555225 0.367181
v 0.436311 -0.554243 0.400932
v 0.425837 -0.548029 0.414548
v 0.420367 -0.548029 0.420367
v 0.413966 -0.555038 0.425371
v 0.405587 -0.555849 0.429678
v 0.371138 -0.556792 0.453885
v 0.394763 -0.558126 0.430143
v 0.347629 -0.558321 0.465523
v 0.300495 -0.558508 0.500786
v 0.312249 -0.558968 0.489032
v 0.371138 -0.559163 0.441898
v 0.324004 -0.559202 0.477277
v -0.288741 -0.559202 0.500786
v -0.27687 -0.558804 0.512657
v -0.289206 -0.556769 0.513355
v -0.300379 -0.555865 0.509747
v -0.311668 -0.556348 0.50067
v -0.324237 -0.556902 0.489381
v -0.380099 -0.555638 0.450044
v -0.320396 -0.555389 0.496713
v -0.354263 -0.554516 0.471924
v -0.401048 -0.554243 0.436195
v -0.414548 -0.548029 0.425837
v -0.419902 -0.536239 0.420018
v -0.425488 -0.536239 0.414083
v -0.497295 -0.479547 0.315043
v -0.423742 -0.489114 0.411755
v -0.470411 -0.479547 0.350073
v 0.5087 -0.479547 0.299797
v 0.50742 -0.536239 0.307361
v 0.436078 -0.540988 0.400815
v 0.436311 -0.548029 0.400932
v 0.425488 -0.536239 0.414083
v 0.419902 -0.536239 0.420018
v 0.414548 -0.548029 0.425837
v 0.401048 -0.554243 0.436195
v 0.354263 -0.554516 0.471924
v 0.307478 -0.554757 0.507536
v 0.320396 -0.555389 0.496713
v 0.380099 -0.555638 0.450044
v 0.311668 -0.556348 0.50067
v 0.324237 -0.556902 0.489381
v 0.300495 -0.555865 0.509747
v 0.289206 -0.556769 0.513355
v 0.276986 -0.558804 0.512657
v 0.288741 -0.559202 0.500786
v -0.265115 -0.559202 0.512657
v -0.24149 -0.559186 0.524411
v -0.217981 -0.558944 0.536166
v -0.159092 -0.559069 0.559791
v -0.194472 -0.558555 0.54792
v -0.253361 -0.558321 0.524411
v -0.27687 -0.556161 0.521269
v -0.285598 -0.555155 0.51964
v -0.307361 -0.554757 0.507536
v -0.307711 -0.548029 0.507769
v -0.321327 -0.548029 0.497411
v -0.406867 -0.548029 0.431772
v -0.414083 -0.536239 0.425371
v -0.405354 -0.536723 0.432238
v -0.41222 -0.497464 0.424091
v -0.417458 -0.479547 0.417458
v -0.424208 -0.479547 0.410126
v -0.427815 -0.479547 0.40547
v -0.423277 -0.479547 0.411173
v 0.505209 -0.479547 0.304568
v 0.505674 -0.489114 0.304917
v 0.484493 -0.479547 0.331685
v 0.492523 -0.536239 0.326797
v 0.45307 -0.479547 0.372651
v 0.423742 -0.489114 0.411755
v 0.416294 -0.479547 0.418621
v 0.41222 -0.497464 0.424091
v 0.414083 -0.536239 0.425371
v 0.405354 -0.536723 0.432238
v 0.406867 -0.548029 0.431772
v 0.367996 -0.548029 0.461682
v 0.307827 -0.548029 0.507769
v 0.300495 -0.548029 0.512657
v 0.292697 -0.548029 0.517429
v 0.285715 -0.555155 0.51964
v 0.276986 -0.556161 0.521269
v 0.241606 -0.559186 0.524411
v 0.265115 -0.559202 0.512657
v 0.253361 -0.558321 0.524411
v 0.194356 -0.558555 0.54792
v 0.159092 -0.559069 0.559791
v -0.182718 -0.559202 0.54792
v -0.159092 -0.556426 0.569102
v -0.170847 -0.557868 0.559791
v -0.147338 -0.559202 0.559791
v -0.088333 -0.559178 0.571546
v -0.100204 -0.558952 0.571546
v -0.111958 -0.558453 0.571546
v -0.217981 -0.556309 0.545244
v -0.194472 -0.555911 0.556067
v -0.253361 -0.555677 0.532209
v -0.227408 -0.555358 0.543498
v -0.20227 -0.554804 0.55467
v -0.26046 -0.554531 0.530812
v -0.286762 -0.548029 0.520105
v -0.292581 -0.548029 0.517429
v -0.300379 -0.548029 0.512657
v -0.307245 -0.536239 0.50742
v -0.300379 -0.536239 0.512191
v -0.320862 -0.536239 0.497062
v -0.312599 -0.52445 0.502532
v -0.324469 -0.489114 0.490777
v -0.378237 -0.479547 0.448764
v -0.405354 -0.479547 0.427932
v -0.411755 -0.489114 0.423742
v -0.411289 -0.479547 0.423277
v 0.427815 -0.479547 0.40547
v 0.423277 -0.479547 0.411173
v 0.422229 -0.479547 0.412453
v 0.411289 -0.479547 0.423277
v 0.411755 -0.489114 0.423742
v 0.405354 -0.479547 0.427932
v 0.371022 -0.479547 0.45435
v 0.305616 -0.500895 0.50614
v 0.312599 -0.52445 0.502532
v 0.40035 -0.533128 0.435846
v 0.320862 -0.536239 0.497062
v 0.307245 -0.536239 0.50742
v 0.300495 -0.536239 0.512191
v 0.286762 -0.548029 0.520105
v 0.291883 -0.536239 0.517312
v 0.26046 -0.554531 0.530812
v 0.202153 -0.554804 0.55467
v 0.227408 -0.555358 0.543498
v 0.253361 -0.555677 0.532209
v 0.194356 -0.555911 0.556067
v 0.217981 -0.556309 0.545244
v 0.182601 -0.559202 0.54792
v 0.170847 -0.557868 0.559791
v 0.159092 -0.556426 0.569102
v 0.111958 -0.558453 0.571546
v 0.100087 -0.558952 0.571546
v 0.088333 -0.559178 0.571546
v 0.147222 -0.559202 0.559791
v -0.100204 -0.556309 0.579809
v -0.111958 -0.555818 0.57911
v -0.123713 -0.555085 0.578412
v -0.132558 -0.554414 0.57783
v -0.170847 -0.555225 0.567007
v -0.0765785 -0.559202 0.571546
v -0.00581904 -0.559069 0.5833
v -0.0176899 -0.558687 0.5833
v -0.177015 -0.554063 0.565727
v -0.291883 -0.536239 0.517312
v -0.177015 -0.551553 0.565727
v -0.260693 -0.548029 0.530929
v -0.253361 -0.536239 0.533373
v -0.27687 -0.536239 0.523597
v -0.299098 -0.489114 0.509864
v -0.305965 -0.510213 0.506489
v -0.305848 -0.479547 0.504278
v -0.332732 -0.479547 0.483678
v 0.315043 -0.479547 0.497295
v 0.304568 -0.479547 0.505325
v 0.298633 -0.479547 0.509515
v 0.299098 -0.489114 0.509864
v 0.260809 -0.548029 0.530929
v 0.177015 -0.554063 0.565727
v 0.276986 -0.536239 0.523597
v 0.290952 -0.52445 0.516963
v 0.170847 -0.555225 0.567007
v 0.132441 -0.554414 0.57783
v 0.123713 -0.555085 0.578412
v 0.111958 -0.555818 0.57911
v 0.100087 -0.556309 0.579809
v 0.00581904 -0.556434 0.591912
v 0.0176899 -0.558687 0.5833
v 0.00581904 -0.559069 0.5833
v 0.0765785 -0.559202 0.571546
v -0.00581904 -0.556434 0.591912
v -0.0176899 -0.556052 0.591214
v -0.0294443 -0.555412 0.590516
v -0.0411988 -0.554555 0.589701
v -0.0477161 -0.554024 0.589235
v -0.123713 -0.548029 0.57911
v -0.133023 -0.548029 0.57783
v -0.138842 -0.548029 0.577015
v -0.147338 -0.548029 0.575619
v -0.159092 -0.548029 0.572593
v -0.172011 -0.547787 0.567705
v -0.290952 -0.52445 0.516963
v -0.298633 -0.479547 0.509515
v -0.230317 -0.489114 0.53989
v -0.281525 -0.479547 0.51801
v -0.27687 -0.512684 0.522084
v -0.17655 -0.543701 0.56561
v -0.170149 -0.536239 0.567821
v -0.182718 -0.52445 0.561886
v -0.182718 -0.500895 0.560373
v -0.304452 -0.479547 0.505325
v 0.288741 -0.479547 0.514868
v 0.17655 -0.543701 0.56561
v 0.171894 -0.547787 0.567705
v 0.177015 -0.551553 0.565727
v 0.159092 -0.548029 0.572593
v 0.284202 -0.512684 0.519058
v 0.276986 -0.512684 0.522084
v 0.170149 -0.536239 0.567821
v 0.287577 -0.479547 0.51545
v 0.280477 -0.479547 0.518476
v 0.147222 -0.548029 0.575619
v 0.138842 -0.548029 0.577015
v 0.123713 -0.548029 0.57911
v 0.0477161 -0.554024 0.589235
v 0.0411988 -0.554555 0.589701
v 0.0294443 -0.555412 0.590516
v 0.0176899 -0.556052 0.591214
v 0.00581904 -0.548029 0.594473
v -0.00581904 -0.548029 0.594473
v -0.0477161 -0.552262 0.589235
v -0.147338 -0.536239 0.575386
v -0.0463195 -0.544411 0.589119
v -0.0176899 -0.536239 0.592494
v -0.088333 -0.536239 0.583184
v -0.159092 -0.536239 0.572244
v -0.288741 -0.479547 0.514868
v -0.290719 -0.479547 0.513821
v -0.182718 -0.479547 0.558977
v -0.166424 -0.489114 0.566308
v -0.159092 -0.479547 0.568636
v -0.16689 -0.479547 0.565494
v 0.159092 -0.536239 0.572244
v 0.147222 -0.536239 0.575386
v 0.239511 -0.479547 0.535468
v 0.166424 -0.489114 0.566308
v 0.16433 -0.479547 0.566541
v 0.088333 -0.536239 0.583184
v 0.0176899 -0.536239 0.592494
v 0.0463195 -0.544411 0.589119
v 0.0477161 -0.552262 0.589235
v 0.0294443 -0.548029 0.591447
v 0.00581904 -0.536239 0.594007
v -0.00581904 -0.536239 0.594007
v -0.0294443 -0.548029 0.591447
v -0.125226 -0.512684 0.576899
v -0.125924 -0.479547 0.574804
v -0.135467 -0.479547 0.573524
v -0.147338 -0.479547 0.571895
v -0.00581904 -0.52445 0.593309
v -0.0197847 -0.479547 0.58877
v -0.0293279 -0.499858 0.58877
v -0.100437 -0.479547 0.578179
v 0.159092 -0.479547 0.568636
v 0.147222 -0.479547 0.571895
v 0.135467 -0.479547 0.573524
v 0.135467 -0.489114 0.574106
v 0.125226 -0.512684 0.576899
v 0.127902 -0.52445 0.577248
v 0.100437 -0.479547 0.578179
v 0.0293279 -0.499858 0.58877
v 0.0119872 -0.479547 0.589817
v 0.00581904 -0.52445 0.593309
v -0.00581904 -0.479547 0.590516
v -0.00779751 -0.479547 0.590283
v -0.0411988 -0.479547 0.585977
v -0.0765785 -0.479547 0.581322
v 0.0411988 -0.479547 0.585977
v 0.00581904 -0.479547 0.590516
f 1 2 3
f 1 3 4
f 1 4 5
f 1 5 6
f 1 6 7
f 1 7 8
f 1 8 9
f 1 9 10
f 1 10 27
f 1 27 11
f 1 11 15
f 1 15 2
f 2 12 13
f 2 13 14
f 2 14 3
f 2 15 38
f 2 38 12
f 3 14 16
f 3 16 4
f 4 16 17
f 4 17 18
f 4 18 5
f 5 18 6
f 6 18 19
f 6 19 7
f 7 20 8
f 7 19 20
f 8 20 9
f 9 21 22
f 9 22 10
f 9 20 19
f 9 19 23
f 9 23 24
f 9 24 25
f 9 25 21
f 10 22 26
f 10 26 27
f 11 27 28
f 11 28 29
f 11 29 30
f 11 30 31
f 11 31 32
f 11 32 33
f 11 33 34
f 11 34 15
f 12 35 36
f 12 36 37
f 12 37 13
f 12 38 69
f 12 69 35
f 13 37 14
f 14 37 39
f 14 39 40
f 14 40 16
f 15 34 41
f 15 41 42
f 15 42 43
f 15 43 38
f 16 40 17
f 17 40 18
f 18 44 19
f 18 40 45
f 18 45 46
f 18 46 47
f 18 47 48
f 18 48 49
f 18 49 44
f 19 44 50
f 19 50 23
f 21 51 22
f 21 25 52
f 21 52 56
f 21 56 24
f 21 24 58
f 21 58 85
f 21 85 121
f 21 121 151
f 21 151 183
f 21 183 182
f 21 182 153
f 21 153 184
f 21 184 187
f 21 187 157
f 21 157 186
f 21 186 217
f 21 217 253
f 21 253 294
f 21 294 331
f 21 331 295
f 21 295 332
f 21 332 367
f 21 367 366
f 21 366 349
f 21 349 350
f 21 350 383
f 21 383 384
f 21 384 382
f 21 382 414
f 21 414 411
f 21 411 410
f 21 410 441
f 21 441 473
f 21 473 445
f 21 445 444
f 21 444 475
f 21 475 501
f 21 501 529
f 21 529 528
f 21 528 558
f 21 558 557
f 21 557 586
f 21 586 588
f 21 588 622
f 21 622 621
f 21 621 656
f 21 656 653
f 21 653 686
f 21 686 655
f 21 655 687
f 21 687 725
f 21 725 727
f 21 727 763
f 21 763 762
f 21 762 764
f 21 764 761
f 21 761 811
f 21 811 809
f 21 809 808
f 21 808 857
f 21 857 856
f 21 856 895
f 21 895 887
f 21 887 922
f 21 922 921
f 21 921 889
f 21 889 923
f 21 923 926
f 21 926 925
f 21 925 943
f 21 943 942
f 21 942 941
f 21 941 947
f 21 947 961
f 21 961 960
f 21 960 945
f 21 945 959
f 21 959 958
f 21 958 963
f 21 963 956
f 21 956 962
f 21 962 954
f 21 954 950
f 21 950 949
f 21 949 948
f 21 948 931
f 21 931 929
f 21 929 905
f 21 905 904
f 21 904 896
f 21 896 860
f 21 860 859
f 21 859 858
f 21 858 818
f 21 818 817
f 21 817 815
f 21 815 771
f 21 771 814
f 21 814 813
f 21 813 812
f 21 812 769
f 21 769 767
f 21 767 765
f 21 765 728
f 21 728 693
f 21 693 692
f 21 692 689
f 21 689 658
f 21 658 657
f 21 657 624
f 21 624 623
f 21 623 595
f 21 595 589
f 21 589 563
f 21 563 561
f 21 561 530
f 21 530 503
f 21 503 502
f 21 502 476
f 21 476 447
f 21 447 446
f 21 446 418
f 21 418 417
f 21 417 415
f 21 415 388
f 21 388 387
f 21 387 385
f 21 385 351
f 21 351 369
f 21 369 368
f 21 368 334
f 21 334 300
f 21 300 333
f 21 333 296
f 21 296 255
f 21 255 254
f 21 254 222
f 21 222 193
f 21 193 220
f 21 220 221
f 21 221 219
f 21 219 218
f 21 218 188
f 21 188 159
f 21 159 124
f 21 124 123
f 21 123 89
f 21 89 61
f 21 61 88
f 21 88 59
f 21 59 87
f 21 87 86
f 21 86 51
f 22 51 53
f 22 53 54
f 22 54 26
f 23 50 55
f 23 55 24
f 24 56 25
f 24 55 57
f 24 57 58
f 25 56 52
f 26 54 27
f 27 54 28
f 28 59 60
f 28 60 61
f 28 61 62
f 28 62 63
f 28 63 64
f 28 64 29
f 28 54 59
f 29 64 30
f 30 64 63
f 30 63 31
f 31 63 65
f 31 65 32
f 32 65 66
f 32 66 33
f 33 66 67
f 33 67 34
f 34 67 41
f 35 68 36
f 35 69 98
f 35 98 112
f 35 112 145
f 35 145 144
f 35 144 178
f 35 178 206
f 35 206 240
f 35 240 276
f 35 276 317
f 35 317 329
f 35 329 365
f 35 365 397
f 35 397 425
f 35 425 456
f 35 456 483
f 35 483 510
f 35 510 543
f 35 543 574
f 35 574 605
f 35 605 639
f 35 639 670
f 35 670 711
f 35 711 745
f 35 745 783
f 35 783 833
f 35 833 839
f 35 839 874
f 35 874 845
f 35 845 790
f 35 790 787
f 35 787 746
f 35 746 712
f 35 712 671
f 35 671 640
f 35 640 606
f 35 606 575
f 35 575 546
f 35 546 514
f 35 514 487
f 35 487 459
f 35 459 429
f 35 429 401
f 35 401 370
f 35 370 336
f 35 336 305
f 35 305 264
f 35 264 229
f 35 229 199
f 35 199 197
f 35 197 166
f 35 166 134
f 35 134 133
f 35 133 97
f 35 97 68
f 36 68 70
f 36 70 37
f 37 70 39
f 38 43 71
f 38 71 72
f 38 72 69
f 39 70 40
f 40 73 45
f 40 70 74
f 40 74 75
f 40 75 73
f 41 67 76
f 41 76 42
f 42 76 77
f 42 77 71
f 42 71 43
f 44 49 50
f 45 73 78
f 45 78 79
f 45 79 46
f 46 80 81
f 46 81 47
f 46 79 82
f 46 82 83
f 46 83 80
f 47 81 84
f 47 84 50
f 47 50 48
f 48 50 49
f 50 84 85
f 50 85 58
f 50 58 57
f 50 57 55
f 51 86 53
f 53 86 54
f 54 86 87
f 54 87 59
f 59 88 60
f 60 88 61
f 61 89 90
f 61 90 62
f 62 90 91
f 62 91 63
f 63 91 92
f 63 92 65
f 65 92 93
f 65 93 94
f 65 94 95
f 65 95 96
f 65 96 76
f 65 76 66
f 66 76 67
f 68 97 70
f 69 72 98
f 70 97 99
f 70 99 100
f 70 100 101
f 70 101 102
f 70 102 74
f 71 77 72
f 72 77 98
f 73 75 103
f 73 103 104
f 73 104 78
f 74 102 105
f 74 105 75
f 75 105 103
f 76 96 106
f 76 106 107
f 76 107 108
f 76 108 77
f 77 108 109
f 77 109 110
f 77 110 111
f 77 111 112
f 77 112 98
f 78 104 113
f 78 113 79
f 79 113 82
f 80 83 114
f 80 114 81
f 81 115 116
f 81 116 84
f 81 114 117
f 81 117 115
f 82 113 83
f 83 113 118
f 83 118 119
f 83 119 120
f 83 120 117
f 83 117 114
f 84 121 85
f 84 116 151
f 84 151 121
f 89 122 91
f 89 91 90
f 89 123 122
f 91 124 125
f 91 125 94
f 91 94 93
f 91 93 92
f 91 122 123
f 91 123 124
f 94 125 126
f 94 126 95
f 95 127 128
f 95 128 129
f 95 129 130
f 95 130 131
f 95 131 96
f 95 126 127
f 96 131 132
f 96 132 106
f 97 133 99
f 99 133 101
f 99 101 100
f 101 103 105
f 101 105 102
f 101 133 134
f 101 134 135
f 101 135 136
f 101 136 137
f 101 137 103
f 103 137 113
f 103 113 104
f 106 132 138
f 106 138 139
f 106 139 107
f 107 139 140
f 107 140 108
f 108 140 109
f 109 140 110
f 110 140 139
f 110 139 141
f 110 141 142
f 110 142 143
f 110 143 144
f 110 144 145
f 110 145 111
f 111 145 112
f 113 137 146
f 113 146 147
f 113 147 118
f 115 117 116
f 116 117 148
f 116 148 149
f 116 149 150
f 116 150 151
f 117 120 152
f 117 152 153
f 117 153 149
f 117 149 148
f 118 154 155
f 118 155 119
f 118 147 154
f 119 155 156
f 119 156 157
f 119 157 158
f 119 158 120
f 120 158 152
f 124 159 125
f 125 159 160
f 125 160 126
f 126 160 161
f 126 161 128
f 126 128 127
f 128 162 129
f 128 161 162
f 129 163 164
f 129 164 165
f 129 165 130
f 129 162 163
f 130 165 131
f 131 165 132
f 132 165 138
f 134 166 135
f 135 166 167
f 135 167 168
f 135 168 136
f 136 146 137
f 136 168 169
f 136 169 170
f 136 170 171
f 136 171 146
f 138 165 139
f 139 165 141
f 141 165 172
f 141 172 142
f 142 172 173
f 142 173 174
f 142 174 175
f 142 175 176
f 142 176 143
f 143 176 177
f 143 177 178
f 143 178 144
f 146 171 147
f 147 171 179
f 147 179 180
f 147 180 181
f 147 181 154
f 149 182 183
f 149 183 150
f 149 153 182
f 150 183 151
f 152 158 153
f 153 158 184
f 154 181 155
f 155 181 185
f 155 185 156
f 156 185 186
f 156 186 157
f 157 187 158
f 158 187 184
f 159 188 189
f 159 189 160
f 160 189 190
f 160 190 162
f 160 162 161
f 162 190 191
f 162 191 192
f 162 192 163
f 163 192 193
f 163 193 194
f 163 194 164
f 164 194 195
f 164 195 196
f 164 196 165
f 165 196 172
f 166 197 167
f 167 197 168
f 168 198 169
f 168 197 199
f 168 199 200
f 168 200 201
f 168 201 198
f 169 198 202
f 169 202 170
f 170 202 171
f 171 202 179
f 172 196 173
f 173 196 203
f 173 203 204
f 173 204 174
f 174 204 175
f 175 204 205
f 175 205 176
f 176 206 177
f 176 205 207
f 176 207 208
f 176 208 240
f 176 240 206
f 177 206 178
f 179 202 209
f 179 209 210
f 179 210 180
f 180 211 181
f 180 210 212
f 180 212 211
f 181 211 214
f 181 214 185
f 185 213 186
f 185 214 215
f 185 215 213
f 186 213 215
f 186 215 216
f 186 216 217
f 188 218 189
f 189 218 190
f 190 218 191
f 191 218 219
f 191 219 192
f 192 220 193
f 192 219 221
f 192 221 220
f 193 222 223
f 193 223 224
f 193 224 194
f 194 224 223
f 194 223 225
f 194 225 226
f 194 226 195
f 195 226 196
f 196 226 227
f 196 227 228
f 196 228 203
f 198 201 202
f 199 229 230
f 199 230 200
f 200 230 231
f 200 231 232
f 200 232 233
f 200 233 201
f 201 210 234
f 201 234 202
f 201 233 235
f 201 235 236
f 201 236 237
f 201 237 210
f 202 234 210
f 202 210 209
f 203 228 238
f 203 238 204
f 204 238 228
f 204 228 239
f 204 239 207
f 204 207 205
f 207 241 242
f 207 242 243
f 207 243 244
f 207 244 208
f 207 239 228
f 207 228 241
f 208 244 245
f 208 245 246
f 208 246 247
f 208 247 240
f 210 237 248
f 210 248 249
f 210 249 212
f 211 212 250
f 211 250 214
f 212 249 250
f 214 250 251
f 214 251 252
f 214 252 215
f 215 252 216
f 216 252 253
f 216 253 217
f 222 254 223
f 223 254 255
f 223 255 256
f 223 256 257
f 223 257 225
f 225 257 258
f 225 258 226
f 226 258 259
f 226 259 260
f 226 260 227
f 227 260 228
f 228 260 261
f 228 261 262
f 228 262 241
f 229 263 230
f 229 264 263
f 230 263 231
f 231 263 232
f 232 265 266
f 232 266 267
f 232 267 268
f 232 268 269
f 232 269 235
f 232 235 233
f 232 263 265
f 235 270 237
f 235 237 236
f 235 269 268
f 235 268 271
f 235 271 270
f 237 270 272
f 237 272 273
f 237 273 274
f 237 274 275
f 237 275 248
f 240 247 276
f 241 262 277
f 241 277 278
f 241 278 279
f 241 279 280
f 241 280 281
f 241 281 282
f 241 282 243
f 241 243 242
f 243 282 283
f 243 283 284
f 243 284 285
f 243 285 245
f 243 245 244
f 245 286 246
f 245 285 284
f 245 284 287
f 245 287 288
f 245 288 289
f 245 289 286
f 246 286 247
f 247 286 276
f 248 290 249
f 248 275 291
f 248 291 290
f 249 292 251
f 249 251 250
f 249 290 292
f 251 292 252
f 252 293 294
f 252 294 253
f 252 292 290
f 252 290 295
f 252 295 293
f 255 296 256
f 256 297 298
f 256 298 257
f 256 296 299
f 256 299 300
f 256 300 301
f 256 301 302
f 256 302 297
f 257 298 258
f 258 298 259
f 259 298 297
f 259 297 303
f 259 303 260
f 260 303 261
f 261 302 301
f 261 301 262
f 261 303 297
f 261 297 302
f 262 301 304
f 262 304 277
f 263 264 265
f 264 305 265
f 265 305 306
f 265 306 307
f 265 307 308
f 265 308 309
f 265 309 310
f 265 310 266
f 266 310 311
f 266 311 267
f 267 273 268
f 267 311 273
f 268 273 271
f 270 271 272
f 271 273 272
f 273 311 312
f 273 312 313
f 273 313 314
f 273 314 274
f 274 315 275
f 274 314 315
f 275 315 316
f 275 316 291
f 276 286 317
f 277 304 318
f 277 318 319
f 277 319 278
f 278 319 320
f 278 320 279
f 279 320 280
f 280 287 284
f 280 284 283
f 280 283 281
f 280 320 321
f 280 321 322
f 280 322 323
f 280 323 287
f 281 283 282
f 286 289 317
f 287 323 288
f 288 323 324
f 288 324 289
f 289 324 325
f 289 325 326
f 289 326 327
f 289 327 328
f 289 328 329
f 289 329 317
f 290 291 330
f 290 330 295
f 291 316 330
f 293 295 331
f 293 331 294
f 295 330 332
f 296 333 299
f 299 333 300
f 300 334 335
f 300 335 301
f 301 335 304
f 304 335 318
f 305 336 306
f 306 336 337
f 306 337 307
f 307 337 308
f 308 337 338
f 308 338 309
f 309 338 339
f 309 339 310
f 310 339 340
f 310 340 341
f 310 341 311
f 311 341 342
f 311 342 343
f 311 343 344
f 311 344 345
f 311 345 312
f 312 345 346
f 312 346 347
f 312 347 313
f 313 347 314
f 314 347 348
f 314 348 316
f 314 316 315
f 316 349 330
f 316 348 350
f 316 350 349
f 318 335 351
f 318 351 352
f 318 352 353
f 318 353 320
f 318 320 319
f 320 353 354
f 320 354 321
f 321 355 322
f 321 354 355
f 322 355 356
f 322 356 323
f 323 356 357
f 323 357 358
f 323 358 359
f 323 359 360
f 323 360 324
f 324 360 361
f 324 361 362
f 324 362 325
f 325 362 361
f 325 361 326
f 326 361 363
f 326 363 364
f 326 364 327
f 327 364 328
f 328 364 365
f 328 365 329
f 330 349 366
f 330 366 367
f 330 367 332
f 334 368 335
f 335 368 369
f 335 369 351
f 336 370 337
f 337 370 371
f 337 371 372
f 337 372 373
f 337 373 374
f 337 374 338
f 338 374 339
f 339 374 340
f 340 342 341
f 340 374 375
f 340 375 342
f 342 375 343
f 343 375 376
f 343 376 344
f 344 376 345
f 345 377 346
f 345 376 378
f 345 378 379
f 345 379 380
f 345 380 377
f 346 377 381
f 346 381 382
f 346 382 347
f 347 382 348
f 348 383 350
f 348 382 384
f 348 384 383
f 351 385 353
f 351 353 352
f 353 386 387
f 353 387 354
f 353 385 386
f 354 387 355
f 355 387 388
f 355 388 389
f 355 389 390
f 355 390 391
f 355 391 392
f 355 392 356
f 356 392 393
f 356 393 394
f 356 394 357
f 357 394 358
f 358 394 395
f 358 395 359
f 359 395 361
f 359 361 360
f 361 395 396
f 361 396 363
f 363 396 364
f 364 397 365
f 364 396 398
f 364 398 399
f 364 399 400
f 364 400 397
f 370 401 371
f 371 401 402
f 371 402 372
f 372 402 403
f 372 403 373
f 373 403 404
f 373 404 405
f 373 405 374
f 374 405 406
f 374 406 407
f 374 407 408
f 374 408 375
f 375 408 376
f 376 408 409
f 376 409 379
f 376 379 378
f 377 410 411
f 377 411 381
f 377 380 412
f 377 412 410
f 379 412 380
f 379 409 413
f 379 413 412
f 381 411 414
f 381 414 382
f 385 387 386
f 388 415 389
f 389 415 390
f 390 415 416
f 390 416 391
f 391 416 417
f 391 417 418
f 391 418 419
f 391 419 420
f 391 420 393
f 391 393 392
f 393 420 421
f 393 421 394
f 394 421 422
f 394 422 395
f 395 422 396
f 396 422 423
f 396 423 424
f 396 424 398
f 397 400 425
f 398 424 426
f 398 426 427
f 398 427 399
f 399 427 428
f 399 428 400
f 400 428 425
f 401 429 430
f 401 430 402
f 402 430 432
f 402 432 404
f 402 404 403
f 404 431 405
f 404 432 466
f 404 466 433
f 404 433 431
f 405 431 406
f 406 431 434
f 406 434 407
f 407 434 435
f 407 435 408
f 408 435 436
f 408 436 437
f 408 437 438
f 408 438 439
f 408 439 409
f 409 439 442
f 409 442 413
f 410 412 440
f 410 440 441
f 412 413 440
f 413 442 443
f 413 443 444
f 413 444 445
f 413 445 440
f 415 417 416
f 418 446 419
f 419 421 420
f 419 446 447
f 419 447 448
f 419 448 421
f 421 448 449
f 421 449 422
f 422 449 450
f 422 450 451
f 422 451 452
f 422 452 453
f 422 453 423
f 423 453 454
f 423 454 424
f 424 454 455
f 424 455 426
f 425 428 458
f 425 458 456
f 426 455 457
f 426 457 427
f 427 457 428
f 428 457 484
f 428 484 458
f 429 459 460
f 429 460 430
f 430 461 432
f 430 460 462
f 430 462 461
f 431 433 434
f 432 461 463
f 432 463 464
f 432 464 465
f 432 465 466
f 433 466 492
f 433 492 467
f 433 467 468
f 433 468 469
f 433 469 436
f 433 436 435
f 433 435 434
f 436 469 437
f 437 470 471
f 437 471 438
f 437 469 472
f 437 472 470
f 438 471 442
f 438 442 439
f 440 445 473
f 440 473 441
f 442 471 443
f 443 471 444
f 444 471 474
f 444 474 475
f 447 476 477
f 447 477 448
f 448 477 478
f 448 478 451
f 448 451 450
f 448 450 449
f 451 478 479
f 451 479 480
f 451 480 452
f 452 480 481
f 452 481 453
f 453 481 455
f 453 455 454
f 455 481 457
f 456 482 483
f 456 458 482
f 457 481 508
f 457 508 484
f 458 484 485
f 458 485 486
f 458 486 482
f 459 487 488
f 459 488 460
f 460 488 462
f 461 462 463
f 462 488 463
f 463 488 489
f 463 489 464
f 464 490 465
f 464 489 490
f 465 491 466
f 465 490 491
f 466 491 493
f 466 493 494
f 466 494 495
f 466 495 496
f 466 496 492
f 467 492 524
f 467 524 497
f 467 497 498
f 467 498 468
f 468 498 472
f 468 472 469
f 470 475 471
f 470 472 498
f 470 498 499
f 470 499 475
f 471 475 474
f 475 499 500
f 475 500 501
f 476 502 477
f 477 502 503
f 477 503 478
f 478 503 504
f 478 504 479
f 479 504 505
f 479 505 506
f 479 506 481
f 479 481 507
f 479 507 480
f 480 507 481
f 481 506 532
f 481 532 508
f 482 486 509
f 482 509 483
f 483 509 510
f 484 511 512
f 484 512 485
f 484 508 511
f 485 512 513
f 485 513 486
f 486 513 509
f 487 514 515
f 487 515 488
f 488 515 516
f 488 516 517
f 488 517 518
f 488 518 489
f 489 518 519
f 489 519 520
f 489 520 521
f 489 521 522
f 489 522 523
f 489 523 490
f 490 523 491
f 491 523 493
f 492 496 525
f 492 525 524
f 493 523 522
f 493 522 494
f 494 522 526
f 494 526 495
f 495 527 496
f 495 526 527
f 496 527 525
f 497 524 558
f 497 558 528
f 497 528 529
f 497 529 501
f 497 501 500
f 497 500 498
f 498 500 499
f 503 530 505
f 503 505 504
f 505 530 531
f 505 531 506
f 506 531 562
f 506 562 532
f 508 533 534
f 508 534 535
f 508 535 536
f 508 536 511
f 508 532 537
f 508 537 533
f 509 538 539
f 509 539 540
f 509 540 541
f 509 541 510
f 509 513 542
f 509 542 538
f 510 541 543
f 511 536 544
f 511 544 545
f 511 545 512
f 512 545 513
f 513 545 542
f 514 546 547
f 514 547 515
f 515 547 516
f 516 547 517
f 517 547 548
f 517 548 518
f 518 548 519
f 519 548 549
f 519 549 520
f 520 549 550
f 520 550 551
f 520 551 521
f 521 551 552
f 521 552 553
f 521 553 522
f 522 554 555
f 522 555 526
f 522 553 556
f 522 556 554
f 524 525 557
f 524 557 558
f 525 527 559
f 525 559 557
f 526 559 527
f 526 555 560
f 526 560 559
f 530 561 562
f 530 562 531
f 532 562 563
f 532 563 564
f 532 564 537
f 533 537 534
f 534 537 565
f 534 565 535
f 535 565 566
f 535 566 536
f 536 566 567
f 536 567 544
f 537 564 568
f 537 568 569
f 537 569 565
f 538 570 539
f 538 542 570
f 539 570 571
f 539 571 572
f 539 572 540
f 540 572 541
f 541 572 543
f 542 573 570
f 542 545 567
f 542 567 566
f 542 566 573
f 543 572 574
f 544 567 545
f 546 575 576
f 546 576 547
f 547 576 577
f 547 577 578
f 547 578 549
f 547 549 548
f 549 578 579
f 549 579 550
f 550 579 551
f 551 579 552
f 552 579 580
f 552 580 553
f 553 581 582
f 553 582 556
f 553 580 583
f 553 583 581
f 554 584 555
f 554 556 585
f 554 585 584
f 555 584 560
f 556 582 585
f 557 559 586
f 559 560 586
f 560 584 587
f 560 587 588
f 560 588 586
f 561 563 562
f 563 589 564
f 564 589 568
f 565 569 590
f 565 590 591
f 565 591 566
f 566 591 592
f 566 592 593
f 566 593 594
f 566 594 573
f 568 589 595
f 568 595 569
f 569 595 596
f 569 596 590
f 570 597 598
f 570 598 599
f 570 599 600
f 570 600 571
f 570 573 597
f 571 599 572
f 571 600 599
f 572 599 601
f 572 601 602
f 572 602 603
f 572 603 574
f 573 594 604
f 573 604 597
f 574 603 605
f 575 606 607
f 575 607 576
f 576 607 608
f 576 608 577
f 577 609 610
f 577 610 578
f 577 608 611
f 577 611 612
f 577 612 613
f 577 613 614
f 577 614 609
f 578 610 579
f 579 610 615
f 579 615 616
f 579 616 583
f 579 583 580
f 581 583 582
f 582 583 617
f 582 617 618
f 582 618 585
f 583 616 619
f 583 619 620
f 583 620 617
f 584 585 587
f 585 588 587
f 585 618 621
f 585 621 622
f 585 622 588
f 590 592 591
f 590 596 623
f 590 623 624
f 590 624 625
f 590 625 593
f 590 593 592
f 593 625 626
f 593 626 627
f 593 627 594
f 594 628 604
f 594 627 629
f 594 629 628
f 595 623 596
f 597 604 630
f 597 630 598
f 598 630 599
f 599 630 601
f 601 630 631
f 601 631 602
f 602 631 632
f 602 632 633
f 602 633 634
f 602 634 635
f 602 635 636
f 602 636 637
f 602 637 603
f 603 637 638
f 603 638 605
f 604 628 630
f 605 638 639
f 606 611 607
f 606 640 641
f 606 641 611
f 607 611 608
f 609 614 613
f 609 613 642
f 609 642 615
f 609 615 610
f 611 643 612
f 611 641 643
f 612 643 613
f 613 643 644
f 613 644 645
f 613 645 646
f 613 646 642
f 615 642 647
f 615 647 645
f 615 645 648
f 615 648 649
f 615 649 650
f 615 650 616
f 616 650 651
f 616 651 619
f 617 620 618
f 618 652 621
f 618 620 653
f 618 653 652
f 619 654 620
f 619 651 655
f 619 655 654
f 620 654 653
f 621 652 656
f 624 657 625
f 625 657 658
f 625 658 659
f 625 659 626
f 626 659 627
f 627 659 660
f 627 660 629
f 628 629 630
f 629 661 662
f 629 662 630
f 629 660 661
f 630 662 663
f 630 663 631
f 631 663 632
f 632 664 634
f 632 634 633
f 632 663 664
f 634 665 666
f 634 666 667
f 634 667 668
f 634 668 635
f 634 664 665
f 635 668 636
f 636 639 638
f 636 638 637
f 636 668 669
f 636 669 670
f 636 670 639
f 640 671 672
f 640 672 641
f 641 672 673
f 641 673 674
f 641 674 675
f 641 675 676
f 641 676 643
f 642 646 647
f 643 645 644
f 643 676 677
f 643 677 678
f 643 678 679
f 643 679 645
f 645 680 681
f 645 681 648
f 645 647 646
f 645 679 680
f 648 681 682
f 648 682 649
f 649 683 651
f 649 651 650
f 649 682 684
f 649 684 683
f 651 683 685
f 651 685 655
f 652 653 656
f 653 654 686
f 654 655 686
f 655 685 683
f 655 683 687
f 658 688 659
f 658 689 690
f 658 690 688
f 659 688 691
f 659 691 661
f 659 661 660
f 661 692 693
f 661 693 694
f 661 694 695
f 661 695 662
f 661 691 696
f 661 696 692
f 662 695 663
f 663 697 698
f 663 698 666
f 663 666 699
f 663 699 664
f 663 695 697
f 664 699 665
f 665 699 666
f 666 698 700
f 666 700 701
f 666 701 702
f 666 702 703
f 666 703 668
f 666 668 667
f 668 703 704
f 668 704 705
f 668 705 706
f 668 706 669
f 669 706 707
f 669 707 708
f 669 708 709
f 669 709 710
f 669 710 670
f 670 710 711
f 671 673 672
f 671 712 673
f 673 712 713
f 673 713 674
f 674 713 714
f 674 714 715
f 674 715 716
f 674 716 717
f 674 717 675
f 675 717 677
f 675 677 676
f 677 718 679
f 677 679 678
f 677 717 716
f 677 716 719
f 677 719 718
f 679 718 719
f 679 719 720
f 679 720 721
f 679 721 722
f 679 722 680
f 680 722 723
f 680 723 724
f 680 724 681
f 681 724 684
f 681 684 682
f 683 725 687
f 683 684 725
f 684 724 726
f 684 726 727
f 684 727 725
f 688 690 691
f 689 692 696
f 689 696 690
f 690 696 691
f 693 728 729
f 693 729 694
f 694 729 697
f 694 697 695
f 697 700 698
f 697 729 730
f 697 730 731
f 697 731 700
f 700 731 701
f 701 732 702
f 701 731 730
f 701 730 732
f 702 733 734
f 702 734 703
f 702 732 733
f 703 734 735
f 703 735 736
f 703 736 737
f 703 737 738
f 703 738 739
f 703 739 705
f 703 705 704
f 705 739 738
f 705 738 740
f 705 740 741
f 705 741 707
f 705 707 706
f 707 741 708
f 708 742 743
f 708 743 744
f 708 744 709
f 708 741 740
f 708 740 742
f 709 711 710
f 709 744 745
f 709 745 711
f 712 746 713
f 713 746 747
f 713 747 748
f 713 748 749
f 713 749 750
f 713 750 751
f 713 751 752
f 713 752 714
f 714 753 715
f 714 752 753
f 715 753 754
f 715 754 716
f 716 754 719
f 719 754 720
f 720 754 755
f 720 755 756
f 720 756 721
f 721 757 722
f 721 756 757
f 722 758 723
f 722 757 759
f 722 759 758
f 723 758 760
f 723 760 761
f 723 761 726
f 723 726 724
f 726 762 763
f 726 763 727
f 726 761 764
f 726 764 762
f 728 765 766
f 728 766 729
f 729 766 765
f 729 765 767
f 729 767 768
f 729 768 730
f 730 769 770
f 730 770 732
f 730 768 769
f 732 770 733
f 733 771 772
f 733 772 773
f 733 773 734
f 733 770 771
f 734 773 774
f 734 774 775
f 734 775 735
f 735 775 776
f 735 776 777
f 735 777 736
f 736 777 737
f 737 740 738
f 737 777 778
f 737 778 779
f 737 779 780
f 737 780 742
f 737 742 740
f 742 780 743
f 743 780 781
f 743 781 744
f 744 782 783
f 744 783 745
f 744 781 784
f 744 784 785
f 744 785 786
f 744 786 782
f 746 787 747
f 747 787 749
f 747 749 748
f 749 788 789
f 749 789 750
f 749 787 790
f 749 790 791
f 749 791 792
f 749 792 793
f 749 793 788
f 750 789 751
f 751 794 752
f 751 789 794
f 752 794 795
f 752 795 796
f 752 796 753
f 753 796 797
f 753 797 798
f 753 798 799
f 753 799 800
f 753 800 801
f 753 801 754
f 754 801 802
f 754 802 755
f 755 803 805
f 755 805 756
f 755 802 804
f 755 804 803
f 756 805 757
f 757 805 759
f 758 759 760
f 759 805 760
f 760 805 806
f 760 806 807
f 760 807 808
f 760 808 809
f 760 809 810
f 760 810 761
f 761 810 811
f 767 769 768
f 769 812 770
f 770 812 813
f 770 813 814
f 770 814 771
f 771 815 816
f 771 816 772
f 772 816 817
f 772 817 818
f 772 818 819
f 772 819 820
f 772 820 821
f 772 821 774
f 772 774 773
f 774 821 776
f 774 776 775
f 776 822 777
f 776 821 822
f 777 823 824
f 777 824 778
f 777 822 823
f 778 824 779
f 779 825 780
f 779 824 826
f 779 826 825
f 780 825 827
f 780 827 828
f 780 828 829
f 780 829 830
f 780 830 781
f 781 830 831
f 781 831 832
f 781 832 784
f 782 786 833
f 782 833 783
f 784 832 834
f 784 834 785
f 785 834 786
f 786 834 835
f 786 835 836
f 786 836 837
f 786 837 838
f 786 838 839
f 786 839 833
f 788 793 840
f 788 840 841
f 788 841 842
f 788 842 843
f 788 843 844
f 788 844 795
f 788 795 794
f 788 794 789
f 790 845 791
f 791 845 846
f 791 846 792
f 792 846 847
f 792 847 840
f 792 840 793
f 795 844 797
f 795 797 796
f 797 844 798
f 798 844 848
f 798 848 799
f 799 848 800
f 800 849 801
f 800 848 850
f 800 850 851
f 800 851 852
f 800 852 853
f 800 853 849
f 801 849 804
f 801 804 802
f 803 804 854
f 803 854 855
f 803 855 806
f 803 806 805
f 804 849 854
f 806 855 856
f 806 856 807
f 807 857 808
f 807 856 857
f 809 811 810
f 815 817 816
f 818 858 819
f 819 823 820
f 819 858 859
f 819 859 860
f 819 860 861
f 819 861 824
f 819 824 823
f 820 823 822
f 820 822 821
f 824 861 860
f 824 860 826
f 825 862 863
f 825 863 827
f 825 826 864
f 825 864 862
f 826 860 865
f 826 865 864
f 827 863 828
f 828 863 866
f 828 866 829
f 829 866 831
f 829 831 830
f 831 866 835
f 831 835 832
f 832 835 834
f 835 866 867
f 835 867 868
f 835 868 869
f 835 869 870
f 835 870 836
f 836 870 871
f 836 871 872
f 836 872 837
f 837 872 873
f 837 873 838
f 838 873 874
f 838 874 839
f 840 847 875
f 840 875 876
f 840 876 841
f 841 876 877
f 841 877 842
f 842 877 843
f 843 877 878
f 843 878 879
f 843 879 880
f 843 880 881
f 843 881 882
f 843 882 883
f 843 883 884
f 843 884 848
f 843 848 844
f 845 874 873
f 845 873 846
f 846 875 847
f 846 873 871
f 846 871 875
f 848 884 885
f 848 885 850
f 849 853 886
f 849 886 887
f 849 887 854
f 850 885 851
f 851 885 852
f 852 888 889
f 852 889 890
f 852 890 853
f 852 885 891
f 852 891 892
f 852 892 893
f 852 893 894
f 852 894 888
f 853 890 886
f 854 887 855
f 855 887 895
f 855 895 856
f 860 896 865
f 862 864 897
f 862 897 898
f 862 898 899
f 862 899 863
f 863 899 898
f 863 898 900
f 863 900 867
f 863 867 866
f 864 865 901
f 864 901 902
f 864 902 903
f 864 903 897
f 865 896 904
f 865 904 905
f 865 905 901
f 867 906 907
f 867 907 908
f 867 908 909
f 867 909 910
f 867 910 868
f 867 900 906
f 868 910 911
f 868 911 869
f 869 911 912
f 869 912 870
f 870 912 871
f 871 873 872
f 871 912 913
f 871 913 914
f 871 914 875
f 875 914 876
f 876 914 877
f 877 914 878
f 878 914 879
f 879 914 915
f 879 915 880
f 880 916 881
f 880 915 917
f 880 917 918
f 880 918 919
f 880 919 916
f 881 916 882
f 882 916 883
f 883 916 884
f 884 916 920
f 884 920 885
f 885 892 891
f 885 920 892
f 886 921 922
f 886 922 887
f 886 890 889
f 886 889 921
f 888 894 923
f 888 923 889
f 892 924 894
f 892 894 893
f 892 920 925
f 892 925 924
f 894 924 926
f 894 926 923
f 897 903 898
f 898 903 927
f 898 927 900
f 900 927 928
f 900 928 906
f 901 905 902
f 902 905 929
f 902 929 903
f 903 930 931
f 903 931 948
f 903 948 927
f 903 929 930
f 906 928 907
f 907 928 908
f 908 928 932
f 908 932 933
f 908 933 934
f 908 934 935
f 908 935 909
f 909 935 913
f 909 913 910
f 910 913 911
f 911 913 912
f 913 935 936
f 913 936 933
f 913 933 937
f 913 937 938
f 913 938 914
f 914 938 918
f 914 918 939
f 914 939 915
f 915 939 917
f 916 940 941
f 916 941 942
f 916 942 943
f 916 943 920
f 916 919 940
f 917 939 918
f 918 938 944
f 918 944 945
f 918 945 946
f 918 946 947
f 918 947 919
f 919 947 940
f 920 943 925
f 924 925 926
f 927 948 949
f 927 949 928
f 928 949 950
f 928 950 951
f 928 951 952
f 928 952 953
f 928 953 932
f 929 931 930
f 932 953 952
f 932 952 954
f 932 954 933
f 933 936 934
f 933 954 955
f 933 955 956
f 933 956 957
f 933 957 937
f 934 936 935
f 937 957 944
f 937 944 938
f 940 947 941
f 944 958 959
f 944 959 945
f 944 957 963
f 944 963 958
f 945 960 946
f 946 960 961
f 946 961 947
f 950 954 951
f 951 954 952
f 954 962 955
f 955 962 956
f 956 963 957
