v 0.00536473 -0.437434 0.588031
v -9.53963e-05 -0.437434 0.588031
v 0.0176871 -0.437434 0.586437
v 0.0059091 -0.430159 0.587377
v -9.53963e-05 -0.437434 0.509627
v -9.53963e-05 -0.430159 0.587377
v 0.0809157 -0.437434 0.578161
v 0.0835881 -0.434645 0.57763
v 0.0176871 -0.430159 0.585844
v 0.0059091 -0.418371 0.585987
v 0.168426 -0.437434 0.477914
v -9.53963e-05 -0.158053 0.417675
v 0.168426 -0.158053 0.379281
v -9.53963e-05 -0.418371 0.585987
v 0.135534 -0.437434 0.570928
v 0.135534 -0.430159 0.570335
v 0.111961 -0.430159 0.573441
v 0.0878605 -0.430487 0.576649
v 0.0805693 -0.426795 0.577221
v 0.0727008 -0.422337 0.577752
v 0.0176871 -0.418371 0.584455
v 0.0176871 -0.406583 0.582881
v 0.0059091 -0.394796 0.58282
v 0.168426 -0.437434 0.562059
v -9.53963e-05 -0.158053 0.506929
v 0.168426 -0.158053 0.475114
v -9.53963e-05 -0.394796 0.58282
v 0.147312 -0.437434 0.569211
v 0.147312 -0.430159 0.568598
v 0.135534 -0.418371 0.568946
v 0.111961 -0.418371 0.572051
v 0.100166 -0.418371 0.573604
v 0.0529553 -0.394905 0.576669
v 0.0292837 -0.383172 0.578202
v 0.0176871 -0.383008 0.579694
v 0.0059091 -0.383008 0.581226
v 0.162306 -0.437434 0.564593
v 0.168426 -0.432265 0.56161
v 0.0059091 -0.158053 0.506929
v -9.53963e-05 -0.16139 0.508728
v 0.160508 -0.158053 0.478404
v 0.159024 -0.15953 0.479875
v 0.155032 -0.163714 0.483942
v 0.168426 -0.161198 0.476912
v -9.53963e-05 -0.383008 0.581226
v 0.150495 -0.437434 0.568476
v 0.155658 -0.430159 0.566677
v 0.154322 -0.421052 0.566146
v 0.152623 -0.413202 0.565594
v 0.148136 -0.417633 0.566943
v 0.144062 -0.406583 0.566146
v 0.141604 -0.400484 0.565737
v 0.137628 -0.392607 0.565206
v 0.111961 -0.394796 0.568884
v 0.122601 -0.384102 0.566044
v 0.0530377 -0.383008 0.575055
v 0.0330778 -0.37937 0.57718
v 0.0252257 -0.376033 0.577691
v 0.0176871 -0.373599 0.578202
v 0.00678337 -0.370235 0.578917
v 0.00345121 -0.363261 0.577916
v 0.156417 -0.437434 0.566984
v 0.168426 -0.430159 0.561426
v 0.161547 -0.430159 0.564266
v 0.0059091 -0.16139 0.508728
v 0.0176871 -0.162784 0.507972
v 0.0146189 -0.158053 0.505806
v -9.53963e-05 -0.166231 0.511139
v 0.15523 -0.158053 0.480591
v 0.1452 -0.158053 0.484718
v 0.146256 -0.15953 0.485127
v 0.135534 -0.167571 0.493688
v 0.146751 -0.171564 0.49142
v 0.1629 -0.166723 0.482348
v 0.168426 -0.169348 0.481387
v -9.53963e-05 -0.363261 0.577916
v 0.168426 -0.418235 0.559914
v 0.158595 -0.417633 0.563898
v 0.15909 -0.406583 0.5621
v 0.15909 -0.383008 0.558688
v 0.147312 -0.383008 0.562264
v 0.134428 -0.384102 0.564471
v 0.125768 -0.380929 0.565186
v 0.117899 -0.3771 0.565697
v 0.0648323 -0.383008 0.573502
v 0.111961 -0.375158 0.566105
v 0.0766103 -0.37122 0.569967
v 0.0113032 -0.36564 0.577425
v 0.00678337 -0.359377 0.57669
v 0.0059091 -0.335883 0.571868
v 0.0059091 -0.170907 0.513448
v 0.0356346 -0.164945 0.506807
v 0.0294652 -0.158053 0.503864
v -9.53963e-05 -0.170907 0.513448
v 0.135534 -0.158053 0.488478
v 0.135534 -0.159119 0.48907
v 0.128308 -0.165383 0.494812
v 0.135534 -0.173478 0.496549
v 0.142231 -0.19968 0.507113
v 0.142445 -0.175912 0.495405
v 0.168426 -0.173752 0.483594
v -9.53963e-05 -0.335883 0.571868
v 0.168426 -0.406583 0.558238
v 0.167816 -0.383008 0.555092
v 0.166183 -0.37483 0.554417
v 0.159749 -0.371028 0.556236
v 0.147312 -0.37122 0.5602
v 0.135534 -0.37122 0.562202
v 0.103993 -0.36668 0.565431
v 0.0961414 -0.364163 0.565942
v 0.111961 -0.359459 0.562877
v 0.0883884 -0.355849 0.565227
v 0.0417051 -0.335145 0.567025
v 0.0176871 -0.335883 0.570335
v -9.53963e-05 -0.330085 0.57058
v 0.038076 -0.328444 0.566064
v 0.0059091 -0.324095 0.569232
v 0.0059091 -0.179359 0.517391
v 0.0176871 -0.170907 0.511936
v 0.0434866 -0.166012 0.506296
v 0.120456 -0.164398 0.495323
v 0.114914 -0.158053 0.492605
v 0.0648323 -0.158053 0.499206
v -9.53963e-05 -0.179359 0.517391
v 0.124069 -0.158053 0.491379
v 0.124118 -0.159913 0.492401
v 0.0648323 -0.1749 0.507645
v 0.124118 -0.16995 0.497489
v 0.122733 -0.183817 0.504069
v 0.125982 -0.189642 0.506296
v 0.135534 -0.206271 0.512017
v 0.168426 -0.193116 0.493055
v 0.150297 -0.179249 0.493791
v 0.141472 -0.223885 0.518577
v 0.146619 -0.206681 0.508687
v 0.154718 -0.210866 0.507399
v 0.168426 -0.395698 0.556665
v 0.168426 -0.383008 0.554826
v 0.168426 -0.372833 0.553048
v 0.168426 -0.371028 0.55266
v 0.164121 -0.36698 0.553559
v 0.156203 -0.359459 0.555153
v 0.154124 -0.351856 0.554295
v 0.151221 -0.344006 0.553416
v 0.147312 -0.359459 0.557687
v 0.143353 -0.339603 0.554376
v 0.138618 -0.331753 0.553539
v 0.135534 -0.359459 0.559771
v 0.135022 -0.335747 0.554867
v 0.13075 -0.329347 0.55407
v 0.045928 -0.330742 0.565533
v -9.53963e-05 -0.324095 0.569232
v 0.123739 -0.32147 0.55315
v 0.0294652 -0.32013 0.565247
v 0.0232297 -0.318379 0.565656
v 0.0186604 -0.323029 0.567331
v 0.0153777 -0.316574 0.566167
v 0.0059091 -0.314441 0.56678
v -9.53963e-05 -0.319337 0.568026
v 0.0176871 -0.181027 0.516635
v -9.53963e-05 -0.18234 0.518761
v 0.0059091 -0.204083 0.52865
v 0.0294652 -0.170907 0.510403
v 0.111961 -0.181711 0.504539
v 0.0148993 -0.211249 0.530755
v 0.0766103 -0.207228 0.520804
v 0.107573 -0.211714 0.518761
v 0.123739 -0.206271 0.514143
v 0.135534 -0.216582 0.516676
v 0.168426 -0.206025 0.499349
v 0.153102 -0.235837 0.518515
v 0.15909 -0.22982 0.513652
v 0.168426 -0.225635 0.508094
v 0.166678 -0.222298 0.507461
v 0.168426 -0.220548 0.50599
v 0.146173 -0.21918 0.514613
v 0.135534 -0.22249 0.519128
v 0.135534 -0.22982 0.521948
v 0.135534 -0.249703 0.529509
v 0.143188 -0.257525 0.531
v 0.15104 -0.261546 0.529488
v 0.160112 -0.252411 0.522173
v 0.16257 -0.214449 0.505765
v 0.168426 -0.208596 0.500575
v 0.168426 -0.362194 0.550698
v 0.168426 -0.350953 0.548185
v 0.158479 -0.347808 0.551597
v 0.15909 -0.335883 0.548634
v 0.160162 -0.323083 0.54514
v 0.147312 -0.324095 0.54984
v 0.147295 -0.335747 0.552558
v 0.147295 -0.347808 0.555194
v 0.135534 -0.312308 0.549125
v 0.135022 -0.324889 0.552456
v 0.135534 -0.347671 0.557298
v 0.115903 -0.319282 0.553661
v 0.108051 -0.317285 0.554172
v 0.100166 -0.31548 0.554703
v 0.0186604 -0.312499 0.564573
v -9.53963e-05 -0.314441 0.56678
v 0.0059091 -0.30052 0.562775
v 0.00295634 -0.269997 0.554295
v -9.53963e-05 -0.199352 0.526505
v -9.53963e-05 -0.207092 0.530019
v 0.0059091 -0.209991 0.531327
v 0.0059091 -0.218059 0.534699
v 0.01838 -0.21702 0.532676
v 0.0294652 -0.213492 0.529795
v 0.0227514 -0.212425 0.530224
v 0.115442 -0.212917 0.518229
v 0.123739 -0.214257 0.517698
v 0.168426 -0.255638 0.520007
v 0.168426 -0.230011 0.509851
v 0.168426 -0.250223 0.517861
v 0.168426 -0.217156 0.504518
v 0.123739 -0.220165 0.520068
v 0.123739 -0.22982 0.523767
v 0.135534 -0.255583 0.531715
v 0.135534 -0.265183 0.535169
v 0.135534 -0.276971 0.538949
v 0.14266 -0.293354 0.542504
v 0.147312 -0.276971 0.536109
v 0.147196 -0.265347 0.532328
v 0.154718 -0.269395 0.530959
v 0.158826 -0.265347 0.527731
v 0.168426 -0.264582 0.52346
v 0.168426 -0.338919 0.545467
v 0.168426 -0.33643 0.544895
v 0.168426 -0.32962 0.543301
v 0.167206 -0.326338 0.543036
v 0.168426 -0.321142 0.541238
v 0.164814 -0.318489 0.542055
v 0.156632 -0.312308 0.543547
v 0.168426 -0.325299 0.54228
v 0.147312 -0.312308 0.546652
v 0.135534 -0.30052 0.545733
v 0.111977 -0.312937 0.552415
v 0.063958 -0.300273 0.555092
v 0.0648323 -0.312308 0.558443
v 0.0305209 -0.287638 0.555848
v 0.0176871 -0.278968 0.55503
v 0.0108249 -0.271528 0.553784
v -9.53963e-05 -0.269997 0.554295
v 0.0059091 -0.288759 0.559383
v 0.00648645 -0.276069 0.555643
v 0.0956795 -0.270544 0.542321
v 0.0176871 -0.265183 0.550678
v 0.00648645 -0.26573 0.552313
v 0.0059091 -0.253395 0.54794
v 0.000135543 -0.235672 0.542137
v -9.53963e-05 -0.235645 0.542137
v -9.53963e-05 -0.209991 0.531327
v 0.0412597 -0.221286 0.531389
v 0.0294652 -0.219372 0.532165
v 0.00480387 -0.230996 0.539807
v 0.0176871 -0.22982 0.537723
v 0.0412597 -0.215406 0.529018
v 0.0583659 -0.224131 0.530265
v 0.111961 -0.22982 0.52532
v 0.119664 -0.246859 0.530592
v 0.0615826 -0.258346 0.542484
v 0.0766103 -0.261081 0.541483
v 0.103532 -0.27224 0.541789
v 0.111961 -0.274154 0.541238
v 0.146883 -0.301039 0.543465
v 0.150512 -0.297484 0.541258
v 0.154025 -0.305306 0.542464
v 0.168426 -0.267973 0.524666
v 0.158826 -0.277737 0.531961
v 0.16257 -0.274318 0.529345
v 0.168426 -0.314824 0.539439
v 0.162521 -0.312308 0.541115
v 0.158413 -0.301039 0.539337
v 0.0176871 -0.273087 0.553334
v 0.0176871 -0.253395 0.546428
v 0.00798757 -0.23704 0.541646
v 0.100166 -0.22982 0.526873
v 0.0269908 -0.246284 0.542586
v 0.168426 -0.276999 0.527751
v 0.168426 -0.279296 0.528466
v 0.168426 -0.300055 0.534883
v 0.168426 -0.290072 0.531797
f 1 2 5
f 1 5 11
f 1 11 24
f 1 24 37
f 1 37 62
f 1 62 46
f 1 46 28
f 1 28 15
f 1 15 7
f 1 7 3
f 1 3 4
f 1 4 6
f 1 6 2
f 2 6 14
f 2 14 27
f 2 27 45
f 2 45 76
f 2 76 102
f 2 102 115
f 2 115 152
f 2 152 159
f 2 159 200
f 2 200 243
f 2 243 251
f 2 251 252
f 2 252 204
f 2 204 203
f 2 203 161
f 2 161 124
f 2 124 94
f 2 94 68
f 2 68 40
f 2 40 25
f 2 25 12
f 2 12 5
f 3 7 8
f 3 8 9
f 3 9 4
f 4 9 21
f 4 21 10
f 4 10 14
f 4 14 6
f 5 12 13
f 5 13 11
f 7 15 8
f 8 16 17
f 8 17 18
f 8 18 9
f 8 15 16
f 9 19 20
f 9 20 21
f 9 18 19
f 10 21 22
f 10 22 23
f 10 23 27
f 10 27 14
f 11 13 26
f 11 26 44
f 11 44 75
f 11 75 101
f 11 101 132
f 11 132 170
f 11 170 184
f 11 184 215
f 11 215 175
f 11 175 173
f 11 173 213
f 11 213 214
f 11 214 212
f 11 212 226
f 11 226 268
f 11 268 279
f 11 279 280
f 11 280 282
f 11 282 281
f 11 281 271
f 11 271 231
f 11 231 234
f 11 234 229
f 11 229 228
f 11 228 227
f 11 227 186
f 11 186 185
f 11 185 140
f 11 140 139
f 11 139 138
f 11 138 137
f 11 137 103
f 11 103 77
f 11 77 63
f 11 63 38
f 11 38 24
f 12 25 39
f 12 39 67
f 12 67 93
f 12 93 123
f 12 123 122
f 12 122 125
f 12 125 95
f 12 95 70
f 12 70 69
f 12 69 41
f 12 41 26
f 12 26 13
f 15 28 16
f 16 28 29
f 16 29 30
f 16 30 20
f 16 20 19
f 16 19 17
f 17 19 18
f 20 30 31
f 20 31 32
f 20 32 22
f 20 22 21
f 22 33 34
f 22 34 35
f 22 35 36
f 22 36 23
f 22 32 33
f 23 36 45
f 23 45 27
f 24 38 37
f 25 40 65
f 25 65 39
f 26 41 42
f 26 42 43
f 26 43 44
f 28 46 47
f 28 47 29
f 29 47 48
f 29 48 49
f 29 49 50
f 29 50 30
f 30 50 51
f 30 51 52
f 30 52 53
f 30 53 54
f 30 54 31
f 31 54 33
f 31 33 32
f 33 54 55
f 33 55 56
f 33 56 34
f 34 56 57
f 34 57 35
f 35 57 36
f 36 57 58
f 36 58 59
f 36 59 60
f 36 60 61
f 36 61 76
f 36 76 45
f 37 38 63
f 37 63 64
f 37 64 47
f 37 47 62
f 39 65 66
f 39 66 67
f 40 68 65
f 41 69 42
f 42 69 43
f 43 69 70
f 43 70 71
f 43 71 72
f 43 72 73
f 43 73 74
f 43 74 44
f 44 74 75
f 46 62 47
f 47 64 48
f 48 77 78
f 48 78 79
f 48 79 80
f 48 80 49
f 48 64 63
f 48 63 77
f 49 80 81
f 49 81 52
f 49 52 51
f 49 51 50
f 52 81 82
f 52 82 53
f 53 82 55
f 53 55 54
f 55 82 83
f 55 83 84
f 55 84 85
f 55 85 56
f 56 85 57
f 57 85 84
f 57 84 58
f 58 84 86
f 58 86 59
f 59 86 87
f 59 87 88
f 59 88 60
f 60 88 61
f 61 88 89
f 61 89 90
f 61 90 102
f 61 102 76
f 65 68 91
f 65 91 66
f 66 92 67
f 66 91 92
f 67 92 93
f 68 94 91
f 70 95 96
f 70 96 71
f 71 96 72
f 72 96 97
f 72 97 98
f 72 98 99
f 72 99 100
f 72 100 73
f 73 100 74
f 74 100 75
f 75 100 101
f 77 103 78
f 78 103 104
f 78 104 79
f 79 104 80
f 80 104 105
f 80 105 106
f 80 106 107
f 80 107 81
f 81 107 108
f 81 108 82
f 82 108 84
f 82 84 83
f 84 108 86
f 86 108 87
f 87 108 109
f 87 109 88
f 88 109 110
f 88 110 111
f 88 111 112
f 88 112 113
f 88 113 114
f 88 114 90
f 88 90 89
f 90 115 102
f 90 114 116
f 90 116 117
f 90 117 115
f 91 94 124
f 91 124 118
f 91 118 119
f 91 119 92
f 92 120 97
f 92 97 121
f 92 121 122
f 92 122 123
f 92 123 93
f 92 119 120
f 95 125 97
f 95 97 96
f 97 99 98
f 97 125 126
f 97 126 121
f 97 120 127
f 97 127 128
f 97 128 129
f 97 129 130
f 97 130 131
f 97 131 99
f 99 132 133
f 99 133 100
f 99 131 134
f 99 134 135
f 99 135 136
f 99 136 132
f 100 133 101
f 101 133 132
f 103 137 104
f 104 138 105
f 104 137 138
f 105 139 140
f 105 140 141
f 105 141 106
f 105 138 139
f 106 141 142
f 106 142 107
f 107 142 143
f 107 143 144
f 107 144 145
f 107 145 146
f 107 146 108
f 108 146 147
f 108 147 148
f 108 148 109
f 109 148 110
f 110 148 111
f 111 148 112
f 112 148 149
f 112 149 113
f 113 149 150
f 113 150 151
f 113 151 114
f 114 151 116
f 115 117 152
f 116 151 150
f 116 150 153
f 116 153 154
f 116 154 155
f 116 155 156
f 116 156 117
f 117 156 155
f 117 155 157
f 117 157 158
f 117 158 159
f 117 159 152
f 118 160 119
f 118 124 161
f 118 161 162
f 118 162 160
f 119 160 163
f 119 163 120
f 120 163 127
f 121 126 122
f 122 126 125
f 127 164 128
f 127 163 160
f 127 160 165
f 127 165 166
f 127 166 164
f 128 164 129
f 129 164 130
f 130 164 167
f 130 167 168
f 130 168 169
f 130 169 131
f 131 169 134
f 132 136 170
f 134 171 172
f 134 172 173
f 134 173 174
f 134 174 175
f 134 175 176
f 134 176 135
f 134 169 177
f 134 177 178
f 134 178 179
f 134 179 180
f 134 180 181
f 134 181 182
f 134 182 171
f 135 176 136
f 136 176 183
f 136 183 184
f 136 184 170
f 140 185 141
f 141 185 186
f 141 186 142
f 142 186 187
f 142 187 143
f 143 187 188
f 143 188 189
f 143 189 144
f 144 190 191
f 144 191 146
f 144 146 192
f 144 192 145
f 144 189 190
f 145 192 146
f 146 191 190
f 146 190 147
f 147 190 193
f 147 193 194
f 147 194 150
f 147 150 149
f 147 149 195
f 147 195 148
f 148 195 149
f 150 194 153
f 153 193 196
f 153 196 155
f 153 155 154
f 153 194 193
f 155 196 197
f 155 197 198
f 155 198 199
f 155 199 157
f 157 199 158
f 158 200 159
f 158 199 201
f 158 201 202
f 158 202 243
f 158 243 200
f 160 162 165
f 161 203 162
f 162 203 204
f 162 204 205
f 162 205 165
f 164 166 167
f 165 205 206
f 165 206 207
f 165 207 208
f 165 208 209
f 165 209 167
f 165 167 166
f 167 209 208
f 167 208 210
f 167 210 168
f 168 210 211
f 168 211 169
f 169 211 177
f 171 182 212
f 171 212 172
f 172 213 173
f 172 212 214
f 172 214 213
f 173 175 174
f 175 215 176
f 176 215 183
f 177 211 216
f 177 216 178
f 178 216 217
f 178 217 179
f 179 218 180
f 179 217 218
f 180 218 219
f 180 219 220
f 180 220 221
f 180 221 222
f 180 222 223
f 180 223 224
f 180 224 181
f 181 224 225
f 181 225 226
f 181 226 212
f 181 212 182
f 183 215 184
f 186 227 187
f 187 227 188
f 188 227 228
f 188 228 229
f 188 229 230
f 188 230 189
f 189 231 232
f 189 232 233
f 189 233 190
f 189 230 234
f 189 234 231
f 190 233 235
f 190 235 221
f 190 221 193
f 193 221 236
f 193 236 237
f 193 237 198
f 193 198 197
f 193 197 196
f 198 237 238
f 198 238 239
f 198 239 199
f 199 239 238
f 199 238 240
f 199 240 241
f 199 241 242
f 199 242 201
f 201 242 244
f 201 244 202
f 202 244 245
f 202 245 242
f 202 242 246
f 202 246 247
f 202 247 248
f 202 248 249
f 202 249 250
f 202 250 251
f 202 251 243
f 204 252 205
f 205 252 251
f 205 251 206
f 206 253 254
f 206 254 207
f 206 251 250
f 206 250 255
f 206 255 256
f 206 256 253
f 207 254 253
f 207 253 257
f 207 257 208
f 208 211 210
f 208 257 211
f 211 257 253
f 211 253 216
f 216 253 258
f 216 258 217
f 217 258 259
f 217 259 260
f 217 260 218
f 218 260 261
f 218 261 262
f 218 262 219
f 219 246 220
f 219 262 246
f 220 246 263
f 220 263 264
f 220 264 240
f 220 240 238
f 220 238 237
f 220 237 236
f 220 236 221
f 221 235 265
f 221 265 266
f 221 266 222
f 222 224 223
f 222 266 267
f 222 267 224
f 224 268 226
f 224 226 225
f 224 267 269
f 224 269 270
f 224 270 268
f 229 234 230
f 231 271 232
f 232 271 272
f 232 272 233
f 233 272 273
f 233 273 267
f 233 267 235
f 235 267 265
f 240 264 274
f 240 274 241
f 241 274 242
f 242 245 244
f 242 274 264
f 242 264 263
f 242 263 246
f 246 262 247
f 247 262 261
f 247 261 275
f 247 275 249
f 247 249 248
f 249 275 276
f 249 276 250
f 250 276 255
f 253 256 258
f 255 276 256
f 256 277 258
f 256 276 275
f 256 275 278
f 256 278 277
f 258 277 259
f 259 277 278
f 259 278 261
f 259 261 260
f 261 278 275
f 265 267 266
f 267 273 269
f 268 270 279
f 269 280 270
f 269 273 280
f 270 280 279
f 271 281 272
f 272 281 273
f 273 281 282
f 273 282 280
