v 0.334089 0.0771744 0.0007023
v 0.334089 0.0771744 -0.00590288
v 0.255503 0.0771744 0.0007023
v 0.42128 -0.0272481 0.0007023
v 0.332556 0.0771744 -0.0176792
v 0.42128 -0.0272481 -0.00590288
v 0.413077 -0.0228953 -0.0412537
v 0.41262 -0.0234256 -0.0481956
v 0.229362 0.0771744 -0.110282
v 0.229281 0.0765115 -0.110282
v 0.255476 0.0769092 0.0007023
v 0.425987 -0.0331475 0.0007023
v 0.324783 0.0771744 -0.0766045
v 0.412109 -0.0240443 -0.0560393
v 0.425987 -0.0331475 -0.00590288
v 0.409985 -0.0266515 -0.0883917
v 0.411518 -0.0247292 -0.0648172
v 0.313649 0.0771744 -0.110282
v 0.228609 0.0663035 -0.110282
v 0.255449 0.0765999 0.0007023
v 0.436475 -0.0465594 0.0007023
v 0.322147 0.0771744 -0.0883917
v 0.409205 -0.0276458 -0.100168
v 0.403315 -0.0206195 -0.100168
v 0.430613 -0.0412344 -0.0176792
v 0.425207 -0.0341197 -0.0176792
v 0.414664 -0.032551 -0.0883917
v 0.415444 -0.0315788 -0.0766045
v 0.436475 -0.0465594 -0.00334989
v 0.432656 -0.0420741 -0.00672854
v 0.435991 -0.0472223 -0.0112153
v 0.413884 -0.0335232 -0.100168
v 0.319135 0.0771744 -0.0969958
v 0.402078 -0.0220115 -0.110282
v 0.227856 0.0547034 -0.110282
v 0.255127 0.0714075 0.0007023
v 0.227157 0.0438767 -0.110282
v 0.451079 -0.0663568 0.0007023
v 0.321986 0.0771744 -0.0888697
v 0.413158 -0.0344733 -0.108403
v 0.428192 -0.0401739 -0.0299771
v 0.424131 -0.0355559 -0.0342357
v 0.424642 -0.034871 -0.0263811
v 0.451079 -0.0663568 -0.00590288
v 0.446668 -0.0604794 -0.00590288
v 0.438466 -0.055729 -0.0412537
v 0.42795 -0.0520611 -0.100059
v 0.421334 -0.0392238 -0.0766045
v 0.445135 -0.0625122 -0.0294665
v 0.444356 -0.0635286 -0.0412537
v 0.423997 -0.0475095 -0.103916
v 0.319243 0.0771744 -0.0967133
v 0.410791 -0.0323079 -0.110282
v 0.254401 0.0596086 0.0007023
v 0.227022 0.0414462 -0.110282
v 0.254024 0.0530242 0.0007023
v 0.456969 -0.0746867 0.0007023
v 0.414906 -0.0374119 -0.110282
v 0.433759 -0.0618273 -0.110282
v 0.426955 -0.0530112 -0.110282
v 0.448201 -0.0702014 -0.0500425
v 0.456969 -0.0746867 -0.00590288
v 0.435857 -0.0591979 -0.0808957
v 0.435346 -0.0598387 -0.0883917
v 0.434566 -0.0608772 -0.100168
v 0.444356 -0.0656939 -0.0535949
v 0.438277 -0.0677267 -0.110282
v 0.229093 0.0326523 -0.110282
v 0.253432 0.0412474 0.0007023
v 0.253755 0.0478318 0.0007023
v 0.45869 -0.0772719 0.0007023
v 0.44769 -0.0709084 -0.0578861
v 0.460869 -0.0805862 -0.00590288
v 0.447233 -0.0715713 -0.0648172
v 0.442204 -0.0648101 -0.0648172
v 0.438977 -0.0667766 -0.100168
v 0.446453 -0.0727424 -0.0766045
v 0.439111 -0.0689199 -0.110282
v 0.229738 0.0302218 -0.110282
v 0.254831 0.0360108 0.0007023
v 0.460869 -0.0805862 0.0007023
v 0.459685 -0.082398 -0.024002
v 0.451106 -0.0774707 -0.0648172
v 0.463693 -0.084939 0.0007023
v 0.48026 -0.110592 -0.00590288
v 0.473617 -0.102659 -0.0176792
v 0.450326 -0.0786418 -0.0766045
v 0.449546 -0.0798349 -0.0883917
v 0.448201 -0.081934 -0.108826
v 0.446803 -0.0801222 -0.110282
v 0.444867 -0.0751507 -0.100168
v 0.444732 -0.0770288 -0.110282
v 0.234848 0.0228641 -0.110282
v 0.259726 0.0240793 0.0007023
v 0.256821 0.0285868 0.0007023
v 0.459174 -0.0831934 -0.0318565
v 0.472245 -0.0981741 0.0007023
v 0.48026 -0.110592 0.0007023
v 0.484052 -0.116491 -0.00590288
v 0.483514 -0.117331 -0.0142897
v 0.480125 -0.112823 -0.0180052
v 0.468184 -0.111078 -0.100168
v 0.461084 -0.102129 -0.110282
v 0.451644 -0.0875241 -0.110282
v 0.449412 -0.0840993 -0.110282
v 0.396699 -0.148529 -0.110282
v 0.411813 -0.148551 0.0007023
v 0.484052 -0.116491 0.0007023
v 0.48814 -0.123738 -0.00590288
v 0.483003 -0.11817 -0.0221443
v 0.471519 -0.117662 -0.106969
v 0.468803 -0.114127 -0.110282
v 0.433786 -0.148551 -0.110282
v 0.399334 -0.148551 -0.100168
v 0.501748 -0.148551 0.0007023
v 0.48814 -0.123738 0.0007023
v 0.493196 -0.132908 -0.00590288
v 0.486069 -0.122766 -0.0180052
v 0.474585 -0.123959 -0.110282
v 0.484993 -0.126368 -0.0412537
v 0.473321 -0.121706 -0.110282
v 0.488005 -0.148551 -0.110282
v 0.501748 -0.148551 -0.00590288
v 0.494621 -0.135493 0.0007023
v 0.493196 -0.132908 0.0007023
v 0.496423 -0.138807 -0.00590288
v 0.499543 -0.147314 -0.0176792
v 0.49212 -0.136487 -0.0291405
v 0.483621 -0.128864 -0.0620687
v 0.483702 -0.140509 -0.109815
v 0.484079 -0.141326 -0.110282
v 0.487871 -0.148264 -0.110282
v 0.488059 -0.148551 -0.109924
v 0.500215 -0.148551 -0.0176792
v 0.497176 -0.148551 -0.0407865
v 0.490237 -0.147314 -0.0883917
v 0.489995 -0.135515 -0.0412537
v 0.49091 -0.148551 -0.0883917
v 0.489619 -0.148551 -0.09818
f 1 2 5
f 1 5 13
f 1 13 22
f 1 22 39
f 1 39 52
f 1 52 33
f 1 33 18
f 1 18 9
f 1 9 3
f 1 3 11
f 1 11 20
f 1 20 36
f 1 36 54
f 1 54 56
f 1 56 70
f 1 70 69
f 1 69 80
f 1 80 95
f 1 95 94
f 1 94 107
f 1 107 115
f 1 115 124
f 1 124 125
f 1 125 116
f 1 116 108
f 1 108 98
f 1 98 97
f 1 97 84
f 1 84 81
f 1 81 71
f 1 71 57
f 1 57 38
f 1 38 21
f 1 21 12
f 1 12 4
f 1 4 6
f 1 6 2
f 2 6 7
f 2 7 8
f 2 8 5
f 3 9 10
f 3 10 11
f 4 12 15
f 4 15 6
f 5 8 14
f 5 14 13
f 6 15 16
f 6 16 17
f 6 17 14
f 6 14 8
f 6 8 7
f 9 18 34
f 9 34 53
f 9 53 58
f 9 58 60
f 9 60 59
f 9 59 67
f 9 67 78
f 9 78 92
f 9 92 90
f 9 90 105
f 9 105 104
f 9 104 103
f 9 103 112
f 9 112 121
f 9 121 119
f 9 119 131
f 9 131 132
f 9 132 122
f 9 122 113
f 9 113 106
f 9 106 93
f 9 93 79
f 9 79 68
f 9 68 55
f 9 55 37
f 9 37 35
f 9 35 19
f 9 19 10
f 10 19 20
f 10 20 11
f 12 21 29
f 12 29 15
f 13 14 17
f 13 17 16
f 13 16 23
f 13 23 24
f 13 24 22
f 15 25 26
f 15 26 32
f 15 32 27
f 15 27 28
f 15 28 16
f 15 29 30
f 15 30 31
f 15 31 25
f 16 28 27
f 16 27 32
f 16 32 23
f 18 33 34
f 19 35 20
f 20 35 37
f 20 37 36
f 21 38 44
f 21 44 29
f 22 24 34
f 22 34 39
f 23 32 40
f 23 40 24
f 24 40 34
f 25 41 42
f 25 42 43
f 25 43 26
f 25 31 41
f 26 43 32
f 29 31 30
f 29 44 45
f 29 45 31
f 31 46 47
f 31 47 48
f 31 48 41
f 31 45 49
f 31 49 50
f 31 50 46
f 32 43 42
f 32 42 48
f 32 48 51
f 32 51 40
f 33 52 34
f 34 40 53
f 34 52 39
f 36 37 54
f 37 55 56
f 37 56 54
f 38 57 62
f 38 62 44
f 40 58 53
f 40 51 59
f 40 59 60
f 40 60 58
f 41 48 42
f 44 61 49
f 44 49 45
f 44 62 61
f 46 50 47
f 47 51 48
f 47 50 63
f 47 63 64
f 47 64 65
f 47 65 51
f 49 61 50
f 50 61 66
f 50 66 63
f 51 65 67
f 51 67 59
f 55 68 69
f 55 69 70
f 55 70 56
f 57 71 62
f 61 72 66
f 61 62 72
f 62 71 73
f 62 73 74
f 62 74 72
f 63 66 64
f 64 66 65
f 65 66 75
f 65 75 72
f 65 72 76
f 65 76 67
f 66 72 75
f 67 76 74
f 67 74 77
f 67 77 78
f 68 79 69
f 69 79 80
f 71 81 73
f 72 74 76
f 73 82 83
f 73 83 74
f 73 81 84
f 73 84 85
f 73 85 86
f 73 86 82
f 74 83 87
f 74 87 77
f 77 87 88
f 77 88 89
f 77 89 90
f 77 90 91
f 77 91 78
f 78 91 92
f 79 93 94
f 79 94 95
f 79 95 80
f 82 96 87
f 82 87 83
f 82 86 96
f 84 97 85
f 85 97 98
f 85 98 108
f 85 108 99
f 85 99 100
f 85 100 86
f 86 100 101
f 86 101 102
f 86 102 103
f 86 103 96
f 87 96 88
f 88 96 104
f 88 104 89
f 89 104 105
f 89 105 90
f 90 92 91
f 93 106 107
f 93 107 94
f 96 103 104
f 99 108 116
f 99 116 109
f 99 109 100
f 100 110 111
f 100 111 102
f 100 102 101
f 100 109 110
f 102 111 103
f 103 111 112
f 106 113 114
f 106 114 107
f 107 114 113
f 107 113 122
f 107 122 133
f 107 133 139
f 107 139 138
f 107 138 135
f 107 135 134
f 107 134 123
f 107 123 115
f 109 116 125
f 109 125 117
f 109 117 118
f 109 118 110
f 110 119 111
f 110 118 120
f 110 120 119
f 111 121 112
f 111 119 121
f 115 123 124
f 117 125 124
f 117 124 126
f 117 126 127
f 117 127 118
f 118 127 128
f 118 128 120
f 119 120 129
f 119 129 130
f 119 130 131
f 120 128 129
f 122 132 133
f 123 134 127
f 123 127 126
f 123 126 124
f 127 134 135
f 127 135 136
f 127 136 130
f 127 130 137
f 127 137 128
f 128 137 129
f 129 137 130
f 130 136 132
f 130 132 131
f 132 136 138
f 132 138 139
f 132 139 133
f 135 138 136
