v -0.253178 -0.479543 -0.529773
v -0.254449 -0.479543 -0.529262
v -0.253178 -0.477314 -0.529637
v -0.253178 -0.479543 -0.431168
v -0.255387 -0.477314 -0.528734
v -0.253178 -0.46856 -0.529075
v -0.263517 -0.479543 -0.525513
v -0.277295 -0.479543 -0.410823
v -0.253178 -0.437466 -0.441903
v -0.253178 -0.457775 -0.528376
v -0.273668 -0.453746 -0.519635
v -0.265184 -0.44196 -0.522378
v -0.280463 -0.479543 -0.518493
v -0.324341 -0.479543 -0.375024
v -0.364404 -0.437466 -0.355719
v -0.253178 -0.437466 -0.526962
v -0.253178 -0.442216 -0.527354
v -0.253407 -0.44196 -0.527251
v -0.280484 -0.465528 -0.517573
v -0.278629 -0.44196 -0.516806
v -0.272751 -0.44196 -0.519243
v -0.272313 -0.437466 -0.519073
v -0.28755 -0.479543 -0.515443
v -0.281401 -0.477314 -0.517948
v -0.351501 -0.479543 -0.355719
v -0.462831 -0.437466 -0.355719
v -0.253178 -0.44196 -0.527337
v -0.268561 -0.437466 -0.520623
v -0.288759 -0.465528 -0.513995
v -0.288759 -0.44196 -0.512427
v -0.282506 -0.437466 -0.514728
v -0.277774 -0.437466 -0.516755
v -0.288759 -0.479543 -0.514915
v -0.466104 -0.479543 -0.355719
v -0.46206 -0.437466 -0.356741
v -0.463102 -0.440148 -0.355719
v -0.296847 -0.44196 -0.508287
v -0.296555 -0.437466 -0.508082
v -0.291552 -0.437466 -0.510638
v -0.288759 -0.437466 -0.512018
v -0.296722 -0.479543 -0.510638
v -0.466041 -0.478608 -0.355719
v -0.462539 -0.479543 -0.360387
v -0.457766 -0.44196 -0.362926
v -0.436713 -0.437466 -0.389797
v -0.463206 -0.441227 -0.355719
v -0.298014 -0.465528 -0.509088
v -0.304601 -0.479543 -0.505356
v -0.303329 -0.453746 -0.504385
v -0.302746 -0.44196 -0.503942
v -0.302454 -0.437466 -0.503703
v -0.298702 -0.479543 -0.509565
v -0.465624 -0.472976 -0.355719
v -0.4591 -0.477314 -0.364664
v -0.459183 -0.479543 -0.364767
v -0.443133 -0.479543 -0.385691
v -0.462727 -0.453746 -0.35761
v -0.462268 -0.44196 -0.357031
v -0.421997 -0.44196 -0.409528
v -0.432857 -0.453746 -0.396544
v -0.423498 -0.437466 -0.406989
v -0.463269 -0.44196 -0.355719
v -0.315086 -0.479543 -0.497314
v -0.317483 -0.465528 -0.494417
v -0.316316 -0.44196 -0.493531
v -0.329739 -0.43885 -0.482984
v -0.329635 -0.437466 -0.482916
v -0.465061 -0.465528 -0.355719
v -0.423414 -0.479543 -0.411386
v -0.421767 -0.437466 -0.409239
v -0.415868 -0.437466 -0.415884
v -0.416098 -0.44196 -0.416122
v -0.33174 -0.479543 -0.484534
v -0.331636 -0.477314 -0.484449
v -0.331053 -0.465528 -0.484006
v -0.410095 -0.453746 -0.422461
v -0.395941 -0.44196 -0.432429
v -0.389771 -0.437466 -0.43674
v -0.416994 -0.465528 -0.417008
v -0.417515 -0.479543 -0.417537
v -0.411804 -0.437466 -0.41953
v -0.409511 -0.44196 -0.422001
v -0.410678 -0.465528 -0.422904
v -0.411262 -0.477314 -0.423347
v -0.411366 -0.479543 -0.423432
v -0.416369 -0.479543 -0.418644
v -0.409219 -0.437466 -0.421779
f 1 2 3
f 1 3 6
f 1 6 10
f 1 10 17
f 1 17 27
f 1 27 16
f 1 16 9
f 1 9 4
f 1 4 8
f 1 8 14
f 1 14 25
f 1 25 34
f 1 34 43
f 1 43 55
f 1 55 56
f 1 56 69
f 1 69 80
f 1 80 86
f 1 86 85
f 1 85 73
f 1 73 63
f 1 63 48
f 1 48 52
f 1 52 41
f 1 41 33
f 1 33 23
f 1 23 13
f 1 13 7
f 1 7 2
f 2 5 6
f 2 6 3
f 2 7 5
f 4 9 8
f 5 10 6
f 5 7 11
f 5 11 12
f 5 12 10
f 7 13 11
f 8 9 15
f 8 15 14
f 9 16 28
f 9 28 22
f 9 22 32
f 9 32 31
f 9 31 40
f 9 40 39
f 9 39 38
f 9 38 51
f 9 51 67
f 9 67 78
f 9 78 87
f 9 87 81
f 9 81 71
f 9 71 70
f 9 70 61
f 9 61 45
f 9 45 35
f 9 35 26
f 9 26 15
f 10 12 18
f 10 18 17
f 11 13 19
f 11 19 20
f 11 20 21
f 11 21 12
f 12 21 22
f 12 22 18
f 13 23 24
f 13 24 19
f 14 15 25
f 15 26 36
f 15 36 46
f 15 46 62
f 15 62 68
f 15 68 53
f 15 53 42
f 15 42 34
f 15 34 25
f 16 27 18
f 16 18 28
f 17 18 27
f 18 22 28
f 19 24 23
f 19 23 29
f 19 29 30
f 19 30 20
f 20 30 31
f 20 31 32
f 20 32 22
f 20 22 21
f 23 33 29
f 26 35 36
f 29 33 37
f 29 37 30
f 30 37 38
f 30 38 39
f 30 39 40
f 30 40 31
f 33 41 37
f 34 42 43
f 35 44 36
f 35 45 44
f 36 44 46
f 37 41 47
f 37 47 48
f 37 48 49
f 37 49 50
f 37 50 38
f 38 50 51
f 41 52 47
f 42 53 43
f 43 54 55
f 43 53 54
f 44 56 54
f 44 54 57
f 44 57 58
f 44 58 46
f 44 45 59
f 44 59 60
f 44 60 56
f 45 61 59
f 46 58 62
f 47 52 48
f 48 63 49
f 49 63 64
f 49 64 50
f 50 64 75
f 50 75 65
f 50 65 66
f 50 66 51
f 51 66 67
f 53 68 57
f 53 57 54
f 54 56 55
f 56 60 69
f 57 68 62
f 57 62 58
f 59 61 70
f 59 70 71
f 59 71 72
f 59 72 69
f 59 69 60
f 63 73 74
f 63 74 64
f 64 74 75
f 65 75 76
f 65 76 77
f 65 77 66
f 66 77 78
f 66 78 67
f 69 72 79
f 69 79 80
f 71 81 72
f 72 81 82
f 72 82 76
f 72 76 83
f 72 83 84
f 72 84 85
f 72 85 86
f 72 86 79
f 73 85 84
f 73 84 74
f 74 84 83
f 74 83 75
f 75 83 76
f 76 82 77
f 77 82 78
f 78 82 87
f 79 86 80
f 81 87 82
