v -0.180521 -0.437437 -0.557069
v -0.18892 -0.437437 -0.553678
v -0.180521 -0.430953 -0.556491
v -0.180521 -0.437437 -0.472885
v -0.206253 -0.430164 -0.545767
v -0.181674 -0.430164 -0.555939
v -0.27229 -0.437437 -0.519064
v -0.271864 -0.432999 -0.51888
v -0.180521 -0.430164 -0.556412
v -0.180521 -0.185597 -0.390776
v -0.320692 -0.185597 -0.288588
v -0.320692 -0.437437 -0.39167
v -0.253379 -0.430164 -0.526239
v -0.26621 -0.429499 -0.520851
v -0.270835 -0.425135 -0.518459
v -0.185777 -0.41838 -0.552759
v -0.212593 -0.42299 -0.542298
v -0.277765 -0.437437 -0.516751
v -0.282486 -0.437437 -0.514727
v -0.276256 -0.429499 -0.516672
v -0.180521 -0.41838 -0.554914
v -0.180521 -0.185597 -0.48437
v -0.320692 -0.185597 -0.405074
v -0.320692 -0.437437 -0.489679
v -0.263795 -0.41838 -0.52043
v -0.237803 -0.41838 -0.531207
v -0.276956 -0.41838 -0.514964
v -0.269682 -0.41838 -0.517986
v -0.180521 -0.395451 -0.551628
v -0.180521 -0.416432 -0.554651
v -0.288744 -0.437437 -0.51202
v -0.288744 -0.430164 -0.511363
v -0.180521 -0.196519 -0.489706
v -0.183527 -0.185597 -0.483135
v -0.319539 -0.185597 -0.405968
v -0.320692 -0.197505 -0.411855
v -0.320692 -0.434429 -0.48939
v -0.318935 -0.437437 -0.491046
v -0.276956 -0.406595 -0.513281
v -0.267637 -0.406595 -0.517145
v -0.231641 -0.383026 -0.528657
v -0.289718 -0.417837 -0.509339
v -0.282692 -0.377553 -0.506711
v -0.18269 -0.383026 -0.548921
v -0.180521 -0.383026 -0.549815
v -0.22574 -0.383026 -0.531101
v -0.200626 -0.388154 -0.542245
v -0.205237 -0.383741 -0.539696
v -0.29153 -0.437437 -0.510627
v -0.296058 -0.430164 -0.507736
v -0.295262 -0.421412 -0.507184
v -0.180521 -0.205838 -0.494253
v -0.18339 -0.205838 -0.49307
v -0.185764 -0.185597 -0.482215
v -0.314146 -0.185597 -0.410121
v -0.320692 -0.201203 -0.413958
v -0.320692 -0.430164 -0.488943
v -0.301946 -0.430164 -0.503347
v -0.312362 -0.437437 -0.496092
v -0.294288 -0.413572 -0.506579
v -0.29319 -0.406595 -0.506001
v -0.288222 -0.382089 -0.504529
v -0.288744 -0.371241 -0.502032
v -0.283447 -0.328541 -0.49533
v -0.281073 -0.371241 -0.506027
v -0.275185 -0.371241 -0.508472
v -0.228965 -0.371808 -0.527763
v -0.22445 -0.376123 -0.530549
v -0.199254 -0.380289 -0.541667
v -0.180521 -0.374076 -0.548212
v -0.296539 -0.437437 -0.508077
v -0.302426 -0.437437 -0.503714
v -0.299723 -0.417837 -0.503215
v -0.300532 -0.406595 -0.500718
v -0.298735 -0.383026 -0.498116
v -0.320692 -0.420845 -0.487577
v -0.314393 -0.41838 -0.492045
v -0.180521 -0.20887 -0.495724
v -0.238187 -0.210054 -0.472438
v -0.236842 -0.185597 -0.461057
v -0.267445 -0.185597 -0.445918
v -0.314585 -0.206257 -0.421528
v -0.320692 -0.206923 -0.417191
v -0.291324 -0.39481 -0.505002
v -0.297115 -0.371241 -0.496881
v -0.295633 -0.36239 -0.495751
v -0.294261 -0.35455 -0.494726
v -0.292957 -0.347672 -0.493832
v -0.290748 -0.335887 -0.492281
v -0.28792 -0.324399 -0.491099
v -0.28132 -0.320701 -0.494305
v -0.277216 -0.324399 -0.496986
v -0.276956 -0.335887 -0.499825
v -0.272784 -0.362193 -0.507473
v -0.276956 -0.347672 -0.502479
v -0.276805 -0.358742 -0.505029
v -0.247587 -0.365176 -0.518591
v -0.222391 -0.368258 -0.529708
v -0.218302 -0.371808 -0.532179
v -0.180521 -0.371192 -0.547686
v -0.313103 -0.406595 -0.491072
v -0.306516 -0.400259 -0.495067
v -0.317769 -0.379106 -0.482872
v -0.320692 -0.41838 -0.487209
v -0.180521 -0.210818 -0.496644
v -0.187781 -0.212889 -0.494647
v -0.212977 -0.211434 -0.483529
v -0.246037 -0.21353 -0.470808
v -0.254243 -0.205369 -0.463475
v -0.258731 -0.200833 -0.459401
v -0.243882 -0.185597 -0.45814
v -0.242043 -0.185597 -0.458902
v -0.262121 -0.185597 -0.449729
v -0.270313 -0.213061 -0.459165
v -0.276736 -0.206972 -0.450938
v -0.296415 -0.209758 -0.437429
v -0.320692 -0.210177 -0.419004
v -0.283433 -0.21136 -0.448284
v -0.310688 -0.371241 -0.486473
v -0.320692 -0.371143 -0.478772
v -0.320692 -0.359457 -0.475749
v -0.299956 -0.358865 -0.491519
v -0.298776 -0.335887 -0.486368
v -0.296649 -0.324103 -0.484738
v -0.295235 -0.316929 -0.483661
v -0.289169 -0.312713 -0.486578
v -0.27347 -0.314981 -0.495987
v -0.248287 -0.31715 -0.507079
v -0.223078 -0.319591 -0.518196
v -0.285491 -0.300534 -0.48508
v -0.28368 -0.292866 -0.483792
v -0.281512 -0.285002 -0.482425
v -0.271205 -0.2709 -0.483266
v -0.229569 -0.323733 -0.516567
v -0.225465 -0.327431 -0.519195
v -0.258511 -0.3314 -0.506448
v -0.270643 -0.354329 -0.506606
v -0.180521 -0.335961 -0.539801
v -0.235456 -0.342248 -0.518459
v -0.187205 -0.356079 -0.541562
v -0.180521 -0.362045 -0.545662
v -0.320692 -0.406743 -0.485264
v -0.318633 -0.38697 -0.483529
v -0.320692 -0.381226 -0.48098
v -0.320692 -0.375827 -0.47985
v -0.180521 -0.217524 -0.499667
v -0.220841 -0.215083 -0.481926
v -0.25014 -0.221394 -0.472517
v -0.25379 -0.217696 -0.469389
v -0.26245 -0.208673 -0.46132
v -0.261407 -0.185597 -0.450123
v -0.254271 -0.185597 -0.453751
v -0.250373 -0.185597 -0.455406
v -0.265894 -0.2174 -0.463554
v -0.2696 -0.237247 -0.470729
v -0.273044 -0.220901 -0.46111
v -0.276969 -0.2174 -0.456353
v -0.317247 -0.213579 -0.423525
v -0.320692 -0.215749 -0.422001
v -0.320692 -0.350211 -0.473331
v -0.320692 -0.345996 -0.472227
v -0.313103 -0.335838 -0.475381
v -0.317563 -0.331869 -0.470913
v -0.30255 -0.324103 -0.480217
v -0.312211 -0.311233 -0.468574
v -0.313062 -0.300262 -0.463975
v -0.300395 -0.27726 -0.46542
v -0.292984 -0.274598 -0.470151
v -0.288071 -0.288872 -0.479035
v -0.320692 -0.324251 -0.46634
v -0.320692 -0.312244 -0.462424
v -0.268076 -0.300534 -0.493753
v -0.253091 -0.276964 -0.492676
v -0.229829 -0.276964 -0.502321
v -0.266032 -0.311554 -0.498011
v -0.214569 -0.312294 -0.519563
v -0.190032 -0.316263 -0.530944
v -0.18269 -0.324103 -0.536069
v -0.218714 -0.323733 -0.521061
v -0.288922 -0.277901 -0.474435
v -0.284558 -0.26518 -0.472727
v -0.279 -0.276964 -0.48098
v -0.275858 -0.266265 -0.478693
v -0.272564 -0.245111 -0.472359
v -0.267637 -0.263035 -0.481768
v -0.238187 -0.26836 -0.496014
v -0.212991 -0.270135 -0.507105
v -0.187795 -0.272132 -0.518223
v -0.246037 -0.273044 -0.494384
v -0.200269 -0.330168 -0.530287
v -0.180521 -0.352184 -0.543454
v -0.180521 -0.326667 -0.537593
v -0.180521 -0.220236 -0.500797
v -0.199748 -0.224575 -0.494726
v -0.191884 -0.220753 -0.496355
v -0.217369 -0.218633 -0.484896
v -0.25799 -0.22529 -0.470887
v -0.224944 -0.222948 -0.483608
v -0.265469 -0.229456 -0.469205
v -0.265469 -0.241364 -0.474146
v -0.276681 -0.241364 -0.467759
v -0.282857 -0.259263 -0.471413
v -0.276969 -0.23059 -0.462634
v -0.280894 -0.227188 -0.45814
v -0.293876 -0.225191 -0.447259
v -0.306845 -0.223268 -0.436377
v -0.319827 -0.221444 -0.425523
v -0.320692 -0.220655 -0.424445
v -0.320692 -0.334014 -0.469074
v -0.320692 -0.32859 -0.467575
v -0.319333 -0.30401 -0.460505
v -0.320692 -0.300262 -0.458113
v -0.320692 -0.276964 -0.449729
v -0.305953 -0.272058 -0.45927
v -0.180521 -0.276718 -0.522665
v -0.180521 -0.299745 -0.529787
v -0.182978 -0.312318 -0.532652
v -0.180521 -0.312318 -0.533651
v -0.180521 -0.314537 -0.534282
v -0.180521 -0.323906 -0.53691
v -0.318935 -0.26979 -0.448389
v -0.298144 -0.26518 -0.462319
v -0.264289 -0.254258 -0.479744
v -0.259774 -0.25877 -0.483398
v -0.234591 -0.260496 -0.494515
v -0.180521 -0.264292 -0.518354
v -0.180521 -0.267078 -0.519405
v -0.180521 -0.269124 -0.520115
v -0.180521 -0.229136 -0.504503
v -0.180521 -0.230048 -0.504871
v -0.206966 -0.229037 -0.493517
v -0.244417 -0.238948 -0.481926
v -0.241618 -0.253395 -0.488812
v -0.320692 -0.263479 -0.444262
v -0.316671 -0.261926 -0.446654
v -0.295839 -0.257291 -0.460558
v -0.293478 -0.249426 -0.458744
v -0.300066 -0.253371 -0.455511
v -0.319429 -0.245457 -0.437008
v -0.317069 -0.237617 -0.435195
v -0.320692 -0.230566 -0.42915
v -0.320692 -0.22349 -0.425812
v -0.320692 -0.268163 -0.446312
v -0.201532 -0.258055 -0.507263
v -0.180521 -0.253198 -0.514044
v -0.180521 -0.238332 -0.508156
v -0.320692 -0.253395 -0.439689
v -0.320692 -0.249672 -0.437981
f 1 2 3
f 1 3 9
f 1 9 21
f 1 21 30
f 1 30 29
f 1 29 45
f 1 45 70
f 1 70 100
f 1 100 141
f 1 141 191
f 1 191 138
f 1 138 192
f 1 192 220
f 1 220 219
f 1 219 218
f 1 218 216
f 1 216 215
f 1 215 228
f 1 228 227
f 1 227 226
f 1 226 245
f 1 245 246
f 1 246 230
f 1 230 229
f 1 229 193
f 1 193 146
f 1 146 105
f 1 105 78
f 1 78 52
f 1 52 33
f 1 33 22
f 1 22 10
f 1 10 4
f 1 4 12
f 1 12 24
f 1 24 38
f 1 38 59
f 1 59 72
f 1 72 71
f 1 71 49
f 1 49 31
f 1 31 19
f 1 19 18
f 1 18 7
f 1 7 2
f 2 5 6
f 2 6 3
f 2 7 8
f 2 8 5
f 3 6 9
f 4 10 11
f 4 11 12
f 5 8 13
f 5 13 14
f 5 14 15
f 5 15 6
f 6 16 9
f 6 15 17
f 6 17 16
f 7 18 8
f 8 18 19
f 8 19 20
f 8 20 15
f 8 15 14
f 8 14 13
f 9 16 21
f 10 22 34
f 10 34 54
f 10 54 80
f 10 80 112
f 10 112 111
f 10 111 153
f 10 153 152
f 10 152 151
f 10 151 113
f 10 113 81
f 10 81 55
f 10 55 35
f 10 35 23
f 10 23 11
f 11 23 36
f 11 36 56
f 11 56 83
f 11 83 117
f 11 117 159
f 11 159 208
f 11 208 242
f 11 242 241
f 11 241 248
f 11 248 247
f 11 247 234
f 11 234 243
f 11 243 213
f 11 213 212
f 11 212 171
f 11 171 170
f 11 170 210
f 11 210 209
f 11 209 161
f 11 161 160
f 11 160 121
f 11 121 120
f 11 120 145
f 11 145 144
f 11 144 142
f 11 142 104
f 11 104 76
f 11 76 57
f 11 57 37
f 11 37 24
f 11 24 12
f 15 25 26
f 15 26 17
f 15 20 27
f 15 27 28
f 15 28 25
f 16 29 30
f 16 30 21
f 16 17 26
f 16 26 29
f 19 31 32
f 19 32 20
f 20 32 27
f 22 33 34
f 23 35 36
f 24 37 38
f 25 28 39
f 25 39 40
f 25 40 26
f 26 41 29
f 26 40 41
f 27 32 42
f 27 42 43
f 27 43 39
f 27 39 28
f 29 44 45
f 29 41 46
f 29 46 47
f 29 47 48
f 29 48 44
f 31 49 50
f 31 50 32
f 32 50 51
f 32 51 42
f 33 52 53
f 33 53 54
f 33 54 34
f 35 55 36
f 36 55 56
f 37 57 58
f 37 58 38
f 38 58 59
f 39 43 40
f 40 43 41
f 41 43 46
f 42 51 60
f 42 60 43
f 43 60 61
f 43 61 62
f 43 62 63
f 43 63 64
f 43 64 65
f 43 65 66
f 43 66 67
f 43 67 68
f 43 68 69
f 43 69 46
f 44 48 69
f 44 69 45
f 45 69 70
f 46 69 48
f 46 48 47
f 49 71 50
f 50 71 72
f 50 72 58
f 50 58 51
f 51 73 74
f 51 74 75
f 51 75 60
f 51 58 76
f 51 76 77
f 51 77 73
f 52 78 53
f 53 78 79
f 53 79 54
f 54 79 80
f 55 81 82
f 55 82 56
f 56 82 83
f 57 76 58
f 58 72 59
f 60 75 61
f 61 75 84
f 61 84 62
f 62 84 75
f 62 75 85
f 62 85 63
f 63 85 86
f 63 86 64
f 64 86 87
f 64 87 88
f 64 88 89
f 64 89 90
f 64 90 91
f 64 91 92
f 64 92 93
f 64 93 65
f 65 94 66
f 65 93 95
f 65 95 96
f 65 96 94
f 66 94 97
f 66 97 67
f 67 97 98
f 67 98 99
f 67 99 68
f 68 99 100
f 68 100 69
f 69 100 70
f 73 77 101
f 73 101 74
f 74 101 102
f 74 102 75
f 75 102 103
f 75 103 85
f 76 104 77
f 77 104 101
f 78 105 106
f 78 106 107
f 78 107 79
f 79 107 108
f 79 108 109
f 79 109 110
f 79 110 111
f 79 111 112
f 79 112 80
f 81 113 114
f 81 114 115
f 81 115 82
f 82 116 117
f 82 117 83
f 82 115 118
f 82 118 116
f 85 103 119
f 85 119 86
f 86 119 120
f 86 120 121
f 86 121 122
f 86 122 123
f 86 123 87
f 87 123 88
f 88 123 89
f 89 123 124
f 89 124 90
f 90 124 125
f 90 125 126
f 90 126 91
f 91 127 128
f 91 128 129
f 91 129 92
f 91 126 130
f 91 130 131
f 91 131 132
f 91 132 133
f 91 133 127
f 92 129 134
f 92 134 135
f 92 135 136
f 92 136 93
f 93 137 95
f 93 136 138
f 93 138 139
f 93 139 137
f 94 96 137
f 94 137 97
f 95 137 96
f 97 140 141
f 97 141 98
f 97 137 140
f 98 141 100
f 98 100 99
f 101 104 142
f 101 142 143
f 101 143 102
f 102 143 103
f 103 143 144
f 103 144 145
f 103 145 120
f 103 120 119
f 105 146 106
f 106 146 147
f 106 147 108
f 106 108 107
f 108 147 148
f 108 148 149
f 108 149 109
f 109 149 110
f 110 149 150
f 110 150 114
f 110 114 113
f 110 113 151
f 110 151 152
f 110 152 153
f 110 153 111
f 114 150 154
f 114 154 155
f 114 155 156
f 114 156 157
f 114 157 118
f 114 118 115
f 116 158 117
f 116 118 158
f 117 158 159
f 118 157 158
f 121 160 122
f 122 160 161
f 122 161 162
f 122 162 123
f 123 162 163
f 123 163 124
f 124 163 164
f 124 164 125
f 125 165 166
f 125 166 167
f 125 167 168
f 125 168 169
f 125 169 131
f 125 131 126
f 125 164 170
f 125 170 171
f 125 171 165
f 126 131 130
f 127 172 173
f 127 173 174
f 127 174 175
f 127 175 176
f 127 176 177
f 127 177 128
f 127 133 172
f 128 177 129
f 129 177 178
f 129 178 179
f 129 179 134
f 131 169 180
f 131 180 132
f 132 180 181
f 132 181 182
f 132 182 133
f 133 182 183
f 133 183 184
f 133 184 155
f 133 155 185
f 133 185 186
f 133 186 187
f 133 187 188
f 133 188 189
f 133 189 173
f 133 173 172
f 134 179 135
f 135 179 178
f 135 178 190
f 135 190 136
f 136 190 138
f 137 139 138
f 137 138 191
f 137 191 140
f 138 190 192
f 140 191 141
f 142 144 143
f 146 193 194
f 146 194 195
f 146 195 196
f 146 196 147
f 147 196 148
f 148 197 149
f 148 196 195
f 148 195 198
f 148 198 197
f 149 197 150
f 150 197 199
f 150 199 155
f 150 155 154
f 155 199 197
f 155 197 200
f 155 200 185
f 155 184 156
f 156 201 202
f 156 202 203
f 156 203 204
f 156 204 205
f 156 205 206
f 156 206 207
f 156 207 157
f 156 184 201
f 157 207 159
f 157 159 158
f 159 207 208
f 161 209 163
f 161 163 162
f 163 209 210
f 163 210 170
f 163 170 164
f 165 171 166
f 166 171 211
f 166 211 212
f 166 212 213
f 166 213 167
f 167 213 168
f 168 181 180
f 168 180 169
f 168 213 214
f 168 214 181
f 171 212 211
f 173 189 174
f 174 189 188
f 174 188 215
f 174 215 216
f 174 216 176
f 174 176 175
f 176 216 217
f 176 217 177
f 177 217 218
f 177 218 219
f 177 219 220
f 177 220 178
f 178 220 192
f 178 192 190
f 181 202 184
f 181 184 182
f 181 214 221
f 181 221 222
f 181 222 202
f 182 184 183
f 184 202 201
f 185 200 223
f 185 223 224
f 185 224 225
f 185 225 186
f 186 225 226
f 186 226 227
f 186 227 187
f 187 227 188
f 188 227 228
f 188 228 215
f 193 229 194
f 194 229 230
f 194 230 231
f 194 231 197
f 194 197 198
f 194 198 195
f 197 232 233
f 197 233 223
f 197 223 200
f 197 231 232
f 202 222 234
f 202 234 235
f 202 235 236
f 202 236 237
f 202 237 204
f 202 204 203
f 204 237 238
f 204 238 239
f 204 239 205
f 205 239 240
f 205 240 241
f 205 241 206
f 206 241 207
f 207 241 242
f 207 242 208
f 213 243 221
f 213 221 214
f 216 218 217
f 221 243 234
f 221 234 222
f 223 233 224
f 224 233 244
f 224 244 225
f 225 244 226
f 226 244 245
f 230 246 231
f 231 246 233
f 231 233 232
f 233 246 245
f 233 245 244
f 234 247 235
f 235 247 236
f 236 247 248
f 236 248 238
f 236 238 237
f 238 248 239
f 239 248 241
f 239 241 240
