v 0.168426 -0.158053 0.379262
v 0.168426 -0.158053 0.475085
v -9.53963e-05 -0.158053 0.417628
v 0.168426 0.0222128 0.198407
v 0.168426 -0.146793 0.468503
v 0.168212 -0.158053 0.475179
v -9.53963e-05 -0.158053 0.506901
v -9.53963e-05 0.0240779 0.259732
v 0.168426 0.0288441 0.192481
v 0.165177 -0.129501 0.459707
v 0.14162 -0.153056 0.483289
v 0.15523 -0.158053 0.480575
v 0.168426 -0.126232 0.456432
v 0.0059091 -0.158053 0.506901
v -9.53963e-05 -0.155474 0.505529
v -9.53963e-05 0.0285908 0.2568
v 0.168426 0.038745 0.1888
v 0.132119 -0.127867 0.472434
v 0.135534 -0.145043 0.481074
v 0.135534 -0.150915 0.484443
v 0.136589 -0.158053 0.488061
v 0.1452 -0.158053 0.484692
v 0.168426 -0.12439 0.45534
v 0.0176871 -0.158053 0.505404
v 0.0059091 -0.155474 0.505529
v -9.53963e-05 -0.1473 0.501068
v -9.53963e-05 0.0412318 0.253431
v 0.168426 0.0412318 0.18827
v 0.151699 -0.118864 0.45899
v 0.13583 -0.12386 0.468503
v 0.135534 -0.11389 0.462327
v 0.129364 -0.106177 0.459551
v 0.123739 -0.120015 0.470125
v 0.123739 -0.125909 0.473494
v 0.123739 -0.142234 0.482727
v 0.135534 -0.158053 0.488467
v 0.168426 -0.117091 0.45088
v 0.0274197 -0.158053 0.504125
v 0.0176871 -0.1473 0.49954
v 0.0059091 -0.1473 0.501068
v -9.53963e-05 -0.138804 0.496421
v -9.53963e-05 0.0530207 0.254024
v 0.168426 0.0765987 0.190952
v -9.53963e-05 0.0590073 0.254367
v -9.53963e-05 0.0707963 0.255084
v -9.53963e-05 0.0771744 0.25549
v 0.143847 -0.116377 0.460612
v 0.135534 -0.107996 0.458272
v 0.124762 -0.110851 0.463887
v 0.13235 -0.0926377 0.448977
v 0.128605 -0.0712702 0.435627
v 0.1243 -0.0757601 0.440368
v 0.120753 -0.0692209 0.437155
v 0.116679 -0.0827138 0.447667
v 0.114815 -0.118564 0.470999
v 0.121512 -0.104519 0.460612
v 0.123739 -0.148106 0.485971
v 0.124069 -0.158053 0.491399
v 0.168426 -0.115064 0.449538
v 0.0530377 -0.158053 0.500756
v 0.0805858 -0.153655 0.494736
v 0.0059091 -0.138804 0.496421
v 0.0530377 -0.144445 0.493333
v 0.0655416 -0.134452 0.486221
v 0.0180006 -0.122755 0.486065
v -9.53963e-05 -0.135902 0.49483
v 0.168426 0.0771513 0.191046
v 0.168294 0.0771744 0.19114
v -9.53963e-05 0.0771744 0.334095
v 0.168426 -0.110367 0.446326
v 0.168426 -0.0891839 0.431634
v 0.135534 -0.079214 0.43834
v 0.168426 -0.0808257 0.425832
v 0.161646 -0.0726517 0.422869
v 0.153794 -0.0703952 0.424491
v 0.1243 -0.0650994 0.432445
v 0.111961 -0.061991 0.43363
v 0.111961 -0.0678855 0.438153
v 0.123739 -0.0568103 0.425957
v 0.11625 -0.0359723 0.411983
v 0.108398 -0.0344757 0.413168
v 0.112439 -0.077441 0.444704
v 0.100166 -0.0751385 0.444859
v 0.0883884 -0.0739411 0.44567
v 0.108827 -0.0819309 0.448197
v 0.0825653 -0.0942495 0.459645
v 0.111961 -0.0972658 0.457711
v 0.111961 -0.10316 0.461516
v 0.111318 -0.113015 0.467942
v 0.106963 -0.117666 0.471529
v 0.022141 -0.118173 0.483008
v 0.111318 -0.122985 0.4739
v 0.117669 -0.141452 0.483164
v 0.113017 -0.136156 0.480887
v 0.109816 -0.140507 0.483694
v 0.100166 -0.1473 0.488685
v 0.0059091 -0.132909 0.493177
v -9.53963e-05 -0.128396 0.490712
v 0.0883884 -0.132034 0.481885
v 0.0059091 -0.123745 0.488124
v 0.168426 0.0771744 0.191264
v 0.0059091 0.0771744 0.334095
v -9.53963e-05 -0.0272457 0.421278
v 0.168426 -0.0752996 0.421902
v 0.168327 -0.0805034 0.425645
v 0.168426 -0.0688525 0.417129
v 0.168426 -0.0669875 0.415663
v 0.168426 -0.0609548 0.410828
v 0.130403 -0.0585141 0.424584
v 0.163461 -0.0596884 0.411858
v 0.103911 -0.047508 0.423992
v 0.100166 -0.0667572 0.438964
v 0.0648323 -0.0715695 0.44723
v 0.0766103 -0.0727438 0.44645
v 0.100166 -0.0608627 0.434566
v 0.123739 -0.0436628 0.415289
v 0.147312 -0.0496724 0.410423
v 0.123739 -0.0377913 0.410517
v 0.122683 -0.029341 0.403873
v 0.118048 -0.0234926 0.400784
v 0.111961 -0.0222492 0.401876
v 0.112175 -0.0301239 0.408395
v 0.100166 -0.0206144 0.403311
v 0.100166 -0.0276371 0.409206
v 0.100166 -0.0335316 0.413885
v 0.0766103 -0.0786383 0.450318
v 0.0412597 -0.0841644 0.458553
v 0.0176871 -0.088378 0.464386
v 0.0484354 -0.105785 0.471592
v 0.100166 -0.116953 0.471966
v 0.014289 -0.117321 0.483507
v -9.53963e-05 -0.123745 0.488124
v 0.0059091 -0.116492 0.484037
v -9.53963e-05 -0.120176 0.486127
v 0.168426 0.0771744 0.288148
v 0.018248 0.0771744 0.332473
v 0.0059091 -0.0272457 0.421278
v 0.0412597 -0.0228939 0.413074
v 0.0560565 -0.0240452 0.412107
v -9.53963e-05 -0.030239 0.42368
v 0.168426 -0.0530341 0.404403
v 0.15909 -0.0454127 0.402095
v 0.0883884 -0.0402781 0.420561
v 0.0176871 -0.0477843 0.435564
v 0.0412597 -0.0557281 0.438465
v 0.0648323 -0.0648001 0.442208
v 0.057904 -0.0709018 0.447698
v 0.0059091 -0.0805724 0.460861
v 0.0648323 -0.077464 0.451098
v 0.146388 -0.04113 0.403873
v 0.141851 -0.0351434 0.400878
v 0.135534 -0.0335777 0.402188
v 0.1259 -0.0253346 0.399162
v 0.151089 -0.0245517 0.388027
v 0.147312 0.0771744 0.298317
v 0.112621 0.0771744 0.312697
v 0.0967023 0.0771744 0.319247
v 0.0888667 0.0771744 0.321992
v 0.0883884 0.0771744 0.322148
v 0.0771877 0.0771744 0.324644
v 0.0766103 0.0771744 0.324768
v 0.0883884 -0.026647 0.409986
v 0.0883884 -0.0325415 0.414665
v 0.0176871 -0.0341303 0.425208
v 0.0263804 -0.0348901 0.424647
v 0.024005 -0.0823915 0.459676
v 0.0059091 -0.088378 0.465914
v 0.0059091 -0.110598 0.480263
v -9.53963e-05 -0.116492 0.484037
v 0.160525 0.0771744 0.292734
v 0.168426 -0.022065 0.378544
v 0.0059091 -0.0331402 0.425957
v 0.0176871 -0.0282358 0.420529
v -9.53963e-05 -0.0331402 0.425957
v 0.168426 -0.0376301 0.391895
v 0.167057 -0.0343145 0.389774
v 0.0176871 -0.0412451 0.430605
v 0.00673388 -0.042074 0.432663
v 0.0059091 -0.0604713 0.446669
v 0.0176871 -0.0614844 0.445889
v 0.050052 -0.070188 0.448197
v 0.0059091 -0.0746779 0.456962
v -9.53963e-05 -0.0805724 0.460861
v 0.168426 -0.0299166 0.385438
v 0.15909 -0.0264859 0.386374
v 0.154619 0.0771744 0.29526
v 0.0766103 -0.0315745 0.415445
v -9.53963e-05 -0.088378 0.465914
v -9.53963e-05 -0.110598 0.480263
v 0.154916 0.0771744 0.295135
v 0.168426 -0.028397 0.384128
v 0.00335223 -0.046564 0.436469
v -9.53963e-05 -0.046564 0.436469
v 0.168426 -0.0327718 0.387871
v 0.0059091 -0.0663658 0.451067
v -9.53963e-05 -0.0746779 0.456962
v -9.53963e-05 -0.0663658 0.451067
f 1 2 6
f 1 6 12
f 1 12 22
f 1 22 21
f 1 21 36
f 1 36 58
f 1 58 60
f 1 60 38
f 1 38 24
f 1 24 14
f 1 14 7
f 1 7 3
f 1 3 4
f 1 4 9
f 1 9 17
f 1 17 28
f 1 28 43
f 1 43 67
f 1 67 101
f 1 101 135
f 1 135 171
f 1 171 191
f 1 191 184
f 1 184 194
f 1 194 175
f 1 175 141
f 1 141 108
f 1 108 107
f 1 107 106
f 1 106 104
f 1 104 73
f 1 73 71
f 1 71 70
f 1 70 59
f 1 59 37
f 1 37 23
f 1 23 13
f 1 13 5
f 1 5 2
f 2 5 6
f 3 7 15
f 3 15 26
f 3 26 41
f 3 41 66
f 3 66 98
f 3 98 132
f 3 132 134
f 3 134 169
f 3 169 189
f 3 189 188
f 3 188 183
f 3 183 196
f 3 196 197
f 3 197 193
f 3 193 174
f 3 174 140
f 3 140 103
f 3 103 69
f 3 69 46
f 3 46 45
f 3 45 44
f 3 44 42
f 3 42 27
f 3 27 16
f 3 16 8
f 3 8 9
f 3 9 4
f 5 10 11
f 5 11 12
f 5 12 6
f 5 13 10
f 7 14 25
f 7 25 15
f 8 16 9
f 9 16 17
f 10 18 11
f 10 13 18
f 11 19 20
f 11 20 21
f 11 21 22
f 11 22 12
f 11 18 19
f 13 23 18
f 14 24 25
f 15 25 40
f 15 40 26
f 16 27 17
f 17 27 28
f 18 23 29
f 18 29 30
f 18 30 31
f 18 31 32
f 18 32 33
f 18 33 34
f 18 34 35
f 18 35 36
f 18 36 20
f 18 20 19
f 20 36 21
f 23 37 29
f 24 38 39
f 24 39 25
f 25 39 40
f 26 40 62
f 26 62 41
f 27 42 28
f 28 42 44
f 28 44 45
f 28 45 46
f 28 46 43
f 29 47 30
f 29 37 47
f 30 47 31
f 31 47 48
f 31 48 32
f 32 49 33
f 32 48 50
f 32 50 51
f 32 51 52
f 32 52 53
f 32 53 54
f 32 54 49
f 33 55 34
f 33 49 56
f 33 56 54
f 33 54 55
f 34 55 35
f 35 57 58
f 35 58 36
f 35 55 57
f 37 59 47
f 38 60 61
f 38 61 39
f 39 62 40
f 39 61 63
f 39 63 64
f 39 64 65
f 39 65 62
f 41 62 66
f 43 46 67
f 46 68 67
f 46 69 102
f 46 102 136
f 46 136 161
f 46 161 160
f 46 160 159
f 46 159 158
f 46 158 157
f 46 157 156
f 46 156 155
f 46 155 186
f 46 186 190
f 46 190 170
f 46 170 135
f 46 135 101
f 46 101 68
f 47 59 70
f 47 70 48
f 48 70 50
f 49 54 56
f 50 70 71
f 50 71 72
f 50 72 51
f 51 73 74
f 51 74 75
f 51 75 76
f 51 76 53
f 51 53 52
f 51 72 73
f 53 77 78
f 53 78 54
f 53 76 79
f 53 79 80
f 53 80 81
f 53 81 77
f 54 78 82
f 54 82 83
f 54 83 84
f 54 84 85
f 54 85 86
f 54 86 87
f 54 87 88
f 54 88 55
f 55 88 89
f 55 89 90
f 55 90 91
f 55 91 92
f 55 92 58
f 55 58 57
f 58 92 93
f 58 93 94
f 58 94 95
f 58 95 96
f 58 96 61
f 58 61 60
f 61 96 63
f 62 97 98
f 62 98 66
f 62 65 97
f 63 96 64
f 64 96 99
f 64 99 91
f 64 91 65
f 65 91 100
f 65 100 97
f 67 68 101
f 69 103 137
f 69 137 102
f 71 73 72
f 73 104 105
f 73 105 74
f 74 104 106
f 74 106 75
f 74 105 104
f 75 106 107
f 75 107 108
f 75 108 76
f 76 109 79
f 76 108 110
f 76 110 109
f 77 111 78
f 77 81 111
f 78 112 113
f 78 113 114
f 78 114 84
f 78 84 83
f 78 83 82
f 78 111 115
f 78 115 112
f 79 116 80
f 79 109 117
f 79 117 116
f 80 118 119
f 80 119 120
f 80 120 121
f 80 121 122
f 80 122 81
f 80 116 118
f 81 122 121
f 81 121 123
f 81 123 124
f 81 124 125
f 81 125 111
f 84 114 85
f 85 114 126
f 85 126 86
f 86 127 128
f 86 128 129
f 86 129 88
f 86 88 87
f 86 126 127
f 88 129 130
f 88 130 90
f 88 90 89
f 90 130 131
f 90 131 91
f 91 131 100
f 91 99 92
f 92 94 93
f 92 99 95
f 92 95 94
f 95 99 96
f 97 100 98
f 98 100 132
f 100 131 133
f 100 133 134
f 100 134 132
f 102 137 138
f 102 138 139
f 102 139 136
f 103 140 137
f 108 141 142
f 108 142 110
f 109 110 117
f 110 142 117
f 111 125 143
f 111 143 144
f 111 144 145
f 111 145 146
f 111 146 115
f 112 147 113
f 112 115 147
f 113 147 148
f 113 148 149
f 113 149 126
f 113 126 114
f 115 146 147
f 116 117 150
f 116 150 118
f 117 142 150
f 118 150 151
f 118 151 152
f 118 152 119
f 119 152 153
f 119 153 120
f 120 153 154
f 120 154 155
f 120 155 156
f 120 156 157
f 120 157 121
f 121 157 158
f 121 158 159
f 121 159 123
f 123 159 160
f 123 160 161
f 123 161 124
f 124 162 163
f 124 163 125
f 124 161 162
f 125 163 164
f 125 164 165
f 125 165 143
f 126 149 166
f 126 166 127
f 127 166 128
f 128 166 148
f 128 148 167
f 128 167 168
f 128 168 131
f 128 131 129
f 129 131 130
f 131 168 133
f 133 169 134
f 133 168 189
f 133 189 169
f 135 170 171
f 136 139 161
f 137 140 172
f 137 172 164
f 137 164 173
f 137 173 162
f 137 162 139
f 137 139 138
f 139 162 161
f 140 174 172
f 141 175 176
f 141 176 142
f 142 176 150
f 143 165 144
f 144 165 177
f 144 177 178
f 144 178 179
f 144 179 145
f 145 179 180
f 145 180 146
f 146 180 181
f 146 181 147
f 147 181 182
f 147 182 148
f 148 183 188
f 148 188 167
f 148 166 149
f 148 182 196
f 148 196 183
f 150 176 151
f 151 176 152
f 152 176 153
f 153 176 184
f 153 184 185
f 153 185 154
f 154 185 171
f 154 171 155
f 155 171 186
f 162 173 187
f 162 187 163
f 163 187 164
f 164 172 178
f 164 178 177
f 164 177 165
f 164 187 173
f 167 188 189
f 167 189 168
f 170 190 171
f 171 185 191
f 171 190 186
f 172 174 193
f 172 193 192
f 172 192 178
f 175 194 176
f 176 194 184
f 178 192 179
f 179 192 195
f 179 195 181
f 179 181 180
f 181 195 182
f 182 195 197
f 182 197 196
f 184 191 185
f 192 193 197
f 192 197 195
