v -0.132934 0.077153 0.217706
v -0.132899 0.0770246 0.217706
v -0.220804 0.077046 0.12813
v -0.220838 0.077153 0.12813
v -0.251346 0.077153 0.217706
v -0.132831 0.0765966 0.217706
v -0.220735 0.0765966 0.12813
v -0.304985 0.077153 0.12813
v -0.251553 0.077153 0.217461
v -0.358658 -0.0256261 0.217706
v -0.132417 0.073237 0.217706
v -0.219804 0.0648058 0.12813
v -0.130935 0.0605046 0.217706
v -0.129556 0.0484356 0.217706
v -0.128866 0.0413526 0.217706
v -0.306191 0.0771102 0.12813
v -0.305984 0.077153 0.128612
v -0.257482 0.077153 0.209753
v -0.356038 -0.0213249 0.215356
v -0.363208 -0.0302055 0.217706
v -0.218942 0.053015 0.12813
v -0.129831 0.0379929 0.217706
v -0.220562 0.0311667 0.12813
v -0.218184 0.0413526 0.12813
v -0.397336 -0.0243636 0.12813
v -0.305881 0.077153 0.128875
v -0.267617 0.077153 0.196555
v -0.363863 -0.0249841 0.209288
v -0.367483 -0.0328375 0.21533
v -0.272202 0.077153 0.190583
v -0.278889 0.077153 0.181858
v -0.279269 0.077153 0.181358
v -0.286094 0.077153 0.171958
v -0.370344 -0.0378877 0.217706
v -0.135313 0.0288342 0.217706
v -0.222941 0.0275288 0.12813
v -0.39868 -0.0258829 0.12813
v -0.388028 -0.0245562 0.151105
v -0.298332 0.077153 0.147325
v -0.302951 0.077153 0.13611
v -0.365794 -0.0230796 0.201431
v -0.369207 -0.0291355 0.20571
v -0.375722 -0.0370317 0.206245
v -0.378583 -0.0453345 0.214821
v -0.286197 0.077153 0.1718
v -0.292747 0.077153 0.160532
v -0.382478 -0.0517542 0.217706
v -0.13545 0.0286844 0.217706
v -0.225113 0.0251536 0.12813
v -0.399852 -0.027231 0.12813
v -0.375618 -0.0253051 0.182674
v -0.376928 -0.0238072 0.176299
v -0.295264 0.077153 0.154639
v -0.373895 -0.0295421 0.195494
v -0.377032 -0.0354696 0.200107
v -0.392889 -0.0640372 0.217706
v -0.141035 0.0237412 0.217706
v -0.384788 -0.141416 0.12813
v -0.403162 -0.031147 0.12813
v -0.402196 -0.0335437 0.13554
v -0.391407 -0.0323454 0.159111
v -0.378652 -0.0335009 0.192249
v -0.389752 -0.0342927 0.167065
v -0.400887 -0.0351272 0.141862
v -0.402093 -0.0454201 0.159111
v -0.400749 -0.0588586 0.188663
v -0.40068 -0.070735 0.212068
v -0.399473 -0.0724042 0.217706
v -0.342835 -0.141416 0.217706
v -0.481034 -0.141416 0.12813
v -0.407402 -0.0361972 0.12813
v -0.41209 -0.0419321 0.12813
v -0.4144 -0.0447781 0.12813
v -0.418261 -0.0531665 0.135242
v -0.41178 -0.0716766 0.186865
v -0.438323 -0.079209 0.13554
v -0.403851 -0.0785885 0.217706
v -0.427534 -0.0609771 0.12813
v -0.4245 -0.0703927 0.153806
v -0.435635 -0.0712914 0.128621
v -0.444942 -0.141416 0.217706
v -0.478897 -0.141416 0.135654
v -0.472416 -0.12787 0.132129
v -0.475519 -0.131529 0.12813
v -0.433463 -0.0862493 0.159111
v -0.425638 -0.080493 0.168336
v -0.448975 -0.0926475 0.132365
v -0.412917 -0.0818839 0.201378
v -0.41864 -0.0999018 0.217706
v -0.430705 -0.0649145 0.12813
v -0.435255 -0.0705853 0.12813
v -0.436152 -0.0717836 0.12813
v -0.459558 -0.106172 0.129384
v -0.439358 -0.131915 0.217706
v -0.450251 -0.141416 0.204903
v -0.474209 -0.141416 0.147062
v -0.472761 -0.139126 0.147325
v -0.475036 -0.134953 0.135847
v -0.468487 -0.123869 0.135847
v -0.462316 -0.113875 0.13554
v -0.471313 -0.124125 0.12813
v -0.472933 -0.126929 0.12813
v -0.459696 -0.129497 0.165179
v -0.447907 -0.117748 0.17693
v -0.459007 -0.118883 0.151719
v -0.443701 -0.100822 0.158795
v -0.458283 -0.107991 0.13554
v -0.44508 -0.110045 0.170897
v -0.42188 -0.0977191 0.206245
v -0.423569 -0.107028 0.217706
v -0.447769 -0.0885818 0.12813
v -0.46073 -0.107434 0.12813
v -0.458834 -0.10461 0.12813
v -0.435152 -0.12481 0.217706
v -0.437462 -0.127207 0.215575
v -0.448596 -0.128362 0.190373
v -0.464591 -0.141416 0.170283
v -0.460592 -0.116379 0.143862
v -0.435152 -0.119353 0.209954
v -0.436772 -0.116786 0.202097
v -0.432153 -0.112484 0.206113
v -0.427085 -0.111907 0.217312
v -0.427016 -0.112056 0.217706
v -0.434014 -0.122906 0.217706
f 1 2 3
f 1 3 4
f 1 4 8
f 1 8 17
f 1 17 26
f 1 26 40
f 1 40 39
f 1 39 53
f 1 53 46
f 1 46 45
f 1 45 33
f 1 33 32
f 1 32 31
f 1 31 30
f 1 30 27
f 1 27 18
f 1 18 9
f 1 9 5
f 1 5 10
f 1 10 20
f 1 20 34
f 1 34 47
f 1 47 56
f 1 56 68
f 1 68 77
f 1 77 89
f 1 89 110
f 1 110 123
f 1 123 124
f 1 124 114
f 1 114 94
f 1 94 81
f 1 81 69
f 1 69 57
f 1 57 48
f 1 48 35
f 1 35 22
f 1 22 15
f 1 15 14
f 1 14 13
f 1 13 11
f 1 11 6
f 1 6 2
f 2 6 3
f 3 7 12
f 3 12 21
f 3 21 24
f 3 24 23
f 3 23 36
f 3 36 49
f 3 49 58
f 3 58 70
f 3 70 84
f 3 84 102
f 3 102 101
f 3 101 112
f 3 112 113
f 3 113 111
f 3 111 92
f 3 92 91
f 3 91 90
f 3 90 78
f 3 78 73
f 3 73 72
f 3 72 71
f 3 71 59
f 3 59 50
f 3 50 37
f 3 37 25
f 3 25 16
f 3 16 8
f 3 8 4
f 3 6 7
f 5 9 10
f 6 11 7
f 7 11 13
f 7 13 14
f 7 14 15
f 7 15 12
f 8 16 17
f 9 18 19
f 9 19 10
f 10 19 20
f 12 15 21
f 15 22 23
f 15 23 24
f 15 24 21
f 16 25 17
f 17 25 26
f 18 27 19
f 19 28 29
f 19 29 20
f 19 27 30
f 19 30 31
f 19 31 32
f 19 32 33
f 19 33 28
f 20 29 34
f 22 35 23
f 23 35 36
f 25 37 38
f 25 38 39
f 25 39 40
f 25 40 26
f 28 41 42
f 28 42 43
f 28 43 44
f 28 44 29
f 28 33 45
f 28 45 46
f 28 46 41
f 29 44 47
f 29 47 34
f 35 48 49
f 35 49 36
f 37 50 38
f 38 50 51
f 38 51 52
f 38 52 39
f 39 52 51
f 39 51 41
f 39 41 53
f 41 51 54
f 41 54 42
f 41 46 53
f 42 54 55
f 42 55 43
f 43 55 56
f 43 56 44
f 44 56 47
f 48 57 58
f 48 58 49
f 50 59 60
f 50 60 51
f 51 60 61
f 51 61 62
f 51 62 54
f 54 62 55
f 55 62 63
f 55 63 64
f 55 64 65
f 55 65 66
f 55 66 67
f 55 67 56
f 56 67 68
f 57 69 58
f 58 69 81
f 58 81 95
f 58 95 117
f 58 117 96
f 58 96 82
f 58 82 70
f 59 71 60
f 60 71 72
f 60 72 64
f 60 64 63
f 60 63 62
f 60 62 61
f 64 72 73
f 64 73 74
f 64 74 65
f 65 74 66
f 66 74 67
f 67 75 76
f 67 76 77
f 67 77 68
f 67 74 78
f 67 78 79
f 67 79 80
f 67 80 75
f 70 82 83
f 70 83 84
f 73 78 74
f 75 80 76
f 76 85 86
f 76 86 77
f 76 80 87
f 76 87 85
f 77 88 89
f 77 86 88
f 78 90 79
f 79 90 80
f 80 90 91
f 80 91 92
f 80 92 93
f 80 93 87
f 81 94 95
f 82 96 97
f 82 97 98
f 82 98 83
f 83 99 100
f 83 100 93
f 83 93 101
f 83 101 102
f 83 102 84
f 83 98 97
f 83 97 103
f 83 103 104
f 83 104 105
f 83 105 99
f 85 87 106
f 85 106 88
f 85 88 86
f 87 93 107
f 87 107 108
f 87 108 106
f 88 109 89
f 88 106 108
f 88 108 109
f 89 109 108
f 89 108 104
f 89 104 110
f 92 111 93
f 93 112 101
f 93 100 107
f 93 111 113
f 93 113 112
f 94 114 115
f 94 115 104
f 94 104 116
f 94 116 95
f 95 116 97
f 95 97 117
f 96 117 97
f 97 116 103
f 99 118 100
f 99 105 118
f 100 118 104
f 100 104 107
f 103 116 104
f 104 118 105
f 104 115 119
f 104 119 120
f 104 120 121
f 104 121 110
f 104 108 107
f 110 121 122
f 110 122 123
f 114 119 115
f 114 124 119
f 119 124 123
f 119 123 122
f 119 122 120
f 120 122 121
