v 0.226762 0.0771744 -0.116306
v 0.311154 0.0771744 -0.116306
v 0.255494 0.0771744 9.08653e-05
v 0.256031 0.0828885 9.08653e-05
v 0.256569 0.0883996 9.08653e-05
v 0.227922 0.0883996 -0.116306
v 0.312959 0.0771744 -0.111953
v 0.430811 0.373497 -0.116306
v 0.334084 0.0771744 9.08653e-05
v 0.261297 0.123758 9.08653e-05
v 0.228825 0.0948389 -0.116306
v 0.319256 0.0771744 -0.0967088
v 0.331097 0.373497 -0.116306
v 0.43122 0.373497 -0.114984
v 0.322135 0.0771744 -0.0883915
v 0.334084 0.0771744 -0.00590214
v 0.446306 0.373497 -0.00284867
v 0.446284 0.373468 9.08653e-05
v 0.263209 0.135563 9.08653e-05
v 0.233058 0.123758 -0.116306
v 0.232629 0.120886 -0.116306
v 0.230651 0.107601 -0.116306
v 0.229598 0.100292 -0.116306
v 0.328002 0.368798 -0.116306
v 0.35263 0.373497 9.08653e-05
v 0.432058 0.373497 -0.111953
v 0.324779 0.0771744 -0.0765992
v 0.334019 0.0771744 -0.00647182
v 0.446306 0.373497 -0.00590214
v 0.446284 0.373497 9.08653e-05
v 0.264391 0.141538 9.08653e-05
v 0.235078 0.13536 -0.116306
v 0.325703 0.365144 -0.116306
v 0.352372 0.373091 9.08653e-05
v 0.433412 0.373497 -0.103636
v 0.332472 0.0771744 -0.0182528
v 0.433648 0.373497 -0.102178
v 0.442824 0.373497 -0.0326998
v 0.444565 0.373497 -0.0194491
v 0.445016 0.373497 -0.015974
v 0.265552 0.147339 9.08653e-05
v 0.235143 0.135679 -0.116306
v 0.350588 0.370191 9.08653e-05
v 0.322178 0.359255 -0.116306
v 0.270322 0.170747 9.08653e-05
v 0.236647 0.143017 -0.116306
v 0.319728 0.355108 -0.116306
v 0.305717 0.331236 -0.116306
v 0.344163 0.358762 9.08653e-05
v 0.272815 0.181624 9.08653e-05
v 0.242965 0.171095 -0.116306
v 0.2377 0.147716 -0.116306
v 0.329163 0.331526 9.08653e-05
v 0.332386 0.337414 9.08653e-05
v 0.301784 0.323984 -0.116306
v 0.276383 0.194474 9.08653e-05
v 0.246877 0.186468 -0.116306
v 0.245845 0.182697 -0.116306
v 0.245415 0.181015 -0.116306
v 0.299785 0.320127 -0.116306
v 0.296648 0.313977 -0.116306
v 0.327314 0.327871 9.08653e-05
v 0.247951 0.190326 -0.116306
v 0.27808 0.200449 9.08653e-05
v 0.293811 0.308176 -0.116306
v 0.325423 0.3241 9.08653e-05
v 0.28096 0.210514 9.08653e-05
v 0.283861 0.220521 9.08653e-05
v 0.286719 0.229803 9.08653e-05
v 0.24952 0.195402 -0.116306
v 0.285022 0.290164 -0.116306
v 0.282164 0.284305 -0.116306
v 0.32293 0.318908 9.08653e-05
v 0.290781 0.241579 9.08653e-05
v 0.260953 0.231572 -0.116306
v 0.258954 0.225742 -0.116306
v 0.258696 0.224988 -0.116306
v 0.256332 0.217417 -0.116306
v 0.255107 0.213472 -0.116306
v 0.308704 0.28793 9.08653e-05
v 0.316054 0.304144 9.08653e-05
v 0.317665 0.307654 9.08653e-05
v 0.318998 0.310555 9.08653e-05
v 0.320373 0.313542 9.08653e-05
v 0.278725 0.276502 -0.116306
v 0.292307 0.245756 9.08653e-05
v 0.299506 0.265161 9.08653e-05
v 0.262973 0.236996 -0.116306
v 0.304363 0.277778 9.08653e-05
v 0.277092 0.272557 -0.116306
v 0.264971 0.242246 -0.116306
v 0.27404 0.265161 -0.116306
v 0.27043 0.256053 -0.116306
f 1 2 7
f 1 7 12
f 1 12 15
f 1 15 27
f 1 27 36
f 1 36 28
f 1 28 16
f 1 16 9
f 1 9 3
f 1 3 4
f 1 4 5
f 1 5 6
f 1 6 11
f 1 11 23
f 1 23 22
f 1 22 21
f 1 21 20
f 1 20 32
f 1 32 42
f 1 42 46
f 1 46 52
f 1 52 51
f 1 51 59
f 1 59 58
f 1 58 57
f 1 57 63
f 1 63 70
f 1 70 79
f 1 79 78
f 1 78 77
f 1 77 76
f 1 76 75
f 1 75 88
f 1 88 91
f 1 91 93
f 1 93 92
f 1 92 90
f 1 90 85
f 1 85 72
f 1 72 71
f 1 71 65
f 1 65 61
f 1 61 60
f 1 60 55
f 1 55 48
f 1 48 47
f 1 47 44
f 1 44 33
f 1 33 24
f 1 24 13
f 1 13 8
f 1 8 2
f 2 8 7
f 3 9 18
f 3 18 30
f 3 30 25
f 3 25 34
f 3 34 43
f 3 43 49
f 3 49 54
f 3 54 53
f 3 53 62
f 3 62 66
f 3 66 73
f 3 73 84
f 3 84 83
f 3 83 82
f 3 82 81
f 3 81 80
f 3 80 89
f 3 89 87
f 3 87 86
f 3 86 74
f 3 74 69
f 3 69 68
f 3 68 67
f 3 67 64
f 3 64 56
f 3 56 50
f 3 50 45
f 3 45 41
f 3 41 31
f 3 31 19
f 3 19 10
f 3 10 5
f 3 5 4
f 5 10 6
f 6 10 11
f 7 8 12
f 8 13 25
f 8 25 30
f 8 30 17
f 8 17 29
f 8 29 40
f 8 40 39
f 8 39 38
f 8 38 37
f 8 37 35
f 8 35 26
f 8 26 14
f 8 14 15
f 8 15 12
f 9 16 29
f 9 29 17
f 9 17 18
f 10 19 20
f 10 20 21
f 10 21 22
f 10 22 23
f 10 23 11
f 13 24 25
f 14 26 15
f 15 26 27
f 16 28 29
f 17 30 18
f 19 31 32
f 19 32 20
f 24 33 34
f 24 34 25
f 26 35 27
f 27 35 37
f 27 37 38
f 27 38 36
f 28 36 39
f 28 39 40
f 28 40 29
f 31 41 32
f 32 41 42
f 33 43 34
f 33 44 43
f 36 38 39
f 41 45 42
f 42 45 46
f 43 44 47
f 43 47 48
f 43 48 49
f 45 50 51
f 45 51 52
f 45 52 46
f 48 53 54
f 48 54 49
f 48 55 53
f 50 56 57
f 50 57 58
f 50 58 59
f 50 59 51
f 53 55 60
f 53 60 61
f 53 61 62
f 56 63 57
f 56 64 63
f 61 65 66
f 61 66 62
f 63 64 67
f 63 67 68
f 63 68 69
f 63 69 70
f 65 71 66
f 66 71 72
f 66 72 73
f 69 74 75
f 69 75 76
f 69 76 77
f 69 77 78
f 69 78 79
f 69 79 70
f 72 80 81
f 72 81 82
f 72 82 83
f 72 83 84
f 72 84 73
f 72 85 80
f 74 86 75
f 75 86 87
f 75 87 88
f 80 85 89
f 85 90 89
f 87 89 91
f 87 91 88
f 89 90 92
f 89 92 93
f 89 93 91
