v -0.00589319 -0.185597 -0.520252
v -9.5405e-05 -0.182227 -0.518719
v -9.5405e-05 -0.185597 -0.520252
v -0.0176882 -0.185597 -0.518719
v -0.00589319 -0.179321 -0.517396
v -9.5405e-05 -0.179321 -0.517396
v -9.5405e-05 -0.185597 -0.433011
v -0.0485388 -0.185597 -0.51466
v -0.0530467 -0.182665 -0.512736
v -0.0176882 -0.180993 -0.516614
v -0.00589319 -0.170884 -0.513458
v -0.0530467 -0.173199 -0.508407
v -0.0356268 -0.164917 -0.506814
v -9.5405e-05 -0.170884 -0.513458
v -0.135904 -0.185597 -0.409232
v -9.5405e-05 0.0240851 -0.259733
v -0.135944 0.0284835 -0.217466
v -0.135944 0.0227219 -0.222577
v -0.122726 -0.185597 -0.50489
v -0.122726 -0.183796 -0.504078
v -0.0883919 -0.178292 -0.506092
v -0.0648284 -0.174871 -0.507626
v -0.00589319 -0.161367 -0.508708
v -9.5405e-05 -0.166048 -0.511053
v -0.02947 -0.164171 -0.507205
v -0.0176882 -0.162756 -0.507956
v -0.124123 -0.169907 -0.497495
v -0.128312 -0.165354 -0.494819
v -0.0176882 -0.156866 -0.50477
v -0.120453 -0.164351 -0.49533
v -0.100174 -0.147297 -0.488686
v -0.0249886 -0.141073 -0.49518
v -0.0176882 -0.140198 -0.495661
v -0.135944 -0.185597 -0.409232
v -9.5405e-05 0.0285864 -0.256817
v -0.135944 0.0294609 -0.216745
v -0.123724 -0.185597 -0.50474
v -9.5405e-05 -0.161367 -0.508708
v -0.00589319 -0.155477 -0.505521
v -9.5405e-05 -0.158358 -0.507084
v -0.123737 -0.14223 -0.482734
v -0.114828 -0.118567 -0.47101
v -0.117673 -0.141459 -0.483185
v -0.131516 -0.185597 -0.503146
v -0.135532 -0.185597 -0.502275
v -0.135532 -0.182665 -0.500892
v -0.135532 -0.173431 -0.496533
v -0.135532 -0.16754 -0.493677
v -0.135944 -0.167232 -0.493376
v -0.135532 -0.159104 -0.489047
v -0.135532 -0.150924 -0.484448
v -0.132115 -0.127878 -0.472423
v -0.123737 -0.125897 -0.473505
v -0.00589319 -0.147297 -0.501072
v -0.02947 -0.124945 -0.48577
v -0.00589319 -0.132919 -0.493196
v -0.135944 -0.185597 -0.502124
v -9.5405e-05 0.0412414 -0.25342
v -0.135944 0.0381805 -0.213438
v -9.5405e-05 -0.155477 -0.505521
v -0.123737 -0.120007 -0.470108
v -0.116689 -0.0827107 -0.447682
v -0.111317 -0.113011 -0.467944
v -0.106969 -0.117666 -0.471521
v -0.0221429 -0.118181 -0.483005
v -0.100174 -0.133459 -0.481111
v -0.135944 -0.185494 -0.502094
v -0.135944 -0.173585 -0.496473
v -0.135944 -0.167695 -0.493617
v -0.135944 -0.159104 -0.488897
v -0.135944 -0.151079 -0.484388
v -0.135532 -0.145034 -0.481081
v -0.135944 -0.134848 -0.474948
v -0.135944 -0.123762 -0.468395
v -0.135532 -0.113885 -0.462322
v -0.129375 -0.106169 -0.459556
v -0.135944 -0.145163 -0.480991
v -9.5405e-05 -0.147297 -0.501072
v -0.00589319 -0.123737 -0.488145
v -9.5405e-05 -0.132919 -0.493196
v -9.5405e-05 0.0530218 -0.254022
v -0.135944 0.0412414 -0.213137
v -0.124761 -0.11085 -0.463915
v -0.120758 -0.0692069 -0.43716
v -0.111955 -0.0678694 -0.438152
v -0.112434 -0.0774378 -0.444706
v -0.100174 -0.0751486 -0.444856
v -0.0883919 -0.0739397 -0.445668
v -0.0883919 -0.0798299 -0.449546
v -0.0285524 -0.0876235 -0.462472
v -0.0765969 -0.0936423 -0.460037
v -0.100174 -0.111056 -0.468184
v -0.111955 -0.103159 -0.46151
v -0.100174 -0.116972 -0.471972
v -0.014284 -0.117332 -0.483516
v -0.135944 -0.113988 -0.462232
v -0.135532 -0.107995 -0.458294
v -0.135944 -0.0994554 -0.452221
v -0.132354 -0.0926392 -0.448974
v -0.128604 -0.0712903 -0.435627
v -0.124309 -0.0757659 -0.440377
v -9.5405e-05 -0.123737 -0.488145
v -0.00589319 -0.116483 -0.484027
v -9.5405e-05 0.0588092 -0.254352
v -0.135944 0.0488549 -0.213648
v -9.5405e-05 0.0648023 -0.254713
v -9.5405e-05 0.0765828 -0.255435
v -0.124309 -0.0650914 -0.43244
v -0.123737 -0.0568091 -0.425977
v -0.116251 -0.0359747 -0.411998
v -0.108405 -0.0344828 -0.41317
v -0.111955 -0.0619791 -0.433643
v -0.10391 -0.0475236 -0.423993
v -0.100174 -0.0608731 -0.434575
v -0.100174 -0.0667633 -0.438964
v -0.0579004 -0.0709045 -0.447712
v -0.0648284 -0.0774635 -0.451109
v -0.0176882 -0.081759 -0.460097
v -0.0176882 -0.0967804 -0.469807
v -0.02947 -0.0979636 -0.469026
v -0.0412517 -0.105063 -0.472062
v -0.00589319 -0.110593 -0.480269
v -0.135944 -0.107815 -0.457993
v -0.135944 -0.0791354 -0.438122
v -0.135532 -0.0733223 -0.434184
v -0.135944 -0.0649628 -0.42751
v -9.5405e-05 -0.116483 -0.484027
v -0.135944 0.0619215 -0.21458
v -9.5405e-05 0.0771744 -0.255495
v -0.135944 0.0765828 -0.215662
v -0.135944 0.0750137 -0.215542
v -0.135944 0.0648023 -0.214791
v -0.135944 -0.05488 -0.419333
v -0.135891 -0.0416591 -0.408631
v -0.123737 -0.0378009 -0.410525
v -0.122673 -0.0293385 -0.403881
v -0.118046 -0.0234997 -0.400785
v -0.111955 -0.0222651 -0.401867
v -0.112181 -0.0301102 -0.408391
v -0.100174 -0.0206189 -0.40331
v -0.100174 -0.0276409 -0.409202
v -0.100174 -0.0335311 -0.413892
v -0.0412517 -0.0361804 -0.423662
v -0.02947 -0.0546999 -0.439234
v -0.0883919 -0.0598443 -0.435356
v -0.0648284 -0.0648085 -0.44221
v -0.0883919 -0.0657345 -0.439775
v -0.0536052 -0.065683 -0.444345
v -0.0176882 -0.0614904 -0.445908
v -0.00589319 -0.0663775 -0.451079
v -0.00589319 -0.0746856 -0.456971
v -0.00589319 -0.0805758 -0.460849
v -0.00589319 -0.0883694 -0.465899
v -9.5405e-05 -0.110593 -0.480269
v -9.5405e-05 -0.0844083 -0.463344
v -0.135944 -0.0734509 -0.434094
v -0.135944 -0.073168 -0.433883
v -0.135944 0.0771744 -0.215723
v -9.5405e-05 0.0771744 -0.334077
v -0.135944 -0.0416591 -0.408601
v -0.135944 -0.0336855 -0.402108
v -0.135532 -0.0335826 -0.402198
v -0.135944 -0.0334282 -0.401897
v -0.125905 -0.0253517 -0.399162
v -0.135944 0.0771744 -0.303023
v -0.111955 0.0771744 -0.312973
v -0.0967162 0.0771744 -0.319256
v -0.0888706 0.0771744 -0.321992
v -0.0883919 0.0771744 -0.322142
v -0.0765969 0.0771744 -0.324788
v -0.0883919 -0.0266635 -0.409984
v -0.0883919 -0.0325537 -0.414674
v -0.0176882 -0.0341227 -0.425195
v -0.0176882 -0.0478066 -0.435567
v -0.00589319 -0.0604616 -0.44666
v -0.00335333 -0.0465977 -0.436469
v -9.5405e-05 -0.0663775 -0.451079
v -9.5405e-05 -0.0746856 -0.456971
v -9.5405e-05 -0.0805758 -0.460849
v -0.00589319 0.0771744 -0.334077
v -9.5405e-05 -0.0272551 -0.421287
v -0.135944 -0.0274094 -0.396757
v -0.0182467 0.0771744 -0.332484
v -0.0481931 -0.0234226 -0.412629
v -0.0648284 -0.0247344 -0.411517
v -0.00589319 -0.0272551 -0.421287
v -0.00589319 -0.0331453 -0.425977
v -0.00673094 -0.0420964 -0.432651
v -9.5405e-05 -0.0465977 -0.436469
v -0.00646499 0.0771744 -0.334017
v -9.5405e-05 -0.0301616 -0.423602
v -9.5405e-05 -0.0331453 -0.425977
f 1 2 3
f 1 3 7
f 1 7 15
f 1 15 34
f 1 34 57
f 1 57 45
f 1 45 44
f 1 44 37
f 1 37 19
f 1 19 8
f 1 8 4
f 1 4 5
f 1 5 2
f 2 5 6
f 2 6 14
f 2 14 24
f 2 24 38
f 2 38 40
f 2 40 60
f 2 60 78
f 2 78 80
f 2 80 102
f 2 102 127
f 2 127 154
f 2 154 155
f 2 155 179
f 2 179 178
f 2 178 177
f 2 177 189
f 2 189 192
f 2 192 191
f 2 191 181
f 2 181 159
f 2 159 129
f 2 129 107
f 2 107 106
f 2 106 104
f 2 104 81
f 2 81 58
f 2 58 35
f 2 35 16
f 2 16 7
f 2 7 3
f 4 8 9
f 4 9 10
f 4 10 5
f 5 11 14
f 5 14 6
f 5 10 12
f 5 12 13
f 5 13 11
f 7 16 17
f 7 17 18
f 7 18 15
f 8 19 20
f 8 20 9
f 9 20 21
f 9 21 22
f 9 22 10
f 10 22 12
f 11 23 24
f 11 24 14
f 11 13 25
f 11 25 26
f 11 26 23
f 12 22 27
f 12 27 28
f 12 28 13
f 13 29 25
f 13 28 30
f 13 30 31
f 13 31 32
f 13 32 33
f 13 33 29
f 15 18 34
f 16 35 36
f 16 36 17
f 17 36 59
f 17 59 82
f 17 82 105
f 17 105 128
f 17 128 132
f 17 132 131
f 17 131 130
f 17 130 158
f 17 158 165
f 17 165 182
f 17 182 163
f 17 163 161
f 17 161 160
f 17 160 133
f 17 133 126
f 17 126 157
f 17 157 156
f 17 156 124
f 17 124 98
f 17 98 123
f 17 123 96
f 17 96 74
f 17 74 73
f 17 73 77
f 17 77 71
f 17 71 70
f 17 70 49
f 17 49 69
f 17 69 68
f 17 68 67
f 17 67 57
f 17 57 34
f 17 34 18
f 19 37 20
f 20 37 28
f 20 28 27
f 20 27 21
f 21 27 22
f 23 38 24
f 23 26 29
f 23 29 39
f 23 39 40
f 23 40 38
f 25 29 26
f 28 41 42
f 28 42 43
f 28 43 30
f 28 37 44
f 28 44 45
f 28 45 46
f 28 46 47
f 28 47 48
f 28 48 49
f 28 49 50
f 28 50 51
f 28 51 52
f 28 52 53
f 28 53 41
f 29 54 39
f 29 33 54
f 30 43 31
f 31 43 55
f 31 55 32
f 32 55 33
f 33 55 56
f 33 56 54
f 35 58 59
f 35 59 36
f 39 54 78
f 39 78 60
f 39 60 40
f 41 53 42
f 42 53 61
f 42 61 62
f 42 62 63
f 42 63 64
f 42 64 65
f 42 65 55
f 42 55 66
f 42 66 43
f 43 66 55
f 45 57 67
f 45 67 46
f 46 67 68
f 46 68 47
f 47 68 69
f 47 69 48
f 48 69 49
f 49 70 50
f 50 70 71
f 50 71 51
f 51 71 72
f 51 72 52
f 52 73 74
f 52 74 75
f 52 75 76
f 52 76 61
f 52 61 53
f 52 72 77
f 52 77 73
f 54 56 80
f 54 80 78
f 55 65 56
f 56 65 79
f 56 79 102
f 56 102 80
f 58 81 82
f 58 82 59
f 61 76 83
f 61 83 62
f 62 84 85
f 62 85 86
f 62 86 87
f 62 87 88
f 62 88 89
f 62 89 90
f 62 90 91
f 62 91 92
f 62 92 93
f 62 93 63
f 62 83 76
f 62 76 84
f 63 92 64
f 63 93 92
f 64 92 94
f 64 94 95
f 64 95 65
f 65 95 79
f 71 77 72
f 74 96 75
f 75 96 76
f 76 96 97
f 76 97 98
f 76 98 99
f 76 99 100
f 76 100 101
f 76 101 84
f 79 95 103
f 79 103 127
f 79 127 102
f 81 104 82
f 82 104 106
f 82 106 107
f 82 107 105
f 84 101 100
f 84 100 108
f 84 108 109
f 84 109 110
f 84 110 111
f 84 111 112
f 84 112 85
f 85 112 113
f 85 113 114
f 85 114 115
f 85 115 116
f 85 116 88
f 85 88 87
f 85 87 86
f 88 116 89
f 89 116 117
f 89 117 118
f 89 118 90
f 90 118 119
f 90 119 120
f 90 120 121
f 90 121 92
f 90 92 91
f 92 121 95
f 92 95 94
f 95 122 103
f 95 121 122
f 96 123 97
f 97 123 98
f 98 124 99
f 99 124 100
f 100 124 125
f 100 125 126
f 100 126 108
f 103 122 154
f 103 154 127
f 105 107 128
f 107 129 158
f 107 158 130
f 107 130 131
f 107 131 132
f 107 132 128
f 108 126 109
f 109 126 133
f 109 133 134
f 109 134 135
f 109 135 110
f 110 135 136
f 110 136 137
f 110 137 138
f 110 138 139
f 110 139 111
f 111 139 138
f 111 138 140
f 111 140 141
f 111 141 142
f 111 142 113
f 111 113 112
f 113 142 143
f 113 143 144
f 113 144 145
f 113 145 114
f 114 145 146
f 114 146 116
f 114 116 147
f 114 147 115
f 115 147 116
f 116 146 148
f 116 148 149
f 116 149 150
f 116 150 151
f 116 151 118
f 116 118 117
f 118 151 152
f 118 152 153
f 118 153 122
f 118 122 119
f 119 122 120
f 120 122 121
f 122 153 155
f 122 155 154
f 124 156 125
f 125 156 157
f 125 157 126
f 129 159 180
f 129 180 190
f 129 190 183
f 129 183 170
f 129 170 169
f 129 169 168
f 129 168 167
f 129 167 166
f 129 166 165
f 129 165 158
f 133 160 134
f 134 160 161
f 134 161 162
f 134 162 135
f 135 162 136
f 136 162 163
f 136 163 164
f 136 164 137
f 137 164 165
f 137 165 166
f 137 166 167
f 137 167 138
f 138 167 168
f 138 168 169
f 138 169 140
f 140 169 170
f 140 170 141
f 141 170 171
f 141 171 172
f 141 172 142
f 142 172 173
f 142 173 143
f 143 173 174
f 143 174 144
f 144 174 149
f 144 149 146
f 144 146 145
f 146 149 148
f 149 175 150
f 149 174 175
f 150 175 176
f 150 176 189
f 150 189 177
f 150 177 178
f 150 178 151
f 151 178 179
f 151 179 152
f 152 179 155
f 152 155 153
f 159 181 186
f 159 186 180
f 161 163 162
f 163 182 164
f 164 182 165
f 170 183 184
f 170 184 185
f 170 185 171
f 171 185 186
f 171 186 187
f 171 187 172
f 172 187 173
f 173 187 174
f 174 188 175
f 174 187 188
f 175 188 187
f 175 187 176
f 176 187 192
f 176 192 189
f 180 186 190
f 181 191 186
f 183 190 184
f 184 186 185
f 184 190 186
f 186 191 187
f 187 191 192
