v 0.313636 0.0771744 -0.110282
v 0.312961 0.0771744 -0.111967
v 0.229364 0.0771744 -0.110282
v 0.401315 -0.0211719 -0.110282
v 0.401861 -0.0222546 -0.111967
v 0.400768 -0.0234919 -0.118049
v 0.298144 0.0771744 -0.147757
v 0.388041 -0.0245525 -0.151109
v 0.163186 0.0771744 -0.195048
v 0.16309 0.0765999 -0.195048
v 0.229299 0.0766662 -0.110282
v 0.402054 -0.0220115 -0.110282
v 0.402922 -0.0230279 -0.110282
v 0.410796 -0.0323079 -0.110282
v 0.408418 -0.0301205 -0.112191
v 0.411985 -0.0359536 -0.116265
v 0.403886 -0.0293472 -0.122688
v 0.399161 -0.0253479 -0.125908
v 0.295251 0.0771744 -0.154627
v 0.37692 -0.0238012 -0.176302
v 0.367278 -0.0215254 -0.194458
v 0.367149 -0.021658 -0.195048
v 0.380648 -0.0312032 -0.182675
v 0.375602 -0.0253037 -0.182675
v 0.268768 0.0771744 -0.195048
v 0.159683 0.042087 -0.195048
v 0.227757 0.0530242 -0.110282
v 0.41491 -0.0374119 -0.110282
v 0.425966 -0.0568116 -0.12375
v 0.415296 -0.0436649 -0.12375
v 0.410507 -0.0377655 -0.12375
v 0.437151 -0.0692292 -0.120763
v 0.402182 -0.0335674 -0.135542
v 0.391415 -0.0323742 -0.1591
v 0.292744 0.0771744 -0.160527
v 0.373963 -0.0293913 -0.195048
v 0.362071 -0.0162667 -0.195048
v 0.378656 -0.0335232 -0.192251
v 0.389776 -0.0343186 -0.167058
v 0.272432 0.0771744 -0.190301
v 0.344073 0.00240382 -0.195048
v 0.162287 0.0341548 -0.195048
v 0.229749 0.0302218 -0.110282
v 0.229106 0.0326523 -0.110282
v 0.227017 0.0414462 -0.110282
v 0.433776 -0.0618273 -0.110282
v 0.433616 -0.0619819 -0.111967
v 0.418253 -0.0531659 -0.135243
v 0.399258 -0.0371247 -0.149723
v 0.432427 -0.0650974 -0.124314
v 0.42452 -0.0704002 -0.153798
v 0.424584 -0.058513 -0.130413
v 0.40199 -0.0573419 -0.182675
v 0.400865 -0.0351361 -0.141865
v 0.438148 -0.0678814 -0.111967
v 0.447693 -0.0827294 -0.116697
v 0.446536 -0.0843866 -0.12375
v 0.459553 -0.106173 -0.129384
v 0.440397 -0.0757694 -0.124314
v 0.435641 -0.0712841 -0.128621
v 0.286188 0.0771744 -0.171788
v 0.355707 -0.00952765 -0.195048
v 0.374542 -0.0300763 -0.195048
v 0.38653 -0.0382737 -0.182675
v 0.384795 -0.0424497 -0.195048
v 0.38367 -0.0410798 -0.195048
v 0.382995 -0.0402622 -0.195048
v 0.279245 0.0771744 -0.181356
v 0.350469 -0.0041143 -0.195048
v 0.286091 0.0771744 -0.171946
v 0.16444 0.0295369 -0.195048
v 0.23486 0.0228641 -0.110282
v 0.438276 -0.0677267 -0.110282
v 0.394019 -0.0538288 -0.195048
v 0.391319 -0.0441731 -0.182675
v 0.413367 -0.0695606 -0.179007
v 0.401186 -0.062689 -0.195048
v 0.41176 -0.0716818 -0.186866
v 0.439112 -0.0689199 -0.110282
v 0.444704 -0.0774266 -0.112448
v 0.444736 -0.0770288 -0.110282
v 0.446793 -0.0801222 -0.110282
v 0.449429 -0.0840993 -0.110282
v 0.452514 -0.0888719 -0.110282
v 0.461514 -0.103146 -0.111967
v 0.470995 -0.118568 -0.11483
v 0.470127 -0.120004 -0.12375
v 0.463892 -0.110835 -0.124771
v 0.4583 -0.107984 -0.135542
v 0.448979 -0.0926502 -0.132372
v 0.472441 -0.12787 -0.132131
v 0.462317 -0.113884 -0.135542
v 0.410025 -0.0740239 -0.195048
v 0.43834 -0.0792163 -0.135542
v 0.167718 0.0262447 -0.195048
v 0.396686 -0.148551 -0.110307
v 0.396686 -0.148529 -0.110282
v 0.403597 -0.0648101 -0.193338
v 0.403372 -0.0654288 -0.195048
v 0.409703 -0.0736041 -0.195048
v 0.46161 -0.102969 -0.110282
v 0.46881 -0.114127 -0.110282
v 0.473341 -0.121706 -0.110282
v 0.483176 -0.141459 -0.117676
v 0.48623 -0.148551 -0.123767
v 0.482726 -0.142232 -0.12375
v 0.473502 -0.125904 -0.12375
v 0.460614 -0.116381 -0.143856
v 0.447886 -0.117751 -0.176933
v 0.434194 -0.10878 -0.195048
v 0.434612 -0.0963622 -0.173273
v 0.422688 -0.0847843 -0.182675
v 0.436766 -0.08147 -0.143134
v 0.468488 -0.123871 -0.135849
v 0.48398 -0.148551 -0.132305
v 0.48308 -0.148551 -0.135542
v 0.481055 -0.145038 -0.135542
v 0.482019 -0.148551 -0.138197
v 0.478773 -0.148551 -0.14613
v 0.460389 -0.140133 -0.178592
v 0.448593 -0.128356 -0.190376
v 0.460967 -0.127362 -0.1591
v 0.459007 -0.118877 -0.151715
v 0.414332 -0.0798129 -0.194458
v 0.414203 -0.0799896 -0.195048
v 0.361911 -0.148551 -0.195048
v 0.433776 -0.148551 -0.110282
v 0.474081 -0.123053 -0.110282
v 0.488029 -0.148551 -0.110282
v 0.480894 -0.136156 -0.113037
v 0.446247 -0.12049 -0.184791
v 0.438212 -0.114657 -0.195048
v 0.43834 -0.11448 -0.194458
v 0.420342 -0.0888056 -0.195048
v 0.46836 -0.148551 -0.171265
v 0.457528 -0.146894 -0.195048
v 0.450265 -0.134521 -0.195048
v 0.444126 -0.124114 -0.195048
v 0.458492 -0.148551 -0.195048
v 0.44374 -0.123495 -0.195048
f 1 2 7
f 1 7 19
f 1 19 35
f 1 35 61
f 1 61 70
f 1 70 68
f 1 68 40
f 1 40 25
f 1 25 9
f 1 9 3
f 1 3 11
f 1 11 27
f 1 27 45
f 1 45 44
f 1 44 43
f 1 43 72
f 1 72 97
f 1 97 127
f 1 127 129
f 1 129 128
f 1 128 103
f 1 103 102
f 1 102 101
f 1 101 84
f 1 84 83
f 1 83 82
f 1 82 81
f 1 81 79
f 1 79 73
f 1 73 46
f 1 46 28
f 1 28 14
f 1 14 13
f 1 13 12
f 1 12 4
f 1 4 5
f 1 5 6
f 1 6 2
f 2 6 8
f 2 8 7
f 3 9 10
f 3 10 11
f 4 12 5
f 5 12 13
f 5 13 14
f 5 14 15
f 5 15 16
f 5 16 6
f 6 16 17
f 6 17 18
f 6 18 8
f 7 8 20
f 7 20 21
f 7 21 22
f 7 22 19
f 8 23 24
f 8 24 20
f 8 18 23
f 9 25 41
f 9 41 69
f 9 69 62
f 9 62 37
f 9 37 22
f 9 22 36
f 9 36 63
f 9 63 67
f 9 67 66
f 9 66 65
f 9 65 74
f 9 74 77
f 9 77 99
f 9 99 100
f 9 100 93
f 9 93 125
f 9 125 134
f 9 134 110
f 9 110 132
f 9 132 140
f 9 140 138
f 9 138 137
f 9 137 136
f 9 136 139
f 9 139 126
f 9 126 95
f 9 95 71
f 9 71 42
f 9 42 26
f 9 26 10
f 10 26 11
f 11 26 27
f 14 28 16
f 14 16 15
f 16 29 30
f 16 30 31
f 16 31 17
f 16 28 32
f 16 32 29
f 17 31 33
f 17 33 18
f 18 33 34
f 18 34 23
f 19 22 35
f 20 24 21
f 21 24 22
f 22 24 36
f 22 37 35
f 23 38 36
f 23 36 24
f 23 34 39
f 23 39 38
f 25 40 41
f 26 42 43
f 26 43 44
f 26 44 45
f 26 45 27
f 28 46 47
f 28 47 32
f 29 48 49
f 29 49 30
f 29 32 50
f 29 50 51
f 29 51 52
f 29 52 53
f 29 53 48
f 30 49 31
f 31 49 54
f 31 54 33
f 32 55 56
f 32 56 57
f 32 57 58
f 32 58 59
f 32 59 60
f 32 60 50
f 32 47 55
f 33 54 39
f 33 39 34
f 35 37 62
f 35 62 61
f 36 38 63
f 38 64 65
f 38 65 66
f 38 66 67
f 38 67 63
f 38 39 64
f 39 54 49
f 39 49 64
f 40 68 41
f 41 68 70
f 41 70 69
f 42 71 43
f 43 71 72
f 46 73 55
f 46 55 47
f 48 53 74
f 48 74 49
f 49 74 75
f 49 75 65
f 49 65 64
f 50 60 51
f 51 76 77
f 51 77 53
f 51 53 52
f 51 60 78
f 51 78 76
f 53 77 74
f 55 73 79
f 55 79 80
f 55 80 56
f 56 58 57
f 56 80 81
f 56 81 82
f 56 82 83
f 56 83 84
f 56 84 85
f 56 85 86
f 56 86 87
f 56 87 88
f 56 88 58
f 58 89 90
f 58 90 60
f 58 60 59
f 58 88 87
f 58 87 91
f 58 91 92
f 58 92 89
f 60 93 78
f 60 90 94
f 60 94 93
f 61 62 70
f 62 69 70
f 65 75 74
f 71 95 96
f 71 96 72
f 72 96 97
f 76 78 98
f 76 98 77
f 77 98 99
f 78 93 100
f 78 100 99
f 78 99 98
f 79 81 80
f 84 101 85
f 85 101 102
f 85 102 86
f 86 102 103
f 86 103 104
f 86 104 105
f 86 105 106
f 86 106 107
f 86 107 87
f 87 107 91
f 89 92 108
f 89 108 109
f 89 109 110
f 89 110 111
f 89 111 90
f 90 111 112
f 90 112 113
f 90 113 94
f 91 114 92
f 91 107 106
f 91 106 115
f 91 115 116
f 91 116 117
f 91 117 118
f 91 118 119
f 91 119 120
f 91 120 121
f 91 121 122
f 91 122 123
f 91 123 114
f 92 114 108
f 93 94 124
f 93 124 125
f 94 113 112
f 94 112 124
f 95 126 96
f 96 126 139
f 96 139 135
f 96 135 119
f 96 119 118
f 96 118 116
f 96 116 115
f 96 115 105
f 96 105 129
f 96 129 127
f 96 127 97
f 103 128 104
f 104 129 105
f 104 128 130
f 104 130 129
f 105 115 106
f 108 114 123
f 108 123 109
f 109 123 121
f 109 121 131
f 109 131 132
f 109 132 133
f 109 133 110
f 110 134 112
f 110 112 111
f 110 133 132
f 112 134 124
f 116 118 117
f 119 135 120
f 120 135 136
f 120 136 121
f 121 136 137
f 121 137 138
f 121 138 131
f 121 123 122
f 124 134 125
f 128 129 130
f 131 138 140
f 131 140 132
f 135 139 136
