v -0.261283 -0.300545 0.402219
v -0.26131 -0.245143 0.377217
v -0.26131 -0.245143 0.477374
v -0.26131 -0.257266 0.482195
v -0.26131 -0.259582 0.483093
v -0.26131 -0.265963 0.485518
v -0.26131 -0.273079 0.487944
v -0.26131 -0.276976 0.489261
v -0.26131 -0.286182 0.492136
v -0.26131 -0.307417 0.498693
v -0.26131 -0.312048 0.5001
v -0.26131 -0.320613 0.502526
v -0.26131 -0.324115 0.503514
v -0.26131 -0.333245 0.505699
v -0.26131 -0.338704 0.506957
v -0.26131 -0.354536 0.51052
v -0.26131 -0.359356 0.511598
v -0.26131 -0.371234 0.514233
v -0.26131 -0.378482 0.51555
v -0.26131 -0.383019 0.516359
v -0.26131 -0.388968 0.517227
v -0.26131 -0.418373 0.521479
v -0.26131 -0.425225 0.522347
v -0.26131 -0.429762 0.522916
v -0.26131 -0.437462 0.523605
v -0.26131 -0.437462 0.437102
v -0.457481 -0.437462 0.217745
v -0.405721 -0.245143 0.217745
v -0.263862 -0.245143 0.476326
v -0.26765 -0.263027 0.481776
v -0.265152 -0.245143 0.475787
v -0.271218 -0.270896 0.483273
v -0.26518 -0.276976 0.487674
v -0.270559 -0.307134 0.494771
v -0.266058 -0.311577 0.498004
v -0.273495 -0.315003 0.495968
v -0.281344 -0.320726 0.494291
v -0.277228 -0.324435 0.496986
v -0.276981 -0.335899 0.499831
v -0.268857 -0.347665 0.505849
v -0.266113 -0.358734 0.509472
v -0.270669 -0.354329 0.506598
v -0.276816 -0.358734 0.505041
v -0.275197 -0.371234 0.508484
v -0.282717 -0.37756 0.506718
v -0.276981 -0.418373 0.514982
v -0.270861 -0.42515 0.518455
v -0.276267 -0.429517 0.516688
v -0.271876 -0.433 0.518874
v -0.275252 -0.437462 0.517856
v -0.541624 -0.437462 0.217745
v -0.495436 -0.245143 0.217745
v -0.27259 -0.245143 0.472374
v -0.275883 -0.266246 0.478692
v -0.279012 -0.276976 0.480967
v -0.281536 -0.284996 0.482434
v -0.283458 -0.328576 0.495339
v -0.283705 -0.292865 0.483782
v -0.285516 -0.300545 0.485099
v -0.289193 -0.312744 0.486566
v -0.287931 -0.324435 0.491088
v -0.281097 -0.371234 0.506029
v -0.289742 -0.417846 0.509322
v -0.288754 -0.371234 0.502047
v -0.288233 -0.382097 0.504532
v -0.291361 -0.394804 0.505011
v -0.294325 -0.413572 0.506598
v -0.288754 -0.430157 0.511359
v -0.288754 -0.437462 0.512017
v -0.541405 -0.4346 0.217745
v -0.538962 -0.437462 0.224212
v -0.49851 -0.252899 0.217745
v -0.494064 -0.245143 0.221068
v -0.284583 -0.265191 0.472733
v -0.278106 -0.245143 0.468451
v -0.280439 -0.251411 0.469619
v -0.282881 -0.259261 0.471416
v -0.288946 -0.277917 0.47444
v -0.290758 -0.335899 0.492285
v -0.292981 -0.347665 0.493812
v -0.294271 -0.354555 0.494711
v -0.29567 -0.362405 0.495759
v -0.288096 -0.288855 0.479051
v -0.295259 -0.316942 0.483662
v -0.296658 -0.324115 0.48474
v -0.295286 -0.421423 0.507197
v -0.297125 -0.371234 0.496896
v -0.298744 -0.383019 0.498124
v -0.296082 -0.430157 0.507736
v -0.293777 -0.437462 0.509472
v -0.535998 -0.430157 0.229842
v -0.54028 -0.430157 0.219481
v -0.540993 -0.430157 0.217745
v -0.52063 -0.437462 0.268557
v -0.518873 -0.433 0.27188
v -0.503504 -0.265775 0.217745
v -0.496149 -0.256362 0.226757
v -0.477213 -0.245143 0.26173
v -0.290483 -0.265191 0.468212
v -0.318943 -0.269785 0.44839
v -0.305989 -0.272063 0.459259
v -0.293008 -0.274604 0.470128
v -0.286065 -0.245143 0.462463
v -0.342655 -0.257868 0.424915
v -0.329673 -0.259864 0.435784
v -0.324322 -0.264834 0.442102
v -0.292212 -0.245143 0.457762
v -0.293502 -0.249435 0.45875
v -0.359533 -0.252541 0.409525
v -0.294847 -0.282454 0.471565
v -0.298799 -0.335899 0.486387
v -0.305962 -0.343203 0.482824
v -0.326188 -0.347665 0.468481
v -0.361234 -0.35945 0.444677
v -0.329481 -0.366961 0.470996
v -0.324981 -0.371027 0.475488
v -0.303025 -0.371234 0.492375
v -0.307828 -0.279913 0.460696
v -0.32907 -0.320688 0.4589
v -0.35462 -0.280685 0.425065
v -0.367931 -0.31233 0.426233
v -0.388816 -0.318524 0.412399
v -0.302559 -0.324115 0.480219
v -0.330552 -0.328557 0.460038
v -0.317571 -0.331889 0.470907
v -0.301955 -0.430157 0.503334
v -0.299732 -0.417846 0.503214
v -0.342078 -0.423042 0.471625
v -0.330771 -0.37483 0.471985
v -0.31779 -0.379122 0.482854
v -0.301269 -0.395726 0.498334
v -0.300555 -0.406588 0.500699
v -0.313262 -0.383038 0.487015
v -0.300198 -0.437462 0.5054
v -0.296548 -0.437462 0.508065
v -0.518461 -0.42515 0.270862
v -0.539566 -0.418768 0.217745
v -0.519065 -0.437462 0.2723
v -0.51676 -0.437462 0.277779
v -0.516678 -0.429517 0.276282
v -0.507319 -0.276976 0.217745
v -0.496012 -0.268354 0.238195
v -0.483415 -0.258772 0.259784
v -0.494503 -0.260504 0.234602
v -0.475786 -0.245143 0.265143
v -0.365735 -0.270406 0.412759
v -0.352754 -0.272816 0.423628
v -0.386785 -0.276976 0.399045
v -0.376466 -0.260485 0.400153
v -0.359533 -0.265963 0.415573
v -0.378716 -0.268335 0.40189
v -0.318641 -0.245143 0.437491
v -0.367217 -0.245143 0.400213
v -0.374352 -0.253407 0.398536
v -0.304699 -0.335899 0.481865
v -0.397927 -0.335899 0.410333
v -0.393838 -0.360109 0.419825
v -0.389227 -0.364476 0.424496
v -0.396253 -0.371234 0.420843
v -0.377563 -0.375903 0.436353
v -0.349186 -0.324115 0.444468
v -0.335052 -0.324416 0.455396
v -0.38308 -0.324002 0.418418
v -0.387388 -0.31233 0.411292
v -0.395539 -0.312161 0.404944
v -0.401522 -0.315982 0.4015
v -0.394496 -0.323117 0.409375
v -0.377344 -0.329499 0.424406
v -0.307197 -0.437462 0.50007
v -0.302449 -0.437462 0.503693
v -0.348582 -0.430157 0.467583
v -0.329646 -0.437462 0.482913
v -0.345371 -0.383019 0.462373
v -0.400973 -0.41137 0.424466
v -0.382284 -0.418373 0.439976
v -0.388843 -0.424792 0.435994
v -0.364582 -0.380741 0.447222
v -0.511381 -0.430157 0.288768
v -0.514976 -0.418373 0.276971
v -0.517995 -0.418373 0.269725
v -0.520437 -0.418373 0.263826
v -0.538441 -0.410843 0.217745
v -0.514729 -0.437462 0.28251
v -0.510695 -0.287838 0.217745
v -0.487669 -0.276976 0.265203
v -0.494366 -0.273042 0.24604
v -0.483251 -0.270896 0.271222
v -0.484376 -0.266246 0.264305
v -0.481769 -0.263027 0.267659
v -0.479738 -0.254273 0.264305
v -0.47241 -0.245143 0.272539
v -0.382805 -0.264721 0.397159
v -0.389309 -0.258508 0.389284
v -0.390791 -0.265191 0.390781
v -0.39993 -0.308132 0.399914
v -0.38308 -0.254103 0.392129
v -0.375121 -0.245143 0.394135
v -0.390325 -0.326374 0.413537
v -0.402785 -0.324115 0.402788
v -0.399519 -0.345274 0.411561
v -0.400863 -0.353143 0.412579
v -0.401906 -0.35945 0.413417
v -0.403855 -0.371234 0.414945
v -0.405474 -0.383019 0.416172
v -0.397872 -0.383019 0.422071
v -0.404953 -0.312161 0.395512
v -0.41239 -0.318524 0.388805
v -0.409399 -0.323117 0.394464
v -0.410332 -0.335899 0.397877
v -0.384177 -0.429292 0.440156
v -0.389502 -0.432642 0.436473
v -0.39285 -0.437462 0.434377
v -0.370126 -0.384017 0.443539
v -0.407587 -0.394484 0.416502
v -0.407615 -0.418373 0.420514
v -0.40874 -0.430157 0.421382
v -0.394002 -0.429292 0.43261
v -0.512012 -0.437462 0.288768
v -0.51064 -0.437462 0.291552
v -0.507758 -0.430157 0.296074
v -0.507209 -0.421423 0.295265
v -0.509323 -0.417846 0.289726
v -0.508801 -0.406588 0.287331
v -0.506715 -0.37756 0.28272
v -0.509295 -0.382097 0.278078
v -0.53619 -0.395255 0.217745
v -0.514921 -0.301524 0.217745
v -0.508582 -0.312876 0.241519
v -0.495189 -0.294013 0.259784
v -0.495985 -0.315003 0.273497
v -0.480973 -0.276976 0.279037
v -0.478695 -0.266246 0.275893
v -0.494283 -0.320726 0.281342
v -0.482427 -0.284996 0.281522
v -0.468458 -0.245143 0.278108
v -0.47274 -0.265191 0.284576
v -0.471422 -0.259261 0.282899
v -0.380472 -0.245143 0.389913
v -0.387059 -0.250658 0.387008
v -0.390709 -0.245143 0.379583
v -0.392136 -0.254103 0.383056
v -0.400205 -0.260485 0.376439
v -0.397186 -0.264721 0.382787
v -0.399052 -0.276976 0.386739
v -0.379622 -0.245143 0.390661
v -0.400315 -0.283979 0.388386
v -0.409755 -0.371234 0.409765
v -0.411567 -0.345274 0.399494
v -0.413433 -0.35945 0.40189
v -0.411375 -0.383019 0.411351
v -0.41217 -0.390361 0.41216
v -0.411292 -0.31233 0.387368
v -0.426222 -0.31233 0.367935
v -0.432726 -0.311671 0.359162
v -0.450949 -0.313196 0.336136
v -0.448012 -0.317714 0.342035
v -0.458908 -0.320688 0.32907
v -0.434043 -0.324115 0.362755
v -0.413543 -0.326374 0.390302
v -0.41486 -0.335899 0.392009
v -0.403333 -0.437462 0.426293
v -0.412911 -0.398211 0.412908
v -0.413625 -0.406588 0.413627
v -0.414613 -0.418373 0.414615
v -0.409207 -0.437462 0.421741
v -0.415491 -0.430157 0.415483
v -0.508088 -0.437462 0.296553
v -0.503697 -0.437462 0.302451
v -0.50334 -0.430157 0.301972
v -0.50323 -0.417846 0.299757
v -0.498125 -0.383019 0.298769
v -0.506578 -0.413572 0.294307
v -0.471614 -0.423042 0.342065
v -0.506002 -0.406588 0.293199
v -0.505014 -0.394804 0.291343
v -0.50452 -0.382097 0.288259
v -0.50205 -0.371234 0.288768
v -0.495326 -0.328576 0.283468
v -0.506029 -0.371234 0.281103
v -0.530564 -0.376129 0.224452
v -0.534461 -0.383377 0.217745
v -0.520328 -0.383019 0.251759
v -0.518242 -0.31233 0.217745
v -0.517117 -0.31233 0.22047
v -0.5071 -0.317187 0.248286
v -0.4911 -0.324435 0.287929
v -0.486571 -0.312744 0.289187
v -0.485089 -0.300545 0.285504
v -0.4838 -0.292865 0.283708
v -0.496973 -0.324435 0.27724
v -0.474441 -0.277917 0.288948
v -0.464397 -0.245143 0.283528
v -0.470132 -0.274604 0.29299
v -0.459265 -0.272063 0.305985
v -0.448397 -0.269785 0.31895
v -0.424932 -0.257868 0.342664
v -0.400232 -0.245143 0.367217
v -0.462476 -0.245143 0.286073
v -0.437529 -0.267733 0.331945
v -0.446668 -0.261935 0.316704
v -0.38544 -0.245143 0.385392
v -0.39768 -0.245143 0.37054
v -0.412774 -0.270406 0.365749
v -0.401906 -0.268335 0.378684
v -0.423642 -0.272816 0.352754
v -0.420376 -0.276844 0.358923
v -0.414942 -0.371234 0.403866
v -0.415683 -0.348587 0.395272
v -0.419827 -0.360109 0.393805
v -0.420843 -0.371234 0.396231
v -0.416177 -0.383019 0.405483
v -0.416479 -0.394484 0.407579
v -0.420513 -0.418373 0.407609
v -0.435937 -0.283226 0.341646
v -0.47156 -0.282454 0.294846
v -0.472794 -0.31442 0.30823
v -0.483662 -0.316942 0.295235
v -0.480232 -0.324115 0.302571
v -0.455395 -0.324416 0.335059
v -0.424411 -0.329499 0.377307
v -0.460033 -0.328557 0.330567
v -0.435278 -0.332925 0.364372
v -0.431683 -0.336464 0.370301
v -0.421392 -0.430157 0.408746
v -0.415875 -0.437462 0.415873
v -0.419498 -0.437462 0.411801
v -0.482921 -0.437462 0.329639
v -0.487038 -0.430157 0.323231
v -0.435992 -0.424792 0.388835
v -0.496589 -0.418373 0.30853
v -0.490716 -0.395726 0.311225
v -0.482866 -0.379122 0.317782
v -0.49689 -0.371234 0.297122
v -0.468266 -0.383019 0.337693
v -0.4504 -0.418373 0.368714
v -0.496177 -0.335899 0.284875
v -0.495765 -0.362405 0.295655
v -0.499827 -0.335899 0.276971
v -0.494722 -0.354555 0.294277
v -0.493817 -0.347665 0.29299
v -0.49228 -0.335899 0.290774
v -0.505041 -0.358734 0.276821
v -0.507484 -0.362198 0.272809
v -0.518599 -0.365173 0.247597
v -0.529714 -0.36826 0.222416
v -0.516815 -0.371234 0.255083
v -0.532403 -0.37178 0.217745
v -0.534407 -0.383038 0.217745
v -0.52148 -0.323795 0.217745
v -0.518187 -0.319615 0.223105
v -0.484733 -0.324115 0.296673
v -0.479052 -0.288855 0.288079
v -0.501885 -0.324115 0.265203
v -0.506441 -0.331419 0.258526
v -0.434812 -0.276976 0.340179
v -0.436349 -0.375903 0.377517
v -0.438764 -0.35945 0.368923
v -0.455669 -0.359487 0.346916
v -0.460115 -0.363441 0.342454
v -0.481961 -0.371234 0.316614
v -0.471999 -0.37483 0.330777
v -0.422078 -0.383019 0.397847
v -0.423807 -0.40352 0.400093
v -0.435471 -0.418373 0.388146
v -0.486379 -0.335899 0.298799
v -0.470928 -0.331889 0.317572
v -0.462585 -0.347665 0.333861
v -0.470023 -0.35945 0.328202
v -0.436486 -0.432642 0.389464
v -0.421748 -0.437462 0.409226
v -0.46758 -0.430157 0.348592
v -0.439505 -0.437462 0.38614
v -0.447903 -0.388591 0.36545
v -0.447244 -0.380741 0.364582
v -0.484952 -0.35945 0.308739
v -0.483854 -0.351072 0.307302
v -0.524362 -0.335862 0.217745
v -0.507347 -0.339269 0.260682
v -0.506606 -0.354329 0.270653
v -0.524664 -0.35945 0.229842
v -0.528726 -0.35945 0.22002
v -0.529659 -0.35945 0.217745
v -0.519175 -0.327466 0.22547
v -0.516568 -0.323757 0.229572
v -0.527793 -0.351129 0.217745
f 1 2 3
f 1 3 4
f 1 4 5
f 1 5 6
f 1 6 7
f 1 7 8
f 1 8 9
f 1 9 10
f 1 10 11
f 1 11 12
f 1 12 13
f 1 13 14
f 1 14 15
f 1 15 16
f 1 16 17
f 1 17 18
f 1 18 19
f 1 19 20
f 1 20 21
f 1 21 22
f 1 22 23
f 1 23 24
f 1 24 25
f 1 25 26
f 1 26 2
f 2 26 27
f 2 27 28
f 2 28 52
f 2 52 73
f 2 73 98
f 2 98 145
f 2 145 191
f 2 191 235
f 2 235 292
f 2 292 298
f 2 298 297
f 2 297 302
f 2 302 240
f 2 240 301
f 2 301 238
f 2 238 245
f 2 245 197
f 2 197 153
f 2 153 152
f 2 152 107
f 2 107 103
f 2 103 75
f 2 75 53
f 2 53 31
f 2 31 29
f 2 29 3
f 3 29 4
f 4 30 5
f 4 29 31
f 4 31 30
f 5 30 6
f 6 30 32
f 6 32 7
f 7 32 8
f 8 32 33
f 8 33 9
f 9 34 10
f 9 33 34
f 10 35 11
f 10 34 35
f 11 35 36
f 11 36 12
f 12 36 13
f 13 36 37
f 13 37 38
f 13 38 14
f 14 38 39
f 14 39 15
f 15 39 40
f 15 40 16
f 16 41 17
f 16 40 42
f 16 42 43
f 16 43 41
f 17 41 18
f 18 41 44
f 18 44 45
f 18 45 19
f 19 45 20
f 20 45 21
f 21 45 22
f 22 45 46
f 22 46 47
f 22 47 23
f 23 47 24
f 24 47 48
f 24 48 49
f 24 49 25
f 25 49 50
f 25 50 69
f 25 69 90
f 25 90 135
f 25 135 134
f 25 134 170
f 25 170 169
f 25 169 172
f 25 172 212
f 25 212 261
f 25 261 265
f 25 265 325
f 25 325 326
f 25 326 370
f 25 370 372
f 25 372 327
f 25 327 268
f 25 268 267
f 25 267 219
f 25 219 218
f 25 218 183
f 25 183 139
f 25 139 138
f 25 138 94
f 25 94 71
f 25 71 51
f 25 51 27
f 25 27 26
f 27 51 70
f 27 70 93
f 27 93 137
f 27 137 182
f 27 182 226
f 27 226 281
f 27 281 348
f 27 348 347
f 27 347 382
f 27 382 385
f 27 385 377
f 27 377 349
f 27 349 283
f 27 283 227
f 27 227 184
f 27 184 141
f 27 141 96
f 27 96 72
f 27 72 52
f 27 52 28
f 30 31 53
f 30 53 32
f 32 53 54
f 32 54 55
f 32 55 56
f 32 56 37
f 32 37 36
f 32 36 34
f 32 34 33
f 34 36 35
f 37 57 38
f 37 56 58
f 37 58 59
f 37 59 60
f 37 60 61
f 37 61 57
f 38 57 39
f 39 62 43
f 39 43 40
f 39 57 62
f 40 43 42
f 41 43 44
f 43 62 44
f 44 62 45
f 45 63 46
f 45 62 57
f 45 57 64
f 45 64 65
f 45 65 66
f 45 66 67
f 45 67 63
f 46 48 47
f 46 63 68
f 46 68 48
f 48 50 49
f 48 68 50
f 50 68 69
f 51 71 70
f 52 72 73
f 53 74 54
f 53 75 76
f 53 76 77
f 53 77 74
f 54 74 55
f 55 74 56
f 56 74 78
f 56 78 58
f 57 61 79
f 57 79 80
f 57 80 81
f 57 81 82
f 57 82 64
f 58 78 83
f 58 83 84
f 58 84 59
f 59 84 60
f 60 84 61
f 61 84 85
f 61 85 79
f 63 67 86
f 63 86 68
f 64 82 87
f 64 87 65
f 65 87 66
f 66 87 88
f 66 88 67
f 67 88 86
f 68 86 89
f 68 89 69
f 69 89 90
f 70 91 92
f 70 92 93
f 70 71 94
f 70 94 95
f 70 95 91
f 72 96 97
f 72 97 73
f 73 97 98
f 74 77 99
f 74 99 100
f 74 100 101
f 74 101 102
f 74 102 78
f 75 103 76
f 76 103 77
f 77 104 105
f 77 105 106
f 77 106 99
f 77 103 107
f 77 107 108
f 77 108 109
f 77 109 104
f 78 102 110
f 78 110 83
f 79 85 111
f 79 111 80
f 80 111 81
f 81 111 82
f 82 111 112
f 82 112 113
f 82 113 114
f 82 114 115
f 82 115 116
f 82 116 117
f 82 117 87
f 83 110 118
f 83 118 84
f 84 119 85
f 84 118 120
f 84 120 121
f 84 121 122
f 84 122 119
f 85 119 123
f 85 123 124
f 85 124 125
f 85 125 111
f 86 126 89
f 86 88 127
f 86 127 128
f 86 128 126
f 87 117 129
f 87 129 130
f 87 130 88
f 88 131 132
f 88 132 127
f 88 130 133
f 88 133 131
f 89 126 134
f 89 134 135
f 89 135 90
f 91 95 136
f 91 136 92
f 92 136 137
f 92 137 93
f 94 138 95
f 95 138 139
f 95 139 140
f 95 140 136
f 96 141 142
f 96 142 143
f 96 143 144
f 96 144 97
f 97 144 143
f 97 143 98
f 98 143 145
f 99 106 100
f 100 106 146
f 100 146 101
f 101 118 110
f 101 110 102
f 101 146 147
f 101 147 148
f 101 148 118
f 104 109 149
f 104 149 105
f 105 149 106
f 106 149 150
f 106 150 151
f 106 151 146
f 107 152 108
f 108 152 109
f 109 153 154
f 109 154 149
f 109 152 153
f 111 125 155
f 111 155 112
f 112 155 113
f 113 155 156
f 113 156 114
f 114 156 157
f 114 157 115
f 115 157 158
f 115 158 159
f 115 159 116
f 116 129 117
f 116 159 160
f 116 160 129
f 118 148 120
f 119 161 162
f 119 162 123
f 119 122 163
f 119 163 161
f 120 148 121
f 121 148 164
f 121 164 122
f 122 164 165
f 122 165 166
f 122 166 167
f 122 167 163
f 123 162 124
f 124 162 161
f 124 161 168
f 124 168 125
f 125 168 155
f 126 169 170
f 126 170 134
f 126 128 171
f 126 171 172
f 126 172 169
f 127 132 128
f 128 132 131
f 128 131 133
f 128 133 173
f 128 173 174
f 128 174 175
f 128 175 176
f 128 176 171
f 129 160 130
f 130 160 177
f 130 177 173
f 130 173 133
f 136 140 178
f 136 178 179
f 136 179 180
f 136 180 181
f 136 181 137
f 137 181 182
f 139 183 178
f 139 178 140
f 141 184 185
f 141 185 186
f 141 186 142
f 142 186 187
f 142 187 188
f 142 188 189
f 142 189 143
f 143 189 190
f 143 190 145
f 145 190 189
f 145 189 191
f 146 151 148
f 146 148 147
f 148 151 192
f 148 192 193
f 148 193 194
f 148 194 195
f 148 195 165
f 148 165 164
f 149 154 196
f 149 196 192
f 149 192 150
f 150 192 151
f 153 197 154
f 154 197 196
f 155 168 156
f 156 198 167
f 156 167 166
f 156 166 199
f 156 199 200
f 156 200 157
f 156 168 198
f 157 200 201
f 157 201 202
f 157 202 159
f 157 159 158
f 159 202 203
f 159 203 160
f 160 203 204
f 160 204 205
f 160 205 177
f 161 163 168
f 163 167 198
f 163 198 168
f 165 195 166
f 166 195 206
f 166 206 207
f 166 207 208
f 166 208 209
f 166 209 199
f 171 176 210
f 171 210 211
f 171 211 172
f 172 211 212
f 173 177 205
f 173 205 213
f 173 213 174
f 174 176 175
f 174 213 205
f 174 205 214
f 174 214 215
f 174 215 176
f 176 216 217
f 176 217 210
f 176 215 216
f 178 183 218
f 178 218 219
f 178 219 220
f 178 220 221
f 178 221 222
f 178 222 179
f 179 222 223
f 179 223 224
f 179 224 180
f 180 224 225
f 180 225 226
f 180 226 182
f 180 182 181
f 184 227 228
f 184 228 229
f 184 229 185
f 185 229 230
f 185 230 187
f 185 187 186
f 187 231 232
f 187 232 191
f 187 191 189
f 187 189 188
f 187 230 233
f 187 233 234
f 187 234 231
f 191 232 236
f 191 236 237
f 191 237 235
f 192 196 193
f 193 238 239
f 193 239 240
f 193 240 241
f 193 241 242
f 193 242 243
f 193 243 244
f 193 244 194
f 193 196 245
f 193 245 238
f 194 244 195
f 195 244 246
f 195 246 206
f 196 197 245
f 199 247 202
f 199 202 201
f 199 201 200
f 199 209 248
f 199 248 249
f 199 249 247
f 202 247 203
f 203 247 250
f 203 250 204
f 204 250 251
f 204 251 214
f 204 214 205
f 206 246 252
f 206 252 207
f 207 252 253
f 207 253 254
f 207 254 255
f 207 255 256
f 207 256 257
f 207 257 208
f 208 257 258
f 208 258 259
f 208 259 209
f 209 259 260
f 209 260 248
f 210 217 211
f 211 217 216
f 211 216 261
f 211 261 212
f 214 251 262
f 214 262 215
f 215 262 263
f 215 263 264
f 215 264 216
f 216 265 261
f 216 264 266
f 216 266 265
f 219 267 220
f 220 267 268
f 220 268 269
f 220 269 221
f 221 270 271
f 221 271 272
f 221 272 222
f 221 269 273
f 221 273 270
f 222 272 223
f 223 272 224
f 224 272 274
f 224 274 275
f 224 275 276
f 224 276 277
f 224 277 278
f 224 278 279
f 224 279 280
f 224 280 281
f 224 281 282
f 224 282 226
f 224 226 225
f 226 282 281
f 227 283 284
f 227 284 228
f 228 285 230
f 228 230 229
f 228 284 285
f 230 285 233
f 231 234 236
f 231 236 232
f 233 278 286
f 233 286 287
f 233 287 288
f 233 288 289
f 233 289 234
f 233 285 290
f 233 290 278
f 234 289 291
f 234 291 236
f 235 237 292
f 236 291 293
f 236 293 294
f 236 294 295
f 236 295 237
f 237 296 297
f 237 297 298
f 237 298 292
f 237 295 299
f 237 299 303
f 237 303 300
f 237 300 242
f 237 242 296
f 238 301 239
f 239 301 240
f 240 302 242
f 240 242 241
f 242 303 243
f 242 302 297
f 242 297 296
f 242 300 303
f 243 303 304
f 243 304 244
f 244 304 303
f 244 303 305
f 244 305 306
f 244 306 246
f 246 306 254
f 246 254 252
f 247 249 307
f 247 307 250
f 248 260 308
f 248 308 249
f 249 308 309
f 249 309 310
f 249 310 307
f 250 307 311
f 250 311 251
f 251 311 312
f 251 312 313
f 251 313 262
f 252 254 253
f 254 306 314
f 254 314 255
f 255 314 315
f 255 315 316
f 255 316 317
f 255 317 256
f 256 317 257
f 257 317 318
f 257 318 319
f 257 319 258
f 258 319 259
f 259 320 260
f 259 319 321
f 259 321 320
f 260 320 322
f 260 322 323
f 260 323 308
f 262 313 263
f 263 313 324
f 263 324 264
f 264 324 266
f 265 266 325
f 266 324 326
f 266 326 325
f 268 327 269
f 269 327 328
f 269 328 329
f 269 329 273
f 270 273 330
f 270 330 331
f 270 331 271
f 271 332 333
f 271 333 276
f 271 276 275
f 271 275 274
f 271 274 272
f 271 331 334
f 271 334 332
f 273 329 335
f 273 335 330
f 276 333 277
f 277 336 278
f 277 333 337
f 277 337 336
f 278 290 338
f 278 338 279
f 278 336 337
f 278 337 339
f 278 339 340
f 278 340 341
f 278 341 286
f 279 338 342
f 279 342 343
f 279 343 344
f 279 344 345
f 279 345 346
f 279 346 280
f 280 346 345
f 280 345 347
f 280 347 348
f 280 348 281
f 283 349 350
f 283 350 285
f 283 285 284
f 285 350 290
f 286 341 351
f 286 351 317
f 286 317 287
f 287 289 288
f 287 317 289
f 289 317 352
f 289 352 291
f 290 350 353
f 290 353 354
f 290 354 338
f 291 352 315
f 291 315 294
f 291 294 293
f 294 315 355
f 294 355 305
f 294 305 303
f 294 303 295
f 295 303 299
f 305 355 306
f 306 355 314
f 307 310 356
f 307 356 311
f 308 323 357
f 308 357 309
f 309 357 310
f 310 357 358
f 310 358 359
f 310 359 360
f 310 360 361
f 310 361 356
f 311 313 312
f 311 356 362
f 311 362 313
f 313 362 363
f 313 363 364
f 313 364 329
f 313 329 324
f 314 355 315
f 315 352 316
f 316 352 317
f 317 351 318
f 318 351 365
f 318 365 366
f 318 366 321
f 318 321 319
f 320 321 366
f 320 366 322
f 322 366 323
f 323 366 367
f 323 367 368
f 323 368 358
f 323 358 357
f 324 369 370
f 324 370 326
f 324 329 371
f 324 371 369
f 327 372 369
f 327 369 371
f 327 371 328
f 328 371 329
f 329 364 335
f 330 335 373
f 330 373 331
f 331 373 334
f 332 361 333
f 332 334 374
f 332 374 356
f 332 356 361
f 333 361 360
f 333 360 337
f 334 373 374
f 335 364 363
f 335 363 373
f 337 365 339
f 337 360 368
f 337 368 375
f 337 375 376
f 337 376 365
f 338 354 377
f 338 377 378
f 338 378 342
f 339 365 340
f 340 365 341
f 341 365 351
f 342 378 379
f 342 379 343
f 343 379 378
f 343 378 344
f 344 378 380
f 344 380 345
f 345 380 381
f 345 381 382
f 345 382 347
f 349 377 383
f 349 383 354
f 349 354 353
f 349 353 384
f 349 384 350
f 350 384 353
f 354 383 377
f 356 374 362
f 358 368 359
f 359 368 360
f 362 374 373
f 362 373 363
f 365 376 366
f 366 376 367
f 367 376 368
f 368 376 375
f 369 372 370
f 377 385 381
f 377 381 380
f 377 380 378
f 381 385 382
