v 0.510447 0.556489 -0.100166
v 0.509849 0.556346 -0.111951
v 0.50265 0.556489 -0.100166
v 0.52243 0.556435 9.08653e-05
v 0.52243 0.556435 -0.00589685
v 0.521904 0.556435 -0.0176822
v 0.509108 0.555916 -0.123737
v 0.500975 0.555898 -0.138618
v 0.502028 0.556346 -0.111951
v 0.521187 0.556113 -0.0294675
v 0.49313 0.555146 -0.138618
v 0.514705 0.556435 9.08653e-05
v 0.528314 0.551904 9.08653e-05
v 0.528314 0.551904 -0.00589685
v 0.507984 0.55502 -0.135522
v 0.520421 0.555594 -0.0412529
v 0.519656 0.554967 -0.0530382
v 0.519034 0.554376 -0.0624882
v 0.515757 0.550632 -0.111951
v 0.514992 0.549718 -0.123737
v 0.50088 0.555934 -0.135522
v 0.507577 0.554644 -0.138618
v 0.491599 0.554107 -0.138618
v 0.511787 0.554358 9.08653e-05
v 0.530945 0.549002 9.08653e-05
v 0.533624 0.54601 -0.00589685
v 0.527812 0.55099 -0.0176822
v 0.5148 0.547336 -0.136622
v 0.516379 0.545097 -0.138618
v 0.527094 0.550077 -0.0294675
v 0.5231 0.549163 -0.0657875
v 0.541015 0.517243 -0.135522
v 0.529917 0.529854 -0.138305
v 0.519249 0.542947 -0.133417
v 0.508797 0.552208 9.08653e-05
v 0.466772 0.53435 -0.138618
v 0.533624 0.54601 9.08653e-05
v 0.539532 0.539061 -0.00589685
v 0.538767 0.538165 -0.0176822
v 0.530036 0.529603 -0.138618
v 0.541446 0.529531 -0.0530382
v 0.54257 0.51907 -0.111951
v 0.553644 0.518229 -0.0332557
v 0.550008 0.513948 -0.0883806
v 0.550128 0.511816 -0.101049
v 0.554314 0.50732 -0.0977084
v 0.545799 0.51135 -0.135522
v 0.545464 0.510956 -0.138618
v 0.541924 0.515309 -0.138618
v 0.463854 0.532021 -0.138618
v 0.460673 0.529477 -0.138618
v 0.498918 0.543861 9.08653e-05
v 0.539532 0.539061 9.08653e-05
v 0.547521 0.529657 9.08653e-05
v 0.561322 0.513392 -0.00589685
v 0.565819 0.506962 -0.0128757
v 0.554314 0.505529 -0.0977084
v 0.547138 0.500872 -0.135522
v 0.546469 0.503218 -0.138618
v 0.491815 0.537807 9.08653e-05
v 0.495929 0.541317 9.08653e-05
v 0.453521 0.523351 -0.138618
v 0.561322 0.513392 9.08653e-05
v 0.563738 0.51049 9.08653e-05
v 0.566201 0.507499 -0.00589685
v 0.565819 0.506335 -0.0128757
v 0.552496 0.498095 -0.0883806
v 0.552113 0.501319 -0.101049
v 0.548789 0.500872 -0.123737
v 0.543216 0.494047 -0.138618
v 0.546445 0.500746 -0.138618
v 0.488036 0.534565 9.08653e-05
v 0.450149 0.52045 -0.138618
v 0.566201 0.507499 9.08653e-05
v 0.566201 0.505153 -0.00589685
v 0.563809 0.499259 -0.00589685
v 0.553285 0.496322 -0.0765953
v 0.55374 0.495319 -0.0694535
v 0.543479 0.493814 -0.135522
v 0.433453 0.373497 -0.103642
v 0.43209 0.373497 -0.111951
v 0.431229 0.373497 -0.114979
v 0.428861 0.373497 -0.122963
v 0.427857 0.373497 -0.125407
v 0.422379 0.373497 -0.138618
v 0.478301 0.52602 9.08653e-05
v 0.445102 0.515918 -0.138618
v 0.566201 0.505153 9.08653e-05
v 0.565029 0.502251 9.08653e-05
v 0.563809 0.499259 9.08653e-05
v 0.557925 0.491575 -0.00589685
v 0.55716 0.492238 -0.0176822
v 0.556371 0.492883 -0.0294675
v 0.554242 0.494692 -0.0616057
v 0.43398 0.373497 -0.0998808
v 0.433669 0.373497 -0.102175
v 0.321897 0.373497 -0.138618
v 0.474569 0.522617 9.08653e-05
v 0.423766 0.49634 -0.138618
v 0.47079 0.51916 9.08653e-05
v 0.557925 0.491575 9.08653e-05
v 0.446298 0.373497 -0.00589685
v 0.444767 0.373497 -0.0178451
v 0.44326 0.373497 -0.0294675
v 0.352657 0.373497 9.08653e-05
v 0.354235 0.376095 9.08653e-05
v 0.374351 0.407351 9.08653e-05
v 0.325605 0.379032 -0.138618
v 0.422905 0.495516 -0.138618
v 0.41738 0.490178 -0.138618
v 0.458903 0.507481 9.08653e-05
v 0.446298 0.373497 9.08653e-05
v 0.381311 0.417221 9.08653e-05
v 0.342132 0.402855 -0.138618
v 0.336751 0.395117 -0.138618
v 0.331226 0.387164 -0.138618
v 0.411735 0.484571 -0.138618
v 0.447015 0.495784 9.08653e-05
v 0.40267 0.445308 9.08653e-05
v 0.349739 0.413388 -0.138618
v 0.345146 0.407119 -0.138618
v 0.411185 0.483998 -0.138618
v 0.441155 0.489623 9.08653e-05
v 0.40566 0.449015 9.08653e-05
v 0.351461 0.415591 -0.138618
v 0.405684 0.478195 -0.138618
v 0.390304 0.461894 -0.138618
v 0.438333 0.486631 9.08653e-05
v 0.408578 0.452634 9.08653e-05
v 0.35292 0.4174 -0.138618
v 0.386501 0.457739 -0.138618
v 0.435606 0.483729 9.08653e-05
v 0.413481 0.458509 9.08653e-05
v 0.375403 0.445128 -0.138618
v 0.371002 0.439737 -0.138618
v 0.35988 0.426016 -0.138618
v 0.356029 0.421251 -0.138618
v 0.382914 0.453798 -0.138618
v 0.428885 0.476188 9.08653e-05
v 0.380211 0.450789 -0.138618
v 0.416734 0.462271 9.08653e-05
v 0.420322 0.466408 9.08653e-05
f 1 2 9
f 1 9 3
f 1 3 12
f 1 12 4
f 1 4 5
f 1 5 6
f 1 6 2
f 2 7 8
f 2 8 9
f 2 6 10
f 2 10 7
f 3 9 11
f 3 11 12
f 4 12 24
f 4 24 35
f 4 35 52
f 4 52 61
f 4 61 60
f 4 60 72
f 4 72 86
f 4 86 98
f 4 98 100
f 4 100 111
f 4 111 118
f 4 118 123
f 4 123 128
f 4 128 132
f 4 132 139
f 4 139 142
f 4 142 141
f 4 141 133
f 4 133 129
f 4 129 124
f 4 124 119
f 4 119 113
f 4 113 107
f 4 107 106
f 4 106 105
f 4 105 112
f 4 112 101
f 4 101 90
f 4 90 89
f 4 89 88
f 4 88 74
f 4 74 64
f 4 64 63
f 4 63 54
f 4 54 53
f 4 53 37
f 4 37 25
f 4 25 13
f 4 13 14
f 4 14 5
f 5 14 6
f 6 14 10
f 7 15 8
f 7 10 16
f 7 16 17
f 7 17 18
f 7 18 19
f 7 19 20
f 7 20 15
f 8 21 9
f 8 15 22
f 8 22 29
f 8 29 40
f 8 40 49
f 8 49 48
f 8 48 59
f 8 59 71
f 8 71 70
f 8 70 85
f 8 85 97
f 8 97 108
f 8 108 116
f 8 116 115
f 8 115 114
f 8 114 121
f 8 121 120
f 8 120 125
f 8 125 130
f 8 130 137
f 8 137 136
f 8 136 135
f 8 135 134
f 8 134 140
f 8 140 138
f 8 138 131
f 8 131 127
f 8 127 126
f 8 126 122
f 8 122 117
f 8 117 110
f 8 110 109
f 8 109 99
f 8 99 87
f 8 87 73
f 8 73 62
f 8 62 51
f 8 51 50
f 8 50 36
f 8 36 23
f 8 23 11
f 8 11 21
f 9 21 11
f 10 14 16
f 11 23 12
f 12 23 24
f 13 25 14
f 14 25 26
f 14 26 27
f 14 27 17
f 14 17 16
f 15 20 28
f 15 28 29
f 15 29 22
f 17 27 18
f 18 27 30
f 18 30 19
f 19 30 31
f 19 31 20
f 20 31 32
f 20 32 33
f 20 33 34
f 20 34 28
f 23 35 24
f 23 36 35
f 25 37 26
f 26 30 27
f 26 37 53
f 26 53 38
f 26 38 39
f 26 39 30
f 28 34 33
f 28 33 29
f 29 33 40
f 30 39 31
f 31 39 41
f 31 41 42
f 31 42 32
f 32 42 43
f 32 43 44
f 32 44 45
f 32 45 46
f 32 46 47
f 32 47 48
f 32 48 49
f 32 49 33
f 33 49 40
f 35 36 50
f 35 50 51
f 35 51 52
f 38 53 54
f 38 54 55
f 38 55 39
f 39 55 43
f 39 43 41
f 41 43 42
f 43 55 44
f 44 55 56
f 44 56 45
f 45 56 46
f 46 56 66
f 46 66 57
f 46 57 58
f 46 58 59
f 46 59 48
f 46 48 47
f 51 60 61
f 51 61 52
f 51 62 60
f 54 63 55
f 55 63 64
f 55 64 65
f 55 65 56
f 56 65 75
f 56 75 66
f 57 67 68
f 57 68 69
f 57 69 58
f 57 66 67
f 58 70 71
f 58 71 59
f 58 69 67
f 58 67 70
f 60 62 72
f 62 73 72
f 64 74 65
f 65 74 88
f 65 88 75
f 66 75 76
f 66 76 67
f 67 76 77
f 67 77 70
f 67 69 68
f 70 77 78
f 70 78 79
f 70 79 80
f 70 80 81
f 70 81 82
f 70 82 83
f 70 83 84
f 70 84 85
f 72 73 86
f 73 87 86
f 75 89 76
f 75 88 89
f 76 89 90
f 76 90 101
f 76 101 91
f 76 91 92
f 76 92 93
f 76 93 94
f 76 94 78
f 76 78 77
f 78 94 79
f 79 94 95
f 79 95 96
f 79 96 80
f 80 96 95
f 80 95 104
f 80 104 103
f 80 103 102
f 80 102 112
f 80 112 105
f 80 105 97
f 80 97 85
f 80 85 84
f 80 84 83
f 80 83 82
f 80 82 81
f 86 87 98
f 87 99 100
f 87 100 98
f 91 101 112
f 91 112 102
f 91 102 92
f 92 102 93
f 93 102 94
f 94 102 103
f 94 103 104
f 94 104 95
f 97 105 106
f 97 106 107
f 97 107 108
f 99 109 100
f 100 109 110
f 100 110 111
f 107 113 114
f 107 114 115
f 107 115 116
f 107 116 108
f 110 117 118
f 110 118 111
f 113 119 120
f 113 120 121
f 113 121 114
f 117 122 118
f 118 122 123
f 119 124 125
f 119 125 120
f 122 126 123
f 123 126 127
f 123 127 128
f 124 129 130
f 124 130 125
f 127 131 132
f 127 132 128
f 129 133 134
f 129 134 135
f 129 135 136
f 129 136 137
f 129 137 130
f 131 138 132
f 132 138 140
f 132 140 139
f 133 141 140
f 133 140 134
f 139 140 142
f 140 141 142
