v 0.467539 0.556129 -0.206248
v 0.462801 0.556057 -0.241605
v 0.441618 0.555914 -0.265097
v 0.491509 0.556039 -0.147324
v 0.486709 0.556111 -0.182681
v 0.461004 0.555074 -0.250843
v 0.451404 0.555664 -0.265134
v 0.445272 0.555825 -0.265134
v 0.441649 0.555914 -0.265134
v 0.497641 0.555896 -0.159113
v 0.473702 0.555664 -0.218025
v 0.441587 0.555896 -0.265134
v 0.430376 0.550212 -0.265134
v 0.430376 0.550212 -0.265097
v 0.493119 0.555146 -0.13863
v 0.500985 0.555896 -0.13863
v 0.459177 0.553662 -0.258707
v 0.495968 0.554788 -0.167411
v 0.472122 0.554574 -0.225654
v 0.457257 0.55182 -0.265134
v 0.501233 0.555807 -0.146618
v 0.507551 0.554645 -0.13863
v 0.507086 0.554216 -0.142209
v 0.427 0.547923 -0.265134
v 0.421364 0.544098 -0.265134
v 0.491602 0.554109 -0.13863
v 0.406468 0.533961 -0.265134
v 0.465928 0.54846 -0.254348
v 0.474662 0.533979 -0.265134
v 0.469087 0.539825 -0.265134
v 0.463172 0.545957 -0.265134
v 0.48324 0.553948 -0.200464
v 0.512041 0.5498 -0.13863
v 0.518514 0.542095 -0.14128
v 0.510648 0.548334 -0.146618
v 0.500892 0.548031 -0.170916
v 0.487235 0.550641 -0.13863
v 0.394978 0.525863 -0.265134
v 0.394049 0.525202 -0.265134
v 0.392346 0.52395 -0.265134
v 0.383613 0.517336 -0.265134
v 0.382064 0.516138 -0.265134
v 0.367787 0.504911 -0.265134
v 0.359023 0.497993 -0.265134
v 0.474197 0.545188 -0.241605
v 0.472463 0.543275 -0.250001
v 0.531923 0.520285 -0.157021
v 0.49185 0.515101 -0.265134
v 0.516377 0.545099 -0.13863
v 0.529663 0.530028 -0.13863
v 0.530034 0.529599 -0.13863
v 0.539604 0.515727 -0.147324
v 0.53372 0.522431 -0.147324
v 0.528517 0.52833 -0.147324
v 0.51486 0.538055 -0.159113
v 0.466765 0.534337 -0.13863
v 0.348494 0.48934 -0.265134
v 0.460664 0.529474 -0.13863
v 0.543196 0.508111 -0.156055
v 0.536786 0.513313 -0.160463
v 0.529043 0.517121 -0.170903
v 0.51582 0.515566 -0.206248
v 0.49699 0.509237 -0.265134
v 0.526597 0.51444 -0.182681
v 0.503432 0.512545 -0.242732
v 0.541927 0.515298 -0.13863
v 0.544559 0.509845 -0.147324
v 0.347565 0.488554 -0.265134
v 0.45351 0.52336 -0.13863
v 0.546479 0.503231 -0.13863
v 0.543196 0.503964 -0.156055
v 0.530561 0.507056 -0.189133
v 0.497021 0.509184 -0.265134
v 0.545457 0.510954 -0.13863
v 0.335394 0.477792 -0.265134
v 0.450134 0.520446 -0.13863
v 0.546448 0.500746 -0.13863
v 0.544435 0.50037 -0.14746
v 0.541555 0.496098 -0.151472
v 0.540192 0.50037 -0.159634
v 0.530561 0.506091 -0.189133
v 0.496805 0.5013 -0.265134
v 0.508201 0.503177 -0.239561
v 0.32152 0.465117 -0.265134
v 0.445086 0.515923 -0.13863
v 0.543196 0.494042 -0.13863
v 0.542763 0.494417 -0.143609
v 0.422355 0.373497 -0.13863
v 0.530437 0.4949 -0.177046
v 0.517709 0.496688 -0.210087
v 0.528827 0.498243 -0.184897
v 0.505569 0.499906 -0.242732
v 0.496898 0.501085 -0.264713
v 0.496526 0.500656 -0.265134
v 0.312725 0.457001 -0.265134
v 0.423749 0.49633 -0.13863
v 0.437561 0.509023 -0.13863
v 0.418794 0.373497 -0.147274
v 0.321891 0.373497 -0.13863
v 0.495473 0.494596 -0.260478
v 0.506591 0.495311 -0.235289
v 0.407583 0.373497 -0.174358
v 0.397766 0.373497 -0.198037
v 0.494513 0.496187 -0.265134
v 0.310835 0.455249 -0.265134
v 0.422881 0.495508 -0.13863
v 0.325608 0.379039 -0.13863
v 0.23013 0.373497 -0.265134
v 0.489465 0.49136 -0.265134
v 0.393461 0.373497 -0.20839
v 0.391355 0.373497 -0.213406
v 0.389342 0.373497 -0.218025
v 0.308791 0.4533 -0.265134
v 0.417369 0.49018 -0.13863
v 0.340318 0.400277 -0.13863
v 0.345149 0.407106 -0.13863
v 0.349764 0.413381 -0.13863
v 0.351467 0.415598 -0.13863
v 0.352922 0.417403 -0.13863
v 0.35989 0.42602 -0.13863
v 0.371008 0.439732 -0.13863
v 0.372866 0.44202 -0.13863
v 0.375406 0.44513 -0.13863
v 0.380237 0.450797 -0.13863
v 0.382931 0.453801 -0.13863
v 0.386493 0.457734 -0.13863
v 0.390271 0.461881 -0.13863
v 0.411144 0.483995 -0.13863
v 0.411702 0.484567 -0.13863
v 0.299036 0.443522 -0.265134
v 0.355276 0.373497 -0.265134
v 0.389249 0.376733 -0.224428
v 0.384077 0.373497 -0.227462
v 0.382219 0.373497 -0.229988
v 0.371411 0.373497 -0.244131
v 0.300987 0.445488 -0.265134
f 1 2 3
f 1 3 4
f 1 4 5
f 1 5 2
f 2 6 7
f 2 7 8
f 2 8 9
f 2 9 3
f 2 5 10
f 2 10 11
f 2 11 6
f 3 9 12
f 3 12 13
f 3 13 14
f 3 14 15
f 3 15 4
f 4 15 16
f 4 16 5
f 5 16 10
f 6 17 7
f 6 11 18
f 6 18 19
f 6 19 17
f 7 17 20
f 7 20 31
f 7 31 30
f 7 30 29
f 7 29 48
f 7 48 63
f 7 63 73
f 7 73 82
f 7 82 94
f 7 94 104
f 7 104 109
f 7 109 131
f 7 131 108
f 7 108 130
f 7 130 136
f 7 136 113
f 7 113 105
f 7 105 95
f 7 95 84
f 7 84 75
f 7 75 68
f 7 68 57
f 7 57 44
f 7 44 43
f 7 43 42
f 7 42 41
f 7 41 40
f 7 40 39
f 7 39 38
f 7 38 27
f 7 27 25
f 7 25 24
f 7 24 13
f 7 13 12
f 7 12 9
f 7 9 8
f 10 18 11
f 10 16 21
f 10 21 22
f 10 22 23
f 10 23 18
f 13 24 14
f 14 24 25
f 14 25 15
f 15 26 37
f 15 37 56
f 15 56 58
f 15 58 69
f 15 69 76
f 15 76 85
f 15 85 97
f 15 97 96
f 15 96 106
f 15 106 114
f 15 114 129
f 15 129 128
f 15 128 127
f 15 127 126
f 15 126 125
f 15 125 124
f 15 124 123
f 15 123 122
f 15 122 121
f 15 121 120
f 15 120 119
f 15 119 118
f 15 118 117
f 15 117 116
f 15 116 115
f 15 115 107
f 15 107 99
f 15 99 88
f 15 88 86
f 15 86 77
f 15 77 70
f 15 70 74
f 15 74 66
f 15 66 51
f 15 51 50
f 15 50 49
f 15 49 33
f 15 33 22
f 15 22 16
f 15 25 27
f 15 27 26
f 16 22 21
f 17 28 29
f 17 29 30
f 17 30 31
f 17 31 20
f 17 19 32
f 17 32 28
f 18 23 19
f 19 23 32
f 22 33 23
f 23 33 34
f 23 34 35
f 23 35 36
f 23 36 32
f 26 27 38
f 26 38 39
f 26 39 40
f 26 40 41
f 26 41 42
f 26 42 43
f 26 43 44
f 26 44 37
f 28 32 36
f 28 36 45
f 28 45 46
f 28 46 29
f 29 46 47
f 29 47 48
f 33 49 34
f 34 50 51
f 34 51 52
f 34 52 53
f 34 53 54
f 34 54 47
f 34 47 35
f 34 49 50
f 35 55 36
f 35 47 55
f 36 55 47
f 36 47 46
f 36 46 45
f 37 44 56
f 44 57 58
f 44 58 56
f 47 54 59
f 47 59 60
f 47 60 61
f 47 61 62
f 47 62 48
f 48 62 64
f 48 64 65
f 48 65 63
f 51 66 67
f 51 67 52
f 52 67 59
f 52 59 53
f 53 59 54
f 57 68 58
f 58 68 69
f 59 67 70
f 59 70 71
f 59 71 81
f 59 81 72
f 59 72 60
f 60 72 64
f 60 64 61
f 61 64 62
f 63 65 72
f 63 72 73
f 64 72 65
f 66 74 67
f 67 74 70
f 68 75 76
f 68 76 69
f 70 77 71
f 71 77 78
f 71 78 79
f 71 79 80
f 71 80 81
f 72 81 73
f 73 81 83
f 73 83 82
f 75 84 85
f 75 85 76
f 77 86 87
f 77 87 78
f 78 87 79
f 79 87 88
f 79 88 89
f 79 89 90
f 79 90 91
f 79 91 80
f 80 91 81
f 81 91 90
f 81 90 92
f 81 92 93
f 81 93 82
f 81 82 83
f 82 93 94
f 84 95 96
f 84 96 97
f 84 97 85
f 86 88 87
f 88 98 89
f 88 99 108
f 88 108 131
f 88 131 135
f 88 135 134
f 88 134 133
f 88 133 112
f 88 112 111
f 88 111 110
f 88 110 103
f 88 103 102
f 88 102 98
f 89 100 101
f 89 101 90
f 89 98 102
f 89 102 103
f 89 103 100
f 90 101 92
f 92 101 104
f 92 104 93
f 93 104 94
f 95 105 96
f 96 105 106
f 99 107 108
f 100 109 104
f 100 104 101
f 100 103 110
f 100 110 111
f 100 111 112
f 100 112 109
f 105 113 106
f 106 113 114
f 107 115 108
f 108 115 116
f 108 116 117
f 108 117 118
f 108 118 119
f 108 119 120
f 108 120 121
f 108 121 122
f 108 122 123
f 108 123 124
f 108 124 125
f 108 125 126
f 108 126 127
f 108 127 128
f 108 128 129
f 108 129 130
f 109 112 132
f 109 132 133
f 109 133 134
f 109 134 135
f 109 135 131
f 112 133 132
f 113 136 129
f 113 129 114
f 129 136 130
