v 0.211443 0.506376 -0.519953
v 0.211443 0.508467 -0.519953
v 0.214294 0.504553 -0.519355
v 0.211443 0.503194 -0.519928
v 0.211443 0.510576 -0.518107
v 0.214294 0.507806 -0.519355
v 0.211443 0.497349 -0.517434
v 0.27253 0.50516 -0.495534
v 0.211443 0.514491 -0.514615
v 0.242755 0.512543 -0.503416
v 0.27253 0.507502 -0.495534
v 0.235318 0.495312 -0.506584
v 0.211443 0.495955 -0.516461
v 0.268364 0.497314 -0.493863
v 0.294728 0.506644 -0.483237
v 0.288354 0.501979 -0.485432
v 0.276668 0.501085 -0.491792
v 0.211443 0.520854 -0.508854
v 0.229839 0.516672 -0.505037
v 0.265177 0.515099 -0.491842
v 0.273145 0.519675 -0.48421
v 0.276779 0.512525 -0.489024
v 0.288773 0.508986 -0.485307
v 0.294728 0.506823 -0.483237
v 0.211443 0.373515 -0.39222
v 0.227434 0.493828 -0.50823
v 0.260508 0.494597 -0.495459
v 0.28416 0.494311 -0.484135
v 0.305016 0.496902 -0.470316
v 0.292016 0.498797 -0.481192
v 0.401051 0.505858 -0.401049
v 0.394676 0.501514 -0.403768
v 0.351789 0.497421 -0.434673
v 0.211443 0.53653 -0.494586
v 0.254385 0.54847 -0.465926
v 0.265177 0.527468 -0.480568
v 0.273229 0.531847 -0.472786
v 0.265177 0.53392 -0.474681
v 0.281001 0.51753 -0.482115
v 0.289808 0.515528 -0.477824
v 0.294449 0.518405 -0.471239
v 0.328249 0.517279 -0.446496
v 0.362022 0.516171 -0.421727
v 0.387994 0.517887 -0.399977
v 0.394816 0.509522 -0.403519
v 0.401051 0.507162 -0.401049
v 0.213428 0.373515 -0.391372
v 0.211443 0.373515 -0.279527
v 0.276975 0.492809 -0.486006
v 0.218041 0.373515 -0.389376
v 0.241553 0.373515 -0.373388
v 0.229196 0.373515 -0.382816
v 0.22749 0.373515 -0.384088
v 0.317989 0.495294 -0.459441
v 0.364734 0.495741 -0.423798
v 0.483246 0.506644 -0.294717
v 0.436668 0.505286 -0.354381
v 0.403762 0.501514 -0.394689
v 0.398534 0.498011 -0.39853
v 0.377706 0.494686 -0.412922
v 0.211443 0.549596 -0.482688
v 0.258719 0.553654 -0.459167
v 0.211443 0.551473 -0.480967
v 0.225673 0.554565 -0.472137
v 0.265177 0.551795 -0.457246
v 0.272977 0.543501 -0.461038
v 0.286565 0.521248 -0.474257
v 0.290339 0.525609 -0.46675
v 0.280526 0.552224 -0.446047
v 0.327942 0.528844 -0.434473
v 0.379803 0.532294 -0.390997
v 0.387659 0.529434 -0.38768
v 0.390986 0.532294 -0.379823
v 0.399988 0.517887 -0.388004
v 0.403511 0.509522 -0.394814
v 0.483246 0.506823 -0.294717
v 0.211443 0.377251 -0.28237
v 0.219718 0.373515 -0.273116
v 0.330961 0.494489 -0.448566
v 0.275493 0.373515 -0.347372
v 0.495547 0.50516 -0.272543
v 0.485426 0.501979 -0.288357
v 0.481177 0.498797 -0.292023
v 0.470301 0.496902 -0.304994
v 0.434683 0.497421 -0.351787
v 0.412932 0.494686 -0.377753
v 0.423808 0.495741 -0.364757
v 0.402057 0.49406 -0.390698
v 0.390678 0.49406 -0.402072
v 0.308875 0.373515 -0.321681
v 0.301298 0.373515 -0.327542
v 0.28936 0.373515 -0.336721
v 0.288354 0.373515 -0.337494
v 0.27267 0.554834 -0.449065
v 0.250863 0.555084 -0.461013
v 0.211443 0.555692 -0.475654
v 0.218041 0.555674 -0.473709
v 0.276751 0.547863 -0.453555
v 0.280833 0.540659 -0.458069
v 0.30647 0.55394 -0.424296
v 0.340299 0.552832 -0.399528
v 0.336525 0.54847 -0.407061
v 0.340606 0.541267 -0.411575
v 0.366523 0.542983 -0.38985
v 0.374379 0.540141 -0.386832
v 0.370297 0.547344 -0.382317
v 0.378936 0.543823 -0.378975
v 0.382291 0.547344 -0.37032
v 0.399541 0.552832 -0.340288
v 0.407229 0.53939 -0.348868
v 0.421739 0.516171 -0.362063
v 0.468903 0.516189 -0.300554
v 0.471252 0.518405 -0.294443
v 0.477822 0.515528 -0.289803
v 0.482127 0.51753 -0.280998
v 0.485286 0.508986 -0.288756
v 0.495547 0.507502 -0.272543
v 0.211443 0.377859 -0.282844
v 0.300963 0.445478 -0.265134
v 0.227602 0.373515 -0.26703
v 0.497029 0.509182 -0.265134
v 0.496805 0.5013 -0.265134
v 0.496553 0.500656 -0.265134
v 0.493841 0.497314 -0.268352
v 0.491801 0.501085 -0.276683
v 0.484112 0.494311 -0.284166
v 0.459426 0.495294 -0.317989
v 0.44855 0.494489 -0.330959
v 0.351398 0.373515 -0.270223
v 0.346561 0.373515 -0.276533
v 0.33577 0.373515 -0.290601
v 0.324922 0.373515 -0.304694
v 0.321679 0.373515 -0.308885
v 0.315864 0.373515 -0.315869
v 0.310692 0.373515 -0.320184
v 0.265177 0.555674 -0.45136
v 0.285642 0.555352 -0.43819
v 0.332443 0.555209 -0.402546
v 0.366215 0.55444 -0.377827
v 0.241609 0.556067 -0.462784
v 0.211443 0.555924 -0.470242
v 0.349497 0.549328 -0.396186
v 0.345723 0.544967 -0.403718
v 0.37779 0.55444 -0.366229
v 0.374072 0.551688 -0.374086
v 0.407061 0.54847 -0.336522
v 0.424283 0.55394 -0.306465
v 0.446034 0.552224 -0.280524
v 0.453555 0.547863 -0.276758
v 0.466751 0.525609 -0.290352
v 0.474243 0.521248 -0.286586
v 0.472762 0.531847 -0.273216
v 0.484196 0.519675 -0.273141
v 0.489005 0.512525 -0.276758
v 0.461047 0.543501 -0.272967
v 0.491829 0.515099 -0.265184
v 0.497001 0.5092 -0.265184
v 0.485985 0.521551 -0.265134
v 0.211443 0.38617 -0.289554
v 0.308791 0.453307 -0.265134
v 0.230118 0.373515 -0.265134
v 0.491829 0.515099 -0.265134
v 0.494512 0.496188 -0.265134
v 0.485985 0.492809 -0.276982
v 0.355256 0.373515 -0.265134
v 0.355228 0.373515 -0.265184
v 0.276751 0.555924 -0.442056
v 0.345415 0.55562 -0.391696
v 0.35945 0.555549 -0.380347
v 0.370577 0.555316 -0.370594
v 0.211443 0.555978 -0.466251
v 0.430797 0.556103 -0.289254
v 0.289248 0.556085 -0.430782
v 0.380334 0.555549 -0.359469
v 0.391685 0.55562 -0.345401
v 0.40256 0.555209 -0.332431
v 0.413436 0.554637 -0.319461
v 0.449054 0.554834 -0.272667
v 0.474663 0.533974 -0.265134
v 0.457273 0.551813 -0.265134
v 0.4632 0.545914 -0.265184
v 0.469099 0.539819 -0.265184
v 0.211443 0.396877 -0.298209
v 0.31086 0.455255 -0.265134
v 0.211443 0.416289 -0.314572
v 0.211443 0.409943 -0.308885
v 0.211443 0.406315 -0.305892
v 0.211443 0.403741 -0.303771
v 0.48948 0.491361 -0.265134
v 0.336189 0.556085 -0.395288
v 0.211443 0.553207 -0.460614
v 0.43446 0.554905 -0.269001
v 0.441561 0.555906 -0.265134
v 0.441645 0.555906 -0.265134
v 0.442036 0.555924 -0.276758
v 0.395291 0.556085 -0.336172
v 0.438178 0.555352 -0.285638
v 0.451346 0.555674 -0.265184
v 0.451402 0.555656 -0.265134
v 0.469099 0.539837 -0.265134
v 0.463172 0.54595 -0.265134
v 0.312733 0.457007 -0.265134
v 0.211443 0.425548 -0.323277
v 0.321511 0.465104 -0.265134
v 0.211443 0.547791 -0.453654
v 0.406251 0.533813 -0.265134
v 0.430378 0.550222 -0.265134
v 0.451346 0.555674 -0.265134
v 0.211443 0.440562 -0.337395
v 0.334679 0.477133 -0.265134
v 0.211443 0.446514 -0.343032
v 0.211443 0.533992 -0.436194
v 0.394033 0.525198 -0.265134
v 0.211443 0.532097 -0.433825
v 0.335406 0.477795 -0.265134
v 0.211443 0.45252 -0.348918
v 0.392356 0.523947 -0.265134
v 0.211443 0.52779 -0.428537
v 0.347568 0.488555 -0.265134
v 0.211443 0.487733 -0.384537
v 0.383577 0.517333 -0.265134
v 0.211443 0.523982 -0.424072
v 0.211443 0.521408 -0.421054
v 0.347959 0.488895 -0.265134
v 0.211443 0.493471 -0.390523
v 0.382039 0.516135 -0.265134
v 0.211443 0.5161 -0.415167
v 0.359002 0.497993 -0.265134
v 0.359701 0.498547 -0.265134
v 0.367697 0.504857 -0.265134
v 0.373624 0.509522 -0.265134
v 0.373988 0.509808 -0.265134
v 0.34849 0.489342 -0.265134
v 0.211443 0.499047 -0.39651
v 0.211443 0.509844 -0.408308
f 1 2 6
f 1 6 3
f 1 3 4
f 1 4 7
f 1 7 13
f 1 13 25
f 1 25 48
f 1 48 77
f 1 77 118
f 1 118 159
f 1 159 183
f 1 183 188
f 1 188 187
f 1 187 186
f 1 186 185
f 1 185 203
f 1 203 209
f 1 209 211
f 1 211 216
f 1 216 220
f 1 220 225
f 1 225 234
f 1 234 235
f 1 235 227
f 1 227 223
f 1 223 222
f 1 222 218
f 1 218 214
f 1 214 212
f 1 212 205
f 1 205 191
f 1 191 171
f 1 171 141
f 1 141 96
f 1 96 63
f 1 63 61
f 1 61 34
f 1 34 18
f 1 18 9
f 1 9 5
f 1 5 2
f 2 5 6
f 3 7 4
f 3 6 11
f 3 11 8
f 3 8 7
f 5 9 10
f 5 10 11
f 5 11 6
f 7 12 13
f 7 8 14
f 7 14 12
f 8 11 24
f 8 24 15
f 8 15 16
f 8 16 17
f 8 17 14
f 9 18 19
f 9 19 20
f 9 20 10
f 10 20 11
f 11 20 21
f 11 21 22
f 11 22 23
f 11 23 24
f 12 25 26
f 12 26 13
f 12 14 27
f 12 27 25
f 13 26 25
f 14 17 28
f 14 28 27
f 15 29 30
f 15 30 16
f 15 24 46
f 15 46 31
f 15 31 32
f 15 32 33
f 15 33 29
f 16 30 28
f 16 28 17
f 18 34 20
f 18 20 19
f 20 35 36
f 20 36 21
f 20 34 35
f 21 37 22
f 21 36 38
f 21 38 37
f 22 37 39
f 22 39 23
f 23 39 40
f 23 40 24
f 24 40 41
f 24 41 42
f 24 42 43
f 24 43 44
f 24 44 45
f 24 45 46
f 25 47 50
f 25 50 53
f 25 53 52
f 25 52 51
f 25 51 80
f 25 80 93
f 25 93 92
f 25 92 91
f 25 91 90
f 25 90 135
f 25 135 134
f 25 134 133
f 25 133 132
f 25 132 131
f 25 131 130
f 25 130 129
f 25 129 166
f 25 166 165
f 25 165 161
f 25 161 120
f 25 120 78
f 25 78 48
f 25 27 47
f 27 28 49
f 27 49 50
f 27 50 47
f 28 51 52
f 28 52 53
f 28 53 50
f 28 50 49
f 28 30 29
f 28 29 54
f 28 54 51
f 29 33 55
f 29 55 54
f 31 46 76
f 31 76 56
f 31 56 57
f 31 57 58
f 31 58 59
f 31 59 32
f 32 59 60
f 32 60 55
f 32 55 33
f 34 61 35
f 35 62 38
f 35 38 36
f 35 61 63
f 35 63 64
f 35 64 62
f 37 38 62
f 37 62 65
f 37 65 66
f 37 66 39
f 39 67 40
f 39 66 67
f 40 67 41
f 41 67 68
f 41 68 69
f 41 69 70
f 41 70 42
f 42 70 71
f 42 71 44
f 42 44 43
f 44 71 46
f 44 46 45
f 46 71 72
f 46 72 73
f 46 73 74
f 46 74 75
f 46 75 76
f 48 78 77
f 51 54 79
f 51 79 80
f 54 55 60
f 54 60 79
f 56 76 117
f 56 117 81
f 56 81 82
f 56 82 83
f 56 83 84
f 56 84 85
f 56 85 58
f 56 58 57
f 58 86 59
f 58 85 87
f 58 87 86
f 59 86 88
f 59 88 89
f 59 89 60
f 60 89 90
f 60 90 91
f 60 91 92
f 60 92 93
f 60 93 80
f 60 80 79
f 62 94 65
f 62 64 95
f 62 95 94
f 63 96 97
f 63 97 64
f 64 97 95
f 65 94 66
f 66 94 98
f 66 98 67
f 67 99 68
f 67 98 99
f 68 99 69
f 69 99 98
f 69 98 94
f 69 94 100
f 69 100 101
f 69 101 102
f 69 102 103
f 69 103 70
f 70 103 71
f 71 103 104
f 71 104 105
f 71 105 106
f 71 106 72
f 72 106 107
f 72 107 108
f 72 108 73
f 73 108 109
f 73 109 110
f 73 110 111
f 73 111 74
f 74 111 75
f 75 111 76
f 76 111 112
f 76 112 113
f 76 113 114
f 76 114 115
f 76 115 116
f 76 116 117
f 77 78 119
f 77 119 118
f 78 120 119
f 81 117 121
f 81 121 122
f 81 122 123
f 81 123 124
f 81 124 125
f 81 125 82
f 82 125 126
f 82 126 83
f 83 126 84
f 84 126 127
f 84 127 87
f 84 87 85
f 86 87 127
f 86 127 128
f 86 128 129
f 86 129 130
f 86 130 131
f 86 131 132
f 86 132 133
f 86 133 88
f 88 133 134
f 88 134 89
f 89 134 135
f 89 135 90
f 94 95 136
f 94 136 137
f 94 137 138
f 94 138 139
f 94 139 100
f 95 97 140
f 95 140 136
f 96 141 140
f 96 140 97
f 100 139 101
f 101 139 106
f 101 106 142
f 101 142 143
f 101 143 102
f 102 143 103
f 103 143 104
f 104 106 105
f 104 143 142
f 104 142 106
f 106 139 107
f 107 144 108
f 107 139 145
f 107 145 144
f 108 144 109
f 109 146 110
f 109 144 147
f 109 147 148
f 109 148 149
f 109 149 146
f 110 146 149
f 110 149 150
f 110 150 111
f 111 150 113
f 111 113 112
f 113 150 151
f 113 151 114
f 114 151 115
f 115 152 153
f 115 153 154
f 115 154 116
f 115 151 155
f 115 155 152
f 116 154 117
f 117 156 157
f 117 157 121
f 117 154 153
f 117 153 158
f 117 158 156
f 118 119 159
f 119 160 159
f 119 120 161
f 119 161 165
f 119 165 189
f 119 189 163
f 119 163 123
f 119 123 122
f 119 122 121
f 119 121 162
f 119 162 158
f 119 158 179
f 119 179 200
f 119 200 201
f 119 201 180
f 119 180 199
f 119 199 208
f 119 208 194
f 119 194 193
f 119 193 207
f 119 207 206
f 119 206 213
f 119 213 217
f 119 217 221
f 119 221 226
f 119 226 232
f 119 232 231
f 119 231 230
f 119 230 229
f 119 229 228
f 119 228 233
f 119 233 224
f 119 224 219
f 119 219 215
f 119 215 210
f 119 210 204
f 119 204 202
f 119 202 184
f 119 184 160
f 121 157 156
f 121 156 162
f 123 163 124
f 124 163 126
f 124 126 125
f 126 163 164
f 126 164 165
f 126 165 166
f 126 166 129
f 126 129 127
f 127 129 128
f 136 167 137
f 136 140 167
f 137 167 168
f 137 168 138
f 138 168 139
f 139 168 169
f 139 169 170
f 139 170 144
f 139 144 145
f 140 141 171
f 140 171 172
f 140 172 173
f 140 173 167
f 144 174 175
f 144 175 176
f 144 176 177
f 144 177 147
f 144 170 174
f 147 178 148
f 147 177 178
f 148 178 149
f 149 178 155
f 149 155 151
f 149 151 150
f 152 179 153
f 152 155 180
f 152 180 181
f 152 181 182
f 152 182 179
f 153 179 158
f 155 178 180
f 156 158 162
f 159 160 183
f 160 184 185
f 160 185 186
f 160 186 187
f 160 187 188
f 160 188 183
f 163 189 164
f 164 189 165
f 167 173 190
f 167 190 168
f 168 190 169
f 169 190 174
f 169 174 170
f 171 191 192
f 171 192 193
f 171 193 172
f 172 193 194
f 172 194 195
f 172 195 196
f 172 196 190
f 172 190 173
f 174 196 175
f 174 190 196
f 175 196 195
f 175 195 197
f 175 197 176
f 176 197 178
f 176 178 177
f 178 197 198
f 178 198 199
f 178 199 180
f 179 182 200
f 180 201 181
f 181 201 200
f 181 200 182
f 184 202 185
f 185 202 204
f 185 204 203
f 191 205 206
f 191 206 207
f 191 207 192
f 192 207 193
f 194 208 195
f 195 208 198
f 195 198 197
f 198 208 199
f 203 204 209
f 204 210 211
f 204 211 209
f 205 212 206
f 206 212 214
f 206 214 213
f 210 215 211
f 211 215 216
f 213 214 218
f 213 218 217
f 215 219 216
f 216 219 220
f 217 218 222
f 217 222 223
f 217 223 221
f 219 224 220
f 220 224 225
f 221 223 226
f 223 227 228
f 223 228 229
f 223 229 230
f 223 230 231
f 223 231 232
f 223 232 226
f 224 233 225
f 225 233 228
f 225 228 234
f 227 235 228
f 228 235 234
