v 0.138994 0.0771744 -0.213475
v 0.22678 0.0771744 -0.116306
v 0.227322 0.0825114 -0.116306
v 0.227922 0.0883996 -0.116306
v 0.139366 0.080568 -0.213475
v 0.254604 0.0771744 -0.213475
v 0.311137 0.0771744 -0.116306
v 0.139394 0.0807711 -0.213475
v 0.229608 0.100292 -0.116306
v 0.261802 0.0771744 -0.204144
v 0.391324 0.373497 -0.213475
v 0.298111 0.0771744 -0.147763
v 0.42886 0.373497 -0.122974
v 0.430803 0.373497 -0.116306
v 0.139908 0.0840777 -0.213475
v 0.230665 0.107601 -0.116306
v 0.232636 0.120886 -0.116306
v 0.233064 0.123758 -0.116306
v 0.267916 0.0771744 -0.196191
v 0.277885 0.373497 -0.213475
v 0.391352 0.373497 -0.213409
v 0.292712 0.0771744 -0.160529
v 0.28617 0.0771744 -0.171792
v 0.279257 0.0771744 -0.181352
v 0.272429 0.0771744 -0.190293
v 0.295111 0.0771744 -0.154926
v 0.393466 0.373497 -0.208386
v 0.39778 0.373497 -0.198018
v 0.417633 0.373497 -0.150084
v 0.331077 0.373497 -0.116306
v 0.235121 0.135563 -0.116306
v 0.236664 0.143017 -0.116306
v 0.146822 0.115607 -0.213475
v 0.276286 0.371409 -0.213475
v 0.329905 0.371728 -0.116306
v 0.271944 0.365666 -0.213475
v 0.270658 0.363925 -0.213475
v 0.260317 0.348813 -0.213475
v 0.251404 0.335732 -0.213475
v 0.248547 0.331526 -0.213475
v 0.246605 0.328596 -0.213475
v 0.148621 0.123758 -0.213475
v 0.240349 0.159435 -0.116306
v 0.327991 0.368798 -0.116306
v 0.243263 0.32323 -0.213475
v 0.325677 0.365144 -0.116306
v 0.241977 0.166686 -0.116306
v 0.242977 0.171095 -0.116306
v 0.149593 0.127905 -0.213475
v 0.23912 0.316327 -0.213475
v 0.322164 0.359255 -0.116306
v 0.245834 0.182697 -0.116306
v 0.150907 0.132981 -0.213475
v 0.238092 0.314587 -0.213475
v 0.319707 0.355108 -0.116306
v 0.246862 0.186468 -0.116306
v 0.152563 0.138319 -0.213475
v 0.247948 0.190326 -0.116306
v 0.256318 0.217417 -0.116306
v 0.221323 0.2859 -0.213475
v 0.305766 0.331352 -0.116306
v 0.317593 0.351511 -0.116306
v 0.258717 0.224988 -0.116306
v 0.155506 0.147339 -0.213475
v 0.196156 0.240854 -0.213475
v 0.301767 0.323984 -0.116306
v 0.190014 0.229803 -0.213475
v 0.260945 0.231572 -0.116306
v 0.164533 0.173706 -0.213475
v 0.299767 0.320127 -0.116306
v 0.185901 0.221652 -0.213475
v 0.296625 0.313977 -0.116306
v 0.262974 0.236996 -0.116306
v 0.166761 0.179536 -0.213475
v 0.264973 0.242246 -0.116306
v 0.184187 0.218055 -0.213475
v 0.282085 0.28413 -0.116306
v 0.284999 0.290164 -0.116306
v 0.289969 0.300374 -0.116306
v 0.29354 0.307683 -0.116306
v 0.167989 0.182697 -0.213475
v 0.269373 0.253384 -0.116306
v 0.174817 0.198041 -0.213475
v 0.278742 0.276502 -0.116306
v 0.172874 0.193865 -0.213475
v 0.27043 0.256053 -0.116306
v 0.274057 0.265161 -0.116306
v 0.277086 0.272557 -0.116306
f 1 2 3
f 1 3 4
f 1 4 5
f 1 5 8
f 1 8 15
f 1 15 33
f 1 33 42
f 1 42 49
f 1 49 53
f 1 53 57
f 1 57 64
f 1 64 69
f 1 69 74
f 1 74 81
f 1 81 85
f 1 85 83
f 1 83 76
f 1 76 71
f 1 71 67
f 1 67 65
f 1 65 60
f 1 60 54
f 1 54 50
f 1 50 45
f 1 45 41
f 1 41 40
f 1 40 39
f 1 39 38
f 1 38 37
f 1 37 36
f 1 36 34
f 1 34 20
f 1 20 11
f 1 11 6
f 1 6 10
f 1 10 19
f 1 19 25
f 1 25 24
f 1 24 23
f 1 23 22
f 1 22 26
f 1 26 12
f 1 12 7
f 1 7 2
f 2 7 14
f 2 14 30
f 2 30 35
f 2 35 44
f 2 44 46
f 2 46 51
f 2 51 55
f 2 55 62
f 2 62 61
f 2 61 66
f 2 66 70
f 2 70 72
f 2 72 80
f 2 80 79
f 2 79 78
f 2 78 77
f 2 77 84
f 2 84 88
f 2 88 87
f 2 87 86
f 2 86 82
f 2 82 75
f 2 75 73
f 2 73 68
f 2 68 63
f 2 63 59
f 2 59 58
f 2 58 56
f 2 56 52
f 2 52 48
f 2 48 47
f 2 47 43
f 2 43 32
f 2 32 31
f 2 31 18
f 2 18 17
f 2 17 16
f 2 16 9
f 2 9 4
f 2 4 3
f 4 8 5
f 4 9 8
f 6 11 10
f 7 12 13
f 7 13 14
f 8 9 16
f 8 16 17
f 8 17 18
f 8 18 15
f 10 11 19
f 11 20 30
f 11 30 14
f 11 14 13
f 11 13 29
f 11 29 28
f 11 28 27
f 11 27 21
f 11 21 22
f 11 22 23
f 11 23 24
f 11 24 25
f 11 25 19
f 12 26 27
f 12 27 28
f 12 28 29
f 12 29 13
f 15 18 31
f 15 31 32
f 15 32 33
f 20 34 30
f 21 27 26
f 21 26 22
f 30 34 36
f 30 36 37
f 30 37 38
f 30 38 39
f 30 39 40
f 30 40 41
f 30 41 35
f 32 42 33
f 32 43 42
f 35 41 44
f 41 45 46
f 41 46 44
f 42 43 47
f 42 47 48
f 42 48 49
f 45 50 46
f 46 50 51
f 48 52 49
f 49 52 53
f 50 54 55
f 50 55 51
f 52 56 53
f 53 56 58
f 53 58 59
f 53 59 57
f 54 60 61
f 54 61 62
f 54 62 55
f 57 59 63
f 57 63 64
f 60 65 61
f 61 65 67
f 61 67 66
f 63 68 64
f 64 68 69
f 66 67 70
f 67 71 72
f 67 72 70
f 68 73 69
f 69 73 75
f 69 75 74
f 71 76 77
f 71 77 78
f 71 78 79
f 71 79 80
f 71 80 72
f 74 75 81
f 75 82 81
f 76 83 77
f 77 83 85
f 77 85 84
f 81 82 86
f 81 86 87
f 81 87 88
f 81 88 84
f 81 84 85
