v 0.573555 -0.479534 -0.135599
v 0.571995 -0.453746 -0.135599
v 0.531872 -0.479543 -0.135599
v 0.572206 -0.479543 -0.145119
v 0.571279 -0.441898 -0.135599
v 0.479717 -0.479543 -0.135599
v 0.57189 -0.479543 -0.147338
v 0.570309 -0.453746 -0.147338
v 0.569572 -0.44196 -0.147338
v 0.569214 -0.437466 -0.147338
v 0.570267 -0.437466 -0.140037
v 0.5709 -0.437466 -0.135599
v 0.491054 -0.437491 -0.135599
v 0.469475 -0.479543 -0.151198
v 0.568645 -0.479543 -0.159109
v 0.56717 -0.44196 -0.156922
v 0.568476 -0.437466 -0.150522
v 0.491223 -0.437466 -0.135599
v 0.358273 -0.437466 -0.361858
v 0.362108 -0.479543 -0.338412
v 0.566011 -0.479543 -0.165735
v 0.568518 -0.477314 -0.159109
v 0.565168 -0.453746 -0.163741
v 0.564788 -0.44196 -0.162808
v 0.566074 -0.437466 -0.158691
v 0.56698 -0.437466 -0.15644
v 0.358273 -0.437466 -0.460852
v 0.358273 -0.479543 -0.348124
v 0.563566 -0.479543 -0.171652
v 0.553873 -0.437466 -0.188473
v 0.36038 -0.437466 -0.459244
v 0.358273 -0.43859 -0.46098
v 0.358273 -0.479543 -0.464164
v 0.520472 -0.479543 -0.275696
v 0.53988 -0.478472 -0.228675
v 0.516805 -0.44196 -0.278655
v 0.51906 -0.437466 -0.272319
v 0.392833 -0.437466 -0.434382
v 0.36293 -0.44196 -0.457764
v 0.358273 -0.44196 -0.461302
v 0.358273 -0.444242 -0.461495
v 0.358779 -0.477314 -0.463617
v 0.36567 -0.479543 -0.458504
v 0.518027 -0.479543 -0.281582
v 0.512422 -0.44196 -0.288754
v 0.51474 -0.437466 -0.282514
v 0.516763 -0.437466 -0.277786
v 0.403643 -0.44196 -0.426503
v 0.406994 -0.437466 -0.42348
v 0.409544 -0.44196 -0.421968
v 0.406615 -0.479543 -0.427082
v 0.514909 -0.479543 -0.288754
v 0.513981 -0.465528 -0.288754
v 0.508292 -0.44196 -0.296858
v 0.508081 -0.437466 -0.296569
v 0.510631 -0.437466 -0.291552
v 0.512022 -0.437466 -0.288754
v 0.409228 -0.437466 -0.421743
v 0.415887 -0.437466 -0.415857
v 0.416118 -0.44196 -0.416082
v 0.410703 -0.465528 -0.422868
v 0.411377 -0.479543 -0.423415
v 0.510631 -0.479543 -0.29673
v 0.508692 -0.453746 -0.297437
v 0.505363 -0.479543 -0.304577
v 0.50393 -0.44196 -0.302712
v 0.503698 -0.437466 -0.302422
v 0.419532 -0.437466 -0.411805
v 0.422019 -0.44196 -0.409521
v 0.422904 -0.465528 -0.410679
v 0.423347 -0.477314 -0.411258
v 0.423431 -0.479543 -0.411355
v 0.418647 -0.479543 -0.416372
v 0.417004 -0.465528 -0.416983
v 0.417446 -0.477314 -0.417433
v 0.41753 -0.479543 -0.417497
v 0.509556 -0.479543 -0.298692
v 0.439488 -0.479543 -0.390449
v 0.49805 -0.44196 -0.310399
v 0.482983 -0.43885 -0.329696
v 0.48292 -0.437466 -0.329599
v 0.501464 -0.437466 -0.305349
v 0.421787 -0.437466 -0.4092
v 0.427961 -0.479543 -0.405469
v 0.436728 -0.437466 -0.389774
f 1 2 5
f 1 5 12
f 1 12 18
f 1 18 13
f 1 13 6
f 1 6 3
f 1 3 4
f 1 4 2
f 2 4 5
f 3 6 14
f 3 14 20
f 3 20 28
f 3 28 33
f 3 33 43
f 3 43 51
f 3 51 62
f 3 62 76
f 3 76 73
f 3 73 72
f 3 72 84
f 3 84 78
f 3 78 65
f 3 65 77
f 3 77 63
f 3 63 52
f 3 52 44
f 3 44 34
f 3 34 29
f 3 29 21
f 3 21 15
f 3 15 7
f 3 7 4
f 4 7 5
f 5 7 8
f 5 8 9
f 5 9 10
f 5 10 11
f 5 11 12
f 6 13 14
f 7 15 16
f 7 16 8
f 8 16 9
f 9 16 17
f 9 17 10
f 10 17 26
f 10 26 25
f 10 25 30
f 10 30 37
f 10 37 47
f 10 47 46
f 10 46 57
f 10 57 56
f 10 56 55
f 10 55 67
f 10 67 82
f 10 82 81
f 10 81 85
f 10 85 83
f 10 83 68
f 10 68 59
f 10 59 58
f 10 58 49
f 10 49 38
f 10 38 31
f 10 31 27
f 10 27 19
f 10 19 18
f 10 18 12
f 10 12 11
f 13 18 19
f 13 19 14
f 14 19 20
f 15 21 22
f 15 22 16
f 16 22 21
f 16 21 23
f 16 23 24
f 16 24 25
f 16 25 26
f 16 26 17
f 19 27 32
f 19 32 40
f 19 40 41
f 19 41 33
f 19 33 28
f 19 28 20
f 21 29 23
f 23 29 30
f 23 30 24
f 24 30 25
f 27 31 32
f 29 34 35
f 29 35 30
f 30 35 34
f 30 34 36
f 30 36 37
f 31 38 32
f 32 38 39
f 32 39 40
f 33 41 42
f 33 42 43
f 34 44 36
f 36 44 45
f 36 45 46
f 36 46 47
f 36 47 37
f 38 48 39
f 38 49 50
f 38 50 48
f 39 43 42
f 39 42 41
f 39 41 40
f 39 48 51
f 39 51 43
f 44 52 53
f 44 53 45
f 45 53 54
f 45 54 55
f 45 55 56
f 45 56 57
f 45 57 46
f 48 50 51
f 49 58 50
f 50 58 59
f 50 59 60
f 50 60 61
f 50 61 51
f 51 61 62
f 52 63 54
f 52 54 53
f 54 63 64
f 54 64 65
f 54 65 66
f 54 66 55
f 55 66 67
f 59 68 60
f 60 68 69
f 60 69 70
f 60 70 71
f 60 71 72
f 60 72 73
f 60 73 74
f 60 74 62
f 60 62 61
f 62 74 75
f 62 75 76
f 63 77 64
f 64 77 65
f 65 78 69
f 65 69 79
f 65 79 66
f 66 79 80
f 66 80 81
f 66 81 82
f 66 82 67
f 68 83 69
f 69 78 84
f 69 84 70
f 69 83 85
f 69 85 81
f 69 81 80
f 69 80 79
f 70 84 71
f 71 84 72
f 73 76 75
f 73 75 74
