v -0.588031 -0.437434 -0.00535975
v -0.586436 -0.437434 -0.0176921
v -0.588031 -0.437434 -0.000215766
v -0.587376 -0.430159 -0.00590383
v -0.585843 -0.430159 -0.0176921
v -0.577626 -0.434645 -0.0835912
v -0.577728 -0.437434 -0.0843166
v -0.509618 -0.437434 -0.000215766
v -0.587376 -0.430159 -0.000215766
v -0.585986 -0.418371 -0.00590383
v -0.584453 -0.418371 -0.0176921
v -0.577749 -0.422337 -0.0727097
v -0.577238 -0.426795 -0.0805575
v -0.57965 -0.430159 -0.0648288
v -0.570921 -0.437434 -0.135526
v -0.570328 -0.430159 -0.135526
v -0.477811 -0.437434 -0.168648
v -0.379202 -0.158053 -0.168648
v -0.417672 -0.158053 -0.000215766
v -0.585986 -0.418371 -0.000215766
v -0.582818 -0.394796 -0.00590383
v -0.582879 -0.406583 -0.0176921
v -0.576706 -0.418399 -0.0766171
v -0.575152 -0.418371 -0.0883889
v -0.573599 -0.418371 -0.100177
v -0.568938 -0.418371 -0.135526
v -0.569204 -0.437434 -0.147314
v -0.568611 -0.430159 -0.147314
v -0.561968 -0.437434 -0.168648
v -0.475031 -0.158053 -0.168648
v -0.506919 -0.158053 -0.000215766
v -0.582818 -0.394796 -0.000215766
v -0.581224 -0.383008 -0.00590383
v -0.579711 -0.383008 -0.0176921
v -0.573538 -0.394796 -0.0766171
v -0.567364 -0.406583 -0.135526
v -0.566956 -0.417633 -0.148138
v -0.565729 -0.400484 -0.141593
v -0.566976 -0.437434 -0.156415
v -0.566669 -0.430159 -0.155656
v -0.565586 -0.413202 -0.152623
v -0.566138 -0.421052 -0.154321
v -0.56252 -0.437434 -0.167313
v -0.564278 -0.430159 -0.161542
v -0.561334 -0.430159 -0.168648
v -0.480591 -0.158053 -0.155228
v -0.475542 -0.158955 -0.168648
v -0.483943 -0.163714 -0.15503
v -0.479875 -0.15953 -0.15902
v -0.506919 -0.158053 -0.00590383
v -0.508718 -0.16139 -0.000215766
v -0.581224 -0.383008 -0.000215766
v -0.578934 -0.370235 -0.00679413
v -0.578198 -0.373599 -0.0176921
v -0.577708 -0.376033 -0.0252267
v -0.577912 -0.363261 -0.00344724
v -0.577176 -0.37937 -0.0330911
v -0.565709 -0.3771 -0.117901
v -0.564482 -0.384102 -0.134437
v -0.562274 -0.383008 -0.147314
v -0.565504 -0.437434 -0.160058
v -0.558697 -0.383008 -0.159102
v -0.56209 -0.406583 -0.159102
v -0.563889 -0.417633 -0.158591
v -0.559821 -0.418235 -0.168648
v -0.561048 -0.427862 -0.168648
v -0.564584 -0.437434 -0.162301
v -0.4847 -0.158053 -0.145204
v -0.485129 -0.15953 -0.146259
v -0.481347 -0.169458 -0.168648
v -0.482349 -0.166723 -0.162894
v -0.491425 -0.171564 -0.146753
v -0.493694 -0.167571 -0.135526
v -0.505407 -0.158053 -0.0176921
v -0.507962 -0.162784 -0.0176921
v -0.508718 -0.16139 -0.00590383
v -0.513461 -0.170907 -0.000215766
v -0.577912 -0.363261 -0.000215766
v -0.577013 -0.367692 -0.0176921
v -0.577421 -0.36564 -0.0113116
v -0.564911 -0.369251 -0.111949
v -0.571861 -0.335883 -0.00590383
v -0.576686 -0.359377 -0.00679413
v -0.562193 -0.37122 -0.135526
v -0.56021 -0.37122 -0.147314
v -0.556244 -0.371028 -0.159762
v -0.554405 -0.37483 -0.166192
v -0.553832 -0.37751 -0.168648
v -0.554732 -0.383008 -0.168648
v -0.554895 -0.384074 -0.168648
v -0.558145 -0.406583 -0.168648
v -0.485006 -0.158053 -0.144429
v -0.489054 -0.159119 -0.135526
v -0.488461 -0.158053 -0.135526
v -0.483391 -0.173533 -0.168648
v -0.495411 -0.175912 -0.14245
v -0.494818 -0.165383 -0.128304
v -0.507103 -0.19968 -0.142219
v -0.496556 -0.173478 -0.135526
v -0.503894 -0.158053 -0.0292001
v -0.507205 -0.164207 -0.0294804
v -0.513461 -0.170907 -0.00590383
v -0.515505 -0.175283 -0.000215766
v -0.571861 -0.335883 -0.000215766
v -0.573742 -0.359459 -0.0294804
v -0.565954 -0.364163 -0.0961379
v -0.570328 -0.335883 -0.0176921
v -0.55976 -0.359459 -0.135526
v -0.569245 -0.324095 -0.00590383
v -0.566056 -0.328444 -0.0380702
v -0.565545 -0.330742 -0.0459346
v -0.553546 -0.331753 -0.138609
v -0.554364 -0.339603 -0.143357
v -0.557696 -0.359459 -0.147314
v -0.553403 -0.344006 -0.151221
v -0.554302 -0.351856 -0.154123
v -0.555161 -0.359459 -0.1562
v -0.553546 -0.36698 -0.164131
v -0.552319 -0.36988 -0.168648
v -0.552912 -0.372642 -0.168648
v -0.488767 -0.158053 -0.134388
v -0.484904 -0.176624 -0.168648
v -0.494082 -0.190435 -0.162795
v -0.494879 -0.197027 -0.168648
v -0.506286 -0.166012 -0.0434945
v -0.506797 -0.164945 -0.0356301
v -0.495329 -0.164398 -0.120456
v -0.492406 -0.159913 -0.124117
v -0.491384 -0.158053 -0.124067
v -0.508003 -0.197711 -0.135526
v -0.512009 -0.206271 -0.135526
v -0.506286 -0.189642 -0.12598
v -0.504078 -0.183817 -0.122732
v -0.497496 -0.16995 -0.124117
v -0.507635 -0.1749 -0.0648288
v -0.508412 -0.173232 -0.0530405
v -0.508698 -0.206681 -0.146621
v -0.518571 -0.223885 -0.141477
v -0.49261 -0.158053 -0.114917
v -0.510394 -0.170907 -0.0294804
v -0.516629 -0.181027 -0.0176921
v -0.517385 -0.179359 -0.00590383
v -0.517385 -0.179359 -0.000215766
v -0.569245 -0.324095 -0.000215766
v -0.566465 -0.361729 -0.0883889
v -0.565852 -0.341053 -0.060064
v -0.566628 -0.326037 -0.0294804
v -0.568059 -0.319446 -0.000215766
v -0.566772 -0.314441 -0.00590383
v -0.566179 -0.316574 -0.0153674
v -0.565647 -0.318379 -0.0232318
v -0.567344 -0.323029 -0.0186484
v -0.554527 -0.32735 -0.123737
v -0.564625 -0.324342 -0.0417139
v -0.554057 -0.329347 -0.130761
v -0.564359 -0.336622 -0.0643177
v -0.552463 -0.324889 -0.135015
v -0.549131 -0.312308 -0.135526
v -0.549846 -0.324095 -0.147314
v -0.552565 -0.335747 -0.147297
v -0.555181 -0.347808 -0.147297
v -0.545124 -0.323083 -0.160174
v -0.54864 -0.335883 -0.159102
v -0.544818 -0.336458 -0.168648
v -0.546841 -0.345429 -0.168648
v -0.547352 -0.347699 -0.168648
v -0.549519 -0.357353 -0.168648
v -0.499254 -0.206025 -0.168648
v -0.507389 -0.210866 -0.154717
v -0.491588 -0.158053 -0.122633
v -0.51667 -0.216582 -0.135526
v -0.514156 -0.206271 -0.123737
v -0.516568 -0.204739 -0.100177
v -0.516241 -0.183543 -0.0294145
v -0.506572 -0.177225 -0.0809862
v -0.516159 -0.207174 -0.111685
v -0.514605 -0.21918 -0.146176
v -0.521944 -0.22982 -0.135526
v -0.519143 -0.22249 -0.135526
v -0.507471 -0.222298 -0.16667
v -0.507062 -0.223283 -0.168648
v -0.513644 -0.22982 -0.159102
v -0.517324 -0.22982 -0.150216
v -0.520063 -0.243686 -0.15686
v -0.522169 -0.252411 -0.160108
v -0.529487 -0.261546 -0.15104
v -0.530999 -0.257525 -0.143192
v -0.529507 -0.249703 -0.135526
v -0.520084 -0.185239 -0.00590383
v -0.528321 -0.2069 -0.0183681
v -0.530754 -0.211249 -0.0149058
v -0.518694 -0.182203 -0.000215766
v -0.566772 -0.314441 -0.000215766
v -0.562765 -0.30052 -0.00590383
v -0.554282 -0.269997 -0.00295263
v -0.555651 -0.276069 -0.00649736
v -0.553791 -0.271528 -0.010817
v -0.561252 -0.30052 -0.0176921
v -0.550684 -0.312308 -0.123737
v -0.55418 -0.317285 -0.108058
v -0.553648 -0.319282 -0.115906
v -0.553137 -0.32147 -0.123737
v -0.545737 -0.30052 -0.135526
v -0.542508 -0.293354 -0.142665
v -0.546657 -0.312308 -0.147314
v -0.54355 -0.312308 -0.156629
v -0.542058 -0.318489 -0.164807
v -0.54214 -0.325107 -0.168648
v -0.543039 -0.326338 -0.167197
v -0.543346 -0.330195 -0.168648
v -0.504466 -0.217266 -0.168648
v -0.505775 -0.214449 -0.162565
v -0.517692 -0.214257 -0.123737
v -0.518244 -0.212917 -0.115428
v -0.518755 -0.211714 -0.10758
v -0.523763 -0.22982 -0.123737
v -0.520063 -0.220165 -0.123737
v -0.504896 -0.21825 -0.168648
v -0.505795 -0.220329 -0.168648
v -0.509761 -0.230011 -0.168648
v -0.513481 -0.239365 -0.168648
v -0.520104 -0.256103 -0.168648
v -0.527729 -0.265347 -0.158822
v -0.530979 -0.269395 -0.154717
v -0.532328 -0.265347 -0.147199
v -0.53611 -0.276971 -0.147314
v -0.538951 -0.276971 -0.135526
v -0.535169 -0.265183 -0.135526
v -0.531715 -0.255583 -0.135526
v -0.520084 -0.185239 -0.000215766
v -0.528648 -0.204083 -0.00590383
v -0.531326 -0.209991 -0.00590383
v -0.530243 -0.212425 -0.0227537
v -0.534699 -0.218059 -0.00590383
v -0.554282 -0.269997 -0.000215766
v -0.542181 -0.235782 -0.000215766
v -0.547945 -0.253395 -0.00590383
v -0.552319 -0.26573 -0.00649736
v -0.550684 -0.265183 -0.0176921
v -0.541792 -0.27224 -0.103524
v -0.553342 -0.273087 -0.0176921
v -0.555038 -0.278968 -0.0176921
v -0.542794 -0.269176 -0.0883889
v -0.542303 -0.270544 -0.0956762
v -0.553893 -0.282961 -0.035152
v -0.552238 -0.30134 -0.0879603
v -0.547291 -0.30052 -0.123737
v -0.541261 -0.297484 -0.150512
v -0.543468 -0.301039 -0.146885
v -0.542467 -0.305306 -0.154024
v -0.539339 -0.301039 -0.15841
v -0.538583 -0.312308 -0.168648
v -0.541179 -0.321306 -0.168648
v -0.541629 -0.323083 -0.168648
v -0.542733 -0.327596 -0.168648
v -0.520513 -0.217321 -0.111685
v -0.531388 -0.221286 -0.0412522
v -0.529016 -0.215406 -0.0412522
v -0.529793 -0.213492 -0.0294804
v -0.52687 -0.22982 -0.100177
v -0.530263 -0.224131 -0.0583659
v -0.53059 -0.246859 -0.119665
v -0.523354 -0.264554 -0.168648
v -0.529343 -0.274318 -0.162581
v -0.53196 -0.277737 -0.158822
v -0.543509 -0.276479 -0.099831
v -0.54124 -0.274154 -0.111949
v -0.541486 -0.261081 -0.0766171
v -0.541956 -0.259768 -0.0694287
v -0.540402 -0.254024 -0.065241
v -0.528648 -0.204083 -0.000215766
v -0.531326 -0.209991 -0.000215766
v -0.532675 -0.21702 -0.0183681
v -0.532164 -0.219372 -0.0294804
v -0.537724 -0.22982 -0.0176921
v -0.539809 -0.230996 -0.00479918
v -0.541649 -0.23704 -0.00799769
v -0.546432 -0.253395 -0.0176921
v -0.543571 -0.266988 -0.0766171
v -0.527892 -0.277737 -0.168648
v -0.527688 -0.277108 -0.168648
f 1 2 7
f 1 7 15
f 1 15 27
f 1 27 39
f 1 39 61
f 1 61 67
f 1 67 43
f 1 43 29
f 1 29 17
f 1 17 8
f 1 8 3
f 1 3 9
f 1 9 4
f 1 4 2
f 2 4 5
f 2 5 6
f 2 6 7
f 3 8 19
f 3 19 31
f 3 31 51
f 3 51 77
f 3 77 103
f 3 103 143
f 3 143 192
f 3 192 230
f 3 230 271
f 3 271 272
f 3 272 236
f 3 236 235
f 3 235 193
f 3 193 148
f 3 148 144
f 3 144 104
f 3 104 78
f 3 78 52
f 3 52 32
f 3 32 20
f 3 20 9
f 4 9 20
f 4 20 10
f 4 10 11
f 4 11 5
f 5 11 12
f 5 12 13
f 5 13 14
f 5 14 6
f 6 15 7
f 6 14 16
f 6 16 15
f 8 17 18
f 8 18 19
f 10 20 32
f 10 32 21
f 10 21 34
f 10 34 22
f 10 22 11
f 11 22 12
f 12 22 23
f 12 23 24
f 12 24 25
f 12 25 26
f 12 26 13
f 13 16 14
f 13 26 16
f 15 16 28
f 15 28 27
f 16 26 28
f 17 29 45
f 17 45 66
f 17 66 65
f 17 65 91
f 17 91 90
f 17 90 89
f 17 89 88
f 17 88 120
f 17 120 119
f 17 119 167
f 17 167 166
f 17 166 165
f 17 165 164
f 17 164 210
f 17 210 255
f 17 255 208
f 17 208 254
f 17 254 253
f 17 253 252
f 17 252 280
f 17 280 281
f 17 281 263
f 17 263 222
f 17 222 221
f 17 221 220
f 17 220 181
f 17 181 219
f 17 219 218
f 17 218 211
f 17 211 168
f 17 168 124
f 17 124 122
f 17 122 95
f 17 95 70
f 17 70 47
f 17 47 30
f 17 30 18
f 18 30 46
f 18 46 68
f 18 68 92
f 18 92 94
f 18 94 121
f 18 121 129
f 18 129 170
f 18 170 139
f 18 139 100
f 18 100 74
f 18 74 50
f 18 50 31
f 18 31 19
f 21 32 52
f 21 52 33
f 21 33 34
f 22 34 35
f 22 35 36
f 22 36 24
f 22 24 23
f 24 36 25
f 25 36 26
f 26 37 28
f 26 36 38
f 26 38 37
f 27 28 40
f 27 40 39
f 28 37 41
f 28 41 42
f 28 42 40
f 29 43 44
f 29 44 45
f 30 47 48
f 30 48 49
f 30 49 46
f 31 50 76
f 31 76 51
f 33 53 54
f 33 54 55
f 33 55 34
f 33 52 78
f 33 78 56
f 33 56 53
f 34 55 57
f 34 57 58
f 34 58 59
f 34 59 35
f 35 59 36
f 36 59 38
f 37 38 41
f 38 59 60
f 38 60 41
f 39 40 61
f 40 42 44
f 40 44 61
f 41 60 62
f 41 62 42
f 42 62 63
f 42 63 64
f 42 64 65
f 42 65 66
f 42 66 45
f 42 45 44
f 43 67 44
f 44 67 61
f 46 49 48
f 46 48 69
f 46 69 68
f 47 70 71
f 47 71 48
f 48 71 72
f 48 72 73
f 48 73 69
f 50 74 75
f 50 75 76
f 51 76 102
f 51 102 77
f 53 79 54
f 53 56 80
f 53 80 79
f 54 79 55
f 55 79 81
f 55 81 58
f 55 58 57
f 56 78 104
f 56 104 82
f 56 82 83
f 56 83 80
f 58 81 84
f 58 84 59
f 59 84 60
f 60 84 85
f 60 85 62
f 62 85 86
f 62 86 87
f 62 87 88
f 62 88 89
f 62 89 90
f 62 90 91
f 62 91 63
f 63 91 65
f 63 65 64
f 68 69 92
f 69 73 93
f 69 93 94
f 69 94 92
f 70 95 96
f 70 96 71
f 71 96 72
f 72 96 73
f 73 97 93
f 73 96 98
f 73 98 99
f 73 99 97
f 74 100 101
f 74 101 75
f 75 101 102
f 75 102 76
f 77 102 103
f 79 80 105
f 79 105 106
f 79 106 81
f 80 83 82
f 80 82 107
f 80 107 105
f 81 106 108
f 81 108 84
f 82 104 144
f 82 144 109
f 82 109 110
f 82 110 111
f 82 111 107
f 84 108 112
f 84 112 85
f 85 112 113
f 85 113 114
f 85 114 115
f 85 115 116
f 85 116 117
f 85 117 86
f 86 118 119
f 86 119 87
f 86 117 118
f 87 119 120
f 87 120 88
f 93 97 94
f 94 97 121
f 95 122 96
f 96 122 123
f 96 123 124
f 96 124 98
f 97 125 126
f 97 126 127
f 97 127 128
f 97 128 129
f 97 129 121
f 97 99 98
f 97 98 130
f 97 130 131
f 97 131 132
f 97 132 133
f 97 133 134
f 97 134 135
f 97 135 136
f 97 136 125
f 98 124 137
f 98 137 138
f 98 138 131
f 98 131 130
f 100 139 101
f 101 139 127
f 101 127 126
f 101 126 102
f 102 140 136
f 102 136 141
f 102 141 142
f 102 142 103
f 102 126 125
f 102 125 140
f 103 142 143
f 105 145 106
f 105 107 111
f 105 111 146
f 105 146 145
f 106 145 112
f 106 112 108
f 109 147 110
f 109 144 148
f 109 148 149
f 109 149 150
f 109 150 151
f 109 151 152
f 109 152 147
f 110 153 111
f 110 147 154
f 110 154 153
f 111 153 155
f 111 155 112
f 111 112 156
f 111 156 146
f 112 146 156
f 112 155 157
f 112 157 158
f 112 158 159
f 112 159 113
f 112 145 146
f 113 159 160
f 113 160 115
f 113 115 161
f 113 161 114
f 114 161 115
f 115 160 159
f 115 159 162
f 115 162 163
f 115 163 116
f 116 163 117
f 117 163 164
f 117 164 165
f 117 165 166
f 117 166 167
f 117 167 119
f 117 119 118
f 122 124 123
f 124 168 169
f 124 169 137
f 125 136 140
f 127 139 128
f 128 139 170
f 128 170 129
f 131 138 171
f 131 171 132
f 132 171 172
f 132 172 133
f 133 173 174
f 133 174 175
f 133 175 134
f 133 172 176
f 133 176 173
f 134 175 135
f 135 175 174
f 135 174 141
f 135 141 136
f 137 169 177
f 137 177 138
f 138 178 179
f 138 179 171
f 138 177 180
f 138 180 181
f 138 181 182
f 138 182 183
f 138 183 184
f 138 184 185
f 138 185 186
f 138 186 187
f 138 187 188
f 138 188 178
f 141 189 142
f 141 174 190
f 141 190 191
f 141 191 189
f 142 189 192
f 142 192 143
f 147 152 154
f 148 193 149
f 149 194 150
f 149 193 235
f 149 235 195
f 149 195 194
f 150 194 196
f 150 196 197
f 150 197 198
f 150 198 199
f 150 199 200
f 150 200 151
f 151 200 201
f 151 201 202
f 151 202 157
f 151 157 154
f 151 154 152
f 153 154 157
f 153 157 155
f 157 202 158
f 158 202 201
f 158 201 200
f 158 200 199
f 158 199 247
f 158 247 203
f 158 203 204
f 158 204 159
f 159 204 205
f 159 205 206
f 159 206 162
f 162 206 207
f 162 207 208
f 162 208 209
f 162 209 163
f 163 209 210
f 163 210 164
f 168 211 212
f 168 212 169
f 169 212 177
f 171 179 213
f 171 213 172
f 172 213 214
f 172 214 215
f 172 215 176
f 173 176 191
f 173 191 190
f 173 190 174
f 176 215 191
f 177 212 180
f 178 216 179
f 178 188 216
f 179 217 213
f 179 216 217
f 180 212 218
f 180 218 219
f 180 219 181
f 181 220 182
f 182 220 221
f 182 221 183
f 183 221 222
f 183 222 184
f 184 222 185
f 185 222 186
f 186 222 223
f 186 223 224
f 186 224 187
f 187 224 225
f 187 225 226
f 187 226 204
f 187 204 227
f 187 227 228
f 187 228 229
f 187 229 188
f 188 229 216
f 189 230 192
f 189 191 231
f 189 231 271
f 189 271 230
f 191 232 231
f 191 215 233
f 191 233 234
f 191 234 232
f 194 195 196
f 195 235 236
f 195 236 237
f 195 237 238
f 195 238 239
f 195 239 197
f 195 197 196
f 197 240 241
f 197 241 242
f 197 242 198
f 197 239 243
f 197 243 244
f 197 244 240
f 198 245 246
f 198 246 199
f 198 242 245
f 199 246 247
f 203 247 227
f 203 227 204
f 204 248 249
f 204 249 205
f 204 226 248
f 205 249 250
f 205 250 206
f 206 250 251
f 206 251 252
f 206 252 207
f 207 253 254
f 207 254 208
f 207 252 253
f 208 255 209
f 209 255 210
f 211 218 212
f 213 217 256
f 213 256 257
f 213 257 258
f 213 258 259
f 213 259 214
f 214 259 233
f 214 233 215
f 216 260 261
f 216 261 217
f 216 229 262
f 216 262 260
f 217 261 257
f 217 257 256
f 222 263 223
f 223 263 224
f 224 263 264
f 224 264 265
f 224 265 250
f 224 250 226
f 224 226 225
f 226 250 248
f 227 266 267
f 227 267 240
f 227 240 228
f 227 247 266
f 228 240 244
f 228 244 243
f 228 243 268
f 228 268 229
f 229 268 269
f 229 269 270
f 229 270 262
f 231 232 272
f 231 272 271
f 232 234 236
f 232 236 272
f 233 259 273
f 233 273 234
f 234 273 274
f 234 274 257
f 234 257 275
f 234 275 276
f 234 276 236
f 236 276 275
f 236 275 277
f 236 277 237
f 237 278 238
f 237 277 278
f 238 278 239
f 239 279 243
f 239 278 269
f 239 269 268
f 239 268 279
f 240 267 241
f 241 267 266
f 241 266 245
f 241 245 242
f 243 279 268
f 245 247 246
f 245 266 247
f 248 250 249
f 250 265 251
f 251 265 280
f 251 280 252
f 257 274 259
f 257 259 258
f 257 261 275
f 259 274 273
f 260 275 261
f 260 262 270
f 260 270 278
f 260 278 275
f 263 281 264
f 264 281 280
f 264 280 265
f 269 278 270
f 275 278 277
