v -0.455999 -0.479543 0.193924
v -0.46733 -0.437466 0.193924
v -0.554331 -0.479543 0.193924
v -0.456816 -0.479543 0.185395
v -0.551512 -0.437466 0.193924
v -0.509678 -0.437466 0.00533867
v -0.551999 -0.443554 0.193924
v -0.559799 -0.479543 0.180725
v -0.495922 -0.479543 0.0127226
v -0.551828 -0.44105 0.193924
v -0.553672 -0.437466 0.188902
v -0.499097 -0.479543 0.00533867
v -0.587812 -0.437466 0.00533867
v -0.551854 -0.441388 0.193924
v -0.55387 -0.437466 0.188441
v -0.561433 -0.44196 0.170886
v -0.565478 -0.463155 0.164443
v -0.564029 -0.479543 0.170498
v -0.590605 -0.479543 0.00533867
v -0.588022 -0.43747 0.00533867
v -0.588022 -0.437466 0.00535713
v -0.554068 -0.437466 0.187961
v -0.56478 -0.44196 0.162782
v -0.567178 -0.44196 0.156893
v -0.566005 -0.479543 0.165717
v -0.590605 -0.479543 0.00591091
v -0.589735 -0.46407 0.00533867
v -0.588036 -0.43761 0.00533867
v -0.588431 -0.442467 0.00533867
v -0.58681 -0.44196 0.0176882
v -0.586441 -0.437466 0.0176882
v -0.564595 -0.437466 0.162302
v -0.568654 -0.479543 0.15909
v -0.566559 -0.479543 0.164333
v -0.566071 -0.437466 0.158665
v -0.56698 -0.437466 0.156413
v -0.568469 -0.437466 0.150488
v -0.569576 -0.44196 0.147313
v -0.571895 -0.479543 0.147313
v -0.589564 -0.479543 0.0139963
v -0.589498 -0.477314 0.0134794
v -0.588787 -0.453746 0.00794149
v -0.589116 -0.453746 0.00533867
v -0.578167 -0.437466 0.0809129
v -0.587522 -0.453746 0.0176882
v -0.582027 -0.465528 0.0648345
v -0.581316 -0.453746 0.0648345
v -0.572844 -0.44196 0.12374
v -0.569207 -0.437466 0.147313
v -0.571289 -0.44196 0.135517
v -0.572211 -0.479543 0.145079
v -0.58627 -0.479543 0.0390277
v -0.577719 -0.437466 0.0843095
v -0.582739 -0.477314 0.0648345
v -0.580064 -0.479543 0.0861739
v -0.578404 -0.479543 0.098782
v -0.573858 -0.479543 0.133302
v -0.57092 -0.437466 0.135517
v -0.572712 -0.465528 0.135517
v -0.573423 -0.477314 0.135517
v -0.573555 -0.479543 0.135517
f 1 2 5
f 1 5 10
f 1 10 14
f 1 14 7
f 1 7 3
f 1 3 8
f 1 8 18
f 1 18 25
f 1 25 34
f 1 34 33
f 1 33 39
f 1 39 51
f 1 51 61
f 1 61 57
f 1 57 56
f 1 56 55
f 1 55 52
f 1 52 40
f 1 40 26
f 1 26 19
f 1 19 12
f 1 12 9
f 1 9 4
f 1 4 2
f 2 4 6
f 2 6 13
f 2 13 21
f 2 21 31
f 2 31 44
f 2 44 53
f 2 53 58
f 2 58 49
f 2 49 37
f 2 37 36
f 2 36 35
f 2 35 32
f 2 32 22
f 2 22 15
f 2 15 11
f 2 11 5
f 3 7 8
f 4 9 6
f 5 11 10
f 6 9 12
f 6 12 19
f 6 19 27
f 6 27 43
f 6 43 29
f 6 29 28
f 6 28 20
f 6 20 13
f 7 14 15
f 7 15 16
f 7 16 17
f 7 17 8
f 8 17 18
f 10 11 15
f 10 15 14
f 13 20 21
f 15 22 23
f 15 23 16
f 16 23 17
f 17 23 24
f 17 24 25
f 17 25 18
f 19 26 27
f 20 28 21
f 21 28 29
f 21 29 30
f 21 30 31
f 22 32 23
f 23 32 24
f 24 33 34
f 24 34 25
f 24 32 35
f 24 35 36
f 24 36 37
f 24 37 38
f 24 38 39
f 24 39 33
f 26 40 41
f 26 41 42
f 26 42 43
f 26 43 27
f 29 43 42
f 29 42 30
f 30 44 31
f 30 42 41
f 30 41 45
f 30 45 54
f 30 54 46
f 30 46 47
f 30 47 48
f 30 48 44
f 37 49 38
f 38 49 58
f 38 58 50
f 38 50 39
f 39 50 51
f 40 52 41
f 41 52 45
f 44 48 53
f 45 52 54
f 46 54 55
f 46 55 47
f 47 55 56
f 47 56 57
f 47 57 48
f 48 57 50
f 48 50 53
f 50 57 59
f 50 59 51
f 50 58 53
f 51 59 60
f 51 60 61
f 52 55 54
f 57 61 60
f 57 60 59
