v 0.157971 -0.185717 -0.400176
v 0.157971 -0.185717 -0.493791
v -9.53963e-05 -0.185717 -0.43311
v -9.53963e-05 -0.437462 -0.509623
v 0.157971 -0.437462 -0.482225
v 0.149678 -0.185717 -0.497211
v 0.157971 -0.206318 -0.503831
v 0.146615 -0.206663 -0.508704
v -9.53963e-05 -0.185717 -0.520288
v -9.53963e-05 -0.437462 -0.588031
v 0.157971 -0.437462 -0.566351
v 0.146723 -0.185717 -0.498425
v 0.14222 -0.199689 -0.507104
v 0.157971 -0.212355 -0.506718
v 0.154707 -0.210876 -0.507398
v 0.146166 -0.219181 -0.514606
v 0.141478 -0.223888 -0.518578
v 0.00590792 -0.185717 -0.520288
v -9.53963e-05 -0.189783 -0.522145
v 0.00535091 -0.437462 -0.588031
v -9.53963e-05 -0.430168 -0.587369
v 0.156409 -0.437462 -0.566976
v 0.155651 -0.430168 -0.566682
v 0.157971 -0.432681 -0.565946
v 0.138213 -0.185717 -0.50144
v 0.135521 -0.206268 -0.512014
v 0.135521 -0.197693 -0.508005
v 0.135521 -0.191803 -0.505228
v 0.135521 -0.185717 -0.502341
v 0.157971 -0.218294 -0.509347
v 0.135521 -0.222483 -0.51913
v 0.135521 -0.216593 -0.516666
v 0.157971 -0.22889 -0.513724
v 0.157971 -0.229826 -0.51411
v 0.15022 -0.229826 -0.517328
v 0.157971 -0.246657 -0.520785
v 0.157971 -0.250205 -0.522182
v 0.15104 -0.261541 -0.529482
v 0.147187 -0.253508 -0.527864
v 0.14318 -0.257524 -0.53099
v 0.135521 -0.249688 -0.529501
v 0.135521 -0.229826 -0.521962
v 0.00652682 -0.185717 -0.520215
v 0.00590792 -0.194465 -0.524278
v -9.53963e-05 -0.194465 -0.524278
v 0.00590792 -0.430168 -0.587369
v 0.0131955 -0.437462 -0.587019
v -9.53963e-05 -0.42418 -0.58667
v 0.147311 -0.437462 -0.569201
v 0.147311 -0.430168 -0.568613
v 0.15432 -0.421075 -0.566149
v 0.157971 -0.425658 -0.565192
v 0.157971 -0.430168 -0.565726
v 0.125974 -0.189635 -0.506295
v 0.123793 -0.185717 -0.504805
v 0.123746 -0.220142 -0.520068
v 0.123746 -0.214252 -0.517696
v 0.123746 -0.206268 -0.514147
v 0.157971 -0.239092 -0.517787
v 0.157971 -0.242616 -0.519185
v 0.157971 -0.252596 -0.52312
v 0.157971 -0.266198 -0.528416
v 0.154722 -0.269402 -0.530972
v 0.147187 -0.26536 -0.532333
v 0.147311 -0.276967 -0.536102
v 0.142669 -0.293354 -0.542501
v 0.135521 -0.276967 -0.538952
v 0.135521 -0.265188 -0.535164
v 0.135521 -0.255577 -0.531707
v 0.123746 -0.229826 -0.523764
v 0.0158258 -0.185717 -0.519019
v 0.00590792 -0.204075 -0.528655
v -9.53963e-05 -0.204075 -0.528655
v 0.00590792 -0.418364 -0.585971
v 0.0176825 -0.418364 -0.584463
v 0.0176825 -0.430168 -0.585842
v 0.086566 -0.437462 -0.577421
v 0.0835643 -0.434653 -0.577623
v -9.53963e-05 -0.418364 -0.585971
v 0.142808 -0.437462 -0.569863
v 0.135521 -0.430168 -0.570323
v 0.135521 -0.418364 -0.568944
v 0.148146 -0.417625 -0.566958
v 0.152618 -0.413214 -0.565597
v 0.135521 -0.437462 -0.570929
v 0.157971 -0.383027 -0.559032
v 0.157971 -0.418142 -0.564236
v 0.0901401 -0.185717 -0.509237
v 0.107578 -0.211714 -0.518762
v 0.0658483 -0.195007 -0.516666
v 0.0583751 -0.224134 -0.530273
v 0.0505151 -0.222828 -0.530788
v 0.0412625 -0.2213 -0.531395
v 0.0412625 -0.215411 -0.529023
v 0.0294725 -0.213489 -0.529795
v 0.115438 -0.212922 -0.518247
v 0.157971 -0.271422 -0.530291
v 0.157971 -0.275981 -0.531744
v 0.154026 -0.30533 -0.542464
v 0.150514 -0.297469 -0.541251
v 0.146878 -0.28914 -0.539908
v 0.135521 -0.291333 -0.54309
v 0.147311 -0.312304 -0.546657
v 0.147311 -0.324083 -0.549857
v 0.135521 -0.312304 -0.549121
v 0.123839 -0.277558 -0.540662
v 0.0412625 -0.276967 -0.551364
v 0.0108127 -0.271521 -0.553792
v 0.103524 -0.272236 -0.541784
v 0.0956793 -0.27056 -0.542317
v 0.123746 -0.312304 -0.550684
v 0.0883917 -0.26918 -0.542795
v 0.0883917 -0.26329 -0.540718
v 0.0766172 -0.261097 -0.54149
v 0.0615779 -0.258362 -0.542483
v 0.123653 -0.25267 -0.532204
v 0.127522 -0.248259 -0.530071
v 0.123653 -0.242394 -0.528416
v 0.100166 -0.229826 -0.526871
v 0.0309269 -0.185717 -0.517034
v 0.0148974 -0.211246 -0.530751
v 0.00590792 -0.209989 -0.53134
v -9.53963e-05 -0.209989 -0.53134
v -9.53963e-05 -0.412376 -0.58518
v 0.00590792 -0.383027 -0.581227
v 0.0176825 -0.406585 -0.582882
v 0.0530371 -0.418364 -0.579811
v 0.0727026 -0.422331 -0.577752
v 0.0805472 -0.426792 -0.577237
v 0.0412625 -0.430168 -0.582753
v 0.0878502 -0.430488 -0.576648
v 0.123746 -0.430168 -0.571886
v 0.111956 -0.418364 -0.572051
v 0.135521 -0.406585 -0.567362
v 0.141602 -0.400474 -0.565726
v 0.144062 -0.406585 -0.566149
v 0.147311 -0.383027 -0.562269
v 0.147311 -0.371223 -0.560209
v 0.157971 -0.381893 -0.55883
v 0.0412625 -0.185717 -0.515673
v 0.0227575 -0.212404 -0.530236
v 0.0766172 -0.207229 -0.520803
v 0.0766172 -0.233276 -0.531248
v 0.0530371 -0.241605 -0.537426
v 0.0294725 -0.229826 -0.536176
v 0.0176825 -0.229826 -0.53772
v 0.0294725 -0.219378 -0.532167
v 0.00590792 -0.218047 -0.534705
v 0.157971 -0.312304 -0.542998
v 0.156641 -0.312304 -0.543549
v 0.147295 -0.335763 -0.55256
v 0.143365 -0.339607 -0.554362
v 0.138615 -0.331747 -0.553553
v 0.157971 -0.32327 -0.54594
v 0.15121 -0.343994 -0.553405
v 0.135026 -0.324896 -0.552449
v 0.123746 -0.321471 -0.553148
v 0.115917 -0.319278 -0.553663
v 0.108057 -0.317282 -0.554178
v 0.0176825 -0.278963 -0.555042
v 0.0294725 -0.312304 -0.563096
v 0.00649588 -0.276055 -0.555649
v 0.00295268 -0.269993 -0.554288
v 0.0176825 -0.265188 -0.550684
v 0.0153771 -0.316567 -0.566167
v 0.00590792 -0.314448 -0.566774
v 0.0176825 -0.253409 -0.546418
v 0.0269969 -0.246287 -0.542575
v 0.0412625 -0.248825 -0.541637
v 0.0766172 -0.253409 -0.538676
v 0.000136693 -0.235691 -0.542152
v -9.53963e-05 -0.235716 -0.542152
v -9.53963e-05 -0.400597 -0.583599
v 0.0034478 -0.363264 -0.577917
v 0.00678986 -0.370238 -0.578928
v 0.0176825 -0.373589 -0.578193
v 0.0252331 -0.376053 -0.577696
v 0.0330776 -0.379355 -0.577181
v 0.0176825 -0.383027 -0.579701
v -9.53963e-05 -0.383027 -0.581227
v 0.0371004 -0.387216 -0.577715
v 0.0648271 -0.383027 -0.573504
v 0.129781 -0.388769 -0.565726
v 0.0647962 -0.418389 -0.578266
v 0.100166 -0.430168 -0.574993
v 0.134438 -0.384111 -0.564475
v 0.135521 -0.371223 -0.562195
v 0.147311 -0.359444 -0.55769
v 0.154134 -0.351855 -0.554288
v 0.156192 -0.359444 -0.555152
v 0.157971 -0.365211 -0.555704
v 0.157971 -0.371076 -0.556826
v 0.0183787 -0.217012 -0.532664
v 0.0176825 -0.238747 -0.541012
v 0.00479391 -0.241236 -0.543605
v 0.00479391 -0.230985 -0.539817
v 0.157971 -0.313314 -0.54331
v 0.157971 -0.316345 -0.544138
v 0.147295 -0.347813 -0.555189
v 0.0459352 -0.330736 -0.565542
v 0.130755 -0.329332 -0.554067
v 0.135521 -0.359444 -0.559768
v 0.111956 -0.359444 -0.562875
v 0.0883917 -0.361736 -0.566461
v 0.0775146 -0.347542 -0.564917
v 0.0600616 -0.341061 -0.565854
v 0.157971 -0.334753 -0.548753
v 0.0294725 -0.32014 -0.565248
v 0.0232371 -0.318391 -0.565652
v 0.00590792 -0.288771 -0.559382
v -9.53963e-05 -0.269993 -0.554288
v 0.00590792 -0.253409 -0.547944
v 0.00649588 -0.26573 -0.552321
v 0.00590792 -0.324083 -0.569238
v -9.53963e-05 -0.319179 -0.567987
v -9.53963e-05 -0.314448 -0.566774
v 0.00590792 -0.335886 -0.571867
v 0.00678986 -0.35937 -0.576685
v 0.0113078 -0.365654 -0.577421
v -9.53963e-05 -0.363264 -0.577917
v 0.0292868 -0.371766 -0.576299
v 0.0648271 -0.371223 -0.571518
v 0.117913 -0.377088 -0.565707
v 0.125758 -0.380908 -0.565192
v 0.122601 -0.372382 -0.564144
v 0.104003 -0.366665 -0.565431
v 0.157971 -0.348306 -0.551916
v 0.157971 -0.36112 -0.554803
v 0.0380752 -0.328445 -0.566057
v 0.0412625 -0.347665 -0.569716
v 0.0176825 -0.335886 -0.570341
v 0.0294725 -0.32603 -0.566627
v 0.0294725 -0.359444 -0.573743
v 0.0186572 -0.323023 -0.567344
v -9.53963e-05 -0.324083 -0.569238
v -9.53963e-05 -0.335886 -0.571867
v 0.0176825 -0.359444 -0.575287
f 1 2 6
f 1 6 12
f 1 12 25
f 1 25 29
f 1 29 55
f 1 55 88
f 1 88 140
f 1 140 120
f 1 120 71
f 1 71 43
f 1 43 18
f 1 18 9
f 1 9 3
f 1 3 4
f 1 4 5
f 1 5 11
f 1 11 24
f 1 24 53
f 1 53 52
f 1 52 87
f 1 87 86
f 1 86 139
f 1 139 192
f 1 192 191
f 1 191 228
f 1 228 227
f 1 227 207
f 1 207 154
f 1 154 198
f 1 198 197
f 1 197 149
f 1 149 98
f 1 98 97
f 1 97 62
f 1 62 61
f 1 61 37
f 1 37 36
f 1 36 60
f 1 60 59
f 1 59 34
f 1 34 33
f 1 33 30
f 1 30 14
f 1 14 7
f 1 7 2
f 2 7 8
f 2 8 6
f 3 9 19
f 3 19 45
f 3 45 73
f 3 73 123
f 3 123 172
f 3 172 211
f 3 211 216
f 3 216 215
f 3 215 235
f 3 235 236
f 3 236 220
f 3 220 180
f 3 180 173
f 3 173 124
f 3 124 79
f 3 79 48
f 3 48 21
f 3 21 10
f 3 10 4
f 4 10 20
f 4 20 47
f 4 47 77
f 4 77 85
f 4 85 80
f 4 80 49
f 4 49 22
f 4 22 11
f 4 11 5
f 6 8 13
f 6 13 12
f 7 14 15
f 7 15 8
f 8 15 16
f 8 16 17
f 8 17 13
f 9 18 19
f 10 21 46
f 10 46 20
f 11 22 23
f 11 23 24
f 12 13 25
f 13 17 26
f 13 26 27
f 13 27 28
f 13 28 29
f 13 29 25
f 14 30 16
f 14 16 15
f 16 30 17
f 17 31 32
f 17 32 26
f 17 30 33
f 17 33 34
f 17 34 35
f 17 35 36
f 17 36 37
f 17 37 38
f 17 38 39
f 17 39 40
f 17 40 41
f 17 41 42
f 17 42 31
f 18 43 44
f 18 44 19
f 19 44 45
f 20 46 47
f 21 48 46
f 22 49 23
f 23 50 51
f 23 51 52
f 23 52 53
f 23 53 24
f 23 49 50
f 26 32 54
f 26 54 27
f 27 54 28
f 28 54 29
f 29 54 55
f 31 56 57
f 31 57 32
f 31 42 56
f 32 57 58
f 32 58 54
f 34 59 35
f 35 59 60
f 35 60 36
f 37 61 38
f 38 61 62
f 38 62 63
f 38 63 40
f 38 40 39
f 40 63 64
f 40 64 65
f 40 65 66
f 40 66 67
f 40 67 68
f 40 68 69
f 40 69 41
f 41 69 70
f 41 70 42
f 42 70 56
f 43 71 44
f 44 71 72
f 44 72 73
f 44 73 45
f 46 48 74
f 46 74 75
f 46 75 76
f 46 76 47
f 47 76 78
f 47 78 77
f 48 79 74
f 49 80 50
f 50 81 82
f 50 82 83
f 50 83 84
f 50 84 51
f 50 80 85
f 50 85 81
f 51 84 86
f 51 86 87
f 51 87 52
f 54 58 55
f 55 58 89
f 55 89 90
f 55 90 88
f 56 91 92
f 56 92 93
f 56 93 94
f 56 94 57
f 56 70 91
f 57 94 95
f 57 95 96
f 57 96 58
f 58 96 89
f 62 97 63
f 63 65 64
f 63 97 98
f 63 98 99
f 63 99 65
f 65 99 100
f 65 100 101
f 65 101 66
f 66 102 67
f 66 101 100
f 66 100 103
f 66 103 104
f 66 104 105
f 66 105 102
f 67 106 107
f 67 107 108
f 67 108 109
f 67 109 110
f 67 110 68
f 67 102 111
f 67 111 106
f 68 110 112
f 68 112 113
f 68 113 114
f 68 114 69
f 69 114 115
f 69 115 116
f 69 116 117
f 69 117 70
f 70 118 119
f 70 119 91
f 70 117 118
f 71 120 121
f 71 121 72
f 72 121 122
f 72 122 123
f 72 123 73
f 74 79 124
f 74 124 173
f 74 173 125
f 74 125 126
f 74 126 75
f 75 126 127
f 75 127 128
f 75 128 76
f 76 128 129
f 76 129 130
f 76 130 78
f 77 78 85
f 78 130 131
f 78 131 132
f 78 132 81
f 78 81 85
f 81 132 129
f 81 129 82
f 82 129 128
f 82 128 133
f 82 133 134
f 82 134 135
f 82 135 136
f 82 136 83
f 83 136 84
f 84 136 135
f 84 135 137
f 84 137 86
f 86 137 138
f 86 138 139
f 88 90 140
f 89 96 141
f 89 141 121
f 89 121 142
f 89 142 90
f 90 142 121
f 90 121 120
f 90 120 140
f 91 119 143
f 91 143 144
f 91 144 145
f 91 145 146
f 91 146 92
f 92 146 93
f 93 147 95
f 93 95 94
f 93 146 148
f 93 148 147
f 95 141 96
f 95 147 141
f 98 149 150
f 98 150 99
f 99 150 103
f 99 103 100
f 102 105 111
f 103 150 104
f 104 151 152
f 104 152 153
f 104 153 105
f 104 150 154
f 104 154 155
f 104 155 151
f 105 153 156
f 105 156 157
f 105 157 158
f 105 158 159
f 105 159 111
f 106 111 107
f 107 160 108
f 107 111 161
f 107 161 160
f 108 162 163
f 108 163 164
f 108 164 112
f 108 112 110
f 108 110 109
f 108 160 165
f 108 165 166
f 108 166 162
f 111 159 161
f 112 164 113
f 113 164 114
f 114 164 115
f 115 167 168
f 115 168 169
f 115 169 144
f 115 144 170
f 115 170 117
f 115 117 116
f 115 164 167
f 117 170 143
f 117 143 118
f 118 143 119
f 121 141 148
f 121 148 122
f 122 148 171
f 122 171 123
f 123 171 172
f 125 174 175
f 125 175 176
f 125 176 177
f 125 177 178
f 125 178 179
f 125 179 126
f 125 173 180
f 125 180 220
f 125 220 174
f 126 179 181
f 126 181 182
f 126 182 183
f 126 183 184
f 126 184 127
f 127 184 128
f 128 184 133
f 129 132 185
f 129 185 131
f 129 131 130
f 131 185 132
f 133 184 183
f 133 183 134
f 134 183 135
f 135 183 186
f 135 186 137
f 137 186 187
f 137 187 138
f 138 187 153
f 138 153 152
f 138 152 188
f 138 188 155
f 138 155 189
f 138 189 190
f 138 190 191
f 138 191 192
f 138 192 139
f 141 147 193
f 141 193 148
f 143 170 144
f 144 169 168
f 144 168 145
f 145 168 146
f 146 168 194
f 146 194 195
f 146 195 196
f 146 196 148
f 147 148 193
f 148 196 171
f 149 197 150
f 150 197 198
f 150 198 154
f 151 155 152
f 152 155 199
f 152 199 188
f 153 200 201
f 153 201 156
f 153 187 202
f 153 202 203
f 153 203 204
f 153 204 205
f 153 205 206
f 153 206 200
f 154 207 155
f 155 188 199
f 155 207 189
f 156 201 157
f 157 201 208
f 157 208 158
f 158 208 209
f 158 209 159
f 159 209 165
f 159 165 161
f 160 161 165
f 162 166 210
f 162 210 163
f 163 211 171
f 163 171 212
f 163 212 213
f 163 213 164
f 163 210 166
f 163 166 216
f 163 216 211
f 164 213 212
f 164 212 167
f 165 209 214
f 165 214 166
f 166 214 215
f 166 215 216
f 167 212 195
f 167 195 194
f 167 194 168
f 171 196 195
f 171 195 212
f 171 211 172
f 174 217 218
f 174 218 219
f 174 219 175
f 174 220 236
f 174 236 217
f 175 219 176
f 176 219 221
f 176 221 222
f 176 222 177
f 177 222 223
f 177 223 178
f 178 223 182
f 178 182 181
f 178 181 179
f 182 223 224
f 182 224 183
f 183 224 186
f 186 224 223
f 186 223 187
f 187 223 225
f 187 225 226
f 187 226 202
f 189 207 227
f 189 227 228
f 189 228 190
f 190 228 191
f 200 229 201
f 200 206 230
f 200 230 231
f 200 231 229
f 201 229 232
f 201 232 208
f 202 226 203
f 203 226 204
f 204 233 205
f 204 226 233
f 205 233 206
f 206 233 230
f 208 234 209
f 208 232 234
f 209 234 214
f 214 235 215
f 214 234 232
f 214 232 229
f 214 229 217
f 214 217 236
f 214 236 235
f 217 229 231
f 217 231 219
f 217 219 218
f 219 226 222
f 219 222 221
f 219 231 237
f 219 237 233
f 219 233 226
f 222 225 223
f 222 226 225
f 230 233 231
f 231 233 237
