v -0.516754 0.501479 -0.217351
v -0.516754 0.502121 -0.217351
v -0.516257 0.500346 -0.217351
v -0.51769 0.496684 -0.210071
v -0.530555 0.506104 -0.189125
v -0.519357 0.504537 -0.214265
v -0.514854 0.511447 -0.217351
v -0.519357 0.507803 -0.214265
v -0.51079 0.492663 -0.217351
v -0.519327 0.494362 -0.202217
v -0.530438 0.494909 -0.177035
v -0.541548 0.496099 -0.151448
v -0.5288 0.498251 -0.184889
v -0.540174 0.500365 -0.159622
v -0.543186 0.503952 -0.156046
v -0.530555 0.507067 -0.189125
v -0.515819 0.515562 -0.20624
v -0.513217 0.513278 -0.217351
v -0.381762 0.363633 -0.217351
v -0.381791 0.363633 -0.21733
v -0.387083 0.363633 -0.20575
v -0.401264 0.363633 -0.171628
v -0.421292 0.363633 -0.123158
v -0.542776 0.494419 -0.143593
v -0.544443 0.500365 -0.147446
v -0.422608 0.363633 -0.119582
v -0.543186 0.508105 -0.156046
v -0.547133 0.500875 -0.135526
v -0.536782 0.513297 -0.160452
v -0.526608 0.514448 -0.182675
v -0.508071 0.519979 -0.215244
v -0.507632 0.519489 -0.217351
v -0.511053 0.515694 -0.217351
v -0.267558 0.363633 -0.217351
v -0.543478 0.493815 -0.135526
v -0.553741 0.495325 -0.0694736
v -0.553273 0.496325 -0.0766259
v -0.552483 0.4981 -0.0883973
v -0.423602 0.363633 -0.116645
v -0.424683 0.363633 -0.111962
v -0.424859 0.363633 -0.111089
v -0.426847 0.363633 -0.100275
v -0.554296 0.507331 -0.0977209
v -0.54456 0.509842 -0.147319
v -0.539589 0.515732 -0.147319
v -0.533712 0.522433 -0.147319
v -0.528508 0.528323 -0.147319
v -0.5319 0.520281 -0.157004
v -0.552132 0.501309 -0.101063
v -0.554296 0.505538 -0.0977209
v -0.530292 0.518488 -0.164859
v -0.526929 0.524302 -0.160197
v -0.518859 0.530664 -0.16571
v -0.519181 0.519243 -0.190062
v -0.502398 0.525246 -0.217351
v -0.483247 0.55396 -0.20045
v -0.34691 0.363633 6.95803e-05
v -0.269868 0.366936 -0.217351
v -0.374335 0.407354 6.95803e-05
v -0.356442 0.379509 6.95803e-05
v -0.354249 0.376092 6.95803e-05
v -0.352465 0.373204 6.95803e-05
v -0.350623 0.370202 6.95803e-05
v -0.554238 0.494683 -0.0616189
v -0.428455 0.363633 -0.0883973
v -0.563798 0.49927 -0.00591194
v -0.565816 0.506349 -0.0128726
v -0.545788 0.511352 -0.135526
v -0.565816 0.506954 -0.0128726
v -0.550115 0.511824 -0.101063
v -0.540993 0.517242 -0.135526
v -0.529911 0.529852 -0.138293
v -0.518509 0.542104 -0.141273
v -0.517281 0.540745 -0.147319
v -0.510673 0.548334 -0.146595
v -0.48506 0.544275 -0.217351
v -0.495966 0.55479 -0.167392
v -0.484475 0.55496 -0.194447
v -0.473891 0.555677 -0.217351
v -0.479739 0.550108 -0.217351
v -0.507076 0.554224 -0.142188
v -0.439273 0.363633 6.95803e-05
v -0.273669 0.37192 -0.217351
v -0.402667 0.445298 6.95803e-05
v -0.381294 0.417227 6.95803e-05
v -0.557161 0.492229 -0.0176834
v -0.434741 0.363633 -0.0406729
v -0.439273 0.363633 -0.00591194
v -0.557922 0.491587 -0.00591194
v -0.560904 0.495476 6.95803e-05
v -0.563798 0.49927 6.95803e-05
v -0.564997 0.502159 6.95803e-05
v -0.566225 0.50516 -0.00591194
v -0.566225 0.507501 -0.00591194
v -0.561313 0.513391 -0.00591194
v -0.550787 0.514863 -0.0766259
v -0.549998 0.513957 -0.0883973
v -0.531666 0.53191 -0.111962
v -0.530438 0.530475 -0.130438
v -0.534209 0.525341 -0.134823
v -0.542162 0.518582 -0.118071
v -0.515 0.549712 -0.123733
v -0.51924 0.542954 -0.133418
v -0.514795 0.547333 -0.136611
v -0.507983 0.555017 -0.135526
v -0.497662 0.555885 -0.15909
v -0.486727 0.556112 -0.182675
v -0.467547 0.556112 -0.20624
v -0.46474 0.555828 -0.217351
v -0.557922 0.491587 6.95803e-05
v -0.273756 0.372033 -0.217351
v -0.408573 0.452623 6.95803e-05
v -0.28092 0.381132 -0.217351
v -0.566225 0.50516 6.95803e-05
v -0.566225 0.507501 6.95803e-05
v -0.55415 0.518847 -0.0253891
v -0.561313 0.513391 6.95803e-05
v -0.558331 0.516921 6.95803e-05
v -0.544531 0.533175 -0.00591194
v -0.54377 0.532269 -0.0176834
v -0.526432 0.547126 -0.0536577
v -0.526666 0.5378 -0.111962
v -0.52 0.543822 -0.123733
v -0.523099 0.549165 -0.065791
v -0.527075 0.55009 -0.0294762
v -0.518421 0.553865 -0.0703463
v -0.509094 0.555904 -0.123733
v -0.521549 0.545653 -0.10019
v -0.509854 0.556338 -0.111962
v -0.510468 0.55647 -0.10019
v -0.459331 0.554148 -0.217351
v -0.502632 0.55647 -0.10019
v -0.514678 0.556433 6.95803e-05
v -0.411059 0.455625 6.95803e-05
v -0.283113 0.383851 -0.217351
v -0.289633 0.391931 -0.217351
v -0.292586 0.395574 -0.217351
v -0.295714 0.399425 -0.217351
v -0.299691 0.404314 -0.217351
v -0.301474 0.406504 -0.217351
v -0.302176 0.407354 -0.217351
v -0.542075 0.536082 6.95803e-05
v -0.539531 0.539065 -0.00591194
v -0.538771 0.538159 -0.0176834
v -0.532865 0.545106 -0.0176834
v -0.533625 0.546012 -0.00591194
v -0.527806 0.550996 -0.0176834
v -0.519006 0.554375 -0.0624916
v -0.519649 0.55496 -0.0530404
v -0.520409 0.555583 -0.0412689
v -0.521199 0.556112 -0.0294762
v -0.5219 0.556451 -0.0176834
v -0.454214 0.550184 -0.217351
v -0.508802 0.552204 6.95803e-05
v -0.514064 0.556451 -0.0176834
v -0.522427 0.556433 6.95803e-05
v -0.413485 0.458513 6.95803e-05
v -0.306445 0.412413 -0.217351
v -0.533625 0.546012 6.95803e-05
v -0.531023 0.5489 6.95803e-05
v -0.528303 0.551902 -0.00591194
v -0.522427 0.556433 -0.00591194
v -0.432578 0.533081 -0.217351
v -0.501814 0.546314 6.95803e-05
v -0.426759 0.528399 -0.217351
v -0.525321 0.554205 6.95803e-05
v -0.420298 0.466404 6.95803e-05
v -0.311707 0.418095 -0.217351
v -0.435589 0.483715 6.95803e-05
v -0.428865 0.476183 6.95803e-05
v -0.528303 0.551902 6.95803e-05
v -0.498831 0.543784 6.95803e-05
v -0.419801 0.522452 -0.217351
v -0.488013 0.534572 6.95803e-05
v -0.312292 0.418718 -0.217351
v -0.438396 0.486716 6.95803e-05
v -0.413953 0.517242 -0.217351
v -0.478277 0.52602 6.95803e-05
v -0.317877 0.424646 -0.217351
v -0.441145 0.489605 6.95803e-05
v -0.323607 0.430725 -0.217351
v -0.334659 0.442429 -0.217351
v -0.389188 0.494702 -0.217351
v -0.470792 0.519168 6.95803e-05
v -0.447021 0.495778 6.95803e-05
v -0.335186 0.442976 -0.217351
v -0.383545 0.489454 -0.217351
v -0.464886 0.513372 6.95803e-05
v -0.340799 0.44881 -0.217351
v -0.346822 0.454643 -0.217351
v -0.376996 0.483262 -0.217351
v -0.450062 0.498779 6.95803e-05
v -0.45591 0.504537 6.95803e-05
f 1 2 7
f 1 7 18
f 1 18 33
f 1 33 32
f 1 32 55
f 1 55 76
f 1 76 80
f 1 80 79
f 1 79 109
f 1 109 131
f 1 131 153
f 1 153 163
f 1 163 165
f 1 165 173
f 1 173 177
f 1 177 183
f 1 183 187
f 1 187 191
f 1 191 190
f 1 190 189
f 1 189 186
f 1 186 182
f 1 182 181
f 1 181 179
f 1 179 175
f 1 175 168
f 1 168 158
f 1 158 141
f 1 141 140
f 1 140 139
f 1 139 138
f 1 138 137
f 1 137 136
f 1 136 135
f 1 135 113
f 1 113 111
f 1 111 83
f 1 83 58
f 1 58 34
f 1 34 19
f 1 19 9
f 1 9 3
f 1 3 4
f 1 4 5
f 1 5 6
f 1 6 8
f 1 8 2
f 2 8 7
f 3 9 4
f 4 9 10
f 4 10 11
f 4 11 12
f 4 12 13
f 4 13 5
f 5 13 14
f 5 14 15
f 5 15 27
f 5 27 16
f 5 16 8
f 5 8 6
f 7 17 18
f 7 8 16
f 7 16 17
f 9 19 20
f 9 20 21
f 9 21 10
f 10 21 11
f 11 21 22
f 11 22 23
f 11 23 12
f 12 24 25
f 12 25 15
f 12 15 14
f 12 14 13
f 12 23 26
f 12 26 24
f 15 25 28
f 15 28 27
f 16 27 29
f 16 29 30
f 16 30 17
f 17 31 32
f 17 32 33
f 17 33 18
f 17 30 31
f 19 34 57
f 19 57 82
f 19 82 88
f 19 88 87
f 19 87 65
f 19 65 42
f 19 42 41
f 19 41 40
f 19 40 39
f 19 39 26
f 19 26 23
f 19 23 22
f 19 22 21
f 19 21 20
f 24 35 36
f 24 36 37
f 24 37 38
f 24 38 28
f 24 28 25
f 24 26 39
f 24 39 40
f 24 40 41
f 24 41 42
f 24 42 35
f 27 28 43
f 27 43 44
f 27 44 45
f 27 45 46
f 27 46 47
f 27 47 48
f 27 48 29
f 28 38 49
f 28 49 50
f 28 50 43
f 29 48 51
f 29 51 30
f 30 51 52
f 30 52 53
f 30 53 54
f 30 54 31
f 31 55 32
f 31 54 56
f 31 56 55
f 34 58 59
f 34 59 60
f 34 60 61
f 34 61 62
f 34 62 63
f 34 63 57
f 35 64 36
f 35 42 65
f 35 65 64
f 36 64 66
f 36 66 37
f 37 66 38
f 38 66 67
f 38 67 49
f 43 68 44
f 43 50 67
f 43 67 69
f 43 69 70
f 43 70 71
f 43 71 68
f 44 68 71
f 44 71 72
f 44 72 45
f 45 72 73
f 45 73 46
f 46 73 47
f 47 73 48
f 48 73 74
f 48 74 52
f 48 52 51
f 49 67 50
f 52 74 75
f 52 75 53
f 53 75 56
f 53 56 54
f 55 56 76
f 56 77 78
f 56 78 79
f 56 79 80
f 56 80 76
f 56 75 81
f 56 81 77
f 57 63 62
f 57 62 61
f 57 61 60
f 57 60 59
f 57 59 85
f 57 85 84
f 57 84 112
f 57 112 134
f 57 134 157
f 57 157 167
f 57 167 170
f 57 170 169
f 57 169 176
f 57 176 180
f 57 180 185
f 57 185 192
f 57 192 193
f 57 193 188
f 57 188 184
f 57 184 178
f 57 178 174
f 57 174 172
f 57 172 164
f 57 164 154
f 57 154 133
f 57 133 156
f 57 156 166
f 57 166 171
f 57 171 160
f 57 160 159
f 57 159 142
f 57 142 118
f 57 118 117
f 57 117 115
f 57 115 114
f 57 114 92
f 57 92 91
f 57 91 90
f 57 90 110
f 57 110 82
f 58 83 84
f 58 84 85
f 58 85 59
f 64 86 66
f 64 65 87
f 64 87 88
f 64 88 86
f 66 86 89
f 66 89 90
f 66 90 91
f 66 91 92
f 66 92 93
f 66 93 67
f 67 93 94
f 67 94 69
f 69 94 95
f 69 95 96
f 69 96 97
f 69 97 70
f 70 97 71
f 71 98 99
f 71 99 100
f 71 100 72
f 71 97 96
f 71 96 101
f 71 101 98
f 72 100 99
f 72 99 102
f 72 102 103
f 72 103 104
f 72 104 73
f 73 104 105
f 73 105 81
f 73 81 75
f 73 75 74
f 77 79 78
f 77 81 106
f 77 106 79
f 79 106 107
f 79 107 108
f 79 108 109
f 81 105 106
f 82 110 89
f 82 89 88
f 83 111 84
f 84 111 113
f 84 113 112
f 86 88 89
f 89 110 90
f 92 114 93
f 93 114 115
f 93 115 94
f 94 115 117
f 94 117 95
f 95 116 96
f 95 117 118
f 95 118 119
f 95 119 120
f 95 120 116
f 96 116 121
f 96 121 98
f 96 98 101
f 98 121 122
f 98 122 102
f 98 102 123
f 98 123 99
f 99 123 102
f 102 124 125
f 102 125 126
f 102 126 127
f 102 127 105
f 102 105 104
f 102 104 103
f 102 122 128
f 102 128 121
f 102 121 124
f 105 127 106
f 106 127 129
f 106 129 107
f 107 129 130
f 107 130 108
f 108 131 109
f 108 130 132
f 108 132 133
f 108 133 131
f 112 113 135
f 112 135 136
f 112 136 137
f 112 137 138
f 112 138 139
f 112 139 140
f 112 140 141
f 112 141 134
f 116 120 121
f 118 142 119
f 119 142 143
f 119 143 144
f 119 144 120
f 120 144 121
f 121 144 145
f 121 145 125
f 121 125 124
f 121 128 122
f 125 145 146
f 125 146 147
f 125 147 148
f 125 148 126
f 126 148 127
f 127 148 149
f 127 149 150
f 127 150 151
f 127 151 129
f 129 151 152
f 129 152 130
f 130 152 155
f 130 155 132
f 131 133 154
f 131 154 153
f 132 155 133
f 133 155 152
f 133 152 156
f 134 141 157
f 141 158 157
f 142 159 146
f 142 146 143
f 143 146 145
f 143 145 144
f 146 159 160
f 146 160 161
f 146 161 147
f 147 161 149
f 147 149 148
f 149 161 150
f 150 161 151
f 151 161 152
f 152 162 156
f 152 161 162
f 153 154 163
f 154 164 165
f 154 165 163
f 156 162 166
f 157 158 167
f 158 168 169
f 158 169 170
f 158 170 167
f 160 171 161
f 161 171 166
f 161 166 162
f 164 172 165
f 165 172 174
f 165 174 173
f 168 175 176
f 168 176 169
f 173 174 178
f 173 178 177
f 175 179 176
f 176 179 181
f 176 181 182
f 176 182 180
f 177 178 183
f 178 184 183
f 180 182 185
f 182 186 185
f 183 184 187
f 184 188 189
f 184 189 190
f 184 190 191
f 184 191 187
f 185 186 189
f 185 189 192
f 188 193 189
f 189 193 192
