v -0.220808 0.077153 0.12813
v -0.220753 0.0765966 0.12813
v -0.25547 0.0768962 -0.000215766
v -0.255497 0.077153 -0.000215766
v -0.305027 0.077153 0.12813
v -0.219822 0.0648058 0.12813
v -0.255443 0.0765966 -0.000215766
v -0.334076 0.077153 -0.000215766
v -0.308285 0.077153 0.12323
v -0.306204 0.0771102 0.12813
v -0.218946 0.053015 0.12813
v -0.218152 0.0413526 0.12813
v -0.255087 0.0709259 -0.000215766
v -0.334076 0.077153 0.00590251
v -0.421279 -0.0272524 -0.000215766
v -0.312693 0.077153 0.112627
v -0.399157 -0.0253265 0.125894
v -0.398691 -0.0258829 0.12813
v -0.220561 0.0311667 0.12813
v -0.253362 0.0412456 -0.000215766
v -0.254019 0.053015 -0.000215766
v -0.254375 0.0591351 -0.000215766
v -0.334021 0.077153 0.00646786
v -0.421279 -0.0272524 0.00590251
v -0.425961 -0.0331157 -0.000215766
v -0.319264 0.077153 0.0967094
v -0.400772 -0.0235076 0.118042
v -0.403893 -0.0293495 0.122677
v -0.399841 -0.027231 0.12813
v -0.222943 0.0275288 0.12813
v -0.256757 0.0285774 -0.000215766
v -0.332543 0.077153 0.0176868
v -0.412627 -0.023422 0.0482028
v -0.411532 -0.0247273 0.0648114
v -0.425961 -0.0331157 0.00590251
v -0.425222 -0.0341001 0.0176868
v -0.436475 -0.0465757 -0.000215766
v -0.321974 0.077153 0.0888699
v -0.401867 -0.0222451 0.111961
v -0.411998 -0.0359618 0.116258
v -0.403154 -0.031147 0.12813
v -0.410519 -0.0377593 0.123745
v -0.407425 -0.0361972 0.12813
v -0.225106 0.0251536 0.12813
v -0.407234 -0.141416 -0.000215766
v -0.259741 0.0240836 -0.000215766
v -0.324767 0.077153 0.0765957
v -0.409972 -0.0266532 0.0883799
v -0.432669 -0.0420819 0.00673168
v -0.436475 -0.0465757 0.00335218
v -0.424647 -0.034849 0.0263805
v -0.413887 -0.0335009 0.100177
v -0.414654 -0.0325166 0.0883799
v -0.440089 -0.051904 0.00673168
v -0.440007 -0.0536801 0.0176868
v -0.43924 -0.0547072 0.0294711
v -0.451068 -0.0663697 -0.000215766
v -0.322139 0.077153 0.0883799
v -0.403318 -0.0206187 0.100177
v -0.413148 -0.0344639 0.108406
v -0.408411 -0.0301199 0.112175
v -0.437159 -0.0692157 0.120755
v -0.421197 -0.0509196 0.123745
v -0.420075 -0.0517756 0.12813
v -0.384783 -0.141416 0.12813
v -0.497832 -0.141416 -0.000215766
v -0.324658 0.077153 0.0771736
v -0.409205 -0.0276376 0.100177
v -0.44666 -0.0604636 0.00590251
v -0.451068 -0.0663697 0.00590251
v -0.434586 -0.0608701 0.100177
v -0.420567 -0.040263 0.0883799
v -0.420513 -0.0422317 0.100051
v -0.42399 -0.0475172 0.103908
v -0.445127 -0.0625179 0.0294711
v -0.454135 -0.0706708 -0.000215766
v -0.433627 -0.0619829 0.111961
v -0.438145 -0.067889 0.111961
v -0.447673 -0.0827184 0.116685
v -0.446523 -0.0843876 0.123745
v -0.44039 -0.0757638 0.124311
v -0.436174 -0.0717836 0.12813
v -0.43527 -0.0705853 0.12813
v -0.43245 -0.0651071 0.124311
v -0.427522 -0.0609771 0.12813
v -0.481021 -0.141416 0.12813
v -0.497832 -0.141416 0.00590251
v -0.496408 -0.138805 -0.000215766
v -0.450301 -0.0673754 0.0176868
v -0.456955 -0.0746938 0.00590251
v -0.4477 -0.0709062 0.0579016
v -0.438966 -0.0667762 0.100177
v -0.448768 -0.0694297 0.0412554
v -0.456955 -0.0746938 -0.000215766
v -0.447235 -0.0715696 0.0648114
v -0.446441 -0.0727465 0.0765957
v -0.44488 -0.0751432 0.100177
v -0.444716 -0.0774329 0.112438
v -0.449562 -0.079851 0.0883799
v -0.451232 -0.0873406 0.112438
v -0.457694 -0.0972483 0.111961
v -0.467961 -0.113019 0.11132
v -0.471 -0.118562 0.114825
v -0.470124 -0.120017 0.123745
v -0.463909 -0.110837 0.124763
v -0.460733 -0.107434 0.12813
v -0.458844 -0.10461 0.12813
v -0.430698 -0.0649145 0.12813
v -0.475518 -0.131529 0.12813
v -0.482281 -0.141416 0.123745
v -0.496326 -0.141416 0.0176868
v -0.496408 -0.138805 0.00590251
v -0.494738 -0.135745 -0.000215766
v -0.458844 -0.0775185 -0.000215766
v -0.46087 -0.0805786 0.00590251
v -0.450329 -0.0786526 0.0765957
v -0.460103 -0.0817555 0.0176868
v -0.459693 -0.0823975 0.0240061
v -0.457776 -0.0853505 0.0530397
v -0.462294 -0.101956 0.100177
v -0.46818 -0.111072 0.100177
v -0.47152 -0.117663 0.106961
v -0.482992 -0.118176 0.0221467
v -0.485758 -0.124939 0.0294711
v -0.473902 -0.122991 0.11132
v -0.483157 -0.141416 0.117702
v -0.473492 -0.125901 0.123745
v -0.472944 -0.126929 0.12813
v -0.471329 -0.124125 0.12813
v -0.495423 -0.141416 0.0245714
v -0.492438 -0.134311 0.0176868
v -0.493177 -0.132899 0.00590251
v -0.490768 -0.128491 -0.000215766
v -0.46087 -0.0805786 -0.000215766
v -0.477434 -0.106214 -0.000215766
v -0.470562 -0.0955792 0.00590251
v -0.473601 -0.102662 0.0176868
v -0.472835 -0.103861 0.0294711
v -0.480118 -0.112827 0.0180009
v -0.483513 -0.117342 0.0142822
v -0.48814 -0.12374 0.00590251
v -0.486059 -0.122756 0.0180009
v -0.483622 -0.128876 0.0620852
v -0.491179 -0.141416 0.0568337
v -0.48814 -0.12374 -0.000215766
v -0.482089 -0.113447 -0.000215766
v -0.480254 -0.110601 0.00590251
v -0.484033 -0.116486 0.00590251
v -0.486168 -0.120252 -0.000215766
v -0.484033 -0.116486 -0.000215766
f 1 2 3
f 1 3 4
f 1 4 8
f 1 8 14
f 1 14 23
f 1 23 32
f 1 32 47
f 1 47 67
f 1 67 58
f 1 58 38
f 1 38 26
f 1 26 16
f 1 16 9
f 1 9 5
f 1 5 10
f 1 10 18
f 1 18 29
f 1 29 41
f 1 41 43
f 1 43 64
f 1 64 85
f 1 85 108
f 1 108 83
f 1 83 82
f 1 82 107
f 1 107 106
f 1 106 129
f 1 129 128
f 1 128 109
f 1 109 86
f 1 86 65
f 1 65 44
f 1 44 30
f 1 30 19
f 1 19 12
f 1 12 11
f 1 11 6
f 1 6 2
f 2 6 7
f 2 7 3
f 3 7 13
f 3 13 22
f 3 22 21
f 3 21 20
f 3 20 31
f 3 31 46
f 3 46 45
f 3 45 66
f 3 66 88
f 3 88 113
f 3 113 133
f 3 133 145
f 3 145 149
f 3 149 150
f 3 150 146
f 3 146 135
f 3 135 134
f 3 134 114
f 3 114 94
f 3 94 76
f 3 76 57
f 3 57 37
f 3 37 25
f 3 25 15
f 3 15 8
f 3 8 4
f 5 9 10
f 6 11 7
f 7 11 12
f 7 12 13
f 8 15 24
f 8 24 14
f 9 16 17
f 9 17 18
f 9 18 10
f 12 19 20
f 12 20 21
f 12 21 22
f 12 22 13
f 14 24 23
f 15 25 35
f 15 35 24
f 16 26 27
f 16 27 17
f 17 27 28
f 17 28 29
f 17 29 18
f 19 30 31
f 19 31 20
f 23 24 33
f 23 33 34
f 23 34 32
f 24 35 36
f 24 36 34
f 24 34 33
f 25 37 50
f 25 50 35
f 26 38 39
f 26 39 27
f 27 39 40
f 27 40 28
f 28 41 29
f 28 40 42
f 28 42 43
f 28 43 41
f 30 44 45
f 30 45 46
f 30 46 31
f 32 34 47
f 34 36 48
f 34 48 47
f 35 49 36
f 35 50 49
f 36 51 52
f 36 52 53
f 36 53 48
f 36 49 54
f 36 54 55
f 36 55 56
f 36 56 51
f 37 57 70
f 37 70 50
f 38 58 39
f 39 59 60
f 39 60 61
f 39 61 40
f 39 58 59
f 40 61 60
f 40 60 62
f 40 62 63
f 40 63 42
f 42 63 64
f 42 64 43
f 44 65 45
f 45 65 86
f 45 86 110
f 45 110 126
f 45 126 144
f 45 144 130
f 45 130 111
f 45 111 87
f 45 87 66
f 47 48 68
f 47 68 59
f 47 59 67
f 48 53 52
f 48 52 68
f 49 50 69
f 49 69 54
f 50 70 69
f 51 71 72
f 51 72 52
f 51 56 71
f 52 72 73
f 52 73 74
f 52 74 60
f 52 60 68
f 54 69 55
f 55 69 75
f 55 75 56
f 56 75 71
f 57 76 70
f 58 67 59
f 59 68 60
f 60 74 77
f 60 77 62
f 62 77 78
f 62 78 79
f 62 79 80
f 62 80 81
f 62 81 82
f 62 82 83
f 62 83 84
f 62 84 63
f 63 84 64
f 64 84 85
f 66 87 112
f 66 112 88
f 69 70 89
f 69 89 93
f 69 93 75
f 70 76 90
f 70 90 89
f 71 74 73
f 71 73 72
f 71 75 91
f 71 91 92
f 71 92 78
f 71 78 74
f 74 78 77
f 75 93 91
f 76 94 90
f 78 92 95
f 78 95 96
f 78 96 97
f 78 97 98
f 78 98 79
f 79 98 97
f 79 97 99
f 79 99 100
f 79 100 101
f 79 101 102
f 79 102 103
f 79 103 104
f 79 104 105
f 79 105 106
f 79 106 107
f 79 107 80
f 80 107 81
f 81 107 82
f 83 108 84
f 84 108 85
f 86 109 110
f 87 111 112
f 88 112 113
f 89 90 93
f 90 91 93
f 90 94 114
f 90 114 115
f 90 115 91
f 91 115 95
f 91 95 92
f 95 116 99
f 95 99 97
f 95 97 96
f 95 115 117
f 95 117 116
f 99 116 118
f 99 118 119
f 99 119 100
f 100 119 120
f 100 120 101
f 101 120 121
f 101 121 102
f 102 121 122
f 102 122 103
f 103 122 123
f 103 123 124
f 103 124 125
f 103 125 126
f 103 126 110
f 103 110 127
f 103 127 104
f 104 127 128
f 104 128 129
f 104 129 106
f 104 106 105
f 109 128 110
f 110 128 127
f 111 130 131
f 111 131 132
f 111 132 112
f 112 132 113
f 113 132 133
f 114 134 115
f 115 134 135
f 115 135 136
f 115 136 117
f 116 117 118
f 117 136 137
f 117 137 118
f 118 137 138
f 118 138 120
f 118 120 119
f 120 138 121
f 121 138 139
f 121 139 140
f 121 140 122
f 122 140 123
f 123 140 141
f 123 141 142
f 123 142 124
f 124 143 125
f 124 142 131
f 124 131 130
f 124 130 144
f 124 144 143
f 125 143 126
f 126 143 144
f 131 142 132
f 132 142 141
f 132 141 133
f 133 141 145
f 135 146 147
f 135 147 136
f 136 147 137
f 137 147 139
f 137 139 138
f 139 147 140
f 140 147 148
f 140 148 141
f 141 148 149
f 141 149 145
f 146 150 148
f 146 148 147
f 148 150 149
