v -0.502649 0.556489 0.100193
v -0.514679 0.556415 9.08741e-05
v -0.514072 0.55644 0.0176933
v -0.510467 0.556489 0.100193
v -0.462741 0.556046 0.241794
v -0.46756 0.55612 0.206234
v -0.511681 0.554274 9.08741e-05
v -0.522425 0.556415 9.08741e-05
v -0.453352 0.555849 0.241794
v -0.452853 0.555578 0.241794
v -0.448997 0.552994 0.238505
v -0.52189 0.55644 0.0176933
v -0.50986 0.556341 0.111975
v -0.473699 0.555677 0.218016
v -0.472129 0.554569 0.225634
v -0.468523 0.551148 0.241794
v -0.486693 0.556095 0.182669
v -0.497652 0.555898 0.159105
v -0.508789 0.552206 9.08741e-05
v -0.522425 0.556415 0.00591104
v -0.525317 0.5542 9.08741e-05
v -0.442429 0.548883 0.241794
v -0.528315 0.551886 0.00591104
v -0.521176 0.556095 0.0294756
v -0.509075 0.555898 0.123734
v -0.495974 0.554791 0.167385
v -0.474163 0.545142 0.241794
v -0.468773 0.550902 0.241794
v -0.507076 0.554225 0.142188
v -0.48323 0.553954 0.200437
v -0.507968 0.555012 0.135516
v -0.501828 0.546323 9.08741e-05
v -0.441679 0.548317 0.241794
v -0.415193 0.528182 0.241794
v -0.412729 0.526287 0.241794
v -0.406875 0.521758 0.241794
v -0.379353 0.4999 0.241794
v -0.372107 0.49409 0.241794
v -0.370143 0.492515 0.241794
v -0.528315 0.551886 9.08741e-05
v -0.531028 0.548908 9.08741e-05
v -0.533634 0.546003 0.00591104
v -0.52778 0.551 0.0176933
v -0.519641 0.554963 0.0530402
v -0.520426 0.555578 0.0412579
v -0.519034 0.554372 0.0625039
v -0.515 0.54972 0.123734
v -0.508968 0.544526 0.159105
v -0.505791 0.541056 0.174412
v -0.520712 0.520921 0.182669
v -0.496724 0.520453 0.241604
v -0.49783 0.519148 0.241794
v -0.518534 0.542089 0.141265
v -0.510645 0.548342 0.146589
v -0.514786 0.547332 0.136605
v -0.49883 0.543788 9.08741e-05
v -0.362326 0.485869 0.241794
v -0.533634 0.546003 9.08741e-05
v -0.526316 0.549179 0.0412579
v -0.527066 0.550089 0.0294756
v -0.544522 0.533179 0.00591104
v -0.543772 0.532268 0.0176933
v -0.523104 0.54748 0.0766285
v -0.543344 0.519985 0.100193
v -0.530457 0.530471 0.13043
v -0.529886 0.529856 0.138284
v -0.519248 0.542951 0.133411
v -0.517285 0.540736 0.147299
v -0.531921 0.520281 0.156999
v -0.526602 0.514447 0.182669
v -0.503542 0.512847 0.241794
v -0.539595 0.515727 0.147299
v -0.533706 0.522422 0.147299
v -0.543201 0.508121 0.156029
v -0.495938 0.541326 9.08741e-05
v -0.356436 0.480602 0.241794
v -0.478269 0.526016 9.08741e-05
v -0.488014 0.534557 9.08741e-05
v -0.544522 0.533179 9.08741e-05
v -0.542451 0.530717 0.0377564
v -0.550412 0.526238 0.00591104
v -0.55466 0.519444 0.0176933
v -0.552339 0.516687 0.0530402
v -0.550126 0.511813 0.101068
v -0.542166 0.518582 0.118103
v -0.542558 0.519075 0.111975
v -0.54163 0.517992 0.125934
v -0.540988 0.517228 0.135516
v -0.544557 0.509844 0.147299
v -0.536775 0.51329 0.160453
v -0.530564 0.507063 0.189128
v -0.504863 0.511346 0.241794
v -0.554303 0.507333 0.0977325
v -0.547127 0.500884 0.135516
v -0.543201 0.503961 0.156029
v -0.34976 0.474546 0.241794
v -0.470772 0.519173 9.08741e-05
v -0.344049 0.469353 0.241794
v -0.550412 0.526238 9.08741e-05
v -0.561299 0.513389 0.00591104
v -0.565833 0.506964 0.0128905
v -0.545771 0.511346 0.135516
v -0.530564 0.506103 0.189128
v -0.508218 0.508539 0.23957
v -0.506362 0.500884 0.241794
v -0.554303 0.505536 0.0977325
v -0.552125 0.501303 0.101068
v -0.552482 0.498078 0.0884108
v -0.542772 0.49441 0.143584
v -0.54445 0.500367 0.147441
v -0.541559 0.496109 0.151439
v -0.540167 0.500367 0.159625
v -0.452995 0.501672 9.08741e-05
v -0.336696 0.462633 0.241794
v -0.327629 0.454141 0.241794
v -0.325665 0.45227 0.241794
v -0.561299 0.513389 9.08741e-05
v -0.566225 0.507506 0.00591104
v -0.565833 0.506349 0.0128905
v -0.528815 0.49825 0.184893
v -0.517713 0.496675 0.21009
v -0.505684 0.499309 0.241794
v -0.508218 0.503173 0.23957
v -0.563798 0.49926 0.00591104
v -0.553267 0.49633 0.0766285
v -0.553731 0.495321 0.0694834
v -0.543486 0.49382 0.135516
v -0.392311 0.305024 0.0917231
v -0.391026 0.305024 0.100193
v -0.389705 0.305024 0.106226
v -0.389277 0.305024 0.10793
v -0.530421 0.494903 0.177015
v -0.447034 0.495789 9.08741e-05
v -0.323845 0.450448 0.241794
v -0.566225 0.507506 9.08741e-05
v -0.566225 0.505143 0.00591104
v -0.506576 0.495321 0.235287
v -0.499365 0.491531 0.241794
v -0.563798 0.49926 9.08741e-05
v -0.560906 0.495469 9.08741e-05
v -0.557908 0.49158 0.00591104
v -0.557158 0.49222 0.0176933
v -0.554231 0.494681 0.0616049
v -0.402092 0.305024 0.0176933
v -0.400807 0.305024 0.0274883
v -0.395274 0.305024 0.0696253
v -0.392811 0.305024 0.0881269
v -0.382709 0.305024 0.1239
v -0.376283 0.305024 0.13942
v -0.356543 0.305024 0.187093
v -0.441144 0.489611 9.08741e-05
v -0.31567 0.442128 0.241794
v -0.566225 0.505143 9.08741e-05
v -0.354794 0.305024 0.191281
v -0.352152 0.305024 0.19748
v -0.346905 0.305024 0.206163
v -0.344549 0.305024 0.209451
v -0.342657 0.305024 0.212054
v -0.341622 0.305024 0.21345
v -0.337338 0.305024 0.219057
v -0.331876 0.305024 0.226178
v -0.324487 0.305024 0.235808
v -0.32156 0.305024 0.239617
v -0.319882 0.305024 0.241794
v -0.557908 0.49158 9.08741e-05
v -0.403591 0.305024 0.00591104
v -0.435575 0.483728 9.08741e-05
v -0.304604 0.430436 0.241794
v -0.201548 0.305024 0.241794
v -0.403591 0.305024 9.08741e-05
v -0.428864 0.476171 9.08741e-05
v -0.300142 0.42571 0.241794
v -0.29211 0.417194 0.241794
v -0.285292 0.409588 0.241794
v -0.206617 0.311867 0.241794
v -0.316455 0.305024 9.08741e-05
v -0.317669 0.307682 9.08741e-05
v -0.320382 0.313565 9.08741e-05
v -0.325415 0.324125 9.08741e-05
v -0.329163 0.331559 9.08741e-05
v -0.332376 0.337441 9.08741e-05
v -0.344192 0.358783 9.08741e-05
v -0.347083 0.363927 9.08741e-05
v -0.350617 0.370204 9.08741e-05
v -0.354258 0.376111 9.08741e-05
v -0.35872 0.383053 9.08741e-05
v -0.374356 0.407348 9.08741e-05
v -0.381316 0.417243 9.08741e-05
v -0.420297 0.466399 9.08741e-05
v -0.28058 0.403877 0.241794
v -0.408553 0.452614 9.08741e-05
v -0.411016 0.455593 9.08741e-05
v -0.413443 0.458497 9.08741e-05
v -0.216291 0.324371 0.241794
v -0.384779 0.421797 9.08741e-05
v -0.398165 0.439396 9.08741e-05
v -0.402663 0.445279 9.08741e-05
v -0.273013 0.394548 0.241794
v -0.405554 0.448898 9.08741e-05
f 1 2 3
f 1 3 12
f 1 12 4
f 1 4 5
f 1 5 6
f 1 6 2
f 2 7 19
f 2 19 32
f 2 32 56
f 2 56 75
f 2 75 78
f 2 78 77
f 2 77 97
f 2 97 113
f 2 113 133
f 2 133 151
f 2 151 167
f 2 167 171
f 2 171 189
f 2 189 193
f 2 193 192
f 2 192 191
f 2 191 199
f 2 199 197
f 2 197 196
f 2 196 195
f 2 195 188
f 2 188 187
f 2 187 186
f 2 186 185
f 2 185 184
f 2 184 183
f 2 183 182
f 2 182 181
f 2 181 180
f 2 180 179
f 2 179 178
f 2 178 177
f 2 177 176
f 2 176 170
f 2 170 165
f 2 165 140
f 2 140 139
f 2 139 153
f 2 153 135
f 2 135 117
f 2 117 99
f 2 99 79
f 2 79 58
f 2 58 41
f 2 41 40
f 2 40 21
f 2 21 8
f 2 8 12
f 2 12 3
f 2 6 9
f 2 9 10
f 2 10 11
f 2 11 7
f 4 12 13
f 4 13 5
f 5 14 15
f 5 15 16
f 5 16 28
f 5 28 27
f 5 27 52
f 5 52 71
f 5 71 92
f 5 92 105
f 5 105 122
f 5 122 138
f 5 138 164
f 5 164 169
f 5 169 175
f 5 175 194
f 5 194 198
f 5 198 190
f 5 190 174
f 5 174 173
f 5 173 172
f 5 172 168
f 5 168 152
f 5 152 134
f 5 134 116
f 5 116 115
f 5 115 114
f 5 114 98
f 5 98 96
f 5 96 76
f 5 76 57
f 5 57 39
f 5 39 38
f 5 38 37
f 5 37 36
f 5 36 35
f 5 35 34
f 5 34 33
f 5 33 22
f 5 22 10
f 5 10 9
f 5 9 6
f 5 13 17
f 5 17 18
f 5 18 14
f 7 11 19
f 8 20 12
f 8 21 20
f 10 22 11
f 11 22 19
f 12 20 23
f 12 23 24
f 12 24 13
f 13 25 18
f 13 18 17
f 13 24 25
f 14 18 26
f 14 26 15
f 15 27 28
f 15 28 16
f 15 26 29
f 15 29 30
f 15 30 27
f 18 25 31
f 18 31 29
f 18 29 26
f 19 22 33
f 19 33 34
f 19 34 35
f 19 35 36
f 19 36 37
f 19 37 38
f 19 38 39
f 19 39 32
f 20 21 23
f 21 40 23
f 23 40 41
f 23 41 42
f 23 42 43
f 23 43 44
f 23 44 45
f 23 45 24
f 24 45 25
f 25 45 44
f 25 44 46
f 25 46 47
f 25 47 31
f 27 30 48
f 27 48 49
f 27 49 50
f 27 50 51
f 27 51 52
f 29 31 53
f 29 53 54
f 29 54 48
f 29 48 30
f 31 47 55
f 31 55 53
f 32 39 56
f 39 57 56
f 41 58 42
f 42 59 60
f 42 60 43
f 42 58 79
f 42 79 61
f 42 61 82
f 42 82 62
f 42 62 59
f 43 60 46
f 43 46 44
f 46 60 59
f 46 59 47
f 47 59 63
f 47 63 64
f 47 64 65
f 47 65 66
f 47 66 67
f 47 67 55
f 48 54 68
f 48 68 69
f 48 69 50
f 48 50 49
f 50 69 70
f 50 70 51
f 51 70 52
f 52 70 71
f 53 69 68
f 53 68 54
f 53 55 66
f 53 66 72
f 53 72 73
f 53 73 74
f 53 74 69
f 55 67 66
f 56 57 75
f 57 76 77
f 57 77 78
f 57 78 75
f 59 62 80
f 59 80 63
f 61 79 99
f 61 99 81
f 61 81 82
f 62 82 80
f 63 80 64
f 64 80 82
f 64 82 83
f 64 83 84
f 64 84 85
f 64 85 86
f 64 86 65
f 65 86 85
f 65 85 87
f 65 87 88
f 65 88 66
f 66 88 89
f 66 89 72
f 69 74 90
f 69 90 70
f 70 90 91
f 70 91 71
f 71 91 92
f 72 89 74
f 72 74 73
f 74 89 93
f 74 93 94
f 74 94 95
f 74 95 103
f 74 103 91
f 74 91 90
f 76 96 77
f 77 96 98
f 77 98 97
f 81 99 117
f 81 117 100
f 81 100 82
f 82 100 101
f 82 101 83
f 83 101 84
f 84 101 93
f 84 93 88
f 84 88 87
f 84 87 85
f 88 93 102
f 88 102 89
f 89 102 93
f 91 103 123
f 91 123 104
f 91 104 92
f 92 104 105
f 93 101 119
f 93 119 106
f 93 106 94
f 94 106 107
f 94 107 108
f 94 108 109
f 94 109 110
f 94 110 95
f 95 110 111
f 95 111 112
f 95 112 103
f 97 98 114
f 97 114 115
f 97 115 116
f 97 116 113
f 100 117 135
f 100 135 118
f 100 118 101
f 101 118 136
f 101 136 119
f 103 112 120
f 103 120 121
f 103 121 122
f 103 122 105
f 103 105 123
f 104 123 105
f 106 108 107
f 106 119 108
f 108 119 124
f 108 124 125
f 108 125 109
f 109 111 110
f 109 125 126
f 109 126 127
f 109 127 128
f 109 128 129
f 109 129 130
f 109 130 131
f 109 131 111
f 111 132 121
f 111 121 120
f 111 120 112
f 111 131 132
f 113 116 133
f 116 134 133
f 118 135 153
f 118 153 136
f 119 136 124
f 121 132 137
f 121 137 122
f 122 137 138
f 124 136 153
f 124 153 139
f 124 139 140
f 124 140 141
f 124 141 142
f 124 142 143
f 124 143 126
f 124 126 125
f 126 143 144
f 126 144 145
f 126 145 146
f 126 146 147
f 126 147 127
f 127 147 128
f 128 147 146
f 128 146 145
f 128 145 144
f 128 144 166
f 128 166 170
f 128 170 176
f 128 176 169
f 128 169 164
f 128 164 163
f 128 163 162
f 128 162 161
f 128 161 160
f 128 160 159
f 128 159 158
f 128 158 157
f 128 157 156
f 128 156 155
f 128 155 154
f 128 154 150
f 128 150 149
f 128 149 148
f 128 148 131
f 128 131 130
f 128 130 129
f 131 148 132
f 132 148 149
f 132 149 150
f 132 150 137
f 133 134 152
f 133 152 151
f 137 150 154
f 137 154 155
f 137 155 138
f 138 155 156
f 138 156 157
f 138 157 158
f 138 158 159
f 138 159 160
f 138 160 161
f 138 161 162
f 138 162 163
f 138 163 164
f 140 165 141
f 141 166 142
f 141 165 170
f 141 170 166
f 142 166 143
f 143 166 144
f 151 152 167
f 152 168 167
f 167 168 172
f 167 172 173
f 167 173 174
f 167 174 171
f 169 176 177
f 169 177 178
f 169 178 179
f 169 179 180
f 169 180 181
f 169 181 182
f 169 182 183
f 169 183 184
f 169 184 185
f 169 185 186
f 169 186 187
f 169 187 188
f 169 188 175
f 171 174 189
f 174 190 191
f 174 191 192
f 174 192 193
f 174 193 189
f 175 188 195
f 175 195 196
f 175 196 197
f 175 197 194
f 190 198 191
f 191 198 194
f 191 194 199
f 194 197 199
