v 0.29571 0.0771744 0.153534
v 0.202458 0.0771744 0.153534
v 0.295262 0.0771744 0.154649
v 0.38752 -0.0251565 0.153534
v 0.202394 0.0765817 0.153534
v 0.168426 0.0771486 0.191028
v 0.168426 0.0771744 0.191258
v 0.292858 0.0771744 0.160256
v 0.365793 -0.0230692 0.201439
v 0.376913 -0.0238165 0.176306
v 0.375599 -0.0253111 0.182683
v 0.386367 -0.0264708 0.159108
v 0.389956 -0.0279654 0.153534
v 0.201497 0.064805 0.153534
v 0.168426 0.0762467 0.19093
v 0.168426 0.0765817 0.190963
v 0.168426 0.0771744 0.288115
v 0.29273 0.0771744 0.160535
v 0.363871 -0.0250019 0.209308
v 0.369222 -0.0291508 0.205734
v 0.373901 -0.0295374 0.195504
v 0.391398 -0.032372 0.159108
v 0.392744 -0.0312639 0.153534
v 0.200119 0.0466117 0.153534
v 0.168426 0.064805 0.190061
v 0.199799 0.0422824 0.153534
v 0.199606 0.0394993 0.153534
v 0.171823 0.0771744 0.286164
v 0.168426 0.0356338 0.321019
v 0.168619 0.0355823 0.321019
v 0.169708 0.03517 0.321019
v 0.174194 0.0334692 0.321019
v 0.182206 0.029913 0.321019
v 0.191499 0.0253518 0.321019
v 0.192236 0.0249652 0.321019
v 0.197491 0.0217956 0.321019
v 0.205695 0.0167963 0.321019
v 0.208066 0.0153274 0.321019
v 0.210886 0.0135751 0.321019
v 0.286193 0.0771744 0.171798
v 0.35602 -0.0213169 0.215374
v 0.367492 -0.0328616 0.215341
v 0.387873 -0.0600485 0.221718
v 0.375728 -0.0370621 0.206258
v 0.377009 -0.0354901 0.200127
v 0.378644 -0.0335316 0.192258
v 0.398448 -0.0381186 0.153534
v 0.389763 -0.0343305 0.16706
v 0.168426 0.0412258 0.188274
v 0.199606 0.0357885 0.153534
v 0.176726 0.0771744 0.282787
v 0.212937 0.0122609 0.321019
v 0.219571 0.00767388 0.321019
v 0.25418 -0.0165237 0.321019
v 0.261774 -0.021858 0.321019
v 0.168426 -0.0799168 0.321019
v 0.282796 0.0771744 0.176716
v 0.353007 -0.0241 0.223227
v 0.36041 -0.0284808 0.219292
v 0.364768 -0.0359797 0.223194
v 0.376336 -0.0479883 0.222686
v 0.391141 -0.0679082 0.227456
v 0.399409 -0.0724952 0.218046
v 0.393032 -0.0643005 0.217898
v 0.389635 -0.0580385 0.213865
v 0.391205 -0.05608 0.206258
v 0.386527 -0.038299 0.182683
v 0.388129 -0.0363147 0.174929
v 0.40287 -0.043556 0.153534
v 0.168426 0.038752 0.188799
v 0.199895 0.0343454 0.153534
v 0.181885 0.0771744 0.278853
v 0.27001 -0.0243577 0.317396
v 0.268087 -0.0265223 0.321019
v 0.288596 -0.186087 0.321019
v 0.168426 0.0222079 0.198389
v 0.402229 -0.186087 0.153534
v 0.279015 0.0771744 0.1817
v 0.317405 -0.0243577 0.27
v 0.328268 -0.0252596 0.257015
v 0.272702 0.0771744 0.189946
v 0.35634 -0.0325266 0.229834
v 0.324807 -0.0287385 0.266049
v 0.353905 -0.0350005 0.236178
v 0.362236 -0.0386598 0.229834
v 0.377041 -0.0590177 0.235604
v 0.38861 -0.0710521 0.235309
v 0.37999 -0.0558223 0.227751
v 0.399665 -0.0837565 0.233965
v 0.40178 -0.0808961 0.226112
v 0.403575 -0.0783707 0.218046
v 0.400659 -0.0707429 0.212078
v 0.399121 -0.0608731 0.196537
v 0.413477 -0.0576777 0.155616
v 0.411746 -0.0544823 0.153534
v 0.400819 -0.0470091 0.165273
v 0.168426 0.0288565 0.192487
v 0.204413 0.0280834 0.153534
v 0.196594 0.0771744 0.267606
v 0.27017 -0.02812 0.321019
v 0.290871 -0.0264708 0.303493
v 0.282988 -0.0234815 0.30651
v 0.405081 -0.186087 0.321019
v 0.207618 0.0243725 0.153534
v 0.495801 -0.186087 0.153534
v 0.306542 -0.0234815 0.282968
v 0.303529 -0.0264708 0.290837
v 0.267895 0.0771744 0.196209
v 0.343041 -0.034047 0.24913
v 0.32061 -0.0329389 0.276951
v 0.318302 -0.035284 0.282951
v 0.330576 -0.0583219 0.295345
v 0.391814 -0.0789118 0.23949
v 0.40271 -0.0916162 0.23849
v 0.327563 -0.0615174 0.303198
v 0.331217 -0.0693771 0.308018
v 0.34208 -0.0703563 0.29505
v 0.352975 -0.0713871 0.282082
v 0.331441 -0.0806899 0.320068
v 0.413477 -0.10463 0.237326
v 0.415175 -0.102156 0.229834
v 0.411779 -0.0716706 0.18688
v 0.412387 -0.0944251 0.223686
v 0.425654 -0.0805095 0.168338
v 0.408382 -0.0653055 0.182847
v 0.424501 -0.0703821 0.153813
v 0.416842 -0.06077 0.153534
v 0.217488 0.0771744 0.251523
v 0.27706 -0.0334543 0.321019
v 0.295935 -0.0343305 0.307411
v 0.295646 -0.0226827 0.29564
v 0.236619 0.0771744 0.236604
v 0.23021 0.0771744 0.241719
v 0.229793 0.0771744 0.242047
v 0.409119 -0.186087 0.315773
v 0.400402 -0.177815 0.321019
v 0.495641 -0.185752 0.153534
v 0.494808 -0.186087 0.155944
v 0.25748 0.0771744 0.209767
v 0.251872 0.0771744 0.217062
v 0.247258 0.0771744 0.223063
v 0.242451 0.0771744 0.229293
v 0.242066 0.0771744 0.229784
v 0.236971 0.0771744 0.236178
v 0.307439 -0.0343305 0.295903
v 0.31529 -0.0384794 0.290804
v 0.388802 -0.0826226 0.247343
v 0.399826 -0.0953528 0.246359
v 0.41399 -0.115943 0.249458
v 0.410849 -0.108083 0.245195
v 0.31968 -0.0573685 0.308313
v 0.323942 -0.0649705 0.312084
v 0.328204 -0.072856 0.315871
v 0.331024 -0.0811538 0.321019
v 0.33253 -0.0829576 0.321019
v 0.341727 -0.094322 0.321019
v 0.424533 -0.129188 0.247884
v 0.422289 -0.12071 0.241588
v 0.424052 -0.11821 0.235194
v 0.421584 -0.111897 0.230686
v 0.429179 -0.0768245 0.153534
v 0.425975 -0.103599 0.206258
v 0.437543 -0.0921316 0.159108
v 0.436325 -0.087055 0.153534
v 0.4328 -0.0820042 0.153534
v 0.424565 -0.0703306 0.153534
v 0.28145 -0.0369332 0.321019
v 0.282956 -0.035284 0.318281
v 0.290839 -0.0384794 0.315264
v 0.307471 -0.0580642 0.321019
v 0.308336 -0.0573685 0.319674
v 0.308112 -0.0453856 0.3081
v 0.414438 -0.186087 0.308854
v 0.396012 -0.170239 0.321019
v 0.436742 -0.175548 0.271967
v 0.425878 -0.173976 0.284935
v 0.491764 -0.177867 0.153534
v 0.484297 -0.174543 0.167666
v 0.477183 -0.18266 0.194471
v 0.467954 -0.183304 0.217505
v 0.462602 -0.186087 0.233686
v 0.389122 -0.105815 0.271328
v 0.397422 -0.0996305 0.253999
v 0.402998 -0.103212 0.25049
v 0.399986 -0.106949 0.258343
v 0.403126 -0.114809 0.262458
v 0.389251 -0.117412 0.283295
v 0.400114 -0.118648 0.270311
v 0.410977 -0.119988 0.257327
v 0.417771 -0.124575 0.252605
v 0.316187 -0.0605639 0.316166
v 0.320353 -0.0684236 0.32033
v 0.321026 -0.0699182 0.321019
v 0.352366 -0.107516 0.321019
v 0.38611 -0.109552 0.27918
v 0.422225 -0.135528 0.256605
v 0.437447 -0.162921 0.261114
v 0.43719 -0.151247 0.249507
v 0.434819 -0.143387 0.244703
v 0.438697 -0.147304 0.241096
v 0.434531 -0.132229 0.229834
v 0.437479 -0.127204 0.215587
v 0.449752 -0.124137 0.181601
v 0.458629 -0.119499 0.153534
v 0.447894 -0.117747 0.176945
v 0.445074 -0.110041 0.170896
v 0.443696 -0.100816 0.158797
v 0.444689 -0.0991151 0.153534
v 0.309522 -0.059765 0.321019
v 0.313656 -0.0633212 0.321019
v 0.43405 -0.186087 0.283279
v 0.44517 -0.181732 0.265557
v 0.398832 -0.168178 0.315756
v 0.390917 -0.162044 0.321019
v 0.430173 -0.170832 0.276951
v 0.423571 -0.166142 0.281951
v 0.43953 -0.171321 0.265098
v 0.488399 -0.171089 0.153534
v 0.469941 -0.1798 0.20857
v 0.48231 -0.166683 0.162912
v 0.471223 -0.165369 0.18811
v 0.460455 -0.17511 0.225915
v 0.457379 -0.18248 0.242031
v 0.46084 -0.186087 0.237932
v 0.391237 -0.11285 0.275934
v 0.357269 -0.113623 0.321019
v 0.36448 -0.119035 0.317101
v 0.397679 -0.123029 0.277443
v 0.406908 -0.123235 0.26559
v 0.36307 -0.121328 0.321019
v 0.413701 -0.127848 0.260868
v 0.319969 -0.0688101 0.321019
v 0.422225 -0.146145 0.266065
v 0.426936 -0.149314 0.262737
v 0.430685 -0.158308 0.265852
v 0.399826 -0.130915 0.281705
v 0.410369 -0.144521 0.280082
v 0.434435 -0.167688 0.268967
v 0.447605 -0.177171 0.258835
v 0.439658 -0.159029 0.253409
v 0.412708 -0.164647 0.294919
v 0.445907 -0.170239 0.254294
v 0.447349 -0.16591 0.246343
v 0.445202 -0.159081 0.242096
v 0.450489 -0.159081 0.229342
v 0.458757 -0.142898 0.186471
v 0.469332 -0.137666 0.153534
v 0.460968 -0.127359 0.159108
v 0.465294 -0.130812 0.153534
v 0.453534 -0.111948 0.153534
v 0.450617 -0.107696 0.153534
v 0.448438 -0.105197 0.154666
v 0.448663 -0.104862 0.153534
v 0.446003 -0.186087 0.267688
v 0.423924 -0.153721 0.27059
v 0.371049 -0.132951 0.321019
v 0.484137 -0.162972 0.153534
v 0.483945 -0.163694 0.155059
v 0.460103 -0.164157 0.213308
v 0.458469 -0.16725 0.221161
v 0.45129 -0.170239 0.242096
v 0.449336 -0.17377 0.250966
v 0.457539 -0.186087 0.245867
v 0.402838 -0.126508 0.273836
v 0.366659 -0.126534 0.321019
v 0.449047 -0.186087 0.263458
v 0.449592 -0.185031 0.261901
v 0.453982 -0.186087 0.254277
v 0.451835 -0.181732 0.254294
v 0.448983 -0.163024 0.23849
v 0.47055 -0.154674 0.174683
v 0.47933 -0.154726 0.153534
v 0.482118 -0.159493 0.153534
v 0.479843 -0.159493 0.159043
v 0.449848 -0.186087 0.262311
f 1 2 7
f 1 7 17
f 1 17 28
f 1 28 51
f 1 51 72
f 1 72 99
f 1 99 128
f 1 128 134
f 1 134 133
f 1 133 132
f 1 132 144
f 1 144 143
f 1 143 142
f 1 142 141
f 1 141 140
f 1 140 139
f 1 139 108
f 1 108 81
f 1 81 78
f 1 78 57
f 1 57 40
f 1 40 18
f 1 18 8
f 1 8 3
f 1 3 4
f 1 4 13
f 1 13 23
f 1 23 47
f 1 47 69
f 1 69 95
f 1 95 127
f 1 127 166
f 1 166 161
f 1 161 165
f 1 165 164
f 1 164 208
f 1 208 253
f 1 253 251
f 1 251 250
f 1 250 204
f 1 204 249
f 1 249 247
f 1 247 272
f 1 272 273
f 1 273 257
f 1 257 218
f 1 218 177
f 1 177 137
f 1 137 105
f 1 105 77
f 1 77 104
f 1 104 98
f 1 98 71
f 1 71 50
f 1 50 27
f 1 27 26
f 1 26 24
f 1 24 14
f 1 14 5
f 1 5 2
f 2 5 6
f 2 6 7
f 3 8 9
f 3 9 10
f 3 10 4
f 4 10 11
f 4 11 12
f 4 12 13
f 5 14 15
f 5 15 16
f 5 16 6
f 6 16 15
f 6 15 25
f 6 25 49
f 6 49 70
f 6 70 97
f 6 97 76
f 6 76 56
f 6 56 29
f 6 29 17
f 6 17 7
f 8 18 9
f 9 19 20
f 9 20 21
f 9 21 11
f 9 11 10
f 9 18 19
f 11 21 12
f 12 21 13
f 13 21 22
f 13 22 23
f 14 24 15
f 15 24 26
f 15 26 27
f 15 27 25
f 17 29 30
f 17 30 31
f 17 31 32
f 17 32 33
f 17 33 34
f 17 34 35
f 17 35 36
f 17 36 37
f 17 37 38
f 17 38 39
f 17 39 28
f 18 40 19
f 19 41 42
f 19 42 43
f 19 43 20
f 19 40 41
f 20 43 44
f 20 44 45
f 20 45 21
f 21 45 46
f 21 46 22
f 22 47 23
f 22 46 48
f 22 48 47
f 25 27 49
f 27 50 49
f 28 39 52
f 28 52 53
f 28 53 54
f 28 54 55
f 28 55 51
f 29 56 75
f 29 75 103
f 29 103 136
f 29 136 174
f 29 174 214
f 29 214 256
f 29 256 265
f 29 265 230
f 29 230 226
f 29 226 194
f 29 194 156
f 29 156 155
f 29 155 154
f 29 154 193
f 29 193 232
f 29 232 210
f 29 210 209
f 29 209 170
f 29 170 167
f 29 167 129
f 29 129 100
f 29 100 74
f 29 74 55
f 29 55 54
f 29 54 53
f 29 53 52
f 29 52 39
f 29 39 38
f 29 38 37
f 29 37 36
f 29 36 35
f 29 35 34
f 29 34 33
f 29 33 32
f 29 32 31
f 29 31 30
f 40 57 41
f 41 58 59
f 41 59 42
f 41 57 58
f 42 59 60
f 42 60 61
f 42 61 43
f 43 61 62
f 43 62 63
f 43 63 64
f 43 64 44
f 44 64 65
f 44 65 45
f 45 65 66
f 45 66 67
f 45 67 68
f 45 68 48
f 45 48 46
f 47 48 68
f 47 68 69
f 49 50 70
f 50 71 70
f 51 55 73
f 51 73 72
f 55 74 73
f 56 76 77
f 56 77 75
f 57 78 58
f 58 79 80
f 58 80 59
f 58 78 81
f 58 81 79
f 59 82 60
f 59 80 83
f 59 83 82
f 60 82 84
f 60 84 85
f 60 85 86
f 60 86 87
f 60 87 88
f 60 88 61
f 61 88 62
f 62 88 87
f 62 87 89
f 62 89 90
f 62 90 63
f 63 90 91
f 63 91 92
f 63 92 64
f 64 92 93
f 64 93 65
f 65 93 66
f 66 68 67
f 66 93 94
f 66 94 95
f 66 95 96
f 66 96 68
f 68 96 69
f 69 96 95
f 70 71 97
f 71 98 97
f 72 73 99
f 73 74 100
f 73 100 101
f 73 101 102
f 73 102 99
f 75 77 105
f 75 105 138
f 75 138 181
f 75 181 224
f 75 224 263
f 75 263 268
f 75 268 275
f 75 275 266
f 75 266 254
f 75 254 211
f 75 211 173
f 75 173 135
f 75 135 103
f 76 97 98
f 76 98 104
f 76 104 77
f 79 81 106
f 79 106 107
f 79 107 80
f 80 107 83
f 81 108 106
f 82 109 84
f 82 83 110
f 82 110 109
f 83 107 110
f 84 109 145
f 84 145 111
f 84 111 85
f 85 111 112
f 85 112 86
f 86 112 87
f 87 113 114
f 87 114 89
f 87 112 115
f 87 115 116
f 87 116 117
f 87 117 118
f 87 118 119
f 87 119 113
f 89 114 120
f 89 120 90
f 90 120 121
f 90 121 91
f 91 122 92
f 91 121 123
f 91 123 124
f 91 124 122
f 92 125 93
f 92 122 126
f 92 126 125
f 93 125 94
f 94 125 127
f 94 127 95
f 99 102 128
f 100 129 130
f 100 130 101
f 101 130 131
f 101 131 132
f 101 132 133
f 101 133 134
f 101 134 102
f 102 134 128
f 103 135 136
f 105 137 138
f 106 108 139
f 106 139 140
f 106 140 141
f 106 141 142
f 106 142 143
f 106 143 107
f 107 143 144
f 107 144 131
f 107 131 145
f 107 145 110
f 109 110 145
f 111 145 146
f 111 146 115
f 111 115 112
f 113 147 148
f 113 148 149
f 113 149 114
f 113 119 147
f 114 149 150
f 114 150 120
f 115 146 145
f 115 145 151
f 115 151 152
f 115 152 116
f 116 152 153
f 116 153 117
f 117 153 118
f 118 153 119
f 119 153 154
f 119 154 155
f 119 155 156
f 119 156 147
f 120 150 149
f 120 149 157
f 120 157 158
f 120 158 159
f 120 159 121
f 121 159 160
f 121 160 123
f 122 124 161
f 122 161 126
f 123 160 162
f 123 162 124
f 124 162 163
f 124 163 164
f 124 164 165
f 124 165 161
f 125 126 127
f 126 161 166
f 126 166 127
f 129 167 168
f 129 168 130
f 130 168 167
f 130 167 169
f 130 169 170
f 130 170 171
f 130 171 172
f 130 172 131
f 131 144 132
f 131 172 145
f 135 173 136
f 136 173 175
f 136 175 176
f 136 176 174
f 137 177 178
f 137 178 179
f 137 179 138
f 138 179 180
f 138 180 181
f 145 172 151
f 147 182 183
f 147 183 148
f 147 156 182
f 148 183 184
f 148 184 149
f 149 184 185
f 149 185 186
f 149 186 187
f 149 187 188
f 149 188 189
f 149 189 190
f 149 190 157
f 151 172 191
f 151 191 152
f 152 191 192
f 152 192 153
f 153 192 154
f 154 192 193
f 156 194 195
f 156 195 182
f 157 190 196
f 157 196 197
f 157 197 198
f 157 198 199
f 157 199 159
f 157 159 158
f 159 199 200
f 159 200 201
f 159 201 202
f 159 202 203
f 159 203 204
f 159 204 205
f 159 205 160
f 160 205 162
f 162 205 206
f 162 206 207
f 162 207 163
f 163 207 164
f 164 207 208
f 167 170 169
f 170 209 171
f 171 209 210
f 171 210 172
f 172 210 191
f 173 211 212
f 173 212 175
f 174 213 214
f 174 176 215
f 174 215 216
f 174 216 213
f 175 212 217
f 175 217 215
f 175 215 176
f 177 218 178
f 178 219 179
f 178 218 220
f 178 220 221
f 178 221 222
f 178 222 219
f 179 219 180
f 180 222 223
f 180 223 181
f 180 219 222
f 181 223 224
f 182 195 185
f 182 185 184
f 182 184 183
f 185 225 186
f 185 195 225
f 186 225 187
f 187 225 195
f 187 195 226
f 187 226 227
f 187 227 188
f 188 228 229
f 188 229 190
f 188 190 189
f 188 227 230
f 188 230 228
f 190 229 231
f 190 231 196
f 191 210 192
f 192 232 193
f 192 210 232
f 194 226 195
f 196 233 234
f 196 234 235
f 196 235 197
f 196 231 236
f 196 236 237
f 196 237 233
f 197 216 238
f 197 238 217
f 197 217 239
f 197 239 240
f 197 240 198
f 197 235 241
f 197 241 216
f 198 240 239
f 198 239 242
f 198 242 243
f 198 243 199
f 199 243 244
f 199 244 200
f 200 244 201
f 201 244 245
f 201 245 246
f 201 246 247
f 201 247 248
f 201 248 202
f 202 248 203
f 203 248 204
f 204 248 249
f 204 250 205
f 205 250 251
f 205 251 252
f 205 252 206
f 206 252 207
f 207 252 208
f 208 252 253
f 211 254 212
f 212 254 239
f 212 239 217
f 213 241 214
f 213 216 241
f 214 241 235
f 214 235 255
f 214 255 237
f 214 237 256
f 215 217 238
f 215 238 216
f 218 257 258
f 218 258 220
f 220 258 221
f 221 258 259
f 221 259 243
f 221 243 260
f 221 260 222
f 222 260 243
f 222 243 261
f 222 261 223
f 223 261 262
f 223 262 263
f 223 263 224
f 226 230 227
f 228 264 229
f 228 230 265
f 228 265 264
f 229 264 231
f 231 264 236
f 233 255 235
f 233 235 234
f 233 237 255
f 236 264 265
f 236 265 256
f 236 256 237
f 239 243 242
f 239 254 266
f 239 266 267
f 239 267 268
f 239 268 269
f 239 269 262
f 239 262 243
f 243 262 261
f 243 259 270
f 243 270 244
f 244 270 259
f 244 259 245
f 245 259 271
f 245 271 246
f 246 271 247
f 247 271 272
f 247 249 248
f 251 253 252
f 257 273 258
f 258 273 274
f 258 274 259
f 259 274 271
f 262 269 268
f 262 268 263
f 266 275 267
f 267 275 268
f 271 274 272
f 272 274 273
