v 0.510467 0.556489 0.100177
v 0.50986 0.55635 0.111958
v 0.521914 0.556434 0.0176798
v 0.522434 0.556434 0.00589816
v 0.522434 0.556434 0.000103712
v 0.502634 0.556489 0.100177
v 0.509109 0.555906 0.12374
v 0.521191 0.556101 0.0294742
v 0.502027 0.55635 0.111958
v 0.50379 0.555934 0.131346
v 0.528331 0.551881 0.00589816
v 0.514687 0.556434 0.000103712
v 0.528331 0.551881 0.000103712
v 0.503357 0.556267 0.0883823
v 0.496044 0.555101 0.131346
v 0.508386 0.555323 0.131346
v 0.514977 0.549716 0.12374
v 0.515757 0.550632 0.111958
v 0.519023 0.55438 0.0624936
v 0.51963 0.554962 0.0530375
v 0.520411 0.555573 0.0412558
v 0.500553 0.555795 0.131346
v 0.52781 0.550993 0.0176798
v 0.53362 0.545996 0.00589816
v 0.530932 0.548994 0.000103712
v 0.508791 0.552214 0.000103712
v 0.494367 0.55438 0.131346
v 0.514861 0.5483 0.131346
v 0.519399 0.543137 0.131346
v 0.531221 0.529425 0.131346
v 0.523099 0.549161 0.0657698
v 0.527088 0.550077 0.0294742
v 0.536626 0.542471 0.000103712
v 0.53362 0.545996 0.000103712
v 0.532869 0.545108 0.0176798
v 0.544518 0.533172 0.00589816
v 0.498934 0.543859 0.000103712
v 0.461994 0.528342 0.131346
v 0.470434 0.535254 0.131346
v 0.488673 0.549966 0.131346
v 0.492402 0.552936 0.131346
v 0.54128 0.517572 0.131346
v 0.544113 0.520903 0.0883823
v 0.534777 0.535559 0.0648319
v 0.538765 0.538169 0.0176798
v 0.547524 0.529647 0.000103712
v 0.550414 0.526232 0.00589816
v 0.495928 0.541305 0.000103712
v 0.457195 0.524234 0.131346
v 0.491824 0.537808 0.000103712
v 0.542552 0.516017 0.131346
v 0.554287 0.507329 0.0977099
v 0.550125 0.511826 0.10105
v 0.55079 0.514851 0.0766007
v 0.554663 0.519432 0.0176798
v 0.546396 0.525483 0.0415128
v 0.558421 0.516794 0.000103712
v 0.561311 0.51338 0.00589816
v 0.488037 0.53456 0.000103712
v 0.478296 0.52601 0.000103712
v 0.454594 0.52193 0.131346
v 0.54576 0.512048 0.131346
v 0.554287 0.505525 0.0977099
v 0.565821 0.50694 0.0128746
v 0.547726 0.500861 0.131346
v 0.56134 0.511604 0.017153
v 0.561311 0.51338 0.000103712
v 0.566196 0.507495 0.00589816
v 0.56371 0.510493 0.000103712
v 0.474567 0.522624 0.000103712
v 0.445547 0.513741 0.131346
v 0.565821 0.50633 0.0128746
v 0.55212 0.501305 0.10105
v 0.552495 0.498085 0.0883823
v 0.545356 0.496309 0.131346
v 0.553276 0.496309 0.0766007
v 0.566196 0.507495 0.000103712
v 0.566196 0.505164 0.00589816
v 0.470781 0.519154 0.000103712
v 0.424764 0.494504 0.131346
v 0.563826 0.499251 0.00589816
v 0.543766 0.493588 0.131346
v 0.553738 0.495309 0.0694572
v 0.566196 0.505164 0.000103712
v 0.56504 0.502249 0.000103712
v 0.461849 0.510382 0.000103712
v 0.449969 0.498696 0.000103712
v 0.418838 0.488675 0.131346
v 0.554259 0.494671 0.0616071
v 0.557149 0.492228 0.0176798
v 0.557929 0.49159 0.00589816
v 0.563826 0.499251 0.000103712
v 0.362416 0.272908 0.131346
v 0.364237 0.272908 0.126965
v 0.368717 0.272908 0.11616
v 0.370798 0.272908 0.111123
v 0.374469 0.272908 0.100177
v 0.37629 0.272908 0.0909133
v 0.376781 0.272908 0.0883823
v 0.377909 0.272908 0.0799797
v 0.378284 0.272908 0.0771274
v 0.379903 0.272908 0.0648319
v 0.383025 0.272908 0.041076
v 0.387534 0.272908 0.00665619
v 0.447021 0.495781 0.000103712
v 0.412971 0.482707 0.131346
v 0.387621 0.272908 0.00589816
v 0.557929 0.49159 0.000103712
v 0.270931 0.272908 0.131346
v 0.441124 0.489619 0.000103712
v 0.409155 0.478682 0.131346
v 0.387621 0.272908 0.000103712
v 0.272232 0.275906 0.131346
v 0.30871 0.287953 0.000103712
v 0.304374 0.277821 0.000103712
v 0.302495 0.272908 0.000103712
v 0.43832 0.486621 0.000103712
v 0.390078 0.458418 0.131346
v 0.397882 0.466718 0.131346
v 0.273272 0.278293 0.131346
v 0.314404 0.300556 0.000103712
v 0.435603 0.483706 0.000103712
v 0.386725 0.454671 0.131346
v 0.432481 0.480236 0.000103712
v 0.277695 0.287953 0.131346
v 0.316052 0.304164 0.000103712
v 0.384615 0.452311 0.131346
v 0.428868 0.476184 0.000103712
v 0.283505 0.299862 0.131346
v 0.325417 0.324123 0.000103712
v 0.322931 0.318932 0.000103712
v 0.320388 0.313574 0.000103712
v 0.319 0.310576 0.000103712
v 0.31767 0.307689 0.000103712
v 0.378891 0.445705 0.131346
v 0.420283 0.466413 0.000103712
v 0.289257 0.311631 0.131346
v 0.329175 0.331562 0.000103712
v 0.293795 0.32068 0.131346
v 0.376492 0.442762 0.131346
v 0.413491 0.458502 0.000103712
v 0.410976 0.455504 0.000103712
v 0.408577 0.452589 0.000103712
v 0.332383 0.337447 0.000103712
v 0.296714 0.326204 0.131346
v 0.405658 0.449008 0.000103712
v 0.361491 0.424248 0.131346
v 0.344176 0.358793 0.000103712
v 0.301744 0.335059 0.131346
v 0.350622 0.370202 0.000103712
v 0.347183 0.364123 0.000103712
v 0.40268 0.445288 0.000103712
v 0.35279 0.413505 0.131346
v 0.306051 0.342443 0.131346
v 0.354235 0.376114 0.000103712
v 0.315474 0.358515 0.131346
v 0.318884 0.364234 0.131243
v 0.381319 0.417197 0.000103712
v 0.347616 0.406343 0.131346
v 0.374353 0.407343 0.000103712
v 0.318798 0.364123 0.131346
v 0.318971 0.3644 0.131346
v 0.323365 0.371201 0.131346
v 0.342731 0.399376 0.131346
v 0.328654 0.379112 0.131346
v 0.338858 0.393824 0.131346
f 1 2 3
f 1 3 4
f 1 4 5
f 1 5 12
f 1 12 6
f 1 6 9
f 1 9 2
f 2 7 8
f 2 8 3
f 2 9 10
f 2 10 7
f 3 8 11
f 3 11 4
f 4 11 13
f 4 13 5
f 5 13 25
f 5 25 34
f 5 34 33
f 5 33 46
f 5 46 57
f 5 57 67
f 5 67 69
f 5 69 77
f 5 77 84
f 5 84 85
f 5 85 92
f 5 92 108
f 5 108 112
f 5 112 116
f 5 116 115
f 5 115 114
f 5 114 121
f 5 121 126
f 5 126 134
f 5 134 133
f 5 133 132
f 5 132 131
f 5 131 130
f 5 130 138
f 5 138 144
f 5 144 148
f 5 148 151
f 5 151 150
f 5 150 155
f 5 155 160
f 5 160 158
f 5 158 152
f 5 152 146
f 5 146 143
f 5 143 142
f 5 142 141
f 5 141 136
f 5 136 128
f 5 128 124
f 5 124 122
f 5 122 117
f 5 117 110
f 5 110 105
f 5 105 87
f 5 87 86
f 5 86 79
f 5 79 70
f 5 70 60
f 5 60 59
f 5 59 50
f 5 50 48
f 5 48 37
f 5 37 26
f 5 26 12
f 6 14 15
f 6 15 9
f 6 12 14
f 7 16 17
f 7 17 18
f 7 18 19
f 7 19 20
f 7 20 21
f 7 21 8
f 7 10 16
f 8 21 11
f 9 22 10
f 9 15 22
f 10 22 15
f 10 15 27
f 10 27 41
f 10 41 40
f 10 40 39
f 10 39 38
f 10 38 49
f 10 49 61
f 10 61 71
f 10 71 80
f 10 80 88
f 10 88 106
f 10 106 111
f 10 111 119
f 10 119 118
f 10 118 123
f 10 123 127
f 10 127 135
f 10 135 140
f 10 140 147
f 10 147 153
f 10 153 159
f 10 159 164
f 10 164 166
f 10 166 165
f 10 165 163
f 10 163 162
f 10 162 161
f 10 161 156
f 10 156 154
f 10 154 149
f 10 149 145
f 10 145 139
f 10 139 137
f 10 137 129
f 10 129 125
f 10 125 120
f 10 120 113
f 10 113 109
f 10 109 93
f 10 93 82
f 10 82 75
f 10 75 65
f 10 65 62
f 10 62 51
f 10 51 42
f 10 42 30
f 10 30 29
f 10 29 28
f 10 28 16
f 11 23 24
f 11 24 25
f 11 25 13
f 11 21 20
f 11 20 23
f 12 26 27
f 12 27 14
f 14 27 15
f 16 28 17
f 17 28 29
f 17 29 30
f 17 30 18
f 18 31 32
f 18 32 19
f 18 30 31
f 19 32 23
f 19 23 20
f 23 32 24
f 24 33 34
f 24 34 25
f 24 32 35
f 24 35 36
f 24 36 46
f 24 46 33
f 26 37 38
f 26 38 39
f 26 39 40
f 26 40 41
f 26 41 27
f 30 42 43
f 30 43 44
f 30 44 31
f 31 44 45
f 31 45 35
f 31 35 32
f 35 45 47
f 35 47 36
f 36 47 46
f 37 48 38
f 38 48 50
f 38 50 49
f 42 51 52
f 42 52 53
f 42 53 54
f 42 54 43
f 43 54 55
f 43 55 56
f 43 56 44
f 44 56 45
f 45 56 55
f 45 55 47
f 46 47 58
f 46 58 57
f 47 55 58
f 49 50 59
f 49 59 60
f 49 60 61
f 51 62 52
f 52 63 72
f 52 72 64
f 52 64 53
f 52 62 65
f 52 65 63
f 53 64 66
f 53 66 54
f 54 66 55
f 55 66 58
f 57 58 67
f 58 66 64
f 58 64 68
f 58 68 69
f 58 69 67
f 60 70 71
f 60 71 61
f 63 65 73
f 63 73 74
f 63 74 72
f 64 72 78
f 64 78 68
f 65 75 76
f 65 76 74
f 65 74 73
f 68 77 69
f 68 78 84
f 68 84 77
f 70 79 71
f 71 79 80
f 72 81 78
f 72 74 81
f 74 76 81
f 75 82 83
f 75 83 76
f 76 83 81
f 78 81 85
f 78 85 84
f 79 86 80
f 80 86 87
f 80 87 88
f 81 83 89
f 81 89 90
f 81 90 91
f 81 91 108
f 81 108 92
f 81 92 85
f 82 93 94
f 82 94 95
f 82 95 96
f 82 96 97
f 82 97 98
f 82 98 99
f 82 99 83
f 83 99 100
f 83 100 101
f 83 101 102
f 83 102 103
f 83 103 104
f 83 104 89
f 87 105 88
f 88 105 106
f 89 104 107
f 89 107 90
f 90 107 91
f 91 107 112
f 91 112 108
f 93 109 116
f 93 116 112
f 93 112 107
f 93 107 104
f 93 104 103
f 93 103 102
f 93 102 101
f 93 101 100
f 93 100 99
f 93 99 98
f 93 98 97
f 93 97 96
f 93 96 95
f 93 95 94
f 105 110 106
f 106 110 111
f 109 113 114
f 109 114 115
f 109 115 116
f 110 117 118
f 110 118 119
f 110 119 111
f 113 120 114
f 114 120 121
f 117 122 118
f 118 122 124
f 118 124 123
f 120 125 126
f 120 126 121
f 123 124 127
f 124 128 127
f 125 129 130
f 125 130 131
f 125 131 132
f 125 132 133
f 125 133 134
f 125 134 126
f 127 128 136
f 127 136 135
f 129 137 130
f 130 137 139
f 130 139 138
f 135 136 141
f 135 141 142
f 135 142 143
f 135 143 140
f 138 139 145
f 138 145 144
f 140 143 146
f 140 146 147
f 144 145 148
f 145 149 150
f 145 150 151
f 145 151 148
f 146 152 153
f 146 153 147
f 149 154 150
f 150 154 156
f 150 156 157
f 150 157 155
f 152 158 153
f 153 158 159
f 155 157 160
f 156 161 157
f 157 161 162
f 157 162 163
f 157 163 160
f 158 160 159
f 159 160 164
f 160 163 165
f 160 165 166
f 160 166 164
