v 0.00521368 0.507494 0.566225
v -0.00590376 0.507494 0.566225
v 0.00521368 0.505163 0.566225
v 0.00521368 0.513061 0.561593
v -0.00590376 0.505163 0.566225
v -0.00590376 0.513386 0.561308
v -0.012871 0.506952 0.565827
v 0.00521368 0.499271 0.563809
v 0.00521368 0.520344 0.555425
v -0.00590376 0.520344 0.555425
v -0.012871 0.506338 0.565827
v -0.00590376 0.499271 0.563809
v -0.0176878 0.51944 0.554658
v -0.0332565 0.518229 0.553635
v -0.064824 0.515772 0.55156
v -0.0883921 0.513946 0.549997
v -0.101079 0.511814 0.55011
v -0.0977247 0.507332 0.554288
v 0.00521368 0.498838 0.563497
v 0.00521368 0.52591 0.550707
v 0.00521368 0.545628 0.533967
v -0.00590376 0.526236 0.550423
v -0.0176878 0.532272 0.543773
v -0.0977247 0.505524 0.554288
v -0.0883921 0.498097 0.552498
v -0.0176878 0.492241 0.557159
v -0.00590376 0.49159 0.557926
v -0.076608 0.496325 0.553265
v -0.0694688 0.495313 0.553748
v -0.0616199 0.494681 0.554231
v -0.0412559 0.493542 0.555596
v -0.0415139 0.525495 0.546387
v -0.135528 0.517235 0.541016
v -0.135528 0.511344 0.54579
v -0.147312 0.509844 0.54454
v -0.156043 0.508109 0.543204
v -0.135528 0.50088 0.547155
v 0.00521368 0.49159 0.557926
v 0.00521368 0.551573 0.528624
v -0.00590376 0.546007 0.533626
v -0.0176878 0.538164 0.53877
v -0.123744 0.530989 0.530898
v -0.0883921 0.526796 0.539111
v -0.101079 0.501314 0.552128
v -0.143592 0.494428 0.542778
v -0.00590376 0.37186 0.445095
v -0.135528 0.493813 0.543488
v -0.10095 0.37186 0.432618
v -0.0171072 0.37186 0.443673
v -0.0142257 0.37186 0.444043
v -0.123744 0.53688 0.525896
v -0.123744 0.549712 0.514982
v -0.134819 0.525332 0.534223
v -0.138302 0.52985 0.529903
v -0.147312 0.515735 0.539595
v -0.156043 0.503952 0.543204
v -0.147312 0.52244 0.533711
v -0.147312 0.528332 0.52851
v -0.156989 0.52029 0.531921
v -0.160451 0.513314 0.536781
v -0.189116 0.507061 0.530557
v -0.147441 0.500374 0.544455
v 0.00521368 0.37186 0.445095
v 0.00521368 0.551899 0.528311
v -0.00590376 0.551899 0.528311
v -0.0176878 0.550995 0.5278
v -0.0294718 0.550091 0.527089
v -0.0412559 0.54917 0.526322
v -0.151441 0.496109 0.541556
v -0.122755 0.37186 0.427616
v -0.11196 0.37186 0.430799
v -0.111294 0.37186 0.430912
v -0.100198 0.545646 0.521547
v -0.11196 0.550634 0.515749
v -0.123744 0.555911 0.509099
v -0.135528 0.555007 0.50799
v -0.136603 0.547344 0.514783
v -0.133421 0.542953 0.519245
v -0.14127 0.542103 0.518535
v -0.189116 0.506103 0.530557
v -0.159612 0.500374 0.540191
v -0.182664 0.514452 0.526606
v -0.147312 0.540748 0.517284
v -0.146603 0.548338 0.510662
v -0.166537 0.542844 0.507422
v -0.214447 0.513874 0.513902
v -0.214275 0.507802 0.519359
v 0.00521368 0.37186 0.351646
v 0.00521368 0.556435 0.522428
v -0.00590376 0.556435 0.522428
v -0.0176878 0.556453 0.521917
v -0.0294718 0.55611 0.521206
v -0.0412559 0.555586 0.52041
v -0.05304 0.554953 0.519643
v -0.0625016 0.554375 0.519018
v -0.184879 0.498241 0.528823
v -0.210082 0.496687 0.51771
v -0.177031 0.494898 0.530443
v -0.136603 0.37186 0.421903
v -0.11196 0.556345 0.509866
v -0.159096 0.555893 0.497645
v -0.142194 0.554212 0.507081
v -0.214275 0.504549 0.519359
v -0.214447 0.504368 0.519217
v -0.214447 0.545212 0.485424
v -0.214447 0.527645 0.501425
v -0.214447 0.520163 0.508218
v -0.206233 0.515555 0.515806
v -0.200448 0.553959 0.483236
v -0.170902 0.548031 0.500885
v -0.214447 0.508 0.519103
v -0.214447 0.507494 0.519217
v -0.214447 0.37186 0.275875
v 0.00521368 0.376486 0.354488
v 0.00521368 0.556435 0.514698
v -0.0176878 0.556453 0.514044
v -0.100198 0.556489 0.510463
v -0.214447 0.498874 0.516829
v -0.214447 0.494283 0.513561
v -0.202233 0.494374 0.51933
v -0.205803 0.37186 0.393254
v -0.204921 0.37186 0.393624
v -0.195416 0.37186 0.397574
v -0.171332 0.37186 0.40755
v -0.182664 0.55611 0.486703
v -0.214447 0.555676 0.474766
v -0.194449 0.554953 0.484486
v -0.167397 0.55479 0.495968
v -0.208297 0.55217 0.481616
v -0.214447 0.550778 0.480337
v -0.214447 0.379342 0.28173
v 0.00521368 0.445307 0.40269
v 0.00521368 0.439415 0.3982
v 0.00521368 0.418396 0.382199
v 0.00521368 0.417222 0.381318
v 0.00521368 0.407354 0.374354
v -0.214447 0.37186 0.389531
v -0.100198 0.556489 0.502647
v 0.00521368 0.552206 0.508786
v -0.214447 0.553706 0.459987
v -0.206233 0.556128 0.467547
v -0.208426 0.37186 0.392146
v -0.214447 0.555802 0.471839
v -0.214447 0.382938 0.284629
v 0.00521368 0.452626 0.408573
v -0.214447 0.549007 0.453933
v -0.214447 0.552658 0.458623
v 0.00521368 0.546314 0.501823
v -0.214447 0.528097 0.427616
v -0.214447 0.532597 0.433186
v -0.214447 0.555911 0.465472
v -0.214447 0.389101 0.289603
v 0.00521368 0.458518 0.41349
v -0.214447 0.397541 0.296424
v -0.214447 0.404932 0.302421
v -0.214447 0.411167 0.307565
v 0.00521368 0.541597 0.496252
v -0.214447 0.526037 0.4252
v 0.00521368 0.466415 0.420311
v -0.214447 0.417457 0.313334
v 0.00521368 0.484054 0.435886
v 0.00521368 0.47706 0.429633
v 0.00521368 0.476193 0.428866
v 0.00521368 0.534802 0.488295
v -0.214447 0.521934 0.420453
v -0.214447 0.422192 0.317796
v 0.00521368 0.489964 0.441457
v 0.00521368 0.526019 0.47829
v -0.214447 0.516675 0.41457
v -0.214447 0.441728 0.336213
v 0.00521368 0.495783 0.447027
v -0.214447 0.445596 0.339908
v 0.00521368 0.519169 0.470787
v -0.214447 0.514886 0.412609
v -0.214447 0.447692 0.341926
v -0.214447 0.453602 0.347866
v 0.00521368 0.502 0.453337
v 0.00521368 0.513693 0.465217
v -0.214447 0.488446 0.383847
v -0.214447 0.493922 0.389673
v -0.214447 0.499705 0.395983
f 1 2 5
f 1 5 3
f 1 3 8
f 1 8 19
f 1 19 38
f 1 38 63
f 1 63 88
f 1 88 114
f 1 114 136
f 1 136 135
f 1 135 134
f 1 134 133
f 1 133 132
f 1 132 145
f 1 145 153
f 1 153 159
f 1 159 163
f 1 163 162
f 1 162 161
f 1 161 167
f 1 167 171
f 1 171 177
f 1 177 178
f 1 178 173
f 1 173 168
f 1 168 164
f 1 164 157
f 1 157 148
f 1 148 139
f 1 139 115
f 1 115 89
f 1 89 64
f 1 64 39
f 1 39 21
f 1 21 20
f 1 20 9
f 1 9 4
f 1 4 2
f 2 4 6
f 2 6 7
f 2 7 11
f 2 11 5
f 3 5 12
f 3 12 8
f 4 9 10
f 4 10 6
f 5 11 12
f 6 10 13
f 6 13 7
f 7 13 14
f 7 14 15
f 7 15 16
f 7 16 17
f 7 17 18
f 7 18 24
f 7 24 11
f 8 12 19
f 9 20 10
f 10 20 21
f 10 21 22
f 10 22 41
f 10 41 23
f 10 23 13
f 11 24 25
f 11 25 12
f 12 26 27
f 12 27 19
f 12 25 28
f 12 28 29
f 12 29 30
f 12 30 31
f 12 31 26
f 13 23 32
f 13 32 33
f 13 33 14
f 14 33 15
f 15 33 16
f 16 33 17
f 17 33 18
f 18 34 35
f 18 35 36
f 18 36 37
f 18 37 24
f 18 33 34
f 19 27 38
f 21 39 40
f 21 40 22
f 22 40 41
f 23 41 51
f 23 51 42
f 23 42 43
f 23 43 32
f 24 37 44
f 24 44 25
f 25 44 37
f 25 37 45
f 25 45 28
f 26 31 46
f 26 46 27
f 27 46 63
f 27 63 38
f 28 45 29
f 29 45 47
f 29 47 30
f 30 47 48
f 30 48 49
f 30 49 50
f 30 50 46
f 30 46 31
f 32 43 33
f 33 43 42
f 33 42 51
f 33 51 52
f 33 52 53
f 33 53 54
f 33 54 35
f 33 35 34
f 35 54 55
f 35 55 36
f 36 56 37
f 36 55 57
f 36 57 58
f 36 58 59
f 36 59 60
f 36 60 61
f 36 61 80
f 36 80 56
f 37 56 62
f 37 62 45
f 39 64 65
f 39 65 40
f 40 65 66
f 40 66 67
f 40 67 41
f 41 67 68
f 41 68 51
f 45 62 69
f 45 69 70
f 45 70 71
f 45 71 72
f 45 72 48
f 45 48 47
f 46 50 49
f 46 49 48
f 46 48 72
f 46 72 71
f 46 71 70
f 46 70 99
f 46 99 124
f 46 124 123
f 46 123 122
f 46 122 121
f 46 121 142
f 46 142 137
f 46 137 113
f 46 113 88
f 46 88 63
f 51 73 52
f 51 68 73
f 52 74 75
f 52 75 76
f 52 76 77
f 52 77 78
f 52 78 54
f 52 54 53
f 52 73 68
f 52 68 67
f 52 67 74
f 54 78 77
f 54 77 79
f 54 79 55
f 55 79 57
f 56 80 81
f 56 81 69
f 56 69 62
f 57 79 58
f 58 79 59
f 59 82 60
f 59 79 83
f 59 83 84
f 59 84 85
f 59 85 82
f 60 82 61
f 61 82 86
f 61 86 87
f 61 87 103
f 61 103 80
f 64 89 90
f 64 90 65
f 65 90 91
f 65 91 92
f 65 92 93
f 65 93 94
f 65 94 66
f 66 94 95
f 66 95 67
f 67 95 74
f 69 81 96
f 69 96 97
f 69 97 98
f 69 98 70
f 70 98 99
f 74 95 75
f 75 95 94
f 75 94 93
f 75 93 92
f 75 92 100
f 75 100 101
f 75 101 76
f 76 102 79
f 76 79 77
f 76 101 102
f 79 102 84
f 79 84 83
f 80 96 81
f 80 103 104
f 80 104 97
f 80 97 96
f 82 85 105
f 82 105 106
f 82 106 107
f 82 107 108
f 82 108 86
f 84 102 109
f 84 109 110
f 84 110 85
f 85 110 105
f 86 108 107
f 86 107 106
f 86 106 105
f 86 105 130
f 86 130 126
f 86 126 143
f 86 143 151
f 86 151 140
f 86 140 147
f 86 147 146
f 86 146 150
f 86 150 149
f 86 149 158
f 86 158 165
f 86 165 169
f 86 169 174
f 86 174 181
f 86 181 180
f 86 180 179
f 86 179 176
f 86 176 175
f 86 175 172
f 86 172 170
f 86 170 166
f 86 166 160
f 86 160 156
f 86 156 155
f 86 155 154
f 86 154 152
f 86 152 144
f 86 144 131
f 86 131 113
f 86 113 137
f 86 137 119
f 86 119 118
f 86 118 104
f 86 104 112
f 86 112 111
f 86 111 87
f 87 111 112
f 87 112 104
f 87 104 103
f 88 113 114
f 89 115 116
f 89 116 91
f 89 91 90
f 91 116 138
f 91 138 117
f 91 117 100
f 91 100 92
f 97 104 118
f 97 118 119
f 97 119 120
f 97 120 98
f 98 120 121
f 98 121 122
f 98 122 123
f 98 123 124
f 98 124 99
f 100 117 125
f 100 125 101
f 101 125 126
f 101 126 127
f 101 127 128
f 101 128 102
f 102 128 109
f 105 110 109
f 105 109 129
f 105 129 130
f 109 128 127
f 109 127 126
f 109 126 130
f 109 130 129
f 113 131 132
f 113 132 133
f 113 133 134
f 113 134 135
f 113 135 136
f 113 136 114
f 115 138 116
f 115 139 140
f 115 140 141
f 115 141 138
f 117 138 141
f 117 141 125
f 119 137 120
f 120 137 142
f 120 142 121
f 125 141 143
f 125 143 126
f 131 144 145
f 131 145 132
f 139 146 147
f 139 147 140
f 139 148 149
f 139 149 150
f 139 150 146
f 140 151 141
f 141 151 143
f 144 152 145
f 145 152 154
f 145 154 155
f 145 155 156
f 145 156 153
f 148 157 149
f 149 157 158
f 153 156 159
f 156 160 161
f 156 161 162
f 156 162 163
f 156 163 159
f 157 164 158
f 158 164 165
f 160 166 161
f 161 166 167
f 164 168 165
f 165 168 169
f 166 170 167
f 167 170 172
f 167 172 171
f 168 173 174
f 168 174 169
f 171 172 175
f 171 175 176
f 171 176 177
f 173 178 176
f 173 176 179
f 173 179 180
f 173 180 181
f 173 181 174
f 176 178 177
