v -0.145242 -0.479543 0.477338
v -0.145242 -0.479543 0.572187
v -0.145242 -0.437466 0.487373
v -0.0224726 -0.479543 0.493904
v -0.135524 -0.479543 0.573562
v -0.145242 -0.479151 0.572165
v -0.145242 -0.437466 0.569515
v -9.5405e-05 -0.437466 0.509638
v -0.012655 -0.479543 0.495866
v -0.123745 -0.479543 0.575114
v -0.135524 -0.477314 0.573429
v -0.145242 -0.477314 0.572054
v -0.145242 -0.439884 0.569714
v -0.142812 -0.437466 0.56987
v -9.5405e-05 -0.437466 0.588021
v -9.5405e-05 -0.479543 0.499004
v -0.123745 -0.477314 0.574981
v -0.0317076 -0.479543 0.587234
v -0.135524 -0.44196 0.571289
v -0.145242 -0.45167 0.57048
v -0.145242 -0.44196 0.569881
v -0.135524 -0.437466 0.570923
v -9.5405e-05 -0.446982 0.58933
v -0.00535227 -0.437466 0.588021
v -9.5405e-05 -0.479543 0.590605
v -0.123745 -0.44196 0.572841
v -0.029477 -0.453746 0.58597
v -0.0648259 -0.44196 0.580603
v -0.0150988 -0.479543 0.589418
v -0.0120157 -0.470945 0.589308
v -0.0865637 -0.437466 0.577432
v -0.131034 -0.437466 0.571522
v -0.000422184 -0.446982 0.58933
v -0.0131807 -0.437466 0.587023
v -0.00496866 -0.442615 0.588487
v -0.00590637 -0.479543 0.590605
v -0.0176846 -0.453746 0.587522
v -0.0176846 -0.44196 0.586802
v -0.0842905 -0.437466 0.577731
v -0.0139906 -0.479543 0.589563
v -0.00793808 -0.453746 0.588786
v -0.0176846 -0.437466 0.586436
f 1 2 6
f 1 6 12
f 1 12 20
f 1 20 21
f 1 21 13
f 1 13 7
f 1 7 3
f 1 3 4
f 1 4 9
f 1 9 16
f 1 16 25
f 1 25 36
f 1 36 40
f 1 40 29
f 1 29 18
f 1 18 10
f 1 10 5
f 1 5 2
f 2 5 6
f 3 7 14
f 3 14 22
f 3 22 32
f 3 32 31
f 3 31 39
f 3 39 42
f 3 42 34
f 3 34 24
f 3 24 15
f 3 15 8
f 3 8 4
f 4 8 9
f 5 10 17
f 5 17 11
f 5 11 6
f 6 11 12
f 7 13 14
f 8 15 23
f 8 23 25
f 8 25 16
f 8 16 9
f 10 18 17
f 11 17 26
f 11 26 19
f 11 19 12
f 12 19 20
f 13 21 19
f 13 19 14
f 14 19 22
f 15 24 33
f 15 33 23
f 17 18 27
f 17 27 28
f 17 28 26
f 18 29 30
f 18 30 27
f 19 26 31
f 19 31 32
f 19 32 22
f 19 21 20
f 23 33 36
f 23 36 25
f 24 34 35
f 24 35 33
f 26 28 31
f 27 30 37
f 27 37 28
f 28 37 38
f 28 38 39
f 28 39 31
f 29 40 30
f 30 40 36
f 30 36 41
f 30 41 37
f 33 35 41
f 33 41 36
f 34 42 38
f 34 38 35
f 35 38 41
f 37 41 38
f 38 42 39
