v 0.168426 -0.279366 0.440071
v 0.347396 -0.279366 0.321019
v 0.168426 -0.279366 0.528496
v 0.168426 -0.0799509 0.321019
v 0.450334 -0.279366 0.321019
v 0.169806 -0.279366 0.527928
v 0.168426 -0.277701 0.527989
v 0.168426 0.0356527 0.321019
v 0.449616 -0.2773 0.321019
v 0.45003 -0.279366 0.321425
v 0.254089 -0.279366 0.493016
v 0.206262 -0.276961 0.512087
v 0.246058 -0.273014 0.494377
v 0.1878 -0.27212 0.51822
v 0.168426 -0.276961 0.527745
v 0.168426 0.0243668 0.333346
v 0.174194 0.0334634 0.321019
v 0.444566 -0.279366 0.328574
v 0.44934 -0.279366 0.322339
v 0.447519 -0.271719 0.321019
v 0.423647 -0.272798 0.352762
v 0.445228 -0.276961 0.326583
v 0.265017 -0.279366 0.488487
v 0.265183 -0.276961 0.487675
v 0.271227 -0.270856 0.483268
v 0.212996 -0.270115 0.507111
v 0.179934 -0.267618 0.519865
v 0.168426 -0.267926 0.524658
v 0.168426 0.0200498 0.337997
v 0.177395 0.0237809 0.330259
v 0.182197 0.0299172 0.321019
v 0.185261 0.0223008 0.328472
v 0.438025 -0.279366 0.337104
v 0.445946 -0.267834 0.321019
v 0.412774 -0.270393 0.365739
v 0.39903 -0.276961 0.38678
v 0.404136 -0.279366 0.381276
v 0.271447 -0.279366 0.485685
v 0.267667 -0.263023 0.481785
v 0.217384 -0.265768 0.503658
v 0.238193 -0.268327 0.496002
v 0.273131 -0.276961 0.484223
v 0.273986 -0.279366 0.484548
v 0.279782 -0.279366 0.48142
v 0.279037 -0.276961 0.480993
v 0.275891 -0.26623 0.478678
v 0.272579 -0.245077 0.472362
v 0.269626 -0.237214 0.470737
v 0.209408 -0.262252 0.505628
v 0.168426 -0.264534 0.52346
v 0.17091 0.0195564 0.337489
v 0.168426 0.0141601 0.344232
v 0.181618 0.0172746 0.335438
v 0.190753 0.0257236 0.321019
v 0.191498 0.0253535 0.321019
v 0.18584 0.0105523 0.340637
v 0.194478 0.0140368 0.332392
v 0.444069 -0.263547 0.321019
v 0.4019 -0.268296 0.378717
v 0.399472 -0.279366 0.387328
v 0.397154 -0.264688 0.382799
v 0.389288 -0.25849 0.389298
v 0.390779 -0.265151 0.390801
v 0.2643 -0.254235 0.479755
v 0.259801 -0.258737 0.48341
v 0.265486 -0.241315 0.474149
v 0.287426 -0.279366 0.476099
v 0.284584 -0.265151 0.472728
v 0.276691 -0.241315 0.467752
v 0.273048 -0.220871 0.461111
v 0.282873 -0.25923 0.471428
v 0.261761 -0.233112 0.472443
v 0.270344 -0.213038 0.459161
v 0.265928 -0.217386 0.463568
v 0.262478 -0.20866 0.461314
v 0.265486 -0.229443 0.469214
v 0.258007 -0.225249 0.47088
v 0.176347 -0.259755 0.518362
v 0.168481 -0.255623 0.519987
v 0.168426 -0.255623 0.520007
v 0.17091 0.0136668 0.343724
v 0.177975 0.0122483 0.342282
v 0.168426 0.0129267 0.345471
v 0.195251 0.0204198 0.32437
v 0.192215 0.0249527 0.321019
v 0.194478 0.0084555 0.338281
v 0.17091 0.0075921 0.349634
v 0.185288 -0.00147364 0.352213
v 0.194478 -0.0156273 0.361738
v 0.194478 -0.00939845 0.355849
v 0.20146 -0.0230896 0.365841
v 0.201571 -0.0110636 0.354285
v 0.194478 0.00256586 0.344252
v 0.201405 0.0007157 0.342526
v 0.200908 0.012125 0.330422
v 0.411035 -0.26253 0.363485
v 0.439047 -0.252508 0.321019
v 0.438826 -0.253372 0.321831
v 0.43579 -0.259847 0.32967
v 0.400162 -0.260464 0.376463
v 0.393152 -0.276961 0.393157
v 0.393594 -0.279366 0.393624
v 0.392131 -0.254081 0.383083
v 0.383051 -0.254081 0.392141
v 0.382775 -0.264688 0.397178
v 0.386749 -0.276961 0.399067
v 0.387219 -0.229813 0.374939
v 0.37698 -0.21236 0.376991
v 0.37491 -0.229813 0.387226
v 0.376814 -0.236196 0.388709
v 0.387301 -0.279366 0.399493
v 0.391524 -0.279366 0.395614
v 0.194092 -0.253803 0.508675
v 0.201543 -0.258028 0.507253
v 0.24443 -0.23891 0.481928
v 0.288834 -0.279366 0.475063
v 0.288944 -0.277886 0.474434
v 0.293001 -0.274587 0.470148
v 0.305972 -0.272027 0.459263
v 0.29049 -0.265151 0.468219
v 0.276995 -0.230584 0.462654
v 0.280913 -0.227161 0.458125
v 0.306883 -0.223245 0.436395
v 0.276995 -0.217386 0.456359
v 0.363457 -0.26253 0.411069
v 0.376428 -0.260464 0.400184
v 0.295871 -0.257257 0.460562
v 0.288199 -0.254328 0.465091
v 0.283287 -0.235024 0.459953
v 0.283452 -0.211342 0.448296
v 0.276746 -0.206933 0.450936
v 0.265597 -0.181709 0.445168
v 0.258863 -0.177145 0.447626
v 0.258753 -0.200796 0.459405
v 0.253813 -0.217664 0.469397
v 0.250142 -0.221364 0.472504
v 0.224946 -0.222906 0.483613
v 0.199749 -0.22454 0.494722
v 0.174553 -0.226267 0.505852
v 0.182694 -0.253372 0.513224
v 0.168426 -0.244059 0.515438
v 0.168426 0.0081163 0.350142
v 0.19928 0.0206973 0.321019
v 0.168426 0.000931554 0.356925
v 0.17091 -0.00455723 0.361089
v 0.17091 -0.0104469 0.366633
v 0.176319 -0.0237988 0.37695
v 0.194478 -0.0215478 0.367303
v 0.182694 -0.0253097 0.37563
v 0.195499 -0.0295651 0.373924
v 0.205738 -0.0291334 0.369233
v 0.209298 -0.0250014 0.363912
v 0.205103 0.00506355 0.334991
v 0.215369 -0.0213319 0.356052
v 0.208774 0.00941141 0.327416
v 0.212941 0.0122483 0.321019
v 0.210899 0.0135743 0.321019
v 0.205407 0.0147768 0.32374
v 0.205683 0.016812 0.321019
v 0.438219 -0.250689 0.321019
v 0.424917 -0.257843 0.342648
v 0.409517 -0.252508 0.359525
v 0.395029 -0.241099 0.371548
v 0.374303 -0.253372 0.398559
v 0.378691 -0.268296 0.40193
v 0.368066 -0.279366 0.414278
v 0.379491 -0.279366 0.405505
v 0.36572 -0.270393 0.412796
v 0.352749 -0.272798 0.423661
v 0.431954 -0.241531 0.323679
v 0.400769 -0.2238 0.353655
v 0.389896 -0.22195 0.366633
v 0.383465 -0.217139 0.371812
v 0.368839 -0.206224 0.379854
v 0.356172 -0.208598 0.390943
v 0.364037 -0.214087 0.387917
v 0.371792 -0.217139 0.383489
v 0.387909 -0.214087 0.364054
v 0.390917 -0.208598 0.356194
v 0.379823 -0.206224 0.368867
v 0.365472 -0.17656 0.365496
v 0.366603 -0.22195 0.389907
v 0.353633 -0.2238 0.400773
v 0.340662 -0.225774 0.411658
v 0.355454 -0.229813 0.402174
v 0.368425 -0.253372 0.403088
v 0.189925 -0.246064 0.507334
v 0.290848 -0.279366 0.47352
v 0.318915 -0.269776 0.448397
v 0.30887 -0.229813 0.437918
v 0.327691 -0.227747 0.422524
v 0.317232 -0.213563 0.423559
v 0.353246 -0.248006 0.412267
v 0.304123 -0.239557 0.446062
v 0.330202 -0.211805 0.412694
v 0.323662 -0.20721 0.415111
v 0.280555 -0.203479 0.446062
v 0.300756 -0.182357 0.418563
v 0.292808 -0.179242 0.422889
v 0.305806 -0.177639 0.412003
v 0.271972 -0.175542 0.43674
v 0.265128 -0.171317 0.439543
v 0.303598 -0.192409 0.422097
v 0.261126 -0.162899 0.437451
v 0.247907 -0.129165 0.424575
v 0.249535 -0.151243 0.437207
v 0.254309 -0.170238 0.445899
v 0.246361 -0.16589 0.447362
v 0.250998 -0.173753 0.449332
v 0.246279 -0.189603 0.459121
v 0.254254 -0.205329 0.463487
v 0.191912 -0.220716 0.496367
v 0.246058 -0.213501 0.470798
v 0.1878 -0.212853 0.494661
v 0.168426 -0.220531 0.505994
v 0.168426 -0.225619 0.508086
v 0.168426 -0.229998 0.509853
v 0.170744 -0.230029 0.508918
v 0.168426 -0.23228 0.510767
v 0.168426 -0.0112178 0.36838
v 0.168426 -0.018495 0.375224
v 0.168454 -0.022072 0.378575
v 0.168426 -0.0283933 0.38416
v 0.182694 -0.0311994 0.380667
v 0.19227 -0.0335121 0.378676
v 0.200136 -0.0354856 0.377052
v 0.206262 -0.0370582 0.375752
v 0.221744 -0.0600617 0.387876
v 0.215342 -0.0328645 0.367527
v 0.20927 -0.00202869 0.339581
v 0.219288 -0.0284858 0.360418
v 0.223235 -0.0241071 0.353026
v 0.236206 -0.0232437 0.34216
v 0.240732 -0.0203143 0.335499
v 0.231017 -0.0144555 0.336535
v 0.221772 0.00614281 0.321019
v 0.428918 -0.230584 0.321019
v 0.426876 -0.230923 0.323903
v 0.422488 -0.227747 0.3277
v 0.425055 -0.222382 0.321019
v 0.424061 -0.220346 0.321019
v 0.394339 -0.218928 0.358855
v 0.359842 -0.205299 0.386252
v 0.363319 -0.191268 0.37561
v 0.343201 -0.210201 0.401808
v 0.332438 -0.197035 0.4026
v 0.327305 -0.203942 0.41046
v 0.421826 -0.215906 0.321019
v 0.412663 -0.211805 0.330239
v 0.386225 -0.205299 0.35987
v 0.38065 -0.194907 0.359444
v 0.377808 -0.199131 0.366247
v 0.373448 -0.182295 0.359444
v 0.376345 -0.178101 0.352579
v 0.3748 -0.169745 0.348274
v 0.367818 -0.171934 0.358956
v 0.366189 -0.163701 0.354691
v 0.352777 -0.14227 0.352802
v 0.354654 -0.163701 0.366227
v 0.358931 -0.171934 0.367851
v 0.352556 -0.178101 0.376381
v 0.359428 -0.182295 0.373477
v 0.375573 -0.191268 0.363343
v 0.347534 -0.18285 0.382941
v 0.33172 -0.174463 0.390273
v 0.288834 -0.170392 0.420818
v 0.281962 -0.166137 0.4236
v 0.268991 -0.16771 0.434465
v 0.29496 -0.164657 0.412735
v 0.274124 -0.161573 0.426606
v 0.277629 -0.158212 0.42165
v 0.259277 -0.141438 0.42427
v 0.241615 -0.120747 0.42232
v 0.235212 -0.118218 0.424067
v 0.244733 -0.14338 0.434831
v 0.260878 -0.127839 0.41373
v 0.265624 -0.123244 0.406926
v 0.252626 -0.12457 0.417792
v 0.24948 -0.115967 0.414014
v 0.237365 -0.10465 0.413506
v 0.242111 -0.159076 0.445209
v 0.238524 -0.163023 0.448986
v 0.213327 -0.164164 0.460095
v 0.188103 -0.165366 0.471225
v 0.221165 -0.167247 0.458491
v 0.217577 -0.17104 0.461883
v 0.242111 -0.170238 0.451302
v 0.242056 -0.18248 0.457374
v 0.194478 -0.206224 0.488691
v 0.212996 -0.211404 0.483552
v 0.233777 -0.17841 0.458816
v 0.200715 -0.176467 0.47157
v 0.238193 -0.210047 0.472423
v 0.170744 -0.218219 0.504044
v 0.168426 -0.217139 0.504532
v 0.179934 -0.209461 0.496286
v 0.168426 -0.208567 0.500571
v 0.168426 -0.022072 0.378575
v 0.168426 -0.032772 0.387897
v 0.174939 -0.0363181 0.388161
v 0.198342 -0.0481899 0.3881
v 0.206262 -0.0429478 0.380565
v 0.217908 -0.0643479 0.393055
v 0.218046 -0.0725194 0.399432
v 0.227457 -0.0679249 0.391187
v 0.22271 -0.0479741 0.376361
v 0.223207 -0.0359789 0.364805
v 0.229831 -0.0325253 0.356357
v 0.229831 -0.0266357 0.350508
v 0.244071 -0.026204 0.339155
v 0.257042 -0.0252789 0.328269
v 0.249176 -0.0224112 0.331295
v 0.252874 -0.0180633 0.3237
v 0.261761 -0.0218561 0.321019
v 0.235957 -0.00378633 0.321019
v 0.359428 -0.194907 0.380667
v 0.416941 -0.206933 0.321019
v 0.415092 -0.20721 0.323679
v 0.395249 -0.205484 0.348253
v 0.410428 -0.203942 0.327335
v 0.406896 -0.19392 0.324512
v 0.392186 -0.183251 0.335763
v 0.40041 -0.177824 0.321019
v 0.390254 -0.174463 0.331742
v 0.379381 -0.172921 0.344719
v 0.387964 -0.1666 0.328757
v 0.37709 -0.165058 0.341734
v 0.363512 -0.155838 0.351218
v 0.353329 -0.129967 0.34149
v 0.342732 -0.116646 0.342749
v 0.338675 -0.123738 0.351178
v 0.341462 -0.129967 0.353331
v 0.344939 -0.13783 0.356032
v 0.351176 -0.155838 0.363546
v 0.34171 -0.165058 0.377112
v 0.348251 -0.169745 0.374818
v 0.336715 -0.169745 0.383693
v 0.32874 -0.1666 0.387978
v 0.343339 -0.151428 0.366572
v 0.288999 -0.135116 0.397137
v 0.230686 -0.111928 0.42161
v 0.176954 -0.117786 0.44791
v 0.18159 -0.124139 0.449758
v 0.173063 -0.132279 0.458085
v 0.223456 -0.129967 0.435846
v 0.229831 -0.132218 0.434526
v 0.236868 -0.140605 0.436537
v 0.241118 -0.147296 0.43869
v 0.229831 -0.102183 0.415212
v 0.277464 -0.123029 0.397706
v 0.294684 -0.129566 0.388973
v 0.270344 -0.118681 0.400143
v 0.257345 -0.120007 0.411008
v 0.245202 -0.108104 0.410886
v 0.283314 -0.117416 0.389278
v 0.258366 -0.106963 0.400001
v 0.250501 -0.103232 0.403027
v 0.246389 -0.0953688 0.399859
v 0.238524 -0.0916376 0.402743
v 0.23397 -0.0837745 0.399696
v 0.226132 -0.0809376 0.401829
v 0.170827 -0.158798 0.474555
v 0.180266 -0.162529 0.472829
v 0.169834 -0.135918 0.461558
v 0.168426 -0.147697 0.469052
v 0.168426 -0.161172 0.476891
v 0.168426 -0.169344 0.481359
v 0.168426 -0.170701 0.48205
v 0.168426 -0.173723 0.483573
v 0.225912 -0.175079 0.460441
v 0.171186 -0.205823 0.498134
v 0.171186 -0.194383 0.492549
v 0.168426 -0.176128 0.484771
v 0.175519 -0.177855 0.482679
v 0.168426 -0.206008 0.499353
v 0.168426 -0.0376441 0.391918
v 0.168426 -0.0422386 0.395655
v 0.173145 -0.0490225 0.399209
v 0.212085 -0.0707618 0.400691
v 0.213879 -0.0580574 0.389643
v 0.218046 -0.0784091 0.403596
v 0.227761 -0.0558372 0.380037
v 0.235322 -0.071101 0.388628
v 0.278043 -0.0406043 0.327111
v 0.236178 -0.0349922 0.353919
v 0.241615 -0.0614802 0.374757
v 0.248597 -0.0580574 0.366186
v 0.249149 -0.0340363 0.343054
v 0.262147 -0.0331112 0.332189
v 0.266066 -0.0287325 0.324796
v 0.268081 -0.0265123 0.321019
v 0.415672 -0.204682 0.321019
v 0.412857 -0.199717 0.321019
v 0.411422 -0.197189 0.321019
v 0.398147 -0.173908 0.321019
v 0.390917 -0.162036 0.321019
v 0.395995 -0.170238 0.321019
v 0.385784 -0.158459 0.324553
v 0.366548 -0.151428 0.343359
v 0.366879 -0.139156 0.332006
v 0.37698 -0.141623 0.321019
v 0.367652 -0.127993 0.321019
v 0.366659 -0.126544 0.321019
v 0.364478 -0.123368 0.321019
v 0.355702 -0.123738 0.332798
v 0.353633 -0.117756 0.330117
v 0.351149 -0.123738 0.338688
v 0.334508 -0.113284 0.346628
v 0.330092 -0.117756 0.353655
v 0.346595 -0.113284 0.334524
v 0.342621 -0.105051 0.331092
v 0.332521 -0.0830036 0.321019
v 0.331003 -0.0811843 0.321019
v 0.331582 -0.0923469 0.3316
v 0.320046 -0.0807218 0.331458
v 0.331058 -0.105051 0.342628
v 0.332769 -0.123738 0.355727
v 0.324379 -0.123275 0.36186
v 0.307683 -0.12824 0.378087
v 0.223676 -0.0944437 0.41241
v 0.220779 -0.107981 0.422991
v 0.168426 -0.109337 0.445595
v 0.168426 -0.115104 0.449555
v 0.168426 -0.117139 0.450875
v 0.168426 -0.124385 0.455323
v 0.168426 -0.125156 0.45579
v 0.279202 -0.109584 0.38613
v 0.271337 -0.105822 0.389135
v 0.242939 -0.0871356 0.395837
v 0.318115 -0.106161 0.353513
v 0.301722 -0.0990691 0.360378
v 0.273324 -0.0803826 0.36708
v 0.239517 -0.0789641 0.391837
v 0.168426 -0.158952 0.475632
v 0.168426 -0.13601 0.462187
v 0.168426 -0.194383 0.493687
v 0.168426 -0.0623128 0.411922
v 0.179024 -0.06959 0.413405
v 0.186889 -0.0716868 0.4118
v 0.201405 -0.0818935 0.412938
v 0.209243 -0.084237 0.411313
v 0.2821 -0.0714093 0.352985
v 0.295071 -0.0703917 0.34212
v 0.274262 -0.0681407 0.355991
v 0.241615 -0.0673698 0.380301
v 0.281438 -0.0369349 0.321019
v 0.30324 -0.0615419 0.327538
v 0.307462 -0.0580882 0.321019
v 0.276636 -0.0331112 0.321019
v 0.379657 -0.148221 0.323415
v 0.363071 -0.121363 0.321019
v 0.357275 -0.113654 0.321019
v 0.351259 -0.106161 0.321019
v 0.344995 -0.100734 0.323476
v 0.326946 -0.0971881 0.339459
v 0.324103 -0.109029 0.351218
v 0.337378 -0.0889858 0.321019
v 0.335418 -0.0889549 0.323517
v 0.321012 -0.06996 0.321019
v 0.327912 -0.0844837 0.327944
v 0.315852 -0.0728586 0.328208
v 0.307131 -0.0818627 0.342323
v 0.215839 -0.0921002 0.414034
v 0.176209 -0.0828803 0.424047
v 0.168426 -0.0892016 0.431642
v 0.286295 -0.0792725 0.356214
v 0.168426 -0.0670306 0.4157
v 0.168426 -0.0688808 0.417162
v 0.168426 -0.0753255 0.421935
v 0.168426 -0.0804134 0.425529
v 0.168426 -0.0808451 0.425834
v 0.194478 -0.0798275 0.414359
v 0.308042 -0.069405 0.331214
v 0.312071 -0.0649955 0.323943
v 0.309504 -0.0597842 0.321019
v 0.319936 -0.06885 0.321019
v 0.318777 -0.0678015 0.321019
f 1 2 5
f 1 5 10
f 1 10 19
f 1 19 18
f 1 18 33
f 1 33 37
f 1 37 60
f 1 60 102
f 1 102 112
f 1 112 111
f 1 111 167
f 1 167 166
f 1 166 188
f 1 188 116
f 1 116 67
f 1 67 44
f 1 44 43
f 1 43 38
f 1 38 23
f 1 23 11
f 1 11 6
f 1 6 3
f 1 3 7
f 1 7 15
f 1 15 28
f 1 28 50
f 1 50 80
f 1 80 141
f 1 141 219
f 1 219 217
f 1 217 216
f 1 216 215
f 1 215 295
f 1 295 297
f 1 297 375
f 1 375 436
f 1 436 373
f 1 373 369
f 1 369 368
f 1 368 367
f 1 367 366
f 1 366 434
f 1 434 365
f 1 365 435
f 1 435 426
f 1 426 425
f 1 425 424
f 1 424 423
f 1 423 422
f 1 422 465
f 1 465 471
f 1 471 470
f 1 470 469
f 1 469 468
f 1 468 467
f 1 467 437
f 1 437 377
f 1 377 376
f 1 376 299
f 1 299 223
f 1 223 298
f 1 298 221
f 1 221 220
f 1 220 144
f 1 144 142
f 1 142 83
f 1 83 52
f 1 52 29
f 1 29 16
f 1 16 8
f 1 8 4
f 1 4 2
f 2 4 8
f 2 8 17
f 2 17 31
f 2 31 54
f 2 54 55
f 2 55 85
f 2 85 143
f 2 143 159
f 2 159 157
f 2 157 156
f 2 156 236
f 2 236 315
f 2 315 314
f 2 314 391
f 2 391 449
f 2 449 446
f 2 446 448
f 2 448 475
f 2 475 477
f 2 477 476
f 2 476 459
f 2 459 413
f 2 413 412
f 2 412 457
f 2 457 453
f 2 453 452
f 2 452 451
f 2 451 404
f 2 404 403
f 2 403 402
f 2 402 401
f 2 401 396
f 2 396 397
f 2 397 395
f 2 395 323
f 2 323 394
f 2 394 393
f 2 393 392
f 2 392 317
f 2 317 248
f 2 248 241
f 2 241 240
f 2 240 237
f 2 237 160
f 2 160 97
f 2 97 58
f 2 58 34
f 2 34 20
f 2 20 9
f 2 9 5
f 3 6 7
f 5 9 10
f 6 11 7
f 7 12 13
f 7 13 14
f 7 14 15
f 7 11 12
f 8 16 17
f 9 18 19
f 9 19 10
f 9 20 21
f 9 21 22
f 9 22 18
f 11 23 24
f 11 24 13
f 11 13 12
f 13 25 14
f 13 24 25
f 14 25 26
f 14 26 27
f 14 27 28
f 14 28 15
f 16 29 30
f 16 30 17
f 17 30 32
f 17 32 31
f 18 22 33
f 20 34 35
f 20 35 21
f 21 35 36
f 21 36 37
f 21 37 33
f 21 33 22
f 23 38 25
f 23 25 24
f 25 39 40
f 25 40 41
f 25 41 26
f 25 38 42
f 25 42 43
f 25 43 44
f 25 44 45
f 25 45 46
f 25 46 47
f 25 47 48
f 25 48 39
f 26 41 40
f 26 40 27
f 27 40 49
f 27 49 50
f 27 50 28
f 29 51 30
f 29 52 81
f 29 81 51
f 30 51 53
f 30 53 32
f 31 32 54
f 32 55 54
f 32 53 56
f 32 56 57
f 32 57 55
f 34 58 35
f 35 58 59
f 35 59 36
f 36 60 37
f 36 59 61
f 36 61 62
f 36 62 63
f 36 63 60
f 38 43 42
f 39 64 65
f 39 65 49
f 39 49 40
f 39 48 66
f 39 66 64
f 44 67 68
f 44 68 45
f 45 68 47
f 45 47 46
f 47 69 70
f 47 70 48
f 47 68 71
f 47 71 69
f 48 72 66
f 48 70 73
f 48 73 74
f 48 74 75
f 48 75 76
f 48 76 77
f 48 77 72
f 49 65 78
f 49 78 50
f 50 78 79
f 50 79 80
f 51 81 82
f 51 82 53
f 52 83 81
f 53 82 56
f 55 57 84
f 55 84 85
f 56 86 57
f 56 82 87
f 56 87 88
f 56 88 89
f 56 89 90
f 56 90 91
f 56 91 92
f 56 92 93
f 56 93 86
f 57 86 94
f 57 94 95
f 57 95 84
f 58 96 59
f 58 97 98
f 58 98 99
f 58 99 100
f 58 100 96
f 59 96 100
f 59 100 61
f 60 63 101
f 60 101 102
f 61 100 103
f 61 103 62
f 62 104 105
f 62 105 106
f 62 106 63
f 62 103 107
f 62 107 108
f 62 108 109
f 62 109 110
f 62 110 104
f 63 106 111
f 63 111 112
f 63 112 101
f 64 66 65
f 65 113 114
f 65 114 78
f 65 66 115
f 65 115 113
f 66 72 115
f 67 116 117
f 67 117 68
f 68 117 118
f 68 118 119
f 68 119 120
f 68 120 71
f 69 71 70
f 70 71 121
f 70 121 122
f 70 122 123
f 70 123 124
f 70 124 73
f 71 120 125
f 71 125 126
f 71 126 127
f 71 127 128
f 71 128 129
f 71 129 122
f 71 122 121
f 72 77 115
f 73 75 74
f 73 124 130
f 73 130 131
f 73 131 132
f 73 132 133
f 73 133 75
f 75 133 134
f 75 134 135
f 75 135 77
f 75 77 76
f 77 135 136
f 77 136 137
f 77 137 138
f 77 138 139
f 77 139 115
f 78 114 140
f 78 140 79
f 79 140 141
f 79 141 80
f 81 83 82
f 82 83 142
f 82 142 87
f 84 143 85
f 84 95 143
f 86 93 94
f 87 142 144
f 87 144 220
f 87 220 145
f 87 145 88
f 88 145 89
f 89 145 146
f 89 146 147
f 89 147 148
f 89 148 91
f 89 91 90
f 91 148 147
f 91 147 149
f 91 149 150
f 91 150 151
f 91 151 152
f 91 152 92
f 92 94 93
f 92 152 94
f 94 153 95
f 94 152 154
f 94 154 153
f 95 155 156
f 95 156 157
f 95 157 158
f 95 158 159
f 95 159 143
f 95 153 155
f 97 160 98
f 98 160 99
f 99 160 161
f 99 161 100
f 100 161 162
f 100 162 163
f 100 163 103
f 101 112 102
f 103 163 107
f 104 164 126
f 104 126 105
f 104 110 164
f 105 126 165
f 105 165 106
f 106 166 167
f 106 167 111
f 106 165 168
f 106 168 169
f 106 169 166
f 107 163 170
f 107 170 171
f 107 171 172
f 107 172 173
f 107 173 108
f 108 174 175
f 108 175 176
f 108 176 177
f 108 177 109
f 108 173 178
f 108 178 179
f 108 179 180
f 108 180 181
f 108 181 174
f 109 177 182
f 109 182 183
f 109 183 184
f 109 184 185
f 109 185 186
f 109 186 110
f 110 186 164
f 113 140 114
f 113 115 140
f 115 139 187
f 115 187 140
f 116 188 118
f 116 118 117
f 118 169 119
f 118 188 166
f 118 166 169
f 119 169 168
f 119 168 189
f 119 189 120
f 120 189 168
f 120 168 165
f 120 165 125
f 122 129 123
f 123 129 190
f 123 190 191
f 123 191 184
f 123 184 183
f 123 183 182
f 123 182 176
f 123 176 192
f 123 192 124
f 124 192 130
f 125 165 126
f 126 164 186
f 126 186 127
f 127 186 193
f 127 193 194
f 127 194 129
f 127 129 128
f 129 194 191
f 129 191 190
f 130 192 195
f 130 195 196
f 130 196 197
f 130 197 131
f 131 197 132
f 132 198 199
f 132 199 200
f 132 200 201
f 132 201 202
f 132 202 133
f 132 197 203
f 132 203 198
f 133 202 204
f 133 204 205
f 133 205 206
f 133 206 207
f 133 207 208
f 133 208 209
f 133 209 134
f 134 210 211
f 134 211 135
f 134 209 210
f 135 212 137
f 135 137 136
f 135 211 213
f 135 213 214
f 135 214 212
f 137 212 138
f 138 212 215
f 138 215 139
f 139 215 216
f 139 216 217
f 139 217 218
f 139 218 141
f 139 141 140
f 139 140 187
f 141 218 219
f 145 220 146
f 146 220 221
f 146 221 222
f 146 222 147
f 147 222 223
f 147 223 149
f 149 223 224
f 149 224 225
f 149 225 150
f 150 225 151
f 151 225 226
f 151 226 227
f 151 227 228
f 151 228 152
f 152 229 154
f 152 228 229
f 153 154 230
f 153 230 155
f 154 229 231
f 154 231 232
f 154 232 233
f 154 233 234
f 154 234 235
f 154 235 230
f 155 236 156
f 155 230 235
f 155 235 236
f 157 159 158
f 160 162 161
f 160 237 170
f 160 170 162
f 162 170 163
f 170 237 238
f 170 238 171
f 171 238 239
f 171 239 240
f 171 240 241
f 171 241 172
f 172 241 242
f 172 242 178
f 172 178 173
f 174 243 175
f 174 181 244
f 174 244 243
f 175 196 245
f 175 245 176
f 175 243 246
f 175 246 247
f 175 247 196
f 176 245 195
f 176 195 192
f 176 182 177
f 178 248 249
f 178 249 179
f 178 242 248
f 179 249 250
f 179 250 180
f 180 250 251
f 180 251 252
f 180 252 181
f 181 253 254
f 181 254 255
f 181 255 256
f 181 256 257
f 181 257 258
f 181 258 259
f 181 259 260
f 181 260 261
f 181 261 262
f 181 262 244
f 181 252 263
f 181 263 253
f 184 191 185
f 185 191 194
f 185 194 193
f 185 193 186
f 195 245 196
f 196 247 246
f 196 246 197
f 197 246 203
f 198 200 199
f 198 203 246
f 198 246 200
f 200 246 264
f 200 264 261
f 200 261 265
f 200 265 266
f 200 266 202
f 200 202 201
f 202 266 267
f 202 267 268
f 202 268 204
f 204 268 267
f 204 267 269
f 204 269 270
f 204 270 271
f 204 271 272
f 204 272 205
f 205 273 274
f 205 274 275
f 205 275 206
f 205 272 276
f 205 276 277
f 205 277 278
f 205 278 279
f 205 279 280
f 205 280 273
f 206 208 207
f 206 275 208
f 208 275 281
f 208 281 282
f 208 282 283
f 208 283 284
f 208 284 285
f 208 285 286
f 208 286 287
f 208 287 209
f 209 287 288
f 209 288 210
f 210 289 290
f 210 290 211
f 210 288 291
f 210 291 292
f 210 292 289
f 211 290 293
f 211 293 213
f 212 214 294
f 212 294 215
f 213 293 290
f 213 290 214
f 214 295 294
f 214 290 296
f 214 296 297
f 214 297 295
f 215 294 295
f 217 219 218
f 221 298 222
f 222 298 223
f 223 299 224
f 224 299 225
f 225 299 300
f 225 300 226
f 226 300 378
f 226 378 301
f 226 301 302
f 226 302 227
f 227 302 303
f 227 303 228
f 228 303 304
f 228 304 305
f 228 305 306
f 228 306 229
f 229 306 307
f 229 307 231
f 231 307 308
f 231 308 309
f 231 309 232
f 232 310 311
f 232 311 233
f 232 309 310
f 233 311 312
f 233 312 234
f 234 313 235
f 234 312 314
f 234 314 313
f 235 313 236
f 236 313 315
f 237 240 239
f 237 239 238
f 241 248 242
f 243 244 316
f 243 316 246
f 244 264 246
f 244 246 316
f 244 262 261
f 244 261 264
f 248 317 249
f 249 318 319
f 249 319 250
f 249 317 318
f 250 319 251
f 251 263 252
f 251 319 318
f 251 318 320
f 251 320 321
f 251 321 322
f 251 322 254
f 251 254 263
f 253 263 254
f 254 323 324
f 254 324 325
f 254 325 255
f 254 322 323
f 255 325 324
f 255 324 326
f 255 326 327
f 255 327 256
f 256 327 257
f 257 327 328
f 257 328 258
f 258 329 330
f 258 330 331
f 258 331 332
f 258 332 333
f 258 333 259
f 258 328 329
f 259 334 335
f 259 335 260
f 259 333 334
f 260 336 261
f 260 335 336
f 261 336 337
f 261 337 265
f 265 337 266
f 266 337 338
f 266 338 267
f 267 338 335
f 267 335 269
f 269 335 271
f 269 271 270
f 271 335 339
f 271 339 340
f 271 340 272
f 272 340 276
f 273 280 274
f 274 341 342
f 274 342 343
f 274 343 344
f 274 344 345
f 274 345 346
f 274 346 347
f 274 347 281
f 274 281 348
f 274 348 275
f 274 280 349
f 274 349 341
f 275 348 281
f 276 350 277
f 276 340 351
f 276 351 350
f 277 350 352
f 277 352 353
f 277 353 278
f 278 353 279
f 279 354 280
f 279 353 352
f 279 352 355
f 279 355 356
f 279 356 357
f 279 357 358
f 279 358 359
f 279 359 354
f 280 359 360
f 280 360 361
f 280 361 349
f 280 354 359
f 281 362 363
f 281 363 283
f 281 283 282
f 281 347 344
f 281 344 364
f 281 364 365
f 281 365 362
f 283 363 284
f 284 363 366
f 284 366 367
f 284 367 368
f 284 368 369
f 284 369 285
f 285 369 286
f 286 369 292
f 286 292 370
f 286 370 287
f 287 370 291
f 287 291 288
f 289 371 290
f 289 292 372
f 289 372 371
f 290 371 296
f 291 370 292
f 292 369 373
f 292 373 374
f 292 374 372
f 296 371 375
f 296 375 297
f 299 376 300
f 300 376 377
f 300 377 378
f 301 378 379
f 301 379 302
f 302 379 380
f 302 380 303
f 303 380 379
f 303 379 304
f 304 379 381
f 304 381 361
f 304 361 305
f 305 382 306
f 305 361 360
f 305 360 383
f 305 383 382
f 306 382 307
f 307 384 385
f 307 385 308
f 307 382 386
f 307 386 387
f 307 387 384
f 308 385 388
f 308 388 389
f 308 389 309
f 309 389 310
f 310 389 311
f 311 389 390
f 311 390 391
f 311 391 314
f 311 314 312
f 313 314 315
f 317 392 318
f 318 392 393
f 318 393 394
f 318 394 323
f 318 323 321
f 318 321 320
f 321 323 322
f 323 395 324
f 324 395 326
f 326 396 327
f 326 395 397
f 326 397 396
f 327 396 398
f 327 398 399
f 327 399 328
f 328 399 329
f 329 400 401
f 329 401 402
f 329 402 403
f 329 403 404
f 329 404 405
f 329 405 406
f 329 406 407
f 329 407 330
f 329 399 398
f 329 398 400
f 330 408 409
f 330 409 331
f 330 407 406
f 330 406 410
f 330 410 411
f 330 411 412
f 330 412 413
f 330 413 414
f 330 414 415
f 330 415 416
f 330 416 408
f 331 409 417
f 331 417 332
f 332 417 418
f 332 418 419
f 332 419 339
f 332 339 333
f 333 339 334
f 334 339 335
f 335 338 337
f 335 337 336
f 339 419 340
f 340 419 351
f 341 349 420
f 341 420 421
f 341 421 342
f 342 421 422
f 342 422 423
f 342 423 424
f 342 424 425
f 342 425 426
f 342 426 343
f 343 426 344
f 344 347 345
f 344 426 364
f 345 347 346
f 349 361 381
f 349 381 420
f 350 351 419
f 350 419 418
f 350 418 409
f 350 409 352
f 352 409 355
f 355 409 427
f 355 427 428
f 355 428 358
f 355 358 356
f 356 358 357
f 358 429 359
f 358 428 430
f 358 430 431
f 358 431 432
f 358 432 429
f 359 429 433
f 359 433 383
f 359 383 360
f 362 434 363
f 362 365 434
f 363 434 366
f 364 426 435
f 364 435 365
f 371 372 436
f 371 436 375
f 372 374 373
f 372 373 436
f 377 437 378
f 378 437 379
f 379 437 438
f 379 438 439
f 379 439 381
f 381 440 441
f 381 441 420
f 381 439 440
f 382 383 386
f 383 433 432
f 383 432 442
f 383 442 443
f 383 443 444
f 383 444 445
f 383 445 386
f 384 446 388
f 384 388 385
f 384 387 447
f 384 447 448
f 384 448 446
f 386 445 387
f 387 445 444
f 387 444 447
f 388 446 389
f 389 449 390
f 389 446 449
f 390 449 391
f 396 401 398
f 398 450 400
f 398 401 450
f 400 450 401
f 404 451 406
f 404 406 405
f 406 451 452
f 406 452 453
f 406 453 454
f 406 454 411
f 406 411 410
f 408 416 415
f 408 415 455
f 408 455 409
f 409 455 456
f 409 456 430
f 409 430 427
f 409 418 417
f 411 454 457
f 411 457 458
f 411 458 412
f 412 458 457
f 413 459 460
f 413 460 414
f 414 460 415
f 415 461 442
f 415 442 462
f 415 462 430
f 415 430 455
f 415 460 461
f 420 441 440
f 420 440 463
f 420 463 421
f 421 463 440
f 421 440 422
f 422 440 464
f 422 464 465
f 427 430 428
f 429 432 433
f 430 462 431
f 430 456 455
f 431 462 432
f 432 462 466
f 432 466 442
f 437 467 438
f 438 467 468
f 438 468 439
f 439 468 469
f 439 469 470
f 439 470 471
f 439 471 464
f 439 464 472
f 439 472 440
f 440 472 464
f 442 461 443
f 442 466 462
f 443 461 473
f 443 473 447
f 443 447 444
f 447 473 448
f 448 473 474
f 448 474 475
f 453 457 454
f 459 476 460
f 460 476 461
f 461 476 477
f 461 477 474
f 461 474 473
f 464 471 465
f 474 477 475
