v -0.124674 -0.186673 0.41445
v -9.5405e-05 -0.186673 0.433602
v -0.124674 -0.186673 0.50509
v -0.124674 0.0269153 0.225433
v -9.5405e-05 -0.186673 0.520741
v -9.5405e-05 0.0240744 0.259736
v -0.124333 -0.186673 0.505149
v -0.124674 -0.169317 0.497118
v -0.124674 0.032339 0.221873
v -9.5405e-05 0.0255982 0.258735
v -9.5405e-05 -0.179338 0.517387
v -0.00590054 -0.186673 0.520741
v -0.122723 -0.183806 0.504061
v -0.124125 -0.169911 0.497471
v -0.111954 -0.186673 0.506796
v -0.0434876 -0.165985 0.506296
v -0.124674 -0.164901 0.495029
v -0.124674 0.0334754 0.22155
v -9.5405e-05 0.0285941 0.256823
v -0.00590054 -0.179338 0.517387
v -9.5405e-05 -0.170867 0.513445
v -0.0176815 -0.180991 0.516622
v -0.0176815 -0.186673 0.519211
v -0.111954 -0.181688 0.504531
v -0.111954 -0.170867 0.49953
v -0.0648178 -0.168981 0.504884
v -0.0883798 -0.178279 0.50609
v -0.101246 -0.186673 0.508209
v -0.0883798 -0.184167 0.508768
v -0.0530368 -0.173217 0.508415
v -0.0176815 -0.170867 0.511945
v -0.0356336 -0.164926 0.506796
v -0.120454 -0.164358 0.495323
v -0.124674 -0.160613 0.492705
v -0.124674 0.04143 0.220196
v -9.5405e-05 0.0412492 0.25344
v -9.5405e-05 0.0354124 0.254999
v -0.00590054 -0.170867 0.513445
v -9.5405e-05 -0.166192 0.511121
v -0.0294138 -0.183522 0.51624
v -0.073123 -0.176084 0.507091
v -0.0266332 -0.186673 0.518035
v -0.0462926 -0.186673 0.515446
v -0.0294747 -0.164177 0.507208
v -0.111954 -0.157437 0.492675
v -0.117674 -0.14145 0.483173
v -0.123747 -0.148113 0.485997
v -0.123747 -0.142225 0.482732
v -0.124674 -0.148991 0.486233
v -0.124674 0.0434962 0.220314
v -9.5405e-05 0.0530263 0.254028
v -9.5405e-05 0.0472152 0.253734
v -0.00590054 -0.161362 0.508709
v -0.0176815 -0.162757 0.507973
v -9.5405e-05 -0.161362 0.508709
v -0.0176815 -0.156868 0.504767
v -0.0249867 -0.141062 0.495176
v -0.0412558 -0.13551 0.489998
v -0.109808 -0.14052 0.483703
v -0.11132 -0.122984 0.473906
v -0.11482 -0.118567 0.470994
v -0.124674 -0.142922 0.482849
v -0.123747 -0.125902 0.473494
v -0.124674 -0.126134 0.473376
v -0.124674 0.0766062 0.222756
v -9.5405e-05 0.0766062 0.25544
v -9.5405e-05 0.0707951 0.255087
v -9.5405e-05 0.0590181 0.254381
v -9.5405e-05 -0.15847 0.50715
v -0.00590054 -0.155474 0.505531
v -0.0176815 -0.140184 0.495647
v -0.0179986 -0.122751 0.486056
v -0.0294747 -0.124946 0.485762
v -0.0221452 -0.11818 0.482996
v -0.106966 -0.117663 0.471523
v -0.11132 -0.113014 0.467963
v -0.116686 -0.0827196 0.447694
v -0.123747 -0.120013 0.470111
v -0.124674 -0.120892 0.470376
v -0.124674 0.0770194 0.222815
v -9.5405e-05 0.0771744 0.255499
v -9.5405e-05 -0.155474 0.505531
v -0.00590054 -0.13879 0.496412
v -0.00590054 -0.123733 0.488145
v -0.0142912 -0.117328 0.483526
v -0.100173 -0.101935 0.462286
v -0.100173 -0.0810408 0.448782
v -0.0648178 -0.0715624 0.447252
v -0.0883798 -0.0739384 0.445664
v -0.112442 -0.0774251 0.444722
v -0.111954 -0.0678691 0.438162
v -0.120759 -0.0692121 0.437162
v -0.123747 -0.0843983 0.446517
v -0.124674 -0.0996103 0.456461
v -0.124674 -0.105189 0.460197
v -0.124674 -0.110845 0.463933
v -0.124674 -0.111568 0.464404
v -0.0412558 -0.0991713 0.468258
v -0.0176815 -0.081764 0.460108
v -0.124674 0.0771744 0.222844
v -9.5405e-05 0.0771744 0.334077
v -9.5405e-05 -0.13879 0.496412
v -9.5405e-05 -0.123733 0.488145
v -0.00590054 -0.116501 0.484026
v -0.00590054 -0.110613 0.480261
v -0.00590054 -0.10147 0.474377
v -0.0176815 -0.102658 0.473612
v -0.048439 -0.105783 0.471582
v -0.0883798 -0.0798269 0.449547
v -0.0579028 -0.0708909 0.447694
v -0.100173 -0.0667586 0.438986
v -0.00590054 -0.0805759 0.460873
v -0.00590054 -0.0746874 0.456961
v -0.100173 -0.0751523 0.444869
v -0.100173 -0.0608701 0.434573
v -0.103905 -0.0475434 0.423982
v -0.108405 -0.034475 0.413156
v -0.111954 -0.0619806 0.433631
v -0.124308 -0.0757721 0.440398
v -0.116259 -0.035973 0.411979
v -0.124308 -0.0651057 0.432455
v -0.124674 -0.0653639 0.432513
v -0.124674 -0.0656222 0.432719
v -0.124674 -0.0702452 0.436397
v -0.124674 -0.0852764 0.446782
v -0.124674 0.0771744 0.307659
v -0.00590054 0.0771744 0.334077
v -9.5405e-05 -0.0272435 0.421275
v -9.5405e-05 -0.116501 0.484026
v -9.5405e-05 -0.113583 0.482173
v -9.5405e-05 -0.10147 0.474377
v -9.5405e-05 -0.0845274 0.463433
v -0.00590054 -0.0663712 0.451077
v -0.0500488 -0.0701935 0.448194
v -0.0176815 -0.0614899 0.445899
v -0.0294747 -0.062523 0.445134
v -0.0535978 -0.0656738 0.44434
v -9.5405e-05 -0.0805759 0.460873
v -9.5405e-05 -0.0746874 0.456961
v -0.0530368 -0.0567636 0.437691
v -0.100063 -0.0422489 0.420511
v -0.100173 -0.0335453 0.413891
v -0.100173 -0.0276309 0.409184
v -0.100173 -0.020606 0.4033
v -0.111954 -0.0222589 0.401859
v -0.112186 -0.0301103 0.408419
v -0.124674 -0.0758754 0.44031
v -0.11804 -0.0234986 0.40077
v -0.122674 -0.0293613 0.403889
v -0.123747 -0.0377809 0.410508
v -0.123747 -0.0568152 0.425953
v -0.124674 -0.0570477 0.425777
v -0.122747 0.0771744 0.308483
v -0.124674 -0.0250482 0.399388
v -0.0176815 0.0771744 0.332548
v -0.0481951 -0.0234212 0.412626
v -0.00590054 -0.0272435 0.421275
v -9.5405e-05 -0.0331579 0.425982
v -9.5405e-05 -0.0663712 0.451077
v -0.00335165 -0.0465878 0.436485
v -0.00590054 -0.0604827 0.446664
v -0.0112056 -0.0472593 0.435985
v -0.0342311 -0.0355598 0.424129
v -0.0412558 -0.0557305 0.438456
v -0.0883798 -0.032538 0.414656
v -0.0883798 -0.0266495 0.409979
v -0.0176815 -0.0341393 0.425218
v -0.0765988 0.0771744 0.324781
v -0.0878188 0.0771744 0.32228
v -0.0883798 0.0771744 0.322133
v -0.0962216 0.0771744 0.319427
v -0.124674 -0.0268561 0.400947
v -0.0967094 0.0771744 0.31925
v -0.111954 0.0771744 0.312955
v -0.122113 0.0771744 0.308748
v -0.124674 -0.030007 0.403624
v -0.124674 -0.0386848 0.410861
v -0.0648178 -0.0247383 0.411538
v -0.00590054 -0.0331579 0.425982
v -9.5405e-05 -0.0465878 0.436485
v -0.00672984 -0.042094 0.432661
v -0.0765988 -0.0315824 0.41545
f 1 2 5
f 1 5 12
f 1 12 23
f 1 23 42
f 1 42 43
f 1 43 28
f 1 28 15
f 1 15 7
f 1 7 3
f 1 3 8
f 1 8 17
f 1 17 34
f 1 34 49
f 1 49 62
f 1 62 64
f 1 64 79
f 1 79 97
f 1 97 96
f 1 96 95
f 1 95 94
f 1 94 125
f 1 125 147
f 1 147 124
f 1 124 123
f 1 123 122
f 1 122 152
f 1 152 177
f 1 177 176
f 1 176 172
f 1 172 154
f 1 154 126
f 1 126 100
f 1 100 80
f 1 80 65
f 1 65 50
f 1 50 35
f 1 35 18
f 1 18 9
f 1 9 4
f 1 4 2
f 2 4 6
f 2 6 10
f 2 10 19
f 2 19 37
f 2 37 36
f 2 36 52
f 2 52 51
f 2 51 68
f 2 68 67
f 2 67 66
f 2 66 81
f 2 81 101
f 2 101 128
f 2 128 158
f 2 158 180
f 2 180 159
f 2 159 139
f 2 139 138
f 2 138 132
f 2 132 131
f 2 131 130
f 2 130 129
f 2 129 103
f 2 103 102
f 2 102 82
f 2 82 69
f 2 69 55
f 2 55 39
f 2 39 21
f 2 21 11
f 2 11 5
f 3 7 8
f 4 9 10
f 4 10 6
f 5 11 20
f 5 20 12
f 7 13 14
f 7 14 8
f 7 15 13
f 8 14 16
f 8 16 17
f 9 18 19
f 9 19 10
f 11 21 38
f 11 38 20
f 12 20 22
f 12 22 23
f 13 15 24
f 13 24 14
f 14 25 26
f 14 26 16
f 14 24 27
f 14 27 25
f 15 28 29
f 15 29 24
f 16 26 30
f 16 30 31
f 16 31 32
f 16 32 33
f 16 33 17
f 17 33 34
f 18 35 36
f 18 36 37
f 18 37 19
f 20 38 31
f 20 31 22
f 21 39 38
f 22 40 23
f 22 31 30
f 22 30 41
f 22 41 40
f 23 40 42
f 24 29 27
f 25 27 41
f 25 41 30
f 25 30 26
f 27 29 40
f 27 40 41
f 28 43 29
f 29 43 40
f 31 38 32
f 32 38 44
f 32 44 33
f 33 45 46
f 33 46 47
f 33 47 34
f 33 44 45
f 34 47 48
f 34 48 49
f 35 50 51
f 35 51 52
f 35 52 36
f 38 39 53
f 38 53 54
f 38 54 44
f 39 55 53
f 40 43 42
f 44 54 56
f 44 56 57
f 44 57 45
f 45 57 58
f 45 58 59
f 45 59 46
f 46 59 60
f 46 60 47
f 47 60 61
f 47 61 48
f 48 62 49
f 48 61 63
f 48 63 64
f 48 64 62
f 50 65 66
f 50 66 67
f 50 67 68
f 50 68 51
f 53 69 70
f 53 70 54
f 53 55 69
f 54 70 56
f 56 70 83
f 56 83 71
f 56 71 57
f 57 71 72
f 57 72 73
f 57 73 58
f 58 73 60
f 58 60 59
f 60 73 74
f 60 74 61
f 61 74 75
f 61 75 76
f 61 76 77
f 61 77 78
f 61 78 63
f 63 78 79
f 63 79 64
f 65 80 81
f 65 81 66
f 69 82 70
f 70 82 102
f 70 102 83
f 71 83 72
f 72 84 74
f 72 74 73
f 72 83 84
f 74 84 85
f 74 85 75
f 75 85 76
f 76 86 77
f 76 85 86
f 77 87 88
f 77 88 89
f 77 89 90
f 77 90 91
f 77 91 92
f 77 92 93
f 77 93 94
f 77 94 95
f 77 95 96
f 77 96 97
f 77 97 78
f 77 86 98
f 77 98 99
f 77 99 87
f 78 97 79
f 80 100 81
f 81 100 126
f 81 126 153
f 81 153 175
f 81 175 174
f 81 174 173
f 81 173 171
f 81 171 170
f 81 170 169
f 81 169 168
f 81 168 155
f 81 155 127
f 81 127 101
f 83 102 103
f 83 103 84
f 84 103 129
f 84 129 104
f 84 104 85
f 85 104 105
f 85 105 106
f 85 106 107
f 85 107 108
f 85 108 86
f 86 108 98
f 87 109 88
f 87 99 109
f 88 110 111
f 88 111 91
f 88 91 89
f 88 109 99
f 88 99 112
f 88 112 113
f 88 113 110
f 89 114 90
f 89 91 114
f 90 114 91
f 91 111 115
f 91 115 116
f 91 116 117
f 91 117 118
f 91 118 92
f 92 119 93
f 92 118 117
f 92 117 120
f 92 120 121
f 92 121 122
f 92 122 123
f 92 123 124
f 92 124 119
f 93 119 125
f 93 125 94
f 98 108 107
f 98 107 99
f 99 107 106
f 99 106 112
f 101 127 157
f 101 157 128
f 104 130 105
f 104 129 130
f 105 130 106
f 106 131 132
f 106 132 112
f 106 130 131
f 110 133 134
f 110 134 135
f 110 135 136
f 110 136 137
f 110 137 115
f 110 115 111
f 110 113 133
f 112 132 138
f 112 138 139
f 112 139 113
f 113 139 159
f 113 159 133
f 115 137 140
f 115 140 141
f 115 141 116
f 116 141 142
f 116 142 117
f 117 142 143
f 117 143 144
f 117 144 145
f 117 145 146
f 117 146 120
f 119 124 147
f 119 147 125
f 120 146 145
f 120 145 148
f 120 148 149
f 120 149 150
f 120 150 151
f 120 151 121
f 121 151 152
f 121 152 122
f 126 154 153
f 127 155 156
f 127 156 157
f 128 157 179
f 128 179 158
f 133 159 180
f 133 180 160
f 133 160 161
f 133 161 135
f 133 135 134
f 135 161 162
f 135 162 163
f 135 163 164
f 135 164 136
f 136 164 140
f 136 140 137
f 140 164 163
f 140 163 141
f 141 163 142
f 142 165 166
f 142 166 143
f 142 163 167
f 142 167 165
f 143 166 168
f 143 168 144
f 144 168 169
f 144 169 145
f 145 169 170
f 145 170 171
f 145 171 148
f 148 154 172
f 148 172 149
f 148 171 173
f 148 173 174
f 148 174 175
f 148 175 153
f 148 153 154
f 149 172 176
f 149 176 150
f 150 177 152
f 150 152 151
f 150 176 177
f 155 168 178
f 155 178 156
f 156 178 157
f 157 178 166
f 157 166 167
f 157 167 179
f 158 179 160
f 158 160 180
f 160 179 181
f 160 181 161
f 161 181 162
f 162 181 167
f 162 167 163
f 165 182 166
f 165 167 182
f 166 182 167
f 166 178 168
f 167 181 179
