v 0.391329 0.373497 -0.213485
v 0.389337 0.373497 -0.218054
v 0.277846 0.373497 -0.213485
v 0.25458 0.0771744 -0.213485
v 0.384036 0.373497 -0.227486
v 0.276245 0.371409 -0.213485
v 0.0278983 0.373497 -0.349763
v 0.0278983 0.371351 -0.348457
v 0.0278983 0.36993 -0.347602
v 0.0278983 0.36262 -0.343257
v 0.0278983 0.346493 -0.334433
v 0.0278983 0.33927 -0.330494
v 0.0278983 0.334165 -0.327725
v 0.0278983 0.333005 -0.327117
v 0.0278983 0.3241 -0.322503
v 0.0278983 0.316704 -0.318901
v 0.0278983 0.315921 -0.318541
v 0.0278983 0.309656 -0.315682
v 0.0278983 0.291179 -0.307286
v 0.0278983 0.286074 -0.304967
v 0.0278983 0.276937 -0.301118
v 0.0278983 0.264697 -0.296413
v 0.251521 0.0771744 -0.217469
v 0.34807 0.373497 -0.274556
v 0.371372 0.373497 -0.244144
v 0.372475 0.373497 -0.242703
v 0.382186 0.373497 -0.230007
v 0.382791 0.373497 -0.229197
v 0.138998 0.0771744 -0.213485
v 0.271905 0.365666 -0.213485
v 0.0278983 0.373497 -0.443428
v 0.0278983 0.263478 -0.295963
v 0.246825 0.0771744 -0.22357
v 0.324911 0.373497 -0.304697
v 0.139354 0.080568 -0.213485
v 0.0278983 0.0771744 -0.252608
v 0.270624 0.363925 -0.213485
v 0.0278983 0.253326 -0.292226
v 0.0278983 0.241579 -0.287904
v 0.0278983 0.0771744 -0.331124
v 0.0282184 0.373497 -0.443406
v 0.242022 0.0771744 -0.229782
v 0.321638 0.373497 -0.308884
v 0.139923 0.0840777 -0.213485
v 0.141168 0.0897919 -0.213485
v 0.143445 0.100205 -0.213485
v 0.146824 0.115607 -0.213485
v 0.148639 0.123758 -0.213485
v 0.149599 0.127905 -0.213485
v 0.150915 0.132981 -0.213485
v 0.0278983 0.0869203 -0.253531
v 0.266818 0.358356 -0.213485
v 0.0278983 0.23981 -0.287274
v 0.0278983 0.231195 -0.28428
v 0.0278983 0.22989 -0.283852
v 0.0278983 0.225365 -0.282412
v 0.0298193 0.0771744 -0.330876
v 0.0766356 0.0771744 -0.324776
v 0.100969 0.373497 -0.433816
v 0.241702 0.0771744 -0.230188
v 0.320144 0.373497 -0.310685
v 0.236579 0.0771744 -0.236603
v 0.152552 0.138319 -0.213485
v 0.0278983 0.0883996 -0.253688
v 0.253584 0.33898 -0.213485
v 0.0278983 0.216489 -0.2798
v 0.246576 0.328596 -0.213485
v 0.248497 0.331526 -0.213485
v 0.0878416 0.0771744 -0.322277
v 0.102214 0.373497 -0.433636
v 0.111997 0.373497 -0.432061
v 0.31584 0.373497 -0.315862
v 0.236152 0.0771744 -0.236963
v 0.154971 0.145715 -0.213485
v 0.0278983 0.100205 -0.255242
v 0.155789 0.148151 -0.213485
v 0.164541 0.173706 -0.213485
v 0.0278983 0.193691 -0.27325
v 0.243232 0.32323 -0.213485
v 0.0278983 0.18905 -0.271944
v 0.0278983 0.187193 -0.271427
v 0.0884108 0.0771744 -0.322142
v 0.122989 0.373497 -0.428842
v 0.310646 0.373497 -0.320184
v 0.229749 0.0771744 -0.242073
v 0.308831 0.373497 -0.321692
v 0.0278983 0.125353 -0.258618
v 0.167991 0.182697 -0.213485
v 0.0278983 0.129704 -0.259248
v 0.23907 0.316327 -0.213485
v 0.0278983 0.185598 -0.271021
v 0.0962372 0.0771744 -0.319419
v 0.111997 0.0771744 -0.312958
v 0.0967353 0.0771744 -0.319239
v 0.136614 0.373497 -0.423214
v 0.203886 0.0771744 -0.262017
v 0.302784 0.373497 -0.326374
v 0.168596 0.184119 -0.213485
v 0.0278983 0.135534 -0.260306
v 0.172865 0.193865 -0.213485
v 0.221282 0.2859 -0.213485
v 0.0278983 0.182088 -0.270143
v 0.195099 0.373497 -0.399015
v 0.146718 0.0771744 -0.298574
v 0.190332 0.0771744 -0.272417
v 0.275462 0.373497 -0.347354
v 0.28834 0.373497 -0.337472
v 0.0278983 0.147339 -0.262648
v 0.178735 0.206424 -0.213485
v 0.185885 0.221652 -0.213485
v 0.196166 0.240854 -0.213485
v 0.0278983 0.170892 -0.2676
v 0.190012 0.229803 -0.213485
v 0.205914 0.373497 -0.394491
v 0.154224 0.0771744 -0.295423
v 0.181581 0.0771744 -0.279103
v 0.241524 0.373497 -0.373376
v 0.0278983 0.169326 -0.267262
v 0.213385 0.373497 -0.391339
v 0.154651 0.0771744 -0.295243
v 0.172154 0.0771744 -0.285946
v 0.22918 0.373497 -0.382785
v 0.218009 0.373497 -0.389336
v 0.160556 0.0771744 -0.292744
v 0.17162 0.0771744 -0.286306
v 0.227437 0.373497 -0.384046
f 1 2 5
f 1 5 28
f 1 28 27
f 1 27 26
f 1 26 25
f 1 25 24
f 1 24 34
f 1 34 43
f 1 43 61
f 1 61 72
f 1 72 84
f 1 84 86
f 1 86 97
f 1 97 107
f 1 107 106
f 1 106 117
f 1 117 122
f 1 122 126
f 1 126 123
f 1 123 119
f 1 119 114
f 1 114 103
f 1 103 95
f 1 95 83
f 1 83 71
f 1 71 70
f 1 70 59
f 1 59 41
f 1 41 31
f 1 31 7
f 1 7 3
f 1 3 6
f 1 6 30
f 1 30 37
f 1 37 52
f 1 52 65
f 1 65 68
f 1 68 67
f 1 67 79
f 1 79 90
f 1 90 101
f 1 101 111
f 1 111 113
f 1 113 110
f 1 110 109
f 1 109 100
f 1 100 98
f 1 98 88
f 1 88 77
f 1 77 76
f 1 76 74
f 1 74 63
f 1 63 50
f 1 50 49
f 1 49 48
f 1 48 47
f 1 47 46
f 1 46 45
f 1 45 44
f 1 44 35
f 1 35 29
f 1 29 4
f 1 4 2
f 2 4 5
f 3 7 8
f 3 8 9
f 3 9 10
f 3 10 11
f 3 11 12
f 3 12 13
f 3 13 14
f 3 14 15
f 3 15 16
f 3 16 17
f 3 17 18
f 3 18 19
f 3 19 20
f 3 20 21
f 3 21 22
f 3 22 6
f 4 23 24
f 4 24 25
f 4 25 26
f 4 26 27
f 4 27 28
f 4 28 5
f 4 29 36
f 4 36 40
f 4 40 57
f 4 57 58
f 4 58 69
f 4 69 82
f 4 82 92
f 4 92 94
f 4 94 93
f 4 93 104
f 4 104 115
f 4 115 120
f 4 120 124
f 4 124 125
f 4 125 121
f 4 121 116
f 4 116 105
f 4 105 96
f 4 96 85
f 4 85 73
f 4 73 62
f 4 62 60
f 4 60 42
f 4 42 33
f 4 33 23
f 6 22 30
f 7 31 40
f 7 40 36
f 7 36 51
f 7 51 64
f 7 64 75
f 7 75 87
f 7 87 89
f 7 89 99
f 7 99 108
f 7 108 118
f 7 118 112
f 7 112 102
f 7 102 91
f 7 91 81
f 7 81 80
f 7 80 78
f 7 78 66
f 7 66 56
f 7 56 55
f 7 55 54
f 7 54 53
f 7 53 39
f 7 39 38
f 7 38 32
f 7 32 22
f 7 22 21
f 7 21 20
f 7 20 19
f 7 19 18
f 7 18 17
f 7 17 16
f 7 16 15
f 7 15 14
f 7 14 13
f 7 13 12
f 7 12 11
f 7 11 10
f 7 10 9
f 7 9 8
f 22 32 30
f 23 33 34
f 23 34 24
f 29 35 36
f 30 32 38
f 30 38 39
f 30 39 37
f 31 41 40
f 33 42 34
f 34 42 43
f 35 44 36
f 36 44 45
f 36 45 46
f 36 46 47
f 36 47 48
f 36 48 49
f 36 49 50
f 36 50 51
f 37 39 53
f 37 53 54
f 37 54 55
f 37 55 56
f 37 56 52
f 40 41 57
f 41 58 57
f 41 59 58
f 42 60 43
f 43 60 62
f 43 62 61
f 50 63 64
f 50 64 51
f 52 56 65
f 56 66 67
f 56 67 68
f 56 68 65
f 58 59 70
f 58 70 71
f 58 71 69
f 61 62 72
f 62 73 72
f 63 74 64
f 64 74 76
f 64 76 77
f 64 77 75
f 66 78 67
f 67 78 80
f 67 80 81
f 67 81 79
f 69 71 82
f 71 83 82
f 72 73 84
f 73 85 86
f 73 86 84
f 75 77 87
f 77 88 89
f 77 89 87
f 79 81 90
f 81 91 90
f 82 83 92
f 83 93 94
f 83 94 92
f 83 95 93
f 85 96 97
f 85 97 86
f 88 98 89
f 89 98 100
f 89 100 99
f 90 91 102
f 90 102 101
f 93 95 103
f 93 103 104
f 96 105 106
f 96 106 107
f 96 107 97
f 99 100 109
f 99 109 110
f 99 110 108
f 101 102 111
f 102 112 113
f 102 113 111
f 103 114 104
f 104 114 115
f 105 116 117
f 105 117 106
f 108 110 113
f 108 113 118
f 112 118 113
f 114 119 120
f 114 120 115
f 116 121 122
f 116 122 117
f 119 123 124
f 119 124 120
f 121 125 126
f 121 126 122
f 123 126 124
f 124 126 125
