v -0.241821 0.363632 -0.24829
v -0.241821 0.371093 -0.254117
v -0.267549 0.363632 -0.217373
v -0.241821 0.363632 -0.364265
v -0.241821 0.383546 -0.264045
v -0.269863 0.366929 -0.217373
v -0.381737 0.363632 -0.217373
v -0.241821 0.394511 -0.272956
v -0.241821 0.403479 -0.280254
v -0.241821 0.403686 -0.280423
v -0.247445 0.363632 -0.360163
v -0.28418 0.494307 -0.484115
v -0.276968 0.492819 -0.485982
v -0.260498 0.49459 -0.495458
v -0.253393 0.493422 -0.496929
v -0.241821 0.491538 -0.499333
v -0.273765 0.372035 -0.217373
v -0.241821 0.409602 -0.285289
v -0.378158 0.363632 -0.223426
v -0.51035 0.492216 -0.217373
v -0.508224 0.493836 -0.227443
v -0.506582 0.495325 -0.235306
v -0.495468 0.49459 -0.26051
v -0.485995 0.492819 -0.276972
v -0.484138 0.494307 -0.284157
v -0.267307 0.363632 -0.344945
v -0.317982 0.495287 -0.459449
v -0.30501 0.496907 -0.470311
v -0.292039 0.498791 -0.481173
v -0.288352 0.501975 -0.485444
v -0.276672 0.50109 -0.491809
v -0.268356 0.497303 -0.493845
v -0.241821 0.499338 -0.505697
v -0.27425 0.372657 -0.217373
v -0.241821 0.417214 -0.292106
v -0.301485 0.406513 -0.217373
v -0.299682 0.404308 -0.217373
v -0.295699 0.399429 -0.217373
v -0.291205 0.393871 -0.217373
v -0.285042 0.386241 -0.217373
v -0.281731 0.382133 -0.217373
v -0.280924 0.381116 -0.217373
v -0.377566 0.363632 -0.224416
v -0.510781 0.492668 -0.217373
v -0.516244 0.500336 -0.217373
v -0.493853 0.497303 -0.268373
v -0.491808 0.50109 -0.276661
v -0.485429 0.501975 -0.288372
v -0.481177 0.498791 -0.292021
v -0.470305 0.496907 -0.305004
v -0.459432 0.495287 -0.317988
v -0.374228 0.363632 -0.229112
v -0.293896 0.363632 -0.324522
v -0.377754 0.494684 -0.412918
v -0.364755 0.495739 -0.423808
v -0.351784 0.497416 -0.43467
v -0.294703 0.506648 -0.483238
v -0.272554 0.505159 -0.495543
v -0.242763 0.499903 -0.505556
v -0.241821 0.500845 -0.50632
v -0.241821 0.438352 -0.312048
v -0.306437 0.412409 -0.217373
v -0.516728 0.501485 -0.217373
v -0.495548 0.505159 -0.272531
v -0.48325 0.506648 -0.294708
v -0.434673 0.497416 -0.35179
v -0.423801 0.495739 -0.364746
v -0.364352 0.363632 -0.242038
v -0.412928 0.494684 -0.377729
v -0.44856 0.494496 -0.330971
v -0.390672 0.494062 -0.402056
v -0.303988 0.363632 -0.316602
v -0.39853 0.498 -0.398548
v -0.394682 0.501504 -0.403753
v -0.354394 0.505272 -0.43665
v -0.40106 0.505856 -0.401065
v -0.294703 0.506817 -0.483238
v -0.272554 0.507495 -0.495543
v -0.241821 0.511395 -0.504821
v -0.241821 0.44033 -0.313915
v -0.311712 0.418099 -0.217373
v -0.241821 0.44212 -0.315612
v -0.241821 0.450523 -0.323871
v -0.516728 0.502126 -0.217373
v -0.508224 0.503181 -0.239578
v -0.495548 0.507495 -0.272531
v -0.48325 0.506817 -0.294708
v -0.436665 0.505272 -0.354393
v -0.403778 0.501504 -0.394701
v -0.328424 0.363632 -0.288853
v -0.402056 0.494062 -0.390684
v -0.31887 0.363632 -0.301242
v -0.310823 0.363632 -0.310803
v -0.40106 0.507175 -0.401065
v -0.394816 0.509511 -0.403498
v -0.347693 0.515804 -0.433142
v -0.289805 0.515521 -0.477835
v -0.288756 0.508984 -0.485303
v -0.27678 0.512526 -0.489008
v -0.27312 0.519666 -0.4842
v -0.265181 0.527466 -0.480579
v -0.265181 0.515107 -0.491837
v -0.241821 0.512846 -0.503548
v -0.241821 0.512431 -0.503915
v -0.312573 0.419022 -0.217373
v -0.241821 0.452294 -0.325654
v -0.334937 0.442723 -0.217373
v -0.317874 0.424655 -0.217373
v -0.514844 0.511452 -0.217373
v -0.508224 0.50855 -0.239578
v -0.503434 0.512544 -0.242746
v -0.491835 0.515107 -0.265177
v -0.484218 0.519666 -0.273125
v -0.489009 0.512526 -0.276774
v -0.485295 0.508984 -0.288768
v -0.482119 0.517537 -0.280989
v -0.47784 0.515521 -0.289814
v -0.45736 0.516425 -0.315272
v -0.433139 0.515804 -0.347689
v -0.403509 0.509511 -0.394814
v -0.314241 0.363632 -0.306758
v -0.316583 0.363632 -0.303986
v -0.399983 0.517876 -0.387969
v -0.395489 0.525073 -0.383896
v -0.382302 0.547342 -0.37029
v -0.387658 0.529425 -0.387658
v -0.370326 0.547342 -0.382312
v -0.374417 0.540145 -0.386809
v -0.387981 0.517876 -0.399991
v -0.375036 0.517028 -0.410853
v -0.290047 0.537168 -0.454725
v -0.294434 0.518404 -0.471244
v -0.367177 0.519873 -0.413879
v -0.286576 0.521249 -0.474243
v -0.281086 0.529105 -0.470085
v -0.280978 0.517537 -0.482106
v -0.273227 0.531837 -0.472772
v -0.265181 0.533928 -0.474667
v -0.254362 0.548454 -0.465927
v -0.250029 0.543273 -0.472461
v -0.256192 0.517141 -0.493704
v -0.241821 0.520533 -0.496561
v -0.241821 0.45414 -0.327549
v -0.340804 0.448808 -0.217373
v -0.51323 0.513279 -0.217373
v -0.512934 0.512997 -0.218702
v -0.505048 0.51667 -0.229847
v -0.485941 0.521569 -0.265177
v -0.495333 0.518931 -0.248346
v -0.472458 0.543273 -0.250015
v -0.474665 0.533928 -0.265177
v -0.472781 0.531837 -0.273239
v -0.461047 0.543499 -0.272984
v -0.474261 0.521249 -0.28659
v -0.417234 0.523359 -0.357985
v -0.410856 0.517028 -0.375014
v -0.392529 0.545552 -0.359484
v -0.386796 0.540145 -0.374391
v -0.396189 0.54932 -0.349499
v -0.377835 0.554445 -0.366216
v -0.378965 0.543838 -0.378945
v -0.366236 0.554445 -0.377786
v -0.340292 0.552825 -0.399538
v -0.336525 0.548472 -0.407062
v -0.370649 0.535793 -0.394333
v -0.28052 0.552222 -0.446041
v -0.276753 0.547851 -0.453565
v -0.272985 0.543499 -0.461033
v -0.265181 0.551807 -0.457243
v -0.258722 0.553653 -0.459166
v -0.241821 0.551035 -0.468642
v -0.241821 0.545138 -0.474158
v -0.241821 0.461601 -0.335554
v -0.346321 0.454159 -0.217373
v -0.241821 0.462957 -0.337025
v -0.507632 0.519496 -0.217373
v -0.49501 0.530367 -0.223992
v -0.470816 0.541483 -0.257879
v -0.483573 0.542538 -0.224812
v -0.465918 0.548454 -0.254371
v -0.459163 0.553653 -0.258728
v -0.457252 0.551807 -0.265177
v -0.449044 0.554822 -0.272673
v -0.453565 0.547851 -0.276746
v -0.44603 0.552222 -0.280536
v -0.454723 0.537168 -0.290041
v -0.407223 0.539392 -0.348877
v -0.421002 0.527259 -0.347689
v -0.407061 0.548472 -0.336516
v -0.410398 0.551958 -0.327322
v -0.399526 0.552825 -0.340278
v -0.380311 0.555538 -0.359484
v -0.370595 0.555311 -0.370573
v -0.374094 0.551694 -0.374052
v -0.424285 0.553936 -0.306475
v -0.413439 0.554652 -0.319459
v -0.402567 0.555217 -0.332442
v -0.391668 0.555613 -0.345398
v -0.359481 0.555538 -0.380331
v -0.345406 0.555613 -0.391674
v -0.332434 0.555217 -0.402565
v -0.319462 0.554652 -0.413427
v -0.306491 0.553936 -0.424289
v -0.272662 0.554822 -0.449068
v -0.250863 0.555085 -0.461005
v -0.241821 0.551167 -0.468501
v -0.34667 0.454498 -0.217373
v -0.241821 0.469363 -0.34404
v -0.49065 0.538148 -0.217373
v -0.484972 0.544064 -0.218051
v -0.47959 0.549961 -0.218051
v -0.477033 0.547719 -0.229168
v -0.472135 0.554558 -0.225661
v -0.46102 0.555085 -0.250864
v -0.438172 0.555349 -0.285656
v -0.451359 0.555669 -0.265177
v -0.395274 0.556084 -0.336176
v -0.442047 0.555914 -0.276746
v -0.336175 0.556084 -0.395295
v -0.276753 0.555914 -0.442053
v -0.285634 0.555349 -0.438177
v -0.265181 0.555669 -0.451359
v -0.241821 0.556046 -0.462758
v -0.383513 0.489447 -0.217373
v -0.241821 0.480629 -0.356401
v -0.479724 0.550112 -0.217373
v -0.473696 0.555669 -0.218051
v -0.462796 0.556065 -0.241614
v -0.430798 0.556103 -0.289249
v -0.28924 0.556084 -0.430795
v -0.241821 0.556046 -0.462645
v -0.389165 0.494703 -0.217373
v -0.241821 0.485697 -0.362087
v -0.473884 0.555669 -0.217373
v -0.464896 0.55582 -0.217373
v -0.464734 0.55582 -0.217373
v -0.241821 0.555971 -0.458742
v -0.413924 0.517236 -0.217373
v -0.241821 0.485867 -0.362285
v -0.459325 0.554162 -0.217373
v -0.241821 0.555839 -0.453339
v -0.420221 0.522812 -0.217373
v -0.241821 0.49199 -0.369469
v -0.241821 0.492517 -0.370092
v -0.454346 0.5503 -0.217373
v -0.241821 0.548906 -0.442449
v -0.241821 0.555613 -0.452915
v -0.426761 0.528408 -0.217373
v -0.241821 0.499865 -0.379257
v -0.432951 0.533363 -0.217373
v -0.241821 0.54802 -0.441232
v -0.241821 0.521927 -0.407062
v -0.241821 0.528201 -0.41518
f 1 2 3
f 1 3 7
f 1 7 19
f 1 19 43
f 1 43 52
f 1 52 68
f 1 68 90
f 1 90 92
f 1 92 122
f 1 122 121
f 1 121 93
f 1 93 72
f 1 72 53
f 1 53 26
f 1 26 11
f 1 11 4
f 1 4 16
f 1 16 33
f 1 33 60
f 1 60 79
f 1 79 104
f 1 104 103
f 1 103 142
f 1 142 172
f 1 172 171
f 1 171 206
f 1 206 223
f 1 223 231
f 1 231 237
f 1 237 241
f 1 241 247
f 1 247 246
f 1 246 251
f 1 251 253
f 1 253 252
f 1 252 249
f 1 249 244
f 1 244 243
f 1 243 239
f 1 239 233
f 1 233 225
f 1 225 208
f 1 208 175
f 1 175 173
f 1 173 143
f 1 143 106
f 1 106 83
f 1 83 82
f 1 82 80
f 1 80 61
f 1 61 35
f 1 35 18
f 1 18 10
f 1 10 9
f 1 9 8
f 1 8 5
f 1 5 2
f 2 5 3
f 3 6 17
f 3 17 34
f 3 34 42
f 3 42 41
f 3 41 40
f 3 40 39
f 3 39 38
f 3 38 37
f 3 37 36
f 3 36 62
f 3 62 81
f 3 81 105
f 3 105 108
f 3 108 107
f 3 107 144
f 3 144 174
f 3 174 207
f 3 207 224
f 3 224 232
f 3 232 238
f 3 238 242
f 3 242 248
f 3 248 250
f 3 250 245
f 3 245 240
f 3 240 236
f 3 236 235
f 3 235 234
f 3 234 226
f 3 226 209
f 3 209 176
f 3 176 145
f 3 145 109
f 3 109 84
f 3 84 63
f 3 63 45
f 3 45 44
f 3 44 20
f 3 20 7
f 3 5 8
f 3 8 9
f 3 9 10
f 3 10 6
f 4 11 12
f 4 12 13
f 4 13 14
f 4 14 15
f 4 15 16
f 6 10 18
f 6 18 17
f 7 20 21
f 7 21 22
f 7 22 23
f 7 23 24
f 7 24 25
f 7 25 19
f 11 26 27
f 11 27 12
f 12 27 28
f 12 28 29
f 12 29 30
f 12 30 31
f 12 31 32
f 12 32 14
f 12 14 13
f 14 32 33
f 14 33 15
f 15 33 16
f 17 18 34
f 18 35 36
f 18 36 37
f 18 37 38
f 18 38 39
f 18 39 40
f 18 40 41
f 18 41 42
f 18 42 34
f 19 25 43
f 20 44 21
f 21 44 45
f 21 45 22
f 22 45 46
f 22 46 23
f 23 46 25
f 23 25 24
f 25 46 47
f 25 47 48
f 25 48 49
f 25 49 50
f 25 50 51
f 25 51 52
f 25 52 43
f 26 53 54
f 26 54 27
f 27 54 55
f 27 55 28
f 28 55 56
f 28 56 57
f 28 57 29
f 29 57 30
f 30 57 58
f 30 58 31
f 31 58 32
f 32 58 59
f 32 59 33
f 33 59 60
f 35 61 62
f 35 62 36
f 45 63 64
f 45 64 46
f 46 64 47
f 47 64 48
f 48 64 65
f 48 65 49
f 49 65 50
f 50 65 66
f 50 66 67
f 50 67 51
f 51 68 52
f 51 67 69
f 51 69 70
f 51 70 68
f 53 71 54
f 53 72 71
f 54 71 73
f 54 73 74
f 54 74 55
f 55 74 56
f 56 75 57
f 56 74 76
f 56 76 75
f 57 77 78
f 57 78 58
f 57 75 76
f 57 76 94
f 57 94 77
f 58 78 60
f 58 60 59
f 60 78 79
f 61 80 62
f 62 80 82
f 62 82 83
f 62 83 81
f 63 84 110
f 63 110 85
f 63 85 64
f 64 86 87
f 64 87 65
f 64 85 110
f 64 110 86
f 65 87 94
f 65 94 76
f 65 76 88
f 65 88 89
f 65 89 66
f 66 89 67
f 67 89 69
f 68 70 69
f 68 69 90
f 69 89 73
f 69 73 91
f 69 91 92
f 69 92 90
f 71 91 73
f 71 72 93
f 71 93 91
f 73 76 74
f 73 89 76
f 76 89 88
f 77 94 95
f 77 95 96
f 77 96 97
f 77 97 98
f 77 98 78
f 78 98 99
f 78 99 100
f 78 100 101
f 78 101 102
f 78 102 103
f 78 103 104
f 78 104 79
f 81 83 105
f 83 106 107
f 83 107 108
f 83 108 105
f 84 109 110
f 86 110 111
f 86 111 112
f 86 112 113
f 86 113 114
f 86 114 115
f 86 115 87
f 87 115 116
f 87 116 117
f 87 117 118
f 87 118 119
f 87 119 120
f 87 120 94
f 91 93 121
f 91 121 122
f 91 122 92
f 94 120 123
f 94 123 124
f 94 124 125
f 94 125 126
f 94 126 127
f 94 127 128
f 94 128 129
f 94 129 95
f 95 129 130
f 95 130 96
f 96 131 132
f 96 132 97
f 96 130 133
f 96 133 131
f 97 132 134
f 97 134 135
f 97 135 136
f 97 136 98
f 98 136 99
f 99 136 137
f 99 137 100
f 100 137 138
f 100 138 101
f 101 138 139
f 101 139 140
f 101 140 102
f 102 141 103
f 102 140 141
f 103 141 142
f 106 143 144
f 106 144 107
f 109 145 146
f 109 146 111
f 109 111 110
f 111 146 145
f 111 145 147
f 111 147 112
f 112 148 113
f 112 147 149
f 112 149 150
f 112 150 148
f 113 148 151
f 113 151 152
f 113 152 114
f 114 152 116
f 114 116 115
f 116 152 153
f 116 153 154
f 116 154 117
f 117 154 118
f 118 154 155
f 118 155 119
f 119 155 156
f 119 156 120
f 120 156 123
f 123 156 124
f 124 156 155
f 124 155 157
f 124 157 158
f 124 158 125
f 125 158 157
f 125 157 159
f 125 159 160
f 125 160 126
f 126 160 161
f 126 161 127
f 127 161 162
f 127 162 163
f 127 163 164
f 127 164 165
f 127 165 128
f 128 165 129
f 129 165 130
f 130 165 133
f 131 166 167
f 131 167 134
f 131 134 132
f 131 133 165
f 131 165 164
f 131 164 166
f 134 168 135
f 134 167 168
f 135 168 136
f 136 168 137
f 137 168 169
f 137 169 170
f 137 170 138
f 138 170 139
f 139 170 171
f 139 171 172
f 139 172 140
f 140 172 141
f 141 172 142
f 143 173 144
f 144 173 175
f 144 175 174
f 145 176 147
f 147 176 177
f 147 177 149
f 148 150 178
f 148 178 151
f 149 177 150
f 150 177 179
f 150 179 212
f 150 212 180
f 150 180 178
f 151 178 180
f 151 180 181
f 151 181 152
f 152 181 182
f 152 182 153
f 153 183 184
f 153 184 154
f 153 182 183
f 154 184 185
f 154 185 186
f 154 186 187
f 154 187 188
f 154 188 155
f 155 188 187
f 155 187 157
f 157 187 189
f 157 189 159
f 159 189 190
f 159 190 191
f 159 191 160
f 160 192 193
f 160 193 162
f 160 162 194
f 160 194 161
f 160 191 195
f 160 195 196
f 160 196 197
f 160 197 198
f 160 198 192
f 161 194 162
f 162 199 200
f 162 200 201
f 162 201 202
f 162 202 203
f 162 203 163
f 162 193 199
f 163 203 166
f 163 166 164
f 166 204 167
f 166 203 204
f 167 204 168
f 168 204 169
f 169 204 170
f 170 205 171
f 170 204 205
f 171 205 206
f 174 175 207
f 175 208 207
f 176 209 177
f 177 209 179
f 179 209 210
f 179 210 211
f 179 211 212
f 180 212 211
f 180 211 213
f 180 213 181
f 181 183 182
f 181 213 214
f 181 214 183
f 183 215 197
f 183 197 196
f 183 196 195
f 183 195 185
f 183 185 184
f 183 214 216
f 183 216 215
f 185 195 190
f 185 190 189
f 185 189 187
f 185 187 186
f 190 195 191
f 192 199 193
f 192 198 217
f 192 217 199
f 197 215 198
f 198 215 218
f 198 218 217
f 199 217 219
f 199 219 200
f 200 219 220
f 200 220 221
f 200 221 201
f 201 221 204
f 201 204 202
f 202 204 203
f 204 221 222
f 204 222 205
f 205 223 206
f 205 222 223
f 207 208 225
f 207 225 224
f 209 226 211
f 209 211 210
f 211 226 213
f 213 226 227
f 213 227 214
f 214 227 228
f 214 228 216
f 215 216 218
f 216 228 218
f 217 218 229
f 217 229 219
f 218 228 229
f 219 230 220
f 219 229 230
f 220 222 221
f 220 230 223
f 220 223 222
f 223 230 231
f 224 225 233
f 224 233 232
f 226 234 227
f 227 234 228
f 228 234 235
f 228 235 236
f 228 236 231
f 228 231 229
f 229 231 230
f 231 236 237
f 232 233 238
f 233 239 238
f 236 240 241
f 236 241 237
f 238 239 243
f 238 243 244
f 238 244 242
f 240 245 246
f 240 246 247
f 240 247 241
f 242 244 249
f 242 249 248
f 245 250 251
f 245 251 246
f 248 249 252
f 248 252 253
f 248 253 251
f 248 251 250
