v -0.261283 -0.245143 0.477375
v -0.261283 -0.241645 0.476002
v -0.263873 -0.245143 0.476333
v -0.261283 -0.245143 0.377222
v -0.261283 -0.237051 0.474197
v -0.265134 -0.245143 0.475799
v -0.261765 -0.23311 0.472443
v -0.265501 -0.241319 0.474146
v -0.40571 -0.245143 0.217715
v -0.261283 -0.0549572 0.217791
v -0.261283 -0.232132 0.47224
v -0.272583 -0.245083 0.472367
v -0.272606 -0.245143 0.472367
v -0.269627 -0.237229 0.470715
v -0.261283 -0.227093 0.470156
v -0.262498 -0.0559945 0.217715
v -0.495447 -0.245143 0.217715
v -0.261283 -0.0454139 0.217715
v -0.278107 -0.245143 0.468452
v -0.273065 -0.220869 0.461106
v -0.265501 -0.229435 0.469215
v -0.265913 -0.217372 0.463572
v -0.270337 -0.213015 0.459149
v -0.261283 -0.208184 0.46164
v -0.262475 -0.208658 0.46131
v -0.475804 -0.245143 0.265148
v -0.489029 -0.241586 0.22984
v -0.493385 -0.240904 0.218655
v -0.489236 -0.22979 0.218045
v -0.493545 -0.240341 0.217715
v -0.261283 0.0576365 0.217715
v -0.286061 -0.245143 0.462453
v -0.276984 -0.230561 0.462657
v -0.285259 -0.241586 0.461462
v -0.276984 -0.217372 0.456353
v -0.319847 -0.221403 0.425519
v -0.306874 -0.22324 0.436373
v -0.2939 -0.225167 0.447253
v -0.280904 -0.227152 0.458132
v -0.261283 -0.183437 0.449185
v -0.261283 -0.178813 0.446719
v -0.265592 -0.181718 0.445168
v -0.272675 -0.198167 0.449083
v -0.276755 -0.206939 0.450938
v -0.283448 -0.211326 0.448295
v -0.261283 -0.206169 0.4607
v -0.472412 -0.245143 0.272545
v -0.470715 -0.237229 0.269621
v -0.474154 -0.241319 0.265504
v -0.481993 -0.226945 0.232814
v -0.48362 -0.222914 0.224959
v -0.484835 -0.218795 0.217715
v -0.489488 -0.230116 0.217715
v -0.310472 0.0178627 0.217715
v -0.261283 0.0573105 0.21835
v -0.288995 -0.245143 0.460217
v -0.283288 -0.235006 0.459937
v -0.319366 -0.245143 0.436932
v -0.30896 -0.245143 0.444914
v -0.300272 -0.245143 0.451574
v -0.288583 -0.230087 0.453607
v -0.314759 -0.22979 0.433399
v -0.304284 -0.215386 0.434416
v -0.312077 -0.218409 0.429967
v -0.317257 -0.213549 0.423536
v -0.36663 -0.221966 0.389881
v -0.353656 -0.223803 0.40076
v -0.364062 -0.214082 0.387898
v -0.340683 -0.225759 0.41164
v -0.261283 -0.163253 0.437542
v -0.265111 -0.171315 0.439525
v -0.271987 -0.175553 0.436754
v -0.308707 -0.185482 0.414233
v -0.340316 -0.202346 0.399566
v -0.330231 -0.2118 0.412657
v -0.3562 -0.208599 0.390923
v -0.468446 -0.245143 0.278112
v -0.467759 -0.241319 0.276688
v -0.461111 -0.220869 0.273053
v -0.459163 -0.213015 0.270333
v -0.463564 -0.217372 0.26591
v -0.461318 -0.208658 0.262479
v -0.469203 -0.229435 0.265504
v -0.470876 -0.225256 0.258005
v -0.472503 -0.221373 0.25015
v -0.469386 -0.217668 0.253811
v -0.470807 -0.213489 0.246032
v -0.481924 -0.21506 0.220842
v -0.484583 -0.218231 0.217715
v -0.311527 0.0170032 0.217715
v -0.308685 0.0136541 0.226866
v -0.303825 0.0215081 0.220536
v -0.261283 0.0333039 0.256175
v -0.276067 0.0169735 0.264004
v -0.271208 0.0236717 0.259479
v -0.34623 -0.245143 0.416317
v -0.33007 -0.235599 0.424324
v -0.361358 -0.22979 0.397634
v -0.363879 -0.238178 0.399566
v -0.37181 -0.217165 0.38345
v -0.374927 -0.22979 0.387212
v -0.37699 -0.212334 0.376968
v -0.369036 -0.22979 0.391737
v -0.261283 -0.16275 0.437237
v -0.268985 -0.167699 0.434441
v -0.281981 -0.166128 0.423587
v -0.31877 -0.176027 0.401116
v -0.305796 -0.177628 0.411996
v -0.34827 -0.169744 0.374807
v -0.342516 -0.187586 0.389474
v -0.359868 -0.20528 0.386221
v -0.363352 -0.191261 0.37557
v -0.368853 -0.206228 0.37984
v -0.464412 -0.245143 0.283526
v -0.462647 -0.230561 0.276993
v -0.458132 -0.227152 0.280908
v -0.447267 -0.225167 0.293897
v -0.456367 -0.217372 0.276993
v -0.448298 -0.211326 0.28345
v -0.450934 -0.206939 0.276764
v -0.449078 -0.198167 0.272697
v -0.445158 -0.181718 0.26558
v -0.447611 -0.177154 0.258844
v -0.459392 -0.200804 0.258742
v -0.463472 -0.205339 0.254268
v -0.472434 -0.210051 0.238178
v -0.479815 -0.207829 0.217715
v -0.312237 0.0164104 0.217715
v -0.316524 0.0102458 0.221757
v -0.294794 0.0119055 0.24771
v -0.28393 0.0126761 0.260674
v -0.261283 0.029777 0.261284
v -0.273042 0.013417 0.273053
v -0.280904 0.00997902 0.268528
v -0.365965 -0.245143 0.401167
v -0.376853 -0.236192 0.388686
v -0.372452 -0.245143 0.396185
v -0.365484 -0.176561 0.365478
v -0.375592 -0.191261 0.363318
v -0.377838 -0.199145 0.366215
v -0.379832 -0.206228 0.368834
v -0.390926 -0.208599 0.356175
v -0.412656 -0.2118 0.330247
v -0.387901 -0.214082 0.364029
v -0.383454 -0.217165 0.371782
v -0.387213 -0.22979 0.374909
v -0.38868 -0.236192 0.376841
v -0.390491 -0.244046 0.379179
v -0.390674 -0.245143 0.379586
v -0.379007 -0.220217 0.379001
v -0.380451 -0.245143 0.389932
v -0.277626 -0.158215 0.42163
v -0.294955 -0.164646 0.412708
v -0.261283 -0.142833 0.423638
v -0.341737 -0.165061 0.37707
v -0.328764 -0.166603 0.387949
v -0.344717 -0.172915 0.379383
v -0.352579 -0.178132 0.376358
v -0.339605 -0.179732 0.387237
v -0.358951 -0.171908 0.367842
v -0.359432 -0.182281 0.37346
v -0.459209 -0.245143 0.290338
v -0.459942 -0.235006 0.283272
v -0.422512 -0.227745 0.327705
v -0.400759 -0.223803 0.353633
v -0.436379 -0.22324 0.306861
v -0.449078 -0.233021 0.296261
v -0.437915 -0.22979 0.308869
v -0.425514 -0.221403 0.31985
v -0.423543 -0.213549 0.317258
v -0.426019 -0.206228 0.308717
v -0.399568 -0.202346 0.340313
v -0.401126 -0.176027 0.318783
v -0.436746 -0.175553 0.271985
v -0.439542 -0.171315 0.265122
v -0.445914 -0.170248 0.254319
v -0.447359 -0.165891 0.246363
v -0.44933 -0.173745 0.250989
v -0.437457 -0.162898 0.261131
v -0.437204 -0.15125 0.24954
v -0.457879 -0.193899 0.254268
v -0.459117 -0.189601 0.246261
v -0.468996 -0.206169 0.241914
v -0.479403 -0.206969 0.217715
v -0.473328 -0.194492 0.217715
v -0.323767 0.00645214 0.217715
v -0.324133 0.00588902 0.218071
v -0.299378 0.00482206 0.251879
v -0.291792 0.00914917 0.255564
v -0.261283 0.0231085 0.270308
v -0.268526 0.00997902 0.280908
v -0.264011 0.0169735 0.276053
v -0.261283 0.0209746 0.27318
v -0.281981 -0.00063128 0.281975
v -0.294382 -0.0120418 0.282509
v -0.37958 -0.245143 0.390669
v -0.379168 -0.244046 0.390491
v -0.366217 -0.163698 0.354675
v -0.367844 -0.171908 0.358945
v -0.376394 -0.178132 0.352565
v -0.373483 -0.182281 0.359428
v -0.354688 -0.163698 0.36619
v -0.352808 -0.14227 0.352794
v -0.386227 -0.20528 0.359835
v -0.389895 -0.221966 0.366597
v -0.421182 -0.241586 0.337771
v -0.395029 -0.241112 0.371528
v -0.397665 -0.245143 0.370511
v -0.385402 -0.245143 0.385407
v -0.351227 -0.155844 0.363521
v -0.276984 -0.135513 0.406607
v -0.315538 -0.132638 0.375061
v -0.341485 -0.12997 0.353328
v -0.343364 -0.151428 0.366546
v -0.320902 -0.161979 0.390974
v -0.261283 -0.128666 0.413953
v -0.268733 -0.132252 0.410699
v -0.428288 -0.245143 0.330628
v -0.441536 -0.242505 0.311792
v -0.379374 -0.172915 0.344736
v -0.38366 -0.169744 0.336754
v -0.377105 -0.165061 0.341736
v -0.423589 -0.166128 0.281975
v -0.434454 -0.167699 0.268986
v -0.445204 -0.159075 0.242118
v -0.448986 -0.163016 0.238508
v -0.458475 -0.167225 0.221172
v -0.451301 -0.170248 0.242118
v -0.434843 -0.143367 0.244736
v -0.458819 -0.178428 0.23378
v -0.457375 -0.182488 0.242041
v -0.412701 -0.164646 0.294939
v -0.426592 -0.161564 0.274121
v -0.430695 -0.158304 0.265885
v -0.424254 -0.14144 0.259276
v -0.424552 -0.12917 0.247913
v -0.470234 -0.190994 0.22107
v -0.462441 -0.182488 0.22984
v -0.46785 -0.183289 0.217715
v -0.324821 0.00550373 0.217715
v -0.338024 -0.00652919 0.217715
v -0.340866 -0.0126346 0.222748
v -0.320856 0.00239176 0.227349
v -0.342173 -0.0232449 0.23622
v -0.264859 0.00565192 0.288508
v -0.261283 0.0124686 0.283678
v -0.274119 0.00212503 0.285229
v -0.282508 -0.0120418 0.29438
v -0.261283 0.0134763 0.282458
v -0.295665 -0.0226817 0.295651
v -0.30653 -0.023482 0.282992
v -0.299974 -0.0207849 0.287669
v -0.363558 -0.155844 0.351193
v -0.342746 -0.116633 0.342753
v -0.353335 -0.12997 0.341482
v -0.356017 -0.137824 0.344965
v -0.281729 -0.130919 0.39982
v -0.320649 -0.126888 0.367207
v -0.330116 -0.11773 0.353633
v -0.338689 -0.123746 0.351142
v -0.261283 -0.128073 0.413546
v -0.265615 -0.123243 0.406912
v -0.277466 -0.123035 0.397685
v -0.366561 -0.151428 0.343363
v -0.370664 -0.148168 0.335127
v -0.455702 -0.159756 0.217715
v -0.438694 -0.147308 0.241126
v -0.424048 -0.118204 0.235203
v -0.43654 -0.14061 0.236856
v -0.434523 -0.132223 0.22984
v -0.439359 -0.131897 0.217715
v -0.461707 -0.17087 0.217715
v -0.461845 -0.171137 0.217715
v -0.460447 -0.175109 0.225925
v -0.364223 -0.131304 0.328518
v -0.41371 -0.127836 0.260877
v -0.410982 -0.119982 0.257344
v -0.413985 -0.115922 0.249489
v -0.413481 -0.10463 0.237364
v -0.422283 -0.120723 0.241609
v -0.351204 -0.0185621 0.217715
v -0.353037 -0.0241044 0.223231
v -0.317418 -0.0243711 0.270028
v -0.261283 0.00698562 0.289754
v -0.261283 -0.0136422 0.312402
v -0.261283 -0.00961151 0.307979
v -0.261283 0.00108771 0.296236
v -0.287666 -0.0207849 0.299972
v -0.28299 -0.023482 0.30653
v -0.276984 -0.0213777 0.308844
v -0.290852 -0.0264754 0.303506
v -0.303504 -0.0264754 0.290847
v -0.307424 -0.0343294 0.295931
v -0.308111 -0.0453842 0.308107
v -0.295917 -0.0343294 0.30742
v -0.36012 -0.134564 0.336754
v -0.339468 -0.0971613 0.326968
v -0.342631 -0.105015 0.331086
v -0.346619 -0.113255 0.334543
v -0.353656 -0.11773 0.33012
v -0.351181 -0.123746 0.338686
v -0.33454 -0.113255 0.346617
v -0.331102 -0.105015 0.342626
v -0.320076 -0.080742 0.331442
v -0.331606 -0.0923304 0.331594
v -0.331445 -0.080742 0.320079
v -0.270337 -0.118649 0.400125
v -0.283311 -0.117404 0.389245
v -0.275953 -0.112869 0.391254
v -0.279208 -0.10955 0.386093
v -0.305155 -0.107268 0.36436
v -0.261283 -0.121553 0.409022
v -0.4152 -0.10214 0.22984
v -0.421595 -0.111891 0.230704
v -0.425652 -0.115803 0.227349
v -0.434018 -0.122917 0.217715
v -0.433858 -0.12345 0.218935
v -0.435164 -0.124813 0.217715
v -0.361862 -0.123272 0.3244
v -0.397688 -0.123035 0.277476
v -0.400118 -0.118649 0.270333
v -0.389253 -0.117404 0.283323
v -0.375248 -0.108394 0.292169
v -0.403006 -0.103207 0.250506
v -0.395831 -0.0871438 0.242931
v -0.39182 -0.0789341 0.239499
v -0.402731 -0.0916487 0.238508
v -0.410868 -0.108068 0.245219
v -0.399659 -0.0837947 0.233983
v -0.401791 -0.0809199 0.226129
v -0.358676 -0.0256159 0.217715
v -0.360418 -0.0284907 0.219291
v -0.350516 -0.0266532 0.22984
v -0.339147 -0.026179 0.244075
v -0.328282 -0.0252602 0.257039
v -0.262154 -0.0215851 0.320435
v -0.261283 -0.0212591 0.32074
v -0.270016 -0.0243711 0.31741
v -0.276984 -0.0329364 0.320587
v -0.262131 -0.0331142 0.332179
v -0.343067 -0.0340626 0.249159
v -0.318289 -0.0352778 0.282967
v -0.315286 -0.0384787 0.290821
v -0.318999 -0.0463327 0.295651
v -0.319687 -0.0573875 0.308335
v -0.320604 -0.0329364 0.276968
v -0.332179 -0.0331142 0.262123
v -0.320351 -0.068472 0.320359
v -0.308318 -0.0573875 0.319698
v -0.303504 -0.0495335 0.315987
v -0.282967 -0.0352778 0.3183
v -0.353358 -0.0945532 0.306149
v -0.353519 -0.106142 0.318122
v -0.364383 -0.107268 0.305158
v -0.293167 -0.0956795 0.364207
v -0.323469 -0.100718 0.345016
v -0.326976 -0.0971613 0.339449
v -0.307126 -0.0818683 0.342321
v -0.315882 -0.0728584 0.328213
v -0.327938 -0.0844764 0.327934
v -0.328214 -0.0728584 0.315885
v -0.335273 -0.0773633 0.311513
v -0.3562 -0.0792602 0.286297
v -0.353198 -0.0829945 0.294151
v -0.262475 -0.114796 0.403124
v -0.261283 -0.114322 0.403658
v -0.265913 -0.111299 0.397685
v -0.271346 -0.105816 0.389118
v -0.27577 -0.101311 0.382103
v -0.419142 -0.100599 0.217715
v -0.399407 -0.0725028 0.218045
v -0.403579 -0.0784007 0.218045
v -0.42297 -0.107949 0.220765
v -0.428792 -0.114796 0.217715
v -0.426615 -0.111447 0.217715
v -0.427027 -0.112069 0.217715
v -0.375088 -0.0968057 0.280196
v -0.377953 -0.0815126 0.260343
v -0.388611 -0.0710802 0.235305
v -0.391155 -0.0679386 0.227451
v -0.363237 -0.0302097 0.217715
v -0.364796 -0.0359594 0.223206
v -0.356361 -0.0325511 0.22984
v -0.261283 -0.0269199 0.326637
v -0.261283 -0.0328178 0.332509
v -0.261283 -0.0318398 0.331543
v -0.269993 -0.0362558 0.329179
v -0.261283 -0.0388936 0.33833
v -0.332889 -0.0441098 0.274832
v -0.341439 -0.059314 0.282382
v -0.334815 -0.0659528 0.299159
v -0.32395 -0.0650044 0.312097
v -0.3121 -0.0650044 0.323943
v -0.303229 -0.0615664 0.327552
v -0.299447 -0.0539495 0.323282
v -0.27483 -0.0441098 0.33289
v -0.367088 -0.0803864 0.273307
v -0.311573 -0.0890703 0.344736
v -0.273317 -0.0803864 0.367054
v -0.282096 -0.0714062 0.352972
v -0.295069 -0.0703688 0.342118
v -0.308043 -0.0694204 0.331213
v -0.331216 -0.0694204 0.30803
v -0.342104 -0.0703688 0.295066
v -0.352991 -0.0714062 0.282102
v -0.261283 -0.106764 0.397583
v -0.261283 -0.0971021 0.389805
v -0.40367 -0.0783414 0.217715
v -0.387855 -0.0600846 0.221731
v -0.393035 -0.0643227 0.217893
v -0.399476 -0.0724139 0.217715
v -0.355994 -0.068146 0.274248
v -0.348728 -0.06373 0.278315
v -0.377059 -0.0590472 0.23561
v -0.374354 -0.0523787 0.230933
v -0.380016 -0.0558464 0.227756
v -0.376371 -0.0479924 0.222697
v -0.370389 -0.0379155 0.217715
v -0.367822 -0.0445544 0.22984
v -0.358905 -0.0536532 0.252667
v -0.351616 -0.0492371 0.256734
v -0.261283 -0.0441987 0.343338
v -0.299149 -0.0659528 0.334822
v -0.282394 -0.059314 0.341431
v -0.26942 -0.060292 0.352286
v -0.261558 -0.0570911 0.355285
v -0.261283 -0.0838244 0.379052
v -0.261283 -0.0805346 0.376383
v -0.261283 -0.075674 0.372392
v -0.269099 -0.0725324 0.363826
v -0.261283 -0.0690648 0.366749
v -0.274257 -0.068146 0.355971
v -0.382468 -0.051786 0.217715
v -0.392875 -0.064056 0.217715
v -0.261283 -0.0631372 0.361182
v -0.261283 -0.069213 0.366876
f 1 2 3
f 1 3 6
f 1 6 13
f 1 13 19
f 1 19 32
f 1 32 56
f 1 56 60
f 1 60 59
f 1 59 58
f 1 58 96
f 1 96 135
f 1 135 137
f 1 137 196
f 1 196 151
f 1 151 209
f 1 209 149
f 1 149 208
f 1 208 218
f 1 218 162
f 1 162 114
f 1 114 77
f 1 77 47
f 1 47 26
f 1 26 17
f 1 17 9
f 1 9 4
f 1 4 10
f 1 10 18
f 1 18 31
f 1 31 55
f 1 55 93
f 1 93 132
f 1 132 190
f 1 190 193
f 1 193 249
f 1 249 246
f 1 246 284
f 1 284 287
f 1 287 286
f 1 286 285
f 1 285 337
f 1 337 384
f 1 384 386
f 1 386 385
f 1 385 388
f 1 388 422
f 1 422 435
f 1 435 431
f 1 431 436
f 1 436 429
f 1 429 428
f 1 428 427
f 1 427 407
f 1 407 406
f 1 406 366
f 1 366 312
f 1 312 261
f 1 261 216
f 1 216 154
f 1 154 104
f 1 104 70
f 1 70 41
f 1 41 40
f 1 40 46
f 1 46 24
f 1 24 15
f 1 15 11
f 1 11 5
f 1 5 2
f 2 5 3
f 3 5 7
f 3 7 8
f 3 8 6
f 4 9 10
f 5 11 7
f 6 12 13
f 6 8 14
f 6 14 12
f 7 14 8
f 7 11 15
f 7 15 14
f 9 16 10
f 9 17 30
f 9 30 53
f 9 53 52
f 9 52 89
f 9 89 127
f 9 127 184
f 9 184 185
f 9 185 239
f 9 239 273
f 9 273 272
f 9 272 266
f 9 266 271
f 9 271 318
f 9 318 316
f 9 316 374
f 9 374 376
f 9 376 375
f 9 375 370
f 9 370 408
f 9 408 411
f 9 411 434
f 9 434 433
f 9 433 418
f 9 418 381
f 9 381 331
f 9 331 281
f 9 281 241
f 9 241 240
f 9 240 186
f 9 186 128
f 9 128 90
f 9 90 54
f 9 54 31
f 9 31 18
f 9 18 16
f 10 16 18
f 12 19 13
f 12 14 20
f 12 20 19
f 14 15 21
f 14 21 22
f 14 22 23
f 14 23 20
f 15 24 25
f 15 25 21
f 17 26 27
f 17 27 28
f 17 28 29
f 17 29 30
f 19 20 33
f 19 33 34
f 19 34 32
f 20 35 36
f 20 36 37
f 20 37 38
f 20 38 39
f 20 39 33
f 20 23 35
f 21 25 22
f 22 25 23
f 23 25 40
f 23 40 41
f 23 41 42
f 23 42 43
f 23 43 44
f 23 44 45
f 23 45 35
f 24 46 25
f 25 46 40
f 26 47 48
f 26 48 49
f 26 49 27
f 27 49 50
f 27 50 29
f 27 29 28
f 29 50 51
f 29 51 52
f 29 52 53
f 29 53 30
f 31 54 55
f 32 34 56
f 33 39 57
f 33 57 34
f 34 58 59
f 34 59 60
f 34 60 56
f 34 57 61
f 34 61 62
f 34 62 58
f 35 63 64
f 35 64 36
f 35 45 65
f 35 65 63
f 36 66 67
f 36 67 37
f 36 64 68
f 36 68 66
f 37 67 38
f 38 67 69
f 38 69 62
f 38 62 61
f 38 61 39
f 39 61 57
f 41 70 71
f 41 71 42
f 42 71 72
f 42 72 73
f 42 73 43
f 43 73 44
f 44 74 45
f 44 73 74
f 45 75 65
f 45 74 76
f 45 76 75
f 47 77 78
f 47 78 79
f 47 79 48
f 48 79 80
f 48 80 81
f 48 81 82
f 48 82 83
f 48 83 84
f 48 84 49
f 49 84 50
f 50 84 51
f 51 84 85
f 51 85 86
f 51 86 87
f 51 87 88
f 51 88 52
f 52 88 89
f 54 90 91
f 54 91 92
f 54 92 55
f 55 92 91
f 55 91 94
f 55 94 95
f 55 95 93
f 58 62 97
f 58 97 96
f 62 69 98
f 62 98 99
f 62 99 97
f 63 65 64
f 64 65 68
f 65 75 68
f 66 68 100
f 66 100 101
f 66 101 67
f 67 101 69
f 68 75 76
f 68 76 102
f 68 102 100
f 69 101 103
f 69 103 98
f 70 104 105
f 70 105 71
f 71 105 106
f 71 106 72
f 72 107 108
f 72 108 73
f 72 106 109
f 72 109 107
f 73 110 74
f 73 108 159
f 73 159 110
f 74 111 76
f 74 110 112
f 74 112 111
f 76 113 102
f 76 111 113
f 77 114 115
f 77 115 78
f 78 115 79
f 79 115 116
f 79 116 117
f 79 117 118
f 79 118 80
f 80 119 120
f 80 120 121
f 80 121 122
f 80 122 123
f 80 123 82
f 80 82 81
f 80 118 119
f 82 123 124
f 82 124 86
f 82 86 84
f 82 84 83
f 84 86 85
f 86 124 125
f 86 125 87
f 87 125 126
f 87 126 88
f 88 126 127
f 88 127 89
f 90 128 91
f 91 128 129
f 91 129 130
f 91 130 131
f 91 131 94
f 93 95 133
f 93 133 132
f 94 131 134
f 94 134 133
f 94 133 95
f 96 97 99
f 96 99 135
f 98 103 136
f 98 136 99
f 99 136 137
f 99 137 135
f 100 102 101
f 101 136 103
f 101 102 136
f 102 113 138
f 102 138 139
f 102 139 140
f 102 140 141
f 102 141 142
f 102 142 143
f 102 143 144
f 102 144 145
f 102 145 146
f 102 146 147
f 102 147 148
f 102 148 149
f 102 149 150
f 102 150 151
f 102 151 136
f 104 152 153
f 104 153 106
f 104 106 105
f 104 154 152
f 106 153 155
f 106 155 156
f 106 156 109
f 107 109 157
f 107 157 158
f 107 158 159
f 107 159 108
f 109 156 155
f 109 155 160
f 109 160 157
f 110 159 112
f 111 112 113
f 112 159 161
f 112 161 138
f 112 138 113
f 114 162 163
f 114 163 116
f 114 116 115
f 116 163 162
f 116 162 117
f 117 164 165
f 117 165 166
f 117 166 118
f 117 162 167
f 117 167 168
f 117 168 164
f 118 166 169
f 118 169 170
f 118 170 119
f 119 170 143
f 119 143 171
f 119 171 121
f 119 121 120
f 121 171 172
f 121 172 173
f 121 173 174
f 121 174 122
f 122 174 175
f 122 175 123
f 123 176 177
f 123 177 178
f 123 178 124
f 123 175 179
f 123 179 180
f 123 180 176
f 124 181 182
f 124 182 125
f 124 178 181
f 125 182 183
f 125 183 126
f 126 184 127
f 126 183 185
f 126 185 184
f 128 186 129
f 129 186 187
f 129 187 188
f 129 188 130
f 130 189 134
f 130 134 131
f 130 188 189
f 132 133 190
f 133 191 192
f 133 192 193
f 133 193 190
f 133 134 194
f 133 194 191
f 134 189 195
f 134 195 194
f 136 151 196
f 136 196 197
f 136 197 137
f 137 197 196
f 138 198 199
f 138 199 200
f 138 200 201
f 138 201 139
f 138 161 160
f 138 160 202
f 138 202 203
f 138 203 198
f 139 142 204
f 139 204 140
f 139 201 142
f 140 204 141
f 141 204 142
f 142 201 172
f 142 172 143
f 143 172 171
f 143 170 144
f 144 170 169
f 144 169 205
f 144 205 145
f 145 205 146
f 146 205 165
f 146 165 164
f 146 164 206
f 146 206 147
f 147 206 207
f 147 207 208
f 147 208 148
f 148 208 149
f 149 209 150
f 150 209 151
f 152 210 153
f 152 154 211
f 152 211 212
f 152 212 213
f 152 213 214
f 152 214 210
f 153 215 155
f 153 210 215
f 154 216 217
f 154 217 211
f 155 215 210
f 155 210 202
f 155 202 160
f 157 160 158
f 158 161 159
f 158 160 161
f 162 218 206
f 162 206 219
f 162 219 167
f 164 168 206
f 165 205 169
f 165 169 166
f 167 219 206
f 167 206 168
f 172 201 200
f 172 200 173
f 173 200 220
f 173 220 221
f 173 221 222
f 173 222 223
f 173 223 175
f 173 175 174
f 175 223 224
f 175 224 179
f 176 180 177
f 177 225 226
f 177 226 227
f 177 227 228
f 177 228 178
f 177 180 229
f 177 229 225
f 178 228 230
f 178 230 231
f 178 231 182
f 178 182 181
f 179 224 223
f 179 223 232
f 179 232 222
f 179 222 233
f 179 233 234
f 179 234 235
f 179 235 236
f 179 236 180
f 180 236 229
f 182 237 183
f 182 231 230
f 182 230 238
f 182 238 237
f 183 237 185
f 185 237 239
f 186 240 187
f 187 240 241
f 187 241 242
f 187 242 243
f 187 243 188
f 188 243 244
f 188 244 195
f 188 195 189
f 191 245 246
f 191 246 192
f 191 194 247
f 191 247 248
f 191 248 245
f 192 249 193
f 192 246 249
f 194 195 250
f 194 250 248
f 194 248 247
f 195 244 251
f 195 251 252
f 195 252 250
f 198 253 222
f 198 222 199
f 198 203 253
f 199 222 200
f 200 222 220
f 202 210 203
f 203 213 254
f 203 254 255
f 203 255 256
f 203 256 253
f 203 210 213
f 206 218 208
f 206 208 207
f 210 214 213
f 211 217 257
f 211 257 258
f 211 258 212
f 212 258 213
f 213 258 259
f 213 259 260
f 213 260 254
f 216 261 262
f 216 262 263
f 216 263 257
f 216 257 217
f 220 222 221
f 222 253 264
f 222 264 265
f 222 265 234
f 222 234 233
f 222 232 223
f 225 266 226
f 225 229 267
f 225 267 268
f 225 268 269
f 225 269 270
f 225 270 271
f 225 271 266
f 226 266 227
f 227 266 272
f 227 272 273
f 227 273 274
f 227 274 228
f 228 274 230
f 229 236 268
f 229 268 267
f 230 274 238
f 234 265 275
f 234 275 235
f 235 275 276
f 235 276 236
f 236 276 277
f 236 277 278
f 236 278 279
f 236 279 280
f 236 280 268
f 237 238 239
f 238 274 239
f 239 274 273
f 241 281 242
f 242 281 244
f 242 244 243
f 244 281 282
f 244 282 283
f 244 283 251
f 245 284 246
f 245 248 285
f 245 285 286
f 245 286 287
f 245 287 284
f 248 250 288
f 248 288 289
f 248 289 290
f 248 290 285
f 250 291 288
f 250 252 292
f 250 292 293
f 250 293 294
f 250 294 295
f 250 295 291
f 251 283 292
f 251 292 252
f 253 256 255
f 253 255 296
f 253 296 264
f 254 297 298
f 254 298 299
f 254 299 300
f 254 300 301
f 254 301 255
f 254 260 259
f 254 259 302
f 254 302 303
f 254 303 304
f 254 304 305
f 254 305 306
f 254 306 297
f 255 301 300
f 255 300 275
f 255 275 296
f 257 263 258
f 258 263 259
f 259 307 308
f 259 308 309
f 259 309 310
f 259 310 311
f 259 311 303
f 259 303 302
f 259 263 307
f 261 312 262
f 262 312 307
f 262 307 263
f 264 296 275
f 264 275 265
f 268 280 279
f 268 279 313
f 268 313 314
f 268 314 315
f 268 315 316
f 268 316 317
f 268 317 271
f 268 271 270
f 268 270 269
f 271 317 318
f 275 319 320
f 275 320 276
f 275 300 319
f 276 320 277
f 277 321 278
f 277 320 321
f 278 321 322
f 278 322 323
f 278 323 324
f 278 324 325
f 278 325 326
f 278 326 327
f 278 327 328
f 278 328 279
f 279 328 327
f 279 327 329
f 279 329 330
f 279 330 313
f 281 331 282
f 282 331 332
f 282 332 333
f 282 333 334
f 282 334 335
f 282 335 283
f 283 335 293
f 283 293 292
f 285 290 336
f 285 336 337
f 288 291 289
f 289 338 336
f 289 336 290
f 289 291 338
f 291 339 340
f 291 340 338
f 291 295 339
f 293 341 342
f 293 342 343
f 293 343 344
f 293 344 345
f 293 345 294
f 293 335 346
f 293 346 347
f 293 347 341
f 294 345 348
f 294 348 349
f 294 349 295
f 295 349 350
f 295 350 351
f 295 351 340
f 295 340 339
f 297 352 353
f 297 353 300
f 297 300 299
f 297 299 298
f 297 306 352
f 300 353 354
f 300 354 323
f 300 323 322
f 300 322 321
f 300 321 320
f 300 320 319
f 303 311 355
f 303 355 356
f 303 356 357
f 303 357 304
f 304 358 359
f 304 359 305
f 304 357 358
f 305 359 360
f 305 360 361
f 305 361 306
f 306 361 362
f 306 362 363
f 306 363 364
f 306 364 352
f 307 312 365
f 307 365 308
f 308 365 366
f 308 366 309
f 309 366 367
f 309 367 368
f 309 368 310
f 310 368 369
f 310 369 311
f 311 369 355
f 312 366 365
f 313 370 314
f 313 330 371
f 313 371 372
f 313 372 370
f 314 373 315
f 314 370 373
f 315 374 316
f 315 373 375
f 315 375 376
f 315 376 374
f 316 318 317
f 323 354 324
f 324 377 378
f 324 378 325
f 324 354 377
f 325 378 326
f 326 378 379
f 326 379 327
f 327 379 329
f 329 379 380
f 329 380 330
f 330 380 371
f 331 381 332
f 332 334 333
f 332 381 382
f 332 382 383
f 332 383 341
f 332 341 334
f 334 347 335
f 334 341 347
f 335 347 346
f 336 338 384
f 336 384 337
f 338 340 384
f 340 385 386
f 340 386 384
f 340 351 387
f 340 387 388
f 340 388 385
f 341 382 342
f 341 383 382
f 342 382 389
f 342 389 343
f 343 389 344
f 344 389 390
f 344 390 345
f 345 390 391
f 345 391 392
f 345 392 348
f 348 359 393
f 348 393 349
f 348 392 361
f 348 361 360
f 348 360 359
f 349 394 395
f 349 395 350
f 349 393 394
f 350 395 351
f 351 395 396
f 351 396 387
f 352 377 354
f 352 354 353
f 352 364 397
f 352 397 378
f 352 378 377
f 355 398 356
f 355 369 399
f 355 399 358
f 355 358 398
f 356 398 357
f 357 398 358
f 358 399 400
f 358 400 359
f 359 400 401
f 359 401 402
f 359 402 393
f 361 392 403
f 361 403 404
f 361 404 405
f 361 405 362
f 362 405 363
f 363 397 364
f 363 405 397
f 366 406 367
f 367 406 368
f 368 406 407
f 368 407 369
f 369 407 399
f 370 375 373
f 370 372 408
f 371 380 409
f 371 409 410
f 371 410 411
f 371 411 408
f 371 408 372
f 378 397 405
f 378 405 379
f 379 405 404
f 379 404 412
f 379 412 413
f 379 413 414
f 379 414 415
f 379 415 382
f 379 382 416
f 379 416 380
f 380 416 417
f 380 417 409
f 381 418 417
f 381 417 382
f 382 417 416
f 382 415 419
f 382 419 420
f 382 420 421
f 382 421 389
f 387 396 422
f 387 422 388
f 389 421 420
f 389 420 413
f 389 413 390
f 390 413 391
f 391 413 404
f 391 404 392
f 392 404 403
f 393 402 401
f 393 401 423
f 393 423 394
f 394 423 395
f 395 423 401
f 395 401 424
f 395 424 396
f 396 424 425
f 396 425 426
f 396 426 422
f 399 407 427
f 399 427 428
f 399 428 400
f 400 428 429
f 400 429 430
f 400 430 431
f 400 431 401
f 401 431 432
f 401 432 424
f 404 413 412
f 409 417 418
f 409 418 433
f 409 433 410
f 410 434 411
f 410 433 434
f 413 420 414
f 414 420 419
f 414 419 415
f 422 426 435
f 424 432 425
f 425 432 435
f 425 435 426
f 429 436 430
f 430 436 431
f 431 435 432
