v -0.506371 0.50088 0.241821
v -0.504856 0.511358 0.241821
v -0.505685 0.499311 0.241821
v -0.505571 0.499906 0.242744
v -0.495541 0.505154 0.272536
v -0.495541 0.507499 0.272536
v -0.503542 0.512855 0.241821
v -0.499341 0.49152 0.241821
v -0.496941 0.493432 0.253417
v -0.495455 0.494586 0.260505
v -0.493855 0.497309 0.268353
v -0.491798 0.501097 0.276664
v -0.485425 0.50198 0.288368
v -0.483254 0.506651 0.294723
v -0.491826 0.515092 0.265176
v -0.483254 0.506832 0.294723
v -0.485311 0.508996 0.288749
v -0.488997 0.512513 0.276772
v -0.484197 0.519672 0.273133
v -0.48594 0.521566 0.265176
v -0.496684 0.520412 0.241821
v -0.371639 0.371878 0.241821
v -0.485997 0.492819 0.276962
v -0.484111 0.494316 0.284159
v -0.481168 0.498788 0.292035
v -0.470309 0.496895 0.305016
v -0.434676 0.497418 0.351781
v -0.403757 0.501511 0.394689
v -0.401043 0.505858 0.401044
v -0.488797 0.524127 0.252684
v -0.457364 0.516426 0.315281
v -0.468909 0.516192 0.300535
v -0.477824 0.515524 0.289808
v -0.482111 0.517544 0.280982
v -0.401043 0.507174 0.401044
v -0.4035 0.509519 0.394798
v -0.399986 0.517887 0.387982
v -0.421731 0.516156 0.362046
v -0.480567 0.527463 0.265176
v -0.472766 0.531846 0.273215
v -0.474681 0.53392 0.265176
v -0.477367 0.536301 0.253525
v -0.485425 0.532784 0.241821
v -0.346407 0.371878 0.274817
v -0.45945 0.495289 0.31797
v -0.254767 0.371878 0.241821
v -0.423817 0.49574 0.364762
v -0.398528 0.498013 0.398546
v -0.41293 0.494676 0.377743
v -0.394699 0.501511 0.40376
v -0.35438 0.505281 0.436675
v -0.294715 0.506651 0.483249
v -0.446049 0.552225 0.28052
v -0.466737 0.525606 0.290351
v -0.474252 0.521241 0.286576
v -0.413873 0.519871 0.367179
v -0.41273 0.530565 0.353899
v -0.429961 0.536048 0.323863
v -0.47008 0.529105 0.28109
v -0.461051 0.543496 0.27297
v -0.394813 0.509519 0.403515
v -0.387984 0.517887 0.399985
v -0.383898 0.525083 0.395477
v -0.379783 0.532297 0.390969
v -0.370296 0.547338 0.382306
v -0.387641 0.529429 0.387656
v -0.390984 0.532297 0.379834
v -0.294715 0.506832 0.483249
v -0.45725 0.551792 0.265176
v -0.459165 0.55365 0.258713
v -0.465908 0.548456 0.254367
v -0.480053 0.538681 0.241821
v -0.324833 0.371878 0.302843
v -0.264396 0.383889 0.241821
v -0.214447 0.371878 0.275876
v -0.402072 0.494063 0.39067
v -0.39067 0.494063 0.402076
v -0.377725 0.494676 0.412939
v -0.364752 0.49574 0.423802
v -0.351779 0.497418 0.434692
v -0.305002 0.496895 0.470295
v -0.292029 0.498788 0.481186
v -0.288371 0.50198 0.485449
v -0.27254 0.505154 0.495552
v -0.449049 0.554822 0.272671
v -0.453564 0.547861 0.276745
v -0.414587 0.54411 0.332743
v -0.424303 0.553939 0.306482
v -0.398843 0.528582 0.374729
v -0.398442 0.539998 0.359466
v -0.347693 0.515795 0.433144
v -0.354208 0.519005 0.424753
v -0.35798 0.52337 0.41723
v -0.359466 0.545552 0.392544
v -0.374382 0.540142 0.386814
v -0.340292 0.55282 0.399523
v -0.36621 0.554444 0.377825
v -0.378954 0.543839 0.378965
v -0.382297 0.547338 0.370329
v -0.27254 0.507499 0.495552
v -0.288771 0.508996 0.485313
v -0.2898 0.515524 0.477845
v -0.300544 0.516192 0.46891
v -0.461022 0.555075 0.250864
v -0.468537 0.551161 0.241821
v -0.474138 0.545138 0.241821
v -0.323404 0.371878 0.304663
v -0.274055 0.395846 0.241821
v -0.214447 0.379326 0.281715
v -0.214447 0.371878 0.389502
v -0.280427 0.403673 0.241821
v -0.285285 0.409588 0.241821
v -0.317146 0.371878 0.312213
v -0.314889 0.371878 0.314901
v -0.312203 0.371878 0.317155
v -0.304659 0.371878 0.323428
v -0.330948 0.494496 0.44857
v -0.317975 0.495289 0.459432
v -0.301344 0.371878 0.325981
v -0.275484 0.371878 0.345888
v -0.28417 0.494316 0.484119
v -0.276684 0.501097 0.491804
v -0.268368 0.497309 0.493841
v -0.214447 0.498878 0.516843
v -0.214447 0.504379 0.519233
v -0.438191 0.555345 0.285653
v -0.451364 0.55567 0.265176
v -0.413416 0.554642 0.319464
v -0.402557 0.555219 0.332445
v -0.407072 0.548456 0.336518
v -0.396185 0.549322 0.3495
v -0.399528 0.55282 0.340293
v -0.377783 0.554444 0.366228
v -0.31526 0.516426 0.457369
v -0.347693 0.521368 0.427251
v -0.323861 0.536048 0.429967
v -0.323547 0.547608 0.417936
v -0.327319 0.551955 0.410413
v -0.306488 0.553939 0.424291
v -0.359466 0.555544 0.38035
v -0.370582 0.555309 0.370601
v -0.374068 0.551684 0.374104
v -0.319461 0.554642 0.413428
v -0.332434 0.555219 0.402565
v -0.345407 0.555616 0.391675
v -0.265196 0.515092 0.491831
v -0.265196 0.521566 0.485938
v -0.27314 0.519672 0.4842
v -0.276769 0.512513 0.489007
v -0.214447 0.507499 0.519233
v -0.214447 0.508004 0.519124
v -0.242765 0.512549 0.503427
v -0.280999 0.517544 0.482109
v -0.286571 0.521241 0.47426
v -0.280827 0.540665 0.458075
v -0.462765 0.556049 0.241821
v -0.214447 0.384953 0.28625
v -0.218047 0.371878 0.387954
v -0.214447 0.49428 0.513557
v -0.227449 0.493829 0.508207
v -0.235307 0.495307 0.506605
v -0.26051 0.494586 0.49547
v -0.292114 0.417199 0.241821
v -0.214447 0.404935 0.302436
v -0.214447 0.398064 0.296841
v -0.241079 0.371878 0.37223
v -0.276969 0.492819 0.485992
v -0.234135 0.371878 0.377526
v -0.228649 0.371878 0.381708
v -0.22842 0.371878 0.381871
v -0.442048 0.555922 0.276745
v -0.39167 0.555616 0.345399
v -0.380326 0.555544 0.359466
v -0.280513 0.552225 0.446044
v -0.314346 0.551107 0.421276
v -0.272655 0.554822 0.449058
v -0.336177 0.556085 0.395287
v -0.395271 0.556085 0.336165
v -0.285656 0.555345 0.438195
v -0.276741 0.555922 0.442052
v -0.256195 0.517148 0.493705
v -0.265196 0.527463 0.480561
v -0.257024 0.529321 0.482272
v -0.265196 0.53392 0.474668
v -0.273226 0.531846 0.472767
v -0.214447 0.513865 0.51391
v -0.218705 0.513 0.512932
v -0.223134 0.518194 0.506442
v -0.272969 0.543496 0.461035
v -0.276741 0.547861 0.453566
v -0.45925 0.555976 0.241821
v -0.43079 0.556103 0.289237
v -0.241622 0.556067 0.4628
v -0.214447 0.555904 0.465489
v -0.31566 0.442159 0.241821
v -0.214447 0.411157 0.307569
v -0.214447 0.410346 0.30689
v -0.265196 0.551792 0.45726
v -0.25871 0.55365 0.459161
v -0.25088 0.555075 0.461008
v -0.265196 0.55567 0.451367
v -0.289257 0.556085 0.430781
v -0.248337 0.518933 0.495334
v -0.231849 0.528582 0.493379
v -0.254367 0.548456 0.465923
v -0.253538 0.536301 0.477356
v -0.214447 0.520159 0.508234
v -0.215276 0.519979 0.508071
v -0.453335 0.55585 0.241821
v -0.218047 0.55567 0.47369
v -0.214447 0.555688 0.474776
v -0.214447 0.555814 0.471816
v -0.214447 0.553704 0.459976
v -0.214447 0.412077 0.30841
v -0.323861 0.450473 0.241821
v -0.225677 0.55457 0.472115
v -0.223991 0.530367 0.495009
v -0.214447 0.547067 0.483738
v -0.214447 0.550782 0.480344
v -0.214447 0.5207 0.507745
v -0.452878 0.555598 0.241821
v -0.214447 0.548997 0.453947
v -0.44242 0.548871 0.241821
v -0.214447 0.417451 0.313353
v -0.325662 0.452295 0.241821
v -0.214447 0.546707 0.451014
v -0.441677 0.54833 0.241821
v -0.214447 0.424846 0.320305
v -0.327605 0.45417 0.241821
v -0.214447 0.447696 0.341923
v -0.214447 0.445604 0.339913
v -0.214447 0.441726 0.33622
v -0.214447 0.440085 0.334672
v -0.214447 0.532603 0.433198
v -0.415216 0.528185 0.241821
v -0.214447 0.528095 0.427631
v -0.33552 0.461582 0.241821
v -0.214447 0.453593 0.347843
v -0.41273 0.526273 0.241821
v -0.214447 0.526039 0.425214
v -0.406872 0.521746 0.241821
v -0.336692 0.462665 0.241821
v -0.214447 0.488454 0.383826
v -0.214447 0.521945 0.420435
v -0.379326 0.499906 0.241821
v -0.356408 0.480609 0.241821
v -0.214447 0.494099 0.389855
v -0.362095 0.485713 0.241821
v -0.214447 0.516679 0.414541
v -0.370124 0.492512 0.241821
v -0.372068 0.494081 0.241821
v -0.214447 0.49969 0.395939
v -0.214447 0.514893 0.412559
f 1 2 7
f 1 7 21
f 1 21 43
f 1 43 72
f 1 72 106
f 1 106 105
f 1 105 156
f 1 156 191
f 1 191 209
f 1 209 221
f 1 221 223
f 1 223 227
f 1 227 235
f 1 235 239
f 1 239 241
f 1 241 245
f 1 245 251
f 1 251 250
f 1 250 248
f 1 248 246
f 1 246 242
f 1 242 237
f 1 237 229
f 1 229 225
f 1 225 215
f 1 215 195
f 1 195 163
f 1 163 112
f 1 112 111
f 1 111 108
f 1 108 74
f 1 74 46
f 1 46 22
f 1 22 8
f 1 8 3
f 1 3 4
f 1 4 5
f 1 5 6
f 1 6 2
f 2 6 7
f 3 8 9
f 3 9 10
f 3 10 11
f 3 11 4
f 4 11 5
f 5 11 12
f 5 12 13
f 5 13 14
f 5 14 16
f 5 16 6
f 6 15 7
f 6 16 17
f 6 17 18
f 6 18 19
f 6 19 20
f 6 20 15
f 7 15 21
f 8 22 9
f 9 22 10
f 10 23 24
f 10 24 11
f 10 22 23
f 11 24 12
f 12 24 13
f 13 24 25
f 13 25 14
f 14 25 26
f 14 26 27
f 14 27 28
f 14 28 29
f 14 29 35
f 14 35 16
f 15 20 30
f 15 30 21
f 16 31 32
f 16 32 33
f 16 33 34
f 16 34 17
f 16 35 36
f 16 36 37
f 16 37 38
f 16 38 31
f 17 34 18
f 18 34 19
f 19 39 20
f 19 34 40
f 19 40 41
f 19 41 39
f 20 39 42
f 20 42 30
f 21 30 43
f 22 44 45
f 22 45 24
f 22 24 23
f 22 46 75
f 22 75 110
f 22 110 158
f 22 158 170
f 22 170 169
f 22 169 168
f 22 168 166
f 22 166 120
f 22 120 119
f 22 119 116
f 22 116 115
f 22 115 114
f 22 114 113
f 22 113 107
f 22 107 73
f 22 73 44
f 24 45 26
f 24 26 25
f 26 45 47
f 26 47 27
f 27 47 28
f 28 48 29
f 28 47 49
f 28 49 48
f 29 48 50
f 29 50 51
f 29 51 52
f 29 52 68
f 29 68 35
f 30 42 43
f 31 53 54
f 31 54 55
f 31 55 32
f 31 38 56
f 31 56 57
f 31 57 58
f 31 58 53
f 32 55 33
f 33 55 34
f 34 55 59
f 34 59 60
f 34 60 40
f 35 61 62
f 35 62 63
f 35 63 64
f 35 64 65
f 35 65 66
f 35 66 67
f 35 67 37
f 35 37 36
f 35 68 61
f 37 67 56
f 37 56 38
f 39 41 42
f 40 60 69
f 40 69 70
f 40 70 41
f 41 71 42
f 41 70 71
f 42 72 43
f 42 71 72
f 44 73 49
f 44 49 45
f 45 49 47
f 46 74 75
f 48 49 76
f 48 76 77
f 48 77 78
f 48 78 50
f 49 73 76
f 50 78 79
f 50 79 80
f 50 80 51
f 51 80 52
f 52 80 81
f 52 81 82
f 52 82 83
f 52 83 84
f 52 84 100
f 52 100 68
f 53 85 86
f 53 86 55
f 53 55 54
f 53 58 87
f 53 87 88
f 53 88 85
f 55 60 59
f 55 86 60
f 56 67 89
f 56 89 57
f 57 89 67
f 57 67 90
f 57 90 87
f 57 87 58
f 60 86 85
f 60 85 69
f 61 91 62
f 61 68 91
f 62 91 92
f 62 92 93
f 62 93 94
f 62 94 95
f 62 95 65
f 62 65 63
f 63 65 64
f 65 94 96
f 65 96 97
f 65 97 98
f 65 98 66
f 65 95 94
f 66 98 99
f 66 99 67
f 67 99 90
f 68 100 101
f 68 101 102
f 68 102 103
f 68 103 91
f 69 85 70
f 70 85 104
f 70 104 105
f 70 105 71
f 71 105 106
f 71 106 72
f 73 107 76
f 74 108 75
f 75 109 157
f 75 157 165
f 75 165 164
f 75 164 197
f 75 197 196
f 75 196 214
f 75 214 224
f 75 224 228
f 75 228 233
f 75 233 232
f 75 232 231
f 75 231 230
f 75 230 238
f 75 238 243
f 75 243 247
f 75 247 252
f 75 252 253
f 75 253 249
f 75 249 244
f 75 244 240
f 75 240 236
f 75 236 234
f 75 234 226
f 75 226 222
f 75 222 213
f 75 213 194
f 75 194 212
f 75 212 211
f 75 211 219
f 75 219 218
f 75 218 220
f 75 220 207
f 75 207 186
f 75 186 151
f 75 151 150
f 75 150 125
f 75 125 124
f 75 124 159
f 75 159 110
f 75 108 111
f 75 111 112
f 75 112 109
f 76 107 113
f 76 113 114
f 76 114 77
f 77 114 115
f 77 115 116
f 77 116 78
f 78 117 118
f 78 118 79
f 78 116 119
f 78 119 120
f 78 120 117
f 79 118 81
f 79 81 80
f 81 118 121
f 81 121 82
f 82 121 83
f 83 121 122
f 83 122 84
f 84 122 123
f 84 123 124
f 84 124 125
f 84 125 150
f 84 150 100
f 85 126 127
f 85 127 104
f 85 88 128
f 85 128 129
f 85 129 126
f 87 90 130
f 87 130 88
f 88 130 131
f 88 131 132
f 88 132 133
f 88 133 128
f 90 99 131
f 90 131 130
f 91 103 134
f 91 134 92
f 92 134 103
f 92 103 135
f 92 135 93
f 93 135 136
f 93 136 94
f 94 136 137
f 94 137 138
f 94 138 96
f 96 138 139
f 96 139 97
f 97 140 141
f 97 141 133
f 97 133 142
f 97 142 98
f 97 139 143
f 97 143 144
f 97 144 145
f 97 145 140
f 98 142 133
f 98 133 99
f 99 133 132
f 99 132 131
f 100 146 147
f 100 147 148
f 100 148 149
f 100 149 101
f 100 150 151
f 100 151 152
f 100 152 146
f 101 149 153
f 101 153 102
f 102 153 154
f 102 154 103
f 103 154 155
f 103 155 136
f 103 136 135
f 104 156 105
f 104 127 156
f 109 112 157
f 110 159 160
f 110 160 161
f 110 161 162
f 110 162 158
f 112 163 164
f 112 164 165
f 112 165 157
f 117 120 166
f 117 166 118
f 118 166 121
f 121 167 162
f 121 162 123
f 121 123 122
f 121 166 168
f 121 168 169
f 121 169 170
f 121 170 158
f 121 158 167
f 123 162 161
f 123 161 124
f 124 161 159
f 126 171 127
f 126 129 172
f 126 172 171
f 127 171 156
f 128 133 129
f 129 133 172
f 133 141 173
f 133 173 172
f 136 155 174
f 136 174 137
f 137 174 175
f 137 175 138
f 138 175 139
f 139 175 174
f 139 174 176
f 139 176 143
f 140 173 141
f 140 145 177
f 140 177 178
f 140 178 173
f 143 176 144
f 144 176 179
f 144 179 145
f 145 179 180
f 145 180 177
f 146 152 181
f 146 181 147
f 147 182 148
f 147 181 183
f 147 183 182
f 148 182 184
f 148 184 185
f 148 185 153
f 148 153 149
f 151 186 187
f 151 187 152
f 152 187 186
f 152 186 188
f 152 188 181
f 153 185 189
f 153 189 154
f 154 189 190
f 154 190 155
f 155 190 174
f 156 171 192
f 156 192 193
f 156 193 194
f 156 194 191
f 158 162 167
f 159 161 160
f 163 195 196
f 163 196 197
f 163 197 164
f 171 172 178
f 171 178 192
f 172 173 178
f 174 190 176
f 176 189 198
f 176 198 199
f 176 199 200
f 176 200 201
f 176 201 179
f 176 190 189
f 177 192 178
f 177 180 202
f 177 202 192
f 179 201 180
f 180 201 193
f 180 193 202
f 181 188 208
f 181 208 203
f 181 203 217
f 181 217 204
f 181 204 183
f 182 183 205
f 182 205 184
f 183 204 206
f 183 206 205
f 184 199 185
f 184 205 199
f 185 199 198
f 185 198 189
f 186 207 208
f 186 208 188
f 191 194 209
f 192 202 193
f 193 200 210
f 193 210 211
f 193 211 212
f 193 212 194
f 193 201 200
f 194 213 209
f 195 214 196
f 195 215 214
f 199 205 216
f 199 216 200
f 200 216 210
f 203 208 217
f 204 217 206
f 205 206 218
f 205 218 219
f 205 219 216
f 206 217 218
f 207 220 208
f 208 220 218
f 208 218 217
f 209 213 221
f 210 216 219
f 210 219 211
f 213 222 223
f 213 223 221
f 214 215 224
f 215 225 224
f 222 226 223
f 223 226 227
f 224 225 228
f 225 229 230
f 225 230 231
f 225 231 232
f 225 232 233
f 225 233 228
f 226 234 227
f 227 234 236
f 227 236 235
f 229 237 238
f 229 238 230
f 235 236 239
f 236 240 241
f 236 241 239
f 237 242 238
f 238 242 243
f 240 244 245
f 240 245 241
f 242 246 243
f 243 246 248
f 243 248 247
f 244 249 250
f 244 250 251
f 244 251 245
f 247 248 252
f 248 250 253
f 248 253 252
f 249 253 250
