v -0.320706 -0.300568 -0.356639
v -0.320706 -0.437462 -0.391647
v -0.320706 -0.300568 -0.458207
v -0.447717 -0.300568 -0.168648
v -0.320706 -0.437462 -0.489696
v -0.477781 -0.437462 -0.168648
v -0.320706 -0.302819 -0.459024
v -0.323563 -0.300568 -0.456039
v -0.534934 -0.300568 -0.168648
v -0.329633 -0.437462 -0.482908
v -0.320706 -0.430172 -0.488942
v -0.561975 -0.437462 -0.168648
v -0.320706 -0.312253 -0.462418
v -0.336127 -0.313191 -0.450948
v -0.332136 -0.300568 -0.449471
v -0.537957 -0.310296 -0.168648
v -0.533352 -0.300568 -0.172545
v -0.386172 -0.437462 -0.439509
v -0.389502 -0.432651 -0.436492
v -0.342693 -0.430172 -0.472098
v -0.323209 -0.430172 -0.487025
v -0.320706 -0.41838 -0.487214
v -0.342055 -0.423043 -0.471626
v -0.561338 -0.430172 -0.168648
v -0.553851 -0.437033 -0.188447
v -0.554064 -0.437462 -0.187975
v -0.320706 -0.313673 -0.46289
v -0.329066 -0.320695 -0.458899
v -0.342032 -0.317707 -0.448025
v -0.355021 -0.315161 -0.437152
v -0.381495 -0.31232 -0.415814
v -0.384636 -0.300568 -0.409183
v -0.538571 -0.31232 -0.168648
v -0.53765 -0.31232 -0.170911
v -0.515946 -0.300568 -0.214562
v -0.517127 -0.31232 -0.22047
v -0.530943 -0.316273 -0.190049
v -0.409245 -0.437462 -0.421753
v -0.408749 -0.430172 -0.421376
v -0.402869 -0.430172 -0.425901
v -0.393989 -0.429301 -0.432627
v -0.38884 -0.424799 -0.435989
v -0.3208 -0.406602 -0.485171
v -0.320706 -0.406736 -0.485265
v -0.32798 -0.41838 -0.481651
v -0.401735 -0.41838 -0.425053
v -0.559826 -0.418246 -0.168648
v -0.542303 -0.423003 -0.212613
v -0.51845 -0.425147 -0.270846
v -0.520858 -0.429516 -0.266226
v -0.542728 -0.430172 -0.213587
v -0.518875 -0.433013 -0.271883
v -0.517859 -0.437462 -0.275245
v -0.320706 -0.324273 -0.466347
v -0.377339 -0.329485 -0.424424
v -0.390328 -0.326376 -0.413551
v -0.388817 -0.318511 -0.412388
v -0.387376 -0.31232 -0.411288
v -0.395524 -0.312159 -0.40494
v -0.392265 -0.300568 -0.403275
v -0.541169 -0.321338 -0.168648
v -0.496202 -0.300568 -0.262203
v -0.49599 -0.315 -0.273485
v -0.50709 -0.317171 -0.248282
v -0.518213 -0.319609 -0.223078
v -0.411819 -0.437462 -0.419491
v -0.415527 -0.430172 -0.415499
v -0.414653 -0.41838 -0.41462
v -0.407616 -0.41838 -0.420496
v -0.325405 -0.39481 -0.479671
v -0.320706 -0.383045 -0.481274
v -0.33438 -0.406602 -0.474769
v -0.405585 -0.407111 -0.420182
v -0.399161 -0.39481 -0.423073
v -0.38688 -0.406602 -0.434481
v -0.558149 -0.406602 -0.168648
v -0.555197 -0.41838 -0.179899
v -0.544074 -0.418796 -0.206894
v -0.52877 -0.41838 -0.243694
v -0.514978 -0.41838 -0.276974
v -0.516678 -0.429516 -0.276282
v -0.511388 -0.430172 -0.288758
v -0.512026 -0.437462 -0.288758
v -0.320706 -0.328601 -0.467572
v -0.330554 -0.328547 -0.46003
v -0.364373 -0.332915 -0.435298
v -0.392029 -0.33589 -0.41484
v -0.397909 -0.33589 -0.410314
v -0.320706 -0.334041 -0.469081
v -0.394485 -0.323107 -0.409371
v -0.401546 -0.315978 -0.401515
v -0.399917 -0.308126 -0.399912
v -0.398169 -0.300568 -0.398152
v -0.540626 -0.323107 -0.171068
v -0.542137 -0.32513 -0.168648
v -0.493746 -0.300568 -0.268112
v -0.493227 -0.311569 -0.277225
v -0.494289 -0.320708 -0.281342
v -0.51656 -0.323763 -0.229583
v -0.529549 -0.324112 -0.19844
v -0.536068 -0.324112 -0.182696
v -0.496982 -0.324433 -0.277225
v -0.501894 -0.324112 -0.265189
v -0.505555 -0.324112 -0.256358
v -0.415882 -0.437462 -0.415877
v -0.421786 -0.437462 -0.409214
v -0.421408 -0.430172 -0.408743
v -0.412929 -0.398213 -0.412891
v -0.420534 -0.41838 -0.407612
v -0.412197 -0.390361 -0.412168
v -0.407616 -0.394488 -0.416474
v -0.337686 -0.383031 -0.468264
v -0.331782 -0.383031 -0.472789
v -0.364586 -0.38074 -0.44724
v -0.320706 -0.381249 -0.48096
v -0.40549 -0.383031 -0.416191
v -0.397862 -0.383031 -0.422067
v -0.391981 -0.383031 -0.426593
v -0.554749 -0.383031 -0.168648
v -0.552647 -0.383031 -0.173739
v -0.553922 -0.400692 -0.176819
v -0.514765 -0.383031 -0.265189
v -0.506712 -0.377564 -0.282725
v -0.507279 -0.385416 -0.283982
v -0.509333 -0.417858 -0.289733
v -0.507208 -0.421422 -0.295295
v -0.507751 -0.430172 -0.296081
v -0.508082 -0.437462 -0.296552
v -0.395288 -0.348607 -0.415688
v -0.378449 -0.33589 -0.425273
v -0.337733 -0.33589 -0.45651
v -0.328192 -0.359461 -0.470024
v -0.399515 -0.345297 -0.411571
v -0.402821 -0.324112 -0.402772
v -0.320706 -0.347682 -0.472663
v -0.322288 -0.359461 -0.474549
v -0.410355 -0.33589 -0.397901
v -0.409411 -0.323107 -0.394444
v -0.41241 -0.318511 -0.388787
v -0.404971 -0.312159 -0.395513
v -0.403317 -0.300568 -0.392244
v -0.542751 -0.327609 -0.168648
v -0.530305 -0.330182 -0.200263
v -0.489755 -0.300568 -0.276974
v -0.485103 -0.300568 -0.285522
v -0.486567 -0.312735 -0.289198
v -0.491101 -0.324433 -0.287941
v -0.495329 -0.328574 -0.283479
v -0.499816 -0.33589 -0.276974
v -0.506452 -0.331415 -0.258527
v -0.434397 -0.437462 -0.39281
v -0.436499 -0.432651 -0.389479
v -0.432649 -0.429301 -0.393973
v -0.436003 -0.424799 -0.388819
v -0.424478 -0.411372 -0.400949
v -0.422093 -0.383031 -0.397838
v -0.416212 -0.383031 -0.405475
v -0.416519 -0.394488 -0.40758
v -0.440018 -0.41838 -0.382251
v -0.411394 -0.383031 -0.411351
v -0.377551 -0.375902 -0.436366
v -0.330766 -0.37483 -0.472003
v -0.320706 -0.375822 -0.47986
v -0.403884 -0.371239 -0.414934
v -0.553828 -0.37751 -0.168648
v -0.541665 -0.380298 -0.199257
v -0.508483 -0.371239 -0.275214
v -0.506027 -0.371239 -0.28109
v -0.502036 -0.371239 -0.288758
v -0.504539 -0.382107 -0.288256
v -0.506594 -0.41357 -0.294321
v -0.530565 -0.37613 -0.224461
v -0.498139 -0.383031 -0.298752
v -0.503217 -0.417858 -0.299757
v -0.49658 -0.41838 -0.308525
v -0.497454 -0.430172 -0.309657
v -0.503335 -0.430172 -0.301957
v -0.503713 -0.437462 -0.30246
v -0.505389 -0.437462 -0.300197
v -0.389242 -0.364499 -0.424487
v -0.401924 -0.359461 -0.413425
v -0.329467 -0.366992 -0.470998
v -0.409788 -0.371239 -0.409748
v -0.413449 -0.359461 -0.401892
v -0.412622 -0.353149 -0.400824
v -0.411583 -0.345297 -0.399504
v -0.320706 -0.359461 -0.475743
v -0.320706 -0.36273 -0.476592
v -0.320706 -0.371145 -0.47876
v -0.435318 -0.332915 -0.364338
v -0.424431 -0.329485 -0.377317
v -0.413567 -0.326376 -0.390296
v -0.419849 -0.360131 -0.393815
v -0.491526 -0.358885 -0.299978
v -0.468476 -0.347682 -0.326187
v -0.486378 -0.33589 -0.298815
v -0.418432 -0.324005 -0.383068
v -0.421738 -0.31232 -0.373797
v -0.411323 -0.31232 -0.387342
v -0.423297 -0.321633 -0.375808
v -0.474333 -0.324112 -0.310254
v -0.484748 -0.324112 -0.296678
v -0.483662 -0.316943 -0.295264
v -0.409198 -0.300568 -0.384608
v -0.541405 -0.33317 -0.175091
v -0.543861 -0.336614 -0.171068
v -0.544806 -0.336466 -0.168648
v -0.517741 -0.33589 -0.233732
v -0.48071 -0.300568 -0.291398
v -0.492282 -0.33589 -0.29077
v -0.493817 -0.347682 -0.293001
v -0.494715 -0.354556 -0.294289
v -0.495754 -0.362422 -0.295672
v -0.502485 -0.347682 -0.276974
v -0.504775 -0.335569 -0.264843
v -0.483638 -0.437462 -0.328701
v -0.487039 -0.430172 -0.323233
v -0.486165 -0.41838 -0.322101
v -0.438034 -0.39481 -0.379674
v -0.437042 -0.383031 -0.378385
v -0.436381 -0.375902 -0.377537
v -0.41496 -0.371239 -0.403872
v -0.396256 -0.371239 -0.420842
v -0.382109 -0.371681 -0.43181
v -0.552906 -0.372646 -0.168648
v -0.518591 -0.365196 -0.24759
v -0.509475 -0.358751 -0.266132
v -0.505035 -0.358751 -0.276817
v -0.543247 -0.371239 -0.191275
v -0.542444 -0.363963 -0.189358
v -0.496887 -0.371239 -0.297149
v -0.505012 -0.39481 -0.291367
v -0.482859 -0.379118 -0.317796
v -0.484181 -0.39481 -0.319524
v -0.470909 -0.331884 -0.317576
v -0.460045 -0.328547 -0.330524
v -0.420865 -0.371239 -0.396204
v -0.424525 -0.364499 -0.389196
v -0.424903 -0.304762 -0.366129
v -0.420085 -0.300568 -0.370435
v -0.474829 -0.300568 -0.299098
v -0.536658 -0.347682 -0.19448
v -0.550002 -0.359461 -0.168648
v -0.547357 -0.347709 -0.168648
v -0.508294 -0.347682 -0.262958
v -0.439664 -0.371681 -0.37188
v -0.447245 -0.38074 -0.364558
v -0.431823 -0.371681 -0.382094
v -0.471995 -0.37483 -0.330744
v -0.552316 -0.369899 -0.168648
v -0.427973 -0.300568 -0.360158
f 1 2 5
f 1 5 11
f 1 11 22
f 1 22 44
f 1 44 71
f 1 71 115
f 1 115 163
f 1 163 189
f 1 189 188
f 1 188 187
f 1 187 135
f 1 135 89
f 1 89 84
f 1 84 54
f 1 54 27
f 1 27 13
f 1 13 7
f 1 7 3
f 1 3 8
f 1 8 15
f 1 15 32
f 1 32 60
f 1 60 93
f 1 93 141
f 1 141 204
f 1 204 240
f 1 240 251
f 1 251 241
f 1 241 209
f 1 209 145
f 1 145 144
f 1 144 96
f 1 96 62
f 1 62 35
f 1 35 17
f 1 17 9
f 1 9 4
f 1 4 2
f 2 4 6
f 2 6 12
f 2 12 26
f 2 26 53
f 2 53 83
f 2 83 128
f 2 128 179
f 2 179 178
f 2 178 216
f 2 216 151
f 2 151 106
f 2 106 105
f 2 105 66
f 2 66 38
f 2 38 18
f 2 18 10
f 2 10 5
f 3 7 8
f 4 9 16
f 4 16 33
f 4 33 61
f 4 61 95
f 4 95 142
f 4 142 207
f 4 207 244
f 4 244 243
f 4 243 250
f 4 250 225
f 4 225 165
f 4 165 119
f 4 119 76
f 4 76 47
f 4 47 24
f 4 24 12
f 4 12 6
f 5 10 11
f 7 13 8
f 8 13 14
f 8 14 15
f 9 17 16
f 10 18 19
f 10 19 20
f 10 20 21
f 10 21 11
f 11 21 23
f 11 23 22
f 12 24 25
f 12 25 26
f 13 27 28
f 13 28 29
f 13 29 14
f 14 29 30
f 14 30 31
f 14 31 32
f 14 32 15
f 16 17 34
f 16 34 33
f 17 35 36
f 17 36 37
f 17 37 34
f 18 38 19
f 19 38 39
f 19 39 40
f 19 40 41
f 19 41 20
f 20 23 21
f 20 41 42
f 20 42 23
f 22 43 44
f 22 23 45
f 22 45 43
f 23 42 46
f 23 46 45
f 24 47 48
f 24 48 49
f 24 49 50
f 24 50 51
f 24 51 25
f 25 51 50
f 25 50 52
f 25 52 53
f 25 53 26
f 27 54 28
f 28 54 55
f 28 55 56
f 28 56 57
f 28 57 29
f 29 57 30
f 30 57 31
f 31 57 58
f 31 58 32
f 32 58 59
f 32 59 60
f 33 34 61
f 34 37 61
f 35 62 63
f 35 63 36
f 36 63 37
f 37 63 64
f 37 64 65
f 37 65 61
f 38 66 67
f 38 67 39
f 39 67 68
f 39 68 69
f 39 69 46
f 39 46 42
f 39 42 41
f 39 41 40
f 43 45 70
f 43 70 71
f 43 71 44
f 45 72 70
f 45 46 72
f 46 69 73
f 46 73 74
f 46 74 75
f 46 75 72
f 47 76 77
f 47 77 48
f 48 77 78
f 48 78 79
f 48 79 80
f 48 80 49
f 49 80 81
f 49 81 50
f 50 81 52
f 52 81 53
f 53 81 82
f 53 82 83
f 54 84 85
f 54 85 55
f 55 86 87
f 55 87 88
f 55 88 56
f 55 85 89
f 55 89 86
f 56 88 90
f 56 90 57
f 57 90 91
f 57 91 59
f 57 59 58
f 59 91 60
f 60 91 92
f 60 92 93
f 61 94 95
f 61 65 94
f 62 96 63
f 63 96 97
f 63 97 98
f 63 98 64
f 64 98 65
f 65 99 100
f 65 100 101
f 65 101 94
f 65 98 102
f 65 102 103
f 65 103 104
f 65 104 99
f 66 105 67
f 67 105 106
f 67 106 107
f 67 107 68
f 68 108 69
f 68 107 109
f 68 109 108
f 69 108 110
f 69 110 111
f 69 111 73
f 70 112 113
f 70 113 71
f 70 72 114
f 70 114 112
f 71 113 115
f 72 75 114
f 73 111 116
f 73 116 74
f 74 116 117
f 74 117 118
f 74 118 114
f 74 114 75
f 76 119 120
f 76 120 121
f 76 121 77
f 77 121 79
f 77 79 78
f 79 122 123
f 79 123 80
f 79 121 122
f 80 123 124
f 80 124 125
f 80 125 82
f 80 82 81
f 82 125 126
f 82 126 127
f 82 127 83
f 83 127 128
f 84 89 85
f 86 129 130
f 86 130 87
f 86 89 131
f 86 131 132
f 86 132 129
f 87 130 133
f 87 133 88
f 88 134 91
f 88 91 90
f 88 133 134
f 89 135 136
f 89 136 132
f 89 132 131
f 91 137 138
f 91 138 139
f 91 139 140
f 91 140 141
f 91 141 92
f 91 134 137
f 92 141 93
f 94 101 95
f 95 101 100
f 95 100 143
f 95 143 142
f 96 144 97
f 97 144 98
f 98 145 146
f 98 146 147
f 98 147 148
f 98 148 102
f 98 144 145
f 99 104 100
f 100 104 143
f 102 148 149
f 102 149 150
f 102 150 103
f 103 150 143
f 103 143 104
f 106 151 152
f 106 152 107
f 107 152 153
f 107 153 154
f 107 154 109
f 108 109 110
f 109 155 156
f 109 156 157
f 109 157 158
f 109 158 110
f 109 154 159
f 109 159 155
f 110 160 116
f 110 116 111
f 110 158 157
f 110 157 160
f 112 114 113
f 113 114 115
f 114 161 115
f 114 118 161
f 115 162 163
f 115 161 162
f 116 160 164
f 116 164 161
f 116 161 117
f 117 161 118
f 119 165 166
f 119 166 120
f 120 166 123
f 120 123 121
f 121 123 122
f 123 167 168
f 123 168 148
f 123 148 169
f 123 169 170
f 123 170 171
f 123 171 124
f 123 166 172
f 123 172 167
f 124 171 125
f 125 171 126
f 126 171 173
f 126 173 174
f 126 174 175
f 126 175 154
f 126 154 176
f 126 176 177
f 126 177 127
f 127 177 178
f 127 178 179
f 127 179 128
f 129 180 181
f 129 181 133
f 129 133 130
f 129 132 180
f 132 136 182
f 132 182 180
f 133 181 134
f 134 181 183
f 134 183 184
f 134 184 185
f 134 185 186
f 134 186 137
f 135 187 136
f 136 187 188
f 136 188 189
f 136 189 182
f 137 190 191
f 137 191 192
f 137 192 138
f 137 186 185
f 137 185 193
f 137 193 194
f 137 194 195
f 137 195 196
f 137 196 190
f 138 192 197
f 138 197 139
f 139 198 199
f 139 199 140
f 139 197 200
f 139 200 201
f 139 201 202
f 139 202 203
f 139 203 198
f 140 199 141
f 141 199 204
f 142 205 206
f 142 206 207
f 142 143 205
f 143 206 205
f 143 150 208
f 143 208 206
f 145 209 203
f 145 203 146
f 146 203 147
f 147 203 202
f 147 202 210
f 147 210 148
f 148 168 149
f 148 210 211
f 148 211 212
f 148 212 213
f 148 213 169
f 149 168 214
f 149 214 215
f 149 215 150
f 150 215 208
f 151 216 152
f 152 216 176
f 152 176 217
f 152 217 153
f 153 217 154
f 154 218 159
f 154 217 176
f 154 175 218
f 155 159 219
f 155 219 220
f 155 220 156
f 156 220 221
f 156 221 157
f 157 221 222
f 157 222 160
f 159 218 234
f 159 234 219
f 160 222 183
f 160 183 164
f 161 164 223
f 161 223 162
f 162 182 189
f 162 189 163
f 162 223 224
f 162 224 182
f 164 183 181
f 164 181 223
f 165 225 172
f 165 172 166
f 167 226 227
f 167 227 228
f 167 228 168
f 167 172 229
f 167 229 230
f 167 230 226
f 168 228 214
f 169 213 231
f 169 231 170
f 170 231 173
f 170 173 232
f 170 232 171
f 171 232 173
f 172 225 229
f 173 175 174
f 173 231 233
f 173 233 220
f 173 220 219
f 173 219 234
f 173 234 218
f 173 218 175
f 176 178 177
f 176 216 178
f 180 223 181
f 180 182 223
f 182 224 223
f 183 222 184
f 184 222 193
f 184 193 185
f 190 235 191
f 190 196 235
f 191 197 192
f 191 235 236
f 191 236 202
f 191 202 201
f 191 201 197
f 193 222 237
f 193 237 238
f 193 238 213
f 193 213 194
f 194 213 196
f 194 196 195
f 196 213 212
f 196 212 211
f 196 211 210
f 196 210 202
f 196 202 235
f 197 201 200
f 198 239 240
f 198 240 204
f 198 204 199
f 198 203 241
f 198 241 239
f 202 236 235
f 203 209 241
f 206 242 230
f 206 230 243
f 206 243 244
f 206 244 207
f 206 208 245
f 206 245 227
f 206 227 242
f 208 215 245
f 213 238 246
f 213 246 231
f 214 228 227
f 214 227 245
f 214 245 215
f 220 233 247
f 220 247 221
f 221 246 248
f 221 248 237
f 221 237 222
f 221 247 233
f 221 233 249
f 221 249 231
f 221 231 246
f 225 250 229
f 226 230 227
f 227 230 242
f 229 250 230
f 230 250 243
f 231 249 233
f 237 248 238
f 238 248 246
f 239 251 240
f 239 241 251
