v 0.390881 -0.186087 0.180949
v 0.484458 -0.186087 0.180949
v 0.433318 -0.186087 0.0007023
v 0.509603 -0.437437 0.0007023
v 0.472724 -0.437437 0.180949
v 0.488472 -0.186087 0.171263
v 0.486947 -0.191181 0.180949
v 0.520468 -0.186087 0.0007023
v 0.588011 -0.437437 0.0007023
v 0.556883 -0.437437 0.180949
v 0.494801 -0.186087 0.155931
v 0.507403 -0.210866 0.154713
v 0.507114 -0.199694 0.142222
v 0.496075 -0.209931 0.180949
v 0.531333 -0.20998 0.0007023
v 0.520468 -0.186087 0.00590717
v 0.58776 -0.434435 0.0007023
v 0.588011 -0.437437 0.00536021
v 0.562518 -0.437437 0.167311
v 0.564275 -0.430154 0.161541
v 0.556247 -0.430154 0.180949
v 0.498603 -0.186087 0.146721
v 0.505763 -0.214433 0.162565
v 0.514601 -0.219182 0.146174
v 0.508696 -0.206683 0.146615
v 0.518577 -0.223882 0.14148
v 0.512015 -0.206264 0.135517
v 0.508001 -0.197701 0.135517
v 0.502521 -0.186087 0.135517
v 0.501498 -0.186087 0.138534
v 0.499472 -0.217485 0.180949
v 0.54185 -0.235102 0.0007023
v 0.531333 -0.20998 0.00590717
v 0.520333 -0.186087 0.00700106
v 0.587374 -0.430154 0.0007023
v 0.587374 -0.430154 0.00590717
v 0.587027 -0.437437 0.013194
v 0.56551 -0.437437 0.160059
v 0.566668 -0.430154 0.155648
v 0.566147 -0.421074 0.154325
v 0.554954 -0.420016 0.180949
v 0.508966 -0.218247 0.158824
v 0.521954 -0.229837 0.135517
v 0.519136 -0.22248 0.135517
v 0.516666 -0.216574 0.135517
v 0.507461 -0.222307 0.166676
v 0.50584 -0.226293 0.174527
v 0.504412 -0.229369 0.180949
v 0.508928 -0.230058 0.170716
v 0.518519 -0.235841 0.15309
v 0.522166 -0.2524 0.160112
v 0.52948 -0.261554 0.151043
v 0.527878 -0.253508 0.147197
v 0.531005 -0.257518 0.143192
v 0.529499 -0.249694 0.135517
v 0.506284 -0.189631 0.125972
v 0.504933 -0.186087 0.123996
v 0.539824 -0.230993 0.00479561
v 0.542333 -0.236357 0.0007023
v 0.534691 -0.218051 0.00590717
v 0.530754 -0.211259 0.0149054
v 0.518943 -0.186087 0.0176931
v 0.528322 -0.206904 0.0183812
v 0.585985 -0.418367 0.0007023
v 0.58585 -0.430154 0.0176931
v 0.585985 -0.418367 0.00590717
v 0.577629 -0.434657 0.0835919
v 0.577725 -0.437437 0.0843153
v 0.566976 -0.437437 0.156407
v 0.568597 -0.430154 0.147303
v 0.569215 -0.437437 0.147303
v 0.554741 -0.418367 0.180949
v 0.565587 -0.4132 0.152614
v 0.558697 -0.383009 0.159089
v 0.562094 -0.406581 0.159089
v 0.563889 -0.417629 0.158595
v 0.523768 -0.229837 0.123749
v 0.520063 -0.220142 0.123749
v 0.517689 -0.214261 0.123749
v 0.514138 -0.206264 0.123749
v 0.505261 -0.23151 0.180949
v 0.508812 -0.240467 0.180949
v 0.520005 -0.255648 0.168458
v 0.518364 -0.259782 0.176327
v 0.530966 -0.269403 0.154713
v 0.532336 -0.265368 0.147197
v 0.536099 -0.276982 0.147303
v 0.542506 -0.293345 0.142663
v 0.538936 -0.276982 0.135517
v 0.535173 -0.265196 0.135517
v 0.531719 -0.255575 0.135517
v 0.508677 -0.193937 0.122725
v 0.506535 -0.186087 0.111963
v 0.54102 -0.238744 0.0176931
v 0.53772 -0.229837 0.0176931
v 0.554278 -0.269994 0.0007023
v 0.547948 -0.253409 0.00590717
v 0.554278 -0.269994 0.00296068
v 0.530233 -0.212416 0.0227568
v 0.532664 -0.217017 0.0183812
v 0.532163 -0.219379 0.029479
v 0.531391 -0.221298 0.0412649
v 0.530792 -0.222824 0.0505102
v 0.519252 -0.210644 0.100177
v 0.51875 -0.211702 0.10757
v 0.514292 -0.186087 0.0530508
v 0.51657 -0.204739 0.100177
v 0.511166 -0.186087 0.0767991
v 0.58529 -0.413176 0.0007023
v 0.58446 -0.418367 0.0176931
v 0.577745 -0.422329 0.0727058
v 0.577224 -0.426783 0.0805572
v 0.581199 -0.430154 0.0530508
v 0.58282 -0.394795 0.00590717
v 0.578131 -0.430498 0.0766227
v 0.573441 -0.430154 0.111963
v 0.570334 -0.430154 0.135517
v 0.570913 -0.437437 0.135517
v 0.571511 -0.437437 0.131035
v 0.568945 -0.418367 0.135517
v 0.566957 -0.417629 0.148132
v 0.569871 -0.437437 0.142821
v 0.553719 -0.411232 0.180949
v 0.566147 -0.406581 0.144056
v 0.565722 -0.400479 0.141604
v 0.565124 -0.406581 0.149949
v 0.562268 -0.383009 0.147303
v 0.549647 -0.383009 0.180949
v 0.55148 -0.395681 0.180949
v 0.560203 -0.371222 0.147303
v 0.556247 -0.371026 0.159759
v 0.554413 -0.37484 0.166181
v 0.529847 -0.225285 0.0648367
v 0.52892 -0.239581 0.111963
v 0.532394 -0.240713 0.0887791
v 0.529017 -0.215393 0.0412649
v 0.530271 -0.224153 0.0583615
v 0.518229 -0.212932 0.115439
v 0.513868 -0.253237 0.180949
v 0.517573 -0.262735 0.180949
v 0.518171 -0.26431 0.180949
v 0.519059 -0.266647 0.180949
v 0.51985 -0.267631 0.179926
v 0.519638 -0.268222 0.180949
v 0.529345 -0.274324 0.162582
v 0.53195 -0.277745 0.158824
v 0.542468 -0.305328 0.154025
v 0.541252 -0.297478 0.150514
v 0.541387 -0.285446 0.135517
v 0.543471 -0.301071 0.146879
v 0.546655 -0.312316 0.147303
v 0.54984 -0.324102 0.147303
v 0.549126 -0.312316 0.135517
v 0.540654 -0.277572 0.123837
v 0.541792 -0.272233 0.103529
v 0.540712 -0.263276 0.0884086
v 0.541966 -0.259758 0.0694417
v 0.542313 -0.27056 0.0956777
v 0.542796 -0.269182 0.0884086
v 0.543047 -0.256829 0.0530508
v 0.546424 -0.253409 0.0176931
v 0.536177 -0.229837 0.029479
v 0.566783 -0.314432 0.0007023
v 0.552329 -0.265712 0.0064894
v 0.553796 -0.271519 0.0108121
v 0.555648 -0.276047 0.0064894
v 0.566783 -0.314432 0.00590717
v 0.58282 -0.394795 0.0007023
v 0.57981 -0.418367 0.0530508
v 0.579713 -0.383009 0.0176931
v 0.572052 -0.418367 0.111963
v 0.581218 -0.383009 0.00590717
v 0.567362 -0.406581 0.135517
v 0.565201 -0.39263 0.137634
v 0.564468 -0.384116 0.134423
v 0.56219 -0.371222 0.135517
v 0.547505 -0.371198 0.180949
v 0.554375 -0.339604 0.143351
v 0.557694 -0.359436 0.147303
v 0.55341 -0.344008 0.15122
v 0.554297 -0.351858 0.154131
v 0.555147 -0.359436 0.156195
v 0.553564 -0.36699 0.164117
v 0.547138 -0.3695 0.180949
v 0.520313 -0.27024 0.180949
v 0.522456 -0.276662 0.180949
v 0.525736 -0.287242 0.180949
v 0.530561 -0.282174 0.165511
v 0.541117 -0.312316 0.162529
v 0.543548 -0.312316 0.156636
v 0.547292 -0.300554 0.123749
v 0.555262 -0.311848 0.0879851
v 0.54351 -0.27649 0.099824
v 0.552561 -0.335765 0.147303
v 0.553545 -0.33173 0.138622
v 0.545131 -0.323093 0.160165
v 0.552464 -0.32489 0.135023
v 0.553661 -0.319279 0.115915
v 0.554182 -0.317286 0.108046
v 0.551364 -0.276982 0.0412649
v 0.550689 -0.265196 0.0176931
v 0.569234 -0.324102 0.0007023
v 0.553892 -0.282961 0.0351602
v 0.563097 -0.312316 0.029479
v 0.566166 -0.316573 0.0153818
v 0.569234 -0.324102 0.00590717
v 0.581218 -0.383009 0.0007023
v 0.573538 -0.394795 0.0766227
v 0.577706 -0.376045 0.0252269
v 0.577185 -0.379367 0.0330783
v 0.565703 -0.377079 0.117909
v 0.568848 -0.383009 0.100177
v 0.577918 -0.36325 0.0034547
v 0.578922 -0.370238 0.00678934
v 0.578189 -0.373585 0.0176931
v 0.565722 -0.388767 0.129765
v 0.564139 -0.372379 0.122602
v 0.564911 -0.369254 0.111963
v 0.561322 -0.359436 0.123749
v 0.559759 -0.359436 0.135517
v 0.548643 -0.335888 0.159089
v 0.551596 -0.347822 0.158471
v 0.552715 -0.359436 0.162088
v 0.544513 -0.357714 0.180949
v 0.531005 -0.304294 0.180949
v 0.533475 -0.312316 0.180949
v 0.542062 -0.318492 0.164805
v 0.554703 -0.31549 0.100177
v 0.552715 -0.287046 0.0530508
v 0.565548 -0.330746 0.0459405
v 0.554066 -0.329343 0.130753
v 0.565954 -0.364161 0.0961365
v 0.543047 -0.326341 0.167205
v 0.554529 -0.32735 0.123749
v 0.566629 -0.326021 0.029479
v 0.56524 -0.320141 0.029479
v 0.565645 -0.318394 0.0232332
v 0.571859 -0.335888 0.0007023
v 0.567343 -0.323019 0.0186635
v 0.571859 -0.335888 0.00590717
v 0.577918 -0.36325 0.0007023
v 0.577011 -0.367704 0.0176931
v 0.569968 -0.371222 0.0766227
v 0.576683 -0.359387 0.00678934
v 0.577417 -0.365637 0.0113061
v 0.565432 -0.36667 0.104006
v 0.541406 -0.333157 0.175056
v 0.539669 -0.336184 0.180949
v 0.542255 -0.347675 0.180949
v 0.543568 -0.353506 0.180949
v 0.536736 -0.32393 0.180949
v 0.56879 -0.335888 0.029479
v 0.570334 -0.335888 0.0176931
v 0.575294 -0.359436 0.0176931
f 1 2 6
f 1 6 11
f 1 11 22
f 1 22 30
f 1 30 29
f 1 29 57
f 1 57 93
f 1 93 108
f 1 108 106
f 1 106 62
f 1 62 34
f 1 34 16
f 1 16 8
f 1 8 3
f 1 3 4
f 1 4 5
f 1 5 10
f 1 10 21
f 1 21 41
f 1 41 72
f 1 72 123
f 1 123 129
f 1 129 128
f 1 128 177
f 1 177 184
f 1 184 224
f 1 224 250
f 1 250 249
f 1 249 248
f 1 248 251
f 1 251 226
f 1 226 225
f 1 225 187
f 1 187 186
f 1 186 185
f 1 185 144
f 1 144 142
f 1 142 141
f 1 141 140
f 1 140 139
f 1 139 82
f 1 82 81
f 1 81 48
f 1 48 31
f 1 31 14
f 1 14 7
f 1 7 2
f 2 7 6
f 3 8 15
f 3 15 32
f 3 32 59
f 3 59 96
f 3 96 163
f 3 163 202
f 3 202 238
f 3 238 241
f 3 241 207
f 3 207 168
f 3 168 109
f 3 109 64
f 3 64 35
f 3 35 17
f 3 17 9
f 3 9 4
f 4 9 18
f 4 18 37
f 4 37 68
f 4 68 119
f 4 119 118
f 4 118 122
f 4 122 71
f 4 71 69
f 4 69 38
f 4 38 19
f 4 19 10
f 4 10 5
f 6 7 12
f 6 12 13
f 6 13 11
f 7 14 12
f 8 16 33
f 8 33 15
f 9 17 18
f 10 19 20
f 10 20 21
f 11 13 22
f 12 14 23
f 12 23 24
f 12 24 25
f 12 25 13
f 13 25 26
f 13 26 27
f 13 27 28
f 13 28 29
f 13 29 30
f 13 30 22
f 14 31 23
f 15 33 32
f 16 34 33
f 17 35 36
f 17 36 18
f 18 36 37
f 19 38 20
f 20 39 40
f 20 40 21
f 20 38 39
f 21 40 41
f 23 31 42
f 23 42 24
f 24 42 26
f 24 26 25
f 26 43 44
f 26 44 45
f 26 45 27
f 26 42 46
f 26 46 47
f 26 47 48
f 26 48 49
f 26 49 50
f 26 50 51
f 26 51 52
f 26 52 53
f 26 53 54
f 26 54 55
f 26 55 43
f 27 45 56
f 27 56 28
f 28 56 29
f 29 56 57
f 31 48 47
f 31 47 46
f 31 46 42
f 32 58 59
f 32 33 60
f 32 60 58
f 33 61 60
f 33 34 61
f 34 62 63
f 34 63 61
f 35 64 66
f 35 66 36
f 36 65 37
f 36 66 110
f 36 110 65
f 37 65 67
f 37 67 68
f 38 69 39
f 39 70 40
f 39 69 71
f 39 71 70
f 40 72 41
f 40 70 73
f 40 73 74
f 40 74 75
f 40 75 76
f 40 76 72
f 43 77 78
f 43 78 44
f 43 55 77
f 44 78 79
f 44 79 45
f 45 79 80
f 45 80 56
f 48 81 49
f 49 81 82
f 49 82 83
f 49 83 50
f 50 83 51
f 51 83 52
f 52 83 84
f 52 84 85
f 52 85 54
f 52 54 53
f 54 85 86
f 54 86 87
f 54 87 88
f 54 88 89
f 54 89 90
f 54 90 91
f 54 91 55
f 55 91 77
f 56 92 93
f 56 93 57
f 56 80 92
f 58 94 59
f 58 60 95
f 58 95 94
f 59 94 97
f 59 97 98
f 59 98 96
f 60 61 99
f 60 99 100
f 60 100 101
f 60 101 102
f 60 102 103
f 60 103 95
f 61 63 104
f 61 104 105
f 61 105 99
f 62 106 63
f 63 107 104
f 63 106 108
f 63 108 107
f 64 109 66
f 65 110 111
f 65 111 112
f 65 112 113
f 65 113 67
f 66 109 114
f 66 114 170
f 66 170 110
f 67 113 115
f 67 115 116
f 67 116 117
f 67 117 118
f 67 118 119
f 67 119 68
f 70 117 120
f 70 120 121
f 70 121 73
f 70 71 117
f 71 122 117
f 72 76 123
f 73 121 124
f 73 124 125
f 73 125 126
f 73 126 127
f 73 127 74
f 74 128 129
f 74 129 75
f 74 127 130
f 74 130 131
f 74 131 132
f 74 132 128
f 75 129 123
f 75 123 76
f 77 133 78
f 77 91 134
f 77 134 135
f 77 135 133
f 78 136 79
f 78 133 137
f 78 137 103
f 78 103 136
f 79 136 99
f 79 99 138
f 79 138 80
f 80 138 105
f 80 105 104
f 80 104 92
f 82 139 83
f 83 139 84
f 84 139 140
f 84 140 85
f 85 87 86
f 85 140 141
f 85 141 142
f 85 142 143
f 85 143 144
f 85 144 145
f 85 145 146
f 85 146 147
f 85 147 87
f 87 147 148
f 87 148 88
f 88 149 89
f 88 148 150
f 88 150 151
f 88 151 152
f 88 152 153
f 88 153 149
f 89 149 154
f 89 154 155
f 89 155 90
f 90 156 157
f 90 157 91
f 90 155 158
f 90 158 159
f 90 159 156
f 91 157 160
f 91 160 135
f 91 135 134
f 92 104 107
f 92 107 93
f 93 107 108
f 94 135 160
f 94 160 161
f 94 161 97
f 94 95 162
f 94 162 133
f 94 133 135
f 95 103 137
f 95 137 133
f 95 133 162
f 96 98 167
f 96 167 163
f 97 161 164
f 97 164 98
f 98 164 165
f 98 165 166
f 98 166 167
f 99 105 138
f 99 136 100
f 100 136 101
f 101 136 102
f 102 136 103
f 109 168 114
f 110 169 111
f 110 170 169
f 111 120 117
f 111 117 112
f 111 169 171
f 111 171 120
f 112 117 116
f 112 116 113
f 113 116 115
f 114 168 207
f 114 207 172
f 114 172 170
f 117 122 118
f 120 171 173
f 120 173 125
f 120 125 124
f 120 124 121
f 125 173 174
f 125 174 175
f 125 175 127
f 125 127 126
f 127 175 176
f 127 176 130
f 128 132 177
f 130 176 178
f 130 178 179
f 130 179 180
f 130 180 181
f 130 181 182
f 130 182 131
f 131 182 183
f 131 183 184
f 131 184 132
f 132 184 177
f 142 144 143
f 144 185 145
f 145 185 186
f 145 186 187
f 145 187 188
f 145 188 189
f 145 189 147
f 145 147 146
f 147 189 190
f 147 190 151
f 147 151 150
f 147 150 148
f 149 191 192
f 149 192 193
f 149 193 155
f 149 155 154
f 149 153 191
f 151 190 152
f 152 194 178
f 152 178 195
f 152 195 153
f 152 190 196
f 152 196 180
f 152 180 194
f 153 195 197
f 153 197 198
f 153 198 199
f 153 199 191
f 155 193 200
f 155 200 165
f 155 165 158
f 156 159 157
f 157 159 201
f 157 201 160
f 158 165 159
f 159 165 201
f 160 201 161
f 161 201 164
f 163 167 206
f 163 206 202
f 164 201 165
f 165 200 203
f 165 203 204
f 165 204 205
f 165 205 167
f 165 167 166
f 167 205 206
f 169 170 208
f 169 208 171
f 170 172 209
f 170 209 210
f 170 210 211
f 170 211 212
f 170 212 208
f 171 208 212
f 171 212 173
f 172 207 241
f 172 241 213
f 172 213 214
f 172 214 215
f 172 215 209
f 173 212 216
f 173 216 174
f 174 216 175
f 175 216 211
f 175 211 176
f 176 217 218
f 176 218 219
f 176 219 220
f 176 220 195
f 176 195 178
f 176 211 217
f 178 180 179
f 178 194 180
f 180 196 221
f 180 221 181
f 181 221 222
f 181 222 223
f 181 223 182
f 182 223 183
f 183 223 224
f 183 224 184
f 187 225 189
f 187 189 188
f 189 225 226
f 189 226 227
f 189 227 190
f 190 227 196
f 191 199 228
f 191 228 192
f 192 228 204
f 192 204 229
f 192 229 193
f 193 229 200
f 195 230 231
f 195 231 197
f 195 220 219
f 195 219 232
f 195 232 230
f 196 227 233
f 196 233 221
f 197 231 234
f 197 234 198
f 198 234 235
f 198 235 236
f 198 236 237
f 198 237 199
f 199 205 204
f 199 204 228
f 199 237 205
f 200 229 203
f 202 206 240
f 202 240 238
f 203 229 204
f 205 237 206
f 206 237 239
f 206 239 235
f 206 235 240
f 209 211 210
f 209 215 242
f 209 242 243
f 209 243 211
f 211 216 212
f 211 243 217
f 213 244 245
f 213 245 214
f 213 241 238
f 213 238 240
f 213 240 244
f 214 245 242
f 214 242 215
f 217 243 218
f 218 243 246
f 218 246 219
f 219 246 232
f 221 233 247
f 221 247 248
f 221 248 222
f 222 248 223
f 223 248 249
f 223 249 250
f 223 250 224
f 226 251 227
f 227 251 233
f 230 252 253
f 230 253 240
f 230 240 235
f 230 235 231
f 230 232 254
f 230 254 252
f 231 235 234
f 232 246 242
f 232 242 254
f 233 251 247
f 235 239 236
f 236 239 237
f 240 253 254
f 240 254 244
f 242 245 254
f 242 246 243
f 244 254 245
f 247 251 248
f 252 254 253
