v 0.136303 -0.479543 0.479587
v 0.136303 -0.437466 0.490801
v 0.136303 -0.479543 0.573446
v 0.0294647 -0.479543 0.493844
v 0.136303 -0.437466 0.570816
v -9.5405e-05 -0.437466 0.509634
v 0.136303 -0.479398 0.573446
v 0.135528 -0.479543 0.573554
v 0.0176887 -0.479543 0.495876
v 0.136303 -0.441668 0.571153
v 0.135528 -0.437466 0.570925
v -9.5405e-05 -0.479543 0.499006
v -9.5405e-05 -0.437466 0.588029
v 0.136303 -0.453746 0.571892
v 0.135528 -0.465528 0.572718
v 0.135528 -0.477314 0.573424
v 0.121897 -0.479543 0.575358
v 0.136303 -0.44196 0.571174
v 0.135528 -0.44196 0.571283
v 0.084299 -0.437466 0.577727
v -9.5405e-05 -0.479543 0.590605
v -9.5405e-05 -0.446982 0.589323
v 0.00535198 -0.437466 0.588029
v 0.0913619 -0.44196 0.577108
v 0.0294647 -0.44196 0.585258
v 0.019371 -0.477314 0.588725
v 0.0530433 -0.477314 0.584291
v 0.102751 -0.479543 0.577879
v 0.0808944 -0.437466 0.578173
v 0.0176887 -0.44196 0.586801
v 0.00589939 -0.479543 0.590605
v 0.000425301 -0.446982 0.589323
v 0.00497814 -0.442615 0.588486
v 0.0176887 -0.437466 0.586443
v 0.0176887 -0.453746 0.587519
v 0.0134697 -0.477314 0.589496
v 0.0139904 -0.479543 0.589562
v 0.0198783 -0.479543 0.58879
v 0.0120143 -0.470945 0.589301
v 0.00204082 -0.453746 0.589529
f 1 2 5
f 1 5 10
f 1 10 18
f 1 18 14
f 1 14 7
f 1 7 3
f 1 3 8
f 1 8 17
f 1 17 28
f 1 28 38
f 1 38 37
f 1 37 31
f 1 31 21
f 1 21 12
f 1 12 9
f 1 9 4
f 1 4 2
f 2 4 6
f 2 6 13
f 2 13 23
f 2 23 34
f 2 34 29
f 2 29 20
f 2 20 11
f 2 11 5
f 3 7 8
f 4 9 6
f 5 11 10
f 6 9 12
f 6 12 21
f 6 21 22
f 6 22 13
f 7 14 15
f 7 15 16
f 7 16 17
f 7 17 8
f 10 11 19
f 10 19 18
f 11 20 19
f 13 22 32
f 13 32 23
f 14 18 15
f 15 17 16
f 15 18 19
f 15 19 24
f 15 24 25
f 15 25 26
f 15 26 27
f 15 27 17
f 17 27 28
f 19 20 24
f 20 29 30
f 20 30 25
f 20 25 24
f 21 31 32
f 21 32 22
f 23 33 30
f 23 30 34
f 23 32 33
f 25 30 35
f 25 35 26
f 26 35 36
f 26 36 37
f 26 37 38
f 26 38 28
f 26 28 27
f 29 34 30
f 30 33 39
f 30 39 35
f 31 37 36
f 31 36 39
f 31 39 33
f 31 33 40
f 31 40 32
f 32 40 33
f 35 39 36
