v 0.334082 0.0771744 0.00589344
v 0.334082 0.0771744 0.0007023
v 0.332543 0.0771744 0.017682
v 0.412107 -0.0240484 0.0560546
v 0.41308 -0.0229146 0.041259
v 0.421279 -0.0272439 0.00589344
v 0.255491 0.0771744 0.0007023
v 0.421279 -0.0272439 0.0007023
v 0.324784 0.0771744 0.0766097
v 0.410756 -0.0256719 0.0766097
v 0.425205 -0.0341243 0.017682
v 0.425959 -0.0331451 0.00589344
v 0.423352 -0.0298466 0.0007023
v 0.254015 0.0530283 0.0007023
v 0.199611 0.0394993 0.153534
v 0.199799 0.0422824 0.153534
v 0.201496 0.064805 0.153534
v 0.202249 0.074752 0.153534
v 0.202438 0.0770713 0.153534
v 0.202469 0.0771744 0.153534
v 0.322145 0.0771744 0.0883833
v 0.403312 -0.0206211 0.100172
v 0.409185 -0.0276304 0.100172
v 0.413897 -0.0335316 0.100172
v 0.42464 -0.0348716 0.0263738
v 0.430608 -0.0412625 0.017682
v 0.446659 -0.0604608 0.00589344
v 0.440094 -0.0519311 0.00673121
v 0.436482 -0.0465968 0.00335023
v 0.425959 -0.0331451 0.0007023
v 0.253764 0.0478228 0.0007023
v 0.25345 0.0412258 0.0007023
v 0.199611 0.0357885 0.153534
v 0.295729 0.0771744 0.153534
v 0.319256 0.0771744 0.096716
v 0.401867 -0.0222446 0.11196
v 0.413143 -0.0344851 0.1084
v 0.421342 -0.0392525 0.0766097
v 0.42398 -0.0475245 0.103912
v 0.435351 -0.0598423 0.0883833
v 0.438461 -0.055745 0.041259
v 0.445905 -0.0614916 0.017682
v 0.450303 -0.0673671 0.017682
v 0.451056 -0.066362 0.00589344
v 0.436482 -0.0465968 0.0007023
v 0.254832 0.0360204 0.0007023
v 0.199894 0.0343454 0.153534
v 0.298587 0.0771744 0.146683
v 0.387543 -0.0251565 0.153534
v 0.388046 -0.0245638 0.151096
v 0.312973 0.0771744 0.11196
v 0.400767 -0.0235073 0.118034
v 0.411981 -0.0359797 0.116254
v 0.4084 -0.0301301 0.112185
v 0.437173 -0.0692225 0.120757
v 0.433623 -0.0619812 0.11196
v 0.435853 -0.0591981 0.0809032
v 0.438146 -0.0678824 0.11196
v 0.434566 -0.0608731 0.100172
v 0.447695 -0.0708975 0.0578946
v 0.444334 -0.0635274 0.041259
v 0.456962 -0.0746856 0.00589344
v 0.451056 -0.066362 0.0007023
v 0.25681 0.028573 0.0007023
v 0.200616 0.0333403 0.153534
v 0.259732 0.0240891 0.0007023
v 0.392758 -0.0312639 0.153534
v 0.397155 -0.0276819 0.135522
v 0.399134 -0.0253369 0.125903
v 0.403877 -0.029357 0.122672
v 0.410505 -0.0377836 0.123734
v 0.425959 -0.0568273 0.123734
v 0.447695 -0.0827257 0.116688
v 0.43243 -0.0650993 0.124302
v 0.435634 -0.071284 0.128611
v 0.440377 -0.0757679 0.124302
v 0.459537 -0.106176 0.129374
v 0.444711 -0.0774429 0.112439
v 0.444868 -0.0751495 0.100172
v 0.445654 -0.0739383 0.0883833
v 0.447256 -0.0715675 0.0648212
v 0.438963 -0.0667744 0.100172
v 0.460857 -0.0805611 0.00589344
v 0.458689 -0.0772883 0.0007023
v 0.456962 -0.0746856 0.0007023
v 0.204417 0.0280834 0.153534
v 0.433278 -0.186087 0.0007023
v 0.398443 -0.0381186 0.153534
v 0.39926 -0.0371651 0.149705
v 0.400862 -0.0351551 0.141851
v 0.402181 -0.0335832 0.135522
v 0.403877 -0.0411594 0.146398
v 0.42109 -0.0628316 0.147311
v 0.450334 -0.0786283 0.0766097
v 0.463904 -0.11084 0.124766
v 0.470123 -0.120014 0.123734
v 0.471002 -0.118545 0.114818
v 0.461516 -0.103135 0.11196
v 0.436764 -0.081463 0.143122
v 0.438335 -0.079221 0.135522
v 0.444649 -0.0885754 0.135986
v 0.448952 -0.092647 0.132351
v 0.421624 -0.066697 0.153534
v 0.424546 -0.0703306 0.153534
v 0.429163 -0.0768245 0.153534
v 0.458281 -0.10798 0.135522
v 0.462333 -0.113881 0.135522
v 0.472416 -0.127874 0.132112
v 0.460103 -0.0817465 0.017682
v 0.460857 -0.0805611 0.0007023
v 0.465914 -0.0883692 0.00589344
v 0.207621 0.0243725 0.153534
v 0.520475 -0.186087 0.0007023
v 0.402212 -0.186087 0.153534
v 0.402872 -0.043556 0.153534
v 0.409437 -0.0516476 0.153534
v 0.419488 -0.0640428 0.153534
v 0.462364 -0.0900443 0.041259
v 0.494812 -0.165343 0.128312
v 0.473484 -0.125915 0.123734
v 0.471536 -0.117643 0.106964
v 0.467956 -0.113005 0.111317
v 0.482719 -0.142228 0.123734
v 0.485986 -0.148103 0.123734
v 0.480897 -0.136146 0.113022
v 0.485766 -0.124936 0.0294705
v 0.483001 -0.118185 0.0221401
v 0.468961 -0.109861 0.0883833
v 0.436325 -0.087055 0.153534
v 0.441853 -0.0950178 0.153534
v 0.44735 -0.094992 0.14022
v 0.435131 -0.083808 0.150976
v 0.434597 -0.0845811 0.153534
v 0.456239 -0.112258 0.147595
v 0.448669 -0.104862 0.153534
v 0.460605 -0.116381 0.143855
v 0.46849 -0.123854 0.135837
v 0.458627 -0.119499 0.153534
v 0.470814 -0.130657 0.139981
v 0.481085 -0.145036 0.135522
v 0.484446 -0.150912 0.135522
v 0.469809 -0.0967701 0.017682
v 0.465914 -0.0883692 0.0007023
v 0.480269 -0.110608 0.00589344
v 0.481933 -0.113185 0.0007023
v 0.517397 -0.179336 0.0007023
v 0.520475 -0.186087 0.00589344
v 0.495786 -0.186087 0.153534
v 0.489064 -0.159081 0.135522
v 0.493681 -0.167559 0.135522
v 0.49654 -0.173435 0.135522
v 0.502508 -0.186087 0.135522
v 0.504926 -0.186087 0.124003
v 0.504078 -0.183794 0.122732
v 0.497482 -0.169904 0.124123
v 0.507094 -0.176063 0.073139
v 0.508413 -0.173203 0.0530476
v 0.506277 -0.165987 0.0434881
v 0.506811 -0.164931 0.0356341
v 0.49588 -0.163333 0.11196
v 0.486362 -0.146145 0.113022
v 0.483504 -0.117334 0.014286
v 0.480112 -0.112825 0.0180111
v 0.49566 -0.140192 0.017682
v 0.492425 -0.134291 0.017682
v 0.486048 -0.122746 0.0180111
v 0.488121 -0.123725 0.00589344
v 0.446565 -0.101821 0.153534
v 0.453538 -0.111948 0.153534
v 0.459003 -0.11888 0.151709
v 0.465286 -0.130812 0.153534
v 0.471474 -0.141326 0.153534
v 0.472761 -0.139135 0.147311
v 0.483284 -0.153051 0.141611
v 0.484038 -0.116484 0.00589344
v 0.484038 -0.116484 0.0007023
v 0.515669 -0.175599 0.0007023
v 0.517397 -0.179336 0.00589344
v 0.51969 -0.186087 0.0119223
v 0.498613 -0.186087 0.146713
v 0.495629 -0.185752 0.153534
v 0.485106 -0.159493 0.146249
v 0.495409 -0.175908 0.142449
v 0.484132 -0.162972 0.153534
v 0.49142 -0.171528 0.146757
v 0.501503 -0.186087 0.138544
v 0.505398 -0.186087 0.120488
v 0.505963 -0.186087 0.116254
v 0.509638 -0.186087 0.0883833
v 0.516234 -0.18351 0.0294107
v 0.508727 -0.170291 0.0402418
v 0.511931 -0.170883 0.017682
v 0.513439 -0.170883 0.00589344
v 0.507973 -0.162766 0.017682
v 0.504769 -0.156865 0.017682
v 0.499775 -0.159081 0.0648212
v 0.501063 -0.147304 0.00589344
v 0.496414 -0.1388 0.00589344
v 0.493179 -0.132899 0.00589344
v 0.488121 -0.123725 0.0007023
v 0.482122 -0.159493 0.153534
v 0.513439 -0.170883 0.0007023
v 0.518936 -0.186087 0.017682
v 0.494278 -0.182969 0.153534
v 0.488404 -0.171089 0.153534
v 0.491765 -0.177867 0.153534
v 0.514287 -0.186087 0.0530476
v 0.511366 -0.166683 0.0007023
v 0.508727 -0.161374 0.00589344
v 0.505523 -0.155473 0.00589344
v 0.501063 -0.147304 0.0007023
v 0.499021 -0.143568 0.0007023
v 0.496414 -0.1388 0.0007023
v 0.493179 -0.132899 0.0007023
v 0.508727 -0.161374 0.0007023
v 0.506937 -0.158076 0.0007023
v 0.505523 -0.155473 0.0007023
f 1 2 7
f 1 7 20
f 1 20 34
f 1 34 48
f 1 48 51
f 1 51 35
f 1 35 21
f 1 21 9
f 1 9 3
f 1 3 4
f 1 4 5
f 1 5 6
f 1 6 8
f 1 8 2
f 2 8 13
f 2 13 30
f 2 30 45
f 2 45 63
f 2 63 85
f 2 85 84
f 2 84 110
f 2 110 143
f 2 143 145
f 2 145 176
f 2 176 200
f 2 200 214
f 2 214 213
f 2 213 212
f 2 212 211
f 2 211 217
f 2 217 216
f 2 216 215
f 2 215 208
f 2 208 202
f 2 202 177
f 2 177 146
f 2 146 113
f 2 113 87
f 2 87 66
f 2 66 64
f 2 64 46
f 2 46 32
f 2 32 31
f 2 31 14
f 2 14 7
f 3 9 4
f 4 10 6
f 4 6 5
f 4 9 10
f 6 10 11
f 6 11 12
f 6 12 13
f 6 13 8
f 7 14 15
f 7 15 16
f 7 16 17
f 7 17 18
f 7 18 19
f 7 19 20
f 9 21 22
f 9 22 23
f 9 23 10
f 10 23 24
f 10 24 11
f 11 24 25
f 11 25 26
f 11 26 27
f 11 27 28
f 11 28 29
f 11 29 12
f 12 30 13
f 12 29 45
f 12 45 30
f 14 31 15
f 15 31 32
f 15 32 33
f 15 33 47
f 15 47 65
f 15 65 86
f 15 86 112
f 15 112 114
f 15 114 148
f 15 148 181
f 15 181 204
f 15 204 206
f 15 206 205
f 15 205 184
f 15 184 201
f 15 201 172
f 15 172 171
f 15 171 138
f 15 138 169
f 15 169 135
f 15 135 168
f 15 168 130
f 15 130 129
f 15 129 133
f 15 133 105
f 15 105 104
f 15 104 103
f 15 103 117
f 15 117 116
f 15 116 115
f 15 115 88
f 15 88 67
f 15 67 49
f 15 49 34
f 15 34 20
f 15 20 19
f 15 19 18
f 15 18 17
f 15 17 16
f 21 35 36
f 21 36 22
f 22 36 37
f 22 37 23
f 23 37 24
f 24 38 25
f 24 37 39
f 24 39 40
f 24 40 38
f 25 38 41
f 25 41 42
f 25 42 26
f 26 42 27
f 27 29 28
f 27 42 43
f 27 43 44
f 27 44 29
f 29 44 63
f 29 63 45
f 32 46 47
f 32 47 33
f 34 49 50
f 34 50 48
f 35 51 52
f 35 52 36
f 36 52 53
f 36 53 54
f 36 54 37
f 37 54 53
f 37 53 55
f 37 55 56
f 37 56 39
f 38 40 57
f 38 57 41
f 39 56 58
f 39 58 59
f 39 59 40
f 40 59 60
f 40 60 57
f 41 57 42
f 42 57 61
f 42 61 60
f 42 60 43
f 43 60 62
f 43 62 44
f 44 62 85
f 44 85 63
f 46 64 47
f 47 64 66
f 47 66 65
f 48 50 51
f 49 67 68
f 49 68 69
f 49 69 50
f 50 69 52
f 50 52 51
f 52 69 70
f 52 70 53
f 53 70 71
f 53 71 72
f 53 72 55
f 55 73 58
f 55 58 56
f 55 72 74
f 55 74 75
f 55 75 76
f 55 76 77
f 55 77 73
f 57 60 61
f 58 73 78
f 58 78 79
f 58 79 80
f 58 80 81
f 58 81 82
f 58 82 59
f 59 82 60
f 60 82 81
f 60 81 62
f 62 83 84
f 62 84 85
f 62 81 83
f 65 66 86
f 66 87 86
f 67 88 89
f 67 89 90
f 67 90 91
f 67 91 68
f 68 91 69
f 69 91 70
f 70 91 71
f 71 91 90
f 71 90 89
f 71 89 92
f 71 92 93
f 71 93 72
f 72 93 74
f 73 94 81
f 73 81 80
f 73 80 79
f 73 79 78
f 73 77 95
f 73 95 96
f 73 96 97
f 73 97 98
f 73 98 94
f 74 93 75
f 75 99 100
f 75 100 101
f 75 101 102
f 75 102 77
f 75 77 76
f 75 93 103
f 75 103 104
f 75 104 105
f 75 105 99
f 77 106 107
f 77 107 108
f 77 108 96
f 77 96 95
f 77 102 106
f 81 94 109
f 81 109 83
f 83 110 84
f 83 109 111
f 83 111 143
f 83 143 110
f 86 87 112
f 87 113 147
f 87 147 179
f 87 179 203
f 87 203 207
f 87 207 189
f 87 189 188
f 87 188 187
f 87 187 153
f 87 153 152
f 87 152 186
f 87 186 180
f 87 180 148
f 87 148 114
f 87 114 112
f 88 115 89
f 89 115 92
f 92 115 93
f 93 115 116
f 93 116 117
f 93 117 103
f 94 98 118
f 94 118 109
f 96 108 119
f 96 119 120
f 96 120 97
f 97 121 122
f 97 122 98
f 97 120 123
f 97 123 124
f 97 124 119
f 97 119 125
f 97 125 126
f 97 126 127
f 97 127 121
f 98 122 121
f 98 121 128
f 98 128 142
f 98 142 118
f 99 129 130
f 99 130 131
f 99 131 101
f 99 101 100
f 99 105 132
f 99 132 129
f 101 131 106
f 101 106 102
f 105 133 132
f 106 134 107
f 106 131 135
f 106 135 134
f 107 134 136
f 107 136 137
f 107 137 108
f 108 137 138
f 108 138 139
f 108 139 140
f 108 140 141
f 108 141 119
f 109 118 142
f 109 142 111
f 111 142 144
f 111 144 145
f 111 145 143
f 113 146 178
f 113 178 147
f 119 141 149
f 119 149 150
f 119 150 151
f 119 151 152
f 119 152 153
f 119 153 154
f 119 154 155
f 119 155 156
f 119 156 157
f 119 157 158
f 119 158 159
f 119 159 160
f 119 160 161
f 119 161 125
f 119 124 123
f 119 123 120
f 121 142 128
f 121 127 162
f 121 162 163
f 121 163 142
f 125 161 164
f 125 164 126
f 126 164 165
f 126 165 166
f 126 166 127
f 127 166 167
f 127 167 162
f 129 132 133
f 130 168 131
f 131 168 135
f 134 169 136
f 134 135 169
f 136 169 170
f 136 170 137
f 137 170 138
f 138 170 169
f 138 171 139
f 139 171 172
f 139 172 173
f 139 173 174
f 139 174 140
f 140 174 141
f 141 174 149
f 142 163 144
f 144 163 162
f 144 162 175
f 144 175 145
f 145 175 176
f 146 177 178
f 147 178 179
f 148 180 181
f 149 174 182
f 149 182 150
f 150 183 151
f 150 182 184
f 150 184 185
f 150 185 183
f 151 183 152
f 152 183 186
f 153 187 154
f 154 156 155
f 154 187 188
f 154 188 189
f 154 189 190
f 154 190 156
f 156 190 157
f 157 190 178
f 157 178 191
f 157 191 158
f 158 191 159
f 159 191 192
f 159 192 193
f 159 193 194
f 159 194 195
f 159 195 196
f 159 196 160
f 160 196 161
f 161 196 195
f 161 195 164
f 162 167 175
f 164 195 197
f 164 197 198
f 164 198 199
f 164 199 165
f 165 199 166
f 166 199 167
f 167 199 214
f 167 214 200
f 167 200 176
f 167 176 175
f 172 201 174
f 172 174 173
f 174 201 184
f 174 184 182
f 177 193 178
f 177 202 193
f 178 190 179
f 178 193 192
f 178 192 191
f 179 190 203
f 180 186 183
f 180 183 204
f 180 204 181
f 183 185 205
f 183 205 206
f 183 206 204
f 184 205 185
f 189 207 190
f 190 207 203
f 193 202 208
f 193 208 209
f 193 209 194
f 194 209 210
f 194 210 195
f 195 210 197
f 197 211 212
f 197 212 198
f 197 210 217
f 197 217 211
f 198 212 213
f 198 213 214
f 198 214 199
f 208 215 209
f 209 215 216
f 209 216 210
f 210 216 217
