v -0.323306 0.033481 -0.168648
v -0.320727 0.0306489 -0.168648
v -0.320727 0.035852 -0.168677
v -0.332072 0.0254459 -0.168648
v -0.320727 -0.0796689 -0.168648
v -0.320727 0.0336456 -0.174431
v -0.323851 0.0317357 -0.171936
v -0.330248 0.0237664 -0.177407
v -0.337945 0.0200123 -0.168648
v -0.447712 -0.300568 -0.168648
v -0.320727 -0.300568 -0.356667
v -0.320727 0.030155 -0.182254
v -0.328465 0.0222845 -0.185259
v -0.335449 0.0172791 -0.181602
v -0.344194 0.0141177 -0.168648
v -0.534955 -0.300568 -0.168648
v -0.320727 -0.300568 -0.45823
v -0.320727 0.0255776 -0.19158
v -0.332387 0.0140519 -0.194471
v -0.340629 0.0105612 -0.185826
v -0.342286 0.0122407 -0.177974
v -0.350087 0.00809141 -0.168648
v -0.529397 -0.300568 -0.182084
v -0.527698 -0.277088 -0.168648
v -0.527321 -0.277714 -0.170037
v -0.37712 -0.300568 -0.414946
v -0.378735 -0.300502 -0.413699
v -0.320727 -0.300239 -0.458117
v -0.320727 0.02538 -0.191949
v -0.330416 0.0121419 -0.200906
v -0.342516 0.000714936 -0.201416
v -0.33828 0.00845365 -0.194471
v -0.344257 0.00255905 -0.194471
v -0.354282 -0.0110413 -0.201586
v -0.355855 -0.00939479 -0.194471
v -0.352205 -0.00145849 -0.185287
v -0.347235 0.00542402 -0.181631
v -0.349626 0.00759745 -0.170916
v -0.351157 0.00697177 -0.168648
v -0.509327 -0.300272 -0.230329
v -0.509306 -0.300568 -0.230584
v -0.516751 -0.276397 -0.194585
v -0.502322 -0.276957 -0.229847
v -0.523357 -0.264542 -0.168648
v -0.519855 -0.267604 -0.17993
v -0.518219 -0.272116 -0.18781
v -0.521386 -0.276397 -0.183388
v -0.392283 -0.300568 -0.403296
v -0.377288 -0.294344 -0.412593
v -0.3305 -0.293587 -0.448224
v -0.384628 -0.300502 -0.409163
v -0.388424 -0.283938 -0.400291
v -0.320727 -0.277023 -0.449755
v -0.320727 0.0219223 -0.197703
v -0.320727 0.0170486 -0.205725
v -0.320727 0.0134262 -0.211536
v -0.320727 0.011121 -0.214966
v -0.327417 0.00940864 -0.208758
v -0.335008 0.00506179 -0.205101
v -0.356043 -0.0213486 -0.215391
v -0.363908 -0.025004 -0.209296
v -0.365837 -0.023094 -0.201444
v -0.361748 -0.0156516 -0.194471
v -0.378546 -0.022106 -0.168648
v -0.366634 -0.0104486 -0.170916
v -0.355183 0.00170285 -0.170916
v -0.362608 -0.00517966 -0.168648
v -0.496199 -0.300568 -0.262218
v -0.504902 -0.300568 -0.241214
v -0.493976 -0.286144 -0.256832
v -0.494374 -0.273005 -0.246061
v -0.492675 -0.276957 -0.253119
v -0.521952 -0.264278 -0.171823
v -0.520107 -0.256079 -0.168648
v -0.518366 -0.259734 -0.176358
v -0.507125 -0.270107 -0.212981
v -0.483259 -0.270865 -0.271232
v -0.398176 -0.300568 -0.398137
v -0.398155 -0.300502 -0.398137
v -0.375442 -0.286474 -0.411176
v -0.386767 -0.276957 -0.399044
v -0.367305 -0.276957 -0.413982
v -0.352751 -0.272807 -0.423648
v -0.320727 -0.268131 -0.446325
v -0.320727 0.00782796 -0.219728
v -0.320727 0.00246026 -0.227438
v -0.320727 -0.0178251 -0.256436
v -0.344614 -0.0210193 -0.229847
v -0.353044 -0.0241148 -0.223243
v -0.360426 -0.0284946 -0.219302
v -0.367515 -0.0328415 -0.215334
v -0.387879 -0.0600751 -0.22174
v -0.369235 -0.0291532 -0.205725
v -0.373911 -0.0295484 -0.19552
v -0.375631 -0.0253003 -0.182679
v -0.376952 -0.0238184 -0.17633
v -0.367284 -0.0215462 -0.194471
v -0.384104 -0.0284617 -0.168648
v -0.493745 -0.300502 -0.268086
v -0.493745 -0.300568 -0.268114
v -0.487663 -0.276957 -0.265194
v -0.518639 -0.252358 -0.168648
v -0.513438 -0.241589 -0.170916
v -0.508803 -0.241918 -0.182424
v -0.507335 -0.246068 -0.189936
v -0.484601 -0.254235 -0.252637
v -0.483406 -0.258746 -0.259809
v -0.494521 -0.260491 -0.234609
v -0.503665 -0.26576 -0.217375
v -0.484391 -0.266221 -0.264316
v -0.48177 -0.262994 -0.267661
v -0.470718 -0.237209 -0.269616
v -0.472375 -0.24508 -0.272593
v -0.478687 -0.266221 -0.275881
v -0.480994 -0.276957 -0.279027
v -0.48242 -0.284992 -0.281522
v -0.483804 -0.292829 -0.283704
v -0.489739 -0.300502 -0.276986
v -0.48976 -0.300568 -0.276986
v -0.403314 -0.300568 -0.392241
v -0.403293 -0.300502 -0.392241
v -0.401741 -0.291809 -0.390228
v -0.400315 -0.283938 -0.388386
v -0.399057 -0.276957 -0.386742
v -0.390794 -0.265168 -0.390767
v -0.389305 -0.258483 -0.389265
v -0.382803 -0.264707 -0.397145
v -0.378714 -0.268296 -0.401907
v -0.365732 -0.270404 -0.412763
v -0.320727 -0.263422 -0.444256
v -0.320727 -0.0212828 -0.261339
v -0.331296 -0.0224024 -0.249179
v -0.34216 -0.0232586 -0.236225
v -0.328276 -0.0252674 -0.257031
v -0.320727 -0.0263212 -0.268256
v -0.33914 -0.0261894 -0.244077
v -0.346543 -0.0306022 -0.240137
v -0.343062 -0.0340599 -0.249151
v -0.356358 -0.0325451 -0.229847
v -0.364789 -0.0359699 -0.223214
v -0.376365 -0.0479896 -0.222704
v -0.375736 -0.0370566 -0.206263
v -0.391171 -0.0679456 -0.227466
v -0.399434 -0.072523 -0.218055
v -0.393038 -0.0643232 -0.217913
v -0.377057 -0.0355088 -0.200141
v -0.378672 -0.033533 -0.19226
v -0.380664 -0.0311949 -0.182679
v -0.387585 -0.0325121 -0.168648
v -0.38337 -0.0290544 -0.171681
v -0.514276 -0.241359 -0.168648
v -0.508929 -0.230031 -0.170746
v -0.470886 -0.225256 -0.258023
v -0.479757 -0.254235 -0.264316
v -0.474136 -0.241326 -0.265506
v -0.469208 -0.229438 -0.265506
v -0.461322 -0.208659 -0.262473
v -0.463566 -0.217385 -0.265931
v -0.459162 -0.213038 -0.270325
v -0.461113 -0.220876 -0.273046
v -0.467761 -0.241326 -0.276703
v -0.471431 -0.25924 -0.282882
v -0.472731 -0.265168 -0.284583
v -0.474451 -0.277879 -0.288948
v -0.4807 -0.300502 -0.291414
v -0.485084 -0.300502 -0.285519
v -0.485105 -0.300568 -0.285519
v -0.479044 -0.288845 -0.288098
v -0.409207 -0.300568 -0.384616
v -0.40646 -0.289141 -0.38283
v -0.403587 -0.276957 -0.380846
v -0.423657 -0.272807 -0.352727
v -0.412793 -0.270404 -0.365709
v -0.40193 -0.268296 -0.378692
v -0.397169 -0.264707 -0.382773
v -0.392136 -0.25407 -0.383057
v -0.390521 -0.244059 -0.379173
v -0.388697 -0.236189 -0.376821
v -0.387229 -0.2298 -0.374893
v -0.376994 -0.212347 -0.376962
v -0.374939 -0.2298 -0.387195
v -0.383097 -0.25407 -0.392128
v -0.400189 -0.260458 -0.376424
v -0.376449 -0.260458 -0.400149
v -0.363488 -0.262533 -0.411034
v -0.320727 -0.255223 -0.440542
v -0.329661 -0.259833 -0.43578
v -0.320727 -0.0328415 -0.276675
v -0.329178 -0.0362662 -0.269985
v -0.320727 -0.0412388 -0.287163
v -0.34734 -0.041634 -0.252949
v -0.374352 -0.0523694 -0.230953
v -0.380035 -0.05586 -0.22775
v -0.380559 -0.0429512 -0.206263
v -0.388634 -0.0711069 -0.235318
v -0.399686 -0.0837853 -0.233986
v -0.401825 -0.0809203 -0.226105
v -0.400693 -0.0707776 -0.212074
v -0.415205 -0.102194 -0.229847
v -0.403587 -0.0784176 -0.218055
v -0.397819 -0.0648172 -0.207397
v -0.394506 -0.0416669 -0.170094
v -0.389452 -0.0347185 -0.168648
v -0.389724 -0.0461784 -0.190475
v -0.51348 -0.23935 -0.168648
v -0.509767 -0.229998 -0.168648
v -0.507062 -0.223247 -0.168648
v -0.505846 -0.226243 -0.174544
v -0.494731 -0.224564 -0.199744
v -0.483616 -0.222917 -0.224943
v -0.4725 -0.22137 -0.250143
v -0.469397 -0.217649 -0.253799
v -0.459393 -0.200788 -0.25876
v -0.447628 -0.177144 -0.258845
v -0.45092 -0.206946 -0.27676
v -0.448299 -0.211326 -0.283449
v -0.456373 -0.217385 -0.276986
v -0.445174 -0.181721 -0.265591
v -0.436387 -0.223247 -0.306863
v -0.44725 -0.225157 -0.293881
v -0.458135 -0.227166 -0.280926
v -0.462644 -0.230557 -0.276986
v -0.461469 -0.241589 -0.285263
v -0.458743 -0.249394 -0.293512
v -0.418603 -0.252917 -0.347936
v -0.403083 -0.253378 -0.36843
v -0.415604 -0.265925 -0.359501
v -0.457799 -0.265168 -0.304057
v -0.448404 -0.269778 -0.318938
v -0.459267 -0.27205 -0.305984
v -0.470152 -0.274586 -0.293002
v -0.460693 -0.279888 -0.307827
v -0.456226 -0.276364 -0.311994
v -0.474828 -0.300568 -0.299096
v -0.4807 -0.300568 -0.291414
v -0.411199 -0.286474 -0.375403
v -0.398553 -0.253378 -0.374326
v -0.395051 -0.241095 -0.37152
v -0.391759 -0.2298 -0.369026
v -0.389913 -0.221962 -0.366616
v -0.383475 -0.217155 -0.371803
v -0.366257 -0.199142 -0.377813
v -0.368857 -0.206222 -0.379825
v -0.35619 -0.208593 -0.390909
v -0.364055 -0.214092 -0.387904
v -0.371814 -0.217155 -0.383454
v -0.387921 -0.214092 -0.364037
v -0.390941 -0.208593 -0.356157
v -0.379846 -0.206222 -0.368827
v -0.37561 -0.191271 -0.363328
v -0.365502 -0.176551 -0.365454
v -0.369046 -0.2298 -0.391731
v -0.366634 -0.221962 -0.389888
v -0.353653 -0.223774 -0.400745
v -0.368438 -0.253378 -0.403069
v -0.342642 -0.257857 -0.424924
v -0.347256 -0.229734 -0.408426
v -0.320727 -0.253378 -0.439692
v -0.320727 -0.0356076 -0.280133
v -0.320727 -0.0563869 -0.305786
v -0.344446 -0.0561235 -0.274549
v -0.348724 -0.0637305 -0.278319
v -0.366194 -0.0580664 -0.248584
v -0.35598 -0.0681432 -0.274265
v -0.342118 -0.0703825 -0.295071
v -0.353002 -0.0714033 -0.282117
v -0.391842 -0.0789444 -0.239513
v -0.402748 -0.0916557 -0.238521
v -0.413506 -0.104663 -0.237359
v -0.411808 -0.0716997 -0.186875
v -0.413402 -0.0695921 -0.179023
v -0.41034 -0.0616229 -0.170916
v -0.424076 -0.118231 -0.235204
v -0.421623 -0.111941 -0.230697
v -0.410025 -0.0882638 -0.219076
v -0.411304 -0.0842463 -0.209268
v -0.414366 -0.0798336 -0.194471
v -0.399141 -0.0608984 -0.196541
v -0.409983 -0.0600422 -0.168648
v -0.395491 -0.0421608 -0.168648
v -0.392262 -0.0381762 -0.168648
v -0.505804 -0.220283 -0.168648
v -0.496366 -0.220711 -0.191892
v -0.504042 -0.218208 -0.170746
v -0.481917 -0.215047 -0.220833
v -0.470802 -0.213499 -0.246033
v -0.463482 -0.205332 -0.254253
v -0.461029 -0.197462 -0.250908
v -0.45738 -0.182479 -0.242064
v -0.449347 -0.173752 -0.250993
v -0.447376 -0.165914 -0.246373
v -0.445908 -0.170261 -0.25431
v -0.437205 -0.151227 -0.249519
v -0.424559 -0.129197 -0.247903
v -0.437456 -0.162918 -0.261141
v -0.439533 -0.171315 -0.265109
v -0.417785 -0.195519 -0.31154
v -0.426027 -0.206222 -0.308705
v -0.412688 -0.21182 -0.33022
v -0.423552 -0.213565 -0.317238
v -0.434415 -0.215376 -0.304284
v -0.425125 -0.187089 -0.295723
v -0.429969 -0.218406 -0.312079
v -0.425544 -0.221403 -0.319817
v -0.436743 -0.175563 -0.271998
v -0.422881 -0.179251 -0.292832
v -0.400776 -0.223774 -0.353634
v -0.411661 -0.22575 -0.340651
v -0.444272 -0.229372 -0.300343
v -0.359441 -0.194893 -0.380647
v -0.35986 -0.2053 -0.386232
v -0.363342 -0.191271 -0.375573
v -0.352583 -0.178099 -0.376367
v -0.343209 -0.210206 -0.401793
v -0.330248 -0.21182 -0.41265
v -0.320727 -0.215706 -0.421976
v -0.358854 -0.218933 -0.394338
v -0.401804 -0.210206 -0.343202
v -0.388718 -0.200722 -0.353265
v -0.386243 -0.2053 -0.359842
v -0.412017 -0.177638 -0.305786
v -0.376386 -0.178132 -0.352557
v -0.373471 -0.182281 -0.359416
v -0.367851 -0.171908 -0.358934
v -0.366215 -0.163708 -0.354654
v -0.352814 -0.14227 -0.352783
v -0.354701 -0.163708 -0.366191
v -0.358958 -0.171908 -0.367835
v -0.359441 -0.182281 -0.373448
v -0.340671 -0.22575 -0.41163
v -0.320727 -0.220612 -0.424442
v -0.320727 -0.223444 -0.425802
v -0.320727 -0.230524 -0.429147
v -0.320727 -0.059219 -0.309244
v -0.323956 -0.0650148 -0.312107
v -0.331213 -0.0694275 -0.308025
v -0.328214 -0.0728852 -0.315877
v -0.33526 -0.0773638 -0.311512
v -0.331443 -0.0807227 -0.320044
v -0.342328 -0.0818753 -0.307118
v -0.377959 -0.081513 -0.260347
v -0.395848 -0.0871442 -0.242943
v -0.410885 -0.108088 -0.245211
v -0.41401 -0.115959 -0.249491
v -0.422315 -0.120734 -0.241611
v -0.421916 -0.0754209 -0.168648
v -0.426257 -0.081546 -0.168648
v -0.425607 -0.0806239 -0.168648
v -0.415646 -0.0670565 -0.168648
v -0.411766 -0.0622486 -0.168648
v -0.434835 -0.14339 -0.244729
v -0.438694 -0.147309 -0.241129
v -0.436534 -0.140591 -0.236877
v -0.445698 -0.135223 -0.207142
v -0.450983 -0.135223 -0.194386
v -0.461553 -0.135915 -0.169839
v -0.4479 -0.11777 -0.176954
v -0.445069 -0.110064 -0.170916
v -0.425146 -0.0930717 -0.190645
v -0.504902 -0.218208 -0.168648
v -0.504483 -0.217253 -0.168648
v -0.494647 -0.212874 -0.187782
v -0.483553 -0.211425 -0.212981
v -0.472437 -0.210042 -0.238181
v -0.468998 -0.206156 -0.241922
v -0.481455 -0.182116 -0.18353
v -0.471557 -0.176452 -0.200736
v -0.458827 -0.178428 -0.233787
v -0.488691 -0.206222 -0.194471
v -0.460442 -0.175102 -0.225935
v -0.483364 -0.173488 -0.168648
v -0.471221 -0.165355 -0.188122
v -0.460106 -0.164169 -0.213321
v -0.448991 -0.163017 -0.238521
v -0.445195 -0.159098 -0.242121
v -0.417806 -0.124619 -0.252637
v -0.422252 -0.135519 -0.256634
v -0.426614 -0.161568 -0.274123
v -0.41273 -0.164663 -0.294958
v -0.423615 -0.166112 -0.281975
v -0.434457 -0.167693 -0.268993
v -0.430703 -0.158307 -0.265875
v -0.425901 -0.173982 -0.284952
v -0.327333 -0.203949 -0.410439
v -0.348242 -0.205464 -0.395246
v -0.348263 -0.169734 -0.374808
v -0.328759 -0.166573 -0.387961
v -0.331737 -0.174443 -0.390257
v -0.320727 -0.17418 -0.398562
v -0.320727 -0.18261 -0.403381
v -0.323684 -0.20721 -0.415088
v -0.320727 -0.21014 -0.418999
v -0.39027 -0.174443 -0.331722
v -0.379406 -0.172896 -0.344705
v -0.374813 -0.169734 -0.348248
v -0.377099 -0.165058 -0.3417
v -0.363551 -0.155838 -0.351196
v -0.356022 -0.137825 -0.344932
v -0.351178 -0.123763 -0.338667
v -0.342747 -0.11665 -0.342721
v -0.3387 -0.123763 -0.351139
v -0.341489 -0.13002 -0.353322
v -0.35122 -0.155838 -0.363526
v -0.347445 -0.159493 -0.368912
v -0.34174 -0.165058 -0.377076
v -0.320727 -0.0681102 -0.319477
v -0.320727 -0.0692628 -0.320696
v -0.327941 -0.0844768 -0.327924
v -0.33159 -0.0923472 -0.331581
v -0.342642 -0.105058 -0.33107
v -0.335449 -0.0889554 -0.323502
v -0.353359 -0.0945865 -0.306154
v -0.378274 -0.104696 -0.284328
v -0.397442 -0.0996579 -0.254026
v -0.399854 -0.0953769 -0.246373
v -0.389284 -0.11744 -0.283308
v -0.400147 -0.118692 -0.270325
v -0.41099 -0.120009 -0.257343
v -0.40302 -0.103247 -0.250511
v -0.397715 -0.111315 -0.265931
v -0.444817 -0.108352 -0.168648
v -0.458114 -0.155772 -0.206263
v -0.447649 -0.141743 -0.211677
v -0.462077 -0.13598 -0.168648
v -0.461092 -0.134301 -0.168648
v -0.472836 -0.162523 -0.18027
v -0.468054 -0.147704 -0.170831
v -0.468474 -0.14688 -0.168648
v -0.456205 -0.126035 -0.168648
v -0.455282 -0.124488 -0.168648
v -0.449138 -0.115959 -0.170916
v -0.499261 -0.205991 -0.168648
v -0.496283 -0.209449 -0.17993
v -0.48651 -0.182116 -0.171313
v -0.482672 -0.177835 -0.175536
v -0.487034 -0.193543 -0.18353
v -0.494374 -0.201611 -0.17531
v -0.484098 -0.17497 -0.168648
v -0.48133 -0.169438 -0.168648
v -0.406921 -0.123269 -0.26562
v -0.402853 -0.126529 -0.273868
v -0.378106 -0.128275 -0.307685
v -0.380266 -0.136145 -0.311909
v -0.413402 -0.140097 -0.272253
v -0.395093 -0.158703 -0.312674
v -0.387984 -0.166606 -0.328746
v -0.320727 -0.162193 -0.391249
v -0.320727 -0.170097 -0.396181
v -0.320727 -0.206913 -0.417185
v -0.366571 -0.151425 -0.343344
v -0.360112 -0.134564 -0.336711
v -0.355729 -0.123763 -0.332771
v -0.353653 -0.11777 -0.330078
v -0.330122 -0.11777 -0.353634
v -0.346627 -0.113291 -0.3345
v -0.320727 -0.0822375 -0.332148
v -0.331087 -0.105058 -0.342607
v -0.334526 -0.113291 -0.346604
v -0.332806 -0.123763 -0.355703
v -0.336749 -0.134564 -0.360097
v -0.320727 -0.150865 -0.383539
v -0.320727 -0.161897 -0.39105
v -0.35122 -0.10901 -0.324097
v -0.345033 -0.100745 -0.323445
v -0.382258 -0.112929 -0.287758
v -0.449515 -0.115168 -0.168648
v -0.47552 -0.158933 -0.168648
v -0.474556 -0.158801 -0.170831
v -0.468956 -0.147704 -0.168648
v -0.494877 -0.197001 -0.168648
v -0.498128 -0.205826 -0.171199
v -0.493011 -0.193181 -0.168648
v -0.361853 -0.123302 -0.324381
v -0.326976 -0.0971881 -0.339432
v -0.324124 -0.10901 -0.351196
v -0.324124 -0.114905 -0.35593
v -0.320727 -0.116946 -0.360068
v -0.320727 -0.121162 -0.363158
v -0.320727 -0.127122 -0.367296
v -0.323516 -0.0889554 -0.335436
v -0.320727 -0.0918203 -0.339914
v -0.320727 -0.134696 -0.372484
v -0.471787 -0.152545 -0.168648
v -0.320727 -0.0961343 -0.343401
v -0.320727 -0.107397 -0.3525
v -0.320727 -0.113522 -0.357404
f 1 2 3
f 1 3 4
f 1 4 9
f 1 9 15
f 1 15 22
f 1 22 39
f 1 39 67
f 1 67 64
f 1 64 98
f 1 98 149
f 1 149 203
f 1 203 281
f 1 281 280
f 1 280 279
f 1 279 350
f 1 350 349
f 1 349 346
f 1 346 348
f 1 348 347
f 1 347 421
f 1 421 466
f 1 466 430
f 1 430 429
f 1 429 425
f 1 425 424
f 1 424 428
f 1 428 469
f 1 469 483
f 1 483 467
f 1 467 439
f 1 439 371
f 1 371 438
f 1 438 472
f 1 472 470
f 1 470 432
f 1 432 361
f 1 361 360
f 1 360 282
f 1 282 207
f 1 207 206
f 1 206 205
f 1 205 151
f 1 151 102
f 1 102 74
f 1 74 44
f 1 44 24
f 1 24 16
f 1 16 10
f 1 10 5
f 1 5 2
f 2 5 11
f 2 11 17
f 2 17 28
f 2 28 53
f 2 53 84
f 2 84 130
f 2 130 186
f 2 186 258
f 2 258 333
f 2 333 332
f 2 332 331
f 2 331 316
f 2 316 392
f 2 392 449
f 2 449 390
f 2 390 389
f 2 389 448
f 2 448 447
f 2 447 462
f 2 462 461
f 2 461 482
f 2 482 479
f 2 479 478
f 2 478 477
f 2 477 486
f 2 486 485
f 2 485 484
f 2 484 481
f 2 481 456
f 2 456 407
f 2 407 406
f 2 406 334
f 2 334 260
f 2 260 190
f 2 190 259
f 2 259 188
f 2 188 135
f 2 135 131
f 2 131 87
f 2 87 86
f 2 86 85
f 2 85 57
f 2 57 56
f 2 56 55
f 2 55 54
f 2 54 29
f 2 29 18
f 2 18 12
f 2 12 6
f 2 6 3
f 3 6 7
f 3 7 4
f 4 8 9
f 4 7 8
f 5 10 11
f 6 12 13
f 6 13 8
f 6 8 7
f 8 13 14
f 8 14 9
f 9 14 15
f 10 16 23
f 10 23 41
f 10 41 69
f 10 69 68
f 10 68 100
f 10 100 119
f 10 119 167
f 10 167 235
f 10 235 234
f 10 234 169
f 10 169 120
f 10 120 78
f 10 78 48
f 10 48 26
f 10 26 17
f 10 17 11
f 12 18 13
f 13 18 19
f 13 19 20
f 13 20 14
f 14 20 21
f 14 21 15
f 15 21 22
f 16 24 25
f 16 25 23
f 17 26 27
f 17 27 28
f 18 29 19
f 19 30 31
f 19 31 32
f 19 32 20
f 19 29 30
f 20 32 33
f 20 33 34
f 20 34 35
f 20 35 36
f 20 36 37
f 20 37 38
f 20 38 21
f 21 38 39
f 21 39 22
f 23 40 41
f 23 25 42
f 23 42 43
f 23 43 40
f 24 44 45
f 24 45 46
f 24 46 25
f 25 46 47
f 25 47 42
f 26 48 27
f 27 49 50
f 27 50 28
f 27 48 51
f 27 51 52
f 27 52 49
f 28 50 53
f 29 54 30
f 30 54 55
f 30 55 56
f 30 56 57
f 30 57 58
f 30 58 59
f 30 59 31
f 31 60 61
f 31 61 34
f 31 34 33
f 31 33 32
f 31 59 60
f 34 61 62
f 34 62 35
f 35 62 63
f 35 63 36
f 36 63 64
f 36 64 65
f 36 65 66
f 36 66 37
f 37 66 39
f 37 39 38
f 39 66 65
f 39 65 67
f 40 68 69
f 40 69 41
f 40 43 70
f 40 70 68
f 42 47 46
f 42 46 71
f 42 71 43
f 43 71 72
f 43 72 70
f 44 73 45
f 44 74 75
f 44 75 73
f 45 76 46
f 45 73 75
f 45 75 76
f 46 76 77
f 46 77 71
f 48 78 79
f 48 79 52
f 48 52 51
f 49 52 80
f 49 80 50
f 50 80 53
f 52 81 80
f 52 79 81
f 53 80 82
f 53 82 83
f 53 83 84
f 57 85 58
f 58 85 86
f 58 86 59
f 59 86 87
f 59 87 88
f 59 88 60
f 60 88 89
f 60 89 90
f 60 90 91
f 60 91 61
f 61 91 92
f 61 92 93
f 61 93 62
f 62 93 94
f 62 94 95
f 62 95 96
f 62 96 64
f 62 64 97
f 62 97 63
f 63 97 64
f 64 67 65
f 64 96 98
f 68 99 100
f 68 70 99
f 70 72 101
f 70 101 99
f 71 77 101
f 71 101 72
f 74 102 75
f 75 102 103
f 75 103 104
f 75 104 105
f 75 105 106
f 75 106 107
f 75 107 108
f 75 108 109
f 75 109 76
f 76 109 110
f 76 110 77
f 77 110 111
f 77 111 112
f 77 112 113
f 77 113 114
f 77 114 115
f 77 115 116
f 77 116 117
f 77 117 118
f 77 118 119
f 77 119 99
f 77 99 101
f 78 120 121
f 78 121 79
f 79 121 122
f 79 122 123
f 79 123 124
f 79 124 125
f 79 125 81
f 80 81 82
f 81 125 126
f 81 126 127
f 81 127 128
f 81 128 129
f 81 129 83
f 81 83 82
f 83 129 84
f 84 129 128
f 84 128 130
f 87 131 132
f 87 132 88
f 88 132 133
f 88 133 89
f 89 133 134
f 89 134 135
f 89 135 136
f 89 136 90
f 90 136 137
f 90 137 138
f 90 138 139
f 90 139 140
f 90 140 91
f 91 140 141
f 91 141 92
f 92 142 93
f 92 141 143
f 92 143 144
f 92 144 145
f 92 145 142
f 93 142 146
f 93 146 94
f 94 146 147
f 94 147 95
f 95 98 96
f 95 147 148
f 95 148 149
f 95 149 150
f 95 150 98
f 98 150 149
f 99 119 100
f 102 151 152
f 102 152 103
f 103 152 104
f 104 152 153
f 104 153 106
f 104 106 105
f 106 154 107
f 106 153 154
f 107 154 111
f 107 111 110
f 107 110 108
f 108 110 109
f 111 154 155
f 111 155 112
f 112 155 153
f 112 153 156
f 112 156 157
f 112 157 158
f 112 158 159
f 112 159 160
f 112 160 113
f 113 160 161
f 113 161 162
f 113 162 163
f 113 163 115
f 113 115 114
f 115 163 116
f 116 163 164
f 116 164 117
f 117 165 166
f 117 166 167
f 117 167 119
f 117 119 118
f 117 164 168
f 117 168 165
f 120 169 121
f 121 169 122
f 122 169 170
f 122 170 171
f 122 171 123
f 123 171 124
f 124 171 172
f 124 172 173
f 124 173 174
f 124 174 175
f 124 175 126
f 124 126 125
f 126 176 177
f 126 177 178
f 126 178 179
f 126 179 180
f 126 180 181
f 126 181 182
f 126 182 127
f 126 175 183
f 126 183 176
f 127 184 128
f 127 182 184
f 128 184 185
f 128 185 130
f 130 185 187
f 130 187 186
f 131 135 134
f 131 134 132
f 132 134 133
f 135 188 138
f 135 138 137
f 135 137 136
f 138 189 140
f 138 140 139
f 138 188 189
f 140 189 190
f 140 190 191
f 140 191 192
f 140 192 193
f 140 193 141
f 141 193 143
f 142 194 146
f 142 145 194
f 143 195 196
f 143 196 197
f 143 197 144
f 143 193 195
f 144 198 145
f 144 197 199
f 144 199 200
f 144 200 198
f 145 198 201
f 145 201 194
f 146 202 203
f 146 203 147
f 146 194 204
f 146 204 202
f 147 203 148
f 148 203 149
f 151 205 152
f 152 205 206
f 152 206 207
f 152 207 208
f 152 208 153
f 153 208 209
f 153 209 207
f 153 207 210
f 153 210 211
f 153 211 212
f 153 212 157
f 153 157 156
f 153 155 154
f 157 213 214
f 157 214 159
f 157 159 158
f 157 212 213
f 159 215 216
f 159 216 217
f 159 217 160
f 159 214 218
f 159 218 215
f 160 217 219
f 160 219 220
f 160 220 221
f 160 221 222
f 160 222 162
f 160 162 161
f 162 222 221
f 162 221 223
f 162 223 224
f 162 224 225
f 162 225 226
f 162 226 183
f 162 183 227
f 162 227 174
f 162 174 228
f 162 228 163
f 163 228 229
f 163 229 230
f 163 230 231
f 163 231 164
f 164 232 165
f 164 165 168
f 164 231 233
f 164 233 232
f 165 169 234
f 165 234 235
f 165 235 167
f 165 167 166
f 165 232 169
f 169 232 233
f 169 233 236
f 169 236 170
f 170 236 171
f 171 236 233
f 171 233 230
f 171 230 172
f 172 230 173
f 173 230 229
f 173 229 174
f 174 229 228
f 174 227 183
f 174 183 175
f 176 183 237
f 176 237 177
f 177 237 238
f 177 238 239
f 177 239 178
f 178 239 179
f 179 239 240
f 179 240 241
f 179 241 180
f 180 242 243
f 180 243 244
f 180 244 245
f 180 245 246
f 180 246 181
f 180 241 247
f 180 247 248
f 180 248 249
f 180 249 250
f 180 250 251
f 180 251 242
f 181 252 182
f 181 246 253
f 181 253 254
f 181 254 252
f 182 252 255
f 182 255 256
f 182 256 184
f 183 226 237
f 184 256 187
f 184 187 185
f 186 187 256
f 186 256 255
f 186 255 257
f 186 257 258
f 188 259 189
f 189 259 190
f 190 260 261
f 190 261 192
f 190 192 191
f 192 261 262
f 192 262 263
f 192 263 195
f 192 195 193
f 194 201 204
f 195 262 264
f 195 264 265
f 195 265 266
f 195 266 267
f 195 267 268
f 195 268 196
f 195 263 262
f 196 268 269
f 196 269 197
f 197 269 199
f 198 200 270
f 198 270 271
f 198 271 272
f 198 272 201
f 199 269 273
f 199 273 274
f 199 274 275
f 199 275 200
f 200 275 276
f 200 276 277
f 200 277 270
f 201 272 278
f 201 278 204
f 202 279 280
f 202 280 281
f 202 281 203
f 202 204 272
f 202 272 279
f 204 278 272
f 207 282 283
f 207 283 210
f 207 209 208
f 210 283 212
f 210 212 211
f 212 283 284
f 212 284 285
f 212 285 286
f 212 286 287
f 212 287 213
f 213 287 288
f 213 288 289
f 213 289 290
f 213 290 214
f 214 290 291
f 214 291 292
f 214 292 293
f 214 293 294
f 214 294 295
f 214 295 296
f 214 296 218
f 215 218 216
f 216 297 298
f 216 298 299
f 216 299 300
f 216 300 301
f 216 301 217
f 216 218 302
f 216 302 297
f 217 301 303
f 217 303 304
f 217 304 219
f 218 296 305
f 218 305 306
f 218 306 302
f 219 304 307
f 219 307 220
f 220 307 221
f 221 307 308
f 221 308 309
f 221 309 223
f 223 309 224
f 224 309 225
f 225 239 238
f 225 238 226
f 225 309 239
f 226 238 237
f 230 233 231
f 239 309 308
f 239 308 307
f 239 307 240
f 240 307 304
f 240 304 247
f 240 247 241
f 242 310 311
f 242 311 243
f 242 251 312
f 242 312 313
f 242 313 310
f 243 311 244
f 244 311 314
f 244 314 245
f 245 314 315
f 245 315 316
f 245 316 317
f 245 317 253
f 245 253 246
f 247 303 301
f 247 301 300
f 247 300 299
f 247 299 318
f 247 318 248
f 247 304 303
f 248 318 319
f 248 319 320
f 248 320 249
f 249 320 319
f 249 319 250
f 250 306 321
f 250 321 322
f 250 322 323
f 250 323 251
f 250 319 297
f 250 297 306
f 251 323 322
f 251 322 324
f 251 324 325
f 251 325 326
f 251 326 327
f 251 327 328
f 251 328 313
f 251 313 329
f 251 329 312
f 252 254 330
f 252 330 257
f 252 257 255
f 253 317 331
f 253 331 254
f 254 332 330
f 254 331 332
f 257 333 258
f 257 330 333
f 260 334 265
f 260 265 262
f 260 262 261
f 262 265 264
f 265 335 336
f 265 336 337
f 265 337 266
f 265 334 335
f 266 337 338
f 266 338 339
f 266 339 340
f 266 340 341
f 266 341 267
f 267 341 342
f 267 342 268
f 268 343 269
f 268 342 344
f 268 344 343
f 269 343 344
f 269 344 294
f 269 294 345
f 269 345 273
f 270 346 271
f 270 277 347
f 270 347 348
f 270 348 346
f 271 346 349
f 271 349 272
f 272 349 350
f 272 350 279
f 273 345 294
f 273 294 351
f 273 351 352
f 273 352 353
f 273 353 354
f 273 354 355
f 273 355 356
f 273 356 357
f 273 357 274
f 274 358 359
f 274 359 275
f 274 357 358
f 275 359 276
f 276 347 277
f 276 359 347
f 282 360 284
f 282 284 283
f 284 360 361
f 284 361 362
f 284 362 285
f 285 362 286
f 286 362 363
f 286 363 364
f 286 364 287
f 287 364 365
f 287 365 288
f 288 365 289
f 289 366 367
f 289 367 368
f 289 368 290
f 289 365 369
f 289 369 366
f 290 368 370
f 290 370 291
f 291 370 367
f 291 367 371
f 291 371 372
f 291 372 373
f 291 373 374
f 291 374 375
f 291 375 352
f 291 352 351
f 291 351 293
f 291 293 292
f 293 351 294
f 294 344 376
f 294 376 377
f 294 377 295
f 295 378 379
f 295 379 380
f 295 380 381
f 295 381 296
f 295 377 382
f 295 382 378
f 296 381 305
f 297 319 298
f 297 302 306
f 298 319 299
f 299 319 318
f 305 381 380
f 305 380 383
f 305 383 306
f 306 383 321
f 310 384 385
f 310 385 311
f 310 313 384
f 311 385 314
f 312 329 313
f 313 328 386
f 313 386 387
f 313 387 388
f 313 388 389
f 313 389 390
f 313 390 384
f 314 385 391
f 314 391 315
f 315 391 392
f 315 392 316
f 316 331 317
f 321 383 393
f 321 393 322
f 322 393 394
f 322 394 324
f 324 394 395
f 324 395 396
f 324 396 325
f 325 396 397
f 325 397 326
f 326 397 398
f 326 398 399
f 326 399 400
f 326 400 401
f 326 401 402
f 326 402 403
f 326 403 327
f 327 404 405
f 327 405 328
f 327 403 404
f 328 405 386
f 330 332 333
f 334 406 335
f 335 406 337
f 335 337 336
f 337 406 407
f 337 407 408
f 337 408 339
f 337 339 338
f 339 408 409
f 339 409 400
f 339 400 410
f 339 410 411
f 339 411 340
f 340 411 412
f 340 412 341
f 341 412 413
f 341 413 342
f 342 413 414
f 342 414 415
f 342 415 344
f 344 416 417
f 344 417 418
f 344 418 376
f 344 415 419
f 344 419 420
f 344 420 416
f 347 359 358
f 347 358 421
f 352 375 353
f 353 422 423
f 353 423 355
f 353 355 354
f 353 375 374
f 353 374 422
f 355 423 356
f 356 424 425
f 356 425 357
f 356 423 426
f 356 426 427
f 356 427 428
f 356 428 424
f 357 425 429
f 357 429 430
f 357 430 431
f 357 431 358
f 358 431 421
f 361 432 433
f 361 433 362
f 362 433 363
f 363 433 369
f 363 369 365
f 363 365 364
f 366 434 435
f 366 435 367
f 366 369 436
f 366 436 437
f 366 437 434
f 367 435 371
f 367 370 368
f 369 433 437
f 369 437 436
f 371 439 372
f 371 435 438
f 372 426 373
f 372 439 426
f 373 426 374
f 374 426 422
f 376 418 417
f 376 417 440
f 376 440 441
f 376 441 377
f 377 441 442
f 377 442 443
f 377 443 444
f 377 444 378
f 377 378 382
f 378 445 379
f 378 444 445
f 379 396 380
f 379 445 396
f 380 396 446
f 380 446 394
f 380 394 383
f 383 394 393
f 384 391 385
f 384 390 391
f 386 405 387
f 387 405 447
f 387 447 448
f 387 448 389
f 387 389 388
f 390 449 391
f 391 449 392
f 394 446 396
f 394 396 395
f 396 445 397
f 397 450 398
f 397 445 450
f 398 450 451
f 398 451 452
f 398 452 399
f 399 452 453
f 399 453 400
f 400 454 401
f 400 453 455
f 400 455 410
f 400 409 456
f 400 456 457
f 400 457 458
f 400 458 454
f 401 454 402
f 402 454 459
f 402 459 460
f 402 460 403
f 403 460 461
f 403 461 404
f 404 462 405
f 404 461 462
f 405 462 447
f 407 456 408
f 408 456 409
f 410 455 463
f 410 463 411
f 411 463 464
f 411 464 412
f 412 464 463
f 412 463 413
f 413 463 420
f 413 420 414
f 414 420 415
f 415 420 419
f 416 420 465
f 416 465 453
f 416 453 417
f 417 453 441
f 417 441 440
f 420 463 465
f 421 431 466
f 422 426 423
f 426 439 467
f 426 467 468
f 426 468 469
f 426 469 427
f 427 469 428
f 430 466 431
f 432 470 471
f 432 471 433
f 433 471 437
f 434 472 438
f 434 438 435
f 434 437 470
f 434 470 472
f 437 471 470
f 441 453 473
f 441 473 442
f 442 473 452
f 442 452 443
f 443 452 451
f 443 451 450
f 443 450 445
f 443 445 444
f 452 473 453
f 453 465 463
f 453 463 455
f 454 458 474
f 454 474 475
f 454 475 476
f 454 476 477
f 454 477 478
f 454 478 479
f 454 479 459
f 456 480 474
f 456 474 457
f 456 481 480
f 457 474 458
f 459 479 460
f 460 479 482
f 460 482 461
f 467 483 468
f 468 483 469
f 474 481 475
f 474 480 481
f 475 481 484
f 475 484 485
f 475 485 476
f 476 485 486
f 476 486 477
