v -0.136546 0.0771936 -0.215277
v 0.0278983 0.0869141 -0.253531
v 0.0278983 0.0883992 -0.253683
v -0.136546 0.0872806 -0.216428
v -0.136546 0.0771936 -0.302736
v 0.0278983 0.0771936 -0.2526
v 0.0278983 0.100183 -0.25524
v 0.0278983 0.110405 -0.256611
v 0.0278983 0.112045 -0.256831
v 0.0278983 0.123115 -0.258321
v 0.0278983 0.123732 -0.258406
v 0.0278983 0.125333 -0.258626
v 0.0278983 0.129692 -0.259252
v -0.136546 0.100434 -0.218645
v -0.1355 0.0771936 -0.303176
v -0.136546 0.274207 -0.360879
v 0.0278983 0.0771936 -0.331139
v -0.136546 0.128188 -0.223435
v -0.136546 0.123752 -0.22264
v 0.0278983 0.133646 -0.259963
v -0.111951 0.0771936 -0.312943
v -0.132554 0.274207 -0.362538
v -0.120353 0.274207 -0.367599
v -0.136546 0.274207 -0.269459
v 0.0176768 0.0771936 -0.332527
v 0.0278983 0.274207 -0.385321
v 0.0278983 0.135516 -0.260301
v -0.136546 0.135536 -0.22484
v -0.0969967 0.0771936 -0.319104
v -0.111097 0.274207 -0.371424
v -0.136498 0.274207 -0.269391
v -0.136546 0.274168 -0.269357
v 0.00587787 0.0771936 -0.334067
v 0.0186104 0.274207 -0.38654
v 0.0278983 0.274207 -0.300062
v 0.0278983 0.147339 -0.262654
v 0.0278983 0.170907 -0.267597
v -0.136546 0.14705 -0.227379
v -0.0967069 0.0771936 -0.319223
v -0.10791 0.274207 -0.372524
v -0.0883849 0.0771936 -0.322117
v -0.136546 0.265238 -0.265633
v 0.00587787 0.274207 -0.388198
v -0.00590497 0.0771936 -0.334067
v -0.136546 0.24167 -0.256205
v 0.0278983 0.264081 -0.296186
v 0.0278983 0.182055 -0.270153
v -0.136546 0.157542 -0.229884
v -0.100168 0.274207 -0.375063
v -0.076602 0.0771936 -0.324758
v 0.00434868 0.274207 -0.388198
v -0.0176878 0.0771936 -0.332527
v -0.0166093 0.274207 -0.38681
v -0.00709614 0.274207 -0.388029
v -0.00590497 0.274207 -0.388181
v 0.0278983 0.241593 -0.287892
v 0.0278983 0.255325 -0.292953
v -0.136546 0.229809 -0.251838
v -0.136546 0.159798 -0.230426
v 0.0278983 0.185565 -0.271016
v -0.0994434 0.274207 -0.375216
v -0.0909604 0.274207 -0.376875
v -0.0883849 0.274207 -0.377365
v -0.0296155 0.274207 -0.385101
v -0.136546 0.218989 -0.248046
v 0.0278983 0.231198 -0.284269
v 0.0278983 0.187166 -0.271422
v -0.136546 0.170907 -0.23327
v -0.136546 0.206318 -0.243849
v 0.0278983 0.229886 -0.283846
v 0.0278983 0.189037 -0.271947
v -0.136546 0.182672 -0.236469
v -0.136546 0.17274 -0.23376
v -0.136546 0.193511 -0.239719
v 0.0278983 0.225354 -0.282407
v 0.0278983 0.193646 -0.27325
v 0.0278983 0.206241 -0.276855
v 0.0278983 0.216463 -0.279801
f 1 2 3
f 1 3 4
f 1 4 14
f 1 14 19
f 1 19 18
f 1 18 28
f 1 28 38
f 1 38 48
f 1 48 59
f 1 59 68
f 1 68 73
f 1 73 72
f 1 72 74
f 1 74 69
f 1 69 65
f 1 65 58
f 1 58 45
f 1 45 42
f 1 42 32
f 1 32 24
f 1 24 16
f 1 16 5
f 1 5 15
f 1 15 21
f 1 21 29
f 1 29 39
f 1 39 41
f 1 41 50
f 1 50 52
f 1 52 44
f 1 44 33
f 1 33 25
f 1 25 17
f 1 17 6
f 1 6 2
f 2 6 17
f 2 17 26
f 2 26 35
f 2 35 46
f 2 46 57
f 2 57 56
f 2 56 66
f 2 66 70
f 2 70 75
f 2 75 78
f 2 78 77
f 2 77 76
f 2 76 71
f 2 71 67
f 2 67 60
f 2 60 47
f 2 47 37
f 2 37 36
f 2 36 27
f 2 27 20
f 2 20 13
f 2 13 12
f 2 12 11
f 2 11 10
f 2 10 9
f 2 9 8
f 2 8 7
f 2 7 3
f 3 7 4
f 4 7 8
f 4 8 9
f 4 9 10
f 4 10 11
f 4 11 12
f 4 12 13
f 4 13 14
f 5 16 15
f 13 18 19
f 13 19 14
f 13 20 18
f 15 16 22
f 15 22 23
f 15 23 21
f 16 24 31
f 16 31 35
f 16 35 26
f 16 26 34
f 16 34 43
f 16 43 51
f 16 51 55
f 16 55 54
f 16 54 53
f 16 53 64
f 16 64 63
f 16 63 62
f 16 62 61
f 16 61 49
f 16 49 40
f 16 40 30
f 16 30 23
f 16 23 22
f 17 25 26
f 18 20 27
f 18 27 28
f 21 23 30
f 21 30 29
f 24 32 31
f 25 33 34
f 25 34 26
f 27 36 28
f 28 36 37
f 28 37 38
f 29 30 39
f 30 40 41
f 30 41 39
f 31 32 35
f 32 42 35
f 33 43 34
f 33 44 51
f 33 51 43
f 35 42 45
f 35 45 46
f 37 47 38
f 38 47 48
f 40 49 41
f 41 49 50
f 44 52 53
f 44 53 54
f 44 54 55
f 44 55 51
f 45 56 57
f 45 57 46
f 45 58 56
f 47 59 48
f 47 60 59
f 49 61 50
f 50 61 62
f 50 62 63
f 50 63 52
f 52 63 64
f 52 64 53
f 56 58 65
f 56 65 66
f 59 60 67
f 59 67 68
f 65 69 66
f 66 69 70
f 67 71 72
f 67 72 73
f 67 73 68
f 69 74 70
f 70 74 75
f 71 76 72
f 72 76 77
f 72 77 78
f 72 78 75
f 72 75 74
