v 0.357176 -0.479543 0.465003
v 0.357176 -0.479543 0.350034
v 0.357176 -0.477779 0.464872
v 0.322367 -0.479543 0.491706
v 0.136303 -0.479543 0.479569
v 0.136303 -0.437466 0.490788
v 0.357176 -0.437466 0.363046
v 0.357176 -0.453746 0.463057
v 0.343447 -0.44196 0.472702
v 0.317459 -0.465528 0.494418
v 0.304573 -0.479543 0.505353
v 0.136303 -0.479543 0.573456
v 0.136303 -0.437466 0.57081
v 0.357176 -0.437466 0.461723
v 0.357176 -0.445112 0.462401
v 0.357176 -0.44196 0.46216
v 0.329718 -0.43885 0.48298
v 0.310389 -0.44196 0.498049
v 0.303882 -0.465528 0.504828
v 0.296833 -0.44196 0.508284
v 0.298563 -0.477314 0.509487
v 0.298671 -0.479543 0.509552
v 0.145102 -0.479543 0.572209
v 0.136303 -0.44196 0.571181
v 0.147329 -0.437466 0.569213
v 0.32961 -0.437466 0.482915
v 0.302433 -0.437466 0.503713
v 0.302714 -0.44196 0.503932
v 0.296531 -0.437466 0.508087
v 0.291536 -0.437466 0.510646
v 0.288726 -0.44196 0.512417
v 0.288726 -0.465528 0.513992
v 0.288726 -0.479543 0.51491
v 0.296704 -0.479543 0.510624
v 0.147329 -0.479543 0.571881
v 0.147329 -0.477314 0.57175
v 0.147329 -0.465528 0.571028
v 0.147329 -0.44196 0.569585
v 0.150507 -0.437466 0.568469
v 0.288726 -0.437466 0.512024
v 0.278608 -0.44196 0.516813
v 0.281375 -0.477314 0.51795
v 0.287515 -0.479543 0.515435
v 0.156885 -0.479543 0.569257
v 0.156907 -0.44196 0.567179
v 0.156431 -0.437466 0.566982
v 0.282478 -0.437466 0.514735
v 0.277764 -0.437466 0.516769
v 0.272294 -0.437466 0.519066
v 0.188927 -0.437466 0.553664
v 0.246739 -0.44196 0.530022
v 0.242675 -0.45338 0.53245
v 0.275494 -0.477314 0.5204
v 0.281548 -0.479543 0.518016
v 0.159112 -0.479543 0.568644
v 0.159112 -0.477314 0.568513
v 0.164344 -0.479543 0.566567
v 0.165577 -0.477314 0.565933
v 0.163717 -0.453746 0.565167
v 0.162809 -0.44196 0.564773
v 0.162334 -0.437466 0.564577
v 0.187975 -0.437466 0.554057
v 0.170895 -0.44196 0.561427
v 0.193575 -0.441371 0.552001
v 0.195629 -0.453746 0.551958
v 0.218784 -0.479543 0.544041
v 0.170528 -0.479543 0.56403
v 0.228232 -0.479543 0.540126
v 0.239475 -0.479543 0.535468
v 0.249658 -0.479543 0.531247
v 0.275667 -0.479543 0.520465
v 0.16575 -0.479543 0.565998
f 1 2 7
f 1 7 14
f 1 14 16
f 1 16 15
f 1 15 8
f 1 8 3
f 1 3 4
f 1 4 11
f 1 11 22
f 1 22 34
f 1 34 33
f 1 33 43
f 1 43 54
f 1 54 71
f 1 71 70
f 1 70 69
f 1 69 68
f 1 68 66
f 1 66 67
f 1 67 72
f 1 72 57
f 1 57 55
f 1 55 44
f 1 44 35
f 1 35 23
f 1 23 12
f 1 12 5
f 1 5 2
f 2 5 6
f 2 6 7
f 3 8 9
f 3 9 10
f 3 10 4
f 4 10 11
f 5 12 24
f 5 24 13
f 5 13 6
f 6 13 25
f 6 25 39
f 6 39 46
f 6 46 61
f 6 61 62
f 6 62 50
f 6 50 49
f 6 49 48
f 6 48 47
f 6 47 40
f 6 40 30
f 6 30 29
f 6 29 27
f 6 27 26
f 6 26 14
f 6 14 7
f 8 15 9
f 9 15 16
f 9 16 17
f 9 17 18
f 9 18 10
f 10 18 19
f 10 19 11
f 11 20 21
f 11 21 22
f 11 19 20
f 12 23 24
f 13 24 38
f 13 38 25
f 14 26 17
f 14 17 16
f 17 26 27
f 17 27 28
f 17 28 18
f 18 28 19
f 19 28 20
f 20 29 30
f 20 30 31
f 20 31 32
f 20 32 33
f 20 33 34
f 20 34 21
f 20 28 29
f 21 34 22
f 23 35 36
f 23 36 37
f 23 37 38
f 23 38 24
f 25 38 39
f 27 29 28
f 30 40 31
f 31 40 41
f 31 41 32
f 32 41 42
f 32 42 43
f 32 43 33
f 35 44 45
f 35 45 36
f 36 45 37
f 37 45 38
f 38 45 46
f 38 46 39
f 40 47 41
f 41 47 48
f 41 48 49
f 41 49 50
f 41 50 51
f 41 51 52
f 41 52 53
f 41 53 42
f 42 54 43
f 42 53 71
f 42 71 54
f 44 55 45
f 45 55 56
f 45 56 57
f 45 57 58
f 45 58 59
f 45 59 60
f 45 60 61
f 45 61 46
f 50 62 60
f 50 60 63
f 50 63 64
f 50 64 51
f 51 64 65
f 51 65 52
f 52 66 53
f 52 65 67
f 52 67 66
f 53 66 68
f 53 68 69
f 53 69 70
f 53 70 71
f 55 57 56
f 57 72 58
f 58 72 67
f 58 67 59
f 59 67 64
f 59 64 63
f 59 63 60
f 60 62 61
f 64 67 65
