v -0.105886 0.460453 4.11108e-05
v -0.0881998 0.460453 -0.057835
v -0.138664 0.460453 4.11108e-05
v -0.106742 0.456373 4.11108e-05
v -0.0881998 0.149488 -0.169678
v -0.0881998 0.460453 -0.107069
v -0.138664 0.460453 -0.00931965
v -0.14909 0.428641 4.11108e-05
v -0.18997 0.149488 4.11108e-05
v -0.0881998 0.149488 -0.215827
v -0.129963 0.315793 -0.129953
v -0.0900968 0.460453 -0.105463
v -0.0881998 0.406327 -0.127333
v -0.0939765 0.33695 -0.149604
v -0.111991 0.20538 -0.186435
v -0.130648 0.168149 -0.186456
v -0.136068 0.149488 -0.189456
v -0.142415 0.158347 -0.181194
v -0.15608 0.149488 -0.174073
v -0.149675 0.225197 -0.149668
v -0.14909 0.428641 -0.000487146
v -0.135954 0.460453 -0.0282736
v -0.223089 0.166232 -0.0525524
v -0.229037 0.149488 -0.0465091
v -0.230321 0.149488 -0.0368103
v -0.231476 0.149488 -0.0279567
v -0.232746 0.149488 -0.0181733
v -0.233887 0.149488 -0.00931965
v -0.223603 0.186536 -0.000571664
v -0.223603 0.186536 4.11108e-05
v -0.233887 0.149488 4.11108e-05
v -0.0881998 0.162944 -0.21139
v -0.102192 0.149488 -0.210016
v -0.101978 0.157282 -0.207544
v -0.107512 0.460453 -0.0876711
v -0.112876 0.393998 -0.112859
v -0.0981985 0.460453 -0.0981941
v -0.0881998 0.354089 -0.146625
v -0.0901681 0.34937 -0.147259
v -0.0907672 0.295092 -0.166551
v -0.0948893 0.282672 -0.168706
v -0.112533 0.150341 -0.205325
v -0.112776 0.149488 -0.205473
v -0.122004 0.149488 -0.199472
v -0.129207 0.149488 -0.194464
v -0.144626 0.149488 -0.182885
v -0.166007 0.149488 -0.166001
v -0.16779 0.149488 -0.163952
v -0.132003 0.460453 -0.0433818
v -0.149404 0.410984 -0.0383105
v -0.204846 0.223371 -0.0555318
v -0.225001 0.153811 -0.0603284
v -0.225742 0.149488 -0.0621667
v -0.0881998 0.244102 -0.184575
v -0.111734 0.149488 -0.205959
v -0.0881998 0.292596 -0.168474
v -0.114673 0.460453 -0.0783526
v -0.171883 0.158347 -0.154485
v -0.174066 0.149488 -0.15607
v -0.182895 0.149488 -0.144618
v -0.0881998 0.300359 -0.165832
v -0.125342 0.460453 -0.0589338
v -0.205346 0.150371 -0.11252
v -0.207542 0.157282 -0.101998
v -0.210024 0.149488 -0.102209
v -0.217598 0.149488 -0.083931
v -0.202949 0.216004 -0.0662449
v -0.22259 0.149488 -0.071443
v -0.223646 0.149488 -0.068358
v -0.129992 0.427362 -0.0736617
v -0.122888 0.460453 -0.0640473
v -0.18947 0.149488 -0.13606
v -0.186432 0.20538 -0.111971
v -0.205017 0.149488 -0.113514
v -0.205488 0.149488 -0.112774
v -0.199483 0.149488 -0.121987
f 1 2 6
f 1 6 12
f 1 12 37
f 1 37 35
f 1 35 57
f 1 57 71
f 1 71 62
f 1 62 49
f 1 49 22
f 1 22 7
f 1 7 3
f 1 3 8
f 1 8 30
f 1 30 31
f 1 31 9
f 1 9 4
f 1 4 5
f 1 5 2
f 2 5 10
f 2 10 32
f 2 32 54
f 2 54 56
f 2 56 61
f 2 61 38
f 2 38 13
f 2 13 6
f 3 7 21
f 3 21 8
f 4 9 5
f 5 9 31
f 5 31 28
f 5 28 27
f 5 27 26
f 5 26 25
f 5 25 24
f 5 24 53
f 5 53 69
f 5 69 68
f 5 68 66
f 5 66 65
f 5 65 75
f 5 75 74
f 5 74 76
f 5 76 72
f 5 72 60
f 5 60 59
f 5 59 48
f 5 48 47
f 5 47 19
f 5 19 46
f 5 46 17
f 5 17 45
f 5 45 44
f 5 44 43
f 5 43 55
f 5 55 33
f 5 33 10
f 6 11 12
f 6 13 14
f 6 14 15
f 6 15 16
f 6 16 17
f 6 17 18
f 6 18 19
f 6 19 20
f 6 20 11
f 7 22 23
f 7 23 24
f 7 24 25
f 7 25 26
f 7 26 27
f 7 27 28
f 7 28 29
f 7 29 21
f 8 21 29
f 8 29 30
f 10 33 34
f 10 34 32
f 11 35 36
f 11 36 12
f 11 20 35
f 12 36 37
f 13 38 39
f 13 39 14
f 14 39 40
f 14 40 41
f 14 41 15
f 15 42 43
f 15 43 44
f 15 44 45
f 15 45 17
f 15 17 16
f 15 41 42
f 17 46 18
f 18 46 19
f 19 47 20
f 20 47 48
f 20 48 35
f 22 49 50
f 22 50 51
f 22 51 23
f 23 51 52
f 23 52 24
f 24 52 53
f 28 31 30
f 28 30 29
f 32 34 54
f 33 55 34
f 34 55 40
f 34 40 56
f 34 56 54
f 35 37 36
f 35 48 58
f 35 58 59
f 35 59 60
f 35 60 57
f 38 61 40
f 38 40 39
f 40 61 56
f 40 55 42
f 40 42 41
f 42 55 43
f 48 59 58
f 49 62 63
f 49 63 64
f 49 64 65
f 49 65 66
f 49 66 67
f 49 67 51
f 49 51 50
f 51 67 66
f 51 66 68
f 51 68 69
f 51 69 53
f 51 53 52
f 57 70 71
f 57 60 72
f 57 72 73
f 57 73 70
f 62 71 70
f 62 70 63
f 63 73 74
f 63 74 75
f 63 75 65
f 63 65 64
f 63 70 73
f 72 76 73
f 73 76 74
