v 0.0450751 0.460483 0.0958299
v 0.0958325 0.460483 0.0958299
v 0.105901 0.460483 4.11142e-05
v 0.162156 0.133655 4.11142e-05
v 0.134645 0.133655 0.0958299
v 0.10025 0.460483 0.0957643
v 0.100212 0.460387 0.0958299
v 0.138664 0.460483 4.11142e-05
v 0.238757 0.133655 4.11142e-05
v 0.2179 0.133655 0.0958299
v 0.107531 0.460483 0.0876631
v 0.113864 0.426284 0.0958299
v 0.149074 0.428651 4.11142e-05
v 0.138664 0.460483 0.00931433
v 0.238776 0.133655 0.00931433
v 0.223608 0.186538 4.11142e-05
v 0.220233 0.133655 0.0902229
v 0.215815 0.13999 0.0958299
v 0.109105 0.460483 0.0856191
v 0.132483 0.377944 0.0958299
v 0.147538 0.33869 0.0958299
v 0.148846 0.335267 0.0958299
v 0.149074 0.428651 0.000481802
v 0.136598 0.460483 0.0238664
v 0.223096 0.166255 0.0525393
v 0.232045 0.139734 0.046576
v 0.234491 0.139734 0.0279451
v 0.223608 0.186538 0.000575564
v 0.236292 0.133655 0.0283952
v 0.225124 0.133655 0.0784087
v 0.132009 0.460483 0.0433974
v 0.205785 0.17035 0.0958299
v 0.114679 0.460483 0.078343
v 0.15097 0.329541 0.0958299
v 0.149624 0.336963 0.0939734
v 0.135972 0.460483 0.0282639
v 0.204856 0.223392 0.0555397
v 0.225011 0.15381 0.0603217
v 0.232595 0.133655 0.0526237
v 0.233903 0.133655 0.046576
v 0.229542 0.133655 0.0657131
v 0.224954 0.134743 0.0779492
v 0.149377 0.410992 0.038306
v 0.125354 0.460483 0.0589246
v 0.166574 0.295118 0.0907667
v 0.185231 0.239036 0.0906354
v 0.187298 0.226623 0.0952955
v 0.187412 0.225504 0.0958299
v 0.129999 0.427372 0.0736455
v 0.122908 0.460483 0.0640253
v 0.168413 0.281745 0.0958299
v 0.168717 0.282673 0.0948923
v 0.222906 0.147156 0.0727453
v 0.227305 0.14047 0.0660038
v 0.169286 0.279218 0.0958299
f 1 2 6
f 1 6 11
f 1 11 19
f 1 19 33
f 1 33 50
f 1 50 44
f 1 44 31
f 1 31 36
f 1 36 24
f 1 24 14
f 1 14 8
f 1 8 3
f 1 3 4
f 1 4 5
f 1 5 10
f 1 10 18
f 1 18 32
f 1 32 48
f 1 48 55
f 1 55 51
f 1 51 34
f 1 34 22
f 1 22 21
f 1 21 20
f 1 20 12
f 1 12 7
f 1 7 2
f 2 7 6
f 3 8 13
f 3 13 16
f 3 16 9
f 3 9 4
f 4 9 15
f 4 15 29
f 4 29 40
f 4 40 39
f 4 39 41
f 4 41 30
f 4 30 17
f 4 17 10
f 4 10 5
f 6 7 12
f 6 12 11
f 8 14 23
f 8 23 13
f 9 16 15
f 10 17 18
f 11 12 20
f 11 20 21
f 11 21 22
f 11 22 19
f 13 23 28
f 13 28 16
f 14 24 25
f 14 25 26
f 14 26 27
f 14 27 15
f 14 15 28
f 14 28 23
f 15 27 29
f 15 16 28
f 17 30 31
f 17 31 18
f 18 31 32
f 19 22 33
f 22 34 35
f 22 35 33
f 24 36 25
f 25 37 38
f 25 38 39
f 25 39 40
f 25 40 26
f 25 36 37
f 26 40 29
f 26 29 27
f 30 41 42
f 30 42 31
f 31 43 36
f 31 44 45
f 31 45 46
f 31 46 32
f 31 42 37
f 31 37 43
f 32 46 45
f 32 45 47
f 32 47 48
f 33 49 50
f 33 35 49
f 34 51 35
f 35 51 52
f 35 52 49
f 36 43 37
f 37 42 53
f 37 53 54
f 37 54 41
f 37 41 38
f 38 41 39
f 41 54 53
f 41 53 42
f 44 50 49
f 44 49 45
f 45 52 48
f 45 48 47
f 45 49 52
f 48 52 55
f 51 55 52
