v -0.233902 0.149488 0.00932157
v -0.223601 0.186536 0.00057165
v -0.223601 0.186536 4.11108e-05
v -0.233886 0.149488 4.11108e-05
v -0.232635 0.149488 0.019093
v -0.138662 0.460453 0.00932157
v -0.149093 0.428641 0.000476629
v -0.149093 0.428641 4.11108e-05
v -0.18997 0.149488 4.11108e-05
v -0.231481 0.149488 0.0279458
v -0.228768 0.158347 0.0279458
v -0.135965 0.460453 0.0282626
v -0.138662 0.460453 4.11108e-05
v -0.230279 0.149488 0.0371471
v -0.229044 0.149488 0.0464989
v -0.223082 0.166232 0.0525407
v -0.171838 0.149488 0.0809363
v -0.106753 0.456373 4.11108e-05
v -0.0685724 0.45683 0.0809363
v -0.149401 0.411015 0.0383032
v -0.135283 0.460453 0.0309786
v -0.204852 0.223401 0.0555418
v -0.105892 0.460453 4.11108e-05
v -0.22716 0.149488 0.0561119
v -0.224999 0.153811 0.0603245
v -0.218809 0.149488 0.0809363
v -0.106314 0.458413 4.11108e-05
v -0.0679388 0.460453 0.0809363
v -0.132017 0.460453 0.0433869
v -0.225746 0.149488 0.0621616
v -0.222594 0.149488 0.07145
v -0.221181 0.149488 0.0750767
v -0.131221 0.460453 0.0457149
v -0.216859 0.155425 0.0809363
v -0.112683 0.460453 0.0809363
v -0.130002 0.427362 0.0736513
v -0.122902 0.460453 0.0640304
v -0.207387 0.184192 0.0809363
v -0.198451 0.211255 0.0809363
v -0.174162 0.284772 0.0809363
v -0.170197 0.296766 0.0809363
v -0.113105 0.460453 0.08039
v -0.128183 0.418138 0.0809363
v -0.15166 0.351075 0.0809363
v -0.132114 0.414942 0.0771355
v -0.114681 0.460453 0.078347
v -0.121261 0.460453 0.0669998
v -0.134422 0.400512 0.0809363
f 1 2 3
f 1 3 4
f 1 4 9
f 1 9 17
f 1 17 26
f 1 26 32
f 1 32 31
f 1 31 30
f 1 30 24
f 1 24 15
f 1 15 14
f 1 14 10
f 1 10 5
f 1 5 6
f 1 6 2
f 2 6 7
f 2 7 8
f 2 8 3
f 3 8 13
f 3 13 23
f 3 23 27
f 3 27 18
f 3 18 9
f 3 9 4
f 5 10 11
f 5 11 6
f 6 12 21
f 6 21 29
f 6 29 33
f 6 33 37
f 6 37 47
f 6 47 46
f 6 46 42
f 6 42 35
f 6 35 28
f 6 28 23
f 6 23 13
f 6 13 8
f 6 8 7
f 6 11 14
f 6 14 15
f 6 15 16
f 6 16 12
f 9 18 19
f 9 19 17
f 10 14 11
f 12 20 21
f 12 16 22
f 12 22 20
f 15 24 16
f 16 24 25
f 16 25 22
f 17 19 28
f 17 28 35
f 17 35 43
f 17 43 48
f 17 48 44
f 17 44 41
f 17 41 40
f 17 40 39
f 17 39 38
f 17 38 34
f 17 34 26
f 18 27 19
f 19 27 23
f 19 23 28
f 20 29 21
f 20 22 29
f 22 25 30
f 22 30 31
f 22 31 32
f 22 32 33
f 22 33 29
f 24 30 25
f 26 34 33
f 26 33 32
f 33 36 37
f 33 34 38
f 33 38 39
f 33 39 40
f 33 40 41
f 33 41 36
f 35 42 43
f 36 44 45
f 36 45 46
f 36 46 47
f 36 47 37
f 36 41 44
f 42 46 43
f 43 46 45
f 43 45 48
f 44 48 45
