v 0.134638 0.133657 0.0958299
v 0.166607 0.152641 0.0958299
v 0.217889 0.133657 0.0958299
v -0.0117422 0.133657 0.161195
v 0.211616 0.152641 0.0958299
v -0.0117422 0.152641 0.189854
v 0.21582 0.139976 0.0958299
v 0.215236 0.133657 0.102281
v -0.0117422 0.133657 0.238468
v 0.210155 0.152641 0.0993843
v -0.0117422 0.152641 0.232619
v 0.209031 0.152641 0.102113
v 0.207974 0.133657 0.117632
v 0.205344 0.150353 0.112538
v -0.00931418 0.133657 0.238776
v -0.0117422 0.139716 0.236607
v -0.0100561 0.152641 0.232843
v 0.206063 0.152641 0.109054
v 0.205434 0.133657 0.121858
v 0.202938 0.152641 0.114903
v 0.198914 0.152641 0.121075
v 0.202421 0.133657 0.126672
v -0.00931418 0.139716 0.236915
v 0.00932339 0.133657 0.238776
v -0.00931418 0.152641 0.232941
v 0.189067 0.152641 0.135026
v 0.192889 0.133657 0.139574
v 0.00932339 0.139716 0.236915
v 0.0193953 0.133657 0.237489
v 0.00932339 0.152641 0.232941
v 0.1823 0.152641 0.143856
v 0.190258 0.133657 0.143017
v 0.190933 0.138166 0.139868
v 0.0284106 0.133657 0.236313
v 0.027961 0.152641 0.230534
v 0.184098 0.143342 0.146179
v 0.173307 0.152641 0.155527
v 0.178028 0.133657 0.1589
v 0.046576 0.133657 0.23392
v 0.046576 0.139716 0.232059
v 0.0465086 0.152641 0.228085
v 0.169238 0.152641 0.160621
v 0.16663 0.147008 0.166652
v 0.169283 0.13459 0.169283
v 0.169463 0.133657 0.169465
v 0.0657307 0.133657 0.229554
v 0.0592109 0.152641 0.225594
v 0.165236 0.152641 0.165253
v 0.155524 0.152641 0.173299
v 0.158874 0.133657 0.178029
v 0.168698 0.133657 0.170109
v 0.0769717 0.133657 0.22565
v 0.0727676 0.147138 0.222907
v 0.066023 0.140445 0.227315
v 0.0608521 0.152641 0.225216
v 0.143833 0.152641 0.182311
v 0.152219 0.133657 0.183165
v 0.0779609 0.13472 0.224964
v 0.078433 0.133657 0.225118
v 0.0697325 0.152641 0.22218
v 0.0782082 0.152641 0.218891
v 0.141697 0.152641 0.183949
v 0.139854 0.13817 0.190931
v 0.145722 0.133657 0.188161
v 0.146171 0.143346 0.184089
v 0.0840535 0.133657 0.222795
v 0.0840535 0.140445 0.220556
v 0.0838961 0.152641 0.216582
v 0.134998 0.152641 0.189084
v 0.139562 0.133657 0.192891
v 0.102286 0.133657 0.215239
v 0.102466 0.139716 0.213168
v 0.102129 0.152641 0.209039
v 0.130591 0.152641 0.192303
v 0.126657 0.133657 0.20242
v 0.1352 0.133657 0.196151
v 0.111189 0.133657 0.211124
v 0.112538 0.150364 0.205345
v 0.109053 0.152641 0.206073
v 0.121059 0.152641 0.198922
v 0.117619 0.133657 0.20799
v 0.114876 0.152641 0.202966
f 1 2 5
f 1 5 7
f 1 7 3
f 1 3 8
f 1 8 13
f 1 13 19
f 1 19 22
f 1 22 27
f 1 27 32
f 1 32 38
f 1 38 45
f 1 45 51
f 1 51 50
f 1 50 57
f 1 57 64
f 1 64 70
f 1 70 76
f 1 76 75
f 1 75 81
f 1 81 77
f 1 77 71
f 1 71 66
f 1 66 59
f 1 59 52
f 1 52 46
f 1 46 39
f 1 39 34
f 1 34 29
f 1 29 24
f 1 24 15
f 1 15 9
f 1 9 4
f 1 4 2
f 2 4 6
f 2 6 11
f 2 11 17
f 2 17 25
f 2 25 30
f 2 30 35
f 2 35 41
f 2 41 47
f 2 47 55
f 2 55 60
f 2 60 61
f 2 61 68
f 2 68 73
f 2 73 79
f 2 79 82
f 2 82 80
f 2 80 74
f 2 74 69
f 2 69 62
f 2 62 56
f 2 56 49
f 2 49 48
f 2 48 42
f 2 42 37
f 2 37 31
f 2 31 26
f 2 26 21
f 2 21 20
f 2 20 18
f 2 18 12
f 2 12 10
f 2 10 5
f 3 7 8
f 4 9 16
f 4 16 11
f 4 11 6
f 5 10 7
f 7 10 12
f 7 12 8
f 8 12 14
f 8 14 13
f 9 15 23
f 9 23 16
f 11 16 17
f 12 18 14
f 13 14 19
f 14 20 21
f 14 21 22
f 14 22 19
f 14 18 20
f 15 24 28
f 15 28 23
f 16 23 25
f 16 25 17
f 21 26 22
f 22 26 27
f 23 28 30
f 23 30 25
f 24 29 28
f 26 31 32
f 26 32 33
f 26 33 27
f 27 33 32
f 28 29 30
f 29 34 35
f 29 35 30
f 31 36 32
f 31 37 36
f 32 36 38
f 34 39 40
f 34 40 35
f 35 40 41
f 36 37 38
f 37 42 43
f 37 43 38
f 38 43 44
f 38 44 45
f 39 46 47
f 39 47 40
f 40 47 41
f 42 48 43
f 43 48 49
f 43 49 50
f 43 50 44
f 44 50 51
f 44 51 45
f 46 52 53
f 46 53 54
f 46 54 55
f 46 55 47
f 49 56 57
f 49 57 50
f 52 58 53
f 52 59 58
f 53 60 55
f 53 55 54
f 53 58 61
f 53 61 60
f 56 62 63
f 56 63 64
f 56 64 65
f 56 65 57
f 57 65 64
f 58 59 66
f 58 66 67
f 58 67 68
f 58 68 61
f 62 69 63
f 63 69 70
f 63 70 64
f 66 71 72
f 66 72 67
f 67 72 73
f 67 73 68
f 69 74 75
f 69 75 76
f 69 76 70
f 71 77 78
f 71 78 72
f 72 78 73
f 73 78 79
f 74 80 75
f 75 80 82
f 75 82 78
f 75 78 81
f 77 81 78
f 78 82 79
