v 0.137466 0.936526 0.00680932
v 0.137466 0.936526 -0.00932181
v 0.121079 0.939622 -0.0465831
v 0.121079 0.938825 -0.027945
v 0.121921 0.936011 0.00680932
v 0.144069 0.92405 0.00680932
v 0.136396 0.936526 -0.027945
v 0.145082 0.92208 -0.00932181
v 0.102454 0.938778 -0.0838145
v 0.0465766 0.939669 -0.121076
v 0.1342 0.935307 -0.0465831
v 0.122021 0.936573 -0.0653256
v 0.0279509 0.938825 -0.121076
v 0.119596 0.935917 0.00680932
v 0.145082 0.92208 0.00680932
v 0.142757 0.92208 -0.027945
v 0.145652 0.903458 0.00680932
v 0.145638 0.903458 -0.00932181
v 0.083828 0.938778 -0.102453
v 0.115361 0.934087 -0.0838145
v 0.100671 0.933665 -0.100677
v 0.0653164 0.936573 -0.122016
v 0.0465766 0.935307 -0.134193
v 0.0279509 0.936526 -0.136401
v 0.0093252 0.936526 -0.137461
v -4.47055e-05 0.936526 -0.137461
v 0.131761 0.933196 -0.0591776
v -4.47055e-05 0.935917 -0.119584
v 0.112266 0.924284 0.00680932
v 0.143128 0.903458 -0.027945
v 0.138065 0.92208 -0.0465831
v 0.145652 0.884837 0.00680932
v 0.145638 0.884837 -0.00932181
v 0.083828 0.934087 -0.115361
v 0.111881 0.931555 -0.0932903
v 0.0932835 0.931555 -0.111884
v 0.0591839 0.933196 -0.13176
v 0.0279509 0.92208 -0.142758
v 0.0093252 0.92208 -0.145071
v -4.47055e-05 0.92935 -0.141251
v 0.132446 0.92208 -0.060834
v 0.128196 0.92208 -0.0701307
v -4.47055e-05 0.926489 -0.114764
v -4.47055e-05 0.92208 -0.112525
v 0.102825 0.828972 0.00680932
v 0.138151 0.903458 -0.0465831
v 0.143128 0.884837 -0.027945
v 0.13865 0.46053 0.00680932
v 0.13865 0.46053 -0.00932181
v 0.119054 0.92208 -0.0838145
v 0.111938 0.92208 -0.0933649
v 0.102682 0.92208 -0.102676
v 0.0933691 0.92208 -0.111943
v 0.083828 0.92208 -0.119046
v 0.0701369 0.92208 -0.128194
v 0.060824 0.92208 -0.132447
v 0.0465766 0.92208 -0.138058
v 0.0279509 0.903458 -0.143116
v 0.0093252 0.903458 -0.145623
v -4.47055e-05 0.903458 -0.145638
v -4.47055e-05 0.912839 -0.145355
v -4.47055e-05 0.92208 -0.145071
v 0.128296 0.903458 -0.0701307
v 0.132446 0.884837 -0.060834
v -4.47055e-05 0.828972 -0.102781
v 0.102653 0.826439 0.00680932
v 0.138151 0.884837 -0.0465831
v 0.138065 0.46053 -0.0134255
v 0.13594 0.46053 -0.0282733
v 0.135256 0.46053 -0.0309892
v 0.13199 0.46053 -0.0433897
v 0.105891 0.46053 0.00680932
v 0.119154 0.903458 -0.0838145
v 0.111938 0.884837 -0.0933649
v 0.102682 0.884837 -0.102676
v 0.083828 0.903458 -0.119151
v 0.0933691 0.884837 -0.111943
v 0.0701369 0.903458 -0.128298
v 0.0465766 0.903458 -0.138132
v 0.060824 0.884837 -0.132447
v 0.0279509 0.884837 -0.143116
v 0.0093252 0.884837 -0.145623
v -4.47055e-05 0.884837 -0.145638
v 0.128296 0.884837 -0.0701307
v 0.131205 0.46053 -0.0457176
v -4.47055e-05 0.810304 -0.101557
v 0.101627 0.810304 0.00680932
v -4.47055e-05 0.46053 -0.105855
v 0.102882 0.475071 0.00680932
v 0.119154 0.884837 -0.0838145
v 0.111881 0.875033 -0.0932903
v 0.0932835 0.875033 -0.111884
v 0.083828 0.884837 -0.119151
v 0.0701369 0.884837 -0.128298
v 0.0465766 0.884837 -0.138132
v 0.0589129 0.46053 -0.125314
v 0.0433677 0.46053 -0.131984
v 0.0282647 0.46053 -0.135924
v 0.0093252 0.46053 -0.138639
v -4.47055e-05 0.46053 -0.138639
v 0.122876 0.46053 -0.0640423
v 0.121236 0.46053 -0.0670119
v 0.114647 0.46053 -0.0783231
v -4.47055e-05 0.791682 -0.101542
v 0.101612 0.791682 0.00680932
v -4.47055e-05 0.46569 -0.104766
v -4.47055e-05 0.475071 -0.102841
v 0.101627 0.493692 0.00680932
v 0.107502 0.46053 -0.0876496
v 0.105449 0.46053 -0.0900819
v 0.0981753 0.46053 -0.0981848
v 0.0876359 0.46053 -0.107496
v 0.0855965 0.46053 -0.109063
v 0.078323 0.46053 -0.114644
v 0.0640329 0.46053 -0.122866
v -4.47055e-05 0.512314 -0.101542
v 0.101612 0.509828 0.00680932
v -4.47055e-05 0.484311 -0.102184
v -4.47055e-05 0.493692 -0.101557
f 1 2 3
f 1 3 4
f 1 4 5
f 1 5 14
f 1 14 29
f 1 29 45
f 1 45 66
f 1 66 87
f 1 87 105
f 1 105 117
f 1 117 108
f 1 108 89
f 1 89 72
f 1 72 48
f 1 48 32
f 1 32 17
f 1 17 15
f 1 15 6
f 1 6 2
f 2 7 3
f 2 6 8
f 2 8 7
f 3 9 10
f 3 10 4
f 3 7 11
f 3 11 12
f 3 12 9
f 4 10 13
f 4 13 14
f 4 14 5
f 6 15 8
f 7 8 16
f 7 16 11
f 8 15 17
f 8 17 18
f 8 18 16
f 9 19 10
f 9 12 20
f 9 20 21
f 9 21 19
f 10 19 22
f 10 22 23
f 10 23 24
f 10 24 25
f 10 25 26
f 10 26 13
f 11 16 27
f 11 27 12
f 12 27 20
f 13 26 28
f 13 28 14
f 14 28 29
f 16 18 30
f 16 30 31
f 16 31 27
f 17 32 33
f 17 33 18
f 18 33 47
f 18 47 30
f 19 21 34
f 19 34 22
f 20 27 35
f 20 35 21
f 21 35 36
f 21 36 34
f 22 34 37
f 22 37 23
f 23 37 38
f 23 38 24
f 24 38 39
f 24 39 25
f 25 39 40
f 25 40 26
f 26 40 62
f 26 62 61
f 26 61 60
f 26 60 83
f 26 83 100
f 26 100 88
f 26 88 106
f 26 106 107
f 26 107 118
f 26 118 119
f 26 119 116
f 26 116 104
f 26 104 86
f 26 86 65
f 26 65 44
f 26 44 43
f 26 43 28
f 27 31 41
f 27 41 42
f 27 42 35
f 28 43 29
f 29 43 44
f 29 44 45
f 30 46 31
f 30 47 67
f 30 67 46
f 31 46 41
f 32 48 49
f 32 49 33
f 33 49 47
f 34 36 37
f 35 42 50
f 35 50 51
f 35 51 52
f 35 52 36
f 36 52 53
f 36 53 54
f 36 54 55
f 36 55 37
f 37 55 56
f 37 56 57
f 37 57 38
f 38 57 58
f 38 58 59
f 38 59 39
f 39 59 60
f 39 60 61
f 39 61 62
f 39 62 40
f 41 63 42
f 41 46 67
f 41 67 64
f 41 64 84
f 41 84 63
f 42 63 73
f 42 73 50
f 44 65 45
f 45 65 66
f 47 49 68
f 47 68 69
f 47 69 70
f 47 70 71
f 47 71 67
f 48 72 88
f 48 88 100
f 48 100 99
f 48 99 98
f 48 98 97
f 48 97 96
f 48 96 115
f 48 115 114
f 48 114 113
f 48 113 112
f 48 112 111
f 48 111 110
f 48 110 109
f 48 109 103
f 48 103 102
f 48 102 101
f 48 101 85
f 48 85 71
f 48 71 70
f 48 70 69
f 48 69 68
f 48 68 49
f 50 73 51
f 51 73 90
f 51 90 74
f 51 74 75
f 51 75 52
f 52 75 77
f 52 77 53
f 53 76 54
f 53 77 93
f 53 93 76
f 54 76 78
f 54 78 55
f 55 78 56
f 56 79 57
f 56 78 94
f 56 94 80
f 56 80 95
f 56 95 79
f 57 79 58
f 58 79 95
f 58 95 81
f 58 81 82
f 58 82 59
f 59 82 83
f 59 83 60
f 63 84 90
f 63 90 73
f 64 67 85
f 64 85 84
f 65 86 87
f 65 87 66
f 67 71 85
f 72 89 88
f 74 90 91
f 74 91 75
f 75 91 92
f 75 92 77
f 76 93 94
f 76 94 78
f 77 92 93
f 80 94 96
f 80 96 97
f 80 97 95
f 81 95 97
f 81 97 98
f 81 98 99
f 81 99 82
f 82 99 83
f 83 99 100
f 84 85 101
f 84 101 102
f 84 102 103
f 84 103 90
f 86 104 105
f 86 105 87
f 88 89 106
f 89 107 106
f 89 108 107
f 90 103 91
f 91 103 109
f 91 109 110
f 91 110 111
f 91 111 92
f 92 111 112
f 92 112 113
f 92 113 114
f 92 114 93
f 93 114 94
f 94 114 115
f 94 115 96
f 104 116 117
f 104 117 105
f 107 108 118
f 108 117 119
f 108 119 118
f 116 119 117
