v -0.137458 0.936527 0.000125206
v -0.128606 0.936245 0.000125206
v -0.121081 0.938825 -0.0279545
v -0.121081 0.939622 -0.0465744
v -0.137458 0.936527 -0.0093203
v -0.145083 0.92208 0.000125206
v -0.119599 0.935917 0.000125206
v -0.027952 0.938825 -0.121083
v -0.0465806 0.939669 -0.121083
v -0.102452 0.938778 -0.0838286
v -0.122022 0.936574 -0.0653228
v -0.134194 0.935307 -0.0465744
v -0.136403 0.936527 -0.0279545
v -0.145083 0.92208 -0.0093203
v -0.145368 0.912886 0.000125206
v -4.47055e-05 0.935917 -0.119585
v -0.114753 0.926442 0.000125206
v -4.47055e-05 0.936527 -0.137448
v -0.00932338 0.936527 -0.137448
v -0.027952 0.936527 -0.136392
v -0.0465806 0.935307 -0.134195
v -0.065309 0.936574 -0.122024
v -0.0838236 0.938778 -0.102448
v -0.100685 0.933666 -0.100679
v -0.115351 0.934088 -0.0838286
v -0.131771 0.933196 -0.0591875
v -0.14276 0.92208 -0.0279545
v -0.145639 0.903458 -0.0093203
v -0.145653 0.903458 0.000125206
v -4.47055e-05 0.926489 -0.114762
v -0.112543 0.92208 0.000125206
v -4.47055e-05 0.92208 -0.112522
v -4.47055e-05 0.92935 -0.141244
v -0.00932338 0.92208 -0.145067
v -0.027952 0.92208 -0.142756
v -0.0591802 0.933196 -0.131755
v -0.0838236 0.934088 -0.115361
v -0.0932876 0.931555 -0.11188
v -0.111888 0.931555 -0.0932883
v -0.128193 0.92208 -0.0701454
v -0.132455 0.92208 -0.0608283
v -0.13807 0.92208 -0.0465744
v -0.143116 0.903458 -0.0279545
v -0.145639 0.884837 -0.0093203
v -0.145653 0.884837 0.000125206
v -0.102794 0.828972 0.000125206
v -4.47055e-05 0.828972 -0.102777
v -4.47055e-05 0.92208 -0.145067
v -4.47055e-05 0.912839 -0.145353
v -0.00932338 0.903458 -0.145638
v -0.0465806 0.92208 -0.138062
v -0.027952 0.903458 -0.143113
v -0.0608193 0.92208 -0.13244
v -0.0701408 0.92208 -0.128188
v -0.0838236 0.92208 -0.119057
v -0.0933588 0.92208 -0.111937
v -0.10268 0.92208 -0.102677
v -0.111945 0.92208 -0.0933597
v -0.119057 0.92208 -0.0838286
v -0.128293 0.903458 -0.0701454
v -0.138142 0.903458 -0.0465744
v -0.132455 0.884837 -0.0608283
v -0.143116 0.884837 -0.0279545
v -0.138655 0.46053 -0.0093203
v -0.138655 0.46053 0.000125206
v -0.101569 0.810304 0.000125206
v -4.47055e-05 0.810304 -0.101564
v -4.47055e-05 0.903458 -0.145624
v -0.00932338 0.884837 -0.145638
v -0.0465806 0.903458 -0.138133
v -0.027952 0.884837 -0.143113
v -0.0701408 0.903458 -0.128302
v -0.0608193 0.884837 -0.13244
v -0.0838236 0.903458 -0.119156
v -0.0933588 0.884837 -0.111937
v -0.10268 0.884837 -0.102677
v -0.119157 0.903458 -0.0838286
v -0.111945 0.884837 -0.0933597
v -0.128293 0.884837 -0.0701454
v -0.138142 0.884837 -0.0465744
v -0.125328 0.46053 -0.0589164
v -0.131984 0.46053 -0.0433784
v -0.135947 0.46053 -0.0282684
v -0.105873 0.46053 0.000125206
v -0.101554 0.791683 0.000125206
v -4.47055e-05 0.80097 -0.10155
v -4.47055e-05 0.884837 -0.145624
v -4.47055e-05 0.46053 -0.138647
v -0.00932338 0.46053 -0.138647
v -0.0465806 0.884837 -0.138133
v -0.0134282 0.46053 -0.138062
v -0.0282656 0.46053 -0.135936
v -0.0309879 0.46053 -0.135237
v -0.0433737 0.46053 -0.131984
v -0.0701408 0.884837 -0.128302
v -0.0457254 0.46053 -0.131199
v -0.0838236 0.884837 -0.119156
v -0.0932876 0.875034 -0.11188
v -0.111888 0.875034 -0.0932883
v -0.119157 0.884837 -0.0838286
v -0.114653 0.46053 -0.0783353
v -0.122877 0.46053 -0.0640386
v -4.47055e-05 0.46053 -0.105859
v -0.104804 0.465596 0.000125206
v -0.101554 0.512314 0.000125206
v -4.47055e-05 0.502932 -0.10155
v -0.0640405 0.46053 -0.122866
v -0.0670051 0.46053 -0.121225
v -0.078322 0.46053 -0.114648
v -0.0803744 0.46053 -0.113078
v -0.0876434 0.46053 -0.107499
v -0.0900807 0.46053 -0.105459
v -0.0981764 0.46053 -0.0981823
v -0.107498 0.46053 -0.0876382
v -4.47055e-05 0.465689 -0.104774
v -0.104376 0.467659 0.000125206
v -0.101569 0.493692 0.000125206
v -4.47055e-05 0.493692 -0.101564
v -4.47055e-05 0.467753 -0.104346
v -0.102851 0.475071 0.000125206
v -0.102196 0.484264 0.000125206
v -4.47055e-05 0.484311 -0.102192
v -4.47055e-05 0.475071 -0.102848
f 1 2 3
f 1 3 4
f 1 4 5
f 1 5 14
f 1 14 6
f 1 6 15
f 1 15 29
f 1 29 45
f 1 45 65
f 1 65 84
f 1 84 104
f 1 104 116
f 1 116 120
f 1 120 121
f 1 121 117
f 1 117 105
f 1 105 85
f 1 85 66
f 1 66 46
f 1 46 31
f 1 31 17
f 1 17 7
f 1 7 2
f 2 7 3
f 3 8 9
f 3 9 4
f 3 7 8
f 4 9 10
f 4 10 11
f 4 11 12
f 4 12 13
f 4 13 5
f 5 13 14
f 6 14 15
f 7 16 8
f 7 17 16
f 8 16 18
f 8 18 9
f 9 18 19
f 9 19 20
f 9 20 21
f 9 21 22
f 9 22 23
f 9 23 10
f 10 23 24
f 10 24 25
f 10 25 11
f 11 25 26
f 11 26 12
f 12 26 27
f 12 27 13
f 13 27 14
f 14 27 28
f 14 28 29
f 14 29 15
f 16 17 30
f 16 30 32
f 16 32 47
f 16 47 67
f 16 67 86
f 16 86 106
f 16 106 118
f 16 118 122
f 16 122 123
f 16 123 119
f 16 119 115
f 16 115 103
f 16 103 88
f 16 88 87
f 16 87 68
f 16 68 49
f 16 49 48
f 16 48 33
f 16 33 18
f 17 31 32
f 17 32 30
f 18 33 19
f 19 33 34
f 19 34 20
f 20 34 35
f 20 35 21
f 21 36 22
f 21 35 36
f 22 36 37
f 22 37 23
f 23 37 24
f 24 37 38
f 24 38 39
f 24 39 25
f 25 39 26
f 26 39 40
f 26 40 41
f 26 41 42
f 26 42 27
f 27 42 43
f 27 43 28
f 28 43 63
f 28 63 44
f 28 44 45
f 28 45 29
f 31 46 32
f 32 46 47
f 33 48 34
f 34 48 49
f 34 49 50
f 34 50 35
f 35 51 36
f 35 50 52
f 35 52 51
f 36 38 37
f 36 51 53
f 36 53 54
f 36 54 38
f 38 54 55
f 38 55 56
f 38 56 57
f 38 57 39
f 39 57 58
f 39 58 59
f 39 59 40
f 40 59 77
f 40 77 60
f 40 60 41
f 41 61 42
f 41 60 79
f 41 79 62
f 41 62 80
f 41 80 61
f 42 61 43
f 43 61 80
f 43 80 63
f 44 63 64
f 44 64 45
f 45 64 65
f 46 66 47
f 47 66 67
f 49 68 50
f 50 68 87
f 50 87 69
f 50 69 71
f 50 71 52
f 51 52 70
f 51 70 53
f 52 71 90
f 52 90 70
f 53 72 54
f 53 70 90
f 53 90 73
f 53 73 95
f 53 95 72
f 54 72 55
f 55 72 74
f 55 74 56
f 56 74 97
f 56 97 75
f 56 75 76
f 56 76 57
f 57 76 78
f 57 78 58
f 58 77 59
f 58 78 100
f 58 100 77
f 60 77 100
f 60 100 79
f 62 79 81
f 62 81 82
f 62 82 80
f 63 80 82
f 63 82 83
f 63 83 64
f 64 83 82
f 64 82 81
f 64 81 102
f 64 102 101
f 64 101 114
f 64 114 113
f 64 113 112
f 64 112 111
f 64 111 110
f 64 110 109
f 64 109 108
f 64 108 107
f 64 107 96
f 64 96 94
f 64 94 93
f 64 93 92
f 64 92 91
f 64 91 89
f 64 89 88
f 64 88 103
f 64 103 84
f 64 84 65
f 66 85 86
f 66 86 67
f 69 87 88
f 69 88 89
f 69 89 71
f 71 89 91
f 71 91 92
f 71 92 93
f 71 93 94
f 71 94 90
f 72 95 97
f 72 97 74
f 73 90 96
f 73 96 95
f 75 97 98
f 75 98 76
f 76 98 99
f 76 99 78
f 78 99 100
f 79 100 101
f 79 101 102
f 79 102 81
f 84 103 104
f 85 105 106
f 85 106 86
f 90 94 96
f 95 96 107
f 95 107 108
f 95 108 109
f 95 109 97
f 97 109 98
f 98 109 110
f 98 110 111
f 98 111 112
f 98 112 113
f 98 113 99
f 99 113 114
f 99 114 101
f 99 101 100
f 103 115 104
f 104 115 116
f 105 117 106
f 106 117 118
f 115 119 116
f 116 119 120
f 117 121 118
f 118 121 122
f 119 123 120
f 120 123 121
f 121 123 122
