v -0.0117647 0.133657 0.238473
v -0.0117647 0.149487 0.233595
v -0.0279639 0.149487 0.231494
v -0.0279639 0.139715 0.234505
v -0.0340081 0.133657 0.235579
v -0.0117647 0.133657 0.161174
v -0.0117647 0.149487 0.189647
v -0.036808 0.149487 0.230327
v -0.0465853 0.139715 0.232055
v -0.0465853 0.133657 0.233922
v -0.162158 0.133657 4.11108e-05
v -0.189956 0.149487 4.11108e-05
v -0.0465186 0.149487 0.229044
v -0.0621845 0.149487 0.225753
v -0.0526516 0.133657 0.232591
v -0.238754 0.133657 4.11108e-05
v -0.233887 0.149487 4.11108e-05
v -0.0684065 0.149487 0.223652
v -0.0660288 0.140445 0.227317
v -0.0657399 0.133657 0.229557
v -0.238776 0.133657 0.00933005
v -0.234021 0.149068 4.11108e-05
v -0.233887 0.149487 0.00933005
v -0.071473 0.149487 0.222602
v -0.0727618 0.147139 0.222906
v -0.0779616 0.134722 0.224959
v -0.0784282 0.133657 0.225123
v -0.237465 0.133657 0.0194125
v -0.231488 0.149487 0.0279546
v -0.23691 0.139715 0.00933005
v -0.0839391 0.149487 0.217608
v -0.0796726 0.133657 0.224609
v -0.23391 0.133657 0.0465792
v -0.234487 0.139715 0.0279546
v -0.229043 0.149487 0.0465091
v -0.0926942 0.149487 0.21399
v -0.102472 0.139715 0.213173
v -0.0872278 0.133657 0.221482
v -0.229554 0.133657 0.0657405
v -0.227154 0.149487 0.0561248
v -0.232043 0.139715 0.0465792
v -0.102205 0.149487 0.210046
v -0.112804 0.149487 0.205495
v -0.102294 0.133657 0.215227
v -0.225643 0.133657 0.0769666
v -0.22291 0.147133 0.0727656
v -0.225755 0.149487 0.0621696
v -0.113582 0.149487 0.205005
v -0.121871 0.133657 0.205448
v -0.117649 0.133657 0.207992
v -0.22511 0.133657 0.0784369
v -0.224955 0.134715 0.0779702
v -0.217599 0.149487 0.083945
v -0.221177 0.149487 0.0750995
v -0.222599 0.149487 0.0714586
v -0.12667 0.133657 0.202414
v -0.122026 0.149487 0.199497
v -0.222799 0.133657 0.0840383
v -0.220555 0.140441 0.0840383
v -0.210044 0.149487 0.102196
v -0.13607 0.149487 0.189484
v -0.139559 0.133657 0.192892
v -0.217533 0.133657 0.0967348
v -0.213155 0.139715 0.102476
v -0.205978 0.149487 0.111718
v -0.140825 0.149487 0.185843
v -0.143003 0.133657 0.190254
v -0.215222 0.133657 0.102289
v -0.205489 0.149487 0.112792
v -0.149514 0.149487 0.179145
v -0.148603 0.133657 0.18596
v -0.211111 0.133657 0.111205
v -0.207111 0.139715 0.115616
v -0.207978 0.133657 0.117623
v -0.202422 0.133657 0.126655
v -0.199489 0.149487 0.121988
v -0.158891 0.133657 0.178025
v -0.156069 0.149487 0.17408
v -0.196156 0.133657 0.135197
v -0.18949 0.149487 0.136061
v -0.194489 0.149487 0.129199
v -0.16398 0.149487 0.167779
v -0.166624 0.147009 0.166635
v -0.169268 0.134591 0.169272
v -0.169468 0.133657 0.169459
v -0.192889 0.133657 0.139562
v -0.185956 0.133657 0.148594
v -0.182912 0.149487 0.144626
v -0.166024 0.149487 0.166005
v -0.174068 0.149487 0.156086
v -0.178023 0.133657 0.158887
v -0.170113 0.133657 0.168712
v -0.183157 0.133657 0.152235
f 1 2 3
f 1 3 4
f 1 4 5
f 1 5 10
f 1 10 15
f 1 15 20
f 1 20 27
f 1 27 32
f 1 32 38
f 1 38 44
f 1 44 50
f 1 50 49
f 1 49 56
f 1 56 62
f 1 62 67
f 1 67 71
f 1 71 77
f 1 77 85
f 1 85 92
f 1 92 91
f 1 91 93
f 1 93 87
f 1 87 86
f 1 86 79
f 1 79 75
f 1 75 74
f 1 74 72
f 1 72 68
f 1 68 63
f 1 63 58
f 1 58 51
f 1 51 45
f 1 45 39
f 1 39 33
f 1 33 28
f 1 28 21
f 1 21 16
f 1 16 11
f 1 11 6
f 1 6 7
f 1 7 2
f 2 7 12
f 2 12 17
f 2 17 23
f 2 23 29
f 2 29 35
f 2 35 40
f 2 40 47
f 2 47 55
f 2 55 54
f 2 54 53
f 2 53 60
f 2 60 65
f 2 65 69
f 2 69 76
f 2 76 81
f 2 81 80
f 2 80 88
f 2 88 90
f 2 90 89
f 2 89 82
f 2 82 78
f 2 78 70
f 2 70 66
f 2 66 61
f 2 61 57
f 2 57 48
f 2 48 43
f 2 43 42
f 2 42 36
f 2 36 31
f 2 31 24
f 2 24 18
f 2 18 14
f 2 14 13
f 2 13 8
f 2 8 3
f 3 8 9
f 3 9 5
f 3 5 4
f 5 9 10
f 6 11 7
f 7 11 12
f 8 13 9
f 9 13 14
f 9 14 10
f 10 14 15
f 11 16 22
f 11 22 17
f 11 17 12
f 14 18 19
f 14 19 20
f 14 20 15
f 16 21 22
f 17 22 23
f 18 24 25
f 18 25 20
f 18 20 19
f 20 25 26
f 20 26 27
f 21 28 29
f 21 29 30
f 21 30 22
f 22 30 23
f 23 30 29
f 24 31 25
f 25 31 26
f 26 31 27
f 27 31 32
f 28 33 34
f 28 34 29
f 29 34 33
f 29 33 35
f 31 36 32
f 32 36 37
f 32 37 38
f 33 39 40
f 33 40 41
f 33 41 35
f 35 41 40
f 36 42 37
f 37 42 43
f 37 43 44
f 37 44 38
f 39 45 46
f 39 46 47
f 39 47 40
f 43 48 49
f 43 49 50
f 43 50 44
f 45 51 52
f 45 52 46
f 46 52 53
f 46 53 54
f 46 54 55
f 46 55 47
f 48 56 49
f 48 57 56
f 51 58 52
f 52 58 59
f 52 59 53
f 53 59 60
f 56 57 61
f 56 61 62
f 58 63 64
f 58 64 60
f 58 60 59
f 60 64 65
f 61 66 62
f 62 66 67
f 63 68 64
f 64 68 65
f 65 68 69
f 66 70 71
f 66 71 67
f 68 72 69
f 69 72 73
f 69 73 74
f 69 74 75
f 69 75 76
f 70 77 71
f 70 78 77
f 72 74 73
f 75 79 80
f 75 80 81
f 75 81 76
f 77 78 82
f 77 82 83
f 77 83 84
f 77 84 85
f 79 86 80
f 80 86 87
f 80 87 88
f 82 89 83
f 83 89 90
f 83 90 91
f 83 91 92
f 83 92 84
f 84 92 85
f 87 93 88
f 88 93 91
f 88 91 90
