v -0.0881855 0.460483 -0.0578438
v -4.70338e-05 0.460483 -0.105876
v -0.0881855 0.460483 -0.107063
v -0.0881855 0.133655 -0.140767
v -4.70338e-05 0.133655 -0.162144
v -4.70338e-05 0.460483 -0.138659
v -0.0876419 0.460483 -0.107506
v -0.0881855 0.406321 -0.127342
v -0.0881855 0.133655 -0.221051
v -4.70338e-05 0.133655 -0.238744
v -0.00932249 0.460483 -0.138659
v -4.70338e-05 0.428619 -0.149073
v -0.0783319 0.460483 -0.114661
v -0.0881855 0.35411 -0.146629
v -0.0783837 0.133655 -0.225107
v -0.0881855 0.140278 -0.218872
v -0.0457082 0.460483 -0.131203
v -0.077935 0.134711 -0.224947
v -4.70338e-05 0.186506 -0.223601
v -0.00932249 0.133655 -0.238744
v -0.0134296 0.460483 -0.138075
v -0.000443936 0.428619 -0.149073
v -0.000538846 0.186506 -0.223601
v -0.00932249 0.139734 -0.236885
v -0.019409 0.133655 -0.237451
v -0.0283911 0.133655 -0.236282
v -0.0411093 0.133655 -0.234618
v -0.046571 0.139734 -0.232032
v -0.0524901 0.166223 -0.223088
v -0.0669943 0.460483 -0.121249
v -0.0736381 0.42734 -0.129999
v -0.0881855 0.300332 -0.165828
v -0.07696 0.133655 -0.22562
v -0.0881855 0.236701 -0.18701
v -0.0640262 0.460483 -0.122896
v -0.0433699 0.460483 -0.132
v -0.0554927 0.223392 -0.204845
v -0.0881855 0.244091 -0.184566
v -0.0881855 0.292622 -0.168485
v -0.0727235 0.147124 -0.222893
v -0.0282617 0.460483 -0.135949
v -0.046571 0.133655 -0.233891
v -0.0603074 0.15381 -0.225001
v -0.0657087 0.133655 -0.229535
v -0.0309883 0.460483 -0.135259
v -0.0382878 0.410992 -0.149374
f 1 2 6
f 1 6 11
f 1 11 21
f 1 21 41
f 1 41 45
f 1 45 36
f 1 36 17
f 1 17 35
f 1 35 30
f 1 30 13
f 1 13 7
f 1 7 3
f 1 3 8
f 1 8 14
f 1 14 32
f 1 32 39
f 1 39 38
f 1 38 34
f 1 34 16
f 1 16 9
f 1 9 4
f 1 4 5
f 1 5 2
f 2 5 10
f 2 10 19
f 2 19 12
f 2 12 6
f 3 7 8
f 4 9 15
f 4 15 33
f 4 33 44
f 4 44 42
f 4 42 27
f 4 27 26
f 4 26 25
f 4 25 20
f 4 20 10
f 4 10 5
f 6 12 22
f 6 22 11
f 7 13 8
f 8 13 14
f 9 16 17
f 9 17 18
f 9 18 15
f 10 20 23
f 10 23 19
f 11 22 23
f 11 23 24
f 11 24 25
f 11 25 26
f 11 26 27
f 11 27 28
f 11 28 29
f 11 29 21
f 12 19 23
f 12 23 22
f 13 30 31
f 13 31 14
f 14 31 32
f 15 18 33
f 16 34 17
f 17 31 35
f 17 36 37
f 17 37 18
f 17 34 38
f 17 38 39
f 17 39 31
f 18 37 40
f 18 40 33
f 20 25 24
f 20 24 23
f 21 29 41
f 27 42 28
f 28 42 29
f 29 42 43
f 29 43 37
f 29 37 41
f 30 35 31
f 31 39 32
f 33 40 44
f 36 45 46
f 36 46 37
f 37 43 44
f 37 44 40
f 37 46 41
f 41 46 45
f 42 44 43
