v -0.14564 0.884838 0.000139453
v -0.14564 0.884838 0.00932839
v -0.14564 0.903459 0.000139453
v -0.138656 0.460483 0.000139453
v -0.143131 0.884838 0.0279485
v -0.14564 0.903459 0.00932839
v -0.138656 0.460483 0.00932839
v -0.145369 0.912887 0.000139453
v -0.105874 0.460483 0.000139453
v -0.138157 0.884838 0.0465828
v -0.143131 0.903459 0.0279485
v -0.138071 0.460483 0.0134314
v -0.135948 0.460483 0.0282619
v -0.135264 0.460483 0.030983
v -0.132 0.460483 0.0433916
v -0.142775 0.922081 0.0279485
v -0.145084 0.922081 0.00932839
v -0.145084 0.922081 0.000139453
v -5.89527e-05 0.460483 0.105905
v -0.104805 0.465596 0.000139453
v -0.132456 0.884838 0.0608435
v -0.138157 0.903459 0.0465828
v -0.131216 0.460483 0.045728
v -0.138086 0.922081 0.0465828
v -0.131772 0.933197 0.0591909
v -0.134195 0.935308 0.0465828
v -0.136404 0.936528 0.0279485
v -0.137459 0.936528 0.00932839
v -0.137459 0.936528 0.000139453
v -5.89527e-05 0.460483 0.138672
v -5.89527e-05 0.475071 0.10287
v -0.104377 0.46766 0.000139453
v -0.128308 0.884838 0.0701606
v -0.132456 0.922081 0.0608435
v -0.122892 0.460483 0.0640489
v -0.111889 0.931556 0.0932968
v -0.115366 0.934088 0.083823
v -0.122023 0.936574 0.0653311
v -0.128194 0.922081 0.0701606
v -0.121082 0.939623 0.0465828
v -0.121082 0.938826 0.0279485
v -0.128607 0.936246 0.000139453
v -0.00932345 0.460483 0.138672
v -5.89527e-05 0.884838 0.145652
v -0.00932345 0.884838 0.145667
v -0.102852 0.475071 0.000139453
v -0.102196 0.484264 0.000139453
v -5.89527e-05 0.493692 0.101588
v -0.119186 0.884838 0.083823
v -0.128308 0.903459 0.0701606
v -0.121253 0.460483 0.0670122
v -0.114668 0.460483 0.0783381
v -0.0933026 0.931556 0.111888
v -0.100686 0.933666 0.100691
v -0.119072 0.922081 0.083823
v -0.11196 0.922081 0.0933823
v -0.102695 0.922081 0.102699
v -0.102453 0.938779 0.083823
v -0.0838243 0.938779 0.102457
v -0.046581 0.939623 0.121077
v -0.0279522 0.938826 0.121077
v -5.89527e-05 0.935918 0.119596
v -0.119599 0.935918 0.000139453
v -0.0282658 0.460483 0.135965
v -0.0279522 0.884838 0.143145
v -5.89527e-05 0.903459 0.145652
v -0.00932345 0.903459 0.145667
v -0.101569 0.493692 0.000139453
v -5.89527e-05 0.503026 0.101574
v -0.111889 0.874987 0.0932968
v -0.11196 0.884838 0.0933823
v -0.119186 0.903459 0.083823
v -0.107513 0.460483 0.0876552
v -0.059195 0.933197 0.131776
v -0.0838243 0.934088 0.115365
v -0.0933881 0.922081 0.11196
v -0.0838243 0.922081 0.119083
v -0.0701698 0.922081 0.128201
v -0.102695 0.884838 0.102699
v -0.0653238 0.936574 0.122018
v -0.046581 0.935308 0.134198
v -0.0279522 0.936528 0.136407
v -0.00932345 0.936528 0.137475
v -5.89527e-05 0.936528 0.137475
v -5.89527e-05 0.922081 0.112544
v -0.114753 0.926443 0.000139453
v -0.0434026 0.460483 0.132004
v -0.0279522 0.903459 0.143145
v -0.046581 0.884838 0.138159
v -5.89527e-05 0.912746 0.145382
v -5.89527e-05 0.922081 0.145097
v -0.00932345 0.922081 0.145097
v -0.0279522 0.922081 0.142775
v -0.101555 0.512314 0.000139453
v -5.89527e-05 0.801064 0.101574
v -0.0933026 0.874987 0.111888
v -0.10546 0.460483 0.0900914
v -0.0981914 0.460483 0.0981976
v -0.0608483 0.922081 0.13246
v -0.046581 0.922081 0.138088
v -0.0838243 0.903459 0.119183
v -0.0933881 0.884838 0.11196
v -0.0701698 0.903459 0.128315
v -5.89527e-05 0.828926 0.102799
v -0.11253 0.922081 0.000139453
v -0.0589527 0.460483 0.125337
v -0.0608483 0.884838 0.13246
v -0.046581 0.903459 0.138159
v -0.101555 0.791683 0.000139453
v -0.101569 0.810305 0.000139453
v -5.89527e-05 0.810305 0.101588
v -0.0838243 0.884838 0.119183
v -0.0876584 0.460483 0.107515
v -0.0856202 0.460483 0.109082
v -0.0783511 0.460483 0.114666
v -0.0701698 0.884838 0.128315
v -5.89527e-05 0.819686 0.102172
v -0.102795 0.828926 0.000139453
v -0.064041 0.460483 0.122901
f 1 2 6
f 1 6 3
f 1 3 8
f 1 8 18
f 1 18 29
f 1 29 42
f 1 42 63
f 1 63 86
f 1 86 105
f 1 105 118
f 1 118 110
f 1 110 109
f 1 109 94
f 1 94 68
f 1 68 47
f 1 47 46
f 1 46 32
f 1 32 20
f 1 20 9
f 1 9 4
f 1 4 7
f 1 7 2
f 2 5 11
f 2 11 6
f 2 7 5
f 3 6 8
f 4 9 19
f 4 19 30
f 4 30 43
f 4 43 64
f 4 64 87
f 4 87 106
f 4 106 119
f 4 119 115
f 4 115 114
f 4 114 113
f 4 113 98
f 4 98 97
f 4 97 73
f 4 73 52
f 4 52 51
f 4 51 35
f 4 35 23
f 4 23 15
f 4 15 14
f 4 14 13
f 4 13 12
f 4 12 7
f 5 10 22
f 5 22 11
f 5 7 12
f 5 12 13
f 5 13 14
f 5 14 15
f 5 15 10
f 6 11 16
f 6 16 17
f 6 17 8
f 8 17 18
f 9 20 19
f 10 21 34
f 10 34 22
f 10 15 23
f 10 23 21
f 11 22 24
f 11 24 16
f 16 24 25
f 16 25 26
f 16 26 27
f 16 27 17
f 17 27 28
f 17 28 29
f 17 29 18
f 19 20 31
f 19 31 48
f 19 48 69
f 19 69 95
f 19 95 111
f 19 111 117
f 19 117 104
f 19 104 85
f 19 85 62
f 19 62 84
f 19 84 91
f 19 91 90
f 19 90 66
f 19 66 44
f 19 44 30
f 20 32 31
f 21 33 50
f 21 50 34
f 21 23 33
f 22 34 24
f 23 35 33
f 24 34 25
f 25 36 37
f 25 37 38
f 25 38 26
f 25 34 39
f 25 39 36
f 26 38 40
f 26 40 27
f 27 40 28
f 28 40 29
f 29 40 41
f 29 41 42
f 30 44 45
f 30 45 43
f 31 32 46
f 31 46 47
f 31 47 48
f 33 49 72
f 33 72 50
f 33 35 51
f 33 51 52
f 33 52 49
f 34 50 39
f 36 53 54
f 36 54 37
f 36 39 55
f 36 55 56
f 36 56 57
f 36 57 53
f 37 58 38
f 37 54 58
f 38 58 40
f 39 50 72
f 39 72 55
f 40 58 59
f 40 59 60
f 40 60 41
f 41 60 61
f 41 61 62
f 41 62 63
f 41 63 42
f 43 45 65
f 43 65 64
f 44 66 67
f 44 67 45
f 45 67 88
f 45 88 65
f 47 68 48
f 48 68 69
f 49 70 71
f 49 71 56
f 49 56 72
f 49 52 70
f 52 73 70
f 53 74 75
f 53 75 54
f 53 57 76
f 53 76 77
f 53 77 78
f 53 78 74
f 54 75 59
f 54 59 58
f 55 72 56
f 56 71 79
f 56 79 57
f 57 79 102
f 57 102 76
f 59 75 80
f 59 80 60
f 60 80 81
f 60 81 82
f 60 82 83
f 60 83 84
f 60 84 61
f 61 84 62
f 62 85 86
f 62 86 63
f 64 65 87
f 65 88 108
f 65 108 89
f 65 89 87
f 66 90 67
f 67 90 91
f 67 91 92
f 67 92 93
f 67 93 88
f 68 94 69
f 69 94 109
f 69 109 95
f 70 96 79
f 70 79 71
f 70 73 97
f 70 97 98
f 70 98 96
f 74 78 99
f 74 99 100
f 74 100 93
f 74 93 81
f 74 81 80
f 74 80 75
f 76 101 77
f 76 102 112
f 76 112 101
f 77 101 103
f 77 103 78
f 78 103 99
f 79 96 102
f 81 93 82
f 82 93 92
f 82 92 83
f 83 92 91
f 83 91 84
f 85 104 105
f 85 105 86
f 87 89 107
f 87 107 106
f 88 93 100
f 88 100 108
f 89 108 99
f 89 99 107
f 95 109 110
f 95 110 111
f 96 112 102
f 96 98 113
f 96 113 114
f 96 114 115
f 96 115 112
f 99 108 100
f 99 103 116
f 99 116 107
f 101 112 116
f 101 116 103
f 104 117 118
f 104 118 105
f 106 107 116
f 106 116 119
f 110 118 117
f 110 117 111
f 112 115 116
f 115 119 116
