v -0.218824 0.149488 0.0809513
v -0.171843 0.149488 0.0809513
v -0.217608 0.149488 0.08394
v -0.202691 0.198409 0.0809513
v -0.0117647 0.149488 0.189665
v -0.0685764 0.45683 0.0809513
v -0.0117647 0.460453 0.105399
v -0.0117647 0.456373 0.106251
v -0.210028 0.149488 0.102201
v -0.207555 0.157282 0.101992
v -0.205873 0.170585 0.0954614
v -0.171437 0.288852 0.0842837
v -0.170201 0.296766 0.0809513
v -0.0117647 0.149488 0.233599
v -0.0679278 0.460453 0.0809513
v -0.0117647 0.460453 0.138334
v -0.205974 0.149488 0.11172
v -0.205346 0.150371 0.112542
v -0.166573 0.295092 0.0907841
v -0.151656 0.351075 0.0809513
v -0.027959 0.149488 0.231492
v -0.11268 0.460453 0.0809513
v -0.0282833 0.460453 0.135973
v -0.0525848 0.166262 0.223094
v -0.0465246 0.149488 0.229056
v -0.205488 0.149488 0.112796
v -0.199489 0.149488 0.122016
v -0.186436 0.20538 0.112004
v -0.168722 0.282672 0.0949085
v -0.128165 0.418138 0.0809513
v -0.134407 0.400512 0.0809513
v -0.107532 0.460453 0.0876759
v -0.189476 0.149488 0.136078
v -0.0434033 0.460453 0.132013
v -0.038316 0.411015 0.149408
v -0.0555845 0.223401 0.204863
v -0.0603475 0.153842 0.225007
v -0.062192 0.149488 0.225754
v -0.194482 0.149488 0.129219
v -0.129969 0.315823 0.129981
v -0.105485 0.460453 0.0901116
v -0.182909 0.149488 0.144641
v -0.179099 0.149488 0.149602
v -0.174072 0.149488 0.156102
v -0.149669 0.225228 0.149691
v -0.058949 0.460453 0.125348
v -0.112558 0.150371 0.205356
v -0.101999 0.157312 0.207553
v -0.102201 0.149488 0.210048
v -0.0926956 0.149488 0.213993
v -0.0839397 0.149488 0.21761
v -0.0662456 0.216004 0.202965
v -0.0714748 0.149488 0.222601
v -0.0684143 0.149488 0.223647
v -0.087669 0.460453 0.107521
v -0.112883 0.394028 0.112886
v -0.0982085 0.460453 0.098211
v -0.166026 0.149488 0.166025
v -0.163979 0.149488 0.167788
v -0.0640566 0.460453 0.122913
v -0.0736637 0.427362 0.129996
v -0.112011 0.20538 0.186438
v -0.113572 0.149488 0.205012
v -0.112802 0.149488 0.205491
v -0.0856422 0.460453 0.109105
v -0.154493 0.158347 0.171898
v -0.156074 0.149488 0.174079
v -0.078366 0.460453 0.114679
v -0.136069 0.149488 0.189486
v -0.122003 0.149488 0.199498
v -0.149507 0.149488 0.179145
v -0.144623 0.149488 0.182911
f 1 2 5
f 1 5 14
f 1 14 21
f 1 21 25
f 1 25 38
f 1 38 54
f 1 54 53
f 1 53 51
f 1 51 50
f 1 50 49
f 1 49 64
f 1 64 63
f 1 63 70
f 1 70 69
f 1 69 72
f 1 72 71
f 1 71 67
f 1 67 59
f 1 59 58
f 1 58 44
f 1 44 43
f 1 43 42
f 1 42 33
f 1 33 39
f 1 39 27
f 1 27 26
f 1 26 17
f 1 17 9
f 1 9 3
f 1 3 4
f 1 4 13
f 1 13 20
f 1 20 31
f 1 31 30
f 1 30 22
f 1 22 15
f 1 15 6
f 1 6 2
f 2 6 7
f 2 7 8
f 2 8 5
f 3 9 10
f 3 10 11
f 3 11 4
f 4 11 12
f 4 12 13
f 5 8 7
f 5 7 16
f 5 16 14
f 6 15 7
f 7 15 22
f 7 22 32
f 7 32 41
f 7 41 57
f 7 57 55
f 7 55 65
f 7 65 68
f 7 68 60
f 7 60 46
f 7 46 34
f 7 34 23
f 7 23 16
f 9 17 18
f 9 18 10
f 10 18 12
f 10 12 11
f 12 19 13
f 12 18 19
f 13 19 20
f 14 16 21
f 16 23 24
f 16 24 25
f 16 25 21
f 17 26 18
f 18 26 27
f 18 27 28
f 18 28 29
f 18 29 19
f 19 29 30
f 19 30 31
f 19 31 20
f 22 30 28
f 22 28 33
f 22 33 32
f 23 34 35
f 23 35 36
f 23 36 24
f 24 36 37
f 24 37 25
f 25 37 38
f 27 39 28
f 28 39 33
f 28 30 29
f 32 40 41
f 32 33 42
f 32 42 43
f 32 43 44
f 32 44 45
f 32 45 40
f 34 46 47
f 34 47 48
f 34 48 49
f 34 49 50
f 34 50 51
f 34 51 52
f 34 52 36
f 34 36 35
f 36 52 51
f 36 51 53
f 36 53 54
f 36 54 38
f 36 38 37
f 40 55 56
f 40 56 41
f 40 45 55
f 41 56 57
f 44 58 45
f 45 58 59
f 45 59 55
f 46 60 61
f 46 61 47
f 47 62 63
f 47 63 64
f 47 64 49
f 47 49 48
f 47 61 62
f 55 57 56
f 55 59 66
f 55 66 65
f 59 67 66
f 60 68 61
f 61 68 62
f 62 69 70
f 62 70 63
f 62 68 69
f 65 66 67
f 65 67 71
f 65 71 72
f 65 72 69
f 65 69 68
