v -0.0117647 0.152643 0.189848
v 0.166612 0.152643 0.0958299
v -0.0117647 0.152643 0.232623
v -0.0117647 0.456385 0.106245
v 0.211639 0.152643 0.0958299
v -0.0117647 0.458826 0.105735
v -0.0117647 0.460483 0.1054
v 0.045092 0.460483 0.0958299
v -0.010059 0.152643 0.232838
v -0.00929363 0.158368 0.231187
v -0.00929363 0.460483 0.138685
v -0.0117647 0.460483 0.138336
v 0.209036 0.152643 0.102111
v 0.207877 0.164033 0.0958299
v 0.0958476 0.460483 0.0958299
v -0.00929363 0.152643 0.232932
v -0.000590172 0.186543 0.223617
v -0.000502705 0.428662 0.1491
v 0.00931602 0.460483 0.138685
v 0.206062 0.152643 0.10905
v 0.207549 0.157283 0.10199
v 0.203198 0.162798 0.107883
v 0.205953 0.169819 0.0958299
v 0.0982094 0.460483 0.0982056
v 0.100199 0.460393 0.0958299
v 0.00931602 0.152643 0.232932
v 0.000612567 0.186543 0.223617
v 0.000525092 0.428662 0.1491
v 0.0282756 0.460483 0.135974
v 0.00931602 0.158368 0.231187
v 0.0222619 0.152643 0.231268
v 0.0279475 0.152643 0.230529
v 0.040128 0.152643 0.228932
v 0.0464479 0.159363 0.226033
v 0.0525928 0.166263 0.223094
v 0.202935 0.152643 0.114902
v 0.186425 0.205376 0.112003
v 0.187409 0.225505 0.0958299
v 0.168427 0.281763 0.0958299
v 0.0901182 0.460483 0.10548
v 0.112861 0.394009 0.112889
v 0.113845 0.426282 0.0958299
v 0.0383348 0.411004 0.149409
v 0.0309872 0.460483 0.13529
v 0.0555668 0.223395 0.204854
v 0.0464916 0.152643 0.228087
v 0.0591969 0.152643 0.225604
v 0.0603559 0.153848 0.225013
v 0.198911 0.152643 0.121076
v 0.169258 0.246357 0.113869
v 0.176672 0.213482 0.1207
v 0.184085 0.180576 0.127545
v 0.188349 0.158368 0.133115
v 0.189071 0.152643 0.135021
v 0.150977 0.329555 0.0958299
v 0.148856 0.33528 0.0958299
v 0.132455 0.377948 0.0958434
v 0.087669 0.460483 0.10752
v 0.149665 0.225234 0.149691
v 0.129962 0.315814 0.129975
v 0.118065 0.400337 0.103319
v 0.128584 0.388013 0.0958299
v 0.115223 0.41914 0.097615
v 0.130093 0.353119 0.111372
v 0.0434082 0.460483 0.132015
v 0.0697373 0.152643 0.222181
v 0.0782002 0.152643 0.218893
v 0.0457481 0.460483 0.131236
v 0.0608588 0.152643 0.225214
v 0.166897 0.184343 0.148053
v 0.147303 0.274953 0.128163
v 0.181198 0.158368 0.14243
v 0.186731 0.152643 0.138081
v 0.132455 0.377948 0.0958299
v 0.0804088 0.460483 0.113104
v 0.143848 0.152643 0.182305
v 0.15113 0.171928 0.169286
v 0.154498 0.158368 0.17189
v 0.165235 0.152643 0.165233
v 0.169237 0.152643 0.160616
v 0.173304 0.152643 0.155529
v 0.16928 0.171928 0.15114
v 0.0839077 0.152643 0.216584
v 0.0736735 0.427367 0.130001
v 0.0640516 0.460483 0.122901
v 0.0838421 0.158368 0.214732
v 0.102102 0.152643 0.209041
v 0.109056 0.152643 0.206075
v 0.182292 0.152643 0.143852
v 0.0783532 0.460483 0.114674
v 0.135013 0.152643 0.189083
v 0.151327 0.152643 0.176534
v 0.155503 0.152643 0.1733
v 0.0670256 0.460483 0.121264
v 0.107875 0.162798 0.203203
v 0.0949073 0.282697 0.168723
v 0.111986 0.205376 0.186439
v 0.114873 0.152643 0.202961
v 0.130596 0.152643 0.192305
v 0.121061 0.152643 0.198935
f 1 2 5
f 1 5 13
f 1 13 20
f 1 20 36
f 1 36 49
f 1 49 54
f 1 54 73
f 1 73 89
f 1 89 81
f 1 81 80
f 1 80 79
f 1 79 93
f 1 93 92
f 1 92 76
f 1 76 91
f 1 91 99
f 1 99 100
f 1 100 98
f 1 98 88
f 1 88 87
f 1 87 83
f 1 83 67
f 1 67 66
f 1 66 69
f 1 69 47
f 1 47 46
f 1 46 33
f 1 33 32
f 1 32 31
f 1 31 26
f 1 26 16
f 1 16 9
f 1 9 3
f 1 3 12
f 1 12 7
f 1 7 6
f 1 6 4
f 1 4 2
f 2 4 6
f 2 6 7
f 2 7 8
f 2 8 15
f 2 15 25
f 2 25 42
f 2 42 62
f 2 62 74
f 2 74 56
f 2 56 55
f 2 55 39
f 2 39 38
f 2 38 23
f 2 23 14
f 2 14 5
f 3 9 10
f 3 10 11
f 3 11 12
f 5 14 13
f 7 12 11
f 7 11 19
f 7 19 29
f 7 29 44
f 7 44 65
f 7 65 68
f 7 68 85
f 7 85 94
f 7 94 90
f 7 90 75
f 7 75 58
f 7 58 40
f 7 40 24
f 7 24 15
f 7 15 8
f 9 16 10
f 10 16 17
f 10 17 11
f 11 18 28
f 11 28 19
f 11 17 18
f 13 14 21
f 13 21 22
f 13 22 20
f 14 23 21
f 15 24 25
f 16 26 27
f 16 27 17
f 17 27 28
f 17 28 18
f 19 28 27
f 19 27 30
f 19 30 31
f 19 31 32
f 19 32 33
f 19 33 34
f 19 34 35
f 19 35 29
f 20 22 37
f 20 37 36
f 21 23 38
f 21 38 22
f 22 38 39
f 22 39 37
f 24 40 41
f 24 41 25
f 25 41 42
f 26 31 30
f 26 30 27
f 29 43 44
f 29 35 45
f 29 45 43
f 33 46 34
f 34 46 35
f 35 46 47
f 35 47 48
f 35 48 45
f 36 37 49
f 37 50 51
f 37 51 52
f 37 52 53
f 37 53 54
f 37 54 49
f 37 39 55
f 37 55 56
f 37 56 57
f 37 57 50
f 40 58 59
f 40 59 60
f 40 60 41
f 41 61 42
f 41 60 61
f 42 57 62
f 42 61 63
f 42 63 64
f 42 64 57
f 43 65 44
f 43 45 65
f 45 48 66
f 45 66 67
f 45 67 68
f 45 68 65
f 47 69 48
f 48 69 66
f 50 57 51
f 51 57 52
f 52 70 53
f 52 57 71
f 52 71 70
f 53 70 72
f 53 72 73
f 53 73 54
f 56 74 57
f 57 74 62
f 57 64 71
f 58 75 76
f 58 76 77
f 58 77 78
f 58 78 59
f 59 78 79
f 59 79 80
f 59 80 81
f 59 81 82
f 59 82 70
f 59 70 60
f 60 71 61
f 60 70 71
f 61 71 64
f 61 64 63
f 67 83 68
f 68 84 85
f 68 83 86
f 68 86 87
f 68 87 88
f 68 88 84
f 70 82 81
f 70 81 72
f 72 81 89
f 72 89 73
f 75 90 91
f 75 91 76
f 76 92 77
f 77 92 78
f 78 92 93
f 78 93 79
f 83 87 86
f 84 90 94
f 84 94 85
f 84 88 95
f 84 95 96
f 84 96 97
f 84 97 90
f 88 98 97
f 88 97 95
f 90 97 91
f 91 97 99
f 95 97 96
f 97 98 100
f 97 100 99
