v 0.138665 0.460483 4.11177e-05
v 0.138665 0.460483 -0.00931807
v 0.105908 0.460483 4.11177e-05
v 0.149092 0.42863 4.11177e-05
v 0.138086 0.460483 -0.013427
v 0.149092 0.42863 -0.000477687
v 0.223613 0.186527 -0.000581449
v 0.231162 0.158372 -0.00931807
v 0.228751 0.158372 -0.0279534
v 0.226327 0.158342 -0.0464436
v 0.22309 0.166239 -0.0525447
v 0.106321 0.458442 4.11177e-05
v 0.0904668 0.460483 -0.0544539
v 0.090453 0.460453 -0.0544539
v 0.090453 0.456106 -0.0555745
v 0.090453 0.158342 -0.167096
v 0.223613 0.186527 4.11177e-05
v 0.135951 0.460483 -0.0282647
v 0.231162 0.158372 4.11177e-05
v 0.231162 0.158342 -0.00931807
v 0.228751 0.158342 -0.0279534
v 0.224302 0.158342 -0.0574837
v 0.204852 0.223378 -0.055533
v 0.106749 0.456372 4.11177e-05
v 0.090453 0.460483 -0.0651204
v 0.090453 0.158342 -0.211962
v 0.190499 0.158342 4.11177e-05
v 0.188763 0.164464 4.11177e-05
v 0.149395 0.411004 -0.0383087
v 0.135262 0.460483 -0.0309833
v 0.231162 0.158342 4.11177e-05
v 0.221947 0.158342 -0.0649752
v 0.221602 0.158342 -0.0660128
v 0.221285 0.159348 -0.0660128
v 0.221409 0.158342 -0.0665523
v 0.214701 0.158372 -0.0838388
v 0.202951 0.216014 -0.066241
v 0.131212 0.460483 -0.0457172
v 0.131998 0.460483 -0.043393
v 0.090453 0.460483 -0.104985
v 0.090453 0.169906 -0.208144
v 0.0954532 0.170557 -0.205861
v 0.101445 0.158342 -0.207397
v 0.214701 0.158342 -0.0838596
v 0.207414 0.158342 -0.101457
v 0.129986 0.427359 -0.0736495
v 0.122893 0.460483 -0.0640413
v 0.206698 0.158342 -0.103138
v 0.203957 0.158342 -0.109509
v 0.0939656 0.336947 -0.149623
v 0.090453 0.400031 -0.128041
v 0.0981944 0.460483 -0.0981993
v 0.112878 0.393998 -0.11285
v 0.129973 0.315801 -0.12995
v 0.149671 0.225212 -0.149664
v 0.148045 0.184309 -0.166889
v 0.1331 0.158372 -0.188346
v 0.111997 0.205367 -0.186437
v 0.090453 0.239142 -0.185275
v 0.10314 0.158342 -0.206691
v 0.114669 0.460483 -0.0783395
v 0.121253 0.460483 -0.0670089
v 0.186435 0.205367 -0.111979
v 0.197634 0.158342 -0.119761
v 0.0948885 0.282677 -0.168715
v 0.0907698 0.295069 -0.166557
v 0.090453 0.348422 -0.147444
v 0.105467 0.460483 -0.0901059
v 0.107506 0.460483 -0.0876572
v 0.171875 0.158372 -0.154479
v 0.16379 0.158372 -0.163797
v 0.154492 0.158372 -0.171869
v 0.142411 0.158372 -0.181187
v 0.142411 0.158342 -0.181187
v 0.133086 0.158342 -0.188346
v 0.119779 0.158342 -0.197622
v 0.109531 0.158342 -0.203952
v 0.090453 0.294802 -0.166785
v 0.188336 0.158372 -0.133084
v 0.181201 0.158372 -0.142401
v 0.188336 0.158342 -0.133084
v 0.090453 0.295719 -0.166474
v 0.171875 0.158342 -0.154479
v 0.16379 0.158342 -0.163797
v 0.154492 0.158342 -0.171869
v 0.181201 0.158342 -0.142401
f 1 2 5
f 1 5 18
f 1 18 30
f 1 30 39
f 1 39 38
f 1 38 47
f 1 47 62
f 1 62 61
f 1 61 69
f 1 69 68
f 1 68 52
f 1 52 40
f 1 40 25
f 1 25 13
f 1 13 3
f 1 3 12
f 1 12 24
f 1 24 28
f 1 28 27
f 1 27 31
f 1 31 19
f 1 19 17
f 1 17 4
f 1 4 6
f 1 6 2
f 2 6 7
f 2 7 8
f 2 8 9
f 2 9 10
f 2 10 11
f 2 11 5
f 3 13 14
f 3 14 15
f 3 15 16
f 3 16 12
f 4 17 7
f 4 7 6
f 5 11 18
f 7 17 19
f 7 19 8
f 8 19 31
f 8 31 20
f 8 20 21
f 8 21 9
f 9 21 10
f 10 21 20
f 10 20 31
f 10 31 27
f 10 27 16
f 10 16 26
f 10 26 43
f 10 43 60
f 10 60 77
f 10 77 76
f 10 76 75
f 10 75 74
f 10 74 85
f 10 85 84
f 10 84 83
f 10 83 86
f 10 86 81
f 10 81 64
f 10 64 49
f 10 49 48
f 10 48 45
f 10 45 44
f 10 44 35
f 10 35 33
f 10 33 32
f 10 32 22
f 10 22 11
f 11 22 23
f 11 23 18
f 12 16 24
f 13 25 14
f 14 25 40
f 14 40 51
f 14 51 67
f 14 67 82
f 14 82 78
f 14 78 59
f 14 59 41
f 14 41 26
f 14 26 16
f 14 16 15
f 16 27 28
f 16 28 24
f 18 29 30
f 18 23 29
f 22 32 23
f 23 32 33
f 23 33 34
f 23 34 35
f 23 35 36
f 23 36 37
f 23 37 38
f 23 38 39
f 23 39 29
f 26 41 42
f 26 42 43
f 29 39 30
f 33 35 34
f 35 44 36
f 36 44 45
f 36 45 38
f 36 38 37
f 38 46 47
f 38 45 48
f 38 48 49
f 38 49 46
f 40 50 51
f 40 52 53
f 40 53 54
f 40 54 55
f 40 55 56
f 40 56 57
f 40 57 58
f 40 58 50
f 41 59 42
f 42 60 43
f 42 59 60
f 46 61 62
f 46 62 47
f 46 49 63
f 46 63 61
f 49 64 63
f 50 65 66
f 50 66 67
f 50 67 51
f 50 58 65
f 52 68 53
f 53 68 54
f 54 68 69
f 54 69 55
f 55 70 71
f 55 71 72
f 55 72 56
f 55 69 70
f 56 72 73
f 56 73 57
f 57 73 74
f 57 74 75
f 57 75 76
f 57 76 58
f 58 76 77
f 58 77 65
f 59 78 60
f 60 78 77
f 61 63 79
f 61 79 80
f 61 80 69
f 63 64 79
f 64 81 79
f 65 77 66
f 66 77 78
f 66 78 82
f 66 82 67
f 69 80 70
f 70 80 86
f 70 86 83
f 70 83 84
f 70 84 71
f 71 84 85
f 71 85 72
f 72 85 74
f 72 74 73
f 79 81 86
f 79 86 80
