v 0.090453 0.460451 -0.0544435
v 0.090453 0.460483 -0.0651245
v 0.085218 0.460483 -0.0622558
v -3.84043e-05 0.460483 -0.105882
v -3.84043e-05 0.133655 -0.162137
v 0.0684856 0.133655 -0.143012
v 0.090453 0.133655 -0.139747
v 0.090453 0.460483 -0.104998
v -3.84043e-05 0.460483 -0.138664
v -3.84043e-05 0.133655 -0.238744
v 0.090453 0.133655 -0.220106
v 0.0876451 0.460483 -0.107505
v 0.090453 0.399187 -0.12838
v 0.00931544 0.460483 -0.138664
v -3.84043e-05 0.428619 -0.149074
v 0.00931544 0.133655 -0.238744
v -3.84043e-05 0.186506 -0.223606
v 0.0901961 0.133655 -0.220215
v 0.090453 0.13807 -0.218663
v 0.0855989 0.460483 -0.109093
v 0.090453 0.348416 -0.147433
v 0.0783267 0.460483 -0.114668
v 0.000448776 0.428619 -0.149074
v 0.0282623 0.460483 -0.13594
v 0.0524884 0.166223 -0.223083
v 0.0465714 0.139734 -0.232032
v 0.0340022 0.133655 -0.23555
v 0.0283863 0.133655 -0.23629
v 0.0279434 0.139734 -0.234486
v 0.0156665 0.133655 -0.237932
v 0.00931544 0.139734 -0.236885
v 0.000537354 0.186506 -0.223606
v 0.0795845 0.133655 -0.224617
v 0.0779281 0.134711 -0.22496
v 0.0433737 0.460483 -0.132007
v 0.090453 0.239388 -0.185195
v 0.073632 0.42734 -0.129986
v 0.090453 0.295278 -0.166629
v 0.0640213 0.460483 -0.122895
v 0.0382893 0.410992 -0.149381
v 0.0554912 0.22336 -0.204843
v 0.0603099 0.15381 -0.224996
v 0.0526301 0.133655 -0.232573
v 0.0465714 0.133655 -0.23389
v 0.0783887 0.133655 -0.225104
v 0.0657131 0.133655 -0.229524
v 0.0727285 0.147124 -0.222903
v 0.0589015 0.460483 -0.125331
v 0.090453 0.294798 -0.166792
f 1 2 3
f 1 3 4
f 1 4 5
f 1 5 6
f 1 6 7
f 1 7 11
f 1 11 19
f 1 19 36
f 1 36 49
f 1 49 38
f 1 38 21
f 1 21 13
f 1 13 8
f 1 8 2
f 2 8 12
f 2 12 20
f 2 20 22
f 2 22 39
f 2 39 48
f 2 48 35
f 2 35 24
f 2 24 14
f 2 14 9
f 2 9 4
f 2 4 3
f 4 9 15
f 4 15 17
f 4 17 10
f 4 10 5
f 5 10 16
f 5 16 30
f 5 30 28
f 5 28 27
f 5 27 44
f 5 44 43
f 5 43 46
f 5 46 45
f 5 45 33
f 5 33 18
f 5 18 11
f 5 11 7
f 5 7 6
f 8 13 12
f 9 14 23
f 9 23 15
f 10 17 32
f 10 32 16
f 11 18 19
f 12 13 20
f 13 21 22
f 13 22 20
f 14 24 25
f 14 25 26
f 14 26 27
f 14 27 28
f 14 28 29
f 14 29 30
f 14 30 31
f 14 31 32
f 14 32 23
f 15 23 32
f 15 32 17
f 16 32 31
f 16 31 30
f 18 33 34
f 18 34 19
f 19 34 35
f 19 35 36
f 21 37 22
f 21 38 37
f 22 37 39
f 24 35 40
f 24 40 41
f 24 41 25
f 25 41 42
f 25 42 43
f 25 43 44
f 25 44 26
f 26 44 27
f 28 30 29
f 33 45 34
f 34 45 46
f 34 46 47
f 34 47 41
f 34 41 35
f 35 48 36
f 35 41 40
f 36 48 49
f 37 48 39
f 37 38 49
f 37 49 48
f 41 47 46
f 41 46 42
f 42 46 43
