v -0.0881855 0.133657 -0.140764
v -0.0881855 0.133657 -0.221036
v -0.0881855 0.149487 -0.169678
v -0.162168 0.133657 1.94728e-05
v -0.096735 0.133657 -0.217508
v -0.0881855 0.140265 -0.218871
v -0.0881855 0.149487 -0.21582
v -0.189969 0.149487 1.94728e-05
v -0.238775 0.133657 1.94728e-05
v -0.102277 0.133657 -0.215214
v -0.0881855 0.144332 -0.21753
v -0.102469 0.139715 -0.213136
v -0.0956737 0.149487 -0.212725
v -0.233896 0.149487 1.94728e-05
v -0.234029 0.149068 1.94728e-05
v -0.233896 0.149487 -0.00933003
v -0.236903 0.139715 -0.00933003
v -0.23876 0.133657 -0.00933003
v -0.111196 0.133657 -0.211102
v -0.112773 0.149487 -0.205475
v -0.111726 0.149487 -0.205951
v -0.102189 0.149487 -0.21002
v -0.231478 0.149487 -0.0279641
v -0.23795 0.133657 -0.0156929
v -0.117608 0.133657 -0.207964
v -0.115588 0.139715 -0.207098
v -0.126658 0.133657 -0.202402
v -0.122 0.149487 -0.19948
v -0.229046 0.149487 -0.0465116
v -0.236299 0.133657 -0.0283969
v -0.135237 0.133657 -0.196104
v -0.136063 0.149487 -0.189459
v -0.129208 0.149487 -0.194459
v -0.225744 0.149487 -0.062159
v -0.233911 0.133657 -0.0465765
v -0.139571 0.133657 -0.192857
v -0.139866 0.138153 -0.190909
v -0.141296 0.149487 -0.185456
v -0.223651 0.149487 -0.0683487
v -0.229547 0.133657 -0.06573
v -0.232584 0.133657 -0.0526364
v -0.145703 0.133657 -0.188161
v -0.144627 0.149487 -0.182902
v -0.22259 0.149487 -0.0714436
v -0.222899 0.147117 -0.0727421
v -0.224963 0.1347 -0.077958
v -0.225111 0.133657 -0.0784124
v -0.152263 0.133657 -0.183118
v -0.156081 0.149487 -0.174072
v -0.217593 0.149487 -0.0839312
v -0.213967 0.149487 -0.0926964
v -0.210031 0.149487 -0.102197
v -0.22147 0.133657 -0.0872209
v -0.158881 0.133657 -0.178011
v -0.16662 0.146985 -0.166627
v -0.166001 0.149487 -0.165999
v -0.205491 0.149487 -0.112759
v -0.213141 0.139715 -0.102479
v -0.21522 0.133657 -0.102284
v -0.168713 0.133657 -0.170068
v -0.169273 0.134568 -0.169267
v -0.178014 0.133657 -0.158857
v -0.167785 0.149487 -0.163943
v -0.205004 0.149487 -0.113516
v -0.20241 0.133657 -0.126653
v -0.205432 0.133657 -0.121827
v -0.207967 0.133657 -0.117607
v -0.16945 0.133657 -0.16944
v -0.183129 0.133657 -0.152235
v -0.174064 0.149487 -0.156065
v -0.199477 0.149487 -0.121979
v -0.189468 0.149487 -0.136046
v -0.192873 0.133657 -0.139552
v -0.188156 0.133657 -0.145699
v -0.184088 0.143325 -0.146153
v -0.182894 0.149487 -0.144616
v -0.190912 0.138156 -0.139855
v -0.190234 0.133657 -0.142993
f 1 2 6
f 1 6 11
f 1 11 7
f 1 7 3
f 1 3 4
f 1 4 9
f 1 9 18
f 1 18 24
f 1 24 30
f 1 30 35
f 1 35 41
f 1 41 40
f 1 40 47
f 1 47 53
f 1 53 59
f 1 59 67
f 1 67 66
f 1 66 65
f 1 65 73
f 1 73 78
f 1 78 74
f 1 74 69
f 1 69 62
f 1 62 68
f 1 68 60
f 1 60 54
f 1 54 48
f 1 48 42
f 1 42 36
f 1 36 31
f 1 31 27
f 1 27 25
f 1 25 19
f 1 19 10
f 1 10 5
f 1 5 2
f 2 5 6
f 3 7 13
f 3 13 22
f 3 22 21
f 3 21 20
f 3 20 28
f 3 28 33
f 3 33 32
f 3 32 38
f 3 38 43
f 3 43 49
f 3 49 56
f 3 56 63
f 3 63 70
f 3 70 76
f 3 76 72
f 3 72 71
f 3 71 64
f 3 64 57
f 3 57 52
f 3 52 51
f 3 51 50
f 3 50 44
f 3 44 39
f 3 39 34
f 3 34 29
f 3 29 23
f 3 23 16
f 3 16 14
f 3 14 8
f 3 8 4
f 4 8 14
f 4 14 15
f 4 15 9
f 5 10 6
f 6 10 12
f 6 12 11
f 7 11 13
f 9 15 16
f 9 16 17
f 9 17 18
f 10 19 20
f 10 20 21
f 10 21 12
f 11 12 13
f 12 22 13
f 12 21 22
f 14 16 15
f 16 23 24
f 16 24 17
f 17 24 18
f 19 25 26
f 19 26 20
f 20 26 25
f 20 25 27
f 20 27 28
f 23 29 30
f 23 30 24
f 27 31 32
f 27 32 33
f 27 33 28
f 29 34 35
f 29 35 30
f 31 36 32
f 32 37 38
f 32 36 37
f 34 39 40
f 34 40 41
f 34 41 35
f 36 42 37
f 37 42 43
f 37 43 38
f 39 44 45
f 39 45 40
f 40 45 46
f 40 46 47
f 42 48 43
f 43 48 49
f 44 50 45
f 45 50 46
f 46 50 51
f 46 51 52
f 46 52 53
f 46 53 47
f 48 54 49
f 49 54 55
f 49 55 56
f 52 57 58
f 52 58 53
f 53 58 59
f 54 60 61
f 54 61 55
f 55 62 63
f 55 63 56
f 55 61 62
f 57 59 58
f 57 64 65
f 57 65 66
f 57 66 67
f 57 67 59
f 60 68 61
f 61 68 62
f 62 69 70
f 62 70 63
f 64 71 65
f 65 71 72
f 65 72 73
f 69 74 75
f 69 75 70
f 70 75 76
f 72 77 73
f 72 76 77
f 73 77 78
f 74 78 75
f 75 78 77
f 75 77 76
