v -0.0948326 0.879837 -0.00176372
v -0.0948326 0.879837 0.00176372
v -0.0948326 0.917683 -0.00176372
v -0.0936258 0.879837 -0.0112321
v -0.0900427 0.530212 -0.00943127
v -0.0947397 0.869823 -0.00116963
v -0.0947397 0.869823 0.00116963
v -0.0900427 0.530212 0.00943127
v -0.0936258 0.879837 0.0112321
v -0.0948326 0.917683 0.00176372
v -0.0947397 0.929533 -0.00116963
v -0.0936258 0.917683 -0.0112321
v -0.0895414 0.879837 -0.0283681
v -0.0856055 0.530212 -0.0283681
v -0.0876848 0.530212 0.0197908
v -0.0895414 0.879837 0.0283681
v -0.0936258 0.917683 0.0112321
v -0.0947397 0.929533 0.00116963
v -0.0931431 0.936168 -0.00828021
v -0.0884089 0.936585 -0.0283681
v -0.0895414 0.917683 -0.0283681
v -0.081057 0.879837 -0.047045
v -0.0787548 0.530212 -0.0445943
v -0.0856055 0.530212 0.0283681
v -0.081057 0.879837 0.047045
v -0.0895414 0.917683 0.0283681
v -0.0825979 0.530212 0.03572
v -0.0787548 0.530212 0.0445943
v -0.0884089 0.936585 0.0283681
v -0.0931431 0.936168 0.00828021
v -0.0838046 0.951273 -0.00944984
v -0.0814654 0.950605 -0.0283681
v -0.0804629 0.936585 -0.046358
v -0.0784764 0.948686 -0.0430534
v -0.081057 0.917683 -0.047045
v -0.0755059 0.879837 -0.0565134
v -0.0730552 0.530212 -0.0528931
v -0.0755059 0.879837 0.0565134
v -0.081057 0.917683 0.047045
v -0.0804629 0.936585 0.046358
v -0.075413 0.530212 0.0498669
v -0.0784764 0.948686 0.0430534
v -0.0814654 0.950605 0.0283681
v -0.0838046 0.951273 0.00944984
v -0.0662231 0.956447 -0.00944984
v -0.0662231 0.955821 -0.0283681
v -0.0676527 0.951732 -0.0485302
v -0.0750232 0.936585 -0.0558079
v -0.0623058 0.949479 -0.0623058
v -0.0755059 0.917683 -0.0565134
v -0.0660375 0.879837 -0.0660375
v -0.063921 0.530212 -0.063921
v -0.0693978 0.530212 -0.057553
v -0.0660375 0.879837 0.0660375
v -0.0755059 0.917683 0.0565134
v -0.0730552 0.530212 0.0528931
v -0.063921 0.530212 0.063921
v -0.0750232 0.936585 0.0558079
v -0.0623058 0.949479 0.0623058
v -0.0676527 0.951732 0.0485302
v -0.0662231 0.955821 0.0283681
v -0.0662231 0.956447 0.00944984
v -0.00944984 0.956447 -0.0662231
v -0.0472863 0.956405 -0.0472863
v -0.0485302 0.951732 -0.0676527
v -0.0655548 0.936585 -0.0655548
v -0.0430534 0.948686 -0.0784764
v -0.0558079 0.936585 -0.0750232
v -0.0660375 0.917683 -0.0660375
v -0.0565134 0.879837 -0.0755059
v -0.0528931 0.530212 -0.0730552
v -0.0565134 0.879837 0.0755059
v -0.0660375 0.917683 0.0660375
v -0.0655548 0.936585 0.0655548
v -0.057553 0.530212 0.0693978
v -0.0558079 0.936585 0.0750232
v -0.0430534 0.948686 0.0784764
v -0.0485302 0.951732 0.0676527
v -0.0472863 0.956405 0.0472863
v -0.00944984 0.956447 0.0662231
v -0.0283681 0.955821 -0.0662231
v 0.00944984 0.956447 -0.0662231
v -0.00944984 0.951273 -0.0838046
v -0.0283681 0.950605 -0.0814654
v -0.0565134 0.917683 -0.0755059
v -0.0283681 0.936585 -0.0884089
v -0.046358 0.936585 -0.0804629
v -0.047045 0.917683 -0.081057
v -0.047045 0.879837 -0.081057
v -0.0445943 0.530212 -0.0787548
v -0.0498669 0.530212 -0.075413
v -0.047045 0.879837 0.081057
v -0.0565134 0.917683 0.0755059
v -0.0528931 0.530212 0.0730552
v -0.0445943 0.530212 0.0787548
v -0.046358 0.936585 0.0804629
v -0.047045 0.917683 0.081057
v -0.0283681 0.950605 0.0814654
v -0.0283681 0.936585 0.0884089
v -0.0283681 0.955821 0.0662231
v 0.00944984 0.956447 0.0662231
v -0.00944984 0.951273 0.0838046
v 0.0662231 0.956447 -0.00944984
v 0.0472863 0.956405 -0.0472863
v 0.0283681 0.955821 -0.0662231
v 0.00944984 0.951273 -0.0838046
v -0.00828021 0.936168 -0.0931431
v -0.0112321 0.917683 -0.0936258
v -0.0283681 0.917683 -0.0895414
v -0.0283681 0.879837 -0.0895414
v -0.03572 0.530212 -0.0825979
v -0.0283681 0.879837 0.0895414
v -0.0283681 0.530212 0.0856055
v -0.0283681 0.917683 0.0895414
v -0.00828021 0.936168 0.0931431
v -0.0112321 0.917683 0.0936258
v 0.0283681 0.955821 0.0662231
v 0.0472863 0.956405 0.0472863
v 0.0662231 0.956447 0.00944984
v 0.00944984 0.951273 0.0838046
v 0.0838046 0.951273 -0.00944984
v 0.0662231 0.955821 -0.0283681
v 0.0676527 0.951732 -0.0485302
v 0.0485302 0.951732 -0.0676527
v 0.0283681 0.950605 -0.0814654
v 0.00828021 0.936168 -0.0931431
v -0.00116963 0.929533 -0.0947397
v -0.00176372 0.917683 -0.0948326
v -0.0112321 0.879837 -0.0936258
v -0.0197908 0.530212 -0.0876848
v -0.0283681 0.530212 -0.0856055
v -0.0112321 0.879837 0.0936258
v -0.00943127 0.530212 0.0900427
v 0.00828021 0.936168 0.0931431
v -0.00116963 0.929533 0.0947397
v -0.00176372 0.917683 0.0948326
v 0.0485302 0.951732 0.0676527
v 0.0283681 0.950605 0.0814654
v 0.0676527 0.951732 0.0485302
v 0.0662231 0.955821 0.0283681
v 0.0838046 0.951273 0.00944984
v 0.0931431 0.936168 -0.00828021
v 0.0814654 0.950605 -0.0283681
v 0.0784764 0.948686 -0.0430534
v 0.0623058 0.949479 -0.0623058
v 0.0430534 0.948686 -0.0784764
v 0.0283681 0.936585 -0.0884089
v 0.0112321 0.917683 -0.0936258
v 0.00116963 0.929533 -0.0947397
v 0.00176372 0.917683 -0.0948326
v -0.00176372 0.879837 -0.0948326
v -0.00943127 0.530212 -0.0900427
v -0.00176372 0.879837 0.0948326
v 0.00943127 0.530212 0.0900427
v -0.00116963 0.869823 0.0947397
v 0.0283681 0.936585 0.0884089
v 0.00116963 0.929533 0.0947397
v 0.0112321 0.917683 0.0936258
v 0.00176372 0.917683 0.0948326
v 0.0430534 0.948686 0.0784764
v 0.0623058 0.949479 0.0623058
v 0.0784764 0.948686 0.0430534
v 0.0814654 0.950605 0.0283681
v 0.0931431 0.936168 0.00828021
v 0.0947397 0.929533 -0.00116963
v 0.0936258 0.917683 -0.0112321
v 0.0884089 0.936585 -0.0283681
v 0.0804629 0.936585 -0.046358
v 0.0750232 0.936585 -0.0558079
v 0.0655548 0.936585 -0.0655548
v 0.0558079 0.936585 -0.0750232
v 0.046358 0.936585 -0.0804629
v 0.0283681 0.917683 -0.0895414
v 0.0112321 0.879837 -0.0936258
v 0.00176372 0.879837 -0.0948326
v -0.00116963 0.869823 -0.0947397
v 0.00943127 0.530212 -0.0900427
v 0.00176372 0.879837 0.0948326
v 0.0197908 0.530212 0.0876848
v 0.0112321 0.879837 0.0936258
v 0.00116963 0.869823 0.0947397
v 0.0283681 0.917683 0.0895414
v 0.046358 0.936585 0.0804629
v 0.0558079 0.936585 0.0750232
v 0.0655548 0.936585 0.0655548
v 0.0750232 0.936585 0.0558079
v 0.0804629 0.936585 0.046358
v 0.0884089 0.936585 0.0283681
v 0.0936258 0.917683 0.0112321
v 0.0947397 0.929533 0.00116963
v 0.0948326 0.917683 -0.00176372
v 0.0895414 0.917683 -0.0283681
v 0.0936258 0.879837 -0.0112321
v 0.081057 0.917683 -0.047045
v 0.0755059 0.917683 -0.0565134
v 0.0660375 0.917683 -0.0660375
v 0.0565134 0.917683 -0.0755059
v 0.047045 0.917683 -0.081057
v 0.0283681 0.879837 -0.0895414
v 0.0283681 0.530212 -0.0856055
v 0.00116963 0.869823 -0.0947397
v 0.0283681 0.530212 0.0856055
v 0.0283681 0.879837 0.0895414
v 0.047045 0.917683 0.081057
v 0.0565134 0.917683 0.0755059
v 0.0660375 0.917683 0.0660375
v 0.0755059 0.917683 0.0565134
v 0.081057 0.917683 0.047045
v 0.0895414 0.917683 0.0283681
v 0.0948326 0.917683 0.00176372
v 0.0936258 0.879837 0.0112321
v 0.0948326 0.879837 -0.00176372
v 0.0895414 0.879837 -0.0283681
v 0.0900427 0.530212 -0.00943127
v 0.0876848 0.530212 -0.0197908
v 0.081057 0.879837 -0.047045
v 0.0755059 0.879837 -0.0565134
v 0.0660375 0.879837 -0.0660375
v 0.0565134 0.879837 -0.0755059
v 0.047045 0.879837 -0.081057
v 0.0445943 0.530212 -0.0787548
v 0.03572 0.530212 0.0825979
v 0.047045 0.879837 0.081057
v 0.0445943 0.530212 0.0787548
v 0.0565134 0.879837 0.0755059
v 0.0660375 0.879837 0.0660375
v 0.0755059 0.879837 0.0565134
v 0.081057 0.879837 0.047045
v 0.0895414 0.879837 0.0283681
v 0.0948326 0.879837 0.00176372
v 0.0856055 0.530212 0.0283681
v 0.0900427 0.530212 0.00943127
v 0.0947397 0.869823 -0.00116963
v 0.0856055 0.530212 -0.0283681
v 0.0825979 0.530212 -0.03572
v 0.0787548 0.530212 -0.0445943
v 0.075413 0.530212 -0.0498669
v 0.0730552 0.530212 -0.0528931
v 0.063921 0.530212 -0.063921
v 0.057553 0.530212 -0.0693978
v 0.0528931 0.530212 -0.0730552
v 0.0498669 0.530212 0.075413
v 0.0528931 0.530212 0.0730552
v 0.063921 0.530212 0.063921
v 0.0693978 0.530212 0.057553
v 0.0730552 0.530212 0.0528931
v 0.0787548 0.530212 0.0445943
v 0.0947397 0.869823 0.00116963
f 1 2 10
f 1 10 3
f 1 3 12
f 1 12 4
f 1 4 5
f 1 5 6
f 1 6 7
f 1 7 2
f 2 7 8
f 2 8 9
f 2 9 17
f 2 17 10
f 3 10 18
f 3 18 11
f 3 11 12
f 4 12 21
f 4 21 13
f 4 13 14
f 4 14 5
f 5 14 23
f 5 23 37
f 5 37 53
f 5 53 52
f 5 52 71
f 5 71 91
f 5 91 90
f 5 90 111
f 5 111 131
f 5 131 130
f 5 130 152
f 5 152 177
f 5 177 200
f 5 200 221
f 5 221 241
f 5 241 240
f 5 240 239
f 5 239 238
f 5 238 237
f 5 237 236
f 5 236 235
f 5 235 234
f 5 234 215
f 5 215 214
f 5 214 232
f 5 232 231
f 5 231 247
f 5 247 246
f 5 246 245
f 5 245 244
f 5 244 243
f 5 243 242
f 5 242 224
f 5 224 222
f 5 222 202
f 5 202 179
f 5 179 154
f 5 154 133
f 5 133 113
f 5 113 95
f 5 95 94
f 5 94 75
f 5 75 57
f 5 57 56
f 5 56 41
f 5 41 28
f 5 28 27
f 5 27 24
f 5 24 15
f 5 15 8
f 5 8 7
f 5 7 6
f 8 15 9
f 9 16 26
f 9 26 17
f 9 15 16
f 10 17 18
f 11 18 30
f 11 30 19
f 11 19 12
f 12 19 20
f 12 20 21
f 13 21 35
f 13 35 22
f 13 22 23
f 13 23 14
f 15 24 16
f 16 25 39
f 16 39 26
f 16 24 27
f 16 27 28
f 16 28 25
f 17 26 29
f 17 29 30
f 17 30 18
f 19 30 44
f 19 44 31
f 19 31 32
f 19 32 20
f 20 33 21
f 20 32 34
f 20 34 33
f 21 33 35
f 22 35 50
f 22 50 36
f 22 36 23
f 23 36 37
f 25 38 55
f 25 55 39
f 25 28 38
f 26 39 40
f 26 40 29
f 28 41 38
f 29 40 42
f 29 42 43
f 29 43 30
f 30 43 44
f 31 44 62
f 31 62 45
f 31 45 46
f 31 46 32
f 32 46 47
f 32 47 34
f 33 34 48
f 33 48 35
f 34 47 49
f 34 49 48
f 35 48 50
f 36 50 69
f 36 69 51
f 36 51 52
f 36 52 53
f 36 53 37
f 38 54 73
f 38 73 55
f 38 41 56
f 38 56 57
f 38 57 54
f 39 55 58
f 39 58 40
f 40 58 42
f 42 59 60
f 42 60 43
f 42 58 59
f 43 60 61
f 43 61 44
f 44 61 62
f 45 62 80
f 45 80 101
f 45 101 119
f 45 119 103
f 45 103 82
f 45 82 63
f 45 63 64
f 45 64 46
f 46 64 47
f 47 64 65
f 47 65 49
f 48 49 66
f 48 66 50
f 49 67 68
f 49 68 66
f 49 65 67
f 50 66 69
f 51 69 85
f 51 85 70
f 51 70 52
f 52 70 71
f 54 72 93
f 54 93 73
f 54 57 72
f 55 73 74
f 55 74 58
f 57 75 72
f 58 74 59
f 59 74 76
f 59 76 77
f 59 77 78
f 59 78 60
f 60 78 79
f 60 79 61
f 61 79 62
f 62 79 80
f 63 81 64
f 63 82 106
f 63 106 83
f 63 83 81
f 64 81 65
f 65 81 84
f 65 84 67
f 66 68 85
f 66 85 69
f 67 84 86
f 67 86 87
f 67 87 68
f 68 87 88
f 68 88 85
f 70 85 88
f 70 88 89
f 70 89 90
f 70 90 91
f 70 91 71
f 72 92 97
f 72 97 93
f 72 75 94
f 72 94 95
f 72 95 92
f 73 93 74
f 74 93 76
f 76 96 77
f 76 93 97
f 76 97 96
f 77 98 78
f 77 96 99
f 77 99 98
f 78 100 79
f 78 98 100
f 79 100 80
f 80 100 102
f 80 102 120
f 80 120 101
f 81 83 84
f 82 103 104
f 82 104 105
f 82 105 106
f 83 106 126
f 83 126 107
f 83 107 84
f 84 107 86
f 86 107 108
f 86 108 109
f 86 109 87
f 87 109 88
f 88 109 110
f 88 110 89
f 89 110 90
f 90 110 111
f 92 112 114
f 92 114 97
f 92 95 112
f 95 113 112
f 96 97 114
f 96 114 99
f 98 99 115
f 98 115 102
f 98 102 100
f 99 114 116
f 99 116 115
f 101 117 118
f 101 118 119
f 101 120 117
f 102 115 134
f 102 134 120
f 103 119 141
f 103 141 121
f 103 121 122
f 103 122 104
f 104 122 123
f 104 123 124
f 104 124 105
f 105 124 125
f 105 125 106
f 106 125 126
f 107 126 149
f 107 149 127
f 107 127 108
f 108 127 128
f 108 128 151
f 108 151 129
f 108 129 110
f 108 110 109
f 110 129 130
f 110 130 131
f 110 131 111
f 112 132 116
f 112 116 114
f 112 113 132
f 113 133 132
f 115 116 135
f 115 135 157
f 115 157 134
f 116 136 135
f 116 132 153
f 116 153 136
f 117 137 118
f 117 120 138
f 117 138 137
f 118 137 139
f 118 139 140
f 118 140 119
f 119 140 141
f 120 134 138
f 121 142 143
f 121 143 122
f 121 141 164
f 121 164 142
f 122 143 123
f 123 143 144
f 123 144 145
f 123 145 124
f 124 145 146
f 124 146 125
f 125 146 147
f 125 147 126
f 126 147 148
f 126 148 149
f 127 149 150
f 127 150 128
f 128 150 175
f 128 175 151
f 129 151 152
f 129 152 130
f 132 133 153
f 133 154 181
f 133 181 155
f 133 155 153
f 134 156 138
f 134 157 158
f 134 158 156
f 135 136 159
f 135 159 157
f 136 153 178
f 136 178 159
f 137 138 160
f 137 160 161
f 137 161 139
f 138 156 160
f 139 161 162
f 139 162 163
f 139 163 140
f 140 163 141
f 141 163 164
f 142 165 166
f 142 166 167
f 142 167 143
f 142 164 190
f 142 190 165
f 143 167 144
f 144 167 168
f 144 168 169
f 144 169 145
f 145 169 170
f 145 170 171
f 145 171 146
f 146 171 172
f 146 172 147
f 147 172 173
f 147 173 148
f 148 150 149
f 148 173 199
f 148 199 174
f 148 174 175
f 148 175 150
f 151 175 201
f 151 201 176
f 151 176 152
f 152 176 201
f 152 201 177
f 153 155 181
f 153 181 178
f 154 179 180
f 154 180 178
f 154 178 181
f 156 158 182
f 156 182 183
f 156 183 160
f 157 159 158
f 158 159 178
f 158 178 180
f 158 180 203
f 158 203 182
f 160 183 184
f 160 184 161
f 161 184 185
f 161 185 186
f 161 186 162
f 162 186 187
f 162 187 188
f 162 188 163
f 163 188 164
f 164 188 189
f 164 189 190
f 165 190 210
f 165 210 191
f 165 191 166
f 166 192 167
f 166 191 212
f 166 212 193
f 166 193 213
f 166 213 192
f 167 192 168
f 168 192 194
f 168 194 169
f 169 194 195
f 169 195 170
f 170 195 196
f 170 196 197
f 170 197 171
f 171 197 198
f 171 198 172
f 172 198 173
f 173 198 220
f 173 220 199
f 174 199 200
f 174 200 177
f 174 177 175
f 175 177 201
f 179 202 203
f 179 203 180
f 182 203 223
f 182 223 204
f 182 204 183
f 183 204 184
f 184 204 205
f 184 205 185
f 185 205 206
f 185 206 207
f 185 207 186
f 186 207 208
f 186 208 187
f 187 208 209
f 187 209 188
f 188 209 189
f 189 210 190
f 189 209 229
f 189 229 211
f 189 211 230
f 189 230 210
f 191 210 230
f 191 230 212
f 192 213 216
f 192 216 194
f 193 212 214
f 193 214 215
f 193 215 213
f 194 216 217
f 194 217 195
f 195 217 218
f 195 218 196
f 196 218 219
f 196 219 197
f 197 219 220
f 197 220 198
f 199 220 221
f 199 221 200
f 202 222 203
f 203 222 224
f 203 224 223
f 204 223 225
f 204 225 205
f 205 225 226
f 205 226 206
f 206 226 227
f 206 227 207
f 207 227 228
f 207 228 208
f 208 228 229
f 208 229 209
f 211 229 231
f 211 231 232
f 211 232 230
f 212 230 248
f 212 248 233
f 212 233 214
f 213 215 234
f 213 234 235
f 213 235 236
f 213 236 216
f 214 233 248
f 214 248 232
f 216 236 217
f 217 236 237
f 217 237 238
f 217 238 239
f 217 239 218
f 218 239 219
f 219 239 240
f 219 240 241
f 219 241 221
f 219 221 220
f 223 224 225
f 224 242 225
f 225 242 243
f 225 243 244
f 225 244 226
f 226 244 227
f 227 244 245
f 227 245 246
f 227 246 247
f 227 247 228
f 228 247 229
f 229 247 231
f 230 232 248
