v 0.204183 -0.487514 0.31862
v 0.13941 -0.487514 0.377696
v 0.257087 -0.367087 0.31862
v 0.318395 -0.487514 0.31862
v 0.13941 -0.487514 0.484135
v 0.13941 -0.367216 0.426096
v 0.360645 -0.367087 0.31862
v 0.13941 -0.367087 0.426157
v 0.319391 -0.484896 0.31862
v 0.31794 -0.487514 0.319718
v 0.13941 -0.483918 0.485477
v 0.155457 -0.487514 0.477546
v 0.350922 -0.367087 0.342108
v 0.352373 -0.393436 0.31862
v 0.13941 -0.367087 0.526373
v 0.321167 -0.480063 0.31862
v 0.315515 -0.483729 0.328951
v 0.314172 -0.487514 0.328727
v 0.13941 -0.474204 0.489036
v 0.161261 -0.432128 0.49536
v 0.148354 -0.432293 0.500648
v 0.144045 -0.428096 0.503963
v 0.13941 -0.467814 0.491375
v 0.157883 -0.487514 0.476529
v 0.162019 -0.484779 0.475818
v 0.166848 -0.47629 0.476916
v 0.174623 -0.458276 0.480271
v 0.18021 -0.425255 0.490012
v 0.348301 -0.367087 0.34825
v 0.347565 -0.371826 0.346582
v 0.342736 -0.393436 0.341844
v 0.34685 -0.393436 0.33194
v 0.348431 -0.400321 0.32287
v 0.351528 -0.396053 0.31862
v 0.13941 -0.397196 0.516917
v 0.141165 -0.398906 0.515656
v 0.148354 -0.367087 0.522672
v 0.323657 -0.473249 0.31862
v 0.323419 -0.466941 0.324762
v 0.321621 -0.462073 0.333364
v 0.312526 -0.487514 0.332571
v 0.160936 -0.419054 0.500261
v 0.152642 -0.423239 0.502173
v 0.13941 -0.419183 0.509128
v 0.161846 -0.487514 0.474841
v 0.170378 -0.487514 0.47114
v 0.179235 -0.462815 0.476672
v 0.183891 -0.416649 0.491578
v 0.173475 -0.405779 0.499855
v 0.165029 -0.409693 0.50197
v 0.156432 -0.414633 0.503739
v 0.345334 -0.367087 0.35372
v 0.336261 -0.402396 0.349714
v 0.338188 -0.406557 0.34221
v 0.349189 -0.403126 0.31862
v 0.346894 -0.408927 0.319169
v 0.13941 -0.399932 0.516022
v 0.148571 -0.394131 0.51409
v 0.168732 -0.401099 0.503495
v 0.178152 -0.393436 0.502051
v 0.164877 -0.370352 0.514802
v 0.187659 -0.367087 0.506383
v 0.343515 -0.418889 0.31862
v 0.336521 -0.415906 0.338143
v 0.334658 -0.411002 0.346745
v 0.31049 -0.487514 0.33676
v 0.13941 -0.407217 0.51346
v 0.174038 -0.487514 0.469534
v 0.174146 -0.483729 0.470937
v 0.18218 -0.487514 0.465467
v 0.19251 -0.411603 0.489666
v 0.187746 -0.406923 0.493449
v 0.160936 -0.405779 0.505061
v 0.344945 -0.367087 0.354412
v 0.33847 -0.367087 0.364478
v 0.338188 -0.367087 0.364905
v 0.336412 -0.376907 0.362526
v 0.334831 -0.385502 0.360451
v 0.333381 -0.393436 0.358479
v 0.331323 -0.406557 0.35431
v 0.322509 -0.438671 0.348351
v 0.346634 -0.410271 0.31862
v 0.1806 -0.386975 0.503068
v 0.187053 -0.393436 0.498309
v 0.187703 -0.381823 0.501726
v 0.192445 -0.372699 0.50262
v 0.194264 -0.367087 0.503515
v 0.306484 -0.483729 0.344264
v 0.305423 -0.487514 0.343471
v 0.185342 -0.487514 0.463148
v 0.193701 -0.43893 0.477424
v 0.195195 -0.403009 0.491293
v 0.294292 -0.367087 0.42211
v 0.309473 -0.399578 0.386848
v 0.331388 -0.380939 0.367162
v 0.326321 -0.392905 0.368057
v 0.321362 -0.396843 0.372633
v 0.324415 -0.406333 0.363725
v 0.322878 -0.413725 0.361712
v 0.325953 -0.418511 0.35492
v 0.308433 -0.474581 0.346806
v 0.200068 -0.367087 0.500099
v 0.303063 -0.487514 0.346582
v 0.295093 -0.483729 0.35913
v 0.28249 -0.487514 0.373466
v 0.189695 -0.483729 0.46144
v 0.218345 -0.487514 0.43785
v 0.195585 -0.432128 0.478868
v 0.199678 -0.406923 0.486392
v 0.192164 -0.47484 0.463331
v 0.204551 -0.483729 0.450052
v 0.20022 -0.418665 0.481044
v 0.204009 -0.393436 0.488345
v 0.207886 -0.377202 0.491314
v 0.21016 -0.367641 0.493063
v 0.286712 -0.367087 0.431953
v 0.28236 -0.396029 0.423839
v 0.287081 -0.39241 0.419426
v 0.297562 -0.402042 0.401042
v 0.295786 -0.410636 0.398724
v 0.286821 -0.418087 0.406289
v 0.316013 -0.419195 0.36763
v 0.307567 -0.432128 0.371473
v 0.279176 -0.483647 0.379933
v 0.210311 -0.367087 0.493144
v 0.267352 -0.483729 0.395287
v 0.260899 -0.483729 0.403686
v 0.271489 -0.487514 0.387783
v 0.236038 -0.487514 0.424266
v 0.240716 -0.483729 0.422314
v 0.217999 -0.397138 0.476265
v 0.207063 -0.413984 0.47777
v 0.244072 -0.410896 0.450682
v 0.23933 -0.406498 0.456153
v 0.232205 -0.399873 0.464368
v 0.239005 -0.432753 0.445293
v 0.225643 -0.420079 0.460932
v 0.213365 -0.393082 0.481308
v 0.210744 -0.367087 0.492818
v 0.282425 -0.367087 0.437179
v 0.271987 -0.415375 0.426808
v 0.280324 -0.406333 0.421175
v 0.283876 -0.413018 0.412918
v 0.277011 -0.4185 0.418836
v 0.282057 -0.421624 0.410539
v 0.264407 -0.470761 0.406309
v 0.260076 -0.487514 0.402628
v 0.263736 -0.487514 0.39787
v 0.273373 -0.432128 0.41603
v 0.257412 -0.476231 0.412227
v 0.239936 -0.487514 0.421256
v 0.247949 -0.487514 0.415054
v 0.248988 -0.483729 0.415867
v 0.259058 -0.440581 0.426523
v 0.258257 -0.413277 0.438786
v 0.260141 -0.406333 0.44023
v 0.24639 -0.402301 0.452472
v 0.269171 -0.396324 0.43724
v 0.264689 -0.392587 0.44208
v 0.263801 -0.380633 0.447144
v 0.237857 -0.367087 0.472015
v 0.22612 -0.367087 0.481024
v 0.217003 -0.367087 0.488019
v 0.277206 -0.367087 0.441653
v 0.271207 -0.387718 0.438847
v 0.266573 -0.406333 0.435186
v 0.25542 -0.483729 0.410132
v 0.254359 -0.487514 0.409115
v 0.251652 -0.487514 0.411739
v 0.267612 -0.367641 0.448954
v 0.261159 -0.367641 0.453916
v 0.267742 -0.367087 0.449055
v 0.26798 -0.367087 0.448872
f 1 2 3
f 1 3 7
f 1 7 14
f 1 14 34
f 1 34 55
f 1 55 82
f 1 82 63
f 1 63 38
f 1 38 16
f 1 16 9
f 1 9 4
f 1 4 10
f 1 10 18
f 1 18 41
f 1 41 66
f 1 66 89
f 1 89 103
f 1 103 105
f 1 105 128
f 1 128 148
f 1 148 147
f 1 147 168
f 1 168 169
f 1 169 152
f 1 152 151
f 1 151 129
f 1 129 107
f 1 107 90
f 1 90 70
f 1 70 68
f 1 68 46
f 1 46 45
f 1 45 24
f 1 24 12
f 1 12 5
f 1 5 2
f 2 5 11
f 2 11 19
f 2 19 23
f 2 23 44
f 2 44 67
f 2 67 57
f 2 57 35
f 2 35 15
f 2 15 8
f 2 8 6
f 2 6 3
f 3 6 8
f 3 8 15
f 3 15 37
f 3 37 62
f 3 62 87
f 3 87 102
f 3 102 125
f 3 125 139
f 3 139 163
f 3 163 162
f 3 162 161
f 3 161 172
f 3 172 173
f 3 173 164
f 3 164 140
f 3 140 116
f 3 116 93
f 3 93 76
f 3 76 75
f 3 75 74
f 3 74 52
f 3 52 29
f 3 29 13
f 3 13 7
f 4 9 10
f 5 12 11
f 7 13 14
f 9 16 17
f 9 17 10
f 10 17 18
f 11 12 19
f 12 20 21
f 12 21 22
f 12 22 23
f 12 23 19
f 12 24 25
f 12 25 26
f 12 26 27
f 12 27 28
f 12 28 20
f 13 29 30
f 13 30 31
f 13 31 32
f 13 32 14
f 14 33 34
f 14 32 33
f 15 35 36
f 15 36 37
f 16 38 39
f 16 39 40
f 16 40 17
f 17 41 18
f 17 40 41
f 20 42 43
f 20 43 21
f 20 28 42
f 21 43 22
f 22 44 23
f 22 43 44
f 24 45 25
f 25 45 46
f 25 46 47
f 25 47 26
f 26 47 27
f 27 47 28
f 28 47 48
f 28 48 49
f 28 49 50
f 28 50 51
f 28 51 42
f 29 52 53
f 29 53 30
f 30 53 31
f 31 53 54
f 31 54 33
f 31 33 32
f 33 55 34
f 33 54 56
f 33 56 55
f 35 57 36
f 36 58 37
f 36 57 59
f 36 59 60
f 36 60 58
f 37 58 61
f 37 61 62
f 38 63 39
f 39 63 64
f 39 64 40
f 40 64 65
f 40 65 41
f 41 65 66
f 42 51 43
f 43 51 44
f 44 51 67
f 46 68 69
f 46 69 47
f 47 69 68
f 47 68 70
f 47 70 71
f 47 71 48
f 48 71 72
f 48 72 49
f 49 59 50
f 49 72 59
f 50 59 73
f 50 73 67
f 50 67 51
f 52 74 53
f 53 74 75
f 53 75 76
f 53 76 77
f 53 77 78
f 53 78 79
f 53 79 80
f 53 80 81
f 53 81 66
f 53 66 65
f 53 65 54
f 54 65 64
f 54 64 56
f 55 56 82
f 56 64 63
f 56 63 82
f 57 67 59
f 58 60 83
f 58 83 61
f 59 67 73
f 59 72 84
f 59 84 60
f 60 84 85
f 60 85 83
f 61 83 62
f 62 83 86
f 62 86 87
f 66 88 89
f 66 81 88
f 70 90 91
f 70 91 71
f 71 91 92
f 71 92 84
f 71 84 72
f 76 93 94
f 76 94 95
f 76 95 77
f 77 95 96
f 77 96 78
f 78 96 79
f 79 96 97
f 79 97 98
f 79 98 80
f 80 98 99
f 80 99 100
f 80 100 81
f 81 100 99
f 81 99 101
f 81 101 88
f 83 85 86
f 84 92 86
f 84 86 85
f 86 92 87
f 87 92 102
f 88 103 89
f 88 101 104
f 88 104 105
f 88 105 103
f 90 106 91
f 90 107 106
f 91 108 109
f 91 109 92
f 91 106 110
f 91 110 111
f 91 111 112
f 91 112 108
f 92 109 113
f 92 113 114
f 92 114 115
f 92 115 102
f 93 116 117
f 93 117 118
f 93 118 94
f 94 118 117
f 94 117 119
f 94 119 120
f 94 120 98
f 94 98 97
f 94 97 96
f 94 96 95
f 98 120 99
f 99 120 121
f 99 121 122
f 99 122 123
f 99 123 124
f 99 124 101
f 101 124 104
f 102 115 125
f 104 124 105
f 105 124 126
f 105 126 127
f 105 127 128
f 106 107 111
f 106 111 110
f 107 129 130
f 107 130 111
f 108 112 109
f 109 131 113
f 109 112 132
f 109 132 133
f 109 133 134
f 109 134 135
f 109 135 131
f 111 130 112
f 112 130 136
f 112 136 137
f 112 137 133
f 112 133 132
f 113 131 138
f 113 138 114
f 114 138 139
f 114 139 115
f 115 139 125
f 116 140 117
f 117 140 141
f 117 141 142
f 117 142 119
f 119 142 120
f 120 143 144
f 120 144 121
f 120 142 143
f 121 144 145
f 121 145 122
f 122 145 123
f 123 145 124
f 124 145 146
f 124 146 126
f 126 146 127
f 127 147 148
f 127 148 128
f 127 146 149
f 127 149 150
f 127 150 147
f 129 151 130
f 130 151 152
f 130 152 153
f 130 153 154
f 130 154 155
f 130 155 136
f 131 135 138
f 133 137 155
f 133 155 156
f 133 156 157
f 133 157 134
f 134 157 135
f 135 157 158
f 135 158 159
f 135 159 160
f 135 160 161
f 135 161 162
f 135 162 138
f 136 155 137
f 138 162 163
f 138 163 139
f 140 164 165
f 140 165 158
f 140 158 141
f 141 144 142
f 141 158 166
f 141 166 154
f 141 154 150
f 141 150 144
f 142 144 143
f 144 149 145
f 144 150 149
f 145 149 146
f 147 150 167
f 147 167 168
f 150 154 153
f 150 153 152
f 150 152 169
f 150 169 167
f 154 166 155
f 155 166 156
f 156 166 158
f 156 158 157
f 158 165 159
f 159 165 160
f 160 165 170
f 160 170 171
f 160 171 161
f 161 171 172
f 164 173 165
f 165 173 170
f 167 169 168
f 170 173 171
f 171 173 172
