v 0.308471 0.561121 0.38495
v 0.309274 0.572402 0.38495
v 0.374032 0.56671 0.253199
v 0.378953 0.070756 0.253199
v 0.314468 0.0707047 0.38495
v 0.309393 0.573991 0.38495
v 0.374561 0.571992 0.253199
v 0.385087 0.0707047 0.253199
v 0.376287 0.0707047 0.263245
v 0.425497 0.0707047 0.38495
v 0.374886 0.574043 0.253199
v 0.310658 0.57876 0.38495
v 0.472023 0.0707047 0.253199
v 0.427735 0.0707047 0.379572
v 0.425531 0.0709611 0.38495
v 0.375262 0.575068 0.253199
v 0.312366 0.581529 0.38495
v 0.472058 0.0709611 0.253199
v 0.470554 0.0707047 0.264445
v 0.463138 0.0707047 0.29412
v 0.426573 0.0798321 0.38495
v 0.381892 0.585734 0.253199
v 0.314143 0.583068 0.38495
v 0.473459 0.083883 0.253199
v 0.47052 0.0707047 0.26469
v 0.471972 0.083883 0.264445
v 0.463224 0.0707047 0.293913
v 0.460917 0.083883 0.303147
v 0.437731 0.083883 0.359131
v 0.427137 0.0848572 0.38495
v 0.389769 0.591426 0.253199
v 0.316775 0.584862 0.38495
v 0.474569 0.0967536 0.253199
v 0.468538 0.0707047 0.277341
v 0.46999 0.083883 0.277341
v 0.473083 0.0967536 0.264445
v 0.471135 0.0967536 0.277341
v 0.465821 0.0707047 0.287581
v 0.465889 0.0709611 0.287491
v 0.466624 0.083883 0.289296
v 0.463976 0.083883 0.295745
v 0.464352 0.0906003 0.296647
v 0.427701 0.0907541 0.38495
v 0.390794 0.592092 0.253199
v 0.325164 0.590349 0.38495
v 0.478926 0.16126 0.253199
v 0.478157 0.173618 0.26536
v 0.468504 0.0707047 0.277496
v 0.465872 0.0707047 0.287452
v 0.477474 0.177515 0.27244
v 0.476568 0.173618 0.27698
v 0.472946 0.122546 0.277341
v 0.46835 0.109675 0.290251
v 0.476859 0.187053 0.280875
v 0.466812 0.0956255 0.291502
v 0.465052 0.109675 0.298311
v 0.462387 0.0956255 0.302283
v 0.430059 0.0967536 0.380527
v 0.428213 0.0967536 0.38495
v 0.327437 0.59158 0.38495
v 0.333725 0.593682 0.38495
v 0.397013 0.593938 0.253199
v 0.479781 0.17408 0.253199
v 0.48055 0.187053 0.253199
v 0.477747 0.187053 0.274427
v 0.473014 0.174182 0.290251
v 0.477115 0.199975 0.282667
v 0.466453 0.14839 0.301703
v 0.462848 0.122546 0.305894
v 0.450118 0.0967536 0.3321
v 0.428675 0.102958 0.38495
v 0.431033 0.135468 0.38495
v 0.337552 0.59399 0.38495
v 0.404822 0.594451 0.253199
v 0.481028 0.199975 0.253199
v 0.477987 0.199975 0.276219
v 0.468538 0.187053 0.303147
v 0.467718 0.174182 0.303147
v 0.473817 0.187053 0.290251
v 0.478004 0.212794 0.278412
v 0.477218 0.208436 0.283428
v 0.466453 0.161978 0.304076
v 0.462045 0.174182 0.316856
v 0.433493 0.169465 0.38495
v 0.341721 0.594195 0.38495
v 0.350333 0.594502 0.38495
v 0.406325 0.594502 0.253199
v 0.481301 0.211205 0.253199
v 0.480174 0.225767 0.264445
v 0.478773 0.238689 0.277341
v 0.436193 0.187053 0.381223
v 0.438653 0.179566 0.374259
v 0.46905 0.199975 0.303147
v 0.435168 0.199975 0.38495
v 0.47433 0.199975 0.290251
v 0.47908 0.25156 0.277341
v 0.479695 0.277352 0.277341
v 0.47732 0.21705 0.283944
v 0.433852 0.174593 0.38495
v 0.380542 0.594502 0.38495
v 0.432126 0.594502 0.253199
v 0.482583 0.264482 0.253199
v 0.48289 0.277352 0.253199
v 0.481404 0.277352 0.264445
v 0.434638 0.187053 0.38495
v 0.434399 0.183156 0.38495
v 0.475167 0.25156 0.291489
v 0.470383 0.25156 0.303147
v 0.465548 0.212845 0.312407
v 0.437133 0.276378 0.38495
v 0.47744 0.225767 0.284215
v 0.479832 0.290274 0.277341
v 0.478055 0.277352 0.285866
v 0.393442 0.594502 0.36763
v 0.390742 0.594143 0.38495
v 0.432126 0.594502 0.264445
v 0.44231 0.593938 0.253199
v 0.48301 0.288582 0.253199
v 0.481541 0.290274 0.264445
v 0.475492 0.277352 0.292314
v 0.471032 0.277352 0.303147
v 0.466368 0.277352 0.314419
v 0.451912 0.277352 0.34933
v 0.43715 0.277352 0.38495
v 0.478123 0.290274 0.286046
v 0.479678 0.303145 0.277341
v 0.478055 0.303145 0.285853
v 0.394638 0.594041 0.3817
v 0.406325 0.5944 0.341824
v 0.432126 0.594451 0.277341
v 0.419226 0.594502 0.303147
v 0.39351 0.593938 0.38495
v 0.448769 0.59281 0.253199
v 0.441421 0.593938 0.264445
v 0.483027 0.290274 0.253199
v 0.481387 0.303145 0.264445
v 0.47556 0.290274 0.292495
v 0.471186 0.290274 0.303147
v 0.440191 0.290274 0.377973
v 0.437286 0.289505 0.38495
v 0.479439 0.316067 0.277341
v 0.477235 0.385496 0.283583
v 0.47732 0.376882 0.283944
v 0.477423 0.3676 0.284176
v 0.477679 0.341808 0.284847
v 0.475492 0.303145 0.292301
v 0.399986 0.593426 0.38495
v 0.400977 0.593682 0.378192
v 0.414612 0.593836 0.341824
v 0.419226 0.594246 0.316044
v 0.429033 0.593938 0.303147
v 0.440413 0.593836 0.277341
v 0.458542 0.585426 0.253199
v 0.439388 0.593631 0.286691
v 0.447863 0.5924 0.264445
v 0.456765 0.585939 0.264445
v 0.482873 0.303145 0.253199
v 0.481148 0.316067 0.264445
v 0.471032 0.303145 0.303147
v 0.437508 0.290274 0.384421
v 0.43744 0.303145 0.384228
v 0.437286 0.290274 0.38495
v 0.478687 0.35473 0.277341
v 0.478431 0.3676 0.277341
v 0.479883 0.380522 0.264445
v 0.48137 0.380522 0.253199
v 0.480943 0.391752 0.253199
v 0.480874 0.393393 0.253199
v 0.479388 0.393393 0.264445
v 0.477901 0.393393 0.275639
v 0.47703 0.393393 0.2821
v 0.471801 0.483692 0.277341
v 0.468093 0.483692 0.290251
v 0.468999 0.470822 0.290251
v 0.46987 0.4579 0.290251
v 0.473339 0.406315 0.290251
v 0.474176 0.393393 0.290251
v 0.475184 0.380932 0.289038
v 0.469956 0.35473 0.303147
v 0.425838 0.593426 0.322982
v 0.413382 0.593579 0.350362
v 0.401883 0.5924 0.38495
v 0.426744 0.593682 0.316044
v 0.463993 0.578914 0.253199
v 0.437474 0.593169 0.295293
v 0.446855 0.591477 0.277341
v 0.455603 0.585016 0.277341
v 0.482378 0.328937 0.253199
v 0.480396 0.35473 0.264445
v 0.435595 0.377446 0.38495
v 0.4358 0.3676 0.38495
v 0.43715 0.30217 0.38495
v 0.437133 0.303145 0.38495
v 0.436381 0.339654 0.38495
v 0.436603 0.328937 0.38495
v 0.481404 0.37883 0.253199
v 0.480208 0.404623 0.253199
v 0.477525 0.406315 0.27275
v 0.47662 0.406315 0.279211
v 0.472673 0.470822 0.277341
v 0.473715 0.483692 0.264445
v 0.472587 0.496614 0.264445
v 0.470639 0.496614 0.277341
v 0.464915 0.483692 0.298014
v 0.466214 0.509485 0.288316
v 0.466556 0.496409 0.291115
v 0.464574 0.491948 0.297189
v 0.465377 0.470822 0.299098
v 0.468059 0.406315 0.303147
v 0.468879 0.393393 0.303147
v 0.469409 0.380522 0.303147
v 0.444223 0.590093 0.290689
v 0.41246 0.584247 0.38495
v 0.405693 0.590708 0.3817
v 0.46389 0.578504 0.254669
v 0.464471 0.576863 0.253199
v 0.453587 0.582965 0.290251
v 0.461276 0.573991 0.277341
v 0.481626 0.3676 0.253199
v 0.442703 0.380522 0.36763
v 0.435526 0.380522 0.38495
v 0.480105 0.406315 0.253199
v 0.47785 0.418211 0.264651
v 0.474569 0.470822 0.264445
v 0.475201 0.483692 0.253199
v 0.474074 0.496614 0.253199
v 0.47122 0.509485 0.264445
v 0.4643 0.566915 0.270403
v 0.464762 0.558352 0.272918
v 0.465137 0.54702 0.277277
v 0.464386 0.541943 0.283841
v 0.465496 0.522407 0.286536
v 0.438482 0.48882 0.360937
v 0.46225 0.483692 0.304463
v 0.464095 0.500562 0.296002
v 0.452528 0.496614 0.325007
v 0.427701 0.496614 0.38495
v 0.43879 0.480205 0.361698
v 0.436449 0.470822 0.368933
v 0.434159 0.406468 0.38495
v 0.438756 0.402469 0.374504
v 0.462626 0.393393 0.318262
v 0.429973 0.584965 0.341824
v 0.441763 0.584042 0.316044
v 0.414561 0.582606 0.38495
v 0.415501 0.58358 0.380527
v 0.463412 0.574145 0.265438
v 0.465274 0.573222 0.253199
v 0.464881 0.569941 0.261801
v 0.427325 0.582452 0.354734
v 0.439815 0.582042 0.325549
v 0.452015 0.58117 0.298001
v 0.457243 0.573991 0.290251
v 0.463463 0.562044 0.277277
v 0.442173 0.393393 0.36763
v 0.434997 0.393393 0.38495
v 0.477782 0.443286 0.253199
v 0.476227 0.468001 0.253199
v 0.476073 0.470411 0.253199
v 0.472878 0.507844 0.253199
v 0.467188 0.561223 0.253199
v 0.468469 0.535277 0.264445
v 0.465479 0.562044 0.265438
v 0.463907 0.550506 0.28152
v 0.45955 0.561121 0.290251
v 0.461686 0.54702 0.288987
v 0.428897 0.483692 0.38495
v 0.436449 0.484205 0.36665
v 0.453724 0.522407 0.315012
v 0.426607 0.506203 0.38495
v 0.42929 0.478257 0.38495
v 0.429802 0.470822 0.38495
v 0.430144 0.465848 0.38495
v 0.430981 0.45349 0.38495
v 0.434484 0.401443 0.38495
v 0.425907 0.58076 0.361762
v 0.417825 0.573991 0.38495
v 0.438038 0.578401 0.334151
v 0.45304 0.573991 0.300491
v 0.43908 0.569838 0.336614
v 0.451246 0.565582 0.309041
v 0.422148 0.561121 0.380527
v 0.424745 0.522407 0.38495
v 0.419824 0.573991 0.380527
v 0.426795 0.573991 0.363877
v 0.42008 0.561121 0.38495
v 0.420627 0.55666 0.38495
f 1 2 3
f 1 3 4
f 1 4 5
f 1 5 10
f 1 10 15
f 1 15 21
f 1 21 30
f 1 30 43
f 1 43 59
f 1 59 71
f 1 71 72
f 1 72 84
f 1 84 99
f 1 99 106
f 1 106 105
f 1 105 94
f 1 94 110
f 1 110 124
f 1 124 140
f 1 140 162
f 1 162 192
f 1 192 193
f 1 193 195
f 1 195 194
f 1 194 191
f 1 191 190
f 1 190 221
f 1 221 256
f 1 256 275
f 1 275 240
f 1 240 274
f 1 274 273
f 1 273 272
f 1 272 271
f 1 271 267
f 1 267 237
f 1 237 270
f 1 270 283
f 1 283 287
f 1 287 286
f 1 286 277
f 1 277 245
f 1 245 213
f 1 213 182
f 1 182 147
f 1 147 132
f 1 132 115
f 1 115 100
f 1 100 86
f 1 86 85
f 1 85 73
f 1 73 61
f 1 61 60
f 1 60 45
f 1 45 32
f 1 32 23
f 1 23 17
f 1 17 12
f 1 12 6
f 1 6 2
f 2 6 3
f 3 6 7
f 3 7 11
f 3 11 16
f 3 16 22
f 3 22 31
f 3 31 44
f 3 44 62
f 3 62 74
f 3 74 87
f 3 87 101
f 3 101 117
f 3 117 133
f 3 133 153
f 3 153 184
f 3 184 216
f 3 216 248
f 3 248 261
f 3 261 260
f 3 260 226
f 3 226 225
f 3 225 259
f 3 259 258
f 3 258 257
f 3 257 222
f 3 222 197
f 3 197 168
f 3 168 167
f 3 167 166
f 3 166 196
f 3 196 219
f 3 219 188
f 3 188 157
f 3 157 135
f 3 135 118
f 3 118 103
f 3 103 102
f 3 102 88
f 3 88 75
f 3 75 64
f 3 64 63
f 3 63 46
f 3 46 33
f 3 33 24
f 3 24 18
f 3 18 13
f 3 13 8
f 3 8 4
f 4 8 9
f 4 9 5
f 5 9 8
f 5 8 13
f 5 13 19
f 5 19 25
f 5 25 34
f 5 34 48
f 5 48 49
f 5 49 38
f 5 38 27
f 5 27 20
f 5 20 14
f 5 14 10
f 6 11 7
f 6 12 11
f 10 14 15
f 11 12 16
f 12 17 16
f 13 18 19
f 14 20 21
f 14 21 15
f 16 17 22
f 17 23 22
f 18 24 19
f 19 24 26
f 19 26 25
f 20 27 28
f 20 28 21
f 21 28 29
f 21 29 30
f 22 23 31
f 23 32 31
f 24 33 36
f 24 36 26
f 25 26 35
f 25 35 34
f 26 36 37
f 26 37 35
f 27 38 39
f 27 39 40
f 27 40 41
f 27 41 28
f 28 41 42
f 28 42 29
f 29 42 30
f 30 42 43
f 31 32 45
f 31 45 44
f 33 46 47
f 33 47 36
f 34 35 48
f 35 37 40
f 35 40 39
f 35 39 49
f 35 49 48
f 36 47 50
f 36 50 51
f 36 51 52
f 36 52 37
f 37 53 40
f 37 52 54
f 37 54 53
f 38 49 39
f 40 53 55
f 40 55 42
f 40 42 41
f 42 55 53
f 42 53 56
f 42 56 57
f 42 57 58
f 42 58 43
f 43 58 59
f 44 45 60
f 44 60 61
f 44 61 62
f 46 63 47
f 47 63 50
f 50 63 64
f 50 64 65
f 50 65 54
f 50 54 51
f 51 54 52
f 53 54 66
f 53 66 56
f 54 65 67
f 54 67 66
f 56 66 68
f 56 68 69
f 56 69 57
f 57 69 70
f 57 70 58
f 58 71 59
f 58 70 69
f 58 69 72
f 58 72 71
f 61 73 62
f 62 73 74
f 64 75 65
f 65 75 76
f 65 76 67
f 66 77 78
f 66 78 68
f 66 67 79
f 66 79 77
f 67 76 80
f 67 80 81
f 67 81 79
f 68 78 82
f 68 82 83
f 68 83 69
f 69 83 72
f 72 83 84
f 73 85 74
f 74 85 86
f 74 86 87
f 75 88 89
f 75 89 76
f 76 89 90
f 76 90 80
f 77 91 92
f 77 92 78
f 77 79 95
f 77 95 93
f 77 93 94
f 77 94 91
f 78 92 83
f 78 83 82
f 79 81 95
f 80 90 81
f 81 90 96
f 81 96 97
f 81 97 98
f 81 98 95
f 83 92 84
f 84 92 99
f 86 100 114
f 86 114 131
f 86 131 116
f 86 116 101
f 86 101 87
f 88 102 89
f 89 96 90
f 89 102 103
f 89 103 104
f 89 104 97
f 89 97 96
f 91 94 105
f 91 105 92
f 92 105 106
f 92 106 99
f 93 95 107
f 93 107 108
f 93 108 109
f 93 109 94
f 94 109 108
f 94 108 110
f 95 98 111
f 95 111 107
f 97 104 119
f 97 119 112
f 97 112 113
f 97 113 111
f 97 111 98
f 100 115 114
f 101 116 117
f 103 118 104
f 104 118 119
f 107 111 120
f 107 120 108
f 108 120 121
f 108 121 122
f 108 122 123
f 108 123 110
f 110 123 124
f 111 113 120
f 112 125 113
f 112 119 136
f 112 136 126
f 112 126 127
f 112 127 125
f 113 125 137
f 113 137 120
f 114 115 128
f 114 128 129
f 114 129 130
f 114 130 131
f 115 132 128
f 116 131 130
f 116 130 117
f 117 130 134
f 117 134 133
f 118 135 119
f 119 135 157
f 119 157 136
f 120 137 138
f 120 138 121
f 121 138 122
f 122 138 123
f 123 138 139
f 123 139 124
f 124 139 140
f 125 127 146
f 125 146 137
f 126 136 158
f 126 158 141
f 126 141 142
f 126 142 143
f 126 143 144
f 126 144 145
f 126 145 127
f 127 145 146
f 128 132 147
f 128 147 148
f 128 148 149
f 128 149 129
f 129 149 150
f 129 150 130
f 130 150 151
f 130 151 152
f 130 152 134
f 133 134 152
f 133 152 154
f 133 154 155
f 133 155 156
f 133 156 153
f 136 157 158
f 137 146 138
f 138 146 159
f 138 159 139
f 139 160 140
f 139 159 161
f 139 161 160
f 140 160 162
f 141 158 189
f 141 189 163
f 141 163 142
f 142 163 164
f 142 164 165
f 142 165 166
f 142 166 167
f 142 167 168
f 142 168 169
f 142 169 170
f 142 170 171
f 142 171 172
f 142 172 173
f 142 173 174
f 142 174 175
f 142 175 176
f 142 176 177
f 142 177 178
f 142 178 143
f 143 178 144
f 144 178 146
f 144 146 145
f 146 178 179
f 146 179 159
f 147 180 181
f 147 181 148
f 147 182 180
f 148 181 154
f 148 154 183
f 148 183 149
f 149 183 154
f 149 154 151
f 149 151 150
f 151 154 152
f 153 156 184
f 154 181 180
f 154 180 185
f 154 185 186
f 154 186 155
f 155 186 156
f 156 187 184
f 156 186 187
f 157 188 158
f 158 188 219
f 158 219 189
f 159 179 190
f 159 190 191
f 159 191 161
f 160 161 192
f 160 192 162
f 161 193 192
f 161 191 194
f 161 194 195
f 161 195 193
f 163 189 165
f 163 165 164
f 165 189 196
f 165 196 166
f 168 197 198
f 168 198 169
f 169 198 170
f 170 198 171
f 171 198 199
f 171 199 200
f 171 200 172
f 172 200 201
f 172 201 202
f 172 202 203
f 172 203 173
f 173 204 174
f 173 203 205
f 173 205 206
f 173 206 207
f 173 207 204
f 174 204 208
f 174 208 175
f 175 208 209
f 175 209 176
f 176 209 177
f 177 210 211
f 177 211 178
f 177 209 210
f 178 211 179
f 179 211 190
f 180 182 212
f 180 212 185
f 182 213 214
f 182 214 212
f 184 215 216
f 184 187 215
f 185 212 186
f 186 212 187
f 187 212 217
f 187 217 218
f 187 218 215
f 189 219 196
f 190 211 220
f 190 220 221
f 197 222 198
f 198 222 223
f 198 223 224
f 198 224 199
f 199 224 200
f 200 224 201
f 201 224 225
f 201 225 226
f 201 226 202
f 202 226 227
f 202 227 228
f 202 228 203
f 203 228 229
f 203 229 230
f 203 230 231
f 203 231 232
f 203 232 205
f 204 207 233
f 204 233 234
f 204 234 208
f 205 232 206
f 206 232 235
f 206 235 207
f 207 235 236
f 207 236 237
f 207 237 233
f 208 234 238
f 208 238 239
f 208 239 209
f 209 240 241
f 209 241 242
f 209 242 210
f 209 239 240
f 210 242 211
f 211 242 220
f 212 214 243
f 212 243 244
f 212 244 217
f 213 245 246
f 213 246 214
f 214 246 243
f 215 218 247
f 215 247 216
f 216 247 249
f 216 249 248
f 217 244 246
f 217 246 250
f 217 250 251
f 217 251 252
f 217 252 218
f 218 252 253
f 218 253 254
f 218 254 228
f 218 228 247
f 220 242 255
f 220 255 256
f 220 256 221
f 222 257 223
f 223 257 224
f 224 257 258
f 224 258 259
f 224 259 225
f 226 260 227
f 227 260 261
f 227 261 262
f 227 262 228
f 228 254 229
f 228 262 263
f 228 263 261
f 228 261 249
f 228 249 247
f 229 264 231
f 229 231 230
f 229 254 264
f 231 264 265
f 231 265 266
f 231 266 235
f 231 235 232
f 233 267 268
f 233 268 238
f 233 238 234
f 233 237 267
f 235 266 265
f 235 265 269
f 235 269 270
f 235 270 237
f 235 237 236
f 238 268 271
f 238 271 239
f 239 271 272
f 239 272 273
f 239 273 274
f 239 274 240
f 240 275 241
f 241 275 256
f 241 256 255
f 241 255 242
f 243 246 244
f 245 276 250
f 245 250 246
f 245 277 276
f 248 249 261
f 250 276 251
f 251 276 252
f 252 276 278
f 252 278 253
f 253 279 280
f 253 280 281
f 253 281 265
f 253 265 254
f 253 278 279
f 254 265 264
f 261 263 262
f 265 281 282
f 265 282 270
f 265 270 269
f 267 271 268
f 270 282 283
f 276 277 284
f 276 284 285
f 276 285 278
f 277 286 282
f 277 282 284
f 278 285 279
f 279 285 280
f 280 285 284
f 280 284 282
f 280 282 281
f 282 286 287
f 282 287 283
