v -0.466155 -0.029294 0.105276
v -0.465477 -0.029294 0.100009
v -0.465752 -0.031946 0.105276
v -0.373349 -0.029294 0.105276
v -0.465181 -0.029294 0.0977228
v -0.465033 -0.036626 0.105276
v -0.317222 -0.029294 -0.0493667
v -0.319529 -0.294909 0.105276
v -0.249962 -0.294909 -0.0493667
v -0.464292 -0.029294 0.0909564
v -0.464398 -0.038836 0.103036
v -0.464546 -0.039772 0.105276
v -0.422302 -0.029294 -0.0493667
v -0.412651 -0.294909 0.105276
v -0.364693 -0.294909 -0.0493667
v -0.459953 -0.029294 0.0580327
v -0.457795 -0.032258 0.0451357
v -0.45153 -0.0777319 0.0512209
v -0.456567 -0.0838678 0.0967389
v -0.457012 -0.0882358 0.105276
v -0.464207 -0.041956 0.105276
v -0.423847 -0.029294 -0.0456429
v -0.422154 -0.030204 -0.0493667
v -0.412567 -0.294909 0.10461
v -0.425392 -0.243091 0.105276
v -0.364862 -0.294909 -0.0490185
v -0.373159 -0.263527 -0.0493667
v -0.458641 -0.029294 0.0481026
v -0.458239 -0.029294 0.0451357
v -0.451615 -0.0654859 0.038218
v -0.450959 -0.0740919 0.0426078
v -0.447763 -0.0967638 0.0451357
v -0.451424 -0.0899778 0.0648899
v -0.451318 -0.102198 0.0785741
v -0.454557 -0.0967638 0.0967389
v -0.455678 -0.0967638 0.105276
v -0.426069 -0.029294 -0.0402843
v -0.437752 -0.032258 -0.0109027
v -0.41644 -0.0644979 -0.0493667
v -0.424884 -0.045154 -0.0367724
v -0.419022 -0.264437 0.0967389
v -0.409286 -0.290229 0.0709449
v -0.407487 -0.294909 0.0662674
v -0.428905 -0.228791 0.105276
v -0.423847 -0.224605 0.0590318
v -0.366492 -0.294909 -0.0453704
v -0.367847 -0.290229 -0.0451434
v -0.374979 -0.290229 -0.0279625
v -0.406725 -0.264437 0.0322387
v -0.398768 -0.227959 -0.0102064
v -0.384842 -0.226165 -0.0449466
v -0.385879 -0.215167 -0.0493667
v -0.455424 -0.029294 0.0322387
v -0.452207 -0.0580499 0.0363863
v -0.450895 -0.048118 0.0275159
v -0.444546 -0.0967638 0.0322387
v -0.442324 -0.10966 0.0322387
v -0.439382 -0.133034 0.0365529
v -0.438514 -0.14164 0.0390808
v -0.445625 -0.10966 0.0451357
v -0.45189 -0.105552 0.0871721
v -0.454937 -0.101262 0.105276
v -0.445435 -0.029294 0.00645983
v -0.452461 -0.029294 0.0234288
v -0.41536 -0.0709719 -0.0493667
v -0.436482 -0.0843618 0.00701991
v -0.443826 -0.0709719 0.0193568
v -0.407572 -0.290229 0.0580327
v -0.42027 -0.238619 0.0580327
v -0.406387 -0.294909 0.0580327
v -0.43172 -0.217195 0.105276
v -0.425181 -0.217195 0.0553837
v -0.375381 -0.294909 -0.0239814
v -0.400609 -0.294909 0.0369162
v -0.394577 -0.290229 0.0193568
v -0.41335 -0.247251 0.0373097
v -0.414493 -0.238619 0.0345547
v -0.416143 -0.226841 0.031058
v -0.413837 -0.223305 0.0232471
v -0.412059 -0.216493 0.0146491
v -0.399889 -0.219353 -0.0129311
v -0.396418 -0.224475 -0.0180778
v -0.420292 -0.212827 0.0322387
v -0.400736 -0.212827 -0.0149595
v -0.387593 -0.208459 -0.0493667
v -0.453308 -0.029294 0.0259113
v -0.451594 -0.039512 0.0254875
v -0.440376 -0.0967638 0.0214458
v -0.439234 -0.10966 0.0242159
v -0.438599 -0.116264 0.0257297
v -0.440101 -0.12136 0.0322539
v -0.437689 -0.12487 0.0279548
v -0.426239 -0.196135 0.0373249
v -0.440228 -0.136596 0.0440761
v -0.443191 -0.122556 0.0451357
v -0.425308 -0.204715 0.0403523
v -0.426196 -0.208589 0.0489503
v -0.429392 -0.199931 0.0580327
v -0.451699 -0.1172 0.101522
v -0.451128 -0.114158 0.0929243
v -0.453541 -0.109686 0.105276
v -0.452207 -0.032258 0.0240191
v -0.411847 -0.0919798 -0.0493667
v -0.423614 -0.0973358 -0.0188044
v -0.434175 -0.0967638 0.00645983
v -0.43771 -0.0967638 0.0149973
v -0.412334 -0.269143 0.0548539
v -0.403466 -0.294909 0.0451963
v -0.413392 -0.260537 0.0492379
v -0.432779 -0.212827 0.105276
v -0.429964 -0.212827 0.0838419
v -0.426683 -0.212879 0.0590318
v -0.401942 -0.294909 0.0407156
v -0.412207 -0.255857 0.0406399
v -0.423445 -0.200217 0.032708
v -0.413159 -0.207887 0.011985
v -0.388588 -0.204221 -0.0493667
v -0.425477 -0.102016 -0.0124164
v -0.436567 -0.10966 0.0177674
v -0.412503 -0.114678 -0.0380288
v -0.42645 -0.119696 -0.00185057
v -0.428651 -0.123414 0.00538508
v -0.398958 -0.15607 -0.0493667
v -0.415297 -0.1614 -0.00714864
v -0.424546 -0.187035 0.0284998
v -0.417985 -0.199931 0.0193568
v -0.439699 -0.14866 0.0582447
v -0.446599 -0.122556 0.0709449
v -0.424292 -0.212879 0.0448481
v -0.434493 -0.199931 0.0967389
v -0.435382 -0.187035 0.0838419
v -0.45134 -0.121412 0.105276
v -0.451932 -0.118448 0.105276
v -0.441435 -0.148348 0.0709449
v -0.439657 -0.174374 0.0970568
v -0.435615 -0.199931 0.105276
v -0.445075 -0.152716 0.105276
v -0.447657 -0.13982 0.105276
v -0.411043 -0.0967638 -0.0493667
v -0.411445 -0.0967638 -0.0483979
v -0.399212 -0.203311 -0.0241933
v -0.414048 -0.199931 0.00985059
v -0.389519 -0.199931 -0.0493667
v -0.413307 -0.106072 -0.0399967
v -0.427445 -0.10966 -0.00425741
v -0.415403 -0.110076 -0.0331394
v -0.410641 -0.110076 -0.0446287
v -0.408694 -0.109946 -0.0493667
v -0.407826 -0.114288 -0.0493667
v -0.406154 -0.122556 -0.0493667
v -0.400143 -0.194705 -0.0264336
f 1 2 3
f 1 3 6
f 1 6 12
f 1 12 21
f 1 21 20
f 1 20 36
f 1 36 62
f 1 62 101
f 1 101 133
f 1 133 132
f 1 132 138
f 1 138 137
f 1 137 136
f 1 136 110
f 1 110 71
f 1 71 44
f 1 44 25
f 1 25 14
f 1 14 8
f 1 8 4
f 1 4 7
f 1 7 13
f 1 13 22
f 1 22 37
f 1 37 63
f 1 63 64
f 1 64 86
f 1 86 53
f 1 53 29
f 1 29 28
f 1 28 16
f 1 16 10
f 1 10 5
f 1 5 2
f 2 5 3
f 3 5 6
f 4 8 9
f 4 9 7
f 5 10 11
f 5 11 12
f 5 12 6
f 7 9 15
f 7 15 27
f 7 27 52
f 7 52 85
f 7 85 117
f 7 117 143
f 7 143 123
f 7 123 150
f 7 150 149
f 7 149 148
f 7 148 139
f 7 139 103
f 7 103 65
f 7 65 39
f 7 39 23
f 7 23 13
f 8 14 24
f 8 24 43
f 8 43 70
f 8 70 108
f 8 108 113
f 8 113 74
f 8 74 73
f 8 73 46
f 8 46 26
f 8 26 15
f 8 15 9
f 10 16 17
f 10 17 18
f 10 18 19
f 10 19 20
f 10 20 11
f 11 21 12
f 11 20 21
f 13 23 22
f 14 25 24
f 15 26 27
f 16 28 17
f 17 28 29
f 17 29 30
f 17 30 31
f 17 31 18
f 18 31 32
f 18 32 33
f 18 33 20
f 18 20 19
f 20 33 34
f 20 34 35
f 20 35 36
f 22 23 37
f 23 38 37
f 23 39 40
f 23 40 38
f 24 41 42
f 24 42 43
f 24 25 41
f 25 44 45
f 25 45 41
f 26 46 27
f 27 46 47
f 27 47 48
f 27 48 49
f 27 49 50
f 27 50 51
f 27 51 52
f 29 53 30
f 30 53 54
f 30 54 55
f 30 55 56
f 30 56 57
f 30 57 58
f 30 58 59
f 30 59 60
f 30 60 32
f 30 32 31
f 32 60 34
f 32 34 33
f 34 36 35
f 34 60 61
f 34 61 36
f 36 61 62
f 37 38 63
f 38 64 63
f 38 40 65
f 38 65 66
f 38 66 67
f 38 67 64
f 39 65 40
f 41 45 42
f 42 68 43
f 42 45 69
f 42 69 68
f 43 68 70
f 44 71 72
f 44 72 45
f 45 72 69
f 46 73 47
f 47 73 48
f 48 73 74
f 48 74 75
f 48 75 49
f 49 75 74
f 49 74 76
f 49 76 77
f 49 77 50
f 50 77 78
f 50 78 79
f 50 79 80
f 50 80 81
f 50 81 82
f 50 82 51
f 51 82 81
f 51 81 52
f 52 81 80
f 52 80 83
f 52 83 84
f 52 84 85
f 53 86 87
f 53 87 55
f 53 55 54
f 55 87 56
f 56 88 89
f 56 89 57
f 56 87 88
f 57 89 90
f 57 90 91
f 57 91 58
f 58 91 90
f 58 90 92
f 58 92 93
f 58 93 59
f 59 94 95
f 59 95 60
f 59 93 96
f 59 96 97
f 59 97 98
f 59 98 94
f 60 95 99
f 60 99 100
f 60 100 61
f 61 100 101
f 61 101 62
f 64 102 86
f 64 67 88
f 64 88 102
f 65 103 104
f 65 104 66
f 66 104 105
f 66 105 106
f 66 106 67
f 67 106 88
f 68 107 70
f 68 69 107
f 69 72 107
f 70 107 109
f 70 109 108
f 71 110 72
f 72 110 111
f 72 111 112
f 72 112 97
f 72 97 107
f 74 113 76
f 76 113 108
f 76 108 114
f 76 114 96
f 76 96 83
f 76 83 77
f 77 83 78
f 78 83 79
f 79 83 80
f 83 96 93
f 83 93 115
f 83 115 116
f 83 116 84
f 84 116 85
f 85 116 117
f 86 102 87
f 87 102 88
f 88 106 118
f 88 118 89
f 89 119 90
f 89 118 119
f 90 119 120
f 90 120 121
f 90 121 92
f 92 121 122
f 92 122 123
f 92 123 124
f 92 124 125
f 92 125 93
f 93 125 126
f 93 126 115
f 94 98 95
f 95 127 128
f 95 128 99
f 95 98 127
f 96 114 108
f 96 108 109
f 96 109 129
f 96 129 97
f 97 129 109
f 97 109 107
f 97 112 98
f 98 112 130
f 98 130 131
f 98 131 127
f 99 132 133
f 99 133 101
f 99 101 100
f 99 128 127
f 99 127 134
f 99 134 131
f 99 131 135
f 99 135 136
f 99 136 137
f 99 137 138
f 99 138 132
f 103 139 140
f 103 140 118
f 103 118 104
f 104 118 105
f 105 118 106
f 110 136 111
f 111 136 130
f 111 130 112
f 115 126 141
f 115 141 116
f 116 141 117
f 117 141 142
f 117 142 143
f 118 140 139
f 118 139 144
f 118 144 119
f 119 144 145
f 119 145 120
f 120 145 146
f 120 146 147
f 120 147 148
f 120 148 149
f 120 149 150
f 120 150 121
f 121 150 122
f 122 150 123
f 123 143 151
f 123 151 142
f 123 142 124
f 124 142 125
f 125 142 126
f 126 142 141
f 127 131 134
f 130 136 135
f 130 135 131
f 139 148 144
f 142 151 143
f 144 148 147
f 144 147 146
f 144 146 145
