v -0.351467 -0.367134 0.340733
v -0.350744 -0.367087 0.342508
v -0.350916 -0.367087 0.34209
v -0.348129 -0.367087 0.340733
v -0.343208 -0.393436 0.340733
v -0.347544 -0.371826 0.34658
v -0.350538 -0.367087 0.342967
v -0.240215 -0.367087 0.340733
v -0.342899 -0.394379 0.340733
v -0.342726 -0.393436 0.34184
v -0.336257 -0.402396 0.349713
v -0.345307 -0.367087 0.353722
v -0.185363 -0.487514 0.340733
v 7.94625e-05 -0.367087 0.460854
v 7.94625e-05 -0.487514 0.417959
v -0.338838 -0.406427 0.340733
v -0.338184 -0.406557 0.342195
v -0.334812 -0.385502 0.360447
v -0.336395 -0.376907 0.362535
v -0.338184 -0.367087 0.364895
v -0.344929 -0.367087 0.354411
v -0.33464 -0.411002 0.346747
v -0.307902 -0.486712 0.340733
v -0.322493 -0.438671 0.348355
v -0.331336 -0.406557 0.354307
v -0.333367 -0.393436 0.358484
v -0.307524 -0.487514 0.340733
v 7.94625e-05 -0.367087 0.554056
v 7.94625e-05 -0.487514 0.514753
v -0.338253 -0.40809 0.340733
v -0.337599 -0.409917 0.340733
v -0.326312 -0.392905 0.368069
v -0.337874 -0.367087 0.365313
v -0.335947 -0.414421 0.340733
v -0.322045 -0.450613 0.340733
v -0.310277 -0.480747 0.340733
v -0.296271 -0.487514 0.355456
v -0.283298 -0.487514 0.372413
v -0.306491 -0.483729 0.344262
v -0.321047 -0.422319 0.35934
v -0.322871 -0.413725 0.361721
v -0.323869 -0.432128 0.350172
v -0.32442 -0.406333 0.363725
v -0.321357 -0.396843 0.372643
v 7.94625e-05 -0.369563 0.553346
v -0.0064587 -0.367087 0.554056
v 7.94625e-05 -0.4838 0.516027
v -0.0064587 -0.487514 0.514753
v -0.324351 -0.380538 0.376527
v -0.282369 -0.396029 0.423848
v -0.316195 -0.367087 0.393568
v -0.271495 -0.487514 0.387783
v -0.260896 -0.483729 0.403696
v -0.272837 -0.457923 0.402443
v -0.282059 -0.421624 0.410546
v -0.308797 -0.449623 0.360175
v -0.283883 -0.413018 0.412926
v -0.308074 -0.406333 0.385026
v -0.297544 -0.402042 0.401044
v -0.309451 -0.399578 0.386843
v 7.94625e-05 -0.386905 0.548271
v -0.0064587 -0.369563 0.553346
v -0.0185715 -0.367087 0.55251
v 7.94625e-05 -0.425608 0.535825
v -0.0064587 -0.442302 0.530144
v -0.0202921 -0.471964 0.518262
v -0.0202921 -0.483281 0.514398
v -0.0322672 -0.483729 0.512686
v -0.0873598 -0.487514 0.504124
v -0.280304 -0.406333 0.421175
v -0.271977 -0.415375 0.426814
v -0.281784 -0.369798 0.436545
v -0.285741 -0.367087 0.433121
v -0.286705 -0.367087 0.431972
v -0.287083 -0.367087 0.431492
v -0.290869 -0.367087 0.426563
v -0.298955 -0.367641 0.415767
v -0.26007 -0.487514 0.402631
v -0.264406 -0.470761 0.406306
v -0.257421 -0.476231 0.412216
v -0.273353 -0.432128 0.416038
v -0.277001 -0.4185 0.418836
v -0.285259 -0.406333 0.414743
v -0.292176 -0.406333 0.405743
v 7.94625e-05 -0.393436 0.54635
v -0.0064587 -0.380538 0.55013
v -0.0064587 -0.393436 0.54635
v -0.0190533 -0.367087 0.552448
v -0.0262796 -0.400073 0.541839
v 7.94625e-05 -0.410424 0.540983
v -0.0064587 -0.410424 0.540983
v -0.019363 -0.419242 0.536326
v -0.07098 -0.483729 0.50759
v -0.0903536 -0.451509 0.515986
v -0.0994382 -0.410554 0.528056
v -0.0936915 -0.487514 0.502516
v -0.269946 -0.42397 0.424746
v -0.259038 -0.440581 0.426542
v -0.266574 -0.406333 0.435209
v -0.269189 -0.396324 0.437255
v -0.278343 -0.367087 0.440659
v -0.27122 -0.387718 0.438864
v -0.256973 -0.487514 0.406286
v -0.254358 -0.487514 0.409126
v -0.247923 -0.487514 0.415057
v -0.248955 -0.483729 0.415871
v 7.94625e-05 -0.398635 0.544763
v -0.019363 -0.401464 0.542278
v -0.0064587 -0.403975 0.543113
v -0.0580757 -0.367087 0.547311
v -0.07098 -0.367641 0.545452
v -0.0530517 -0.387635 0.541964
v -0.019363 -0.407913 0.540148
v -0.0838498 -0.393436 0.536201
v -0.0838498 -0.406333 0.53217
v 7.94625e-05 -0.407158 0.542069
v -0.07098 -0.416979 0.530291
v -0.0583166 -0.420127 0.530896
v -0.0838498 -0.445025 0.519055
v -0.0838498 -0.432128 0.523441
v -0.0908353 -0.413088 0.528975
v -0.0957906 -0.406286 0.530291
v -0.104978 -0.401959 0.529601
v -0.104084 -0.439555 0.51632
v -0.0979585 -0.484873 0.502015
v -0.0976832 -0.487514 0.501138
v -0.258247 -0.413277 0.438801
v -0.256698 -0.449175 0.424684
v -0.252053 -0.444943 0.430093
v -0.260139 -0.406333 0.440242
v -0.264681 -0.392587 0.4421
v -0.246375 -0.402301 0.452459
v -0.232163 -0.399873 0.464362
v -0.277173 -0.367087 0.441662
v -0.260931 -0.367087 0.454296
v -0.267503 -0.367087 0.449243
v -0.271873 -0.367087 0.445839
v -0.272871 -0.380538 0.440179
v -0.24314 -0.487514 0.418774
v -0.240662 -0.483729 0.422324
v 7.94625e-05 -0.403975 0.543113
v -0.0887707 -0.367087 0.543259
v -0.0797893 -0.375162 0.54209
v -0.0839875 -0.368407 0.54351
v -0.0838498 -0.414479 0.529434
v -0.0967541 -0.367087 0.542173
v -0.0967541 -0.371307 0.540899
v -0.0967541 -0.393436 0.534196
v -0.109658 -0.419242 0.521436
v -0.108901 -0.367087 0.538957
v -0.109417 -0.392728 0.530729
v -0.113581 -0.396548 0.527826
v -0.141179 -0.398906 0.515651
v -0.168743 -0.401099 0.503497
v -0.132576 -0.404011 0.517447
v -0.12886 -0.412605 0.515902
v -0.103051 -0.477127 0.503017
v -0.110587 -0.472034 0.501785
v -0.109693 -0.487514 0.496439
v -0.25102 -0.406498 0.447175
v -0.244895 -0.438223 0.438446
v -0.238976 -0.432753 0.445316
v -0.221254 -0.41633 0.465887
v -0.207042 -0.413984 0.477769
v -0.215576 -0.406333 0.474428
v -0.245721 -0.465539 0.426187
v -0.229169 -0.487514 0.42955
v -0.21919 -0.487514 0.437214
v -0.238563 -0.394721 0.461355
v -0.21014 -0.367641 0.493056
v -0.199644 -0.406923 0.486394
v -0.217951 -0.397138 0.476265
v -0.21334 -0.393082 0.481298
v -0.225212 -0.367087 0.481695
v -0.234227 -0.483729 0.427273
v -0.1195 -0.419242 0.517364
v -0.109108 -0.367087 0.538874
v -0.122184 -0.367087 0.533507
v -0.123664 -0.368678 0.5324
v -0.127346 -0.367087 0.531377
v -0.161275 -0.393436 0.509052
v -0.171702 -0.393436 0.504729
v -0.178103 -0.393436 0.502056
v -0.187015 -0.393436 0.498318
v -0.187703 -0.406923 0.493452
v -0.173491 -0.405779 0.499864
v -0.156423 -0.414633 0.503748
v -0.109658 -0.483729 0.49788
v -0.130684 -0.479155 0.490863
v -0.126623 -0.487514 0.489485
v -0.113375 -0.487514 0.494935
v -0.204668 -0.422579 0.475952
v -0.200195 -0.418665 0.481027
v -0.217469 -0.487514 0.438529
v -0.189665 -0.483729 0.461438
v -0.207868 -0.377202 0.491301
v -0.209899 -0.367087 0.493432
v -0.216712 -0.367087 0.488211
v -0.195549 -0.432128 0.478855
v -0.193656 -0.43893 0.477414
v -0.195171 -0.403009 0.491301
v -0.20398 -0.393436 0.488336
v -0.157903 -0.487514 0.476537
v -0.175212 -0.420268 0.493912
v -0.148371 -0.367087 0.522668
v -0.160862 -0.380409 0.513312
v -0.172253 -0.367087 0.51277
v -0.175453 -0.381823 0.506818
v -0.187634 -0.367087 0.506379
v -0.192418 -0.372699 0.50262
v -0.187669 -0.381823 0.501722
v -0.192486 -0.411603 0.489673
v -0.183884 -0.416649 0.491573
v -0.188873 -0.487514 0.460394
v -0.182163 -0.487514 0.465469
v -0.200023 -0.367087 0.500093
v -0.198543 -0.367087 0.50097
v -0.16685 -0.47629 0.476913
v -0.162032 -0.484767 0.475806
v -0.16186 -0.487514 0.474845
v -0.174627 -0.458276 0.480275
v -0.180202 -0.425255 0.490007
v -0.189596 -0.367087 0.505523
v -0.179204 -0.462815 0.476662
v -0.17769 -0.487514 0.467787
v -0.174145 -0.483729 0.47094
v -0.174042 -0.487514 0.469541
f 1 2 3
f 1 3 4
f 1 4 8
f 1 8 13
f 1 13 27
f 1 27 23
f 1 23 36
f 1 36 35
f 1 35 34
f 1 34 31
f 1 31 30
f 1 30 16
f 1 16 9
f 1 9 5
f 1 5 2
f 2 6 7
f 2 7 12
f 2 12 21
f 2 21 20
f 2 20 33
f 2 33 51
f 2 51 76
f 2 76 75
f 2 75 74
f 2 74 73
f 2 73 101
f 2 101 134
f 2 134 137
f 2 137 136
f 2 136 135
f 2 135 174
f 2 174 198
f 2 198 197
f 2 197 216
f 2 216 217
f 2 217 223
f 2 223 209
f 2 209 207
f 2 207 205
f 2 205 180
f 2 180 178
f 2 178 177
f 2 177 150
f 2 150 146
f 2 146 142
f 2 142 110
f 2 110 88
f 2 88 63
f 2 63 46
f 2 46 28
f 2 28 14
f 2 14 8
f 2 8 4
f 2 4 3
f 2 5 6
f 5 9 10
f 5 10 6
f 6 10 11
f 6 11 12
f 6 12 7
f 8 14 15
f 8 15 13
f 9 16 17
f 9 17 10
f 10 17 11
f 11 18 19
f 11 19 20
f 11 20 21
f 11 21 12
f 11 17 22
f 11 22 23
f 11 23 24
f 11 24 25
f 11 25 26
f 11 26 18
f 13 15 29
f 13 29 48
f 13 48 69
f 13 69 96
f 13 96 126
f 13 126 159
f 13 159 191
f 13 191 190
f 13 190 203
f 13 203 220
f 13 220 227
f 13 227 225
f 13 225 215
f 13 215 214
f 13 214 194
f 13 194 168
f 13 168 167
f 13 167 139
f 13 139 105
f 13 105 104
f 13 104 103
f 13 103 78
f 13 78 52
f 13 52 38
f 13 38 37
f 13 37 27
f 14 28 45
f 14 45 61
f 14 61 85
f 14 85 107
f 14 107 141
f 14 141 116
f 14 116 90
f 14 90 64
f 14 64 47
f 14 47 29
f 14 29 15
f 16 30 17
f 17 30 31
f 17 31 22
f 18 26 32
f 18 32 19
f 19 32 33
f 19 33 20
f 22 31 34
f 22 34 35
f 22 35 36
f 22 36 23
f 23 27 37
f 23 37 38
f 23 38 39
f 23 39 24
f 24 40 41
f 24 41 42
f 24 42 25
f 24 39 40
f 25 42 41
f 25 41 43
f 25 43 26
f 26 43 44
f 26 44 32
f 28 46 62
f 28 62 45
f 29 47 48
f 32 49 33
f 32 44 50
f 32 50 49
f 33 49 51
f 38 52 53
f 38 53 54
f 38 54 55
f 38 55 40
f 38 40 56
f 38 56 39
f 39 56 40
f 40 55 41
f 41 55 57
f 41 57 43
f 43 57 58
f 43 58 59
f 43 59 60
f 43 60 44
f 44 60 50
f 45 62 61
f 46 63 62
f 47 64 65
f 47 65 48
f 48 65 66
f 48 66 67
f 48 67 68
f 48 68 69
f 49 50 51
f 50 70 71
f 50 71 72
f 50 72 73
f 50 73 74
f 50 74 75
f 50 75 76
f 50 76 77
f 50 77 51
f 50 60 59
f 50 59 70
f 51 77 76
f 52 78 53
f 53 79 55
f 53 55 54
f 53 78 80
f 53 80 81
f 53 81 82
f 53 82 79
f 55 79 82
f 55 82 57
f 57 82 70
f 57 70 83
f 57 83 84
f 57 84 58
f 58 84 59
f 59 84 83
f 59 83 70
f 61 62 86
f 61 86 87
f 61 87 85
f 62 63 86
f 63 88 89
f 63 89 87
f 63 87 86
f 64 90 91
f 64 91 65
f 65 91 92
f 65 92 66
f 66 92 68
f 66 68 67
f 68 92 93
f 68 93 69
f 69 94 95
f 69 95 96
f 69 93 94
f 70 82 71
f 71 82 97
f 71 97 98
f 71 98 99
f 71 99 100
f 71 100 72
f 72 101 73
f 72 100 102
f 72 102 101
f 78 103 80
f 80 103 104
f 80 104 105
f 80 105 106
f 80 106 98
f 80 98 97
f 80 97 82
f 80 82 81
f 85 87 107
f 87 89 108
f 87 108 109
f 87 109 107
f 88 110 111
f 88 111 112
f 88 112 89
f 89 113 108
f 89 112 114
f 89 114 115
f 89 115 113
f 90 116 91
f 91 109 108
f 91 108 113
f 91 113 92
f 91 116 109
f 92 113 117
f 92 117 118
f 92 118 93
f 93 118 119
f 93 119 94
f 94 119 120
f 94 120 121
f 94 121 122
f 94 122 95
f 95 122 123
f 95 123 96
f 96 123 124
f 96 124 125
f 96 125 126
f 98 127 99
f 98 106 105
f 98 105 128
f 98 128 129
f 98 129 127
f 99 127 130
f 99 130 100
f 100 131 102
f 100 130 132
f 100 132 133
f 100 133 131
f 101 102 134
f 102 131 135
f 102 135 136
f 102 136 137
f 102 137 138
f 102 138 134
f 105 139 140
f 105 140 128
f 107 109 141
f 109 116 141
f 110 142 111
f 111 143 112
f 111 142 144
f 111 144 143
f 112 143 114
f 113 115 145
f 113 145 117
f 114 144 142
f 114 142 146
f 114 146 147
f 114 147 148
f 114 148 121
f 114 121 115
f 114 143 144
f 115 121 145
f 117 145 120
f 117 120 118
f 118 120 119
f 120 145 121
f 121 148 122
f 122 148 123
f 123 149 124
f 123 148 147
f 123 147 146
f 123 146 150
f 123 150 151
f 123 151 152
f 123 152 153
f 123 153 154
f 123 154 155
f 123 155 156
f 123 156 149
f 124 157 125
f 124 149 158
f 124 158 157
f 125 157 126
f 126 157 159
f 127 160 130
f 127 129 161
f 127 161 162
f 127 162 163
f 127 163 164
f 127 164 165
f 127 165 160
f 128 166 129
f 128 140 166
f 129 166 167
f 129 167 168
f 129 168 161
f 130 160 132
f 131 133 169
f 131 169 170
f 131 170 135
f 132 160 133
f 133 165 171
f 133 171 172
f 133 172 173
f 133 173 169
f 133 160 165
f 134 138 137
f 135 170 174
f 139 167 140
f 140 167 175
f 140 175 166
f 149 176 158
f 149 156 176
f 150 177 151
f 151 177 152
f 152 177 178
f 152 178 179
f 152 179 180
f 152 180 181
f 152 181 153
f 153 181 182
f 153 182 154
f 154 182 183
f 154 183 184
f 154 184 185
f 154 185 186
f 154 186 155
f 155 186 156
f 156 187 176
f 156 186 187
f 157 158 188
f 157 188 159
f 158 176 189
f 158 189 190
f 158 190 188
f 159 188 191
f 161 168 162
f 162 168 192
f 162 192 163
f 163 192 164
f 164 192 193
f 164 193 171
f 164 171 165
f 166 175 167
f 168 194 195
f 168 195 192
f 169 173 196
f 169 196 170
f 170 196 197
f 170 197 198
f 170 198 174
f 171 193 199
f 171 199 200
f 171 200 201
f 171 201 202
f 171 202 172
f 172 202 173
f 173 202 196
f 176 203 189
f 176 187 204
f 176 204 203
f 178 180 179
f 180 205 181
f 181 205 206
f 181 206 182
f 182 206 207
f 182 207 208
f 182 208 209
f 182 209 210
f 182 210 183
f 183 210 211
f 183 211 184
f 184 211 210
f 184 210 201
f 184 201 212
f 184 212 185
f 185 212 213
f 185 213 186
f 186 213 204
f 186 204 187
f 188 190 191
f 189 203 190
f 192 195 200
f 192 200 193
f 193 200 199
f 194 214 195
f 195 214 215
f 195 215 200
f 196 202 201
f 196 201 197
f 197 201 216
f 200 215 212
f 200 212 201
f 201 210 217
f 201 217 216
f 203 218 219
f 203 219 220
f 203 204 221
f 203 221 218
f 204 213 222
f 204 222 221
f 205 207 206
f 207 209 208
f 209 223 210
f 210 223 217
f 212 215 224
f 212 224 213
f 213 224 222
f 215 225 224
f 218 221 224
f 218 224 219
f 219 224 220
f 220 224 226
f 220 226 227
f 221 222 224
f 224 225 227
f 224 227 226
