v 0.154178 0.135841 0.518685
v 0.320932 0.135841 0.384997
v 0.154178 0.135841 0.618131
v 0.154178 0.561102 0.507951
v 0.321902 0.147066 0.38495
v 0.394013 0.135841 0.38495
v 0.308461 0.561102 0.38495
v 0.161218 0.135841 0.615225
v 0.154178 0.153757 0.619444
v 0.154178 0.574034 0.508771
v 0.309237 0.572372 0.38495
v 0.431039 0.135841 0.38495
v 0.174437 0.135841 0.609764
v 0.163074 0.174187 0.617241
v 0.156617 0.174187 0.619912
v 0.154178 0.174187 0.62092
v 0.154178 0.578793 0.510552
v 0.31065 0.578748 0.38495
v 0.309376 0.573989 0.38495
v 0.427935 0.135841 0.392497
v 0.431621 0.143564 0.38495
v 0.225763 0.135841 0.588506
v 0.226456 0.174187 0.59099
v 0.17416 0.187074 0.613467
v 0.154178 0.182314 0.621436
v 0.154178 0.583508 0.513131
v 0.312341 0.581532 0.38495
v 0.425302 0.135841 0.398755
v 0.433866 0.174546 0.38495
v 0.430319 0.174187 0.393435
v 0.427963 0.148099 0.39456
v 0.425524 0.143609 0.399599
v 0.239675 0.135841 0.582693
v 0.23865 0.161255 0.584967
v 0.23865 0.174187 0.585904
v 0.23865 0.187074 0.586725
v 0.220996 0.187074 0.594061
v 0.199961 0.187074 0.60278
v 0.157587 0.187074 0.620311
v 0.17416 0.19996 0.613983
v 0.158224 0.19996 0.620569
v 0.154178 0.187074 0.621717
v 0.154178 0.587459 0.518263
v 0.325145 0.590333 0.38495
v 0.316747 0.584855 0.38495
v 0.314115 0.583104 0.38495
v 0.425219 0.135841 0.398919
v 0.434642 0.187074 0.38495
v 0.431122 0.187074 0.393435
v 0.42666 0.174187 0.401497
v 0.425857 0.152185 0.400208
v 0.420342 0.135841 0.406021
v 0.244969 0.135841 0.58042
v 0.245301 0.140197 0.580584
v 0.247795 0.187074 0.582248
v 0.23865 0.19996 0.58724
v 0.228063 0.19996 0.591647
v 0.245745 0.148369 0.580889
v 0.246465 0.161255 0.581358
v 0.247186 0.174187 0.581826
v 0.199961 0.19996 0.603295
v 0.154178 0.212847 0.622584
v 0.159832 0.251552 0.621248
v 0.154178 0.19996 0.622233
v 0.154178 0.590288 0.522248
v 0.327417 0.59159 0.38495
v 0.43503 0.196503 0.38495
v 0.431649 0.19996 0.393435
v 0.427048 0.187074 0.402153
v 0.422171 0.174187 0.407943
v 0.422642 0.187074 0.408599
v 0.421921 0.148099 0.405247
v 0.414106 0.135841 0.414529
v 0.250234 0.135841 0.576483
v 0.253643 0.174187 0.577115
v 0.254253 0.187074 0.577608
v 0.254641 0.19996 0.577889
v 0.248211 0.19996 0.582506
v 0.23865 0.238665 0.588248
v 0.212848 0.264484 0.599615
v 0.201597 0.264484 0.60428
v 0.195555 0.27737 0.607115
v 0.154178 0.27059 0.624061
v 0.160636 0.27737 0.621576
v 0.154178 0.593252 0.527404
v 0.333708 0.593701 0.38495
v 0.435141 0.19996 0.38495
v 0.427325 0.19996 0.402552
v 0.435418 0.209749 0.38495
v 0.431981 0.212847 0.393435
v 0.422947 0.19996 0.408997
v 0.415713 0.174187 0.416638
v 0.416185 0.187074 0.417247
v 0.409311 0.135841 0.420786
v 0.260156 0.135841 0.568912
v 0.252923 0.161255 0.576576
v 0.261348 0.161255 0.570131
v 0.267805 0.161255 0.565186
v 0.283352 0.174187 0.554334
v 0.28374 0.181326 0.554615
v 0.289144 0.18622 0.550795
v 0.284101 0.189947 0.554896
v 0.263066 0.19996 0.571443
v 0.25489 0.212847 0.5781
v 0.248959 0.238665 0.583022
v 0.23865 0.27737 0.589233
v 0.23865 0.251552 0.588576
v 0.255167 0.225779 0.578287
v 0.255916 0.264484 0.578873
v 0.256165 0.27737 0.579061
v 0.230474 0.27737 0.592631
v 0.212848 0.27737 0.599944
v 0.230641 0.290257 0.592725
v 0.202179 0.290257 0.604514
v 0.154178 0.27737 0.624225
v 0.160802 0.290257 0.621647
v 0.154178 0.290257 0.624389
v 0.154178 0.593566 0.528224
v 0.337533 0.594015 0.38495
v 0.427492 0.212847 0.402833
v 0.424111 0.27737 0.410614
v 0.423917 0.264484 0.410357
v 0.423141 0.212847 0.409278
v 0.432979 0.251552 0.393435
v 0.433644 0.27737 0.393435
v 0.436443 0.249621 0.38495
v 0.416489 0.19996 0.417646
v 0.404323 0.174187 0.431497
v 0.410226 0.161255 0.42238
v 0.399723 0.183077 0.438388
v 0.399972 0.191654 0.43874
v 0.411251 0.187074 0.423693
v 0.40291 0.135841 0.42913
v 0.382485 0.161255 0.458544
v 0.266669 0.135841 0.56392
v 0.276202 0.161255 0.55874
v 0.290253 0.174187 0.549037
v 0.328526 0.187074 0.520607
v 0.327888 0.174187 0.520138
v 0.335288 0.195964 0.515896
v 0.284378 0.19996 0.555107
v 0.269523 0.19996 0.566498
v 0.249209 0.251552 0.583186
v 0.249708 0.27737 0.583514
v 0.23865 0.290257 0.589373
v 0.276174 0.276113 0.563686
v 0.265754 0.276113 0.571678
v 0.271075 0.27957 0.567693
v 0.256276 0.290257 0.579131
v 0.23865 0.303144 0.589233
v 0.17416 0.303144 0.615951
v 0.154178 0.303144 0.624225
v 0.154178 0.59388 0.53167
v 0.154178 0.59415 0.535209
v 0.34169 0.594194 0.38495
v 0.427824 0.238665 0.403372
v 0.428323 0.27737 0.404169
v 0.424194 0.290257 0.410732
v 0.416683 0.278313 0.420458
v 0.417459 0.264484 0.418911
v 0.416683 0.212847 0.417904
v 0.437136 0.27737 0.38495
v 0.437302 0.290257 0.38495
v 0.433783 0.290257 0.393435
v 0.388748 0.19996 0.45381
v 0.371621 0.174187 0.474107
v 0.35236 0.161255 0.497802
v 0.377053 0.187074 0.468271
v 0.360701 0.187074 0.489576
v 0.354327 0.174187 0.496631
v 0.36023 0.174187 0.488943
v 0.372397 0.19996 0.475115
v 0.355879 0.19996 0.496631
v 0.386364 0.135841 0.450693
v 0.325782 0.135841 0.518521
v 0.332932 0.148369 0.514092
v 0.312341 0.161255 0.53099
v 0.334955 0.187074 0.515662
v 0.334346 0.174187 0.51517
v 0.321265 0.238665 0.527943
v 0.341828 0.187074 0.510248
v 0.340581 0.20014 0.511842
v 0.342826 0.251552 0.511677
v 0.343325 0.27737 0.512076
v 0.336618 0.264484 0.516927
v 0.249819 0.290257 0.583584
v 0.249708 0.303144 0.583514
v 0.336868 0.27737 0.517115
v 0.322124 0.290257 0.528599
v 0.292442 0.290257 0.551404
v 0.264451 0.290257 0.572873
v 0.256165 0.303144 0.579037
v 0.23865 0.328962 0.588694
v 0.229809 0.328962 0.592373
v 0.201652 0.316075 0.604303
v 0.249514 0.316075 0.583373
v 0.248488 0.380509 0.582693
v 0.166733 0.316075 0.618764
v 0.154178 0.322541 0.623826
v 0.154178 0.594464 0.542381
v 0.350309 0.594509 0.38495
v 0.428379 0.290257 0.404286
v 0.428295 0.303144 0.404146
v 0.424083 0.303144 0.410614
v 0.417626 0.303144 0.419146
v 0.412776 0.296498 0.425685
v 0.416739 0.291424 0.420529
v 0.412776 0.283207 0.425708
v 0.368101 0.27737 0.48374
v 0.389524 0.251552 0.454818
v 0.437136 0.303144 0.38495
v 0.433617 0.303144 0.393435
v 0.361394 0.225779 0.490466
v 0.348452 0.165521 0.503287
v 0.352166 0.135841 0.495248
v 0.370013 0.135841 0.471998
v 0.35527 0.187074 0.496631
v 0.348812 0.174187 0.503662
v 0.349588 0.19996 0.504459
v 0.349283 0.187074 0.504131
v 0.356822 0.251552 0.497427
v 0.332489 0.135841 0.513365
v 0.34047 0.135841 0.507107
v 0.341828 0.174187 0.509287
v 0.341136 0.148369 0.507646
v 0.34205 0.212847 0.511068
v 0.350558 0.264484 0.50542
v 0.350752 0.27737 0.505607
v 0.343436 0.290257 0.512146
v 0.336978 0.290257 0.517185
v 0.336868 0.303144 0.517115
v 0.285874 0.303144 0.556256
v 0.264451 0.303144 0.572686
v 0.263759 0.354735 0.571982
v 0.255943 0.316075 0.578897
v 0.23865 0.380509 0.587615
v 0.165763 0.354735 0.618366
v 0.228507 0.380509 0.591834
v 0.193449 0.385762 0.606248
v 0.255334 0.354735 0.578428
v 0.25514 0.367622 0.578264
v 0.254918 0.380509 0.5781
v 0.248073 0.393395 0.582436
v 0.154178 0.36183 0.623006
v 0.154178 0.594554 0.548217
v 0.354715 0.594554 0.38495
v 0.428185 0.316075 0.403935
v 0.423944 0.316075 0.41038
v 0.416711 0.380509 0.417927
v 0.417182 0.341849 0.418536
v 0.417487 0.316075 0.418935
v 0.427907 0.341849 0.403513
v 0.427492 0.380509 0.402857
v 0.357293 0.290257 0.498037
v 0.368267 0.290257 0.48374
v 0.389995 0.290257 0.455427
v 0.401385 0.290257 0.440568
v 0.412693 0.303144 0.425591
v 0.401302 0.303144 0.440451
v 0.35721 0.303144 0.49792
v 0.412776 0.287922 0.425708
v 0.35721 0.27737 0.49792
v 0.436332 0.341849 0.38495
v 0.43309 0.328962 0.393435
v 0.348036 0.156945 0.502865
v 0.347094 0.135841 0.501506
v 0.347593 0.148369 0.502396
v 0.346928 0.135841 0.501693
v 0.350835 0.290257 0.505701
v 0.350752 0.303144 0.505607
v 0.343297 0.303144 0.512052
v 0.343103 0.316075 0.511888
v 0.342688 0.341849 0.511584
v 0.342494 0.354735 0.51142
v 0.335842 0.367622 0.516318
v 0.284655 0.380509 0.555318
v 0.285265 0.341849 0.555787
v 0.270909 0.309789 0.567576
v 0.2698 0.380509 0.566709
v 0.23865 0.393395 0.587076
v 0.158668 0.380509 0.620756
v 0.227869 0.393395 0.591553
v 0.212848 0.393395 0.597787
v 0.199961 0.393395 0.603131
v 0.19295 0.393395 0.606037
v 0.15803 0.393395 0.620498
v 0.154178 0.380509 0.622608
v 0.263343 0.380509 0.571654
v 0.25453 0.393395 0.577795
v 0.247435 0.406327 0.582014
v 0.154178 0.594554 0.561107
v 0.37611 0.594554 0.38495
v 0.423473 0.354735 0.409724
v 0.423141 0.380509 0.409302
v 0.422836 0.393395 0.40888
v 0.416379 0.393395 0.417505
v 0.411445 0.393395 0.423974
v 0.400138 0.390746 0.438951
v 0.361145 0.385762 0.490162
v 0.361533 0.354735 0.490654
v 0.406734 0.341849 0.432154
v 0.412388 0.328962 0.425193
v 0.432009 0.380509 0.393435
v 0.427242 0.393395 0.402435
v 0.356738 0.341849 0.49731
v 0.34981 0.380509 0.50467
v 0.435529 0.380509 0.38495
v 0.342078 0.380509 0.511092
v 0.33562 0.380509 0.516154
v 0.328914 0.380509 0.52131
v 0.314336 0.380509 0.532514
v 0.335482 0.388097 0.516037
v 0.23865 0.406327 0.586233
v 0.226844 0.406327 0.591154
v 0.220414 0.406327 0.593826
v 0.245107 0.451453 0.580467
v 0.185495 0.406327 0.608287
v 0.154178 0.406327 0.621248
v 0.154178 0.393395 0.622069
v 0.284239 0.393395 0.555014
v 0.283907 0.400759 0.554732
v 0.253893 0.406327 0.577326
v 0.17416 0.594554 0.561107
v 0.154178 0.594509 0.568186
v 0.341828 0.594554 0.432154
v 0.36763 0.594509 0.406349
v 0.380517 0.594464 0.38495
v 0.422365 0.406327 0.4082
v 0.415907 0.406327 0.416896
v 0.426827 0.406327 0.401755
v 0.425718 0.439195 0.399974
v 0.399833 0.399322 0.438552
v 0.396037 0.394383 0.443966
v 0.365856 0.393395 0.483388
v 0.355685 0.393395 0.496631
v 0.35721 0.381092 0.495412
v 0.431483 0.393395 0.393435
v 0.356406 0.367622 0.496888
v 0.349505 0.393395 0.504342
v 0.435141 0.389803 0.38495
v 0.340581 0.392812 0.511677
v 0.335066 0.396673 0.515732
v 0.320378 0.393395 0.527263
v 0.23865 0.4321 0.584498
v 0.225763 0.457919 0.588131
v 0.219001 0.423704 0.59324
v 0.18774 0.457919 0.603881
v 0.251565 0.470805 0.574022
v 0.252812 0.484815 0.571889
v 0.244581 0.457919 0.580209
v 0.236017 0.483692 0.582061
v 0.237098 0.470805 0.582529
v 0.154178 0.426892 0.619866
v 0.278447 0.405564 0.558553
v 0.334595 0.406327 0.515381
v 0.261652 0.419214 0.570365
v 0.266114 0.457919 0.563896
v 0.259657 0.457919 0.568842
v 0.225763 0.594554 0.535326
v 0.154178 0.594419 0.574022
v 0.187047 0.594464 0.561107
v 0.212848 0.594509 0.548217
v 0.290253 0.594554 0.48374
v 0.316027 0.594509 0.470849
v 0.328914 0.594464 0.457935
v 0.341828 0.594374 0.445044
v 0.380517 0.594374 0.393435
v 0.390716 0.59415 0.38495
v 0.418679 0.470805 0.406349
v 0.413385 0.470805 0.413591
v 0.376776 0.406327 0.467896
v 0.402494 0.457919 0.429107
v 0.427325 0.470805 0.390974
v 0.425025 0.457919 0.398474
v 0.416739 0.484051 0.407521
v 0.430651 0.406327 0.393435
v 0.360424 0.406327 0.489201
v 0.354715 0.406327 0.496631
v 0.348258 0.4255 0.503076
v 0.348591 0.416924 0.503427
v 0.349006 0.406327 0.503849
v 0.434974 0.393395 0.38495
v 0.434476 0.401433 0.38495
v 0.341828 0.406327 0.509685
v 0.225763 0.483692 0.58635
v 0.215149 0.470805 0.591647
v 0.185827 0.469862 0.603858
v 0.175074 0.469862 0.608311
v 0.181282 0.457919 0.606553
v 0.265449 0.470805 0.563381
v 0.258438 0.481267 0.567904
v 0.257966 0.489889 0.567553
v 0.250955 0.496624 0.572029
v 0.243528 0.470805 0.579693
v 0.242447 0.483692 0.579178
v 0.234576 0.496624 0.581475
v 0.206834 0.491685 0.593545
v 0.154539 0.436815 0.619045
v 0.154178 0.445571 0.6186
v 0.283463 0.40938 0.554404
v 0.282299 0.4321 0.553514
v 0.326835 0.4321 0.519318
v 0.339556 0.470805 0.506381
v 0.332627 0.444987 0.513857
v 0.280304 0.470805 0.55199
v 0.277338 0.594554 0.496631
v 0.251565 0.594509 0.522412
v 0.154178 0.594105 0.579693
v 0.161245 0.594329 0.574022
v 0.225763 0.594239 0.548217
v 0.23865 0.594419 0.535326
v 0.303112 0.594464 0.48374
v 0.315805 0.594015 0.483623
v 0.328747 0.594015 0.470544
v 0.380046 0.593925 0.405599
v 0.393487 0.59397 0.38495
v 0.390549 0.59379 0.393435
v 0.412997 0.48001 0.413099
v 0.37866 0.483692 0.457466
v 0.370207 0.471614 0.469771
v 0.391602 0.444987 0.444622
v 0.36436 0.4321 0.481443
v 0.430984 0.453518 0.38495
v 0.429293 0.478259 0.38495
v 0.428905 0.483692 0.38495
v 0.426854 0.483692 0.389872
v 0.424526 0.470805 0.397419
v 0.416905 0.496624 0.405528
v 0.412637 0.488586 0.41263
v 0.434143 0.406462 0.38495
v 0.433589 0.414813 0.38495
v 0.351944 0.457919 0.494966
v 0.347925 0.4321 0.502748
v 0.338891 0.483692 0.505865
v 0.340193 0.457919 0.506896
v 0.351417 0.470805 0.49431
v 0.350891 0.483692 0.493607
v 0.179148 0.483692 0.605662
v 0.180008 0.473544 0.606014
v 0.154178 0.470805 0.616889
v 0.172691 0.483692 0.608334
v 0.288036 0.483692 0.545006
v 0.309154 0.486386 0.528553
v 0.32969 0.496624 0.511607
v 0.287121 0.496624 0.544303
v 0.264451 0.496624 0.561693
v 0.257384 0.496624 0.567107
v 0.250595 0.561686 0.563662
v 0.246465 0.548215 0.568607
v 0.245634 0.557735 0.567975
v 0.244858 0.566356 0.567412
v 0.241033 0.496624 0.578475
v 0.225763 0.496624 0.585131
v 0.231056 0.522397 0.579998
v 0.226955 0.510408 0.583068
v 0.221052 0.548215 0.581193
v 0.168285 0.517997 0.606506
v 0.17768 0.496624 0.605053
v 0.154178 0.497252 0.614709
v 0.154178 0.488003 0.615576
v 0.161245 0.483692 0.613069
v 0.288701 0.470805 0.545545
v 0.331962 0.457919 0.513342
v 0.32484 0.470805 0.517795
v 0.290253 0.594374 0.496631
v 0.154178 0.593835 0.583233
v 0.161245 0.593745 0.581826
v 0.212848 0.593925 0.557967
v 0.225763 0.593611 0.555623
v 0.232248 0.593386 0.554685
v 0.237403 0.593745 0.54735
v 0.250872 0.593925 0.534881
v 0.302281 0.59388 0.496068
v 0.311343 0.593656 0.491404
v 0.324341 0.593745 0.47924
v 0.33648 0.593656 0.466044
v 0.341191 0.59388 0.457044
v 0.387612 0.593566 0.400818
v 0.399972 0.593431 0.38495
v 0.399695 0.593341 0.386802
v 0.362309 0.483692 0.478771
v 0.362835 0.470805 0.479451
v 0.428268 0.490517 0.38495
v 0.424028 0.483692 0.396317
v 0.426245 0.496624 0.388419
v 0.412138 0.496624 0.411974
v 0.414439 0.535284 0.402177
v 0.389358 0.496624 0.441693
v 0.361755 0.494424 0.478044
v 0.346013 0.470805 0.500756
v 0.345348 0.483692 0.500076
v 0.338004 0.496624 0.505162
v 0.330604 0.483692 0.51231
v 0.331297 0.470805 0.512826
v 0.350198 0.496624 0.492693
v 0.154178 0.474128 0.616655
v 0.31478 0.482749 0.524545
v 0.336923 0.50951 0.504318
v 0.335316 0.528549 0.503052
v 0.322623 0.503853 0.516084
v 0.284877 0.522397 0.542592
v 0.275066 0.561102 0.544959
v 0.296073 0.564111 0.528412
v 0.31029 0.569633 0.516506
v 0.259103 0.570711 0.555506
v 0.252562 0.574617 0.559396
v 0.243334 0.573989 0.566404
v 0.236904 0.573989 0.570178
v 0.239786 0.561686 0.570811
v 0.23865 0.548215 0.573107
v 0.227481 0.548215 0.578522
v 0.218668 0.565278 0.580209
v 0.186132 0.548215 0.595654
v 0.167093 0.526618 0.606014
v 0.154178 0.503404 0.614006
v 0.154178 0.483692 0.615975
v 0.154178 0.593117 0.586748
v 0.168811 0.593521 0.580818
v 0.196331 0.593611 0.56835
v 0.240867 0.59186 0.551053
v 0.306022 0.592309 0.500006
v 0.283241 0.593296 0.515404
v 0.297431 0.593521 0.503615
v 0.246133 0.593566 0.542474
v 0.204922 0.593207 0.566404
v 0.225763 0.590423 0.562068
v 0.225763 0.584002 0.570693
v 0.23441 0.582026 0.568772
v 0.237625 0.58692 0.560428
v 0.319962 0.592802 0.487841
v 0.332932 0.592758 0.474646
v 0.348729 0.593521 0.452146
v 0.401884 0.592398 0.38495
v 0.345099 0.592219 0.460724
v 0.357708 0.591949 0.445044
v 0.397007 0.592129 0.393435
v 0.406706 0.585394 0.393271
v 0.427686 0.496624 0.38495
v 0.423362 0.496624 0.394864
v 0.413053 0.556926 0.400278
v 0.413607 0.548215 0.401052
v 0.425829 0.504347 0.387341
v 0.408674 0.561192 0.405294
v 0.41042 0.522397 0.409747
v 0.36957 0.548215 0.458521
v 0.351722 0.548215 0.481771
v 0.348701 0.519164 0.490748
v 0.344461 0.496624 0.499138
v 0.339445 0.561102 0.494381
v 0.333625 0.548215 0.501716
v 0.291195 0.560339 0.532678
v 0.290253 0.548215 0.535021
v 0.326032 0.561102 0.505818
v 0.332489 0.561102 0.500826
v 0.330798 0.573989 0.499466
v 0.324341 0.573989 0.504529
v 0.257551 0.579287 0.554311
v 0.225763 0.573989 0.575428
v 0.224793 0.561057 0.578147
v 0.182502 0.57098 0.594154
v 0.154927 0.567747 0.606319
v 0.17416 0.561102 0.599123
v 0.154178 0.561102 0.607397
v 0.1641 0.548215 0.604772
v 0.154178 0.529222 0.611053
v 0.157642 0.548215 0.607444
v 0.154178 0.591815 0.589678
v 0.290253 0.591994 0.512732
v 0.248932 0.583238 0.557568
v 0.27659 0.584271 0.534998
v 0.290225 0.585573 0.522693
v 0.315805 0.590063 0.496068
v 0.200349 0.590063 0.573201
v 0.161245 0.584406 0.596967
v 0.199961 0.582924 0.582529
v 0.207638 0.581128 0.580959
v 0.187047 0.585214 0.585178
v 0.328747 0.590917 0.483623
v 0.341191 0.589929 0.470544
v 0.414549 0.58261 0.38495
v 0.413718 0.581712 0.388864
v 0.367824 0.585484 0.444951
v 0.40266 0.583149 0.403583
v 0.426605 0.506188 0.38495
v 0.42533 0.512923 0.386169
v 0.420619 0.556702 0.38495
v 0.417709 0.548215 0.393435
v 0.41563 0.561192 0.394466
v 0.412499 0.565502 0.399435
v 0.373505 0.563302 0.45074
v 0.350863 0.561102 0.480646
v 0.346761 0.548215 0.488216
v 0.345902 0.561102 0.487091
v 0.338115 0.573989 0.492998
v 0.33659 0.581802 0.491451
v 0.322955 0.580904 0.503451
v 0.30871 0.57821 0.515287
v 0.271768 0.581218 0.542428
v 0.180035 0.579557 0.593123
v 0.210077 0.573989 0.58199
v 0.154178 0.568331 0.606483
v 0.154178 0.567029 0.606694
v 0.154178 0.57556 0.604725
v 0.154178 0.588043 0.594904
v 0.161245 0.590827 0.588272
v 0.28593 0.582206 0.530498
v 0.264451 0.583598 0.545217
v 0.300119 0.583014 0.518592
v 0.327916 0.583777 0.496115
v 0.171444 0.58234 0.594881
v 0.154178 0.585079 0.598865
v 0.154178 0.57794 0.603623
v 0.341274 0.583687 0.482662
v 0.41782 0.573989 0.38495
v 0.39939 0.578928 0.412185
v 0.411445 0.573989 0.397724
v 0.414965 0.573989 0.391278
v 0.363667 0.582969 0.454794
v 0.380129 0.584137 0.431286
v 0.375584 0.582116 0.440591
v 0.387528 0.581083 0.426411
v 0.425663 0.514405 0.38495
v 0.424831 0.521634 0.38495
v 0.420064 0.561147 0.38495
v 0.404406 0.574348 0.407263
v 0.400609 0.570307 0.413755
v 0.361616 0.569229 0.464943
v 0.344572 0.573989 0.485404
v 0.348535 0.580769 0.477623
v 0.316027 0.583194 0.506052
v 0.360397 0.577805 0.463396
f 1 2 6
f 1 6 12
f 1 12 20
f 1 20 28
f 1 28 47
f 1 47 52
f 1 52 73
f 1 73 94
f 1 94 133
f 1 133 174
f 1 174 216
f 1 216 215
f 1 215 266
f 1 266 268
f 1 268 223
f 1 223 222
f 1 222 175
f 1 175 135
f 1 135 95
f 1 95 74
f 1 74 53
f 1 53 33
f 1 33 22
f 1 22 13
f 1 13 8
f 1 8 3
f 1 3 9
f 1 9 16
f 1 16 25
f 1 25 42
f 1 42 64
f 1 64 62
f 1 62 83
f 1 83 115
f 1 115 117
f 1 117 152
f 1 152 199
f 1 199 244
f 1 244 287
f 1 287 319
f 1 319 318
f 1 318 353
f 1 353 399
f 1 399 440
f 1 440 496
f 1 496 516
f 1 516 460
f 1 460 459
f 1 459 515
f 1 515 565
f 1 565 563
f 1 563 602
f 1 602 601
f 1 601 603
f 1 603 612
f 1 612 611
f 1 611 604
f 1 604 567
f 1 567 517
f 1 517 466
f 1 466 408
f 1 408 360
f 1 360 324
f 1 324 291
f 1 291 245
f 1 245 200
f 1 200 154
f 1 154 153
f 1 153 118
f 1 118 85
f 1 85 65
f 1 65 43
f 1 43 26
f 1 26 17
f 1 17 10
f 1 10 4
f 1 4 2
f 2 5 6
f 2 4 7
f 2 7 5
f 3 8 9
f 4 10 11
f 4 11 7
f 5 7 11
f 5 11 19
f 5 19 18
f 5 18 27
f 5 27 46
f 5 46 45
f 5 45 44
f 5 44 66
f 5 66 86
f 5 86 119
f 5 119 155
f 5 155 201
f 5 201 246
f 5 246 292
f 5 292 327
f 5 327 368
f 5 368 416
f 5 416 479
f 5 479 533
f 5 533 580
f 5 580 614
f 5 614 624
f 5 624 586
f 5 586 623
f 5 623 622
f 5 622 584
f 5 584 538
f 5 538 483
f 5 483 425
f 5 425 424
f 5 424 423
f 5 423 431
f 5 431 430
f 5 430 383
f 5 383 382
f 5 382 340
f 5 340 307
f 5 307 263
f 5 263 211
f 5 211 163
f 5 163 162
f 5 162 126
f 5 126 89
f 5 89 87
f 5 87 67
f 5 67 48
f 5 48 29
f 5 29 21
f 5 21 12
f 5 12 6
f 8 13 9
f 9 14 15
f 9 15 16
f 9 13 14
f 10 17 18
f 10 18 19
f 10 19 11
f 12 21 20
f 13 22 23
f 13 23 14
f 14 23 24
f 14 24 25
f 14 25 15
f 15 25 16
f 17 26 27
f 17 27 18
f 20 21 29
f 20 29 30
f 20 30 31
f 20 31 32
f 20 32 28
f 22 33 34
f 22 34 35
f 22 35 23
f 23 35 36
f 23 36 37
f 23 37 38
f 23 38 24
f 24 39 25
f 24 38 61
f 24 61 40
f 24 40 41
f 24 41 39
f 25 39 42
f 26 43 44
f 26 44 45
f 26 45 46
f 26 46 27
f 28 32 47
f 29 48 49
f 29 49 30
f 30 49 50
f 30 50 51
f 30 51 32
f 30 32 31
f 32 52 47
f 32 51 52
f 33 53 35
f 33 35 34
f 35 53 54
f 35 54 36
f 36 55 56
f 36 56 57
f 36 57 37
f 36 54 58
f 36 58 59
f 36 59 60
f 36 60 55
f 37 57 61
f 37 61 38
f 39 41 42
f 40 62 41
f 40 61 63
f 40 63 62
f 41 62 64
f 41 64 42
f 43 65 44
f 44 65 66
f 48 67 49
f 49 67 68
f 49 68 69
f 49 69 50
f 50 70 51
f 50 69 71
f 50 71 70
f 51 70 72
f 51 72 52
f 52 72 70
f 52 70 73
f 53 74 54
f 54 74 75
f 54 75 59
f 54 59 58
f 55 76 77
f 55 77 78
f 55 78 56
f 55 60 76
f 56 78 79
f 56 79 57
f 57 79 80
f 57 80 81
f 57 81 61
f 59 75 60
f 60 75 76
f 61 81 82
f 61 82 63
f 62 63 83
f 63 82 84
f 63 84 83
f 65 85 66
f 66 85 86
f 67 87 68
f 68 88 69
f 68 87 89
f 68 89 90
f 68 90 88
f 69 88 91
f 69 91 71
f 70 92 73
f 70 71 92
f 71 91 127
f 71 127 93
f 71 93 92
f 73 92 94
f 74 95 96
f 74 96 75
f 75 96 95
f 75 95 97
f 75 97 98
f 75 98 99
f 75 99 100
f 75 100 76
f 76 100 101
f 76 101 102
f 76 102 103
f 76 103 77
f 77 103 104
f 77 104 78
f 78 105 106
f 78 106 107
f 78 107 79
f 78 104 108
f 78 108 109
f 78 109 110
f 78 110 105
f 79 107 111
f 79 111 80
f 80 111 112
f 80 112 82
f 80 82 81
f 82 112 113
f 82 113 114
f 82 114 84
f 83 84 115
f 84 114 116
f 84 116 117
f 84 117 115
f 85 118 86
f 86 118 119
f 88 120 121
f 88 121 122
f 88 122 123
f 88 123 91
f 88 90 124
f 88 124 125
f 88 125 120
f 89 126 125
f 89 125 124
f 89 124 90
f 91 123 127
f 92 128 129
f 92 129 94
f 92 93 130
f 92 130 128
f 93 127 131
f 93 131 132
f 93 132 130
f 94 129 128
f 94 128 134
f 94 134 133
f 95 135 98
f 95 98 97
f 98 136 99
f 98 135 136
f 99 136 137
f 99 137 100
f 100 138 101
f 100 137 139
f 100 139 138
f 101 138 102
f 102 138 140
f 102 140 141
f 102 141 142
f 102 142 103
f 103 142 108
f 103 108 104
f 105 110 143
f 105 143 106
f 106 144 145
f 106 145 113
f 106 113 111
f 106 111 107
f 106 143 144
f 108 142 141
f 108 141 146
f 108 146 147
f 108 147 109
f 109 147 110
f 110 144 143
f 110 147 148
f 110 148 149
f 110 149 186
f 110 186 144
f 111 113 112
f 113 145 150
f 113 150 151
f 113 151 114
f 114 151 116
f 116 151 152
f 116 152 117
f 118 153 119
f 119 154 155
f 119 153 154
f 120 156 121
f 120 125 156
f 121 157 158
f 121 158 159
f 121 159 160
f 121 160 161
f 121 161 127
f 121 127 122
f 121 156 157
f 122 127 123
f 125 126 162
f 125 162 163
f 125 163 164
f 125 164 157
f 125 157 156
f 127 161 165
f 127 165 131
f 128 166 167
f 128 167 134
f 128 130 166
f 130 132 168
f 130 168 169
f 130 169 170
f 130 170 171
f 130 171 166
f 131 169 168
f 131 168 132
f 131 165 172
f 131 172 173
f 131 173 169
f 133 134 174
f 134 167 174
f 135 175 176
f 135 176 177
f 135 177 136
f 136 177 139
f 136 139 137
f 138 178 140
f 138 139 178
f 139 177 176
f 139 176 179
f 139 179 178
f 140 180 141
f 140 178 181
f 140 181 182
f 140 182 183
f 140 183 184
f 140 184 185
f 140 185 180
f 141 180 185
f 141 185 146
f 144 186 145
f 145 186 187
f 145 187 150
f 146 185 188
f 146 188 148
f 146 148 147
f 148 188 189
f 148 189 190
f 148 190 191
f 148 191 149
f 149 191 192
f 149 192 187
f 149 187 186
f 150 193 194
f 150 194 195
f 150 195 151
f 150 187 196
f 150 196 197
f 150 197 193
f 151 195 198
f 151 198 152
f 152 198 199
f 154 200 201
f 154 201 155
f 157 164 202
f 157 202 158
f 158 202 203
f 158 203 204
f 158 204 205
f 158 205 206
f 158 206 207
f 158 207 208
f 158 208 159
f 159 208 209
f 159 209 160
f 160 209 210
f 160 210 161
f 161 210 165
f 163 211 212
f 163 212 164
f 164 212 203
f 164 203 202
f 165 210 213
f 165 213 172
f 166 171 167
f 167 171 170
f 167 170 214
f 167 214 215
f 167 215 216
f 167 216 174
f 169 173 217
f 169 217 170
f 170 218 214
f 170 217 218
f 172 213 173
f 173 219 220
f 173 220 217
f 173 213 221
f 173 221 219
f 175 222 176
f 176 222 223
f 176 223 179
f 178 179 224
f 178 224 181
f 179 223 225
f 179 225 224
f 181 220 219
f 181 219 182
f 181 224 218
f 181 218 220
f 182 219 226
f 182 226 183
f 183 226 219
f 183 219 184
f 184 227 228
f 184 228 229
f 184 229 230
f 184 230 188
f 184 188 185
f 184 219 227
f 187 192 196
f 188 230 189
f 189 230 231
f 189 231 190
f 190 231 232
f 190 232 191
f 191 232 233
f 191 233 192
f 192 233 234
f 192 234 235
f 192 235 197
f 192 197 196
f 193 197 236
f 193 236 194
f 194 237 195
f 194 236 238
f 194 238 239
f 194 239 237
f 195 237 198
f 197 235 240
f 197 240 241
f 197 241 242
f 197 242 243
f 197 243 236
f 198 237 199
f 199 237 244
f 200 245 201
f 201 245 246
f 203 212 247
f 203 247 204
f 204 248 249
f 204 249 250
f 204 250 251
f 204 251 205
f 204 247 252
f 204 252 253
f 204 253 248
f 205 251 206
f 206 254 255
f 206 255 256
f 206 256 257
f 206 257 207
f 206 251 258
f 206 258 259
f 206 259 260
f 206 260 254
f 207 257 261
f 207 261 208
f 208 261 257
f 208 257 256
f 208 256 255
f 208 255 254
f 208 254 262
f 208 262 209
f 209 262 221
f 209 221 213
f 209 213 210
f 211 263 264
f 211 264 212
f 212 252 247
f 212 264 253
f 212 253 252
f 214 218 224
f 214 224 225
f 214 225 223
f 214 223 265
f 214 265 215
f 215 265 267
f 215 267 266
f 217 220 218
f 219 221 262
f 219 262 227
f 223 268 267
f 223 267 265
f 227 262 228
f 228 262 254
f 228 254 269
f 228 269 229
f 229 269 270
f 229 270 271
f 229 271 231
f 229 231 230
f 231 271 272
f 231 272 273
f 231 273 274
f 231 274 275
f 231 275 276
f 231 276 277
f 231 277 234
f 231 234 232
f 232 234 278
f 232 278 233
f 233 278 234
f 234 241 240
f 234 240 235
f 234 277 276
f 234 276 279
f 234 279 241
f 236 239 238
f 236 243 280
f 236 280 239
f 237 239 281
f 237 281 244
f 239 280 282
f 239 282 283
f 239 283 284
f 239 284 285
f 239 285 286
f 239 286 287
f 239 287 281
f 241 279 288
f 241 288 242
f 242 288 289
f 242 289 243
f 243 289 290
f 243 290 280
f 244 281 287
f 245 291 323
f 245 323 359
f 245 359 406
f 245 406 363
f 245 363 325
f 245 325 292
f 245 292 246
f 248 293 249
f 248 253 293
f 249 294 295
f 249 295 296
f 249 296 297
f 249 297 298
f 249 298 299
f 249 299 300
f 249 300 301
f 249 301 250
f 249 293 294
f 250 301 302
f 250 302 251
f 251 302 258
f 253 294 293
f 253 264 303
f 253 303 304
f 253 304 294
f 254 260 270
f 254 270 269
f 258 302 259
f 259 302 260
f 260 302 301
f 260 301 305
f 260 305 306
f 260 306 270
f 263 307 264
f 264 307 303
f 266 267 268
f 270 306 271
f 271 306 272
f 272 306 273
f 273 306 274
f 274 306 308
f 274 308 275
f 275 308 309
f 275 309 310
f 275 310 311
f 275 311 276
f 276 311 312
f 276 312 279
f 279 312 289
f 279 289 288
f 280 313 314
f 280 314 315
f 280 315 282
f 280 290 316
f 280 316 313
f 282 315 283
f 283 315 284
f 284 315 285
f 285 315 317
f 285 317 286
f 286 317 318
f 286 318 319
f 286 319 287
f 289 312 320
f 289 320 321
f 289 321 322
f 289 322 316
f 289 316 290
f 291 324 323
f 292 325 326
f 292 326 327
f 294 304 295
f 295 328 329
f 295 329 296
f 295 304 330
f 295 330 331
f 295 331 328
f 296 329 297
f 297 329 332
f 297 332 333
f 297 333 298
f 298 333 334
f 298 334 299
f 299 334 335
f 299 335 336
f 299 336 305
f 299 305 300
f 300 305 301
f 303 307 337
f 303 337 304
f 304 337 330
f 305 338 306
f 305 336 338
f 306 336 339
f 306 339 308
f 306 338 336
f 307 340 337
f 308 339 341
f 308 341 312
f 308 312 309
f 309 312 310
f 310 312 311
f 312 341 342
f 312 342 343
f 312 343 320
f 313 344 314
f 313 316 344
f 314 344 345
f 314 345 315
f 315 346 347
f 315 347 317
f 315 345 346
f 316 348 349
f 316 349 350
f 316 350 351
f 316 351 352
f 316 352 344
f 316 322 348
f 317 353 318
f 317 347 353
f 320 343 321
f 321 354 322
f 321 343 355
f 321 355 354
f 322 354 356
f 322 356 357
f 322 357 358
f 322 358 348
f 323 324 360
f 323 360 361
f 323 361 362
f 323 362 359
f 325 363 364
f 325 364 326
f 326 364 365
f 326 365 366
f 326 366 367
f 326 367 327
f 327 367 368
f 328 331 369
f 328 369 370
f 328 370 329
f 329 371 332
f 329 370 372
f 329 372 371
f 330 337 331
f 331 373 374
f 331 374 375
f 331 375 369
f 331 337 376
f 331 376 373
f 332 334 333
f 332 371 377
f 332 377 334
f 334 377 335
f 335 339 336
f 335 377 378
f 335 378 379
f 335 379 380
f 335 380 381
f 335 381 339
f 337 340 382
f 337 382 383
f 337 383 376
f 339 381 341
f 341 381 380
f 341 380 379
f 341 379 384
f 341 384 342
f 342 384 355
f 342 355 343
f 344 352 345
f 345 352 385
f 345 385 386
f 345 386 387
f 345 387 347
f 345 347 346
f 347 387 388
f 347 388 389
f 347 389 353
f 348 358 357
f 348 357 390
f 348 390 391
f 348 391 392
f 348 392 349
f 349 392 393
f 349 393 394
f 349 394 350
f 350 394 351
f 351 395 396
f 351 396 397
f 351 397 385
f 351 385 352
f 351 394 395
f 353 389 398
f 353 398 399
f 354 355 400
f 354 400 401
f 354 401 356
f 355 402 400
f 355 384 403
f 355 403 404
f 355 404 402
f 356 401 357
f 357 405 390
f 357 401 405
f 359 362 407
f 359 407 406
f 360 408 409
f 360 409 361
f 361 409 410
f 361 410 362
f 362 410 411
f 362 411 407
f 363 406 364
f 364 407 412
f 364 412 413
f 364 413 414
f 364 414 365
f 364 406 407
f 365 414 366
f 366 414 415
f 366 415 367
f 367 415 368
f 368 415 417
f 368 417 416
f 369 375 418
f 369 418 370
f 370 418 419
f 370 419 420
f 370 420 372
f 371 372 421
f 371 421 422
f 371 422 377
f 372 420 422
f 372 422 421
f 373 423 424
f 373 424 425
f 373 425 426
f 373 426 374
f 373 376 423
f 374 426 427
f 374 427 428
f 374 428 375
f 375 428 429
f 375 429 418
f 376 383 430
f 376 430 431
f 376 431 423
f 377 422 432
f 377 432 379
f 377 379 378
f 379 433 434
f 379 434 403
f 379 403 435
f 379 435 384
f 379 432 436
f 379 436 437
f 379 437 433
f 384 435 403
f 385 397 438
f 385 438 386
f 386 438 439
f 386 439 387
f 387 439 388
f 388 440 398
f 388 398 389
f 388 439 441
f 388 441 440
f 390 405 391
f 391 405 442
f 391 442 392
f 392 443 444
f 392 444 445
f 392 445 446
f 392 446 447
f 392 447 393
f 392 442 443
f 393 395 394
f 393 447 448
f 393 448 449
f 393 449 395
f 395 449 450
f 395 450 451
f 395 451 452
f 395 452 396
f 396 453 397
f 396 452 454
f 396 454 455
f 396 455 453
f 397 453 455
f 397 455 456
f 397 456 457
f 397 457 458
f 397 458 459
f 397 459 460
f 397 460 461
f 397 461 441
f 397 441 438
f 398 440 399
f 400 402 401
f 401 402 404
f 401 404 462
f 401 462 405
f 403 434 494
f 403 494 463
f 403 463 404
f 404 463 464
f 404 464 462
f 405 462 442
f 407 411 465
f 407 465 412
f 408 466 467
f 408 467 409
f 409 467 468
f 409 468 410
f 410 468 469
f 410 469 470
f 410 470 471
f 410 471 472
f 410 472 411
f 411 472 413
f 411 413 465
f 412 465 413
f 413 472 473
f 413 473 474
f 413 474 475
f 413 475 414
f 414 475 476
f 414 476 477
f 414 477 415
f 415 477 478
f 415 478 417
f 416 417 479
f 417 478 480
f 417 480 479
f 418 429 419
f 419 429 481
f 419 481 420
f 420 481 482
f 420 482 432
f 420 432 422
f 425 483 426
f 426 484 427
f 426 483 485
f 426 485 484
f 427 484 428
f 428 486 429
f 428 484 487
f 428 487 486
f 429 486 488
f 429 488 489
f 429 489 481
f 432 482 436
f 433 437 490
f 433 490 434
f 434 490 491
f 434 491 492
f 434 492 493
f 434 493 494
f 436 482 481
f 436 481 437
f 437 481 489
f 437 489 495
f 437 495 491
f 437 491 490
f 438 441 439
f 440 441 461
f 440 461 496
f 442 462 464
f 442 464 497
f 442 497 493
f 442 493 443
f 443 493 444
f 444 493 492
f 444 492 498
f 444 498 499
f 444 499 500
f 444 500 445
f 445 500 499
f 445 499 501
f 445 501 448
f 445 448 446
f 446 448 447
f 448 501 502
f 448 502 451
f 448 451 450
f 448 450 449
f 451 502 503
f 451 503 504
f 451 504 505
f 451 505 506
f 451 506 507
f 451 507 508
f 451 508 509
f 451 509 452
f 452 509 510
f 452 510 511
f 452 511 454
f 454 511 456
f 454 456 455
f 456 511 512
f 456 512 513
f 456 513 514
f 456 514 457
f 457 514 459
f 457 459 458
f 459 514 515
f 460 516 461
f 461 516 496
f 463 494 464
f 464 494 493
f 464 493 497
f 466 517 467
f 467 517 518
f 467 518 519
f 467 519 468
f 468 519 469
f 469 519 470
f 470 520 521
f 470 521 522
f 470 522 523
f 470 523 524
f 470 524 471
f 470 519 518
f 470 518 525
f 470 525 526
f 470 526 527
f 470 527 528
f 470 528 529
f 470 529 520
f 471 524 523
f 471 523 473
f 471 473 472
f 473 523 474
f 474 523 530
f 474 530 475
f 475 530 531
f 475 531 476
f 476 531 532
f 476 532 477
f 477 532 478
f 478 532 480
f 479 480 533
f 480 532 534
f 480 534 535
f 480 535 536
f 480 536 537
f 480 537 533
f 483 538 485
f 484 485 539
f 484 539 540
f 484 540 541
f 484 541 487
f 485 538 542
f 485 542 539
f 486 487 541
f 486 541 540
f 486 540 543
f 486 543 544
f 486 544 488
f 488 544 543
f 488 543 545
f 488 545 489
f 489 545 546
f 489 546 547
f 489 547 495
f 491 495 548
f 491 548 492
f 492 548 498
f 495 547 548
f 498 548 499
f 499 548 549
f 499 549 550
f 499 550 551
f 499 551 552
f 499 552 501
f 501 552 502
f 502 552 551
f 502 551 503
f 503 551 553
f 503 553 504
f 504 553 554
f 504 554 555
f 504 555 556
f 504 556 505
f 505 556 557
f 505 557 506
f 506 557 507
f 507 557 528
f 507 528 508
f 508 528 558
f 508 558 559
f 508 559 509
f 509 559 511
f 509 511 510
f 511 559 512
f 512 558 560
f 512 560 561
f 512 561 562
f 512 562 513
f 512 559 558
f 513 562 563
f 513 563 564
f 513 564 514
f 514 565 515
f 514 564 566
f 514 566 565
f 517 567 518
f 518 567 525
f 520 568 521
f 520 529 569
f 520 569 570
f 520 570 571
f 520 571 572
f 520 572 568
f 521 530 522
f 521 568 572
f 521 572 530
f 522 530 523
f 525 567 573
f 525 573 526
f 526 573 527
f 527 574 575
f 527 575 576
f 527 576 528
f 527 573 577
f 527 577 574
f 528 576 558
f 528 557 569
f 528 569 529
f 530 572 578
f 530 578 531
f 531 578 579
f 531 579 534
f 531 534 532
f 533 537 581
f 533 581 580
f 534 579 535
f 535 579 582
f 535 582 536
f 536 582 583
f 536 583 537
f 537 583 581
f 538 584 542
f 539 542 585
f 539 585 586
f 539 586 587
f 539 587 588
f 539 588 589
f 539 589 540
f 540 589 543
f 542 584 585
f 543 589 590
f 543 590 591
f 543 591 545
f 545 591 546
f 546 591 593
f 546 593 592
f 546 592 547
f 547 592 549
f 547 549 548
f 549 592 593
f 549 593 594
f 549 594 554
f 549 554 550
f 550 554 553
f 550 553 551
f 554 594 555
f 555 594 595
f 555 595 596
f 555 596 556
f 556 596 597
f 556 597 557
f 557 597 596
f 557 596 598
f 557 598 569
f 558 576 599
f 558 599 600
f 558 600 560
f 560 600 599
f 560 599 561
f 561 601 602
f 561 602 563
f 561 563 562
f 561 599 603
f 561 603 601
f 563 565 566
f 563 566 564
f 567 604 605
f 567 605 573
f 569 598 606
f 569 606 607
f 569 607 570
f 570 607 608
f 570 608 609
f 570 609 571
f 571 609 572
f 572 609 578
f 573 605 574
f 573 574 577
f 574 610 575
f 574 605 604
f 574 604 611
f 574 611 612
f 574 612 610
f 575 610 576
f 576 610 599
f 578 609 595
f 578 595 613
f 578 613 579
f 579 613 582
f 580 581 614
f 581 583 615
f 581 615 616
f 581 616 617
f 581 617 614
f 582 613 618
f 582 618 619
f 582 619 583
f 583 619 618
f 583 618 620
f 583 620 621
f 583 621 615
f 584 622 585
f 585 622 623
f 585 623 586
f 586 624 588
f 586 588 587
f 588 624 617
f 588 617 589
f 589 617 616
f 589 616 625
f 589 625 626
f 589 626 627
f 589 627 590
f 590 627 591
f 591 627 593
f 593 627 628
f 593 628 594
f 594 628 595
f 595 628 629
f 595 629 613
f 595 609 596
f 596 609 630
f 596 630 608
f 596 608 606
f 596 606 598
f 599 612 603
f 599 610 612
f 606 608 607
f 608 630 609
f 613 629 618
f 614 617 624
f 615 631 626
f 615 626 625
f 615 625 616
f 615 621 629
f 615 629 631
f 618 629 620
f 620 629 621
f 626 631 627
f 627 631 628
f 628 631 629
