v -0.406339 0.594502 0.253199
v -0.406339 0.594502 0.238632
v -0.432142 0.594502 0.253199
v -0.397033 0.593938 0.253199
v -0.406339 0.594195 0.105291
v -0.414865 0.594451 0.105291
v -0.419241 0.594502 0.105291
v -0.44502 0.594502 0.187042
v -0.44502 0.594297 0.21283
v -0.433336 0.594451 0.253199
v -0.396229 0.593733 0.253199
v -0.399327 0.593579 0.105291
v -0.403856 0.59399 0.105291
v -0.432142 0.594502 0.105291
v -0.44502 0.594502 0.12255
v -0.454539 0.593938 0.161254
v -0.453889 0.593938 0.174155
v -0.452777 0.593836 0.199929
v -0.442312 0.593938 0.253199
v -0.390789 0.592092 0.253199
v -0.392882 0.58958 0.105291
v -0.440656 0.594451 0.105291
v -0.44502 0.5944 0.109649
v -0.453191 0.593887 0.12255
v -0.453747 0.593938 0.135452
v -0.454468 0.593938 0.148353
v -0.460996 0.592554 0.161254
v -0.452281 0.593682 0.21283
v -0.451488 0.593374 0.232377
v -0.447941 0.592964 0.253199
v -0.381884 0.585734 0.253199
v -0.390115 0.587375 0.105291
v -0.44502 0.594349 0.105291
v -0.452671 0.593784 0.109649
v -0.460913 0.592503 0.148353
v -0.460334 0.592092 0.174155
v -0.451772 0.593477 0.225731
v -0.469924 0.586093 0.161254
v -0.448768 0.59281 0.253199
v -0.459754 0.591426 0.187042
v -0.459234 0.590708 0.199929
v -0.458725 0.589836 0.21283
v -0.458217 0.588862 0.225731
v -0.456644 0.588759 0.23746
v -0.458548 0.585426 0.253199
v -0.380454 0.583991 0.253199
v -0.384924 0.583119 0.105291
v -0.450081 0.593938 0.105291
v -0.452505 0.593733 0.105291
v -0.459636 0.591323 0.12255
v -0.469829 0.586042 0.148353
v -0.469144 0.585631 0.174155
v -0.476381 0.57676 0.161254
v -0.468292 0.585016 0.187042
v -0.467453 0.584247 0.199929
v -0.466613 0.583426 0.21283
v -0.465797 0.582452 0.225731
v -0.464969 0.581324 0.238632
v -0.464496 0.580657 0.246046
v -0.462001 0.581119 0.253199
v -0.375262 0.575068 0.253199
v -0.3814 0.573991 0.105291
v -0.45895 0.590246 0.105291
v -0.459127 0.590554 0.109649
v -0.468954 0.585478 0.135452
v -0.468115 0.584862 0.12255
v -0.476286 0.576299 0.148353
v -0.477847 0.5703 0.161254
v -0.477433 0.568351 0.168943
v -0.475683 0.573171 0.173605
v -0.464461 0.576863 0.253199
v -0.374553 0.571992 0.253199
v -0.380595 0.561121 0.105291
v -0.464342 0.58599 0.105291
v -0.467275 0.584093 0.109649
v -0.471083 0.573991 0.105291
v -0.477752 0.569838 0.148353
v -0.466991 0.583785 0.105291
v -0.479112 0.561121 0.161254
v -0.476865 0.563787 0.177543
v -0.467417 0.561121 0.251534
v -0.467003 0.562505 0.253199
v -0.465277 0.573222 0.253199
v -0.465395 0.574145 0.250824
v -0.477776 0.560147 0.173605
v -0.374139 0.561121 0.253199
v -0.385385 0.0707047 0.105291
v -0.477315 0.567736 0.141591
v -0.473259 0.561121 0.105291
v -0.478935 0.561121 0.148353
v -0.480496 0.548199 0.161254
v -0.472514 0.561121 0.21283
v -0.467181 0.561223 0.253199
v -0.474299 0.496614 0.251534
v -0.468576 0.548199 0.253199
v -0.484623 0.509485 0.161254
v -0.485995 0.496614 0.161254
v -0.484481 0.496614 0.174155
v -0.483109 0.509485 0.174155
v -0.478982 0.548199 0.174155
v -0.378952 0.0707047 0.253199
v -0.478095 0.0707047 0.105291
v -0.473838 0.561121 0.109649
v -0.475541 0.561121 0.12255
v -0.473732 0.556711 0.105291
v -0.485817 0.496614 0.148353
v -0.48279 0.496614 0.187042
v -0.474075 0.496614 0.253199
v -0.472526 0.511177 0.253199
v -0.477362 0.490974 0.232826
v -0.487118 0.483692 0.161254
v -0.485604 0.483692 0.174155
v -0.391345 0.0707047 0.253199
v -0.478285 0.0707047 0.106652
v -0.478166 0.07132 0.105291
v -0.474642 0.548199 0.105291
v -0.477563 0.531534 0.11395
v -0.480721 0.496614 0.109649
v -0.483547 0.483692 0.12255
v -0.486941 0.483692 0.148353
v -0.475056 0.485384 0.253199
v -0.483913 0.483692 0.187042
v -0.48052 0.483692 0.21283
v -0.475423 0.483692 0.251534
v -0.475198 0.483692 0.253199
v -0.490335 0.441132 0.153565
v -0.490335 0.441132 0.156374
v -0.487969 0.470822 0.161254
v -0.486456 0.470822 0.174155
v -0.472041 0.070756 0.253199
v -0.472254 0.0707047 0.251534
v -0.479952 0.0707047 0.119307
v -0.47903 0.0792167 0.105291
v -0.47793 0.517381 0.105291
v -0.478805 0.509177 0.105291
v -0.480141 0.496614 0.105291
v -0.481844 0.483692 0.109649
v -0.482116 0.470822 0.105291
v -0.484386 0.470822 0.12255
v -0.48778 0.470822 0.148353
v -0.47709 0.474257 0.243642
v -0.475919 0.47277 0.253199
v -0.488596 0.4579 0.148353
v -0.490938 0.419237 0.147672
v -0.491836 0.406315 0.148353
v -0.492617 0.393393 0.148353
v -0.492794 0.393393 0.161254
v -0.489613 0.445285 0.160907
v -0.492026 0.406315 0.161254
v -0.489956 0.432107 0.165583
v -0.490157 0.425492 0.167596
v -0.477942 0.470309 0.239067
v -0.490772 0.406315 0.172201
v -0.488892 0.432107 0.174155
v -0.478486 0.432107 0.253199
v -0.472289 0.0707047 0.251287
v -0.472064 0.0709611 0.253199
v -0.482045 0.0707047 0.135205
v -0.483499 0.083883 0.135452
v -0.479503 0.0836778 0.105291
v -0.481265 0.483692 0.105291
v -0.485202 0.4579 0.12255
v -0.483204 0.453541 0.105291
v -0.484315 0.445029 0.109649
v -0.476073 0.470411 0.253199
v -0.487709 0.445029 0.135452
v -0.490583 0.406315 0.138796
v -0.490015 0.397085 0.13021
v -0.490867 0.393034 0.134887
v -0.490264 0.38847 0.128342
v -0.493102 0.380522 0.148353
v -0.493291 0.380522 0.161254
v -0.491777 0.380522 0.174155
v -0.49108 0.394316 0.175285
v -0.490134 0.399238 0.180309
v -0.480106 0.406315 0.253199
v -0.477268 0.0775246 0.219201
v -0.482447 0.0707047 0.174155
v -0.47346 0.083883 0.253199
v -0.483771 0.0707047 0.148353
v -0.485191 0.083883 0.148353
v -0.484611 0.0967536 0.135452
v -0.480638 0.0967536 0.105291
v -0.484552 0.432107 0.105291
v -0.486172 0.406315 0.105291
v -0.48752 0.393393 0.109649
v -0.486941 0.393393 0.105291
v -0.487437 0.380522 0.105291
v -0.488017 0.380522 0.109649
v -0.49037 0.380522 0.127531
v -0.491411 0.380522 0.135452
v -0.49361 0.35473 0.148353
v -0.492534 0.341808 0.174155
v -0.494296 0.328937 0.161254
v -0.489708 0.380522 0.189909
v -0.490382 0.390624 0.182177
v -0.489578 0.394316 0.186709
v -0.486196 0.393393 0.21283
v -0.481099 0.393393 0.251534
v -0.48078 0.395085 0.253199
v -0.483866 0.083883 0.174155
v -0.483984 0.0709611 0.161254
v -0.483949 0.0707047 0.161254
v -0.48538 0.083883 0.161254
v -0.473602 0.0855238 0.253199
v -0.477149 0.0921899 0.231233
v -0.477717 0.0861392 0.222633
v -0.483949 0.0707047 0.161008
v -0.486302 0.0967536 0.148353
v -0.487177 0.109675 0.148353
v -0.490725 0.162337 0.14828
v -0.482956 0.122546 0.109649
v -0.485865 0.174182 0.105291
v -0.486432 0.401956 0.105291
v -0.488194 0.341808 0.105291
v -0.489424 0.303145 0.108925
v -0.492416 0.328937 0.135452
v -0.492664 0.316067 0.135452
v -0.494355 0.316067 0.148353
v -0.494544 0.316067 0.161254
v -0.490808 0.35473 0.185362
v -0.493031 0.316067 0.174155
v -0.491588 0.303145 0.187042
v -0.481844 0.356371 0.253199
v -0.481844 0.3676 0.251534
v -0.484989 0.380522 0.225731
v -0.481371 0.380522 0.253199
v -0.481312 0.382163 0.253199
v -0.480874 0.393393 0.253199
v -0.484978 0.0967536 0.174155
v -0.486491 0.0967536 0.161254
v -0.474571 0.0967536 0.253199
v -0.490181 0.141775 0.154738
v -0.490406 0.14839 0.153044
v -0.491529 0.174182 0.148353
v -0.490429 0.174182 0.139984
v -0.490808 0.187053 0.137102
v -0.486621 0.187053 0.105291
v -0.488797 0.31058 0.105291
v -0.490346 0.290274 0.114818
v -0.494757 0.290274 0.148353
v -0.492912 0.303145 0.135452
v -0.488939 0.303145 0.105291
v -0.488986 0.299299 0.105291
v -0.489093 0.290274 0.105291
v -0.494603 0.303145 0.148353
v -0.494793 0.303145 0.161254
v -0.493279 0.303145 0.174155
v -0.493433 0.290274 0.174155
v -0.484942 0.290274 0.238632
v -0.486491 0.303145 0.225731
v -0.486243 0.316067 0.225731
v -0.482376 0.328937 0.253199
v -0.487591 0.135468 0.174155
v -0.490323 0.165568 0.168812
v -0.490027 0.156953 0.166307
v -0.489743 0.14839 0.163498
v -0.490796 0.16126 0.161703
v -0.490181 0.141775 0.154883
v -0.477185 0.135468 0.253199
v -0.492475 0.187053 0.161254
v -0.492286 0.187053 0.148353
v -0.490134 0.195052 0.129283
v -0.486941 0.195616 0.105291
v -0.491233 0.277352 0.12255
v -0.494627 0.277352 0.148353
v -0.494935 0.290274 0.161254
v -0.489057 0.286839 0.105291
v -0.494805 0.277352 0.161254
v -0.493291 0.277352 0.174155
v -0.4916 0.277352 0.187042
v -0.490465 0.277352 0.195672
v -0.488206 0.277352 0.21283
v -0.482908 0.279044 0.253199
v -0.483239 0.290274 0.251534
v -0.483003 0.291915 0.253199
v -0.482873 0.303145 0.253199
v -0.482624 0.316067 0.253199
v -0.482542 0.16126 0.225731
v -0.489767 0.174182 0.177471
v -0.490607 0.174182 0.171028
v -0.491706 0.174182 0.161254
v -0.478923 0.16126 0.253199
v -0.481714 0.174182 0.238632
v -0.490879 0.187309 0.17485
v -0.491434 0.199975 0.174155
v -0.492948 0.199975 0.161254
v -0.492759 0.199975 0.148353
v -0.490914 0.199565 0.134322
v -0.489495 0.199565 0.123535
v -0.487674 0.199975 0.109649
v -0.487094 0.199975 0.105291
v -0.489424 0.277352 0.108867
v -0.488868 0.273558 0.105291
v -0.488915 0.25156 0.109649
v -0.490512 0.225767 0.126474
v -0.493078 0.212845 0.148353
v -0.493882 0.238689 0.161254
v -0.49419 0.25156 0.161254
v -0.488951 0.277352 0.105291
v -0.492061 0.225767 0.174155
v -0.491292 0.264482 0.187042
v -0.483109 0.277352 0.251534
v -0.481655 0.225767 0.253199
v -0.482885 0.277352 0.253199
v -0.483015 0.290274 0.253199
v -0.490039 0.183207 0.1796
v -0.479786 0.17408 0.253199
v -0.479893 0.175823 0.253199
v -0.490264 0.19177 0.18125
v -0.487567 0.187053 0.199929
v -0.490382 0.199975 0.182162
v -0.487307 0.208487 0.105291
v -0.481075 0.201616 0.253199
v -0.480555 0.187053 0.253199
v -0.481253 0.199975 0.251534
v -0.481028 0.199975 0.253199
f 1 2 7
f 1 7 14
f 1 14 15
f 1 15 8
f 1 8 3
f 1 3 10
f 1 10 19
f 1 19 30
f 1 30 39
f 1 39 45
f 1 45 60
f 1 60 71
f 1 71 83
f 1 83 82
f 1 82 93
f 1 93 95
f 1 95 109
f 1 109 108
f 1 108 121
f 1 121 125
f 1 125 142
f 1 142 165
f 1 165 155
f 1 155 176
f 1 176 200
f 1 200 229
f 1 229 228
f 1 228 227
f 1 227 224
f 1 224 253
f 1 253 278
f 1 278 277
f 1 277 276
f 1 276 306
f 1 306 274
f 1 274 305
f 1 305 304
f 1 304 314
f 1 314 317
f 1 317 315
f 1 315 309
f 1 309 308
f 1 308 283
f 1 283 260
f 1 260 232
f 1 232 205
f 1 205 179
f 1 179 157
f 1 157 130
f 1 130 113
f 1 113 101
f 1 101 86
f 1 86 72
f 1 72 61
f 1 61 46
f 1 46 31
f 1 31 20
f 1 20 11
f 1 11 4
f 1 4 2
f 2 4 5
f 2 5 6
f 2 6 7
f 3 8 9
f 3 9 10
f 4 11 12
f 4 12 13
f 4 13 5
f 5 13 12
f 5 12 21
f 5 21 32
f 5 32 47
f 5 47 62
f 5 62 73
f 5 73 87
f 5 87 102
f 5 102 115
f 5 115 133
f 5 133 160
f 5 160 183
f 5 183 213
f 5 213 238
f 5 238 264
f 5 264 292
f 5 292 313
f 5 313 294
f 5 294 300
f 5 300 268
f 5 268 245
f 5 245 244
f 5 244 243
f 5 243 239
f 5 239 215
f 5 215 188
f 5 188 187
f 5 187 214
f 5 214 185
f 5 185 184
f 5 184 163
f 5 163 138
f 5 138 161
f 5 161 136
f 5 136 135
f 5 135 134
f 5 134 116
f 5 116 105
f 5 105 89
f 5 89 76
f 5 76 78
f 5 78 74
f 5 74 63
f 5 63 49
f 5 49 48
f 5 48 33
f 5 33 22
f 5 22 14
f 5 14 7
f 5 7 6
f 8 15 16
f 8 16 17
f 8 17 18
f 8 18 9
f 9 18 19
f 9 19 10
f 11 20 12
f 12 20 21
f 14 22 15
f 15 22 23
f 15 23 24
f 15 24 25
f 15 25 26
f 15 26 16
f 16 26 27
f 16 27 17
f 17 27 18
f 18 27 28
f 18 28 19
f 19 28 29
f 19 29 30
f 20 31 21
f 21 31 32
f 22 33 23
f 23 33 34
f 23 34 24
f 24 34 35
f 24 35 25
f 25 35 26
f 26 35 27
f 27 36 29
f 27 29 37
f 27 37 28
f 27 35 38
f 27 38 36
f 28 37 29
f 29 39 30
f 29 36 40
f 29 40 41
f 29 41 42
f 29 42 43
f 29 43 44
f 29 44 45
f 29 45 39
f 31 46 47
f 31 47 32
f 33 48 34
f 34 48 49
f 34 49 35
f 35 49 50
f 35 50 51
f 35 51 38
f 36 38 52
f 36 52 40
f 38 51 53
f 38 53 52
f 40 52 41
f 41 52 42
f 42 52 54
f 42 54 43
f 43 54 55
f 43 55 45
f 43 45 44
f 45 55 56
f 45 56 57
f 45 57 58
f 45 58 59
f 45 59 60
f 46 61 47
f 47 61 62
f 49 63 64
f 49 64 50
f 50 64 51
f 51 64 65
f 51 65 66
f 51 66 67
f 51 67 53
f 52 53 54
f 53 67 77
f 53 77 68
f 53 68 69
f 53 69 70
f 53 70 59
f 53 59 58
f 53 58 57
f 53 57 56
f 53 56 55
f 53 55 54
f 59 70 69
f 59 69 71
f 59 71 60
f 61 72 62
f 62 72 73
f 63 74 66
f 63 66 64
f 64 66 65
f 66 75 67
f 66 74 75
f 67 76 77
f 67 75 78
f 67 78 76
f 68 77 79
f 68 79 69
f 69 80 81
f 69 81 82
f 69 82 83
f 69 83 84
f 69 84 71
f 69 79 85
f 69 85 80
f 71 84 83
f 72 86 73
f 73 86 87
f 74 78 75
f 76 88 77
f 76 89 88
f 77 88 90
f 77 90 79
f 79 90 91
f 79 91 85
f 80 85 92
f 80 92 81
f 81 93 82
f 81 92 94
f 81 94 95
f 81 95 93
f 85 91 96
f 85 96 97
f 85 97 98
f 85 98 99
f 85 99 100
f 85 100 92
f 86 101 87
f 87 101 113
f 87 113 131
f 87 131 156
f 87 156 178
f 87 178 203
f 87 203 208
f 87 208 180
f 87 180 158
f 87 158 132
f 87 132 114
f 87 114 102
f 88 89 103
f 88 103 104
f 88 104 90
f 89 105 103
f 90 104 106
f 90 106 91
f 91 106 96
f 92 100 107
f 92 107 94
f 94 108 109
f 94 109 95
f 94 107 110
f 94 110 108
f 96 106 97
f 97 106 120
f 97 120 111
f 97 111 112
f 97 112 98
f 98 107 99
f 98 112 110
f 98 110 107
f 99 107 100
f 102 114 115
f 103 105 116
f 103 116 104
f 104 116 117
f 104 117 118
f 104 118 106
f 106 118 119
f 106 119 120
f 108 110 121
f 110 112 122
f 110 122 123
f 110 123 124
f 110 124 125
f 110 125 121
f 111 120 126
f 111 126 127
f 111 127 128
f 111 128 129
f 111 129 112
f 112 129 122
f 113 130 131
f 114 132 133
f 114 133 115
f 116 134 118
f 116 118 117
f 118 134 135
f 118 135 136
f 118 136 161
f 118 161 137
f 118 137 119
f 119 137 138
f 119 138 139
f 119 139 140
f 119 140 120
f 120 140 126
f 122 141 123
f 122 129 141
f 123 141 124
f 124 141 142
f 124 142 125
f 126 140 143
f 126 143 144
f 126 144 145
f 126 145 146
f 126 146 147
f 126 147 127
f 127 148 128
f 127 147 149
f 127 149 148
f 128 148 150
f 128 150 151
f 128 151 129
f 129 152 141
f 129 151 153
f 129 153 154
f 129 154 155
f 129 155 152
f 130 156 131
f 130 157 156
f 132 158 133
f 133 158 159
f 133 159 160
f 137 161 138
f 138 162 139
f 138 163 164
f 138 164 162
f 139 162 143
f 139 143 140
f 141 152 155
f 141 155 165
f 141 165 142
f 143 162 164
f 143 164 166
f 143 166 144
f 144 166 167
f 144 167 145
f 145 167 168
f 145 168 146
f 146 168 169
f 146 169 170
f 146 170 171
f 146 171 172
f 146 172 147
f 147 172 173
f 147 173 174
f 147 174 153
f 147 153 149
f 148 149 150
f 149 153 151
f 149 151 150
f 153 174 175
f 153 175 176
f 153 176 155
f 153 155 154
f 156 157 177
f 156 177 178
f 157 179 177
f 158 180 159
f 159 180 181
f 159 181 209
f 159 209 182
f 159 182 183
f 159 183 160
f 163 184 164
f 164 184 185
f 164 185 167
f 164 167 166
f 167 185 168
f 168 185 186
f 168 186 169
f 169 186 170
f 170 186 187
f 170 187 188
f 170 188 189
f 170 189 190
f 170 190 191
f 170 191 171
f 171 191 192
f 171 192 172
f 172 193 173
f 172 192 194
f 172 194 193
f 173 193 195
f 173 195 196
f 173 196 174
f 174 197 175
f 174 196 197
f 175 197 198
f 175 198 199
f 175 199 200
f 175 200 176
f 177 179 201
f 177 201 178
f 178 202 203
f 178 201 204
f 178 204 202
f 179 205 206
f 179 206 207
f 179 207 201
f 180 208 202
f 180 202 204
f 180 204 181
f 181 204 231
f 181 231 209
f 182 209 210
f 182 210 211
f 182 211 212
f 182 212 183
f 183 212 213
f 185 214 186
f 186 214 187
f 188 215 189
f 189 215 216
f 189 216 217
f 189 217 190
f 190 217 192
f 190 192 191
f 192 217 218
f 192 218 219
f 192 219 220
f 192 220 194
f 193 221 195
f 193 194 220
f 193 220 222
f 193 222 223
f 193 223 221
f 195 221 224
f 195 224 225
f 195 225 226
f 195 226 196
f 196 226 227
f 196 227 228
f 196 228 199
f 196 199 198
f 196 198 197
f 199 228 229
f 199 229 200
f 201 207 206
f 201 206 230
f 201 230 231
f 201 231 204
f 202 208 203
f 205 232 206
f 206 232 230
f 209 231 233
f 209 233 210
f 210 233 211
f 211 233 234
f 211 234 235
f 211 235 236
f 211 236 213
f 211 213 212
f 213 236 237
f 213 237 238
f 215 239 216
f 216 240 241
f 216 241 242
f 216 242 218
f 216 218 217
f 216 239 243
f 216 243 244
f 216 244 245
f 216 245 240
f 218 242 246
f 218 246 219
f 219 246 247
f 219 247 220
f 220 247 248
f 220 248 222
f 221 223 224
f 222 248 223
f 223 248 249
f 223 249 250
f 223 250 251
f 223 251 252
f 223 252 224
f 224 227 225
f 224 252 253
f 225 227 226
f 230 232 260
f 230 260 254
f 230 254 255
f 230 255 256
f 230 256 231
f 231 256 257
f 231 257 258
f 231 258 259
f 231 259 233
f 233 259 261
f 233 261 262
f 233 262 235
f 233 235 234
f 235 262 237
f 235 237 236
f 237 262 263
f 237 263 238
f 238 263 264
f 240 245 265
f 240 265 266
f 240 266 241
f 241 267 247
f 241 247 246
f 241 246 242
f 241 266 269
f 241 269 267
f 245 268 265
f 247 267 249
f 247 249 248
f 249 267 269
f 249 269 270
f 249 270 271
f 249 271 272
f 249 272 273
f 249 273 274
f 249 274 250
f 250 274 275
f 250 275 276
f 250 276 277
f 250 277 251
f 251 277 278
f 251 278 252
f 252 278 253
f 254 260 279
f 254 279 280
f 254 280 255
f 255 280 281
f 255 281 282
f 255 282 256
f 256 282 258
f 256 258 257
f 258 282 259
f 259 282 261
f 260 283 284
f 260 284 279
f 261 282 281
f 261 281 285
f 261 285 286
f 261 286 287
f 261 287 288
f 261 288 262
f 262 288 263
f 263 288 289
f 263 289 290
f 263 290 291
f 263 291 292
f 263 292 264
f 265 268 293
f 265 293 294
f 265 294 295
f 265 295 296
f 265 296 266
f 266 296 297
f 266 297 298
f 266 298 299
f 266 299 269
f 268 300 293
f 269 299 301
f 269 301 270
f 270 301 271
f 271 301 302
f 271 302 272
f 272 302 273
f 273 303 274
f 273 302 301
f 273 301 304
f 273 304 303
f 274 303 305
f 274 306 275
f 275 306 276
f 279 284 280
f 280 284 307
f 280 307 281
f 281 307 285
f 283 308 284
f 284 309 307
f 284 308 309
f 285 310 286
f 285 307 311
f 285 311 310
f 286 310 312
f 286 312 301
f 286 301 287
f 287 301 298
f 287 298 297
f 287 297 288
f 288 297 289
f 289 297 296
f 289 296 290
f 290 313 291
f 290 296 313
f 291 313 292
f 293 300 294
f 294 313 295
f 295 313 296
f 298 301 299
f 301 312 314
f 301 314 304
f 303 304 305
f 307 309 315
f 307 315 311
f 310 311 315
f 310 315 316
f 310 316 312
f 312 316 314
f 314 316 317
f 315 317 316
