v -0.0322435 -0.0433738 -0.522962
v -0.0462318 -0.0433738 -0.526383
v -0.019211 -0.0433738 -0.523136
v -0.0332727 0.264949 -0.538545
v -0.0451396 0.264949 -0.541429
v -0.0468934 -0.0433738 -0.526558
v -0.0178037 -0.0433738 -0.523523
v -0.0188434 0.264949 -0.538907
v -0.0316975 0.264949 -0.538582
v -0.0578571 0.264949 -0.548559
v -0.0522177 -0.0433738 -0.528381
v -0.00662994 -0.0433738 -0.52677
v -0.0113872 0.264949 -0.541192
v -0.0579411 0.264949 -0.548621
v -0.056912 -0.0433738 -0.532539
v -0.00602084 -0.0433738 -0.526982
v -0.00544325 0.264949 -0.543427
v -0.0580672 0.264949 -0.548746
v -0.0657124 -0.0433738 -0.54058
v -0.0575316 -0.0433738 -0.5331
v -0.00440358 -0.0433738 -0.527594
v 0.0048379 0.264949 -0.550119
v -0.00144211 -0.0405366 -0.529454
v -0.0683378 0.264949 -0.559247
v -0.0707217 -0.0433738 -0.548097
v -0.0687789 0.264949 -0.559784
v 0.00459636 -0.0433738 -0.533637
v 0.0112649 0.264949 -0.556612
v 0.00667569 -0.0433738 -0.535311
v 0.00723228 -0.0433738 -0.535823
v -0.0760355 -0.0433738 -0.558772
v -0.0690414 0.264949 -0.560183
v -0.0758045 0.264949 -0.571296
v 0.0163057 0.264949 -0.56303
v 0.00809342 -0.0433738 -0.536697
v 0.0126406 -0.0397216 -0.542116
v 0.0160957 -0.0433738 -0.545986
v -0.0781674 -0.0433738 -0.565228
v -0.075983 0.264949 -0.571658
v -0.0780939 0.264949 -0.577851
v 0.0215566 0.264949 -0.574031
v 0.0171039 -0.0433738 -0.547347
v 0.0176184 -0.0433738 -0.548384
v -0.0792701 -0.0433738 -0.574031
v -0.0781779 0.264949 -0.578114
v -0.0800262 0.264949 -0.586529
v -0.0800892 0.264949 -0.586917
v 0.0247386 0.264949 -0.587653
v 0.0235624 -0.0433738 -0.561132
v 0.0238984 -0.0433738 -0.562493
v -0.0800682 0.0451539 -0.586917
v -0.0800577 0.0322656 -0.586917
v -0.0800367 0.0193773 -0.586917
v -0.0799737 0.00645887 -0.586917
v -0.0797321 -0.00642941 -0.586917
v -0.0793226 -0.0193479 -0.586917
v -0.0788815 -0.0322362 -0.586917
v -0.0782619 -0.0433738 -0.587379
v -0.0800892 0.264436 -0.586917
v -0.0800157 0.264949 -0.599303
v -0.0805828 0.251517 -0.599815
v -0.0808138 0.238629 -0.599815
v -0.0808663 0.225711 -0.599815
v 0.0248751 0.264949 -0.58834
v 0.0254107 -0.0433738 -0.56976
v -0.0808453 0.199934 -0.599815
v -0.0783249 0.0193773 -0.598079
v -0.0807613 0.187016 -0.599815
v -0.0806143 0.174127 -0.599815
v -0.0804147 0.161239 -0.599815
v -0.0802047 0.14832 -0.599815
v -0.0781674 0.00645887 -0.59728
v -0.0773903 -0.0386954 -0.593372
v -0.0781569 -0.0433738 -0.58794
v -0.0799842 0.264949 -0.599815
v -0.0800157 0.264436 -0.599815
v -0.0783774 0.251517 -0.611128
v -0.078577 0.238629 -0.612276
v -0.0786715 0.225711 -0.612713
v -0.0786715 0.212822 -0.612688
v 0.0248646 0.264949 -0.598279
v 0.0255787 -0.0433738 -0.570634
v 0.0264188 -0.0433738 -0.576203
v 0.0260723 0.0967674 -0.591874
v 0.0259988 0.109656 -0.592336
v 0.0259988 0.109656 -0.594171
v -0.0784404 0.0322656 -0.598641
v -0.0773483 0.0541787 -0.606046
v -0.0771487 0.0322656 -0.605097
v -0.0770122 0.0193773 -0.604535
v -0.0786085 0.199934 -0.612389
v -0.0793226 0.0967674 -0.599815
v -0.0768232 0.00645887 -0.603736
v -0.0753109 -0.0322362 -0.600289
v -0.0772537 -0.0433738 -0.592635
v -0.0764766 -0.00642941 -0.602587
v -0.0759725 -0.0193479 -0.601351
v -0.0781254 0.264949 -0.608905
v -0.0780834 0.264436 -0.60928
v -0.0769807 0.251517 -0.61757
v -0.0772852 0.238629 -0.618732
v -0.0773903 0.225711 -0.619156
v -0.0773903 0.212822 -0.619144
v 0.0223862 0.225711 -0.612713
v 0.0221972 0.238629 -0.612713
v 0.0217771 0.251517 -0.612713
v 0.0211575 0.264436 -0.612713
v 0.0211155 0.264949 -0.612713
v 0.0260723 0.0967674 -0.594383
v 0.0264188 -0.0433738 -0.582709
v -0.0773167 0.199934 -0.618844
v -0.0722339 0.0193773 -0.612713
v -0.0771697 0.187016 -0.618257
v -0.0769912 0.174127 -0.617583
v -0.0714988 0.00645887 -0.612713
v -0.0688629 -0.0322362 -0.61134
v -0.0688944 -0.0433738 -0.60888
v -0.0748173 -0.0433738 -0.598604
v -0.0695245 -0.0193479 -0.612251
v -0.0780624 0.264949 -0.609205
v -0.0763506 0.264949 -0.615398
v -0.0762876 0.264436 -0.615735
v -0.0689469 0.264255 -0.626636
v -0.0713728 0.251517 -0.625612
v -0.0723495 0.238629 -0.625612
v -0.0727275 0.225711 -0.625612
v -0.072717 0.212822 -0.625612
v -0.0724335 0.199934 -0.625612
v 0.0223652 0.212822 -0.612713
v 0.0165368 0.212822 -0.625524
v 0.0165473 0.225711 -0.625537
v 0.0261038 0.0838489 -0.594408
v 0.0164528 0.238629 -0.625175
v 0.0162427 0.251517 -0.624376
v 0.0159487 0.264436 -0.623464
v 0.0159277 0.264949 -0.623414
v 0.0262088 -0.0433738 -0.58357
v 0.0258308 0.0364007 -0.593484
v 0.0259148 0.0451539 -0.593722
v 0.0260093 0.0580724 -0.594046
v 0.0260828 0.0709606 -0.594296
v -0.0718979 0.187016 -0.625612
v -0.0685373 0.0967674 -0.623789
v -0.0681383 0.0838489 -0.623339
v -0.0669516 0.0451539 -0.621978
v -0.0661535 0.0193773 -0.621067
v -0.069682 0.135432 -0.62515
v -0.0693145 0.122544 -0.624688
v -0.0713203 0.174127 -0.625612
v -0.0706797 0.161239 -0.625612
v -0.0656179 0.00645887 -0.620455
v -0.069241 -0.00769711 -0.614012
v -0.063192 -0.0322362 -0.617795
v -0.0680228 -0.0433738 -0.610366
v -0.0650193 -0.00425621 -0.619768
v -0.0644837 -0.0128585 -0.619169
v -0.0640741 -0.0193479 -0.618707
v -0.0762456 0.264949 -0.615648
v -0.0689259 0.264949 -0.626498
v -0.0647882 0.259848 -0.632404
v -0.0653343 0.251517 -0.633029
v -0.0681488 0.264949 -0.627447
v -0.0660064 0.238629 -0.633803
v -0.0662795 0.225711 -0.634102
v -0.066269 0.212822 -0.634102
v -0.0660589 0.199934 -0.633865
v 0.0222392 0.199934 -0.612713
v 0.0128192 0.212822 -0.631967
v 0.0128297 0.225711 -0.631992
v 0.0164738 0.199934 -0.62525
v 0.0125041 0.238629 -0.631618
v 0.011727 0.251517 -0.630831
v 0.0106558 0.264436 -0.629919
v 0.0106033 0.264949 -0.629869
v 0.024539 -0.0433738 -0.589139
v 0.0226067 -0.00642941 -0.599815
v 0.0230478 0.00645887 -0.599815
v 0.0233839 0.0193773 -0.599815
v 0.0237304 0.0451539 -0.600165
v 0.0210945 0.135432 -0.612713
v -0.0656704 0.187016 -0.633416
v -0.0648723 0.161239 -0.632504
v -0.0646097 0.152788 -0.632204
v -0.0643367 0.144185 -0.631905
v -0.0635805 0.122544 -0.631143
v -0.0630975 0.109656 -0.630694
v -0.0625934 0.0967674 -0.630232
v -0.0620578 0.0838489 -0.629782
v -0.0614907 0.0709606 -0.629333
v -0.0608921 0.0580724 -0.628883
v -0.0602515 0.0451539 -0.628421
v -0.0595794 0.0322656 -0.627972
v -0.0588653 0.0193773 -0.627522
v -0.056933 0.00682108 -0.627759
v -0.056744 -0.0322362 -0.623002
v -0.0565969 -0.0433738 -0.621429
v -0.0621838 -0.0433738 -0.616821
v -0.059884 0.264949 -0.635376
v -0.0590753 0.264255 -0.636113
v -0.0580462 0.251517 -0.638772
v -0.0569645 0.238629 -0.641082
v -0.0585713 0.225711 -0.640558
v -0.0585607 0.212822 -0.640545
v -0.0569645 0.199602 -0.641182
v 0.00637114 0.212822 -0.637661
v 0.0157806 0.122544 -0.62289
v 0.0156021 0.109656 -0.622553
v 0.0125776 0.199934 -0.631705
v 0.0061296 0.199934 -0.637461
v 0.00638164 0.225711 -0.637673
v 0.00605609 0.238629 -0.637399
v 0.020853 0.122544 -0.612713
v 0.0205694 0.109656 -0.612713
v 0.00527897 0.251517 -0.636737
v 0.00420779 0.264436 -0.635825
v 0.00414479 0.264949 -0.635776
v 0.0241085 -0.0433738 -0.590563
v 0.0221447 -0.0193479 -0.599815
v 0.0186056 0.0451539 -0.612713
v 0.0190467 0.0580724 -0.612713
v 0.0194562 0.0709606 -0.612713
v 0.0198448 0.0838489 -0.612713
v 0.0202229 0.0967674 -0.612713
v -0.0556098 0.0838489 -0.634689
v -0.0550427 0.0709606 -0.634265
v -0.0544441 0.0580724 -0.633828
v -0.0538035 0.0451539 -0.633403
v -0.0531314 0.0322656 -0.632966
v -0.0524173 0.0193773 -0.632529
v -0.0518922 0.0113486 -0.632229
v -0.0557253 -0.0433738 -0.622128
v -0.0589388 0.264949 -0.636075
v -0.0495293 0.251517 -0.644254
v -0.0510625 0.242945 -0.644778
v -0.0519447 0.234343 -0.645153
v -0.0521232 0.225711 -0.64524
v -0.0521127 0.212822 -0.64524
v -0.0519342 0.203707 -0.64514
v -0.00172565 0.212822 -0.644116
v 0.0153711 0.0967674 -0.622165
v 0.015119 0.0838489 -0.621766
v 0.0148355 0.0709606 -0.621366
v 0.0145414 0.0580724 -0.620967
v 0.0142264 0.0451539 -0.620567
v 0.0138798 0.0322656 -0.620168
v 0.0135018 0.0193773 -0.619781
v 0.00941663 0.109656 -0.628995
v 0.00567803 0.187016 -0.637062
v -0.00219823 0.199934 -0.643904
v 0.00759984 0.0580724 -0.627422
v 0.00516345 0.0204941 -0.627247
v -0.00171515 0.225711 -0.644116
v -0.00232425 0.238629 -0.643854
v -0.00402552 0.251517 -0.643192
v -0.00720753 0.264315 -0.642606
v -0.00717603 0.264949 -0.642456
v 0.0208215 -0.0433738 -0.599815
v 0.0216196 -0.0322362 -0.599815
v 0.0176604 0.0193773 -0.612713
v 0.0181435 0.0322656 -0.612713
v -0.0451396 0.0193773 -0.635201
v -0.0459062 0.00682108 -0.633853
v -0.0507265 0.00274632 -0.631755
v -0.0512726 0.195105 -0.644853
v -0.050485 0.187016 -0.644591
v -0.0449821 -0.0433738 -0.627372
v -0.0490147 -0.00642941 -0.631181
v -0.0472084 0.264949 -0.643005
v -0.0430708 0.251517 -0.646464
v -0.0468304 0.264436 -0.643317
v -0.0403823 0.264436 -0.64554
v -0.0461163 0.238629 -0.646838
v -0.0451396 0.225711 -0.6477
v -0.0451396 0.212822 -0.6477
v -0.0462423 0.199602 -0.646876
v -0.00817369 0.212822 -0.646763
v 0.0162532 0.00624759 -0.613862
v 0.0161377 -0.0322362 -0.610403
v 0.0131762 0.0103827 -0.619443
v 0.00669669 0.0322656 -0.626623
v 0.00714827 0.0451539 -0.627023
v 1.76239e-05 0.0255649 -0.63208
v -0.00316439 0.187016 -0.643517
v -0.00864626 0.199934 -0.646551
v -0.000538964 0.0169627 -0.631817
v 0.00759984 0.00624759 -0.623926
v -0.00816318 0.225711 -0.646763
v -0.00877228 0.238629 -0.646501
v -0.0104736 0.251517 -0.645827
v -0.0120068 0.259938 -0.645253
v -0.00831021 0.264949 -0.642905
v 0.0200863 -0.0433738 -0.601251
v 0.0164317 -0.0193479 -0.611128
v -0.0322435 0.0193773 -0.638223
v -0.0322435 0.00645887 -0.637137
v -0.0440369 0.187016 -0.646788
v -0.0393007 0.138813 -0.645178
v -0.037967 0.130211 -0.644891
v -0.0425667 -0.00642941 -0.633391
v -0.0315714 -0.0433738 -0.630656
v -0.0464838 -0.0193479 -0.630319
v -0.0438794 -0.0310288 -0.629645
v -0.0387441 -0.0258977 -0.63208
v -0.034953 -0.0344999 -0.631505
v -0.0467044 0.264949 -0.643255
v -0.0322435 0.251517 -0.648624
v -0.0322435 0.238629 -0.649997
v -0.0402668 0.264949 -0.645502
v -0.0322435 0.225711 -0.650509
v -0.0322435 0.212822 -0.650509
v -0.0322435 0.199934 -0.650085
v -0.019358 0.212822 -0.649848
v -0.019358 0.225711 -0.64986
v 0.0156336 -0.0433738 -0.609542
v 0.0126826 0.00178046 -0.618931
v -0.00961242 0.187016 -0.646139
v -0.019358 0.199934 -0.649436
v 0.00566753 -0.00642941 -0.624188
v 0.00476438 -0.0193479 -0.623364
v 0.00386124 -0.0322362 -0.622528
v -0.00161014 0.00645887 -0.631368
v -0.00805817 0.00645887 -0.63374
v -0.00548526 0.0204941 -0.63384
v -0.0106731 0.174127 -0.645727
v -0.019358 0.238629 -0.649336
v -0.019358 0.251517 -0.647975
v -0.0184338 0.264949 -0.645927
v -0.01354 0.264949 -0.644878
v -0.0252284 0.114304 -0.645078
v -0.019358 0.0193773 -0.637773
v -0.019358 0.00645887 -0.6367
v -0.0292611 0.122544 -0.645353
v -0.0268457 0.114304 -0.645078
v -0.0322435 -0.00642941 -0.635601
v -0.0400358 -0.0193479 -0.632529
v -0.0254069 -0.0391783 -0.632142
v -0.0263626 -0.0391783 -0.632142
v -0.0322435 0.187016 -0.649248
v -0.0305318 -0.0433738 -0.630818
v -0.0312879 -0.0310288 -0.632504
v -0.0322435 -0.0193479 -0.633903
v -0.0327476 0.264949 -0.646676
v -0.0322435 0.264436 -0.646813
v -0.0194 0.264949 -0.646102
v 0.014846 -0.0433738 -0.610416
v 0.0103093 -0.0322362 -0.616846
v -0.019358 0.174127 -0.647775
v -0.0239052 0.122544 -0.645353
v -0.0126159 0.153391 -0.645053
v -0.0138446 0.144789 -0.644778
v 0.00936412 -0.0433738 -0.615997
v 0.00290559 -0.0433738 -0.621666
v -0.00359495 -0.00642941 -0.630631
v -0.010043 -0.00642941 -0.632979
v -0.0118598 0.161239 -0.645303
v -0.0190954 0.264315 -0.646152
v -0.019358 0.0451539 -0.639447
v -0.0117863 -0.015424 -0.632392
v -0.019358 -0.00642941 -0.635189
v -0.0231281 -0.0322362 -0.632604
v -0.01668 -0.0322362 -0.631305
v -0.0201666 -0.0433738 -0.630381
v -0.0205762 -0.0433738 -0.630469
v -0.0211748 -0.0433738 -0.630594
v -0.0322435 0.264949 -0.646726
v -0.019358 0.0967674 -0.64278
v 0.00151936 -0.0433738 -0.62244
v -0.00645141 -0.0322362 -0.628221
v -0.0140336 -0.0240263 -0.631842
v -0.0187384 -0.0195592 -0.633366
v -0.00783763 -0.0433738 -0.626948
v -0.00645141 -0.0433738 -0.626523
f 1 2 6
f 1 6 11
f 1 11 15
f 1 15 20
f 1 20 19
f 1 19 25
f 1 25 31
f 1 31 38
f 1 38 44
f 1 44 58
f 1 58 74
f 1 74 95
f 1 95 118
f 1 118 117
f 1 117 154
f 1 154 197
f 1 197 196
f 1 196 231
f 1 231 266
f 1 266 300
f 1 300 339
f 1 339 364
f 1 364 363
f 1 363 362
f 1 362 371
f 1 371 372
f 1 372 367
f 1 367 352
f 1 352 351
f 1 351 345
f 1 345 314
f 1 314 292
f 1 292 257
f 1 257 217
f 1 217 175
f 1 175 137
f 1 137 110
f 1 110 83
f 1 83 82
f 1 82 65
f 1 65 50
f 1 50 49
f 1 49 43
f 1 43 42
f 1 42 37
f 1 37 35
f 1 35 30
f 1 30 29
f 1 29 27
f 1 27 21
f 1 21 16
f 1 16 12
f 1 12 7
f 1 7 3
f 1 3 4
f 1 4 5
f 1 5 2
f 2 5 6
f 3 7 8
f 3 8 9
f 3 9 4
f 4 9 8
f 4 8 13
f 4 13 17
f 4 17 22
f 4 22 28
f 4 28 34
f 4 34 41
f 4 41 48
f 4 48 64
f 4 64 81
f 4 81 108
f 4 108 136
f 4 136 174
f 4 174 216
f 4 216 256
f 4 256 291
f 4 291 328
f 4 328 327
f 4 327 344
f 4 344 365
f 4 365 342
f 4 342 308
f 4 308 305
f 4 305 268
f 4 268 232
f 4 232 198
f 4 198 162
f 4 162 159
f 4 159 158
f 4 158 121
f 4 121 120
f 4 120 98
f 4 98 75
f 4 75 60
f 4 60 47
f 4 47 46
f 4 46 45
f 4 45 40
f 4 40 39
f 4 39 33
f 4 33 32
f 4 32 26
f 4 26 24
f 4 24 18
f 4 18 14
f 4 14 10
f 4 10 5
f 5 10 11
f 5 11 6
f 7 12 8
f 8 12 13
f 10 14 11
f 11 14 15
f 12 16 13
f 13 16 17
f 14 18 19
f 14 19 20
f 14 20 15
f 16 21 17
f 17 21 23
f 17 23 22
f 18 24 19
f 19 24 26
f 19 26 25
f 21 27 23
f 22 23 27
f 22 27 29
f 22 29 30
f 22 30 28
f 25 26 32
f 25 32 33
f 25 33 31
f 28 30 35
f 28 35 36
f 28 36 37
f 28 37 34
f 31 33 39
f 31 39 40
f 31 40 38
f 34 37 42
f 34 42 43
f 34 43 41
f 35 37 36
f 38 40 45
f 38 45 46
f 38 46 47
f 38 47 44
f 41 43 49
f 41 49 50
f 41 50 48
f 44 51 52
f 44 52 53
f 44 53 54
f 44 54 55
f 44 55 56
f 44 56 57
f 44 57 58
f 44 47 59
f 44 59 51
f 47 60 61
f 47 61 62
f 47 62 63
f 47 63 59
f 48 50 65
f 48 65 64
f 51 59 63
f 51 63 66
f 51 66 52
f 52 66 53
f 53 66 54
f 54 67 55
f 54 66 68
f 54 68 69
f 54 69 70
f 54 70 71
f 54 71 67
f 55 67 72
f 55 72 56
f 56 72 57
f 57 73 58
f 57 72 73
f 58 73 74
f 60 75 76
f 60 76 61
f 61 76 77
f 61 77 78
f 61 78 62
f 62 78 79
f 62 79 63
f 63 79 80
f 63 80 66
f 64 65 82
f 64 82 83
f 64 83 84
f 64 84 85
f 64 85 86
f 64 86 81
f 66 80 68
f 67 87 88
f 67 88 89
f 67 89 90
f 67 90 72
f 67 71 87
f 68 80 91
f 68 91 69
f 69 91 70
f 70 91 71
f 71 91 92
f 71 92 87
f 72 90 93
f 72 93 73
f 73 94 95
f 73 95 74
f 73 93 96
f 73 96 97
f 73 97 94
f 75 98 99
f 75 99 76
f 76 99 77
f 77 100 101
f 77 101 78
f 77 99 100
f 78 101 102
f 78 102 79
f 79 102 103
f 79 103 80
f 80 103 91
f 81 104 105
f 81 105 106
f 81 106 107
f 81 107 108
f 81 86 109
f 81 109 104
f 83 110 109
f 83 109 84
f 84 109 86
f 84 86 85
f 87 92 91
f 87 91 88
f 88 91 111
f 88 111 89
f 89 111 90
f 90 112 93
f 90 111 113
f 90 113 114
f 90 114 112
f 91 103 111
f 93 112 115
f 93 115 96
f 94 116 117
f 94 117 118
f 94 118 95
f 94 97 116
f 96 115 119
f 96 119 116
f 96 116 97
f 98 120 99
f 99 120 100
f 100 120 121
f 100 121 122
f 100 122 123
f 100 123 124
f 100 124 101
f 101 124 125
f 101 125 102
f 102 125 126
f 102 126 103
f 103 126 127
f 103 127 128
f 103 128 111
f 104 129 130
f 104 130 131
f 104 131 105
f 104 109 132
f 104 132 129
f 105 131 133
f 105 133 106
f 106 133 134
f 106 134 107
f 107 135 108
f 107 134 135
f 108 135 136
f 109 110 132
f 110 137 138
f 110 138 139
f 110 139 140
f 110 140 141
f 110 141 132
f 111 128 142
f 111 142 113
f 112 143 144
f 112 144 145
f 112 145 146
f 112 146 115
f 112 114 147
f 112 147 148
f 112 148 143
f 113 142 149
f 113 149 150
f 113 150 114
f 114 150 147
f 115 146 151
f 115 151 152
f 115 152 119
f 116 153 154
f 116 154 117
f 116 119 155
f 116 155 156
f 116 156 157
f 116 157 153
f 119 152 151
f 119 151 155
f 121 158 122
f 122 158 159
f 122 159 123
f 123 160 161
f 123 161 124
f 123 159 162
f 123 162 160
f 124 161 163
f 124 163 125
f 125 163 164
f 125 164 126
f 126 164 165
f 126 165 127
f 127 165 128
f 128 165 166
f 128 166 142
f 129 167 130
f 129 132 141
f 129 141 167
f 130 168 169
f 130 169 131
f 130 167 170
f 130 170 168
f 131 169 133
f 133 171 134
f 133 169 171
f 134 171 135
f 135 171 172
f 135 172 136
f 136 172 173
f 136 173 174
f 137 175 176
f 137 176 177
f 137 177 138
f 138 177 178
f 138 178 139
f 139 178 179
f 139 179 180
f 139 180 167
f 139 167 140
f 140 167 141
f 142 166 149
f 143 148 181
f 143 181 144
f 144 181 145
f 145 181 182
f 145 182 146
f 146 182 183
f 146 183 184
f 146 184 185
f 146 185 186
f 146 186 187
f 146 187 188
f 146 188 189
f 146 189 190
f 146 190 191
f 146 191 192
f 146 192 193
f 146 193 151
f 147 150 166
f 147 166 148
f 148 166 181
f 149 166 150
f 151 193 194
f 151 194 155
f 153 195 196
f 153 196 197
f 153 197 154
f 153 157 195
f 155 194 156
f 156 194 157
f 157 194 195
f 160 162 198
f 160 198 199
f 160 199 200
f 160 200 161
f 161 200 201
f 161 201 163
f 163 201 202
f 163 202 164
f 164 202 165
f 165 202 203
f 165 203 166
f 166 204 181
f 166 203 204
f 167 180 170
f 168 205 169
f 168 170 206
f 168 206 207
f 168 207 208
f 168 208 209
f 168 209 205
f 169 210 211
f 169 211 171
f 169 205 210
f 170 180 212
f 170 212 213
f 170 213 206
f 171 211 214
f 171 214 172
f 172 214 215
f 172 215 173
f 173 215 174
f 174 215 216
f 175 217 176
f 176 217 218
f 176 218 219
f 176 219 177
f 177 219 220
f 177 220 221
f 177 221 222
f 177 222 223
f 177 223 213
f 177 213 178
f 178 213 212
f 178 212 180
f 178 180 179
f 181 204 182
f 182 204 184
f 182 184 183
f 184 204 185
f 185 204 186
f 186 224 187
f 186 204 224
f 187 224 188
f 188 224 225
f 188 225 189
f 189 225 226
f 189 226 190
f 190 226 227
f 190 227 191
f 191 227 228
f 191 228 192
f 192 228 229
f 192 229 193
f 193 229 230
f 193 230 194
f 194 230 195
f 195 231 196
f 195 230 231
f 198 232 199
f 199 232 233
f 199 233 234
f 199 234 200
f 200 234 201
f 201 235 202
f 201 234 235
f 202 235 236
f 202 236 237
f 202 237 203
f 203 237 238
f 203 238 204
f 204 238 224
f 205 239 210
f 205 209 239
f 206 213 223
f 206 223 207
f 207 223 222
f 207 222 221
f 207 221 220
f 207 220 240
f 207 240 208
f 208 240 241
f 208 241 242
f 208 242 243
f 208 243 244
f 208 244 245
f 208 245 246
f 208 246 247
f 208 247 209
f 209 248 249
f 209 249 239
f 209 247 250
f 209 250 251
f 209 251 248
f 210 252 211
f 210 239 252
f 211 253 214
f 211 252 253
f 214 253 215
f 215 253 254
f 215 254 216
f 216 254 255
f 216 255 256
f 217 257 258
f 217 258 218
f 218 259 260
f 218 260 219
f 218 258 259
f 219 260 240
f 219 240 220
f 224 238 225
f 225 238 226
f 226 238 227
f 227 238 228
f 228 238 229
f 229 238 230
f 230 261 262
f 230 262 263
f 230 263 231
f 230 238 264
f 230 264 265
f 230 265 261
f 231 263 267
f 231 267 266
f 232 268 233
f 233 269 234
f 233 268 270
f 233 270 271
f 233 271 269
f 234 269 272
f 234 272 235
f 235 272 273
f 235 273 236
f 236 273 274
f 236 274 237
f 237 274 238
f 238 274 275
f 238 275 264
f 239 276 287
f 239 287 252
f 239 249 284
f 239 284 276
f 240 260 241
f 241 260 259
f 241 259 242
f 242 259 243
f 243 259 244
f 244 259 245
f 245 259 246
f 246 259 277
f 246 277 278
f 246 278 279
f 246 279 251
f 246 251 280
f 246 280 281
f 246 281 250
f 246 250 247
f 248 251 282
f 248 282 249
f 249 283 284
f 249 282 285
f 249 285 283
f 250 281 251
f 251 281 280
f 251 279 286
f 251 286 285
f 251 285 282
f 252 287 288
f 252 288 253
f 253 288 254
f 254 288 289
f 254 289 290
f 254 290 255
f 255 290 291
f 255 291 256
f 257 292 258
f 258 292 278
f 258 278 259
f 259 278 293
f 259 293 277
f 261 294 295
f 261 295 262
f 261 265 296
f 261 296 297
f 261 297 298
f 261 298 294
f 262 295 299
f 262 299 263
f 263 299 267
f 264 275 265
f 265 275 296
f 266 267 301
f 266 301 302
f 266 302 303
f 266 303 304
f 266 304 300
f 267 299 335
f 267 335 301
f 268 305 270
f 269 306 307
f 269 307 272
f 269 271 306
f 270 305 308
f 270 308 271
f 271 308 306
f 272 307 273
f 273 307 309
f 273 309 310
f 273 310 274
f 274 310 311
f 274 311 275
f 275 311 296
f 276 312 313
f 276 313 287
f 276 284 312
f 277 293 278
f 278 292 314
f 278 314 315
f 278 315 279
f 279 315 286
f 283 316 284
f 283 285 316
f 284 317 312
f 284 316 317
f 285 286 318
f 285 318 319
f 285 319 320
f 285 320 321
f 285 321 322
f 285 322 323
f 285 323 324
f 285 324 316
f 286 315 318
f 287 313 288
f 288 325 289
f 288 313 325
f 289 326 290
f 289 325 326
f 290 327 328
f 290 328 291
f 290 326 327
f 294 329 330
f 294 330 331
f 294 331 295
f 294 298 332
f 294 332 333
f 294 333 329
f 295 334 303
f 295 303 335
f 295 335 299
f 295 331 336
f 295 336 337
f 295 337 334
f 296 311 297
f 297 311 298
f 298 311 338
f 298 338 332
f 300 304 337
f 300 337 339
f 301 335 302
f 302 335 303
f 303 340 304
f 303 334 341
f 303 341 340
f 304 340 337
f 306 308 342
f 306 342 343
f 306 343 344
f 306 344 326
f 306 326 307
f 307 326 325
f 307 325 313
f 307 313 309
f 309 313 310
f 310 313 312
f 310 312 317
f 310 317 311
f 311 317 329
f 311 329 333
f 311 333 338
f 314 345 315
f 315 345 346
f 315 346 318
f 316 324 317
f 317 347 348
f 317 348 329
f 317 324 349
f 317 349 350
f 317 350 347
f 318 346 319
f 319 346 320
f 320 346 351
f 320 351 352
f 320 352 321
f 321 353 322
f 321 352 353
f 322 353 354
f 322 354 331
f 322 331 330
f 322 330 349
f 322 349 323
f 323 349 355
f 323 355 324
f 324 355 349
f 326 344 356
f 326 356 327
f 327 356 344
f 329 348 357
f 329 357 330
f 330 357 350
f 330 350 349
f 331 354 358
f 331 358 359
f 331 359 336
f 332 338 333
f 334 337 341
f 336 359 360
f 336 360 361
f 336 361 362
f 336 362 363
f 336 363 364
f 336 364 339
f 336 339 337
f 337 340 341
f 342 365 343
f 343 365 344
f 345 351 346
f 347 350 366
f 347 366 348
f 348 366 357
f 350 357 366
f 352 367 353
f 353 367 368
f 353 368 354
f 354 368 358
f 358 368 369
f 358 369 359
f 359 369 370
f 359 370 360
f 360 370 369
f 360 369 361
f 361 369 371
f 361 371 362
f 367 372 368
f 368 372 369
f 369 372 371
