v -0.483009 0.290274 0.253199
v -0.481539 0.290274 0.264445
v -0.482992 0.291915 0.253199
v -0.482906 0.279044 0.253199
v -0.479831 0.290274 0.277341
v -0.481385 0.303145 0.264445
v -0.482872 0.303145 0.253199
v -0.482889 0.277352 0.253199
v -0.481403 0.277352 0.264445
v -0.478122 0.290274 0.286046
v -0.478054 0.303145 0.28584
v -0.479677 0.303145 0.277341
v -0.479694 0.277352 0.277341
v -0.478054 0.277352 0.285866
v -0.481146 0.316067 0.264445
v -0.482376 0.328937 0.253199
v -0.482582 0.264482 0.253199
v -0.479865 0.212845 0.264445
v -0.475559 0.290274 0.292495
v -0.475491 0.303145 0.292288
v -0.477678 0.341808 0.284847
v -0.477421 0.3676 0.284176
v -0.477319 0.376882 0.283944
v -0.477233 0.385496 0.283583
v -0.479438 0.316067 0.277341
v -0.478464 0.225767 0.277341
v -0.477216 0.208436 0.283428
v -0.477319 0.21705 0.283944
v -0.477438 0.225767 0.284215
v -0.475491 0.277352 0.292314
v -0.480394 0.35473 0.264445
v -0.481625 0.3676 0.253199
v -0.481693 0.227408 0.253199
v -0.481027 0.199975 0.253199
v -0.477985 0.199975 0.276219
v -0.471185 0.290274 0.303147
v -0.471031 0.303145 0.303147
v -0.475354 0.316067 0.291966
v -0.475183 0.380932 0.289038
v -0.474175 0.393393 0.290251
v -0.473338 0.406315 0.290251
v -0.469869 0.4579 0.290251
v -0.468998 0.470822 0.290251
v -0.468092 0.483692 0.290251
v -0.4718 0.483692 0.277341
v -0.477028 0.393393 0.2821
v -0.477917 0.393393 0.275639
v -0.480873 0.393393 0.253199
v -0.481368 0.380522 0.253199
v -0.478019 0.380932 0.278502
v -0.478686 0.35473 0.277341
v -0.478002 0.212794 0.278412
v -0.477114 0.199975 0.282667
v -0.473816 0.187053 0.290251
v -0.474329 0.199975 0.290251
v -0.475166 0.25156 0.291489
v -0.471031 0.277352 0.303147
v -0.470382 0.25156 0.303147
v -0.480617 0.188745 0.253199
v -0.477746 0.187053 0.274427
v -0.44019 0.290274 0.37796
v -0.437285 0.291043 0.38495
v -0.466366 0.277352 0.314419
v -0.451911 0.277352 0.34933
v -0.437165 0.278327 0.38495
v -0.437439 0.303145 0.384228
v -0.436875 0.316067 0.38495
v -0.469955 0.35473 0.303147
v -0.469408 0.380522 0.303147
v -0.468878 0.393393 0.303147
v -0.468058 0.406315 0.303147
v -0.466247 0.445029 0.301213
v -0.465375 0.470822 0.299098
v -0.464914 0.483692 0.298014
v -0.464572 0.491948 0.297189
v -0.466554 0.496409 0.291128
v -0.466213 0.509485 0.288316
v -0.470638 0.496614 0.277341
v -0.473714 0.483692 0.264445
v -0.472671 0.470822 0.277341
v -0.472586 0.496614 0.264445
v -0.476618 0.406315 0.279211
v -0.477524 0.406315 0.27275
v -0.480104 0.406315 0.253199
v -0.476858 0.187053 0.280875
v -0.473013 0.174182 0.290251
v -0.468536 0.187053 0.303147
v -0.469049 0.199975 0.303147
v -0.46271 0.199975 0.318455
v -0.435166 0.199975 0.38495
v -0.435901 0.228536 0.38495
v -0.480548 0.187053 0.253199
v -0.477473 0.177515 0.27244
v -0.437507 0.290274 0.384421
v -0.437131 0.303145 0.38495
v -0.437285 0.290274 0.38495
v -0.437148 0.277352 0.38495
v -0.436824 0.264482 0.38495
v -0.437114 0.30417 0.38495
v -0.435798 0.3676 0.38495
v -0.465563 0.380522 0.312446
v -0.462624 0.393393 0.318262
v -0.438754 0.402469 0.374504
v -0.434158 0.406468 0.38495
v -0.431578 0.444721 0.38495
v -0.436448 0.470822 0.368933
v -0.453586 0.470822 0.32756
v -0.438789 0.480205 0.361698
v -0.462248 0.483692 0.304463
v -0.438481 0.48882 0.360937
v -0.427699 0.496614 0.38495
v -0.434876 0.496614 0.36763
v -0.464094 0.500562 0.296002
v -0.465495 0.522407 0.286536
v -0.464384 0.541943 0.283841
v -0.465136 0.54702 0.277277
v -0.46476 0.558352 0.272918
v -0.464299 0.566915 0.270403
v -0.4752 0.483692 0.253199
v -0.474568 0.470822 0.264445
v -0.471219 0.509485 0.264445
v -0.473902 0.498255 0.253199
v -0.474072 0.496614 0.253199
v -0.477849 0.418211 0.264651
v -0.477336 0.43944 0.258422
v -0.476755 0.4579 0.254011
v -0.47778 0.443286 0.253199
v -0.476567 0.173618 0.27698
v -0.471151 0.0967536 0.277341
v -0.468348 0.109675 0.290251
v -0.466452 0.14839 0.301703
v -0.467716 0.174182 0.303147
v -0.465051 0.109675 0.298311
v -0.438652 0.179566 0.374259
v -0.436191 0.187053 0.381223
v -0.434807 0.191001 0.38495
v -0.479779 0.17408 0.253199
v -0.478156 0.173618 0.26536
v -0.473081 0.0967536 0.264445
v -0.435525 0.380522 0.38495
v -0.442701 0.380522 0.36763
v -0.450835 0.393393 0.346725
v -0.434995 0.393393 0.38495
v -0.430314 0.463386 0.38495
v -0.429801 0.470822 0.38495
v -0.430741 0.483692 0.380527
v -0.428229 0.490922 0.38495
v -0.428896 0.483692 0.38495
v -0.426606 0.506203 0.38495
v -0.453722 0.522407 0.315012
v -0.459549 0.561121 0.290251
v -0.461685 0.54702 0.288987
v -0.463906 0.550506 0.28152
v -0.463462 0.562044 0.277277
v -0.466999 0.562505 0.253199
v -0.467187 0.561223 0.253199
v -0.465478 0.562044 0.265438
v -0.468468 0.535277 0.264445
v -0.461275 0.573991 0.277341
v -0.46341 0.574145 0.265438
v -0.46488 0.569941 0.261801
v -0.475918 0.47277 0.253199
v -0.476072 0.470411 0.253199
v -0.471971 0.083883 0.264445
v -0.469989 0.083883 0.277341
v -0.466623 0.083883 0.289296
v -0.466811 0.0956255 0.291502
v -0.46435 0.0906003 0.296647
v -0.462847 0.122546 0.305894
v -0.461992 0.161978 0.314857
v -0.466452 0.161978 0.304076
v -0.462043 0.174182 0.316856
v -0.462385 0.0956255 0.302283
v -0.438344 0.171003 0.373511
v -0.433218 0.16567 0.38495
v -0.433851 0.174593 0.38495
v -0.434175 0.17972 0.38495
v -0.434637 0.187053 0.38495
v -0.478925 0.16126 0.253199
v -0.477473 0.151928 0.259466
v -0.474568 0.0967536 0.253199
v -0.429374 0.476924 0.38495
v -0.424743 0.522407 0.38495
v -0.424795 0.522407 0.384834
v -0.422146 0.561121 0.380527
v -0.449229 0.561223 0.315141
v -0.451245 0.565582 0.309041
v -0.457242 0.573991 0.290251
v -0.465273 0.573222 0.253199
v -0.452014 0.58117 0.298001
v -0.453586 0.582965 0.290251
v -0.455602 0.585016 0.277341
v -0.463889 0.578504 0.254669
v -0.46447 0.576863 0.253199
v -0.473457 0.083883 0.253199
v -0.470587 0.0707047 0.2642
v -0.470553 0.0707047 0.264445
v -0.468536 0.0707047 0.277341
v -0.465871 0.0707047 0.287452
v -0.465888 0.0709611 0.287491
v -0.463974 0.083883 0.295745
v -0.463222 0.0707047 0.293913
v -0.460916 0.083883 0.303147
v -0.437729 0.083883 0.359131
v -0.427136 0.0848572 0.38495
v -0.428229 0.0967536 0.38495
v -0.458643 0.122546 0.316044
v -0.431322 0.139468 0.38495
v -0.420079 0.561121 0.38495
v -0.41919 0.566402 0.38495
v -0.417823 0.573991 0.38495
v -0.419823 0.573991 0.380527
v -0.439079 0.569838 0.336614
v -0.453039 0.573991 0.300491
v -0.438037 0.578401 0.334151
v -0.425905 0.58076 0.361762
v -0.439814 0.582042 0.325549
v -0.427324 0.582452 0.354734
v -0.415517 0.58358 0.380527
v -0.441762 0.584042 0.316044
v -0.444222 0.590093 0.290689
v -0.446871 0.591477 0.277341
v -0.456764 0.585939 0.264445
v -0.461992 0.581119 0.253199
v -0.472244 0.0726532 0.253199
v -0.472039 0.070756 0.253199
v -0.391339 0.0707047 0.253199
v -0.453842 0.0707047 0.31656
v -0.459429 0.0709611 0.303147
v -0.426572 0.0798321 0.38495
v -0.416576 0.578094 0.38495
v -0.426794 0.573991 0.363877
v -0.41456 0.582606 0.38495
v -0.429972 0.584965 0.341824
v -0.401882 0.5924 0.38495
v -0.405692 0.590708 0.3817
v -0.425837 0.593426 0.322982
v -0.437473 0.593169 0.295293
v -0.439387 0.593631 0.286691
v -0.447862 0.5924 0.264445
v -0.458541 0.585426 0.253199
v -0.448767 0.59281 0.253199
v -0.378951 0.0707047 0.253199
v -0.427922 0.0707047 0.379121
v -0.426162 0.0762939 0.38495
v -0.397866 0.593579 0.38495
v -0.400976 0.593682 0.378192
v -0.413398 0.593579 0.350362
v -0.42676 0.593682 0.316044
v -0.414611 0.593836 0.341824
v -0.429032 0.593938 0.303147
v -0.440412 0.593836 0.277341
v -0.44142 0.593938 0.264445
v -0.44793 0.592964 0.253199
v -0.314467 0.0707047 0.38495
v -0.37415 0.561121 0.253199
v -0.308469 0.561121 0.38495
v -0.425495 0.0707047 0.38495
v -0.425529 0.0709611 0.38495
v -0.393509 0.593938 0.38495
v -0.394637 0.594041 0.3817
v -0.406324 0.5944 0.341824
v -0.419225 0.594246 0.316044
v -0.432125 0.594451 0.277341
v -0.442308 0.593938 0.253199
v -0.37456 0.571992 0.253199
v -0.309392 0.573991 0.38495
v -0.380541 0.594502 0.38495
v -0.393441 0.594502 0.36763
v -0.419225 0.594502 0.303147
v -0.432125 0.594502 0.264445
v -0.433321 0.594451 0.253199
v -0.375261 0.575068 0.253199
v -0.312365 0.581529 0.38495
v -0.35474 0.594502 0.38495
v -0.432125 0.594502 0.253199
v -0.380455 0.583991 0.253199
v -0.38189 0.585734 0.253199
v -0.316773 0.584862 0.38495
v -0.35474 0.594502 0.380527
v -0.34172 0.594195 0.38495
v -0.406324 0.594502 0.253199
v -0.390792 0.592092 0.253199
v -0.327435 0.59158 0.38495
v -0.33415 0.593733 0.38495
v -0.397012 0.593938 0.253199
v -0.396209 0.593733 0.253199
v -0.333399 0.593631 0.38495
v -0.333723 0.593682 0.38495
f 1 2 3
f 1 3 7
f 1 7 16
f 1 16 32
f 1 32 49
f 1 49 48
f 1 48 84
f 1 84 127
f 1 127 163
f 1 163 162
f 1 162 119
f 1 119 123
f 1 123 122
f 1 122 156
f 1 156 155
f 1 155 189
f 1 189 194
f 1 194 224
f 1 224 241
f 1 241 242
f 1 242 254
f 1 254 265
f 1 265 272
f 1 272 276
f 1 276 282
f 1 282 286
f 1 286 287
f 1 287 283
f 1 283 278
f 1 278 277
f 1 277 273
f 1 273 266
f 1 266 256
f 1 256 243
f 1 243 227
f 1 227 226
f 1 226 225
f 1 225 195
f 1 195 181
f 1 181 179
f 1 179 137
f 1 137 92
f 1 92 59
f 1 59 34
f 1 34 33
f 1 33 17
f 1 17 8
f 1 8 4
f 1 4 2
f 2 5 12
f 2 12 6
f 2 6 7
f 2 7 3
f 2 4 8
f 2 8 9
f 2 9 13
f 2 13 5
f 5 10 11
f 5 11 12
f 5 13 14
f 5 14 10
f 6 12 25
f 6 25 15
f 6 15 7
f 7 15 16
f 8 17 18
f 8 18 9
f 9 18 13
f 10 19 20
f 10 20 11
f 10 14 30
f 10 30 19
f 11 20 21
f 11 21 12
f 12 21 22
f 12 22 23
f 12 23 24
f 12 24 25
f 13 18 26
f 13 26 27
f 13 27 28
f 13 28 29
f 13 29 14
f 14 29 30
f 15 25 51
f 15 51 31
f 15 31 32
f 15 32 16
f 17 33 18
f 18 33 34
f 18 34 35
f 18 35 26
f 19 36 20
f 19 30 36
f 20 37 38
f 20 38 22
f 20 22 21
f 20 36 37
f 22 39 23
f 22 38 39
f 23 39 24
f 24 39 40
f 24 40 41
f 24 41 42
f 24 42 43
f 24 43 44
f 24 44 45
f 24 45 46
f 24 46 47
f 24 47 48
f 24 48 49
f 24 49 50
f 24 50 25
f 25 50 51
f 26 35 52
f 26 52 53
f 26 53 27
f 27 53 54
f 27 54 55
f 27 55 28
f 28 55 29
f 29 55 56
f 29 56 30
f 30 57 36
f 30 56 58
f 30 58 57
f 31 51 50
f 31 50 32
f 32 50 49
f 34 59 35
f 35 53 52
f 35 59 60
f 35 60 53
f 36 61 62
f 36 62 37
f 36 57 63
f 36 63 64
f 36 64 65
f 36 65 61
f 37 62 66
f 37 66 67
f 37 67 68
f 37 68 38
f 38 68 39
f 39 68 69
f 39 69 40
f 40 69 70
f 40 70 71
f 40 71 41
f 41 71 72
f 41 72 42
f 42 72 73
f 42 73 43
f 43 73 74
f 43 74 44
f 44 74 75
f 44 75 76
f 44 76 77
f 44 77 78
f 44 78 45
f 45 79 80
f 45 80 46
f 45 78 81
f 45 81 79
f 46 82 83
f 46 83 47
f 46 80 82
f 47 83 84
f 47 84 48
f 53 60 85
f 53 85 86
f 53 86 54
f 54 86 87
f 54 87 88
f 54 88 55
f 55 88 56
f 56 88 58
f 57 58 63
f 58 88 89
f 58 89 90
f 58 90 91
f 58 91 64
f 58 64 63
f 59 92 60
f 60 92 93
f 60 93 85
f 61 94 62
f 61 65 94
f 62 95 66
f 62 94 96
f 62 96 65
f 62 65 97
f 62 97 98
f 62 98 91
f 62 91 90
f 62 90 136
f 62 136 178
f 62 178 177
f 62 177 176
f 62 176 175
f 62 175 208
f 62 208 206
f 62 206 205
f 62 205 230
f 62 230 245
f 62 245 259
f 62 259 258
f 62 258 255
f 62 255 257
f 62 257 267
f 62 267 274
f 62 274 279
f 62 279 284
f 62 284 288
f 62 288 289
f 62 289 285
f 62 285 281
f 62 281 275
f 62 275 268
f 62 268 260
f 62 260 246
f 62 246 235
f 62 235 233
f 62 233 231
f 62 231 211
f 62 211 210
f 62 210 209
f 62 209 183
f 62 183 149
f 62 149 111
f 62 111 147
f 62 147 148
f 62 148 182
f 62 182 145
f 62 145 144
f 62 144 105
f 62 105 104
f 62 104 143
f 62 143 140
f 62 140 100
f 62 100 67
f 62 67 99
f 62 99 95
f 64 97 65
f 64 91 98
f 64 98 97
f 65 96 94
f 66 95 99
f 66 99 67
f 67 100 68
f 68 100 101
f 68 101 69
f 69 101 70
f 70 102 71
f 70 101 102
f 71 102 103
f 71 103 104
f 71 104 105
f 71 105 72
f 72 105 106
f 72 106 107
f 72 107 73
f 73 107 108
f 73 108 109
f 73 109 74
f 74 109 110
f 74 110 75
f 75 110 111
f 75 111 112
f 75 112 113
f 75 113 76
f 76 113 114
f 76 114 77
f 77 114 78
f 78 114 115
f 78 115 116
f 78 116 117
f 78 117 118
f 78 118 81
f 79 119 120
f 79 120 80
f 79 81 123
f 79 123 119
f 80 120 82
f 81 118 121
f 81 121 122
f 81 122 123
f 82 120 83
f 83 124 84
f 83 120 124
f 84 124 125
f 84 125 126
f 84 126 127
f 85 93 128
f 85 128 129
f 85 129 130
f 85 130 86
f 86 131 132
f 86 132 87
f 86 130 133
f 86 133 131
f 87 134 135
f 87 135 136
f 87 136 90
f 87 90 89
f 87 89 88
f 87 132 134
f 92 137 93
f 93 137 138
f 93 138 139
f 93 139 128
f 100 140 141
f 100 141 101
f 101 141 142
f 101 142 102
f 102 142 103
f 103 142 143
f 103 143 104
f 105 144 106
f 106 144 145
f 106 145 146
f 106 146 108
f 106 108 107
f 108 146 109
f 109 146 110
f 110 147 111
f 110 146 148
f 110 148 147
f 111 149 112
f 112 149 113
f 113 149 150
f 113 150 151
f 113 151 152
f 113 152 115
f 113 115 114
f 115 152 151
f 115 151 153
f 115 153 117
f 115 117 116
f 117 153 154
f 117 154 118
f 118 155 156
f 118 156 157
f 118 157 158
f 118 158 121
f 118 154 159
f 118 159 160
f 118 160 161
f 118 161 155
f 119 162 120
f 120 162 163
f 120 163 126
f 120 126 125
f 120 125 124
f 121 158 156
f 121 156 122
f 126 163 127
f 128 139 129
f 129 139 164
f 129 164 165
f 129 165 166
f 129 166 130
f 130 166 167
f 130 167 168
f 130 168 133
f 131 169 170
f 131 170 171
f 131 171 132
f 131 133 169
f 132 171 170
f 132 170 172
f 132 172 134
f 133 168 173
f 133 173 169
f 134 172 170
f 134 170 174
f 134 174 175
f 134 175 176
f 134 176 177
f 134 177 178
f 134 178 135
f 135 178 136
f 137 179 138
f 138 179 180
f 138 180 139
f 139 181 195
f 139 195 164
f 139 180 181
f 140 143 142
f 140 142 141
f 145 182 146
f 146 182 148
f 149 183 184
f 149 184 185
f 149 185 186
f 149 186 150
f 150 186 151
f 151 186 187
f 151 187 188
f 151 188 154
f 151 154 153
f 154 188 159
f 155 161 189
f 156 158 157
f 159 188 190
f 159 190 191
f 159 191 192
f 159 192 193
f 159 193 160
f 160 193 194
f 160 194 161
f 161 194 189
f 164 195 196
f 164 196 197
f 164 197 165
f 165 197 198
f 165 198 199
f 165 199 200
f 165 200 166
f 166 201 168
f 166 168 167
f 166 200 202
f 166 202 201
f 168 201 203
f 168 203 204
f 168 204 205
f 168 205 206
f 168 206 173
f 169 207 170
f 169 173 207
f 170 207 206
f 170 206 208
f 170 208 174
f 173 206 207
f 174 208 175
f 179 181 180
f 183 209 185
f 183 185 184
f 185 209 210
f 185 210 211
f 185 211 212
f 185 212 213
f 185 213 187
f 185 187 186
f 187 213 188
f 188 213 214
f 188 214 215
f 188 215 190
f 190 215 216
f 190 216 217
f 190 217 191
f 191 217 218
f 191 218 219
f 191 219 220
f 191 220 221
f 191 221 192
f 192 221 222
f 192 222 223
f 192 223 193
f 193 223 224
f 193 224 194
f 195 225 196
f 196 225 226
f 196 226 227
f 196 227 243
f 196 243 255
f 196 255 258
f 196 258 244
f 196 244 228
f 196 228 202
f 196 202 199
f 196 199 198
f 196 198 197
f 199 202 200
f 201 202 203
f 202 228 229
f 202 229 203
f 203 229 230
f 203 230 204
f 204 230 205
f 211 231 212
f 212 231 216
f 212 216 232
f 212 232 213
f 213 232 214
f 214 232 215
f 215 232 216
f 216 231 233
f 216 233 218
f 216 218 217
f 218 233 219
f 219 234 220
f 219 233 235
f 219 235 236
f 219 236 234
f 220 234 221
f 221 234 236
f 221 236 235
f 221 235 237
f 221 237 238
f 221 238 222
f 222 238 239
f 222 239 240
f 222 240 223
f 223 241 224
f 223 240 242
f 223 242 241
f 228 244 229
f 229 244 245
f 229 245 230
f 235 246 247
f 235 247 237
f 237 247 248
f 237 248 239
f 237 239 238
f 239 248 247
f 239 247 249
f 239 249 250
f 239 250 251
f 239 251 252
f 239 252 242
f 239 242 240
f 242 252 253
f 242 253 254
f 243 256 257
f 243 257 255
f 244 258 259
f 244 259 245
f 246 260 261
f 246 261 247
f 247 250 249
f 247 261 250
f 250 261 262
f 250 262 263
f 250 263 251
f 251 263 264
f 251 264 252
f 252 264 253
f 253 265 254
f 253 264 265
f 256 266 257
f 257 266 267
f 260 268 261
f 261 268 269
f 261 269 262
f 262 264 263
f 262 269 264
f 264 269 270
f 264 270 271
f 264 271 265
f 265 271 272
f 266 273 267
f 267 273 274
f 268 275 280
f 268 280 282
f 268 282 276
f 268 276 271
f 268 271 270
f 268 270 269
f 271 276 272
f 273 277 274
f 274 277 278
f 274 278 279
f 275 281 280
f 278 283 279
f 279 283 284
f 280 281 282
f 281 285 286
f 281 286 282
f 283 287 288
f 283 288 284
f 285 289 286
f 286 289 288
f 286 288 287
