v 0.00646001 0.0862129 0.641727
v 7.94529e-05 0.0862129 0.641727
v 0.00646001 0.0838169 0.64153
v 0.00882821 0.0862129 0.641443
v 7.94529e-05 0.0862129 0.549062
v 7.94529e-05 0.0838169 0.64153
v 0.00646001 0.0709051 0.640132
v 0.0193569 0.0838169 0.63987
v 0.00264375 -0.00288284 0.632399
v 0.0217251 0.0862129 0.639761
v 0.154178 0.0862129 0.514897
v 0.154178 -0.367075 0.418584
v 7.94529e-05 -0.367075 0.460875
v 7.94529e-05 -0.00288284 0.632399
v 0.00646001 0.0580377 0.638712
v 0.0193569 0.0709051 0.638472
v 0.0451506 0.0709051 0.635086
v 0.0761031 0.0789805 0.631897
v 0.0580626 0.0838169 0.63478
v 0.0810055 0.0862129 0.632006
v 0.0322538 0.0862129 0.638385
v 0.000954328 -0.0910912 0.619292
v 0.00646001 -0.0193886 0.629734
v 0.00674661 -0.00687618 0.631394
v 0.0193569 -0.00647684 0.629821
v 0.0112417 0.00186479 0.631853
v 0.00646001 0.0193467 0.634409
v 0.154178 0.0862129 0.614334
v 0.154178 -0.367075 0.52027
v 7.94529e-05 -0.367075 0.554064
v 7.94529e-05 -0.0910912 0.619292
v 0.0193569 0.0451259 0.63561
v 0.0149373 0.0104727 0.632334
v 0.0967381 0.0709051 0.628292
v 0.0675052 0.0738336 0.632465
v 0.0709595 0.00643494 0.624513
v 0.109635 0.0838169 0.627986
v 0.109635 0.0709051 0.626588
v 0.109635 0.0862129 0.628183
v 0.00324711 -0.156804 0.606666
v 0.00646001 -0.12255 0.613132
v 0.00646001 -0.109682 0.615557
v 0.00573598 -0.0959276 0.617916
v 0.00955225 -0.0875859 0.618746
v 0.0193569 -0.0193886 0.628074
v 0.0451506 -0.00647684 0.626435
v 0.0917151 -0.0141085 0.619358
v 0.100313 -0.00971588 0.61879
v 0.104144 -0.00110802 0.619292
v 0.139894 0.0862129 0.620297
v 0.154178 0.0837725 0.614115
v 0.134147 -0.367075 0.528571
v 0.154178 -0.361795 0.521931
v 0.00646001 -0.367075 0.554064
v 7.94529e-05 -0.322882 0.567695
v 7.94529e-05 -0.156804 0.606666
v 0.109635 0.0322141 0.622285
v 0.112742 0.0039502 0.618724
v 0.116257 0.0125581 0.619205
v 0.122532 0.0838169 0.625846
v 0.122532 0.0862129 0.626042
v 0.00188954 -0.220253 0.593603
v 0.00646001 -0.199932 0.597622
v 0.00646001 -0.18702 0.600222
v 0.00646001 -0.135462 0.610554
v 0.0193569 -0.12255 0.611472
v 0.0193569 -0.109682 0.613897
v 0.0193569 -0.0967706 0.616037
v 0.0709595 -0.0193886 0.62128
v 0.0325253 -0.0585233 0.620253
v 0.0963007 -0.0188118 0.618025
v 0.109635 -0.0193886 0.616168
v 0.108911 -0.00581128 0.618113
v 0.136213 0.0862129 0.621761
v 0.136394 0.0837725 0.621477
v 0.141327 0.0794242 0.618943
v 0.154178 0.0704171 0.612564
v 0.131175 -0.367075 0.529795
v 0.154178 -0.340408 0.528637
v 0.143785 -0.350791 0.529685
v 0.123271 -0.329493 0.544846
v 0.118716 -0.341828 0.542858
v 0.00869246 -0.367075 0.55378
v 0.00956733 -0.321019 0.567149
v 0.000969412 -0.322882 0.567695
v 7.94529e-05 -0.272122 0.58078
v 7.94529e-05 -0.220253 0.593603
v 0.122532 -0.00647684 0.615426
v 0.12134 0.00749983 0.61737
v 0.129018 0.0386035 0.619183
v 0.122532 0.0709051 0.624382
v 0.133679 0.0709051 0.621105
v 0.1249 0.0862129 0.625321
v 0.00629409 -0.225001 0.591877
v 0.0104875 -0.217991 0.593057
v 0.00629409 -0.213332 0.594695
v 0.00244765 -0.272122 0.58078
v 0.00646001 -0.290226 0.575821
v 0.0193569 -0.209116 0.594018
v 0.0269593 -0.207031 0.593516
v 0.0193569 -0.199932 0.595962
v 0.0193569 -0.174108 0.601139
v 0.00710863 -0.149216 0.607715
v 0.045935 -0.13555 0.605377
v 0.0580626 -0.119621 0.606972
v 0.0658912 -0.117048 0.606448
v 0.0744891 -0.113942 0.60588
v 0.0580626 -0.109682 0.608807
v 0.0802211 -0.105334 0.606644
v 0.088819 -0.101962 0.606076
v 0.0709595 -0.0967706 0.609244
v 0.0967381 -0.0580796 0.611865
v 0.109635 -0.0451678 0.612171
v 0.122532 -0.0193886 0.613591
v 0.116121 -0.0775138 0.606273
v 0.14012 0.0709051 0.61844
v 0.154178 0.0396684 0.608894
v 0.109152 -0.367075 0.53886
v 0.154178 -0.31636 0.536152
v 0.143182 -0.311257 0.542312
v 0.122532 -0.316005 0.549368
v 0.115488 -0.308861 0.554457
v 0.0185574 -0.367075 0.552513
v 0.0193569 -0.312366 0.568394
v 0.00573598 -0.316448 0.568962
v 0.0193569 -0.341828 0.559787
v 0.00646001 -0.303093 0.572545
v 0.135444 -0.00647684 0.611101
v 0.135444 0.00643494 0.612673
v 0.154178 0.00643494 0.604919
v 0.0110456 -0.269904 0.580234
v 0.0322538 -0.225711 0.588317
v 0.0193569 -0.21555 0.592489
v 0.0193569 -0.251535 0.583664
v 0.0193569 -0.303093 0.570885
v 0.0451506 -0.299765 0.568372
v 0.0322538 -0.290226 0.572457
v 0.0193569 -0.277314 0.577329
v 0.0838413 -0.212799 0.584647
v 0.0967381 -0.212799 0.582943
v 0.0967381 -0.199932 0.585783
v 0.0355572 -0.204324 0.592948
v 0.0459048 -0.199976 0.592467
v 0.0421037 -0.195717 0.593821
v 0.109635 -0.12255 0.599567
v 0.0838413 -0.135462 0.600397
v 0.109635 -0.135462 0.596989
v 0.109635 -0.109682 0.602013
v 0.0842485 -0.097303 0.607409
v 0.109635 -0.0967706 0.604132
v 0.109635 -0.0802648 0.60671
v 0.129169 -0.0520896 0.606338
v 0.133166 -0.032256 0.607999
v 0.117449 -0.144336 0.593865
v 0.122532 -0.109682 0.598911
v 0.122532 -0.0967706 0.601118
v 0.126982 -0.0606975 0.605618
v 0.108881 -0.367075 0.538969
v 0.154178 -0.309749 0.538118
v 0.154178 -0.303093 0.540084
v 0.152444 -0.303093 0.540804
v 0.122698 -0.30398 0.552885
v 0.11057 -0.30398 0.557341
v 0.10689 -0.313564 0.555834
v 0.10431 -0.362594 0.542202
v 0.118489 -0.300253 0.555659
v 0.116332 -0.258368 0.567673
v 0.0580626 -0.367075 0.547314
v 0.0451506 -0.316005 0.563938
v 0.0580626 -0.316005 0.562234
v 0.027819 -0.310458 0.567826
v 0.136334 -0.0196992 0.608785
v 0.142971 -0.0156171 0.60671
v 0.150935 -0.00647684 0.604678
v 0.154178 -0.00243914 0.603826
v 0.0451506 -0.238623 0.583445
v 0.0709595 -0.240974 0.579469
v 0.0830267 -0.225888 0.581588
v 0.10336 -0.21941 0.580496
v 0.036417 -0.308417 0.567258
v 0.0321783 -0.303714 0.56905
v 0.0967381 -0.303093 0.560705
v 0.0621051 -0.295373 0.567258
v 0.0709595 -0.277314 0.570535
v 0.108443 -0.212267 0.581304
v 0.109635 -0.199932 0.583817
v 0.113316 -0.152944 0.592969
v 0.13297 -0.109682 0.595023
v 0.136334 -0.0970812 0.595875
v 0.1284 -0.127963 0.593144
v 0.130662 -0.119355 0.594062
v 0.123482 -0.123215 0.595918
v 0.119892 -0.135462 0.594761
v 0.11683 -0.207563 0.580758
v 0.100434 -0.367075 0.541525
v 0.154178 -0.296881 0.541831
v 0.109635 -0.290226 0.561229
v 0.102515 -0.322172 0.554567
v 0.103586 -0.271279 0.567673
v 0.0967381 -0.367075 0.542181
v 0.127087 -0.293686 0.553889
v 0.122698 -0.289737 0.556751
v 0.154178 -0.271501 0.548537
v 0.12496 -0.251535 0.565904
v 0.122532 -0.225711 0.573702
v 0.154178 -0.295994 0.542071
v 0.0852139 -0.367075 0.543732
v 0.0976281 -0.328606 0.553343
v 0.0709595 -0.316005 0.56053
v 0.0976281 -0.317114 0.556685
v 0.154178 -0.0195217 0.601423
v 0.154178 -0.0657557 0.593712
v 0.154178 -0.00647684 0.603324
v 0.0967381 -0.238623 0.576652
v 0.0967381 -0.279665 0.566559
v 0.0967381 -0.290226 0.56396
v 0.0451506 -0.306199 0.56669
v 0.111958 -0.216171 0.579666
v 0.154178 -0.109727 0.586219
v 0.141221 -0.101563 0.593079
v 0.154178 -0.0969481 0.588491
v 0.154178 -0.0907362 0.58954
v 0.118866 -0.199932 0.581588
v 0.125322 -0.199932 0.578945
v 0.135157 -0.123215 0.591375
v 0.148341 -0.12255 0.586045
v 0.154178 -0.12255 0.58362
v 0.154178 -0.117137 0.584734
v 0.129893 -0.182317 0.580846
v 0.121687 -0.212267 0.577547
v 0.136651 -0.213997 0.570928
v 0.144404 -0.210448 0.568613
v 0.153002 -0.202949 0.566821
v 0.0945057 -0.367075 0.542486
v 0.154178 -0.238623 0.55721
v 0.154178 -0.225844 0.560574
v 0.141749 -0.219055 0.567499
v 0.154178 -0.202328 0.566472
v 0.154178 -0.191235 0.568875
v 0.153786 -0.139987 0.580059
v 0.154178 -0.132489 0.581501
v 0.154178 -0.219898 0.562125
v 0.148552 -0.213997 0.565991
v 0.154178 -0.213465 0.563785
v 0.154178 -0.139721 0.57995
f 1 2 6
f 1 6 3
f 1 3 4
f 1 4 10
f 1 10 21
f 1 21 20
f 1 20 39
f 1 39 61
f 1 61 93
f 1 93 74
f 1 74 50
f 1 50 28
f 1 28 11
f 1 11 5
f 1 5 2
f 2 5 13
f 2 13 30
f 2 30 55
f 2 55 86
f 2 86 87
f 2 87 56
f 2 56 31
f 2 31 14
f 2 14 6
f 3 7 16
f 3 16 8
f 3 8 4
f 3 6 14
f 3 14 9
f 3 9 7
f 4 8 10
f 5 11 12
f 5 12 13
f 7 15 16
f 7 9 15
f 8 16 17
f 8 17 18
f 8 18 19
f 8 19 20
f 8 20 21
f 8 21 10
f 9 14 31
f 9 31 22
f 9 22 23
f 9 23 24
f 9 24 25
f 9 25 26
f 9 26 27
f 9 27 15
f 11 28 51
f 11 51 77
f 11 77 117
f 11 117 130
f 11 130 175
f 11 175 213
f 11 213 211
f 11 211 212
f 11 212 222
f 11 222 221
f 11 221 219
f 11 219 228
f 11 228 227
f 11 227 241
f 11 241 245
f 11 245 239
f 11 239 238
f 11 238 244
f 11 244 242
f 11 242 236
f 11 236 235
f 11 235 203
f 11 203 206
f 11 206 196
f 11 196 160
f 11 160 159
f 11 159 119
f 11 119 79
f 11 79 53
f 11 53 29
f 11 29 12
f 12 29 52
f 12 52 78
f 12 78 118
f 12 118 158
f 12 158 195
f 12 195 200
f 12 200 234
f 12 234 207
f 12 207 168
f 12 168 123
f 12 123 83
f 12 83 54
f 12 54 30
f 12 30 13
f 15 32 16
f 15 27 26
f 15 26 33
f 15 33 32
f 16 32 17
f 17 34 35
f 17 35 18
f 17 32 36
f 17 36 34
f 18 37 19
f 18 35 34
f 18 34 38
f 18 38 37
f 19 37 20
f 20 37 39
f 22 31 56
f 22 56 40
f 22 40 41
f 22 41 42
f 22 42 43
f 22 43 44
f 22 44 23
f 23 45 24
f 23 44 45
f 24 45 25
f 25 46 26
f 25 45 47
f 25 47 48
f 25 48 46
f 26 46 49
f 26 49 36
f 26 36 33
f 28 50 51
f 29 53 52
f 30 54 85
f 30 85 55
f 32 33 36
f 34 36 57
f 34 57 38
f 36 49 58
f 36 58 57
f 37 38 59
f 37 59 60
f 37 60 61
f 37 61 39
f 38 57 58
f 38 58 59
f 40 56 87
f 40 87 62
f 40 62 63
f 40 63 64
f 40 64 65
f 40 65 41
f 41 65 66
f 41 66 67
f 41 67 42
f 42 67 68
f 42 68 43
f 43 68 44
f 44 68 45
f 45 69 47
f 45 68 70
f 45 70 69
f 46 48 49
f 47 69 71
f 47 71 72
f 47 72 48
f 48 72 73
f 48 73 49
f 49 73 58
f 50 74 75
f 50 75 51
f 51 75 76
f 51 76 77
f 52 53 79
f 52 79 80
f 52 80 81
f 52 81 82
f 52 82 78
f 54 83 84
f 54 84 85
f 55 85 97
f 55 97 86
f 58 73 72
f 58 72 88
f 58 88 59
f 59 88 89
f 59 89 90
f 59 90 91
f 59 91 60
f 60 91 90
f 60 90 92
f 60 92 75
f 60 75 74
f 60 74 93
f 60 93 61
f 62 94 95
f 62 95 96
f 62 96 63
f 62 87 86
f 62 86 97
f 62 97 98
f 62 98 94
f 63 99 100
f 63 100 101
f 63 101 64
f 63 96 99
f 64 101 102
f 64 102 103
f 64 103 65
f 65 103 66
f 66 104 105
f 66 105 106
f 66 106 67
f 66 103 102
f 66 102 104
f 67 106 107
f 67 107 108
f 67 108 109
f 67 109 68
f 68 109 110
f 68 110 111
f 68 111 70
f 69 70 111
f 69 111 112
f 69 112 113
f 69 113 71
f 71 113 72
f 72 114 88
f 72 113 115
f 72 115 114
f 75 92 76
f 76 92 116
f 76 116 77
f 77 116 90
f 77 90 117
f 78 82 118
f 79 119 120
f 79 120 81
f 79 81 80
f 81 120 121
f 81 121 82
f 82 121 122
f 82 122 118
f 83 123 84
f 84 124 125
f 84 125 85
f 84 123 126
f 84 126 124
f 85 125 127
f 85 127 97
f 88 114 128
f 88 128 90
f 88 90 89
f 90 128 129
f 90 129 130
f 90 130 117
f 90 116 92
f 94 131 95
f 94 98 131
f 95 132 133
f 95 133 99
f 95 99 96
f 95 131 134
f 95 134 132
f 97 127 98
f 98 127 135
f 98 135 136
f 98 136 137
f 98 137 138
f 98 138 131
f 99 133 100
f 100 133 139
f 100 139 140
f 100 140 141
f 100 141 142
f 100 142 101
f 101 142 143
f 101 143 144
f 101 144 102
f 102 144 104
f 104 144 141
f 104 141 105
f 105 145 106
f 105 141 146
f 105 146 147
f 105 147 145
f 106 145 148
f 106 148 107
f 107 148 108
f 108 148 109
f 109 148 110
f 110 149 111
f 110 148 150
f 110 150 149
f 111 149 112
f 112 149 151
f 112 151 113
f 113 151 115
f 114 115 152
f 114 152 153
f 114 153 128
f 115 151 150
f 115 150 148
f 115 148 154
f 115 154 155
f 115 155 156
f 115 156 157
f 115 157 152
f 118 122 158
f 119 159 120
f 120 159 160
f 120 160 161
f 120 161 162
f 120 162 122
f 120 122 121
f 122 163 164
f 122 164 165
f 122 165 158
f 122 162 166
f 122 166 167
f 122 167 163
f 123 168 126
f 124 169 170
f 124 170 171
f 124 171 127
f 124 127 125
f 124 126 169
f 126 168 169
f 127 171 135
f 128 153 172
f 128 172 173
f 128 173 174
f 128 174 130
f 128 130 129
f 130 174 175
f 131 138 134
f 132 176 177
f 132 177 178
f 132 178 179
f 132 179 133
f 132 134 138
f 132 138 137
f 132 137 176
f 133 179 139
f 135 171 180
f 135 180 181
f 135 181 136
f 136 182 183
f 136 183 137
f 136 181 182
f 137 184 177
f 137 177 176
f 137 183 184
f 139 179 140
f 140 179 141
f 141 144 143
f 141 143 142
f 141 179 185
f 141 185 186
f 141 186 187
f 141 187 147
f 141 147 146
f 145 147 187
f 145 187 154
f 145 154 148
f 149 150 151
f 152 157 156
f 152 156 155
f 152 155 188
f 152 188 189
f 152 189 153
f 153 189 172
f 154 190 191
f 154 191 192
f 154 192 193
f 154 193 155
f 154 187 194
f 154 194 190
f 155 193 192
f 155 192 191
f 155 191 188
f 158 165 195
f 160 196 161
f 161 196 162
f 162 196 166
f 163 167 197
f 163 197 164
f 164 198 165
f 164 197 199
f 164 199 198
f 165 200 195
f 165 198 200
f 166 196 201
f 166 201 202
f 166 202 167
f 167 203 204
f 167 204 205
f 167 205 194
f 167 194 197
f 167 202 206
f 167 206 203
f 168 207 208
f 168 208 169
f 169 208 170
f 170 209 171
f 170 208 210
f 170 210 209
f 171 209 210
f 171 210 180
f 172 211 173
f 172 189 212
f 172 212 211
f 173 211 213
f 173 213 174
f 174 213 175
f 177 214 178
f 177 184 214
f 178 214 179
f 179 199 185
f 179 214 215
f 179 215 216
f 179 216 199
f 180 217 181
f 180 210 182
f 180 182 217
f 181 217 182
f 182 216 183
f 182 210 198
f 182 198 199
f 182 199 216
f 183 216 215
f 183 215 184
f 184 215 214
f 185 194 186
f 185 199 218
f 185 218 194
f 186 194 187
f 188 191 219
f 188 219 220
f 188 220 189
f 189 220 221
f 189 221 222
f 189 222 212
f 190 194 223
f 190 223 224
f 190 224 191
f 191 225 226
f 191 226 227
f 191 227 228
f 191 228 219
f 191 224 229
f 191 229 225
f 194 218 199
f 194 199 197
f 194 205 230
f 194 230 231
f 194 231 232
f 194 232 233
f 194 233 224
f 194 224 223
f 196 206 201
f 198 210 208
f 198 208 234
f 198 234 200
f 201 206 202
f 203 235 204
f 204 235 236
f 204 236 205
f 205 236 237
f 205 237 231
f 205 231 230
f 207 234 208
f 219 221 220
f 224 233 238
f 224 238 239
f 224 239 229
f 225 240 241
f 225 241 226
f 225 229 240
f 226 241 227
f 229 239 240
f 231 237 242
f 231 242 243
f 231 243 232
f 232 243 244
f 232 244 233
f 233 244 238
f 236 242 237
f 239 245 240
f 240 245 241
f 242 244 243
