v -0.419224 0.594554 0.105276
v -0.432117 0.594554 0.105276
v -0.414849 0.594459 0.105276
v -0.329637 0.594491 -0.096063
v -0.342529 0.594554 -0.096063
v -0.432117 0.594554 0.0451465
v -0.440653 0.594459 0.105276
v -0.406331 0.594176 0.105276
v -0.406331 0.594302 0.0967427
v -0.328937 0.594459 -0.096063
v -0.355422 0.594554 -0.096063
v -0.393419 0.594554 -0.0451369
v -0.406331 0.594522 -0.0193388
v -0.419224 0.594491 0.00643955
v -0.432117 0.594396 0.0322376
v -0.441256 0.593956 0.0451465
v -0.445029 0.594333 0.105276
v -0.403842 0.593987 0.105276
v -0.317852 0.593925 -0.096063
v -0.367653 0.594554 -0.0838439
v -0.368334 0.594428 -0.096063
v -0.380546 0.594554 -0.070935
v -0.393419 0.594459 -0.0580458
v -0.406331 0.594365 -0.0322477
v -0.440167 0.59383 0.0322376
v -0.451777 0.593516 0.0867309
v -0.452496 0.593767 0.105276
v -0.450085 0.593956 0.105276
v -0.399311 0.59361 0.105276
v -0.317269 0.593862 -0.096063
v -0.374771 0.59405 -0.096063
v -0.380546 0.594271 -0.0838439
v -0.393867 0.594019 -0.0711912
v -0.402112 0.593862 -0.0580458
v -0.414226 0.593767 -0.0322477
v -0.426711 0.593704 -0.00386786
v -0.439137 0.593579 0.023901
v -0.447693 0.592289 0.0451465
v -0.451174 0.593327 0.0781184
v -0.458952 0.590244 0.105276
v -0.392855 0.589584 0.105276
v -0.303074 0.587696 -0.096063
v -0.304454 0.588546 -0.096063
v -0.311591 0.592729 -0.096063
v -0.379477 0.593767 -0.096063
v -0.389258 0.593704 -0.0838439
v -0.400712 0.593641 -0.0670525
v -0.413176 0.593516 -0.0399339
v -0.425291 0.593327 -0.0124607
v -0.436803 0.593044 0.0153083
v -0.446623 0.591157 0.0322376
v -0.45656 0.585841 0.0451465
v -0.458622 0.589678 0.0967427
v -0.464339 0.585998 0.105276
v -0.390094 0.587413 0.105276
v -0.294926 0.581877 -0.096063
v -0.384805 0.592478 -0.096063
v -0.387158 0.593421 -0.0905053
v -0.398456 0.593138 -0.075665
v -0.410629 0.592887 -0.0485464
v -0.408568 0.591754 -0.0580458
v -0.420663 0.590936 -0.0322477
v -0.431456 0.59059 -0.00747447
v -0.444076 0.589489 0.0194864
v -0.455218 0.584708 0.0322376
v -0.464377 0.580462 0.0644606
v -0.464786 0.581091 0.0709446
v -0.465603 0.582223 0.0838338
v -0.466439 0.58323 0.0967427
v -0.466983 0.583796 0.105276
v -0.384921 0.583136 0.105276
v -0.291562 0.574737 -0.096063
v -0.395695 0.591597 -0.0838439
v -0.392933 0.587288 -0.096063
v -0.406293 0.584677 -0.0831738
v -0.405534 0.590118 -0.0711912
v -0.41761 0.585306 -0.0580458
v -0.429375 0.584488 -0.0322477
v -0.445301 0.584708 0.00750379
v -0.453002 0.582318 0.0193484
v -0.460508 0.574014 0.0322376
v -0.463755 0.577977 0.0558481
v -0.464747 0.569358 0.0487137
v -0.465175 0.573794 0.059297
v -0.471086 0.574014 0.105276
v -0.381402 0.574014 0.105276
v -0.291153 0.569736 -0.096063
v -0.400809 0.580368 -0.096063
v -0.401956 0.582632 -0.0930279
v -0.413351 0.581248 -0.0784241
v -0.414946 0.583041 -0.070935
v -0.441179 0.583482 -0.00644964
v -0.439448 0.581626 -0.0150227
v -0.451621 0.580682 0.0125097
v -0.456094 0.574014 0.0193484
v -0.458388 0.561117 0.0193484
v -0.462939 0.561337 0.032888
v -0.464183 0.565804 0.0401209
v -0.463172 0.573794 0.044713
v -0.473264 0.561117 0.105276
v -0.471825 0.569641 0.105276
v -0.380604 0.561117 0.105276
v -0.290453 0.561117 -0.096063
v -0.403842 0.572881 -0.096063
v -0.410376 0.574014 -0.0867213
v -0.425505 0.579864 -0.0512268
v -0.414401 0.574014 -0.080257
v -0.41868 0.574014 -0.070935
v -0.452457 0.574014 0.0104994
v -0.438689 0.568132 -0.026079
v -0.424669 0.561117 -0.0620466
v -0.455996 0.535324 0.00643955
v -0.459866 0.548221 0.0193484
v -0.464494 0.529946 0.0254974
v -0.464008 0.538533 0.0271726
v -0.463444 0.548221 0.029242
v -0.46465 0.557185 0.0375983
v -0.468422 0.548221 0.0580357
v -0.470445 0.561117 0.0838338
v -0.472214 0.496604 0.0451465
v -0.470853 0.5095 0.0451465
v -0.473731 0.556745 0.105276
v -0.3962 0.273212 0.105276
v -0.309977 0.273212 -0.096063
v -0.406234 0.561117 -0.096063
v -0.411718 0.561117 -0.0886921
v -0.426536 0.571277 -0.0536706
v -0.415549 0.561117 -0.0822475
v -0.420974 0.561117 -0.070935
v -0.426147 0.535324 -0.0656138
v -0.457474 0.522428 0.00643955
v -0.462997 0.5095 0.0162148
v -0.465661 0.5095 0.0226594
v -0.4699 0.496604 0.0322376
v -0.472875 0.522428 0.0709446
v -0.480148 0.496604 0.105276
v -0.471067 0.483707 0.0322376
v -0.473342 0.483707 0.0451465
v -0.477231 0.489621 0.0776848
v -0.473925 0.496604 0.0580357
v -0.48886 0.273212 0.105276
v -0.425563 0.273212 -0.096063
v -0.408043 0.547655 -0.096063
v -0.412924 0.542936 -0.0904856
v -0.41236 0.551555 -0.0896578
v -0.420877 0.5095 -0.0838439
v -0.422958 0.496635 -0.0828979
v -0.425933 0.492357 -0.0779708
v -0.424202 0.522428 -0.0738518
v -0.427975 0.496635 -0.071881
v -0.433711 0.496604 -0.0580458
v -0.458952 0.5095 0.00643955
v -0.463736 0.496604 0.0144411
v -0.4664 0.496604 0.0208857
v -0.477348 0.503712 0.089766
v -0.481257 0.483707 0.105276
v -0.467878 0.470811 0.0193484
v -0.476512 0.393464 0.0297347
v -0.471942 0.470811 0.0322376
v -0.477173 0.41133 0.0393917
v -0.474198 0.470811 0.0451465
v -0.475053 0.483707 0.0580357
v -0.476706 0.484682 0.0710629
v -0.480148 0.483707 0.0967427
v -0.488821 0.273212 0.104981
v -0.488957 0.277364 0.105276
v -0.486137 0.277364 0.0838338
v -0.427625 0.273212 -0.0932053
v -0.42568 0.277364 -0.096063
v -0.412262 0.51598 -0.096063
v -0.413429 0.535324 -0.0911557
v -0.423152 0.483707 -0.0852629
v -0.426283 0.483707 -0.0788183
v -0.429569 0.483707 -0.070935
v -0.434917 0.483707 -0.0580458
v -0.464183 0.487702 0.0133177
v -0.466555 0.483518 0.0183039
v -0.481548 0.479335 0.105276
v -0.464494 0.479083 0.0125688
v -0.462122 0.470811 0.00543443
v -0.469628 0.445018 0.0193484
v -0.47307 0.393464 0.0193484
v -0.476765 0.380536 0.0283748
v -0.47797 0.380536 0.0348194
v -0.477717 0.393464 0.036199
v -0.477445 0.402743 0.0376968
v -0.473634 0.445018 0.0322376
v -0.472234 0.40636 0.0193484
v -0.47902 0.393464 0.0451465
v -0.478106 0.406769 0.0442597
v -0.47694 0.419256 0.0412837
v -0.476687 0.458795 0.0582919
v -0.479293 0.470811 0.0838338
v -0.482112 0.470811 0.105276
v -0.485496 0.273212 0.0797148
v -0.489093 0.290261 0.105276
v -0.481043 0.277364 0.0451465
v -0.430853 0.273212 -0.0867804
v -0.427683 0.277364 -0.0932841
v -0.425777 0.28485 -0.096063
v -0.414829 0.496604 -0.096063
v -0.416015 0.496604 -0.0945258
v -0.416716 0.483707 -0.0954323
v -0.423697 0.470811 -0.0863074
v -0.42673 0.470811 -0.0798628
v -0.430483 0.470811 -0.070935
v -0.425544 0.423975 -0.0900126
v -0.438087 0.483707 -0.050399
v -0.462102 0.483518 0.00754321
v -0.437173 0.432153 -0.0611006
v -0.465661 0.445018 0.00977024
v -0.466536 0.419256 0.00768117
v -0.462063 0.405888 -0.00528686
v -0.438359 0.396452 -0.063978
v -0.467722 0.393464 0.00643955
v -0.438631 0.387833 -0.0646087
v -0.473595 0.380536 0.0193484
v -0.477173 0.341846 0.0263055
v -0.479526 0.380536 0.0451465
v -0.477251 0.334329 0.0259113
v -0.478768 0.316054 0.0322376
v -0.47902 0.303157 0.0322376
v -0.481023 0.303157 0.0451465
v -0.480732 0.393464 0.0580357
v -0.479954 0.40636 0.0580357
v -0.485049 0.40636 0.0967427
v -0.48254 0.419256 0.0838338
v -0.482929 0.457914 0.105276
v -0.482637 0.273212 0.0580357
v -0.482871 0.290261 0.0580357
v -0.488938 0.303157 0.105276
v -0.486118 0.303157 0.0838338
v -0.47904 0.277364 0.0322376
v -0.480284 0.273212 0.0410078
v -0.480926 0.273212 0.0451465
v -0.482093 0.273212 0.0539167
v -0.481159 0.290261 0.0451465
v -0.432311 0.273212 -0.0838439
v -0.432408 0.277364 -0.0838439
v -0.432564 0.290261 -0.0838439
v -0.427741 0.290261 -0.0934024
v -0.425836 0.290261 -0.096063
v -0.415121 0.49393 -0.096063
v -0.416229 0.483707 -0.096063
v -0.416327 0.482606 -0.096063
v -0.417279 0.470905 -0.096063
v -0.425855 0.415388 -0.0905447
v -0.427177 0.457914 -0.0808877
v -0.433964 0.419256 -0.070935
v -0.43025 0.393464 -0.0838439
v -0.429394 0.40636 -0.0838439
v -0.428033 0.419508 -0.0849673
v -0.440712 0.40636 -0.0567451
v -0.45621 0.40636 -0.0193388
v -0.460683 0.419256 -0.00644964
v -0.43622 0.392677 -0.0697131
v -0.43482 0.40636 -0.070935
v -0.430775 0.380536 -0.0838439
v -0.436045 0.380536 -0.0712898
v -0.457571 0.380536 -0.0193388
v -0.473867 0.367639 0.0193484
v -0.477328 0.325742 0.0256354
v -0.484621 0.380536 0.0838338
v -0.481976 0.341846 0.0580357
v -0.477562 0.303157 0.0250638
v -0.479156 0.290261 0.0322376
v -0.484173 0.316054 0.0709446
v -0.485826 0.393464 0.0967427
v -0.486429 0.401988 0.105276
v -0.485632 0.414884 0.105276
v -0.48536 0.419256 0.105276
v -0.488529 0.324578 0.105276
v -0.477581 0.277364 0.0250441
v -0.477523 0.273212 0.0251624
v -0.478515 0.273212 0.0300697
v -0.478923 0.273212 0.0322376
v -0.436803 0.273212 -0.0731226
v -0.436862 0.277364 -0.0732606
v -0.436939 0.290261 -0.0734182
v -0.436842 0.303157 -0.0732409
v -0.432389 0.303157 -0.0838439
v -0.427664 0.303157 -0.0932644
v -0.425738 0.297684 -0.096063
v -0.421383 0.418942 -0.096063
v -0.422219 0.408184 -0.096063
v -0.422355 0.40636 -0.096063
v -0.423035 0.397175 -0.096063
v -0.426166 0.40636 -0.0910177
v -0.428053 0.432153 -0.0829176
v -0.426575 0.393464 -0.0916484
v -0.426847 0.380536 -0.0920425
v -0.432136 0.316054 -0.0838439
v -0.436589 0.32895 -0.0725905
v -0.442345 0.341846 -0.0580458
v -0.465116 0.367639 -0.00177879
v -0.469064 0.341846 0.00643955
v -0.475151 0.32961 0.0205309
v -0.477426 0.316054 0.0253792
v -0.487693 0.367639 0.105276
v -0.48744 0.380536 0.105276
v -0.487071 0.341846 0.0967427
v -0.474898 0.303157 0.0185995
v -0.47764 0.290261 0.0248668
v -0.48711 0.389091 0.105276
v -0.486935 0.393464 0.105276
v -0.474917 0.277364 0.0185995
v -0.474859 0.273212 0.0187178
v -0.439487 0.273212 -0.066678
v -0.469881 0.277364 0.00643955
v -0.459341 0.290261 -0.0193388
v -0.469861 0.303157 0.00643955
v -0.439526 0.303157 -0.0667766
v -0.436725 0.316054 -0.0729058
v -0.427391 0.32895 -0.0928703
v -0.426983 0.367639 -0.0922593
v -0.425661 0.303157 -0.096063
v -0.423288 0.393464 -0.096063
v -0.423677 0.38516 -0.096063
v -0.423891 0.380536 -0.096063
v -0.424494 0.354743 -0.096063
v -0.424941 0.335272 -0.096063
v -0.470017 0.290261 0.00643955
v -0.474976 0.290261 0.0184222
v -0.425505 0.310266 -0.096063
f 1 2 7
f 1 7 17
f 1 17 28
f 1 28 27
f 1 27 40
f 1 40 54
f 1 54 70
f 1 70 85
f 1 85 101
f 1 101 100
f 1 100 122
f 1 122 136
f 1 136 156
f 1 156 178
f 1 178 194
f 1 194 228
f 1 228 271
f 1 271 270
f 1 270 269
f 1 269 305
f 1 305 304
f 1 304 300
f 1 300 299
f 1 299 272
f 1 272 231
f 1 231 196
f 1 196 166
f 1 166 141
f 1 141 123
f 1 123 102
f 1 102 86
f 1 86 71
f 1 71 55
f 1 55 41
f 1 41 29
f 1 29 18
f 1 18 8
f 1 8 3
f 1 3 4
f 1 4 5
f 1 5 11
f 1 11 20
f 1 20 22
f 1 22 12
f 1 12 6
f 1 6 2
f 2 6 7
f 3 8 9
f 3 9 4
f 4 9 8
f 4 8 10
f 4 10 19
f 4 19 30
f 4 30 44
f 4 44 43
f 4 43 42
f 4 42 56
f 4 56 72
f 4 72 87
f 4 87 103
f 4 103 124
f 4 124 142
f 4 142 169
f 4 169 200
f 4 200 242
f 4 242 283
f 4 283 316
f 4 316 324
f 4 324 321
f 4 321 320
f 4 320 319
f 4 319 318
f 4 318 317
f 4 317 287
f 4 287 286
f 4 286 285
f 4 285 284
f 4 284 246
f 4 246 245
f 4 245 244
f 4 244 243
f 4 243 201
f 4 201 170
f 4 170 143
f 4 143 125
f 4 125 104
f 4 104 88
f 4 88 74
f 4 74 57
f 4 57 45
f 4 45 31
f 4 31 21
f 4 21 11
f 4 11 5
f 6 12 13
f 6 13 14
f 6 14 15
f 6 15 16
f 6 16 17
f 6 17 7
f 8 18 19
f 8 19 10
f 11 21 20
f 12 22 23
f 12 23 13
f 13 23 14
f 14 23 24
f 14 24 15
f 15 24 25
f 15 25 16
f 16 25 26
f 16 26 27
f 16 27 28
f 16 28 17
f 18 29 19
f 19 29 30
f 20 21 22
f 21 31 32
f 21 32 23
f 21 23 22
f 23 32 33
f 23 33 34
f 23 34 24
f 24 34 35
f 24 35 25
f 25 35 36
f 25 36 37
f 25 37 38
f 25 38 39
f 25 39 26
f 26 39 40
f 26 40 27
f 29 41 42
f 29 42 43
f 29 43 44
f 29 44 30
f 31 45 32
f 32 45 33
f 33 45 46
f 33 46 47
f 33 47 34
f 34 47 35
f 35 47 36
f 36 47 48
f 36 48 37
f 37 48 49
f 37 49 50
f 37 50 51
f 37 51 38
f 38 51 52
f 38 52 39
f 39 52 53
f 39 53 40
f 40 53 54
f 41 55 56
f 41 56 42
f 45 57 58
f 45 58 46
f 46 58 47
f 47 58 59
f 47 59 48
f 48 59 60
f 48 60 49
f 49 60 61
f 49 61 62
f 49 62 63
f 49 63 64
f 49 64 51
f 49 51 50
f 51 64 65
f 51 65 52
f 52 65 66
f 52 66 67
f 52 67 68
f 52 68 69
f 52 69 70
f 52 70 54
f 52 54 53
f 55 71 56
f 56 71 72
f 57 73 58
f 57 74 73
f 58 73 59
f 59 73 75
f 59 75 76
f 59 76 61
f 59 61 60
f 61 76 62
f 62 76 77
f 62 77 63
f 63 77 78
f 63 78 64
f 64 78 79
f 64 79 65
f 65 79 80
f 65 80 81
f 65 81 82
f 65 82 66
f 66 82 83
f 66 83 84
f 66 84 85
f 66 85 67
f 67 85 68
f 68 85 69
f 69 85 70
f 71 86 72
f 72 86 87
f 73 74 75
f 74 88 89
f 74 89 75
f 75 89 90
f 75 90 76
f 76 90 91
f 76 91 77
f 77 91 78
f 78 91 92
f 78 92 79
f 79 92 80
f 80 92 91
f 80 91 93
f 80 93 94
f 80 94 81
f 81 94 95
f 81 95 96
f 81 96 97
f 81 97 98
f 81 98 99
f 81 99 82
f 82 99 83
f 83 99 98
f 83 98 100
f 83 100 101
f 83 101 85
f 83 85 84
f 86 102 103
f 86 103 87
f 88 104 105
f 88 105 90
f 88 90 89
f 90 106 94
f 90 94 93
f 90 93 91
f 90 105 107
f 90 107 108
f 90 108 106
f 94 106 109
f 94 109 95
f 95 109 110
f 95 110 96
f 96 111 112
f 96 112 131
f 96 131 113
f 96 113 114
f 96 114 115
f 96 115 116
f 96 116 97
f 96 110 111
f 97 116 115
f 97 115 117
f 97 117 98
f 98 118 119
f 98 119 100
f 98 117 120
f 98 120 121
f 98 121 118
f 100 119 122
f 102 123 103
f 103 123 124
f 104 125 126
f 104 126 105
f 105 126 107
f 106 108 127
f 106 127 109
f 107 126 128
f 107 128 129
f 107 129 108
f 108 129 127
f 109 127 110
f 110 127 129
f 110 129 111
f 111 129 130
f 111 130 131
f 111 131 112
f 113 131 132
f 113 132 133
f 113 133 114
f 114 133 134
f 114 134 115
f 115 134 117
f 117 134 120
f 118 121 135
f 118 135 119
f 119 135 136
f 119 136 122
f 120 134 137
f 120 137 138
f 120 138 139
f 120 139 140
f 120 140 121
f 121 140 135
f 123 141 165
f 123 165 195
f 123 195 229
f 123 229 236
f 123 236 235
f 123 235 234
f 123 234 276
f 123 276 275
f 123 275 274
f 123 274 307
f 123 307 308
f 123 308 277
f 123 277 238
f 123 238 198
f 123 198 168
f 123 168 142
f 123 142 124
f 125 143 144
f 125 144 145
f 125 145 126
f 126 145 128
f 128 145 144
f 128 144 146
f 128 146 147
f 128 147 148
f 128 148 129
f 129 148 149
f 129 149 130
f 130 149 150
f 130 150 151
f 130 151 131
f 131 151 152
f 131 152 132
f 132 152 153
f 132 153 154
f 132 154 133
f 133 154 134
f 134 154 137
f 135 140 155
f 135 155 136
f 136 155 140
f 136 140 139
f 136 139 156
f 137 157 158
f 137 158 159
f 137 159 138
f 137 154 157
f 138 159 160
f 138 160 161
f 138 161 162
f 138 162 139
f 139 162 163
f 139 163 164
f 139 164 156
f 141 166 167
f 141 167 165
f 142 168 169
f 143 170 171
f 143 171 144
f 144 171 172
f 144 172 146
f 146 172 147
f 147 172 148
f 148 172 173
f 148 173 174
f 148 174 175
f 148 175 176
f 148 176 153
f 148 153 151
f 148 151 150
f 148 150 149
f 151 153 152
f 153 176 154
f 154 176 177
f 154 177 157
f 156 164 178
f 157 177 179
f 157 179 180
f 157 180 181
f 157 181 158
f 158 182 183
f 158 183 184
f 158 184 185
f 158 185 186
f 158 186 187
f 158 187 159
f 158 181 188
f 158 188 182
f 159 187 186
f 159 186 160
f 160 186 189
f 160 189 190
f 160 190 191
f 160 191 161
f 161 192 193
f 161 193 163
f 161 163 162
f 161 191 192
f 163 193 164
f 164 193 194
f 164 194 178
f 165 167 195
f 166 196 167
f 167 197 195
f 167 196 197
f 168 198 199
f 168 199 169
f 169 199 200
f 170 201 202
f 170 202 171
f 171 202 172
f 172 202 203
f 172 203 204
f 172 204 173
f 173 205 206
f 173 206 174
f 173 204 207
f 173 207 205
f 174 206 175
f 175 208 176
f 175 206 208
f 176 208 209
f 176 209 177
f 177 209 179
f 179 209 180
f 180 209 208
f 180 208 206
f 180 206 210
f 180 210 211
f 180 211 181
f 181 211 212
f 181 212 188
f 182 188 213
f 182 213 214
f 182 214 215
f 182 215 216
f 182 216 217
f 182 217 183
f 183 217 218
f 183 218 184
f 184 219 185
f 184 218 220
f 184 220 221
f 184 221 222
f 184 222 223
f 184 223 219
f 185 219 189
f 185 189 186
f 188 212 213
f 189 219 224
f 189 224 190
f 190 225 191
f 190 224 225
f 191 225 226
f 191 226 227
f 191 227 228
f 191 228 192
f 192 228 193
f 193 228 194
f 195 197 229
f 196 230 197
f 196 231 232
f 196 232 223
f 196 223 230
f 197 233 234
f 197 234 235
f 197 235 236
f 197 236 229
f 197 230 237
f 197 237 266
f 197 266 233
f 198 238 239
f 198 239 199
f 199 239 240
f 199 240 241
f 199 241 200
f 200 241 242
f 201 243 202
f 202 243 203
f 203 243 244
f 203 244 245
f 203 245 246
f 203 246 247
f 203 247 207
f 203 207 204
f 205 248 206
f 205 207 248
f 206 248 249
f 206 249 210
f 207 247 250
f 207 250 251
f 207 251 252
f 207 252 248
f 210 249 253
f 210 253 254
f 210 254 255
f 210 255 211
f 211 255 212
f 212 255 213
f 213 255 254
f 213 254 253
f 213 253 214
f 214 256 215
f 214 253 257
f 214 257 256
f 215 256 216
f 216 258 259
f 216 259 260
f 216 260 217
f 216 256 250
f 216 250 258
f 217 260 261
f 217 261 262
f 217 262 220
f 217 220 218
f 219 263 224
f 219 223 264
f 219 264 263
f 220 262 222
f 220 222 221
f 222 265 266
f 222 266 237
f 222 237 223
f 222 262 265
f 223 237 230
f 223 232 267
f 223 267 264
f 224 263 268
f 224 268 226
f 224 226 225
f 226 268 269
f 226 269 270
f 226 270 271
f 226 271 228
f 226 228 227
f 231 272 232
f 232 272 267
f 233 273 274
f 233 274 275
f 233 275 276
f 233 276 234
f 233 266 273
f 238 277 278
f 238 278 239
f 239 278 240
f 240 279 280
f 240 280 281
f 240 281 282
f 240 282 241
f 240 278 279
f 241 282 283
f 241 283 242
f 246 284 247
f 247 284 285
f 247 285 286
f 247 286 287
f 247 287 288
f 247 288 250
f 248 252 289
f 248 289 249
f 249 289 251
f 249 251 250
f 249 250 257
f 249 257 253
f 250 290 258
f 250 256 257
f 250 288 290
f 251 289 252
f 258 290 291
f 258 291 292
f 258 292 293
f 258 293 259
f 259 293 294
f 259 294 260
f 260 295 261
f 260 294 296
f 260 296 295
f 261 295 296
f 261 296 297
f 261 297 262
f 262 298 265
f 262 297 298
f 263 299 300
f 263 300 268
f 263 264 301
f 263 301 272
f 263 272 299
f 264 267 272
f 264 272 301
f 265 302 303
f 265 303 266
f 265 298 297
f 265 297 302
f 266 303 273
f 268 300 304
f 268 304 305
f 268 305 269
f 273 306 307
f 273 307 274
f 273 303 323
f 273 323 306
f 277 308 278
f 278 308 309
f 278 309 279
f 279 309 310
f 279 310 311
f 279 311 312
f 279 312 280
f 280 312 313
f 280 313 292
f 280 292 281
f 281 314 282
f 281 292 291
f 281 291 315
f 281 315 314
f 282 316 283
f 282 314 316
f 287 317 288
f 288 317 290
f 290 317 318
f 290 318 319
f 290 319 291
f 291 319 320
f 291 320 321
f 291 321 315
f 292 313 293
f 293 313 296
f 293 296 294
f 296 313 311
f 296 311 302
f 296 302 297
f 302 311 310
f 302 310 322
f 302 322 323
f 302 323 303
f 306 309 307
f 306 323 322
f 306 322 310
f 306 310 309
f 307 309 308
f 311 313 312
f 314 324 316
f 314 315 324
f 315 321 324
