v 0.199472 -0.367075 0.38495
v 0.285126 -0.367075 0.259397
v 0.322819 -0.367075 0.38495
v 0.314466 0.0707047 0.38495
v 0.37727 0.0707047 0.259397
v 0.384293 -0.367075 0.259397
v 0.333273 -0.367075 0.371309
v 0.332076 -0.341706 0.38495
v 0.425497 0.0707047 0.38495
v 0.471197 0.0707047 0.259397
v 0.386102 -0.362576 0.259397
v 0.383282 -0.367075 0.263269
v 0.338486 -0.367075 0.364463
v 0.34503 -0.342906 0.367462
v 0.349552 -0.313081 0.375757
v 0.339444 -0.32148 0.38495
v 0.427732 0.0707047 0.379567
v 0.424832 0.0650482 0.38495
v 0.470559 0.0707047 0.264449
v 0.470372 0.063077 0.259397
v 0.383521 -0.366389 0.263207
v 0.387458 -0.358162 0.259397
v 0.399402 -0.307853 0.269315
v 0.383122 -0.367075 0.263687
v 0.34495 -0.367075 0.354398
v 0.348143 -0.34792 0.360948
v 0.349606 -0.339307 0.363062
v 0.353276 -0.316852 0.368691
v 0.358357 -0.304296 0.367511
v 0.351255 -0.303096 0.377957
v 0.345908 -0.303096 0.38495
v 0.34128 -0.316424 0.38495
v 0.432679 0.0707047 0.367634
v 0.425338 0.0286665 0.37325
v 0.453348 0.0580204 0.314099
v 0.45372 0.0707047 0.316852
v 0.416932 8.39892e-05 0.38495
v 0.419645 0.00642614 0.380526
v 0.424008 0.00642614 0.370043
v 0.468537 0.0707047 0.277341
v 0.464467 0.0247669 0.271466
v 0.463988 0.0161965 0.268099
v 0.469149 0.0580204 0.264449
v 0.469814 0.0580204 0.259397
v 0.38674 -0.347534 0.270298
v 0.400386 -0.313938 0.259397
v 0.400626 -0.312181 0.260712
v 0.400599 -0.299283 0.272646
v 0.397593 -0.303396 0.277107
v 0.393736 -0.315995 0.277341
v 0.388097 -0.338964 0.273617
v 0.401902 -0.303396 0.264793
v 0.412596 -0.25733 0.270139
v 0.381074 -0.367075 0.268861
v 0.348302 -0.367075 0.348241
v 0.348914 -0.363218 0.349592
v 0.361124 -0.309396 0.361071
v 0.35974 -0.290198 0.371997
v 0.360884 -0.282784 0.373644
v 0.352718 -0.290284 0.381337
v 0.348941 -0.29354 0.38495
v 0.452577 0.0451218 0.312244
v 0.447921 0.0193247 0.316041
v 0.463137 0.0707047 0.294116
v 0.462073 0.0451647 0.289323
v 0.416107 -0.00647242 0.38495
v 0.418076 -0.00647242 0.380526
v 0.426082 -0.00330135 0.362165
v 0.446379 0.00642614 0.316041
v 0.465824 0.0707047 0.287578
v 0.464627 0.0494928 0.284395
v 0.464095 0.0408794 0.282527
v 0.464893 0.0322233 0.273604
v 0.461142 0.00642614 0.277341
v 0.459599 -0.00647242 0.277341
v 0.461913 -0.00647242 0.264449
v 0.463483 0.0066404 0.264055
v 0.46609 0.0245527 0.259397
v 0.377456 -0.367075 0.277992
v 0.401211 -0.310896 0.259397
v 0.42571 -0.206507 0.270962
v 0.38666 -0.295469 0.308815
v 0.371258 -0.302711 0.341149
v 0.381553 -0.303096 0.316041
v 0.413713 -0.248717 0.273211
v 0.401477 -0.289084 0.277107
v 0.387245 -0.310381 0.297324
v 0.387671 -0.324694 0.285476
v 0.38956 -0.328936 0.277685
v 0.38525 -0.342692 0.277685
v 0.381606 -0.354734 0.277341
v 0.350909 -0.367075 0.342083
v 0.354899 -0.354734 0.341825
v 0.360219 -0.332322 0.345955
v 0.362773 -0.315995 0.352124
v 0.364662 -0.304296 0.355959
v 0.369024 -0.290198 0.35473
v 0.3732 -0.267529 0.359068
v 0.374318 -0.258959 0.361759
v 0.376791 -0.238689 0.368199
v 0.37344 -0.243017 0.372869
v 0.37469 -0.234404 0.374971
v 0.362188 -0.274214 0.375413
v 0.369769 -0.238689 0.379776
v 0.369795 -0.225705 0.38495
v 0.362906 -0.248117 0.38495
v 0.450262 0.00642614 0.306664
v 0.457045 0.00642614 0.290245
v 0.415362 -0.0123003 0.38495
v 0.42555 -0.0118718 0.360862
v 0.43768 -0.00647242 0.33321
v 0.455476 -0.00647242 0.290245
v 0.45779 -0.019371 0.277341
v 0.460158 -0.019371 0.264449
v 0.461514 -0.0144001 0.259397
v 0.462578 -0.00655813 0.259397
v 0.463829 0.00428352 0.259397
v 0.4646 0.0111827 0.259397
v 0.372163 -0.367075 0.29081
v 0.413128 -0.264144 0.259397
v 0.411957 -0.199908 0.30761
v 0.397806 -0.200465 0.341481
v 0.399588 -0.205093 0.334722
v 0.387432 -0.208178 0.3623
v 0.389294 -0.212635 0.355098
v 0.412436 -0.217992 0.295898
v 0.418076 -0.225705 0.277341
v 0.424593 -0.214949 0.264449
v 0.426189 -0.208521 0.264449
v 0.427998 -0.199908 0.264449
v 0.438664 -0.142357 0.271171
v 0.438984 -0.11806 0.284813
v 0.436084 -0.122431 0.289569
v 0.424992 -0.138715 0.30793
v 0.389906 -0.290798 0.303973
v 0.374477 -0.298168 0.336393
v 0.407888 -0.264401 0.277341
v 0.411957 -0.241946 0.281814
v 0.399801 -0.244774 0.309392
v 0.373732 -0.321352 0.321645
v 0.360113 -0.367075 0.319912
v 0.386501 -0.256173 0.33423
v 0.384665 -0.251717 0.341493
v 0.383495 -0.237361 0.353451
v 0.385171 -0.225705 0.356819
v 0.386341 -0.216792 0.359645
v 0.384266 -0.212635 0.367007
v 0.380515 -0.225705 0.367634
v 0.385649 -0.199908 0.370989
v 0.386554 -0.191637 0.373127
v 0.375887 -0.225705 0.376716
v 0.373626 -0.212807 0.38495
v 0.372509 -0.216706 0.38495
v 0.371152 -0.225705 0.383168
v 0.414458 -0.0183854 0.38495
v 0.415575 -0.0202709 0.381657
v 0.451646 -0.0139716 0.297115
v 0.453481 -0.0187282 0.290749
v 0.452789 -0.0322695 0.286976
v 0.451991 -0.0418256 0.285046
v 0.451273 -0.0504389 0.283092
v 0.451752 -0.0662943 0.271945
v 0.451087 -0.0749076 0.267902
v 0.458163 -0.0322695 0.264449
v 0.460823 -0.019371 0.259397
v 0.42571 -0.213492 0.259397
v 0.392433 -0.199908 0.35473
v 0.399083 -0.135458 0.372144
v 0.388363 -0.199908 0.364537
v 0.40028 -0.22082 0.323464
v 0.397114 -0.225362 0.328233
v 0.407409 -0.225705 0.303149
v 0.411425 -0.225705 0.29344
v 0.426455 -0.210278 0.259397
v 0.427572 -0.205136 0.259397
v 0.428689 -0.199908 0.259397
v 0.43784 -0.151099 0.264449
v 0.440979 -0.135458 0.264449
v 0.443559 -0.122559 0.264449
v 0.44598 -0.109661 0.264449
v 0.443107 -0.109661 0.277341
v 0.439356 -0.135458 0.27326
v 0.440473 -0.122431 0.277783
v 0.439808 -0.109661 0.286791
v 0.437148 -0.109661 0.293244
v 0.425045 -0.112832 0.320994
v 0.412888 -0.116646 0.34856
v 0.426721 -0.122559 0.312121
v 0.402993 -0.123674 0.368814
v 0.387511 -0.183024 0.375032
v 0.377616 -0.212807 0.37926
v 0.389507 -0.187224 0.368347
v 0.400732 -0.120074 0.376114
v 0.398976 -0.109661 0.38495
v 0.37594 -0.204322 0.38495
v 0.413686 -0.023442 0.38495
v 0.432227 -0.019371 0.341825
v 0.450927 -0.0225849 0.295382
v 0.449411 -0.045768 0.289704
v 0.438026 -0.0999334 0.29537
v 0.44058 -0.0960767 0.290736
v 0.445315 -0.0967624 0.277341
v 0.448134 -0.0967624 0.264449
v 0.451619 -0.0786358 0.259397
v 0.458828 -0.0322695 0.259397
v 0.4297 -0.194894 0.259397
v 0.440526 -0.141115 0.259397
v 0.442655 -0.130444 0.259397
v 0.444224 -0.122559 0.259397
v 0.445182 -0.117546 0.259397
v 0.446645 -0.109661 0.259397
v 0.447496 -0.104604 0.259397
v 0.42587 -0.104219 0.322936
v 0.406318 -0.109661 0.367634
v 0.401769 -0.109661 0.378584
v 0.414564 -0.121617 0.341948
v 0.385649 -0.16524 0.38495
v 0.378813 -0.201194 0.381816
v 0.400705 -0.100748 0.38495
v 0.411931 -0.0339408 0.38495
v 0.411 -0.0451681 0.382677
v 0.410202 -0.0576381 0.37958
v 0.41491 -0.0576381 0.368224
v 0.440447 -0.0709652 0.301207
v 0.425524 -0.0764932 0.335004
v 0.412037 -0.0967624 0.359387
v 0.448852 -0.0963767 0.259397
v 0.402647 -0.0975766 0.38162
v 0.405414 -0.0838638 0.380526
v 0.414192 -0.0709652 0.364586
v 0.434302 -0.0709652 0.316041
v 0.408606 -0.0967624 0.367634
f 1 2 6
f 1 6 12
f 1 12 24
f 1 24 54
f 1 54 79
f 1 79 119
f 1 119 141
f 1 141 92
f 1 92 55
f 1 55 25
f 1 25 13
f 1 13 7
f 1 7 3
f 1 3 8
f 1 8 16
f 1 16 32
f 1 32 31
f 1 31 61
f 1 61 106
f 1 106 105
f 1 105 153
f 1 153 152
f 1 152 195
f 1 195 217
f 1 217 194
f 1 194 219
f 1 219 220
f 1 220 196
f 1 196 155
f 1 155 109
f 1 109 66
f 1 66 37
f 1 37 18
f 1 18 9
f 1 9 4
f 1 4 5
f 1 5 2
f 2 5 10
f 2 10 20
f 2 20 44
f 2 44 78
f 2 78 118
f 2 118 117
f 2 117 116
f 2 116 115
f 2 115 165
f 2 165 205
f 2 205 204
f 2 204 227
f 2 227 212
f 2 212 211
f 2 211 210
f 2 210 209
f 2 209 208
f 2 208 207
f 2 207 206
f 2 206 176
f 2 176 175
f 2 175 174
f 2 174 166
f 2 166 120
f 2 120 80
f 2 80 46
f 2 46 22
f 2 22 11
f 2 11 6
f 3 7 8
f 4 9 17
f 4 17 33
f 4 33 36
f 4 36 64
f 4 64 70
f 4 70 40
f 4 40 19
f 4 19 10
f 4 10 5
f 6 11 12
f 7 13 14
f 7 14 15
f 7 15 8
f 8 15 16
f 9 18 17
f 10 19 20
f 11 21 12
f 11 22 23
f 11 23 21
f 12 21 24
f 13 25 26
f 13 26 14
f 14 26 15
f 15 27 28
f 15 28 29
f 15 29 30
f 15 30 31
f 15 31 32
f 15 32 16
f 15 26 27
f 17 18 33
f 18 34 35
f 18 35 36
f 18 36 33
f 18 37 38
f 18 38 39
f 18 39 34
f 19 40 41
f 19 41 42
f 19 42 43
f 19 43 44
f 19 44 20
f 21 45 24
f 21 23 45
f 22 46 47
f 22 47 23
f 23 48 49
f 23 49 50
f 23 50 51
f 23 51 45
f 23 47 52
f 23 52 53
f 23 53 48
f 24 45 54
f 25 55 26
f 26 55 56
f 26 56 57
f 26 57 27
f 27 57 29
f 27 29 28
f 29 57 58
f 29 58 30
f 30 58 59
f 30 59 60
f 30 60 61
f 30 61 31
f 34 62 35
f 34 39 63
f 34 63 62
f 35 64 36
f 35 62 65
f 35 65 64
f 37 66 67
f 37 67 38
f 38 67 39
f 39 67 68
f 39 68 69
f 39 69 63
f 40 70 71
f 40 71 72
f 40 72 73
f 40 73 41
f 41 73 72
f 41 72 74
f 41 74 75
f 41 75 76
f 41 76 42
f 42 76 77
f 42 77 43
f 43 78 44
f 43 77 78
f 45 79 54
f 45 51 79
f 46 80 47
f 47 80 81
f 47 81 52
f 48 82 83
f 48 83 84
f 48 84 49
f 48 53 81
f 48 81 85
f 48 85 86
f 48 86 82
f 49 57 87
f 49 87 50
f 49 84 57
f 50 87 88
f 50 88 89
f 50 89 51
f 51 89 90
f 51 90 91
f 51 91 79
f 52 81 53
f 55 92 57
f 55 57 56
f 57 92 93
f 57 93 94
f 57 94 95
f 57 95 87
f 57 84 83
f 57 83 96
f 57 96 97
f 57 97 98
f 57 98 99
f 57 99 100
f 57 100 101
f 57 101 102
f 57 102 58
f 58 102 59
f 59 102 103
f 59 103 60
f 60 103 104
f 60 104 105
f 60 105 106
f 60 106 61
f 62 63 65
f 63 69 107
f 63 107 65
f 64 65 71
f 64 71 70
f 65 107 108
f 65 108 71
f 66 109 67
f 67 109 110
f 67 110 68
f 68 110 111
f 68 111 112
f 68 112 107
f 68 107 69
f 71 108 112
f 71 112 75
f 71 75 72
f 72 75 74
f 75 112 113
f 75 113 114
f 75 114 76
f 76 114 115
f 76 115 116
f 76 116 77
f 77 116 117
f 77 117 118
f 77 118 78
f 79 91 90
f 79 90 119
f 80 120 81
f 81 121 122
f 81 122 123
f 81 123 124
f 81 124 125
f 81 125 126
f 81 126 127
f 81 127 85
f 81 120 128
f 81 128 129
f 81 129 130
f 81 130 131
f 81 131 132
f 81 132 133
f 81 133 134
f 81 134 121
f 82 135 97
f 82 97 136
f 82 136 83
f 82 86 135
f 83 136 97
f 83 97 96
f 85 127 137
f 85 137 86
f 86 137 138
f 86 138 139
f 86 139 135
f 87 95 140
f 87 140 88
f 88 140 141
f 88 141 90
f 88 90 89
f 90 141 119
f 92 141 93
f 93 141 94
f 94 140 95
f 94 141 140
f 97 135 142
f 97 142 143
f 97 143 144
f 97 144 145
f 97 145 98
f 98 145 146
f 98 146 99
f 99 146 147
f 99 147 148
f 99 148 100
f 100 148 101
f 101 148 147
f 101 147 102
f 102 104 103
f 102 147 149
f 102 149 150
f 102 150 151
f 102 151 152
f 102 152 153
f 102 153 154
f 102 154 104
f 104 154 105
f 105 154 153
f 107 112 108
f 109 155 156
f 109 156 110
f 110 156 157
f 110 157 112
f 110 112 111
f 112 157 158
f 112 158 159
f 112 159 113
f 113 159 160
f 113 160 161
f 113 161 162
f 113 162 114
f 114 162 163
f 114 163 164
f 114 164 205
f 114 205 165
f 114 165 115
f 120 166 128
f 121 134 122
f 122 167 123
f 122 134 168
f 122 168 167
f 123 167 169
f 123 169 124
f 124 147 146
f 124 146 125
f 124 169 149
f 124 149 147
f 125 146 126
f 126 146 170
f 126 170 171
f 126 171 172
f 126 172 173
f 126 173 127
f 127 173 138
f 127 138 137
f 128 166 129
f 129 174 175
f 129 175 176
f 129 176 130
f 129 166 174
f 130 176 177
f 130 177 131
f 131 177 178
f 131 178 179
f 131 179 180
f 131 180 181
f 131 181 182
f 131 182 183
f 131 183 132
f 132 183 181
f 132 181 184
f 132 184 185
f 132 185 186
f 132 186 187
f 132 187 188
f 132 188 133
f 133 188 134
f 134 188 189
f 134 189 168
f 135 139 142
f 138 173 172
f 138 172 139
f 139 172 171
f 139 171 142
f 142 171 144
f 142 144 143
f 144 171 145
f 145 171 146
f 146 171 170
f 149 169 150
f 150 190 191
f 150 191 151
f 150 169 192
f 150 192 168
f 150 168 193
f 150 193 194
f 150 194 190
f 151 191 195
f 151 195 152
f 155 196 156
f 156 196 157
f 157 196 197
f 157 197 198
f 157 198 159
f 157 159 158
f 159 198 199
f 159 199 160
f 160 199 200
f 160 200 201
f 160 201 184
f 160 184 161
f 161 184 181
f 161 181 202
f 161 202 162
f 162 202 181
f 162 181 180
f 162 180 203
f 162 203 163
f 163 203 204
f 163 204 205
f 163 205 164
f 167 168 169
f 168 189 193
f 168 192 169
f 176 206 177
f 177 207 178
f 177 206 207
f 178 207 179
f 179 207 208
f 179 208 209
f 179 209 210
f 179 210 180
f 180 210 211
f 180 211 212
f 180 212 203
f 181 183 182
f 184 201 200
f 184 200 185
f 185 200 213
f 185 213 214
f 185 214 186
f 186 214 187
f 187 214 215
f 187 215 193
f 187 193 189
f 187 189 216
f 187 216 188
f 188 216 189
f 190 194 217
f 190 217 191
f 191 218 195
f 191 217 218
f 193 215 194
f 194 215 219
f 195 218 217
f 196 198 197
f 196 220 221
f 196 221 222
f 196 222 223
f 196 223 224
f 196 224 198
f 198 224 199
f 199 224 200
f 200 224 225
f 200 225 226
f 200 226 213
f 203 212 227
f 203 227 204
f 213 226 219
f 213 219 215
f 213 215 214
f 219 226 228
f 219 228 220
f 220 228 229
f 220 229 221
f 221 229 222
f 222 230 223
f 222 229 226
f 222 226 230
f 223 230 225
f 223 225 231
f 223 231 224
f 224 231 225
f 225 230 226
f 226 229 232
f 226 232 228
f 228 232 229
