v -0.0207406 -0.218994 -0.556589
v -0.0292445 -0.218994 -0.55644
v -0.0193578 -0.204591 -0.566499
v -0.0181056 -0.214113 -0.559553
v -0.0132493 -0.218994 -0.554916
v -0.0344491 -0.218994 -0.554429
v -0.0324674 -0.213563 -0.559214
v -0.0322388 -0.203938 -0.566075
v -0.0193578 -0.198146 -0.570226
v -0.00645495 -0.195481 -0.568701
v -0.00645495 -0.201944 -0.564889
v -0.00645495 -0.211621 -0.558431
v -0.0272083 -0.181336 -0.580898
v -0.0239309 -0.181336 -0.580898
v -0.0114854 -0.218994 -0.55445
v -0.036507 -0.218994 -0.553603
v -0.0369099 -0.218358 -0.553942
v -0.0451416 -0.209679 -0.557118
v -0.0451307 -0.199469 -0.563767
v -0.0408298 -0.194863 -0.568383
v -0.0322388 -0.197492 -0.569887
v -0.0195211 -0.1862 -0.577086
v 0.000306773 -0.1939 -0.56779
v -0.0153399 -0.179566 -0.579882
v -0.00645495 -0.171075 -0.58238
v 0.00227758 -0.209077 -0.55661
v -0.00634606 -0.218994 -0.55301
v -0.00645495 -0.218066 -0.55373
v -0.0318032 -0.174461 -0.583418
v -0.0328159 -0.160917 -0.590681
v -0.0289069 -0.156414 -0.594175
v -0.0318032 -0.1862 -0.576599
v -0.0358102 -0.178981 -0.579522
v -0.0221016 -0.156414 -0.594175
v -0.0184213 -0.160917 -0.590956
v -0.0195211 -0.174805 -0.583566
v -0.0448367 -0.218994 -0.549876
v -0.0451416 -0.216141 -0.552015
v -0.0523933 -0.20741 -0.555424
v -0.0494316 -0.192027 -0.566562
v -0.0514678 -0.167603 -0.580411
v -0.0428659 -0.170387 -0.582063
v 0.00879976 -0.187025 -0.563576
v 0.0133838 -0.194313 -0.555149
v 0.00559856 -0.198403 -0.560188
v 0.000840307 -0.168926 -0.581152
v -0.0134998 -0.154454 -0.593222
v -0.00645495 -0.161226 -0.587653
v 0.00716649 -0.218994 -0.544582
v 0.0050868 -0.218994 -0.546551
v -0.00476724 -0.218994 -0.552205
v 0.0108794 -0.202907 -0.552438
v 0.0120118 -0.217912 -0.540792
v 0.0114348 -0.218994 -0.540538
v -0.0375088 -0.154025 -0.593031
v -0.0328159 -0.14916 -0.596293
v -0.0258799 -0.129051 -0.606287
v -0.0184213 -0.149435 -0.596356
v -0.0257057 -0.129051 -0.606287
v -0.0534821 -0.218994 -0.544391
v -0.0544294 -0.199933 -0.557711
v -0.0533515 -0.183416 -0.569209
v -0.0551698 -0.212154 -0.547822
v -0.0640112 -0.205536 -0.541088
v -0.0613218 -0.200724 -0.548457
v -0.0631728 -0.19072 -0.552925
v -0.054179 -0.158992 -0.582783
v -0.0514133 -0.141735 -0.593286
v -0.0463284 -0.14916 -0.59193
v -0.0463502 -0.162464 -0.585197
v 0.011413 -0.177795 -0.566075
v 0.0151477 -0.187025 -0.557139
v 0.0164543 -0.199142 -0.548182
v 0.0147666 -0.209318 -0.543841
v 0.0136887 -0.169201 -0.568383
v -0.00645495 -0.152151 -0.592206
v 0.000524541 -0.14299 -0.593773
v 0.00298533 -0.161226 -0.583143
v 0.00943129 -0.161226 -0.576981
v -0.00645495 -0.145706 -0.594895
v -0.0205881 -0.134173 -0.603069
v -0.0171147 -0.12673 -0.605334
v -0.00993925 -0.118119 -0.607092
v 0.0124583 -0.218994 -0.539521
v -0.0428223 -0.145413 -0.594853
v -0.0409931 -0.118068 -0.607092
v -0.0344818 -0.126679 -0.605271
v -0.0310084 -0.122451 -0.607833
v -0.0322388 -0.109646 -0.612725
v -0.027339 -0.0913751 -0.619437
v -0.0193578 -0.109646 -0.612661
v -0.0205881 -0.122468 -0.607833
v -0.0244427 -0.0913751 -0.619437
v -0.0595797 -0.218994 -0.53607
v -0.0622147 -0.174134 -0.564572
v -0.0590897 -0.162825 -0.575011
v -0.0619098 -0.212824 -0.538039
v -0.0662652 -0.196942 -0.544328
v -0.0645666 -0.218994 -0.528997
v -0.065209 -0.182109 -0.555614
v -0.0640004 -0.16664 -0.566922
v -0.0566833 -0.148335 -0.585366
v -0.0537543 -0.133141 -0.595128
v -0.0631402 -0.148335 -0.578675
v -0.0530901 -0.105796 -0.607325
v -0.049595 -0.11439 -0.605483
v -0.0463284 -0.136631 -0.597309
v 0.0210166 -0.187025 -0.548224
v 0.015409 -0.161226 -0.570522
v 0.0169988 -0.173756 -0.561501
v 0.023804 -0.200655 -0.535201
v 0.0234883 -0.218994 -0.523999
v 0.0200802 -0.218994 -0.529484
v 0.0182509 -0.213305 -0.536027
v 0.016879 -0.218994 -0.533973
v 0.0117396 -0.152185 -0.579289
v 0.00694872 -0.110883 -0.600295
v 0.00856021 -0.135427 -0.589262
v 0.0136342 -0.143592 -0.581194
v 0.00613209 -0.147596 -0.586573
v -0.00134827 -0.114871 -0.605779
v 0.00126496 -0.106277 -0.607325
v -0.00596497 -0.110213 -0.608913
v -0.0452396 -0.109921 -0.608955
v -0.0451416 -0.0967549 -0.613529
v -0.0318795 -0.0961017 -0.617299
v -0.03593 -0.0884016 -0.618633
v -0.0318795 -0.0840015 -0.620581
v -0.0322388 -0.058048 -0.627463
v -0.0198368 -0.0961017 -0.617214
v -0.0193578 -0.058048 -0.627166
v -0.0198368 -0.0837437 -0.620496
v -0.0158517 -0.0879719 -0.618548
v -0.0660256 -0.158047 -0.569611
v -0.0676698 -0.186664 -0.548457
v -0.0668531 -0.174134 -0.558113
v -0.0660256 -0.212824 -0.53158
v -0.0685082 -0.200724 -0.536197
v -0.0677678 -0.218994 -0.521988
v -0.0625413 -0.122554 -0.591062
v -0.0560953 -0.122554 -0.59733
v -0.0678113 -0.148335 -0.572237
v -0.0644032 -0.141632 -0.580347
v -0.0549194 -0.0967549 -0.608765
v -0.0521211 -0.0657137 -0.619501
v -0.0585561 -0.110316 -0.600104
v -0.0613654 -0.0967549 -0.602899
v 0.0211581 -0.161226 -0.56112
v 0.0242287 -0.1752 -0.547991
v 0.0252195 -0.187025 -0.539902
v 0.0169008 -0.148078 -0.574609
v 0.0256333 -0.205433 -0.528319
v 0.0246315 -0.212824 -0.526054
v 0.0257204 -0.218994 -0.519553
v 0.0142222 -0.106878 -0.594789
v 0.0126434 -0.115472 -0.593116
v 0.0150279 -0.135427 -0.582804
v -0.00645495 -0.0967549 -0.613402
v -0.002448 -0.0738779 -0.618273
v 0.000208776 -0.065284 -0.619331
v 0.00287644 -0.0967549 -0.608744
v 0.0093224 -0.0967549 -0.60292
v -0.0491703 -0.0743076 -0.618294
v -0.0449782 -0.0840015 -0.617108
v -0.0405684 -0.0797905 -0.619819
v -0.0451416 -0.058048 -0.624159
v -0.0451416 -0.0451571 -0.627061
v -0.0312915 -0.0441774 -0.630576
v -0.0305293 -0.043404 -0.630809
v -0.0211652 -0.043404 -0.630597
v -0.020403 -0.0441774 -0.630322
v -0.00645495 -0.0451571 -0.626256
v -0.00645495 -0.058048 -0.623524
v -0.0110499 -0.079378 -0.619691
v -0.0688022 -0.161897 -0.562009
v -0.0714807 -0.174134 -0.548224
v -0.0697168 -0.212824 -0.522432
v -0.0727111 -0.187025 -0.535307
v -0.0714807 -0.218994 -0.509537
v -0.064033 -0.114819 -0.592799
v -0.0730922 -0.148335 -0.56112
v -0.0732555 -0.122554 -0.574016
v -0.0691941 -0.136579 -0.575244
v -0.0677024 -0.122554 -0.584625
v -0.0659494 -0.133021 -0.582274
v -0.0632817 -0.0838468 -0.60489
v -0.0600696 -0.058048 -0.615054
v -0.0536237 -0.058048 -0.620538
v -0.0655792 -0.106225 -0.594704
v -0.06706 -0.0967549 -0.596462
v 0.0204504 -0.135427 -0.574016
v 0.0240871 -0.148834 -0.560633
v 0.0250889 -0.161226 -0.552332
v 0.0271468 -0.187025 -0.533444
v 0.0263519 -0.196839 -0.530839
v 0.0257422 -0.180202 -0.541596
v 0.027125 -0.218994 -0.515021
v 0.0263301 -0.218994 -0.517774
v 0.0155724 -0.0967549 -0.596483
v 0.0166612 -0.122554 -0.585302
v -0.00662916 -0.0837437 -0.617023
v -0.00662916 -0.070131 -0.620581
v 0.00121051 -0.058048 -0.6202
v 0.00766736 -0.058048 -0.614419
v 0.00628453 -0.0703716 -0.612555
v 0.0111952 -0.0838468 -0.604699
v 0.00474926 -0.0838468 -0.610501
v -0.0449782 -0.0703888 -0.620856
v -0.0555727 -0.0451571 -0.622
v -0.0449891 -0.043404 -0.627378
v -0.0315746 -0.043404 -0.63066
v -0.0201635 -0.043404 -0.630385
v -0.00783778 -0.043404 -0.626933
v -0.00645495 -0.043404 -0.626531
v 0.00275667 -0.0451571 -0.621534
v -0.072918 -0.199933 -0.522432
v -0.0748126 -0.174134 -0.535307
v -0.0742246 -0.161226 -0.548224
v -0.07282 -0.212824 -0.509537
v -0.0733535 -0.218994 -0.496641
v -0.0753135 -0.135427 -0.56112
v -0.0758361 -0.108666 -0.572894
v -0.0765983 -0.0967549 -0.576155
v -0.0748235 -0.0838468 -0.586912
v -0.072722 -0.0967549 -0.586912
v -0.0689764 -0.110179 -0.587865
v -0.0642399 -0.0763873 -0.60597
v -0.0620187 -0.0451571 -0.616663
v -0.0686388 -0.0838468 -0.598452
v 0.0227479 -0.122554 -0.574016
v 0.0209513 -0.0967549 -0.586912
v 0.0247622 -0.135427 -0.564233
v 0.0261995 -0.144881 -0.555996
v 0.0263301 -0.171608 -0.543544
v 0.027027 -0.161226 -0.545874
v 0.0278001 -0.1752 -0.536514
v 0.0296402 -0.212824 -0.509537
v 0.027811 -0.200655 -0.523364
v 0.0285732 -0.218994 -0.50977
v 0.0123603 -0.0754592 -0.605737
v 0.0134927 -0.0668653 -0.606859
v 0.0144617 -0.058048 -0.60796
v 0.0165959 -0.0838468 -0.598241
v 0.00921352 -0.0451571 -0.615859
v -0.0566071 -0.043404 -0.621428
v -0.0557251 -0.043404 -0.622127
v 0.00151539 -0.043404 -0.622444
v 0.00290911 -0.043404 -0.621661
v -0.0750086 -0.187025 -0.522432
v -0.0776 -0.143471 -0.543057
v -0.076239 -0.148009 -0.547695
v -0.0732337 -0.218994 -0.483745
v -0.0740722 -0.212824 -0.496641
v -0.0746057 -0.199933 -0.509537
v -0.0766418 -0.123551 -0.56112
v -0.0769794 -0.135427 -0.551824
v -0.0771318 -0.0838468 -0.579056
v -0.0763478 -0.0719873 -0.586467
v -0.0774367 -0.103699 -0.567854
v -0.077796 -0.0967549 -0.569717
v -0.0783404 -0.0838468 -0.572618
v -0.0767507 -0.058048 -0.590152
v -0.0747908 -0.0438852 -0.598537
v -0.0722865 -0.058048 -0.599808
v -0.0652961 -0.0677934 -0.607219
v -0.0664829 -0.058048 -0.608617
v -0.0678875 -0.0451571 -0.610205
v -0.062182 -0.043404 -0.616812
v 0.024392 -0.110849 -0.57355
v 0.0191656 -0.058048 -0.599808
v 0.0225192 -0.0838468 -0.586912
v 0.0254373 -0.122554 -0.566414
v 0.0267657 -0.135427 -0.557796
v 0.0295967 -0.187025 -0.522432
v 0.0273972 -0.148834 -0.549156
v 0.0301847 -0.218994 -0.503396
v 0.0155506 -0.0451571 -0.6094
v 0.00935507 -0.043404 -0.615986
v 0.0148428 -0.043404 -0.610417
v -0.0774367 -0.15552 -0.529357
v -0.0792442 -0.058048 -0.574016
v -0.078482 -0.0967549 -0.56112
v -0.0780464 -0.108666 -0.56112
v -0.0777742 -0.119907 -0.556821
v -0.0710125 -0.218994 -0.470849
v -0.0730704 -0.212824 -0.483745
v -0.0774367 -0.154437 -0.528722
v -0.0774367 -0.15552 -0.528722
v -0.0776545 -0.0683778 -0.581851
v -0.0771318 -0.04734 -0.591994
v -0.0785909 -0.0719873 -0.575202
v -0.0782642 -0.043404 -0.587378
v -0.0780029 -0.058048 -0.583714
v -0.0748126 -0.043404 -0.598601
v -0.0688893 -0.043404 -0.608871
v -0.0680182 -0.043404 -0.610374
v 0.0247187 -0.0967549 -0.577044
v 0.0262213 -0.107343 -0.568934
v 0.0207008 -0.0451571 -0.599808
v 0.0240545 -0.058048 -0.588098
v 0.0239238 -0.0705779 -0.585811
v 0.0267004 -0.0967549 -0.570586
v 0.0271686 -0.122554 -0.559977
v 0.0307182 -0.199933 -0.509537
v 0.0289651 -0.161226 -0.535307
v 0.0312082 -0.218994 -0.496641
v 0.0156268 -0.043404 -0.609548
v -0.0792768 -0.0451571 -0.574016
v -0.0676262 -0.218994 -0.458123
v -0.0781662 -0.043404 -0.565207
v -0.0786235 -0.058048 -0.563682
v -0.0792659 -0.043404 -0.574016
v -0.0772516 -0.043404 -0.592629
v 0.0259055 -0.0660231 -0.580792
v 0.0200802 -0.043404 -0.601248
v 0.0208206 -0.043404 -0.599808
v 0.0241089 -0.043404 -0.590554
v 0.0245009 -0.0451571 -0.589114
v 0.0261777 -0.058048 -0.581639
v 0.0264281 -0.0451571 -0.582656
v 0.0315893 -0.212824 -0.496641
v 0.0319595 -0.218994 -0.490479
v -0.0651545 -0.218994 -0.449864
v -0.0760321 -0.043404 -0.558748
v 0.0245444 -0.043404 -0.589135
v 0.0262104 -0.043404 -0.583566
v 0.0264173 -0.043404 -0.582677
v 0.0313062 -0.218994 -0.477583
v 0.0264173 -0.043404 -0.576197
v -0.0605052 -0.218994 -0.443152
v -0.0657098 -0.043404 -0.540559
v -0.0707185 -0.043404 -0.548076
v 0.0293027 -0.218994 -0.464687
v 0.0255788 -0.043404 -0.570607
v -0.0545927 -0.218994 -0.435338
v -0.0486368 -0.218994 -0.428731
v -0.0575326 -0.043404 -0.533084
v 0.0280179 -0.218994 -0.458673
v 0.0254155 -0.043404 -0.569739
v 0.023902 -0.043404 -0.562475
v -0.0420384 -0.218994 -0.422738
v -0.0522191 -0.043404 -0.528362
v 0.0269181 -0.218994 -0.453909
v 0.0235645 -0.043404 -0.56112
v -0.0322388 -0.218994 -0.41755
v -0.0468946 -0.043404 -0.526541
v 0.0260579 -0.218994 -0.450944
v 0.0176085 -0.043404 -0.548372
v -0.0193578 -0.218994 -0.414522
v -0.0322388 -0.043404 -0.522941
v -0.0458167 -0.043404 -0.526265
v 0.0259599 -0.218994 -0.450754
v 0.0171076 -0.043404 -0.547335
v -0.00645495 -0.218994 -0.416682
v -0.0192162 -0.043404 -0.52311
v 0.0191982 -0.218994 -0.439509
v 0.016095 -0.043404 -0.54598
v 0.0126543 -0.218994 -0.429578
v 0.0161059 -0.218994 -0.434533
v -0.00128294 -0.218994 -0.419583
v -0.00440792 -0.043404 -0.527578
v -0.0060303 -0.043404 -0.526964
v -0.00662916 -0.043404 -0.526752
v -0.0178007 -0.043404 -0.523512
v 0.00809201 -0.043404 -0.536684
v 0.0108903 -0.218994 -0.42763
v 0.00400884 -0.218994 -0.42259
v 0.00459682 -0.043404 -0.533613
v 0.00702494 -0.218994 -0.424454
v 0.00723182 -0.043404 -0.535815
v 0.00667651 -0.043404 -0.535286
f 1 2 3
f 1 3 4
f 1 4 5
f 1 5 15
f 1 15 27
f 1 27 51
f 1 51 50
f 1 50 49
f 1 49 54
f 1 54 84
f 1 84 115
f 1 115 113
f 1 113 112
f 1 112 154
f 1 154 198
f 1 198 197
f 1 197 239
f 1 239 276
f 1 276 306
f 1 306 322
f 1 322 328
f 1 328 333
f 1 333 338
f 1 338 343
f 1 343 347
f 1 347 352
f 1 352 356
f 1 356 359
f 1 359 358
f 1 358 366
f 1 366 369
f 1 369 367
f 1 367 360
f 1 360 354
f 1 354 349
f 1 349 345
f 1 345 341
f 1 341 336
f 1 336 335
f 1 335 330
f 1 330 323
f 1 323 309
f 1 309 285
f 1 285 252
f 1 252 220
f 1 220 179
f 1 179 139
f 1 139 99
f 1 99 94
f 1 94 60
f 1 60 37
f 1 37 16
f 1 16 6
f 1 6 2
f 2 6 7
f 2 7 8
f 2 8 3
f 3 9 10
f 3 10 11
f 3 11 12
f 3 12 4
f 3 8 13
f 3 13 14
f 3 14 9
f 4 12 5
f 5 12 15
f 6 16 17
f 6 17 7
f 7 17 18
f 7 18 8
f 8 18 19
f 8 19 20
f 8 20 21
f 8 21 13
f 9 22 10
f 9 14 22
f 10 23 11
f 10 22 24
f 10 24 25
f 10 25 23
f 11 23 12
f 12 26 27
f 12 27 28
f 12 28 15
f 12 23 26
f 13 29 30
f 13 30 31
f 13 31 34
f 13 34 14
f 13 21 32
f 13 32 33
f 13 33 29
f 14 24 22
f 14 34 35
f 14 35 36
f 14 36 24
f 15 28 27
f 16 37 17
f 17 37 38
f 17 38 18
f 18 38 39
f 18 39 19
f 19 40 20
f 19 39 40
f 20 33 21
f 20 40 41
f 20 41 42
f 20 42 33
f 21 33 32
f 23 43 44
f 23 44 45
f 23 45 26
f 23 25 46
f 23 46 43
f 24 36 25
f 25 36 35
f 25 35 47
f 25 47 48
f 25 48 46
f 26 49 50
f 26 50 51
f 26 51 27
f 26 45 52
f 26 52 53
f 26 53 54
f 26 54 49
f 29 33 42
f 29 42 55
f 29 55 30
f 30 55 31
f 31 55 56
f 31 56 57
f 31 57 59
f 31 59 34
f 34 58 47
f 34 47 35
f 34 59 58
f 37 39 38
f 37 60 39
f 39 61 62
f 39 62 41
f 39 41 40
f 39 60 63
f 39 63 64
f 39 64 65
f 39 65 66
f 39 66 61
f 41 67 68
f 41 68 69
f 41 69 70
f 41 70 42
f 41 62 67
f 42 70 55
f 43 71 44
f 43 46 71
f 44 72 73
f 44 73 74
f 44 74 52
f 44 52 45
f 44 71 75
f 44 75 72
f 46 48 76
f 46 76 77
f 46 77 78
f 46 78 79
f 46 79 71
f 47 80 76
f 47 76 48
f 47 58 81
f 47 81 82
f 47 82 83
f 47 83 80
f 52 74 53
f 53 84 54
f 53 74 84
f 55 70 69
f 55 69 85
f 55 85 86
f 55 86 87
f 55 87 56
f 56 87 57
f 57 87 88
f 57 88 89
f 57 89 90
f 57 90 93
f 57 93 59
f 58 59 81
f 59 91 92
f 59 92 82
f 59 82 81
f 59 93 91
f 60 94 63
f 61 66 95
f 61 95 62
f 62 95 96
f 62 96 67
f 63 94 97
f 63 97 64
f 64 98 65
f 64 97 99
f 64 99 98
f 65 98 66
f 66 100 101
f 66 101 95
f 66 98 100
f 67 102 103
f 67 103 68
f 67 96 104
f 67 104 102
f 68 103 105
f 68 105 106
f 68 106 107
f 68 107 85
f 68 85 69
f 71 79 75
f 72 108 73
f 72 75 109
f 72 109 110
f 72 110 108
f 73 108 111
f 73 111 112
f 73 112 113
f 73 113 114
f 73 114 74
f 74 114 113
f 74 113 115
f 74 115 84
f 75 79 116
f 75 116 109
f 76 80 77
f 77 117 118
f 77 118 119
f 77 119 120
f 77 120 78
f 77 80 121
f 77 121 122
f 77 122 117
f 78 120 116
f 78 116 79
f 80 83 121
f 82 92 91
f 82 91 83
f 83 91 123
f 83 123 121
f 85 107 86
f 86 106 124
f 86 124 89
f 86 89 87
f 86 107 106
f 87 89 88
f 89 124 125
f 89 125 126
f 89 126 90
f 90 126 127
f 90 127 128
f 90 128 129
f 90 129 93
f 91 93 130
f 91 130 123
f 93 129 131
f 93 131 132
f 93 132 133
f 93 133 130
f 94 99 97
f 95 101 96
f 96 101 134
f 96 134 104
f 98 135 136
f 98 136 100
f 98 99 137
f 98 137 138
f 98 138 135
f 99 139 137
f 100 136 134
f 100 134 101
f 102 140 103
f 102 104 140
f 103 140 141
f 103 141 105
f 104 134 142
f 104 142 143
f 104 143 140
f 105 144 145
f 105 145 125
f 105 125 124
f 105 124 106
f 105 141 146
f 105 146 147
f 105 147 144
f 108 110 109
f 108 109 148
f 108 148 149
f 108 149 150
f 108 150 111
f 109 116 119
f 109 119 151
f 109 151 148
f 111 150 152
f 111 152 153
f 111 153 112
f 112 153 154
f 116 120 119
f 117 155 156
f 117 156 118
f 117 122 155
f 118 156 119
f 119 156 155
f 119 155 157
f 119 157 151
f 121 123 158
f 121 158 122
f 122 158 159
f 122 159 160
f 122 160 161
f 122 161 162
f 122 162 155
f 123 130 158
f 125 145 163
f 125 163 164
f 125 164 165
f 125 165 127
f 125 127 126
f 127 165 129
f 127 129 128
f 129 166 167
f 129 167 168
f 129 168 169
f 129 169 170
f 129 170 131
f 129 165 166
f 130 133 158
f 131 170 171
f 131 171 172
f 131 172 173
f 131 173 174
f 131 174 133
f 131 133 132
f 133 174 158
f 134 136 175
f 134 175 142
f 135 138 176
f 135 176 175
f 135 175 136
f 137 139 138
f 138 139 177
f 138 177 178
f 138 178 176
f 139 179 177
f 140 180 146
f 140 146 141
f 140 143 180
f 142 175 181
f 142 181 182
f 142 182 183
f 142 183 184
f 142 184 185
f 142 185 143
f 143 185 180
f 144 147 186
f 144 186 187
f 144 187 188
f 144 188 145
f 145 188 167
f 145 167 166
f 145 166 163
f 146 180 147
f 147 180 189
f 147 189 190
f 147 190 186
f 148 151 191
f 148 191 192
f 148 192 149
f 149 192 193
f 149 193 150
f 150 194 195
f 150 195 152
f 150 193 196
f 150 196 194
f 151 157 191
f 152 195 197
f 152 197 198
f 152 198 154
f 152 154 153
f 155 162 199
f 155 199 200
f 155 200 157
f 157 200 191
f 158 174 201
f 158 201 159
f 159 201 174
f 159 174 202
f 159 202 173
f 159 173 160
f 160 173 172
f 160 172 203
f 160 203 204
f 160 204 205
f 160 205 206
f 160 206 207
f 160 207 161
f 161 207 206
f 161 206 162
f 162 206 199
f 163 166 208
f 163 208 164
f 164 208 165
f 165 208 166
f 167 188 209
f 167 209 210
f 167 210 211
f 167 211 168
f 168 211 169
f 169 211 210
f 169 210 246
f 169 246 245
f 169 245 268
f 169 268 296
f 169 296 295
f 169 295 294
f 169 294 313
f 169 313 292
f 169 292 312
f 169 312 310
f 169 310 324
f 169 324 332
f 169 332 331
f 169 331 337
f 169 337 342
f 169 342 346
f 169 346 351
f 169 351 350
f 169 350 355
f 169 355 364
f 169 364 363
f 169 363 362
f 169 362 361
f 169 361 368
f 169 368 371
f 169 371 370
f 169 370 365
f 169 365 357
f 169 357 353
f 169 353 348
f 169 348 344
f 169 344 340
f 169 340 339
f 169 339 334
f 169 334 329
f 169 329 327
f 169 327 326
f 169 326 325
f 169 325 317
f 169 317 316
f 169 316 315
f 169 315 307
f 169 307 279
f 169 279 278
f 169 278 248
f 169 248 247
f 169 247 214
f 169 214 213
f 169 213 212
f 169 212 170
f 170 212 171
f 171 212 172
f 172 212 213
f 172 213 214
f 172 214 215
f 172 215 203
f 173 202 174
f 175 176 181
f 176 178 181
f 177 179 216
f 177 216 178
f 178 216 217
f 178 217 218
f 178 218 181
f 179 219 216
f 179 220 219
f 180 185 189
f 181 221 182
f 181 218 221
f 182 221 222
f 182 222 223
f 182 223 224
f 182 224 225
f 182 225 184
f 182 184 183
f 184 225 226
f 184 226 190
f 184 190 189
f 184 189 185
f 186 227 228
f 186 228 187
f 186 190 229
f 186 229 227
f 187 228 188
f 188 228 209
f 190 226 225
f 190 225 229
f 191 230 192
f 191 200 199
f 191 199 231
f 191 231 230
f 192 230 232
f 192 232 233
f 192 233 193
f 193 233 234
f 193 234 196
f 194 196 234
f 194 234 235
f 194 235 236
f 194 236 237
f 194 237 238
f 194 238 195
f 195 238 197
f 197 238 239
f 199 206 240
f 199 240 241
f 199 241 242
f 199 242 243
f 199 243 231
f 203 215 244
f 203 244 204
f 204 244 242
f 204 242 241
f 204 241 206
f 204 206 205
f 206 241 240
f 209 245 246
f 209 246 210
f 209 228 245
f 214 247 215
f 215 248 244
f 215 247 248
f 216 219 249
f 216 249 217
f 217 249 250
f 217 250 251
f 217 251 218
f 218 251 221
f 219 220 249
f 220 252 253
f 220 253 254
f 220 254 249
f 221 255 223
f 221 223 222
f 221 251 256
f 221 256 255
f 223 257 258
f 223 258 224
f 223 255 259
f 223 259 260
f 223 260 261
f 223 261 257
f 224 258 262
f 224 262 263
f 224 263 264
f 224 264 225
f 225 264 229
f 227 265 228
f 227 229 265
f 228 265 266
f 228 266 267
f 228 267 268
f 228 268 245
f 229 264 267
f 229 267 266
f 229 266 265
f 230 269 232
f 230 231 269
f 231 243 270
f 231 270 271
f 231 271 269
f 232 269 272
f 232 272 273
f 232 273 233
f 233 273 235
f 233 235 234
f 235 273 236
f 236 274 237
f 236 273 275
f 236 275 274
f 237 274 276
f 237 276 239
f 237 239 238
f 242 244 277
f 242 277 243
f 243 277 270
f 244 278 279
f 244 279 277
f 244 248 278
f 249 254 280
f 249 280 250
f 250 281 282
f 250 282 283
f 250 283 284
f 250 284 256
f 250 256 251
f 250 280 281
f 252 285 286
f 252 286 287
f 252 287 288
f 252 288 253
f 253 288 280
f 253 280 254
f 255 256 284
f 255 284 259
f 257 261 289
f 257 289 290
f 257 290 262
f 257 262 258
f 259 284 260
f 260 283 261
f 260 284 283
f 261 283 281
f 261 281 291
f 261 291 292
f 261 292 293
f 261 293 289
f 262 290 263
f 263 294 295
f 263 295 264
f 263 290 294
f 264 295 296
f 264 296 267
f 267 296 268
f 269 271 297
f 269 297 298
f 269 298 272
f 270 299 271
f 270 277 299
f 271 299 300
f 271 300 301
f 271 301 297
f 272 298 273
f 273 298 302
f 273 302 303
f 273 303 274
f 273 274 275
f 274 304 276
f 274 303 305
f 274 305 304
f 276 304 306
f 277 279 307
f 277 307 299
f 280 288 281
f 281 308 292
f 281 292 291
f 281 283 282
f 281 288 308
f 285 309 310
f 285 310 286
f 286 310 311
f 286 311 287
f 287 311 312
f 287 312 308
f 287 308 288
f 289 293 290
f 290 313 294
f 290 293 292
f 290 292 313
f 292 308 312
f 297 302 298
f 297 301 314
f 297 314 302
f 299 307 315
f 299 315 316
f 299 316 300
f 300 317 318
f 300 318 319
f 300 319 314
f 300 314 301
f 300 316 317
f 302 314 319
f 302 319 320
f 302 320 305
f 302 305 303
f 304 305 320
f 304 320 321
f 304 321 306
f 306 321 322
f 309 323 310
f 310 312 311
f 310 323 324
f 317 325 318
f 318 325 326
f 318 326 320
f 318 320 319
f 320 326 327
f 320 327 322
f 320 322 321
f 322 327 329
f 322 329 328
f 323 330 331
f 323 331 332
f 323 332 324
f 328 329 334
f 328 334 333
f 330 335 331
f 331 335 336
f 331 336 337
f 333 334 339
f 333 339 340
f 333 340 338
f 336 341 337
f 337 341 342
f 338 340 343
f 340 344 343
f 341 345 342
f 342 345 346
f 343 344 347
f 344 348 347
f 345 349 350
f 345 350 351
f 345 351 346
f 347 348 353
f 347 353 352
f 349 354 355
f 349 355 350
f 352 353 356
f 353 357 358
f 353 358 359
f 353 359 356
f 354 360 361
f 354 361 362
f 354 362 363
f 354 363 364
f 354 364 355
f 357 365 358
f 358 365 366
f 360 367 361
f 361 367 369
f 361 369 368
f 365 370 366
f 366 370 371
f 366 371 369
f 368 369 371
