v -0.368432 0.289713 -0.171105
v -0.365128 0.289286 -0.17543
v -0.361163 0.283668 -0.180607
v -0.368379 0.283668 -0.171105
v -0.368247 0.303087 -0.171105
v -0.361163 0.29295 -0.180576
v -0.361163 0.28434 -0.180607
v -0.3683 0.27805 -0.171105
v -0.357093 0.289286 -0.185768
v -0.35696 0.278599 -0.185768
v -0.361057 0.275119 -0.180439
v -0.367956 0.316033 -0.171105
v -0.366027 0.303087 -0.174013
v -0.361057 0.303087 -0.180469
v -0.355877 0.303087 -0.187047
v -0.367904 0.264493 -0.171105
v -0.349639 0.290202 -0.194828
v -0.349559 0.277378 -0.194752
v -0.348766 0.225778 -0.193975
v -0.348396 0.202389 -0.193625
v -0.348264 0.193779 -0.193488
v -0.35474 0.238662 -0.187047
v -0.360317 0.225778 -0.179465
v -0.36674 0.225778 -0.171105
v -0.360608 0.341802 -0.17986
v -0.360925 0.316033 -0.180256
v -0.366635 0.370442 -0.171105
v -0.348898 0.354687 -0.194112
v -0.349374 0.316033 -0.194584
v -0.349533 0.303087 -0.194737
v -0.355559 0.316033 -0.187047
v -0.348581 0.380518 -0.193793
v -0.341814 0.290202 -0.201101
v -0.341814 0.277378 -0.200934
v -0.34311 0.198848 -0.197599
v -0.2825 0.199947 -0.244131
v -0.261195 0.199947 -0.260454
v -0.260825 0.187062 -0.260165
v -0.27568 0.187062 -0.248775
v -0.296985 0.187062 -0.232437
v -0.34155 0.187062 -0.198239
v -0.348 0.187062 -0.193229
v -0.353181 0.187062 -0.186773
v -0.35963 0.187062 -0.178581
v -0.359921 0.199947 -0.178962
v -0.353947 0.212893 -0.187047
v -0.341814 0.251547 -0.200173
v -0.334546 0.251547 -0.205761
v -0.366027 0.202206 -0.171105
v -0.360291 0.367633 -0.179449
v -0.353974 0.380518 -0.187047
v -0.354291 0.367633 -0.187047
v -0.36637 0.380518 -0.171105
v -0.365075 0.380518 -0.172795
v -0.360132 0.380518 -0.179236
v -0.341814 0.303087 -0.200919
v -0.348423 0.389006 -0.19364
v -0.341814 0.380518 -0.199046
v -0.341814 0.328918 -0.200294
v -0.335153 0.290202 -0.206233
v -0.335048 0.277378 -0.206141
v -0.304333 0.225778 -0.228174
v -0.297883 0.225778 -0.233123
v -0.261724 0.225778 -0.26085
v -0.252578 0.199947 -0.26691
v -0.252155 0.187062 -0.266606
v -0.26019 0.174177 -0.259693
v -0.296694 0.180406 -0.232224
v -0.340916 0.174177 -0.197767
v -0.347365 0.174177 -0.192635
v -0.349427 0.0968067 -0.182053
v -0.349982 0.109692 -0.182738
v -0.351066 0.135461 -0.184124
v -0.352705 0.174177 -0.186179
v -0.365445 0.188711 -0.171105
v -0.359154 0.174177 -0.177957
v -0.364467 0.174849 -0.171105
v -0.365366 0.187062 -0.171105
v -0.364864 0.199947 -0.172521
v -0.320193 0.277378 -0.217546
v -0.28353 0.251547 -0.244908
v -0.365948 0.199947 -0.171105
v -0.366265 0.382961 -0.171105
v -0.365762 0.393403 -0.171105
v -0.359815 0.393403 -0.17884
v -0.334836 0.316033 -0.205974
v -0.335021 0.303087 -0.206141
v -0.35244 0.393342 -0.18822
v -0.348053 0.397617 -0.19329
v -0.342978 0.393342 -0.197538
v -0.333409 0.393403 -0.204893
v -0.326959 0.393403 -0.209841
v -0.297249 0.393403 -0.232635
v -0.261089 0.393403 -0.260363
v -0.28279 0.380518 -0.244345
v -0.333805 0.380518 -0.205197
v -0.334017 0.367633 -0.20535
v -0.328704 0.290202 -0.211181
v -0.262728 0.277378 -0.261627
v -0.253899 0.264493 -0.267885
v -0.252842 0.212893 -0.267108
v -0.246128 0.199947 -0.271539
v -0.245705 0.187062 -0.27128
v -0.245309 0.178513 -0.271037
v -0.250384 0.174238 -0.266971
v -0.275046 0.174177 -0.248303
v -0.250199 0.109692 -0.261794
v -0.249485 0.0968067 -0.261261
v -0.258287 0.139186 -0.258216
v -0.2885 0.148346 -0.235818
v -0.32466 0.148346 -0.208075
v -0.331109 0.148346 -0.203126
v -0.339515 0.148346 -0.19667
v -0.338087 0.122576 -0.195589
v -0.33666 0.0968067 -0.194493
v -0.345964 0.148346 -0.19125
v -0.34311 0.0968067 -0.188509
v -0.34874 0.0838608 -0.181185
v -0.355533 0.0968067 -0.174151
v -0.357357 0.108715 -0.1731
v -0.363331 0.161292 -0.171105
v -0.364414 0.174177 -0.171105
v -0.359022 0.11018 -0.171105
v -0.313743 0.277378 -0.222495
v -0.284033 0.277378 -0.245289
v -0.36563 0.395235 -0.171105
v -0.359339 0.406288 -0.178216
v -0.35289 0.406288 -0.186423
v -0.319981 0.316033 -0.217378
v -0.328572 0.303087 -0.21109
v -0.34763 0.406288 -0.192879
v -0.337189 0.483719 -0.194889
v -0.337876 0.470773 -0.195422
v -0.339858 0.432119 -0.196945
v -0.34118 0.406288 -0.197949
v -0.351885 0.432119 -0.185144
v -0.350352 0.470773 -0.183225
v -0.349824 0.483719 -0.182556
v -0.332775 0.406288 -0.204406
v -0.301954 0.406044 -0.228083
v -0.296853 0.401586 -0.232331
v -0.27531 0.406288 -0.248501
v -0.260455 0.406288 -0.259876
v -0.252446 0.393403 -0.266819
v -0.252869 0.380518 -0.267123
v -0.261486 0.380518 -0.260667
v -0.261697 0.367633 -0.260835
v -0.283002 0.367633 -0.244497
v -0.312712 0.367633 -0.221703
v -0.319162 0.367633 -0.216754
v -0.298994 0.290202 -0.233975
v -0.254137 0.277378 -0.268067
v -0.262834 0.290202 -0.261703
v -0.25427 0.290202 -0.268159
v -0.24745 0.264493 -0.272377
v -0.247186 0.251547 -0.272209
v -0.238621 0.277378 -0.276868
v -0.238621 0.199947 -0.274874
v -0.238621 0.187062 -0.274356
v -0.239679 0.174238 -0.273107
v -0.244701 0.169902 -0.270702
v -0.272931 0.135461 -0.246674
v -0.240551 0.122576 -0.268768
v -0.248587 0.0838608 -0.260591
v -0.255935 0.0968067 -0.256419
v -0.257362 0.122576 -0.257515
v -0.257812 0.130576 -0.25785
v -0.276156 0.097051 -0.240964
v -0.327805 0.109508 -0.20238
v -0.322281 0.105112 -0.206248
v -0.321805 0.0968067 -0.205898
v -0.270578 0.0929596 -0.244878
v -0.335999 0.0866698 -0.193975
v -0.340916 0.0829448 -0.188753
v -0.348291 0.0772657 -0.180637
v -0.356485 0.0838608 -0.171105
v -0.357886 0.0968067 -0.171105
v -0.336026 -0.00425707 -0.181231
v -0.335365 -0.0128673 -0.180607
v -0.364732 0.407265 -0.171105
v -0.358335 0.432119 -0.176891
v -0.313532 0.316033 -0.222327
v -0.283874 0.31243 -0.245167
v -0.298861 0.303087 -0.233884
v -0.346969 0.419173 -0.19224
v -0.343638 0.483719 -0.189012
v -0.336264 0.496604 -0.194189
v -0.322149 0.487139 -0.206141
v -0.277768 0.483719 -0.240492
v -0.322624 0.478529 -0.206507
v -0.344326 0.470773 -0.189666
v -0.293311 0.470773 -0.229621
v -0.330131 0.457889 -0.20238
v -0.356802 0.470773 -0.174912
v -0.357172 0.483964 -0.173024
v -0.35852 0.48549 -0.171105
v -0.34911 0.496604 -0.181672
v -0.273327 0.445004 -0.246979
v -0.286861 0.470773 -0.234569
v -0.257653 0.461125 -0.257729
v -0.259133 0.432119 -0.258871
v -0.250463 0.407265 -0.267215
v -0.244992 0.412211 -0.270839
v -0.245467 0.403601 -0.271128
v -0.245996 0.393403 -0.271463
v -0.250701 0.470773 -0.26216
v -0.246419 0.380518 -0.271722
v -0.253292 0.354687 -0.267443
v -0.254137 0.303087 -0.268067
v -0.262517 0.316033 -0.261459
v -0.247688 0.277378 -0.272529
v -0.262702 0.303087 -0.261611
v -0.24782 0.290202 -0.272605
v -0.247688 0.303087 -0.272529
v -0.22707 0.277378 -0.281665
v -0.226277 0.251547 -0.28133
v -0.238621 0.290202 -0.277005
v -0.220806 0.290202 -0.284405
v -0.225749 0.199947 -0.280218
v -0.217607 0.187062 -0.283081
v -0.216629 0.174177 -0.28267
v -0.225749 0.148346 -0.277021
v -0.235238 0.135461 -0.272148
v -0.232357 0.102364 -0.270945
v -0.231617 0.0937535 -0.270625
v -0.237432 0.0975395 -0.268189
v -0.239414 0.109692 -0.268235
v -0.255036 0.0838608 -0.255734
v -0.238621 0.0838608 -0.266301
v -0.24745 0.0709759 -0.259739
v -0.269891 0.0838608 -0.244345
v -0.299602 0.0838608 -0.221551
v -0.306051 0.0838608 -0.216602
v -0.330158 0.0829448 -0.19798
v -0.335259 0.0780596 -0.193412
v -0.346942 0.0580911 -0.178901
v -0.349348 0.0322602 -0.171105
v -0.350881 0.043191 -0.171105
v -0.353286 0.0604726 -0.171105
v -0.354846 0.0717087 -0.171105
v -0.334625 0.0709759 -0.192925
v -0.329946 0.0193754 -0.189347
v -0.327805 0.00679583 -0.189225
v -0.330211 -0.00773781 -0.185312
v -0.321144 -0.00639436 -0.192468
v -0.306289 -0.00639436 -0.203873
v -0.255274 -0.00639436 -0.24302
v -0.248824 -0.00639436 -0.247968
v -0.284165 -0.014394 -0.219602
v -0.320378 -0.029294 -0.188935
v -0.326854 -0.029294 -0.183956
v -0.328334 -0.029294 -0.182784
v -0.334546 -0.0193403 -0.179815
v -0.333303 -0.029294 -0.178581
v -0.33888 -0.029294 -0.172141
v -0.339858 -0.0193403 -0.173359
v -0.341629 -0.0193403 -0.171105
v -0.343744 -0.00706609 -0.171105
v -0.340229 -0.00773781 -0.175445
v -0.359736 0.470773 -0.171105
v -0.338273 0.56109 -0.183439
v -0.342713 0.496604 -0.188113
v -0.335603 0.50436 -0.193671
v -0.314959 0.496604 -0.210542
v -0.270922 0.490437 -0.245136
v -0.271319 0.483719 -0.245441
v -0.358784 0.482376 -0.171105
v -0.358652 0.483964 -0.171105
v -0.357251 0.496604 -0.171105
v -0.354925 0.496604 -0.174151
v -0.348555 0.505153 -0.180957
v -0.257151 0.470773 -0.257348
v -0.242322 0.445004 -0.26959
v -0.232912 0.481216 -0.271174
v -0.233758 0.470773 -0.271539
v -0.239864 0.407265 -0.273305
v -0.238621 0.393403 -0.274706
v -0.250014 0.483719 -0.261642
v -0.238621 0.380518 -0.275239
v -0.238621 0.303087 -0.276853
v -0.24663 0.367633 -0.271859
v -0.246842 0.354687 -0.271996
v -0.135455 0.277378 -0.319609
v -0.156442 0.251547 -0.31026
v -0.185888 0.290202 -0.298871
v -0.16387 0.290202 -0.307991
v -0.212585 0.225778 -0.286339
v -0.22707 0.303087 -0.281649
v -0.160064 0.199825 -0.307428
v -0.154698 0.195428 -0.309529
v -0.147772 0.187062 -0.312011
v -0.146768 0.174177 -0.3116
v -0.152107 0.161292 -0.308463
v -0.170742 0.122576 -0.297942
v -0.20566 0.122576 -0.283477
v -0.161253 0.0968067 -0.299997
v -0.140001 0.0968067 -0.308798
v -0.167835 0.0898452 -0.296739
v -0.223978 0.0838608 -0.272818
v -0.230427 0.0838608 -0.270138
v -0.284059 0.0758612 -0.232407
v -0.253899 0.0709759 -0.254851
v -0.262305 0.0709759 -0.248425
v -0.238621 0.0709759 -0.264718
v -0.245494 0.0493587 -0.258292
v -0.233123 -0.0038296 -0.258475
v -0.289108 0.0713423 -0.227915
v -0.31977 0.0709759 -0.204329
v -0.344088 0.00630731 -0.17313
v -0.345938 0.00801716 -0.171105
v -0.265662 0.00551345 -0.236747
v -0.292623 0.00649051 -0.216191
v -0.32199 0.00270443 -0.193123
v -0.303751 0.0580911 -0.214836
v -0.27079 0.000567136 -0.232118
v -0.240736 0.00649051 -0.255323
v -0.237881 -0.00743249 -0.255079
v -0.247371 -0.0193403 -0.246872
v -0.256463 0.00649051 -0.243933
v -0.250014 0.00649051 -0.248867
v -0.244622 0.0407484 -0.257698
v -0.24367 0.0322602 -0.25712
v -0.246393 -0.029294 -0.2457
v -0.3397 -0.029294 -0.171105
v -0.344405 -0.00254722 -0.171105
v -0.345621 0.548205 -0.177226
v -0.344722 0.56109 -0.176099
v -0.336924 0.573974 -0.182129
v -0.33066 0.56109 -0.189895
v -0.331797 0.548205 -0.190747
v -0.347973 0.513764 -0.180226
v -0.305443 0.509489 -0.21613
v -0.276076 0.495505 -0.240523
v -0.316941 0.548205 -0.202152
v -0.265926 0.548205 -0.241299
v -0.265292 0.495505 -0.248791
v -0.255538 0.496604 -0.256115
v -0.256463 0.483719 -0.256815
v -0.356643 0.501306 -0.171105
v -0.355559 0.509489 -0.171105
v -0.241265 0.457889 -0.269103
v -0.141561 0.47517 -0.309438
v -0.198867 0.470773 -0.286004
v -0.240207 0.470773 -0.2686
v -0.237749 0.484818 -0.268646
v -0.232145 0.489826 -0.270854
v -0.227017 0.484818 -0.273351
v -0.21285 0.483719 -0.279305
v -0.211766 0.457827 -0.281543
v -0.225749 0.445004 -0.276609
v -0.217026 0.406288 -0.282837
v -0.211581 0.393403 -0.285928
v -0.225749 0.393403 -0.280051
v -0.155015 0.388335 -0.309666
v -0.249089 0.496604 -0.260957
v -0.225749 0.380518 -0.280584
v -0.226092 0.341802 -0.281254
v -0.128344 0.277378 -0.32238
v -0.135455 0.199947 -0.317614
v -0.156046 0.238662 -0.310093
v -0.135455 0.290202 -0.319746
v -0.12882 0.290202 -0.322441
v -0.135455 0.303087 -0.319594
v -0.163341 0.316033 -0.307778
v -0.135455 0.187062 -0.317097
v -0.135455 0.174177 -0.316274
v -0.135455 0.161292 -0.315346
v -0.141772 0.116897 -0.309529
v -0.133552 0.0968067 -0.311448
v -0.134688 0.109692 -0.31192
v -0.132124 0.0838608 -0.310854
v -0.138574 0.0838608 -0.308189
v -0.16194 0.0848379 -0.298627
v -0.21285 0.0838608 -0.277432
v -0.22218 0.0709759 -0.272072
v -0.22863 0.0709759 -0.269392
v -0.232066 -0.0124399 -0.257927
v -0.25049 0.0450841 -0.253876
v -0.259979 0.0452062 -0.246629
v -0.257362 0.0163221 -0.244619
v -0.238621 -0.0193403 -0.252673
v -0.242031 -0.029294 -0.248638
v -0.246128 -0.029294 -0.245898
v -0.191148 -0.029294 -0.171105
v -0.348978 0.558647 -0.171105
v -0.348634 0.56109 -0.171105
v -0.347577 0.567196 -0.171105
v -0.323259 0.569822 -0.194097
v -0.34644 0.572326 -0.171105
v -0.344061 0.574341 -0.17342
v -0.335814 0.580936 -0.181033
v -0.328096 0.574097 -0.189194
v -0.31488 0.560601 -0.202076
v -0.309064 0.56457 -0.206004
v -0.350458 0.547655 -0.171105
v -0.298994 0.509489 -0.221079
v -0.259477 0.548205 -0.246248
v -0.262834 0.509489 -0.248821
v -0.270182 0.499047 -0.244573
v -0.263521 0.561945 -0.241315
v -0.254428 0.509489 -0.255262
v -0.24515 0.542098 -0.258033
v -0.247979 0.509489 -0.260134
v -0.136538 0.470834 -0.311798
v -0.135455 0.457889 -0.313123
v -0.142274 0.46656 -0.309727
v -0.176848 0.470773 -0.295125
v -0.140821 0.483719 -0.309133
v -0.134371 0.483719 -0.311798
v -0.238621 0.496604 -0.267017
v -0.236639 0.56109 -0.260332
v -0.225749 0.56109 -0.265372
v -0.23122 0.496604 -0.270473
v -0.224771 0.496604 -0.273153
v -0.16839 0.492635 -0.296967
v -0.147191 0.406288 -0.311767
v -0.181263 0.41673 -0.296952
v -0.189562 0.393403 -0.295049
v -0.135455 0.380518 -0.31798
v -0.155279 0.380518 -0.309773
v -0.135455 0.393403 -0.317447
v -0.148354 0.367633 -0.312909
v -0.163024 0.328918 -0.307641
v -0.121895 0.277378 -0.323324
v -0.11978 0.251547 -0.32302
v -0.117666 0.225778 -0.322715
v -0.116106 0.206481 -0.322472
v -0.122556 0.199947 -0.321299
v -0.122371 0.290202 -0.3234
v -0.122556 0.187062 -0.320797
v -0.128291 0.303087 -0.322365
v -0.148354 0.328918 -0.313716
v -0.122556 0.174177 -0.320005
v -0.122556 0.0968067 -0.3146
v -0.122556 0.148346 -0.318208
v -0.122556 0.0838608 -0.313442
v -0.1303 0.0709759 -0.310123
v -0.194267 0.0748231 -0.284086
v -0.148354 0.0709759 -0.302647
v -0.193025 0.0662128 -0.283583
v -0.224506 0.0463664 -0.268174
v -0.225749 0.0193754 -0.264428
v -0.225749 0.00649051 -0.262875
v -0.226965 -0.00743249 -0.260667
v -0.21285 -0.00639436 -0.266651
v -0.147138 -0.00541731 -0.293998
v -0.140741 -0.0090202 -0.296191
v -0.168311 -0.014394 -0.284025
v -0.230718 -0.0193403 -0.257363
v -0.239494 -0.029294 -0.250298
v -0.0984226 -0.029294 -0.209887
v -0.204021 0.56109 -0.171105
v -0.272059 0.570921 -0.233107
v -0.257838 0.56683 -0.244999
v -0.345436 0.57599 -0.171105
v -0.28472 0.581302 -0.220013
v -0.270499 0.579531 -0.231905
v -0.321699 0.578432 -0.192894
v -0.338563 0.583318 -0.174151
v -0.328413 0.589913 -0.173618
v -0.328915 0.583256 -0.183698
v -0.313109 0.583073 -0.196183
v -0.298888 0.582279 -0.20809
v -0.258604 0.55822 -0.245578
v -0.245732 0.53532 -0.258475
v -0.252736 0.561945 -0.249552
v -0.244225 0.550708 -0.257455
v -0.243089 0.56109 -0.256769
v -0.135455 0.419173 -0.315742
v -0.132917 0.496604 -0.311189
v -0.122556 0.483719 -0.315254
v -0.122556 0.470773 -0.316122
v -0.135455 0.406288 -0.316609
v -0.234498 0.573974 -0.259206
v -0.152477 0.56109 -0.295719
v -0.182743 0.548205 -0.284664
v -0.225749 0.548205 -0.266849
v -0.229449 0.509489 -0.269742
v -0.225749 0.573974 -0.263073
v -0.207827 0.570127 -0.271463
v -0.180232 0.566219 -0.283629
v -0.221229 0.522374 -0.271676
v -0.134662 0.522923 -0.307474
v -0.137596 0.509489 -0.307793
v -0.148354 0.496604 -0.304809
v -0.139367 0.496604 -0.308524
v -0.154381 0.396884 -0.309392
v -0.123164 0.380518 -0.321558
v -0.124882 0.354687 -0.321832
v -0.125728 0.341802 -0.321969
v -0.122556 0.406288 -0.32034
v -0.109656 0.277378 -0.32503
v -0.109656 0.238662 -0.324101
v -0.115498 0.199947 -0.322396
v -0.109656 0.290202 -0.325152
v -0.121842 0.303087 -0.323324
v -0.109656 0.303087 -0.325015
v -0.113674 0.187062 -0.322167
v -0.116238 0.387296 -0.322502
v -0.11756 0.367633 -0.3227
v -0.120996 0.316033 -0.323203
v -0.109498 0.173261 -0.321893
v -0.109656 0.122576 -0.318452
v -0.109656 0.0968067 -0.316701
v -0.109656 0.0838608 -0.315589
v -0.116397 0.0381836 -0.309636
v -0.122556 0.0709759 -0.311996
v -0.127234 0.0550378 -0.309164
v -0.129243 0.063648 -0.309681
v -0.134318 0.0588239 -0.307017
v -0.188135 0.0322602 -0.281558
v -0.211951 0.00642944 -0.2686
v -0.142036 -0.000409922 -0.296739
v -0.136036 -0.00541731 -0.298597
v -0.132389 -0.0193403 -0.298079
v -0.138838 -0.0193403 -0.295414
v -0.21285 -0.0193403 -0.264763
v -0.166619 -0.029294 -0.282259
v -0.22374 -0.029294 -0.258597
v -0.228709 -0.029294 -0.256526
v -0.0984226 -0.029294 -0.303713
v -0.0984226 0.560967 -0.217302
v -0.205475 0.574158 -0.171105
v -0.250146 0.573974 -0.248973
v -0.339356 0.584417 -0.171105
v -0.247688 0.582524 -0.247085
v -0.329497 0.590584 -0.171105
v -0.318977 0.592294 -0.177561
v -0.316043 0.587714 -0.187032
v -0.30317 0.585638 -0.200264
v -0.289504 0.584356 -0.212567
v -0.277319 0.583684 -0.222845
v -0.240974 0.573974 -0.255414
v -0.131146 0.509489 -0.310458
v -0.122556 0.496604 -0.314082
v -0.109656 0.496604 -0.316214
v -0.109656 0.483719 -0.31734
v -0.122556 0.445004 -0.317812
v -0.232806 0.580875 -0.258292
v -0.135455 0.56109 -0.302769
v -0.205369 0.578738 -0.270428
v -0.141614 0.579959 -0.296556
v -0.144072 0.57141 -0.297576
v -0.129825 0.518954 -0.309925
v -0.12134 0.392304 -0.321391
v -0.114388 0.395846 -0.322258
v -0.109656 0.470773 -0.318178
v -0.0984226 0.277378 -0.326507
v -0.0984226 0.225778 -0.325273
v -0.0984226 0.290202 -0.326644
v -0.110952 0.21161 -0.323279
v -0.109049 0.199947 -0.323248
v -0.0984226 0.304797 -0.326461
v -0.0984226 0.303087 -0.326491
v -0.109656 0.328918 -0.324512
v -0.0984226 0.367633 -0.325243
v -0.0984226 0.199947 -0.324649
v -0.0984226 0.188833 -0.324238
v -0.0984226 0.187062 -0.324162
v -0.105084 0.176986 -0.322731
v -0.109921 0.392304 -0.32305
v -0.0984226 0.393281 -0.324497
v -0.0984226 0.380518 -0.324984
v -0.109656 0.380518 -0.323507
v -0.102863 0.168376 -0.322441
v -0.0984226 0.0984555 -0.3183
v -0.0984226 0.0968067 -0.318178
v -0.0984226 0.0855706 -0.317219
v -0.0984226 0.0838608 -0.317066
v -0.0984226 0.0726247 -0.315863
v -0.109656 0.0709759 -0.314204
v -0.122767 0.0588239 -0.31058
v -0.112934 0.0295734 -0.309164
v -0.109656 0.00649051 -0.307017
v -0.109656 -0.00639436 -0.30554
v -0.122556 -0.00639436 -0.303027
v -0.122556 0.00649051 -0.304565
v -0.135455 0.00649051 -0.300287
v -0.143041 0.00649051 -0.29715
v -0.122556 -0.0193403 -0.301215
v -0.130406 -0.029233 -0.297257
v -0.130459 -0.029294 -0.297226
v -0.136063 -0.029294 -0.294912
v -0.101013 -0.029294 -0.303378
v -0.0984226 -0.0193403 -0.305266
v -0.0984226 0.573486 -0.218155
v -0.206876 0.576112 -0.171105
v -0.237696 0.584356 -0.251425
v -0.250728 0.587165 -0.238026
v -0.238621 0.5915 -0.240751
v -0.322598 0.593332 -0.171105
v -0.310386 0.593516 -0.181155
v -0.296245 0.593271 -0.193077
v -0.303117 0.59205 -0.190382
v -0.253794 0.591867 -0.228631
v -0.128344 0.527565 -0.309423
v -0.117613 0.544785 -0.30991
v -0.115075 0.553395 -0.309438
v -0.109656 0.509489 -0.314843
v -0.0984226 0.496604 -0.317691
v -0.0984226 0.483719 -0.318817
v -0.0984226 0.472483 -0.319548
v -0.225749 0.582585 -0.259754
v -0.169209 0.581302 -0.28439
v -0.136565 0.575013 -0.299784
v -0.122556 0.573974 -0.304702
v -0.122556 0.56109 -0.306956
v -0.133023 0.582463 -0.298292
v -0.111983 0.406288 -0.321939
v -0.105533 0.406288 -0.322791
v -0.0984226 0.395846 -0.324345
v -0.109656 0.457889 -0.319
v -0.0984226 0.173566 -0.32337
v -0.0984226 0.158422 -0.32235
v -0.0984226 0.149629 -0.321756
v -0.0984226 0.122576 -0.319929
v -0.0984226 0.0709759 -0.315681
v -0.0984226 0.0597398 -0.314432
v -0.100696 0.0158946 -0.309255
v -0.0984226 0.00850568 -0.308722
v -0.0984226 0.00649051 -0.308494
v -0.0984226 -0.00474559 -0.307215
v -0.0984226 -0.00639436 -0.307017
v -0.109656 -0.0193403 -0.303789
v -0.112617 -0.029294 -0.301657
v -0.123296 -0.029294 -0.299404
v -0.130327 -0.029294 -0.297272
v -0.109656 -0.029294 -0.302236
v -0.0984226 0.574524 -0.218505
v -0.214171 0.584539 -0.171105
v -0.23011 0.593088 -0.243507
v -0.225802 0.589729 -0.250633
v -0.245177 0.593393 -0.232285
v -0.319849 0.59376 -0.171105
v -0.259054 0.593577 -0.220043
v -0.315223 0.593882 -0.173618
v -0.250305 0.59376 -0.2249
v -0.122186 0.548754 -0.308433
v -0.110344 0.56225 -0.309118
v -0.106485 0.558708 -0.310016
v -0.110344 0.548754 -0.310565
v -0.0984226 0.524084 -0.314767
v -0.0984226 0.509489 -0.31632
v -0.0984226 0.459598 -0.32037
v -0.21285 0.585027 -0.262403
v -0.187051 0.584111 -0.274173
v -0.161253 0.583073 -0.286004
v -0.122556 0.584295 -0.299921
v -0.109656 0.573974 -0.307154
v -0.148354 0.585333 -0.288669
v -0.108678 0.418562 -0.321604
v -0.0984226 0.406288 -0.32372
v -0.0984226 0.426501 -0.322456
v -0.0984226 0.0323824 -0.311387
v -0.0984226 0.584356 -0.224078
v -0.102599 0.580631 -0.219175
v -0.215704 0.585394 -0.171105
v -0.221519 0.593577 -0.245761
v -0.194162 0.593454 -0.258201
v -0.21285 0.5915 -0.25345
v -0.187051 0.590584 -0.265586
v -0.238621 0.593638 -0.234295
v -0.317761 0.593882 -0.171105
v -0.315382 0.594004 -0.171105
v -0.303117 0.59437 -0.174151
v -0.263785 0.593943 -0.212445
v -0.238621 0.594248 -0.225753
v -0.225802 0.593943 -0.238985
v -0.102995 0.567257 -0.309544
v -0.0984226 0.562738 -0.310641
v -0.161835 0.590218 -0.276564
v -0.135983 0.587653 -0.290374
v -0.122556 0.590706 -0.291486
v -0.109656 0.585455 -0.30117
v -0.0984226 0.574219 -0.308616
v -0.0984226 0.573547 -0.308768
v -0.0984226 0.584844 -0.22452
v -0.228128 0.591317 -0.171105
v -0.187051 0.593699 -0.259145
v -0.21285 0.593821 -0.247009
v -0.157922 0.593638 -0.271737
v -0.130327 0.593516 -0.284192
v -0.166513 0.59321 -0.269925
v -0.148354 0.591806 -0.279609
v -0.306183 0.59437 -0.171105
v -0.303117 0.594431 -0.171105
v -0.277319 0.594554 -0.187047
v -0.26442 0.594493 -0.199944
v -0.251521 0.59437 -0.212856
v -0.21285 0.594431 -0.23865
v -0.109656 0.591867 -0.29243
v -0.0984226 0.586737 -0.300774
v -0.0984226 0.585882 -0.301916
v -0.0984226 0.574707 -0.308357
v -0.0984226 0.585272 -0.225083
v -0.2313 0.592538 -0.171105
v -0.122556 0.59376 -0.28503
v -0.148354 0.593882 -0.273168
v -0.122556 0.59437 -0.277325
v -0.293284 0.594554 -0.171105
v -0.225749 0.594554 -0.225753
v -0.19995 0.594554 -0.23865
v -0.0984226 0.592355 -0.293039
v -0.0984226 0.59205 -0.234402
v -0.0984226 0.592538 -0.235254
v -0.233414 0.593088 -0.171105
v -0.0984226 0.5926 -0.292201
v -0.109656 0.593943 -0.285974
v -0.109656 0.594493 -0.277325
v -0.267486 0.594554 -0.171105
v -0.135455 0.594554 -0.264428
v -0.0984226 0.59376 -0.240523
v -0.24026 0.593882 -0.171105
v -0.0984226 0.593943 -0.286583
v -0.0984226 0.594554 -0.27565
v -0.0984226 0.594493 -0.277325
v -0.254587 0.594431 -0.171105
v -0.251521 0.594493 -0.174151
v -0.0984226 0.594554 -0.251531
v -0.0984226 0.593943 -0.241512
v -0.241899 0.594004 -0.171105
v -0.251706 0.59437 -0.171105
f 1 2 3
f 1 3 4
f 1 4 8
f 1 8 16
f 1 16 24
f 1 24 49
f 1 49 82
f 1 82 75
f 1 75 78
f 1 78 77
f 1 77 122
f 1 122 121
f 1 121 123
f 1 123 177
f 1 177 176
f 1 176 240
f 1 240 239
f 1 239 238
f 1 238 237
f 1 237 310
f 1 310 325
f 1 325 258
f 1 258 257
f 1 257 324
f 1 324 384
f 1 384 452
f 1 452 523
f 1 523 587
f 1 587 630
f 1 630 657
f 1 657 678
f 1 678 696
f 1 696 706
f 1 706 713
f 1 713 721
f 1 721 722
f 1 722 717
f 1 717 710
f 1 710 700
f 1 700 686
f 1 686 685
f 1 685 664
f 1 664 663
f 1 663 634
f 1 634 591
f 1 591 527
f 1 527 525
f 1 525 455
f 1 455 389
f 1 389 387
f 1 387 386
f 1 386 385
f 1 385 395
f 1 395 340
f 1 340 339
f 1 339 269
f 1 269 196
f 1 196 268
f 1 268 267
f 1 267 260
f 1 260 180
f 1 180 126
f 1 126 84
f 1 84 83
f 1 83 53
f 1 53 27
f 1 27 12
f 1 12 5
f 1 5 6
f 1 6 2
f 2 7 3
f 2 6 7
f 3 8 4
f 3 7 9
f 3 9 10
f 3 10 11
f 3 11 8
f 5 12 13
f 5 13 6
f 6 13 14
f 6 14 15
f 6 15 9
f 6 9 7
f 8 11 16
f 9 17 18
f 9 18 10
f 9 15 17
f 10 18 19
f 10 19 20
f 10 20 21
f 10 21 22
f 10 22 11
f 11 22 23
f 11 23 24
f 11 24 16
f 12 25 26
f 12 26 13
f 12 27 25
f 13 26 14
f 14 26 15
f 15 28 29
f 15 29 30
f 15 30 17
f 15 26 25
f 15 25 31
f 15 31 32
f 15 32 28
f 17 33 18
f 17 30 33
f 18 33 34
f 18 34 19
f 19 34 20
f 20 34 21
f 21 35 36
f 21 36 37
f 21 37 38
f 21 38 39
f 21 39 40
f 21 40 41
f 21 41 42
f 21 42 43
f 21 43 44
f 21 44 45
f 21 45 46
f 21 46 22
f 21 34 47
f 21 47 48
f 21 48 35
f 22 46 45
f 22 45 23
f 23 49 24
f 23 45 49
f 25 50 51
f 25 51 52
f 25 52 31
f 25 27 50
f 27 53 54
f 27 54 55
f 27 55 50
f 28 56 29
f 28 32 56
f 29 56 30
f 30 56 33
f 31 52 32
f 32 51 57
f 32 57 58
f 32 58 59
f 32 59 56
f 32 52 51
f 33 56 60
f 33 60 34
f 34 60 61
f 34 61 47
f 35 48 62
f 35 62 63
f 35 63 36
f 36 63 64
f 36 64 37
f 37 65 38
f 37 64 65
f 38 65 66
f 38 66 67
f 38 67 68
f 38 68 39
f 39 68 40
f 40 68 41
f 41 68 69
f 41 69 42
f 42 69 70
f 42 70 71
f 42 71 72
f 42 72 73
f 42 73 74
f 42 74 43
f 43 74 44
f 44 75 45
f 44 74 76
f 44 76 77
f 44 77 78
f 44 78 75
f 45 75 79
f 45 79 49
f 47 61 48
f 48 61 80
f 48 80 81
f 48 81 62
f 49 79 82
f 50 55 51
f 51 55 57
f 53 83 54
f 54 83 55
f 55 83 84
f 55 84 85
f 55 85 57
f 56 59 86
f 56 86 87
f 56 87 60
f 57 85 88
f 57 88 89
f 57 89 90
f 57 90 91
f 57 91 92
f 57 92 93
f 57 93 94
f 57 94 95
f 57 95 96
f 57 96 58
f 58 96 97
f 58 97 86
f 58 86 59
f 60 87 130
f 60 130 98
f 60 98 124
f 60 124 80
f 60 80 61
f 62 81 63
f 63 81 64
f 64 81 99
f 64 99 100
f 64 100 101
f 64 101 65
f 65 101 102
f 65 102 103
f 65 103 66
f 66 103 104
f 66 104 105
f 66 105 67
f 67 106 68
f 67 105 107
f 67 107 108
f 67 108 109
f 67 109 106
f 68 106 110
f 68 110 111
f 68 111 112
f 68 112 69
f 69 112 113
f 69 113 70
f 70 113 114
f 70 114 115
f 70 115 116
f 70 116 71
f 71 117 118
f 71 118 119
f 71 119 120
f 71 120 76
f 71 76 72
f 71 116 117
f 72 76 73
f 73 76 74
f 75 82 79
f 76 121 122
f 76 122 77
f 76 120 123
f 76 123 121
f 80 124 81
f 81 124 125
f 81 125 99
f 84 126 85
f 85 126 127
f 85 127 128
f 85 128 88
f 86 97 150
f 86 150 129
f 86 129 87
f 87 129 182
f 87 182 130
f 88 128 89
f 89 131 132
f 89 132 133
f 89 133 134
f 89 134 135
f 89 135 90
f 89 128 136
f 89 136 137
f 89 137 138
f 89 138 131
f 90 135 91
f 91 135 139
f 91 139 140
f 91 140 141
f 91 141 92
f 92 141 93
f 93 141 142
f 93 142 94
f 94 142 143
f 94 143 144
f 94 144 145
f 94 145 146
f 94 146 95
f 95 146 147
f 95 147 148
f 95 148 149
f 95 149 150
f 95 150 96
f 96 150 97
f 98 130 184
f 98 184 151
f 98 151 125
f 98 125 124
f 99 152 100
f 99 125 151
f 99 151 153
f 99 153 154
f 99 154 152
f 100 152 155
f 100 155 156
f 100 156 102
f 100 102 101
f 102 156 157
f 102 157 158
f 102 158 103
f 103 158 159
f 103 159 104
f 104 159 160
f 104 160 161
f 104 161 108
f 104 108 105
f 105 108 107
f 106 109 162
f 106 162 110
f 108 161 163
f 108 163 164
f 108 164 165
f 108 165 166
f 108 166 167
f 108 167 109
f 109 167 168
f 109 168 162
f 110 162 168
f 110 168 111
f 111 168 112
f 112 114 113
f 112 168 169
f 112 169 114
f 114 169 115
f 115 169 170
f 115 170 171
f 115 171 172
f 115 172 173
f 115 173 117
f 115 117 116
f 117 173 174
f 117 174 118
f 118 175 176
f 118 176 177
f 118 177 119
f 118 174 178
f 118 178 179
f 118 179 175
f 119 177 120
f 120 177 123
f 126 180 127
f 127 136 128
f 127 180 181
f 127 181 137
f 127 137 136
f 129 150 149
f 129 149 182
f 130 182 183
f 130 183 184
f 131 185 132
f 131 138 185
f 132 186 187
f 132 187 188
f 132 188 189
f 132 189 190
f 132 190 133
f 132 185 191
f 132 191 186
f 133 190 192
f 133 192 193
f 133 193 134
f 134 193 192
f 134 192 140
f 134 140 139
f 134 139 135
f 137 194 138
f 137 181 194
f 138 195 196
f 138 196 197
f 138 197 186
f 138 186 191
f 138 191 185
f 138 194 195
f 140 198 142
f 140 142 141
f 140 192 199
f 140 199 198
f 142 198 200
f 142 200 201
f 142 201 143
f 143 201 144
f 144 202 203
f 144 203 204
f 144 204 205
f 144 205 145
f 144 201 206
f 144 206 202
f 145 205 207
f 145 207 208
f 145 208 147
f 145 147 146
f 147 208 209
f 147 209 210
f 147 210 148
f 148 210 183
f 148 183 182
f 148 182 149
f 151 184 212
f 151 212 153
f 152 211 155
f 152 154 211
f 153 212 209
f 153 209 154
f 154 213 211
f 154 209 214
f 154 214 213
f 155 211 157
f 155 157 156
f 157 215 216
f 157 216 158
f 157 211 213
f 157 213 217
f 157 217 218
f 157 218 215
f 158 216 219
f 158 219 220
f 158 220 159
f 159 220 160
f 160 220 221
f 160 221 222
f 160 222 223
f 160 223 161
f 161 223 224
f 161 224 225
f 161 225 226
f 161 226 163
f 163 226 227
f 163 227 164
f 164 228 165
f 164 227 229
f 164 229 230
f 164 230 228
f 165 228 172
f 165 172 168
f 165 168 166
f 166 168 167
f 168 172 171
f 168 171 170
f 168 170 169
f 172 228 231
f 172 231 173
f 173 231 232
f 173 232 233
f 173 233 234
f 173 234 235
f 173 235 179
f 173 179 178
f 173 178 174
f 175 236 237
f 175 237 238
f 175 238 239
f 175 239 240
f 175 240 176
f 175 179 236
f 179 235 241
f 179 241 242
f 179 242 243
f 179 243 244
f 179 244 245
f 179 245 246
f 179 246 247
f 179 247 248
f 179 248 249
f 179 249 250
f 179 250 251
f 179 251 252
f 179 252 253
f 179 253 254
f 179 254 255
f 179 255 256
f 179 256 257
f 179 257 258
f 179 258 259
f 179 259 236
f 180 260 181
f 181 260 194
f 183 210 212
f 183 212 184
f 186 197 261
f 186 261 262
f 186 262 187
f 187 263 264
f 187 264 265
f 187 265 188
f 187 262 261
f 187 261 263
f 188 266 189
f 188 265 266
f 189 266 190
f 190 199 192
f 190 266 199
f 194 260 267
f 194 267 195
f 195 268 196
f 195 267 268
f 196 269 270
f 196 270 197
f 197 270 271
f 197 271 261
f 198 199 200
f 199 266 272
f 199 272 200
f 200 272 206
f 200 206 201
f 202 206 203
f 203 273 274
f 203 274 275
f 203 275 276
f 203 276 277
f 203 277 204
f 203 206 278
f 203 278 273
f 204 277 205
f 205 279 207
f 205 277 279
f 206 272 278
f 207 279 280
f 207 280 281
f 207 281 209
f 207 209 208
f 209 212 210
f 209 281 282
f 209 282 214
f 213 214 217
f 214 280 217
f 214 282 280
f 215 283 284
f 215 284 216
f 215 218 285
f 215 285 286
f 215 286 283
f 216 284 287
f 216 287 219
f 217 280 218
f 218 280 288
f 218 288 285
f 219 289 290
f 219 290 220
f 219 287 289
f 220 290 291
f 220 291 221
f 221 291 292
f 221 292 293
f 221 293 294
f 221 294 295
f 221 295 222
f 222 295 224
f 222 224 223
f 224 295 225
f 225 295 296
f 225 296 297
f 225 297 298
f 225 298 299
f 225 299 300
f 225 300 229
f 225 229 226
f 226 229 227
f 228 301 231
f 228 230 302
f 228 302 303
f 228 303 301
f 229 304 305
f 229 305 230
f 229 300 306
f 229 306 304
f 230 305 302
f 231 301 232
f 232 301 233
f 233 301 235
f 233 235 234
f 235 301 307
f 235 307 308
f 235 308 241
f 236 259 309
f 236 309 310
f 236 310 237
f 241 308 242
f 242 311 312
f 242 312 313
f 242 313 243
f 242 308 314
f 242 314 311
f 243 313 244
f 244 313 245
f 245 313 246
f 246 313 315
f 246 315 247
f 247 315 248
f 248 316 317
f 248 317 318
f 248 318 249
f 248 315 311
f 248 311 319
f 248 319 320
f 248 320 305
f 248 305 321
f 248 321 322
f 248 322 316
f 249 318 323
f 249 323 250
f 250 323 383
f 250 383 382
f 250 382 450
f 250 450 520
f 250 520 519
f 250 519 518
f 250 518 583
f 250 583 582
f 250 582 627
f 250 627 626
f 250 626 625
f 250 625 628
f 250 628 584
f 250 584 521
f 250 521 451
f 250 451 384
f 250 384 324
f 250 324 255
f 250 255 254
f 250 254 252
f 250 252 251
f 252 254 253
f 255 324 256
f 256 324 257
f 258 325 259
f 259 325 310
f 259 310 309
f 261 326 327
f 261 327 328
f 261 328 329
f 261 329 330
f 261 330 263
f 261 271 331
f 261 331 326
f 263 332 333
f 263 333 264
f 263 330 334
f 263 334 335
f 263 335 332
f 264 333 265
f 265 333 336
f 265 336 337
f 265 337 338
f 265 338 266
f 266 338 272
f 269 339 270
f 270 339 340
f 270 340 271
f 271 340 331
f 272 338 278
f 273 341 274
f 273 278 341
f 274 342 343
f 274 343 275
f 274 341 344
f 274 344 345
f 274 345 346
f 274 346 347
f 274 347 348
f 274 348 342
f 275 343 349
f 275 349 350
f 275 350 276
f 276 351 352
f 276 352 353
f 276 353 277
f 276 350 349
f 276 349 351
f 277 353 354
f 277 354 279
f 278 338 355
f 278 355 344
f 278 344 341
f 279 354 356
f 279 356 357
f 279 357 280
f 280 357 288
f 280 282 281
f 283 358 359
f 283 359 360
f 283 360 284
f 283 286 361
f 283 361 362
f 283 362 358
f 284 360 287
f 285 288 286
f 286 288 363
f 286 363 361
f 287 360 289
f 288 364 363
f 288 357 364
f 289 360 359
f 289 359 290
f 290 365 291
f 290 359 365
f 291 365 366
f 291 366 292
f 292 366 367
f 292 367 293
f 293 367 368
f 293 368 294
f 294 368 296
f 294 296 295
f 296 368 297
f 297 369 298
f 297 368 370
f 297 370 369
f 298 371 372
f 298 372 373
f 298 373 374
f 298 374 299
f 298 369 371
f 299 374 375
f 299 375 376
f 299 376 300
f 300 376 377
f 300 377 306
f 301 303 307
f 302 305 303
f 303 305 378
f 303 378 379
f 303 379 307
f 304 306 305
f 305 306 321
f 305 320 380
f 305 380 378
f 306 377 322
f 306 322 321
f 307 314 308
f 307 379 380
f 307 380 311
f 307 311 314
f 311 380 319
f 311 315 313
f 311 313 312
f 316 377 317
f 316 322 377
f 317 377 381
f 317 381 318
f 318 381 382
f 318 382 383
f 318 383 323
f 319 380 320
f 326 385 327
f 326 331 385
f 327 385 386
f 327 386 387
f 327 387 328
f 328 388 329
f 328 387 389
f 328 389 390
f 328 390 391
f 328 391 392
f 328 392 388
f 329 393 330
f 329 388 394
f 329 394 393
f 330 393 334
f 331 340 395
f 331 395 385
f 332 396 333
f 332 335 397
f 332 397 396
f 333 396 397
f 333 397 398
f 333 398 399
f 333 399 336
f 334 393 400
f 334 400 335
f 335 400 397
f 336 399 398
f 336 398 401
f 336 401 337
f 337 355 338
f 337 401 402
f 337 402 403
f 337 403 355
f 342 404 405
f 342 405 406
f 342 406 407
f 342 407 343
f 342 348 408
f 342 408 409
f 342 409 404
f 343 407 349
f 344 355 410
f 344 410 345
f 345 410 346
f 346 410 411
f 346 411 412
f 346 412 413
f 346 413 414
f 346 414 415
f 346 415 408
f 346 408 348
f 346 348 347
f 349 416 417
f 349 417 351
f 349 407 406
f 349 406 416
f 351 417 416
f 351 416 352
f 352 418 354
f 352 354 353
f 352 416 418
f 354 419 420
f 354 420 356
f 354 418 421
f 354 421 419
f 355 403 410
f 356 420 357
f 357 422 423
f 357 423 364
f 357 420 422
f 358 424 425
f 358 425 426
f 358 426 427
f 358 427 428
f 358 428 359
f 358 362 429
f 358 429 424
f 359 428 430
f 359 430 365
f 361 363 362
f 362 431 496
f 362 496 429
f 362 363 419
f 362 419 431
f 363 364 432
f 363 432 422
f 363 422 419
f 364 423 432
f 365 430 433
f 365 433 366
f 366 433 369
f 366 369 367
f 367 369 370
f 367 370 368
f 369 434 371
f 369 433 435
f 369 435 434
f 371 434 436
f 371 436 437
f 371 437 372
f 372 437 438
f 372 438 373
f 373 438 374
f 374 438 375
f 375 438 439
f 375 439 440
f 375 440 441
f 375 441 376
f 376 441 442
f 376 442 377
f 377 442 443
f 377 443 444
f 377 444 445
f 377 445 446
f 377 446 447
f 377 447 448
f 377 448 449
f 377 449 450
f 377 450 381
f 378 380 379
f 381 450 382
f 384 451 452
f 388 392 453
f 388 453 454
f 388 454 394
f 389 455 390
f 390 455 391
f 391 456 457
f 391 457 458
f 391 458 392
f 391 455 459
f 391 459 460
f 391 460 461
f 391 461 462
f 391 462 463
f 391 463 456
f 392 458 457
f 392 457 453
f 393 394 400
f 394 454 400
f 397 400 464
f 397 464 402
f 397 402 401
f 397 401 398
f 400 454 464
f 402 410 465
f 402 465 403
f 402 464 454
f 402 454 466
f 402 466 467
f 402 467 468
f 402 468 411
f 402 411 410
f 403 465 410
f 404 409 405
f 405 409 469
f 405 469 406
f 406 469 416
f 408 415 409
f 409 415 470
f 409 470 471
f 409 471 472
f 409 472 473
f 409 473 469
f 411 468 474
f 411 474 412
f 412 475 476
f 412 476 477
f 412 477 478
f 412 478 413
f 412 474 479
f 412 479 480
f 412 480 481
f 412 481 475
f 413 478 414
f 414 478 415
f 415 478 482
f 415 482 477
f 415 477 476
f 415 476 483
f 415 483 484
f 415 484 485
f 415 485 486
f 415 486 470
f 416 469 473
f 416 473 421
f 416 421 487
f 416 487 418
f 418 487 421
f 419 421 488
f 419 488 489
f 419 489 490
f 419 490 431
f 419 422 420
f 421 473 491
f 421 491 488
f 422 432 423
f 424 492 425
f 424 429 492
f 425 492 426
f 426 492 427
f 427 492 493
f 427 493 494
f 427 494 428
f 428 494 430
f 429 495 492
f 429 496 497
f 429 497 495
f 430 498 433
f 430 494 498
f 431 490 499
f 431 499 500
f 431 500 501
f 431 501 496
f 433 498 502
f 433 502 503
f 433 503 504
f 433 504 435
f 434 504 505
f 434 505 436
f 434 435 504
f 436 505 506
f 436 506 507
f 436 507 508
f 436 508 509
f 436 509 437
f 437 509 510
f 437 510 440
f 437 440 439
f 437 439 438
f 440 510 511
f 440 511 441
f 441 511 512
f 441 512 442
f 442 512 443
f 443 512 444
f 444 512 445
f 445 512 513
f 445 513 446
f 446 513 514
f 446 514 447
f 447 514 515
f 447 515 448
f 448 515 516
f 448 516 517
f 448 517 449
f 449 517 518
f 449 518 519
f 449 519 520
f 449 520 450
f 451 521 585
f 451 585 623
f 451 623 622
f 451 622 621
f 451 621 620
f 451 620 654
f 451 654 618
f 451 618 617
f 451 617 570
f 451 570 569
f 451 569 568
f 451 568 567
f 451 567 566
f 451 566 616
f 451 616 615
f 451 615 614
f 451 614 613
f 451 613 559
f 451 559 558
f 451 558 557
f 451 557 549
f 451 549 548
f 451 548 550
f 451 550 554
f 451 554 553
f 451 553 556
f 451 556 563
f 451 563 562
f 451 562 611
f 451 611 652
f 451 652 653
f 451 653 644
f 451 644 602
f 451 602 601
f 451 601 600
f 451 600 643
f 451 643 642
f 451 642 670
f 451 670 676
f 451 676 675
f 451 675 694
f 451 694 693
f 451 693 692
f 451 692 703
f 451 703 707
f 451 707 714
f 451 714 716
f 451 716 715
f 451 715 719
f 451 719 720
f 451 720 712
f 451 712 705
f 451 705 704
f 451 704 695
f 451 695 677
f 451 677 655
f 451 655 629
f 451 629 586
f 451 586 522
f 451 522 452
f 452 522 523
f 453 524 454
f 453 457 524
f 454 524 468
f 454 468 466
f 455 525 459
f 456 463 526
f 456 526 457
f 457 526 524
f 459 525 527
f 459 527 460
f 460 527 528
f 460 528 461
f 461 528 529
f 461 529 530
f 461 530 462
f 462 526 463
f 462 530 531
f 462 531 532
f 462 532 526
f 466 468 467
f 468 524 533
f 468 533 474
f 470 486 484
f 470 484 534
f 470 534 535
f 470 535 471
f 471 535 536
f 471 536 537
f 471 537 472
f 472 537 538
f 472 538 473
f 473 538 491
f 474 533 539
f 474 539 479
f 475 540 476
f 475 481 540
f 476 540 483
f 477 482 478
f 479 539 541
f 479 541 480
f 480 541 542
f 480 542 543
f 480 543 481
f 481 543 540
f 483 544 484
f 483 540 544
f 484 544 534
f 484 486 485
f 488 491 545
f 488 545 499
f 488 499 489
f 489 499 490
f 491 546 499
f 491 499 545
f 491 538 537
f 491 537 547
f 491 547 546
f 492 548 549
f 492 549 493
f 492 495 550
f 492 550 548
f 493 549 551
f 493 551 494
f 494 552 498
f 494 551 552
f 495 497 550
f 496 501 497
f 497 553 554
f 497 554 550
f 497 501 500
f 497 500 499
f 497 499 555
f 497 555 556
f 497 556 553
f 498 552 557
f 498 557 558
f 498 558 559
f 498 559 560
f 498 560 502
f 499 546 561
f 499 561 562
f 499 562 563
f 499 563 564
f 499 564 555
f 502 560 503
f 503 560 565
f 503 565 566
f 503 566 504
f 504 566 567
f 504 567 568
f 504 568 505
f 505 568 569
f 505 569 570
f 505 570 571
f 505 571 506
f 506 508 572
f 506 572 507
f 506 571 573
f 506 573 574
f 506 574 575
f 506 575 576
f 506 576 577
f 506 577 508
f 507 572 508
f 508 577 509
f 509 577 576
f 509 576 515
f 509 515 514
f 509 514 578
f 509 578 510
f 510 578 579
f 510 579 511
f 511 579 512
f 512 579 513
f 513 579 578
f 513 578 514
f 515 580 581
f 515 581 582
f 515 582 583
f 515 583 516
f 515 576 580
f 516 583 518
f 516 518 517
f 521 584 585
f 522 586 523
f 523 586 587
f 524 526 539
f 524 539 533
f 526 588 539
f 526 532 589
f 526 589 590
f 526 590 588
f 527 591 528
f 528 591 592
f 528 592 593
f 528 593 594
f 528 594 529
f 529 594 530
f 530 594 595
f 530 595 589
f 530 589 531
f 531 589 532
f 534 544 535
f 535 544 596
f 535 596 597
f 535 597 598
f 535 598 536
f 536 599 643
f 536 643 600
f 536 600 601
f 536 601 537
f 536 598 599
f 537 601 602
f 537 602 547
f 539 588 603
f 539 603 604
f 539 604 542
f 539 542 541
f 540 543 605
f 540 605 606
f 540 606 607
f 540 607 596
f 540 596 544
f 542 605 543
f 542 604 608
f 542 608 606
f 542 606 605
f 546 609 610
f 546 610 611
f 546 611 562
f 546 562 561
f 546 547 612
f 546 612 609
f 547 602 644
f 547 644 612
f 549 557 552
f 549 552 551
f 555 564 556
f 556 564 563
f 559 613 560
f 560 613 565
f 565 613 614
f 565 614 615
f 565 615 616
f 565 616 566
f 570 617 571
f 571 617 618
f 571 618 619
f 571 619 573
f 573 619 574
f 574 619 620
f 574 620 621
f 574 621 622
f 574 622 575
f 575 622 623
f 575 623 585
f 575 585 624
f 575 624 576
f 576 624 580
f 580 624 625
f 580 625 626
f 580 626 627
f 580 627 581
f 581 627 582
f 584 628 624
f 584 624 585
f 586 629 587
f 587 629 630
f 588 590 631
f 588 631 632
f 588 632 603
f 589 595 590
f 590 595 633
f 590 633 631
f 591 634 592
f 592 635 633
f 592 633 593
f 592 634 636
f 592 636 637
f 592 637 635
f 593 633 594
f 594 633 595
f 596 607 638
f 596 638 597
f 597 638 607
f 597 607 598
f 598 607 639
f 598 639 640
f 598 640 641
f 598 641 599
f 599 642 643
f 599 641 640
f 599 640 642
f 603 632 645
f 603 645 646
f 603 646 647
f 603 647 608
f 603 608 604
f 606 608 648
f 606 648 649
f 606 649 639
f 606 639 607
f 608 647 650
f 608 650 648
f 609 651 610
f 609 612 651
f 610 652 611
f 610 651 612
f 610 612 653
f 610 653 652
f 612 644 653
f 618 654 619
f 619 654 620
f 624 628 625
f 629 655 656
f 629 656 630
f 630 656 655
f 630 655 657
f 631 633 658
f 631 658 659
f 631 659 660
f 631 660 632
f 632 660 661
f 632 661 645
f 633 635 637
f 633 637 662
f 633 662 658
f 634 663 636
f 636 663 664
f 636 664 665
f 636 665 666
f 636 666 637
f 637 666 667
f 637 667 668
f 637 668 662
f 639 649 669
f 639 669 640
f 640 669 670
f 640 670 642
f 645 661 671
f 645 671 650
f 645 650 646
f 646 650 647
f 648 650 672
f 648 672 673
f 648 673 674
f 648 674 649
f 649 674 675
f 649 675 676
f 649 676 669
f 650 671 672
f 655 677 657
f 657 677 678
f 658 679 659
f 658 662 668
f 658 668 680
f 658 680 679
f 659 679 681
f 659 681 682
f 659 682 683
f 659 683 684
f 659 684 671
f 659 671 661
f 659 661 660
f 664 685 665
f 665 685 686
f 665 686 687
f 665 687 688
f 665 688 689
f 665 689 667
f 665 667 666
f 667 689 701
f 667 701 690
f 667 690 668
f 668 690 680
f 669 676 670
f 671 684 673
f 671 673 672
f 673 684 682
f 673 682 691
f 673 691 674
f 674 691 692
f 674 692 693
f 674 693 694
f 674 694 675
f 677 695 696
f 677 696 678
f 679 697 681
f 679 680 698
f 679 698 697
f 680 690 699
f 680 699 698
f 681 697 682
f 682 697 691
f 682 684 683
f 686 700 687
f 687 700 710
f 687 710 719
f 687 719 715
f 687 715 711
f 687 711 702
f 687 702 701
f 687 701 688
f 688 701 689
f 690 701 702
f 690 702 709
f 690 709 699
f 691 697 703
f 691 703 692
f 695 704 696
f 696 704 705
f 696 705 706
f 697 707 703
f 697 698 699
f 697 699 708
f 697 708 707
f 699 709 708
f 702 711 709
f 705 712 713
f 705 713 706
f 707 708 714
f 708 709 714
f 709 711 715
f 709 715 716
f 709 716 714
f 710 717 718
f 710 718 719
f 712 720 713
f 713 720 721
f 717 722 719
f 717 719 718
f 719 722 720
f 720 722 721
