v -0.392056 -0.367087 0.105276
v -0.384499 -0.392905 0.105276
v -0.386515 -0.398293 0.132542
v -0.396117 -0.367087 0.136142
v -0.298832 -0.367087 0.105276
v -0.380307 -0.406333 0.105276
v -0.38708 -0.400191 0.141146
v -0.390011 -0.393436 0.148345
v -0.397016 -0.367087 0.14299
v -0.294655 -0.367087 0.233391
v -0.294336 -0.367924 0.233391
v -0.249791 -0.487514 0.233391
v -0.256129 -0.487514 0.105276
v -0.380887 -0.406333 0.109653
v -0.379074 -0.41 0.105276
v -0.387545 -0.401629 0.148345
v -0.385398 -0.408078 0.148345
v -0.390199 -0.393436 0.16125
v -0.3978 -0.367087 0.148985
v -0.388589 -0.367087 0.233391
v -0.349266 -0.487514 0.233391
v -0.352704 -0.487514 0.105276
v -0.376173 -0.420185 0.10924
v -0.378247 -0.419242 0.122546
v -0.37597 -0.419219 0.105276
v -0.387646 -0.401912 0.16125
v -0.381641 -0.419242 0.148345
v -0.361697 -0.478801 0.150853
v -0.385499 -0.408361 0.16125
v -0.387197 -0.400568 0.169377
v -0.397959 -0.367087 0.160786
v -0.388618 -0.367087 0.23319
v -0.387545 -0.370671 0.233391
v -0.35047 -0.484 0.233391
v -0.351572 -0.483729 0.22574
v -0.349397 -0.487514 0.2324
v -0.35617 -0.487514 0.131664
v -0.357998 -0.483729 0.135452
v -0.356301 -0.483729 0.122546
v -0.354604 -0.483729 0.109653
v -0.354024 -0.483729 0.105276
v -0.3742 -0.424453 0.105276
v -0.360914 -0.463499 0.105276
v -0.35984 -0.473331 0.122546
v -0.359681 -0.483352 0.147266
v -0.358259 -0.487514 0.147605
v -0.35852 -0.487514 0.158504
v -0.358564 -0.487514 0.16125
v -0.359434 -0.485038 0.16125
v -0.38183 -0.419242 0.16125
v -0.388546 -0.394025 0.173855
v -0.396233 -0.367641 0.174131
v -0.374244 -0.43906 0.168964
v -0.380307 -0.419242 0.174131
v -0.384977 -0.405461 0.173855
v -0.377855 -0.406333 0.22574
v -0.376695 -0.406781 0.233391
v -0.379248 -0.398682 0.233391
v -0.386631 -0.398717 0.177981
v -0.396393 -0.367087 0.174131
v -0.389503 -0.367087 0.226493
v -0.391229 -0.367087 0.213399
v -0.385645 -0.38022 0.226606
v -0.386761 -0.373347 0.233391
v -0.361363 -0.452005 0.233391
v -0.355967 -0.47082 0.22574
v -0.361262 -0.477505 0.168286
v -0.358883 -0.482574 0.173203
v -0.355837 -0.487514 0.183249
v -0.357099 -0.487514 0.173529
v -0.394696 -0.367087 0.187061
v -0.39632 -0.367087 0.174695
v -0.374577 -0.427153 0.197258
v -0.37639 -0.420409 0.200908
v -0.374896 -0.415187 0.22574
v -0.374389 -0.413701 0.233391
v -0.380872 -0.393436 0.233391
v -0.381888 -0.393436 0.22574
v -0.386036 -0.396678 0.187036
v -0.388778 -0.381387 0.20023
v -0.383121 -0.385773 0.233391
v -0.373228 -0.41712 0.233391
v -0.372706 -0.421636 0.22574
f 1 2 3
f 1 3 4
f 1 4 9
f 1 9 19
f 1 19 31
f 1 31 60
f 1 60 72
f 1 72 71
f 1 71 62
f 1 62 61
f 1 61 32
f 1 32 20
f 1 20 10
f 1 10 5
f 1 5 13
f 1 13 22
f 1 22 41
f 1 41 43
f 1 43 42
f 1 42 25
f 1 25 15
f 1 15 6
f 1 6 2
f 2 6 3
f 3 6 7
f 3 7 8
f 3 8 9
f 3 9 4
f 5 10 11
f 5 11 12
f 5 12 13
f 6 14 7
f 6 15 14
f 7 16 8
f 7 14 17
f 7 17 16
f 8 16 18
f 8 18 19
f 8 19 9
f 10 20 33
f 10 33 64
f 10 64 81
f 10 81 77
f 10 77 58
f 10 58 57
f 10 57 76
f 10 76 82
f 10 82 65
f 10 65 34
f 10 34 21
f 10 21 12
f 10 12 11
f 12 21 36
f 12 36 69
f 12 69 70
f 12 70 48
f 12 48 47
f 12 47 46
f 12 46 37
f 12 37 22
f 12 22 13
f 14 15 23
f 14 23 24
f 14 24 17
f 15 25 23
f 16 26 18
f 16 17 29
f 16 29 26
f 17 24 27
f 17 27 28
f 17 28 29
f 18 26 30
f 18 30 31
f 18 31 19
f 20 32 33
f 21 34 35
f 21 35 36
f 22 37 38
f 22 38 39
f 22 39 40
f 22 40 41
f 23 25 42
f 23 42 24
f 24 42 43
f 24 43 44
f 24 44 27
f 26 29 30
f 27 44 45
f 27 45 28
f 28 45 46
f 28 46 47
f 28 47 48
f 28 48 49
f 28 49 50
f 28 50 29
f 29 50 30
f 30 51 52
f 30 52 31
f 30 50 53
f 30 53 54
f 30 54 55
f 30 55 56
f 30 56 57
f 30 57 58
f 30 58 59
f 30 59 51
f 31 52 60
f 32 61 33
f 33 61 62
f 33 62 63
f 33 63 64
f 34 65 35
f 35 65 66
f 35 66 67
f 35 67 68
f 35 68 36
f 36 68 69
f 37 46 45
f 37 45 38
f 38 45 39
f 39 45 44
f 39 44 40
f 40 44 43
f 40 43 41
f 48 70 67
f 48 67 49
f 49 67 50
f 50 67 53
f 51 59 52
f 52 71 72
f 52 72 60
f 52 59 71
f 53 67 54
f 54 67 73
f 54 73 74
f 54 74 75
f 54 75 55
f 55 75 76
f 55 76 56
f 56 76 57
f 58 77 59
f 59 77 78
f 59 78 79
f 59 79 80
f 59 80 71
f 62 71 80
f 62 80 63
f 63 78 64
f 63 80 78
f 64 78 81
f 65 82 83
f 65 83 67
f 65 67 66
f 67 70 68
f 67 83 73
f 68 70 69
f 73 83 74
f 74 83 75
f 75 83 82
f 75 82 76
f 77 81 78
f 78 80 79
