v 0.13941 -0.367087 0.526365
v 0.13671 -0.367087 0.527487
v 0.13941 -0.390642 0.518975
v 0.13941 -0.367087 0.426172
v 0.125076 -0.367087 0.532305
v 0.13941 -0.397196 0.516903
v 0.12168 -0.392728 0.525657
v 0.13941 -0.367287 0.426085
v 7.94529e-05 -0.367087 0.460876
v 0.123399 -0.367087 0.532995
v 0.119621 -0.380538 0.530336
v 0.13941 -0.399932 0.516023
v 0.113552 -0.396548 0.527815
v 0.13941 -0.487514 0.377689
v 0.136792 -0.487514 0.378242
v 7.94529e-05 -0.367087 0.554059
v 7.94529e-05 -0.487514 0.417953
v 0.108874 -0.367087 0.538969
v 0.132537 -0.404011 0.517439
v 0.13941 -0.407217 0.51345
v 0.10496 -0.401959 0.529594
v 0.109406 -0.392728 0.530716
v 0.13941 -0.487514 0.484133
v 7.94529e-05 -0.374986 0.551763
v 0.00646227 -0.367087 0.554059
v 7.94529e-05 -0.487514 0.514745
v 0.100432 -0.367087 0.541542
v 0.12374 -0.407524 0.519839
v 0.136274 -0.407524 0.514642
v 0.128827 -0.412617 0.515902
v 0.13941 -0.419183 0.509134
v 0.109638 -0.419242 0.521444
v 0.109406 -0.406286 0.52621
v 0.0967355 -0.393436 0.534204
v 0.0957535 -0.406286 0.530284
v 0.0994087 -0.410554 0.528074
v 0.0910482 -0.487514 0.503402
v 0.104059 -0.439555 0.516334
v 0.13941 -0.483918 0.48548
v 0.126604 -0.487514 0.489485
v 7.94529e-05 -0.386905 0.548275
v 0.00646227 -0.393436 0.546359
v 0.00868535 -0.367087 0.553783
v 0.00646227 -0.487514 0.514745
v 7.94529e-05 -0.487054 0.514918
v 0.0967355 -0.367087 0.542181
v 0.0967355 -0.371307 0.540903
v 0.135442 -0.419242 0.510757
v 0.13941 -0.438329 0.502141
v 0.109638 -0.483729 0.497894
v 0.0908028 -0.413088 0.528972
v 0.0838335 -0.393436 0.536207
v 0.0903391 -0.451509 0.515988
v 0.0873386 -0.487514 0.504144
v 0.0936668 -0.487514 0.502521
v 0.0979357 -0.484873 0.50202
v 0.10305 -0.477127 0.503022
v 0.13941 -0.479073 0.487258
v 0.109678 -0.487514 0.496444
v 7.94529e-05 -0.393436 0.546359
v 0.0193507 -0.393436 0.544684
v 0.0180823 -0.367087 0.552575
v 0.00646227 -0.403975 0.543113
v 0.0193507 -0.401464 0.542284
v 0.026279 -0.400073 0.541835
v 0.00646227 -0.487054 0.514918
v 7.94529e-05 -0.425608 0.535827
v 0.0945124 -0.367087 0.542491
v 0.0838335 -0.406333 0.532166
v 0.0838335 -0.414479 0.529438
v 0.0838335 -0.432128 0.523447
v 0.0883751 -0.373229 0.541524
v 0.0451547 -0.395853 0.540592
v 0.0348849 -0.398163 0.541265
v 0.0580567 -0.483729 0.509289
v 0.0709451 -0.423427 0.528109
v 0.0541561 -0.426681 0.529214
v 0.0976766 -0.487514 0.50114
v 0.10586 -0.487514 0.497946
v 7.94529e-05 -0.403975 0.543113
v 0.0322527 -0.380538 0.546773
v 0.0322527 -0.367087 0.55071
v 7.94529e-05 -0.407158 0.54206
v 0.00646227 -0.410424 0.540972
v 0.0193507 -0.407913 0.540143
v 0.0580567 -0.406333 0.535568
v 0.016582 -0.478695 0.516455
v 0.00646227 -0.457923 0.524828
v 0.00646227 -0.419242 0.537985
v 7.94529e-05 -0.414774 0.539504
v 0.0852246 -0.367087 0.543734
v 0.0709451 -0.416979 0.530302
v 0.0586159 -0.367087 0.547239
v 0.0451547 -0.419242 0.532926
v 0.0309979 -0.432423 0.530302
v 7.94529e-05 -0.410424 0.540972
v 0.0193507 -0.419242 0.53631
f 1 2 3
f 1 3 6
f 1 6 12
f 1 12 20
f 1 20 31
f 1 31 49
f 1 49 58
f 1 58 39
f 1 39 23
f 1 23 14
f 1 14 8
f 1 8 4
f 1 4 9
f 1 9 16
f 1 16 25
f 1 25 43
f 1 43 62
f 1 62 82
f 1 82 93
f 1 93 91
f 1 91 68
f 1 68 46
f 1 46 27
f 1 27 18
f 1 18 10
f 1 10 5
f 1 5 2
f 2 5 3
f 3 5 7
f 3 7 6
f 4 8 9
f 5 10 11
f 5 11 7
f 6 7 13
f 6 13 12
f 7 11 13
f 8 14 15
f 8 15 9
f 9 15 17
f 9 17 26
f 9 26 45
f 9 45 67
f 9 67 90
f 9 90 96
f 9 96 83
f 9 83 80
f 9 80 60
f 9 60 41
f 9 41 24
f 9 24 16
f 10 18 11
f 11 18 13
f 12 19 20
f 12 13 21
f 12 21 19
f 13 18 22
f 13 22 21
f 14 23 40
f 14 40 59
f 14 59 79
f 14 79 78
f 14 78 55
f 14 55 37
f 14 37 54
f 14 54 44
f 14 44 26
f 14 26 17
f 14 17 15
f 16 24 25
f 18 27 21
f 18 21 22
f 19 21 28
f 19 28 20
f 20 29 30
f 20 30 31
f 20 28 29
f 21 32 33
f 21 33 28
f 21 27 34
f 21 34 35
f 21 35 36
f 21 36 37
f 21 37 38
f 21 38 32
f 23 39 40
f 24 41 42
f 24 42 25
f 25 42 43
f 26 44 66
f 26 66 45
f 27 46 47
f 27 47 34
f 28 33 30
f 28 30 29
f 30 48 31
f 30 33 32
f 30 32 48
f 31 48 40
f 31 40 49
f 32 38 50
f 32 50 40
f 32 40 48
f 34 51 35
f 34 47 52
f 34 52 51
f 35 51 53
f 35 53 36
f 36 53 37
f 37 53 54
f 37 55 38
f 38 55 56
f 38 56 57
f 38 57 50
f 39 58 40
f 40 58 49
f 40 50 59
f 41 60 42
f 42 61 62
f 42 62 43
f 42 60 80
f 42 80 63
f 42 63 64
f 42 64 65
f 42 65 61
f 44 54 66
f 45 66 67
f 46 68 52
f 46 52 47
f 50 57 59
f 51 52 69
f 51 69 70
f 51 70 71
f 51 71 53
f 52 68 72
f 52 72 73
f 52 73 74
f 52 74 65
f 52 65 69
f 53 71 54
f 54 75 66
f 54 71 76
f 54 76 77
f 54 77 75
f 55 78 56
f 56 78 57
f 57 78 79
f 57 79 59
f 61 65 62
f 62 81 82
f 62 65 74
f 62 74 81
f 63 80 83
f 63 83 84
f 63 84 85
f 63 85 64
f 64 85 65
f 65 85 86
f 65 86 69
f 66 75 87
f 66 87 88
f 66 88 67
f 67 88 89
f 67 89 90
f 68 91 72
f 69 86 70
f 70 86 92
f 70 92 71
f 71 92 76
f 72 91 93
f 72 93 82
f 72 82 81
f 72 81 73
f 73 81 74
f 75 77 87
f 76 92 77
f 77 92 94
f 77 94 95
f 77 95 87
f 83 96 84
f 84 96 90
f 84 90 89
f 84 89 97
f 84 97 85
f 85 97 94
f 85 94 92
f 85 92 86
f 87 95 97
f 87 97 89
f 87 89 88
f 94 97 95
