v -0.0984226 0.324043 -0.32609
v -0.0193568 0.324043 -0.336497
v -0.0984226 0.324043 -0.233324
v -0.0984226 0.380549 -0.324989
v -0.0656968 0.419474 -0.345078
v -0.0634183 0.405837 -0.345078
v -0.0585764 0.393445 -0.345078
v -0.0533927 0.384574 -0.345078
v -0.049334 0.379728 -0.345078
v -0.0412736 0.371467 -0.345078
v -0.0349506 0.367442 -0.345078
v -0.00645446 0.324043 -0.338161
v 0.0470631 0.324043 -0.240217
v -0.0984226 0.560978 -0.2173
v -0.0984226 0.393312 -0.324501
v -0.0652981 0.428238 -0.345078
v -0.0329142 0.366701 -0.345078
v 0.00644785 0.324043 -0.338161
v -0.0193568 0.364 -0.345078
v -0.00645446 0.362729 -0.345078
v 0.0470631 0.324043 -0.332844
v 0.0470631 0.56111 -0.224906
v 0.0470631 0.574006 -0.225719
v -0.0984226 0.572682 -0.218101
v -0.0984226 0.395907 -0.324351
v -0.0984226 0.40634 -0.323725
v -0.0984226 0.408167 -0.323613
v -0.0984226 0.419712 -0.322887
v -0.0984226 0.447091 -0.321161
v -0.0984226 0.459589 -0.320373
v -0.0984226 0.470817 -0.31966
v -0.0984226 0.483712 -0.318822
v -0.0984226 0.496607 -0.317696
v -0.0984226 0.522424 -0.314944
v -0.0984226 0.536962 -0.313393
v -0.0984226 0.562752 -0.310641
v -0.0648709 0.429853 -0.345078
v 0.0113325 0.324043 -0.337535
v -0.00540063 0.362914 -0.345078
v 0.00644785 0.365483 -0.345078
v 0.0162883 0.368634 -0.345078
v 0.0180115 0.369269 -0.345078
v 0.0458668 0.324043 -0.333007
v 0.0193786 0.370461 -0.345078
v 0.0294185 0.379834 -0.345078
v 0.0312414 0.381608 -0.345078
v 0.0327794 0.383912 -0.345078
v 0.0397717 0.398449 -0.345078
v 0.0421215 0.405122 -0.345078
v 0.042449 0.406313 -0.345078
v 0.0441437 0.419235 -0.345078
v 0.0470631 0.41431 -0.338861
v 0.0470631 0.583618 -0.229684
v -0.0984226 0.574562 -0.218514
v -0.0984226 0.573503 -0.218163
v -0.0984226 0.573556 -0.308777
v -0.0593454 0.445052 -0.345078
v -0.0605274 0.442087 -0.345078
v -0.0634325 0.434699 -0.345078
v 0.0193359 0.324043 -0.336497
v 0.0292476 0.324043 -0.335196
v 0.0223977 0.324043 -0.336097
v 0.0439016 0.421989 -0.345078
v 0.0470631 0.56111 -0.317571
v 0.0470631 0.432501 -0.336997
v 0.0470631 0.419235 -0.338986
v -0.0984226 0.585286 -0.225081
v -0.0984226 0.584836 -0.224518
v -0.0984226 0.584333 -0.22408
v -0.0939794 0.577395 -0.220152
v 0.0470631 0.590079 -0.237827
v -0.0984226 0.574244 -0.308615
v -0.0412878 0.46658 -0.345078
v -0.0429113 0.465044 -0.345078
v -0.047739 0.460463 -0.345078
v -0.0539623 0.454055 -0.345078
v -0.0552155 0.451963 -0.345078
v 0.0423208 0.432607 -0.345078
v 0.0470631 0.574006 -0.315407
v 0.0470631 0.572099 -0.315732
v -0.0984226 0.592091 -0.2344
v 0.0470631 0.59368 -0.244269
v -0.0984226 0.592594 -0.235251
v -0.0984226 0.574747 -0.308352
v -0.0872434 0.578719 -0.30914
v -0.0322448 0.471161 -0.345078
v 0.0375074 0.445052 -0.345078
v 0.0193359 0.574006 -0.319035
v 0.0470631 0.583326 -0.311754
v 0.0310562 0.456677 -0.345078
v 0.0183675 0.468169 -0.345078
v 0.0470631 0.593786 -0.24542
v -0.0984226 0.593945 -0.241517
v -0.0984226 0.593786 -0.240529
v -0.0984226 0.585921 -0.301923
v -0.0786419 0.580705 -0.309741
v -0.00602723 0.573264 -0.320948
v -0.00144164 0.568445 -0.322662
v -0.0203394 0.475053 -0.345078
v 0.00600638 0.573264 -0.320948
v 0.0451405 0.583485 -0.31188
v 0.0470631 0.589787 -0.303899
v 0.00953814 0.472432 -0.345078
v 0.00142079 0.568445 -0.322662
v 0.0470631 0.594289 -0.25155
v -0.0984226 0.594474 -0.249898
v -0.0984226 0.592356 -0.293029
v -0.0649706 0.593389 -0.296719
v -0.0580352 0.588967 -0.303461
v -0.0193568 0.585048 -0.313556
v -0.0322448 0.584333 -0.312718
v -0.0451471 0.583485 -0.31188
v -0.0580352 0.582506 -0.311054
v -0.0709375 0.58142 -0.310228
v -0.00645446 0.585657 -0.314394
v -0.00645446 0.475954 -0.345078
v 0.00644785 0.585657 -0.314394
v 0.0193359 0.585048 -0.313556
v 0.0322382 0.584333 -0.312718
v 0.0451405 0.58992 -0.303974
v 0.0470631 0.59368 -0.297444
v 0.00714565 0.473412 -0.345078
v 0.0470631 0.594554 -0.264446
v -0.0967421 0.594554 -0.25155
v -0.0984226 0.594554 -0.25155
v -0.0984226 0.592621 -0.292191
v -0.0967421 0.592435 -0.293129
v -0.0984226 0.593945 -0.286587
v -0.0580352 0.593521 -0.297007
v -0.00645446 0.592118 -0.305575
v -0.0193568 0.591509 -0.304987
v -0.0322448 0.590767 -0.304462
v -0.0451471 0.58992 -0.303974
v 0.00644785 0.592118 -0.305575
v 0.0193359 0.591509 -0.304987
v 0.0322382 0.590767 -0.304462
v 0.0451405 0.593706 -0.297519
v 0.0470631 0.594183 -0.29124
v 0.0470631 0.594554 -0.277343
v -0.0984226 0.594554 -0.275667
v -0.0322448 0.593839 -0.29802
v -0.0451471 0.593706 -0.297519
v -0.0984226 0.594024 -0.285461
v -0.0451471 0.594289 -0.290227
v -0.0193568 0.593918 -0.298545
v -0.00645446 0.593945 -0.299133
v 0.00644785 0.593945 -0.299133
v 0.0193359 0.593918 -0.298545
v 0.0322382 0.593839 -0.29802
v 0.0451405 0.594289 -0.290227
v 0.0470631 0.594262 -0.290227
v -0.0967421 0.594554 -0.277343
v 0.0322382 0.594421 -0.290227
v 0.0193359 0.594501 -0.290227
v 0.00644785 0.594527 -0.290227
v -0.0984226 0.594527 -0.277343
v -0.0322448 0.594421 -0.290227
v -0.0193568 0.594501 -0.290227
v -0.00645446 0.594527 -0.290227
f 1 2 12
f 1 12 18
f 1 18 38
f 1 38 60
f 1 60 62
f 1 62 61
f 1 61 43
f 1 43 21
f 1 21 13
f 1 13 3
f 1 3 14
f 1 14 24
f 1 24 55
f 1 55 54
f 1 54 69
f 1 69 68
f 1 68 67
f 1 67 81
f 1 81 83
f 1 83 94
f 1 94 93
f 1 93 106
f 1 106 125
f 1 125 140
f 1 140 156
f 1 156 143
f 1 143 128
f 1 128 126
f 1 126 107
f 1 107 95
f 1 95 84
f 1 84 72
f 1 72 56
f 1 56 36
f 1 36 35
f 1 35 34
f 1 34 33
f 1 33 32
f 1 32 31
f 1 31 30
f 1 30 29
f 1 29 28
f 1 28 27
f 1 27 26
f 1 26 25
f 1 25 15
f 1 15 4
f 1 4 5
f 1 5 6
f 1 6 7
f 1 7 8
f 1 8 9
f 1 9 10
f 1 10 11
f 1 11 2
f 2 11 12
f 3 13 14
f 4 15 16
f 4 16 5
f 5 16 37
f 5 37 59
f 5 59 58
f 5 58 57
f 5 57 77
f 5 77 76
f 5 76 75
f 5 75 74
f 5 74 73
f 5 73 86
f 5 86 99
f 5 99 116
f 5 116 122
f 5 122 103
f 5 103 91
f 5 91 90
f 5 90 87
f 5 87 78
f 5 78 63
f 5 63 51
f 5 51 50
f 5 50 49
f 5 49 48
f 5 48 47
f 5 47 46
f 5 46 45
f 5 45 44
f 5 44 42
f 5 42 41
f 5 41 40
f 5 40 39
f 5 39 20
f 5 20 19
f 5 19 17
f 5 17 11
f 5 11 10
f 5 10 9
f 5 9 8
f 5 8 7
f 5 7 6
f 11 17 12
f 12 17 19
f 12 19 20
f 12 20 18
f 13 21 52
f 13 52 66
f 13 66 65
f 13 65 64
f 13 64 80
f 13 80 79
f 13 79 89
f 13 89 102
f 13 102 121
f 13 121 138
f 13 138 151
f 13 151 139
f 13 139 123
f 13 123 105
f 13 105 92
f 13 92 82
f 13 82 71
f 13 71 53
f 13 53 23
f 13 23 22
f 13 22 14
f 14 22 23
f 14 23 24
f 15 25 16
f 16 25 26
f 16 26 27
f 16 27 28
f 16 28 29
f 16 29 30
f 16 30 31
f 16 31 32
f 16 32 33
f 16 33 34
f 16 34 35
f 16 35 36
f 16 36 37
f 18 20 39
f 18 39 40
f 18 40 41
f 18 41 42
f 18 42 38
f 21 43 42
f 21 42 44
f 21 44 45
f 21 45 46
f 21 46 47
f 21 47 48
f 21 48 49
f 21 49 50
f 21 50 51
f 21 51 52
f 23 53 54
f 23 54 55
f 23 55 24
f 36 56 57
f 36 57 58
f 36 58 59
f 36 59 37
f 38 42 60
f 42 43 61
f 42 61 62
f 42 62 60
f 51 63 64
f 51 64 65
f 51 65 66
f 51 66 52
f 53 67 68
f 53 68 69
f 53 69 70
f 53 70 54
f 53 71 67
f 54 70 69
f 56 72 73
f 56 73 74
f 56 74 75
f 56 75 76
f 56 76 77
f 56 77 57
f 63 78 79
f 63 79 80
f 63 80 64
f 67 71 81
f 71 82 83
f 71 83 81
f 72 84 85
f 72 85 73
f 73 85 86
f 78 87 79
f 79 88 89
f 79 87 90
f 79 90 91
f 79 91 88
f 82 92 93
f 82 93 94
f 82 94 83
f 84 95 85
f 85 95 96
f 85 96 86
f 86 96 97
f 86 97 98
f 86 98 99
f 88 100 89
f 88 91 100
f 89 100 101
f 89 101 102
f 91 103 104
f 91 104 100
f 92 105 93
f 93 105 106
f 95 107 108
f 95 108 109
f 95 109 110
f 95 110 111
f 95 111 112
f 95 112 113
f 95 113 114
f 95 114 96
f 96 114 97
f 97 114 113
f 97 113 112
f 97 112 111
f 97 111 110
f 97 110 115
f 97 115 117
f 97 117 100
f 97 100 104
f 97 104 98
f 98 104 116
f 98 116 99
f 100 117 118
f 100 118 119
f 100 119 101
f 101 119 102
f 102 119 118
f 102 118 120
f 102 120 121
f 103 122 104
f 104 122 116
f 105 123 124
f 105 124 106
f 106 124 125
f 107 126 127
f 107 127 108
f 108 128 129
f 108 129 130
f 108 130 131
f 108 131 132
f 108 132 133
f 108 133 109
f 108 127 126
f 108 126 128
f 109 133 110
f 110 133 115
f 115 133 132
f 115 132 131
f 115 131 130
f 115 130 134
f 115 134 117
f 117 134 135
f 117 135 136
f 117 136 120
f 117 120 118
f 120 136 121
f 121 136 135
f 121 135 134
f 121 134 137
f 121 137 138
f 123 139 152
f 123 152 140
f 123 140 125
f 123 125 124
f 128 141 142
f 128 142 129
f 128 143 144
f 128 144 141
f 129 142 130
f 130 142 141
f 130 141 145
f 130 145 146
f 130 146 147
f 130 147 134
f 134 147 148
f 134 148 149
f 134 149 137
f 137 149 138
f 138 149 150
f 138 150 151
f 139 151 150
f 139 150 153
f 139 153 154
f 139 154 155
f 139 155 159
f 139 159 152
f 140 152 156
f 141 144 157
f 141 157 145
f 143 156 152
f 143 152 144
f 144 152 157
f 145 157 158
f 145 158 146
f 146 158 159
f 146 159 155
f 146 155 147
f 147 155 154
f 147 154 148
f 148 154 153
f 148 153 149
f 149 153 150
f 152 159 158
f 152 158 157
