v -0.422412 0.0458456 0.38495
v -0.418498 0.0458456 0.393441
v -0.31099 0.0458456 0.38495
v -0.416108 -0.00645659 0.38495
v -0.414086 -0.00645659 0.389548
v -0.41272 0.0261615 0.399798
v -0.413298 0.0347708 0.400612
v -0.414033 0.0458456 0.401602
v -0.154075 0.0458456 0.510157
v -0.154075 -0.367075 0.418628
v -0.19949 -0.367075 0.38495
v -0.414453 -0.0183802 0.38495
v -0.413376 -0.0165614 0.388162
v -0.410435 -0.00645659 0.395993
v -0.411354 0.00643708 0.397533
v -0.412247 0.0193307 0.399028
v -0.409148 0.0458456 0.408069
v -0.403973 -0.00645659 0.405253
v -0.404104 0.00619456 0.407431
v -0.41377 0.0458456 0.401954
v -0.154075 0.0458456 0.609671
v -0.154075 -0.367075 0.520298
v -0.322784 -0.367075 0.38495
v -0.413665 -0.0234326 0.38495
v -0.412667 -0.0251706 0.386732
v -0.399718 -0.102411 0.386666
v -0.400453 -0.0938021 0.387898
v -0.40287 -0.0193503 0.403802
v -0.363287 0.0458456 0.467835
v -0.395831 0.00619456 0.418232
v -0.361711 0.0193307 0.465085
v -0.387084 -0.0135703 0.425865
v -0.399035 -0.00645659 0.411699
v -0.15791 0.0458456 0.608088
v -0.156597 0.0322244 0.60701
v -0.154075 0.0148846 0.605976
v -0.173118 -0.366671 0.512533
v -0.18767 -0.367075 0.506374
v -0.154075 -0.32892 0.532264
v -0.155677 -0.336518 0.529228
v -0.183257 -0.338863 0.517064
v -0.316191 -0.367075 0.393573
v -0.322784 -0.361982 0.387392
v -0.32914 -0.349695 0.38495
v -0.411932 -0.0339011 0.38495
v -0.412063 -0.0322843 0.385302
v -0.400716 -0.100754 0.38495
v -0.400138 -0.103947 0.38495
v -0.398956 -0.109768 0.38495
v -0.39893 -0.109646 0.38506
v -0.386979 -0.154794 0.386996
v -0.390971 -0.12258 0.392253
v -0.391891 -0.110778 0.394673
v -0.387846 -0.107181 0.40103
v -0.396172 -0.0975611 0.392693
v -0.399797 -0.0512004 0.399776
v -0.401635 -0.0322843 0.402174
v -0.397932 -0.0193503 0.410269
v -0.347133 0.0451181 0.488732
v -0.352097 0.0458456 0.482397
v -0.350311 0.0193307 0.479933
v -0.348735 -0.00314224 0.477887
v -0.360634 0.00389068 0.463677
v -0.348105 -0.0117515 0.477074
v -0.390236 -0.0322843 0.417044
v -0.374371 -0.0273128 0.438975
v -0.358795 -0.0193503 0.46128
v -0.34033 -0.0206437 0.485015
v -0.164661 0.0458456 0.605294
v -0.185069 0.0322244 0.595219
v -0.181707 0.00902389 0.593834
v -0.154075 0.00643708 0.604964
v -0.187066 -0.354707 0.510509
v -0.189614 -0.367075 0.505516
v -0.195103 -0.324595 0.516624
v -0.199621 -0.315177 0.517702
v -0.206766 -0.310286 0.516206
v -0.154075 -0.316349 0.536201
v -0.187066 -0.316026 0.522651
v -0.286746 -0.367075 0.431958
v -0.332686 -0.316026 0.396389
v -0.334525 -0.333042 0.385874
v -0.333816 -0.336882 0.38495
v -0.385665 -0.165222 0.38495
v -0.375001 -0.208026 0.38495
v -0.374056 -0.206329 0.386996
v -0.370746 -0.201195 0.393001
v -0.37508 -0.158796 0.401206
v -0.377996 -0.135474 0.405011
v -0.386059 -0.12258 0.398698
v -0.3869 -0.11579 0.399798
v -0.34884 -0.105847 0.452239
v -0.360739 -0.101037 0.438029
v -0.383958 -0.0967527 0.408861
v -0.388896 -0.0967527 0.402416
v -0.383459 -0.110778 0.405737
v -0.364784 -0.109646 0.430396
v -0.396619 -0.083859 0.395619
v -0.385219 -0.083859 0.410511
v -0.34687 0.0458456 0.489128
v -0.347185 0.0458456 0.488776
v -0.344454 0.00643708 0.485212
v -0.337073 -0.00645659 0.491944
v -0.337992 0.00643708 0.492889
v -0.344375 -0.00706288 0.482815
v -0.336206 -0.0171676 0.491042
v -0.369564 -0.0833336 0.431056
v -0.349838 -0.045178 0.466427
v -0.335365 -0.0257769 0.490184
v -0.221947 0.0458456 0.581559
v -0.228278 0.0451181 0.578854
v -0.225756 0.00643708 0.575268
v -0.199963 0.00643708 0.585959
v -0.180473 0.000455064 0.593306
v -0.161246 0.00643708 0.601994
v -0.154075 -0.00645659 0.60338
v -0.195235 -0.364084 0.503976
v -0.19857 -0.367075 0.500984
v -0.17937 -0.30774 0.528371
v -0.217587 -0.290198 0.514688
v -0.214829 -0.303132 0.512665
v -0.221133 -0.313399 0.50446
v -0.212912 -0.316147 0.509585
v -0.206371 -0.348199 0.503052
v -0.200068 -0.367075 0.500104
v -0.199963 -0.303132 0.521134
v -0.204953 -0.268574 0.528261
v -0.207475 -0.260005 0.529404
v -0.212623 -0.213281 0.539479
v -0.217193 -0.199902 0.540821
v -0.218401 -0.243352 0.528349
v -0.220345 -0.234784 0.529602
v -0.154075 -0.305396 0.539457
v -0.170781 -0.313641 0.53013
v -0.285775 -0.367075 0.433124
v -0.283805 -0.361174 0.438601
v -0.31057 -0.312267 0.426986
v -0.322469 -0.309518 0.412776
v -0.337624 -0.316026 0.389922
v -0.341275 -0.31643 0.38495
v -0.336101 -0.324433 0.38792
v -0.373347 -0.213927 0.38495
v -0.37311 -0.212836 0.38572
v -0.350311 -0.212836 0.415438
v -0.323178 -0.208713 0.452393
v -0.335077 -0.205156 0.438205
v -0.338859 -0.135474 0.456022
v -0.375001 -0.119832 0.414008
v -0.335996 -0.118619 0.465217
v -0.347895 -0.114456 0.451007
v -0.333422 -0.0967527 0.474742
v -0.332082 -0.109646 0.473004
v -0.344821 -0.0967527 0.459894
v -0.356956 -0.0967527 0.444078
v -0.372559 -0.0967527 0.423731
v -0.344217 -0.10997 0.4571
v -0.340698 0.0451181 0.495661
v -0.34075 0.0458456 0.495705
v -0.338911 0.0193307 0.493813
v -0.330611 0.00643708 0.499313
v -0.332949 0.0322244 0.50116
v -0.334183 0.0458456 0.502128
v -0.32239 -0.012479 0.503008
v -0.328063 -0.00750748 0.499269
v -0.330217 -0.0206437 0.495287
v -0.338439 -0.045178 0.481275
v -0.325621 -0.109646 0.480527
v -0.320131 -0.0967527 0.488358
v -0.321471 -0.0863246 0.489392
v -0.322547 -0.0777153 0.49025
v -0.228041 0.0458456 0.57903
v -0.228383 0.0458456 0.578876
v -0.238206 0.0458456 0.574124
v -0.235291 -0.00645659 0.569285
v -0.225756 -0.00645659 0.573684
v -0.214356 -0.00645659 0.578414
v -0.179422 -0.00645659 0.592888
v -0.206739 -0.0137724 0.580613
v -0.154075 -0.0103772 0.602808
v -0.154075 -0.303132 0.540117
v -0.174721 -0.303334 0.531538
v -0.186777 -0.303334 0.526545
v -0.223392 -0.303132 0.506198
v -0.219058 -0.283165 0.515788
v -0.243932 -0.30681 0.489282
v -0.258116 -0.309842 0.477382
v -0.256094 -0.318451 0.47582
v -0.222762 -0.341813 0.492845
v -0.209917 -0.367075 0.493461
v -0.204454 -0.354707 0.501864
v -0.182285 -0.299171 0.529558
v -0.190874 -0.292542 0.527777
v -0.198728 -0.289026 0.525445
v -0.202169 -0.277304 0.527117
v -0.203036 -0.22573 0.540381
v -0.205531 -0.217848 0.541393
v -0.208184 -0.209279 0.542515
v -0.210758 -0.199902 0.54357
v -0.219006 -0.19291 0.541635
v -0.222158 -0.22573 0.5309
v -0.232349 -0.206733 0.528964
v -0.230668 -0.215302 0.527689
v -0.225099 -0.238906 0.524763
v -0.278368 -0.367075 0.440647
v -0.277212 -0.367075 0.441658
v -0.277448 -0.366348 0.441746
v -0.284461 -0.323908 0.452019
v -0.286274 -0.316026 0.453471
v -0.296754 -0.296948 0.451579
v -0.298488 -0.316026 0.440933
v -0.299958 -0.302 0.44531
v -0.319343 -0.304385 0.419046
v -0.329114 -0.303698 0.406595
v -0.334367 -0.306447 0.398566
v -0.345898 -0.303092 0.38495
v -0.372506 -0.216716 0.38495
v -0.321891 -0.217323 0.450721
v -0.369774 -0.22573 0.38495
v -0.364705 -0.22573 0.391593
v -0.319369 -0.199902 0.460356
v -0.31824 -0.212917 0.457188
v -0.324334 -0.199902 0.453911
v -0.320998 -0.187008 0.462468
v -0.331268 -0.122783 0.470035
v -0.339831 -0.122783 0.458882
v -0.346923 -0.12258 0.449709
v -0.36326 -0.12258 0.428416
v -0.324229 -0.161221 0.466669
v -0.324123 -0.12258 0.478965
v -0.32302 -0.13123 0.477866
v -0.340251 0.0458456 0.496211
v -0.323204 -0.00386978 0.503624
v -0.32415 0.00643708 0.504372
v -0.327669 0.0451181 0.507055
v -0.327801 0.0458456 0.507055
v -0.271197 -0.0141362 0.542009
v -0.264446 -0.00645659 0.548366
v -0.317268 -0.00750748 0.507671
v -0.321523 -0.0193503 0.502348
v -0.315088 -0.0193503 0.507297
v -0.318397 -0.109646 0.486972
v -0.311936 -0.109646 0.49201
v -0.313696 -0.0967527 0.493351
v -0.316716 -0.0827677 0.493747
v -0.316033 -0.0709653 0.496563
v -0.319895 -0.0322843 0.501094
v -0.238653 0.0458456 0.573904
v -0.244274 0.0167843 0.567019
v -0.243171 0.00643708 0.566315
v -0.241752 -0.00645659 0.565391
v -0.23361 -0.0193503 0.568339
v -0.238653 0.0451181 0.573816
v -0.245167 0.0253532 0.567613
v -0.225756 -0.0193503 0.571793
v -0.211782 -0.0185823 0.577732
v -0.177163 -0.0193503 0.591942
v -0.154075 -0.0195524 0.601467
v -0.154075 -0.295897 0.542141
v -0.154706 -0.296503 0.541723
v -0.231535 -0.295008 0.502568
v -0.245745 -0.298201 0.49069
v -0.220792 -0.274556 0.517108
v -0.270277 -0.282195 0.47681
v -0.262214 -0.290198 0.480527
v -0.280863 -0.303132 0.462138
v -0.272326 -0.31255 0.465481
v -0.276923 -0.316511 0.460532
v -0.269752 -0.358749 0.450611
v -0.232743 -0.362306 0.477712
v -0.226912 -0.367075 0.480439
v -0.187066 -0.277304 0.533386
v -0.193606 -0.283933 0.52892
v -0.155283 -0.245818 0.554855
v -0.154075 -0.238623 0.557253
v -0.166604 -0.230459 0.554217
v -0.154075 -0.225811 0.560618
v -0.169336 -0.22185 0.555339
v -0.200724 -0.213281 0.544582
v -0.173854 -0.211543 0.556153
v -0.180604 -0.206369 0.554657
v -0.160248 -0.199134 0.564666
v -0.206739 -0.155441 0.554811
v -0.215013 -0.148368 0.552897
v -0.217561 -0.138546 0.553953
v -0.232349 -0.155239 0.541877
v -0.225283 -0.187978 0.538599
v -0.225756 -0.199902 0.535322
v -0.226124 -0.211745 0.532022
v -0.219741 -0.129937 0.554877
v -0.221501 -0.12258 0.555669
v -0.230799 -0.109646 0.553931
v -0.232165 -0.103139 0.554657
v -0.278499 -0.200751 0.495089
v -0.283542 -0.205601 0.489986
v -0.297726 -0.209077 0.478085
v -0.282176 -0.212836 0.48893
v -0.244878 -0.218656 0.515788
v -0.228593 -0.22573 0.526105
v -0.271565 -0.233814 0.49069
v -0.271906 -0.367075 0.445838
v -0.282439 -0.332517 0.450413
v -0.267756 -0.367075 0.449093
v -0.290529 -0.302 0.454901
v -0.306236 -0.277304 0.447136
v -0.304765 -0.289713 0.444078
v -0.344007 -0.290319 0.392715
v -0.335759 -0.297878 0.400392
v -0.282754 -0.294038 0.463589
v -0.289347 -0.289915 0.459674
v -0.296491 -0.257499 0.464249
v -0.309992 -0.220637 0.464821
v -0.313486 -0.225245 0.45853
v -0.346161 -0.302283 0.38495
v -0.363891 -0.244929 0.38495
v -0.361553 -0.246263 0.38748
v -0.325778 -0.250385 0.432464
v -0.311148 -0.212836 0.466009
v -0.321812 -0.139839 0.476612
v -0.326776 -0.135515 0.471728
v -0.315324 -0.123065 0.48618
v -0.309125 -0.179207 0.476942
v -0.311988 -0.161221 0.479207
v -0.316926 -0.135515 0.481737
v -0.288034 0.00643708 0.53211
v -0.316926 0.0193307 0.511719
v -0.281966 0.0322244 0.540359
v -0.283201 0.0458456 0.541305
v -0.250657 -0.00645659 0.558924
v -0.28433 -0.0278787 0.529272
v -0.24761 -0.0322843 0.556593
v -0.249238 -0.0193503 0.557847
v -0.257827 0.000980498 0.554525
v -0.310544 -0.119064 0.490932
v -0.296334 -0.114941 0.50281
v -0.267414 -0.109646 0.526193
v -0.297568 -0.106332 0.503756
v -0.283384 -0.101603 0.515656
v -0.284488 -0.0929937 0.516492
v -0.246506 0.0458456 0.569329
v -0.246979 0.0451181 0.568977
v -0.240045 -0.0193503 0.564292
v -0.232506 -0.0267874 0.567723
v -0.245797 0.0322244 0.568097
v -0.252732 0.00574996 0.5591
v -0.230852 -0.0353966 0.566997
v -0.226229 -0.0315568 0.569571
v -0.212859 -0.045178 0.572848
v -0.203036 -0.0322843 0.579074
v -0.159066 -0.045178 0.595131
v -0.156465 -0.0580717 0.594054
v -0.154075 -0.039196 0.598189
v -0.154075 -0.233773 0.558528
v -0.154075 -0.213483 0.56383
v -0.161246 -0.212836 0.561036
v -0.154075 -0.204227 0.566073
v -0.154075 -0.202368 0.566513
v -0.154075 -0.151682 0.577424
v -0.161587 -0.173549 0.569615
v -0.187565 -0.122378 0.569857
v -0.212859 -0.12258 0.55932
v -0.263186 -0.148368 0.519946
v -0.23558 -0.135474 0.54434
v -0.239126 -0.121368 0.545154
v -0.212859 -0.109646 0.561938
v -0.224364 -0.109646 0.556967
v -0.241069 -0.083859 0.551577
v -0.257171 -0.0740776 0.541129
v -0.245141 -0.116275 0.541811
v -0.227017 -0.0980057 0.557869
v -0.289636 -0.200751 0.486532
v -0.307865 -0.135474 0.488886
v -0.299302 -0.199902 0.479295
v -0.305737 -0.199902 0.47428
v -0.302454 -0.213159 0.473136
v -0.296045 -0.217686 0.47681
v -0.288034 -0.22573 0.480527
v -0.284041 -0.245656 0.47747
v -0.309992 -0.285105 0.439129
v -0.349943 -0.290319 0.38495
v -0.348945 -0.293553 0.38495
v -0.32696 -0.277466 0.420079
v -0.347658 -0.294644 0.386182
v -0.298172 -0.24889 0.465569
v -0.303715 -0.225245 0.468451
v -0.353831 -0.277668 0.38495
v -0.307865 -0.187008 0.47593
v -0.250315 0.0203816 0.562994
v -0.268281 0.0451181 0.552655
v -0.276292 0.0458456 0.546606
v -0.259351 -0.120277 0.52991
v -0.247032 0.0458456 0.569021
v -0.253493 0.0458456 0.564094
v -0.211756 -0.0959847 0.56482
v -0.222446 -0.045178 0.568867
v -0.210811 -0.0709653 0.569395
v -0.200409 -0.0959847 0.569527
v -0.185936 -0.0830102 0.577688
v -0.154075 -0.0969143 0.588554
v -0.154075 -0.0700357 0.593042
v -0.154075 -0.139799 0.579975
v -0.164766 -0.12258 0.57925
v -0.194447 -0.117932 0.567943
v -0.166867 -0.114295 0.580107
v -0.187066 -0.109646 0.572628
v -0.168837 -0.105685 0.580921
v -0.205006 -0.0997437 0.566975
v -0.261899 0.0458456 0.557649
v -0.154075 -0.109727 0.586267
v -0.154075 -0.12258 0.583671
v -0.156045 -0.131392 0.580965
v -0.15833 -0.12258 0.581911
v -0.173539 -0.109848 0.578194
f 1 2 8
f 1 8 20
f 1 20 17
f 1 17 29
f 1 29 60
f 1 60 101
f 1 101 100
f 1 100 158
f 1 158 231
f 1 231 162
f 1 162 235
f 1 235 327
f 1 327 389
f 1 389 407
f 1 407 392
f 1 392 391
f 1 391 339
f 1 339 247
f 1 247 173
f 1 173 172
f 1 172 171
f 1 171 110
f 1 110 69
f 1 69 34
f 1 34 21
f 1 21 9
f 1 9 3
f 1 3 11
f 1 11 23
f 1 23 44
f 1 44 83
f 1 83 140
f 1 140 215
f 1 215 313
f 1 313 380
f 1 380 379
f 1 379 385
f 1 385 314
f 1 314 218
f 1 218 216
f 1 216 142
f 1 142 85
f 1 85 84
f 1 84 49
f 1 49 48
f 1 48 47
f 1 47 45
f 1 45 24
f 1 24 12
f 1 12 4
f 1 4 5
f 1 5 2
f 2 6 7
f 2 7 8
f 2 5 6
f 3 9 10
f 3 10 11
f 4 12 13
f 4 13 5
f 5 13 14
f 5 14 15
f 5 15 16
f 5 16 6
f 6 17 7
f 6 16 18
f 6 18 19
f 6 19 17
f 7 17 20
f 7 20 8
f 9 21 36
f 9 36 72
f 9 72 116
f 9 116 179
f 9 179 257
f 9 257 351
f 9 351 399
f 9 399 398
f 9 398 408
f 9 408 409
f 9 409 400
f 9 400 357
f 9 357 356
f 9 356 355
f 9 355 353
f 9 353 276
f 9 276 352
f 9 352 274
f 9 274 258
f 9 258 180
f 9 180 133
f 9 133 78
f 9 78 39
f 9 39 22
f 9 22 10
f 10 22 38
f 10 38 74
f 10 74 118
f 10 118 125
f 10 125 189
f 10 189 270
f 10 270 302
f 10 302 300
f 10 300 205
f 10 205 204
f 10 204 135
f 10 135 80
f 10 80 42
f 10 42 23
f 10 23 11
f 12 24 25
f 12 25 13
f 13 25 26
f 13 26 27
f 13 27 14
f 14 28 18
f 14 18 15
f 14 27 28
f 15 18 16
f 17 19 30
f 17 30 31
f 17 31 29
f 18 28 32
f 18 32 33
f 18 33 30
f 18 30 19
f 21 34 35
f 21 35 36
f 22 37 38
f 22 39 40
f 22 40 41
f 22 41 37
f 23 42 43
f 23 43 44
f 24 45 46
f 24 46 25
f 25 46 47
f 25 47 26
f 26 47 48
f 26 48 49
f 26 49 50
f 26 50 51
f 26 51 52
f 26 52 53
f 26 53 54
f 26 54 55
f 26 55 27
f 27 55 56
f 27 56 57
f 27 57 28
f 28 58 32
f 28 57 58
f 29 59 60
f 29 31 61
f 29 61 59
f 30 33 62
f 30 62 63
f 30 63 31
f 31 63 61
f 32 64 33
f 32 58 65
f 32 65 66
f 32 66 67
f 32 67 68
f 32 68 64
f 33 64 62
f 34 69 35
f 35 69 70
f 35 70 71
f 35 71 72
f 35 72 36
f 37 41 73
f 37 73 38
f 38 73 75
f 38 75 76
f 38 76 77
f 38 77 74
f 39 78 40
f 40 78 79
f 40 79 41
f 41 79 75
f 41 75 73
f 42 80 81
f 42 81 82
f 42 82 43
f 43 82 44
f 44 82 83
f 45 47 46
f 49 84 50
f 50 84 51
f 51 84 85
f 51 85 86
f 51 86 87
f 51 87 88
f 51 88 89
f 51 89 90
f 51 90 52
f 52 90 91
f 52 91 53
f 53 91 54
f 54 92 93
f 54 93 94
f 54 94 95
f 54 95 55
f 54 91 96
f 54 96 97
f 54 97 92
f 55 95 98
f 55 98 56
f 56 65 57
f 56 98 99
f 56 99 65
f 57 65 58
f 59 100 101
f 59 101 60
f 59 61 102
f 59 102 103
f 59 103 104
f 59 104 100
f 61 63 102
f 62 102 63
f 62 64 105
f 62 105 102
f 64 106 105
f 64 68 106
f 65 99 107
f 65 107 108
f 65 108 66
f 66 68 67
f 66 108 68
f 68 108 109
f 68 109 106
f 69 110 111
f 69 111 70
f 70 111 112
f 70 112 113
f 70 113 71
f 71 113 114
f 71 114 115
f 71 115 72
f 72 115 114
f 72 114 116
f 74 117 118
f 74 77 117
f 75 79 76
f 76 79 119
f 76 119 77
f 77 120 121
f 77 121 122
f 77 122 123
f 77 123 124
f 77 124 125
f 77 125 118
f 77 118 117
f 77 119 126
f 77 126 127
f 77 127 128
f 77 128 129
f 77 129 130
f 77 130 131
f 77 131 132
f 77 132 120
f 78 133 119
f 78 119 134
f 78 134 79
f 79 134 119
f 80 135 136
f 80 136 81
f 81 137 138
f 81 138 139
f 81 139 140
f 81 140 141
f 81 141 82
f 81 136 137
f 82 141 140
f 82 140 83
f 85 142 86
f 86 142 143
f 86 143 144
f 86 144 145
f 86 145 146
f 86 146 87
f 87 146 88
f 88 146 147
f 88 147 89
f 89 147 148
f 89 148 90
f 90 148 91
f 91 148 149
f 91 149 150
f 91 150 96
f 92 151 93
f 92 97 152
f 92 152 151
f 93 151 153
f 93 153 154
f 93 154 155
f 93 155 94
f 94 155 99
f 94 99 95
f 95 99 98
f 96 150 156
f 96 156 97
f 97 156 152
f 99 155 154
f 99 154 107
f 100 157 158
f 100 104 159
f 100 159 157
f 102 105 106
f 102 106 103
f 103 106 160
f 103 160 161
f 103 161 162
f 103 162 104
f 104 162 159
f 106 163 164
f 106 164 160
f 106 109 165
f 106 165 163
f 107 154 153
f 107 153 108
f 108 153 151
f 108 151 166
f 108 166 109
f 109 166 151
f 109 151 167
f 109 167 168
f 109 168 169
f 109 169 170
f 109 170 165
f 110 171 111
f 111 171 172
f 111 172 173
f 111 173 174
f 111 174 112
f 112 174 175
f 112 175 176
f 112 176 114
f 112 114 113
f 114 177 116
f 114 176 177
f 116 177 178
f 116 178 179
f 119 133 180
f 119 180 181
f 119 181 182
f 119 182 126
f 120 183 121
f 120 132 184
f 120 184 183
f 121 183 122
f 122 183 185
f 122 185 186
f 122 186 187
f 122 187 188
f 122 188 189
f 122 189 124
f 122 124 123
f 124 189 190
f 124 190 125
f 125 190 189
f 126 182 191
f 126 191 192
f 126 192 193
f 126 193 194
f 126 194 127
f 127 194 195
f 127 195 196
f 127 196 197
f 127 197 129
f 127 129 128
f 129 197 130
f 130 197 198
f 130 198 199
f 130 199 132
f 130 132 131
f 132 199 200
f 132 200 201
f 132 201 202
f 132 202 203
f 132 203 184
f 135 204 136
f 136 204 205
f 136 205 206
f 136 206 207
f 136 207 208
f 136 208 209
f 136 209 210
f 136 210 137
f 137 210 211
f 137 211 138
f 138 211 212
f 138 212 213
f 138 213 214
f 138 214 140
f 138 140 139
f 140 214 215
f 142 216 143
f 143 217 144
f 143 216 218
f 143 218 219
f 143 219 217
f 144 217 145
f 145 220 146
f 145 217 221
f 145 221 220
f 146 220 222
f 146 222 223
f 146 223 147
f 147 224 225
f 147 225 226
f 147 226 227
f 147 227 148
f 147 223 228
f 147 228 224
f 148 227 226
f 148 226 149
f 149 152 150
f 149 226 225
f 149 225 224
f 149 224 152
f 150 152 156
f 151 152 229
f 151 229 167
f 152 224 230
f 152 230 229
f 157 231 158
f 157 159 231
f 159 162 231
f 160 164 163
f 160 163 232
f 160 232 233
f 160 233 161
f 161 233 162
f 162 234 235
f 162 233 234
f 163 236 237
f 163 237 238
f 163 238 232
f 163 165 170
f 163 170 239
f 163 239 240
f 163 240 236
f 167 229 168
f 168 229 241
f 168 241 242
f 168 242 243
f 168 243 169
f 169 243 170
f 170 243 244
f 170 244 245
f 170 245 240
f 170 240 246
f 170 246 239
f 173 247 174
f 174 248 249
f 174 249 250
f 174 250 251
f 174 251 175
f 174 247 252
f 174 252 253
f 174 253 248
f 175 178 176
f 175 251 254
f 175 254 178
f 176 178 177
f 178 254 255
f 178 255 256
f 178 256 257
f 178 257 179
f 180 258 259
f 180 259 181
f 181 259 182
f 182 259 191
f 183 184 260
f 183 260 261
f 183 261 185
f 184 262 263
f 184 263 264
f 184 264 261
f 184 261 260
f 184 203 262
f 185 261 265
f 185 265 186
f 186 266 267
f 186 267 187
f 186 265 266
f 187 267 268
f 187 268 269
f 187 269 188
f 188 269 270
f 188 270 189
f 191 259 192
f 192 259 271
f 192 271 272
f 192 272 193
f 193 272 194
f 194 272 195
f 195 273 274
f 195 274 275
f 195 275 276
f 195 276 277
f 195 277 278
f 195 278 196
f 195 272 271
f 195 271 259
f 195 259 273
f 196 278 197
f 197 278 279
f 197 279 280
f 197 280 198
f 198 281 282
f 198 282 283
f 198 283 284
f 198 284 199
f 198 280 281
f 199 285 286
f 199 286 287
f 199 287 288
f 199 288 200
f 199 284 289
f 199 289 290
f 199 290 291
f 199 291 292
f 199 292 285
f 200 288 201
f 201 293 294
f 201 294 295
f 201 295 296
f 201 296 297
f 201 297 202
f 201 288 287
f 201 287 285
f 201 285 293
f 202 297 298
f 202 298 203
f 203 298 297
f 203 297 299
f 203 299 263
f 203 263 262
f 205 300 206
f 206 300 301
f 206 301 207
f 207 267 208
f 207 301 302
f 207 302 268
f 207 268 267
f 208 267 266
f 208 266 265
f 208 265 303
f 208 303 209
f 209 304 305
f 209 305 306
f 209 306 307
f 209 307 211
f 209 211 210
f 209 303 308
f 209 308 309
f 209 309 310
f 209 310 311
f 209 311 312
f 209 312 304
f 211 307 212
f 212 307 213
f 213 307 215
f 213 215 214
f 215 307 313
f 217 312 221
f 217 219 312
f 218 314 315
f 218 315 219
f 219 316 312
f 219 315 306
f 219 306 316
f 220 221 311
f 220 311 317
f 220 317 318
f 220 318 223
f 220 223 222
f 221 312 311
f 223 318 230
f 223 230 319
f 223 319 228
f 224 228 319
f 224 319 230
f 229 230 241
f 230 320 241
f 230 318 321
f 230 321 322
f 230 322 323
f 230 323 320
f 232 238 233
f 233 238 324
f 233 324 325
f 233 325 234
f 234 326 327
f 234 327 235
f 234 325 326
f 236 328 237
f 236 240 329
f 236 329 330
f 236 330 331
f 236 331 328
f 237 328 332
f 237 332 238
f 238 332 324
f 239 246 240
f 240 245 329
f 241 320 333
f 241 333 242
f 242 333 334
f 242 334 335
f 242 335 336
f 242 336 243
f 243 336 337
f 243 337 292
f 243 292 338
f 243 338 330
f 243 330 329
f 243 329 244
f 244 329 245
f 247 339 340
f 247 340 252
f 248 328 249
f 248 253 328
f 249 328 250
f 250 328 331
f 250 331 341
f 250 341 251
f 251 341 292
f 251 292 342
f 251 342 254
f 252 340 343
f 252 343 253
f 253 343 344
f 253 344 328
f 254 342 345
f 254 345 346
f 254 346 255
f 255 346 347
f 255 347 348
f 255 348 256
f 256 348 349
f 256 349 257
f 257 349 350
f 257 350 351
f 258 274 259
f 259 274 273
f 261 264 308
f 261 308 265
f 263 308 264
f 263 299 377
f 263 377 308
f 265 308 303
f 268 302 269
f 269 302 270
f 274 352 275
f 275 352 276
f 276 353 354
f 276 354 277
f 277 354 278
f 278 354 279
f 279 354 280
f 280 355 356
f 280 356 281
f 280 354 353
f 280 353 355
f 281 356 357
f 281 357 358
f 281 358 282
f 282 284 283
f 282 358 359
f 282 359 284
f 284 359 360
f 284 360 289
f 285 361 293
f 285 287 286
f 285 292 362
f 285 362 363
f 285 363 361
f 289 360 290
f 290 360 364
f 290 364 365
f 290 365 292
f 290 292 291
f 292 330 366
f 292 366 367
f 292 367 338
f 292 337 336
f 292 336 335
f 292 335 368
f 292 368 363
f 292 363 362
f 292 365 369
f 292 369 345
f 292 345 342
f 292 341 331
f 292 331 330
f 293 370 294
f 293 361 371
f 293 371 370
f 294 370 372
f 294 372 295
f 295 372 373
f 295 373 374
f 295 374 375
f 295 375 296
f 296 375 376
f 296 376 297
f 297 376 299
f 299 376 377
f 300 302 301
f 304 378 305
f 304 312 378
f 305 378 306
f 306 379 380
f 306 380 307
f 306 378 381
f 306 381 316
f 306 315 379
f 307 380 382
f 307 382 313
f 308 310 309
f 308 377 376
f 308 376 310
f 310 376 375
f 310 375 383
f 310 383 384
f 310 384 311
f 311 384 374
f 311 374 373
f 311 373 317
f 312 316 378
f 313 382 380
f 314 385 315
f 315 385 379
f 316 381 378
f 317 373 318
f 318 373 386
f 318 386 321
f 320 323 322
f 320 322 321
f 320 321 333
f 321 386 372
f 321 372 370
f 321 370 371
f 321 371 333
f 324 332 344
f 324 344 387
f 324 387 326
f 324 326 325
f 326 387 388
f 326 388 327
f 327 388 389
f 328 344 332
f 330 338 367
f 330 367 366
f 333 390 368
f 333 368 334
f 333 371 390
f 334 368 335
f 339 391 340
f 340 391 392
f 340 392 343
f 343 387 344
f 343 392 387
f 345 369 393
f 345 393 346
f 346 393 394
f 346 394 395
f 346 395 347
f 347 395 348
f 348 395 396
f 348 396 397
f 348 397 349
f 349 397 398
f 349 398 350
f 350 399 351
f 350 398 399
f 357 400 401
f 357 401 359
f 357 359 358
f 359 401 402
f 359 402 360
f 360 402 364
f 361 363 390
f 361 390 371
f 363 368 390
f 364 402 403
f 364 403 404
f 364 404 405
f 364 405 406
f 364 406 393
f 364 393 365
f 365 393 369
f 372 386 373
f 374 384 375
f 375 384 383
f 387 392 388
f 388 392 407
f 388 407 389
f 393 406 396
f 393 396 395
f 393 395 394
f 396 406 398
f 396 398 397
f 398 406 405
f 398 405 408
f 400 409 410
f 400 410 401
f 401 411 402
f 401 410 411
f 402 411 403
f 403 408 412
f 403 412 404
f 403 411 409
f 403 409 408
f 404 412 405
f 405 412 408
f 409 411 410
