v 0.371434 -0.432584 0.105249
v 0.278 -0.432584 0.105249
v 0.354029 -0.483727 0.105249
v 0.357297 -0.470829 0.0967218
v 0.348382 -0.489772 0.0779718
v 0.361684 -0.452949 0.0838362
v 0.36861 -0.432584 0.0838362
v 0.253953 -0.489772 0.105249
v 0.190001 -0.432584 -0.0537628
v 0.351898 -0.489772 0.105249
v 0.348133 -0.489772 0.0761694
v 0.347778 -0.488753 0.0709237
v 0.34998 -0.482305 0.0709237
v 0.360654 -0.449966 0.068395
v 0.366905 -0.432584 0.0709775
v 0.190942 -0.489772 -0.0186838
v 0.190001 -0.432584 -0.169518
v 0.190001 -0.489772 -0.0205669
v 0.347405 -0.489772 0.0709237
v 0.349128 -0.479797 0.0620732
v 0.362128 -0.441367 0.0611586
v 0.365289 -0.432584 0.0631762
v 0.19904 -0.432584 -0.163627
v 0.190001 -0.434728 -0.168926
v 0.190001 -0.489772 -0.146195
v 0.34554 -0.489772 0.0638756
v 0.34396 -0.489772 0.0579574
v 0.346109 -0.48395 0.0578767
v 0.360867 -0.437757 0.0525772
v 0.363957 -0.432926 0.0573386
v 0.364081 -0.432584 0.0573655
v 0.192238 -0.436738 -0.166882
v 0.208489 -0.432584 -0.15639
v 0.195702 -0.455452 -0.156471
v 0.193322 -0.464044 -0.154642
v 0.190001 -0.474977 -0.152517
v 0.190001 -0.443321 -0.165483
v 0.190001 -0.486565 -0.147594
v 0.192558 -0.489772 -0.144258
v 0.34126 -0.489772 0.0511783
v 0.341118 -0.483727 0.0451255
v 0.347565 -0.475324 0.0534649
v 0.363815 -0.432584 0.0565316
v 0.349128 -0.466726 0.0495104
v 0.359712 -0.432584 0.0449372
v 0.229765 -0.432584 -0.140062
v 0.251982 -0.432914 -0.122872
v 0.232713 -0.452395 -0.129382
v 0.19627 -0.483727 -0.144016
v 0.190001 -0.484113 -0.148643
v 0.191439 -0.470829 -0.153189
v 0.231168 -0.4883 -0.115286
v 0.244452 -0.489772 -0.104444
v 0.339005 -0.489772 0.0455291
v 0.336625 -0.482478 0.0331815
v 0.324673 -0.470443 -0.00628242
v 0.329166 -0.457931 -0.00647073
v 0.333854 -0.458917 0.00571546
v 0.354456 -0.432584 0.0322399
v 0.345807 -0.470947 0.0451794
v 0.335737 -0.489772 0.0375125
v 0.33524 -0.489772 0.036302
v 0.321671 -0.487964 0.00194931
v 0.325046 -0.483687 0.00630728
v 0.252053 -0.432584 -0.122952
v 0.257896 -0.438389 -0.115985
v 0.256049 -0.445034 -0.114586
v 0.251343 -0.458603 -0.112434
v 0.238165 -0.483889 -0.111788
v 0.245606 -0.489772 -0.103557
v 0.319824 -0.483687 -0.00628242
v 0.321458 -0.47449 -0.0104521
v 0.324282 -0.457204 -0.0188721
v 0.344706 -0.432584 0.00870148
v 0.328526 -0.445034 -0.0193564
v 0.333091 -0.432584 -0.0193025
v 0.322346 -0.489772 0.00523124
v 0.321352 -0.489772 0.00283704
v 0.317498 -0.489772 -0.00636313
v 0.252835 -0.432584 -0.122334
v 0.26365 -0.432584 -0.113429
v 0.258571 -0.465696 -0.103745
v 0.25184 -0.470325 -0.107054
v 0.256351 -0.474294 -0.101593
v 0.252177 -0.489772 -0.0974502
v 0.321174 -0.461016 -0.0228535
v 0.322826 -0.452417 -0.0264044
v 0.33302 -0.432584 -0.019464
v 0.312276 -0.489772 -0.0182265
v 0.264805 -0.432584 -0.112407
v 0.27221 -0.432584 -0.104848
v 0.270932 -0.438647 -0.103207
v 0.258553 -0.489772 -0.090967
v 0.257612 -0.489772 -0.0919624
v 0.30931 -0.489772 -0.0244407
v 0.309186 -0.489257 -0.0251132
v 0.321795 -0.436995 -0.037676
v 0.326289 -0.432584 -0.033049
v 0.326377 -0.432584 -0.0328876
v 0.279261 -0.432584 -0.0957285
v 0.266794 -0.484046 -0.0834347
v 0.270204 -0.488557 -0.0764943
v 0.270683 -0.489772 -0.0751492
v 0.30908 -0.489772 -0.024898
v 0.303539 -0.489772 -0.032242
v 0.306007 -0.484465 -0.0321075
v 0.310891 -0.480659 -0.0276957
v 0.318492 -0.432584 -0.0445627
v 0.31835 -0.432584 -0.044751
v 0.280433 -0.470829 -0.0729971
v 0.277077 -0.483083 -0.070576
v 0.29766 -0.489772 -0.0399626
f 1 2 8
f 1 8 10
f 1 10 3
f 1 3 4
f 1 4 5
f 1 5 6
f 1 6 7
f 1 7 15
f 1 15 22
f 1 22 31
f 1 31 43
f 1 43 45
f 1 45 59
f 1 59 74
f 1 74 76
f 1 76 88
f 1 88 99
f 1 99 98
f 1 98 108
f 1 108 109
f 1 109 100
f 1 100 91
f 1 91 90
f 1 90 81
f 1 81 80
f 1 80 65
f 1 65 46
f 1 46 33
f 1 33 23
f 1 23 17
f 1 17 9
f 1 9 2
f 2 9 8
f 3 10 5
f 3 5 4
f 5 11 12
f 5 12 13
f 5 13 14
f 5 14 6
f 5 10 8
f 5 8 16
f 5 16 18
f 5 18 25
f 5 25 39
f 5 39 53
f 5 53 70
f 5 70 85
f 5 85 94
f 5 94 93
f 5 93 103
f 5 103 112
f 5 112 105
f 5 105 104
f 5 104 95
f 5 95 89
f 5 89 79
f 5 79 78
f 5 78 77
f 5 77 62
f 5 62 61
f 5 61 54
f 5 54 40
f 5 40 27
f 5 27 26
f 5 26 19
f 5 19 11
f 6 14 7
f 7 14 15
f 8 9 16
f 9 17 24
f 9 24 37
f 9 37 36
f 9 36 50
f 9 50 38
f 9 38 25
f 9 25 18
f 9 18 16
f 11 19 12
f 12 19 20
f 12 20 14
f 12 14 13
f 14 20 21
f 14 21 15
f 15 21 22
f 17 23 24
f 19 26 20
f 20 26 27
f 20 27 28
f 20 28 29
f 20 29 30
f 20 30 21
f 21 30 31
f 21 31 22
f 23 32 24
f 23 33 34
f 23 34 35
f 23 35 36
f 23 36 32
f 24 32 37
f 25 38 39
f 27 40 41
f 27 41 28
f 28 41 42
f 28 42 29
f 29 43 31
f 29 31 30
f 29 42 44
f 29 44 45
f 29 45 43
f 32 36 37
f 33 46 47
f 33 47 48
f 33 48 49
f 33 49 34
f 34 49 35
f 35 50 51
f 35 51 36
f 35 49 50
f 36 51 50
f 38 50 49
f 38 49 39
f 39 49 52
f 39 52 53
f 40 54 41
f 41 55 56
f 41 56 57
f 41 57 58
f 41 58 59
f 41 59 60
f 41 60 44
f 41 44 42
f 41 54 61
f 41 61 62
f 41 62 63
f 41 63 64
f 41 64 55
f 44 60 45
f 45 60 59
f 46 65 47
f 47 65 66
f 47 66 67
f 47 67 68
f 47 68 48
f 48 68 52
f 48 52 49
f 52 68 69
f 52 69 53
f 53 69 70
f 55 64 56
f 56 64 71
f 56 71 72
f 56 72 73
f 56 73 57
f 57 74 58
f 57 73 75
f 57 75 76
f 57 76 74
f 58 74 59
f 62 77 63
f 63 77 78
f 63 78 79
f 63 79 71
f 63 71 64
f 65 80 66
f 66 80 81
f 66 81 82
f 66 82 83
f 66 83 67
f 67 83 68
f 68 83 69
f 69 83 70
f 70 84 85
f 70 83 82
f 70 82 84
f 71 79 86
f 71 86 73
f 71 73 72
f 73 86 87
f 73 87 75
f 75 87 76
f 76 87 88
f 79 89 86
f 81 90 82
f 82 91 92
f 82 92 93
f 82 93 84
f 82 90 91
f 84 93 94
f 84 94 85
f 86 89 87
f 87 95 96
f 87 96 97
f 87 97 98
f 87 98 99
f 87 99 88
f 87 89 95
f 91 100 92
f 92 100 101
f 92 101 93
f 93 101 102
f 93 102 103
f 95 104 96
f 96 105 106
f 96 106 107
f 96 107 97
f 96 104 105
f 97 108 98
f 97 107 106
f 97 106 108
f 100 109 106
f 100 106 110
f 100 110 111
f 100 111 102
f 100 102 101
f 102 111 106
f 102 106 112
f 102 112 103
f 105 112 106
f 106 109 108
f 106 111 110
