v -0.425845 0.290202 -0.0960703
v -0.425661 0.303087 -0.0960703
v -0.423019 0.303087 -0.099735
v -0.423111 0.290202 -0.0998599
v -0.425684 0.277378 -0.0960703
v -0.425225 0.32275 -0.0960703
v -0.422399 0.354687 -0.0989198
v -0.416104 0.341802 -0.107534
v -0.400228 0.303087 -0.129449
v -0.424788 0.341802 -0.0960703
v -0.424076 0.372763 -0.0960703
v -0.40032 0.290202 -0.129567
v -0.368384 0.283668 -0.17109
v -0.395288 0.277378 -0.135905
v -0.405535 0.277378 -0.122546
v -0.423019 0.277378 -0.0997497
v -0.424765 0.244769 -0.0960703
v -0.410842 0.367633 -0.113571
v -0.423892 0.380518 -0.0960703
v -0.422077 0.380518 -0.0985159
v -0.404547 0.354687 -0.122186
v -0.368269 0.303087 -0.17109
v -0.38789 0.380518 -0.143072
v -0.368453 0.289713 -0.17109
v -0.368292 0.27805 -0.17109
v -0.377437 0.277378 -0.159163
v -0.367902 0.264493 -0.17109
v -0.422261 0.225778 -0.0987436
v -0.416195 0.251547 -0.107652
v -0.422835 0.264493 -0.0995
v -0.423479 0.199947 -0.0960703
v -0.399286 0.380518 -0.128223
v -0.423685 0.385098 -0.0960703
v -0.421778 0.393403 -0.098112
v -0.366937 0.357863 -0.17109
v -0.371233 0.393403 -0.163974
v -0.366271 0.382961 -0.17109
v -0.366386 0.380518 -0.17109
v -0.366431 0.215519 -0.17109
v -0.410475 0.199947 -0.113094
v -0.42187 0.199947 -0.0982368
v -0.422904 0.187062 -0.0960703
v -0.423295 0.393403 -0.0960703
v -0.423042 0.397128 -0.0960703
v -0.422215 0.40812 -0.0960703
v -0.41484 0.406288 -0.105889
v -0.387224 0.40299 -0.142213
v -0.365765 0.393403 -0.17109
v -0.364731 0.407265 -0.17109
v -0.365949 0.199947 -0.17109
v -0.371325 0.199947 -0.164098
v -0.365444 0.188711 -0.17109
v -0.410176 0.187062 -0.112705
v -0.421572 0.187062 -0.0978476
v -0.421962 0.174177 -0.0960703
v -0.421342 0.419478 -0.0960703
v -0.413829 0.432119 -0.104567
v -0.362778 0.432119 -0.17109
v -0.365352 0.187062 -0.17109
v -0.371026 0.187062 -0.163709
v -0.387109 0.179123 -0.142059
v -0.421089 0.174177 -0.0972234
v -0.421296 0.166055 -0.0960703
v -0.413324 0.445004 -0.103906
v -0.417275 0.470896 -0.0960703
v -0.412634 0.462468 -0.10301
v -0.360113 0.46601 -0.17109
v -0.36441 0.174177 -0.17109
v -0.363789 0.166666 -0.17109
v -0.398298 0.174177 -0.126937
v -0.414105 0.161292 -0.104927
v -0.420446 0.155918 -0.0960703
v -0.417183 0.472056 -0.0960703
v -0.395954 0.470773 -0.12389
v -0.373163 0.470773 -0.153589
v -0.3614 0.479811 -0.167976
v -0.359332 0.475781 -0.17109
v -0.360067 0.122576 -0.17109
v -0.389131 0.109692 -0.131799
v -0.412474 0.122576 -0.102798
v -0.416448 0.108715 -0.0960703
v -0.416241 0.483719 -0.0960703
v -0.372635 0.483719 -0.152906
v -0.358528 0.48549 -0.17109
v -0.35816 0.100043 -0.17109
v -0.399768 0.0916772 -0.115951
v -0.411371 0.0968067 -0.10138
v -0.415437 0.0968067 -0.0960703
v -0.404065 0.0962572 -0.110854
v -0.415116 0.493917 -0.0960703
v -0.400021 0.491291 -0.116296
v -0.361032 0.488421 -0.167499
v -0.357264 0.496604 -0.17109
v -0.357885 0.0968067 -0.17109
v -0.365788 0.0968067 -0.160794
v -0.356483 0.0838608 -0.17109
v -0.360136 0.0838608 -0.166338
v -0.38789 0.0838608 -0.130184
v -0.410681 0.0838608 -0.100477
v -0.414059 0.0838608 -0.0960703
v -0.415162 0.0941199 -0.0960703
v -0.414817 0.496604 -0.0960703
v -0.411072 0.496604 -0.100976
v -0.403766 0.495994 -0.110612
v -0.388281 0.496604 -0.13069
v -0.360527 0.496604 -0.166845
v -0.356644 0.501306 -0.17109
v -0.355633 0.0774489 -0.17109
v -0.387293 0.0750673 -0.12942
v -0.413392 0.0789145 -0.0960703
v -0.413714 0.50497 -0.0960703
v -0.413117 0.509489 -0.0960703
v -0.408499 0.53532 -0.0976199
v -0.352118 0.53532 -0.17109
v -0.354852 0.0717087 -0.17109
v -0.375621 0.0709759 -0.143895
v -0.398413 0.0709759 -0.114196
v -0.409808 0.0709759 -0.0993384
v -0.412313 0.0709759 -0.0960703
v -0.410796 0.526954 -0.0960703
v -0.409464 0.536969 -0.0960703
v -0.408039 0.547655 -0.0960703
v -0.39538 0.56109 -0.11023
v -0.377528 0.56109 -0.133496
v -0.360894 0.565425 -0.154419
v -0.350395 0.548205 -0.17109
v -0.35329 0.0604726 -0.17109
v -0.384329 0.0322602 -0.125542
v -0.400113 0.0241385 -0.103503
v -0.407051 0.0330541 -0.0960703
v -0.406224 0.56109 -0.0960703
v -0.405719 0.56109 -0.096746
v -0.399883 0.567563 -0.103216
v -0.348993 0.570249 -0.168622
v -0.348649 0.56109 -0.17109
v -0.349775 0.56109 -0.169643
v -0.348993 0.558647 -0.17109
v -0.349361 0.0322602 -0.17109
v -0.352486 0.00630731 -0.162321
v -0.383433 0.0193754 -0.124374
v -0.387017 -0.00022672 -0.116142
v -0.403352 0.00649051 -0.0960703
v -0.403835 0.572875 -0.0960703
v -0.403123 0.572753 -0.0971059
v -0.386787 0.579898 -0.115877
v -0.387982 0.571288 -0.11742
v -0.346466 0.572326 -0.17109
v -0.347592 0.567196 -0.17109
v -0.347776 0.57886 -0.167065
v -0.345432 0.57599 -0.17109
v -0.347546 0.0193754 -0.17109
v -0.348005 0.00191058 -0.167345
v -0.347408 -0.00639436 -0.166559
v -0.38233 -0.00529519 -0.12129
v -0.401514 -0.00639436 -0.0960703
v -0.400802 0.580325 -0.0960703
v -0.398665 0.576173 -0.101644
v -0.39005 0.583379 -0.107277
v -0.374886 0.581424 -0.130073
v -0.362962 0.582341 -0.14424
v -0.351061 0.583134 -0.158466
v -0.339367 0.584417 -0.17109
v -0.345938 0.00801716 -0.17109
v -0.345478 0.00478067 -0.17109
v -0.344421 -0.00254722 -0.17109
v -0.343755 -0.00706609 -0.17109
v -0.346305 -0.0193403 -0.165127
v -0.374473 -0.0149436 -0.12953
v -0.386374 -0.008837 -0.115326
v -0.363766 -0.00639436 -0.145254
v -0.375162 -0.00639436 -0.130411
v -0.399309 -0.0193403 -0.0960703
v -0.392922 0.587287 -0.0960703
v -0.367419 0.584539 -0.134796
v -0.377781 0.583806 -0.122546
v -0.355105 0.58576 -0.148463
v -0.341894 0.587775 -0.161374
v -0.332382 0.592416 -0.164289
v -0.329488 0.590584 -0.17109
v -0.341641 -0.0193403 -0.17109
v -0.351268 -0.0193403 -0.158679
v -0.340378 -0.029294 -0.170245
v -0.34534 -0.029294 -0.163871
v -0.379527 -0.029294 -0.119344
v -0.397379 -0.029294 -0.0960703
v -0.384766 0.592477 -0.0960703
v -0.383479 0.591928 -0.0991181
v -0.345386 0.592111 -0.148338
v -0.348097 0.593332 -0.141721
v -0.335989 0.593516 -0.155689
v -0.32379 0.593699 -0.168946
v -0.322595 0.593332 -0.17109
v -0.339711 -0.029294 -0.17109
v -0.350303 -0.029294 -0.157423
v -0.281401 -0.029294 -0.0960703
v -0.379458 0.59376 -0.0960703
v -0.374886 0.593577 -0.104391
v -0.328431 0.593882 -0.160492
v -0.319861 0.59376 -0.17109
v -0.316024 0.594493 -0.161242
v -0.315381 0.594004 -0.17109
v -0.317747 0.593882 -0.17109
v -0.191132 -0.029294 -0.17109
v -0.290453 0.56109 -0.0960703
v -0.368315 0.594431 -0.0960703
v -0.367259 0.593943 -0.109077
v -0.328936 0.59437 -0.148338
v -0.341825 0.594554 -0.122546
v -0.303158 0.594554 -0.161242
v -0.293302 0.594554 -0.17109
v -0.303158 0.594431 -0.17109
v -0.306191 0.59437 -0.17109
v -0.204021 0.56109 -0.17109
v -0.291556 0.574707 -0.0960703
v -0.355403 0.594554 -0.0960703
v -0.267501 0.594554 -0.17109
v -0.205468 0.574158 -0.17109
v -0.294933 0.581852 -0.0960703
v -0.342514 0.594554 -0.0960703
v -0.254612 0.594431 -0.17109
v -0.316024 0.594554 -0.122546
v -0.329602 0.594493 -0.0960703
v -0.328936 0.594493 -0.096746
v -0.206869 0.576112 -0.17109
v -0.216933 0.582279 -0.165898
v -0.214153 0.584539 -0.17109
v -0.303089 0.587653 -0.0960703
v -0.341825 0.594554 -0.096746
v -0.251717 0.59437 -0.17109
v -0.317242 0.593882 -0.0960703
v -0.241907 0.594004 -0.17109
v -0.215692 0.585394 -0.17109
v -0.311567 0.592722 -0.0960703
v -0.304445 0.588508 -0.0960703
v -0.303434 0.587897 -0.0960703
v -0.240298 0.593882 -0.17109
v -0.233406 0.593088 -0.17109
v -0.242963 0.593699 -0.166294
v -0.228121 0.591317 -0.17109
v -0.231292 0.592538 -0.17109
v -0.234371 0.592966 -0.169687
f 1 2 3
f 1 3 4
f 1 4 5
f 1 5 17
f 1 17 31
f 1 31 42
f 1 42 55
f 1 55 63
f 1 63 72
f 1 72 81
f 1 81 88
f 1 88 101
f 1 101 100
f 1 100 110
f 1 110 119
f 1 119 130
f 1 130 142
f 1 142 155
f 1 155 172
f 1 172 185
f 1 185 195
f 1 195 204
f 1 204 214
f 1 214 218
f 1 218 227
f 1 227 235
f 1 235 234
f 1 234 233
f 1 233 230
f 1 230 222
f 1 222 219
f 1 219 215
f 1 215 205
f 1 205 196
f 1 196 186
f 1 186 173
f 1 173 156
f 1 156 143
f 1 143 131
f 1 131 122
f 1 122 121
f 1 121 120
f 1 120 112
f 1 112 111
f 1 111 102
f 1 102 90
f 1 90 82
f 1 82 73
f 1 73 65
f 1 65 56
f 1 56 45
f 1 45 44
f 1 44 43
f 1 43 33
f 1 33 19
f 1 19 11
f 1 11 10
f 1 10 6
f 1 6 2
f 2 6 3
f 3 7 8
f 3 8 9
f 3 9 4
f 3 6 10
f 3 10 11
f 3 11 7
f 4 9 12
f 4 12 13
f 4 13 14
f 4 14 15
f 4 15 16
f 4 16 5
f 5 16 17
f 7 18 8
f 7 11 19
f 7 19 20
f 7 20 18
f 8 18 32
f 8 32 21
f 8 21 9
f 9 22 12
f 9 21 23
f 9 23 22
f 12 24 13
f 12 22 24
f 13 25 26
f 13 26 14
f 13 24 22
f 13 22 35
f 13 35 38
f 13 38 37
f 13 37 48
f 13 48 49
f 13 49 58
f 13 58 67
f 13 67 77
f 13 77 84
f 13 84 93
f 13 93 107
f 13 107 114
f 13 114 126
f 13 126 137
f 13 137 135
f 13 135 148
f 13 148 147
f 13 147 150
f 13 150 162
f 13 162 179
f 13 179 192
f 13 192 199
f 13 199 202
f 13 202 201
f 13 201 212
f 13 212 211
f 13 211 210
f 13 210 216
f 13 216 220
f 13 220 229
f 13 229 231
f 13 231 236
f 13 236 237
f 13 237 240
f 13 240 239
f 13 239 232
f 13 232 226
f 13 226 224
f 13 224 217
f 13 217 213
f 13 213 203
f 13 203 193
f 13 193 180
f 13 180 166
f 13 166 165
f 13 165 164
f 13 164 163
f 13 163 151
f 13 151 138
f 13 138 127
f 13 127 115
f 13 115 108
f 13 108 96
f 13 96 94
f 13 94 85
f 13 85 78
f 13 78 69
f 13 69 68
f 13 68 59
f 13 59 52
f 13 52 50
f 13 50 39
f 13 39 27
f 13 27 25
f 14 27 28
f 14 28 29
f 14 29 30
f 14 30 15
f 14 26 27
f 15 30 16
f 16 30 17
f 17 30 31
f 18 20 32
f 19 33 20
f 20 33 34
f 20 34 32
f 21 32 23
f 22 23 35
f 23 32 34
f 23 34 36
f 23 36 37
f 23 37 38
f 23 38 35
f 25 27 26
f 27 39 40
f 27 40 28
f 28 40 41
f 28 41 31
f 28 31 30
f 28 30 29
f 31 41 42
f 33 43 34
f 34 43 44
f 34 44 45
f 34 45 46
f 34 46 47
f 34 47 36
f 36 48 37
f 36 47 49
f 36 49 48
f 39 50 51
f 39 51 40
f 40 51 52
f 40 52 53
f 40 53 54
f 40 54 41
f 41 54 42
f 42 54 55
f 45 56 46
f 46 49 47
f 46 56 49
f 49 56 57
f 49 57 58
f 50 52 51
f 52 59 60
f 52 60 53
f 53 61 54
f 53 60 61
f 54 61 62
f 54 62 55
f 55 62 63
f 56 64 57
f 56 65 66
f 56 66 64
f 57 64 58
f 58 64 67
f 59 61 60
f 59 68 61
f 61 68 69
f 61 69 70
f 61 70 62
f 62 70 63
f 63 70 71
f 63 71 72
f 64 66 67
f 65 73 66
f 66 73 74
f 66 74 67
f 67 74 75
f 67 75 76
f 67 76 77
f 69 71 70
f 69 78 79
f 69 79 80
f 69 80 71
f 71 80 72
f 72 80 81
f 73 82 74
f 74 82 76
f 74 76 75
f 76 82 83
f 76 83 84
f 76 84 77
f 78 85 79
f 79 85 86
f 79 86 80
f 80 87 88
f 80 88 81
f 80 86 89
f 80 89 87
f 82 90 91
f 82 91 92
f 82 92 83
f 83 92 84
f 84 92 93
f 85 94 95
f 85 95 86
f 86 96 97
f 86 97 98
f 86 98 99
f 86 99 100
f 86 100 101
f 86 101 88
f 86 88 87
f 86 87 89
f 86 95 94
f 86 94 96
f 90 102 91
f 91 102 103
f 91 103 104
f 91 104 105
f 91 105 106
f 91 106 92
f 92 106 93
f 93 106 107
f 96 108 97
f 97 108 98
f 98 108 109
f 98 109 99
f 99 110 100
f 99 109 110
f 102 111 103
f 103 111 112
f 103 112 113
f 103 113 104
f 104 113 105
f 105 107 106
f 105 113 114
f 105 114 107
f 108 115 109
f 109 115 116
f 109 116 117
f 109 117 118
f 109 118 110
f 110 118 119
f 112 120 113
f 113 120 121
f 113 121 122
f 113 122 123
f 113 123 124
f 113 124 125
f 113 125 114
f 114 125 126
f 115 127 128
f 115 128 116
f 116 128 117
f 117 128 129
f 117 129 130
f 117 130 118
f 118 130 119
f 122 131 132
f 122 132 123
f 123 132 133
f 123 133 125
f 123 125 124
f 125 133 134
f 125 134 135
f 125 135 136
f 125 136 137
f 125 137 126
f 127 138 139
f 127 139 140
f 127 140 128
f 128 140 129
f 129 140 141
f 129 141 142
f 129 142 130
f 131 143 133
f 131 133 132
f 133 143 144
f 133 144 145
f 133 145 146
f 133 146 134
f 134 147 148
f 134 148 135
f 134 146 145
f 134 145 149
f 134 149 150
f 134 150 147
f 135 137 136
f 138 151 152
f 138 152 139
f 139 152 141
f 139 141 140
f 141 152 153
f 141 153 154
f 141 154 155
f 141 155 142
f 143 156 157
f 143 157 144
f 144 157 145
f 145 157 156
f 145 156 158
f 145 158 159
f 145 159 149
f 149 159 160
f 149 160 161
f 149 161 162
f 149 162 150
f 151 163 152
f 152 163 164
f 152 164 165
f 152 165 153
f 153 166 167
f 153 167 168
f 153 168 169
f 153 169 170
f 153 170 154
f 153 165 166
f 154 170 171
f 154 171 169
f 154 169 155
f 155 169 168
f 155 168 172
f 156 173 158
f 158 161 160
f 158 160 159
f 158 173 174
f 158 174 175
f 158 175 161
f 161 175 174
f 161 174 176
f 161 176 162
f 162 176 177
f 162 177 178
f 162 178 179
f 166 180 167
f 167 181 168
f 167 180 182
f 167 182 183
f 167 183 194
f 167 194 181
f 168 181 172
f 169 171 170
f 172 181 184
f 172 184 185
f 173 176 174
f 173 186 187
f 173 187 176
f 176 187 188
f 176 188 177
f 177 188 178
f 178 188 189
f 178 189 190
f 178 190 191
f 178 191 192
f 178 192 179
f 180 193 182
f 181 194 184
f 182 193 203
f 182 203 195
f 182 195 185
f 182 185 184
f 182 184 194
f 182 194 183
f 186 196 197
f 186 197 189
f 186 189 188
f 186 188 187
f 189 197 190
f 190 197 196
f 190 196 198
f 190 198 191
f 191 199 192
f 191 198 200
f 191 200 201
f 191 201 202
f 191 202 199
f 195 203 204
f 196 205 206
f 196 206 198
f 198 206 207
f 198 207 200
f 200 207 205
f 200 205 208
f 200 208 209
f 200 209 210
f 200 210 211
f 200 211 212
f 200 212 201
f 203 213 204
f 204 213 214
f 205 215 208
f 205 207 206
f 208 215 219
f 208 219 228
f 208 228 221
f 208 221 216
f 208 216 210
f 208 210 209
f 213 217 214
f 214 217 218
f 216 221 222
f 216 222 223
f 216 223 220
f 217 224 225
f 217 225 218
f 218 225 226
f 218 226 227
f 219 222 228
f 220 223 229
f 221 228 222
f 222 230 231
f 222 231 229
f 222 229 223
f 224 226 225
f 226 232 233
f 226 233 234
f 226 234 235
f 226 235 227
f 230 236 231
f 230 233 237
f 230 237 238
f 230 238 236
f 232 239 233
f 233 239 240
f 233 240 241
f 233 241 237
f 236 238 237
f 237 241 240
