v 0.435959 -0.0293335 -0.0164566
v 0.413348 -0.0421238 -0.0658817
v 0.414322 -0.0293335 -0.0686747
v 0.336351 -0.0293335 -0.0164566
v 0.424939 -0.0953379 -0.0164566
v 0.41361 -0.070981 -0.0536127
v 0.407458 -0.096759 -0.0580515
v 0.411686 -0.0293335 -0.0749089
v 0.193351 -0.0293335 -0.169819
v 0.223371 -0.432505 -0.0164566
v 0.418146 -0.096759 -0.0322667
v 0.411448 -0.096759 -0.0484258
v 0.424297 -0.0990881 -0.0164566
v 0.413301 -0.106075 -0.0400221
v 0.405155 -0.109668 -0.0580515
v 0.401188 -0.109668 -0.0673281
v 0.406342 -0.0293335 -0.0836368
v 0.402328 -0.096759 -0.0697719
v 0.399858 -0.0902849 -0.0774026
v 0.193351 -0.0293335 -0.271188
v 0.193351 -0.432545 -0.0511689
v 0.222682 -0.432584 -0.0173045
v 0.237431 -0.432584 -0.0164566
v 0.422397 -0.109668 -0.0164566
v 0.410641 -0.110102 -0.0446604
v 0.412493 -0.114681 -0.038052
v 0.400333 -0.118274 -0.0655077
v 0.397887 -0.109668 -0.0737618
v 0.399241 -0.096759 -0.0762306
v 0.404775 -0.0293335 -0.0859061
v 0.387841 -0.096759 -0.0914421
v 0.398053 -0.0580722 -0.087926
v 0.399075 -0.0474926 -0.0892726
v 0.400832 -0.0293335 -0.0915668
v 0.389931 -0.122577 -0.0812678
v 0.390643 -0.108799 -0.0845346
v 0.387128 -0.103944 -0.0905195
v 0.219642 -0.0293335 -0.26029
v 0.195774 -0.096759 -0.258919
v 0.193351 -0.0714152 -0.264156
v 0.193351 -0.432584 -0.0516178
v 0.334284 -0.432584 -0.0164566
v 0.42178 -0.112747 -0.0164566
v 0.402281 -0.122577 -0.0586749
v 0.419761 -0.122774 -0.0164566
v 0.399407 -0.126879 -0.063413
v 0.387128 -0.181278 -0.0647596
v 0.365041 -0.096759 -0.121142
v 0.362594 -0.070981 -0.130868
v 0.364898 -0.0293335 -0.138423
v 0.39442 -0.0293335 -0.0999456
v 0.395892 -0.0293335 -0.0980255
v 0.348131 -0.102483 -0.141715
v 0.377771 -0.121787 -0.0973771
v 0.374279 -0.116971 -0.103487
v 0.386178 -0.11251 -0.0892726
v 0.387318 -0.143341 -0.0778764
v 0.374422 -0.194937 -0.0778764
v 0.364019 -0.187081 -0.0940106
v 0.363711 -0.109668 -0.119396
v 0.352311 -0.109668 -0.134259
v 0.228715 -0.0293335 -0.256525
v 0.21285 -0.096759 -0.251837
v 0.20221 -0.096759 -0.256251
v 0.193351 -0.096759 -0.259916
v 0.193351 -0.0781262 -0.263034
v 0.194158 -0.104615 -0.258246
v 0.193351 -0.432584 -0.16735
v 0.333025 -0.432584 -0.019474
v 0.334546 -0.423426 -0.023838
v 0.337918 -0.419162 -0.019474
v 0.339272 -0.418886 -0.0164566
v 0.403255 -0.199555 -0.0164566
v 0.391475 -0.174172 -0.0580515
v 0.386107 -0.189884 -0.0626399
v 0.375301 -0.223517 -0.0662059
v 0.376797 -0.212859 -0.0683006
v 0.377818 -0.199516 -0.071692
v 0.38625 -0.151947 -0.0763802
v 0.388815 -0.186173 -0.0582261
v 0.387057 -0.206701 -0.0517923
v 0.335448 -0.0648622 -0.167774
v 0.345352 -0.0293335 -0.163859
v 0.336232 -0.107141 -0.155904
v 0.337277 -0.096759 -0.157276
v 0.360243 -0.13817 -0.114883
v 0.350791 -0.122577 -0.132289
v 0.335282 -0.115708 -0.154657
v 0.373353 -0.203503 -0.076455
v 0.322457 -0.206306 -0.14189
v 0.237241 -0.0293335 -0.251637
v 0.233132 -0.0810869 -0.245702
v 0.231945 -0.0896928 -0.244954
v 0.224107 -0.096759 -0.247124
v 0.2214 -0.109668 -0.245977
v 0.193351 -0.105207 -0.25847
v 0.193351 -0.109234 -0.257722
v 0.21285 -0.109668 -0.249543
v 0.199027 -0.432584 -0.16361
v 0.193351 -0.428992 -0.169221
v 0.194871 -0.428123 -0.168697
v 0.326375 -0.432584 -0.032915
v 0.334047 -0.409609 -0.0361319
v 0.336113 -0.41482 -0.0275286
v 0.343808 -0.406332 -0.0164566
v 0.342953 -0.408701 -0.0164566
v 0.39404 -0.187081 -0.0451591
v 0.400476 -0.211359 -0.0164566
v 0.399217 -0.203345 -0.024212
v 0.38492 -0.19995 -0.0600215
v 0.374042 -0.232084 -0.0644603
v 0.370859 -0.226991 -0.0706696
v 0.372023 -0.212859 -0.0747343
v 0.40012 -0.212859 -0.0164566
v 0.399146 -0.216688 -0.0164566
v 0.385941 -0.215306 -0.049149
v 0.373947 -0.257467 -0.0512936
v 0.383376 -0.211754 -0.0568795
v 0.332266 -0.096759 -0.163734
v 0.324452 -0.109668 -0.169595
v 0.333287 -0.0293335 -0.178572
v 0.337681 -0.0293335 -0.173585
v 0.338607 -0.0322547 -0.171764
v 0.338892 -0.0293335 -0.172113
v 0.331743 -0.110734 -0.160617
v 0.336446 -0.146144 -0.143286
v 0.334427 -0.122577 -0.15356
v 0.327373 -0.123208 -0.162313
v 0.322385 -0.167343 -0.154657
v 0.323454 -0.158737 -0.156029
v 0.361454 -0.207332 -0.0906691
v 0.349556 -0.210688 -0.104883
v 0.321483 -0.212859 -0.140618
v 0.3145 -0.213333 -0.149321
v 0.319037 -0.201213 -0.147875
v 0.321507 -0.174172 -0.15356
v 0.239521 -0.0293335 -0.250291
v 0.245791 -0.0293335 -0.246126
v 0.246148 -0.0293335 -0.245877
v 0.23793 -0.0847582 -0.241413
v 0.238642 -0.096759 -0.23852
v 0.239236 -0.108523 -0.235653
v 0.23584 -0.122577 -0.234954
v 0.230544 -0.096759 -0.244256
v 0.219761 -0.11701 -0.245278
v 0.193351 -0.114602 -0.256675
v 0.199502 -0.432584 -0.163286
v 0.193351 -0.400845 -0.180916
v 0.193873 -0.400529 -0.180816
v 0.199859 -0.406135 -0.174058
v 0.205844 -0.411741 -0.167251
v 0.32628 -0.432584 -0.0330646
v 0.32362 -0.42836 -0.0402216
v 0.335781 -0.401003 -0.0393238
v 0.337443 -0.405701 -0.0319924
v 0.342597 -0.406332 -0.0193493
v 0.347204 -0.396424 -0.0164566
v 0.378056 -0.226991 -0.0593233
v 0.361929 -0.29943 -0.0527898
v 0.358652 -0.290232 -0.0611686
v 0.360148 -0.280482 -0.0631636
v 0.361478 -0.271876 -0.0649092
v 0.358676 -0.225768 -0.0870532
v 0.348273 -0.219294 -0.103212
v 0.360172 -0.215938 -0.0889983
v 0.352216 -0.290232 -0.0696472
v 0.397103 -0.224504 -0.0164566
v 0.387722 -0.222175 -0.0405457
v 0.386606 -0.230781 -0.0378027
v 0.381476 -0.238637 -0.0451591
v 0.375087 -0.248901 -0.0536127
v 0.372308 -0.290232 -0.0344362
v 0.367843 -0.290232 -0.0451591
v 0.360671 -0.308036 -0.0505704
v 0.323312 -0.119339 -0.168497
v 0.3183 -0.096759 -0.177375
v 0.319939 -0.0838503 -0.178647
v 0.321578 -0.070981 -0.179894
v 0.32647 -0.0322547 -0.183659
v 0.32685 -0.0293335 -0.183933
v 0.322124 -0.127945 -0.16735
v 0.319535 -0.225768 -0.138074
v 0.309964 -0.246216 -0.142363
v 0.313099 -0.225768 -0.146303
v 0.309062 -0.217951 -0.154258
v 0.310487 -0.209345 -0.155655
v 0.319844 -0.187081 -0.151441
v 0.251729 -0.0293335 -0.241613
v 0.240875 -0.070981 -0.241837
v 0.245174 -0.103431 -0.232236
v 0.243939 -0.112036 -0.231289
v 0.2423 -0.122577 -0.230017
v 0.23375 -0.135446 -0.233359
v 0.258141 -0.116537 -0.219369
v 0.232515 -0.142907 -0.232436
v 0.22786 -0.109668 -0.242934
v 0.217529 -0.125616 -0.244356
v 0.193351 -0.122577 -0.255029
v 0.219001 -0.180015 -0.232037
v 0.213966 -0.17508 -0.235204
v 0.239212 -0.432584 -0.132838
v 0.234249 -0.416478 -0.143486
v 0.193351 -0.399977 -0.181215
v 0.207197 -0.337051 -0.194058
v 0.206675 -0.374633 -0.180791
v 0.202067 -0.393424 -0.17735
v 0.208171 -0.403135 -0.169046
v 0.193351 -0.361408 -0.193409
v 0.204704 -0.307049 -0.205604
v 0.212636 -0.407003 -0.164034
v 0.31849 -0.432584 -0.0445855
v 0.318348 -0.432584 -0.044785
v 0.322148 -0.412017 -0.0511938
v 0.325568 -0.419202 -0.0427402
v 0.341457 -0.393424 -0.0322667
v 0.328988 -0.40649 -0.0452588
v 0.323953 -0.403411 -0.053513
v 0.296878 -0.400292 -0.0905195
v 0.308777 -0.397608 -0.0763303
v 0.332313 -0.393424 -0.0476029
v 0.348986 -0.337367 -0.0525654
v 0.348534 -0.361961 -0.0391742
v 0.347157 -0.370567 -0.0360571
v 0.347608 -0.384857 -0.024212
v 0.350054 -0.366817 -0.0319674
v 0.361169 -0.322485 -0.0387253
v 0.363473 -0.344591 -0.0164566
v 0.357227 -0.303497 -0.057478
v 0.350173 -0.303102 -0.0669789
v 0.313099 -0.290232 -0.120668
v 0.345233 -0.303102 -0.0734376
v 0.335044 -0.295562 -0.0898711
v 0.379766 -0.290154 -0.0164566
v 0.374113 -0.296786 -0.0258828
v 0.363972 -0.303497 -0.0458324
v 0.352239 -0.315655 -0.0585752
v 0.374256 -0.31005 -0.0164566
v 0.362191 -0.316011 -0.0411442
v 0.350506 -0.328919 -0.0545603
v 0.309347 -0.115234 -0.180392
v 0.315332 -0.110418 -0.176826
v 0.317113 -0.123208 -0.172437
v 0.310582 -0.106628 -0.18134
v 0.311888 -0.096759 -0.182337
v 0.31165 -0.0322547 -0.195055
v 0.298612 -0.0293335 -0.205629
v 0.306045 -0.187081 -0.164956
v 0.308159 -0.174172 -0.166577
v 0.314477 -0.135446 -0.171415
v 0.309299 -0.282771 -0.128598
v 0.308135 -0.290232 -0.127102
v 0.301058 -0.290075 -0.136179
v 0.297305 -0.285653 -0.142488
v 0.301058 -0.225768 -0.158124
v 0.304122 -0.213333 -0.159545
v 0.290964 -0.290075 -0.146104
v 0.296522 -0.205911 -0.16755
v 0.302602 -0.200937 -0.164133
v 0.276096 -0.0293335 -0.22291
v 0.302222 -0.0324126 -0.202262
v 0.304288 -0.0458346 -0.198073
v 0.301937 -0.0580722 -0.197499
v 0.260873 -0.096759 -0.221488
v 0.296379 -0.10193 -0.193235
v 0.252085 -0.121511 -0.222785
v 0.239236 -0.160395 -0.22291
v 0.240186 -0.187081 -0.215504
v 0.232515 -0.194502 -0.219518
v 0.301723 -0.122577 -0.184432
v 0.231114 -0.203069 -0.218446
v 0.226387 -0.19924 -0.222685
v 0.222872 -0.212859 -0.221738
v 0.193351 -0.158105 -0.247398
v 0.217172 -0.187081 -0.231239
v 0.205939 -0.205516 -0.231987
v 0.220854 -0.223162 -0.220341
v 0.260279 -0.429781 -0.11785
v 0.252845 -0.432584 -0.122364
v 0.26453 -0.418294 -0.119471
v 0.257049 -0.41103 -0.128274
v 0.215605 -0.328919 -0.190641
v 0.207221 -0.298444 -0.206875
v 0.209145 -0.328919 -0.195454
v 0.213277 -0.315497 -0.1971
v 0.219904 -0.310839 -0.193933
v 0.246765 -0.393424 -0.143186
v 0.217054 -0.393424 -0.165954
v 0.210594 -0.393424 -0.170891
v 0.245174 -0.400016 -0.141964
v 0.193351 -0.314274 -0.208197
v 0.196106 -0.31301 -0.207449
v 0.200215 -0.302904 -0.208696
v 0.259376 -0.402424 -0.13007
v 0.251111 -0.405503 -0.135132
v 0.311365 -0.432584 -0.053912
v 0.313693 -0.418886 -0.0584505
v 0.319013 -0.407161 -0.0579268
v 0.310273 -0.414346 -0.0654079
v 0.307019 -0.406332 -0.0740361
v 0.284979 -0.402701 -0.104734
v 0.286737 -0.393424 -0.107028
v 0.296712 -0.37412 -0.103237
v 0.306948 -0.380515 -0.0868537
v 0.306473 -0.328919 -0.11204
v 0.347276 -0.319721 -0.0632135
v 0.338678 -0.353671 -0.058251
v 0.334118 -0.383515 -0.0499719
v 0.348843 -0.311115 -0.0652583
v 0.372047 -0.317274 -0.0164566
v 0.323145 -0.29872 -0.104085
v 0.306093 -0.303102 -0.124459
v 0.321744 -0.307326 -0.102265
v 0.311057 -0.303102 -0.118
v 0.378958 -0.293154 -0.0164566
v 0.376512 -0.302154 -0.0164566
v 0.372902 -0.305391 -0.0229901
v 0.373211 -0.313484 -0.0164566
v 0.299609 -0.187081 -0.169919
v 0.299657 -0.303102 -0.132738
v 0.295738 -0.294259 -0.140967
v 0.29265 -0.225768 -0.164582
v 0.257856 -0.218938 -0.19336
v 0.264079 -0.213925 -0.190093
v 0.229332 -0.212859 -0.217075
v 0.245316 -0.206977 -0.206551
v 0.287425 -0.303102 -0.144683
v 0.258735 -0.298404 -0.168248
v 0.244533 -0.295246 -0.180143
v 0.265409 -0.226202 -0.185355
v 0.24648 -0.19995 -0.207449
v 0.282651 -0.19995 -0.179694
v 0.296545 -0.154316 -0.180467
v 0.267808 -0.148355 -0.204008
v 0.263248 -0.173106 -0.201314
v 0.193351 -0.200305 -0.238321
v 0.212612 -0.2007 -0.230142
v 0.21285 -0.212859 -0.227074
v 0.203706 -0.212859 -0.231064
v 0.193351 -0.212859 -0.235353
v 0.193351 -0.207924 -0.236525
v 0.219049 -0.231729 -0.219144
v 0.263651 -0.432584 -0.113461
v 0.27118 -0.413399 -0.116379
v 0.268876 -0.422004 -0.114135
v 0.263984 -0.406569 -0.124808
v 0.272629 -0.338986 -0.143236
v 0.199954 -0.290232 -0.212237
v 0.20544 -0.256441 -0.21887
v 0.207981 -0.247835 -0.220017
v 0.21399 -0.226794 -0.222835
v 0.215486 -0.290232 -0.203708
v 0.212066 -0.302904 -0.202137
v 0.221566 -0.303102 -0.19523
v 0.256906 -0.30701 -0.166852
v 0.271109 -0.31001 -0.154932
v 0.285311 -0.312734 -0.143062
v 0.264649 -0.314984 -0.158099
v 0.268069 -0.393424 -0.126828
v 0.27004 -0.385134 -0.128349
v 0.193351 -0.309971 -0.209469
v 0.193351 -0.303023 -0.211514
v 0.288114 -0.432584 -0.0842104
v 0.281511 -0.419202 -0.10022
v 0.293577 -0.420307 -0.0838862
v 0.283174 -0.411306 -0.102414
v 0.281725 -0.393424 -0.113486
v 0.279706 -0.406727 -0.109272
v 0.283221 -0.385449 -0.115382
v 0.296403 -0.321656 -0.128623
v 0.309869 -0.310326 -0.116454
v 0.29797 -0.31305 -0.130618
v 0.284575 -0.350315 -0.129745
v 0.272059 -0.222215 -0.181465
v 0.22539 -0.226794 -0.215878
v 0.263604 -0.302865 -0.163061
v 0.224226 -0.290232 -0.19725
v 0.219571 -0.271521 -0.206576
v 0.19936 -0.22557 -0.229543
v 0.193351 -0.228965 -0.231164
v 0.193351 -0.221938 -0.233009
v 0.264791 -0.432584 -0.112439
v 0.274386 -0.418294 -0.109771
v 0.272225 -0.432584 -0.104858
v 0.282723 -0.358921 -0.127975
v 0.281464 -0.328919 -0.140119
v 0.277094 -0.342696 -0.138448
v 0.193351 -0.290588 -0.21488
v 0.200666 -0.251901 -0.222062
v 0.277996 -0.354658 -0.133361
v 0.278946 -0.432584 -0.0961552
f 1 2 3
f 1 3 8
f 1 8 17
f 1 17 30
f 1 30 34
f 1 34 52
f 1 52 51
f 1 51 50
f 1 50 83
f 1 83 124
f 1 124 122
f 1 122 121
f 1 121 180
f 1 180 246
f 1 246 259
f 1 259 188
f 1 188 139
f 1 139 138
f 1 138 137
f 1 137 91
f 1 91 62
f 1 62 38
f 1 38 20
f 1 20 9
f 1 9 4
f 1 4 10
f 1 10 23
f 1 23 42
f 1 42 72
f 1 72 106
f 1 106 105
f 1 105 157
f 1 157 227
f 1 227 309
f 1 309 317
f 1 317 237
f 1 237 315
f 1 315 314
f 1 314 233
f 1 233 167
f 1 167 115
f 1 115 114
f 1 114 108
f 1 108 73
f 1 73 45
f 1 45 43
f 1 43 24
f 1 24 13
f 1 13 5
f 1 5 2
f 2 5 6
f 2 6 7
f 2 7 3
f 3 7 8
f 4 9 10
f 5 11 12
f 5 12 7
f 5 7 6
f 5 13 11
f 7 12 13
f 7 13 14
f 7 14 15
f 7 15 16
f 7 16 8
f 8 16 18
f 8 18 19
f 8 19 17
f 9 20 40
f 9 40 66
f 9 66 65
f 9 65 96
f 9 96 97
f 9 97 146
f 9 146 198
f 9 198 273
f 9 273 335
f 9 335 340
f 9 340 339
f 9 339 380
f 9 380 379
f 9 379 387
f 9 387 361
f 9 361 360
f 9 360 290
f 9 290 208
f 9 208 203
f 9 203 148
f 9 148 100
f 9 100 68
f 9 68 41
f 9 41 21
f 9 21 10
f 10 21 22
f 10 22 23
f 11 13 12
f 13 24 14
f 14 24 25
f 14 25 15
f 15 25 26
f 15 26 27
f 15 27 16
f 16 27 28
f 16 28 29
f 16 29 19
f 16 19 18
f 17 19 30
f 19 31 32
f 19 32 33
f 19 33 34
f 19 34 30
f 19 29 35
f 19 35 36
f 19 36 37
f 19 37 31
f 20 38 39
f 20 39 40
f 21 41 22
f 22 41 68
f 22 68 99
f 22 99 147
f 22 147 201
f 22 201 278
f 22 278 342
f 22 342 381
f 22 381 383
f 22 383 390
f 22 390 362
f 22 362 295
f 22 295 212
f 22 212 211
f 22 211 152
f 22 152 102
f 22 102 69
f 22 69 42
f 22 42 23
f 24 43 26
f 24 26 25
f 26 44 27
f 26 43 45
f 26 45 44
f 27 44 46
f 27 46 47
f 27 47 28
f 28 47 35
f 28 35 29
f 31 48 49
f 31 49 50
f 31 50 51
f 31 51 52
f 31 52 32
f 31 37 53
f 31 53 48
f 32 52 33
f 33 52 34
f 35 54 55
f 35 55 56
f 35 56 36
f 35 47 57
f 35 57 58
f 35 58 59
f 35 59 54
f 36 56 55
f 36 55 60
f 36 60 37
f 37 60 61
f 37 61 53
f 38 62 63
f 38 63 64
f 38 64 39
f 39 65 66
f 39 66 40
f 39 64 67
f 39 67 65
f 42 69 70
f 42 70 71
f 42 71 72
f 44 45 46
f 45 73 74
f 45 74 46
f 46 74 47
f 47 75 76
f 47 76 77
f 47 77 78
f 47 78 79
f 47 79 57
f 47 74 80
f 47 80 81
f 47 81 75
f 48 53 49
f 49 82 50
f 49 53 82
f 50 82 83
f 53 61 84
f 53 84 85
f 53 85 82
f 54 59 86
f 54 86 87
f 54 87 55
f 55 87 88
f 55 88 61
f 55 61 60
f 57 79 78
f 57 78 89
f 57 89 58
f 58 89 90
f 58 90 59
f 59 87 86
f 59 90 87
f 61 88 84
f 62 91 92
f 62 92 93
f 62 93 94
f 62 94 63
f 63 94 95
f 63 95 67
f 63 67 64
f 65 67 96
f 67 97 96
f 67 95 98
f 67 98 97
f 68 100 101
f 68 101 99
f 69 102 103
f 69 103 70
f 70 103 104
f 70 104 71
f 71 104 105
f 71 105 106
f 71 106 72
f 73 107 74
f 73 108 109
f 73 109 81
f 73 81 107
f 74 107 80
f 75 110 111
f 75 111 76
f 75 81 110
f 76 111 112
f 76 112 113
f 76 113 77
f 77 113 89
f 77 89 78
f 80 107 81
f 81 109 114
f 81 114 115
f 81 115 116
f 81 116 117
f 81 117 118
f 81 118 110
f 82 85 119
f 82 119 120
f 82 120 121
f 82 121 122
f 82 122 123
f 82 123 83
f 83 123 124
f 84 88 125
f 84 125 119
f 84 119 85
f 87 126 127
f 87 127 88
f 87 90 126
f 88 128 125
f 88 127 129
f 88 129 130
f 88 130 128
f 89 113 131
f 89 131 90
f 90 131 132
f 90 132 133
f 90 133 134
f 90 134 135
f 90 135 136
f 90 136 129
f 90 129 126
f 91 137 92
f 92 137 138
f 92 138 139
f 92 139 93
f 93 139 140
f 93 140 141
f 93 141 142
f 93 142 143
f 93 143 144
f 93 144 95
f 93 95 94
f 95 145 98
f 95 144 145
f 97 98 145
f 97 145 146
f 99 101 147
f 100 148 149
f 100 149 101
f 101 149 150
f 101 150 151
f 101 151 147
f 102 152 153
f 102 153 154
f 102 154 103
f 103 154 104
f 104 154 155
f 104 155 156
f 104 156 105
f 105 156 157
f 108 114 109
f 110 118 158
f 110 158 111
f 111 158 159
f 111 159 160
f 111 160 161
f 111 161 162
f 111 162 112
f 112 163 164
f 112 164 165
f 112 165 113
f 112 162 166
f 112 166 163
f 113 165 131
f 115 167 168
f 115 168 116
f 116 168 169
f 116 169 170
f 116 170 117
f 117 171 118
f 117 170 172
f 117 172 173
f 117 173 174
f 117 174 159
f 117 159 171
f 118 171 158
f 119 125 175
f 119 175 120
f 120 175 176
f 120 176 177
f 120 177 121
f 121 177 178
f 121 178 179
f 121 179 180
f 122 124 123
f 125 128 175
f 126 129 127
f 128 181 175
f 128 130 129
f 128 129 181
f 129 136 181
f 131 165 164
f 131 164 132
f 132 164 133
f 133 164 182
f 133 182 183
f 133 183 184
f 133 184 134
f 134 184 185
f 134 185 186
f 134 186 135
f 135 186 187
f 135 187 136
f 136 187 186
f 136 186 181
f 139 188 189
f 139 189 140
f 140 189 190
f 140 190 141
f 141 190 142
f 142 190 191
f 142 191 143
f 143 192 193
f 143 193 144
f 143 191 194
f 143 194 192
f 144 193 195
f 144 195 196
f 144 196 145
f 145 197 198
f 145 198 146
f 145 196 199
f 145 199 200
f 145 200 197
f 147 151 202
f 147 202 201
f 148 203 149
f 149 204 205
f 149 205 206
f 149 206 207
f 149 207 150
f 149 203 208
f 149 208 209
f 149 209 204
f 150 207 151
f 151 207 210
f 151 210 202
f 152 211 153
f 153 211 212
f 153 212 213
f 153 213 214
f 153 214 154
f 154 215 155
f 154 214 216
f 154 216 217
f 154 217 218
f 154 218 219
f 154 219 220
f 154 220 221
f 154 221 174
f 154 174 222
f 154 222 215
f 155 215 157
f 155 157 156
f 157 215 223
f 157 223 224
f 157 224 225
f 157 225 226
f 157 226 227
f 158 171 159
f 159 174 228
f 159 228 160
f 160 228 229
f 160 229 166
f 160 166 161
f 161 166 162
f 163 166 230
f 163 230 164
f 164 230 182
f 166 229 231
f 166 231 232
f 166 232 230
f 167 169 168
f 167 233 172
f 167 172 169
f 169 172 170
f 172 233 234
f 172 234 173
f 173 234 235
f 173 235 174
f 174 236 228
f 174 235 237
f 174 237 238
f 174 238 223
f 174 223 222
f 174 221 239
f 174 239 236
f 175 240 241
f 175 241 176
f 175 181 242
f 175 242 240
f 176 241 243
f 176 243 244
f 176 244 177
f 177 244 178
f 178 244 179
f 179 245 180
f 179 244 245
f 180 245 246
f 181 247 248
f 181 248 249
f 181 249 242
f 181 186 247
f 182 230 183
f 183 185 184
f 183 230 250
f 183 250 251
f 183 251 252
f 183 252 253
f 183 253 185
f 185 254 255
f 185 255 186
f 185 253 256
f 185 256 254
f 186 257 258
f 186 258 247
f 186 255 257
f 188 259 260
f 188 260 261
f 188 261 262
f 188 262 263
f 188 263 190
f 188 190 189
f 190 263 264
f 190 264 243
f 190 243 240
f 190 240 191
f 191 240 194
f 192 194 265
f 192 265 193
f 193 265 266
f 193 266 267
f 193 267 268
f 193 268 195
f 194 240 269
f 194 269 265
f 195 268 270
f 195 270 271
f 195 271 272
f 195 272 199
f 195 199 196
f 197 200 273
f 197 273 198
f 199 274 275
f 199 275 200
f 199 272 276
f 199 276 274
f 200 275 273
f 201 277 278
f 201 202 279
f 201 279 277
f 202 210 280
f 202 280 279
f 204 281 205
f 204 209 282
f 204 282 283
f 204 283 284
f 204 284 285
f 204 285 281
f 205 281 286
f 205 286 287
f 205 287 288
f 205 288 206
f 206 288 207
f 207 288 289
f 207 289 210
f 208 290 291
f 208 291 209
f 209 291 292
f 209 292 282
f 210 289 293
f 210 293 294
f 210 294 280
f 212 295 296
f 212 296 213
f 213 297 217
f 213 217 216
f 213 216 214
f 213 296 298
f 213 298 299
f 213 299 297
f 215 222 223
f 217 299 218
f 217 297 299
f 218 299 300
f 218 300 301
f 218 301 219
f 219 301 302
f 219 302 303
f 219 303 304
f 219 304 305
f 219 305 306
f 219 306 307
f 219 307 220
f 220 307 221
f 221 307 306
f 221 306 305
f 221 305 308
f 221 308 236
f 221 236 239
f 223 238 226
f 223 226 225
f 223 225 224
f 226 238 309
f 226 309 227
f 228 236 308
f 228 308 229
f 229 308 231
f 230 232 310
f 230 310 311
f 230 311 251
f 230 251 250
f 231 308 312
f 231 312 313
f 231 313 310
f 231 310 232
f 233 314 234
f 234 314 315
f 234 315 316
f 234 316 235
f 235 316 237
f 237 317 238
f 237 316 315
f 238 317 309
f 240 243 241
f 240 242 269
f 242 249 269
f 243 264 244
f 244 264 262
f 244 262 261
f 244 261 245
f 245 261 260
f 245 260 246
f 246 260 259
f 247 258 248
f 248 258 318
f 248 318 249
f 249 318 269
f 251 311 319
f 251 319 252
f 252 319 253
f 253 319 320
f 253 320 256
f 254 321 255
f 254 256 321
f 255 321 322
f 255 322 323
f 255 323 324
f 255 324 325
f 255 325 257
f 256 320 326
f 256 326 327
f 256 327 328
f 256 328 329
f 256 329 321
f 257 325 270
f 257 270 330
f 257 330 331
f 257 331 318
f 257 318 258
f 262 264 263
f 265 269 332
f 265 332 333
f 265 333 334
f 265 334 266
f 266 334 267
f 267 334 318
f 267 318 330
f 267 330 270
f 267 270 268
f 269 318 332
f 270 325 324
f 270 324 272
f 270 272 271
f 272 324 276
f 273 275 335
f 274 336 275
f 274 276 337
f 274 337 336
f 275 337 338
f 275 338 339
f 275 339 340
f 275 340 335
f 275 336 337
f 276 324 341
f 276 341 337
f 277 342 278
f 277 279 343
f 277 343 344
f 277 344 342
f 279 280 345
f 279 345 343
f 280 294 345
f 281 346 286
f 281 285 346
f 282 292 347
f 282 347 348
f 282 348 349
f 282 349 350
f 282 350 341
f 282 341 351
f 282 351 352
f 282 352 283
f 283 352 284
f 284 352 285
f 285 352 353
f 285 353 354
f 285 354 355
f 285 355 356
f 285 356 357
f 285 357 346
f 286 358 289
f 286 289 287
f 286 346 359
f 286 359 358
f 287 289 288
f 289 358 293
f 290 360 291
f 291 360 361
f 291 361 292
f 292 361 347
f 293 358 345
f 293 345 294
f 295 362 363
f 295 363 364
f 295 364 296
f 296 364 365
f 296 365 298
f 298 365 299
f 299 365 300
f 300 366 301
f 300 365 367
f 300 367 366
f 301 366 368
f 301 368 369
f 301 369 302
f 302 369 303
f 303 369 304
f 304 369 370
f 304 370 305
f 305 370 308
f 308 370 312
f 310 313 311
f 311 313 370
f 311 370 371
f 311 371 319
f 312 370 313
f 318 331 330
f 318 334 332
f 319 371 320
f 320 356 326
f 320 371 372
f 320 372 356
f 321 329 373
f 321 373 322
f 322 373 329
f 322 329 374
f 322 374 324
f 322 324 323
f 324 374 341
f 326 356 355
f 326 355 354
f 326 354 375
f 326 375 327
f 327 375 354
f 327 354 353
f 327 353 328
f 328 353 376
f 328 376 377
f 328 377 374
f 328 374 329
f 332 334 333
f 337 341 350
f 337 350 349
f 337 349 348
f 337 348 338
f 338 378 379
f 338 379 380
f 338 380 339
f 338 348 378
f 341 374 377
f 341 377 351
f 342 344 381
f 343 366 367
f 343 367 382
f 343 382 383
f 343 383 344
f 343 345 358
f 343 358 384
f 343 384 366
f 344 383 381
f 346 385 386
f 346 386 359
f 346 357 356
f 346 356 385
f 347 361 387
f 347 387 379
f 347 379 388
f 347 388 348
f 348 388 379
f 348 379 378
f 351 353 352
f 351 377 353
f 353 377 376
f 356 372 389
f 356 389 385
f 358 359 372
f 358 372 384
f 359 386 385
f 359 385 389
f 359 389 372
f 362 390 363
f 363 365 364
f 363 390 383
f 363 383 365
f 365 383 367
f 366 384 368
f 367 383 382
f 368 384 372
f 368 372 369
f 369 372 371
f 369 371 370
