v -0.483941 0.0707047 0.161005
v -0.483941 0.0707047 0.161246
v -0.483766 0.0707047 0.148348
v -0.477577 0.0101543 0.152496
v -0.482442 0.0707047 0.174145
v -0.477577 0.0101543 0.157746
v -0.48254 0.0580204 0.161246
v -0.477129 0.0141396 0.166345
v -0.477616 0.02271 0.170283
v -0.480379 0.0707047 0.12255
v -0.482365 0.0580204 0.148348
v -0.472964 0.0193247 0.109651
v -0.476565 0.00608332 0.148257
v -0.475144 -0.00647242 0.148348
v -0.473373 -0.019371 0.148348
v -0.473567 -0.019371 0.161246
v -0.475319 -0.00647242 0.161246
v -0.479601 0.0451218 0.174145
v -0.480749 0.0707047 0.187029
v -0.47672 0.00608332 0.161729
v -0.47382 -0.00647242 0.174145
v -0.47528 0.00642614 0.174145
v -0.4702 0.00642614 0.212826
v -0.466541 0.0193247 0.251537
v -0.477051 0.0278095 0.178882
v -0.478102 0.0707047 0.105291
v -0.476097 0.0461931 0.110753
v -0.473334 0.0278523 0.105291
v -0.471524 0.00642614 0.109651
v -0.47382 0.0322233 0.105291
v -0.470453 0.00205519 0.105291
v -0.47345 -0.00647242 0.135449
v -0.468293 -0.019371 0.109651
v -0.464653 -0.0791929 0.152692
v -0.472049 -0.019371 0.174145
v -0.464653 -0.0791929 0.157505
v -0.463544 -0.0836495 0.161578
v -0.464205 -0.0763646 0.166104
v -0.472808 0.0451218 0.22574
v -0.470687 0.0659052 0.259397
v -0.475689 0.0707047 0.225453
v -0.469811 0.0580204 0.259397
v -0.464711 -0.0151715 0.234822
v -0.464147 -0.0110576 0.243421
v -0.46259 -0.00655813 0.259397
v -0.464089 0.00248372 0.255852
v -0.464089 0.0066404 0.259397
v -0.385379 0.0707047 0.105291
v -0.46948 -0.00647242 0.105291
v -0.467709 -0.019371 0.105291
v -0.465762 -0.0319696 0.105291
v -0.463582 -0.0711366 0.135011
v -0.457958 -0.0967624 0.12255
v -0.461344 -0.0967624 0.148348
v -0.459203 -0.109661 0.148348
v -0.459398 -0.109661 0.161246
v -0.468662 -0.019371 0.199927
v -0.464867 -0.0677513 0.17152
v -0.465743 -0.059138 0.175156
v -0.461539 -0.0967624 0.161246
v -0.460021 -0.0967624 0.174145
v -0.471212 0.0707047 0.259397
v -0.472283 0.0707047 0.251296
v -0.460838 -0.019371 0.259397
v -0.377302 0.0707047 0.259397
v -0.285123 -0.367075 0.259397
v -0.298845 -0.367075 0.105291
v -0.45568 -0.0967624 0.105291
v -0.460274 -0.0709652 0.109651
v -0.454123 -0.109661 0.109651
v -0.452819 -0.113732 0.105291
v -0.451943 -0.118446 0.105291
v -0.45679 -0.122559 0.148348
v -0.45788 -0.109661 0.174145
v -0.456965 -0.122559 0.161246
v -0.464419 -0.0518959 0.193787
v -0.458327 -0.0967624 0.187029
v -0.451437 -0.103019 0.23194
v -0.458833 -0.0322695 0.259397
v -0.384269 -0.367075 0.259397
v -0.392055 -0.367075 0.105291
v -0.453539 -0.109704 0.105291
v -0.452235 -0.119903 0.109651
v -0.448537 -0.135458 0.105291
v -0.451106 -0.140086 0.131813
v -0.452196 -0.145485 0.148348
v -0.441472 -0.199908 0.161246
v -0.455447 -0.122559 0.174145
v -0.451807 -0.117846 0.208994
v -0.451243 -0.114846 0.217593
v -0.452664 -0.110218 0.213113
v -0.454493 -0.109661 0.199927
v -0.451788 -0.143514 0.170117
v -0.45062 -0.0850637 0.259397
v -0.455856 -0.0580667 0.251537
v -0.450853 -0.110218 0.226871
v -0.4477 -0.109661 0.251537
v -0.446649 -0.109661 0.259397
v -0.447953 -0.101819 0.259397
v -0.448849 -0.0963767 0.259397
v -0.386177 -0.367075 0.251537
v -0.386118 -0.362576 0.259397
v -0.387014 -0.36129 0.25807
v -0.396025 -0.367075 0.135449
v -0.396239 -0.354734 0.109651
v -0.40566 -0.320537 0.105291
v -0.447662 -0.139829 0.105291
v -0.437755 -0.189238 0.105291
v -0.438202 -0.204493 0.131873
v -0.446455 -0.174111 0.148348
v -0.441278 -0.199908 0.148348
v -0.439273 -0.209336 0.148348
v -0.43937 -0.209721 0.161246
v -0.438884 -0.207707 0.170072
v -0.452255 -0.122302 0.198856
v -0.452741 -0.136015 0.174311
v -0.444236 -0.122559 0.259397
v -0.445715 -0.114717 0.259397
v -0.442543 -0.187009 0.174145
v -0.387442 -0.36279 0.251537
v -0.388298 -0.365704 0.238639
v -0.38789 -0.367075 0.238639
v -0.3868 -0.360347 0.259397
v -0.389816 -0.354734 0.251537
v -0.387461 -0.358162 0.259397
v -0.400696 -0.312695 0.259397
v -0.399373 -0.320794 0.254223
v -0.397018 -0.367075 0.142992
v -0.411771 -0.319038 0.148348
v -0.413659 -0.312567 0.148348
v -0.406983 -0.315995 0.105291
v -0.435614 -0.199908 0.105291
v -0.43466 -0.204279 0.105291
v -0.432772 -0.212807 0.105291
v -0.438767 -0.20715 0.140473
v -0.437735 -0.215806 0.148348
v -0.437832 -0.216192 0.161246
v -0.435516 -0.225705 0.161246
v -0.426096 -0.259644 0.170841
v -0.433998 -0.225705 0.174145
v -0.437229 -0.212335 0.174281
v -0.426914 -0.213149 0.2511
v -0.426446 -0.210278 0.259397
v -0.438319 -0.205093 0.178671
v -0.439818 -0.200465 0.174281
v -0.446085 -0.135458 0.22574
v -0.437774 -0.202351 0.187029
v -0.443224 -0.127616 0.259397
v -0.394624 -0.367075 0.187587
v -0.389291 -0.367075 0.228033
v -0.38861 -0.367075 0.233193
v -0.395286 -0.341835 0.238639
v -0.399704 -0.347663 0.192128
v -0.396395 -0.367075 0.174145
v -0.397816 -0.327779 0.250572
v -0.404686 -0.303096 0.251537
v -0.41216 -0.267829 0.259397
v -0.412472 -0.269629 0.255656
v -0.401164 -0.316295 0.250572
v -0.404531 -0.315995 0.22574
v -0.397796 -0.367075 0.148996
v -0.400015 -0.361633 0.153748
v -0.413075 -0.310596 0.139598
v -0.413737 -0.312867 0.161246
v -0.416384 -0.303096 0.161246
v -0.416209 -0.303096 0.148348
v -0.412511 -0.308539 0.130998
v -0.410642 -0.302711 0.105291
v -0.431721 -0.217177 0.105291
v -0.433356 -0.212807 0.109651
v -0.431935 -0.225705 0.12255
v -0.435322 -0.225705 0.148348
v -0.424948 -0.267915 0.148348
v -0.425045 -0.2683 0.161246
v -0.424344 -0.251074 0.200184
v -0.432305 -0.225705 0.187029
v -0.419654 -0.290198 0.161246
v -0.418136 -0.290198 0.174145
v -0.413114 -0.285141 0.221833
v -0.426388 -0.222148 0.238639
v -0.425298 -0.217692 0.255113
v -0.425863 -0.220049 0.246514
v -0.424967 -0.216449 0.259397
v -0.428685 -0.199908 0.259397
v -0.429755 -0.199908 0.251537
v -0.431468 -0.199908 0.238639
v -0.438942 -0.156584 0.247826
v -0.439448 -0.146428 0.259397
v -0.403772 -0.341835 0.174145
v -0.397952 -0.367075 0.160779
v -0.413192 -0.311024 0.170932
v -0.399568 -0.360133 0.164746
v -0.407956 -0.290198 0.251537
v -0.413192 -0.298254 0.196593
v -0.408093 -0.303096 0.22574
v -0.412141 -0.307125 0.187029
v -0.412627 -0.30901 0.179531
v -0.413659 -0.261873 0.259397
v -0.424072 -0.224891 0.2511
v -0.413036 -0.271943 0.247057
v -0.397952 -0.367075 0.160371
v -0.400015 -0.361633 0.156147
v -0.40529 -0.341835 0.161246
v -0.414535 -0.304082 0.174794
v -0.419459 -0.290198 0.148348
v -0.413056 -0.297783 0.113921
v -0.411946 -0.306439 0.12255
v -0.412491 -0.295512 0.105291
v -0.429658 -0.225705 0.105291
v -0.426758 -0.237532 0.105291
v -0.426427 -0.248117 0.12255
v -0.427128 -0.252145 0.135419
v -0.414223 -0.290841 0.109636
v -0.413815 -0.300697 0.187029
v -0.412121 -0.293969 0.212826
v -0.414438 -0.291141 0.200516
v -0.432869 -0.179167 0.259397
v -0.411499 -0.302797 0.200516
v -0.41399 -0.289469 0.105291
f 1 2 5
f 1 5 19
f 1 19 41
f 1 41 63
f 1 63 62
f 1 62 65
f 1 65 48
f 1 48 26
f 1 26 10
f 1 10 3
f 1 3 4
f 1 4 6
f 1 6 2
f 2 6 7
f 2 7 8
f 2 8 9
f 2 9 5
f 3 10 11
f 3 11 4
f 4 12 13
f 4 13 14
f 4 14 15
f 4 15 16
f 4 16 17
f 4 17 6
f 4 11 12
f 5 18 19
f 5 9 18
f 6 17 20
f 6 20 7
f 7 20 8
f 8 20 17
f 8 17 21
f 8 21 9
f 9 21 22
f 9 22 23
f 9 23 24
f 9 24 25
f 9 25 18
f 10 26 27
f 10 27 12
f 10 12 11
f 12 28 31
f 12 31 29
f 12 29 13
f 12 27 26
f 12 26 30
f 12 30 28
f 13 29 31
f 13 31 32
f 13 32 14
f 14 32 33
f 14 33 15
f 15 33 34
f 15 34 16
f 16 35 21
f 16 21 17
f 16 34 36
f 16 36 37
f 16 37 38
f 16 38 35
f 18 39 19
f 18 25 39
f 19 40 41
f 19 39 42
f 19 42 40
f 21 35 43
f 21 43 44
f 21 44 45
f 21 45 46
f 21 46 23
f 21 23 22
f 23 46 47
f 23 47 24
f 24 47 42
f 24 42 39
f 24 39 25
f 26 48 67
f 26 67 81
f 26 81 106
f 26 106 131
f 26 131 168
f 26 168 208
f 26 208 219
f 26 219 210
f 26 210 209
f 26 209 169
f 26 169 134
f 26 134 133
f 26 133 132
f 26 132 108
f 26 108 107
f 26 107 84
f 26 84 72
f 26 72 71
f 26 71 82
f 26 82 68
f 26 68 51
f 26 51 50
f 26 50 49
f 26 49 31
f 26 31 28
f 26 28 30
f 31 49 32
f 32 49 33
f 33 49 50
f 33 50 51
f 33 51 52
f 33 52 34
f 34 52 53
f 34 53 54
f 34 54 55
f 34 55 56
f 34 56 36
f 35 57 43
f 35 38 58
f 35 58 59
f 35 59 57
f 36 56 60
f 36 60 37
f 37 60 38
f 38 60 61
f 38 61 58
f 40 62 63
f 40 63 41
f 40 42 47
f 40 47 45
f 40 45 64
f 40 64 79
f 40 79 94
f 40 94 100
f 40 100 99
f 40 99 98
f 40 98 118
f 40 118 117
f 40 117 148
f 40 148 188
f 40 188 217
f 40 217 184
f 40 184 143
f 40 143 183
f 40 183 198
f 40 198 157
f 40 157 126
f 40 126 125
f 40 125 123
f 40 123 102
f 40 102 80
f 40 80 66
f 40 66 65
f 40 65 62
f 43 57 64
f 43 64 44
f 44 64 45
f 45 47 46
f 48 65 66
f 48 66 67
f 51 68 69
f 51 69 52
f 52 69 53
f 53 69 68
f 53 68 70
f 53 70 55
f 53 55 54
f 55 70 71
f 55 71 72
f 55 72 73
f 55 73 56
f 56 74 61
f 56 61 60
f 56 73 75
f 56 75 88
f 56 88 74
f 57 59 76
f 57 76 64
f 58 61 59
f 59 61 77
f 59 77 76
f 61 74 78
f 61 78 77
f 64 76 79
f 66 80 101
f 66 101 122
f 66 122 151
f 66 151 150
f 66 150 149
f 66 149 154
f 66 154 190
f 66 190 201
f 66 201 161
f 66 161 128
f 66 128 104
f 66 104 81
f 66 81 67
f 68 82 70
f 70 82 71
f 72 83 73
f 72 84 83
f 73 83 85
f 73 85 86
f 73 86 87
f 73 87 75
f 74 88 89
f 74 89 90
f 74 90 91
f 74 91 92
f 74 92 78
f 75 93 88
f 75 87 93
f 76 77 94
f 76 94 95
f 76 95 79
f 77 78 94
f 78 92 91
f 78 91 96
f 78 96 97
f 78 97 98
f 78 98 99
f 78 99 100
f 78 100 94
f 79 95 94
f 80 102 103
f 80 103 101
f 81 104 105
f 81 105 106
f 83 84 107
f 83 107 108
f 83 108 109
f 83 109 85
f 85 109 86
f 86 109 110
f 86 110 87
f 87 110 111
f 87 111 112
f 87 112 113
f 87 113 114
f 87 114 93
f 88 115 89
f 88 93 116
f 88 116 115
f 89 115 117
f 89 117 90
f 90 117 118
f 90 118 97
f 90 97 96
f 90 96 91
f 93 114 119
f 93 119 116
f 97 118 98
f 101 120 121
f 101 121 122
f 101 103 120
f 102 123 103
f 103 124 120
f 103 123 125
f 103 125 126
f 103 126 127
f 103 127 124
f 104 128 129
f 104 129 105
f 105 129 106
f 106 129 130
f 106 130 131
f 108 132 109
f 109 132 133
f 109 133 134
f 109 134 135
f 109 135 111
f 109 111 110
f 111 135 112
f 112 135 136
f 112 136 137
f 112 137 113
f 113 137 114
f 114 137 138
f 114 138 139
f 114 139 140
f 114 140 141
f 114 141 142
f 114 142 143
f 114 143 144
f 114 144 145
f 114 145 119
f 115 116 146
f 115 146 117
f 116 119 147
f 116 147 146
f 117 146 148
f 119 145 144
f 119 144 147
f 120 124 121
f 121 149 150
f 121 150 151
f 121 151 122
f 121 124 149
f 124 152 153
f 124 153 154
f 124 154 149
f 124 127 155
f 124 155 152
f 126 156 127
f 126 157 158
f 126 158 156
f 127 156 159
f 127 159 160
f 127 160 155
f 128 161 162
f 128 162 129
f 129 162 130
f 130 163 131
f 130 162 164
f 130 164 165
f 130 165 166
f 130 166 163
f 131 163 167
f 131 167 168
f 134 169 170
f 134 170 135
f 135 170 136
f 136 170 171
f 136 171 172
f 136 172 138
f 136 138 137
f 138 172 173
f 138 173 174
f 138 174 139
f 139 175 176
f 139 176 140
f 139 174 177
f 139 177 178
f 139 178 179
f 139 179 175
f 140 176 180
f 140 180 141
f 141 181 142
f 141 180 182
f 141 182 181
f 142 181 143
f 143 181 183
f 143 184 185
f 143 185 144
f 144 185 186
f 144 186 147
f 146 147 186
f 146 186 187
f 146 187 148
f 148 187 186
f 148 186 188
f 152 155 160
f 152 160 153
f 153 160 189
f 153 189 154
f 154 189 191
f 154 191 192
f 154 192 190
f 156 193 194
f 156 194 195
f 156 195 196
f 156 196 197
f 156 197 159
f 156 158 193
f 157 198 158
f 158 198 183
f 158 183 181
f 158 181 199
f 158 199 200
f 158 200 193
f 159 197 191
f 159 191 160
f 160 191 189
f 161 201 162
f 162 201 190
f 162 190 202
f 162 202 164
f 163 166 167
f 164 191 165
f 164 202 203
f 164 203 192
f 164 192 191
f 165 178 177
f 165 177 166
f 165 191 204
f 165 204 178
f 166 177 205
f 166 205 206
f 166 206 168
f 166 168 207
f 166 207 167
f 167 207 168
f 168 206 208
f 169 209 170
f 170 209 171
f 171 209 210
f 171 210 211
f 171 211 212
f 171 212 172
f 172 212 173
f 173 212 213
f 173 213 205
f 173 205 177
f 173 177 174
f 175 179 200
f 175 200 199
f 175 199 180
f 175 180 176
f 178 204 214
f 178 214 194
f 178 194 215
f 178 215 216
f 178 216 179
f 179 216 215
f 179 215 193
f 179 193 200
f 180 199 182
f 181 182 199
f 184 217 185
f 185 217 188
f 185 188 186
f 190 192 203
f 190 203 202
f 191 197 204
f 193 215 194
f 194 214 218
f 194 218 195
f 195 218 196
f 196 204 197
f 196 218 214
f 196 214 204
f 205 213 208
f 205 208 206
f 208 213 219
f 210 219 211
f 211 219 212
f 212 219 213
