v -0.240221 -0.367087 0.340722
v -0.185398 -0.487514 0.340722
v -0.294646 -0.367087 0.233403
v -0.348135 -0.367087 0.340722
v -0.249789 -0.487514 0.233403
v -0.294307 -0.367924 0.233403
v -0.307536 -0.487514 0.340722
v -0.388596 -0.367087 0.233403
v -0.356132 -0.367087 0.329491
v -0.351457 -0.367134 0.340722
v -0.349269 -0.487514 0.233403
v -0.307894 -0.486712 0.340722
v -0.308272 -0.487514 0.339787
v -0.383125 -0.385773 0.233403
v -0.387899 -0.367087 0.238646
v -0.36011 -0.367087 0.319899
v -0.356191 -0.367641 0.328935
v -0.351318 -0.367582 0.340722
v -0.34905 -0.487514 0.235105
v -0.354958 -0.47082 0.233403
v -0.310281 -0.480747 0.340722
v -0.31048 -0.487514 0.336741
v -0.380877 -0.393436 0.233403
v -0.380181 -0.393436 0.238646
v -0.383961 -0.380538 0.238646
v -0.386169 -0.367087 0.251547
v -0.372165 -0.367087 0.290798
v -0.362696 -0.367641 0.313239
v -0.346743 -0.382189 0.340722
v -0.348354 -0.487514 0.240421
v -0.361363 -0.452005 0.233403
v -0.322037 -0.450613 0.340722
v -0.321619 -0.462073 0.333347
v -0.315512 -0.483729 0.328935
v -0.314179 -0.487514 0.328714
v -0.324165 -0.445143 0.340722
v -0.335941 -0.414421 0.340722
v -0.379246 -0.398682 0.233403
v -0.375924 -0.407088 0.238551
v -0.375248 -0.403409 0.251547
v -0.378331 -0.393436 0.251547
v -0.385532 -0.369256 0.251547
v -0.374512 -0.401181 0.259101
v -0.383463 -0.367087 0.262663
v -0.376541 -0.367087 0.280229
v -0.373677 -0.372805 0.282813
v -0.370374 -0.392198 0.276089
v -0.349528 -0.393436 0.325478
v -0.343202 -0.393436 0.340722
v -0.360787 -0.450319 0.242102
v -0.373776 -0.411886 0.242785
v -0.347479 -0.487514 0.244361
v -0.349249 -0.480157 0.248374
v -0.37304 -0.409858 0.251547
v -0.374393 -0.413701 0.233403
v -0.320525 -0.484319 0.316411
v -0.336518 -0.415906 0.338127
v -0.329695 -0.445025 0.328935
v -0.321559 -0.487514 0.311095
v -0.337592 -0.409917 0.340722
v -0.3767 -0.406781 0.233403
v -0.372742 -0.395676 0.267705
v -0.375407 -0.392198 0.263818
v -0.383284 -0.367087 0.263272
v -0.361264 -0.438801 0.258198
v -0.364964 -0.420315 0.265552
v -0.370912 -0.405826 0.263818
v -0.362378 -0.403256 0.286679
v -0.348434 -0.400321 0.322852
v -0.360588 -0.398022 0.295273
v -0.377456 -0.367087 0.277991
v -0.375129 -0.380538 0.273431
v -0.36389 -0.393613 0.290672
v -0.338846 -0.406427 0.340722
v -0.34547 -0.487514 0.252041
v -0.346643 -0.484166 0.25222
v -0.32325 -0.487514 0.30704
v -0.338249 -0.40809 0.340722
v -0.346902 -0.408927 0.319143
v -0.360846 -0.41185 0.282981
v -0.338627 -0.41982 0.329596
v -0.381076 -0.367087 0.268872
v -0.347956 -0.476385 0.256979
v -0.349528 -0.467779 0.260992
v -0.351338 -0.458335 0.264953
v -0.342267 -0.487514 0.260656
v -0.342267 -0.483729 0.264449
v -0.33441 -0.487514 0.280082
v -0.340875 -0.487514 0.264375
f 1 2 3
f 1 3 8
f 1 8 15
f 1 15 26
f 1 26 44
f 1 44 64
f 1 64 82
f 1 82 71
f 1 71 45
f 1 45 27
f 1 27 16
f 1 16 9
f 1 9 4
f 1 4 10
f 1 10 18
f 1 18 29
f 1 29 49
f 1 49 74
f 1 74 78
f 1 78 60
f 1 60 37
f 1 37 36
f 1 36 32
f 1 32 21
f 1 21 12
f 1 12 7
f 1 7 2
f 2 5 6
f 2 6 3
f 2 7 13
f 2 13 22
f 2 22 35
f 2 35 59
f 2 59 77
f 2 77 88
f 2 88 89
f 2 89 86
f 2 86 75
f 2 75 52
f 2 52 30
f 2 30 19
f 2 19 11
f 2 11 5
f 3 6 5
f 3 5 11
f 3 11 20
f 3 20 31
f 3 31 55
f 3 55 61
f 3 61 38
f 3 38 23
f 3 23 14
f 3 14 8
f 4 9 10
f 7 12 13
f 8 14 15
f 9 16 17
f 9 17 10
f 10 17 18
f 11 19 20
f 12 21 13
f 13 21 22
f 14 23 24
f 14 24 25
f 14 25 15
f 15 25 26
f 16 27 28
f 16 28 29
f 16 29 17
f 17 29 18
f 19 30 20
f 20 30 31
f 21 32 22
f 22 33 34
f 22 34 35
f 22 32 36
f 22 36 37
f 22 37 33
f 23 38 24
f 24 38 39
f 24 39 40
f 24 40 41
f 24 41 42
f 24 42 26
f 24 26 25
f 26 42 43
f 26 43 44
f 27 45 46
f 27 46 47
f 27 47 28
f 28 47 48
f 28 48 29
f 29 48 49
f 30 50 51
f 30 51 31
f 30 52 53
f 30 53 43
f 30 43 54
f 30 54 40
f 30 40 50
f 31 51 55
f 33 56 34
f 33 37 57
f 33 57 58
f 33 58 56
f 34 56 59
f 34 59 35
f 37 60 57
f 38 61 39
f 39 61 51
f 39 51 40
f 40 43 41
f 40 51 50
f 40 54 43
f 41 43 42
f 43 62 63
f 43 63 64
f 43 64 44
f 43 53 65
f 43 65 66
f 43 66 67
f 43 67 68
f 43 68 69
f 43 69 70
f 43 70 62
f 45 71 72
f 45 72 47
f 45 47 46
f 47 62 70
f 47 70 73
f 47 73 48
f 47 72 62
f 48 73 70
f 48 70 69
f 48 69 49
f 49 69 74
f 51 61 55
f 52 75 53
f 53 75 76
f 53 76 65
f 56 58 77
f 56 77 59
f 57 60 78
f 57 78 79
f 57 79 80
f 57 80 81
f 57 81 58
f 58 81 77
f 62 72 63
f 63 72 71
f 63 71 82
f 63 82 64
f 65 76 83
f 65 83 84
f 65 84 85
f 65 85 80
f 65 80 66
f 66 80 67
f 67 80 68
f 68 80 69
f 69 80 79
f 69 79 74
f 74 79 78
f 75 86 83
f 75 83 76
f 77 81 80
f 77 80 85
f 77 85 84
f 77 84 87
f 77 87 88
f 83 86 89
f 83 89 87
f 83 87 84
f 87 89 88
