v 0.432132 0.594502 0.253199
v 0.445022 0.594297 0.21283
v 0.445022 0.594502 0.187042
v 0.406341 0.594502 0.253199
v 0.442311 0.593938 0.253199
v 0.452774 0.593836 0.199929
v 0.445022 0.594502 0.12255
v 0.453887 0.593938 0.174155
v 0.454538 0.593938 0.161254
v 0.406341 0.594502 0.238632
v 0.404838 0.594451 0.253199
v 0.448762 0.59281 0.253199
v 0.451496 0.593374 0.232377
v 0.452277 0.593682 0.21283
v 0.460989 0.592554 0.161254
v 0.445022 0.5944 0.109649
v 0.432132 0.594502 0.105291
v 0.454467 0.593938 0.148353
v 0.453745 0.593938 0.135452
v 0.453189 0.593887 0.12255
v 0.419243 0.594502 0.105291
v 0.406341 0.594195 0.105291
v 0.397026 0.593938 0.253199
v 0.45855 0.585426 0.253199
v 0.456645 0.588759 0.23746
v 0.458219 0.588862 0.225731
v 0.458728 0.589836 0.21283
v 0.459225 0.590708 0.199929
v 0.459746 0.591426 0.187042
v 0.460338 0.592092 0.174155
v 0.460918 0.592503 0.148353
v 0.469925 0.586093 0.161254
v 0.445022 0.594349 0.105291
v 0.4365 0.594451 0.105291
v 0.45268 0.593784 0.109649
v 0.399322 0.593579 0.105291
v 0.390789 0.592092 0.253199
v 0.463995 0.578914 0.253199
v 0.464504 0.580657 0.24606
v 0.464977 0.581324 0.238632
v 0.465794 0.582452 0.225731
v 0.466623 0.583426 0.21283
v 0.467451 0.584247 0.199929
v 0.468292 0.585016 0.187042
v 0.469144 0.585631 0.174155
v 0.456763 0.59158 0.105291
v 0.452502 0.593733 0.105291
v 0.46983 0.586042 0.148353
v 0.459639 0.591323 0.12255
v 0.476376 0.57676 0.161254
v 0.397145 0.5924 0.105291
v 0.389771 0.591426 0.253199
v 0.464468 0.576863 0.253199
v 0.477441 0.568351 0.168943
v 0.475689 0.573171 0.173605
v 0.45913 0.590554 0.109649
v 0.458953 0.590246 0.105291
v 0.468114 0.584862 0.12255
v 0.468954 0.585478 0.135452
v 0.476281 0.576299 0.148353
v 0.477855 0.5703 0.161254
v 0.392872 0.58958 0.105291
v 0.381876 0.585734 0.253199
v 0.465392 0.574145 0.250824
v 0.465285 0.573222 0.253199
v 0.467179 0.561223 0.253199
v 0.467416 0.561121 0.251534
v 0.476873 0.563787 0.177543
v 0.477784 0.560147 0.173605
v 0.479122 0.561121 0.161254
v 0.467274 0.584093 0.109649
v 0.46699 0.583785 0.105291
v 0.469889 0.577119 0.105291
v 0.47776 0.569838 0.148353
v 0.471665 0.573991 0.109649
v 0.471085 0.573991 0.105291
v 0.384918 0.583119 0.105291
v 0.37526 0.575068 0.253199
v 0.468753 0.546558 0.253199
v 0.477121 0.52738 0.205185
v 0.481737 0.522407 0.174155
v 0.484483 0.496614 0.174155
v 0.485998 0.496614 0.161254
v 0.483063 0.522407 0.148353
v 0.478932 0.561121 0.148353
v 0.477311 0.567736 0.141591
v 0.472529 0.565479 0.105291
v 0.383533 0.579837 0.105291
v 0.374881 0.574043 0.253199
v 0.474079 0.496614 0.253199
v 0.482791 0.496614 0.187042
v 0.477358 0.490974 0.232826
v 0.485608 0.483692 0.174155
v 0.487123 0.483692 0.161254
v 0.486945 0.483692 0.148353
v 0.485809 0.496614 0.148353
v 0.484116 0.496614 0.135452
v 0.478388 0.549122 0.134467
v 0.473843 0.561121 0.109649
v 0.473263 0.561121 0.105291
v 0.381403 0.573991 0.105291
v 0.374561 0.571992 0.253199
v 0.475204 0.483692 0.253199
v 0.483915 0.483692 0.187042
v 0.486448 0.470822 0.174155
v 0.487963 0.470822 0.161254
v 0.49033 0.441132 0.156374
v 0.49033 0.441132 0.153565
v 0.487786 0.470822 0.148353
v 0.481832 0.47518 0.105291
v 0.483548 0.483692 0.12255
v 0.480719 0.496614 0.109649
v 0.476991 0.526201 0.105291
v 0.374029 0.56671 0.253199
v 0.380598 0.561121 0.105291
v 0.476068 0.470411 0.253199
v 0.477086 0.474257 0.243642
v 0.484756 0.470822 0.187042
v 0.488081 0.445029 0.174155
v 0.490165 0.425492 0.167596
v 0.48878 0.4579 0.161254
v 0.489608 0.445285 0.160907
v 0.492023 0.406315 0.161254
v 0.492792 0.393393 0.161254
v 0.489466 0.445285 0.148903
v 0.492615 0.393393 0.148353
v 0.491834 0.406315 0.148353
v 0.484389 0.470822 0.12255
v 0.481264 0.483692 0.105291
v 0.481844 0.483692 0.109649
v 0.482116 0.470822 0.105291
v 0.480885 0.488051 0.105291
v 0.480139 0.496614 0.105291
v 0.385391 0.0707047 0.105291
v 0.378952 0.070756 0.253199
v 0.476222 0.468001 0.253199
v 0.479666 0.470822 0.225731
v 0.476814 0.458669 0.253199
v 0.477843 0.442311 0.253199
v 0.489644 0.420416 0.174039
v 0.490437 0.416878 0.169681
v 0.490768 0.406315 0.172201
v 0.491088 0.394316 0.175285
v 0.491774 0.380522 0.174155
v 0.493289 0.380522 0.161254
v 0.483465 0.449388 0.105291
v 0.489739 0.406315 0.132353
v 0.488448 0.406315 0.12255
v 0.4931 0.380522 0.148353
v 0.490259 0.38847 0.128342
v 0.48936 0.393034 0.123448
v 0.490011 0.397085 0.13021
v 0.478104 0.0707047 0.105291
v 0.379379 0.0707047 0.251534
v 0.385084 0.0707047 0.253199
v 0.480104 0.406315 0.253199
v 0.488815 0.406315 0.187042
v 0.490141 0.399238 0.180324
v 0.481098 0.393393 0.251534
v 0.490378 0.390624 0.182177
v 0.490555 0.380522 0.183451
v 0.492283 0.35473 0.174155
v 0.49336 0.3676 0.148353
v 0.494047 0.341808 0.161254
v 0.485939 0.419185 0.109649
v 0.485087 0.423595 0.105291
v 0.486685 0.397751 0.105291
v 0.486744 0.406315 0.109649
v 0.491407 0.380522 0.135452
v 0.486945 0.393393 0.105291
v 0.487442 0.380522 0.105291
v 0.4795 0.0836778 0.105291
v 0.480412 0.0707047 0.122797
v 0.472032 0.0707047 0.253199
v 0.480873 0.393393 0.253199
v 0.480944 0.391752 0.253199
v 0.48137 0.380522 0.253199
v 0.481406 0.37883 0.253199
v 0.482128 0.341808 0.253199
v 0.482661 0.314426 0.253199
v 0.491336 0.316067 0.187042
v 0.493029 0.316067 0.174155
v 0.494544 0.316067 0.161254
v 0.493609 0.35473 0.148353
v 0.492165 0.341808 0.135452
v 0.488519 0.35473 0.109649
v 0.486164 0.406315 0.105291
v 0.488946 0.303145 0.105291
v 0.479903 0.0882415 0.105291
v 0.481797 0.083883 0.12255
v 0.482104 0.0709611 0.135452
v 0.483773 0.0707047 0.148353
v 0.485194 0.083883 0.148353
v 0.472257 0.0707047 0.251534
v 0.473275 0.0821908 0.253199
v 0.482874 0.303145 0.253199
v 0.489608 0.303145 0.202057
v 0.491585 0.303145 0.187042
v 0.493278 0.303145 0.174155
v 0.494355 0.316067 0.148353
v 0.494793 0.303145 0.161254
v 0.492662 0.316067 0.135452
v 0.491218 0.303145 0.12255
v 0.490117 0.319348 0.11657
v 0.4902 0.310734 0.115933
v 0.493065 0.290274 0.135452
v 0.489052 0.29371 0.105291
v 0.480637 0.0967536 0.105291
v 0.482909 0.0967536 0.12255
v 0.486306 0.0967536 0.148353
v 0.483986 0.0709611 0.161254
v 0.483951 0.0707047 0.161254
v 0.485371 0.083883 0.161254
v 0.477263 0.0775246 0.219201
v 0.473677 0.083883 0.251534
v 0.482448 0.0707047 0.174155
v 0.473452 0.083883 0.253199
v 0.482897 0.301504 0.253199
v 0.493431 0.290274 0.174155
v 0.494603 0.303145 0.148353
v 0.494935 0.290274 0.161254
v 0.494757 0.290274 0.148353
v 0.494627 0.277352 0.148353
v 0.489431 0.277352 0.108867
v 0.489088 0.290274 0.105291
v 0.483252 0.135468 0.105291
v 0.482956 0.122546 0.109649
v 0.486484 0.0967536 0.161254
v 0.490188 0.141775 0.154738
v 0.483927 0.0707047 0.161486
v 0.483868 0.083883 0.174155
v 0.477713 0.0861392 0.222633
v 0.477145 0.0921899 0.231233
v 0.474565 0.0967536 0.253199
v 0.483016 0.290274 0.253199
v 0.483241 0.290274 0.251534
v 0.490532 0.290274 0.196179
v 0.493301 0.277352 0.174155
v 0.494804 0.277352 0.161254
v 0.493573 0.225767 0.161254
v 0.494319 0.264482 0.148353
v 0.490827 0.265353 0.121653
v 0.487987 0.212845 0.109649
v 0.488661 0.264994 0.105291
v 0.488957 0.277352 0.105291
v 0.485288 0.165619 0.105291
v 0.489194 0.162337 0.136639
v 0.48498 0.0967536 0.174155
v 0.490188 0.141775 0.154883
v 0.488235 0.122546 0.161254
v 0.490034 0.156953 0.166307
v 0.4902 0.167362 0.141721
v 0.491526 0.174182 0.148353
v 0.492283 0.187053 0.148353
v 0.492473 0.187053 0.161254
v 0.47479 0.0967536 0.251534
v 0.475441 0.109675 0.253199
v 0.483004 0.288582 0.253199
v 0.48311 0.277352 0.251534
v 0.482803 0.264482 0.251534
v 0.482234 0.249919 0.253199
v 0.481654 0.225767 0.253199
v 0.491443 0.199975 0.174155
v 0.492946 0.199975 0.161254
v 0.492769 0.199975 0.148353
v 0.491384 0.212845 0.135452
v 0.490141 0.195052 0.129283
v 0.487206 0.204333 0.105291
v 0.485856 0.174182 0.105291
v 0.486436 0.174182 0.109649
v 0.490319 0.165568 0.168812
v 0.490614 0.174182 0.171028
v 0.48672 0.122546 0.174155
v 0.479145 0.16126 0.251534
v 0.491715 0.174182 0.161254
v 0.487194 0.187053 0.109649
v 0.490875 0.187309 0.17485
v 0.477973 0.147159 0.253199
v 0.482885 0.277352 0.253199
v 0.48285 0.275711 0.253199
v 0.482542 0.262789 0.253199
v 0.481027 0.199975 0.253199
v 0.481252 0.199975 0.251534
v 0.490259 0.19177 0.18125
v 0.48678 0.191411 0.105291
v 0.487099 0.199975 0.105291
v 0.486614 0.187053 0.105291
v 0.486117 0.178541 0.105291
v 0.490046 0.183207 0.1796
v 0.481714 0.174182 0.238632
v 0.479654 0.17208 0.253199
v 0.489395 0.187309 0.186144
v 0.480968 0.198283 0.253199
v 0.480554 0.187053 0.253199
v 0.479784 0.17408 0.253199
f 1 2 3
f 1 3 7
f 1 7 17
f 1 17 21
f 1 21 10
f 1 10 4
f 1 4 11
f 1 11 23
f 1 23 37
f 1 37 52
f 1 52 63
f 1 63 78
f 1 78 89
f 1 89 102
f 1 102 114
f 1 114 135
f 1 135 155
f 1 155 174
f 1 174 195
f 1 195 217
f 1 217 234
f 1 234 257
f 1 257 278
f 1 278 291
f 1 291 295
f 1 295 294
f 1 294 293
f 1 293 282
f 1 282 262
f 1 262 261
f 1 261 281
f 1 281 280
f 1 280 279
f 1 279 258
f 1 258 235
f 1 235 218
f 1 218 196
f 1 196 180
f 1 180 179
f 1 179 178
f 1 178 177
f 1 177 176
f 1 176 175
f 1 175 156
f 1 156 139
f 1 139 138
f 1 138 136
f 1 136 116
f 1 116 103
f 1 103 90
f 1 90 79
f 1 79 66
f 1 66 65
f 1 65 53
f 1 53 38
f 1 38 24
f 1 24 12
f 1 12 5
f 1 5 2
f 2 5 6
f 2 6 3
f 3 6 8
f 3 8 9
f 3 9 7
f 4 10 11
f 5 12 13
f 5 13 14
f 5 14 6
f 6 14 15
f 6 15 8
f 7 16 17
f 7 9 18
f 7 18 19
f 7 19 20
f 7 20 16
f 8 15 9
f 9 15 18
f 10 21 22
f 10 22 11
f 11 22 23
f 12 24 13
f 13 24 25
f 13 25 26
f 13 26 27
f 13 27 28
f 13 28 29
f 13 29 30
f 13 30 15
f 13 15 14
f 15 31 18
f 15 30 32
f 15 32 31
f 16 33 34
f 16 34 17
f 16 20 35
f 16 35 33
f 17 34 33
f 17 33 47
f 17 47 46
f 17 46 57
f 17 57 72
f 17 72 73
f 17 73 76
f 17 76 87
f 17 87 100
f 17 100 113
f 17 113 133
f 17 133 132
f 17 132 129
f 17 129 110
f 17 110 131
f 17 131 146
f 17 146 166
f 17 166 187
f 17 187 167
f 17 167 170
f 17 170 171
f 17 171 188
f 17 188 207
f 17 207 225
f 17 225 245
f 17 245 244
f 17 244 268
f 17 268 286
f 17 286 285
f 17 285 287
f 17 287 288
f 17 288 269
f 17 269 246
f 17 246 226
f 17 226 208
f 17 208 189
f 17 189 172
f 17 172 153
f 17 153 134
f 17 134 115
f 17 115 101
f 17 101 88
f 17 88 77
f 17 77 62
f 17 62 51
f 17 51 36
f 17 36 22
f 17 22 21
f 18 31 19
f 19 31 20
f 20 31 35
f 22 36 23
f 23 36 37
f 24 38 39
f 24 39 40
f 24 40 41
f 24 41 42
f 24 42 43
f 24 43 26
f 24 26 25
f 26 43 44
f 26 44 27
f 27 44 45
f 27 45 28
f 28 45 30
f 28 30 29
f 30 45 32
f 31 46 47
f 31 47 35
f 31 32 48
f 31 48 49
f 31 49 46
f 32 45 50
f 32 50 48
f 33 35 47
f 36 51 37
f 37 51 52
f 38 53 54
f 38 54 55
f 38 55 39
f 39 55 50
f 39 50 40
f 40 50 41
f 41 50 42
f 42 50 43
f 43 50 44
f 44 50 45
f 46 49 56
f 46 56 57
f 48 58 59
f 48 59 56
f 48 56 49
f 48 50 60
f 48 60 58
f 50 55 54
f 50 54 61
f 50 61 74
f 50 74 60
f 51 62 52
f 52 62 63
f 53 64 54
f 53 65 64
f 54 64 65
f 54 65 66
f 54 66 67
f 54 67 68
f 54 68 69
f 54 69 70
f 54 70 61
f 56 59 58
f 56 58 57
f 57 58 71
f 57 71 72
f 58 60 71
f 60 73 72
f 60 72 71
f 60 74 75
f 60 75 76
f 60 76 73
f 61 70 74
f 62 77 63
f 63 77 78
f 66 79 67
f 67 79 69
f 67 69 68
f 69 79 80
f 69 80 81
f 69 81 82
f 69 82 83
f 69 83 70
f 70 83 84
f 70 84 85
f 70 85 74
f 74 86 76
f 74 76 75
f 74 85 86
f 76 86 87
f 77 88 78
f 78 88 89
f 79 90 80
f 80 90 91
f 80 91 81
f 81 91 82
f 82 91 92
f 82 92 93
f 82 93 94
f 82 94 83
f 83 94 95
f 83 95 96
f 83 96 84
f 84 96 97
f 84 97 98
f 84 98 85
f 85 98 99
f 85 99 86
f 86 99 100
f 86 100 87
f 88 101 89
f 89 101 102
f 90 103 92
f 90 92 91
f 92 103 104
f 92 104 93
f 93 104 118
f 93 118 105
f 93 105 106
f 93 106 94
f 94 106 107
f 94 107 108
f 94 108 95
f 95 108 109
f 95 109 110
f 95 110 111
f 95 111 112
f 95 112 97
f 95 97 96
f 97 99 98
f 97 112 99
f 99 112 113
f 99 113 100
f 101 114 102
f 101 115 114
f 103 116 117
f 103 117 104
f 104 117 118
f 105 118 119
f 105 119 120
f 105 120 106
f 106 120 121
f 106 121 107
f 107 121 122
f 107 122 123
f 107 123 124
f 107 124 108
f 108 125 109
f 108 124 126
f 108 126 127
f 108 127 125
f 109 128 110
f 109 125 128
f 110 129 130
f 110 130 111
f 110 128 131
f 111 130 112
f 112 130 132
f 112 132 133
f 112 133 113
f 114 115 134
f 114 134 135
f 116 136 117
f 117 137 118
f 117 136 138
f 117 138 137
f 118 137 119
f 119 139 140
f 119 140 141
f 119 141 120
f 119 137 139
f 120 141 124
f 120 124 123
f 120 123 121
f 121 123 122
f 124 141 142
f 124 142 143
f 124 143 144
f 124 144 145
f 124 145 126
f 125 146 131
f 125 131 128
f 125 127 147
f 125 147 148
f 125 148 146
f 126 145 149
f 126 149 150
f 126 150 151
f 126 151 152
f 126 152 147
f 126 147 127
f 129 132 130
f 134 153 173
f 134 173 192
f 134 192 212
f 134 212 230
f 134 230 216
f 134 216 194
f 134 194 174
f 134 174 155
f 134 155 154
f 134 154 135
f 135 154 155
f 137 138 139
f 139 156 140
f 140 156 157
f 140 157 142
f 140 142 141
f 142 157 158
f 142 158 143
f 143 159 160
f 143 160 144
f 143 158 159
f 144 160 161
f 144 161 162
f 144 162 145
f 145 163 149
f 145 162 164
f 145 164 163
f 146 148 165
f 146 165 166
f 147 152 148
f 148 152 167
f 148 167 168
f 148 168 165
f 149 169 150
f 149 163 169
f 150 170 151
f 150 169 171
f 150 171 170
f 151 170 152
f 152 170 167
f 153 172 173
f 156 175 159
f 156 159 158
f 156 158 157
f 159 175 176
f 159 176 160
f 160 176 177
f 160 177 161
f 161 177 178
f 161 178 162
f 162 178 179
f 162 179 180
f 162 180 181
f 162 181 182
f 162 182 183
f 162 183 164
f 163 171 169
f 163 164 183
f 163 183 184
f 163 184 202
f 163 202 203
f 163 203 185
f 163 185 186
f 163 186 171
f 165 168 166
f 166 168 187
f 167 187 168
f 171 186 188
f 172 189 190
f 172 190 173
f 173 191 192
f 173 190 193
f 173 193 191
f 174 194 195
f 180 196 197
f 180 197 198
f 180 198 181
f 181 198 199
f 181 199 182
f 182 199 201
f 182 201 183
f 183 200 184
f 183 201 220
f 183 220 200
f 184 200 202
f 185 203 204
f 185 204 186
f 186 204 188
f 188 204 205
f 188 205 203
f 188 203 206
f 188 206 207
f 189 208 209
f 189 209 210
f 189 210 193
f 189 193 190
f 191 193 192
f 192 211 212
f 192 193 211
f 193 210 228
f 193 228 213
f 193 213 211
f 194 214 215
f 194 215 195
f 194 216 214
f 195 215 217
f 196 218 197
f 197 218 198
f 198 218 219
f 198 219 199
f 199 219 201
f 200 220 203
f 200 203 202
f 201 219 221
f 201 221 222
f 201 222 220
f 203 205 204
f 203 220 222
f 203 222 206
f 206 222 223
f 206 223 224
f 206 224 225
f 206 225 207
f 208 226 227
f 208 227 209
f 209 227 210
f 210 227 229
f 210 229 228
f 211 216 230
f 211 230 212
f 211 213 231
f 211 231 216
f 213 228 248
f 213 248 231
f 214 216 231
f 214 231 215
f 215 231 232
f 215 232 233
f 215 233 217
f 217 233 234
f 218 235 236
f 218 236 237
f 218 237 219
f 219 237 238
f 219 238 239
f 219 239 221
f 221 239 223
f 221 223 222
f 223 239 240
f 223 240 241
f 223 241 242
f 223 242 224
f 224 242 243
f 224 243 244
f 224 244 245
f 224 245 225
f 226 246 227
f 227 246 247
f 227 247 229
f 228 229 249
f 228 249 250
f 228 250 251
f 228 251 248
f 229 247 252
f 229 252 253
f 229 253 254
f 229 254 255
f 229 255 249
f 231 248 233
f 231 233 232
f 233 248 256
f 233 256 234
f 234 256 257
f 235 258 236
f 236 258 259
f 236 259 237
f 237 259 238
f 238 259 260
f 238 260 261
f 238 261 262
f 238 262 263
f 238 263 240
f 238 240 239
f 240 263 264
f 240 264 265
f 240 265 241
f 241 265 266
f 241 266 242
f 242 266 243
f 243 266 267
f 243 267 268
f 243 268 244
f 246 269 270
f 246 270 252
f 246 252 247
f 248 251 271
f 248 271 272
f 248 272 273
f 248 273 274
f 248 274 256
f 249 255 275
f 249 275 251
f 249 251 250
f 251 275 271
f 252 270 253
f 253 270 276
f 253 276 254
f 254 276 267
f 254 267 265
f 254 265 255
f 255 272 275
f 255 265 264
f 255 264 263
f 255 263 277
f 255 277 272
f 256 274 278
f 256 278 257
f 258 279 259
f 259 279 280
f 259 280 281
f 259 281 261
f 259 261 260
f 262 282 283
f 262 283 263
f 263 283 284
f 263 284 277
f 265 267 266
f 267 285 286
f 267 286 268
f 267 276 287
f 267 287 285
f 269 288 270
f 270 288 276
f 271 275 272
f 272 277 289
f 272 289 290
f 272 290 274
f 272 274 273
f 274 290 291
f 274 291 278
f 276 288 287
f 277 284 292
f 277 292 289
f 282 293 283
f 283 293 294
f 283 294 284
f 284 294 292
f 289 295 290
f 289 292 294
f 289 294 295
f 290 295 291
