v 0.193327 -0.432545 -0.0511658
v 0.0470774 -0.432584 -0.122317
v 0.193127 -0.432584 -0.0513435
v 0.193327 -0.432584 -0.0516228
v 0.193327 -0.0293335 -0.169836
v 0.0470774 -0.0293335 -0.217659
v 0.0470774 -0.432584 -0.21573
v 0.193327 -0.432584 -0.167373
v 0.193327 -0.0293335 -0.271168
v 0.0470774 -0.0293335 -0.310488
v 0.0470774 -0.354697 -0.261751
v 0.0554672 -0.432584 -0.214638
v 0.187858 -0.432584 -0.170953
v 0.193327 -0.428992 -0.169252
v 0.193327 -0.0299651 -0.271067
v 0.191466 -0.0293335 -0.271955
v 0.0580586 -0.0293335 -0.309041
v 0.0470774 -0.341828 -0.264289
v 0.193327 -0.279416 -0.217837
v 0.193327 -0.290588 -0.214867
v 0.193327 -0.296667 -0.213242
v 0.193327 -0.303023 -0.211516
v 0.193327 -0.309971 -0.209485
v 0.193327 -0.314274 -0.208191
v 0.193327 -0.361408 -0.193417
v 0.193327 -0.399977 -0.181208
v 0.193327 -0.400845 -0.180903
v 0.186426 -0.405424 -0.182223
v 0.177951 -0.422676 -0.179507
v 0.173856 -0.432584 -0.177603
v 0.109801 -0.432466 -0.204155
v 0.109801 -0.432584 -0.204104
v 0.109586 -0.432584 -0.20418
v 0.0968582 -0.432584 -0.208445
v 0.0843307 -0.432584 -0.210805
v 0.0838582 -0.432584 -0.210881
v 0.117303 -0.131103 -0.28419
v 0.116816 -0.194897 -0.271168
v 0.12167 -0.199476 -0.268173
v 0.122543 -0.212859 -0.26467
v 0.142143 -0.206858 -0.258095
v 0.193327 -0.212859 -0.235351
v 0.193327 -0.22557 -0.232052
v 0.193327 -0.228965 -0.231163
v 0.187615 -0.432584 -0.171105
v 0.193327 -0.0354918 -0.270153
v 0.130432 -0.0293335 -0.297237
v 0.193327 -0.0714152 -0.264162
v 0.0678802 -0.0293335 -0.307746
v 0.109658 -0.0293335 -0.302238
v 0.114168 -0.0628884 -0.296425
v 0.109658 -0.109668 -0.289622
v 0.190335 -0.409096 -0.179126
v 0.187472 -0.432584 -0.171181
v 0.119751 -0.122577 -0.285053
v 0.128356 -0.114839 -0.28353
v 0.126194 -0.122577 -0.282718
v 0.135443 -0.122577 -0.278986
v 0.153755 -0.127037 -0.270457
v 0.181344 -0.130472 -0.258299
v 0.193327 -0.178949 -0.242916
v 0.193327 -0.200305 -0.238321
v 0.193327 -0.207924 -0.236519
v 0.128528 -0.0378604 -0.296527
v 0.123273 -0.0293335 -0.299395
v 0.193327 -0.0931667 -0.260532
v 0.132365 -0.096759 -0.28518
v 0.117575 -0.0542825 -0.297085
v 0.122543 -0.096759 -0.288734
v 0.123445 -0.110181 -0.286119
v 0.130375 -0.106233 -0.284342
v 0.13497 -0.110181 -0.281702
v 0.148343 -0.109668 -0.27627
v 0.192168 -0.113221 -0.257435
v 0.155988 -0.118432 -0.271371
v 0.174142 -0.122577 -0.262969
v 0.186197 -0.135051 -0.255303
v 0.189834 -0.122577 -0.256471
v 0.193327 -0.122577 -0.255024
v 0.193327 -0.096759 -0.259923
v 0.166554 -0.100391 -0.270407
v 0.193327 -0.105207 -0.258476
v 0.174142 -0.109668 -0.265584
v 0.193327 -0.11255 -0.25708
v 0.193327 -0.114602 -0.256674
v 0.193327 -0.109234 -0.257715
v 0.193327 -0.103746 -0.25873
f 1 2 3
f 1 3 4
f 1 4 8
f 1 8 14
f 1 14 27
f 1 27 26
f 1 26 25
f 1 25 24
f 1 24 23
f 1 23 22
f 1 22 21
f 1 21 20
f 1 20 19
f 1 19 44
f 1 44 43
f 1 43 42
f 1 42 63
f 1 63 62
f 1 62 61
f 1 61 79
f 1 79 85
f 1 85 84
f 1 84 86
f 1 86 82
f 1 82 87
f 1 87 80
f 1 80 66
f 1 66 48
f 1 48 46
f 1 46 15
f 1 15 9
f 1 9 5
f 1 5 6
f 1 6 2
f 2 7 12
f 2 12 36
f 2 36 35
f 2 35 34
f 2 34 33
f 2 33 32
f 2 32 30
f 2 30 54
f 2 54 45
f 2 45 13
f 2 13 8
f 2 8 4
f 2 4 3
f 2 6 10
f 2 10 18
f 2 18 11
f 2 11 7
f 5 9 16
f 5 16 47
f 5 47 65
f 5 65 50
f 5 50 49
f 5 49 17
f 5 17 10
f 5 10 6
f 7 11 12
f 8 13 14
f 9 15 16
f 10 17 18
f 11 19 20
f 11 20 21
f 11 21 22
f 11 22 23
f 11 23 24
f 11 24 25
f 11 25 26
f 11 26 27
f 11 27 28
f 11 28 29
f 11 29 30
f 11 30 31
f 11 31 32
f 11 32 33
f 11 33 34
f 11 34 35
f 11 35 36
f 11 36 12
f 11 18 37
f 11 37 38
f 11 38 39
f 11 39 40
f 11 40 41
f 11 41 42
f 11 42 43
f 11 43 44
f 11 44 19
f 13 45 14
f 14 45 27
f 15 46 16
f 16 46 48
f 16 48 47
f 17 49 18
f 18 49 50
f 18 50 51
f 18 51 52
f 18 52 37
f 27 53 30
f 27 30 29
f 27 29 28
f 27 45 54
f 27 54 53
f 30 53 54
f 30 32 31
f 37 52 55
f 37 55 56
f 37 56 57
f 37 57 38
f 38 57 56
f 38 56 58
f 38 58 59
f 38 59 60
f 38 60 61
f 38 61 62
f 38 62 39
f 39 62 41
f 39 41 40
f 41 62 63
f 41 63 42
f 47 64 65
f 47 48 66
f 47 66 67
f 47 67 64
f 50 65 68
f 50 68 51
f 51 68 52
f 52 68 55
f 55 68 69
f 55 69 70
f 55 70 56
f 56 70 71
f 56 71 72
f 56 72 73
f 56 73 74
f 56 74 75
f 56 75 58
f 58 75 59
f 59 75 76
f 59 76 60
f 60 77 61
f 60 76 78
f 60 78 79
f 60 79 77
f 61 77 79
f 64 68 65
f 64 67 71
f 64 71 69
f 64 69 68
f 66 80 81
f 66 81 67
f 67 81 71
f 69 71 70
f 71 81 82
f 71 82 73
f 71 73 72
f 73 82 83
f 73 83 74
f 74 84 85
f 74 85 75
f 74 83 86
f 74 86 84
f 75 85 79
f 75 79 78
f 75 78 76
f 80 87 81
f 81 87 82
f 82 86 83
