v -0.471197 0.0707047 0.259397
v -0.470665 0.0657338 0.259397
v -0.470558 0.0707047 0.264449
v -0.377296 0.0707047 0.259397
v -0.469814 0.0580204 0.259397
v -0.468537 0.0707047 0.277341
v -0.469149 0.0580204 0.264449
v -0.463988 0.0161965 0.268099
v -0.464467 0.0247669 0.271466
v -0.314465 0.0707047 0.38495
v -0.19947 -0.367075 0.38495
v -0.285125 -0.367075 0.259397
v -0.464094 0.0066404 0.259397
v -0.463483 0.0066404 0.264055
v -0.465903 0.0707047 0.287308
v -0.464892 0.0322233 0.273604
v -0.464094 0.0408794 0.282527
v -0.464626 0.0494928 0.284395
v -0.461913 -0.00647242 0.264449
v -0.459599 -0.00647242 0.277341
v -0.461142 0.00642614 0.277341
v -0.425497 0.0707047 0.38495
v -0.322818 -0.367075 0.38495
v -0.384239 -0.367075 0.259397
v -0.463828 0.00428352 0.259397
v -0.462578 -0.00655813 0.259397
v -0.46585 0.0707047 0.287455
v -0.462073 0.0451647 0.289323
v -0.46327 0.0707047 0.293784
v -0.455476 -0.00647242 0.290245
v -0.457045 0.00642614 0.290245
v -0.460158 -0.019371 0.264449
v -0.45779 -0.019371 0.277341
v -0.427917 0.0707047 0.379125
v -0.424832 0.0650482 0.38495
v -0.333086 -0.367075 0.371554
v -0.33266 -0.340121 0.38495
v -0.383973 -0.367075 0.260491
v -0.386101 -0.362576 0.259397
v -0.460823 -0.019371 0.259397
v -0.452576 0.0451218 0.312244
v -0.453348 0.0580204 0.314099
v -0.45372 0.0707047 0.316852
v -0.450262 0.00642614 0.306664
v -0.447921 0.0193247 0.316041
v -0.43768 -0.00647242 0.33321
v -0.426082 -0.00330135 0.362165
v -0.452789 -0.0322695 0.286976
v -0.453481 -0.0187282 0.290749
v -0.451645 -0.0139716 0.297115
v -0.42555 -0.0118718 0.360862
v -0.460051 -0.0244276 0.259397
v -0.458163 -0.0322695 0.264449
v -0.451087 -0.0749076 0.267902
v -0.451752 -0.0662943 0.271945
v -0.451991 -0.0418256 0.285046
v -0.451273 -0.0504389 0.283092
v -0.432679 0.0707047 0.367634
v -0.425337 0.0286665 0.37325
v -0.424007 0.00642614 0.370043
v -0.419645 0.00642614 0.380526
v -0.418075 -0.00647242 0.380526
v -0.416107 -0.00647242 0.38495
v -0.337874 -0.367075 0.365287
v -0.346679 -0.328894 0.371984
v -0.34503 -0.342906 0.367462
v -0.341279 -0.316424 0.38495
v -0.344737 -0.316852 0.380243
v -0.349552 -0.313081 0.375757
v -0.383441 -0.367075 0.262667
v -0.383521 -0.366389 0.263207
v -0.386793 -0.360347 0.259397
v -0.383281 -0.367075 0.263269
v -0.446378 0.00642614 0.316041
v -0.449411 -0.045768 0.289704
v -0.450927 -0.0225849 0.295382
v -0.432227 -0.019371 0.341825
v -0.413686 -0.023442 0.38495
v -0.415575 -0.0202709 0.381657
v -0.451645 -0.0785072 0.259397
v -0.448134 -0.0967624 0.264449
v -0.445979 -0.109661 0.264449
v -0.443106 -0.109661 0.277341
v -0.445314 -0.0967624 0.277341
v -0.439808 -0.109661 0.286791
v -0.440579 -0.0960767 0.290736
v -0.438026 -0.0999334 0.29537
v -0.414457 -0.0183854 0.38495
v -0.348142 -0.34792 0.360948
v -0.338167 -0.367075 0.364881
v -0.345907 -0.303096 0.38495
v -0.351254 -0.303096 0.377957
v -0.358357 -0.304296 0.367511
v -0.353276 -0.316852 0.368691
v -0.349605 -0.339307 0.363062
v -0.38674 -0.347534 0.270298
v -0.399401 -0.307853 0.269315
v -0.387458 -0.358162 0.259397
v -0.381074 -0.367075 0.268873
v -0.440446 -0.0709652 0.301207
v -0.41193 -0.0339408 0.38495
v -0.41491 -0.0576381 0.368224
v -0.410201 -0.0576381 0.37958
v -0.410999 -0.0451681 0.382677
v -0.448852 -0.0963767 0.259397
v -0.447948 -0.101819 0.259397
v -0.446644 -0.109661 0.259397
v -0.445713 -0.114717 0.259397
v -0.443559 -0.122559 0.264449
v -0.438664 -0.142357 0.271171
v -0.440473 -0.122431 0.277783
v -0.438983 -0.11806 0.284813
v -0.439356 -0.135458 0.27326
v -0.437148 -0.109661 0.293244
v -0.425869 -0.104219 0.322936
v -0.412037 -0.0967624 0.359387
v -0.425523 -0.0764932 0.335004
v -0.348913 -0.363218 0.349592
v -0.34495 -0.367075 0.354398
v -0.361123 -0.309396 0.361071
v -0.348195 -0.29594 0.38495
v -0.352717 -0.290284 0.381337
v -0.360884 -0.282784 0.373644
v -0.35974 -0.290198 0.371997
v -0.377456 -0.367075 0.277992
v -0.388096 -0.338964 0.273617
v -0.393762 -0.315995 0.277341
v -0.401902 -0.303396 0.264793
v -0.400625 -0.312181 0.260712
v -0.397593 -0.303396 0.277107
v -0.400599 -0.299283 0.272646
v -0.412595 -0.25733 0.270139
v -0.400705 -0.312695 0.259397
v -0.434302 -0.0709652 0.316041
v -0.405413 -0.0838638 0.380526
v -0.402647 -0.0975766 0.38162
v -0.400705 -0.100748 0.38495
v -0.414192 -0.0709652 0.364586
v -0.444224 -0.122559 0.259397
v -0.443213 -0.127616 0.259397
v -0.440978 -0.135458 0.264449
v -0.43784 -0.151099 0.264449
v -0.427997 -0.199908 0.264449
v -0.42571 -0.206464 0.270962
v -0.436084 -0.122431 0.289569
v -0.42672 -0.122559 0.312121
v -0.412888 -0.116646 0.34856
v -0.425045 -0.112832 0.320994
v -0.406318 -0.109661 0.367634
v -0.400146 -0.103962 0.38495
v -0.401769 -0.109661 0.378584
v -0.408605 -0.0967624 0.367634
v -0.350908 -0.367075 0.342083
v -0.350536 -0.367075 0.342944
v -0.345322 -0.367075 0.353697
v -0.369023 -0.290198 0.35473
v -0.364661 -0.304296 0.355959
v -0.371258 -0.302711 0.341149
v -0.381552 -0.303096 0.316041
v -0.387245 -0.310381 0.297324
v -0.362772 -0.315995 0.352124
v -0.360219 -0.332322 0.345955
v -0.354898 -0.354734 0.341825
v -0.374689 -0.234404 0.374971
v -0.373439 -0.243017 0.372869
v -0.376791 -0.238689 0.368199
v -0.374344 -0.258959 0.361759
v -0.34894 -0.29354 0.38495
v -0.35168 -0.28467 0.38495
v -0.362187 -0.274214 0.375413
v -0.372162 -0.367075 0.29081
v -0.38525 -0.342692 0.277685
v -0.381606 -0.354734 0.277341
v -0.387671 -0.324694 0.285464
v -0.413526 -0.261015 0.261536
v -0.41217 -0.267829 0.259397
v -0.38666 -0.295469 0.308815
v -0.401476 -0.289084 0.277107
v -0.413713 -0.248717 0.273211
v -0.441643 -0.135458 0.259397
v -0.440553 -0.1409 0.259397
v -0.437707 -0.155084 0.259397
v -0.432865 -0.179167 0.259397
v -0.428689 -0.199908 0.259397
v -0.426188 -0.208521 0.264449
v -0.424592 -0.214949 0.264449
v -0.413659 -0.261873 0.259397
v -0.418075 -0.225705 0.277341
v -0.412436 -0.217992 0.295898
v -0.410707 -0.213321 0.302965
v -0.389293 -0.212635 0.355098
v -0.387431 -0.208178 0.3623
v -0.399588 -0.205093 0.334722
v -0.397805 -0.200465 0.341481
v -0.411957 -0.199908 0.307598
v -0.415867 -0.188081 0.304304
v -0.424991 -0.138715 0.30793
v -0.402993 -0.123674 0.368814
v -0.414564 -0.121617 0.341948
v -0.400732 -0.120074 0.376114
v -0.398976 -0.109661 0.38495
v -0.360112 -0.367075 0.319912
v -0.389905 -0.290798 0.303973
v -0.374477 -0.298168 0.336393
v -0.372216 -0.278071 0.354754
v -0.373732 -0.321352 0.321645
v -0.369768 -0.238689 0.379776
v -0.371152 -0.225705 0.383168
v -0.372508 -0.216706 0.38495
v -0.373333 -0.213921 0.38495
v -0.375009 -0.20805 0.38495
v -0.375886 -0.225705 0.376716
v -0.386553 -0.191637 0.373127
v -0.385649 -0.199908 0.370989
v -0.384266 -0.212635 0.367007
v -0.380515 -0.225705 0.367634
v -0.386341 -0.216792 0.359645
v -0.38517 -0.225705 0.356819
v -0.361043 -0.254202 0.38495
v -0.39996 -0.28407 0.283977
v -0.407887 -0.264401 0.277341
v -0.426454 -0.210278 0.259397
v -0.424965 -0.216449 0.259397
v -0.411425 -0.225705 0.29344
v -0.411957 -0.241946 0.281814
v -0.407408 -0.225705 0.303149
v -0.397114 -0.225362 0.328233
v -0.400279 -0.22082 0.323464
v -0.388362 -0.199908 0.364537
v -0.392432 -0.199908 0.35473
v -0.399082 -0.135458 0.372144
v -0.398949 -0.109789 0.38495
v -0.3865 -0.256173 0.33423
v -0.3998 -0.244774 0.309392
v -0.383494 -0.237361 0.353451
v -0.369795 -0.225705 0.38495
v -0.37594 -0.204322 0.38495
v -0.378813 -0.201194 0.381816
v -0.377616 -0.212807 0.37926
v -0.389506 -0.187224 0.368347
v -0.387511 -0.183024 0.375032
v -0.386367 -0.162326 0.38495
v -0.385649 -0.16524 0.38495
f 1 2 3
f 1 3 6
f 1 6 15
f 1 15 27
f 1 27 29
f 1 29 43
f 1 43 58
f 1 58 34
f 1 34 22
f 1 22 10
f 1 10 4
f 1 4 12
f 1 12 24
f 1 24 39
f 1 39 72
f 1 72 98
f 1 98 133
f 1 133 176
f 1 176 187
f 1 187 223
f 1 223 222
f 1 222 184
f 1 184 183
f 1 183 182
f 1 182 181
f 1 181 180
f 1 180 140
f 1 140 139
f 1 139 108
f 1 108 107
f 1 107 106
f 1 106 105
f 1 105 80
f 1 80 52
f 1 52 40
f 1 40 26
f 1 26 25
f 1 25 13
f 1 13 5
f 1 5 2
f 2 5 3
f 3 5 7
f 3 7 8
f 3 8 9
f 3 9 6
f 4 10 11
f 4 11 12
f 5 13 14
f 5 14 7
f 6 9 16
f 6 16 17
f 6 17 18
f 6 18 15
f 7 14 8
f 8 14 19
f 8 19 9
f 9 17 16
f 9 19 20
f 9 20 21
f 9 21 17
f 10 22 35
f 10 35 63
f 10 63 88
f 10 88 78
f 10 78 101
f 10 101 137
f 10 137 150
f 10 150 201
f 10 201 232
f 10 232 242
f 10 242 243
f 10 243 237
f 10 237 211
f 10 211 210
f 10 210 209
f 10 209 236
f 10 236 219
f 10 219 169
f 10 169 168
f 10 168 121
f 10 121 91
f 10 91 67
f 10 67 37
f 10 37 23
f 10 23 11
f 11 23 36
f 11 36 64
f 11 64 90
f 11 90 119
f 11 119 155
f 11 155 154
f 11 154 153
f 11 153 202
f 11 202 171
f 11 171 125
f 11 125 99
f 11 99 73
f 11 73 70
f 11 70 38
f 11 38 24
f 11 24 12
f 13 25 14
f 14 25 26
f 14 26 19
f 15 18 27
f 17 21 20
f 17 20 18
f 18 28 29
f 18 29 27
f 18 20 30
f 18 30 31
f 18 31 28
f 19 26 32
f 19 32 20
f 20 32 33
f 20 33 30
f 22 34 35
f 23 37 36
f 24 38 39
f 26 40 32
f 28 41 42
f 28 42 43
f 28 43 29
f 28 31 44
f 28 44 45
f 28 45 41
f 30 46 47
f 30 47 44
f 30 44 31
f 30 33 48
f 30 48 49
f 30 49 50
f 30 50 51
f 30 51 46
f 32 40 52
f 32 52 53
f 32 53 54
f 32 54 55
f 32 55 33
f 33 56 48
f 33 55 57
f 33 57 56
f 34 58 35
f 35 58 43
f 35 43 42
f 35 42 59
f 35 59 60
f 35 60 61
f 35 61 62
f 35 62 63
f 36 37 65
f 36 65 66
f 36 66 64
f 37 67 68
f 37 68 69
f 37 69 65
f 38 70 39
f 39 71 72
f 39 70 73
f 39 73 71
f 41 59 42
f 41 45 59
f 44 47 74
f 44 74 45
f 45 74 60
f 45 60 59
f 46 51 47
f 47 51 62
f 47 62 60
f 47 60 74
f 48 56 75
f 48 75 76
f 48 76 50
f 48 50 49
f 50 76 77
f 50 77 78
f 50 78 79
f 50 79 51
f 51 79 62
f 52 80 54
f 52 54 53
f 54 80 81
f 54 81 55
f 55 81 82
f 55 82 83
f 55 83 84
f 55 84 57
f 56 57 85
f 56 85 86
f 56 86 87
f 56 87 75
f 57 84 83
f 57 83 85
f 60 62 61
f 62 79 88
f 62 88 63
f 64 66 89
f 64 89 90
f 65 69 66
f 66 69 89
f 67 91 69
f 67 69 68
f 69 91 92
f 69 92 93
f 69 93 94
f 69 94 95
f 69 95 89
f 71 96 97
f 71 97 72
f 71 73 96
f 72 97 98
f 73 99 96
f 75 87 100
f 75 100 76
f 76 78 77
f 76 100 78
f 78 88 79
f 78 100 102
f 78 102 103
f 78 103 104
f 78 104 101
f 80 105 81
f 81 105 106
f 81 106 107
f 81 107 82
f 82 107 108
f 82 108 109
f 82 109 110
f 82 110 83
f 83 111 112
f 83 112 85
f 83 110 113
f 83 113 111
f 85 114 87
f 85 87 86
f 85 112 114
f 87 115 116
f 87 116 117
f 87 117 100
f 87 114 115
f 89 118 119
f 89 119 90
f 89 95 120
f 89 120 118
f 91 121 92
f 92 121 122
f 92 122 123
f 92 123 124
f 92 124 93
f 93 120 95
f 93 95 94
f 93 124 120
f 96 99 125
f 96 125 126
f 96 126 127
f 96 127 97
f 97 128 129
f 97 129 98
f 97 127 130
f 97 130 131
f 97 131 132
f 97 132 128
f 98 129 133
f 100 117 134
f 100 134 102
f 101 104 135
f 101 135 136
f 101 136 137
f 102 134 117
f 102 117 138
f 102 138 103
f 103 138 116
f 103 116 135
f 103 135 104
f 108 139 109
f 109 139 140
f 109 140 141
f 109 141 110
f 110 112 111
f 110 111 113
f 110 141 142
f 110 142 143
f 110 143 144
f 110 144 112
f 112 145 146
f 112 146 147
f 112 147 148
f 112 148 114
f 112 144 145
f 114 149 115
f 114 148 149
f 115 150 116
f 115 149 151
f 115 151 150
f 116 150 136
f 116 136 152
f 116 152 135
f 116 138 117
f 118 153 154
f 118 154 155
f 118 155 119
f 118 120 153
f 120 156 157
f 120 157 158
f 120 158 159
f 120 159 130
f 120 130 160
f 120 160 161
f 120 161 162
f 120 162 163
f 120 163 153
f 120 124 164
f 120 164 165
f 120 165 166
f 120 166 167
f 120 167 156
f 121 168 122
f 122 168 169
f 122 169 170
f 122 170 123
f 123 170 164
f 123 164 124
f 125 171 172
f 125 172 173
f 125 173 126
f 126 173 172
f 126 172 127
f 127 174 160
f 127 160 130
f 127 172 174
f 128 132 144
f 128 144 129
f 129 144 175
f 129 175 176
f 129 176 133
f 130 159 131
f 131 159 158
f 131 158 177
f 131 177 178
f 131 178 179
f 131 179 144
f 131 144 132
f 135 152 136
f 136 150 137
f 140 180 141
f 141 180 181
f 141 181 182
f 141 182 142
f 142 182 183
f 142 183 184
f 142 184 143
f 143 184 185
f 143 185 144
f 144 185 186
f 144 186 187
f 144 187 176
f 144 176 175
f 144 179 188
f 144 188 189
f 144 189 190
f 144 190 191
f 144 191 192
f 144 192 193
f 144 193 194
f 144 194 195
f 144 195 196
f 144 196 197
f 144 197 145
f 145 197 146
f 146 198 199
f 146 199 147
f 146 197 198
f 147 199 198
f 147 198 200
f 147 200 151
f 147 151 149
f 147 149 148
f 150 151 200
f 150 200 201
f 153 163 202
f 156 203 177
f 156 177 204
f 156 204 158
f 156 158 157
f 156 167 205
f 156 205 203
f 158 204 177
f 160 174 206
f 160 206 161
f 161 206 162
f 162 206 202
f 162 202 163
f 164 170 207
f 164 207 208
f 164 208 209
f 164 209 210
f 164 210 211
f 164 211 212
f 164 212 213
f 164 213 214
f 164 214 215
f 164 215 165
f 165 215 216
f 165 216 166
f 166 216 167
f 167 216 215
f 167 215 217
f 167 217 218
f 167 218 205
f 169 219 207
f 169 207 170
f 171 202 172
f 172 202 206
f 172 206 174
f 177 203 178
f 178 220 221
f 178 221 179
f 178 203 220
f 179 221 188
f 184 222 185
f 185 222 223
f 185 223 186
f 186 223 187
f 188 224 189
f 188 221 225
f 188 225 224
f 189 224 226
f 189 226 227
f 189 227 228
f 189 228 217
f 189 217 191
f 189 191 190
f 191 217 192
f 192 217 215
f 192 215 214
f 192 214 229
f 192 229 193
f 193 229 230
f 193 230 194
f 194 196 195
f 194 230 231
f 194 231 197
f 194 197 196
f 197 231 198
f 198 231 200
f 200 232 201
f 200 231 213
f 200 213 232
f 203 205 233
f 203 233 234
f 203 234 220
f 205 218 235
f 205 235 233
f 207 219 236
f 207 236 208
f 208 236 209
f 211 237 238
f 211 238 239
f 211 239 212
f 212 239 213
f 213 240 229
f 213 229 214
f 213 239 241
f 213 241 232
f 213 231 240
f 217 228 227
f 217 227 218
f 218 227 235
f 220 234 225
f 220 225 221
f 224 225 226
f 225 234 226
f 226 234 227
f 227 234 233
f 227 233 235
f 229 240 231
f 229 231 230
f 232 241 242
f 237 243 238
f 238 243 239
f 239 243 242
f 239 242 241
