v 0.270046 -0.029294 -0.109546
v 0.163141 -0.029294 -0.184112
v 0.270046 -0.029294 -0.227533
v 0.270046 0.56109 -0.120285
v 0.163141 0.56109 -0.191855
v 0.163141 -0.029294 -0.283676
v 0.24985 -0.029294 -0.243037
v 0.268696 -0.0193403 -0.230509
v 0.270046 -0.0219051 -0.228972
v 0.270046 0.568906 -0.120849
v 0.163141 0.571837 -0.192516
v 0.171732 -0.029294 -0.280135
v 0.163141 -0.0248973 -0.284415
v 0.246135 -0.029294 -0.245878
v 0.24739 -0.0193403 -0.24685
v 0.270046 -0.00718822 -0.23154
v 0.270046 -0.0192792 -0.229478
v 0.270046 0.573974 -0.121238
v 0.163141 0.573974 -0.192672
v 0.219628 -0.029294 -0.260293
v 0.163141 -0.0179969 -0.285563
v 0.1683 -0.014394 -0.284026
v 0.187052 -0.0193403 -0.275447
v 0.224243 -0.0193403 -0.26004
v 0.239511 -0.029294 -0.250294
v 0.238632 -0.0193403 -0.252667
v 0.237899 -0.00743249 -0.255079
v 0.248824 -0.00639436 -0.24794
v 0.25527 -0.00639436 -0.242998
v 0.270046 -0.00621116 -0.231696
v 0.270046 0.583134 -0.126024
v 0.268121 0.582524 -0.126919
v 0.163141 0.578127 -0.1938
v 0.22869 -0.029294 -0.256519
v 0.163141 -0.00853166 -0.286944
v 0.163141 -0.00639436 -0.287236
v 0.232049 -0.0124399 -0.257919
v 0.230689 -0.0193403 -0.257355
v 0.237229 -0.029294 -0.251636
v 0.240745 0.00649051 -0.255313
v 0.250017 0.00649051 -0.248873
v 0.270046 0.00129992 -0.232785
v 0.244628 0.0407484 -0.257705
v 0.245496 0.0493587 -0.258289
v 0.163141 0.583989 -0.197885
v 0.166699 0.580997 -0.1931
v 0.270046 0.588936 -0.134992
v 0.163141 0.592355 -0.209558
v 0.163141 0.585455 -0.199656
v 0.163141 0.00649051 -0.288812
v 0.177948 0.00649051 -0.282684
v 0.205794 0.00215485 -0.270623
v 0.187052 -0.00639436 -0.277334
v 0.204507 -0.00639436 -0.270097
v 0.226943 -0.00743249 -0.260662
v 0.225739 0.00649051 -0.26288
v 0.228607 0.0709759 -0.269397
v 0.230406 0.0838608 -0.270136
v 0.233106 -0.0038296 -0.258464
v 0.257363 0.0163221 -0.244613
v 0.250498 0.0450841 -0.253873
v 0.270046 0.0111926 -0.234166
v 0.238632 0.0838608 -0.266304
v 0.247464 0.0709759 -0.259748
v 0.25391 0.0709759 -0.254846
v 0.270046 0.59321 -0.14217
v 0.169901 0.593088 -0.208021
v 0.163141 0.593882 -0.215861
v 0.163141 0.0449009 -0.293403
v 0.165223 0.0709759 -0.295659
v 0.188119 0.0322602 -0.281556
v 0.211937 0.00642944 -0.268599
v 0.199944 0.0193754 -0.275116
v 0.224473 0.0463664 -0.268171
v 0.212847 0.0709759 -0.275933
v 0.212847 0.0838608 -0.277431
v 0.22396 0.0838608 -0.272821
v 0.231589 0.0937535 -0.270623
v 0.258807 0.0322602 -0.245722
v 0.270046 0.0195586 -0.235334
v 0.262313 0.0709759 -0.248407
v 0.261151 0.0580911 -0.247512
v 0.237439 0.0975395 -0.268191
v 0.239427 0.109692 -0.26823
v 0.249504 0.0968067 -0.261265
v 0.248594 0.0838608 -0.260585
v 0.25505 0.0838608 -0.255721
v 0.270046 0.593393 -0.142948
v 0.270046 0.593943 -0.148901
v 0.163141 0.594004 -0.217806
v 0.163141 0.0580911 -0.294979
v 0.163141 0.0709759 -0.296515
v 0.163141 0.0797083 -0.297527
v 0.163141 0.0839219 -0.298013
v 0.172946 0.0848379 -0.294064
v 0.201953 0.0838608 -0.281945
v 0.174149 0.0709759 -0.291963
v 0.210137 0.0322602 -0.272432
v 0.194252 0.0748231 -0.284084
v 0.167839 0.0898452 -0.296729
v 0.196941 0.0968067 -0.285213
v 0.212847 0.0968067 -0.278618
v 0.232981 0.109692 -0.271206
v 0.244701 0.169902 -0.2707
v 0.242817 0.148346 -0.269825
v 0.270046 0.0536943 -0.24008
v 0.270046 0.0687165 -0.242162
v 0.263453 0.0838608 -0.249282
v 0.270046 0.0838608 -0.244224
v 0.241687 0.135461 -0.2693
v 0.25595 0.0968067 -0.256421
v 0.245329 0.178513 -0.271031
v 0.250394 0.174177 -0.266985
v 0.260209 0.174177 -0.25969
v 0.257374 0.122576 -0.257511
v 0.270046 0.0933871 -0.245313
v 0.270046 0.594431 -0.161254
v 0.264437 0.59437 -0.161254
v 0.163141 0.594493 -0.225724
v 0.163141 0.085876 -0.298227
v 0.163141 0.0947916 -0.299044
v 0.163141 0.0968067 -0.2992
v 0.168467 0.0968067 -0.297002
v 0.163141 0.106272 -0.2999
v 0.199201 0.122576 -0.286147
v 0.206275 0.129721 -0.283734
v 0.234111 0.122576 -0.271673
v 0.236361 0.148346 -0.272607
v 0.239688 0.174177 -0.273093
v 0.270046 0.0856928 -0.244438
v 0.270046 0.112379 -0.246928
v 0.225739 0.174177 -0.27889
v 0.238632 0.187062 -0.274358
v 0.245716 0.187062 -0.271284
v 0.252173 0.187062 -0.266615
v 0.260827 0.187062 -0.260157
v 0.270046 0.187062 -0.253095
v 0.270046 0.174177 -0.252142
v 0.270046 0.1354 -0.248873
v 0.270046 0.594554 -0.174152
v 0.264437 0.594554 -0.174152
v 0.251534 0.594493 -0.174152
v 0.174149 0.594554 -0.225724
v 0.163141 0.594554 -0.238621
v 0.163141 0.159216 -0.303733
v 0.179434 0.148346 -0.296204
v 0.181694 0.174177 -0.297138
v 0.182678 0.187062 -0.297546
v 0.211769 0.199947 -0.28601
v 0.238632 0.199947 -0.274863
v 0.246124 0.199947 -0.271537
v 0.252581 0.199947 -0.266907
v 0.261214 0.199947 -0.260468
v 0.270046 0.199947 -0.253678
v 0.270046 0.594554 -0.18705
v 0.199944 0.594554 -0.238621
v 0.163141 0.594493 -0.251539
v 0.163141 0.172406 -0.304686
v 0.163141 0.174177 -0.304803
v 0.163141 0.185169 -0.305503
v 0.163141 0.187062 -0.30562
v 0.163141 0.199825 -0.306145
v 0.174149 0.212893 -0.301923
v 0.163141 0.260219 -0.307701
v 0.199944 0.264493 -0.292566
v 0.238632 0.251547 -0.276206
v 0.238632 0.277378 -0.276867
v 0.246396 0.212893 -0.271712
v 0.254161 0.277378 -0.268074
v 0.253899 0.264493 -0.26788
v 0.262731 0.277378 -0.261616
v 0.270046 0.277378 -0.256013
v 0.270046 0.24941 -0.255176
v 0.270046 0.222785 -0.254379
v 0.270046 0.594309 -0.200006
v 0.264437 0.594493 -0.199948
v 0.225739 0.594554 -0.225724
v 0.212847 0.594431 -0.238621
v 0.174149 0.594493 -0.251539
v 0.163141 0.594004 -0.264748
v 0.163141 0.277378 -0.308129
v 0.163674 0.277378 -0.307915
v 0.192148 0.277378 -0.296126
v 0.199944 0.277378 -0.292897
v 0.227236 0.290202 -0.281731
v 0.238632 0.290202 -0.277003
v 0.247704 0.277378 -0.272529
v 0.247443 0.264493 -0.272373
v 0.246919 0.238662 -0.272043
v 0.254276 0.290202 -0.268152
v 0.262836 0.290202 -0.261693
v 0.270046 0.290202 -0.256169
v 0.263788 0.593943 -0.212417
v 0.238632 0.594248 -0.225724
v 0.270046 0.59376 -0.209363
v 0.225771 0.593943 -0.238972
v 0.212847 0.593821 -0.247006
v 0.174149 0.593943 -0.261479
v 0.187052 0.594248 -0.251539
v 0.163141 0.593393 -0.270623
v 0.163141 0.278477 -0.308149
v 0.163852 0.290202 -0.307993
v 0.185681 0.303087 -0.298791
v 0.238632 0.303087 -0.276848
v 0.247694 0.303087 -0.272529
v 0.247819 0.290202 -0.272607
v 0.25415 0.303087 -0.268055
v 0.262721 0.303087 -0.261616
v 0.270046 0.301743 -0.256013
v 0.259069 0.593577 -0.220024
v 0.25031 0.59376 -0.224887
v 0.270046 0.591989 -0.215472
v 0.267671 0.592477 -0.216464
v 0.238632 0.593638 -0.234283
v 0.221491 0.593577 -0.245741
v 0.187052 0.593699 -0.259125
v 0.194168 0.593454 -0.258192
v 0.1665 0.59321 -0.269922
v 0.163141 0.591073 -0.274669
v 0.163141 0.290202 -0.308265
v 0.163141 0.291545 -0.308265
v 0.163141 0.303087 -0.30811
v 0.163664 0.303087 -0.307896
v 0.163339 0.316033 -0.307779
v 0.212847 0.328918 -0.287003
v 0.246846 0.354687 -0.271984
v 0.247485 0.316033 -0.272393
v 0.238632 0.354687 -0.275778
v 0.246417 0.380518 -0.271712
v 0.253083 0.367633 -0.267277
v 0.261905 0.354687 -0.260993
v 0.262313 0.328918 -0.261304
v 0.270046 0.316033 -0.255682
v 0.270046 0.303087 -0.255993
v 0.270046 0.341802 -0.25506
v 0.245193 0.593393 -0.23226
v 0.270046 0.586127 -0.224654
v 0.253795 0.591867 -0.228622
v 0.230093 0.593088 -0.243504
v 0.212847 0.5915 -0.253445
v 0.187052 0.590584 -0.265584
v 0.163141 0.589668 -0.276712
v 0.163141 0.316033 -0.307857
v 0.163141 0.366412 -0.306806
v 0.225739 0.380518 -0.280583
v 0.238632 0.367633 -0.275505
v 0.238632 0.380518 -0.275233
v 0.245999 0.393403 -0.271459
v 0.252863 0.380518 -0.267121
v 0.261497 0.380518 -0.260662
v 0.270046 0.352184 -0.254807
v 0.267943 0.380518 -0.255721
v 0.238632 0.5915 -0.240722
v 0.250739 0.587226 -0.238018
v 0.270046 0.579715 -0.232065
v 0.261915 0.583256 -0.235159
v 0.2377 0.584356 -0.251422
v 0.225771 0.589729 -0.250644
v 0.212847 0.585027 -0.262394
v 0.187052 0.584111 -0.274183
v 0.163141 0.582646 -0.285621
v 0.163141 0.378992 -0.306534
v 0.190181 0.380518 -0.295309
v 0.199944 0.393403 -0.290738
v 0.238632 0.393403 -0.274708
v 0.245486 0.403601 -0.271128
v 0.252445 0.393403 -0.26681
v 0.261088 0.393403 -0.260371
v 0.270046 0.389739 -0.253678
v 0.270046 0.380518 -0.254106
v 0.247683 0.582524 -0.247064
v 0.270046 0.579043 -0.232377
v 0.232782 0.580875 -0.258289
v 0.225739 0.582585 -0.259748
v 0.169189 0.581302 -0.284396
v 0.163141 0.573974 -0.289006
v 0.163141 0.380518 -0.306495
v 0.174149 0.380518 -0.301943
v 0.163141 0.390228 -0.306106
v 0.174149 0.393403 -0.301418
v 0.163141 0.406288 -0.305153
v 0.225739 0.406288 -0.279221
v 0.244994 0.412211 -0.270837
v 0.250488 0.407265 -0.267218
v 0.260461 0.406288 -0.259884
v 0.270046 0.393403 -0.253503
v 0.250163 0.573974 -0.248971
v 0.270046 0.572081 -0.234303
v 0.240965 0.573974 -0.25541
v 0.234519 0.573974 -0.259203
v 0.225739 0.573974 -0.263075
v 0.205354 0.578738 -0.270428
v 0.171763 0.573974 -0.285466
v 0.180229 0.566219 -0.283637
v 0.163141 0.561151 -0.291282
v 0.163141 0.393037 -0.305989
v 0.163141 0.470773 -0.300795
v 0.170382 0.470773 -0.297799
v 0.173542 0.432119 -0.299103
v 0.201012 0.457827 -0.285991
v 0.209509 0.419173 -0.285077
v 0.235869 0.445004 -0.272412
v 0.233766 0.470773 -0.271537
v 0.232887 0.481277 -0.271167
v 0.241269 0.457889 -0.269105
v 0.250017 0.483719 -0.261635
v 0.250708 0.470773 -0.26216
v 0.270046 0.406288 -0.252531
v 0.259142 0.432119 -0.258873
v 0.257855 0.56683 -0.244983
v 0.2431 0.56109 -0.256772
v 0.270046 0.561395 -0.236365
v 0.236654 0.56109 -0.260332
v 0.225739 0.56109 -0.26537
v 0.207814 0.570127 -0.271459
v 0.163141 0.559197 -0.291516
v 0.18273 0.548205 -0.284668
v 0.163141 0.544785 -0.293169
v 0.163141 0.481032 -0.300075
v 0.204214 0.483719 -0.282878
v 0.187052 0.470773 -0.290893
v 0.187052 0.457889 -0.291769
v 0.225739 0.470773 -0.274863
v 0.225739 0.457889 -0.275739
v 0.212847 0.483719 -0.279299
v 0.232133 0.489826 -0.270856
v 0.240212 0.470773 -0.268599
v 0.256463 0.483719 -0.25681
v 0.249107 0.496604 -0.260954
v 0.257154 0.470773 -0.257336
v 0.257656 0.461125 -0.257725
v 0.270046 0.432119 -0.250508
v 0.270046 0.462041 -0.248154
v 0.252748 0.561945 -0.249554
v 0.245151 0.542098 -0.258036
v 0.270046 0.520237 -0.241851
v 0.252194 0.53532 -0.253542
v 0.238632 0.496604 -0.267004
v 0.231212 0.496604 -0.270486
v 0.225739 0.548205 -0.266849
v 0.184509 0.53532 -0.285407
v 0.163141 0.496177 -0.298733
v 0.163141 0.483719 -0.299881
v 0.17574 0.483719 -0.294667
v 0.168383 0.492635 -0.296963
v 0.237763 0.484818 -0.268638
v 0.255553 0.496604 -0.25611
v 0.270046 0.491291 -0.245702
v 0.264437 0.483719 -0.250702
v 0.247976 0.509489 -0.260137
v 0.270046 0.483719 -0.246403
v 0.270046 0.474132 -0.247181
v 0.270046 0.470773 -0.247453
v 0.270046 0.500818 -0.244438
v 0.16719 0.501245 -0.296476
f 1 2 6
f 1 6 12
f 1 12 20
f 1 20 34
f 1 34 39
f 1 39 25
f 1 25 14
f 1 14 7
f 1 7 3
f 1 3 9
f 1 9 17
f 1 17 16
f 1 16 30
f 1 30 42
f 1 42 62
f 1 62 80
f 1 80 106
f 1 106 107
f 1 107 109
f 1 109 130
f 1 130 116
f 1 116 131
f 1 131 139
f 1 139 138
f 1 138 137
f 1 137 154
f 1 154 174
f 1 174 173
f 1 173 172
f 1 172 192
f 1 192 209
f 1 209 234
f 1 234 233
f 1 233 235
f 1 235 251
f 1 251 270
f 1 270 269
f 1 269 286
f 1 286 308
f 1 308 332
f 1 332 333
f 1 333 353
f 1 353 352
f 1 352 351
f 1 351 348
f 1 348 354
f 1 354 336
f 1 336 312
f 1 312 288
f 1 288 272
f 1 272 255
f 1 255 237
f 1 237 212
f 1 212 195
f 1 195 175
f 1 175 155
f 1 155 140
f 1 140 117
f 1 117 89
f 1 89 88
f 1 88 66
f 1 66 47
f 1 47 31
f 1 31 18
f 1 18 10
f 1 10 4
f 1 4 5
f 1 5 2
f 2 5 11
f 2 11 19
f 2 19 33
f 2 33 45
f 2 45 49
f 2 49 48
f 2 48 68
f 2 68 90
f 2 90 119
f 2 119 144
f 2 144 157
f 2 157 180
f 2 180 200
f 2 200 219
f 2 219 242
f 2 242 261
f 2 261 276
f 2 276 295
f 2 295 316
f 2 316 318
f 2 318 342
f 2 342 343
f 2 343 319
f 2 319 297
f 2 297 281
f 2 281 296
f 2 296 279
f 2 279 277
f 2 277 262
f 2 262 244
f 2 244 243
f 2 243 222
f 2 222 221
f 2 221 220
f 2 220 201
f 2 201 181
f 2 181 164
f 2 164 162
f 2 162 161
f 2 161 160
f 2 160 159
f 2 159 158
f 2 158 145
f 2 145 124
f 2 124 122
f 2 122 121
f 2 121 120
f 2 120 94
f 2 94 93
f 2 93 92
f 2 92 91
f 2 91 69
f 2 69 50
f 2 50 36
f 2 36 35
f 2 35 21
f 2 21 13
f 2 13 6
f 3 7 8
f 3 8 9
f 4 10 11
f 4 11 5
f 6 13 12
f 7 14 15
f 7 15 8
f 8 15 16
f 8 16 17
f 8 17 9
f 10 18 19
f 10 19 11
f 12 13 21
f 12 21 22
f 12 22 23
f 12 23 24
f 12 24 20
f 14 25 15
f 15 25 26
f 15 26 27
f 15 27 28
f 15 28 16
f 16 28 29
f 16 29 30
f 18 31 32
f 18 32 33
f 18 33 19
f 20 24 34
f 21 35 22
f 22 35 36
f 22 36 37
f 22 37 24
f 22 24 23
f 24 37 38
f 24 38 34
f 25 39 37
f 25 37 26
f 26 37 27
f 27 37 40
f 27 40 28
f 28 41 42
f 28 42 29
f 28 40 43
f 28 43 44
f 28 44 41
f 29 42 30
f 31 45 46
f 31 46 32
f 31 47 48
f 31 48 49
f 31 49 45
f 32 46 33
f 33 46 45
f 34 38 39
f 36 50 51
f 36 51 52
f 36 52 53
f 36 53 37
f 37 39 38
f 37 53 54
f 37 54 55
f 37 55 56
f 37 56 57
f 37 57 58
f 37 58 59
f 37 59 43
f 37 43 40
f 41 60 42
f 41 44 61
f 41 61 60
f 42 60 62
f 43 63 44
f 43 59 63
f 44 63 64
f 44 64 65
f 44 65 61
f 47 66 48
f 48 66 67
f 48 67 68
f 50 69 70
f 50 70 71
f 50 71 51
f 51 72 52
f 51 71 73
f 51 73 72
f 52 72 56
f 52 56 55
f 52 55 54
f 52 54 53
f 56 72 74
f 56 74 57
f 57 74 75
f 57 75 76
f 57 76 77
f 57 77 58
f 58 77 78
f 58 78 63
f 58 63 59
f 60 61 79
f 60 79 80
f 60 80 62
f 61 65 81
f 61 81 82
f 61 82 79
f 63 78 83
f 63 83 84
f 63 84 85
f 63 85 86
f 63 86 64
f 64 86 87
f 64 87 65
f 65 87 108
f 65 108 81
f 66 88 68
f 66 68 67
f 68 89 90
f 68 88 89
f 69 91 70
f 70 92 93
f 70 93 94
f 70 94 95
f 70 95 96
f 70 96 97
f 70 97 71
f 70 91 92
f 71 97 75
f 71 75 73
f 72 73 98
f 72 98 75
f 72 75 74
f 73 75 98
f 75 97 99
f 75 99 96
f 75 96 76
f 76 96 100
f 76 100 77
f 77 100 78
f 78 100 101
f 78 101 102
f 78 102 103
f 78 103 104
f 78 104 105
f 78 105 83
f 79 82 106
f 79 106 80
f 81 107 106
f 81 106 82
f 81 108 109
f 81 109 107
f 83 105 110
f 83 110 84
f 84 110 85
f 85 111 86
f 85 110 105
f 85 105 104
f 85 104 112
f 85 112 113
f 85 113 114
f 85 114 115
f 85 115 111
f 86 111 87
f 87 111 116
f 87 116 108
f 89 117 118
f 89 118 119
f 89 119 90
f 94 120 100
f 94 100 95
f 95 100 96
f 96 99 97
f 100 121 122
f 100 122 123
f 100 123 101
f 100 120 121
f 101 123 124
f 101 124 125
f 101 125 126
f 101 126 102
f 102 126 103
f 103 126 127
f 103 127 104
f 104 127 128
f 104 128 129
f 104 129 112
f 108 116 130
f 108 130 109
f 111 115 131
f 111 131 116
f 112 129 132
f 112 132 133
f 112 133 134
f 112 134 135
f 112 135 113
f 113 135 114
f 114 135 136
f 114 136 137
f 114 137 138
f 114 138 139
f 114 139 115
f 115 139 131
f 117 140 141
f 117 141 142
f 117 142 118
f 118 142 119
f 119 142 143
f 119 143 144
f 122 124 123
f 124 145 146
f 124 146 125
f 125 146 126
f 126 146 132
f 126 132 127
f 127 132 128
f 128 132 129
f 132 147 148
f 132 148 133
f 132 146 147
f 133 148 149
f 133 149 150
f 133 150 134
f 134 150 151
f 134 151 152
f 134 152 135
f 135 152 153
f 135 153 136
f 136 153 137
f 137 153 154
f 140 155 177
f 140 177 156
f 140 156 144
f 140 144 143
f 140 143 141
f 141 143 142
f 144 156 179
f 144 179 157
f 145 158 147
f 145 147 146
f 147 158 159
f 147 159 160
f 147 160 148
f 148 160 161
f 148 161 162
f 148 162 149
f 149 162 163
f 149 163 164
f 149 164 165
f 149 165 166
f 149 166 150
f 150 166 151
f 151 166 167
f 151 167 168
f 151 168 169
f 151 169 170
f 151 170 152
f 152 170 153
f 153 170 169
f 153 169 171
f 153 171 172
f 153 172 173
f 153 173 174
f 153 174 154
f 155 175 176
f 155 176 177
f 156 177 178
f 156 178 179
f 157 179 180
f 162 164 163
f 164 181 182
f 164 182 183
f 164 183 165
f 165 183 184
f 165 184 166
f 166 184 167
f 167 184 185
f 167 185 186
f 167 186 187
f 167 187 188
f 167 188 189
f 167 189 168
f 168 189 169
f 169 189 188
f 169 188 187
f 169 187 206
f 169 206 190
f 169 190 171
f 171 190 191
f 171 191 172
f 172 191 192
f 175 193 194
f 175 194 176
f 175 195 193
f 176 194 178
f 176 178 177
f 178 194 196
f 178 196 197
f 178 197 198
f 178 198 180
f 178 180 199
f 178 199 179
f 179 199 180
f 180 198 200
f 181 201 182
f 182 201 202
f 182 202 183
f 183 202 184
f 184 202 185
f 185 202 203
f 185 203 204
f 185 204 186
f 186 204 205
f 186 205 206
f 186 206 187
f 190 206 205
f 190 205 207
f 190 207 208
f 190 208 191
f 191 208 192
f 192 208 209
f 193 195 210
f 193 210 211
f 193 211 194
f 194 211 196
f 195 212 213
f 195 213 210
f 196 211 214
f 196 214 215
f 196 215 197
f 197 215 216
f 197 216 198
f 198 216 200
f 200 216 217
f 200 217 218
f 200 218 219
f 201 220 202
f 202 220 221
f 202 221 222
f 202 222 223
f 202 223 203
f 203 223 224
f 203 224 225
f 203 225 204
f 204 226 227
f 204 227 205
f 204 225 228
f 204 228 229
f 204 229 226
f 205 227 207
f 207 230 231
f 207 231 232
f 207 232 208
f 207 227 226
f 207 226 229
f 207 229 230
f 208 233 234
f 208 234 209
f 208 232 235
f 208 235 233
f 210 213 236
f 210 236 211
f 211 236 214
f 212 237 238
f 212 238 213
f 213 238 236
f 214 236 215
f 215 236 239
f 215 239 217
f 215 217 216
f 217 239 240
f 217 240 241
f 217 241 219
f 217 219 218
f 219 241 242
f 222 243 224
f 222 224 223
f 224 243 244
f 224 244 245
f 224 245 225
f 225 245 228
f 228 245 246
f 228 246 229
f 229 247 248
f 229 248 249
f 229 249 230
f 229 246 247
f 230 249 250
f 230 250 231
f 231 251 235
f 231 235 232
f 231 250 252
f 231 252 251
f 236 238 253
f 236 253 239
f 237 254 238
f 237 255 256
f 237 256 254
f 238 254 253
f 239 253 257
f 239 257 258
f 239 258 240
f 240 258 241
f 241 258 259
f 241 259 242
f 242 259 260
f 242 260 261
f 244 262 263
f 244 263 245
f 245 263 264
f 245 264 265
f 245 265 247
f 245 247 246
f 247 265 248
f 248 265 266
f 248 266 267
f 248 267 249
f 249 267 268
f 249 268 250
f 250 268 269
f 250 269 252
f 251 252 270
f 252 269 270
f 253 254 271
f 253 271 257
f 254 256 271
f 255 272 271
f 255 271 256
f 257 271 273
f 257 273 274
f 257 274 258
f 258 274 259
f 259 274 260
f 260 274 261
f 261 274 275
f 261 275 276
f 262 277 278
f 262 278 263
f 263 278 279
f 263 279 280
f 263 280 264
f 264 280 281
f 264 281 282
f 264 282 265
f 265 282 283
f 265 283 266
f 266 283 284
f 266 284 267
f 267 284 285
f 267 285 268
f 268 286 269
f 268 285 286
f 271 272 287
f 271 287 273
f 272 288 287
f 273 275 274
f 273 287 289
f 273 289 290
f 273 290 291
f 273 291 292
f 273 292 275
f 275 292 276
f 276 292 293
f 276 293 294
f 276 294 295
f 277 279 278
f 279 296 280
f 280 296 281
f 281 297 298
f 281 298 299
f 281 299 300
f 281 300 301
f 281 301 282
f 282 301 300
f 282 300 302
f 282 302 283
f 283 302 303
f 283 303 304
f 283 304 305
f 283 305 306
f 283 306 307
f 283 307 284
f 284 307 285
f 285 308 286
f 285 307 309
f 285 309 308
f 287 288 310
f 287 310 311
f 287 311 289
f 288 312 310
f 289 311 290
f 290 311 313
f 290 313 314
f 290 314 291
f 291 314 315
f 291 315 292
f 292 315 293
f 293 315 294
f 294 316 295
f 294 315 314
f 294 314 317
f 294 317 318
f 294 318 316
f 297 319 298
f 298 319 320
f 298 320 321
f 298 321 300
f 298 300 322
f 298 322 299
f 299 322 300
f 300 321 323
f 300 323 324
f 300 324 302
f 302 324 303
f 303 323 304
f 303 324 323
f 304 323 320
f 304 320 325
f 304 325 326
f 304 326 305
f 305 326 327
f 305 327 306
f 306 328 330
f 306 330 307
f 306 327 329
f 306 329 328
f 307 330 331
f 307 331 309
f 308 309 332
f 309 331 333
f 309 333 332
f 310 312 334
f 310 334 311
f 311 334 335
f 311 335 313
f 312 336 337
f 312 337 335
f 312 335 334
f 313 335 338
f 313 338 326
f 313 326 339
f 313 339 314
f 314 339 340
f 314 340 317
f 317 341 318
f 317 340 341
f 318 341 342
f 319 343 344
f 319 344 320
f 320 323 321
f 320 344 326
f 320 326 325
f 326 345 339
f 326 338 346
f 326 346 327
f 326 344 343
f 326 343 345
f 327 346 338
f 327 338 329
f 328 329 347
f 328 347 348
f 328 348 349
f 328 349 330
f 329 338 350
f 329 350 347
f 330 349 351
f 330 351 352
f 330 352 353
f 330 353 331
f 331 353 333
f 335 337 347
f 335 347 350
f 335 350 338
f 336 354 337
f 337 354 347
f 339 345 342
f 339 342 355
f 339 355 341
f 339 341 340
f 341 355 342
f 342 345 343
f 347 354 348
f 348 351 349
