v 0.285137 -0.367075 0.259397
v 0.29884 -0.367075 0.105291
v 0.384306 -0.367075 0.259397
v 0.377299 0.0707047 0.259397
v 0.385376 0.0707047 0.105291
v 0.392052 -0.367075 0.105291
v 0.385941 -0.367075 0.253318
v 0.387011 -0.36129 0.25807
v 0.386116 -0.362576 0.259397
v 0.471212 0.0707047 0.259397
v 0.478102 0.0707047 0.105291
v 0.392558 -0.367075 0.109093
v 0.400071 -0.33965 0.105291
v 0.386972 -0.367075 0.245639
v 0.387459 -0.358162 0.259397
v 0.389814 -0.354734 0.251537
v 0.39359 -0.341835 0.251537
v 0.399371 -0.320794 0.254223
v 0.400383 -0.313938 0.259397
v 0.472224 0.0707047 0.251779
v 0.470375 0.063077 0.259397
v 0.48038 0.0707047 0.12255
v 0.476097 0.0461931 0.110753
v 0.472964 0.0193247 0.109651
v 0.474307 0.0365942 0.105291
v 0.394329 -0.367075 0.12255
v 0.411769 -0.319038 0.148348
v 0.406981 -0.315995 0.105291
v 0.387906 -0.367075 0.238639
v 0.399001 -0.358162 0.174145
v 0.399955 -0.322723 0.245624
v 0.401181 -0.316295 0.250572
v 0.404684 -0.303096 0.251537
v 0.40122 -0.310896 0.259397
v 0.473956 0.0707047 0.238639
v 0.479601 0.0451218 0.174145
v 0.464594 0.0111827 0.259397
v 0.466541 0.0193247 0.251537
v 0.477051 0.0278095 0.178882
v 0.483766 0.0707047 0.148348
v 0.482365 0.0580204 0.148348
v 0.477012 0.0152109 0.143897
v 0.471523 0.00642614 0.109651
v 0.47382 0.0322233 0.105291
v 0.397016 -0.367075 0.142992
v 0.413657 -0.312567 0.148348
v 0.400013 -0.361633 0.153748
v 0.408188 -0.311667 0.105291
v 0.412509 -0.308539 0.130998
v 0.413073 -0.310596 0.139598
v 0.396393 -0.367075 0.174145
v 0.403769 -0.341835 0.174145
v 0.41319 -0.311024 0.170932
v 0.412626 -0.30901 0.179531
v 0.40809 -0.303096 0.22574
v 0.41319 -0.298254 0.196593
v 0.412626 -0.296026 0.205193
v 0.407954 -0.290198 0.251537
v 0.41247 -0.269629 0.255656
v 0.412139 -0.307125 0.187029
v 0.413132 -0.264144 0.259397
v 0.480749 0.0707047 0.187029
v 0.482443 0.0707047 0.174145
v 0.477616 0.02271 0.170283
v 0.463816 0.00428352 0.259397
v 0.464088 0.00248372 0.255852
v 0.4702 0.00642614 0.212826
v 0.483961 0.0707047 0.161246
v 0.477577 0.0101543 0.152496
v 0.476565 0.00608332 0.148257
v 0.47094 0.00642614 0.105291
v 0.47345 -0.00647242 0.135449
v 0.46948 -0.00647242 0.105291
v 0.397794 -0.367075 0.148996
v 0.416207 -0.303096 0.148348
v 0.416382 -0.303096 0.161246
v 0.413735 -0.312867 0.161246
v 0.400013 -0.361633 0.156147
v 0.39795 -0.367075 0.160779
v 0.397814 -0.367075 0.149404
v 0.41064 -0.302711 0.105291
v 0.411944 -0.306439 0.12255
v 0.413638 -0.299968 0.12255
v 0.399565 -0.360133 0.164746
v 0.411867 -0.319338 0.161246
v 0.414533 -0.304082 0.174794
v 0.411497 -0.302797 0.200516
v 0.413813 -0.300697 0.187029
v 0.418134 -0.290198 0.174145
v 0.424479 -0.264144 0.174749
v 0.411302 -0.276657 0.251432
v 0.420645 -0.238604 0.251537
v 0.425297 -0.217692 0.255128
v 0.425705 -0.213492 0.259397
v 0.47528 0.00642614 0.174145
v 0.47382 -0.00647242 0.174145
v 0.477129 0.0141396 0.166345
v 0.462589 -0.00655813 0.259397
v 0.464653 -0.00248715 0.247253
v 0.479679 0.0322233 0.161246
v 0.477577 0.0101543 0.157746
v 0.47672 0.00608332 0.161729
v 0.475319 -0.00647242 0.161246
v 0.473567 -0.019371 0.161246
v 0.473392 -0.019371 0.148348
v 0.475144 -0.00647242 0.148348
v 0.468292 -0.019371 0.109651
v 0.468312 -0.015 0.105291
v 0.419457 -0.290198 0.148348
v 0.419652 -0.290198 0.161246
v 0.405288 -0.341835 0.161246
v 0.412489 -0.295512 0.105291
v 0.413054 -0.297783 0.113921
v 0.426095 -0.259644 0.170856
v 0.433997 -0.225705 0.174145
v 0.426503 -0.235518 0.212826
v 0.424343 -0.251074 0.200199
v 0.426387 -0.222148 0.238639
v 0.42407 -0.224891 0.2511
v 0.425861 -0.220049 0.246529
v 0.437228 -0.212335 0.174281
v 0.430338 -0.212807 0.22574
v 0.426912 -0.213149 0.2511
v 0.426464 -0.210278 0.259397
v 0.464147 -0.0110576 0.243421
v 0.464711 -0.0151715 0.234822
v 0.472049 -0.019371 0.174145
v 0.461519 -0.0144001 0.259397
v 0.464653 -0.0791929 0.152692
v 0.464205 -0.0763646 0.166104
v 0.463543 -0.0836495 0.161578
v 0.464653 -0.0791929 0.157505
v 0.465762 -0.0319696 0.105291
v 0.457957 -0.0967624 0.12255
v 0.458268 -0.0838638 0.109651
v 0.467708 -0.019371 0.105291
v 0.414222 -0.290841 0.109636
v 0.426542 -0.261487 0.148348
v 0.425044 -0.2683 0.161246
v 0.413988 -0.289469 0.105291
v 0.435515 -0.225705 0.161246
v 0.438882 -0.207707 0.170072
v 0.432304 -0.225705 0.187029
v 0.427087 -0.226262 0.225649
v 0.438318 -0.205093 0.178671
v 0.429754 -0.199908 0.251537
v 0.427574 -0.205136 0.259397
v 0.460838 -0.019371 0.259397
v 0.466969 -0.019371 0.212826
v 0.465743 -0.059138 0.175156
v 0.464867 -0.0677513 0.171535
v 0.459397 -0.109661 0.161246
v 0.459203 -0.109661 0.148348
v 0.461344 -0.0967624 0.148348
v 0.46002 -0.0967624 0.174145
v 0.461538 -0.0967624 0.161246
v 0.456361 -0.0923914 0.105291
v 0.454123 -0.109661 0.109651
v 0.45568 -0.0967624 0.105291
v 0.43024 -0.225705 0.109651
v 0.435321 -0.225705 0.148348
v 0.426756 -0.237532 0.105291
v 0.437734 -0.215806 0.148348
v 0.437831 -0.216192 0.161246
v 0.439836 -0.200465 0.174281
v 0.439369 -0.209721 0.161246
v 0.441471 -0.199908 0.161246
v 0.451787 -0.143514 0.170117
v 0.431467 -0.199908 0.238639
v 0.43388 -0.174111 0.259397
v 0.429695 -0.194894 0.259397
v 0.428683 -0.199908 0.259397
v 0.438376 -0.153756 0.256425
v 0.440517 -0.141115 0.259397
v 0.458833 -0.0322695 0.259397
v 0.463855 -0.0482535 0.202386
v 0.464419 -0.0518959 0.193787
v 0.458327 -0.0967624 0.187029
v 0.457879 -0.109661 0.174145
v 0.456964 -0.122559 0.161246
v 0.456789 -0.122559 0.148348
v 0.451943 -0.118446 0.105291
v 0.451437 -0.103019 0.23194
v 0.453539 -0.109704 0.105291
v 0.429657 -0.225705 0.105291
v 0.43279 -0.212807 0.105291
v 0.438766 -0.20715 0.140457
v 0.439272 -0.209336 0.148348
v 0.43935 -0.186752 0.198841
v 0.452741 -0.136015 0.174311
v 0.446084 -0.135458 0.22574
v 0.442658 -0.130444 0.259397
v 0.441276 -0.199908 0.148348
v 0.446454 -0.174111 0.148348
v 0.452196 -0.145485 0.148348
v 0.455446 -0.122559 0.174145
v 0.452838 -0.0708367 0.259397
v 0.454493 -0.109661 0.199927
v 0.452663 -0.110218 0.213113
v 0.451242 -0.114846 0.217593
v 0.451806 -0.117846 0.208994
v 0.45167 -0.142914 0.140412
v 0.452235 -0.119903 0.109651
v 0.451515 -0.120588 0.105291
v 0.446649 -0.109661 0.259397
v 0.4477 -0.109661 0.251537
v 0.450853 -0.110218 0.226871
v 0.450619 -0.0850637 0.259397
v 0.448848 -0.0963767 0.259397
v 0.435612 -0.199908 0.105291
v 0.438201 -0.204493 0.131858
v 0.452254 -0.122302 0.198856
v 0.444235 -0.122559 0.259397
v 0.451106 -0.140086 0.131813
v 0.440148 -0.188081 0.12163
v 0.436196 -0.199908 0.109651
v 0.439038 -0.182853 0.105291
v 0.448537 -0.135458 0.105291
f 1 2 6
f 1 6 12
f 1 12 26
f 1 26 45
f 1 45 74
f 1 74 80
f 1 80 79
f 1 79 51
f 1 51 29
f 1 29 14
f 1 14 7
f 1 7 3
f 1 3 9
f 1 9 15
f 1 15 19
f 1 19 34
f 1 34 61
f 1 61 94
f 1 94 124
f 1 124 147
f 1 147 172
f 1 172 171
f 1 171 170
f 1 170 174
f 1 174 192
f 1 192 213
f 1 213 205
f 1 205 209
f 1 209 208
f 1 208 197
f 1 197 175
f 1 175 148
f 1 148 128
f 1 128 98
f 1 98 65
f 1 65 37
f 1 37 21
f 1 21 10
f 1 10 4
f 1 4 5
f 1 5 2
f 2 5 11
f 2 11 25
f 2 25 44
f 2 44 71
f 2 71 73
f 2 73 108
f 2 108 136
f 2 136 133
f 2 133 157
f 2 157 159
f 2 159 184
f 2 184 182
f 2 182 204
f 2 204 218
f 2 218 217
f 2 217 210
f 2 210 186
f 2 186 185
f 2 185 162
f 2 162 140
f 2 140 112
f 2 112 81
f 2 81 48
f 2 48 28
f 2 28 13
f 2 13 6
f 3 7 8
f 3 8 9
f 4 10 20
f 4 20 35
f 4 35 62
f 4 62 63
f 4 63 68
f 4 68 40
f 4 40 22
f 4 22 11
f 4 11 5
f 6 13 12
f 7 14 8
f 8 15 9
f 8 14 16
f 8 16 17
f 8 17 18
f 8 18 19
f 8 19 15
f 10 21 20
f 11 22 23
f 11 23 24
f 11 24 25
f 12 13 27
f 12 27 26
f 13 28 27
f 14 29 16
f 16 29 17
f 17 29 30
f 17 30 31
f 17 31 32
f 17 32 18
f 18 32 33
f 18 33 34
f 18 34 19
f 20 21 35
f 21 36 35
f 21 37 38
f 21 38 39
f 21 39 36
f 22 40 41
f 22 41 24
f 22 24 23
f 24 42 43
f 24 43 71
f 24 71 44
f 24 44 25
f 24 41 42
f 26 27 45
f 27 28 46
f 27 46 47
f 27 47 45
f 28 48 49
f 28 49 50
f 28 50 46
f 29 51 30
f 30 52 31
f 30 51 53
f 30 53 52
f 31 53 32
f 31 52 53
f 32 53 54
f 32 54 33
f 33 55 56
f 33 56 57
f 33 57 58
f 33 58 59
f 33 59 34
f 33 54 60
f 33 60 55
f 34 59 61
f 35 36 62
f 36 63 62
f 36 39 64
f 36 64 63
f 37 65 66
f 37 66 67
f 37 67 38
f 38 67 64
f 38 64 39
f 40 68 69
f 40 69 41
f 41 69 42
f 42 69 70
f 42 70 43
f 43 70 72
f 43 72 73
f 43 73 71
f 45 47 74
f 46 50 75
f 46 75 76
f 46 76 77
f 46 77 47
f 47 78 79
f 47 79 80
f 47 80 74
f 47 77 78
f 48 81 49
f 49 81 82
f 49 82 83
f 49 83 75
f 49 75 50
f 51 79 84
f 51 84 53
f 53 85 77
f 53 77 76
f 53 76 86
f 53 86 54
f 53 84 85
f 54 86 60
f 55 87 56
f 55 60 87
f 56 87 88
f 56 88 89
f 56 89 57
f 57 89 90
f 57 90 91
f 57 91 58
f 58 91 59
f 59 91 92
f 59 92 93
f 59 93 94
f 59 94 61
f 60 86 88
f 60 88 87
f 63 64 68
f 64 67 95
f 64 95 96
f 64 96 97
f 64 97 68
f 65 98 66
f 66 99 96
f 66 96 67
f 66 98 99
f 67 96 95
f 68 100 101
f 68 101 69
f 68 97 102
f 68 102 100
f 69 101 103
f 69 103 104
f 69 104 105
f 69 105 106
f 69 106 70
f 70 106 72
f 72 106 105
f 72 105 73
f 73 105 107
f 73 107 108
f 75 83 109
f 75 109 110
f 75 110 76
f 76 110 89
f 76 89 86
f 77 85 78
f 78 85 111
f 78 111 79
f 79 111 84
f 81 112 113
f 81 113 83
f 81 83 82
f 83 113 109
f 84 111 85
f 86 89 88
f 89 110 114
f 89 114 90
f 90 114 115
f 90 115 116
f 90 116 117
f 90 117 91
f 91 117 92
f 92 116 118
f 92 118 119
f 92 119 93
f 92 117 116
f 93 119 120
f 93 120 121
f 93 121 122
f 93 122 123
f 93 123 124
f 93 124 94
f 96 98 125
f 96 125 126
f 96 126 127
f 96 127 104
f 96 104 103
f 96 103 97
f 96 99 98
f 97 103 102
f 98 128 125
f 100 102 101
f 101 102 103
f 104 129 105
f 104 127 130
f 104 130 131
f 104 131 132
f 104 132 129
f 105 133 107
f 105 129 134
f 105 134 135
f 105 135 133
f 107 133 136
f 107 136 108
f 109 113 112
f 109 112 137
f 109 137 138
f 109 138 110
f 110 138 139
f 110 139 114
f 112 140 137
f 114 139 141
f 114 141 142
f 114 142 115
f 115 120 143
f 115 143 116
f 115 142 121
f 115 121 120
f 116 143 144
f 116 144 118
f 118 120 119
f 118 144 143
f 118 143 120
f 121 142 122
f 122 142 123
f 123 142 124
f 124 142 145
f 124 145 146
f 124 146 147
f 125 128 148
f 125 148 126
f 126 149 127
f 126 148 149
f 127 149 150
f 127 150 151
f 127 151 130
f 129 132 152
f 129 152 153
f 129 153 154
f 129 154 134
f 130 151 155
f 130 155 156
f 130 156 131
f 131 156 132
f 132 156 152
f 133 135 157
f 134 154 153
f 134 153 158
f 134 158 159
f 134 159 135
f 135 159 157
f 137 140 138
f 138 160 161
f 138 161 141
f 138 141 139
f 138 140 160
f 140 162 160
f 141 161 163
f 141 163 164
f 141 164 142
f 142 165 145
f 142 164 166
f 142 166 167
f 142 167 168
f 142 168 165
f 145 165 169
f 145 169 146
f 146 170 171
f 146 171 172
f 146 172 147
f 146 169 173
f 146 173 174
f 146 174 170
f 148 175 176
f 148 176 149
f 149 176 177
f 149 177 150
f 150 177 178
f 150 178 155
f 150 155 151
f 152 179 196
f 152 196 180
f 152 180 181
f 152 181 153
f 152 156 155
f 152 155 179
f 153 181 182
f 153 182 158
f 155 178 183
f 155 183 179
f 158 182 184
f 158 184 159
f 160 162 185
f 160 185 186
f 160 186 163
f 160 163 161
f 163 186 187
f 163 187 188
f 163 188 166
f 163 166 164
f 165 189 169
f 165 168 190
f 165 190 191
f 165 191 192
f 165 192 189
f 166 188 167
f 167 188 193
f 167 193 194
f 167 194 195
f 167 195 181
f 167 181 180
f 167 180 168
f 168 180 196
f 168 196 190
f 169 189 173
f 173 192 174
f 173 189 192
f 175 197 176
f 176 197 178
f 176 178 177
f 178 197 183
f 179 183 198
f 179 198 199
f 179 199 200
f 179 200 201
f 179 201 196
f 181 195 202
f 181 202 203
f 181 203 182
f 182 203 204
f 183 205 206
f 183 206 207
f 183 207 199
f 183 199 198
f 183 197 208
f 183 208 209
f 183 209 205
f 186 210 211
f 186 211 187
f 187 211 193
f 187 193 188
f 190 196 212
f 190 212 192
f 190 192 191
f 192 212 213
f 193 211 194
f 194 211 195
f 195 211 202
f 196 201 212
f 199 207 200
f 200 207 206
f 200 206 213
f 200 213 201
f 201 213 212
f 202 214 203
f 202 211 215
f 202 215 214
f 203 214 215
f 203 215 216
f 203 216 217
f 203 217 218
f 203 218 204
f 205 213 206
f 210 216 211
f 210 217 216
f 211 216 215
