v 0.393427 0.594554 -0.0148949
v 0.380516 0.594554 -0.0193592
v 0.380516 0.594493 -0.0148949
v 0.406319 0.594493 -0.0148949
v 0.393427 0.594554 -0.0451534
v 0.277343 0.594554 -0.161227
v 0.270046 0.594431 -0.161227
v 0.270046 0.593943 -0.148873
v 0.369009 0.593882 -0.0148949
v 0.406319 0.594493 -0.0193592
v 0.418163 0.593943 -0.0148949
v 0.393427 0.594431 -0.0580505
v 0.380516 0.594554 -0.0709475
v 0.270046 0.594554 -0.174124
v 0.270046 0.593393 -0.142944
v 0.270832 0.593393 -0.141834
v 0.363901 0.593027 -0.0148949
v 0.406319 0.59437 -0.0322563
v 0.416872 0.593943 -0.0193592
v 0.422354 0.593516 -0.0148949
v 0.367624 0.594431 -0.0967653
v 0.402109 0.593882 -0.0580505
v 0.393857 0.594004 -0.0712074
v 0.380516 0.594248 -0.0838682
v 0.354751 0.594493 -0.109662
v 0.34184 0.594554 -0.122559
v 0.270046 0.594554 -0.187021
v 0.270046 0.59321 -0.142165
v 0.363321 0.592844 -0.0148949
v 0.414215 0.59376 -0.0322563
v 0.424618 0.593088 -0.0148949
v 0.413167 0.593516 -0.0399568
v 0.316038 0.594493 -0.161227
v 0.367269 0.593943 -0.109072
v 0.328948 0.59437 -0.14833
v 0.400705 0.593638 -0.0670737
v 0.389254 0.593699 -0.0838682
v 0.328948 0.594554 -0.135457
v 0.277343 0.594554 -0.187021
v 0.270046 0.594309 -0.199989
v 0.270046 0.592538 -0.141031
v 0.355256 0.58747 -0.0148949
v 0.432327 0.587592 -0.0148949
v 0.42067 0.590951 -0.0322563
v 0.408564 0.591745 -0.0580505
v 0.39846 0.593149 -0.0756717
v 0.290254 0.594554 -0.174124
v 0.328443 0.593882 -0.160471
v 0.323803 0.593699 -0.168927
v 0.315233 0.593882 -0.173604
v 0.303146 0.59437 -0.174124
v 0.37973 0.59376 -0.0956079
v 0.387121 0.593393 -0.0905293
v 0.374884 0.593577 -0.104395
v 0.277381 0.594004 -0.200036
v 0.270046 0.59376 -0.209367
v 0.270046 0.588936 -0.135008
v 0.347678 0.58118 -0.0148949
v 0.432851 0.58576 -0.0193592
v 0.429389 0.584478 -0.0322563
v 0.439269 0.581791 -0.0148949
v 0.439437 0.581608 -0.0150366
v 0.41762 0.585333 -0.0580505
v 0.405533 0.590096 -0.0712074
v 0.406281 0.584661 -0.0831832
v 0.395691 0.591561 -0.0838682
v 0.336021 0.593516 -0.155676
v 0.33241 0.592416 -0.164274
v 0.318994 0.592294 -0.177549
v 0.310406 0.593516 -0.18114
v 0.273115 0.593699 -0.207855
v 0.383491 0.591928 -0.0991274
v 0.348127 0.593332 -0.141716
v 0.270046 0.591989 -0.215461
v 0.270046 0.583134 -0.126032
v 0.34663 0.578371 -0.0148949
v 0.427256 0.582402 -0.0426495
v 0.414944 0.583012 -0.0709475
v 0.439474 0.581608 -0.0148949
v 0.439549 0.581486 -0.0148949
v 0.425516 0.579837 -0.0512476
v 0.413354 0.581241 -0.0784354
v 0.392903 0.587287 -0.0960803
v 0.401959 0.582585 -0.0930568
v 0.345414 0.592111 -0.14833
v 0.341915 0.587775 -0.161369
v 0.338585 0.583318 -0.174124
v 0.328443 0.589913 -0.173604
v 0.303146 0.59205 -0.190375
v 0.296279 0.593271 -0.193068
v 0.328948 0.583318 -0.183667
v 0.316057 0.587714 -0.186998
v 0.281722 0.592966 -0.20443
v 0.355125 0.58576 -0.148448
v 0.277381 0.590523 -0.212414
v 0.270046 0.586127 -0.224649
v 0.270046 0.573974 -0.12126
v 0.345582 0.573974 -0.0148949
v 0.437641 0.576722 -0.0236583
v 0.442075 0.573364 -0.0148949
v 0.440316 0.573059 -0.0193592
v 0.438689 0.568112 -0.0261148
v 0.426526 0.571288 -0.0536806
v 0.418686 0.573974 -0.0709475
v 0.398666 0.576173 -0.101655
v 0.386803 0.579898 -0.115875
v 0.414402 0.573974 -0.0802778
v 0.410379 0.573974 -0.0867264
v 0.390059 0.583379 -0.107277
v 0.367418 0.584539 -0.134819
v 0.374903 0.581424 -0.130095
v 0.362984 0.582341 -0.144244
v 0.351084 0.583134 -0.158463
v 0.335834 0.580936 -0.180998
v 0.303183 0.585638 -0.200249
v 0.277343 0.583684 -0.222831
v 0.289524 0.584356 -0.212555
v 0.298917 0.582279 -0.208068
v 0.313119 0.583073 -0.196163
v 0.270046 0.579715 -0.232066
v 0.270046 0.568906 -0.120859
v 0.344778 0.56109 -0.0148949
v 0.345171 0.567685 -0.0148949
v 0.442861 0.568906 -0.0148949
v 0.444208 0.56109 -0.0148949
v 0.436462 0.56109 -0.0336027
v 0.431672 0.56109 -0.0451534
v 0.427331 0.56109 -0.0556175
v 0.424655 0.56109 -0.062066
v 0.420969 0.56109 -0.0709475
v 0.403119 0.572753 -0.0971196
v 0.347809 0.57886 -0.167061
v 0.387982 0.571288 -0.117434
v 0.349007 0.570249 -0.16862
v 0.415543 0.56109 -0.082262
v 0.411726 0.56109 -0.0887105
v 0.399882 0.567563 -0.103214
v 0.377784 0.583806 -0.122559
v 0.344086 0.574341 -0.173392
v 0.336957 0.573974 -0.182108
v 0.328125 0.574097 -0.189171
v 0.321726 0.578432 -0.192879
v 0.270533 0.579531 -0.231877
v 0.284734 0.581302 -0.219996
v 0.270046 0.579043 -0.232374
v 0.270046 0.56109 -0.120292
v 0.337013 -0.029294 -0.0148949
v 0.447165 0.53532 -0.0148949
v 0.423065 0.547228 -0.0697665
v 0.43794 0.53532 -0.0371695
v 0.425441 0.50094 -0.0768292
v 0.360907 0.565425 -0.154401
v 0.349792 0.56109 -0.169636
v 0.344759 0.56109 -0.176085
v 0.412362 0.551502 -0.089679
v 0.425928 0.49233 -0.0779866
v 0.422953 0.496604 -0.0829234
v 0.420876 0.509489 -0.0838682
v 0.412924 0.542953 -0.0905057
v 0.40572 0.56109 -0.0967653
v 0.338304 0.56109 -0.183431
v 0.330689 0.56109 -0.189879
v 0.323279 0.569822 -0.194084
v 0.272067 0.570921 -0.233082
v 0.270046 0.572081 -0.234287
v 0.270046 -0.029294 -0.109568
v 0.436593 -0.029294 -0.0148949
v 0.451319 0.499047 -0.0148949
v 0.433711 0.496604 -0.0580505
v 0.357071 0.56109 -0.160164
v 0.350653 0.548205 -0.17077
v 0.347996 0.513764 -0.180195
v 0.345639 0.548205 -0.177218
v 0.444395 0.496604 -0.0322563
v 0.45158 0.496604 -0.0148949
v 0.452292 0.489154 -0.0148949
v 0.452797 0.483719 -0.0148949
v 0.449878 0.483719 -0.0219575
v 0.429576 0.483719 -0.0709475
v 0.426283 0.483719 -0.0788369
v 0.423158 0.483719 -0.0852855
v 0.416011 0.496604 -0.0945449
v 0.357108 0.548205 -0.162361
v 0.361487 0.556815 -0.155156
v 0.411071 0.496604 -0.100993
v 0.388281 0.496604 -0.130709
v 0.348576 0.505153 -0.180927
v 0.349138 0.496604 -0.181659
v 0.342738 0.496604 -0.188108
v 0.336283 0.496604 -0.194178
v 0.334057 0.522374 -0.192454
v 0.316955 0.548205 -0.202139
v 0.279682 0.56109 -0.229019
v 0.309077 0.56457 -0.205989
v 0.329921 0.509001 -0.197414
v 0.270046 0.561395 -0.236365
v 0.270046 -0.029294 -0.227531
v 0.437323 -0.0249583 -0.0148949
v 0.434797 -0.029294 -0.0192411
v 0.35883 0.522374 -0.164605
v 0.360551 0.496604 -0.166825
v 0.453845 0.468636 -0.0148949
v 0.453003 0.470773 -0.0165956
v 0.438408 0.474682 -0.0512004
v 0.430474 0.470773 -0.0709475
v 0.426732 0.470773 -0.0798763
v 0.425535 0.423936 -0.0900333
v 0.425217 0.432119 -0.0893955
v 0.424711 0.445004 -0.0883798
v 0.423682 0.470773 -0.0863248
v 0.416703 0.483719 -0.0954661
v 0.400032 0.491291 -0.1163
v 0.354938 0.496604 -0.174124
v 0.361057 0.488421 -0.167487
v 0.349849 0.483719 -0.182533
v 0.343655 0.483719 -0.188982
v 0.3372 0.483719 -0.194863
v 0.322156 0.487139 -0.206131
v 0.270944 0.490498 -0.245129
v 0.31499 0.496604 -0.210524
v 0.306589 0.496604 -0.216973
v 0.276595 0.522374 -0.236554
v 0.27435 0.548205 -0.23483
v 0.270046 0.542648 -0.238869
v 0.273938 -0.029294 -0.224555
v 0.270046 -0.0219051 -0.228972
v 0.423851 -0.029294 -0.045673
v 0.422784 -0.029294 -0.0482477
v 0.437678 -0.022821 -0.0148949
v 0.455454 0.445004 -0.0148949
v 0.431354 0.457889 -0.0709475
v 0.437173 0.432119 -0.0611212
v 0.427181 0.457889 -0.080892
v 0.427612 0.445004 -0.0819313
v 0.429408 0.406288 -0.0838682
v 0.43025 0.393403 -0.0838682
v 0.425853 0.415326 -0.0905766
v 0.417246 0.470773 -0.0961511
v 0.411782 0.483719 -0.101915
v 0.395429 0.483719 -0.123221
v 0.361412 0.479811 -0.167959
v 0.357183 0.483964 -0.173014
v 0.356828 0.470773 -0.17488
v 0.350373 0.470773 -0.183195
v 0.34809 0.397617 -0.193281
v 0.346331 0.432119 -0.19158
v 0.344348 0.470773 -0.189643
v 0.337892 0.470773 -0.195407
v 0.322643 0.478529 -0.206485
v 0.327732 0.48317 -0.202186
v 0.286194 0.483719 -0.234027
v 0.277792 0.483719 -0.240476
v 0.270046 0.483719 -0.246404
v 0.270046 0.491291 -0.245696
v 0.270046 0.498986 -0.24468
v 0.27856 0.510344 -0.236649
v 0.310088 -0.029294 -0.196824
v 0.278223 -0.0189739 -0.223279
v 0.270046 -0.0192792 -0.229468
v 0.427032 -0.0193403 -0.0419882
v 0.417489 -0.029294 -0.0610267
v 0.438707 -0.0165923 -0.0148949
v 0.458073 0.406166 -0.0148949
v 0.433094 0.432119 -0.0709475
v 0.440709 0.406288 -0.0567749
v 0.434834 0.406288 -0.0709475
v 0.426583 0.393403 -0.0916632
v 0.426152 0.406288 -0.091049
v 0.436219 0.392609 -0.0697429
v 0.438632 0.387785 -0.0646407
v 0.430774 0.380518 -0.0838682
v 0.421774 0.393403 -0.0981117
v 0.421287 0.406288 -0.0974975
v 0.42168 0.419478 -0.0956315
v 0.412306 0.470773 -0.1026
v 0.401416 0.457889 -0.118119
v 0.362797 0.445004 -0.169754
v 0.358343 0.432119 -0.176864
v 0.359354 0.406288 -0.178187
v 0.351907 0.432119 -0.185132
v 0.352917 0.406288 -0.186407
v 0.352468 0.393342 -0.188202
v 0.348445 0.389006 -0.193635
v 0.33342 0.393403 -0.204879
v 0.341204 0.406288 -0.197934
v 0.339221 0.445004 -0.196422
v 0.329491 0.470773 -0.201855
v 0.323709 0.457889 -0.207312
v 0.286886 0.470773 -0.234547
v 0.270046 0.474132 -0.247184
v 0.324944 -0.029294 -0.185415
v 0.335404 -0.0128673 -0.180573
v 0.284192 -0.014394 -0.219571
v 0.270046 -0.00639436 -0.231665
v 0.27014 -0.00639436 -0.231594
v 0.414869 -0.0187907 -0.0715381
v 0.414327 -0.029294 -0.0686563
v 0.438932 -0.0151878 -0.0148949
v 0.458897 0.393403 -0.0148949
v 0.440653 0.392609 -0.0590425
v 0.426845 0.380518 -0.0920647
v 0.422073 0.380518 -0.0985133
v 0.45942 0.380518 -0.0148949
v 0.45319 0.380518 -0.0299414
v 0.438726 0.380518 -0.0648533
v 0.43605 0.380518 -0.0713018
v 0.436724 0.316033 -0.0729317
v 0.431859 0.328918 -0.0838682
v 0.415637 0.380518 -0.106922
v 0.410379 0.393403 -0.112969
v 0.409892 0.406288 -0.112355
v 0.408882 0.432119 -0.111032
v 0.363302 0.432119 -0.170416
v 0.364312 0.406288 -0.171738
v 0.35984 0.393403 -0.178825
v 0.360158 0.380518 -0.179226
v 0.354002 0.380518 -0.187021
v 0.348595 0.380518 -0.193777
v 0.34184 0.380518 -0.199021
v 0.333832 0.380518 -0.205186
v 0.304119 0.380518 -0.22798
v 0.27637 0.380518 -0.249263
v 0.282414 0.393403 -0.244019
v 0.312127 0.393403 -0.221224
v 0.296878 0.401586 -0.232326
v 0.326348 0.406288 -0.209343
v 0.330819 0.445004 -0.202871
v 0.309321 0.448729 -0.219075
v 0.270046 0.462041 -0.248152
v 0.326871 -0.029294 -0.183927
v 0.284996 -0.00639436 -0.220209
v 0.330239 -0.00773781 -0.185297
v 0.327826 0.00679583 -0.189218
v 0.329978 0.0193754 -0.189312
v 0.334655 0.0709759 -0.192903
v 0.335291 0.0780596 -0.193399
v 0.336021 0.0866698 -0.193966
v 0.33604 -0.00425707 -0.18121
v 0.348763 0.0838608 -0.181163
v 0.348314 0.0772046 -0.18062
v 0.347716 0.0686554 -0.17984
v 0.344198 0.0193754 -0.175376
v 0.344123 0.00630731 -0.173108
v 0.34025 -0.00773781 -0.175423
v 0.347435 -0.00639436 -0.166542
v 0.346331 -0.0193403 -0.165125
v 0.339876 -0.0193403 -0.173345
v 0.338921 -0.029294 -0.172116
v 0.337705 -0.029294 -0.173604
v 0.33458 -0.0193403 -0.179793
v 0.270046 0.00129992 -0.232775
v 0.270794 0.000567136 -0.232114
v 0.41225 -0.02276 -0.076215
v 0.412998 -0.0142108 -0.0777976
v 0.41356 -0.029294 -0.0704751
v 0.425161 -0.00877593 -0.05035
v 0.440148 -0.00639436 -0.0148949
v 0.432402 0.303087 -0.0838682
v 0.426994 0.367633 -0.0922773
v 0.422242 0.367633 -0.0987258
v 0.459533 0.375328 -0.0148949
v 0.439531 0.303087 -0.0668138
v 0.436855 0.303087 -0.0732624
v 0.393745 0.380518 -0.135457
v 0.393127 0.393403 -0.135457
v 0.365266 0.367633 -0.17299
v 0.364799 0.393403 -0.172376
v 0.360308 0.367633 -0.179439
v 0.355593 0.316033 -0.187021
v 0.354321 0.367633 -0.187021
v 0.355911 0.303087 -0.187021
v 0.348763 0.367633 -0.193942
v 0.34184 0.303087 -0.20091
v 0.34184 0.354687 -0.199658
v 0.3282 0.328918 -0.21076
v 0.304736 0.341802 -0.228452
v 0.290254 0.354687 -0.239247
v 0.270046 0.380518 -0.254105
v 0.270046 0.393403 -0.253491
v 0.276763 0.354687 -0.249593
v 0.270046 0.354687 -0.254743
v 0.275323 0.406288 -0.248483
v 0.317946 0.406288 -0.215792
v 0.274013 0.432119 -0.247467
v 0.270046 0.437737 -0.250066
v 0.333308 -0.029294 -0.178565
v 0.322007 0.00270443 -0.193115
v 0.324701 0.0322602 -0.19517
v 0.32704 0.0580911 -0.196966
v 0.3282 0.0709759 -0.197863
v 0.319799 0.0709759 -0.204312
v 0.284079 0.0758612 -0.232397
v 0.291227 0.0838608 -0.22798
v 0.270607 0.0929596 -0.244845
v 0.336695 0.0968067 -0.194485
v 0.343131 0.0968067 -0.188486
v 0.340923 0.0829448 -0.188746
v 0.336826 0.00649051 -0.181966
v 0.349456 0.0968067 -0.182037
v 0.355555 0.0968067 -0.174124
v 0.39977 0.0916772 -0.115969
v 0.354171 0.0838608 -0.174124
v 0.360158 0.0838608 -0.166329
v 0.393745 0.0838608 -0.122559
v 0.387308 0.0750673 -0.129433
v 0.351944 0.0721362 -0.174974
v 0.34925 0.0193754 -0.168927
v 0.348034 0.00191058 -0.167345
v 0.35883 -0.00639436 -0.151708
v 0.374491 -0.0149436 -0.129528
v 0.362684 -0.0193403 -0.143818
v 0.357389 -0.029294 -0.148212
v 0.345358 -0.029294 -0.163873
v 0.270046 0.00820034 -0.233744
v 0.286194 0.00649051 -0.22113
v 0.270046 0.0237721 -0.235917
v 0.280131 0.0322602 -0.229374
v 0.287372 0.0193754 -0.222028
v 0.41167 -0.029294 -0.0748922
v 0.406356 -0.029294 -0.083632
v 0.418499 0.00649051 -0.0709475
v 0.416909 -0.00639436 -0.0709475
v 0.408844 -0.0187907 -0.0828053
v 0.40935 -0.00639436 -0.0851437
v 0.410267 0.00649051 -0.0865374
v 0.413504 -0.00639436 -0.0786952
v 0.425703 0.0900895 -0.0774669
v 0.425217 0.0814792 -0.0763095
v 0.424599 0.0709759 -0.0748214
v 0.422934 -0.00523412 -0.0567985
v 0.425703 -0.000165653 -0.0516728
v 0.441327 0.00325402 -0.0148949
v 0.43693 0.290202 -0.0734514
v 0.432551 0.290202 -0.0838682
v 0.427668 0.303087 -0.093293
v 0.427125 0.354687 -0.0924899
v 0.423009 0.303087 -0.0997415
v 0.422859 0.316033 -0.0995526
v 0.410996 0.354687 -0.113796
v 0.459963 0.354687 -0.0148949
v 0.460768 0.316033 -0.0148949
v 0.46103 0.303087 -0.0148949
v 0.461104 0.296919 -0.0148949
v 0.439605 0.290202 -0.0670028
v 0.361094 0.303087 -0.180455
v 0.360944 0.316033 -0.180242
v 0.361187 0.293072 -0.180549
v 0.357108 0.289347 -0.185746
v 0.349662 0.290202 -0.194816
v 0.349568 0.303087 -0.194722
v 0.34925 0.328918 -0.194415
v 0.34184 0.290202 -0.201076
v 0.335179 0.290202 -0.206201
v 0.328724 0.290202 -0.211162
v 0.320323 0.290202 -0.21761
v 0.284042 0.303087 -0.245271
v 0.270046 0.406288 -0.252522
v 0.270046 0.303087 -0.255995
v 0.283293 0.0672509 -0.231807
v 0.278335 0.0713423 -0.236177
v 0.270046 0.071037 -0.242483
v 0.270046 0.0836776 -0.244184
v 0.270046 0.0838608 -0.244208
v 0.270046 0.0933871 -0.245318
v 0.276165 0.097051 -0.240948
v 0.275079 0.174177 -0.248294
v 0.296728 0.180406 -0.232208
v 0.340942 0.174177 -0.197745
v 0.347397 0.174177 -0.192619
v 0.346686 0.161292 -0.191934
v 0.35737 0.108715 -0.173085
v 0.352711 0.174177 -0.186171
v 0.359167 0.174177 -0.177951
v 0.36115 0.103768 -0.167628
v 0.404073 0.0962572 -0.110867
v 0.41631 0.0968067 -0.0949465
v 0.415618 0.0838608 -0.0940253
v 0.410678 0.0838608 -0.100474
v 0.409817 0.0709759 -0.09934
v 0.408919 0.0580911 -0.0981826
v 0.395728 0.0322602 -0.110702
v 0.382537 0.00649051 -0.123221
v 0.365603 0.0193754 -0.147621
v 0.387009 -0.00022672 -0.116158
v 0.375165 -0.00639436 -0.130425
v 0.386373 -0.008837 -0.115331
v 0.402913 -0.00639436 -0.0942615
v 0.401809 -0.0193403 -0.0928206
v 0.390414 -0.0193403 -0.107678
v 0.382855 -0.029294 -0.115024
v 0.270046 0.0322602 -0.237098
v 0.270046 0.0580911 -0.240688
v 0.404765 -0.029294 -0.0859232
v 0.423458 0.0449619 -0.0700972
v 0.412605 0.0399545 -0.0900569
v 0.414308 0.00649051 -0.0800889
v 0.420127 0.0709759 -0.0838682
v 0.422522 0.0850211 -0.0825927
v 0.452123 0.0968067 -0.0148949
v 0.45145 0.0888682 -0.0148949
v 0.451206 0.0864256 -0.0148949
v 0.449354 0.0833723 -0.0185561
v 0.427574 0.0850211 -0.0715853
v 0.422765 0.0968067 -0.0844824
v 0.424955 0.148346 -0.0888522
v 0.425366 0.158422 -0.0897026
v 0.425722 0.166971 -0.0903876
v 0.427799 0.162147 -0.0847894
v 0.429071 0.174177 -0.0838682
v 0.434497 0.174177 -0.0709475
v 0.438801 0.125935 -0.0521452
v 0.450551 0.0805633 -0.0148949
v 0.427275 0.0709759 -0.0683728
v 0.44056 0.00649051 -0.0177058
v 0.428042 0.0449619 -0.0590425
v 0.447894 0.0580911 -0.0148949
v 0.444845 0.0325656 -0.0148949
v 0.44172 0.00649051 -0.0148949
v 0.436855 0.277378 -0.0732624
v 0.43242 0.277378 -0.0838682
v 0.427668 0.277378 -0.0933166
v 0.427743 0.290202 -0.0934111
v 0.423102 0.290202 -0.0998596
v 0.416572 0.303087 -0.108151
v 0.461179 0.290202 -0.0148949
v 0.461123 0.284095 -0.0148949
v 0.461048 0.277378 -0.0148949
v 0.448512 0.277378 -0.0451534
v 0.439531 0.277378 -0.0668138
v 0.416666 0.290202 -0.108269
v 0.405701 0.290202 -0.122559
v 0.361206 0.284523 -0.180596
v 0.361206 0.283668 -0.180596
v 0.356978 0.278599 -0.185746
v 0.349568 0.277378 -0.194722
v 0.34184 0.277378 -0.20091
v 0.335067 0.277378 -0.206131
v 0.277343 0.277378 -0.25042
v 0.277343 0.290202 -0.250585
v 0.270046 0.290202 -0.256184
v 0.270046 0.301743 -0.256018
v 0.270046 0.102791 -0.246121
v 0.270046 0.148346 -0.249971
v 0.270046 0.174177 -0.252144
v 0.270046 0.182482 -0.252758
v 0.270046 0.187062 -0.253089
v 0.275697 0.187062 -0.248767
v 0.297009 0.187062 -0.232421
v 0.34156 0.187062 -0.198218
v 0.348015 0.187062 -0.19321
v 0.353198 0.187062 -0.186761
v 0.359634 0.187062 -0.178565
v 0.364593 0.187062 -0.172116
v 0.387102 0.179123 -0.142047
v 0.40325 0.174177 -0.120504
v 0.402707 0.161292 -0.119796
v 0.41356 0.148346 -0.10423
v 0.4211 0.174177 -0.0972377
v 0.414757 0.0709759 -0.0928914
v 0.413859 0.0580911 -0.091734
v 0.40383 0.00649051 -0.0954661
v 0.400106 0.0241385 -0.103521
v 0.400836 -0.029294 -0.0915687
v 0.395896 -0.029294 -0.0980172
v 0.413204 0.0485648 -0.09086
v 0.453994 0.122576 -0.0148949
v 0.450869 0.0833723 -0.0148949
v 0.425984 0.174177 -0.0907892
v 0.429894 0.187062 -0.0838682
v 0.435321 0.187062 -0.0709475
v 0.440541 0.174177 -0.0563734
v 0.449204 0.161292 -0.0332248
v 0.449429 0.0709759 -0.0148949
v 0.438651 0.0639534 -0.0388938
v 0.442637 0.0141237 -0.0148949
v 0.436368 0.238662 -0.0720813
v 0.431747 0.251547 -0.0838682
v 0.426676 0.199947 -0.0918049
v 0.427013 0.225778 -0.0923009
v 0.423027 0.277378 -0.0997652
v 0.460899 0.271516 -0.0148949
v 0.411632 0.277378 -0.114623
v 0.410472 0.199947 -0.113111
v 0.365285 0.225778 -0.173014
v 0.36014 0.212893 -0.179203
v 0.352524 0.198848 -0.18832
v 0.348427 0.202389 -0.193611
v 0.349381 0.264493 -0.194533
v 0.34184 0.251547 -0.200154
v 0.34184 0.212893 -0.198997
v 0.333551 0.199947 -0.204973
v 0.327863 0.238662 -0.2105
v 0.313512 0.264493 -0.222287
v 0.270046 0.276157 -0.255971
v 0.270046 0.277378 -0.255995
v 0.290254 0.251547 -0.239743
v 0.276595 0.225778 -0.249452
v 0.270046 0.251547 -0.255239
v 0.270046 0.196161 -0.253514
v 0.348277 0.193779 -0.19347
v 0.359934 0.199947 -0.178943
v 0.398778 0.187062 -0.127567
v 0.364892 0.199947 -0.172494
v 0.421568 0.187062 -0.0978519
v 0.45551 0.143522 -0.0148949
v 0.426414 0.187062 -0.0914033
v 0.4304 0.199947 -0.0838682
v 0.438483 0.196649 -0.06431
v 0.458522 0.186696 -0.0148949
v 0.449672 0.174177 -0.034335
v 0.4574 0.169719 -0.0148949
v 0.438876 0.225778 -0.0652312
v 0.436032 0.212893 -0.0712782
v 0.421867 0.199947 -0.0982534
v 0.460057 0.238662 -0.0148949
v 0.343131 0.198848 -0.19758
v 0.303838 0.199947 -0.227767
v 0.290254 0.212893 -0.238586
v 0.276333 0.212893 -0.249263
v 0.270046 0.212893 -0.254081
v 0.270046 0.199947 -0.25368
v 0.27609 0.199947 -0.24905
v 0.43635 0.200557 -0.0697192
v 0.453003 0.199947 -0.0294926
v 0.459046 0.199947 -0.0148949
v 0.45826 0.182604 -0.0148949
v 0.457718 0.174177 -0.0148949
v 0.438707 0.212893 -0.0648297
f 1 2 3
f 1 3 9
f 1 9 17
f 1 17 29
f 1 29 42
f 1 42 58
f 1 58 76
f 1 76 98
f 1 98 123
f 1 123 122
f 1 122 147
f 1 147 167
f 1 167 198
f 1 198 229
f 1 229 262
f 1 262 298
f 1 298 357
f 1 357 432
f 1 432 518
f 1 518 575
f 1 575 517
f 1 517 516
f 1 516 573
f 1 573 512
f 1 512 567
f 1 567 501
f 1 501 500
f 1 500 499
f 1 499 566
f 1 566 605
f 1 605 611
f 1 611 627
f 1 627 626
f 1 626 609
f 1 609 625
f 1 625 615
f 1 615 581
f 1 581 527
f 1 527 526
f 1 526 525
f 1 525 443
f 1 443 442
f 1 442 441
f 1 441 440
f 1 440 361
f 1 361 303
f 1 303 299
f 1 299 263
f 1 263 230
f 1 230 202
f 1 202 177
f 1 177 176
f 1 176 175
f 1 175 168
f 1 168 148
f 1 148 125
f 1 125 124
f 1 124 100
f 1 100 80
f 1 80 79
f 1 79 61
f 1 61 43
f 1 43 31
f 1 31 20
f 1 20 11
f 1 11 4
f 1 4 10
f 1 10 5
f 1 5 13
f 1 13 26
f 1 26 38
f 1 38 47
f 1 47 39
f 1 39 27
f 1 27 14
f 1 14 6
f 1 6 2
f 2 6 7
f 2 7 3
f 3 7 8
f 3 8 9
f 4 11 10
f 5 10 18
f 5 18 12
f 5 12 13
f 6 14 7
f 7 14 27
f 7 27 40
f 7 40 56
f 7 56 74
f 7 74 96
f 7 96 120
f 7 120 145
f 7 145 165
f 7 165 196
f 7 196 224
f 7 224 255
f 7 255 254
f 7 254 253
f 7 253 290
f 7 290 329
f 7 329 385
f 7 385 457
f 7 457 379
f 7 379 378
f 7 378 381
f 7 381 458
f 7 458 541
f 7 541 540
f 7 540 595
f 7 595 594
f 7 594 598
f 7 598 620
f 7 620 621
f 7 621 599
f 7 599 546
f 7 546 545
f 7 545 544
f 7 544 543
f 7 543 542
f 7 542 464
f 7 464 463
f 7 463 462
f 7 462 461
f 7 461 492
f 7 492 491
f 7 491 416
f 7 416 414
f 7 414 351
f 7 351 294
f 7 294 259
f 7 259 226
f 7 226 197
f 7 197 166
f 7 166 146
f 7 146 121
f 7 121 97
f 7 97 75
f 7 75 57
f 7 57 41
f 7 41 28
f 7 28 15
f 7 15 8
f 8 15 16
f 8 16 9
f 9 16 17
f 10 11 18
f 11 19 18
f 11 20 19
f 12 21 13
f 12 18 22
f 12 22 23
f 12 23 24
f 12 24 21
f 13 21 25
f 13 25 26
f 15 28 16
f 16 28 29
f 16 29 17
f 18 19 30
f 18 30 22
f 19 20 30
f 20 31 32
f 20 32 30
f 21 33 25
f 21 24 34
f 21 34 35
f 21 35 33
f 22 30 36
f 22 36 23
f 23 34 24
f 23 36 37
f 23 37 34
f 25 33 26
f 26 33 38
f 27 39 40
f 28 41 42
f 28 42 29
f 30 32 36
f 31 43 44
f 31 44 45
f 31 45 32
f 32 46 36
f 32 45 46
f 33 39 47
f 33 47 38
f 33 35 48
f 33 48 49
f 33 49 50
f 33 50 51
f 33 51 40
f 33 40 39
f 34 52 48
f 34 48 35
f 34 37 52
f 36 46 53
f 36 53 37
f 37 53 54
f 37 54 52
f 40 51 55
f 40 55 56
f 41 57 42
f 42 57 58
f 43 59 60
f 43 60 44
f 43 61 62
f 43 62 59
f 44 60 63
f 44 63 64
f 44 64 45
f 45 64 46
f 46 64 65
f 46 65 66
f 46 66 53
f 48 52 67
f 48 67 49
f 49 67 68
f 49 68 69
f 49 69 70
f 49 70 50
f 50 56 55
f 50 55 51
f 50 70 71
f 50 71 56
f 52 54 67
f 53 66 72
f 53 72 73
f 53 73 67
f 53 67 54
f 56 71 74
f 57 75 58
f 58 75 76
f 59 62 60
f 60 62 77
f 60 77 78
f 60 78 63
f 61 79 62
f 62 79 80
f 62 80 81
f 62 81 82
f 62 82 77
f 63 78 64
f 64 78 82
f 64 82 65
f 65 83 66
f 65 82 84
f 65 84 83
f 66 83 72
f 67 73 68
f 68 85 86
f 68 86 87
f 68 87 88
f 68 88 69
f 68 73 85
f 69 89 90
f 69 90 70
f 69 88 91
f 69 91 92
f 69 92 89
f 70 90 71
f 71 90 93
f 71 93 74
f 72 85 73
f 72 83 94
f 72 94 85
f 74 93 90
f 74 90 89
f 74 89 95
f 74 95 96
f 75 97 76
f 76 97 98
f 77 82 78
f 80 99 81
f 80 100 99
f 81 99 101
f 81 101 102
f 81 102 103
f 81 103 104
f 81 104 82
f 82 105 106
f 82 106 84
f 82 104 107
f 82 107 108
f 82 108 105
f 83 84 109
f 83 109 110
f 83 110 94
f 84 106 111
f 84 111 112
f 84 112 113
f 84 113 109
f 85 94 86
f 86 94 87
f 87 94 113
f 87 113 114
f 87 114 88
f 88 114 91
f 89 92 115
f 89 115 95
f 91 116 117
f 91 117 115
f 91 115 92
f 91 114 118
f 91 118 119
f 91 119 116
f 94 110 113
f 95 115 116
f 95 116 96
f 96 116 120
f 97 121 122
f 97 122 123
f 97 123 98
f 99 100 101
f 100 124 102
f 100 102 101
f 102 124 125
f 102 125 126
f 102 126 127
f 102 127 128
f 102 128 129
f 102 129 130
f 102 130 103
f 103 130 104
f 104 130 107
f 105 108 131
f 105 131 106
f 106 132 114
f 106 114 111
f 106 131 133
f 106 133 134
f 106 134 132
f 107 130 135
f 107 135 136
f 107 136 108
f 108 136 137
f 108 137 131
f 109 138 110
f 109 113 138
f 110 138 113
f 111 114 112
f 112 114 113
f 114 132 139
f 114 139 140
f 114 140 141
f 114 141 142
f 114 142 143
f 114 143 144
f 114 144 118
f 115 117 116
f 116 119 118
f 116 118 144
f 116 144 120
f 120 144 143
f 120 143 145
f 121 146 122
f 122 146 147
f 125 148 126
f 126 149 127
f 126 148 150
f 126 150 149
f 127 149 128
f 128 149 129
f 129 149 130
f 130 149 151
f 130 151 135
f 131 137 133
f 132 134 139
f 133 137 134
f 134 140 139
f 134 137 152
f 134 152 153
f 134 153 154
f 134 154 140
f 135 155 136
f 135 151 156
f 135 156 157
f 135 157 158
f 135 158 159
f 135 159 155
f 136 160 137
f 136 155 160
f 137 160 152
f 140 154 161
f 140 161 162
f 140 162 163
f 140 163 141
f 141 163 142
f 142 163 143
f 143 163 164
f 143 164 165
f 143 165 145
f 146 166 147
f 147 166 197
f 147 197 225
f 147 225 257
f 147 257 291
f 147 291 330
f 147 330 386
f 147 386 349
f 147 349 348
f 147 348 413
f 147 413 412
f 147 412 490
f 147 490 564
f 147 564 563
f 147 563 493
f 147 493 420
f 147 420 419
f 147 419 355
f 147 355 297
f 147 297 261
f 147 261 228
f 147 228 227
f 147 227 199
f 147 199 167
f 148 168 150
f 149 150 151
f 150 168 151
f 151 168 169
f 151 169 156
f 152 160 170
f 152 170 153
f 153 170 171
f 153 171 172
f 153 172 173
f 153 173 154
f 154 173 161
f 155 159 160
f 156 169 168
f 156 168 174
f 156 174 175
f 156 175 176
f 156 176 177
f 156 177 178
f 156 178 179
f 156 179 180
f 156 180 181
f 156 181 157
f 157 181 158
f 158 181 159
f 159 181 182
f 159 182 160
f 160 183 184
f 160 184 170
f 160 182 185
f 160 185 186
f 160 186 183
f 161 173 172
f 161 172 187
f 161 187 188
f 161 188 189
f 161 189 190
f 161 190 191
f 161 191 162
f 162 192 193
f 162 193 194
f 162 194 163
f 162 191 195
f 162 195 192
f 163 194 164
f 164 194 196
f 164 196 165
f 167 199 198
f 168 175 174
f 170 184 183
f 170 183 171
f 171 183 200
f 171 200 172
f 172 200 201
f 172 201 187
f 177 202 203
f 177 203 178
f 178 203 204
f 178 204 179
f 179 204 205
f 179 205 180
f 180 205 206
f 180 206 207
f 180 207 208
f 180 208 209
f 180 209 210
f 180 210 181
f 181 210 211
f 181 211 182
f 182 211 212
f 182 212 185
f 183 186 200
f 185 212 186
f 186 212 201
f 186 201 200
f 187 201 213
f 187 213 188
f 188 213 214
f 188 214 215
f 188 215 216
f 188 216 189
f 189 216 190
f 190 216 217
f 190 217 218
f 190 218 219
f 190 219 220
f 190 220 195
f 190 195 191
f 192 195 221
f 192 221 222
f 192 222 193
f 193 222 223
f 193 223 196
f 193 196 194
f 195 220 221
f 196 223 224
f 197 226 225
f 198 199 227
f 198 227 228
f 198 228 229
f 201 212 214
f 201 214 213
f 202 230 203
f 203 230 204
f 204 231 205
f 204 230 232
f 204 232 231
f 205 231 206
f 206 231 233
f 206 233 207
f 207 233 234
f 207 234 235
f 207 235 236
f 207 236 237
f 207 237 211
f 207 211 208
f 208 211 209
f 209 211 210
f 211 237 238
f 211 238 239
f 211 239 212
f 212 239 214
f 214 239 240
f 214 240 241
f 214 241 242
f 214 242 215
f 215 242 243
f 215 243 244
f 215 244 245
f 215 245 246
f 215 246 247
f 215 247 216
f 216 247 217
f 217 247 246
f 217 246 245
f 217 245 248
f 217 248 249
f 217 249 250
f 217 250 218
f 218 250 251
f 218 251 252
f 218 252 219
f 219 221 220
f 219 252 253
f 219 253 254
f 219 254 255
f 219 255 224
f 219 224 222
f 219 222 256
f 219 256 221
f 221 256 222
f 222 224 223
f 225 226 258
f 225 258 257
f 226 259 258
f 228 260 229
f 228 261 260
f 229 260 262
f 230 263 232
f 231 232 264
f 231 264 233
f 232 263 265
f 232 265 266
f 232 266 264
f 233 264 235
f 233 235 234
f 235 266 236
f 235 264 266
f 236 267 268
f 236 268 237
f 236 266 269
f 236 269 270
f 236 270 271
f 236 271 267
f 237 268 272
f 237 272 273
f 237 273 274
f 237 274 238
f 238 275 239
f 238 274 275
f 239 275 241
f 239 241 240
f 241 275 243
f 241 243 242
f 243 275 276
f 243 276 277
f 243 277 313
f 243 313 278
f 243 278 244
f 244 278 279
f 244 279 280
f 244 280 245
f 245 280 281
f 245 281 282
f 245 282 283
f 245 283 284
f 245 284 285
f 245 285 286
f 245 286 248
f 248 287 249
f 248 286 288
f 248 288 287
f 249 252 251
f 249 251 250
f 249 287 289
f 249 289 252
f 252 289 290
f 252 290 253
f 257 258 292
f 257 292 291
f 258 259 293
f 258 293 292
f 259 294 295
f 259 295 293
f 260 296 262
f 260 261 297
f 260 297 296
f 262 296 298
f 263 299 300
f 263 300 265
f 265 300 269
f 265 269 266
f 267 271 301
f 267 301 302
f 267 302 272
f 267 272 268
f 269 300 270
f 270 303 304
f 270 304 305
f 270 305 306
f 270 306 271
f 270 300 299
f 270 299 303
f 271 306 307
f 271 307 308
f 271 308 301
f 272 302 309
f 272 309 310
f 272 310 311
f 272 311 273
f 273 311 312
f 273 312 275
f 273 275 274
f 275 312 276
f 276 312 277
f 277 312 313
f 278 313 314
f 278 314 279
f 279 314 367
f 279 367 315
f 279 315 281
f 279 281 280
f 281 315 282
f 282 315 283
f 283 315 316
f 283 316 317
f 283 317 318
f 283 318 319
f 283 319 320
f 283 320 321
f 283 321 322
f 283 322 323
f 283 323 324
f 283 324 284
f 284 324 325
f 284 325 326
f 284 326 285
f 285 326 286
f 286 326 383
f 286 383 327
f 286 327 288
f 287 288 289
f 288 327 328
f 288 328 289
f 289 328 329
f 289 329 290
f 291 292 330
f 292 293 295
f 292 295 331
f 292 331 332
f 292 332 333
f 292 333 334
f 292 334 335
f 292 335 336
f 292 336 337
f 292 337 338
f 292 338 339
f 292 339 340
f 292 340 341
f 292 341 342
f 292 342 343
f 292 343 344
f 292 344 345
f 292 345 346
f 292 346 347
f 292 347 348
f 292 348 349
f 292 349 350
f 292 350 330
f 294 351 352
f 294 352 295
f 295 352 331
f 296 297 353
f 296 353 354
f 296 354 298
f 297 355 353
f 298 354 356
f 298 356 357
f 301 308 358
f 301 358 359
f 301 359 360
f 301 360 302
f 302 360 309
f 303 361 304
f 304 361 305
f 305 361 362
f 305 362 307
f 305 307 306
f 307 362 363
f 307 363 358
f 307 358 308
f 309 364 365
f 309 365 310
f 309 360 366
f 309 366 364
f 310 365 311
f 311 365 367
f 311 367 314
f 311 314 313
f 311 313 312
f 315 367 316
f 316 367 364
f 316 364 366
f 316 366 368
f 316 368 369
f 316 369 370
f 316 370 317
f 317 370 318
f 318 370 369
f 318 369 371
f 318 371 372
f 318 372 373
f 318 373 374
f 318 374 319
f 319 374 320
f 320 374 373
f 320 373 375
f 320 375 376
f 320 376 321
f 321 376 377
f 321 377 322
f 322 378 379
f 322 379 323
f 322 377 380
f 322 380 381
f 322 381 378
f 323 379 382
f 323 382 325
f 323 325 324
f 325 383 326
f 325 382 384
f 325 384 328
f 325 328 383
f 327 383 328
f 328 384 329
f 329 384 385
f 330 350 386
f 331 352 332
f 332 352 387
f 332 387 333
f 333 387 388
f 333 388 335
f 333 335 334
f 335 388 389
f 335 389 336
f 336 389 390
f 336 390 391
f 336 391 392
f 336 392 393
f 336 393 337
f 337 393 394
f 337 394 395
f 337 395 396
f 337 396 397
f 337 397 398
f 337 398 338
f 338 398 339
f 339 397 396
f 339 396 399
f 339 399 400
f 339 400 401
f 339 401 402
f 339 402 340
f 339 398 397
f 340 402 403
f 340 403 404
f 340 404 405
f 340 405 406
f 340 406 407
f 340 407 408
f 340 408 341
f 341 408 343
f 341 343 342
f 343 408 344
f 344 408 345
f 345 409 410
f 345 410 346
f 345 408 409
f 346 411 412
f 346 412 413
f 346 413 348
f 346 348 347
f 346 410 411
f 349 386 350
f 351 414 352
f 352 415 387
f 352 414 416
f 352 416 417
f 352 417 418
f 352 418 415
f 353 355 419
f 353 419 420
f 353 420 354
f 354 421 422
f 354 422 356
f 354 420 423
f 354 423 424
f 354 424 425
f 354 425 426
f 354 426 427
f 354 427 428
f 354 428 429
f 354 429 421
f 356 422 430
f 356 430 431
f 356 431 357
f 357 431 432
f 358 363 433
f 358 433 434
f 358 434 435
f 358 435 436
f 358 436 359
f 359 436 437
f 359 437 438
f 359 438 360
f 360 439 366
f 360 438 439
f 361 440 362
f 362 440 441
f 362 441 442
f 362 442 443
f 362 443 444
f 362 444 433
f 362 433 363
f 364 367 365
f 366 439 438
f 366 438 445
f 366 445 446
f 366 446 368
f 368 446 369
f 369 446 371
f 371 445 447
f 371 447 448
f 371 448 449
f 371 449 450
f 371 450 451
f 371 451 372
f 371 446 445
f 372 451 373
f 373 451 450
f 373 450 449
f 373 449 452
f 373 452 453
f 373 453 454
f 373 454 455
f 373 455 456
f 373 456 375
f 375 456 376
f 376 456 377
f 377 456 380
f 379 457 382
f 380 456 381
f 381 456 458
f 382 457 385
f 382 385 384
f 387 415 418
f 387 418 388
f 388 418 389
f 389 391 390
f 389 418 417
f 389 417 391
f 391 417 459
f 391 459 392
f 392 459 460
f 392 460 461
f 392 461 462
f 392 462 393
f 393 462 463
f 393 463 394
f 394 463 464
f 394 464 395
f 395 464 465
f 395 465 466
f 395 466 467
f 395 467 468
f 395 468 469
f 395 469 470
f 395 470 396
f 396 470 399
f 399 471 400
f 399 470 469
f 399 469 472
f 399 472 473
f 399 473 471
f 400 471 474
f 400 474 401
f 401 475 476
f 401 476 477
f 401 477 478
f 401 478 404
f 401 404 403
f 401 403 402
f 401 474 475
f 404 478 405
f 405 478 479
f 405 479 480
f 405 480 481
f 405 481 482
f 405 482 483
f 405 483 407
f 405 407 406
f 407 483 408
f 408 483 482
f 408 482 484
f 408 484 485
f 408 485 409
f 409 485 486
f 409 486 410
f 410 486 487
f 410 487 488
f 410 488 489
f 410 489 411
f 411 489 490
f 411 490 412
f 416 491 417
f 417 491 492
f 417 492 460
f 417 460 459
f 420 493 488
f 420 488 423
f 421 431 422
f 421 429 494
f 421 494 431
f 422 431 430
f 423 488 424
f 424 488 487
f 424 487 425
f 425 487 495
f 425 495 426
f 426 495 496
f 426 496 497
f 426 497 498
f 426 498 427
f 427 499 500
f 427 500 501
f 427 501 502
f 427 502 503
f 427 503 428
f 427 498 504
f 427 504 505
f 427 505 506
f 427 506 507
f 427 507 508
f 427 508 509
f 427 509 510
f 427 510 511
f 427 511 499
f 428 503 502
f 428 502 512
f 428 512 513
f 428 513 429
f 429 513 494
f 431 514 432
f 431 494 515
f 431 515 516
f 431 516 517
f 431 517 514
f 432 514 518
f 433 444 529
f 433 529 519
f 433 519 520
f 433 520 434
f 434 520 521
f 434 521 522
f 434 522 435
f 435 522 523
f 435 523 437
f 435 437 436
f 437 523 530
f 437 530 524
f 437 524 438
f 438 524 445
f 443 525 444
f 444 525 526
f 444 526 527
f 444 527 528
f 444 528 529
f 445 524 447
f 447 524 530
f 447 530 531
f 447 531 532
f 447 532 448
f 448 532 533
f 448 533 534
f 448 534 449
f 449 534 535
f 449 535 536
f 449 536 452
f 452 536 537
f 452 537 453
f 453 537 454
f 454 537 455
f 455 537 538
f 455 538 539
f 455 539 456
f 456 539 540
f 456 540 541
f 456 541 458
f 460 492 461
f 464 542 465
f 465 542 543
f 465 543 466
f 466 543 544
f 466 544 467
f 467 544 545
f 467 545 546
f 467 546 547
f 467 547 548
f 467 548 549
f 467 549 468
f 468 549 550
f 468 550 469
f 469 550 472
f 471 473 474
f 472 550 551
f 472 551 473
f 473 551 552
f 473 552 553
f 473 553 554
f 473 554 555
f 473 555 556
f 473 556 474
f 474 556 475
f 475 556 557
f 475 557 558
f 475 558 476
f 476 504 477
f 476 558 507
f 476 507 506
f 476 506 505
f 476 505 504
f 477 504 498
f 477 498 497
f 477 497 559
f 477 559 479
f 477 479 478
f 479 559 560
f 479 560 480
f 480 560 561
f 480 561 562
f 480 562 481
f 481 562 561
f 481 561 482
f 482 561 484
f 484 561 487
f 484 487 485
f 485 487 486
f 487 561 495
f 488 493 563
f 488 563 564
f 488 564 490
f 488 490 489
f 494 513 515
f 495 565 497
f 495 497 496
f 495 561 565
f 497 565 560
f 497 560 559
f 499 511 566
f 501 567 502
f 502 567 512
f 507 558 568
f 507 568 569
f 507 569 509
f 507 509 508
f 509 569 570
f 509 570 510
f 510 570 571
f 510 571 511
f 511 571 572
f 511 572 566
f 512 573 513
f 513 574 515
f 513 573 574
f 514 575 518
f 514 517 575
f 515 574 516
f 516 574 573
f 519 529 576
f 519 576 520
f 520 576 577
f 520 577 578
f 520 578 579
f 520 579 521
f 521 579 580
f 521 580 523
f 521 523 522
f 523 580 530
f 527 581 576
f 527 576 528
f 528 576 529
f 530 580 533
f 530 533 532
f 530 532 531
f 533 580 582
f 533 582 583
f 533 583 584
f 533 584 585
f 533 585 586
f 533 586 534
f 534 587 588
f 534 588 535
f 534 586 587
f 535 588 536
f 536 588 587
f 536 587 589
f 536 589 537
f 537 589 590
f 537 590 591
f 537 591 592
f 537 592 593
f 537 593 538
f 538 594 595
f 538 595 540
f 538 540 539
f 538 593 596
f 538 596 597
f 538 597 598
f 538 598 594
f 546 599 547
f 547 599 600
f 547 600 548
f 548 600 549
f 549 600 550
f 550 600 551
f 551 600 552
f 552 600 601
f 552 601 603
f 552 603 553
f 553 602 554
f 553 603 583
f 553 583 602
f 554 602 604
f 554 604 558
f 554 558 555
f 555 558 557
f 555 557 556
f 558 604 568
f 560 565 561
f 566 572 605
f 568 604 606
f 568 606 569
f 569 606 607
f 569 607 570
f 570 607 608
f 570 608 609
f 570 609 571
f 571 609 610
f 571 610 572
f 572 610 611
f 572 611 605
f 576 612 628
f 576 628 613
f 576 613 607
f 576 607 577
f 576 581 612
f 577 607 578
f 578 607 606
f 578 606 614
f 578 614 580
f 578 580 579
f 580 614 583
f 580 583 582
f 581 615 612
f 583 614 604
f 583 604 602
f 583 603 584
f 584 603 585
f 585 603 601
f 585 601 586
f 586 601 600
f 586 600 587
f 587 600 589
f 589 600 590
f 590 600 616
f 590 616 591
f 591 616 600
f 591 600 617
f 591 617 618
f 591 618 592
f 592 618 593
f 593 618 597
f 593 597 596
f 597 618 619
f 597 619 620
f 597 620 598
f 599 621 622
f 599 622 600
f 600 622 617
f 604 614 606
f 607 613 623
f 607 623 608
f 608 623 624
f 608 624 625
f 608 625 609
f 609 626 610
f 610 626 627
f 610 627 611
f 612 615 628
f 613 628 623
f 615 625 624
f 615 624 628
f 617 622 618
f 618 622 619
f 619 622 620
f 620 622 621
f 623 628 624
