v 0.223376 -0.432505 -0.0164198
v 0.237447 -0.432584 -0.0164198
v 0.228819 -0.432584 -0.00927169
v 0.278021 -0.432584 0.105276
v 0.373358 -0.0293335 0.105276
v 0.336374 -0.0293335 -0.0164198
v 0.334306 -0.432584 -0.0164198
v 0.371433 -0.432584 0.105276
v 0.466177 -0.0293335 0.105276
v 0.435942 -0.0293335 -0.0164198
v 0.339297 -0.418886 -0.0164198
v 0.338204 -0.432584 -0.00702005
v 0.366917 -0.432584 0.0709775
v 0.375284 -0.421254 0.105276
v 0.460377 -0.0665991 0.105276
v 0.452866 -0.0849556 0.0698933
v 0.463728 -0.0293335 0.0866794
v 0.439627 -0.0293335 -0.00755615
v 0.434897 -0.0356892 -0.0164198
v 0.364279 -0.419675 0.044601
v 0.344122 -0.432584 0.00726421
v 0.343837 -0.406332 -0.0164198
v 0.360452 -0.410754 0.0275529
v 0.364065 -0.432584 0.0573604
v 0.368961 -0.419202 0.0580394
v 0.372645 -0.40874 0.0580394
v 0.373644 -0.411504 0.067737
v 0.374713 -0.414622 0.083844
v 0.380299 -0.406332 0.105276
v 0.457691 -0.0838503 0.105276
v 0.452676 -0.0974696 0.0832603
v 0.450085 -0.0827844 0.0462094
v 0.450964 -0.0740996 0.0426234
v 0.459569 -0.0293335 0.0550849
v 0.450917 -0.0974696 0.0698933
v 0.449467 -0.096759 0.0580394
v 0.452462 -0.0293335 0.0234308
v 0.43908 -0.0804158 0.011696
v 0.425484 -0.102049 -0.0124169
v 0.424605 -0.0973512 -0.0164198
v 0.362448 -0.42915 0.0485325
v 0.359715 -0.432584 0.0449465
v 0.370221 -0.405148 0.0463285
v 0.374143 -0.400056 0.0514155
v 0.347189 -0.396424 -0.0164198
v 0.348044 -0.399108 -0.0123335
v 0.363851 -0.406411 0.0320204
v 0.363803 -0.432584 0.0565503
v 0.37488 -0.402306 0.0580394
v 0.379824 -0.393424 0.0709417
v 0.375688 -0.406846 0.071597
v 0.377494 -0.406332 0.083844
v 0.379182 -0.406332 0.0967344
v 0.381678 -0.40195 0.105276
v 0.45636 -0.0923772 0.105276
v 0.451321 -0.102207 0.0785783
v 0.447756 -0.096759 0.0451371
v 0.45163 -0.0654938 0.0382273
v 0.458238 -0.0293335 0.0451371
v 0.457786 -0.0322547 0.0451371
v 0.45579 -0.0451635 0.0451371
v 0.455409 -0.0293335 0.0322587
v 0.451606 -0.0395184 0.0254799
v 0.440387 -0.096759 0.0214412
v 0.439223 -0.109668 0.0242171
v 0.43656 -0.109668 0.01776
v 0.424771 -0.109668 -0.0107132
v 0.422394 -0.109668 -0.0164198
v 0.424296 -0.0990881 -0.0164198
v 0.386788 -0.360579 0.0527141
v 0.372527 -0.393424 0.0424447
v 0.375189 -0.393424 0.0488899
v 0.385314 -0.355645 0.0447321
v 0.388071 -0.352013 0.0487708
v 0.347878 -0.394253 -0.0164198
v 0.377637 -0.393424 0.0580394
v 0.383223 -0.393424 0.0967344
v 0.387454 -0.36279 0.0613037
v 0.401263 -0.314313 0.0580394
v 0.394917 -0.341828 0.0709417
v 0.384482 -0.392871 0.105276
v 0.455671 -0.096759 0.105276
v 0.454554 -0.096759 0.0967344
v 0.451891 -0.105562 0.0871679
v 0.445616 -0.109668 0.0451371
v 0.438509 -0.141644 0.0390851
v 0.439389 -0.133038 0.0365714
v 0.442336 -0.109668 0.0322587
v 0.444547 -0.096759 0.0322587
v 0.450893 -0.0481242 0.0275171
v 0.45762 -0.0293335 0.0421945
v 0.438605 -0.11626 0.0257182
v 0.421776 -0.112747 -0.0164198
v 0.400503 -0.311747 0.0496881
v 0.388975 -0.355645 0.0574199
v 0.37507 -0.377238 0.0363093
v 0.387715 -0.337723 0.0369168
v 0.392588 -0.316011 0.0322587
v 0.399005 -0.306497 0.0410985
v 0.39765 -0.31605 0.045292
v 0.36347 -0.344591 -0.0164198
v 0.364065 -0.355092 -0.00703196
v 0.389331 -0.37637 0.105276
v 0.387667 -0.382054 0.105276
v 0.403117 -0.329235 0.105276
v 0.404306 -0.303102 0.0580394
v 0.406017 -0.303102 0.0709417
v 0.410652 -0.302707 0.105276
v 0.406968 -0.316011 0.105276
v 0.405851 -0.316011 0.0967344
v 0.454268 -0.105286 0.105276
v 0.447328 -0.109668 0.0580394
v 0.453531 -0.109707 0.105276
v 0.451131 -0.114168 0.0929221
v 0.450632 -0.109786 0.0832603
v 0.443192 -0.122577 0.0451371
v 0.429382 -0.19995 0.0580394
v 0.426197 -0.208635 0.0489495
v 0.425318 -0.204766 0.0403598
v 0.426221 -0.19616 0.0373338
v 0.436917 -0.136591 0.0322706
v 0.440102 -0.121353 0.0322706
v 0.424557 -0.187081 0.0285178
v 0.435396 -0.121353 0.0205954
v 0.42382 -0.123445 -0.0062695
v 0.419756 -0.122774 -0.0164198
v 0.426435 -0.119695 -0.00186151
v 0.401501 -0.302549 0.045292
v 0.412221 -0.255849 0.0406577
v 0.413409 -0.260507 0.0492473
v 0.41234 -0.269113 0.0548466
v 0.407586 -0.290232 0.0580394
v 0.379158 -0.341828 0.0193564
v 0.384554 -0.341946 0.0324731
v 0.388452 -0.316011 0.0222514
v 0.386835 -0.309142 0.013209
v 0.39689 -0.302549 0.0330569
v 0.400217 -0.297891 0.0378938
v 0.373216 -0.313484 -0.0164198
v 0.37469 -0.31151 -0.0143707
v 0.412482 -0.295522 0.105276
v 0.451939 -0.118432 0.105276
v 0.444903 -0.122577 0.0580394
v 0.438248 -0.153171 0.0540842
v 0.434564 -0.174172 0.0580394
v 0.431973 -0.187081 0.0580394
v 0.431094 -0.19995 0.0709417
v 0.428265 -0.212859 0.0709417
v 0.426672 -0.212898 0.0590283
v 0.424296 -0.212898 0.0448512
v 0.425175 -0.217241 0.0553827
v 0.420279 -0.212859 0.0322587
v 0.413338 -0.247243 0.0373219
v 0.42344 -0.200266 0.0327233
v 0.407301 -0.19995 -0.0064482
v 0.410343 -0.187041 -0.00580487
v 0.411912 -0.15929 -0.0164198
v 0.42546 -0.153802 0.0134354
v 0.416975 -0.135722 -0.0164198
v 0.416975 -0.277324 0.105276
v 0.411936 -0.293233 0.0967344
v 0.425745 -0.21957 0.0639843
v 0.426863 -0.226005 0.0844873
v 0.385338 -0.304128 0.006192
v 0.374262 -0.31005 -0.0164198
v 0.37652 -0.302154 -0.0164198
v 0.386265 -0.293983 0.00171253
v 0.384245 -0.289917 -0.00576913
v 0.388476 -0.277324 -0.00360088
v 0.398554 -0.290232 0.0289825
v 0.397864 -0.277916 0.0194517
v 0.411817 -0.238637 0.0281128
v 0.416143 -0.226873 0.0310673
v 0.414479 -0.238637 0.0345699
v 0.41398 -0.289482 0.105276
v 0.451511 -0.120603 0.105276
v 0.446829 -0.144012 0.105276
v 0.433684 -0.187081 0.0709417
v 0.438818 -0.156013 0.0626857
v 0.434492 -0.19995 0.0967344
v 0.431664 -0.212859 0.0967344
v 0.412054 -0.21653 0.0146387
v 0.41001 -0.212464 0.00719273
v 0.413148 -0.207924 0.0119819
v 0.403236 -0.199555 -0.0164198
v 0.405304 -0.189963 -0.0164198
v 0.426197 -0.239821 0.105276
v 0.430713 -0.221386 0.105276
v 0.428526 -0.225768 0.0967344
v 0.379752 -0.290154 -0.0164198
v 0.383151 -0.277324 -0.0164198
v 0.385813 -0.267257 -0.0164198
v 0.388214 -0.258178 -0.0164198
v 0.398768 -0.227978 -0.0102009
v 0.406255 -0.225768 0.00645409
v 0.413837 -0.22332 0.0232402
v 0.438605 -0.185068 0.105276
v 0.43656 -0.195252 0.105276
v 0.43561 -0.19995 0.105276
v 0.432781 -0.212859 0.105276
v 0.399885 -0.219372 -0.012941
v 0.404258 -0.212859 -0.0064482
v 0.400479 -0.211359 -0.0164198
v 0.402499 -0.202713 -0.0164198
v 0.400122 -0.212859 -0.0164198
v 0.429644 -0.225768 0.105276
v 0.397104 -0.224504 -0.0164198
f 1 2 3
f 1 3 4
f 1 4 5
f 1 5 6
f 1 6 10
f 1 10 19
f 1 19 40
f 1 40 69
f 1 69 68
f 1 68 93
f 1 93 126
f 1 126 159
f 1 159 157
f 1 157 186
f 1 186 185
f 1 185 204
f 1 204 203
f 1 203 205
f 1 205 207
f 1 207 193
f 1 193 192
f 1 192 191
f 1 191 190
f 1 190 166
f 1 166 165
f 1 165 139
f 1 139 101
f 1 101 75
f 1 75 45
f 1 45 22
f 1 22 11
f 1 11 7
f 1 7 2
f 2 7 12
f 2 12 21
f 2 21 42
f 2 42 48
f 2 48 24
f 2 24 13
f 2 13 8
f 2 8 4
f 2 4 3
f 4 8 14
f 4 14 29
f 4 29 54
f 4 54 81
f 4 81 104
f 4 104 103
f 4 103 105
f 4 105 109
f 4 109 108
f 4 108 141
f 4 141 175
f 4 175 160
f 4 160 187
f 4 187 206
f 4 206 188
f 4 188 200
f 4 200 199
f 4 199 198
f 4 198 197
f 4 197 177
f 4 177 176
f 4 176 142
f 4 142 113
f 4 113 111
f 4 111 82
f 4 82 55
f 4 55 30
f 4 30 15
f 4 15 9
f 4 9 5
f 5 9 17
f 5 17 34
f 5 34 59
f 5 59 91
f 5 91 62
f 5 62 37
f 5 37 18
f 5 18 10
f 5 10 6
f 7 11 12
f 8 13 14
f 9 15 16
f 9 16 17
f 10 18 19
f 11 20 21
f 11 21 12
f 11 22 23
f 11 23 20
f 13 24 25
f 13 25 26
f 13 26 27
f 13 27 28
f 13 28 14
f 14 28 29
f 15 30 31
f 15 31 16
f 16 32 33
f 16 33 34
f 16 34 17
f 16 31 35
f 16 35 36
f 16 36 32
f 18 37 19
f 19 37 38
f 19 38 39
f 19 39 40
f 20 41 42
f 20 42 21
f 20 23 43
f 20 43 44
f 20 44 41
f 22 45 46
f 22 46 44
f 22 44 47
f 22 47 23
f 23 47 43
f 24 48 44
f 24 44 25
f 25 44 26
f 26 44 49
f 26 49 27
f 27 49 50
f 27 50 51
f 27 51 52
f 27 52 28
f 28 52 53
f 28 53 29
f 29 53 54
f 30 55 31
f 31 56 35
f 31 55 56
f 32 36 57
f 32 57 33
f 33 57 58
f 33 58 59
f 33 59 60
f 33 60 61
f 33 61 34
f 34 61 60
f 34 60 59
f 35 56 36
f 36 56 57
f 37 62 63
f 37 63 64
f 37 64 38
f 38 64 39
f 39 64 65
f 39 65 66
f 39 66 67
f 39 67 68
f 39 68 69
f 39 69 40
f 41 48 42
f 41 44 48
f 43 47 44
f 44 70 49
f 44 46 71
f 44 71 72
f 44 72 73
f 44 73 74
f 44 74 70
f 45 75 46
f 46 75 71
f 49 70 76
f 49 76 50
f 50 77 52
f 50 52 51
f 50 76 70
f 50 70 78
f 50 78 79
f 50 79 80
f 50 80 77
f 52 54 53
f 52 77 54
f 54 77 81
f 55 82 83
f 55 83 56
f 56 84 85
f 56 85 57
f 56 83 82
f 56 82 84
f 57 85 58
f 58 85 86
f 58 86 87
f 58 87 88
f 58 88 89
f 58 89 90
f 58 90 63
f 58 63 62
f 58 62 91
f 58 91 59
f 63 90 89
f 63 89 64
f 64 89 88
f 64 88 65
f 65 88 92
f 65 92 66
f 66 92 67
f 67 92 93
f 67 93 68
f 70 74 94
f 70 94 79
f 70 79 95
f 70 95 78
f 71 75 96
f 71 96 72
f 72 96 97
f 72 97 73
f 73 97 98
f 73 98 74
f 74 98 99
f 74 99 100
f 74 100 94
f 75 101 102
f 75 102 96
f 77 103 104
f 77 104 81
f 77 80 105
f 77 105 103
f 78 95 79
f 79 94 106
f 79 106 107
f 79 107 108
f 79 108 109
f 79 109 110
f 79 110 105
f 79 105 80
f 82 111 84
f 84 112 85
f 84 111 113
f 84 113 114
f 84 114 115
f 84 115 112
f 85 112 114
f 85 114 116
f 85 116 86
f 86 117 118
f 86 118 119
f 86 119 120
f 86 120 87
f 86 116 117
f 87 120 121
f 87 121 92
f 87 92 122
f 87 122 88
f 88 122 92
f 92 121 120
f 92 120 123
f 92 123 124
f 92 124 125
f 92 125 126
f 92 126 127
f 92 127 93
f 93 127 126
f 94 100 99
f 94 99 128
f 94 128 129
f 94 129 119
f 94 119 130
f 94 130 131
f 94 131 132
f 94 132 106
f 96 102 133
f 96 133 134
f 96 134 97
f 97 134 135
f 97 135 98
f 98 135 136
f 98 136 137
f 98 137 99
f 99 137 138
f 99 138 128
f 101 139 140
f 101 140 135
f 101 135 133
f 101 133 102
f 105 110 109
f 106 132 107
f 107 132 141
f 107 141 108
f 112 115 114
f 113 142 114
f 114 142 143
f 114 143 116
f 116 143 144
f 116 144 145
f 116 145 146
f 116 146 117
f 117 146 178
f 117 178 147
f 117 147 148
f 117 148 149
f 117 149 118
f 118 150 119
f 118 149 151
f 118 151 131
f 118 131 130
f 118 130 150
f 119 152 120
f 119 150 130
f 119 129 153
f 119 153 152
f 120 152 154
f 120 154 123
f 123 154 155
f 123 155 156
f 123 156 157
f 123 157 158
f 123 158 124
f 124 158 125
f 125 158 157
f 125 157 159
f 125 159 126
f 128 138 129
f 129 138 153
f 131 151 132
f 132 160 161
f 132 161 141
f 132 151 162
f 132 162 163
f 132 163 160
f 133 135 134
f 135 140 136
f 136 164 138
f 136 138 137
f 136 140 165
f 136 165 166
f 136 166 164
f 138 164 166
f 138 166 167
f 138 167 168
f 138 168 169
f 138 169 170
f 138 170 171
f 138 171 172
f 138 172 173
f 138 173 174
f 138 174 153
f 139 165 140
f 141 161 175
f 142 176 143
f 143 176 177
f 143 177 178
f 143 178 179
f 143 179 145
f 143 145 144
f 145 179 178
f 145 178 146
f 147 180 181
f 147 181 148
f 147 178 180
f 148 181 151
f 148 151 149
f 151 181 162
f 152 173 182
f 152 182 183
f 152 183 184
f 152 184 154
f 152 153 173
f 153 174 173
f 154 184 155
f 155 185 186
f 155 186 157
f 155 157 156
f 155 184 185
f 160 175 161
f 160 163 187
f 162 181 188
f 162 188 189
f 162 189 163
f 163 189 187
f 166 190 167
f 167 190 168
f 168 190 191
f 168 191 169
f 169 171 170
f 169 191 192
f 169 192 193
f 169 193 194
f 169 194 195
f 169 195 171
f 171 195 172
f 172 195 173
f 173 195 196
f 173 196 182
f 177 197 178
f 178 198 180
f 178 197 198
f 180 198 199
f 180 199 200
f 180 200 181
f 181 200 188
f 182 196 195
f 182 195 201
f 182 201 202
f 182 202 183
f 183 202 184
f 184 203 204
f 184 204 185
f 184 202 205
f 184 205 203
f 187 189 206
f 188 206 189
f 193 207 194
f 194 207 195
f 195 207 201
f 201 207 205
f 201 205 202
