v 0.154178 -0.367075 0.418597
v 0.199495 -0.367075 0.38495
v 0.154178 -0.367075 0.520245
v 0.154178 0.135841 0.518692
v 0.320943 0.135841 0.384996
v 0.322786 -0.367075 0.38495
v 0.320943 0.135398 0.38495
v 0.155696 -0.367075 0.519628
v 0.154178 -0.340393 0.528622
v 0.154178 0.135841 0.618149
v 0.394013 0.135841 0.38495
v 0.322786 -0.362005 0.387393
v 0.310454 -0.367075 0.401043
v 0.333817 -0.336898 0.38495
v 0.187678 -0.367075 0.506389
v 0.18326 -0.338867 0.517072
v 0.170792 -0.313613 0.530151
v 0.154178 -0.31637 0.536155
v 0.210173 0.135398 0.594934
v 0.188193 0.135841 0.604064
v 0.154178 0.125454 0.617395
v 0.171877 0.0967046 0.607991
v 0.431063 0.135841 0.38495
v 0.286739 -0.367075 0.431973
v 0.337666 -0.326363 0.38495
v 0.336094 -0.324443 0.387918
v 0.332679 -0.316025 0.396386
v 0.291889 -0.354374 0.431311
v 0.194264 -0.367075 0.503513
v 0.206758 -0.310315 0.516204
v 0.19963 -0.315188 0.517711
v 0.179384 -0.307755 0.528371
v 0.154178 -0.309773 0.538118
v 0.214374 0.109602 0.591327
v 0.225757 0.135398 0.588474
v 0.226164 0.135841 0.588337
v 0.154178 0.101627 0.61566
v 0.154178 0.0967046 0.615295
v 0.20627 0.0909941 0.593313
v 0.225757 0.0967046 0.585666
v 0.428678 0.102907 0.38495
v 0.428109 0.135841 0.392072
v 0.427458 0.1225 0.391319
v 0.426998 0.109602 0.390178
v 0.282457 -0.367075 0.437201
v 0.283812 -0.361168 0.438593
v 0.341271 -0.316419 0.38495
v 0.305522 -0.31637 0.431631
v 0.337612 -0.316025 0.389926
v 0.322461 -0.309527 0.412776
v 0.198573 -0.367075 0.501002
v 0.20749 -0.260004 0.529398
v 0.204942 -0.268569 0.528257
v 0.202178 -0.277332 0.527115
v 0.199955 -0.303128 0.521135
v 0.206379 -0.348221 0.503056
v 0.210986 -0.328923 0.50648
v 0.221123 -0.313367 0.504471
v 0.214808 -0.303128 0.512666
v 0.217572 -0.29023 0.514698
v 0.220337 -0.234749 0.529603
v 0.218385 -0.243364 0.528348
v 0.217193 -0.199896 0.540811
v 0.21264 -0.213286 0.539465
v 0.154178 -0.298008 0.541519
v 0.154178 -0.303128 0.540081
v 0.236301 0.109602 0.582196
v 0.239743 0.135841 0.582653
v 0.154178 0.090108 0.614702
v 0.235189 0.0967046 0.581717
v 0.154178 0.0838068 0.614108
v 0.161252 0.0838068 0.611186
v 0.170413 0.0838068 0.607397
v 0.176864 0.0838068 0.604726
v 0.225757 0.0838068 0.584479
v 0.23378 0.0838068 0.581124
v 0.428217 0.0967046 0.38495
v 0.42651 0.0967046 0.389059
v 0.42529 0.135841 0.39876
v 0.425209 0.135398 0.398897
v 0.277226 -0.367075 0.441675
v 0.286279 -0.316025 0.453453
v 0.284463 -0.323902 0.452015
v 0.298475 -0.316025 0.440944
v 0.296767 -0.296925 0.451582
v 0.345905 -0.303078 0.38495
v 0.334359 -0.306475 0.398578
v 0.310563 -0.312284 0.426974
v 0.307148 -0.303128 0.435443
v 0.299938 -0.301995 0.445304
v 0.200064 -0.367075 0.500111
v 0.205539 -0.217864 0.541405
v 0.174153 -0.238638 0.548938
v 0.164017 -0.238638 0.553138
v 0.198736 -0.289048 0.525449
v 0.203045 -0.225691 0.540378
v 0.190876 -0.292543 0.527777
v 0.182284 -0.29914 0.529558
v 0.225568 -0.31701 0.499769
v 0.210309 -0.367075 0.493149
v 0.210742 -0.367075 0.49283
v 0.218548 -0.359543 0.489611
v 0.258118 -0.309823 0.477399
v 0.243916 -0.30677 0.489291
v 0.223399 -0.303128 0.506206
v 0.226652 -0.290525 0.50769
v 0.219063 -0.283141 0.51577
v 0.22508 -0.238885 0.524764
v 0.228603 -0.225691 0.526111
v 0.230663 -0.215304 0.527686
v 0.232343 -0.206689 0.528964
v 0.222153 -0.225691 0.530905
v 0.219009 -0.192905 0.541633
v 0.210742 -0.199896 0.543573
v 0.208195 -0.209249 0.542501
v 0.154693 -0.296482 0.541725
v 0.154178 -0.295989 0.542067
v 0.244648 0.131558 0.580256
v 0.239851 0.135841 0.582607
v 0.24164 0.0967046 0.578772
v 0.168922 0.0731243 0.606781
v 0.154178 0.0704167 0.612556
v 0.232696 0.0756841 0.580667
v 0.24023 0.0838068 0.578088
v 0.427702 0.0906988 0.38495
v 0.423637 0.0967046 0.395496
v 0.426076 0.0866128 0.387986
v 0.424694 0.1225 0.397756
v 0.425209 0.135841 0.39892
v 0.42033 0.135841 0.406019
v 0.417186 0.0967046 0.405928
v 0.416536 0.0838068 0.405015
v 0.267767 -0.367075 0.449093
v 0.28243 -0.332517 0.450417
v 0.27232 -0.312579 0.465483
v 0.276928 -0.316518 0.46053
v 0.290561 -0.301995 0.454891
v 0.280858 -0.303128 0.462128
v 0.273784 -0.341821 0.453704
v 0.296496 -0.257493 0.46425
v 0.289368 -0.289934 0.459662
v 0.335769 -0.29786 0.400404
v 0.308666 -0.293676 0.437406
v 0.304763 -0.289737 0.444072
v 0.31349 -0.225248 0.458521
v 0.309994 -0.220621 0.464821
v 0.348941 -0.293528 0.38495
v 0.347667 -0.29466 0.386183
v 0.312108 -0.303128 0.428983
v 0.200714 -0.213286 0.544578
v 0.154178 -0.213483 0.563798
v 0.169356 -0.221852 0.555352
v 0.157566 -0.238638 0.555809
v 0.154178 -0.289344 0.543825
v 0.233292 -0.324739 0.491026
v 0.264217 -0.315484 0.470665
v 0.217003 -0.367075 0.488036
v 0.251885 -0.367075 0.461283
v 0.266005 -0.303128 0.473541
v 0.259555 -0.303128 0.478494
v 0.22985 -0.303128 0.501275
v 0.23153 -0.295005 0.502554
v 0.238008 -0.290525 0.499016
v 0.222803 -0.264434 0.518669
v 0.232831 -0.246613 0.516455
v 0.240881 -0.238638 0.512734
v 0.26381 -0.226036 0.499016
v 0.244865 -0.218652 0.515793
v 0.265111 -0.238294 0.494268
v 0.246545 -0.210086 0.517072
v 0.225757 -0.199896 0.535333
v 0.22611 -0.211711 0.532023
v 0.283541 -0.205606 0.489999
v 0.233455 -0.199896 0.529832
v 0.232343 -0.155197 0.541861
v 0.213968 -0.187983 0.544806
v 0.22527 -0.187983 0.538597
v 0.232181 -0.103113 0.554644
v 0.230799 -0.10966 0.553937
v 0.221502 -0.122509 0.555672
v 0.219741 -0.129893 0.554873
v 0.217572 -0.138508 0.553937
v 0.199955 -0.199896 0.548048
v 0.180604 -0.206345 0.554667
v 0.244973 0.135841 0.580416
v 0.250448 0.0838068 0.571628
v 0.252617 0.0974923 0.571422
v 0.162526 0.0696783 0.609018
v 0.173611 0.0696783 0.60443
v 0.231449 0.0670692 0.580165
v 0.154178 0.0514146 0.610296
v 0.225757 0.00641995 0.57528
v 0.235298 -0.00647786 0.569299
v 0.246979 0.0451134 0.56898
v 0.24931 0.070909 0.57076
v 0.24519 0.0253728 0.56761
v 0.427133 0.0847914 0.38495
v 0.415696 0.070909 0.403896
v 0.413988 0.0451134 0.401545
v 0.413283 0.0347262 0.400609
v 0.412714 0.0261605 0.39981
v 0.421658 0.070909 0.393442
v 0.423474 0.0829207 0.392757
v 0.425588 0.0779979 0.386822
v 0.420113 0.135841 0.406316
v 0.412443 0.0967046 0.412365
v 0.41434 0.135841 0.414214
v 0.412741 0.103547 0.412753
v 0.411766 0.0838068 0.411475
v 0.282755 -0.29402 0.463588
v 0.291889 -0.238638 0.473609
v 0.288691 -0.264434 0.468131
v 0.284463 -0.285455 0.464912
v 0.303733 -0.225248 0.468451
v 0.296063 -0.217667 0.476805
v 0.332001 -0.29023 0.408393
v 0.313165 -0.264434 0.443273
v 0.348995 -0.221605 0.413712
v 0.321892 -0.217323 0.450737
v 0.318233 -0.212941 0.457197
v 0.323572 -0.238638 0.440031
v 0.319371 -0.199896 0.460347
v 0.311159 -0.212794 0.466008
v 0.305739 -0.199896 0.474271
v 0.302459 -0.213138 0.473153
v 0.353819 -0.277676 0.38495
v 0.357939 -0.264286 0.38495
v 0.359619 -0.258822 0.38495
v 0.361544 -0.246269 0.387484
v 0.173855 -0.211514 0.556151
v 0.154178 -0.225839 0.560579
v 0.154178 -0.202308 0.566469
v 0.245732 -0.298205 0.490684
v 0.278012 -0.289934 0.468496
v 0.273838 -0.264434 0.479544
v 0.267306 -0.212794 0.50034
v 0.297716 -0.209052 0.478106
v 0.228956 -0.1741 0.53951
v 0.2785 -0.200733 0.495089
v 0.299288 -0.199896 0.479316
v 0.309126 -0.17922 0.476942
v 0.286577 -0.186998 0.492327
v 0.27682 -0.188032 0.499563
v 0.243754 -0.176414 0.527823
v 0.235569 -0.135407 0.54435
v 0.160249 -0.199157 0.564665
v 0.2131 -0.134718 0.556608
v 0.192204 -0.126496 0.567039
v 0.227031 -0.0979932 0.557863
v 0.224375 -0.10966 0.556973
v 0.239119 -0.121327 0.545149
v 0.238658 -0.10966 0.548253
v 0.275817 -0.10966 0.519742
v 0.311945 -0.10966 0.492008
v 0.283379 -0.101587 0.515656
v 0.31368 -0.0967625 0.493355
v 0.269149 -0.0967625 0.527526
v 0.247846 -0.0967625 0.54387
v 0.238008 -0.0979932 0.551175
v 0.245976 -0.0451713 0.555329
v 0.249229 -0.0193757 0.55784
v 0.240068 -0.0193757 0.564277
v 0.233617 -0.0193757 0.568341
v 0.232506 -0.0268091 0.567724
v 0.230853 -0.0354241 0.566994
v 0.212856 -0.122509 0.559324
v 0.212856 -0.10966 0.561926
v 0.250231 0.135841 0.57649
v 0.256899 0.0838068 0.56672
v 0.257631 0.0936525 0.567268
v 0.259934 0.135398 0.569048
v 0.212856 0.0580112 0.586785
v 0.15659 0.0322156 0.607009
v 0.163041 0.0322156 0.604338
v 0.175373 0.00538615 0.596029
v 0.154178 0.0229606 0.606895
v 0.155371 0.0237975 0.606507
v 0.180468 0.000414093 0.593313
v 0.187054 -0.00647786 0.589729
v 0.225757 -0.00647786 0.573682
v 0.241748 -0.00647786 0.565373
v 0.243158 0.00641995 0.566309
v 0.255761 0.070909 0.565852
v 0.250665 -0.00647786 0.558936
v 0.252725 0.00573076 0.559096
v 0.250313 0.0203516 0.562999
v 0.426564 0.0798193 0.38495
v 0.410871 0.070909 0.410334
v 0.409082 0.0451134 0.408005
v 0.409082 0.0311325 0.405472
v 0.406779 0.0193178 0.406339
v 0.403987 -0.00647786 0.405243
v 0.412254 0.0193178 0.399012
v 0.414097 -0.00647786 0.389538
v 0.425182 0.070909 0.385818
v 0.407185 0.0967046 0.419236
v 0.414097 0.135841 0.414534
v 0.385259 0.109602 0.449253
v 0.40106 0.0967046 0.427225
v 0.36149 0.087942 0.477695
v 0.357099 0.0837084 0.482694
v 0.36092 0.079327 0.476965
v 0.399922 0.0770625 0.425742
v 0.403553 0.0720412 0.420103
v 0.280289 -0.264434 0.474591
v 0.357776 -0.238638 0.395451
v 0.360893 -0.218307 0.399514
v 0.366151 -0.213532 0.394515
v 0.374065 -0.206345 0.386982
v 0.323166 -0.208708 0.452403
v 0.335064 -0.205163 0.438205
v 0.324331 -0.199896 0.45391
v 0.320998 -0.186998 0.462447
v 0.321811 -0.139788 0.476623
v 0.307853 -0.186998 0.475938
v 0.368563 -0.229679 0.38495
v 0.362709 -0.238638 0.389013
v 0.154178 -0.198468 0.567313
v 0.310509 -0.170605 0.478015
v 0.310536 -0.119014 0.490935
v 0.309126 -0.127629 0.489862
v 0.32303 -0.131173 0.477855
v 0.289666 -0.149141 0.499427
v 0.265653 -0.136441 0.521021
v 0.245163 -0.116208 0.541793
v 0.154178 -0.161202 0.575326
v 0.18345 -0.135407 0.568751
v 0.174153 -0.122509 0.575371
v 0.158325 -0.122509 0.581922
v 0.194453 -0.117881 0.567952
v 0.211772 -0.0959749 0.564802
v 0.225757 -0.0838647 0.560853
v 0.291347 -0.110251 0.50769
v 0.318396 -0.10966 0.486986
v 0.32013 -0.0967625 0.488356
v 0.302378 -0.110251 0.499221
v 0.296334 -0.114928 0.502805
v 0.322542 -0.0777112 0.49025
v 0.31826 -0.0451713 0.49986
v 0.27831 -0.0322243 0.53305
v 0.270288 -0.0878522 0.528394
v 0.25717 -0.0741175 0.541131
v 0.265274 -0.0187849 0.545651
v 0.271209 -0.0141083 0.541998
v 0.225757 -0.0193757 0.57181
v 0.226245 -0.0315843 0.569573
v 0.214645 -0.0838647 0.565647
v 0.204996 -0.0997655 0.566994
v 0.187054 -0.10966 0.572632
v 0.166863 -0.114288 0.580119
v 0.260151 0.135841 0.568911
v 0.271101 0.0762749 0.554827
v 0.264461 0.0838068 0.560922
v 0.323003 0.0871051 0.516387
v 0.323654 0.0967046 0.516866
v 0.272646 0.0967046 0.556014
v 0.263214 0.0974923 0.563319
v 0.280533 0.1225 0.552156
v 0.289639 0.135398 0.546244
v 0.274814 0.135841 0.557658
v 0.154178 -0.00244115 0.603836
v 0.161252 0.00641995 0.601987
v 0.154178 0.00641995 0.604909
v 0.161252 -0.00647786 0.600412
v 0.206758 -0.0137637 0.580599
v 0.280804 0.0193178 0.539465
v 0.264461 -0.00647786 0.548367
v 0.25782 0.000955606 0.55453
v 0.28804 0.00641995 0.532114
v 0.425534 0.070909 0.38495
v 0.399624 0.00174326 0.412479
v 0.398594 0.0580112 0.42403
v 0.35989 -0.00647786 0.462721
v 0.348101 -0.0117453 0.477056
v 0.387102 -0.0135667 0.425856
v 0.402876 -0.0193757 0.403805
v 0.410438 -0.00647786 0.395998
v 0.411359 0.00641995 0.397528
v 0.413365 -0.0165697 0.388169
v 0.416129 -0.00647786 0.38495
v 0.424829 0.0650508 0.38495
v 0.409299 0.135841 0.420788
v 0.38076 0.135398 0.45795
v 0.356963 0.0967046 0.484703
v 0.350513 0.0967046 0.493104
v 0.349808 0.0838068 0.49219
v 0.348941 0.070909 0.491049
v 0.360351 0.070909 0.476212
v 0.37252 -0.216683 0.38495
v 0.369783 -0.225691 0.38495
v 0.375149 -0.19773 0.388397
v 0.340078 -0.200487 0.433206
v 0.373632 -0.212794 0.38495
v 0.375935 -0.204326 0.38495
v 0.386966 -0.154753 0.386982
v 0.322027 -0.178777 0.463794
v 0.33501 -0.166174 0.451011
v 0.33127 -0.122755 0.470048
v 0.316905 -0.135456 0.481736
v 0.315306 -0.123001 0.486164
v 0.326798 -0.135456 0.471715
v 0.332083 -0.10966 0.472993
v 0.324114 -0.122509 0.478974
v 0.154178 -0.122509 0.583634
v 0.325632 -0.10966 0.480526
v 0.335362 -0.0257754 0.490182
v 0.330213 -0.0206556 0.495272
v 0.32154 -0.0193757 0.502348
v 0.319886 -0.0322735 0.501116
v 0.315089 -0.0193757 0.507302
v 0.27625 -0.0187849 0.537228
v 0.32238 -0.0124837 0.50301
v 0.177162 -0.0193757 0.591943
v 0.194697 -0.0416761 0.580964
v 0.200416 -0.0959749 0.569528
v 0.161252 -0.0967625 0.585598
v 0.154178 -0.0969102 0.588497
v 0.168814 -0.105673 0.580918
v 0.162038 -0.109857 0.58295
v 0.154178 -0.109759 0.586214
v 0.154178 -0.117094 0.58473
v 0.290263 0.0451134 0.53579
v 0.289395 0.0569282 0.538095
v 0.335687 0.0626386 0.50333
v 0.328912 0.070909 0.509676
v 0.322271 0.0784902 0.515816
v 0.278202 0.0838068 0.550376
v 0.337503 0.0838068 0.504768
v 0.338398 0.0967046 0.505476
v 0.330077 0.0967046 0.511913
v 0.327963 0.0832161 0.512073
v 0.330809 0.109602 0.512461
v 0.325063 0.1225 0.517962
v 0.332218 0.135398 0.513556
v 0.317393 0.135841 0.52497
v 0.154178 -0.00647786 0.603334
v 0.154178 -0.0195234 0.601417
v 0.170711 -0.0193757 0.594614
v 0.32322 -0.00386877 0.503627
v 0.324169 0.00641995 0.504357
v 0.325334 0.0193178 0.50527
v 0.344388 -0.0070686 0.482809
v 0.391249 0.0451134 0.431266
v 0.383606 0.00641995 0.43421
v 0.336202 -0.0171604 0.491049
v 0.340322 -0.0206556 0.485023
v 0.347396 -0.0193757 0.476143
v 0.400626 -0.0426114 0.400883
v 0.401629 -0.0322735 0.402184
v 0.400464 -0.0938088 0.387895
v 0.41266 -0.0251846 0.386731
v 0.414449 -0.0183911 0.38495
v 0.415343 -0.012336 0.38495
v 0.399705 -0.102424 0.386662
v 0.37496 0.135841 0.465552
v 0.358617 0.135841 0.486849
v 0.344848 0.0967046 0.499541
v 0.352166 0.135841 0.495249
v 0.346935 0.135841 0.501686
v 0.346231 0.1225 0.500979
v 0.343954 0.0838068 0.49865
v 0.337097 -0.00647786 0.491939
v 0.348426 0.0634263 0.490387
v 0.34783 0.0548113 0.489611
v 0.345363 0.0193178 0.486392
v 0.379188 -0.162335 0.394674
v 0.358318 -0.122509 0.434872
v 0.385665 -0.165239 0.38495
v 0.390978 -0.122509 0.392255
v 0.386885 -0.115765 0.39981
v 0.384446 -0.135407 0.396592
v 0.324223 -0.161202 0.46667
v 0.336013 -0.118571 0.465209
v 0.347911 -0.114435 0.451011
v 0.344225 -0.109956 0.457106
v 0.34886 -0.105821 0.452244
v 0.338371 -0.0967625 0.468291
v 0.333411 -0.0967625 0.474728
v 0.328071 -0.00751165 0.49929
v 0.160114 -0.0700316 0.590551
v 0.154178 -0.0838647 0.590688
v 0.154178 -0.103851 0.587264
v 0.336419 0.070909 0.503901
v 0.334929 0.0540237 0.502714
v 0.340485 0.135841 0.507119
v 0.332489 0.135841 0.513374
v 0.154178 -0.0264153 0.600275
v 0.330619 0.00641995 0.499335
v 0.331785 0.0193178 0.500271
v 0.33295 0.0322156 0.501184
v 0.349402 0.00641995 0.478768
v 0.344442 0.00641995 0.485205
v 0.351028 -0.0838647 0.455074
v 0.360758 -0.101045 0.438045
v 0.344821 -0.0967625 0.459891
v 0.388918 -0.0967625 0.402413
v 0.397862 -0.0709669 0.397277
v 0.396154 -0.0975994 0.392689
v 0.411928 -0.0339472 0.38495
v 0.413663 -0.0234616 0.38495
v 0.400708 -0.10075 0.38495
v 0.387834 -0.107199 0.401043
v 0.391899 -0.110743 0.394674
v 0.398919 -0.109956 0.38495
v 0.379052 -0.123444 0.407526
v 0.376179 -0.10966 0.415538
v 0.154178 -0.0451713 0.597148
v 0.396615 -0.0838647 0.39561
f 1 2 6
f 1 6 13
f 1 13 24
f 1 24 45
f 1 45 81
f 1 81 133
f 1 133 158
f 1 158 157
f 1 157 101
f 1 101 100
f 1 100 91
f 1 91 51
f 1 51 29
f 1 29 15
f 1 15 8
f 1 8 3
f 1 3 9
f 1 9 18
f 1 18 33
f 1 33 66
f 1 66 65
f 1 65 117
f 1 117 154
f 1 154 231
f 1 231 151
f 1 151 232
f 1 232 318
f 1 318 326
f 1 326 404
f 1 404 421
f 1 421 420
f 1 420 482
f 1 482 417
f 1 417 481
f 1 481 507
f 1 507 487
f 1 487 437
f 1 437 436
f 1 436 361
f 1 361 363
f 1 363 276
f 1 276 191
f 1 191 122
f 1 122 71
f 1 71 69
f 1 69 38
f 1 38 37
f 1 37 21
f 1 21 10
f 1 10 4
f 1 4 5
f 1 5 2
f 2 5 7
f 2 7 11
f 2 11 23
f 2 23 41
f 2 41 77
f 2 77 125
f 2 125 197
f 2 197 287
f 2 287 370
f 2 370 381
f 2 381 380
f 2 380 453
f 2 453 452
f 2 452 500
f 2 500 499
f 2 499 501
f 2 501 504
f 2 504 468
f 2 468 394
f 2 394 393
f 2 393 389
f 2 389 390
f 2 390 316
f 2 316 228
f 2 228 227
f 2 227 226
f 2 226 147
f 2 147 86
f 2 86 47
f 2 47 25
f 2 25 14
f 2 14 6
f 3 8 9
f 4 10 20
f 4 20 36
f 4 36 68
f 4 68 119
f 4 119 185
f 4 185 268
f 4 268 351
f 4 351 360
f 4 360 435
f 4 435 486
f 4 486 485
f 4 485 459
f 4 459 458
f 4 458 456
f 4 456 455
f 4 455 382
f 4 382 297
f 4 297 207
f 4 207 205
f 4 205 130
f 4 130 129
f 4 129 79
f 4 79 42
f 4 42 23
f 4 23 11
f 4 11 5
f 5 11 7
f 6 12 13
f 6 14 12
f 8 15 16
f 8 16 17
f 8 17 18
f 8 18 9
f 10 19 20
f 10 21 22
f 10 22 19
f 12 24 13
f 12 14 25
f 12 25 26
f 12 26 27
f 12 27 28
f 12 28 24
f 15 29 30
f 15 30 31
f 15 31 16
f 16 31 17
f 17 31 32
f 17 32 18
f 18 32 33
f 19 34 35
f 19 35 36
f 19 36 20
f 19 22 34
f 21 37 22
f 22 38 39
f 22 39 40
f 22 40 34
f 22 37 38
f 23 42 43
f 23 43 44
f 23 44 41
f 24 28 46
f 24 46 45
f 25 47 27
f 25 27 26
f 27 48 28
f 27 47 49
f 27 49 50
f 27 50 48
f 28 48 46
f 29 51 30
f 30 52 53
f 30 53 54
f 30 54 55
f 30 55 32
f 30 32 31
f 30 51 56
f 30 56 57
f 30 57 58
f 30 58 59
f 30 59 60
f 30 60 61
f 30 61 62
f 30 62 63
f 30 63 64
f 30 64 52
f 32 55 65
f 32 65 66
f 32 66 33
f 34 40 35
f 35 40 36
f 36 67 68
f 36 40 67
f 38 69 39
f 39 70 40
f 39 69 71
f 39 71 72
f 39 72 73
f 39 73 74
f 39 74 75
f 39 75 76
f 39 76 70
f 40 70 67
f 41 44 78
f 41 78 77
f 42 79 80
f 42 80 43
f 43 80 44
f 44 80 78
f 45 46 81
f 46 82 83
f 46 83 81
f 46 48 84
f 46 84 85
f 46 85 82
f 47 86 87
f 47 87 50
f 47 50 49
f 48 50 88
f 48 88 84
f 50 87 89
f 50 89 90
f 50 90 88
f 51 91 56
f 52 64 92
f 52 92 53
f 53 92 54
f 54 93 94
f 54 94 95
f 54 95 55
f 54 92 96
f 54 96 93
f 55 95 97
f 55 97 98
f 55 98 65
f 56 99 58
f 56 58 57
f 56 91 100
f 56 100 101
f 56 101 102
f 56 102 99
f 58 99 103
f 58 103 104
f 58 104 105
f 58 105 59
f 59 105 60
f 60 105 106
f 60 106 107
f 60 107 61
f 61 107 108
f 61 108 109
f 61 109 110
f 61 110 111
f 61 111 112
f 61 112 113
f 61 113 63
f 61 63 62
f 63 113 114
f 63 114 115
f 63 115 64
f 64 115 92
f 65 98 116
f 65 116 117
f 67 118 119
f 67 119 68
f 67 70 118
f 70 76 120
f 70 120 118
f 71 121 72
f 71 122 121
f 72 121 73
f 73 121 74
f 74 121 75
f 75 121 123
f 75 123 76
f 76 124 120
f 76 123 124
f 77 78 125
f 78 126 127
f 78 127 125
f 78 80 128
f 78 128 126
f 79 129 80
f 80 129 130
f 80 130 131
f 80 131 132
f 80 132 128
f 81 83 134
f 81 134 133
f 82 135 136
f 82 136 83
f 82 85 137
f 82 137 138
f 82 138 135
f 83 136 139
f 83 139 133
f 83 133 134
f 84 88 90
f 84 90 85
f 85 140 141
f 85 141 137
f 85 90 89
f 85 89 142
f 85 142 143
f 85 143 144
f 85 144 145
f 85 145 146
f 85 146 140
f 86 147 148
f 86 148 142
f 86 142 87
f 87 142 149
f 87 149 89
f 89 149 142
f 92 115 150
f 92 150 151
f 92 151 152
f 92 152 96
f 93 96 152
f 93 152 94
f 94 153 154
f 94 154 95
f 94 152 153
f 95 154 116
f 95 116 97
f 97 116 98
f 99 155 156
f 99 156 103
f 99 102 155
f 101 157 102
f 102 157 158
f 102 158 155
f 103 156 136
f 103 136 135
f 103 135 138
f 103 138 159
f 103 159 160
f 103 160 161
f 103 161 104
f 104 161 105
f 105 161 162
f 105 162 106
f 106 163 107
f 106 162 163
f 107 163 164
f 107 164 108
f 108 164 165
f 108 165 166
f 108 166 109
f 109 167 168
f 109 168 110
f 109 166 169
f 109 169 167
f 110 168 170
f 110 170 111
f 111 171 172
f 111 172 112
f 111 170 173
f 111 173 174
f 111 174 175
f 111 175 171
f 112 172 113
f 113 176 114
f 113 172 171
f 113 171 177
f 113 177 175
f 113 175 178
f 113 178 179
f 113 179 180
f 113 180 181
f 113 181 182
f 113 182 176
f 114 183 184
f 114 184 115
f 114 176 183
f 115 184 150
f 116 154 117
f 118 185 119
f 118 120 186
f 118 186 187
f 118 187 185
f 120 124 186
f 121 122 188
f 121 188 189
f 121 189 190
f 121 190 123
f 122 191 188
f 123 190 192
f 123 192 193
f 123 193 124
f 124 194 195
f 124 195 186
f 124 193 196
f 124 196 194
f 125 127 197
f 126 132 198
f 126 198 199
f 126 199 200
f 126 200 201
f 126 201 202
f 126 202 203
f 126 203 127
f 126 128 132
f 127 203 204
f 127 204 197
f 130 205 131
f 131 206 132
f 131 205 207
f 131 207 208
f 131 208 206
f 132 206 209
f 132 209 198
f 133 139 155
f 133 155 158
f 136 156 155
f 136 155 139
f 137 141 210
f 137 210 138
f 138 210 159
f 140 211 212
f 140 212 213
f 140 213 210
f 140 210 141
f 140 146 214
f 140 214 215
f 140 215 211
f 142 148 216
f 142 216 143
f 143 216 144
f 144 216 217
f 144 217 145
f 145 218 219
f 145 219 220
f 145 220 146
f 145 217 221
f 145 221 218
f 146 220 222
f 146 222 223
f 146 223 224
f 146 224 225
f 146 225 214
f 147 226 148
f 148 226 227
f 148 227 228
f 148 228 229
f 148 229 216
f 150 184 230
f 150 230 151
f 151 231 152
f 151 230 184
f 151 184 232
f 152 231 153
f 153 231 154
f 159 210 233
f 159 233 160
f 160 233 161
f 161 233 163
f 161 163 162
f 163 233 210
f 163 210 234
f 163 234 235
f 163 235 169
f 163 169 166
f 163 166 165
f 163 165 164
f 167 215 168
f 167 169 211
f 167 211 215
f 168 215 236
f 168 236 170
f 169 235 211
f 170 237 173
f 170 236 237
f 171 238 177
f 171 175 238
f 173 239 174
f 173 237 240
f 173 240 241
f 173 241 242
f 173 242 243
f 173 243 239
f 174 239 243
f 174 243 244
f 174 244 245
f 174 245 175
f 175 245 178
f 175 177 238
f 176 246 183
f 176 182 247
f 176 247 248
f 176 248 246
f 178 249 250
f 178 250 180
f 178 180 179
f 178 245 251
f 178 251 252
f 178 252 253
f 178 253 254
f 178 254 255
f 178 255 256
f 178 256 257
f 178 257 258
f 178 258 259
f 178 259 260
f 178 260 261
f 178 261 262
f 178 262 263
f 178 263 264
f 178 264 265
f 178 265 249
f 180 266 181
f 180 250 267
f 180 267 266
f 181 266 182
f 182 266 247
f 183 246 184
f 184 246 232
f 185 187 268
f 186 269 270
f 186 270 187
f 186 195 283
f 186 283 269
f 187 270 271
f 187 271 268
f 188 191 189
f 189 272 190
f 189 191 273
f 189 273 274
f 189 274 272
f 190 272 275
f 190 275 192
f 191 276 277
f 191 277 273
f 192 275 278
f 192 278 279
f 192 279 280
f 192 280 193
f 193 280 263
f 193 263 281
f 193 281 282
f 193 282 196
f 194 283 195
f 194 196 283
f 196 282 284
f 196 284 285
f 196 285 286
f 196 286 283
f 197 204 287
f 198 209 199
f 199 209 200
f 200 209 288
f 200 288 201
f 201 288 289
f 201 289 290
f 201 290 291
f 201 291 292
f 201 292 293
f 201 293 294
f 201 294 202
f 202 294 203
f 203 294 204
f 204 295 287
f 204 294 295
f 206 296 209
f 206 208 296
f 207 297 208
f 208 297 298
f 208 298 299
f 208 299 296
f 209 296 300
f 209 300 301
f 209 301 302
f 209 302 303
f 209 303 304
f 209 304 288
f 210 213 234
f 211 235 305
f 211 305 234
f 211 234 212
f 212 234 213
f 214 225 215
f 215 225 237
f 215 237 236
f 216 229 306
f 216 306 217
f 217 306 221
f 218 307 219
f 218 221 306
f 218 306 307
f 219 307 308
f 219 308 309
f 219 309 310
f 219 310 220
f 220 310 222
f 222 310 311
f 222 311 312
f 222 312 313
f 222 313 314
f 222 314 223
f 223 314 224
f 224 240 237
f 224 237 225
f 224 314 315
f 224 315 240
f 228 316 229
f 229 316 317
f 229 317 307
f 229 307 306
f 232 246 318
f 234 305 235
f 240 315 241
f 241 319 320
f 241 320 321
f 241 321 242
f 241 315 314
f 241 314 322
f 241 322 319
f 242 321 243
f 243 321 323
f 243 323 324
f 243 324 325
f 243 325 251
f 243 251 244
f 244 251 245
f 246 326 318
f 246 248 327
f 246 327 328
f 246 328 329
f 246 329 326
f 247 266 330
f 247 330 248
f 248 330 328
f 248 328 327
f 249 331 250
f 249 265 332
f 249 332 331
f 250 331 267
f 251 325 252
f 252 325 253
f 253 325 333
f 253 333 254
f 254 334 335
f 254 335 256
f 254 256 255
f 254 333 336
f 254 336 337
f 254 337 320
f 254 320 334
f 256 335 338
f 256 338 339
f 256 339 340
f 256 340 341
f 256 341 257
f 257 341 258
f 258 341 342
f 258 342 259
f 259 342 260
f 260 342 340
f 260 340 261
f 261 340 343
f 261 343 344
f 261 344 284
f 261 284 281
f 261 281 262
f 262 281 263
f 263 280 345
f 263 345 264
f 264 345 265
f 265 345 346
f 265 346 347
f 265 347 331
f 265 331 332
f 266 267 330
f 267 331 348
f 267 348 349
f 267 349 350
f 267 350 330
f 268 271 351
f 269 352 353
f 269 353 270
f 269 283 352
f 270 354 355
f 270 355 356
f 270 356 357
f 270 357 271
f 270 353 354
f 271 358 359
f 271 359 360
f 271 360 351
f 271 357 358
f 272 274 275
f 273 277 275
f 273 275 274
f 275 361 278
f 275 277 362
f 275 362 361
f 276 363 277
f 277 363 362
f 278 361 364
f 278 364 279
f 279 364 365
f 279 365 280
f 280 365 345
f 281 284 282
f 283 286 366
f 283 366 352
f 284 344 367
f 284 367 368
f 284 368 285
f 285 368 286
f 286 368 369
f 286 369 366
f 287 295 370
f 288 304 289
f 289 304 291
f 289 291 290
f 291 371 292
f 291 304 372
f 291 372 371
f 292 371 373
f 292 373 374
f 292 374 375
f 292 375 376
f 292 376 377
f 292 377 378
f 292 378 293
f 293 378 294
f 294 378 377
f 294 377 379
f 294 379 380
f 294 380 295
f 295 381 370
f 295 380 381
f 296 299 300
f 297 382 383
f 297 383 298
f 298 383 384
f 298 384 299
f 299 384 300
f 300 384 385
f 300 385 386
f 300 386 301
f 301 386 302
f 302 387 388
f 302 388 303
f 302 386 387
f 303 388 304
f 304 388 372
f 307 389 308
f 307 317 316
f 307 316 390
f 307 390 389
f 308 389 309
f 309 391 392
f 309 392 311
f 309 311 310
f 309 389 393
f 309 393 394
f 309 394 395
f 309 395 391
f 311 392 312
f 312 396 313
f 312 392 397
f 312 397 398
f 312 398 396
f 313 396 314
f 314 396 322
f 319 322 399
f 319 399 400
f 319 400 320
f 320 400 334
f 320 337 325
f 320 325 323
f 320 323 321
f 322 396 401
f 322 401 398
f 322 398 402
f 322 402 403
f 322 403 334
f 322 334 400
f 322 400 399
f 323 325 324
f 325 337 333
f 326 329 404
f 328 330 329
f 329 330 350
f 329 350 404
f 331 347 348
f 333 337 336
f 334 405 335
f 334 403 405
f 335 405 406
f 335 406 338
f 338 406 407
f 338 407 408
f 338 408 409
f 338 409 339
f 339 409 340
f 340 409 410
f 340 410 411
f 340 411 343
f 340 342 341
f 343 411 344
f 344 411 410
f 344 410 408
f 344 408 412
f 344 412 367
f 345 365 413
f 345 413 414
f 345 414 346
f 346 414 415
f 346 415 348
f 346 348 347
f 348 415 416
f 348 416 417
f 348 417 418
f 348 418 349
f 349 419 350
f 349 418 419
f 350 419 420
f 350 420 421
f 350 421 404
f 352 422 423
f 352 423 424
f 352 424 425
f 352 425 426
f 352 426 427
f 352 427 353
f 352 366 422
f 353 427 354
f 354 428 429
f 354 429 430
f 354 430 355
f 354 427 431
f 354 431 428
f 355 430 432
f 355 432 434
f 355 434 433
f 355 433 358
f 355 358 356
f 356 358 357
f 358 433 434
f 358 434 359
f 359 434 435
f 359 435 360
f 361 362 363
f 361 436 364
f 364 436 365
f 365 436 437
f 365 437 438
f 365 438 413
f 366 369 422
f 367 439 369
f 367 369 368
f 367 412 439
f 369 440 441
f 369 441 422
f 369 439 440
f 371 442 373
f 371 372 443
f 371 443 444
f 371 444 442
f 372 388 443
f 373 442 374
f 374 442 445
f 374 445 446
f 374 446 447
f 374 447 375
f 375 447 448
f 375 448 449
f 375 449 376
f 376 449 450
f 376 450 377
f 377 450 379
f 379 451 452
f 379 452 453
f 379 453 380
f 379 450 454
f 379 454 451
f 382 455 383
f 383 455 456
f 383 456 384
f 384 456 458
f 384 458 385
f 385 457 386
f 385 458 459
f 385 459 460
f 385 460 457
f 386 457 461
f 386 461 462
f 386 462 387
f 387 463 388
f 387 462 463
f 388 463 464
f 388 464 465
f 388 465 443
f 391 466 467
f 391 467 397
f 391 397 392
f 391 395 466
f 394 468 395
f 395 454 469
f 395 469 470
f 395 470 471
f 395 471 466
f 395 468 454
f 396 398 472
f 396 472 401
f 397 467 398
f 398 467 470
f 398 470 473
f 398 473 402
f 398 401 472
f 402 405 403
f 402 473 474
f 402 474 475
f 402 475 476
f 402 476 477
f 402 477 478
f 402 478 405
f 405 478 406
f 406 447 446
f 406 446 445
f 406 445 407
f 406 478 477
f 406 477 447
f 407 445 479
f 407 479 412
f 407 412 408
f 408 410 409
f 412 479 439
f 413 438 414
f 414 438 480
f 414 480 415
f 415 480 481
f 415 481 416
f 416 481 417
f 417 482 418
f 418 482 420
f 418 420 419
f 422 424 423
f 422 441 424
f 424 483 425
f 424 441 484
f 424 484 462
f 424 462 483
f 425 483 426
f 426 483 431
f 426 431 427
f 428 461 457
f 428 457 429
f 428 431 483
f 428 483 462
f 428 462 461
f 429 457 460
f 429 460 459
f 429 459 485
f 429 485 434
f 429 434 432
f 429 432 430
f 434 485 486
f 434 486 435
f 437 487 438
f 438 487 480
f 439 479 488
f 439 488 489
f 439 489 440
f 440 489 490
f 440 490 441
f 441 490 484
f 442 462 445
f 442 444 491
f 442 491 465
f 442 465 492
f 442 492 462
f 443 465 444
f 444 465 491
f 445 462 488
f 445 488 479
f 447 493 494
f 447 494 448
f 447 477 495
f 447 495 493
f 448 494 496
f 448 496 497
f 448 497 450
f 448 450 449
f 450 498 454
f 450 497 498
f 451 499 500
f 451 500 452
f 451 454 501
f 451 501 499
f 454 498 502
f 454 502 503
f 454 503 469
f 454 468 504
f 454 504 501
f 462 490 489
f 462 489 488
f 462 492 465
f 462 465 464
f 462 464 463
f 462 484 490
f 466 471 505
f 466 505 467
f 467 505 470
f 469 503 470
f 470 503 502
f 470 502 506
f 470 506 474
f 470 474 473
f 470 505 471
f 474 506 475
f 475 506 476
f 476 506 502
f 476 502 494
f 476 494 477
f 477 494 495
f 480 487 507
f 480 507 481
f 493 495 494
f 494 502 496
f 496 502 498
f 496 498 508
f 496 508 497
f 497 508 498
