v 0.163141 -0.029294 -0.184094
v 0.0470744 -0.029294 -0.217678
v 0.163141 -0.029294 -0.283678
v 0.163141 0.56109 -0.191857
v 0.0470744 0.56109 -0.22491
v 0.0470744 -0.029294 -0.310484
v 0.155982 -0.029294 -0.28665
v 0.163141 -0.02276 -0.284769
v 0.163141 0.571837 -0.192524
v 0.0470744 0.573974 -0.225729
v 0.0503127 -0.029294 -0.31006
v 0.0470744 -0.0211723 -0.311743
v 0.148335 -0.029294 -0.289818
v 0.138825 -0.0193403 -0.295413
v 0.163141 -0.0179969 -0.285558
v 0.163141 0.573974 -0.192661
v 0.163141 0.578127 -0.193813
v 0.0470744 0.583623 -0.229686
v 0.0674244 -0.015371 -0.309969
v 0.0553803 -0.029294 -0.309392
v 0.0470744 -0.0193403 -0.312015
v 0.130428 -0.029294 -0.297233
v 0.130383 -0.029233 -0.297263
v 0.132371 -0.0193403 -0.298082
v 0.140711 -0.0090202 -0.296186
v 0.163141 -0.00853166 -0.286938
v 0.163141 0.583989 -0.197892
v 0.163141 0.585455 -0.19965
v 0.0470744 0.590035 -0.237828
v 0.0470744 -0.00639436 -0.313789
v 0.0760256 -0.0113407 -0.309392
v 0.109635 -0.0193403 -0.303783
v 0.106681 -0.029294 -0.30263
v 0.130315 -0.029294 -0.297278
v 0.122543 -0.0193403 -0.301205
v 0.122543 -0.00639436 -0.30304
v 0.129235 0.063648 -0.30968
v 0.136019 -0.00541731 -0.298597
v 0.161243 -0.00639436 -0.288014
v 0.163141 -0.00639436 -0.287226
v 0.163141 0.592355 -0.209581
v 0.0470744 0.593699 -0.244272
v 0.0470744 0.00649051 -0.31526
v 0.0798547 -0.00273042 -0.309908
v 0.109635 -0.00639436 -0.305541
v 0.109635 -0.029294 -0.302236
v 0.12327 -0.029294 -0.299401
v 0.116373 0.0381836 -0.309635
v 0.122543 0.00649051 -0.304556
v 0.127202 0.0550378 -0.309165
v 0.122543 0.0709759 -0.312
v 0.122543 0.0838608 -0.313441
v 0.130292 0.0709759 -0.31012
v 0.134303 0.0588239 -0.307012
v 0.135439 0.0193754 -0.301827
v 0.135439 0.00649051 -0.30028
v 0.142018 -0.000409922 -0.296732
v 0.163141 0.00649051 -0.288818
v 0.163141 0.593882 -0.215889
v 0.150528 0.593699 -0.218193
v 0.0470744 0.594248 -0.25155
v 0.0470744 0.0193754 -0.3167
v 0.0965346 0.00649051 -0.308756
v 0.109635 0.00649051 -0.307012
v 0.112908 0.0295734 -0.309165
v 0.109635 0.0709759 -0.314199
v 0.109635 0.0838608 -0.315594
v 0.122759 0.0588239 -0.310575
v 0.132099 0.0838608 -0.310863
v 0.122543 0.0968067 -0.314593
v 0.136746 0.0709759 -0.307452
v 0.161243 0.0322602 -0.292684
v 0.153187 0.0322602 -0.29602
v 0.163141 0.0709759 -0.29652
v 0.163141 0.594004 -0.21783
v 0.161243 0.594493 -0.225744
v 0.0580504 0.59437 -0.25155
v 0.0470744 0.594309 -0.25346
v 0.0470744 0.0657243 -0.321856
v 0.0568801 0.0721362 -0.321279
v 0.0967505 0.0709759 -0.315897
v 0.0518012 0.0772046 -0.322507
v 0.0967505 0.0838608 -0.317292
v 0.0638225 0.0916162 -0.322386
v 0.109635 0.0968067 -0.3167
v 0.138553 0.0838608 -0.308195
v 0.133542 0.0968067 -0.311454
v 0.163141 0.0947916 -0.299052
v 0.163141 0.085876 -0.298233
v 0.122543 0.135461 -0.317307
v 0.148335 0.0838608 -0.304146
v 0.163141 0.0839219 -0.298021
v 0.163141 0.594493 -0.225744
v 0.148335 0.594554 -0.238647
v 0.0967505 0.594554 -0.25155
v 0.0470744 0.594554 -0.264437
v 0.070958 0.594493 -0.25155
v 0.0470744 0.0721362 -0.322568
v 0.0470744 0.0819678 -0.323629
v 0.0544713 0.0838608 -0.322856
v 0.070958 0.0838608 -0.320688
v 0.0470744 0.0941199 -0.324721
v 0.0470744 0.0966846 -0.324933
v 0.0470744 0.107799 -0.325691
v 0.0967505 0.109692 -0.319278
v 0.109635 0.109692 -0.31758
v 0.0470744 0.0838608 -0.323827
v 0.122543 0.174177 -0.320006
v 0.122543 0.161292 -0.319111
v 0.163141 0.0848379 -0.298127
v 0.163141 0.106272 -0.299901
v 0.161243 0.0968067 -0.299992
v 0.135439 0.174177 -0.316276
v 0.135439 0.148346 -0.314411
v 0.141745 0.116897 -0.309529
v 0.163141 0.0968067 -0.299204
v 0.163141 0.594554 -0.238647
v 0.0470744 0.594554 -0.277325
v 0.0470744 0.122576 -0.326692
v 0.0967505 0.135461 -0.321022
v 0.109635 0.135461 -0.319323
v 0.109465 0.173261 -0.321886
v 0.113669 0.187062 -0.322159
v 0.122543 0.187062 -0.320794
v 0.135439 0.187062 -0.317095
v 0.144506 0.148346 -0.310666
v 0.161243 0.148346 -0.303737
v 0.163141 0.172406 -0.304692
v 0.161243 0.174177 -0.305602
v 0.145631 0.161292 -0.311136
v 0.161243 0.594554 -0.25155
v 0.163141 0.594493 -0.25155
v 0.0967505 0.594554 -0.277325
v 0.0470744 0.594248 -0.290228
v 0.0470744 0.172284 -0.330043
v 0.0978413 0.173261 -0.323432
v 0.105068 0.176986 -0.32272
v 0.0967505 0.187062 -0.324388
v 0.0967505 0.199947 -0.324873
v 0.115487 0.199947 -0.322401
v 0.122543 0.199947 -0.321295
v 0.135439 0.199947 -0.31761
v 0.154676 0.195428 -0.309529
v 0.161243 0.187062 -0.306421
v 0.163141 0.174177 -0.304814
v 0.135439 0.594554 -0.264437
v 0.163141 0.594004 -0.264756
v 0.148335 0.594431 -0.264437
v 0.109635 0.594493 -0.277325
v 0.0470744 0.594187 -0.291244
v 0.0470744 0.174177 -0.330164
v 0.0580504 0.174177 -0.328724
v 0.0470744 0.185169 -0.330816
v 0.0580504 0.187062 -0.329482
v 0.070958 0.187062 -0.327784
v 0.070958 0.199947 -0.328269
v 0.0470744 0.414288 -0.338867
v 0.128338 0.277378 -0.322371
v 0.135439 0.251547 -0.318944
v 0.163141 0.212893 -0.306481
v 0.160039 0.199825 -0.307421
v 0.163141 0.199825 -0.306133
v 0.163141 0.197016 -0.306026
v 0.163141 0.187062 -0.305632
v 0.122543 0.59437 -0.277325
v 0.163141 0.593393 -0.270623
v 0.157891 0.593638 -0.271745
v 0.148335 0.593882 -0.273171
v 0.109635 0.593943 -0.285982
v 0.0470744 0.593638 -0.297445
v 0.0470744 0.187062 -0.330922
v 0.0580504 0.199947 -0.329967
v 0.0470744 0.419173 -0.338989
v 0.0470744 0.199947 -0.331408
v 0.128792 0.290202 -0.322447
v 0.135439 0.277378 -0.319612
v 0.163141 0.264738 -0.307816
v 0.122543 0.59376 -0.285042
v 0.163141 0.591073 -0.274672
v 0.138905 0.592905 -0.281661
v 0.130303 0.593516 -0.284193
v 0.0649815 0.593393 -0.296717
v 0.0580504 0.593516 -0.297005
v 0.0470744 0.589791 -0.303889
v 0.122543 0.406288 -0.320339
v 0.121327 0.392304 -0.321401
v 0.123145 0.380518 -0.321552
v 0.124009 0.367633 -0.321689
v 0.127429 0.316033 -0.322235
v 0.128281 0.303087 -0.322371
v 0.0470744 0.432485 -0.336987
v 0.102988 0.567257 -0.309544
v 0.110317 0.56225 -0.30912
v 0.115055 0.553395 -0.309438
v 0.1176 0.544785 -0.309908
v 0.122543 0.496604 -0.314077
v 0.122543 0.483719 -0.315245
v 0.122543 0.470773 -0.316124
v 0.135439 0.367633 -0.318247
v 0.135439 0.316033 -0.319323
v 0.135439 0.303087 -0.319581
v 0.135439 0.290202 -0.319748
v 0.157221 0.277378 -0.31059
v 0.148335 0.290202 -0.314411
v 0.163141 0.277378 -0.308134
v 0.109635 0.591867 -0.292426
v 0.163141 0.589668 -0.276703
v 0.161811 0.590218 -0.276552
v 0.148335 0.591806 -0.279614
v 0.122543 0.590706 -0.291486
v 0.109635 0.585455 -0.301159
v 0.0470744 0.583318 -0.311758
v 0.135439 0.406288 -0.31661
v 0.135439 0.393403 -0.317443
v 0.135439 0.380518 -0.317974
v 0.0470744 0.56109 -0.31758
v 0.0470744 0.573974 -0.315412
v 0.0943872 0.570066 -0.31012
v 0.109635 0.573974 -0.307148
v 0.122543 0.573974 -0.304707
v 0.122543 0.56109 -0.306967
v 0.122157 0.548754 -0.308437
v 0.128338 0.527565 -0.309423
v 0.129815 0.518954 -0.309923
v 0.132905 0.496604 -0.311197
v 0.13436 0.483719 -0.311788
v 0.163141 0.380518 -0.306512
v 0.148335 0.367633 -0.31291
v 0.148335 0.316033 -0.313986
v 0.163141 0.304064 -0.308104
v 0.163141 0.303087 -0.308119
v 0.163141 0.278477 -0.308149
v 0.163141 0.291545 -0.308255
v 0.163141 0.290202 -0.30827
v 0.163141 0.582646 -0.285619
v 0.161243 0.583073 -0.285998
v 0.148335 0.585333 -0.288666
v 0.135951 0.587653 -0.290379
v 0.122543 0.584295 -0.299931
v 0.0786617 0.580692 -0.309741
v 0.070958 0.581424 -0.310226
v 0.0580504 0.582463 -0.311045
v 0.135439 0.419173 -0.315745
v 0.146108 0.419173 -0.311333
v 0.161243 0.406288 -0.305936
v 0.154358 0.396884 -0.309392
v 0.149369 0.392915 -0.311712
v 0.154994 0.388335 -0.309665
v 0.0872516 0.578677 -0.309135
v 0.0833202 0.574219 -0.310666
v 0.132996 0.582463 -0.298294
v 0.141598 0.579959 -0.29655
v 0.136553 0.575013 -0.299795
v 0.135439 0.56109 -0.302767
v 0.135439 0.53532 -0.305723
v 0.148335 0.496604 -0.304814
v 0.140814 0.483719 -0.309135
v 0.141552 0.47517 -0.309438
v 0.136519 0.470834 -0.311803
v 0.135439 0.457889 -0.313122
v 0.135439 0.445004 -0.314002
v 0.163141 0.341314 -0.30733
v 0.163141 0.390228 -0.306117
v 0.163141 0.328918 -0.307588
v 0.163141 0.573974 -0.289
v 0.163141 0.445004 -0.302539
v 0.163141 0.406288 -0.305147
v 0.163141 0.393037 -0.305996
v 0.163141 0.419356 -0.304268
v 0.144041 0.57141 -0.297566
v 0.163141 0.561151 -0.291289
v 0.163141 0.559197 -0.291517
v 0.163141 0.544785 -0.293169
v 0.163141 0.514069 -0.296687
v 0.163141 0.497581 -0.298567
v 0.16222 0.496787 -0.299037
v 0.163141 0.496177 -0.298718
v 0.161243 0.483719 -0.300674
v 0.163141 0.470773 -0.300796
v 0.163141 0.572326 -0.289303
v 0.163141 0.483719 -0.299886
f 1 2 6
f 1 6 11
f 1 11 20
f 1 20 33
f 1 33 46
f 1 46 47
f 1 47 34
f 1 34 22
f 1 22 13
f 1 13 7
f 1 7 3
f 1 3 8
f 1 8 15
f 1 15 26
f 1 26 40
f 1 40 58
f 1 58 74
f 1 74 92
f 1 92 110
f 1 110 89
f 1 89 88
f 1 88 116
f 1 116 111
f 1 111 128
f 1 128 145
f 1 145 164
f 1 164 163
f 1 163 162
f 1 162 160
f 1 160 177
f 1 177 205
f 1 205 232
f 1 232 234
f 1 234 233
f 1 233 231
f 1 231 230
f 1 230 264
f 1 264 262
f 1 262 227
f 1 227 263
f 1 263 268
f 1 268 267
f 1 267 269
f 1 269 266
f 1 266 279
f 1 279 281
f 1 281 277
f 1 277 275
f 1 275 274
f 1 274 273
f 1 273 272
f 1 272 271
f 1 271 280
f 1 280 265
f 1 265 235
f 1 235 207
f 1 207 179
f 1 179 166
f 1 166 147
f 1 147 132
f 1 132 117
f 1 117 93
f 1 93 75
f 1 75 59
f 1 59 41
f 1 41 28
f 1 28 27
f 1 27 17
f 1 17 16
f 1 16 9
f 1 9 4
f 1 4 5
f 1 5 2
f 2 5 10
f 2 10 18
f 2 18 29
f 2 29 42
f 2 42 61
f 2 61 78
f 2 78 96
f 2 96 118
f 2 118 134
f 2 134 150
f 2 150 170
f 2 170 184
f 2 184 212
f 2 212 217
f 2 217 216
f 2 216 191
f 2 191 173
f 2 173 157
f 2 157 174
f 2 174 171
f 2 171 153
f 2 153 151
f 2 151 135
f 2 135 119
f 2 119 104
f 2 104 103
f 2 103 102
f 2 102 107
f 2 107 99
f 2 99 98
f 2 98 79
f 2 79 62
f 2 62 43
f 2 43 30
f 2 30 21
f 2 21 12
f 2 12 6
f 3 7 8
f 4 9 5
f 5 9 10
f 6 12 11
f 7 13 8
f 8 13 14
f 8 14 15
f 9 16 10
f 10 16 17
f 10 17 18
f 11 12 19
f 11 19 20
f 12 21 19
f 13 22 23
f 13 23 14
f 14 23 24
f 14 24 25
f 14 25 15
f 15 25 26
f 17 27 18
f 18 27 28
f 18 28 29
f 19 30 31
f 19 31 32
f 19 32 33
f 19 33 20
f 19 21 30
f 22 34 23
f 23 34 24
f 24 34 35
f 24 35 36
f 24 36 37
f 24 37 38
f 24 38 25
f 25 38 39
f 25 39 26
f 26 39 40
f 28 41 29
f 29 41 42
f 30 43 44
f 30 44 31
f 31 45 32
f 31 44 45
f 32 35 46
f 32 46 33
f 32 45 36
f 32 36 35
f 34 47 35
f 35 47 46
f 36 45 48
f 36 48 49
f 36 49 50
f 36 50 37
f 37 50 51
f 37 51 52
f 37 52 53
f 37 53 54
f 37 54 55
f 37 55 56
f 37 56 38
f 38 56 57
f 38 57 39
f 39 57 58
f 39 58 40
f 41 59 60
f 41 60 42
f 42 60 59
f 42 59 61
f 43 62 63
f 43 63 44
f 44 63 45
f 45 63 64
f 45 64 65
f 45 65 48
f 48 65 66
f 48 66 67
f 48 67 52
f 48 52 51
f 48 51 68
f 48 68 50
f 48 50 49
f 50 68 51
f 52 69 53
f 52 67 70
f 52 70 69
f 53 69 86
f 53 86 71
f 53 71 54
f 54 71 72
f 54 72 73
f 54 73 55
f 55 58 57
f 55 57 56
f 55 73 58
f 58 73 72
f 58 72 74
f 59 75 76
f 59 76 61
f 61 76 77
f 61 77 78
f 62 79 80
f 62 80 63
f 63 80 65
f 63 65 64
f 65 80 81
f 65 81 66
f 66 81 82
f 66 82 67
f 67 82 83
f 67 83 84
f 67 84 85
f 67 85 70
f 69 70 87
f 69 87 88
f 69 88 89
f 69 89 86
f 70 85 90
f 70 90 87
f 71 74 72
f 71 86 91
f 71 91 74
f 74 91 92
f 75 93 76
f 76 93 117
f 76 117 94
f 76 94 95
f 76 95 96
f 76 96 97
f 76 97 77
f 77 97 78
f 78 97 96
f 79 98 80
f 80 98 82
f 80 82 81
f 82 98 99
f 82 99 100
f 82 100 101
f 82 101 83
f 83 101 84
f 84 102 103
f 84 103 104
f 84 104 105
f 84 105 106
f 84 106 85
f 84 101 100
f 84 100 107
f 84 107 102
f 85 106 108
f 85 108 109
f 85 109 90
f 86 89 110
f 86 110 91
f 87 111 112
f 87 112 88
f 87 90 109
f 87 109 108
f 87 108 113
f 87 113 114
f 87 114 115
f 87 115 111
f 88 112 116
f 91 110 92
f 94 117 131
f 94 131 146
f 94 146 133
f 94 133 118
f 94 118 96
f 94 96 95
f 99 107 100
f 104 119 105
f 105 119 120
f 105 120 121
f 105 121 106
f 106 121 108
f 108 121 122
f 108 122 123
f 108 123 124
f 108 124 125
f 108 125 113
f 111 116 112
f 111 115 126
f 111 126 127
f 111 127 128
f 113 125 144
f 113 144 129
f 113 129 128
f 113 128 130
f 113 130 126
f 113 126 114
f 114 126 115
f 117 132 131
f 118 133 134
f 119 135 136
f 119 136 120
f 120 136 121
f 121 136 122
f 122 136 137
f 122 137 123
f 123 137 138
f 123 138 139
f 123 139 140
f 123 140 124
f 124 140 141
f 124 141 142
f 124 142 125
f 125 143 144
f 125 142 143
f 126 130 128
f 126 128 127
f 128 129 145
f 129 144 164
f 129 164 145
f 131 132 147
f 131 147 148
f 131 148 146
f 133 146 149
f 133 149 134
f 134 149 150
f 135 151 152
f 135 152 136
f 136 152 137
f 137 153 154
f 137 154 155
f 137 155 138
f 137 152 153
f 138 155 156
f 138 156 139
f 139 156 157
f 139 157 140
f 140 157 141
f 141 158 142
f 141 157 158
f 142 158 159
f 142 159 160
f 142 160 143
f 143 161 162
f 143 162 163
f 143 163 164
f 143 164 144
f 143 160 161
f 146 148 165
f 146 165 149
f 147 165 148
f 147 166 167
f 147 167 168
f 147 168 165
f 149 165 169
f 149 169 150
f 150 169 170
f 151 153 152
f 153 171 154
f 154 171 174
f 154 174 172
f 154 172 156
f 154 156 155
f 156 172 157
f 157 173 158
f 157 172 174
f 158 175 176
f 158 176 159
f 158 173 175
f 159 176 160
f 160 162 161
f 160 176 177
f 165 168 178
f 165 178 169
f 166 179 180
f 166 180 181
f 166 181 167
f 167 181 178
f 167 178 168
f 169 178 182
f 169 182 183
f 169 183 170
f 170 183 184
f 173 185 186
f 173 186 187
f 173 187 188
f 173 188 189
f 173 189 190
f 173 190 175
f 173 191 192
f 173 192 193
f 173 193 194
f 173 194 195
f 173 195 196
f 173 196 197
f 173 197 198
f 173 198 185
f 175 190 199
f 175 199 200
f 175 200 201
f 175 201 202
f 175 202 176
f 176 203 177
f 176 202 204
f 176 204 203
f 177 203 205
f 178 181 206
f 178 206 182
f 179 207 208
f 179 208 209
f 179 209 180
f 180 209 181
f 181 209 210
f 181 210 206
f 182 206 211
f 182 211 184
f 182 184 183
f 184 211 212
f 185 213 214
f 185 214 187
f 185 187 186
f 185 198 213
f 187 215 188
f 187 214 215
f 188 215 189
f 189 215 190
f 190 215 199
f 191 216 192
f 192 216 217
f 192 217 218
f 192 218 219
f 192 219 193
f 193 219 220
f 193 220 221
f 193 221 194
f 194 221 195
f 195 221 222
f 195 222 223
f 195 223 196
f 196 223 224
f 196 224 225
f 196 225 197
f 197 225 226
f 197 226 198
f 198 226 213
f 199 215 227
f 199 227 228
f 199 228 229
f 199 229 200
f 200 229 230
f 200 230 201
f 201 230 231
f 201 231 202
f 202 231 204
f 203 232 205
f 203 204 232
f 204 231 233
f 204 233 234
f 204 234 232
f 206 210 211
f 207 235 236
f 207 236 237
f 207 237 208
f 208 210 209
f 208 237 210
f 210 237 238
f 210 238 239
f 210 239 211
f 211 239 240
f 211 240 241
f 211 241 242
f 211 242 212
f 212 242 241
f 212 241 217
f 213 243 244
f 213 244 245
f 213 245 246
f 213 246 214
f 213 226 243
f 214 246 247
f 214 247 248
f 214 248 215
f 215 248 227
f 217 241 240
f 217 240 249
f 217 249 250
f 217 250 218
f 218 250 249
f 218 249 219
f 219 249 239
f 219 239 220
f 220 239 251
f 220 251 252
f 220 252 253
f 220 253 254
f 220 254 221
f 221 254 223
f 221 223 222
f 223 254 224
f 224 255 256
f 224 256 225
f 224 254 255
f 225 256 257
f 225 257 226
f 226 257 258
f 226 258 259
f 226 259 260
f 226 260 261
f 226 261 243
f 227 262 228
f 227 248 263
f 228 262 229
f 229 262 264
f 229 264 230
f 235 265 252
f 235 252 251
f 235 251 236
f 236 251 237
f 237 251 239
f 237 239 238
f 239 249 240
f 243 261 258
f 243 258 244
f 244 266 245
f 244 258 266
f 245 267 268
f 245 268 246
f 245 266 269
f 245 269 267
f 246 268 247
f 247 268 248
f 248 268 263
f 252 265 270
f 252 270 253
f 253 270 254
f 254 270 271
f 254 271 272
f 254 272 255
f 255 273 274
f 255 274 256
f 255 272 273
f 256 275 276
f 256 276 277
f 256 277 278
f 256 278 257
f 256 274 275
f 257 278 258
f 258 278 279
f 258 279 266
f 258 261 259
f 259 261 260
f 265 280 270
f 270 280 271
f 275 277 276
f 277 281 278
f 278 281 279
