v -0.0984226 -0.486941 -0.0855361
v -0.0984226 -0.486941 -0.188585
v 0.0470631 -0.486941 -0.10084
v 0.0470631 -0.218994 -0.182571
v -0.0984226 -0.218994 -0.173128
v -0.0964146 -0.486941 -0.189352
v -0.0984226 -0.478653 -0.191669
v -0.0584909 -0.354725 -0.281196
v -0.0539623 -0.367865 -0.281196
v -0.0514986 -0.373058 -0.281196
v -0.0505872 -0.374291 -0.281196
v -0.0448623 -0.38035 -0.281196
v -0.0405473 -0.384913 -0.281196
v -0.0368874 -0.387877 -0.281196
v 0.0470631 -0.486941 -0.197224
v 0.0470631 -0.218994 -0.275603
v -0.0984226 -0.218994 -0.268803
v -0.0928544 -0.486941 -0.190252
v -0.0327148 -0.389949 -0.281196
v -0.0227746 -0.394146 -0.281196
v -0.0193568 -0.395431 -0.281196
v -0.0984226 -0.475453 -0.192818
v -0.0984226 -0.361387 -0.231223
v -0.0984226 -0.358239 -0.232161
v -0.0984226 -0.316773 -0.244286
v -0.0984226 -0.311816 -0.245722
v -0.0984226 -0.303003 -0.248002
v -0.0984226 -0.290256 -0.251219
v -0.0984226 -0.288578 -0.251641
v -0.0984226 -0.265576 -0.257387
v -0.0984226 -0.260592 -0.258613
v -0.0984226 -0.22382 -0.267635
v -0.0600432 -0.341847 -0.281196
v -0.0984226 -0.441697 -0.204828
v -0.0984226 -0.404663 -0.21793
v -0.0984226 -0.400283 -0.219424
v -0.0984226 -0.395352 -0.220937
v 0.0457529 -0.486941 -0.197396
v 0.00258855 -0.395929 -0.281196
v 0.00644785 -0.395326 -0.281196
v 0.0192932 -0.389975 -0.281196
v 0.024662 -0.386907 -0.281196
v 0.0252602 -0.38654 -0.281196
v 0.025958 -0.385858 -0.281196
v 0.0316543 -0.379983 -0.281196
v 0.0376925 -0.373635 -0.281196
v 0.0381909 -0.373111 -0.281196
v 0.040498 -0.367183 -0.281196
v 0.0414379 -0.364193 -0.281196
v 0.0442861 -0.354725 -0.281196
v 0.0447987 -0.350896 -0.281196
v 0.0454254 -0.341847 -0.281196
v 0.0470631 -0.354725 -0.261754
v 0.046052 -0.218994 -0.275737
v 0.0470631 -0.341847 -0.264283
v 0.0449412 -0.337991 -0.281196
v 0.0432465 -0.328943 -0.281196
v 0.0423066 -0.325926 -0.281196
v 0.0401277 -0.319527 -0.281196
v -0.0967421 -0.218994 -0.269071
v -0.0582915 -0.328943 -0.281196
v -0.0839253 -0.486941 -0.192378
v -0.0103138 -0.396664 -0.281196
v -0.00587058 -0.486941 -0.202587
v -0.0161383 -0.486941 -0.201265
v -0.0724186 -0.486941 -0.19391
v -0.0838398 -0.486941 -0.192397
v 0.0223408 -0.486941 -0.200461
v -0.00645446 -0.397162 -0.281196
v 0.00586397 -0.486941 -0.202587
v 0.0322382 -0.218994 -0.277556
v 0.0363254 -0.313075 -0.281196
v 0.00657602 -0.218994 -0.280908
v 0.0255023 -0.218994 -0.278438
v -0.0835977 -0.218994 -0.270814
v -0.0524955 -0.313835 -0.281196
v -0.0540905 -0.317061 -0.281196
v 0.0298742 -0.305154 -0.281196
v -0.00659687 -0.218994 -0.280908
v 0.0253029 -0.300616 -0.281196
v 0.0233519 -0.298702 -0.281196
v 0.0169007 -0.294112 -0.281196
v 0.00644785 -0.2896 -0.281196
v -0.00645446 -0.28766 -0.281196
v -0.0322448 -0.218994 -0.277556
v -0.0507438 -0.310767 -0.281196
v -0.0193568 -0.218994 -0.279242
v -0.0132047 -0.218994 -0.280047
v -0.0193568 -0.289338 -0.281196
v -0.031248 -0.293902 -0.281196
v -0.0346373 -0.295738 -0.281196
v -0.0375994 -0.297443 -0.281196
v -0.0407894 -0.300406 -0.281196
v -0.0443212 -0.303895 -0.281196
v -0.0476963 -0.307436 -0.281196
f 1 2 6
f 1 6 18
f 1 18 62
f 1 62 67
f 1 67 66
f 1 66 65
f 1 65 64
f 1 64 70
f 1 70 68
f 1 68 38
f 1 38 15
f 1 15 3
f 1 3 4
f 1 4 5
f 1 5 17
f 1 17 32
f 1 32 31
f 1 31 30
f 1 30 29
f 1 29 28
f 1 28 27
f 1 27 26
f 1 26 25
f 1 25 24
f 1 24 23
f 1 23 37
f 1 37 36
f 1 36 35
f 1 35 34
f 1 34 22
f 1 22 7
f 1 7 2
f 2 7 8
f 2 8 9
f 2 9 10
f 2 10 11
f 2 11 12
f 2 12 13
f 2 13 14
f 2 14 6
f 3 15 53
f 3 53 55
f 3 55 16
f 3 16 4
f 4 16 54
f 4 54 71
f 4 71 74
f 4 74 73
f 4 73 79
f 4 79 88
f 4 88 87
f 4 87 85
f 4 85 75
f 4 75 60
f 4 60 17
f 4 17 5
f 6 14 19
f 6 19 20
f 6 20 21
f 6 21 18
f 7 22 8
f 8 23 24
f 8 24 25
f 8 25 26
f 8 26 27
f 8 27 28
f 8 28 29
f 8 29 30
f 8 30 31
f 8 31 32
f 8 32 17
f 8 17 33
f 8 33 61
f 8 61 77
f 8 77 76
f 8 76 86
f 8 86 95
f 8 95 94
f 8 94 93
f 8 93 92
f 8 92 91
f 8 91 90
f 8 90 89
f 8 89 84
f 8 84 83
f 8 83 82
f 8 82 81
f 8 81 80
f 8 80 78
f 8 78 72
f 8 72 59
f 8 59 58
f 8 58 57
f 8 57 56
f 8 56 52
f 8 52 51
f 8 51 50
f 8 50 49
f 8 49 48
f 8 48 47
f 8 47 46
f 8 46 45
f 8 45 44
f 8 44 43
f 8 43 42
f 8 42 41
f 8 41 40
f 8 40 39
f 8 39 69
f 8 69 63
f 8 63 21
f 8 21 20
f 8 20 19
f 8 19 14
f 8 14 13
f 8 13 12
f 8 12 11
f 8 11 10
f 8 10 9
f 8 22 34
f 8 34 35
f 8 35 36
f 8 36 37
f 8 37 23
f 15 38 39
f 15 39 40
f 15 40 41
f 15 41 42
f 15 42 43
f 15 43 44
f 15 44 45
f 15 45 46
f 15 46 47
f 15 47 48
f 15 48 49
f 15 49 50
f 15 50 51
f 15 51 52
f 15 52 53
f 16 55 52
f 16 52 56
f 16 56 57
f 16 57 58
f 16 58 59
f 16 59 54
f 17 60 61
f 17 61 33
f 18 21 62
f 21 63 64
f 21 64 65
f 21 65 66
f 21 66 67
f 21 67 62
f 38 68 39
f 39 68 70
f 39 70 69
f 52 55 53
f 54 59 71
f 59 72 73
f 59 73 74
f 59 74 71
f 60 75 76
f 60 76 77
f 60 77 61
f 63 69 64
f 64 69 70
f 72 78 73
f 73 78 80
f 73 80 81
f 73 81 82
f 73 82 83
f 73 83 84
f 73 84 79
f 75 85 76
f 76 85 87
f 76 87 88
f 76 88 79
f 76 79 86
f 79 84 89
f 79 89 90
f 79 90 91
f 79 91 92
f 79 92 93
f 79 93 94
f 79 94 95
f 79 95 86
