v -0.437302 0.290283 0.38495
v -0.437163 0.278359 0.38495
v -0.433643 0.277339 0.393436
v -0.433781 0.290283 0.393436
v -0.437136 0.303173 0.38495
v -0.436859 0.265952 0.38495
v -0.42832 0.277339 0.404173
v -0.436221 0.24103 0.38495
v -0.431646 0.199995 0.393436
v -0.427321 0.199995 0.402555
v -0.427488 0.212886 0.402836
v -0.428375 0.290283 0.40429
v -0.42832 0.303173 0.404149
v -0.433615 0.303173 0.393436
v -0.433088 0.328901 0.393436
v -0.432284 0.367626 0.393436
v -0.435528 0.380517 0.38495
v -0.424106 0.277339 0.410619
v -0.424189 0.290283 0.410736
v -0.435251 0.203433 0.38495
v -0.43514 0.199995 0.38495
v -0.434807 0.191026 0.38495
v -0.43112 0.187051 0.393436
v -0.427072 0.187051 0.402133
v -0.422941 0.199995 0.409002
v -0.423135 0.212886 0.409283
v -0.423523 0.238667 0.409822
v -0.424078 0.303173 0.410596
v -0.428181 0.316064 0.403938
v -0.428042 0.328901 0.403727
v -0.427488 0.380517 0.40286
v -0.432007 0.380517 0.393436
v -0.435001 0.393407 0.38495
v -0.417452 0.264448 0.418894
v -0.416676 0.278305 0.420441
v -0.412794 0.283247 0.425716
v -0.416481 0.199995 0.417628
v -0.417258 0.251557 0.41866
v -0.416759 0.291411 0.420535
v -0.417646 0.303173 0.419128
v -0.434641 0.187051 0.38495
v -0.433864 0.17459 0.38495
v -0.430316 0.17416 0.393436
v -0.426656 0.17416 0.401477
v -0.422636 0.187051 0.408603
v -0.416177 0.187051 0.417253
v -0.423939 0.316064 0.410385
v -0.423468 0.354682 0.409728
v -0.423302 0.367626 0.409517
v -0.423135 0.380517 0.409306
v -0.427238 0.393407 0.402414
v -0.43148 0.393407 0.393436
v -0.430648 0.406298 0.393436
v -0.434142 0.406459 0.38495
v -0.384959 0.277339 0.461769
v -0.357208 0.277339 0.497916
v -0.357291 0.290283 0.498033
v -0.373648 0.290283 0.476725
v -0.412794 0.287866 0.425716
v -0.412323 0.251557 0.425106
v -0.411547 0.199995 0.424098
v -0.40883 0.291411 0.430873
v -0.412766 0.29646 0.425692
v -0.412683 0.303173 0.425598
v -0.412545 0.316064 0.425387
v -0.41748 0.316064 0.418941
v -0.432284 0.152784 0.38495
v -0.427931 0.135489 0.392428
v -0.427959 0.148111 0.394561
v -0.425519 0.143599 0.399601
v -0.425852 0.152193 0.400211
v -0.422165 0.17416 0.407923
v -0.415705 0.17416 0.41662
v -0.411242 0.187051 0.4237
v -0.399986 0.19167 0.438749
v -0.41077 0.17416 0.42309
v -0.399709 0.183076 0.438398
v -0.417008 0.354682 0.418331
v -0.416703 0.380517 0.417909
v -0.416398 0.393407 0.417511
v -0.42283 0.393407 0.408884
v -0.426822 0.406298 0.401758
v -0.425714 0.439169 0.399953
v -0.42771 0.44411 0.394374
v -0.427321 0.470804 0.390975
v -0.429817 0.470804 0.38495
v -0.433809 0.411508 0.38495
v -0.373371 0.264448 0.476373
v -0.357014 0.264448 0.497682
v -0.350748 0.277339 0.505605
v -0.349584 0.199995 0.504457
v -0.35036 0.251557 0.50523
v -0.350831 0.290283 0.505699
v -0.350748 0.303173 0.505605
v -0.357208 0.303173 0.497916
v -0.361006 0.199995 0.48997
v -0.3785 0.303173 0.470161
v -0.389589 0.328901 0.454901
v -0.389118 0.367626 0.454291
v -0.412073 0.354682 0.424778
v -0.428652 0.102671 0.38495
v -0.426989 0.109654 0.390178
v -0.426517 0.0967633 0.389053
v -0.425214 0.135489 0.398898
v -0.417202 0.0967633 0.405931
v -0.415178 0.16127 0.415917
v -0.412462 0.0967633 0.412377
v -0.38349 0.187051 0.45987
v -0.360701 0.187051 0.489571
v -0.355267 0.187051 0.49665
v -0.355877 0.199995 0.49665
v -0.36023 0.17416 0.488961
v -0.384017 0.380517 0.460527
v -0.361145 0.38578 0.490157
v -0.400124 0.390722 0.438937
v -0.355683 0.393407 0.49665
v -0.39957 0.406298 0.438187
v -0.410964 0.406298 0.423324
v -0.415899 0.406298 0.416878
v -0.422359 0.406298 0.408205
v -0.418672 0.470804 0.406353
v -0.416759 0.484071 0.407525
v -0.42502 0.457914 0.398476
v -0.42685 0.483695 0.389873
v -0.428902 0.483695 0.38495
v -0.343318 0.277339 0.512075
v -0.343429 0.290283 0.512145
v -0.349307 0.187051 0.504152
v -0.340574 0.200156 0.511841
v -0.34232 0.225776 0.511278
v -0.343291 0.303173 0.512052
v -0.349806 0.380517 0.504668
v -0.356737 0.341791 0.497307
v -0.361256 0.377133 0.490298
v -0.428209 0.0967633 0.38495
v -0.423634 0.0967633 0.395499
v -0.426074 0.0866657 0.387998
v -0.416537 0.0838728 0.405016
v -0.373315 0.0967633 0.463386
v -0.411741 0.0838728 0.411463
v -0.361477 0.0879548 0.477686
v -0.354325 0.17416 0.49665
v -0.348808 0.17416 0.50366
v -0.351053 0.109654 0.493814
v -0.352689 0.148379 0.495947
v -0.352356 0.16127 0.497799
v -0.357236 0.381054 0.495408
v -0.349501 0.393407 0.504339
v -0.349002 0.406298 0.503847
v -0.348586 0.416933 0.503425
v -0.348253 0.425526 0.503073
v -0.354713 0.406298 0.49665
v -0.371818 0.406298 0.474357
v -0.403507 0.432079 0.430427
v -0.414901 0.432079 0.415565
v -0.413376 0.470804 0.413573
v -0.412628 0.488583 0.412612
v -0.416897 0.496585 0.405532
v -0.424521 0.470804 0.397421
v -0.412988 0.479989 0.413104
v -0.424022 0.483695 0.39632
v -0.426268 0.496585 0.38842
v -0.427682 0.496585 0.38495
v -0.336609 0.264448 0.516928
v -0.336859 0.277339 0.517115
v -0.335611 0.212886 0.516154
v -0.336969 0.290283 0.517185
v -0.336859 0.303173 0.517115
v -0.341821 0.187051 0.510247
v -0.335278 0.195967 0.515896
v -0.342292 0.367626 0.511255
v -0.342071 0.380517 0.511091
v -0.356404 0.367626 0.496885
v -0.427127 0.0848395 0.38495
v -0.423468 0.0829597 0.392756
v -0.421666 0.0709822 0.393436
v -0.414014 0.0458456 0.401617
v -0.414846 0.0580916 0.402719
v -0.415705 0.0709822 0.403891
v -0.426573 0.0798445 0.38495
v -0.425603 0.078072 0.386826
v -0.356958 0.0967633 0.484695
v -0.40578 0.0838728 0.419246
v -0.410881 0.0709822 0.410338
v -0.350499 0.0967633 0.493087
v -0.395411 0.0838728 0.432772
v -0.384017 0.0838728 0.447634
v -0.357097 0.0837653 0.482703
v -0.349806 0.0838728 0.492196
v -0.348059 0.156919 0.502863
v -0.348447 0.165513 0.503284
v -0.341821 0.17416 0.509286
v -0.340601 0.392763 0.511677
v -0.340851 0.445023 0.50741
v -0.339548 0.470804 0.506379
v -0.338882 0.483695 0.505863
v -0.34792 0.432079 0.502745
v -0.346007 0.470804 0.500753
v -0.350915 0.483695 0.493626
v -0.351441 0.470804 0.494306
v -0.341821 0.406298 0.509684
v -0.380357 0.457914 0.457948
v -0.390587 0.470804 0.443297
v -0.408941 0.457914 0.420699
v -0.408802 0.484071 0.418144
v -0.361755 0.494437 0.478038
v -0.395799 0.496585 0.433287
v -0.412129 0.496585 0.411979
v -0.413626 0.548201 0.401055
v -0.423357 0.496585 0.394866
v -0.427127 0.501634 0.38495
v -0.424743 0.52242 0.38495
v -0.292334 0.277339 0.551317
v -0.32893 0.277339 0.52321
v -0.32893 0.290283 0.523374
v -0.284627 0.212886 0.555302
v -0.277585 0.290283 0.562803
v -0.277474 0.303173 0.562709
v -0.291308 0.367626 0.55052
v -0.314541 0.367626 0.53268
v -0.32893 0.380517 0.521311
v -0.335639 0.380517 0.516154
v -0.334973 0.187051 0.515662
v -0.2841 0.189951 0.55488
v -0.269517 0.199995 0.566507
v -0.335472 0.38809 0.516037
v -0.425187 0.0709822 0.385818
v -0.422193 0.0458456 0.385419
v -0.418478 0.0458456 0.393436
v -0.4182 0.0458456 0.393952
v -0.413765 0.0458456 0.401969
v -0.425381 0.0696394 0.38495
v -0.399903 0.0771052 0.425739
v -0.395273 0.0721101 0.430896
v -0.409994 0.0580916 0.409166
v -0.3986 0.0580916 0.424028
v -0.344843 0.0967633 0.499557
v -0.360923 0.0793611 0.476959
v -0.348946 0.0709822 0.491048
v -0.343956 0.0838728 0.498643
v -0.340463 0.135489 0.507105
v -0.338383 0.0967633 0.505465
v -0.334336 0.17416 0.515169
v -0.335084 0.396684 0.515732
v -0.334585 0.406298 0.51538
v -0.333948 0.419188 0.514865
v -0.332617 0.445023 0.513857
v -0.330593 0.483695 0.51231
v -0.337995 0.496585 0.50516
v -0.345342 0.483695 0.500073
v -0.331286 0.470804 0.512825
v -0.350194 0.496585 0.492689
v -0.349334 0.509476 0.491587
v -0.348697 0.519144 0.490743
v -0.352578 0.535311 0.48289
v -0.363113 0.548201 0.466926
v -0.382686 0.52242 0.445899
v -0.399598 0.51388 0.42534
v -0.403978 0.52242 0.418144
v -0.409551 0.535311 0.408626
v -0.408663 0.561146 0.405298
v -0.413044 0.556902 0.400281
v -0.412489 0.565496 0.399437
v -0.415622 0.561146 0.394468
v -0.417701 0.548201 0.393436
v -0.420058 0.561146 0.38495
v -0.27107 0.279594 0.567703
v -0.264083 0.251557 0.572227
v -0.256265 0.290283 0.579142
v -0.256154 0.303173 0.579048
v -0.255129 0.367626 0.578275
v -0.254935 0.380517 0.578111
v -0.269795 0.380517 0.566718
v -0.320779 0.380517 0.52757
v -0.28374 0.181358 0.554622
v -0.269129 0.187051 0.566202
v -0.327904 0.17416 0.520116
v -0.26267 0.187051 0.571148
v -0.254657 0.199995 0.5779
v -0.262947 0.393407 0.571359
v -0.277363 0.393407 0.560295
v -0.313931 0.393407 0.532212
v -0.424826 0.0651277 0.38495
v -0.423939 0.0580916 0.38495
v -0.422719 0.0484237 0.38495
v -0.422387 0.0458456 0.38495
v -0.409135 0.0458456 0.408064
v -0.376698 0.0709822 0.454901
v -0.387427 0.0613143 0.439171
v -0.39774 0.0458456 0.422926
v -0.363279 0.0458456 0.46784
v -0.337524 0.0838728 0.504761
v -0.348419 0.0634627 0.490391
v -0.336415 0.0709822 0.503917
v -0.3472 0.0458456 0.488774
v -0.34074 0.0458456 0.495689
v -0.340241 0.0458456 0.496205
v -0.334169 0.0458456 0.502159
v -0.334918 0.0541171 0.502745
v -0.335694 0.0627107 0.503355
v -0.333643 0.16127 0.51463
v -0.330094 0.0967633 0.511911
v -0.332229 0.135489 0.513552
v -0.323024 0.0871491 0.516388
v -0.283906 0.400766 0.554739
v -0.328153 0.406298 0.520327
v -0.278444 0.405546 0.55856
v -0.324854 0.470804 0.517795
v -0.324161 0.483695 0.517256
v -0.309162 0.48638 0.528555
v -0.329678 0.496585 0.511606
v -0.336914 0.509476 0.504316
v -0.336055 0.51995 0.503613
v -0.344455 0.496585 0.499159
v -0.339437 0.561092 0.494377
v -0.345897 0.561092 0.48711
v -0.362254 0.561092 0.465801
v -0.37351 0.563294 0.450751
v -0.390865 0.548201 0.430756
v -0.361588 0.569202 0.464957
v -0.400596 0.570276 0.413737
v -0.404394 0.574358 0.407267
v -0.411436 0.573982 0.397726
v -0.414957 0.573982 0.39128
v -0.419198 0.566409 0.38495
v -0.256182 0.277339 0.579048
v -0.255406 0.238667 0.578486
v -0.249723 0.277339 0.583502
v -0.249833 0.290283 0.583573
v -0.249695 0.303173 0.583502
v -0.249307 0.328901 0.583244
v -0.248697 0.367626 0.582822
v -0.248475 0.380517 0.582682
v -0.248087 0.393407 0.582424
v -0.254519 0.393407 0.577806
v -0.290255 0.17416 0.549043
v -0.26206 0.17416 0.57068
v -0.253632 0.17416 0.577126
v -0.254242 0.187051 0.577595
v -0.24781 0.187051 0.582236
v -0.248198 0.199995 0.582518
v -0.262309 0.406298 0.570867
v -0.268769 0.406298 0.565921
v -0.310992 0.0458456 0.38495
v -0.352107 0.0458456 0.482398
v -0.327959 0.0832819 0.512075
v -0.32893 0.0709822 0.509684
v -0.322276 0.0785554 0.515826
v -0.327793 0.0458456 0.507059
v -0.319337 0.0458456 0.513552
v -0.283185 0.0458456 0.541307
v -0.278611 0.0569637 0.54637
v -0.255766 0.0709822 0.565851
v -0.29397 0.0967633 0.539666
v -0.256903 0.0838728 0.566718
v -0.257624 0.0937018 0.567281
v -0.25901 0.470804 0.568335
v -0.281633 0.445023 0.553005
v -0.258456 0.481278 0.567913
v -0.288037 0.483695 0.545011
v -0.257984 0.489872 0.567538
v -0.323246 0.496585 0.516553
v -0.335334 0.528543 0.50305
v -0.332506 0.561092 0.500823
v -0.338106 0.573982 0.493017
v -0.344566 0.573982 0.485398
v -0.349528 0.573982 0.478952
v -0.399404 0.578924 0.41219
v -0.413709 0.581717 0.388865
v -0.417812 0.573982 0.38495
v -0.249223 0.251557 0.583174
v -0.238661 0.277339 0.589246
v -0.238661 0.290283 0.589386
v -0.238661 0.303173 0.589222
v -0.238661 0.367626 0.587886
v -0.238661 0.380517 0.587605
v -0.238661 0.316064 0.588964
v -0.238661 0.393407 0.587065
v -0.247449 0.406298 0.582002
v -0.246091 0.432079 0.581135
v -0.245536 0.442821 0.58076
v -0.245093 0.451415 0.580455
v -0.253881 0.406298 0.577314
v -0.258511 0.109654 0.56796
v -0.247172 0.17416 0.581838
v -0.252911 0.16127 0.576587
v -0.250388 0.135757 0.576353
v -0.245287 0.140215 0.580595
v -0.245758 0.148379 0.5809
v -0.246479 0.16127 0.581369
v -0.238661 0.187051 0.586714
v -0.238661 0.199995 0.58723
v -0.238661 0.212886 0.587581
v -0.238661 0.264448 0.588917
v -0.154075 0.0458456 0.510153
v -0.308442 0.561092 0.38495
v -0.154075 0.561092 0.507973
v -0.271098 0.0763533 0.55481
v -0.276282 0.0458456 0.546605
v -0.253493 0.0458456 0.564092
v -0.249307 0.0709822 0.570773
v -0.247033 0.0458456 0.569039
v -0.250443 0.0838728 0.571641
v -0.252606 0.0975153 0.571406
v -0.251552 0.109654 0.573258
v -0.251552 0.457914 0.57504
v -0.251552 0.470804 0.574008
v -0.252828 0.484823 0.571899
v -0.250942 0.496585 0.572016
v -0.247588 0.535311 0.569461
v -0.257402 0.496585 0.567093
v -0.272262 0.496585 0.5557
v -0.293554 0.496585 0.539361
v -0.333615 0.548201 0.501714
v -0.270016 0.52242 0.553989
v -0.266662 0.561092 0.55141
v -0.275062 0.561092 0.544964
v -0.326046 0.561092 0.505816
v -0.310271 0.569632 0.516506
v -0.330787 0.573982 0.499463
v -0.336609 0.581824 0.491446
v -0.34853 0.58075 0.477616
v -0.360396 0.577796 0.463386
v -0.38751 0.581072 0.426419
v -0.402675 0.583167 0.403586
v -0.406723 0.585423 0.393272
v -0.405974 0.589236 0.38495
v -0.414541 0.582576 0.38495
v -0.416565 0.578064 0.38495
v -0.224023 0.277339 0.595317
v -0.230649 0.290283 0.592715
v -0.230454 0.303173 0.592645
v -0.229151 0.354682 0.592105
v -0.21285 0.380517 0.598318
v -0.193443 0.385727 0.606241
v -0.227848 0.393407 0.591566
v -0.238661 0.406298 0.586245
v -0.238134 0.457914 0.582963
v -0.23708 0.470804 0.582518
v -0.235999 0.483695 0.582072
v -0.24354 0.470804 0.579705
v -0.25255 0.432079 0.576306
v -0.244649 0.131622 0.580244
v -0.239686 0.135757 0.582682
v -0.238661 0.17416 0.585893
v -0.226462 0.17416 0.59098
v -0.227433 0.187051 0.591379
v -0.221611 0.199995 0.594309
v -0.21285 0.199995 0.597942
v -0.199958 0.199995 0.603287
v -0.228846 0.225776 0.591988
v -0.229262 0.238667 0.592152
v -0.154075 0.0458456 0.609663
v -0.309357 0.573982 0.38495
v -0.154075 0.56657 0.508324
v -0.240241 0.0838728 0.578087
v -0.238661 0.0458456 0.573891
v -0.241655 0.0967633 0.578767
v -0.243873 0.122598 0.579869
v -0.242459 0.483695 0.579166
v -0.246479 0.548201 0.568593
v -0.252911 0.548201 0.563671
v -0.255156 0.52242 0.565382
v -0.245647 0.557708 0.56796
v -0.250582 0.561683 0.563647
v -0.244843 0.566356 0.567398
v -0.296077 0.5641 0.528414
v -0.259093 0.570706 0.555513
v -0.324327 0.573982 0.504527
v -0.322941 0.580911 0.503449
v -0.327932 0.583758 0.496111
v -0.328763 0.590901 0.483617
v -0.341267 0.583704 0.482656
v -0.363668 0.582952 0.454783
v -0.375589 0.582093 0.440578
v -0.380136 0.584134 0.431295
v -0.367826 0.585477 0.444938
v -0.396992 0.592137 0.393436
v -0.399709 0.593318 0.386802
v -0.401871 0.592351 0.38495
v -0.223219 0.251557 0.594989
v -0.187067 0.251557 0.609968
v -0.187067 0.277339 0.610624
v -0.187067 0.290283 0.610765
v -0.201982 0.303173 0.604436
v -0.159315 0.354682 0.621033
v -0.193665 0.377133 0.606335
v -0.188314 0.381054 0.608468
v -0.154075 0.380517 0.62265
v -0.154075 0.38621 0.622416
v -0.158012 0.393407 0.620493
v -0.164472 0.393407 0.617821
v -0.221416 0.393407 0.594239
v -0.220418 0.406298 0.593817
v -0.213959 0.419349 0.595622
v -0.224688 0.419349 0.591168
v -0.225741 0.470804 0.587253
v -0.225741 0.483695 0.586339
v -0.206834 0.491698 0.593535
v -0.234558 0.496585 0.581463
v -0.235195 0.0967633 0.581721
v -0.225741 0.109654 0.586597
v -0.225741 0.148379 0.58941
v -0.211935 0.0959039 0.591332
v -0.199958 0.135489 0.599161
v -0.154879 0.154395 0.619204
v -0.154075 0.17416 0.620962
v -0.164056 0.187051 0.617657
v -0.21285 0.187051 0.597427
v -0.174147 0.199995 0.613977
v -0.158622 0.212886 0.620751
v -0.193665 0.21686 0.606335
v -0.154075 0.0507333 0.610249
v -0.187898 0.0458456 0.595669
v -0.312351 0.581556 0.38495
v -0.154075 0.574036 0.508817
v -0.231452 0.067115 0.58015
v -0.232672 0.0757087 0.580666
v -0.233781 0.0838728 0.581135
v -0.238189 0.0458456 0.574126
v -0.228403 0.0458456 0.578884
v -0.241017 0.496585 0.578462
v -0.239797 0.561683 0.57082
v -0.236886 0.573982 0.570164
v -0.243346 0.573982 0.566413
v -0.252578 0.574573 0.559404
v -0.257541 0.5793 0.554294
v -0.308719 0.578226 0.515287
v -0.271763 0.581233 0.542409
v -0.28593 0.5822 0.5305
v -0.300124 0.583006 0.518592
v -0.31601 0.583221 0.506051
v -0.276587 0.584295 0.535001
v -0.290227 0.585584 0.522694
v -0.315788 0.590042 0.496064
v -0.319947 0.592781 0.487836
v -0.33295 0.592781 0.474639
v -0.341211 0.589935 0.470536
v -0.357707 0.591922 0.445032
v -0.345093 0.592244 0.460738
v -0.360424 0.593265 0.437835
v -0.348724 0.593479 0.452134
v -0.387593 0.593533 0.40082
v -0.39056 0.593802 0.393436
v -0.397851 0.593587 0.38495
v -0.154075 0.271108 0.624127
v -0.167078 0.277339 0.618899
v -0.154075 0.284213 0.624361
v -0.167244 0.290283 0.61897
v -0.16705 0.303173 0.618899
v -0.154075 0.348129 0.62333
v -0.154075 0.310048 0.624127
v -0.154075 0.393407 0.622111
v -0.154075 0.398671 0.621783
v -0.154075 0.406298 0.62129
v -0.21285 0.406298 0.596958
v -0.190892 0.419188 0.605186
v -0.16023 0.432347 0.617001
v -0.180718 0.46495 0.606311
v -0.199958 0.470804 0.597942
v -0.216204 0.457914 0.592082
v -0.20761 0.483695 0.593864
v -0.20079 0.496209 0.595528
v -0.211824 0.496209 0.590957
v -0.225741 0.496585 0.585143
v -0.187067 0.483695 0.602373
v -0.161256 0.483695 0.613062
v -0.154075 0.49723 0.61475
v -0.233199 0.506737 0.580877
v -0.225741 0.0967633 0.585659
v -0.206279 0.0910163 0.593301
v -0.161256 0.0967633 0.612383
v -0.161256 0.109654 0.61332
v -0.187067 0.109654 0.602631
v -0.154075 0.119751 0.617024
v -0.154075 0.145318 0.618876
v -0.154075 0.187051 0.621759
v -0.154075 0.191939 0.62197
v -0.154075 0.199995 0.622275
v -0.154075 0.212886 0.622627
v -0.154075 0.0704451 0.612594
v -0.168935 0.0731843 0.60678
v -0.173593 0.0696931 0.604436
v -0.187067 0.0580916 0.597474
v -0.316759 0.584832 0.38495
v -0.154075 0.583489 0.513153
v -0.226601 0.0712508 0.582658
v -0.198905 0.0838728 0.595598
v -0.231064 0.52242 0.579986
v -0.229262 0.535311 0.579259
v -0.227488 0.548201 0.578509
v -0.238661 0.548201 0.573094
v -0.224799 0.561038 0.578158
v -0.225741 0.573982 0.575438
v -0.234419 0.581985 0.568781
v -0.248946 0.583221 0.557576
v -0.264444 0.583597 0.545222
v -0.240851 0.591814 0.551059
v -0.290255 0.592029 0.512732
v -0.30603 0.592298 0.500003
v -0.297408 0.593533 0.503613
v -0.311353 0.593641 0.491399
v -0.324355 0.593748 0.479257
v -0.336498 0.593641 0.466035
v -0.375422 0.593694 0.414792
v -0.380052 0.593909 0.405602
v -0.380524 0.594393 0.393436
v -0.393498 0.593963 0.38495
v -0.154075 0.277339 0.624268
v -0.160618 0.277339 0.621572
v -0.154075 0.290283 0.624408
v -0.160784 0.290283 0.621642
v -0.154075 0.297211 0.624338
v -0.154075 0.303173 0.624268
v -0.154075 0.437343 0.619204
v -0.15524 0.428212 0.619345
v -0.15596 0.419188 0.61965
v -0.16242 0.419188 0.616977
v -0.161256 0.457914 0.614844
v -0.17509 0.469891 0.608304
v -0.165886 0.535311 0.605514
v -0.22283 0.535311 0.581932
v -0.154075 0.483695 0.616016
v -0.154075 0.479559 0.616321
v -0.154075 0.541541 0.609687
v -0.155877 0.561092 0.60671
v -0.170432 0.0838728 0.607389
v -0.161256 0.0838728 0.611187
v -0.154075 0.0919831 0.614914
v -0.154075 0.0967633 0.615336
v -0.154075 0.083819 0.614141
v -0.327405 0.5916 0.38495
v -0.154075 0.590257 0.522272
v -0.199958 0.561092 0.588449
v -0.218672 0.565281 0.580197
v -0.216537 0.573982 0.579283
v -0.180052 0.579568 0.593113
v -0.207638 0.581126 0.580971
v -0.182492 0.570975 0.594145
v -0.225741 0.583973 0.570703
v -0.232257 0.593372 0.554692
v -0.237635 0.586927 0.560436
v -0.283241 0.593265 0.515404
v -0.246118 0.593587 0.542456
v -0.237385 0.593748 0.547355
v -0.302287 0.593855 0.496064
v -0.315788 0.594017 0.483617
v -0.328763 0.594017 0.470536
v -0.341211 0.593855 0.457034
v -0.341821 0.594339 0.445032
v -0.367632 0.5945 0.406353
v -0.380524 0.5945 0.38495
v -0.154075 0.442177 0.618876
v -0.154075 0.470804 0.61693
v -0.18435 0.561092 0.594918
v -0.154075 0.561092 0.607436
v -0.154907 0.567752 0.606311
v -0.333365 0.593641 0.38495
v -0.154075 0.593587 0.528227
v -0.210077 0.573982 0.581979
v -0.154075 0.575594 0.604741
v -0.171458 0.582308 0.594872
v -0.154075 0.570652 0.60596
v -0.199958 0.582898 0.582518
v -0.161256 0.584402 0.596958
v -0.187067 0.585208 0.58519
v -0.200346 0.590042 0.573188
v -0.225741 0.590418 0.562076
v -0.204921 0.593157 0.566413
v -0.168797 0.593479 0.580806
v -0.196326 0.593641 0.568359
v -0.225741 0.593641 0.55563
v -0.21285 0.592351 0.564397
v -0.161256 0.590848 0.588284
v -0.225741 0.594231 0.548222
v -0.250887 0.593909 0.534884
v -0.238661 0.594393 0.535306
v -0.290255 0.594339 0.49665
v -0.303119 0.594446 0.483734
v -0.31601 0.5945 0.470841
v -0.32893 0.594446 0.457948
v -0.341821 0.594554 0.432139
v -0.367632 0.594554 0.393436
v -0.367632 0.594554 0.38495
v -0.154075 0.568397 0.606499
v -0.333698 0.593694 0.38495
v -0.334142 0.593748 0.38495
v -0.154075 0.594124 0.535212
v -0.154075 0.585101 0.598904
v -0.154075 0.591814 0.589691
v -0.161256 0.593748 0.581838
v -0.187067 0.593855 0.569719
v -0.21285 0.593909 0.557951
v -0.161256 0.594339 0.574008
v -0.187067 0.594446 0.561115
v -0.21285 0.5945 0.548222
v -0.251552 0.5945 0.522413
v -0.277363 0.594554 0.49665
v -0.354713 0.594554 0.38495
v -0.341683 0.594178 0.38495
v -0.161256 0.594393 0.535306
v -0.154075 0.594554 0.548222
v -0.154075 0.593855 0.583244
v -0.154075 0.594446 0.574008
v -0.174147 0.594554 0.561115
v -0.199958 0.594554 0.548222
v -0.225741 0.594554 0.535306
v -0.341821 0.5945 0.393436
v -0.154075 0.594554 0.561115
f 1 2 3
f 1 3 4
f 1 4 14
f 1 14 5
f 1 5 17
f 1 17 33
f 1 33 54
f 1 54 87
f 1 87 86
f 1 86 125
f 1 125 163
f 1 163 211
f 1 211 212
f 1 212 266
f 1 266 325
f 1 325 370
f 1 370 429
f 1 429 428
f 1 428 427
f 1 427 480
f 1 480 545
f 1 545 608
f 1 608 652
f 1 652 684
f 1 684 699
f 1 699 700
f 1 700 687
f 1 687 686
f 1 686 658
f 1 658 632
f 1 632 585
f 1 585 515
f 1 515 454
f 1 454 396
f 1 396 344
f 1 344 286
f 1 286 285
f 1 285 284
f 1 284 283
f 1 283 232
f 1 232 180
f 1 180 174
f 1 174 135
f 1 135 101
f 1 101 67
f 1 67 42
f 1 42 41
f 1 41 22
f 1 22 21
f 1 21 20
f 1 20 8
f 1 8 6
f 1 6 2
f 2 6 3
f 3 7 4
f 3 6 8
f 3 8 20
f 3 20 9
f 3 9 10
f 3 10 11
f 3 11 7
f 4 12 13
f 4 13 14
f 4 7 12
f 5 14 15
f 5 15 16
f 5 16 17
f 7 18 19
f 7 19 12
f 7 11 18
f 9 20 21
f 9 21 22
f 9 22 23
f 9 23 24
f 9 24 10
f 10 24 25
f 10 25 26
f 10 26 27
f 10 27 18
f 10 18 11
f 12 19 13
f 13 28 47
f 13 47 29
f 13 29 14
f 13 19 28
f 14 29 30
f 14 30 31
f 14 31 15
f 15 31 16
f 16 31 32
f 16 32 17
f 17 32 52
f 17 52 33
f 18 34 35
f 18 35 36
f 18 36 19
f 18 27 37
f 18 37 38
f 18 38 34
f 19 36 39
f 19 39 40
f 19 40 28
f 22 41 23
f 23 41 42
f 23 42 43
f 23 43 44
f 23 44 24
f 24 45 25
f 24 44 45
f 25 45 46
f 25 46 37
f 25 37 26
f 26 37 27
f 28 40 47
f 29 47 30
f 30 47 31
f 31 48 49
f 31 49 50
f 31 50 51
f 31 51 32
f 31 47 48
f 32 51 52
f 33 52 53
f 33 53 54
f 34 38 35
f 35 38 36
f 36 55 56
f 36 56 57
f 36 57 58
f 36 58 59
f 36 59 39
f 36 38 60
f 36 60 55
f 37 46 61
f 37 61 38
f 38 61 60
f 39 62 63
f 39 63 40
f 39 59 62
f 40 64 65
f 40 65 66
f 40 66 47
f 40 63 64
f 42 67 68
f 42 68 43
f 43 68 69
f 43 69 70
f 43 70 71
f 43 71 44
f 44 72 45
f 44 71 72
f 45 72 73
f 45 73 46
f 46 74 75
f 46 75 61
f 46 73 76
f 46 76 77
f 46 77 74
f 47 66 78
f 47 78 79
f 47 79 48
f 48 79 49
f 49 79 50
f 50 79 80
f 50 80 81
f 50 81 51
f 51 81 82
f 51 82 52
f 52 82 83
f 52 83 53
f 53 83 84
f 53 84 85
f 53 85 86
f 53 86 87
f 53 87 54
f 55 88 89
f 55 89 56
f 55 60 88
f 56 90 57
f 56 89 91
f 56 91 92
f 56 92 90
f 57 93 94
f 57 94 95
f 57 95 63
f 57 63 58
f 57 90 93
f 58 63 62
f 58 62 59
f 60 61 96
f 60 96 88
f 61 75 96
f 63 95 97
f 63 97 64
f 64 97 65
f 65 97 95
f 65 95 98
f 65 98 99
f 65 99 100
f 65 100 78
f 65 78 66
f 67 101 68
f 68 101 102
f 68 102 69
f 69 102 70
f 70 102 103
f 70 103 104
f 70 104 105
f 70 105 71
f 71 105 72
f 72 106 73
f 72 105 107
f 72 107 106
f 73 106 76
f 74 77 108
f 74 108 75
f 75 108 109
f 75 109 110
f 75 110 111
f 75 111 96
f 76 112 77
f 76 106 107
f 76 107 112
f 77 110 109
f 77 109 108
f 77 112 110
f 78 100 79
f 79 100 99
f 79 99 113
f 79 113 114
f 79 114 115
f 79 115 80
f 80 115 114
f 80 114 116
f 80 116 117
f 80 117 118
f 80 118 119
f 80 119 81
f 81 119 120
f 81 120 83
f 81 83 82
f 83 121 122
f 83 122 123
f 83 123 85
f 83 85 84
f 83 120 121
f 85 123 124
f 85 124 125
f 85 125 86
f 88 96 89
f 89 96 111
f 89 111 91
f 90 126 127
f 90 127 93
f 90 92 126
f 91 111 128
f 91 128 129
f 91 129 130
f 91 130 126
f 91 126 92
f 93 127 94
f 94 127 131
f 94 131 132
f 94 132 95
f 95 132 133
f 95 133 99
f 95 99 98
f 99 133 134
f 99 134 113
f 101 135 103
f 101 103 102
f 103 136 104
f 103 135 137
f 103 137 136
f 104 136 105
f 105 136 138
f 105 138 107
f 107 139 112
f 107 138 140
f 107 140 141
f 107 141 139
f 110 128 111
f 110 112 142
f 110 142 143
f 110 143 128
f 112 144 145
f 112 145 146
f 112 146 142
f 112 139 144
f 113 134 147
f 113 147 114
f 114 147 116
f 116 148 149
f 116 149 150
f 116 150 151
f 116 151 152
f 116 152 153
f 116 153 117
f 116 147 148
f 117 153 154
f 117 154 155
f 117 155 118
f 118 155 119
f 119 155 120
f 120 155 156
f 120 156 121
f 121 156 122
f 122 157 158
f 122 158 159
f 122 159 123
f 122 156 160
f 122 160 157
f 123 159 124
f 124 161 162
f 124 162 125
f 124 159 161
f 125 162 163
f 126 164 165
f 126 165 167
f 126 167 127
f 126 130 166
f 126 166 164
f 127 167 168
f 127 168 131
f 128 169 129
f 128 143 169
f 129 169 170
f 129 170 130
f 130 170 166
f 131 168 171
f 131 171 132
f 132 171 172
f 132 172 148
f 132 148 147
f 132 147 173
f 132 173 133
f 133 173 147
f 133 147 134
f 135 174 137
f 136 137 175
f 136 175 176
f 136 176 177
f 136 177 178
f 136 178 179
f 136 179 138
f 137 174 180
f 137 180 181
f 137 181 175
f 138 179 140
f 139 182 144
f 139 141 182
f 140 183 141
f 140 179 184
f 140 184 183
f 141 185 182
f 141 183 186
f 141 186 187
f 141 187 188
f 141 188 189
f 141 189 185
f 142 146 190
f 142 190 191
f 142 191 143
f 143 192 169
f 143 191 192
f 144 190 146
f 144 146 145
f 144 182 185
f 144 185 190
f 148 193 149
f 148 172 193
f 149 193 150
f 150 193 151
f 151 194 195
f 151 195 196
f 151 196 197
f 151 197 198
f 151 198 199
f 151 199 200
f 151 200 152
f 151 193 201
f 151 201 194
f 152 200 202
f 152 202 154
f 152 154 153
f 154 202 203
f 154 203 204
f 154 204 155
f 155 204 156
f 156 204 203
f 156 203 205
f 156 205 160
f 157 160 205
f 157 205 199
f 157 199 206
f 157 206 207
f 157 207 208
f 157 208 158
f 158 161 159
f 158 208 209
f 158 209 161
f 161 209 210
f 161 210 162
f 162 211 163
f 162 210 212
f 162 212 211
f 164 213 214
f 164 214 165
f 164 166 213
f 165 214 215
f 165 215 167
f 166 170 216
f 166 216 213
f 167 215 168
f 168 215 217
f 168 217 218
f 168 218 219
f 168 219 220
f 168 220 221
f 168 221 222
f 168 222 171
f 169 223 170
f 169 192 223
f 170 223 224
f 170 224 225
f 170 225 216
f 171 222 172
f 172 222 226
f 172 226 193
f 175 181 176
f 176 181 227
f 176 227 228
f 176 228 229
f 176 229 230
f 176 230 177
f 177 230 229
f 177 229 228
f 177 228 286
f 177 286 344
f 177 344 395
f 177 395 453
f 177 453 514
f 177 514 521
f 177 521 520
f 177 520 457
f 177 457 402
f 177 402 400
f 177 400 399
f 177 399 351
f 177 351 350
f 177 350 349
f 177 349 298
f 177 298 297
f 177 297 296
f 177 296 295
f 177 295 345
f 177 345 291
f 177 291 290
f 177 290 287
f 177 287 231
f 177 231 178
f 178 231 179
f 179 231 184
f 180 232 227
f 180 227 181
f 183 184 233
f 183 233 186
f 184 234 233
f 184 231 235
f 184 235 236
f 184 236 234
f 185 237 190
f 185 189 237
f 186 233 187
f 187 233 238
f 187 238 188
f 188 238 189
f 189 238 239
f 189 239 240
f 189 240 237
f 190 241 191
f 190 237 242
f 190 242 241
f 191 241 192
f 192 243 223
f 192 241 243
f 193 226 244
f 193 244 201
f 194 245 246
f 194 246 247
f 194 247 195
f 194 201 245
f 195 247 251
f 195 251 196
f 196 248 249
f 196 249 250
f 196 250 198
f 196 198 197
f 196 251 248
f 198 250 199
f 199 250 252
f 199 252 206
f 199 205 203
f 199 203 200
f 200 203 202
f 201 244 245
f 206 252 253
f 206 253 254
f 206 254 255
f 206 255 256
f 206 256 257
f 206 257 258
f 206 258 207
f 207 258 208
f 208 258 259
f 208 259 260
f 208 260 209
f 209 260 261
f 209 261 262
f 209 262 210
f 210 262 263
f 210 263 264
f 210 264 265
f 210 265 266
f 210 266 212
f 213 267 214
f 213 216 268
f 213 268 267
f 214 267 215
f 215 267 217
f 216 225 268
f 217 269 270
f 217 270 218
f 217 267 269
f 218 270 271
f 218 271 272
f 218 272 273
f 218 273 219
f 219 273 274
f 219 274 220
f 220 274 221
f 221 274 226
f 221 226 222
f 223 275 276
f 223 276 224
f 223 243 277
f 223 277 275
f 224 276 278
f 224 278 279
f 224 279 225
f 225 279 268
f 226 280 281
f 226 281 282
f 226 282 244
f 226 274 273
f 226 273 272
f 226 272 280
f 227 232 283
f 227 283 228
f 228 284 285
f 228 285 286
f 228 283 284
f 231 287 235
f 233 234 238
f 234 288 238
f 234 236 289
f 234 289 288
f 235 287 290
f 235 290 236
f 236 290 291
f 236 291 289
f 237 240 292
f 237 292 242
f 238 288 293
f 238 293 239
f 239 293 240
f 240 294 292
f 240 293 295
f 240 295 296
f 240 296 297
f 240 297 298
f 240 298 299
f 240 299 300
f 240 300 294
f 241 301 243
f 241 242 301
f 242 302 303
f 242 303 301
f 242 292 304
f 242 304 302
f 243 301 277
f 244 282 281
f 244 281 305
f 244 305 306
f 244 306 245
f 245 306 246
f 246 306 307
f 246 307 308
f 246 308 247
f 247 308 251
f 248 309 310
f 248 310 311
f 248 311 249
f 248 251 308
f 248 308 309
f 249 311 312
f 249 312 363
f 249 363 313
f 249 313 314
f 249 314 250
f 250 314 252
f 252 314 253
f 253 314 254
f 254 314 315
f 254 315 316
f 254 316 255
f 255 316 256
f 256 316 317
f 256 317 318
f 256 318 257
f 257 318 319
f 257 319 258
f 258 319 259
f 259 319 261
f 259 261 260
f 261 318 263
f 261 263 262
f 261 319 318
f 263 318 320
f 263 320 321
f 263 321 322
f 263 322 323
f 263 323 324
f 263 324 264
f 264 324 325
f 264 325 266
f 264 266 265
f 267 268 326
f 267 326 269
f 268 279 327
f 268 327 326
f 269 326 328
f 269 328 329
f 269 329 330
f 269 330 270
f 270 330 331
f 270 331 332
f 270 332 333
f 270 333 271
f 271 333 272
f 272 333 334
f 272 334 335
f 272 335 280
f 275 277 336
f 275 336 337
f 275 337 338
f 275 338 339
f 275 339 278
f 275 278 276
f 277 301 336
f 278 339 279
f 279 339 340
f 279 340 341
f 279 341 327
f 280 305 281
f 280 335 383
f 280 383 342
f 280 342 343
f 280 343 305
f 288 289 293
f 289 291 293
f 291 345 293
f 292 294 346
f 292 346 304
f 293 345 295
f 294 347 348
f 294 348 346
f 294 300 347
f 298 349 299
f 299 349 300
f 300 349 350
f 300 350 351
f 300 351 352
f 300 352 353
f 300 353 347
f 301 303 336
f 302 354 303
f 302 304 354
f 303 354 336
f 304 355 356
f 304 356 354
f 304 346 348
f 304 348 355
f 305 307 306
f 305 343 307
f 307 343 357
f 307 357 358
f 307 358 308
f 308 358 357
f 308 357 359
f 308 359 360
f 308 360 309
f 309 360 310
f 310 361 311
f 310 360 361
f 311 361 362
f 311 362 363
f 311 363 312
f 313 363 314
f 314 363 315
f 315 364 365
f 315 365 316
f 315 363 364
f 316 365 366
f 316 366 320
f 316 320 318
f 316 318 317
f 320 366 367
f 320 367 368
f 320 368 321
f 321 368 322
f 322 368 323
f 323 368 369
f 323 369 324
f 324 369 370
f 324 370 325
f 326 371 328
f 326 327 341
f 326 341 371
f 328 371 372
f 328 372 373
f 328 373 329
f 329 373 330
f 330 373 374
f 330 374 331
f 331 374 332
f 332 374 333
f 333 375 376
f 333 376 334
f 333 374 377
f 333 377 375
f 334 376 378
f 334 378 379
f 334 379 335
f 335 379 380
f 335 380 381
f 335 381 382
f 335 382 383
f 336 354 337
f 337 354 384
f 337 384 338
f 338 385 339
f 338 384 386
f 338 386 387
f 338 387 388
f 338 388 389
f 338 389 390
f 338 390 385
f 339 385 340
f 340 385 391
f 340 391 392
f 340 392 341
f 341 392 393
f 341 393 394
f 341 394 372
f 341 372 371
f 342 383 357
f 342 357 343
f 344 396 397
f 344 397 395
f 347 353 348
f 348 398 355
f 348 353 398
f 351 399 352
f 352 399 400
f 352 400 353
f 353 401 403
f 353 403 355
f 353 355 398
f 353 400 402
f 353 402 401
f 354 356 384
f 355 403 356
f 356 403 404
f 356 404 405
f 356 405 384
f 357 406 407
f 357 407 359
f 357 383 406
f 359 407 408
f 359 408 361
f 359 361 360
f 361 408 409
f 361 409 410
f 361 410 411
f 361 411 412
f 361 412 413
f 361 413 362
f 362 413 363
f 363 414 364
f 363 413 415
f 363 415 416
f 363 416 417
f 363 417 418
f 363 418 414
f 364 418 419
f 364 419 420
f 364 420 365
f 364 414 418
f 365 420 421
f 365 421 366
f 366 421 422
f 366 422 423
f 366 423 367
f 367 423 368
f 368 423 422
f 368 422 424
f 368 424 425
f 368 425 369
f 369 425 426
f 369 426 427
f 369 427 428
f 369 428 429
f 369 429 370
f 372 394 430
f 372 430 431
f 372 431 373
f 373 431 432
f 373 432 374
f 374 432 377
f 375 433 434
f 375 434 376
f 375 377 432
f 375 432 433
f 376 434 435
f 376 435 378
f 378 435 436
f 378 436 437
f 378 437 382
f 378 382 381
f 378 381 380
f 378 380 379
f 382 438 439
f 382 439 440
f 382 440 441
f 382 441 408
f 382 408 407
f 382 407 406
f 382 406 442
f 382 442 383
f 382 437 438
f 383 442 406
f 384 405 387
f 384 387 386
f 385 390 391
f 387 405 388
f 388 405 404
f 388 404 443
f 388 443 444
f 388 444 445
f 388 445 389
f 389 445 391
f 389 391 390
f 391 445 446
f 391 446 447
f 391 447 392
f 392 447 448
f 392 448 393
f 393 448 449
f 393 449 450
f 393 450 451
f 393 451 452
f 393 452 394
f 394 452 481
f 394 481 430
f 395 397 455
f 395 455 516
f 395 516 586
f 395 586 633
f 395 633 659
f 395 659 688
f 395 688 702
f 395 702 709
f 395 709 704
f 395 704 703
f 395 703 690
f 395 690 689
f 395 689 661
f 395 661 663
f 395 663 685
f 395 685 656
f 395 656 625
f 395 625 568
f 395 568 623
f 395 623 624
f 395 624 654
f 395 654 653
f 395 653 615
f 395 615 555
f 395 555 554
f 395 554 553
f 395 553 490
f 395 490 489
f 395 489 551
f 395 551 552
f 395 552 614
f 395 614 613
f 395 613 611
f 395 611 548
f 395 548 609
f 395 609 546
f 395 546 580
f 395 580 579
f 395 579 578
f 395 578 577
f 395 577 507
f 395 507 576
f 395 576 575
f 395 575 630
f 395 630 629
f 395 629 631
f 395 631 581
f 395 581 513
f 395 513 453
f 396 454 397
f 397 454 455
f 401 456 403
f 401 402 456
f 402 457 456
f 403 456 458
f 403 458 459
f 403 459 443
f 403 443 404
f 408 460 409
f 408 441 460
f 409 460 410
f 410 461 462
f 410 462 463
f 410 463 411
f 410 460 461
f 411 463 415
f 411 415 412
f 412 415 413
f 415 463 462
f 415 462 416
f 416 464 465
f 416 465 466
f 416 466 467
f 416 467 417
f 416 462 464
f 417 467 418
f 418 467 419
f 419 467 466
f 419 466 468
f 419 468 469
f 419 469 420
f 420 469 470
f 420 470 421
f 421 470 471
f 421 471 472
f 421 472 473
f 421 473 422
f 422 473 474
f 422 474 475
f 422 475 424
f 424 475 425
f 425 475 474
f 425 474 476
f 425 476 477
f 425 477 478
f 425 478 426
f 426 478 479
f 426 479 427
f 427 479 480
f 430 481 482
f 430 482 483
f 430 483 431
f 431 483 484
f 431 484 432
f 432 484 485
f 432 485 486
f 432 486 434
f 432 434 433
f 434 487 488
f 434 488 435
f 434 486 487
f 435 488 489
f 435 489 490
f 435 490 491
f 435 491 492
f 435 492 493
f 435 493 436
f 436 493 437
f 437 494 495
f 437 495 496
f 437 496 497
f 437 497 438
f 437 493 494
f 438 497 439
f 439 497 440
f 440 498 499
f 440 499 500
f 440 500 460
f 440 460 441
f 440 497 498
f 443 459 501
f 443 501 444
f 444 501 502
f 444 502 503
f 444 503 446
f 444 446 445
f 446 503 504
f 446 504 505
f 446 505 506
f 446 506 507
f 446 507 508
f 446 508 509
f 446 509 447
f 447 509 449
f 447 449 448
f 449 509 508
f 449 508 450
f 450 508 510
f 450 510 511
f 450 511 512
f 450 512 452
f 450 452 451
f 452 512 511
f 452 511 482
f 452 482 481
f 453 513 514
f 454 515 516
f 454 516 455
f 456 517 518
f 456 518 519
f 456 519 458
f 456 457 520
f 456 520 521
f 456 521 517
f 458 519 501
f 458 501 459
f 460 500 522
f 460 522 466
f 460 466 464
f 460 464 461
f 461 464 462
f 464 466 465
f 466 522 523
f 466 523 524
f 466 524 525
f 466 525 526
f 466 526 468
f 468 526 527
f 468 527 469
f 469 527 528
f 469 528 470
f 470 529 530
f 470 530 531
f 470 531 532
f 470 532 471
f 470 528 527
f 470 527 529
f 471 532 533
f 471 533 534
f 471 534 535
f 471 535 472
f 472 535 536
f 472 536 537
f 472 537 538
f 472 538 473
f 473 477 476
f 473 476 474
f 473 538 477
f 477 538 539
f 477 539 478
f 478 539 540
f 478 540 479
f 479 540 541
f 479 541 542
f 479 542 543
f 479 543 544
f 479 544 545
f 479 545 480
f 482 546 483
f 482 511 546
f 483 547 548
f 483 548 484
f 483 546 547
f 484 548 549
f 484 549 550
f 484 550 485
f 485 550 486
f 486 551 489
f 486 489 488
f 486 488 487
f 486 550 552
f 486 552 551
f 490 553 491
f 491 553 554
f 491 554 492
f 492 554 555
f 492 555 556
f 492 556 493
f 493 556 494
f 494 556 495
f 495 556 557
f 495 557 558
f 495 558 559
f 495 559 560
f 495 560 561
f 495 561 497
f 495 497 496
f 497 561 560
f 497 560 562
f 497 562 498
f 498 562 499
f 499 563 564
f 499 564 565
f 499 565 500
f 499 562 566
f 499 566 567
f 499 567 568
f 499 568 563
f 500 565 569
f 500 569 522
f 501 570 502
f 501 519 571
f 501 571 570
f 502 570 504
f 502 504 503
f 504 570 571
f 504 571 572
f 504 572 573
f 504 573 574
f 504 574 505
f 505 574 506
f 506 574 573
f 506 573 575
f 506 575 576
f 506 576 507
f 507 577 508
f 508 577 578
f 508 578 510
f 510 578 579
f 510 579 511
f 511 579 580
f 511 580 546
f 513 581 582
f 513 582 583
f 513 583 514
f 514 583 584
f 514 584 521
f 515 585 586
f 515 586 516
f 517 587 518
f 517 521 587
f 518 587 582
f 518 582 588
f 518 588 519
f 519 588 571
f 521 584 587
f 522 569 589
f 522 589 590
f 522 590 591
f 522 591 592
f 522 592 523
f 523 593 524
f 523 592 591
f 523 591 593
f 524 593 594
f 524 594 595
f 524 595 525
f 525 595 527
f 525 527 526
f 527 595 596
f 527 596 529
f 529 596 530
f 530 596 597
f 530 597 531
f 531 597 533
f 531 533 532
f 533 597 596
f 533 596 598
f 533 598 534
f 534 598 599
f 534 599 535
f 535 599 600
f 535 600 536
f 536 601 602
f 536 602 603
f 536 603 537
f 536 600 601
f 537 603 604
f 537 604 542
f 537 542 541
f 537 541 540
f 537 540 538
f 538 540 539
f 542 604 605
f 542 605 543
f 543 605 544
f 544 606 607
f 544 607 608
f 544 608 545
f 544 605 606
f 546 609 610
f 546 610 547
f 547 610 548
f 548 610 609
f 548 611 612
f 548 612 549
f 549 612 613
f 549 613 550
f 550 613 614
f 550 614 552
f 555 615 616
f 555 616 617
f 555 617 618
f 555 618 556
f 556 618 557
f 557 618 558
f 558 618 616
f 558 616 619
f 558 619 559
f 559 619 620
f 559 620 560
f 560 620 567
f 560 567 566
f 560 566 562
f 563 568 621
f 563 621 622
f 563 622 564
f 564 622 565
f 565 622 589
f 565 589 569
f 567 623 568
f 567 620 624
f 567 624 623
f 568 625 626
f 568 626 621
f 571 588 627
f 571 627 628
f 571 628 629
f 571 629 572
f 572 629 630
f 572 630 575
f 572 575 573
f 581 631 628
f 581 628 582
f 582 587 583
f 582 628 627
f 582 627 588
f 583 587 584
f 585 632 586
f 586 632 633
f 589 622 590
f 590 622 593
f 590 593 591
f 593 634 635
f 593 635 594
f 593 622 634
f 594 636 637
f 594 637 638
f 594 638 595
f 594 635 639
f 594 639 636
f 595 638 640
f 595 640 641
f 595 641 642
f 595 642 596
f 596 642 598
f 598 642 641
f 598 641 599
f 599 641 600
f 600 641 643
f 600 643 601
f 601 643 641
f 601 641 644
f 601 644 645
f 601 645 646
f 601 646 647
f 601 647 602
f 602 647 603
f 603 647 648
f 603 648 604
f 604 648 649
f 604 649 605
f 605 649 606
f 606 649 648
f 606 648 607
f 607 650 681
f 607 681 651
f 607 651 652
f 607 652 608
f 607 648 650
f 611 613 612
f 615 653 616
f 616 653 654
f 616 654 619
f 616 618 617
f 619 654 620
f 620 654 624
f 621 626 655
f 621 655 622
f 622 655 634
f 625 656 626
f 626 656 657
f 626 657 655
f 628 631 629
f 632 658 659
f 632 659 633
f 634 655 635
f 635 655 657
f 635 657 639
f 636 639 660
f 636 660 637
f 637 661 662
f 637 662 638
f 637 660 639
f 637 639 657
f 637 657 663
f 637 663 661
f 638 662 664
f 638 664 640
f 640 664 665
f 640 665 666
f 640 666 667
f 640 667 668
f 640 668 641
f 641 669 670
f 641 670 671
f 641 671 672
f 641 672 645
f 641 645 644
f 641 668 673
f 641 673 674
f 641 674 669
f 645 672 675
f 645 675 676
f 645 676 647
f 645 647 646
f 647 676 675
f 647 675 677
f 647 677 678
f 647 678 679
f 647 679 680
f 647 680 648
f 648 680 681
f 648 681 650
f 651 681 680
f 651 680 682
f 651 682 683
f 651 683 652
f 652 683 684
f 656 685 657
f 657 685 663
f 658 686 659
f 659 686 687
f 659 687 688
f 661 689 662
f 662 689 665
f 662 665 664
f 665 689 674
f 665 674 666
f 666 674 667
f 667 674 668
f 668 674 673
f 669 674 690
f 669 690 670
f 670 690 691
f 670 691 671
f 671 691 692
f 671 692 693
f 671 693 672
f 672 693 675
f 674 689 690
f 675 694 695
f 675 695 696
f 675 696 677
f 675 693 692
f 675 692 694
f 677 696 697
f 677 697 678
f 678 697 679
f 679 697 680
f 680 697 698
f 680 698 682
f 682 698 707
f 682 707 706
f 682 706 705
f 682 705 709
f 682 709 702
f 682 702 699
f 682 699 684
f 682 684 683
f 687 700 688
f 688 700 701
f 688 701 702
f 690 703 691
f 691 703 694
f 691 694 692
f 694 704 695
f 694 703 704
f 695 704 705
f 695 705 696
f 696 705 706
f 696 706 707
f 696 707 697
f 697 707 698
f 699 708 700
f 699 702 701
f 699 701 708
f 700 708 701
f 704 709 705
