v 0.190001 -0.489772 -0.0205507
v 0.190001 -0.432584 -0.0537964
v 0.0470771 -0.432584 -0.122294
v 0.0470771 -0.489772 -0.0979711
v 0.190001 -0.489772 -0.146197
v 0.190001 -0.432584 -0.169545
v 0.0470771 -0.432584 -0.215745
v 0.0470771 -0.489772 -0.196237
v 0.186979 -0.489772 -0.14847
v 0.186783 -0.484314 -0.151031
v 0.190001 -0.48736 -0.147247
v 0.190001 -0.434616 -0.168972
v 0.18786 -0.432584 -0.17094
v 0.0838469 -0.432584 -0.210892
v 0.0838469 -0.442212 -0.207625
v 0.0740248 -0.488865 -0.193046
v 0.0470771 -0.483727 -0.198339
v 0.0659936 -0.489772 -0.193791
v 0.180431 -0.489772 -0.153323
v 0.179591 -0.489 -0.154279
v 0.182319 -0.480401 -0.155941
v 0.190001 -0.474977 -0.152521
v 0.190001 -0.484113 -0.148642
v 0.190001 -0.486565 -0.147591
v 0.18071 -0.451667 -0.167749
v 0.190001 -0.443321 -0.165494
v 0.187468 -0.432584 -0.17115
v 0.0843366 -0.432584 -0.210815
v 0.0924656 -0.440175 -0.206918
v 0.0838469 -0.486968 -0.192397
v 0.0751581 -0.489772 -0.192569
v 0.179171 -0.489772 -0.154164
v 0.172637 -0.489772 -0.157049
v 0.174834 -0.484314 -0.158157
v 0.174274 -0.432584 -0.177379
v 0.16066 -0.483239 -0.164539
v 0.164564 -0.473734 -0.166392
v 0.172637 -0.432584 -0.178086
v 0.173855 -0.432584 -0.17757
v 0.0966911 -0.432584 -0.208484
v 0.096859 -0.432584 -0.208446
v 0.0917241 -0.478604 -0.193925
v 0.0838469 -0.489772 -0.191384
v 0.167013 -0.489772 -0.159418
v 0.152182 -0.487214 -0.166602
v 0.110893 -0.484952 -0.184544
v 0.121792 -0.444009 -0.194976
v 0.109801 -0.432584 -0.204109
v 0.101056 -0.437006 -0.205809
v 0.109591 -0.432584 -0.204185
v 0.0963133 -0.483234 -0.190753
v 0.0965232 -0.489772 -0.188289
v 0.154644 -0.489772 -0.164596
v 0.151034 -0.489772 -0.166106
v 0.116447 -0.489772 -0.180474
v 0.115706 -0.489772 -0.18078
v 0.10906 -0.489772 -0.183455
v 0.10461 -0.465976 -0.194059
v 0.100315 -0.474574 -0.192492
f 1 2 3
f 1 3 4
f 1 4 8
f 1 8 18
f 1 18 31
f 1 31 43
f 1 43 52
f 1 52 57
f 1 57 56
f 1 56 55
f 1 55 54
f 1 54 53
f 1 53 44
f 1 44 33
f 1 33 32
f 1 32 19
f 1 19 9
f 1 9 5
f 1 5 11
f 1 11 24
f 1 24 23
f 1 23 22
f 1 22 26
f 1 26 12
f 1 12 6
f 1 6 2
f 2 6 13
f 2 13 27
f 2 27 35
f 2 35 39
f 2 39 38
f 2 38 48
f 2 48 50
f 2 50 41
f 2 41 40
f 2 40 28
f 2 28 14
f 2 14 7
f 2 7 3
f 3 7 17
f 3 17 8
f 3 8 4
f 5 9 10
f 5 10 11
f 6 12 13
f 7 14 15
f 7 15 16
f 7 16 17
f 8 17 18
f 9 19 10
f 10 19 20
f 10 20 21
f 10 21 22
f 10 22 23
f 10 23 24
f 10 24 11
f 12 25 13
f 12 26 21
f 12 21 20
f 12 20 25
f 13 25 27
f 14 28 15
f 15 28 29
f 15 29 30
f 15 30 16
f 16 30 31
f 16 31 18
f 16 18 17
f 19 32 20
f 20 32 33
f 20 33 34
f 20 34 25
f 21 26 22
f 25 35 27
f 25 34 36
f 25 36 37
f 25 37 38
f 25 38 39
f 25 39 35
f 28 40 29
f 29 40 41
f 29 41 42
f 29 42 30
f 30 42 43
f 30 43 31
f 33 44 36
f 33 36 34
f 36 44 45
f 36 45 38
f 36 38 37
f 38 46 47
f 38 47 48
f 38 45 46
f 41 49 42
f 41 50 49
f 42 51 52
f 42 52 43
f 42 49 51
f 44 53 45
f 45 53 54
f 45 54 55
f 45 55 46
f 46 55 56
f 46 56 57
f 46 57 58
f 46 58 48
f 46 48 47
f 48 49 50
f 48 58 49
f 49 58 59
f 49 59 51
f 51 59 52
f 52 59 58
f 52 58 57
