v -0.0322397 0.264949 -0.646728
v -0.032747 0.264949 -0.646656
v -0.0388694 0.271112 -0.645014
v -0.0322397 0.272578 -0.6454
v -0.0232233 0.272919 -0.645497
v -0.0194069 0.264949 -0.646101
v -0.0402645 0.264949 -0.645497
v -0.0322397 0.279043 -0.643686
v -0.0467097 0.264949 -0.643251
v -0.0439541 0.276192 -0.641851
v -0.0451417 0.290245 -0.637601
v -0.0322397 0.290245 -0.640668
v -0.0193493 0.290245 -0.640137
v -0.0190956 0.277276 -0.643493
v -0.0146336 0.268563 -0.644604
v -0.0184384 0.264949 -0.645907
v -0.0472055 0.264949 -0.64301
v -0.054135 0.290245 -0.633714
v -0.0524516 0.298035 -0.632579
v -0.044496 0.302653 -0.633811
v -0.0397687 0.310523 -0.632458
v -0.0322397 0.303155 -0.636563
v -0.0193493 0.303155 -0.636056
v -0.012662 0.30978 -0.632144
v -0.00760033 0.30189 -0.63311
v -0.00645887 0.290245 -0.636225
v -0.00645887 0.277356 -0.639533
v -0.00717372 0.264949 -0.642455
v -0.00831518 0.264949 -0.642889
v -0.0135382 0.264949 -0.644869
v -0.0589314 0.264949 -0.63608
v -0.0563949 0.277356 -0.635477
v -0.0628401 0.277356 -0.630454
v -0.0605802 0.290245 -0.628547
v -0.0582281 0.303195 -0.625673
v -0.055853 0.316044 -0.622486
v -0.0534547 0.325159 -0.620482
v -0.0483701 0.306648 -0.630889
v -0.0322397 0.312169 -0.63311
v -0.044496 0.315301 -0.628716
v -0.0450725 0.329254 -0.622148
v -0.0407373 0.336723 -0.619951
v -0.0322397 0.328953 -0.62577
v -0.0322397 0.318614 -0.63043
v -0.0193493 0.311607 -0.632893
v -0.0193493 0.318052 -0.630261
v -0.0193493 0.328953 -0.625408
v -0.01114 0.336382 -0.619734
v -0.00667794 0.328993 -0.621665
v -0.00760033 0.314859 -0.628088
v -0.00406065 0.305343 -0.630454
v 9.40662e-06 0.29675 -0.632072
v 0.00269587 0.277356 -0.634487
v 0.00414864 0.264949 -0.635766
v -0.0598884 0.264949 -0.63538
v -0.0640622 0.268462 -0.631613
v -0.068582 0.277356 -0.624007
v -0.0669678 0.290245 -0.6221
v -0.0655957 0.299742 -0.620482
v -0.0640161 0.308335 -0.618599
v -0.0622982 0.316044 -0.616884
v -0.0586893 0.329676 -0.61319
v -0.0552765 0.341842 -0.609496
v -0.0527745 0.349733 -0.607154
v -0.049327 0.333752 -0.618285
v -0.0322397 0.344934 -0.617198
v -0.0322397 0.33849 -0.620941
v -0.0450725 0.341341 -0.615532
v -0.0451417 0.352403 -0.608844
v -0.0380162 0.360935 -0.606091
v -0.0193493 0.338249 -0.620772
v -0.00645887 0.352383 -0.608723
v -0.00667794 0.34116 -0.615339
v -0.0025387 0.33331 -0.618116
v -0.0193493 0.344693 -0.617126
v -0.0137919 0.360835 -0.606019
v 0.00109322 0.324717 -0.620144
v 0.00915262 0.277356 -0.628643
v 0.00296106 0.316044 -0.621907
v 0.00572824 0.301408 -0.624949
v 0.0131766 0.297453 -0.619444
v 0.00736548 0.290245 -0.626953
v 0.0103402 0.264949 -0.630092
v -0.0681554 0.264949 -0.627436
v -0.0689279 0.264949 -0.626494
v -0.0762378 0.264949 -0.615653
v -0.0750272 0.277356 -0.613745
v -0.074001 0.289262 -0.6115
v -0.0693199 0.303677 -0.613673
v -0.0678441 0.316044 -0.610438
v -0.0659647 0.3256 -0.608071
v -0.0639239 0.334213 -0.605512
v -0.0617332 0.341842 -0.603121
v -0.0577093 0.353888 -0.599282
v -0.0540428 0.364188 -0.595709
v -0.0490964 0.372761 -0.592256
v -0.0451417 0.358847 -0.604667
v -0.0331275 0.355876 -0.610389
v -0.0294264 0.362401 -0.60713
v -0.0223817 0.362401 -0.60713
v -0.0449341 0.368123 -0.597689
v -0.0404951 0.375029 -0.594115
v -0.0322397 0.376756 -0.595395
v -0.0331275 0.367079 -0.602638
v -0.00645887 0.358827 -0.604715
v 0.000943329 0.349793 -0.60713
v -0.0185999 0.355816 -0.610317
v -0.0185999 0.367079 -0.602638
v -0.0101254 0.37517 -0.594187
v -0.00152407 0.373283 -0.592787
v 0.00313401 0.341842 -0.609351
v 0.00646615 0.329054 -0.61278
v 0.0139491 0.324797 -0.607443
v 0.00940627 0.316044 -0.615798
v 0.0105939 0.264949 -0.629851
v 0.0140644 0.290245 -0.620506
v 0.0152981 0.277356 -0.622196
v 0.0114471 0.306066 -0.617778
v 0.0153211 0.316044 -0.609351
v 0.0159437 0.302312 -0.61319
v -0.0763416 0.264949 -0.615387
v -0.0774369 0.284323 -0.606381
v -0.0770449 0.292916 -0.604522
v -0.0761456 0.303155 -0.601818
v -0.0746121 0.31488 -0.598582
v -0.0692392 0.329515 -0.600659
v -0.0669678 0.341842 -0.596675
v -0.0651461 0.349452 -0.594236
v -0.0626441 0.358064 -0.590783
v -0.0586201 0.368002 -0.587234
v -0.0545962 0.37778 -0.58366
v -0.0503993 0.386373 -0.579845
v -0.045453 0.380691 -0.587065
v -0.0193493 0.383321 -0.5903
v -0.0193493 0.376856 -0.595467
v -0.041798 0.38836 -0.581849
v -0.0322397 0.3832 -0.590131
v 0.00234998 0.36471 -0.595829
v 0.0059473 0.353989 -0.599331
v 0.0136723 0.349572 -0.594212
v 0.00957922 0.341842 -0.60288
v -0.00607838 0.379888 -0.588948
v 0.000205415 0.387176 -0.580666
v 0.0118276 0.33339 -0.605174
v 0.0152289 0.341842 -0.596409
v 0.0167393 0.329034 -0.600465
v 0.0159207 0.264949 -0.623404
v 0.0183189 0.290245 -0.612707
v 0.0200714 0.277356 -0.612707
v 0.0202444 0.316044 -0.599813
v -0.0780711 0.264949 -0.609206
v -0.079985 0.264949 -0.599813
v -0.0791895 0.277356 -0.599813
v -0.0782094 0.289262 -0.600055
v -0.0777482 0.303155 -0.595346
v -0.0774139 0.3098 -0.593463
v -0.076895 0.318393 -0.590469
v -0.0759035 0.328712 -0.586485
v -0.0723407 0.341842 -0.58692
v -0.0675212 0.35415 -0.586654
v -0.065688 0.363264 -0.582187
v -0.0631975 0.371837 -0.578445
v -0.0588277 0.381313 -0.574847
v -0.0544694 0.390528 -0.571249
v -0.0501341 0.399141 -0.566734
v -0.0415444 0.401109 -0.568859
v -0.0193493 0.390448 -0.583853
v -0.00645887 0.38838 -0.581825
v -0.0322397 0.402976 -0.57079
v -0.0322397 0.396692 -0.577237
v -0.0322397 0.390227 -0.583684
v 0.00276505 0.38053 -0.583419
v 0.00721559 0.368745 -0.587716
v 0.0109513 0.358185 -0.591218
v 0.0120812 0.372821 -0.579483
v 0.0146408 0.364228 -0.582622
v 0.016232 0.35423 -0.58692
v 0.000401423 0.400225 -0.567941
v 0.00263822 0.392255 -0.572939
v 0.0123925 0.386292 -0.566951
v 0.0096484 0.381414 -0.574702
v 0.020302 0.341842 -0.58692
v 0.0209246 0.264949 -0.613094
v 0.0221814 0.303155 -0.599813
v 0.0211091 0.264949 -0.612707
v 0.0238648 0.289844 -0.598799
v 0.0234958 0.327709 -0.58564
v -0.0800196 0.264949 -0.599306
v -0.0800196 0.290245 -0.58692
v -0.0792587 0.303155 -0.58692
v -0.078025 0.31488 -0.586485
v -0.0776214 0.324255 -0.581873
v -0.0770564 0.332848 -0.578348
v -0.0763185 0.341863 -0.574026
v -0.0731824 0.354752 -0.574026
v -0.0680401 0.367581 -0.574098
v -0.0659647 0.376274 -0.569849
v -0.0630707 0.384867 -0.565237
v -0.0585855 0.393921 -0.561687
v -0.0541004 0.402675 -0.558138
v -0.0530627 0.414359 -0.544013
v -0.0482778 0.411268 -0.552609
v -0.0449111 0.406188 -0.560963
v -0.0396765 0.413155 -0.555168
v -0.0322397 0.409421 -0.56345
v -0.0193493 0.396893 -0.577551
v -0.00645887 0.394825 -0.575571
v -0.0193493 0.409762 -0.563957
v -0.0193493 0.403317 -0.571104
v 0.0152404 0.377699 -0.570863
v 0.0174657 0.368163 -0.574702
v 0.0223198 0.354752 -0.574026
v 0.00997124 0.394363 -0.562025
v -0.00645887 0.40141 -0.569124
v -0.00576707 0.408638 -0.560553
v -0.00101676 0.412432 -0.554275
v 0.0032839 0.415805 -0.545679
v 0.0031686 0.403116 -0.561108
v 0.0124271 0.399282 -0.553985
v 0.0155517 0.390689 -0.558355
v 0.0246603 0.342947 -0.574098
v 0.0242683 0.316044 -0.588272
v 0.0259402 0.285266 -0.593825
v 0.0260093 0.277356 -0.594139
v 0.0248679 0.264949 -0.598268
v 0.0252253 0.331182 -0.578469
v 0.0258018 0.322589 -0.580497
v -0.0800888 0.264949 -0.58692
v -0.0801349 0.277356 -0.58692
v -0.0792817 0.316044 -0.574026
v -0.0782901 0.328712 -0.574026
v -0.0777367 0.337566 -0.569752
v -0.0770449 0.346159 -0.565189
v -0.0762839 0.354451 -0.560987
v -0.0731939 0.367621 -0.561108
v -0.0679132 0.38055 -0.561011
v -0.0656764 0.388721 -0.556641
v -0.0627017 0.397314 -0.551232
v -0.0578822 0.405867 -0.547635
v -0.0619292 0.409421 -0.53532
v -0.0547691 0.418897 -0.534137
v -0.0517022 0.425763 -0.529043
v -0.0451417 0.423113 -0.537832
v -0.0444499 0.416106 -0.548262
v -0.0322397 0.41456 -0.557003
v -0.0368402 0.42496 -0.540632
v -0.0324242 0.421507 -0.547659
v -0.0282388 0.426546 -0.542999
v -0.0193493 0.414982 -0.55751
v -0.00961806 0.413717 -0.555868
v 0.0181921 0.381414 -0.562025
v 0.0243606 0.381032 -0.548407
v 0.0238763 0.36746 -0.560649
v 0.0251792 0.354752 -0.565213
v -0.0128003 0.425703 -0.541816
v -0.00419901 0.424418 -0.539932
v 0.00202714 0.427168 -0.531336
v 0.0069504 0.41962 -0.535779
v 0.0118852 0.411549 -0.540246
v 0.0153557 0.402956 -0.545389
v 0.0183765 0.394363 -0.549108
v 0.0257441 0.347966 -0.567362
v 0.0264359 0.339373 -0.569873
v 0.0261708 0.316044 -0.581825
v 0.0282922 0.354752 -0.548214
v 0.0291224 0.367621 -0.53532
v 0.0259402 0.268723 -0.593946
v 0.031486 0.393419 -0.496639
v 0.0363747 0.419218 -0.419252
v 0.037643 0.418676 -0.400057
v 0.0248794 0.264949 -0.588344
v -0.0775061 0.354752 -0.540705
v -0.0800312 0.264949 -0.586509
v -0.0672791 0.412593 -0.400057
v -0.067821 0.419218 -0.400057
v -0.0774715 0.361598 -0.540608
v -0.0774715 0.361598 -0.542395
v -0.0780941 0.341863 -0.560987
v -0.0776675 0.349953 -0.556593
v -0.0769411 0.358546 -0.550991
v -0.0759265 0.366597 -0.547297
v -0.0723984 0.38053 -0.548214
v -0.0671177 0.393179 -0.547442
v -0.0649385 0.400466 -0.542637
v -0.0639008 0.41201 -0.527473
v -0.0451417 0.427148 -0.531385
v -0.0601997 0.418816 -0.52291
v -0.0531204 0.427369 -0.522451
v -0.0514601 0.438492 -0.502845
v -0.0463523 0.437207 -0.510764
v -0.0385466 0.438532 -0.515883
v -0.0324242 0.429317 -0.535924
v -0.0299568 0.439997 -0.518587
v -0.0193493 0.440319 -0.519095
v -0.0193493 0.436624 -0.525517
v -0.0193493 0.430842 -0.53532
v -0.0193493 0.426345 -0.542709
v -0.0193493 0.421426 -0.549156
v 0.0243951 0.394142 -0.5359
v 0.0253291 0.371636 -0.55285
v 0.0255827 0.39892 -0.527884
v 0.0255135 0.38569 -0.540584
v 0.0261477 0.363043 -0.556037
v 0.026851 0.354752 -0.558766
v -0.00768104 0.428172 -0.535514
v -0.00952582 0.439475 -0.517525
v -0.000924515 0.438311 -0.515497
v 0.00684664 0.43538 -0.510523
v 0.00637391 0.429317 -0.521654
v 0.0106284 0.423414 -0.525397
v 0.0147216 0.414801 -0.53165
v 0.0179153 0.406871 -0.535683
v 0.0239455 0.406811 -0.523151
v 0.0271969 0.36746 -0.548407
v 0.0298142 0.38053 -0.522451
v 0.0259402 0.268723 -0.592594
v 0.0319703 0.406329 -0.483745
v 0.0330656 0.406329 -0.470852
v 0.03551 0.419218 -0.432146
v 0.0354638 0.432127 -0.400057
v 0.0372164 0.419218 -0.406334
v 0.0365015 0.406891 -0.400057
v 0.024741 0.264949 -0.587644
v -0.0781748 0.264949 -0.578082
v -0.0665527 0.405927 -0.400057
v -0.0670024 0.424578 -0.400057
v -0.0682361 0.419218 -0.406334
v -0.0717066 0.406329 -0.457934
v -0.0725367 0.406329 -0.470852
v -0.0742893 0.393419 -0.496639
v -0.0755345 0.38053 -0.522451
v -0.0742086 0.393419 -0.509533
v -0.0746236 0.38053 -0.53532
v -0.0731017 0.393419 -0.522451
v -0.0708418 0.393419 -0.53532
v -0.0664374 0.402976 -0.53532
v -0.0655957 0.414239 -0.518901
v -0.0622866 0.422972 -0.509533
v -0.0558414 0.430441 -0.509533
v -0.0639239 0.4249 -0.501347
v -0.0583895 0.432549 -0.497798
v -0.0528437 0.439917 -0.494225
v -0.0492233 0.449895 -0.470852
v -0.0450149 0.448389 -0.483938
v -0.040622 0.452344 -0.479785
v -0.0365865 0.450799 -0.488381
v -0.0428588 0.440519 -0.507287
v -0.0322743 0.449052 -0.496422
v -0.0334504 0.442567 -0.510764
v -0.0334504 0.436504 -0.522716
v -0.0193493 0.444996 -0.509533
v -0.0279967 0.452164 -0.491955
v 0.0264359 0.377077 -0.544254
v 0.0265166 0.390308 -0.531988
v 0.0253982 0.411428 -0.51441
v 0.0264821 0.402815 -0.519312
v 0.0276581 0.394142 -0.523151
v 0.0275659 0.381032 -0.5359
v -0.00572095 0.435741 -0.522064
v -0.0110247 0.451963 -0.491327
v -0.00572095 0.441965 -0.510523
v -0.00662029 0.448771 -0.496035
v -0.0024234 0.450839 -0.488526
v 0.00281117 0.440379 -0.506901
v 0.0133726 0.426205 -0.516801
v 0.0114125 0.437267 -0.500406
v 0.0166125 0.419158 -0.521654
v 0.0302408 0.393419 -0.509533
v 0.030114 0.406329 -0.496639
v 0.0312093 0.419218 -0.470852
v 0.033008 0.419218 -0.457934
v 0.0344723 0.419218 -0.44504
v 0.0326621 0.438371 -0.400057
v 0.0349335 0.432127 -0.406334
v 0.0289495 0.44333 -0.419252
v 0.0315783 0.393419 -0.400057
v 0.0215588 0.264949 -0.574026
v -0.0780941 0.264949 -0.577841
v -0.0647079 0.399222 -0.400057
v -0.0658724 0.430842 -0.400057
v -0.0698618 0.419218 -0.432146
v -0.0690662 0.419218 -0.419252
v -0.0702884 0.419218 -0.44504
v -0.0727327 0.406329 -0.483745
v -0.0721678 0.406329 -0.496639
v -0.0709225 0.406329 -0.509533
v -0.0680055 0.407152 -0.52291
v -0.0667602 0.416528 -0.509533
v -0.0651922 0.426606 -0.492752
v -0.0544694 0.441684 -0.483745
v -0.0508029 0.450879 -0.461386
v -0.0459603 0.454593 -0.457427
v -0.0427781 0.453589 -0.470852
v -0.0561758 0.44345 -0.470852
v -0.0322397 0.460797 -0.457934
v -0.0322397 0.457584 -0.470852
v -0.0322743 0.45369 -0.483938
v -0.0193493 0.449694 -0.498812
v -0.025391 0.46435 -0.451318
v -0.0193493 0.459492 -0.470852
v -0.0193493 0.455517 -0.483745
v -0.0193493 0.452365 -0.492365
v 0.0223889 0.418816 -0.509895
v 0.0243375 0.422852 -0.499512
v 0.0259978 0.426004 -0.490892
v 0.0263437 0.414259 -0.505814
v 0.0274736 0.406811 -0.509895
v -0.0121431 0.464571 -0.452211
v -0.00645887 0.457825 -0.470852
v -0.00662029 0.453569 -0.484035
v 0.00190031 0.452425 -0.479906
v 0.0062932 0.448008 -0.484035
v 0.00684664 0.442326 -0.496325
v 0.0153903 0.428313 -0.509533
v 0.0136377 0.439355 -0.49181
v 0.0291685 0.419218 -0.483745
v 0.0311171 0.432127 -0.44504
v 0.0325814 0.432127 -0.432146
v 0.0338151 0.432127 -0.419252
v 0.0295029 0.444314 -0.406334
v 0.0294683 0.445277 -0.400057
v 0.0283268 0.442226 -0.432146
v 0.0255712 0.45122 -0.400057
v 0.0262976 0.450136 -0.400057
v 0.0271623 0.385509 -0.400057
v 0.0163012 0.264949 -0.563015
v -0.0759842 0.264949 -0.571635
v -0.0621022 0.393179 -0.400057
v -0.0649846 0.434155 -0.400057
v -0.0660223 0.431404 -0.406334
v -0.0659877 0.433352 -0.418431
v -0.0667487 0.432127 -0.432146
v -0.070323 0.419218 -0.457934
v -0.0701039 0.419218 -0.470852
v -0.0693545 0.419218 -0.483745
v -0.0673713 0.420041 -0.496881
v -0.0659762 0.427971 -0.483745
v -0.0645234 0.438612 -0.45168
v -0.062621 0.436002 -0.470852
v -0.0609146 0.434416 -0.483745
v -0.0518406 0.451722 -0.452791
v -0.0451417 0.457183 -0.44504
v -0.0320091 0.463166 -0.446223
v -0.0577785 0.444735 -0.456533
v -0.0168012 0.464571 -0.452211
v -0.0203985 0.463106 -0.457089
v -0.0275586 0.464872 -0.442722
v -0.0193493 0.468647 -0.419252
v -0.0193493 0.467221 -0.432146
v -0.0203985 0.465294 -0.446223
v 0.0266665 0.427329 -0.483745
v 0.027024 0.418816 -0.49577
v 0.0189876 0.431625 -0.495649
v 0.0154134 0.441162 -0.483745
v 0.0218701 0.433774 -0.483745
v 0.0243375 0.436424 -0.470852
v 0.0255366 0.43811 -0.463608
v 0.0266665 0.439736 -0.455012
v -0.00645887 0.467803 -0.419252
v -0.00991784 0.465153 -0.44504
v -0.00347262 0.463447 -0.44504
v -0.00728902 0.461921 -0.457089
v 0.00444842 0.45381 -0.470852
v 0.0108936 0.450096 -0.470852
v 0.0285344 0.433131 -0.458755
v 0.0275543 0.440981 -0.44504
v 0.0242453 0.449775 -0.419252
v 0.0251561 0.450758 -0.406334
v 0.0178 0.45632 -0.419252
v 0.0187109 0.457203 -0.406334
v 0.0190914 0.457625 -0.400057
v 0.0239339 0.382197 -0.400057
v 0.0112626 0.264949 -0.556593
v 0.0208439 0.379045 -0.400057
v 0.0143872 0.372841 -0.400057
v -0.0758112 0.264949 -0.571273
v -0.0554264 0.38312 -0.400057
v -0.064143 0.437287 -0.400057
v -0.0642928 0.437849 -0.406334
v -0.0644658 0.438471 -0.413578
v -0.0646042 0.438773 -0.422174
v -0.0647656 0.438993 -0.432146
v -0.0667833 0.432127 -0.44504
v -0.0646964 0.438873 -0.44504
v -0.0664835 0.429557 -0.470852
v -0.0528898 0.452786 -0.432146
v -0.0523248 0.452224 -0.44504
v -0.0451417 0.458548 -0.432146
v -0.0389386 0.464511 -0.414471
v -0.037924 0.46415 -0.423067
v -0.0362175 0.463668 -0.432146
v -0.0297608 0.465475 -0.432146
v -0.0330699 0.465816 -0.418963
v -0.0193493 0.469651 -0.406334
v -0.00645887 0.46951 -0.400057
v -0.00645887 0.469008 -0.406334
v 0.0126346 0.45128 -0.463801
v 0.0178923 0.443651 -0.470852
v 0.0198293 0.445518 -0.459406
v 0.014122 0.452666 -0.455205
v 0.0218355 0.447446 -0.44504
v 0.00273046 0.465234 -0.419252
v 0.00110475 0.464732 -0.428114
v -0.00581319 0.465977 -0.432291
v -0.00108593 0.464089 -0.43671
v 0.00644309 0.459432 -0.44504
v 0.00757302 0.455517 -0.458875
v 0.0231153 0.448691 -0.432146
v 0.0121389 0.464049 -0.400057
v 0.0137761 0.462644 -0.400057
v 0.0166701 0.455195 -0.432146
v 0.0048289 0.264949 -0.550098
v 0.0103056 0.370954 -0.400057
v -0.0690432 0.264949 -0.560166
v -0.0488197 0.376655 -0.400057
v -0.068778 0.264949 -0.559756
v -0.0683398 0.264949 -0.559225
v -0.0618831 0.441342 -0.400057
v -0.0594964 0.445016 -0.400057
v -0.0566024 0.449032 -0.400057
v -0.0533856 0.453268 -0.400057
v -0.0533856 0.453268 -0.406334
v -0.0532472 0.453148 -0.419252
v -0.0457412 0.459733 -0.406334
v -0.0440002 0.460415 -0.418963
v -0.039296 0.464732 -0.406334
v -0.0322397 0.467141 -0.400057
v -0.0322397 0.46684 -0.406334
v -0.0193493 0.470052 -0.400057
v 0.00609719 0.465977 -0.400057
v 0.00475973 0.465836 -0.406334
v 0.0153788 0.45391 -0.44504
v 0.0107322 0.464531 -0.400057
v 0.0112049 0.463648 -0.406334
v 0.00582047 0.462021 -0.432291
v 0.00918721 0.462764 -0.419252
v -0.00544424 0.264949 -0.543409
v 0.00644309 0.369307 -0.400057
v -0.0423745 0.371576 -0.400057
v -0.0580667 0.264949 -0.548721
v -0.0459603 0.459733 -0.400057
v -0.0428242 0.462302 -0.400057
v -0.0395151 0.464872 -0.400057
v -0.0113937 0.264949 -0.541164
v -0.000175071 0.367159 -0.400057
v -0.00645887 0.365252 -0.400057
v -0.0322397 0.36738 -0.400057
v -0.0579399 0.264949 -0.548601
v -0.0578592 0.264949 -0.548552
v -0.0451417 0.264949 -0.541405
v -0.0188535 0.264949 -0.538894
v -0.013077 0.36485 -0.400057
v -0.0259675 0.365975 -0.400057
v -0.0332659 0.264949 -0.538532
v -0.0193493 0.364589 -0.400057
v -0.0316978 0.264949 -0.538556
f 1 2 3
f 1 3 4
f 1 4 5
f 1 5 6
f 1 6 16
f 1 16 30
f 1 30 29
f 1 29 28
f 1 28 54
f 1 54 83
f 1 83 115
f 1 115 147
f 1 147 183
f 1 183 185
f 1 185 225
f 1 225 271
f 1 271 323
f 1 323 377
f 1 377 426
f 1 426 473
f 1 473 512
f 1 512 537
f 1 537 544
f 1 544 551
f 1 551 556
f 1 556 554
f 1 554 550
f 1 550 549
f 1 549 548
f 1 548 540
f 1 540 517
f 1 517 516
f 1 516 514
f 1 514 476
f 1 476 427
f 1 427 378
f 1 378 324
f 1 324 273
f 1 273 228
f 1 228 188
f 1 188 152
f 1 152 151
f 1 151 121
f 1 121 86
f 1 86 85
f 1 85 84
f 1 84 55
f 1 55 31
f 1 31 17
f 1 17 9
f 1 9 7
f 1 7 2
f 2 7 3
f 3 8 4
f 3 7 9
f 3 9 10
f 3 10 11
f 3 11 12
f 3 12 8
f 4 8 5
f 5 8 12
f 5 12 13
f 5 13 14
f 5 14 15
f 5 15 6
f 6 15 16
f 9 17 18
f 9 18 10
f 10 18 19
f 10 19 11
f 11 19 20
f 11 20 21
f 11 21 12
f 12 21 22
f 12 22 23
f 12 23 13
f 13 23 24
f 13 24 25
f 13 25 26
f 13 26 15
f 13 15 14
f 15 26 27
f 15 27 28
f 15 28 29
f 15 29 30
f 15 30 16
f 17 31 32
f 17 32 18
f 18 32 33
f 18 33 34
f 18 34 19
f 19 34 35
f 19 35 36
f 19 36 37
f 19 37 38
f 19 38 20
f 20 38 21
f 21 39 22
f 21 38 40
f 21 40 41
f 21 41 42
f 21 42 43
f 21 43 44
f 21 44 39
f 22 39 45
f 22 45 23
f 23 45 24
f 24 46 47
f 24 47 48
f 24 48 49
f 24 49 50
f 24 50 51
f 24 51 52
f 24 52 25
f 24 45 46
f 25 52 26
f 26 52 27
f 27 52 28
f 28 52 53
f 28 53 54
f 31 55 32
f 32 55 56
f 32 56 33
f 33 56 57
f 33 57 58
f 33 58 59
f 33 59 34
f 34 59 60
f 34 60 35
f 35 60 36
f 36 60 61
f 36 61 37
f 37 61 62
f 37 62 63
f 37 63 64
f 37 64 65
f 37 65 41
f 37 41 40
f 37 40 38
f 39 44 46
f 39 46 45
f 41 65 42
f 42 66 67
f 42 67 43
f 42 65 68
f 42 68 69
f 42 69 70
f 42 70 66
f 43 67 71
f 43 71 47
f 43 47 44
f 44 47 46
f 47 71 48
f 48 72 73
f 48 73 74
f 48 74 49
f 48 71 75
f 48 75 76
f 48 76 72
f 49 74 50
f 50 74 77
f 50 77 51
f 51 77 52
f 52 78 53
f 52 77 79
f 52 79 80
f 52 80 81
f 52 81 82
f 52 82 78
f 53 78 54
f 54 78 83
f 55 84 56
f 56 84 85
f 56 85 57
f 57 85 86
f 57 86 87
f 57 87 88
f 57 88 58
f 58 88 89
f 58 89 59
f 59 89 90
f 59 90 60
f 60 90 91
f 60 91 61
f 61 91 92
f 61 92 62
f 62 92 63
f 63 92 93
f 63 93 64
f 64 93 94
f 64 94 95
f 64 95 96
f 64 96 97
f 64 97 69
f 64 69 65
f 65 69 68
f 66 70 98
f 66 98 99
f 66 99 67
f 67 99 100
f 67 100 75
f 67 75 71
f 69 97 70
f 70 97 101
f 70 101 102
f 70 102 103
f 70 103 104
f 70 104 99
f 70 99 98
f 72 76 105
f 72 105 106
f 72 106 73
f 73 106 74
f 74 106 77
f 75 107 76
f 75 100 107
f 76 100 108
f 76 108 109
f 76 109 110
f 76 110 105
f 76 107 100
f 77 106 111
f 77 111 112
f 77 112 113
f 77 113 114
f 77 114 79
f 78 115 83
f 78 82 116
f 78 116 117
f 78 117 115
f 79 114 118
f 79 118 80
f 80 118 81
f 81 116 82
f 81 118 113
f 81 113 119
f 81 119 120
f 81 120 116
f 86 121 122
f 86 122 123
f 86 123 87
f 87 123 88
f 88 123 124
f 88 124 89
f 89 124 90
f 90 124 125
f 90 125 126
f 90 126 91
f 91 126 127
f 91 127 92
f 92 127 128
f 92 128 93
f 93 128 94
f 94 128 129
f 94 129 95
f 95 129 130
f 95 130 131
f 95 131 132
f 95 132 96
f 96 102 101
f 96 101 97
f 96 132 133
f 96 133 102
f 99 104 103
f 99 103 134
f 99 134 100
f 100 134 135
f 100 135 108
f 102 133 136
f 102 136 137
f 102 137 103
f 103 137 134
f 105 110 106
f 106 110 138
f 106 138 139
f 106 139 140
f 106 140 141
f 106 141 111
f 108 135 109
f 109 135 134
f 109 134 142
f 109 142 110
f 110 142 143
f 110 143 138
f 111 141 144
f 111 144 112
f 112 144 113
f 113 144 140
f 113 140 145
f 113 145 146
f 113 146 119
f 113 118 114
f 115 117 147
f 116 120 148
f 116 148 117
f 117 148 149
f 117 149 147
f 119 146 150
f 119 150 120
f 120 150 148
f 121 151 122
f 122 152 153
f 122 153 154
f 122 154 123
f 122 151 152
f 123 154 155
f 123 155 156
f 123 156 157
f 123 157 124
f 124 157 125
f 125 157 158
f 125 158 159
f 125 159 126
f 126 159 127
f 127 159 160
f 127 160 128
f 128 160 161
f 128 161 129
f 129 161 162
f 129 162 130
f 130 162 131
f 131 162 163
f 131 163 164
f 131 164 132
f 132 136 133
f 132 164 165
f 132 165 166
f 132 166 136
f 134 137 167
f 134 167 168
f 134 168 142
f 136 166 169
f 136 169 170
f 136 170 171
f 136 171 137
f 137 171 167
f 138 143 172
f 138 172 173
f 138 173 174
f 138 174 140
f 138 140 139
f 140 144 141
f 140 174 175
f 140 175 176
f 140 176 177
f 140 177 145
f 142 168 143
f 143 175 172
f 143 168 178
f 143 178 179
f 143 179 180
f 143 180 181
f 143 181 175
f 145 177 182
f 145 182 146
f 146 182 150
f 147 149 183
f 148 150 184
f 148 184 149
f 149 185 183
f 149 184 186
f 149 186 185
f 150 182 187
f 150 187 184
f 152 188 189
f 152 189 190
f 152 190 153
f 153 190 154
f 154 190 155
f 155 190 156
f 156 190 191
f 156 191 157
f 157 191 192
f 157 192 193
f 157 193 158
f 158 193 194
f 158 194 195
f 158 195 159
f 159 195 196
f 159 196 160
f 160 196 161
f 161 196 197
f 161 197 162
f 162 197 198
f 162 198 163
f 163 198 164
f 164 198 199
f 164 199 200
f 164 200 165
f 165 200 201
f 165 201 202
f 165 202 203
f 165 203 166
f 166 203 204
f 166 204 205
f 166 205 169
f 167 171 206
f 167 206 207
f 167 207 168
f 168 207 178
f 169 205 208
f 169 208 209
f 169 209 170
f 170 206 171
f 170 209 206
f 172 175 173
f 173 175 174
f 175 181 180
f 175 180 210
f 175 210 176
f 176 210 211
f 176 211 177
f 177 211 212
f 177 212 182
f 178 213 180
f 178 180 179
f 178 207 214
f 178 214 215
f 178 215 216
f 178 216 217
f 178 217 218
f 178 218 219
f 178 219 213
f 180 213 219
f 180 219 220
f 180 220 210
f 182 212 221
f 182 221 187
f 184 187 222
f 184 222 223
f 184 223 186
f 185 186 223
f 185 223 224
f 185 224 225
f 187 221 226
f 187 226 227
f 187 227 222
f 188 228 229
f 188 229 189
f 189 229 230
f 189 230 190
f 190 230 231
f 190 231 191
f 191 231 192
f 192 231 193
f 193 231 232
f 193 232 194
f 194 232 233
f 194 233 234
f 194 234 235
f 194 235 195
f 195 235 196
f 196 235 236
f 196 236 197
f 197 236 237
f 197 237 198
f 198 237 199
f 199 237 238
f 199 238 200
f 200 238 239
f 200 239 201
f 201 239 240
f 201 240 241
f 201 241 242
f 201 242 202
f 202 204 203
f 202 242 243
f 202 243 244
f 202 244 204
f 204 245 205
f 204 244 246
f 204 246 247
f 204 247 245
f 205 245 248
f 205 248 208
f 206 209 214
f 206 214 207
f 208 214 209
f 208 248 249
f 208 249 250
f 208 250 215
f 208 215 214
f 210 220 251
f 210 251 211
f 211 251 252
f 211 252 253
f 211 253 212
f 212 254 221
f 212 253 254
f 215 250 216
f 216 250 255
f 216 255 256
f 216 256 257
f 216 257 217
f 217 257 258
f 217 258 259
f 217 259 218
f 218 259 219
f 219 259 260
f 219 260 220
f 220 260 261
f 220 261 251
f 221 254 262
f 221 262 263
f 221 263 226
f 222 227 264
f 222 264 223
f 223 264 265
f 223 265 266
f 223 266 224
f 224 267 225
f 224 266 268
f 224 268 269
f 224 269 270
f 224 270 267
f 225 267 271
f 226 263 227
f 227 263 264
f 228 272 229
f 228 273 274
f 228 274 275
f 228 275 272
f 229 272 276
f 229 276 230
f 230 276 277
f 230 277 278
f 230 278 231
f 231 278 279
f 231 279 232
f 232 279 233
f 233 279 234
f 234 279 280
f 234 280 281
f 234 281 235
f 235 281 282
f 235 282 236
f 236 282 283
f 236 283 237
f 237 283 284
f 237 284 238
f 238 284 240
f 238 240 239
f 240 285 241
f 240 284 285
f 241 285 242
f 242 286 243
f 242 285 287
f 242 287 288
f 242 288 289
f 242 289 290
f 242 290 291
f 242 291 286
f 243 286 246
f 243 246 244
f 245 247 248
f 246 248 247
f 246 286 291
f 246 291 292
f 246 292 248
f 248 292 293
f 248 293 294
f 248 294 295
f 248 295 296
f 248 296 297
f 248 297 298
f 248 298 249
f 249 298 255
f 249 255 250
f 251 261 299
f 251 299 252
f 252 300 253
f 252 299 301
f 252 301 302
f 252 302 300
f 253 300 254
f 254 300 303
f 254 303 304
f 254 304 262
f 255 305 256
f 255 298 297
f 255 297 296
f 255 296 306
f 255 306 305
f 256 305 307
f 256 307 257
f 257 307 308
f 257 308 309
f 257 309 310
f 257 310 258
f 258 310 259
f 259 310 311
f 259 311 260
f 260 311 312
f 260 312 261
f 261 312 313
f 261 313 299
f 262 304 263
f 263 304 265
f 263 265 264
f 265 304 266
f 266 304 314
f 266 314 315
f 266 315 268
f 267 316 271
f 267 270 316
f 268 315 317
f 268 317 318
f 268 318 269
f 269 319 320
f 269 320 321
f 269 321 270
f 269 318 319
f 270 321 320
f 270 320 373
f 270 373 421
f 270 421 424
f 270 424 423
f 270 423 471
f 270 471 510
f 270 510 509
f 270 509 533
f 270 533 530
f 270 530 495
f 270 495 529
f 270 529 527
f 270 527 543
f 270 543 542
f 270 542 541
f 270 541 521
f 270 521 520
f 270 520 519
f 270 519 518
f 270 518 478
f 270 478 429
f 270 429 380
f 270 380 326
f 270 326 275
f 270 275 274
f 270 274 325
f 270 325 379
f 270 379 428
f 270 428 477
f 270 477 515
f 270 515 539
f 270 539 547
f 270 547 553
f 270 553 555
f 270 555 552
f 270 552 546
f 270 546 545
f 270 545 538
f 270 538 513
f 270 513 475
f 270 475 474
f 270 474 472
f 270 472 425
f 270 425 376
f 270 376 322
f 270 322 316
f 271 316 322
f 271 322 323
f 272 275 276
f 273 324 325
f 273 325 274
f 275 326 327
f 275 327 276
f 276 327 328
f 276 328 329
f 276 329 330
f 276 330 277
f 277 330 331
f 277 331 332
f 277 332 333
f 277 333 281
f 277 281 280
f 277 280 279
f 277 279 278
f 281 333 282
f 282 333 334
f 282 334 335
f 282 335 283
f 283 335 336
f 283 336 284
f 284 336 285
f 285 336 337
f 285 337 287
f 287 337 338
f 287 338 288
f 288 338 339
f 288 339 289
f 289 339 340
f 289 340 341
f 289 341 342
f 289 342 343
f 289 343 344
f 289 344 345
f 289 345 346
f 289 346 347
f 289 347 290
f 290 347 291
f 291 347 348
f 291 348 349
f 291 349 293
f 291 293 350
f 291 350 292
f 292 350 293
f 293 351 294
f 293 349 352
f 293 352 351
f 294 351 306
f 294 306 295
f 295 306 296
f 299 313 301
f 300 302 353
f 300 353 303
f 301 354 302
f 301 313 355
f 301 355 356
f 301 356 357
f 301 357 354
f 302 354 358
f 302 358 353
f 303 353 314
f 303 314 304
f 305 306 359
f 305 359 307
f 306 351 360
f 306 360 361
f 306 361 307
f 306 307 359
f 307 361 362
f 307 362 363
f 307 363 364
f 307 364 308
f 308 365 309
f 308 364 366
f 308 366 365
f 309 365 310
f 310 365 311
f 311 365 367
f 311 367 355
f 311 355 312
f 312 355 313
f 314 353 358
f 314 358 315
f 315 368 317
f 315 358 368
f 317 369 370
f 317 370 371
f 317 371 372
f 317 372 318
f 317 368 369
f 318 372 319
f 319 372 320
f 320 372 374
f 320 374 375
f 320 375 373
f 322 376 323
f 323 376 377
f 324 378 379
f 324 379 325
f 326 380 381
f 326 381 382
f 326 382 327
f 327 382 329
f 327 329 328
f 329 382 381
f 329 381 383
f 329 383 384
f 329 384 330
f 330 384 332
f 330 332 331
f 332 334 333
f 332 384 385
f 332 385 334
f 334 385 386
f 334 386 335
f 335 386 387
f 335 387 336
f 336 387 337
f 337 387 388
f 337 388 340
f 337 340 338
f 338 340 339
f 340 388 389
f 340 389 341
f 341 389 390
f 341 390 342
f 342 390 343
f 343 391 392
f 343 392 393
f 343 393 345
f 343 345 344
f 343 390 394
f 343 394 391
f 345 393 395
f 345 395 396
f 345 396 397
f 345 397 346
f 346 397 352
f 346 352 348
f 346 348 347
f 348 352 349
f 351 352 398
f 351 398 360
f 352 397 396
f 352 396 399
f 352 399 400
f 352 400 401
f 352 401 402
f 352 402 398
f 354 357 358
f 355 367 403
f 355 403 404
f 355 404 405
f 355 405 406
f 355 406 407
f 355 407 356
f 356 407 357
f 357 407 369
f 357 369 368
f 357 368 358
f 360 363 362
f 360 362 361
f 360 398 402
f 360 402 401
f 360 401 408
f 360 408 409
f 360 409 410
f 360 410 363
f 363 410 411
f 363 411 364
f 364 411 412
f 364 412 413
f 364 413 366
f 365 366 414
f 365 414 367
f 366 413 415
f 366 415 414
f 367 414 404
f 367 404 403
f 369 416 370
f 369 407 406
f 369 406 416
f 370 416 405
f 370 405 417
f 370 417 371
f 371 417 418
f 371 418 372
f 372 418 419
f 372 419 374
f 373 375 420
f 373 420 421
f 374 419 422
f 374 422 375
f 375 423 424
f 375 424 421
f 375 421 420
f 375 422 423
f 376 425 377
f 377 425 426
f 378 427 379
f 379 427 428
f 380 429 430
f 380 430 381
f 381 430 431
f 381 431 432
f 381 432 383
f 383 432 483
f 383 483 433
f 383 433 384
f 384 433 434
f 384 434 385
f 385 434 435
f 385 435 386
f 386 436 388
f 386 388 387
f 386 435 436
f 388 436 389
f 389 437 438
f 389 438 439
f 389 439 440
f 389 440 390
f 389 436 437
f 390 440 394
f 391 394 441
f 391 441 392
f 392 441 442
f 392 442 443
f 392 443 393
f 393 443 395
f 394 440 439
f 394 439 438
f 394 438 444
f 394 444 441
f 395 443 399
f 395 399 396
f 399 445 446
f 399 446 400
f 399 443 447
f 399 447 448
f 399 448 449
f 399 449 450
f 399 450 445
f 400 446 445
f 400 445 408
f 400 408 401
f 404 414 405
f 405 451 417
f 405 416 452
f 405 452 406
f 405 414 453
f 405 453 454
f 405 454 455
f 405 455 456
f 405 456 457
f 405 457 458
f 405 458 451
f 406 452 416
f 408 445 449
f 408 449 448
f 408 448 459
f 408 459 460
f 408 460 461
f 408 461 462
f 408 462 409
f 409 411 410
f 409 462 411
f 411 462 463
f 411 463 464
f 411 464 412
f 412 415 413
f 412 464 415
f 414 415 453
f 415 464 454
f 415 454 453
f 417 451 465
f 417 465 458
f 417 458 466
f 417 466 418
f 418 466 422
f 418 422 419
f 422 466 467
f 422 467 468
f 422 468 423
f 423 468 469
f 423 469 470
f 423 470 471
f 425 472 426
f 426 472 474
f 426 474 475
f 426 475 473
f 427 476 428
f 428 476 477
f 429 478 479
f 429 479 430
f 430 479 480
f 430 480 431
f 431 480 432
f 432 480 481
f 432 481 482
f 432 482 483
f 433 483 434
f 434 483 484
f 434 484 438
f 434 438 435
f 435 438 485
f 435 485 437
f 435 437 436
f 437 485 438
f 438 484 486
f 438 486 487
f 438 487 441
f 438 441 444
f 441 487 442
f 442 487 488
f 442 488 489
f 442 489 490
f 442 490 491
f 442 491 443
f 443 491 447
f 445 450 449
f 447 491 492
f 447 492 448
f 448 492 493
f 448 493 494
f 448 494 495
f 448 495 496
f 448 496 459
f 451 458 465
f 454 464 497
f 454 497 498
f 454 498 457
f 454 457 456
f 454 456 455
f 457 498 499
f 457 499 458
f 458 500 501
f 458 501 466
f 458 499 500
f 459 502 503
f 459 503 504
f 459 504 460
f 459 496 502
f 460 504 505
f 460 505 461
f 461 506 463
f 461 463 462
f 461 505 506
f 463 507 497
f 463 497 464
f 463 506 507
f 466 501 508
f 466 508 467
f 467 469 468
f 467 508 469
f 469 509 510
f 469 510 470
f 469 508 511
f 469 511 509
f 470 510 471
f 473 475 512
f 475 513 512
f 476 514 477
f 477 514 516
f 477 516 517
f 477 517 515
f 478 518 479
f 479 518 480
f 480 518 519
f 480 519 481
f 481 519 482
f 482 484 483
f 482 519 520
f 482 520 521
f 482 521 522
f 482 522 484
f 484 522 523
f 484 523 486
f 486 523 524
f 486 524 525
f 486 525 487
f 487 525 488
f 488 525 489
f 489 493 490
f 489 525 526
f 489 526 527
f 489 527 528
f 489 528 493
f 490 492 491
f 490 493 492
f 493 528 494
f 494 528 529
f 494 529 495
f 495 530 496
f 496 531 502
f 496 530 531
f 497 507 500
f 497 500 498
f 498 500 499
f 500 506 532
f 500 532 501
f 500 507 506
f 501 532 511
f 501 511 508
f 502 531 533
f 502 533 509
f 502 509 534
f 502 534 503
f 503 535 505
f 503 505 504
f 503 534 536
f 503 536 535
f 505 535 506
f 506 535 536
f 506 536 532
f 509 511 534
f 511 532 534
f 512 513 537
f 513 538 537
f 515 517 540
f 515 540 539
f 521 541 522
f 522 541 523
f 523 541 524
f 524 526 525
f 524 541 542
f 524 542 543
f 524 543 526
f 526 543 527
f 527 529 528
f 530 533 531
f 532 536 534
f 537 538 545
f 537 545 546
f 537 546 544
f 539 540 548
f 539 548 549
f 539 549 550
f 539 550 547
f 544 546 551
f 546 552 551
f 547 550 553
f 550 554 555
f 550 555 553
f 551 552 555
f 551 555 556
f 554 556 555
