v -0.352669 -0.487524 0.105276
v -0.349721 -0.49579 0.105276
v -0.351686 -0.496639 0.122552
v -0.358215 -0.487524 0.147603
v 0.352669 -0.487524 0.105276
v -0.347755 -0.501804 0.106799
v -0.347123 -0.502977 0.105276
v -0.355056 -0.496639 0.148365
v -0.358495 -0.487524 0.161271
v 0.353301 -0.487524 0.109926
v 0.349791 -0.49579 0.105276
v -0.348808 -0.504538 0.122552
v -0.342912 -0.513831 0.105276
v -0.345719 -0.508394 0.110527
v -0.349651 -0.506717 0.135458
v -0.350072 -0.510143 0.149127
v -0.348317 -0.516293 0.153936
v -0.348317 -0.516293 0.155941
v -0.355266 -0.496639 0.161271
v -0.353792 -0.496639 0.174178
v -0.357021 -0.487524 0.173537
v 0.357162 -0.487524 0.139266
v 0.351757 -0.496639 0.122552
v 0.347685 -0.501531 0.105276
v -0.343543 -0.522443 0.135458
v -0.32452 -0.561049 0.105276
v -0.330136 -0.561112 0.148365
v -0.330346 -0.561112 0.161271
v -0.347896 -0.515151 0.164558
v -0.350142 -0.510332 0.16067
v -0.340385 -0.53534 0.161271
v -0.349791 -0.507189 0.174178
v -0.348457 -0.503648 0.195181
v -0.347896 -0.502139 0.203759
v -0.349651 -0.494051 0.212858
v -0.348317 -0.490426 0.232899
v -0.355758 -0.487524 0.183317
v 0.358215 -0.487524 0.147603
v 0.355126 -0.496639 0.148365
v 0.348808 -0.504538 0.122552
v 0.346281 -0.505198 0.105276
v -0.322063 -0.56723 0.105276
v -0.322765 -0.568299 0.113694
v -0.323327 -0.569609 0.122552
v -0.324169 -0.571442 0.135458
v -0.325011 -0.573129 0.148365
v -0.325152 -0.573317 0.161271
v -0.32438 -0.571819 0.174178
v -0.328802 -0.561112 0.174178
v -0.347334 -0.513642 0.174178
v -0.342139 -0.509546 0.225764
v -0.34579 -0.495497 0.237789
v -0.349019 -0.487524 0.235103
v -0.347755 -0.488771 0.241436
v -0.348317 -0.487524 0.240474
v 0.358495 -0.487524 0.161271
v 0.355337 -0.496639 0.161271
v 0.348387 -0.516293 0.153936
v 0.350142 -0.510143 0.149127
v 0.344877 -0.508834 0.105276
v -0.319045 -0.573443 0.105276
v -0.320168 -0.576062 0.122552
v -0.321923 -0.579582 0.148365
v -0.321993 -0.579761 0.161271
v -0.321221 -0.578262 0.174178
v -0.323537 -0.570017 0.187044
v -0.337085 -0.522914 0.224642
v -0.322274 -0.567251 0.205482
v -0.323467 -0.557372 0.225764
v -0.336594 -0.5193 0.238671
v -0.340385 -0.509546 0.238671
v -0.347404 -0.487524 0.244362
v -0.335892 -0.517466 0.246687
v -0.345439 -0.487524 0.252058
v 0.357092 -0.487524 0.173537
v 0.353792 -0.496639 0.174178
v 0.349861 -0.507189 0.174178
v 0.350212 -0.510332 0.16067
v 0.348387 -0.516293 0.155941
v 0.347825 -0.514837 0.145319
v 0.330347 -0.561112 0.161271
v 0.330136 -0.561112 0.148365
v 0.340244 -0.53534 0.148365
v 0.341297 -0.518074 0.105276
v -0.31722 -0.57646 0.105276
v -0.32101 -0.577885 0.135458
v -0.312587 -0.583626 0.105276
v -0.312867 -0.583867 0.109685
v -0.31371 -0.584517 0.122552
v -0.314552 -0.585083 0.135458
v -0.315465 -0.585575 0.148365
v -0.315605 -0.585627 0.161271
v -0.314763 -0.585198 0.174178
v -0.31392 -0.584643 0.187044
v -0.313008 -0.584014 0.199951
v -0.312165 -0.583312 0.212858
v -0.311393 -0.582537 0.225764
v -0.310481 -0.581573 0.236266
v -0.316377 -0.574009 0.225764
v -0.32094 -0.563815 0.225764
v -0.334067 -0.525753 0.238671
v -0.322063 -0.553747 0.24312
v -0.323818 -0.545146 0.248571
v -0.334277 -0.513422 0.255305
v -0.336032 -0.504821 0.259754
v -0.337436 -0.509295 0.251216
v -0.34221 -0.496639 0.251577
v -0.34221 -0.487524 0.260676
v 0.355337 -0.487524 0.187044
v 0.348317 -0.490426 0.232899
v 0.34586 -0.495497 0.237789
v 0.347896 -0.502139 0.203759
v 0.348457 -0.503648 0.195181
v 0.340455 -0.509546 0.238671
v 0.336664 -0.5193 0.238671
v 0.338911 -0.53534 0.174178
v 0.347896 -0.515151 0.164558
v 0.335892 -0.543082 0.174178
v 0.328802 -0.561112 0.174178
v 0.32438 -0.571819 0.174178
v 0.325152 -0.573317 0.161271
v 0.325012 -0.573129 0.148365
v 0.324169 -0.571442 0.135458
v 0.323327 -0.569609 0.122552
v 0.322765 -0.568299 0.113694
v 0.322204 -0.566969 0.105276
v 0.328451 -0.561112 0.135458
v -0.302899 -0.590311 0.105276
v -0.303461 -0.590321 0.109685
v -0.304023 -0.590971 0.122552
v -0.304584 -0.591536 0.135458
v -0.305146 -0.592029 0.148365
v -0.305216 -0.592081 0.161271
v -0.304725 -0.591652 0.174178
v -0.304163 -0.591096 0.187044
v -0.303601 -0.590468 0.199951
v -0.30311 -0.588718 0.225764
v -0.309428 -0.580337 0.244843
v -0.313218 -0.575224 0.239793
v -0.304303 -0.585575 0.239793
v -0.320168 -0.560473 0.238791
v -0.322835 -0.555738 0.234542
v -0.311393 -0.571233 0.251577
v -0.315886 -0.561112 0.251577
v -0.311253 -0.560337 0.263642
v -0.320729 -0.536104 0.265245
v -0.322133 -0.502286 0.295948
v -0.334277 -0.5004 0.268372
v -0.337577 -0.496314 0.264203
v -0.340806 -0.487524 0.264404
v 0.349019 -0.487524 0.235143
v 0.348317 -0.487524 0.240474
v 0.347755 -0.488781 0.241436
v 0.335892 -0.517466 0.246687
v 0.324801 -0.548959 0.238791
v 0.322835 -0.555738 0.234542
v 0.32101 -0.563815 0.225764
v 0.32438 -0.559551 0.212858
v 0.322344 -0.567251 0.205482
v 0.322906 -0.568572 0.196865
v 0.316377 -0.574009 0.225764
v 0.321221 -0.578262 0.174178
v 0.322063 -0.579761 0.161271
v 0.321923 -0.579582 0.148365
v 0.319115 -0.573443 0.105276
v -0.29953 -0.592123 0.105276
v -0.296862 -0.593443 0.105276
v -0.297073 -0.593516 0.109685
v -0.297564 -0.593684 0.122552
v -0.298126 -0.59381 0.135458
v -0.298688 -0.593894 0.148365
v -0.298758 -0.593904 0.161271
v -0.298266 -0.593831 0.174178
v -0.297705 -0.593715 0.187044
v -0.297143 -0.593558 0.199951
v -0.296792 -0.593422 0.208368
v -0.29595 -0.593275 0.217026
v -0.301917 -0.590436 0.212737
v -0.294827 -0.593087 0.225764
v -0.293072 -0.592458 0.238671
v -0.301566 -0.584706 0.251577
v -0.298898 -0.582694 0.264484
v -0.297284 -0.581175 0.2725
v -0.283314 -0.579792 0.308695
v -0.291177 -0.591149 0.251577
v -0.297705 -0.569808 0.286449
v -0.309849 -0.568289 0.258832
v -0.29595 -0.565879 0.295027
v -0.294335 -0.561395 0.303484
v -0.308164 -0.525554 0.30629
v -0.308164 -0.512689 0.319156
v -0.309919 -0.504088 0.323445
v -0.315956 -0.496639 0.31603
v -0.323818 -0.493684 0.299997
v -0.332312 -0.496314 0.276989
v -0.335962 -0.491799 0.27242
v -0.334348 -0.487524 0.280116
v 0.347966 -0.487524 0.242438
v 0.345439 -0.487524 0.252058
v 0.34221 -0.496639 0.251577
v 0.337507 -0.509295 0.251216
v 0.336103 -0.504821 0.259754
v 0.323818 -0.545146 0.248571
v 0.322063 -0.553747 0.24312
v 0.320168 -0.560473 0.238791
v 0.313218 -0.575224 0.239793
v 0.310481 -0.581573 0.236266
v 0.311393 -0.582537 0.225764
v 0.315605 -0.585627 0.161271
v 0.315465 -0.585586 0.148365
v 0.312236 -0.583312 0.212858
v 0.31392 -0.584643 0.187044
v 0.314763 -0.585198 0.174178
v 0.32101 -0.577885 0.135458
v 0.314622 -0.585083 0.135458
v 0.31371 -0.584517 0.122552
v 0.312867 -0.583867 0.109685
v 0.312587 -0.583626 0.105276
v -0.290475 -0.594019 0.105276
v -0.290194 -0.594103 0.109685
v -0.290194 -0.594271 0.122552
v -0.290194 -0.594407 0.135458
v -0.290194 -0.594491 0.148365
v -0.290194 -0.594501 0.161271
v -0.290194 -0.594428 0.174178
v -0.290194 -0.594313 0.187044
v -0.290194 -0.594145 0.199951
v -0.288369 -0.593946 0.225764
v -0.286614 -0.593904 0.238671
v -0.284789 -0.593632 0.251577
v -0.283806 -0.593391 0.258271
v -0.28893 -0.589651 0.263321
v -0.278331 -0.585659 0.303925
v -0.287105 -0.583605 0.290297
v -0.285069 -0.581877 0.300117
v -0.283525 -0.567168 0.322122
v -0.285561 -0.571201 0.313505
v -0.274891 -0.583888 0.31603
v -0.272364 -0.581814 0.324447
v -0.2817 -0.574899 0.317072
v -0.279103 -0.591809 0.27739
v -0.276365 -0.590552 0.290056
v -0.29595 -0.54018 0.32084
v -0.299741 -0.535664 0.31635
v -0.288018 -0.56216 0.317072
v -0.309779 -0.490908 0.33575
v -0.311183 -0.49578 0.328175
v -0.314131 -0.487524 0.328696
v -0.321993 -0.489043 0.308574
v -0.323186 -0.487524 0.307051
v 0.340876 -0.487524 0.264404
v 0.337577 -0.496325 0.264203
v 0.335962 -0.491809 0.27242
v 0.334278 -0.5004 0.268372
v 0.322133 -0.502286 0.295948
v 0.309989 -0.504088 0.323445
v 0.3208 -0.510353 0.291098
v 0.305918 -0.560337 0.276629
v 0.315956 -0.561112 0.251577
v 0.311393 -0.571233 0.251577
v 0.309428 -0.580337 0.244843
v 0.304303 -0.585575 0.239793
v 0.30311 -0.588718 0.225764
v 0.304163 -0.591096 0.187044
v 0.304725 -0.591652 0.174178
v 0.305216 -0.592081 0.161271
v 0.305216 -0.592029 0.148365
v 0.304584 -0.591536 0.135458
v 0.304023 -0.590971 0.122552
v 0.303531 -0.590321 0.109685
v 0.303601 -0.590468 0.199951
v 0.308936 -0.586162 0.105276
v -0.277278 -0.594554 0.105276
v -0.277278 -0.594554 0.225764
v -0.277278 -0.594501 0.238671
v -0.277278 -0.594229 0.251577
v -0.272645 -0.593778 0.27739
v -0.271381 -0.593548 0.285687
v -0.269135 -0.593076 0.294265
v -0.267029 -0.592343 0.303203
v -0.263659 -0.590625 0.315589
v -0.297213 -0.517173 0.336111
v -0.27468 -0.5736 0.328816
v -0.271662 -0.569032 0.336432
v -0.273627 -0.561112 0.338957
v -0.282332 -0.551788 0.333546
v -0.264572 -0.584779 0.328816
v -0.26043 -0.582537 0.338636
v -0.238038 -0.583207 0.366534
v -0.233334 -0.581583 0.375632
v -0.245268 -0.580703 0.361483
v -0.257131 -0.579321 0.347214
v -0.268994 -0.577623 0.333025
v -0.308234 -0.487524 0.339718
v -0.31041 -0.487524 0.336712
v -0.299039 -0.509546 0.338516
v -0.29602 -0.50172 0.347414
v -0.297986 -0.493129 0.349939
v 0.339332 -0.487524 0.268211
v 0.332312 -0.496325 0.276989
v 0.323818 -0.493684 0.299997
v 0.311323 -0.52173 0.302482
v 0.311253 -0.49578 0.328175
v 0.309849 -0.490908 0.33575
v 0.29595 -0.54018 0.32084
v 0.299741 -0.535664 0.31635
v 0.294336 -0.561395 0.303484
v 0.29595 -0.565879 0.295027
v 0.309849 -0.568289 0.258832
v 0.297705 -0.569808 0.286449
v 0.283315 -0.579792 0.308695
v 0.297284 -0.581175 0.2725
v 0.298898 -0.582694 0.264484
v 0.301566 -0.584706 0.251577
v 0.291177 -0.591149 0.251577
v 0.293072 -0.592458 0.238671
v 0.294827 -0.593087 0.225764
v 0.29595 -0.593275 0.217026
v 0.301917 -0.590436 0.212737
v 0.296792 -0.593422 0.208368
v 0.297143 -0.593558 0.199951
v 0.297705 -0.593715 0.187044
v 0.298267 -0.593831 0.174178
v 0.298758 -0.593904 0.161271
v 0.298758 -0.593894 0.148365
v 0.298126 -0.59381 0.135458
v 0.297565 -0.593684 0.122552
v 0.297073 -0.593516 0.109685
v 0.296863 -0.593443 0.105276
v 0.3029 -0.590311 0.105276
v 0.277278 -0.594554 0.105276
v -0.251515 -0.594554 0.290297
v -0.264361 -0.594533 0.264484
v -0.251515 -0.594428 0.303203
v -0.264361 -0.594386 0.27739
v -0.260571 -0.593841 0.303203
v -0.258816 -0.5936 0.311019
v -0.255446 -0.592825 0.319637
v -0.251305 -0.591578 0.329297
v -0.224911 -0.590415 0.366974
v -0.237336 -0.589315 0.353467
v -0.247233 -0.53534 0.389781
v -0.258254 -0.516565 0.387296
v -0.284087 -0.503857 0.361644
v -0.244566 -0.56655 0.373428
v -0.23544 -0.573276 0.380162
v -0.232632 -0.568498 0.387497
v -0.252287 -0.585774 0.342444
v -0.225402 -0.584046 0.380162
v -0.220909 -0.581667 0.388258
v -0.229544 -0.577089 0.38421
v -0.27089 -0.490259 0.386976
v -0.283244 -0.487524 0.372346
v -0.256991 -0.50107 0.3986
v -0.258956 -0.492469 0.401205
v 0.322274 -0.487524 0.309296
v 0.312517 -0.487524 0.332544
v 0.310481 -0.487524 0.336712
v 0.305427 -0.487524 0.343446
v 0.27089 -0.490259 0.386976
v 0.297986 -0.493129 0.349939
v 0.29602 -0.50172 0.347414
v 0.299039 -0.509546 0.338516
v 0.297214 -0.517173 0.336111
v 0.283525 -0.567168 0.322122
v 0.288018 -0.56216 0.317072
v 0.285561 -0.571201 0.313505
v 0.28507 -0.581877 0.300117
v 0.2817 -0.574899 0.317072
v 0.272364 -0.581814 0.324447
v 0.274891 -0.583899 0.31603
v 0.287105 -0.583605 0.290297
v 0.278331 -0.585659 0.303925
v 0.28893 -0.589651 0.263321
v 0.276365 -0.590552 0.290056
v 0.279103 -0.591809 0.27739
v 0.283806 -0.593391 0.258271
v 0.284789 -0.593632 0.251577
v 0.286684 -0.593904 0.238671
v 0.288369 -0.593946 0.225764
v 0.290194 -0.594145 0.199951
v 0.290194 -0.594313 0.187044
v 0.290194 -0.594428 0.174178
v 0.290194 -0.594501 0.161271
v 0.290194 -0.594491 0.148365
v 0.290194 -0.594407 0.135458
v 0.290194 -0.594271 0.122552
v 0.290194 -0.594103 0.109685
v 0.290475 -0.594019 0.105276
v 0.294827 -0.593632 0.105276
v 0.285842 -0.59425 0.105276
v 0.277278 -0.594554 0.225764
v -0.238599 -0.594512 0.31603
v -0.212837 -0.594554 0.341803
v -0.225683 -0.594543 0.328856
v -0.251305 -0.593946 0.315589
v -0.212837 -0.594407 0.354669
v -0.225683 -0.594271 0.341803
v -0.246882 -0.593705 0.325209
v -0.220067 -0.593569 0.362325
v -0.232211 -0.593391 0.348376
v -0.228631 -0.59228 0.356954
v -0.216136 -0.59272 0.370903
v -0.212205 -0.590499 0.379721
v -0.241477 -0.561793 0.380442
v -0.244004 -0.52722 0.3988
v -0.254955 -0.509546 0.395954
v -0.225402 -0.573276 0.390383
v -0.218733 -0.56677 0.399481
v -0.225753 -0.561929 0.396395
v -0.230105 -0.5514 0.398239
v -0.232773 -0.542799 0.400363
v -0.211784 -0.583354 0.392908
v -0.183986 -0.58261 0.415354
v -0.169806 -0.581898 0.427258
v -0.2068 -0.580798 0.400203
v -0.260009 -0.487524 0.402568
v -0.271451 -0.487524 0.387737
v -0.246321 -0.518619 0.401125
v -0.25692 -0.487524 0.406255
v 0.271451 -0.487524 0.387737
v 0.260009 -0.487524 0.402568
v 0.258956 -0.492469 0.401205
v 0.256991 -0.50107 0.3986
v 0.284087 -0.503857 0.361644
v 0.287105 -0.508708 0.354669
v 0.256148 -0.525167 0.384611
v 0.282332 -0.551788 0.333546
v 0.273627 -0.561112 0.338957
v 0.271662 -0.569032 0.336432
v 0.27468 -0.5736 0.328816
v 0.268994 -0.577623 0.333025
v 0.257131 -0.579321 0.347214
v 0.245268 -0.580703 0.361483
v 0.233334 -0.581583 0.375632
v 0.238038 -0.583207 0.366534
v 0.26043 -0.582537 0.338636
v 0.264572 -0.584779 0.328816
v 0.263659 -0.590625 0.315589
v 0.267029 -0.592343 0.303203
v 0.269135 -0.593076 0.294265
v 0.271381 -0.593548 0.285687
v 0.272645 -0.593778 0.27739
v 0.277278 -0.594229 0.251577
v 0.277278 -0.594501 0.238671
v 0.264361 -0.594533 0.264484
v 0.251515 -0.594554 0.290297
v -0.187004 -0.594554 0.367616
v -0.224911 -0.593736 0.353467
v -0.19985 -0.594407 0.367616
v -0.212205 -0.593852 0.366974
v -0.207572 -0.593579 0.374871
v -0.193673 -0.593412 0.387136
v -0.202307 -0.592333 0.383529
v -0.198727 -0.589441 0.392226
v -0.160891 -0.590782 0.418561
v -0.244004 -0.501311 0.411867
v -0.215996 -0.574009 0.397357
v -0.225753 -0.547545 0.40349
v -0.18174 -0.569221 0.426577
v -0.16749 -0.567388 0.438482
v -0.174369 -0.562296 0.435716
v -0.234949 -0.509546 0.414873
v -0.187777 -0.585879 0.407177
v -0.174088 -0.584894 0.419442
v -0.161242 -0.584066 0.429984
v -0.154503 -0.580284 0.438441
v -0.162435 -0.575193 0.436838
v -0.17837 -0.577822 0.423972
v -0.19255 -0.579488 0.412107
v -0.246461 -0.49271 0.413871
v -0.254323 -0.487524 0.409101
v 0.254323 -0.487524 0.409101
v 0.246321 -0.518619 0.401125
v 0.244004 -0.52722 0.3988
v 0.251235 -0.521888 0.393068
v 0.254955 -0.509546 0.395954
v 0.244566 -0.56655 0.373428
v 0.232632 -0.568498 0.387497
v 0.23544 -0.573286 0.380162
v 0.229544 -0.577089 0.38421
v 0.22091 -0.581667 0.388258
v 0.225402 -0.584046 0.380162
v 0.252288 -0.585774 0.342444
v 0.224841 -0.590415 0.366974
v 0.237336 -0.589315 0.353467
v 0.251305 -0.591578 0.329297
v 0.255446 -0.592825 0.319637
v 0.258816 -0.5936 0.311019
v 0.260571 -0.593841 0.303203
v 0.264361 -0.594386 0.27739
v 0.251515 -0.594428 0.303203
v 0.238599 -0.594512 0.31603
v 0.225683 -0.594543 0.328856
v 0.212767 -0.594554 0.341803
v -0.13541 -0.594554 0.406295
v -0.174088 -0.594543 0.380482
v -0.161242 -0.594522 0.393429
v -0.148326 -0.594449 0.406295
v -0.187004 -0.594292 0.380482
v -0.198727 -0.593757 0.379721
v -0.156328 -0.593621 0.413751
v -0.164963 -0.592867 0.410344
v -0.187004 -0.592071 0.395754
v -0.17458 -0.591662 0.406175
v -0.148326 -0.592521 0.422208
v -0.149449 -0.585942 0.433311
v -0.207011 -0.504077 0.439003
v -0.238178 -0.495905 0.418881
v -0.209538 -0.574009 0.402327
v -0.183916 -0.509546 0.454074
v -0.158926 -0.571683 0.440646
v -0.162435 -0.562296 0.443291
v -0.166717 -0.540829 0.450987
v -0.181108 -0.49116 0.464736
v -0.145939 -0.582118 0.440125
v -0.118352 -0.581447 0.45231
v -0.0907645 -0.580683 0.464495
v -0.126916 -0.578943 0.450546
v -0.0957485 -0.573506 0.466259
v -0.104663 -0.568865 0.464976
v -0.132251 -0.570342 0.452751
v -0.140815 -0.566529 0.450987
v -0.232352 -0.4905 0.425815
v -0.243092 -0.487524 0.418761
v -0.247865 -0.487524 0.415033
v 0.251586 -0.487524 0.411666
v 0.246461 -0.49271 0.413871
v 0.243934 -0.501311 0.411867
v 0.241407 -0.509546 0.409903
v 0.232773 -0.542799 0.400363
v 0.225753 -0.561929 0.396395
v 0.218733 -0.56678 0.399481
v 0.225402 -0.573286 0.390383
v 0.2068 -0.580798 0.400203
v 0.169806 -0.581898 0.427258
v 0.183986 -0.58261 0.415354
v 0.211784 -0.583354 0.392908
v 0.212205 -0.590499 0.379721
v 0.216136 -0.59272 0.370903
v 0.228631 -0.59228 0.356954
v 0.232211 -0.593391 0.348376
v 0.219997 -0.593569 0.362325
v 0.246882 -0.593705 0.325209
v 0.251305 -0.593946 0.315589
v 0.225683 -0.594271 0.341803
v 0.212767 -0.594407 0.354669
v 0.199921 -0.594407 0.367616
v 0.187005 -0.594554 0.367616
v -0.070969 -0.594554 0.432068
v -0.109647 -0.594543 0.419202
v -0.083815 -0.594522 0.432068
v -0.122493 -0.594407 0.419202
v -0.148326 -0.593852 0.415795
v -0.160891 -0.593956 0.406175
v -0.170578 -0.593715 0.401766
v -0.131479 -0.59359 0.426377
v -0.140043 -0.593181 0.424373
v -0.13562 -0.590855 0.431227
v -0.108805 -0.590007 0.443853
v -0.122564 -0.585135 0.445736
v -0.13541 -0.58392 0.442289
v -0.192761 -0.501961 0.450947
v -0.186934 -0.496565 0.457881
v -0.149028 -0.561783 0.449584
v -0.161944 -0.536052 0.455036
v -0.169174 -0.504748 0.465056
v -0.177738 -0.499761 0.462852
v -0.173737 -0.495937 0.466379
v -0.174018 -0.487524 0.469545
v -0.177668 -0.487524 0.467782
v -0.182091 -0.487524 0.465457
v -0.191848 -0.487524 0.458042
v -0.219155 -0.487524 0.437159
v -0.109647 -0.58305 0.454074
v -0.0957485 -0.584192 0.458202
v -0.083815 -0.581762 0.465497
v -0.083815 -0.574009 0.469906
v -0.0897817 -0.554397 0.477121
v -0.0967312 -0.561112 0.47155
v -0.122142 -0.560724 0.461208
v -0.145167 -0.557927 0.452831
v 0.247865 -0.487524 0.415033
v 0.236002 -0.487524 0.424252
v 0.232281 -0.4905 0.425815
v 0.229754 -0.499101 0.423851
v 0.234949 -0.509546 0.414873
v 0.225753 -0.547545 0.40349
v 0.18174 -0.569221 0.426577
v 0.215996 -0.574009 0.397357
v 0.174439 -0.562296 0.435716
v 0.16756 -0.567388 0.438482
v 0.19262 -0.579488 0.412107
v 0.162436 -0.575193 0.436838
v 0.154503 -0.580284 0.438441
v 0.161242 -0.584066 0.429984
v 0.174088 -0.584894 0.419442
v 0.17844 -0.577822 0.423972
v 0.187777 -0.585879 0.407177
v 0.198727 -0.589441 0.392226
v 0.202237 -0.592333 0.383529
v 0.160891 -0.590782 0.418561
v 0.193673 -0.593412 0.387136
v 0.207502 -0.593579 0.374871
v 0.224841 -0.593736 0.353467
v 0.212205 -0.593852 0.366974
v 0.187005 -0.594292 0.380482
v 0.148326 -0.594449 0.406295
v 0.161242 -0.594522 0.393429
v 0.174158 -0.594543 0.380482
v 0.13541 -0.594554 0.406295
v -0.00638786 -0.594533 0.445015
v 0.0708989 -0.594554 0.432068
v 7.02545e-05 -0.594543 0.438602
v -0.083815 -0.593915 0.442129
v -0.0967312 -0.594292 0.432068
v -0.0193041 -0.594491 0.445015
v -0.0322203 -0.594407 0.445015
v -0.0451365 -0.594271 0.445015
v -0.122493 -0.59382 0.42778
v -0.0967312 -0.593694 0.439884
v -0.103961 -0.593454 0.438802
v -0.0967312 -0.591411 0.446298
v -0.083815 -0.587524 0.457922
v -0.123757 -0.523616 0.476079
v -0.160891 -0.522118 0.461288
v -0.164963 -0.513349 0.463252
v -0.109647 -0.548215 0.47163
v -0.160891 -0.509242 0.466659
v -0.141727 -0.502977 0.477201
v -0.161242 -0.496639 0.47163
v -0.161804 -0.487524 0.474836
v -0.070969 -0.583103 0.46678
v -0.070969 -0.574009 0.472391
v -0.070969 -0.565376 0.476359
v -0.084868 -0.561091 0.475558
v -0.0926598 -0.518336 0.49107
v -0.105576 -0.505481 0.49115
v 0.18532 -0.487524 0.463092
v 0.195358 -0.49336 0.452871
v 0.186934 -0.496565 0.457881
v 0.192761 -0.501961 0.450947
v 0.225543 -0.51008 0.421847
v 0.183916 -0.509546 0.454074
v 0.166718 -0.540829 0.450987
v 0.162436 -0.562296 0.443291
v 0.158926 -0.571683 0.440646
v 0.181108 -0.49116 0.464736
v 0.177809 -0.499761 0.462852
v 0.149449 -0.585942 0.433311
v 0.140815 -0.566529 0.450987
v 0.132251 -0.570342 0.452751
v 0.104664 -0.568865 0.464976
v 0.0957486 -0.573506 0.466259
v 0.126916 -0.578943 0.450546
v 0.0907646 -0.580683 0.464495
v 0.118352 -0.581447 0.45231
v 0.145939 -0.582118 0.440125
v 0.17458 -0.591662 0.406175
v 0.187005 -0.592071 0.395754
v 0.164963 -0.592867 0.410344
v 0.148326 -0.592521 0.422208
v 0.156328 -0.593621 0.413751
v 0.198727 -0.593757 0.379721
v 0.160891 -0.593956 0.406175
v 0.148326 -0.593852 0.415795
v 0.122494 -0.594407 0.419202
v 0.0838151 -0.594522 0.432068
v 0.109648 -0.594543 0.419202
v -0.00638786 -0.593935 0.454154
v 0.00645817 -0.594533 0.445015
v -0.0580528 -0.594093 0.445015
v -0.0700564 -0.593841 0.445696
v -0.0580528 -0.593506 0.451829
v -0.0652128 -0.59338 0.451508
v -0.073847 -0.593234 0.450466
v -0.0193041 -0.593894 0.453512
v -0.0322203 -0.59381 0.452871
v -0.0451365 -0.593674 0.45239
v -0.083815 -0.592678 0.448582
v -0.0700564 -0.590237 0.456599
v -0.133163 -0.507241 0.479005
v -0.11421 -0.501102 0.489386
v -0.154433 -0.489798 0.477121
v -0.157873 -0.487524 0.47648
v -0.0580528 -0.583826 0.467581
v -0.00379057 -0.581028 0.477722
v -0.0123546 -0.580347 0.477201
v -0.0193041 -0.579478 0.47672
v -0.0537707 -0.568215 0.477562
v -0.0451365 -0.569483 0.478123
v -0.070969 -0.558933 0.478885
v -0.083815 -0.520735 0.492032
v -0.083815 -0.527178 0.489466
v -0.0812177 -0.556785 0.478083
v -0.0897115 -0.489965 0.502974
v -0.0967312 -0.496639 0.498044
v -0.0968716 -0.509682 0.492913
v -0.109788 -0.496744 0.492913
v 0.182161 -0.487524 0.465457
v 0.169175 -0.504748 0.465056
v 0.165033 -0.513349 0.463252
v 0.161944 -0.536052 0.455036
v 0.149028 -0.561783 0.449584
v 0.174018 -0.487524 0.469545
v 0.173737 -0.495937 0.466379
v 0.13541 -0.58392 0.442289
v 0.122564 -0.585135 0.445736
v 0.108805 -0.590007 0.443853
v 0.13562 -0.590855 0.431227
v 0.136112 -0.561783 0.454955
v 0.122143 -0.560724 0.461208
v 0.0967313 -0.561112 0.47155
v 0.0897818 -0.554397 0.477121
v 0.0838151 -0.574009 0.469906
v 0.0838151 -0.581762 0.465497
v 0.0957486 -0.584192 0.458202
v 0.109648 -0.58305 0.454074
v 0.140043 -0.593181 0.424373
v 0.170578 -0.593715 0.401766
v 0.131479 -0.59359 0.426377
v 0.122494 -0.59382 0.42778
v 0.0967313 -0.594292 0.432068
v 0.0838151 -0.593915 0.442129
v 0.0451366 -0.594271 0.445015
v 0.0322204 -0.594407 0.445015
v 0.0193744 -0.594491 0.445015
v -0.00638786 -0.592437 0.460567
v 0.00645817 -0.593935 0.454154
v -0.0193041 -0.591997 0.459966
v -0.0322203 -0.591494 0.459324
v -0.0451365 -0.590929 0.458803
v -0.0580528 -0.590279 0.458242
v -0.118211 -0.492501 0.49107
v -0.126565 -0.487524 0.489466
v -0.0451365 -0.584475 0.468463
v -0.00638786 -0.561112 0.48654
v -0.00744081 -0.575235 0.480247
v -0.0322203 -0.585051 0.469345
v -0.00744081 -0.585219 0.472071
v 0.00379069 -0.581028 0.477722
v -0.0322203 -0.571316 0.478965
v -0.0580528 -0.538126 0.488745
v -0.0716709 -0.523532 0.492633
v -0.0322203 -0.561112 0.483173
v -0.083815 -0.509546 0.496401
v -0.0847978 -0.496167 0.501371
v -0.070969 -0.493402 0.504217
v -0.00701963 -0.487524 0.514678
v -0.0873248 -0.487524 0.504137
v -0.0936426 -0.487524 0.502493
v -0.0976438 -0.487524 0.50109
v -0.109647 -0.487524 0.496441
v 0.161242 -0.496639 0.47163
v 0.141798 -0.502977 0.477201
v 0.133164 -0.507241 0.479005
v 0.123757 -0.523616 0.476079
v 0.109648 -0.548215 0.47163
v 0.161804 -0.487524 0.474836
v 0.0838151 -0.587524 0.457922
v 0.0967313 -0.591411 0.446298
v 0.105576 -0.505481 0.49115
v 0.0926599 -0.518336 0.49107
v 0.0847979 -0.561091 0.475558
v 0.0708989 -0.565376 0.476359
v 0.0708989 -0.574009 0.472391
v 0.0708989 -0.583103 0.46678
v 0.103962 -0.593454 0.438802
v 0.0967313 -0.593694 0.439884
v 0.073777 -0.593234 0.450466
v 0.0652129 -0.59338 0.451508
v 0.0579827 -0.593506 0.451829
v 0.0700565 -0.593841 0.445696
v 0.0579827 -0.594093 0.445015
v 0.0322204 -0.59381 0.452871
v 0.0451366 -0.593674 0.45239
v 0.0193744 -0.593894 0.453512
v 0.00645817 -0.592437 0.460567
v -0.0193041 -0.585554 0.470227
v -0.00638786 -0.523805 0.50109
v -0.0183915 -0.521269 0.500529
v 0.00645817 -0.561112 0.48654
v 7.02545e-05 -0.557131 0.488104
v 0.00744093 -0.585219 0.472071
v 0.0322204 -0.585051 0.469345
v 0.0451366 -0.584475 0.468463
v 0.0124249 -0.580347 0.477201
v 0.00744093 -0.575235 0.480247
v -0.0451365 -0.533852 0.492112
v -0.0520158 -0.503239 0.503134
v -0.0569998 -0.508341 0.500489
v -0.070969 -0.509546 0.498164
v -0.0193041 -0.496639 0.509828
v -0.00638786 -0.496639 0.511472
v -0.00638786 -0.487524 0.514758
v 0.154433 -0.489798 0.477121
v 0.11421 -0.501102 0.489386
v 0.115895 -0.528708 0.477201
v 0.152187 -0.487524 0.478885
v 0.0700565 -0.590237 0.456599
v 0.0838151 -0.592678 0.448582
v 0.0968717 -0.509682 0.492913
v 0.109788 -0.496744 0.492913
v 0.0897117 -0.489965 0.502974
v 0.0838151 -0.520735 0.492032
v 0.0838151 -0.527178 0.489466
v 0.0967313 -0.496639 0.498044
v 0.0812178 -0.556785 0.478083
v 0.0708989 -0.558933 0.478885
v 0.0537007 -0.568215 0.477562
v 0.0451366 -0.569483 0.478123
v 0.0193744 -0.579478 0.47672
v 0.0579827 -0.583826 0.467581
v 0.0579827 -0.590279 0.458242
v 0.0451366 -0.590929 0.458803
v 0.0193744 -0.591997 0.459966
v -0.00638786 -0.509546 0.506622
v -0.0134777 -0.516199 0.503134
v 0.00645817 -0.523805 0.50109
v 7.02545e-05 -0.513401 0.505139
v 0.0322204 -0.571316 0.478965
v 0.0322204 -0.561112 0.483173
v 0.0183916 -0.521269 0.500529
v 0.0193744 -0.585554 0.470227
v 0.00645817 -0.496639 0.511472
v 0.00645817 -0.487524 0.514758
v 0.126565 -0.487524 0.489466
v 0.118212 -0.492501 0.49107
v 0.109648 -0.487524 0.496441
v 0.0976439 -0.487524 0.50109
v 0.0910454 -0.487524 0.503375
v 0.087325 -0.487524 0.504137
v 0.0193744 -0.496639 0.509828
v 0.0708989 -0.493402 0.504217
v 0.0520159 -0.503239 0.503134
v 0.0847277 -0.496167 0.501371
v 0.0838151 -0.509546 0.496401
v 0.0716009 -0.523532 0.492633
v 0.0579827 -0.538126 0.488745
v 0.0451366 -0.533852 0.492112
v 0.00645817 -0.509546 0.506622
v 0.0134779 -0.516199 0.503134
v 0.0569999 -0.508341 0.500489
v 0.0708989 -0.509546 0.498164
f 1 2 3
f 1 3 4
f 1 4 9
f 1 9 21
f 1 21 37
f 1 37 53
f 1 53 55
f 1 55 72
f 1 72 74
f 1 74 108
f 1 108 150
f 1 150 197
f 1 197 250
f 1 250 248
f 1 248 295
f 1 295 294
f 1 294 353
f 1 353 418
f 1 418 417
f 1 417 420
f 1 420 472
f 1 472 526
f 1 526 525
f 1 525 574
f 1 574 573
f 1 573 572
f 1 572 571
f 1 571 570
f 1 570 632
f 1 632 685
f 1 685 735
f 1 735 753
f 1 753 752
f 1 752 751
f 1 751 750
f 1 750 749
f 1 749 795
f 1 795 826
f 1 826 832
f 1 832 831
f 1 831 830
f 1 830 829
f 1 829 827
f 1 827 799
f 1 799 759
f 1 759 705
f 1 705 700
f 1 700 639
f 1 639 584
f 1 584 583
f 1 583 527
f 1 527 473
f 1 473 422
f 1 422 421
f 1 421 359
f 1 359 358
f 1 358 357
f 1 357 356
f 1 356 299
f 1 299 251
f 1 251 199
f 1 199 198
f 1 198 152
f 1 152 151
f 1 151 109
f 1 109 75
f 1 75 56
f 1 56 38
f 1 38 22
f 1 22 10
f 1 10 5
f 1 5 11
f 1 11 24
f 1 24 41
f 1 41 60
f 1 60 84
f 1 84 126
f 1 126 165
f 1 165 218
f 1 218 272
f 1 272 330
f 1 330 329
f 1 329 390
f 1 390 389
f 1 389 391
f 1 391 331
f 1 331 273
f 1 273 219
f 1 219 167
f 1 167 166
f 1 166 128
f 1 128 87
f 1 87 85
f 1 85 61
f 1 61 42
f 1 42 26
f 1 26 13
f 1 13 7
f 1 7 2
f 2 6 3
f 2 7 6
f 3 8 4
f 3 6 8
f 4 8 9
f 5 10 11
f 6 12 8
f 6 7 12
f 7 13 14
f 7 14 12
f 8 12 15
f 8 15 16
f 8 16 17
f 8 17 9
f 9 17 18
f 9 18 19
f 9 19 20
f 9 20 21
f 10 22 11
f 11 22 23
f 11 23 24
f 12 14 13
f 12 13 25
f 12 25 15
f 13 26 25
f 15 17 16
f 15 25 17
f 17 25 27
f 17 27 28
f 17 28 18
f 18 29 30
f 18 30 19
f 18 28 31
f 18 31 29
f 19 30 29
f 19 29 20
f 20 32 33
f 20 33 34
f 20 34 35
f 20 35 36
f 20 36 37
f 20 37 21
f 20 29 32
f 22 38 39
f 22 39 23
f 23 39 24
f 24 40 41
f 24 39 40
f 25 26 27
f 26 42 43
f 26 43 27
f 27 43 44
f 27 44 45
f 27 45 46
f 27 46 47
f 27 47 28
f 28 47 48
f 28 48 49
f 28 49 50
f 28 50 29
f 28 29 31
f 29 50 32
f 32 50 33
f 33 50 51
f 33 51 34
f 34 36 35
f 34 51 52
f 34 52 36
f 36 53 37
f 36 52 54
f 36 54 55
f 36 55 53
f 38 56 39
f 39 56 57
f 39 57 58
f 39 58 59
f 39 59 40
f 40 59 41
f 41 59 60
f 42 61 43
f 43 61 62
f 43 62 44
f 44 62 45
f 45 62 63
f 45 63 46
f 46 63 47
f 47 63 64
f 47 64 65
f 47 65 48
f 48 65 66
f 48 66 49
f 49 67 50
f 49 66 68
f 49 68 69
f 49 69 67
f 50 67 51
f 51 67 70
f 51 70 71
f 51 71 52
f 52 71 54
f 54 72 55
f 54 71 73
f 54 73 74
f 54 74 72
f 56 75 57
f 57 75 76
f 57 76 77
f 57 77 78
f 57 78 79
f 57 79 58
f 58 80 59
f 58 79 81
f 58 81 82
f 58 82 83
f 58 83 80
f 59 80 60
f 60 80 84
f 61 85 62
f 62 85 86
f 62 86 63
f 63 86 87
f 63 87 88
f 63 88 89
f 63 89 90
f 63 90 91
f 63 91 64
f 64 91 92
f 64 92 93
f 64 93 94
f 64 94 95
f 64 95 96
f 64 96 97
f 64 97 65
f 65 97 98
f 65 98 99
f 65 99 66
f 66 99 68
f 67 69 70
f 68 100 69
f 68 99 100
f 69 100 101
f 69 101 70
f 70 101 73
f 70 73 71
f 73 101 102
f 73 102 103
f 73 103 104
f 73 104 105
f 73 105 106
f 73 106 107
f 73 107 74
f 74 107 108
f 75 109 76
f 76 109 110
f 76 110 111
f 76 111 112
f 76 112 113
f 76 113 77
f 77 113 114
f 77 114 115
f 77 115 116
f 77 116 117
f 77 117 78
f 78 117 81
f 78 81 79
f 80 83 84
f 81 118 119
f 81 119 120
f 81 120 121
f 81 121 82
f 81 117 118
f 82 121 122
f 82 122 123
f 82 123 124
f 82 124 125
f 82 125 126
f 82 126 127
f 82 127 83
f 83 127 126
f 83 126 84
f 85 87 86
f 87 128 88
f 88 128 89
f 89 128 129
f 89 129 90
f 90 129 91
f 91 129 130
f 91 130 131
f 91 131 132
f 91 132 92
f 92 132 133
f 92 133 134
f 92 134 135
f 92 135 93
f 93 135 136
f 93 136 137
f 93 137 94
f 94 137 95
f 95 137 96
f 96 137 97
f 97 137 98
f 98 138 139
f 98 139 99
f 98 137 140
f 98 140 138
f 99 139 141
f 99 141 100
f 100 141 142
f 100 142 101
f 101 142 141
f 101 141 102
f 102 141 139
f 102 139 138
f 102 138 143
f 102 143 144
f 102 144 103
f 103 144 145
f 103 145 146
f 103 146 104
f 104 146 105
f 105 146 147
f 105 147 148
f 105 148 149
f 105 149 107
f 105 107 106
f 107 149 108
f 108 149 150
f 109 151 110
f 110 151 152
f 110 152 153
f 110 153 111
f 111 114 112
f 111 153 114
f 112 114 113
f 114 153 154
f 114 154 115
f 115 154 155
f 115 155 156
f 115 156 157
f 115 157 158
f 115 158 116
f 116 158 118
f 116 118 117
f 118 158 159
f 118 159 119
f 119 159 160
f 119 160 120
f 120 160 161
f 120 161 162
f 120 162 163
f 120 163 121
f 121 163 164
f 121 164 122
f 122 164 123
f 123 164 124
f 124 164 165
f 124 165 125
f 125 165 126
f 128 166 130
f 128 130 129
f 130 166 131
f 131 166 167
f 131 167 132
f 132 167 168
f 132 168 169
f 132 169 170
f 132 170 171
f 132 171 133
f 133 171 172
f 133 172 173
f 133 173 174
f 133 174 175
f 133 175 176
f 133 176 134
f 134 176 135
f 135 176 177
f 135 177 136
f 136 178 137
f 136 177 178
f 137 178 177
f 137 177 179
f 137 179 180
f 137 180 140
f 138 140 181
f 138 181 182
f 138 182 183
f 138 183 184
f 138 184 143
f 140 180 185
f 140 185 181
f 143 184 186
f 143 186 187
f 143 187 144
f 144 187 145
f 145 187 188
f 145 188 189
f 145 189 146
f 146 189 190
f 146 190 147
f 147 190 191
f 147 191 192
f 147 192 193
f 147 193 194
f 147 194 195
f 147 195 148
f 148 195 196
f 148 196 149
f 149 196 150
f 150 196 197
f 152 198 153
f 153 198 154
f 154 198 199
f 154 199 200
f 154 200 201
f 154 201 202
f 154 202 203
f 154 203 204
f 154 204 155
f 155 204 205
f 155 205 156
f 156 205 157
f 157 205 161
f 157 161 159
f 157 159 158
f 159 161 160
f 161 205 206
f 161 206 207
f 161 207 162
f 162 207 208
f 162 208 163
f 163 209 210
f 163 210 164
f 163 208 211
f 163 211 212
f 163 212 213
f 163 213 209
f 164 214 165
f 164 210 215
f 164 215 216
f 164 216 217
f 164 217 218
f 164 218 214
f 165 214 218
f 167 219 168
f 168 219 169
f 169 219 220
f 169 220 170
f 170 220 221
f 170 221 222
f 170 222 171
f 171 222 223
f 171 223 172
f 172 223 224
f 172 224 225
f 172 225 173
f 173 225 226
f 173 226 174
f 174 226 227
f 174 227 228
f 174 228 229
f 174 229 175
f 175 229 176
f 176 229 177
f 177 229 179
f 179 229 230
f 179 230 231
f 179 231 180
f 180 231 185
f 181 185 232
f 181 232 233
f 181 233 234
f 181 234 182
f 182 234 235
f 182 235 183
f 183 235 184
f 184 236 237
f 184 237 186
f 184 235 238
f 184 238 239
f 184 239 240
f 184 240 236
f 185 231 241
f 185 241 242
f 185 242 232
f 186 237 188
f 186 188 187
f 188 237 189
f 189 243 244
f 189 244 190
f 189 237 245
f 189 245 243
f 190 244 191
f 191 244 243
f 191 243 192
f 192 246 247
f 192 247 193
f 192 243 246
f 193 247 248
f 193 248 194
f 194 248 249
f 194 249 196
f 194 196 195
f 196 249 250
f 196 250 197
f 199 251 200
f 200 251 202
f 200 202 201
f 202 251 252
f 202 252 253
f 202 253 254
f 202 254 255
f 202 255 256
f 202 256 257
f 202 257 258
f 202 258 259
f 202 259 203
f 203 259 204
f 204 259 260
f 204 260 261
f 204 261 206
f 204 206 205
f 206 261 207
f 207 261 262
f 207 262 263
f 207 263 208
f 208 263 211
f 209 213 264
f 209 264 265
f 209 265 266
f 209 266 267
f 209 267 210
f 210 267 268
f 210 268 269
f 210 269 270
f 210 270 215
f 211 263 212
f 212 263 213
f 213 263 271
f 213 271 264
f 215 270 216
f 216 270 217
f 217 270 272
f 217 272 218
f 219 273 220
f 220 273 221
f 221 273 222
f 222 273 223
f 223 273 224
f 224 273 274
f 224 274 275
f 224 275 225
f 225 275 226
f 226 275 229
f 226 229 228
f 226 228 227
f 229 275 276
f 229 276 277
f 229 277 230
f 230 277 278
f 230 278 231
f 231 278 279
f 231 279 280
f 231 280 241
f 232 242 233
f 233 242 280
f 233 280 281
f 233 281 238
f 233 238 235
f 233 235 234
f 236 282 246
f 236 246 243
f 236 243 245
f 236 245 237
f 236 240 239
f 236 239 283
f 236 283 284
f 236 284 285
f 236 285 286
f 236 286 282
f 238 281 287
f 238 287 239
f 239 287 288
f 239 288 289
f 239 289 290
f 239 290 291
f 239 291 292
f 239 292 293
f 239 293 283
f 241 280 242
f 246 294 295
f 246 295 248
f 246 248 247
f 246 282 296
f 246 296 297
f 246 297 298
f 246 298 294
f 248 250 249
f 251 299 252
f 252 299 253
f 253 300 254
f 253 299 301
f 253 301 300
f 254 300 255
f 255 301 256
f 255 300 301
f 256 302 257
f 256 301 303
f 256 303 304
f 256 304 305
f 256 305 306
f 256 306 307
f 256 307 302
f 257 302 307
f 257 307 258
f 258 307 308
f 258 308 259
f 259 309 260
f 259 308 309
f 260 309 310
f 260 310 311
f 260 311 261
f 261 311 312
f 261 312 313
f 261 313 314
f 261 314 262
f 262 314 315
f 262 315 316
f 262 316 263
f 263 316 317
f 263 317 318
f 263 318 319
f 263 319 271
f 264 271 318
f 264 318 320
f 264 320 265
f 265 320 266
f 266 320 321
f 266 321 322
f 266 322 323
f 266 323 324
f 266 324 325
f 266 325 267
f 267 325 326
f 267 326 327
f 267 327 328
f 267 328 329
f 267 329 268
f 268 329 269
f 269 329 270
f 270 329 330
f 270 330 272
f 271 319 318
f 273 331 392
f 273 392 447
f 273 447 495
f 273 495 549
f 273 549 611
f 273 611 613
f 273 613 550
f 273 550 496
f 273 496 448
f 273 448 394
f 273 394 332
f 273 332 274
f 274 332 333
f 274 333 275
f 275 333 334
f 275 334 335
f 275 335 276
f 276 335 277
f 277 335 336
f 277 336 278
f 278 336 337
f 278 337 279
f 279 337 280
f 280 337 338
f 280 338 281
f 281 338 339
f 281 339 340
f 281 340 341
f 281 341 287
f 282 286 342
f 282 342 343
f 282 343 344
f 282 344 297
f 282 297 296
f 283 293 292
f 283 292 284
f 284 345 285
f 284 292 346
f 284 346 347
f 284 347 345
f 285 345 286
f 286 345 342
f 287 341 348
f 287 348 289
f 287 289 288
f 289 348 340
f 289 340 349
f 289 349 290
f 290 349 350
f 290 350 351
f 290 351 346
f 290 346 291
f 291 346 292
f 294 298 352
f 294 352 353
f 297 344 354
f 297 354 355
f 297 355 352
f 297 352 298
f 299 356 301
f 301 356 303
f 303 357 304
f 303 356 357
f 304 357 358
f 304 358 359
f 304 359 360
f 304 360 361
f 304 361 362
f 304 362 363
f 304 363 364
f 304 364 365
f 304 365 305
f 305 365 366
f 305 366 307
f 305 307 306
f 307 366 367
f 307 367 308
f 308 367 310
f 308 310 309
f 310 367 311
f 311 368 312
f 311 367 365
f 311 365 369
f 311 369 370
f 311 370 371
f 311 371 368
f 312 368 313
f 313 368 372
f 313 372 314
f 314 372 373
f 314 373 374
f 314 374 315
f 315 374 375
f 315 375 376
f 315 376 377
f 315 377 316
f 316 377 317
f 317 377 378
f 317 378 379
f 317 379 318
f 318 379 320
f 320 379 321
f 321 379 322
f 322 379 380
f 322 380 381
f 322 381 382
f 322 382 323
f 323 382 383
f 323 383 324
f 324 383 384
f 324 384 385
f 324 385 325
f 325 385 386
f 325 386 326
f 326 386 387
f 326 387 388
f 326 388 327
f 327 388 389
f 327 389 328
f 328 389 390
f 328 390 329
f 331 391 386
f 331 386 385
f 331 385 384
f 331 384 392
f 332 393 334
f 332 334 333
f 332 394 395
f 332 395 393
f 334 396 336
f 334 336 335
f 334 393 397
f 334 397 398
f 334 398 396
f 336 396 337
f 337 396 399
f 337 399 400
f 337 400 401
f 337 401 338
f 338 401 402
f 338 402 339
f 339 402 340
f 340 402 403
f 340 403 404
f 340 404 349
f 340 348 341
f 342 345 405
f 342 405 347
f 342 347 406
f 342 406 407
f 342 407 343
f 343 407 354
f 343 354 344
f 345 347 405
f 346 351 347
f 347 351 408
f 347 408 409
f 347 409 410
f 347 410 411
f 347 411 412
f 347 412 406
f 349 404 350
f 350 408 351
f 350 404 413
f 350 413 414
f 350 414 415
f 350 415 416
f 350 416 408
f 352 355 417
f 352 417 418
f 352 418 353
f 354 407 406
f 354 406 419
f 354 419 355
f 355 419 420
f 355 420 417
f 359 421 360
f 360 421 422
f 360 422 423
f 360 423 362
f 360 362 361
f 362 423 424
f 362 424 425
f 362 425 426
f 362 426 364
f 362 364 363
f 364 426 427
f 364 427 428
f 364 428 365
f 365 428 429
f 365 429 430
f 365 430 431
f 365 431 370
f 365 370 369
f 365 367 366
f 368 371 373
f 368 373 372
f 370 431 432
f 370 432 433
f 370 433 434
f 370 434 435
f 370 435 436
f 370 436 437
f 370 437 438
f 370 438 371
f 371 438 439
f 371 439 373
f 373 439 440
f 373 440 375
f 373 375 374
f 375 440 376
f 376 440 377
f 377 440 441
f 377 441 442
f 377 442 378
f 378 442 443
f 378 443 379
f 379 382 381
f 379 381 380
f 379 443 444
f 379 444 445
f 379 445 382
f 382 445 383
f 383 445 384
f 384 445 392
f 386 391 387
f 387 391 388
f 388 391 389
f 392 445 446
f 392 446 447
f 393 395 397
f 394 448 397
f 394 397 395
f 396 398 449
f 396 449 399
f 397 448 450
f 397 450 451
f 397 451 398
f 398 451 449
f 399 449 400
f 400 449 451
f 400 451 452
f 400 452 403
f 400 403 401
f 401 403 402
f 403 452 453
f 403 453 454
f 403 454 404
f 404 455 413
f 404 454 456
f 404 456 455
f 406 457 419
f 406 412 457
f 408 416 458
f 408 458 409
f 409 459 411
f 409 411 410
f 409 458 460
f 409 460 461
f 409 461 462
f 409 462 459
f 411 459 412
f 412 463 457
f 412 459 463
f 413 455 464
f 413 464 465
f 413 465 414
f 414 465 415
f 415 465 466
f 415 466 467
f 415 467 468
f 415 468 461
f 415 461 469
f 415 469 470
f 415 470 416
f 416 470 458
f 419 457 471
f 419 471 472
f 419 472 420
f 422 473 423
f 423 473 474
f 423 474 424
f 424 474 475
f 424 475 476
f 424 476 477
f 424 477 425
f 425 477 476
f 425 476 426
f 426 476 427
f 427 476 478
f 427 478 428
f 428 478 429
f 429 478 430
f 430 433 431
f 430 478 479
f 430 479 480
f 430 480 433
f 431 433 432
f 433 480 434
f 434 480 435
f 435 480 481
f 435 481 482
f 435 482 483
f 435 483 436
f 436 484 438
f 436 438 437
f 436 483 485
f 436 485 484
f 438 484 486
f 438 486 439
f 439 486 487
f 439 487 488
f 439 488 440
f 440 488 489
f 440 489 441
f 441 489 442
f 442 489 490
f 442 490 443
f 443 490 491
f 443 491 444
f 444 491 445
f 445 491 492
f 445 492 446
f 446 492 447
f 447 492 493
f 447 493 494
f 447 494 495
f 448 496 497
f 448 497 450
f 450 497 498
f 450 498 499
f 450 499 500
f 450 500 451
f 451 500 501
f 451 501 452
f 452 501 502
f 452 502 453
f 453 502 503
f 453 503 454
f 454 503 504
f 454 504 505
f 454 505 456
f 455 456 465
f 455 465 464
f 456 466 465
f 456 505 503
f 456 503 506
f 456 506 507
f 456 507 466
f 457 463 508
f 457 508 509
f 457 509 471
f 458 470 510
f 458 510 460
f 459 511 508
f 459 508 463
f 459 462 511
f 460 510 470
f 460 470 469
f 460 469 461
f 461 468 467
f 461 467 512
f 461 512 513
f 461 513 514
f 461 514 515
f 461 515 511
f 461 511 462
f 466 507 467
f 467 507 516
f 467 516 517
f 467 517 518
f 467 518 519
f 467 519 520
f 467 520 521
f 467 521 522
f 467 522 523
f 467 523 512
f 471 509 524
f 471 524 525
f 471 525 526
f 471 526 472
f 473 527 474
f 474 528 529
f 474 529 475
f 474 527 528
f 475 529 530
f 475 530 531
f 475 531 479
f 475 479 476
f 476 479 478
f 479 531 532
f 479 532 533
f 479 533 534
f 479 534 481
f 479 481 480
f 481 534 482
f 482 534 535
f 482 535 536
f 482 536 537
f 482 537 538
f 482 538 539
f 482 539 483
f 483 539 540
f 483 540 485
f 484 485 486
f 485 540 541
f 485 541 487
f 485 487 486
f 487 541 488
f 488 541 542
f 488 542 489
f 489 542 543
f 489 543 544
f 489 544 545
f 489 545 490
f 490 545 492
f 490 492 491
f 492 545 546
f 492 546 547
f 492 547 493
f 493 547 494
f 494 547 495
f 495 547 548
f 495 548 549
f 496 499 498
f 496 498 497
f 496 550 551
f 496 551 499
f 499 551 552
f 499 552 553
f 499 553 554
f 499 554 555
f 499 555 500
f 500 555 501
f 501 555 556
f 501 556 502
f 502 556 555
f 502 555 554
f 502 554 557
f 502 557 558
f 502 558 506
f 502 506 503
f 503 505 504
f 506 558 559
f 506 559 507
f 507 559 560
f 507 560 561
f 507 561 562
f 507 562 516
f 508 511 563
f 508 563 509
f 509 563 564
f 509 564 524
f 511 515 564
f 511 564 563
f 512 523 565
f 512 565 513
f 513 565 514
f 514 565 566
f 514 566 567
f 514 567 568
f 514 568 515
f 515 568 567
f 515 567 569
f 515 569 570
f 515 570 571
f 515 571 572
f 515 572 573
f 515 573 574
f 515 574 524
f 515 524 564
f 516 562 575
f 516 575 517
f 517 575 518
f 518 575 576
f 518 576 577
f 518 577 578
f 518 578 520
f 518 520 519
f 520 578 579
f 520 579 580
f 520 580 521
f 521 580 581
f 521 581 523
f 521 523 522
f 523 581 582
f 523 582 565
f 524 574 525
f 527 583 528
f 528 584 585
f 528 585 586
f 528 586 529
f 528 583 584
f 529 586 530
f 530 586 587
f 530 587 588
f 530 588 531
f 531 588 533
f 531 533 532
f 533 589 590
f 533 590 534
f 533 588 591
f 533 591 592
f 533 592 589
f 534 590 535
f 535 590 593
f 535 593 536
f 536 592 594
f 536 594 595
f 536 595 596
f 536 596 597
f 536 597 537
f 536 593 598
f 536 598 592
f 537 597 538
f 538 597 599
f 538 599 600
f 538 600 539
f 539 601 540
f 539 600 602
f 539 602 601
f 540 543 542
f 540 542 541
f 540 601 603
f 540 603 604
f 540 604 543
f 543 605 544
f 543 604 606
f 543 606 605
f 544 605 545
f 545 605 546
f 546 605 606
f 546 606 547
f 547 606 548
f 548 606 607
f 548 607 608
f 548 608 609
f 548 609 610
f 548 610 549
f 549 610 611
f 550 612 552
f 550 552 551
f 550 613 614
f 550 614 612
f 552 615 616
f 552 616 553
f 552 612 617
f 552 617 618
f 552 618 619
f 552 619 615
f 553 620 554
f 553 616 620
f 554 620 557
f 557 620 621
f 557 621 622
f 557 622 558
f 558 622 623
f 558 623 559
f 559 623 560
f 560 623 624
f 560 624 576
f 560 576 561
f 561 576 562
f 562 576 575
f 565 582 566
f 566 625 626
f 566 626 627
f 566 627 567
f 566 582 628
f 566 628 625
f 567 570 569
f 567 627 629
f 567 629 630
f 567 630 631
f 567 631 570
f 570 631 632
f 576 624 577
f 577 633 634
f 577 634 578
f 577 624 633
f 578 634 635
f 578 635 636
f 578 636 579
f 579 636 637
f 579 637 580
f 580 638 628
f 580 628 581
f 580 637 638
f 581 628 582
f 584 639 585
f 585 639 640
f 585 640 586
f 586 640 641
f 586 641 642
f 586 642 587
f 587 642 643
f 587 643 588
f 588 643 644
f 588 644 591
f 589 598 593
f 589 593 590
f 589 592 598
f 591 644 592
f 592 645 646
f 592 646 647
f 592 647 595
f 592 595 594
f 592 644 648
f 592 648 649
f 592 649 645
f 595 650 596
f 595 647 651
f 595 651 652
f 595 652 653
f 595 653 654
f 595 654 655
f 595 655 656
f 595 656 657
f 595 657 658
f 595 658 650
f 596 650 602
f 596 602 597
f 597 602 600
f 597 600 599
f 601 602 659
f 601 659 660
f 601 660 661
f 601 661 603
f 602 661 659
f 602 650 662
f 602 662 661
f 603 661 663
f 603 663 604
f 604 663 664
f 604 664 606
f 606 664 607
f 607 664 665
f 607 665 608
f 608 666 667
f 608 667 668
f 608 668 669
f 608 669 611
f 608 611 609
f 608 665 666
f 609 611 610
f 611 669 613
f 612 670 617
f 612 614 671
f 612 671 729
f 612 729 670
f 613 669 668
f 613 668 671
f 613 671 614
f 615 621 616
f 615 619 672
f 615 672 673
f 615 673 674
f 615 674 675
f 615 675 676
f 615 676 621
f 616 621 620
f 617 670 618
f 618 670 677
f 618 677 678
f 618 678 619
f 619 679 672
f 619 678 679
f 621 676 622
f 622 676 680
f 622 680 623
f 623 680 624
f 624 680 676
f 624 676 681
f 624 681 633
f 625 682 626
f 625 628 638
f 625 638 682
f 626 629 627
f 626 682 629
f 629 682 630
f 630 682 683
f 630 683 631
f 631 684 632
f 631 683 684
f 632 684 685
f 633 681 686
f 633 686 687
f 633 687 688
f 633 688 689
f 633 689 634
f 634 690 635
f 634 689 691
f 634 691 690
f 635 690 692
f 635 692 693
f 635 693 694
f 635 694 695
f 635 695 636
f 636 695 694
f 636 694 637
f 637 694 693
f 637 693 696
f 637 696 697
f 637 697 698
f 637 698 638
f 638 698 699
f 638 699 683
f 638 683 682
f 639 700 648
f 639 648 640
f 640 648 641
f 641 648 644
f 641 644 642
f 642 644 643
f 645 701 702
f 645 702 703
f 645 703 704
f 645 704 646
f 645 649 701
f 646 704 647
f 647 704 651
f 648 700 705
f 648 705 706
f 648 706 701
f 648 701 649
f 650 658 707
f 650 707 708
f 650 708 709
f 650 709 710
f 650 710 662
f 651 704 711
f 651 711 712
f 651 712 653
f 651 653 652
f 653 713 654
f 653 712 713
f 654 713 714
f 654 714 715
f 654 715 656
f 654 656 655
f 656 715 716
f 656 716 717
f 656 717 718
f 656 718 657
f 657 718 658
f 658 718 707
f 659 661 660
f 661 662 663
f 662 710 719
f 662 719 663
f 663 665 720
f 663 720 664
f 663 719 721
f 663 721 666
f 663 666 665
f 664 720 665
f 666 721 722
f 666 722 667
f 667 722 723
f 667 723 668
f 668 723 724
f 668 724 725
f 668 725 726
f 668 726 727
f 668 727 671
f 670 728 677
f 670 729 778
f 670 778 728
f 671 727 729
f 672 679 673
f 673 679 674
f 674 679 728
f 674 728 675
f 675 728 730
f 675 730 731
f 675 731 732
f 675 732 733
f 675 733 681
f 675 681 676
f 677 728 678
f 678 728 679
f 681 733 686
f 683 699 684
f 684 699 734
f 684 734 735
f 684 735 685
f 686 733 736
f 686 736 687
f 687 737 738
f 687 738 688
f 687 736 739
f 687 739 740
f 687 740 784
f 687 784 741
f 687 741 782
f 687 782 737
f 688 738 742
f 688 742 689
f 689 742 691
f 690 743 744
f 690 744 692
f 690 691 737
f 690 737 745
f 690 745 743
f 691 742 737
f 692 744 693
f 693 746 696
f 693 744 746
f 696 747 748
f 696 748 749
f 696 749 750
f 696 750 751
f 696 751 752
f 696 752 697
f 696 746 747
f 697 752 753
f 697 753 699
f 697 699 698
f 699 753 734
f 701 706 705
f 701 705 754
f 701 754 755
f 701 755 702
f 702 755 756
f 702 756 757
f 702 757 703
f 703 757 758
f 703 758 712
f 703 712 711
f 703 711 704
f 705 759 754
f 707 718 717
f 707 717 708
f 708 717 709
f 709 717 760
f 709 760 761
f 709 761 710
f 710 761 719
f 712 758 713
f 713 758 762
f 713 762 763
f 713 763 714
f 714 763 764
f 714 764 715
f 715 764 765
f 715 765 766
f 715 766 716
f 716 766 767
f 716 767 760
f 716 760 717
f 719 761 768
f 719 768 721
f 721 768 769
f 721 769 722
f 722 769 723
f 723 769 724
f 724 770 771
f 724 771 772
f 724 772 773
f 724 773 774
f 724 774 725
f 724 769 770
f 725 775 726
f 725 774 776
f 725 776 775
f 726 775 777
f 726 777 729
f 726 729 727
f 728 740 730
f 728 778 784
f 728 784 740
f 729 777 778
f 730 740 779
f 730 779 732
f 730 732 731
f 732 779 733
f 733 779 739
f 733 739 736
f 734 753 735
f 737 780 781
f 737 781 745
f 737 742 738
f 737 782 783
f 737 783 780
f 739 779 740
f 741 784 785
f 741 785 786
f 741 786 767
f 741 767 787
f 741 787 788
f 741 788 782
f 743 745 789
f 743 789 790
f 743 790 791
f 743 791 744
f 744 791 792
f 744 792 746
f 745 781 789
f 746 792 747
f 747 792 790
f 747 790 748
f 748 790 793
f 748 793 749
f 749 793 794
f 749 794 795
f 754 759 796
f 754 796 797
f 754 797 755
f 755 797 762
f 755 762 756
f 756 762 757
f 757 798 758
f 757 762 798
f 758 798 762
f 759 799 796
f 760 767 800
f 760 800 770
f 760 770 801
f 760 801 761
f 761 801 768
f 762 802 763
f 762 797 803
f 762 803 802
f 763 804 805
f 763 805 806
f 763 806 764
f 763 802 807
f 763 807 804
f 764 806 808
f 764 808 765
f 765 809 810
f 765 810 766
f 765 808 806
f 765 806 805
f 765 805 809
f 766 810 811
f 766 811 812
f 766 812 767
f 767 786 813
f 767 813 800
f 767 812 787
f 768 801 770
f 768 770 769
f 770 800 771
f 771 814 815
f 771 815 816
f 771 816 778
f 771 778 772
f 771 800 814
f 772 776 773
f 772 778 776
f 773 776 774
f 775 778 777
f 775 776 778
f 778 816 784
f 780 817 818
f 780 818 781
f 780 783 819
f 780 819 820
f 780 820 817
f 781 818 790
f 781 790 789
f 782 788 821
f 782 821 811
f 782 811 810
f 782 810 822
f 782 822 823
f 782 823 819
f 782 819 783
f 784 816 824
f 784 824 785
f 785 824 814
f 785 814 786
f 786 814 800
f 786 800 813
f 787 812 821
f 787 821 788
f 790 792 791
f 790 818 817
f 790 817 793
f 793 817 794
f 794 817 841
f 794 841 825
f 794 825 826
f 794 826 795
f 796 799 827
f 796 827 828
f 796 828 803
f 796 803 797
f 802 803 807
f 803 828 829
f 803 829 807
f 804 807 830
f 804 830 831
f 804 831 832
f 804 832 826
f 804 826 833
f 804 833 834
f 804 834 835
f 804 835 836
f 804 836 837
f 804 837 805
f 805 837 838
f 805 838 809
f 807 829 830
f 809 838 810
f 810 839 840
f 810 840 822
f 810 838 839
f 811 821 812
f 814 824 815
f 815 824 816
f 817 820 841
f 819 823 842
f 819 842 841
f 819 841 820
f 822 840 823
f 823 840 835
f 823 835 842
f 825 841 833
f 825 833 826
f 827 829 828
f 833 841 835
f 833 835 834
f 835 840 843
f 835 843 844
f 835 844 836
f 835 841 842
f 836 844 837
f 837 844 838
f 838 844 843
f 838 843 839
f 839 843 840
