v -0.0678257 0.419237 -0.400051
v -0.0656883 0.419459 -0.345083
v -0.0653046 0.428228 -0.345083
v -0.0670036 0.424592 -0.400051
v -0.0672776 0.412619 -0.400051
v -0.0665542 0.405946 -0.400051
v -0.0634193 0.405824 -0.345083
v -0.0648662 0.429846 -0.345083
v -0.0641427 0.437285 -0.400051
v -0.0649868 0.434147 -0.400051
v -0.0658746 0.430844 -0.400051
v -0.0647127 0.399228 -0.400051
v -0.0585745 0.393441 -0.345083
v -0.0634303 0.434668 -0.345083
v -0.0605256 0.442062 -0.345083
v -0.0593418 0.445022 -0.345083
v -0.0618848 0.441342 -0.400051
v -0.062104 0.393197 -0.400051
v -0.0533899 0.384561 -0.345083
v -0.0552204 0.451962 -0.345083
v -0.0594952 0.445022 -0.400051
v -0.0539599 0.454035 -0.345083
v -0.0554177 0.383131 -0.400051
v -0.0493343 0.379728 -0.345083
v -0.0566015 0.449046 -0.400051
v -0.047734 0.460487 -0.345083
v -0.0533899 0.453281 -0.400051
v -0.0488192 0.37668 -0.400051
v -0.0412779 0.371447 -0.345083
v -0.0429111 0.465065 -0.345083
v -0.0412889 0.466573 -0.345083
v -0.0459583 0.459733 -0.400051
v -0.042374 0.37158 -0.400051
v -0.0349534 0.367445 -0.345083
v -0.032246 0.471162 -0.345083
v -0.0395132 0.464877 -0.400051
v -0.0428234 0.462316 -0.400051
v -0.032246 0.367379 -0.400051
v -0.0329146 0.366703 -0.345083
v -0.0203204 0.475053 -0.345083
v -0.032246 0.467138 -0.400051
v -0.0259653 0.36596 -0.400051
v -0.0193448 0.364585 -0.400051
v -0.0193448 0.363987 -0.345083
v -0.00645459 0.475962 -0.345083
v -0.0193448 0.470042 -0.400051
v -0.0130641 0.36484 -0.400051
v -0.00645459 0.362712 -0.345083
v 0.00714811 0.473412 -0.345083
v -0.00645459 0.46951 -0.400051
v -0.00645459 0.36525 -0.400051
v -0.00539136 0.362911 -0.345083
v 0.00953763 0.472437 -0.345083
v 0.0121464 0.464056 -0.400051
v 0.0107324 0.464533 -0.400051
v 0.00609585 0.465985 -0.400051
v 0.0064466 0.365483 -0.345083
v 0.00546011 0.36525 -0.345083
v -0.000173889 0.367157 -0.400051
v 0.0183723 0.46818 -0.345083
v 0.0124094 0.464178 -0.398308
v 0.0137796 0.462659 -0.400051
v 0.0162897 0.36862 -0.345083
v 0.0064466 0.369319 -0.400051
v 0.0310542 0.456651 -0.345083
v 0.0190957 0.457638 -0.400051
v 0.0180215 0.369263 -0.345083
v 0.0103159 0.370959 -0.400051
v 0.0375103 0.445022 -0.345083
v 0.0294649 0.445288 -0.400051
v 0.0262971 0.450144 -0.400051
v 0.0255737 0.451219 -0.400051
v 0.0244885 0.452294 -0.400051
v 0.0143934 0.372855 -0.400051
v 0.0193807 0.370449 -0.345083
v 0.0423222 0.432573 -0.345083
v 0.0354606 0.43213 -0.400051
v 0.0326655 0.438382 -0.400051
v 0.0208385 0.379063 -0.400051
v 0.029421 0.379828 -0.345083
v 0.0439116 0.421964 -0.345083
v 0.0376528 0.418683 -0.400051
v 0.0312406 0.381591 -0.345083
v 0.0239295 0.3822 -0.400051
v 0.0441527 0.419237 -0.345083
v 0.0386941 0.412785 -0.387022
v 0.0365019 0.40691 -0.400051
v 0.027163 0.385515 -0.400051
v 0.0327751 0.383918 -0.345083
v 0.0424537 0.406311 -0.345083
v 0.0421249 0.405114 -0.345083
v 0.0397792 0.398452 -0.345083
v 0.0315804 0.393441 -0.400051
f 1 2 3
f 1 3 4
f 1 4 11
f 1 11 10
f 1 10 9
f 1 9 17
f 1 17 21
f 1 21 25
f 1 25 27
f 1 27 32
f 1 32 37
f 1 37 36
f 1 36 41
f 1 41 46
f 1 46 50
f 1 50 56
f 1 56 55
f 1 55 54
f 1 54 62
f 1 62 66
f 1 66 73
f 1 73 72
f 1 72 71
f 1 71 70
f 1 70 78
f 1 78 77
f 1 77 82
f 1 82 87
f 1 87 93
f 1 93 88
f 1 88 84
f 1 84 79
f 1 79 74
f 1 74 68
f 1 68 64
f 1 64 59
f 1 59 51
f 1 51 47
f 1 47 43
f 1 43 42
f 1 42 38
f 1 38 33
f 1 33 28
f 1 28 23
f 1 23 18
f 1 18 12
f 1 12 6
f 1 6 5
f 1 5 2
f 2 5 6
f 2 6 7
f 2 7 13
f 2 13 19
f 2 19 24
f 2 24 29
f 2 29 34
f 2 34 39
f 2 39 44
f 2 44 48
f 2 48 52
f 2 52 58
f 2 58 57
f 2 57 63
f 2 63 67
f 2 67 75
f 2 75 80
f 2 80 83
f 2 83 89
f 2 89 92
f 2 92 91
f 2 91 90
f 2 90 85
f 2 85 81
f 2 81 76
f 2 76 69
f 2 69 65
f 2 65 60
f 2 60 53
f 2 53 49
f 2 49 45
f 2 45 40
f 2 40 35
f 2 35 31
f 2 31 30
f 2 30 26
f 2 26 22
f 2 22 20
f 2 20 16
f 2 16 15
f 2 15 14
f 2 14 8
f 2 8 3
f 3 8 9
f 3 9 10
f 3 10 11
f 3 11 4
f 6 12 7
f 7 12 13
f 8 14 9
f 9 15 16
f 9 16 17
f 9 14 15
f 12 18 13
f 13 18 19
f 16 20 17
f 17 20 22
f 17 22 21
f 18 23 19
f 19 23 24
f 21 22 25
f 22 26 27
f 22 27 25
f 23 28 29
f 23 29 24
f 26 30 27
f 27 30 31
f 27 31 32
f 28 33 29
f 29 33 34
f 31 35 36
f 31 36 37
f 31 37 32
f 33 38 34
f 34 38 39
f 35 40 36
f 36 40 41
f 38 42 39
f 39 42 43
f 39 43 44
f 40 45 46
f 40 46 41
f 43 47 48
f 43 48 44
f 45 49 50
f 45 50 46
f 47 51 48
f 48 51 52
f 49 53 54
f 49 54 55
f 49 55 56
f 49 56 50
f 51 57 58
f 51 58 52
f 51 59 57
f 53 60 61
f 53 61 54
f 54 61 62
f 57 59 63
f 59 64 63
f 60 65 62
f 60 62 61
f 62 65 66
f 63 64 67
f 64 68 67
f 65 69 70
f 65 70 71
f 65 71 72
f 65 72 73
f 65 73 66
f 67 68 74
f 67 74 75
f 69 76 77
f 69 77 78
f 69 78 70
f 74 79 80
f 74 80 75
f 76 81 82
f 76 82 77
f 79 83 80
f 79 84 83
f 81 85 82
f 82 86 87
f 82 85 86
f 83 84 88
f 83 88 89
f 85 90 87
f 85 87 86
f 87 90 91
f 87 91 92
f 87 92 93
f 88 93 89
f 89 93 92
