v 7.94529e-05 0.0862129 0.641727
v -0.00645432 0.0862129 0.641727
v 7.94529e-05 0.0838169 0.64153
v 7.94529e-05 0.0862129 0.549054
v -0.0169868 0.0862129 0.640373
v -0.00645432 0.0838169 0.64153
v 7.94529e-05 -0.00288284 0.6324
v -0.154075 0.0862129 0.514916
v 7.94529e-05 -0.367075 0.460881
v -0.154075 -0.367075 0.418618
v -0.0193559 0.0862129 0.640067
v -0.0193559 0.0838169 0.63987
v -0.00645432 0.0709051 0.640132
v -0.00265175 -0.00288284 0.6324
v 7.94529e-05 -0.0910912 0.619274
v -0.154075 0.0862129 0.614381
v 7.94529e-05 -0.367075 0.554056
v -0.154075 -0.367075 0.520311
v -0.0298884 0.0862129 0.638691
v -0.0580605 0.0838169 0.634781
v -0.0761076 0.0789805 0.631898
v -0.045159 0.0709051 0.635087
v -0.0193559 0.0709051 0.638472
v -0.0809966 0.0862129 0.632007
v -0.00645432 0.0580377 0.638713
v -0.00645432 0.0193467 0.63441
v -0.0112528 0.00186479 0.631854
v -0.0193559 -0.00647684 0.629823
v -0.00675611 -0.00687618 0.631396
v -0.00645432 -0.0193886 0.629736
v -0.000946635 -0.0910912 0.619274
v 7.94529e-05 -0.156804 0.606671
v -0.139891 0.0862129 0.6203
v -0.154075 0.0837725 0.614141
v -0.00645432 -0.367075 0.554056
v 7.94529e-05 -0.322882 0.567685
v -0.147813 -0.367075 0.52291
v -0.154075 -0.354829 0.524155
v -0.109637 0.0838169 0.627989
v -0.109637 0.0709051 0.626591
v -0.096735 0.0709051 0.628294
v -0.0675066 0.0738336 0.632466
v -0.0193559 0.0451259 0.635611
v -0.0580605 0.0322141 0.629081
v -0.0149346 0.0104727 0.632335
v -0.109637 0.0862129 0.628185
v -0.0322574 0.00643494 0.629605
v -0.104144 -0.00110802 0.619296
v -0.0580605 -0.00647684 0.624734
v -0.100311 -0.00971588 0.618793
v -0.0917102 -0.0141085 0.619361
v -0.0322574 -0.0193886 0.626372
v -0.0193559 -0.032256 0.626067
v -0.0147385 -0.0789781 0.619405
v -0.00573002 -0.0959276 0.61792
v -0.00645432 -0.109682 0.615561
v -0.00645432 -0.12255 0.613136
v -0.00324024 -0.156804 0.606671
v 7.94529e-05 -0.220253 0.59361
v -0.14134 0.0794242 0.618924
v -0.133674 0.0709051 0.621109
v -0.13639 0.0837725 0.621458
v -0.136209 0.0862129 0.621764
v -0.154075 0.0775607 0.61342
v -0.148341 0.0709051 0.615037
v -0.140133 0.0709051 0.618444
v -0.00645432 -0.363082 0.555235
v -0.0136822 -0.361529 0.554776
v -0.0164285 -0.367075 0.552789
v -0.000961728 -0.322882 0.567685
v 7.94529e-05 -0.272122 0.580768
v -0.134142 -0.367075 0.528567
v -0.143784 -0.350791 0.529681
v -0.154075 -0.33748 0.529593
v -0.122538 0.0838169 0.625826
v -0.116246 0.0125581 0.619208
v -0.120169 0.0862129 0.626438
v -0.122538 0.0862129 0.626045
v -0.112745 0.0039502 0.618728
v -0.109637 0.0322141 0.622288
v -0.108912 -0.00581128 0.618094
v -0.109637 -0.0193886 0.616172
v -0.0962974 -0.0188118 0.618029
v -0.0580605 -0.0580796 0.616959
v -0.0322574 -0.0838588 0.616347
v -0.0284247 -0.0667318 0.619514
v -0.0322574 -0.0967706 0.614338
v -0.0193559 -0.0967706 0.616019
v -0.0193559 -0.109682 0.613901
v -0.065892 -0.117048 0.606453
v -0.0322574 -0.12255 0.609773
v -0.00645432 -0.135462 0.610559
v -0.00645432 -0.199932 0.597629
v -0.00189728 -0.220253 0.59361
v -0.13544 0.00643494 0.612678
v -0.129962 0.0451259 0.619558
v -0.154075 0.0704171 0.61259
v -0.154075 0.0580377 0.611127
v -0.154075 0.0507166 0.610253
v -0.154075 0.0194355 0.606519
v -0.152853 0.00643494 0.60547
v -0.00574511 -0.316448 0.568973
v -0.0580605 -0.338634 0.555628
v -0.0315633 -0.367075 0.550801
v -0.0193559 -0.318844 0.566505
v -0.00645432 -0.303093 0.572555
v -0.00245559 -0.272122 0.580768
v -0.123398 -0.367075 0.533001
v -0.116216 -0.348439 0.541824
v -0.123277 -0.329493 0.544839
v -0.147828 -0.315738 0.538985
v -0.154075 -0.31636 0.536189
v -0.129012 0.0386035 0.619165
v -0.122538 0.0709051 0.624385
v -0.126944 0.0299956 0.618662
v -0.121346 0.00749983 0.617374
v -0.122538 -0.00647684 0.61543
v -0.122538 -0.0193886 0.613595
v -0.116125 -0.0775138 0.606278
v -0.109637 -0.0580796 0.610166
v -0.109637 -0.0802648 0.606715
v -0.0976102 -0.097303 0.605645
v -0.0888281 -0.101962 0.60606
v -0.096735 -0.109682 0.603701
v -0.074493 -0.113942 0.605885
v -0.0802271 -0.105334 0.606628
v -0.109637 -0.109682 0.601997
v -0.109637 -0.12255 0.599573
v -0.109637 -0.135462 0.596996
v -0.096735 -0.135462 0.598699
v -0.0709621 -0.161241 0.59693
v -0.0356073 -0.139899 0.605863
v -0.0193559 -0.135462 0.608877
v -0.0193559 -0.161241 0.603723
v -0.0193559 -0.199932 0.595969
v -0.026961 -0.207031 0.593523
v -0.0193559 -0.209116 0.594025
v -0.00630342 -0.213332 0.594702
v -0.0104983 -0.217991 0.593064
v -0.00645432 -0.251535 0.585332
v -0.00663539 -0.265112 0.581969
v -0.00645432 -0.290226 0.57581
v -0.144493 -0.00647684 0.607349
v -0.13544 -0.00647684 0.611083
v -0.154075 0.0152647 0.606016
v -0.154075 0.00457139 0.604728
v -0.154075 -0.00647684 0.603373
v -0.0193559 -0.312366 0.568384
v -0.0278211 -0.310458 0.567838
v -0.0839693 -0.367075 0.543899
v -0.0580605 -0.328917 0.558468
v -0.102514 -0.322172 0.55458
v -0.0193559 -0.303093 0.570895
v -0.108882 -0.367075 0.538963
v -0.115491 -0.308861 0.554471
v -0.122538 -0.316005 0.54936
v -0.143181 -0.311257 0.542305
v -0.154075 -0.3054 0.539444
v -0.133161 -0.032256 0.608004
v -0.129178 -0.0520896 0.606344
v -0.122538 -0.0967706 0.601124
v -0.122538 -0.109682 0.598918
v -0.109637 -0.0967706 0.604138
v -0.117438 -0.144336 0.593851
v -0.113303 -0.152944 0.592977
v -0.096735 -0.199932 0.585769
v -0.0709621 -0.199932 0.589177
v -0.035562 -0.204324 0.592955
v -0.096735 -0.212799 0.582952
v -0.096735 -0.221185 0.580942
v -0.0193559 -0.225711 0.590006
v -0.0193559 -0.251535 0.583672
v -0.0110566 -0.269904 0.580222
v -0.0193559 -0.290226 0.57415
v -0.142969 -0.0156171 0.606715
v -0.13633 -0.0196992 0.608768
v -0.154075 -0.0103814 0.602805
v -0.0364221 -0.308417 0.56727
v -0.0976253 -0.317114 0.556698
v -0.096735 -0.364812 0.542851
v -0.096735 -0.367075 0.542174
v -0.10689 -0.313564 0.555825
v -0.10431 -0.362594 0.542196
v -0.096735 -0.303093 0.560695
v -0.103586 -0.271279 0.567663
v -0.0535035 -0.297635 0.567816
v -0.0579096 -0.302427 0.566003
v -0.118494 -0.300253 0.555672
v -0.13544 -0.303093 0.547853
v -0.110572 -0.30398 0.557332
v -0.116336 -0.258368 0.567663
v -0.152446 -0.303093 0.540798
v -0.154075 -0.303093 0.540121
v -0.154075 -0.0658444 0.593741
v -0.154075 -0.0732987 0.592496
v -0.147692 -0.0970812 0.591164
v -0.13633 -0.0970812 0.59586
v -0.132965 -0.109682 0.595008
v -0.130656 -0.119355 0.594069
v -0.123474 -0.123215 0.595925
v -0.128408 -0.127963 0.59313
v -0.118871 -0.199932 0.581598
v -0.116819 -0.207563 0.580768
v -0.109637 -0.199932 0.583825
v -0.108444 -0.212267 0.581292
v -0.103359 -0.21941 0.580484
v -0.0709621 -0.251535 0.57688
v -0.0580605 -0.225711 0.584917
v -0.096735 -0.290226 0.56395
v -0.0873191 -0.282194 0.567182
v -0.0833506 -0.277669 0.56882
v -0.0579096 -0.290714 0.568951
v -0.0621045 -0.295373 0.567248
v -0.154075 -0.0195217 0.601451
v -0.154075 -0.0324335 0.599311
v -0.0709621 -0.303093 0.564103
v -0.109637 -0.290226 0.561241
v -0.111945 -0.216171 0.579676
v -0.122689 -0.289737 0.556764
v -0.154075 -0.295905 0.54213
v -0.154075 -0.298301 0.541475
v -0.122538 -0.225711 0.573713
v -0.130415 -0.234408 0.568165
v -0.154075 -0.0969481 0.588543
v -0.141219 -0.101563 0.593086
v -0.139423 -0.109682 0.592343
v -0.154075 -0.109727 0.586272
v -0.154075 -0.117092 0.584786
v -0.154075 -0.12255 0.583672
v -0.148341 -0.12255 0.586053
v -0.154075 -0.135595 0.580877
v -0.154075 -0.182539 0.570786
v -0.125315 -0.199932 0.578955
v -0.153004 -0.202949 0.566833
v -0.154075 -0.204191 0.56609
v -0.144403 -0.210448 0.568602
v -0.154075 -0.213465 0.563841
v -0.121693 -0.212267 0.577557
v -0.0833506 -0.289338 0.565937
v -0.154075 -0.284014 0.545275
v -0.154075 -0.289382 0.543856
v -0.141747 -0.219055 0.56751
v -0.148341 -0.238623 0.559625
v -0.154075 -0.102761 0.587517
v -0.154075 -0.202372 0.566505
v -0.13544 -0.199932 0.574761
v -0.154075 -0.225844 0.560608
v -0.154075 -0.256193 0.552614
v -0.154075 -0.233742 0.558533
f 1 2 6
f 1 6 3
f 1 3 7
f 1 7 15
f 1 15 32
f 1 32 59
f 1 59 71
f 1 71 36
f 1 36 17
f 1 17 9
f 1 9 4
f 1 4 8
f 1 8 16
f 1 16 33
f 1 33 63
f 1 63 78
f 1 78 77
f 1 77 46
f 1 46 24
f 1 24 19
f 1 19 11
f 1 11 5
f 1 5 2
f 2 5 6
f 3 6 14
f 3 14 7
f 4 9 10
f 4 10 8
f 5 11 12
f 5 12 6
f 6 12 23
f 6 23 13
f 6 13 14
f 7 14 31
f 7 31 15
f 8 10 18
f 8 18 38
f 8 38 74
f 8 74 112
f 8 112 158
f 8 158 193
f 8 193 221
f 8 221 220
f 8 220 241
f 8 241 240
f 8 240 248
f 8 248 249
f 8 249 247
f 8 247 237
f 8 237 235
f 8 235 245
f 8 245 232
f 8 232 231
f 8 231 229
f 8 229 228
f 8 228 227
f 8 227 244
f 8 244 224
f 8 224 195
f 8 195 194
f 8 194 215
f 8 215 214
f 8 214 177
f 8 177 147
f 8 147 146
f 8 146 145
f 8 145 100
f 8 100 99
f 8 99 98
f 8 98 97
f 8 97 64
f 8 64 34
f 8 34 16
f 9 17 35
f 9 35 69
f 9 69 104
f 9 104 150
f 9 150 181
f 9 181 154
f 9 154 108
f 9 108 72
f 9 72 37
f 9 37 18
f 9 18 10
f 11 19 12
f 12 20 21
f 12 21 22
f 12 22 23
f 12 19 24
f 12 24 20
f 13 23 25
f 13 25 14
f 14 26 27
f 14 27 28
f 14 28 29
f 14 29 30
f 14 30 31
f 14 25 26
f 15 31 58
f 15 58 32
f 16 34 33
f 17 36 70
f 17 70 35
f 18 37 38
f 20 39 21
f 20 24 39
f 21 39 40
f 21 40 41
f 21 41 42
f 21 42 22
f 22 43 23
f 22 42 41
f 22 41 80
f 22 80 44
f 22 44 45
f 22 45 43
f 23 43 25
f 24 46 39
f 25 43 45
f 25 45 27
f 25 27 26
f 27 47 48
f 27 48 49
f 27 49 28
f 27 45 47
f 28 49 50
f 28 50 51
f 28 51 30
f 28 30 29
f 30 51 52
f 30 52 53
f 30 53 54
f 30 54 55
f 30 55 31
f 31 55 56
f 31 56 57
f 31 57 58
f 32 58 94
f 32 94 59
f 33 34 60
f 33 60 61
f 33 61 62
f 33 62 63
f 34 64 65
f 34 65 66
f 34 66 60
f 35 67 68
f 35 68 69
f 35 70 67
f 36 71 107
f 36 107 70
f 37 72 73
f 37 73 74
f 37 74 38
f 39 75 76
f 39 76 40
f 39 46 77
f 39 77 78
f 39 78 75
f 40 76 79
f 40 79 80
f 40 80 41
f 44 80 79
f 44 79 47
f 44 47 45
f 47 79 48
f 48 79 81
f 48 81 50
f 48 50 49
f 50 82 51
f 50 81 82
f 51 82 83
f 51 83 52
f 52 83 84
f 52 84 85
f 52 85 86
f 52 86 53
f 53 86 54
f 54 86 85
f 54 85 87
f 54 87 88
f 54 88 55
f 55 88 89
f 55 89 56
f 56 89 57
f 57 89 90
f 57 90 91
f 57 91 133
f 57 133 92
f 57 92 58
f 58 93 94
f 58 92 93
f 59 94 107
f 59 107 71
f 60 66 61
f 61 66 95
f 61 95 96
f 61 96 75
f 61 75 63
f 61 63 62
f 63 75 78
f 64 97 65
f 65 97 98
f 65 98 66
f 66 98 99
f 66 99 100
f 66 100 101
f 66 101 95
f 67 70 102
f 67 102 68
f 68 103 104
f 68 104 69
f 68 102 105
f 68 105 103
f 70 106 102
f 70 107 106
f 72 108 109
f 72 109 73
f 73 109 74
f 74 109 110
f 74 110 111
f 74 111 112
f 75 96 113
f 75 113 114
f 75 114 76
f 76 113 115
f 76 115 116
f 76 116 117
f 76 117 79
f 76 114 113
f 79 117 82
f 79 82 81
f 82 117 118
f 82 118 119
f 82 119 120
f 82 120 83
f 83 120 84
f 84 120 85
f 85 120 121
f 85 121 87
f 87 122 123
f 87 123 89
f 87 89 88
f 87 121 122
f 89 124 125
f 89 125 90
f 89 123 126
f 89 126 124
f 90 125 127
f 90 127 128
f 90 128 129
f 90 129 130
f 90 130 131
f 90 131 132
f 90 132 91
f 91 132 134
f 91 134 133
f 92 133 134
f 92 134 135
f 92 135 93
f 93 135 136
f 93 136 137
f 93 137 138
f 93 138 94
f 94 138 139
f 94 139 140
f 94 140 141
f 94 141 142
f 94 142 107
f 95 101 143
f 95 143 144
f 95 144 113
f 95 113 96
f 100 145 101
f 101 146 147
f 101 147 143
f 101 145 146
f 102 106 148
f 102 148 149
f 102 149 105
f 103 150 104
f 103 105 151
f 103 151 152
f 103 152 150
f 105 149 151
f 106 142 174
f 106 174 153
f 106 153 149
f 106 149 148
f 106 107 142
f 108 154 109
f 109 154 155
f 109 155 156
f 109 156 110
f 110 156 111
f 111 156 157
f 111 157 112
f 112 157 158
f 113 144 117
f 113 117 115
f 115 117 116
f 117 144 118
f 118 144 159
f 118 159 160
f 118 160 119
f 119 160 161
f 119 161 162
f 119 162 127
f 119 127 163
f 119 163 121
f 119 121 120
f 121 163 122
f 122 163 123
f 123 163 127
f 123 127 126
f 124 127 125
f 124 126 127
f 127 162 164
f 127 164 128
f 128 164 165
f 128 165 129
f 129 165 166
f 129 166 167
f 129 167 130
f 130 167 131
f 131 167 132
f 132 167 135
f 132 135 134
f 135 167 168
f 135 168 136
f 136 168 166
f 136 166 169
f 136 169 137
f 137 169 170
f 137 170 139
f 137 139 138
f 139 170 171
f 139 171 172
f 139 172 173
f 139 173 140
f 140 173 141
f 141 173 142
f 142 173 174
f 143 147 175
f 143 175 144
f 144 175 176
f 144 176 159
f 147 177 175
f 149 178 179
f 149 179 152
f 149 152 151
f 149 153 178
f 150 180 181
f 150 152 180
f 152 182 183
f 152 183 180
f 152 179 184
f 152 184 185
f 152 185 182
f 153 174 186
f 153 186 187
f 153 187 178
f 154 181 183
f 154 183 155
f 155 188 189
f 155 189 157
f 155 157 156
f 155 183 182
f 155 182 190
f 155 190 191
f 155 191 188
f 157 189 192
f 157 192 193
f 157 193 158
f 159 194 160
f 159 176 175
f 159 175 194
f 160 194 195
f 160 195 196
f 160 196 197
f 160 197 198
f 160 198 162
f 160 162 161
f 162 198 199
f 162 199 200
f 162 200 164
f 164 200 199
f 164 199 201
f 164 201 202
f 164 202 203
f 164 203 165
f 165 203 204
f 165 204 166
f 166 204 169
f 166 168 167
f 169 204 205
f 169 205 206
f 169 206 170
f 170 207 172
f 170 172 208
f 170 208 171
f 170 206 209
f 170 209 210
f 170 210 211
f 170 211 207
f 171 208 172
f 172 207 211
f 172 211 174
f 172 174 173
f 174 211 210
f 174 210 212
f 174 212 213
f 174 213 186
f 175 177 214
f 175 214 215
f 175 215 194
f 178 187 216
f 178 216 184
f 178 184 179
f 180 183 181
f 182 185 217
f 182 217 190
f 184 216 187
f 184 187 186
f 184 186 213
f 184 213 209
f 184 209 185
f 185 206 218
f 185 218 203
f 185 203 217
f 185 209 206
f 188 219 220
f 188 220 221
f 188 221 189
f 188 191 219
f 189 221 192
f 190 217 191
f 191 203 222
f 191 222 223
f 191 223 219
f 191 217 203
f 192 221 193
f 195 224 196
f 196 224 225
f 196 225 197
f 197 225 198
f 198 225 226
f 198 226 199
f 199 226 227
f 199 227 228
f 199 228 229
f 199 229 230
f 199 230 231
f 199 231 232
f 199 232 233
f 199 233 202
f 199 202 201
f 202 233 203
f 203 233 234
f 203 234 235
f 203 235 236
f 203 236 237
f 203 237 238
f 203 238 222
f 203 218 205
f 203 205 204
f 205 218 206
f 209 213 239
f 209 239 210
f 210 239 213
f 210 213 212
f 219 240 241
f 219 241 220
f 219 223 240
f 222 242 223
f 222 238 242
f 223 242 243
f 223 243 240
f 224 244 225
f 225 244 227
f 225 227 226
f 229 231 230
f 232 245 234
f 232 234 246
f 232 246 233
f 233 246 234
f 234 245 235
f 235 237 236
f 237 247 242
f 237 242 238
f 240 243 248
f 242 247 249
f 242 249 243
f 243 249 248
