v 0.39794 -0.367087 0.160784
v 0.397808 -0.367087 0.148985
v 0.397902 -0.367087 0.161202
v 0.390182 -0.393436 0.161244
v 0.390012 -0.393436 0.148359
v 0.388323 -0.393778 0.136288
v 0.390391 -0.380538 0.122547
v 0.394166 -0.367641 0.122547
v 0.392629 -0.367087 0.109662
v 0.39648 -0.367087 0.17346
v 0.387204 -0.400568 0.169388
v 0.387641 -0.401912 0.161244
v 0.387546 -0.401629 0.148359
v 0.387072 -0.400191 0.141154
v 0.386502 -0.398293 0.13255
v 0.385194 -0.392611 0.109912
v 0.391889 -0.367641 0.105276
v 0.392041 -0.367087 0.105276
v 0.396233 -0.367641 0.17415
v 0.394697 -0.367087 0.187076
v 0.384985 -0.405461 0.173878
v 0.3803 -0.419242 0.17415
v 0.374249 -0.43906 0.16897
v 0.385497 -0.408361 0.161244
v 0.388551 -0.394025 0.173878
v 0.386635 -0.398717 0.177992
v 0.375918 -0.407088 0.238533
v 0.373775 -0.411886 0.242772
v 0.385402 -0.408078 0.148359
v 0.380888 -0.406333 0.109662
v 0.3803 -0.406333 0.105276
v 0.381666 -0.401971 0.105276
v 0.384492 -0.392905 0.105276
v 0.298831 -0.367087 0.105276
v 0.388779 -0.381387 0.200254
v 0.387906 -0.367087 0.238637
v 0.378612 -0.419242 0.187055
v 0.374344 -0.41356 0.234168
v 0.358885 -0.482574 0.17321
v 0.361256 -0.477505 0.168281
v 0.381817 -0.419242 0.161244
v 0.376392 -0.420409 0.200922
v 0.361692 -0.478801 0.150844
v 0.381893 -0.393436 0.225731
v 0.380186 -0.393436 0.238637
v 0.375254 -0.403409 0.251522
v 0.360781 -0.450319 0.242083
v 0.348357 -0.487514 0.240412
v 0.381628 -0.419242 0.148359
v 0.379939 -0.419242 0.135453
v 0.375975 -0.419231 0.105276
v 0.256133 -0.487514 0.105276
v 0.204198 -0.487514 0.31862
v 0.257062 -0.367205 0.31862
v 0.257119 -0.367087 0.31862
v 0.386977 -0.367087 0.245633
v 0.356514 -0.487514 0.178076
v 0.357102 -0.487514 0.173544
v 0.35824 -0.487514 0.164
v 0.349761 -0.487514 0.229741
v 0.359435 -0.485038 0.161244
v 0.377436 -0.432128 0.161244
v 0.358562 -0.487514 0.161244
v 0.358259 -0.487514 0.147607
v 0.359681 -0.483352 0.147273
v 0.374571 -0.440015 0.148359
v 0.38618 -0.367087 0.251522
v 0.385933 -0.367087 0.253318
v 0.378346 -0.393436 0.251522
v 0.374514 -0.401193 0.259082
v 0.373035 -0.409858 0.251522
v 0.347997 -0.487514 0.242417
v 0.375577 -0.432493 0.136539
v 0.374458 -0.426787 0.113275
v 0.354029 -0.483729 0.105276
v 0.356305 -0.483729 0.122547
v 0.352682 -0.487514 0.105276
v 0.318387 -0.487514 0.31862
v 0.36063 -0.367087 0.31862
v 0.356665 -0.487514 0.135453
v 0.371726 -0.443811 0.136539
v 0.383297 -0.367087 0.263259
v 0.361256 -0.438812 0.258184
v 0.349249 -0.480157 0.248369
v 0.375406 -0.392198 0.263802
v 0.37275 -0.395676 0.267686
v 0.360592 -0.398034 0.295273
v 0.349192 -0.403126 0.31862
v 0.362375 -0.403256 0.286669
v 0.370929 -0.405826 0.263802
v 0.362489 -0.432128 0.261128
v 0.345474 -0.487514 0.252023
v 0.353004 -0.487514 0.107657
v 0.35547 -0.487514 0.126348
v 0.319392 -0.484896 0.31862
v 0.321555 -0.487514 0.311081
v 0.360497 -0.367547 0.31862
v 0.362792 -0.367087 0.31342
v 0.377796 -0.367087 0.277167
v 0.347959 -0.476385 0.256973
v 0.34665 -0.484166 0.252211
v 0.346498 -0.471575 0.26495
v 0.342268 -0.483729 0.264428
v 0.349514 -0.467779 0.260982
v 0.377473 -0.367087 0.277981
v 0.372466 -0.380538 0.279882
v 0.353441 -0.393436 0.316031
v 0.351544 -0.396053 0.31862
v 0.347295 -0.40842 0.31862
v 0.360838 -0.41185 0.282972
v 0.359359 -0.407064 0.290678
v 0.362621 -0.416743 0.274368
v 0.364973 -0.420315 0.265535
v 0.350197 -0.418606 0.302728
v 0.337754 -0.434663 0.31862
v 0.334226 -0.487007 0.280988
v 0.351335 -0.458335 0.26495
v 0.340884 -0.487514 0.264365
v 0.322333 -0.487514 0.309223
v 0.320531 -0.484319 0.316407
v 0.32366 -0.473249 0.31862
v 0.372162 -0.367087 0.290804
v 0.339328 -0.487514 0.268166
v 0.346631 -0.410271 0.31862
v 0.34868 -0.413878 0.310538
v 0.344981 -0.418606 0.315321
v 0.338588 -0.432375 0.31862
v 0.324855 -0.469983 0.31862
v 0.333827 -0.487514 0.281469
v 0.336654 -0.487514 0.27464
v 0.323243 -0.487514 0.30703
v 0.343501 -0.418889 0.31862
f 1 2 9
f 1 9 18
f 1 18 34
f 1 34 55
f 1 55 79
f 1 79 98
f 1 98 122
f 1 122 105
f 1 105 99
f 1 99 82
f 1 82 68
f 1 68 67
f 1 67 56
f 1 56 36
f 1 36 20
f 1 20 10
f 1 10 3
f 1 3 4
f 1 4 2
f 2 4 5
f 2 5 6
f 2 6 7
f 2 7 8
f 2 8 9
f 3 10 11
f 3 11 4
f 4 11 12
f 4 12 5
f 5 12 13
f 5 13 14
f 5 14 15
f 5 15 6
f 6 15 16
f 6 16 7
f 7 16 8
f 8 16 17
f 8 17 9
f 9 17 18
f 10 19 11
f 10 20 19
f 11 21 22
f 11 22 23
f 11 23 24
f 11 24 12
f 11 19 25
f 11 25 26
f 11 26 27
f 11 27 28
f 11 28 21
f 12 24 29
f 12 29 13
f 13 29 30
f 13 30 14
f 14 30 31
f 14 31 32
f 14 32 15
f 15 32 33
f 15 33 16
f 16 33 17
f 17 33 32
f 17 32 31
f 17 31 51
f 17 51 75
f 17 75 77
f 17 77 52
f 17 52 34
f 17 34 18
f 19 20 25
f 20 35 25
f 20 36 35
f 21 37 22
f 21 28 38
f 21 38 37
f 22 37 23
f 23 39 40
f 23 40 41
f 23 41 24
f 23 37 42
f 23 42 39
f 24 41 43
f 24 43 29
f 25 35 26
f 26 35 44
f 26 44 45
f 26 45 27
f 27 45 46
f 27 46 28
f 28 46 47
f 28 47 48
f 28 48 38
f 29 49 50
f 29 50 51
f 29 51 30
f 29 43 49
f 30 51 31
f 34 52 53
f 34 53 54
f 34 54 55
f 35 36 44
f 36 56 45
f 36 45 44
f 37 38 42
f 38 48 42
f 39 57 58
f 39 58 59
f 39 59 40
f 39 42 48
f 39 48 60
f 39 60 57
f 40 59 61
f 40 61 62
f 40 62 41
f 41 62 43
f 43 62 61
f 43 61 63
f 43 63 64
f 43 64 65
f 43 65 66
f 43 66 49
f 45 56 67
f 45 67 68
f 45 68 69
f 45 69 46
f 46 69 70
f 46 70 71
f 46 71 72
f 46 72 48
f 46 48 47
f 48 72 92
f 48 92 118
f 48 118 123
f 48 123 130
f 48 130 129
f 48 129 131
f 48 131 119
f 48 119 96
f 48 96 78
f 48 78 53
f 48 53 52
f 48 52 77
f 48 77 93
f 48 93 94
f 48 94 80
f 48 80 64
f 48 64 63
f 48 63 59
f 48 59 58
f 48 58 57
f 48 57 60
f 49 66 50
f 50 66 73
f 50 73 74
f 50 74 51
f 51 74 76
f 51 76 75
f 53 78 95
f 53 95 121
f 53 121 128
f 53 128 115
f 53 115 127
f 53 127 132
f 53 132 124
f 53 124 109
f 53 109 88
f 53 88 108
f 53 108 97
f 53 97 79
f 53 79 55
f 53 55 54
f 59 63 61
f 64 80 65
f 65 80 76
f 65 76 66
f 66 76 81
f 66 81 73
f 68 70 69
f 68 82 70
f 70 83 84
f 70 84 72
f 70 72 71
f 70 82 85
f 70 85 86
f 70 86 87
f 70 87 88
f 70 88 89
f 70 89 90
f 70 90 91
f 70 91 83
f 72 84 92
f 73 81 76
f 73 76 74
f 75 93 77
f 75 76 94
f 75 94 93
f 76 80 94
f 78 96 95
f 79 97 98
f 82 99 85
f 83 100 101
f 83 101 84
f 83 91 102
f 83 102 103
f 83 103 104
f 83 104 100
f 84 101 92
f 85 99 105
f 85 105 86
f 86 105 106
f 86 106 87
f 87 107 108
f 87 108 88
f 87 106 107
f 88 109 110
f 88 110 111
f 88 111 90
f 88 90 89
f 90 111 110
f 90 110 112
f 90 112 113
f 90 113 91
f 91 113 112
f 91 112 114
f 91 114 115
f 91 115 116
f 91 116 117
f 91 117 102
f 92 101 100
f 92 100 118
f 95 96 119
f 95 119 120
f 95 120 121
f 97 108 107
f 97 107 106
f 97 106 105
f 97 105 122
f 97 122 98
f 100 104 103
f 100 103 118
f 102 117 116
f 102 116 103
f 103 123 118
f 103 116 123
f 109 124 110
f 110 124 125
f 110 125 126
f 110 126 114
f 110 114 112
f 114 126 115
f 115 128 116
f 115 126 127
f 116 129 130
f 116 130 123
f 116 128 120
f 116 120 131
f 116 131 129
f 119 131 120
f 120 128 121
f 124 132 126
f 124 126 125
f 126 132 127
