v -0.422315 -0.0293387 -0.0493667
v -0.317183 -0.0293387 -0.0493667
v -0.414326 -0.0293387 -0.0686627
v -0.414167 -0.032292 -0.067866
v -0.411853 -0.091983 -0.0493667
v -0.0984226 -0.0293387 -0.20986
v -0.161166 -0.486374 -0.0493667
v -0.0984226 -0.486374 -0.085942
v -0.411663 -0.0293387 -0.0749121
v -0.407446 -0.0967709 -0.0580561
v -0.410933 -0.0709525 -0.0600729
v -0.410807 -0.0980685 -0.0493667
v -0.0984226 -0.0293387 -0.303701
v -0.291883 -0.486374 -0.0493667
v -0.0984226 -0.486374 -0.188771
v -0.4077 -0.0293387 -0.0814603
v -0.399869 -0.0902827 -0.0774019
v -0.40231 -0.0967709 -0.0697831
v -0.401168 -0.109658 -0.0673182
v -0.405163 -0.109658 -0.0580561
v -0.408682 -0.109926 -0.0493667
v -0.0984226 -0.0305916 -0.303527
v -0.0997225 -0.0293387 -0.303551
v -0.291693 -0.486374 -0.0496405
v -0.292898 -0.484092 -0.0493667
v -0.109139 -0.486374 -0.184688
v -0.100325 -0.474561 -0.192481
v -0.0984226 -0.478633 -0.191659
v -0.406336 -0.0293387 -0.0836265
v -0.400629 -0.0816915 -0.0784975
v -0.402373 -0.0293387 -0.089353
v -0.40082 -0.0293387 -0.091569
v -0.397015 -0.0293387 -0.0965486
v -0.384207 -0.032292 -0.112508
v -0.360872 -0.0887613 -0.128617
v -0.371493 -0.0967709 -0.112732
v -0.387123 -0.10393 -0.0905232
v -0.390643 -0.108808 -0.0845228
v -0.389913 -0.122589 -0.0812611
v -0.399234 -0.0967709 -0.0762317
v -0.397903 -0.109658 -0.0737668
v -0.400344 -0.118294 -0.0655006
v -0.407826 -0.114311 -0.0493667
v -0.0984226 -0.0815125 -0.295609
v -0.100515 -0.0751138 -0.296331
v -0.109646 -0.032292 -0.301784
v -0.109646 -0.0293387 -0.302232
v -0.11418 -0.0628982 -0.296431
v -0.282087 -0.486195 -0.0623137
v -0.282055 -0.486374 -0.062239
v -0.299429 -0.468744 -0.0493667
v -0.297653 -0.466641 -0.0528773
v -0.110343 -0.486374 -0.184215
v -0.110882 -0.484942 -0.184538
v -0.104605 -0.465969 -0.194074
v -0.10562 -0.428383 -0.20737
v -0.0984226 -0.475456 -0.192805
v -0.102195 -0.399209 -0.219072
v -0.384492 -0.0293387 -0.112882
v -0.374061 -0.0293387 -0.126476
v -0.338552 -0.083884 -0.158943
v -0.348127 -0.102498 -0.141714
v -0.336238 -0.107107 -0.155931
v -0.375107 -0.109658 -0.104541
v -0.386172 -0.112521 -0.0892783
v -0.374283 -0.116951 -0.103495
v -0.377771 -0.121784 -0.0973702
v -0.382368 -0.147915 -0.0828546
v -0.388296 -0.135476 -0.0791697
v -0.387314 -0.143351 -0.077875
v -0.387123 -0.181296 -0.0647537
v -0.399425 -0.126885 -0.0634092
v -0.406146 -0.122589 -0.0493667
v -0.0984226 -0.0950705 -0.293493
v -0.109646 -0.0967709 -0.29175
v -0.112626 -0.0293387 -0.301634
v -0.117572 -0.054307 -0.297078
v -0.109646 -0.109658 -0.289608
v -0.117318 -0.131136 -0.284206
v -0.266773 -0.484047 -0.0834522
v -0.270641 -0.486374 -0.0771032
v -0.270546 -0.463598 -0.0898759
v -0.32029 -0.419702 -0.0493667
v -0.27378 -0.443775 -0.0966482
v -0.313664 -0.418897 -0.0584545
v -0.112373 -0.486374 -0.183393
v -0.16069 -0.483241 -0.16457
v -0.119823 -0.481452 -0.182123
v -0.114211 -0.423506 -0.205602
v -0.109804 -0.41921 -0.208988
v -0.109646 -0.406323 -0.213694
v -0.0984226 -0.437959 -0.20615
v -0.0994371 -0.359474 -0.231646
v -0.0984226 -0.400282 -0.219421
v -0.0984226 -0.404668 -0.217927
v -0.110026 -0.394331 -0.217578
v -0.105968 -0.390617 -0.220392
v -0.105271 -0.350883 -0.23294
v -0.361126 -0.0293387 -0.143332
v -0.335445 -0.064867 -0.167782
v -0.334589 -0.0734582 -0.166711
v -0.337284 -0.0967709 -0.1573
v -0.345337 -0.0293387 -0.163898
v -0.332243 -0.0967709 -0.163749
v -0.331736 -0.110732 -0.160636
v -0.335287 -0.115743 -0.154686
v -0.345844 -0.122589 -0.138726
v -0.361316 -0.12957 -0.116293
v -0.369464 -0.199508 -0.0828546
v -0.373332 -0.203535 -0.0764558
v -0.377802 -0.199508 -0.0716754
v -0.385094 -0.16125 -0.0747378
v -0.376819 -0.212842 -0.0682892
v -0.375298 -0.223536 -0.0661978
v -0.386109 -0.189887 -0.0626374
v -0.38706 -0.206712 -0.0518067
v -0.387789 -0.199955 -0.0535744
v -0.400281 -0.143754 -0.0525785
v -0.403388 -0.135476 -0.0493667
v -0.0984226 -0.0967709 -0.293219
v -0.0984226 -0.108002 -0.291376
v -0.123311 -0.0293387 -0.299393
v -0.126544 -0.0451788 -0.295933
v -0.128542 -0.0378852 -0.29653
v -0.12255 -0.0967709 -0.288737
v -0.0984226 -0.109658 -0.291077
v -0.0984226 -0.120889 -0.288986
v -0.109646 -0.122589 -0.287193
v -0.128383 -0.114848 -0.283533
v -0.11976 -0.122589 -0.285052
v -0.112785 -0.139727 -0.283334
v -0.112531 -0.20349 -0.270238
v -0.116811 -0.194899 -0.271159
v -0.259259 -0.486374 -0.0918926
v -0.263825 -0.486374 -0.0859669
v -0.270895 -0.43863 -0.103246
v -0.324253 -0.410306 -0.0493667
v -0.322161 -0.412006 -0.0511842
v -0.281484 -0.41921 -0.100209
v -0.283164 -0.41129 -0.1024
v -0.153905 -0.486374 -0.166213
v -0.161007 -0.486374 -0.163226
v -0.174006 -0.486374 -0.157748
v -0.174862 -0.484271 -0.158171
v -0.180727 -0.451651 -0.167782
v -0.174165 -0.445028 -0.172936
v -0.154191 -0.412051 -0.193228
v -0.117984 -0.414914 -0.207171
v -0.126608 -0.409992 -0.205378
v -0.130317 -0.401356 -0.206922
v -0.0984226 -0.359698 -0.23172
v -0.0984226 -0.361398 -0.231222
v -0.104003 -0.310388 -0.245315
v -0.0984226 -0.311775 -0.245738
v -0.166492 -0.398224 -0.192979
v -0.114592 -0.384935 -0.218649
v -0.117223 -0.336833 -0.232642
v -0.109614 -0.355 -0.230002
v -0.12255 -0.316026 -0.236974
v -0.112594 -0.305511 -0.243945
v -0.108853 -0.31522 -0.242302
v -0.336111 -0.0580656 -0.168629
v -0.333289 -0.0293387 -0.178563
v -0.324444 -0.109658 -0.169625
v -0.333543 -0.083884 -0.165392
v -0.340359 -0.0293387 -0.170272
v -0.338616 -0.032292 -0.171791
v -0.323302 -0.119323 -0.168504
v -0.32736 -0.123216 -0.162329
v -0.326378 -0.135476 -0.159715
v -0.323461 -0.158744 -0.156055
v -0.322383 -0.167335 -0.154686
v -0.334431 -0.122589 -0.15359
v -0.344227 -0.135476 -0.136635
v -0.337886 -0.174181 -0.132277
v -0.328946 -0.200044 -0.135489
v -0.322446 -0.206309 -0.141888
v -0.361443 -0.207338 -0.0906726
v -0.372032 -0.212842 -0.0747378
v -0.370859 -0.226981 -0.0706794
v -0.374029 -0.232127 -0.0644549
v -0.384936 -0.199955 -0.0600231
v -0.383382 -0.211768 -0.0568859
v -0.373934 -0.257543 -0.0513087
v -0.386045 -0.214542 -0.0493667
v -0.387599 -0.208501 -0.0493667
v -0.388582 -0.204251 -0.0493667
v -0.390896 -0.193556 -0.0493667
v -0.392355 -0.1868 -0.0493667
v -0.130349 -0.0293387 -0.297277
v -0.130381 -0.106257 -0.284355
v -0.123469 -0.110195 -0.286123
v -0.0984226 -0.122589 -0.288662
v -0.0984226 -0.149437 -0.283284
v -0.0984226 -0.15937 -0.281293
v -0.0984226 -0.198299 -0.273475
v -0.135453 -0.122589 -0.279002
v -0.155998 -0.118428 -0.271383
v -0.192204 -0.113237 -0.25744
v -0.13501 -0.110195 -0.281691
v -0.0984226 -0.19991 -0.273151
v -0.103939 -0.206935 -0.270985
v -0.108822 -0.199508 -0.271707
v -0.108822 -0.211857 -0.268918
v -0.104161 -0.258885 -0.258187
v -0.116843 -0.246267 -0.258287
v -0.12255 -0.212842 -0.264661
v -0.121694 -0.199508 -0.268171
v -0.256342 -0.474292 -0.101603
v -0.253045 -0.486374 -0.0983661
v -0.258594 -0.465656 -0.103769
v -0.27229 -0.432097 -0.104989
v -0.274351 -0.418315 -0.109769
v -0.271148 -0.413393 -0.116392
v -0.279677 -0.406726 -0.109272
v -0.326473 -0.404936 -0.0493667
v -0.323936 -0.403415 -0.0535247
v -0.290013 -0.405786 -0.0964739
v -0.28494 -0.402699 -0.10474
v -0.176986 -0.486374 -0.156429
v -0.180442 -0.486374 -0.15481
v -0.193853 -0.400506 -0.180804
v -0.186466 -0.405428 -0.182223
v -0.181742 -0.414064 -0.181053
v -0.0984226 -0.288552 -0.251639
v -0.0984226 -0.30296 -0.248004
v -0.116272 -0.296875 -0.24514
v -0.108853 -0.301976 -0.246062
v -0.187068 -0.393392 -0.185958
v -0.174101 -0.39375 -0.191236
v -0.126449 -0.370661 -0.218226
v -0.125847 -0.33115 -0.230874
v -0.121947 -0.327705 -0.233563
v -0.131585 -0.316026 -0.233239
v -0.168521 -0.310656 -0.21962
v -0.140938 -0.308151 -0.23177
v -0.121377 -0.301976 -0.241605
v -0.338901 -0.0293387 -0.172139
v -0.328312 -0.0293387 -0.182771
v -0.318293 -0.0967709 -0.177393
v -0.315313 -0.110418 -0.176845
v -0.317088 -0.123216 -0.172463
v -0.322129 -0.127914 -0.167359
v -0.310462 -0.209352 -0.155682
v -0.319847 -0.187068 -0.151474
v -0.319022 -0.201208 -0.147888
v -0.314457 -0.213334 -0.149333
v -0.313062 -0.225773 -0.14632
v -0.321463 -0.212842 -0.140618
v -0.326441 -0.212842 -0.13417
v -0.364867 -0.212126 -0.0843734
v -0.360175 -0.215929 -0.0890045
v -0.358684 -0.225773 -0.0870624
v -0.364613 -0.251547 -0.0689864
v -0.378056 -0.226981 -0.0593259
v -0.361474 -0.271862 -0.0649031
v -0.358653 -0.290207 -0.0611684
v -0.36195 -0.299425 -0.0528026
v -0.360682 -0.308016 -0.0505618
v -0.361506 -0.306898 -0.0493667
v -0.373142 -0.263494 -0.0493667
v -0.375234 -0.255619 -0.0493667
v -0.215475 -0.0293387 -0.262021
v -0.132378 -0.0967709 -0.285177
v -0.138846 -0.0967709 -0.282513
v -0.174165 -0.109658 -0.265582
v -0.194138 -0.104646 -0.258237
v -0.166555 -0.100395 -0.270412
v -0.161578 -0.160668 -0.260005
v -0.199972 -0.122589 -0.252286
v -0.219756 -0.116996 -0.245265
v -0.213098 -0.121829 -0.247008
v -0.212844 -0.109658 -0.249547
v -0.0984226 -0.208501 -0.271358
v -0.0984226 -0.213423 -0.270188
v -0.0984226 -0.265552 -0.25739
v -0.18003 -0.295756 -0.219047
v -0.187417 -0.239958 -0.230724
v -0.187417 -0.225594 -0.234509
v -0.128161 -0.230919 -0.257639
v -0.123342 -0.226266 -0.260851
v -0.13092 -0.222283 -0.25876
v -0.139512 -0.215437 -0.256992
v -0.135327 -0.211813 -0.259656
v -0.142175 -0.206846 -0.258087
v -0.200955 -0.200716 -0.235082
v -0.153018 -0.190021 -0.257241
v -0.246546 -0.486374 -0.104317
v -0.250477 -0.486374 -0.100756
v -0.25184 -0.47031 -0.10708
v -0.281706 -0.393392 -0.113479
v -0.282689 -0.358893 -0.12797
v -0.268041 -0.393392 -0.126825
v -0.259386 -0.40243 -0.130061
v -0.257072 -0.411021 -0.128269
v -0.264491 -0.418315 -0.119455
v -0.260274 -0.42977 -0.117861
v -0.329802 -0.39639 -0.0493667
v -0.30875 -0.397598 -0.0763313
v -0.296829 -0.400282 -0.0905232
v -0.286715 -0.393392 -0.107031
v -0.183581 -0.486374 -0.15252
v -0.182344 -0.480378 -0.15598
v -0.193473 -0.361085 -0.193452
v -0.194868 -0.428114 -0.168728
v -0.19734 -0.41921 -0.170571
v -0.199845 -0.406144 -0.174081
v -0.208183 -0.403146 -0.169077
v -0.202064 -0.393392 -0.177343
v -0.204569 -0.383234 -0.17921
v -0.207201 -0.337056 -0.19405
v -0.204696 -0.307032 -0.205602
v -0.143855 -0.299559 -0.23299
v -0.191 -0.367618 -0.192431
v -0.186371 -0.380013 -0.190464
v -0.181615 -0.375359 -0.1939
v -0.16589 -0.358758 -0.205627
v -0.138941 -0.354731 -0.218051
v -0.138021 -0.316026 -0.230575
v -0.19008 -0.328913 -0.204955
v -0.187956 -0.316787 -0.209636
v -0.196104 -0.312983 -0.207445
v -0.200226 -0.302915 -0.20869
v -0.148357 -0.316026 -0.226293
v -0.14823 -0.303542 -0.230052
v -0.326853 -0.0293387 -0.183941
v -0.319942 -0.083884 -0.178638
v -0.296354 -0.101917 -0.193228
v -0.310557 -0.106615 -0.181327
v -0.252475 -0.0967709 -0.227936
v -0.309321 -0.115251 -0.180381
v -0.245183 -0.103438 -0.232218
v -0.259132 -0.109658 -0.220143
v -0.308148 -0.122589 -0.179484
v -0.309321 -0.166932 -0.167508
v -0.306023 -0.187068 -0.164993
v -0.302568 -0.200939 -0.164147
v -0.296512 -0.205906 -0.167583
v -0.304089 -0.213334 -0.159566
v -0.309035 -0.217943 -0.154287
v -0.319529 -0.225773 -0.138079
v -0.311096 -0.23866 -0.14383
v -0.345083 -0.214139 -0.109371
v -0.315883 -0.276828 -0.122368
v -0.324475 -0.290207 -0.105811
v -0.35488 -0.277813 -0.0711525
v -0.352217 -0.290207 -0.0696337
v -0.350156 -0.303094 -0.0669945
v -0.357226 -0.303497 -0.0574835
v -0.352248 -0.315668 -0.0585541
v -0.350505 -0.328913 -0.0545704
v -0.348983 -0.33737 -0.0525536
v -0.347429 -0.345961 -0.050263
v -0.346859 -0.349004 -0.0493667
v -0.360111 -0.311238 -0.0493667
v -0.22226 -0.0293387 -0.259208
v -0.187068 -0.083884 -0.264685
v -0.202223 -0.0967709 -0.256245
v -0.212844 -0.0967709 -0.251838
v -0.174165 -0.174181 -0.251888
v -0.208152 -0.196912 -0.232915
v -0.217536 -0.125632 -0.244344
v -0.218995 -0.179998 -0.232044
v -0.227872 -0.109658 -0.242925
v -0.230567 -0.0967709 -0.244269
v -0.221404 -0.109658 -0.245962
v -0.214968 -0.135476 -0.243298
v -0.224099 -0.0967709 -0.247132
v -0.199972 -0.290207 -0.212225
v -0.200669 -0.25195 -0.22206
v -0.19937 -0.225594 -0.229554
v -0.135327 -0.226266 -0.255896
v -0.194677 -0.221165 -0.232667
v -0.174101 -0.213558 -0.243149
v -0.197245 -0.212842 -0.233737
v -0.205932 -0.205503 -0.231969
v -0.212749 -0.482481 -0.131929
v -0.195533 -0.486374 -0.143457
v -0.251365 -0.458586 -0.112458
v -0.283196 -0.385427 -0.115372
v -0.284528 -0.350301 -0.129763
v -0.245183 -0.400014 -0.141963
v -0.270007 -0.385158 -0.128343
v -0.246768 -0.393392 -0.143183
v -0.205837 -0.411737 -0.167284
v -0.248353 -0.41921 -0.131506
v -0.251999 -0.432902 -0.122891
v -0.330943 -0.393392 -0.0493667
v -0.33367 -0.385964 -0.0493667
v -0.322224 -0.386232 -0.064181
v -0.305072 -0.393347 -0.0831534
v -0.296544 -0.347885 -0.115919
v -0.186878 -0.486374 -0.150055
v -0.186815 -0.484271 -0.151051
v -0.199496 -0.432276 -0.163425
v -0.230979 -0.397284 -0.153864
v -0.210593 -0.393392 -0.170919
v -0.208342 -0.367618 -0.182074
v -0.219914 -0.310835 -0.19395
v -0.213288 -0.315489 -0.197112
v -0.212051 -0.302915 -0.202141
v -0.207232 -0.298441 -0.206872
v -0.246165 -0.0293387 -0.245887
v -0.247655 -0.083884 -0.234136
v -0.238651 -0.0967709 -0.238518
v -0.243946 -0.112029 -0.231272
v -0.25815 -0.116504 -0.219371
v -0.239254 -0.108494 -0.235629
v -0.252094 -0.121515 -0.222782
v -0.239254 -0.1604 -0.222906
v -0.232532 -0.194496 -0.21952
v -0.25295 -0.199955 -0.20249
v -0.231106 -0.203087 -0.21845
v -0.245309 -0.20698 -0.206548
v -0.22933 -0.212842 -0.21708
v -0.257864 -0.218927 -0.193377
v -0.286176 -0.225773 -0.16955
v -0.301014 -0.225773 -0.158146
v -0.290932 -0.290073 -0.146121
v -0.297273 -0.285643 -0.142486
v -0.309923 -0.246267 -0.142361
v -0.310589 -0.274144 -0.130335
v -0.308116 -0.290207 -0.127099
v -0.323144 -0.298709 -0.104068
v -0.335033 -0.295577 -0.0898759
v -0.340328 -0.290834 -0.0848963
v -0.318039 -0.30305 -0.108898
v -0.321749 -0.307345 -0.10225
v -0.348824 -0.311104 -0.0652517
v -0.347271 -0.31974 -0.06321
v -0.33703 -0.367618 -0.0537487
v -0.334114 -0.383503 -0.0499642
v -0.228126 -0.032292 -0.25627
v -0.22375 -0.0293387 -0.258585
v -0.210022 -0.0580656 -0.259482
v -0.212622 -0.200716 -0.230152
v -0.217156 -0.187068 -0.231247
v -0.220865 -0.223178 -0.220342
v -0.222863 -0.212842 -0.221736
v -0.232532 -0.142904 -0.232418
v -0.231962 -0.0896563 -0.244941
v -0.235861 -0.122589 -0.234957
v -0.226889 -0.0847789 -0.247954
v -0.205425 -0.256469 -0.218873
v -0.202889 -0.264434 -0.217827
v -0.203713 -0.212842 -0.231048
v -0.212844 -0.212842 -0.227064
v -0.216331 -0.457915 -0.139622
v -0.204315 -0.447668 -0.153192
v -0.284781 -0.376836 -0.117388
v -0.296354 -0.321664 -0.128617
v -0.297939 -0.313028 -0.130609
v -0.295719 -0.294235 -0.140967
v -0.285289 -0.312759 -0.143058
v -0.277965 -0.354642 -0.133373
v -0.226318 -0.393168 -0.158968
v -0.256279 -0.380505 -0.140593
v -0.281452 -0.328913 -0.14012
v -0.258435 -0.336251 -0.155134
v -0.208627 -0.432097 -0.156503
v -0.308433 -0.345155 -0.101727
v -0.320195 -0.316026 -0.100258
v -0.303107 -0.315981 -0.122542
v -0.212749 -0.380281 -0.174081
v -0.248385 -0.316026 -0.170222
v -0.271085 -0.31003 -0.15496
v -0.256913 -0.306987 -0.166861
v -0.252189 -0.302871 -0.17184
v -0.221563 -0.303094 -0.19522
v -0.215507 -0.290207 -0.20371
v -0.219058 -0.231769 -0.219147
v -0.207993 -0.247878 -0.220018
v -0.239539 -0.0293387 -0.250294
v -0.234435 -0.0709525 -0.24656
v -0.233135 -0.081065 -0.245688
v -0.237922 -0.0847789 -0.241406
v -0.242297 -0.122589 -0.230027
v -0.240205 -0.135476 -0.228409
v -0.226382 -0.199239 -0.222682
v -0.225399 -0.226803 -0.21586
v -0.235196 -0.225773 -0.208665
v -0.226699 -0.239063 -0.211105
v -0.239349 -0.251323 -0.197635
v -0.295276 -0.2545 -0.15374
v -0.281674 -0.290207 -0.153192
v -0.25872 -0.298396 -0.168255
v -0.287413 -0.303094 -0.144702
v -0.299619 -0.303094 -0.132726
v -0.301014 -0.290073 -0.136186
v -0.308591 -0.254858 -0.140643
v -0.306087 -0.303094 -0.124459
v -0.309828 -0.310298 -0.116467
v -0.228696 -0.0293387 -0.256519
v -0.213985 -0.226803 -0.222832
v -0.277172 -0.315668 -0.148237
v -0.224226 -0.290207 -0.197261
v -0.219565 -0.271504 -0.206573
v -0.220992 -0.264434 -0.207669
v -0.225811 -0.277455 -0.199975
v -0.239603 -0.290655 -0.185335
f 1 2 6
f 1 6 13
f 1 13 23
f 1 23 47
f 1 47 76
f 1 76 122
f 1 122 190
f 1 190 263
f 1 263 356
f 1 356 434
f 1 434 493
f 1 493 473
f 1 473 403
f 1 403 326
f 1 326 239
f 1 239 163
f 1 163 238
f 1 238 166
f 1 166 103
f 1 103 99
f 1 99 60
f 1 60 59
f 1 59 33
f 1 33 32
f 1 32 31
f 1 31 29
f 1 29 16
f 1 16 9
f 1 9 3
f 1 3 4
f 1 4 5
f 1 5 12
f 1 12 21
f 1 21 43
f 1 43 73
f 1 73 119
f 1 119 189
f 1 189 188
f 1 188 187
f 1 187 186
f 1 186 185
f 1 185 262
f 1 262 261
f 1 261 260
f 1 260 355
f 1 355 354
f 1 354 389
f 1 389 388
f 1 388 298
f 1 298 216
f 1 216 137
f 1 137 83
f 1 83 51
f 1 51 25
f 1 25 14
f 1 14 7
f 1 7 2
f 2 7 8
f 2 8 6
f 3 9 4
f 4 9 10
f 4 10 11
f 4 11 5
f 5 11 10
f 5 10 12
f 6 8 15
f 6 15 28
f 6 28 57
f 6 57 92
f 6 92 95
f 6 95 94
f 6 94 152
f 6 152 151
f 6 151 154
f 6 154 226
f 6 226 225
f 6 225 276
f 6 276 275
f 6 275 274
f 6 274 201
f 6 201 196
f 6 196 195
f 6 195 194
f 6 194 193
f 6 193 127
f 6 127 126
f 6 126 121
f 6 121 120
f 6 120 74
f 6 74 44
f 6 44 22
f 6 22 13
f 7 14 24
f 7 24 50
f 7 50 81
f 7 81 135
f 7 135 134
f 7 134 210
f 7 210 289
f 7 289 288
f 7 288 378
f 7 378 393
f 7 393 302
f 7 302 221
f 7 221 220
f 7 220 143
f 7 143 142
f 7 142 141
f 7 141 86
f 7 86 53
f 7 53 26
f 7 26 15
f 7 15 8
f 9 16 17
f 9 17 18
f 9 18 10
f 10 18 19
f 10 19 20
f 10 20 12
f 12 20 21
f 13 22 23
f 14 25 24
f 15 26 27
f 15 27 28
f 16 29 17
f 17 30 31
f 17 31 32
f 17 32 33
f 17 33 34
f 17 34 35
f 17 35 36
f 17 36 37
f 17 37 38
f 17 38 39
f 17 39 40
f 17 40 19
f 17 19 18
f 17 29 30
f 19 40 41
f 19 41 42
f 19 42 20
f 20 42 43
f 20 43 21
f 22 44 45
f 22 45 23
f 23 46 47
f 23 45 48
f 23 48 46
f 24 25 49
f 24 49 50
f 25 51 52
f 25 52 49
f 26 53 54
f 26 54 55
f 26 55 27
f 27 55 56
f 27 56 28
f 28 56 58
f 28 58 57
f 29 31 30
f 33 59 34
f 34 59 60
f 34 60 61
f 34 61 35
f 35 61 62
f 35 62 36
f 36 62 37
f 37 62 63
f 37 63 64
f 37 64 38
f 38 64 65
f 38 65 39
f 39 41 40
f 39 65 66
f 39 66 67
f 39 67 68
f 39 68 69
f 39 69 41
f 41 69 70
f 41 70 71
f 41 71 42
f 42 72 73
f 42 73 43
f 42 71 72
f 44 74 75
f 44 75 45
f 45 75 48
f 46 48 47
f 47 48 77
f 47 77 76
f 48 75 78
f 48 78 79
f 48 79 77
f 49 80 81
f 49 81 50
f 49 52 82
f 49 82 80
f 51 83 52
f 52 84 82
f 52 83 85
f 52 85 84
f 53 86 54
f 54 86 87
f 54 87 88
f 54 88 55
f 55 88 87
f 55 87 89
f 55 89 56
f 56 89 90
f 56 90 91
f 56 91 58
f 57 58 92
f 58 93 94
f 58 94 95
f 58 95 92
f 58 91 96
f 58 96 97
f 58 97 98
f 58 98 93
f 60 99 61
f 61 100 101
f 61 101 102
f 61 102 62
f 61 99 103
f 61 103 100
f 62 102 63
f 63 102 104
f 63 104 105
f 63 105 106
f 63 106 64
f 64 106 66
f 64 66 65
f 66 106 107
f 66 107 108
f 66 108 68
f 66 68 67
f 68 108 109
f 68 109 69
f 69 109 70
f 70 109 110
f 70 110 111
f 70 111 112
f 70 112 71
f 71 111 113
f 71 113 114
f 71 114 115
f 71 115 116
f 71 116 117
f 71 117 72
f 71 112 111
f 72 118 119
f 72 119 73
f 72 117 118
f 74 120 75
f 75 120 121
f 75 121 78
f 76 77 122
f 77 123 124
f 77 124 122
f 77 79 125
f 77 125 123
f 78 121 126
f 78 126 127
f 78 127 128
f 78 128 79
f 79 129 130
f 79 130 125
f 79 128 131
f 79 131 132
f 79 132 133
f 79 133 129
f 80 134 135
f 80 135 81
f 80 82 136
f 80 136 134
f 82 84 136
f 83 137 138
f 83 138 85
f 84 85 139
f 84 139 136
f 85 138 140
f 85 140 139
f 86 141 87
f 87 141 142
f 87 142 143
f 87 143 144
f 87 144 145
f 87 145 146
f 87 146 89
f 89 147 148
f 89 148 90
f 89 146 147
f 90 148 91
f 91 149 150
f 91 150 96
f 91 148 149
f 93 151 152
f 93 152 94
f 93 98 153
f 93 153 154
f 93 154 151
f 96 150 155
f 96 155 156
f 96 156 157
f 96 157 97
f 97 157 158
f 97 158 98
f 98 158 159
f 98 159 160
f 98 160 161
f 98 161 153
f 100 162 163
f 100 163 164
f 100 164 101
f 100 103 162
f 101 164 165
f 101 165 102
f 102 165 104
f 103 166 167
f 103 167 162
f 104 164 168
f 104 168 105
f 104 165 164
f 105 168 169
f 105 169 106
f 106 169 170
f 106 170 171
f 106 171 172
f 106 172 173
f 106 173 107
f 107 173 174
f 107 174 108
f 108 174 175
f 108 175 109
f 109 175 176
f 109 176 177
f 109 177 110
f 110 177 178
f 110 178 179
f 110 179 113
f 110 113 111
f 113 179 114
f 114 179 180
f 114 180 181
f 114 181 115
f 115 181 182
f 115 182 116
f 116 183 184
f 116 184 185
f 116 185 186
f 116 186 187
f 116 187 188
f 116 188 189
f 116 189 117
f 116 182 183
f 117 189 119
f 117 119 118
f 122 124 190
f 123 125 124
f 124 125 191
f 124 191 190
f 125 130 192
f 125 192 191
f 127 193 128
f 128 193 194
f 128 194 195
f 128 195 196
f 128 196 131
f 129 197 198
f 129 198 199
f 129 199 200
f 129 200 191
f 129 191 192
f 129 192 130
f 129 133 197
f 131 196 201
f 131 201 202
f 131 202 203
f 131 203 132
f 132 203 202
f 132 202 204
f 132 204 205
f 132 205 153
f 132 153 206
f 132 206 133
f 133 206 207
f 133 207 208
f 133 208 197
f 134 209 210
f 134 136 211
f 134 211 209
f 136 212 213
f 136 213 214
f 136 214 211
f 136 139 140
f 136 140 215
f 136 215 212
f 137 216 217
f 137 217 138
f 138 217 218
f 138 218 140
f 140 218 219
f 140 219 215
f 143 220 144
f 144 220 145
f 145 220 221
f 145 221 222
f 145 222 223
f 145 223 224
f 145 224 146
f 146 224 147
f 147 224 223
f 147 223 150
f 147 150 149
f 147 149 148
f 150 223 155
f 153 205 225
f 153 225 226
f 153 226 154
f 153 161 160
f 153 160 227
f 153 227 228
f 153 228 206
f 155 223 222
f 155 222 229
f 155 229 230
f 155 230 156
f 156 230 231
f 156 231 232
f 156 232 233
f 156 233 157
f 157 233 159
f 157 159 158
f 159 234 235
f 159 235 236
f 159 236 237
f 159 237 227
f 159 227 160
f 159 233 232
f 159 232 234
f 162 167 163
f 163 167 238
f 163 239 164
f 164 239 240
f 164 240 168
f 166 238 167
f 168 240 241
f 168 241 242
f 168 242 243
f 168 243 169
f 169 243 170
f 170 243 171
f 171 243 172
f 172 243 244
f 172 244 245
f 172 245 177
f 172 177 176
f 172 176 173
f 173 176 175
f 173 175 174
f 177 245 246
f 177 246 244
f 177 244 247
f 177 247 248
f 177 248 249
f 177 249 250
f 177 250 251
f 177 251 178
f 178 251 179
f 179 251 252
f 179 252 253
f 179 253 180
f 180 254 181
f 180 253 254
f 181 255 182
f 181 254 256
f 181 256 257
f 181 257 258
f 181 258 255
f 182 255 183
f 183 255 258
f 183 258 184
f 184 258 259
f 184 259 260
f 184 260 261
f 184 261 262
f 184 262 185
f 190 191 264
f 190 264 265
f 190 265 263
f 191 266 267
f 191 267 268
f 191 268 265
f 191 265 264
f 191 200 199
f 191 199 266
f 197 269 270
f 197 270 198
f 197 208 269
f 198 271 199
f 198 270 272
f 198 272 271
f 199 271 273
f 199 273 267
f 199 267 266
f 201 274 202
f 202 274 275
f 202 275 276
f 202 276 205
f 202 205 204
f 205 276 225
f 206 228 227
f 206 227 277
f 206 277 278
f 206 278 279
f 206 279 280
f 206 280 281
f 206 281 207
f 207 281 282
f 207 282 283
f 207 283 284
f 207 284 285
f 207 285 208
f 208 285 286
f 208 286 287
f 208 287 269
f 209 288 289
f 209 289 210
f 209 211 288
f 211 290 288
f 211 214 290
f 212 215 213
f 213 215 214
f 214 215 291
f 214 291 292
f 214 292 293
f 214 293 294
f 214 294 295
f 214 295 296
f 214 296 297
f 214 297 290
f 215 219 291
f 216 298 217
f 217 298 299
f 217 299 300
f 217 300 219
f 217 219 218
f 219 300 301
f 219 301 291
f 221 302 303
f 221 303 222
f 222 304 229
f 222 303 305
f 222 305 306
f 222 306 307
f 222 307 308
f 222 308 309
f 222 309 310
f 222 310 311
f 222 311 312
f 222 312 304
f 227 237 313
f 227 313 277
f 229 304 314
f 229 314 315
f 229 315 230
f 230 315 316
f 230 316 231
f 231 316 317
f 231 317 318
f 231 318 232
f 232 318 317
f 232 317 319
f 232 319 234
f 234 319 235
f 235 320 321
f 235 321 322
f 235 322 323
f 235 323 236
f 235 319 324
f 235 324 317
f 235 317 320
f 236 323 325
f 236 325 313
f 236 313 237
f 239 326 327
f 239 327 240
f 240 328 329
f 240 329 241
f 240 327 330
f 240 330 328
f 241 331 242
f 241 329 332
f 241 332 333
f 241 333 331
f 242 331 334
f 242 334 335
f 242 335 243
f 243 335 336
f 243 336 244
f 244 336 337
f 244 337 338
f 244 338 339
f 244 339 340
f 244 340 247
f 244 246 245
f 247 340 248
f 248 341 249
f 248 340 342
f 248 342 341
f 249 341 250
f 250 341 343
f 250 343 251
f 251 343 252
f 252 343 341
f 252 341 253
f 253 341 344
f 253 344 345
f 253 345 346
f 253 346 254
f 254 346 256
f 256 346 347
f 256 347 257
f 257 347 348
f 257 348 349
f 257 349 258
f 258 349 259
f 259 349 350
f 259 350 351
f 259 351 352
f 259 352 353
f 259 353 354
f 259 354 355
f 259 355 260
f 263 265 357
f 263 357 356
f 265 268 358
f 265 358 357
f 267 273 359
f 267 359 358
f 267 358 268
f 269 287 360
f 269 360 270
f 270 360 286
f 270 286 361
f 270 361 272
f 271 272 362
f 271 362 363
f 271 363 364
f 271 364 365
f 271 365 366
f 271 366 273
f 272 361 367
f 272 367 362
f 273 366 368
f 273 368 359
f 277 313 323
f 277 323 369
f 277 369 370
f 277 370 278
f 278 370 371
f 278 371 279
f 279 372 280
f 279 371 373
f 279 373 372
f 280 372 281
f 281 372 282
f 282 372 283
f 283 372 373
f 283 373 374
f 283 374 284
f 284 374 285
f 285 374 375
f 285 375 376
f 285 376 286
f 286 376 361
f 286 360 287
f 288 377 378
f 288 290 379
f 288 379 377
f 290 297 379
f 291 301 380
f 291 380 381
f 291 381 292
f 292 381 293
f 293 382 294
f 293 381 383
f 293 383 384
f 293 384 382
f 294 382 308
f 294 308 295
f 295 308 385
f 295 385 386
f 295 386 297
f 295 297 296
f 297 386 387
f 297 387 379
f 298 388 299
f 299 388 389
f 299 389 390
f 299 390 391
f 299 391 301
f 299 301 300
f 301 391 392
f 301 392 380
f 302 393 394
f 302 394 303
f 303 394 305
f 304 312 322
f 304 322 320
f 304 320 314
f 305 385 306
f 305 394 395
f 305 395 385
f 306 385 308
f 306 308 307
f 308 382 396
f 308 396 397
f 308 397 309
f 309 397 310
f 310 397 398
f 310 398 311
f 311 399 400
f 311 400 401
f 311 401 402
f 311 402 312
f 311 398 399
f 312 402 323
f 312 323 322
f 313 325 323
f 314 320 316
f 314 316 315
f 316 320 317
f 317 324 319
f 320 322 321
f 323 402 369
f 326 403 330
f 326 330 327
f 328 332 329
f 328 330 332
f 330 404 405
f 330 405 332
f 330 403 404
f 331 333 406
f 331 406 407
f 331 407 334
f 332 408 406
f 332 406 333
f 332 405 408
f 334 407 409
f 334 409 335
f 335 409 410
f 335 410 338
f 335 338 336
f 336 338 337
f 338 411 412
f 338 412 413
f 338 413 414
f 338 414 415
f 338 415 339
f 338 410 411
f 339 416 417
f 339 417 418
f 339 418 340
f 339 415 416
f 340 418 419
f 340 419 420
f 340 420 421
f 340 421 342
f 341 342 421
f 341 421 422
f 341 422 344
f 344 422 423
f 344 423 345
f 345 423 424
f 345 424 425
f 345 425 426
f 345 426 346
f 346 426 347
f 347 426 425
f 347 425 348
f 348 425 424
f 348 424 427
f 348 427 428
f 348 428 429
f 348 429 349
f 349 429 350
f 350 429 430
f 350 430 351
f 351 430 352
f 352 430 431
f 352 431 432
f 352 432 389
f 352 389 353
f 353 389 354
f 356 433 434
f 356 357 435
f 356 435 359
f 356 359 433
f 357 358 435
f 358 359 435
f 359 368 433
f 361 376 363
f 361 363 367
f 362 367 363
f 363 376 436
f 363 436 437
f 363 437 438
f 363 438 439
f 363 439 440
f 363 440 364
f 364 440 365
f 365 441 368
f 365 368 366
f 365 440 442
f 365 442 441
f 368 441 443
f 368 443 433
f 369 444 445
f 369 445 370
f 369 402 444
f 370 445 444
f 370 444 371
f 371 446 373
f 371 444 446
f 373 446 375
f 373 375 374
f 375 446 376
f 376 446 447
f 376 447 436
f 377 394 378
f 377 379 387
f 377 387 448
f 377 448 449
f 377 449 394
f 378 394 393
f 380 450 381
f 380 392 451
f 380 451 450
f 381 451 452
f 381 452 453
f 381 453 454
f 381 454 455
f 381 455 383
f 381 450 451
f 382 384 456
f 382 456 396
f 383 457 384
f 383 455 458
f 383 458 459
f 383 459 457
f 384 457 459
f 384 459 456
f 385 460 386
f 385 395 460
f 386 460 387
f 387 460 448
f 389 432 390
f 390 432 431
f 390 431 391
f 391 431 430
f 391 430 461
f 391 461 392
f 392 461 462
f 392 462 463
f 392 463 451
f 394 449 395
f 395 449 460
f 396 456 397
f 397 456 464
f 397 464 398
f 398 464 399
f 399 459 465
f 399 465 466
f 399 466 467
f 399 467 468
f 399 468 469
f 399 469 470
f 399 470 401
f 399 401 400
f 399 464 459
f 401 470 402
f 402 470 471
f 402 471 472
f 402 472 444
f 403 473 474
f 403 474 475
f 403 475 441
f 403 441 476
f 403 476 405
f 403 405 404
f 405 476 441
f 405 441 408
f 406 442 407
f 406 408 442
f 407 442 477
f 407 477 409
f 408 441 442
f 409 477 410
f 410 477 478
f 410 478 442
f 410 442 411
f 411 413 412
f 411 442 440
f 411 440 413
f 413 439 415
f 413 415 414
f 413 440 479
f 413 479 439
f 415 439 438
f 415 438 471
f 415 471 480
f 415 480 416
f 416 481 482
f 416 482 483
f 416 483 417
f 416 480 481
f 417 483 484
f 417 484 418
f 418 484 419
f 419 484 485
f 419 485 486
f 419 486 487
f 419 487 453
f 419 453 420
f 420 453 488
f 420 488 489
f 420 489 490
f 420 490 421
f 421 490 422
f 422 490 423
f 423 488 491
f 423 491 424
f 423 490 489
f 423 489 488
f 424 491 427
f 427 491 428
f 428 492 429
f 428 491 492
f 429 492 462
f 429 462 430
f 430 462 461
f 433 493 434
f 433 443 441
f 433 441 493
f 436 447 437
f 437 447 471
f 437 471 438
f 439 479 440
f 441 475 493
f 442 478 477
f 444 472 446
f 446 472 447
f 447 472 494
f 447 494 471
f 448 460 449
f 451 463 452
f 452 463 492
f 452 492 491
f 452 491 488
f 452 488 453
f 453 487 454
f 454 487 466
f 454 466 465
f 454 465 495
f 454 495 458
f 454 458 455
f 456 459 464
f 458 495 459
f 459 495 465
f 462 492 463
f 466 487 467
f 467 487 468
f 468 487 486
f 468 486 496
f 468 496 469
f 469 496 497
f 469 497 470
f 470 497 471
f 471 497 498
f 471 498 480
f 471 494 472
f 473 493 475
f 473 475 474
f 480 498 482
f 480 482 481
f 482 498 499
f 482 499 483
f 483 499 500
f 483 500 485
f 483 485 484
f 485 500 486
f 486 500 496
f 496 499 498
f 496 498 497
f 496 500 499
