v -0.00911483 0.720712 -0.172405
v -0.00911483 0.70247 -0.169131
v -0.0269394 0.701252 -0.1667
v -0.0419957 0.706521 -0.165755
v -0.0273445 0.720712 -0.170076
v -0.00911483 0.848407 -0.172405
v 0.00911483 0.720712 -0.172405
v -0.00911483 0.692002 -0.165012
v -0.020559 0.692916 -0.164438
v -0.0327459 0.694344 -0.163864
v 0.00911483 0.70247 -0.169131
v -0.0447639 0.720712 -0.166531
v -0.0470933 0.701252 -0.162717
v -0.0638376 0.70247 -0.156775
v -0.0538788 0.720712 -0.163932
v -0.0273445 0.848407 -0.170076
v -0.00911483 0.866649 -0.171629
v 0.00911483 0.848407 -0.172405
v 0.0273445 0.720712 -0.170076
v 0.0419957 0.706521 -0.165755
v 0.0269394 0.701252 -0.1667
v -0.00935114 0.68308 -0.159915
v -0.0237661 0.68308 -0.159712
v -0.0270069 0.68308 -0.159509
v 0.00911483 0.692002 -0.165012
v -0.0469582 0.68308 -0.153332
v 0.0327459 0.694344 -0.163864
v 0.020559 0.692916 -0.164438
v -0.0447639 0.848407 -0.166531
v -0.0638376 0.687975 -0.149821
v -0.0638376 0.720712 -0.159915
v -0.0752817 0.691815 -0.146985
v -0.0874348 0.698208 -0.144318
v -0.0816621 0.703571 -0.148808
v -0.0916884 0.710362 -0.146276
v -0.0538788 0.848407 -0.163932
v -0.0273445 0.866649 -0.169266
v -0.0433798 0.866649 -0.166126
v -0.040139 0.8781 -0.165215
v -0.0273445 0.880536 -0.166329
v -0.00911483 0.882948 -0.16751
v 0.00911483 0.866649 -0.171629
v 0.0273445 0.848407 -0.170076
v 0.0447639 0.720712 -0.166531
v 0.0538788 0.720712 -0.163932
v 0.0638376 0.70247 -0.156775
v 0.0470933 0.701252 -0.162717
v 0.00911483 0.68308 -0.159915
v 0.0270069 0.68308 -0.159509
v -0.0473296 0.68308 -0.153197
v 0.0469582 0.68308 -0.153332
v 0.0301802 0.68308 -0.158834
v -0.0483423 0.68308 -0.152825
v -0.0599553 0.68308 -0.148167
v -0.0638376 0.68308 -0.146445
v -0.0826749 0.68308 -0.137566
v -0.082101 0.720712 -0.151542
v -0.0638376 0.848407 -0.159915
v -0.0967184 0.688185 -0.132131
v -0.108872 0.694508 -0.127304
v -0.100263 0.702447 -0.136891
v -0.111741 0.706685 -0.129464
v -0.112889 0.720712 -0.130376
v -0.10104 0.720712 -0.139491
v -0.0919247 0.720712 -0.146445
v -0.0524947 0.866649 -0.163493
v -0.0638376 0.866649 -0.159037
v -0.0273445 0.889645 -0.161873
v -0.0785225 0.881379 -0.148774
v -0.0652554 0.886437 -0.15215
v -0.0459792 0.88447 -0.160218
v -0.00911483 0.892057 -0.163122
v 0.00911483 0.882948 -0.16751
v 0.0273445 0.880536 -0.166329
v 0.040139 0.8781 -0.165215
v 0.0273445 0.866649 -0.169266
v 0.0433798 0.866649 -0.166126
v 0.0447639 0.848407 -0.166531
v 0.0538788 0.848407 -0.163932
v 0.0638376 0.720712 -0.159915
v 0.0916884 0.710362 -0.146276
v 0.0816621 0.703571 -0.148808
v 0.0874348 0.698208 -0.144318
v 0.0752817 0.691815 -0.146985
v 0.0638376 0.687975 -0.149821
v 0.0483423 0.68308 -0.152825
v -0.0939165 0.68308 -0.129903
v -0.082101 0.848407 -0.151542
v -0.11434 0.68308 -0.11434
v -0.127304 0.694508 -0.108872
v -0.119506 0.700597 -0.119506
v -0.129464 0.706685 -0.111741
v -0.122004 0.720712 -0.122004
v -0.112889 0.848407 -0.130376
v -0.10104 0.848407 -0.139491
v -0.0919247 0.848407 -0.146445
v -0.0836201 0.86686 -0.149888
v -0.0907094 0.873089 -0.145635
v -0.0456079 0.89934 -0.150665
v -0.0273445 0.901448 -0.152758
v -0.0722772 0.893556 -0.145668
v -0.0836201 0.886437 -0.143204
v -0.0601241 0.896506 -0.148099
v -0.00911483 0.902431 -0.154007
v 0.00911483 0.892057 -0.163122
v 0.0273445 0.889645 -0.161873
v 0.0459792 0.88447 -0.160218
v 0.0652554 0.886437 -0.15215
v 0.0785225 0.881379 -0.148774
v 0.0638376 0.866649 -0.159037
v 0.0524947 0.866649 -0.163493
v 0.0638376 0.848407 -0.159915
v 0.082101 0.720712 -0.151542
v 0.0919247 0.720712 -0.146445
v 0.10104 0.720712 -0.139491
v 0.112889 0.720712 -0.130376
v 0.111741 0.706685 -0.129464
v 0.100263 0.702447 -0.136891
v 0.108872 0.694508 -0.127304
v 0.0967184 0.688185 -0.132131
v 0.0826749 0.68308 -0.137566
v 0.0638376 0.68308 -0.146445
v -0.0916884 0.860912 -0.146276
v -0.129903 0.68308 -0.0939165
v -0.132131 0.688185 -0.0967184
v -0.144318 0.698208 -0.0874348
v -0.136891 0.702447 -0.100263
v -0.146276 0.710362 -0.0916884
v -0.130376 0.720712 -0.112889
v -0.122004 0.848407 -0.122004
v -0.112247 0.866649 -0.129869
v -0.0987777 0.86686 -0.1402
v -0.110897 0.877819 -0.128823
v -0.100162 0.884306 -0.13311
v -0.0456079 0.908449 -0.141077
v -0.0273445 0.910557 -0.143474
v -0.00911483 0.911564 -0.144858
v -0.0939502 0.896108 -0.129802
v -0.082101 0.899808 -0.133617
v -0.071332 0.911798 -0.126865
v -0.065728 0.904164 -0.137533
v 0.00911483 0.902431 -0.154007
v 0.0273445 0.901448 -0.152758
v 0.0456079 0.89934 -0.150665
v 0.0601241 0.896506 -0.148099
v 0.0722772 0.893556 -0.145668
v 0.0836201 0.886437 -0.143204
v 0.0907094 0.873089 -0.145635
v 0.0836201 0.86686 -0.149888
v 0.082101 0.848407 -0.151542
v 0.0919247 0.848407 -0.146445
v 0.10104 0.848407 -0.139491
v 0.112889 0.848407 -0.130376
v 0.122004 0.720712 -0.122004
v 0.129464 0.706685 -0.111741
v 0.119506 0.700597 -0.119506
v 0.127304 0.694508 -0.108872
v 0.11434 0.68308 -0.11434
v 0.101681 0.68308 -0.123827
v -0.137566 0.68308 -0.0826749
v -0.146985 0.691815 -0.0752817
v -0.156775 0.70247 -0.0638376
v -0.148808 0.703571 -0.0816621
v -0.139491 0.720712 -0.10104
v -0.159915 0.720712 -0.0638376
v -0.151542 0.720712 -0.082101
v -0.146445 0.720712 -0.0919247
v -0.130376 0.848407 -0.112889
v -0.121362 0.866649 -0.121362
v -0.129869 0.866649 -0.112247
v -0.128823 0.877819 -0.110897
v -0.11802 0.883885 -0.11802
v -0.106137 0.889973 -0.125109
v -0.0591789 0.91332 -0.129397
v -0.0456079 0.914702 -0.131962
v -0.0273445 0.915826 -0.134359
v -0.00911483 0.916318 -0.135743
v 0.00911483 0.911564 -0.144858
v -0.112956 0.897326 -0.112956
v -0.0990815 0.902806 -0.117615
v -0.082101 0.908918 -0.122983
v -0.0646815 0.916224 -0.119911
v -0.0920598 0.912618 -0.110087
v -0.082101 0.914257 -0.113868
v 0.0273445 0.910557 -0.143474
v 0.0456079 0.908449 -0.141077
v 0.065728 0.904164 -0.137533
v 0.082101 0.899808 -0.133617
v 0.0939502 0.896108 -0.129802
v 0.071332 0.911798 -0.126865
v 0.100162 0.884306 -0.13311
v 0.0987777 0.86686 -0.1402
v 0.0916884 0.860912 -0.146276
v 0.110897 0.877819 -0.128823
v 0.112247 0.866649 -0.129869
v 0.122004 0.848407 -0.122004
v 0.130376 0.720712 -0.112889
v 0.146276 0.710362 -0.0916884
v 0.136891 0.702447 -0.100263
v 0.144318 0.698208 -0.0874348
v 0.132131 0.688185 -0.0967184
v 0.123827 0.68308 -0.101681
v -0.146445 0.68308 -0.0638376
v -0.149821 0.687975 -0.0638376
v -0.162717 0.701252 -0.0470933
v -0.165755 0.706521 -0.0419957
v -0.163932 0.720712 -0.0538788
v -0.139491 0.848407 -0.10104
v -0.159915 0.848407 -0.0638376
v -0.151542 0.848407 -0.082101
v -0.146445 0.848407 -0.0919247
v -0.146276 0.860912 -0.0916884
v -0.1402 0.86686 -0.0987777
v -0.145635 0.873089 -0.0907094
v -0.125109 0.889973 -0.106137
v -0.13311 0.884306 -0.100162
v -0.0456079 0.919643 -0.118594
v -0.0273445 0.920837 -0.118594
v -0.00911483 0.921329 -0.118594
v 0.00911483 0.916318 -0.135743
v 0.0273445 0.915826 -0.134359
v -0.129802 0.896108 -0.0939502
v -0.117615 0.902806 -0.0990815
v -0.104213 0.90948 -0.104213
v -0.082101 0.918776 -0.100331
v -0.110087 0.912618 -0.0920598
v -0.099014 0.914304 -0.099014
v 0.0456079 0.914702 -0.131962
v 0.0591789 0.91332 -0.129397
v 0.082101 0.908918 -0.122983
v 0.0990815 0.902806 -0.117615
v 0.112956 0.897326 -0.112956
v 0.106137 0.889973 -0.125109
v 0.0646815 0.916224 -0.119911
v 0.082101 0.914257 -0.113868
v 0.0920598 0.912618 -0.110087
v 0.11802 0.883885 -0.11802
v 0.128823 0.877819 -0.110897
v 0.121362 0.866649 -0.121362
v 0.129869 0.866649 -0.112247
v 0.130376 0.848407 -0.112889
v 0.139491 0.720712 -0.10104
v 0.146445 0.720712 -0.0919247
v 0.151542 0.720712 -0.082101
v 0.159915 0.720712 -0.0638376
v 0.156775 0.70247 -0.0638376
v 0.148808 0.703571 -0.0816621
v 0.137566 0.68308 -0.0826749
v 0.146985 0.691815 -0.0752817
v -0.148167 0.68308 -0.0599553
v -0.152825 0.68308 -0.0483423
v -0.153332 0.68308 -0.0469582
v -0.163864 0.694344 -0.0327459
v -0.1667 0.701252 -0.0269394
v -0.172405 0.720712 -0.00911483
v -0.170076 0.720712 -0.0273445
v -0.166531 0.720712 -0.0447639
v -0.163932 0.848407 -0.0538788
v -0.159037 0.866649 -0.0638376
v -0.149888 0.86686 -0.0836201
v -0.143204 0.886437 -0.0836201
v -0.148774 0.881379 -0.0785225
v -0.0638376 0.921423 -0.100331
v -0.0456079 0.922219 -0.100331
v -0.0273445 0.922312 -0.100331
v 0.00911483 0.921329 -0.118594
v 0.0273445 0.920837 -0.118594
v 0.0456079 0.919643 -0.118594
v -0.122983 0.908918 -0.082101
v -0.145668 0.893556 -0.0722772
v -0.133617 0.899808 -0.082101
v -0.082101 0.921797 -0.082101
v -0.100331 0.918776 -0.082101
v -0.126865 0.911798 -0.071332
v -0.113868 0.914257 -0.082101
v 0.104213 0.90948 -0.104213
v 0.117615 0.902806 -0.0990815
v 0.129802 0.896108 -0.0939502
v 0.125109 0.889973 -0.106137
v 0.082101 0.918776 -0.100331
v 0.099014 0.914304 -0.099014
v 0.110087 0.912618 -0.0920598
v 0.13311 0.884306 -0.100162
v 0.145635 0.873089 -0.0907094
v 0.1402 0.86686 -0.0987777
v 0.146276 0.860912 -0.0916884
v 0.139491 0.848407 -0.10104
v 0.146445 0.848407 -0.0919247
v 0.151542 0.848407 -0.082101
v 0.159915 0.848407 -0.0638376
v 0.163932 0.720712 -0.0538788
v 0.165755 0.706521 -0.0419957
v 0.162717 0.701252 -0.0470933
v 0.149821 0.687975 -0.0638376
v 0.146445 0.68308 -0.0638376
v -0.158834 0.68308 -0.0301802
v -0.164438 0.692916 -0.020559
v -0.169131 0.70247 -0.00911483
v -0.159509 0.68308 -0.0270069
v -0.172405 0.848407 -0.00911483
v -0.172405 0.720712 0.00911483
v -0.170076 0.848407 -0.0273445
v -0.166531 0.848407 -0.0447639
v -0.163493 0.866649 -0.0524947
v -0.166126 0.866649 -0.0433798
v -0.165215 0.8781 -0.040139
v -0.15215 0.886437 -0.0652554
v -0.0638376 0.922312 -0.082101
v 0.0273445 0.922312 -0.100331
v 0.0456079 0.922219 -0.100331
v 0.0638376 0.921423 -0.100331
v -0.137533 0.904164 -0.065728
v -0.160218 0.88447 -0.0459792
v -0.148099 0.896506 -0.0601241
v -0.082101 0.922312 -0.0638376
v -0.100331 0.921423 -0.0638376
v -0.100331 0.922219 -0.0456079
v -0.119911 0.916224 -0.0646815
v -0.118594 0.919643 -0.0456079
v -0.129397 0.91332 -0.0591789
v -0.141077 0.908449 -0.0456079
v 0.122983 0.908918 -0.082101
v 0.133617 0.899808 -0.082101
v 0.145668 0.893556 -0.0722772
v 0.143204 0.886437 -0.0836201
v 0.082101 0.921797 -0.082101
v 0.100331 0.918776 -0.082101
v 0.113868 0.914257 -0.082101
v 0.126865 0.911798 -0.071332
v 0.148774 0.881379 -0.0785225
v 0.159037 0.866649 -0.0638376
v 0.149888 0.86686 -0.0836201
v 0.163932 0.848407 -0.0538788
v 0.166531 0.720712 -0.0447639
v 0.163864 0.694344 -0.0327459
v 0.170076 0.720712 -0.0273445
v 0.172405 0.720712 -0.00911483
v 0.1667 0.701252 -0.0269394
v 0.153332 0.68308 -0.0469582
v 0.152825 0.68308 -0.0483423
v 0.153197 0.68308 -0.0473296
v -0.165012 0.692002 -0.00911483
v -0.169131 0.70247 0.00911483
v -0.159915 0.68308 -0.00935114
v -0.172405 0.848407 0.00911483
v -0.171629 0.866649 -0.00911483
v -0.1667 0.701252 0.0269394
v -0.165755 0.706521 0.0419957
v -0.170076 0.720712 0.0273445
v -0.169266 0.866649 -0.0273445
v -0.166329 0.880536 -0.0273445
v -0.161873 0.889645 -0.0273445
v 0.0638376 0.922312 -0.082101
v -0.150665 0.89934 -0.0456079
v -0.100331 0.922312 -0.0273445
v -0.118594 0.920837 -0.0273445
v -0.118594 0.921329 -0.00911483
v -0.131962 0.914702 -0.0456079
v -0.134359 0.915826 -0.0273445
v -0.143474 0.910557 -0.0273445
v 0.137533 0.904164 -0.065728
v 0.148099 0.896506 -0.0601241
v 0.160218 0.88447 -0.0459792
v 0.15215 0.886437 -0.0652554
v 0.082101 0.922312 -0.0638376
v 0.100331 0.922219 -0.0456079
v 0.100331 0.921423 -0.0638376
v 0.118594 0.919643 -0.0456079
v 0.119911 0.916224 -0.0646815
v 0.129397 0.91332 -0.0591789
v 0.141077 0.908449 -0.0456079
v 0.165215 0.8781 -0.040139
v 0.163493 0.866649 -0.0524947
v 0.166126 0.866649 -0.0433798
v 0.166531 0.848407 -0.0447639
v 0.169131 0.70247 -0.00911483
v 0.164438 0.692916 -0.020559
v 0.159509 0.68308 -0.0270069
v 0.170076 0.848407 -0.0273445
v 0.172405 0.848407 -0.00911483
v 0.172405 0.720712 0.00911483
v -0.165012 0.692002 0.00911483
v -0.164438 0.692916 0.020559
v -0.163864 0.694344 0.0327459
v -0.159915 0.68308 0.00911483
v -0.171629 0.866649 0.00911483
v -0.170076 0.848407 0.0273445
v -0.16751 0.882948 -0.00911483
v -0.162717 0.701252 0.0470933
v -0.156775 0.70247 0.0638376
v -0.163932 0.720712 0.0538788
v -0.166531 0.720712 0.0447639
v -0.163122 0.892057 -0.00911483
v -0.152758 0.901448 -0.0273445
v -0.100331 0.922312 0.0273445
v -0.135743 0.916318 -0.00911483
v -0.118594 0.921329 0.00911483
v -0.144858 0.911564 -0.00911483
v 0.150665 0.89934 -0.0456079
v 0.161873 0.889645 -0.0273445
v 0.100331 0.922312 -0.0273445
v 0.118594 0.921329 -0.00911483
v 0.118594 0.920837 -0.0273445
v 0.134359 0.915826 -0.0273445
v 0.131962 0.914702 -0.0456079
v 0.143474 0.910557 -0.0273445
v 0.166329 0.880536 -0.0273445
v 0.171629 0.866649 -0.00911483
v 0.169266 0.866649 -0.0273445
v 0.169131 0.70247 0.00911483
v 0.165012 0.692002 -0.00911483
v 0.159712 0.68308 -0.0237661
v 0.172405 0.848407 0.00911483
v 0.170076 0.720712 0.0273445
v 0.165755 0.706521 0.0419957
v 0.1667 0.701252 0.0269394
v -0.159712 0.68308 0.0237661
v -0.159509 0.68308 0.0270069
v -0.153332 0.68308 0.0469582
v -0.169266 0.866649 0.0273445
v -0.165215 0.8781 0.040139
v -0.166329 0.880536 0.0273445
v -0.16751 0.882948 0.00911483
v -0.166531 0.848407 0.0447639
v -0.166126 0.866649 0.0433798
v -0.149821 0.687975 0.0638376
v -0.159915 0.720712 0.0638376
v -0.146985 0.691815 0.0752817
v -0.144318 0.698208 0.0874348
v -0.148808 0.703571 0.0816621
v -0.146276 0.710362 0.0916884
v -0.163932 0.848407 0.0538788
v -0.163122 0.892057 0.00911483
v -0.154007 0.902431 -0.00911483
v -0.100331 0.922219 0.0456079
v -0.082101 0.922312 0.0638376
v -0.135743 0.916318 0.00911483
v -0.118594 0.920837 0.0273445
v -0.144858 0.911564 0.00911483
v 0.152758 0.901448 -0.0273445
v 0.163122 0.892057 -0.00911483
v 0.100331 0.922312 0.0273445
v 0.118594 0.921329 0.00911483
v 0.135743 0.916318 -0.00911483
v 0.144858 0.911564 -0.00911483
v 0.16751 0.882948 -0.00911483
v 0.171629 0.866649 0.00911483
v 0.163864 0.694344 0.0327459
v 0.164438 0.692916 0.020559
v 0.165012 0.692002 0.00911483
v 0.159915 0.68308 -0.00911483
v 0.170076 0.848407 0.0273445
v 0.166531 0.720712 0.0447639
v 0.163932 0.720712 0.0538788
v 0.156775 0.70247 0.0638376
v 0.162717 0.701252 0.0470933
v -0.153197 0.68308 0.0473296
v -0.163493 0.866649 0.0524947
v -0.159037 0.866649 0.0638376
v -0.148774 0.881379 0.0785225
v -0.15215 0.886437 0.0652554
v -0.160218 0.88447 0.0459792
v -0.161873 0.889645 0.0273445
v -0.152825 0.68308 0.0483423
v -0.146445 0.68308 0.0638376
v -0.137566 0.68308 0.0826749
v -0.151542 0.720712 0.082101
v -0.159915 0.848407 0.0638376
v -0.132131 0.688185 0.0967184
v -0.127304 0.694508 0.108872
v -0.136891 0.702447 0.100263
v -0.129464 0.706685 0.111741
v -0.130376 0.720712 0.112889
v -0.139491 0.720712 0.10104
v -0.146445 0.720712 0.0919247
v -0.152758 0.901448 0.0273445
v -0.154007 0.902431 0.00911483
v -0.100331 0.921423 0.0638376
v -0.082101 0.921797 0.082101
v -0.0638376 0.922312 0.082101
v -0.134359 0.915826 0.0273445
v -0.118594 0.919643 0.0456079
v -0.143474 0.910557 0.0273445
v 0.154007 0.902431 -0.00911483
v 0.163122 0.892057 0.00911483
v 0.082101 0.922312 0.0638376
v 0.100331 0.922219 0.0456079
v 0.118594 0.920837 0.0273445
v 0.135743 0.916318 0.00911483
v 0.144858 0.911564 0.00911483
v 0.16751 0.882948 0.00911483
v 0.166329 0.880536 0.0273445
v 0.165215 0.8781 0.040139
v 0.169266 0.866649 0.0273445
v 0.153332 0.68308 0.0469582
v 0.158834 0.68308 0.0301802
v 0.159509 0.68308 0.0270069
v 0.159915 0.68308 0.00935114
v 0.166126 0.866649 0.0433798
v 0.166531 0.848407 0.0447639
v 0.159915 0.720712 0.0638376
v 0.163932 0.848407 0.0538788
v 0.146276 0.710362 0.0916884
v 0.148808 0.703571 0.0816621
v 0.144318 0.698208 0.0874348
v 0.146985 0.691815 0.0752817
v 0.149821 0.687975 0.0638376
v -0.151542 0.848407 0.082101
v -0.149888 0.86686 0.0836201
v -0.145635 0.873089 0.0907094
v -0.143204 0.886437 0.0836201
v -0.145668 0.893556 0.0722772
v -0.148099 0.896506 0.0601241
v -0.150665 0.89934 0.0456079
v -0.123827 0.68308 0.101681
v -0.11434 0.68308 0.11434
v -0.108872 0.694508 0.127304
v -0.119506 0.700597 0.119506
v -0.111741 0.706685 0.129464
v -0.122004 0.720712 0.122004
v -0.130376 0.848407 0.112889
v -0.139491 0.848407 0.10104
v -0.146445 0.848407 0.0919247
v -0.100331 0.918776 0.082101
v -0.082101 0.918776 0.100331
v -0.0638376 0.921423 0.100331
v -0.0456079 0.922219 0.100331
v -0.0273445 0.922312 0.100331
v -0.131962 0.914702 0.0456079
v -0.119911 0.916224 0.0646815
v -0.141077 0.908449 0.0456079
v 0.154007 0.902431 0.00911483
v 0.152758 0.901448 0.0273445
v 0.161873 0.889645 0.0273445
v 0.0638376 0.922312 0.082101
v 0.082101 0.921797 0.082101
v 0.100331 0.921423 0.0638376
v 0.118594 0.919643 0.0456079
v 0.134359 0.915826 0.0273445
v 0.143474 0.910557 0.0273445
v 0.163493 0.866649 0.0524947
v 0.160218 0.88447 0.0459792
v 0.15215 0.886437 0.0652554
v 0.148774 0.881379 0.0785225
v 0.159037 0.866649 0.0638376
v 0.152825 0.68308 0.0483423
v 0.159915 0.848407 0.0638376
v 0.151542 0.720712 0.082101
v 0.139491 0.720712 0.10104
v 0.130376 0.720712 0.112889
v 0.129464 0.706685 0.111741
v 0.136891 0.702447 0.100263
v 0.146445 0.720712 0.0919247
v 0.127304 0.694508 0.108872
v 0.132131 0.688185 0.0967184
v 0.137566 0.68308 0.0826749
v 0.146445 0.68308 0.0638376
v 0.148167 0.68308 0.0599553
v -0.146276 0.860912 0.0916884
v -0.1402 0.86686 0.0987777
v -0.129869 0.866649 0.112247
v -0.128823 0.877819 0.110897
v -0.13311 0.884306 0.100162
v -0.129802 0.896108 0.0939502
v -0.133617 0.899808 0.082101
v -0.126865 0.911798 0.071332
v -0.137533 0.904164 0.065728
v -0.101681 0.68308 0.123827
v -0.0967184 0.688185 0.132131
v -0.0874348 0.698208 0.144318
v -0.100263 0.702447 0.136891
v -0.112889 0.720712 0.130376
v -0.0916884 0.710362 0.146276
v -0.122004 0.848407 0.122004
v -0.099014 0.914304 0.099014
v -0.113868 0.914257 0.082101
v -0.082101 0.914257 0.113868
v -0.0646815 0.916224 0.119911
v -0.0456079 0.919643 0.118594
v -0.0273445 0.920837 0.118594
v -0.00911483 0.921329 0.118594
v 0.0273445 0.922312 0.100331
v -0.129397 0.91332 0.0591789
v 0.150665 0.89934 0.0456079
v 0.0456079 0.922219 0.100331
v 0.082101 0.918776 0.100331
v 0.100331 0.918776 0.082101
v 0.0638376 0.921423 0.100331
v 0.119911 0.916224 0.0646815
v 0.131962 0.914702 0.0456079
v 0.141077 0.908449 0.0456079
v 0.148099 0.896506 0.0601241
v 0.145668 0.893556 0.0722772
v 0.143204 0.886437 0.0836201
v 0.145635 0.873089 0.0907094
v 0.149888 0.86686 0.0836201
v 0.151542 0.848407 0.082101
v 0.139491 0.848407 0.10104
v 0.122004 0.720712 0.122004
v 0.130376 0.848407 0.112889
v 0.111741 0.706685 0.129464
v 0.119506 0.700597 0.119506
v 0.146445 0.848407 0.0919247
v 0.108872 0.694508 0.127304
v 0.11434 0.68308 0.11434
v 0.129903 0.68308 0.0939165
v -0.121362 0.866649 0.121362
v -0.110897 0.877819 0.128823
v -0.11802 0.883885 0.11802
v -0.125109 0.889973 0.106137
v -0.112956 0.897326 0.112956
v -0.117615 0.902806 0.0990815
v -0.122983 0.908918 0.082101
v -0.110087 0.912618 0.0920598
v -0.0826749 0.68308 0.137566
v -0.0752817 0.691815 0.146985
v -0.0638376 0.70247 0.156775
v -0.0816621 0.703571 0.148808
v -0.112889 0.848407 0.130376
v -0.10104 0.720712 0.139491
v -0.0919247 0.720712 0.146445
v -0.0638376 0.720712 0.159915
v -0.082101 0.720712 0.151542
v -0.112247 0.866649 0.129869
v -0.0920598 0.912618 0.110087
v -0.071332 0.911798 0.126865
v -0.0591789 0.91332 0.129397
v -0.0456079 0.914702 0.131962
v -0.0273445 0.915826 0.134359
v -0.00911483 0.916318 0.135743
v 0.00911483 0.921329 0.118594
v 0.0273445 0.920837 0.118594
v 0.082101 0.914257 0.113868
v 0.099014 0.914304 0.099014
v 0.0456079 0.919643 0.118594
v 0.0646815 0.916224 0.119911
v 0.113868 0.914257 0.082101
v 0.126865 0.911798 0.071332
v 0.129397 0.91332 0.0591789
v 0.137533 0.904164 0.065728
v 0.133617 0.899808 0.082101
v 0.129802 0.896108 0.0939502
v 0.13311 0.884306 0.100162
v 0.128823 0.877819 0.110897
v 0.129869 0.866649 0.112247
v 0.1402 0.86686 0.0987777
v 0.146276 0.860912 0.0916884
v 0.112889 0.720712 0.130376
v 0.122004 0.848407 0.122004
v 0.0916884 0.710362 0.146276
v 0.100263 0.702447 0.136891
v 0.0874348 0.698208 0.144318
v 0.0967184 0.688185 0.132131
v 0.0939165 0.68308 0.129903
v -0.0907094 0.873089 0.145635
v -0.100162 0.884306 0.13311
v -0.106137 0.889973 0.125109
v -0.0939502 0.896108 0.129802
v -0.0990815 0.902806 0.117615
v -0.104213 0.90948 0.104213
v -0.0638376 0.68308 0.146445
v -0.0638376 0.687975 0.149821
v -0.0470933 0.701252 0.162717
v -0.0419957 0.706521 0.165755
v -0.0538788 0.720712 0.163932
v -0.10104 0.848407 0.139491
v -0.0916884 0.860912 0.146276
v -0.0919247 0.848407 0.146445
v -0.0638376 0.848407 0.159915
v -0.082101 0.848407 0.151542
v -0.0987777 0.86686 0.1402
v -0.082101 0.908918 0.122983
v -0.0722772 0.893556 0.145668
v -0.065728 0.904164 0.137533
v -0.0456079 0.908449 0.141077
v -0.082101 0.899808 0.133617
v -0.0273445 0.910557 0.143474
v -0.00911483 0.911564 0.144858
v 0.00911483 0.916318 0.135743
v 0.0273445 0.915826 0.134359
v 0.071332 0.911798 0.126865
v 0.0920598 0.912618 0.110087
v 0.110087 0.912618 0.0920598
v 0.0456079 0.914702 0.131962
v 0.0591789 0.91332 0.129397
v 0.122983 0.908918 0.082101
v 0.117615 0.902806 0.0990815
v 0.112956 0.897326 0.112956
v 0.125109 0.889973 0.106137
v 0.11802 0.883885 0.11802
v 0.110897 0.877819 0.128823
v 0.121362 0.866649 0.121362
v 0.10104 0.720712 0.139491
v 0.112889 0.848407 0.130376
v 0.112247 0.866649 0.129869
v 0.0919247 0.720712 0.146445
v 0.082101 0.720712 0.151542
v 0.0638376 0.720712 0.159915
v 0.0638376 0.70247 0.156775
v 0.0816621 0.703571 0.148808
v 0.0826749 0.68308 0.137566
v 0.0752817 0.691815 0.146985
v -0.0836201 0.86686 0.149888
v -0.0638376 0.866649 0.159037
v -0.0785225 0.881379 0.148774
v -0.0836201 0.886437 0.143204
v -0.0483423 0.68308 0.152825
v -0.0469582 0.68308 0.153332
v -0.0327459 0.694344 0.163864
v -0.0269394 0.701252 0.1667
v -0.00911483 0.720712 0.172405
v -0.0273445 0.720712 0.170076
v -0.0447639 0.720712 0.166531
v -0.0538788 0.848407 0.163932
v -0.0652554 0.886437 0.15215
v -0.0459792 0.88447 0.160218
v -0.0601241 0.896506 0.148099
v -0.0456079 0.89934 0.150665
v -0.0273445 0.901448 0.152758
v -0.00911483 0.902431 0.154007
v 0.00911483 0.911564 0.144858
v 0.0273445 0.910557 0.143474
v 0.0722772 0.893556 0.145668
v 0.082101 0.899808 0.133617
v 0.082101 0.908918 0.122983
v 0.0456079 0.908449 0.141077
v 0.065728 0.904164 0.137533
v 0.0990815 0.902806 0.117615
v 0.104213 0.90948 0.104213
v 0.0939502 0.896108 0.129802
v 0.106137 0.889973 0.125109
v 0.100162 0.884306 0.13311
v 0.0907094 0.873089 0.145635
v 0.10104 0.848407 0.139491
v 0.0916884 0.860912 0.146276
v 0.0987777 0.86686 0.1402
v 0.0919247 0.848407 0.146445
v 0.082101 0.848407 0.151542
v 0.0538788 0.720712 0.163932
v 0.0638376 0.848407 0.159915
v 0.0638376 0.687975 0.149821
v 0.0419957 0.706521 0.165755
v 0.0470933 0.701252 0.162717
v 0.0638376 0.68308 0.146445
v -0.0524947 0.866649 0.163493
v -0.040139 0.8781 0.165215
v -0.0301802 0.68308 0.158834
v -0.0270069 0.68308 0.159509
v -0.020559 0.692916 0.164438
v -0.00911483 0.70247 0.169131
v -0.00911483 0.848407 0.172405
v 0.00911483 0.720712 0.172405
v -0.0273445 0.848407 0.170076
v -0.0447639 0.848407 0.166531
v -0.0433798 0.866649 0.166126
v -0.0273445 0.889645 0.161873
v -0.00911483 0.892057 0.163122
v 0.00911483 0.902431 0.154007
v 0.0273445 0.901448 0.152758
v 0.0456079 0.89934 0.150665
v 0.0785225 0.881379 0.148774
v 0.0836201 0.886437 0.143204
v 0.0601241 0.896506 0.148099
v 0.0459792 0.88447 0.160218
v 0.0652554 0.886437 0.15215
v 0.0638376 0.866649 0.159037
v 0.0836201 0.86686 0.149888
v 0.0538788 0.848407 0.163932
v 0.0447639 0.720712 0.166531
v 0.0469582 0.68308 0.153332
v 0.0473296 0.68308 0.153197
v 0.0483423 0.68308 0.152825
v 0.0599553 0.68308 0.148167
v 0.0273445 0.720712 0.170076
v 0.0269394 0.701252 0.1667
v 0.0327459 0.694344 0.163864
v -0.0273445 0.866649 0.169266
v -0.00911483 0.866649 0.171629
v -0.0273445 0.880536 0.166329
v -0.00911483 0.68308 0.159915
v -0.00911483 0.692002 0.165012
v 0.00911483 0.70247 0.169131
v 0.00911483 0.848407 0.172405
v -0.00911483 0.882948 0.16751
v 0.00911483 0.892057 0.163122
v 0.0273445 0.889645 0.161873
v 0.040139 0.8781 0.165215
v 0.0524947 0.866649 0.163493
v 0.0433798 0.866649 0.166126
v 0.0447639 0.848407 0.166531
v 0.0270069 0.68308 0.159509
v 0.0273445 0.848407 0.170076
v 0.020559 0.692916 0.164438
v 0.00911483 0.866649 0.171629
v 0.00935114 0.68308 0.159915
v 0.00911483 0.692002 0.165012
v 0.00911483 0.882948 0.16751
v 0.0273445 0.880536 0.166329
v 0.0273445 0.866649 0.169266
v 0.0237661 0.68308 0.159712
f 1 2 3
f 1 3 4
f 1 4 5
f 1 5 16
f 1 16 6
f 1 6 18
f 1 18 7
f 1 7 11
f 1 11 2
f 2 8 9
f 2 9 10
f 2 10 3
f 2 11 25
f 2 25 8
f 3 10 4
f 4 12 5
f 4 10 13
f 4 13 14
f 4 14 15
f 4 15 12
f 5 12 29
f 5 29 16
f 6 16 17
f 6 17 42
f 6 42 18
f 7 18 43
f 7 43 19
f 7 19 20
f 7 20 21
f 7 21 11
f 8 22 23
f 8 23 24
f 8 24 9
f 8 25 48
f 8 48 22
f 9 24 10
f 10 26 13
f 10 24 26
f 11 21 27
f 11 27 28
f 11 28 25
f 12 15 36
f 12 36 29
f 13 26 30
f 13 30 14
f 14 31 15
f 14 30 32
f 14 32 33
f 14 33 34
f 14 34 35
f 14 35 31
f 15 31 58
f 15 58 36
f 16 37 17
f 16 29 38
f 16 38 37
f 17 37 39
f 17 39 40
f 17 40 41
f 17 41 73
f 17 73 42
f 18 42 43
f 19 43 78
f 19 78 44
f 19 44 20
f 20 27 21
f 20 44 45
f 20 45 46
f 20 46 47
f 20 47 27
f 22 48 49
f 22 49 52
f 22 52 51
f 22 51 86
f 22 86 122
f 22 122 121
f 22 121 159
f 22 159 158
f 22 158 202
f 22 202 248
f 22 248 295
f 22 295 340
f 22 340 341
f 22 341 339
f 22 339 378
f 22 378 412
f 22 412 451
f 22 451 498
f 22 498 497
f 22 497 496
f 22 496 495
f 22 495 546
f 22 546 558
f 22 558 557
f 22 557 556
f 22 556 606
f 22 606 605
f 22 605 654
f 22 654 701
f 22 701 744
f 22 744 773
f 22 773 772
f 22 772 771
f 22 771 770
f 22 770 791
f 22 791 800
f 22 800 795
f 22 795 780
f 22 780 748
f 22 748 747
f 22 747 708
f 22 708 707
f 22 707 661
f 22 661 615
f 22 615 568
f 22 568 516
f 22 516 515
f 22 515 466
f 22 466 465
f 22 465 464
f 22 464 457
f 22 457 419
f 22 419 418
f 22 418 417
f 22 417 385
f 22 385 344
f 22 344 299
f 22 299 296
f 22 296 252
f 22 252 251
f 22 251 250
f 22 250 203
f 22 203 160
f 22 160 124
f 22 124 89
f 22 89 87
f 22 87 56
f 22 56 55
f 22 55 54
f 22 54 53
f 22 53 50
f 22 50 26
f 22 26 24
f 22 24 23
f 25 28 49
f 25 49 48
f 26 50 30
f 27 47 51
f 27 51 52
f 27 52 49
f 27 49 28
f 29 36 38
f 30 50 53
f 30 53 54
f 30 54 55
f 30 55 56
f 30 56 32
f 31 57 88
f 31 88 58
f 31 35 57
f 32 56 33
f 33 56 59
f 33 59 60
f 33 60 61
f 33 61 35
f 33 35 34
f 35 61 62
f 35 62 63
f 35 63 64
f 35 64 65
f 35 65 57
f 36 66 38
f 36 58 67
f 36 67 66
f 37 38 39
f 38 66 39
f 39 68 40
f 39 66 67
f 39 67 69
f 39 69 70
f 39 70 71
f 39 71 68
f 40 68 72
f 40 72 41
f 41 72 105
f 41 105 73
f 42 73 74
f 42 74 75
f 42 75 76
f 42 76 43
f 43 76 77
f 43 77 78
f 44 78 79
f 44 79 45
f 45 79 112
f 45 112 80
f 45 80 46
f 46 80 81
f 46 81 82
f 46 82 83
f 46 83 84
f 46 84 85
f 46 85 47
f 47 85 51
f 51 85 86
f 56 87 59
f 57 65 96
f 57 96 88
f 58 88 67
f 59 87 89
f 59 89 60
f 60 89 90
f 60 90 91
f 60 91 62
f 60 62 61
f 62 91 92
f 62 92 93
f 62 93 63
f 63 93 130
f 63 130 94
f 63 94 95
f 63 95 64
f 64 95 96
f 64 96 65
f 67 88 97
f 67 97 98
f 67 98 69
f 68 71 99
f 68 99 100
f 68 100 72
f 69 101 70
f 69 98 102
f 69 102 101
f 70 101 71
f 71 103 99
f 71 101 103
f 72 100 104
f 72 104 142
f 72 142 105
f 73 105 74
f 74 105 106
f 74 106 75
f 75 107 108
f 75 108 109
f 75 109 110
f 75 110 111
f 75 111 77
f 75 77 76
f 75 106 107
f 77 111 79
f 77 79 78
f 79 111 110
f 79 110 112
f 80 112 150
f 80 150 113
f 80 113 81
f 81 114 115
f 81 115 116
f 81 116 117
f 81 117 118
f 81 118 83
f 81 83 82
f 81 113 114
f 83 118 119
f 83 119 120
f 83 120 121
f 83 121 84
f 84 121 85
f 85 121 122
f 85 122 86
f 88 96 123
f 88 123 97
f 89 124 125
f 89 125 90
f 90 92 91
f 90 125 126
f 90 126 127
f 90 127 92
f 92 127 128
f 92 128 129
f 92 129 93
f 93 129 168
f 93 168 130
f 94 130 131
f 94 131 123
f 94 123 95
f 95 123 96
f 97 123 98
f 98 123 132
f 98 132 131
f 98 131 133
f 98 133 134
f 98 134 102
f 99 103 135
f 99 135 136
f 99 136 100
f 100 136 137
f 100 137 104
f 101 102 138
f 101 138 139
f 101 139 140
f 101 140 141
f 101 141 103
f 102 134 138
f 103 141 135
f 104 137 178
f 104 178 142
f 105 142 143
f 105 143 106
f 106 143 144
f 106 144 107
f 107 144 145
f 107 145 146
f 107 146 108
f 108 146 109
f 109 146 147
f 109 147 148
f 109 148 110
f 110 148 149
f 110 149 150
f 110 150 112
f 113 150 151
f 113 151 114
f 114 151 152
f 114 152 115
f 115 152 153
f 115 153 116
f 116 153 196
f 116 196 154
f 116 154 117
f 117 154 155
f 117 155 156
f 117 156 119
f 117 119 118
f 119 156 157
f 119 157 158
f 119 158 120
f 120 158 159
f 120 159 121
f 123 131 132
f 124 160 125
f 125 160 126
f 126 128 127
f 126 160 161
f 126 161 162
f 126 162 163
f 126 163 128
f 128 164 129
f 128 163 162
f 128 162 165
f 128 165 166
f 128 166 167
f 128 167 164
f 129 164 208
f 129 208 168
f 130 169 131
f 130 168 170
f 130 170 169
f 131 169 133
f 133 169 171
f 133 171 172
f 133 172 173
f 133 173 134
f 134 173 138
f 135 141 140
f 135 140 174
f 135 174 175
f 135 175 136
f 136 175 176
f 136 176 137
f 137 176 177
f 137 177 220
f 137 220 178
f 138 173 179
f 138 179 180
f 138 180 181
f 138 181 139
f 139 181 140
f 140 182 174
f 140 181 183
f 140 183 184
f 140 184 182
f 142 178 143
f 143 185 144
f 143 178 185
f 144 186 145
f 144 185 186
f 145 186 187
f 145 187 146
f 146 188 189
f 146 189 147
f 146 187 190
f 146 190 188
f 147 189 191
f 147 191 148
f 148 192 193
f 148 193 149
f 148 191 194
f 148 194 195
f 148 195 192
f 149 193 150
f 150 193 151
f 151 193 152
f 152 193 153
f 153 195 196
f 153 193 195
f 154 196 241
f 154 241 197
f 154 197 155
f 155 157 156
f 155 197 198
f 155 198 199
f 155 199 157
f 157 199 200
f 157 200 201
f 157 201 158
f 158 201 202
f 160 203 204
f 160 204 161
f 161 204 162
f 162 205 206
f 162 206 207
f 162 207 165
f 162 204 205
f 164 167 211
f 164 211 208
f 165 207 258
f 165 258 209
f 165 209 210
f 165 210 166
f 166 210 211
f 166 211 167
f 168 208 212
f 168 212 170
f 169 170 171
f 170 212 213
f 170 213 214
f 170 214 171
f 171 215 172
f 171 214 216
f 171 216 215
f 172 179 173
f 172 215 179
f 174 182 175
f 175 182 217
f 175 217 176
f 176 217 218
f 176 218 177
f 177 218 219
f 177 219 266
f 177 266 220
f 178 220 221
f 178 221 185
f 179 215 222
f 179 222 223
f 179 223 224
f 179 224 180
f 180 224 183
f 180 183 181
f 182 184 225
f 182 225 217
f 183 224 226
f 183 226 227
f 183 227 184
f 184 227 225
f 185 221 228
f 185 228 186
f 186 228 229
f 186 229 190
f 186 190 187
f 188 190 230
f 188 230 189
f 189 231 232
f 189 232 233
f 189 233 191
f 189 230 231
f 190 229 234
f 190 234 235
f 190 235 236
f 190 236 230
f 191 233 194
f 192 195 193
f 194 237 238
f 194 238 239
f 194 239 195
f 194 233 237
f 195 239 196
f 196 239 240
f 196 240 241
f 197 241 287
f 197 287 242
f 197 242 198
f 198 200 199
f 198 242 243
f 198 243 244
f 198 244 245
f 198 245 246
f 198 246 247
f 198 247 200
f 200 248 201
f 200 247 246
f 200 246 249
f 200 249 248
f 201 248 202
f 203 250 204
f 204 250 251
f 204 251 252
f 204 252 205
f 205 252 253
f 205 253 206
f 206 253 254
f 206 254 255
f 206 255 256
f 206 256 257
f 206 257 207
f 207 257 303
f 207 303 258
f 208 211 212
f 209 259 210
f 209 258 259
f 210 259 260
f 210 260 212
f 210 212 211
f 212 214 213
f 212 260 214
f 214 261 216
f 214 260 259
f 214 259 262
f 214 262 261
f 215 216 222
f 216 261 222
f 217 225 263
f 217 263 218
f 218 263 264
f 218 264 219
f 219 264 265
f 219 265 309
f 219 309 266
f 220 266 267
f 220 267 221
f 221 267 268
f 221 268 228
f 222 269 223
f 222 261 270
f 222 270 271
f 222 271 269
f 223 226 224
f 223 269 226
f 225 272 263
f 225 227 273
f 225 273 272
f 226 269 274
f 226 274 275
f 226 275 227
f 227 275 273
f 228 268 234
f 228 234 229
f 230 236 231
f 231 236 276
f 231 276 232
f 232 277 278
f 232 278 279
f 232 279 237
f 232 237 233
f 232 276 277
f 234 280 235
f 234 268 280
f 235 280 281
f 235 281 236
f 236 281 282
f 236 282 276
f 237 279 238
f 238 240 239
f 238 279 283
f 238 283 284
f 238 284 240
f 240 284 285
f 240 285 286
f 240 286 241
f 241 286 287
f 242 287 288
f 242 288 243
f 243 288 289
f 243 289 244
f 244 289 290
f 244 290 245
f 245 290 333
f 245 333 291
f 245 291 246
f 246 291 292
f 246 292 293
f 246 293 294
f 246 294 249
f 248 249 294
f 248 294 295
f 252 296 253
f 253 297 298
f 253 298 254
f 253 296 299
f 253 299 297
f 254 298 255
f 255 300 302
f 255 302 256
f 255 298 343
f 255 343 301
f 255 301 345
f 255 345 300
f 256 302 303
f 256 303 257
f 258 304 259
f 258 303 305
f 258 305 304
f 259 304 306
f 259 306 262
f 261 262 270
f 262 306 307
f 262 307 270
f 263 272 264
f 264 272 308
f 264 308 265
f 265 308 315
f 265 315 355
f 265 355 395
f 265 395 436
f 265 436 480
f 265 480 528
f 265 528 582
f 265 582 535
f 265 535 486
f 265 486 442
f 265 442 401
f 265 401 365
f 265 365 353
f 265 353 309
f 266 309 310
f 266 310 267
f 267 310 311
f 267 311 268
f 268 311 280
f 269 271 274
f 270 312 274
f 270 274 271
f 270 307 313
f 270 313 314
f 270 314 312
f 272 315 308
f 272 273 316
f 272 316 317
f 272 317 315
f 273 275 318
f 273 318 319
f 273 319 316
f 274 320 318
f 274 318 275
f 274 312 321
f 274 321 320
f 276 282 277
f 277 282 322
f 277 322 278
f 278 322 323
f 278 323 324
f 278 324 325
f 278 325 283
f 278 283 279
f 280 326 327
f 280 327 281
f 280 311 326
f 281 327 328
f 281 328 282
f 282 328 329
f 282 329 322
f 283 325 284
f 284 286 285
f 284 325 330
f 284 330 331
f 284 331 332
f 284 332 286
f 286 288 287
f 286 332 289
f 286 289 288
f 289 332 331
f 289 331 290
f 290 331 333
f 291 333 375
f 291 375 334
f 291 334 292
f 292 335 293
f 292 334 336
f 292 336 337
f 292 337 338
f 292 338 335
f 293 339 294
f 293 335 339
f 294 340 295
f 294 339 341
f 294 341 340
f 297 342 298
f 297 299 342
f 298 342 382
f 298 382 343
f 299 344 342
f 300 345 386
f 300 386 346
f 300 346 302
f 301 343 347
f 301 347 348
f 301 348 349
f 301 349 387
f 301 387 345
f 302 346 350
f 302 350 305
f 302 305 303
f 304 305 306
f 305 350 306
f 306 350 346
f 306 346 351
f 306 351 352
f 306 352 313
f 306 313 307
f 309 353 310
f 310 353 326
f 310 326 311
f 312 314 321
f 313 352 354
f 313 354 314
f 314 354 321
f 315 317 355
f 316 319 356
f 316 356 317
f 317 356 357
f 317 357 355
f 318 320 358
f 318 358 319
f 319 358 359
f 319 359 356
f 320 321 358
f 321 360 358
f 321 354 360
f 322 329 323
f 323 329 324
f 324 329 361
f 324 361 362
f 324 362 363
f 324 363 364
f 324 364 330
f 324 330 325
f 326 365 366
f 326 366 367
f 326 367 327
f 326 353 365
f 327 367 368
f 327 368 369
f 327 369 328
f 328 369 329
f 329 369 370
f 329 370 371
f 329 371 361
f 330 364 372
f 330 372 331
f 331 372 373
f 331 373 333
f 333 373 374
f 333 374 375
f 334 375 379
f 334 379 336
f 335 338 376
f 335 376 377
f 335 377 378
f 335 378 339
f 336 379 380
f 336 380 337
f 337 380 413
f 337 413 381
f 337 381 410
f 337 410 376
f 337 376 338
f 342 344 385
f 342 385 382
f 343 382 383
f 343 383 384
f 343 384 347
f 345 387 386
f 346 386 423
f 346 423 388
f 346 388 351
f 347 384 348
f 348 384 389
f 348 389 390
f 348 390 391
f 348 391 392
f 348 392 349
f 349 392 424
f 349 424 387
f 351 393 352
f 351 388 393
f 352 394 354
f 352 393 394
f 354 394 360
f 355 357 397
f 355 397 395
f 356 359 396
f 356 396 357
f 357 396 437
f 357 437 397
f 358 360 359
f 359 360 398
f 359 398 396
f 360 394 398
f 361 371 362
f 362 399 363
f 362 371 399
f 363 399 400
f 363 400 372
f 363 372 364
f 365 401 366
f 366 401 402
f 366 402 403
f 366 403 367
f 367 403 368
f 368 403 404
f 368 404 405
f 368 405 369
f 369 405 370
f 370 405 371
f 371 405 406
f 371 406 399
f 372 407 408
f 372 408 409
f 372 409 374
f 372 374 373
f 372 400 407
f 374 409 379
f 374 379 375
f 376 410 450
f 376 450 411
f 376 411 377
f 377 411 378
f 378 411 412
f 379 409 408
f 379 408 380
f 380 408 447
f 380 447 413
f 381 414 415
f 381 415 416
f 381 416 410
f 381 413 452
f 381 452 414
f 382 385 417
f 382 417 418
f 382 418 383
f 383 418 384
f 384 418 419
f 384 419 389
f 386 387 420
f 386 420 421
f 386 421 422
f 386 422 423
f 387 424 425
f 387 425 420
f 388 423 433
f 388 433 393
f 389 419 426
f 389 426 390
f 390 427 391
f 390 426 428
f 390 428 429
f 390 429 430
f 390 430 431
f 390 431 427
f 391 432 424
f 391 424 392
f 391 427 468
f 391 468 432
f 393 433 477
f 393 477 434
f 393 434 394
f 394 434 398
f 395 435 436
f 395 397 435
f 396 398 439
f 396 439 437
f 397 437 438
f 397 438 435
f 398 434 477
f 398 477 439
f 399 440 400
f 399 406 440
f 400 440 441
f 400 441 407
f 401 442 443
f 401 443 402
f 402 443 489
f 402 489 444
f 402 444 403
f 403 444 404
f 404 444 445
f 404 445 406
f 404 406 405
f 406 445 440
f 407 441 446
f 407 446 408
f 408 446 491
f 408 491 447
f 410 416 448
f 410 448 449
f 410 449 450
f 411 450 498
f 411 498 451
f 411 451 412
f 413 447 452
f 414 453 415
f 414 452 500
f 414 500 453
f 415 453 454
f 415 454 455
f 415 455 456
f 415 456 448
f 415 448 416
f 419 457 426
f 420 425 421
f 421 425 458
f 421 458 459
f 421 459 460
f 421 460 461
f 421 461 462
f 421 462 463
f 421 463 422
f 422 463 433
f 422 433 423
f 424 432 425
f 425 432 458
f 426 457 464
f 426 464 465
f 426 465 466
f 426 466 428
f 427 467 508
f 427 508 468
f 427 431 467
f 428 466 429
f 429 466 469
f 429 469 470
f 429 470 471
f 429 471 431
f 429 431 430
f 431 471 472
f 431 472 473
f 431 473 474
f 431 474 475
f 431 475 467
f 432 468 459
f 432 459 458
f 433 463 476
f 433 476 477
f 435 478 479
f 435 479 436
f 435 438 478
f 436 479 480
f 437 481 438
f 437 439 481
f 438 481 482
f 438 482 478
f 439 483 481
f 439 477 476
f 439 476 483
f 440 484 441
f 440 445 484
f 441 485 491
f 441 491 446
f 441 484 532
f 441 532 485
f 442 486 487
f 442 487 443
f 443 488 489
f 443 487 488
f 444 489 490
f 444 490 445
f 445 490 532
f 445 532 484
f 447 491 492
f 447 492 493
f 447 493 494
f 447 494 452
f 448 456 495
f 448 495 496
f 448 496 497
f 448 497 449
f 449 497 450
f 450 497 498
f 452 494 499
f 452 499 500
f 453 500 502
f 453 502 454
f 454 501 455
f 454 502 547
f 454 547 501
f 455 501 503
f 455 503 504
f 455 504 505
f 455 505 506
f 455 506 507
f 455 507 456
f 456 507 495
f 459 468 508
f 459 508 509
f 459 509 510
f 459 510 460
f 460 510 511
f 460 511 512
f 460 512 461
f 461 512 462
f 462 512 513
f 462 513 514
f 462 514 463
f 463 514 476
f 466 515 469
f 467 475 523
f 467 523 508
f 469 515 516
f 469 516 470
f 470 516 517
f 470 517 518
f 470 518 472
f 470 472 471
f 472 518 519
f 472 519 520
f 472 520 473
f 473 521 522
f 473 522 474
f 473 520 574
f 473 574 521
f 474 522 523
f 474 523 475
f 476 514 483
f 478 524 479
f 478 482 524
f 479 525 526
f 479 526 527
f 479 527 480
f 479 524 525
f 480 527 528
f 481 483 529
f 481 529 482
f 482 529 530
f 482 530 524
f 483 531 529
f 483 514 531
f 485 492 491
f 485 532 533
f 485 533 534
f 485 534 492
f 486 535 536
f 486 536 487
f 487 536 537
f 487 537 488
f 488 538 539
f 488 539 489
f 488 537 538
f 489 539 490
f 490 539 540
f 490 540 533
f 490 533 532
f 492 534 493
f 493 541 499
f 493 499 494
f 493 534 542
f 493 542 543
f 493 543 544
f 493 544 545
f 493 545 541
f 495 507 546
f 499 541 502
f 499 502 500
f 501 547 597
f 501 597 548
f 501 548 503
f 502 541 545
f 502 545 547
f 503 549 550
f 503 550 551
f 503 551 552
f 503 552 505
f 503 505 504
f 503 548 553
f 503 553 549
f 505 552 554
f 505 554 555
f 505 555 556
f 505 556 506
f 506 556 507
f 507 556 557
f 507 557 558
f 507 558 546
f 508 523 559
f 508 559 509
f 509 559 510
f 510 559 560
f 510 560 561
f 510 561 562
f 510 562 563
f 510 563 511
f 511 563 564
f 511 564 512
f 512 564 565
f 512 565 566
f 512 566 567
f 512 567 513
f 513 567 531
f 513 531 514
f 516 568 569
f 516 569 517
f 517 569 570
f 517 570 571
f 517 571 519
f 517 519 518
f 519 572 520
f 519 571 573
f 519 573 572
f 520 572 619
f 520 619 574
f 521 559 522
f 521 574 561
f 521 561 559
f 522 559 523
f 524 575 525
f 524 530 576
f 524 576 575
f 525 577 578
f 525 578 579
f 525 579 526
f 525 575 577
f 526 579 580
f 526 580 527
f 527 580 581
f 527 581 528
f 528 581 631
f 528 631 582
f 529 531 583
f 529 583 530
f 530 583 566
f 530 566 576
f 531 567 566
f 531 566 583
f 533 584 534
f 533 540 584
f 534 584 542
f 535 582 585
f 535 585 536
f 536 586 587
f 536 587 537
f 536 585 588
f 536 588 586
f 537 587 538
f 538 589 590
f 538 590 539
f 538 587 589
f 539 590 540
f 540 590 591
f 540 591 584
f 542 584 592
f 542 592 593
f 542 593 543
f 543 593 544
f 544 593 594
f 544 594 595
f 544 595 545
f 545 595 596
f 545 596 597
f 545 597 547
f 548 597 603
f 548 603 553
f 549 553 603
f 549 603 598
f 549 598 600
f 549 600 550
f 550 599 551
f 550 600 649
f 550 649 599
f 551 599 601
f 551 601 602
f 551 602 554
f 551 554 552
f 554 602 604
f 554 604 605
f 554 605 555
f 555 606 556
f 555 605 606
f 559 561 560
f 561 574 607
f 561 607 562
f 562 607 608
f 562 608 609
f 562 609 610
f 562 610 563
f 563 610 564
f 564 610 611
f 564 611 612
f 564 612 613
f 564 613 565
f 565 613 566
f 566 613 614
f 566 614 576
f 568 615 569
f 569 615 570
f 570 573 571
f 570 615 616
f 570 616 617
f 570 617 618
f 570 618 573
f 572 573 620
f 572 620 666
f 572 666 619
f 573 621 620
f 573 618 617
f 573 617 622
f 573 622 623
f 573 623 621
f 574 619 624
f 574 624 607
f 575 625 577
f 575 576 614
f 575 614 625
f 577 626 578
f 577 625 626
f 578 626 627
f 578 627 628
f 578 628 579
f 579 628 629
f 579 629 580
f 580 629 630
f 580 630 581
f 581 630 679
f 581 679 631
f 582 631 585
f 584 591 592
f 585 631 632
f 585 632 588
f 586 633 634
f 586 634 587
f 586 588 635
f 586 635 636
f 586 636 633
f 587 634 637
f 587 637 589
f 588 632 635
f 589 638 639
f 589 639 590
f 589 637 638
f 590 639 591
f 591 639 638
f 591 638 640
f 591 640 592
f 592 640 593
f 593 640 638
f 593 638 641
f 593 641 642
f 593 642 594
f 594 642 643
f 594 643 595
f 595 643 644
f 595 644 645
f 595 645 646
f 595 646 647
f 595 647 596
f 596 647 597
f 597 647 603
f 598 603 647
f 598 647 600
f 599 648 601
f 599 649 694
f 599 694 648
f 600 645 649
f 600 647 645
f 601 648 650
f 601 650 651
f 601 651 604
f 601 604 602
f 604 651 652
f 604 652 653
f 604 653 605
f 605 653 654
f 607 624 608
f 608 624 655
f 608 655 656
f 608 656 657
f 608 657 609
f 609 657 611
f 609 611 610
f 611 657 658
f 611 658 659
f 611 659 660
f 611 660 612
f 612 660 614
f 612 614 613
f 614 660 625
f 615 661 662
f 615 662 616
f 616 662 617
f 617 662 663
f 617 663 664
f 617 664 665
f 617 665 622
f 619 666 667
f 619 667 624
f 620 621 668
f 620 668 666
f 621 623 670
f 621 670 668
f 622 665 714
f 622 714 669
f 622 669 670
f 622 670 623
f 624 667 671
f 624 671 655
f 625 660 659
f 625 659 672
f 625 672 626
f 626 673 674
f 626 674 675
f 626 675 627
f 626 672 676
f 626 676 673
f 627 675 628
f 628 675 677
f 628 677 629
f 629 677 678
f 629 678 630
f 630 678 721
f 630 721 679
f 631 679 632
f 632 679 680
f 632 680 635
f 633 636 681
f 633 681 682
f 633 682 634
f 634 682 683
f 634 683 637
f 635 680 684
f 635 684 636
f 636 684 685
f 636 685 681
f 637 683 638
f 638 683 686
f 638 686 641
f 641 686 642
f 642 686 687
f 642 687 688
f 642 688 689
f 642 689 643
f 643 689 644
f 644 689 690
f 644 690 691
f 644 691 692
f 644 692 645
f 645 647 646
f 645 692 649
f 648 693 650
f 648 694 734
f 648 734 693
f 649 692 695
f 649 695 694
f 650 652 651
f 650 693 696
f 650 696 697
f 650 697 698
f 650 698 699
f 650 699 700
f 650 700 652
f 652 701 653
f 652 700 699
f 652 699 702
f 652 702 701
f 653 701 654
f 655 671 667
f 655 667 703
f 655 703 704
f 655 704 705
f 655 705 706
f 655 706 656
f 656 706 658
f 656 658 657
f 658 706 673
f 658 673 676
f 658 676 672
f 658 672 659
f 661 707 662
f 662 707 708
f 662 708 663
f 663 708 709
f 663 709 664
f 664 709 710
f 664 710 711
f 664 711 712
f 664 712 713
f 664 713 665
f 665 713 754
f 665 754 714
f 666 668 667
f 667 668 670
f 667 670 703
f 669 714 704
f 669 704 670
f 670 704 703
f 673 715 716
f 673 716 717
f 673 717 674
f 673 706 705
f 673 705 715
f 674 717 675
f 675 717 718
f 675 718 677
f 677 718 719
f 677 719 678
f 678 719 720
f 678 720 758
f 678 758 721
f 679 721 680
f 680 722 684
f 680 721 722
f 681 723 724
f 681 724 725
f 681 725 682
f 681 685 726
f 681 726 727
f 681 727 723
f 682 728 729
f 682 729 683
f 682 725 728
f 683 687 686
f 683 729 687
f 684 726 685
f 684 722 726
f 687 729 688
f 688 690 689
f 688 729 728
f 688 728 730
f 688 730 731
f 688 731 690
f 690 731 691
f 691 695 692
f 691 731 732
f 691 732 733
f 691 733 695
f 693 734 737
f 693 737 696
f 694 695 735
f 694 735 734
f 695 733 736
f 695 736 735
f 696 737 738
f 696 738 697
f 697 738 740
f 697 740 698
f 698 739 699
f 698 740 768
f 698 768 739
f 699 741 702
f 699 739 742
f 699 742 743
f 699 743 741
f 701 702 741
f 701 741 744
f 704 714 745
f 704 745 746
f 704 746 705
f 705 746 715
f 708 747 709
f 709 747 748
f 709 748 749
f 709 749 750
f 709 750 710
f 710 750 711
f 711 751 753
f 711 753 712
f 711 750 782
f 711 782 752
f 711 752 783
f 711 783 751
f 712 753 754
f 712 754 713
f 714 754 755
f 714 755 745
f 715 746 716
f 716 746 756
f 716 756 718
f 716 718 717
f 718 756 719
f 719 756 757
f 719 757 720
f 720 757 785
f 720 785 758
f 721 758 759
f 721 759 722
f 722 759 760
f 722 760 726
f 723 761 762
f 723 762 730
f 723 730 724
f 723 727 763
f 723 763 764
f 723 764 765
f 723 765 761
f 724 730 725
f 725 730 728
f 726 760 763
f 726 763 727
f 730 762 732
f 730 732 731
f 732 762 733
f 733 762 761
f 733 761 766
f 733 766 767
f 733 767 735
f 733 735 736
f 734 735 737
f 735 767 738
f 735 738 737
f 738 766 740
f 738 767 766
f 739 768 790
f 739 790 769
f 739 769 742
f 740 766 768
f 741 743 770
f 741 770 771
f 741 771 772
f 741 772 773
f 741 773 744
f 742 769 774
f 742 774 752
f 742 752 775
f 742 775 776
f 742 776 743
f 743 776 770
f 745 755 746
f 746 755 777
f 746 777 778
f 746 778 779
f 746 779 756
f 748 780 781
f 748 781 749
f 749 781 750
f 750 781 796
f 750 796 782
f 751 778 753
f 751 783 794
f 751 794 778
f 752 782 775
f 752 774 792
f 752 792 783
f 753 777 755
f 753 755 754
f 753 778 777
f 756 779 757
f 757 779 784
f 757 784 797
f 757 797 785
f 758 785 759
f 759 786 760
f 759 785 786
f 760 786 764
f 760 764 763
f 761 765 787
f 761 787 766
f 764 786 787
f 764 787 765
f 766 787 788
f 766 788 768
f 768 788 789
f 768 789 790
f 769 790 792
f 769 792 774
f 770 776 791
f 775 782 776
f 776 782 793
f 776 793 791
f 778 784 779
f 778 794 797
f 778 797 784
f 780 795 796
f 780 796 781
f 782 796 793
f 783 792 794
f 785 797 798
f 785 798 786
f 786 798 787
f 787 798 794
f 787 794 799
f 787 799 789
f 787 789 788
f 789 799 792
f 789 792 790
f 791 793 796
f 791 796 800
f 792 799 794
f 794 798 797
f 795 800 796
