v 0.168485 0.735865 0.00884769
v 0.164362 0.721879 0.00884769
v 0.164362 0.721879 -0.00886534
v 0.168452 0.735865 -0.00886534
v 0.162713 0.859952 -0.00886534
v 0.162713 0.859952 0.00884769
v 0.166209 0.735865 0.0265937
v 0.161394 0.724529 0.0443067
v 0.163208 0.722595 0.0265937
v 0.145397 0.698726 0.00983724
v 0.145397 0.698726 -0.00982191
v 0.163208 0.722595 -0.0265784
v 0.166209 0.735865 -0.0265784
v 0.160569 0.859952 -0.0253579
v 0.160239 0.870184 -0.0228181
v 0.16113 0.871829 -0.00886534
v 0.16113 0.871829 0.00884769
v 0.160239 0.870204 0.0228334
v 0.160569 0.859952 0.0254062
v 0.159382 0.859952 0.0342792
v 0.162647 0.735865 0.0443067
v 0.159975 0.726348 0.0541363
v 0.136558 0.698726 0.0457581
v 0.14101 0.698726 0.0286058
v 0.143088 0.698726 0.0204255
v 0.141043 0.698726 -0.0282606
v 0.161394 0.724529 -0.0443244
v 0.159975 0.726348 -0.054154
v 0.162647 0.735865 -0.0443244
v 0.159382 0.859952 -0.0342309
v 0.154434 0.880688 -0.00886534
v 0.156512 0.859952 -0.0443244
v 0.143385 0.8715 -0.073978
v 0.146024 0.874788 -0.0620374
v 0.148497 0.879102 -0.0448192
v 0.154467 0.876742 -0.0278648
v 0.154434 0.880688 0.00884769
v 0.154467 0.876742 0.0278801
v 0.148497 0.879102 0.0448345
v 0.146024 0.874807 0.0620527
v 0.143385 0.8715 0.0739934
v 0.156545 0.859952 0.0443067
v 0.159909 0.735865 0.0540374
v 0.156182 0.735865 0.0628774
v 0.148431 0.735865 0.0797658
v 0.142791 0.725709 0.0899582
v 0.14543 0.723311 0.0797658
v 0.125838 0.698726 0.0731687
v 0.130785 0.698726 0.0619538
v 0.136887 0.698726 -0.0443244
v 0.130753 0.698726 -0.0619385
v 0.126597 0.698726 -0.0716361
v 0.14543 0.72333 -0.0797834
v 0.142791 0.725709 -0.0899428
v 0.148431 0.735865 -0.0797834
v 0.156182 0.735865 -0.062895
v 0.159909 0.735865 -0.054022
v 0.143154 0.887516 -0.0392447
v 0.144407 0.888406 -0.0265784
v 0.145562 0.889199 -0.00886534
v 0.150179 0.859952 -0.0620374
v 0.1388 0.883667 -0.0620374
v 0.144177 0.859952 -0.0755283
v 0.139328 0.859952 -0.0844013
v 0.130456 0.859952 -0.0969357
v 0.128345 0.873802 -0.0941649
v 0.133457 0.87856 -0.0804101
v 0.141043 0.885949 -0.0510863
v 0.145562 0.889199 0.00884769
v 0.144407 0.888406 0.0265937
v 0.143154 0.887516 0.03926
v 0.141043 0.885949 0.0511017
v 0.138833 0.883667 0.0620527
v 0.144177 0.859952 0.0755437
v 0.150212 0.859952 0.0620527
v 0.13349 0.87856 0.0804255
v 0.128345 0.873802 0.0941473
v 0.130456 0.859952 0.0969181
v 0.139328 0.859952 0.0844167
v 0.142956 0.735865 0.0901891
v 0.136228 0.735865 0.0990621
v 0.127355 0.735865 0.110607
v 0.126498 0.724452 0.109452
v 0.118087 0.698726 0.0827344
v 0.125838 0.698726 -0.0731534
v 0.136195 0.735865 -0.0990468
v 0.142956 0.735865 -0.0901737
v 0.126465 0.724452 -0.109437
v 0.127355 0.735865 -0.110559
v 0.129961 0.890127 -0.0620374
v 0.134282 0.890882 -0.0448192
v 0.132962 0.89328 -0.0265784
v 0.132962 0.894073 -0.00886534
v 0.122738 0.88562 -0.0868422
v 0.126762 0.888309 -0.0750336
v 0.123661 0.859952 -0.105776
v 0.111985 0.87473 -0.111977
v 0.117361 0.880185 -0.100267
v 0.132962 0.894073 0.00884769
v 0.132962 0.89328 0.0265937
v 0.134282 0.890882 0.0448345
v 0.129961 0.890127 0.0620527
v 0.126795 0.888328 0.0750489
v 0.122771 0.88562 0.0868576
v 0.119571 0.878908 0.0990621
v 0.110567 0.87769 0.110574
v 0.123661 0.859952 0.105791
v 0.119472 0.735865 0.119447
v 0.109446 0.724452 0.126506
v 0.100639 0.698726 0.102163
v 0.109973 0.698726 0.092531
v 0.10994 0.698726 -0.0924827
v 0.102123 0.698726 -0.100597
v 0.109413 0.724471 -0.126457
v 0.119406 0.735865 -0.119399
v 0.116207 0.891036 -0.0804761
v 0.115251 0.895002 -0.0620374
v 0.115251 0.896104 -0.0443244
v 0.115251 0.896317 -0.0265784
v 0.106378 0.886549 -0.106369
v 0.11093 0.889025 -0.0945608
v 0.114789 0.859952 -0.114781
v 0.105784 0.859952 -0.123654
v 0.0941414 0.873802 -0.128338
v 0.100276 0.880185 -0.117354
v 0.115251 0.896317 0.0265937
v 0.115251 0.896124 0.0443067
v 0.115251 0.895002 0.0620527
v 0.116207 0.891056 0.0804914
v 0.109808 0.888406 0.0975118
v 0.106378 0.886568 0.106385
v 0.0990559 0.878908 0.119579
v 0.0941744 0.873802 0.128353
v 0.105784 0.859952 0.123669
v 0.114789 0.859952 0.114796
v 0.1106 0.735865 0.127363
v 0.0731642 0.698726 0.125846
v 0.0925252 0.698726 0.10998
v 0.0899526 0.725709 0.1428
v 0.0924593 0.698726 -0.109932
v 0.110534 0.735865 -0.127348
v 0.0827293 0.698726 -0.118046
v 0.0731642 0.698726 -0.125831
v 0.0899526 0.725709 -0.142785
v 0.0992868 0.891462 -0.0992776
v 0.0975057 0.895718 -0.0797834
v 0.0975057 0.896317 -0.0620374
v 0.0868522 0.88562 -0.122763
v 0.0945372 0.889025 -0.110921
v 0.0990559 0.735865 -0.136188
v 0.096912 0.859952 -0.130449
v 0.0804205 0.878541 -0.13345
v 0.0739558 0.87148 -0.143379
v 0.0975057 0.896317 0.0620527
v 0.0975057 0.895718 0.0797658
v 0.0975057 0.8927 0.0975118
v 0.0975057 0.888406 0.109815
v 0.0868522 0.88562 0.122745
v 0.0804535 0.878579 0.133499
v 0.0740218 0.871519 0.143394
v 0.096945 0.859952 0.130464
v 0.0990559 0.735865 0.136236
v 0.071647 0.698726 0.126605
v 0.0901835 0.735865 0.142965
v 0.0797608 0.735865 0.148441
v 0.0541661 0.726328 0.159986
v 0.0797608 0.723311 0.145439
v 0.06195 0.698726 -0.130778
v 0.0541331 0.726367 -0.15997
v 0.0797608 0.72333 -0.145424
v 0.0797608 0.735865 -0.148426
v 0.0901835 0.735865 -0.14295
v 0.0797608 0.895718 -0.0974964
v 0.0804865 0.891036 -0.116199
v 0.062049 0.895002 -0.115242
v 0.062049 0.896317 -0.0974964
v 0.062049 0.883647 -0.138794
v 0.0750443 0.888309 -0.126787
v 0.0843784 0.859952 -0.139322
v 0.075506 0.859952 -0.14417
v 0.062049 0.859952 -0.150174
v 0.0443041 0.859952 -0.15654
v 0.0228322 0.870184 -0.160234
v 0.062049 0.874788 -0.146018
v 0.062049 0.896317 0.0975118
v 0.0797608 0.895718 0.0975118
v 0.062049 0.895002 0.115225
v 0.0804865 0.891056 0.116214
v 0.0750443 0.888328 0.126803
v 0.062049 0.883686 0.138842
v 0.062049 0.874827 0.146033
v 0.0228322 0.870184 0.16025
v 0.0443041 0.859952 0.156555
v 0.062049 0.859952 0.150222
v 0.075572 0.859952 0.144186
v 0.0844444 0.859952 0.139337
v 0.06195 0.698726 0.130761
v 0.0629395 0.735865 0.156192
v 0.0540671 0.735865 0.15992
v 0.0443041 0.735865 0.16269
v 0.0265923 0.735865 0.16622
v 0.0443041 0.724491 0.161404
v 0.0429189 0.698726 0.137952
v 0.0457554 0.698726 -0.136518
v 0.0443041 0.724549 -0.161389
v 0.0265923 0.735865 -0.166172
v 0.0443041 0.735865 -0.162609
v 0.0539682 0.735865 -0.159904
v 0.0628406 0.735865 -0.156177
v 0.0443041 0.896104 -0.115242
v 0.062049 0.890127 -0.129954
v 0.0448319 0.890862 -0.134275
v 0.0265923 0.89328 -0.132955
v 0.0265923 0.896317 -0.115242
v 0.0510657 0.885949 -0.141037
v 0.0342443 0.859952 -0.159377
v 0.0253719 0.859952 -0.160564
v 0.00884745 0.859952 -0.162708
v 0.00884745 0.871829 -0.161125
v 0.00884745 0.880688 -0.154429
v 0.0278786 0.876742 -0.154462
v 0.0448319 0.879102 -0.148491
v 0.0265923 0.896317 0.115225
v 0.0443041 0.896124 0.115225
v 0.0265923 0.8933 0.132971
v 0.0448649 0.890882 0.13429
v 0.062049 0.890127 0.129969
v 0.0511316 0.885949 0.141052
v 0.0448649 0.879102 0.148507
v 0.00884745 0.871829 0.16114
v 0.00884745 0.859952 0.16269
v 0.0253719 0.859952 0.160579
v 0.0342443 0.859952 0.159392
v 0.0278786 0.876742 0.154477
v 0.00884745 0.880688 0.154444
v 0.00884745 0.735865 0.168496
v 0.0265923 0.722595 0.163218
v 0.00986992 0.698726 0.145373
v 0.0265923 0.698726 0.141646
v 0.0285713 0.698726 -0.140971
v 0.0265923 0.722614 -0.163203
v 0.00884745 0.735865 -0.168481
v 0.00980395 0.698726 -0.145391
v 0.00884745 0.894073 -0.132955
v 0.0392577 0.887516 -0.143148
v 0.0265923 0.888406 -0.144401
v 0.00884745 0.889199 -0.145589
v -0.0265763 0.896317 -0.115242
v -0.00886441 0.859952 -0.162708
v -0.00886441 0.871829 -0.161125
v -0.00886441 0.880688 -0.154429
v -0.0265763 0.896317 0.115225
v 0.00884745 0.894073 0.132971
v 0.00884745 0.889199 0.145571
v 0.0265923 0.888406 0.144417
v 0.0392907 0.887516 0.143163
v -0.00886441 0.871829 0.16114
v -0.00886441 0.859952 0.16269
v -0.00886441 0.880688 0.154444
v -0.00886441 0.735865 0.168463
v -0.00886441 0.721879 0.16434
v 0.00884745 0.721879 0.16434
v -0.0098539 0.698726 0.145373
v 0.00884745 0.721879 -0.164357
v -0.00886441 0.721879 -0.164357
v -0.00886441 0.735865 -0.168448
v -0.00982091 0.698726 -0.145391
v -0.00886441 0.894073 -0.132955
v -0.00886441 0.889199 -0.145556
v -0.0443211 0.896104 -0.115242
v -0.062033 0.896317 -0.0974964
v -0.0265763 0.735865 -0.166172
v -0.0253559 0.859952 -0.160564
v -0.0228162 0.870184 -0.160234
v -0.0392417 0.887516 -0.143148
v -0.0265763 0.888406 -0.144401
v -0.0278626 0.876742 -0.154462
v -0.0443211 0.896124 0.115225
v -0.00886441 0.894073 0.132971
v -0.062033 0.896317 0.0975118
v -0.00886441 0.889199 0.145571
v -0.0228162 0.870184 0.16025
v -0.0265763 0.735865 0.16622
v -0.0253559 0.859952 0.160579
v -0.0278626 0.876742 0.154477
v -0.0265763 0.888406 0.144417
v -0.0393077 0.887516 0.143163
v -0.0265763 0.722595 0.163218
v -0.0265763 0.698726 0.141646
v -0.0443211 0.72451 0.161404
v -0.0265763 0.722614 -0.163203
v -0.0443211 0.724549 -0.161389
v -0.0203425 0.698726 -0.143082
v -0.0265763 0.89328 -0.132955
v -0.062033 0.895002 -0.115242
v -0.0797778 0.895718 -0.0974964
v -0.0797778 0.896317 -0.0797834
v -0.0443211 0.735865 -0.162609
v -0.0342283 0.859952 -0.159377
v -0.054117 0.726367 -0.159937
v -0.0443211 0.859952 -0.15654
v -0.0739728 0.87148 -0.143379
v -0.062033 0.874788 -0.146018
v -0.0448158 0.879102 -0.148491
v -0.0510496 0.88593 -0.141037
v -0.062033 0.890108 -0.129954
v -0.0448158 0.890862 -0.134275
v -0.062033 0.895002 0.115225
v -0.0265763 0.89328 0.132971
v -0.0797778 0.895718 0.0975118
v -0.0974896 0.896317 0.0620527
v -0.0443211 0.859952 0.156555
v -0.0342283 0.859952 0.159392
v -0.0448488 0.879102 0.148507
v -0.062033 0.874827 0.146033
v -0.0740058 0.8715 0.143394
v -0.0443211 0.735865 0.162657
v -0.054183 0.726328 0.159986
v -0.0448488 0.890882 0.13429
v -0.0511156 0.885949 0.141052
v -0.062033 0.890127 0.129969
v -0.0429358 0.698726 0.137952
v -0.0455415 0.698726 0.137358
v -0.0443211 0.698726 -0.136881
v -0.0804704 0.891036 -0.116199
v -0.0992707 0.891462 -0.0992776
v -0.0974896 0.895718 -0.0797834
v -0.0974896 0.896317 -0.0620374
v -0.0539851 0.735865 -0.159904
v -0.0797778 0.72333 -0.145424
v -0.0899366 0.725709 -0.142785
v -0.0797778 0.735865 -0.148426
v -0.0628245 0.735865 -0.156177
v -0.061934 0.698726 -0.130745
v -0.071631 0.698726 -0.126589
v -0.062033 0.859952 -0.150174
v -0.07549 0.859952 -0.14417
v -0.0843624 0.859952 -0.139289
v -0.096896 0.859952 -0.130449
v -0.0941584 0.873802 -0.128338
v -0.0804045 0.878541 -0.13345
v -0.062033 0.883647 -0.138794
v -0.0750282 0.888309 -0.126754
v -0.0804704 0.891036 0.116214
v -0.0974896 0.8927 0.0975118
v -0.0974896 0.895718 0.0797658
v -0.115234 0.896317 0.0265937
v -0.115234 0.896104 0.0443067
v -0.0540511 0.735865 0.15992
v -0.062033 0.859952 0.150222
v -0.062033 0.883686 0.138842
v -0.075556 0.859952 0.144186
v -0.0804375 0.87856 0.133466
v -0.0941584 0.873802 0.128353
v -0.0969289 0.859952 0.130464
v -0.0844284 0.859952 0.139337
v -0.0629235 0.735865 0.156192
v -0.0797778 0.735865 0.148441
v -0.0899366 0.725709 0.142767
v -0.0797778 0.72333 0.145439
v -0.0731482 0.698726 0.125846
v -0.061934 0.698726 0.130761
v -0.0750282 0.888328 0.126803
v -0.0945542 0.889025 -0.110921
v -0.110914 0.889025 -0.0945278
v -0.116191 0.891036 -0.0804761
v -0.115234 0.894982 -0.0620374
v -0.106362 0.886549 -0.106369
v -0.115234 0.896104 -0.0443244
v -0.115234 0.896317 -0.0265784
v -0.0901674 0.735865 -0.14295
v -0.0731482 0.698726 -0.125831
v -0.109397 0.724471 -0.126457
v -0.110551 0.735865 -0.127315
v -0.0990398 0.735865 -0.136188
v -0.105768 0.859952 -0.123621
v -0.111969 0.87473 -0.111977
v -0.0868361 0.88562 -0.12273
v -0.0974896 0.888406 0.109782
v -0.115234 0.895002 0.0620527
v -0.116191 0.891056 0.0804914
v -0.109792 0.888406 0.0975118
v -0.106362 0.886549 0.106385
v -0.132979 0.894073 0.00884769
v -0.132979 0.89328 0.0265937
v -0.0902004 0.735865 0.142965
v -0.0868691 0.88562 0.122745
v -0.0990398 0.878908 0.119579
v -0.110584 0.87769 0.110574
v -0.105801 0.859952 0.123636
v -0.110584 0.735865 0.127363
v -0.0990398 0.735865 0.136236
v -0.109429 0.724452 0.126473
v -0.0827133 0.698726 0.118062
v -0.122755 0.88562 -0.0868422
v -0.126779 0.888309 -0.0750336
v -0.129945 0.890108 -0.0620374
v -0.134266 0.890862 -0.0448192
v -0.132979 0.89328 -0.0265784
v -0.128329 0.873802 -0.0941649
v -0.132979 0.894073 -0.00886534
v -0.0924762 0.698726 -0.109932
v -0.10059 0.698726 -0.102114
v -0.126482 0.724471 -0.109404
v -0.11939 0.735865 -0.119399
v -0.114773 0.859952 -0.114781
v -0.123645 0.859952 -0.105776
v -0.129945 0.890127 0.0620527
v -0.134266 0.890882 0.0448345
v -0.126779 0.888328 0.0750159
v -0.122755 0.88562 0.0868576
v -0.119555 0.878908 0.0990291
v -0.145579 0.889199 0.00884769
v -0.144424 0.888406 0.0265937
v -0.128329 0.873802 0.0941473
v -0.123645 0.859952 0.105791
v -0.114773 0.859952 0.114796
v -0.119456 0.735865 0.119447
v -0.126482 0.724452 0.109452
v -0.10214 0.698726 0.100612
v -0.0925092 0.698726 0.109947
v -0.133474 0.87856 -0.0804101
v -0.138817 0.883647 -0.0620374
v -0.141027 0.88593 -0.0510533
v -0.143171 0.887516 -0.0392447
v -0.144424 0.888406 -0.0265784
v -0.145579 0.889199 -0.00886534
v -0.13044 0.859952 -0.0969027
v -0.143402 0.87148 -0.073978
v -0.109924 0.698726 -0.0924827
v -0.127339 0.735865 -0.110526
v -0.118038 0.698726 -0.0827191
v -0.125822 0.698726 -0.0731204
v -0.142775 0.725709 -0.0899428
v -0.136212 0.735865 -0.0990468
v -0.143171 0.887516 0.03926
v -0.14106 0.885949 0.0510687
v -0.138817 0.883667 0.0620527
v -0.133474 0.87856 0.0804255
v -0.154418 0.880688 0.00884769
v -0.13044 0.859952 0.0969181
v -0.143402 0.87148 0.0739934
v -0.127339 0.735865 0.110574
v -0.136212 0.735865 0.0990621
v -0.142775 0.725709 0.0899582
v -0.125855 0.698726 0.0731687
v -0.109957 0.698726 0.092498
v -0.146008 0.874788 -0.0620374
v -0.148481 0.879082 -0.0448192
v -0.154451 0.876722 -0.0278318
v -0.154418 0.880668 -0.00886534
v -0.14294 0.735865 -0.0901737
v -0.139312 0.859952 -0.0843684
v -0.144161 0.859952 -0.0755283
v -0.150163 0.859952 -0.0620374
v -0.156496 0.859952 -0.0443244
v -0.160223 0.870184 -0.0227851
v -0.130736 0.698726 -0.0619385
v -0.159959 0.726367 -0.054121
v -0.145447 0.72333 -0.0797834
v -0.148415 0.735865 -0.0797834
v -0.154451 0.876742 0.0278471
v -0.148514 0.879102 0.0448345
v -0.146008 0.874807 0.0620527
v -0.161114 0.871809 -0.00886534
v -0.161114 0.871809 0.00884769
v -0.160223 0.870184 0.0228004
v -0.139312 0.859952 0.0843837
v -0.14294 0.735865 0.0901891
v -0.156529 0.859952 0.0443067
v -0.150196 0.859952 0.0620527
v -0.144161 0.859952 0.0755107
v -0.148415 0.735865 0.0797658
v -0.159959 0.726367 0.0541363
v -0.145447 0.72333 0.0797658
v -0.126614 0.698726 0.0716514
v -0.156166 0.735865 -0.062862
v -0.159893 0.735865 -0.053989
v -0.162631 0.735865 -0.0443244
v -0.159366 0.859952 -0.034165
v -0.160553 0.859952 -0.0252919
v -0.162697 0.859952 -0.00886534
v -0.136541 0.698726 -0.0457757
v -0.161378 0.724529 -0.0443244
v -0.166193 0.735865 -0.0265784
v -0.162697 0.859952 0.00884769
v -0.160553 0.859952 0.0253403
v -0.159366 0.859952 0.0342133
v -0.162631 0.735865 0.0443067
v -0.159893 0.735865 0.0540044
v -0.156166 0.735865 0.0628774
v -0.130769 0.698726 0.0619538
v -0.166193 0.735865 0.0265937
v -0.161378 0.724529 0.0443067
v -0.136904 0.698726 0.0443067
v -0.168436 0.735865 -0.00886534
v -0.168469 0.735865 0.00884769
v -0.140994 0.698726 -0.0285905
v -0.143072 0.698726 -0.0203442
v -0.145381 0.698726 -0.00978892
v -0.163192 0.722614 -0.0265784
v -0.163192 0.722614 0.0265937
v -0.145381 0.698726 0.00980426
v -0.141027 0.698726 0.028243
v -0.164346 0.721879 -0.00886534
v -0.164346 0.721879 0.00884769
f 1 2 3
f 1 3 4
f 1 4 5
f 1 5 6
f 1 6 7
f 1 7 8
f 1 8 9
f 1 9 2
f 2 9 10
f 2 10 11
f 2 11 3
f 3 11 12
f 3 12 4
f 4 12 13
f 4 13 5
f 5 13 14
f 5 14 15
f 5 15 16
f 5 16 17
f 5 17 6
f 6 17 18
f 6 18 19
f 6 19 7
f 7 20 21
f 7 21 22
f 7 22 8
f 7 19 20
f 8 23 24
f 8 24 25
f 8 25 10
f 8 10 9
f 8 22 23
f 10 25 24
f 10 24 23
f 10 23 49
f 10 49 48
f 10 48 84
f 10 84 111
f 10 111 110
f 10 110 138
f 10 138 137
f 10 137 163
f 10 163 197
f 10 197 203
f 10 203 239
f 10 239 238
f 10 238 263
f 10 263 289
f 10 289 322
f 10 322 323
f 10 323 362
f 10 362 361
f 10 361 394
f 10 394 421
f 10 421 420
f 10 420 447
f 10 447 446
f 10 446 476
f 10 476 492
f 10 492 495
f 10 495 504
f 10 504 503
f 10 503 500
f 10 500 499
f 10 499 498
f 10 498 483
f 10 483 458
f 10 458 433
f 10 433 432
f 10 432 430
f 10 430 403
f 10 403 402
f 10 402 372
f 10 372 335
f 10 335 334
f 10 334 324
f 10 324 293
f 10 293 267
f 10 267 243
f 10 243 240
f 10 240 204
f 10 204 168
f 10 168 143
f 10 143 142
f 10 142 140
f 10 140 113
f 10 113 112
f 10 112 85
f 10 85 52
f 10 52 51
f 10 51 50
f 10 50 26
f 10 26 11
f 11 26 27
f 11 27 12
f 12 27 13
f 13 27 28
f 13 28 29
f 13 29 30
f 13 30 14
f 14 30 15
f 15 31 16
f 15 30 32
f 15 32 33
f 15 33 34
f 15 34 35
f 15 35 36
f 15 36 31
f 16 31 37
f 16 37 17
f 17 37 18
f 18 37 38
f 18 38 39
f 18 39 40
f 18 40 41
f 18 41 42
f 18 42 20
f 18 20 19
f 20 42 43
f 20 43 21
f 21 43 22
f 22 43 44
f 22 44 45
f 22 45 46
f 22 46 47
f 22 47 48
f 22 48 49
f 22 49 23
f 26 50 27
f 27 50 28
f 28 51 52
f 28 52 53
f 28 53 54
f 28 54 55
f 28 55 56
f 28 56 57
f 28 57 29
f 28 50 51
f 29 57 30
f 30 57 32
f 31 36 58
f 31 58 59
f 31 59 60
f 31 60 69
f 31 69 37
f 32 57 61
f 32 61 33
f 33 62 34
f 33 61 63
f 33 63 64
f 33 64 65
f 33 65 66
f 33 66 67
f 33 67 62
f 34 62 68
f 34 68 35
f 35 68 58
f 35 58 36
f 37 69 70
f 37 70 71
f 37 71 38
f 38 71 39
f 39 71 72
f 39 72 40
f 40 73 41
f 40 72 73
f 41 74 75
f 41 75 42
f 41 73 76
f 41 76 77
f 41 77 78
f 41 78 79
f 41 79 74
f 42 75 43
f 43 75 44
f 44 75 74
f 44 74 45
f 45 80 46
f 45 74 80
f 46 48 47
f 46 80 81
f 46 81 82
f 46 82 83
f 46 83 48
f 48 83 84
f 52 85 54
f 52 54 53
f 54 86 87
f 54 87 55
f 54 85 88
f 54 88 89
f 54 89 86
f 55 63 56
f 55 87 63
f 56 63 61
f 56 61 57
f 58 68 90
f 58 90 91
f 58 91 59
f 59 92 60
f 59 91 92
f 60 92 93
f 60 93 99
f 60 99 69
f 62 67 94
f 62 94 95
f 62 95 68
f 63 87 64
f 64 87 65
f 65 87 86
f 65 86 89
f 65 89 96
f 65 96 66
f 66 96 97
f 66 97 98
f 66 98 94
f 66 94 67
f 68 95 90
f 69 99 100
f 69 100 70
f 70 101 71
f 70 100 101
f 71 101 102
f 71 102 72
f 72 102 103
f 72 103 73
f 73 103 76
f 74 79 80
f 76 104 77
f 76 103 104
f 77 104 105
f 77 105 106
f 77 106 107
f 77 107 78
f 78 80 79
f 78 107 81
f 78 81 80
f 81 107 82
f 82 107 108
f 82 108 83
f 83 108 109
f 83 109 110
f 83 110 111
f 83 111 84
f 85 112 88
f 88 113 114
f 88 114 115
f 88 115 89
f 88 112 113
f 89 115 96
f 90 95 116
f 90 116 117
f 90 117 91
f 91 117 92
f 92 117 118
f 92 118 93
f 93 118 119
f 93 119 126
f 93 126 99
f 94 98 120
f 94 120 121
f 94 121 95
f 95 121 116
f 96 115 122
f 96 122 97
f 97 120 98
f 97 122 123
f 97 123 124
f 97 124 125
f 97 125 120
f 99 126 127
f 99 127 100
f 100 127 128
f 100 128 101
f 101 128 102
f 102 128 129
f 102 129 103
f 103 129 130
f 103 130 104
f 104 130 131
f 104 131 105
f 105 131 106
f 106 131 132
f 106 132 133
f 106 133 134
f 106 134 135
f 106 135 107
f 107 135 108
f 108 135 134
f 108 134 136
f 108 136 109
f 109 137 138
f 109 138 110
f 109 136 139
f 109 139 137
f 113 140 114
f 114 141 115
f 114 140 142
f 114 142 143
f 114 143 144
f 114 144 141
f 115 141 123
f 115 123 122
f 116 121 145
f 116 145 117
f 117 145 146
f 117 146 118
f 118 146 147
f 118 147 119
f 119 147 176
f 119 176 214
f 119 214 248
f 119 248 271
f 119 271 297
f 119 297 328
f 119 328 370
f 119 370 347
f 119 347 311
f 119 311 280
f 119 280 252
f 119 252 223
f 119 223 185
f 119 185 154
f 119 154 126
f 120 125 148
f 120 148 149
f 120 149 145
f 120 145 121
f 123 141 150
f 123 150 151
f 123 151 124
f 124 152 148
f 124 148 125
f 124 151 153
f 124 153 152
f 126 154 127
f 127 154 155
f 127 155 128
f 128 155 156
f 128 156 129
f 129 156 130
f 130 156 131
f 131 157 158
f 131 158 132
f 131 156 157
f 132 158 133
f 133 159 160
f 133 160 161
f 133 161 134
f 133 158 159
f 134 161 136
f 136 161 162
f 136 162 139
f 137 139 163
f 139 164 165
f 139 165 166
f 139 166 167
f 139 167 163
f 139 162 164
f 141 144 150
f 143 168 169
f 143 169 170
f 143 170 144
f 144 170 169
f 144 169 171
f 144 171 172
f 144 172 150
f 145 173 146
f 145 149 174
f 145 174 175
f 145 175 173
f 146 173 176
f 146 176 147
f 148 152 177
f 148 177 178
f 148 178 149
f 149 178 174
f 150 172 151
f 151 172 179
f 151 179 153
f 152 153 177
f 153 180 181
f 153 181 182
f 153 182 183
f 153 183 184
f 153 184 177
f 153 179 180
f 154 185 186
f 154 186 155
f 155 186 156
f 156 186 187
f 156 187 188
f 156 188 157
f 157 188 189
f 157 189 158
f 158 189 159
f 159 189 190
f 159 190 160
f 160 191 192
f 160 192 193
f 160 193 194
f 160 194 195
f 160 195 196
f 160 196 161
f 160 190 191
f 161 196 164
f 161 164 162
f 163 167 166
f 163 166 197
f 164 196 195
f 164 195 165
f 165 195 198
f 165 198 166
f 166 198 199
f 166 199 200
f 166 200 201
f 166 201 202
f 166 202 203
f 166 203 197
f 168 204 169
f 169 205 206
f 169 206 207
f 169 207 208
f 169 208 209
f 169 209 171
f 169 204 205
f 171 180 172
f 171 209 180
f 172 180 179
f 173 175 210
f 173 210 176
f 174 178 211
f 174 211 175
f 175 211 212
f 175 212 213
f 175 213 210
f 176 210 214
f 177 184 215
f 177 215 178
f 178 215 211
f 180 209 181
f 181 209 208
f 181 208 182
f 182 208 216
f 182 216 183
f 183 216 217
f 183 217 218
f 183 218 219
f 183 219 220
f 183 220 221
f 183 221 222
f 183 222 184
f 184 222 215
f 185 223 224
f 185 224 186
f 186 224 187
f 187 224 225
f 187 225 226
f 187 226 227
f 187 227 188
f 188 227 189
f 189 227 228
f 189 228 190
f 190 228 191
f 191 228 229
f 191 229 192
f 192 230 231
f 192 231 232
f 192 232 233
f 192 233 193
f 192 229 234
f 192 234 235
f 192 235 230
f 193 233 200
f 193 200 199
f 193 199 194
f 194 199 198
f 194 198 195
f 200 233 201
f 201 233 232
f 201 232 236
f 201 236 202
f 202 236 237
f 202 237 238
f 202 238 239
f 202 239 203
f 204 240 205
f 205 241 242
f 205 242 206
f 205 240 243
f 205 243 241
f 206 242 217
f 206 217 216
f 206 216 207
f 207 216 208
f 210 213 244
f 210 244 214
f 211 215 245
f 211 245 212
f 212 245 246
f 212 246 213
f 213 246 247
f 213 247 244
f 214 244 268
f 214 268 248
f 215 222 245
f 217 242 218
f 218 242 249
f 218 249 250
f 218 250 219
f 219 250 251
f 219 251 220
f 220 251 247
f 220 247 246
f 220 246 245
f 220 245 221
f 221 245 222
f 223 252 279
f 223 279 253
f 223 253 224
f 224 253 225
f 225 253 254
f 225 254 255
f 225 255 226
f 226 255 256
f 226 256 227
f 227 256 228
f 228 256 229
f 229 256 234
f 230 257 258
f 230 258 231
f 230 235 259
f 230 259 257
f 231 258 236
f 231 236 232
f 234 256 235
f 235 254 281
f 235 281 259
f 235 256 255
f 235 255 254
f 236 260 261
f 236 261 262
f 236 262 237
f 236 258 260
f 237 262 238
f 238 262 261
f 238 261 263
f 241 264 242
f 241 243 264
f 242 264 265
f 242 265 266
f 242 266 249
f 243 267 265
f 243 265 264
f 244 247 268
f 247 251 269
f 247 269 268
f 248 268 270
f 248 270 271
f 249 266 272
f 249 272 273
f 249 273 274
f 249 274 250
f 250 274 251
f 251 275 276
f 251 276 269
f 251 274 277
f 251 277 275
f 252 278 279
f 252 280 278
f 253 279 281
f 253 281 254
f 257 259 282
f 257 282 258
f 258 283 260
f 258 282 284
f 258 284 283
f 259 285 282
f 259 281 286
f 259 286 287
f 259 287 285
f 260 283 288
f 260 288 261
f 261 288 263
f 263 288 290
f 263 290 289
f 265 291 266
f 265 267 291
f 266 291 292
f 266 292 272
f 267 293 292
f 267 292 291
f 268 294 270
f 268 269 294
f 269 276 294
f 270 294 295
f 270 295 296
f 270 296 271
f 271 296 297
f 272 298 299
f 272 299 273
f 272 292 300
f 272 300 298
f 273 299 274
f 274 299 301
f 274 301 302
f 274 302 303
f 274 303 304
f 274 304 277
f 275 277 304
f 275 304 305
f 275 305 306
f 275 306 307
f 275 307 276
f 276 307 294
f 278 308 309
f 278 309 279
f 278 280 310
f 278 310 308
f 279 309 281
f 280 311 310
f 281 309 286
f 282 312 313
f 282 313 284
f 282 285 314
f 282 314 315
f 282 315 316
f 282 316 312
f 283 284 313
f 283 313 317
f 283 317 318
f 283 318 290
f 283 290 288
f 285 287 314
f 286 309 319
f 286 319 287
f 287 320 314
f 287 319 321
f 287 321 320
f 289 290 322
f 290 318 323
f 290 323 322
f 292 293 324
f 292 324 300
f 294 307 295
f 295 307 306
f 295 306 325
f 295 325 326
f 295 326 296
f 296 326 327
f 296 327 297
f 297 327 328
f 298 300 329
f 298 329 299
f 299 329 301
f 300 330 331
f 300 331 332
f 300 332 333
f 300 333 329
f 300 324 334
f 300 334 335
f 300 335 330
f 301 329 336
f 301 336 302
f 302 336 337
f 302 337 338
f 302 338 339
f 302 339 340
f 302 340 341
f 302 341 342
f 302 342 303
f 303 342 305
f 303 305 304
f 305 342 343
f 305 343 306
f 306 343 325
f 308 344 321
f 308 321 319
f 308 319 309
f 308 310 345
f 308 345 344
f 310 311 346
f 310 346 345
f 311 347 348
f 311 348 346
f 312 349 317
f 312 317 313
f 312 316 350
f 312 350 349
f 314 320 315
f 315 320 351
f 315 351 316
f 316 352 350
f 316 351 353
f 316 353 354
f 316 354 355
f 316 355 356
f 316 356 352
f 317 349 318
f 318 349 357
f 318 357 358
f 318 358 359
f 318 359 360
f 318 360 361
f 318 361 362
f 318 362 323
f 320 321 363
f 320 363 351
f 321 344 363
f 325 364 326
f 325 343 364
f 326 365 366
f 326 366 367
f 326 367 327
f 326 364 368
f 326 368 365
f 327 367 369
f 327 369 328
f 328 369 370
f 329 333 336
f 330 335 331
f 331 371 332
f 331 335 372
f 331 372 373
f 331 373 374
f 331 374 375
f 331 375 371
f 332 371 337
f 332 337 333
f 333 337 336
f 337 371 338
f 338 371 339
f 339 376 340
f 339 371 375
f 339 375 376
f 340 376 377
f 340 377 368
f 340 368 378
f 340 378 341
f 341 378 342
f 342 378 343
f 343 378 364
f 344 345 379
f 344 379 363
f 345 346 380
f 345 380 381
f 345 381 382
f 345 382 383
f 345 383 379
f 346 348 380
f 347 384 348
f 347 370 401
f 347 401 384
f 348 384 385
f 348 385 380
f 349 350 357
f 350 352 357
f 351 363 353
f 352 386 358
f 352 358 357
f 352 356 386
f 353 363 387
f 353 387 354
f 354 387 388
f 354 388 389
f 354 389 390
f 354 390 355
f 355 391 392
f 355 392 386
f 355 386 356
f 355 390 391
f 358 386 359
f 359 386 392
f 359 392 391
f 359 391 393
f 359 393 361
f 359 361 360
f 361 393 394
f 363 379 387
f 364 378 368
f 365 395 396
f 365 396 366
f 365 368 395
f 366 396 397
f 366 397 367
f 367 397 398
f 367 398 399
f 367 399 369
f 368 377 400
f 368 400 395
f 369 399 401
f 369 401 370
f 372 402 373
f 373 402 403
f 373 403 404
f 373 404 405
f 373 405 374
f 374 405 376
f 374 376 375
f 376 405 406
f 376 406 377
f 377 406 407
f 377 407 400
f 379 383 387
f 380 408 381
f 380 385 409
f 380 409 408
f 381 408 410
f 381 410 382
f 382 410 411
f 382 411 383
f 383 389 388
f 383 388 387
f 383 411 412
f 383 412 389
f 384 413 385
f 384 401 427
f 384 427 413
f 385 413 414
f 385 414 409
f 389 412 415
f 389 415 416
f 389 416 417
f 389 417 390
f 390 417 418
f 390 418 391
f 391 418 393
f 393 418 419
f 393 419 420
f 393 420 421
f 393 421 394
f 395 400 422
f 395 422 396
f 396 423 424
f 396 424 397
f 396 422 423
f 397 424 425
f 397 425 398
f 398 425 426
f 398 426 399
f 399 427 401
f 399 426 427
f 400 428 429
f 400 429 422
f 400 407 428
f 403 430 404
f 404 431 405
f 404 430 432
f 404 432 433
f 404 433 434
f 404 434 431
f 405 431 407
f 405 407 406
f 407 431 435
f 407 435 428
f 408 409 436
f 408 436 437
f 408 437 410
f 409 414 436
f 410 437 438
f 410 438 411
f 411 439 415
f 411 415 412
f 411 438 439
f 413 427 440
f 413 440 414
f 414 440 436
f 415 441 416
f 415 439 442
f 415 442 441
f 416 443 418
f 416 418 417
f 416 441 444
f 416 444 443
f 418 443 419
f 419 443 445
f 419 445 446
f 419 446 447
f 419 447 420
f 422 429 423
f 423 429 448
f 423 448 424
f 424 449 425
f 424 448 449
f 425 450 451
f 425 451 426
f 425 449 450
f 426 451 427
f 427 451 440
f 428 435 452
f 428 452 453
f 428 453 429
f 429 454 455
f 429 455 456
f 429 456 457
f 429 457 448
f 429 453 454
f 431 434 435
f 433 458 459
f 433 459 460
f 433 460 434
f 434 460 459
f 434 459 461
f 434 461 452
f 434 452 435
f 436 462 463
f 436 463 437
f 436 440 462
f 437 463 464
f 437 464 438
f 438 464 442
f 438 442 439
f 440 451 465
f 440 465 466
f 440 466 467
f 440 467 462
f 441 442 468
f 441 468 469
f 441 469 444
f 442 464 467
f 442 467 470
f 442 470 471
f 442 471 472
f 442 472 468
f 443 444 445
f 444 469 445
f 445 469 473
f 445 473 474
f 445 474 475
f 445 475 476
f 445 476 446
f 448 457 449
f 449 457 450
f 450 457 451
f 451 457 465
f 452 461 454
f 452 454 453
f 454 477 455
f 454 461 477
f 455 477 478
f 455 478 456
f 456 479 480
f 456 480 457
f 456 478 479
f 457 481 482
f 457 482 465
f 457 480 481
f 458 483 459
f 459 479 478
f 459 478 477
f 459 477 461
f 459 483 484
f 459 484 485
f 459 485 479
f 462 467 463
f 463 467 464
f 465 482 486
f 465 486 466
f 466 486 467
f 467 486 487
f 467 487 488
f 467 488 470
f 468 472 469
f 469 472 473
f 470 488 489
f 470 489 490
f 470 490 471
f 471 490 491
f 471 491 472
f 472 491 473
f 473 491 474
f 474 492 476
f 474 476 475
f 474 491 490
f 474 490 489
f 474 489 493
f 474 493 494
f 474 494 495
f 474 495 492
f 479 485 480
f 480 485 481
f 481 485 482
f 482 485 496
f 482 496 497
f 482 497 486
f 483 498 484
f 484 498 499
f 484 499 500
f 484 500 501
f 484 501 485
f 485 501 496
f 486 497 493
f 486 493 487
f 487 493 488
f 488 493 489
f 493 497 494
f 494 497 502
f 494 502 503
f 494 503 504
f 494 504 495
f 496 505 497
f 496 501 505
f 497 505 506
f 497 506 502
f 500 505 501
f 500 503 506
f 500 506 505
f 502 506 503
