v 0.33454 -0.700389 0.00884652
v 0.333361 -0.682658 0.00884652
v 0.332248 -0.700389 0.0265959
v 0.332968 -0.71812 0.00884652
v 0.33454 -0.700389 -0.00883732
v 0.323275 -0.611958 0.009043
v 0.331069 -0.682658 0.0265959
v 0.333361 -0.682658 -0.00883732
v 0.330676 -0.71812 0.0265959
v 0.326419 -0.682658 0.062029
v 0.327532 -0.700389 0.062029
v 0.326026 -0.71812 0.062029
v 0.323472 -0.771284 0.0265959
v 0.328122 -0.753581 0.00884652
v 0.332968 -0.71812 -0.00883732
v 0.332248 -0.700389 -0.0265867
v 0.320983 -0.611958 0.0267923
v 0.323275 -0.611958 -0.00883732
v 0.331069 -0.682658 -0.0265867
v 0.321048 -0.611958 -0.0263247
v 0.316333 -0.611958 0.062029
v 0.323734 -0.682658 0.0797784
v 0.324912 -0.700389 0.0797784
v 0.319018 -0.761653 0.070085
v 0.320852 -0.754861 0.0633389
v 0.319018 -0.779245 0.0522047
v 0.323341 -0.71812 0.0797784
v 0.320786 -0.789376 0.0269233
v 0.325502 -0.771284 0.00884652
v 0.328122 -0.753581 -0.00883732
v 0.319018 -0.779245 -0.0521955
v 0.330676 -0.71812 -0.0265867
v 0.326026 -0.71812 -0.0620198
v 0.327532 -0.700389 -0.0620198
v 0.326419 -0.682658 -0.0620198
v 0.316333 -0.611958 -0.0620198
v 0.31332 -0.611958 0.0797784
v 0.319607 -0.670968 0.0898647
v 0.320655 -0.682658 0.0924845
v 0.32131 -0.700389 0.0939909
v 0.320459 -0.71812 0.0919606
v 0.318363 -0.772509 0.0633389
v 0.318756 -0.742169 0.0866554
v 0.318101 -0.754861 0.0803678
v 0.315023 -0.771284 0.0797784
v 0.318625 -0.795528 0.0330799
v 0.319804 -0.799313 0.0212252
v 0.319607 -0.730339 0.0897992
v 0.322424 -0.789042 0.00884652
v 0.325502 -0.771284 -0.00883732
v 0.323406 -0.771284 -0.0265867
v 0.316267 -0.789042 -0.0620198
v 0.318429 -0.772509 -0.0633297
v 0.319018 -0.761653 -0.0700758
v 0.320852 -0.754861 -0.0633297
v 0.319804 -0.783475 -0.0404062
v 0.323341 -0.71812 -0.0797692
v 0.324912 -0.700389 -0.0797692
v 0.323734 -0.682658 -0.0797692
v 0.313386 -0.611958 -0.0795072
v 0.307819 -0.611958 0.0974622
v 0.307753 -0.611958 0.0976587
v 0.317053 -0.682658 0.101326
v 0.301597 -0.690619 0.142196
v 0.301597 -0.695434 0.142196
v 0.301335 -0.707264 0.141606
v 0.316857 -0.71812 0.100802
v 0.313058 -0.753581 0.0974622
v 0.307164 -0.790545 0.0811538
v 0.313517 -0.789042 0.062029
v 0.309129 -0.771284 0.0974622
v 0.283979 -0.798451 0.142851
v 0.3033 -0.800399 0.0761761
v 0.319935 -0.799675 0.00884652
v 0.305592 -0.80296 0.062029
v 0.301597 -0.833634 0.000397572
v 0.321376 -0.790657 -0.0102127
v 0.320655 -0.786927 -0.0265867
v 0.318167 -0.789237 -0.0455149
v 0.318691 -0.795778 -0.0265867
v 0.310635 -0.806773 -0.0620198
v 0.312403 -0.789042 -0.0797692
v 0.315678 -0.771284 -0.0797692
v 0.318101 -0.754861 -0.0803586
v 0.318756 -0.742169 -0.0866462
v 0.319804 -0.749851 -0.074857
v 0.319607 -0.730339 -0.08979
v 0.320459 -0.71812 -0.0919514
v 0.32131 -0.700389 -0.0939817
v 0.320655 -0.682658 -0.0924753
v 0.319607 -0.670968 -0.0898555
v 0.31332 -0.611958 -0.0797692
v 0.293083 -0.611958 0.133223
v 0.286599 -0.611958 0.148876
v 0.282866 -0.611958 0.157718
v 0.297471 -0.683911 0.149138
v 0.28745 -0.684189 0.16918
v 0.283783 -0.691092 0.177367
v 0.287909 -0.699721 0.170031
v 0.298453 -0.700973 0.149138
v 0.296161 -0.71812 0.15071
v 0.310897 -0.71812 0.115212
v 0.303038 -0.73585 0.127983
v 0.305002 -0.754416 0.116652
v 0.301204 -0.760902 0.123529
v 0.283324 -0.778549 0.158701
v 0.282211 -0.789042 0.155229
v 0.269243 -0.805103 0.167608
v 0.267016 -0.817155 0.161124
v 0.301597 -0.833634 -0.00209126
v 0.305461 -0.825951 -0.00831336
v 0.316005 -0.805576 -0.0102127
v 0.319542 -0.798868 -0.00516956
v 0.267278 -0.888106 -0.0160418
v 0.267606 -0.888579 -0.0265867
v 0.274417 -0.877696 -0.0265867
v 0.230537 -0.868928 0.159683
v 0.319084 -0.797671 -0.0170243
v 0.312731 -0.806773 -0.0442705
v 0.303889 -0.819883 -0.0620198
v 0.302579 -0.817545 -0.0741365
v 0.305723 -0.807497 -0.0799656
v 0.305002 -0.821887 -0.0442705
v 0.303431 -0.802069 -0.0942437
v 0.301335 -0.797532 -0.106098
v 0.305592 -0.790573 -0.0990904
v 0.310307 -0.771284 -0.0975185
v 0.313058 -0.753581 -0.0975185
v 0.316857 -0.71812 -0.100793
v 0.301335 -0.707264 -0.141597
v 0.301597 -0.695434 -0.142187
v 0.301597 -0.690619 -0.142187
v 0.307819 -0.611958 -0.0975185
v 0.317053 -0.682658 -0.101317
v 0.275792 -0.611958 0.168394
v 0.283783 -0.693375 0.177367
v 0.275661 -0.611958 0.168591
v 0.267671 -0.611958 0.179725
v 0.252084 -0.611958 0.200028
v 0.245142 -0.611958 0.209067
v 0.244749 -0.682658 0.225965
v 0.245469 -0.700389 0.226882
v 0.283455 -0.705204 0.176974
v 0.288105 -0.71812 0.166888
v 0.285485 -0.753581 0.16263
v 0.284438 -0.766719 0.160862
v 0.293607 -0.73585 0.15071
v 0.290987 -0.753581 0.15071
v 0.274548 -0.789042 0.168394
v 0.266034 -0.798061 0.177367
v 0.262628 -0.809891 0.172979
v 0.246255 -0.812451 0.192496
v 0.250839 -0.819271 0.180707
v 0.246582 -0.831073 0.17514
v 0.210168 -0.883012 0.173896
v 0.281621 -0.865198 -0.0265867
v 0.305657 -0.823112 -0.0265867
v 0.257061 -0.89345 -0.0265867
v 0.21436 -0.888301 0.162041
v 0.257061 -0.892727 -0.0442705
v 0.266951 -0.887856 -0.0442705
v 0.273042 -0.877696 -0.0442705
v 0.266361 -0.88716 -0.0547498
v 0.283586 -0.850975 -0.0705998
v 0.282014 -0.848302 -0.0797692
v 0.285092 -0.835693 -0.0926063
v 0.281097 -0.829041 -0.115202
v 0.284438 -0.816933 -0.126337
v 0.300483 -0.813899 -0.0859913
v 0.280901 -0.863973 -0.0442705
v 0.293607 -0.806773 -0.115202
v 0.287319 -0.806996 -0.132493
v 0.285223 -0.801262 -0.14461
v 0.293017 -0.789042 -0.132952
v 0.302776 -0.785702 -0.109701
v 0.304086 -0.771284 -0.112844
v 0.300418 -0.771284 -0.121752
v 0.303038 -0.73585 -0.127974
v 0.310897 -0.71812 -0.115202
v 0.296161 -0.71812 -0.150701
v 0.298453 -0.700973 -0.149129
v 0.287909 -0.699693 -0.170022
v 0.283783 -0.69112 -0.177423
v 0.28745 -0.684189 -0.169171
v 0.297471 -0.683911 -0.149129
v 0.2828 -0.611958 -0.157644
v 0.286664 -0.611958 -0.148605
v 0.299174 -0.611958 -0.118412
v 0.25228 -0.700389 0.21804
v 0.267933 -0.700389 0.197605
v 0.236365 -0.611958 0.220398
v 0.229227 -0.611958 0.22924
v 0.235841 -0.682658 0.235855
v 0.244487 -0.71812 0.225637
v 0.236562 -0.700389 0.236575
v 0.23558 -0.71812 0.235593
v 0.274745 -0.71812 0.186143
v 0.282604 -0.71812 0.175795
v 0.266951 -0.71812 0.196361
v 0.279591 -0.753581 0.171472
v 0.278871 -0.772091 0.167412
v 0.267147 -0.789042 0.178808
v 0.260336 -0.789042 0.187715
v 0.244683 -0.789042 0.20815
v 0.235776 -0.789042 0.219612
v 0.249661 -0.800622 0.19695
v 0.256144 -0.80527 0.184964
v 0.229947 -0.814762 0.212014
v 0.214425 -0.871182 0.179528
v 0.230537 -0.851142 0.177301
v 0.234466 -0.821191 0.200225
v 0.204143 -0.87803 0.186471
v 0.193467 -0.884877 0.193479
v 0.239313 -0.896317 -0.0265867
v 0.239313 -0.896317 -0.0620198
v 0.239313 -0.895733 -0.0797692
v 0.204143 -0.891168 0.168132
v 0.186132 -0.8959 0.168394
v 0.198379 -0.889247 0.181624
v 0.253394 -0.890862 -0.0797692
v 0.257978 -0.890806 -0.0612339
v 0.250381 -0.888802 -0.0975185
v 0.248613 -0.887076 -0.107539
v 0.264462 -0.884376 -0.0666045
v 0.269898 -0.878169 -0.0612339
v 0.267737 -0.871851 -0.0797692
v 0.266099 -0.869095 -0.089135
v 0.26551 -0.850362 -0.122865
v 0.282211 -0.813092 -0.138126
v 0.286599 -0.789042 -0.148147
v 0.278478 -0.806996 -0.15057
v 0.265837 -0.797588 -0.177161
v 0.28208 -0.789042 -0.156989
v 0.283521 -0.779272 -0.159215
v 0.287516 -0.772536 -0.152273
v 0.295768 -0.771284 -0.132952
v 0.293607 -0.73585 -0.150701
v 0.284438 -0.767443 -0.160853
v 0.285485 -0.753581 -0.162621
v 0.286795 -0.73585 -0.164783
v 0.288105 -0.71812 -0.166878
v 0.283455 -0.705149 -0.176965
v 0.283783 -0.693319 -0.177423
v 0.267671 -0.611958 -0.179585
v 0.275858 -0.611958 -0.168254
v 0.245404 -0.700389 -0.226873
v 0.244683 -0.682658 -0.22589
v 0.236365 -0.611958 -0.220388
v 0.245338 -0.611958 -0.20873
v 0.260925 -0.611958 -0.188427
v 0.220254 -0.611958 0.23651
v 0.225952 -0.682658 0.244762
v 0.226869 -0.700389 0.245482
v 0.232567 -0.753581 0.23258
v 0.231388 -0.76683 0.231401
v 0.24298 -0.73585 0.223672
v 0.259616 -0.734709 0.202255
v 0.225625 -0.71812 0.2445
v 0.270749 -0.753581 0.183524
v 0.263938 -0.753581 0.192431
v 0.269112 -0.771284 0.181362
v 0.262301 -0.771284 0.19027
v 0.246648 -0.771284 0.210704
v 0.230078 -0.77866 0.230091
v 0.228506 -0.789042 0.228519
v 0.233287 -0.80296 0.216402
v 0.213836 -0.834886 0.213848
v 0.217634 -0.841372 0.203172
v 0.227131 -0.826063 0.205203
v 0.223136 -0.808861 0.223148
v 0.217569 -0.824504 0.217581
v 0.209906 -0.864864 0.191318
v 0.214163 -0.853062 0.196819
v 0.203226 -0.841372 0.217647
v 0.18646 -0.87803 0.204155
v 0.17395 -0.883012 0.21018
v 0.142644 -0.887187 0.231073
v 0.162161 -0.888384 0.214765
v 0.181613 -0.889247 0.198391
v 0.186132 -0.896289 0.15071
v 0.168383 -0.896317 0.168394
v 0.221629 -0.896317 -0.0975185
v 0.221629 -0.896206 -0.115202
v 0.239313 -0.893673 -0.0975185
v 0.186983 -0.891752 0.186995
v 0.168383 -0.8959 0.186143
v 0.1507 -0.896317 0.186143
v 0.239968 -0.890695 -0.114154
v 0.233615 -0.889025 -0.132952
v 0.24632 -0.883764 -0.119329
v 0.251953 -0.877779 -0.114154
v 0.259419 -0.876081 -0.0960121
v 0.262301 -0.880702 -0.0797692
v 0.250119 -0.871962 -0.127385
v 0.266492 -0.834218 -0.142645
v 0.269309 -0.823251 -0.149391
v 0.266558 -0.816515 -0.16046
v 0.269374 -0.806773 -0.164521
v 0.261711 -0.790601 -0.185676
v 0.267606 -0.785758 -0.179519
v 0.27278 -0.790601 -0.170088
v 0.249988 -0.80115 -0.19753
v 0.279133 -0.772536 -0.167402
v 0.290987 -0.753581 -0.150701
v 0.279591 -0.753581 -0.171463
v 0.282604 -0.71812 -0.175786
v 0.274745 -0.71812 -0.186134
v 0.26014 -0.71812 -0.205193
v 0.244421 -0.71812 -0.225563
v 0.267933 -0.700389 -0.197596
v 0.23558 -0.71812 -0.235583
v 0.236562 -0.700389 -0.236566
v 0.235841 -0.682658 -0.235845
v 0.229227 -0.611958 -0.22923
v 0.208924 -0.611958 0.245286
v 0.177421 -0.691009 0.283797
v 0.177421 -0.693792 0.283797
v 0.218027 -0.700389 0.252294
v 0.177028 -0.705622 0.28347
v 0.236824 -0.772175 0.223148
v 0.247761 -0.75976 0.212145
v 0.242522 -0.753748 0.220267
v 0.22366 -0.73585 0.242994
v 0.220254 -0.753776 0.242535
v 0.212133 -0.759788 0.247775
v 0.223136 -0.772175 0.236837
v 0.216783 -0.71812 0.251312
v 0.210692 -0.771284 0.246661
v 0.208138 -0.789042 0.244697
v 0.219599 -0.789042 0.235789
v 0.21639 -0.80296 0.2333
v 0.212067 -0.814762 0.22996
v 0.205256 -0.826063 0.227144
v 0.191306 -0.864892 0.209918
v 0.16 -0.86929 0.230811
v 0.154433 -0.881092 0.226554
v 0.132951 -0.889359 0.233693
v 0.14939 -0.889971 0.221053
v 0.14939 -0.876193 0.23389
v 0.161179 -0.817378 0.267096
v 0.13937 -0.867174 0.247054
v 0.133213 -0.877306 0.242994
v 0.118739 -0.882957 0.246006
v 0.106885 -0.886826 0.24843
v 0.168187 -0.891223 0.204155
v 0.203881 -0.896317 -0.115202
v 0.203881 -0.896262 -0.132952
v 0.221629 -0.893896 -0.132952
v 0.1507 -0.895232 0.203893
v 0.115203 -0.896206 0.221577
v 0.132951 -0.896317 0.203893
v 0.221629 -0.889108 -0.146051
v 0.230602 -0.886714 -0.142056
v 0.242653 -0.877779 -0.133148
v 0.246517 -0.866395 -0.139239
v 0.250643 -0.854565 -0.14533
v 0.242784 -0.860271 -0.151028
v 0.233222 -0.876054 -0.149064
v 0.246582 -0.831017 -0.174934
v 0.250643 -0.819187 -0.180829
v 0.246582 -0.81298 -0.192684
v 0.254245 -0.80694 -0.186527
v 0.251822 -0.789042 -0.199888
v 0.269243 -0.771284 -0.181549
v 0.24023 -0.807552 -0.204407
v 0.233811 -0.802125 -0.215869
v 0.2363 -0.789042 -0.219013
v 0.245142 -0.789042 -0.20873
v 0.270749 -0.753581 -0.183514
v 0.265117 -0.739775 -0.193928
v 0.25359 -0.771284 -0.201984
v 0.247761 -0.759649 -0.212136
v 0.242915 -0.73585 -0.223598
v 0.232567 -0.753581 -0.232571
v 0.225559 -0.71812 -0.244425
v 0.226803 -0.700389 -0.245408
v 0.225887 -0.682658 -0.244687
v 0.220385 -0.611958 -0.236369
v 0.18849 -0.611958 0.260939
v 0.179452 -0.611958 0.267817
v 0.168252 -0.611958 0.275872
v 0.157642 -0.611958 0.282815
v 0.169169 -0.684133 0.287465
v 0.142252 -0.690535 0.301612
v 0.170021 -0.699971 0.287989
v 0.184429 -0.699971 0.278099
v 0.166943 -0.71812 0.28812
v 0.175784 -0.71812 0.282619
v 0.186132 -0.71812 0.274825
v 0.214818 -0.73585 0.249805
v 0.205322 -0.753776 0.254062
v 0.183578 -0.753581 0.270764
v 0.181417 -0.771284 0.269126
v 0.178862 -0.789042 0.267162
v 0.177421 -0.798089 0.266048
v 0.196938 -0.800649 0.249674
v 0.19255 -0.812479 0.246268
v 0.180696 -0.819271 0.250853
v 0.190389 -0.842234 0.226947
v 0.175195 -0.831101 0.246596
v 0.177356 -0.851142 0.230549
v 0.168187 -0.824225 0.256879
v 0.16334 -0.837419 0.251115
v 0.132951 -0.89423 0.221577
v 0.113762 -0.890528 0.239784
v 0.173033 -0.809918 0.262642
v 0.167597 -0.805103 0.269323
v 0.150373 -0.806328 0.278754
v 0.149325 -0.823752 0.269257
v 0.142579 -0.83394 0.26631
v 0.133213 -0.860744 0.253669
v 0.132951 -0.837224 0.26834
v 0.12208 -0.849722 0.265131
v 0.115203 -0.819939 0.286352
v 0.104789 -0.832297 0.283012
v -0.0878266 -0.869095 0.266114
v -0.0844864 -0.889025 0.250722
v 0.0983055 -0.825617 0.289758
v 0.092935 -0.835888 0.285435
v 0.0442735 -0.896317 -0.239317
v 0.0457798 -0.891363 -0.258703
v 0.0620222 -0.88947 -0.253529
v -0.0975196 -0.896317 0.221577
v -0.0975196 -0.893673 0.239326
v 0.221629 -0.881927 -0.154958
v 0.0526566 -0.886352 -0.265777
v 0.0620222 -0.88432 -0.262371
v 0.230668 -0.869067 -0.159805
v 0.230668 -0.851364 -0.177489
v 0.242718 -0.824866 -0.186527
v 0.230471 -0.833383 -0.195042
v 0.233746 -0.824504 -0.198382
v 0.262432 -0.771284 -0.190457
v 0.226803 -0.789042 -0.227855
v 0.214622 -0.79962 -0.231785
v 0.22962 -0.777742 -0.229754
v 0.231322 -0.765912 -0.231326
v 0.246779 -0.771284 -0.210826
v 0.242456 -0.753692 -0.220257
v 0.220254 -0.753664 -0.24246
v 0.223594 -0.73585 -0.242919
v 0.213443 -0.747819 -0.248748
v 0.205191 -0.71812 -0.260144
v 0.176963 -0.70501 -0.283461
v 0.217962 -0.700389 -0.252219
v 0.177356 -0.69318 -0.283723
v 0.177356 -0.691148 -0.283723
v 0.188621 -0.611958 -0.260799
v 0.148604 -0.611958 0.286679
v 0.149194 -0.683855 0.297486
v 0.142252 -0.695824 0.301612
v 0.149194 -0.701196 0.298469
v 0.132951 -0.611958 0.293163
v 0.109701 -0.611958 0.302791
v 0.0975196 -0.611958 0.307834
v 0.101384 -0.682658 0.317069
v 0.0924766 -0.682658 0.320672
v 0.0939829 -0.700389 0.321326
v 0.16262 -0.753581 0.2855
v 0.1507 -0.71812 0.296242
v 0.160852 -0.767053 0.284452
v 0.171462 -0.753581 0.279606
v 0.167466 -0.772286 0.278951
v 0.168383 -0.789042 0.274628
v 0.156529 -0.789042 0.282291
v 0.144282 -0.800121 0.284714
v 0.137209 -0.81195 0.281767
v 0.12542 -0.816515 0.28419
v 0.0992224 -0.808026 0.299385
v -0.089071 -0.869095 0.266114
v -0.0666722 -0.817378 0.302529
v -0.0975196 -0.888802 0.250395
v 0.0945069 -0.802932 0.303839
v 0.0797709 -0.805103 0.305935
v 0.0620222 -0.804797 0.307114
v 0.00884159 -0.793051 0.316807
v -0.00884161 -0.793524 0.317069
v -0.0620222 -0.896317 -0.239317
v 0.00884159 -0.894313 -0.257066
v 0.0265903 -0.894063 -0.257066
v 0.0265903 -0.889191 -0.2682
v 0.0408678 -0.888078 -0.267218
v -0.115203 -0.896206 0.221577
v -0.132951 -0.896317 0.203893
v -0.114155 -0.890695 0.239981
v -0.132951 -0.893896 0.221577
v 0.0736145 -0.871934 -0.267873
v 0.0457798 -0.879338 -0.271606
v 0.0797709 -0.839061 -0.286998
v 0.0620222 -0.875441 -0.269903
v 0.14199 -0.798061 -0.283788
v 0.162423 -0.800204 -0.267938
v 0.178338 -0.781805 -0.266759
v 0.174212 -0.793635 -0.263747
v 0.168383 -0.788235 -0.270755
v 0.180696 -0.771284 -0.268593
v 0.222874 -0.771618 -0.2365
v 0.212133 -0.759621 -0.2477
v 0.183512 -0.753581 -0.270689
v 0.187245 -0.734653 -0.271082
v 0.186132 -0.71812 -0.27475
v 0.184429 -0.69961 -0.278025
v 0.197593 -0.700389 -0.267873
v 0.175719 -0.71812 -0.282609
v 0.166877 -0.71812 -0.288045
v 0.170021 -0.69961 -0.287914
v 0.142186 -0.690675 -0.301538
v 0.169169 -0.684217 -0.287391
v 0.157773 -0.611958 -0.28274
v 0.168383 -0.611958 -0.275732
v 0.16858 -0.611958 -0.275601
v 0.179714 -0.611958 -0.267611
v 0.141662 -0.707654 0.30135
v 0.10289 -0.700389 0.317659
v 0.0797709 -0.611958 0.313336
v 0.0899223 -0.67094 0.319624
v 0.0797709 -0.682658 0.32375
v 0.0797709 -0.700389 0.324929
v 0.0920181 -0.71812 0.320475
v 0.1507 -0.753581 0.291067
v 0.10086 -0.71812 0.316873
v 0.0964717 -0.736157 0.316087
v 0.159018 -0.778883 0.283404
v 0.147687 -0.789042 0.28609
v 0.106361 -0.797866 0.301416
v -0.0960132 -0.876081 0.259433
v -0.0741385 -0.817378 0.302529
v -0.098109 -0.841845 0.279409
v -0.107475 -0.887048 0.248626
v 0.0992224 -0.790796 0.305804
v 0.0797709 -0.789042 0.312354
v 0.0620222 -0.789042 0.314973
v 0.0265903 -0.791937 0.316611
v 0.00884159 -0.784199 0.320999
v -0.00884161 -0.784672 0.321195
v -0.0265903 -0.793078 0.317266
v -0.0754483 -0.889804 -0.252416
v -0.0606468 -0.890583 -0.257852
v -0.0442735 -0.892754 -0.257066
v -0.0265903 -0.893868 -0.257066
v -0.203881 -0.896317 -0.115202
v -0.221629 -0.896067 -0.115202
v -0.223332 -0.891084 -0.13472
v 0.00884159 -0.889442 -0.268462
v 0.0265903 -0.877696 -0.275667
v 0.0442735 -0.864057 -0.280906
v -0.1507 -0.895287 0.203893
v -0.168383 -0.896067 0.186143
v -0.1507 -0.896317 0.186143
v -0.132951 -0.889025 0.233628
v -0.168383 -0.89139 0.204351
v 0.0916907 -0.835944 -0.285164
v 0.0442735 -0.831212 -0.300162
v 0.0791814 -0.823223 -0.296429
v 0.0847484 -0.813843 -0.30049
v 0.0975196 -0.810753 -0.298525
v 0.110094 -0.81941 -0.286736
v 0.132951 -0.801178 -0.286736
v 0.107802 -0.799091 -0.301931
v 0.145526 -0.789042 -0.285622
v 0.158428 -0.777574 -0.282937
v 0.154368 -0.789042 -0.280186
v 0.167401 -0.771534 -0.278221
v 0.160852 -0.765773 -0.284443
v 0.171396 -0.753581 -0.279597
v 0.162554 -0.753581 -0.285491
v 0.164716 -0.73585 -0.286801
v 0.1507 -0.71812 -0.296167
v 0.149128 -0.700779 -0.298459
v 0.118739 -0.611958 -0.299049
v 0.132951 -0.611958 -0.293154
v 0.148997 -0.611958 -0.286474
v 0.157642 -0.611958 -0.282806
v 0.149128 -0.683939 -0.297477
v 0.142186 -0.695128 -0.301538
v 0.102759 -0.700389 -0.31765
v 0.0939174 -0.700389 -0.321252
v 0.0924111 -0.682658 -0.320662
v 0.0975196 -0.611958 -0.307825
v 0.0795089 -0.611958 0.313402
v 0.0620222 -0.682658 0.326435
v 0.0620222 -0.611958 0.316349
v 0.0620222 -0.700389 0.327549
v 0.0620222 -0.71812 0.326042
v 0.0797709 -0.71812 0.323357
v 0.0898568 -0.730423 0.319624
v 0.123586 -0.760985 0.301219
v 0.152141 -0.772286 0.2874
v 0.0975196 -0.753581 0.313074
v 0.0975196 -0.771284 0.310258
v 0.109308 -0.786036 0.302595
v 0.115203 -0.790796 0.299189
v -0.116251 -0.859798 0.262118
v -0.114155 -0.877779 0.251967
v -0.0455179 -0.788597 0.317724
v -0.0620222 -0.789042 0.316152
v -0.0799019 -0.807469 0.305739
v -0.0859273 -0.813871 0.300433
v -0.126271 -0.816933 0.284452
v -0.098109 -0.825561 0.289234
v -0.116251 -0.843543 0.271943
v -0.119329 -0.883764 0.246334
v 0.0797709 -0.771284 0.315694
v 0.0633975 -0.772035 0.318248
v 0.0510193 -0.778437 0.318838
v 0.039165 -0.781527 0.319624
v 0.0265903 -0.783086 0.320344
v 0.00884159 -0.771284 0.324929
v -0.0265903 -0.784199 0.320672
v -0.00884161 -0.771284 0.325125
v -0.08894 -0.869123 -0.26617
v -0.0656243 -0.883931 -0.264271
v -0.05377 -0.886798 -0.266104
v -0.230406 -0.886547 -0.141794
v -0.0442735 -0.887883 -0.267021
v -0.0265903 -0.888997 -0.268004
v -0.221629 -0.896317 -0.0975185
v -0.239313 -0.896317 -0.0620198
v -0.239313 -0.895788 -0.0797692
v -0.239313 -0.894118 -0.0975185
v -0.239771 -0.890889 -0.114482
v -0.234073 -0.889498 -0.130004
v 0.00884159 -0.877696 -0.27606
v 0.019255 -0.833439 -0.301472
v 0.0311093 -0.833132 -0.301276
v -0.186787 -0.89178 0.186602
v -0.186132 -0.895426 0.168394
v -0.239313 -0.895983 -0.00883732
v -0.239313 -0.896317 -0.0265867
v -0.168383 -0.896317 0.168394
v -0.14199 -0.886714 0.230615
v -0.162423 -0.88844 0.214699
v -0.181286 -0.88947 0.198784
v 0.114875 -0.806523 -0.293089
v 0.0442735 -0.822333 -0.305336
v 0.0729596 -0.81646 -0.301865
v 0.0620222 -0.806773 -0.309332
v 0.0975196 -0.801902 -0.30324
v 0.118936 -0.789042 -0.29918
v 0.132951 -0.789042 -0.292303
v 0.0360868 -0.798228 -0.319287
v 0.0797709 -0.789042 -0.311886
v 0.0975196 -0.789042 -0.307105
v 0.0975196 -0.771284 -0.31038
v 0.110094 -0.789042 -0.302913
v 0.151748 -0.771534 -0.287522
v 0.1507 -0.753581 -0.290927
v 0.141597 -0.706958 -0.301276
v 0.131052 -0.71812 -0.304288
v 0.134589 -0.700779 -0.304485
v 0.0918871 -0.71812 -0.320466
v 0.0797709 -0.700389 -0.324854
v 0.0797709 -0.682658 -0.323675
v 0.0898568 -0.671023 -0.319614
v 0.0797709 -0.611958 -0.313327
v 0.0263283 -0.611958 0.321065
v 0.0265903 -0.682658 0.331085
v 0.0265903 -0.700389 0.332264
v 0.0265903 -0.71812 0.330692
v 0.0633975 -0.754917 0.320868
v 0.0701434 -0.761737 0.319034
v 0.0749244 -0.749935 0.31982
v 0.0867132 -0.742252 0.318772
v -0.1228 -0.850334 0.265459
v -0.0404094 -0.782418 0.319755
v -0.0265903 -0.771284 0.323422
v -0.0521982 -0.779272 0.319034
v -0.0633976 -0.772536 0.318445
v -0.0702089 -0.761737 0.319034
v -0.0797709 -0.771284 0.315694
v -0.0797709 -0.789042 0.312354
v -0.0942449 -0.802041 0.303381
v -0.115203 -0.806773 0.293556
v -0.138125 -0.813064 0.282226
v -0.127385 -0.871934 0.250067
v -0.133148 -0.877779 0.242601
v 0.0803603 -0.754917 0.318117
v 0.0583546 -0.766635 0.31982
v 0.0447974 -0.772035 0.320737
v 0.0265903 -0.771284 0.323095
v 0.00884159 -0.753581 0.328138
v -0.00884161 -0.753581 0.328138
v -0.125485 -0.817016 -0.284705
v -0.115203 -0.820523 -0.286736
v -0.104855 -0.832604 -0.283068
v -0.098371 -0.825812 -0.289224
v -0.0797709 -0.871517 -0.267545
v -0.0606468 -0.877891 -0.269445
v -0.0575687 -0.853285 -0.284967
v -0.0442735 -0.877696 -0.273309
v -0.249071 -0.887577 -0.108063
v -0.245927 -0.883124 -0.119918
v -0.240164 -0.878921 -0.134327
v -0.250839 -0.819577 -0.181615
v -0.245666 -0.813982 -0.193404
v -0.0265903 -0.877696 -0.275077
v -0.257061 -0.893868 -0.0265867
v -0.257061 -0.892754 -0.0442705
v -0.253328 -0.890917 -0.0797692
v -0.250774 -0.889247 -0.0975185
v -0.0265903 -0.842234 -0.295315
v -0.00884161 -0.832854 -0.301145
v 0.00962751 -0.840509 -0.29728
v 0.0160459 -0.833439 -0.301472
v 0.0257389 -0.826146 -0.305467
v 0.0265903 -0.807552 -0.315357
v -0.198183 -0.88908 0.180969
v -0.199951 -0.890555 0.168394
v -0.257061 -0.893116 -0.00883732
v -0.139239 -0.866395 0.24653
v -0.142645 -0.83419 0.266507
v -0.14533 -0.854565 0.250591
v -0.149914 -0.841455 0.256551
v -0.149063 -0.876054 0.233169
v -0.153844 -0.880869 0.226554
v -0.174278 -0.883541 0.210639
v -0.19314 -0.884014 0.192824
v 0.0428981 -0.805186 -0.314506
v 0.0265903 -0.798673 -0.319483
v 0.00884159 -0.789042 -0.321972
v 0.00884159 -0.771284 -0.325509
v 0.00884159 -0.753581 -0.328129
v 0.00884159 -0.71812 -0.332976
v 0.0265903 -0.71812 -0.330683
v 0.0620222 -0.71812 -0.325967
v 0.0700124 -0.761542 -0.319025
v 0.0632666 -0.772843 -0.318501
v 0.0797709 -0.771284 -0.31575
v 0.0865822 -0.74203 -0.318763
v 0.0897259 -0.730228 -0.319614
v 0.115203 -0.71812 -0.310838
v 0.0797709 -0.71812 -0.323282
v 0.0620222 -0.700389 -0.327539
v 0.0620222 -0.682658 -0.32636
v 0.0620222 -0.611958 -0.31634
v 0.00884159 -0.611958 0.323291
v 0.00884159 -0.682658 0.333378
v 0.00884159 -0.700389 0.334491
v 0.00884159 -0.71812 0.332985
v 0.0265903 -0.753581 0.325846
v 0.0442735 -0.753581 0.323553
v -0.00884161 -0.71812 0.332985
v -0.0265903 -0.71812 0.330692
v -0.0442735 -0.73585 0.325977
v -0.0633976 -0.754917 0.320868
v -0.0867132 -0.742252 0.318772
v -0.0803603 -0.754917 0.318117
v -0.0620222 -0.71812 0.326042
v -0.0797709 -0.71812 0.323357
v -0.0749244 -0.749962 0.31982
v -0.0975196 -0.771284 0.310323
v -0.0990914 -0.790573 0.305542
v -0.106099 -0.797504 0.301285
v -0.132493 -0.806996 0.287269
v -0.144609 -0.801262 0.285238
v -0.150569 -0.806996 0.278427
v -0.14939 -0.823251 0.269323
v -0.143299 -0.799286 -0.284705
v -0.132035 -0.805827 -0.287456
v -0.113631 -0.805103 -0.295774
v -0.233156 -0.800315 -0.214821
v -0.213705 -0.798812 -0.231195
v -0.0975196 -0.809807 -0.298459
v -0.0850104 -0.813593 -0.300293
v -0.0731561 -0.816766 -0.302062
v -0.0793779 -0.82339 -0.296298
v -0.0629391 -0.859492 -0.279728
v -0.0797709 -0.847774 -0.281692
v -0.0620222 -0.828401 -0.298459
v -0.0620222 -0.819549 -0.303699
v -0.0442735 -0.822583 -0.305467
v -0.264397 -0.8662 -0.101121
v -0.286992 -0.821164 -0.115202
v -0.284962 -0.817851 -0.126664
v -0.265641 -0.850641 -0.123389
v -0.266099 -0.886798 -0.0537674
v -0.259943 -0.876109 -0.0961431
v -0.249857 -0.871322 -0.126795
v -0.246255 -0.865894 -0.13865
v -0.262366 -0.827983 -0.153714
v -0.266296 -0.816153 -0.160132
v -0.256603 -0.805966 -0.185348
v -0.250512 -0.802153 -0.197989
v -0.267671 -0.888551 -0.00883732
v -0.267999 -0.888969 -0.0265867
v -0.267016 -0.887883 -0.0442705
v -0.0265903 -0.832464 -0.300883
v -0.00884161 -0.824003 -0.306188
v 0.00962751 -0.826146 -0.305402
v 0.00884159 -0.80758 -0.315292
v 0.00884159 -0.798729 -0.319483
v -0.214425 -0.871043 0.179266
v -0.26682 -0.887521 0.000856041
v -0.160459 -0.816515 0.266572
v -0.18456 -0.840648 0.2333
v -0.167008 -0.876304 0.22066
v -0.195301 -0.833661 0.23068
v -0.180041 -0.871739 0.214765
v -0.196938 -0.853647 0.214569
v -0.19183 -0.865449 0.209787
v -0.186591 -0.877863 0.204286
v -0.212526 -0.815346 0.230287
v -0.213181 -0.83394 0.213259
v -0.00884161 -0.789042 -0.321776
v -0.00884161 -0.771284 -0.325509
v -0.00884161 -0.753581 -0.328129
v -0.00884161 -0.71812 -0.332976
v -0.00884161 -0.700389 -0.334547
v 0.00884159 -0.700389 -0.334482
v 0.0265903 -0.700389 -0.33219
v 0.0802948 -0.736017 -0.320728
v 0.0442735 -0.682658 -0.328718
v 0.00884159 -0.682658 -0.333368
v 0.0379861 -0.611958 -0.319483
v -0.00903809 -0.611958 0.323291
v -0.00884161 -0.682658 0.333378
v -0.00884161 -0.700389 0.334557
v -0.0265903 -0.700389 0.332264
v -0.0898569 -0.730423 0.319624
v -0.0620222 -0.700389 0.327549
v -0.0797709 -0.700389 0.324929
v -0.0920182 -0.71812 0.320475
v -0.112911 -0.771284 0.304101
v -0.132951 -0.789042 0.293032
v -0.109701 -0.785674 0.302791
v -0.0975196 -0.753581 0.313074
v -0.115465 -0.790573 0.299385
v -0.148146 -0.789042 0.286614
v -0.159214 -0.7793 0.283535
v -0.156988 -0.789042 0.282095
v -0.177159 -0.797588 0.265852
v -0.164519 -0.806773 0.269388
v -0.155612 -0.789042 -0.28071
v -0.15869 -0.778103 -0.283133
v -0.146705 -0.789042 -0.286277
v -0.132951 -0.789042 -0.293154
v -0.194188 -0.796586 -0.247569
v -0.174671 -0.793774 -0.263943
v -0.106623 -0.798089 -0.301472
v -0.235907 -0.789042 -0.218031
v -0.225887 -0.789042 -0.226938
v -0.0975196 -0.800956 -0.302848
v -0.0793779 -0.807302 -0.305074
v -0.0620222 -0.806773 -0.31038
v -0.0442735 -0.806773 -0.313654
v -0.0265903 -0.823585 -0.305926
v -0.266165 -0.869151 -0.089266
v -0.289219 -0.825812 -0.0983699
v -0.302055 -0.816738 -0.0731541
v -0.300287 -0.813565 -0.0849433
v -0.298453 -0.809807 -0.0975185
v -0.295964 -0.805103 -0.11363
v -0.287778 -0.80655 -0.13269
v -0.281752 -0.812312 -0.138453
v -0.277561 -0.824058 -0.13269
v -0.265968 -0.833411 -0.141859
v -0.262759 -0.846354 -0.132952
v -0.284962 -0.853285 -0.0575661
v -0.26944 -0.877863 -0.0606444
v -0.273304 -0.877696 -0.0442705
v -0.253787 -0.859965 -0.132821
v -0.268523 -0.823029 -0.148933
v -0.277823 -0.80655 -0.150243
v -0.262694 -0.809779 -0.171922
v -0.285027 -0.800482 -0.14402
v -0.265968 -0.797949 -0.177358
v -0.261187 -0.789042 -0.187968
v -0.252346 -0.789042 -0.200347
v -0.244749 -0.789042 -0.209254
v -0.301466 -0.833411 0.0177539
v -0.274941 -0.877696 -0.00883732
v -0.275072 -0.877696 -0.0265867
v -0.0250185 -0.804992 -0.315619
v -0.00884161 -0.7982 -0.319287
v -0.234466 -0.820969 0.199701
v -0.251298 -0.8198 0.180969
v -0.230668 -0.851336 0.177498
v -0.192681 -0.812952 0.246596
v -0.180827 -0.819187 0.250657
v -0.186525 -0.824838 0.242863
v -0.199493 -0.824504 0.23389
v -0.204994 -0.808248 0.240243
v -0.216194 -0.803544 0.233824
v -0.233091 -0.802236 0.215813
v -0.239706 -0.807469 0.204286
v -0.229423 -0.814066 0.21149
v -0.216717 -0.824504 0.217385
v -0.0180107 -0.797922 -0.319156
v -0.029865 -0.796947 -0.318959
v -0.0265903 -0.771284 -0.32361
v -0.0458453 -0.790239 -0.318632
v -0.0265903 -0.71812 -0.330683
v -0.0620222 -0.700389 -0.327539
v -0.0265903 -0.682658 -0.331076
v -0.00884161 -0.682658 -0.333368
v 0.00903807 -0.611958 -0.323217
v -0.0267868 -0.611958 0.320999
v -0.0265903 -0.682658 0.331085
v -0.0620222 -0.682658 0.326435
v -0.10086 -0.71812 0.316873
v -0.0964717 -0.736157 0.316087
v -0.0797709 -0.682658 0.32375
v -0.0924766 -0.682658 0.320672
v -0.093983 -0.700389 0.321326
v -0.141662 -0.707654 0.30135
v -0.123586 -0.760985 0.301219
v -0.121752 -0.771284 0.300433
v -0.132951 -0.771284 0.295783
v -0.152272 -0.772536 0.287531
v -0.1507 -0.753581 0.291067
v -0.1507 -0.71812 0.296242
v -0.160852 -0.767471 0.284452
v -0.167466 -0.772536 0.279082
v -0.181613 -0.771284 0.269257
v -0.179517 -0.785758 0.26762
v -0.170086 -0.790601 0.272794
v -0.199886 -0.789042 0.251836
v -0.197528 -0.80115 0.249936
v -0.173426 -0.806773 0.263297
v -0.16858 -0.788319 -0.271213
v -0.178404 -0.781945 -0.266825
v -0.180762 -0.771284 -0.268593
v -0.167401 -0.771841 -0.278418
v -0.160852 -0.766301 -0.284443
v -0.151945 -0.771841 -0.287522
v -0.1507 -0.753581 -0.290927
v -0.132951 -0.771284 -0.295839
v -0.118085 -0.789042 -0.299376
v -0.109177 -0.789042 -0.30252
v -0.0975196 -0.789042 -0.306581
v -0.0797709 -0.789042 -0.311951
v -0.229292 -0.77724 -0.229558
v -0.0620222 -0.789042 -0.316209
v -0.298453 -0.828373 -0.0620198
v -0.296292 -0.82339 -0.0793107
v -0.303693 -0.819521 -0.0620198
v -0.310307 -0.806773 -0.0620198
v -0.305068 -0.807302 -0.0793107
v -0.302841 -0.800956 -0.0975185
v -0.301466 -0.798116 -0.106688
v -0.293934 -0.842234 -0.0442705
v -0.305395 -0.822528 -0.0442705
v -0.29341 -0.789042 -0.132952
v -0.286533 -0.789042 -0.147426
v -0.281752 -0.789042 -0.156334
v -0.283324 -0.778577 -0.158953
v -0.267278 -0.789042 -0.179061
v -0.279067 -0.772119 -0.167402
v -0.269309 -0.771284 -0.18168
v -0.26014 -0.71812 -0.205193
v -0.244421 -0.71812 -0.225563
v -0.242522 -0.75372 -0.220257
v -0.232567 -0.753581 -0.232571
v -0.231322 -0.765411 -0.231326
v -0.282604 -0.71812 -0.175786
v -0.274745 -0.71812 -0.186134
v -0.301662 -0.798283 0.0893407
v -0.303365 -0.800427 0.0797784
v -0.319215 -0.798144 0.0358962
v -0.319476 -0.798618 0.0265959
v -0.315285 -0.807552 0.00884652
v -0.305395 -0.826146 0.00982895
v -0.301466 -0.833411 0.0163785
v -0.28208 -0.866117 -0.00883732
v -0.295309 -0.842234 -0.0265867
v -0.24632 -0.812674 0.192758
v -0.256537 -0.805966 0.185488
v -0.266623 -0.799258 0.178153
v -0.269047 -0.802097 0.168394
v -0.28542 -0.800343 0.1289
v -0.208793 -0.789042 0.24522
v -0.219337 -0.789042 0.236379
v -0.228179 -0.789042 0.227864
v -0.249923 -0.800872 0.197016
v -0.0632666 -0.772843 -0.318501
v -0.0528531 -0.779801 -0.31909
v -0.0620222 -0.71812 -0.325967
v -0.0797709 -0.700389 -0.324854
v -0.0620222 -0.682658 -0.32636
v -0.0620222 -0.611958 -0.31634
v -0.0379862 -0.611958 -0.319483
v -0.0263283 -0.611958 -0.32099
v -0.00884161 -0.611958 -0.323217
v -0.0382481 -0.611958 0.319493
v -0.0620222 -0.611958 0.316349
v -0.0899224 -0.67094 0.319624
v -0.0797709 -0.611958 0.313336
v -0.0975196 -0.611958 0.307834
v -0.101384 -0.682658 0.317069
v -0.142252 -0.690535 0.301612
v -0.10289 -0.700389 0.317659
v -0.142252 -0.695824 0.301612
v -0.149194 -0.701196 0.298469
v -0.166943 -0.71812 0.28812
v -0.16262 -0.753581 0.2855
v -0.175784 -0.71812 0.282619
v -0.171462 -0.753581 0.279606
v -0.186132 -0.71812 0.274825
v -0.183578 -0.753581 0.270764
v -0.202047 -0.771284 0.253604
v -0.183512 -0.753581 -0.270689
v -0.201196 -0.771284 -0.25294
v -0.212133 -0.759621 -0.2477
v -0.171396 -0.753581 -0.279597
v -0.162554 -0.753581 -0.285491
v -0.1507 -0.71812 -0.296167
v -0.121818 -0.771284 -0.30049
v -0.112976 -0.771284 -0.304157
v -0.0975196 -0.771284 -0.310314
v -0.0797709 -0.771284 -0.315685
v -0.222677 -0.771312 -0.236435
v -0.0700124 -0.761542 -0.319025
v -0.313648 -0.806773 -0.0442705
v -0.316202 -0.789042 -0.0620198
v -0.311945 -0.789042 -0.0797692
v -0.302579 -0.789042 -0.109242
v -0.29937 -0.789042 -0.118084
v -0.30664 -0.789042 -0.0975185
v -0.300876 -0.832437 -0.0265867
v -0.305919 -0.823557 -0.0265867
v -0.304151 -0.771284 -0.113041
v -0.316857 -0.71812 -0.100793
v -0.310897 -0.71812 -0.115202
v -0.296161 -0.71812 -0.150701
v -0.293607 -0.73585 -0.150701
v -0.290987 -0.753581 -0.150701
v -0.287581 -0.772119 -0.152076
v -0.284438 -0.766747 -0.160853
v -0.279591 -0.753581 -0.171463
v -0.283455 -0.705121 -0.176965
v -0.245404 -0.700389 -0.226873
v -0.23558 -0.71812 -0.235583
v -0.225559 -0.71812 -0.244425
v -0.223594 -0.73585 -0.242919
v -0.220254 -0.753692 -0.24246
v -0.285485 -0.753581 -0.162621
v -0.286795 -0.73585 -0.164783
v -0.288105 -0.71812 -0.166878
v -0.303824 -0.788152 0.0961523
v -0.309391 -0.789042 0.0797784
v -0.283259 -0.79678 0.140755
v -0.330676 -0.71812 0.0265959
v -0.332968 -0.71812 0.00884652
v -0.328122 -0.753581 0.00884652
v -0.325502 -0.771284 0.00884652
v -0.31463 -0.789042 0.062029
v -0.315285 -0.771284 0.0797784
v -0.318494 -0.77287 0.0633389
v -0.319018 -0.761653 0.070085
v -0.326026 -0.71812 0.062029
v -0.321965 -0.789042 0.00884652
v -0.319476 -0.798673 0.00884652
v -0.319149 -0.797894 -0.0175482
v -0.314695 -0.806773 -0.0265867
v -0.306181 -0.823975 -0.00883732
v -0.235711 -0.789042 0.219022
v -0.244618 -0.789042 0.208412
v -0.251822 -0.789042 0.19957
v -0.260663 -0.789042 0.188501
v -0.267737 -0.789042 0.179594
v -0.284438 -0.765856 0.160862
v -0.283062 -0.777686 0.158046
v -0.281621 -0.790128 0.151562
v -0.210889 -0.771284 0.246792
v -0.231388 -0.766274 0.231401
v -0.229882 -0.778103 0.229895
v -0.0797709 -0.71812 -0.323282
v -0.0939175 -0.700389 -0.321252
v -0.0924111 -0.682658 -0.320662
v -0.0797709 -0.682658 -0.323675
v -0.0918872 -0.71812 -0.320466
v -0.0795089 -0.611958 -0.313392
v -0.118739 -0.611958 0.299058
v -0.132951 -0.611958 0.293163
v -0.148997 -0.611958 0.286483
v -0.157642 -0.611958 0.282815
v -0.149194 -0.683855 0.297486
v -0.169169 -0.684133 0.287465
v -0.177421 -0.691009 0.283797
v -0.170021 -0.699971 0.287989
v -0.177029 -0.705594 0.28347
v -0.216783 -0.71812 0.251312
v -0.205322 -0.753776 0.254062
v -0.214818 -0.73585 0.249805
v -0.213443 -0.747819 -0.248748
v -0.187245 -0.734653 -0.271082
v -0.186132 -0.71812 -0.27475
v -0.175719 -0.71812 -0.282609
v -0.164716 -0.73585 -0.286801
v -0.166877 -0.71812 -0.288045
v -0.149128 -0.700779 -0.298459
v -0.141597 -0.706958 -0.301276
v -0.131052 -0.71812 -0.304288
v -0.115203 -0.71812 -0.310838
v -0.0897259 -0.730228 -0.319614
v -0.0975196 -0.753581 -0.312999
v -0.0865822 -0.74203 -0.318763
v -0.0802948 -0.736017 -0.320728
v -0.318625 -0.790184 -0.0459079
v -0.319018 -0.797114 -0.0265867
v -0.31856 -0.77287 -0.0633297
v -0.315743 -0.771284 -0.0797692
v -0.310373 -0.771284 -0.0975185
v -0.313058 -0.753581 -0.0975185
v -0.319607 -0.730339 -0.08979
v -0.301335 -0.707264 -0.141597
v -0.320459 -0.71812 -0.0919514
v -0.298453 -0.700973 -0.149129
v -0.287909 -0.699693 -0.170022
v -0.283783 -0.693319 -0.177423
v -0.267933 -0.700389 -0.197596
v -0.283783 -0.69112 -0.177423
v -0.244683 -0.682658 -0.22589
v -0.235842 -0.682658 -0.235845
v -0.236562 -0.700389 -0.236566
v -0.226803 -0.700389 -0.245408
v -0.176963 -0.704982 -0.283461
v -0.205191 -0.71812 -0.260144
v -0.302055 -0.781638 0.107942
v -0.309391 -0.771284 0.0974622
v -0.332248 -0.700389 0.0265959
v -0.33454 -0.700389 0.00884652
v -0.332968 -0.71812 -0.00883732
v -0.328122 -0.753581 -0.00883732
v -0.325502 -0.771284 -0.00883732
v -0.313058 -0.753581 0.0974622
v -0.318756 -0.742169 0.0866554
v -0.318101 -0.754861 0.0803678
v -0.323341 -0.71812 0.0797784
v -0.324912 -0.700389 0.0797784
v -0.327532 -0.700389 0.062029
v -0.321179 -0.790796 -0.0105402
v -0.236955 -0.771841 0.223017
v -0.246713 -0.771284 0.210901
v -0.270749 -0.753581 0.183524
v -0.282604 -0.71812 0.175795
v -0.279591 -0.753581 0.171472
v -0.25359 -0.771284 0.201993
v -0.262432 -0.771284 0.190466
v -0.263938 -0.753581 0.192431
v -0.285485 -0.753581 0.16263
v -0.290987 -0.753581 0.15071
v -0.301204 -0.760902 0.123529
v -0.287123 -0.77159 0.151562
v -0.22366 -0.73585 0.242994
v -0.220254 -0.753776 0.242535
v -0.232567 -0.753581 0.23258
v -0.244487 -0.71812 0.225637
v -0.24298 -0.73585 0.223672
v -0.242522 -0.753748 0.220267
v -0.225625 -0.71812 0.2445
v -0.102759 -0.700389 -0.31765
v -0.142186 -0.690675 -0.301538
v -0.0975196 -0.611958 -0.307825
v -0.0898569 -0.671023 -0.319614
v -0.0797709 -0.611958 -0.313327
v -0.157773 -0.611958 0.28275
v -0.177421 -0.693792 0.283797
v -0.168383 -0.611958 0.275741
v -0.16858 -0.611958 0.27561
v -0.179714 -0.611958 0.26762
v -0.18849 -0.611958 0.260939
v -0.208924 -0.611958 0.245286
v -0.225952 -0.682658 0.244762
v -0.226869 -0.700389 0.245482
v -0.184429 -0.699971 0.278099
v -0.218027 -0.700389 0.252294
v -0.170021 -0.69961 -0.287914
v -0.142186 -0.695128 -0.301538
v -0.134589 -0.700779 -0.304485
v -0.320786 -0.788263 -0.0265867
v -0.323603 -0.771284 -0.0265867
v -0.330676 -0.71812 -0.0265867
v -0.319084 -0.779829 -0.0528504
v -0.326026 -0.71812 -0.0620198
v -0.323341 -0.71812 -0.0797692
v -0.319018 -0.761653 -0.0700758
v -0.318101 -0.754861 -0.0803586
v -0.318756 -0.742169 -0.0866462
v -0.301597 -0.695434 -0.142187
v -0.32131 -0.700389 -0.0939817
v -0.324912 -0.700389 -0.0797692
v -0.301597 -0.690619 -0.142187
v -0.28745 -0.684189 -0.169171
v -0.282735 -0.611958 -0.157775
v -0.275727 -0.611958 -0.168385
v -0.275596 -0.611958 -0.168581
v -0.267606 -0.611958 -0.179716
v -0.260925 -0.611958 -0.188427
v -0.252018 -0.611958 -0.200019
v -0.236365 -0.611958 -0.220388
v -0.229227 -0.611958 -0.22923
v -0.225887 -0.682658 -0.244687
v -0.177356 -0.691148 -0.283723
v -0.177356 -0.69318 -0.283723
v -0.217962 -0.700389 -0.252219
v -0.197593 -0.700389 -0.267873
v -0.184429 -0.69961 -0.278025
v -0.326419 -0.682658 0.062029
v -0.331069 -0.682658 0.0265959
v -0.333361 -0.682658 0.00884652
v -0.33454 -0.700389 -0.00883732
v -0.319607 -0.730339 0.0897992
v -0.305002 -0.754416 0.116652
v -0.303038 -0.73585 0.127983
v -0.316857 -0.71812 0.100802
v -0.320459 -0.71812 0.0919606
v -0.32131 -0.700389 0.0939909
v -0.320655 -0.682658 0.0924845
v -0.323734 -0.682658 0.0797784
v -0.247761 -0.759732 0.212145
v -0.265117 -0.739831 0.193937
v -0.274745 -0.71812 0.186143
v -0.283455 -0.705176 0.176974
v -0.288105 -0.71812 0.166888
v -0.259616 -0.734681 0.202255
v -0.296161 -0.71812 0.15071
v -0.293607 -0.73585 0.15071
v -0.23558 -0.71812 0.235593
v -0.245469 -0.700389 0.226882
v -0.169169 -0.684217 -0.287391
v -0.149128 -0.683939 -0.297477
v -0.157642 -0.611958 -0.282806
v -0.148604 -0.611958 -0.28667
v -0.118412 -0.611958 -0.29918
v -0.220582 -0.611958 0.236248
v -0.229227 -0.611958 0.22924
v -0.235842 -0.682658 0.235855
v -0.236562 -0.700389 0.236575
v -0.332248 -0.700389 -0.0265867
v -0.327532 -0.700389 -0.0620198
v -0.319804 -0.749851 -0.074857
v -0.320655 -0.682658 -0.0924753
v -0.326419 -0.682658 -0.0620198
v -0.323734 -0.682658 -0.0797692
v -0.317053 -0.682658 -0.101317
v -0.307819 -0.611958 -0.0975185
v -0.299043 -0.611958 -0.118739
v -0.293148 -0.611958 -0.132952
v -0.286533 -0.611958 -0.148802
v -0.2828 -0.611958 -0.157644
v -0.297471 -0.683911 -0.149129
v -0.220385 -0.611958 -0.236369
v -0.208727 -0.611958 -0.245342
v -0.188359 -0.611958 -0.260996
v -0.179583 -0.611958 -0.267676
v -0.168252 -0.611958 -0.275863
v -0.316333 -0.611958 0.062029
v -0.321048 -0.611958 0.0263339
v -0.323275 -0.611958 0.00884652
v -0.333361 -0.682658 -0.00883732
v -0.310897 -0.71812 0.115212
v -0.301335 -0.707264 0.141606
v -0.301597 -0.690619 0.142196
v -0.301597 -0.695434 0.142196
v -0.307819 -0.611958 0.0974622
v -0.307884 -0.611958 0.0972657
v -0.319607 -0.670968 0.0898647
v -0.317053 -0.682658 0.101326
v -0.313386 -0.611958 0.0795164
v -0.283783 -0.693375 0.177367
v -0.287909 -0.699721 0.170031
v -0.25228 -0.700389 0.21804
v -0.267933 -0.700389 0.197605
v -0.298453 -0.700973 0.149138
v -0.244749 -0.682658 0.225965
v -0.283783 -0.691092 0.177367
v -0.236496 -0.611958 0.220267
v -0.331069 -0.682658 -0.0265867
v -0.319607 -0.670968 -0.0898555
v -0.316333 -0.611958 -0.0620198
v -0.320983 -0.611958 -0.0267831
v -0.31332 -0.611958 -0.0797692
v -0.323275 -0.611958 -0.00903381
v -0.28745 -0.684189 0.16918
v -0.297471 -0.683883 0.149138
v -0.282866 -0.611958 0.157718
v -0.286599 -0.611958 0.148876
v -0.299174 -0.611958 0.118486
v -0.31332 -0.611958 0.0797784
v -0.245338 -0.611958 0.208805
v -0.252084 -0.611958 0.200028
v -0.267868 -0.611958 0.179463
v -0.275792 -0.611958 0.168394
f 1 2 7
f 1 7 3
f 1 3 9
f 1 9 4
f 1 4 15
f 1 15 5
f 1 5 8
f 1 8 2
f 2 6 17
f 2 17 7
f 2 8 18
f 2 18 6
f 3 7 10
f 3 10 11
f 3 11 12
f 3 12 9
f 4 9 13
f 4 13 14
f 4 14 30
f 4 30 15
f 5 15 32
f 5 32 16
f 5 16 19
f 5 19 8
f 6 18 20
f 6 20 36
f 6 36 60
f 6 60 92
f 6 92 133
f 6 133 188
f 6 188 187
f 6 187 186
f 6 186 245
f 6 245 244
f 6 244 250
f 6 250 249
f 6 249 248
f 6 248 314
f 6 314 378
f 6 378 448
f 6 448 512
f 6 512 511
f 6 511 510
f 6 510 509
f 6 509 573
f 6 573 572
f 6 572 571
f 6 571 570
f 6 570 579
f 6 579 655
f 6 655 735
f 6 735 814
f 6 814 896
f 6 896 983
f 6 983 982
f 6 982 981
f 6 981 980
f 6 980 1072
f 6 1072 1156
f 6 1156 1154
f 6 1154 1225
f 6 1225 1224
f 6 1224 1223
f 6 1223 1247
f 6 1247 1246
f 6 1246 1245
f 6 1245 1244
f 6 1244 1243
f 6 1243 1192
f 6 1192 1191
f 6 1191 1190
f 6 1190 1189
f 6 1189 1188
f 6 1188 1187
f 6 1187 1186
f 6 1186 1185
f 6 1185 1241
f 6 1241 1240
f 6 1240 1239
f 6 1239 1238
f 6 1238 1237
f 6 1237 1273
f 6 1273 1271
f 6 1271 1272
f 6 1272 1274
f 6 1274 1250
f 6 1250 1249
f 6 1249 1248
f 6 1248 1260
f 6 1260 1280
f 6 1280 1257
f 6 1257 1256
f 6 1256 1279
f 6 1279 1278
f 6 1278 1277
f 6 1277 1284
f 6 1284 1283
f 6 1283 1282
f 6 1282 1281
f 6 1281 1268
f 6 1268 1227
f 6 1227 1226
f 6 1226 1163
f 6 1163 1162
f 6 1162 1161
f 6 1161 1160
f 6 1160 1159
f 6 1159 1157
f 6 1157 1076
f 6 1076 1075
f 6 1075 1074
f 6 1074 1073
f 6 1073 988
f 6 988 987
f 6 987 985
f 6 985 984
f 6 984 897
f 6 897 815
f 6 815 736
f 6 736 656
f 6 656 582
f 6 582 580
f 6 580 515
f 6 515 455
f 6 455 454
f 6 454 453
f 6 453 449
f 6 449 382
f 6 382 381
f 6 381 380
f 6 380 379
f 6 379 315
f 6 315 251
f 6 251 192
f 6 192 191
f 6 191 140
f 6 140 139
f 6 139 138
f 6 138 137
f 6 137 135
f 6 135 95
f 6 95 94
f 6 94 93
f 6 93 62
f 6 62 61
f 6 61 37
f 6 37 21
f 6 21 17
f 7 17 10
f 8 19 20
f 8 20 18
f 9 12 13
f 10 21 22
f 10 22 23
f 10 23 11
f 10 17 21
f 11 23 12
f 12 24 25
f 12 25 26
f 12 26 13
f 12 23 27
f 12 27 24
f 13 28 14
f 13 26 28
f 14 28 29
f 14 29 50
f 14 50 30
f 15 30 31
f 15 31 32
f 16 32 33
f 16 33 34
f 16 34 35
f 16 35 19
f 19 35 20
f 20 35 36
f 21 37 22
f 22 37 38
f 22 38 39
f 22 39 23
f 23 39 40
f 23 40 41
f 23 41 27
f 24 42 26
f 24 26 25
f 24 27 43
f 24 43 44
f 24 44 45
f 24 45 42
f 26 42 45
f 26 45 46
f 26 46 47
f 26 47 28
f 27 41 48
f 27 48 43
f 28 47 29
f 29 47 49
f 29 49 50
f 30 50 51
f 30 51 31
f 31 52 53
f 31 53 54
f 31 54 55
f 31 55 33
f 31 33 32
f 31 51 56
f 31 56 52
f 33 55 54
f 33 54 57
f 33 57 58
f 33 58 34
f 34 58 35
f 35 58 59
f 35 59 36
f 36 59 60
f 37 61 38
f 38 61 39
f 39 61 62
f 39 62 63
f 39 63 64
f 39 64 40
f 40 64 65
f 40 65 66
f 40 66 41
f 41 66 67
f 41 67 48
f 43 45 44
f 43 48 68
f 43 68 45
f 45 69 70
f 45 70 46
f 45 68 71
f 45 71 72
f 45 72 69
f 46 70 69
f 46 69 73
f 46 73 47
f 47 74 49
f 47 73 75
f 47 75 76
f 47 76 74
f 48 67 68
f 49 74 77
f 49 77 50
f 50 77 78
f 50 78 56
f 50 56 51
f 52 56 79
f 52 79 80
f 52 80 81
f 52 81 82
f 52 82 83
f 52 83 54
f 52 54 53
f 54 83 84
f 54 84 85
f 54 85 86
f 54 86 57
f 56 78 79
f 57 86 85
f 57 85 87
f 57 87 88
f 57 88 58
f 58 88 89
f 58 89 90
f 58 90 59
f 59 90 91
f 59 91 60
f 60 91 92
f 62 93 64
f 62 64 63
f 64 93 94
f 64 94 95
f 64 95 96
f 64 96 97
f 64 97 98
f 64 98 99
f 64 99 100
f 64 100 65
f 65 100 66
f 66 100 101
f 66 101 102
f 66 102 67
f 67 102 103
f 67 103 68
f 68 103 104
f 68 104 105
f 68 105 71
f 69 72 73
f 71 105 106
f 71 106 107
f 71 107 72
f 72 107 108
f 72 108 109
f 72 109 73
f 73 109 75
f 74 76 110
f 74 110 111
f 74 111 112
f 74 112 113
f 74 113 77
f 75 109 76
f 76 114 115
f 76 115 116
f 76 116 110
f 76 109 117
f 76 117 114
f 77 118 80
f 77 80 78
f 77 113 118
f 78 80 79
f 80 118 119
f 80 119 81
f 81 120 121
f 81 121 122
f 81 122 82
f 81 119 123
f 81 123 120
f 82 122 124
f 82 124 125
f 82 125 126
f 82 126 127
f 82 127 83
f 83 127 85
f 83 85 84
f 85 127 87
f 87 127 128
f 87 128 129
f 87 129 88
f 88 129 130
f 88 130 89
f 89 130 131
f 89 131 132
f 89 132 90
f 90 133 91
f 90 132 134
f 90 134 133
f 91 133 92
f 95 135 98
f 95 98 97
f 95 97 96
f 98 136 99
f 98 135 137
f 98 137 138
f 98 138 139
f 98 139 140
f 98 140 141
f 98 141 142
f 98 142 136
f 99 136 143
f 99 143 144
f 99 144 100
f 100 144 101
f 101 144 145
f 101 145 146
f 101 146 147
f 101 147 102
f 102 147 103
f 103 105 104
f 103 147 105
f 105 147 148
f 105 148 106
f 106 148 146
f 106 146 149
f 106 149 107
f 107 149 108
f 108 149 150
f 108 150 151
f 108 151 109
f 109 151 152
f 109 152 153
f 109 153 154
f 109 154 155
f 109 155 117
f 110 116 156
f 110 156 123
f 110 123 111
f 111 123 157
f 111 157 112
f 112 157 123
f 112 123 119
f 112 119 113
f 113 119 118
f 114 158 115
f 114 117 159
f 114 159 158
f 115 158 160
f 115 160 161
f 115 161 116
f 116 161 162
f 116 162 156
f 117 155 159
f 120 123 163
f 120 163 121
f 121 163 164
f 121 164 165
f 121 165 166
f 121 166 167
f 121 167 168
f 121 168 169
f 121 169 122
f 122 169 124
f 123 156 170
f 123 170 163
f 124 169 171
f 124 171 172
f 124 172 125
f 125 172 173
f 125 173 174
f 125 174 175
f 125 175 126
f 126 175 127
f 127 175 174
f 127 174 176
f 127 176 128
f 128 176 177
f 128 177 178
f 128 178 179
f 128 179 129
f 129 179 130
f 130 179 180
f 130 180 181
f 130 181 131
f 131 181 132
f 132 181 182
f 132 182 183
f 132 183 184
f 132 184 185
f 132 185 186
f 132 186 187
f 132 187 188
f 132 188 133
f 132 133 134
f 136 142 189
f 136 189 190
f 136 190 143
f 140 191 141
f 141 191 192
f 141 192 193
f 141 193 142
f 142 194 143
f 142 143 189
f 142 193 195
f 142 195 196
f 142 196 194
f 143 197 198
f 143 198 144
f 143 190 189
f 143 194 199
f 143 199 197
f 144 198 145
f 145 198 200
f 145 200 146
f 146 148 147
f 146 200 201
f 146 201 149
f 149 201 202
f 149 202 150
f 150 202 203
f 150 203 204
f 150 204 205
f 150 205 206
f 150 206 207
f 150 207 151
f 151 207 152
f 152 207 206
f 152 206 208
f 152 208 153
f 153 209 210
f 153 210 154
f 153 208 211
f 153 211 209
f 154 210 155
f 155 210 209
f 155 209 212
f 155 212 213
f 155 213 159
f 156 162 170
f 158 214 215
f 158 215 216
f 158 216 160
f 158 159 217
f 158 217 218
f 158 218 214
f 159 213 219
f 159 219 217
f 160 216 220
f 160 220 221
f 160 221 161
f 161 221 163
f 161 163 162
f 162 163 170
f 163 221 220
f 163 220 222
f 163 222 223
f 163 223 224
f 163 224 225
f 163 225 164
f 164 224 226
f 164 226 165
f 164 225 224
f 165 226 227
f 165 227 228
f 165 228 166
f 166 228 167
f 167 228 168
f 168 228 229
f 168 229 169
f 169 229 172
f 169 172 171
f 172 229 173
f 173 230 174
f 173 229 231
f 173 231 232
f 173 232 233
f 173 233 234
f 173 234 230
f 174 230 234
f 174 234 235
f 174 235 236
f 174 236 177
f 174 177 176
f 177 236 237
f 177 237 178
f 178 237 179
f 179 237 180
f 180 237 234
f 180 234 238
f 180 238 239
f 180 239 240
f 180 240 241
f 180 241 181
f 181 241 182
f 182 241 242
f 182 242 243
f 182 243 183
f 183 244 245
f 183 245 186
f 183 186 184
f 183 243 246
f 183 246 247
f 183 247 248
f 183 248 249
f 183 249 250
f 183 250 244
f 184 186 185
f 192 251 252
f 192 252 193
f 193 252 253
f 193 253 195
f 194 196 254
f 194 254 255
f 194 255 256
f 194 256 257
f 194 257 199
f 195 253 196
f 196 253 258
f 196 258 254
f 197 259 198
f 197 199 259
f 198 259 200
f 199 257 260
f 199 260 259
f 200 259 261
f 200 261 201
f 201 261 202
f 202 261 262
f 202 262 203
f 203 262 263
f 203 263 204
f 204 263 264
f 204 264 205
f 205 264 265
f 205 265 266
f 205 266 206
f 206 266 208
f 208 267 268
f 208 268 269
f 208 269 211
f 208 266 270
f 208 270 271
f 208 271 267
f 209 272 212
f 209 211 272
f 211 269 273
f 211 273 272
f 212 272 273
f 212 273 267
f 212 267 213
f 213 267 274
f 213 274 275
f 213 275 276
f 213 276 277
f 213 277 278
f 213 278 279
f 213 279 219
f 214 218 280
f 214 280 281
f 214 281 287
f 214 287 351
f 214 351 423
f 214 423 484
f 214 484 549
f 214 549 630
f 214 630 629
f 214 629 618
f 214 618 617
f 214 617 541
f 214 541 478
f 214 478 420
f 214 420 346
f 214 346 282
f 214 282 215
f 215 282 283
f 215 283 216
f 216 284 220
f 216 283 284
f 217 219 285
f 217 285 218
f 218 285 286
f 218 286 351
f 218 351 287
f 218 287 281
f 218 281 280
f 219 279 285
f 220 284 288
f 220 288 222
f 222 288 223
f 223 288 289
f 223 289 290
f 223 290 291
f 223 291 292
f 223 292 226
f 223 226 293
f 223 293 224
f 224 293 226
f 226 292 227
f 227 292 228
f 228 291 290
f 228 290 229
f 228 292 291
f 229 290 294
f 229 294 295
f 229 295 296
f 229 296 231
f 231 296 297
f 231 297 298
f 231 298 232
f 232 299 300
f 232 300 301
f 232 301 233
f 232 298 302
f 232 302 299
f 233 301 234
f 234 303 238
f 234 237 235
f 234 301 300
f 234 300 303
f 235 237 304
f 235 304 236
f 236 304 237
f 238 303 305
f 238 305 306
f 238 306 239
f 239 306 240
f 240 306 241
f 241 306 242
f 242 306 307
f 242 307 308
f 242 308 309
f 242 309 246
f 242 246 310
f 242 310 243
f 243 310 246
f 246 309 311
f 246 311 312
f 246 312 313
f 246 313 247
f 247 313 314
f 247 314 248
f 251 315 252
f 252 315 316
f 252 316 253
f 253 316 317
f 253 317 318
f 253 318 319
f 253 319 258
f 254 258 255
f 255 264 320
f 255 320 321
f 255 321 322
f 255 322 256
f 255 258 323
f 255 323 324
f 255 324 325
f 255 325 326
f 255 326 264
f 256 322 321
f 256 321 257
f 257 321 260
f 258 319 327
f 258 327 390
f 258 390 323
f 259 260 321
f 259 321 261
f 261 321 262
f 262 321 263
f 263 321 320
f 263 320 264
f 264 326 328
f 264 328 329
f 264 329 330
f 264 330 265
f 265 330 331
f 265 331 266
f 266 331 270
f 267 273 268
f 267 271 332
f 267 332 274
f 268 273 269
f 270 331 332
f 270 332 271
f 274 332 333
f 274 333 334
f 274 334 275
f 275 334 276
f 276 334 335
f 276 335 336
f 276 336 277
f 277 337 338
f 277 338 278
f 277 336 339
f 277 339 340
f 277 340 341
f 277 341 342
f 277 342 343
f 277 343 344
f 277 344 337
f 278 338 279
f 279 338 345
f 279 345 285
f 282 346 347
f 282 347 283
f 283 347 348
f 283 348 284
f 284 348 288
f 285 345 349
f 285 349 286
f 286 349 350
f 286 350 351
f 288 348 289
f 289 348 352
f 289 352 353
f 289 353 290
f 290 353 354
f 290 354 294
f 294 354 295
f 295 354 355
f 295 355 353
f 295 353 356
f 295 356 297
f 295 297 296
f 297 356 357
f 297 357 358
f 297 358 359
f 297 359 360
f 297 360 361
f 297 361 298
f 298 361 362
f 298 362 302
f 299 302 363
f 299 363 300
f 300 363 364
f 300 364 303
f 302 361 365
f 302 365 366
f 302 366 367
f 302 367 368
f 302 368 363
f 302 362 361
f 303 364 305
f 305 364 306
f 306 364 369
f 306 369 307
f 307 369 370
f 307 370 308
f 308 370 371
f 308 371 372
f 308 372 309
f 309 372 373
f 309 373 374
f 309 374 311
f 311 374 375
f 311 375 376
f 311 376 312
f 312 376 313
f 313 376 377
f 313 377 314
f 314 377 378
f 315 379 316
f 316 380 381
f 316 381 382
f 316 382 383
f 316 383 384
f 316 384 385
f 316 385 317
f 316 379 380
f 317 385 319
f 317 319 386
f 317 386 318
f 318 386 319
f 319 385 387
f 319 387 388
f 319 388 389
f 319 389 327
f 323 390 391
f 323 391 325
f 323 325 324
f 325 328 326
f 325 391 392
f 325 392 393
f 325 393 328
f 327 391 390
f 327 389 391
f 328 393 394
f 328 394 329
f 329 394 395
f 329 395 330
f 330 395 396
f 330 396 331
f 331 396 332
f 332 396 397
f 332 397 340
f 332 340 398
f 332 398 333
f 333 399 334
f 333 398 400
f 333 400 399
f 334 399 401
f 334 401 335
f 335 401 400
f 335 400 402
f 335 402 403
f 335 403 339
f 335 339 336
f 337 404 338
f 337 344 405
f 337 405 404
f 338 404 345
f 339 403 340
f 340 403 402
f 340 402 398
f 340 397 406
f 340 406 407
f 340 407 408
f 340 408 409
f 340 409 341
f 341 409 410
f 341 410 411
f 341 411 343
f 341 343 342
f 343 411 412
f 343 412 413
f 343 413 414
f 343 414 415
f 343 415 344
f 344 416 417
f 344 417 405
f 344 415 418
f 344 418 419
f 344 419 416
f 345 404 349
f 346 420 347
f 347 420 348
f 348 420 421
f 348 421 422
f 348 422 352
f 349 404 350
f 350 423 351
f 350 404 405
f 350 405 424
f 350 424 423
f 352 425 353
f 352 422 426
f 352 426 427
f 352 427 425
f 353 425 428
f 353 428 358
f 353 358 356
f 353 355 354
f 356 358 357
f 358 428 359
f 359 428 429
f 359 429 430
f 359 430 360
f 360 430 361
f 361 431 432
f 361 432 365
f 361 430 429
f 361 429 431
f 363 368 364
f 364 368 433
f 364 433 369
f 365 432 366
f 366 434 367
f 366 432 431
f 366 431 435
f 366 435 434
f 367 434 436
f 367 436 437
f 367 437 368
f 368 438 371
f 368 371 433
f 368 437 438
f 369 433 370
f 370 433 371
f 371 438 372
f 372 438 439
f 372 439 373
f 373 439 374
f 374 439 437
f 374 437 440
f 374 440 441
f 374 441 375
f 375 441 442
f 375 442 443
f 375 443 444
f 375 444 376
f 376 445 446
f 376 446 447
f 376 447 377
f 376 444 445
f 377 447 378
f 378 447 448
f 382 449 384
f 382 384 450
f 382 450 383
f 383 450 384
f 384 451 452
f 384 452 385
f 384 449 453
f 384 453 454
f 384 454 455
f 384 455 456
f 384 456 457
f 384 457 458
f 384 458 451
f 385 452 387
f 387 459 388
f 387 452 460
f 387 460 459
f 388 459 461
f 388 461 462
f 388 462 392
f 388 392 389
f 389 392 391
f 392 462 393
f 393 462 463
f 393 463 394
f 394 463 464
f 394 464 395
f 395 406 397
f 395 397 396
f 395 464 465
f 395 465 407
f 395 407 406
f 398 402 400
f 399 400 401
f 405 417 424
f 407 465 408
f 408 465 466
f 408 466 467
f 408 467 409
f 409 467 410
f 410 467 468
f 410 468 412
f 410 412 411
f 412 468 414
f 412 414 413
f 414 468 469
f 414 469 418
f 414 418 415
f 416 470 417
f 416 419 471
f 416 471 527
f 416 527 470
f 417 470 472
f 417 472 424
f 418 469 473
f 418 473 419
f 419 473 474
f 419 474 475
f 419 475 476
f 419 476 477
f 419 477 471
f 420 478 479
f 420 479 480
f 420 480 421
f 421 480 481
f 421 481 482
f 421 482 426
f 421 426 422
f 423 483 484
f 423 424 483
f 424 472 485
f 424 485 486
f 424 486 483
f 425 429 428
f 425 427 487
f 425 487 431
f 425 431 429
f 426 482 488
f 426 488 489
f 426 489 490
f 426 490 487
f 426 487 427
f 431 487 491
f 431 491 492
f 431 492 435
f 434 435 493
f 434 493 436
f 435 492 491
f 435 491 494
f 435 494 495
f 435 495 493
f 436 493 496
f 436 496 497
f 436 497 437
f 437 497 498
f 437 498 440
f 437 439 438
f 440 498 442
f 440 442 441
f 442 498 499
f 442 499 500
f 442 500 443
f 443 500 501
f 443 501 444
f 444 446 502
f 444 502 503
f 444 503 445
f 444 501 504
f 444 504 505
f 444 505 506
f 444 506 446
f 445 503 502
f 445 502 446
f 446 506 447
f 447 506 507
f 447 507 508
f 447 508 509
f 447 509 510
f 447 510 511
f 447 511 512
f 447 512 448
f 451 513 452
f 451 458 514
f 451 514 513
f 452 513 460
f 455 515 516
f 455 516 457
f 455 457 456
f 457 516 517
f 457 517 518
f 457 518 458
f 458 518 519
f 458 519 513
f 458 513 514
f 459 460 461
f 460 520 461
f 460 513 521
f 460 521 522
f 460 522 520
f 461 523 463
f 461 463 462
f 461 520 523
f 463 523 464
f 464 523 465
f 465 523 524
f 465 524 466
f 466 524 525
f 466 525 473
f 466 473 469
f 466 469 467
f 467 469 468
f 470 526 472
f 470 527 528
f 470 528 526
f 471 477 527
f 472 529 485
f 472 526 529
f 473 530 531
f 473 531 474
f 473 525 530
f 474 531 532
f 474 532 533
f 474 533 475
f 475 533 476
f 476 533 534
f 476 534 477
f 477 534 535
f 477 535 536
f 477 536 527
f 478 537 538
f 478 538 539
f 478 539 540
f 478 540 479
f 478 541 542
f 478 542 543
f 478 543 537
f 479 540 544
f 479 544 480
f 480 544 481
f 481 544 545
f 481 545 482
f 482 545 546
f 482 546 488
f 483 486 547
f 483 547 548
f 483 548 484
f 484 548 549
f 485 529 550
f 485 550 486
f 486 550 551
f 486 551 547
f 487 490 552
f 487 552 491
f 488 546 553
f 488 553 554
f 488 554 489
f 489 554 555
f 489 555 556
f 489 556 552
f 489 552 490
f 491 552 557
f 491 557 558
f 491 558 559
f 491 559 560
f 491 560 561
f 491 561 562
f 491 562 494
f 493 495 561
f 493 561 496
f 494 562 495
f 495 562 561
f 496 498 497
f 496 561 563
f 496 563 564
f 496 564 565
f 496 565 499
f 496 499 498
f 499 565 504
f 499 504 501
f 499 501 500
f 504 566 567
f 504 567 505
f 504 565 566
f 505 567 568
f 505 568 569
f 505 569 506
f 506 569 507
f 507 570 571
f 507 571 572
f 507 572 573
f 507 573 574
f 507 574 508
f 507 569 575
f 507 575 576
f 507 576 577
f 507 577 578
f 507 578 579
f 507 579 570
f 508 574 509
f 509 574 573
f 513 519 521
f 515 580 516
f 516 580 517
f 517 581 518
f 517 580 582
f 517 582 581
f 518 581 583
f 518 583 584
f 518 584 585
f 518 585 519
f 519 585 586
f 519 586 521
f 520 522 587
f 520 587 588
f 520 588 523
f 521 586 522
f 522 586 589
f 522 589 587
f 523 588 587
f 523 587 590
f 523 590 591
f 523 591 524
f 524 592 525
f 524 591 592
f 525 592 591
f 525 591 530
f 526 528 593
f 526 593 594
f 526 594 529
f 527 536 595
f 527 595 596
f 527 596 597
f 527 597 598
f 527 598 599
f 527 599 600
f 527 600 528
f 528 600 599
f 528 599 601
f 528 601 593
f 529 602 550
f 529 594 602
f 530 591 590
f 530 590 531
f 531 603 604
f 531 604 605
f 531 605 532
f 531 590 603
f 532 605 606
f 532 606 607
f 532 607 533
f 533 607 534
f 534 607 608
f 534 608 535
f 535 609 536
f 535 608 610
f 535 610 609
f 536 609 595
f 537 611 612
f 537 612 613
f 537 613 538
f 537 543 614
f 537 614 611
f 538 613 615
f 538 615 539
f 539 615 616
f 539 616 540
f 540 616 544
f 541 617 542
f 542 617 618
f 542 618 619
f 542 619 620
f 542 620 621
f 542 621 622
f 542 622 543
f 543 622 614
f 544 616 623
f 544 623 545
f 545 623 624
f 545 624 625
f 545 625 546
f 546 625 553
f 547 551 548
f 548 626 627
f 548 627 628
f 548 628 629
f 548 629 630
f 548 630 549
f 548 551 626
f 550 631 632
f 550 632 551
f 550 602 631
f 551 632 633
f 551 633 626
f 552 556 559
f 552 559 634
f 552 634 557
f 553 625 635
f 553 635 554
f 554 635 636
f 554 636 555
f 555 636 637
f 555 637 638
f 555 638 559
f 555 559 556
f 557 634 558
f 558 634 559
f 559 639 561
f 559 561 640
f 559 640 560
f 559 638 641
f 559 641 642
f 559 642 643
f 559 643 644
f 559 644 645
f 559 645 639
f 560 640 561
f 561 639 646
f 561 646 564
f 561 564 563
f 564 646 639
f 564 639 647
f 564 647 566
f 564 566 565
f 566 647 568
f 566 568 567
f 568 648 569
f 568 647 639
f 568 639 645
f 568 645 649
f 568 649 648
f 569 648 650
f 569 650 575
f 575 650 576
f 576 650 648
f 576 648 577
f 577 651 652
f 577 652 578
f 577 648 651
f 578 652 653
f 578 653 654
f 578 654 579
f 579 654 655
f 581 656 657
f 581 657 658
f 581 658 583
f 581 582 656
f 583 658 584
f 584 658 659
f 584 659 660
f 584 660 661
f 584 661 585
f 585 661 662
f 585 662 663
f 585 663 586
f 586 663 590
f 586 590 589
f 587 589 590
f 590 663 603
f 593 664 594
f 593 601 599
f 593 599 664
f 594 664 602
f 595 609 596
f 596 609 665
f 596 665 666
f 596 666 667
f 596 667 668
f 596 668 669
f 596 669 670
f 596 670 671
f 596 671 597
f 597 672 598
f 597 671 672
f 598 673 674
f 598 674 599
f 598 672 673
f 599 674 664
f 602 664 674
f 602 674 675
f 602 675 676
f 602 676 631
f 603 663 677
f 603 677 661
f 603 661 604
f 604 661 678
f 604 678 679
f 604 679 605
f 605 679 680
f 605 680 606
f 606 680 608
f 606 608 607
f 608 681 610
f 608 680 681
f 609 610 665
f 610 666 665
f 610 681 682
f 610 682 666
f 611 683 684
f 611 684 685
f 611 685 686
f 611 686 687
f 611 687 612
f 611 614 683
f 612 687 688
f 612 688 613
f 613 688 689
f 613 689 690
f 613 690 615
f 614 622 691
f 614 691 692
f 614 692 693
f 614 693 694
f 614 694 695
f 614 695 683
f 615 690 696
f 615 696 616
f 616 696 623
f 618 629 697
f 618 697 619
f 619 697 698
f 619 698 699
f 619 699 620
f 620 699 700
f 620 700 621
f 621 700 691
f 621 691 622
f 623 696 701
f 623 701 702
f 623 702 703
f 623 703 704
f 623 704 624
f 624 704 705
f 624 705 625
f 625 705 706
f 625 706 641
f 625 641 635
f 626 707 627
f 626 633 707
f 627 707 708
f 627 708 709
f 627 709 628
f 628 709 697
f 628 697 629
f 631 676 710
f 631 710 711
f 631 711 712
f 631 712 713
f 631 713 714
f 631 714 715
f 631 715 716
f 631 716 632
f 632 716 633
f 633 716 717
f 633 717 707
f 635 641 718
f 635 718 636
f 636 718 637
f 637 718 641
f 637 641 638
f 641 706 719
f 641 719 720
f 641 720 721
f 641 721 722
f 641 722 723
f 641 723 724
f 641 724 725
f 641 725 726
f 641 726 727
f 641 727 728
f 641 728 642
f 642 728 643
f 643 728 644
f 644 728 729
f 644 729 730
f 644 730 645
f 645 730 651
f 645 651 731
f 645 731 649
f 648 649 731
f 648 731 651
f 651 730 732
f 651 732 652
f 652 733 734
f 652 734 653
f 652 732 725
f 652 725 733
f 653 734 735
f 653 735 655
f 653 655 654
f 656 736 737
f 656 737 657
f 657 737 658
f 658 737 738
f 658 738 739
f 658 739 659
f 659 739 681
f 659 681 740
f 659 740 741
f 659 741 660
f 660 741 661
f 661 741 740
f 661 740 681
f 661 681 678
f 661 677 663
f 661 663 662
f 666 682 667
f 667 682 742
f 667 742 743
f 667 743 744
f 667 744 745
f 667 745 669
f 667 669 668
f 669 746 747
f 669 747 670
f 669 745 748
f 669 748 749
f 669 749 750
f 669 750 746
f 670 747 746
f 670 746 751
f 670 751 671
f 671 751 752
f 671 752 753
f 671 753 672
f 672 753 754
f 672 754 673
f 673 754 674
f 674 754 755
f 674 755 756
f 674 756 757
f 674 757 711
f 674 711 675
f 675 711 676
f 676 711 710
f 678 681 679
f 679 681 680
f 681 739 742
f 681 742 682
f 683 758 759
f 683 759 760
f 683 760 684
f 683 695 761
f 683 761 762
f 683 762 758
f 684 760 763
f 684 763 686
f 684 686 685
f 686 763 764
f 686 764 765
f 686 765 766
f 686 766 767
f 686 767 768
f 686 768 687
f 687 768 767
f 687 767 688
f 688 767 689
f 689 767 769
f 689 769 770
f 689 770 771
f 689 771 690
f 690 771 696
f 691 772 773
f 691 773 774
f 691 774 775
f 691 775 692
f 691 700 776
f 691 776 777
f 691 777 772
f 692 775 778
f 692 778 693
f 693 779 694
f 693 778 779
f 694 779 780
f 694 780 781
f 694 781 782
f 694 782 783
f 694 783 695
f 695 783 761
f 696 771 701
f 697 709 784
f 697 784 785
f 697 785 698
f 698 785 786
f 698 786 699
f 699 776 700
f 699 786 776
f 701 787 702
f 701 771 787
f 702 787 788
f 702 788 703
f 703 788 704
f 704 788 789
f 704 789 705
f 705 789 790
f 705 790 706
f 706 790 791
f 706 791 719
f 707 717 792
f 707 792 793
f 707 793 708
f 708 793 709
f 709 793 784
f 711 794 713
f 711 713 712
f 711 757 794
f 713 794 795
f 713 795 715
f 713 715 714
f 715 795 796
f 715 796 716
f 716 796 795
f 716 795 797
f 716 797 798
f 716 798 799
f 716 799 800
f 716 800 801
f 716 801 717
f 717 801 800
f 717 800 799
f 717 799 802
f 717 802 803
f 717 803 875
f 717 875 792
f 719 791 720
f 720 791 804
f 720 804 805
f 720 805 721
f 721 805 806
f 721 806 722
f 722 806 807
f 722 807 723
f 723 807 808
f 723 808 809
f 723 809 810
f 723 810 724
f 724 810 733
f 724 733 725
f 725 732 726
f 726 729 728
f 726 728 727
f 726 732 811
f 726 811 729
f 729 811 732
f 729 732 730
f 733 810 813
f 733 813 812
f 733 812 734
f 734 812 735
f 735 812 813
f 735 813 814
f 736 815 816
f 736 816 737
f 737 816 817
f 737 817 738
f 738 817 739
f 739 817 742
f 742 817 818
f 742 818 743
f 743 818 748
f 743 748 744
f 744 748 745
f 746 750 749
f 746 749 819
f 746 819 751
f 748 818 820
f 748 820 821
f 748 821 749
f 749 821 822
f 749 822 819
f 751 823 824
f 751 824 825
f 751 825 752
f 751 819 826
f 751 826 823
f 752 825 753
f 753 827 824
f 753 824 755
f 753 755 754
f 753 825 827
f 755 824 828
f 755 828 829
f 755 829 830
f 755 830 831
f 755 831 756
f 756 831 832
f 756 832 794
f 756 794 757
f 758 833 834
f 758 834 835
f 758 835 836
f 758 836 759
f 758 762 837
f 758 837 838
f 758 838 833
f 759 836 839
f 759 839 760
f 760 839 763
f 761 783 840
f 761 840 841
f 761 841 762
f 762 841 837
f 763 839 842
f 763 842 764
f 764 842 843
f 764 843 844
f 764 844 765
f 765 769 766
f 765 844 770
f 765 770 769
f 766 769 767
f 770 844 771
f 771 844 845
f 771 845 846
f 771 846 787
f 772 777 847
f 772 847 773
f 773 847 848
f 773 848 849
f 773 849 850
f 773 850 851
f 773 851 852
f 773 852 774
f 774 852 853
f 774 853 854
f 774 854 855
f 774 855 775
f 775 855 856
f 775 856 857
f 775 857 778
f 776 858 859
f 776 859 777
f 776 786 860
f 776 860 858
f 777 859 847
f 778 857 861
f 778 861 779
f 779 861 780
f 780 861 856
f 780 856 781
f 781 856 862
f 781 862 854
f 781 854 863
f 781 863 864
f 781 864 782
f 782 864 863
f 782 863 865
f 782 865 866
f 782 866 783
f 783 866 867
f 783 867 868
f 783 868 869
f 783 869 840
f 784 793 870
f 784 870 871
f 784 871 785
f 785 871 872
f 785 872 786
f 786 872 860
f 787 846 788
f 788 846 790
f 788 790 789
f 790 846 873
f 790 873 874
f 790 874 791
f 791 874 804
f 792 875 876
f 792 876 877
f 792 877 793
f 793 877 870
f 794 878 879
f 794 879 880
f 794 880 795
f 794 832 878
f 795 880 797
f 797 880 878
f 797 878 881
f 797 881 802
f 797 802 799
f 797 799 798
f 802 881 878
f 802 878 882
f 802 882 883
f 802 883 884
f 802 884 885
f 802 885 886
f 802 886 876
f 802 876 875
f 802 875 887
f 802 887 803
f 803 887 875
f 804 874 888
f 804 888 889
f 804 889 805
f 805 890 806
f 805 889 891
f 805 891 890
f 806 890 807
f 807 892 808
f 807 890 891
f 807 891 892
f 808 893 894
f 808 894 895
f 808 895 813
f 808 813 809
f 808 892 893
f 809 813 810
f 813 895 983
f 813 983 896
f 813 896 814
f 815 897 898
f 815 898 816
f 816 898 818
f 816 818 817
f 818 898 899
f 818 899 820
f 819 822 900
f 819 900 901
f 819 901 826
f 820 899 821
f 821 899 902
f 821 902 903
f 821 903 904
f 821 904 822
f 822 904 905
f 822 905 900
f 823 826 901
f 823 901 906
f 823 906 907
f 823 907 824
f 824 827 825
f 824 907 908
f 824 908 909
f 824 909 829
f 824 829 828
f 829 909 910
f 829 910 911
f 829 911 912
f 829 912 913
f 829 913 914
f 829 914 915
f 829 915 916
f 829 916 830
f 830 916 831
f 831 917 918
f 831 918 919
f 831 919 832
f 831 916 915
f 831 915 917
f 832 919 878
f 833 920 921
f 833 921 834
f 833 838 920
f 834 922 923
f 834 923 924
f 834 924 836
f 834 836 835
f 834 921 922
f 836 924 925
f 836 925 926
f 836 926 927
f 836 927 928
f 836 928 839
f 837 841 838
f 838 841 921
f 838 921 920
f 839 929 930
f 839 930 931
f 839 931 844
f 839 844 842
f 839 928 929
f 840 869 932
f 840 932 841
f 841 932 921
f 842 844 843
f 844 931 933
f 844 933 845
f 845 933 891
f 845 891 889
f 845 889 873
f 845 873 846
f 847 859 858
f 847 858 934
f 847 934 848
f 848 934 935
f 848 935 849
f 849 935 934
f 849 934 936
f 849 936 937
f 849 937 850
f 850 937 938
f 850 938 851
f 851 938 939
f 851 939 852
f 852 940 853
f 852 939 940
f 853 865 854
f 853 940 865
f 854 865 863
f 854 862 855
f 855 862 856
f 856 861 857
f 858 936 934
f 858 860 941
f 858 941 942
f 858 942 936
f 860 872 941
f 865 940 943
f 865 943 944
f 865 944 945
f 865 945 866
f 866 945 946
f 866 946 947
f 866 947 867
f 867 947 948
f 867 948 949
f 867 949 868
f 868 950 951
f 868 951 952
f 868 952 953
f 868 953 954
f 868 954 869
f 868 949 955
f 868 955 956
f 868 956 950
f 869 954 932
f 870 877 957
f 870 957 958
f 870 958 959
f 870 959 960
f 870 960 961
f 870 961 962
f 870 962 963
f 870 963 964
f 870 964 871
f 871 964 872
f 872 965 942
f 872 942 941
f 872 964 963
f 872 963 965
f 873 889 888
f 873 888 874
f 876 966 967
f 876 967 968
f 876 968 969
f 876 969 877
f 876 886 966
f 877 969 970
f 877 970 957
f 878 918 882
f 878 880 879
f 878 919 918
f 882 918 883
f 883 918 971
f 883 971 972
f 883 972 973
f 883 973 884
f 884 973 974
f 884 974 885
f 885 974 966
f 885 966 886
f 891 975 976
f 891 976 892
f 891 933 975
f 892 977 893
f 892 976 977
f 893 978 1070
f 893 1070 979
f 893 979 894
f 893 977 1067
f 893 1067 978
f 894 979 980
f 894 980 981
f 894 981 982
f 894 982 895
f 895 982 983
f 897 984 899
f 897 899 898
f 899 984 985
f 899 985 902
f 900 905 911
f 900 911 901
f 901 911 910
f 901 910 906
f 902 986 903
f 902 985 987
f 902 987 986
f 903 986 988
f 903 988 989
f 903 989 990
f 903 990 904
f 904 991 905
f 904 990 992
f 904 992 991
f 905 992 993
f 905 993 911
f 905 991 992
f 906 910 908
f 906 908 907
f 908 910 909
f 911 993 994
f 911 994 995
f 911 995 912
f 912 996 997
f 912 997 913
f 912 995 996
f 913 997 914
f 914 997 996
f 914 996 998
f 914 998 999
f 914 999 1000
f 914 1000 971
f 914 971 917
f 914 917 915
f 917 971 918
f 921 932 922
f 922 1001 923
f 922 932 1002
f 922 1002 1003
f 922 1003 1001
f 923 1001 1004
f 923 1004 924
f 924 1004 1005
f 924 1005 1006
f 924 1006 926
f 924 926 925
f 926 1006 927
f 927 1006 1007
f 927 1007 928
f 928 1007 1008
f 928 1008 1009
f 928 1009 929
f 929 1009 930
f 930 1009 1010
f 930 1010 931
f 931 1010 933
f 932 954 1011
f 932 1011 1002
f 933 1010 1012
f 933 1012 975
f 936 942 1013
f 936 1013 937
f 937 1014 1015
f 937 1015 940
f 937 940 939
f 937 939 938
f 937 1013 1014
f 940 1016 1017
f 940 1017 943
f 940 1015 1018
f 940 1018 1016
f 942 965 1019
f 942 1019 1020
f 942 1020 1013
f 943 1017 1021
f 943 1021 1022
f 943 1022 1023
f 943 1023 1024
f 943 1024 1025
f 943 1025 1026
f 943 1026 1027
f 943 1027 946
f 943 946 944
f 944 946 945
f 946 1027 1028
f 946 1028 948
f 946 948 947
f 948 1028 1029
f 948 1029 949
f 949 1029 955
f 950 956 1030
f 950 1030 951
f 951 1030 1031
f 951 1031 1032
f 951 1032 953
f 951 953 952
f 953 1032 1033
f 953 1033 1034
f 953 1034 1035
f 953 1035 954
f 954 1035 1003
f 954 1003 1011
f 955 1030 956
f 955 1029 1036
f 955 1036 1037
f 955 1037 1038
f 955 1038 1030
f 957 1039 1040
f 957 1040 959
f 957 959 958
f 957 970 1041
f 957 1041 1039
f 959 1042 1043
f 959 1043 1044
f 959 1044 1045
f 959 1045 960
f 959 1040 1046
f 959 1046 1047
f 959 1047 1048
f 959 1048 1049
f 959 1049 1050
f 959 1050 1042
f 960 1045 1051
f 960 1051 1052
f 960 1052 961
f 961 1052 1053
f 961 1053 1054
f 961 1054 1020
f 961 1020 1055
f 961 1055 962
f 962 1055 963
f 963 1055 965
f 965 1055 1019
f 966 974 967
f 967 974 968
f 968 974 973
f 968 973 1056
f 968 1056 1057
f 968 1057 1058
f 968 1058 1059
f 968 1059 1060
f 968 1060 1061
f 968 1061 1062
f 968 1062 1063
f 968 1063 1041
f 968 1041 969
f 969 1041 970
f 971 1000 1064
f 971 1064 1065
f 971 1065 972
f 972 1065 1066
f 972 1066 973
f 973 1066 1056
f 975 1012 976
f 976 1012 977
f 977 1012 1067
f 978 1068 1069
f 978 1069 1070
f 978 1067 1071
f 978 1071 1068
f 979 1070 980
f 980 1070 1072
f 986 987 988
f 988 1073 990
f 988 990 989
f 990 1073 1074
f 990 1074 1075
f 990 1075 1076
f 990 1076 1077
f 990 1077 1078
f 990 1078 1079
f 990 1079 1080
f 990 1080 993
f 990 993 992
f 993 1080 994
f 994 1080 1081
f 994 1081 996
f 994 996 995
f 996 1081 998
f 998 1081 1082
f 998 1082 1083
f 998 1083 1000
f 998 1000 999
f 1000 1083 1082
f 1000 1082 1084
f 1000 1084 1145
f 1000 1145 1064
f 1001 1003 1085
f 1001 1085 1086
f 1001 1086 1087
f 1001 1087 1088
f 1001 1088 1004
f 1002 1011 1003
f 1003 1035 1085
f 1004 1088 1005
f 1005 1088 1089
f 1005 1089 1006
f 1006 1089 1090
f 1006 1090 1091
f 1006 1091 1092
f 1006 1092 1093
f 1006 1093 1008
f 1006 1008 1007
f 1008 1093 1094
f 1008 1094 1071
f 1008 1071 1095
f 1008 1095 1096
f 1008 1096 1009
f 1009 1096 1095
f 1009 1095 1097
f 1009 1097 1010
f 1010 1097 1012
f 1012 1097 1098
f 1012 1098 1067
f 1013 1099 1014
f 1013 1020 1054
f 1013 1054 1100
f 1013 1100 1099
f 1014 1101 1102
f 1014 1102 1015
f 1014 1099 1101
f 1015 1102 1018
f 1016 1018 1103
f 1016 1103 1017
f 1017 1103 1021
f 1018 1102 1103
f 1019 1055 1020
f 1021 1103 1104
f 1021 1104 1105
f 1021 1105 1022
f 1022 1106 1023
f 1022 1105 1107
f 1022 1107 1106
f 1023 1106 1024
f 1024 1106 1108
f 1024 1108 1038
f 1024 1038 1037
f 1024 1037 1036
f 1024 1036 1028
f 1024 1028 1025
f 1025 1028 1026
f 1026 1028 1027
f 1028 1036 1029
f 1030 1038 1109
f 1030 1109 1110
f 1030 1110 1111
f 1030 1111 1031
f 1031 1112 1113
f 1031 1113 1114
f 1031 1114 1115
f 1031 1115 1032
f 1031 1111 1110
f 1031 1110 1112
f 1032 1115 1116
f 1032 1116 1033
f 1033 1085 1035
f 1033 1035 1034
f 1033 1116 1117
f 1033 1117 1118
f 1033 1118 1085
f 1038 1108 1109
f 1039 1041 1119
f 1039 1119 1040
f 1040 1119 1120
f 1040 1120 1047
f 1040 1047 1046
f 1041 1063 1119
f 1042 1121 1122
f 1042 1122 1043
f 1042 1050 1121
f 1043 1122 1202
f 1043 1202 1123
f 1043 1123 1124
f 1043 1124 1044
f 1044 1124 1125
f 1044 1125 1045
f 1045 1125 1051
f 1047 1120 1126
f 1047 1126 1127
f 1047 1127 1128
f 1047 1128 1048
f 1048 1128 1049
f 1049 1129 1050
f 1049 1128 1127
f 1049 1127 1129
f 1050 1129 1130
f 1050 1130 1131
f 1050 1131 1121
f 1051 1125 1132
f 1051 1132 1052
f 1052 1132 1053
f 1053 1132 1100
f 1053 1100 1054
f 1056 1066 1057
f 1057 1066 1058
f 1058 1066 1133
f 1058 1133 1059
f 1059 1133 1134
f 1059 1134 1060
f 1060 1135 1136
f 1060 1136 1137
f 1060 1137 1061
f 1060 1134 1138
f 1060 1138 1139
f 1060 1139 1140
f 1060 1140 1135
f 1061 1141 1142
f 1061 1142 1143
f 1061 1143 1144
f 1061 1144 1062
f 1061 1137 1141
f 1062 1119 1063
f 1062 1144 1143
f 1062 1143 1120
f 1062 1120 1119
f 1064 1145 1146
f 1064 1146 1065
f 1065 1147 1148
f 1065 1148 1149
f 1065 1149 1150
f 1065 1150 1134
f 1065 1134 1133
f 1065 1133 1066
f 1065 1146 1145
f 1065 1145 1151
f 1065 1151 1147
f 1067 1098 1097
f 1067 1097 1095
f 1067 1095 1071
f 1068 1152 1153
f 1068 1153 1069
f 1068 1071 1092
f 1068 1092 1152
f 1069 1154 1155
f 1069 1155 1070
f 1069 1153 1154
f 1070 1155 1072
f 1071 1094 1092
f 1072 1155 1156
f 1076 1157 1077
f 1077 1157 1078
f 1078 1157 1079
f 1079 1158 1080
f 1079 1157 1159
f 1079 1159 1160
f 1079 1160 1161
f 1079 1161 1162
f 1079 1162 1163
f 1079 1163 1164
f 1079 1164 1165
f 1079 1165 1158
f 1080 1158 1081
f 1081 1158 1166
f 1081 1166 1167
f 1081 1167 1165
f 1081 1165 1151
f 1081 1151 1082
f 1082 1151 1145
f 1082 1145 1084
f 1085 1118 1086
f 1086 1118 1087
f 1087 1117 1088
f 1087 1118 1117
f 1088 1117 1090
f 1088 1090 1089
f 1090 1117 1168
f 1090 1168 1091
f 1091 1168 1153
f 1091 1153 1169
f 1091 1169 1170
f 1091 1170 1092
f 1092 1170 1152
f 1092 1094 1093
f 1099 1100 1171
f 1099 1171 1125
f 1099 1125 1172
f 1099 1172 1123
f 1099 1123 1173
f 1099 1173 1174
f 1099 1174 1101
f 1100 1132 1125
f 1100 1125 1171
f 1101 1175 1176
f 1101 1176 1177
f 1101 1177 1102
f 1101 1174 1175
f 1102 1178 1179
f 1102 1179 1103
f 1102 1177 1178
f 1103 1179 1105
f 1103 1105 1104
f 1105 1179 1176
f 1105 1176 1107
f 1106 1180 1108
f 1106 1107 1181
f 1106 1181 1180
f 1107 1176 1182
f 1107 1182 1181
f 1108 1183 1109
f 1108 1180 1183
f 1109 1183 1112
f 1109 1112 1110
f 1112 1183 1184
f 1112 1184 1185
f 1112 1185 1186
f 1112 1186 1187
f 1112 1187 1188
f 1112 1188 1189
f 1112 1189 1190
f 1112 1190 1191
f 1112 1191 1113
f 1113 1191 1192
f 1113 1192 1114
f 1114 1193 1116
f 1114 1116 1115
f 1114 1192 1193
f 1116 1193 1194
f 1116 1194 1195
f 1116 1195 1196
f 1116 1196 1117
f 1117 1196 1197
f 1117 1197 1198
f 1117 1198 1195
f 1117 1195 1168
f 1120 1143 1126
f 1121 1131 1199
f 1121 1199 1200
f 1121 1200 1201
f 1121 1201 1122
f 1122 1201 1251
f 1122 1251 1202
f 1123 1202 1230
f 1123 1230 1173
f 1123 1172 1124
f 1124 1172 1125
f 1126 1203 1127
f 1126 1143 1204
f 1126 1204 1205
f 1126 1205 1206
f 1126 1206 1203
f 1127 1203 1129
f 1129 1203 1207
f 1129 1207 1130
f 1130 1207 1208
f 1130 1208 1209
f 1130 1209 1210
f 1130 1210 1199
f 1130 1199 1131
f 1134 1150 1211
f 1134 1211 1138
f 1135 1140 1212
f 1135 1212 1213
f 1135 1213 1136
f 1136 1214 1215
f 1136 1215 1141
f 1136 1141 1137
f 1136 1213 1214
f 1138 1211 1149
f 1138 1149 1216
f 1138 1216 1140
f 1138 1140 1139
f 1140 1216 1212
f 1141 1215 1217
f 1141 1217 1218
f 1141 1218 1142
f 1142 1218 1143
f 1143 1218 1205
f 1143 1205 1204
f 1147 1151 1219
f 1147 1219 1148
f 1148 1216 1149
f 1148 1219 1220
f 1148 1220 1214
f 1148 1214 1213
f 1148 1213 1216
f 1149 1211 1150
f 1151 1165 1219
f 1152 1170 1169
f 1152 1169 1153
f 1153 1168 1194
f 1153 1194 1221
f 1153 1221 1222
f 1153 1222 1223
f 1153 1223 1224
f 1153 1224 1225
f 1153 1225 1154
f 1154 1156 1155
f 1158 1165 1167
f 1158 1167 1166
f 1163 1226 1164
f 1164 1226 1227
f 1164 1227 1228
f 1164 1228 1165
f 1165 1228 1229
f 1165 1229 1219
f 1168 1195 1194
f 1173 1230 1175
f 1173 1175 1174
f 1175 1230 1231
f 1175 1231 1182
f 1175 1182 1176
f 1176 1179 1232
f 1176 1232 1177
f 1177 1232 1179
f 1177 1179 1178
f 1180 1181 1183
f 1181 1182 1233
f 1181 1233 1183
f 1182 1231 1234
f 1182 1234 1235
f 1182 1235 1233
f 1183 1233 1236
f 1183 1236 1237
f 1183 1237 1238
f 1183 1238 1239
f 1183 1239 1240
f 1183 1240 1241
f 1183 1241 1242
f 1183 1242 1184
f 1184 1242 1185
f 1185 1242 1241
f 1192 1243 1193
f 1193 1243 1194
f 1194 1243 1244
f 1194 1244 1245
f 1194 1245 1246
f 1194 1246 1247
f 1194 1247 1223
f 1194 1223 1221
f 1195 1198 1196
f 1196 1198 1197
f 1199 1210 1248
f 1199 1248 1249
f 1199 1249 1200
f 1200 1249 1201
f 1201 1249 1250
f 1201 1250 1274
f 1201 1274 1251
f 1202 1251 1269
f 1202 1269 1230
f 1203 1206 1207
f 1205 1218 1252
f 1205 1252 1206
f 1206 1252 1253
f 1206 1253 1207
f 1207 1253 1208
f 1208 1254 1209
f 1208 1253 1255
f 1208 1255 1254
f 1209 1256 1257
f 1209 1257 1258
f 1209 1258 1210
f 1209 1254 1259
f 1209 1259 1256
f 1210 1260 1248
f 1210 1258 1260
f 1212 1216 1213
f 1214 1261 1262
f 1214 1262 1215
f 1214 1220 1263
f 1214 1263 1264
f 1214 1264 1261
f 1215 1262 1265
f 1215 1265 1217
f 1217 1265 1253
f 1217 1253 1252
f 1217 1252 1218
f 1219 1229 1220
f 1220 1229 1228
f 1220 1228 1266
f 1220 1266 1267
f 1220 1267 1261
f 1220 1261 1263
f 1221 1223 1222
f 1227 1268 1266
f 1227 1266 1228
f 1230 1269 1234
f 1230 1234 1231
f 1233 1235 1270
f 1233 1270 1237
f 1233 1237 1236
f 1234 1271 1235
f 1234 1269 1272
f 1234 1272 1271
f 1235 1271 1273
f 1235 1273 1270
f 1237 1270 1273
f 1251 1274 1272
f 1251 1272 1269
f 1253 1265 1255
f 1254 1255 1265
f 1254 1265 1262
f 1254 1262 1267
f 1254 1267 1275
f 1254 1275 1276
f 1254 1276 1277
f 1254 1277 1278
f 1254 1278 1279
f 1254 1279 1256
f 1254 1256 1259
f 1257 1280 1258
f 1258 1280 1260
f 1261 1267 1262
f 1261 1264 1263
f 1266 1268 1267
f 1267 1268 1281
f 1267 1281 1282
f 1267 1282 1283
f 1267 1283 1284
f 1267 1284 1277
f 1267 1277 1275
f 1275 1277 1276
