v 0.00678827 0.371781 -0.548992
v 0.0127619 0.371781 -0.550291
v -0.00657819 0.371781 -0.549226
v -0.00411658 0.0237721 -0.549726
v 0.00486389 0.0237721 -0.549726
v 0.00736559 0.0237721 -0.550097
v 0.0111181 0.0237721 -0.550662
v 0.018503 0.371781 -0.552994
v 0.0141731 0.0237721 -0.552034
v 0.0187596 0.0237721 -0.554099
v -0.00928837 0.371781 -0.549936
v -0.0103708 0.0237721 -0.550848
v -0.00786913 0.0237721 -0.550396
v 0.0283815 0.371781 -0.559682
v 0.022464 0.0237721 -0.556512
v 0.0280126 0.0237721 -0.560134
v -0.0154384 0.371781 -0.552106
v -0.0154063 0.0237721 -0.553139
v -0.017018 0.371781 -0.552792
v 0.0346357 0.371781 -0.567629
v 0.0342669 0.0237721 -0.568009
v -0.0187579 0.0237721 -0.554672
v -0.0181004 0.371781 -0.553397
v 0.0383001 0.371781 -0.573882
v 0.0381558 0.0237721 -0.57427
v -0.02757 0.0237721 -0.560521
v -0.0261829 0.371781 -0.558698
v 0.0403287 0.371781 -0.581716
v 0.0389576 0.0237721 -0.577247
v 0.0401523 0.0237721 -0.581716
v -0.0313226 0.0237721 -0.565306
v -0.0279549 0.371781 -0.560062
v 0.0409381 0.35652 -0.594222
v 0.040906 0.369022 -0.594222
v 0.0408739 0.371781 -0.594222
v 0.0409381 0.0237721 -0.594222
v -0.0338243 0.0237721 -0.568501
v -0.0328461 0.371781 -0.566355
v 0.0389335 0.35652 -0.60392
v 0.0401363 0.0237721 -0.598103
v 0.0388854 0.369022 -0.603759
v 0.0388453 0.371781 -0.603621
v -0.0379056 0.0237721 -0.574754
v -0.0342092 0.371781 -0.568162
v 0.0361031 0.35652 -0.610173
v 0.0389335 0.0237721 -0.60392
v 0.037803 0.0237721 -0.606421
v 0.0360149 0.369022 -0.610011
v 0.0359267 0.371781 -0.609874
v -0.0398219 0.0237721 -0.581716
v -0.0372962 0.371781 -0.573043
v -0.0380579 0.371781 -0.574415
v 0.0298488 0.35652 -0.618096
v 0.0297606 0.369022 -0.617999
v 0.0361031 0.0237721 -0.610173
v 0.0336014 0.0237721 -0.613344
v 0.0296724 0.371781 -0.617886
v 0.0345556 0.371781 -0.611649
v -0.0405115 0.0237721 -0.58922
v -0.0395734 0.371781 -0.57999
v -0.0400144 0.371781 -0.581716
v 0.0232097 0.35652 -0.624349
v 0.0298488 0.0237721 -0.618096
v 0.0271948 0.0237721 -0.620597
v 0.0230493 0.369022 -0.624252
v 0.0228489 0.371781 -0.624147
v -0.0409686 0.0237721 -0.594222
v -0.0408323 0.371781 -0.591479
v 0.0169554 0.35652 -0.627778
v 0.0167951 0.369022 -0.627697
v 0.0232097 0.0237721 -0.624349
v 0.0165946 0.371781 -0.627584
v -0.0390602 0.0237721 -0.604533
v -0.0409766 0.369022 -0.594222
v -0.0409605 0.371781 -0.594222
v 0.00625105 0.35652 -0.631215
v 0.0169554 0.0237721 -0.627778
v 0.00625105 0.369022 -0.631061
v 0.00625105 0.371781 -0.630835
v -0.0364944 0.0237721 -0.610786
v -0.0390602 0.35652 -0.604533
v -0.0390362 0.369022 -0.604412
v -0.0394451 0.371781 -0.602177
v -0.00624944 0.35652 -0.631408
v 0.00625105 0.0237721 -0.631215
v 0.00124764 0.0237721 -0.631295
v -0.00624944 0.369022 -0.631255
v -0.00624944 0.371781 -0.631037
v 0.00351682 0.371781 -0.630884
v -0.0302401 0.0237721 -0.618483
v -0.0364944 0.35652 -0.610786
v -0.0364142 0.369022 -0.610665
v -0.0390041 0.371781 -0.604275
v -0.0175312 0.35652 -0.627971
v -0.0173628 0.369022 -0.62789
v -0.00624944 0.0237721 -0.631408
v -0.0107637 0.0237721 -0.630037
v -0.00847852 0.371781 -0.630408
v -0.0237854 0.0237721 -0.624736
v -0.0302401 0.35652 -0.618483
v -0.0301519 0.369022 -0.618386
v -0.0369514 0.371781 -0.609164
v -0.036326 0.371781 -0.610528
v -0.0300717 0.371781 -0.618273
v -0.0237854 0.35652 -0.624736
v -0.0175312 0.0237721 -0.627971
v -0.0200329 0.0237721 -0.62668
v -0.023625 0.369022 -0.624639
v -0.0234166 0.371781 -0.624534
v -0.0185254 0.371781 -0.627067
v -0.0171543 0.371781 -0.627778
v -0.0249641 0.371781 -0.623163
f 1 2 8
f 1 8 14
f 1 14 20
f 1 20 24
f 1 24 28
f 1 28 35
f 1 35 42
f 1 42 49
f 1 49 58
f 1 58 57
f 1 57 66
f 1 66 72
f 1 72 79
f 1 79 89
f 1 89 88
f 1 88 98
f 1 98 111
f 1 111 110
f 1 110 109
f 1 109 112
f 1 112 104
f 1 104 103
f 1 103 102
f 1 102 93
f 1 93 83
f 1 83 75
f 1 75 68
f 1 68 61
f 1 61 60
f 1 60 52
f 1 52 51
f 1 51 44
f 1 44 38
f 1 38 32
f 1 32 27
f 1 27 23
f 1 23 19
f 1 19 17
f 1 17 11
f 1 11 3
f 1 3 4
f 1 4 5
f 1 5 6
f 1 6 7
f 1 7 2
f 2 7 9
f 2 9 10
f 2 10 8
f 3 11 12
f 3 12 13
f 3 13 4
f 4 13 12
f 4 12 18
f 4 18 22
f 4 22 26
f 4 26 31
f 4 31 37
f 4 37 43
f 4 43 50
f 4 50 59
f 4 59 67
f 4 67 73
f 4 73 80
f 4 80 90
f 4 90 99
f 4 99 107
f 4 107 106
f 4 106 97
f 4 97 96
f 4 96 86
f 4 86 85
f 4 85 77
f 4 77 71
f 4 71 64
f 4 64 63
f 4 63 56
f 4 56 55
f 4 55 47
f 4 47 46
f 4 46 40
f 4 40 36
f 4 36 30
f 4 30 29
f 4 29 25
f 4 25 21
f 4 21 16
f 4 16 15
f 4 15 10
f 4 10 9
f 4 9 7
f 4 7 6
f 4 6 5
f 8 10 15
f 8 15 16
f 8 16 14
f 11 17 12
f 12 17 19
f 12 19 18
f 14 16 21
f 14 21 20
f 18 19 22
f 19 23 22
f 20 21 25
f 20 25 24
f 22 23 27
f 22 27 26
f 24 25 29
f 24 29 30
f 24 30 28
f 26 27 32
f 26 32 31
f 28 33 34
f 28 34 35
f 28 30 36
f 28 36 33
f 31 32 37
f 32 38 37
f 33 39 34
f 33 36 40
f 33 40 39
f 34 39 41
f 34 41 35
f 35 41 42
f 37 38 44
f 37 44 43
f 39 45 41
f 39 40 46
f 39 46 47
f 39 47 45
f 41 45 48
f 41 48 42
f 42 48 49
f 43 44 51
f 43 51 52
f 43 52 50
f 45 53 54
f 45 54 48
f 45 47 55
f 45 55 56
f 45 56 53
f 48 54 57
f 48 57 58
f 48 58 49
f 50 52 60
f 50 60 61
f 50 61 59
f 53 62 54
f 53 56 63
f 53 63 64
f 53 64 62
f 54 62 65
f 54 65 57
f 57 65 66
f 59 61 67
f 61 68 67
f 62 69 70
f 62 70 65
f 62 64 71
f 62 71 77
f 62 77 69
f 65 70 66
f 66 70 72
f 67 68 74
f 67 74 73
f 68 75 74
f 69 76 70
f 69 77 85
f 69 85 76
f 70 76 78
f 70 78 72
f 72 78 79
f 73 74 81
f 73 81 91
f 73 91 80
f 74 75 82
f 74 82 81
f 75 83 82
f 76 84 87
f 76 87 78
f 76 85 86
f 76 86 84
f 78 87 88
f 78 88 89
f 78 89 79
f 80 91 100
f 80 100 90
f 81 82 91
f 82 92 91
f 82 83 93
f 82 93 92
f 84 94 95
f 84 95 87
f 84 86 96
f 84 96 97
f 84 97 94
f 87 95 98
f 87 98 88
f 90 100 105
f 90 105 99
f 91 92 101
f 91 101 100
f 92 93 102
f 92 102 103
f 92 103 104
f 92 104 101
f 94 105 95
f 94 97 106
f 94 106 107
f 94 107 105
f 95 105 108
f 95 108 109
f 95 109 110
f 95 110 111
f 95 111 98
f 99 105 107
f 100 101 105
f 101 108 105
f 101 104 108
f 104 112 108
f 108 112 109
