v -0.315127 0.581678 -0.156653
v -0.226299 0.594143 -0.226013
v -0.315127 0.594143 -0.156663
v -0.315127 -0.450224 -0.156653
v -0.226299 0.606715 -0.226112
v -0.226299 -0.450118 -0.226013
v -0.315127 0.606715 -0.156792
v -0.315127 -0.450224 -0.193781
v -0.226377 -0.450224 -0.225973
v -0.226299 0.61918 -0.228401
v -0.261983 0.614532 -0.199599
v -0.315127 0.609778 -0.157238
v -0.226299 -0.450224 -0.233129
v -0.26447 -0.450224 -0.232644
v -0.315127 0.594143 -0.193781
v -0.226299 0.620659 -0.229175
v -0.315127 0.619814 -0.159627
v -0.315127 0.617596 -0.159002
v -0.226299 -0.450224 -0.257908
v -0.250062 -0.450224 -0.243695
v -0.268461 0.594143 -0.229581
v -0.315127 0.606715 -0.193722
v -0.245863 0.606715 -0.246866
v -0.226299 0.627209 -0.233615
v -0.236629 0.626153 -0.224377
v -0.250384 0.625202 -0.212831
v -0.300032 0.625624 -0.174989
v -0.315127 0.622666 -0.161619
v -0.226299 0.594143 -0.257908
v -0.231438 -0.450224 -0.255678
v -0.245897 -0.450224 -0.246886
v -0.254053 0.594143 -0.240632
v -0.245897 0.594143 -0.246886
v -0.315127 0.617067 -0.191551
v -0.302371 0.617067 -0.201809
v -0.288599 0.614849 -0.213336
v -0.239611 0.606715 -0.251515
v -0.238941 0.615588 -0.251059
v -0.226299 0.628265 -0.236995
v -0.281851 0.627843 -0.193969
v -0.295111 0.627209 -0.182006
v -0.306493 0.626892 -0.172601
v -0.286286 0.626364 -0.186576
v -0.313771 0.623723 -0.163561
v -0.315127 0.625096 -0.164929
v -0.231438 0.594143 -0.255678
v -0.226299 0.606715 -0.257858
v -0.235629 -0.450224 -0.253566
v -0.242837 -0.450224 -0.249166
v -0.239646 0.594143 -0.251535
v -0.315127 0.619286 -0.191065
v -0.306519 0.620448 -0.19726
v -0.300215 0.625413 -0.200144
v -0.231438 0.606715 -0.255628
v -0.243445 0.619497 -0.246014
v -0.236376 0.623934 -0.249374
v -0.231898 0.619497 -0.253091
v -0.226299 0.619075 -0.255598
v -0.226299 0.628371 -0.244369
v -0.24395 0.629005 -0.231434
v -0.306493 0.628899 -0.181402
v -0.315127 0.628477 -0.171798
v -0.315127 0.627948 -0.169399
v -0.239646 -0.450224 -0.251535
v -0.315127 0.622561 -0.18946
v -0.313953 0.626153 -0.188558
v -0.264296 0.626364 -0.22636
v -0.250541 0.625624 -0.237936
v -0.228038 0.626575 -0.251426
v -0.226299 0.625202 -0.252793
v -0.226299 0.627948 -0.248383
v -0.231898 0.628054 -0.244696
v -0.26867 0.627948 -0.218926
v -0.281903 0.628265 -0.207003
v -0.315127 0.62816 -0.181283
v -0.315127 0.626575 -0.186665
v -0.315127 0.627737 -0.184098
v -0.278025 0.626892 -0.214754
v -0.24395 0.626998 -0.240384
v -0.226299 0.626786 -0.251772
v -0.25541 0.627315 -0.230889
f 1 2 3
f 1 3 7
f 1 7 12
f 1 12 18
f 1 18 17
f 1 17 28
f 1 28 45
f 1 45 63
f 1 63 62
f 1 62 75
f 1 75 77
f 1 77 76
f 1 76 65
f 1 65 51
f 1 51 34
f 1 34 22
f 1 22 15
f 1 15 8
f 1 8 4
f 1 4 6
f 1 6 2
f 2 5 3
f 2 6 13
f 2 13 19
f 2 19 29
f 2 29 47
f 2 47 58
f 2 58 70
f 2 70 80
f 2 80 71
f 2 71 59
f 2 59 39
f 2 39 24
f 2 24 16
f 2 16 10
f 2 10 5
f 3 5 7
f 4 8 14
f 4 14 20
f 4 20 31
f 4 31 49
f 4 49 64
f 4 64 48
f 4 48 30
f 4 30 19
f 4 19 13
f 4 13 9
f 4 9 6
f 5 10 11
f 5 11 12
f 5 12 7
f 6 9 13
f 8 15 14
f 10 16 17
f 10 17 18
f 10 18 11
f 11 18 12
f 14 15 21
f 14 21 32
f 14 32 20
f 15 22 23
f 15 23 21
f 16 24 25
f 16 25 26
f 16 26 17
f 17 26 27
f 17 27 28
f 19 30 46
f 19 46 29
f 20 32 33
f 20 33 31
f 21 23 32
f 22 34 35
f 22 35 36
f 22 36 23
f 23 37 50
f 23 50 33
f 23 33 32
f 23 36 38
f 23 38 37
f 24 39 40
f 24 40 41
f 24 41 42
f 24 42 43
f 24 43 27
f 24 27 25
f 25 27 26
f 27 44 28
f 27 43 42
f 27 42 44
f 28 44 45
f 29 46 54
f 29 54 47
f 30 48 46
f 31 33 49
f 33 50 49
f 34 51 35
f 35 51 52
f 35 52 36
f 36 52 53
f 36 53 38
f 37 38 54
f 37 54 46
f 37 46 50
f 38 53 55
f 38 55 56
f 38 56 57
f 38 57 58
f 38 58 47
f 38 47 54
f 39 59 60
f 39 60 61
f 39 61 62
f 39 62 63
f 39 63 40
f 40 63 41
f 41 63 42
f 42 45 44
f 42 63 45
f 46 48 50
f 48 64 50
f 49 50 64
f 51 65 53
f 51 53 52
f 53 66 67
f 53 67 68
f 53 68 55
f 53 65 66
f 55 68 56
f 56 68 69
f 56 69 70
f 56 70 58
f 56 58 57
f 59 71 60
f 60 71 72
f 60 72 73
f 60 73 74
f 60 74 75
f 60 75 61
f 61 75 62
f 65 76 66
f 66 76 77
f 66 77 78
f 66 78 67
f 67 78 79
f 67 79 68
f 68 79 69
f 69 79 72
f 69 72 71
f 69 71 80
f 69 80 70
f 72 79 73
f 73 81 77
f 73 77 74
f 73 79 81
f 74 77 75
f 77 81 78
f 78 81 79
