v 0.456609 0.628641 0.113865
v 0.456609 0.628522 0.106325
v 0.454324 0.628283 0.0688036
v 0.444098 0.628999 0.0437732
v 0.419085 0.628761 -0.0187621
v 0.406365 0.628641 -0.0525051
v 0.447219 0.627925 0.106325
v 0.447671 0.627686 0.113865
v 0.463814 0.626374 0.113865
v 0.452793 0.627567 0.0437732
v 0.431587 0.62888 0.00626832
v 0.442533 0.628045 0.0187754
v 0.405846 0.628045 -0.0434993
v 0.417001 0.628045 -0.0437762
v 0.415261 0.627209 -0.0525051
v 0.398365 0.62697 -0.0525051
v 0.399336 0.626374 -0.0474892
v 0.445521 0.624225 0.113865
v 0.465822 0.621838 0.113865
v 0.463354 0.626015 0.106325
v 0.462935 0.625538 0.0995013
v 0.451738 0.626732 0.0335461
v 0.428449 0.627686 -0.0187621
v 0.426608 0.626612 -0.0282727
v 0.424817 0.624464 -0.036627
v 0.417219 0.624703 -0.0525051
v 0.395495 0.622196 -0.0525051
v 0.442759 0.619212 0.113865
v 0.466818 0.619212 0.113865
v 0.464257 0.61969 0.0947297
v 0.46373 0.61587 0.0813107
v 0.463169 0.61408 0.0727609
v 0.457446 0.619212 0.0437732
v 0.453688 0.620287 0.0301425
v 0.45024 0.625299 0.025208
v 0.438441 0.626015 -0.00153231
v 0.439939 0.62709 0.00626832
v 0.426391 0.616229 -0.0400632
v 0.419947 0.619451 -0.0525051
v 0.393854 0.618496 -0.0525051
v 0.441847 0.6142 0.113865
v 0.468098 0.611693 0.113865
v 0.468919 0.60668 0.113865
v 0.467931 0.60668 0.106325
v 0.459697 0.60668 0.0437732
v 0.456659 0.60668 0.0312661
v 0.451705 0.616945 0.0217719
v 0.421043 0.613722 -0.0525051
v 0.438182 0.61408 -0.0133228
v 0.422349 0.60668 -0.0525051
v 0.440491 0.60668 0.113865
v 0.391787 0.60668 -0.0525051
v 0.46896 0.594148 0.113865
v 0.467973 0.594148 0.106325
v 0.461387 0.594148 0.0562803
v 0.459738 0.594148 0.0437732
v 0.456709 0.594148 0.0312661
v 0.452399 0.60668 0.0200782
v 0.449814 0.60668 0.0138247
v 0.449839 0.594148 0.0137758
v 0.424382 0.594148 -0.0477009
v 0.42239 0.594148 -0.0525051
v 0.426943 -0.590309 0.109142
v 0.429395 -0.590309 0.113865
v 0.383478 -0.590309 -0.0525051
v 0.38962 -0.590309 -0.0284192
v 0.46896 -0.590309 0.113865
v 0.467973 -0.590309 0.106325
v 0.465814 -0.590309 0.0899093
v 0.461387 -0.590309 0.0562803
v 0.459738 -0.590309 0.0437732
v 0.458793 -0.590309 0.0398647
v 0.452424 0.594148 0.0200293
v 0.456709 -0.590309 0.0312661
v 0.449839 -0.590309 0.0137758
v 0.424382 -0.590309 -0.0477009
v 0.423269 -0.590309 -0.050388
v 0.42239 -0.590309 -0.0525051
v 0.452424 -0.590309 0.0200293
f 1 2 3
f 1 3 4
f 1 4 5
f 1 5 6
f 1 6 7
f 1 7 8
f 1 8 18
f 1 18 28
f 1 28 41
f 1 41 51
f 1 51 64
f 1 64 67
f 1 67 53
f 1 53 43
f 1 43 42
f 1 42 29
f 1 29 19
f 1 19 9
f 1 9 2
f 2 9 3
f 3 10 4
f 3 9 10
f 4 11 6
f 4 6 5
f 4 10 12
f 4 12 11
f 6 13 8
f 6 8 7
f 6 11 14
f 6 14 15
f 6 15 26
f 6 26 39
f 6 39 48
f 6 48 50
f 6 50 62
f 6 62 78
f 6 78 65
f 6 65 52
f 6 52 40
f 6 40 27
f 6 27 16
f 6 16 13
f 8 13 16
f 8 16 17
f 8 17 18
f 9 19 20
f 9 20 10
f 10 20 21
f 10 21 22
f 10 22 12
f 11 12 14
f 12 22 23
f 12 23 14
f 14 23 15
f 15 23 24
f 15 24 25
f 15 25 26
f 16 27 17
f 17 27 18
f 18 27 28
f 19 21 20
f 19 29 21
f 21 29 30
f 21 30 31
f 21 31 32
f 21 32 33
f 21 33 22
f 22 34 35
f 22 35 36
f 22 36 24
f 22 24 37
f 22 37 23
f 22 33 34
f 23 37 24
f 24 36 25
f 25 36 35
f 25 35 38
f 25 38 39
f 25 39 26
f 27 40 28
f 28 40 41
f 29 42 32
f 29 32 31
f 29 31 30
f 32 42 43
f 32 43 44
f 32 44 45
f 32 45 33
f 33 45 46
f 33 46 34
f 34 46 47
f 34 47 35
f 35 47 38
f 38 48 39
f 38 47 49
f 38 49 50
f 38 50 48
f 40 51 41
f 40 52 51
f 43 53 54
f 43 54 44
f 44 54 55
f 44 55 45
f 45 55 56
f 45 56 57
f 45 57 46
f 46 57 58
f 46 58 47
f 47 58 49
f 49 58 59
f 49 59 50
f 50 59 60
f 50 60 61
f 50 61 62
f 51 52 63
f 51 63 64
f 52 65 66
f 52 66 63
f 53 67 68
f 53 68 54
f 54 68 69
f 54 69 55
f 55 69 70
f 55 70 71
f 55 71 56
f 56 71 72
f 56 72 57
f 57 73 58
f 57 72 74
f 57 74 79
f 57 79 73
f 58 73 60
f 58 60 59
f 60 73 79
f 60 79 75
f 60 75 76
f 60 76 61
f 61 76 77
f 61 77 62
f 62 77 78
f 63 66 65
f 63 65 78
f 63 78 77
f 63 77 76
f 63 76 75
f 63 75 79
f 63 79 74
f 63 74 72
f 63 72 71
f 63 71 70
f 63 70 69
f 63 69 68
f 63 68 67
f 63 67 64
