v 0.156616 -0.590309 -0.249712
v 0.242107 -0.590309 -0.249712
v 0.167562 -0.590309 -0.242693
v 0.316613 0.605731 -0.155255
v 0.172602 0.605253 -0.249712
v 0.243954 -0.590309 -0.248343
v 0.242107 0.594153 -0.249712
v 0.305725 -0.590309 -0.155615
v 0.316633 0.606686 -0.155255
v 0.172621 0.606686 -0.249712
v 0.306629 -0.590309 -0.155255
v 0.245897 -0.590309 -0.246892
v 0.245897 0.594153 -0.246892
v 0.242049 0.606686 -0.249712
v 0.319499 0.619456 -0.155255
v 0.173929 0.614563 -0.249712
v 0.353145 -0.590309 -0.155255
v 0.251514 -0.590309 -0.242592
v 0.245858 0.606686 -0.246864
v 0.254053 0.594153 -0.240641
v 0.241183 0.612653 -0.249712
v 0.173968 0.614682 -0.249712
v 0.320057 0.620769 -0.155255
v 0.337813 -0.590309 -0.17521
v 0.353145 0.594153 -0.155255
v 0.322211 -0.590309 -0.188331
v 0.309765 0.594153 -0.197883
v 0.317921 0.594153 -0.191623
v 0.288604 0.614802 -0.213335
v 0.254015 0.606686 -0.240613
v 0.240164 0.616592 -0.249712
v 0.17945 0.620889 -0.249712
v 0.33033 0.62805 -0.155255
v 0.322115 0.627095 -0.159074
v 0.184568 0.625663 -0.249712
v 0.331503 -0.590309 -0.180638
v 0.337813 0.594153 -0.17521
v 0.337794 0.604537 -0.175182
v 0.353087 0.606686 -0.155255
v 0.324174 -0.590309 -0.186824
v 0.324174 0.594153 -0.186824
v 0.309726 0.606686 -0.197855
v 0.317883 0.606686 -0.191595
v 0.322461 0.619218 -0.185455
v 0.337755 0.612892 -0.175145
v 0.324135 0.606686 -0.186796
v 0.252341 0.619218 -0.239328
v 0.300204 0.625424 -0.200148
v 0.243453 0.619456 -0.246013
v 0.236893 0.622202 -0.249712
v 0.330657 0.628169 -0.155255
v 0.33056 0.628289 -0.155495
v 0.185549 0.62626 -0.249712
v 0.185722 0.62614 -0.249444
v 0.329214 -0.590309 -0.18257
v 0.331503 0.594153 -0.180638
v 0.332753 0.607879 -0.179491
v 0.341641 0.607879 -0.170142
v 0.35049 0.619218 -0.155255
v 0.330003 0.619218 -0.179195
v 0.313939 0.62614 -0.188562
v 0.336255 0.619218 -0.17349
v 0.341256 0.619218 -0.167239
v 0.250552 0.625663 -0.237941
v 0.264287 0.626379 -0.226363
v 0.236374 0.623873 -0.24937
v 0.235989 0.623514 -0.249712
v 0.343661 0.627572 -0.155255
v 0.343642 0.627572 -0.15556
v 0.331542 0.627931 -0.16882
v 0.306475 0.628885 -0.181396
v 0.218926 0.628766 -0.243942
v 0.193917 0.627692 -0.249712
v 0.193917 0.627334 -0.247862
v 0.339236 0.626618 -0.164603
v 0.344104 0.627453 -0.155255
v 0.327405 0.626737 -0.176966
v 0.235027 0.62435 -0.249712
v 0.243954 0.626976 -0.240391
v 0.2554 0.627334 -0.230894
v 0.278023 0.626856 -0.214759
v 0.31846 0.627811 -0.181239
v 0.243954 0.629005 -0.231431
v 0.231911 0.62805 -0.2447
v 0.218926 0.62805 -0.249712
v 0.306475 0.627453 -0.191447
v 0.229025 0.626976 -0.249712
v 0.268654 0.627931 -0.21892
f 1 2 6
f 1 6 12
f 1 12 18
f 1 18 26
f 1 26 40
f 1 40 55
f 1 55 36
f 1 36 24
f 1 24 17
f 1 17 11
f 1 11 8
f 1 8 3
f 1 3 4
f 1 4 5
f 1 5 10
f 1 10 16
f 1 16 22
f 1 22 32
f 1 32 35
f 1 35 53
f 1 53 73
f 1 73 85
f 1 85 87
f 1 87 78
f 1 78 67
f 1 67 50
f 1 50 31
f 1 31 21
f 1 21 14
f 1 14 7
f 1 7 2
f 2 7 6
f 3 8 4
f 4 9 10
f 4 10 5
f 4 8 11
f 4 11 17
f 4 17 25
f 4 25 39
f 4 39 59
f 4 59 76
f 4 76 68
f 4 68 51
f 4 51 33
f 4 33 23
f 4 23 15
f 4 15 9
f 6 7 13
f 6 13 12
f 7 14 13
f 9 15 16
f 9 16 10
f 12 13 18
f 13 14 19
f 13 19 30
f 13 30 20
f 13 20 18
f 14 21 19
f 15 22 16
f 15 23 22
f 17 24 37
f 17 37 25
f 18 20 27
f 18 27 28
f 18 28 26
f 19 21 29
f 19 29 30
f 20 30 42
f 20 42 27
f 21 31 29
f 22 23 32
f 23 33 34
f 23 34 35
f 23 35 32
f 24 36 56
f 24 56 37
f 25 37 38
f 25 38 39
f 26 28 41
f 26 41 40
f 27 42 43
f 27 43 28
f 28 43 46
f 28 46 41
f 29 44 45
f 29 45 46
f 29 46 43
f 29 43 42
f 29 42 30
f 29 31 47
f 29 47 48
f 29 48 44
f 31 49 47
f 31 50 49
f 33 51 52
f 33 52 34
f 34 52 53
f 34 53 54
f 34 54 35
f 35 54 53
f 36 55 56
f 37 56 38
f 38 56 57
f 38 57 45
f 38 45 58
f 38 58 39
f 39 58 45
f 39 45 59
f 40 41 55
f 41 46 56
f 41 56 55
f 44 60 45
f 44 48 61
f 44 61 60
f 45 57 46
f 45 60 62
f 45 62 63
f 45 63 59
f 46 57 56
f 47 49 48
f 48 64 65
f 48 65 61
f 48 49 64
f 49 50 66
f 49 66 64
f 50 67 66
f 51 68 52
f 52 68 69
f 52 69 70
f 52 70 71
f 52 71 72
f 52 72 73
f 52 73 74
f 52 74 53
f 53 74 73
f 59 63 75
f 59 75 76
f 60 61 77
f 60 77 62
f 61 65 77
f 62 77 75
f 62 75 63
f 64 66 78
f 64 78 79
f 64 79 65
f 65 79 80
f 65 80 81
f 65 81 77
f 66 67 78
f 68 76 69
f 69 76 75
f 69 75 70
f 70 82 71
f 70 75 77
f 70 77 82
f 71 83 72
f 71 82 83
f 72 83 84
f 72 84 85
f 72 85 73
f 77 81 86
f 77 86 82
f 78 87 79
f 79 87 84
f 79 84 80
f 80 84 88
f 80 88 82
f 80 82 86
f 80 86 81
f 82 88 83
f 83 88 84
f 84 87 85
