v -0.343149 0.628173 0.458584
v -0.342881 0.628173 0.455468
v -0.356547 0.628889 0.444099
v -0.35601 0.627337 0.455561
v -0.354475 0.626978 0.458584
v -0.335549 0.627337 0.458584
v -0.4441 0.62877 0.269124
v -0.431582 0.628889 0.306497
v -0.394057 0.629009 0.394058
v -0.381732 0.628053 0.419004
v -0.36981 0.628292 0.432247
v -0.393684 0.627575 0.405743
v -0.389273 0.62662 0.414776
v -0.363059 0.625664 0.450702
v -0.359751 0.619214 0.458584
v -0.334416 0.626381 0.458584
v -0.436723 0.6265 0.269124
v -0.444175 0.62877 0.269124
v -0.4441 0.62877 0.281477
v -0.40656 0.628889 0.369038
v -0.407082 0.627934 0.381316
v -0.402924 0.627217 0.394058
v -0.400838 0.625903 0.401014
v -0.37449 0.623872 0.436865
v -0.364445 0.619214 0.452501
v -0.376278 0.61563 0.439091
v -0.359855 0.618736 0.458584
v -0.330005 0.620647 0.458584
v -0.436664 0.626381 0.269124
v -0.452938 0.627695 0.269124
v -0.444383 0.627814 0.293161
v -0.428974 0.627934 0.331517
v -0.417648 0.628053 0.356537
v -0.415025 0.627217 0.369038
v -0.41349 0.626142 0.376995
v -0.411597 0.622678 0.385341
v -0.408736 0.618736 0.393298
v -0.402388 0.619214 0.403017
v -0.387798 0.612525 0.425329
v -0.362344 0.606672 0.458584
v -0.328798 0.61778 0.458584
v -0.43346 0.619214 0.269124
v -0.451671 0.62662 0.281477
v -0.457736 0.619214 0.269124
v -0.440479 0.627456 0.306497
v -0.438795 0.626381 0.315196
v -0.425323 0.625425 0.350287
v -0.414742 0.618736 0.381316
v -0.413222 0.614316 0.388624
v -0.403684 0.606672 0.404705
v -0.371986 0.606672 0.446028
v -0.362374 0.602969 0.458584
v -0.326816 0.606672 0.458584
v -0.43343 0.619094 0.269124
v -0.450628 0.625664 0.288432
v -0.455158 0.619214 0.281477
v -0.460016 0.606672 0.269124
v -0.451835 0.619214 0.291362
v -0.440285 0.619333 0.31922
v -0.438542 0.615153 0.326973
v -0.450345 0.611211 0.300209
v -0.416679 0.606672 0.381539
v -0.41346 0.606672 0.389069
v -0.409928 0.606672 0.39532
v -0.409958 0.594129 0.395375
v -0.403699 0.594129 0.404742
v -0.383074 0.594129 0.431654
v -0.372016 0.594129 0.446065
v -0.362404 0.594129 0.458584
v -0.431224 0.606672 0.269124
v -0.30783 -0.591296 0.458584
v -0.310482 -0.591296 0.448087
v -0.457379 0.606672 0.281477
v -0.460061 0.594129 0.269124
v -0.421865 0.606672 0.369038
v -0.452446 0.60691 0.29522
v -0.450374 0.602969 0.300302
v -0.442595 0.606672 0.319016
v -0.424921 0.594129 0.361786
v -0.416724 0.594129 0.381539
v -0.413475 0.594129 0.389125
v -0.412656 -0.591296 0.39059
v -0.409958 -0.591296 0.395375
v -0.408498 -0.591296 0.397564
v -0.403699 -0.591296 0.404742
v -0.383074 -0.591296 0.431654
v -0.372016 -0.591296 0.446065
v -0.362404 -0.591296 0.458584
v -0.410569 -0.591296 0.272963
v -0.420927 -0.591296 0.269124
v -0.457423 0.594129 0.281477
v -0.452997 0.594129 0.293996
v -0.460061 -0.591296 0.269124
v -0.427514 0.594129 0.355536
v -0.447796 0.594129 0.306571
v -0.424921 -0.591296 0.361786
v -0.416724 -0.591296 0.381539
v -0.415964 -0.591296 0.38332
v -0.413475 -0.591296 0.389125
v -0.457423 -0.591296 0.281477
v -0.456395 -0.591296 0.284407
v -0.452997 -0.591296 0.293996
v -0.452386 -0.591296 0.29548
v -0.449778 -0.591296 0.301786
v -0.427514 -0.591296 0.355536
v -0.447796 -0.591296 0.306571
f 1 2 3
f 1 3 4
f 1 4 5
f 1 5 15
f 1 15 27
f 1 27 40
f 1 40 52
f 1 52 69
f 1 69 88
f 1 88 71
f 1 71 53
f 1 53 41
f 1 41 28
f 1 28 16
f 1 16 6
f 1 6 2
f 2 7 3
f 2 6 7
f 3 8 9
f 3 9 10
f 3 10 11
f 3 11 4
f 3 7 8
f 4 12 13
f 4 13 5
f 4 11 10
f 4 10 12
f 5 13 14
f 5 14 15
f 6 16 17
f 6 17 7
f 7 18 8
f 7 17 29
f 7 29 42
f 7 42 54
f 7 54 70
f 7 70 90
f 7 90 93
f 7 93 74
f 7 74 57
f 7 57 44
f 7 44 30
f 7 30 18
f 8 18 19
f 8 19 9
f 9 19 20
f 9 20 21
f 9 21 22
f 9 22 12
f 9 12 10
f 12 22 23
f 12 23 13
f 13 23 14
f 14 23 24
f 14 24 25
f 14 25 15
f 15 25 26
f 15 26 27
f 16 28 17
f 17 28 29
f 18 30 19
f 19 30 31
f 19 31 32
f 19 32 20
f 20 32 33
f 20 33 21
f 21 33 34
f 21 34 22
f 22 34 35
f 22 35 23
f 23 35 36
f 23 36 37
f 23 37 38
f 23 38 24
f 24 38 26
f 24 26 25
f 26 38 39
f 26 39 40
f 26 40 27
f 28 41 42
f 28 42 29
f 30 43 31
f 30 44 43
f 31 43 45
f 31 45 32
f 32 45 34
f 32 34 33
f 34 45 46
f 34 46 35
f 35 46 47
f 35 47 36
f 36 47 48
f 36 48 49
f 36 49 37
f 37 49 38
f 38 49 50
f 38 50 39
f 39 50 51
f 39 51 40
f 40 51 52
f 41 53 54
f 41 54 42
f 43 55 45
f 43 44 56
f 43 56 55
f 44 57 56
f 45 55 46
f 46 55 47
f 47 55 58
f 47 58 59
f 47 59 60
f 47 60 48
f 48 60 49
f 49 60 61
f 49 61 62
f 49 62 63
f 49 63 64
f 49 64 50
f 50 64 65
f 50 65 66
f 50 66 67
f 50 67 52
f 50 52 51
f 52 67 68
f 52 68 69
f 53 70 54
f 53 71 72
f 53 72 70
f 55 56 58
f 56 61 58
f 56 57 73
f 56 73 61
f 57 74 91
f 57 91 73
f 58 61 60
f 58 60 59
f 61 75 62
f 61 73 76
f 61 76 77
f 61 77 78
f 61 78 75
f 62 75 94
f 62 94 79
f 62 79 80
f 62 80 63
f 63 80 81
f 63 81 65
f 63 65 64
f 65 81 82
f 65 82 83
f 65 83 84
f 65 84 66
f 66 84 85
f 66 85 86
f 66 86 67
f 67 86 87
f 67 87 68
f 68 87 88
f 68 88 69
f 70 72 89
f 70 89 90
f 71 88 87
f 71 87 86
f 71 86 85
f 71 85 84
f 71 84 83
f 71 83 82
f 71 82 99
f 71 99 98
f 71 98 97
f 71 97 96
f 71 96 105
f 71 105 106
f 71 106 104
f 71 104 103
f 71 103 102
f 71 102 101
f 71 101 100
f 71 100 93
f 71 93 90
f 71 90 89
f 71 89 72
f 73 91 92
f 73 92 76
f 74 93 100
f 74 100 91
f 75 78 77
f 75 77 94
f 76 92 77
f 77 92 95
f 77 95 94
f 79 94 105
f 79 105 96
f 79 96 97
f 79 97 80
f 80 97 98
f 80 98 81
f 81 98 99
f 81 99 82
f 91 100 101
f 91 101 92
f 92 101 102
f 92 102 103
f 92 103 104
f 92 104 95
f 94 95 106
f 94 106 105
f 95 104 106
