v -0.0447896 -0.450224 -0.31114
v -0.0395153 -0.450224 -0.311836
v -0.0447896 -0.450224 -0.282629
v -0.0447896 -0.14379 -0.318567
v -0.0410596 -0.14379 -0.332744
v -0.0390849 -0.157095 -0.332744
v -0.0385617 -0.158784 -0.332744
v -0.0347979 -0.16607 -0.332744
v -0.0319961 -0.450224 -0.312827
v 0.041423 -0.450224 -0.283075
v -0.0447896 0.594208 -0.282629
v -0.0447896 0.506564 -0.318518
v -0.0410596 0.506564 -0.332744
v -0.0334308 -0.167865 -0.332744
v -0.00624883 -0.450224 -0.316187
v -0.0187638 -0.450224 -0.314569
v 0.041423 -0.450224 -0.311586
v 0.041423 0.594208 -0.283075
v 0.041423 0.604345 -0.28311
v -0.0447896 0.605717 -0.282673
v -0.0447896 0.507515 -0.318503
v -0.0447896 0.606668 -0.311096
v -0.0447896 0.607724 -0.310914
v -0.0393465 0.516385 -0.332744
v -0.0264517 -0.176419 -0.332744
v -0.0058522 -0.185605 -0.332744
v 0.0062493 -0.450224 -0.316187
v -0.0194305 -0.180642 -0.332744
v -0.0187638 -0.180959 -0.332744
v 0.0187643 -0.450224 -0.314569
v 0.0372119 -0.161741 -0.332744
v 0.0392626 -0.155511 -0.332744
v 0.0394398 -0.154455 -0.332744
v 0.0410601 -0.14379 -0.332744
v 0.041423 -0.14379 -0.330237
v 0.041423 0.606668 -0.283119
v -0.0447896 0.606668 -0.282678
v -0.0447896 0.619233 -0.308785
v -0.0391524 0.517441 -0.332744
v 0.00575984 -0.185394 -0.332744
v 0.0175322 -0.180853 -0.332744
v 0.0188571 -0.180326 -0.332744
v 0.0254902 -0.176313 -0.332744
v 0.0260049 -0.175996 -0.332744
v 0.0264522 -0.175468 -0.332744
v 0.0325536 -0.168077 -0.332744
v 0.0410348 0.506564 -0.332744
v 0.041423 0.506564 -0.330193
v 0.041423 0.616805 -0.284792
v -0.0447896 0.619233 -0.284743
v -0.0187638 0.61596 -0.313612
v -0.0273125 0.614059 -0.313048
v -0.0247471 0.537715 -0.332744
v -0.0296923 0.532435 -0.332744
v -0.0367726 0.523671 -0.332744
v -0.0447896 0.619867 -0.308412
v -0.000485006 0.625463 -0.312803
v 0.0390516 0.516807 -0.332744
v 0.041423 0.619128 -0.309271
v 0.041423 0.619233 -0.285194
v 0.041423 0.62578 -0.287456
v -0.0447896 0.625358 -0.28699
v -0.00528678 0.619656 -0.314122
v -0.0193968 0.540566 -0.332744
v -0.0200719 0.540249 -0.332744
v -0.0212618 0.539615 -0.332744
v -0.0447896 0.627998 -0.303384
v -0.0312704 0.628209 -0.304213
v -0.0187638 0.628314 -0.305022
v -0.00528678 0.627681 -0.307328
v 0.000477038 0.625463 -0.312803
v -0.00624883 0.545106 -0.332744
v 0.0367309 0.522509 -0.332744
v 0.036444 0.523037 -0.332744
v 0.0358279 0.523882 -0.332744
v 0.0292793 0.532118 -0.332744
v 0.0254395 0.536025 -0.332744
v 0.0228235 0.538031 -0.332744
v 0.027313 0.614059 -0.313048
v 0.0187643 0.61596 -0.313612
v 0.041423 0.627998 -0.30359
v 0.041423 0.628314 -0.293823
v -0.0447896 0.625991 -0.28725
v -0.0182322 0.540988 -0.332744
v -0.0447896 0.628103 -0.302683
v -0.0447896 0.628526 -0.293985
v 0.0187643 0.628314 -0.305022
v 0.00528726 0.627681 -0.307328
v 0.0312709 0.628209 -0.304213
v 0.00528726 0.619656 -0.314122
v 0.0062493 0.544895 -0.332744
v -0.00502518 0.545106 -0.332744
v 0.0189162 0.540249 -0.332744
v -0.0447896 0.628314 -0.293387
v 0.00726198 0.544578 -0.332744
f 1 2 9
f 1 9 16
f 1 16 15
f 1 15 27
f 1 27 30
f 1 30 17
f 1 17 10
f 1 10 3
f 1 3 11
f 1 11 20
f 1 20 37
f 1 37 50
f 1 50 62
f 1 62 83
f 1 83 94
f 1 94 86
f 1 86 85
f 1 85 67
f 1 67 56
f 1 56 38
f 1 38 23
f 1 23 22
f 1 22 21
f 1 21 12
f 1 12 4
f 1 4 5
f 1 5 6
f 1 6 7
f 1 7 8
f 1 8 2
f 2 8 9
f 3 10 18
f 3 18 11
f 4 12 13
f 4 13 5
f 5 13 24
f 5 24 39
f 5 39 55
f 5 55 54
f 5 54 53
f 5 53 66
f 5 66 65
f 5 65 64
f 5 64 84
f 5 84 72
f 5 72 92
f 5 92 91
f 5 91 95
f 5 95 93
f 5 93 78
f 5 78 77
f 5 77 76
f 5 76 75
f 5 75 74
f 5 74 73
f 5 73 58
f 5 58 47
f 5 47 34
f 5 34 33
f 5 33 32
f 5 32 31
f 5 31 46
f 5 46 45
f 5 45 44
f 5 44 43
f 5 43 42
f 5 42 41
f 5 41 40
f 5 40 26
f 5 26 29
f 5 29 28
f 5 28 25
f 5 25 14
f 5 14 8
f 5 8 7
f 5 7 6
f 8 14 15
f 8 15 16
f 8 16 9
f 10 17 35
f 10 35 48
f 10 48 59
f 10 59 81
f 10 81 82
f 10 82 61
f 10 61 60
f 10 60 49
f 10 49 36
f 10 36 19
f 10 19 18
f 11 18 19
f 11 19 20
f 12 21 13
f 13 21 22
f 13 22 23
f 13 23 24
f 14 25 15
f 15 26 27
f 15 25 28
f 15 28 29
f 15 29 26
f 17 30 31
f 17 31 32
f 17 32 33
f 17 33 34
f 17 34 35
f 19 36 20
f 20 36 37
f 23 38 39
f 23 39 24
f 26 40 27
f 27 40 41
f 27 41 42
f 27 42 43
f 27 43 44
f 27 44 45
f 27 45 46
f 27 46 31
f 27 31 30
f 34 47 48
f 34 48 35
f 36 49 50
f 36 50 37
f 38 51 52
f 38 52 53
f 38 53 54
f 38 54 55
f 38 55 39
f 38 56 57
f 38 57 51
f 47 58 59
f 47 59 48
f 49 60 50
f 50 60 61
f 50 61 62
f 51 57 63
f 51 63 64
f 51 64 65
f 51 65 52
f 52 65 66
f 52 66 53
f 56 67 57
f 57 67 68
f 57 68 69
f 57 69 70
f 57 70 88
f 57 88 71
f 57 71 92
f 57 92 72
f 57 72 63
f 58 73 59
f 59 73 74
f 59 74 75
f 59 75 76
f 59 76 77
f 59 77 78
f 59 78 79
f 59 79 80
f 59 80 71
f 59 71 81
f 61 82 83
f 61 83 62
f 63 72 84
f 63 84 64
f 67 85 68
f 68 85 86
f 68 86 69
f 69 86 87
f 69 87 88
f 69 88 70
f 71 88 87
f 71 87 89
f 71 89 81
f 71 80 90
f 71 90 91
f 71 91 92
f 78 93 79
f 79 93 80
f 80 93 90
f 81 89 82
f 82 89 87
f 82 87 86
f 82 86 94
f 82 94 83
f 90 93 95
f 90 95 91
