v -0.226299 -0.450224 -0.257909
v -0.22008 -0.450224 -0.2606
v -0.226299 -0.450224 -0.233133
v -0.226299 0.594123 -0.257909
v -0.213826 -0.450224 -0.263191
v -0.22008 0.594123 -0.2606
v -0.222568 -0.450224 -0.227988
v -0.226299 -0.450118 -0.226031
v -0.226299 0.606694 -0.257864
v -0.200288 -0.450224 -0.268798
v -0.213826 0.594123 -0.263191
v -0.220009 0.606694 -0.260582
v -0.0447896 -0.450224 -0.282622
v -0.226299 0.594334 -0.226031
v -0.226299 0.619159 -0.255608
v -0.213364 0.613877 -0.263001
v -0.131369 -0.450224 -0.297343
v -0.131369 0.594123 -0.297343
v -0.213755 0.606694 -0.263173
v -0.131369 0.606694 -0.297298
v -0.0447896 -0.450224 -0.31114
v -0.0447896 0.594123 -0.282622
v -0.0447896 0.606694 -0.282667
v -0.226299 0.606694 -0.226122
v -0.226299 0.62518 -0.2528
v -0.209918 0.622223 -0.261379
v -0.206009 0.618525 -0.264423
v -0.178274 0.616835 -0.276516
v -0.151517 0.614828 -0.288311
v -0.124333 -0.450224 -0.300088
v -0.124333 0.594123 -0.300088
v -0.124209 0.606694 -0.300061
v -0.0501909 -0.450224 -0.310433
v -0.0447896 -0.143766 -0.318559
v -0.0447896 0.618208 -0.28457
v -0.0447896 0.619159 -0.284733
v -0.226299 0.619159 -0.228414
v -0.226299 0.626765 -0.251786
v -0.201567 0.626026 -0.263263
v -0.174827 0.62518 -0.275022
v -0.143895 0.619053 -0.28996
v -0.131369 0.619159 -0.294951
v -0.118079 -0.450224 -0.30122
v -0.0447896 0.506654 -0.318514
v -0.116089 0.615145 -0.300867
v -0.117955 0.606694 -0.301202
v -0.0447896 0.507499 -0.318496
v -0.106335 -0.450224 -0.303041
v -0.0447896 0.625392 -0.28698
v -0.0447896 0.62592 -0.287242
v -0.226299 0.620638 -0.229184
v -0.166477 0.626765 -0.276707
v -0.226299 0.627927 -0.248398
v -0.218908 0.627716 -0.253253
v -0.139737 0.626237 -0.288556
v -0.148088 0.623173 -0.286681
v -0.119696 0.619265 -0.298557
v -0.106335 0.617469 -0.301592
v -0.0447896 0.619159 -0.308784
v -0.0447896 0.606694 -0.311094
v -0.0563028 0.606694 -0.309582
v -0.106335 0.606694 -0.302996
v -0.106335 0.623702 -0.299345
v -0.226299 0.627293 -0.233622
v -0.0447896 0.62835 -0.293384
v -0.131369 0.627399 -0.290186
v -0.226299 0.62835 -0.244375
v -0.193892 0.628878 -0.25646
v -0.181384 0.628033 -0.267313
v -0.156367 0.627821 -0.278682
v -0.0944311 0.620215 -0.302199
v -0.0688108 0.619159 -0.305768
v -0.0989795 0.625075 -0.299979
v -0.0906467 0.625814 -0.300604
v -0.0447896 0.619898 -0.308413
v -0.226299 0.628244 -0.237001
v -0.0447896 0.628455 -0.293982
v -0.118861 0.628244 -0.291989
v -0.218908 0.628772 -0.24395
v -0.0688108 0.628983 -0.293982
v -0.131369 0.628878 -0.281472
v -0.0813189 0.626448 -0.301184
v -0.0688108 0.627082 -0.301945
v -0.0563028 0.62761 -0.302679
v -0.0447896 0.627927 -0.303376
v -0.0447896 0.628033 -0.302679
v -0.0563028 0.628772 -0.293982
v -0.0813189 0.628772 -0.293982
f 1 2 5
f 1 5 10
f 1 10 17
f 1 17 30
f 1 30 43
f 1 43 48
f 1 48 33
f 1 33 21
f 1 21 13
f 1 13 7
f 1 7 3
f 1 3 8
f 1 8 14
f 1 14 24
f 1 24 37
f 1 37 51
f 1 51 64
f 1 64 76
f 1 76 67
f 1 67 53
f 1 53 38
f 1 38 25
f 1 25 15
f 1 15 9
f 1 9 4
f 1 4 6
f 1 6 2
f 2 6 11
f 2 11 5
f 3 7 8
f 4 9 6
f 5 11 10
f 6 9 12
f 6 12 19
f 6 19 11
f 7 13 8
f 8 13 22
f 8 22 14
f 9 15 16
f 9 16 12
f 10 11 18
f 10 18 17
f 11 19 20
f 11 20 18
f 12 16 19
f 13 21 34
f 13 34 44
f 13 44 47
f 13 47 60
f 13 60 59
f 13 59 75
f 13 75 85
f 13 85 86
f 13 86 77
f 13 77 65
f 13 65 50
f 13 50 49
f 13 49 36
f 13 36 35
f 13 35 23
f 13 23 22
f 14 22 23
f 14 23 24
f 15 25 26
f 15 26 27
f 15 27 16
f 16 27 28
f 16 28 29
f 16 29 20
f 16 20 19
f 17 18 31
f 17 31 30
f 18 20 31
f 20 29 32
f 20 32 31
f 21 33 34
f 23 35 24
f 24 35 36
f 24 36 37
f 25 38 39
f 25 39 26
f 26 39 40
f 26 40 27
f 27 40 28
f 28 40 29
f 29 40 41
f 29 41 42
f 29 42 32
f 30 34 43
f 30 31 34
f 31 32 44
f 31 44 34
f 32 42 45
f 32 45 46
f 32 46 47
f 32 47 44
f 33 48 34
f 34 48 43
f 36 49 37
f 37 49 50
f 37 50 51
f 38 52 39
f 38 53 54
f 38 54 52
f 39 52 55
f 39 55 40
f 40 56 41
f 40 55 56
f 41 56 42
f 42 57 45
f 42 56 55
f 42 55 57
f 45 58 59
f 45 59 60
f 45 60 61
f 45 61 62
f 45 62 46
f 45 57 63
f 45 63 58
f 46 62 47
f 47 62 61
f 47 61 60
f 50 64 51
f 50 65 64
f 52 66 55
f 52 54 66
f 53 67 68
f 53 68 54
f 54 68 69
f 54 69 70
f 54 70 66
f 55 66 57
f 57 66 63
f 58 71 72
f 58 72 59
f 58 63 73
f 58 73 71
f 59 72 71
f 59 71 73
f 59 73 74
f 59 74 75
f 63 66 73
f 64 65 76
f 65 77 76
f 66 70 78
f 66 78 73
f 67 76 79
f 67 79 68
f 68 79 80
f 68 80 81
f 68 81 78
f 68 78 69
f 69 78 70
f 73 78 74
f 74 78 82
f 74 82 75
f 75 82 83
f 75 83 84
f 75 84 85
f 76 77 79
f 77 86 87
f 77 87 79
f 78 81 88
f 78 88 85
f 78 85 84
f 78 84 83
f 78 83 82
f 79 87 80
f 80 87 86
f 80 86 85
f 80 85 88
f 80 88 81
