v -0.00624312 -0.606739 -0.316188
v -0.00624312 -0.591742 -0.316188
v 0.00624312 -0.606739 -0.316188
v -0.00725304 -0.620376 -0.314377
v -0.0275432 -0.614617 -0.313072
v -0.0687662 -0.606739 -0.307979
v -0.0207492 -0.591742 -0.314293
v 0.00624312 -0.591742 -0.316188
v 0.0414066 -0.590309 -0.311515
v 0.0274514 -0.614617 -0.313072
v 0.00716123 -0.620376 -0.314377
v 0.0523321 -0.590309 -0.310126
v 0.0938305 -0.606739 -0.304653
v -0.00376424 -0.626011 -0.313157
v -0.012119 -0.625304 -0.312651
v -0.106317 -0.619842 -0.301496
v -0.116232 -0.616078 -0.300865
v -0.106317 -0.606739 -0.303011
v -0.0963094 -0.591742 -0.304359
v 0.0415902 -0.590309 -0.311515
v 0.0414066 -0.590309 -0.275228
v -0.106317 -0.591742 -0.303011
v -0.108704 -0.591742 -0.302675
v -0.118068 -0.591742 -0.301201
v -0.119262 -0.591742 -0.300991
v -0.124312 -0.591742 -0.300065
v -0.131381 -0.591742 -0.297329
v -0.13386 -0.591742 -0.296318
v -0.181234 -0.591742 -0.276701
v -0.193904 -0.591742 -0.27144
v -0.213735 -0.591742 -0.263189
v -0.219978 -0.591742 -0.260579
v -0.222274 -0.591742 -0.259611
v -0.231363 -0.591742 -0.255654
v -0.233015 -0.591742 -0.254854
v -0.239534 -0.591742 -0.251528
v -0.240819 -0.591742 -0.250602
v -0.24743 -0.591742 -0.245635
v -0.25404 -0.591742 -0.240625
v -0.289112 -0.591742 -0.213726
v -0.319134 -0.591742 -0.190657
v -0.324092 -0.591742 -0.186785
v -0.325561 -0.591742 -0.185564
v -0.332722 -0.591742 -0.179502
v -0.337771 -0.591742 -0.175166
v -0.397815 -0.591742 -0.0969517
v -0.40259 -0.591742 -0.0906795
v -0.403875 -0.591742 -0.0888693
v -0.408833 -0.591742 -0.0815446
v -0.412872 -0.591742 -0.0752723
v -0.413423 -0.591742 -0.0740515
v -0.416637 -0.591742 -0.066348
v -0.450331 -0.591742 0.0149814
v -0.452351 -0.591742 0.0199908
v -0.456666 -0.591742 0.0312725
v -0.459696 -0.591742 0.043775
v -0.468969 -0.591742 0.113865
v 0.0120272 -0.625304 -0.312651
v 0.106317 -0.606739 -0.302969
v 0.116232 -0.616074 -0.300865
v 0.106317 -0.619842 -0.301496
v 0.00367243 -0.626011 -0.313157
v 0.102369 -0.590309 -0.303517
v -0.00725304 -0.62813 -0.307684
v -0.0437937 -0.628306 -0.30398
v -0.0562799 -0.628053 -0.303222
v -0.0687662 -0.627636 -0.302506
v -0.0812524 -0.62707 -0.301749
v -0.0938305 -0.626348 -0.300991
v -0.102185 -0.625798 -0.300486
v -0.11054 -0.624413 -0.29977
v -0.118068 -0.606739 -0.301201
v -0.119721 -0.619842 -0.299097
v -0.131381 -0.61924 -0.295603
v -0.124312 -0.606739 -0.300065
v 0.429307 -0.590309 0.113823
v -0.131381 -0.606739 -0.297329
v -0.193904 -0.606739 -0.27144
v -0.213735 -0.606739 -0.263189
v -0.219978 -0.606739 -0.260579
v -0.231363 -0.606739 -0.255654
v -0.239534 -0.606739 -0.251528
v -0.245777 -0.606739 -0.246855
v -0.25404 -0.606739 -0.240625
v -0.289112 -0.606739 -0.213726
v -0.324092 -0.606739 -0.186785
v -0.295355 -0.606739 -0.208927
v -0.331436 -0.606739 -0.180596
v -0.337771 -0.613136 -0.175166
v -0.353655 -0.606739 -0.154539
v -0.397815 -0.606739 -0.0969517
v -0.40259 -0.606739 -0.0906795
v -0.408833 -0.606739 -0.0815446
v -0.412872 -0.606739 -0.0752723
v -0.420768 -0.606739 -0.0563292
v -0.441517 -0.606739 -0.00627705
v -0.452351 -0.606739 0.0199908
v -0.456666 -0.606739 0.0312725
v -0.459696 -0.606739 0.043775
v -0.468969 -0.606739 0.113865
v -0.419483 -0.591742 0.113865
v 0.110448 -0.624413 -0.299728
v 0.102185 -0.625798 -0.300444
v 0.106317 -0.590309 -0.302969
v 0.118068 -0.606739 -0.301201
v 0.124312 -0.606739 -0.300023
v 0.131289 -0.61924 -0.295561
v 0.119721 -0.619842 -0.299054
v 0.0938305 -0.626348 -0.300949
v 0.0813442 -0.627066 -0.301749
v 0.0687662 -0.627632 -0.302506
v 0.0562799 -0.62805 -0.303222
v 0.0437937 -0.628302 -0.303938
v 0.00716123 -0.62813 -0.307684
v -0.0187294 -0.631308 -0.293961
v -0.0313074 -0.6313 -0.293961
v -0.0437937 -0.631208 -0.293961
v -0.0562799 -0.630959 -0.293961
v -0.0687662 -0.630542 -0.293961
v -0.0812524 -0.629972 -0.293961
v -0.118803 -0.628383 -0.292656
v -0.131381 -0.627809 -0.290762
v -0.140746 -0.626665 -0.288951
v -0.1491 -0.624052 -0.287141
v -0.14451 -0.619626 -0.290214
v -0.151579 -0.615713 -0.28832
v 0.468969 -0.590309 0.113823
v -0.21346 -0.614453 -0.26302
v -0.238891 -0.61664 -0.251065
v -0.288561 -0.615677 -0.213347
v -0.322898 -0.61924 -0.185816
v -0.331804 -0.618077 -0.178702
v -0.336302 -0.621476 -0.173566
v -0.362836 -0.625613 -0.137743
v -0.363846 -0.61924 -0.138964
v -0.401763 -0.61924 -0.0895429
v -0.375506 -0.61428 -0.125451
v -0.412781 -0.613325 -0.0752723
v -0.451617 -0.61924 0.0218431
v -0.43812 -0.614669 -0.0134334
v -0.455014 -0.61924 0.0312725
v -0.463093 -0.614609 0.0725266
v -0.457951 -0.61924 0.043775
v -0.467408 -0.61924 0.113865
v 0.0413148 -0.591798 0.113865
v 0.140746 -0.626665 -0.288951
v 0.131289 -0.627805 -0.290762
v 0.118803 -0.628379 -0.292614
v 0.118068 -0.590309 -0.301201
v 0.122384 -0.590309 -0.300402
v 0.124312 -0.590309 -0.300023
v 0.131289 -0.606739 -0.297329
v 0.151579 -0.615709 -0.288278
v 0.14451 -0.619622 -0.290214
v 0.1491 -0.624048 -0.287099
v 0.0813442 -0.629972 -0.293961
v 0.0687662 -0.630542 -0.293961
v 0.0562799 -0.630955 -0.293961
v 0.0414066 -0.628318 -0.304106
v 0.0187294 -0.631308 -0.293961
v 0.0312156 -0.628395 -0.304737
v 0.0437937 -0.631208 -0.293961
v 0.0312156 -0.6313 -0.293961
v -0.106317 -0.631308 -0.281458
v -0.118803 -0.631288 -0.281458
v -0.131381 -0.630714 -0.281458
v -0.16884 -0.629847 -0.268956
v -0.218877 -0.628025 -0.253843
v -0.193904 -0.6276 -0.265336
v -0.16884 -0.626942 -0.27687
v -0.202626 -0.626452 -0.263652
v -0.175909 -0.625834 -0.275523
v -0.178113 -0.61924 -0.276449
v 0.468969 -0.606739 0.113823
v 0.459696 -0.590309 0.043775
v -0.232373 -0.620184 -0.253338
v -0.206666 -0.618867 -0.264704
v -0.237331 -0.624979 -0.249971
v -0.24339 -0.620184 -0.246687
v -0.302332 -0.61924 -0.201771
v -0.287 -0.624016 -0.212084
v -0.300772 -0.625939 -0.200592
v -0.314543 -0.626621 -0.189016
v -0.327948 -0.627106 -0.177439
v -0.339608 -0.626942 -0.165189
v -0.351267 -0.626376 -0.151466
v -0.400662 -0.625858 -0.0881116
v -0.40819 -0.618193 -0.0801555
v -0.414341 -0.618193 -0.0687054
v -0.426185 -0.61924 -0.0396591
v -0.411587 -0.621664 -0.0727887
v -0.450607 -0.625878 0.0241162
v -0.425359 -0.625581 -0.0377648
v -0.451892 -0.626974 0.0312725
v -0.463736 -0.617182 0.0812826
v -0.462726 -0.625296 0.0879337
v -0.46447 -0.620372 0.0927747
v -0.466398 -0.62219 0.113865
v 0.0413148 -0.631308 0.113865
v 0.175909 -0.62583 -0.275481
v 0.202626 -0.626452 -0.263652
v 0.193904 -0.6276 -0.265336
v 0.218877 -0.628021 -0.253843
v 0.16884 -0.629843 -0.268914
v 0.131289 -0.63071 -0.281416
v 0.131289 -0.590309 -0.297329
v 0.193904 -0.606739 -0.27144
v 0.21346 -0.614453 -0.26302
v 0.178113 -0.61924 -0.276407
v 0.118803 -0.631284 -0.281416
v 0.106317 -0.631304 -0.281416
v 0.143867 -0.631304 -0.268914
v 0.20639 -0.631304 -0.243909
v 0.0413148 -0.631308 -0.283816
v -0.143867 -0.631308 -0.268956
v -0.20639 -0.631308 -0.243909
v -0.181326 -0.63124 -0.256453
v -0.156354 -0.631047 -0.268956
v -0.218877 -0.630931 -0.243909
v -0.193904 -0.63051 -0.256453
v -0.232373 -0.62868 -0.245045
v -0.228976 -0.62693 -0.251823
v -0.210981 -0.622796 -0.261757
v 0.467408 -0.61924 0.113823
v 0.463185 -0.614605 0.0724845
v 0.459696 -0.606739 0.043775
v 0.456666 -0.590309 0.0312304
v -0.243849 -0.627452 -0.241215
v -0.251102 -0.626167 -0.238436
v -0.318767 -0.628302 -0.181523
v -0.264874 -0.626789 -0.226818
v -0.278645 -0.627211 -0.215199
v -0.331804 -0.628491 -0.169188
v -0.343831 -0.628053 -0.155928
v -0.377434 -0.62707 -0.115516
v -0.389002 -0.626561 -0.101751
v -0.402773 -0.627207 -0.0813342
v -0.413515 -0.62626 -0.0644537
v -0.3935 -0.62752 -0.0929105
v -0.438763 -0.626492 -0.00261471
v -0.453269 -0.62805 0.043775
v -0.440507 -0.627636 0.00622544
v -0.444088 -0.629884 0.0312725
v -0.463276 -0.626023 0.0962687
v -0.464286 -0.62705 0.113865
v -0.463919 -0.626653 0.10633
v -0.444088 -0.631308 0.113865
v 0.443996 -0.631304 0.113823
v 0.451525 -0.63065 0.113823
v 0.456574 -0.629952 0.113823
v 0.46144 -0.628206 0.113823
v 0.464286 -0.627046 0.113823
v 0.206666 -0.618871 -0.264662
v 0.210981 -0.622792 -0.261757
v 0.237331 -0.624979 -0.249928
v 0.228976 -0.62693 -0.251823
v 0.218877 -0.630931 -0.243909
v 0.193904 -0.630506 -0.256411
v 0.232465 -0.62868 -0.245003
v 0.156354 -0.631043 -0.268914
v 0.158557 -0.590309 -0.286047
v 0.218142 -0.590309 -0.261379
v 0.22007 -0.606739 -0.260537
v 0.231455 -0.606739 -0.255654
v 0.238983 -0.61664 -0.251065
v 0.232465 -0.62018 -0.253338
v 0.181326 -0.63124 -0.256411
v 0.231455 -0.631304 -0.231406
v 0.293886 -0.631304 -0.181354
v 0.31895 -0.631304 -0.156349
v 0.343923 -0.631304 -0.131344
v 0.381473 -0.631304 -0.0813342
v 0.406537 -0.631304 -0.0313242
v 0.419024 -0.631304 -0.00631915
v 0.43151 -0.631304 0.0312304
v 0.443996 -0.631304 0.0812826
v -0.231363 -0.631308 -0.231364
v -0.256427 -0.630827 -0.218904
v -0.243849 -0.630357 -0.231364
v 0.463276 -0.626023 0.0962687
v 0.462726 -0.625292 0.0879337
v 0.46447 -0.620368 0.0927747
v 0.458043 -0.61924 0.043775
v 0.455105 -0.61924 0.0312304
v 0.456666 -0.606739 0.0312304
v 0.452351 -0.590309 0.0199908
v -0.255784 -0.627837 -0.231154
v -0.269005 -0.628463 -0.219198
v -0.293886 -0.630176 -0.193899
v -0.306372 -0.630698 -0.181354
v -0.31895 -0.631067 -0.168852
v -0.331436 -0.630939 -0.156349
v -0.344014 -0.630518 -0.143847
v -0.356501 -0.629892 -0.131302
v -0.381565 -0.628242 -0.106087
v -0.393959 -0.630112 -0.0813342
v -0.407088 -0.628266 -0.0687054
v -0.415076 -0.627403 -0.0563292
v -0.444088 -0.630959 0.043775
v -0.456574 -0.629956 0.113865
v -0.429031 -0.628045 -0.0187796
v -0.406537 -0.630305 -0.0563292
v -0.43151 -0.630542 0.00622544
v -0.444088 -0.631308 0.0812826
v 0.443996 -0.631296 0.06878
v 0.443996 -0.631208 0.0562355
v 0.453269 -0.62805 0.043775
v 0.443996 -0.630955 0.043775
v 0.463827 -0.626653 0.106288
v 0.287 -0.624016 -0.212042
v 0.300772 -0.625939 -0.200592
v 0.251194 -0.626167 -0.238394
v 0.243941 -0.627452 -0.241173
v 0.308576 -0.61924 -0.19693
v 0.243941 -0.630357 -0.231406
v 0.256427 -0.630823 -0.218862
v 0.231455 -0.590309 -0.255654
v 0.239626 -0.606739 -0.251528
v 0.245869 -0.606739 -0.246855
v 0.288561 -0.615677 -0.213305
v 0.268913 -0.63114 -0.206359
v 0.2814 -0.631296 -0.193857
v 0.31895 -0.631063 -0.168852
v 0.356501 -0.631252 -0.1188
v 0.394051 -0.631288 -0.0688737
v 0.43151 -0.631248 0.0187279
v -0.293886 -0.631308 -0.181354
v -0.2814 -0.6313 -0.193899
v -0.268913 -0.631144 -0.206401
v 0.451892 -0.626974 0.0312304
v 0.450607 -0.625878 0.0241162
v 0.451617 -0.61924 0.0218009
v 0.452351 -0.606739 0.0199908
v 0.431143 -0.590309 -0.0313242
v -0.344014 -0.631308 -0.131302
v -0.356501 -0.631256 -0.118842
v -0.368987 -0.631035 -0.106297
v -0.381473 -0.630654 -0.0938787
v -0.393959 -0.631292 -0.0688317
v -0.444088 -0.631208 0.0562775
v -0.419024 -0.630951 -0.0187796
v -0.43151 -0.631248 0.0187279
v -0.444088 -0.6313 0.06878
v -0.406537 -0.631188 -0.0438267
v -0.43151 -0.631308 0.0312725
v 0.443996 -0.629884 0.0312304
v 0.419024 -0.630951 -0.0187796
v 0.43151 -0.630542 0.00622544
v 0.322898 -0.61924 -0.185816
v 0.314543 -0.626617 -0.189016
v 0.264874 -0.626785 -0.226818
v 0.278645 -0.627211 -0.215199
v 0.255693 -0.627837 -0.231154
v 0.269005 -0.628463 -0.219198
v 0.293886 -0.630176 -0.193857
v 0.306372 -0.630698 -0.181354
v 0.239626 -0.590309 -0.251528
v 0.245869 -0.590309 -0.246855
v 0.251469 -0.590309 -0.242562
v 0.25404 -0.606739 -0.240583
v 0.324092 -0.606739 -0.186785
v 0.318767 -0.628298 -0.181523
v 0.331804 -0.628491 -0.169146
v 0.331436 -0.630935 -0.156349
v 0.368987 -0.631031 -0.106297
v 0.394051 -0.630112 -0.0813342
v 0.406537 -0.630305 -0.0563292
v 0.406537 -0.631184 -0.0438267
v 0.381473 -0.630654 -0.0938787
v 0.440507 -0.627636 0.00622544
v 0.438763 -0.626488 -0.00265681
v 0.413515 -0.62626 -0.0644958
v 0.425359 -0.625581 -0.0377648
v 0.426185 -0.61924 -0.0396591
v 0.412872 -0.613325 -0.0752302
v 0.43812 -0.614669 -0.0134334
v 0.431143 -0.606739 -0.0313242
v 0.412872 -0.590309 -0.0753144
v -0.381473 -0.631308 -0.0813342
v -0.406537 -0.631308 -0.0312821
v -0.419024 -0.631308 -0.00627705
v 0.429031 -0.628041 -0.0187796
v 0.33768 -0.613136 -0.175124
v 0.331804 -0.618077 -0.17866
v 0.336211 -0.621476 -0.173524
v 0.327948 -0.627106 -0.177439
v 0.324092 -0.590309 -0.186785
v 0.331436 -0.606739 -0.180596
v 0.339608 -0.626938 -0.165189
v 0.343831 -0.628053 -0.155886
v 0.356501 -0.629888 -0.131344
v 0.343923 -0.630514 -0.143805
v 0.381565 -0.628242 -0.106087
v 0.393592 -0.627516 -0.0929105
v 0.402773 -0.627207 -0.0813342
v 0.407088 -0.628266 -0.0687475
v 0.415076 -0.627399 -0.0563292
v 0.411587 -0.621664 -0.0728308
v 0.400662 -0.625858 -0.0881537
v 0.414341 -0.618193 -0.0687475
v 0.412872 -0.606739 -0.0753144
v 0.408282 -0.618193 -0.0801976
v 0.401763 -0.61924 -0.0895429
v 0.40259 -0.606739 -0.0907216
v 0.408833 -0.606739 -0.0815446
v 0.408833 -0.590309 -0.0815446
v 0.337771 -0.606739 -0.175166
v 0.353655 -0.606739 -0.154539
v 0.375597 -0.614276 -0.125493
v 0.362836 -0.625609 -0.137743
v 0.340801 -0.618077 -0.169146
v 0.351267 -0.626376 -0.151424
v 0.331436 -0.590309 -0.180596
v 0.377434 -0.627066 -0.115558
v 0.389002 -0.626561 -0.101751
v 0.40259 -0.590309 -0.0907216
v 0.406905 -0.590309 -0.0844493
v 0.337771 -0.590309 -0.175166
f 1 2 8
f 1 8 3
f 1 3 11
f 1 11 4
f 1 4 5
f 1 5 6
f 1 6 7
f 1 7 2
f 2 7 9
f 2 9 20
f 2 20 8
f 3 10 11
f 3 8 12
f 3 12 13
f 3 13 10
f 4 14 15
f 4 15 5
f 4 11 62
f 4 62 14
f 5 15 16
f 5 16 17
f 5 17 18
f 5 18 6
f 6 18 19
f 6 19 7
f 7 19 9
f 8 20 12
f 9 21 76
f 9 76 127
f 9 127 175
f 9 175 227
f 9 227 286
f 9 286 334
f 9 334 378
f 9 378 406
f 9 406 417
f 9 417 416
f 9 416 418
f 9 418 413
f 9 413 387
f 9 387 359
f 9 359 358
f 9 358 357
f 9 357 317
f 9 317 262
f 9 262 261
f 9 261 206
f 9 206 151
f 9 151 150
f 9 150 149
f 9 149 104
f 9 104 63
f 9 63 12
f 9 12 20
f 9 19 22
f 9 22 23
f 9 23 24
f 9 24 25
f 9 25 26
f 9 26 27
f 9 27 28
f 9 28 29
f 9 29 30
f 9 30 31
f 9 31 32
f 9 32 33
f 9 33 34
f 9 34 35
f 9 35 36
f 9 36 37
f 9 37 38
f 9 38 39
f 9 39 40
f 9 40 41
f 9 41 42
f 9 42 43
f 9 43 44
f 9 44 45
f 9 45 46
f 9 46 47
f 9 47 48
f 9 48 49
f 9 49 50
f 9 50 51
f 9 51 52
f 9 52 53
f 9 53 54
f 9 54 55
f 9 55 56
f 9 56 57
f 9 57 21
f 10 58 11
f 10 13 59
f 10 59 60
f 10 60 61
f 10 61 58
f 11 58 62
f 12 63 13
f 13 63 59
f 14 62 114
f 14 114 64
f 14 64 65
f 14 65 66
f 14 66 67
f 14 67 68
f 14 68 69
f 14 69 70
f 14 70 15
f 15 70 71
f 15 71 16
f 16 71 17
f 17 72 18
f 17 71 73
f 17 73 74
f 17 74 75
f 17 75 72
f 18 72 23
f 18 23 22
f 18 22 19
f 21 57 76
f 23 72 24
f 24 72 25
f 25 75 26
f 25 72 75
f 26 75 77
f 26 77 27
f 27 77 28
f 28 77 78
f 28 78 29
f 29 78 30
f 30 78 79
f 30 79 31
f 31 79 80
f 31 80 32
f 32 80 33
f 33 81 34
f 33 80 81
f 34 81 35
f 35 82 36
f 35 81 82
f 36 82 37
f 37 82 83
f 37 83 38
f 38 83 84
f 38 84 39
f 39 84 85
f 39 85 40
f 40 85 41
f 41 86 42
f 41 85 87
f 41 87 86
f 42 86 43
f 43 86 88
f 43 88 44
f 44 89 45
f 44 88 89
f 45 89 90
f 45 90 46
f 46 91 92
f 46 92 47
f 46 90 91
f 47 92 48
f 48 92 93
f 48 93 49
f 49 93 94
f 49 94 50
f 50 94 51
f 51 94 52
f 52 94 95
f 52 95 96
f 52 96 53
f 53 97 54
f 53 96 97
f 54 97 98
f 54 98 55
f 55 98 99
f 55 99 56
f 56 99 100
f 56 100 57
f 57 100 144
f 57 144 198
f 57 198 245
f 57 245 300
f 57 300 247
f 57 247 199
f 57 199 145
f 57 145 101
f 57 101 127
f 57 127 76
f 58 61 102
f 58 102 103
f 58 103 62
f 59 63 104
f 59 104 149
f 59 149 105
f 59 105 60
f 60 105 106
f 60 106 107
f 60 107 108
f 60 108 102
f 60 102 61
f 62 103 109
f 62 109 110
f 62 110 111
f 62 111 112
f 62 112 113
f 62 113 114
f 64 114 160
f 64 160 115
f 64 115 116
f 64 116 117
f 64 117 118
f 64 118 65
f 65 118 119
f 65 119 66
f 66 119 120
f 66 120 67
f 67 120 121
f 67 121 68
f 68 121 69
f 69 121 70
f 70 121 122
f 70 122 71
f 71 122 123
f 71 123 73
f 73 123 74
f 74 123 124
f 74 124 125
f 74 125 126
f 74 126 75
f 75 126 77
f 77 126 128
f 77 128 78
f 78 128 79
f 79 128 80
f 80 128 81
f 81 128 129
f 81 129 82
f 82 129 83
f 83 129 84
f 84 129 130
f 84 130 85
f 85 130 87
f 86 89 88
f 86 87 130
f 86 130 89
f 89 130 131
f 89 131 132
f 89 132 133
f 89 133 134
f 89 134 135
f 89 135 136
f 89 136 137
f 89 137 92
f 89 92 91
f 89 91 90
f 92 136 138
f 92 138 93
f 92 137 136
f 93 138 94
f 94 138 95
f 95 138 96
f 96 138 97
f 97 139 98
f 97 138 140
f 97 140 139
f 98 139 141
f 98 141 99
f 99 142 100
f 99 141 143
f 99 143 142
f 100 142 144
f 101 145 127
f 102 108 146
f 102 146 147
f 102 147 103
f 103 147 148
f 103 148 109
f 105 149 150
f 105 150 106
f 106 150 151
f 106 151 206
f 106 206 152
f 106 152 153
f 106 153 107
f 107 153 154
f 107 154 155
f 107 155 146
f 107 146 108
f 109 148 110
f 110 148 111
f 111 148 156
f 111 156 112
f 112 156 157
f 112 157 113
f 113 157 158
f 113 158 159
f 113 159 114
f 114 159 161
f 114 161 158
f 114 158 162
f 114 162 163
f 114 163 160
f 115 160 214
f 115 214 199
f 115 199 247
f 115 247 304
f 115 304 345
f 115 345 381
f 115 381 380
f 115 380 379
f 115 379 335
f 115 335 327
f 115 327 277
f 115 277 216
f 115 216 215
f 115 215 164
f 115 164 116
f 116 164 165
f 116 165 117
f 117 165 118
f 118 165 119
f 119 165 166
f 119 166 120
f 120 166 121
f 121 166 122
f 122 166 167
f 122 167 168
f 122 168 169
f 122 169 170
f 122 170 123
f 123 170 171
f 123 171 172
f 123 172 124
f 124 172 173
f 124 173 125
f 125 173 126
f 126 173 128
f 127 174 226
f 127 226 175
f 127 145 199
f 127 199 174
f 128 176 129
f 128 173 177
f 128 177 178
f 128 178 176
f 129 178 179
f 129 179 130
f 129 176 178
f 130 179 178
f 130 178 180
f 130 180 131
f 131 180 181
f 131 181 182
f 131 182 183
f 131 183 133
f 131 133 132
f 133 183 184
f 133 184 185
f 133 185 186
f 133 186 134
f 134 187 136
f 134 136 135
f 134 186 187
f 136 187 188
f 136 188 138
f 138 189 190
f 138 190 140
f 138 188 191
f 138 191 189
f 139 192 141
f 139 140 190
f 139 190 193
f 139 193 192
f 141 192 194
f 141 194 143
f 142 195 144
f 142 143 195
f 143 194 196
f 143 196 195
f 144 195 197
f 144 197 196
f 144 196 198
f 146 155 200
f 146 200 201
f 146 201 202
f 146 202 147
f 147 202 203
f 147 203 204
f 147 204 205
f 147 205 148
f 148 205 156
f 152 206 207
f 152 207 208
f 152 208 153
f 153 208 154
f 154 208 209
f 154 209 155
f 155 209 200
f 156 205 210
f 156 210 157
f 157 210 158
f 158 161 159
f 158 210 162
f 160 163 211
f 160 211 212
f 160 212 213
f 160 213 214
f 162 210 163
f 163 210 211
f 164 215 165
f 165 215 216
f 165 216 217
f 165 217 218
f 165 218 166
f 166 218 219
f 166 219 220
f 166 220 167
f 167 220 168
f 168 219 221
f 168 221 222
f 168 222 169
f 168 220 219
f 169 222 171
f 169 171 170
f 171 222 178
f 171 178 172
f 172 178 223
f 172 223 177
f 172 177 173
f 174 199 224
f 174 224 225
f 174 225 226
f 175 226 285
f 175 285 227
f 177 223 178
f 178 228 229
f 178 229 182
f 178 182 181
f 178 181 180
f 178 222 228
f 182 229 183
f 183 230 184
f 183 229 231
f 183 231 232
f 183 232 230
f 184 230 233
f 184 233 185
f 185 234 235
f 185 235 186
f 185 233 234
f 186 235 236
f 186 236 187
f 187 237 238
f 187 238 191
f 187 191 188
f 187 236 239
f 187 239 237
f 189 193 190
f 189 191 193
f 191 238 193
f 192 193 238
f 192 238 240
f 192 240 194
f 194 241 196
f 194 240 242
f 194 242 243
f 194 243 241
f 195 196 197
f 196 244 198
f 196 241 244
f 198 244 246
f 198 246 245
f 199 214 276
f 199 276 248
f 199 248 249
f 199 249 250
f 199 250 251
f 199 251 252
f 199 252 224
f 200 209 253
f 200 253 254
f 200 254 255
f 200 255 201
f 201 255 256
f 201 256 202
f 202 256 203
f 203 257 258
f 203 258 204
f 203 256 259
f 203 259 257
f 204 258 205
f 205 258 257
f 205 257 260
f 205 260 210
f 206 261 207
f 207 262 263
f 207 263 208
f 207 261 262
f 208 254 253
f 208 253 209
f 208 263 264
f 208 264 265
f 208 265 266
f 208 266 254
f 210 260 267
f 210 267 213
f 210 213 212
f 210 212 211
f 213 267 257
f 213 257 268
f 213 268 214
f 214 268 269
f 214 269 270
f 214 270 271
f 214 271 272
f 214 272 273
f 214 273 274
f 214 274 275
f 214 275 276
f 216 277 219
f 216 219 217
f 217 219 218
f 219 277 278
f 219 278 279
f 219 279 221
f 221 279 228
f 221 228 222
f 224 252 280
f 224 280 281
f 224 281 282
f 224 282 225
f 225 281 283
f 225 283 226
f 225 282 281
f 226 283 284
f 226 284 285
f 227 285 333
f 227 333 286
f 228 287 231
f 228 231 229
f 228 279 287
f 230 232 287
f 230 287 288
f 230 288 289
f 230 289 290
f 230 290 291
f 230 291 233
f 231 287 232
f 233 291 292
f 233 292 293
f 233 293 294
f 233 294 234
f 234 294 295
f 234 295 235
f 235 295 239
f 235 239 236
f 237 239 296
f 237 296 297
f 237 297 238
f 238 298 240
f 238 297 298
f 239 295 296
f 240 298 242
f 241 243 299
f 241 299 300
f 241 300 245
f 241 245 246
f 241 246 244
f 242 298 301
f 242 301 243
f 243 301 302
f 243 302 303
f 243 303 299
f 247 300 304
f 248 276 249
f 249 276 305
f 249 305 306
f 249 306 250
f 250 307 251
f 250 306 308
f 250 308 307
f 251 307 252
f 252 307 309
f 252 309 280
f 254 266 255
f 255 310 311
f 255 311 312
f 255 312 313
f 255 313 256
f 255 266 265
f 255 265 314
f 255 314 310
f 256 313 259
f 257 267 260
f 257 259 315
f 257 315 316
f 257 316 268
f 259 313 315
f 262 317 264
f 262 264 263
f 264 317 357
f 264 357 318
f 264 318 265
f 265 318 319
f 265 319 320
f 265 320 314
f 268 316 321
f 268 321 322
f 268 322 269
f 269 323 270
f 269 322 323
f 270 323 271
f 271 324 325
f 271 325 272
f 271 323 324
f 272 325 273
f 273 325 274
f 274 326 275
f 274 325 326
f 275 326 305
f 275 305 276
f 277 327 328
f 277 328 329
f 277 329 278
f 278 329 291
f 278 291 290
f 278 290 279
f 279 290 289
f 279 289 288
f 279 288 287
f 280 309 307
f 280 307 281
f 281 307 330
f 281 330 283
f 283 330 284
f 284 330 331
f 284 331 332
f 284 332 285
f 285 332 333
f 286 333 377
f 286 377 334
f 291 335 336
f 291 336 292
f 291 329 328
f 291 328 327
f 291 327 335
f 292 336 337
f 292 337 338
f 292 338 293
f 293 338 296
f 293 296 294
f 294 296 295
f 296 338 339
f 296 339 302
f 296 302 297
f 297 302 298
f 298 302 301
f 299 340 300
f 299 303 341
f 299 341 342
f 299 342 340
f 300 340 343
f 300 343 304
f 302 339 344
f 302 344 341
f 302 341 303
f 304 343 345
f 305 326 306
f 306 326 308
f 307 308 346
f 307 346 330
f 308 326 347
f 308 347 348
f 308 348 346
f 310 314 349
f 310 349 311
f 311 349 350
f 311 350 312
f 312 351 313
f 312 350 351
f 313 351 352
f 313 352 353
f 313 353 354
f 313 354 315
f 314 320 349
f 315 354 355
f 315 355 356
f 315 356 316
f 316 356 323
f 316 323 321
f 318 357 358
f 318 358 319
f 319 358 359
f 319 359 360
f 319 360 320
f 320 360 361
f 320 361 349
f 321 323 322
f 323 356 362
f 323 362 363
f 323 363 364
f 323 364 324
f 324 365 325
f 324 364 365
f 325 366 367
f 325 367 368
f 325 368 326
f 325 365 369
f 325 369 366
f 326 368 347
f 330 346 370
f 330 370 371
f 330 371 331
f 331 371 372
f 331 372 373
f 331 373 332
f 332 373 374
f 332 374 375
f 332 375 376
f 332 376 333
f 333 376 375
f 333 375 377
f 334 377 401
f 334 401 378
f 335 379 339
f 335 339 336
f 336 339 337
f 337 339 338
f 339 379 380
f 339 380 381
f 339 381 342
f 339 342 344
f 340 342 343
f 341 344 342
f 342 345 343
f 342 381 345
f 346 348 367
f 346 367 382
f 346 382 370
f 347 368 367
f 347 367 348
f 349 361 383
f 349 383 384
f 349 384 385
f 349 385 350
f 350 385 386
f 350 386 362
f 350 362 352
f 350 352 351
f 352 362 353
f 353 362 354
f 354 362 355
f 355 362 356
f 359 387 361
f 359 361 360
f 361 387 413
f 361 413 388
f 361 388 383
f 362 386 363
f 363 386 389
f 363 389 390
f 363 390 391
f 363 391 392
f 363 392 364
f 364 392 369
f 364 369 365
f 366 369 392
f 366 392 391
f 366 391 393
f 366 393 394
f 366 394 395
f 366 395 396
f 366 396 367
f 367 396 397
f 367 397 382
f 370 382 397
f 370 397 371
f 371 397 372
f 372 398 373
f 372 397 396
f 372 396 395
f 372 395 399
f 372 399 398
f 373 398 400
f 373 400 374
f 374 400 375
f 375 401 377
f 375 400 398
f 375 398 402
f 375 402 403
f 375 403 404
f 375 404 405
f 375 405 401
f 378 401 405
f 378 405 406
f 383 407 408
f 383 408 404
f 383 404 409
f 383 409 410
f 383 410 411
f 383 411 385
f 383 385 384
f 383 388 407
f 385 411 410
f 385 410 412
f 385 412 389
f 385 389 386
f 388 413 418
f 388 418 407
f 389 412 414
f 389 414 390
f 390 414 393
f 390 393 391
f 393 414 394
f 394 399 395
f 394 414 415
f 394 415 399
f 398 399 402
f 399 415 412
f 399 412 410
f 399 410 403
f 399 403 402
f 403 410 409
f 403 409 404
f 404 408 416
f 404 416 417
f 404 417 405
f 405 417 406
f 407 418 408
f 408 418 416
f 412 415 414
