v -0.00484906 -0.0740633 -0.614381
v -0.00034173 -0.0740633 -0.614381
v -0.0112157 -0.0740633 -0.613383
v -0.00719932 -0.0699358 -0.615931
v -0.00624956 -0.056289 -0.621815
v 0.00433463 -0.0740633 -0.614328
v -0.0123828 -0.0740633 -0.613067
v 0.00625025 -0.056289 -0.621605
v -0.0158679 -0.0665265 -0.614788
v -0.0133003 -0.0389073 -0.62586
v -0.00624956 -0.0476412 -0.624836
v 0.0109588 -0.0740633 -0.613081
v 0.00686196 -0.0697634 -0.615852
v -0.0132359 -0.0740633 -0.612595
v 0.0154822 -0.0662296 -0.614644
v 0.00625025 -0.0472869 -0.624744
v 0.0130112 -0.038438 -0.625729
v -0.0195301 -0.0699358 -0.611071
v -0.0242065 -0.0613359 -0.61245
v -0.0195301 -0.0568157 -0.616824
v -0.0148457 -0.0312747 -0.626596
v -0.00624956 -0.0187675 -0.630602
v -0.00624956 -0.0312747 -0.628684
v -0.00624956 -0.0413781 -0.62653
v -0.0179847 -0.0433605 -0.622143
v -0.0211077 -0.0312747 -0.623312
v 0.00625025 -0.0410333 -0.626438
v 0.0122869 -0.0740633 -0.612516
v -0.0194255 -0.0740633 -0.608891
v 0.0192974 -0.0564135 -0.616495
v 0.0238208 -0.0606655 -0.612174
v 0.0192974 -0.0697634 -0.610638
v 0.00625025 -0.0312747 -0.628487
v 0.00625025 -0.0187675 -0.630405
v 0.0143634 -0.0312747 -0.626412
v 0.0206174 -0.0312747 -0.622931
v 0.0178083 -0.0430732 -0.621736
v -0.0262831 -0.0530042 -0.614171
v -0.0273777 -0.0740633 -0.603033
v -0.0285931 -0.0687962 -0.604399
v -0.0230152 -0.0187675 -0.62431
v -0.0167613 -0.0187675 -0.627568
v -0.00624956 -0.00626037 -0.631416
v -0.0277157 -0.0437818 -0.615615
v 0.0191927 -0.0740633 -0.608365
v 0.0259859 -0.0523338 -0.613895
v 0.0281591 -0.0687962 -0.603965
v 0.0269598 -0.0740633 -0.602599
v 0.0232654 -0.0740633 -0.605554
v 0.00625025 -0.00626037 -0.631206
v 0.0162147 -0.0187675 -0.627371
v 0.0224686 -0.0187675 -0.62393
v 0.0286259 -0.0312747 -0.616666
v 0.0272737 -0.0437818 -0.615208
v -0.0302189 -0.0568157 -0.607656
v -0.030734 -0.0740633 -0.598357
v -0.0353621 -0.0699741 -0.594272
v -0.036827 -0.056289 -0.598922
v -0.0237799 -0.00626037 -0.624731
v -0.0290518 -0.0312747 -0.61706
v -0.029897 -0.0187675 -0.618058
v -0.0175259 -0.00626037 -0.627975
v -0.00624956 0.0237721 -0.631416
v -0.0346699 -0.0449215 -0.606106
v -0.0353058 -0.0312747 -0.609035
v 0.0297689 -0.0564135 -0.607498
v 0.0364896 -0.056289 -0.598173
v 0.0349121 -0.0695144 -0.59397
v 0.0328516 -0.0740633 -0.594259
v 0.0287306 -0.0740633 -0.600104
v 0.00625025 0.0237721 -0.631206
v 0.0169552 0.00624679 -0.627778
v 0.0169471 -0.00626037 -0.627778
v 0.0232091 -0.00626037 -0.624337
v 0.0294952 -0.0187675 -0.617678
v 0.0357491 -0.0187675 -0.6096
v 0.0348799 -0.0312747 -0.608431
v 0.0342118 -0.0441649 -0.605883
v -0.0334867 -0.0740633 -0.594495
v -0.0371248 -0.0740633 -0.588992
v -0.0375031 -0.049863 -0.600393
v -0.0375836 -0.0740633 -0.588099
v -0.0383402 -0.0665839 -0.590135
v -0.0302189 -0.00626037 -0.618479
v -0.030235 0.00624679 -0.618479
v -0.0237879 0.00624679 -0.624731
v -0.0361509 -0.0187675 -0.610257
v -0.0364728 -0.00626037 -0.610756
v -0.0175259 0.0237721 -0.627975
v -0.0200372 0.0237721 -0.626675
v -0.0380343 -0.0415217 -0.601509
v 0.0373267 -0.0485893 -0.599907
v 0.0381879 -0.0658178 -0.589622
v 0.0372704 -0.0740633 -0.587508
v 0.0169552 0.0237721 -0.627778
v 0.0232091 0.00624679 -0.62435
v 0.0298494 0.00624679 -0.618085
v 0.0298333 -0.00626037 -0.618085
v 0.0360872 -0.00626037 -0.610125
v 0.0387594 -0.0187675 -0.603348
v 0.0383248 -0.0312747 -0.602179
v 0.037866 -0.0402576 -0.601154
v -0.0390002 -0.056289 -0.59267
v -0.0391772 -0.0740633 -0.581545
v -0.0395073 -0.0699741 -0.582898
v -0.0364889 0.00624679 -0.610782
v -0.030235 0.0237721 -0.618479
v -0.0263635 0.0237721 -0.622235
v -0.0327382 0.0237721 -0.615405
v -0.0237879 0.0237721 -0.624731
v -0.0385575 -0.0312747 -0.602783
v -0.0389358 -0.0187675 -0.604005
v -0.0390485 -0.00626037 -0.604504
v -0.0393221 -0.0449215 -0.595428
v 0.0388479 -0.056289 -0.591921
v 0.039347 -0.0695144 -0.582595
v 0.0390009 -0.0740633 -0.580993
v 0.037367 -0.0740633 -0.587258
v 0.0232091 0.0237721 -0.62435
v 0.0271933 0.0237721 -0.620593
v 0.0298494 0.0237721 -0.618085
v 0.0336001 0.0237721 -0.613343
v 0.0361033 0.00624679 -0.610165
v 0.0389204 -0.00626037 -0.603873
v 0.0408199 -0.0187675 -0.594219
v 0.040345 -0.0312747 -0.594219
v 0.0391618 -0.0441649 -0.595139
v -0.0409319 -0.056289 -0.581702
v -0.0405858 -0.0312747 -0.594219
v -0.0408353 -0.0740633 -0.569198
v -0.0390565 0.00624679 -0.60453
v -0.0375192 0.0237721 -0.608286
v -0.0364889 0.0237721 -0.610782
v -0.0409238 -0.0187675 -0.594219
v -0.0409721 -0.00626037 -0.594219
v 0.0407797 -0.056289 -0.581702
v 0.0397172 -0.0740633 -0.577434
v 0.0361033 0.0237721 -0.610165
v 0.0378016 0.0237721 -0.606421
v 0.0389365 0.00624679 -0.603913
v 0.0409245 -0.00626037 -0.594219
v 0.0410211 -0.0437818 -0.581702
v -0.041109 -0.0687962 -0.569198
v -0.0400787 -0.0740633 -0.556327
v -0.0390565 0.0237721 -0.60453
v -0.0409721 0.0237721 -0.594219
v 0.0411177 -0.0687962 -0.569198
v 0.0407716 -0.0740633 -0.569198
v 0.0389365 0.0237721 -0.603913
v 0.0401357 0.0237721 -0.598094
v 0.0409326 0.00624679 -0.594219
v -0.0385575 -0.0740633 -0.546699
v -0.0398212 0.0237721 -0.581702
v -0.0405134 0.0237721 -0.589215
v 0.0411096 -0.0740633 -0.563958
v 0.0409326 0.0237721 -0.594219
v -0.0366258 -0.0740633 -0.540473
v -0.0379055 0.0237721 -0.574741
v -0.0390565 0.0237721 -0.578918
v 0.0402565 -0.0740633 -0.556182
v 0.0404657 0.0237721 -0.58672
v 0.0401518 0.0237721 -0.581702
v -0.032384 -0.0740633 -0.531752
v -0.0338248 0.0237721 -0.568489
v -0.0274421 -0.0740633 -0.521783
v -0.0231118 -0.0740633 -0.514979
v 0.039524 -0.0740633 -0.549694
v 0.0381557 0.0237721 -0.574255
v 0.0377452 -0.0740633 -0.541997
v 0.0387674 -0.0740633 -0.54599
v -0.0313216 0.0237721 -0.565297
v -0.0142018 -0.0740633 -0.503657
v -0.0275709 0.0237721 -0.56053
v 0.0358216 0.0237721 -0.570499
v 0.0257847 -0.0740633 -0.517081
v 0.0306059 -0.0740633 -0.526091
v 0.0357733 -0.0740633 -0.53652
v 0.0369484 -0.0740633 -0.539725
v -0.0115698 -0.0740633 -0.501162
v -0.0240455 0.0237721 -0.558179
v 0.0342682 0.0237721 -0.568003
v 0.0212371 -0.0740633 -0.510553
v -0.00624956 -0.0740633 -0.497826
v -0.0187574 0.0237721 -0.554672
v 0.0280142 0.0237721 -0.560136
v 0.0161583 -0.0740633 -0.504721
v -0.00583102 -0.0740633 -0.4978
v -0.00411662 0.0237721 -0.549733
v -0.0103705 0.0237721 -0.55085
v 0.0187581 0.0237721 -0.554094
v 0.00625025 -0.0740633 -0.497235
v 0.0143152 -0.0740633 -0.502659
v 0.0048578 0.0237721 -0.549733
v 0.0111117 0.0237721 -0.550666
v 0.00736098 0.0237721 -0.550101
f 1 2 6
f 1 6 12
f 1 12 28
f 1 28 45
f 1 45 49
f 1 49 48
f 1 48 70
f 1 70 69
f 1 69 94
f 1 94 118
f 1 118 117
f 1 117 137
f 1 137 148
f 1 148 155
f 1 155 160
f 1 160 167
f 1 167 170
f 1 170 169
f 1 169 178
f 1 178 177
f 1 177 176
f 1 176 175
f 1 175 182
f 1 182 186
f 1 186 192
f 1 192 191
f 1 191 187
f 1 187 183
f 1 183 179
f 1 179 172
f 1 172 166
f 1 166 165
f 1 165 163
f 1 163 157
f 1 157 152
f 1 152 144
f 1 144 130
f 1 130 104
f 1 104 82
f 1 82 80
f 1 80 79
f 1 79 56
f 1 56 39
f 1 39 29
f 1 29 14
f 1 14 7
f 1 7 3
f 1 3 4
f 1 4 5
f 1 5 2
f 2 5 6
f 3 7 5
f 3 5 4
f 5 8 6
f 5 7 9
f 5 9 10
f 5 10 11
f 5 11 8
f 6 8 13
f 6 13 12
f 7 14 9
f 8 15 12
f 8 12 13
f 8 11 16
f 8 16 17
f 8 17 15
f 9 14 18
f 9 18 19
f 9 19 20
f 9 20 10
f 10 21 22
f 10 22 23
f 10 23 24
f 10 24 11
f 10 20 25
f 10 25 26
f 10 26 21
f 11 24 27
f 11 27 16
f 12 15 28
f 14 29 18
f 15 30 31
f 15 31 32
f 15 32 28
f 15 17 30
f 16 27 17
f 17 27 33
f 17 33 34
f 17 34 35
f 17 35 36
f 17 36 37
f 17 37 30
f 18 29 19
f 19 38 20
f 19 29 39
f 19 39 40
f 19 40 38
f 20 38 25
f 21 26 41
f 21 41 42
f 21 42 22
f 22 43 34
f 22 34 33
f 22 33 23
f 22 42 43
f 23 33 27
f 23 27 24
f 25 38 26
f 26 38 44
f 26 44 41
f 28 32 45
f 30 37 46
f 30 46 31
f 31 46 47
f 31 47 48
f 31 48 49
f 31 49 32
f 32 49 45
f 34 43 50
f 34 50 51
f 34 51 35
f 35 51 52
f 35 52 36
f 36 52 53
f 36 53 54
f 36 54 46
f 36 46 37
f 38 40 55
f 38 55 44
f 39 56 40
f 40 56 57
f 40 57 58
f 40 58 55
f 41 59 42
f 41 44 60
f 41 60 61
f 41 61 59
f 42 59 62
f 42 62 43
f 43 63 71
f 43 71 50
f 43 62 89
f 43 89 63
f 44 55 64
f 44 64 65
f 44 65 60
f 46 54 66
f 46 66 47
f 47 66 67
f 47 67 68
f 47 68 69
f 47 69 70
f 47 70 48
f 50 71 95
f 50 95 72
f 50 72 73
f 50 73 51
f 51 74 52
f 51 73 74
f 52 74 75
f 52 75 53
f 53 75 76
f 53 76 77
f 53 77 54
f 54 77 78
f 54 78 66
f 55 58 64
f 56 79 57
f 57 80 58
f 57 79 80
f 58 81 64
f 58 80 82
f 58 82 83
f 58 83 81
f 59 61 84
f 59 84 85
f 59 85 86
f 59 86 62
f 60 65 87
f 60 87 61
f 61 87 88
f 61 88 84
f 62 86 90
f 62 90 89
f 63 89 90
f 63 90 110
f 63 110 108
f 63 108 107
f 63 107 109
f 63 109 133
f 63 133 132
f 63 132 145
f 63 145 146
f 63 146 154
f 63 154 153
f 63 153 159
f 63 159 158
f 63 158 164
f 63 164 171
f 63 171 173
f 63 173 180
f 63 180 184
f 63 184 189
f 63 189 188
f 63 188 193
f 63 193 195
f 63 195 194
f 63 194 190
f 63 190 185
f 63 185 181
f 63 181 174
f 63 174 168
f 63 168 162
f 63 162 161
f 63 161 156
f 63 156 150
f 63 150 149
f 63 149 139
f 63 139 138
f 63 138 122
f 63 122 121
f 63 121 120
f 63 120 119
f 63 119 95
f 63 95 71
f 64 81 65
f 65 81 91
f 65 91 87
f 66 78 92
f 66 92 67
f 67 92 93
f 67 93 94
f 67 94 68
f 68 94 69
f 72 95 119
f 72 119 96
f 72 96 73
f 73 96 74
f 74 96 97
f 74 97 98
f 74 98 75
f 75 98 99
f 75 99 76
f 76 99 100
f 76 100 101
f 76 101 102
f 76 102 77
f 77 102 92
f 77 92 78
f 81 83 103
f 81 103 91
f 82 104 83
f 83 104 105
f 83 105 103
f 84 88 106
f 84 106 85
f 85 107 108
f 85 108 86
f 85 106 109
f 85 109 107
f 86 110 90
f 86 108 110
f 87 91 111
f 87 111 112
f 87 112 88
f 88 112 113
f 88 113 106
f 91 103 114
f 91 114 111
f 92 102 115
f 92 115 93
f 93 115 116
f 93 116 117
f 93 117 118
f 93 118 94
f 96 119 120
f 96 120 97
f 97 120 121
f 97 121 122
f 97 122 123
f 97 123 98
f 98 123 99
f 99 123 140
f 99 140 124
f 99 124 100
f 100 124 125
f 100 125 126
f 100 126 101
f 101 126 127
f 101 127 102
f 102 127 115
f 103 105 128
f 103 128 129
f 103 129 114
f 104 130 105
f 105 130 128
f 106 113 131
f 106 131 132
f 106 132 133
f 106 133 109
f 111 114 129
f 111 129 112
f 112 129 134
f 112 134 113
f 113 134 135
f 113 135 131
f 115 126 136
f 115 136 116
f 115 127 126
f 116 136 137
f 116 137 117
f 122 138 123
f 123 138 139
f 123 139 140
f 124 140 141
f 124 141 125
f 125 141 142
f 125 142 136
f 125 136 126
f 128 134 129
f 128 130 143
f 128 143 134
f 130 144 143
f 131 145 132
f 131 135 146
f 131 146 145
f 134 143 135
f 135 143 146
f 136 142 147
f 136 147 148
f 136 148 137
f 139 149 140
f 140 149 150
f 140 150 151
f 140 151 141
f 141 151 142
f 142 151 147
f 143 144 146
f 144 152 153
f 144 153 154
f 144 154 146
f 147 155 148
f 147 151 156
f 147 156 155
f 150 156 151
f 152 157 158
f 152 158 159
f 152 159 153
f 155 156 161
f 155 161 162
f 155 162 160
f 157 163 158
f 158 163 165
f 158 165 166
f 158 166 164
f 160 162 167
f 162 168 169
f 162 169 170
f 162 170 167
f 164 166 171
f 166 172 173
f 166 173 171
f 168 174 175
f 168 175 176
f 168 176 177
f 168 177 178
f 168 178 169
f 172 179 173
f 173 179 180
f 174 181 175
f 175 181 182
f 179 183 184
f 179 184 180
f 181 185 182
f 182 185 186
f 183 187 188
f 183 188 189
f 183 189 184
f 185 190 191
f 185 191 192
f 185 192 186
f 187 191 188
f 188 191 193
f 190 194 191
f 191 194 195
f 191 195 193
