v -0.310275 -0.591728 -0.197503
v -0.324192 -0.591728 -0.186823
v -0.310275 -0.450238 -0.197503
v -0.310275 -0.591728 -0.140313
v -0.331517 -0.591728 -0.180623
v -0.324192 -0.450238 -0.186823
v -0.310275 -0.450238 -0.161433
v -0.319459 -0.591728 -0.118869
v -0.337825 -0.591728 -0.175199
v -0.331517 -0.450238 -0.180623
v -0.391263 -0.450238 -0.0535777
v -0.357799 -0.591728 -0.0688085
v -0.338798 -0.591728 -0.173945
v -0.337825 -0.450238 -0.175199
v -0.42195 -0.450238 -0.0535777
v -0.372087 -0.591728 -0.0535777
v -0.36942 -0.591728 -0.056297
v -0.343914 -0.591728 -0.167281
v -0.348889 -0.450238 -0.160799
v -0.34269 -0.450238 -0.168873
v -0.340307 -0.450238 -0.171972
v -0.415631 -0.450238 -0.0688085
v -0.42195 -0.591728 -0.0535777
v -0.348889 -0.591728 -0.160799
v -0.392881 -0.591728 -0.103469
v -0.381074 -0.450238 -0.118855
v -0.412931 -0.450238 -0.0752615
v -0.415631 -0.591728 -0.0688085
v -0.402687 -0.591728 -0.0906755
v -0.400348 -0.450238 -0.093733
v -0.408951 -0.450238 -0.0815173
v -0.412931 -0.591728 -0.0752615
v -0.403933 -0.591728 -0.088858
v -0.402687 -0.450238 -0.0906755
v -0.40589 -0.450238 -0.0859978
v -0.408951 -0.591728 -0.0815173
f 1 2 6
f 1 6 3
f 1 3 7
f 1 7 4
f 1 4 8
f 1 8 12
f 1 12 17
f 1 17 16
f 1 16 23
f 1 23 28
f 1 28 32
f 1 32 36
f 1 36 33
f 1 33 29
f 1 29 25
f 1 25 24
f 1 24 18
f 1 18 13
f 1 13 9
f 1 9 5
f 1 5 2
f 2 5 10
f 2 10 6
f 3 6 10
f 3 10 14
f 3 14 21
f 3 21 20
f 3 20 19
f 3 19 26
f 3 26 30
f 3 30 34
f 3 34 35
f 3 35 31
f 3 31 27
f 3 27 22
f 3 22 15
f 3 15 11
f 3 11 7
f 4 7 8
f 5 9 14
f 5 14 10
f 7 11 8
f 8 11 12
f 9 13 14
f 11 15 23
f 11 23 16
f 11 16 17
f 11 17 12
f 13 18 19
f 13 19 20
f 13 20 21
f 13 21 14
f 15 22 28
f 15 28 23
f 18 24 19
f 19 24 25
f 19 25 26
f 22 27 32
f 22 32 28
f 25 29 30
f 25 30 26
f 27 31 36
f 27 36 32
f 29 33 34
f 29 34 30
f 31 35 36
f 33 36 35
f 33 35 34
