v 0.0062514 0.426589 -0.51352
v -0.004831 0.426763 -0.51352
v 0.0191983 0.431254 -0.51352
v 0.0111296 0.463201 -0.332744
v 0.00606656 0.462122 -0.332744
v 0.00488519 0.46189 -0.332744
v -0.00424433 0.46189 -0.332744
v -0.00625347 0.426798 -0.51352
v 0.0238514 0.434538 -0.51352
v 0.0277652 0.472763 -0.332744
v 0.0266642 0.47202 -0.332744
v 0.0187081 0.466787 -0.332744
v 0.0175347 0.466206 -0.332744
v -0.0104405 0.463398 -0.332744
v -0.0134864 0.429525 -0.51352
v 0.0262785 0.436453 -0.51352
v 0.0340177 0.480689 -0.332744
v -0.018694 0.467378 -0.332744
v -0.0189673 0.431799 -0.51352
v 0.0322818 0.444123 -0.51352
v 0.0376823 0.486317 -0.332744
v 0.03716 0.451271 -0.51352
v -0.0273253 0.473157 -0.332744
v -0.0258225 0.43694 -0.51352
v 0.038036 0.486932 -0.332744
v 0.0374091 0.451875 -0.51352
v -0.0329589 0.480364 -0.332744
v -0.0281048 0.439226 -0.51352
v 0.040021 0.494138 -0.332744
v 0.0391289 0.457155 -0.51352
v -0.0335777 0.481165 -0.332744
v -0.0349359 0.448684 -0.51352
v 0.0404067 0.494138 -0.344033
v 0.0410416 0.506648 -0.332744
v 0.0409854 0.469131 -0.51352
v 0.0409211 0.469131 -0.506637
v 0.0407764 0.494138 -0.356544
v -0.0377809 0.487408 -0.332744
v -0.0368727 0.45184 -0.51352
v 0.040905 0.494138 -0.419097
v 0.0408568 0.506648 -0.344033
v 0.0390486 0.516872 -0.332744
v 0.0409452 0.494138 -0.369055
v 0.0409773 0.48164 -0.481633
v 0.039595 0.482023 -0.51352
v 0.0402299 0.48164 -0.506637
v 0.0408005 0.48164 -0.494144
v -0.0394846 0.493407 -0.332744
v -0.0389542 0.457631 -0.51352
v 0.0406076 0.494138 -0.43159
v 0.0405353 0.506648 -0.356544
v 0.0388075 0.515966 -0.344033
v 0.036734 0.522511 -0.332744
v 0.0391048 0.504919 -0.406587
v 0.0388878 0.503817 -0.419097
v 0.0378672 0.488568 -0.51352
v 0.0382449 0.489415 -0.506637
v 0.0387592 0.490843 -0.494144
v 0.0390486 0.492119 -0.481633
v -0.0396855 0.494138 -0.332744
v -0.0398784 0.461994 -0.51352
v 0.0375136 0.512856 -0.387599
v 0.0364447 0.523126 -0.332744
v 0.0385423 0.502656 -0.43159
v 0.0373046 0.489578 -0.51352
v 0.0358259 0.497098 -0.494144
v 0.0365974 0.498374 -0.481633
v 0.0372002 0.499569 -0.469122
v 0.0374814 0.500266 -0.462292
v 0.0377868 0.500881 -0.453957
v -0.0409714 0.505418 -0.332744
v -0.0405454 0.494138 -0.356544
v -0.0408026 0.469131 -0.506637
v -0.0409312 0.469131 -0.51352
v 0.0367662 0.511174 -0.406587
v 0.0358741 0.522221 -0.344033
v 0.0296137 0.530286 -0.344033
v 0.0358259 0.523915 -0.332744
v 0.0342106 0.494301 -0.51352
v 0.0347329 0.49567 -0.506637
v 0.0284805 0.503921 -0.506637
v 0.0295735 0.505244 -0.494144
v 0.028159 0.516024 -0.444101
v 0.0290591 0.51708 -0.43159
v 0.0353196 0.508911 -0.43159
v 0.0361152 0.510071 -0.419097
v -0.0410598 0.506648 -0.332744
v -0.0408589 0.494138 -0.369055
v -0.0409794 0.48164 -0.456612
v -0.0409874 0.48164 -0.469122
v -0.0409874 0.48164 -0.481633
v -0.0409231 0.48164 -0.494144
v -0.0407946 0.474771 -0.51352
v -0.0409714 0.494138 -0.381565
v 0.0288904 0.52937 -0.356544
v 0.0292842 0.532143 -0.332744
v 0.0275965 0.502981 -0.51352
v 0.0227263 0.511499 -0.494144
v 0.0241649 0.512346 -0.484977
v 0.025282 0.513135 -0.476643
v 0.0260052 0.513808 -0.469122
v 0.0271384 0.514922 -0.456612
v 0.0254266 0.525772 -0.402552
v 0.0261579 0.526457 -0.394076
v 0.0271625 0.527455 -0.381565
v 0.0280706 0.52843 -0.369055
v 0.0298547 0.518125 -0.419097
v -0.039348 0.516477 -0.332744
v -0.0409392 0.506648 -0.344033
v -0.0409633 0.494138 -0.419097
v -0.0405052 0.48164 -0.506637
v -0.0408187 0.494138 -0.43159
v -0.0404168 0.494138 -0.444101
v -0.0398382 0.482139 -0.51352
v 0.0240604 0.537307 -0.333646
v 0.0254427 0.536031 -0.332744
v 0.0239077 0.505813 -0.51352
v 0.0164739 0.514957 -0.494144
v 0.0195037 0.515618 -0.481137
v 0.0202993 0.510176 -0.506637
v 0.0140469 0.513669 -0.506637
v 0.0187643 0.518183 -0.469122
v 0.0182259 0.522825 -0.44488
v 0.0215208 0.523335 -0.43159
v 0.0233853 0.52438 -0.419097
v 0.0245185 0.525076 -0.410904
v 0.0227826 0.536541 -0.344033
v -0.0391551 0.517463 -0.332744
v -0.0407624 0.506648 -0.356544
v -0.038922 0.491481 -0.494144
v -0.03848 0.490007 -0.506637
v -0.0388819 0.486108 -0.51352
v -0.0403847 0.506648 -0.369055
v -0.0390346 0.504455 -0.419097
v 0.0228228 0.538119 -0.332744
v 0.0186357 0.509271 -0.51352
v 0.0118127 0.525273 -0.449569
v 0.0136932 0.525981 -0.441234
v 0.0130584 0.512532 -0.51352
v 0.0125842 0.512938 -0.513042
v 0.0152684 0.526793 -0.43159
v 0.0171329 0.527849 -0.419097
v 0.0187643 0.530959 -0.394076
v 0.0187643 0.532955 -0.381565
v 0.0180892 0.53523 -0.369621
v 0.0210869 0.535624 -0.356544
v 0.0148344 0.539071 -0.356544
v 0.0165221 0.539988 -0.344033
v 0.018917 0.540278 -0.332744
v -0.0367763 0.523718 -0.332744
v -0.0389703 0.516605 -0.344033
v -0.0387694 0.503294 -0.43159
v -0.0376442 0.500602 -0.464468
v -0.0373147 0.499836 -0.472821
v -0.0369209 0.498977 -0.481633
v -0.0362137 0.497736 -0.494144
v -0.0380943 0.489079 -0.51352
v -0.038697 0.515572 -0.356544
v 0.0062514 0.520515 -0.481633
v 0.0062514 0.522801 -0.469122
v 0.0070872 0.524739 -0.457479
v 0.00347075 0.526039 -0.453886
v 0.0070872 0.526933 -0.44488
v 0.0062514 0.529346 -0.43159
v 0.0062514 0.531447 -0.419097
v 0.0062514 0.533524 -0.406587
v 0.0116037 0.537748 -0.374186
v 0.0062514 0.518195 -0.494144
v 0.0134682 0.538375 -0.365834
v 0.0112501 0.513065 -0.51352
v 0.0062514 0.515607 -0.506637
v 0.00726401 0.544583 -0.332744
v -0.0296961 0.532491 -0.332744
v -0.0300095 0.530669 -0.344033
v -0.0362619 0.52286 -0.344033
v -0.0373871 0.512508 -0.398376
v -0.0376764 0.51317 -0.390024
v -0.0370656 0.511777 -0.406587
v -0.0364789 0.51071 -0.419097
v -0.0357396 0.509549 -0.43159
v -0.0299533 0.505627 -0.494144
v -0.0289005 0.504304 -0.506637
v -0.0351529 0.496262 -0.506637
v -0.0285951 0.516419 -0.444101
v -0.0346787 0.494765 -0.51352
v -0.00625347 0.518403 -0.494144
v -0.00409968 0.526039 -0.453886
v 0.0032618 0.538502 -0.379035
v 0.0062514 0.535566 -0.394076
v 0.00695862 0.537284 -0.382556
v 0.00695862 0.53928 -0.369621
v 0.0062514 0.541369 -0.356544
v 0.0062514 0.544908 -0.332744
v 0.0062514 0.513959 -0.51352
v -0.00625347 0.515804 -0.506637
v 0.00370381 0.514005 -0.51352
v -0.0247456 0.537783 -0.332744
v -0.0293103 0.529753 -0.356544
v -0.0355628 0.521827 -0.356544
v -0.0285147 0.528824 -0.369055
v -0.0294791 0.517475 -0.43159
v -0.0275825 0.515328 -0.456612
v -0.0264574 0.514203 -0.469122
v -0.0255814 0.51339 -0.478076
v -0.0245607 0.512613 -0.486411
v -0.023291 0.511882 -0.494144
v -0.0280245 0.503387 -0.51352
v -0.0276066 0.527849 -0.381565
v -0.0266101 0.526851 -0.394076
v -0.0128676 0.513065 -0.51352
v -0.0124336 0.525401 -0.450277
v -0.00625347 0.520713 -0.481633
v -0.00625347 0.522999 -0.469122
v -0.00745895 0.52489 -0.457479
v -0.00745895 0.527014 -0.445304
v -0.00625347 0.529532 -0.43159
v -0.00625347 0.531644 -0.419097
v -0.00385054 0.538502 -0.379035
v -0.00625347 0.54514 -0.332744
v -0.00625347 0.514145 -0.51352
v -0.0212657 0.539663 -0.332744
v -0.0244563 0.537574 -0.335486
v -0.0249224 0.525354 -0.412497
v -0.025726 0.526028 -0.404162
v -0.0170385 0.515166 -0.494144
v -0.023966 0.524774 -0.419097
v -0.0220373 0.52373 -0.43159
v -0.0184128 0.523219 -0.445304
v -0.0187583 0.521014 -0.456612
v -0.0187583 0.518775 -0.469122
v -0.014515 0.513866 -0.506637
v -0.0207755 0.510559 -0.506637
v -0.0189753 0.509688 -0.51352
v -0.0140087 0.526109 -0.441942
v -0.0121925 0.537876 -0.374983
v -0.00625347 0.533721 -0.406587
v -0.00625347 0.535752 -0.394076
v -0.0073143 0.537435 -0.382556
v -0.0073143 0.539361 -0.370116
v -0.00625347 0.541566 -0.356544
v -0.0137837 0.538502 -0.366648
v -0.0153348 0.539257 -0.356544
v -0.0170867 0.540185 -0.344033
v -0.0194013 0.540649 -0.332744
v -0.0233392 0.536924 -0.344033
v -0.0215872 0.536007 -0.356544
v -0.0182761 0.535613 -0.370116
v -0.0187583 0.531551 -0.394076
v -0.0177136 0.528047 -0.419097
v -0.0157768 0.526991 -0.43159
f 1 2 8
f 1 8 15
f 1 15 19
f 1 19 24
f 1 24 28
f 1 28 32
f 1 32 39
f 1 39 49
f 1 49 61
f 1 61 74
f 1 74 93
f 1 93 114
f 1 114 132
f 1 132 157
f 1 157 185
f 1 185 207
f 1 207 233
f 1 233 210
f 1 210 220
f 1 220 196
f 1 196 194
f 1 194 170
f 1 170 139
f 1 139 136
f 1 136 117
f 1 117 97
f 1 97 79
f 1 79 65
f 1 65 56
f 1 56 45
f 1 45 35
f 1 35 30
f 1 30 26
f 1 26 22
f 1 22 20
f 1 20 16
f 1 16 9
f 1 9 3
f 1 3 4
f 1 4 5
f 1 5 6
f 1 6 7
f 1 7 2
f 2 7 8
f 3 9 10
f 3 10 11
f 3 11 12
f 3 12 13
f 3 13 4
f 4 13 12
f 4 12 11
f 4 11 10
f 4 10 17
f 4 17 21
f 4 21 25
f 4 25 29
f 4 29 34
f 4 34 42
f 4 42 53
f 4 53 63
f 4 63 78
f 4 78 96
f 4 96 116
f 4 116 135
f 4 135 149
f 4 149 172
f 4 172 193
f 4 193 219
f 4 219 244
f 4 244 221
f 4 221 197
f 4 197 173
f 4 173 150
f 4 150 128
f 4 128 108
f 4 108 87
f 4 87 71
f 4 71 60
f 4 60 48
f 4 48 38
f 4 38 31
f 4 31 27
f 4 27 23
f 4 23 18
f 4 18 14
f 4 14 7
f 4 7 6
f 4 6 5
f 7 14 8
f 8 14 15
f 9 16 10
f 10 16 17
f 14 18 19
f 14 19 15
f 16 20 17
f 17 20 22
f 17 22 21
f 18 23 19
f 19 23 24
f 21 22 25
f 22 26 25
f 23 27 28
f 23 28 24
f 25 26 30
f 25 30 29
f 27 31 28
f 28 31 32
f 29 33 34
f 29 30 33
f 30 35 36
f 30 36 37
f 30 37 33
f 31 38 32
f 32 38 39
f 33 37 34
f 34 40 41
f 34 41 42
f 34 37 43
f 34 43 35
f 34 35 44
f 34 44 40
f 35 45 46
f 35 46 47
f 35 47 44
f 35 43 36
f 36 43 37
f 38 48 49
f 38 49 39
f 40 44 47
f 40 47 50
f 40 50 41
f 41 51 42
f 41 50 51
f 42 52 53
f 42 51 54
f 42 54 55
f 42 55 52
f 45 56 57
f 45 57 46
f 46 57 58
f 46 58 59
f 46 59 47
f 47 59 50
f 48 60 49
f 49 60 61
f 50 59 55
f 50 55 54
f 50 54 51
f 52 55 62
f 52 62 53
f 53 62 63
f 55 59 58
f 55 58 64
f 55 64 62
f 56 65 66
f 56 66 57
f 57 66 67
f 57 67 58
f 58 67 68
f 58 68 69
f 58 69 70
f 58 70 64
f 60 71 72
f 60 72 61
f 61 73 74
f 61 72 73
f 62 75 63
f 62 64 70
f 62 70 69
f 62 69 75
f 63 76 77
f 63 77 78
f 63 75 76
f 65 79 80
f 65 80 66
f 66 80 81
f 66 81 82
f 66 82 67
f 67 83 84
f 67 84 85
f 67 85 86
f 67 86 68
f 67 82 83
f 68 86 75
f 68 75 69
f 71 87 88
f 71 88 72
f 72 88 73
f 73 88 74
f 74 89 90
f 74 90 91
f 74 91 92
f 74 92 93
f 74 88 94
f 74 94 87
f 74 87 89
f 75 86 76
f 76 95 77
f 76 86 95
f 77 95 96
f 77 96 78
f 79 97 81
f 79 81 80
f 81 98 99
f 81 99 100
f 81 100 82
f 81 97 98
f 82 100 101
f 82 101 102
f 82 102 83
f 83 102 103
f 83 103 104
f 83 104 105
f 83 105 84
f 84 105 106
f 84 106 107
f 84 107 86
f 84 86 85
f 86 107 106
f 86 106 95
f 87 94 88
f 87 108 109
f 87 109 110
f 87 110 91
f 87 91 90
f 87 90 89
f 91 110 92
f 92 111 93
f 92 110 112
f 92 112 113
f 92 113 111
f 93 111 114
f 95 106 115
f 95 115 116
f 95 116 96
f 97 117 98
f 98 118 119
f 98 119 99
f 98 117 120
f 98 120 121
f 98 121 118
f 99 119 122
f 99 122 123
f 99 123 124
f 99 124 100
f 100 124 125
f 100 125 126
f 100 126 103
f 100 103 101
f 101 103 102
f 103 126 127
f 103 127 115
f 103 115 104
f 104 115 105
f 105 115 106
f 108 128 129
f 108 129 109
f 109 129 112
f 109 112 110
f 111 113 130
f 111 130 131
f 111 131 132
f 111 132 114
f 112 129 133
f 112 133 113
f 113 133 134
f 113 134 130
f 115 135 116
f 115 127 135
f 117 136 120
f 118 121 137
f 118 137 138
f 118 138 122
f 118 122 119
f 120 136 139
f 120 139 140
f 120 140 121
f 121 140 137
f 122 138 123
f 123 138 124
f 124 138 141
f 124 141 142
f 124 142 125
f 125 142 126
f 126 142 143
f 126 143 144
f 126 144 145
f 126 145 146
f 126 146 127
f 127 146 147
f 127 147 148
f 127 148 149
f 127 149 135
f 128 150 151
f 128 151 133
f 128 133 129
f 130 134 152
f 130 152 153
f 130 153 154
f 130 154 131
f 131 154 155
f 131 155 156
f 131 156 157
f 131 157 132
f 133 151 134
f 134 151 158
f 134 158 152
f 137 159 160
f 137 160 161
f 137 161 162
f 137 162 163
f 137 163 164
f 137 164 165
f 137 165 166
f 137 166 167
f 137 167 138
f 137 140 168
f 137 168 159
f 138 167 169
f 138 169 141
f 139 170 140
f 140 170 171
f 140 171 168
f 141 169 142
f 142 169 143
f 143 169 144
f 144 169 145
f 145 169 146
f 146 169 147
f 147 169 172
f 147 172 148
f 148 172 149
f 150 158 151
f 150 173 174
f 150 174 175
f 150 175 176
f 150 176 177
f 150 177 158
f 152 158 177
f 152 177 176
f 152 176 153
f 153 176 178
f 153 178 154
f 154 178 179
f 154 179 155
f 155 179 180
f 155 180 156
f 156 181 182
f 156 182 183
f 156 183 157
f 156 180 184
f 156 184 181
f 157 183 185
f 159 162 160
f 159 168 162
f 160 162 161
f 162 164 163
f 162 168 186
f 162 186 187
f 162 187 218
f 162 218 188
f 162 188 165
f 162 165 164
f 165 188 166
f 166 188 189
f 166 189 167
f 167 189 190
f 167 190 188
f 167 188 191
f 167 191 192
f 167 192 193
f 167 193 169
f 168 171 186
f 169 193 172
f 170 194 171
f 171 195 186
f 171 194 196
f 171 196 195
f 173 197 174
f 174 198 175
f 174 197 198
f 175 198 199
f 175 199 179
f 175 179 178
f 175 178 176
f 179 199 200
f 179 200 201
f 179 201 180
f 180 201 184
f 181 184 202
f 181 202 203
f 181 203 204
f 181 204 182
f 182 204 205
f 182 205 206
f 182 206 207
f 182 207 183
f 183 207 185
f 184 201 208
f 184 208 209
f 184 209 202
f 186 195 210
f 186 210 211
f 186 211 212
f 186 212 187
f 187 212 213
f 187 213 214
f 187 214 211
f 187 211 215
f 187 215 216
f 187 216 217
f 187 217 218
f 188 218 219
f 188 219 193
f 188 193 192
f 188 192 191
f 188 190 189
f 195 220 210
f 195 196 220
f 197 221 222
f 197 222 223
f 197 223 224
f 197 224 209
f 197 209 208
f 197 208 200
f 197 200 198
f 198 200 199
f 200 208 201
f 202 209 224
f 202 224 223
f 202 223 203
f 203 223 204
f 204 223 205
f 205 225 206
f 205 223 226
f 205 226 227
f 205 227 228
f 205 228 229
f 205 229 230
f 205 230 225
f 206 225 231
f 206 231 232
f 206 232 207
f 207 232 233
f 210 233 232
f 210 232 231
f 210 231 211
f 211 234 235
f 211 235 236
f 211 236 217
f 211 217 216
f 211 216 215
f 211 214 213
f 211 213 212
f 211 231 225
f 211 225 234
f 217 236 218
f 218 237 238
f 218 238 235
f 218 235 239
f 218 239 240
f 218 240 219
f 218 236 237
f 219 240 235
f 219 235 241
f 219 241 242
f 219 242 243
f 219 243 244
f 221 244 245
f 221 245 222
f 222 245 223
f 223 245 246
f 223 246 247
f 223 247 248
f 223 248 249
f 223 249 226
f 225 230 234
f 226 249 227
f 227 250 234
f 227 234 228
f 227 249 250
f 228 234 230
f 228 230 229
f 234 250 235
f 235 240 239
f 235 238 237
f 235 237 236
f 235 250 241
f 241 246 242
f 241 250 249
f 241 249 248
f 241 248 247
f 241 247 246
f 242 246 244
f 242 244 243
f 244 246 245
