v -0.00625034 0.514149 -0.513532
v 0.00370212 0.513996 -0.513532
v 0.00624866 0.513536 -0.51528
v -0.00625034 0.513633 -0.515637
v -0.0128665 0.513062 -0.513532
v 0.00624866 0.513954 -0.513532
v 0.011245 0.513062 -0.513532
v 0.00624866 0.511808 -0.521538
v -0.00625034 0.511905 -0.521895
v -0.00625034 0.508379 -0.531684
v -0.0153244 0.501857 -0.540922
v -0.0192006 0.503683 -0.531707
v -0.0177259 0.50909 -0.518283
v -0.018975 0.509689 -0.513532
v 0.0130582 0.512532 -0.513532
v 0.00624866 0.50817 -0.531684
v 0.000478649 0.500478 -0.550608
v -0.000568978 0.500478 -0.550608
v -0.00533971 0.502624 -0.544729
v -0.0089097 0.499767 -0.549262
v -0.0142445 0.488869 -0.564297
v -0.0185479 0.491238 -0.556486
v -0.0192006 0.497635 -0.544729
v -0.0236651 0.49953 -0.535883
v -0.0259216 0.501244 -0.527543
v -0.0273157 0.502624 -0.519168
v -0.0280249 0.50339 -0.513532
v 0.0186429 0.509271 -0.513532
v 0.017555 0.508672 -0.518006
v 0.0189814 0.503349 -0.531293
v 0.0149601 0.501718 -0.540657
v 0.00881938 0.499628 -0.548997
v 0.00528968 0.50254 -0.544568
v 0.00528968 0.496478 -0.555543
v 0.00624866 0.489817 -0.565597
v -0.00625034 0.489942 -0.565758
v -0.00533971 0.496659 -0.555543
v -0.00625034 0.48519 -0.572016
v -0.0156065 0.477345 -0.577629
v -0.0190959 0.481776 -0.569393
v -0.0225853 0.486222 -0.560512
v -0.0260747 0.488967 -0.552172
v -0.0280329 0.491169 -0.544189
v -0.0297333 0.494862 -0.531707
v -0.0342542 0.493412 -0.519743
v -0.0346813 0.494764 -0.513532
v 0.0239052 0.505801 -0.513532
v 0.0256217 0.500966 -0.526864
v 0.0233008 0.499252 -0.535204
v 0.0189814 0.497217 -0.544568
v 0.0183528 0.49089 -0.556198
v 0.0139125 0.488716 -0.56409
v 0.00624866 0.485065 -0.571855
v 0.00624866 0.478808 -0.579251
v -0.00625034 0.478933 -0.579378
v -0.00625034 0.47308 -0.585636
v -0.0156709 0.465053 -0.589938
v -0.019805 0.469791 -0.58238
v -0.0239472 0.474516 -0.574477
v -0.0271223 0.477874 -0.566149
v -0.0292659 0.481874 -0.556486
v -0.0347861 0.481358 -0.54481
v -0.0364865 0.485608 -0.531684
v -0.0373488 0.487392 -0.52431
v -0.0379612 0.488758 -0.51597
v -0.0380982 0.489078 -0.513532
v 0.0275961 0.502986 -0.513532
v 0.0268708 0.50222 -0.519168
v 0.0292803 0.494708 -0.531293
v 0.0276041 0.490737 -0.544189
v 0.0257748 0.48866 -0.5517
v 0.0222532 0.485901 -0.56004
v 0.0187396 0.481539 -0.569082
v 0.0152341 0.477177 -0.577445
v 0.00624866 0.472941 -0.585498
v 0.00624866 0.466684 -0.591399
v -0.00625034 0.466823 -0.591526
v -0.00625034 0.459395 -0.597784
v -0.0142687 0.451703 -0.601453
v -0.0191362 0.456803 -0.594379
v -0.0240117 0.461918 -0.587143
v -0.0274447 0.466168 -0.578803
v -0.0314579 0.468802 -0.568852
v -0.0357934 0.471896 -0.556704
v -0.0372843 0.474669 -0.5494
v -0.0381707 0.476996 -0.54106
v -0.0388396 0.479351 -0.531684
v -0.0392425 0.482584 -0.519743
v -0.0388799 0.48611 -0.513532
v 0.0342123 0.494304 -0.513532
v 0.0337932 0.493203 -0.519076
v 0.0371698 0.48696 -0.523183
v 0.0361544 0.48494 -0.531684
v 0.0343331 0.481065 -0.54435
v 0.0288049 0.481692 -0.556198
v 0.0268305 0.477554 -0.565735
v 0.0235667 0.474153 -0.574063
v 0.0194326 0.469513 -0.582104
v 0.0152905 0.464872 -0.589777
v 0.00624866 0.459242 -0.597657
v 0.00624866 0.452985 -0.602397
v -0.00625034 0.453138 -0.602512
v -0.0185721 0.443857 -0.6038
v -0.0226094 0.447884 -0.598808
v -0.0052833 0.442937 -0.609218
v -0.00880494 0.43661 -0.612336
v -0.0151955 0.428263 -0.614383
v -0.0271062 0.453584 -0.590467
v -0.0314498 0.45626 -0.581403
v -0.0357854 0.458949 -0.571556
v -0.0376228 0.463088 -0.563215
v -0.0383642 0.465639 -0.556704
v -0.0393231 0.469945 -0.54481
v -0.0407737 0.469122 -0.531684
v -0.0398389 0.482125 -0.513532
v 0.0373068 0.489566 -0.513532
v 0.0377984 0.48841 -0.514843
v 0.0386848 0.478682 -0.531684
v 0.0380159 0.476536 -0.540289
v 0.0370973 0.474223 -0.548629
v 0.0358159 0.46968 -0.557809
v 0.0298525 0.469638 -0.569623
v 0.0271529 0.465806 -0.578435
v 0.0236232 0.4615 -0.586775
v 0.0187799 0.456497 -0.594126
v 0.0139366 0.451494 -0.601304
v 0.00523327 0.442937 -0.609046
v 0.000390004 0.43799 -0.61306
v -0.000464215 0.43799 -0.61306
v -0.0191281 0.432095 -0.610162
v -0.0260263 0.439551 -0.601511
v -0.0052833 0.432095 -0.615131
v -0.00625034 0.419093 -0.620791
v -0.0127537 0.400754 -0.625611
v -0.0191281 0.419051 -0.616189
v -0.0235362 0.42319 -0.61206
v -0.0292256 0.443857 -0.594471
v -0.0357773 0.444094 -0.584463
v -0.0376228 0.450602 -0.575674
v -0.0382836 0.455507 -0.568116
v -0.0402015 0.456608 -0.556704
v -0.0411202 0.456608 -0.544189
v -0.0410396 0.469122 -0.519168
v -0.0407979 0.474766 -0.513532
v 0.0378709 0.488563 -0.513532
v 0.0390716 0.482334 -0.519076
v 0.0391442 0.46968 -0.54435
v 0.0406108 0.469122 -0.531684
v 0.0384592 0.465875 -0.554369
v 0.0374599 0.462642 -0.562709
v 0.0362269 0.457723 -0.570325
v 0.0298364 0.45704 -0.582242
v 0.0268144 0.453152 -0.590145
v 0.0222774 0.447383 -0.598485
v 0.00873073 0.436332 -0.612198
v 0.0183689 0.443564 -0.603432
v 0.0148311 0.427998 -0.614245
v 0.00523327 0.431942 -0.615039
v 0.00624866 0.419093 -0.620584
v -0.0280007 0.431607 -0.603685
v -0.00625034 0.409018 -0.624414
v -0.0176614 0.405589 -0.621596
v -0.00625034 0.40276 -0.626152
v -0.00625034 0.394065 -0.628107
v -0.00625034 0.381564 -0.630258
v -0.0142526 0.394065 -0.626313
v -0.0205142 0.394065 -0.623023
v -0.0258974 0.414843 -0.613808
v -0.0347539 0.432207 -0.59393
v -0.0372762 0.436778 -0.587246
v -0.0383561 0.444094 -0.578205
v -0.0402015 0.444094 -0.569209
v -0.0411605 0.444094 -0.556704
v -0.040959 0.371781 -0.594218
v -0.0409349 0.469122 -0.513532
v 0.0395954 0.482013 -0.513532
v 0.039531 0.457723 -0.557809
v 0.0410379 0.469122 -0.519168
v 0.0410621 0.456608 -0.544189
v 0.0385398 0.454295 -0.566885
v 0.0374518 0.4501 -0.575214
v 0.0357998 0.445195 -0.582254
v 0.0287646 0.443564 -0.594275
v 0.0257265 0.439063 -0.601212
v 0.0189088 0.431942 -0.609736
v 0.0231719 0.422521 -0.611795
v 0.0189088 0.418647 -0.615856
v 0.0124458 0.40028 -0.625484
v 0.00746552 0.407025 -0.624541
v 0.00411311 0.403137 -0.626255
v -0.0297091 0.419051 -0.607424
v -0.0364784 0.419093 -0.598152
v 0.00624866 0.381564 -0.630063
v -0.0164123 0.381564 -0.627382
v -0.00625034 0.371781 -0.631041
v -0.0226739 0.381564 -0.624127
v -0.0288066 0.394065 -0.616776
v -0.0272593 0.406579 -0.615154
v -0.0381627 0.42843 -0.589582
v -0.0393151 0.432207 -0.58253
v -0.0407576 0.419093 -0.581713
v -0.0411202 0.431607 -0.569209
v -0.0409107 0.381564 -0.594218
v -0.039444 0.371781 -0.602178
v -0.0408301 0.371781 -0.59148
v -0.0410316 0.406579 -0.581713
v -0.0398792 0.461987 -0.513532
v -0.0400162 0.371781 -0.581713
v 0.0409896 0.469122 -0.513532
v 0.0411669 0.444094 -0.556704
v 0.0395229 0.445195 -0.570325
v 0.0384592 0.441767 -0.578458
v 0.0370892 0.436011 -0.586798
v 0.034309 0.431747 -0.593654
v 0.0275719 0.431607 -0.603259
v 0.0255975 0.414174 -0.613532
v 0.0187638 0.406579 -0.620101
v 0.0185543 0.395291 -0.623207
v 0.0142509 0.391932 -0.626347
v 0.00746552 0.395291 -0.62744
v -0.0341978 0.407081 -0.605963
v -0.0373326 0.411568 -0.599935
v 0.0158788 0.381564 -0.627187
v 0.00624866 0.371781 -0.630833
v 0.00351677 0.371781 -0.630879
v -0.00847454 0.371781 -0.630408
v -0.0171618 0.371781 -0.627785
v -0.0297575 0.381564 -0.61788
v -0.0234153 0.371781 -0.62453
v -0.036011 0.381564 -0.610047
v -0.0350601 0.394065 -0.608747
v -0.0388316 0.419093 -0.591894
v -0.0392184 0.407081 -0.595149
v -0.0404755 0.394065 -0.594218
v -0.038888 0.381564 -0.603789
v -0.0390008 0.371781 -0.604272
v -0.0389605 0.457612 -0.513532
v -0.039573 0.371781 -0.579976
v -0.0380579 0.371781 -0.574408
v 0.039128 0.457138 -0.513532
v 0.0403288 0.371781 -0.581713
v 0.0408768 0.371781 -0.594218
v 0.0410299 0.406579 -0.581713
v 0.0410541 0.431607 -0.569209
v 0.0405947 0.419093 -0.581713
v 0.0391361 0.431747 -0.582254
v 0.0380079 0.427664 -0.58911
v 0.0361383 0.419093 -0.597485
v 0.0292642 0.418647 -0.607263
v 0.0268063 0.406579 -0.61474
v 0.0221323 0.381564 -0.623759
v -0.037929 0.403234 -0.601281
v 0.016596 0.371781 -0.627578
v -0.0249626 0.371781 -0.623161
v -0.0300718 0.371781 -0.618272
v -0.0363253 0.371781 -0.61053
v -0.0384528 0.394065 -0.602489
v -0.0369539 0.371781 -0.609161
v -0.0368733 0.451828 -0.513532
v -0.0373004 0.371781 -0.57304
v 0.0374035 0.45187 -0.513532
v 0.0383061 0.371781 -0.573879
v 0.038846 0.371781 -0.603616
v 0.0407559 0.381564 -0.594218
v 0.0386687 0.419093 -0.591238
v 0.0401918 0.394065 -0.594218
v 0.0390475 0.406384 -0.594896
v 0.0371537 0.410411 -0.599521
v 0.0337287 0.406384 -0.605756
v 0.0283858 0.394065 -0.616385
v 0.0293529 0.381564 -0.617501
v 0.0228495 0.371781 -0.624138
v 0.0214796 0.371781 -0.624898
v -0.0349312 0.448665 -0.513532
v -0.0342139 0.371781 -0.568162
v -0.032844 0.371781 -0.566356
v -0.0279604 0.371781 -0.560063
v 0.0371617 0.451257 -0.513532
v 0.0346394 0.371781 -0.567633
v 0.0359288 0.371781 -0.609874
v 0.0386929 0.381564 -0.603133
v 0.0377661 0.402078 -0.600936
v 0.0382174 0.394065 -0.601914
v 0.0346394 0.394065 -0.608171
v 0.0356064 0.381564 -0.609391
v 0.0345588 0.371781 -0.611646
v 0.0296672 0.371781 -0.617892
v -0.0281055 0.43923 -0.513532
v -0.0261875 0.371781 -0.558695
v 0.0322782 0.444108 -0.513532
v 0.0283858 0.371781 -0.559684
v -0.0258249 0.436945 -0.513532
v -0.0180966 0.371781 -0.553403
v 0.0262825 0.436443 -0.513532
v 0.0185059 0.371781 -0.553
v -0.0170248 0.371781 -0.552793
v -0.0189669 0.431803 -0.513532
v 0.0238488 0.434534 -0.513532
v 0.0127601 0.371781 -0.550297
v 0.0191989 0.431245 -0.513532
v -0.0154453 0.371781 -0.552115
v -0.0092804 0.371781 -0.54994
v -0.013487 0.429531 -0.513532
v 0.00678859 0.371781 -0.548997
v 0.00624866 0.426591 -0.513532
v -0.00658075 0.371781 -0.549227
v -0.00625034 0.4268 -0.513532
v -0.00483202 0.426772 -0.513532
f 1 2 3
f 1 3 4
f 1 4 5
f 1 5 14
f 1 14 27
f 1 27 46
f 1 46 66
f 1 66 89
f 1 89 115
f 1 115 144
f 1 144 175
f 1 175 207
f 1 207 237
f 1 237 259
f 1 259 274
f 1 274 288
f 1 288 292
f 1 292 297
f 1 297 303
f 1 303 307
f 1 307 308
f 1 308 305
f 1 305 300
f 1 300 298
f 1 298 294
f 1 294 290
f 1 290 278
f 1 278 261
f 1 261 240
f 1 240 209
f 1 209 176
f 1 176 145
f 1 145 116
f 1 116 90
f 1 90 67
f 1 67 47
f 1 47 28
f 1 28 15
f 1 15 7
f 1 7 6
f 1 6 2
f 2 6 3
f 3 6 7
f 3 7 8
f 3 8 9
f 3 9 4
f 4 9 5
f 5 9 10
f 5 10 11
f 5 11 12
f 5 12 13
f 5 13 14
f 7 15 8
f 8 15 16
f 8 16 9
f 9 16 10
f 10 16 17
f 10 17 18
f 10 18 19
f 10 19 20
f 10 20 11
f 11 20 21
f 11 21 22
f 11 22 23
f 11 23 24
f 11 24 12
f 12 24 25
f 12 25 13
f 13 25 14
f 14 25 26
f 14 26 27
f 15 28 29
f 15 29 30
f 15 30 31
f 15 31 16
f 16 31 32
f 16 32 33
f 16 33 17
f 17 33 32
f 17 32 34
f 17 34 35
f 17 35 36
f 17 36 18
f 18 36 37
f 18 37 20
f 18 20 19
f 20 37 36
f 20 36 21
f 21 36 38
f 21 38 39
f 21 39 40
f 21 40 41
f 21 41 22
f 22 41 42
f 22 42 23
f 23 42 24
f 24 43 25
f 24 42 43
f 25 43 44
f 25 44 26
f 26 44 45
f 26 45 46
f 26 46 27
f 28 47 48
f 28 48 29
f 29 48 30
f 30 48 49
f 30 49 31
f 31 49 50
f 31 50 51
f 31 51 52
f 31 52 32
f 32 52 34
f 34 52 35
f 35 52 53
f 35 53 38
f 35 38 36
f 38 53 54
f 38 54 55
f 38 55 39
f 39 55 56
f 39 56 57
f 39 57 58
f 39 58 59
f 39 59 40
f 40 59 41
f 41 59 60
f 41 60 42
f 42 60 61
f 42 61 43
f 43 61 62
f 43 62 63
f 43 63 44
f 44 63 64
f 44 64 45
f 45 64 46
f 46 64 65
f 46 65 66
f 47 67 68
f 47 68 48
f 48 68 69
f 48 69 70
f 48 70 49
f 49 70 71
f 49 71 50
f 50 71 51
f 51 71 72
f 51 72 52
f 52 72 73
f 52 73 74
f 52 74 53
f 53 74 54
f 54 74 75
f 54 75 56
f 54 56 55
f 56 75 76
f 56 76 77
f 56 77 57
f 57 77 78
f 57 78 79
f 57 79 80
f 57 80 81
f 57 81 58
f 58 81 59
f 59 81 82
f 59 82 60
f 60 82 83
f 60 83 84
f 60 84 61
f 61 84 85
f 61 85 62
f 62 85 63
f 63 85 86
f 63 86 64
f 64 86 87
f 64 87 65
f 65 87 88
f 65 88 89
f 65 89 66
f 67 90 91
f 67 91 68
f 68 91 69
f 69 91 92
f 69 92 93
f 69 93 70
f 70 93 94
f 70 94 95
f 70 95 71
f 71 95 96
f 71 96 72
f 72 96 97
f 72 97 73
f 73 97 74
f 74 97 98
f 74 98 99
f 74 99 75
f 75 99 76
f 76 99 100
f 76 100 78
f 76 78 77
f 78 100 101
f 78 101 102
f 78 102 79
f 79 103 104
f 79 104 80
f 79 102 105
f 79 105 106
f 79 106 107
f 79 107 103
f 80 104 81
f 81 104 108
f 81 108 82
f 82 108 109
f 82 109 110
f 82 110 83
f 83 110 111
f 83 111 84
f 84 111 85
f 85 111 112
f 85 112 86
f 86 112 113
f 86 113 87
f 87 113 114
f 87 114 88
f 88 115 89
f 88 114 115
f 90 116 92
f 90 92 91
f 92 116 117
f 92 117 118
f 92 118 119
f 92 119 93
f 93 119 120
f 93 120 94
f 94 120 95
f 95 120 121
f 95 121 96
f 96 121 122
f 96 122 123
f 96 123 97
f 97 123 124
f 97 124 98
f 98 124 99
f 99 124 125
f 99 125 126
f 99 126 100
f 100 126 101
f 101 126 127
f 101 127 128
f 101 128 102
f 102 128 129
f 102 129 105
f 103 130 131
f 103 131 104
f 103 107 130
f 104 131 108
f 105 129 106
f 106 129 132
f 106 132 133
f 106 133 107
f 107 133 134
f 107 134 135
f 107 135 136
f 107 136 130
f 108 131 137
f 108 137 138
f 108 138 109
f 109 138 139
f 109 139 110
f 110 139 111
f 111 139 140
f 111 140 112
f 112 140 141
f 112 141 113
f 113 141 114
f 114 141 142
f 114 142 143
f 114 143 144
f 114 144 115
f 116 145 117
f 117 145 146
f 117 146 118
f 118 147 119
f 118 146 148
f 118 148 147
f 119 147 149
f 119 149 120
f 120 149 150
f 120 150 121
f 121 150 122
f 122 150 151
f 122 151 123
f 123 151 152
f 123 152 153
f 123 153 124
f 124 153 154
f 124 154 125
f 125 154 126
f 126 155 127
f 126 154 156
f 126 156 157
f 126 157 155
f 127 155 128
f 128 155 158
f 128 158 159
f 128 159 133
f 128 133 129
f 129 133 132
f 130 136 131
f 131 136 160
f 131 160 137
f 133 159 161
f 133 161 134
f 134 162 135
f 134 161 163
f 134 163 164
f 134 164 165
f 134 165 166
f 134 166 167
f 134 167 162
f 135 162 168
f 135 168 136
f 136 168 160
f 137 160 169
f 137 169 170
f 137 170 138
f 138 170 139
f 139 170 171
f 139 171 140
f 140 171 172
f 140 172 141
f 141 172 173
f 141 173 142
f 142 173 143
f 143 173 174
f 143 174 175
f 143 175 144
f 145 176 146
f 146 176 148
f 147 148 177
f 147 177 149
f 148 178 179
f 148 179 177
f 148 176 178
f 149 177 180
f 149 180 150
f 150 180 181
f 150 181 151
f 151 181 152
f 152 181 182
f 152 182 153
f 153 182 183
f 153 183 184
f 153 184 154
f 154 184 156
f 155 157 159
f 155 159 158
f 156 184 185
f 156 185 157
f 157 186 187
f 157 187 188
f 157 188 159
f 157 185 186
f 159 188 189
f 159 189 190
f 159 190 161
f 160 168 191
f 160 191 192
f 160 192 169
f 161 190 163
f 162 167 168
f 163 190 164
f 164 190 193
f 164 193 165
f 165 194 166
f 165 193 195
f 165 195 194
f 166 194 196
f 166 196 167
f 167 196 197
f 167 197 198
f 167 198 168
f 168 198 191
f 169 192 170
f 170 192 199
f 170 199 171
f 171 199 200
f 171 200 172
f 172 200 201
f 172 201 202
f 172 202 173
f 173 202 174
f 174 203 204
f 174 204 236
f 174 236 258
f 174 258 256
f 174 256 255
f 174 255 254
f 174 254 229
f 174 229 227
f 174 227 226
f 174 226 195
f 174 195 225
f 174 225 224
f 174 224 253
f 174 253 273
f 174 273 272
f 174 272 287
f 174 287 286
f 174 286 280
f 174 280 263
f 174 263 242
f 174 242 241
f 174 241 262
f 174 262 279
f 174 279 291
f 174 291 295
f 174 295 299
f 174 299 304
f 174 304 306
f 174 306 302
f 174 302 301
f 174 301 296
f 174 296 293
f 174 293 289
f 174 289 277
f 174 277 276
f 174 276 275
f 174 275 260
f 174 260 239
f 174 239 238
f 174 238 208
f 174 208 205
f 174 205 175
f 174 202 206
f 174 206 203
f 175 205 208
f 175 208 207
f 176 209 178
f 177 179 210
f 177 210 211
f 177 211 180
f 178 209 210
f 178 210 179
f 180 211 212
f 180 212 181
f 181 212 213
f 181 213 182
f 182 213 183
f 183 213 214
f 183 214 215
f 183 215 184
f 184 215 186
f 184 186 185
f 186 215 216
f 186 216 187
f 187 216 217
f 187 217 188
f 188 218 219
f 188 219 193
f 188 193 220
f 188 220 190
f 188 190 189
f 188 217 218
f 190 220 193
f 191 198 221
f 191 221 222
f 191 222 192
f 192 222 199
f 193 219 223
f 193 223 224
f 193 224 225
f 193 225 195
f 194 195 226
f 194 226 227
f 194 227 196
f 196 228 197
f 196 227 229
f 196 229 228
f 197 228 230
f 197 230 231
f 197 231 198
f 198 231 221
f 199 222 232
f 199 232 200
f 200 232 201
f 201 232 233
f 201 233 234
f 201 234 203
f 201 203 206
f 201 206 202
f 203 234 235
f 203 235 204
f 204 235 236
f 207 208 238
f 207 238 239
f 207 239 237
f 209 240 241
f 209 241 242
f 209 242 210
f 210 242 243
f 210 243 244
f 210 244 211
f 211 244 245
f 211 245 246
f 211 246 212
f 212 246 247
f 212 247 213
f 213 247 248
f 213 248 214
f 214 248 215
f 215 248 249
f 215 249 216
f 216 249 250
f 216 250 217
f 217 250 218
f 218 250 251
f 218 251 219
f 219 251 223
f 221 231 222
f 222 231 252
f 222 252 232
f 223 251 253
f 223 253 224
f 228 229 254
f 228 254 255
f 228 255 256
f 228 256 230
f 230 235 257
f 230 257 252
f 230 252 231
f 230 256 235
f 232 252 233
f 233 252 257
f 233 257 234
f 234 257 235
f 235 256 258
f 235 258 236
f 237 239 259
f 239 260 259
f 240 261 262
f 240 262 241
f 242 263 264
f 242 264 243
f 243 264 245
f 243 245 244
f 245 265 246
f 245 264 266
f 245 266 267
f 245 267 265
f 246 265 247
f 247 265 268
f 247 268 248
f 248 268 249
f 249 268 269
f 249 269 250
f 250 269 270
f 250 270 251
f 251 270 271
f 251 271 272
f 251 272 273
f 251 273 253
f 259 260 275
f 259 275 276
f 259 276 277
f 259 277 274
f 261 278 262
f 262 278 279
f 263 280 281
f 263 281 264
f 264 281 266
f 265 267 282
f 265 282 268
f 266 281 283
f 266 283 267
f 267 283 282
f 268 282 284
f 268 284 269
f 269 284 270
f 270 284 285
f 270 285 271
f 271 285 280
f 271 280 286
f 271 286 287
f 271 287 272
f 274 277 288
f 277 289 288
f 278 290 291
f 278 291 279
f 280 285 281
f 281 285 283
f 282 283 285
f 282 285 284
f 288 289 292
f 289 293 292
f 290 294 291
f 291 294 295
f 292 293 296
f 292 296 297
f 294 298 295
f 295 298 300
f 295 300 299
f 296 301 297
f 297 301 302
f 297 302 303
f 299 300 305
f 299 305 304
f 302 306 303
f 303 306 307
f 304 305 308
f 304 308 307
f 304 307 306
