v 0.0414426 -0.590309 -0.311581
v 0.0437998 -0.590309 -0.311274
v 0.0414426 -0.590309 -0.275275
v 0.0414426 -0.143816 -0.330239
v 0.102436 -0.590309 -0.303557
v 0.140977 -0.590309 -0.251107
v 0.172604 0.606665 -0.249712
v 0.0414426 0.606665 -0.283118
v 0.124339 -0.590309 -0.300088
v 0.118092 -0.590309 -0.301223
v 0.114419 -0.590309 -0.301791
v 0.106345 -0.590309 -0.303036
v 0.0414426 0.506648 -0.330191
v 0.124339 0.594133 -0.300088
v 0.152862 -0.590309 -0.24998
v 0.172584 0.605352 -0.249712
v 0.1739 0.614542 -0.249712
v 0.173959 0.614661 -0.249712
v 0.0414426 0.619316 -0.285198
v 0.129171 -0.590309 -0.298204
v 0.0414426 0.619077 -0.309263
v 0.116089 0.615139 -0.300869
v 0.124221 0.606665 -0.300065
v 0.131371 0.606665 -0.297298
v 0.131371 0.594133 -0.297345
v 0.156614 -0.590309 -0.249712
v 0.17944 0.620868 -0.249712
v 0.184547 0.625761 -0.249712
v 0.0414426 0.625761 -0.287461
v 0.131371 -0.590309 -0.297345
v 0.0414426 0.628029 -0.30358
v 0.0437998 0.628029 -0.303438
v 0.0688063 0.627074 -0.301941
v 0.0813193 0.626477 -0.301184
v 0.09065 0.62588 -0.300609
v 0.098979 0.625045 -0.299986
v 0.0688063 0.619197 -0.305772
v 0.106345 0.617406 -0.301594
v 0.106345 0.623732 -0.299347
v 0.119703 0.619197 -0.298559
v 0.131371 0.619197 -0.294949
v 0.151526 0.6149 -0.28832
v 0.213364 0.613945 -0.263002
v 0.152292 0.606665 -0.288635
v 0.220023 0.606665 -0.260582
v 0.20641 0.594133 -0.266265
v 0.242083 -0.590309 -0.249712
v 0.185529 0.626238 -0.249712
v 0.193897 0.627671 -0.249712
v 0.0414426 0.628267 -0.293814
v 0.20641 -0.590309 -0.266265
v 0.0437998 0.628387 -0.293979
v 0.0563129 0.628864 -0.293979
v 0.0688063 0.628983 -0.293979
v 0.0813193 0.628745 -0.293979
v 0.118858 0.628148 -0.291985
v 0.0944216 0.620151 -0.302201
v 0.0813193 0.619197 -0.304187
v 0.131371 0.627313 -0.290188
v 0.139759 0.626238 -0.288572
v 0.143884 0.619077 -0.289975
v 0.148088 0.623255 -0.286688
v 0.174823 0.625164 -0.27503
v 0.205998 0.618481 -0.264428
v 0.209907 0.6223 -0.261378
v 0.231888 0.619555 -0.253101
v 0.23894 0.615616 -0.251068
v 0.231417 0.606665 -0.255639
v 0.231417 0.594133 -0.255687
v 0.220063 0.594133 -0.260605
v 0.239628 -0.590309 -0.251548
v 0.242083 0.594133 -0.249712
v 0.218923 0.628148 -0.249712
v 0.193897 0.628864 -0.256459
v 0.220063 -0.590309 -0.260605
v 0.131371 0.628864 -0.281478
v 0.181384 0.628029 -0.267305
v 0.156358 0.62779 -0.278688
v 0.218923 0.627671 -0.253251
v 0.193897 0.627074 -0.264744
v 0.166494 0.626716 -0.276717
v 0.228018 0.626596 -0.251438
v 0.201578 0.626 -0.263262
v 0.235954 0.623493 -0.249712
v 0.236878 0.6223 -0.249712
v 0.24116 0.612752 -0.249712
v 0.242024 0.606665 -0.249712
v 0.239589 0.606665 -0.251517
v 0.240139 0.616571 -0.249712
v 0.239628 0.594133 -0.251548
v 0.231417 -0.590309 -0.255687
v 0.227881 -0.590309 -0.257224
v 0.229001 0.626955 -0.249712
v 0.235012 0.624329 -0.249712
f 1 2 5
f 1 5 12
f 1 12 11
f 1 11 10
f 1 10 9
f 1 9 20
f 1 20 30
f 1 30 51
f 1 51 75
f 1 75 92
f 1 92 91
f 1 91 71
f 1 71 47
f 1 47 26
f 1 26 15
f 1 15 6
f 1 6 3
f 1 3 8
f 1 8 19
f 1 19 29
f 1 29 50
f 1 50 31
f 1 31 21
f 1 21 13
f 1 13 4
f 1 4 2
f 2 4 5
f 3 6 7
f 3 7 8
f 4 9 10
f 4 10 11
f 4 11 12
f 4 12 5
f 4 13 14
f 4 14 9
f 6 15 16
f 6 16 7
f 7 17 8
f 7 16 26
f 7 26 47
f 7 47 72
f 7 72 87
f 7 87 86
f 7 86 89
f 7 89 85
f 7 85 84
f 7 84 94
f 7 94 93
f 7 93 73
f 7 73 49
f 7 49 48
f 7 48 28
f 7 28 27
f 7 27 18
f 7 18 17
f 8 17 18
f 8 18 19
f 9 14 20
f 13 21 22
f 13 22 23
f 13 23 14
f 14 23 24
f 14 24 25
f 14 25 20
f 15 26 16
f 18 27 19
f 19 27 28
f 19 28 29
f 20 25 30
f 21 31 32
f 21 32 33
f 21 33 34
f 21 34 35
f 21 35 36
f 21 36 37
f 21 37 38
f 21 38 22
f 22 38 39
f 22 39 40
f 22 40 41
f 22 41 23
f 23 41 42
f 23 42 24
f 24 42 43
f 24 43 44
f 24 44 25
f 25 44 45
f 25 45 46
f 25 46 51
f 25 51 30
f 28 48 29
f 29 48 49
f 29 49 50
f 31 50 52
f 31 52 53
f 31 53 54
f 31 54 32
f 32 54 55
f 32 55 56
f 32 56 33
f 33 56 34
f 34 56 35
f 35 56 36
f 36 39 38
f 36 38 57
f 36 57 58
f 36 58 37
f 36 56 59
f 36 59 39
f 37 58 38
f 38 58 57
f 39 59 60
f 39 60 40
f 40 60 41
f 41 61 42
f 41 60 62
f 41 62 61
f 42 61 63
f 42 63 43
f 43 63 64
f 43 64 65
f 43 65 66
f 43 66 67
f 43 67 68
f 43 68 45
f 43 45 44
f 45 68 69
f 45 69 70
f 45 70 46
f 46 70 75
f 46 75 51
f 47 71 90
f 47 90 72
f 49 73 74
f 49 74 50
f 50 74 52
f 52 74 53
f 53 74 54
f 54 74 76
f 54 76 55
f 55 76 56
f 56 76 74
f 56 74 77
f 56 77 78
f 56 78 59
f 59 78 79
f 59 79 80
f 59 80 81
f 59 81 60
f 60 81 82
f 60 82 83
f 60 83 63
f 60 63 62
f 61 62 63
f 63 65 64
f 63 83 65
f 65 83 84
f 65 84 66
f 66 84 85
f 66 85 67
f 67 86 87
f 67 87 88
f 67 88 68
f 67 85 89
f 67 89 86
f 68 88 90
f 68 90 69
f 69 90 71
f 69 71 91
f 69 91 92
f 69 92 70
f 70 92 75
f 72 90 87
f 73 93 79
f 73 79 74
f 74 79 77
f 77 79 78
f 79 93 82
f 79 82 80
f 80 82 81
f 82 93 94
f 82 94 83
f 83 94 84
f 87 90 88
