v -0.142471 -0.591728 -0.292746
v -0.142471 -0.450238 -0.292746
v -0.142471 -0.591728 -0.244238
v -0.158616 -0.591728 -0.286061
v -0.155561 -0.450238 -0.28733
v -0.142471 -0.450238 -0.262143
v -0.310264 -0.591728 -0.140328
v -0.213836 -0.591728 -0.263188
v -0.213836 -0.450238 -0.263188
v -0.310264 -0.450238 -0.161456
v -0.310264 -0.591728 -0.197505
v -0.220093 -0.591728 -0.260591
v -0.220093 -0.450238 -0.260591
v -0.310264 -0.450238 -0.197505
v -0.28911 -0.591728 -0.213739
v -0.222344 -0.591728 -0.259621
v -0.225891 -0.450238 -0.258085
v -0.28911 -0.450238 -0.213739
v -0.250052 -0.450238 -0.243701
v -0.24588 -0.591728 -0.246894
v -0.231426 -0.591728 -0.255682
v -0.231426 -0.450238 -0.255682
v -0.24588 -0.450238 -0.246894
v -0.239639 -0.591728 -0.251534
v -0.233052 -0.591728 -0.254862
v -0.239639 -0.450238 -0.251534
f 1 2 6
f 1 6 3
f 1 3 7
f 1 7 11
f 1 11 15
f 1 15 20
f 1 20 24
f 1 24 25
f 1 25 21
f 1 21 16
f 1 16 12
f 1 12 8
f 1 8 4
f 1 4 5
f 1 5 2
f 2 5 9
f 2 9 13
f 2 13 17
f 2 17 22
f 2 22 26
f 2 26 23
f 2 23 19
f 2 19 18
f 2 18 14
f 2 14 10
f 2 10 6
f 3 6 7
f 4 8 5
f 5 8 9
f 6 10 7
f 7 10 14
f 7 14 11
f 8 12 13
f 8 13 9
f 11 14 18
f 11 18 15
f 12 16 13
f 13 16 17
f 15 18 19
f 15 19 20
f 16 21 17
f 17 21 22
f 19 23 20
f 20 23 26
f 20 26 24
f 21 25 22
f 22 25 26
f 24 26 25
