v 0.349521 0.628531 0.449952
v 0.35627 0.628053 0.449952
v 0.356536 0.628889 0.444093
v 0.443983 0.62877 0.269118
v 0.344732 0.627814 0.449952
v 0.369811 0.628292 0.432251
v 0.360667 0.627098 0.449952
v 0.394063 0.629009 0.394052
v 0.431591 0.628889 0.306503
v 0.381741 0.628053 0.41901
v 0.444095 0.62877 0.269118
v 0.436716 0.6265 0.269118
v 0.346692 0.627337 0.444093
v 0.33822 0.624709 0.449952
v 0.393685 0.627575 0.405734
v 0.363341 0.625784 0.449952
v 0.389274 0.62662 0.41478
v 0.37768 0.626978 0.428533
v 0.406568 0.628889 0.36904
v 0.402927 0.627217 0.394052
v 0.407086 0.627934 0.381325
v 0.444095 0.62877 0.281491
v 0.452931 0.627695 0.269118
v 0.433453 0.619214 0.269118
v 0.33528 0.617422 0.449952
v 0.400841 0.625903 0.401026
v 0.366366 0.619333 0.449952
v 0.374488 0.623872 0.43687
v 0.417644 0.628053 0.356543
v 0.428972 0.627934 0.331514
v 0.415026 0.627217 0.36904
v 0.413485 0.626142 0.377006
v 0.444375 0.627814 0.293156
v 0.451671 0.62662 0.281491
v 0.457734 0.619214 0.269118
v 0.431213 0.606672 0.269118
v 0.333445 0.606672 0.449952
v 0.411595 0.622678 0.385343
v 0.402381 0.619214 0.403009
v 0.408738 0.618736 0.393291
v 0.36897 0.606672 0.449952
v 0.376266 0.61563 0.439101
v 0.440469 0.627456 0.306503
v 0.438788 0.626381 0.315194
v 0.425332 0.625425 0.350277
v 0.450621 0.625664 0.28843
v 0.455157 0.619214 0.281491
v 0.460002 0.606672 0.269118
v 0.420963 -0.591176 0.269118
v 0.410545 -0.591296 0.281474
v 0.317006 -0.591296 0.449952
v 0.413233 0.614316 0.388618
v 0.414745 0.618736 0.381325
v 0.387818 0.612525 0.425329
v 0.403683 0.606672 0.40469
v 0.376784 0.606672 0.439773
v 0.368998 0.600699 0.449952
v 0.43855 0.615153 0.326965
v 0.440287 0.619333 0.31923
v 0.451839 0.619214 0.291368
v 0.450341 0.611211 0.300219
v 0.457384 0.606672 0.281491
v 0.460058 0.594129 0.269118
v 0.421215 -0.591296 0.269118
v 0.369026 -0.591296 0.449952
v 0.409929 0.606672 0.395326
v 0.413457 0.606672 0.389078
v 0.416678 0.606672 0.381537
v 0.39888 0.606672 0.410956
v 0.403711 0.594129 0.404726
v 0.409957 0.594129 0.395379
v 0.376812 0.594129 0.439809
v 0.383071 0.594129 0.431649
v 0.387846 0.604163 0.425365
v 0.369026 0.594129 0.449952
v 0.427488 0.606672 0.355481
v 0.448282 0.60691 0.305281
v 0.452441 0.60691 0.295227
v 0.453001 0.594129 0.293988
v 0.457426 0.594129 0.281491
v 0.460058 -0.591296 0.269118
v 0.376812 -0.591296 0.439809
v 0.413485 0.594129 0.389113
v 0.41672 0.594129 0.381537
v 0.421915 0.594129 0.36904
v 0.398908 0.594129 0.410992
v 0.403711 -0.591296 0.404726
v 0.405168 -0.591296 0.402548
v 0.409957 -0.591296 0.395379
v 0.383071 -0.591296 0.431649
v 0.450369 0.602969 0.30029
v 0.450383 0.594129 0.300325
v 0.450999 -0.591296 0.298838
v 0.453001 -0.591296 0.293988
v 0.454037 -0.591296 0.291068
v 0.457426 -0.591296 0.281491
v 0.413485 -0.591296 0.389113
v 0.414241 -0.591296 0.387343
v 0.41672 -0.591296 0.381537
v 0.417938 -0.591296 0.378617
v 0.442639 0.594129 0.319017
v 0.421915 -0.591296 0.36904
v 0.43981 -0.591296 0.32585
v 0.398908 -0.591296 0.410992
f 1 2 3
f 1 3 4
f 1 4 5
f 1 5 14
f 1 14 25
f 1 25 37
f 1 37 51
f 1 51 65
f 1 65 75
f 1 75 57
f 1 57 41
f 1 41 27
f 1 27 16
f 1 16 7
f 1 7 2
f 2 6 3
f 2 7 6
f 3 8 9
f 3 9 4
f 3 6 10
f 3 10 8
f 4 9 11
f 4 11 23
f 4 23 35
f 4 35 48
f 4 48 63
f 4 63 81
f 4 81 64
f 4 64 49
f 4 49 36
f 4 36 24
f 4 24 12
f 4 12 5
f 5 12 13
f 5 13 14
f 6 7 10
f 7 15 10
f 7 16 17
f 7 17 18
f 7 18 15
f 8 19 22
f 8 22 9
f 8 10 15
f 8 15 20
f 8 20 21
f 8 21 19
f 9 22 11
f 11 22 23
f 12 14 13
f 12 24 14
f 14 24 25
f 15 18 17
f 15 17 26
f 15 26 20
f 16 27 28
f 16 28 26
f 16 26 17
f 19 21 29
f 19 29 30
f 19 30 22
f 20 31 21
f 20 26 32
f 20 32 31
f 21 31 29
f 22 30 33
f 22 33 23
f 23 33 34
f 23 34 35
f 24 36 25
f 25 36 37
f 26 38 32
f 26 28 39
f 26 39 40
f 26 40 38
f 27 41 42
f 27 42 28
f 28 42 39
f 29 31 30
f 30 31 43
f 30 43 33
f 31 32 44
f 31 44 43
f 32 38 45
f 32 45 44
f 33 43 34
f 34 43 46
f 34 46 47
f 34 47 35
f 35 47 48
f 36 49 50
f 36 50 51
f 36 51 37
f 38 40 52
f 38 52 53
f 38 53 45
f 39 42 54
f 39 54 55
f 39 55 52
f 39 52 40
f 41 56 54
f 41 54 42
f 41 57 56
f 43 44 46
f 44 45 46
f 45 53 58
f 45 58 59
f 45 59 60
f 45 60 46
f 46 60 47
f 47 60 61
f 47 61 62
f 47 62 48
f 48 62 63
f 49 64 50
f 50 64 81
f 50 81 96
f 50 96 95
f 50 95 94
f 50 94 93
f 50 93 103
f 50 103 102
f 50 102 100
f 50 100 99
f 50 99 98
f 50 98 97
f 50 97 89
f 50 89 88
f 50 88 87
f 50 87 104
f 50 104 90
f 50 90 82
f 50 82 65
f 50 65 51
f 52 58 53
f 52 55 66
f 52 66 67
f 52 67 68
f 52 68 61
f 52 61 58
f 54 56 69
f 54 69 55
f 55 69 86
f 55 86 70
f 55 70 71
f 55 71 66
f 56 57 72
f 56 72 73
f 56 73 74
f 56 74 69
f 57 75 72
f 58 60 59
f 58 61 60
f 61 68 76
f 61 76 77
f 61 77 78
f 61 78 62
f 62 79 80
f 62 80 63
f 62 78 79
f 63 80 96
f 63 96 81
f 65 82 72
f 65 72 75
f 66 71 67
f 67 71 83
f 67 83 68
f 68 83 84
f 68 84 85
f 68 85 76
f 69 74 86
f 70 86 104
f 70 104 87
f 70 87 88
f 70 88 71
f 71 88 89
f 71 89 97
f 71 97 83
f 72 82 90
f 72 90 73
f 73 86 74
f 73 90 104
f 73 104 86
f 76 85 91
f 76 91 77
f 77 91 78
f 78 91 79
f 79 91 92
f 79 92 93
f 79 93 94
f 79 94 95
f 79 95 80
f 80 95 96
f 83 97 98
f 83 98 84
f 84 98 99
f 84 99 100
f 84 100 85
f 85 101 91
f 85 100 102
f 85 102 103
f 85 103 101
f 91 101 92
f 92 101 103
f 92 103 93
