v -0.468906 -0.606739 0.113915
v -0.472803 -0.606739 0.143914
v -0.471597 -0.591296 0.134337
v -0.468906 -0.591296 0.113915
v -0.467329 -0.619237 0.113915
v -0.473916 -0.606739 0.15643
v -0.472803 -0.591296 0.143914
v -0.467978 -0.619237 0.118932
v -0.471133 -0.619237 0.143914
v 0.468906 -0.591296 0.113915
v -0.466308 -0.62219 0.113915
v -0.473916 -0.591296 0.15643
v -0.472061 -0.619237 0.15643
v -0.471411 -0.619237 0.168946
v -0.473174 -0.606739 0.168946
v -0.464267 -0.627047 0.113915
v -0.464638 -0.627309 0.118932
v -0.46538 -0.627819 0.131448
v -0.466123 -0.628171 0.143914
v 0.469184 -0.591296 0.115993
v 0.468906 -0.606739 0.113915
v -0.473174 -0.591296 0.168946
v -0.466494 -0.628324 0.15643
v -0.466215 -0.628226 0.168946
v -0.469927 -0.619237 0.181462
v -0.465473 -0.627905 0.181462
v -0.464731 -0.627427 0.193978
v -0.463989 -0.626804 0.206494
v -0.462875 -0.625566 0.225699
v -0.466587 -0.606739 0.21901
v -0.463247 -0.615144 0.241154
v -0.456566 -0.629953 0.113915
v -0.456566 -0.630215 0.118932
v -0.456566 -0.630729 0.131448
v -0.456566 -0.631077 0.143914
v 0.472524 -0.591296 0.141025
v 0.472896 -0.606739 0.143914
v 0.467422 -0.619237 0.113915
v -0.466587 -0.591296 0.21901
v -0.456566 -0.631234 0.15643
v -0.456566 -0.631132 0.168946
v -0.456566 -0.630811 0.181462
v -0.456566 -0.630333 0.193978
v -0.453412 -0.628116 0.269024
v -0.465195 -0.619237 0.21901
v -0.463247 -0.626029 0.21901
v -0.452206 -0.62727 0.28154
v -0.458329 -0.619237 0.269024
v -0.46371 -0.619284 0.230513
v -0.459999 -0.606739 0.269024
v -0.444041 -0.631308 0.113915
v 0.472896 -0.591296 0.143914
v 0.473916 -0.606739 0.15643
v 0.471133 -0.619237 0.143914
v 0.469648 -0.619237 0.131448
v 0.468071 -0.619237 0.118932
v 0.46436 -0.627047 0.113915
v -0.459999 -0.591296 0.269024
v -0.444041 -0.631308 0.243992
v -0.444041 -0.631238 0.256508
v -0.444041 -0.631022 0.269024
v -0.444041 -0.630176 0.28154
v -0.451 -0.626213 0.289546
v -0.455731 -0.619237 0.28154
v -0.44098 -0.627877 0.306572
v -0.457309 -0.606739 0.28154
v 0.444041 -0.631308 0.113915
v 0.473916 -0.591296 0.15643
v 0.473267 -0.606739 0.168946
v 0.471504 -0.619237 0.168946
v 0.472061 -0.619237 0.15643
v 0.466123 -0.628171 0.143914
v 0.46538 -0.627819 0.131448
v 0.464638 -0.627309 0.118932
v 0.461391 -0.628202 0.113915
v -0.457309 -0.591296 0.28154
v -0.418991 -0.631308 0.319038
v -0.431516 -0.6313 0.294056
v -0.418991 -0.631089 0.331554
v -0.431516 -0.630783 0.306572
v -0.406466 -0.630592 0.369102
v -0.418991 -0.629973 0.34407
v -0.451742 -0.618043 0.293853
v -0.439124 -0.626745 0.316301
v -0.413795 -0.626538 0.37802
v -0.425671 -0.625946 0.351367
v -0.437361 -0.624517 0.324662
v -0.450257 -0.613076 0.300339
v -0.415558 -0.627685 0.369102
v -0.427063 -0.627067 0.34407
v -0.456288 -0.591296 0.284479
v -0.452948 -0.606739 0.294056
v 0.451556 -0.63065 0.113915
v 0.456566 -0.630729 0.131448
v 0.456566 -0.631077 0.143914
v 0.456566 -0.631234 0.15643
v 0.444041 -0.631308 0.243992
v 0.473267 -0.591296 0.168946
v 0.463525 -0.606739 0.242826
v 0.463247 -0.615144 0.241154
v 0.460463 -0.591296 0.266085
v 0.465195 -0.619237 0.21901
v 0.462875 -0.625566 0.225699
v 0.463339 -0.626029 0.21901
v 0.464082 -0.626804 0.206494
v 0.464824 -0.627427 0.193978
v 0.465566 -0.627905 0.181462
v 0.466308 -0.628226 0.168946
v 0.466587 -0.628324 0.15643
v 0.456566 -0.630215 0.118932
v 0.456566 -0.629953 0.113915
v -0.39394 -0.631308 0.381517
v -0.406466 -0.631257 0.356586
v -0.407301 -0.628445 0.381922
v -0.39394 -0.630513 0.394033
v -0.426692 -0.619237 0.353748
v -0.438474 -0.616178 0.327095
v -0.403589 -0.627607 0.394033
v -0.40127 -0.626373 0.401634
v -0.41194 -0.623307 0.386331
v -0.413146 -0.614968 0.388662
v -0.416671 -0.606739 0.381517
v -0.421867 -0.606739 0.369102
v -0.452948 -0.591296 0.294056
v 0.456566 -0.631132 0.168946
v 0.444041 -0.631238 0.256508
v 0.431516 -0.6313 0.294056
v 0.431516 -0.631308 0.28154
v 0.459999 -0.606739 0.269024
v 0.458329 -0.619237 0.269024
v 0.46371 -0.619284 0.230513
v 0.459999 -0.591296 0.269024
v 0.452206 -0.62727 0.28154
v 0.453505 -0.628116 0.269024
v 0.456566 -0.630333 0.193978
v 0.456566 -0.630811 0.181462
v -0.356458 -0.631308 0.43153
v -0.368983 -0.631206 0.419014
v -0.381508 -0.630936 0.406498
v -0.343932 -0.630826 0.456563
v -0.356458 -0.63036 0.444047
v -0.381972 -0.628602 0.419318
v -0.39394 -0.62805 0.406093
v -0.414909 -0.619178 0.381922
v -0.389673 -0.626937 0.415366
v -0.351911 -0.626792 0.465025
v -0.363509 -0.62617 0.451293
v -0.375014 -0.624999 0.43756
v -0.402662 -0.619237 0.403509
v -0.409249 -0.619178 0.393273
v -0.409898 -0.606739 0.39535
v -0.413424 -0.606739 0.389067
v -0.415929 -0.591296 0.38329
v -0.421867 -0.591296 0.369102
v 0.444041 -0.631022 0.269024
v 0.418991 -0.631089 0.331554
v 0.406558 -0.631257 0.356586
v 0.394033 -0.631308 0.381517
v 0.418991 -0.631308 0.319038
v 0.458051 -0.591296 0.278601
v 0.457401 -0.606739 0.28154
v 0.455824 -0.619237 0.28154
v 0.451 -0.626213 0.289546
v 0.441072 -0.627877 0.306572
v 0.444041 -0.630176 0.28154
v -0.30645 -0.631308 0.481595
v -0.318882 -0.631253 0.481595
v -0.331407 -0.63114 0.469079
v -0.332335 -0.628809 0.482406
v -0.344211 -0.628465 0.469129
v -0.356179 -0.627842 0.455904
v -0.340314 -0.627211 0.478808
v -0.337067 -0.624039 0.487169
v -0.371766 -0.620193 0.44359
v -0.387724 -0.613119 0.425348
v -0.338366 -0.615696 0.488638
v -0.403589 -0.606739 0.404674
v -0.409898 -0.591296 0.39535
v -0.413424 -0.591296 0.389067
v 0.431516 -0.630783 0.306572
v 0.406558 -0.630592 0.369102
v 0.394033 -0.630513 0.394033
v 0.381508 -0.630936 0.406498
v 0.368983 -0.631206 0.419014
v 0.356458 -0.631308 0.43153
v 0.457401 -0.591296 0.28154
v 0.452948 -0.606739 0.294056
v 0.45035 -0.613076 0.300339
v 0.451835 -0.618043 0.293853
v 0.437361 -0.624517 0.324662
v 0.425671 -0.625946 0.351367
v 0.413888 -0.626538 0.37802
v 0.427155 -0.627067 0.34407
v 0.439124 -0.626745 0.316301
v 0.415558 -0.627685 0.369102
v 0.418991 -0.629973 0.34407
v -0.281399 -0.631308 0.506576
v -0.268874 -0.631293 0.519092
v -0.256349 -0.63112 0.531609
v -0.30645 -0.631034 0.49406
v -0.319439 -0.628723 0.494719
v -0.328717 -0.62736 0.49102
v -0.315635 -0.62707 0.502573
v -0.323985 -0.622641 0.49933
v -0.331315 -0.619171 0.49401
v -0.398858 -0.606739 0.410957
v -0.344675 -0.606739 0.481595
v -0.325655 -0.614298 0.500648
v -0.338737 -0.606739 0.489094
v -0.403589 -0.591296 0.404674
v 0.407301 -0.628445 0.381922
v 0.403589 -0.627607 0.394033
v 0.39394 -0.62805 0.406093
v 0.381972 -0.628602 0.419318
v 0.356458 -0.63036 0.444047
v 0.343932 -0.630826 0.456563
v 0.3315 -0.63114 0.469079
v 0.318975 -0.631253 0.481595
v 0.3315 -0.631308 0.456563
v 0.452948 -0.591296 0.294056
v 0.436341 -0.606739 0.334239
v 0.416671 -0.606739 0.381517
v 0.413239 -0.614968 0.388662
v 0.438567 -0.616178 0.327095
v 0.426692 -0.619237 0.353748
v 0.415001 -0.619178 0.381922
v 0.412032 -0.623307 0.386331
v 0.40127 -0.626373 0.401634
v -0.231391 -0.631308 0.544125
v -0.218866 -0.631214 0.556641
v -0.243824 -0.630787 0.544125
v -0.293924 -0.630658 0.506576
v -0.281399 -0.630118 0.519092
v -0.306171 -0.628245 0.506678
v -0.243174 -0.627768 0.556337
v -0.265998 -0.62718 0.540375
v -0.252267 -0.626738 0.551979
v -0.301904 -0.626565 0.514177
v -0.288172 -0.625864 0.525731
v -0.274348 -0.62371 0.537183
v -0.398858 -0.591296 0.410957
v -0.344675 -0.591296 0.481595
v -0.325841 -0.606739 0.50085
v -0.332057 -0.606739 0.495327
v -0.275925 -0.615371 0.5385
v -0.247535 -0.606739 0.560897
v -0.338737 -0.591296 0.489094
v 0.389673 -0.626937 0.415366
v 0.356272 -0.627842 0.455904
v 0.344304 -0.628465 0.469129
v 0.332335 -0.628809 0.482406
v 0.319532 -0.628723 0.494719
v 0.30645 -0.631034 0.49406
v 0.256349 -0.63112 0.531609
v 0.268874 -0.631293 0.519092
v 0.281399 -0.631308 0.506576
v 0.30645 -0.631308 0.481595
v 0.422609 -0.591296 0.367379
v 0.413424 -0.606739 0.389067
v 0.416671 -0.591296 0.381517
v 0.409898 -0.606739 0.39535
v 0.403682 -0.606739 0.404674
v 0.402754 -0.619237 0.403509
v 0.409249 -0.619178 0.393273
v 0.375014 -0.624999 0.43756
v 0.363509 -0.62617 0.451293
v 0.351911 -0.626792 0.465025
v -0.206434 -0.631308 0.556641
v -0.181383 -0.631308 0.569157
v -0.156333 -0.631265 0.581622
v -0.131375 -0.631105 0.594138
v -0.193909 -0.630995 0.569157
v -0.231391 -0.630215 0.556641
v -0.256349 -0.628414 0.544378
v -0.231391 -0.627309 0.565204
v -0.238535 -0.626099 0.563482
v -0.246422 -0.619237 0.559934
v -0.317212 -0.591296 0.507488
v -0.325841 -0.591296 0.50085
v -0.332057 -0.591296 0.495327
v -0.240113 -0.619237 0.564647
v -0.253751 -0.591296 0.556134
v -0.241319 -0.606739 0.565508
v -0.247535 -0.591296 0.560897
v 0.340314 -0.627211 0.478808
v 0.328809 -0.62736 0.49102
v 0.315635 -0.62707 0.502573
v 0.306264 -0.628245 0.506678
v 0.281399 -0.630118 0.519092
v 0.293924 -0.630658 0.506576
v 0.243916 -0.630787 0.544125
v 0.218866 -0.631214 0.556641
v 0.231391 -0.631308 0.544125
v 0.410733 -0.591296 0.393881
v 0.413424 -0.591296 0.389067
v 0.409898 -0.591296 0.39535
v 0.405167 -0.591296 0.402495
v 0.403682 -0.591296 0.404674
v 0.378261 -0.591296 0.437865
v 0.365736 -0.606739 0.454181
v 0.387817 -0.613119 0.425348
v 0.338458 -0.615696 0.488638
v 0.33716 -0.624039 0.487169
v -0.11885 -0.631308 0.594138
v -0.131375 -0.628198 0.60483
v -0.143808 -0.630024 0.594138
v -0.168858 -0.630623 0.581622
v -0.0687494 -0.631128 0.606654
v -0.0812746 -0.630811 0.606654
v -0.0937998 -0.630333 0.606654
v -0.106325 -0.629706 0.606654
v -0.206434 -0.629699 0.569157
v -0.193909 -0.628089 0.579291
v -0.168858 -0.627717 0.590794
v -0.206434 -0.626792 0.576859
v -0.213114 -0.625704 0.575592
v -0.231391 -0.619237 0.569208
v -0.231391 -0.606739 0.570981
v -0.241319 -0.591296 0.565508
v 0.301904 -0.626565 0.514177
v 0.252267 -0.626738 0.551979
v 0.265998 -0.62718 0.540375
v 0.323985 -0.622641 0.49933
v 0.243174 -0.627768 0.556337
v 0.256442 -0.628414 0.544378
v 0.231391 -0.630215 0.556641
v 0.206434 -0.631308 0.556641
v 0.193909 -0.630995 0.569157
v 0.131283 -0.631105 0.594138
v 0.156333 -0.631265 0.581622
v 0.181383 -0.631308 0.569157
v 0.365736 -0.591296 0.454181
v 0.344675 -0.606739 0.481595
v 0.33215 -0.606739 0.495327
v 0.325655 -0.614298 0.500648
v 0.331407 -0.619171 0.49401
v 0.33883 -0.606739 0.489094
v -0.0437918 -0.631308 0.606654
v -0.056317 -0.631277 0.606654
v -0.143808 -0.627117 0.602297
v -0.119407 -0.628202 0.607719
v -0.115696 -0.626134 0.613495
v -0.00621621 -0.629977 0.619171
v -0.0687494 -0.628222 0.616384
v -0.0812746 -0.627905 0.615624
v -0.0937998 -0.627427 0.614914
v -0.106325 -0.6268 0.614154
v -0.178043 -0.626573 0.58902
v -0.215155 -0.619237 0.576454
v -0.221464 -0.619237 0.573717
v -0.15123 -0.625993 0.600878
v -0.124046 -0.624705 0.612583
v -0.127015 -0.616366 0.613698
v -0.223227 -0.606739 0.574579
v -0.231391 -0.591296 0.570981
v 0.288172 -0.625864 0.525731
v 0.238535 -0.626099 0.563482
v 0.319532 -0.618779 0.503992
v 0.289657 -0.619237 0.526845
v 0.274348 -0.62371 0.537183
v 0.231391 -0.627309 0.565204
v 0.206434 -0.629699 0.569157
v 0.168858 -0.630623 0.581622
v 0.143808 -0.630024 0.594138
v 0.131283 -0.628198 0.60483
v 0.106325 -0.629706 0.606654
v 0.0937998 -0.630333 0.606654
v 0.0812746 -0.630811 0.606654
v 0.0687494 -0.631128 0.606654
v 0.11885 -0.631308 0.594138
v 0.344675 -0.591296 0.481595
v 0.325841 -0.606739 0.50085
v 0.33215 -0.591296 0.495327
v 0.255699 -0.606739 0.554665
v 0.247535 -0.606739 0.560897
v 0.275925 -0.615371 0.5385
v 0.33883 -0.591296 0.489094
v 0.0437918 -0.631308 0.606654
v -0.0271843 -0.625805 0.625707
v -0.0355344 -0.624442 0.624998
v -0.106325 -0.619237 0.61689
v -0.119407 -0.620017 0.614661
v -0.00621621 -0.62707 0.626974
v 0.00621621 -0.629977 0.619171
v -0.0187414 -0.626358 0.626214
v -0.188806 -0.615176 0.588362
v -0.11885 -0.606739 0.616384
v -0.127943 -0.606739 0.614053
v -0.134159 -0.606739 0.611519
v -0.217011 -0.606739 0.577214
v -0.223227 -0.591296 0.574579
v 0.246422 -0.619237 0.559934
v 0.240113 -0.619237 0.564647
v 0.231391 -0.619237 0.569208
v 0.213114 -0.625704 0.575592
v 0.206434 -0.626792 0.576859
v 0.168858 -0.627717 0.590794
v 0.193909 -0.628089 0.579291
v 0.143808 -0.627117 0.602297
v 0.115696 -0.626134 0.613495
v 0.119407 -0.628202 0.607719
v 0.106325 -0.6268 0.614154
v 0.0937998 -0.627427 0.614914
v 0.0812746 -0.627905 0.615624
v 0.0687494 -0.628222 0.616384
v 0.0562242 -0.631277 0.606654
v 0.325841 -0.591296 0.50085
v 0.277874 -0.591296 0.537689
v 0.255699 -0.591296 0.554665
v 0.247535 -0.591296 0.560897
v 0.241319 -0.606739 0.565508
v -0.00621621 -0.619237 0.630014
v -0.0312666 -0.61986 0.626721
v -0.106325 -0.606739 0.61836
v -0.0437918 -0.615767 0.626011
v -0.0509358 -0.613578 0.625555
v 0.00621621 -0.62707 0.626974
v -0.11885 -0.591296 0.616384
v -0.125809 -0.591296 0.61461
v -0.127943 -0.591296 0.614053
v -0.134159 -0.591296 0.611519
v -0.217011 -0.591296 0.577214
v 0.231391 -0.606739 0.570981
v 0.221464 -0.619237 0.573717
v 0.215155 -0.619237 0.576454
v 0.153642 -0.619237 0.601891
v 0.126922 -0.616366 0.613698
v 0.124046 -0.624705 0.612583
v 0.15123 -0.625993 0.600878
v 0.178043 -0.626573 0.58902
v 0.106325 -0.619237 0.61689
v 0.0354417 -0.624442 0.624998
v 0.0270915 -0.625805 0.625707
v 0.119407 -0.620017 0.614661
v 0.0187414 -0.626358 0.626214
v 0.241319 -0.591296 0.565508
v -0.00621621 -0.606739 0.631585
v -0.0187414 -0.619237 0.628444
v 0.00621621 -0.619237 0.630014
v -0.0937998 -0.606739 0.620032
v -0.103356 -0.591296 0.618765
v -0.106325 -0.591296 0.61836
v 0.231391 -0.591296 0.570981
v 0.225175 -0.591296 0.573768
v 0.223227 -0.606739 0.574579
v 0.188806 -0.615176 0.588362
v 0.127943 -0.606739 0.614053
v 0.11885 -0.606739 0.616384
v 0.134159 -0.606739 0.611519
v 0.106325 -0.606739 0.61836
v 0.0509358 -0.613578 0.625555
v 0.0437918 -0.615767 0.626011
v 0.0312666 -0.61986 0.626721
v -0.00621621 -0.591296 0.631585
v 0.00621621 -0.606739 0.631585
v 0.0187414 -0.619237 0.628444
v -0.0937998 -0.591296 0.620032
v 0.218495 -0.591296 0.576606
v 0.217011 -0.606739 0.577214
v 0.127943 -0.591296 0.614053
v 0.129334 -0.591296 0.613495
v 0.11885 -0.591296 0.616384
v 0.134159 -0.591296 0.611519
v 0.106325 -0.591296 0.61836
v 0.0937998 -0.606739 0.620032
v 0.00621621 -0.591296 0.631585
v 0.0937998 -0.591296 0.620032
f 1 2 3
f 1 3 4
f 1 4 10
f 1 10 21
f 1 21 38
f 1 38 57
f 1 57 75
f 1 75 111
f 1 111 93
f 1 93 67
f 1 67 51
f 1 51 32
f 1 32 16
f 1 16 11
f 1 11 5
f 1 5 2
f 2 6 12
f 2 12 7
f 2 7 3
f 2 5 8
f 2 8 9
f 2 9 6
f 3 7 12
f 3 12 22
f 3 22 39
f 3 39 58
f 3 58 76
f 3 76 91
f 3 91 124
f 3 124 154
f 3 154 153
f 3 153 179
f 3 179 178
f 3 178 210
f 3 210 241
f 3 241 242
f 3 242 247
f 3 247 280
f 3 280 279
f 3 279 278
f 3 278 282
f 3 282 284
f 3 284 319
f 3 319 355
f 3 355 391
f 3 391 422
f 3 422 421
f 3 421 420
f 3 420 419
f 3 419 418
f 3 418 442
f 3 442 441
f 3 441 457
f 3 457 454
f 3 454 466
f 3 466 467
f 3 467 464
f 3 464 462
f 3 462 460
f 3 460 461
f 3 461 463
f 3 463 458
f 3 458 444
f 3 444 443
f 3 443 436
f 3 436 410
f 3 410 409
f 3 409 408
f 3 408 407
f 3 407 373
f 3 373 377
f 3 377 371
f 3 371 332
f 3 332 299
f 3 299 298
f 3 298 297
f 3 297 296
f 3 296 294
f 3 294 295
f 3 295 260
f 3 260 258
f 3 258 220
f 3 220 186
f 3 186 160
f 3 160 132
f 3 132 101
f 3 101 98
f 3 98 68
f 3 68 52
f 3 52 36
f 3 36 20
f 3 20 10
f 3 10 4
f 5 11 8
f 6 9 13
f 6 13 14
f 6 14 15
f 6 15 22
f 6 22 12
f 8 11 9
f 9 11 16
f 9 16 17
f 9 17 18
f 9 18 19
f 9 19 13
f 10 20 21
f 13 19 23
f 13 23 24
f 13 24 14
f 14 25 15
f 14 24 26
f 14 26 27
f 14 27 28
f 14 28 29
f 14 29 25
f 15 30 39
f 15 39 22
f 15 25 31
f 15 31 30
f 16 32 17
f 17 32 18
f 18 32 33
f 18 33 19
f 19 33 34
f 19 34 35
f 19 35 23
f 20 36 21
f 21 36 37
f 21 37 38
f 23 35 40
f 23 40 41
f 23 41 24
f 24 41 42
f 24 42 43
f 24 43 44
f 24 44 26
f 25 45 31
f 25 29 45
f 26 44 27
f 27 44 28
f 28 46 29
f 28 44 46
f 29 44 47
f 29 47 48
f 29 48 31
f 29 31 49
f 29 49 45
f 29 46 44
f 30 31 50
f 30 50 58
f 30 58 39
f 31 48 50
f 31 45 49
f 32 51 33
f 33 51 34
f 34 51 35
f 35 51 40
f 36 52 37
f 37 52 68
f 37 68 53
f 37 53 54
f 37 54 55
f 37 55 56
f 37 56 38
f 38 56 57
f 40 51 59
f 40 59 60
f 40 60 41
f 41 60 61
f 41 61 42
f 42 61 43
f 43 61 44
f 44 61 62
f 44 62 47
f 47 63 64
f 47 64 48
f 47 62 65
f 47 65 63
f 48 64 50
f 50 64 66
f 50 66 76
f 50 76 58
f 51 67 97
f 51 97 128
f 51 128 159
f 51 159 158
f 51 158 185
f 51 185 219
f 51 219 257
f 51 257 256
f 51 256 293
f 51 293 327
f 51 327 331
f 51 331 370
f 51 370 378
f 51 378 338
f 51 338 304
f 51 304 269
f 51 269 268
f 51 268 229
f 51 229 197
f 51 197 166
f 51 166 137
f 51 137 112
f 51 112 77
f 51 77 59
f 53 68 98
f 53 98 69
f 53 69 70
f 53 70 71
f 53 71 54
f 54 71 72
f 54 72 73
f 54 73 74
f 54 74 57
f 54 57 55
f 55 57 56
f 57 74 75
f 59 77 78
f 59 78 60
f 60 78 61
f 61 78 79
f 61 79 80
f 61 80 62
f 62 80 81
f 62 81 82
f 62 82 65
f 63 83 64
f 63 65 84
f 63 84 85
f 63 85 86
f 63 86 87
f 63 87 83
f 64 83 88
f 64 88 66
f 65 82 89
f 65 89 90
f 65 90 84
f 66 91 76
f 66 88 92
f 66 92 91
f 67 93 94
f 67 94 95
f 67 95 96
f 67 96 97
f 69 99 100
f 69 100 70
f 69 98 101
f 69 101 99
f 70 100 102
f 70 102 103
f 70 103 104
f 70 104 105
f 70 105 106
f 70 106 107
f 70 107 108
f 70 108 71
f 71 108 109
f 71 109 72
f 72 109 95
f 72 95 94
f 72 94 110
f 72 110 73
f 73 110 111
f 73 111 75
f 73 75 74
f 77 112 78
f 78 112 113
f 78 113 79
f 79 113 81
f 79 81 80
f 81 114 89
f 81 89 82
f 81 113 112
f 81 112 115
f 81 115 114
f 83 87 116
f 83 116 117
f 83 117 88
f 84 90 85
f 85 89 118
f 85 118 119
f 85 119 120
f 85 120 86
f 85 90 89
f 86 120 87
f 87 120 116
f 88 117 121
f 88 121 122
f 88 122 123
f 88 123 92
f 89 114 118
f 91 92 124
f 92 123 154
f 92 154 124
f 93 111 110
f 93 110 94
f 95 109 96
f 96 125 126
f 96 126 97
f 96 109 125
f 97 126 127
f 97 127 128
f 99 101 129
f 99 129 100
f 100 129 130
f 100 130 103
f 100 103 131
f 100 131 102
f 101 132 129
f 102 131 103
f 103 130 133
f 103 133 134
f 103 134 104
f 104 134 105
f 105 134 106
f 106 134 107
f 107 134 108
f 108 134 135
f 108 135 136
f 108 136 125
f 108 125 109
f 112 137 138
f 112 138 139
f 112 139 115
f 114 115 118
f 115 139 140
f 115 140 141
f 115 141 142
f 115 142 143
f 115 143 118
f 116 120 144
f 116 144 121
f 116 121 117
f 118 143 119
f 119 143 145
f 119 145 146
f 119 146 147
f 119 147 148
f 119 148 149
f 119 149 150
f 119 150 120
f 120 150 121
f 120 121 144
f 121 150 149
f 121 149 151
f 121 151 152
f 121 152 122
f 122 153 154
f 122 154 123
f 122 152 153
f 125 136 155
f 125 155 126
f 126 155 127
f 127 156 157
f 127 157 158
f 127 158 159
f 127 159 128
f 127 155 156
f 129 132 160
f 129 160 161
f 129 161 162
f 129 162 130
f 130 162 133
f 133 162 163
f 133 163 164
f 133 164 165
f 133 165 134
f 134 165 155
f 134 155 135
f 135 155 136
f 137 166 167
f 137 167 138
f 138 167 168
f 138 168 139
f 139 168 140
f 140 168 169
f 140 169 141
f 141 169 170
f 141 170 142
f 142 170 143
f 143 170 171
f 143 171 172
f 143 172 145
f 145 172 146
f 146 172 173
f 146 173 147
f 147 173 148
f 148 174 175
f 148 175 149
f 148 173 176
f 148 176 174
f 149 175 177
f 149 177 151
f 151 177 210
f 151 210 178
f 151 178 179
f 151 179 152
f 152 179 153
f 155 165 180
f 155 180 156
f 156 180 181
f 156 181 157
f 157 181 158
f 158 182 183
f 158 183 184
f 158 184 185
f 158 181 182
f 160 186 161
f 161 187 188
f 161 188 162
f 161 186 220
f 161 220 187
f 162 188 189
f 162 189 163
f 163 189 190
f 163 190 191
f 163 191 192
f 163 192 193
f 163 193 194
f 163 194 164
f 164 194 193
f 164 193 195
f 164 195 196
f 164 196 165
f 165 196 181
f 165 181 180
f 166 197 167
f 167 197 198
f 167 198 199
f 167 199 200
f 167 200 201
f 167 201 169
f 167 169 168
f 169 201 202
f 169 202 172
f 169 172 170
f 170 172 171
f 172 202 173
f 173 202 203
f 173 203 204
f 173 204 205
f 173 205 176
f 174 176 175
f 175 206 177
f 175 176 207
f 175 207 206
f 176 205 208
f 176 208 209
f 176 209 207
f 177 206 241
f 177 241 210
f 181 196 195
f 181 195 211
f 181 211 182
f 182 212 213
f 182 213 214
f 182 214 215
f 182 215 216
f 182 216 183
f 182 211 212
f 183 216 217
f 183 217 184
f 184 217 218
f 184 218 185
f 185 218 219
f 187 220 221
f 187 221 188
f 188 221 222
f 188 222 223
f 188 223 224
f 188 224 189
f 189 224 190
f 190 224 225
f 190 225 226
f 190 226 227
f 190 227 191
f 191 227 192
f 192 227 228
f 192 228 212
f 192 212 195
f 192 195 193
f 195 212 211
f 197 229 198
f 198 229 230
f 198 230 199
f 199 230 231
f 199 231 200
f 200 231 232
f 200 232 201
f 201 232 233
f 201 233 234
f 201 234 203
f 201 203 202
f 203 234 235
f 203 235 236
f 203 236 237
f 203 237 238
f 203 238 204
f 204 238 239
f 204 239 240
f 204 240 208
f 204 208 205
f 206 207 242
f 206 242 241
f 207 209 247
f 207 247 242
f 208 243 244
f 208 244 209
f 208 240 245
f 208 245 246
f 208 246 243
f 209 244 280
f 209 280 247
f 212 228 213
f 213 248 249
f 213 249 250
f 213 250 214
f 213 228 248
f 214 250 215
f 215 250 251
f 215 251 216
f 216 251 217
f 217 251 218
f 218 251 252
f 218 252 253
f 218 253 254
f 218 254 255
f 218 255 256
f 218 256 257
f 218 257 219
f 220 258 221
f 221 258 222
f 222 259 223
f 222 258 260
f 222 260 295
f 222 295 259
f 223 259 261
f 223 261 262
f 223 262 263
f 223 263 264
f 223 264 227
f 223 227 226
f 223 226 224
f 224 226 225
f 227 264 228
f 228 264 263
f 228 263 265
f 228 265 266
f 228 266 267
f 228 267 248
f 229 268 230
f 230 268 269
f 230 269 270
f 230 270 271
f 230 271 272
f 230 272 273
f 230 273 231
f 231 273 233
f 231 233 232
f 233 274 234
f 233 273 274
f 234 274 235
f 235 273 275
f 235 275 276
f 235 276 237
f 235 237 236
f 235 274 273
f 237 276 238
f 238 276 239
f 239 276 240
f 240 276 277
f 240 277 245
f 243 278 279
f 243 279 280
f 243 280 244
f 243 246 278
f 245 277 281
f 245 281 246
f 246 282 278
f 246 281 283
f 246 283 319
f 246 319 284
f 246 284 282
f 248 267 285
f 248 285 249
f 249 285 250
f 250 285 251
f 251 286 252
f 251 285 286
f 252 286 287
f 252 287 288
f 252 288 289
f 252 289 290
f 252 290 253
f 253 290 291
f 253 291 254
f 254 291 292
f 254 292 255
f 255 292 293
f 255 293 256
f 259 294 261
f 259 295 294
f 261 294 296
f 261 296 297
f 261 297 262
f 262 298 299
f 262 299 300
f 262 300 301
f 262 301 263
f 262 297 298
f 263 301 265
f 265 301 302
f 265 302 303
f 265 303 266
f 266 303 267
f 267 303 285
f 269 304 270
f 270 304 271
f 271 305 306
f 271 306 307
f 271 307 272
f 271 304 308
f 271 308 309
f 271 309 310
f 271 310 311
f 271 311 305
f 272 307 273
f 273 307 312
f 273 312 275
f 275 312 313
f 275 313 314
f 275 314 315
f 275 315 316
f 275 316 276
f 276 316 317
f 276 317 281
f 276 281 277
f 281 317 318
f 281 318 283
f 283 318 355
f 283 355 319
f 285 303 286
f 286 303 287
f 287 320 321
f 287 321 322
f 287 322 288
f 287 303 323
f 287 323 320
f 288 322 324
f 288 324 325
f 288 325 289
f 289 325 326
f 289 326 291
f 289 291 290
f 291 326 292
f 292 327 293
f 292 326 328
f 292 328 329
f 292 329 330
f 292 330 331
f 292 331 327
f 299 332 300
f 300 332 371
f 300 371 333
f 300 333 301
f 301 333 302
f 302 334 335
f 302 335 336
f 302 336 303
f 302 333 337
f 302 337 334
f 303 336 323
f 304 338 339
f 304 339 308
f 305 340 314
f 305 314 306
f 305 311 341
f 305 341 342
f 305 342 340
f 306 314 313
f 306 313 312
f 306 312 307
f 308 339 343
f 308 343 309
f 309 343 310
f 310 343 344
f 310 344 345
f 310 345 311
f 311 345 346
f 311 346 347
f 311 347 341
f 314 340 315
f 315 348 316
f 315 340 348
f 316 349 350
f 316 350 317
f 316 348 351
f 316 351 352
f 316 352 353
f 316 353 349
f 317 350 318
f 318 350 354
f 318 354 391
f 318 391 355
f 320 323 356
f 320 356 357
f 320 357 321
f 321 357 324
f 321 324 322
f 323 336 335
f 323 335 358
f 323 358 359
f 323 359 360
f 323 360 356
f 324 357 361
f 324 361 326
f 324 326 325
f 326 361 362
f 326 362 363
f 326 363 328
f 328 363 329
f 329 363 364
f 329 364 365
f 329 365 366
f 329 366 367
f 329 367 368
f 329 368 369
f 329 369 370
f 329 370 330
f 330 370 331
f 333 371 377
f 333 377 337
f 334 372 335
f 334 337 377
f 334 377 373
f 334 373 407
f 334 407 372
f 335 372 374
f 335 374 375
f 335 375 376
f 335 376 359
f 335 359 358
f 338 343 339
f 338 378 384
f 338 384 343
f 340 351 348
f 340 342 352
f 340 352 351
f 341 347 342
f 342 347 379
f 342 379 380
f 342 380 381
f 342 381 382
f 342 382 352
f 343 383 344
f 343 384 417
f 343 417 383
f 344 383 345
f 345 383 346
f 346 383 347
f 347 383 385
f 347 385 379
f 349 353 386
f 349 386 354
f 349 354 350
f 352 382 353
f 353 382 387
f 353 387 388
f 353 388 389
f 353 389 386
f 354 386 390
f 354 390 422
f 354 422 391
f 356 360 357
f 357 360 392
f 357 392 393
f 357 393 394
f 357 394 395
f 357 395 361
f 359 376 392
f 359 392 360
f 361 395 396
f 361 396 397
f 361 397 398
f 361 398 362
f 362 398 364
f 362 364 363
f 364 398 397
f 364 397 365
f 365 397 399
f 365 399 400
f 365 400 401
f 365 401 366
f 366 401 402
f 366 402 403
f 366 403 404
f 366 404 367
f 367 404 405
f 367 405 384
f 367 384 368
f 368 384 369
f 369 406 370
f 369 384 406
f 370 406 378
f 372 407 408
f 372 408 374
f 374 409 410
f 374 410 375
f 374 408 409
f 375 410 436
f 375 436 411
f 375 411 393
f 375 393 376
f 376 393 392
f 378 406 384
f 379 385 412
f 379 412 413
f 379 413 380
f 380 413 381
f 381 414 387
f 381 387 382
f 381 413 415
f 381 415 416
f 381 416 414
f 383 412 385
f 383 417 439
f 383 439 412
f 384 405 417
f 386 389 390
f 387 418 419
f 387 419 388
f 387 414 442
f 387 442 418
f 388 419 420
f 388 420 421
f 388 421 389
f 389 421 422
f 389 422 390
f 393 411 423
f 393 423 394
f 394 423 424
f 394 424 395
f 395 425 426
f 395 426 427
f 395 427 428
f 395 428 429
f 395 429 430
f 395 430 396
f 395 424 425
f 396 430 399
f 396 399 397
f 399 430 429
f 399 429 428
f 399 428 400
f 400 431 432
f 400 432 433
f 400 433 402
f 400 402 401
f 400 428 434
f 400 434 431
f 402 433 435
f 402 435 417
f 402 417 403
f 403 417 404
f 404 417 405
f 411 436 443
f 411 443 423
f 412 437 416
f 412 416 415
f 412 415 438
f 412 438 413
f 412 439 455
f 412 455 437
f 413 438 415
f 414 416 440
f 414 440 441
f 414 441 442
f 416 437 440
f 417 435 439
f 423 443 444
f 423 444 445
f 423 445 424
f 424 445 425
f 425 445 446
f 425 446 427
f 425 427 426
f 427 447 448
f 427 448 434
f 427 434 428
f 427 446 449
f 427 449 447
f 431 434 448
f 431 448 450
f 431 450 451
f 431 451 452
f 431 452 453
f 431 453 432
f 432 453 433
f 433 453 439
f 433 439 435
f 437 454 457
f 437 457 440
f 437 455 466
f 437 466 454
f 439 453 456
f 439 456 452
f 439 452 451
f 439 451 455
f 440 457 441
f 444 458 445
f 445 458 459
f 445 459 446
f 446 459 449
f 447 460 462
f 447 462 448
f 447 449 461
f 447 461 460
f 448 462 464
f 448 464 450
f 449 459 458
f 449 458 463
f 449 463 461
f 450 464 467
f 450 467 465
f 450 465 451
f 451 465 455
f 452 456 453
f 455 465 467
f 455 467 466
