v 0.211873 -0.591176 0.53458
v 0.256498 -0.591176 0.498214
v 0.211873 -0.591176 0.579396
v 0.211873 0.606666 0.54872
v 0.316998 -0.591176 0.449952
v 0.333442 0.606666 0.449952
v 0.223287 -0.591176 0.57467
v 0.211873 0.594124 0.579396
v 0.211873 0.614191 0.549379
v 0.369007 -0.591176 0.449952
v 0.335273 0.617416 0.449952
v 0.23144 -0.591176 0.571021
v 0.223287 0.594124 0.57467
v 0.211873 0.600693 0.579371
v 0.211873 0.615386 0.549607
v 0.367208 -0.591176 0.452321
v 0.369007 0.594124 0.449952
v 0.338211 0.624703 0.449952
v 0.241377 -0.591176 0.56556
v 0.23144 0.594124 0.571021
v 0.23144 0.606666 0.57097
v 0.223225 0.606666 0.574645
v 0.211873 0.606666 0.579346
v 0.211873 0.619208 0.550976
v 0.360947 -0.591176 0.460481
v 0.365746 0.594124 0.454222
v 0.360947 0.594124 0.460481
v 0.368992 0.600693 0.449952
v 0.211873 0.621836 0.552065
v 0.211873 0.624822 0.55408
v 0.337934 0.625181 0.45056
v 0.344718 0.627808 0.449952
v 0.247622 -0.591176 0.56096
v 0.241377 0.594124 0.56556
v 0.241331 0.606666 0.565534
v 0.239669 0.619208 0.564343
v 0.23144 0.619208 0.568575
v 0.215503 0.616461 0.576621
v 0.211873 0.612519 0.578611
v 0.344703 -0.591176 0.481641
v 0.360916 0.606666 0.460443
v 0.344703 0.594124 0.481641
v 0.368961 0.606666 0.449952
v 0.211873 0.627928 0.557932
v 0.349502 0.628525 0.449952
v 0.24953 -0.591176 0.559503
v 0.247622 0.594124 0.56096
v 0.247591 0.606666 0.560935
v 0.275988 0.614549 0.538508
v 0.24593 0.619208 0.55963
v 0.237931 0.625539 0.563102
v 0.211873 0.624703 0.575215
v 0.219379 0.620044 0.573606
v 0.211873 0.618014 0.577546
v 0.340211 -0.591176 0.487381
v 0.349856 0.606666 0.47485
v 0.338442 0.614908 0.488686
v 0.344641 0.606666 0.481641
v 0.338811 0.606666 0.489104
v 0.338826 0.594124 0.489142
v 0.366346 0.619327 0.449952
v 0.211873 0.628047 0.564597
v 0.23144 0.628764 0.55669
v 0.29397 0.628883 0.506666
v 0.332043 0.628167 0.482085
v 0.356255 0.628167 0.449952
v 0.255775 -0.591176 0.554714
v 0.255775 0.594124 0.554714
v 0.262005 0.606666 0.549886
v 0.325643 0.613833 0.500698
v 0.287586 0.625181 0.525279
v 0.301323 0.626136 0.513736
v 0.251683 0.626375 0.551533
v 0.242838 0.627211 0.556095
v 0.23144 0.626733 0.564584
v 0.212057 0.624822 0.575075
v 0.211873 0.624942 0.574898
v 0.338826 -0.591176 0.489142
v 0.364423 0.619208 0.452524
v 0.341749 0.619089 0.482085
v 0.33658 0.62315 0.486545
v 0.331104 0.618491 0.493792
v 0.33212 0.606666 0.495364
v 0.33215 0.594124 0.495402
v 0.333719 -0.591176 0.493932
v 0.363316 0.625778 0.449952
v 0.363039 0.625658 0.450712
v 0.211873 0.628047 0.569082
v 0.319152 0.628167 0.494502
v 0.218933 0.628047 0.567308
v 0.256098 0.627928 0.544133
v 0.328243 0.627092 0.490574
v 0.339857 0.626853 0.478207
v 0.344026 0.627928 0.468831
v 0.360654 0.627211 0.449952
v 0.270727 -0.591176 0.543246
v 0.262036 0.594124 0.549911
v 0.318998 0.606666 0.506146
v 0.268973 0.594124 0.54459
v 0.282695 0.594124 0.53406
v 0.311491 0.594124 0.511962
v 0.325905 0.594124 0.500901
v 0.325859 0.606666 0.500875
v 0.323413 0.622194 0.498911
v 0.315075 0.626733 0.502155
v 0.26542 0.626853 0.539927
v 0.351471 0.626375 0.464472
v 0.33215 -0.591176 0.495402
v 0.29397 0.62745 0.516549
v 0.305892 0.627689 0.506451
v 0.355994 0.627331 0.455577
v 0.277911 -0.591176 0.537735
v 0.325905 -0.591176 0.500901
f 1 2 5
f 1 5 10
f 1 10 16
f 1 16 25
f 1 25 40
f 1 40 55
f 1 55 78
f 1 78 85
f 1 85 108
f 1 108 113
f 1 113 112
f 1 112 96
f 1 96 67
f 1 67 46
f 1 46 33
f 1 33 19
f 1 19 12
f 1 12 7
f 1 7 3
f 1 3 8
f 1 8 14
f 1 14 23
f 1 23 39
f 1 39 54
f 1 54 52
f 1 52 77
f 1 77 88
f 1 88 62
f 1 62 44
f 1 44 30
f 1 30 29
f 1 29 24
f 1 24 15
f 1 15 9
f 1 9 4
f 1 4 2
f 2 4 6
f 2 6 5
f 3 7 13
f 3 13 8
f 4 9 6
f 5 6 11
f 5 11 18
f 5 18 32
f 5 32 45
f 5 45 66
f 5 66 95
f 5 95 86
f 5 86 61
f 5 61 43
f 5 43 28
f 5 28 17
f 5 17 10
f 6 9 11
f 7 12 20
f 7 20 13
f 8 13 14
f 9 15 11
f 10 17 16
f 11 15 18
f 12 19 34
f 12 34 20
f 13 20 21
f 13 21 22
f 13 22 14
f 14 22 23
f 15 24 18
f 16 17 26
f 16 26 27
f 16 27 25
f 17 28 26
f 18 29 30
f 18 30 31
f 18 31 32
f 18 24 29
f 19 33 47
f 19 47 34
f 20 34 21
f 21 35 36
f 21 36 37
f 21 37 38
f 21 38 22
f 21 34 35
f 22 38 23
f 23 38 39
f 25 27 42
f 25 42 40
f 26 28 27
f 27 28 41
f 27 41 42
f 28 43 41
f 30 44 31
f 31 44 32
f 32 44 45
f 33 46 47
f 34 47 48
f 34 48 35
f 35 48 36
f 36 49 50
f 36 50 51
f 36 51 37
f 36 48 49
f 37 51 52
f 37 52 53
f 37 53 38
f 38 53 52
f 38 52 54
f 38 54 39
f 40 42 55
f 41 56 42
f 41 43 57
f 41 57 56
f 42 56 58
f 42 58 59
f 42 59 60
f 42 60 55
f 43 61 57
f 44 62 63
f 44 63 45
f 45 63 64
f 45 64 65
f 45 65 66
f 46 67 68
f 46 68 47
f 47 68 48
f 48 68 69
f 48 69 70
f 48 70 49
f 49 70 71
f 49 71 50
f 50 71 51
f 51 71 72
f 51 72 73
f 51 73 74
f 51 74 75
f 51 75 76
f 51 76 52
f 52 76 77
f 55 60 78
f 56 57 58
f 57 61 79
f 57 79 80
f 57 80 81
f 57 81 82
f 57 82 70
f 57 70 83
f 57 83 59
f 57 59 58
f 59 83 84
f 59 84 60
f 60 84 85
f 60 85 78
f 61 86 87
f 61 87 79
f 62 88 63
f 63 89 64
f 63 88 90
f 63 90 74
f 63 74 91
f 63 91 89
f 64 89 65
f 65 89 92
f 65 92 93
f 65 93 94
f 65 94 66
f 66 94 95
f 67 96 68
f 68 97 69
f 68 96 97
f 69 98 70
f 69 97 99
f 69 99 100
f 69 100 101
f 69 101 102
f 69 102 98
f 70 98 103
f 70 103 83
f 70 82 104
f 70 104 71
f 71 104 72
f 72 105 73
f 72 104 105
f 73 105 106
f 73 106 74
f 74 90 75
f 74 106 91
f 75 90 76
f 76 90 88
f 76 88 77
f 79 87 81
f 79 81 80
f 81 87 107
f 81 107 93
f 81 93 92
f 81 92 104
f 81 104 82
f 83 103 102
f 83 102 84
f 84 102 113
f 84 113 108
f 84 108 85
f 86 95 87
f 87 95 107
f 89 91 109
f 89 109 110
f 89 110 105
f 89 105 92
f 91 106 109
f 92 105 104
f 93 95 111
f 93 111 94
f 93 107 95
f 94 111 95
f 96 112 99
f 96 99 97
f 98 102 103
f 99 112 100
f 100 112 101
f 101 112 102
f 102 112 113
f 105 110 109
f 105 109 106
