v -0.444107 0.628739 0.269106
v -0.444107 0.628739 0.268954
v -0.45661 0.628859 0.193901
v -0.44419 0.628739 0.269106
v -0.436732 0.626589 0.269106
v -0.447675 0.627664 0.113865
v -0.452871 0.6285 0.113865
v -0.45661 0.628859 0.118849
v -0.466075 0.628022 0.156383
v -0.454489 0.628261 0.243941
v -0.453711 0.628022 0.256447
v -0.452939 0.627664 0.269106
v -0.43667 0.62647 0.269106
v -0.442769 0.619183 0.113865
v -0.45661 0.628739 0.113865
v -0.465774 0.627784 0.168889
v -0.465608 0.627784 0.143877
v -0.471556 0.619183 0.156383
v -0.465027 0.627425 0.181395
v -0.464286 0.626828 0.193901
v -0.463513 0.626111 0.206408
v -0.463041 0.625633 0.214112
v -0.45771 0.619303 0.269106
v -0.433465 0.619183 0.269106
v -0.440502 0.606641 0.113865
v -0.461133 0.627425 0.113865
v -0.464872 0.627306 0.131355
v -0.470929 0.619183 0.168889
v -0.470592 0.619183 0.143877
v -0.473869 0.606641 0.156383
v -0.464462 0.6199 0.218534
v -0.457777 0.619183 0.268954
v -0.457746 0.619183 0.269106
v -0.431235 0.606641 0.269106
v -0.43123 0.606522 0.269106
v -0.423295 -0.591176 0.113865
v -0.463814 0.62647 0.113865
v -0.464125 0.626708 0.118849
v -0.473221 0.606641 0.168889
v -0.463285 0.614405 0.240841
v -0.463902 0.616436 0.23142
v -0.467791 0.619183 0.193901
v -0.469026 0.619183 0.131355
v -0.472874 0.606641 0.143877
v -0.473916 0.594219 0.156383
v -0.460043 0.606641 0.268954
v -0.459992 0.606761 0.269106
v -0.420936 -0.591176 0.269106
v -0.421309 -0.591176 0.222105
v -0.421439 -0.591176 0.209644
v -0.468969 -0.591176 0.113865
v -0.466822 0.619183 0.113865
v -0.467454 0.619183 0.118849
v -0.469928 0.606641 0.193901
v -0.473263 0.594219 0.168889
v -0.471619 0.594219 0.181395
v -0.462714 0.594219 0.249032
v -0.461693 0.606641 0.256447
v -0.468922 0.606641 0.113865
v -0.468969 0.594219 0.113865
v -0.471271 0.594219 0.131355
v -0.472915 0.594219 0.143877
v -0.473916 -0.591176 0.156383
v -0.46009 0.594219 0.268954
v -0.460059 0.594338 0.269106
v -0.460012 0.606641 0.269106
v -0.460059 -0.591176 0.269106
v -0.471271 -0.591176 0.131355
v -0.473263 -0.591176 0.168889
v -0.472879 -0.591176 0.171822
v -0.471619 -0.591176 0.181395
v -0.462714 -0.591176 0.249032
v -0.472915 -0.591176 0.143877
v -0.46009 -0.591176 0.268954
f 1 2 8
f 1 8 3
f 1 3 4
f 1 4 12
f 1 12 23
f 1 23 33
f 1 33 47
f 1 47 66
f 1 66 65
f 1 65 67
f 1 67 48
f 1 48 35
f 1 35 34
f 1 34 24
f 1 24 13
f 1 13 5
f 1 5 2
f 2 6 7
f 2 7 8
f 2 5 6
f 3 8 9
f 3 9 10
f 3 10 4
f 4 10 11
f 4 11 12
f 5 13 14
f 5 14 6
f 6 14 25
f 6 25 36
f 6 36 51
f 6 51 60
f 6 60 59
f 6 59 52
f 6 52 37
f 6 37 26
f 6 26 15
f 6 15 7
f 7 15 8
f 8 15 9
f 9 16 10
f 9 15 17
f 9 17 18
f 9 18 16
f 10 16 11
f 11 16 19
f 11 19 12
f 12 19 20
f 12 20 21
f 12 21 22
f 12 22 23
f 13 24 14
f 14 24 25
f 15 26 27
f 15 27 17
f 16 18 28
f 16 28 19
f 17 27 29
f 17 29 18
f 18 29 30
f 18 30 28
f 19 28 20
f 20 28 21
f 21 28 22
f 22 28 31
f 22 31 32
f 22 32 23
f 23 32 33
f 24 34 25
f 25 34 35
f 25 35 36
f 26 37 38
f 26 38 27
f 27 38 29
f 28 30 39
f 28 39 40
f 28 40 41
f 28 41 42
f 28 42 31
f 29 38 37
f 29 37 43
f 29 43 44
f 29 44 30
f 30 44 45
f 30 45 39
f 31 42 41
f 31 41 32
f 32 41 40
f 32 40 46
f 32 46 47
f 32 47 33
f 35 48 49
f 35 49 50
f 35 50 36
f 36 50 49
f 36 49 48
f 36 48 67
f 36 67 74
f 36 74 72
f 36 72 71
f 36 71 70
f 36 70 69
f 36 69 63
f 36 63 73
f 36 73 68
f 36 68 51
f 37 52 53
f 37 53 43
f 39 54 40
f 39 45 55
f 39 55 56
f 39 56 57
f 39 57 54
f 40 54 58
f 40 58 46
f 43 53 44
f 44 53 52
f 44 52 59
f 44 59 60
f 44 60 61
f 44 61 62
f 44 62 45
f 45 62 73
f 45 73 63
f 45 63 69
f 45 69 55
f 46 58 64
f 46 64 65
f 46 65 66
f 46 66 47
f 51 68 61
f 51 61 60
f 54 57 58
f 55 69 70
f 55 70 56
f 56 70 71
f 56 71 72
f 56 72 57
f 57 64 58
f 57 72 74
f 57 74 64
f 61 68 73
f 61 73 62
f 64 74 67
f 64 67 65
