v -0.00585317 -0.18562 -0.332744
v 0.0040462 -0.185467 -0.332744
v -0.00756745 -0.185041 -0.332744
v -0.0130564 -0.175377 -0.38937
v -0.00979683 -0.174711 -0.397696
v -0.00587732 -0.175934 -0.393753
v -0.00145077 -0.175344 -0.401638
v 0.0012293 -0.175344 -0.401638
v 0.00576048 -0.185434 -0.332744
v -0.0187626 -0.181055 -0.332744
v -0.014328 -0.175978 -0.381568
v -0.0205815 -0.172735 -0.381568
v -0.017837 -0.172178 -0.393753
v -0.0187626 -0.16959 -0.4066
v -0.0164527 -0.164556 -0.444121
v -0.0143119 -0.163464 -0.456638
v -0.0129517 -0.162819 -0.464026
v -0.00624754 -0.169611 -0.431605
v -0.00624754 -0.17173 -0.419089
v -0.00587732 -0.173936 -0.406104
v -0.000629845 -0.16271 -0.475853
v 0.00625143 -0.169415 -0.431605
v 0.00625143 -0.171533 -0.419089
v 0.00574438 -0.173783 -0.406104
v 0.00956731 -0.174591 -0.396951
v 0.00574438 -0.175869 -0.393285
v 0.000537154 -0.16271 -0.475853
v 0.018855 -0.180389 -0.332744
v 0.0127705 -0.175257 -0.388598
v 0.0138651 -0.175792 -0.381568
v -0.0194306 -0.180684 -0.332744
v -0.0250161 -0.175137 -0.350305
v -0.0239457 -0.174482 -0.358658
v -0.0162435 -0.17695 -0.369052
v -0.022497 -0.173685 -0.369052
v -0.0252495 -0.162819 -0.426533
v -0.0241469 -0.162088 -0.434858
v -0.0187626 -0.167515 -0.419089
v -0.0227063 -0.16128 -0.444121
v -0.0205654 -0.16021 -0.456638
v -0.0177807 -0.159478 -0.468575
v -0.00624754 -0.16746 -0.444121
v -0.0199215 -0.153483 -0.495069
v -0.0172173 -0.1525 -0.506647
v -0.0147707 -0.151212 -0.516903
v -0.00624754 -0.155863 -0.506647
v -0.00624754 -0.158473 -0.494131
v -0.0089759 -0.162077 -0.472352
v -0.00537832 -0.161105 -0.480678
v -0.00624754 -0.165276 -0.456638
v -0.00537832 -0.1633 -0.468575
v 0.00625143 -0.167264 -0.444121
v 0.0126739 -0.162699 -0.463337
v 0.00625143 -0.155656 -0.506647
v 0.00625143 -0.158277 -0.494131
v 0.00532587 -0.160952 -0.480678
v 0.00887516 -0.161957 -0.471663
v 0.00532587 -0.163234 -0.468161
v 0.00625143 -0.165091 -0.456638
v 0.0246095 -0.174853 -0.348568
v 0.0254224 -0.175486 -0.340215
v 0.0260099 -0.176054 -0.332744
v 0.0157081 -0.176753 -0.369052
v 0.0173661 -0.177703 -0.356535
v 0.0236276 -0.174241 -0.356535
v 0.0201186 -0.172352 -0.381568
v 0.013849 -0.163278 -0.456638
v 0.0159093 -0.164359 -0.444121
v 0.0177444 -0.165429 -0.431605
v 0.0187584 -0.169 -0.4066
v -0.0255473 -0.175596 -0.344047
v -0.0264487 -0.176447 -0.332744
v -0.0280181 -0.165495 -0.394084
v -0.0270282 -0.164479 -0.4066
v -0.0259417 -0.163442 -0.419089
v -0.0278732 -0.15285 -0.469126
v -0.0267545 -0.151703 -0.481615
v -0.0257807 -0.150786 -0.49154
v -0.0248632 -0.15001 -0.499893
v -0.0234708 -0.149202 -0.506647
v -0.0188672 -0.148001 -0.520294
v -0.0122194 -0.150065 -0.525229
v -0.00733405 -0.152205 -0.520294
v -0.00388135 -0.150731 -0.526966
v 0.00328966 -0.150731 -0.526966
v 0.0201025 -0.159827 -0.456638
v 0.0144204 -0.151081 -0.516434
v 0.0166498 -0.152293 -0.506647
v 0.0196759 -0.153155 -0.494241
v 0.00697577 -0.152118 -0.520018
v 0.0116277 -0.149934 -0.524788
v 0.0249154 -0.162557 -0.424989
v 0.0257121 -0.163245 -0.416635
v 0.0265814 -0.164075 -0.4066
v 0.0275713 -0.165102 -0.394084
v 0.0264526 -0.175552 -0.332744
v 0.0284727 -0.166095 -0.381568
v 0.0292695 -0.167045 -0.369052
v 0.0219616 -0.173302 -0.369052
v 0.0221629 -0.160897 -0.444121
v 0.0240059 -0.161968 -0.431605
v -0.0334346 -0.167875 -0.332744
v -0.0313742 -0.16888 -0.344047
v -0.0296761 -0.167428 -0.369052
v -0.0288954 -0.166478 -0.381568
v -0.0297404 -0.155023 -0.444121
v -0.0288712 -0.153953 -0.456638
v -0.0370563 -0.136459 -0.494131
v -0.0301026 -0.145053 -0.495069
v -0.0299819 -0.142945 -0.506647
v -0.0285815 -0.141253 -0.519164
v -0.0264728 -0.139058 -0.531652
v -0.0251529 -0.137726 -0.538159
v -0.0187626 -0.143972 -0.531652
v -0.00733405 -0.148405 -0.531349
v -0.0178853 -0.139331 -0.543066
v -0.0131288 -0.137922 -0.551006
v -0.00624754 -0.142782 -0.544168
v 0.00697577 -0.148241 -0.531349
v 0.00625143 -0.142574 -0.544168
v 0.0244566 -0.149737 -0.498459
v 0.0186619 -0.147608 -0.520018
v 0.0229033 -0.148809 -0.506647
v 0.012843 -0.13778 -0.550757
v 0.0157162 -0.139451 -0.544168
v 0.0198771 -0.14229 -0.532672
v 0.0254787 -0.150524 -0.490134
v 0.0263077 -0.15131 -0.481615
v 0.0274345 -0.152446 -0.469126
v 0.0284486 -0.15357 -0.456638
v 0.0293419 -0.15464 -0.444121
v 0.031853 -0.168989 -0.332744
v 0.0299697 -0.167984 -0.356535
v 0.035523 -0.15891 -0.369052
v 0.03636 -0.147674 -0.431605
v 0.0362232 -0.159969 -0.356535
v -0.0347948 -0.166073 -0.332744
v -0.0370966 -0.161553 -0.344047
v -0.0365815 -0.160592 -0.356535
v -0.0359296 -0.159565 -0.369052
v -0.0359939 -0.147149 -0.444121
v -0.0351247 -0.145948 -0.456638
v -0.0341348 -0.1449 -0.469126
v -0.0367022 -0.148296 -0.431605
v -0.0374024 -0.137245 -0.486357
v -0.0389074 -0.128739 -0.506647
v -0.0362354 -0.134985 -0.506647
v -0.034835 -0.13303 -0.519164
v -0.0333219 -0.130344 -0.531128
v -0.0283722 -0.131316 -0.543066
v -0.0269074 -0.127134 -0.553597
v -0.0240262 -0.124393 -0.561923
v -0.0214668 -0.135465 -0.546512
v -0.0185775 -0.131261 -0.556464
v -0.0156882 -0.127057 -0.565534
v -0.00624754 -0.12863 -0.567629
v -0.00624754 -0.134865 -0.558477
v -0.00624754 -0.138621 -0.552246
v 0.00625143 -0.138523 -0.552053
v 0.0281588 -0.14086 -0.519164
v 0.0296075 -0.142552 -0.506647
v 0.0247866 -0.137431 -0.537524
v 0.026525 -0.139134 -0.529199
v 0.00625143 -0.134745 -0.558311
v 0.00625143 -0.128498 -0.567464
v 0.0153138 -0.126893 -0.565341
v 0.0182433 -0.131032 -0.556106
v 0.0219697 -0.135651 -0.544168
v 0.0296799 -0.144878 -0.494241
v 0.0355954 -0.146494 -0.444121
v 0.0367544 -0.135847 -0.494131
v 0.0325532 -0.168105 -0.332744
v 0.0369797 -0.148787 -0.419089
v 0.0372212 -0.136819 -0.484234
v 0.0368027 -0.160952 -0.344047
v -0.0385613 -0.158866 -0.332744
v -0.0373863 -0.162241 -0.335638
v -0.037507 -0.150054 -0.412555
v -0.0372495 -0.149421 -0.419089
v -0.0377324 -0.137977 -0.478031
v -0.039173 -0.130213 -0.494131
v -0.0409034 -0.118845 -0.506647
v -0.0402434 -0.118845 -0.519164
v -0.0382797 -0.126795 -0.519164
v -0.038497 -0.139702 -0.456638
v -0.0388672 -0.140892 -0.444121
v -0.0377324 -0.125517 -0.52658
v -0.0369195 -0.123672 -0.534933
v -0.0353581 -0.121062 -0.544168
v -0.0315191 -0.118594 -0.556326
v -0.0271569 -0.115253 -0.569201
v -0.0250885 -0.112676 -0.575542
v -0.0194226 -0.121477 -0.569504
v -0.0187626 -0.114849 -0.577857
v -0.00624754 -0.123858 -0.573888
v 0.00625143 -0.123737 -0.573722
v 0.0344123 -0.132462 -0.519164
v 0.035861 -0.134362 -0.506647
v 0.0266135 -0.126839 -0.553128
v 0.0286981 -0.129405 -0.544168
v 0.0315954 -0.131305 -0.531597
v 0.0236518 -0.124076 -0.561454
v 0.0163681 -0.115351 -0.578409
v 0.0200059 -0.119708 -0.570249
v 0.0387503 -0.128116 -0.506647
v 0.0372131 -0.161826 -0.332744
v 0.0373258 -0.149574 -0.410157
v 0.0375672 -0.137671 -0.475908
v 0.0376236 -0.150294 -0.401831
v -0.0390845 -0.157174 -0.332744
v -0.0390684 -0.154335 -0.356535
v -0.0388511 -0.153308 -0.369052
v -0.0385131 -0.152238 -0.381568
v -0.04001 -0.131349 -0.469126
v -0.0405493 -0.131349 -0.456638
v -0.0409919 -0.118845 -0.494131
v -0.0410402 -0.106342 -0.531652
v -0.0408873 -0.131349 -0.444121
v -0.0409839 -0.131349 -0.431605
v -0.0389477 -0.119239 -0.531128
v -0.0401871 -0.106342 -0.544168
v -0.0391006 -0.142039 -0.431605
v -0.0383038 -0.114805 -0.544168
v -0.0376197 -0.112796 -0.55073
v -0.0361308 -0.109443 -0.559083
v -0.0335231 -0.105698 -0.568622
v -0.0268592 -0.105097 -0.580504
v -0.0250242 -0.100096 -0.587975
v -0.0187626 -0.10869 -0.584116
v -0.00624754 -0.117601 -0.580835
v -0.00624754 -0.111704 -0.587065
v 0.00625143 -0.11748 -0.580697
v 0.0366739 -0.123148 -0.533996
v 0.0375753 -0.12519 -0.525642
v 0.0380421 -0.126227 -0.519164
v 0.027515 -0.115733 -0.566802
v 0.0299294 -0.119479 -0.557043
v 0.0354264 -0.118922 -0.545244
v 0.0247061 -0.112315 -0.575156
v 0.00625143 -0.111562 -0.586955
v 0.0162715 -0.103023 -0.590512
v 0.0204888 -0.107674 -0.583013
v 0.0399495 -0.118845 -0.519164
v 0.0407705 -0.118845 -0.506647
v 0.0390884 -0.129612 -0.494131
v 0.0386457 -0.152653 -0.369052
v 0.0389354 -0.153712 -0.356535
v 0.0391125 -0.154695 -0.344047
v 0.0392574 -0.155569 -0.332744
v 0.0386699 -0.140237 -0.444121
v 0.0389757 -0.141428 -0.431605
v -0.0391972 -0.155296 -0.344047
v -0.0410563 -0.143863 -0.332744
v -0.0409758 -0.143863 -0.356535
v -0.0408792 -0.143863 -0.369052
v -0.0405815 -0.143863 -0.381568
v -0.0410804 -0.0938281 -0.544168
v -0.0404929 -0.0938281 -0.556685
v -0.0384809 -0.105698 -0.55561
v -0.0379094 -0.101101 -0.564073
v -0.03634 -0.0969621 -0.572426
v -0.0333863 -0.0932057 -0.580973
v -0.0269879 -0.0938281 -0.590401
v -0.0237284 -0.0861297 -0.599527
v -0.0192374 -0.0939592 -0.596549
v -0.0187626 -0.102433 -0.590015
v -0.00624754 -0.105447 -0.592634
v 0.0374546 -0.11237 -0.550123
v 0.0383238 -0.114805 -0.54177
v 0.0387342 -0.118922 -0.530549
v 0.0317966 -0.106473 -0.569339
v 0.0362151 -0.109716 -0.556685
v 0.0277323 -0.103984 -0.579264
v 0.0246176 -0.0996702 -0.587617
v 0.00625143 -0.105316 -0.592497
v 0.00625143 -0.0978903 -0.598755
v 0.015024 -0.0896677 -0.601953
v 0.0198208 -0.094669 -0.594867
v 0.0394747 -0.107456 -0.545244
v 0.0409314 -0.106342 -0.531652
v 0.0409878 -0.118845 -0.494131
v 0.0407302 -0.131349 -0.444121
v 0.0402715 -0.131349 -0.456638
v 0.0402956 -0.143863 -0.381568
v 0.0407141 -0.143863 -0.369052
v 0.0394425 -0.154498 -0.332744
v 0.0409234 -0.143863 -0.356535
v -0.0392213 -0.132178 -0.332744
v -0.040831 -0.0740633 -0.569201
v -0.0409517 -0.081325 -0.556685
v -0.0404607 -0.081325 -0.569201
v -0.0386579 -0.0932057 -0.568622
v -0.0378611 -0.0886194 -0.576286
v -0.03634 -0.081325 -0.585384
v -0.0299738 -0.0817072 -0.594895
v -0.0265211 -0.077787 -0.602063
v -0.0194306 -0.0740633 -0.608872
v -0.0192374 -0.0817072 -0.604847
v -0.0153904 -0.0898752 -0.60209
v -0.00624754 -0.0980541 -0.598892
v 0.0377443 -0.100631 -0.563549
v 0.0384847 -0.103459 -0.556685
v 0.0360783 -0.0964271 -0.571903
v 0.0273379 -0.0913384 -0.59087
v 0.0317081 -0.0938827 -0.581745
v 0.023362 -0.0856165 -0.599223
v 0.00625143 -0.0916442 -0.603331
v 0.0114426 -0.0745875 -0.612732
v 0.019016 -0.0814014 -0.604489
v 0.0403278 -0.0938281 -0.556685
v 0.0411407 -0.0938281 -0.544168
v 0.0410602 -0.143863 -0.332744
v 0.0409395 -0.131349 -0.431605
v -0.0389638 -0.131349 -0.332744
v -0.0400825 -0.0740633 -0.556299
v -0.0391811 -0.0740633 -0.581552
v -0.0386016 -0.081325 -0.579153
v -0.037499 -0.0749369 -0.587865
v -0.0334829 -0.0740633 -0.594481
v -0.0307384 -0.0740633 -0.598341
v -0.0273823 -0.0740633 -0.603028
v -0.0132334 -0.0740633 -0.612594
v -0.0120021 -0.0748714 -0.61287
v -0.00624754 -0.0917971 -0.603469
v 0.0384284 -0.092889 -0.568319
v 0.0377041 -0.0880843 -0.575873
v 0.0359898 -0.081325 -0.584695
v 0.0262272 -0.0772737 -0.60176
v 0.029519 -0.0814014 -0.594702
v 0.0232655 -0.0740633 -0.605564
v 0.00310455 -0.076149 -0.613587
v 0.00686309 -0.0807135 -0.610141
v 0.00432789 -0.0740633 -0.614331
v 0.0109516 -0.0740633 -0.613063
v 0.0122876 -0.0740633 -0.612511
v 0.019193 -0.0740633 -0.608349
v 0.0402956 -0.081325 -0.569201
v 0.0407705 -0.0740633 -0.569201
v 0.0411085 -0.0740633 -0.563935
v 0.0409314 -0.142629 -0.332744
v -0.0371609 -0.126042 -0.332744
v -0.0385533 -0.0740633 -0.546677
v -0.0375875 -0.0740633 -0.588086
v -0.0371207 -0.0740633 -0.588968
v -0.0123803 -0.0740633 -0.613063
v -0.0112214 -0.0740633 -0.613366
v -0.00366404 -0.076149 -0.613587
v -0.00720528 -0.0807135 -0.610306
v 0.0384365 -0.081325 -0.578436
v 0.0373177 -0.0741616 -0.587369
v 0.0269596 -0.0740633 -0.602587
v 0.0287302 -0.0740633 -0.600106
v 0.032851 -0.0740633 -0.594233
v 0.0372695 -0.0740633 -0.587507
v -0.000348156 -0.0740633 -0.614359
v 0.0389998 -0.0740633 -0.581
v 0.0397161 -0.0740633 -0.577416
v 0.0402554 -0.0740633 -0.556161
v 0.0374224 -0.125397 -0.332744
v 0.0388711 -0.130038 -0.332744
v 0.0389435 -0.130278 -0.332744
v 0.0390079 -0.130497 -0.332744
v -0.031841 -0.118955 -0.332744
v -0.0366298 -0.0740633 -0.540447
v -0.0258773 -0.111813 -0.332744
v -0.00484714 -0.0740633 -0.614359
v 0.037366 -0.0740633 -0.587258
v 0.039523 -0.0740633 -0.549682
v 0.033358 -0.120003 -0.332744
v -0.0323883 -0.0740633 -0.531735
v -0.0250885 -0.111311 -0.332744
v -0.0187626 -0.107522 -0.332744
v 0.0387664 -0.0740633 -0.54596
v 0.0263319 -0.111398 -0.332744
v 0.0331568 -0.119752 -0.332744
v -0.0274467 -0.0740633 -0.521755
v -0.00622339 -0.102881 -0.332744
v 0.0377443 -0.0740633 -0.541991
v 0.0187584 -0.106976 -0.332744
v 0.0369475 -0.0740633 -0.539702
v -0.0231087 -0.0740633 -0.514946
v -0.00504835 -0.102859 -0.332744
v -0.00161173 -0.0998013 -0.34843
v -0.00624754 -0.0740633 -0.497798
v -0.0115674 -0.0740633 -0.501134
v -0.0141992 -0.0740633 -0.503642
v 0.00748281 -0.103154 -0.332744
v 0.0357725 -0.0740633 -0.536504
v 0.0306055 -0.0740633 -0.526083
v 0.0257846 -0.0740633 -0.517068
v 0.00624338 -0.102739 -0.332744
v 0.00625143 -0.0740633 -0.497219
v 0.00190536 -0.0998013 -0.34843
v 0.0212373 -0.0740633 -0.510535
v 0.0161588 -0.0740633 -0.50469
v 0.0143158 -0.0740633 -0.502622
f 1 2 9
f 1 9 28
f 1 28 62
f 1 62 96
f 1 96 132
f 1 132 172
f 1 172 206
f 1 206 249
f 1 249 286
f 1 286 312
f 1 312 340
f 1 340 362
f 1 362 361
f 1 361 360
f 1 360 359
f 1 359 369
f 1 369 375
f 1 375 374
f 1 374 379
f 1 379 387
f 1 387 391
f 1 391 382
f 1 382 377
f 1 377 372
f 1 372 371
f 1 371 365
f 1 365 363
f 1 363 341
f 1 341 314
f 1 314 288
f 1 288 253
f 1 253 210
f 1 210 176
f 1 176 137
f 1 137 102
f 1 102 72
f 1 72 31
f 1 31 10
f 1 10 3
f 1 3 4
f 1 4 5
f 1 5 6
f 1 6 7
f 1 7 8
f 1 8 2
f 2 8 9
f 3 10 4
f 4 10 11
f 4 11 12
f 4 12 13
f 4 13 14
f 4 14 15
f 4 15 16
f 4 16 17
f 4 17 5
f 5 17 18
f 5 18 19
f 5 19 20
f 5 20 7
f 5 7 6
f 7 20 19
f 7 19 18
f 7 18 21
f 7 21 27
f 7 27 8
f 8 22 23
f 8 23 24
f 8 24 25
f 8 25 26
f 8 26 9
f 8 27 22
f 9 26 25
f 9 25 29
f 9 29 30
f 9 30 28
f 10 31 32
f 10 32 33
f 10 33 34
f 10 34 11
f 11 34 12
f 12 34 35
f 12 35 36
f 12 36 37
f 12 37 14
f 12 14 13
f 14 37 38
f 14 38 15
f 15 37 39
f 15 39 40
f 15 40 16
f 15 38 37
f 16 40 41
f 16 41 17
f 17 42 18
f 17 41 43
f 17 43 44
f 17 44 45
f 17 45 46
f 17 46 47
f 17 47 48
f 17 48 42
f 18 42 21
f 21 48 49
f 21 49 47
f 21 47 46
f 21 46 27
f 21 42 50
f 21 50 51
f 21 51 48
f 22 52 53
f 22 53 25
f 22 25 23
f 22 27 52
f 23 25 24
f 25 53 29
f 27 46 54
f 27 54 55
f 27 55 56
f 27 56 57
f 27 57 58
f 27 58 59
f 27 59 52
f 28 60 61
f 28 61 62
f 28 30 63
f 28 63 64
f 28 64 65
f 28 65 60
f 29 66 30
f 29 53 67
f 29 67 68
f 29 68 69
f 29 69 70
f 29 70 66
f 30 66 63
f 31 71 32
f 31 72 71
f 32 71 73
f 32 73 74
f 32 74 75
f 32 75 36
f 32 36 33
f 33 35 34
f 33 36 35
f 36 75 76
f 36 76 77
f 36 77 78
f 36 78 79
f 36 79 37
f 37 79 39
f 39 79 40
f 40 79 41
f 41 79 43
f 42 48 50
f 43 79 44
f 44 79 80
f 44 80 45
f 45 80 81
f 45 81 82
f 45 82 46
f 46 82 83
f 46 83 84
f 46 84 85
f 46 85 54
f 47 49 48
f 48 51 50
f 52 59 53
f 53 86 67
f 53 59 57
f 53 57 55
f 53 55 87
f 53 87 88
f 53 88 89
f 53 89 86
f 54 85 90
f 54 90 91
f 54 91 87
f 54 87 55
f 55 57 56
f 57 59 58
f 60 65 92
f 60 92 93
f 60 93 61
f 61 93 94
f 61 94 95
f 61 95 62
f 62 95 97
f 62 97 98
f 62 98 96
f 63 66 99
f 63 99 64
f 64 99 65
f 65 99 92
f 66 70 92
f 66 92 99
f 67 86 68
f 68 86 100
f 68 100 101
f 68 101 69
f 69 101 70
f 70 101 92
f 71 72 73
f 72 102 103
f 72 103 104
f 72 104 105
f 72 105 73
f 73 106 107
f 73 107 74
f 73 105 106
f 74 107 76
f 74 76 75
f 76 108 109
f 76 109 110
f 76 110 77
f 76 107 108
f 77 110 78
f 78 110 79
f 79 110 111
f 79 111 80
f 80 111 112
f 80 112 81
f 81 112 113
f 81 113 114
f 81 114 82
f 82 115 84
f 82 84 83
f 82 114 116
f 82 116 117
f 82 117 118
f 82 118 115
f 84 115 118
f 84 118 85
f 85 119 91
f 85 91 90
f 85 118 120
f 85 120 119
f 86 89 121
f 86 121 100
f 87 91 122
f 87 122 123
f 87 123 88
f 88 123 121
f 88 121 89
f 91 119 124
f 91 124 125
f 91 125 126
f 91 126 122
f 92 101 121
f 92 121 127
f 92 127 128
f 92 128 129
f 92 129 93
f 93 129 130
f 93 130 94
f 94 130 95
f 95 130 131
f 95 131 97
f 96 98 133
f 96 133 132
f 97 134 98
f 97 131 135
f 97 135 134
f 98 134 136
f 98 136 133
f 100 121 101
f 102 137 138
f 102 138 139
f 102 139 103
f 103 139 104
f 104 139 140
f 104 140 105
f 105 140 141
f 105 141 106
f 106 141 107
f 107 141 142
f 107 142 143
f 107 143 108
f 108 143 142
f 108 142 141
f 108 141 144
f 108 144 145
f 108 145 146
f 108 146 147
f 108 147 110
f 108 110 109
f 110 147 111
f 111 147 148
f 111 148 149
f 111 149 112
f 112 150 113
f 112 149 150
f 113 150 151
f 113 151 152
f 113 152 153
f 113 153 117
f 113 117 116
f 113 116 114
f 117 153 154
f 117 154 155
f 117 155 156
f 117 156 157
f 117 157 158
f 117 158 118
f 118 158 159
f 118 159 120
f 119 120 124
f 120 159 124
f 121 123 160
f 121 160 161
f 121 161 127
f 122 126 162
f 122 162 163
f 122 163 123
f 123 163 160
f 124 159 164
f 124 164 165
f 124 165 166
f 124 166 167
f 124 167 168
f 124 168 162
f 124 162 125
f 125 162 126
f 127 161 128
f 128 161 129
f 129 161 169
f 129 169 130
f 130 170 131
f 130 169 171
f 130 171 170
f 131 170 135
f 132 133 172
f 133 136 172
f 134 135 136
f 135 173 136
f 135 170 171
f 135 171 174
f 135 174 173
f 136 175 172
f 136 173 175
f 137 176 177
f 137 177 138
f 138 177 178
f 138 178 139
f 139 178 144
f 139 144 140
f 140 144 141
f 144 178 179
f 144 179 145
f 145 180 146
f 145 179 178
f 145 178 180
f 146 181 182
f 146 182 183
f 146 183 184
f 146 184 147
f 146 180 185
f 146 185 186
f 146 186 181
f 147 184 187
f 147 187 148
f 148 187 188
f 148 188 149
f 149 188 150
f 150 188 189
f 150 189 151
f 151 190 191
f 151 191 152
f 151 189 190
f 152 191 192
f 152 192 193
f 152 193 155
f 152 155 154
f 152 154 153
f 155 193 194
f 155 194 195
f 155 195 156
f 156 165 164
f 156 164 157
f 156 195 196
f 156 196 165
f 157 164 159
f 157 159 158
f 160 163 197
f 160 197 198
f 160 198 161
f 161 198 171
f 161 171 169
f 162 168 199
f 162 199 200
f 162 200 163
f 163 201 197
f 163 200 201
f 165 196 166
f 166 202 167
f 166 196 203
f 166 203 204
f 166 204 202
f 167 202 168
f 168 202 199
f 171 198 205
f 171 205 174
f 172 175 206
f 173 207 175
f 173 174 208
f 173 208 207
f 174 205 208
f 175 207 209
f 175 209 206
f 176 210 211
f 176 211 177
f 177 211 212
f 177 212 178
f 178 186 185
f 178 185 180
f 178 212 213
f 178 213 186
f 181 214 215
f 181 215 182
f 181 186 214
f 182 216 217
f 182 217 183
f 182 215 218
f 182 218 219
f 182 219 216
f 183 220 184
f 183 217 221
f 183 221 220
f 184 220 187
f 186 222 215
f 186 215 214
f 186 213 212
f 186 212 222
f 187 220 223
f 187 223 188
f 188 223 224
f 188 224 189
f 189 224 225
f 189 225 190
f 190 225 191
f 191 225 226
f 191 226 192
f 192 227 228
f 192 228 229
f 192 229 194
f 192 194 193
f 192 226 227
f 194 230 195
f 194 229 231
f 194 231 230
f 195 230 232
f 195 232 196
f 196 232 203
f 197 201 233
f 197 233 234
f 197 234 198
f 198 234 235
f 198 235 205
f 199 202 236
f 199 236 237
f 199 237 238
f 199 238 200
f 200 238 233
f 200 233 201
f 202 204 239
f 202 239 236
f 203 239 204
f 203 232 240
f 203 240 241
f 203 241 242
f 203 242 239
f 205 235 243
f 205 243 244
f 205 244 245
f 205 245 208
f 206 246 247
f 206 247 248
f 206 248 249
f 206 209 246
f 207 208 209
f 208 245 250
f 208 250 209
f 209 250 251
f 209 251 246
f 210 252 211
f 210 253 254
f 210 254 255
f 210 255 252
f 211 256 212
f 211 252 256
f 212 256 222
f 215 222 256
f 215 256 218
f 216 219 253
f 216 253 217
f 217 257 258
f 217 258 221
f 217 253 257
f 218 256 255
f 218 255 254
f 218 254 219
f 219 254 253
f 220 221 223
f 221 258 259
f 221 259 223
f 223 259 224
f 224 259 260
f 224 260 225
f 225 260 261
f 225 261 226
f 226 261 227
f 227 261 262
f 227 262 228
f 228 263 264
f 228 264 265
f 228 265 266
f 228 266 229
f 228 262 263
f 229 266 231
f 230 231 240
f 230 240 232
f 231 266 267
f 231 267 240
f 233 238 268
f 233 268 269
f 233 269 234
f 234 270 235
f 234 269 270
f 235 270 243
f 236 271 272
f 236 272 237
f 236 239 273
f 236 273 271
f 237 272 268
f 237 268 238
f 239 242 274
f 239 274 273
f 240 267 275
f 240 275 241
f 241 274 242
f 241 275 276
f 241 276 277
f 241 277 278
f 241 278 274
f 243 270 279
f 243 279 280
f 243 280 244
f 244 280 281
f 244 281 282
f 244 282 283
f 244 283 245
f 245 283 251
f 245 251 250
f 246 251 247
f 247 251 284
f 247 284 285
f 247 285 248
f 248 285 249
f 249 285 287
f 249 287 286
f 251 283 284
f 252 255 256
f 253 288 289
f 253 289 290
f 253 290 257
f 257 290 289
f 257 289 258
f 258 289 291
f 258 291 292
f 258 292 259
f 259 292 260
f 260 292 293
f 260 293 261
f 261 293 294
f 261 294 262
f 262 294 263
f 263 294 295
f 263 295 296
f 263 296 264
f 264 296 297
f 264 297 298
f 264 298 299
f 264 299 265
f 265 299 266
f 266 299 267
f 267 299 300
f 267 300 275
f 268 272 301
f 268 301 302
f 268 302 269
f 269 302 279
f 269 279 270
f 271 273 303
f 271 303 272
f 272 303 301
f 273 274 304
f 273 304 305
f 273 305 303
f 274 278 306
f 274 306 304
f 275 300 276
f 276 300 307
f 276 307 277
f 277 307 308
f 277 308 309
f 277 309 306
f 277 306 278
f 279 302 310
f 279 310 280
f 280 310 311
f 280 311 281
f 281 311 312
f 281 312 313
f 281 313 282
f 282 313 287
f 282 287 285
f 282 285 284
f 282 284 283
f 286 287 312
f 287 313 312
f 288 314 315
f 288 315 289
f 289 315 342
f 289 342 364
f 289 364 370
f 289 370 376
f 289 376 381
f 289 381 386
f 289 386 385
f 289 385 384
f 289 384 392
f 289 392 396
f 289 396 395
f 289 395 394
f 289 394 390
f 289 390 389
f 289 389 388
f 289 388 380
f 289 380 378
f 289 378 373
f 289 373 368
f 289 368 358
f 289 358 339
f 289 339 338
f 289 338 357
f 289 357 356
f 289 356 367
f 289 367 354
f 289 354 353
f 289 353 352
f 289 352 351
f 289 351 330
f 289 330 336
f 289 336 335
f 289 335 334
f 289 334 333
f 289 333 355
f 289 355 366
f 289 366 346
f 289 346 345
f 289 345 322
f 289 322 297
f 289 297 321
f 289 321 320
f 289 320 319
f 289 319 344
f 289 344 343
f 289 343 316
f 289 316 291
f 291 316 317
f 291 317 292
f 292 317 293
f 293 317 318
f 293 318 294
f 294 318 295
f 295 319 320
f 295 320 296
f 295 318 319
f 296 320 321
f 296 321 297
f 297 322 298
f 298 322 323
f 298 323 299
f 299 324 300
f 299 323 324
f 300 324 307
f 301 325 302
f 301 303 326
f 301 326 325
f 302 325 310
f 303 305 327
f 303 327 326
f 304 327 305
f 304 306 328
f 304 328 329
f 304 329 327
f 306 309 330
f 306 330 328
f 307 324 331
f 307 331 332
f 307 332 308
f 308 331 333
f 308 333 334
f 308 334 335
f 308 335 309
f 308 332 331
f 309 335 336
f 309 336 330
f 310 325 337
f 310 337 338
f 310 338 311
f 311 338 339
f 311 339 312
f 312 339 340
f 314 341 315
f 315 341 342
f 316 343 317
f 317 343 318
f 318 343 344
f 318 344 319
f 322 345 323
f 323 345 346
f 323 346 347
f 323 347 348
f 323 348 324
f 324 348 347
f 324 347 331
f 325 326 349
f 325 349 337
f 326 327 350
f 326 350 349
f 327 329 350
f 328 351 352
f 328 352 329
f 328 330 351
f 329 352 353
f 329 353 354
f 329 354 350
f 331 347 366
f 331 366 355
f 331 355 333
f 337 349 356
f 337 356 357
f 337 357 338
f 339 358 359
f 339 359 360
f 339 360 361
f 339 361 362
f 339 362 340
f 341 363 342
f 342 363 365
f 342 365 364
f 346 366 347
f 349 350 367
f 349 367 356
f 350 354 367
f 358 368 359
f 359 368 369
f 364 365 371
f 364 371 372
f 364 372 370
f 368 373 374
f 368 374 375
f 368 375 369
f 370 372 376
f 372 377 376
f 373 378 374
f 374 378 380
f 374 380 379
f 376 377 381
f 377 382 383
f 377 383 384
f 377 384 385
f 377 385 386
f 377 386 381
f 379 380 388
f 379 388 389
f 379 389 390
f 379 390 387
f 382 391 383
f 383 392 384
f 383 391 393
f 383 393 392
f 387 390 391
f 390 394 391
f 391 394 395
f 391 395 396
f 391 396 392
f 391 392 393
