v 0.444105 0.628739 0.269118
v 0.456611 0.628859 0.193893
v 0.443997 0.628739 0.269118
v 0.452937 0.627664 0.269118
v 0.453714 0.628022 0.256444
v 0.454491 0.628261 0.243937
v 0.456611 0.628859 0.118849
v 0.466075 0.628022 0.156386
v 0.447671 0.627664 0.113865
v 0.43673 0.626589 0.269118
v 0.463043 0.625633 0.21412
v 0.463514 0.626111 0.2064
v 0.464287 0.626828 0.193893
v 0.465028 0.627425 0.181401
v 0.457746 0.619183 0.269118
v 0.457777 0.619183 0.268951
v 0.465774 0.627784 0.168893
v 0.456611 0.628739 0.113865
v 0.465608 0.627784 0.143879
v 0.471558 0.619183 0.156386
v 0.445525 0.6242 0.113865
v 0.442768 0.619183 0.113865
v 0.43346 0.619183 0.269118
v 0.464458 0.6199 0.218542
v 0.469361 0.619183 0.181401
v 0.470926 0.619183 0.168893
v 0.457772 0.619064 0.269118
v 0.463281 0.614405 0.240852
v 0.463903 0.616436 0.23143
v 0.464872 0.627306 0.131357
v 0.464121 0.626708 0.118849
v 0.463815 0.62647 0.113865
v 0.470589 0.619183 0.143879
v 0.473869 0.606641 0.156386
v 0.441851 0.614167 0.113865
v 0.440498 0.606641 0.113865
v 0.431252 0.606761 0.269118
v 0.46779 0.619183 0.193893
v 0.473222 0.606641 0.168893
v 0.460011 0.606641 0.269118
v 0.460042 0.606641 0.268951
v 0.46269 0.606641 0.248861
v 0.466634 0.606641 0.218922
v 0.465821 0.621931 0.113865
v 0.469029 0.619183 0.131357
v 0.472869 0.606641 0.143879
v 0.473916 0.594219 0.156386
v 0.431232 0.606641 0.269118
v 0.421721 -0.591176 0.113865
v 0.461737 0.594219 0.256444
v 0.469972 0.594219 0.193893
v 0.473263 0.594219 0.168893
v 0.460058 0.594219 0.269118
v 0.460089 0.594219 0.268951
v 0.467458 0.619183 0.118849
v 0.466821 0.619183 0.113865
v 0.471226 0.606641 0.131357
v 0.468096 0.611658 0.113865
v 0.472916 0.594219 0.143879
v 0.473419 -0.591176 0.16596
v 0.473916 -0.591176 0.156386
v 0.420975 -0.591176 0.269118
v 0.468967 -0.591176 0.113865
v 0.463888 -0.591176 0.240122
v 0.470356 -0.591176 0.19099
v 0.472004 -0.591176 0.178468
v 0.473263 -0.591176 0.168893
v 0.460058 -0.591176 0.269118
v 0.460089 -0.591176 0.268951
v 0.469578 0.606641 0.118849
v 0.468967 0.594219 0.113865
v 0.46892 0.606641 0.113865
v 0.472916 -0.591176 0.143879
v 0.472532 -0.591176 0.140946
f 1 2 3
f 1 3 10
f 1 10 23
f 1 23 37
f 1 37 48
f 1 48 62
f 1 62 68
f 1 68 53
f 1 53 40
f 1 40 27
f 1 27 15
f 1 15 4
f 1 4 5
f 1 5 6
f 1 6 2
f 2 7 3
f 2 6 8
f 2 8 7
f 3 7 9
f 3 9 10
f 4 11 12
f 4 12 13
f 4 13 14
f 4 14 5
f 4 15 16
f 4 16 11
f 5 14 17
f 5 17 6
f 6 17 8
f 7 8 18
f 7 18 9
f 8 19 18
f 8 17 20
f 8 20 19
f 9 21 10
f 9 18 32
f 9 32 44
f 9 44 56
f 9 56 58
f 9 58 72
f 9 72 71
f 9 71 63
f 9 63 49
f 9 49 36
f 9 36 35
f 9 35 22
f 9 22 21
f 10 21 22
f 10 22 23
f 11 16 24
f 11 24 25
f 11 25 26
f 11 26 12
f 12 26 13
f 13 26 14
f 14 26 17
f 15 27 16
f 16 27 28
f 16 28 29
f 16 29 24
f 17 26 20
f 18 19 30
f 18 30 31
f 18 31 32
f 19 20 33
f 19 33 30
f 20 26 34
f 20 34 33
f 22 35 23
f 23 35 36
f 23 36 37
f 24 29 38
f 24 38 25
f 25 38 29
f 25 29 26
f 26 29 28
f 26 28 39
f 26 39 34
f 27 40 41
f 27 41 28
f 28 41 42
f 28 42 43
f 28 43 39
f 30 33 31
f 31 33 32
f 32 33 44
f 33 45 44
f 33 34 46
f 33 46 45
f 34 47 59
f 34 59 46
f 34 39 47
f 36 48 37
f 36 49 48
f 39 43 50
f 39 50 51
f 39 51 52
f 39 52 47
f 40 53 54
f 40 54 41
f 41 54 42
f 42 54 50
f 42 50 43
f 44 45 55
f 44 55 56
f 45 46 55
f 46 57 58
f 46 58 56
f 46 56 55
f 46 59 57
f 47 52 60
f 47 60 61
f 47 61 73
f 47 73 59
f 48 49 62
f 49 63 74
f 49 74 73
f 49 73 61
f 49 61 60
f 49 60 67
f 49 67 66
f 49 66 65
f 49 65 64
f 49 64 69
f 49 69 68
f 49 68 62
f 50 54 64
f 50 64 51
f 51 64 65
f 51 65 52
f 52 65 66
f 52 66 67
f 52 67 60
f 53 68 69
f 53 69 54
f 54 69 64
f 57 70 58
f 57 59 71
f 57 71 70
f 58 70 72
f 59 73 74
f 59 74 71
f 63 71 74
f 70 71 72
