v -0.362398 -0.591176 0.458596
v -0.307813 -0.591176 0.458596
v -0.348682 -0.591176 0.47647
v -0.362398 0.594124 0.458596
v -0.298009 -0.591176 0.460648
v -0.326803 0.606666 0.458596
v -0.344699 -0.591176 0.481637
v -0.344699 0.594124 0.481637
v -0.362342 0.606666 0.458596
v -0.248024 -0.591176 0.498231
v -0.32878 0.617775 0.458596
v -0.219118 0.606666 0.545235
v -0.343324 -0.591176 0.483401
v -0.338836 0.594124 0.489144
v -0.338808 0.606666 0.489109
v -0.344643 0.606666 0.481637
v -0.338444 0.614908 0.488683
v -0.359748 0.619208 0.458596
v -0.222765 -0.591176 0.523002
v -0.330001 0.620641 0.458596
v -0.219118 0.619208 0.54768
v -0.219118 0.606905 0.545282
v -0.219118 -0.591176 0.533496
v -0.338836 -0.591176 0.489144
v -0.33216 0.594124 0.495394
v -0.332118 0.606666 0.49536
v -0.325639 0.613833 0.500699
v -0.331109 0.618491 0.493791
v -0.336578 0.62315 0.486538
v -0.341754 0.619089 0.482075
v -0.351459 0.626375 0.464466
v -0.35446 0.626972 0.458596
v -0.334404 0.626375 0.458596
v -0.219118 0.624942 0.550356
v -0.219118 -0.591176 0.576395
v -0.33216 -0.591176 0.495394
v -0.325905 0.594124 0.500907
v -0.325863 0.606666 0.500872
v -0.311459 0.606666 0.511931
v -0.268978 0.606666 0.544532
v -0.247589 0.606666 0.56093
v -0.27599 0.614549 0.538512
v -0.289763 0.616938 0.526969
v -0.287589 0.62518 0.525274
v -0.323423 0.622194 0.498912
v -0.328233 0.627092 0.490574
v -0.33986 0.626853 0.4782
v -0.344026 0.627928 0.468836
v -0.343142 0.628167 0.458596
v -0.335526 0.627331 0.458596
v -0.334811 0.627211 0.458896
v -0.222933 0.626256 0.549445
v -0.219118 0.627928 0.555568
v -0.221825 -0.591176 0.575276
v -0.219118 0.594124 0.576395
v -0.325905 -0.591176 0.500907
v -0.268978 0.594124 0.54459
v -0.247631 0.594124 0.560965
v -0.241334 0.606666 0.565532
v -0.239665 0.619208 0.564344
v -0.24592 0.619208 0.559627
v -0.237926 0.625539 0.563098
v -0.301319 0.626136 0.51373
v -0.315078 0.626733 0.502152
v -0.319145 0.628167 0.494506
v -0.332048 0.628167 0.482075
v -0.293984 0.628883 0.506661
v -0.219118 0.628047 0.556052
v -0.223284 -0.591176 0.574665
v -0.223284 0.594124 0.574665
v -0.219118 0.602366 0.57636
v -0.223228 0.606666 0.574642
v -0.268978 -0.591176 0.54459
v -0.260577 -0.591176 0.551036
v -0.241376 0.594124 0.565555
v -0.247631 -0.591176 0.560965
v -0.231447 0.606666 0.570975
v -0.231447 0.619208 0.568576
v -0.219118 0.620283 0.573662
v -0.231447 0.626733 0.564586
v -0.242835 0.627211 0.556099
v -0.251671 0.626375 0.551532
v -0.265415 0.626853 0.539931
v -0.293984 0.62745 0.516555
v -0.305891 0.627689 0.506453
v -0.231447 0.628764 0.556687
v -0.256089 0.627928 0.544128
v -0.219118 0.628047 0.567273
v -0.229539 -0.591176 0.571874
v -0.231447 0.594124 0.571021
v -0.219118 0.606666 0.576337
v -0.219118 0.611922 0.575691
v -0.241376 -0.591176 0.565555
v -0.219118 0.619805 0.5738
v -0.231447 -0.591176 0.571021
f 1 2 5
f 1 5 10
f 1 10 19
f 1 19 23
f 1 23 35
f 1 35 54
f 1 54 69
f 1 69 89
f 1 89 95
f 1 95 93
f 1 93 76
f 1 76 74
f 1 74 73
f 1 73 56
f 1 56 36
f 1 36 24
f 1 24 13
f 1 13 7
f 1 7 3
f 1 3 4
f 1 4 9
f 1 9 18
f 1 18 32
f 1 32 49
f 1 49 50
f 1 50 33
f 1 33 20
f 1 20 11
f 1 11 6
f 1 6 2
f 2 6 5
f 3 7 8
f 3 8 4
f 4 8 16
f 4 16 9
f 5 6 10
f 6 11 12
f 6 12 10
f 7 13 8
f 8 14 15
f 8 15 16
f 8 13 14
f 9 16 17
f 9 17 18
f 10 12 19
f 11 20 21
f 11 21 22
f 11 22 12
f 12 23 19
f 12 22 21
f 12 21 34
f 12 34 53
f 12 53 68
f 12 68 88
f 12 88 79
f 12 79 94
f 12 94 92
f 12 92 91
f 12 91 71
f 12 71 55
f 12 55 35
f 12 35 23
f 13 24 14
f 14 25 15
f 14 24 36
f 14 36 25
f 15 26 17
f 15 17 16
f 15 25 26
f 17 27 28
f 17 28 29
f 17 29 30
f 17 30 18
f 17 26 27
f 18 30 29
f 18 29 31
f 18 31 32
f 20 33 34
f 20 34 21
f 25 37 38
f 25 38 26
f 25 36 56
f 25 56 37
f 26 38 27
f 27 39 40
f 27 40 41
f 27 41 42
f 27 42 43
f 27 43 44
f 27 44 45
f 27 45 28
f 27 38 39
f 28 45 29
f 29 45 46
f 29 46 47
f 29 47 31
f 31 47 32
f 32 47 48
f 32 48 49
f 33 50 51
f 33 51 34
f 34 51 52
f 34 52 53
f 35 55 54
f 37 57 40
f 37 40 39
f 37 39 38
f 37 56 73
f 37 73 57
f 40 57 58
f 40 58 41
f 41 59 60
f 41 60 42
f 41 58 59
f 42 60 61
f 42 61 44
f 42 44 43
f 44 62 63
f 44 63 45
f 44 61 62
f 45 63 64
f 45 64 46
f 46 65 66
f 46 66 47
f 46 64 65
f 47 66 48
f 48 66 49
f 49 66 67
f 49 67 68
f 49 68 50
f 50 68 53
f 50 53 51
f 51 53 52
f 54 55 70
f 54 70 69
f 55 71 72
f 55 72 70
f 57 73 74
f 57 74 58
f 58 75 59
f 58 74 76
f 58 76 93
f 58 93 75
f 59 75 77
f 59 77 60
f 60 77 78
f 60 78 62
f 60 62 61
f 62 79 80
f 62 80 81
f 62 81 82
f 62 82 63
f 62 78 79
f 63 82 64
f 64 82 83
f 64 83 84
f 64 84 85
f 64 85 65
f 65 86 67
f 65 67 66
f 65 85 84
f 65 84 87
f 65 87 86
f 67 86 68
f 68 86 88
f 69 70 89
f 70 72 77
f 70 77 90
f 70 90 89
f 71 91 72
f 72 91 92
f 72 92 77
f 75 90 77
f 75 93 95
f 75 95 90
f 77 92 78
f 78 92 94
f 78 94 79
f 79 88 80
f 80 88 81
f 81 88 86
f 81 86 87
f 81 87 83
f 81 83 82
f 83 87 84
f 89 90 95
