v 0.041423 -0.450238 -0.283069
v 0.041423 -0.591728 -0.26902
v 0.041423 -0.450238 -0.311582
v -0.142471 -0.450238 -0.262147
v -0.131346 -0.591728 -0.244373
v 0.041423 -0.591728 -0.311582
v 0.0401449 -0.591728 -0.311751
v 0.0318647 -0.450238 -0.312843
v -0.142471 -0.450238 -0.292745
v -0.142471 -0.591728 -0.244246
v 0.0187603 -0.591728 -0.314568
v 0.0187603 -0.450238 -0.314568
v -0.13383 -0.591728 -0.296322
v -0.142471 -0.591728 -0.292745
v -0.131346 -0.450238 -0.29735
v 0.00624988 -0.591728 -0.316188
v 0.00624988 -0.450238 -0.316188
v -0.131346 -0.591728 -0.29735
v -0.124326 -0.450238 -0.300089
v -0.0062605 -0.591728 -0.316188
v -0.0062605 -0.450238 -0.316188
v -0.124326 -0.591728 -0.300089
v -0.121266 -0.450238 -0.300646
v -0.0187709 -0.591728 -0.314568
v -0.0187709 -0.450238 -0.314568
v -0.118062 -0.591728 -0.301223
v -0.118062 -0.450238 -0.301223
v -0.0207689 -0.591728 -0.314307
v -0.0501818 -0.450238 -0.310434
v -0.108648 -0.591728 -0.302681
v -0.106326 -0.450238 -0.30304
v -0.0938152 -0.591728 -0.304688
v -0.0938152 -0.450238 -0.304688
v -0.106326 -0.591728 -0.30304
f 1 2 6
f 1 6 3
f 1 3 8
f 1 8 12
f 1 12 17
f 1 17 21
f 1 21 25
f 1 25 29
f 1 29 33
f 1 33 31
f 1 31 27
f 1 27 23
f 1 23 19
f 1 19 15
f 1 15 9
f 1 9 4
f 1 4 5
f 1 5 2
f 2 5 10
f 2 10 14
f 2 14 13
f 2 13 18
f 2 18 22
f 2 22 26
f 2 26 30
f 2 30 34
f 2 34 32
f 2 32 28
f 2 28 24
f 2 24 20
f 2 20 16
f 2 16 11
f 2 11 7
f 2 7 6
f 3 6 7
f 3 7 8
f 4 9 14
f 4 14 10
f 4 10 5
f 7 11 8
f 8 11 12
f 9 13 14
f 9 15 13
f 11 16 17
f 11 17 12
f 13 15 18
f 15 19 22
f 15 22 18
f 16 20 21
f 16 21 17
f 19 23 22
f 20 24 25
f 20 25 21
f 22 23 26
f 23 27 26
f 24 28 25
f 25 28 29
f 26 27 30
f 27 31 30
f 28 32 29
f 29 32 33
f 30 31 34
f 31 33 32
f 31 32 34
