v -0.0930522 0.513358 -0.000746895
v -0.093034 0.513358 -0.00934529
v -0.093034 0.513358 0.00934529
v -0.0497141 0.926034 0.00934529
v -0.0497141 0.926034 -0.00934529
v -0.0896092 0.513358 -0.0251212
v -0.0925603 0.513358 0.0129158
v -0.0427552 0.926034 0.0272161
v -0.0409699 0.938773 0.0243743
v -0.043411 0.940508 0.00934529
v -0.0892813 0.513358 0.0265421
v -0.043411 0.940508 -0.00934529
v -0.0409699 0.938773 -0.0243743
v -0.0427552 0.926034 -0.0272161
v -0.0892813 0.513358 -0.0265421
v -0.0893723 0.513358 -0.0261778
v -0.0365796 0.926034 0.0365796
v -0.089172 0.513358 0.0267971
v -0.0803003 0.513358 0.04669
v -0.079936 0.513358 0.0474916
v -0.0790616 0.513358 0.0489489
v -0.074817 0.513358 0.0559989
v -0.0243743 0.938773 0.0409699
v -0.0295843 0.941481 0.0295843
v -0.0280541 0.945629 0.00934529
v -0.0280541 0.945629 -0.00934529
v -0.0295843 0.941481 -0.0295843
v -0.0243743 0.938773 -0.0409699
v -0.0365796 0.926034 -0.0365796
v -0.0790616 0.513358 -0.0489489
v -0.079936 0.513358 -0.0474916
v -0.0272161 0.926034 0.0427552
v -0.0656174 0.513358 0.0656174
v -0.0559989 0.513358 0.074817
v -0.00934529 0.926034 0.0497141
v -0.00934529 0.940508 0.043411
v -0.00934529 0.945629 0.0280541
v -0.00934529 0.945671 0.00934529
v -0.00934529 0.945671 -0.00934529
v -0.00934529 0.945629 -0.0280541
v -0.00934529 0.926034 -0.0497141
v -0.0272161 0.926034 -0.0427552
v -0.00934529 0.940508 -0.043411
v -0.0489489 0.513358 -0.0790616
v -0.0645244 0.513358 -0.0666558
v -0.0656174 0.513358 -0.0656174
v -0.0666558 0.513358 -0.0645244
v -0.0489489 0.513358 0.0790616
v -0.0474916 0.513358 0.079936
v -0.0265421 0.513358 0.0892813
v 0.00934529 0.926034 0.0497141
v -0.0261778 0.513358 0.0893723
v -0.0129158 0.513358 0.0925603
v -0.00934529 0.513358 0.093034
v 0.00934529 0.513358 0.0930522
v 0.00934529 0.940508 0.043411
v 0.00934529 0.945629 0.0280541
v 0.00934529 0.945671 0.00934529
v 0.00934529 0.945671 -0.00934529
v 0.00934529 0.945629 -0.0280541
v 0.00934529 0.926034 -0.0497141
v -0.000746895 0.513358 -0.0930522
v -0.00934529 0.513358 -0.093034
v -0.0251212 0.513358 -0.0896092
v -0.0265421 0.513358 -0.0892813
v -0.0267971 0.513358 -0.089172
v -0.04669 0.513358 -0.0803003
v -0.0474916 0.513358 -0.079936
v 0.00934529 0.940508 -0.043411
v 0.0272161 0.926034 0.0427552
v 0.0243743 0.938773 0.0409699
v 0.0251212 0.513358 0.0896092
v 0.0265421 0.513358 0.0892813
v 0.0295843 0.941481 0.0295843
v 0.0280541 0.945629 0.00934529
v 0.0280541 0.945629 -0.00934529
v 0.0295843 0.941481 -0.0295843
v 0.0243743 0.938773 -0.0409699
v 0.0272161 0.926034 -0.0427552
v 0.0265421 0.513358 -0.0892813
v 0.0261778 0.513358 -0.0893723
v 0.0129158 0.513358 -0.0925603
v 0.00934529 0.513358 -0.0930522
v 0.0365796 0.926034 0.0365796
v 0.0267971 0.513358 0.089172
v 0.04669 0.513358 0.0803003
v 0.0474916 0.513358 0.079936
v 0.0489489 0.513358 0.0790616
v 0.0409699 0.938773 0.0243743
v 0.043411 0.940508 0.00934529
v 0.043411 0.940508 -0.00934529
v 0.0409699 0.938773 -0.0243743
v 0.0365796 0.926034 -0.0365796
v 0.0559989 0.513358 -0.074817
v 0.0489489 0.513358 -0.0790616
v 0.0474916 0.513358 -0.079936
v 0.0427552 0.926034 0.0272161
v 0.0645244 0.513358 0.0666558
v 0.0656174 0.513358 0.0656174
v 0.0666558 0.513358 0.0645244
v 0.0790616 0.513358 0.0489489
v 0.0497141 0.926034 0.00934529
v 0.0497141 0.926034 -0.00934529
v 0.0427552 0.926034 -0.0272161
v 0.074817 0.513358 -0.0559989
v 0.0656174 0.513358 -0.0656174
v 0.079936 0.513358 0.0474916
v 0.0892813 0.513358 0.0265421
v 0.0893723 0.513358 0.0261778
v 0.0896092 0.513358 0.0251212
v 0.093034 0.513358 0.00934529
v 0.0930522 0.513358 0.000746895
v 0.0930522 0.513358 -0.00934529
v 0.0925603 0.513358 -0.0129158
v 0.0892813 0.513358 -0.0265421
v 0.089172 0.513358 -0.0267971
v 0.0803003 0.513358 -0.04669
v 0.079936 0.513358 -0.0474916
v 0.0790616 0.513358 -0.0489489
f 1 2 6
f 1 6 16
f 1 16 15
f 1 15 31
f 1 31 30
f 1 30 47
f 1 47 46
f 1 46 45
f 1 45 44
f 1 44 68
f 1 68 67
f 1 67 66
f 1 66 65
f 1 65 64
f 1 64 63
f 1 63 62
f 1 62 83
f 1 83 82
f 1 82 81
f 1 81 80
f 1 80 96
f 1 96 95
f 1 95 94
f 1 94 106
f 1 106 105
f 1 105 119
f 1 119 118
f 1 118 117
f 1 117 116
f 1 116 115
f 1 115 114
f 1 114 113
f 1 113 112
f 1 112 111
f 1 111 110
f 1 110 109
f 1 109 108
f 1 108 107
f 1 107 101
f 1 101 100
f 1 100 99
f 1 99 98
f 1 98 88
f 1 88 87
f 1 87 86
f 1 86 85
f 1 85 73
f 1 73 72
f 1 72 55
f 1 55 54
f 1 54 53
f 1 53 52
f 1 52 50
f 1 50 49
f 1 49 48
f 1 48 34
f 1 34 33
f 1 33 22
f 1 22 21
f 1 21 20
f 1 20 19
f 1 19 18
f 1 18 11
f 1 11 7
f 1 7 3
f 1 3 4
f 1 4 5
f 1 5 2
f 2 5 6
f 3 7 4
f 4 8 9
f 4 9 10
f 4 10 12
f 4 12 5
f 4 7 11
f 4 11 8
f 5 12 13
f 5 13 14
f 5 14 15
f 5 15 16
f 5 16 6
f 8 17 9
f 8 11 18
f 8 18 19
f 8 19 20
f 8 20 21
f 8 21 22
f 8 22 17
f 9 17 23
f 9 23 24
f 9 24 25
f 9 25 10
f 10 25 26
f 10 26 12
f 12 26 13
f 13 26 27
f 13 27 28
f 13 28 29
f 13 29 14
f 14 29 30
f 14 30 31
f 14 31 15
f 17 32 23
f 17 22 33
f 17 33 34
f 17 34 32
f 23 32 35
f 23 35 36
f 23 36 37
f 23 37 24
f 24 37 25
f 25 37 38
f 25 38 39
f 25 39 26
f 26 39 40
f 26 40 27
f 27 40 28
f 28 41 42
f 28 42 29
f 28 40 43
f 28 43 41
f 29 42 44
f 29 44 45
f 29 45 46
f 29 46 47
f 29 47 30
f 32 34 48
f 32 48 49
f 32 49 50
f 32 50 35
f 35 51 56
f 35 56 36
f 35 50 52
f 35 52 53
f 35 53 54
f 35 54 55
f 35 55 51
f 36 56 57
f 36 57 37
f 37 57 58
f 37 58 38
f 38 58 59
f 38 59 39
f 39 59 60
f 39 60 40
f 40 60 69
f 40 69 43
f 41 43 69
f 41 69 61
f 41 61 83
f 41 83 62
f 41 62 63
f 41 63 64
f 41 64 65
f 41 65 42
f 42 65 66
f 42 66 67
f 42 67 68
f 42 68 44
f 51 70 71
f 51 71 56
f 51 55 72
f 51 72 73
f 51 73 70
f 56 71 57
f 57 71 74
f 57 74 75
f 57 75 58
f 58 75 76
f 58 76 59
f 59 76 60
f 60 76 77
f 60 77 78
f 60 78 69
f 61 69 78
f 61 78 79
f 61 79 80
f 61 80 81
f 61 81 82
f 61 82 83
f 70 84 71
f 70 73 85
f 70 85 86
f 70 86 87
f 70 87 88
f 70 88 84
f 71 84 89
f 71 89 74
f 74 89 75
f 75 89 90
f 75 90 91
f 75 91 76
f 76 91 92
f 76 92 77
f 77 92 78
f 78 92 93
f 78 93 79
f 79 93 94
f 79 94 95
f 79 95 96
f 79 96 80
f 84 97 89
f 84 88 98
f 84 98 99
f 84 99 100
f 84 100 101
f 84 101 97
f 89 97 102
f 89 102 90
f 90 102 103
f 90 103 91
f 91 103 92
f 92 103 104
f 92 104 93
f 93 104 105
f 93 105 106
f 93 106 94
f 97 101 107
f 97 107 108
f 97 108 102
f 102 108 109
f 102 109 110
f 102 110 111
f 102 111 112
f 102 112 113
f 102 113 103
f 103 113 114
f 103 114 115
f 103 115 104
f 104 115 116
f 104 116 117
f 104 117 118
f 104 118 119
f 104 119 105
