v -0.00697927 0.58133 -0.129167
v -0.00697927 0.567324 -0.128737
v -0.0284228 0.572256 -0.126183
v -0.0209884 0.58133 -0.127346
v -0.0284481 0.589248 -0.126183
v -0.00697927 0.595336 -0.128206
v 0.00697927 0.595336 -0.128206
v 0.00697927 0.58133 -0.129142
v 0.00697927 0.567324 -0.128737
v -0.00697927 0.555591 -0.127195
v -0.0175493 0.558366 -0.126537
v -0.0269056 0.562912 -0.125905
v -0.021747 0.567478 -0.126841
v -0.0286504 0.58133 -0.126234
v -0.0338596 0.567478 -0.124261
v -0.035655 0.58133 -0.124135
v -0.0240734 0.598592 -0.125551
v -0.0200275 0.594489 -0.126638
v -0.0490066 0.58133 -0.11933
v -0.0490066 0.595336 -0.118294
v -0.0338849 0.594489 -0.123806
v -0.0147172 0.602753 -0.126158
v -0.00697927 0.604796 -0.126638
v 0.00697927 0.604796 -0.126638
v 0.0147172 0.602753 -0.126158
v 0.0240734 0.598592 -0.125551
v 0.0200275 0.594489 -0.126638
v 0.0284481 0.589248 -0.126183
v 0.0209884 0.58133 -0.127346
v 0.0284228 0.572256 -0.126183
v 0.021747 0.567478 -0.126841
v 0.0269056 0.562912 -0.125905
v 0.0175493 0.558366 -0.126537
v 0.00697927 0.555591 -0.127195
v -0.00697927 0.510317 -0.117156
v -0.0214688 0.510317 -0.115537
v -0.021747 0.553549 -0.124792
v -0.0349975 0.553318 -0.121707
v -0.0490066 0.567324 -0.118875
v -0.0349975 0.609323 -0.120544
v -0.0200275 0.608206 -0.12411
v -0.0598801 0.567324 -0.11402
v -0.06031 0.58133 -0.114222
v -0.0593238 0.595336 -0.113717
v -0.0575284 0.605316 -0.112832
v -0.04974 0.609708 -0.115032
v -0.00697927 0.611789 -0.124919
v 0.00697927 0.611789 -0.124919
v 0.0200275 0.608206 -0.12411
v 0.0349975 0.609323 -0.120544
v 0.0338849 0.594489 -0.123806
v 0.0490066 0.595336 -0.118294
v 0.0490066 0.58133 -0.11933
v 0.035655 0.58133 -0.124135
v 0.0286504 0.58133 -0.126234
v 0.0338596 0.567478 -0.124261
v 0.0237194 0.510317 -0.114981
v 0.0214688 0.510317 -0.115537
v 0.021747 0.553549 -0.124792
v 0.0349975 0.553318 -0.121707
v 0.00842064 0.510317 -0.117055
v 0.00697927 0.510317 -0.117156
v -0.0347699 0.510317 -0.11134
v -0.0503468 0.552046 -0.11574
v -0.0583123 0.555861 -0.113211
v -0.0209884 0.623348 -0.119583
v -0.0455676 0.620343 -0.113514
v -0.0360343 0.62435 -0.115588
v -0.0668847 0.567324 -0.110202
v -0.0673146 0.58133 -0.110455
v -0.0663284 0.595336 -0.109848
v -0.0549238 0.61464 -0.111592
v -0.0625353 0.609708 -0.108684
v -0.00697927 0.623348 -0.121379
v 0.00697927 0.623348 -0.121379
v 0.0209884 0.623348 -0.119583
v 0.0360343 0.62435 -0.115588
v 0.0455676 0.620343 -0.113514
v 0.04974 0.609708 -0.115032
v 0.0575284 0.605316 -0.112832
v 0.0593238 0.595336 -0.113717
v 0.0490066 0.567324 -0.118875
v 0.06031 0.58133 -0.114222
v 0.0598801 0.567324 -0.11402
v 0.0503468 0.552046 -0.11574
v 0.0373239 0.510317 -0.109822
v -0.0490066 0.510317 -0.10522
v -0.0558847 0.546517 -0.111997
v -0.0591215 0.510317 -0.100668
v -0.0630157 0.552046 -0.109468
v -0.0320389 0.633039 -0.113464
v -0.0209884 0.635216 -0.114627
v -0.0413699 0.629687 -0.111795
v -0.04974 0.62435 -0.110303
v -0.0750272 0.553318 -0.101882
v -0.0836248 0.564742 -0.0977351
v -0.0781881 0.568576 -0.10216
v -0.0770249 0.58133 -0.103475
v -0.08408 0.588497 -0.0980638
v -0.077834 0.594026 -0.101907
v -0.0741168 0.609323 -0.101174
v -0.0639261 0.623868 -0.102868
v -0.0718157 0.619553 -0.0994293
v -0.00604364 0.638221 -0.11488
v -0.000733329 0.644521 -0.112149
v 0.000733329 0.644521 -0.112149
v 0.00604364 0.638221 -0.11488
v 0.0209884 0.635216 -0.114627
v 0.0320389 0.633039 -0.113464
v 0.0413699 0.629687 -0.111795
v 0.04974 0.62435 -0.110303
v 0.0549238 0.61464 -0.111592
v 0.0625353 0.609708 -0.108684
v 0.0663284 0.595336 -0.109848
v 0.0673146 0.58133 -0.110455
v 0.0583123 0.555861 -0.113211
v 0.0668847 0.567324 -0.110202
v 0.0558847 0.546517 -0.111997
v 0.0504227 0.510317 -0.10474
v -0.065418 0.510317 -0.095788
v -0.0820317 0.553318 -0.096496
v -0.0340619 0.651495 -0.101351
v -0.0287516 0.658701 -0.098342
v -0.0209884 0.642229 -0.110809
v -0.0360343 0.637566 -0.109443
v -0.0100643 0.643481 -0.111542
v -0.0598548 0.634657 -0.100517
v -0.050094 0.63853 -0.103222
v -0.0840547 0.574086 -0.0980638
v -0.0894915 0.553318 -0.0894915
v -0.0977351 0.564762 -0.0836248
v -0.0908822 0.569424 -0.0908823
v -0.08408 0.58133 -0.0980638
v -0.0830179 0.597821 -0.0972546
v -0.0910846 0.58133 -0.0910846
v -0.0980638 0.588497 -0.08408
v -0.0906547 0.593159 -0.0906547
v -0.0811214 0.609323 -0.0958133
v -0.0691858 0.628897 -0.0974064
v -0.0766961 0.623868 -0.0937903
v -0.0209884 0.65136 -0.104816
v -0.00604364 0.65005 -0.107749
v -0.00697927 0.660685 -0.100062
v 0.00697927 0.660685 -0.100062
v 0.00604364 0.65005 -0.107749
v 0.0209884 0.65136 -0.104816
v 0.0100643 0.643481 -0.111542
v 0.0209884 0.642229 -0.110809
v 0.0287516 0.658701 -0.098342
v 0.0340619 0.651495 -0.101351
v 0.0360343 0.637566 -0.109443
v 0.050094 0.63853 -0.103222
v 0.0598548 0.634657 -0.100517
v 0.0639261 0.623868 -0.102868
v 0.0718157 0.619553 -0.0994293
v 0.0741168 0.609323 -0.101174
v 0.077834 0.594026 -0.101907
v 0.08408 0.588497 -0.0980638
v 0.0770249 0.58133 -0.103475
v 0.0781881 0.568576 -0.10216
v 0.0630157 0.552046 -0.109468
v 0.0591215 0.510317 -0.100668
v 0.0836248 0.564742 -0.0977351
v 0.0750272 0.553318 -0.101882
v -0.0752548 0.510317 -0.0881513
v -0.0815007 0.510317 -0.0829674
v -0.0461492 0.64691 -0.0997581
v -0.0381078 0.656254 -0.0964202
v -0.0209884 0.666522 -0.0925765
v -0.0209884 0.65951 -0.09905
v -0.0337584 0.664827 -0.0905029
v -0.029409 0.672861 -0.084611
v -0.0554801 0.644001 -0.0977857
v -0.0639261 0.63853 -0.0952317
v -0.0980638 0.574086 -0.0840547
v -0.096496 0.553318 -0.0820317
v -0.101882 0.553318 -0.0750272
v -0.110202 0.567324 -0.0668847
v -0.10216 0.568576 -0.0781881
v -0.0972546 0.597821 -0.0830179
v -0.0888087 0.609323 -0.0888087
v -0.0980638 0.58133 -0.08408
v -0.103475 0.58133 -0.0770249
v -0.110455 0.58133 -0.0673146
v -0.109848 0.595336 -0.0663284
v -0.101907 0.594026 -0.0778341
v -0.0862041 0.623348 -0.0862041
v -0.0844846 0.631035 -0.0844846
v -0.00697927 0.667698 -0.0936891
v 0.00697927 0.667698 -0.0936891
v 0.0209884 0.65951 -0.09905
v 0.029409 0.672861 -0.084611
v 0.0337584 0.664827 -0.0905029
v 0.0381078 0.656254 -0.0964202
v 0.0209884 0.666522 -0.0925765
v 0.0461492 0.64691 -0.0997581
v 0.0554801 0.644001 -0.0977857
v 0.0639261 0.63853 -0.0952317
v 0.0691858 0.628897 -0.0974064
v 0.0766961 0.623868 -0.0937903
v 0.0811214 0.609323 -0.0958133
v 0.0830179 0.597821 -0.0972546
v 0.08408 0.58133 -0.0980638
v 0.0906547 0.593159 -0.0906547
v 0.0980638 0.588497 -0.08408
v 0.0910846 0.58133 -0.0910846
v 0.0840547 0.574086 -0.0980638
v 0.0820317 0.553318 -0.096496
v 0.0752548 0.510317 -0.0881513
v 0.0908822 0.569424 -0.0908823
v 0.0977351 0.564742 -0.0836248
v 0.0894915 0.553318 -0.0894915
v -0.0881512 0.510317 -0.0752548
v -0.050094 0.651495 -0.0944478
v -0.0490066 0.661205 -0.0867352
v -0.03874 0.670953 -0.0825122
v -0.0209884 0.673747 -0.0855719
v -0.0344412 0.676425 -0.0775053
v -0.0246297 0.685595 -0.0687812
v -0.0152988 0.686655 -0.0704249
v -0.0567698 0.658893 -0.084611
v -0.0711835 0.645542 -0.0849398
v -0.0620801 0.650667 -0.0875696
v -0.0763168 0.636372 -0.0872409
v -0.100668 0.510317 -0.0591215
v -0.109468 0.552046 -0.0630158
v -0.113211 0.555861 -0.0583123
v -0.11402 0.567324 -0.0598801
v -0.0958133 0.609323 -0.0811214
v -0.101174 0.609323 -0.0741168
v -0.114222 0.58133 -0.06031
v -0.113717 0.595336 -0.0593238
v -0.112832 0.605316 -0.0575284
v -0.108684 0.609708 -0.0625353
v -0.0937903 0.623868 -0.0766961
v -0.0974064 0.628897 -0.0691858
v -0.0952317 0.63853 -0.0639261
v -0.0872409 0.636372 -0.0763168
v -0.0849398 0.645542 -0.0711835
v -0.0805145 0.640379 -0.0805145
v -0.00697927 0.67473 -0.0866846
v 0.00697927 0.67473 -0.0866846
v 0.0209884 0.673747 -0.0855719
v 0.0344412 0.676425 -0.0775053
v 0.03874 0.670953 -0.0825122
v 0.0152988 0.686655 -0.0704249
v 0.0246297 0.685595 -0.0687812
v 0.0490066 0.661205 -0.0867352
v 0.050094 0.651495 -0.0944478
v 0.0567698 0.658893 -0.084611
v 0.0620801 0.650667 -0.0875696
v 0.0711835 0.645542 -0.0849398
v 0.0763168 0.636372 -0.0872409
v 0.0844846 0.631035 -0.0844846
v 0.0862041 0.623348 -0.0862041
v 0.0888087 0.609323 -0.0888087
v 0.0972546 0.597821 -0.0830179
v 0.101907 0.594026 -0.0778341
v 0.109848 0.595336 -0.0663284
v 0.110455 0.58133 -0.0673146
v 0.103475 0.58133 -0.0770249
v 0.0980638 0.58133 -0.08408
v 0.0980638 0.574086 -0.0840547
v 0.0829674 0.510317 -0.0815007
v 0.10216 0.568576 -0.0781881
v 0.110202 0.567324 -0.0668847
v 0.101882 0.553318 -0.0750272
v 0.096496 0.553318 -0.0820317
v -0.0490066 0.668218 -0.079503
v -0.0562388 0.672495 -0.0701973
v -0.0490066 0.674248 -0.0724985
v -0.00697927 0.681723 -0.0780617
v -0.0349975 0.684073 -0.0663537
v -0.0349975 0.688215 -0.0593491
v -0.0203815 0.689333 -0.0636732
v -0.00697927 0.691471 -0.0630158
v -0.00697927 0.687098 -0.0710571
v -0.0661261 0.654886 -0.0810203
v -0.0716893 0.659876 -0.0716893
v -0.0611698 0.664056 -0.0756088
v -0.0760892 0.650204 -0.0760892
v -0.10474 0.510317 -0.0504227
v -0.111997 0.546517 -0.0558848
v -0.11574 0.552046 -0.0503469
v -0.118875 0.567324 -0.0490067
v -0.11933 0.58133 -0.0490067
v -0.0994293 0.619553 -0.0718157
v -0.118294 0.595336 -0.0490067
v -0.111592 0.61464 -0.0549239
v -0.115032 0.609708 -0.04974
v -0.102868 0.623868 -0.0639261
v -0.100517 0.634657 -0.0598549
v -0.0977857 0.644001 -0.0554802
v -0.0875696 0.650667 -0.0620801
v -0.0810202 0.654886 -0.0661261
v 0.00697927 0.681723 -0.0780617
v 0.0349975 0.684073 -0.0663537
v 0.0490066 0.674248 -0.0724985
v 0.0562388 0.672495 -0.0701973
v 0.0490066 0.668218 -0.079503
v 0.00697927 0.687098 -0.0710571
v 0.00697927 0.691471 -0.0630158
v 0.0203815 0.689333 -0.0636732
v 0.0349975 0.688215 -0.0593491
v 0.0611698 0.664056 -0.0756088
v 0.0716893 0.659876 -0.0716893
v 0.0661261 0.654886 -0.0810203
v 0.0760892 0.650204 -0.0760892
v 0.0805145 0.640379 -0.0805145
v 0.0849398 0.645542 -0.0711835
v 0.0872409 0.636372 -0.0763168
v 0.0952317 0.63853 -0.0639261
v 0.0974064 0.628897 -0.0691858
v 0.0937903 0.623868 -0.0766961
v 0.0958133 0.609323 -0.0811214
v 0.101174 0.609323 -0.0741168
v 0.108684 0.609708 -0.0625353
v 0.112832 0.605316 -0.0575284
v 0.113717 0.595336 -0.0593238
v 0.114222 0.58133 -0.06031
v 0.11402 0.567324 -0.0598801
v 0.0881512 0.510317 -0.0752548
v 0.109468 0.552046 -0.0630158
v 0.113211 0.555861 -0.0583123
v 0.100668 0.510317 -0.0591215
v 0.095788 0.510317 -0.065418
v -0.052648 0.684767 -0.052648
v -0.0483997 0.681318 -0.0622319
v -0.0655697 0.66922 -0.0655698
v -0.0701973 0.672495 -0.0562388
v -0.0617514 0.674364 -0.0617514
v -0.043317 0.686944 -0.0570227
v -0.0349975 0.693051 -0.0490067
v -0.019724 0.697135 -0.0476664
v -0.00697927 0.697752 -0.0496135
v -0.084611 0.658893 -0.0567698
v -0.0756088 0.664056 -0.0611698
v -0.109822 0.510317 -0.037324
v -0.114981 0.510317 -0.0237194
v -0.121707 0.553318 -0.0349975
v -0.124261 0.567478 -0.0338596
v -0.124135 0.58133 -0.035655
v -0.126183 0.589248 -0.0284482
v -0.123806 0.594489 -0.0338849
v -0.120544 0.609323 -0.0349975
v -0.113514 0.620343 -0.0455676
v -0.110303 0.62435 -0.04974
v -0.111795 0.629687 -0.0413699
v -0.103222 0.63853 -0.050094
v -0.109443 0.637566 -0.0360343
v -0.0997581 0.64691 -0.0461492
v -0.0964201 0.656254 -0.0381079
v -0.0944477 0.651495 -0.050094
v 0.043317 0.686944 -0.0570227
v 0.0483997 0.681318 -0.0622319
v 0.052648 0.684767 -0.052648
v 0.0617514 0.674364 -0.0617514
v 0.0701973 0.672495 -0.0562388
v 0.0655697 0.66922 -0.0655698
v 0.00697927 0.697752 -0.0496135
v 0.019724 0.697135 -0.0476664
v 0.0349975 0.693051 -0.0490067
v 0.0756088 0.664056 -0.0611698
v 0.084611 0.658893 -0.0567698
v 0.0810202 0.654886 -0.0661261
v 0.0875696 0.650667 -0.0620801
v 0.0977857 0.644001 -0.0555055
v 0.100517 0.634657 -0.0598549
v 0.102868 0.623868 -0.0639261
v 0.0994293 0.619553 -0.0718157
v 0.111592 0.61464 -0.0549239
v 0.115032 0.609708 -0.04974
v 0.118294 0.595336 -0.0490067
v 0.11933 0.58133 -0.0490067
v 0.118875 0.567324 -0.0490067
v 0.111997 0.546517 -0.0558848
v 0.11574 0.552046 -0.0503469
v 0.10522 0.510317 -0.0490067
v -0.0622318 0.681318 -0.0483998
v -0.0570227 0.686944 -0.043317
v -0.0483997 0.688543 -0.0483998
v -0.079503 0.668218 -0.0490067
v -0.0825122 0.670953 -0.03874
v -0.0724984 0.674248 -0.0490067
v -0.0347952 0.698214 -0.0347952
v -0.0235424 0.699659 -0.0393217
v -0.0141861 0.70041 -0.042078
v -0.00697927 0.700603 -0.042609
v -0.0867351 0.661205 -0.0490067
v -0.115537 0.510317 -0.0214689
v -0.125905 0.562912 -0.0269056
v -0.126183 0.572256 -0.0284229
v -0.126234 0.58133 -0.0286504
v -0.127346 0.58133 -0.0209884
v -0.129167 0.58133 -0.00697932
v -0.128206 0.595336 -0.00697932
v -0.126638 0.594489 -0.0200275
v -0.125551 0.598592 -0.0240735
v -0.119583 0.623348 -0.0209884
v -0.115588 0.62435 -0.0360343
v -0.12411 0.608206 -0.0200275
v -0.113464 0.633039 -0.0320389
v -0.101351 0.651495 -0.0340619
v -0.0905029 0.664827 -0.0337585
v -0.098342 0.658701 -0.0287516
v 0.0483997 0.688543 -0.0483998
v 0.0570227 0.686944 -0.043317
v 0.0622318 0.681318 -0.0483998
v 0.0724984 0.674248 -0.0490067
v 0.0825122 0.670953 -0.03874
v 0.079503 0.668218 -0.0490067
v 0.00697927 0.700603 -0.042609
v 0.0141861 0.70041 -0.042078
v 0.0235424 0.699659 -0.0393217
v 0.0347952 0.698214 -0.0347952
v 0.0867351 0.661205 -0.0490067
v 0.0944477 0.651495 -0.050094
v 0.0997581 0.64691 -0.0461492
v 0.109443 0.637566 -0.0360343
v 0.103222 0.63853 -0.050094
v 0.0964201 0.656254 -0.0381079
v 0.111795 0.629687 -0.0413699
v 0.110303 0.62435 -0.04974
v 0.113514 0.620343 -0.0455676
v 0.120544 0.609323 -0.0349975
v 0.123806 0.594489 -0.0338849
v 0.126183 0.589248 -0.0284482
v 0.124135 0.58133 -0.035655
v 0.124261 0.567478 -0.0338596
v 0.121707 0.553318 -0.0349975
v 0.11134 0.510317 -0.03477
v -0.0490066 0.693051 -0.0349975
v -0.0663537 0.684073 -0.0349975
v -0.0593491 0.688215 -0.0349975
v -0.084611 0.672861 -0.0294091
v -0.0775053 0.676425 -0.0344412
v -0.0299906 0.700873 -0.0299907
v -0.0393216 0.699659 -0.0235424
v -0.019724 0.701451 -0.0347952
v -0.00697927 0.702742 -0.0349975
v -0.117055 0.510317 -0.00842069
v -0.127195 0.555591 -0.00697932
v -0.126537 0.558366 -0.0175494
v -0.124792 0.553549 -0.021747
v -0.128737 0.567324 -0.00697932
v -0.126841 0.567478 -0.021747
v -0.128737 0.567324 0.00697922
v -0.129142 0.58133 0.00697922
v -0.128206 0.595336 0.00697922
v -0.126638 0.604815 0.00697922
v -0.126638 0.604796 -0.00697932
v -0.126158 0.602753 -0.0147172
v -0.124919 0.611789 -0.00697932
v -0.121379 0.623348 -0.00697932
v -0.114627 0.635216 -0.0209884
v -0.110809 0.642229 -0.0209884
v -0.104816 0.65136 -0.0209884
v -0.09905 0.65951 -0.0209884
v -0.0925765 0.666522 -0.0209884
v 0.0490066 0.693051 -0.0349975
v 0.0593491 0.688215 -0.0349975
v 0.0663537 0.684073 -0.0349975
v 0.0775053 0.676425 -0.0344412
v 0.084611 0.672861 -0.0294091
v 0.0905029 0.664827 -0.0337585
v 0.00697927 0.702742 -0.0349975
v 0.019724 0.701451 -0.0347952
v 0.0299906 0.700873 -0.0299907
v 0.0393216 0.699659 -0.0235424
v 0.101351 0.651495 -0.0340619
v 0.113464 0.633039 -0.0320389
v 0.098342 0.658701 -0.0287516
v 0.115588 0.62435 -0.0360343
v 0.119583 0.623348 -0.0209884
v 0.12411 0.608206 -0.0200275
v 0.125551 0.598592 -0.0240735
v 0.126638 0.594489 -0.0200275
v 0.128206 0.595336 -0.00697932
v 0.129142 0.58133 -0.00697932
v 0.127346 0.58133 -0.0209884
v 0.126234 0.58133 -0.0286504
v 0.126183 0.572256 -0.0284229
v 0.125905 0.562912 -0.0269056
v 0.115537 0.510317 -0.0214689
v -0.0476664 0.697135 -0.0197241
v -0.0687812 0.685595 -0.0246298
v -0.0636732 0.689333 -0.0203815
v -0.0855719 0.673747 -0.0209884
v -0.0704249 0.686655 -0.0152988
v -0.0347952 0.701451 -0.0197241
v -0.0209884 0.704167 -0.0209884
v -0.0420779 0.70041 -0.0141862
v -0.00697927 0.705689 -0.0209884
v -0.117156 0.510317 -0.00697932
v -0.127195 0.555591 0.00697922
v -0.126537 0.558366 0.0175493
v -0.125905 0.562912 0.0269055
v -0.126841 0.567478 0.0217469
v -0.126183 0.572256 0.0284228
v -0.127346 0.58133 0.0209883
v -0.126183 0.589248 0.0284481
v -0.126638 0.594489 0.0200274
v -0.125551 0.598592 0.0240734
v -0.126158 0.602753 0.0147171
v -0.124919 0.611789 0.00697922
v -0.121379 0.623348 0.00697922
v -0.112149 0.644521 -0.000733376
v -0.11488 0.638221 -0.00604369
v -0.111542 0.643481 -0.0100644
v -0.107749 0.65005 -0.00604369
v -0.100062 0.660685 -0.00697932
v -0.0936891 0.667698 -0.00697932
v 0.0476664 0.697135 -0.0197241
v 0.0636732 0.689333 -0.0203815
v 0.0687812 0.685595 -0.0246298
v 0.0855719 0.673747 -0.0209884
v 0.0925765 0.666522 -0.0209884
v 0.0704249 0.686655 -0.0152988
v 0.00697927 0.705689 -0.0209884
v 0.0209884 0.704167 -0.0209884
v 0.0347952 0.701451 -0.0197241
v 0.0420779 0.70041 -0.0141862
v 0.110809 0.642229 -0.0209884
v 0.114627 0.635216 -0.0209884
v 0.09905 0.65951 -0.0209884
v 0.104816 0.65136 -0.0209884
v 0.121379 0.623348 -0.00697932
v 0.124919 0.611789 -0.00697932
v 0.126158 0.602753 -0.0147172
v 0.128206 0.595336 0.00697922
v 0.129167 0.58133 0.00697922
v 0.126638 0.604815 -0.00697932
v 0.128737 0.567324 -0.00697932
v 0.126841 0.567478 -0.021747
v 0.124792 0.553549 -0.021747
v 0.126537 0.558366 -0.0175494
v 0.127195 0.555591 -0.00697932
v 0.117156 0.510317 -0.00697932
v -0.0496135 0.697752 -0.00697932
v -0.0630157 0.691471 -0.00697932
v -0.0866846 0.67473 -0.00697932
v -0.0780616 0.681723 -0.00697932
v -0.0710571 0.687098 -0.00697932
v -0.0349975 0.702742 -0.00697932
v -0.0209884 0.705689 -0.00697932
v -0.042609 0.700603 -0.00697932
v -0.00697927 0.707134 -0.00697932
v -0.117156 0.510317 0.00697922
v -0.115537 0.510317 0.0214688
v -0.124792 0.553549 0.0217469
v -0.121707 0.553318 0.0349974
v -0.124261 0.567478 0.0338595
v -0.124135 0.58133 0.0356549
v -0.126234 0.58133 0.0286504
v -0.11933 0.58133 0.0490066
v -0.118294 0.595336 0.0490066
v -0.123806 0.594489 0.0338848
v -0.120544 0.609323 0.0349974
v -0.12411 0.608206 0.0200274
v -0.119583 0.623348 0.0209883
v -0.114627 0.635216 0.0209883
v -0.11488 0.638221 0.0060436
v -0.112149 0.644521 0.000733282
v -0.100062 0.660685 0.00697922
v -0.0936891 0.667698 0.00697922
v 0.0496135 0.697752 -0.00697932
v 0.0630157 0.691471 -0.00697932
v 0.0780616 0.681723 -0.00697932
v 0.0866846 0.67473 -0.00697932
v 0.0936891 0.667698 -0.00697932
v 0.0710571 0.687098 -0.00697932
v 0.00697927 0.707134 -0.00697932
v 0.0209884 0.705689 -0.00697932
v 0.0349975 0.702742 -0.00697932
v 0.042609 0.700603 -0.00697932
v 0.111542 0.643481 -0.0100644
v 0.11488 0.638221 -0.00604369
v 0.100062 0.660685 -0.00697932
v 0.107749 0.65005 -0.00604369
v 0.112149 0.644521 -0.000733376
v 0.121379 0.623348 0.00697922
v 0.124919 0.611789 0.00697922
v 0.126638 0.604796 0.00697922
v 0.126158 0.602753 0.0147171
v 0.125551 0.598592 0.0240734
v 0.126638 0.594489 0.0200274
v 0.126183 0.589248 0.0284481
v 0.128737 0.567324 0.00697922
v 0.127346 0.58133 0.0209883
v 0.126183 0.572256 0.0284228
v 0.127195 0.555591 0.00697922
v 0.117156 0.510317 0.00697922
v -0.0496135 0.697752 0.00697922
v -0.0630157 0.691471 0.00697922
v -0.0866846 0.67473 0.00697922
v -0.0780616 0.681723 0.00697922
v -0.0710571 0.687098 0.00697922
v -0.0349975 0.702742 0.00697922
v -0.0209884 0.705689 0.00697922
v -0.042609 0.700603 0.00697922
v -0.00697927 0.707134 0.00697922
v -0.11134 0.510317 0.0347699
v -0.11574 0.552046 0.0503468
v -0.118875 0.567324 0.0490066
v -0.11402 0.567324 0.0598801
v -0.114222 0.58133 0.0603099
v -0.113717 0.595336 0.0593237
v -0.112832 0.605316 0.0575283
v -0.115032 0.609708 0.0497399
v -0.113514 0.620343 0.0455675
v -0.115588 0.62435 0.0360342
v -0.113464 0.633039 0.0320388
v -0.110809 0.642229 0.0209883
v -0.111542 0.643481 0.0100643
v -0.104816 0.65136 0.0209883
v -0.107749 0.65005 0.0060436
v -0.09905 0.65951 0.0209883
v -0.0925765 0.666522 0.0209883
v -0.0855719 0.673747 0.0209883
v 0.0496135 0.697752 0.00697922
v 0.0630157 0.691471 0.00697922
v 0.0780616 0.681723 0.00697922
v 0.0866846 0.67473 0.00697922
v 0.0936891 0.667698 0.00697922
v 0.0710571 0.687098 0.00697922
v 0.00697927 0.707134 0.00697922
v 0.0209884 0.705689 0.00697922
v 0.0349975 0.702742 0.00697922
v 0.042609 0.700603 0.00697922
v 0.100062 0.660685 0.00697922
v 0.112149 0.644521 0.000733282
v 0.11488 0.638221 0.0060436
v 0.114627 0.635216 0.0209883
v 0.119583 0.623348 0.0209883
v 0.12411 0.608206 0.0200274
v 0.120544 0.609323 0.0349974
v 0.123806 0.594489 0.0338848
v 0.126234 0.58133 0.0286504
v 0.118294 0.595336 0.0490066
v 0.11933 0.58133 0.0490066
v 0.124135 0.58133 0.0356549
v 0.126841 0.567478 0.0217469
v 0.125905 0.562912 0.0269055
v 0.126537 0.558366 0.0175493
v 0.124261 0.567478 0.0338595
v 0.115537 0.510317 0.0214688
v 0.117055 0.510317 0.00842059
v -0.0476664 0.697135 0.019724
v -0.0420779 0.70041 0.0141861
v -0.0704249 0.686655 0.0152987
v -0.0636732 0.689333 0.0203814
v -0.0347952 0.701451 0.019724
v -0.0209884 0.704167 0.0209883
v -0.00697927 0.705689 0.0209883
v -0.10522 0.510317 0.0490066
v -0.111997 0.546517 0.0558847
v -0.113211 0.555861 0.0583122
v -0.110202 0.567324 0.0668846
v -0.110455 0.58133 0.0673145
v -0.109848 0.595336 0.0663283
v -0.108684 0.609708 0.0625352
v -0.111592 0.61464 0.0549238
v -0.110303 0.62435 0.0497399
v -0.111795 0.629687 0.0413698
v -0.109443 0.637566 0.0360342
v -0.101351 0.651495 0.0340618
v -0.098342 0.658701 0.0287515
v -0.084611 0.672861 0.029409
v 0.0420779 0.70041 0.0141861
v 0.0476664 0.697135 0.019724
v 0.0636732 0.689333 0.0203814
v 0.0704249 0.686655 0.0152987
v 0.0855719 0.673747 0.0209883
v 0.0925765 0.666522 0.0209883
v 0.09905 0.65951 0.0209883
v 0.00697927 0.705689 0.0209883
v 0.0209884 0.704167 0.0209883
v 0.0347952 0.701451 0.019724
v 0.107749 0.65005 0.0060436
v 0.104816 0.65136 0.0209883
v 0.111542 0.643481 0.0100643
v 0.110809 0.642229 0.0209883
v 0.113464 0.633039 0.0320388
v 0.115588 0.62435 0.0360342
v 0.113514 0.620343 0.0455675
v 0.115032 0.609708 0.0497399
v 0.112832 0.605316 0.0575283
v 0.113717 0.595336 0.0593237
v 0.114222 0.58133 0.0603099
v 0.11402 0.567324 0.0598801
v 0.118875 0.567324 0.0490066
v 0.121707 0.553318 0.0349974
v 0.114981 0.510317 0.0237194
v 0.124792 0.553549 0.0217469
v -0.0490066 0.693051 0.0349974
v -0.0393216 0.699659 0.0235423
v -0.0593491 0.688215 0.0349974
v -0.0687812 0.685595 0.0246297
v -0.0299906 0.700873 0.0299906
v -0.019724 0.701451 0.0347951
v -0.00697927 0.702742 0.0349974
v -0.100668 0.510317 0.0591214
v -0.109468 0.552046 0.0630157
v -0.101882 0.553318 0.0750271
v -0.0977351 0.564742 0.0836247
v -0.10216 0.568576 0.078188
v -0.103475 0.58133 0.0770248
v -0.0980638 0.588497 0.0840799
v -0.101907 0.594026 0.077834
v -0.101174 0.609323 0.0741167
v -0.0994293 0.619553 0.0718156
v -0.102868 0.623868 0.063926
v -0.100517 0.634657 0.0598548
v -0.103222 0.63853 0.0500939
v -0.0977857 0.644001 0.0555054
v -0.0997581 0.64691 0.0461491
v -0.0964201 0.656254 0.0381078
v -0.0905029 0.664827 0.0337584
v -0.0825122 0.670953 0.03874
v -0.0775053 0.676425 0.0344411
v 0.0393216 0.699659 0.0235423
v 0.0490066 0.693051 0.0349974
v 0.0593491 0.688215 0.0349974
v 0.0687812 0.685595 0.0246297
v 0.084611 0.672861 0.029409
v 0.098342 0.658701 0.0287515
v 0.00697927 0.702742 0.0349974
v 0.019724 0.701451 0.0347951
v 0.0299906 0.700873 0.0299906
v 0.101351 0.651495 0.0340618
v 0.109443 0.637566 0.0360342
v 0.111795 0.629687 0.0413698
v 0.110303 0.62435 0.0497399
v 0.111592 0.61464 0.0549238
v 0.108684 0.609708 0.0625352
v 0.109848 0.595336 0.0663283
v 0.110455 0.58133 0.0673145
v 0.110202 0.567324 0.0668846
v 0.113211 0.555861 0.0583122
v 0.11574 0.552046 0.0503468
v 0.109822 0.510317 0.0373239
v -0.0570227 0.686944 0.0433169
v -0.0483997 0.688543 0.0483997
v -0.0347952 0.698214 0.0347951
v -0.0663537 0.684073 0.0349974
v -0.0235424 0.699659 0.0393216
v -0.0141861 0.70041 0.0420779
v -0.00697927 0.700603 0.0426089
v -0.095788 0.510317 0.065418
v -0.096496 0.553318 0.0820316
v -0.0980638 0.574086 0.0840546
v -0.0894915 0.553318 0.0894914
v -0.0836248 0.564742 0.097735
v -0.0908822 0.569424 0.0908822
v -0.0980638 0.58133 0.0840799
v -0.0910846 0.58133 0.0910845
v -0.08408 0.588497 0.0980637
v -0.0906547 0.593159 0.0906546
v -0.0972546 0.597821 0.0830178
v -0.0958133 0.609323 0.0811213
v -0.0937903 0.623868 0.076696
v -0.0974064 0.628897 0.0691857
v -0.0952317 0.63853 0.063926
v -0.0849398 0.645542 0.0711834
v -0.0875696 0.650667 0.06208
v -0.084611 0.658893 0.0567697
v -0.0944477 0.651495 0.0500939
v -0.0867351 0.661205 0.0490066
v -0.079503 0.668218 0.0490066
v -0.0701973 0.672495 0.0562387
v -0.0724984 0.674248 0.0490066
v 0.0347952 0.698214 0.0347951
v 0.0483997 0.688543 0.0483997
v 0.0570227 0.686944 0.0433169
v 0.0663537 0.684073 0.0349974
v 0.0775053 0.676425 0.0344411
v 0.0825122 0.670953 0.03874
v 0.0905029 0.664827 0.0337584
v 0.0964201 0.656254 0.0381078
v 0.00697927 0.700603 0.0426089
v 0.0141861 0.70041 0.0420779
v 0.0235424 0.699659 0.0393216
v 0.0997581 0.64691 0.0461491
v 0.103222 0.63853 0.0500939
v 0.0977857 0.644001 0.0554801
v 0.100517 0.634657 0.0598548
v 0.102868 0.623868 0.063926
v 0.0994293 0.619553 0.0718156
v 0.101174 0.609323 0.0741167
v 0.101907 0.594026 0.077834
v 0.0980638 0.588497 0.0840799
v 0.103475 0.58133 0.0770248
v 0.10216 0.568576 0.078188
v 0.0977351 0.564762 0.0836247
v 0.101882 0.553318 0.0750271
v 0.109468 0.552046 0.0630157
v 0.100668 0.510317 0.0591214
v 0.111997 0.546517 0.0558847
v 0.10474 0.510317 0.0504226
v -0.052648 0.684767 0.0526479
v -0.0622318 0.681318 0.0483997
v -0.043317 0.686944 0.0570226
v -0.0349975 0.693051 0.0490066
v -0.019724 0.697135 0.0476663
v -0.00697927 0.697752 0.0496135
v -0.0881512 0.510317 0.0752547
v -0.0829674 0.510317 0.0815006
v -0.0840547 0.574086 0.0980637
v -0.0820317 0.553318 0.0964959
v -0.0750272 0.553318 0.101882
v -0.0668847 0.567324 0.110202
v -0.0781881 0.568576 0.10216
v -0.08408 0.58133 0.0980637
v -0.0770249 0.58133 0.103475
v -0.0673146 0.58133 0.110454
v -0.0663284 0.595336 0.109848
v -0.077834 0.594026 0.101907
v -0.0830179 0.597821 0.0972545
v -0.0888087 0.609323 0.0888086
v -0.0862041 0.623348 0.086204
v -0.0844846 0.631035 0.0844845
v -0.0872409 0.636372 0.0763167
v -0.0805145 0.640379 0.0805144
v -0.0760892 0.650204 0.0760892
v -0.0716893 0.659876 0.0716892
v -0.0810202 0.654886 0.066126
v -0.0756088 0.664056 0.0611697
v -0.0655697 0.66922 0.0655697
v -0.0562388 0.672495 0.0701972
v -0.0617514 0.674364 0.0617513
v 0.0349975 0.693051 0.0490066
v 0.043317 0.686944 0.0570226
v 0.052648 0.684767 0.0526479
v 0.0622318 0.681318 0.0483997
v 0.0724984 0.674248 0.0490066
v 0.0867351 0.661205 0.0490066
v 0.0701973 0.672495 0.0562387
v 0.079503 0.668218 0.0490066
v 0.0944477 0.651495 0.0500939
v 0.00697927 0.697752 0.0496135
v 0.019724 0.697135 0.0476663
v 0.084611 0.658893 0.0567697
v 0.0875696 0.650667 0.06208
v 0.0849398 0.645542 0.0711834
v 0.0952317 0.63853 0.063926
v 0.0974064 0.628897 0.0691857
v 0.0937903 0.623868 0.076696
v 0.0958133 0.609323 0.0811213
v 0.0972546 0.597821 0.0830178
v 0.0980638 0.58133 0.0840799
v 0.0906547 0.593159 0.0906546
v 0.08408 0.588497 0.0980637
v 0.0910846 0.58133 0.0910845
v 0.0980638 0.574086 0.0840546
v 0.0908822 0.569424 0.0908822
v 0.0836248 0.564742 0.097735
v 0.0894915 0.553318 0.0894914
v 0.096496 0.553318 0.0820316
v 0.0881512 0.510317 0.0752547
v -0.0483997 0.681318 0.0622318
v -0.0490066 0.674248 0.0724984
v -0.0349975 0.684073 0.0663536
v -0.0349975 0.688215 0.059349
v -0.0203815 0.689333 0.0636731
v -0.00697927 0.691471 0.0630157
v -0.0752548 0.510317 0.0881511
v -0.0591215 0.510317 0.100668
v -0.0630157 0.552046 0.109468
v -0.0583123 0.555861 0.113211
v -0.0598801 0.567324 0.11402
v -0.06031 0.58133 0.114222
v -0.0593238 0.595336 0.113717
v -0.0741168 0.609323 0.101174
v -0.0575284 0.605316 0.112831
v -0.0625353 0.609708 0.108684
v -0.0811214 0.609323 0.0958132
v -0.0766961 0.623868 0.0937902
v -0.0691858 0.628897 0.0974063
v -0.0639261 0.63853 0.0952316
v -0.0763168 0.636372 0.0872408
v -0.0711835 0.645542 0.0849397
v -0.0661261 0.654886 0.0810202
v -0.0567698 0.658893 0.0846109
v -0.0611698 0.664056 0.0756087
v -0.0490066 0.668218 0.0795029
v -0.03874 0.670953 0.0825121
v 0.0349975 0.688215 0.059349
v 0.0490066 0.674248 0.0724984
v 0.0483997 0.681318 0.0622318
v 0.0349975 0.684073 0.0663536
v 0.0562388 0.672495 0.0701972
v 0.0617514 0.674364 0.0617513
v 0.0655697 0.66922 0.0655697
v 0.0716893 0.659876 0.0716892
v 0.0756088 0.664056 0.0611697
v 0.00697927 0.691471 0.0630157
v 0.0203815 0.689333 0.0636731
v 0.0810202 0.654886 0.066126
v 0.0844846 0.631035 0.0844845
v 0.0872409 0.636372 0.0763167
v 0.0760892 0.650204 0.0760892
v 0.0805145 0.640379 0.0805144
v 0.0862041 0.623348 0.086204
v 0.0888087 0.609323 0.0888086
v 0.0830179 0.597821 0.0972545
v 0.077834 0.594026 0.101907
v 0.0663284 0.595336 0.109848
v 0.0673146 0.58133 0.110454
v 0.0770249 0.58133 0.103475
v 0.08408 0.58133 0.0980637
v 0.0840547 0.574086 0.0980637
v 0.0781881 0.568576 0.10216
v 0.0668847 0.567324 0.110202
v 0.0750272 0.553318 0.101882
v 0.0820317 0.553318 0.0964959
v 0.0815007 0.510317 0.0829673
v -0.0344412 0.676425 0.0775052
v -0.0246297 0.685595 0.0687812
v -0.0152988 0.686655 0.0704248
v -0.00697927 0.687098 0.071057
v -0.0504227 0.510317 0.10474
v -0.0558847 0.546517 0.111997
v -0.0503468 0.552046 0.115739
v -0.0490066 0.567324 0.118875
v -0.0490066 0.58133 0.11933
v -0.0490066 0.595336 0.118294
v -0.0718157 0.619553 0.0994292
v -0.04974 0.609708 0.115031
v -0.0549238 0.61464 0.111592
v -0.0639261 0.623868 0.102868
v -0.0598548 0.634657 0.100517
v -0.0554801 0.644001 0.0977856
v -0.0620801 0.650667 0.0875695
v -0.050094 0.651495 0.0944477
v -0.0490066 0.661205 0.0867351
v -0.0381078 0.656254 0.0964201
v -0.0337584 0.664827 0.0905029
v -0.029409 0.672861 0.0846109
v 0.0246297 0.685595 0.0687812
v 0.0344412 0.676425 0.0775052
v 0.03874 0.670953 0.0825121
v 0.0490066 0.668218 0.0795029
v 0.0567698 0.658893 0.0846109
v 0.0611698 0.664056 0.0756087
v 0.0661261 0.654886 0.0810202
v 0.0711835 0.645542 0.0849397
v 0.00697927 0.687098 0.071057
v 0.0152988 0.686655 0.0704248
v 0.0763168 0.636372 0.0872408
v 0.0639261 0.63853 0.0952316
v 0.0691858 0.628897 0.0974063
v 0.0766961 0.623868 0.0937902
v 0.0811214 0.609323 0.0958132
v 0.0741168 0.609323 0.101174
v 0.0625353 0.609708 0.108684
v 0.0575284 0.605316 0.112831
v 0.0593238 0.595336 0.113717
v 0.06031 0.58133 0.114222
v 0.0598801 0.567324 0.11402
v 0.0583123 0.555861 0.113211
v 0.0630157 0.552046 0.109468
v 0.0591215 0.510317 0.100668
v 0.065418 0.510317 0.0957879
v 0.0752548 0.510317 0.0881511
v -0.0209884 0.673747 0.0855719
v -0.00697927 0.681723 0.0780616
v -0.0373239 0.510317 0.109822
v -0.0237194 0.510317 0.114981
v -0.0349975 0.553318 0.121707
v -0.0338596 0.567478 0.124261
v -0.035655 0.58133 0.124135
v -0.0284481 0.589248 0.126183
v -0.0338849 0.594489 0.123806
v -0.0349975 0.609323 0.120544
v -0.0455676 0.620343 0.113514
v -0.04974 0.62435 0.110303
v -0.0413699 0.629687 0.111795
v -0.050094 0.63853 0.103222
v -0.0360343 0.637566 0.109443
v -0.0461492 0.64691 0.099758
v -0.0340619 0.651495 0.101351
v -0.0287516 0.658701 0.0983419
v -0.0209884 0.666522 0.0925764
v 0.029409 0.672861 0.0846109
v 0.0381078 0.656254 0.0964201
v 0.0490066 0.661205 0.0867351
v 0.0337584 0.664827 0.0905029
v 0.050094 0.651495 0.0944477
v 0.0554801 0.644001 0.0977856
v 0.0620801 0.650667 0.0875695
v 0.00697927 0.681723 0.0780616
v 0.0209884 0.673747 0.0855719
v 0.0598548 0.634657 0.100517
v 0.0639261 0.623868 0.102868
v 0.0718157 0.619553 0.0994292
v 0.0549238 0.61464 0.111592
v 0.04974 0.609708 0.115031
v 0.0490066 0.595336 0.118294
v 0.0490066 0.58133 0.11933
v 0.0490066 0.567324 0.118875
v 0.0503468 0.552046 0.115739
v 0.0558847 0.546517 0.111997
v 0.0490066 0.510317 0.10522
v -0.00697927 0.667698 0.0936891
v -0.00697927 0.67473 0.0866845
v -0.0214688 0.510317 0.115537
v -0.0269056 0.562912 0.125905
v -0.0284228 0.572256 0.126183
v -0.0286504 0.58133 0.126234
v -0.0240734 0.598592 0.125551
v -0.0209884 0.58133 0.127346
v -0.00697927 0.58133 0.129167
v -0.00697927 0.595336 0.128206
v -0.0200275 0.594489 0.126638
v -0.0200275 0.608206 0.12411
v -0.0209884 0.623348 0.119583
v -0.0360343 0.62435 0.115588
v -0.0320389 0.633039 0.113464
v -0.0209884 0.642229 0.110808
v -0.0209884 0.65136 0.104815
v -0.0209884 0.65951 0.0990499
v 0.0209884 0.666522 0.0925764
v 0.0287516 0.658701 0.0983419
v 0.0461492 0.64691 0.099758
v 0.0340619 0.651495 0.101351
v 0.0360343 0.637566 0.109443
v 0.050094 0.63853 0.103222
v 0.00697927 0.67473 0.0866845
v 0.00697927 0.667698 0.0936891
v 0.0413699 0.629687 0.111795
v 0.04974 0.62435 0.110303
v 0.0455676 0.620343 0.113514
v 0.0349975 0.609323 0.120544
v 0.0338849 0.594489 0.123806
v 0.0284481 0.589248 0.126183
v 0.035655 0.58133 0.124135
v 0.0338596 0.567478 0.124261
v 0.0349975 0.553318 0.121707
v 0.0347699 0.510317 0.11134
v -0.00697927 0.660685 0.100061
v -0.021747 0.553549 0.124792
v -0.00842064 0.510317 0.117054
v -0.00697927 0.555591 0.127195
v -0.0175493 0.558366 0.126537
v -0.00697927 0.567324 0.128737
v -0.021747 0.567478 0.126841
v -0.0147172 0.602753 0.126158
v 0.00697927 0.567324 0.128737
v 0.00697927 0.58133 0.129142
v 0.00697927 0.595336 0.128206
v -0.00697927 0.604815 0.126638
v -0.00697927 0.611789 0.124919
v -0.00697927 0.623348 0.121379
v -0.0209884 0.635216 0.114627
v -0.0100643 0.643481 0.111542
v -0.000733329 0.644521 0.112149
v -0.00604364 0.65005 0.107749
v 0.0209884 0.65951 0.0990499
v 0.0209884 0.65136 0.104815
v 0.0209884 0.642229 0.110808
v 0.0320389 0.633039 0.113464
v 0.00697927 0.660685 0.100061
v 0.0360343 0.62435 0.115588
v 0.0209884 0.623348 0.119583
v 0.0200275 0.608206 0.12411
v 0.0240734 0.598592 0.125551
v 0.0200275 0.594489 0.126638
v 0.0209884 0.58133 0.127346
v 0.0286504 0.58133 0.126234
v 0.0284228 0.572256 0.126183
v 0.0269056 0.562912 0.125905
v 0.0214688 0.510317 0.115537
v -0.00697927 0.510317 0.117156
v 0.00697927 0.555591 0.127195
v 0.0175493 0.558366 0.126537
v 0.021747 0.567478 0.126841
v 0.0147172 0.602753 0.126158
v 0.00697927 0.604796 0.126638
v 0.00697927 0.611789 0.124919
v 0.00697927 0.623348 0.121379
v -0.00604364 0.638221 0.11488
v 0.000733329 0.644521 0.112149
v 0.00604364 0.65005 0.107749
v 0.0100643 0.643481 0.111542
v 0.0209884 0.635216 0.114627
v 0.021747 0.553549 0.124792
v 0.00697927 0.510317 0.117156
v 0.00604364 0.638221 0.11488
f 1 2 3
f 1 3 4
f 1 4 5
f 1 5 6
f 1 6 7
f 1 7 8
f 1 8 9
f 1 9 2
f 2 10 11
f 2 11 12
f 2 12 13
f 2 13 3
f 2 9 34
f 2 34 10
f 3 14 4
f 3 13 12
f 3 12 15
f 3 15 16
f 3 16 14
f 4 14 5
f 5 17 18
f 5 18 6
f 5 14 16
f 5 16 19
f 5 19 20
f 5 20 21
f 5 21 17
f 6 18 17
f 6 17 22
f 6 22 23
f 6 23 24
f 6 24 7
f 7 24 25
f 7 25 26
f 7 26 27
f 7 27 28
f 7 28 8
f 8 28 29
f 8 29 30
f 8 30 9
f 9 30 31
f 9 31 32
f 9 32 33
f 9 33 34
f 10 35 36
f 10 36 11
f 10 34 62
f 10 62 35
f 11 36 37
f 11 37 12
f 12 37 36
f 12 36 38
f 12 38 15
f 15 38 39
f 15 39 16
f 16 39 19
f 17 21 40
f 17 40 41
f 17 41 22
f 19 39 42
f 19 42 43
f 19 43 44
f 19 44 20
f 20 44 45
f 20 45 46
f 20 46 40
f 20 40 21
f 22 41 47
f 22 47 23
f 23 47 48
f 23 48 24
f 24 48 25
f 25 48 49
f 25 49 26
f 26 50 51
f 26 51 28
f 26 28 27
f 26 49 50
f 28 51 52
f 28 52 53
f 28 53 54
f 28 54 55
f 28 55 29
f 29 55 30
f 30 32 31
f 30 55 54
f 30 54 56
f 30 56 32
f 32 57 58
f 32 58 59
f 32 59 33
f 32 56 60
f 32 60 57
f 33 59 58
f 33 58 34
f 34 58 61
f 34 61 62
f 35 62 61
f 35 61 58
f 35 58 57
f 35 57 86
f 35 86 119
f 35 119 162
f 35 162 209
f 35 209 264
f 35 264 322
f 35 322 326
f 35 326 325
f 35 325 378
f 35 378 431
f 35 431 484
f 35 484 538
f 35 538 592
f 35 592 647
f 35 647 646
f 35 646 693
f 35 693 741
f 35 741 799
f 35 799 797
f 35 797 859
f 35 859 916
f 35 916 964
f 35 964 963
f 35 963 962
f 35 962 1003
f 35 1003 1039
f 35 1039 1072
f 35 1072 1087
f 35 1087 1073
f 35 1073 1042
f 35 1042 1006
f 35 1006 968
f 35 968 967
f 35 967 921
f 35 921 867
f 35 867 866
f 35 866 807
f 35 807 806
f 35 806 749
f 35 749 702
f 35 702 655
f 35 655 602
f 35 602 549
f 35 549 548
f 35 548 494
f 35 494 441
f 35 441 390
f 35 390 339
f 35 339 338
f 35 338 282
f 35 282 225
f 35 225 213
f 35 213 166
f 35 166 165
f 35 165 120
f 35 120 89
f 35 89 87
f 35 87 63
f 35 63 36
f 36 63 38
f 38 63 64
f 38 64 39
f 39 64 65
f 39 65 42
f 40 66 41
f 40 46 67
f 40 67 68
f 40 68 66
f 41 66 47
f 42 65 69
f 42 69 70
f 42 70 43
f 43 70 44
f 44 70 71
f 44 71 45
f 45 72 46
f 45 71 73
f 45 73 72
f 46 72 67
f 47 66 74
f 47 74 75
f 47 75 48
f 48 75 76
f 48 76 49
f 49 76 50
f 50 76 77
f 50 77 78
f 50 78 79
f 50 79 52
f 50 52 51
f 52 79 80
f 52 80 81
f 52 81 53
f 53 82 54
f 53 81 83
f 53 83 84
f 53 84 82
f 54 82 56
f 56 82 60
f 57 60 85
f 57 85 86
f 60 82 85
f 63 87 88
f 63 88 64
f 64 88 65
f 65 89 90
f 65 90 69
f 65 88 89
f 66 68 91
f 66 91 92
f 66 92 74
f 67 93 68
f 67 72 94
f 67 94 93
f 68 93 91
f 69 90 95
f 69 95 96
f 69 96 97
f 69 97 70
f 70 97 98
f 70 98 99
f 70 99 71
f 71 99 100
f 71 100 101
f 71 101 73
f 72 73 102
f 72 102 94
f 73 101 103
f 73 103 102
f 74 104 105
f 74 105 106
f 74 106 75
f 74 92 104
f 75 106 107
f 75 107 108
f 75 108 76
f 76 108 109
f 76 109 77
f 77 110 78
f 77 109 110
f 78 110 111
f 78 111 112
f 78 112 79
f 79 112 80
f 80 112 113
f 80 113 114
f 80 114 81
f 81 114 115
f 81 115 83
f 82 84 116
f 82 116 85
f 83 115 84
f 84 115 117
f 84 117 116
f 85 116 118
f 85 118 119
f 85 119 86
f 87 89 88
f 89 120 121
f 89 121 95
f 89 95 90
f 91 122 123
f 91 123 124
f 91 124 92
f 91 93 125
f 91 125 122
f 92 124 126
f 92 126 104
f 93 94 127
f 93 127 128
f 93 128 125
f 94 102 127
f 95 121 96
f 96 129 97
f 96 121 130
f 96 130 131
f 96 131 132
f 96 132 129
f 97 129 98
f 98 129 133
f 98 133 99
f 99 134 100
f 99 133 135
f 99 135 136
f 99 136 137
f 99 137 134
f 100 134 101
f 101 134 138
f 101 138 103
f 102 103 139
f 102 139 127
f 103 138 140
f 103 140 139
f 104 126 105
f 105 126 141
f 105 141 142
f 105 142 143
f 105 143 144
f 105 144 106
f 106 144 145
f 106 145 146
f 106 146 147
f 106 147 107
f 107 147 108
f 108 148 109
f 108 147 148
f 109 148 149
f 109 149 150
f 109 150 151
f 109 151 110
f 110 151 152
f 110 152 153
f 110 153 111
f 111 153 154
f 111 154 112
f 112 154 113
f 113 154 155
f 113 155 156
f 113 156 114
f 114 156 157
f 114 157 158
f 114 158 115
f 115 158 159
f 115 159 160
f 115 160 117
f 116 117 161
f 116 161 162
f 116 162 118
f 117 160 163
f 117 163 164
f 117 164 161
f 118 162 119
f 120 165 121
f 121 165 166
f 121 166 130
f 122 125 167
f 122 167 168
f 122 168 123
f 123 169 170
f 123 170 141
f 123 141 124
f 123 168 171
f 123 171 172
f 123 172 169
f 124 141 126
f 125 128 173
f 125 173 167
f 127 139 174
f 127 174 173
f 127 173 128
f 129 132 175
f 129 175 135
f 129 135 133
f 130 176 131
f 130 166 176
f 131 177 178
f 131 178 179
f 131 179 175
f 131 175 132
f 131 176 177
f 134 137 180
f 134 180 181
f 134 181 138
f 135 175 182
f 135 182 136
f 136 182 183
f 136 183 184
f 136 184 185
f 136 185 186
f 136 186 180
f 136 180 137
f 138 181 187
f 138 187 140
f 139 140 188
f 139 188 174
f 140 187 188
f 141 170 142
f 142 170 143
f 143 189 190
f 143 190 144
f 143 170 189
f 144 190 191
f 144 191 145
f 145 191 146
f 146 191 149
f 146 149 148
f 146 148 147
f 149 192 193
f 149 193 194
f 149 194 150
f 149 191 195
f 149 195 192
f 150 194 196
f 150 196 151
f 151 196 197
f 151 197 152
f 152 197 153
f 153 198 199
f 153 199 154
f 153 197 198
f 154 199 155
f 155 199 200
f 155 200 201
f 155 201 156
f 156 201 202
f 156 202 157
f 157 202 158
f 158 203 159
f 158 202 204
f 158 204 205
f 158 205 206
f 158 206 203
f 159 203 207
f 159 207 160
f 160 207 163
f 161 164 162
f 162 164 208
f 162 208 209
f 163 208 164
f 163 207 210
f 163 210 211
f 163 211 212
f 163 212 208
f 166 213 176
f 167 173 168
f 168 173 214
f 168 214 215
f 168 215 216
f 168 216 171
f 169 217 189
f 169 189 170
f 169 172 217
f 171 216 172
f 172 216 218
f 172 218 219
f 172 219 220
f 172 220 217
f 173 221 214
f 173 174 222
f 173 222 223
f 173 223 221
f 174 188 224
f 174 224 222
f 175 179 183
f 175 183 182
f 176 225 177
f 176 213 225
f 177 225 226
f 177 226 178
f 178 184 179
f 178 226 227
f 178 227 228
f 178 228 184
f 179 184 183
f 180 229 181
f 180 186 230
f 180 230 229
f 181 229 187
f 184 228 231
f 184 231 232
f 184 232 185
f 185 232 233
f 185 233 234
f 185 234 230
f 185 230 186
f 187 229 235
f 187 235 188
f 188 235 236
f 188 236 237
f 188 237 238
f 188 238 239
f 188 239 240
f 188 240 222
f 188 222 224
f 189 217 241
f 189 241 242
f 189 242 190
f 190 242 243
f 190 243 195
f 190 195 191
f 192 244 245
f 192 245 193
f 192 195 243
f 192 243 246
f 192 246 247
f 192 247 244
f 193 245 194
f 194 245 248
f 194 248 249
f 194 249 197
f 194 197 196
f 197 249 250
f 197 250 251
f 197 251 252
f 197 252 198
f 198 252 253
f 198 253 254
f 198 254 199
f 199 254 200
f 200 254 255
f 200 255 201
f 201 255 256
f 201 256 202
f 202 256 257
f 202 257 204
f 203 206 207
f 204 257 205
f 205 258 259
f 205 259 260
f 205 260 261
f 205 261 262
f 205 262 206
f 205 257 258
f 206 262 263
f 206 263 207
f 207 263 210
f 208 264 209
f 208 212 264
f 210 263 211
f 211 263 265
f 211 265 266
f 211 266 267
f 211 267 268
f 211 268 212
f 212 268 264
f 214 221 215
f 215 221 269
f 215 269 216
f 216 269 270
f 216 270 271
f 216 271 218
f 217 220 272
f 217 272 241
f 218 273 219
f 218 271 273
f 219 273 274
f 219 274 275
f 219 275 220
f 220 275 276
f 220 276 277
f 220 277 272
f 221 270 269
f 221 223 278
f 221 278 279
f 221 279 280
f 221 280 270
f 222 279 278
f 222 278 223
f 222 240 281
f 222 281 279
f 225 282 283
f 225 283 227
f 225 227 226
f 227 283 284
f 227 284 285
f 227 285 228
f 228 285 286
f 228 286 231
f 229 230 287
f 229 287 235
f 230 234 287
f 231 286 232
f 232 286 288
f 232 288 233
f 233 289 234
f 233 288 290
f 233 290 289
f 234 291 287
f 234 289 291
f 235 287 236
f 236 287 291
f 236 291 292
f 236 292 237
f 237 292 293
f 237 293 239
f 237 239 238
f 239 293 294
f 239 294 295
f 239 295 279
f 239 279 281
f 239 281 240
f 241 272 296
f 241 296 242
f 242 296 243
f 243 296 246
f 244 247 297
f 244 297 298
f 244 298 245
f 245 298 299
f 245 299 300
f 245 300 248
f 246 296 301
f 246 301 302
f 246 302 303
f 246 303 247
f 247 304 297
f 247 303 304
f 248 300 250
f 248 250 249
f 250 300 299
f 250 299 305
f 250 305 306
f 250 306 307
f 250 307 251
f 251 307 252
f 252 307 306
f 252 306 308
f 252 308 309
f 252 309 254
f 252 254 253
f 254 310 311
f 254 311 312
f 254 312 313
f 254 313 314
f 254 314 255
f 254 309 310
f 255 314 315
f 255 315 256
f 256 315 257
f 257 315 316
f 257 316 258
f 258 316 259
f 259 317 318
f 259 318 319
f 259 319 260
f 259 316 317
f 260 266 265
f 260 265 261
f 260 319 320
f 260 320 321
f 260 321 266
f 261 265 263
f 261 263 262
f 264 268 322
f 266 323 267
f 266 321 324
f 266 324 323
f 267 325 268
f 267 323 325
f 268 325 326
f 268 326 322
f 270 327 328
f 270 328 271
f 270 280 279
f 270 279 329
f 270 329 330
f 270 330 331
f 270 331 327
f 271 328 332
f 271 332 273
f 272 277 301
f 272 301 296
f 273 332 274
f 274 333 334
f 274 334 275
f 274 332 333
f 275 334 276
f 276 334 335
f 276 335 360
f 276 360 302
f 276 302 301
f 276 301 277
f 279 330 329
f 279 295 336
f 279 336 337
f 279 337 330
f 282 338 284
f 282 284 283
f 284 339 340
f 284 340 285
f 284 338 339
f 285 340 341
f 285 341 342
f 285 342 286
f 286 342 343
f 286 343 288
f 288 343 344
f 288 344 345
f 288 345 290
f 289 290 346
f 289 346 347
f 289 347 291
f 290 345 346
f 291 347 292
f 292 347 348
f 292 348 349
f 292 349 293
f 293 349 350
f 293 350 351
f 293 351 352
f 293 352 353
f 293 353 336
f 293 336 294
f 294 336 295
f 297 304 354
f 297 354 298
f 298 354 355
f 298 355 299
f 299 355 356
f 299 356 357
f 299 357 358
f 299 358 359
f 299 359 306
f 299 306 305
f 302 360 361
f 302 361 303
f 303 361 304
f 304 362 354
f 304 361 362
f 306 359 358
f 306 358 363
f 306 363 364
f 306 364 365
f 306 365 310
f 306 310 308
f 308 310 309
f 310 366 367
f 310 367 312
f 310 312 311
f 310 365 366
f 312 367 368
f 312 368 313
f 313 368 369
f 313 369 370
f 313 370 314
f 314 370 315
f 315 370 316
f 316 370 317
f 317 370 369
f 317 369 371
f 317 371 318
f 318 371 372
f 318 372 373
f 318 373 319
f 319 373 374
f 319 374 320
f 320 374 321
f 321 374 375
f 321 375 324
f 323 324 325
f 324 376 325
f 324 375 377
f 324 377 376
f 325 376 378
f 327 331 330
f 327 330 379
f 327 379 380
f 327 380 381
f 327 381 332
f 327 332 328
f 330 337 336
f 330 336 382
f 330 382 383
f 330 383 384
f 330 384 379
f 332 381 333
f 333 385 386
f 333 386 334
f 333 381 385
f 334 387 335
f 334 386 387
f 335 387 388
f 335 388 412
f 335 412 360
f 336 353 389
f 336 389 382
f 339 390 391
f 339 391 340
f 340 391 341
f 341 391 392
f 341 392 342
f 342 392 393
f 342 393 343
f 343 393 394
f 343 394 395
f 343 395 396
f 343 396 397
f 343 397 398
f 343 398 344
f 344 398 345
f 345 399 400
f 345 400 346
f 345 398 401
f 345 401 399
f 346 348 347
f 346 400 348
f 348 400 402
f 348 402 350
f 348 350 349
f 350 402 403
f 350 403 351
f 351 403 352
f 352 404 383
f 352 383 389
f 352 389 353
f 352 403 405
f 352 405 404
f 354 406 356
f 354 356 355
f 354 362 406
f 356 407 408
f 356 408 358
f 356 358 357
f 356 406 407
f 358 409 410
f 358 410 411
f 358 411 364
f 358 364 363
f 358 408 409
f 360 412 413
f 360 413 361
f 361 413 414
f 361 414 362
f 362 414 415
f 362 415 406
f 364 416 417
f 364 417 367
f 364 367 366
f 364 366 365
f 364 411 416
f 367 418 419
f 367 419 420
f 367 420 368
f 367 417 421
f 367 421 418
f 368 420 422
f 368 422 423
f 368 423 369
f 369 423 371
f 371 424 372
f 371 423 424
f 372 425 373
f 372 424 425
f 373 425 426
f 373 426 427
f 373 427 374
f 374 427 428
f 374 428 375
f 375 428 429
f 375 429 430
f 375 430 377
f 376 377 431
f 376 431 378
f 377 430 431
f 379 384 380
f 380 432 381
f 380 384 433
f 380 433 434
f 380 434 432
f 381 432 385
f 382 389 383
f 383 404 435
f 383 435 436
f 383 436 384
f 384 436 433
f 385 437 386
f 385 432 438
f 385 438 437
f 386 437 439
f 386 439 387
f 387 439 440
f 387 440 388
f 388 440 466
f 388 466 412
f 390 441 442
f 390 442 443
f 390 443 444
f 390 444 391
f 391 444 443
f 391 443 445
f 391 445 446
f 391 446 392
f 392 446 445
f 392 445 395
f 392 395 394
f 392 394 393
f 395 445 447
f 395 447 448
f 395 448 449
f 395 449 396
f 396 449 450
f 396 450 451
f 396 451 452
f 396 452 398
f 396 398 397
f 398 452 401
f 399 401 453
f 399 453 454
f 399 454 455
f 399 455 402
f 399 402 400
f 401 452 453
f 402 456 405
f 402 405 403
f 402 455 456
f 404 405 435
f 405 456 457
f 405 457 458
f 405 458 459
f 405 459 435
f 406 415 460
f 406 460 407
f 407 460 461
f 407 461 462
f 407 462 409
f 407 409 408
f 409 462 463
f 409 463 410
f 410 464 465
f 410 465 421
f 410 421 416
f 410 416 411
f 410 463 464
f 412 466 413
f 413 467 414
f 413 466 467
f 414 468 415
f 414 467 468
f 415 468 469
f 415 469 460
f 416 421 417
f 418 421 470
f 418 470 419
f 419 471 422
f 419 422 420
f 419 470 471
f 421 465 472
f 421 472 470
f 422 471 473
f 422 473 424
f 422 424 423
f 424 473 425
f 425 473 474
f 425 474 475
f 425 475 476
f 425 476 426
f 426 476 427
f 427 476 477
f 427 477 478
f 427 478 479
f 427 479 480
f 427 480 481
f 427 481 428
f 428 481 482
f 428 482 429
f 429 482 483
f 429 483 430
f 430 484 431
f 430 483 484
f 432 434 485
f 432 485 438
f 433 436 486
f 433 486 434
f 434 486 487
f 434 487 485
f 435 459 488
f 435 488 489
f 435 489 486
f 435 486 436
f 437 438 490
f 437 490 491
f 437 491 439
f 438 485 492
f 438 492 490
f 439 493 440
f 439 491 493
f 440 493 519
f 440 519 466
f 441 494 442
f 442 495 447
f 442 447 445
f 442 445 443
f 442 494 548
f 442 548 495
f 447 495 496
f 447 496 497
f 447 497 498
f 447 498 499
f 447 499 448
f 448 499 500
f 448 500 501
f 448 501 449
f 449 501 502
f 449 502 503
f 449 503 504
f 449 504 450
f 450 504 505
f 450 505 453
f 450 453 451
f 451 453 452
f 453 505 506
f 453 506 454
f 454 506 563
f 454 563 507
f 454 507 508
f 454 508 455
f 455 508 509
f 455 509 456
f 456 509 457
f 457 509 507
f 457 507 510
f 457 510 458
f 458 511 512
f 458 512 459
f 458 510 511
f 459 512 488
f 460 469 513
f 460 513 461
f 461 514 515
f 461 515 462
f 461 513 514
f 462 515 463
f 463 515 464
f 464 516 517
f 464 517 472
f 464 472 465
f 464 515 518
f 464 518 516
f 466 519 467
f 467 519 520
f 467 520 468
f 468 521 469
f 468 520 521
f 469 522 513
f 469 521 522
f 470 472 471
f 471 472 523
f 471 523 524
f 471 524 474
f 471 474 473
f 472 525 526
f 472 526 523
f 472 517 525
f 474 527 528
f 474 528 475
f 474 524 527
f 475 528 529
f 475 529 476
f 476 529 478
f 476 478 477
f 478 530 531
f 478 531 479
f 478 529 532
f 478 532 530
f 479 531 533
f 479 533 482
f 479 482 480
f 480 482 481
f 482 533 534
f 482 534 483
f 483 535 484
f 483 534 533
f 483 533 536
f 483 536 535
f 484 535 536
f 484 536 537
f 484 537 538
f 485 539 492
f 485 487 540
f 485 540 539
f 486 489 487
f 487 489 540
f 488 512 541
f 488 541 542
f 488 542 489
f 489 543 540
f 489 542 543
f 490 544 545
f 490 545 491
f 490 492 544
f 491 545 493
f 492 546 544
f 492 539 546
f 493 545 547
f 493 547 572
f 493 572 519
f 495 548 549
f 495 549 496
f 496 550 497
f 496 549 550
f 497 550 549
f 497 549 551
f 497 551 552
f 497 552 499
f 497 499 498
f 499 552 553
f 499 553 554
f 499 554 500
f 500 554 501
f 501 553 555
f 501 555 556
f 501 556 557
f 501 557 503
f 501 503 502
f 501 554 553
f 503 557 558
f 503 558 559
f 503 559 504
f 504 559 505
f 505 559 560
f 505 560 506
f 506 560 561
f 506 561 562
f 506 562 563
f 507 563 564
f 507 564 511
f 507 511 510
f 507 509 508
f 511 564 565
f 511 565 512
f 512 565 595
f 512 595 541
f 513 522 566
f 513 566 567
f 513 567 514
f 514 567 518
f 514 518 515
f 516 568 569
f 516 569 570
f 516 570 517
f 516 518 568
f 517 570 525
f 518 567 571
f 518 571 568
f 519 572 573
f 519 573 520
f 520 573 521
f 521 573 574
f 521 574 522
f 522 574 575
f 522 575 566
f 523 526 576
f 523 576 524
f 524 577 527
f 524 576 577
f 525 570 578
f 525 578 579
f 525 579 526
f 526 579 580
f 526 580 576
f 527 577 580
f 527 580 631
f 527 631 581
f 527 581 582
f 527 582 528
f 528 582 532
f 528 532 529
f 530 532 583
f 530 583 584
f 530 584 585
f 530 585 586
f 530 586 587
f 530 587 531
f 531 588 533
f 531 587 589
f 531 589 590
f 531 590 588
f 532 582 583
f 533 588 591
f 533 591 537
f 533 537 536
f 537 591 592
f 537 592 538
f 539 593 600
f 539 600 546
f 539 540 594
f 539 594 593
f 540 543 597
f 540 597 594
f 541 595 596
f 541 596 542
f 542 596 597
f 542 597 543
f 544 598 599
f 544 599 545
f 544 546 600
f 544 600 598
f 545 599 601
f 545 601 547
f 547 601 626
f 547 626 572
f 549 602 551
f 551 602 603
f 551 603 604
f 551 604 552
f 552 604 553
f 553 604 555
f 555 604 605
f 555 605 606
f 555 606 607
f 555 607 556
f 556 558 557
f 556 607 608
f 556 608 609
f 556 609 558
f 558 609 610
f 558 610 611
f 558 611 560
f 558 560 559
f 560 611 612
f 560 612 561
f 561 612 613
f 561 613 614
f 561 614 562
f 562 614 563
f 563 614 615
f 563 615 616
f 563 616 564
f 564 617 565
f 564 616 617
f 565 617 618
f 565 618 619
f 565 619 595
f 566 575 629
f 566 629 620
f 566 620 621
f 566 621 567
f 567 621 625
f 567 625 571
f 568 622 623
f 568 623 569
f 568 571 625
f 568 625 622
f 569 623 624
f 569 624 570
f 570 624 630
f 570 630 578
f 572 626 627
f 572 627 573
f 573 627 628
f 573 628 574
f 574 628 629
f 574 629 575
f 576 580 577
f 578 630 631
f 578 631 580
f 578 580 579
f 581 631 632
f 581 632 633
f 581 633 634
f 581 634 582
f 582 584 583
f 582 634 635
f 582 635 584
f 584 635 585
f 585 635 636
f 585 636 637
f 585 637 587
f 585 587 586
f 587 638 589
f 587 637 639
f 587 639 640
f 587 640 641
f 587 641 638
f 588 590 642
f 588 642 643
f 588 643 644
f 588 644 591
f 589 638 590
f 590 638 641
f 590 641 645
f 590 645 643
f 590 643 642
f 591 644 646
f 591 646 647
f 591 647 592
f 593 648 649
f 593 649 600
f 593 594 648
f 594 597 650
f 594 650 651
f 594 651 648
f 595 619 596
f 596 619 650
f 596 650 597
f 598 652 599
f 598 600 649
f 598 649 652
f 599 652 653
f 599 653 654
f 599 654 601
f 601 654 676
f 601 676 626
f 602 655 656
f 602 656 603
f 603 656 657
f 603 657 604
f 604 657 605
f 605 657 658
f 605 658 659
f 605 659 606
f 606 659 607
f 607 659 660
f 607 660 608
f 608 660 661
f 608 661 662
f 608 662 609
f 609 662 610
f 610 662 663
f 610 663 664
f 610 664 611
f 611 664 612
f 612 664 665
f 612 665 666
f 612 666 667
f 612 667 613
f 613 615 614
f 613 667 615
f 615 667 617
f 615 617 616
f 617 667 618
f 618 667 668
f 618 668 619
f 619 668 650
f 620 629 669
f 620 669 670
f 620 670 621
f 621 671 672
f 621 672 625
f 621 670 671
f 622 673 623
f 622 625 672
f 622 672 673
f 623 673 624
f 624 674 675
f 624 675 630
f 624 673 674
f 626 676 627
f 627 677 678
f 627 678 628
f 627 676 677
f 628 678 669
f 628 669 629
f 630 675 679
f 630 679 631
f 631 679 680
f 631 680 681
f 631 681 632
f 632 681 633
f 633 681 682
f 633 682 683
f 633 683 634
f 634 636 635
f 634 683 684
f 634 684 636
f 636 684 685
f 636 685 686
f 636 686 639
f 636 639 637
f 639 686 687
f 639 687 688
f 639 688 640
f 640 689 690
f 640 690 691
f 640 691 641
f 640 688 689
f 641 691 645
f 643 645 692
f 643 692 693
f 643 693 646
f 643 646 694
f 643 694 644
f 644 694 646
f 645 691 692
f 648 695 696
f 648 696 649
f 648 651 697
f 648 697 695
f 649 696 652
f 650 698 651
f 650 668 698
f 651 698 697
f 652 699 653
f 652 696 699
f 653 700 654
f 653 699 700
f 654 700 701
f 654 701 727
f 654 727 676
f 655 702 656
f 656 702 657
f 657 702 703
f 657 703 658
f 658 703 704
f 658 704 705
f 658 705 706
f 658 706 659
f 659 706 707
f 659 707 708
f 659 708 660
f 660 708 709
f 660 709 710
f 660 710 661
f 661 710 711
f 661 711 712
f 661 712 662
f 662 712 663
f 663 712 713
f 663 713 664
f 664 713 714
f 664 714 665
f 665 714 715
f 665 715 716
f 665 716 666
f 666 716 717
f 666 717 667
f 667 717 718
f 667 718 668
f 668 718 719
f 668 719 720
f 668 720 698
f 669 678 721
f 669 721 670
f 670 721 722
f 670 722 723
f 670 723 671
f 671 723 724
f 671 724 672
f 672 724 725
f 672 725 673
f 673 725 674
f 674 726 675
f 674 725 726
f 675 726 680
f 675 680 679
f 676 727 728
f 676 728 677
f 677 729 678
f 677 728 729
f 678 729 721
f 680 682 681
f 680 726 682
f 682 726 683
f 683 726 730
f 683 730 731
f 683 731 732
f 683 732 684
f 684 732 685
f 685 732 733
f 685 733 734
f 685 734 686
f 686 734 687
f 687 734 735
f 687 735 736
f 687 736 688
f 688 736 737
f 688 737 689
f 689 737 690
f 690 737 738
f 690 738 739
f 690 739 691
f 691 739 740
f 691 740 692
f 692 740 693
f 693 740 741
f 695 697 742
f 695 742 743
f 695 743 744
f 695 744 696
f 696 744 699
f 697 698 745
f 697 745 742
f 698 720 745
f 699 744 746
f 699 746 700
f 700 747 701
f 700 746 747
f 701 747 748
f 701 748 780
f 701 780 727
f 702 749 750
f 702 750 704
f 702 704 703
f 704 750 705
f 705 751 706
f 705 750 752
f 705 752 753
f 705 753 754
f 705 754 751
f 706 751 707
f 707 751 755
f 707 755 708
f 708 755 756
f 708 756 757
f 708 757 758
f 708 758 759
f 708 759 709
f 709 759 710
f 710 759 760
f 710 760 711
f 711 760 761
f 711 761 762
f 711 762 712
f 712 762 713
f 713 762 763
f 713 763 715
f 713 715 714
f 715 763 764
f 715 764 765
f 715 765 766
f 715 766 767
f 715 767 717
f 715 717 716
f 717 767 768
f 717 768 719
f 717 719 718
f 719 768 769
f 719 769 770
f 719 770 771
f 719 771 720
f 720 771 745
f 721 729 772
f 721 772 722
f 722 773 774
f 722 774 723
f 722 772 773
f 723 775 724
f 723 774 775
f 724 775 776
f 724 776 725
f 725 776 777
f 725 777 778
f 725 778 726
f 726 778 779
f 726 779 730
f 727 780 781
f 727 781 728
f 728 781 782
f 728 782 729
f 729 782 772
f 730 779 783
f 730 783 731
f 731 784 732
f 731 783 785
f 731 785 784
f 732 784 786
f 732 786 733
f 733 787 734
f 733 786 787
f 734 787 735
f 735 787 788
f 735 788 789
f 735 789 736
f 736 789 790
f 736 790 791
f 736 791 737
f 737 791 792
f 737 792 793
f 737 793 738
f 738 793 794
f 738 794 795
f 738 795 796
f 738 796 739
f 739 796 797
f 739 797 798
f 739 798 740
f 740 798 799
f 740 799 741
f 742 800 743
f 742 745 771
f 742 771 801
f 742 801 800
f 743 802 803
f 743 803 744
f 743 800 802
f 744 803 746
f 746 803 804
f 746 804 747
f 747 804 805
f 747 805 748
f 748 805 840
f 748 840 780
f 749 806 750
f 750 806 807
f 750 807 752
f 751 754 808
f 751 808 756
f 751 756 755
f 752 807 809
f 752 809 753
f 753 809 810
f 753 810 811
f 753 811 812
f 753 812 808
f 753 808 754
f 756 808 813
f 756 813 757
f 757 813 814
f 757 814 815
f 757 815 816
f 757 816 817
f 757 817 818
f 757 818 758
f 758 818 759
f 759 818 819
f 759 819 760
f 760 819 820
f 760 820 761
f 761 820 821
f 761 821 762
f 762 821 763
f 763 821 822
f 763 822 764
f 764 822 821
f 764 821 823
f 764 823 824
f 764 824 825
f 764 825 826
f 764 826 765
f 765 826 766
f 766 768 767
f 766 826 825
f 766 825 827
f 766 827 770
f 766 770 769
f 766 769 768
f 770 827 825
f 770 825 828
f 770 828 829
f 770 829 830
f 770 830 800
f 770 800 801
f 770 801 771
f 772 782 831
f 772 831 773
f 773 832 833
f 773 833 774
f 773 831 832
f 774 833 834
f 774 834 835
f 774 835 775
f 775 835 776
f 776 835 777
f 777 836 779
f 777 779 778
f 777 835 837
f 777 837 838
f 777 838 836
f 779 836 839
f 779 839 785
f 779 785 783
f 780 840 781
f 781 841 782
f 781 840 841
f 782 841 831
f 784 785 786
f 785 839 842
f 785 842 843
f 785 843 844
f 785 844 845
f 785 845 786
f 786 845 846
f 786 846 787
f 787 846 788
f 788 846 847
f 788 847 848
f 788 848 789
f 789 848 849
f 789 849 790
f 790 849 791
f 791 850 792
f 791 849 851
f 791 851 852
f 791 852 853
f 791 853 850
f 792 850 854
f 792 854 793
f 793 854 794
f 794 854 855
f 794 855 856
f 794 856 857
f 794 857 858
f 794 858 795
f 795 858 797
f 795 797 796
f 797 858 859
f 797 799 798
f 800 830 829
f 800 829 860
f 800 860 802
f 802 860 861
f 802 861 862
f 802 862 863
f 802 863 803
f 803 863 804
f 804 864 865
f 804 865 805
f 804 863 864
f 805 865 896
f 805 896 840
f 807 866 809
f 808 812 814
f 808 814 813
f 809 866 867
f 809 867 810
f 810 867 868
f 810 868 811
f 811 868 869
f 811 869 870
f 811 870 815
f 811 815 812
f 812 815 814
f 815 870 871
f 815 871 872
f 815 872 816
f 816 873 817
f 816 872 874
f 816 874 875
f 816 875 873
f 817 873 818
f 818 873 876
f 818 876 819
f 819 876 820
f 820 876 877
f 820 877 821
f 821 877 878
f 821 878 879
f 821 879 880
f 821 880 881
f 821 881 823
f 823 881 824
f 824 881 825
f 825 881 882
f 825 882 883
f 825 883 884
f 825 884 829
f 825 829 828
f 829 883 885
f 829 885 886
f 829 886 861
f 829 861 860
f 829 884 883
f 831 841 887
f 831 887 832
f 832 888 889
f 832 889 833
f 832 887 890
f 832 890 888
f 833 891 892
f 833 892 837
f 833 837 834
f 833 889 891
f 834 837 835
f 836 838 842
f 836 842 839
f 837 893 894
f 837 894 895
f 837 895 842
f 837 842 838
f 837 892 891
f 837 891 893
f 840 896 841
f 841 896 897
f 841 897 887
f 842 895 894
f 842 894 898
f 842 898 843
f 843 898 844
f 844 899 900
f 844 900 845
f 844 898 894
f 844 894 901
f 844 901 902
f 844 902 899
f 845 900 899
f 845 899 846
f 846 899 847
f 847 899 903
f 847 903 848
f 848 903 904
f 848 904 849
f 849 904 905
f 849 905 851
f 850 853 854
f 851 905 852
f 852 905 906
f 852 906 907
f 852 907 908
f 852 908 909
f 852 909 910
f 852 910 853
f 853 910 911
f 853 911 854
f 854 911 855
f 855 911 856
f 856 911 912
f 856 912 913
f 856 913 914
f 856 914 915
f 856 915 857
f 857 915 916
f 857 916 858
f 858 916 859
f 861 886 917
f 861 917 862
f 862 917 918
f 862 918 863
f 863 918 864
f 864 919 865
f 864 918 919
f 865 919 920
f 865 920 947
f 865 947 896
f 867 921 922
f 867 922 869
f 867 869 868
f 869 922 923
f 869 923 924
f 869 924 870
f 870 924 925
f 870 925 871
f 871 925 872
f 872 925 926
f 872 926 874
f 873 875 927
f 873 927 876
f 874 926 928
f 874 928 929
f 874 929 875
f 875 930 927
f 875 929 930
f 876 927 877
f 877 927 878
f 878 927 930
f 878 930 931
f 878 931 879
f 879 881 880
f 879 931 932
f 879 932 881
f 881 932 933
f 881 933 882
f 882 933 883
f 883 932 934
f 883 934 935
f 883 935 885
f 883 933 932
f 885 935 886
f 886 935 936
f 886 936 937
f 886 937 938
f 886 938 917
f 887 939 890
f 887 897 939
f 888 891 889
f 888 890 940
f 888 940 941
f 888 941 891
f 890 939 940
f 891 941 942
f 891 942 943
f 891 943 944
f 891 944 894
f 891 894 893
f 894 944 943
f 894 943 945
f 894 945 946
f 894 946 901
f 896 947 948
f 896 948 897
f 897 948 939
f 899 902 946
f 899 946 949
f 899 949 950
f 899 950 951
f 899 951 952
f 899 952 903
f 901 946 902
f 903 952 953
f 903 953 904
f 904 953 905
f 905 953 954
f 905 954 906
f 906 954 907
f 907 954 955
f 907 955 956
f 907 956 957
f 907 957 908
f 908 957 958
f 908 958 959
f 908 959 913
f 908 913 912
f 908 912 909
f 909 912 911
f 909 911 910
f 913 959 960
f 913 960 961
f 913 961 914
f 914 961 962
f 914 962 915
f 915 962 963
f 915 963 964
f 915 964 916
f 917 938 918
f 918 938 919
f 919 965 966
f 919 966 920
f 919 938 965
f 920 966 991
f 920 991 947
f 921 967 923
f 921 923 922
f 923 967 968
f 923 968 969
f 923 969 924
f 924 969 970
f 924 970 971
f 924 971 925
f 925 971 972
f 925 972 926
f 926 972 973
f 926 973 974
f 926 974 928
f 928 975 929
f 928 974 975
f 929 975 976
f 929 976 930
f 930 976 931
f 931 976 977
f 931 977 978
f 931 978 932
f 932 978 979
f 932 979 980
f 932 980 936
f 932 936 934
f 934 936 935
f 936 980 981
f 936 981 982
f 936 982 937
f 937 982 938
f 938 982 983
f 938 983 965
f 939 984 940
f 939 948 984
f 940 984 941
f 941 985 986
f 941 986 942
f 941 984 987
f 941 987 985
f 942 986 943
f 943 986 988
f 943 988 989
f 943 989 990
f 943 990 945
f 945 990 946
f 946 990 989
f 946 989 950
f 946 950 949
f 947 991 948
f 948 991 992
f 948 992 984
f 950 993 951
f 950 989 993
f 951 993 994
f 951 994 995
f 951 995 952
f 952 995 953
f 953 995 954
f 954 995 955
f 955 994 996
f 955 996 956
f 955 995 994
f 956 996 997
f 956 997 998
f 956 998 957
f 957 998 999
f 957 999 958
f 958 999 959
f 959 999 1000
f 959 1000 960
f 960 962 961
f 960 1000 1001
f 960 1001 1002
f 960 1002 962
f 962 1002 1003
f 965 983 1004
f 965 1004 1005
f 965 1005 966
f 966 1005 1028
f 966 1028 991
f 968 1006 1007
f 968 1007 969
f 969 1007 970
f 970 1007 1008
f 970 1008 971
f 971 1008 1009
f 971 1009 972
f 972 1010 973
f 972 1009 1011
f 972 1011 1012
f 972 1012 1013
f 972 1013 1014
f 972 1014 1010
f 973 1010 974
f 974 1010 1015
f 974 1015 1016
f 974 1016 1017
f 974 1017 975
f 975 1017 977
f 975 977 976
f 977 1017 1018
f 977 1018 979
f 977 979 978
f 979 1018 981
f 979 981 980
f 981 1018 982
f 982 1018 1019
f 982 1019 1020
f 982 1020 1021
f 982 1021 983
f 983 1021 1004
f 984 992 1022
f 984 1022 1023
f 984 1023 987
f 985 1024 989
f 985 989 988
f 985 988 986
f 985 987 1023
f 985 1023 1025
f 985 1025 1024
f 989 1024 1026
f 989 1026 1027
f 989 1027 993
f 991 1028 992
f 992 1028 1029
f 992 1029 1022
f 993 1027 1030
f 993 1030 1031
f 993 1031 994
f 994 1031 996
f 996 1031 1032
f 996 1032 997
f 997 1032 1033
f 997 1033 998
f 998 1033 1034
f 998 1034 1035
f 998 1035 999
f 999 1035 1036
f 999 1036 1000
f 1000 1036 1037
f 1000 1037 1038
f 1000 1038 1001
f 1001 1038 1039
f 1001 1039 1002
f 1002 1039 1003
f 1004 1021 1040
f 1004 1040 1062
f 1004 1062 1029
f 1004 1029 1028
f 1004 1028 1005
f 1006 1041 1007
f 1006 1042 1043
f 1006 1043 1044
f 1006 1044 1041
f 1007 1041 1044
f 1007 1044 1045
f 1007 1045 1046
f 1007 1046 1008
f 1008 1046 1045
f 1008 1045 1012
f 1008 1012 1011
f 1008 1011 1009
f 1010 1014 1013
f 1010 1013 1047
f 1010 1047 1015
f 1012 1045 1048
f 1012 1048 1049
f 1012 1049 1050
f 1012 1050 1013
f 1013 1051 1047
f 1013 1050 1051
f 1015 1047 1052
f 1015 1052 1016
f 1016 1052 1053
f 1016 1053 1054
f 1016 1054 1018
f 1016 1018 1017
f 1018 1054 1019
f 1019 1054 1055
f 1019 1055 1020
f 1020 1055 1056
f 1020 1056 1057
f 1020 1057 1021
f 1021 1057 1040
f 1022 1029 1058
f 1022 1058 1023
f 1023 1058 1059
f 1023 1059 1060
f 1023 1060 1061
f 1023 1061 1025
f 1024 1025 1026
f 1025 1061 1026
f 1026 1030 1027
f 1026 1061 1030
f 1029 1062 1058
f 1030 1061 1063
f 1030 1063 1032
f 1030 1032 1031
f 1032 1063 1033
f 1033 1064 1065
f 1033 1065 1066
f 1033 1066 1034
f 1033 1063 1064
f 1034 1066 1035
f 1035 1066 1067
f 1035 1067 1050
f 1035 1050 1049
f 1035 1049 1068
f 1035 1068 1069
f 1035 1069 1036
f 1036 1069 1070
f 1036 1070 1037
f 1037 1070 1071
f 1037 1071 1038
f 1038 1071 1072
f 1038 1072 1039
f 1040 1057 1056
f 1040 1056 1082
f 1040 1082 1062
f 1042 1073 1043
f 1043 1045 1044
f 1043 1073 1087
f 1043 1087 1074
f 1043 1074 1048
f 1043 1048 1045
f 1047 1051 1052
f 1048 1074 1075
f 1048 1075 1071
f 1048 1071 1076
f 1048 1076 1070
f 1048 1070 1049
f 1049 1070 1068
f 1050 1067 1066
f 1050 1066 1077
f 1050 1077 1078
f 1050 1078 1051
f 1051 1078 1079
f 1051 1079 1052
f 1052 1079 1080
f 1052 1080 1053
f 1053 1080 1082
f 1053 1082 1056
f 1053 1056 1081
f 1053 1081 1054
f 1054 1081 1055
f 1055 1081 1056
f 1058 1062 1083
f 1058 1083 1059
f 1059 1083 1082
f 1059 1082 1084
f 1059 1084 1060
f 1060 1084 1085
f 1060 1085 1061
f 1061 1085 1064
f 1061 1064 1063
f 1062 1082 1083
f 1064 1085 1080
f 1064 1080 1079
f 1064 1079 1065
f 1065 1079 1077
f 1065 1077 1066
f 1068 1070 1069
f 1070 1076 1071
f 1071 1075 1086
f 1071 1086 1072
f 1072 1086 1075
f 1072 1075 1074
f 1072 1074 1087
f 1077 1079 1078
f 1080 1088 1082
f 1080 1085 1088
f 1082 1088 1084
f 1084 1088 1085
