v -0.00507261 -0.764368 -0.324917
v -0.00507261 -0.748936 -0.324917
v 1.59e-05 -0.764368 -0.324917
v -0.00335524 -0.772758 -0.324599
v -0.0695059 -0.764368 -0.316458
v -0.00335524 -0.740391 -0.324599
v 1.59e-05 -0.748936 -0.324917
v -0.0695059 -0.748936 -0.316458
v 1.59e-05 -0.772758 -0.324599
v 0.0050408 -0.764362 -0.324917
v -0.00818932 -0.775885 -0.317857
v -0.0540495 -0.776326 -0.313405
v -0.0695059 -0.77607 -0.312641
v -0.0849622 -0.774709 -0.310924
v -0.0944396 -0.773116 -0.309461
v -0.0849622 -0.764368 -0.313214
v -0.0695059 -0.734489 -0.312641
v -0.00806211 -0.73027 -0.317921
v 1.59e-05 -0.725461 -0.314804
v 0.00332343 -0.740391 -0.324599
v 0.0050408 -0.748942 -0.324917
v -0.0849622 -0.748936 -0.313214
v -0.0944396 -0.73989 -0.309461
v -0.0849622 -0.737276 -0.310924
v 0.00332343 -0.772752 -0.324599
v 0.00815752 -0.775885 -0.317857
v 0.0694741 -0.764362 -0.316458
v -0.0540495 -0.780575 -0.301001
v -0.0695059 -0.780313 -0.301001
v 1.59e-05 -0.780587 -0.301001
v -0.0849622 -0.77897 -0.301001
v -0.115811 -0.77567 -0.297185
v -0.0953301 -0.764368 -0.309906
v -0.127451 -0.774023 -0.294895
v -0.14666 -0.764368 -0.288407
v -0.129423 -0.764368 -0.295786
v -0.0695059 -0.73027 -0.310097
v 0.00783949 -0.725461 -0.314804
v -0.0849622 -0.73027 -0.306662
v -0.0872521 -0.73027 -0.305835
v -0.103981 -0.73027 -0.299411
v -0.117783 -0.73027 -0.293814
v -0.124716 -0.73027 -0.290952
v -0.149332 -0.73027 -0.280647
v -0.159 -0.73027 -0.275495
v -0.162816 -0.73027 -0.273078
v -0.165488 -0.73027 -0.271234
v -0.174266 -0.73027 -0.265064
v -0.311083 -0.719624 -1.59231e-05
v 0.00815752 -0.734549 -0.320465
v 0.0566892 -0.725461 -0.309016
v 0.0694741 -0.734489 -0.312641
v 0.0694741 -0.748942 -0.316458
v -0.0953301 -0.748936 -0.309906
v -0.129423 -0.748936 -0.295786
v -0.14666 -0.748936 -0.288598
v -0.127451 -0.738446 -0.294895
v 0.0849304 -0.774721 -0.310924
v 0.0694741 -0.776076 -0.312641
v 0.0540813 -0.776338 -0.313405
v 0.0694741 -0.780313 -0.301001
v 0.0540813 -0.780587 -0.301001
v 0.0849304 -0.764362 -0.313214
v 0.0944078 -0.773116 -0.309461
v -0.100355 -0.780575 -0.285545
v -0.14666 -0.780378 -0.270216
v -0.115811 -0.779913 -0.285545
v -0.301033 -0.780587 -1.59231e-05
v -0.162117 -0.780575 -0.254696
v -0.131268 -0.780575 -0.270216
v -0.14666 -0.77613 -0.283064
v -0.158873 -0.774644 -0.280329
v -0.161099 -0.764368 -0.281601
v -0.20327 -0.719624 -1.59231e-05
v -0.147169 -0.732568 -0.283001
v -0.158873 -0.737103 -0.280329
v -0.163198 -0.732568 -0.274541
v -0.176683 -0.734346 -0.266209
v -0.186224 -0.740069 -0.263219
v -0.182534 -0.73027 -0.25883
v -0.211475 -0.73027 -0.236632
v -0.222797 -0.73027 -0.2269
v -0.224896 -0.73027 -0.224865
v -0.226932 -0.73027 -0.222765
v -0.2366 -0.73027 -0.211444
v -0.258798 -0.73027 -0.182503
v -0.265032 -0.73027 -0.174234
v -0.273046 -0.73027 -0.162721
v -0.275527 -0.73027 -0.158968
v -0.280615 -0.73027 -0.149237
v -0.290856 -0.73027 -0.124621
v -0.293718 -0.73027 -0.117688
v -0.29569 -0.73027 -0.112854
v -0.300906 -0.73027 -0.100005
v -0.306694 -0.73027 -0.0848668
v -0.310129 -0.73027 -0.0694105
v -0.317825 -0.73027 -0.00796672
v -0.312037 -0.721003 -1.59231e-05
v -0.311083 -0.719624 0.00774406
v 0.06076 -0.725461 -0.308443
v 0.0694741 -0.726773 -0.308062
v 0.0849304 -0.73727 -0.310924
v 0.0944078 -0.73989 -0.309461
v 0.0849304 -0.748942 -0.313214
v -0.161099 -0.748936 -0.281601
v 0.115843 -0.77567 -0.297185
v 0.0849304 -0.778958 -0.301001
v 0.115843 -0.779913 -0.285545
v 0.146692 -0.780372 -0.270216
v 0.100387 -0.780587 -0.285545
v 0.0953619 -0.764362 -0.309906
v 0.129391 -0.764362 -0.295786
v 0.146692 -0.764362 -0.288407
v 0.127483 -0.774023 -0.294895
v -0.208422 -0.780456 -0.223847
v -0.192966 -0.779931 -0.23924
v -0.17751 -0.779131 -0.254696
v -0.163198 -0.777019 -0.271297
v -0.301033 -0.780587 0.0540495
v -0.317762 -0.775891 -1.59231e-05
v -0.301033 -0.780575 -0.0539541
v -0.285577 -0.780575 -0.100323
v -0.270184 -0.780575 -0.131172
v -0.254728 -0.780575 -0.162021
v -0.17751 -0.774882 -0.266463
v -0.186224 -0.772985 -0.263219
v -0.168795 -0.764368 -0.277085
v -0.168795 -0.748936 -0.277213
v 1.59e-05 -0.719624 0.20327
v 0.222702 -0.725461 -0.222702
v 0.214815 -0.725461 -0.230271
v 0.171435 -0.725461 -0.263601
v 0.161958 -0.725461 -0.269898
v 0.151717 -0.725461 -0.276386
v 0.147901 -0.725461 -0.278039
v 0.110818 -0.725461 -0.293559
v 0.10026 -0.725461 -0.297694
v 0.0848032 -0.725461 -0.303418
v 0.0694741 -0.725461 -0.307108
v -0.186732 -0.748936 -0.263601
v -0.222225 -0.748936 -0.23625
v -0.203207 -0.738374 -0.248971
v -0.220189 -0.736793 -0.234724
v -0.225532 -0.731649 -0.225501
v -0.234692 -0.736793 -0.220158
v -0.239907 -0.732436 -0.209281
v -0.24894 -0.738374 -0.203175
v -0.263187 -0.740069 -0.186128
v -0.26624 -0.734346 -0.176651
v -0.274509 -0.732568 -0.163166
v -0.280361 -0.737103 -0.158777
v -0.282969 -0.732568 -0.147074
v -0.294927 -0.738446 -0.12742
v -0.309493 -0.73989 -0.0943442
v -0.310956 -0.737276 -0.0848668
v -0.312546 -0.734489 -0.0694105
v -0.324631 -0.740391 -0.00325985
v -0.320497 -0.734543 -0.00809393
v -0.312037 -0.721003 0.00774406
v -0.310192 -0.72379 0.0385932
v -0.30803 -0.719624 0.0315328
v 0.0849304 -0.729554 -0.306217
v 0.0953619 -0.748942 -0.309906
v 0.11966 -0.728152 -0.291651
v 0.127483 -0.73844 -0.294895
v 0.146692 -0.748942 -0.288598
v 0.129391 -0.748942 -0.295786
v 0.158905 -0.77465 -0.280329
v 0.146692 -0.77613 -0.283064
v 0.131236 -0.780587 -0.270216
v 0.16323 -0.777025 -0.271297
v 0.177541 -0.779131 -0.254696
v 0.192934 -0.779937 -0.23924
v 0.20839 -0.780456 -0.223847
v 0.162085 -0.780587 -0.254696
v 0.161131 -0.764362 -0.281601
v -0.223815 -0.780456 -0.208327
v -0.224705 -0.776971 -0.224674
v -0.208359 -0.776571 -0.239558
v -0.192012 -0.775509 -0.254314
v -0.285577 -0.780587 0.100355
v -0.301033 -0.780313 0.0694423
v -0.317762 -0.775891 0.0081893
v -0.324631 -0.772758 -0.00325985
v -0.317762 -0.775885 -0.00809393
v -0.301033 -0.780313 -0.0694105
v -0.270184 -0.780378 -0.146629
v -0.203207 -0.774059 -0.248971
v -0.222225 -0.764368 -0.23625
v -0.186732 -0.764368 -0.263601
v 1.59e-05 -0.719624 0.311083
v 0.314868 -0.725461 -0.0077759
v 0.313532 -0.725461 -0.0192887
v 0.309843 -0.725461 -0.0500105
v 0.30838 -0.725461 -0.0615233
v 0.307171 -0.725461 -0.0694105
v 0.303418 -0.725461 -0.084676
v 0.300047 -0.725461 -0.093899
v 0.294386 -0.725461 -0.108846
v 0.276449 -0.725461 -0.151654
v 0.275114 -0.725461 -0.153943
v 0.269961 -0.725461 -0.161894
v 0.264491 -0.725461 -0.170163
v 0.263601 -0.725461 -0.171372
v 0.230335 -0.725461 -0.214751
v 0.229063 -0.725461 -0.216278
v 0.225501 -0.731649 -0.225501
v 0.215324 -0.726505 -0.230907
v 0.198277 -0.728074 -0.245155
v 0.186192 -0.740075 -0.263219
v 0.176651 -0.734352 -0.266209
v 0.16323 -0.732574 -0.274541
v 0.152608 -0.726803 -0.277022
v -0.229921 -0.748936 -0.229889
v -0.236282 -0.748936 -0.222129
v -0.263569 -0.748936 -0.186637
v -0.270566 -0.748936 -0.177478
v -0.277117 -0.748936 -0.1687
v -0.243978 -0.748936 -0.212143
v -0.281633 -0.748936 -0.161004
v -0.288566 -0.748936 -0.146629
v -0.309874 -0.748936 -0.0952983
v -0.313182 -0.748936 -0.0848668
v -0.295754 -0.748936 -0.129328
v -0.316362 -0.748936 -0.0694105
v -0.324886 -0.748936 -0.00497722
v -0.324758 -0.743882 -1.59231e-05
v -0.324631 -0.740391 0.00335522
v -0.320497 -0.734543 0.0081893
v -0.309366 -0.724912 0.0508692
v -0.304977 -0.719624 0.0548128
v 0.147201 -0.732574 -0.283001
v 0.158905 -0.737103 -0.280329
v 0.161131 -0.748942 -0.281601
v 0.168764 -0.764362 -0.277085
v 0.186192 -0.772985 -0.263219
v 0.177541 -0.774882 -0.266463
v 0.19198 -0.775509 -0.254314
v 0.20839 -0.776571 -0.239558
v 0.224737 -0.776977 -0.224674
v 0.223847 -0.780456 -0.208327
v 0.254696 -0.780587 -0.162021
v 0.168764 -0.748942 -0.277213
v -0.239271 -0.779931 -0.192934
v -0.239589 -0.776571 -0.208327
v -0.234692 -0.774745 -0.220158
v -0.220189 -0.774745 -0.234724
v -0.270184 -0.780587 0.131268
v -0.270184 -0.780378 0.14666
v -0.285577 -0.779913 0.115811
v -0.301033 -0.77897 0.0848986
v -0.312546 -0.77607 0.0694423
v -0.313373 -0.776326 0.0540495
v -0.324631 -0.772758 0.00335522
v -0.324886 -0.764368 -0.00497722
v -0.316362 -0.764368 -0.0694105
v -0.310956 -0.774709 -0.0848668
v -0.312546 -0.77607 -0.0694105
v -0.313373 -0.776326 -0.0539541
v -0.301033 -0.77897 -0.0848668
v -0.285577 -0.779913 -0.115716
v -0.283096 -0.77613 -0.146629
v -0.271329 -0.777019 -0.163166
v -0.254728 -0.779131 -0.177478
v -0.229921 -0.764368 -0.229889
v -0.00774408 -0.719624 0.311083
v 1.59e-05 -0.721003 0.312101
v 0.00790309 -0.726785 0.315599
v 0.0177621 -0.726785 0.314518
v 0.0481659 -0.726785 0.310828
v 0.0603148 -0.726785 0.309302
v 0.0695377 -0.726785 0.30803
v 0.0848668 -0.726785 0.304341
v 0.0910366 -0.726785 0.302114
v 0.107574 -0.726785 0.295754
v 0.110564 -0.726785 0.294545
v 0.152608 -0.726785 0.277054
v 0.162212 -0.726785 0.27082
v 0.168891 -0.726785 0.266368
v 0.172198 -0.726785 0.264014
v 0.215069 -0.726785 0.231321
v 0.215896 -0.726785 0.230557
v 0.223338 -0.726785 0.22337
v 0.230589 -0.726785 0.215864
v 0.231289 -0.726785 0.214974
v 0.264046 -0.726785 0.17223
v 0.270788 -0.726785 0.16218
v 0.277085 -0.726785 0.152576
v 0.314868 -0.725461 -1.59231e-05
v 0.324663 -0.740391 -0.00325985
v 0.320528 -0.734549 -0.00809393
v 0.308698 -0.72589 -0.0610781
v 0.308125 -0.726773 -0.0694105
v 0.306281 -0.729554 -0.0848668
v 0.309525 -0.73989 -0.0943442
v 0.291715 -0.728152 -0.119596
v 0.277085 -0.726803 -0.152544
v 0.274541 -0.732574 -0.163166
v 0.266272 -0.734352 -0.176651
v 0.259403 -0.729781 -0.181231
v 0.245155 -0.728074 -0.198213
v 0.230907 -0.726505 -0.215324
v 0.220221 -0.736799 -0.234724
v 0.23466 -0.736799 -0.220158
v 0.209281 -0.732436 -0.239939
v 0.203175 -0.738368 -0.248971
v 0.186701 -0.748942 -0.263601
v 0.177541 -0.748942 -0.270598
v 0.222193 -0.748942 -0.23625
v 0.212207 -0.748942 -0.243946
v -0.236282 -0.764368 -0.222129
v -0.263569 -0.764368 -0.186637
v -0.277117 -0.764368 -0.1687
v -0.243978 -0.764368 -0.212143
v -0.281633 -0.764368 -0.161004
v -0.288439 -0.764368 -0.146629
v -0.295754 -0.764368 -0.129328
v -0.309874 -0.764368 -0.0952983
v -0.313182 -0.764368 -0.0848668
v -0.324886 -0.748936 0.00500898
v -0.316362 -0.748936 0.0694423
v -0.310956 -0.737276 0.0848986
v -0.312546 -0.734489 0.0694423
v -0.308093 -0.726773 0.0694423
v -0.308666 -0.725896 0.0611098
v -0.302941 -0.719624 0.0694423
v 0.186701 -0.764362 -0.263601
v 0.212207 -0.764362 -0.243946
v 0.222193 -0.764362 -0.23625
v 0.229953 -0.764362 -0.229889
v 0.203175 -0.774065 -0.248971
v 0.220221 -0.774751 -0.234724
v 0.23466 -0.774751 -0.220158
v 0.239621 -0.776571 -0.208327
v 0.239303 -0.779937 -0.192934
v 0.270152 -0.780372 -0.146629
v 0.285609 -0.780587 -0.100323
v -0.254346 -0.775509 -0.191916
v -0.24894 -0.774059 -0.203175
v -0.254728 -0.780587 0.162117
v -0.271329 -0.777013 0.163198
v -0.283096 -0.776136 0.14666
v -0.223815 -0.780456 0.208359
v -0.239271 -0.779943 0.192966
v -0.254728 -0.779125 0.17751
v -0.297153 -0.77567 0.115811
v -0.310956 -0.774709 0.0848986
v -0.324886 -0.764368 0.00500898
v -0.316362 -0.764368 0.0694423
v -0.309493 -0.773116 -0.0943442
v -0.294927 -0.774023 -0.12742
v -0.297153 -0.77567 -0.115716
v -0.280361 -0.774644 -0.158777
v -0.266431 -0.774882 -0.177478
v -0.0315965 -0.719624 0.30803
v -0.00774408 -0.721003 0.312101
v 0.00332343 -0.740391 0.324567
v 0.00815752 -0.734543 0.320497
v 0.0694741 -0.734495 0.312609
v 0.0849304 -0.73727 0.311019
v 0.0849304 -0.729554 0.306249
v 0.0944078 -0.73989 0.309429
v 0.127483 -0.73844 0.294991
v 0.11966 -0.728152 0.291683
v 0.147201 -0.732568 0.282969
v 0.158905 -0.737103 0.280425
v 0.16323 -0.732568 0.274573
v 0.176651 -0.734352 0.26624
v 0.18123 -0.729775 0.259371
v 0.198277 -0.72808 0.245123
v 0.220221 -0.736793 0.234755
v 0.225501 -0.731649 0.225532
v 0.23466 -0.736793 0.220126
v 0.239939 -0.732436 0.209249
v 0.245155 -0.72808 0.198245
v 0.259403 -0.729775 0.181262
v 0.266272 -0.734352 0.176683
v 0.274541 -0.732568 0.163198
v 0.277085 -0.726809 0.152639
v 0.292669 -0.726785 0.115175
v 0.294513 -0.726785 0.110532
v 0.298584 -0.726785 0.100228
v 0.304309 -0.726785 0.0847714
v 0.308125 -0.726785 0.0694423
v 0.309334 -0.726785 0.0602829
v 0.315694 -0.726785 0.00793488
v 0.324663 -0.740391 0.00335522
v 0.324917 -0.748942 -0.00497722
v 0.316394 -0.748942 -0.0694105
v 0.310988 -0.73727 -0.0848668
v 0.312641 -0.734489 -0.0694105
v 0.313214 -0.748942 -0.0848668
v 0.309906 -0.748942 -0.0952983
v 0.295786 -0.748942 -0.129328
v 0.288534 -0.748942 -0.146629
v 0.294959 -0.73844 -0.12742
v 0.283001 -0.732574 -0.147074
v 0.280393 -0.737103 -0.158777
v 0.263219 -0.740075 -0.186128
v 0.239939 -0.732436 -0.209281
v 0.229953 -0.748942 -0.229889
v 0.236314 -0.748942 -0.222129
v 0.248908 -0.738368 -0.203175
v -0.263187 -0.772985 -0.186128
v -0.313182 -0.748936 0.0848986
v -0.309493 -0.73989 0.0944396
v -0.306249 -0.729548 0.0848986
v -0.299379 -0.719624 0.084517
v 0.236314 -0.764362 -0.222129
v 0.263219 -0.772985 -0.186128
v 0.248908 -0.774065 -0.203175
v 0.254314 -0.775509 -0.191916
v 0.266463 -0.774882 -0.177478
v 0.271361 -0.777025 -0.163166
v 0.254696 -0.779131 -0.177478
v 0.283064 -0.77613 -0.146629
v 0.285609 -0.779913 -0.115716
v 0.301065 -0.780313 -0.0694105
v 0.301065 -0.780587 -0.0539541
v -0.162117 -0.780587 0.254664
v -0.208422 -0.780456 0.223879
v -0.239589 -0.776571 0.208295
v -0.254346 -0.775503 0.192012
v -0.266431 -0.774882 0.17751
v -0.280361 -0.774638 0.158873
v -0.294927 -0.774023 0.127451
v -0.224705 -0.776971 0.224769
v -0.309493 -0.773122 0.0944396
v -0.313182 -0.764368 0.0848986
v -0.0548128 -0.719624 0.304977
v -0.0508692 -0.724912 0.309429
v -0.0385932 -0.72379 0.310192
v -0.00818932 -0.734543 0.320497
v -0.00335524 -0.740391 0.324567
v 1.59e-05 -0.748936 0.324886
v 0.0050408 -0.748942 0.324886
v 0.0694741 -0.748942 0.316426
v 0.0849304 -0.748942 0.313182
v 0.0953619 -0.748942 0.309874
v 0.129391 -0.748942 0.295754
v 0.146692 -0.748942 0.288566
v 0.161131 -0.748942 0.281697
v 0.168764 -0.748942 0.277181
v 0.186192 -0.740069 0.263187
v 0.192234 -0.734072 0.254155
v 0.222193 -0.748942 0.236218
v 0.229953 -0.748942 0.229921
v 0.236314 -0.748942 0.222225
v 0.263219 -0.740069 0.186224
v 0.254187 -0.734072 0.192266
v 0.280393 -0.737103 0.158873
v 0.283001 -0.732568 0.147169
v 0.294959 -0.73844 0.127451
v 0.291715 -0.728152 0.119691
v 0.309525 -0.73989 0.0944396
v 0.306281 -0.729554 0.0848986
v 0.310988 -0.737276 0.0848986
v 0.312641 -0.734495 0.0694423
v 0.320528 -0.734543 0.0081893
v 0.324917 -0.748942 0.00500898
v 0.316394 -0.748942 0.0694423
v 0.324917 -0.764362 -0.00497722
v 0.316394 -0.764362 -0.0694105
v 0.313214 -0.764362 -0.0848668
v 0.309906 -0.764362 -0.0952983
v 0.295786 -0.764362 -0.129328
v 0.288471 -0.764362 -0.146629
v 0.281665 -0.764362 -0.161004
v 0.281665 -0.748942 -0.161004
v 0.277213 -0.748942 -0.1687
v 0.270534 -0.748942 -0.177478
v 0.263537 -0.748942 -0.186637
v 0.24401 -0.748942 -0.212143
v -0.309874 -0.748936 0.0953301
v -0.295754 -0.748936 0.129423
v -0.288566 -0.748936 0.14666
v -0.294927 -0.738434 0.127451
v -0.291683 -0.72814 0.119691
v -0.293909 -0.725031 0.109387
v -0.29569 -0.722584 0.100355
v -0.296962 -0.719624 0.091132
v 0.24401 -0.764362 -0.212143
v 0.263537 -0.764362 -0.186637
v 0.270534 -0.764362 -0.177478
v 0.277149 -0.764362 -0.1687
v 0.280393 -0.77465 -0.158777
v 0.297249 -0.77567 -0.115716
v 0.301065 -0.778958 -0.0848668
v 0.312641 -0.776076 -0.0694105
v 0.313405 -0.776338 -0.0539541
v 0.317857 -0.775885 -0.00809393
v 0.301065 -0.780587 0.0540495
v -0.100355 -0.780587 0.28564
v -0.14666 -0.780378 0.270184
v -0.192966 -0.779943 0.239335
v -0.234692 -0.774739 0.220126
v -0.24894 -0.774059 0.203143
v -0.263187 -0.772979 0.186224
v -0.277117 -0.764368 0.168795
v -0.281633 -0.764368 0.161099
v -0.288439 -0.764368 0.14666
v -0.208359 -0.776571 0.239653
v -0.220189 -0.774739 0.234755
v -0.295754 -0.764368 0.129423
v -0.309874 -0.764368 0.0953301
v -0.0695059 -0.719624 0.303005
v -0.0611734 -0.725896 0.308666
v -0.0695059 -0.734489 0.312609
v -0.0849622 -0.737264 0.311019
v -0.0695059 -0.748936 0.316426
v -0.00507261 -0.748936 0.324886
v 0.0050408 -0.764362 0.324886
v 0.0694741 -0.764362 0.316426
v 0.0849304 -0.764362 0.313182
v 0.0953619 -0.764362 0.309874
v 0.129391 -0.764362 0.295754
v 0.146692 -0.764362 0.288439
v 0.161131 -0.764362 0.281697
v 0.168764 -0.764362 0.277117
v 0.177541 -0.748942 0.270566
v 0.186701 -0.748942 0.263569
v 0.212207 -0.748942 0.244042
v 0.222193 -0.764362 0.236218
v 0.229953 -0.764362 0.229921
v 0.236314 -0.764362 0.222225
v 0.24401 -0.748942 0.212239
v 0.263537 -0.748942 0.186732
v 0.277213 -0.748942 0.168795
v 0.281665 -0.748942 0.161099
v 0.288534 -0.748942 0.14666
v 0.309906 -0.748942 0.0953301
v 0.313214 -0.748942 0.0848986
v 0.295786 -0.748942 0.129423
v 0.324917 -0.764362 0.00500898
v 0.316394 -0.764362 0.0694423
v 0.324663 -0.772752 -0.00325985
v 0.310988 -0.774721 -0.0848668
v 0.309525 -0.773116 -0.0943442
v 0.294959 -0.774023 -0.12742
v -0.281633 -0.748936 0.161099
v -0.280361 -0.737097 0.158873
v -0.282969 -0.732568 0.147169
v -0.277054 -0.726809 0.152639
v -0.27928 -0.723879 0.142335
v -0.277817 -0.719624 0.137946
v -0.291683 -0.719624 0.104617
v -0.294673 -0.719624 0.0973019
v 0.317857 -0.775885 0.0081893
v 0.301065 -0.780313 0.0694423
v 0.285609 -0.780587 0.100355
v -0.0540495 -0.780587 0.301033
v -0.0695059 -0.780313 0.301033
v -0.14666 -0.776136 0.283096
v -0.163198 -0.777013 0.271393
v -0.17751 -0.779125 0.254664
v -0.115811 -0.779913 0.28564
v -0.229921 -0.764368 0.229921
v -0.236282 -0.764368 0.222225
v -0.243978 -0.764368 0.212239
v -0.263569 -0.764368 0.186732
v -0.270566 -0.748936 0.17751
v -0.277117 -0.748936 0.168795
v -0.192012 -0.775503 0.254346
v -0.203207 -0.774059 0.248939
v -0.084517 -0.719624 0.299379
v -0.0849622 -0.729548 0.306249
v -0.0695059 -0.726773 0.30803
v -0.0944396 -0.73989 0.309429
v -0.0849622 -0.748936 0.313182
v -0.0695059 -0.764368 0.316426
v -0.00507261 -0.764368 0.324886
v 1.59e-05 -0.764368 0.324886
v 1.59e-05 -0.769333 0.324758
v 0.00332343 -0.772752 0.324567
v 0.0849304 -0.774721 0.311019
v 0.0944078 -0.773116 0.309429
v 0.127483 -0.774023 0.294991
v 0.158905 -0.774644 0.280425
v 0.186192 -0.772985 0.263187
v 0.186701 -0.764362 0.263569
v 0.212207 -0.764362 0.244042
v 0.203175 -0.774059 0.248939
v 0.220221 -0.774745 0.234755
v 0.23466 -0.774745 0.220126
v 0.248908 -0.774059 0.203143
v 0.263219 -0.772985 0.186224
v 0.24401 -0.764362 0.212239
v 0.263537 -0.764362 0.186732
v 0.277149 -0.764362 0.168795
v 0.281665 -0.764362 0.161099
v 0.288471 -0.764362 0.14666
v 0.295786 -0.764362 0.129423
v 0.309906 -0.764362 0.0953301
v 0.313214 -0.764362 0.0848986
v 0.324663 -0.772752 0.00335522
v 0.309525 -0.77311 0.0944396
v 0.310988 -0.774721 0.0848986
v -0.263187 -0.740069 0.186224
v -0.26624 -0.734346 0.176683
v -0.274509 -0.732568 0.163198
v -0.266749 -0.719624 0.160081
v -0.273492 -0.719624 0.147933
v 0.313405 -0.776332 0.0540495
v 0.301065 -0.778964 0.0848986
v 0.285609 -0.779907 0.115811
v 0.270152 -0.780372 0.14666
v 0.312641 -0.77607 0.0694423
v 0.270152 -0.780587 0.131268
v -0.00818932 -0.775891 0.317825
v 0.0540813 -0.780587 0.301033
v -0.0540495 -0.776326 0.313436
v -0.0695059 -0.77607 0.312609
v -0.0849622 -0.77897 0.301033
v -0.158873 -0.774638 0.280425
v -0.115811 -0.77567 0.297153
v -0.127451 -0.774023 0.294991
v -0.17751 -0.774882 0.266431
v -0.229921 -0.748936 0.229921
v -0.186224 -0.772979 0.263187
v -0.222225 -0.764368 0.236218
v -0.236282 -0.748936 0.222225
v -0.243978 -0.748936 0.212239
v -0.263569 -0.748936 0.186732
v -0.0911321 -0.719624 0.296962
v -0.100355 -0.722584 0.295754
v -0.109387 -0.725031 0.293846
v -0.119691 -0.72814 0.291683
v -0.127451 -0.738434 0.294991
v -0.14666 -0.748936 0.288566
v -0.129423 -0.748936 0.295754
v -0.0953301 -0.748936 0.309874
v -0.0849622 -0.764368 0.313182
v -0.00335524 -0.772758 0.324567
v -0.0944396 -0.773122 0.309429
v -0.0849622 -0.774709 0.311019
v 1.59e-05 -0.772758 0.324567
v 1.59e-05 -0.773653 0.322659
v 0.00815752 -0.775885 0.317825
v 0.0540813 -0.776332 0.313436
v 0.0694741 -0.77607 0.312609
v 0.0849304 -0.778964 0.301033
v 0.115843 -0.775664 0.297153
v 0.16323 -0.777025 0.271393
v 0.177541 -0.774888 0.266431
v 0.146692 -0.77613 0.283096
v 0.19198 -0.775509 0.254346
v 0.224737 -0.776977 0.224769
v 0.20839 -0.776571 0.239653
v 0.239621 -0.776571 0.208295
v 0.254314 -0.775509 0.192012
v 0.266463 -0.774888 0.17751
v 0.280393 -0.774644 0.158873
v 0.294959 -0.774023 0.127451
v 0.297249 -0.775664 0.115811
v -0.234692 -0.736793 0.220126
v -0.24894 -0.738374 0.203143
v -0.230875 -0.726493 0.215355
v -0.254155 -0.734077 0.192266
v -0.263378 -0.724691 0.171022
v -0.259371 -0.729781 0.181262
v -0.265477 -0.719624 0.16199
v 0.283064 -0.77613 0.14666
v 0.271361 -0.777025 0.163198
v 0.254696 -0.779131 0.17751
v 0.239303 -0.779937 0.192966
v 0.223847 -0.78045 0.208359
v 0.254696 -0.780587 0.162117
v 1.59e-05 -0.775891 0.317825
v 0.100387 -0.780587 0.28564
v 0.0694741 -0.780313 0.301033
v -0.14666 -0.764368 0.288439
v -0.161099 -0.764368 0.281697
v -0.168795 -0.764368 0.277117
v -0.222225 -0.748936 0.236218
v -0.220189 -0.736793 0.234755
v -0.186732 -0.764368 0.263569
v -0.212175 -0.764368 0.244042
v -0.0973019 -0.719624 0.294672
v -0.137946 -0.719624 0.27788
v -0.142335 -0.723879 0.279343
v -0.152639 -0.726809 0.277054
v -0.147169 -0.732568 0.282969
v -0.158873 -0.737097 0.280425
v -0.129423 -0.764368 0.295754
v -0.161099 -0.748936 0.281697
v -0.0953301 -0.764368 0.309874
v 0.115843 -0.779913 0.28564
v 0.146692 -0.780372 0.270184
v 0.177541 -0.779131 0.254664
v 0.192934 -0.779937 0.239335
v 0.20839 -0.78045 0.223879
v -0.225532 -0.731649 0.225532
v -0.220062 -0.719624 0.220126
v -0.22725 -0.719624 0.212048
v -0.233801 -0.719624 0.203588
v -0.255173 -0.719624 0.175792
v -0.261088 -0.719624 0.168032
v 0.162085 -0.780587 0.254664
v -0.168795 -0.748936 0.277181
v -0.212175 -0.748936 0.244042
v -0.186224 -0.740069 0.263187
v -0.203207 -0.738374 0.248939
v -0.215292 -0.726493 0.230939
v -0.186732 -0.748936 0.263569
v -0.146088 -0.719624 0.274318
v -0.147933 -0.719624 0.273492
v -0.160908 -0.719624 0.266177
v -0.16199 -0.719624 0.265477
v -0.163198 -0.732568 0.274573
v -0.212111 -0.719624 0.227186
v -0.192266 -0.734077 0.254155
v -0.176683 -0.734346 0.26624
v -0.205051 -0.722011 0.234819
v -0.207277 -0.719624 0.230939
v -0.181262 -0.729781 0.259371
v -0.171022 -0.724691 0.263378
v -0.168032 -0.719624 0.261088
f 1 2 7
f 1 7 21
f 1 21 10
f 1 10 3
f 1 3 9
f 1 9 4
f 1 4 5
f 1 5 8
f 1 8 2
f 2 6 20
f 2 20 7
f 2 8 6
f 3 10 9
f 4 9 26
f 4 26 11
f 4 11 12
f 4 12 13
f 4 13 14
f 4 14 5
f 5 14 15
f 5 15 16
f 5 16 22
f 5 22 8
f 6 8 17
f 6 17 18
f 6 18 19
f 6 19 38
f 6 38 20
f 7 20 21
f 8 22 23
f 8 23 24
f 8 24 17
f 9 10 25
f 9 25 26
f 10 21 53
f 10 53 27
f 10 27 25
f 11 28 29
f 11 29 12
f 11 26 62
f 11 62 30
f 11 30 28
f 12 29 13
f 13 29 31
f 13 31 14
f 14 31 32
f 14 32 15
f 15 33 16
f 15 32 34
f 15 34 35
f 15 35 36
f 15 36 33
f 16 33 54
f 16 54 22
f 17 37 18
f 17 24 37
f 18 37 19
f 19 37 39
f 19 39 40
f 19 40 41
f 19 41 42
f 19 42 43
f 19 43 44
f 19 44 45
f 19 45 46
f 19 46 47
f 19 47 48
f 19 48 49
f 19 49 74
f 19 74 38
f 20 38 50
f 20 50 51
f 20 51 52
f 20 52 53
f 20 53 21
f 22 54 23
f 23 40 39
f 23 39 24
f 23 54 55
f 23 55 56
f 23 56 57
f 23 57 43
f 23 43 42
f 23 42 41
f 23 41 40
f 24 39 37
f 25 27 58
f 25 58 59
f 25 59 60
f 25 60 26
f 26 60 61
f 26 61 62
f 27 53 104
f 27 104 63
f 27 63 64
f 27 64 58
f 28 65 29
f 28 30 65
f 29 65 66
f 29 66 67
f 29 67 31
f 30 62 110
f 30 110 170
f 30 170 175
f 30 175 242
f 30 242 337
f 30 337 419
f 30 419 492
f 30 492 550
f 30 550 608
f 30 608 667
f 30 667 698
f 30 698 669
f 30 669 610
f 30 610 551
f 30 551 493
f 30 493 420
f 30 420 340
f 30 340 248
f 30 248 181
f 30 181 119
f 30 119 68
f 30 68 69
f 30 69 70
f 30 70 65
f 31 67 71
f 31 71 32
f 32 71 72
f 32 72 34
f 33 36 55
f 33 55 54
f 34 72 35
f 35 72 73
f 35 73 56
f 35 56 36
f 36 56 55
f 38 51 50
f 38 74 51
f 43 57 75
f 43 75 44
f 44 75 76
f 44 76 45
f 45 76 77
f 45 77 46
f 46 77 47
f 47 77 48
f 48 77 78
f 48 78 79
f 48 79 80
f 48 80 49
f 49 80 81
f 49 81 82
f 49 82 83
f 49 83 84
f 49 84 85
f 49 85 86
f 49 86 87
f 49 87 88
f 49 88 89
f 49 89 90
f 49 90 91
f 49 91 92
f 49 92 93
f 49 93 94
f 49 94 95
f 49 95 96
f 49 96 97
f 49 97 98
f 49 98 159
f 49 159 99
f 49 99 161
f 49 161 231
f 49 231 326
f 49 326 408
f 49 408 481
f 49 481 547
f 49 547 546
f 49 546 545
f 49 545 602
f 49 602 601
f 49 601 661
f 49 661 697
f 49 697 696
f 49 696 695
f 49 695 694
f 49 694 693
f 49 693 710
f 49 710 714
f 49 714 717
f 49 717 708
f 49 708 707
f 49 707 706
f 49 706 705
f 49 705 679
f 49 679 678
f 49 678 624
f 49 624 565
f 49 565 506
f 49 506 430
f 49 430 355
f 49 355 266
f 49 266 191
f 49 191 129
f 49 129 74
f 51 100 101
f 51 101 52
f 51 74 100
f 52 101 102
f 52 102 53
f 53 102 103
f 53 103 104
f 56 73 105
f 56 105 76
f 56 76 57
f 57 76 75
f 58 64 106
f 58 106 107
f 58 107 59
f 59 107 61
f 59 61 60
f 61 107 108
f 61 108 109
f 61 109 110
f 61 110 62
f 63 104 163
f 63 163 111
f 63 111 64
f 64 111 112
f 64 112 113
f 64 113 114
f 64 114 106
f 65 70 66
f 66 69 115
f 66 115 116
f 66 116 117
f 66 117 118
f 66 118 71
f 66 71 67
f 66 70 69
f 68 119 183
f 68 183 120
f 68 120 121
f 68 121 122
f 68 122 123
f 68 123 124
f 68 124 69
f 69 124 115
f 71 118 72
f 72 118 125
f 72 125 126
f 72 126 127
f 72 127 73
f 73 127 128
f 73 128 105
f 74 129 130
f 74 130 131
f 74 131 132
f 74 132 133
f 74 133 134
f 74 134 135
f 74 135 136
f 74 136 137
f 74 137 138
f 74 138 139
f 74 139 100
f 76 105 128
f 76 128 79
f 76 79 77
f 77 79 78
f 79 140 141
f 79 141 142
f 79 142 80
f 79 128 140
f 80 142 81
f 81 142 143
f 81 143 82
f 82 143 144
f 82 144 83
f 83 144 84
f 84 144 145
f 84 145 85
f 85 145 146
f 85 146 86
f 86 146 147
f 86 147 148
f 86 148 149
f 86 149 87
f 87 149 150
f 87 150 88
f 88 150 89
f 89 150 151
f 89 151 90
f 90 151 152
f 90 152 153
f 90 153 91
f 91 153 92
f 92 153 154
f 92 154 93
f 93 154 94
f 94 154 95
f 95 154 155
f 95 155 96
f 96 155 156
f 96 156 157
f 96 157 158
f 96 158 97
f 97 158 157
f 97 157 98
f 98 157 228
f 98 228 159
f 99 159 160
f 99 160 161
f 100 139 101
f 101 139 138
f 101 138 162
f 101 162 102
f 102 162 103
f 103 163 104
f 103 162 137
f 103 137 136
f 103 136 164
f 103 164 165
f 103 165 166
f 103 166 167
f 103 167 163
f 106 114 168
f 106 168 169
f 106 169 108
f 106 108 107
f 108 169 109
f 109 170 110
f 109 169 171
f 109 171 172
f 109 172 173
f 109 173 174
f 109 174 175
f 109 175 170
f 111 163 167
f 111 167 112
f 112 167 166
f 112 166 113
f 113 166 176
f 113 176 168
f 113 168 114
f 115 124 177
f 115 177 178
f 115 178 116
f 116 178 179
f 116 179 117
f 117 179 118
f 118 179 180
f 118 180 125
f 119 181 182
f 119 182 183
f 120 183 254
f 120 254 184
f 120 184 185
f 120 185 121
f 121 186 122
f 121 185 186
f 122 186 187
f 122 187 123
f 123 187 124
f 124 187 177
f 125 180 188
f 125 188 126
f 126 188 189
f 126 189 190
f 126 190 127
f 127 190 128
f 128 190 140
f 129 191 289
f 129 289 192
f 129 192 193
f 129 193 194
f 129 194 195
f 129 195 196
f 129 196 197
f 129 197 198
f 129 198 199
f 129 199 200
f 129 200 201
f 129 201 202
f 129 202 203
f 129 203 204
f 129 204 205
f 129 205 206
f 129 206 130
f 130 206 207
f 130 207 208
f 130 208 131
f 131 208 132
f 132 208 209
f 132 209 210
f 132 210 211
f 132 211 212
f 132 212 133
f 133 212 213
f 133 213 134
f 134 213 135
f 135 213 136
f 136 213 164
f 137 162 138
f 140 190 189
f 140 189 141
f 141 143 142
f 141 189 265
f 141 265 214
f 141 214 143
f 143 214 145
f 143 145 144
f 145 215 147
f 145 147 146
f 145 214 215
f 147 215 148
f 148 216 217
f 148 217 218
f 148 218 151
f 148 151 149
f 148 215 219
f 148 219 216
f 149 151 150
f 151 220 221
f 151 221 153
f 151 153 152
f 151 218 220
f 153 221 154
f 154 222 223
f 154 223 155
f 154 221 224
f 154 224 222
f 155 223 225
f 155 225 157
f 155 157 156
f 157 226 227
f 157 227 228
f 157 225 226
f 159 228 229
f 159 229 160
f 160 229 230
f 160 230 231
f 160 231 161
f 164 213 232
f 164 232 165
f 165 232 233
f 165 233 166
f 166 233 234
f 166 234 176
f 168 176 235
f 168 235 236
f 168 236 237
f 168 237 171
f 168 171 169
f 171 237 238
f 171 238 239
f 171 239 172
f 172 239 173
f 173 239 240
f 173 240 174
f 174 240 241
f 174 241 242
f 174 242 175
f 176 234 243
f 176 243 235
f 177 187 244
f 177 244 178
f 178 244 245
f 178 245 246
f 178 246 247
f 178 247 179
f 179 247 180
f 180 247 188
f 181 248 249
f 181 249 182
f 182 249 250
f 182 250 251
f 182 251 252
f 182 252 253
f 182 253 183
f 183 253 254
f 184 254 348
f 184 348 255
f 184 255 256
f 184 256 257
f 184 257 258
f 184 258 259
f 184 259 185
f 185 259 186
f 186 260 261
f 186 261 187
f 186 259 258
f 186 258 260
f 187 262 263
f 187 263 264
f 187 264 244
f 187 261 262
f 188 247 265
f 188 265 189
f 191 266 356
f 191 356 267
f 191 267 268
f 191 268 269
f 191 269 270
f 191 270 271
f 191 271 272
f 191 272 273
f 191 273 274
f 191 274 275
f 191 275 276
f 191 276 277
f 191 277 278
f 191 278 279
f 191 279 280
f 191 280 281
f 191 281 282
f 191 282 283
f 191 283 284
f 191 284 285
f 191 285 286
f 191 286 287
f 191 287 288
f 191 288 289
f 192 289 387
f 192 387 290
f 192 290 291
f 192 291 193
f 193 291 194
f 194 292 195
f 194 291 290
f 194 290 292
f 195 292 293
f 195 293 196
f 196 293 197
f 197 294 198
f 197 293 294
f 198 294 199
f 199 294 295
f 199 295 296
f 199 296 297
f 199 297 200
f 200 297 201
f 201 297 202
f 202 297 298
f 202 298 203
f 203 298 299
f 203 299 204
f 204 299 300
f 204 300 301
f 204 301 302
f 204 302 205
f 205 302 206
f 206 302 207
f 207 303 208
f 207 302 304
f 207 304 303
f 208 303 305
f 208 305 209
f 209 305 306
f 209 306 210
f 210 307 308
f 210 308 243
f 210 243 233
f 210 233 212
f 210 212 211
f 210 306 303
f 210 303 309
f 210 309 310
f 210 310 307
f 212 233 213
f 213 233 232
f 214 265 311
f 214 311 215
f 215 311 314
f 215 314 219
f 216 219 314
f 216 314 312
f 216 312 217
f 217 312 313
f 217 313 218
f 218 313 315
f 218 315 220
f 220 315 221
f 221 316 317
f 221 317 224
f 221 315 316
f 222 224 317
f 222 317 318
f 222 318 319
f 222 319 223
f 223 319 256
f 223 256 225
f 225 256 255
f 225 255 226
f 226 255 348
f 226 348 320
f 226 320 227
f 227 320 228
f 228 320 321
f 228 321 322
f 228 322 323
f 228 323 324
f 228 324 325
f 228 325 230
f 228 230 229
f 230 325 231
f 231 325 326
f 233 243 234
f 235 243 327
f 235 327 236
f 236 327 328
f 236 328 329
f 236 329 330
f 236 330 331
f 236 331 237
f 237 331 238
f 238 331 332
f 238 332 239
f 239 332 240
f 240 332 333
f 240 333 334
f 240 334 335
f 240 335 241
f 241 335 336
f 241 336 242
f 242 336 337
f 243 308 327
f 244 264 245
f 245 264 263
f 245 263 338
f 245 338 246
f 246 265 247
f 246 338 339
f 246 339 265
f 248 340 249
f 249 341 342
f 249 342 250
f 249 340 343
f 249 343 344
f 249 344 345
f 249 345 341
f 250 342 251
f 251 346 347
f 251 347 252
f 251 342 346
f 252 347 254
f 252 254 253
f 254 347 349
f 254 349 348
f 256 319 350
f 256 350 257
f 257 350 351
f 257 351 352
f 257 352 260
f 257 260 258
f 260 352 262
f 260 262 261
f 262 353 263
f 262 352 351
f 262 351 353
f 263 354 338
f 263 353 354
f 265 339 311
f 266 355 356
f 267 357 268
f 267 356 434
f 267 434 357
f 268 357 358
f 268 358 269
f 269 358 270
f 270 358 271
f 271 359 272
f 271 358 357
f 271 357 359
f 272 359 360
f 272 360 361
f 272 361 273
f 273 361 274
f 274 361 362
f 274 362 275
f 275 362 276
f 276 362 363
f 276 363 364
f 276 364 277
f 277 364 363
f 277 363 365
f 277 365 366
f 277 366 367
f 277 367 278
f 278 367 279
f 279 367 280
f 280 367 368
f 280 368 369
f 280 369 370
f 280 370 281
f 281 371 282
f 281 370 371
f 282 371 372
f 282 372 283
f 283 372 284
f 284 372 373
f 284 373 285
f 285 373 374
f 285 374 375
f 285 375 286
f 286 375 376
f 286 376 377
f 286 377 378
f 286 378 287
f 287 378 379
f 287 379 288
f 288 379 380
f 288 380 289
f 289 380 381
f 289 381 382
f 289 382 383
f 289 383 384
f 289 384 385
f 289 385 386
f 289 386 387
f 290 387 460
f 290 460 388
f 290 388 389
f 290 389 390
f 290 390 391
f 290 391 292
f 292 391 293
f 293 391 390
f 293 390 294
f 294 390 295
f 295 390 392
f 295 392 393
f 295 393 394
f 295 394 395
f 295 395 396
f 295 396 296
f 296 396 297
f 297 396 397
f 297 397 398
f 297 398 298
f 298 398 299
f 299 398 399
f 299 399 400
f 299 400 300
f 300 400 301
f 301 400 302
f 302 400 304
f 303 304 401
f 303 401 309
f 303 306 305
f 304 402 401
f 304 400 403
f 304 403 402
f 307 327 308
f 307 310 328
f 307 328 327
f 309 329 328
f 309 328 310
f 309 401 330
f 309 330 329
f 311 339 404
f 311 404 314
f 312 314 404
f 312 404 313
f 313 353 315
f 313 404 353
f 315 353 316
f 316 351 350
f 316 350 317
f 316 353 351
f 317 350 318
f 318 350 319
f 320 348 349
f 320 349 321
f 321 349 429
f 321 429 405
f 321 405 406
f 321 406 322
f 322 406 407
f 322 407 324
f 322 324 323
f 324 407 408
f 324 408 326
f 324 326 325
f 330 332 331
f 330 401 402
f 330 402 409
f 330 409 410
f 330 410 411
f 330 411 333
f 330 333 332
f 333 411 412
f 333 412 334
f 334 412 413
f 334 413 414
f 334 414 415
f 334 415 335
f 335 415 336
f 336 415 414
f 336 414 416
f 336 416 417
f 336 417 418
f 336 418 337
f 337 418 419
f 338 354 339
f 339 354 404
f 340 420 421
f 340 421 343
f 341 345 422
f 341 422 423
f 341 423 424
f 341 424 425
f 341 425 342
f 342 425 426
f 342 426 346
f 343 421 427
f 343 427 344
f 344 422 345
f 344 427 422
f 346 426 428
f 346 428 347
f 347 428 349
f 349 428 429
f 353 404 354
f 355 430 431
f 355 431 432
f 355 432 356
f 356 432 433
f 356 433 434
f 357 435 436
f 357 436 437
f 357 437 360
f 357 360 359
f 357 434 511
f 357 511 435
f 360 437 438
f 360 438 362
f 360 362 361
f 362 439 440
f 362 440 441
f 362 441 363
f 362 438 439
f 363 441 366
f 363 366 365
f 366 441 442
f 366 442 443
f 366 443 444
f 366 444 367
f 367 444 368
f 368 444 445
f 368 445 369
f 369 445 370
f 370 445 371
f 371 445 444
f 371 444 446
f 371 446 447
f 371 447 373
f 371 373 372
f 373 447 448
f 373 448 449
f 373 449 374
f 374 449 450
f 374 450 375
f 375 450 376
f 376 450 377
f 377 450 449
f 377 449 378
f 378 449 451
f 378 451 379
f 379 451 452
f 379 452 453
f 379 453 454
f 379 454 380
f 380 454 455
f 380 455 381
f 381 455 382
f 382 456 383
f 382 455 456
f 383 456 384
f 384 457 458
f 384 458 385
f 384 456 457
f 385 458 387
f 385 387 459
f 385 459 386
f 386 459 387
f 387 458 457
f 387 457 461
f 387 461 460
f 388 460 534
f 388 534 462
f 388 462 463
f 388 463 389
f 389 463 464
f 389 464 392
f 389 392 390
f 392 464 465
f 392 465 393
f 393 465 466
f 393 466 394
f 394 466 395
f 395 467 468
f 395 468 469
f 395 469 398
f 395 398 396
f 395 466 467
f 396 398 397
f 398 469 470
f 398 470 399
f 399 470 471
f 399 471 472
f 399 472 473
f 399 473 402
f 399 402 403
f 399 403 400
f 402 473 482
f 402 482 409
f 405 429 505
f 405 505 474
f 405 474 406
f 406 475 476
f 406 476 477
f 406 477 478
f 406 478 479
f 406 479 407
f 406 474 475
f 407 479 480
f 407 480 408
f 408 480 481
f 409 482 410
f 410 482 483
f 410 483 484
f 410 484 485
f 410 485 486
f 410 486 413
f 410 413 411
f 411 413 412
f 413 486 414
f 414 486 416
f 416 486 487
f 416 487 417
f 417 487 488
f 417 488 418
f 418 488 489
f 418 489 490
f 418 490 491
f 418 491 419
f 419 491 548
f 419 548 492
f 420 493 494
f 420 494 421
f 421 495 427
f 421 494 495
f 422 427 496
f 422 496 423
f 423 496 497
f 423 497 424
f 424 497 498
f 424 498 425
f 425 499 500
f 425 500 501
f 425 501 426
f 425 498 499
f 426 501 428
f 427 495 502
f 427 502 503
f 427 503 496
f 428 501 504
f 428 504 505
f 428 505 429
f 430 506 431
f 431 506 507
f 431 507 508
f 431 508 434
f 431 434 433
f 431 433 432
f 434 508 509
f 434 509 510
f 434 510 511
f 435 511 571
f 435 571 572
f 435 572 512
f 435 512 436
f 436 512 513
f 436 513 437
f 437 513 514
f 437 514 438
f 438 514 515
f 438 515 439
f 439 515 516
f 439 516 440
f 440 516 441
f 441 516 517
f 441 517 518
f 441 518 442
f 442 518 443
f 443 518 519
f 443 519 520
f 443 520 444
f 444 520 521
f 444 521 522
f 444 522 446
f 446 523 524
f 446 524 447
f 446 522 581
f 446 581 523
f 447 524 525
f 447 525 448
f 448 525 587
f 448 587 526
f 448 526 449
f 449 526 527
f 449 527 528
f 449 528 451
f 451 528 529
f 451 529 530
f 451 530 453
f 451 453 452
f 453 530 455
f 453 455 454
f 455 531 532
f 455 532 461
f 455 461 457
f 455 457 456
f 455 530 533
f 455 533 531
f 460 461 535
f 460 535 534
f 461 532 594
f 461 594 535
f 462 534 595
f 462 595 536
f 462 536 463
f 463 536 537
f 463 537 538
f 463 538 464
f 464 538 465
f 465 538 466
f 466 538 467
f 467 486 468
f 467 538 539
f 467 539 486
f 468 486 485
f 468 485 470
f 468 470 469
f 470 485 484
f 470 484 471
f 471 484 483
f 471 483 472
f 472 483 482
f 472 482 473
f 474 505 504
f 474 504 475
f 475 504 476
f 476 504 501
f 476 501 500
f 476 500 540
f 476 540 541
f 476 541 477
f 477 541 542
f 477 542 543
f 477 543 478
f 478 543 479
f 479 543 544
f 479 544 545
f 479 545 546
f 479 546 547
f 479 547 480
f 480 547 481
f 486 539 487
f 487 539 537
f 487 537 488
f 488 537 489
f 489 537 536
f 489 536 490
f 490 536 491
f 491 536 595
f 491 595 548
f 492 549 550
f 492 548 549
f 493 551 552
f 493 552 494
f 494 553 554
f 494 554 555
f 494 555 495
f 494 552 556
f 494 556 553
f 495 555 502
f 496 557 558
f 496 558 497
f 496 503 557
f 497 558 498
f 498 558 559
f 498 559 560
f 498 560 499
f 499 560 561
f 499 561 562
f 499 562 540
f 499 540 500
f 502 555 554
f 502 554 563
f 502 563 503
f 503 563 564
f 503 564 557
f 506 565 566
f 506 566 567
f 506 567 507
f 507 567 508
f 508 567 509
f 509 566 568
f 509 568 569
f 509 569 510
f 509 567 566
f 510 569 632
f 510 632 570
f 510 570 571
f 510 571 511
f 512 572 573
f 512 573 574
f 512 574 513
f 513 574 575
f 513 575 576
f 513 576 514
f 514 576 515
f 515 576 516
f 516 576 517
f 517 576 577
f 517 577 578
f 517 578 518
f 518 578 519
f 519 579 580
f 519 580 520
f 519 578 579
f 520 580 521
f 521 580 581
f 521 581 522
f 523 581 579
f 523 579 524
f 524 579 582
f 524 582 583
f 524 583 584
f 524 584 525
f 525 584 585
f 525 585 586
f 525 586 587
f 526 587 588
f 526 588 527
f 527 588 528
f 528 588 589
f 528 589 590
f 528 590 529
f 529 590 530
f 530 590 591
f 530 591 592
f 530 592 533
f 531 533 592
f 531 592 593
f 531 593 594
f 531 594 532
f 534 535 595
f 535 594 596
f 535 596 597
f 535 597 595
f 537 539 538
f 540 562 541
f 541 562 598
f 541 598 599
f 541 599 600
f 541 600 543
f 541 543 542
f 543 600 601
f 543 601 602
f 543 602 544
f 544 602 545
f 548 595 603
f 548 603 549
f 549 604 605
f 549 605 606
f 549 606 550
f 549 603 607
f 549 607 604
f 550 606 608
f 551 609 552
f 551 610 668
f 551 668 609
f 552 609 611
f 552 611 612
f 552 612 613
f 552 613 556
f 553 614 554
f 553 556 613
f 553 613 615
f 553 615 616
f 553 616 614
f 554 617 563
f 554 614 617
f 557 618 621
f 557 621 558
f 557 564 619
f 557 619 620
f 557 620 674
f 557 674 618
f 558 621 622
f 558 622 559
f 559 622 623
f 559 623 560
f 560 623 561
f 561 623 598
f 561 598 562
f 563 617 564
f 564 617 619
f 565 624 625
f 565 625 566
f 566 625 568
f 568 625 626
f 568 626 627
f 568 627 628
f 568 628 629
f 568 629 630
f 568 630 631
f 568 631 569
f 569 631 686
f 569 686 632
f 570 633 571
f 570 632 634
f 570 634 635
f 570 635 633
f 571 633 573
f 571 573 572
f 573 636 574
f 573 633 636
f 574 636 637
f 574 637 638
f 574 638 639
f 574 639 640
f 574 640 575
f 575 641 642
f 575 642 577
f 575 577 576
f 575 640 641
f 577 642 578
f 578 643 644
f 578 644 579
f 578 642 645
f 578 645 643
f 579 644 582
f 579 581 580
f 582 644 646
f 582 646 583
f 583 647 584
f 583 646 648
f 583 648 647
f 584 647 649
f 584 649 650
f 584 650 585
f 585 650 651
f 585 651 586
f 586 588 587
f 586 651 652
f 586 652 589
f 586 589 588
f 589 652 590
f 590 652 591
f 591 652 653
f 591 653 596
f 591 596 592
f 592 596 593
f 593 596 594
f 595 597 607
f 595 607 603
f 596 653 654
f 596 654 597
f 597 654 604
f 597 604 607
f 598 622 621
f 598 621 655
f 598 655 656
f 598 656 657
f 598 657 658
f 598 658 599
f 598 623 622
f 599 659 600
f 599 658 660
f 599 660 659
f 600 659 601
f 601 659 661
f 604 654 605
f 605 654 662
f 605 662 606
f 606 663 664
f 606 664 665
f 606 665 666
f 606 666 667
f 606 667 608
f 606 662 663
f 609 633 611
f 609 668 637
f 609 637 633
f 610 669 670
f 610 670 638
f 610 638 668
f 611 633 612
f 612 633 635
f 612 635 613
f 613 635 615
f 614 616 671
f 614 671 672
f 614 672 673
f 614 673 619
f 614 619 617
f 615 635 616
f 616 635 634
f 616 634 671
f 618 655 621
f 618 674 675
f 618 675 655
f 619 676 677
f 619 677 620
f 619 673 676
f 620 677 700
f 620 700 674
f 624 678 625
f 625 678 679
f 625 679 680
f 625 680 626
f 626 680 627
f 627 680 681
f 627 681 628
f 628 681 682
f 628 682 683
f 628 683 629
f 629 672 671
f 629 671 684
f 629 684 630
f 629 683 685
f 629 685 672
f 630 684 686
f 630 686 631
f 632 686 634
f 633 637 636
f 634 686 684
f 634 684 671
f 637 668 638
f 638 670 639
f 639 670 640
f 640 670 641
f 641 670 687
f 641 687 642
f 642 687 645
f 643 645 688
f 643 688 689
f 643 689 648
f 643 648 646
f 643 646 644
f 645 687 688
f 647 648 690
f 647 690 691
f 647 691 666
f 647 666 665
f 647 665 649
f 648 689 690
f 649 665 664
f 649 664 663
f 649 663 650
f 650 663 651
f 651 663 652
f 652 662 654
f 652 654 653
f 652 663 662
f 655 675 692
f 655 692 657
f 655 657 656
f 657 660 658
f 657 692 693
f 657 693 694
f 657 694 695
f 657 695 659
f 657 659 660
f 659 695 696
f 659 696 697
f 659 697 661
f 666 691 667
f 667 691 698
f 669 698 688
f 669 688 670
f 670 688 687
f 672 685 699
f 672 699 673
f 673 699 676
f 674 700 701
f 674 701 675
f 675 701 702
f 675 702 703
f 675 703 692
f 676 699 704
f 676 704 700
f 676 700 677
f 679 705 680
f 680 705 681
f 681 683 682
f 681 705 706
f 681 706 707
f 681 707 708
f 681 708 709
f 681 709 683
f 683 699 685
f 683 709 701
f 683 701 699
f 688 698 691
f 688 691 690
f 688 690 689
f 692 703 693
f 693 703 710
f 699 701 704
f 700 704 701
f 701 711 702
f 701 709 712
f 701 712 711
f 702 711 703
f 703 713 714
f 703 714 710
f 703 711 715
f 703 715 716
f 703 716 713
f 708 717 716
f 708 716 709
f 709 716 712
f 711 712 715
f 712 716 715
f 713 716 717
f 713 717 714
