v 0.17839 -0.625403 -7.32587e-05
v 0.178812 -0.609963 -7.32587e-05
v 0.179509 -0.640842 -7.32587e-05
v 0.10002 -0.625403 0.147195
v 0.179425 -0.603838 -7.32587e-05
v 0.100041 -0.624813 0.147195
v 0.100759 -0.609963 0.147195
v 0.181558 -0.656282 -7.32587e-05
v 0.102005 -0.641263 0.147195
v 0.101815 -0.603838 0.147195
v 0.245357 -0.603838 -7.32587e-05
v 0.182825 -0.662239 -7.32587e-05
v 0.103018 -0.645945 0.147195
v 0.184071 -0.668075 -7.32587e-05
v 0.1952 -0.603838 0.147195
v 0.245357 -0.603838 0.00772548
v 0.315744 -0.726765 -7.32587e-05
v 0.105447 -0.656282 0.147195
v 0.186415 -0.675801 -7.32587e-05
v 0.197903 -0.603838 0.143648
v 0.278301 -0.725236 0.147195
v 0.24354 -0.603838 0.0231644
v 0.315744 -0.726765 0.0079273
v 0.203669 -0.726765 -7.32587e-05
v 0.108087 -0.663093 0.147195
v 0.190047 -0.687161 -7.32587e-05
v 0.207006 -0.603838 0.131597
v 0.279294 -0.726765 0.147195
v 0.214503 -0.603838 0.120022
v 0.240288 -0.603838 0.0479301
v 0.308754 -0.725874 0.0611778
v 0.31038 -0.726765 0.052024
v 0.133703 -0.726765 0.147195
v 0.111592 -0.672046 0.147195
v 0.292704 -0.726765 0.115164
v 0.21786 -0.603838 0.112915
v 0.215685 -0.603838 0.11773
v 0.239465 -0.603838 0.0540566
v 0.308163 -0.726753 0.0694955
v 0.309366 -0.726765 0.0603129
v 0.294562 -0.726765 0.110551
v 0.230426 -0.603838 0.0824694
v 0.235262 -0.603838 0.0701586
v 0.304404 -0.726765 0.0848191
v 0.308142 -0.726765 0.0695676
v 0.308163 -0.726765 0.0694667
v 0.298596 -0.726765 0.1002
f 1 2 5
f 1 5 11
f 1 11 17
f 1 17 24
f 1 24 26
f 1 26 19
f 1 19 14
f 1 14 12
f 1 12 8
f 1 8 3
f 1 3 4
f 1 4 2
f 2 4 6
f 2 6 7
f 2 7 5
f 3 8 9
f 3 9 4
f 4 9 13
f 4 13 18
f 4 18 25
f 4 25 34
f 4 34 33
f 4 33 28
f 4 28 21
f 4 21 15
f 4 15 10
f 4 10 7
f 4 7 6
f 5 7 10
f 5 10 15
f 5 15 20
f 5 20 27
f 5 27 29
f 5 29 37
f 5 37 36
f 5 36 42
f 5 42 43
f 5 43 38
f 5 38 30
f 5 30 22
f 5 22 16
f 5 16 11
f 8 12 9
f 9 12 14
f 9 14 13
f 11 16 23
f 11 23 17
f 13 14 18
f 14 19 18
f 15 21 20
f 16 22 23
f 17 23 32
f 17 32 40
f 17 40 46
f 17 46 45
f 17 45 44
f 17 44 47
f 17 47 41
f 17 41 35
f 17 35 28
f 17 28 33
f 17 33 24
f 18 19 26
f 18 26 24
f 18 24 25
f 20 21 27
f 21 28 29
f 21 29 27
f 22 30 31
f 22 31 32
f 22 32 23
f 24 33 34
f 24 34 25
f 28 35 36
f 28 36 37
f 28 37 29
f 30 38 39
f 30 39 31
f 31 39 40
f 31 40 32
f 35 41 42
f 35 42 36
f 38 43 44
f 38 44 39
f 39 44 45
f 39 45 46
f 39 46 40
f 41 47 43
f 41 43 42
f 43 47 44
