v -0.00772885 0.441444 -0.367738
v -0.038609 0.441444 -0.364451
v -0.00772885 0.465581 -0.356223
v 7.21025e-05 0.441444 -0.367738
v -0.0534017 0.441444 -0.362715
v -0.00772885 0.473297 -0.352425
v 7.21025e-05 0.469406 -0.354344
v 7.21025e-05 0.465581 -0.356223
v 7.21025e-05 0.441444 -0.290091
v -0.0688742 0.441444 -0.360306
v -0.0845085 0.471929 -0.342808
v -0.0790704 0.47915 -0.339991
v -0.038609 0.483124 -0.342666
v -0.0231689 0.484542 -0.343686
v -0.00636935 0.487493 -0.343727
v -0.000283957 0.494187 -0.339746
v 7.21025e-05 0.473297 -0.352425
v -0.0694892 0.48014 -0.340644
v 7.21025e-05 0.488696 -0.224511
v -0.241564 0.441444 -0.159176
v -0.0849616 0.441444 -0.35759
v -0.0893638 0.477716 -0.339154
v -0.0845085 0.485152 -0.334642
v -0.0694892 0.487856 -0.335132
v -0.038609 0.49084 -0.337214
v -0.0231689 0.492258 -0.338255
v -0.0105773 0.493346 -0.339072
v -0.00772885 0.609861 -0.221265
v 7.21025e-05 0.494187 -0.339746
v -0.0694892 0.497567 -0.327414
v -0.0540491 0.498605 -0.328435
v -0.038609 0.499595 -0.329476
v -0.0231689 0.500501 -0.330538
v 7.21025e-05 0.491681 -0.220612
v -0.128239 0.504376 -0.159176
v -0.330611 0.441444 -0.159176
v 7.21025e-05 0.494615 -0.216794
v 7.21025e-05 0.498028 -0.212588
v 7.21025e-05 0.501375 -0.208484
v 7.21025e-05 0.505035 -0.204115
v 7.21025e-05 0.508646 -0.199847
v 7.21025e-05 0.513015 -0.196397
v 7.21025e-05 0.517318 -0.193008
v 7.21025e-05 0.521803 -0.189557
v 7.21025e-05 0.526188 -0.186188
v 7.21025e-05 0.533904 -0.180635
v 7.21025e-05 0.542164 -0.176021
v 7.21025e-05 0.548809 -0.172325
v -0.100402 0.441444 -0.353691
v -0.100402 0.466422 -0.341277
v -0.100402 0.474138 -0.337255
v -0.115842 0.481574 -0.326332
v -0.0998514 0.486916 -0.328884
v -0.0943163 0.494846 -0.324923
v -0.0849616 0.496132 -0.326087
v 7.21025e-05 0.609861 -0.221265
v -0.0231689 0.609861 -0.219264
v -0.0694892 0.505283 -0.319533
v -0.0385766 0.609861 -0.217202
v 7.21025e-05 0.56213 -0.166567
v -0.115842 0.511779 -0.159176
v -0.314394 0.471335 -0.159176
v -0.307888 0.477057 -0.167629
v -0.321871 0.441444 -0.177593
v -0.117234 0.441444 -0.34779
v -0.1609 0.441444 -0.329986
v -0.134616 0.475375 -0.322453
v -0.124322 0.479167 -0.324576
v -0.10461 0.492373 -0.32282
v -0.157339 0.480403 -0.310018
v -0.146722 0.483338 -0.312224
v -0.137659 0.493494 -0.308263
v -0.127365 0.49572 -0.310345
v -0.115842 0.498028 -0.312734
v -0.0988804 0.501441 -0.315919
v -0.0694892 0.609861 -0.20977
v -0.0694244 0.609861 -0.209791
v -0.0535312 0.609861 -0.21467
v 7.21025e-05 0.609861 -0.159176
v 7.21025e-05 0.579063 -0.160463
v 7.21025e-05 0.585344 -0.159176
v -0.309636 0.479793 -0.159176
v -0.310607 0.466752 -0.173285
v -0.307694 0.482415 -0.159176
v -0.30368 0.485894 -0.162362
v -0.293645 0.494434 -0.170283
v -0.296623 0.485547 -0.176306
v -0.294293 0.479826 -0.186515
v -0.305072 0.471533 -0.178103
v -0.315462 0.441444 -0.19019
v -0.17757 0.441444 -0.32186
v -0.173265 0.466752 -0.310611
v -0.1676 0.477057 -0.307895
v -0.146722 0.491071 -0.306343
v -0.162356 0.485894 -0.303689
v -0.170254 0.494434 -0.293664
v -0.162162 0.496182 -0.2954
v -0.0855766 0.609861 -0.203196
v -0.146722 0.499215 -0.298626
v -0.15407 0.609861 -0.159176
v -0.305428 0.485383 -0.159176
v -0.30423 0.486949 -0.159176
v -0.289729 0.490114 -0.180574
v -0.295393 0.496182 -0.162157
v -0.28633 0.505118 -0.159176
v -0.285262 0.504607 -0.162709
v -0.276846 0.50886 -0.168221
v -0.285003 0.497764 -0.176306
v -0.279435 0.495473 -0.18727
v -0.247034 0.494137 -0.231617
v -0.261276 0.492884 -0.214609
v -0.28005 0.481228 -0.203523
v -0.261859 0.477749 -0.23082
v -0.276101 0.475836 -0.213813
v -0.290344 0.473809 -0.196805
v -0.296462 0.469588 -0.192211
v -0.268948 0.441444 -0.25138
v -0.192168 0.441444 -0.314163
v -0.178055 0.471533 -0.305098
v -0.186471 0.479826 -0.294297
v -0.176275 0.485547 -0.296625
v -0.180548 0.490114 -0.289724
v -0.214568 0.492884 -0.261303
v -0.231594 0.494137 -0.247052
v -0.187248 0.495473 -0.279434
v -0.176275 0.497764 -0.285007
v -0.122024 0.609861 -0.184126
v -0.11432 0.609861 -0.189476
v -0.0998191 0.609861 -0.197152
v -0.0991393 0.609861 -0.197499
v -0.146269 0.609861 -0.16571
v -0.229716 0.508597 -0.229738
v -0.24056 0.503024 -0.225532
v -0.244412 0.507723 -0.212751
v -0.27335 0.506173 -0.177593
v -0.2795 0.510723 -0.159176
v -0.296008 0.496759 -0.159176
v -0.28128 0.509305 -0.159176
v -0.250983 0.497435 -0.221326
v -0.265193 0.496462 -0.204319
v -0.247584 0.479365 -0.247624
v -0.250853 0.483041 -0.239355
v -0.265808 0.482596 -0.22053
v -0.236741 0.498309 -0.236762
v -0.240851 0.491433 -0.240886
v -0.25367 0.441444 -0.266897
v -0.196765 0.473809 -0.290357
v -0.192168 0.469588 -0.296461
v -0.230785 0.477749 -0.261895
v -0.213791 0.475836 -0.276106
v -0.203497 0.481228 -0.280046
v -0.220491 0.482596 -0.265815
v -0.23933 0.483041 -0.25087
v -0.225508 0.503024 -0.2406
v -0.2213 0.497435 -0.251013
v -0.132641 0.609861 -0.176164
v -0.145524 0.609861 -0.166282
v -0.239783 0.471962 -0.258526
f 1 2 3
f 1 3 8
f 1 8 4
f 1 4 9
f 1 9 20
f 1 20 36
f 1 36 64
f 1 64 90
f 1 90 117
f 1 117 146
f 1 146 118
f 1 118 91
f 1 91 66
f 1 66 65
f 1 65 49
f 1 49 21
f 1 21 10
f 1 10 5
f 1 5 2
f 2 5 3
f 3 6 7
f 3 7 8
f 3 5 6
f 4 8 7
f 4 7 17
f 4 17 29
f 4 29 56
f 4 56 79
f 4 79 81
f 4 81 80
f 4 80 60
f 4 60 48
f 4 48 47
f 4 47 46
f 4 46 45
f 4 45 44
f 4 44 43
f 4 43 42
f 4 42 41
f 4 41 40
f 4 40 39
f 4 39 38
f 4 38 37
f 4 37 34
f 4 34 19
f 4 19 9
f 5 10 11
f 5 11 12
f 5 12 6
f 6 13 14
f 6 14 15
f 6 15 16
f 6 16 29
f 6 29 17
f 6 17 7
f 6 12 18
f 6 18 13
f 9 19 20
f 10 21 11
f 11 21 22
f 11 22 12
f 12 22 23
f 12 23 24
f 12 24 18
f 13 25 26
f 13 26 14
f 13 18 25
f 14 26 15
f 15 26 27
f 15 27 16
f 16 28 56
f 16 56 29
f 16 27 30
f 16 30 31
f 16 31 32
f 16 32 33
f 16 33 28
f 18 24 25
f 19 34 20
f 20 35 61
f 20 61 81
f 20 81 79
f 20 79 100
f 20 100 136
f 20 136 138
f 20 138 105
f 20 105 137
f 20 137 102
f 20 102 101
f 20 101 84
f 20 84 82
f 20 82 62
f 20 62 36
f 20 34 37
f 20 37 38
f 20 38 39
f 20 39 40
f 20 40 41
f 20 41 42
f 20 42 43
f 20 43 44
f 20 44 45
f 20 45 46
f 20 46 47
f 20 47 48
f 20 48 35
f 21 49 22
f 22 49 50
f 22 50 51
f 22 51 52
f 22 52 53
f 22 53 54
f 22 54 23
f 23 55 24
f 23 54 55
f 24 55 30
f 24 30 25
f 25 30 26
f 26 30 27
f 28 33 32
f 28 32 57
f 28 57 59
f 28 59 78
f 28 78 77
f 28 77 76
f 28 76 98
f 28 98 130
f 28 130 129
f 28 129 128
f 28 128 127
f 28 127 156
f 28 156 157
f 28 157 131
f 28 131 100
f 28 100 79
f 28 79 56
f 30 55 58
f 30 58 59
f 30 59 31
f 31 59 57
f 31 57 32
f 35 48 60
f 35 60 61
f 36 62 63
f 36 63 64
f 49 65 50
f 50 65 51
f 51 65 66
f 51 66 67
f 51 67 68
f 51 68 52
f 52 69 53
f 52 68 70
f 52 70 71
f 52 71 69
f 53 69 54
f 54 69 72
f 54 72 73
f 54 73 74
f 54 74 75
f 54 75 76
f 54 76 77
f 54 77 78
f 54 78 55
f 55 78 58
f 58 78 59
f 60 80 61
f 61 80 81
f 62 82 63
f 63 83 64
f 63 82 84
f 63 84 85
f 63 85 86
f 63 86 87
f 63 87 88
f 63 88 89
f 63 89 83
f 64 83 90
f 66 91 92
f 66 92 93
f 66 93 67
f 67 93 68
f 68 93 70
f 69 71 72
f 70 94 71
f 70 93 95
f 70 95 94
f 71 94 72
f 72 94 96
f 72 96 97
f 72 97 73
f 73 97 74
f 74 98 76
f 74 76 75
f 74 97 99
f 74 99 98
f 83 89 90
f 84 101 85
f 85 101 102
f 85 102 86
f 86 103 88
f 86 88 87
f 86 102 104
f 86 104 105
f 86 105 106
f 86 106 107
f 86 107 108
f 86 108 109
f 86 109 110
f 86 110 111
f 86 111 103
f 88 103 111
f 88 111 112
f 88 112 113
f 88 113 114
f 88 114 115
f 88 115 116
f 88 116 90
f 88 90 89
f 90 116 117
f 91 118 92
f 92 118 119
f 92 119 93
f 93 119 120
f 93 120 121
f 93 121 96
f 93 96 95
f 94 95 96
f 96 121 120
f 96 120 122
f 96 122 123
f 96 123 124
f 96 124 125
f 96 125 126
f 96 126 127
f 96 127 128
f 96 128 129
f 96 129 130
f 96 130 97
f 97 130 99
f 98 99 130
f 100 131 132
f 100 132 133
f 100 133 134
f 100 134 135
f 100 135 107
f 100 107 136
f 102 137 104
f 104 137 105
f 105 138 106
f 106 138 136
f 106 136 107
f 107 135 108
f 108 135 139
f 108 139 140
f 108 140 109
f 109 140 110
f 110 141 142
f 110 142 143
f 110 143 111
f 110 140 139
f 110 139 133
f 110 133 132
f 110 132 144
f 110 144 124
f 110 124 145
f 110 145 141
f 111 143 112
f 112 143 141
f 112 141 113
f 113 117 114
f 113 141 117
f 114 117 115
f 115 117 116
f 117 141 146
f 118 147 148
f 118 148 120
f 118 120 119
f 118 146 149
f 118 149 150
f 118 150 147
f 120 148 147
f 120 147 150
f 120 150 149
f 120 149 151
f 120 151 123
f 120 123 122
f 123 151 152
f 123 152 124
f 124 152 153
f 124 153 141
f 124 141 145
f 124 144 132
f 124 132 154
f 124 154 155
f 124 155 125
f 125 155 126
f 126 156 127
f 126 155 156
f 131 157 155
f 131 155 154
f 131 154 132
f 133 139 134
f 134 139 135
f 141 153 152
f 141 152 151
f 141 151 149
f 141 149 158
f 141 158 146
f 141 143 142
f 146 158 149
f 155 157 156
