v 0.297544 0.356914 0.131239
v 0.379466 0.356914 0.131239
v 0.326932 0.356914 -7.32645e-05
v 0.390253 -0.0222389 -7.32645e-05
v 0.365488 -0.0222389 0.131239
v 0.382937 0.356914 0.123038
v 0.393366 0.331974 0.131239
v 0.402986 0.356914 -7.32645e-05
v 0.455598 -0.0222389 -7.32645e-05
v 0.435565 -0.0222389 0.131239
v 0.389039 0.356914 0.107421
v 0.398986 0.332605 0.116907
v 0.399344 0.317685 0.131239
v 0.401165 0.323289 0.122794
v 0.403204 0.327854 0.112498
v 0.414645 0.335203 -7.32645e-05
v 0.402986 0.356914 0.00504247
v 0.455894 -0.0153358 -7.32645e-05
v 0.455598 -0.0222389 0.00772887
v 0.440655 -0.0222389 0.115802
v 0.435627 -0.0210884 0.131239
v 0.390954 0.356914 0.101085
v 0.399406 0.3175 0.131239
v 0.40515 0.3175 0.116907
v 0.402721 0.312972 0.126522
v 0.404589 0.330749 0.100365
v 0.400791 0.338469 0.100365
v 0.40985 0.316535 0.100365
v 0.414645 0.335203 0.00772887
v 0.418412 0.327483 -7.32645e-05
v 0.394767 0.356914 0.0755573
v 0.456221 -0.00769037 -7.32645e-05
v 0.456221 -0.00769037 0.00772887
v 0.453606 -0.0222389 0.023166
v 0.443441 -0.0222389 0.100365
v 0.441293 -0.00769037 0.115802
v 0.436343 -0.00769037 0.131239
v 0.393507 0.356914 0.0853903
v 0.399484 0.31724 0.131239
v 0.408948 0.301095 0.115802
v 0.401741 0.307516 0.131239
v 0.402893 0.301095 0.131239
v 0.40378 0.301095 0.12908
v 0.416902 0.324217 0.0307754
v 0.417587 0.325739 0.0204796
v 0.405165 0.333458 0.0862001
v 0.401414 0.339582 0.0922027
v 0.411921 0.316535 0.0849275
v 0.412855 0.301095 0.100365
v 0.416995 0.309075 0.0623052
v 0.418412 0.327483 0.00772887
v 0.420217 0.322065 -7.32645e-05
v 0.456563 0.00774893 -7.32645e-05
v 0.454213 -0.00769037 0.023166
v 0.456563 0.00774893 0.00772887
v 0.452189 -0.00769037 0.0386161
v 0.449543 -0.0222389 0.0540532
v 0.443566 -0.0222389 0.0994392
v 0.444048 -0.00769037 0.100365
v 0.441651 0.00774893 0.115802
v 0.436717 0.00774893 0.131239
v 0.421945 0.177581 0.131239
v 0.427362 0.177581 0.115802
v 0.416388 0.322399 0.0386161
v 0.419439 0.318056 0.0246442
v 0.422054 0.316535 0.00772887
v 0.41754 0.311079 0.0540532
v 0.432436 0.155016 0.108372
v 0.431783 0.165296 0.103642
v 0.430911 0.176468 0.0992464
v 0.431798 0.180847 0.0883466
v 0.425027 0.301095 0.00772887
v 0.432483 0.18582 0.0780509
v 0.440779 0.177581 0.023166
v 0.442772 0.177581 0.00772887
v 0.422054 0.316535 -7.32645e-05
v 0.456236 0.0231882 -7.32645e-05
v 0.454555 0.00774893 0.023166
v 0.456236 0.0231882 0.00772887
v 0.454244 0.0231882 0.023166
v 0.452532 0.00774893 0.0386161
v 0.447628 0.00774893 0.0758401
v 0.446087 -0.00769037 0.0849275
v 0.444391 0.00774893 0.100365
v 0.444079 0.0231882 0.100365
v 0.441324 0.0231882 0.115802
v 0.436374 0.0231882 0.131239
v 0.424078 0.162142 0.131239
v 0.432436 0.124063 0.123694
v 0.423533 0.308889 -7.32645e-05
v 0.435581 0.115824 0.115802
v 0.437433 0.100385 0.115802
v 0.438554 0.115824 0.100365
v 0.4346 0.146702 0.100365
v 0.434709 0.177581 0.0694775
v 0.436732 0.177581 0.0540532
v 0.425027 0.301095 -7.32645e-05
v 0.448111 0.141395 0.00242033
v 0.438756 0.177581 0.0386161
v 0.442787 0.162142 0.023166
v 0.44478 0.162142 0.00772887
v 0.455909 0.0309821 -7.32645e-05
v 0.453621 0.0849454 0.00772887
v 0.45222 0.0231882 0.0386161
v 0.451629 0.0849454 0.023166
v 0.44643 0.00774893 0.0849275
v 0.446118 0.0231882 0.0849275
v 0.441464 0.0849454 0.100365
v 0.439285 0.0695061 0.115802
v 0.434553 0.0849454 0.128823
v 0.434911 0.0695061 0.129684
v 0.435269 0.0540668 0.130532
v 0.434273 0.0695061 0.131239
v 0.429432 0.12321 0.131239
v 0.430444 0.115824 0.131239
v 0.432997 0.115824 0.125056
v 0.433962 0.100385 0.12737
v 0.4386 0.0849454 0.115802
v 0.440328 0.100385 0.100365
v 0.447426 0.104393 0.0434104
v 0.448095 0.110405 0.0331147
v 0.448749 0.115675 0.0230375
v 0.444764 0.146702 0.023166
v 0.448111 0.141395 -7.32645e-05
v 0.446788 0.146591 0.00763889
v 0.45071 0.115824 0.00772887
v 0.4525 0.100385 0.00772887
v 0.447457 0.136274 0.0127161
v 0.453948 0.0772999 -7.32645e-05
v 0.453621 0.0849454 -7.32645e-05
v 0.447955 0.0941124 0.0474465
v 0.444811 0.0540668 0.0849275
v 0.432872 0.0938897 0.131239
v 0.433557 0.0849454 0.131239
v 0.433759 0.0806031 0.131239
v 0.431627 0.106323 0.131239
v 0.432358 0.100385 0.131239
v 0.442367 0.100385 0.0849275
v 0.444406 0.100385 0.0694775
v 0.450492 0.100385 0.023166
v 0.448111 0.125993 0.0178061
v 0.4525 0.100385 -7.32645e-05
f 1 2 6
f 1 6 11
f 1 11 22
f 1 22 38
f 1 38 31
f 1 31 17
f 1 17 8
f 1 8 3
f 1 3 4
f 1 4 5
f 1 5 10
f 1 10 21
f 1 21 37
f 1 37 61
f 1 61 87
f 1 87 113
f 1 113 135
f 1 135 134
f 1 134 133
f 1 133 137
f 1 137 136
f 1 136 115
f 1 115 114
f 1 114 88
f 1 88 62
f 1 62 42
f 1 42 41
f 1 41 39
f 1 39 23
f 1 23 13
f 1 13 7
f 1 7 2
f 2 7 6
f 3 8 16
f 3 16 30
f 3 30 52
f 3 52 76
f 3 76 90
f 3 90 97
f 3 97 124
f 3 124 142
f 3 142 130
f 3 130 129
f 3 129 102
f 3 102 77
f 3 77 53
f 3 53 32
f 3 32 18
f 3 18 9
f 3 9 4
f 4 9 19
f 4 19 34
f 4 34 57
f 4 57 58
f 4 58 35
f 4 35 20
f 4 20 10
f 4 10 5
f 6 7 12
f 6 12 11
f 7 13 14
f 7 14 15
f 7 15 12
f 8 17 29
f 8 29 16
f 9 18 19
f 10 20 21
f 11 12 15
f 11 15 22
f 13 23 14
f 14 24 15
f 14 23 25
f 14 25 24
f 15 26 27
f 15 27 22
f 15 24 28
f 15 28 26
f 16 29 51
f 16 51 30
f 17 31 29
f 18 32 33
f 18 33 19
f 19 33 34
f 20 35 36
f 20 36 37
f 20 37 21
f 22 27 38
f 23 39 25
f 24 25 40
f 24 40 28
f 25 41 42
f 25 42 43
f 25 43 40
f 25 39 41
f 26 28 44
f 26 44 45
f 26 45 46
f 26 46 47
f 26 47 27
f 27 47 38
f 28 48 44
f 28 40 49
f 28 49 50
f 28 50 48
f 29 31 38
f 29 38 47
f 29 47 51
f 30 51 52
f 32 53 55
f 32 55 33
f 33 54 34
f 33 55 78
f 33 78 54
f 34 54 56
f 34 56 57
f 35 58 59
f 35 59 36
f 36 59 60
f 36 60 61
f 36 61 37
f 40 43 62
f 40 62 63
f 40 63 49
f 42 62 43
f 44 48 64
f 44 64 65
f 44 65 66
f 44 66 45
f 45 66 51
f 45 51 47
f 45 47 46
f 48 50 67
f 48 67 64
f 49 63 68
f 49 68 69
f 49 69 70
f 49 70 71
f 49 71 50
f 50 72 66
f 50 66 67
f 50 71 73
f 50 73 74
f 50 74 75
f 50 75 72
f 51 66 52
f 52 66 76
f 53 77 79
f 53 79 55
f 54 78 81
f 54 81 56
f 55 79 80
f 55 80 78
f 56 81 82
f 56 82 83
f 56 83 58
f 56 58 57
f 58 83 59
f 59 83 106
f 59 106 84
f 59 84 60
f 60 84 85
f 60 85 86
f 60 86 61
f 61 86 87
f 62 88 89
f 62 89 63
f 63 89 68
f 64 67 65
f 65 67 66
f 66 72 90
f 66 90 76
f 68 89 91
f 68 91 92
f 68 92 93
f 68 93 69
f 69 93 94
f 69 94 95
f 69 95 71
f 69 71 70
f 71 95 96
f 71 96 73
f 72 97 90
f 72 75 98
f 72 98 124
f 72 124 97
f 73 96 99
f 73 99 74
f 74 99 100
f 74 100 101
f 74 101 75
f 75 101 98
f 77 102 79
f 78 80 104
f 78 104 81
f 79 102 129
f 79 129 103
f 79 103 105
f 79 105 80
f 80 105 104
f 81 104 82
f 82 106 83
f 82 104 107
f 82 107 106
f 84 106 107
f 84 107 85
f 85 107 132
f 85 132 108
f 85 108 86
f 86 109 110
f 86 110 87
f 86 108 109
f 87 110 111
f 87 111 112
f 87 112 113
f 88 114 89
f 89 114 115
f 89 115 116
f 89 116 92
f 89 92 91
f 92 117 118
f 92 118 119
f 92 119 93
f 92 116 117
f 93 119 120
f 93 120 121
f 93 121 122
f 93 122 123
f 93 123 100
f 93 100 94
f 94 100 95
f 95 100 96
f 96 100 99
f 98 101 125
f 98 125 126
f 98 126 127
f 98 127 142
f 98 142 124
f 100 123 128
f 100 128 101
f 101 128 125
f 103 130 142
f 103 142 127
f 103 127 131
f 103 131 105
f 103 129 130
f 104 132 107
f 104 105 132
f 105 131 108
f 105 108 132
f 108 131 119
f 108 119 118
f 108 118 109
f 109 118 110
f 110 118 117
f 110 117 133
f 110 133 134
f 110 134 135
f 110 135 113
f 110 113 111
f 111 113 112
f 115 136 116
f 116 136 117
f 117 137 133
f 117 136 137
f 119 131 138
f 119 138 120
f 120 138 139
f 120 139 131
f 120 131 140
f 120 140 127
f 120 127 121
f 121 127 126
f 121 126 122
f 122 126 141
f 122 141 123
f 123 141 128
f 125 128 126
f 126 128 141
f 127 140 131
f 131 139 138
