v -0.265689 -0.418052 0.12228
v -0.294099 -0.418052 -7.32645e-05
v -0.343292 -0.418052 0.12228
v -0.177717 -0.508813 0.12228
v -0.366056 -0.418052 -7.32645e-05
v -0.173546 -0.513282 0.12228
v -0.229929 -0.492299 -7.32645e-05
v -0.346172 -0.418052 0.115298
v -0.341771 -0.421571 0.12228
v -0.365895 -0.418443 -7.32645e-05
v -0.36608 -0.418052 0.00772352
v -0.166772 -0.521399 0.12228
v -0.225251 -0.497959 -7.32645e-05
v -0.351794 -0.418052 0.101213
v -0.30926 -0.495055 0.12228
v -0.330988 -0.501869 -7.32645e-05
v -0.330988 -0.501869 0.00772352
v -0.326472 -0.499039 0.0540491
v -0.325458 -0.496879 0.069487
v -0.355872 -0.418555 0.0849249
v -0.356057 -0.418052 0.0849249
v -0.164814 -0.523987 0.12228
v -0.221081 -0.503023 -7.32645e-05
v -0.354605 -0.418052 0.0938475
v -0.313845 -0.503042 0.101381
v -0.310596 -0.497736 0.115813
v -0.307255 -0.499002 0.12228
v -0.325849 -0.511494 -7.32645e-05
v -0.325849 -0.511494 0.00772352
v -0.324859 -0.510321 0.0231734
v -0.324329 -0.50967 0.0313414
v -0.326886 -0.502707 0.0373417
v -0.323591 -0.508404 0.0416413
v -0.322739 -0.506766 0.0540491
v -0.321679 -0.504587 0.069487
v -0.32472 -0.495222 0.0791881
v -0.355642 -0.418052 0.0880029
v -0.159722 -0.531173 0.12228
v -0.211496 -0.515851 -7.32645e-05
v -0.320504 -0.500957 0.0845776
v -0.31055 -0.511476 0.0969135
v -0.308453 -0.508962 0.107201
v -0.305089 -0.503172 0.12228
v -0.244721 -0.608251 -7.32645e-05
v -0.244721 -0.608251 0.00772352
v -0.244583 -0.608251 0.00935235
v -0.23873 -0.608251 0.0540491
v -0.31396 -0.514976 0.069487
v -0.312439 -0.513487 0.0849249
v -0.154468 -0.539086 0.12228
v -0.202993 -0.529163 -7.32645e-05
v -0.234399 -0.608251 0.0704691
v -0.233984 -0.608251 0.071535
v -0.228938 -0.608251 0.0841464
v -0.228454 -0.608251 0.0853201
v -0.217601 -0.608251 0.111633
v -0.297555 -0.513673 0.12228
v -0.178984 -0.608251 -7.32645e-05
v -0.238316 -0.608251 0.0557618
v -0.153478 -0.540799 0.12228
v -0.149399 -0.547911 0.12228
v -0.200897 -0.533054 -7.32645e-05
v -0.214122 -0.608251 0.119178
v -0.213592 -0.608251 0.120028
v -0.212118 -0.608251 0.12228
v -0.179583 -0.602144 -7.32645e-05
v -0.13069 -0.608251 0.12228
v -0.146588 -0.553664 0.12228
v -0.198846 -0.53687 -7.32645e-05
v -0.180344 -0.594511 -7.32645e-05
v -0.132349 -0.594511 0.12228
v -0.142809 -0.561613 0.12228
v -0.193592 -0.548171 -7.32645e-05
v -0.181887 -0.586431 -7.32645e-05
v -0.136266 -0.579058 0.12228
v -0.183454 -0.578313 -7.32645e-05
v -0.19062 -0.556196 -7.32645e-05
v -0.187533 -0.564592 -7.32645e-05
f 1 2 5
f 1 5 11
f 1 11 21
f 1 21 37
f 1 37 24
f 1 24 14
f 1 14 8
f 1 8 3
f 1 3 9
f 1 9 15
f 1 15 27
f 1 27 43
f 1 43 57
f 1 57 65
f 1 65 67
f 1 67 71
f 1 71 75
f 1 75 72
f 1 72 68
f 1 68 61
f 1 61 60
f 1 60 50
f 1 50 38
f 1 38 22
f 1 22 12
f 1 12 6
f 1 6 4
f 1 4 2
f 2 4 6
f 2 6 7
f 2 7 13
f 2 13 23
f 2 23 39
f 2 39 51
f 2 51 62
f 2 62 69
f 2 69 73
f 2 73 77
f 2 77 78
f 2 78 76
f 2 76 74
f 2 74 70
f 2 70 66
f 2 66 58
f 2 58 44
f 2 44 28
f 2 28 16
f 2 16 10
f 2 10 5
f 3 8 9
f 5 10 11
f 6 12 7
f 7 12 13
f 8 14 15
f 8 15 9
f 10 16 11
f 11 17 18
f 11 18 19
f 11 19 20
f 11 20 21
f 11 16 17
f 12 22 23
f 12 23 13
f 14 24 25
f 14 25 26
f 14 26 15
f 15 26 27
f 16 28 29
f 16 29 17
f 17 29 30
f 17 30 31
f 17 31 32
f 17 32 18
f 18 32 31
f 18 31 33
f 18 33 34
f 18 34 19
f 19 34 35
f 19 35 36
f 19 36 37
f 19 37 20
f 20 37 21
f 22 38 39
f 22 39 23
f 24 37 36
f 24 36 40
f 24 40 25
f 25 40 41
f 25 41 42
f 25 42 26
f 26 42 27
f 27 42 43
f 28 44 45
f 28 45 29
f 29 45 46
f 29 46 30
f 30 46 47
f 30 47 31
f 31 47 48
f 31 48 33
f 33 48 34
f 34 48 49
f 34 49 35
f 35 49 40
f 35 40 36
f 38 50 39
f 39 50 51
f 40 49 41
f 41 49 52
f 41 52 53
f 41 53 54
f 41 54 55
f 41 55 56
f 41 56 42
f 42 56 57
f 42 57 43
f 44 58 67
f 44 67 65
f 44 65 64
f 44 64 63
f 44 63 56
f 44 56 55
f 44 55 54
f 44 54 53
f 44 53 52
f 44 52 59
f 44 59 47
f 44 47 46
f 44 46 45
f 47 59 49
f 47 49 48
f 49 59 52
f 50 60 51
f 51 60 61
f 51 61 62
f 56 63 57
f 57 63 64
f 57 64 65
f 58 66 67
f 61 68 69
f 61 69 62
f 66 70 67
f 67 70 71
f 68 72 69
f 69 72 73
f 70 74 71
f 71 74 76
f 71 76 75
f 72 75 73
f 73 75 77
f 75 76 78
f 75 78 77
