v 0.270207 0.779546 -0.0231728
v 0.270207 0.77938 -7.32702e-05
v 0.278001 0.778965 -7.32702e-05
v 0.285658 0.778551 -7.32702e-05
v 0.270207 0.779546 -0.0386139
v 0.239334 0.779496 -0.131247
v 0.223884 0.778733 -0.141297
v 0.254785 0.777373 -7.32702e-05
v 0.285658 0.778551 -0.00773163
v 0.302284 0.773941 -7.32702e-05
v 0.270207 0.779413 -0.054055
v 0.254785 0.779496 -0.100365
v 0.239334 0.779363 -0.141297
v 0.208188 0.776594 -0.141297
v 0.195308 0.773874 -0.141297
v 0.248851 0.775815 -7.32702e-05
v 0.285658 0.778269 -0.0231728
v 0.270207 0.779247 -0.0694962
v 0.302284 0.773941 -0.0063769
v 0.308847 0.7721 -7.32702e-05
v 0.254785 0.779098 -0.115806
v 0.270207 0.778866 -0.0849235
v 0.254785 0.778285 -0.131247
v 0.254785 0.777158 -0.141297
v 0.188636 0.771155 -0.141297
v 0.242807 0.774223 -7.32702e-05
v 0.285658 0.777804 -0.0386139
v 0.308847 0.7721 -0.00033592
v 0.30819 0.771884 -0.0106346
v 0.298647 0.773758 -0.0386139
v 0.285658 0.777224 -0.054055
v 0.309093 0.771934 -7.32702e-05
v 0.285658 0.776528 -0.0694962
v 0.270207 0.777788 -0.100365
v 0.270207 0.776047 -0.115806
v 0.270973 0.773974 -0.130887
v 0.267992 0.773509 -0.141297
v 0.187925 0.770806 -0.141297
v 0.235068 0.770027 -7.32702e-05
v 0.177752 0.765566 -0.141297
v 0.165228 0.758916 -0.141297
v 0.315027 0.767805 -0.0063769
v 0.30737 0.771586 -0.0231728
v 0.296432 0.773112 -0.0694962
v 0.29758 0.773427 -0.054055
v 0.315027 0.767805 -7.32702e-05
v 0.295037 0.772664 -0.0821864
v 0.287162 0.774621 -0.086375
v 0.283962 0.773874 -0.100365
v 0.293314 0.772067 -0.0924851
v 0.276634 0.771652 -0.135809
v 0.271493 0.772465 -0.141297
v 0.223884 0.763046 -7.32702e-05
v 0.159486 0.754555 -0.141297
v 0.215352 0.757391 -7.32702e-05
v 0.327004 0.759165 -0.00773163
v 0.316558 0.76545 -0.0231728
v 0.306358 0.771188 -0.0386139
v 0.305292 0.770707 -0.054055
v 0.304171 0.770093 -0.0694962
v 0.327004 0.759165 -7.32702e-05
v 0.300534 0.76938 -0.086375
v 0.291701 0.771503 -0.100365
v 0.275376 0.771155 -0.141297
v 0.157982 0.753162 -0.141297
v 0.209118 0.748917 -7.32702e-05
v 0.110674 0.707492 -0.141297
v 0.103263 0.699947 -0.141297
v 0.0954425 0.690511 -0.141297
v 0.0895085 0.682767 -0.141297
v 0.330832 0.7555 -7.32702e-05
v 0.334715 0.751769 -0.00773163
v 0.325992 0.758237 -0.0231728
v 0.315218 0.762366 -0.0694962
v 0.316558 0.764123 -0.0386139
v 0.313714 0.760989 -0.0849235
v 0.301108 0.765732 -0.100365
v 0.288365 0.769878 -0.115806
v 0.285931 0.764439 -0.141297
v 0.0814143 0.671723 -0.141297
v 0.18355 0.712617 -7.32702e-05
v 0.334715 0.751769 -7.32702e-05
v 0.33827 0.747872 -7.32702e-05
v 0.341716 0.744058 -0.00773163
v 0.322957 0.755434 -0.0694962
v 0.321426 0.754157 -0.0849235
v 0.311116 0.758601 -0.100365
v 0.301655 0.761288 -0.114921
v 0.296979 0.759746 -0.131247
v 0.2949 0.757955 -0.141297
v 0.0725543 0.65766 -0.141297
v 0.177178 0.7026 -7.32702e-05
v 0.180323 0.707559 -7.32702e-05
v 0.341716 0.744058 -7.32702e-05
v 0.341716 0.738237 -0.00773163
v 0.340759 0.742748 -0.0231728
v 0.329739 0.747706 -0.0694962
v 0.328563 0.746429 -0.0849235
v 0.32632 0.743793 -0.100365
v 0.318828 0.751504 -0.100365
v 0.309284 0.757043 -0.109184
v 0.295557 0.757391 -0.141297
v 0.0715972 0.655206 -0.141297
v 0.163013 0.671723 -7.32702e-05
v 0.165474 0.677792 -7.32702e-05
v 0.16799 0.683978 -7.32702e-05
v 0.171217 0.691689 -7.32702e-05
v 0.341716 0.738237 -7.32702e-05
v 0.340759 0.739498 -0.0231728
v 0.221204 0.61015 -0.00792516
v 0.219235 0.61015 -0.0231728
v 0.217185 0.61015 -0.0385724
v 0.340075 0.741753 -0.0336512
v 0.324598 0.741703 -0.108922
v 0.310159 0.74298 -0.141297
v 0.309722 0.743444 -0.141297
v 0.304717 0.75293 -0.131247
v 0.307151 0.755202 -0.119483
v 0.30253 0.750708 -0.141297
v 0.0664289 0.640845 -0.141297
v 0.158665 0.656284 -7.32702e-05
v 0.0662649 0.640298 -0.141297
v 0.221204 0.61015 -7.32702e-05
v 0.340075 0.740559 -0.0336512
v 0.216145 0.61015 -0.0457055
v 0.328563 0.736579 -0.0849235
v 0.324598 0.740625 -0.108922
v 0.310159 0.739332 -0.141297
v 0.15604 0.639353 -7.32702e-05
v 0.0624091 0.625406 -0.141297
v 0.155356 0.61015 -7.32702e-05
v 0.32632 0.738685 -0.100365
v 0.214641 0.61015 -0.0534883
v 0.203184 0.61015 -0.0855179
v 0.197496 0.61015 -0.0991343
v 0.189402 0.61015 -0.114368
v 0.184124 0.61015 -0.121985
v 0.184014 0.61015 -0.122137
v 0.176084 0.61015 -0.132643
v 0.16933 0.61015 -0.141297
v 0.155466 0.630497 -7.32702e-05
v 0.0626279 0.622338 -0.141297
v 0.15522 0.618723 -7.32702e-05
v 0.155138 0.625406 -7.32702e-05
v 0.0635303 0.61015 -0.141297
v 0.214559 0.61015 -0.0537786
v 0.209719 0.61015 -0.0694962
f 1 2 3
f 1 3 4
f 1 4 9
f 1 9 5
f 1 5 6
f 1 6 2
f 2 6 7
f 2 7 8
f 2 8 16
f 2 16 26
f 2 26 39
f 2 39 53
f 2 53 55
f 2 55 66
f 2 66 81
f 2 81 93
f 2 93 92
f 2 92 107
f 2 107 106
f 2 106 105
f 2 105 104
f 2 104 121
f 2 121 129
f 2 129 141
f 2 141 144
f 2 144 143
f 2 143 131
f 2 131 123
f 2 123 108
f 2 108 94
f 2 94 83
f 2 83 82
f 2 82 71
f 2 71 61
f 2 61 46
f 2 46 32
f 2 32 20
f 2 20 10
f 2 10 4
f 2 4 3
f 4 10 19
f 4 19 9
f 5 9 11
f 5 11 12
f 5 12 6
f 6 12 13
f 6 13 7
f 7 13 24
f 7 24 37
f 7 37 52
f 7 52 64
f 7 64 79
f 7 79 90
f 7 90 102
f 7 102 119
f 7 119 116
f 7 116 115
f 7 115 128
f 7 128 140
f 7 140 145
f 7 145 142
f 7 142 130
f 7 130 122
f 7 122 120
f 7 120 103
f 7 103 91
f 7 91 80
f 7 80 70
f 7 70 69
f 7 69 68
f 7 68 67
f 7 67 65
f 7 65 54
f 7 54 41
f 7 41 40
f 7 40 38
f 7 38 25
f 7 25 15
f 7 15 14
f 7 14 8
f 8 14 15
f 8 15 16
f 9 17 18
f 9 18 11
f 9 19 17
f 10 20 28
f 10 28 19
f 11 18 12
f 12 21 13
f 12 18 22
f 12 22 21
f 13 21 23
f 13 23 24
f 15 25 26
f 15 26 16
f 17 27 22
f 17 22 18
f 17 19 27
f 19 28 29
f 19 29 30
f 19 30 31
f 19 31 27
f 20 32 28
f 21 22 23
f 22 27 31
f 22 31 33
f 22 33 34
f 22 34 23
f 23 34 24
f 24 34 35
f 24 35 36
f 24 36 37
f 25 38 26
f 26 38 40
f 26 40 41
f 26 41 39
f 28 32 42
f 28 42 29
f 29 43 44
f 29 44 45
f 29 45 30
f 29 42 43
f 30 45 31
f 31 45 44
f 31 44 33
f 32 46 42
f 33 44 47
f 33 47 48
f 33 48 34
f 34 48 35
f 35 48 49
f 35 49 36
f 36 49 50
f 36 50 51
f 36 51 37
f 37 51 52
f 39 41 53
f 41 54 55
f 41 55 53
f 42 46 61
f 42 61 56
f 42 56 57
f 42 57 58
f 42 58 43
f 43 58 44
f 44 58 59
f 44 59 60
f 44 60 47
f 47 50 48
f 47 60 50
f 48 50 49
f 50 60 62
f 50 62 63
f 50 63 51
f 51 64 52
f 51 63 64
f 54 65 55
f 55 65 67
f 55 67 68
f 55 68 69
f 55 69 70
f 55 70 66
f 56 61 71
f 56 71 72
f 56 72 73
f 56 73 74
f 56 74 75
f 56 75 57
f 57 75 59
f 57 59 58
f 59 75 74
f 59 74 60
f 60 74 76
f 60 76 62
f 62 77 63
f 62 76 77
f 63 77 78
f 63 78 64
f 64 78 79
f 66 70 80
f 66 80 81
f 71 82 72
f 72 82 83
f 72 83 84
f 72 84 85
f 72 85 73
f 73 85 74
f 74 85 86
f 74 86 76
f 76 86 87
f 76 87 77
f 77 79 78
f 77 87 88
f 77 88 79
f 79 88 89
f 79 89 90
f 80 91 92
f 80 92 93
f 80 93 81
f 83 94 84
f 84 94 108
f 84 108 95
f 84 95 109
f 84 109 96
f 84 96 85
f 85 96 97
f 85 97 98
f 85 98 86
f 86 98 99
f 86 99 100
f 86 100 87
f 87 101 89
f 87 89 88
f 87 100 101
f 89 101 90
f 90 101 102
f 91 103 104
f 91 104 105
f 91 105 106
f 91 106 107
f 91 107 92
f 95 108 123
f 95 123 110
f 95 110 111
f 95 111 112
f 95 112 109
f 96 109 124
f 96 124 113
f 96 113 97
f 97 113 98
f 98 113 99
f 99 114 115
f 99 115 116
f 99 116 117
f 99 117 100
f 99 113 114
f 100 117 118
f 100 118 101
f 101 118 102
f 102 118 117
f 102 117 119
f 103 120 104
f 104 120 122
f 104 122 121
f 109 112 125
f 109 125 126
f 109 126 124
f 110 123 131
f 110 131 145
f 110 145 140
f 110 140 139
f 110 139 138
f 110 138 137
f 110 137 136
f 110 136 135
f 110 135 134
f 110 134 147
f 110 147 146
f 110 146 133
f 110 133 125
f 110 125 112
f 110 112 111
f 113 124 127
f 113 127 114
f 114 127 128
f 114 128 115
f 116 119 117
f 121 122 130
f 121 130 129
f 124 126 132
f 124 132 127
f 125 133 126
f 126 133 132
f 127 132 128
f 128 132 134
f 128 134 135
f 128 135 136
f 128 136 137
f 128 137 138
f 128 138 139
f 128 139 140
f 129 130 141
f 130 142 131
f 130 131 143
f 130 143 144
f 130 144 141
f 131 142 145
f 132 133 146
f 132 146 147
f 132 147 134
