v -0.365192 0.356923 0.16482
v -0.360372 0.356923 0.178082
v -0.35949 0.393768 0.16482
v -0.281998 0.356923 0.16482
v -0.356277 0.393768 0.17258
v -0.354377 0.356923 0.191845
v -0.353064 0.393768 0.180299
v -0.358789 0.396428 0.16482
v -0.237472 0.441253 0.16482
v -0.134051 0.441294 0.256733
v -0.134051 0.356923 0.296372
v -0.355237 0.401648 0.170049
v -0.345553 0.356923 0.207701
v -0.341729 0.393768 0.203601
v -0.347386 0.393768 0.193038
v -0.356323 0.403812 0.16482
v -0.240073 0.441294 0.16482
v -0.134051 0.441294 0.340509
v -0.134051 0.356923 0.378495
v -0.340349 0.40273 0.201635
v -0.342227 0.408404 0.192076
v -0.34958 0.40776 0.176157
v -0.34225 0.356923 0.212282
v -0.323018 0.356923 0.238325
v -0.335982 0.393768 0.21132
v -0.352295 0.411708 0.16482
v -0.327724 0.441294 0.16482
v -0.134051 0.428855 0.352306
v -0.158962 0.441294 0.330907
v -0.134051 0.391993 0.372701
v -0.140273 0.388152 0.371132
v -0.136766 0.356923 0.377533
v -0.32614 0.404778 0.218641
v -0.331751 0.4089 0.208161
v -0.33734 0.413022 0.196573
v -0.30795 0.398666 0.245939
v -0.293696 0.402078 0.262945
v -0.340168 0.417564 0.186281
v -0.309036 0.356923 0.256231
v -0.309511 0.388375 0.247968
v -0.322339 0.393768 0.229121
v -0.351051 0.413881 0.16482
v -0.328584 0.440419 0.16482
v -0.324873 0.441294 0.171304
v -0.134051 0.427269 0.353687
v -0.165545 0.430482 0.337894
v -0.179573 0.441294 0.321139
v -0.187266 0.43348 0.32549
v -0.177582 0.427575 0.335405
v -0.134051 0.395718 0.371718
v -0.137038 0.398452 0.369773
v -0.172582 0.393768 0.356281
v -0.180297 0.393768 0.35308
v -0.17808 0.356923 0.360381
v -0.167763 0.356923 0.364711
v -0.144119 0.356923 0.374521
v -0.285053 0.408256 0.269451
v -0.290664 0.412377 0.258971
v -0.323086 0.41507 0.214667
v -0.327045 0.419935 0.204375
v -0.29503 0.393768 0.264681
v -0.289103 0.393768 0.272379
v -0.279442 0.404134 0.279449
v -0.342023 0.419852 0.1776
v -0.331412 0.423899 0.191908
v -0.325484 0.43348 0.187264
v -0.335394 0.427575 0.1776
v -0.295415 0.356923 0.273509
v -0.343788 0.423891 0.16482
v -0.330575 0.438378 0.16482
v -0.32114 0.441294 0.179567
v -0.134051 0.421364 0.358749
v -0.19032 0.441294 0.315491
v -0.19756 0.430234 0.32185
v -0.191927 0.423899 0.331409
v -0.186293 0.417564 0.340174
v -0.177582 0.419852 0.342015
v -0.134051 0.400112 0.3704
v -0.170048 0.401648 0.355235
v -0.193035 0.393768 0.347391
v -0.183284 0.356923 0.358142
v -0.275912 0.414434 0.275914
v -0.294601 0.418324 0.248679
v -0.308855 0.416953 0.231673
v -0.280369 0.41958 0.265644
v -0.284917 0.424098 0.253846
v -0.289487 0.428616 0.242006
v -0.307678 0.431358 0.214646
v -0.321841 0.430234 0.197556
v -0.281387 0.393768 0.281374
v -0.272382 0.393768 0.289113
v -0.262925 0.402078 0.293715
v -0.269419 0.408256 0.285055
v -0.337906 0.430482 0.165552
v -0.33691 0.431853 0.16482
v -0.314285 0.441294 0.19218
v -0.285075 0.356923 0.285076
v -0.338969 0.429574 0.16482
v -0.143146 0.419158 0.356866
v -0.134051 0.409453 0.366175
v -0.214643 0.431358 0.307689
v -0.251477 0.441294 0.26899
v -0.204371 0.419935 0.327038
v -0.196587 0.413022 0.33735
v -0.192062 0.408404 0.342224
v -0.176157 0.40776 0.349587
v -0.162152 0.412633 0.352934
v -0.153441 0.416185 0.354733
v -0.162152 0.404911 0.356866
v -0.201633 0.402722 0.340341
v -0.203601 0.393768 0.341743
v -0.198669 0.356923 0.350486
v -0.258943 0.412377 0.290661
v -0.248671 0.418324 0.294615
v -0.265617 0.41958 0.28037
v -0.270391 0.424734 0.270413
v -0.275165 0.429879 0.259013
v -0.293447 0.432415 0.231715
v -0.280301 0.356923 0.289532
v -0.268898 0.356923 0.299049
v -0.24797 0.388375 0.309508
v -0.245933 0.398666 0.30796
v -0.218647 0.404778 0.326138
v -0.267043 0.441294 0.253679
v -0.258988 0.429879 0.275182
v -0.242019 0.428616 0.28949
v -0.260346 0.441294 0.260351
v -0.264871 0.434191 0.264912
v -0.231679 0.416953 0.30886
v -0.214665 0.41507 0.323084
v -0.25383 0.424098 0.28493
v -0.208149 0.4089 0.331744
v -0.211339 0.393768 0.335969
v -0.23039 0.356923 0.329067
v -0.207719 0.356923 0.34555
v -0.244508 0.356923 0.318231
f 1 2 3
f 1 3 8
f 1 8 16
f 1 16 26
f 1 26 42
f 1 42 69
f 1 69 98
f 1 98 95
f 1 95 70
f 1 70 43
f 1 43 27
f 1 27 17
f 1 17 9
f 1 9 4
f 1 4 11
f 1 11 19
f 1 19 32
f 1 32 56
f 1 56 55
f 1 55 54
f 1 54 81
f 1 81 112
f 1 112 135
f 1 135 134
f 1 134 136
f 1 136 120
f 1 120 119
f 1 119 97
f 1 97 68
f 1 68 39
f 1 39 24
f 1 24 23
f 1 23 13
f 1 13 6
f 1 6 2
f 2 5 3
f 2 6 7
f 2 7 5
f 3 5 8
f 4 9 10
f 4 10 11
f 5 12 8
f 5 7 12
f 6 13 14
f 6 14 15
f 6 15 7
f 7 15 12
f 8 12 16
f 9 17 10
f 10 18 28
f 10 28 45
f 10 45 72
f 10 72 100
f 10 100 78
f 10 78 50
f 10 50 30
f 10 30 19
f 10 19 11
f 10 17 27
f 10 27 44
f 10 44 71
f 10 71 96
f 10 96 124
f 10 124 127
f 10 127 102
f 10 102 73
f 10 73 47
f 10 47 29
f 10 29 18
f 12 15 20
f 12 20 21
f 12 21 22
f 12 22 16
f 13 23 14
f 14 23 24
f 14 24 25
f 14 25 20
f 14 20 15
f 16 22 26
f 18 29 28
f 19 30 31
f 19 31 32
f 20 33 34
f 20 34 35
f 20 35 21
f 20 25 36
f 20 36 37
f 20 37 33
f 21 35 38
f 21 38 22
f 22 38 26
f 24 39 40
f 24 40 25
f 25 40 41
f 25 41 36
f 26 38 42
f 27 43 44
f 28 29 46
f 28 46 45
f 29 47 48
f 29 48 49
f 29 49 46
f 30 50 51
f 30 51 31
f 31 51 52
f 31 52 53
f 31 53 54
f 31 54 55
f 31 55 56
f 31 56 32
f 33 37 57
f 33 57 58
f 33 58 34
f 34 58 59
f 34 59 35
f 35 59 60
f 35 60 38
f 36 41 40
f 36 40 61
f 36 61 62
f 36 62 37
f 37 62 63
f 37 63 57
f 38 64 42
f 38 60 65
f 38 65 66
f 38 66 67
f 38 67 64
f 39 68 40
f 40 68 62
f 40 62 61
f 42 64 69
f 43 70 66
f 43 66 44
f 44 66 71
f 45 46 49
f 45 49 72
f 47 73 48
f 48 73 74
f 48 74 75
f 48 75 76
f 48 76 49
f 49 76 77
f 49 77 72
f 50 78 51
f 51 78 79
f 51 79 52
f 52 79 53
f 53 80 81
f 53 81 54
f 53 79 80
f 57 63 82
f 57 82 58
f 58 82 83
f 58 83 84
f 58 84 59
f 59 84 60
f 60 84 83
f 60 83 85
f 60 85 86
f 60 86 87
f 60 87 88
f 60 88 89
f 60 89 66
f 60 66 65
f 62 68 90
f 62 90 63
f 63 90 91
f 63 91 92
f 63 92 93
f 63 93 82
f 64 67 94
f 64 94 69
f 66 70 95
f 66 95 94
f 66 94 67
f 66 89 96
f 66 96 71
f 68 97 90
f 69 94 98
f 72 99 100
f 72 77 99
f 73 101 74
f 73 102 101
f 74 103 75
f 74 101 103
f 75 103 76
f 76 103 104
f 76 104 105
f 76 105 106
f 76 106 107
f 76 107 108
f 76 108 99
f 76 99 77
f 78 100 79
f 79 109 106
f 79 106 105
f 79 105 110
f 79 110 80
f 79 100 109
f 80 110 111
f 80 111 112
f 80 112 81
f 82 93 113
f 82 113 114
f 82 114 115
f 82 115 116
f 82 116 85
f 82 85 83
f 85 116 117
f 85 117 86
f 86 117 87
f 87 117 88
f 88 117 118
f 88 118 96
f 88 96 89
f 90 119 91
f 90 97 119
f 91 119 120
f 91 120 121
f 91 121 122
f 91 122 92
f 92 113 93
f 92 122 110
f 92 110 123
f 92 123 113
f 94 95 98
f 96 118 124
f 99 108 100
f 100 108 109
f 101 102 125
f 101 125 126
f 101 126 103
f 102 127 128
f 102 128 125
f 103 129 130
f 103 130 104
f 103 126 131
f 103 131 115
f 103 115 114
f 103 114 129
f 104 130 132
f 104 132 110
f 104 110 105
f 106 109 107
f 107 109 108
f 110 133 111
f 110 132 123
f 110 122 133
f 111 133 134
f 111 134 135
f 111 135 112
f 113 123 130
f 113 130 129
f 113 129 114
f 115 125 116
f 115 131 125
f 116 125 128
f 116 128 117
f 117 128 124
f 117 124 118
f 120 136 121
f 121 136 134
f 121 134 133
f 121 133 122
f 123 132 130
f 124 128 127
f 125 131 126
