v -0.134051 0.453458 0.248486
v 7.2114e-05 0.480969 0.235934
v 7.2114e-05 0.477182 0.243646
v 7.2114e-05 0.475144 0.248486
v -0.134051 0.537937 0.248486
v -0.134051 0.481547 0.192103
v 7.2114e-05 0.484786 0.230259
v -0.134051 0.482292 0.190685
v -0.134051 0.490671 0.175713
v -0.134051 0.491645 0.174144
v -0.134051 0.501439 0.158754
v 7.2114e-05 0.556187 0.248486
v -0.126108 0.540355 0.248486
v -0.0540182 0.60879 0.214736
v -0.0546353 0.60879 0.21457
v -0.0694708 0.60879 0.209996
v -0.0706261 0.60879 0.209529
v -0.0856453 0.60879 0.203236
v -0.0991285 0.60879 0.197561
v -0.114489 0.60879 0.189566
v -0.122708 0.60879 0.183875
v -0.134051 0.60879 0.175345
v 7.2114e-05 0.488694 0.224501
v -0.134051 0.506731 0.15106
v -0.00405031 0.556187 0.248486
v 7.2114e-05 0.60879 0.22148
v -0.122419 0.541374 0.248486
v -0.0462723 0.60879 0.216239
v -0.134051 0.60879 0.0779859
v 7.2114e-05 0.491614 0.220679
v -0.134051 0.507035 0.150676
v 7.2114e-05 0.49461 0.216773
v -0.00772635 0.60879 0.22148
v -0.0540576 0.552978 0.248486
v 7.2114e-05 0.60879 0.155466
v -0.115802 0.542819 0.248486
v -0.0385789 0.60879 0.21744
v -0.134051 0.6007 0.0801724
v 7.2114e-05 0.59451 0.157319
v 7.2114e-05 0.579059 0.160457
v -0.134051 0.515521 0.140144
v 7.2114e-05 0.497956 0.21265
v -0.0231657 0.60879 0.219493
v -0.100363 0.545921 0.248486
v -0.0859079 0.548689 0.248486
v -0.0761139 0.550453 0.248486
v -0.0694839 0.551609 0.248486
v -0.0243211 0.60879 0.219343
v -0.134051 0.600122 0.0803393
v 7.2114e-05 0.569676 0.163828
v -0.134051 0.59451 0.0819918
v -0.134051 0.535245 0.118746
v 7.2114e-05 0.508632 0.199831
v 7.2114e-05 0.504967 0.204188
v 7.2114e-05 0.501378 0.208461
v 7.2114e-05 0.562133 0.166549
v -0.134051 0.58023 0.0871326
v -0.134051 0.538439 0.115791
v -0.134051 0.547944 0.107529
v 7.2114e-05 0.517315 0.192988
v 7.2114e-05 0.548811 0.172308
v -0.134051 0.565585 0.0954281
v 7.2114e-05 0.533907 0.180603
v -0.134051 0.563517 0.0966466
v 7.2114e-05 0.526197 0.186178
v 7.2114e-05 0.521711 0.189616
f 1 2 3
f 1 3 4
f 1 4 12
f 1 12 25
f 1 25 34
f 1 34 47
f 1 47 46
f 1 46 45
f 1 45 44
f 1 44 36
f 1 36 27
f 1 27 13
f 1 13 5
f 1 5 22
f 1 22 29
f 1 29 38
f 1 38 49
f 1 49 51
f 1 51 57
f 1 57 62
f 1 62 64
f 1 64 59
f 1 59 58
f 1 58 52
f 1 52 41
f 1 41 31
f 1 31 24
f 1 24 11
f 1 11 10
f 1 10 9
f 1 9 8
f 1 8 6
f 1 6 2
f 2 7 23
f 2 23 30
f 2 30 32
f 2 32 42
f 2 42 55
f 2 55 54
f 2 54 53
f 2 53 60
f 2 60 66
f 2 66 65
f 2 65 63
f 2 63 61
f 2 61 56
f 2 56 50
f 2 50 40
f 2 40 39
f 2 39 35
f 2 35 26
f 2 26 12
f 2 12 4
f 2 4 3
f 2 6 8
f 2 8 9
f 2 9 10
f 2 10 11
f 2 11 7
f 5 13 14
f 5 14 15
f 5 15 16
f 5 16 17
f 5 17 18
f 5 18 19
f 5 19 20
f 5 20 21
f 5 21 22
f 7 11 23
f 11 24 23
f 12 26 33
f 12 33 25
f 13 27 28
f 13 28 14
f 14 28 37
f 14 37 48
f 14 48 43
f 14 43 33
f 14 33 26
f 14 26 35
f 14 35 29
f 14 29 22
f 14 22 21
f 14 21 20
f 14 20 19
f 14 19 18
f 14 18 17
f 14 17 16
f 14 16 15
f 23 24 30
f 24 31 32
f 24 32 30
f 25 33 34
f 27 36 37
f 27 37 28
f 29 35 39
f 29 39 40
f 29 40 38
f 31 41 32
f 32 41 42
f 33 43 36
f 33 36 44
f 33 44 45
f 33 45 46
f 33 46 47
f 33 47 34
f 36 43 48
f 36 48 37
f 38 40 49
f 40 50 51
f 40 51 49
f 41 52 53
f 41 53 54
f 41 54 55
f 41 55 42
f 50 56 57
f 50 57 51
f 52 58 53
f 53 58 59
f 53 59 60
f 56 61 57
f 57 61 63
f 57 63 62
f 59 64 63
f 59 63 65
f 59 65 66
f 59 66 60
f 62 63 64
