v -0.125239 0.356914 -0.300027
v 7.2114e-05 0.356914 -0.326919
v -0.125239 0.356914 -0.381298
v -0.125239 -0.0222389 -0.367968
v 7.2114e-05 -0.0222389 -0.390262
v 7.2114e-05 0.356914 -0.40298
v -0.115131 0.356914 -0.386523
v -0.125239 0.337986 -0.392438
v -0.125239 -0.0222389 -0.437548
v 7.2114e-05 -0.0222389 -0.455598
v -0.00860003 0.356914 -0.403286
v 7.2114e-05 0.335203 -0.41464
v -0.101087 0.356914 -0.390952
v -0.112494 0.327854 -0.403194
v -0.11691 0.332605 -0.398981
v -0.125239 0.332234 -0.395717
v -0.116726 -0.0222389 -0.440352
v -0.125239 -0.0137027 -0.438007
v -0.00772914 -0.0222389 -0.455598
v 7.2114e-05 -0.0154842 -0.455889
v -0.0853859 0.356914 -0.393511
v -0.00772914 0.335203 -0.41464
v 7.2114e-05 0.327483 -0.41841
v -0.0954319 0.356914 -0.391948
v -0.100363 0.338469 -0.400789
v -0.11691 0.3175 -0.405156
v -0.122785 0.323289 -0.401172
v -0.125239 0.325776 -0.398919
v -0.100363 0.330749 -0.404589
v -0.100363 0.316535 -0.40986
v -0.115806 -0.0222389 -0.440643
v -0.125239 -0.0133687 -0.438023
v -0.115806 -0.00769032 -0.441286
v -0.0231722 -0.0222389 -0.453606
v -0.00772914 -0.00769032 -0.456211
v 7.2114e-05 -0.00769032 -0.456211
v -0.0921936 0.339582 -0.401417
v -0.00772914 0.327483 -0.41841
v 7.2114e-05 0.316535 -0.422057
v -0.115806 0.301095 -0.40894
v -0.125239 0.311561 -0.40347
v -0.125239 0.313603 -0.403041
v -0.125239 0.321656 -0.400651
v -0.0204859 0.325739 -0.417582
v -0.0307772 0.324217 -0.416908
v -0.0849198 0.316535 -0.411913
v -0.0623134 0.309075 -0.417
v -0.100363 0.301095 -0.412848
v -0.101295 -0.0222389 -0.443278
v -0.125239 -0.00769032 -0.438268
v -0.125239 0.00173656 -0.438498
v -0.125239 0.00774897 -0.438636
v -0.115806 0.00774897 -0.441639
v -0.100363 -0.00769032 -0.44406
v -0.0548188 -0.0222389 -0.449438
v -0.0540583 -0.00769032 -0.450158
v -0.0231722 -0.00769032 -0.454219
v -0.00772914 0.00774897 -0.456563
v 7.2114e-05 0.00774897 -0.456563
v -0.00772914 0.316535 -0.422057
v 7.2114e-05 0.308741 -0.423558
v -0.125239 0.301095 -0.405278
v -0.115806 0.177581 -0.427358
v -0.125239 0.177581 -0.424048
v -0.0246441 0.318056 -0.419436
v -0.0540583 0.311079 -0.417536
v -0.0386152 0.322399 -0.416387
v -0.0540583 0.318799 -0.415361
v -0.00772914 0.301095 -0.425029
v -0.00772914 0.177581 -0.442773
v -0.0231722 0.177581 -0.440781
v -0.0780508 0.18582 -0.432476
v -0.0883421 0.180847 -0.431786
v -0.0992466 0.176468 -0.430913
v -0.10365 0.165296 -0.431786
v -0.108373 0.155016 -0.432445
v -0.100363 -0.0222389 -0.443432
v -0.125239 0.0231883 -0.438299
v -0.115806 0.0231883 -0.441317
v -0.100363 0.0231883 -0.44409
v -0.100363 0.00774897 -0.444397
v -0.0849198 0.00774897 -0.446435
v -0.0649383 -0.0222389 -0.448105
v -0.085852 -0.0222389 -0.445347
v -0.0386152 0.00774897 -0.452533
v -0.0231722 0.00774897 -0.454556
v -0.0231722 0.0231883 -0.454249
v -0.00772914 0.0231883 -0.456241
v 7.2114e-05 0.0231883 -0.456241
v 7.2114e-05 0.301095 -0.425029
v -0.121228 0.134344 -0.431725
v -0.123693 0.124063 -0.43243
v -0.125239 0.125548 -0.431587
v -0.00243018 0.141395 -0.448105
v -0.00772914 0.162142 -0.44478
v -0.0231722 0.162142 -0.442788
v -0.0540583 0.177581 -0.436736
v -0.0838895 0.176468 -0.432951
v -0.0331077 0.110405 -0.448105
v -0.0694768 0.115824 -0.44262
v -0.100363 0.115824 -0.438544
v -0.115806 0.100385 -0.437425
v -0.115806 0.115824 -0.435586
v -0.125239 0.0806773 -0.435862
v -0.125239 0.0849454 -0.435678
v -0.115806 0.0386275 -0.440643
v -0.100363 0.0849454 -0.441455
v -0.0540583 0.0231883 -0.450189
v -0.0694768 0.0849454 -0.445531
v -0.0492377 0.0849454 -0.448197
v -0.00772914 0.0540668 -0.454939
v -0.0231722 0.0849454 -0.451629
v 7.2114e-05 0.0308337 -0.455919
v 7.2114e-05 0.141395 -0.448105
v -0.125055 0.115824 -0.432997
v -0.125239 0.116344 -0.432859
v -0.00763101 0.146591 -0.446787
v -0.00772914 0.100385 -0.452487
v -0.00772914 0.115824 -0.45071
v -0.0127214 0.136274 -0.447461
v -0.0178119 0.125993 -0.44812
v -0.0231722 0.146703 -0.444765
v -0.0230373 0.115676 -0.448749
v -0.0231722 0.100385 -0.450495
v -0.0434113 0.104393 -0.447415
v -0.100363 0.100385 -0.440336
v -0.125239 0.100385 -0.434606
v -0.125239 0.114673 -0.433073
v -0.115806 0.0849454 -0.438605
v -0.125239 0.0975269 -0.43482
v -0.0474468 0.0940754 -0.447952
v 7.2114e-05 0.0540668 -0.454939
v -0.00772914 0.0849454 -0.453621
v 7.2114e-05 0.0771515 -0.453958
v 7.2114e-05 0.100385 -0.452487
v 7.2114e-05 0.0925908 -0.453069
v -0.0383944 0.0997166 -0.448565
v -0.0531751 0.0997166 -0.446619
v 7.2114e-05 0.0849454 -0.453621
f 1 2 6
f 1 6 11
f 1 11 21
f 1 21 24
f 1 24 13
f 1 13 7
f 1 7 3
f 1 3 8
f 1 8 16
f 1 16 28
f 1 28 43
f 1 43 42
f 1 42 41
f 1 41 62
f 1 62 64
f 1 64 93
f 1 93 116
f 1 116 128
f 1 128 127
f 1 127 130
f 1 130 105
f 1 105 104
f 1 104 78
f 1 78 52
f 1 52 51
f 1 51 50
f 1 50 32
f 1 32 18
f 1 18 9
f 1 9 4
f 1 4 5
f 1 5 2
f 2 5 10
f 2 10 20
f 2 20 36
f 2 36 59
f 2 59 89
f 2 89 113
f 2 113 132
f 2 132 134
f 2 134 139
f 2 139 136
f 2 136 135
f 2 135 114
f 2 114 90
f 2 90 61
f 2 61 39
f 2 39 23
f 2 23 12
f 2 12 6
f 3 7 8
f 4 9 17
f 4 17 31
f 4 31 49
f 4 49 77
f 4 77 84
f 4 84 83
f 4 83 55
f 4 55 34
f 4 34 19
f 4 19 10
f 4 10 5
f 6 12 11
f 7 13 14
f 7 14 15
f 7 15 16
f 7 16 8
f 9 18 17
f 10 19 20
f 11 12 22
f 11 22 21
f 12 23 38
f 12 38 22
f 13 24 25
f 13 25 14
f 14 26 27
f 14 27 28
f 14 28 16
f 14 16 15
f 14 25 29
f 14 29 30
f 14 30 26
f 17 18 32
f 17 32 33
f 17 33 31
f 19 34 57
f 19 57 35
f 19 35 20
f 20 35 36
f 21 22 37
f 21 37 25
f 21 25 24
f 22 38 37
f 23 39 60
f 23 60 38
f 25 37 29
f 26 30 40
f 26 40 41
f 26 41 42
f 26 42 27
f 27 42 43
f 27 43 28
f 29 44 45
f 29 45 30
f 29 37 44
f 30 46 47
f 30 47 48
f 30 48 40
f 30 45 46
f 31 33 49
f 32 50 33
f 33 50 51
f 33 51 52
f 33 52 53
f 33 53 54
f 33 54 49
f 34 55 56
f 34 56 57
f 35 57 58
f 35 58 59
f 35 59 36
f 37 38 44
f 38 60 44
f 39 61 60
f 40 62 41
f 40 48 63
f 40 63 64
f 40 64 62
f 44 60 45
f 45 60 65
f 45 65 66
f 45 66 67
f 45 67 46
f 46 66 47
f 46 67 68
f 46 68 66
f 47 66 60
f 47 60 69
f 47 69 70
f 47 70 71
f 47 71 72
f 47 72 73
f 47 73 74
f 47 74 48
f 48 74 75
f 48 75 76
f 48 76 63
f 49 54 77
f 52 78 79
f 52 79 53
f 53 79 80
f 53 80 81
f 53 81 54
f 54 81 82
f 54 82 85
f 54 85 56
f 54 56 55
f 54 55 83
f 54 83 84
f 54 84 77
f 56 85 57
f 57 85 86
f 57 86 58
f 58 86 87
f 58 87 88
f 58 88 89
f 58 89 59
f 60 61 69
f 60 66 65
f 61 90 69
f 63 76 91
f 63 91 92
f 63 92 64
f 64 92 93
f 66 68 67
f 69 90 114
f 69 114 94
f 69 94 70
f 70 94 95
f 70 95 96
f 70 96 71
f 71 96 97
f 71 97 72
f 72 97 73
f 73 97 98
f 73 98 74
f 74 98 75
f 75 98 97
f 75 97 96
f 75 96 99
f 75 99 100
f 75 100 101
f 75 101 76
f 76 101 102
f 76 102 103
f 76 103 92
f 76 92 91
f 78 104 79
f 79 104 105
f 79 105 106
f 79 106 107
f 79 107 80
f 80 108 85
f 80 85 82
f 80 82 81
f 80 107 109
f 80 109 110
f 80 110 108
f 85 108 87
f 85 87 86
f 87 111 88
f 87 108 112
f 87 112 111
f 88 111 113
f 88 113 89
f 92 103 102
f 92 102 115
f 92 115 116
f 92 116 93
f 94 117 95
f 94 114 135
f 94 135 118
f 94 118 119
f 94 119 117
f 95 117 120
f 95 120 96
f 96 120 121
f 96 121 122
f 96 122 99
f 99 121 123
f 99 123 119
f 99 119 118
f 99 118 124
f 99 124 125
f 99 125 126
f 99 126 101
f 99 101 100
f 99 122 121
f 101 126 102
f 102 127 128
f 102 128 115
f 102 126 129
f 102 129 127
f 105 129 106
f 105 130 129
f 106 129 107
f 107 129 126
f 107 126 131
f 107 131 109
f 108 110 112
f 109 131 110
f 110 131 112
f 111 132 113
f 111 112 133
f 111 133 134
f 111 134 132
f 112 131 133
f 115 128 116
f 117 119 120
f 118 135 136
f 118 136 133
f 118 133 131
f 118 131 124
f 119 123 121
f 119 121 120
f 124 131 137
f 124 137 125
f 125 137 126
f 126 137 138
f 126 138 131
f 127 129 130
f 131 138 137
f 133 136 139
f 133 139 134
