v -0.426803 -0.238962 -7.32645e-05
v -0.424901 -0.247149 -7.32645e-05
v -0.426803 -0.238962 0.00770608
v -0.359639 -0.238962 -7.32645e-05
v -0.423101 -0.254792 -7.32645e-05
v -0.423101 -0.254792 0.00772528
v -0.424717 -0.239365 0.0231687
v -0.424798 -0.238962 0.0231687
v -0.421117 -0.254792 0.0231687
v -0.417272 -0.248498 0.064428
v -0.300104 -0.238962 0.196158
v -0.217868 -0.418052 0.196158
v -0.294132 -0.418052 -7.32645e-05
v -0.417088 -0.27851 -7.32645e-05
v -0.418724 -0.270832 0.00699537
v -0.418049 -0.266204 0.0231687
v -0.417333 -0.263873 0.0340406
v -0.416659 -0.261488 0.0443362
v -0.417088 -0.27851 0.00134814
v -0.420647 -0.239365 0.0540556
v -0.418561 -0.238962 0.070517
v -0.416597 -0.245553 0.0747044
v -0.415922 -0.242433 0.0849424
v -0.418479 -0.239979 0.0695374
v -0.416025 -0.258947 0.0540556
v -0.412977 -0.254792 0.0849424
v -0.410912 -0.254792 0.100367
v -0.377821 -0.238962 0.196158
v -0.308346 -0.418052 0.196158
v -0.366061 -0.418052 -7.32645e-05
v -0.402076 -0.32621 -7.32645e-05
v -0.414552 -0.284471 0.00699537
v -0.416434 -0.276389 0.0116438
v -0.414961 -0.269517 0.0389579
v -0.410728 -0.270236 0.069499
v -0.401422 -0.324072 0.0149284
v -0.403242 -0.314588 0.0231687
v -0.408682 -0.270236 0.0849424
v -0.406596 -0.270236 0.100367
v -0.402076 -0.32621 0.00463276
v -0.416659 -0.238962 0.0849424
v -0.415145 -0.238962 0.0964098
v -0.402036 -0.279755 0.10951
v -0.406944 -0.254792 0.11581
v -0.410687 -0.239365 0.11581
v -0.410789 -0.238962 0.115791
v -0.414736 -0.238962 0.0993486
v -0.379191 -0.238962 0.192989
v -0.3778 -0.239067 0.196158
v -0.308939 -0.416965 0.196158
v -0.309512 -0.418052 0.194622
v -0.366061 -0.418052 0.00772528
v -0.368658 -0.412092 -7.32645e-05
v -0.394509 -0.34744 -7.32645e-05
v -0.400195 -0.304631 0.069499
v -0.399459 -0.300318 0.0851153
v -0.399847 -0.331592 0.00897382
v -0.397884 -0.331995 0.0231687
v -0.39181 -0.331995 0.069499
v -0.401177 -0.292412 0.0903784
v -0.402854 -0.28242 0.100367
v -0.394509 -0.34744 0.00772528
v -0.399949 -0.273286 0.119805
v -0.401627 -0.262996 0.123897
v -0.403201 -0.268974 0.115119
v -0.386145 -0.340024 0.0932212
v -0.384999 -0.336588 0.103498
v -0.386697 -0.326316 0.109702
v -0.402751 -0.254792 0.126586
v -0.404388 -0.239365 0.131926
v -0.40449 -0.238962 0.131907
v -0.38414 -0.238962 0.18106
v -0.387372 -0.239365 0.173051
v -0.379089 -0.239365 0.193008
v -0.373874 -0.25495 0.196158
v -0.311578 -0.411776 0.196158
v -0.312907 -0.418052 0.189973
v -0.368658 -0.412092 0.00772528
v -0.35606 -0.418052 0.0849424
v -0.386124 -0.370825 -7.32645e-05
v -0.389765 -0.331995 0.0849424
v -0.386717 -0.341497 0.0849424
v -0.386124 -0.370825 0.000733485
v -0.388292 -0.363585 0.0066112
v -0.387781 -0.359501 0.0231687
v -0.392526 -0.34744 0.0231687
v -0.38457 -0.319829 0.119997
v -0.386267 -0.309539 0.12407
v -0.356878 -0.316569 0.189455
v -0.372217 -0.270236 0.189186
v -0.384938 -0.258456 0.167211
v -0.371051 -0.264889 0.196158
v -0.373137 -0.257737 0.196158
v -0.383711 -0.349228 0.0849424
v -0.378291 -0.362884 0.0849424
v -0.355283 -0.417228 0.0930675
v -0.382381 -0.346072 0.0991565
v -0.370356 -0.370036 0.107262
v -0.372565 -0.359729 0.112852
v -0.375448 -0.348755 0.117116
v -0.382647 -0.331662 0.115234
v -0.370458 -0.339288 0.138629
v -0.394427 -0.254792 0.146697
v -0.386329 -0.248165 0.170554
v -0.40089 -0.244502 0.137535
v -0.404367 -0.238962 0.132214
v -0.404224 -0.238962 0.13256
v -0.374426 -0.255879 0.194257
v -0.320576 -0.393737 0.196158
v -0.316118 -0.408235 0.192374
v -0.319411 -0.418052 0.178909
v -0.32436 -0.401714 0.18544
v -0.361725 -0.409199 0.069499
v -0.368106 -0.408323 0.0236681
v -0.371051 -0.40259 0.0188469
v -0.355651 -0.418052 0.0880158
v -0.35968 -0.409199 0.0849424
v -0.38774 -0.344144 0.069499
v -0.380234 -0.378311 0.0231687
v -0.383015 -0.361552 0.0531912
v -0.386185 -0.355521 0.0474671
v -0.385511 -0.353821 0.0577628
v -0.357246 -0.330996 0.177104
v -0.353749 -0.335484 0.181944
v -0.355733 -0.31159 0.196158
v -0.358167 -0.304192 0.196158
v -0.369129 -0.270815 0.196158
v -0.382341 -0.253915 0.176451
v -0.388292 -0.253915 0.162083
v -0.384733 -0.351857 0.069499
v -0.380336 -0.362884 0.069499
v -0.365897 -0.393755 0.0849424
v -0.354608 -0.418052 0.0938551
v -0.353401 -0.412845 0.103325
v -0.35561 -0.402555 0.109202
v -0.363341 -0.378311 0.11581
v -0.370438 -0.354785 0.123148
v -0.372585 -0.344495 0.128334
v -0.355896 -0.341532 0.171648
v -0.324012 -0.38669 0.196158
v -0.321906 -0.412004 0.180177
v -0.323194 -0.418052 0.170976
v -0.337592 -0.358344 0.196158
v -0.339371 -0.354592 0.196158
v -0.341212 -0.35035 0.196158
v -0.343728 -0.347703 0.19345
v -0.341314 -0.358887 0.18859
v -0.339106 -0.369177 0.183826
v -0.325669 -0.407797 0.176047
v -0.324278 -0.416948 0.169881
v -0.373546 -0.379573 0.0701521
v -0.351336 -0.346984 0.177104
v -0.350845 -0.330996 0.191913
v -0.353033 -0.319356 0.196158
v -0.353729 -0.317358 0.196158
v -0.351806 -0.418052 0.101212
v -0.346161 -0.418052 0.115291
v -0.341335 -0.418052 0.127316
v -0.350763 -0.408305 0.114927
v -0.357696 -0.362341 0.146063
v -0.355712 -0.387321 0.124857
v -0.355876 -0.356836 0.156167
v -0.353749 -0.351822 0.166462
v -0.32481 -0.418052 0.167307
v -0.34295 -0.346248 0.196158
v -0.336917 -0.409532 0.1471
v -0.34383 -0.363568 0.178237
v -0.33884 -0.414896 0.136862
v -0.340271 -0.418052 0.129909
f 1 2 3
f 1 3 8
f 1 8 21
f 1 21 41
f 1 41 42
f 1 42 47
f 1 47 46
f 1 46 71
f 1 71 106
f 1 106 107
f 1 107 72
f 1 72 48
f 1 48 28
f 1 28 11
f 1 11 4
f 1 4 13
f 1 13 30
f 1 30 53
f 1 53 80
f 1 80 54
f 1 54 31
f 1 31 14
f 1 14 5
f 1 5 2
f 2 5 6
f 2 6 3
f 3 7 8
f 3 6 9
f 3 9 10
f 3 10 7
f 4 11 12
f 4 12 13
f 5 14 19
f 5 19 6
f 6 15 16
f 6 16 17
f 6 17 18
f 6 18 9
f 6 19 15
f 7 20 21
f 7 21 8
f 7 10 22
f 7 22 23
f 7 23 24
f 7 24 20
f 9 18 25
f 9 25 10
f 10 25 26
f 10 26 27
f 10 27 22
f 11 28 49
f 11 49 75
f 11 75 93
f 11 93 92
f 11 92 127
f 11 127 126
f 11 126 125
f 11 125 155
f 11 155 154
f 11 154 165
f 11 165 145
f 11 145 144
f 11 144 143
f 11 143 140
f 11 140 109
f 11 109 76
f 11 76 50
f 11 50 29
f 11 29 12
f 12 29 51
f 12 51 77
f 12 77 111
f 12 111 142
f 12 142 164
f 12 164 169
f 12 169 158
f 12 158 157
f 12 157 156
f 12 156 133
f 12 133 116
f 12 116 79
f 12 79 52
f 12 52 30
f 12 30 13
f 14 31 40
f 14 40 19
f 15 19 32
f 15 32 33
f 15 33 16
f 16 34 35
f 16 35 17
f 16 33 36
f 16 36 37
f 16 37 34
f 17 35 38
f 17 38 18
f 18 38 39
f 18 39 27
f 18 27 25
f 19 40 32
f 20 24 21
f 21 24 41
f 22 27 23
f 23 42 24
f 23 27 42
f 24 42 41
f 25 27 26
f 27 39 43
f 27 43 44
f 27 44 45
f 27 45 46
f 27 46 47
f 27 47 42
f 28 48 49
f 29 50 51
f 30 52 78
f 30 78 53
f 31 54 62
f 31 62 40
f 32 40 36
f 32 36 33
f 34 37 35
f 35 37 55
f 35 55 56
f 35 56 38
f 36 55 37
f 36 40 57
f 36 57 58
f 36 58 59
f 36 59 55
f 38 56 60
f 38 60 39
f 39 60 61
f 39 61 43
f 40 62 57
f 43 63 64
f 43 64 65
f 43 65 44
f 43 61 66
f 43 66 67
f 43 67 68
f 43 68 63
f 44 65 64
f 44 64 69
f 44 69 45
f 45 69 70
f 45 70 71
f 45 71 46
f 48 72 73
f 48 73 74
f 48 74 49
f 49 74 75
f 50 76 51
f 51 76 77
f 52 79 78
f 53 78 83
f 53 83 80
f 54 80 83
f 54 83 62
f 55 59 56
f 56 59 81
f 56 81 60
f 57 62 82
f 57 82 58
f 58 82 66
f 58 66 59
f 59 66 81
f 60 81 66
f 60 66 61
f 62 83 84
f 62 84 85
f 62 85 86
f 62 86 82
f 63 68 87
f 63 87 88
f 63 88 89
f 63 89 90
f 63 90 64
f 64 91 69
f 64 90 92
f 64 92 93
f 64 93 91
f 66 82 94
f 66 94 95
f 66 95 96
f 66 96 97
f 66 97 67
f 67 97 96
f 67 96 98
f 67 98 99
f 67 99 100
f 67 100 68
f 68 100 101
f 68 101 102
f 68 102 87
f 69 91 103
f 69 103 104
f 69 104 105
f 69 105 70
f 70 106 71
f 70 105 106
f 72 107 73
f 73 104 74
f 73 107 106
f 73 106 105
f 73 105 104
f 74 104 75
f 75 104 108
f 75 108 93
f 76 109 110
f 76 110 77
f 77 110 112
f 77 112 111
f 78 79 113
f 78 113 114
f 78 114 115
f 78 115 84
f 78 84 83
f 79 116 117
f 79 117 113
f 82 86 118
f 82 118 94
f 84 119 85
f 84 115 119
f 85 119 120
f 85 120 121
f 85 121 86
f 86 121 122
f 86 122 118
f 87 102 88
f 88 102 89
f 89 102 123
f 89 123 124
f 89 124 125
f 89 125 126
f 89 126 90
f 90 126 127
f 90 127 92
f 91 128 129
f 91 129 103
f 91 93 128
f 93 108 128
f 94 118 130
f 94 130 95
f 95 130 122
f 95 122 131
f 95 131 132
f 95 132 96
f 96 132 117
f 96 117 116
f 96 116 133
f 96 133 134
f 96 134 98
f 98 134 135
f 98 135 99
f 99 135 136
f 99 136 137
f 99 137 100
f 100 137 138
f 100 138 102
f 100 102 101
f 102 138 139
f 102 139 124
f 102 124 123
f 103 129 104
f 104 129 128
f 104 128 108
f 109 140 112
f 109 112 110
f 111 112 141
f 111 141 142
f 112 140 143
f 112 143 144
f 112 144 145
f 112 145 146
f 112 146 147
f 112 147 148
f 112 148 149
f 112 149 150
f 112 150 141
f 113 117 132
f 113 132 151
f 113 151 115
f 113 115 114
f 115 151 131
f 115 131 119
f 118 122 130
f 119 131 120
f 120 131 121
f 121 131 122
f 124 139 152
f 124 152 146
f 124 146 153
f 124 153 154
f 124 154 155
f 124 155 125
f 131 151 132
f 133 156 134
f 134 156 157
f 134 157 158
f 134 158 159
f 134 159 135
f 135 159 136
f 136 160 137
f 136 159 161
f 136 161 160
f 137 160 162
f 137 162 163
f 137 163 139
f 137 139 138
f 139 163 152
f 141 150 142
f 142 150 164
f 145 165 146
f 146 165 153
f 146 152 147
f 147 152 148
f 148 166 150
f 148 150 149
f 148 152 167
f 148 167 162
f 148 162 160
f 148 160 161
f 148 161 166
f 150 166 168
f 150 168 169
f 150 169 164
f 152 163 167
f 153 165 154
f 158 169 168
f 158 168 159
f 159 168 161
f 161 168 166
f 162 167 163
