v 0.245413 0.451938 0.142602
v 0.245413 0.536518 0.142602
v 0.245413 0.476426 -7.32587e-05
v 0.292858 0.356914 0.142602
v 0.283557 0.513 0.142602
v 0.245413 0.539406 0.136373
v 0.245413 0.558969 -7.32587e-05
v 0.326915 0.356914 -7.32587e-05
v 0.375131 0.356914 0.142602
v 0.291038 0.507639 0.142602
v 0.292318 0.508747 0.136443
v 0.294447 0.510349 0.12615
v 0.296575 0.511793 0.115802
v 0.262488 0.540435 0.0925484
v 0.247866 0.540988 0.125536
v 0.245598 0.539505 0.135829
v 0.245413 0.539643 0.135689
v 0.245413 0.558969 0.00565275
v 0.270246 0.545538 -7.32587e-05
v 0.402988 0.356914 -7.32587e-05
v 0.377537 0.356914 0.13675
v 0.371136 0.388167 0.140256
v 0.370396 0.385556 0.142602
v 0.293275 0.505622 0.142602
v 0.304303 0.50572 0.115802
v 0.306894 0.508015 0.103428
v 0.309038 0.509716 0.093135
v 0.264508 0.54172 0.0822556
v 0.249809 0.542155 0.115802
v 0.245413 0.541879 0.127212
v 0.245413 0.553035 0.0694908
v 0.254806 0.548663 0.0694908
v 0.254806 0.550048 0.0540585
v 0.26767 0.543679 0.0540585
v 0.26875 0.544193 0.0386122
v 0.270246 0.545538 0.00773366
v 0.274442 0.543204 -7.32587e-05
v 0.402988 0.356914 0.00505222
v 0.397543 0.393785 -7.32587e-05
v 0.382936 0.356914 0.12305
v 0.373311 0.393488 0.131625
v 0.368283 0.395347 0.142602
v 0.369579 0.390363 0.142602
v 0.379774 0.393785 0.115802
v 0.299398 0.500024 0.142602
v 0.312755 0.498006 0.115802
v 0.315933 0.501428 0.098861
v 0.324941 0.494841 0.0942942
v 0.317953 0.503822 0.0849231
v 0.310226 0.510646 0.0849231
v 0.266328 0.542887 0.0694908
v 0.256318 0.545004 0.0864174
v 0.253048 0.543817 0.100369
v 0.245413 0.544351 0.115802
v 0.245413 0.542907 0.122575
v 0.245413 0.550127 0.0857051
v 0.275398 0.538595 0.0540585
v 0.276478 0.539406 0.0386122
v 0.277326 0.540019 0.0265038
v 0.278051 0.540533 0.016197
v 0.27856 0.54089 0.00773366
v 0.27856 0.54089 -7.32587e-05
v 0.399748 0.378336 0.00773366
v 0.394766 0.356914 0.075552
v 0.397543 0.393785 0.00773366
v 0.394751 0.401578 -7.32587e-05
v 0.389029 0.356914 0.107422
v 0.369779 0.398453 0.137016
v 0.36236 0.410004 0.142602
v 0.384509 0.394121 0.10097
v 0.373959 0.409312 0.11548
v 0.371923 0.404228 0.126723
v 0.385697 0.378336 0.106528
v 0.307234 0.492151 0.142602
v 0.308282 0.493477 0.13763
v 0.310365 0.495712 0.127337
v 0.326082 0.496107 0.0849231
v 0.322828 0.492349 0.104587
v 0.328889 0.48689 0.0998107
v 0.339146 0.477692 0.0893502
v 0.334658 0.485129 0.0844901
v 0.319558 0.505265 0.0694908
v 0.31183 0.511872 0.0694908
v 0.274056 0.537626 0.0694908
v 0.245413 0.545795 0.108972
v 0.312863 0.512584 0.0540585
v 0.313881 0.513237 0.0386122
v 0.32366 0.509063 0.00773366
v 0.32366 0.509063 -7.32587e-05
v 0.393517 0.356914 0.0853839
v 0.386807 0.403239 0.0694908
v 0.386206 0.401894 0.0785267
v 0.395553 0.393785 0.023166
v 0.392005 0.409213 0.00773366
v 0.392005 0.409213 -7.32587e-05
v 0.390957 0.356914 0.101082
v 0.369285 0.414534 0.12041
v 0.356977 0.419301 0.142602
v 0.385527 0.399481 0.0888195
v 0.378941 0.409213 0.100369
v 0.386792 0.389196 0.0962214
v 0.371429 0.418055 0.110104
v 0.313326 0.484101 0.142602
v 0.326344 0.481569 0.115802
v 0.335136 0.487839 0.0694908
v 0.327409 0.497551 0.0694908
v 0.339995 0.479136 0.0790574
v 0.372879 0.420033 0.100369
v 0.374406 0.422031 0.0849231
v 0.320576 0.506294 0.0540585
v 0.328442 0.49858 0.0540585
v 0.321609 0.507283 0.0386122
v 0.322627 0.508213 0.023166
v 0.330524 0.500479 0.023166
v 0.333162 0.499925 0.00635104
v 0.339748 0.494169 0.000289854
v 0.339748 0.494169 -7.32587e-05
v 0.387825 0.405455 0.0540585
v 0.382597 0.407927 0.0841689
v 0.391481 0.393785 0.0540585
v 0.38744 0.394121 0.0841689
v 0.389568 0.41396 -7.32587e-05
v 0.387178 0.418609 0.00773366
v 0.386484 0.41758 0.0188226
v 0.385805 0.416492 0.0291154
v 0.388843 0.407532 0.0386122
v 0.324586 0.479156 0.124307
v 0.389445 0.393785 0.0694908
v 0.337203 0.490826 0.0386122
v 0.340643 0.480125 0.0694908
v 0.338252 0.49225 0.023166
v 0.339085 0.493338 0.0105827
v 0.383121 0.410954 0.0694908
v 0.384139 0.413169 0.0540585
v 0.385157 0.415266 0.0386122
v 0.329491 0.499569 0.0386122
v 0.343727 0.487483 0.00635104
v 0.387178 0.418609 -7.32587e-05
v 0.343697 0.484516 0.023166
v 0.342663 0.483112 0.0386122
v 0.341645 0.481628 0.0540585
f 1 2 6
f 1 6 17
f 1 17 30
f 1 30 55
f 1 55 54
f 1 54 85
f 1 85 56
f 1 56 31
f 1 31 18
f 1 18 7
f 1 7 3
f 1 3 4
f 1 4 9
f 1 9 23
f 1 23 43
f 1 43 42
f 1 42 69
f 1 69 98
f 1 98 103
f 1 103 74
f 1 74 45
f 1 45 24
f 1 24 10
f 1 10 5
f 1 5 2
f 2 5 6
f 3 7 19
f 3 19 37
f 3 37 62
f 3 62 89
f 3 89 117
f 3 117 138
f 3 138 122
f 3 122 95
f 3 95 66
f 3 66 39
f 3 39 20
f 3 20 8
f 3 8 4
f 4 8 20
f 4 20 38
f 4 38 64
f 4 64 90
f 4 90 96
f 4 96 67
f 4 67 40
f 4 40 21
f 4 21 9
f 5 10 11
f 5 11 12
f 5 12 13
f 5 13 14
f 5 14 15
f 5 15 16
f 5 16 6
f 6 16 17
f 7 18 36
f 7 36 19
f 9 21 22
f 9 22 23
f 10 24 25
f 10 25 26
f 10 26 11
f 11 27 12
f 11 26 27
f 12 27 13
f 13 27 14
f 14 28 15
f 14 27 28
f 15 28 29
f 15 29 30
f 15 30 17
f 15 17 16
f 18 31 32
f 18 32 33
f 18 33 34
f 18 34 35
f 18 35 36
f 19 36 37
f 20 39 65
f 20 65 38
f 21 40 22
f 22 41 42
f 22 42 43
f 22 43 23
f 22 40 44
f 22 44 41
f 24 45 46
f 24 46 25
f 25 46 26
f 26 46 47
f 26 47 27
f 27 47 48
f 27 48 49
f 27 49 50
f 27 50 28
f 28 51 32
f 28 32 52
f 28 52 53
f 28 53 29
f 28 50 51
f 29 53 54
f 29 54 55
f 29 55 30
f 31 56 52
f 31 52 32
f 32 51 34
f 32 34 33
f 34 51 57
f 34 57 58
f 34 58 59
f 34 59 60
f 34 60 61
f 34 61 35
f 35 61 36
f 36 61 37
f 37 61 62
f 38 63 64
f 38 65 63
f 39 66 65
f 40 67 44
f 41 44 68
f 41 68 42
f 42 68 69
f 44 70 71
f 44 71 72
f 44 72 68
f 44 67 73
f 44 73 70
f 45 74 75
f 45 75 76
f 45 76 46
f 46 76 48
f 46 48 47
f 48 77 49
f 48 76 75
f 48 75 78
f 48 78 79
f 48 79 80
f 48 80 81
f 48 81 77
f 49 82 50
f 49 77 82
f 50 82 83
f 50 83 84
f 50 84 51
f 51 84 57
f 52 56 85
f 52 85 53
f 53 85 54
f 57 84 83
f 57 83 58
f 58 83 59
f 59 83 60
f 60 83 86
f 60 86 87
f 60 87 88
f 60 88 61
f 61 88 89
f 61 89 62
f 63 65 64
f 64 65 90
f 65 91 92
f 65 92 93
f 65 93 90
f 65 66 94
f 65 94 91
f 66 95 94
f 67 96 73
f 68 72 69
f 69 97 98
f 69 72 97
f 70 99 100
f 70 100 71
f 70 73 101
f 70 101 99
f 71 100 102
f 71 102 97
f 71 97 72
f 73 96 101
f 74 103 104
f 74 104 78
f 74 78 75
f 77 81 105
f 77 105 106
f 77 106 82
f 78 104 79
f 79 104 80
f 80 107 81
f 80 104 102
f 80 102 108
f 80 108 109
f 80 109 107
f 81 107 105
f 82 110 83
f 82 106 111
f 82 111 110
f 83 110 112
f 83 112 113
f 83 113 88
f 83 88 86
f 86 88 87
f 88 113 114
f 88 114 115
f 88 115 116
f 88 116 117
f 88 117 89
f 90 93 101
f 90 101 96
f 91 118 119
f 91 119 92
f 91 94 118
f 92 119 99
f 92 99 93
f 93 120 101
f 93 99 121
f 93 121 120
f 94 95 122
f 94 122 123
f 94 123 124
f 94 124 125
f 94 125 126
f 94 126 118
f 97 102 98
f 98 102 127
f 98 127 103
f 99 101 121
f 99 119 100
f 100 108 102
f 100 119 108
f 101 120 128
f 101 128 121
f 102 104 127
f 103 127 104
f 105 129 106
f 105 107 130
f 105 130 129
f 106 129 131
f 106 131 132
f 106 132 116
f 106 116 111
f 107 109 125
f 107 125 130
f 108 119 109
f 109 119 133
f 109 133 134
f 109 134 135
f 109 135 125
f 110 111 136
f 110 136 112
f 111 116 136
f 112 136 113
f 113 136 114
f 114 136 116
f 114 116 115
f 116 132 137
f 116 137 123
f 116 123 138
f 116 138 117
f 118 126 135
f 118 135 134
f 118 134 119
f 119 134 133
f 120 121 128
f 122 138 123
f 123 137 139
f 123 139 124
f 124 139 140
f 124 140 130
f 124 130 125
f 125 135 126
f 129 130 141
f 129 141 140
f 129 140 131
f 130 140 141
f 131 140 139
f 131 139 132
f 132 139 137
