v 0.144845 0.610012 0.0549396
v 0.144845 0.625397 0.0537272
v 0.144845 0.610012 0.166706
v 7.21197e-05 0.610012 0.155343
v 0.144845 0.640848 0.0578719
v 7.21197e-05 0.618725 0.155231
v 7.21197e-05 0.625397 0.155146
v 7.21197e-05 0.630509 0.155456
v 7.21197e-05 0.639355 0.15602
v 7.21197e-05 0.648499 0.157458
v 7.21197e-05 0.656283 0.158699
v 0.132629 0.610012 0.176123
v 0.144845 0.737125 0.305371
v 7.21197e-05 0.610012 0.221208
v 0.144845 0.646342 0.059902
v 7.21197e-05 0.663934 0.160842
v 7.21197e-05 0.671734 0.163041
v 0.121987 0.610012 0.184131
v 0.144845 0.746452 0.305202
v 0.141926 0.742834 0.310052
v 0.141926 0.739448 0.310052
v 0.00772456 0.610012 0.221208
v 7.21197e-05 0.738237 0.341743
v 0.144845 0.656266 0.063652
v 7.21197e-05 0.677792 0.165494
v 0.114292 0.610012 0.18946
v 0.144845 0.749921 0.301762
v 0.131255 0.752925 0.304723
v 0.100362 0.74378 0.32632
v 0.108921 0.741706 0.3246
v 0.108921 0.74061 0.3246
v 0.100362 0.738685 0.32632
v 0.0859779 0.610012 0.202994
v 0.0991145 0.610012 0.197496
v 0.0231712 0.610012 0.219234
v 0.00772456 0.738237 0.341743
v 7.21197e-05 0.744046 0.341743
v 0.144845 0.671734 0.0742253
v 7.21197e-05 0.683966 0.168003
v 7.21197e-05 0.6878 0.169582
v 7.21197e-05 0.691683 0.171217
v 7.21197e-05 0.697077 0.17415
v 7.21197e-05 0.702604 0.177167
v 7.21197e-05 0.70755 0.180325
v 7.21197e-05 0.712612 0.183567
v 0.144845 0.753373 0.298153
v 0.119479 0.755199 0.307147
v 0.100362 0.751514 0.31882
v 0.142195 0.757788 0.294713
v 0.0849292 0.754153 0.321443
v 0.0849292 0.746436 0.328548
v 0.0336437 0.741755 0.34008
v 0.0336437 0.74056 0.34008
v 0.0849292 0.736577 0.328548
v 0.0536392 0.610012 0.21461
v 0.0694968 0.610012 0.209732
v 0.0385752 0.610012 0.217176
v 0.0231712 0.739498 0.340756
v 0.00772456 0.744046 0.341743
v 7.21197e-05 0.75178 0.334723
v 0.144845 0.68614 0.0864057
v 7.21197e-05 0.748925 0.209112
v 7.21197e-05 0.757389 0.215343
v 0.144845 0.76026 0.290399
v 0.10919 0.757041 0.30929
v 0.131255 0.759746 0.296997
v 0.100362 0.758601 0.311095
v 0.0694968 0.755431 0.322937
v 0.0849292 0.760991 0.313717
v 0.0694968 0.762368 0.315211
v 0.0694968 0.747713 0.32976
v 0.0231712 0.742751 0.340756
v 0.0534975 0.610012 0.214638
v 0.00772456 0.75178 0.334723
v 7.21197e-05 0.759165 0.326997
v 0.144845 0.702272 0.100898
v 7.21197e-05 0.760194 0.219573
v 0.144845 0.759514 0.163576
v 0.144845 0.756593 0.159742
v 0.144845 0.751431 0.153144
v 0.144845 0.748676 0.150127
v 0.144845 0.704513 0.103097
v 0.144845 0.703102 0.101688
v 0.144845 0.762003 0.288172
v 0.114915 0.761289 0.301649
v 0.100362 0.765737 0.301114
v 0.0576638 0.756145 0.323726
v 0.0863747 0.769372 0.30055
v 0.0694968 0.770086 0.304159
v 0.0540502 0.770716 0.305315
v 0.0386177 0.764127 0.316536
v 0.00772456 0.759165 0.326997
v 0.0473614 0.756775 0.324403
v 7.21197e-05 0.767795 0.315014
v 7.21197e-05 0.763049 0.223886
v 0.144845 0.760111 0.164648
v 7.21197e-05 0.770019 0.23508
v 0.144845 0.763165 0.286424
v 0.115808 0.769886 0.288369
v 0.100362 0.771496 0.291696
v 0.0924824 0.772061 0.293332
v 0.0821941 0.772658 0.295023
v 0.0694968 0.773106 0.296433
v 0.0386177 0.771181 0.306358
v 0.0063783 0.767795 0.315014
v 0.0231712 0.765455 0.316536
v 7.21197e-05 0.771928 0.309093
v 0.144845 0.768194 0.180043
v 7.21197e-05 0.77211 0.238886
v 7.21197e-05 0.774218 0.242806
v 0.144845 0.770368 0.275371
v 0.144845 0.770832 0.274582
v 0.135804 0.771662 0.27664
v 0.130901 0.773969 0.270973
v 0.100362 0.77387 0.283971
v 0.0863747 0.774616 0.287157
v 0.0694968 0.776525 0.285663
v 0.0540502 0.773438 0.297589
v 0.0231712 0.771579 0.307373
v 0.0106297 0.771878 0.308191
v 0.000341368 0.772094 0.308839
v 7.21197e-05 0.772094 0.308839
v 0.144845 0.769256 0.182157
v 7.21197e-05 0.775778 0.248727
v 0.144845 0.774168 0.193774
v 0.144845 0.772907 0.190644
v 0.144845 0.77299 0.268181
v 0.144845 0.773339 0.266969
v 0.144845 0.776243 0.256678
v 0.115808 0.776044 0.270211
v 0.100362 0.777786 0.270211
v 0.0540502 0.777222 0.285663
v 0.0849292 0.778865 0.270211
v 0.0231712 0.774085 0.299647
v 0.0063783 0.773936 0.30227
v 7.21197e-05 0.77221 0.308444
v 7.21197e-05 0.777372 0.254789
v 0.144845 0.774417 0.194761
v 0.144845 0.776757 0.254789
v 0.131255 0.778284 0.254789
v 0.0386177 0.777803 0.285663
v 0.0694968 0.779247 0.270211
v 0.0231712 0.778268 0.285663
v 0.115808 0.779098 0.254789
v 0.100362 0.779496 0.254789
v 7.21197e-05 0.773936 0.30227
v 0.00772456 0.77855 0.285663
v 7.21197e-05 0.776044 0.294685
v 7.21197e-05 0.778367 0.26243
v 0.144845 0.777521 0.210296
v 0.144845 0.777156 0.208351
v 0.144845 0.779164 0.241198
v 0.0540502 0.779413 0.270211
v 0.144845 0.779313 0.239338
v 0.131255 0.779496 0.239338
v 0.0386177 0.779546 0.270211
v 0.0231712 0.779562 0.270211
v 7.21197e-05 0.77855 0.285663
v 7.21197e-05 0.77938 0.270211
v 0.144845 0.778981 0.223886
v 0.144845 0.779164 0.225747
f 1 2 5
f 1 5 15
f 1 15 24
f 1 24 38
f 1 38 61
f 1 61 76
f 1 76 83
f 1 83 82
f 1 82 81
f 1 81 80
f 1 80 79
f 1 79 78
f 1 78 96
f 1 96 108
f 1 108 123
f 1 123 126
f 1 126 125
f 1 125 138
f 1 138 151
f 1 151 150
f 1 150 160
f 1 160 161
f 1 161 154
f 1 154 152
f 1 152 139
f 1 139 129
f 1 129 128
f 1 128 127
f 1 127 112
f 1 112 111
f 1 111 98
f 1 98 84
f 1 84 64
f 1 64 46
f 1 46 27
f 1 27 19
f 1 19 13
f 1 13 3
f 1 3 12
f 1 12 18
f 1 18 26
f 1 26 34
f 1 34 33
f 1 33 56
f 1 56 55
f 1 55 73
f 1 73 57
f 1 57 35
f 1 35 22
f 1 22 14
f 1 14 4
f 1 4 2
f 2 4 6
f 2 6 7
f 2 7 8
f 2 8 9
f 2 9 10
f 2 10 11
f 2 11 5
f 3 13 12
f 4 14 23
f 4 23 37
f 4 37 60
f 4 60 75
f 4 75 94
f 4 94 107
f 4 107 122
f 4 122 136
f 4 136 146
f 4 146 148
f 4 148 158
f 4 158 159
f 4 159 149
f 4 149 137
f 4 137 124
f 4 124 110
f 4 110 109
f 4 109 97
f 4 97 95
f 4 95 77
f 4 77 63
f 4 63 62
f 4 62 45
f 4 45 44
f 4 44 43
f 4 43 42
f 4 42 41
f 4 41 40
f 4 40 39
f 4 39 25
f 4 25 17
f 4 17 16
f 4 16 11
f 4 11 10
f 4 10 9
f 4 9 8
f 4 8 7
f 4 7 6
f 5 11 16
f 5 16 17
f 5 17 15
f 12 13 18
f 13 19 20
f 13 20 21
f 13 21 18
f 14 22 36
f 14 36 23
f 15 17 24
f 17 25 24
f 18 21 26
f 19 27 28
f 19 28 20
f 20 28 29
f 20 29 30
f 20 30 31
f 20 31 21
f 21 31 32
f 21 32 33
f 21 33 34
f 21 34 26
f 22 35 36
f 23 36 59
f 23 59 37
f 24 25 39
f 24 39 40
f 24 40 41
f 24 41 42
f 24 42 43
f 24 43 44
f 24 44 45
f 24 45 38
f 27 46 28
f 28 47 48
f 28 48 29
f 28 46 49
f 28 49 47
f 29 48 50
f 29 50 51
f 29 51 52
f 29 52 30
f 30 52 53
f 30 53 31
f 31 53 32
f 32 53 54
f 32 54 55
f 32 55 56
f 32 56 33
f 35 57 36
f 36 58 72
f 36 72 59
f 36 57 58
f 37 59 74
f 37 74 60
f 38 45 62
f 38 62 63
f 38 63 61
f 46 64 49
f 47 65 48
f 47 49 66
f 47 66 65
f 48 65 67
f 48 67 50
f 49 64 66
f 50 68 51
f 50 67 69
f 50 69 70
f 50 70 68
f 51 68 71
f 51 71 52
f 52 72 58
f 52 58 53
f 52 71 72
f 53 58 54
f 54 58 57
f 54 57 73
f 54 73 55
f 59 72 68
f 59 68 74
f 60 74 92
f 60 92 75
f 61 63 76
f 63 77 78
f 63 78 79
f 63 79 80
f 63 80 81
f 63 81 82
f 63 82 83
f 63 83 76
f 64 84 66
f 65 66 67
f 66 84 85
f 66 85 67
f 67 85 86
f 67 86 69
f 68 87 74
f 68 72 71
f 68 70 87
f 69 86 88
f 69 88 89
f 69 89 70
f 70 89 90
f 70 90 91
f 70 91 92
f 70 92 93
f 70 93 87
f 74 87 93
f 74 93 92
f 75 92 105
f 75 105 94
f 77 95 78
f 78 95 97
f 78 97 96
f 84 98 86
f 84 86 85
f 86 98 99
f 86 99 100
f 86 100 88
f 88 100 101
f 88 101 89
f 89 101 102
f 89 102 103
f 89 103 90
f 90 104 105
f 90 105 106
f 90 106 91
f 90 103 104
f 91 106 92
f 92 106 105
f 94 105 107
f 96 97 109
f 96 109 110
f 96 110 108
f 98 111 99
f 99 111 112
f 99 112 100
f 100 112 113
f 100 113 101
f 101 113 114
f 101 114 115
f 101 115 116
f 101 116 102
f 102 116 117
f 102 117 103
f 103 117 118
f 103 118 119
f 103 119 104
f 104 119 105
f 105 119 120
f 105 120 121
f 105 121 107
f 107 121 122
f 108 110 123
f 110 124 125
f 110 125 126
f 110 126 123
f 112 127 113
f 113 127 114
f 114 127 128
f 114 128 129
f 114 129 130
f 114 130 115
f 115 130 116
f 116 130 131
f 116 131 117
f 117 132 118
f 117 131 133
f 117 133 132
f 118 132 134
f 118 134 120
f 118 120 119
f 120 134 121
f 121 134 135
f 121 135 136
f 121 136 122
f 124 137 125
f 125 137 138
f 129 139 130
f 130 139 131
f 131 139 140
f 131 140 133
f 132 133 141
f 132 141 135
f 132 135 134
f 133 142 143
f 133 143 141
f 133 140 144
f 133 144 145
f 133 145 142
f 135 146 136
f 135 141 143
f 135 143 147
f 135 147 148
f 135 148 146
f 137 149 150
f 137 150 151
f 137 151 138
f 139 152 140
f 140 152 144
f 142 153 147
f 142 147 143
f 142 145 153
f 144 152 154
f 144 154 145
f 145 154 155
f 145 155 156
f 145 156 153
f 147 153 156
f 147 156 157
f 147 157 158
f 147 158 148
f 149 159 150
f 150 159 160
f 154 161 155
f 155 161 159
f 155 159 157
f 155 157 156
f 157 159 158
f 159 161 160
