v 5.62714e-05 -0.0222776 0.455605
v 5.62714e-05 -0.0222776 0.390253
v -0.00772348 -0.0222776 0.455584
v -0.00772348 -0.0231688 0.455564
v -0.00772348 -0.0695071 0.453598
v 5.62714e-05 -0.0617195 0.453929
v -0.161782 -0.0222776 0.352817
v 5.62714e-05 -0.418013 0.294129
v -0.161782 -0.418013 0.244214
v -0.0222531 -0.0222776 0.453722
v -0.0231721 -0.0695071 0.45159
v -0.047367 -0.0784958 0.447948
v -0.00772348 -0.0849661 0.452439
v 5.62714e-05 -0.0695071 0.453598
v -0.0231721 -0.0540481 0.452253
v -0.161782 -0.0222776 0.423032
v 5.62714e-05 -0.418013 0.366062
v -0.161782 -0.418013 0.327032
v -0.0376858 -0.0222776 0.451694
v -0.0386048 -0.0695071 0.449562
v -0.100368 -0.0849661 0.440271
v -0.069502 -0.0849661 0.444347
v -0.0531345 -0.0841912 0.446582
v -0.0231721 -0.0849661 0.450431
v -0.056858 -0.0695071 0.447162
v -0.100368 -0.0695071 0.44143
v -0.0328849 -0.0947297 0.448072
v -0.00772348 -0.100386 0.450618
v -0.00219368 -0.125725 0.448072
v 5.62714e-05 -0.0849661 0.452439
v -0.0386048 -0.0540481 0.450225
v -0.143814 -0.0222776 0.430482
v -0.161782 -0.0228201 0.423012
v 5.62714e-05 -0.412085 0.368648
v -0.00772348 -0.418013 0.366062
v -0.127319 -0.418013 0.341353
v -0.136858 -0.414875 0.338849
v -0.161782 -0.40887 0.33113
v -0.0540534 -0.0222776 0.449542
v -0.1158 -0.0849661 0.437374
v -0.108258 -0.139363 0.432407
v -0.100368 -0.100386 0.43845
v -0.043184 -0.0888018 0.447389
v -0.1158 -0.0695071 0.438574
v -0.100368 -0.0540481 0.442092
v -0.1158 -0.0222776 0.440643
v -0.0229186 -0.100076 0.448693
v -0.084919 -0.100386 0.440498
v -0.0540534 -0.115845 0.442588
v -0.0175947 -0.110305 0.448093
v -0.0124927 -0.120611 0.447431
v -0.00750166 -0.131033 0.446727
v -0.00772348 -0.146725 0.444679
v -0.00772348 -0.162145 0.442671
v 5.62714e-05 -0.125725 0.448072
v -0.084919 -0.0386278 0.444782
v -0.134354 -0.0222776 0.434394
v -0.161782 -0.0695071 0.42088
v -0.137365 -0.0540481 0.431703
v -0.00772348 -0.412085 0.368648
v 5.62714e-05 -0.370823 0.386135
v -0.0150596 -0.418013 0.36513
v -0.125006 -0.418013 0.342305
v -0.114929 -0.408288 0.350769
v -0.131534 -0.409528 0.343381
v -0.142213 -0.404608 0.341084
v -0.161782 -0.393333 0.337835
v -0.0994327 -0.0222776 0.443561
v -0.127288 -0.0849661 0.433918
v -0.124943 -0.100386 0.432945
v -0.123612 -0.108368 0.432407
v -0.1158 -0.100386 0.43549
v -0.114374 -0.145369 0.429924
v -0.1158 -0.162145 0.427254
v -0.0991158 -0.160905 0.430855
v -0.103426 -0.149631 0.431745
v -0.100368 -0.115845 0.436484
v -0.128793 -0.0695071 0.434538
v -0.100368 -0.0222776 0.443437
v -0.132548 -0.0222776 0.435139
v -0.130488 -0.0386278 0.435242
v -0.084919 -0.131266 0.436546
v -0.0386048 -0.146725 0.440664
v -0.0231721 -0.146725 0.442692
v -0.0231721 -0.162145 0.440685
v -0.0777413 -0.170204 0.432428
v -0.00772348 -0.177604 0.440002
v 5.62714e-05 -0.169816 0.441347
v 5.62714e-05 -0.162145 0.442671
v -0.161782 -0.0828352 0.419846
v -0.136509 -0.0695071 0.431352
v -0.000720121 -0.370823 0.386135
v -0.00772348 -0.404375 0.371752
v -0.0188306 -0.402593 0.371049
v -0.0236633 -0.408327 0.36811
v -0.084919 -0.418013 0.356066
v 5.62714e-05 -0.347421 0.394516
v -0.108702 -0.418013 0.348865
v -0.103331 -0.412821 0.353397
v -0.109209 -0.402554 0.355611
v -0.112853 -0.359742 0.37258
v -0.161782 -0.378029 0.344436
v -0.13502 -0.0849661 0.430731
v -0.132659 -0.100386 0.429758
v -0.143624 -0.146725 0.418852
v -0.131249 -0.131266 0.426095
v -0.131249 -0.146725 0.423964
v -0.131249 -0.162145 0.421812
v -0.1158 -0.177604 0.424481
v -0.100368 -0.177604 0.427854
v -0.0931265 -0.154939 0.432428
v -0.0880245 -0.165245 0.431745
v -0.0991158 -0.145369 0.432862
v -0.100368 -0.208483 0.421211
v -0.0539584 -0.192366 0.430793
v -0.0231721 -0.177604 0.438015
v 5.62714e-05 -0.177604 0.440002
v -0.00772348 -0.193024 0.436691
v -0.000846879 -0.216697 0.432469
v -0.161782 -0.0839588 0.419742
v -0.00772348 -0.347421 0.394516
v -0.00661436 -0.363577 0.388287
v -0.0110192 -0.369195 0.385473
v -0.0231721 -0.359509 0.38779
v -0.084919 -0.40918 0.359688
v -0.069502 -0.36288 0.38034
v -0.084919 -0.393759 0.365896
v -0.0879928 -0.418013 0.355652
v 5.62714e-05 -0.326189 0.402069
v -0.101207 -0.418013 0.351803
v -0.0930473 -0.417238 0.35528
v -0.10726 -0.370009 0.370345
v -0.117115 -0.348738 0.375436
v -0.123152 -0.354782 0.370428
v -0.156157 -0.356836 0.35588
v -0.161782 -0.362492 0.35112
v -0.103505 -0.336572 0.384997
v -0.146698 -0.0849661 0.425888
v -0.161782 -0.100386 0.417693
v -0.146698 -0.100386 0.423943
v -0.160894 -0.130646 0.413906
v -0.161782 -0.142269 0.41194
v -0.161782 -0.146299 0.411382
v -0.141025 -0.162145 0.417776
v -0.139472 -0.170785 0.417135
v -0.131376 -0.176597 0.419142
v -0.126305 -0.190312 0.418066
v -0.123422 -0.200579 0.416886
v -0.109716 -0.218673 0.417445
v -0.103711 -0.22894 0.416348
v -0.0386048 -0.208483 0.429344
v -0.074715 -0.245523 0.416597
v -0.0197179 -0.203369 0.432924
v 5.62714e-05 -0.216697 0.432469
v -0.0111459 -0.213675 0.431807
v -0.00772348 -0.239324 0.426716
v -0.00772348 -0.254783 0.423115
v -0.0231721 -0.347421 0.392509
v -0.00463377 -0.326189 0.402069
v -0.00895937 -0.331574 0.399855
v -0.084919 -0.341493 0.386714
v -0.069502 -0.344128 0.387728
v -0.0386048 -0.347421 0.390501
v -0.0577611 -0.353814 0.385514
v -0.084919 -0.36288 0.378292
v -0.0938395 -0.418013 0.354618
v 5.62714e-05 -0.278495 0.417093
v -0.101413 -0.364081 0.374463
v -0.0932057 -0.340021 0.386156
v -0.0991634 -0.346065 0.382389
v -0.1097 -0.326305 0.386694
v -0.11523 -0.331652 0.382638
v -0.138633 -0.339285 0.370449
v -0.128333 -0.344476 0.37258
v -0.161782 -0.347111 0.357639
v -0.161639 -0.346956 0.357763
v -0.10951 -0.279734 0.402028
v -0.161782 -0.108678 0.416555
v -0.161782 -0.162145 0.409167
v -0.161782 -0.178689 0.406063
v -0.146698 -0.193024 0.409002
v -0.131249 -0.223904 0.408257
v -0.13193 -0.239324 0.404387
v -0.1158 -0.239324 0.410678
v -0.1158 -0.254783 0.406953
v -0.100368 -0.254783 0.410926
v -0.0992901 -0.238084 0.414941
v -0.0540534 -0.239324 0.420653
v -0.0231721 -0.223904 0.42804
v -0.0241861 -0.208522 0.431227
v -0.0644159 -0.248468 0.417259
v -0.0231721 -0.239324 0.424709
v 5.62714e-05 -0.254783 0.423115
v -0.0231721 -0.254783 0.421108
v -0.0443406 -0.261447 0.416659
v -0.0340416 -0.263849 0.417342
v -0.0231721 -0.266174 0.418045
v -0.00699463 -0.270823 0.418728
v -0.00135391 -0.278495 0.417093
v -0.0149328 -0.324058 0.401407
v -0.0231721 -0.331962 0.397889
v -0.084919 -0.349203 0.383714
v -0.053182 -0.348157 0.388308
v -0.069502 -0.331962 0.391805
v -0.084919 -0.331962 0.389777
v -0.0903537 -0.292404 0.401179
v -0.100368 -0.282408 0.402856
v -0.157092 -0.312202 0.371711
v -0.115119 -0.285197 0.397951
v -0.119809 -0.273264 0.399938
v -0.123897 -0.262958 0.401635
v -0.129934 -0.268963 0.397165
v -0.14253 -0.282446 0.387521
v -0.147395 -0.333279 0.368793
v -0.161782 -0.332001 0.363247
v -0.161782 -0.342384 0.359398
v -0.161782 -0.346956 0.357701
v -0.100368 -0.270203 0.406601
v -0.115119 -0.268963 0.403187
v -0.161782 -0.209103 0.399027
v -0.153574 -0.214721 0.401138
v -0.137539 -0.244477 0.40089
v -0.126591 -0.254783 0.402752
v -0.0540534 -0.258929 0.416017
v -0.084919 -0.254783 0.412975
v -0.0695337 -0.254086 0.415189
v -0.0389534 -0.255713 0.418811
v -0.084919 -0.270203 0.408691
v -0.0800705 -0.294612 0.401862
v -0.0540534 -0.285662 0.408029
v -0.0231721 -0.273923 0.415686
v -0.011653 -0.276364 0.416431
v -0.0231721 -0.301083 0.407367
v -0.0532137 -0.301625 0.403249
v -0.161782 -0.285701 0.378478
v -0.156917 -0.265631 0.387066
v -0.161782 -0.270746 0.383383
v -0.161782 -0.253892 0.388411
v -0.152829 -0.275937 0.38539
v -0.161782 -0.239324 0.392033
v -0.161782 -0.270281 0.383527
v -0.161782 -0.270552 0.383445
f 1 2 7
f 1 7 16
f 1 16 32
f 1 32 57
f 1 57 80
f 1 80 46
f 1 46 79
f 1 79 68
f 1 68 39
f 1 39 19
f 1 19 10
f 1 10 3
f 1 3 4
f 1 4 5
f 1 5 6
f 1 6 14
f 1 14 30
f 1 30 55
f 1 55 89
f 1 89 88
f 1 88 117
f 1 117 154
f 1 154 193
f 1 193 167
f 1 167 129
f 1 129 97
f 1 97 61
f 1 61 34
f 1 34 17
f 1 17 8
f 1 8 2
f 2 8 9
f 2 9 7
f 3 10 4
f 4 10 5
f 5 11 12
f 5 12 13
f 5 13 30
f 5 30 14
f 5 14 6
f 5 10 15
f 5 15 11
f 7 9 18
f 7 18 38
f 7 38 67
f 7 67 102
f 7 102 136
f 7 136 175
f 7 175 217
f 7 217 216
f 7 216 215
f 7 215 235
f 7 235 237
f 7 237 242
f 7 242 241
f 7 241 238
f 7 238 240
f 7 240 220
f 7 220 180
f 7 180 179
f 7 179 143
f 7 143 142
f 7 142 178
f 7 178 139
f 7 139 120
f 7 120 90
f 7 90 58
f 7 58 33
f 7 33 16
f 8 17 35
f 8 35 62
f 8 62 96
f 8 96 128
f 8 128 166
f 8 166 130
f 8 130 98
f 8 98 63
f 8 63 36
f 8 36 18
f 8 18 9
f 10 19 31
f 10 31 15
f 11 20 12
f 11 15 31
f 11 31 20
f 12 21 22
f 12 22 23
f 12 23 24
f 12 24 13
f 12 20 25
f 12 25 26
f 12 26 21
f 13 24 27
f 13 27 28
f 13 28 29
f 13 29 55
f 13 55 30
f 16 33 32
f 17 34 60
f 17 60 35
f 18 36 37
f 18 37 38
f 19 39 31
f 20 31 25
f 21 40 41
f 21 41 42
f 21 42 27
f 21 27 43
f 21 43 22
f 21 26 44
f 21 44 40
f 22 43 23
f 23 43 24
f 24 43 27
f 25 31 45
f 25 45 26
f 26 45 46
f 26 46 44
f 27 47 28
f 27 42 48
f 27 48 49
f 27 49 50
f 27 50 47
f 28 47 50
f 28 50 51
f 28 51 52
f 28 52 29
f 29 52 53
f 29 53 54
f 29 54 89
f 29 89 55
f 31 56 45
f 31 39 56
f 32 33 58
f 32 58 59
f 32 59 57
f 34 61 92
f 34 92 60
f 35 60 62
f 36 63 37
f 37 64 65
f 37 65 38
f 37 63 64
f 38 65 66
f 38 66 67
f 39 68 56
f 40 44 69
f 40 69 70
f 40 70 71
f 40 71 72
f 40 72 41
f 41 73 74
f 41 74 75
f 41 75 76
f 41 76 77
f 41 77 42
f 41 72 71
f 41 71 73
f 42 77 48
f 44 78 69
f 44 46 78
f 45 56 68
f 45 68 79
f 45 79 46
f 46 80 81
f 46 81 78
f 48 77 49
f 49 77 82
f 49 82 83
f 49 83 50
f 50 83 84
f 50 84 51
f 51 84 53
f 51 53 52
f 53 84 85
f 53 85 54
f 54 85 86
f 54 86 87
f 54 87 88
f 54 88 89
f 57 59 78
f 57 78 80
f 58 90 91
f 58 91 59
f 59 91 78
f 60 92 93
f 60 93 94
f 60 94 95
f 60 95 96
f 60 96 62
f 61 97 121
f 61 121 92
f 63 98 99
f 63 99 64
f 64 100 65
f 64 99 100
f 65 100 101
f 65 101 66
f 66 101 102
f 66 102 67
f 69 103 70
f 69 78 103
f 70 104 71
f 70 103 104
f 71 104 105
f 71 105 106
f 71 106 107
f 71 107 108
f 71 108 74
f 71 74 73
f 74 108 109
f 74 109 110
f 74 110 75
f 75 111 76
f 75 110 86
f 75 86 112
f 75 112 111
f 76 111 113
f 76 113 77
f 77 113 111
f 77 111 82
f 78 91 103
f 78 81 80
f 82 111 83
f 83 111 85
f 83 85 84
f 85 111 112
f 85 112 86
f 86 110 114
f 86 114 115
f 86 115 116
f 86 116 87
f 87 117 88
f 87 116 118
f 87 118 119
f 87 119 154
f 87 154 117
f 90 120 103
f 90 103 91
f 92 121 122
f 92 122 123
f 92 123 93
f 93 123 94
f 94 123 124
f 94 124 95
f 95 125 96
f 95 124 126
f 95 126 127
f 95 127 125
f 96 125 128
f 97 129 159
f 97 159 121
f 98 130 99
f 99 131 132
f 99 132 100
f 99 130 131
f 100 132 101
f 101 133 134
f 101 134 135
f 101 135 136
f 101 136 102
f 101 132 137
f 101 137 133
f 103 138 139
f 103 139 140
f 103 140 104
f 103 120 138
f 104 140 105
f 105 107 106
f 105 140 141
f 105 141 142
f 105 142 143
f 105 143 144
f 105 144 107
f 107 144 108
f 108 144 145
f 108 145 146
f 108 146 109
f 109 146 147
f 109 147 148
f 109 148 149
f 109 149 110
f 110 149 150
f 110 150 114
f 114 151 115
f 114 150 152
f 114 152 151
f 115 151 116
f 116 151 153
f 116 153 118
f 118 153 155
f 118 155 119
f 119 155 156
f 119 156 157
f 119 157 193
f 119 193 154
f 120 139 138
f 121 158 124
f 121 124 122
f 121 159 160
f 121 160 161
f 121 161 162
f 121 162 158
f 122 124 123
f 124 158 163
f 124 163 164
f 124 164 126
f 125 131 128
f 125 127 131
f 126 164 165
f 126 165 127
f 127 165 131
f 128 131 166
f 129 167 199
f 129 199 159
f 130 166 131
f 131 168 132
f 131 165 169
f 131 169 170
f 131 170 168
f 132 168 137
f 133 137 171
f 133 171 172
f 133 172 173
f 133 173 174
f 133 174 134
f 134 175 135
f 134 174 176
f 134 176 175
f 135 175 136
f 137 170 169
f 137 169 177
f 137 177 171
f 137 168 170
f 139 178 140
f 140 178 141
f 141 178 142
f 143 179 144
f 144 179 145
f 145 179 180
f 145 180 181
f 145 181 182
f 145 182 146
f 146 182 148
f 146 148 147
f 148 182 183
f 148 183 184
f 148 184 149
f 149 184 185
f 149 185 186
f 149 186 150
f 150 187 152
f 150 186 187
f 151 152 188
f 151 188 189
f 151 189 190
f 151 190 153
f 152 186 191
f 152 191 156
f 152 156 192
f 152 192 188
f 152 187 186
f 153 190 189
f 153 189 156
f 153 156 155
f 156 189 192
f 156 191 157
f 157 191 194
f 157 194 195
f 157 195 196
f 157 196 197
f 157 197 198
f 157 198 199
f 157 199 167
f 157 167 193
f 158 162 163
f 159 199 198
f 159 198 200
f 159 200 160
f 160 200 201
f 160 201 169
f 160 169 161
f 161 169 202
f 161 202 164
f 161 164 162
f 162 164 203
f 162 203 163
f 163 203 164
f 164 202 165
f 165 202 169
f 169 201 204
f 169 204 205
f 169 205 206
f 169 206 207
f 169 207 177
f 171 208 173
f 171 173 172
f 171 177 209
f 171 209 210
f 171 210 211
f 171 211 212
f 171 212 213
f 171 213 208
f 173 214 215
f 173 215 216
f 173 216 176
f 173 176 174
f 173 208 214
f 175 176 217
f 176 216 217
f 177 207 218
f 177 218 186
f 177 186 185
f 177 185 219
f 177 219 211
f 177 211 210
f 177 210 209
f 180 220 221
f 180 221 181
f 181 221 182
f 182 221 222
f 182 222 183
f 183 222 223
f 183 223 184
f 184 223 185
f 185 223 211
f 185 211 219
f 186 218 195
f 186 195 224
f 186 224 225
f 186 225 226
f 186 226 191
f 188 192 189
f 191 226 227
f 191 227 194
f 194 227 195
f 195 227 224
f 195 218 228
f 195 228 196
f 196 228 229
f 196 229 230
f 196 230 231
f 196 231 197
f 197 231 198
f 198 231 232
f 198 232 200
f 200 233 234
f 200 234 205
f 200 205 204
f 200 204 201
f 200 232 231
f 200 231 233
f 205 234 229
f 205 229 206
f 206 228 218
f 206 218 207
f 206 229 228
f 208 215 214
f 208 213 235
f 208 235 215
f 211 236 237
f 211 237 212
f 211 223 238
f 211 238 236
f 212 237 239
f 212 239 235
f 212 235 213
f 220 240 221
f 221 240 222
f 222 240 238
f 222 238 223
f 224 227 226
f 224 226 225
f 229 234 230
f 230 234 233
f 230 233 231
f 235 239 237
f 236 238 241
f 236 241 242
f 236 242 237
