v 0.221233 0.610012 0.00766383
v 0.221233 0.610012 -7.32587e-05
v 0.21924 0.610012 0.0231101
v 0.245413 0.541878 0.127212
v 0.245413 0.5429 0.122575
v 0.245413 0.544354 0.115802
v 0.245413 0.545809 0.108972
v 0.245413 0.550126 0.0857051
v 0.245413 0.553035 0.0694908
v 0.245413 0.558978 0.00565275
v 0.245413 0.558978 -7.32587e-05
v 0.155321 0.610012 -7.32587e-05
v 0.217212 0.610012 0.0384446
v 0.245413 0.53965 0.135689
v 0.217194 0.610012 0.0385703
v 0.245413 0.476438 -7.32587e-05
v 0.155321 0.609733 -7.32587e-05
v 0.0603746 0.60995 0.142602
v 0.0653194 0.610012 0.140563
v 0.245413 0.539403 0.136373
v 0.214658 0.610012 0.0534998
v 0.245413 0.451926 0.142602
v 0.243656 0.47718 -7.32587e-05
v 0.157313 0.594507 -7.32587e-05
v 0.0642507 0.598607 0.142602
v 0.0660257 0.610012 0.142602
v 0.158889 0.586707 -7.32587e-05
v 0.160447 0.579063 -7.32587e-05
v 0.245413 0.536524 0.142602
v 0.209749 0.610012 0.0694349
v 0.203519 0.610012 0.0847136
v 0.235922 0.480972 -7.32587e-05
v 0.239834 0.479053 -7.32587e-05
v 0.188521 0.480028 0.142602
v 0.0656635 0.594507 0.142602
v 0.168326 0.610012 0.142602
v 0.166551 0.562134 -7.32587e-05
v 0.203174 0.610012 0.0855376
v 0.197469 0.610012 0.0991264
v 0.189463 0.610012 0.114223
v 0.18412 0.610012 0.121961
v 0.175335 0.610012 0.13365
v 0.224493 0.488693 -7.32587e-05
v 0.178324 0.485567 0.142602
v 0.165917 0.492624 0.142602
v 0.160519 0.49592 0.142602
v 0.158708 0.497065 0.142602
v 0.148601 0.50358 0.142602
v 0.0720391 0.581555 0.142602
v 0.172311 0.548811 -7.32587e-05
v 0.220671 0.491618 -7.32587e-05
v 0.135234 0.51305 0.142602
v 0.0733432 0.579342 0.142602
v 0.180606 0.533909 -7.32587e-05
v 0.216777 0.494604 -7.32587e-05
v 0.130307 0.516841 0.142602
v 0.0848629 0.562954 0.142602
v 0.186167 0.526203 -7.32587e-05
v 0.212575 0.498024 -7.32587e-05
v 0.105221 0.537437 0.142602
v 0.208463 0.501382 -7.32587e-05
v 0.0962014 0.548161 0.142602
v 0.189608 0.521715 -7.32587e-05
v 0.199824 0.50864 -7.32587e-05
v 0.192995 0.517305 -7.32587e-05
f 1 2 12
f 1 12 19
f 1 19 26
f 1 26 36
f 1 36 42
f 1 42 41
f 1 41 40
f 1 40 39
f 1 39 38
f 1 38 31
f 1 31 30
f 1 30 21
f 1 21 15
f 1 15 13
f 1 13 3
f 1 3 4
f 1 4 5
f 1 5 6
f 1 6 7
f 1 7 8
f 1 8 9
f 1 9 10
f 1 10 11
f 1 11 2
f 2 11 16
f 2 16 23
f 2 23 33
f 2 33 32
f 2 32 43
f 2 43 51
f 2 51 55
f 2 55 59
f 2 59 61
f 2 61 64
f 2 64 65
f 2 65 63
f 2 63 58
f 2 58 54
f 2 54 50
f 2 50 37
f 2 37 28
f 2 28 27
f 2 27 24
f 2 24 17
f 2 17 12
f 3 13 4
f 4 14 20
f 4 20 29
f 4 29 22
f 4 22 16
f 4 16 11
f 4 11 10
f 4 10 9
f 4 9 8
f 4 8 7
f 4 7 6
f 4 6 5
f 4 13 15
f 4 15 14
f 12 17 18
f 12 18 19
f 14 15 21
f 14 21 20
f 16 22 23
f 17 24 18
f 18 25 35
f 18 35 49
f 18 49 53
f 18 53 57
f 18 57 62
f 18 62 60
f 18 60 56
f 18 56 52
f 18 52 48
f 18 48 47
f 18 47 46
f 18 46 45
f 18 45 44
f 18 44 34
f 18 34 22
f 18 22 29
f 18 29 36
f 18 36 26
f 18 26 19
f 18 24 27
f 18 27 28
f 18 28 25
f 20 21 30
f 20 30 31
f 20 31 29
f 22 32 33
f 22 33 23
f 22 34 32
f 25 28 35
f 28 37 35
f 29 31 38
f 29 38 39
f 29 39 40
f 29 40 41
f 29 41 42
f 29 42 36
f 32 34 44
f 32 44 45
f 32 45 46
f 32 46 47
f 32 47 48
f 32 48 43
f 35 37 50
f 35 50 49
f 43 48 52
f 43 52 51
f 49 50 54
f 49 54 53
f 51 52 55
f 52 56 55
f 53 54 57
f 54 58 57
f 55 56 59
f 56 60 61
f 56 61 59
f 57 58 62
f 58 63 62
f 60 62 64
f 60 64 61
f 62 63 65
f 62 65 64
