v 7.2114e-05 0.441436 -0.290103
v -0.139652 0.441436 -0.253661
v 7.2114e-05 0.356914 -0.326926
v 7.2114e-05 0.441436 -0.367748
v -0.139652 0.356914 -0.294087
v -0.139652 0.441436 -0.338102
v 7.2114e-05 0.356914 -0.402974
v 7.2114e-05 0.426311 -0.380974
v -0.00772375 0.441436 -0.367748
v -0.139652 0.356914 -0.376111
v -0.117591 0.441436 -0.347637
v -0.131254 0.429769 -0.352705
v -0.139652 0.432218 -0.346758
v -0.00859908 0.356914 -0.403296
v 7.2114e-05 0.393776 -0.39754
v 7.2114e-05 0.418591 -0.387184
v -0.00772375 0.426311 -0.380974
v -0.0386063 0.441436 -0.364452
v -0.139652 0.387488 -0.371439
v -0.115129 0.356914 -0.386525
v -0.117194 0.441436 -0.347798
v -0.1222 0.431813 -0.354639
v -0.110109 0.418053 -0.371424
v -0.131254 0.422049 -0.359326
v -0.139652 0.420006 -0.357597
v -0.139652 0.427039 -0.351504
v -0.0853815 0.356914 -0.393512
v -0.00772375 0.393776 -0.39754
v 7.2114e-05 0.401413 -0.394801
v -0.00772375 0.418591 -0.387184
v 7.2114e-05 0.409208 -0.392003
v -0.0694889 0.430911 -0.369315
v -0.0533774 0.441436 -0.362724
v -0.139652 0.38853 -0.371278
v -0.115813 0.393776 -0.379773
v -0.10654 0.378328 -0.38569
v -0.101083 0.356914 -0.390963
v -0.100371 0.441436 -0.353686
v -0.100371 0.427734 -0.366444
v -0.111901 0.433799 -0.356704
v -0.100371 0.420014 -0.372874
v -0.100371 0.409208 -0.378938
v -0.115471 0.409307 -0.373958
v -0.120408 0.414511 -0.369286
v -0.139652 0.416175 -0.360014
v -0.023165 0.393776 -0.395548
v -0.0954204 0.356914 -0.391945
v -0.0962274 0.389184 -0.386789
v -0.0785294 0.401885 -0.386218
v -0.00772375 0.409208 -0.392003
v -0.0188294 0.417573 -0.386481
v -0.0849302 0.422016 -0.374397
v -0.0849302 0.429736 -0.368246
v -0.0688598 0.441436 -0.360307
v -0.139652 0.393495 -0.369989
v -0.131623 0.393495 -0.373314
v -0.100973 0.394107 -0.384504
v -0.137026 0.398451 -0.369784
v -0.126727 0.404218 -0.371922
v -0.0849302 0.441436 -0.357583
v -0.0841779 0.4079 -0.3826
v -0.0888144 0.399469 -0.385529
v -0.139652 0.409803 -0.363676
v -0.0540476 0.393776 -0.391491
v -0.0841779 0.394107 -0.387448
v -0.0694889 0.393776 -0.389455
v -0.0694889 0.403225 -0.386804
v -0.0540476 0.405435 -0.387829
v -0.0386063 0.40752 -0.38884
v -0.0236574 0.410482 -0.389352
v -0.0291282 0.416481 -0.385793
v -0.0386063 0.41524 -0.385163
v -0.0540476 0.413155 -0.384138
v -0.0694889 0.410945 -0.383127
v -0.139652 0.396987 -0.369081
v -0.139652 0.401372 -0.367396
f 1 2 3
f 1 3 7
f 1 7 15
f 1 15 29
f 1 29 31
f 1 31 16
f 1 16 8
f 1 8 4
f 1 4 9
f 1 9 18
f 1 18 33
f 1 33 54
f 1 54 60
f 1 60 38
f 1 38 21
f 1 21 11
f 1 11 6
f 1 6 2
f 2 5 3
f 2 6 13
f 2 13 26
f 2 26 25
f 2 25 45
f 2 45 63
f 2 63 76
f 2 76 75
f 2 75 55
f 2 55 34
f 2 34 19
f 2 19 10
f 2 10 5
f 3 5 10
f 3 10 20
f 3 20 37
f 3 37 47
f 3 47 27
f 3 27 14
f 3 14 7
f 4 8 17
f 4 17 9
f 6 11 12
f 6 12 13
f 7 14 15
f 8 16 30
f 8 30 17
f 9 17 18
f 10 19 20
f 11 21 22
f 11 22 12
f 12 22 23
f 12 23 24
f 12 24 25
f 12 25 26
f 12 26 13
f 14 27 28
f 14 28 15
f 15 28 29
f 16 31 50
f 16 50 30
f 17 30 32
f 17 32 33
f 17 33 18
f 19 34 20
f 20 34 35
f 20 35 36
f 20 36 37
f 21 38 39
f 21 39 40
f 21 40 22
f 22 40 39
f 22 39 23
f 23 39 41
f 23 41 42
f 23 42 43
f 23 43 44
f 23 44 25
f 23 25 24
f 25 44 45
f 27 46 28
f 27 47 48
f 27 48 46
f 28 46 49
f 28 49 50
f 28 50 29
f 29 50 31
f 30 50 51
f 30 51 52
f 30 52 53
f 30 53 32
f 32 53 33
f 33 53 54
f 34 55 56
f 34 56 35
f 35 57 36
f 35 56 58
f 35 58 59
f 35 59 43
f 35 43 57
f 36 57 48
f 36 48 37
f 37 48 47
f 38 60 39
f 39 53 41
f 39 60 53
f 41 53 52
f 41 52 61
f 41 61 42
f 42 61 62
f 42 62 57
f 42 57 43
f 43 59 44
f 44 59 63
f 44 63 45
f 46 48 64
f 46 64 62
f 46 62 49
f 48 57 62
f 48 62 65
f 48 65 66
f 48 66 64
f 49 62 61
f 49 61 67
f 49 67 50
f 50 67 68
f 50 68 69
f 50 69 70
f 50 70 71
f 50 71 51
f 51 71 52
f 52 71 72
f 52 72 73
f 52 73 74
f 52 74 61
f 53 60 54
f 55 75 56
f 56 75 58
f 58 75 76
f 58 76 59
f 59 76 63
f 61 74 67
f 62 64 65
f 64 66 65
f 67 74 68
f 68 74 73
f 68 73 72
f 68 72 69
f 69 72 71
f 69 71 70
