v 0.366173 -0.417837 0.00773238
v 0.330989 -0.501861 0.00773238
v 0.330989 -0.501861 -7.32645e-05
v 0.365955 -0.418328 -7.32645e-05
v 0.366146 -0.417837 -7.32645e-05
v 0.356315 -0.417837 0.0837532
v 0.325461 -0.496873 0.0694888
v 0.326469 -0.499039 0.0540612
v 0.326877 -0.502699 0.0373479
v 0.324318 -0.509672 0.0313483
v 0.324862 -0.510327 0.0231753
v 0.325843 -0.511474 0.00773238
v 0.325843 -0.511474 -7.32645e-05
v 0.294199 -0.417837 -7.32645e-05
v 0.355552 -0.417837 0.0893396
v 0.324726 -0.495216 0.0791923
v 0.321676 -0.504592 0.0694888
v 0.322738 -0.506759 0.0540612
v 0.32361 -0.508397 0.0416334
v 0.35509 -0.417837 0.0925078
v 0.31397 -0.51497 0.0694888
v 0.239463 -0.603838 0.0540612
v 0.24028 -0.603838 0.0479391
v 0.242268 -0.603838 0.0327717
v 0.243521 -0.603838 0.0231753
v 0.245345 -0.603838 0.00773238
v 0.245345 -0.603838 -7.32645e-05
v 0.24845 -0.417837 0.156284
v 0.229905 -0.492303 -7.32645e-05
v 0.124572 -0.533596 0.156284
v 0.127895 -0.529882 0.156284
v 0.138896 -0.517974 0.156284
v 0.320505 -0.500969 0.0845797
v 0.35479 -0.417837 0.0936251
v 0.312445 -0.513477 0.0849164
v 0.23527 -0.603838 0.0701622
v 0.179417 -0.603838 -7.32645e-05
v 0.329355 -0.417837 0.156284
v 0.221082 -0.503008 -7.32645e-05
v 0.121005 -0.537838 0.156284
v 0.313833 -0.503045 0.101385
v 0.310566 -0.511456 0.0969157
v 0.351849 -0.417837 0.101293
v 0.230422 -0.603838 0.0824676
v 0.087973 -0.603838 0.156284
v 0.180343 -0.594498 -7.32645e-05
v 0.328702 -0.419312 0.156284
v 0.341392 -0.417837 0.127419
v 0.211496 -0.515844 -7.32645e-05
v 0.113135 -0.548179 0.156284
v 0.310593 -0.497747 0.115802
v 0.308441 -0.508962 0.107201
v 0.2939 -0.5102 0.140245
v 0.225058 -0.603838 0.0955535
v 0.229197 -0.603838 0.0854674
v 0.349044 -0.417837 0.108471
v 0.188268 -0.603838 0.156284
v 0.0892529 -0.595626 0.156284
v 0.181868 -0.586578 -7.32645e-05
v 0.294472 -0.496527 0.156284
v 0.342481 -0.417837 0.124786
v 0.308932 -0.494415 0.123807
v 0.203 -0.529153 -7.32645e-05
v 0.107634 -0.556045 0.156284
v 0.296187 -0.501606 0.145908
v 0.291694 -0.506577 0.150545
v 0.286438 -0.509617 0.156284
v 0.282925 -0.513514 0.156284
v 0.215717 -0.603838 0.117731
v 0.217896 -0.603838 0.112925
v 0.190582 -0.603838 0.153285
v 0.183475 -0.578312 -7.32645e-05
v 0.0960063 -0.579058 0.156284
v 0.193578 -0.548179 -7.32645e-05
v 0.190528 -0.556354 -7.32645e-05
v 0.187505 -0.564584 -7.32645e-05
v 0.294172 -0.497091 0.156284
v 0.198834 -0.536873 -7.32645e-05
v 0.103604 -0.563073 0.156284
v 0.105674 -0.559413 0.156284
v 0.290278 -0.504101 0.156284
v 0.197908 -0.603838 0.143658
v 0.207003 -0.603838 0.131597
v 0.214519 -0.603838 0.120011
f 1 2 3
f 1 3 4
f 1 4 5
f 1 5 14
f 1 14 28
f 1 28 38
f 1 38 48
f 1 48 61
f 1 61 56
f 1 56 43
f 1 43 34
f 1 34 20
f 1 20 15
f 1 15 6
f 1 6 7
f 1 7 8
f 1 8 2
f 2 8 9
f 2 9 10
f 2 10 11
f 2 11 12
f 2 12 13
f 2 13 3
f 3 13 27
f 3 27 37
f 3 37 46
f 3 46 59
f 3 59 72
f 3 72 76
f 3 76 75
f 3 75 74
f 3 74 78
f 3 78 63
f 3 63 49
f 3 49 39
f 3 39 29
f 3 29 14
f 3 14 5
f 3 5 4
f 6 15 7
f 7 16 17
f 7 17 18
f 7 18 19
f 7 19 8
f 7 15 20
f 7 20 16
f 8 19 9
f 9 19 10
f 10 19 21
f 10 21 22
f 10 22 11
f 11 22 23
f 11 23 24
f 11 24 25
f 11 25 12
f 12 25 26
f 12 26 27
f 12 27 13
f 14 29 30
f 14 30 31
f 14 31 32
f 14 32 28
f 16 33 17
f 16 20 34
f 16 34 33
f 17 33 35
f 17 35 18
f 18 35 21
f 18 21 19
f 21 35 22
f 22 36 44
f 22 44 55
f 22 55 54
f 22 54 70
f 22 70 69
f 22 69 84
f 22 84 83
f 22 83 82
f 22 82 71
f 22 71 57
f 22 57 45
f 22 45 37
f 22 37 27
f 22 27 26
f 22 26 25
f 22 25 24
f 22 24 23
f 22 35 36
f 28 32 31
f 28 31 30
f 28 30 40
f 28 40 50
f 28 50 64
f 28 64 80
f 28 80 79
f 28 79 73
f 28 73 58
f 28 58 45
f 28 45 57
f 28 57 68
f 28 68 67
f 28 67 81
f 28 81 77
f 28 77 60
f 28 60 47
f 28 47 38
f 29 39 40
f 29 40 30
f 33 34 41
f 33 41 42
f 33 42 35
f 34 43 41
f 35 42 36
f 36 42 44
f 37 45 46
f 38 47 48
f 39 49 50
f 39 50 40
f 41 51 52
f 41 52 42
f 41 43 51
f 42 52 53
f 42 53 54
f 42 54 55
f 42 55 44
f 43 56 51
f 45 58 46
f 46 58 59
f 47 60 48
f 48 60 62
f 48 62 61
f 49 63 64
f 49 64 50
f 51 62 60
f 51 60 65
f 51 65 52
f 51 56 62
f 52 65 66
f 52 66 53
f 53 66 67
f 53 67 68
f 53 68 69
f 53 69 70
f 53 70 54
f 56 61 62
f 57 71 68
f 58 72 59
f 58 73 74
f 58 74 75
f 58 75 76
f 58 76 72
f 60 77 66
f 60 66 65
f 63 78 79
f 63 79 80
f 63 80 64
f 66 77 81
f 66 81 67
f 68 71 82
f 68 82 83
f 68 83 84
f 68 84 69
f 73 79 78
f 73 78 74
