v -0.00806212 -0.730267 -0.317923
v -0.0134757 -0.730267 -0.317287
v -0.0231646 -0.722385 -0.311197
v -0.00772898 -0.720994 -0.312126
v 7.2114e-05 -0.727625 -0.316272
v 7.2114e-05 -0.730267 -0.317923
v -0.0386279 -0.723787 -0.310251
v -0.0694991 -0.730267 -0.310199
v -0.0611706 -0.725879 -0.308754
v -0.0508709 -0.724897 -0.30946
v -0.00772898 -0.620109 -0.244177
v 7.2114e-05 -0.720994 -0.312126
v 7.2114e-05 -0.730267 -0.196493
v -0.0849347 -0.730267 -0.306759
v -0.0694991 -0.726763 -0.308152
v -0.0540635 -0.620109 -0.238139
v -0.0130315 -0.620109 -0.243489
v 7.2114e-05 -0.620109 -0.244177
v 7.2114e-05 -0.656286 -0.181544
v -0.127494 -0.730267 -0.142185
v -0.087239 -0.730267 -0.305899
v -0.0849347 -0.729534 -0.306312
v -0.0790215 -0.709553 -0.294029
v -0.0694159 -0.620109 -0.234217
v 7.2114e-05 -0.620109 -0.178534
v 7.2114e-05 -0.640844 -0.179497
v -0.283543 -0.730267 -0.142185
v -0.108671 -0.640931 -0.142185
v -0.104007 -0.730267 -0.299465
v -0.0844628 -0.717479 -0.297934
v -0.109393 -0.725016 -0.29396
v -0.100398 -0.722579 -0.295784
v -0.0789659 -0.620109 -0.230484
v 7.2114e-05 -0.625403 -0.178396
v -0.107061 -0.620109 -0.142185
v -0.279379 -0.72383 -0.142185
v -0.279351 -0.723873 -0.14234
v -0.282072 -0.730267 -0.145901
v -0.108227 -0.637383 -0.142185
v -0.117805 -0.730267 -0.293823
v -0.119693 -0.728132 -0.291741
v -0.110809 -0.620109 -0.217325
v -0.100398 -0.620109 -0.221642
v -0.0845461 -0.620109 -0.228196
v -0.152618 -0.726795 -0.277119
v -0.142319 -0.723873 -0.279356
v -0.106811 -0.625403 -0.142185
v -0.197232 -0.620109 -0.142185
v -0.272938 -0.718449 -0.147174
v -0.27713 -0.726795 -0.152644
v -0.280684 -0.730267 -0.149359
v -0.124745 -0.730267 -0.29095
v -0.149342 -0.730267 -0.28068
v -0.113446 -0.620109 -0.21612
v -0.159003 -0.730267 -0.275623
v -0.160808 -0.718934 -0.2658
v -0.154756 -0.71006 -0.262756
v -0.118527 -0.620109 -0.213798
v -0.194317 -0.620109 -0.146245
v -0.263416 -0.724682 -0.171068
v -0.26275 -0.71006 -0.154777
v -0.265803 -0.718934 -0.160815
v -0.273132 -0.730267 -0.162862
v -0.275603 -0.730267 -0.159043
v -0.162835 -0.730267 -0.273129
v -0.165527 -0.730267 -0.271357
v -0.171024 -0.724682 -0.263426
v -0.131158 -0.620109 -0.205747
v -0.189458 -0.620109 -0.152575
v -0.230934 -0.726482 -0.215398
v -0.245204 -0.728067 -0.198333
v -0.259446 -0.72976 -0.181355
v -0.265082 -0.730267 -0.174353
v -0.174328 -0.730267 -0.265078
v -0.140542 -0.620109 -0.198695
v -0.181324 -0.72976 -0.259453
v -0.198314 -0.728067 -0.245192
v -0.21536 -0.726482 -0.230949
v -0.180713 -0.620109 -0.163912
v -0.216026 -0.710448 -0.216052
v -0.22702 -0.730267 -0.222881
v -0.236681 -0.730267 -0.211545
v -0.242567 -0.730267 -0.20389
v -0.175633 -0.620109 -0.169915
v -0.172968 -0.620109 -0.173012
v -0.248508 -0.730267 -0.196131
v -0.260195 -0.730267 -0.180856
v -0.180824 -0.730267 -0.260192
v -0.156172 -0.620109 -0.18667
v -0.182601 -0.730267 -0.258851
v -0.196121 -0.730267 -0.248512
v -0.211529 -0.730267 -0.236694
v -0.222856 -0.730267 -0.227027
v -0.224966 -0.730267 -0.22498
v -0.166999 -0.620109 -0.178086
v -0.16389 -0.620109 -0.180718
v -0.158809 -0.620109 -0.18464
f 1 2 3
f 1 3 4
f 1 4 5
f 1 5 6
f 1 6 13
f 1 13 20
f 1 20 27
f 1 27 38
f 1 38 51
f 1 51 64
f 1 64 63
f 1 63 73
f 1 73 87
f 1 87 86
f 1 86 83
f 1 83 82
f 1 82 81
f 1 81 94
f 1 94 93
f 1 93 92
f 1 92 91
f 1 91 90
f 1 90 88
f 1 88 74
f 1 74 66
f 1 66 65
f 1 65 55
f 1 55 53
f 1 53 52
f 1 52 40
f 1 40 29
f 1 29 21
f 1 21 14
f 1 14 8
f 1 8 2
f 2 7 3
f 2 8 9
f 2 9 10
f 2 10 7
f 3 7 11
f 3 11 4
f 4 11 18
f 4 18 12
f 4 12 5
f 5 12 18
f 5 18 25
f 5 25 34
f 5 34 26
f 5 26 19
f 5 19 13
f 5 13 6
f 7 10 11
f 8 14 15
f 8 15 9
f 9 15 16
f 9 16 10
f 10 16 17
f 10 17 11
f 11 17 16
f 11 16 24
f 11 24 33
f 11 33 44
f 11 44 43
f 11 43 42
f 11 42 54
f 11 54 58
f 11 58 68
f 11 68 75
f 11 75 89
f 11 89 97
f 11 97 96
f 11 96 95
f 11 95 85
f 11 85 84
f 11 84 79
f 11 79 69
f 11 69 59
f 11 59 48
f 11 48 35
f 11 35 25
f 11 25 18
f 13 19 20
f 14 21 22
f 14 22 15
f 15 23 16
f 15 22 23
f 16 23 24
f 19 26 20
f 20 26 28
f 20 28 39
f 20 39 47
f 20 47 35
f 20 35 48
f 20 48 36
f 20 36 27
f 21 29 22
f 22 30 24
f 22 24 23
f 22 29 31
f 22 31 32
f 22 32 30
f 24 30 32
f 24 32 33
f 25 35 34
f 26 34 28
f 27 36 37
f 27 37 38
f 28 34 39
f 29 40 41
f 29 41 31
f 31 42 43
f 31 43 44
f 31 44 33
f 31 33 32
f 31 41 45
f 31 45 46
f 31 46 42
f 34 47 39
f 34 35 47
f 36 48 37
f 37 49 50
f 37 50 38
f 37 48 49
f 38 50 51
f 40 52 41
f 41 52 53
f 41 53 45
f 42 46 45
f 42 45 54
f 45 53 55
f 45 55 56
f 45 56 57
f 45 57 58
f 45 58 54
f 48 59 60
f 48 60 61
f 48 61 50
f 48 50 49
f 50 61 62
f 50 62 63
f 50 63 64
f 50 64 51
f 55 65 56
f 56 65 66
f 56 66 67
f 56 67 57
f 57 67 68
f 57 68 58
f 59 69 70
f 59 70 60
f 60 70 71
f 60 71 72
f 60 72 73
f 60 73 63
f 60 63 62
f 60 62 61
f 66 74 67
f 67 75 68
f 67 74 76
f 67 76 77
f 67 77 78
f 67 78 75
f 69 79 70
f 70 80 81
f 70 81 82
f 70 82 83
f 70 83 71
f 70 79 84
f 70 84 85
f 70 85 80
f 71 83 86
f 71 86 72
f 72 87 73
f 72 86 87
f 74 88 76
f 75 78 89
f 76 88 90
f 76 90 91
f 76 91 77
f 77 91 78
f 78 91 92
f 78 92 93
f 78 93 94
f 78 94 80
f 78 80 85
f 78 85 95
f 78 95 96
f 78 96 97
f 78 97 89
f 80 94 81
