v 0.258813 -0.417837 0.138125
v 0.294219 -0.417837 -7.32645e-05
v 0.336944 -0.417837 0.138125
v 0.362622 -0.0222776 0.138125
v 0.390245 -0.0222776 -7.32645e-05
v 0.366166 -0.417837 -7.32645e-05
v 0.338138 -0.417837 0.135257
v 0.338851 -0.414894 0.136867
v 0.338158 -0.415242 0.138125
v 0.432836 -0.0222776 0.138125
v 0.455586 -0.0222776 -7.32645e-05
v 0.368651 -0.412067 -7.32645e-05
v 0.366166 -0.417837 0.00773216
v 0.342492 -0.417837 0.124786
v 0.350775 -0.408272 0.114938
v 0.33862 -0.414235 0.138125
v 0.434396 -0.0222776 0.134364
v 0.432566 -0.0283185 0.138125
v 0.455239 -0.0308355 -7.32645e-05
v 0.455586 -0.0222776 0.00773216
v 0.368651 -0.412067 0.00773216
v 0.386123 -0.370827 -7.32645e-05
v 0.356323 -0.417837 0.0837572
v 0.349061 -0.417837 0.108472
v 0.353414 -0.412841 0.103332
v 0.355629 -0.402541 0.109203
v 0.350948 -0.392976 0.130509
v 0.351103 -0.385309 0.138125
v 0.435148 -0.0222776 0.132551
v 0.431391 -0.0540695 0.138125
v 0.431353 -0.0695201 0.136515
v 0.43455 -0.0695201 0.128791
v 0.454584 -0.0462861 -7.32645e-05
v 0.453602 -0.0222776 0.0231671
v 0.453582 -0.0695201 0.00773216
v 0.371753 -0.404361 0.00773216
v 0.37104 -0.40258 0.0188383
v 0.368112 -0.408311 0.0236541
v 0.386123 -0.370827 0.000724862
v 0.394522 -0.347438 -7.32645e-05
v 0.356169 -0.417837 0.0849206
v 0.363758 -0.409201 0.0540506
v 0.359675 -0.409201 0.0849206
v 0.351892 -0.417837 0.101303
v 0.355302 -0.417217 0.0930372
v 0.370346 -0.370013 0.107268
v 0.354801 -0.417837 0.0936324
v 0.372562 -0.359713 0.112855
v 0.370443 -0.354795 0.12315
v 0.355726 -0.387323 0.124854
v 0.35482 -0.376674 0.138125
v 0.435244 -0.0386189 0.130495
v 0.440657 -0.0222776 0.115804
v 0.430679 -0.0695201 0.138125
v 0.430486 -0.0719597 0.138125
v 0.429446 -0.084932 0.138125
v 0.433915 -0.084932 0.127289
v 0.438557 -0.0695201 0.115804
v 0.439251 -0.0540695 0.115804
v 0.453929 -0.061698 -7.32645e-05
v 0.451695 -0.0222776 0.0376822
v 0.451598 -0.0695201 0.0231671
v 0.447938 -0.0785039 0.047368
v 0.452427 -0.084932 0.00773216
v 0.453024 -0.0771486 -7.32645e-05
v 0.453582 -0.0695201 -7.32645e-05
v 0.385468 -0.3692 0.0110194
v 0.384678 -0.367225 0.0231671
v 0.386778 -0.356964 0.0386157
v 0.38828 -0.363585 0.00660937
v 0.394522 -0.347438 0.00773216
v 0.402073 -0.326179 -7.32645e-05
v 0.355572 -0.417837 0.0893441
v 0.365897 -0.393751 0.0849206
v 0.355109 -0.417837 0.0925096
v 0.378302 -0.36285 0.0849206
v 0.386161 -0.340003 0.093213
v 0.382386 -0.346082 0.0991652
v 0.385006 -0.336595 0.103508
v 0.375451 -0.348754 0.11713
v 0.372581 -0.344495 0.128331
v 0.369037 -0.348754 0.132592
v 0.364394 -0.35433 0.138125
v 0.36085 -0.362617 0.138125
v 0.443431 -0.0222776 0.100369
v 0.441427 -0.0695201 0.100369
v 0.4275 -0.100383 0.138125
v 0.432952 -0.100383 0.124949
v 0.437363 -0.084932 0.115804
v 0.440272 -0.084932 0.100369
v 0.44817 -0.0222776 0.0644804
v 0.443469 -0.0695201 0.0849206
v 0.442314 -0.084932 0.0849206
v 0.447399 -0.0888044 0.043188
v 0.450443 -0.084932 0.0231671
v 0.452427 -0.084932 -7.32645e-05
v 0.448073 -0.094729 0.0328935
v 0.450616 -0.100383 0.00773216
v 0.448073 -0.125708 0.00219937
v 0.38778 -0.359481 0.0231671
v 0.392518 -0.347438 0.0231671
v 0.385507 -0.353827 0.0577572
v 0.402073 -0.326179 0.00463434
v 0.399838 -0.3316 0.00896317
v 0.397893 -0.331987 0.0231671
v 0.38672 -0.341513 0.0849206
v 0.417098 -0.278471 -7.32645e-05
v 0.384736 -0.351852 0.0694856
v 0.383715 -0.349219 0.0849206
v 0.39587 -0.331987 0.0386157
v 0.391806 -0.331987 0.0694856
v 0.389764 -0.331987 0.0849206
v 0.401187 -0.292412 0.0903587
v 0.4066 -0.270223 0.100369
v 0.402843 -0.282382 0.100369
v 0.402034 -0.279711 0.109514
v 0.386701 -0.326295 0.10969
v 0.382636 -0.331639 0.115222
v 0.370828 -0.338764 0.138125
v 0.370327 -0.34008 0.138125
v 0.366956 -0.348212 0.138125
v 0.443566 -0.0222776 0.0994357
v 0.421124 -0.146735 0.138125
v 0.423975 -0.146735 0.131253
v 0.432393 -0.108398 0.123623
v 0.435494 -0.100383 0.115804
v 0.432412 -0.139338 0.108256
v 0.438461 -0.100383 0.100369
v 0.448073 -0.125708 -7.32645e-05
v 0.447418 -0.105029 0.0278883
v 0.448092 -0.110335 0.0175938
v 0.447438 -0.120596 0.0124939
v 0.448709 -0.115601 0.00750219
v 0.444683 -0.146735 0.00773216
v 0.44268 -0.162146 0.00773216
v 0.390496 -0.347438 0.0386157
v 0.387741 -0.344107 0.0694856
v 0.401418 -0.324049 0.0149288
v 0.417098 -0.278471 0.00134713
v 0.418735 -0.270804 0.00698814
v 0.423108 -0.254773 -7.32645e-05
v 0.399858 -0.318976 0.0386157
v 0.41209 -0.285674 0.0231671
v 0.415692 -0.273902 0.0231671
v 0.410722 -0.270223 0.0694856
v 0.40868 -0.270223 0.0849206
v 0.416655 -0.261472 0.0443378
v 0.410915 -0.254773 0.100369
v 0.406946 -0.254773 0.115804
v 0.40319 -0.268945 0.115114
v 0.40163 -0.262943 0.123894
v 0.399935 -0.273244 0.119808
v 0.373409 -0.330942 0.138125
v 0.374931 -0.333265 0.132592
v 0.390245 -0.286797 0.132484
v 0.419622 -0.157577 0.138125
v 0.418986 -0.162146 0.138125
v 0.421818 -0.162146 0.131253
v 0.42725 -0.162146 0.115804
v 0.4317 -0.11866 0.121107
v 0.430852 -0.160907 0.0991111
v 0.431757 -0.149639 0.103426
v 0.434512 -0.131284 0.100369
v 0.44268 -0.162146 -7.32645e-05
v 0.438634 -0.146735 0.0540506
v 0.442699 -0.146735 0.0231671
v 0.440676 -0.162146 0.0231671
v 0.432432 -0.170201 0.0777375
v 0.440002 -0.177597 0.00773216
v 0.416443 -0.276342 0.0116416
v 0.423108 -0.254773 0.00773216
v 0.418042 -0.266196 0.0231671
v 0.43247 -0.216708 -7.32645e-05
v 0.417329 -0.263834 0.0340433
v 0.421105 -0.254773 0.0231671
v 0.418813 -0.255702 0.0389538
v 0.416019 -0.258916 0.0540506
v 0.412976 -0.254773 0.0849206
v 0.417271 -0.248461 0.0644128
v 0.416597 -0.245518 0.0746937
v 0.415923 -0.242381 0.0849206
v 0.414941 -0.238083 0.0992869
v 0.416347 -0.228944 0.10371
v 0.417464 -0.218682 0.109717
v 0.402747 -0.254773 0.126586
v 0.410683 -0.239322 0.115804
v 0.404404 -0.239322 0.131929
v 0.399549 -0.254773 0.13431
v 0.39797 -0.254773 0.138125
v 0.39352 -0.26972 0.138125
v 0.3909 -0.277697 0.138125
v 0.417907 -0.169349 0.138125
v 0.41914 -0.17659 0.131374
v 0.424495 -0.177597 0.115804
v 0.427847 -0.177597 0.100369
v 0.432432 -0.154944 0.0931319
v 0.431757 -0.165244 0.088032
v 0.440002 -0.177597 -7.32645e-05
v 0.432894 -0.160907 0.0837031
v 0.438654 -0.162146 0.0386157
v 0.430351 -0.176242 0.0837031
v 0.432008 -0.183638 0.0590288
v 0.435976 -0.177597 0.0386157
v 0.437999 -0.177597 0.0231671
v 0.432932 -0.203387 0.0197176
v 0.436689 -0.193048 0.00773216
v 0.43247 -0.216708 0.000846614
v 0.42671 -0.239322 0.00773216
v 0.415191 -0.254076 0.0695262
v 0.424707 -0.239322 0.0231671
v 0.422684 -0.239322 0.0386157
v 0.423243 -0.208498 0.0849206
v 0.421201 -0.208498 0.100369
v 0.424534 -0.193048 0.100369
v 0.416886 -0.200599 0.12342
v 0.400879 -0.244472 0.137529
v 0.400724 -0.244124 0.138125
v 0.400474 -0.245131 0.138125
v 0.401129 -0.242381 0.138125
v 0.418081 -0.190298 0.126315
v 0.402709 -0.235566 0.138125
v 0.417464 -0.17175 0.138125
v 0.415499 -0.180308 0.138125
v 0.430794 -0.192389 0.0539424
v 0.431815 -0.213648 0.0111411
v 0.408911 -0.208769 0.138125
f 1 2 6
f 1 6 13
f 1 13 23
f 1 23 41
f 1 41 73
f 1 73 75
f 1 75 47
f 1 47 44
f 1 44 24
f 1 24 14
f 1 14 7
f 1 7 3
f 1 3 9
f 1 9 16
f 1 16 28
f 1 28 51
f 1 51 84
f 1 84 83
f 1 83 121
f 1 121 120
f 1 120 119
f 1 119 153
f 1 153 191
f 1 191 190
f 1 190 189
f 1 189 218
f 1 218 217
f 1 217 219
f 1 219 221
f 1 221 226
f 1 226 223
f 1 223 222
f 1 222 192
f 1 192 157
f 1 157 156
f 1 156 123
f 1 123 87
f 1 87 56
f 1 56 55
f 1 55 54
f 1 54 30
f 1 30 18
f 1 18 10
f 1 10 4
f 1 4 5
f 1 5 2
f 2 5 11
f 2 11 19
f 2 19 33
f 2 33 60
f 2 60 66
f 2 66 65
f 2 65 96
f 2 96 129
f 2 129 164
f 2 164 198
f 2 198 173
f 2 173 141
f 2 141 107
f 2 107 72
f 2 72 40
f 2 40 22
f 2 22 12
f 2 12 6
f 3 7 8
f 3 8 9
f 4 10 17
f 4 17 29
f 4 29 53
f 4 53 85
f 4 85 122
f 4 122 91
f 4 91 61
f 4 61 34
f 4 34 20
f 4 20 11
f 4 11 5
f 6 12 21
f 6 21 13
f 7 14 8
f 8 15 16
f 8 16 9
f 8 14 15
f 10 18 17
f 11 20 19
f 12 22 39
f 12 39 21
f 13 21 23
f 14 24 25
f 14 25 15
f 15 26 16
f 15 25 26
f 16 26 27
f 16 27 28
f 17 18 29
f 18 30 31
f 18 31 32
f 18 32 29
f 19 20 33
f 20 34 62
f 20 62 35
f 20 35 33
f 21 36 37
f 21 37 38
f 21 38 23
f 21 39 36
f 22 40 71
f 22 71 39
f 23 38 42
f 23 42 43
f 23 43 41
f 24 44 25
f 25 45 46
f 25 46 26
f 25 44 47
f 25 47 45
f 26 46 48
f 26 48 49
f 26 49 50
f 26 50 27
f 27 50 28
f 28 50 49
f 28 49 51
f 29 52 53
f 29 32 52
f 30 54 31
f 31 54 55
f 31 55 56
f 31 56 32
f 32 56 57
f 32 57 58
f 32 58 59
f 32 59 53
f 32 53 52
f 33 35 60
f 34 61 62
f 35 62 63
f 35 63 64
f 35 64 65
f 35 65 66
f 35 66 60
f 36 39 67
f 36 67 37
f 37 67 38
f 38 67 68
f 38 68 69
f 38 69 42
f 39 70 67
f 39 71 70
f 40 72 103
f 40 103 71
f 41 43 73
f 42 69 74
f 42 74 43
f 43 45 73
f 43 74 45
f 45 47 75
f 45 75 73
f 45 74 76
f 45 76 77
f 45 77 78
f 45 78 79
f 45 79 46
f 46 79 48
f 48 79 80
f 48 80 49
f 49 80 81
f 49 81 82
f 49 82 83
f 49 83 84
f 49 84 51
f 53 59 86
f 53 86 85
f 56 87 88
f 56 88 57
f 57 88 89
f 57 89 58
f 58 89 90
f 58 90 86
f 58 86 59
f 61 91 62
f 62 92 63
f 62 91 92
f 63 90 93
f 63 93 94
f 63 94 95
f 63 95 64
f 63 92 86
f 63 86 90
f 64 96 65
f 64 95 97
f 64 97 98
f 64 98 99
f 64 99 129
f 64 129 96
f 67 70 100
f 67 100 69
f 67 69 68
f 69 100 71
f 69 71 101
f 69 101 102
f 69 102 76
f 69 76 74
f 70 71 100
f 71 103 104
f 71 104 105
f 71 105 106
f 71 106 101
f 72 107 139
f 72 139 103
f 76 102 108
f 76 108 109
f 76 109 77
f 77 79 78
f 77 109 106
f 77 106 105
f 77 105 110
f 77 110 111
f 77 111 112
f 77 112 113
f 77 113 114
f 77 114 115
f 77 115 116
f 77 116 79
f 79 116 117
f 79 117 80
f 80 117 118
f 80 118 119
f 80 119 81
f 81 119 120
f 81 120 121
f 81 121 82
f 82 121 83
f 85 86 122
f 86 92 122
f 87 123 124
f 87 124 88
f 88 125 89
f 88 124 125
f 89 125 126
f 89 126 127
f 89 127 90
f 90 127 128
f 90 128 97
f 90 97 94
f 90 94 93
f 91 122 92
f 94 97 95
f 97 128 130
f 97 130 131
f 97 131 98
f 98 131 132
f 98 132 133
f 98 133 99
f 99 134 135
f 99 135 164
f 99 164 129
f 99 133 134
f 101 136 102
f 101 106 137
f 101 137 136
f 102 136 108
f 103 138 104
f 103 139 140
f 103 140 138
f 104 138 105
f 105 138 110
f 106 109 108
f 106 108 137
f 107 141 171
f 107 171 139
f 108 136 137
f 110 138 142
f 110 142 113
f 110 113 111
f 111 113 112
f 113 143 144
f 113 144 145
f 113 145 146
f 113 146 114
f 113 142 143
f 114 116 115
f 114 146 147
f 114 147 148
f 114 148 116
f 116 148 149
f 116 149 150
f 116 150 151
f 116 151 152
f 116 152 117
f 117 153 154
f 117 154 119
f 117 119 118
f 117 152 151
f 117 151 155
f 117 155 153
f 119 154 153
f 123 156 124
f 124 156 157
f 124 157 158
f 124 158 125
f 125 158 159
f 125 159 160
f 125 160 127
f 125 127 126
f 127 160 159
f 127 159 161
f 127 161 162
f 127 162 128
f 128 162 163
f 128 163 130
f 130 163 165
f 130 165 166
f 130 166 131
f 131 166 132
f 132 166 134
f 132 134 133
f 134 166 135
f 135 167 168
f 135 168 169
f 135 169 198
f 135 198 164
f 135 166 167
f 138 140 170
f 138 170 144
f 138 144 143
f 138 143 142
f 139 171 140
f 140 171 172
f 140 172 170
f 141 173 207
f 141 207 171
f 144 170 172
f 144 172 145
f 145 172 174
f 145 174 146
f 146 174 147
f 147 174 171
f 147 171 175
f 147 175 176
f 147 176 177
f 147 177 178
f 147 178 148
f 148 178 179
f 148 179 180
f 148 180 181
f 148 181 182
f 148 182 183
f 148 183 184
f 148 184 149
f 149 185 151
f 149 151 150
f 149 184 186
f 149 186 187
f 149 187 185
f 151 185 188
f 151 188 189
f 151 189 190
f 151 190 155
f 153 155 191
f 155 190 191
f 157 192 158
f 158 192 193
f 158 193 194
f 158 194 159
f 159 194 195
f 159 195 161
f 161 196 162
f 161 195 197
f 161 197 196
f 162 196 165
f 162 165 163
f 165 196 166
f 166 196 199
f 166 199 200
f 166 200 167
f 167 200 168
f 168 197 195
f 168 195 201
f 168 201 202
f 168 202 203
f 168 203 204
f 168 204 169
f 168 200 197
f 169 204 205
f 169 205 206
f 169 206 207
f 169 207 173
f 169 173 198
f 171 179 175
f 171 174 172
f 171 207 208
f 171 208 179
f 175 179 176
f 176 179 177
f 177 179 209
f 177 209 178
f 178 209 179
f 179 208 210
f 179 210 180
f 180 210 211
f 180 211 205
f 180 205 212
f 180 212 183
f 180 183 181
f 181 183 182
f 183 212 213
f 183 213 214
f 183 214 195
f 183 195 184
f 184 195 194
f 184 194 215
f 184 215 186
f 185 187 216
f 185 216 217
f 185 217 218
f 185 218 188
f 186 215 187
f 187 219 217
f 187 217 216
f 187 215 220
f 187 220 221
f 187 221 219
f 188 218 189
f 192 222 193
f 193 222 223
f 193 223 220
f 193 220 194
f 194 220 215
f 195 214 201
f 196 197 199
f 197 200 199
f 201 214 212
f 201 212 224
f 201 224 202
f 202 224 205
f 202 205 203
f 203 205 204
f 205 224 212
f 205 211 210
f 205 210 208
f 205 208 225
f 205 225 207
f 205 207 206
f 207 225 208
f 212 214 213
f 220 223 226
f 220 226 221
