v 7.2114e-05 0.00774893 0.456563
v -0.0077225 0.00774893 0.456563
v 7.2114e-05 -0.00769037 0.45621
v 7.2114e-05 0.0155428 0.456404
v -0.0231756 0.00774893 0.454569
v -0.0077225 -0.00769037 0.45621
v -0.0077225 0.0231882 0.456245
v 7.2114e-05 -0.0153358 0.455892
v 7.2114e-05 0.0231882 0.456245
v -0.0758488 0.00774893 0.447633
v -0.0745554 -0.00769037 0.447457
v -0.0540477 -0.00769037 0.450157
v -0.0231756 -0.00769037 0.454216
v -0.0231756 0.0231882 0.454251
v -0.0386116 0.0231882 0.452222
v -0.0222395 -0.0222389 0.453722
v -0.0077225 -0.0222389 0.455592
v -0.0077225 0.0386275 0.455592
v 7.2114e-05 -0.0222389 0.455592
v 7.2114e-05 0.0386275 0.455592
v -0.100356 0.00774893 0.444404
v -0.0746575 0.0231882 0.447474
v -0.100356 -0.00769037 0.444051
v -0.0994369 -0.0222389 0.443557
v -0.0843242 -0.0222389 0.445551
v -0.0717473 -0.0222389 0.44721
v -0.0637144 -0.0222389 0.448269
v -0.0531287 -0.0222389 0.449663
v -0.0376926 -0.0222389 0.451692
v -0.0231756 0.0386275 0.453598
v -0.0685307 0.0542895 0.446963
v 7.2114e-05 0.0772999 0.453951
v -0.0077225 0.0849454 0.453616
v 7.2114e-05 -0.0222389 0.39026
v -0.115809 0.00774893 0.441651
v -0.100356 0.0231882 0.444086
v -0.100356 0.0386275 0.443433
v -0.115809 -0.00769037 0.44128
v -0.100356 -0.0222389 0.443433
v -0.0231756 0.0849454 0.451622
v -0.0492484 0.0849454 0.448198
v -0.0849368 0.0540668 0.44481
v 7.2114e-05 0.0849454 0.453616
v 7.2114e-05 0.0927392 0.453051
v -0.0077225 0.100385 0.452486
v -0.0474444 0.0941124 0.447951
v -0.173792 -0.0222389 0.347869
v -0.173792 0.356914 0.276272
v 7.2114e-05 0.356914 0.326921
v -0.131245 0.00774893 0.436709
v -0.115809 0.0231882 0.441315
v -0.100356 0.0849454 0.441456
v -0.131245 -0.00769037 0.436339
v -0.115809 -0.0222389 0.440645
v -0.11489 -0.0222389 0.440821
v 7.2114e-05 0.100385 0.452486
v -0.0331146 0.110405 0.448092
v -0.0231756 0.100385 0.450492
v -0.00242965 0.141395 0.44811
v -0.0077225 0.115824 0.450704
v -0.0384074 0.0997166 0.448569
v -0.0849368 0.100385 0.442374
v -0.100356 0.100385 0.440327
v -0.173792 -0.0222389 0.418055
v -0.173792 0.356914 0.3622
v 7.2114e-05 0.356914 0.402984
v -0.173792 0.00774893 0.419097
v -0.147634 -0.00769037 0.429562
v -0.131245 0.0231882 0.436374
v -0.147668 0.0231882 0.429579
v -0.115809 0.0386275 0.440645
v -0.128828 0.0849454 0.434556
v -0.115809 0.0849454 0.438597
v -0.115809 0.0695061 0.439286
v -0.134359 -0.0222389 0.434397
v -0.132538 -0.0222389 0.435138
v -0.131313 -0.0222389 0.435544
v 7.2114e-05 0.141395 0.44811
v -0.0434109 0.104393 0.447421
v -0.0230394 0.115675 0.448745
v -0.0384074 0.115675 0.446733
v -0.0695008 0.115824 0.442621
v -0.100356 0.115824 0.438544
v -0.0077225 0.301095 0.425026
v -0.0077225 0.177581 0.44278
v -0.0077225 0.162142 0.444774
v -0.00763741 0.146591 0.446786
v -0.00763741 0.131189 0.448763
v -0.0178147 0.125993 0.44811
v -0.115809 0.100385 0.437433
v -0.172482 -0.0222389 0.418602
v -0.173792 -0.00769037 0.418726
v -0.139074 0.339768 0.386077
v -0.16775 0.356914 0.364723
v -0.173792 0.331974 0.375788
v -0.00505055 0.356914 0.402984
v 7.2114e-05 0.335203 0.414649
v -0.173792 0.00856542 0.419079
v -0.13053 0.0540668 0.435262
v -0.173792 0.0375512 0.418108
v -0.173792 0.0231882 0.418761
v -0.173792 0.079267 0.416202
v -0.127365 0.100385 0.433956
v -0.170082 0.0935557 0.417014
v -0.173792 0.0896959 0.41569
v -0.173792 0.0849454 0.415938
v -0.162134 -0.0222389 0.422891
v 7.2114e-05 0.301095 0.425026
v -0.0230394 0.131189 0.446768
v -0.0540477 0.162142 0.438721
v -0.103641 0.165296 0.431785
v -0.108372 0.155016 0.432438
v 7.2114e-05 0.308889 0.423526
v -0.0077225 0.316535 0.422044
v -0.0623018 0.309075 0.416996
v -0.0231756 0.177581 0.440786
v -0.0231756 0.162142 0.44278
v -0.012726 0.136274 0.447457
v -0.115809 0.115824 0.43558
v -0.123689 0.124063 0.432438
v -0.12505 0.115824 0.433003
v -0.136759 0.356914 0.377536
v -0.144111 0.356914 0.374518
v -0.14937 0.33576 0.383924
v -0.116898 0.332605 0.398978
v -0.173792 0.319986 0.380677
v -0.155803 0.325442 0.386607
v -0.145217 0.331157 0.388036
v -0.0755765 0.356914 0.39476
v -0.0077225 0.335203 0.414649
v 7.2114e-05 0.327483 0.418408
v -0.168703 0.103836 0.416449
v -0.135091 0.100385 0.430762
v -0.173792 0.0970815 0.41509
v -0.173792 0.100793 0.414684
v -0.0838987 0.176468 0.43295
v -0.0992497 0.176468 0.430921
v -0.100356 0.301095 0.412849
v -0.115809 0.177581 0.427356
v -0.121221 0.134344 0.431732
v 7.2114e-05 0.316535 0.422044
v 7.2114e-05 0.322065 0.420208
v -0.0077225 0.327483 0.418408
v -0.0204866 0.325739 0.417579
v -0.030783 0.324217 0.416908
v -0.0246562 0.318056 0.419432
v -0.0540477 0.311079 0.417543
v -0.0849368 0.316535 0.411914
v -0.100356 0.316535 0.409849
v -0.0883406 0.180847 0.431785
v -0.0780612 0.18582 0.432474
v -0.0695008 0.177581 0.434697
v -0.166865 0.115824 0.41569
v -0.131245 0.177581 0.421938
v -0.131245 0.162142 0.424073
v -0.153301 0.151082 0.416467
v -0.123042 0.356914 0.382936
v -0.11249 0.327854 0.403196
v -0.107419 0.356914 0.389024
v -0.173792 0.316535 0.382053
v -0.122787 0.323289 0.401166
v -0.0853964 0.356914 0.393507
v -0.0922039 0.339582 0.401413
v -0.173792 0.115824 0.412814
v -0.115809 0.301095 0.408949
v -0.100356 0.330749 0.40459
v -0.116898 0.3175 0.405155
v -0.173792 0.12024 0.412214
v -0.129084 0.301095 0.403778
v -0.169827 0.308741 0.386024
v -0.139584 0.186414 0.417173
v -0.173792 0.177581 0.404325
v -0.143737 0.162142 0.418902
v -0.173792 0.162364 0.406425
v -0.100356 0.338469 0.400778
v -0.101071 0.356914 0.390966
v -0.173792 0.305289 0.384789
v -0.126514 0.312972 0.402719
v -0.1315 0.3175 0.399295
f 1 2 6
f 1 6 3
f 1 3 8
f 1 8 19
f 1 19 34
f 1 34 49
f 1 49 66
f 1 66 97
f 1 97 131
f 1 131 142
f 1 142 141
f 1 141 113
f 1 113 108
f 1 108 78
f 1 78 56
f 1 56 44
f 1 44 43
f 1 43 32
f 1 32 20
f 1 20 9
f 1 9 4
f 1 4 2
f 2 5 13
f 2 13 6
f 2 4 7
f 2 7 14
f 2 14 5
f 3 6 8
f 4 9 7
f 5 10 11
f 5 11 12
f 5 12 13
f 5 14 15
f 5 15 10
f 6 13 16
f 6 16 17
f 6 17 8
f 7 9 20
f 7 20 18
f 7 18 30
f 7 30 14
f 8 17 19
f 10 21 11
f 10 15 22
f 10 22 21
f 11 21 23
f 11 23 24
f 11 24 25
f 11 25 26
f 11 26 27
f 11 27 28
f 11 28 12
f 12 28 29
f 12 29 13
f 13 29 16
f 14 30 15
f 15 30 31
f 15 31 22
f 16 29 28
f 16 28 27
f 16 27 26
f 16 26 25
f 16 25 24
f 16 24 39
f 16 39 55
f 16 55 54
f 16 54 77
f 16 77 76
f 16 76 75
f 16 75 107
f 16 107 91
f 16 91 64
f 16 64 47
f 16 47 34
f 16 34 19
f 16 19 17
f 18 20 32
f 18 32 33
f 18 33 40
f 18 40 30
f 21 35 23
f 21 22 36
f 21 36 35
f 22 31 37
f 22 37 36
f 23 35 38
f 23 38 39
f 23 39 24
f 30 40 41
f 30 41 31
f 31 42 37
f 31 41 42
f 32 43 33
f 33 43 44
f 33 44 45
f 33 45 46
f 33 46 40
f 34 47 48
f 34 48 49
f 35 50 53
f 35 53 38
f 35 36 51
f 35 51 69
f 35 69 50
f 36 37 51
f 37 42 52
f 37 52 51
f 38 53 54
f 38 54 55
f 38 55 39
f 40 46 41
f 41 46 52
f 41 52 42
f 44 56 45
f 45 57 58
f 45 58 46
f 45 56 78
f 45 78 59
f 45 59 60
f 45 60 57
f 46 58 61
f 46 61 62
f 46 62 63
f 46 63 52
f 47 64 92
f 47 92 67
f 47 67 98
f 47 98 101
f 47 101 100
f 47 100 102
f 47 102 106
f 47 106 105
f 47 105 134
f 47 134 135
f 47 135 164
f 47 164 168
f 47 168 174
f 47 174 172
f 47 172 177
f 47 177 160
f 47 160 126
f 47 126 95
f 47 95 65
f 47 65 48
f 48 65 94
f 48 94 123
f 48 123 122
f 48 122 157
f 48 157 159
f 48 159 176
f 48 176 162
f 48 162 129
f 48 129 96
f 48 96 66
f 48 66 49
f 50 67 68
f 50 68 53
f 50 69 70
f 50 70 67
f 51 52 71
f 51 71 72
f 51 72 69
f 52 63 73
f 52 73 74
f 52 74 71
f 53 68 75
f 53 75 76
f 53 76 77
f 53 77 54
f 57 79 58
f 57 60 80
f 57 80 81
f 57 81 82
f 57 82 83
f 57 83 79
f 58 79 61
f 59 78 108
f 59 108 84
f 59 84 85
f 59 85 86
f 59 86 87
f 59 87 88
f 59 88 60
f 60 88 89
f 60 89 80
f 61 79 62
f 62 79 83
f 62 83 63
f 63 83 90
f 63 90 73
f 64 91 92
f 65 93 94
f 65 95 93
f 66 96 130
f 66 130 97
f 67 70 98
f 67 92 68
f 68 92 75
f 69 99 70
f 69 72 99
f 70 100 101
f 70 101 98
f 70 99 72
f 70 72 102
f 70 102 100
f 71 74 72
f 72 73 103
f 72 103 104
f 72 104 105
f 72 105 106
f 72 106 102
f 72 74 73
f 73 90 103
f 75 92 107
f 80 89 109
f 80 109 81
f 81 109 110
f 81 110 82
f 82 110 111
f 82 111 83
f 83 111 112
f 83 112 90
f 84 108 113
f 84 113 114
f 84 114 115
f 84 115 85
f 85 116 117
f 85 117 86
f 85 115 116
f 86 117 87
f 87 118 88
f 87 117 118
f 88 118 89
f 89 118 109
f 90 112 119
f 90 119 120
f 90 120 121
f 90 121 103
f 91 107 92
f 93 122 123
f 93 123 94
f 93 95 124
f 93 124 125
f 93 125 122
f 95 126 127
f 95 127 128
f 95 128 124
f 96 129 130
f 97 130 143
f 97 143 131
f 103 121 132
f 103 132 133
f 103 133 104
f 104 134 105
f 104 133 135
f 104 135 134
f 109 118 117
f 109 117 110
f 110 117 136
f 110 136 111
f 111 136 137
f 111 137 138
f 111 138 112
f 112 138 139
f 112 139 140
f 112 140 120
f 112 120 119
f 113 141 114
f 114 141 142
f 114 142 143
f 114 143 144
f 114 144 145
f 114 145 146
f 114 146 147
f 114 147 115
f 115 147 148
f 115 148 149
f 115 149 138
f 115 138 137
f 115 137 150
f 115 150 151
f 115 151 116
f 116 151 152
f 116 152 136
f 116 136 117
f 120 153 121
f 120 140 139
f 120 139 154
f 120 154 155
f 120 155 156
f 120 156 153
f 121 153 132
f 122 125 157
f 124 128 125
f 125 128 127
f 125 127 158
f 125 158 159
f 125 159 157
f 126 160 127
f 127 161 158
f 127 160 161
f 129 162 130
f 130 162 163
f 130 163 143
f 131 143 142
f 132 164 135
f 132 135 133
f 132 153 164
f 136 152 150
f 136 150 137
f 138 149 165
f 138 165 139
f 139 165 154
f 143 163 144
f 144 163 166
f 144 166 145
f 145 166 149
f 145 149 148
f 145 148 147
f 145 147 146
f 149 166 158
f 149 158 167
f 149 167 165
f 150 152 151
f 153 156 168
f 153 168 164
f 154 165 169
f 154 169 170
f 154 170 171
f 154 171 172
f 154 172 173
f 154 173 155
f 155 173 156
f 156 173 174
f 156 174 168
f 158 161 167
f 158 166 175
f 158 175 176
f 158 176 159
f 160 177 170
f 160 170 178
f 160 178 179
f 160 179 161
f 161 179 178
f 161 178 167
f 162 176 175
f 162 175 163
f 163 175 166
f 165 167 178
f 165 178 169
f 169 178 170
f 170 177 172
f 170 172 171
f 172 174 173
