v -0.286212 0.356914 -0.157036
v -0.231181 0.356914 -0.231795
v -0.368367 0.356914 -0.157036
v -0.354805 -0.0222389 -0.157036
v -0.231181 -0.0222389 -0.311508
v -0.231181 0.356914 -0.327085
v -0.364705 0.356914 -0.167752
v -0.382254 0.332828 -0.157036
v -0.42502 -0.0222389 -0.157036
v -0.231181 -0.0222389 -0.392377
v -0.238334 0.356914 -0.323011
v -0.231181 0.339211 -0.339652
v -0.231334 0.33936 -0.339467
v -0.360394 0.356914 -0.178075
v -0.369359 0.337467 -0.182403
v -0.383131 0.331157 -0.157036
v -0.425668 -0.00769032 -0.157036
v -0.423551 -0.00769032 -0.162151
v -0.415444 -0.00769032 -0.181732
v -0.403923 -0.00631712 -0.209691
v -0.401138 -0.0222389 -0.214668
v -0.23614 -0.0222389 -0.389438
v -0.236636 -0.00769032 -0.389831
v -0.231181 -0.0142965 -0.392748
v -0.256226 0.356914 -0.309031
v -0.275625 0.336836 -0.307018
v -0.292583 0.338766 -0.292575
v -0.231181 0.330712 -0.344791
v -0.269159 0.330675 -0.31572
v -0.358124 0.356914 -0.183283
v -0.367452 0.332197 -0.193605
v -0.372049 0.327186 -0.188838
v -0.374185 0.332197 -0.177404
v -0.385477 0.326667 -0.157036
v -0.425802 -0.00208615 -0.157036
v -0.401481 -0.00023047 -0.216218
v -0.401252 -0.010511 -0.215663
v -0.400985 -0.0222389 -0.215015
v -0.236598 -0.0222389 -0.389091
v -0.244362 -0.00769032 -0.383953
v -0.236922 0.00774897 -0.39004
v -0.231181 0.00774897 -0.393442
v -0.231181 -0.00717073 -0.393026
v -0.273527 0.356914 -0.295422
v -0.279669 0.326555 -0.310142
v -0.286136 0.332642 -0.301463
v -0.295921 0.328448 -0.295885
v -0.301472 0.332642 -0.286117
v -0.307042 0.336836 -0.275609
v -0.318258 0.356914 -0.244502
v -0.299068 0.356914 -0.26892
v -0.289569 0.356914 -0.280308
v -0.285106 0.356914 -0.285076
v -0.231181 0.320914 -0.34942
v -0.235377 0.329042 -0.342569
v -0.350494 0.356914 -0.198674
v -0.35696 0.342143 -0.203813
v -0.359917 0.33216 -0.208766
v -0.369912 0.322065 -0.199137
v -0.386431 0.324514 -0.157036
v -0.42603 0.00774897 -0.157036
v -0.3982 -0.00631712 -0.222398
v -0.41882 0.00774897 -0.174464
v -0.404724 0.00774897 -0.208488
v -0.4015 0.00774897 -0.216265
v -0.397762 0.00774897 -0.223972
v -0.396979 -0.0222389 -0.223324
v -0.244457 -0.0222389 -0.383096
v -0.270246 -0.00769032 -0.364094
v -0.287929 0.00774897 -0.350947
v -0.244629 0.00774897 -0.384161
v -0.253918 -0.0222389 -0.375852
v -0.261643 -0.0222389 -0.369927
v -0.244381 0.0231883 -0.383976
v -0.236655 0.0231883 -0.389855
v -0.231181 0.0165078 -0.393257
v -0.262674 0.324477 -0.324377
v -0.290008 0.316535 -0.306207
v -0.298515 0.316535 -0.2985
v -0.30624 0.316535 -0.289983
v -0.31017 0.326555 -0.27966
v -0.339469 0.33936 -0.231332
v -0.31574 0.330675 -0.269152
v -0.329054 0.356914 -0.230383
v -0.231181 0.316498 -0.351387
v -0.245678 0.321211 -0.338611
v -0.345554 0.356914 -0.207701
v -0.353699 0.33743 -0.214112
v -0.356827 0.327149 -0.218371
v -0.387118 0.322399 -0.157036
v -0.367089 0.316757 -0.208094
v -0.371476 0.311784 -0.202702
v -0.373804 0.316757 -0.193605
v -0.389006 0.316535 -0.157036
v -0.425916 0.0132047 -0.157036
v -0.4015 0.0159511 -0.216242
v -0.389826 -0.00769032 -0.236633
v -0.396712 -0.0222389 -0.223833
v -0.390036 0.00774897 -0.23691
v -0.398219 0.0219264 -0.222398
v -0.389845 0.0231883 -0.236656
v -0.297714 -0.00769032 -0.343009
v -0.305706 0.00774897 -0.337292
v -0.305458 0.0231883 -0.337106
v -0.287147 -0.0222389 -0.350346
v -0.253384 0.0540668 -0.375435
v -0.242244 0.0849454 -0.382332
v -0.235053 0.0695061 -0.388628
v -0.231181 0.04824 -0.391915
v -0.231181 0.0386275 -0.392354
v -0.231181 0.0227058 -0.393049
v -0.282282 0.316535 -0.312156
v -0.248024 0.310931 -0.340416
v -0.29243 0.301095 -0.308082
v -0.300384 0.301095 -0.300352
v -0.30811 0.301095 -0.292413
v -0.340423 0.310931 -0.24802
v -0.312173 0.316535 -0.282275
v -0.3244 0.324477 -0.262671
v -0.231181 0.305438 -0.354465
v -0.253823 0.316275 -0.334098
v -0.33863 0.321211 -0.245682
v -0.359001 0.316535 -0.221218
v -0.368596 0.301095 -0.212376
v -0.372354 0.301095 -0.204646
v -0.386031 0.308741 -0.169835
v -0.390856 0.308073 -0.157036
v -0.425706 0.0231883 -0.157036
v -0.423589 0.0231883 -0.162151
v -0.403942 0.0219264 -0.209715
v -0.401271 0.0262316 -0.215686
v -0.396674 0.0386275 -0.223926
v -0.383951 -0.00769032 -0.244363
v -0.389445 -0.0222389 -0.236147
v -0.384161 0.00774897 -0.244641
v -0.38397 0.0231883 -0.244386
v -0.389445 0.0386275 -0.236123
v -0.30542 -0.00769032 -0.337083
v -0.304924 -0.0222389 -0.33669
v -0.315435 -0.00769032 -0.329376
v -0.315702 0.00774897 -0.329584
v -0.315454 0.0231883 -0.329376
v -0.31492 0.0386275 -0.328982
v -0.303856 0.0695061 -0.33588
v -0.303322 0.0849454 -0.335463
v -0.277685 0.0886197 -0.354928
v -0.233603 0.100385 -0.387517
v -0.234519 0.0849454 -0.388211
v -0.231181 0.0695061 -0.390896
v -0.231181 0.305104 -0.354558
v -0.278162 0.185857 -0.339861
v -0.304562 0.177581 -0.320974
v -0.31326 0.177581 -0.313244
v -0.354671 0.305215 -0.231008
v -0.320985 0.177581 -0.304541
v -0.339869 0.185857 -0.278132
v -0.334109 0.316275 -0.25383
v -0.353088 0.316535 -0.228948
v -0.359841 0.300464 -0.225083
v -0.373765 0.177581 -0.235776
v -0.38233 0.17862 -0.223023
v -0.385916 0.184484 -0.215918
v -0.392096 0.301986 -0.157036
v -0.411267 0.177581 -0.157036
v -0.425 0.038776 -0.157036
v -0.400642 0.0540668 -0.214159
v -0.394385 0.0849454 -0.223926
v -0.388224 0.0849454 -0.234526
v -0.376226 -0.00769032 -0.254431
v -0.38357 -0.0222389 -0.243854
v -0.370523 0.00774897 -0.262417
v -0.375845 0.0386275 -0.253922
v -0.376245 0.0231883 -0.254455
v -0.38233 0.0849454 -0.242257
v -0.31492 -0.0222389 -0.328982
v -0.32316 -0.00769032 -0.323127
v -0.323427 0.00774897 -0.323404
v -0.315396 -0.0222389 -0.328612
v -0.323179 0.0231883 -0.32315
v -0.313317 0.0849454 -0.327733
v -0.312421 0.100385 -0.327038
v -0.302406 0.100385 -0.334769
v -0.259107 0.100385 -0.367982
v -0.251381 0.100385 -0.373908
v -0.241329 0.100385 -0.381615
v -0.232516 0.112335 -0.386707
v -0.231181 0.100385 -0.388906
v -0.231181 0.0965249 -0.38923
v -0.231181 0.0849454 -0.390156
v -0.231181 0.177952 -0.376824
v -0.235759 0.177581 -0.373769
v -0.243484 0.177581 -0.367843
v -0.286784 0.177581 -0.33463
v -0.306183 0.162142 -0.322224
v -0.308682 0.138166 -0.324145
v -0.310971 0.115824 -0.325927
v -0.320146 0.100385 -0.320118
v -0.325945 0.115824 -0.310952
v -0.324991 0.127886 -0.309726
v -0.322244 0.162142 -0.306161
v -0.354195 0.177581 -0.261282
v -0.354939 0.168451 -0.262231
v -0.350513 0.162847 -0.269175
v -0.375005 0.162142 -0.237396
v -0.386698 0.112335 -0.232513
v -0.385897 0.122616 -0.231402
v -0.38397 0.146703 -0.228416
v -0.382731 0.162142 -0.226495
v -0.386641 0.174167 -0.217283
v -0.399326 0.100385 -0.210988
v -0.398811 0.116084 -0.207539
v -0.394214 0.146703 -0.208488
v -0.403713 0.177581 -0.175274
v -0.413403 0.162142 -0.157036
v -0.42336 0.0746278 -0.157036
v -0.414051 0.0849454 -0.178376
v -0.403484 0.0695061 -0.205595
v -0.399936 0.0849454 -0.212446
v -0.393088 0.100385 -0.223926
v -0.387537 0.100385 -0.233601
v -0.364094 -0.00769032 -0.27024
v -0.375845 -0.0222389 -0.253922
v -0.343227 0.00774897 -0.297968
v -0.343036 0.0231883 -0.297713
v -0.368691 0.0849454 -0.260033
v -0.359841 0.0840547 -0.271628
v -0.354939 0.0886197 -0.277669
v -0.322645 -0.0222389 -0.322617
v -0.323026 -0.0222389 -0.322178
v -0.328978 -0.0222389 -0.31491
v -0.329359 -0.00769032 -0.315419
v -0.329588 0.00774897 -0.315697
v -0.329378 0.0231883 -0.315442
v -0.328177 0.0695061 -0.313845
v -0.327757 0.0849454 -0.313313
v -0.321043 0.0849454 -0.32102
v -0.293823 0.110108 -0.340023
v -0.23141 0.122616 -0.385897
v -0.231181 0.113152 -0.387332
v -0.231181 0.11048 -0.387679
v -0.286841 0.11549 -0.344536
v -0.257657 0.115824 -0.366871
v -0.249931 0.115824 -0.372797
v -0.247375 0.140393 -0.370829
v -0.240432 0.146034 -0.37525
v -0.231181 0.169936 -0.378189
v -0.246307 0.150711 -0.369996
v -0.256169 0.162847 -0.360483
v -0.263303 0.158171 -0.355762
v -0.253441 0.146034 -0.365274
v -0.299831 0.11549 -0.33456
v -0.32707 0.100385 -0.312387
v -0.334567 0.11549 -0.299819
v -0.340022 0.110108 -0.293802
v -0.36686 0.115824 -0.257672
v -0.372793 0.115824 -0.249941
v -0.357914 0.131263 -0.26612
v -0.378439 0.131263 -0.239364
v -0.381529 0.116826 -0.238345
v -0.381624 0.100385 -0.241331
v -0.390132 0.116826 -0.225315
v -0.417027 0.0935558 -0.170113
v -0.40253 0.100385 -0.20328
v -0.401882 0.111111 -0.201753
v -0.404361 0.116084 -0.194138
v -0.418 0.128702 -0.157036
v -0.422883 0.0849454 -0.157036
v -0.343017 -0.00769032 -0.29769
v -0.337065 -0.0222389 -0.304448
v -0.363694 -0.0222389 -0.269754
v -0.336703 0.0386275 -0.304888
v -0.337104 0.0231883 -0.305421
v -0.341395 0.0849454 -0.295584
v -0.367986 0.100385 -0.259107
v -0.36026 0.100385 -0.269175
v -0.334757 0.100385 -0.302388
v -0.337084 -0.00769032 -0.305397
v -0.335883 0.0695061 -0.303823
v -0.231181 0.12436 -0.385758
v -0.231181 0.12243 -0.386036
v -0.421758 0.0997537 -0.157036
v -0.413861 0.0993826 -0.1762
v -0.416455 0.103836 -0.168724
v -0.418877 0.115824 -0.159165
v -0.419392 0.118496 -0.157036
v -0.421052 0.105432 -0.157036
v -0.419755 0.115824 -0.157036
f 1 2 6
f 1 6 11
f 1 11 25
f 1 25 44
f 1 44 53
f 1 53 52
f 1 52 51
f 1 51 50
f 1 50 84
f 1 84 87
f 1 87 56
f 1 56 30
f 1 30 14
f 1 14 7
f 1 7 3
f 1 3 8
f 1 8 16
f 1 16 34
f 1 34 60
f 1 60 90
f 1 90 94
f 1 94 127
f 1 127 163
f 1 163 164
f 1 164 214
f 1 214 266
f 1 266 285
f 1 285 287
f 1 287 286
f 1 286 281
f 1 281 267
f 1 267 215
f 1 215 165
f 1 165 128
f 1 128 95
f 1 95 61
f 1 61 35
f 1 35 17
f 1 17 9
f 1 9 4
f 1 4 5
f 1 5 2
f 2 5 10
f 2 10 24
f 2 24 43
f 2 43 42
f 2 42 76
f 2 76 111
f 2 111 110
f 2 110 109
f 2 109 149
f 2 149 189
f 2 189 188
f 2 188 187
f 2 187 240
f 2 240 239
f 2 239 280
f 2 280 279
f 2 279 246
f 2 246 190
f 2 190 150
f 2 150 120
f 2 120 85
f 2 85 54
f 2 54 28
f 2 28 12
f 2 12 6
f 3 7 8
f 4 9 21
f 4 21 38
f 4 38 67
f 4 67 98
f 4 98 134
f 4 134 170
f 4 170 222
f 4 222 270
f 4 270 269
f 4 269 230
f 4 230 229
f 4 229 228
f 4 228 178
f 4 178 175
f 4 175 139
f 4 139 105
f 4 105 73
f 4 73 72
f 4 72 68
f 4 68 39
f 4 39 22
f 4 22 10
f 4 10 5
f 6 12 13
f 6 13 11
f 7 14 15
f 7 15 8
f 8 15 16
f 9 17 18
f 9 18 19
f 9 19 20
f 9 20 21
f 10 22 23
f 10 23 24
f 11 13 26
f 11 26 27
f 11 27 25
f 12 28 13
f 13 28 29
f 13 29 26
f 14 30 31
f 14 31 15
f 15 31 32
f 15 32 33
f 15 33 16
f 16 33 34
f 17 35 36
f 17 36 18
f 18 36 19
f 19 36 20
f 20 36 37
f 20 37 21
f 21 37 38
f 22 39 23
f 23 39 40
f 23 40 41
f 23 41 42
f 23 42 43
f 23 43 24
f 25 27 44
f 26 29 45
f 26 45 46
f 26 46 27
f 27 46 47
f 27 47 48
f 27 48 49
f 27 49 50
f 27 50 51
f 27 51 52
f 27 52 53
f 27 53 44
f 28 54 55
f 28 55 45
f 28 45 29
f 30 56 57
f 30 57 31
f 31 57 58
f 31 58 59
f 31 59 32
f 32 59 60
f 32 60 34
f 32 34 33
f 35 61 36
f 36 62 37
f 36 61 63
f 36 63 64
f 36 64 65
f 36 65 66
f 36 66 62
f 37 62 67
f 37 67 38
f 39 68 40
f 40 69 70
f 40 70 71
f 40 71 41
f 40 68 72
f 40 72 73
f 40 73 69
f 41 71 74
f 41 74 75
f 41 75 76
f 41 76 42
f 45 47 46
f 45 55 77
f 45 77 78
f 45 78 47
f 47 78 79
f 47 79 80
f 47 80 81
f 47 81 48
f 48 81 49
f 49 82 50
f 49 81 83
f 49 83 82
f 50 82 84
f 54 85 86
f 54 86 55
f 55 86 77
f 56 87 57
f 57 88 58
f 57 87 88
f 58 88 89
f 58 89 59
f 59 90 60
f 59 89 91
f 59 91 92
f 59 92 93
f 59 93 94
f 59 94 90
f 61 95 96
f 61 96 63
f 62 66 97
f 62 97 98
f 62 98 67
f 63 96 64
f 64 96 65
f 65 96 66
f 66 99 97
f 66 96 100
f 66 100 101
f 66 101 99
f 69 102 70
f 69 73 102
f 70 103 104
f 70 104 74
f 70 74 71
f 70 102 103
f 73 105 102
f 74 104 106
f 74 106 107
f 74 107 108
f 74 108 75
f 75 109 110
f 75 110 111
f 75 111 76
f 75 108 109
f 77 86 112
f 77 112 78
f 78 112 113
f 78 113 114
f 78 114 79
f 79 114 115
f 79 115 116
f 79 116 80
f 80 116 117
f 80 117 118
f 80 118 119
f 80 119 81
f 81 119 89
f 81 89 83
f 82 88 84
f 82 83 89
f 82 89 88
f 84 88 87
f 85 120 113
f 85 113 121
f 85 121 86
f 86 121 112
f 89 119 122
f 89 122 123
f 89 123 91
f 91 123 124
f 91 124 92
f 92 124 125
f 92 125 126
f 92 126 93
f 93 126 94
f 94 126 127
f 95 128 96
f 96 128 129
f 96 129 130
f 96 130 131
f 96 131 132
f 96 132 100
f 97 133 134
f 97 134 98
f 97 99 135
f 97 135 133
f 99 101 136
f 99 136 135
f 100 132 101
f 101 132 137
f 101 137 136
f 102 138 103
f 102 105 139
f 102 139 138
f 103 138 140
f 103 140 141
f 103 141 104
f 104 141 142
f 104 142 143
f 104 143 144
f 104 144 106
f 106 144 107
f 107 144 145
f 107 145 146
f 107 146 147
f 107 147 148
f 107 148 108
f 108 148 109
f 109 148 149
f 112 121 113
f 113 120 150
f 113 150 114
f 114 150 151
f 114 151 152
f 114 152 153
f 114 153 115
f 115 153 116
f 116 154 117
f 116 153 155
f 116 155 156
f 116 156 154
f 117 157 118
f 117 154 123
f 117 123 158
f 117 158 157
f 118 122 119
f 118 157 122
f 122 157 158
f 122 158 123
f 123 154 124
f 124 154 159
f 124 159 160
f 124 160 161
f 124 161 162
f 124 162 125
f 125 162 126
f 126 163 127
f 126 162 164
f 126 164 163
f 128 165 129
f 129 165 130
f 130 165 166
f 130 166 131
f 131 166 132
f 132 166 167
f 132 167 168
f 132 168 137
f 133 169 222
f 133 222 170
f 133 170 134
f 133 135 171
f 133 171 169
f 135 136 171
f 136 172 173
f 136 173 171
f 136 137 168
f 136 168 174
f 136 174 172
f 138 139 140
f 139 175 140
f 140 176 177
f 140 177 141
f 140 175 178
f 140 178 176
f 141 177 142
f 142 177 179
f 142 179 143
f 143 179 180
f 143 180 145
f 143 145 144
f 145 180 181
f 145 181 146
f 146 181 182
f 146 182 183
f 146 183 184
f 146 184 185
f 146 185 147
f 147 185 186
f 147 186 187
f 147 187 188
f 147 188 189
f 147 189 148
f 148 189 149
f 150 190 191
f 150 191 151
f 151 191 192
f 151 192 193
f 151 193 152
f 152 193 194
f 152 194 153
f 153 194 195
f 153 195 196
f 153 196 197
f 153 197 198
f 153 198 199
f 153 199 200
f 153 200 155
f 154 156 160
f 154 160 159
f 155 201 156
f 155 200 201
f 156 201 160
f 160 201 202
f 160 202 203
f 160 203 204
f 160 204 205
f 160 205 206
f 160 206 207
f 160 207 208
f 160 208 161
f 161 208 207
f 161 207 162
f 162 209 210
f 162 210 211
f 162 211 212
f 162 212 213
f 162 213 164
f 162 207 206
f 162 206 209
f 164 213 214
f 165 215 216
f 165 216 217
f 165 217 166
f 166 217 218
f 166 218 167
f 167 218 219
f 167 219 220
f 167 220 168
f 168 220 174
f 169 221 222
f 169 171 221
f 171 223 221
f 171 173 224
f 171 224 223
f 172 224 173
f 172 174 225
f 172 225 226
f 172 226 224
f 174 220 227
f 174 227 225
f 176 178 228
f 176 228 229
f 176 229 230
f 176 230 231
f 176 231 177
f 177 231 232
f 177 232 233
f 177 233 179
f 179 233 234
f 179 234 235
f 179 235 236
f 179 236 180
f 180 236 181
f 181 236 197
f 181 197 196
f 181 196 237
f 181 237 182
f 182 237 183
f 183 237 184
f 184 237 185
f 185 237 186
f 186 238 239
f 186 239 240
f 186 240 187
f 186 237 241
f 186 241 242
f 186 242 243
f 186 243 244
f 186 244 245
f 186 245 191
f 186 191 238
f 190 246 191
f 191 246 238
f 191 245 247
f 191 247 248
f 191 248 192
f 192 248 193
f 193 248 249
f 193 249 194
f 194 249 250
f 194 250 241
f 194 241 195
f 195 241 251
f 195 251 196
f 196 251 237
f 197 236 252
f 197 252 198
f 198 253 199
f 198 252 254
f 198 254 253
f 199 253 255
f 199 255 256
f 199 256 257
f 199 257 200
f 200 257 203
f 200 203 202
f 200 202 201
f 203 257 204
f 204 257 258
f 204 258 259
f 204 259 205
f 205 259 256
f 205 256 254
f 205 254 260
f 205 260 220
f 205 220 219
f 205 219 261
f 205 261 206
f 206 261 209
f 209 261 219
f 209 219 210
f 210 219 218
f 210 218 262
f 210 262 263
f 210 263 264
f 210 264 211
f 211 264 265
f 211 265 266
f 211 266 212
f 212 266 214
f 212 214 213
f 215 267 216
f 216 267 262
f 216 262 218
f 216 218 217
f 220 260 227
f 221 268 269
f 221 269 270
f 221 270 222
f 221 223 268
f 223 232 268
f 223 224 232
f 224 271 272
f 224 272 232
f 224 226 273
f 224 273 278
f 224 278 271
f 225 227 226
f 226 227 273
f 227 260 274
f 227 274 275
f 227 275 276
f 227 276 252
f 227 252 235
f 227 235 273
f 230 269 231
f 231 269 277
f 231 277 232
f 232 277 268
f 232 272 233
f 233 272 271
f 233 271 234
f 234 278 273
f 234 273 235
f 234 271 278
f 235 252 236
f 237 251 241
f 238 279 280
f 238 280 239
f 238 246 279
f 241 250 242
f 242 250 244
f 242 244 243
f 244 250 247
f 244 247 245
f 247 250 249
f 247 249 248
f 252 276 254
f 253 254 255
f 254 276 275
f 254 275 274
f 254 274 260
f 254 256 255
f 256 259 257
f 257 259 258
f 262 281 282
f 262 282 263
f 262 267 281
f 263 283 264
f 263 282 281
f 263 281 283
f 264 283 284
f 264 284 265
f 265 284 266
f 266 284 285
f 268 277 269
f 281 286 283
f 283 286 287
f 283 287 284
f 284 287 285
