v -0.310198 0.739313 0.141211
v -0.310046 0.739447 0.141937
v -0.310198 0.742991 0.141211
v -0.16958 0.608806 0.141211
v -0.310046 0.74284 0.141937
v -0.298019 0.736622 0.162155
v -0.295437 0.738695 0.172991
v -0.309681 0.743526 0.141211
v -0.166695 0.608806 0.145313
v -0.0641625 0.608806 0.141211
v -0.298019 0.746467 0.162155
v -0.295437 0.74376 0.172991
v -0.263366 0.740049 0.217313
v -0.302544 0.75073 0.141211
v -0.165753 0.608806 0.14653
v -0.249091 0.738929 0.234273
v -0.063798 0.609808 0.141211
v 7.2114e-05 0.609742 0.155344
v 7.2114e-05 0.608806 0.155462
v -0.290183 0.754189 0.162155
v -0.292583 0.755961 0.152517
v -0.285688 0.749376 0.177682
v -0.279614 0.7579 0.172088
v -0.263366 0.742222 0.217313
v -0.29562 0.757349 0.141211
v -0.157553 0.608806 0.156345
v -0.23424 0.738929 0.249093
v -0.249091 0.743442 0.234273
v -0.156976 0.608806 0.156993
v -0.0637677 0.609959 0.141211
v 7.2114e-05 0.625403 0.155128
v -0.0626136 0.625403 0.141211
v 7.2114e-05 0.608806 0.221494
v -0.282469 0.76034 0.162155
v -0.286721 0.762363 0.1471
v -0.294709 0.7578 0.142212
v -0.24323 0.753738 0.226677
v -0.275696 0.754975 0.182373
v -0.265401 0.758769 0.189087
v -0.270412 0.76136 0.177368
v -0.269531 0.768464 0.161939
v -0.294921 0.757967 0.141211
v -0.217293 0.740049 0.263364
v -0.23424 0.743442 0.249093
v -0.146529 0.608806 0.165787
v -0.132528 0.608806 0.176543
v -0.238735 0.74859 0.238768
v -0.232934 0.757616 0.232958
v 7.2114e-05 0.639343 0.156031
v -0.0666225 0.640848 0.141211
v 7.2114e-05 0.738244 0.341743
v -0.00773323 0.608806 0.221494
v -0.274147 0.770653 0.146707
v -0.285931 0.764469 0.141211
v -0.238583 0.759572 0.222476
v -0.247208 0.756747 0.216371
v -0.250215 0.758987 0.20848
v -0.255682 0.762647 0.193758
v -0.254983 0.769717 0.17833
v -0.260268 0.771422 0.166964
v -0.217293 0.742222 0.263364
v -0.172951 0.738695 0.295438
v -0.226647 0.753738 0.243244
v -0.177659 0.749376 0.285682
v -0.122718 0.608806 0.183885
v -0.222456 0.759572 0.238611
v -0.223094 0.767962 0.223124
v 7.2114e-05 0.656292 0.158681
v -0.0717552 0.655088 0.141211
v -0.0728182 0.65783 0.141211
v -0.0815347 0.671736 0.141211
v 7.2114e-05 0.74406 0.341743
v -0.00773323 0.738244 0.341743
v -0.00888732 0.608806 0.221357
v -0.263912 0.772525 0.156659
v -0.275393 0.771155 0.141211
v -0.237854 0.766976 0.207047
v -0.22771 0.770737 0.211228
v -0.246024 0.771807 0.183963
v -0.172951 0.74376 0.295438
v -0.114518 0.608806 0.189597
v -0.0991498 0.608806 0.197586
v -0.141943 0.739447 0.310042
v -0.182336 0.754975 0.275691
v -0.216351 0.756747 0.247209
v -0.172071 0.7579 0.279636
v -0.193725 0.762647 0.255689
v -0.207028 0.766976 0.237885
v -0.208455 0.758987 0.250232
v -0.177355 0.76136 0.270411
v -0.211219 0.770737 0.227756
v -0.217414 0.772425 0.217451
v 7.2114e-05 0.671736 0.163019
v -0.0896134 0.682701 0.141211
v -0.0955964 0.690507 0.141211
v -0.0956876 0.690624 0.141211
v -0.103311 0.699884 0.141211
v 7.2114e-05 0.751766 0.334716
v -0.00773323 0.74406 0.341743
v -0.023192 0.739497 0.340762
v -0.0385901 0.608806 0.217451
v -0.023192 0.608806 0.219512
v -0.266433 0.773261 0.146707
v -0.271566 0.772459 0.141211
v -0.249972 0.772826 0.173658
v -0.254983 0.773829 0.161939
v -0.254771 0.776554 0.146707
v -0.23175 0.772124 0.200943
v -0.141943 0.74284 0.310042
v -0.162139 0.746467 0.298009
v -0.162139 0.754189 0.290197
v -0.0856651 0.608806 0.203259
v -0.0706619 0.608806 0.20954
v -0.100395 0.738678 0.326334
v -0.10896 0.740617 0.324607
v -0.189048 0.758769 0.265405
v -0.162139 0.76034 0.282483
v -0.161927 0.768464 0.269527
v -0.178297 0.769717 0.254982
v -0.166938 0.771422 0.260262
v -0.183946 0.771807 0.246011
v -0.200923 0.772124 0.231761
v -0.223094 0.773127 0.207047
v -0.207028 0.773127 0.223124
v -0.208455 0.776336 0.20848
v 7.2114e-05 0.683971 0.168005
v -0.110843 0.707556 0.141211
v -0.157978 0.753136 0.141211
v -0.159588 0.754607 0.141211
v 7.2114e-05 0.75551 0.330829
v -0.00773323 0.751766 0.334716
v -0.0695078 0.755426 0.322958
v -0.023192 0.74274 0.340762
v -0.03367 0.74055 0.340075
v -0.0849362 0.736589 0.328552
v -0.046274 0.608806 0.216253
v -0.268012 0.773512 0.141211
v -0.223883 0.775668 0.193032
v -0.240253 0.774381 0.17833
v -0.239342 0.77759 0.162155
v -0.254771 0.777172 0.141211
v -0.131282 0.752936 0.304722
v -0.10896 0.741704 0.324607
v -0.100395 0.743793 0.326334
v -0.152512 0.755961 0.292592
v -0.0695078 0.608806 0.210011
v -0.054626 0.608806 0.214585
v -0.0540186 0.608806 0.214762
v -0.147106 0.762363 0.286742
v -0.146711 0.770653 0.27416
v -0.156642 0.772525 0.263913
v -0.17365 0.772826 0.249976
v -0.192996 0.775668 0.223909
v -0.162139 0.77759 0.239357
v -0.177568 0.778192 0.223909
v -0.192996 0.77876 0.20848
v -0.208455 0.77876 0.193032
v -0.223883 0.778192 0.177584
v 7.2114e-05 0.687799 0.169575
v -0.165237 0.758903 0.141211
v 7.2114e-05 0.691693 0.171204
v 7.2114e-05 0.759154 0.327002
v -0.00773323 0.759154 0.327002
v -0.023192 0.758234 0.326001
v -0.0695078 0.762363 0.315224
v -0.0849362 0.754156 0.321427
v -0.0849362 0.746434 0.328552
v -0.0695078 0.747704 0.32975
v -0.03367 0.741754 0.340075
v -0.239342 0.779295 0.146707
v -0.239342 0.779362 0.141211
v -0.119498 0.755209 0.307156
v -0.100395 0.751515 0.318836
v -0.142216 0.7578 0.294731
v -0.131282 0.759739 0.296989
v -0.114943 0.761293 0.301641
v -0.100395 0.765739 0.301111
v -0.115824 0.769885 0.288371
v -0.100395 0.771489 0.291689
v -0.135838 0.771656 0.276633
v -0.146711 0.773261 0.266445
v -0.146711 0.776554 0.254786
v -0.161927 0.773829 0.254982
v -0.178297 0.774381 0.24028
v -0.131282 0.778292 0.254786
v -0.146711 0.779295 0.239357
v -0.162139 0.779462 0.223909
v -0.223883 0.779462 0.162155
v -0.17772 0.765522 0.141211
v 7.2114e-05 0.757399 0.21537
v 7.2114e-05 0.748924 0.209128
v 7.2114e-05 0.712603 0.183551
v 7.2114e-05 0.707556 0.180332
v 7.2114e-05 0.702591 0.177172
v 7.2114e-05 0.697092 0.174149
v 7.2114e-05 0.763934 0.320387
v -0.0063969 0.767795 0.315028
v -0.023192 0.765455 0.316539
v -0.0386205 0.764118 0.316539
v -0.054049 0.77072 0.305311
v -0.0695078 0.770085 0.304173
v -0.0849362 0.760992 0.313713
v -0.100395 0.758602 0.311102
v -0.223883 0.778727 0.141211
v -0.023192 0.779562 0.270214
v 7.2114e-05 0.779395 0.270214
v -0.086394 0.769366 0.300541
v -0.0924986 0.772074 0.293318
v -0.130918 0.77398 0.27098
v -0.115824 0.776052 0.270214
v -0.100395 0.777774 0.270214
v -0.0849362 0.77886 0.270214
v -0.115824 0.779094 0.254786
v -0.100395 0.779495 0.254786
v -0.131282 0.779495 0.239357
v -0.187924 0.770804 0.141211
v 7.2114e-05 0.763048 0.223909
v -0.188744 0.771188 0.141211
v -0.195304 0.773863 0.141211
v 7.2114e-05 0.767795 0.315028
v -0.00035308 0.772108 0.308864
v -0.0106488 0.771874 0.308197
v -0.023192 0.771589 0.307372
v -0.0386205 0.771188 0.306371
v -0.0695078 0.77311 0.296439
v -0.0822028 0.772659 0.295026
v -0.208182 0.77657 0.141211
v 7.2114e-05 0.778376 0.262421
v 7.2114e-05 0.777373 0.254786
v -0.0386205 0.779546 0.270214
v -0.00773323 0.778543 0.285662
v 7.2114e-05 0.778543 0.285662
v 7.2114e-05 0.778977 0.27787
v -0.086394 0.774615 0.287174
v -0.0695078 0.776537 0.285662
v -0.054049 0.777222 0.285662
v -0.0386205 0.777807 0.285662
v -0.023192 0.778259 0.285662
v -0.0695078 0.779245 0.270214
v -0.054049 0.779412 0.270214
v 7.2114e-05 0.770018 0.235097
v 7.2114e-05 0.774214 0.242792
v 7.2114e-05 0.772108 0.238925
v 7.2114e-05 0.772108 0.308864
v -0.0063969 0.773946 0.302269
v -0.023192 0.77408 0.299658
v -0.0386205 0.773762 0.298637
v -0.054049 0.773428 0.297597
v 7.2114e-05 0.775785 0.24874
v 7.2114e-05 0.776052 0.294672
v 7.2114e-05 0.773946 0.302269
f 1 2 5
f 1 5 3
f 1 3 8
f 1 8 14
f 1 14 25
f 1 25 42
f 1 42 54
f 1 54 76
f 1 76 104
f 1 104 137
f 1 137 141
f 1 141 171
f 1 171 204
f 1 204 227
f 1 227 219
f 1 219 218
f 1 218 216
f 1 216 189
f 1 189 160
f 1 160 129
f 1 129 128
f 1 128 127
f 1 127 97
f 1 97 96
f 1 96 95
f 1 95 94
f 1 94 71
f 1 71 70
f 1 70 69
f 1 69 50
f 1 50 32
f 1 32 30
f 1 30 17
f 1 17 10
f 1 10 4
f 1 4 2
f 2 4 6
f 2 6 7
f 2 7 12
f 2 12 5
f 3 5 8
f 4 9 7
f 4 7 6
f 4 10 19
f 4 19 33
f 4 33 52
f 4 52 74
f 4 74 102
f 4 102 101
f 4 101 136
f 4 136 148
f 4 148 147
f 4 147 146
f 4 146 113
f 4 113 112
f 4 112 82
f 4 82 81
f 4 81 65
f 4 65 46
f 4 46 45
f 4 45 29
f 4 29 26
f 4 26 15
f 4 15 9
f 5 11 8
f 5 12 11
f 7 13 24
f 7 24 12
f 7 9 13
f 8 11 14
f 9 15 16
f 9 16 13
f 10 17 18
f 10 18 19
f 11 12 20
f 11 20 21
f 11 21 14
f 12 22 23
f 12 23 20
f 12 24 22
f 13 16 28
f 13 28 24
f 14 21 25
f 15 26 16
f 16 27 44
f 16 44 28
f 16 26 29
f 16 29 27
f 17 30 18
f 18 31 49
f 18 49 68
f 18 68 93
f 18 93 126
f 18 126 159
f 18 159 161
f 18 161 195
f 18 195 194
f 18 194 193
f 18 193 192
f 18 192 191
f 18 191 190
f 18 190 217
f 18 217 241
f 18 241 243
f 18 243 242
f 18 242 249
f 18 249 229
f 18 229 228
f 18 228 206
f 18 206 233
f 18 233 232
f 18 232 250
f 18 250 251
f 18 251 244
f 18 244 220
f 18 220 196
f 18 196 162
f 18 162 130
f 18 130 98
f 18 98 72
f 18 72 51
f 18 51 33
f 18 33 19
f 18 30 32
f 18 32 31
f 20 23 34
f 20 34 21
f 21 34 35
f 21 35 36
f 21 36 25
f 22 24 28
f 22 28 37
f 22 37 38
f 22 38 23
f 23 38 39
f 23 39 40
f 23 40 41
f 23 41 34
f 25 36 42
f 27 43 61
f 27 61 44
f 27 29 45
f 27 45 46
f 27 46 43
f 28 44 47
f 28 47 48
f 28 48 37
f 31 32 50
f 31 50 49
f 33 51 73
f 33 73 52
f 34 41 53
f 34 53 35
f 35 54 42
f 35 42 36
f 35 53 54
f 37 48 55
f 37 55 56
f 37 56 38
f 38 56 39
f 39 56 57
f 39 57 40
f 40 57 55
f 40 55 58
f 40 58 59
f 40 59 41
f 41 59 60
f 41 60 53
f 43 46 62
f 43 62 80
f 43 80 61
f 44 63 48
f 44 48 47
f 44 61 64
f 44 64 63
f 46 65 62
f 48 63 66
f 48 66 67
f 48 67 55
f 49 50 69
f 49 69 70
f 49 70 71
f 49 71 68
f 51 72 99
f 51 99 73
f 52 73 74
f 53 60 75
f 53 75 76
f 53 76 54
f 55 67 77
f 55 77 58
f 55 57 56
f 58 77 59
f 59 77 78
f 59 78 60
f 60 79 75
f 60 78 79
f 61 80 64
f 62 65 81
f 62 81 82
f 62 82 83
f 62 83 109
f 62 109 80
f 63 84 85
f 63 85 66
f 63 64 84
f 64 80 86
f 64 86 84
f 66 87 88
f 66 88 67
f 66 85 89
f 66 89 90
f 66 90 87
f 67 88 91
f 67 91 92
f 67 92 78
f 67 78 77
f 68 71 94
f 68 94 95
f 68 95 96
f 68 96 97
f 68 97 93
f 72 98 131
f 72 131 99
f 73 99 133
f 73 133 100
f 73 100 101
f 73 101 102
f 73 102 74
f 75 103 104
f 75 104 76
f 75 79 105
f 75 105 106
f 75 106 107
f 75 107 103
f 78 92 108
f 78 108 79
f 79 108 105
f 80 109 110
f 80 110 111
f 80 111 86
f 82 112 83
f 83 112 113
f 83 113 114
f 83 114 115
f 83 115 143
f 83 143 109
f 84 86 85
f 85 86 89
f 86 90 116
f 86 116 89
f 86 111 117
f 86 117 118
f 86 118 90
f 87 119 88
f 87 90 119
f 88 119 91
f 89 116 90
f 90 118 119
f 91 119 120
f 91 120 121
f 91 121 122
f 91 122 92
f 92 123 108
f 92 122 124
f 92 124 125
f 92 125 123
f 93 97 127
f 93 127 128
f 93 128 129
f 93 129 126
f 98 130 131
f 99 131 132
f 99 132 133
f 100 133 169
f 100 169 134
f 100 134 135
f 100 135 101
f 101 135 136
f 103 137 104
f 103 107 137
f 105 108 138
f 105 138 139
f 105 139 106
f 106 139 138
f 106 138 140
f 106 140 107
f 107 140 141
f 107 141 137
f 108 123 138
f 109 142 110
f 109 143 144
f 109 144 142
f 110 145 111
f 110 142 145
f 111 145 117
f 113 146 114
f 114 146 147
f 114 147 148
f 114 148 135
f 114 135 134
f 114 134 115
f 115 134 169
f 115 169 143
f 117 145 149
f 117 149 150
f 117 150 118
f 118 150 120
f 118 120 119
f 120 150 151
f 120 151 152
f 120 152 121
f 121 152 122
f 122 152 124
f 123 125 138
f 124 153 125
f 124 152 153
f 125 153 154
f 125 154 155
f 125 155 156
f 125 156 157
f 125 157 158
f 125 158 140
f 125 140 138
f 126 129 159
f 129 160 161
f 129 161 159
f 130 162 163
f 130 163 131
f 131 163 164
f 131 164 132
f 132 165 166
f 132 166 167
f 132 167 168
f 132 168 133
f 132 164 165
f 133 168 169
f 135 148 136
f 140 170 141
f 140 158 170
f 141 170 171
f 142 172 145
f 142 144 173
f 142 173 172
f 143 169 144
f 144 167 166
f 144 166 173
f 144 169 167
f 145 172 174
f 145 174 149
f 149 174 175
f 149 175 176
f 149 176 177
f 149 177 178
f 149 178 150
f 150 178 179
f 150 179 180
f 150 180 151
f 151 180 181
f 151 181 182
f 151 182 183
f 151 183 152
f 152 183 184
f 152 184 153
f 153 184 183
f 153 183 154
f 154 183 182
f 154 182 185
f 154 185 186
f 154 186 155
f 155 186 156
f 156 186 187
f 156 187 157
f 157 188 170
f 157 170 158
f 157 187 188
f 160 189 190
f 160 190 191
f 160 191 192
f 160 192 193
f 160 193 194
f 160 194 195
f 160 195 161
f 162 196 163
f 163 196 197
f 163 197 198
f 163 198 199
f 163 199 165
f 163 165 164
f 165 200 201
f 165 201 202
f 165 202 166
f 165 199 200
f 166 202 203
f 166 203 173
f 167 169 168
f 170 188 171
f 171 188 205
f 171 205 206
f 171 206 204
f 172 173 203
f 172 203 174
f 174 203 175
f 175 203 176
f 176 203 177
f 177 203 202
f 177 202 207
f 177 207 179
f 177 179 178
f 179 207 208
f 179 208 180
f 180 209 181
f 180 208 209
f 181 209 182
f 182 209 210
f 182 210 185
f 185 210 211
f 185 211 212
f 185 212 213
f 185 213 186
f 186 213 214
f 186 214 215
f 186 215 187
f 187 215 188
f 188 215 205
f 189 216 190
f 190 216 218
f 190 218 219
f 190 219 217
f 196 220 197
f 197 220 244
f 197 244 221
f 197 221 222
f 197 222 223
f 197 223 224
f 197 224 200
f 197 200 198
f 198 200 199
f 200 225 201
f 200 224 225
f 201 225 226
f 201 226 208
f 201 208 207
f 201 207 202
f 204 206 228
f 204 228 229
f 204 229 227
f 205 230 231
f 205 231 232
f 205 232 233
f 205 233 206
f 205 215 230
f 208 226 234
f 208 234 210
f 208 210 209
f 210 234 211
f 211 234 235
f 211 235 212
f 212 214 213
f 212 235 236
f 212 236 237
f 212 237 238
f 212 238 239
f 212 239 214
f 214 239 240
f 214 240 230
f 214 230 215
f 217 219 241
f 219 227 242
f 219 242 243
f 219 243 241
f 221 245 246
f 221 246 247
f 221 247 248
f 221 248 222
f 221 244 251
f 221 251 245
f 222 248 223
f 223 248 225
f 223 225 224
f 225 248 235
f 225 235 226
f 226 235 234
f 227 229 249
f 227 249 242
f 230 240 231
f 231 245 250
f 231 250 232
f 231 240 239
f 231 239 238
f 231 238 245
f 235 248 236
f 236 248 247
f 236 247 246
f 236 246 245
f 236 245 237
f 237 245 238
f 245 251 250
