v -0.455605 -0.0222389 -8.72374e-05
v -0.390257 -0.0222389 -8.72374e-05
v -0.455586 -0.0222389 -0.00773092
v -0.455549 -0.0231766 -0.00773092
v -0.45491 -0.0386296 -0.00773092
v -0.45491 -0.0386296 -8.72374e-05
v -0.360674 -0.0222389 -0.14283
v -0.299762 -0.405415 -8.72374e-05
v -0.263601 -0.405415 -0.14283
v -0.453726 -0.0222389 -0.0222497
v -0.454252 -0.0540827 -0.00773092
v -0.454252 -0.0540827 -8.72374e-05
v -0.43089 -0.0222389 -0.14283
v -0.371331 -0.405415 -8.72374e-05
v -0.340489 -0.405415 -0.14283
v -0.451696 -0.0222389 -0.0376908
v -0.448181 -0.0694983 -0.0491354
v -0.451583 -0.0694983 -0.023172
v -0.453594 -0.0694983 -0.00773092
v -0.453594 -0.0694983 -8.72374e-05
v -0.432432 -0.0222389 -0.139113
v -0.430834 -0.0235517 -0.14283
v -0.371331 -0.405415 -0.00773092
v -0.386122 -0.370795 -8.72374e-05
v -0.353232 -0.405415 -0.112046
v -0.357555 -0.377659 -0.130505
v -0.345451 -0.3939 -0.14283
v -0.443445 -0.0222389 -0.100363
v -0.44275 -0.0386296 -0.100363
v -0.447166 -0.0694983 -0.0568489
v -0.447937 -0.0785 -0.0473747
v -0.453011 -0.0772998 -8.72374e-05
v -0.452429 -0.0849513 -0.00773092
v -0.435044 -0.0235142 -0.132657
v -0.435138 -0.0222389 -0.132545
v -0.429443 -0.0540827 -0.14283
v -0.386122 -0.370795 -0.00071606
v -0.371763 -0.404365 -0.00773092
v -0.370335 -0.405415 -0.0155423
v -0.394523 -0.347428 -8.72374e-05
v -0.355017 -0.405415 -0.107574
v -0.355638 -0.402527 -0.109209
v -0.372571 -0.359731 -0.112856
v -0.370448 -0.35478 -0.123155
v -0.359002 -0.362431 -0.14283
v -0.353852 -0.374396 -0.14283
v -0.440814 -0.0222389 -0.114882
v -0.440607 -0.0231766 -0.115805
v -0.442092 -0.0540827 -0.100363
v -0.441434 -0.0694983 -0.100363
v -0.440269 -0.0849513 -0.100363
v -0.444347 -0.0849513 -0.0694953
v -0.446584 -0.0841637 -0.0531319
v -0.448538 -0.0841637 -0.0382637
v -0.450437 -0.0849513 -0.023172
v -0.452429 -0.0849513 -8.72374e-05
v -0.448068 -0.0947408 -0.0328978
v -0.450625 -0.100404 -0.00773092
v -0.448087 -0.125722 -0.00219728
v -0.435251 -0.0386296 -0.130491
v -0.440645 -0.0222389 -0.115805
v -0.42903 -0.063122 -0.14283
v -0.394523 -0.347428 -0.00773092
v -0.388283 -0.363556 -0.00661302
v -0.382927 -0.376909 -0.00661302
v -0.385464 -0.369183 -0.0110148
v -0.369602 -0.405415 -0.0212017
v -0.384675 -0.367232 -0.023172
v -0.40206 -0.326199 -8.72374e-05
v -0.356239 -0.405415 -0.104164
v -0.370354 -0.370008 -0.107267
v -0.384994 -0.336589 -0.103508
v -0.375447 -0.348741 -0.117118
v -0.37259 -0.344465 -0.128339
v -0.365204 -0.347803 -0.14283
v -0.434894 -0.0540827 -0.129639
v -0.434536 -0.0694983 -0.128786
v -0.439254 -0.0540827 -0.115805
v -0.438558 -0.0694983 -0.115805
v -0.447392 -0.0888146 -0.0431825
v -0.437374 -0.0849513 -0.115805
v -0.438465 -0.100404 -0.100363
v -0.448087 -0.125722 -8.72374e-05
v -0.438634 -0.146726 -0.0540542
v -0.446715 -0.115595 -0.0229065
v -0.448087 -0.110306 -0.0175964
v -0.447429 -0.120621 -0.012496
v -0.446734 -0.13101 -0.00749337
v -0.444685 -0.146726 -0.00773092
v -0.442674 -0.162142 -0.00773092
v -0.428729 -0.0694983 -0.14283
v -0.431341 -0.0694983 -0.136514
v -0.386723 -0.341502 -0.0849224
v -0.387738 -0.344128 -0.0694953
v -0.390501 -0.347428 -0.0386131
v -0.386178 -0.35553 -0.0474585
v -0.387776 -0.359506 -0.023172
v -0.40206 -0.326199 -0.0046427
v -0.399842 -0.3316 -0.00896062
v -0.369282 -0.405415 -0.0236611
v -0.380333 -0.362881 -0.0694953
v -0.369 -0.405415 -0.0258131
v -0.417095 -0.27849 -8.72374e-05
v -0.357949 -0.405415 -0.0993154
v -0.371782 -0.373571 -0.0969678
v -0.374451 -0.364082 -0.101411
v -0.382382 -0.346078 -0.0991617
v -0.38616 -0.340002 -0.0932088
v -0.402041 -0.279727 -0.109516
v -0.386705 -0.326274 -0.109698
v -0.382645 -0.331638 -0.115232
v -0.370448 -0.339289 -0.138624
v -0.366971 -0.343528 -0.14283
v -0.433916 -0.0849513 -0.127291
v -0.432958 -0.100404 -0.124943
v -0.432394 -0.108393 -0.123616
v -0.435495 -0.100404 -0.115805
v -0.432413 -0.139337 -0.108259
v -0.431755 -0.149652 -0.103424
v -0.442674 -0.162142 -8.72374e-05
v -0.432432 -0.15494 -0.093125
v -0.442693 -0.146726 -0.023172
v -0.440682 -0.162142 -0.023172
v -0.432432 -0.170206 -0.0777398
v -0.440006 -0.177595 -0.00773092
v -0.427958 -0.0791002 -0.14283
v -0.430721 -0.0849513 -0.135019
v -0.397887 -0.331975 -0.023172
v -0.383716 -0.349229 -0.0849224
v -0.384731 -0.351854 -0.0694953
v -0.388302 -0.348178 -0.0531878
v -0.378304 -0.362881 -0.0849224
v -0.417095 -0.27849 -0.00135886
v -0.401421 -0.324061 -0.0149274
v -0.36323 -0.405415 -0.069649
v -0.423109 -0.254785 -8.72374e-05
v -0.358663 -0.405415 -0.0962412
v -0.361201 -0.405415 -0.0849224
v -0.391798 -0.331975 -0.0694953
v -0.389768 -0.331975 -0.0849224
v -0.401176 -0.292405 -0.0903582
v -0.406608 -0.2702 -0.100363
v -0.402849 -0.28239 -0.100363
v -0.410912 -0.254785 -0.100363
v -0.406946 -0.254785 -0.115805
v -0.403187 -0.268963 -0.11512
v -0.401627 -0.262962 -0.123895
v -0.397963 -0.285166 -0.11512
v -0.397173 -0.268963 -0.129932
v -0.386272 -0.309508 -0.124077
v -0.384581 -0.319785 -0.119997
v -0.369658 -0.336401 -0.14283
v -0.427489 -0.0849513 -0.14283
v -0.426192 -0.0952659 -0.14283
v -0.425534 -0.100404 -0.14283
v -0.424012 -0.111582 -0.14283
v -0.421982 -0.12636 -0.14283
v -0.419181 -0.146726 -0.14283
v -0.423974 -0.146726 -0.131246
v -0.421813 -0.162142 -0.131246
v -0.427263 -0.162142 -0.115805
v -0.431699 -0.118671 -0.121115
v -0.430853 -0.160904 -0.0991058
v -0.440006 -0.177595 -8.72374e-05
v -0.431755 -0.165217 -0.0880246
v -0.432977 -0.172719 -0.0694953
v -0.438013 -0.177595 -0.023172
v -0.427846 -0.177595 -0.100363
v -0.424538 -0.193048 -0.100363
v -0.433352 -0.189897 -0.0386131
v -0.436698 -0.193048 -0.00773092
v -0.432469 -0.216677 -0.000841822
v -0.361671 -0.405415 -0.0814708
v -0.41873 -0.270801 -0.00699031
v -0.414558 -0.284453 -0.00699031
v -0.423109 -0.254785 -0.00773092
v -0.412096 -0.285654 -0.023172
v -0.403244 -0.314572 -0.023172
v -0.416437 -0.276352 -0.0116436
v -0.418054 -0.266187 -0.023172
v -0.432469 -0.216677 -8.72374e-05
v -0.394504 -0.316522 -0.0849224
v -0.414972 -0.269488 -0.0389624
v -0.408694 -0.2702 -0.0849224
v -0.416663 -0.261461 -0.0443284
v -0.412979 -0.254785 -0.0849224
v -0.417264 -0.248446 -0.0644228
v -0.416588 -0.245521 -0.0746935
v -0.415911 -0.242407 -0.0849224
v -0.414953 -0.238057 -0.0992875
v -0.416344 -0.228942 -0.103717
v -0.417452 -0.218628 -0.109726
v -0.410686 -0.239332 -0.115805
v -0.402755 -0.254785 -0.126592
v -0.391441 -0.270163 -0.14283
v -0.396027 -0.254785 -0.14283
v -0.372064 -0.329087 -0.14283
v -0.417039 -0.162142 -0.14283
v -0.417133 -0.170806 -0.139476
v -0.419144 -0.176619 -0.131371
v -0.424481 -0.177595 -0.115805
v -0.43292 -0.203362 -0.0197205
v -0.421211 -0.208501 -0.100363
v -0.431229 -0.208501 -0.0241921
v -0.420647 -0.239332 -0.0540542
v -0.424707 -0.239332 -0.023172
v -0.431811 -0.213677 -0.0111405
v -0.433503 -0.208501 -0.00668289
v -0.426699 -0.239332 -0.00773092
v -0.421117 -0.254785 -0.023172
v -0.41734 -0.263862 -0.0340436
v -0.416024 -0.258911 -0.0540542
v -0.415197 -0.254072 -0.0695372
v -0.41796 -0.251184 -0.0540542
v -0.418035 -0.223841 -0.0992875
v -0.416889 -0.200587 -0.12342
v -0.40439 -0.239332 -0.13193
v -0.400876 -0.24447 -0.137534
v -0.397154 -0.250434 -0.14283
v -0.41499 -0.174031 -0.14283
v -0.411664 -0.188472 -0.14283
v -0.418073 -0.19031 -0.126313
v -0.406928 -0.208951 -0.14283
v -0.402079 -0.234193 -0.140412
v -0.399429 -0.241282 -0.14283
f 1 2 7
f 1 7 13
f 1 13 21
f 1 21 35
f 1 35 61
f 1 61 47
f 1 47 28
f 1 28 16
f 1 16 10
f 1 10 3
f 1 3 4
f 1 4 5
f 1 5 6
f 1 6 12
f 1 12 20
f 1 20 32
f 1 32 56
f 1 56 83
f 1 83 120
f 1 120 164
f 1 164 181
f 1 181 136
f 1 136 103
f 1 103 69
f 1 69 40
f 1 40 24
f 1 24 14
f 1 14 8
f 1 8 2
f 2 8 9
f 2 9 7
f 3 10 4
f 4 10 5
f 5 10 11
f 5 11 12
f 5 12 6
f 7 9 15
f 7 15 27
f 7 27 46
f 7 46 45
f 7 45 75
f 7 75 113
f 7 113 152
f 7 152 197
f 7 197 195
f 7 195 196
f 7 196 219
f 7 219 225
f 7 225 223
f 7 223 221
f 7 221 220
f 7 220 198
f 7 198 158
f 7 158 157
f 7 157 156
f 7 156 155
f 7 155 154
f 7 154 153
f 7 153 126
f 7 126 91
f 7 91 62
f 7 62 36
f 7 36 22
f 7 22 13
f 8 14 23
f 8 23 39
f 8 39 67
f 8 67 100
f 8 100 102
f 8 102 135
f 8 135 173
f 8 173 138
f 8 138 137
f 8 137 104
f 8 104 70
f 8 70 41
f 8 41 25
f 8 25 15
f 8 15 9
f 10 16 17
f 10 17 18
f 10 18 19
f 10 19 11
f 11 19 20
f 11 20 12
f 13 22 21
f 14 24 37
f 14 37 23
f 15 25 26
f 15 26 27
f 16 28 29
f 16 29 30
f 16 30 17
f 17 30 31
f 17 31 18
f 18 31 19
f 19 32 20
f 19 31 33
f 19 33 32
f 21 34 35
f 21 22 36
f 21 36 34
f 23 37 38
f 23 38 39
f 24 40 63
f 24 63 37
f 25 41 42
f 25 42 43
f 25 43 44
f 25 44 26
f 26 44 45
f 26 45 46
f 26 46 27
f 28 47 48
f 28 48 29
f 29 48 49
f 29 49 30
f 30 49 50
f 30 50 31
f 31 50 51
f 31 51 52
f 31 52 53
f 31 53 54
f 31 54 55
f 31 55 33
f 32 33 56
f 33 55 57
f 33 57 58
f 33 58 59
f 33 59 83
f 33 83 56
f 34 60 35
f 34 36 60
f 35 60 61
f 36 62 60
f 37 63 64
f 37 64 65
f 37 65 38
f 38 65 66
f 38 66 39
f 39 66 68
f 39 68 67
f 40 69 98
f 40 98 63
f 41 70 71
f 41 71 42
f 42 71 43
f 43 71 72
f 43 72 73
f 43 73 44
f 44 73 74
f 44 74 75
f 44 75 45
f 47 61 48
f 48 61 60
f 48 60 76
f 48 76 77
f 48 77 78
f 48 78 50
f 48 50 49
f 50 78 79
f 50 79 51
f 51 57 80
f 51 80 52
f 51 79 81
f 51 81 82
f 51 82 57
f 52 80 53
f 53 80 54
f 54 80 55
f 55 80 57
f 57 82 84
f 57 84 85
f 57 85 86
f 57 86 58
f 58 86 87
f 58 87 59
f 59 87 88
f 59 88 89
f 59 89 90
f 59 90 120
f 59 120 83
f 60 62 76
f 62 91 92
f 62 92 77
f 62 77 76
f 63 93 94
f 63 94 95
f 63 95 96
f 63 96 97
f 63 97 64
f 63 98 99
f 63 99 93
f 64 66 65
f 64 97 66
f 66 97 68
f 67 68 100
f 68 97 101
f 68 101 102
f 68 102 100
f 69 103 133
f 69 133 98
f 70 104 71
f 71 105 106
f 71 106 72
f 71 104 105
f 72 106 107
f 72 107 108
f 72 108 109
f 72 109 110
f 72 110 73
f 73 110 111
f 73 111 112
f 73 112 74
f 74 112 113
f 74 113 75
f 77 79 78
f 77 92 127
f 77 127 114
f 77 114 79
f 79 114 81
f 81 115 116
f 81 116 117
f 81 117 118
f 81 118 82
f 81 114 115
f 82 118 119
f 82 119 84
f 84 119 121
f 84 121 122
f 84 122 85
f 85 122 86
f 86 122 87
f 87 122 89
f 87 89 88
f 89 122 123
f 89 123 90
f 90 123 124
f 90 124 125
f 90 125 164
f 90 164 120
f 91 126 127
f 91 127 92
f 93 99 128
f 93 128 108
f 93 108 129
f 93 129 130
f 93 130 94
f 94 130 131
f 94 131 95
f 95 131 96
f 96 131 130
f 96 130 132
f 96 132 101
f 96 101 97
f 98 133 134
f 98 134 99
f 99 134 128
f 101 132 102
f 102 132 135
f 103 136 176
f 103 176 133
f 104 137 105
f 105 108 107
f 105 107 106
f 105 137 138
f 105 138 108
f 108 138 132
f 108 132 129
f 108 128 139
f 108 139 140
f 108 140 141
f 108 141 142
f 108 142 143
f 108 143 109
f 109 143 142
f 109 142 144
f 109 144 145
f 109 145 146
f 109 146 147
f 109 147 148
f 109 148 110
f 110 148 149
f 110 149 150
f 110 150 151
f 110 151 112
f 110 112 111
f 112 152 113
f 112 151 152
f 114 127 115
f 115 127 153
f 115 153 154
f 115 154 155
f 115 155 156
f 115 156 157
f 115 157 158
f 115 158 159
f 115 159 116
f 116 159 160
f 116 160 161
f 116 161 162
f 116 162 118
f 116 118 117
f 118 162 161
f 118 161 163
f 118 163 119
f 119 163 121
f 121 163 165
f 121 165 123
f 121 123 122
f 123 165 124
f 124 166 167
f 124 167 125
f 124 165 163
f 124 163 168
f 124 168 169
f 124 169 170
f 124 170 166
f 125 167 171
f 125 171 172
f 125 172 181
f 125 181 164
f 126 153 127
f 128 134 139
f 129 132 130
f 132 138 173
f 132 173 135
f 133 174 175
f 133 175 134
f 133 176 174
f 134 177 178
f 134 178 140
f 134 140 139
f 134 175 179
f 134 179 180
f 134 180 177
f 136 181 172
f 136 172 176
f 140 178 182
f 140 182 141
f 141 182 178
f 141 178 183
f 141 183 184
f 141 184 142
f 142 184 185
f 142 185 144
f 144 185 186
f 144 186 187
f 144 187 188
f 144 188 189
f 144 189 190
f 144 190 191
f 144 191 192
f 144 192 145
f 145 192 193
f 145 193 194
f 145 194 147
f 145 147 146
f 147 195 149
f 147 149 148
f 147 194 196
f 147 196 195
f 149 195 150
f 150 197 152
f 150 152 151
f 150 195 197
f 158 198 159
f 159 198 160
f 160 198 199
f 160 199 200
f 160 200 201
f 160 201 161
f 161 201 168
f 161 168 163
f 166 170 167
f 167 170 202
f 167 202 171
f 168 201 192
f 168 192 191
f 168 191 169
f 169 191 203
f 169 203 170
f 170 204 202
f 170 203 205
f 170 205 206
f 170 206 204
f 171 202 207
f 171 207 208
f 171 208 172
f 172 208 209
f 172 209 176
f 174 180 179
f 174 179 175
f 174 176 180
f 176 209 206
f 176 206 210
f 176 210 185
f 176 185 211
f 176 211 180
f 177 180 211
f 177 211 178
f 178 211 183
f 183 211 184
f 184 211 185
f 185 212 186
f 185 210 212
f 186 213 187
f 186 212 213
f 187 213 214
f 187 214 210
f 187 210 206
f 187 206 188
f 188 206 205
f 188 205 215
f 188 215 189
f 189 215 191
f 189 191 190
f 191 215 203
f 192 201 216
f 192 216 193
f 193 217 194
f 193 216 217
f 194 217 218
f 194 218 219
f 194 219 196
f 198 220 199
f 199 220 221
f 199 221 200
f 200 221 222
f 200 222 201
f 201 222 216
f 202 204 206
f 202 206 207
f 203 215 205
f 206 209 207
f 207 209 208
f 210 214 212
f 212 214 213
f 216 222 223
f 216 223 224
f 216 224 217
f 217 225 218
f 217 224 225
f 218 225 219
f 221 223 222
f 223 225 224
