v -0.134074 0.441294 0.340518
v -0.134074 0.468611 0.326249
v -0.158954 0.441294 0.330916
v -0.134074 0.441294 0.256704
v -0.134074 0.474777 0.323015
v -0.179555 0.441294 0.321148
v -0.134074 0.47558 0.322582
v -0.167629 0.477056 0.307879
v -0.134074 0.490665 0.175723
v -0.290155 0.441294 -7.3253e-05
v -0.224509 0.488698 -7.3253e-05
v -0.216795 0.494601 -7.3253e-05
v -0.208487 0.501373 -7.3253e-05
v -0.199857 0.508637 -7.3253e-05
v -0.196401 0.513014 -7.3253e-05
v -0.193013 0.51731 -7.3253e-05
v -0.189557 0.521803 -7.3253e-05
v -0.186192 0.526181 -7.3253e-05
v -0.173283 0.466759 0.310613
v -0.190335 0.441294 0.31548
v -0.134074 0.485746 0.31558
v -0.157352 0.480401 0.310013
v -0.162365 0.485894 0.303678
v -0.170285 0.494437 0.293643
v -0.176304 0.48555 0.29661
v -0.186513 0.479827 0.294277
v -0.17809 0.47153 0.305079
v -0.134074 0.491649 0.174156
v -0.18063 0.533904 -7.3253e-05
v -0.367887 0.441294 -7.3253e-05
v -0.192212 0.469579 0.296444
v -0.196813 0.473793 0.290343
v -0.251495 0.441294 0.268972
v -0.134074 0.489632 0.312647
v -0.137645 0.493486 0.308279
v -0.146709 0.483336 0.312213
v -0.146709 0.491059 0.306345
v -0.176304 0.497765 0.285009
v -0.204321 0.49647 0.265172
v -0.231605 0.494125 0.247035
v -0.214598 0.492895 0.261271
v -0.180585 0.490124 0.289709
v -0.162159 0.496191 0.295377
v -0.146709 0.506931 0.290143
v -0.162708 0.504603 0.285275
v -0.134074 0.608789 0.175323
v -0.134349 0.608789 0.175123
v -0.20352 0.481237 0.280041
v -0.230826 0.477745 0.261871
v -0.21382 0.475843 0.276107
v -0.134074 0.501438 0.158787
v -0.172322 0.548809 -7.3253e-05
v -0.134074 0.506734 0.151086
v -0.356236 0.465578 -7.3253e-05
v -0.367887 0.441294 0.00772807
v -0.247627 0.479368 0.247602
v -0.260331 0.441294 0.260338
v -0.134074 0.494273 0.308979
v -0.177586 0.506177 0.27334
v -0.221327 0.497437 0.250969
v -0.239364 0.483041 0.250836
v -0.226065 0.488353 0.256437
v -0.225539 0.503012 0.240568
v -0.229751 0.508604 0.229732
v -0.236778 0.498306 0.236734
v -0.247055 0.494125 0.231599
v -0.240898 0.491436 0.240868
v -0.220526 0.482598 0.265805
v -0.146709 0.499208 0.298611
v -0.134074 0.501799 0.300945
v -0.134074 0.505324 0.297077
v -0.136477 0.508768 0.29231
v -0.134074 0.509145 0.29281
v -0.134074 0.608789 0.0779733
v -0.146526 0.608789 0.165788
v -0.166576 0.562123 -7.3253e-05
v -0.134074 0.515523 0.140151
v -0.134074 0.50703 0.150686
v -0.352437 0.473301 -7.3253e-05
v -0.356236 0.465578 0.00772807
v -0.364545 0.441294 0.0386333
v -0.250877 0.483041 0.239334
v -0.265824 0.482598 0.220498
v -0.280061 0.481237 0.203495
v -0.294298 0.479827 0.186492
v -0.261864 0.477745 0.230799
v -0.258499 0.471956 0.239768
v -0.267037 0.441294 0.253637
v -0.212744 0.507718 0.244402
v -0.2406 0.503012 0.225498
v -0.156986 0.608789 0.156987
v -0.157558 0.608789 0.156353
v -0.165775 0.608789 0.146552
v -0.250992 0.497437 0.221298
v -0.265183 0.49647 0.204295
v -0.27942 0.49547 0.187259
v -0.293657 0.494437 0.170256
v -0.261269 0.492895 0.214563
v -0.134074 0.600689 0.0801737
v -0.155475 0.608789 -7.3253e-05
v -0.163784 0.569846 -7.3253e-05
v -0.134074 0.535249 0.118747
v -0.339962 0.49383 -7.3253e-05
v -0.352437 0.473301 0.00772807
v -0.362828 0.441294 0.0533692
v -0.28972 0.490124 0.180557
v -0.296633 0.48555 0.176257
v -0.307894 0.477056 0.167655
v -0.305079 0.47153 0.178057
v -0.31428 0.441294 0.192159
v -0.296473 0.469579 0.192193
v -0.276124 0.475843 0.213796
v -0.166737 0.608789 0.145318
v -0.244423 0.507718 0.21273
v -0.273332 0.506177 0.177557
v -0.285005 0.497765 0.176257
v -0.295397 0.496191 0.162154
v -0.30826 0.493486 0.13765
v -0.306361 0.491059 0.146718
v -0.303706 0.485894 0.162354
v -0.184682 0.608789 0.121614
v -0.189603 0.608789 0.114513
v -0.190175 0.608789 0.113513
v -0.197591 0.608789 0.0991436
v -0.134074 0.600115 0.0803404
v -0.157329 0.594507 -7.3253e-05
v -0.22151 0.608789 -7.3253e-05
v -0.134074 0.594507 0.0820074
v -0.134074 0.580226 0.0871416
v -0.160465 0.579062 -7.3253e-05
v -0.134074 0.53843 0.115813
v -0.339733 0.494191 -7.3253e-05
v -0.339733 0.494191 0.000293472
v -0.342663 0.483123 0.0386333
v -0.343693 0.484549 0.023164
v -0.343716 0.487501 0.00636117
v -0.339985 0.479155 0.0790735
v -0.340649 0.480139 0.0695052
v -0.360379 0.441294 0.0688718
v -0.342823 0.47194 0.0845078
v -0.321147 0.441294 0.179524
v -0.310618 0.466759 0.173256
v -0.310023 0.480401 0.157353
v -0.32458 0.479171 0.124348
v -0.322452 0.475383 0.134616
v -0.330097 0.441294 0.160887
v -0.176533 0.608789 0.132516
v -0.290155 0.506931 0.146718
v -0.298624 0.499208 0.146718
v -0.312724 0.498028 0.115846
v -0.310343 0.495732 0.127348
v -0.324924 0.494847 0.0943094
v -0.322818 0.492371 0.104611
v -0.31222 0.483336 0.146718
v -0.203245 0.608789 0.0856746
v -0.134074 0.565583 0.095443
v -0.134074 0.563517 0.0966432
v -0.22151 0.608789 0.00772807
v -0.134074 0.547956 0.107545
v -0.339069 0.493355 0.0105952
v -0.327419 0.497569 0.0695052
v -0.328426 0.498602 0.0540693
v -0.329479 0.499585 0.0386333
v -0.330532 0.500504 0.023164
v -0.333164 0.499946 0.00636117
v -0.337192 0.490846 0.0386333
v -0.338245 0.492256 0.023164
v -0.339161 0.477712 0.0893753
v -0.334652 0.485156 0.0845078
v -0.335132 0.487862 0.0695052
v -0.336162 0.48937 0.0540693
v -0.358434 0.441294 0.0809072
v -0.326343 0.481581 0.115846
v -0.337261 0.474137 0.100377
v -0.347744 0.441294 0.11758
v -0.21002 0.608789 0.0695052
v -0.304278 0.505734 0.115846
v -0.306864 0.50803 0.103444
v -0.315905 0.501438 0.0988769
v -0.31792 0.503849 0.0849412
v -0.326091 0.496126 0.0849412
v -0.328884 0.486911 0.0998437
v -0.214758 0.608789 0.0540359
v -0.214918 0.608789 0.0535025
v -0.323642 0.509079 0.00772807
v -0.321582 0.507308 0.0386333
v -0.219519 0.608789 0.023164
v -0.319545 0.505292 0.0695052
v -0.320552 0.506325 0.0540693
v -0.357724 0.441294 0.0849412
v -0.355984 0.441294 0.0920091
v -0.35381 0.441294 0.100377
v -0.34129 0.466431 0.100377
v -0.347859 0.441294 0.11728
v -0.216246 0.608789 0.046268
v -0.217459 0.608789 0.0386
v -0.352894 0.441294 0.103111
f 1 2 3
f 1 3 6
f 1 6 20
f 1 20 33
f 1 33 57
f 1 57 88
f 1 88 110
f 1 110 141
f 1 141 146
f 1 146 175
f 1 175 194
f 1 194 197
f 1 197 192
f 1 192 191
f 1 191 190
f 1 190 172
f 1 172 139
f 1 139 105
f 1 105 81
f 1 81 55
f 1 55 30
f 1 30 10
f 1 10 4
f 1 4 9
f 1 9 28
f 1 28 51
f 1 51 53
f 1 53 78
f 1 78 77
f 1 77 102
f 1 102 131
f 1 131 159
f 1 159 157
f 1 157 156
f 1 156 129
f 1 129 128
f 1 128 125
f 1 125 99
f 1 99 74
f 1 74 46
f 1 46 73
f 1 73 71
f 1 71 70
f 1 70 58
f 1 58 34
f 1 34 21
f 1 21 7
f 1 7 5
f 1 5 2
f 2 5 3
f 3 5 7
f 3 7 8
f 3 8 6
f 4 10 11
f 4 11 12
f 4 12 13
f 4 13 14
f 4 14 15
f 4 15 16
f 4 16 17
f 4 17 18
f 4 18 9
f 6 8 19
f 6 19 20
f 7 21 22
f 7 22 8
f 8 22 23
f 8 23 24
f 8 24 25
f 8 25 26
f 8 26 27
f 8 27 19
f 9 18 29
f 9 29 28
f 10 30 54
f 10 54 79
f 10 79 103
f 10 103 132
f 10 132 127
f 10 127 100
f 10 100 126
f 10 126 130
f 10 130 101
f 10 101 76
f 10 76 52
f 10 52 29
f 10 29 18
f 10 18 17
f 10 17 16
f 10 16 15
f 10 15 14
f 10 14 13
f 10 13 12
f 10 12 11
f 19 27 20
f 20 27 26
f 20 26 31
f 20 31 32
f 20 32 33
f 21 34 35
f 21 35 36
f 21 36 22
f 22 36 35
f 22 35 37
f 22 37 23
f 23 37 24
f 24 38 39
f 24 39 40
f 24 40 41
f 24 41 42
f 24 42 26
f 24 26 25
f 24 37 35
f 24 35 43
f 24 43 44
f 24 44 45
f 24 45 46
f 24 46 47
f 24 47 38
f 26 42 48
f 26 48 49
f 26 49 50
f 26 50 32
f 26 32 31
f 28 29 51
f 29 52 53
f 29 53 51
f 30 55 80
f 30 80 54
f 32 50 33
f 33 50 49
f 33 49 56
f 33 56 57
f 34 58 35
f 35 58 43
f 38 59 60
f 38 60 39
f 38 47 59
f 39 60 40
f 40 56 61
f 40 61 62
f 40 62 41
f 40 60 63
f 40 63 64
f 40 64 65
f 40 65 66
f 40 66 67
f 40 67 56
f 41 68 48
f 41 48 42
f 41 62 68
f 43 58 69
f 43 69 44
f 44 69 70
f 44 70 71
f 44 71 72
f 44 72 46
f 44 46 45
f 46 72 73
f 46 74 100
f 46 100 127
f 46 127 158
f 46 158 187
f 46 187 196
f 46 196 195
f 46 195 184
f 46 184 183
f 46 183 176
f 46 176 155
f 46 155 124
f 46 124 123
f 46 123 122
f 46 122 121
f 46 121 147
f 46 147 113
f 46 113 93
f 46 93 92
f 46 92 91
f 46 91 75
f 46 75 47
f 47 75 59
f 48 68 56
f 48 56 49
f 52 76 77
f 52 77 78
f 52 78 53
f 54 80 104
f 54 104 79
f 55 81 80
f 56 67 66
f 56 66 82
f 56 82 83
f 56 83 84
f 56 84 85
f 56 85 86
f 56 86 87
f 56 87 88
f 56 88 57
f 56 68 61
f 58 70 69
f 59 89 60
f 59 75 89
f 60 89 63
f 61 68 62
f 63 89 75
f 63 75 64
f 64 90 66
f 64 66 65
f 64 75 91
f 64 91 92
f 64 92 93
f 64 93 90
f 66 90 94
f 66 94 95
f 66 95 96
f 66 96 97
f 66 97 98
f 66 98 83
f 66 83 82
f 71 73 72
f 74 99 100
f 76 101 102
f 76 102 77
f 79 104 103
f 80 81 105
f 80 105 104
f 83 98 84
f 84 106 85
f 84 98 106
f 85 106 97
f 85 97 107
f 85 107 108
f 85 108 109
f 85 109 110
f 85 110 111
f 85 111 112
f 85 112 86
f 86 112 88
f 86 88 87
f 88 112 110
f 90 93 113
f 90 113 114
f 90 114 94
f 94 114 115
f 94 115 116
f 94 116 95
f 95 116 96
f 96 116 97
f 97 117 118
f 97 118 119
f 97 119 120
f 97 120 108
f 97 108 107
f 97 106 98
f 97 116 121
f 97 121 122
f 97 122 123
f 97 123 124
f 97 124 117
f 99 125 100
f 100 125 128
f 100 128 129
f 100 129 126
f 101 130 102
f 102 130 131
f 103 104 133
f 103 133 132
f 104 134 135
f 104 135 136
f 104 136 133
f 104 105 137
f 104 137 138
f 104 138 134
f 105 139 140
f 105 140 137
f 108 141 142
f 108 142 109
f 108 120 143
f 108 143 144
f 108 144 145
f 108 145 146
f 108 146 141
f 109 142 110
f 110 112 111
f 110 142 141
f 113 147 115
f 113 115 114
f 115 147 116
f 116 147 121
f 117 148 149
f 117 149 150
f 117 150 151
f 117 151 118
f 117 124 148
f 118 151 152
f 118 152 153
f 118 153 119
f 119 153 154
f 119 154 143
f 119 143 120
f 124 155 148
f 126 129 156
f 126 156 157
f 126 157 130
f 127 132 133
f 127 133 158
f 130 157 159
f 130 159 131
f 133 136 160
f 133 160 161
f 133 161 162
f 133 162 163
f 133 163 164
f 133 164 165
f 133 165 158
f 134 166 167
f 134 167 135
f 134 138 166
f 135 167 160
f 135 160 136
f 137 140 168
f 137 168 169
f 137 169 170
f 137 170 138
f 138 170 171
f 138 171 166
f 139 172 140
f 140 172 168
f 143 154 173
f 143 173 144
f 144 173 174
f 144 174 145
f 145 174 146
f 146 174 175
f 148 155 176
f 148 176 177
f 148 177 149
f 149 177 150
f 150 177 178
f 150 178 179
f 150 179 152
f 150 152 151
f 152 180 181
f 152 181 169
f 152 169 168
f 152 168 182
f 152 182 153
f 152 179 176
f 152 176 183
f 152 183 184
f 152 184 180
f 153 182 173
f 153 173 154
f 158 165 185
f 158 185 164
f 158 164 186
f 158 186 187
f 160 167 161
f 161 170 181
f 161 181 188
f 161 188 189
f 161 189 162
f 161 167 166
f 161 166 171
f 161 171 170
f 162 189 163
f 163 189 186
f 163 186 164
f 164 185 165
f 168 172 190
f 168 190 191
f 168 191 192
f 168 192 193
f 168 193 174
f 168 174 173
f 168 173 182
f 169 181 170
f 174 193 175
f 175 193 194
f 176 179 178
f 176 178 177
f 180 184 181
f 181 184 188
f 184 195 188
f 186 189 187
f 187 189 196
f 188 195 196
f 188 196 189
f 192 197 193
f 193 197 194
