v 0.222562 0.356914 -0.23881
v 0.300254 0.356914 -0.124716
v 0.322503 0.356914 -0.23881
v 0.305673 -0.0222389 -0.23881
v 0.368166 -0.0222389 -0.124716
v 0.381439 0.356914 -0.124716
v 0.323032 0.356914 -0.238319
v 0.336835 0.334164 -0.23881
v 0.387409 -0.0222389 -0.23881
v 0.437729 -0.0222389 -0.124716
v 0.392849 0.337652 -0.124716
v 0.37947 0.356914 -0.13126
v 0.342254 0.356914 -0.212263
v 0.353707 0.33743 -0.214106
v 0.339481 0.33936 -0.231316
v 0.338042 0.332197 -0.23881
v 0.388171 -0.00769032 -0.23881
v 0.389102 -0.0222389 -0.236576
v 0.435146 -0.0222389 -0.132556
v 0.438152 -0.0142594 -0.124716
v 0.395919 0.332271 -0.124716
v 0.374517 0.356914 -0.144115
v 0.345557 0.356914 -0.207695
v 0.356967 0.342143 -0.203809
v 0.359931 0.33216 -0.208756
v 0.356819 0.327149 -0.218361
v 0.342572 0.329042 -0.235359
v 0.344117 0.319652 -0.23881
v 0.389822 -0.00769032 -0.236621
v 0.388594 0.00774897 -0.23881
v 0.389441 -0.0222389 -0.236118
v 0.429769 -0.0222389 -0.145544
v 0.432754 -0.00769032 -0.139927
v 0.436332 -0.00769032 -0.13126
v 0.438173 -0.0138512 -0.124716
v 0.399391 0.325256 -0.124716
v 0.386604 0.325442 -0.155819
v 0.388044 0.331157 -0.145221
v 0.386075 0.339768 -0.139089
v 0.360375 0.356914 -0.178077
v 0.369372 0.337467 -0.182388
v 0.354384 0.356914 -0.191825
v 0.367446 0.332197 -0.19359
v 0.369923 0.322065 -0.199118
v 0.367086 0.316757 -0.208075
v 0.358999 0.316535 -0.221209
v 0.353093 0.316535 -0.228926
v 0.345599 0.316312 -0.23881
v 0.398205 -0.00631712 -0.22237
v 0.396723 -0.0222389 -0.223822
v 0.390034 0.00774897 -0.2369
v 0.397761 0.00774897 -0.223956
v 0.388192 0.0231883 -0.23881
v 0.389843 0.0231883 -0.236643
v 0.410103 -0.0222389 -0.19302
v 0.403921 -0.00631712 -0.209683
v 0.429557 -0.00769032 -0.147644
v 0.401487 -0.00023047 -0.216206
v 0.438427 -0.00769032 -0.124716
v 0.436713 0.00774897 -0.13126
v 0.400746 0.32199 -0.124716
v 0.372061 0.327186 -0.188821
v 0.383916 0.33576 -0.149386
v 0.401973 0.317982 -0.124716
v 0.402714 0.312972 -0.126536
v 0.386033 0.308741 -0.169835
v 0.373797 0.316757 -0.19359
v 0.371468 0.311784 -0.202681
v 0.368589 0.301095 -0.212353
v 0.354681 0.305215 -0.230992
v 0.346023 0.314753 -0.23881
v 0.401254 -0.010511 -0.215647
v 0.400809 -0.0222389 -0.215357
v 0.401508 0.00774897 -0.216239
v 0.398226 0.0219264 -0.222393
v 0.401508 0.0159511 -0.216228
v 0.387959 0.0278275 -0.23881
v 0.389039 0.0540668 -0.235582
v 0.39666 0.0386275 -0.2239
v 0.404154 -0.0222389 -0.20736
v 0.429748 0.00774897 -0.148091
v 0.438808 0.00774897 -0.124716
v 0.436374 0.0231883 -0.13126
v 0.40318 0.313825 -0.124716
v 0.403773 0.310968 -0.124716
v 0.403773 0.301095 -0.129094
v 0.372336 0.301095 -0.204635
v 0.421936 0.177581 -0.13126
v 0.417173 0.186414 -0.139592
v 0.385927 0.184484 -0.215904
v 0.359846 0.300464 -0.225073
v 0.382328 0.17862 -0.223007
v 0.373755 0.177581 -0.23575
v 0.349304 0.300539 -0.23881
v 0.349156 0.301355 -0.23881
v 0.371426 0.177581 -0.23881
v 0.400979 -0.0222389 -0.214999
v 0.401275 0.0262316 -0.215669
v 0.395157 0.0695061 -0.2239
v 0.423588 0.0231883 -0.16214
v 0.429579 0.0231883 -0.147678
v 0.432775 0.0231883 -0.13996
v 0.388637 0.0695061 -0.235046
v 0.384953 0.0849454 -0.23881
v 0.388213 0.0849454 -0.23451
v 0.43847 0.0231883 -0.124716
v 0.435061 0.03911 -0.13269
v 0.434913 0.0695061 -0.129686
v 0.434553 0.0849454 -0.128837
v 0.405466 0.301095 -0.124716
v 0.424223 0.177581 -0.124716
v 0.431865 0.125028 -0.124716
v 0.43286 0.117939 -0.124716
v 0.424074 0.162142 -0.13126
v 0.414633 0.177581 -0.148906
v 0.400513 0.131263 -0.198381
v 0.398819 0.116084 -0.207506
v 0.399327 0.100385 -0.210979
v 0.393103 0.100385 -0.2239
v 0.386626 0.174167 -0.217255
v 0.385885 0.122616 -0.231394
v 0.385207 0.131263 -0.230322
v 0.38273 0.162142 -0.22648
v 0.38671 0.112335 -0.2325
v 0.375004 0.162142 -0.237369
v 0.380084 0.123618 -0.23881
v 0.394395 0.0849454 -0.2239
v 0.40064 0.0540668 -0.214139
v 0.417956 0.0540668 -0.172348
v 0.432288 0.0445657 -0.138788
v 0.384064 0.0947063 -0.23881
v 0.387536 0.100385 -0.233594
v 0.436056 0.0800464 -0.124716
v 0.427165 0.0849454 -0.146706
v 0.431717 0.0695061 -0.137414
v 0.435845 0.0849454 -0.124716
v 0.417025 0.0935558 -0.170103
v 0.433961 0.100385 -0.127385
v 0.433156 0.115267 -0.124716
v 0.432987 0.115824 -0.125073
v 0.401889 0.111111 -0.201732
v 0.418888 0.115824 -0.159147
v 0.417173 0.140764 -0.155015
v 0.409129 0.131263 -0.177586
v 0.40119 0.121391 -0.200023
v 0.416453 0.103836 -0.16873
v 0.39992 0.0849454 -0.212442
v 0.390119 0.116826 -0.225308
v 0.383535 0.100385 -0.23881
v 0.381545 0.114191 -0.23881
v 0.381058 0.117531 -0.23881
v 0.408684 0.0695061 -0.19302
v 0.420772 0.0849454 -0.16214
v 0.435019 0.0968218 -0.124716
v 0.425959 0.100385 -0.146706
v 0.434744 0.100385 -0.124716
f 1 2 6
f 1 6 12
f 1 12 22
f 1 22 40
f 1 40 42
f 1 42 23
f 1 23 13
f 1 13 7
f 1 7 3
f 1 3 8
f 1 8 16
f 1 16 28
f 1 28 48
f 1 48 71
f 1 71 95
f 1 95 94
f 1 94 96
f 1 96 126
f 1 126 151
f 1 151 150
f 1 150 149
f 1 149 131
f 1 131 104
f 1 104 77
f 1 77 53
f 1 53 30
f 1 30 17
f 1 17 9
f 1 9 4
f 1 4 5
f 1 5 2
f 2 5 10
f 2 10 20
f 2 20 35
f 2 35 59
f 2 59 82
f 2 82 106
f 2 106 133
f 2 133 136
f 2 136 154
f 2 154 156
f 2 156 139
f 2 139 113
f 2 113 112
f 2 112 111
f 2 111 110
f 2 110 85
f 2 85 84
f 2 84 64
f 2 64 61
f 2 61 36
f 2 36 21
f 2 21 11
f 2 11 6
f 3 7 8
f 4 9 18
f 4 18 31
f 4 31 50
f 4 50 73
f 4 73 97
f 4 97 80
f 4 80 55
f 4 55 32
f 4 32 19
f 4 19 10
f 4 10 5
f 6 11 12
f 7 13 14
f 7 14 15
f 7 15 8
f 8 15 16
f 9 17 18
f 10 19 20
f 11 21 12
f 12 21 22
f 13 23 14
f 14 23 24
f 14 24 25
f 14 25 26
f 14 26 15
f 15 26 16
f 16 26 27
f 16 27 28
f 17 29 18
f 17 30 29
f 18 29 31
f 19 32 33
f 19 33 34
f 19 34 20
f 20 34 35
f 21 36 37
f 21 37 38
f 21 38 39
f 21 39 22
f 22 39 41
f 22 41 40
f 23 42 24
f 24 43 25
f 24 42 43
f 25 43 44
f 25 44 26
f 26 44 45
f 26 45 46
f 26 46 47
f 26 47 48
f 26 48 28
f 26 28 27
f 29 49 50
f 29 50 31
f 29 30 51
f 29 51 52
f 29 52 49
f 30 53 54
f 30 54 51
f 32 55 56
f 32 56 57
f 32 57 33
f 33 57 56
f 33 56 58
f 33 58 34
f 34 59 35
f 34 58 60
f 34 60 82
f 34 82 59
f 36 61 37
f 37 62 38
f 37 61 44
f 37 44 62
f 38 62 41
f 38 41 63
f 38 63 39
f 39 63 41
f 40 41 43
f 40 43 42
f 41 62 43
f 43 62 44
f 44 61 64
f 44 64 65
f 44 65 66
f 44 66 67
f 44 67 68
f 44 68 45
f 45 68 69
f 45 69 46
f 46 70 48
f 46 48 47
f 46 69 70
f 48 70 71
f 49 58 72
f 49 72 50
f 49 52 58
f 50 72 73
f 51 54 52
f 52 74 58
f 52 54 75
f 52 75 76
f 52 76 74
f 53 77 54
f 54 77 78
f 54 78 79
f 54 79 75
f 55 80 56
f 56 80 72
f 56 72 58
f 58 74 81
f 58 81 60
f 60 81 76
f 60 76 83
f 60 83 106
f 60 106 82
f 64 84 65
f 65 84 85
f 65 85 86
f 65 86 66
f 66 87 68
f 66 68 67
f 66 86 88
f 66 88 89
f 66 89 90
f 66 90 87
f 68 87 69
f 69 91 70
f 69 87 90
f 69 90 92
f 69 92 93
f 69 93 91
f 70 94 95
f 70 95 71
f 70 91 93
f 70 93 96
f 70 96 94
f 72 80 97
f 72 97 73
f 74 76 81
f 75 98 76
f 75 79 99
f 75 99 98
f 76 98 100
f 76 100 101
f 76 101 102
f 76 102 83
f 77 103 78
f 77 104 103
f 78 103 79
f 79 103 105
f 79 105 99
f 83 102 107
f 83 107 108
f 83 108 109
f 83 109 106
f 85 110 86
f 86 110 88
f 88 111 112
f 88 112 113
f 88 113 114
f 88 114 115
f 88 115 90
f 88 90 89
f 88 110 111
f 90 115 114
f 90 114 116
f 90 116 117
f 90 117 118
f 90 118 119
f 90 119 120
f 90 120 121
f 90 121 122
f 90 122 92
f 92 122 123
f 92 123 93
f 93 123 122
f 93 122 121
f 93 121 124
f 93 124 125
f 93 125 96
f 96 125 126
f 98 99 127
f 98 127 128
f 98 128 129
f 98 129 100
f 99 105 127
f 100 129 101
f 101 129 102
f 102 129 130
f 102 130 107
f 103 104 105
f 104 131 132
f 104 132 105
f 105 132 127
f 106 109 133
f 107 130 134
f 107 134 135
f 107 135 108
f 108 135 134
f 108 134 109
f 109 136 133
f 109 134 137
f 109 137 138
f 109 138 136
f 113 139 140
f 113 140 141
f 113 141 142
f 113 142 143
f 113 143 114
f 114 143 144
f 114 144 116
f 116 144 145
f 116 145 117
f 117 145 142
f 117 142 141
f 117 141 118
f 118 141 146
f 118 146 137
f 118 137 147
f 118 147 119
f 119 147 127
f 119 127 132
f 119 132 124
f 119 124 148
f 119 148 120
f 120 148 124
f 120 124 121
f 124 132 149
f 124 149 150
f 124 150 151
f 124 151 126
f 124 126 125
f 127 147 128
f 128 147 152
f 128 152 129
f 129 152 153
f 129 153 134
f 129 134 130
f 131 149 132
f 134 153 137
f 136 138 154
f 137 153 147
f 137 146 155
f 137 155 138
f 138 156 154
f 138 155 146
f 138 146 140
f 138 140 139
f 138 139 156
f 140 146 141
f 142 145 144
f 142 144 143
f 147 153 152
