v 7.2114e-05 -0.405415 -0.371348
v 7.2114e-05 -0.412099 -0.368641
v 7.2114e-05 -0.405415 -0.299741
v 0.00112217 -0.405415 -0.371348
v 0.0077507 -0.412099 -0.368641
v 7.2114e-05 -0.501868 -0.330977
v 7.2114e-05 -0.503001 -0.221092
v 0.256288 -0.405415 -0.155301
v 0.0077507 -0.405415 -0.371327
v 0.0119181 -0.405415 -0.370798
v 0.0236657 -0.408342 -0.368112
v 0.0849631 -0.418557 -0.355868
v 0.0695075 -0.496883 -0.325457
v 0.0540519 -0.499055 -0.326472
v 0.0077507 -0.501868 -0.330977
v 7.2114e-05 -0.506702 -0.328397
v 7.2114e-05 -0.515841 -0.211491
v 0.144193 -0.514501 -0.155301
v 0.335305 -0.405415 -0.155301
v 7.2114e-05 -0.529154 -0.203011
v 7.2114e-05 -0.532987 -0.200917
v 7.2114e-05 -0.536877 -0.198845
v 7.2114e-05 -0.542466 -0.196243
v 7.2114e-05 -0.548169 -0.1936
v 7.2114e-05 -0.564578 -0.18753
v 0.0258315 -0.405415 -0.369001
v 0.0540519 -0.40921 -0.363756
v 0.0696716 -0.405415 -0.363227
v 0.0849631 -0.40921 -0.359674
v 0.0930683 -0.417254 -0.355297
v 0.0792206 -0.495221 -0.324717
v 0.0695075 -0.504568 -0.321693
v 0.0540519 -0.50674 -0.322729
v 0.041648 -0.508383 -0.323596
v 0.0313443 -0.509648 -0.324336
v 0.0373494 -0.50268 -0.326874
v 0.0077507 -0.511461 -0.325838
v 0.0231735 -0.510309 -0.324865
v 7.2114e-05 -0.511461 -0.325838
v 0.136285 -0.522243 -0.155301
v 0.334484 -0.407322 -0.155301
v 0.325165 -0.405415 -0.179748
v 7.2114e-05 -0.578306 -0.183449
v 0.132249 -0.526472 -0.155301
v 0.0814848 -0.405415 -0.361662
v 0.0849631 -0.405415 -0.361197
v 0.0846022 -0.500962 -0.320508
v 0.0962841 -0.405415 -0.358638
v 0.0993359 -0.405415 -0.35794
v 0.104192 -0.405415 -0.356227
v 0.103372 -0.412873 -0.353393
v 0.101403 -0.50302 -0.313826
v 0.0849631 -0.513481 -0.31243
v 0.0695075 -0.514973 -0.313974
v 0.0540519 -0.598322 -0.2404
v 0.0077507 -0.598322 -0.246195
v 0.0275378 -0.598322 -0.243974
v 0.0231735 -0.598322 -0.244545
v 0.0424356 -0.598322 -0.241986
v 7.2114e-05 -0.598322 -0.246195
v 0.333598 -0.409361 -0.155301
v 0.324279 -0.416952 -0.169893
v 0.294385 -0.496298 -0.156781
v 0.321884 -0.412024 -0.180192
v 0.319685 -0.405415 -0.189392
v 7.2114e-05 -0.594507 -0.18034
v 0.1079 -0.557837 -0.155301
v 0.109279 -0.555741 -0.155301
v 0.114431 -0.548169 -0.155301
v 0.118007 -0.543297 -0.155301
v 0.121683 -0.53852 -0.155301
v 0.128606 -0.530551 -0.155301
v 0.0969404 -0.511461 -0.310569
v 0.112068 -0.405415 -0.353203
v 0.114956 -0.408323 -0.350771
v 0.123815 -0.494409 -0.308941
v 0.115842 -0.497733 -0.31059
v 0.107211 -0.508949 -0.308454
v 0.06977 -0.598322 -0.236403
v 7.2114e-05 -0.598322 -0.17996
v 0.294615 -0.497015 -0.155301
v 0.290513 -0.504512 -0.155301
v 0.288872 -0.501604 -0.162026
v 0.31158 -0.421994 -0.189032
v 0.316108 -0.408247 -0.192395
v 0.316994 -0.405415 -0.193092
v 0.281292 -0.501868 -0.174292
v 0.097367 -0.579061 -0.155301
v 0.103897 -0.565541 -0.155301
v 0.114562 -0.598322 -0.218258
v 0.0813536 -0.598322 -0.231962
v 0.140256 -0.510177 -0.293904
v 0.116203 -0.405415 -0.351511
v 0.13156 -0.40955 -0.343369
v 0.136876 -0.414913 -0.338844
v 0.169854 -0.416952 -0.324273
v 0.156794 -0.496298 -0.294391
v 0.145932 -0.501604 -0.296188
v 0.150559 -0.50657 -0.291705
v 0.0912635 -0.598322 -0.155301
v 0.0928058 -0.591675 -0.155301
v 0.283228 -0.513651 -0.155301
v 0.281095 -0.512707 -0.162153
v 0.2787 -0.510309 -0.170845
v 0.307741 -0.414762 -0.199331
v 0.311777 -0.405415 -0.200092
v 0.260422 -0.506343 -0.198104
v 0.263539 -0.496052 -0.202101
v 0.277781 -0.493239 -0.185077
v 0.116728 -0.598322 -0.217264
v 0.162143 -0.512707 -0.28111
v 0.162307 -0.405415 -0.332415
v 0.173693 -0.405415 -0.327678
v 0.176286 -0.405415 -0.326599
v 0.176023 -0.407813 -0.325669
v 0.179731 -0.405415 -0.325161
v 0.180158 -0.412024 -0.321883
v 0.162012 -0.501604 -0.288871
v 0.170839 -0.510309 -0.278699
v 0.190166 -0.598322 -0.155301
v 0.231972 -0.50995 -0.232005
v 0.246213 -0.508345 -0.215107
v 0.188099 -0.598322 -0.15805
v 0.293499 -0.417141 -0.216334
v 0.296649 -0.405415 -0.219908
v 0.303672 -0.409456 -0.208107
v 0.309053 -0.405415 -0.20373
v 0.267707 -0.409003 -0.255204
v 0.249298 -0.498073 -0.219104
v 0.121092 -0.598322 -0.215002
v 0.189379 -0.405415 -0.319684
v 0.174284 -0.501868 -0.2813
v 0.198075 -0.506343 -0.260448
v 0.215073 -0.508345 -0.246216
v 0.159977 -0.598322 -0.186642
v 0.150494 -0.598322 -0.193917
v 0.141995 -0.598322 -0.20041
v 0.130772 -0.598322 -0.208869
v 0.224097 -0.502661 -0.242663
v 0.234466 -0.501868 -0.234479
v 0.242637 -0.502661 -0.224116
v 0.182094 -0.598322 -0.16579
v 0.17435 -0.598322 -0.174377
v 0.167984 -0.598322 -0.180213
v 0.165785 -0.598322 -0.182117
v 0.275911 -0.40921 -0.244439
v 0.283031 -0.405415 -0.237651
v 0.260586 -0.414006 -0.260596
v 0.264951 -0.405415 -0.260893
v 0.269512 -0.405415 -0.255204
v 0.193054 -0.405415 -0.316998
v 0.192365 -0.408247 -0.31611
v 0.189018 -0.421994 -0.311584
v 0.199289 -0.414762 -0.307735
v 0.185047 -0.493239 -0.27779
v 0.202078 -0.496052 -0.263536
v 0.219076 -0.498073 -0.249303
v 0.276862 -0.405415 -0.245666
v 0.255172 -0.409003 -0.267723
v 0.260882 -0.405415 -0.264953
v 0.200076 -0.405415 -0.311774
v 0.203719 -0.405415 -0.309046
v 0.208083 -0.409456 -0.303675
v 0.216319 -0.417141 -0.293481
v 0.233317 -0.419294 -0.279249
v 0.255172 -0.405415 -0.269521
v 0.244409 -0.40921 -0.275908
v 0.245656 -0.405415 -0.276859
v 0.251333 -0.405415 -0.272482
v 0.208083 -0.405415 -0.305705
v 0.218912 -0.40921 -0.29549
v 0.234203 -0.405415 -0.285657
v 0.22787 -0.405415 -0.290521
f 1 2 6
f 1 6 16
f 1 16 39
f 1 39 60
f 1 60 80
f 1 80 66
f 1 66 43
f 1 43 25
f 1 25 24
f 1 24 23
f 1 23 22
f 1 22 21
f 1 21 20
f 1 20 17
f 1 17 7
f 1 7 3
f 1 3 8
f 1 8 19
f 1 19 42
f 1 42 65
f 1 65 86
f 1 86 106
f 1 106 127
f 1 127 125
f 1 125 147
f 1 147 158
f 1 158 150
f 1 150 149
f 1 149 160
f 1 160 166
f 1 166 169
f 1 169 168
f 1 168 172
f 1 172 173
f 1 173 170
f 1 170 162
f 1 162 161
f 1 161 151
f 1 151 131
f 1 131 116
f 1 116 114
f 1 114 113
f 1 113 112
f 1 112 93
f 1 93 74
f 1 74 50
f 1 50 49
f 1 49 48
f 1 48 46
f 1 46 45
f 1 45 28
f 1 28 26
f 1 26 10
f 1 10 9
f 1 9 4
f 1 4 5
f 1 5 2
f 2 5 15
f 2 15 6
f 3 7 8
f 4 9 5
f 5 9 10
f 5 10 11
f 5 11 12
f 5 12 13
f 5 13 14
f 5 14 15
f 6 15 16
f 7 17 8
f 8 18 40
f 8 40 44
f 8 44 72
f 8 72 71
f 8 71 70
f 8 70 69
f 8 69 68
f 8 68 67
f 8 67 89
f 8 89 88
f 8 88 101
f 8 101 100
f 8 100 120
f 8 120 102
f 8 102 82
f 8 82 81
f 8 81 61
f 8 61 41
f 8 41 19
f 8 17 20
f 8 20 21
f 8 21 22
f 8 22 23
f 8 23 24
f 8 24 25
f 8 25 18
f 10 26 11
f 11 27 12
f 11 26 28
f 11 28 27
f 12 29 30
f 12 30 13
f 12 27 29
f 13 30 31
f 13 31 32
f 13 32 33
f 13 33 34
f 13 34 14
f 14 34 35
f 14 35 36
f 14 36 15
f 15 37 16
f 15 36 35
f 15 35 38
f 15 38 37
f 16 37 39
f 18 25 40
f 19 41 42
f 25 43 44
f 25 44 40
f 27 28 29
f 28 45 29
f 29 45 46
f 29 46 30
f 30 47 31
f 30 46 48
f 30 48 49
f 30 49 50
f 30 50 51
f 30 51 52
f 30 52 47
f 31 47 32
f 32 47 53
f 32 53 54
f 32 54 33
f 33 54 34
f 34 54 35
f 35 55 38
f 35 54 55
f 37 56 60
f 37 60 39
f 37 38 57
f 37 57 58
f 37 58 56
f 38 55 59
f 38 59 57
f 41 61 62
f 41 62 42
f 42 62 63
f 42 63 64
f 42 64 65
f 43 66 67
f 43 67 68
f 43 68 69
f 43 69 70
f 43 70 71
f 43 71 72
f 43 72 44
f 47 73 53
f 47 52 73
f 50 74 51
f 51 74 75
f 51 75 76
f 51 76 77
f 51 77 52
f 52 77 78
f 52 78 73
f 53 73 79
f 53 79 55
f 53 55 54
f 55 79 91
f 55 91 90
f 55 90 110
f 55 110 130
f 55 130 138
f 55 138 137
f 55 137 136
f 55 136 135
f 55 135 145
f 55 145 144
f 55 144 143
f 55 143 142
f 55 142 123
f 55 123 120
f 55 120 100
f 55 100 80
f 55 80 60
f 55 60 56
f 55 56 58
f 55 58 57
f 55 57 59
f 61 81 63
f 61 63 62
f 63 81 82
f 63 82 83
f 63 83 64
f 64 83 65
f 65 84 85
f 65 85 86
f 65 83 87
f 65 87 84
f 66 80 88
f 66 88 89
f 66 89 67
f 73 90 91
f 73 91 79
f 73 78 92
f 73 92 90
f 74 93 75
f 75 93 94
f 75 94 95
f 75 95 76
f 76 95 96
f 76 96 97
f 76 97 77
f 77 97 98
f 77 98 78
f 78 98 99
f 78 99 92
f 80 100 101
f 80 101 88
f 82 102 103
f 82 103 104
f 82 104 83
f 83 104 87
f 84 105 85
f 84 87 105
f 85 105 86
f 86 105 106
f 87 104 107
f 87 107 108
f 87 108 109
f 87 109 105
f 90 92 110
f 92 99 111
f 92 111 110
f 93 112 94
f 94 112 95
f 95 112 96
f 96 112 113
f 96 113 114
f 96 114 115
f 96 115 116
f 96 116 97
f 97 116 117
f 97 117 118
f 97 118 99
f 97 99 98
f 99 118 119
f 99 119 111
f 102 120 103
f 103 120 104
f 104 121 122
f 104 122 107
f 104 120 123
f 104 123 121
f 105 124 125
f 105 125 126
f 105 126 127
f 105 127 106
f 105 109 108
f 105 108 124
f 107 122 108
f 108 128 124
f 108 122 129
f 108 129 128
f 110 111 130
f 111 119 130
f 114 116 115
f 116 131 117
f 117 131 118
f 118 131 132
f 118 132 119
f 119 132 133
f 119 133 134
f 119 134 121
f 119 121 135
f 119 135 136
f 119 136 137
f 119 137 138
f 119 138 130
f 121 134 139
f 121 139 140
f 121 140 141
f 121 141 122
f 121 123 142
f 121 142 143
f 121 143 144
f 121 144 145
f 121 145 135
f 122 141 129
f 124 128 146
f 124 146 147
f 124 147 125
f 125 127 126
f 128 148 149
f 128 149 150
f 128 150 146
f 128 129 148
f 129 141 140
f 129 140 148
f 131 151 152
f 131 152 153
f 131 153 132
f 132 153 154
f 132 154 155
f 132 155 156
f 132 156 133
f 133 156 157
f 133 157 134
f 134 157 139
f 139 157 148
f 139 148 140
f 146 150 158
f 146 158 147
f 148 159 160
f 148 160 149
f 148 157 159
f 151 161 152
f 152 161 154
f 152 154 153
f 154 161 162
f 154 162 163
f 154 163 164
f 154 164 156
f 154 156 155
f 156 164 165
f 156 165 159
f 156 159 157
f 159 166 160
f 159 165 164
f 159 164 167
f 159 167 168
f 159 168 169
f 159 169 166
f 162 170 163
f 163 170 171
f 163 171 164
f 164 171 167
f 167 171 172
f 167 172 168
f 170 173 171
f 171 173 172
