v 0.152293 -0.405415 -0.33654
v 0.158335 -0.405415 -0.334042
v 0.152293 -0.405415 -0.258026
v 0.152293 -0.366482 -0.353338
v 0.176336 -0.405415 -0.326595
v 0.235203 -0.405415 -0.183936
v 0.343438 -0.0222389 -0.183936
v 0.152293 -0.0222389 -0.35674
v 0.152293 -0.358943 -0.356574
v 0.156185 -0.356843 -0.355884
v 0.183839 -0.369183 -0.33911
v 0.179742 -0.405415 -0.325168
v 0.322774 -0.405415 -0.183936
v 0.413878 -0.0222389 -0.183936
v 0.152293 -0.0222389 -0.426975
v 0.152293 -0.352979 -0.359096
v 0.152293 -0.347241 -0.361499
v 0.161664 -0.346978 -0.357763
v 0.166478 -0.351817 -0.353742
v 0.185477 -0.401702 -0.324359
v 0.17713 -0.346978 -0.351339
v 0.188627 -0.358868 -0.341323
v 0.189395 -0.405415 -0.319672
v 0.319676 -0.405415 -0.189409
v 0.324361 -0.401702 -0.185459
v 0.324566 -0.402677 -0.183936
v 0.400999 -0.0222389 -0.215009
v 0.413341 -0.0340162 -0.183936
v 0.404174 -0.0231766 -0.207253
v 0.215026 -0.0222389 -0.400994
v 0.173161 -0.0231766 -0.418291
v 0.152293 -0.0540827 -0.425524
v 0.152293 -0.337976 -0.364996
v 0.17165 -0.341502 -0.355884
v 0.199304 -0.383886 -0.323193
v 0.193082 -0.405415 -0.317007
v 0.193466 -0.347691 -0.343726
v 0.19892 -0.353017 -0.338658
v 0.202659 -0.34274 -0.341061
v 0.181969 -0.335463 -0.353742
v 0.317013 -0.405415 -0.193096
v 0.323209 -0.383886 -0.199306
v 0.339085 -0.369108 -0.183936
v 0.341056 -0.34274 -0.202661
v 0.338649 -0.353017 -0.198902
v 0.343719 -0.347691 -0.193477
v 0.341312 -0.358868 -0.188623
v 0.396723 -0.0222389 -0.223836
v 0.400256 -0.0540827 -0.213272
v 0.394367 -0.0694983 -0.223907
v 0.411983 -0.0636471 -0.183936
v 0.408655 -0.0540827 -0.193025
v 0.223322 -0.0222389 -0.396973
v 0.223911 -0.0540827 -0.395117
v 0.223911 -0.0694983 -0.394356
v 0.212414 -0.0694983 -0.399899
v 0.204707 -0.0694983 -0.403111
v 0.205552 -0.0540827 -0.403468
v 0.178333 -0.0694983 -0.414032
v 0.152293 -0.0694983 -0.42481
v 0.152293 -0.332838 -0.366899
v 0.202735 -0.373608 -0.325786
v 0.20271 -0.40444 -0.310321
v 0.203734 -0.405415 -0.30906
v 0.19193 -0.331 -0.35084
v 0.205526 -0.331975 -0.343107
v 0.213234 -0.331975 -0.337445
v 0.229954 -0.336326 -0.322955
v 0.246956 -0.339439 -0.308727
v 0.208061 -0.347691 -0.334589
v 0.200431 -0.308383 -0.355003
v 0.216511 -0.278565 -0.355384
v 0.162151 -0.331975 -0.363116
v 0.17713 -0.331 -0.35724
v 0.186041 -0.325186 -0.355455
v 0.311789 -0.405415 -0.200091
v 0.31033 -0.40444 -0.202708
v 0.32577 -0.373608 -0.202732
v 0.342465 -0.361006 -0.183936
v 0.350838 -0.331 -0.191931
v 0.334578 -0.347691 -0.208062
v 0.308717 -0.339439 -0.246938
v 0.322953 -0.336326 -0.229951
v 0.337446 -0.331975 -0.213248
v 0.343105 -0.331975 -0.205516
v 0.355395 -0.278565 -0.216508
v 0.355011 -0.308383 -0.200424
v 0.348175 -0.347278 -0.183936
v 0.353168 -0.334601 -0.183936
v 0.389425 -0.0231766 -0.236113
v 0.389451 -0.0222389 -0.236137
v 0.388196 -0.0694983 -0.234495
v 0.388606 -0.0540827 -0.235042
v 0.403098 -0.0694983 -0.204707
v 0.399898 -0.0694983 -0.212416
v 0.393035 -0.0849513 -0.223907
v 0.387479 -0.0849513 -0.233567
v 0.411702 -0.0694983 -0.183936
v 0.407938 -0.0694983 -0.193025
v 0.223834 -0.0222389 -0.396711
v 0.223911 -0.0231766 -0.39664
v 0.234512 -0.0694983 -0.388194
v 0.233564 -0.0849513 -0.38748
v 0.223911 -0.0849513 -0.393023
v 0.210929 -0.0849513 -0.399281
v 0.170088 -0.0779749 -0.417006
v 0.152293 -0.0744492 -0.424429
v 0.152293 -0.31701 -0.37211
v 0.153035 -0.322486 -0.370016
v 0.209649 -0.405415 -0.30454
v 0.208113 -0.361494 -0.327737
v 0.216409 -0.355455 -0.32443
v 0.215513 -0.322898 -0.339181
v 0.224449 -0.331488 -0.329046
v 0.254715 -0.333363 -0.305111
v 0.274328 -0.331975 -0.290597
v 0.263958 -0.34199 -0.294499
v 0.218944 -0.347428 -0.326381
v 0.194388 -0.302382 -0.3595
v 0.196923 -0.2702 -0.369017
v 0.200252 -0.261724 -0.370373
v 0.208497 -0.255835 -0.367899
v 0.208471 -0.2702 -0.363116
v 0.218585 -0.2702 -0.356978
v 0.236381 -0.2702 -0.343345
v 0.230953 -0.291992 -0.339181
v 0.309049 -0.405415 -0.203732
v 0.30293 -0.405415 -0.211726
v 0.316014 -0.361794 -0.223217
v 0.324413 -0.355455 -0.216389
v 0.327716 -0.361494 -0.208109
v 0.320444 -0.347428 -0.226667
v 0.29448 -0.34199 -0.26395
v 0.290588 -0.331975 -0.274323
v 0.32495 -0.326012 -0.23252
v 0.343361 -0.301107 -0.220957
v 0.308717 -0.277627 -0.277821
v 0.324925 -0.264199 -0.263379
v 0.351068 -0.2702 -0.22631
v 0.356983 -0.2702 -0.218578
v 0.363128 -0.2702 -0.208466
v 0.367916 -0.255835 -0.20849
v 0.370375 -0.261724 -0.200234
v 0.369017 -0.2702 -0.196927
v 0.359492 -0.302382 -0.194381
v 0.355882 -0.326537 -0.183936
v 0.383561 -0.0222389 -0.243869
v 0.382307 -0.0694983 -0.242228
v 0.411113 -0.0772623 -0.183936
v 0.41055 -0.0843512 -0.183936
v 0.399283 -0.0849513 -0.210917
v 0.386608 -0.158466 -0.217222
v 0.390065 -0.10123 -0.225287
v 0.38666 -0.0966536 -0.232473
v 0.38159 -0.0849513 -0.241276
v 0.354934 -0.0729489 -0.277678
v 0.236125 -0.0222389 -0.389455
v 0.236099 -0.0231766 -0.389431
v 0.242219 -0.0694983 -0.382317
v 0.241297 -0.0849513 -0.381579
v 0.232463 -0.0966536 -0.386671
v 0.225294 -0.10123 -0.390073
v 0.217228 -0.158466 -0.3866
v 0.203196 -0.0849513 -0.402493
v 0.21582 -0.16878 -0.385862
v 0.207472 -0.100517 -0.398757
v 0.20166 -0.0954159 -0.40185
v 0.176183 -0.0838636 -0.413818
v 0.16297 -0.0838636 -0.41929
v 0.152293 -0.0845762 -0.42362
v 0.152293 -0.270576 -0.387385
v 0.219917 -0.405415 -0.296664
v 0.260706 -0.352304 -0.292001
v 0.250413 -0.360218 -0.295951
v 0.247007 -0.401364 -0.277916
v 0.271102 -0.31671 -0.298925
v 0.276812 -0.321961 -0.292525
v 0.294454 -0.280665 -0.294476
v 0.292175 -0.29098 -0.292215
v 0.280243 -0.34439 -0.280248
v 0.27082 -0.348328 -0.286124
v 0.191827 -0.284528 -0.366424
v 0.156927 -0.265662 -0.387075
v 0.167221 -0.258423 -0.384934
v 0.162099 -0.253885 -0.388289
v 0.176464 -0.253885 -0.382341
v 0.170575 -0.248146 -0.386314
v 0.194286 -0.255835 -0.374418
v 0.20335 -0.251409 -0.371753
v 0.213669 -0.242107 -0.369255
v 0.222093 -0.254785 -0.359667
v 0.246367 -0.260786 -0.339158
v 0.263369 -0.264199 -0.32493
v 0.28306 -0.405415 -0.237636
v 0.277913 -0.401364 -0.24701
v 0.295939 -0.360218 -0.250412
v 0.291971 -0.352304 -0.26069
v 0.286107 -0.348328 -0.270802
v 0.292508 -0.321961 -0.276822
v 0.305029 -0.271588 -0.285601
v 0.310688 -0.267312 -0.280367
v 0.306873 -0.254785 -0.290883
v 0.339161 -0.260786 -0.246367
v 0.359671 -0.254785 -0.222075
v 0.369273 -0.242107 -0.213653
v 0.371757 -0.251409 -0.203351
v 0.37442 -0.255835 -0.194262
v 0.379029 -0.25471 -0.183936
v 0.376033 -0.264762 -0.183936
v 0.374395 -0.2702 -0.183936
v 0.368557 -0.287979 -0.183936
v 0.360926 -0.311196 -0.183936
v 0.375496 -0.0222389 -0.254385
v 0.408527 -0.100442 -0.183936
v 0.401844 -0.0954159 -0.201662
v 0.406709 -0.0849513 -0.193025
v 0.402484 -0.0849513 -0.203208
v 0.398745 -0.100517 -0.207491
v 0.385866 -0.16878 -0.215818
v 0.385149 -0.11582 -0.23026
v 0.38584 -0.106968 -0.231354
v 0.374958 -0.146726 -0.237326
v 0.381462 -0.10123 -0.238326
v 0.366815 -0.100404 -0.257597
v 0.339981 -0.0944407 -0.293786
v 0.367942 -0.0849513 -0.259073
v 0.334732 -0.0849513 -0.302351
v 0.335449 -0.0694983 -0.303303
v 0.350325 -0.0231766 -0.287124
v 0.243397 -0.0222389 -0.383911
v 0.243832 -0.0231766 -0.38353
v 0.242757 -0.0540827 -0.382721
v 0.277683 -0.0729489 -0.354932
v 0.253357 -0.0386296 -0.375417
v 0.259067 -0.0849513 -0.367946
v 0.293763 -0.0944407 -0.33999
v 0.275378 -0.100404 -0.353171
v 0.238327 -0.10123 -0.38146
v 0.231362 -0.106968 -0.385862
v 0.168655 -0.0882895 -0.416411
v 0.21349 -0.177595 -0.384863
v 0.205757 -0.177595 -0.388098
v 0.172495 -0.174594 -0.402564
v 0.152293 -0.162142 -0.413104
v 0.175133 -0.162142 -0.403659
v 0.209803 -0.163042 -0.389169
v 0.208471 -0.131273 -0.394118
v 0.22642 -0.146726 -0.382674
v 0.222989 -0.163042 -0.382246
v 0.223911 -0.177595 -0.378581
v 0.216281 -0.23183 -0.370635
v 0.194106 -0.100517 -0.404301
v 0.159052 -0.100404 -0.418838
v 0.152293 -0.0919652 -0.422693
v 0.152293 -0.268025 -0.388217
v 0.243294 -0.405415 -0.278725
v 0.267287 -0.362881 -0.281651
v 0.255252 -0.364382 -0.290145
v 0.25136 -0.405415 -0.272515
v 0.245676 -0.405415 -0.276893
v 0.285569 -0.271588 -0.305063
v 0.281984 -0.301107 -0.296522
v 0.286491 -0.285766 -0.298901
v 0.290844 -0.254785 -0.306871
v 0.296451 -0.2702 -0.296498
v 0.298884 -0.285766 -0.286505
v 0.277657 -0.354667 -0.277654
v 0.152293 -0.260711 -0.390406
v 0.152293 -0.254447 -0.392191
v 0.152293 -0.244996 -0.394546
v 0.152293 -0.239332 -0.39595
v 0.162151 -0.239332 -0.391881
v 0.180791 -0.239332 -0.384173
v 0.193031 -0.239332 -0.379081
v 0.208497 -0.237907 -0.372752
v 0.273099 -0.254785 -0.320528
v 0.231465 -0.246571 -0.355027
v 0.248467 -0.250472 -0.340775
v 0.283137 -0.254785 -0.312819
v 0.280371 -0.267312 -0.310678
v 0.276889 -0.405415 -0.245677
v 0.26954 -0.405415 -0.255194
v 0.274661 -0.395213 -0.255242
v 0.281652 -0.362881 -0.267281
v 0.299166 -0.254785 -0.299186
v 0.308332 -0.245221 -0.292763
v 0.355011 -0.246571 -0.231473
v 0.312813 -0.254785 -0.28315
v 0.326461 -0.254785 -0.265378
v 0.345409 -0.255273 -0.240491
v 0.353757 -0.254785 -0.229808
v 0.370631 -0.23183 -0.21627
v 0.37273 -0.237907 -0.20849
v 0.384867 -0.177595 -0.213486
v 0.37908 -0.239332 -0.193025
v 0.38287 -0.239332 -0.183936
v 0.350351 -0.0222389 -0.287148
v 0.407221 -0.109969 -0.183936
v 0.401152 -0.10573 -0.199972
v 0.396236 -0.11582 -0.208466
v 0.378568 -0.177595 -0.223907
v 0.38223 -0.163042 -0.22298
v 0.382665 -0.146726 -0.226406
v 0.391986 -0.146726 -0.208466
v 0.389169 -0.163042 -0.209799
v 0.401332 -0.152765 -0.183936
v 0.400256 -0.160379 -0.183936
v 0.4 -0.162142 -0.183936
v 0.396953 -0.178382 -0.183936
v 0.393368 -0.177595 -0.193025
v 0.388094 -0.177595 -0.205754
v 0.373703 -0.162142 -0.235685
v 0.342977 -0.131273 -0.282222
v 0.375188 -0.130448 -0.240419
v 0.360056 -0.162142 -0.253481
v 0.340493 -0.162142 -0.278987
v 0.334501 -0.0999168 -0.299805
v 0.325872 -0.100404 -0.310892
v 0.326999 -0.0849513 -0.312344
v 0.327716 -0.0694983 -0.313272
v 0.328125 -0.0540827 -0.313819
v 0.336678 -0.0231766 -0.304897
v 0.261654 -0.0222389 -0.369921
v 0.253895 -0.0231766 -0.375822
v 0.303263 -0.0694983 -0.335446
v 0.313274 -0.0694983 -0.327713
v 0.312352 -0.0849513 -0.327
v 0.302341 -0.0849513 -0.334732
v 0.270257 -0.0386296 -0.36245
v 0.304876 -0.0231766 -0.336683
v 0.310893 -0.100404 -0.325881
v 0.307692 -0.131273 -0.323407
v 0.298372 -0.146726 -0.328094
v 0.263267 -0.142525 -0.355717
v 0.246265 -0.135024 -0.369969
v 0.237328 -0.146726 -0.374941
v 0.23569 -0.162142 -0.373704
v 0.202659 -0.188734 -0.386814
v 0.177591 -0.193048 -0.396212
v 0.167374 -0.193048 -0.400447
v 0.177642 -0.178907 -0.399447
v 0.152293 -0.177482 -0.410273
v 0.152293 -0.146726 -0.415246
v 0.15324 -0.135399 -0.416435
v 0.162151 -0.146726 -0.411177
v 0.184556 -0.152127 -0.40116
v 0.233513 -0.177595 -0.372015
v 0.230184 -0.196611 -0.369469
v 0.228085 -0.208501 -0.367875
v 0.152293 -0.100404 -0.421622
v 0.255201 -0.405415 -0.269541
v 0.292739 -0.245221 -0.308347
v 0.264982 -0.405415 -0.260905
v 0.263651 -0.403689 -0.263641
v 0.260911 -0.405415 -0.264973
v 0.152293 -0.223879 -0.399543
v 0.161843 -0.209138 -0.399019
v 0.189421 -0.208501 -0.387742
v 0.199791 -0.199011 -0.385624
v 0.268311 -0.239332 -0.328713
v 0.248595 -0.193048 -0.356312
v 0.308409 -0.199612 -0.308418
v 0.309715 -0.234944 -0.294571
v 0.321007 -0.208501 -0.28917
v 0.323977 -0.23048 -0.277583
v 0.351017 -0.24057 -0.238801
v 0.340775 -0.250472 -0.248461
v 0.369478 -0.196611 -0.230189
v 0.370861 -0.186296 -0.231997
v 0.372013 -0.177595 -0.233496
v 0.371604 -0.223879 -0.217674
v 0.386813 -0.188734 -0.202661
v 0.385635 -0.199011 -0.199782
v 0.384534 -0.208501 -0.197141
v 0.390014 -0.208501 -0.183936
v 0.336703 -0.0222389 -0.30492
v 0.403354 -0.138099 -0.183936
v 0.391345 -0.202725 -0.183936
v 0.389297 -0.193535 -0.194
v 0.339802 -0.170243 -0.278083
v 0.329329 -0.131273 -0.299995
v 0.320905 -0.162142 -0.304468
v 0.322159 -0.146726 -0.306086
v 0.324925 -0.112219 -0.309679
v 0.324105 -0.122496 -0.308608
v 0.313172 -0.162142 -0.313176
v 0.32006 -0.0849513 -0.320076
v 0.321007 -0.0694983 -0.321004
v 0.322595 -0.0231766 -0.322598
v 0.328612 -0.0222389 -0.315365
v 0.32897 -0.0222389 -0.314913
v 0.297194 -0.0222389 -0.342631
v 0.313812 -0.0540827 -0.328142
v 0.322057 -0.0386296 -0.322075
v 0.30444 -0.0222389 -0.337064
v 0.314299 -0.0222389 -0.32945
v 0.314887 -0.0231766 -0.328951
v 0.306079 -0.146726 -0.32217
v 0.278989 -0.162142 -0.34049
v 0.278092 -0.170243 -0.3398
v 0.152293 -0.193048 -0.40668
v 0.152293 -0.127072 -0.417958
v 0.152293 -0.11582 -0.419504
v 0.270795 -0.176282 -0.343797
v 0.302418 -0.19391 -0.314723
v 0.27758 -0.23048 -0.323978
v 0.293276 -0.184984 -0.324168
v 0.271563 -0.224779 -0.33014
v 0.300574 -0.178945 -0.320171
v 0.30992 -0.189334 -0.309917
v 0.320188 -0.178945 -0.30059
v 0.314708 -0.19391 -0.302422
v 0.3133 -0.208501 -0.299163
v 0.325565 -0.174707 -0.295094
v 0.326948 -0.208501 -0.281437
v 0.342669 -0.193048 -0.266377
v 0.331992 -0.177632 -0.285696
v 0.343796 -0.176282 -0.270778
v 0.366098 -0.177595 -0.241228
v 0.311508 -0.177595 -0.311511
v 0.30444 -0.162142 -0.320909
v 0.322159 -0.0222389 -0.323003
v 0.32262 -0.0222389 -0.322622
v 0.314913 -0.0222389 -0.328974
v 0.295069 -0.174707 -0.325548
v 0.281447 -0.208501 -0.326928
f 1 2 5
f 1 5 12
f 1 12 23
f 1 23 36
f 1 36 64
f 1 64 110
f 1 110 172
f 1 172 256
f 1 256 260
f 1 260 259
f 1 259 351
f 1 351 355
f 1 355 353
f 1 353 282
f 1 282 281
f 1 281 194
f 1 194 128
f 1 128 127
f 1 127 76
f 1 76 41
f 1 41 24
f 1 24 13
f 1 13 6
f 1 6 3
f 1 3 8
f 1 8 15
f 1 15 32
f 1 32 60
f 1 60 107
f 1 107 170
f 1 170 254
f 1 254 350
f 1 350 403
f 1 403 402
f 1 402 343
f 1 343 244
f 1 244 342
f 1 342 401
f 1 401 356
f 1 356 271
f 1 271 270
f 1 270 269
f 1 269 268
f 1 268 255
f 1 255 171
f 1 171 108
f 1 108 61
f 1 61 33
f 1 33 17
f 1 17 16
f 1 16 9
f 1 9 4
f 1 4 2
f 2 4 5
f 3 6 7
f 3 7 8
f 4 9 10
f 4 10 5
f 5 11 12
f 5 10 11
f 6 13 26
f 6 26 43
f 6 43 79
f 6 79 88
f 6 88 89
f 6 89 146
f 6 146 212
f 6 212 211
f 6 211 210
f 6 210 209
f 6 209 208
f 6 208 296
f 6 296 375
f 6 375 378
f 6 378 309
f 6 309 308
f 6 308 307
f 6 307 306
f 6 306 377
f 6 377 298
f 6 298 214
f 6 214 150
f 6 150 149
f 6 149 98
f 6 98 51
f 6 51 28
f 6 28 14
f 6 14 7
f 7 14 27
f 7 27 48
f 7 48 91
f 7 91 147
f 7 147 213
f 7 213 297
f 7 297 376
f 7 376 391
f 7 391 390
f 7 390 423
f 7 423 422
f 7 422 424
f 7 424 396
f 7 396 395
f 7 395 392
f 7 392 323
f 7 323 230
f 7 230 157
f 7 157 100
f 7 100 53
f 7 53 30
f 7 30 15
f 7 15 8
f 9 16 10
f 10 16 17
f 10 17 18
f 10 18 19
f 10 19 11
f 11 20 12
f 11 19 21
f 11 21 22
f 11 22 20
f 12 20 23
f 13 24 25
f 13 25 26
f 14 28 29
f 14 29 27
f 15 30 31
f 15 31 32
f 17 33 34
f 17 34 18
f 18 34 21
f 18 21 19
f 20 35 36
f 20 36 23
f 20 22 37
f 20 37 38
f 20 38 39
f 20 39 35
f 21 34 40
f 21 40 37
f 21 37 22
f 24 41 42
f 24 42 25
f 25 43 26
f 25 42 44
f 25 44 45
f 25 45 46
f 25 46 47
f 25 47 43
f 27 29 49
f 27 49 50
f 27 50 48
f 28 51 29
f 29 51 52
f 29 52 49
f 30 53 54
f 30 54 55
f 30 55 56
f 30 56 57
f 30 57 58
f 30 58 31
f 31 58 32
f 32 58 57
f 32 57 59
f 32 59 60
f 33 61 34
f 34 61 40
f 35 62 63
f 35 63 36
f 35 39 62
f 36 63 64
f 37 39 38
f 37 40 65
f 37 65 39
f 39 66 67
f 39 67 68
f 39 68 69
f 39 69 70
f 39 70 62
f 39 65 71
f 39 71 72
f 39 72 66
f 40 61 73
f 40 73 74
f 40 74 75
f 40 75 71
f 40 71 65
f 41 76 77
f 41 77 42
f 42 78 44
f 42 77 78
f 43 47 79
f 44 80 46
f 44 46 45
f 44 78 81
f 44 81 82
f 44 82 83
f 44 83 84
f 44 84 85
f 44 85 86
f 44 86 87
f 44 87 80
f 46 88 47
f 46 80 89
f 46 89 88
f 47 88 79
f 48 90 91
f 48 50 92
f 48 92 93
f 48 93 90
f 49 52 94
f 49 94 95
f 49 95 50
f 50 95 96
f 50 96 97
f 50 97 92
f 51 98 99
f 51 99 94
f 51 94 52
f 53 100 101
f 53 101 54
f 54 102 55
f 54 101 102
f 55 102 103
f 55 103 104
f 55 104 56
f 56 104 105
f 56 105 106
f 56 106 57
f 57 106 59
f 59 106 60
f 60 106 107
f 61 108 109
f 61 109 73
f 62 110 64
f 62 64 63
f 62 70 111
f 62 111 112
f 62 112 110
f 66 72 67
f 67 72 113
f 67 113 114
f 67 114 68
f 68 114 69
f 69 114 115
f 69 115 116
f 69 116 117
f 69 117 70
f 70 117 118
f 70 118 112
f 70 112 111
f 71 119 120
f 71 120 121
f 71 121 122
f 71 122 123
f 71 123 124
f 71 124 72
f 71 75 119
f 72 124 125
f 72 125 126
f 72 126 113
f 73 109 74
f 74 109 119
f 74 119 75
f 76 127 77
f 77 127 128
f 77 128 129
f 77 129 78
f 78 129 130
f 78 130 131
f 78 131 81
f 80 87 89
f 81 132 133
f 81 133 82
f 81 131 130
f 81 130 132
f 82 133 134
f 82 134 83
f 83 134 84
f 84 134 135
f 84 135 136
f 84 136 86
f 84 86 85
f 86 136 137
f 86 137 138
f 86 138 139
f 86 139 140
f 86 140 141
f 86 141 87
f 87 141 142
f 87 142 143
f 87 143 144
f 87 144 145
f 87 145 146
f 87 146 89
f 90 147 91
f 90 93 147
f 92 97 148
f 92 148 93
f 93 148 147
f 94 99 149
f 94 149 95
f 95 149 150
f 95 150 151
f 95 151 96
f 96 151 152
f 96 152 153
f 96 153 154
f 96 154 97
f 97 155 156
f 97 156 148
f 97 154 155
f 98 149 99
f 100 157 101
f 101 157 158
f 101 158 102
f 102 159 103
f 102 158 159
f 103 159 160
f 103 160 161
f 103 161 104
f 104 161 162
f 104 162 163
f 104 163 105
f 105 164 106
f 105 163 165
f 105 165 166
f 105 166 167
f 105 167 164
f 106 168 169
f 106 169 170
f 106 170 107
f 106 164 168
f 108 171 109
f 109 171 119
f 110 112 172
f 112 118 173
f 112 173 174
f 112 174 175
f 112 175 172
f 113 126 114
f 114 176 115
f 114 126 176
f 115 176 116
f 116 176 177
f 116 177 178
f 116 178 179
f 116 179 180
f 116 180 181
f 116 181 117
f 117 181 173
f 117 173 118
f 119 171 182
f 119 182 120
f 120 171 183
f 120 183 121
f 120 182 171
f 121 183 184
f 121 184 185
f 121 185 186
f 121 186 187
f 121 187 188
f 121 188 189
f 121 189 190
f 121 190 122
f 122 124 123
f 122 190 124
f 124 190 191
f 124 191 192
f 124 192 193
f 124 193 125
f 125 193 126
f 126 193 176
f 128 194 195
f 128 195 129
f 129 196 130
f 129 195 196
f 130 196 197
f 130 197 132
f 132 197 133
f 133 197 198
f 133 198 180
f 133 180 134
f 134 199 135
f 134 180 179
f 134 179 178
f 134 178 199
f 135 199 136
f 136 199 137
f 137 200 201
f 137 201 138
f 137 199 200
f 138 201 202
f 138 202 203
f 138 203 140
f 138 140 139
f 140 142 141
f 140 203 204
f 140 204 205
f 140 205 142
f 142 205 143
f 143 205 206
f 143 206 207
f 143 207 208
f 143 208 209
f 143 209 210
f 143 210 144
f 144 210 211
f 144 211 212
f 144 212 145
f 145 212 146
f 147 148 156
f 147 156 213
f 150 214 215
f 150 215 216
f 150 216 217
f 150 217 151
f 151 217 215
f 151 215 218
f 151 218 219
f 151 219 152
f 152 219 220
f 152 220 221
f 152 221 154
f 152 154 153
f 154 221 222
f 154 222 223
f 154 223 224
f 154 224 225
f 154 225 155
f 155 226 156
f 155 225 226
f 156 226 227
f 156 227 228
f 156 228 229
f 156 229 213
f 157 230 158
f 158 230 231
f 158 231 232
f 158 232 159
f 159 233 160
f 159 232 234
f 159 234 233
f 160 233 235
f 160 235 236
f 160 236 161
f 161 236 237
f 161 237 238
f 161 238 239
f 161 239 162
f 162 239 163
f 163 239 165
f 164 167 240
f 164 240 168
f 165 241 242
f 165 242 243
f 165 243 244
f 165 244 245
f 165 245 246
f 165 246 247
f 165 247 166
f 165 239 248
f 165 248 249
f 165 249 250
f 165 250 251
f 165 251 241
f 166 247 252
f 166 252 167
f 167 252 253
f 167 253 240
f 168 240 169
f 169 240 170
f 170 240 254
f 171 255 183
f 172 175 256
f 173 181 257
f 173 257 174
f 174 257 258
f 174 258 175
f 175 259 260
f 175 260 256
f 175 258 257
f 175 257 259
f 176 193 261
f 176 261 177
f 177 261 262
f 177 262 263
f 177 263 178
f 178 263 261
f 178 261 264
f 178 264 265
f 178 265 202
f 178 202 200
f 178 200 266
f 178 266 199
f 180 198 267
f 180 267 181
f 181 267 257
f 183 255 268
f 183 268 184
f 184 268 269
f 184 269 185
f 185 269 187
f 185 187 186
f 187 270 271
f 187 271 272
f 187 272 273
f 187 273 274
f 187 274 189
f 187 189 188
f 187 269 270
f 189 274 275
f 189 275 251
f 189 251 190
f 190 251 191
f 191 276 192
f 191 251 277
f 191 277 278
f 191 278 276
f 192 276 279
f 192 279 193
f 193 279 264
f 193 264 280
f 193 280 261
f 194 281 195
f 195 281 282
f 195 282 283
f 195 283 284
f 195 284 196
f 196 284 197
f 197 284 198
f 198 284 267
f 199 266 200
f 200 202 201
f 202 285 286
f 202 286 287
f 202 287 288
f 202 288 203
f 202 265 285
f 203 288 289
f 203 289 290
f 203 290 291
f 203 291 204
f 204 287 292
f 204 292 205
f 204 291 287
f 205 292 206
f 206 292 293
f 206 293 294
f 206 294 295
f 206 295 208
f 206 208 207
f 208 295 296
f 213 229 297
f 214 298 299
f 214 299 218
f 214 218 215
f 215 217 216
f 218 299 300
f 218 300 219
f 219 301 302
f 219 302 303
f 219 303 220
f 219 300 304
f 219 304 305
f 219 305 306
f 219 306 307
f 219 307 308
f 219 308 309
f 219 309 310
f 219 310 311
f 219 311 294
f 219 294 292
f 219 292 301
f 220 303 312
f 220 312 221
f 221 312 222
f 222 313 224
f 222 224 314
f 222 314 223
f 222 312 315
f 222 315 316
f 222 316 313
f 223 314 224
f 224 317 225
f 224 313 317
f 225 317 318
f 225 318 319
f 225 319 227
f 225 227 226
f 227 319 228
f 228 319 320
f 228 320 321
f 228 321 322
f 228 322 229
f 229 322 376
f 229 376 297
f 230 323 324
f 230 324 231
f 231 324 234
f 231 234 232
f 233 325 326
f 233 326 327
f 233 327 328
f 233 328 235
f 233 234 329
f 233 329 330
f 233 330 325
f 234 324 323
f 234 323 329
f 235 328 236
f 236 331 237
f 236 328 327
f 236 327 331
f 237 331 332
f 237 332 333
f 237 333 334
f 237 334 335
f 237 335 238
f 238 335 336
f 238 336 239
f 239 336 337
f 239 337 248
f 240 253 254
f 241 338 242
f 241 251 275
f 241 275 274
f 241 274 338
f 242 338 339
f 242 339 340
f 242 340 341
f 242 341 243
f 243 341 342
f 243 342 244
f 244 343 344
f 244 344 345
f 244 345 346
f 244 346 245
f 245 346 246
f 246 346 247
f 247 346 252
f 248 337 249
f 249 337 347
f 249 347 250
f 250 347 251
f 251 348 349
f 251 349 277
f 251 347 348
f 252 346 344
f 252 344 253
f 253 350 254
f 253 344 350
f 257 267 351
f 257 351 259
f 261 280 264
f 261 263 262
f 264 279 352
f 264 352 265
f 265 352 285
f 267 284 282
f 267 282 353
f 267 353 354
f 267 354 355
f 267 355 351
f 271 356 272
f 272 356 357
f 272 357 273
f 273 357 358
f 273 358 274
f 274 358 359
f 274 359 338
f 276 278 279
f 277 360 352
f 277 352 278
f 277 349 348
f 277 348 361
f 277 361 360
f 278 352 279
f 282 284 283
f 285 352 362
f 285 362 286
f 286 362 363
f 286 363 364
f 286 364 365
f 286 365 366
f 286 366 287
f 287 291 367
f 287 367 288
f 287 366 368
f 287 368 292
f 288 367 289
f 289 367 290
f 290 367 291
f 292 368 369
f 292 369 370
f 292 370 371
f 292 371 301
f 292 294 293
f 294 311 372
f 294 372 373
f 294 373 374
f 294 374 295
f 295 374 296
f 296 374 375
f 298 377 299
f 299 377 304
f 299 304 300
f 301 370 302
f 301 371 370
f 302 370 312
f 302 312 303
f 304 377 306
f 304 306 305
f 309 378 379
f 309 379 372
f 309 372 310
f 310 372 311
f 312 370 380
f 312 380 315
f 313 381 317
f 313 316 381
f 315 380 316
f 316 380 382
f 316 382 383
f 316 383 381
f 317 384 318
f 317 381 385
f 317 385 384
f 318 384 386
f 318 386 387
f 318 387 319
f 319 387 388
f 319 388 320
f 320 388 389
f 320 389 321
f 321 389 390
f 321 390 391
f 321 391 322
f 322 391 376
f 323 392 329
f 325 393 326
f 325 330 393
f 326 388 327
f 326 393 389
f 326 389 394
f 326 394 388
f 327 388 387
f 327 387 331
f 329 392 330
f 330 392 395
f 330 395 396
f 330 396 397
f 330 397 393
f 331 386 332
f 331 387 386
f 332 398 333
f 332 386 398
f 333 398 399
f 333 399 334
f 334 399 336
f 334 336 335
f 336 399 337
f 337 399 400
f 337 400 347
f 338 359 358
f 338 358 339
f 339 358 340
f 340 342 341
f 340 358 357
f 340 357 342
f 342 357 401
f 343 402 344
f 344 402 403
f 344 403 350
f 344 346 345
f 347 400 404
f 347 404 348
f 348 404 361
f 352 405 362
f 352 360 406
f 352 406 407
f 352 407 405
f 353 355 354
f 356 401 357
f 360 408 406
f 360 361 408
f 361 404 408
f 362 405 409
f 362 409 410
f 362 410 411
f 362 411 412
f 362 412 363
f 363 412 413
f 363 413 411
f 363 411 414
f 363 414 364
f 364 415 365
f 364 414 415
f 365 415 366
f 366 415 368
f 368 415 416
f 368 416 417
f 368 417 369
f 369 417 418
f 369 418 419
f 369 419 370
f 370 419 380
f 372 379 373
f 373 375 374
f 373 379 375
f 375 379 378
f 380 419 418
f 380 418 414
f 380 414 382
f 381 383 385
f 382 414 411
f 382 411 420
f 382 420 386
f 382 386 383
f 383 386 385
f 384 385 386
f 386 420 421
f 386 421 398
f 388 394 389
f 389 397 422
f 389 422 423
f 389 423 390
f 389 393 397
f 396 424 397
f 397 424 422
f 398 421 399
f 399 421 400
f 400 421 425
f 400 425 404
f 404 425 407
f 404 407 426
f 404 426 408
f 405 407 409
f 406 408 426
f 406 426 407
f 407 425 409
f 409 425 421
f 409 421 420
f 409 420 410
f 410 420 411
f 411 413 412
f 414 418 417
f 414 417 415
f 415 417 416
