v -0.408806 -0.0222776 0.196158
v -0.400996 -0.0222776 0.215013
v -0.337044 -0.0222776 0.196158
v -0.407355 -0.0540481 0.196158
v -0.396716 -0.0222776 0.22383
v -0.400271 -0.0540481 0.213259
v -0.395121 -0.0540481 0.223919
v -0.161822 -0.0222776 0.352816
v -0.161822 -0.418013 0.244195
v -0.217892 -0.418013 0.196158
v -0.406823 -0.0656326 0.196158
v -0.396233 -0.0222776 0.224674
v -0.399908 -0.0695071 0.212415
v -0.394347 -0.0695071 0.223919
v -0.388206 -0.0695071 0.234512
v -0.161822 -0.0222776 0.423039
v -0.161822 -0.418013 0.32701
v -0.30832 -0.418013 0.196158
v -0.40663 -0.0695071 0.196158
v -0.389415 -0.0231688 0.236111
v -0.389439 -0.0222776 0.236133
v -0.388617 -0.0540481 0.235045
v -0.399304 -0.0849661 0.210927
v -0.393017 -0.0849661 0.223919
v -0.38748 -0.0849661 0.233557
v -0.381581 -0.0849661 0.241286
v -0.354936 -0.0729553 0.277663
v -0.382306 -0.0695071 0.242218
v -0.383563 -0.0222776 0.243862
v -0.161822 -0.0383178 0.422306
v -0.207374 -0.0222776 0.404162
v -0.212427 -0.0695071 0.39992
v -0.161822 -0.417819 0.327099
v -0.16216 -0.418013 0.326877
v -0.307159 -0.418013 0.197713
v -0.308924 -0.416967 0.196158
v -0.405735 -0.0807817 0.196158
v -0.3891 -0.0222776 0.2366
v -0.402495 -0.0849661 0.203198
v -0.401867 -0.0954271 0.201666
v -0.398747 -0.100503 0.207484
v -0.385884 -0.16877 0.215813
v -0.38661 -0.158503 0.217212
v -0.386658 -0.0966669 0.232469
v -0.390067 -0.101239 0.225296
v -0.367944 -0.0849661 0.259074
v -0.339994 -0.0944198 0.293786
v -0.368669 -0.0695071 0.260007
v -0.360231 -0.0849661 0.269135
v -0.334723 -0.0849661 0.302359
v -0.32701 -0.0849661 0.312352
v -0.327735 -0.0695071 0.313285
v -0.335448 -0.0695071 0.303291
v -0.336246 -0.0222776 0.305534
v -0.369927 -0.0222776 0.261651
v -0.383104 -0.0222776 0.244461
v -0.16216 -0.0695071 0.420729
v -0.161822 -0.0691584 0.420885
v -0.215015 -0.0222776 0.400986
v -0.223912 -0.0695071 0.394368
v -0.223912 -0.0849661 0.393035
v -0.210928 -0.0849661 0.399298
v -0.170091 -0.0779921 0.416998
v -0.22384 -0.0222776 0.396722
v -0.169897 -0.416928 0.324278
v -0.161822 -0.40887 0.331118
v -0.16731 -0.418013 0.324811
v -0.292217 -0.418013 0.217323
v -0.293498 -0.417122 0.216346
v -0.307739 -0.41472 0.199334
v -0.31156 -0.411775 0.196158
v -0.405397 -0.0849661 0.196158
v -0.403632 -0.0991078 0.196158
v -0.403196 -0.102362 0.196158
v -0.400464 -0.115845 0.19829
v -0.396233 -0.115845 0.208484
v -0.378583 -0.177604 0.223919
v -0.382233 -0.163036 0.222986
v -0.382669 -0.146725 0.226406
v -0.38586 -0.106973 0.231358
v -0.391977 -0.146725 0.208484
v -0.397079 -0.146841 0.196158
v -0.394903 -0.162339 0.196158
v -0.392582 -0.174892 0.196158
v -0.392074 -0.177604 0.196158
v -0.388109 -0.177604 0.205752
v -0.384869 -0.177604 0.213481
v -0.370652 -0.231808 0.216279
v -0.374956 -0.146725 0.23731
v -0.38146 -0.101239 0.23831
v -0.353171 -0.100386 0.275375
v -0.357862 -0.115845 0.266048
v -0.322174 -0.146725 0.306112
v -0.324108 -0.122509 0.308621
v -0.325873 -0.100386 0.310887
v -0.32007 -0.0849661 0.320081
v -0.321013 -0.0695071 0.320991
v -0.328146 -0.0540481 0.313818
v -0.322633 -0.0222776 0.322635
v -0.328944 -0.0231688 0.314884
v -0.328968 -0.0222776 0.314906
v -0.161822 -0.0695071 0.420862
v -0.234502 -0.0695071 0.388194
v -0.233559 -0.0849661 0.387483
v -0.232471 -0.0966669 0.386662
v -0.22529 -0.101239 0.390059
v -0.21869 -0.146725 0.387417
v -0.217215 -0.158464 0.386595
v -0.215812 -0.16877 0.385884
v -0.207471 -0.100503 0.398743
v -0.201668 -0.0954271 0.401852
v -0.168664 -0.0882981 0.416421
v -0.161822 -0.0839588 0.419752
v -0.161822 -0.0828352 0.419841
v -0.236147 -0.0222776 0.389438
v -0.235034 -0.0540481 0.388616
v -0.176063 -0.407785 0.325677
v -0.185468 -0.401702 0.324367
v -0.180197 -0.412008 0.32188
v -0.178916 -0.418013 0.319392
v -0.170985 -0.418013 0.32319
v -0.161822 -0.378029 0.344421
v -0.178263 -0.363577 0.343844
v -0.279595 -0.418013 0.233757
v -0.275945 -0.40918 0.244439
v -0.310326 -0.404453 0.20271
v -0.325777 -0.373612 0.202732
v -0.323189 -0.383879 0.19929
v -0.320917 -0.393023 0.196158
v -0.37203 -0.177604 0.233513
v -0.373698 -0.162145 0.235689
v -0.386368 -0.202323 0.196158
v -0.386827 -0.188724 0.202643
v -0.38424 -0.211505 0.196158
v -0.377809 -0.239053 0.196158
v -0.372731 -0.237929 0.208506
v -0.371764 -0.251412 0.203354
v -0.369274 -0.242114 0.213658
v -0.359675 -0.254783 0.222098
v -0.362842 -0.239208 0.223874
v -0.37087 -0.186322 0.23198
v -0.369032 -0.146725 0.245039
v -0.365574 -0.115845 0.255988
v -0.354138 -0.162145 0.261184
v -0.32684 -0.162145 0.296762
v -0.320892 -0.162145 0.304468
v -0.31318 -0.162145 0.313174
v -0.312357 -0.0849661 0.32701
v -0.310883 -0.100386 0.325877
v -0.313276 -0.0695071 0.327721
v -0.328605 -0.0222776 0.315373
v -0.322174 -0.0222776 0.323012
v -0.313808 -0.0540481 0.328143
v -0.242215 -0.0695071 0.382309
v -0.241297 -0.0849661 0.381598
v -0.29374 -0.0944198 0.340002
v -0.24988 -0.100386 0.372737
v -0.238323 -0.101239 0.381465
v -0.231359 -0.106973 0.385862
v -0.213467 -0.177604 0.384863
v -0.205754 -0.177604 0.388105
v -0.172509 -0.174621 0.402563
v -0.16216 -0.162145 0.409025
v -0.18455 -0.15211 0.401164
v -0.208486 -0.146725 0.391992
v -0.208486 -0.115845 0.396233
v -0.222993 -0.163036 0.382242
v -0.223912 -0.177604 0.378578
v -0.216272 -0.231808 0.370649
v -0.177586 -0.100386 0.411157
v -0.161822 -0.100386 0.417687
v -0.2434 -0.0222776 0.383908
v -0.243835 -0.0231688 0.38353
v -0.243303 -0.0386278 0.38313
v -0.177586 -0.393759 0.331096
v -0.199298 -0.383879 0.32319
v -0.192408 -0.408211 0.316106
v -0.18999 -0.418013 0.312885
v -0.185565 -0.418013 0.315639
v -0.183848 -0.369156 0.339091
v -0.188612 -0.358889 0.341312
v -0.193471 -0.347692 0.343733
v -0.198912 -0.353039 0.338669
v -0.202659 -0.342733 0.341068
v -0.202732 -0.373612 0.325788
v -0.161822 -0.362492 0.351106
v -0.161822 -0.362337 0.351173
v -0.166488 -0.351799 0.353749
v -0.177127 -0.346956 0.35135
v -0.265765 -0.418013 0.251612
v -0.267748 -0.408986 0.255188
v -0.274663 -0.395232 0.255232
v -0.276549 -0.383182 0.260673
v -0.321835 -0.365747 0.213037
v -0.327735 -0.361485 0.208128
v -0.341057 -0.342733 0.202643
v -0.338664 -0.353039 0.198912
v -0.324011 -0.386669 0.196158
v -0.324181 -0.185004 0.293298
v -0.35247 -0.177604 0.259008
v -0.325559 -0.174698 0.295096
v -0.3398 -0.170243 0.278085
v -0.384941 -0.208483 0.196158
v -0.373868 -0.254938 0.196158
v -0.373142 -0.257728 0.196158
v -0.370386 -0.261718 0.200245
v -0.367896 -0.255868 0.208506
v -0.356991 -0.270203 0.218589
v -0.34541 -0.255287 0.240486
v -0.334964 -0.255287 0.2541
v -0.355008 -0.246569 0.231469
v -0.339171 -0.260788 0.246371
v -0.308344 -0.245252 0.292765
v -0.339607 -0.215806 0.262384
v -0.320167 -0.17896 0.300582
v -0.311511 -0.177604 0.311508
v -0.304451 -0.162145 0.320903
v -0.306095 -0.146725 0.322168
v -0.30861 -0.122509 0.324101
v -0.276839 -0.0849661 0.354304
v -0.277661 -0.0729553 0.354926
v -0.299785 -0.0999215 0.334494
v -0.303266 -0.0695071 0.335449
v -0.314872 -0.0231688 0.328964
v -0.314896 -0.0222776 0.328986
v -0.314316 -0.0222776 0.329453
v -0.260011 -0.0695071 0.368673
v -0.275364 -0.100386 0.353171
v -0.273768 -0.115845 0.351928
v -0.280611 -0.146725 0.341734
v -0.239362 -0.115845 0.378333
v -0.237307 -0.146725 0.374958
v -0.235687 -0.162145 0.373692
v -0.228337 -0.131266 0.383908
v -0.199782 -0.19903 0.38564
v -0.208486 -0.237929 0.372737
v -0.193036 -0.239324 0.379089
v -0.194003 -0.193528 0.389304
v -0.161822 -0.178689 0.406049
v -0.161822 -0.162145 0.409159
v -0.161822 -0.16168 0.409225
v -0.161822 -0.146299 0.411379
v -0.161822 -0.142269 0.411935
v -0.161822 -0.131459 0.413423
v -0.161822 -0.126616 0.414089
v -0.161822 -0.108678 0.416554
v -0.233511 -0.177604 0.372026
v -0.226403 -0.146725 0.382664
v -0.228095 -0.208483 0.367873
v -0.238033 -0.192094 0.364675
v -0.23148 -0.246569 0.355015
v -0.222099 -0.254783 0.359678
v -0.213661 -0.242114 0.369272
v -0.20336 -0.251412 0.37176
v -0.253313 -0.0222776 0.376312
v -0.253894 -0.0231688 0.375824
v -0.279426 -0.0222776 0.356281
v -0.199323 -0.41472 0.307755
v -0.197703 -0.418013 0.307178
v -0.181962 -0.335488 0.353749
v -0.191924 -0.330993 0.350839
v -0.200411 -0.308405 0.354992
v -0.216514 -0.278572 0.355392
v -0.205537 -0.331962 0.343089
v -0.21325 -0.331962 0.337448
v -0.229957 -0.336301 0.322968
v -0.246954 -0.33944 0.308755
v -0.208075 -0.347692 0.334583
v -0.208124 -0.361485 0.327721
v -0.213032 -0.365747 0.321835
v -0.213008 -0.396588 0.306401
v -0.161822 -0.347111 0.357635
v -0.171662 -0.341532 0.355903
v -0.263033 -0.418013 0.254944
v -0.260615 -0.413984 0.260607
v -0.263638 -0.403678 0.263649
v -0.277661 -0.354666 0.277663
v -0.281651 -0.36288 0.267269
v -0.310181 -0.357843 0.233402
v -0.324423 -0.355441 0.21639
v -0.334578 -0.347692 0.208062
v -0.353026 -0.319331 0.196158
v -0.342943 -0.34622 0.196158
v -0.341227 -0.350327 0.196158
v -0.308731 -0.33944 0.246949
v -0.322972 -0.336301 0.229937
v -0.337455 -0.331962 0.213236
v -0.343088 -0.331962 0.20553
v -0.355395 -0.278572 0.216501
v -0.355008 -0.308405 0.200422
v -0.339365 -0.354589 0.196158
v -0.3376 -0.358347 0.196158
v -0.314727 -0.193915 0.302425
v -0.371063 -0.264857 0.196158
v -0.369008 -0.270203 0.196935
v -0.363108 -0.270203 0.208484
v -0.351067 -0.270203 0.226317
v -0.32493 -0.264198 0.263383
v -0.306893 -0.254783 0.290877
v -0.296472 -0.270203 0.296496
v -0.299156 -0.254783 0.299183
v -0.308416 -0.199611 0.308444
v -0.309915 -0.189305 0.309909
v -0.300558 -0.17896 0.32017
v -0.29507 -0.174698 0.325544
v -0.278096 -0.170243 0.339802
v -0.296738 -0.162145 0.326832
v -0.278967 -0.162145 0.34049
v -0.284189 -0.0684997 0.350173
v -0.295553 -0.0695071 0.341379
v -0.304451 -0.0222776 0.337048
v -0.253483 -0.162145 0.360056
v -0.245044 -0.146725 0.369028
v -0.161822 -0.239324 0.392036
v -0.161822 -0.209103 0.399032
v -0.170574 -0.248158 0.386328
v -0.251307 -0.177604 0.35839
v -0.26238 -0.215806 0.339602
v -0.238806 -0.240564 0.351017
v -0.292749 -0.245252 0.308355
v -0.248478 -0.250482 0.340779
v -0.290863 -0.254783 0.306911
v -0.246374 -0.260788 0.339158
v -0.218593 -0.270203 0.356991
v -0.208486 -0.255868 0.367895
v -0.200241 -0.261718 0.370383
v -0.194269 -0.255868 0.374425
v -0.216344 -0.417122 0.29352
v -0.215039 -0.418013 0.293986
v -0.161822 -0.332001 0.363232
v -0.161822 -0.331613 0.363365
v -0.177127 -0.330993 0.357235
v -0.186049 -0.325182 0.355459
v -0.189458 -0.316542 0.35688
v -0.196929 -0.270203 0.369006
v -0.208486 -0.270203 0.363121
v -0.244101 -0.270203 0.337426
v -0.275799 -0.285662 0.3072
v -0.270166 -0.302477 0.30509
v -0.215522 -0.322896 0.33918
v -0.274325 -0.331962 0.29061
v -0.263952 -0.341997 0.294497
v -0.255248 -0.347266 0.298628
v -0.260688 -0.352303 0.29201
v -0.216393 -0.355441 0.324412
v -0.250412 -0.360207 0.295963
v -0.247003 -0.401353 0.277907
v -0.161822 -0.346878 0.357724
v -0.161822 -0.342384 0.35939
v -0.259189 -0.418013 0.259186
v -0.251621 -0.418013 0.265759
v -0.255199 -0.408986 0.267758
v -0.264024 -0.372876 0.279129
v -0.267264 -0.36288 0.281638
v -0.270819 -0.348351 0.286124
v -0.280248 -0.344399 0.280261
v -0.2861 -0.348351 0.270801
v -0.291975 -0.352303 0.260696
v -0.326381 -0.347421 0.218944
v -0.353727 -0.317316 0.196158
v -0.294489 -0.341997 0.26396
v -0.290573 -0.331962 0.274309
v -0.292507 -0.321966 0.276819
v -0.329041 -0.331497 0.224452
v -0.339196 -0.322896 0.215502
v -0.322972 -0.305422 0.245372
v -0.355734 -0.311544 0.196158
v -0.369322 -0.270203 0.196158
v -0.308706 -0.277603 0.277818
v -0.310665 -0.267336 0.280372
v -0.30508 -0.302477 0.270156
v -0.305031 -0.271559 0.285591
v -0.294441 -0.280664 0.294475
v -0.302396 -0.193915 0.314706
v -0.291854 -0.193024 0.323101
v -0.276283 -0.180549 0.338425
v -0.161822 -0.253621 0.388483
v -0.167238 -0.258425 0.384952
v -0.260954 -0.223904 0.338514
v -0.285568 -0.271559 0.305068
v -0.280369 -0.267336 0.310687
v -0.263372 -0.264198 0.324922
v -0.189216 -0.270203 0.372204
v -0.177586 -0.270203 0.377023
v -0.161822 -0.270281 0.38353
v -0.233753 -0.418013 0.279595
v -0.236727 -0.40918 0.28186
v -0.161822 -0.317278 0.368095
v -0.17703 -0.284539 0.372559
v -0.25532 -0.2697 0.329009
v -0.276815 -0.321966 0.29252
v -0.292193 -0.29097 0.292209
v -0.255223 -0.395232 0.274665
v -0.298866 -0.28574 0.286502
v -0.281989 -0.301083 0.296518
v -0.286486 -0.28574 0.298894
v -0.161822 -0.25455 0.388216
v -0.161822 -0.270552 0.383441
v -0.161822 -0.285314 0.3786
f 1 2 5
f 1 5 12
f 1 12 21
f 1 21 38
f 1 38 29
f 1 29 56
f 1 56 55
f 1 55 54
f 1 54 101
f 1 101 151
f 1 151 99
f 1 99 152
f 1 152 225
f 1 225 226
f 1 226 311
f 1 311 257
f 1 257 255
f 1 255 172
f 1 172 115
f 1 115 64
f 1 64 59
f 1 59 31
f 1 31 16
f 1 16 8
f 1 8 3
f 1 3 10
f 1 10 18
f 1 18 36
f 1 36 71
f 1 71 129
f 1 129 198
f 1 198 292
f 1 292 291
f 1 291 284
f 1 284 283
f 1 283 282
f 1 282 360
f 1 360 367
f 1 367 368
f 1 368 294
f 1 294 205
f 1 205 204
f 1 204 135
f 1 135 134
f 1 134 203
f 1 203 132
f 1 132 85
f 1 85 84
f 1 84 83
f 1 83 82
f 1 82 74
f 1 74 73
f 1 73 72
f 1 72 37
f 1 37 19
f 1 19 11
f 1 11 4
f 1 4 2
f 2 4 6
f 2 6 7
f 2 7 5
f 3 8 9
f 3 9 10
f 4 11 6
f 5 7 12
f 6 11 13
f 6 13 7
f 7 13 14
f 7 14 15
f 7 15 12
f 8 16 30
f 8 30 58
f 8 58 102
f 8 102 114
f 8 114 113
f 8 113 171
f 8 171 246
f 8 246 245
f 8 245 244
f 8 244 243
f 8 243 242
f 8 242 241
f 8 241 240
f 8 240 239
f 8 239 315
f 8 315 314
f 8 314 377
f 8 377 397
f 8 397 385
f 8 385 398
f 8 398 399
f 8 399 388
f 8 388 331
f 8 331 330
f 8 330 349
f 8 349 348
f 8 348 272
f 8 272 187
f 8 187 186
f 8 186 122
f 8 122 66
f 8 66 33
f 8 33 17
f 8 17 9
f 9 17 34
f 9 34 67
f 9 67 121
f 9 121 120
f 9 120 179
f 9 179 178
f 9 178 259
f 9 259 329
f 9 329 386
f 9 386 351
f 9 351 350
f 9 350 274
f 9 274 190
f 9 190 124
f 9 124 68
f 9 68 35
f 9 35 18
f 9 18 10
f 11 19 13
f 12 20 21
f 12 15 22
f 12 22 20
f 13 19 23
f 13 23 14
f 14 23 24
f 14 24 25
f 14 25 15
f 15 25 26
f 15 26 27
f 15 27 28
f 15 28 29
f 15 29 22
f 16 31 32
f 16 32 30
f 17 33 34
f 18 35 36
f 19 37 23
f 20 38 21
f 20 22 38
f 22 29 38
f 23 37 39
f 23 39 40
f 23 40 41
f 23 41 42
f 23 42 43
f 23 43 24
f 24 44 25
f 24 43 45
f 24 45 44
f 25 44 26
f 26 46 27
f 26 44 47
f 26 47 46
f 27 48 28
f 27 46 49
f 27 49 50
f 27 50 51
f 27 51 52
f 27 52 53
f 27 53 54
f 27 54 55
f 27 55 48
f 28 48 56
f 28 56 29
f 30 32 57
f 30 57 58
f 31 59 32
f 32 60 61
f 32 61 62
f 32 62 63
f 32 63 57
f 32 59 64
f 32 64 60
f 33 65 34
f 33 66 65
f 34 65 67
f 35 68 69
f 35 69 36
f 36 69 70
f 36 70 71
f 37 72 39
f 39 72 40
f 40 72 73
f 40 73 74
f 40 74 75
f 40 75 76
f 40 76 41
f 41 76 42
f 42 77 78
f 42 78 79
f 42 79 80
f 42 80 43
f 42 76 81
f 42 81 82
f 42 82 83
f 42 83 84
f 42 84 85
f 42 85 86
f 42 86 87
f 42 87 88
f 42 88 77
f 43 80 45
f 44 45 80
f 44 80 89
f 44 89 90
f 44 90 47
f 46 47 49
f 47 51 50
f 47 50 49
f 47 90 91
f 47 91 92
f 47 92 93
f 47 93 94
f 47 94 95
f 47 95 51
f 48 55 56
f 51 96 97
f 51 97 52
f 51 95 96
f 52 98 54
f 52 54 53
f 52 97 99
f 52 99 98
f 54 100 101
f 54 98 100
f 57 63 102
f 57 102 58
f 60 103 104
f 60 104 61
f 60 64 103
f 61 104 105
f 61 105 106
f 61 106 107
f 61 107 108
f 61 108 62
f 62 108 109
f 62 109 110
f 62 110 111
f 62 111 112
f 62 112 113
f 62 113 63
f 63 113 114
f 63 114 102
f 64 115 116
f 64 116 103
f 65 66 117
f 65 117 118
f 65 118 119
f 65 119 120
f 65 120 121
f 65 121 67
f 66 122 123
f 66 123 117
f 68 124 69
f 69 124 125
f 69 125 126
f 69 126 70
f 70 126 127
f 70 127 128
f 70 128 71
f 71 128 129
f 74 82 75
f 75 82 76
f 76 82 81
f 77 130 78
f 77 88 130
f 78 130 131
f 78 131 79
f 79 131 80
f 80 131 89
f 85 132 133
f 85 133 86
f 86 133 87
f 87 133 134
f 87 134 135
f 87 135 136
f 87 136 88
f 88 136 137
f 88 137 138
f 88 138 139
f 88 139 140
f 88 140 141
f 88 141 130
f 89 131 142
f 89 142 90
f 90 142 143
f 90 143 92
f 90 92 91
f 92 143 142
f 92 142 93
f 93 142 144
f 93 144 145
f 93 145 146
f 93 146 147
f 93 147 94
f 94 147 95
f 95 147 96
f 96 148 97
f 96 147 149
f 96 149 148
f 97 148 150
f 97 150 99
f 98 99 151
f 98 151 100
f 99 150 153
f 99 153 152
f 100 151 101
f 103 116 154
f 103 154 155
f 103 155 104
f 104 155 105
f 105 155 156
f 105 156 157
f 105 157 158
f 105 158 159
f 105 159 106
f 106 159 107
f 107 159 108
f 108 159 109
f 109 160 161
f 109 161 162
f 109 162 163
f 109 163 164
f 109 164 165
f 109 165 166
f 109 166 110
f 109 159 167
f 109 167 168
f 109 168 169
f 109 169 160
f 110 166 111
f 111 166 170
f 111 170 171
f 111 171 112
f 112 171 113
f 115 172 173
f 115 173 174
f 115 174 116
f 116 174 154
f 117 123 175
f 117 175 118
f 118 176 177
f 118 177 178
f 118 178 179
f 118 179 119
f 118 175 123
f 118 123 180
f 118 180 181
f 118 181 182
f 118 182 183
f 118 183 184
f 118 184 185
f 118 185 176
f 119 179 120
f 122 186 123
f 123 186 187
f 123 187 188
f 123 188 189
f 123 189 180
f 124 190 191
f 124 191 125
f 125 191 192
f 125 192 193
f 125 193 126
f 126 193 194
f 126 194 195
f 126 195 127
f 127 195 196
f 127 196 197
f 127 197 128
f 128 197 129
f 129 197 198
f 130 141 199
f 130 199 200
f 130 200 201
f 130 201 202
f 130 202 131
f 131 202 144
f 131 144 142
f 132 203 133
f 133 203 134
f 135 204 137
f 135 137 136
f 137 204 205
f 137 205 206
f 137 206 138
f 138 206 207
f 138 207 208
f 138 208 139
f 139 209 210
f 139 210 211
f 139 211 140
f 139 208 212
f 139 212 209
f 140 211 213
f 140 213 214
f 140 214 141
f 141 214 199
f 144 202 145
f 145 202 146
f 146 202 201
f 146 201 215
f 146 215 216
f 146 216 147
f 147 216 217
f 147 217 218
f 147 218 219
f 147 219 149
f 148 149 156
f 148 156 220
f 148 220 221
f 148 221 150
f 149 219 222
f 149 222 156
f 150 221 223
f 150 223 153
f 152 153 224
f 152 224 225
f 153 223 226
f 153 226 224
f 154 227 221
f 154 221 155
f 154 174 227
f 155 221 220
f 155 220 156
f 156 222 228
f 156 228 157
f 157 228 229
f 157 229 230
f 157 230 231
f 157 231 158
f 158 231 159
f 159 231 232
f 159 232 233
f 159 233 234
f 159 234 167
f 160 235 161
f 160 169 236
f 160 236 237
f 160 237 235
f 161 235 238
f 161 238 162
f 162 238 239
f 162 239 163
f 163 239 240
f 163 240 241
f 163 241 242
f 163 242 164
f 164 242 165
f 165 242 243
f 165 243 244
f 165 244 245
f 165 245 246
f 165 246 166
f 166 246 170
f 167 233 247
f 167 247 168
f 167 234 248
f 167 248 233
f 168 247 169
f 169 249 250
f 169 250 251
f 169 251 252
f 169 252 253
f 169 253 254
f 169 254 236
f 169 247 249
f 170 246 171
f 172 255 256
f 172 256 173
f 173 256 174
f 174 256 257
f 174 257 227
f 176 258 177
f 176 185 258
f 177 258 178
f 178 258 259
f 180 189 181
f 181 189 182
f 182 189 260
f 182 260 261
f 182 261 184
f 182 184 183
f 184 261 262
f 184 262 263
f 184 263 264
f 184 264 265
f 184 265 266
f 184 266 267
f 184 267 268
f 184 268 185
f 185 268 269
f 185 269 270
f 185 270 271
f 185 271 258
f 187 272 188
f 188 272 273
f 188 273 189
f 189 273 260
f 190 274 275
f 190 275 191
f 191 276 277
f 191 277 193
f 191 193 192
f 191 275 276
f 193 277 278
f 193 278 279
f 193 279 194
f 194 279 195
f 195 279 280
f 195 280 281
f 195 281 196
f 196 282 283
f 196 283 284
f 196 284 197
f 196 281 285
f 196 285 286
f 196 286 287
f 196 287 288
f 196 288 289
f 196 289 290
f 196 290 282
f 197 284 291
f 197 291 292
f 197 292 198
f 199 293 201
f 199 201 200
f 199 214 213
f 199 213 293
f 201 293 215
f 205 294 206
f 206 294 295
f 206 295 290
f 206 290 207
f 207 290 296
f 207 296 208
f 208 297 298
f 208 298 212
f 208 296 290
f 208 290 289
f 208 289 297
f 209 212 210
f 210 299 211
f 210 212 299
f 211 299 213
f 212 298 299
f 213 299 300
f 213 300 301
f 213 301 302
f 213 302 293
f 215 293 302
f 215 302 303
f 215 303 216
f 216 303 304
f 216 304 217
f 217 304 305
f 217 305 306
f 217 306 307
f 217 307 218
f 218 230 229
f 218 229 222
f 218 222 219
f 218 307 308
f 218 308 312
f 218 312 230
f 221 227 309
f 221 309 310
f 221 310 223
f 222 229 228
f 223 310 309
f 223 309 311
f 223 311 226
f 224 226 225
f 227 257 309
f 230 312 313
f 230 313 231
f 231 313 232
f 232 313 312
f 232 312 233
f 233 312 306
f 233 306 247
f 233 248 234
f 235 237 314
f 235 314 315
f 235 315 238
f 236 254 237
f 237 254 316
f 237 316 314
f 238 315 239
f 247 306 317
f 247 317 250
f 247 250 249
f 250 317 318
f 250 318 319
f 250 319 251
f 251 319 320
f 251 320 321
f 251 321 252
f 252 321 322
f 252 322 323
f 252 323 324
f 252 324 253
f 253 324 325
f 253 325 326
f 253 326 254
f 254 326 327
f 254 327 316
f 255 257 256
f 257 311 309
f 258 271 328
f 258 328 259
f 259 328 329
f 260 273 330
f 260 330 331
f 260 331 332
f 260 332 333
f 260 333 262
f 260 262 261
f 262 334 335
f 262 335 326
f 262 326 325
f 262 325 336
f 262 336 324
f 262 324 263
f 262 333 334
f 263 324 337
f 263 337 338
f 263 338 339
f 263 339 267
f 263 267 340
f 263 340 265
f 263 265 264
f 265 267 266
f 265 340 267
f 267 341 342
f 267 342 268
f 267 339 341
f 268 343 344
f 268 344 345
f 268 345 269
f 268 342 343
f 269 345 270
f 270 345 346
f 270 346 271
f 271 347 328
f 271 346 347
f 272 348 273
f 273 348 349
f 273 349 330
f 274 350 275
f 275 350 351
f 275 351 352
f 275 352 276
f 276 352 277
f 277 353 354
f 277 354 355
f 277 355 356
f 277 356 357
f 277 357 358
f 277 358 278
f 277 352 353
f 278 358 279
f 279 358 280
f 280 358 359
f 280 359 281
f 281 359 285
f 282 290 360
f 285 287 286
f 285 359 361
f 285 361 362
f 285 362 363
f 285 363 364
f 285 364 287
f 287 364 365
f 287 365 289
f 287 289 288
f 289 366 298
f 289 298 297
f 289 365 364
f 289 364 366
f 290 295 367
f 290 367 360
f 294 368 295
f 295 368 367
f 298 369 370
f 298 370 299
f 298 366 371
f 298 371 363
f 298 363 369
f 299 370 372
f 299 372 373
f 299 373 300
f 300 373 322
f 300 322 301
f 301 322 320
f 301 320 302
f 302 374 304
f 302 304 303
f 302 320 374
f 304 374 320
f 304 320 375
f 304 375 305
f 305 375 306
f 306 312 308
f 306 308 307
f 306 375 376
f 306 376 317
f 314 316 377
f 316 327 326
f 316 326 378
f 316 378 377
f 317 376 318
f 318 320 379
f 318 379 319
f 318 376 320
f 319 379 320
f 320 322 321
f 320 376 375
f 322 373 380
f 322 380 381
f 322 381 382
f 322 382 323
f 323 382 324
f 324 336 325
f 324 382 337
f 326 335 383
f 326 383 384
f 326 384 385
f 326 385 378
f 328 386 329
f 328 347 387
f 328 387 352
f 328 352 386
f 331 388 332
f 332 388 333
f 333 388 389
f 333 389 335
f 333 335 334
f 335 389 383
f 337 382 381
f 337 381 390
f 337 390 338
f 338 390 381
f 338 381 380
f 338 380 391
f 338 391 341
f 338 341 339
f 341 391 373
f 341 373 392
f 341 392 356
f 341 356 355
f 341 355 342
f 342 355 344
f 342 344 343
f 344 346 345
f 344 355 354
f 344 354 353
f 344 353 346
f 346 353 393
f 346 393 347
f 347 393 352
f 347 352 387
f 351 386 352
f 352 393 353
f 356 362 361
f 356 361 357
f 356 392 362
f 357 361 358
f 358 361 359
f 362 392 363
f 363 392 373
f 363 373 394
f 363 394 372
f 363 372 369
f 363 371 366
f 363 366 364
f 369 372 370
f 372 394 373
f 373 395 396
f 373 396 380
f 373 391 395
f 377 378 397
f 378 385 397
f 380 396 395
f 380 395 391
f 383 389 384
f 384 389 385
f 385 389 398
f 388 399 389
f 389 399 398
