v 0.161127 0.356914 0.366574
v 0.161127 0.37833 0.363345
v 0.148941 0.356914 0.372405
v 0.161127 0.356914 0.284147
v 0.161127 0.393754 0.361016
v 0.144101 0.356914 0.37451
v 0.140254 0.388157 0.371136
v 0.161127 0.4425 0.239198
v 7.2114e-05 0.356914 0.326911
v 0.161127 0.404202 0.35753
v 0.137022 0.398454 0.369787
v 0.115125 0.356914 0.386526
v 0.115803 0.393771 0.379779
v 7.2114e-05 0.4425 0.289448
v 0.161127 0.4425 0.329095
v 7.2114e-05 0.356914 0.402976
v 0.161127 0.405291 0.357096
v 0.126728 0.404219 0.371923
v 0.106533 0.37833 0.385691
v 0.101078 0.356914 0.39096
v 0.115472 0.409304 0.373964
v 0.100369 0.409204 0.378944
v 0.100968 0.394106 0.384502
v 7.2114e-05 0.4425 0.366847
v 0.160938 0.4425 0.329256
v 0.161127 0.425098 0.34426
v 0.00860096 0.356914 0.403297
v 7.2114e-05 0.393771 0.397546
v 0.161127 0.41305 0.353144
v 0.120406 0.414516 0.369289
v 0.0962226 0.38918 0.386783
v 0.0954186 0.356914 0.391956
v 0.110112 0.418052 0.371425
v 0.100369 0.420012 0.372871
v 0.0841782 0.407905 0.382606
v 0.0888131 0.399477 0.38553
v 7.2114e-05 0.426313 0.380968
v 0.00773389 0.4425 0.366847
v 0.117726 0.4425 0.346911
v 0.122188 0.431817 0.354638
v 0.131252 0.429764 0.352694
v 0.143123 0.419157 0.356871
v 0.16108 0.425064 0.344308
v 0.153418 0.416183 0.354734
v 0.161127 0.42467 0.344582
v 0.00773389 0.393771 0.397546
v 0.0853921 0.356914 0.393514
v 7.2114e-05 0.409204 0.392004
v 0.0841782 0.394106 0.387442
v 0.069501 0.393771 0.38945
v 0.0540514 0.393771 0.39149
v 0.0231678 0.393771 0.395554
v 0.131252 0.422048 0.359313
v 0.11678 0.4425 0.347296
v 0.100369 0.427729 0.366445
v 0.0849192 0.422014 0.374397
v 0.0849192 0.429731 0.368245
v 0.069501 0.410947 0.38312
v 0.069501 0.40323 0.386815
v 0.0785343 0.40189 0.386221
v 7.2114e-05 0.422484 0.384052
v 0.00773389 0.426313 0.380968
v 0.0231836 0.4425 0.365369
v 0.00773389 0.409204 0.392004
v 7.2114e-05 0.418588 0.387185
v 0.100369 0.4425 0.35271
v 0.0849192 0.4425 0.356646
v 0.00773389 0.418588 0.387185
v 0.0188324 0.417574 0.386478
v 0.0291269 0.416476 0.385803
v 0.0386175 0.415245 0.385161
v 0.0540514 0.413159 0.384132
v 0.069501 0.430912 0.369321
v 0.0688547 0.4425 0.35965
v 0.053468 0.4425 0.361915
v 0.0540514 0.405434 0.387827
v 0.0386175 0.4425 0.363779
v 0.0386175 0.40752 0.388839
v 0.0236565 0.410486 0.389353
f 1 2 3
f 1 3 6
f 1 6 12
f 1 12 20
f 1 20 32
f 1 32 47
f 1 47 27
f 1 27 16
f 1 16 9
f 1 9 4
f 1 4 8
f 1 8 15
f 1 15 26
f 1 26 45
f 1 45 29
f 1 29 17
f 1 17 10
f 1 10 5
f 1 5 2
f 2 5 3
f 3 5 7
f 3 7 6
f 4 9 8
f 5 10 11
f 5 11 7
f 6 7 12
f 7 11 13
f 7 13 12
f 8 14 24
f 8 24 38
f 8 38 63
f 8 63 77
f 8 77 75
f 8 75 74
f 8 74 67
f 8 67 66
f 8 66 54
f 8 54 39
f 8 39 25
f 8 25 15
f 8 9 14
f 9 16 28
f 9 28 48
f 9 48 65
f 9 65 61
f 9 61 37
f 9 37 24
f 9 24 14
f 10 17 18
f 10 18 11
f 11 18 13
f 12 13 19
f 12 19 20
f 13 18 21
f 13 21 22
f 13 22 23
f 13 23 19
f 15 25 26
f 16 27 28
f 17 29 18
f 18 29 30
f 18 30 21
f 19 23 31
f 19 31 20
f 20 31 32
f 21 30 33
f 21 33 22
f 22 33 34
f 22 34 35
f 22 35 36
f 22 36 23
f 23 36 31
f 24 37 62
f 24 62 38
f 25 39 40
f 25 40 41
f 25 41 26
f 26 41 42
f 26 42 43
f 26 43 44
f 26 44 45
f 27 46 28
f 27 47 46
f 28 46 64
f 28 64 48
f 29 45 44
f 29 44 30
f 30 44 33
f 31 36 49
f 31 49 50
f 31 50 51
f 31 51 52
f 31 52 47
f 31 47 32
f 33 44 42
f 33 42 53
f 33 53 41
f 33 41 40
f 33 40 54
f 33 54 55
f 33 55 34
f 34 56 35
f 34 55 57
f 34 57 56
f 35 58 59
f 35 59 60
f 35 60 36
f 35 56 58
f 36 60 52
f 36 52 51
f 36 51 49
f 37 61 62
f 38 62 63
f 39 54 40
f 41 53 42
f 42 44 43
f 46 47 52
f 46 52 60
f 46 60 59
f 46 59 64
f 48 64 68
f 48 68 65
f 49 51 50
f 54 66 55
f 55 66 67
f 55 67 57
f 56 68 69
f 56 69 70
f 56 70 71
f 56 71 72
f 56 72 58
f 56 57 73
f 56 73 68
f 57 67 74
f 57 74 75
f 57 75 73
f 58 72 59
f 59 72 76
f 59 76 64
f 61 65 68
f 61 68 62
f 62 68 73
f 62 73 75
f 62 75 77
f 62 77 63
f 64 76 78
f 64 78 79
f 64 79 70
f 64 70 69
f 64 69 68
f 70 79 78
f 70 78 71
f 71 78 76
f 71 76 72
