v 0.152293 -0.405415 -0.258026
v 7.2114e-05 -0.405415 -0.299766
v 0.152293 -0.405415 -0.336555
v 0.152293 -0.0222389 -0.356767
v 7.2114e-05 -0.0222389 -0.390267
v 7.2114e-05 -0.405415 -0.371332
v 0.149357 -0.405415 -0.337773
v 0.152293 -0.399414 -0.339146
v 0.152293 -0.0222389 -0.426959
v 7.2114e-05 -0.0222389 -0.455605
v 0.00773082 -0.405415 -0.371332
v 7.2114e-05 -0.370795 -0.386128
v 0.116174 -0.405415 -0.351525
v 0.152293 -0.38381 -0.345877
v 0.143814 -0.0222389 -0.43048
v 0.152293 -0.0233641 -0.426921
v 0.00773082 -0.0222389 -0.455586
v 0.00773082 -0.0231766 -0.455547
v 0.00773082 -0.0386296 -0.454909
v 7.2114e-05 -0.0386296 -0.454909
v 0.0236591 -0.405415 -0.369281
v 0.000727721 -0.370795 -0.386128
v 0.00773082 -0.404365 -0.371757
v 7.2114e-05 -0.347428 -0.394523
v 0.112047 -0.405415 -0.353227
v 0.109201 -0.402527 -0.355645
v 0.117128 -0.364082 -0.368933
v 0.140507 -0.372071 -0.355819
v 0.152293 -0.358943 -0.356593
v 0.13255 -0.0222389 -0.435141
v 0.132654 -0.0235142 -0.435044
v 0.152293 -0.0442183 -0.425973
v 0.138748 -0.0288777 -0.432278
v 0.0231674 -0.0222389 -0.453593
v 0.0231674 -0.0231766 -0.453555
v 0.0231674 -0.0694983 -0.451601
v 0.00773082 -0.0540827 -0.454251
v 7.2114e-05 -0.0618467 -0.453922
v 0.0849288 -0.405415 -0.361216
v 0.0066133 -0.376909 -0.382937
v 0.0231674 -0.359506 -0.387792
v 0.00773082 -0.347428 -0.394523
v 0.0066133 -0.363556 -0.388295
v 7.2114e-05 -0.326199 -0.402066
v 0.104165 -0.405415 -0.356245
v 0.107264 -0.370008 -0.370345
v 0.112852 -0.359731 -0.372569
v 0.123148 -0.35478 -0.370442
v 0.152293 -0.352979 -0.359107
v 0.115802 -0.0222389 -0.440654
v 0.130494 -0.0386296 -0.435238
v 0.136513 -0.0694983 -0.43135
v 0.128795 -0.0694983 -0.434541
v 0.129644 -0.0540827 -0.43489
v 0.152293 -0.0694983 -0.424812
v 0.0376951 -0.0222389 -0.451698
v 0.100365 -0.0540827 -0.442085
v 0.100365 -0.0694983 -0.441427
v 0.0473654 -0.0785 -0.447946
v 0.00773082 -0.0694983 -0.453593
v 0.072055 -0.0231766 -0.447133
v 7.2114e-05 -0.0694983 -0.453593
v 0.0993224 -0.405415 -0.357947
v 0.0474697 -0.35553 -0.386186
v 0.0849288 -0.362881 -0.378295
v 0.0932133 -0.340002 -0.386148
v 0.0969681 -0.373571 -0.371796
v 0.0110238 -0.369183 -0.385471
v 0.00463157 -0.326199 -0.402066
v 0.00896754 -0.3316 -0.399842
v 0.0849288 -0.341502 -0.386728
v 0.0386189 -0.347428 -0.3905
v 7.2114e-05 -0.27849 -0.417095
v 0.101408 -0.364082 -0.374465
v 0.103494 -0.336589 -0.385006
v 0.117128 -0.348741 -0.375451
v 0.132595 -0.348741 -0.369049
v 0.152293 -0.347241 -0.361506
v 0.100365 -0.0222389 -0.443439
v 0.115802 -0.0231766 -0.440615
v 0.152293 -0.0744492 -0.424426
v 0.152293 -0.0845762 -0.423613
v 0.135008 -0.0849513 -0.430731
v 0.12729 -0.0849513 -0.433923
v 0.115802 -0.0694983 -0.438565
v 0.072204 -0.0222389 -0.447153
v 0.100365 -0.0231766 -0.4434
v 0.100365 -0.0849513 -0.440267
v 0.0694922 -0.0849513 -0.444348
v 0.0231674 -0.0849513 -0.450441
v 0.00773082 -0.0849513 -0.452433
v 7.2114e-05 -0.0772998 -0.453013
v 0.0694922 -0.351854 -0.384736
v 0.0849288 -0.349229 -0.383711
v 0.0991585 -0.346078 -0.382376
v 0.0231674 -0.331975 -0.397888
v 0.0386189 -0.331975 -0.395857
v 0.0849288 -0.331975 -0.389765
v 0.0903524 -0.292405 -0.401176
v 0.100365 -0.28239 -0.402859
v 0.109514 -0.279727 -0.402027
v 0.00135353 -0.27849 -0.417095
v 0.00773082 -0.301107 -0.409358
v 0.0149276 -0.324061 -0.401409
v 0.0694922 -0.344128 -0.387734
v 7.2114e-05 -0.254785 -0.42311
v 0.109693 -0.326274 -0.386709
v 0.115221 -0.331638 -0.382647
v 0.138629 -0.339289 -0.370461
v 0.128333 -0.344465 -0.372589
v 0.152293 -0.337976 -0.365007
v 0.152293 -0.0919652 -0.422685
v 0.14669 -0.0849513 -0.425896
v 0.124936 -0.100404 -0.432955
v 0.115802 -0.0849513 -0.437365
v 0.0328973 -0.0947408 -0.448062
v 0.0431933 -0.0888146 -0.447385
v 0.100365 -0.100404 -0.438468
v 7.2114e-05 -0.0849513 -0.452433
v 0.00773082 -0.100404 -0.450615
v 0.00220284 -0.125722 -0.448081
v 0.0231674 -0.314572 -0.403246
v 0.0849288 -0.316522 -0.394503
v 0.0386189 -0.301107 -0.405335
v 0.0389616 -0.269488 -0.414967
v 0.0849288 -0.2702 -0.408681
v 0.100365 -0.2702 -0.406592
v 0.100365 -0.254785 -0.410925
v 0.115802 -0.254785 -0.40694
v 0.115117 -0.268963 -0.403188
v 0.123893 -0.262962 -0.401641
v 0.00773082 -0.254785 -0.42311
v 0.0069858 -0.270801 -0.41872
v 0.0116496 -0.276352 -0.416437
v 7.2114e-05 -0.216677 -0.432472
v 0.129927 -0.268963 -0.397173
v 0.147286 -0.270576 -0.389455
v 0.152293 -0.300994 -0.377386
v 0.152293 -0.323874 -0.369862
v 0.152293 -0.332838 -0.366902
v 0.152293 -0.100404 -0.421621
v 0.12361 -0.108393 -0.432395
v 0.152293 -0.122121 -0.418642
v 0.131254 -0.146726 -0.423981
v 0.115802 -0.100404 -0.435489
v 0.108262 -0.139337 -0.432414
v 0.0229141 -0.100067 -0.4487
v 0.0540555 -0.100404 -0.444561
v 0.10342 -0.149652 -0.431756
v 0.0231674 -0.131273 -0.444677
v 7.2114e-05 -0.125722 -0.448081
v 0.0175947 -0.110306 -0.448081
v 0.012484 -0.120621 -0.447423
v 0.00749241 -0.13101 -0.446727
v 0.00773082 -0.146726 -0.444677
v 0.00773082 -0.162142 -0.442665
v 0.0231674 -0.301107 -0.407366
v 0.0231674 -0.266187 -0.418043
v 0.0340446 -0.263862 -0.417327
v 0.0231674 -0.273914 -0.415683
v 0.0443406 -0.261461 -0.41665
v 0.0849288 -0.254785 -0.412975
v 0.0644112 -0.248446 -0.417269
v 0.0747072 -0.245521 -0.416592
v 0.0849288 -0.242407 -0.415915
v 0.0992777 -0.238057 -0.414948
v 0.103703 -0.228942 -0.416341
v 0.109723 -0.218628 -0.417462
v 0.115802 -0.239332 -0.410693
v 0.12659 -0.254785 -0.402743
v 0.134308 -0.254785 -0.399552
v 0.14669 -0.254785 -0.394426
v 0.152293 -0.254447 -0.392182
v 0.152293 -0.260711 -0.390403
v 0.152293 -0.268025 -0.388217
v 0.000846919 -0.216677 -0.432472
v 0.00773082 -0.239332 -0.426708
v 0.0231674 -0.254785 -0.421118
v 7.2114e-05 -0.177595 -0.439996
v 0.131254 -0.162142 -0.421814
v 0.115802 -0.162142 -0.42725
v 0.121106 -0.118671 -0.431698
v 0.152293 -0.146726 -0.415257
v 0.143621 -0.146726 -0.418855
v 0.148746 -0.162142 -0.41458
v 0.114372 -0.145376 -0.429919
v 0.0991138 -0.160904 -0.430847
v 0.0931239 -0.15494 -0.432433
v 0.0231674 -0.146726 -0.442685
v 7.2114e-05 -0.162142 -0.442665
v 7.2114e-05 -0.169943 -0.441331
v 0.0231674 -0.162142 -0.440673
v 0.077732 -0.170206 -0.432433
v 0.00773082 -0.177595 -0.439996
v 0.0389616 -0.255685 -0.418816
v 0.0540555 -0.258911 -0.416012
v 0.0231674 -0.239332 -0.424716
v 0.0386189 -0.239332 -0.422685
v 0.0540555 -0.239332 -0.420654
v 0.0694922 -0.208501 -0.425277
v 0.100365 -0.208501 -0.421195
v 0.100365 -0.177595 -0.427849
v 0.115802 -0.177595 -0.424484
v 0.123416 -0.200587 -0.416882
v 0.131924 -0.239332 -0.404387
v 0.137526 -0.24447 -0.400886
v 0.152293 -0.244996 -0.394542
v 0.00773082 -0.193048 -0.436688
v 0.0066878 -0.208501 -0.433497
v 0.011143 -0.213677 -0.431814
v 0.139478 -0.170768 -0.417134
v 0.131373 -0.176619 -0.419126
v 0.152293 -0.162142 -0.41311
v 0.088028 -0.165217 -0.431756
v 0.0694922 -0.162142 -0.4346
v 0.0849288 -0.193048 -0.426573
v 0.0590322 -0.183633 -0.432008
v 0.0487362 -0.186784 -0.432685
v 0.0231674 -0.177595 -0.438004
v 0.0241806 -0.208501 -0.431234
v 0.0386189 -0.208501 -0.429338
v 0.126307 -0.19031 -0.418081
v 0.131254 -0.223879 -0.408256
v 0.147733 -0.209138 -0.404851
v 0.146005 -0.239332 -0.398565
v 0.152293 -0.239332 -0.395954
v 0.152293 -0.177482 -0.410267
v 0.152293 -0.184534 -0.408642
v 0.152293 -0.206663 -0.403536
v 0.152293 -0.225679 -0.399126
f 1 2 6
f 1 6 11
f 1 11 21
f 1 21 39
f 1 39 63
f 1 63 45
f 1 45 25
f 1 25 13
f 1 13 7
f 1 7 3
f 1 3 8
f 1 8 14
f 1 14 29
f 1 29 49
f 1 49 78
f 1 78 111
f 1 111 140
f 1 140 139
f 1 139 138
f 1 138 175
f 1 175 174
f 1 174 173
f 1 173 207
f 1 207 226
f 1 226 230
f 1 230 229
f 1 229 228
f 1 228 227
f 1 227 213
f 1 213 183
f 1 183 143
f 1 143 141
f 1 141 112
f 1 112 82
f 1 82 81
f 1 81 55
f 1 55 32
f 1 32 16
f 1 16 9
f 1 9 4
f 1 4 5
f 1 5 2
f 2 5 10
f 2 10 20
f 2 20 38
f 2 38 62
f 2 62 92
f 2 92 119
f 2 119 151
f 2 151 190
f 2 190 191
f 2 191 179
f 2 179 135
f 2 135 106
f 2 106 73
f 2 73 44
f 2 44 24
f 2 24 12
f 2 12 6
f 3 7 8
f 4 9 15
f 4 15 30
f 4 30 50
f 4 50 79
f 4 79 86
f 4 86 56
f 4 56 34
f 4 34 17
f 4 17 10
f 4 10 5
f 6 12 22
f 6 22 11
f 7 13 8
f 8 13 14
f 9 16 15
f 10 17 18
f 10 18 19
f 10 19 20
f 11 22 23
f 11 23 21
f 12 24 42
f 12 42 22
f 13 25 26
f 13 26 27
f 13 27 28
f 13 28 14
f 14 28 29
f 15 16 31
f 15 31 30
f 16 32 33
f 16 33 31
f 17 34 35
f 17 35 18
f 18 35 19
f 19 35 36
f 19 36 37
f 19 37 38
f 19 38 20
f 21 23 40
f 21 40 41
f 21 41 39
f 22 42 43
f 22 43 40
f 22 40 23
f 24 44 69
f 24 69 42
f 25 45 26
f 26 45 46
f 26 46 47
f 26 47 27
f 27 47 48
f 27 48 29
f 27 29 28
f 29 48 49
f 30 31 51
f 30 51 50
f 31 33 52
f 31 52 53
f 31 53 54
f 31 54 51
f 32 55 52
f 32 52 33
f 34 56 35
f 35 56 36
f 36 57 58
f 36 58 59
f 36 59 60
f 36 60 37
f 36 56 61
f 36 61 57
f 37 60 38
f 38 60 62
f 39 41 64
f 39 64 65
f 39 65 66
f 39 66 67
f 39 67 63
f 40 43 68
f 40 68 41
f 41 68 43
f 41 43 42
f 41 42 64
f 42 69 70
f 42 70 71
f 42 71 72
f 42 72 64
f 44 73 102
f 44 102 69
f 45 63 46
f 46 74 75
f 46 75 47
f 46 63 74
f 47 75 76
f 47 76 48
f 48 76 77
f 48 77 49
f 49 77 78
f 50 51 54
f 50 54 53
f 50 53 80
f 50 80 87
f 50 87 79
f 52 55 81
f 52 81 82
f 52 82 83
f 52 83 84
f 52 84 53
f 53 84 85
f 53 85 80
f 56 86 61
f 57 61 87
f 57 87 80
f 57 80 58
f 58 85 88
f 58 88 59
f 58 80 85
f 59 88 89
f 59 89 90
f 59 90 91
f 59 91 60
f 60 92 62
f 60 91 92
f 61 86 87
f 63 67 74
f 64 72 93
f 64 93 65
f 65 93 94
f 65 94 66
f 66 75 95
f 66 95 67
f 66 94 71
f 66 71 96
f 66 96 97
f 66 97 98
f 66 98 99
f 66 99 100
f 66 100 101
f 66 101 75
f 67 95 74
f 69 102 103
f 69 103 104
f 69 104 70
f 70 104 96
f 70 96 71
f 71 105 72
f 71 94 93
f 71 93 105
f 72 105 93
f 73 106 132
f 73 132 102
f 74 95 75
f 75 101 107
f 75 107 76
f 76 107 108
f 76 108 109
f 76 109 110
f 76 110 77
f 77 110 78
f 78 110 109
f 78 109 111
f 79 87 86
f 82 112 113
f 82 113 83
f 83 113 114
f 83 114 84
f 84 115 85
f 84 114 115
f 85 115 88
f 88 116 117
f 88 117 89
f 88 115 118
f 88 118 116
f 89 117 90
f 90 117 116
f 90 116 91
f 91 119 92
f 91 116 120
f 91 120 121
f 91 121 151
f 91 151 119
f 96 104 97
f 97 104 122
f 97 122 98
f 98 122 123
f 98 123 99
f 99 123 124
f 99 124 125
f 99 125 126
f 99 126 127
f 99 127 100
f 100 127 101
f 101 127 128
f 101 128 129
f 101 129 130
f 101 130 131
f 101 131 107
f 102 132 133
f 102 133 134
f 102 134 103
f 103 134 104
f 104 134 122
f 106 135 176
f 106 176 132
f 107 131 136
f 107 136 109
f 107 109 108
f 109 136 137
f 109 137 138
f 109 138 139
f 109 139 140
f 109 140 111
f 112 141 113
f 113 141 114
f 114 142 115
f 114 141 143
f 114 143 144
f 114 144 142
f 115 142 145
f 115 145 146
f 115 146 118
f 116 147 120
f 116 118 148
f 116 148 147
f 118 146 149
f 118 149 150
f 118 150 148
f 120 147 152
f 120 152 153
f 120 153 121
f 121 153 154
f 121 154 155
f 121 155 156
f 121 156 190
f 121 190 151
f 122 134 157
f 122 157 125
f 122 125 124
f 122 124 123
f 125 158 159
f 125 159 126
f 125 157 160
f 125 160 158
f 126 159 161
f 126 161 127
f 127 161 128
f 128 161 162
f 128 162 163
f 128 163 164
f 128 164 165
f 128 165 166
f 128 166 167
f 128 167 168
f 128 168 129
f 129 168 169
f 129 169 170
f 129 170 131
f 129 131 130
f 131 170 171
f 131 171 172
f 131 172 173
f 131 173 174
f 131 174 175
f 131 175 137
f 131 137 136
f 132 176 177
f 132 177 197
f 132 197 178
f 132 178 161
f 132 161 159
f 132 159 158
f 132 158 133
f 133 158 134
f 134 158 160
f 134 160 157
f 135 179 194
f 135 194 176
f 137 175 138
f 142 144 180
f 142 180 181
f 142 181 182
f 142 182 146
f 142 146 145
f 143 183 184
f 143 184 144
f 144 184 185
f 144 185 180
f 146 182 186
f 146 186 181
f 146 181 187
f 146 187 149
f 147 148 150
f 147 150 152
f 149 187 188
f 149 188 150
f 150 188 189
f 150 189 155
f 150 155 153
f 150 153 152
f 153 155 154
f 155 189 192
f 155 192 156
f 156 191 190
f 156 192 193
f 156 193 194
f 156 194 191
f 161 178 195
f 161 195 196
f 161 196 162
f 162 196 195
f 162 195 163
f 163 195 178
f 163 178 197
f 163 197 164
f 164 197 198
f 164 198 199
f 164 199 200
f 164 200 165
f 165 200 201
f 165 201 167
f 165 167 166
f 167 201 202
f 167 202 168
f 168 202 203
f 168 203 204
f 168 204 169
f 169 205 170
f 169 204 205
f 170 205 206
f 170 206 171
f 171 206 172
f 172 206 173
f 173 206 207
f 176 194 208
f 176 208 209
f 176 209 177
f 177 209 210
f 177 210 197
f 179 191 194
f 180 185 211
f 180 211 212
f 180 212 203
f 180 203 181
f 181 186 182
f 181 203 202
f 181 202 187
f 183 213 184
f 184 213 185
f 185 213 211
f 187 214 188
f 187 202 214
f 188 214 215
f 188 215 189
f 189 215 192
f 192 215 214
f 192 214 193
f 193 214 202
f 193 202 216
f 193 216 217
f 193 217 218
f 193 218 219
f 193 219 194
f 194 219 208
f 197 210 220
f 197 220 221
f 197 221 198
f 198 221 200
f 198 200 199
f 200 221 218
f 200 218 216
f 200 216 201
f 201 216 202
f 203 222 204
f 203 212 222
f 204 222 223
f 204 223 205
f 205 223 206
f 206 223 224
f 206 224 225
f 206 225 226
f 206 226 207
f 208 219 220
f 208 220 210
f 208 210 209
f 211 213 227
f 211 227 228
f 211 228 229
f 211 229 222
f 211 222 212
f 216 218 217
f 218 221 220
f 218 220 219
f 222 229 224
f 222 224 223
f 224 229 230
f 224 230 225
f 225 230 226
