v -0.139652 0.356914 -0.376118
v -0.144135 0.356914 -0.374504
v -0.140276 0.388158 -0.371128
v -0.139652 0.387488 -0.371446
v -0.139652 0.356914 -0.294064
v -0.17808 0.356914 -0.360383
v -0.162155 0.393776 -0.360595
v -0.145941 0.393495 -0.36739
v -0.139652 0.396987 -0.369068
v -0.139652 0.393495 -0.369981
v -0.139652 0.38853 -0.371276
v -0.180288 0.393776 -0.353078
v -0.139652 0.441436 -0.253674
v -0.285112 0.356914 -0.159176
v -0.191841 0.356914 -0.354373
v -0.170051 0.401653 -0.355222
v -0.139652 0.401372 -0.36739
v -0.193045 0.393776 -0.347387
v -0.241577 0.441436 -0.159176
v -0.139652 0.441436 -0.338085
v -0.3675 0.356914 -0.159176
v -0.207721 0.356914 -0.34556
v -0.203617 0.393776 -0.341738
v -0.176162 0.40776 -0.349595
v -0.162155 0.404913 -0.356858
v -0.139652 0.409803 -0.363674
v -0.201632 0.402729 -0.340336
v -0.192064 0.408405 -0.342226
v -0.33061 0.441436 -0.159176
v -0.139652 0.432218 -0.34675
v -0.160907 0.441436 -0.329995
v -0.361835 0.393718 -0.159176
v -0.364712 0.356914 -0.167756
v -0.212293 0.356914 -0.342248
v -0.211334 0.393776 -0.335983
v -0.238343 0.356914 -0.323008
v -0.153435 0.416191 -0.354734
v -0.162155 0.412633 -0.352929
v -0.186287 0.417565 -0.340167
v -0.139652 0.416175 -0.360022
v -0.218649 0.404781 -0.326151
v -0.208144 0.408902 -0.331736
v -0.196569 0.413022 -0.337342
v -0.245948 0.398666 -0.307952
v -0.262921 0.402084 -0.293703
v -0.321868 0.441436 -0.177588
v -0.325481 0.433476 -0.18725
v -0.33099 0.441039 -0.159176
v -0.139652 0.427039 -0.351506
v -0.177589 0.441436 -0.321862
v -0.165546 0.430481 -0.337894
v -0.177589 0.427577 -0.33541
v -0.187246 0.433476 -0.325472
v -0.35753 0.406014 -0.159176
v -0.355233 0.401653 -0.170049
v -0.356281 0.393776 -0.172576
v -0.360385 0.356914 -0.178076
v -0.35307 0.393776 -0.180285
v -0.247978 0.388373 -0.309502
v -0.251368 0.356914 -0.312836
v -0.143153 0.419162 -0.356879
v -0.204375 0.419939 -0.327043
v -0.191908 0.423903 -0.331417
v -0.177589 0.419857 -0.342014
v -0.139652 0.420006 -0.35758
v -0.214679 0.415074 -0.323093
v -0.258951 0.412377 -0.290667
v -0.26466 0.393776 -0.295041
v -0.272377 0.393776 -0.289095
v -0.279447 0.404136 -0.279454
v -0.269411 0.408256 -0.28506
v -0.315444 0.441436 -0.190202
v -0.321845 0.430233 -0.197549
v -0.331413 0.423903 -0.191922
v -0.340178 0.417565 -0.186273
v -0.335406 0.427577 -0.177588
v -0.337904 0.430481 -0.165547
v -0.339219 0.431854 -0.159176
v -0.192175 0.441436 -0.314174
v -0.19755 0.430233 -0.321862
v -0.354408 0.412162 -0.159176
v -0.356861 0.404913 -0.162149
v -0.34959 0.40776 -0.176165
v -0.34223 0.408405 -0.19207
v -0.340335 0.402729 -0.201647
v -0.347382 0.393776 -0.193026
v -0.358132 0.356914 -0.1833
v -0.256207 0.356914 -0.309035
v -0.273515 0.356914 -0.295423
v -0.214635 0.431358 -0.307676
v -0.231674 0.416952 -0.308844
v -0.248669 0.418326 -0.294595
v -0.265619 0.419584 -0.280367
v -0.253821 0.424101 -0.284933
v -0.242 0.428619 -0.289499
v -0.275923 0.414429 -0.275929
v -0.281388 0.393776 -0.281387
v -0.289104 0.393776 -0.272383
v -0.293699 0.402084 -0.262933
v -0.285045 0.408256 -0.269431
v -0.307683 0.431358 -0.214644
v -0.268943 0.441436 -0.251381
v -0.327042 0.419939 -0.204366
v -0.352936 0.412633 -0.162149
v -0.353538 0.413841 -0.159176
v -0.342007 0.419857 -0.177588
v -0.337346 0.413022 -0.196572
v -0.345174 0.42497 -0.159176
v -0.231719 0.432417 -0.293448
v -0.253665 0.441436 -0.266925
v -0.331748 0.408902 -0.208145
v -0.32615 0.404773 -0.218636
v -0.307951 0.398666 -0.245945
v -0.335985 0.393776 -0.211331
v -0.34174 0.393776 -0.203601
v -0.350482 0.356914 -0.198653
v -0.285068 0.356914 -0.285082
v -0.258995 0.429877 -0.275165
v -0.270392 0.42473 -0.270408
v -0.290666 0.412377 -0.258962
v -0.294613 0.418326 -0.248684
v -0.280362 0.419584 -0.265651
v -0.289551 0.356914 -0.280304
v -0.299029 0.356914 -0.2689
v -0.309512 0.388373 -0.247983
v -0.295037 0.393776 -0.264674
v -0.275165 0.429877 -0.259004
v -0.289484 0.428619 -0.242016
v -0.264883 0.434188 -0.264908
v -0.284934 0.424101 -0.253844
v -0.308843 0.416952 -0.231674
v -0.323094 0.415074 -0.214665
v -0.303445 0.393619 -0.253802
v -0.329049 0.356914 -0.230379
v -0.345553 0.356914 -0.207721
v -0.312835 0.356914 -0.25136
v -0.318232 0.356914 -0.244501
f 1 2 3
f 1 3 4
f 1 4 11
f 1 11 10
f 1 10 9
f 1 9 17
f 1 17 26
f 1 26 40
f 1 40 65
f 1 65 49
f 1 49 30
f 1 30 20
f 1 20 13
f 1 13 5
f 1 5 14
f 1 14 21
f 1 21 33
f 1 33 57
f 1 57 87
f 1 87 116
f 1 116 135
f 1 135 134
f 1 134 137
f 1 137 136
f 1 136 124
f 1 124 123
f 1 123 117
f 1 117 89
f 1 89 88
f 1 88 60
f 1 60 36
f 1 36 34
f 1 34 22
f 1 22 15
f 1 15 6
f 1 6 2
f 2 6 3
f 3 7 8
f 3 8 9
f 3 9 10
f 3 10 11
f 3 11 4
f 3 6 12
f 3 12 7
f 5 13 14
f 6 15 12
f 7 16 9
f 7 9 8
f 7 12 16
f 9 16 17
f 12 15 18
f 12 18 16
f 13 19 14
f 13 20 31
f 13 31 50
f 13 50 79
f 13 79 110
f 13 110 102
f 13 102 72
f 13 72 46
f 13 46 29
f 13 29 19
f 14 19 29
f 14 29 48
f 14 48 78
f 14 78 108
f 14 108 105
f 14 105 81
f 14 81 54
f 14 54 32
f 14 32 21
f 15 22 23
f 15 23 18
f 16 24 25
f 16 25 26
f 16 26 17
f 16 18 27
f 16 27 28
f 16 28 24
f 18 23 27
f 20 30 31
f 21 32 33
f 22 34 23
f 23 35 27
f 23 34 36
f 23 36 35
f 24 37 38
f 24 38 25
f 24 28 39
f 24 39 37
f 25 38 37
f 25 37 26
f 26 37 40
f 27 41 42
f 27 42 43
f 27 43 28
f 27 35 44
f 27 44 45
f 27 45 41
f 28 43 39
f 29 46 47
f 29 47 48
f 30 49 31
f 31 49 51
f 31 51 52
f 31 52 53
f 31 53 50
f 32 54 55
f 32 55 56
f 32 56 33
f 33 56 58
f 33 58 57
f 35 36 59
f 35 59 44
f 36 60 59
f 37 61 40
f 37 39 61
f 39 43 62
f 39 62 63
f 39 63 53
f 39 53 52
f 39 52 64
f 39 64 61
f 40 61 65
f 41 66 42
f 41 45 67
f 41 67 66
f 42 66 43
f 43 66 62
f 44 59 68
f 44 68 69
f 44 69 45
f 45 69 70
f 45 70 71
f 45 71 67
f 46 72 47
f 47 72 73
f 47 73 74
f 47 74 75
f 47 75 76
f 47 76 48
f 48 76 77
f 48 77 78
f 49 65 61
f 49 61 51
f 50 53 79
f 51 61 52
f 52 61 64
f 53 63 80
f 53 80 79
f 54 81 82
f 54 82 55
f 55 58 56
f 55 82 83
f 55 83 84
f 55 84 85
f 55 85 86
f 55 86 58
f 57 58 87
f 58 86 87
f 59 60 88
f 59 88 89
f 59 89 69
f 59 69 68
f 62 90 80
f 62 80 63
f 62 66 91
f 62 91 92
f 62 92 93
f 62 93 94
f 62 94 95
f 62 95 90
f 66 67 91
f 67 71 96
f 67 96 92
f 67 92 91
f 69 89 97
f 69 97 70
f 70 97 98
f 70 98 99
f 70 99 100
f 70 100 96
f 70 96 71
f 72 101 73
f 72 102 101
f 73 103 74
f 73 101 103
f 74 103 75
f 75 84 83
f 75 83 104
f 75 104 105
f 75 105 106
f 75 106 76
f 75 103 107
f 75 107 84
f 76 106 77
f 77 106 108
f 77 108 78
f 79 80 90
f 79 90 109
f 79 109 110
f 81 105 104
f 81 104 82
f 82 104 83
f 84 107 85
f 85 107 111
f 85 111 112
f 85 112 99
f 85 99 113
f 85 113 114
f 85 114 115
f 85 115 86
f 86 115 116
f 86 116 87
f 89 117 97
f 90 95 118
f 90 118 109
f 92 96 93
f 93 96 119
f 93 119 118
f 93 118 94
f 94 118 95
f 96 100 120
f 96 120 121
f 96 121 122
f 96 122 119
f 97 117 123
f 97 123 98
f 98 123 124
f 98 124 125
f 98 125 126
f 98 126 113
f 98 113 99
f 99 112 120
f 99 120 100
f 101 102 127
f 101 127 128
f 101 128 103
f 102 110 129
f 102 129 127
f 103 128 130
f 103 130 122
f 103 122 121
f 103 121 131
f 103 131 132
f 103 132 107
f 105 108 106
f 107 132 111
f 109 118 110
f 110 118 129
f 111 132 112
f 112 132 120
f 113 126 133
f 113 133 125
f 113 125 114
f 114 125 134
f 114 134 115
f 115 135 116
f 115 134 135
f 118 119 129
f 119 122 127
f 119 127 129
f 120 132 131
f 120 131 121
f 122 130 127
f 124 136 125
f 125 133 126
f 125 136 137
f 125 137 134
f 127 130 128
