v -0.337056 -0.0222389 0.196158
v -0.390257 -0.0222389 -7.32645e-05
v -0.408797 -0.0222389 0.196158
v -0.300097 -0.238962 0.196158
v -0.45559 -0.0222389 -7.32645e-05
v -0.359661 -0.238962 -7.32645e-05
v -0.429286 -0.0222389 0.146697
v -0.408767 -0.0229814 0.196158
v -0.377851 -0.238962 0.196158
v -0.455605 -0.0222389 0.00772528
v -0.455559 -0.0231723 -7.32645e-05
v -0.42679 -0.238962 -7.32645e-05
v -0.435147 -0.0222389 0.13254
v -0.429789 -0.0235118 0.145352
v -0.407519 -0.0504324 0.196158
v -0.379023 -0.238962 0.193392
v -0.384244 -0.21149 0.196158
v -0.453565 -0.0231723 0.0231687
v -0.453596 -0.0222389 0.0231687
v -0.453596 -0.0695039 -7.32645e-05
v -0.453596 -0.0695039 0.00772528
v -0.451602 -0.0695039 0.0231687
v -0.42679 -0.238962 0.00770608
v -0.432468 -0.216666 -7.32645e-05
v -0.440657 -0.0222389 0.11581
v -0.435253 -0.0386162 0.130485
v -0.434903 -0.05406 0.12964
v -0.42784 -0.05406 0.146697
v -0.406651 -0.0695039 0.196158
v -0.384214 -0.238962 0.180888
v -0.411827 -0.208456 0.131254
v -0.384944 -0.208456 0.196158
v -0.399466 -0.178862 0.177603
v -0.448512 -0.05406 0.0516353
v -0.44944 -0.0222389 0.0548239
v -0.451571 -0.0222389 0.0386121
v -0.452439 -0.0849477 -7.32645e-05
v -0.452439 -0.0849477 0.00772528
v -0.447948 -0.0784987 0.0473711
v -0.441433 -0.0695039 0.100367
v -0.426744 -0.238962 0.00810945
v -0.432468 -0.216666 0.000848731
v -0.440003 -0.177568 -7.32645e-05
v -0.443443 -0.0222389 0.100367
v -0.438572 -0.0695039 0.11581
v -0.434538 -0.0695039 0.128795
v -0.417017 -0.0779895 0.170054
v -0.405403 -0.0849477 0.196158
v -0.398492 -0.238962 0.146409
v -0.41688 -0.200564 0.123417
v -0.404368 -0.238962 0.132214
v -0.402572 -0.174577 0.172494
v -0.417124 -0.170759 0.139475
v -0.419133 -0.176571 0.131369
v -0.418068 -0.190276 0.126298
v -0.388674 -0.192291 0.196158
v -0.392068 -0.177568 0.196158
v -0.444782 -0.0386162 0.0849424
v -0.445437 -0.0231723 0.0849424
v -0.448085 -0.1257 -7.32645e-05
v -0.44807 -0.0947274 0.0328881
v -0.450445 -0.0849477 0.0231687
v -0.448085 -0.1257 0.00219331
v -0.450627 -0.100392 0.00772528
v -0.448542 -0.0841628 0.0382664
v -0.440277 -0.0849477 0.100367
v -0.42475 -0.238962 0.0235529
v -0.433503 -0.208477 0.00668804
v -0.436699 -0.193012 0.00772528
v -0.440003 -0.177568 0.00772528
v -0.442682 -0.162125 -7.32645e-05
v -0.437369 -0.0849477 0.11581
v -0.433929 -0.0849477 0.127297
v -0.430732 -0.0849477 0.135018
v -0.416424 -0.0882783 0.168633
v -0.403637 -0.0991187 0.196158
v -0.417459 -0.21866 0.109721
v -0.410776 -0.238962 0.115791
v -0.410624 -0.238962 0.116194
v -0.40449 -0.238962 0.131907
v -0.424491 -0.177568 0.11581
v -0.392586 -0.174853 0.196158
v -0.394915 -0.162294 0.196158
v -0.417778 -0.162125 0.141031
v -0.421827 -0.162125 0.131254
v -0.447385 -0.0887875 0.0431837
v -0.448694 -0.100073 0.022919
v -0.447416 -0.105016 0.0278939
v -0.442529 -0.100392 0.069499
v -0.438465 -0.100392 0.100367
v -0.44871 -0.115602 0.00749478
v -0.442682 -0.162125 0.00772528
v -0.444691 -0.146681 0.00772528
v -0.447431 -0.120609 0.0124889
v -0.448085 -0.110299 0.0175983
v -0.422771 -0.238962 0.0386121
v -0.432255 -0.200204 0.0300068
v -0.431235 -0.208477 0.0241868
v -0.432924 -0.203344 0.0197112
v -0.438008 -0.177568 0.0231687
v -0.432437 -0.170186 0.0777586
v -0.432407 -0.139319 0.108261
v -0.435497 -0.100392 0.11581
v -0.432407 -0.108368 0.123609
v -0.432955 -0.100392 0.124934
v -0.429758 -0.100392 0.132656
v -0.403196 -0.102343 0.196158
v -0.416347 -0.228949 0.103709
v -0.427855 -0.177568 0.100367
v -0.414734 -0.238962 0.0993486
v -0.427262 -0.162125 0.11581
v -0.397076 -0.146808 0.196158
v -0.404322 -0.14685 0.178659
v -0.423974 -0.146681 0.131254
v -0.446715 -0.115602 0.022919
v -0.434568 -0.146681 0.0849424
v -0.431752 -0.149608 0.103421
v -0.440672 -0.162125 0.0231687
v -0.442697 -0.146681 0.0231687
v -0.41857 -0.238962 0.070517
v -0.432011 -0.183614 0.0590305
v -0.43335 -0.189851 0.0386121
v -0.430352 -0.176232 0.0837131
v -0.430854 -0.160873 0.0991181
v -0.431752 -0.165201 0.0880542
v -0.434599 -0.162125 0.069499
v -0.429926 -0.145344 0.114369
v -0.421827 -0.115814 0.146697
v -0.399588 -0.128585 0.196158
v -0.418037 -0.223836 0.099291
v -0.417032 -0.232089 0.0934325
v -0.415145 -0.238962 0.0964098
v -0.414947 -0.238071 0.099291
v -0.424537 -0.193012 0.100367
v -0.432894 -0.160873 0.0837131
v -0.432422 -0.154912 0.0931444
v -0.416667 -0.238962 0.0849424
f 1 2 5
f 1 5 10
f 1 10 19
f 1 19 36
f 1 36 35
f 1 35 44
f 1 44 25
f 1 25 13
f 1 13 7
f 1 7 3
f 1 3 8
f 1 8 15
f 1 15 29
f 1 29 48
f 1 48 76
f 1 76 107
f 1 107 129
f 1 129 112
f 1 112 83
f 1 83 82
f 1 82 57
f 1 57 56
f 1 56 32
f 1 32 17
f 1 17 9
f 1 9 4
f 1 4 2
f 2 4 6
f 2 6 12
f 2 12 24
f 2 24 43
f 2 43 71
f 2 71 60
f 2 60 37
f 2 37 20
f 2 20 11
f 2 11 5
f 3 7 8
f 4 9 16
f 4 16 30
f 4 30 49
f 4 49 51
f 4 51 80
f 4 80 79
f 4 79 78
f 4 78 110
f 4 110 132
f 4 132 137
f 4 137 120
f 4 120 96
f 4 96 67
f 4 67 41
f 4 41 23
f 4 23 12
f 4 12 6
f 5 11 10
f 7 13 14
f 7 14 8
f 8 14 15
f 9 17 16
f 10 18 19
f 10 11 20
f 10 20 21
f 10 21 22
f 10 22 18
f 12 23 42
f 12 42 24
f 13 25 26
f 13 26 27
f 13 27 14
f 14 27 28
f 14 28 29
f 14 29 15
f 16 17 30
f 17 31 30
f 17 32 33
f 17 33 31
f 18 34 35
f 18 35 36
f 18 36 19
f 18 22 34
f 20 37 38
f 20 38 21
f 21 38 39
f 21 39 22
f 22 39 40
f 22 40 34
f 23 41 42
f 24 42 70
f 24 70 43
f 25 27 26
f 25 44 40
f 25 40 45
f 25 45 46
f 25 46 27
f 27 46 29
f 27 29 28
f 29 46 47
f 29 47 48
f 30 31 49
f 31 50 51
f 31 51 49
f 31 33 52
f 31 52 53
f 31 53 54
f 31 54 55
f 31 55 50
f 32 56 33
f 33 56 57
f 33 57 52
f 34 58 59
f 34 59 35
f 34 40 58
f 35 59 44
f 37 60 63
f 37 63 38
f 38 61 62
f 38 62 39
f 38 63 64
f 38 64 61
f 39 62 65
f 39 65 66
f 39 66 40
f 40 66 45
f 40 44 58
f 41 67 68
f 41 68 42
f 42 68 69
f 42 69 70
f 43 70 92
f 43 92 71
f 44 59 58
f 45 66 72
f 45 72 73
f 45 73 46
f 46 73 47
f 47 73 74
f 47 74 75
f 47 75 48
f 48 75 76
f 50 77 78
f 50 78 79
f 50 79 80
f 50 80 51
f 50 55 81
f 50 81 77
f 52 57 82
f 52 82 83
f 52 83 53
f 53 83 84
f 53 84 85
f 53 85 54
f 54 85 81
f 54 81 55
f 60 71 92
f 60 92 63
f 61 66 86
f 61 86 62
f 61 64 87
f 61 87 88
f 61 88 89
f 61 89 90
f 61 90 66
f 62 86 66
f 62 66 65
f 63 91 64
f 63 92 93
f 63 93 91
f 64 91 94
f 64 94 95
f 64 95 87
f 66 90 72
f 67 96 97
f 67 97 98
f 67 98 99
f 67 99 68
f 68 99 69
f 69 100 70
f 69 99 100
f 70 100 101
f 70 101 92
f 72 90 102
f 72 102 103
f 72 103 104
f 72 104 105
f 72 105 73
f 73 75 74
f 73 105 75
f 75 105 76
f 76 105 106
f 76 106 107
f 77 108 78
f 77 81 109
f 77 109 108
f 78 108 110
f 81 85 111
f 81 111 109
f 83 112 113
f 83 113 84
f 84 113 85
f 85 113 114
f 85 114 104
f 85 104 111
f 87 95 88
f 88 95 115
f 88 115 90
f 88 90 89
f 90 115 116
f 90 116 117
f 90 117 102
f 91 93 94
f 92 101 118
f 92 118 119
f 92 119 93
f 93 119 94
f 94 115 95
f 94 119 115
f 96 120 121
f 96 121 97
f 97 99 98
f 97 121 122
f 97 122 100
f 97 100 99
f 100 122 101
f 101 123 109
f 101 109 124
f 101 124 125
f 101 125 126
f 101 126 118
f 101 122 121
f 101 121 123
f 102 117 124
f 102 124 111
f 102 111 127
f 102 127 104
f 102 104 103
f 104 128 105
f 104 127 111
f 104 114 128
f 105 128 106
f 106 128 107
f 107 128 129
f 108 130 131
f 108 131 132
f 108 132 133
f 108 133 110
f 108 109 134
f 108 134 130
f 109 123 134
f 109 111 124
f 110 133 132
f 112 129 113
f 113 129 128
f 113 128 114
f 115 119 116
f 116 119 135
f 116 135 136
f 116 136 117
f 117 136 124
f 118 126 119
f 119 126 135
f 120 137 131
f 120 131 123
f 120 123 121
f 123 131 130
f 123 130 134
f 124 136 135
f 124 135 125
f 125 135 126
f 131 137 132
