v 0.235201 -0.405415 -0.183913
v 0.322801 -0.405415 -0.183913
v 0.299779 -0.405415 -7.32645e-05
v 0.39025 -0.0222389 -7.32645e-05
v 0.34345 -0.0222389 -0.183913
v 0.324592 -0.402677 -0.183913
v 0.325175 -0.405415 -0.179738
v 0.371327 -0.405415 -7.32645e-05
v 0.455605 -0.0222389 -7.32645e-05
v 0.413876 -0.0222389 -0.183913
v 0.339092 -0.369108 -0.183913
v 0.339113 -0.369183 -0.183823
v 0.32662 -0.405415 -0.176301
v 0.371327 -0.405415 -0.00772124
v 0.386129 -0.370795 -7.32645e-05
v 0.455605 -0.0222389 -0.000541142
v 0.453922 -0.0616967 -7.32645e-05
v 0.43515 -0.0222389 -0.132554
v 0.412668 -0.0487942 -0.183913
v 0.342479 -0.361006 -0.183913
v 0.351347 -0.346978 -0.17711
v 0.34386 -0.363556 -0.178226
v 0.337258 -0.378897 -0.178226
v 0.341465 -0.405415 -0.140472
v 0.369601 -0.405415 -0.0211997
v 0.371759 -0.404365 -0.00772124
v 0.386129 -0.370795 -0.000721094
v 0.394522 -0.347428 -7.32645e-05
v 0.454246 -0.0540827 -0.00772124
v 0.455562 -0.0231766 -0.00772124
v 0.455583 -0.0222389 -0.00772124
v 0.453577 -0.0694983 -7.32645e-05
v 0.453577 -0.0694983 -0.00772124
v 0.44035 -0.0222389 -0.116736
v 0.435237 -0.0386296 -0.130485
v 0.434892 -0.0540827 -0.129639
v 0.434546 -0.0694983 -0.128793
v 0.431353 -0.0694983 -0.136513
v 0.411718 -0.0694983 -0.183913
v 0.348175 -0.347278 -0.183913
v 0.353742 -0.335463 -0.181933
v 0.3559 -0.341502 -0.17164
v 0.353742 -0.351817 -0.166457
v 0.355878 -0.356843 -0.156164
v 0.370442 -0.35478 -0.123143
v 0.372578 -0.359731 -0.112849
v 0.343429 -0.405415 -0.135721
v 0.368997 -0.405415 -0.0258064
v 0.38779 -0.359506 -0.0231791
v 0.385481 -0.369183 -0.0110144
v 0.382935 -0.376909 -0.00662353
v 0.388286 -0.363556 -0.00662353
v 0.394522 -0.347428 -0.00772124
v 0.402074 -0.326199 -7.32645e-05
v 0.452908 -0.0386296 -0.0231791
v 0.451592 -0.0694983 -0.0231791
v 0.453598 -0.0222389 -0.0231791
v 0.455476 -0.0222389 -0.00865699
v 0.453016 -0.0771498 -7.32645e-05
v 0.452433 -0.0849513 -0.00772124
v 0.447945 -0.0785 -0.0473647
v 0.440653 -0.0222389 -0.115801
v 0.417005 -0.0779749 -0.170056
v 0.43925 -0.0540827 -0.115801
v 0.43856 -0.0694983 -0.115801
v 0.433921 -0.0849513 -0.1273
v 0.411114 -0.0772623 -0.183913
v 0.353181 -0.334601 -0.183913
v 0.355878 -0.326537 -0.183913
v 0.357238 -0.331 -0.17711
v 0.370442 -0.339289 -0.138619
v 0.372578 -0.344465 -0.128325
v 0.375448 -0.348741 -0.117114
v 0.385007 -0.336589 -0.103492
v 0.370356 -0.370008 -0.107253
v 0.355619 -0.402527 -0.109196
v 0.353203 -0.405415 -0.11204
v 0.367314 -0.405415 -0.038619
v 0.386193 -0.35553 -0.0474727
v 0.392515 -0.347428 -0.0231791
v 0.387747 -0.344128 -0.0694989
v 0.386711 -0.341502 -0.0849388
v 0.399851 -0.3316 -0.00896291
v 0.402074 -0.326199 -0.00464406
v 0.417091 -0.27849 -7.32645e-05
v 0.45088 -0.0386296 -0.038619
v 0.449564 -0.0694983 -0.038619
v 0.449542 -0.0222389 -0.054059
v 0.452433 -0.0849513 -7.32645e-05
v 0.448075 -0.125722 -0.0021967
v 0.450621 -0.100404 -0.00772124
v 0.448075 -0.0947408 -0.0328966
v 0.450427 -0.0849513 -0.0231791
v 0.446586 -0.0841637 -0.0531412
v 0.442314 -0.0849513 -0.0849388
v 0.440264 -0.0849513 -0.100361
v 0.441429 -0.0694983 -0.100361
v 0.448183 -0.0694983 -0.0491283
v 0.443436 -0.0222389 -0.100361
v 0.442745 -0.0386296 -0.100361
v 0.413811 -0.0838636 -0.176157
v 0.410532 -0.0843512 -0.183913
v 0.430727 -0.0849513 -0.13502
v 0.437373 -0.0849513 -0.115801
v 0.43295 -0.100404 -0.124942
v 0.416422 -0.0882895 -0.168635
v 0.357043 -0.323011 -0.183913
v 0.372363 -0.276427 -0.183913
v 0.39025 -0.286816 -0.132482
v 0.37493 -0.33325 -0.13259
v 0.382633 -0.331638 -0.115225
v 0.38669 -0.326274 -0.1097
v 0.38615 -0.340002 -0.0931986
v 0.382374 -0.346078 -0.099155
v 0.374456 -0.364082 -0.101404
v 0.40203 -0.279727 -0.10952
v 0.37178 -0.373571 -0.0969596
v 0.357928 -0.405415 -0.099317
v 0.356223 -0.405415 -0.104176
v 0.361208 -0.405415 -0.0849388
v 0.372902 -0.376309 -0.0849388
v 0.378296 -0.362881 -0.0849388
v 0.384726 -0.351854 -0.0694989
v 0.388308 -0.348178 -0.0531952
v 0.383712 -0.349229 -0.0849388
v 0.397888 -0.331975 -0.0231791
v 0.401405 -0.324061 -0.0149373
v 0.416444 -0.276352 -0.0116442
v 0.418731 -0.270801 -0.00700143
v 0.417091 -0.27849 -0.00135093
v 0.423111 -0.254785 -7.32645e-05
v 0.445356 -0.0222389 -0.0858565
v 0.448075 -0.125722 -7.32645e-05
v 0.442681 -0.162142 -0.00772124
v 0.444687 -0.146726 -0.00772124
v 0.448096 -0.110306 -0.0176006
v 0.448701 -0.100067 -0.0229092
v 0.447428 -0.120621 -0.01249
v 0.447384 -0.0888146 -0.0431898
v 0.434568 -0.146726 -0.0849388
v 0.44253 -0.100404 -0.0694989
v 0.438452 -0.100404 -0.100361
v 0.43241 -0.139337 -0.108261
v 0.409323 -0.0940656 -0.183913
v 0.435496 -0.100404 -0.115801
v 0.432389 -0.108393 -0.123611
v 0.429756 -0.100404 -0.132662
v 0.423974 -0.146726 -0.131241
v 0.411157 -0.100404 -0.177578
v 0.408525 -0.100442 -0.183913
v 0.374391 -0.2702 -0.183913
v 0.377023 -0.2702 -0.177578
v 0.387078 -0.265662 -0.15692
v 0.397176 -0.268963 -0.129927
v 0.384575 -0.319785 -0.119993
v 0.401642 -0.262962 -0.123898
v 0.40285 -0.28239 -0.100361
v 0.406605 -0.2702 -0.100361
v 0.389775 -0.331975 -0.0849388
v 0.403196 -0.268963 -0.115117
v 0.40695 -0.254785 -0.115801
v 0.41092 -0.254785 -0.100361
v 0.360345 -0.405415 -0.0887358
v 0.403239 -0.314572 -0.0231791
v 0.415688 -0.273914 -0.0231791
v 0.41804 -0.266187 -0.0231791
v 0.423111 -0.254785 -0.00772124
v 0.432475 -0.216677 -7.32645e-05
v 0.442681 -0.162142 -7.32645e-05
v 0.440005 -0.177595 -0.00772124
v 0.432432 -0.170206 -0.0777407
v 0.440674 -0.162142 -0.0231791
v 0.442681 -0.146726 -0.0231791
v 0.432432 -0.15494 -0.0931266
v 0.436488 -0.11582 -0.100361
v 0.431741 -0.149652 -0.10342
v 0.430857 -0.160904 -0.099101
v 0.427253 -0.162142 -0.115801
v 0.431698 -0.118671 -0.121109
v 0.421816 -0.162142 -0.131241
v 0.417781 -0.162142 -0.14103
v 0.400908 -0.155803 -0.183913
v 0.404318 -0.146876 -0.178658
v 0.403347 -0.138099 -0.183913
v 0.406411 -0.11582 -0.183913
v 0.376031 -0.264762 -0.183913
v 0.384942 -0.258423 -0.167213
v 0.399549 -0.254785 -0.1343
v 0.402742 -0.254785 -0.12658
v 0.416659 -0.261461 -0.0443415
v 0.408676 -0.2702 -0.0849388
v 0.403649 -0.286629 -0.0851187
v 0.401167 -0.292405 -0.0903733
v 0.404404 -0.239332 -0.131924
v 0.410683 -0.239332 -0.115801
v 0.417458 -0.218628 -0.109718
v 0.414955 -0.238057 -0.099281
v 0.415926 -0.242407 -0.0849388
v 0.416595 -0.245521 -0.0747175
v 0.412991 -0.254785 -0.0849388
v 0.416336 -0.228942 -0.103708
v 0.405332 -0.301107 -0.038619
v 0.410726 -0.2702 -0.0694989
v 0.417328 -0.263862 -0.0340483
v 0.421104 -0.254785 -0.0231791
v 0.417264 -0.248446 -0.0644242
v 0.426714 -0.239332 -0.00772124
v 0.432475 -0.216677 -0.000847063
v 0.440005 -0.177595 -7.32645e-05
v 0.436682 -0.193048 -0.00772124
v 0.432928 -0.203362 -0.0197241
v 0.437999 -0.177595 -0.0231791
v 0.431763 -0.165217 -0.0880519
v 0.430792 -0.192373 -0.053951
v 0.421212 -0.208501 -0.100361
v 0.427858 -0.177595 -0.100361
v 0.424492 -0.177595 -0.115801
v 0.419141 -0.176619 -0.131366
v 0.417134 -0.170806 -0.139464
v 0.400455 -0.162142 -0.182833
v 0.400261 -0.160379 -0.183913
v 0.402138 -0.146876 -0.183913
v 0.37903 -0.25471 -0.183913
v 0.386323 -0.248146 -0.170542
v 0.400887 -0.24447 -0.137539
v 0.417954 -0.251184 -0.054059
v 0.391889 -0.239332 -0.162138
v 0.390012 -0.208501 -0.183913
v 0.39135 -0.202725 -0.183913
v 0.402333 -0.204412 -0.156452
v 0.411826 -0.208501 -0.131241
v 0.416875 -0.200587 -0.123413
v 0.420651 -0.239332 -0.054059
v 0.424707 -0.239332 -0.0231791
v 0.431806 -0.213677 -0.0111403
v 0.433489 -0.208501 -0.00669551
v 0.418062 -0.19031 -0.12631
v 0.415947 -0.181083 -0.136603
v 0.40257 -0.174594 -0.172486
v 0.400002 -0.162142 -0.183913
v 0.399463 -0.178907 -0.177614
v 0.380885 -0.247321 -0.183913
v 0.38287 -0.239332 -0.183913
v 0.39696 -0.178382 -0.183913
f 1 2 7
f 1 7 13
f 1 13 24
f 1 24 47
f 1 47 77
f 1 77 119
f 1 119 118
f 1 118 163
f 1 163 120
f 1 120 78
f 1 78 48
f 1 48 25
f 1 25 14
f 1 14 8
f 1 8 3
f 1 3 4
f 1 4 5
f 1 5 10
f 1 10 19
f 1 19 39
f 1 39 67
f 1 67 102
f 1 102 144
f 1 144 150
f 1 150 185
f 1 185 184
f 1 184 222
f 1 222 182
f 1 182 221
f 1 221 240
f 1 240 244
f 1 244 229
f 1 229 228
f 1 228 243
f 1 243 242
f 1 242 223
f 1 223 186
f 1 186 151
f 1 151 108
f 1 108 107
f 1 107 69
f 1 69 68
f 1 68 40
f 1 40 20
f 1 20 11
f 1 11 6
f 1 6 2
f 2 6 7
f 3 8 15
f 3 15 28
f 3 28 54
f 3 54 85
f 3 85 131
f 3 131 168
f 3 168 209
f 3 209 169
f 3 169 133
f 3 133 89
f 3 89 59
f 3 59 32
f 3 32 17
f 3 17 9
f 3 9 4
f 4 9 16
f 4 16 31
f 4 31 58
f 4 58 57
f 4 57 88
f 4 88 132
f 4 132 99
f 4 99 62
f 4 62 34
f 4 34 18
f 4 18 10
f 4 10 5
f 6 11 12
f 6 12 7
f 7 12 13
f 8 14 27
f 8 27 15
f 9 17 16
f 10 18 19
f 11 20 12
f 12 20 21
f 12 21 22
f 12 22 23
f 12 23 13
f 13 23 24
f 14 25 26
f 14 26 27
f 15 27 53
f 15 53 28
f 16 17 29
f 16 29 30
f 16 30 31
f 17 32 33
f 17 33 29
f 18 34 35
f 18 35 36
f 18 36 37
f 18 37 38
f 18 38 19
f 19 38 39
f 20 40 21
f 21 40 41
f 21 41 42
f 21 42 43
f 21 43 22
f 22 43 44
f 22 44 45
f 22 45 46
f 22 46 23
f 23 46 24
f 24 46 47
f 25 48 49
f 25 49 50
f 25 50 26
f 26 50 51
f 26 51 27
f 27 51 50
f 27 50 52
f 27 52 53
f 28 53 84
f 28 84 54
f 29 55 30
f 29 33 56
f 29 56 55
f 30 57 58
f 30 58 31
f 30 55 57
f 32 59 33
f 33 59 60
f 33 60 61
f 33 61 56
f 34 62 37
f 34 37 36
f 34 36 35
f 37 63 38
f 37 62 64
f 37 64 65
f 37 65 66
f 37 66 63
f 38 63 39
f 39 63 67
f 40 68 41
f 41 68 69
f 41 69 70
f 41 70 71
f 41 71 42
f 42 71 72
f 42 72 73
f 42 73 45
f 42 45 43
f 43 45 44
f 45 73 46
f 46 73 74
f 46 74 75
f 46 75 76
f 46 76 77
f 46 77 47
f 48 78 49
f 49 79 53
f 49 53 52
f 49 52 50
f 49 78 79
f 53 79 80
f 53 80 81
f 53 81 82
f 53 82 83
f 53 83 84
f 54 84 130
f 54 130 85
f 55 86 88
f 55 88 57
f 55 56 87
f 55 87 86
f 56 61 87
f 59 89 60
f 60 89 133
f 60 133 90
f 60 90 91
f 60 91 92
f 60 92 93
f 60 93 61
f 61 93 94
f 61 94 95
f 61 95 96
f 61 96 97
f 61 97 98
f 61 98 87
f 62 99 100
f 62 100 97
f 62 97 64
f 63 101 102
f 63 102 67
f 63 66 103
f 63 103 101
f 64 97 65
f 65 97 96
f 65 96 104
f 65 104 66
f 66 104 105
f 66 105 106
f 66 106 103
f 69 107 70
f 70 107 108
f 70 108 109
f 70 109 110
f 70 110 71
f 71 73 72
f 71 110 111
f 71 111 73
f 73 111 112
f 73 112 74
f 74 113 114
f 74 114 115
f 74 115 75
f 74 112 116
f 74 116 113
f 75 115 117
f 75 117 118
f 75 118 119
f 75 119 76
f 76 119 77
f 78 120 79
f 79 121 122
f 79 122 123
f 79 123 81
f 79 81 124
f 79 124 80
f 79 120 121
f 80 124 81
f 81 123 125
f 81 125 82
f 82 113 83
f 82 125 113
f 83 126 127
f 83 127 84
f 83 113 126
f 84 127 128
f 84 128 129
f 84 129 130
f 85 130 167
f 85 167 131
f 86 132 88
f 86 87 98
f 86 98 132
f 90 133 169
f 90 169 134
f 90 134 135
f 90 135 91
f 91 136 137
f 91 137 92
f 91 135 138
f 91 138 136
f 92 139 93
f 92 137 136
f 92 136 140
f 92 140 141
f 92 141 142
f 92 142 95
f 92 95 139
f 93 139 94
f 94 139 95
f 95 142 96
f 96 142 143
f 96 143 104
f 97 100 98
f 98 100 132
f 99 132 100
f 101 103 106
f 101 106 102
f 102 106 144
f 104 145 146
f 104 146 105
f 104 143 145
f 105 147 106
f 105 146 148
f 105 148 147
f 106 147 149
f 106 149 150
f 106 150 144
f 108 151 152
f 108 152 153
f 108 153 154
f 108 154 109
f 109 155 110
f 109 154 156
f 109 156 155
f 110 155 112
f 110 112 111
f 112 155 156
f 112 156 116
f 113 125 122
f 113 122 121
f 113 121 120
f 113 120 117
f 113 117 114
f 113 116 157
f 113 157 158
f 113 158 159
f 113 159 126
f 114 117 115
f 116 156 160
f 116 160 161
f 116 161 162
f 116 162 158
f 116 158 157
f 117 120 163
f 117 163 118
f 122 125 123
f 126 159 127
f 127 159 164
f 127 164 128
f 128 165 166
f 128 166 129
f 128 164 165
f 129 166 167
f 129 167 130
f 131 167 208
f 131 208 168
f 134 170 171
f 134 171 172
f 134 172 173
f 134 173 135
f 134 169 209
f 134 209 170
f 135 173 136
f 135 136 138
f 136 173 140
f 140 173 174
f 140 174 175
f 140 175 141
f 141 175 142
f 142 175 143
f 143 176 177
f 143 177 178
f 143 178 179
f 143 179 146
f 143 146 145
f 143 175 176
f 146 179 178
f 146 178 180
f 146 180 148
f 147 148 149
f 148 180 181
f 148 181 182
f 148 182 183
f 148 183 149
f 149 183 184
f 149 184 185
f 149 185 150
f 151 186 153
f 151 153 152
f 153 186 187
f 153 187 156
f 153 156 154
f 156 187 188
f 156 188 189
f 156 189 161
f 156 161 160
f 158 190 191
f 158 191 192
f 158 192 193
f 158 193 159
f 158 162 190
f 159 193 192
f 159 192 164
f 161 189 194
f 161 194 195
f 161 195 196
f 161 196 162
f 162 197 198
f 162 198 199
f 162 199 200
f 162 200 190
f 162 196 201
f 162 201 197
f 164 192 202
f 164 202 165
f 165 203 204
f 165 204 166
f 165 202 192
f 165 192 203
f 166 204 167
f 167 204 190
f 167 190 205
f 167 205 206
f 167 206 207
f 167 207 208
f 168 208 170
f 168 170 209
f 170 208 210
f 170 210 211
f 170 211 212
f 170 212 171
f 171 213 172
f 171 212 211
f 171 211 214
f 171 214 215
f 171 215 216
f 171 216 213
f 172 213 173
f 173 213 174
f 174 213 177
f 174 177 176
f 174 176 175
f 177 213 216
f 177 216 178
f 178 216 217
f 178 217 180
f 180 217 218
f 180 218 219
f 180 219 181
f 181 219 220
f 181 220 221
f 181 221 182
f 182 222 183
f 183 222 184
f 186 223 187
f 187 223 188
f 188 223 224
f 188 224 189
f 189 224 225
f 189 225 194
f 190 204 191
f 190 200 226
f 190 226 205
f 191 204 203
f 191 203 192
f 194 225 227
f 194 227 228
f 194 228 229
f 194 229 230
f 194 230 231
f 194 231 232
f 194 232 195
f 195 232 196
f 196 232 217
f 196 217 216
f 196 216 201
f 197 201 215
f 197 215 198
f 198 233 199
f 198 215 211
f 198 211 233
f 199 206 200
f 199 233 234
f 199 234 206
f 200 206 226
f 201 216 215
f 205 226 206
f 206 234 207
f 207 234 211
f 207 211 235
f 207 235 208
f 208 235 236
f 208 236 210
f 210 236 211
f 211 215 214
f 211 236 235
f 211 234 233
f 217 232 237
f 217 237 218
f 218 237 231
f 218 231 238
f 218 238 219
f 219 239 240
f 219 240 220
f 219 238 241
f 219 241 239
f 220 240 221
f 223 242 224
f 224 242 243
f 224 243 225
f 225 243 227
f 227 243 228
f 229 244 241
f 229 241 238
f 229 238 230
f 230 238 231
f 231 237 232
f 239 241 244
f 239 244 240
