v -0.117409 0.609877 -0.101403
v -0.155346 0.609877 -8.31819e-05
v -0.155346 0.609729 -8.31819e-05
v -0.157331 0.5945 -8.31819e-05
v -0.120037 0.5945 -0.101403
v -0.196303 0.609877 -0.101403
v -0.221268 0.609877 -8.31819e-05
v -0.160462 0.579049 -8.31819e-05
v -0.120848 0.591257 -0.101403
v -0.197505 0.609877 -0.099112
v -0.310898 0.505087 -0.101403
v -0.221268 0.609877 -0.00773055
v -0.339749 0.494167 -8.31819e-05
v -0.123951 0.579049 -0.101403
v -0.163789 0.569838 -8.31819e-05
v -0.197701 0.609877 -0.0986657
v -0.314169 0.502066 -0.101403
v -0.324932 0.494836 -0.0943014
v -0.20975 0.609877 -0.0695641
v -0.203208 0.609877 -0.0855531
v -0.219283 0.609877 -0.0231641
v -0.329489 0.499565 -0.0386076
v -0.330524 0.500481 -0.0231641
v -0.333151 0.499936 -0.00635184
v -0.339749 0.494167 -0.000281559
v -0.387192 0.418595 -8.31819e-05
v -0.130101 0.564589 -0.101403
v -0.166585 0.562112 -8.31819e-05
v -0.315427 0.500902 -0.101403
v -0.323478 0.493127 -0.101403
v -0.328874 0.486887 -0.0998163
v -0.339134 0.477725 -0.089352
v -0.334633 0.485129 -0.0844918
v -0.326078 0.496098 -0.0849282
v -0.214671 0.609877 -0.0534957
v -0.209778 0.609877 -0.0694847
v -0.217215 0.609877 -0.038568
v -0.320571 0.5063 -0.0540412
v -0.327392 0.497559 -0.0694847
v -0.339078 0.493325 -0.0105772
v -0.343719 0.487481 -0.00635184
v -0.387192 0.418595 -0.00773055
v -0.392 0.409211 -8.31819e-05
v -0.130744 0.563301 -0.101403
v -0.172316 0.548791 -8.31819e-05
v -0.326861 0.488695 -0.101403
v -0.328622 0.486367 -0.101403
v -0.340001 0.479162 -0.0790563
v -0.337261 0.47416 -0.100372
v -0.37271 0.419808 -0.101403
v -0.372878 0.420031 -0.100372
v -0.374388 0.422037 -0.0849282
v -0.335136 0.487828 -0.0694847
v -0.319536 0.50526 -0.0694847
v -0.337205 0.490824 -0.0386076
v -0.33824 0.492236 -0.0231641
v -0.343691 0.48451 -0.0231641
v -0.386465 0.41758 -0.0188296
v -0.392 0.409211 -0.00773055
v -0.394796 0.401435 -8.31819e-05
v -0.138684 0.548172 -0.101403
v -0.180619 0.533909 -8.31819e-05
v -0.337009 0.473813 -0.101403
v -0.340644 0.480152 -0.0694847
v -0.385794 0.41649 -0.0291253
v -0.378609 0.409235 -0.101403
v -0.378945 0.409211 -0.100372
v -0.382607 0.407923 -0.0841744
v -0.38311 0.410969 -0.0694847
v -0.384117 0.413172 -0.0540412
v -0.385151 0.415252 -0.0386076
v -0.34165 0.481662 -0.0540412
v -0.342657 0.483123 -0.0386076
v -0.397536 0.393784 -0.00773055
v -0.388841 0.407527 -0.0386076
v -0.387807 0.405447 -0.0540412
v -0.386801 0.403243 -0.0694847
v -0.386213 0.401906 -0.0785207
v -0.397536 0.393784 -8.31819e-05
v -0.148413 0.53438 -0.101403
v -0.186183 0.526184 -8.31819e-05
v -0.384368 0.394106 -0.101403
v -0.384508 0.394106 -0.100967
v -0.385515 0.399479 -0.0888164
v -0.399745 0.378333 -0.00773055
v -0.402988 0.356939 -0.00505248
v -0.395551 0.393784 -0.0231641
v -0.39351 0.356939 -0.0853845
v -0.394768 0.356939 -0.075555
v -0.402988 0.356939 -8.31819e-05
v -0.149363 0.533315 -0.101403
v -0.193004 0.517294 -8.31819e-05
v -0.196387 0.512986 -8.31819e-05
v -0.199853 0.508628 -8.31819e-05
v -0.326889 0.356939 -8.31819e-05
v -0.384592 0.392893 -0.101403
v -0.386241 0.383756 -0.101403
v -0.386773 0.389179 -0.0962257
v -0.387444 0.394106 -0.0841744
v -0.389456 0.393784 -0.0694847
v -0.390938 0.356939 -0.101086
v -0.309808 0.356939 -0.101403
v -0.390854 0.356939 -0.101403
f 1 2 3
f 1 3 4
f 1 4 5
f 1 5 9
f 1 9 14
f 1 14 27
f 1 27 44
f 1 44 61
f 1 61 80
f 1 80 91
f 1 91 102
f 1 102 103
f 1 103 97
f 1 97 96
f 1 96 82
f 1 82 66
f 1 66 50
f 1 50 63
f 1 63 47
f 1 47 46
f 1 46 30
f 1 30 29
f 1 29 17
f 1 17 11
f 1 11 6
f 1 6 10
f 1 10 16
f 1 16 20
f 1 20 19
f 1 19 36
f 1 36 35
f 1 35 37
f 1 37 21
f 1 21 12
f 1 12 7
f 1 7 2
f 2 7 13
f 2 13 26
f 2 26 43
f 2 43 60
f 2 60 79
f 2 79 90
f 2 90 95
f 2 95 94
f 2 94 93
f 2 93 92
f 2 92 81
f 2 81 62
f 2 62 45
f 2 45 28
f 2 28 15
f 2 15 8
f 2 8 4
f 2 4 3
f 4 8 5
f 5 8 9
f 6 11 10
f 7 12 25
f 7 25 13
f 8 14 9
f 8 15 14
f 10 11 16
f 11 17 18
f 11 18 19
f 11 19 20
f 11 20 16
f 12 21 22
f 12 22 23
f 12 23 24
f 12 24 25
f 13 25 42
f 13 42 26
f 14 15 28
f 14 28 27
f 17 29 18
f 18 29 30
f 18 30 31
f 18 31 32
f 18 32 33
f 18 33 34
f 18 34 35
f 18 35 36
f 18 36 19
f 21 37 38
f 21 38 22
f 22 38 39
f 22 39 25
f 22 25 23
f 23 25 24
f 25 39 40
f 25 40 41
f 25 41 42
f 26 42 59
f 26 59 43
f 27 28 45
f 27 45 44
f 30 46 31
f 31 47 32
f 31 46 47
f 32 48 33
f 32 47 49
f 32 49 50
f 32 50 51
f 32 51 52
f 32 52 48
f 33 48 53
f 33 53 34
f 34 53 39
f 34 39 54
f 34 54 35
f 35 54 37
f 37 54 39
f 37 39 38
f 39 53 55
f 39 55 56
f 39 56 40
f 40 56 57
f 40 57 41
f 41 57 42
f 42 58 59
f 42 57 58
f 43 59 60
f 44 45 61
f 45 62 61
f 47 63 49
f 48 64 53
f 48 52 65
f 48 65 64
f 49 63 50
f 50 66 67
f 50 67 51
f 51 67 68
f 51 68 52
f 52 68 69
f 52 69 70
f 52 70 71
f 52 71 65
f 53 64 55
f 55 64 72
f 55 72 73
f 55 73 56
f 56 73 57
f 57 73 58
f 58 65 59
f 58 73 72
f 58 72 64
f 58 64 65
f 59 74 60
f 59 65 75
f 59 75 76
f 59 76 77
f 59 77 78
f 59 78 74
f 60 74 79
f 61 62 80
f 62 81 80
f 65 71 75
f 66 82 83
f 66 83 67
f 67 83 84
f 67 84 68
f 68 70 69
f 68 84 78
f 68 78 77
f 68 77 76
f 68 76 70
f 70 76 75
f 70 75 71
f 74 85 86
f 74 86 90
f 74 90 79
f 74 78 87
f 74 87 88
f 74 88 89
f 74 89 85
f 78 84 87
f 80 81 92
f 80 92 93
f 80 93 94
f 80 94 95
f 80 95 91
f 82 96 83
f 83 96 97
f 83 97 98
f 83 98 84
f 84 98 99
f 84 99 100
f 84 100 87
f 85 89 86
f 86 89 88
f 86 88 101
f 86 101 103
f 86 103 102
f 86 102 95
f 86 95 90
f 87 100 98
f 87 98 88
f 88 98 101
f 91 95 102
f 97 103 98
f 98 100 99
f 98 103 101
