v 0.060396 0.609946 0.142624
v 0.0660174 0.610012 0.142624
v 0.0642422 0.5986 0.142624
v 7.2114e-05 0.609733 0.155355
v 7.2114e-05 0.610012 0.155355
v 0.168321 0.610012 0.142624
v 0.0656558 0.594501 0.142624
v 7.2114e-05 0.602158 0.156321
v 0.0720334 0.581564 0.142624
v 7.2114e-05 0.610012 0.221251
v 0.165724 0.610012 0.146224
v 0.293637 0.494435 0.170282
v 0.285254 0.504601 0.162709
v 0.290153 0.506929 0.146707
v 0.291007 0.507667 0.142624
v 7.2114e-05 0.594501 0.157331
v 0.0733483 0.579351 0.142624
v 7.2114e-05 0.494189 0.33974
v 0.00773176 0.610012 0.221251
v 0.157177 0.610012 0.156431
v 0.22973 0.508601 0.229746
v 0.240579 0.50301 0.225531
v 0.250967 0.497435 0.221317
v 0.284991 0.497763 0.176296
v 0.279436 0.495468 0.187271
v 0.247022 0.494123 0.231612
v 0.261289 0.492894 0.2146
v 0.289725 0.490123 0.180576
v 0.294295 0.479826 0.186503
v 0.296629 0.485548 0.176296
v 0.307905 0.477055 0.167648
v 0.303697 0.485892 0.162357
v 0.30636 0.491057 0.146707
v 0.307214 0.492156 0.142624
v 0.29538 0.496189 0.16216
v 0.298634 0.499206 0.146707
v 0.29939 0.500042 0.142624
v 7.2114e-05 0.586713 0.158911
v 0.0848871 0.562955 0.142624
v 0.0962287 0.548165 0.142624
v 7.2114e-05 0.493976 0.339872
v 0.000302227 0.494189 0.33974
v 0.00635106 0.499944 0.333155
v 0.0231826 0.500501 0.330521
v 0.0386334 0.499583 0.329489
v 0.0231826 0.610012 0.219253
v 0.156881 0.610012 0.156782
v 0.225522 0.50301 0.240589
v 0.231571 0.494123 0.247065
v 0.236732 0.498304 0.23677
v 0.14623 0.610012 0.165716
v 0.240874 0.491434 0.240897
v 0.247581 0.479367 0.247614
v 0.250835 0.483039 0.23936
v 0.265826 0.482597 0.220527
v 0.28006 0.481236 0.203515
v 0.296464 0.469578 0.19221
v 0.315236 0.442508 0.189291
v 0.305077 0.471529 0.178096
v 0.261848 0.477744 0.230821
v 0.276115 0.475842 0.21381
v 0.29035 0.473808 0.196798
v 0.3106 0.466758 0.173289
v 0.330555 0.442508 0.157858
v 0.320857 0.47212 0.142624
v 0.310009 0.4804 0.157353
v 0.312211 0.483335 0.146707
v 0.313296 0.484122 0.142624
v 7.2114e-05 0.579056 0.16047
v 0.105236 0.537426 0.142624
v 7.2114e-05 0.4733 0.352428
v 0.00773176 0.4733 0.352428
v 0.00635106 0.487499 0.343735
v 0.0105918 0.493353 0.339082
v 0.0695021 0.497567 0.327404
v 0.0540513 0.4986 0.328436
v 0.0385676 0.610012 0.217212
v 0.221282 0.497435 0.251016
v 0.239329 0.483039 0.250862
v 0.204286 0.496468 0.265196
v 0.170261 0.494435 0.293666
v 0.214575 0.492894 0.261289
v 0.226048 0.488368 0.256438
v 0.132653 0.610012 0.176121
v 0.220493 0.482597 0.265811
v 0.203497 0.481236 0.280057
v 0.230782 0.477744 0.26186
v 0.239757 0.471956 0.258501
v 0.253728 0.442508 0.26592
v 0.268817 0.442508 0.250467
v 0.258495 0.471956 0.239799
v 0.335913 0.442508 0.142624
v 0.323783 0.466561 0.142624
v 7.2114e-05 0.562118 0.166572
v 0.130319 0.516848 0.142624
v 7.2114e-05 0.46948 0.354315
v 0.0386334 0.483121 0.34266
v 0.0231826 0.484548 0.343691
v 0.00773176 0.465578 0.356225
v 0.0386334 0.442508 0.363776
v 0.0534596 0.442508 0.36191
v 0.0790684 0.479154 0.340004
v 0.0695021 0.480137 0.34064
v 0.0540513 0.481646 0.34165
v 0.0231826 0.492271 0.338248
v 0.0695021 0.48786 0.335131
v 0.0849529 0.496124 0.326087
v 0.0695021 0.505289 0.319546
v 0.0386334 0.490844 0.337194
v 0.0540513 0.489368 0.336162
v 0.0532623 0.610012 0.21471
v 0.176277 0.497763 0.285017
v 0.162141 0.496189 0.2954
v 0.13765 0.493484 0.308263
v 0.146723 0.491057 0.306353
v 0.162371 0.485892 0.303697
v 0.167631 0.477055 0.30789
v 0.176277 0.485548 0.296629
v 0.186468 0.479826 0.294303
v 0.180551 0.490123 0.289715
v 0.122002 0.610012 0.184132
v 0.114309 0.610012 0.189445
v 0.0991545 0.610012 0.1975
v 0.213786 0.475842 0.276105
v 0.192188 0.442508 0.313378
v 0.234924 0.467447 0.265042
v 0.251723 0.442508 0.142624
v 7.2114e-05 0.548805 0.172323
v 0.13525 0.513061 0.142624
v 7.2114e-05 0.465578 0.356225
v 0.00773176 0.442508 0.366849
v 0.0231826 0.442508 0.365357
v 0.0688775 0.442508 0.359649
v 0.0845255 0.471939 0.342813
v 0.0893909 0.477711 0.339148
v 0.0845255 0.485155 0.334648
v 0.094322 0.494845 0.324924
v 0.0536568 0.610012 0.214622
v 0.0534924 0.610012 0.214666
v 0.146723 0.499206 0.298627
v 0.115822 0.498026 0.312741
v 0.12736 0.49573 0.310348
v 0.104612 0.492369 0.322816
v 0.146723 0.483335 0.312214
v 0.157342 0.4804 0.310019
v 0.173253 0.466758 0.310612
v 0.178085 0.471529 0.30508
v 0.124336 0.47917 0.324594
v 0.134626 0.475382 0.322465
v 0.160958 0.442508 0.329248
v 0.192188 0.469578 0.296454
v 0.19679 0.473808 0.290351
v 0.0860049 0.610012 0.20301
v 0.177559 0.442508 0.320819
v 0.165955 0.492631 0.142624
v 7.2114e-05 0.442508 0.289429
v 7.2114e-05 0.488696 0.224522
v 7.2114e-05 0.491615 0.220702
v 7.2114e-05 0.494615 0.216795
v 7.2114e-05 0.49796 0.212668
v 7.2114e-05 0.50137 0.208476
v 7.2114e-05 0.508634 0.199849
v 7.2114e-05 0.51293 0.196447
v 7.2114e-05 0.517308 0.193001
v 7.2114e-05 0.526194 0.186196
v 7.2114e-05 0.530015 0.18343
v 7.2114e-05 0.533901 0.18062
v 0.148597 0.503584 0.142624
v 7.2114e-05 0.442508 0.366849
v 0.0849529 0.442508 0.356642
v 0.100404 0.442508 0.352713
v 0.100404 0.46643 0.341277
v 0.100404 0.474136 0.33726
v 0.115822 0.48158 0.326328
v 0.0998448 0.486909 0.328875
v 0.0988915 0.501436 0.315924
v 0.0695021 0.610012 0.209749
v 0.117761 0.442508 0.346918
v 0.160563 0.495927 0.142624
v 0.158722 0.497075 0.142624
v 0.116808 0.442508 0.347291
f 1 2 6
f 1 6 15
f 1 15 37
f 1 37 34
f 1 34 68
f 1 68 65
f 1 65 93
f 1 93 92
f 1 92 127
f 1 127 155
f 1 155 179
f 1 179 180
f 1 180 168
f 1 168 129
f 1 129 95
f 1 95 70
f 1 70 40
f 1 40 39
f 1 39 17
f 1 17 9
f 1 9 7
f 1 7 3
f 1 3 4
f 1 4 5
f 1 5 2
f 2 5 10
f 2 10 19
f 2 19 46
f 2 46 77
f 2 77 111
f 2 111 139
f 2 139 138
f 2 138 177
f 2 177 153
f 2 153 123
f 2 123 122
f 2 122 121
f 2 121 84
f 2 84 51
f 2 51 47
f 2 47 20
f 2 20 11
f 2 11 6
f 3 7 4
f 4 8 16
f 4 16 38
f 4 38 69
f 4 69 94
f 4 94 128
f 4 128 167
f 4 167 166
f 4 166 165
f 4 165 164
f 4 164 163
f 4 163 162
f 4 162 161
f 4 161 160
f 4 160 159
f 4 159 158
f 4 158 157
f 4 157 156
f 4 156 169
f 4 169 130
f 4 130 96
f 4 96 71
f 4 71 41
f 4 41 18
f 4 18 10
f 4 10 5
f 4 7 9
f 4 9 8
f 6 11 12
f 6 12 13
f 6 13 14
f 6 14 15
f 8 9 16
f 9 17 16
f 10 18 42
f 10 42 19
f 11 20 21
f 11 21 22
f 11 22 23
f 11 23 24
f 11 24 12
f 12 24 25
f 12 25 26
f 12 26 27
f 12 27 28
f 12 28 29
f 12 29 30
f 12 30 31
f 12 31 32
f 12 32 33
f 12 33 34
f 12 34 35
f 12 35 14
f 12 14 13
f 14 35 36
f 14 36 37
f 14 37 15
f 16 17 39
f 16 39 40
f 16 40 38
f 18 41 42
f 19 42 43
f 19 43 44
f 19 44 45
f 19 45 46
f 20 47 21
f 21 48 49
f 21 49 50
f 21 50 26
f 21 26 22
f 21 47 51
f 21 51 48
f 22 26 23
f 23 26 25
f 23 25 24
f 26 52 53
f 26 53 54
f 26 54 55
f 26 55 27
f 26 50 49
f 26 49 52
f 27 55 56
f 27 56 28
f 28 56 29
f 29 57 58
f 29 58 59
f 29 59 31
f 29 31 30
f 29 56 60
f 29 60 61
f 29 61 62
f 29 62 57
f 31 59 63
f 31 63 64
f 31 64 65
f 31 65 66
f 31 66 32
f 32 66 33
f 33 66 67
f 33 67 34
f 34 37 36
f 34 36 35
f 34 67 68
f 38 40 69
f 40 70 69
f 41 71 72
f 41 72 42
f 42 72 73
f 42 73 74
f 42 74 75
f 42 75 76
f 42 76 45
f 42 45 44
f 42 44 43
f 45 77 46
f 45 76 77
f 48 78 49
f 48 51 78
f 49 79 53
f 49 53 52
f 49 78 80
f 49 80 81
f 49 81 82
f 49 82 83
f 49 83 79
f 51 84 78
f 53 79 85
f 53 85 86
f 53 86 87
f 53 87 88
f 53 88 89
f 53 89 90
f 53 90 91
f 53 91 60
f 53 60 56
f 53 56 55
f 53 55 54
f 57 62 90
f 57 90 58
f 58 90 89
f 58 89 125
f 58 125 154
f 58 154 150
f 58 150 178
f 58 178 181
f 58 181 171
f 58 171 170
f 58 170 133
f 58 133 101
f 58 101 100
f 58 100 132
f 58 132 131
f 58 131 169
f 58 169 156
f 58 156 127
f 58 127 92
f 58 92 64
f 58 64 63
f 58 63 59
f 60 91 90
f 60 90 61
f 61 90 62
f 64 92 93
f 64 93 65
f 65 68 66
f 66 68 67
f 69 70 94
f 70 95 94
f 71 96 72
f 72 97 98
f 72 98 73
f 72 96 99
f 72 99 100
f 72 100 101
f 72 101 102
f 72 102 103
f 72 103 104
f 72 104 97
f 73 98 74
f 74 98 105
f 74 105 75
f 75 106 107
f 75 107 108
f 75 108 77
f 75 77 76
f 75 105 109
f 75 109 110
f 75 110 106
f 77 108 111
f 78 84 112
f 78 112 80
f 79 83 85
f 80 112 81
f 81 113 114
f 81 114 115
f 81 115 116
f 81 116 117
f 81 117 118
f 81 118 119
f 81 119 120
f 81 120 82
f 81 112 121
f 81 121 122
f 81 122 123
f 81 123 113
f 82 85 83
f 82 120 86
f 82 86 85
f 84 121 112
f 86 120 119
f 86 119 87
f 87 124 125
f 87 125 126
f 87 126 88
f 87 119 124
f 88 126 89
f 89 126 125
f 94 95 128
f 95 129 128
f 96 130 99
f 97 105 98
f 97 104 105
f 99 130 169
f 99 169 131
f 99 131 132
f 99 132 100
f 101 133 134
f 101 134 102
f 102 134 135
f 102 135 136
f 102 136 106
f 102 106 103
f 103 106 110
f 103 110 109
f 103 109 104
f 104 109 105
f 106 136 107
f 107 136 137
f 107 137 138
f 107 138 139
f 107 139 111
f 107 111 108
f 113 140 141
f 113 141 142
f 113 142 114
f 113 123 140
f 114 142 137
f 114 137 143
f 114 143 115
f 115 143 144
f 115 144 145
f 115 145 116
f 116 145 117
f 117 146 147
f 117 147 119
f 117 119 118
f 117 145 148
f 117 148 149
f 117 149 150
f 117 150 146
f 119 125 151
f 119 151 152
f 119 152 124
f 119 147 125
f 123 153 140
f 124 152 125
f 125 152 151
f 125 147 146
f 125 146 154
f 127 156 157
f 127 157 158
f 127 158 159
f 127 159 160
f 127 160 161
f 127 161 162
f 127 162 163
f 127 163 164
f 127 164 165
f 127 165 166
f 127 166 167
f 127 167 155
f 128 129 168
f 128 168 167
f 133 170 134
f 134 170 135
f 135 171 172
f 135 172 173
f 135 173 174
f 135 174 175
f 135 175 137
f 135 137 136
f 135 170 171
f 137 175 143
f 137 142 141
f 137 141 176
f 137 176 177
f 137 177 138
f 140 153 141
f 141 153 177
f 141 177 176
f 143 175 174
f 143 174 144
f 144 174 145
f 145 174 148
f 146 150 154
f 148 174 173
f 148 173 149
f 149 173 150
f 150 173 178
f 155 167 179
f 167 168 180
f 167 180 179
f 171 181 172
f 172 181 178
f 172 178 173
