v 7.2114e-05 0.738237 -0.341743
v 7.2114e-05 0.744058 -0.341743
v 0.00772162 0.738237 -0.341743
v 7.2114e-05 0.610166 -0.221232
v 7.2114e-05 0.747872 -0.33827
v 0.00772162 0.744058 -0.341743
v 0.0231724 0.739498 -0.340762
v 0.0385929 0.610166 -0.21721
v 0.0231724 0.610166 -0.21925
v 0.00772162 0.610166 -0.221232
v 7.2114e-05 0.610166 -0.155345
v 7.2114e-05 0.751769 -0.334719
v 0.00772162 0.751769 -0.334719
v 0.0694944 0.755434 -0.322946
v 0.0231724 0.742748 -0.340762
v 0.033645 0.740559 -0.340075
v 0.0849452 0.736579 -0.328558
v 0.0457263 0.610166 -0.21617
v 7.2114e-05 0.625406 -0.155129
v 0.0635448 0.610166 -0.141297
v 0.0623913 0.625406 -0.141297
v 7.2114e-05 0.759165 -0.327008
v 0.00772162 0.759165 -0.327008
v 0.0231724 0.758237 -0.326007
v 0.0386232 0.757308 -0.324987
v 0.0694944 0.762366 -0.315235
v 0.0849452 0.754157 -0.321436
v 0.0849452 0.746429 -0.328558
v 0.0694944 0.747706 -0.329755
v 0.033645 0.741753 -0.340075
v 0.108956 0.740625 -0.324614
v 0.100396 0.738685 -0.326341
v 0.0534973 0.610166 -0.214659
v 0.0533151 0.610166 -0.214698
v 7.2114e-05 0.630647 -0.155463
v 0.0662768 0.640298 -0.141297
v 0.0664286 0.640845 -0.141297
v 0.169302 0.610166 -0.141297
v 7.2114e-05 0.767805 -0.31502
v 0.006386 0.767805 -0.31502
v 0.0231724 0.76545 -0.31655
v 0.0386232 0.764124 -0.31655
v 0.054074 0.770707 -0.305307
v 0.0694944 0.770093 -0.304169
v 0.0849452 0.760989 -0.313705
v 0.100396 0.758601 -0.311115
v 0.100396 0.751504 -0.318826
v 0.100396 0.743793 -0.326341
v 0.108956 0.741703 -0.324614
v 0.141952 0.739448 -0.310036
v 0.0855523 0.610166 -0.2032
v 0.0694944 0.610166 -0.209734
v 0.0693123 0.610166 -0.209793
v 7.2114e-05 0.639353 -0.156032
v 0.0715889 0.655206 -0.141297
v 0.166145 0.610166 -0.145574
v 0.295428 0.738685 -0.172984
v 0.298008 0.736629 -0.162154
v 0.310029 0.739448 -0.141944
v 0.310181 0.739332 -0.141297
v 7.2114e-05 0.7721 -0.308859
v 0.000345314 0.7721 -0.308859
v 0.0106357 0.771884 -0.308192
v 0.0231724 0.771586 -0.307387
v 0.0386232 0.771188 -0.306367
v 0.0694944 0.773112 -0.296439
v 0.0822133 0.772664 -0.295026
v 0.0925037 0.772067 -0.293319
v 0.0864023 0.76938 -0.300539
v 0.100396 0.765732 -0.301108
v 0.114936 0.761288 -0.301638
v 0.131267 0.759746 -0.296988
v 0.109199 0.757043 -0.30929
v 0.119489 0.755202 -0.307152
v 0.131267 0.75293 -0.304719
v 0.141952 0.742831 -0.310036
v 0.172975 0.738685 -0.295438
v 0.0991515 0.610166 -0.197471
v 7.2114e-05 0.648639 -0.157484
v 0.0725603 0.65766 -0.141297
v 0.081424 0.671723 -0.141297
v 0.16566 0.610166 -0.146182
v 0.249076 0.738934 -0.23426
v 0.263343 0.740045 -0.217308
v 0.295428 0.74376 -0.172984
v 0.310029 0.742831 -0.141944
v 0.310181 0.74298 -0.141297
v 7.2114e-05 0.773941 -0.302266
v 0.006386 0.773941 -0.302266
v 0.0386232 0.773758 -0.298636
v 0.054074 0.773427 -0.297596
v 0.0694944 0.776528 -0.285667
v 0.054074 0.777224 -0.285667
v 0.0864023 0.774621 -0.287178
v 0.100396 0.773874 -0.283979
v 0.130903 0.773974 -0.270971
v 0.135821 0.771652 -0.276641
v 0.100396 0.771503 -0.29169
v 0.115816 0.769878 -0.288375
v 0.147113 0.762366 -0.286726
v 0.142225 0.757789 -0.294732
v 0.152516 0.755965 -0.292593
v 0.162138 0.746463 -0.298008
v 0.172975 0.74376 -0.295438
v 0.217294 0.740045 -0.263358
v 0.133574 0.610166 -0.175378
v 0.122009 0.610166 -0.184129
v 0.114299 0.610166 -0.189466
v 7.2114e-05 0.656284 -0.158681
v 0.0816972 0.672121 -0.141297
v 0.156796 0.610166 -0.156836
v 0.234232 0.738934 -0.249094
v 0.249076 0.743444 -0.23426
v 0.263343 0.742234 -0.217308
v 0.285684 0.749365 -0.177674
v 0.279643 0.757888 -0.172082
v 0.290207 0.75419 -0.162154
v 0.298008 0.746463 -0.162154
v 0.309725 0.743444 -0.141297
v 7.2114e-05 0.778551 -0.285667
v 0.00772162 0.778551 -0.285667
v 0.0231724 0.778269 -0.285667
v 0.0386232 0.777805 -0.285667
v 0.0231724 0.774073 -0.299657
v 0.0849452 0.778866 -0.270225
v 0.100396 0.777788 -0.270225
v 0.115816 0.776047 -0.270225
v 0.146718 0.776544 -0.254784
v 0.146718 0.773261 -0.266438
v 0.156644 0.772515 -0.263907
v 0.146718 0.770657 -0.274149
v 0.162138 0.760343 -0.282469
v 0.162138 0.75419 -0.290199
v 0.172065 0.757888 -0.279643
v 0.17765 0.749365 -0.285686
v 0.217294 0.742234 -0.263358
v 0.146172 0.610166 -0.165705
v 7.2114e-05 0.671723 -0.163017
v 0.0895289 0.682767 -0.141297
v 0.0954481 0.690511 -0.141297
v 0.103249 0.699947 -0.141297
v 0.234232 0.743444 -0.249094
v 0.238725 0.748585 -0.238753
v 0.232927 0.757623 -0.232965
v 0.243248 0.753743 -0.226667
v 0.275697 0.754986 -0.182383
v 0.250229 0.758983 -0.208478
v 0.265376 0.758784 -0.189073
v 0.270415 0.761371 -0.177379
v 0.282466 0.760343 -0.162154
v 0.292575 0.755965 -0.15252
v 0.302531 0.750708 -0.141297
v 7.2114e-05 0.778965 -0.278015
v 0.0231724 0.779562 -0.270225
v 0.0386232 0.779546 -0.270225
v 0.054074 0.779413 -0.270225
v 0.0694944 0.779247 -0.270225
v 0.100396 0.779496 -0.254784
v 0.115816 0.779098 -0.254784
v 0.131267 0.778285 -0.254784
v 0.162138 0.777589 -0.239362
v 0.161926 0.773841 -0.25498
v 0.173643 0.77283 -0.249977
v 0.166935 0.77142 -0.260258
v 0.161926 0.768468 -0.269519
v 0.177346 0.761371 -0.270421
v 0.189064 0.758784 -0.265399
v 0.182355 0.754986 -0.275699
v 0.226643 0.753743 -0.243247
v 7.2114e-05 0.677908 -0.165528
v 0.110656 0.707492 -0.141297
v 0.157949 0.753162 -0.141297
v 0.159467 0.754555 -0.141297
v 0.238573 0.75958 -0.222488
v 0.222454 0.75958 -0.238616
v 0.223092 0.767971 -0.223135
v 0.247194 0.756744 -0.216386
v 0.255693 0.762648 -0.193743
v 0.254965 0.769712 -0.178321
v 0.269505 0.768468 -0.161938
v 0.286716 0.762366 -0.147105
v 0.274149 0.770657 -0.146712
v 0.29473 0.757789 -0.142219
v 0.29555 0.757391 -0.141297
v 7.2114e-05 0.77938 -0.270225
v 0.239332 0.779363 -0.141297
v 0.223881 0.779463 -0.162154
v 0.131267 0.779496 -0.239362
v 0.146718 0.779297 -0.239362
v 0.177559 0.778186 -0.22392
v 0.208461 0.776345 -0.208478
v 0.19301 0.775665 -0.22392
v 0.178287 0.774388 -0.240284
v 0.200932 0.772133 -0.231768
v 0.183934 0.771801 -0.246013
v 0.211223 0.77074 -0.227746
v 0.178287 0.769712 -0.25498
v 0.193738 0.762648 -0.255686
v 0.208461 0.758983 -0.250232
v 0.216353 0.756744 -0.24721
v 7.2114e-05 0.683978 -0.168001
v 0.165174 0.758916 -0.141297
v 7.2114e-05 0.691689 -0.171199
v 7.2114e-05 0.687875 -0.16961
v 0.237875 0.766976 -0.207046
v 0.207034 0.766976 -0.23789
v 0.217415 0.772432 -0.217445
v 0.227736 0.77074 -0.211245
v 0.260246 0.77142 -0.166961
v 0.285927 0.764439 -0.141297
v 0.294912 0.757955 -0.141297
v 0.263919 0.772515 -0.15666
v 0.275394 0.771155 -0.141297
v 7.2114e-05 0.777373 -0.254784
v 0.223881 0.778733 -0.141297
v 0.254783 0.777158 -0.141297
v 0.239332 0.779297 -0.146712
v 0.208461 0.778766 -0.193037
v 0.162138 0.779463 -0.22392
v 0.19301 0.778766 -0.208478
v 0.207034 0.773128 -0.223135
v 0.223881 0.778186 -0.177595
v 0.239332 0.777589 -0.162154
v 0.223881 0.775682 -0.193037
v 0.223092 0.773128 -0.207046
v 0.177741 0.765566 -0.141297
v 7.2114e-05 0.757391 -0.215385
v 7.2114e-05 0.753195 -0.212285
v 7.2114e-05 0.748917 -0.209126
v 7.2114e-05 0.712617 -0.18356
v 7.2114e-05 0.7026 -0.177164
v 0.231743 0.772133 -0.200944
v 0.24601 0.771801 -0.183952
v 0.249956 0.77283 -0.173671
v 0.266439 0.773261 -0.146712
v 0.271478 0.772465 -0.141297
v 0.254965 0.773841 -0.161938
v 0.254783 0.776544 -0.146712
v 7.2114e-05 0.775815 -0.248839
v 0.208187 0.776594 -0.141297
v 0.267987 0.77351 -0.141297
v 0.186939 0.770309 -0.141297
v 7.2114e-05 0.760243 -0.219682
v 0.18791 0.770806 -0.141297
v 0.188608 0.771155 -0.141297
v 0.195286 0.773874 -0.141297
v 7.2114e-05 0.774223 -0.242795
v 7.2114e-05 0.763046 -0.22392
v 7.2114e-05 0.770027 -0.235104
v 7.2114e-05 0.766561 -0.229551
f 1 2 6
f 1 6 3
f 1 3 10
f 1 10 4
f 1 4 11
f 1 11 19
f 1 19 35
f 1 35 54
f 1 54 79
f 1 79 109
f 1 109 138
f 1 138 170
f 1 170 201
f 1 201 204
f 1 204 203
f 1 203 231
f 1 231 230
f 1 230 229
f 1 229 228
f 1 228 227
f 1 227 243
f 1 243 248
f 1 248 250
f 1 250 249
f 1 249 247
f 1 247 239
f 1 239 214
f 1 214 185
f 1 185 153
f 1 153 120
f 1 120 88
f 1 88 61
f 1 61 39
f 1 39 22
f 1 22 12
f 1 12 5
f 1 5 2
f 2 5 6
f 3 6 15
f 3 15 7
f 3 7 8
f 3 8 9
f 3 9 10
f 4 10 9
f 4 9 8
f 4 8 18
f 4 18 34
f 4 34 33
f 4 33 53
f 4 53 52
f 4 52 51
f 4 51 78
f 4 78 108
f 4 108 107
f 4 107 106
f 4 106 137
f 4 137 111
f 4 111 82
f 4 82 56
f 4 56 38
f 4 38 20
f 4 20 11
f 5 12 13
f 5 13 6
f 6 13 14
f 6 14 15
f 7 15 30
f 7 30 16
f 7 16 17
f 7 17 18
f 7 18 8
f 11 20 21
f 11 21 19
f 12 22 23
f 12 23 13
f 13 23 24
f 13 24 25
f 13 25 14
f 14 26 27
f 14 27 28
f 14 28 29
f 14 29 15
f 14 25 26
f 15 29 30
f 16 30 49
f 16 49 31
f 16 31 32
f 16 32 17
f 17 32 33
f 17 33 34
f 17 34 18
f 19 21 36
f 19 36 37
f 19 37 35
f 20 38 60
f 20 60 87
f 20 87 119
f 20 119 152
f 20 152 184
f 20 184 211
f 20 211 210
f 20 210 213
f 20 213 236
f 20 236 241
f 20 241 216
f 20 216 186
f 20 186 215
f 20 215 240
f 20 240 246
f 20 246 245
f 20 245 244
f 20 244 242
f 20 242 226
f 20 226 202
f 20 202 173
f 20 173 172
f 20 172 171
f 20 171 141
f 20 141 140
f 20 140 139
f 20 139 110
f 20 110 81
f 20 81 80
f 20 80 55
f 20 55 37
f 20 37 36
f 20 36 21
f 22 39 40
f 22 40 23
f 23 40 41
f 23 41 42
f 23 42 26
f 23 26 24
f 24 26 25
f 26 43 44
f 26 44 45
f 26 45 27
f 26 42 43
f 27 45 46
f 27 46 47
f 27 47 48
f 27 48 28
f 28 48 30
f 28 30 29
f 30 48 49
f 31 49 76
f 31 76 50
f 31 50 32
f 32 51 52
f 32 52 53
f 32 53 33
f 32 50 51
f 35 37 54
f 37 55 54
f 38 56 57
f 38 57 58
f 38 58 59
f 38 59 60
f 39 61 62
f 39 62 40
f 40 62 63
f 40 63 64
f 40 64 65
f 40 65 43
f 40 43 41
f 41 43 42
f 43 66 44
f 43 65 66
f 44 66 67
f 44 67 68
f 44 68 69
f 44 69 45
f 45 69 70
f 45 70 46
f 46 70 71
f 46 71 72
f 46 72 73
f 46 73 47
f 47 73 74
f 47 74 75
f 47 75 48
f 48 75 76
f 48 76 49
f 50 76 104
f 50 104 77
f 50 77 78
f 50 78 51
f 54 55 80
f 54 80 81
f 54 81 79
f 56 82 83
f 56 83 84
f 56 84 57
f 57 84 114
f 57 114 85
f 57 85 86
f 57 86 59
f 57 59 58
f 59 86 87
f 59 87 60
f 61 88 89
f 61 89 62
f 62 89 90
f 62 90 63
f 63 90 91
f 63 91 64
f 64 91 66
f 64 66 65
f 66 92 67
f 66 91 93
f 66 93 92
f 67 92 94
f 67 94 68
f 68 94 95
f 68 95 96
f 68 96 97
f 68 97 98
f 68 98 69
f 69 98 70
f 70 98 99
f 70 99 100
f 70 100 71
f 71 100 72
f 72 100 101
f 72 101 73
f 73 101 102
f 73 102 74
f 74 102 75
f 75 102 103
f 75 103 76
f 76 103 104
f 77 104 136
f 77 136 105
f 77 105 106
f 77 106 107
f 77 107 108
f 77 108 78
f 79 81 109
f 81 110 109
f 82 111 83
f 83 112 142
f 83 142 113
f 83 113 114
f 83 114 84
f 83 111 112
f 85 115 116
f 85 116 117
f 85 117 118
f 85 118 86
f 85 114 115
f 86 118 87
f 87 118 119
f 88 120 121
f 88 121 89
f 89 121 122
f 89 122 123
f 89 123 93
f 89 93 124
f 89 124 90
f 90 124 93
f 90 93 91
f 92 93 125
f 92 125 126
f 92 126 94
f 93 123 125
f 94 126 127
f 94 127 95
f 95 127 96
f 96 127 128
f 96 128 129
f 96 129 97
f 97 129 130
f 97 130 131
f 97 131 98
f 98 131 99
f 99 131 100
f 100 132 102
f 100 102 101
f 100 131 132
f 102 132 133
f 102 133 103
f 103 133 104
f 104 133 134
f 104 134 135
f 104 135 136
f 105 136 142
f 105 142 112
f 105 112 106
f 106 112 137
f 109 110 139
f 109 139 140
f 109 140 141
f 109 141 138
f 111 137 112
f 113 142 143
f 113 143 144
f 113 144 145
f 113 145 115
f 113 115 114
f 115 146 116
f 115 145 146
f 116 146 147
f 116 147 148
f 116 148 149
f 116 149 150
f 116 150 117
f 117 150 151
f 117 151 118
f 118 152 119
f 118 151 152
f 120 153 154
f 120 154 121
f 121 154 155
f 121 155 156
f 121 156 157
f 121 157 122
f 122 157 125
f 122 125 123
f 125 158 159
f 125 159 160
f 125 160 126
f 125 157 158
f 126 160 128
f 126 128 127
f 128 161 162
f 128 162 130
f 128 130 129
f 128 160 161
f 130 162 163
f 130 163 164
f 130 164 131
f 131 164 165
f 131 165 132
f 132 165 134
f 132 134 133
f 134 166 167
f 134 167 168
f 134 168 135
f 134 165 166
f 135 168 169
f 135 169 142
f 135 142 136
f 138 141 171
f 138 171 172
f 138 172 173
f 138 173 170
f 142 169 144
f 142 144 143
f 144 174 145
f 144 169 175
f 144 175 176
f 144 176 174
f 145 174 177
f 145 177 146
f 146 177 147
f 147 177 174
f 147 174 149
f 147 149 148
f 149 174 178
f 149 178 179
f 149 179 180
f 149 180 150
f 150 181 151
f 150 180 182
f 150 182 181
f 151 181 183
f 151 183 184
f 151 184 152
f 153 185 154
f 154 185 186
f 154 186 187
f 154 187 188
f 154 188 155
f 155 188 158
f 155 158 156
f 156 158 157
f 158 188 189
f 158 189 159
f 159 189 160
f 160 189 161
f 161 189 190
f 161 190 191
f 161 191 192
f 161 192 162
f 162 192 193
f 162 193 163
f 163 193 194
f 163 194 195
f 163 195 164
f 164 195 196
f 164 196 197
f 164 197 165
f 165 197 166
f 166 197 198
f 166 198 175
f 166 175 167
f 167 175 199
f 167 199 200
f 167 200 168
f 168 200 169
f 169 200 175
f 170 173 201
f 173 202 203
f 173 203 204
f 173 204 201
f 174 176 205
f 174 205 178
f 175 200 199
f 175 198 206
f 175 206 176
f 176 206 196
f 176 196 207
f 176 207 208
f 176 208 205
f 178 205 179
f 179 209 180
f 179 205 208
f 179 208 209
f 180 209 182
f 181 182 210
f 181 210 211
f 181 211 183
f 182 209 212
f 182 212 213
f 182 213 210
f 183 211 184
f 185 214 215
f 185 215 186
f 186 216 217
f 186 217 187
f 187 217 218
f 187 218 219
f 187 219 188
f 188 219 189
f 189 219 220
f 189 220 190
f 190 220 191
f 191 221 192
f 191 220 218
f 191 218 222
f 191 222 223
f 191 223 224
f 191 224 225
f 191 225 207
f 191 207 221
f 192 221 194
f 192 194 193
f 194 221 207
f 194 207 196
f 194 196 195
f 196 206 197
f 197 206 198
f 202 226 227
f 202 227 228
f 202 228 229
f 202 229 230
f 202 230 231
f 202 231 203
f 207 225 232
f 207 232 208
f 208 232 233
f 208 233 209
f 209 233 234
f 209 234 212
f 212 235 236
f 212 236 213
f 212 234 237
f 212 237 238
f 212 238 235
f 214 239 240
f 214 240 215
f 216 238 223
f 216 223 217
f 216 241 238
f 217 223 222
f 217 222 218
f 218 220 219
f 223 238 237
f 223 237 224
f 224 237 234
f 224 234 232
f 224 232 225
f 226 242 227
f 227 242 244
f 227 244 245
f 227 245 246
f 227 246 243
f 232 234 233
f 235 241 236
f 235 238 241
f 239 247 240
f 240 247 246
f 243 246 248
f 246 247 249
f 246 249 250
f 246 250 248
