v -0.238982 -0.405415 -0.178779
v -0.238982 -0.405415 -0.282008
v -0.136365 -0.405415 -0.26647
v -0.136365 -0.0222389 -0.363339
v -0.238982 -0.0222389 -0.305552
v -0.237626 -0.405415 -0.283055
v -0.238982 -0.364644 -0.302484
v -0.136365 -0.405415 -0.343137
v -0.136365 -0.0222389 -0.433572
v -0.238982 -0.0222389 -0.387257
v -0.227882 -0.405415 -0.290538
v -0.238982 -0.363031 -0.303282
v -0.216379 -0.355455 -0.324407
v -0.213014 -0.365732 -0.321838
v -0.209619 -0.405415 -0.304554
v -0.136365 -0.362694 -0.361568
v -0.140484 -0.405415 -0.341441
v -0.136365 -0.0386296 -0.432823
v -0.136526 -0.0694983 -0.431352
v -0.180928 -0.0222389 -0.415116
v -0.236581 -0.0222389 -0.389103
v -0.238982 -0.022839 -0.387232
v -0.238982 -0.352529 -0.30847
v -0.208102 -0.361494 -0.327724
v -0.238982 -0.347428 -0.310964
v -0.218921 -0.347428 -0.326377
v -0.208052 -0.347691 -0.334583
v -0.202717 -0.373608 -0.325779
v -0.202376 -0.405415 -0.310091
v -0.162675 -0.378897 -0.343686
v -0.156176 -0.356843 -0.355882
v -0.136365 -0.348403 -0.367629
v -0.14181 -0.405415 -0.340893
v -0.136365 -0.0694983 -0.431402
v -0.136365 -0.0710736 -0.431277
v -0.136365 -0.0831885 -0.430304
v -0.170079 -0.0779749 -0.417011
v -0.204676 -0.0694983 -0.403119
v -0.214099 -0.0386296 -0.400625
v -0.214943 -0.0231766 -0.400974
v -0.215355 -0.0222389 -0.400825
v -0.236119 -0.0222389 -0.389452
v -0.236089 -0.0231766 -0.389427
v -0.234482 -0.0694983 -0.388205
v -0.238982 -0.0540827 -0.385586
v -0.238982 -0.345628 -0.311837
v -0.202637 -0.34274 -0.341067
v -0.199282 -0.383886 -0.32321
v -0.193073 -0.405415 -0.316999
v -0.183831 -0.369183 -0.339097
v -0.176317 -0.405415 -0.326602
v -0.178246 -0.363556 -0.343836
v -0.166472 -0.351817 -0.353737
v -0.136365 -0.340414 -0.370921
v -0.16165 -0.346978 -0.357752
v -0.171656 -0.341502 -0.355882
v -0.138636 -0.339289 -0.370447
v -0.136365 -0.0849513 -0.430155
v -0.212401 -0.0694983 -0.399902
v -0.146702 -0.0849513 -0.42589
v -0.176166 -0.0838636 -0.413819
v -0.203179 -0.0849513 -0.402496
v -0.210904 -0.0849513 -0.399278
v -0.223904 -0.0694983 -0.394365
v -0.223823 -0.0222389 -0.39671
v -0.223904 -0.0231766 -0.396635
v -0.233547 -0.0849513 -0.387481
v -0.238982 -0.0752369 -0.384239
v -0.238982 -0.0694983 -0.384763
v -0.238982 -0.0610966 -0.385212
v -0.238982 -0.332988 -0.317274
v -0.229931 -0.336326 -0.32296
v -0.193455 -0.347691 -0.343736
v -0.19889 -0.353017 -0.338673
v -0.185459 -0.401702 -0.324357
v -0.213225 -0.331975 -0.337451
v -0.20551 -0.331975 -0.343087
v -0.21649 -0.278565 -0.355383
v -0.200407 -0.308383 -0.355009
v -0.191908 -0.331 -0.350844
v -0.189387 -0.405415 -0.319668
v -0.188603 -0.358868 -0.341317
v -0.177121 -0.346978 -0.351343
v -0.179743 -0.405415 -0.325155
v -0.136365 -0.337001 -0.372143
v -0.181953 -0.335463 -0.353737
v -0.177121 -0.331 -0.357229
v -0.186031 -0.325186 -0.355458
v -0.136365 -0.0963161 -0.428733
v -0.168652 -0.0882895 -0.416413
v -0.201652 -0.0954159 -0.401847
v -0.207469 -0.100517 -0.398755
v -0.217203 -0.158466 -0.386609
v -0.223904 -0.0849513 -0.393018
v -0.232452 -0.0966536 -0.386658
v -0.238982 -0.0879894 -0.382892
v -0.238982 -0.0849513 -0.383316
v -0.238982 -0.33205 -0.317648
v -0.224436 -0.331488 -0.329046
v -0.18356 -0.405415 -0.323459
v -0.22093 -0.301107 -0.343362
v -0.226294 -0.2702 -0.351068
v -0.218569 -0.2702 -0.356979
v -0.208463 -0.2702 -0.363115
v -0.208483 -0.255835 -0.367903
v -0.200226 -0.261724 -0.370372
v -0.196911 -0.2702 -0.369001
v -0.194359 -0.302382 -0.359498
v -0.136365 -0.315997 -0.379052
v -0.156929 -0.265662 -0.387082
v -0.136365 -0.100404 -0.428209
v -0.146702 -0.100404 -0.423945
v -0.166764 -0.100404 -0.415639
v -0.208463 -0.146726 -0.391996
v -0.208463 -0.11582 -0.396236
v -0.215807 -0.16878 -0.38586
v -0.231337 -0.106968 -0.38586
v -0.22527 -0.10123 -0.39005
v -0.238982 -0.0974788 -0.381496
v -0.238982 -0.101192 -0.380947
v -0.238982 -0.303395 -0.328622
v -0.238982 -0.2702 -0.341317
v -0.238982 -0.267725 -0.342239
v -0.238922 -0.286366 -0.335181
v -0.222065 -0.254785 -0.359673
v -0.213637 -0.242107 -0.369275
v -0.20334 -0.251409 -0.371769
v -0.194259 -0.255835 -0.374438
v -0.176458 -0.253885 -0.382344
v -0.167226 -0.258423 -0.384938
v -0.185861 -0.27864 -0.370821
v -0.136365 -0.269563 -0.394315
v -0.136365 -0.254785 -0.398705
v -0.136365 -0.263524 -0.396111
v -0.136365 -0.114995 -0.426214
v -0.143629 -0.146726 -0.418857
v -0.141047 -0.162142 -0.417784
v -0.209779 -0.163042 -0.389177
v -0.222969 -0.163042 -0.382244
v -0.228314 -0.131273 -0.383915
v -0.13949 -0.170768 -0.417136
v -0.205741 -0.177595 -0.388105
v -0.213456 -0.177595 -0.384863
v -0.216259 -0.23183 -0.370647
v -0.223904 -0.177595 -0.378578
v -0.235667 -0.162142 -0.373689
v -0.238982 -0.144513 -0.374014
v -0.238982 -0.255198 -0.346554
v -0.231448 -0.246571 -0.355009
v -0.223853 -0.239182 -0.36284
v -0.208483 -0.237907 -0.372742
v -0.193023 -0.239332 -0.379077
v -0.170561 -0.248146 -0.386334
v -0.136365 -0.248221 -0.400401
v -0.136365 -0.141663 -0.422548
v -0.136365 -0.146726 -0.42185
v -0.136365 -0.162142 -0.419705
v -0.233487 -0.177595 -0.372018
v -0.226395 -0.146726 -0.382668
v -0.136365 -0.173019 -0.417909
v -0.177583 -0.193048 -0.396211
v -0.163549 -0.178907 -0.405289
v -0.193978 -0.193535 -0.389302
v -0.199764 -0.199011 -0.385636
v -0.228073 -0.208501 -0.367878
v -0.230162 -0.196611 -0.369474
v -0.238982 -0.177595 -0.367803
v -0.238982 -0.162142 -0.371145
v -0.238982 -0.156666 -0.372043
v -0.238982 -0.240345 -0.350919
v -0.180777 -0.239332 -0.384164
v -0.197112 -0.208501 -0.384539
v -0.183731 -0.228792 -0.385387
v -0.136365 -0.243383 -0.401623
v -0.137541 -0.24447 -0.400875
v -0.136365 -0.245558 -0.401074
v -0.238982 -0.179695 -0.367255
v -0.136365 -0.208688 -0.409654
v -0.147747 -0.209138 -0.40484
v -0.159631 -0.193048 -0.403643
v -0.238982 -0.200024 -0.361793
v -0.238982 -0.191022 -0.364212
f 1 2 6
f 1 6 11
f 1 11 15
f 1 15 29
f 1 29 49
f 1 49 81
f 1 81 100
f 1 100 84
f 1 84 51
f 1 51 33
f 1 33 17
f 1 17 8
f 1 8 3
f 1 3 4
f 1 4 5
f 1 5 10
f 1 10 22
f 1 22 45
f 1 45 70
f 1 70 69
f 1 69 68
f 1 68 97
f 1 97 96
f 1 96 119
f 1 119 120
f 1 120 147
f 1 147 169
f 1 169 168
f 1 168 167
f 1 167 177
f 1 177 182
f 1 182 181
f 1 181 170
f 1 170 148
f 1 148 123
f 1 123 122
f 1 122 121
f 1 121 98
f 1 98 71
f 1 71 46
f 1 46 25
f 1 25 23
f 1 23 12
f 1 12 7
f 1 7 2
f 2 7 6
f 3 8 16
f 3 16 32
f 3 32 54
f 3 54 85
f 3 85 109
f 3 109 132
f 3 132 134
f 3 134 133
f 3 133 154
f 3 154 176
f 3 176 174
f 3 174 178
f 3 178 160
f 3 160 157
f 3 157 156
f 3 156 155
f 3 155 135
f 3 135 111
f 3 111 89
f 3 89 58
f 3 58 36
f 3 36 35
f 3 35 34
f 3 34 18
f 3 18 9
f 3 9 4
f 4 9 20
f 4 20 41
f 4 41 65
f 4 65 42
f 4 42 21
f 4 21 10
f 4 10 5
f 6 7 11
f 7 12 13
f 7 13 14
f 7 14 15
f 7 15 11
f 8 17 16
f 9 18 19
f 9 19 20
f 10 21 22
f 12 23 13
f 13 24 14
f 13 23 25
f 13 25 26
f 13 26 27
f 13 27 24
f 14 28 15
f 14 24 28
f 15 28 29
f 16 30 31
f 16 31 32
f 16 17 33
f 16 33 30
f 18 34 19
f 19 34 35
f 19 35 36
f 19 36 37
f 19 37 38
f 19 38 20
f 20 39 40
f 20 40 41
f 20 38 39
f 21 42 43
f 21 43 44
f 21 44 45
f 21 45 22
f 24 27 28
f 25 46 26
f 26 46 47
f 26 47 27
f 27 47 28
f 28 47 48
f 28 48 29
f 29 48 49
f 30 50 31
f 30 33 51
f 30 51 50
f 31 50 52
f 31 52 53
f 31 53 32
f 32 53 55
f 32 55 56
f 32 56 57
f 32 57 54
f 36 58 37
f 37 59 38
f 37 58 60
f 37 60 61
f 37 61 62
f 37 62 63
f 37 63 59
f 38 59 39
f 39 41 40
f 39 59 64
f 39 64 41
f 41 64 66
f 41 66 65
f 42 65 66
f 42 66 43
f 43 66 44
f 44 64 67
f 44 67 68
f 44 68 69
f 44 69 70
f 44 70 45
f 44 66 64
f 46 71 72
f 46 72 47
f 47 73 74
f 47 74 75
f 47 75 48
f 47 72 76
f 47 76 77
f 47 77 78
f 47 78 79
f 47 79 80
f 47 80 73
f 48 75 81
f 48 81 49
f 50 82 83
f 50 83 52
f 50 51 75
f 50 75 82
f 51 84 75
f 52 83 53
f 53 83 55
f 54 57 85
f 55 83 56
f 56 83 86
f 56 86 57
f 57 86 87
f 57 87 88
f 57 88 85
f 58 89 60
f 59 63 64
f 60 89 90
f 60 90 61
f 61 90 62
f 62 90 91
f 62 91 63
f 63 91 92
f 63 92 93
f 63 93 94
f 63 94 64
f 64 94 67
f 67 94 95
f 67 95 96
f 67 96 97
f 67 97 68
f 71 98 72
f 72 98 99
f 72 99 76
f 73 83 82
f 73 82 75
f 73 75 74
f 73 80 86
f 73 86 83
f 75 84 100
f 75 100 81
f 76 99 101
f 76 101 78
f 76 78 77
f 78 102 103
f 78 103 79
f 78 101 102
f 79 103 104
f 79 104 105
f 79 105 106
f 79 106 107
f 79 107 108
f 79 108 88
f 79 88 86
f 79 86 80
f 85 88 109
f 86 88 87
f 88 108 110
f 88 110 109
f 89 111 112
f 89 112 90
f 90 112 91
f 91 112 113
f 91 113 92
f 92 113 114
f 92 114 115
f 92 115 116
f 92 116 93
f 93 116 117
f 93 117 118
f 93 118 94
f 94 118 95
f 95 119 96
f 95 118 117
f 95 117 120
f 95 120 119
f 98 121 99
f 99 121 102
f 99 102 101
f 102 122 123
f 102 123 103
f 102 121 124
f 102 124 122
f 103 123 125
f 103 125 126
f 103 126 105
f 103 105 104
f 105 126 106
f 106 126 127
f 106 127 128
f 106 128 129
f 106 129 130
f 106 130 110
f 106 110 107
f 107 110 131
f 107 131 108
f 108 131 110
f 109 110 132
f 110 130 133
f 110 133 134
f 110 134 132
f 111 135 112
f 112 135 136
f 112 136 113
f 113 136 114
f 114 136 137
f 114 137 138
f 114 138 116
f 114 116 115
f 116 139 140
f 116 140 117
f 116 138 137
f 116 137 141
f 116 141 142
f 116 142 143
f 116 143 144
f 116 144 145
f 116 145 139
f 117 140 146
f 117 146 147
f 117 147 120
f 121 122 124
f 123 148 125
f 125 148 149
f 125 149 150
f 125 150 144
f 125 144 126
f 126 144 127
f 127 144 151
f 127 151 143
f 127 143 152
f 127 152 153
f 127 153 128
f 128 153 129
f 129 153 133
f 129 133 130
f 133 153 154
f 135 155 136
f 136 155 156
f 136 156 137
f 137 157 141
f 137 156 157
f 139 145 158
f 139 158 146
f 139 146 159
f 139 159 140
f 140 159 146
f 141 157 160
f 141 160 161
f 141 161 162
f 141 162 142
f 142 162 161
f 142 161 163
f 142 163 164
f 142 164 143
f 143 164 152
f 143 151 144
f 144 165 166
f 144 166 158
f 144 158 145
f 144 150 165
f 146 158 167
f 146 167 168
f 146 168 169
f 146 169 147
f 148 170 149
f 149 170 150
f 150 170 165
f 152 171 153
f 152 164 172
f 152 172 173
f 152 173 171
f 153 171 174
f 153 174 175
f 153 175 154
f 154 175 176
f 158 166 177
f 158 177 167
f 160 178 179
f 160 179 180
f 160 180 161
f 161 180 179
f 161 179 173
f 161 173 172
f 161 172 163
f 163 172 164
f 165 170 181
f 165 181 166
f 166 181 182
f 166 182 177
f 171 173 174
f 173 179 174
f 174 176 175
f 174 179 178
