v 0.153126 0.356914 -0.288106
v 0.153126 0.356914 -0.369383
v 7.2114e-05 0.356914 -0.326922
v 7.2114e-05 -0.0222389 -0.390259
v 0.153126 -0.0222389 -0.356422
v 0.144107 0.356914 -0.374511
v 0.153126 0.334312 -0.383102
v 7.2114e-05 0.356914 -0.402972
v 7.2114e-05 -0.0222389 -0.45559
v 0.153126 -0.0222389 -0.426618
v 0.139073 0.339768 -0.386087
v 0.136751 0.356914 -0.377545
v 0.14938 0.33576 -0.383927
v 0.153126 0.329747 -0.385493
v 0.00504607 0.356914 -0.402972
v 7.2114e-05 0.335203 -0.414647
v 0.0077278 -0.0222389 -0.45559
v 7.2114e-05 -0.0154842 -0.455887
v 0.14553 -0.0222389 -0.429768
v 0.153126 -0.0135543 -0.427014
v 0.1169 0.332605 -0.398982
v 0.123043 0.356914 -0.382937
v 0.153126 0.326889 -0.386977
v 0.0755653 0.356914 -0.39476
v 0.0077278 0.335203 -0.414647
v 7.2114e-05 0.327483 -0.418406
v 0.0077278 -0.00769032 -0.456217
v 0.0222451 -0.0222389 -0.453727
v 7.2114e-05 -0.00769032 -0.456217
v 0.134354 -0.0222389 -0.434401
v 0.131253 -0.00769032 -0.436347
v 0.153126 -0.00769032 -0.427278
v 0.112495 0.327854 -0.403203
v 0.107417 0.356914 -0.389038
v 0.122788 0.323289 -0.401175
v 0.153126 0.316535 -0.390621
v 0.0853933 0.356914 -0.393507
v 0.092195 0.339582 -0.401422
v 0.0204773 0.325739 -0.417582
v 0.0077278 0.327483 -0.418406
v 7.2114e-05 0.321953 -0.420253
v 0.0077278 0.00774897 -0.456563
v 0.023174 -0.00769032 -0.454222
v 0.0644788 -0.0222389 -0.44817
v 0.0386052 -0.00769032 -0.452193
v 7.2114e-05 0.00774897 -0.456563
v 0.132541 -0.0222389 -0.435143
v 0.115806 -0.00769032 -0.441294
v 0.131253 0.00774897 -0.43671
v 0.153126 0.00774897 -0.427657
v 0.153126 0.00218192 -0.427525
v 0.115806 -0.0222389 -0.440651
v 0.1169 0.3175 -0.405149
v 0.10036 0.316535 -0.409848
v 0.10036 0.330749 -0.404588
v 0.10036 0.338469 -0.400779
v 0.101079 0.356914 -0.390951
v 0.126518 0.312972 -0.402725
v 0.153126 0.311265 -0.391759
v 0.0862023 0.333459 -0.405165
v 0.0307848 0.324217 -0.416906
v 0.0077278 0.316535 -0.422051
v 7.2114e-05 0.316535 -0.422051
v 0.0077278 0.0231883 -0.45625
v 0.023174 0.00774897 -0.454568
v 0.0717449 -0.0222389 -0.447213
v 0.0681343 0.00774897 -0.448648
v 0.0745465 -0.00769032 -0.447461
v 7.2114e-05 0.0231883 -0.45625
v 0.10036 -0.00769032 -0.444048
v 0.115806 0.00774897 -0.44164
v 0.10036 -0.0222389 -0.443437
v 0.115806 0.0231883 -0.441327
v 0.131253 0.0231883 -0.43638
v 0.153126 0.0173614 -0.427443
v 0.115806 0.301095 -0.408941
v 0.10036 0.301095 -0.412849
v 0.0623064 0.309075 -0.416988
v 0.0849289 0.316535 -0.411909
v 0.153126 0.301652 -0.393754
v 0.12908 0.301095 -0.40378
v 0.0540515 0.318799 -0.415356
v 0.0540515 0.311079 -0.417532
v 0.0246422 0.318056 -0.419445
v 0.0386052 0.314679 -0.418555
v 0.0077278 0.301095 -0.425035
v 7.2114e-05 0.301095 -0.425035
v 7.2114e-05 0.0771515 -0.453958
v 0.0077278 0.0849454 -0.453611
v 0.023174 0.0231883 -0.454255
v 0.0746514 0.0231883 -0.447477
v 0.0849289 -0.00769032 -0.446092
v 0.10036 0.00774897 -0.444394
v 0.10036 0.0231883 -0.44408
v 0.10036 0.0540668 -0.442778
v 0.10036 0.0849454 -0.441459
v 0.115806 0.0695061 -0.439282
v 0.128825 0.0849454 -0.434566
v 0.153126 0.0476462 -0.426206
v 0.153126 0.0317244 -0.426931
v 0.153126 0.0231883 -0.427311
v 0.131253 0.177581 -0.421935
v 0.115806 0.177581 -0.42736
v 0.108375 0.155016 -0.432439
v 0.103641 0.165296 -0.431779
v 0.0992515 0.176468 -0.430922
v 0.0883447 0.180847 -0.431796
v 0.0780523 0.18582 -0.432472
v 0.023174 0.177581 -0.440783
v 0.0077278 0.177581 -0.442778
v 0.139582 0.186414 -0.41717
v 0.153126 0.177581 -0.412866
v 0.00242426 0.141395 -0.448104
v 7.2114e-05 0.141395 -0.448104
v 7.2114e-05 0.0849454 -0.453611
v 0.023174 0.0849454 -0.451616
v 7.2114e-05 0.0925908 -0.453067
v 0.0077278 0.100385 -0.45249
v 0.0474445 0.0941125 -0.447956
v 0.0627259 0.0492792 -0.447939
v 0.0569729 0.0849454 -0.44718
v 0.0694977 0.0849454 -0.445532
v 0.10036 0.100385 -0.440337
v 0.115806 0.0849454 -0.438589
v 0.127372 0.100385 -0.433956
v 0.153126 0.0999764 -0.423337
v 0.146684 0.0849454 -0.427162
v 0.153126 0.0785247 -0.424788
v 0.14117 0.177581 -0.417829
v 0.143732 0.162142 -0.418901
v 0.123687 0.124063 -0.432439
v 0.121215 0.134344 -0.43173
v 0.115806 0.115824 -0.435588
v 0.115806 0.100385 -0.437435
v 0.10036 0.115824 -0.43854
v 0.10036 0.131263 -0.436578
v 0.10036 0.146703 -0.434599
v 0.0992515 0.160954 -0.432917
v 0.0838802 0.176468 -0.43295
v 0.0694977 0.177581 -0.434698
v 0.023174 0.162142 -0.442778
v 0.0077278 0.162142 -0.444773
v 0.148886 0.177581 -0.41463
v 0.153126 0.172645 -0.413558
v 0.00763791 0.146591 -0.446785
v 0.00763791 0.131189 -0.448764
v 0.0077278 0.115824 -0.450709
v 7.2114e-05 0.100385 -0.45249
v 0.0331069 0.110405 -0.448104
v 0.023174 0.100385 -0.450495
v 0.0434144 0.104393 -0.447428
v 0.12505 0.115824 -0.433
v 0.132781 0.115824 -0.429801
v 0.153126 0.109329 -0.422182
v 0.146684 0.100385 -0.425959
v 0.153126 0.0849454 -0.424491
v 0.153126 0.150933 -0.416559
v 0.153126 0.115824 -0.421374
v 0.153126 0.142175 -0.417763
v 0.0849289 0.115824 -0.440585
v 0.0383955 0.115676 -0.446735
v 0.0540515 0.146703 -0.4407
v 0.0540515 0.162142 -0.438721
v 0.0127167 0.136274 -0.447461
v 0.0230392 0.131189 -0.446768
v 0.0178105 0.125993 -0.44812
v 0.0230392 0.115676 -0.448747
f 1 2 6
f 1 6 12
f 1 12 22
f 1 22 34
f 1 34 57
f 1 57 37
f 1 37 24
f 1 24 15
f 1 15 8
f 1 8 3
f 1 3 4
f 1 4 5
f 1 5 10
f 1 10 20
f 1 20 32
f 1 32 51
f 1 51 50
f 1 50 75
f 1 75 101
f 1 101 100
f 1 100 99
f 1 99 128
f 1 128 156
f 1 156 126
f 1 126 154
f 1 154 158
f 1 158 159
f 1 159 157
f 1 157 144
f 1 144 112
f 1 112 80
f 1 80 59
f 1 59 36
f 1 36 23
f 1 23 14
f 1 14 7
f 1 7 2
f 2 7 6
f 3 8 16
f 3 16 26
f 3 26 41
f 3 41 63
f 3 63 87
f 3 87 114
f 3 114 148
f 3 148 117
f 3 117 115
f 3 115 88
f 3 88 69
f 3 69 46
f 3 46 29
f 3 29 18
f 3 18 9
f 3 9 4
f 4 9 17
f 4 17 28
f 4 28 44
f 4 44 66
f 4 66 72
f 4 72 52
f 4 52 47
f 4 47 30
f 4 30 19
f 4 19 10
f 4 10 5
f 6 11 12
f 6 7 13
f 6 13 11
f 7 14 13
f 8 15 25
f 8 25 16
f 9 18 17
f 10 19 20
f 11 13 21
f 11 21 12
f 12 21 22
f 13 14 23
f 13 23 21
f 15 24 25
f 16 25 40
f 16 40 26
f 17 18 27
f 17 27 28
f 18 29 27
f 19 30 20
f 20 30 31
f 20 31 32
f 21 23 33
f 21 33 34
f 21 34 22
f 23 35 33
f 23 36 35
f 24 37 25
f 25 37 38
f 25 38 39
f 25 39 40
f 26 40 41
f 27 29 46
f 27 46 42
f 27 42 65
f 27 65 43
f 27 43 28
f 28 43 45
f 28 45 44
f 30 47 31
f 31 48 49
f 31 49 50
f 31 50 51
f 31 51 32
f 31 47 52
f 31 52 48
f 33 35 53
f 33 53 54
f 33 54 55
f 33 55 56
f 33 56 57
f 33 57 34
f 35 36 58
f 35 58 53
f 36 59 58
f 37 57 56
f 37 56 38
f 38 56 55
f 38 55 60
f 38 60 39
f 39 60 55
f 39 55 61
f 39 61 62
f 39 62 40
f 40 62 41
f 41 62 63
f 42 64 90
f 42 90 65
f 42 46 69
f 42 69 64
f 43 65 45
f 44 45 66
f 45 65 67
f 45 67 68
f 45 68 66
f 48 70 93
f 48 93 71
f 48 71 49
f 48 52 72
f 48 72 70
f 49 71 73
f 49 73 74
f 49 74 50
f 50 74 75
f 53 58 76
f 53 76 54
f 54 76 77
f 54 77 78
f 54 78 79
f 54 79 61
f 54 61 55
f 58 59 80
f 58 80 81
f 58 81 76
f 61 82 83
f 61 83 84
f 61 84 62
f 61 79 82
f 62 84 85
f 62 85 83
f 62 83 78
f 62 78 86
f 62 86 87
f 62 87 63
f 64 88 89
f 64 89 116
f 64 116 90
f 64 69 88
f 65 90 91
f 65 91 67
f 66 68 92
f 66 92 72
f 67 93 92
f 67 92 68
f 67 91 93
f 70 92 93
f 70 72 92
f 71 93 94
f 71 94 73
f 73 94 95
f 73 95 96
f 73 96 97
f 73 97 98
f 73 98 74
f 74 99 100
f 74 100 101
f 74 101 75
f 74 98 99
f 76 81 102
f 76 102 103
f 76 103 77
f 77 103 104
f 77 104 105
f 77 105 106
f 77 106 78
f 78 83 79
f 78 106 107
f 78 107 108
f 78 108 109
f 78 109 110
f 78 110 86
f 79 83 82
f 80 111 81
f 80 112 111
f 81 111 102
f 83 85 84
f 86 110 113
f 86 113 114
f 86 114 87
f 88 115 89
f 89 115 117
f 89 117 118
f 89 118 119
f 89 119 116
f 90 120 91
f 90 116 121
f 90 121 120
f 91 120 122
f 91 122 95
f 91 95 94
f 91 94 93
f 95 122 96
f 96 122 119
f 96 119 123
f 96 123 124
f 96 124 97
f 97 124 98
f 98 124 125
f 98 125 126
f 98 126 127
f 98 127 128
f 98 128 99
f 102 129 130
f 102 130 131
f 102 131 103
f 102 111 129
f 103 131 132
f 103 132 104
f 104 132 131
f 104 131 133
f 104 133 134
f 104 134 135
f 104 135 136
f 104 136 105
f 105 136 137
f 105 137 138
f 105 138 106
f 106 138 139
f 106 139 107
f 107 139 140
f 107 140 109
f 107 109 108
f 109 140 141
f 109 141 142
f 109 142 110
f 110 142 113
f 111 112 143
f 111 143 129
f 112 144 143
f 113 142 145
f 113 145 146
f 113 146 147
f 113 147 118
f 113 118 148
f 113 148 114
f 116 119 121
f 117 148 118
f 118 147 149
f 118 149 150
f 118 150 119
f 119 122 121
f 119 150 151
f 119 151 123
f 120 121 122
f 123 134 124
f 123 151 149
f 123 149 135
f 123 135 134
f 124 134 125
f 125 134 152
f 125 152 153
f 125 153 154
f 125 154 155
f 125 155 126
f 126 156 127
f 126 155 154
f 127 156 128
f 129 143 144
f 129 144 157
f 129 157 130
f 130 157 131
f 131 158 153
f 131 153 152
f 131 152 134
f 131 134 133
f 131 157 159
f 131 159 158
f 135 149 160
f 135 160 136
f 136 160 161
f 136 161 162
f 136 162 163
f 136 163 137
f 137 163 138
f 138 163 139
f 139 163 140
f 140 163 141
f 141 164 142
f 141 163 165
f 141 165 166
f 141 166 164
f 142 164 145
f 145 164 146
f 146 166 147
f 146 164 166
f 147 166 167
f 147 167 149
f 149 151 150
f 149 167 166
f 149 166 161
f 149 161 160
f 153 158 154
f 161 166 165
f 161 165 162
f 162 165 163
