v 0.221216 0.610135 -8.72144e-05
v 0.240303 0.564523 -8.72144e-05
v 0.221216 0.610135 -0.00773141
v 0.155325 0.610135 -8.72144e-05
v 0.240303 0.478833 -8.72144e-05
v 0.240303 0.564523 -0.00826148
v 0.221198 0.610135 -0.0079267
v 0.240303 0.558808 -0.0540569
v 0.240303 0.556093 -0.0694987
v 0.0604336 0.610135 -0.142579
v 0.155325 0.60973 -8.72144e-05
v 0.239828 0.479058 -8.72144e-05
v 0.188535 0.480033 -0.142579
v 0.240303 0.45692 -0.142579
v 0.219208 0.610135 -0.0233546
v 0.240303 0.546899 -0.11581
v 0.240303 0.543719 -0.130708
v 0.0604336 0.60994 -0.142579
v 0.16832 0.610135 -0.142579
v 0.156311 0.60217 -8.72144e-05
v 0.235936 0.480963 -8.72144e-05
v 0.183058 0.482943 -0.142579
v 0.240303 0.540029 -0.142579
v 0.217183 0.610135 -0.0385732
v 0.240303 0.543584 -0.131182
v 0.216144 0.610135 -0.0457153
v 0.0657161 0.594506 -0.142579
v 0.160449 0.579057 -8.72144e-05
v 0.158882 0.586706 -8.72144e-05
v 0.157315 0.594506 -8.72144e-05
v 0.17605 0.610135 -0.132647
v 0.224491 0.488688 -8.72144e-05
v 0.151451 0.501617 -0.142579
v 0.158706 0.497072 -0.142579
v 0.168003 0.491343 -0.142579
v 0.178322 0.485583 -0.142579
v 0.18938 0.610135 -0.11436
v 0.189433 0.610135 -0.114262
v 0.196987 0.610135 -0.100034
v 0.197462 0.610135 -0.099127
v 0.203185 0.610135 -0.0855125
v 0.209647 0.610135 -0.0696801
v 0.209717 0.610135 -0.0694987
v 0.21456 0.610135 -0.0537779
v 0.214648 0.610135 -0.053485
v 0.240303 0.540674 -0.140961
v 0.184097 0.610135 -0.12199
v 0.0724073 0.580482 -0.142579
v 0.1723 0.548804 -8.72144e-05
v 0.166559 0.562123 -8.72144e-05
v 0.16383 0.569668 -8.72144e-05
v 0.216778 0.494612 -8.72144e-05
v 0.131607 0.515521 -0.142579
v 0.139196 0.510106 -0.142579
v 0.0849444 0.562903 -0.142579
v 0.180611 0.53391 -8.72144e-05
v 0.176085 0.542009 -8.72144e-05
v 0.21257 0.498017 -8.72144e-05
v 0.105229 0.53745 -0.142579
v 0.20845 0.501377 -8.72144e-05
v 0.0911602 0.554728 -0.142579
v 0.186175 0.5262 -8.72144e-05
v 0.096249 0.548174 -0.142579
v 0.199822 0.508636 -8.72144e-05
v 0.192989 0.517306 -8.72144e-05
v 0.189609 0.521716 -8.72144e-05
v 0.196441 0.512926 -8.72144e-05
f 1 2 6
f 1 6 3
f 1 3 7
f 1 7 15
f 1 15 24
f 1 24 26
f 1 26 45
f 1 45 44
f 1 44 43
f 1 43 42
f 1 42 41
f 1 41 40
f 1 40 39
f 1 39 38
f 1 38 37
f 1 37 47
f 1 47 31
f 1 31 19
f 1 19 10
f 1 10 4
f 1 4 11
f 1 11 20
f 1 20 30
f 1 30 29
f 1 29 28
f 1 28 51
f 1 51 50
f 1 50 49
f 1 49 57
f 1 57 56
f 1 56 62
f 1 62 66
f 1 66 65
f 1 65 67
f 1 67 64
f 1 64 60
f 1 60 58
f 1 58 52
f 1 52 32
f 1 32 21
f 1 21 12
f 1 12 5
f 1 5 2
f 2 5 14
f 2 14 23
f 2 23 46
f 2 46 25
f 2 25 17
f 2 17 16
f 2 16 9
f 2 9 8
f 2 8 6
f 3 6 8
f 3 8 9
f 3 9 7
f 4 10 18
f 4 18 11
f 5 12 13
f 5 13 14
f 7 9 16
f 7 16 17
f 7 17 15
f 10 19 23
f 10 23 14
f 10 14 13
f 10 13 22
f 10 22 36
f 10 36 35
f 10 35 34
f 10 34 33
f 10 33 54
f 10 54 53
f 10 53 59
f 10 59 63
f 10 63 61
f 10 61 55
f 10 55 48
f 10 48 27
f 10 27 18
f 11 18 20
f 12 21 13
f 13 21 22
f 15 17 24
f 17 25 26
f 17 26 24
f 18 27 28
f 18 28 29
f 18 29 30
f 18 30 20
f 19 31 23
f 21 32 33
f 21 33 34
f 21 34 35
f 21 35 36
f 21 36 22
f 23 37 38
f 23 38 39
f 23 39 40
f 23 40 41
f 23 41 42
f 23 42 43
f 23 43 44
f 23 44 45
f 23 45 46
f 23 31 47
f 23 47 37
f 25 46 26
f 26 46 45
f 27 48 49
f 27 49 50
f 27 50 51
f 27 51 28
f 32 52 53
f 32 53 54
f 32 54 33
f 48 55 56
f 48 56 57
f 48 57 49
f 52 58 53
f 53 58 60
f 53 60 59
f 55 61 62
f 55 62 56
f 59 60 64
f 59 64 63
f 61 63 65
f 61 65 66
f 61 66 62
f 63 64 67
f 63 67 65
