v 0.0999991 -0.625403 0.147195
v 0.100764 -0.609963 0.147195
v 0.101994 -0.641263 0.147195
v 7.21255e-05 -0.625403 0.178393
v 0.101639 -0.604885 0.147195
v 7.21255e-05 -0.617749 0.178591
v 7.21255e-05 -0.609963 0.178806
v 0.103033 -0.645945 0.147195
v 7.21255e-05 -0.640842 0.179499
v 0.10183 -0.603838 0.147195
v 7.21255e-05 -0.603838 0.179416
v 0.105438 -0.656282 0.147195
v 7.21255e-05 -0.656282 0.181545
v 0.10809 -0.663093 0.147195
v 0.111588 -0.672046 0.147195
v 0.1337 -0.726765 0.147195
v 0.19517 -0.603838 0.147195
v 7.21255e-05 -0.603838 0.245361
v 7.21255e-05 -0.668075 0.184069
v 0.279299 -0.726765 0.147195
v 7.21255e-05 -0.726765 0.203669
v 7.21255e-05 -0.687161 0.190058
v 7.21255e-05 -0.675801 0.186412
v 0.190551 -0.603838 0.153299
v 0.261779 -0.726765 0.175292
v 0.264048 -0.726765 0.172289
v 0.270854 -0.726765 0.162225
v 0.277113 -0.726765 0.152623
v 0.278288 -0.725236 0.147195
v 7.21255e-05 -0.726765 0.315728
v 0.00772518 -0.603838 0.245361
v 0.183909 -0.603838 0.161944
v 0.230948 -0.726488 0.215383
v 0.231358 -0.726765 0.215103
v 0.00794383 -0.726765 0.315728
v 0.0135743 -0.603838 0.244784
v 0.181504 -0.603838 0.164997
v 0.230648 -0.726765 0.215961
v 0.176858 -0.603838 0.170458
v 0.0177835 -0.726765 0.314589
v 0.0338549 -0.726765 0.312626
v 0.0482044 -0.726765 0.310861
v 0.0611872 -0.725874 0.308749
v 0.0231679 -0.603838 0.24353
v 0.223377 -0.726765 0.223402
v 0.173796 -0.603838 0.173807
v 0.0603126 -0.726765 0.309359
v 0.0694689 -0.726765 0.308171
v 0.0386107 -0.603838 0.241501
v 0.215943 -0.726765 0.230661
v 0.164968 -0.603838 0.181528
v 0.215369 -0.726488 0.230958
v 0.0695783 -0.726765 0.308155
v 0.0540535 -0.603838 0.239455
v 0.215068 -0.726765 0.231387
v 0.15726 -0.603838 0.187517
v 0.0848297 -0.726765 0.304393
v 0.0601759 -0.603838 0.237937
v 0.172266 -0.726765 0.264054
v 0.135449 -0.603838 0.204131
v 0.0910888 -0.726765 0.302133
v 0.0701796 -0.603838 0.235264
v 0.131623 -0.603838 0.207002
v 0.168959 -0.726765 0.266397
v 0.0744434 -0.603838 0.233664
v 0.107598 -0.726765 0.295797
v 0.123068 -0.603838 0.212645
v 0.162208 -0.726765 0.270868
v 0.0854857 -0.603838 0.229209
v 0.110577 -0.726765 0.294577
v 0.120034 -0.603838 0.214509
v 0.152614 -0.726765 0.277121
v 0.0901868 -0.603838 0.227279
v 0.112927 -0.603838 0.217891
v 0.106231 -0.603838 0.220663
f 1 2 5
f 1 5 10
f 1 10 17
f 1 17 29
f 1 29 20
f 1 20 16
f 1 16 15
f 1 15 14
f 1 14 12
f 1 12 8
f 1 8 3
f 1 3 4
f 1 4 2
f 2 4 6
f 2 6 7
f 2 7 5
f 3 8 4
f 4 9 13
f 4 13 19
f 4 19 23
f 4 23 22
f 4 22 21
f 4 21 30
f 4 30 18
f 4 18 11
f 4 11 7
f 4 7 6
f 4 8 9
f 5 7 10
f 7 11 10
f 8 12 9
f 9 12 14
f 9 14 15
f 9 15 16
f 9 16 13
f 10 11 18
f 10 18 31
f 10 31 36
f 10 36 44
f 10 44 49
f 10 49 54
f 10 54 58
f 10 58 62
f 10 62 65
f 10 65 69
f 10 69 73
f 10 73 75
f 10 75 74
f 10 74 71
f 10 71 67
f 10 67 63
f 10 63 60
f 10 60 56
f 10 56 51
f 10 51 46
f 10 46 39
f 10 39 37
f 10 37 32
f 10 32 24
f 10 24 17
f 13 16 19
f 16 20 28
f 16 28 27
f 16 27 26
f 16 26 25
f 16 25 34
f 16 34 38
f 16 38 45
f 16 45 50
f 16 50 55
f 16 55 59
f 16 59 64
f 16 64 68
f 16 68 72
f 16 72 70
f 16 70 66
f 16 66 61
f 16 61 57
f 16 57 53
f 16 53 48
f 16 48 47
f 16 47 42
f 16 42 41
f 16 41 40
f 16 40 35
f 16 35 30
f 16 30 21
f 16 21 22
f 16 22 23
f 16 23 19
f 17 24 25
f 17 25 26
f 17 26 27
f 17 27 28
f 17 28 29
f 18 30 35
f 18 35 31
f 20 29 28
f 24 32 33
f 24 33 25
f 25 33 34
f 31 35 36
f 32 37 33
f 33 38 34
f 33 37 39
f 33 39 38
f 35 40 36
f 36 40 41
f 36 41 42
f 36 42 43
f 36 43 44
f 38 39 46
f 38 46 45
f 42 47 43
f 43 47 48
f 43 48 49
f 43 49 44
f 45 46 50
f 46 51 52
f 46 52 50
f 48 53 54
f 48 54 49
f 50 52 55
f 51 56 52
f 52 56 55
f 53 57 54
f 54 57 58
f 55 56 59
f 56 60 59
f 57 61 62
f 57 62 58
f 59 60 63
f 59 63 64
f 61 65 62
f 61 66 65
f 63 67 68
f 63 68 64
f 65 66 69
f 66 70 69
f 67 71 72
f 67 72 68
f 69 70 73
f 70 74 75
f 70 75 73
f 70 72 74
f 71 74 72
