v 0.00772527 -0.0222776 0.455605
v 0.0231687 -0.0540695 0.452257
v 0.0240877 -0.0222776 0.453476
v 7.2114e-05 -0.0222776 0.455586
v 7.2114e-05 -0.0308355 0.455237
v 7.2114e-05 -0.0386189 0.454908
v 7.2114e-05 -0.0695201 0.453592
v 0.00772527 -0.0695201 0.453592
v 0.0231687 -0.0695201 0.451599
v 0.0386122 -0.0540695 0.450225
v 0.0728183 -0.0222776 0.44707
v 0.0568536 -0.0695201 0.447167
v 7.2114e-05 -0.0222776 0.390268
v 7.2114e-05 -0.084932 0.452431
v 0.00772527 -0.084932 0.452431
v 0.0473763 -0.0785039 0.447941
v 0.0694992 -0.0695201 0.445503
v 0.100359 -0.0222776 0.443432
v 0.140188 -0.0222776 0.361761
v 0.140188 -0.417837 0.25791
v 7.2114e-05 -0.417837 0.294217
v 7.2114e-05 -0.125708 0.448077
v 0.00772527 -0.100383 0.450612
v 0.0328929 -0.094729 0.448077
v 0.0231687 -0.084932 0.450438
v 0.00219799 -0.125708 0.448077
v 0.0382693 -0.0841576 0.448541
v 0.0431932 -0.0888044 0.447399
v 0.100359 -0.084932 0.440277
v 0.100359 -0.0695201 0.441419
v 0.101291 -0.0222776 0.443277
v 0.140188 -0.0222776 0.431975
v 0.140188 -0.417837 0.335982
v 7.2114e-05 -0.417837 0.366154
v 7.2114e-05 -0.162146 0.442677
v 0.0175866 -0.110335 0.448096
v 0.0229082 -0.100073 0.448696
v 0.100359 -0.100383 0.438458
v 0.0278868 -0.105029 0.447419
v 0.0849289 -0.146735 0.434568
v 0.100359 -0.131284 0.43451
v 0.00772527 -0.162146 0.442677
v 0.00772527 -0.146735 0.44469
v 0.115802 -0.084932 0.437374
v 0.115802 -0.0695201 0.438574
v 0.108259 -0.139338 0.4324
v 0.115802 -0.0231683 0.440606
v 0.115802 -0.0222776 0.440645
v 0.139118 -0.0222776 0.43242
v 0.140188 -0.0386189 0.431239
v 0.135264 -0.417837 0.33813
v 0.140188 -0.413151 0.338227
v 0.136855 -0.414894 0.338866
v 0.00772527 -0.417837 0.366154
v 7.2114e-05 -0.412067 0.36865
v 7.2114e-05 -0.169814 0.441361
v 0.0231687 -0.146735 0.442696
v 0.0694992 -0.146735 0.4366
v 0.0991106 -0.145379 0.432865
v 0.0880286 -0.165244 0.431762
v 0.0931307 -0.154944 0.43242
v 0.103417 -0.149639 0.431742
v 0.00772527 -0.177597 0.440006
v 0.0777284 -0.170201 0.432439
v 0.0231687 -0.162146 0.440684
v 0.115802 -0.100383 0.435497
v 0.12362 -0.108398 0.4324
v 0.124937 -0.100383 0.432942
v 0.127296 -0.084932 0.433929
v 0.128791 -0.0695201 0.434549
v 0.0991106 -0.160907 0.430852
v 0.115802 -0.162146 0.427252
v 0.114362 -0.145379 0.429923
v 0.116735 -0.0222776 0.440355
v 0.132549 -0.0222776 0.435149
v 0.137363 -0.0540695 0.431704
v 0.140188 -0.0695201 0.429826
v 0.130382 -0.417837 0.340201
v 0.140188 -0.408504 0.34024
v 0.140188 -0.372259 0.355877
v 0.109205 -0.402541 0.355645
v 0.114938 -0.408272 0.350787
v 0.00772527 -0.412067 0.36865
v 0.0849289 -0.417837 0.356167
v 7.2114e-05 -0.370827 0.386126
v 7.2114e-05 -0.177597 0.440006
v 0.100359 -0.177597 0.427852
v 0.0231687 -0.177597 0.438013
v 0.000853885 -0.216708 0.432478
v 0.00772527 -0.193048 0.436697
v 0.0836946 -0.176242 0.430349
v 0.0694992 -0.180463 0.431317
v 0.0694992 -0.208498 0.425278
v 0.140188 -0.105804 0.425898
v 0.132658 -0.100383 0.429749
v 0.131246 -0.162146 0.421814
v 0.131246 -0.146735 0.423962
v 0.140188 -0.137906 0.421485
v 0.140188 -0.100383 0.426633
v 0.140188 -0.0921346 0.427678
v 0.140188 -0.084932 0.428588
v 0.130491 -0.0386189 0.435245
v 0.115802 -0.177597 0.424485
v 0.127419 -0.417837 0.341401
v 0.103335 -0.412841 0.353419
v 0.140188 -0.36254 0.360038
v 0.123154 -0.354795 0.370431
v 0.112853 -0.359713 0.372579
v 0.107258 -0.370013 0.370353
v 0.0386122 -0.409201 0.365786
v 0.0236625 -0.408311 0.368108
v 0.0188347 -0.40258 0.37105
v 0.00772527 -0.393751 0.376024
v 0.000716733 -0.370827 0.386126
v 0.0893453 -0.417837 0.355568
v 0.0849289 -0.409201 0.35969
v 0.0694992 -0.409201 0.361722
v 7.2114e-05 -0.347438 0.394506
v 7.2114e-05 -0.216708 0.432478
v 0.100359 -0.208498 0.421195
v 0.103719 -0.228944 0.416337
v 0.109726 -0.218682 0.41746
v 0.0197125 -0.203387 0.432923
v 0.0241837 -0.208498 0.431239
v 0.0386122 -0.189872 0.433349
v 0.00772527 -0.254773 0.423111
v 0.00772527 -0.239322 0.42671
v 0.0111404 -0.213648 0.43182
v 0.0386122 -0.197617 0.431684
v 0.0386122 -0.208498 0.429343
v 0.0540557 -0.239322 0.420653
v 0.0746973 -0.245518 0.416589
v 0.131369 -0.17659 0.419143
v 0.139475 -0.170782 0.417131
v 0.140188 -0.170123 0.416937
v 0.140188 -0.166871 0.417421
v 0.140188 -0.162146 0.418118
v 0.140188 -0.146735 0.420266
v 0.123414 -0.200599 0.416879
v 0.126308 -0.190298 0.418079
v 0.115295 -0.417837 0.346278
v 0.0930347 -0.417217 0.355316
v 0.0936382 -0.417837 0.354813
v 0.101291 -0.417837 0.35189
v 0.140188 -0.348019 0.366193
v 0.117119 -0.348754 0.375443
v 0.128338 -0.344495 0.372579
v 0.1035 -0.336595 0.385004
v 0.0386122 -0.391621 0.37285
v 0.0474586 -0.355531 0.386185
v 0.0231687 -0.359481 0.387791
v 0.011017 -0.3692 0.385468
v 0.00661433 -0.363585 0.388294
v 0.00772527 -0.347438 0.394506
v 0.0925135 -0.417837 0.355122
v 0.0849289 -0.36285 0.378308
v 7.2114e-05 -0.326179 0.402074
v 7.2114e-05 -0.254773 0.423111
v 0.0992889 -0.238083 0.414944
v 0.100359 -0.254773 0.410918
v 0.115802 -0.254773 0.406951
v 0.115802 -0.239322 0.410686
v 0.0231687 -0.239322 0.424717
v 0.00134764 -0.278471 0.417092
v 0.00698464 -0.270804 0.418718
v 0.0231687 -0.266196 0.41806
v 0.034045 -0.263834 0.417343
v 0.0443315 -0.261472 0.416666
v 0.0231687 -0.254773 0.421117
v 0.0644108 -0.248461 0.417266
v 0.140188 -0.171479 0.416685
v 0.131931 -0.239322 0.404396
v 0.131246 -0.208498 0.411828
v 0.136608 -0.181082 0.41595
v 0.0991518 -0.346082 0.382391
v 0.093213 -0.340003 0.386146
v 0.140188 -0.338222 0.37016
v 0.138625 -0.339267 0.37045
v 0.115226 -0.331639 0.382643
v 0.109699 -0.326295 0.386707
v 0.109521 -0.279711 0.402035
v 0.0577588 -0.353827 0.385507
v 0.0386122 -0.347438 0.3905
v 0.0231687 -0.347438 0.392513
v 0.0849289 -0.341513 0.386726
v 0.00895965 -0.3316 0.399848
v 0.00463932 -0.326179 0.402074
v 0.0849289 -0.349219 0.383727
v 0.0694992 -0.351852 0.384733
v 7.2114e-05 -0.278471 0.417092
v 0.0849289 -0.254773 0.412989
v 0.100359 -0.270223 0.406602
v 0.126582 -0.254773 0.402751
v 0.115116 -0.268945 0.403196
v 0.123894 -0.262943 0.401629
v 0.00698464 -0.284435 0.414557
v 0.0116479 -0.276342 0.416434
v 0.0849289 -0.270223 0.408692
v 0.0149258 -0.324049 0.401416
v 0.0694992 -0.30461 0.400196
v 0.0540557 -0.258916 0.416027
v 0.0389551 -0.255702 0.418814
v 0.0695403 -0.254076 0.415195
v 0.140188 -0.193667 0.411557
v 0.137527 -0.244472 0.400893
v 0.0849289 -0.331987 0.389765
v 0.0694992 -0.331987 0.391797
v 0.0231687 -0.331987 0.397893
v 0.100359 -0.282382 0.402848
v 0.0903602 -0.292412 0.401183
v 0.140188 -0.330051 0.37285
v 0.140188 -0.283467 0.388159
v 0.129929 -0.268945 0.397177
v 0.119807 -0.273244 0.399945
v 0.134304 -0.254773 0.399558
v 0.140188 -0.260271 0.395494
v 0.140188 -0.254773 0.397119
v 0.140188 -0.269914 0.39261
v 0.0694992 -0.316536 0.396539
v 0.0849289 -0.316536 0.394506
v 0.140188 -0.242885 0.400158
f 1 2 3
f 1 3 11
f 1 11 18
f 1 18 31
f 1 31 48
f 1 48 74
f 1 74 75
f 1 75 49
f 1 49 32
f 1 32 19
f 1 19 13
f 1 13 4
f 1 4 5
f 1 5 6
f 1 6 7
f 1 7 8
f 1 8 9
f 1 9 2
f 2 10 11
f 2 11 3
f 2 9 12
f 2 12 10
f 4 13 21
f 4 21 34
f 4 34 55
f 4 55 85
f 4 85 118
f 4 118 157
f 4 157 190
f 4 190 158
f 4 158 119
f 4 119 86
f 4 86 56
f 4 56 35
f 4 35 22
f 4 22 14
f 4 14 7
f 4 7 6
f 4 6 5
f 7 14 15
f 7 15 8
f 8 15 16
f 8 16 9
f 9 16 12
f 10 12 17
f 10 17 11
f 11 17 18
f 12 16 17
f 13 19 20
f 13 20 21
f 14 22 26
f 14 26 15
f 15 23 24
f 15 24 25
f 15 25 16
f 15 26 23
f 16 25 27
f 16 27 28
f 16 28 29
f 16 29 30
f 16 30 17
f 17 30 18
f 18 30 31
f 19 32 50
f 19 50 77
f 19 77 101
f 19 101 100
f 19 100 99
f 19 99 94
f 19 94 98
f 19 98 138
f 19 138 137
f 19 137 136
f 19 136 135
f 19 135 171
f 19 171 204
f 19 204 221
f 19 221 217
f 19 217 216
f 19 216 218
f 19 218 212
f 19 212 211
f 19 211 177
f 19 177 145
f 19 145 106
f 19 106 80
f 19 80 79
f 19 79 52
f 19 52 33
f 19 33 20
f 20 33 51
f 20 51 78
f 20 78 104
f 20 104 141
f 20 141 144
f 20 144 143
f 20 143 155
f 20 155 115
f 20 115 84
f 20 84 54
f 20 54 34
f 20 34 21
f 22 35 42
f 22 42 26
f 23 36 37
f 23 37 24
f 23 26 36
f 24 38 29
f 24 29 28
f 24 28 25
f 24 37 36
f 24 36 39
f 24 39 40
f 24 40 41
f 24 41 38
f 25 28 27
f 26 42 43
f 26 43 36
f 29 44 45
f 29 45 30
f 29 38 46
f 29 46 44
f 30 45 47
f 30 47 48
f 30 48 31
f 32 49 50
f 33 52 53
f 33 53 51
f 34 54 83
f 34 83 55
f 35 56 42
f 36 43 57
f 36 57 58
f 36 58 39
f 38 41 46
f 39 58 40
f 40 59 41
f 40 58 60
f 40 60 61
f 40 61 59
f 41 59 62
f 41 62 46
f 42 56 63
f 42 63 64
f 42 64 65
f 42 65 57
f 42 57 43
f 44 66 67
f 44 67 68
f 44 68 69
f 44 69 45
f 44 46 66
f 45 69 70
f 45 70 47
f 46 62 71
f 46 71 72
f 46 72 73
f 46 73 67
f 46 67 66
f 47 74 48
f 47 70 74
f 49 75 50
f 50 75 70
f 50 70 76
f 50 76 77
f 51 53 78
f 52 79 53
f 53 79 80
f 53 80 81
f 53 81 82
f 53 82 78
f 54 84 83
f 55 83 114
f 55 114 85
f 56 86 63
f 57 65 60
f 57 60 58
f 59 61 62
f 60 64 87
f 60 87 71
f 60 71 62
f 60 62 61
f 60 65 64
f 63 88 64
f 63 86 119
f 63 119 89
f 63 89 90
f 63 90 88
f 64 91 87
f 64 88 92
f 64 92 93
f 64 93 91
f 67 94 95
f 67 95 68
f 67 73 72
f 67 72 96
f 67 96 97
f 67 97 98
f 67 98 94
f 68 95 69
f 69 95 99
f 69 99 100
f 69 100 101
f 69 101 70
f 70 101 77
f 70 77 76
f 70 75 102
f 70 102 74
f 71 87 72
f 72 87 103
f 72 103 96
f 74 102 75
f 78 82 105
f 78 105 104
f 80 106 107
f 80 107 108
f 80 108 81
f 81 105 82
f 81 108 109
f 81 109 105
f 83 84 110
f 83 110 111
f 83 111 112
f 83 112 113
f 83 113 114
f 84 115 116
f 84 116 117
f 84 117 110
f 85 114 154
f 85 154 118
f 87 91 93
f 87 93 120
f 87 120 121
f 87 121 122
f 87 122 103
f 88 90 123
f 88 123 124
f 88 124 125
f 88 125 92
f 89 119 158
f 89 158 126
f 89 126 127
f 89 127 128
f 89 128 90
f 90 128 123
f 92 125 129
f 92 129 124
f 92 124 130
f 92 130 93
f 93 130 163
f 93 163 131
f 93 131 132
f 93 132 121
f 93 121 120
f 94 99 95
f 96 103 133
f 96 133 134
f 96 134 135
f 96 135 136
f 96 136 137
f 96 137 138
f 96 138 97
f 97 138 98
f 103 122 139
f 103 139 140
f 103 140 133
f 104 105 141
f 105 109 142
f 105 142 143
f 105 143 144
f 105 144 141
f 106 145 107
f 107 146 108
f 107 145 147
f 107 147 146
f 108 146 148
f 108 148 109
f 109 148 142
f 110 117 112
f 110 112 111
f 112 117 149
f 112 149 150
f 112 150 151
f 112 151 152
f 112 152 153
f 112 153 113
f 113 153 114
f 114 153 154
f 115 155 142
f 115 142 116
f 116 142 156
f 116 156 150
f 116 150 117
f 117 150 149
f 118 154 187
f 118 187 157
f 121 159 160
f 121 160 122
f 121 132 159
f 122 160 161
f 122 161 162
f 122 162 139
f 123 128 163
f 123 163 124
f 124 129 125
f 124 163 130
f 126 158 190
f 126 190 164
f 126 164 165
f 126 165 166
f 126 166 167
f 126 167 168
f 126 168 169
f 126 169 170
f 126 170 127
f 127 163 128
f 127 170 163
f 131 163 132
f 132 170 160
f 132 160 159
f 132 163 170
f 133 171 134
f 133 140 171
f 134 171 135
f 139 162 172
f 139 172 140
f 140 172 173
f 140 173 174
f 140 174 171
f 142 155 143
f 142 148 175
f 142 175 176
f 142 176 156
f 145 177 178
f 145 178 147
f 146 147 179
f 146 179 180
f 146 180 148
f 147 178 179
f 148 180 181
f 148 181 176
f 148 176 175
f 150 156 182
f 150 182 183
f 150 183 184
f 150 184 151
f 151 184 154
f 151 154 153
f 151 153 152
f 154 185 186
f 154 186 187
f 154 184 185
f 156 188 189
f 156 189 182
f 156 176 188
f 157 187 164
f 157 164 190
f 160 170 191
f 160 191 168
f 160 168 192
f 160 192 181
f 160 181 161
f 161 193 162
f 161 181 194
f 161 194 195
f 161 195 193
f 162 193 172
f 164 196 165
f 164 187 196
f 165 196 197
f 165 197 166
f 166 198 167
f 166 197 196
f 166 196 199
f 166 199 200
f 166 200 198
f 167 198 168
f 168 198 192
f 168 191 201
f 168 201 202
f 168 202 169
f 169 202 170
f 170 202 203
f 170 203 191
f 171 174 204
f 172 193 205
f 172 205 173
f 173 204 174
f 173 205 204
f 176 206 207
f 176 207 208
f 176 208 185
f 176 185 188
f 176 181 209
f 176 209 192
f 176 192 210
f 176 210 206
f 177 211 180
f 177 180 179
f 177 179 178
f 180 211 212
f 180 212 213
f 180 213 214
f 180 214 181
f 181 214 195
f 181 195 194
f 181 192 209
f 182 189 185
f 182 185 183
f 183 185 184
f 185 208 186
f 185 189 188
f 186 208 199
f 186 199 187
f 187 199 196
f 191 203 201
f 192 198 210
f 193 215 205
f 193 195 215
f 195 216 217
f 195 217 215
f 195 214 213
f 195 213 218
f 195 218 216
f 198 200 210
f 199 208 207
f 199 207 219
f 199 219 200
f 200 219 220
f 200 220 210
f 201 203 202
f 204 205 221
f 205 215 217
f 205 217 221
f 206 210 220
f 206 220 219
f 206 219 207
f 212 218 213
