v 7.2114e-05 0.356914 0.402989
v -0.00504809 0.356914 0.402989
v 7.2114e-05 0.356914 0.326902
v 7.2114e-05 0.393783 0.397544
v -0.00772635 0.378333 0.399752
v -0.0755494 0.356914 0.394777
v -0.00772635 0.393783 0.397544
v -0.134051 0.356914 0.296398
v 7.2114e-05 0.475129 0.248486
v 7.2114e-05 0.401567 0.394746
v -0.0853828 0.356914 0.393506
v -0.0785296 0.401898 0.386217
v -0.0888225 0.399479 0.385536
v -0.0231657 0.393783 0.395548
v -0.00772635 0.409214 0.391994
v -0.134051 0.453456 0.248486
v -0.134051 0.356914 0.378489
v 7.2114e-05 0.556182 0.248486
v 7.2114e-05 0.409214 0.391994
v -0.101085 0.356914 0.390966
v -0.0962271 0.38918 0.386791
v -0.0694839 0.403244 0.386807
v -0.0841749 0.407926 0.382602
v -0.100967 0.394115 0.384508
v -0.0841749 0.394115 0.387442
v -0.0386051 0.393783 0.393521
v -0.100363 0.409214 0.378942
v 7.2114e-05 0.413954 0.389574
v -0.00772635 0.418597 0.387185
v -0.0188333 0.417582 0.386474
v -0.0291262 0.41649 0.385793
v -0.0236515 0.410501 0.389362
v -0.0386051 0.407536 0.388848
v -0.0540576 0.405449 0.38782
v -0.134051 0.537943 0.248486
v -0.123049 0.356914 0.382935
v -0.134051 0.392008 0.372696
v -0.00405031 0.556182 0.248486
v 7.2114e-05 0.545551 0.270234
v -0.107426 0.356914 0.38903
v -0.106533 0.378333 0.385687
v -0.0694839 0.393783 0.389453
v -0.0694839 0.410969 0.383132
v -0.0849233 0.42203 0.374405
v -0.100363 0.420021 0.372878
v -0.115474 0.409311 0.373967
v -0.115802 0.393783 0.379774
v -0.110117 0.41807 0.371426
v 7.2114e-05 0.418597 0.387185
v -0.000282364 0.494168 0.339742
v -0.00634784 0.487477 0.343735
v -0.0231657 0.484531 0.343689
v -0.0386051 0.483107 0.342661
v -0.0540576 0.481625 0.341647
v -0.0694839 0.480123 0.340649
v -0.0386051 0.415261 0.385158
v -0.0790547 0.479128 0.339999
v -0.0540576 0.413174 0.38413
v -0.134051 0.513754 0.285841
v -0.126108 0.540362 0.248486
v -0.131622 0.393491 0.373316
v -0.134051 0.395714 0.371728
v -0.0540576 0.552983 0.248486
v -0.0540576 0.550057 0.254793
v -0.00772635 0.545551 0.270234
v 7.2114e-05 0.543249 0.274363
v -0.0893477 0.477704 0.339152
v -0.12041 0.41452 0.369278
v -0.126725 0.404239 0.371925
v -0.134051 0.400123 0.370397
v -0.115802 0.481566 0.326342
v -0.124309 0.479147 0.324603
v 7.2114e-05 0.494168 0.339742
v -0.00772635 0.509072 0.323665
v -0.00634784 0.499923 0.333163
v -0.0231657 0.500489 0.330532
v -0.0386051 0.499572 0.329488
v -0.0540576 0.498577 0.328445
v -0.0694839 0.497543 0.327416
v -0.0105753 0.493329 0.339092
v -0.0231657 0.492237 0.33826
v -0.0386051 0.490832 0.337201
v -0.0540576 0.48935 0.336158
v -0.0694839 0.487848 0.335129
v -0.08449 0.485136 0.334645
v -0.134051 0.50913 0.292828
v -0.126161 0.51034 0.294447
v -0.122419 0.541376 0.248486
v -0.115802 0.511803 0.296579
v -0.0694839 0.551598 0.248486
v -0.0694839 0.548672 0.254793
v -0.0540576 0.543678 0.267678
v -0.0386051 0.544185 0.268752
v -0.0220761 0.543873 0.271413
v -0.00772635 0.540888 0.278552
v 7.2114e-05 0.540888 0.278552
v -0.0942972 0.494831 0.324951
v -0.0998113 0.486892 0.328883
v -0.134051 0.421386 0.358737
v -0.134051 0.409467 0.366178
v -0.10459 0.492354 0.322834
v -0.134051 0.489623 0.312671
v -0.134051 0.485721 0.315605
v -0.134051 0.475578 0.322592
v 7.2114e-05 0.509072 0.323665
v -0.0386051 0.513246 0.313881
v -0.0540576 0.512583 0.312867
v -0.0694839 0.511881 0.311839
v -0.0231657 0.508213 0.322637
v -0.0162075 0.540518 0.278053
v -0.0386051 0.507297 0.321609
v -0.0540576 0.506302 0.32058
v -0.0694839 0.505268 0.319552
v -0.0849233 0.496099 0.326085
v -0.134051 0.505307 0.297093
v -0.115802 0.505717 0.304292
v -0.103435 0.508018 0.306893
v -0.0931419 0.509716 0.309041
v -0.0822581 0.541727 0.264502
v -0.115802 0.542156 0.249817
v -0.115802 0.542819 0.248486
v -0.0925511 0.54044 0.262475
v -0.0761139 0.550447 0.248486
v -0.0864199 0.545004 0.25632
v -0.0694839 0.542878 0.266332
v -0.0540576 0.538586 0.275391
v -0.0386051 0.539406 0.276465
v -0.0265004 0.54001 0.277327
v -0.134051 0.494246 0.309011
v -0.0849233 0.503824 0.317949
v -0.098866 0.501425 0.315937
v -0.115802 0.498011 0.312761
v -0.127329 0.495709 0.310372
v -0.0849233 0.510652 0.310221
v -0.0694839 0.537631 0.274045
v -0.134051 0.501796 0.300965
v -0.100363 0.543814 0.253053
v -0.100363 0.545921 0.248486
v -0.0859079 0.548672 0.248486
f 1 2 6
f 1 6 11
f 1 11 20
f 1 20 40
f 1 40 36
f 1 36 17
f 1 17 8
f 1 8 3
f 1 3 9
f 1 9 18
f 1 18 39
f 1 39 66
f 1 66 96
f 1 96 105
f 1 105 73
f 1 73 49
f 1 49 28
f 1 28 19
f 1 19 10
f 1 10 4
f 1 4 7
f 1 7 2
f 2 5 6
f 2 7 5
f 3 8 9
f 4 10 7
f 5 7 6
f 6 7 11
f 7 12 13
f 7 13 14
f 7 14 11
f 7 10 15
f 7 15 12
f 8 16 9
f 8 17 37
f 8 37 62
f 8 62 70
f 8 70 100
f 8 100 99
f 8 99 104
f 8 104 103
f 8 103 102
f 8 102 129
f 8 129 136
f 8 136 115
f 8 115 86
f 8 86 59
f 8 59 35
f 8 35 16
f 9 16 35
f 9 35 60
f 9 60 88
f 9 88 121
f 9 121 138
f 9 138 139
f 9 139 123
f 9 123 90
f 9 90 63
f 9 63 38
f 9 38 18
f 10 19 15
f 11 14 21
f 11 21 20
f 12 22 23
f 12 23 13
f 12 15 22
f 13 24 21
f 13 21 25
f 13 25 26
f 13 26 14
f 13 23 27
f 13 27 24
f 14 26 21
f 15 19 28
f 15 28 29
f 15 29 30
f 15 30 31
f 15 31 32
f 15 32 33
f 15 33 34
f 15 34 22
f 17 36 37
f 18 38 65
f 18 65 39
f 20 21 41
f 20 41 40
f 21 26 42
f 21 42 25
f 21 24 41
f 22 34 43
f 22 43 23
f 23 43 44
f 23 44 45
f 23 45 27
f 24 27 46
f 24 46 47
f 24 47 41
f 25 42 26
f 27 45 48
f 27 48 46
f 28 49 29
f 29 49 73
f 29 73 50
f 29 50 51
f 29 51 52
f 29 52 30
f 30 52 53
f 30 53 54
f 30 54 55
f 30 55 31
f 31 56 32
f 31 55 57
f 31 57 44
f 31 44 56
f 32 56 33
f 33 56 58
f 33 58 34
f 34 58 43
f 35 59 60
f 36 40 47
f 36 47 37
f 37 47 61
f 37 61 62
f 38 63 64
f 38 64 65
f 39 65 66
f 40 41 47
f 43 58 44
f 44 58 56
f 44 57 67
f 44 67 45
f 45 67 48
f 46 48 68
f 46 68 69
f 46 69 47
f 47 69 70
f 47 70 62
f 47 62 61
f 48 67 71
f 48 71 72
f 48 72 68
f 50 73 105
f 50 105 74
f 50 74 75
f 50 75 76
f 50 76 77
f 50 77 78
f 50 78 79
f 50 79 80
f 50 80 51
f 51 80 52
f 52 80 81
f 52 81 53
f 53 81 82
f 53 82 54
f 54 82 55
f 55 82 83
f 55 83 84
f 55 84 57
f 57 84 85
f 57 85 67
f 59 86 87
f 59 87 60
f 60 87 89
f 60 89 88
f 63 90 91
f 63 91 64
f 64 91 92
f 64 92 65
f 65 92 93
f 65 93 94
f 65 94 95
f 65 95 66
f 66 95 96
f 67 85 97
f 67 97 98
f 67 98 71
f 68 72 99
f 68 99 100
f 68 100 69
f 69 100 70
f 71 98 101
f 71 101 102
f 71 102 103
f 71 103 72
f 72 103 104
f 72 104 99
f 74 106 107
f 74 107 108
f 74 108 109
f 74 109 76
f 74 76 75
f 74 105 96
f 74 96 95
f 74 95 110
f 74 110 106
f 76 109 111
f 76 111 77
f 77 111 112
f 77 112 78
f 78 112 113
f 78 113 79
f 79 113 114
f 79 114 84
f 79 84 83
f 79 83 82
f 79 82 81
f 79 81 80
f 84 114 85
f 85 114 97
f 86 115 116
f 86 116 117
f 86 117 118
f 86 118 87
f 87 118 89
f 88 119 120
f 88 120 121
f 88 89 122
f 88 122 119
f 89 118 122
f 90 123 91
f 91 124 119
f 91 119 125
f 91 125 92
f 91 123 124
f 92 125 126
f 92 126 127
f 92 127 128
f 92 128 110
f 92 110 95
f 92 95 93
f 93 95 94
f 97 129 101
f 97 101 98
f 97 114 130
f 97 130 118
f 97 118 131
f 97 131 132
f 97 132 133
f 97 133 129
f 101 129 102
f 106 110 107
f 107 110 108
f 108 134 113
f 108 113 112
f 108 112 111
f 108 111 109
f 108 110 128
f 108 128 127
f 108 127 126
f 108 126 135
f 108 135 134
f 113 134 130
f 113 130 114
f 115 136 116
f 116 136 132
f 116 132 117
f 117 132 131
f 117 131 118
f 118 130 134
f 118 134 119
f 118 119 122
f 119 124 137
f 119 137 120
f 119 134 125
f 120 137 121
f 121 137 138
f 123 139 124
f 124 139 138
f 124 138 137
f 125 134 135
f 125 135 126
f 129 133 136
f 132 136 133
