v 0.240303 0.456939 -0.142579
v 0.240303 0.478805 -8.72144e-05
v 0.240303 0.540035 -0.142579
v 0.292858 0.356914 -0.142579
v 0.240303 0.564503 -8.72144e-05
v 0.326905 0.356914 -8.72144e-05
v 0.240303 0.540665 -0.140961
v 0.2456 0.539507 -0.135827
v 0.243446 0.538125 -0.142579
v 0.375057 0.356914 -0.142579
v 0.278563 0.540889 -8.72144e-05
v 0.240303 0.564503 -0.00826148
v 0.402977 0.356914 -8.72144e-05
v 0.240303 0.543592 -0.131182
v 0.247866 0.54099 -0.125533
v 0.283556 0.513007 -0.142579
v 0.386528 0.356914 -0.115127
v 0.3696 0.390344 -0.142579
v 0.371132 0.38817 -0.140249
v 0.278563 0.540889 -0.00773141
v 0.323651 0.509065 -8.72144e-05
v 0.278052 0.540523 -0.0161986
v 0.267681 0.543673 -0.0540569
v 0.266325 0.54288 -0.0694987
v 0.240303 0.558813 -0.0540569
v 0.403297 0.356914 -0.00861022
v 0.397537 0.393778 -8.72144e-05
v 0.240303 0.543714 -0.130708
v 0.26248 0.540421 -0.0925569
v 0.296575 0.511808 -0.11581
v 0.249812 0.542169 -0.11581
v 0.264506 0.541722 -0.0822623
v 0.294438 0.510345 -0.126147
v 0.286428 0.511077 -0.142579
v 0.390963 0.356914 -0.10108
v 0.379779 0.393778 -0.11581
v 0.385698 0.378334 -0.106534
v 0.373318 0.393494 -0.131629
v 0.368292 0.395363 -0.142579
v 0.323651 0.509065 -0.00773141
v 0.339749 0.494169 -8.72144e-05
v 0.277334 0.540015 -0.0264932
v 0.313886 0.513251 -0.0386151
v 0.312865 0.51258 -0.0540569
v 0.311828 0.511869 -0.0694987
v 0.276473 0.539405 -0.0386151
v 0.275404 0.538592 -0.0540569
v 0.310233 0.51065 -0.0849266
v 0.240303 0.55609 -0.0694987
v 0.393516 0.356914 -0.085387
v 0.397537 0.393778 -0.00773141
v 0.394745 0.401582 -8.72144e-05
v 0.240303 0.546904 -0.11581
v 0.309036 0.509715 -0.0931288
v 0.253051 0.543815 -0.100368
v 0.256322 0.544994 -0.0864192
v 0.292332 0.50874 -0.136441
v 0.291039 0.507642 -0.142579
v 0.391953 0.356914 -0.0954304
v 0.386783 0.389186 -0.0962255
v 0.369792 0.398452 -0.137013
v 0.371914 0.404244 -0.126719
v 0.373956 0.409325 -0.115476
v 0.37895 0.409223 -0.100368
v 0.384502 0.394104 -0.100968
v 0.364734 0.404651 -0.142579
v 0.339749 0.494169 -0.000282502
v 0.33316 0.49992 -0.00635044
v 0.330527 0.500489 -0.0231732
v 0.322614 0.508211 -0.0231732
v 0.339877 0.493966 -8.72144e-05
v 0.321608 0.507297 -0.0386151
v 0.320587 0.506301 -0.0540569
v 0.31955 0.505264 -0.0694987
v 0.317955 0.503822 -0.0849266
v 0.395543 0.393778 -0.0231732
v 0.386209 0.401907 -0.0785239
v 0.386815 0.403248 -0.0694987
v 0.392001 0.409223 -0.00773141
v 0.392001 0.409223 -8.72144e-05
v 0.324927 0.494839 -0.0943005
v 0.315929 0.501424 -0.0988619
v 0.306882 0.508008 -0.103423
v 0.304298 0.505732 -0.11581
v 0.299399 0.500042 -0.142579
v 0.389448 0.393778 -0.0694987
v 0.39149 0.393778 -0.0540569
v 0.385523 0.399489 -0.0888185
v 0.387438 0.394104 -0.0841734
v 0.362373 0.409995 -0.142579
v 0.369281 0.414527 -0.1204
v 0.371435 0.418063 -0.110105
v 0.372871 0.420034 -0.100368
v 0.382603 0.407922 -0.0841734
v 0.343738 0.487483 -0.00635044
v 0.339079 0.493336 -0.0105771
v 0.327416 0.497542 -0.0694987
v 0.328437 0.498579 -0.0540569
v 0.32949 0.499574 -0.0386151
v 0.387182 0.418612 -0.00773141
v 0.387182 0.418612 -8.72144e-05
v 0.326076 0.496099 -0.0849266
v 0.38313 0.410971 -0.0694987
v 0.38782 0.405443 -0.0540569
v 0.388842 0.407536 -0.0386151
v 0.389352 0.410503 -0.0236475
v 0.385794 0.416498 -0.0291296
v 0.38648 0.417596 -0.018835
v 0.389575 0.413958 -8.72144e-05
v 0.322821 0.49236 -0.104595
v 0.308286 0.493478 -0.137627
v 0.310376 0.495713 -0.127332
v 0.312754 0.49801 -0.11581
v 0.334643 0.485125 -0.0844942
v 0.339159 0.477708 -0.0893485
v 0.328884 0.486893 -0.0998105
v 0.303037 0.496587 -0.142579
v 0.357379 0.418693 -0.142579
v 0.35698 0.419303 -0.142579
v 0.324592 0.479151 -0.124305
v 0.326347 0.481569 -0.11581
v 0.374403 0.422026 -0.0849266
v 0.34369 0.484516 -0.0231732
v 0.338249 0.492238 -0.0231732
v 0.337212 0.490816 -0.0386151
v 0.336159 0.489352 -0.0540569
v 0.335138 0.487849 -0.0694987
v 0.384135 0.413165 -0.0540569
v 0.385156 0.415259 -0.0386151
v 0.340004 0.47913 -0.079054
v 0.340642 0.480126 -0.0694987
v 0.342669 0.483114 -0.0386151
v 0.307249 0.492157 -0.142579
v 0.315721 0.480614 -0.142579
v 0.313328 0.484109 -0.142579
f 1 2 5
f 1 5 12
f 1 12 25
f 1 25 49
f 1 49 53
f 1 53 28
f 1 28 14
f 1 14 7
f 1 7 3
f 1 3 9
f 1 9 16
f 1 16 34
f 1 34 58
f 1 58 85
f 1 85 117
f 1 117 133
f 1 133 135
f 1 135 134
f 1 134 119
f 1 119 118
f 1 118 90
f 1 90 66
f 1 66 39
f 1 39 18
f 1 18 10
f 1 10 4
f 1 4 2
f 2 4 6
f 2 6 13
f 2 13 27
f 2 27 52
f 2 52 80
f 2 80 109
f 2 109 101
f 2 101 71
f 2 71 41
f 2 41 21
f 2 21 11
f 2 11 5
f 3 7 8
f 3 8 9
f 4 10 17
f 4 17 35
f 4 35 59
f 4 59 50
f 4 50 26
f 4 26 13
f 4 13 6
f 5 11 20
f 5 20 12
f 7 14 8
f 8 14 15
f 8 15 16
f 8 16 9
f 10 18 19
f 10 19 17
f 11 21 40
f 11 40 20
f 12 20 22
f 12 22 23
f 12 23 24
f 12 24 25
f 13 26 27
f 14 28 15
f 15 29 30
f 15 30 16
f 15 28 31
f 15 31 32
f 15 32 29
f 16 30 33
f 16 33 34
f 17 19 36
f 17 36 37
f 17 37 35
f 18 38 19
f 18 39 38
f 19 38 36
f 20 40 22
f 21 41 67
f 21 67 40
f 22 42 23
f 22 40 43
f 22 43 44
f 22 44 45
f 22 45 42
f 23 42 46
f 23 46 47
f 23 47 24
f 24 32 25
f 24 47 45
f 24 45 48
f 24 48 32
f 25 32 49
f 26 50 51
f 26 51 27
f 27 51 52
f 28 53 31
f 29 32 54
f 29 54 30
f 30 54 33
f 31 53 55
f 31 55 32
f 32 55 56
f 32 56 49
f 32 48 54
f 33 54 57
f 33 57 34
f 34 57 58
f 35 37 60
f 35 60 59
f 36 38 61
f 36 61 62
f 36 62 63
f 36 63 64
f 36 64 65
f 36 65 37
f 37 65 60
f 38 39 61
f 39 66 61
f 40 67 68
f 40 68 69
f 40 69 70
f 40 70 45
f 40 45 44
f 40 44 43
f 41 71 67
f 42 45 46
f 45 70 72
f 45 72 73
f 45 73 74
f 45 74 48
f 45 47 46
f 48 74 75
f 48 75 54
f 49 56 55
f 49 55 53
f 50 59 60
f 50 60 76
f 50 76 51
f 51 76 77
f 51 77 78
f 51 78 79
f 51 79 52
f 52 79 80
f 54 75 81
f 54 81 82
f 54 82 83
f 54 83 57
f 57 83 58
f 58 83 84
f 58 84 85
f 60 86 87
f 60 87 76
f 60 65 88
f 60 88 89
f 60 89 86
f 61 66 62
f 62 66 90
f 62 90 91
f 62 91 63
f 63 91 92
f 63 92 64
f 64 92 93
f 64 93 94
f 64 94 88
f 64 88 65
f 67 95 96
f 67 96 97
f 67 97 98
f 67 98 99
f 67 99 69
f 67 69 68
f 67 71 100
f 67 100 95
f 69 72 70
f 69 99 72
f 71 101 100
f 72 99 73
f 73 99 98
f 73 98 97
f 73 97 74
f 74 97 102
f 74 102 75
f 75 102 81
f 76 87 88
f 76 88 77
f 77 94 78
f 77 88 94
f 78 94 103
f 78 103 128
f 78 128 104
f 78 104 79
f 79 104 105
f 79 105 106
f 79 106 107
f 79 107 108
f 79 108 100
f 79 100 109
f 79 109 80
f 81 110 111
f 81 111 112
f 81 112 113
f 81 113 82
f 81 102 114
f 81 114 115
f 81 115 116
f 81 116 110
f 82 113 83
f 83 113 84
f 84 113 85
f 85 113 112
f 85 112 117
f 86 89 87
f 87 89 88
f 90 118 91
f 91 118 92
f 92 118 119
f 92 119 120
f 92 120 121
f 92 121 115
f 92 115 93
f 93 122 94
f 93 115 122
f 94 122 103
f 95 123 96
f 95 100 123
f 96 124 97
f 96 123 124
f 97 124 125
f 97 125 126
f 97 126 127
f 97 127 102
f 100 101 109
f 100 108 123
f 102 127 114
f 103 122 128
f 104 128 129
f 104 129 105
f 105 129 107
f 105 107 106
f 107 122 130
f 107 130 108
f 107 129 122
f 108 130 131
f 108 131 132
f 108 132 123
f 110 116 121
f 110 121 133
f 110 133 111
f 111 117 112
f 111 133 117
f 114 127 130
f 114 130 115
f 115 121 116
f 115 130 122
f 119 134 120
f 120 134 135
f 120 135 121
f 121 135 133
f 122 129 128
f 123 132 124
f 124 132 125
f 125 127 126
f 125 132 131
f 125 131 127
f 127 131 130
