v -0.00772533 0.609877 -0.221229
v 7.2114e-05 0.609877 -0.221229
v -0.0231643 0.609877 -0.219257
v -0.00772533 0.738237 -0.341743
v 7.2114e-05 0.738237 -0.341743
v 7.2114e-05 0.609877 -0.155338
v -0.0385749 0.609877 -0.217172
v -0.0231643 0.7395 -0.340757
v -0.00772533 0.744051 -0.341743
v 7.2114e-05 0.744051 -0.341743
v 7.2114e-05 0.625407 -0.15514
v -0.144762 0.625324 -0.0539795
v -0.144762 0.611389 -0.0550499
v -0.144762 0.609894 -0.0551908
v -0.140565 0.609877 -0.0653323
v -0.0535034 0.609877 -0.214637
v -0.08492 0.736576 -0.328559
v -0.0336412 0.740546 -0.340081
v -0.0231643 0.742739 -0.340757
v -0.00772533 0.751774 -0.334729
v -0.0694953 0.755428 -0.322953
v 7.2114e-05 0.751774 -0.334729
v -0.144762 0.625407 -0.0539795
v 7.2114e-05 0.630639 -0.155479
v -0.144762 0.609877 -0.066769
v -0.0694102 0.609877 -0.209763
v -0.100359 0.738686 -0.326334
v -0.0336412 0.741759 -0.340081
v -0.108922 0.740613 -0.324615
v -0.0694953 0.747705 -0.329742
v -0.0386174 0.757305 -0.324982
v -0.00772533 0.759166 -0.32701
v -0.08492 0.746426 -0.328559
v -0.08492 0.754149 -0.321432
v -0.0694953 0.762371 -0.315235
v 7.2114e-05 0.759166 -0.32701
v -0.144762 0.640854 -0.0580642
v 7.2114e-05 0.639343 -0.156042
v 7.2114e-05 0.648644 -0.157479
v 7.2114e-05 0.656285 -0.15869
v -0.144762 0.609877 -0.166803
v -0.0694953 0.609877 -0.209735
v -0.141926 0.73945 -0.310051
v -0.085558 0.609877 -0.203172
v -0.108922 0.741709 -0.324615
v -0.100359 0.743785 -0.326334
v 7.2114e-05 0.76385 -0.320502
v -0.0386174 0.764115 -0.316559
v -0.0231643 0.765461 -0.316559
v -0.0063785 0.767803 -0.315009
v -0.100359 0.751509 -0.318812
v -0.100359 0.758601 -0.311093
v -0.08492 0.760993 -0.313713
v -0.0694953 0.770078 -0.304163
v -0.0540563 0.770709 -0.30529
v -0.144762 0.646618 -0.0602052
v 7.2114e-05 0.671732 -0.163028
v -0.132612 0.609877 -0.176184
v -0.144762 0.737191 -0.305516
v -0.141926 0.742838 -0.310051
v -0.0991114 0.609877 -0.197509
v -0.114281 0.609877 -0.189481
v -0.121993 0.609877 -0.184128
v -0.131251 0.752937 -0.304699
v 7.2114e-05 0.767803 -0.315009
v -0.0386174 0.771191 -0.306361
v -0.0231643 0.77159 -0.307375
v -0.0106316 0.771872 -0.308192
v -0.000339027 0.772105 -0.30884
v 7.2114e-05 0.771839 -0.309234
v -0.119484 0.755212 -0.30715
v -0.109177 0.75704 -0.309291
v -0.131251 0.75973 -0.29698
v -0.114919 0.761292 -0.301628
v -0.100359 0.765726 -0.301093
v -0.0863661 0.769381 -0.300529
v -0.0924765 0.772071 -0.293318
v -0.0821838 0.772653 -0.295036
v -0.0694953 0.773101 -0.296445
v -0.144762 0.656268 -0.0638392
v 7.2114e-05 0.683973 -0.167986
v -0.144762 0.746343 -0.305347
v -0.144762 0.749947 -0.301797
v -0.142196 0.757787 -0.294726
v -0.0540563 0.773433 -0.297572
v -0.0386174 0.773749 -0.298642
v -0.0231643 0.774081 -0.299656
v -0.0063785 0.773948 -0.302276
v 7.2114e-05 0.772105 -0.30884
v -0.144762 0.761989 -0.288247
v -0.144762 0.763202 -0.286416
v -0.115812 0.769879 -0.28836
v -0.100359 0.77149 -0.291684
v -0.135802 0.771656 -0.276641
v -0.130897 0.773965 -0.270978
v -0.115812 0.776041 -0.270218
v -0.0863661 0.774613 -0.287177
v -0.0694953 0.776523 -0.285655
v -0.0540563 0.77722 -0.285655
v -0.144762 0.671732 -0.0744032
v 7.2114e-05 0.691697 -0.171198
v 7.2114e-05 0.702593 -0.17717
v 7.2114e-05 0.712608 -0.183565
v -0.144762 0.753518 -0.29805
v -0.144762 0.760179 -0.290529
v 7.2114e-05 0.773948 -0.302276
v -0.0386174 0.777802 -0.285655
v -0.0231643 0.778267 -0.285655
v -0.00772533 0.778549 -0.285655
v 7.2114e-05 0.776008 -0.294839
v -0.144762 0.770344 -0.275429
v -0.144762 0.770842 -0.274584
v -0.144762 0.772985 -0.268246
v -0.144762 0.77335 -0.266978
v -0.144762 0.77624 -0.256752
v -0.100359 0.777785 -0.270218
v -0.144762 0.776772 -0.25478
v -0.08492 0.778865 -0.270218
v -0.144762 0.686133 -0.0865166
v 7.2114e-05 0.748917 -0.209116
v 7.2114e-05 0.757388 -0.215341
v -0.0694953 0.779247 -0.270218
v -0.0540563 0.779413 -0.270218
v -0.0386174 0.779546 -0.270218
v -0.0231643 0.779562 -0.270218
v 7.2114e-05 0.778549 -0.285655
v -0.131251 0.778283 -0.25478
v -0.144762 0.779164 -0.241258
v -0.115812 0.779097 -0.25478
v -0.100359 0.779496 -0.25478
v -0.144762 0.686465 -0.0867983
v 7.2114e-05 0.760245 -0.219651
v -0.144762 0.759498 -0.16362
v -0.144762 0.756491 -0.159648
v -0.144762 0.751509 -0.153309
v -0.144762 0.748668 -0.150182
v -0.144762 0.704586 -0.103278
v -0.144762 0.703091 -0.101785
v -0.144762 0.702227 -0.10094
v -0.131251 0.779496 -0.239343
v 7.2114e-05 0.77938 -0.270218
v 7.2114e-05 0.778964 -0.278021
v -0.144762 0.779313 -0.239343
v 7.2114e-05 0.763052 -0.223905
v -0.144762 0.760112 -0.164718
v 7.2114e-05 0.766574 -0.229539
v 7.2114e-05 0.770028 -0.235089
v -0.144762 0.77918 -0.225821
v -0.144762 0.778981 -0.223905
v -0.144762 0.777519 -0.210383
v 7.2114e-05 0.77737 -0.25478
v -0.144762 0.768201 -0.1801
v 7.2114e-05 0.772138 -0.238976
v 7.2114e-05 0.774214 -0.242808
v -0.144762 0.777154 -0.208355
v -0.144762 0.77443 -0.194833
v -0.144762 0.774164 -0.193819
v 7.2114e-05 0.775809 -0.248836
v -0.144762 0.769298 -0.182297
v -0.144762 0.772852 -0.190579
f 1 2 6
f 1 6 15
f 1 15 25
f 1 25 41
f 1 41 58
f 1 58 63
f 1 63 62
f 1 62 61
f 1 61 44
f 1 44 42
f 1 42 26
f 1 26 16
f 1 16 7
f 1 7 3
f 1 3 4
f 1 4 5
f 1 5 2
f 2 5 10
f 2 10 22
f 2 22 36
f 2 36 47
f 2 47 65
f 2 65 70
f 2 70 89
f 2 89 106
f 2 106 110
f 2 110 126
f 2 126 142
f 2 142 141
f 2 141 151
f 2 151 158
f 2 158 154
f 2 154 153
f 2 153 147
f 2 147 146
f 2 146 144
f 2 144 132
f 2 132 121
f 2 121 120
f 2 120 103
f 2 103 102
f 2 102 101
f 2 101 81
f 2 81 57
f 2 57 40
f 2 40 39
f 2 39 38
f 2 38 24
f 2 24 11
f 2 11 6
f 3 7 4
f 4 8 19
f 4 19 9
f 4 9 10
f 4 10 5
f 4 7 8
f 6 11 12
f 6 12 13
f 6 13 14
f 6 14 15
f 7 16 17
f 7 17 8
f 8 18 28
f 8 28 19
f 8 17 18
f 9 20 22
f 9 22 10
f 9 19 21
f 9 21 20
f 11 23 12
f 11 24 23
f 12 23 37
f 12 37 56
f 12 56 80
f 12 80 100
f 12 100 119
f 12 119 131
f 12 131 139
f 12 139 138
f 12 138 137
f 12 137 136
f 12 136 135
f 12 135 134
f 12 134 133
f 12 133 145
f 12 145 152
f 12 152 159
f 12 159 160
f 12 160 157
f 12 157 156
f 12 156 155
f 12 155 150
f 12 150 149
f 12 149 148
f 12 148 143
f 12 143 128
f 12 128 117
f 12 117 115
f 12 115 114
f 12 114 113
f 12 113 112
f 12 112 111
f 12 111 91
f 12 91 90
f 12 90 105
f 12 105 104
f 12 104 83
f 12 83 82
f 12 82 59
f 12 59 41
f 12 41 25
f 12 25 14
f 12 14 13
f 14 25 15
f 16 26 27
f 16 27 17
f 17 27 18
f 18 27 29
f 18 29 45
f 18 45 28
f 19 28 30
f 19 30 21
f 20 21 31
f 20 31 32
f 20 32 36
f 20 36 22
f 21 30 33
f 21 33 34
f 21 34 35
f 21 35 31
f 23 24 38
f 23 38 39
f 23 39 40
f 23 40 37
f 26 42 27
f 27 43 29
f 27 42 44
f 27 44 43
f 28 45 46
f 28 46 33
f 28 33 30
f 29 43 60
f 29 60 45
f 31 35 32
f 32 47 36
f 32 35 48
f 32 48 49
f 32 49 50
f 32 50 47
f 33 46 34
f 34 46 51
f 34 51 52
f 34 52 53
f 34 53 35
f 35 53 54
f 35 54 55
f 35 55 49
f 35 49 48
f 37 40 57
f 37 57 56
f 41 59 58
f 43 59 60
f 43 44 61
f 43 61 62
f 43 62 63
f 43 63 59
f 45 60 46
f 46 60 64
f 46 64 51
f 47 50 65
f 49 55 66
f 49 66 50
f 50 66 67
f 50 67 68
f 50 68 69
f 50 69 70
f 50 70 65
f 51 64 71
f 51 71 72
f 51 72 52
f 52 72 73
f 52 73 74
f 52 74 75
f 52 75 53
f 53 75 76
f 53 76 54
f 54 76 77
f 54 77 78
f 54 78 79
f 54 79 55
f 55 79 66
f 56 57 80
f 57 81 80
f 58 59 63
f 59 82 60
f 60 82 83
f 60 83 64
f 64 83 84
f 64 84 71
f 66 79 67
f 67 79 85
f 67 85 68
f 68 85 69
f 69 85 86
f 69 86 87
f 69 87 88
f 69 88 106
f 69 106 89
f 69 89 70
f 71 84 72
f 72 84 73
f 73 84 90
f 73 90 74
f 74 90 75
f 75 90 91
f 75 91 92
f 75 92 76
f 76 92 93
f 76 93 77
f 77 93 94
f 77 94 95
f 77 95 96
f 77 96 97
f 77 97 78
f 78 97 98
f 78 98 79
f 79 98 99
f 79 99 85
f 80 81 101
f 80 101 102
f 80 102 103
f 80 103 100
f 83 104 84
f 84 104 105
f 84 105 90
f 85 99 86
f 86 99 87
f 87 99 88
f 88 99 107
f 88 107 108
f 88 108 109
f 88 109 110
f 88 110 106
f 91 111 92
f 92 111 112
f 92 112 93
f 93 112 94
f 94 112 113
f 94 113 95
f 95 113 114
f 95 114 115
f 95 115 96
f 96 116 97
f 96 115 117
f 96 117 116
f 97 116 98
f 98 116 118
f 98 118 99
f 99 118 107
f 100 103 120
f 100 120 121
f 100 121 119
f 107 118 108
f 108 118 122
f 108 122 109
f 109 122 123
f 109 123 124
f 109 124 125
f 109 125 126
f 109 126 110
f 116 117 127
f 116 127 118
f 117 128 127
f 118 127 129
f 118 129 130
f 118 130 122
f 119 121 131
f 121 132 133
f 121 133 134
f 121 134 135
f 121 135 136
f 121 136 137
f 121 137 138
f 121 138 139
f 121 139 131
f 122 130 123
f 123 130 124
f 124 130 140
f 124 140 125
f 125 141 142
f 125 142 126
f 125 140 141
f 127 128 129
f 128 143 129
f 129 143 130
f 130 143 140
f 132 144 133
f 133 144 146
f 133 146 147
f 133 147 145
f 140 143 148
f 140 148 141
f 141 148 149
f 141 149 150
f 141 150 151
f 145 147 153
f 145 153 154
f 145 154 152
f 150 155 151
f 151 155 156
f 151 156 157
f 151 157 158
f 152 154 159
f 154 158 157
f 154 157 160
f 154 160 159
