v -0.144762 0.625407 -0.0539807
v -0.144762 0.625324 -0.0539807
v -0.144762 0.640854 -0.0580768
v -0.155135 0.625407 -7.32645e-05
v -0.144762 0.611389 -0.055057
v -0.155213 0.618913 -7.32645e-05
v -0.144762 0.646618 -0.0601996
v -0.156022 0.639343 -7.32645e-05
v -0.155463 0.630639 -7.32645e-05
v -0.144762 0.609894 -0.0551766
v -0.155347 0.609877 -7.32645e-05
v -0.144762 0.656268 -0.0638472
v -0.158683 0.656285 -7.32645e-05
v -0.144762 0.671732 -0.0744015
v -0.145244 0.609877 -0.0540703
v -0.144762 0.609877 -0.0667773
v -0.221271 0.609877 -7.32645e-05
v -0.163022 0.671732 -7.32645e-05
v -0.144762 0.686133 -0.0865105
v -0.144762 0.702227 -0.100952
v -0.144762 0.703091 -0.101789
v -0.144762 0.704586 -0.103284
v -0.144762 0.609877 -0.166759
v -0.341743 0.738237 -7.32645e-05
v -0.221271 0.609877 -0.00772734
v -0.165528 0.677911 -7.32645e-05
v -0.144762 0.748668 -0.150195
v -0.144762 0.751508 -0.153274
v -0.145514 0.609877 -0.16625
v -0.17299 0.738686 -0.295443
v -0.162154 0.736626 -0.298014
v -0.144762 0.737191 -0.305519
v -0.341743 0.744051 -7.32645e-05
v -0.341743 0.738237 -0.00772734
v -0.219266 0.609877 -0.023185
v -0.167996 0.683973 -7.32645e-05
v -0.144762 0.756491 -0.159613
v -0.171197 0.691697 -7.32645e-05
v -0.169577 0.687794 -7.32645e-05
v -0.146247 0.609877 -0.165682
v -0.234267 0.738935 -0.2491
v -0.217319 0.740048 -0.263361
v -0.17299 0.743752 -0.295443
v -0.144762 0.746343 -0.305339
v -0.334725 0.751774 -7.32645e-05
v -0.341743 0.744051 -0.00772734
v -0.34076 0.7395 -0.023185
v -0.217203 0.609877 -0.0385828
v -0.144762 0.759498 -0.163589
v -0.174205 0.697195 -7.32645e-05
v -0.156851 0.609877 -0.156832
v -0.249095 0.738935 -0.23424
v -0.234267 0.743453 -0.2491
v -0.217319 0.742224 -0.263361
v -0.177676 0.749366 -0.285666
v -0.172084 0.757887 -0.279626
v -0.162154 0.754183 -0.290181
v -0.162154 0.746476 -0.298014
v -0.144762 0.749947 -0.301781
v -0.327012 0.759166 -7.32645e-05
v -0.334725 0.751774 -0.00772734
v -0.322944 0.755428 -0.0694981
v -0.34076 0.742739 -0.023185
v -0.340066 0.740546 -0.0336495
v -0.328555 0.736576 -0.0849557
v -0.214677 0.609877 -0.0535023
v -0.144762 0.760112 -0.164696
v -0.215371 0.757388 -7.32645e-05
v -0.209124 0.748917 -7.32645e-05
v -0.183557 0.712608 -7.32645e-05
v -0.180394 0.707659 -7.32645e-05
v -0.177174 0.702593 -7.32645e-05
v -0.165721 0.609877 -0.146248
v -0.263363 0.740048 -0.217287
v -0.249095 0.743453 -0.23424
v -0.175323 0.609877 -0.13375
v -0.176172 0.609877 -0.132644
v -0.23876 0.748585 -0.238725
v -0.232956 0.757621 -0.232954
v -0.22667 0.753734 -0.24324
v -0.18238 0.75498 -0.27568
v -0.18909 0.758784 -0.265394
v -0.177367 0.761375 -0.270417
v -0.162154 0.760328 -0.282467
v -0.152513 0.75596 -0.292572
v -0.144762 0.753518 -0.298044
v -0.315019 0.767803 -7.32645e-05
v -0.327012 0.759166 -0.00772734
v -0.324987 0.757305 -0.0386127
v -0.324409 0.756774 -0.047373
v -0.323734 0.756143 -0.0576582
v -0.315231 0.762371 -0.0694981
v -0.32144 0.754149 -0.0849557
v -0.328555 0.746426 -0.0849557
v -0.32975 0.747705 -0.0694981
v -0.340066 0.741759 -0.0336495
v -0.324621 0.740612 -0.108934
v -0.326337 0.738686 -0.100383
v -0.209741 0.609877 -0.0695878
v -0.144762 0.767088 -0.177971
v -0.223913 0.763052 -7.32645e-05
v -0.144762 0.768201 -0.180093
v -0.144762 0.769297 -0.182276
v -0.144762 0.772852 -0.190528
v -0.144762 0.774164 -0.193787
v -0.263363 0.742224 -0.217287
v -0.295448 0.738686 -0.172948
v -0.243253 0.753734 -0.226646
v -0.285691 0.749366 -0.177642
v -0.184135 0.609877 -0.12203
v -0.222486 0.759564 -0.238575
v -0.238606 0.759564 -0.22246
v -0.223122 0.767969 -0.223118
v -0.216374 0.75674 -0.247186
v -0.199387 0.75586 -0.261448
v -0.208468 0.758983 -0.250236
v -0.193757 0.762654 -0.255677
v -0.178331 0.769713 -0.25499
v -0.161942 0.768467 -0.26952
v -0.147095 0.762371 -0.286742
v -0.146709 0.770659 -0.274155
v -0.144762 0.761989 -0.288237
v -0.144762 0.760179 -0.290539
v -0.309234 0.771839 -7.32645e-05
v -0.315019 0.767803 -0.0063819
v -0.316542 0.765461 -0.023185
v -0.316542 0.764115 -0.0386127
v -0.305301 0.770709 -0.0540703
v -0.304163 0.770095 -0.0694981
v -0.313708 0.760993 -0.0849557
v -0.311105 0.758601 -0.100383
v -0.318837 0.751508 -0.100383
v -0.326337 0.743785 -0.100383
v -0.324621 0.741709 -0.108934
v -0.310044 0.73945 -0.141943
v -0.203185 0.609877 -0.0855836
v -0.229447 0.766507 -7.32645e-05
v -0.144762 0.77443 -0.194804
v -0.242828 0.774214 -7.32645e-05
v -0.238991 0.772138 -7.32645e-05
v -0.235096 0.770028 -7.32645e-05
v -0.295448 0.743752 -0.172948
v -0.189476 0.609877 -0.114316
v -0.197497 0.609877 -0.0991277
v -0.275684 0.75498 -0.182336
v -0.261454 0.75586 -0.199348
v -0.247205 0.75674 -0.216361
v -0.279637 0.757887 -0.172051
v -0.207042 0.766972 -0.237858
v -0.250232 0.758983 -0.208437
v -0.265388 0.758784 -0.189063
v -0.27042 0.761375 -0.177343
v -0.255689 0.762654 -0.193727
v -0.237892 0.766972 -0.207032
v -0.22775 0.770743 -0.211218
v -0.217454 0.77242 -0.217437
v -0.211245 0.770743 -0.227722
v -0.166955 0.771424 -0.260252
v -0.144762 0.763202 -0.286413
v -0.156659 0.77252 -0.2639
v -0.144762 0.770842 -0.274603
v -0.144762 0.770344 -0.275411
v -0.308849 0.772104 -7.32645e-05
v -0.308849 0.772104 -0.000342357
v -0.308193 0.771872 -0.0106275
v -0.307383 0.77159 -0.023185
v -0.306361 0.771191 -0.0386127
v -0.296451 0.773101 -0.0694981
v -0.295024 0.772653 -0.082205
v -0.293327 0.772071 -0.0925201
v -0.300538 0.76938 -0.0863909
v -0.301097 0.765726 -0.100383
v -0.301637 0.761292 -0.114944
v -0.29699 0.759747 -0.131269
v -0.309292 0.757039 -0.109204
v -0.307152 0.755212 -0.119489
v -0.304722 0.752937 -0.131269
v -0.310044 0.742838 -0.141943
v -0.19769 0.609877 -0.0986792
v -0.144762 0.777154 -0.208348
v -0.248729 0.775775 -7.32645e-05
v -0.144762 0.777519 -0.210381
v -0.298012 0.746476 -0.162124
v -0.290203 0.754183 -0.162124
v -0.282471 0.760328 -0.162124
v -0.269533 0.768467 -0.161915
v -0.254976 0.769713 -0.1783
v -0.260259 0.771424 -0.166938
v -0.246029 0.771806 -0.18392
v -0.231761 0.772121 -0.200933
v -0.207042 0.773118 -0.223118
v -0.200949 0.772121 -0.231729
v -0.223122 0.773118 -0.207032
v -0.208468 0.77634 -0.208437
v -0.183961 0.771806 -0.24602
v -0.146709 0.773267 -0.266441
v -0.144762 0.772985 -0.268235
v -0.161942 0.773832 -0.25499
v -0.146709 0.776556 -0.25478
v -0.302274 0.773948 -7.32645e-05
v -0.302274 0.773948 -0.0063819
v -0.299651 0.774081 -0.023185
v -0.298649 0.773749 -0.0386127
v -0.297588 0.773433 -0.0540703
v -0.285672 0.77722 -0.0540703
v -0.285672 0.776523 -0.0694981
v -0.287176 0.774613 -0.0863909
v -0.291688 0.77149 -0.100383
v -0.270228 0.776041 -0.115841
v -0.27098 0.773965 -0.13091
v -0.276629 0.771656 -0.135813
v -0.288372 0.769879 -0.115841
v -0.286733 0.762371 -0.147115
v -0.292594 0.75596 -0.152527
v -0.254783 0.77737 -7.32645e-05
v -0.144762 0.778981 -0.223895
v -0.274161 0.770659 -0.146726
v -0.263903 0.77252 -0.156623
v -0.234807 0.772902 -0.19301
v -0.249963 0.772819 -0.173635
v -0.223913 0.775676 -0.19301
v -0.193024 0.775676 -0.223895
v -0.193024 0.772902 -0.234778
v -0.239358 0.777586 -0.162124
v -0.223913 0.778184 -0.177552
v -0.208468 0.778765 -0.19301
v -0.193024 0.778765 -0.208437
v -0.177599 0.778184 -0.223895
v -0.162154 0.777586 -0.239323
v -0.173665 0.772819 -0.249967
v -0.144762 0.77335 -0.266979
v -0.144762 0.77624 -0.256754
v -0.144762 0.776772 -0.25478
v -0.294677 0.776058 -7.32645e-05
v -0.285672 0.778549 -0.00772734
v -0.285672 0.778267 -0.023185
v -0.285672 0.777802 -0.0386127
v -0.270228 0.778865 -0.0849557
v -0.270228 0.777785 -0.100383
v -0.254783 0.776556 -0.146726
v -0.266429 0.773267 -0.146726
v -0.262438 0.778366 -7.32645e-05
v -0.144762 0.77918 -0.225838
v -0.254976 0.773832 -0.161915
v -0.240283 0.77438 -0.1783
v -0.254783 0.778283 -0.131269
v -0.239358 0.779297 -0.146726
v -0.162154 0.779463 -0.223895
v -0.223913 0.779463 -0.162124
v -0.146709 0.779297 -0.239323
v -0.144762 0.779164 -0.241266
v -0.285672 0.778549 -7.32645e-05
v -0.270228 0.779562 -0.023185
v -0.270228 0.779546 -0.0386127
v -0.270228 0.779413 -0.0540703
v -0.270228 0.779247 -0.0694981
v -0.254783 0.779496 -0.100383
v -0.254783 0.779097 -0.115841
v -0.270228 0.77938 -7.32645e-05
v -0.144762 0.779313 -0.239323
v -0.239358 0.779496 -0.131269
v -0.277863 0.778981 -7.32645e-05
f 1 2 5
f 1 5 10
f 1 10 16
f 1 16 23
f 1 23 32
f 1 32 44
f 1 44 59
f 1 59 86
f 1 86 123
f 1 123 122
f 1 122 159
f 1 159 162
f 1 162 161
f 1 161 197
f 1 197 231
f 1 231 232
f 1 232 233
f 1 233 251
f 1 251 260
f 1 260 243
f 1 243 216
f 1 216 182
f 1 182 180
f 1 180 138
f 1 138 105
f 1 105 104
f 1 104 103
f 1 103 102
f 1 102 100
f 1 100 67
f 1 67 49
f 1 49 37
f 1 37 28
f 1 28 27
f 1 27 22
f 1 22 21
f 1 21 20
f 1 20 19
f 1 19 14
f 1 14 12
f 1 12 7
f 1 7 3
f 1 3 4
f 1 4 2
f 2 4 6
f 2 6 5
f 3 7 8
f 3 8 9
f 3 9 4
f 4 9 8
f 4 8 13
f 4 13 18
f 4 18 26
f 4 26 36
f 4 36 39
f 4 39 38
f 4 38 50
f 4 50 72
f 4 72 71
f 4 71 70
f 4 70 69
f 4 69 68
f 4 68 101
f 4 101 137
f 4 137 141
f 4 141 140
f 4 140 139
f 4 139 181
f 4 181 215
f 4 215 242
f 4 242 259
f 4 259 262
f 4 262 252
f 4 252 234
f 4 234 200
f 4 200 163
f 4 163 124
f 4 124 87
f 4 87 60
f 4 60 45
f 4 45 33
f 4 33 24
f 4 24 17
f 4 17 11
f 4 11 6
f 5 6 11
f 5 11 10
f 7 12 8
f 8 12 14
f 8 14 13
f 10 15 16
f 10 11 15
f 11 17 25
f 11 25 35
f 11 35 48
f 11 48 66
f 11 66 99
f 11 99 136
f 11 136 179
f 11 179 144
f 11 144 143
f 11 143 110
f 11 110 77
f 11 77 76
f 11 76 73
f 11 73 51
f 11 51 40
f 11 40 29
f 11 29 23
f 11 23 16
f 11 16 15
f 13 14 19
f 13 19 20
f 13 20 21
f 13 21 22
f 13 22 18
f 17 24 34
f 17 34 25
f 18 22 27
f 18 27 28
f 18 28 26
f 23 29 30
f 23 30 31
f 23 31 32
f 24 33 46
f 24 46 34
f 25 34 35
f 26 28 36
f 28 37 38
f 28 38 39
f 28 39 36
f 29 40 41
f 29 41 42
f 29 42 30
f 30 42 54
f 30 54 43
f 30 43 32
f 30 32 31
f 32 43 44
f 33 45 61
f 33 61 46
f 34 46 63
f 34 63 47
f 34 47 48
f 34 48 35
f 37 49 38
f 38 49 50
f 40 51 41
f 41 52 75
f 41 75 53
f 41 53 54
f 41 54 42
f 41 51 52
f 43 54 53
f 43 53 55
f 43 55 56
f 43 56 57
f 43 57 58
f 43 58 44
f 44 58 59
f 45 60 88
f 45 88 61
f 46 61 62
f 46 62 63
f 47 63 96
f 47 96 64
f 47 64 65
f 47 65 48
f 48 65 66
f 49 67 68
f 49 68 69
f 49 69 70
f 49 70 71
f 49 71 72
f 49 72 50
f 51 73 52
f 52 74 106
f 52 106 75
f 52 73 76
f 52 76 77
f 52 77 74
f 53 75 78
f 53 78 79
f 53 79 80
f 53 80 55
f 55 81 56
f 55 80 81
f 56 81 82
f 56 82 83
f 56 83 84
f 56 84 57
f 57 84 85
f 57 85 58
f 58 85 59
f 59 85 86
f 60 87 125
f 60 125 88
f 61 88 89
f 61 89 90
f 61 90 91
f 61 91 62
f 62 91 90
f 62 90 92
f 62 92 93
f 62 93 94
f 62 94 95
f 62 95 63
f 63 95 96
f 64 96 134
f 64 134 97
f 64 97 98
f 64 98 65
f 65 98 66
f 66 98 99
f 67 100 68
f 68 100 102
f 68 102 103
f 68 103 104
f 68 104 105
f 68 105 101
f 74 77 107
f 74 107 142
f 74 142 106
f 75 108 79
f 75 79 78
f 75 106 109
f 75 109 108
f 77 110 107
f 79 111 80
f 79 108 112
f 79 112 113
f 79 113 111
f 80 111 114
f 80 114 115
f 80 115 81
f 81 115 82
f 82 115 116
f 82 116 83
f 83 116 111
f 83 111 117
f 83 117 118
f 83 118 119
f 83 119 84
f 84 120 85
f 84 119 121
f 84 121 120
f 85 120 122
f 85 122 123
f 85 123 86
f 87 124 125
f 88 126 127
f 88 127 92
f 88 92 89
f 88 125 126
f 89 92 90
f 92 128 129
f 92 129 130
f 92 130 93
f 92 127 126
f 92 126 128
f 93 130 131
f 93 131 132
f 93 132 133
f 93 133 94
f 94 133 96
f 94 96 95
f 96 133 134
f 97 134 178
f 97 178 135
f 97 135 98
f 98 136 99
f 98 135 136
f 101 105 137
f 105 138 139
f 105 139 140
f 105 140 141
f 105 141 137
f 106 142 109
f 107 110 143
f 107 143 144
f 107 144 135
f 107 135 178
f 107 178 142
f 108 109 145
f 108 145 146
f 108 146 147
f 108 147 112
f 109 142 148
f 109 148 145
f 111 149 117
f 111 116 114
f 111 113 149
f 112 147 150
f 112 150 151
f 112 151 152
f 112 152 153
f 112 153 154
f 112 154 113
f 113 154 155
f 113 155 156
f 113 156 157
f 113 157 149
f 114 116 115
f 117 149 118
f 118 158 119
f 118 149 157
f 118 157 158
f 119 158 121
f 120 121 159
f 120 159 122
f 121 158 160
f 121 160 161
f 121 161 162
f 121 162 159
f 124 163 164
f 124 164 125
f 125 164 165
f 125 165 166
f 125 166 167
f 125 167 126
f 126 167 128
f 128 168 129
f 128 167 168
f 129 168 169
f 129 169 170
f 129 170 171
f 129 171 130
f 130 171 172
f 130 172 131
f 131 172 173
f 131 173 174
f 131 174 175
f 131 175 132
f 132 175 176
f 132 176 177
f 132 177 133
f 133 177 178
f 133 178 134
f 135 144 179
f 135 179 136
f 138 180 139
f 139 180 182
f 139 182 181
f 142 178 183
f 142 183 184
f 142 184 148
f 145 151 146
f 145 148 151
f 146 151 147
f 147 151 150
f 148 152 151
f 148 184 185
f 148 185 186
f 148 186 152
f 152 186 187
f 152 187 153
f 153 187 154
f 154 187 155
f 155 187 188
f 155 188 189
f 155 189 190
f 155 190 156
f 156 191 192
f 156 192 157
f 156 190 193
f 156 193 194
f 156 194 191
f 157 192 195
f 157 195 158
f 158 195 160
f 160 196 197
f 160 197 161
f 160 195 198
f 160 198 199
f 160 199 196
f 163 200 201
f 163 201 164
f 164 201 202
f 164 202 203
f 164 203 204
f 164 204 165
f 165 204 166
f 166 204 168
f 166 168 167
f 168 204 205
f 168 205 206
f 168 206 169
f 169 207 170
f 169 206 207
f 170 208 171
f 170 207 209
f 170 209 210
f 170 210 211
f 170 211 208
f 171 208 212
f 171 212 172
f 172 212 213
f 172 213 173
f 173 213 174
f 174 213 214
f 174 214 175
f 175 214 176
f 176 214 177
f 177 214 183
f 177 183 178
f 181 182 215
f 182 216 215
f 183 214 184
f 184 214 185
f 185 214 213
f 185 213 217
f 185 217 186
f 186 217 188
f 186 188 187
f 188 217 218
f 188 218 189
f 189 219 190
f 189 218 220
f 189 220 219
f 190 219 221
f 190 221 193
f 191 194 222
f 191 222 192
f 192 223 195
f 192 222 223
f 193 221 194
f 194 221 224
f 194 224 225
f 194 225 226
f 194 226 227
f 194 227 228
f 194 228 229
f 194 229 222
f 195 230 198
f 195 223 230
f 196 231 197
f 196 199 232
f 196 232 231
f 198 229 199
f 198 230 222
f 198 222 229
f 199 229 233
f 199 233 232
f 200 234 201
f 201 234 235
f 201 235 236
f 201 236 237
f 201 237 205
f 201 205 202
f 202 205 203
f 203 205 204
f 205 238 206
f 205 237 238
f 206 238 239
f 206 239 207
f 207 239 209
f 208 211 217
f 208 217 212
f 209 240 210
f 209 239 240
f 210 240 241
f 210 241 211
f 211 241 218
f 211 218 217
f 212 217 213
f 215 216 243
f 215 243 242
f 218 241 240
f 218 240 244
f 218 244 220
f 219 220 244
f 219 244 245
f 219 245 221
f 221 245 244
f 221 244 224
f 222 230 223
f 224 244 240
f 224 240 246
f 224 246 247
f 224 247 225
f 225 247 226
f 226 248 227
f 226 247 249
f 226 249 248
f 227 248 250
f 227 250 228
f 228 250 229
f 229 250 233
f 233 250 251
f 234 252 235
f 235 253 254
f 235 254 255
f 235 255 256
f 235 256 236
f 235 252 253
f 236 256 238
f 236 238 237
f 238 257 258
f 238 258 246
f 238 246 239
f 238 256 257
f 239 246 240
f 242 243 259
f 243 260 259
f 246 258 247
f 247 258 257
f 247 257 261
f 247 261 249
f 248 260 250
f 248 249 261
f 248 261 253
f 248 253 259
f 248 259 260
f 250 260 251
f 252 262 253
f 253 262 259
f 253 261 254
f 254 261 257
f 254 257 255
f 255 257 256
