v 0.371348 -0.405415 -8.84627e-05
v 0.370196 -0.408285 -8.84627e-05
v 0.368661 -0.412099 -0.00773134
v 0.371321 -0.405415 -0.00773134
v 0.299735 -0.405415 -8.84627e-05
v 0.368661 -0.412099 -8.84627e-05
v 0.355857 -0.418557 -0.0849198
v 0.361725 -0.40921 -0.0694973
v 0.363753 -0.40921 -0.0540596
v 0.365782 -0.40921 -0.0386067
v 0.369593 -0.405415 -0.0212089
v 0.3708 -0.405415 -0.0119098
v 0.33099 -0.501868 -0.00773134
v 0.326466 -0.499055 -0.0540596
v 0.325452 -0.496883 -0.0694973
v 0.256279 -0.405415 -0.155301
v 0.144171 -0.514501 -0.155301
v 0.136275 -0.522243 -0.155301
v 0.132245 -0.526472 -0.155301
v 0.128598 -0.530551 -0.155301
v 0.121689 -0.53852 -0.155301
v 0.221076 -0.503001 -8.84627e-05
v 0.33099 -0.501868 -8.84627e-05
v 0.355282 -0.417254 -0.0930337
v 0.359668 -0.40921 -0.0849198
v 0.361204 -0.405415 -0.0849198
v 0.362739 -0.405415 -0.0732959
v 0.366687 -0.405415 -0.0433474
v 0.36899 -0.405415 -0.0258129
v 0.325836 -0.511461 -0.00773134
v 0.324849 -0.510309 -0.023169
v 0.324328 -0.509648 -0.0313437
v 0.326878 -0.50268 -0.0373456
v 0.323588 -0.508383 -0.0416456
v 0.322738 -0.50674 -0.0540596
v 0.321696 -0.504568 -0.0694973
v 0.324712 -0.495221 -0.0791914
v 0.335295 -0.405415 -0.155301
v 0.118015 -0.543297 -0.155301
v 0.21148 -0.515841 -8.84627e-05
v 0.325836 -0.511461 -8.84627e-05
v 0.35339 -0.412873 -0.103336
v 0.356844 -0.408323 -0.099066
v 0.357941 -0.405415 -0.0993243
v 0.320517 -0.500962 -0.0845703
v 0.313827 -0.50302 -0.101376
v 0.24619 -0.598322 -0.00773134
v 0.245066 -0.598322 -0.0188234
v 0.244517 -0.598322 -0.023169
v 0.242461 -0.598322 -0.0386067
v 0.240377 -0.598322 -0.0540596
v 0.313964 -0.514973 -0.0694973
v 0.312429 -0.513481 -0.0849198
v 0.337762 -0.405415 -0.14936
v 0.333595 -0.409361 -0.155301
v 0.114424 -0.548169 -0.155301
v 0.203008 -0.529154 -8.84627e-05
v 0.109269 -0.555741 -0.155301
v 0.107899 -0.557837 -0.155301
v 0.24619 -0.598322 -8.84627e-05
v 0.350758 -0.408323 -0.114929
v 0.353198 -0.405415 -0.112042
v 0.356214 -0.405415 -0.104171
v 0.310592 -0.497733 -0.11581
v 0.308947 -0.494409 -0.123803
v 0.310565 -0.511461 -0.0969083
v 0.308454 -0.508949 -0.10721
v 0.237471 -0.598322 -0.0656835
v 0.236374 -0.598322 -0.0697708
v 0.336912 -0.40955 -0.147096
v 0.345247 -0.405415 -0.131278
v 0.338831 -0.414913 -0.136855
v 0.294635 -0.497015 -0.155301
v 0.198841 -0.536877 -8.84627e-05
v 0.103896 -0.565541 -0.155301
v 0.179978 -0.598322 -8.84627e-05
v 0.351498 -0.405415 -0.116175
v 0.293895 -0.510177 -0.140243
v 0.233276 -0.598322 -0.0780215
v 0.225819 -0.598322 -0.0961942
v 0.21954 -0.598322 -0.111465
v 0.218279 -0.598322 -0.114519
v 0.291702 -0.50657 -0.150545
v 0.290523 -0.504512 -0.155301
v 0.0973705 -0.579061 -0.155301
v 0.193577 -0.548169 -8.84627e-05
v 0.180334 -0.594507 -8.84627e-05
v 0.091284 -0.598322 -0.155301
v 0.283257 -0.513651 -0.155301
v 0.215017 -0.598322 -0.121068
v 0.0927919 -0.591675 -0.155301
v 0.18749 -0.564578 -8.84627e-05
v 0.190533 -0.556345 -8.84627e-05
v 0.18346 -0.578306 -8.84627e-05
v 0.0925177 -0.592827 -0.155301
v 0.190204 -0.598322 -0.155301
v 0.211452 -0.598322 -0.126857
v 0.208875 -0.598322 -0.130731
v 0.202981 -0.598322 -0.138602
v 0.190369 -0.598322 -0.155088
f 1 2 3
f 1 3 4
f 1 4 12
f 1 12 11
f 1 11 29
f 1 29 28
f 1 28 27
f 1 27 26
f 1 26 44
f 1 44 63
f 1 63 62
f 1 62 77
f 1 77 71
f 1 71 54
f 1 54 38
f 1 38 16
f 1 16 5
f 1 5 22
f 1 22 40
f 1 40 57
f 1 57 74
f 1 74 86
f 1 86 93
f 1 93 92
f 1 92 94
f 1 94 87
f 1 87 76
f 1 76 60
f 1 60 41
f 1 41 23
f 1 23 6
f 1 6 2
f 2 6 3
f 3 7 8
f 3 8 9
f 3 9 10
f 3 10 11
f 3 11 12
f 3 12 4
f 3 6 23
f 3 23 13
f 3 13 14
f 3 14 15
f 3 15 7
f 5 16 17
f 5 17 18
f 5 18 19
f 5 19 20
f 5 20 21
f 5 21 22
f 7 24 25
f 7 25 8
f 7 15 24
f 8 26 27
f 8 27 28
f 8 28 9
f 8 25 26
f 9 28 29
f 9 29 10
f 10 29 11
f 13 23 41
f 13 41 30
f 13 30 31
f 13 31 32
f 13 32 33
f 13 33 14
f 14 33 32
f 14 32 34
f 14 34 35
f 14 35 15
f 15 35 36
f 15 36 37
f 15 37 24
f 16 38 55
f 16 55 73
f 16 73 84
f 16 84 89
f 16 89 96
f 16 96 88
f 16 88 95
f 16 95 91
f 16 91 85
f 16 85 75
f 16 75 59
f 16 59 58
f 16 58 56
f 16 56 39
f 16 39 21
f 16 21 20
f 16 20 19
f 16 19 18
f 16 18 17
f 21 39 22
f 22 39 40
f 24 42 43
f 24 43 44
f 24 44 26
f 24 26 25
f 24 37 45
f 24 45 46
f 24 46 42
f 30 41 60
f 30 60 47
f 30 47 48
f 30 48 49
f 30 49 31
f 31 49 50
f 31 50 51
f 31 51 32
f 32 51 52
f 32 52 34
f 34 52 35
f 35 52 53
f 35 53 36
f 36 45 37
f 36 53 45
f 38 54 55
f 39 56 40
f 40 56 58
f 40 58 59
f 40 59 57
f 42 61 62
f 42 62 63
f 42 63 43
f 42 46 64
f 42 64 65
f 42 65 61
f 43 63 44
f 45 53 66
f 45 66 46
f 46 66 67
f 46 67 64
f 47 60 76
f 47 76 88
f 47 88 96
f 47 96 100
f 47 100 99
f 47 99 98
f 47 98 97
f 47 97 90
f 47 90 82
f 47 82 81
f 47 81 80
f 47 80 79
f 47 79 69
f 47 69 68
f 47 68 51
f 47 51 50
f 47 50 49
f 47 49 48
f 51 68 53
f 51 53 52
f 53 68 69
f 53 69 66
f 54 70 55
f 54 71 70
f 55 70 72
f 55 72 73
f 57 59 74
f 59 75 74
f 61 72 70
f 61 70 71
f 61 71 77
f 61 77 62
f 61 65 72
f 64 67 73
f 64 73 65
f 65 73 72
f 66 78 67
f 66 69 79
f 66 79 80
f 66 80 81
f 66 81 82
f 66 82 78
f 67 78 83
f 67 83 73
f 73 83 84
f 74 75 85
f 74 85 86
f 76 87 88
f 78 89 83
f 78 82 89
f 82 90 89
f 83 89 84
f 85 91 92
f 85 92 93
f 85 93 86
f 87 94 88
f 88 94 95
f 89 90 97
f 89 97 98
f 89 98 99
f 89 99 100
f 89 100 96
f 91 95 94
f 91 94 92
