v 0.00537893 0.441535 -0.36768
v 0.00775217 0.441535 -0.36768
v 7.2114e-05 0.441535 -0.367658
v 7.2114e-05 0.465583 -0.356223
v 0.00775217 0.465583 -0.356223
v 0.0502067 0.441535 -0.363296
v 7.2114e-05 0.441535 -0.290032
v 7.2114e-05 0.473307 -0.352433
v 0.00775217 0.473307 -0.352433
v 0.0790811 0.47915 -0.340005
v 0.0845198 0.471937 -0.342826
v 0.0806303 0.441535 -0.358272
v 7.2114e-05 0.48869 -0.224524
v 0.252097 0.441535 -0.142579
v 7.2114e-05 0.49384 -0.339961
v 0.00636779 0.487502 -0.343729
v 0.0231782 0.484547 -0.343685
v 0.0386372 0.483128 -0.342672
v 0.0694893 0.48014 -0.340644
v 0.0694893 0.487865 -0.335136
v 0.0845198 0.485158 -0.334651
v 0.0893651 0.477714 -0.339146
v 0.0849483 0.441535 -0.357501
v 7.2114e-05 0.491677 -0.220624
v 0.336808 0.441535 -0.142579
v 0.168012 0.491331 -0.142579
v 7.2114e-05 0.533897 -0.180632
v 7.2114e-05 0.526189 -0.186185
v 7.2114e-05 0.51731 -0.193015
v 7.2114e-05 0.513018 -0.196386
v 7.2114e-05 0.508644 -0.199846
v 7.2114e-05 0.505046 -0.20412
v 7.2114e-05 0.501382 -0.208483
v 7.2114e-05 0.494615 -0.21679
v 7.2114e-05 0.494186 -0.339741
v 0.000302849 0.494186 -0.339741
v 0.0105869 0.493361 -0.33908
v 0.0231782 0.492272 -0.338243
v 0.0386372 0.490836 -0.337207
v 0.0694893 0.49757 -0.327402
v 0.0849483 0.496134 -0.32608
v 0.0943094 0.494846 -0.324934
v 0.0998469 0.486907 -0.328878
v 0.115833 0.481576 -0.326344
v 0.100374 0.474149 -0.337273
v 0.100374 0.466425 -0.341283
v 0.100374 0.441535 -0.3536
v 0.0916395 0.441535 -0.35587
v 0.329919 0.441535 -0.160911
v 0.323821 0.46654 -0.142579
v 0.158749 0.497074 -0.142579
v 7.2114e-05 0.548801 -0.172325
v 0.151465 0.50163 -0.142579
v 7.2114e-05 0.61015 -0.221241
v 0.00775217 0.61015 -0.221241
v 0.0231782 0.500508 -0.330531
v 0.0386372 0.499583 -0.329473
v 0.0540632 0.498593 -0.328437
v 0.0694893 0.505294 -0.319536
v 0.0385713 0.61015 -0.217209
v 0.0457239 0.61015 -0.216173
v 0.0535029 0.61015 -0.214675
v 0.098891 0.501448 -0.315922
v 0.115833 0.498015 -0.312727
v 0.12737 0.495721 -0.310347
v 0.137654 0.493493 -0.308276
v 0.104626 0.492371 -0.322819
v 0.0693245 0.61015 -0.209805
v 0.0694893 0.61015 -0.209739
v 0.146718 0.483342 -0.31222
v 0.157332 0.480404 -0.310017
v 0.124337 0.479167 -0.324581
v 0.117185 0.441535 -0.347761
v 0.134621 0.475387 -0.322466
v 0.158749 0.441535 -0.330839
v 0.116525 0.441535 -0.348004
v 0.102846 0.441535 -0.352763
v 0.320854 0.472119 -0.142579
v 0.321019 0.441535 -0.179332
v 0.307901 0.477054 -0.167632
v 7.2114e-05 0.56212 -0.166574
v 0.139203 0.510113 -0.142579
v 0.131622 0.515527 -0.142579
v 7.2114e-05 0.61015 -0.155337
v 0.0231782 0.61015 -0.219258
v 0.0846186 0.61015 -0.203592
v 0.146718 0.499204 -0.298625
v 0.162144 0.496183 -0.295386
v 0.170253 0.494434 -0.293667
v 0.146718 0.491067 -0.306359
v 0.162375 0.485901 -0.303693
v 0.167649 0.477054 -0.307902
v 0.179284 0.441535 -0.321012
v 0.315712 0.480636 -0.142579
v 0.31001 0.480404 -0.157342
v 0.314097 0.441535 -0.192178
v 0.310603 0.466755 -0.173295
v 0.305066 0.471541 -0.178098
v 0.294287 0.479827 -0.186515
v 0.296628 0.485554 -0.176291
v 0.293661 0.494434 -0.170298
v 0.303681 0.485901 -0.162344
v 0.105253 0.537446 -0.142579
v 7.2114e-05 0.569845 -0.163776
v 7.2114e-05 0.609721 -0.155359
v 0.0604248 0.610051 -0.142579
v 0.0604248 0.61015 -0.142579
v 0.0991547 0.61015 -0.197488
v 0.176285 0.497768 -0.285008
v 0.187228 0.495473 -0.279433
v 0.231594 0.494137 -0.247065
v 0.214586 0.492882 -0.261277
v 0.18057 0.490109 -0.289723
v 0.18647 0.479827 -0.294284
v 0.176285 0.485554 -0.29662
v 0.114119 0.61015 -0.189556
v 0.114284 0.61015 -0.189468
v 0.121997 0.61015 -0.184135
v 0.178065 0.471541 -0.305081
v 0.173252 0.466755 -0.310612
v 0.190096 0.441535 -0.315437
v 0.312219 0.483342 -0.146699
v 0.313306 0.484118 -0.142579
v 0.306351 0.491067 -0.146699
v 0.296463 0.469594 -0.1922
v 0.266797 0.441535 -0.253697
v 0.261853 0.477747 -0.230826
v 0.276093 0.475833 -0.213816
v 0.290332 0.473803 -0.196805
v 0.280048 0.48123 -0.203526
v 0.284893 0.48567 -0.192046
v 0.289706 0.490109 -0.180588
v 0.285256 0.504601 -0.162696
v 0.290134 0.506928 -0.146699
v 0.295375 0.496183 -0.162145
v 0.307208 0.492173 -0.142579
v 0.26126 0.492882 -0.214609
v 0.24702 0.494137 -0.231619
v 0.265182 0.496464 -0.204319
v 0.284992 0.497768 -0.176291
v 0.166199 0.61015 -0.145576
v 0.168341 0.61015 -0.142579
v 0.0962541 0.548174 -0.142579
v 7.2114e-05 0.579055 -0.160471
v 7.2114e-05 0.60231 -0.156306
v 0.0724228 0.580491 -0.142579
v 0.0657316 0.594503 -0.142579
v 0.062007 0.605413 -0.142579
v 0.0604578 0.609952 -0.142579
v 0.132677 0.61015 -0.176071
v 0.1336 0.61015 -0.175366
v 0.221277 0.497438 -0.251009
v 0.204269 0.496464 -0.265199
v 0.229716 0.508595 -0.229746
v 0.236736 0.498312 -0.236775
v 0.240857 0.49143 -0.240896
v 0.247581 0.479365 -0.247616
v 0.23934 0.483045 -0.250877
v 0.220486 0.4826 -0.265816
v 0.225497 0.503016 -0.240587
v 0.203478 0.48123 -0.28005
v 0.196787 0.473803 -0.29034
v 0.192172 0.469594 -0.296466
v 0.230803 0.477747 -0.261872
v 0.213795 0.475833 -0.276106
v 0.251273 0.441535 -0.268923
v 0.258491 0.471954 -0.239794
v 0.265809 0.4826 -0.220514
v 0.291024 0.507671 -0.142579
v 0.298638 0.499204 -0.146699
v 0.302989 0.496612 -0.142579
v 0.24056 0.503016 -0.225538
v 0.250976 0.497438 -0.221329
v 0.250844 0.483045 -0.239353
v 0.165704 0.61015 -0.146171
v 0.091178 0.554726 -0.142579
v 7.2114e-05 0.594503 -0.15732
v 0.0848164 0.563094 -0.142579
v 0.146191 0.61015 -0.165693
v 0.156838 0.61015 -0.156835
v 0.299396 0.500062 -0.142579
v 0.0849483 0.562913 -0.142579
f 1 2 6
f 1 6 12
f 1 12 23
f 1 23 48
f 1 48 47
f 1 47 77
f 1 77 76
f 1 76 73
f 1 73 75
f 1 75 93
f 1 93 121
f 1 121 166
f 1 166 126
f 1 126 96
f 1 96 79
f 1 79 49
f 1 49 25
f 1 25 14
f 1 14 7
f 1 7 3
f 1 3 4
f 1 4 5
f 1 5 2
f 2 5 6
f 3 7 13
f 3 13 24
f 3 24 34
f 3 34 33
f 3 33 32
f 3 32 31
f 3 31 30
f 3 30 29
f 3 29 28
f 3 28 27
f 3 27 52
f 3 52 81
f 3 81 104
f 3 104 144
f 3 144 177
f 3 177 145
f 3 145 105
f 3 105 84
f 3 84 54
f 3 54 35
f 3 35 15
f 3 15 8
f 3 8 4
f 4 8 9
f 4 9 5
f 5 9 6
f 6 9 10
f 6 10 11
f 6 11 12
f 7 14 13
f 8 15 9
f 9 15 16
f 9 16 17
f 9 17 18
f 9 18 19
f 9 19 10
f 10 19 20
f 10 20 21
f 10 21 22
f 10 22 11
f 11 22 23
f 11 23 12
f 13 14 24
f 14 25 50
f 14 50 78
f 14 78 94
f 14 94 123
f 14 123 136
f 14 136 171
f 14 171 181
f 14 181 169
f 14 169 142
f 14 142 107
f 14 107 106
f 14 106 149
f 14 149 148
f 14 148 147
f 14 147 146
f 14 146 178
f 14 178 182
f 14 182 176
f 14 176 143
f 14 143 103
f 14 103 83
f 14 83 82
f 14 82 53
f 14 53 51
f 14 51 26
f 14 26 27
f 14 27 28
f 14 28 29
f 14 29 30
f 14 30 31
f 14 31 32
f 14 32 33
f 14 33 34
f 14 34 24
f 15 35 36
f 15 36 16
f 16 36 37
f 16 37 17
f 17 37 38
f 17 38 18
f 18 38 39
f 18 39 19
f 19 39 20
f 20 40 41
f 20 41 21
f 20 39 40
f 21 41 42
f 21 42 22
f 22 42 43
f 22 43 44
f 22 44 45
f 22 45 46
f 22 46 47
f 22 47 48
f 22 48 23
f 25 49 50
f 26 51 27
f 27 51 53
f 27 53 52
f 35 54 55
f 35 55 36
f 36 55 56
f 36 56 57
f 36 57 58
f 36 58 40
f 36 40 37
f 37 40 38
f 38 40 39
f 40 59 41
f 40 58 60
f 40 60 59
f 41 59 61
f 41 61 62
f 41 62 42
f 42 63 64
f 42 64 65
f 42 65 66
f 42 66 67
f 42 67 43
f 42 62 68
f 42 68 69
f 42 69 63
f 43 67 44
f 44 67 70
f 44 70 71
f 44 71 72
f 44 72 45
f 45 73 46
f 45 72 74
f 45 74 75
f 45 75 73
f 46 73 76
f 46 76 77
f 46 77 47
f 49 78 50
f 49 79 80
f 49 80 78
f 52 53 82
f 52 82 83
f 52 83 81
f 54 84 107
f 54 107 142
f 54 142 141
f 54 141 175
f 54 175 180
f 54 180 179
f 54 179 151
f 54 151 150
f 54 150 118
f 54 118 117
f 54 117 116
f 54 116 108
f 54 108 86
f 54 86 69
f 54 69 68
f 54 68 62
f 54 62 61
f 54 61 60
f 54 60 85
f 54 85 55
f 55 85 56
f 56 85 57
f 57 85 58
f 58 85 60
f 59 60 61
f 63 69 86
f 63 86 64
f 64 86 87
f 64 87 65
f 65 87 88
f 65 88 66
f 66 88 89
f 66 89 90
f 66 90 70
f 66 70 67
f 70 90 71
f 71 90 91
f 71 91 92
f 71 92 72
f 72 92 74
f 74 92 75
f 75 92 93
f 78 80 95
f 78 95 94
f 79 96 97
f 79 97 80
f 80 97 98
f 80 98 99
f 80 99 100
f 80 100 101
f 80 101 102
f 80 102 95
f 81 103 104
f 81 83 103
f 84 105 106
f 84 106 107
f 86 108 87
f 87 108 88
f 88 108 89
f 89 109 110
f 89 110 111
f 89 111 112
f 89 112 113
f 89 113 114
f 89 114 115
f 89 115 92
f 89 92 91
f 89 91 90
f 89 108 116
f 89 116 117
f 89 117 118
f 89 118 109
f 92 115 114
f 92 114 119
f 92 119 120
f 92 120 93
f 93 120 121
f 94 122 123
f 94 95 122
f 95 102 124
f 95 124 122
f 96 125 99
f 96 99 98
f 96 98 97
f 96 126 127
f 96 127 128
f 96 128 129
f 96 129 125
f 99 101 100
f 99 125 129
f 99 129 128
f 99 128 127
f 99 127 130
f 99 130 131
f 99 131 132
f 99 132 101
f 101 133 134
f 101 134 135
f 101 135 136
f 101 136 124
f 101 124 102
f 101 132 137
f 101 137 138
f 101 138 139
f 101 139 140
f 101 140 141
f 101 141 142
f 101 142 133
f 103 143 144
f 103 144 104
f 105 145 146
f 105 146 147
f 105 147 148
f 105 148 149
f 105 149 106
f 109 118 150
f 109 150 151
f 109 151 152
f 109 152 153
f 109 153 110
f 110 153 111
f 111 154 155
f 111 155 138
f 111 138 156
f 111 156 157
f 111 157 158
f 111 158 159
f 111 159 112
f 111 153 152
f 111 152 160
f 111 160 154
f 112 159 161
f 112 161 113
f 113 161 114
f 114 162 163
f 114 163 121
f 114 121 119
f 114 161 164
f 114 164 165
f 114 165 162
f 119 121 120
f 121 163 166
f 122 124 136
f 122 136 123
f 126 167 127
f 126 166 157
f 126 157 167
f 127 167 157
f 127 157 130
f 130 157 168
f 130 168 137
f 130 137 131
f 131 137 132
f 133 142 134
f 134 169 170
f 134 170 135
f 134 142 169
f 135 170 171
f 135 171 136
f 137 168 138
f 138 155 154
f 138 154 172
f 138 172 173
f 138 173 139
f 138 168 174
f 138 174 157
f 138 157 156
f 139 173 140
f 140 173 141
f 141 173 172
f 141 172 175
f 143 176 177
f 143 177 144
f 145 177 146
f 146 177 178
f 151 179 152
f 152 179 160
f 154 160 179
f 154 179 180
f 154 180 172
f 157 166 164
f 157 164 161
f 157 161 159
f 157 159 158
f 157 174 168
f 162 165 166
f 162 166 163
f 164 166 165
f 169 181 170
f 170 181 171
f 172 180 175
f 176 182 177
f 177 182 178
