v -0.231171 0.356914 -0.231801
v -0.125239 0.356914 -0.300039
v -0.231171 0.356914 -0.327091
v -0.231171 -0.0222389 -0.31154
v -0.125239 -0.0222389 -0.367953
v -0.125239 0.356914 -0.381297
v -0.231139 0.356914 -0.327132
v -0.231171 0.339211 -0.339666
v -0.231171 -0.0222389 -0.392373
v -0.125239 -0.0222389 -0.437548
v -0.131264 0.356914 -0.379454
v -0.125239 0.337986 -0.392434
v -0.22526 0.356914 -0.33266
v -0.214101 0.33743 -0.353698
v -0.218363 0.327149 -0.356816
v -0.231171 0.333273 -0.34325
v -0.223818 -0.0222389 -0.396726
v -0.231171 -0.0138883 -0.392758
v -0.13256 -0.0222389 -0.435138
v -0.131264 -0.00769032 -0.436333
v -0.125239 -0.0133687 -0.438013
v -0.144123 0.356914 -0.374514
v -0.125239 0.332234 -0.395714
v -0.212266 0.356914 -0.342258
v -0.203804 0.342143 -0.356958
v -0.20876 0.33216 -0.359914
v -0.207692 0.356914 -0.345558
v -0.199116 0.322065 -0.369917
v -0.208076 0.316757 -0.367103
v -0.221205 0.316535 -0.359003
v -0.228931 0.316535 -0.353091
v -0.231171 0.316498 -0.35139
v -0.231171 0.320914 -0.349405
v -0.231171 0.330712 -0.344789
v -0.215356 -0.0222389 -0.400817
v -0.222377 -0.00631712 -0.398205
v -0.215646 -0.010511 -0.401262
v -0.231171 -0.00717073 -0.393021
v -0.143832 -0.0222389 -0.430481
v -0.162146 -0.00769032 -0.423556
v -0.216206 -0.00023047 -0.401485
v -0.131264 0.00774897 -0.436718
v -0.125239 -0.00769032 -0.438277
v -0.178075 0.356914 -0.36038
v -0.139093 0.339768 -0.386076
v -0.182389 0.337467 -0.369371
v -0.149391 0.33576 -0.383929
v -0.125239 0.325776 -0.398913
v -0.15582 0.325442 -0.386622
v -0.145222 0.331157 -0.38804
v -0.193589 0.332197 -0.367447
v -0.191826 0.356914 -0.354387
v -0.188819 0.327186 -0.372064
v -0.125239 0.321656 -0.400634
v -0.131513 0.3175 -0.399298
v -0.193589 0.316757 -0.373805
v -0.202684 0.311784 -0.371476
v -0.212349 0.301095 -0.368601
v -0.230994 0.305215 -0.35467
v -0.231171 0.305438 -0.354468
v -0.214993 -0.0222389 -0.400979
v -0.223963 0.00774897 -0.397759
v -0.20736 -0.0222389 -0.404158
v -0.231171 0.00774897 -0.393446
v -0.216237 0.00774897 -0.401505
v -0.162146 0.00774897 -0.42392
v -0.216227 0.0159511 -0.401505
v -0.131264 0.0231883 -0.436373
v -0.125239 0.00774897 -0.438641
v -0.125239 0.00173656 -0.438499
v -0.125239 0.313603 -0.403044
v -0.126535 0.312972 -0.40272
v -0.169841 0.308741 -0.386035
v -0.204633 0.301095 -0.372347
v -0.225073 0.300464 -0.359854
v -0.215906 0.184484 -0.385914
v -0.223009 0.17862 -0.38233
v -0.231171 0.177952 -0.376842
v -0.231171 0.305104 -0.354549
v -0.231171 0.0165078 -0.393264
v -0.222387 0.0219264 -0.398225
v -0.214132 0.0540668 -0.400634
v -0.206417 0.0540668 -0.403834
v -0.193018 0.0386275 -0.410091
v -0.174041 0.0231883 -0.418656
v -0.223901 0.0849454 -0.394398
v -0.162146 0.0540668 -0.422179
v -0.129687 0.0695061 -0.434915
v -0.128837 0.0849454 -0.434551
v -0.125239 0.0231883 -0.438297
v -0.125239 0.311561 -0.403469
v -0.129086 0.301095 -0.403773
v -0.131264 0.177581 -0.421936
v -0.139591 0.186414 -0.417178
v -0.175254 0.177581 -0.403712
v -0.184608 0.167746 -0.401201
v -0.20846 0.162142 -0.39209
v -0.20846 0.146703 -0.394216
v -0.207506 0.116084 -0.398812
v -0.21098 0.100385 -0.399318
v -0.217254 0.174167 -0.386643
v -0.231171 0.12436 -0.385752
v -0.23032 0.131263 -0.385205
v -0.226483 0.162142 -0.382735
v -0.231171 0.169936 -0.378179
v -0.231171 0.0227058 -0.393061
v -0.223901 0.0386275 -0.396666
v -0.212432 0.0849454 -0.399926
v -0.204716 0.0849454 -0.403125
v -0.17149 0.0695061 -0.417603
v -0.231171 0.0849454 -0.390166
v -0.231171 0.0965249 -0.389234
v -0.223901 0.100385 -0.393102
v -0.146705 0.0695061 -0.427869
v -0.146705 0.0849454 -0.42716
v -0.1701 0.0935558 -0.417016
v -0.127385 0.100385 -0.433964
v -0.125239 0.0849454 -0.435665
v -0.125239 0.0806773 -0.435867
v -0.125239 0.301095 -0.405271
v -0.125239 0.177581 -0.424042
v -0.125239 0.125548 -0.431595
v -0.143749 0.162142 -0.418899
v -0.164314 0.131263 -0.414626
v -0.194128 0.116084 -0.40436
v -0.201729 0.111111 -0.40189
v -0.168721 0.103836 -0.416449
v -0.193018 0.100385 -0.40677
v -0.225311 0.116826 -0.390125
v -0.231171 0.12243 -0.386035
v -0.231171 0.0386275 -0.392353
v -0.231171 0.04824 -0.391907
v -0.231171 0.0641617 -0.391158
v -0.231171 0.100385 -0.38891
v -0.231171 0.11048 -0.387696
v -0.176188 0.0993826 -0.413857
v -0.125239 0.100385 -0.434591
v -0.125239 0.0975269 -0.434814
v -0.125239 0.115824 -0.432931
v -0.125239 0.114673 -0.433073
v -0.129812 0.130039 -0.429084
v -0.146705 0.115824 -0.424042
v -0.231171 0.113152 -0.387331
f 1 2 6
f 1 6 11
f 1 11 22
f 1 22 44
f 1 44 52
f 1 52 27
f 1 27 24
f 1 24 13
f 1 13 7
f 1 7 3
f 1 3 8
f 1 8 16
f 1 16 34
f 1 34 33
f 1 33 32
f 1 32 60
f 1 60 79
f 1 79 78
f 1 78 105
f 1 105 102
f 1 102 130
f 1 130 143
f 1 143 135
f 1 135 134
f 1 134 112
f 1 112 111
f 1 111 133
f 1 133 132
f 1 132 131
f 1 131 106
f 1 106 80
f 1 80 64
f 1 64 38
f 1 38 18
f 1 18 9
f 1 9 4
f 1 4 5
f 1 5 2
f 2 5 10
f 2 10 21
f 2 21 43
f 2 43 70
f 2 70 69
f 2 69 90
f 2 90 119
f 2 119 118
f 2 118 138
f 2 138 137
f 2 137 140
f 2 140 139
f 2 139 122
f 2 122 121
f 2 121 120
f 2 120 91
f 2 91 71
f 2 71 54
f 2 54 48
f 2 48 23
f 2 23 12
f 2 12 6
f 3 7 8
f 4 9 17
f 4 17 35
f 4 35 61
f 4 61 63
f 4 63 39
f 4 39 19
f 4 19 10
f 4 10 5
f 6 12 11
f 7 13 8
f 8 14 15
f 8 15 16
f 8 13 14
f 9 18 17
f 10 19 20
f 10 20 21
f 11 12 23
f 11 23 22
f 13 24 14
f 14 25 26
f 14 26 15
f 14 24 27
f 14 27 25
f 15 28 29
f 15 29 30
f 15 30 31
f 15 31 32
f 15 32 33
f 15 33 34
f 15 34 16
f 15 26 28
f 17 18 36
f 17 36 37
f 17 37 35
f 18 38 36
f 19 39 20
f 20 40 41
f 20 41 42
f 20 42 43
f 20 43 21
f 20 39 40
f 22 23 45
f 22 45 46
f 22 46 44
f 23 47 45
f 23 48 49
f 23 49 50
f 23 50 47
f 25 51 26
f 25 27 52
f 25 52 51
f 26 51 28
f 28 51 53
f 28 53 49
f 28 49 54
f 28 54 55
f 28 55 56
f 28 56 57
f 28 57 29
f 29 57 58
f 29 58 30
f 30 32 31
f 30 58 59
f 30 59 32
f 32 59 60
f 35 37 61
f 36 41 37
f 36 38 62
f 36 62 41
f 37 41 40
f 37 40 39
f 37 39 63
f 37 63 61
f 38 64 62
f 41 62 65
f 41 65 66
f 41 66 42
f 42 66 67
f 42 67 68
f 42 68 90
f 42 90 69
f 42 69 70
f 42 70 43
f 44 46 51
f 44 51 52
f 45 47 46
f 46 47 53
f 46 53 51
f 47 50 49
f 47 49 53
f 48 54 49
f 54 71 72
f 54 72 55
f 55 72 56
f 56 72 73
f 56 73 57
f 57 73 74
f 57 74 58
f 58 75 59
f 58 74 76
f 58 76 77
f 58 77 78
f 58 78 75
f 59 79 60
f 59 75 78
f 59 78 79
f 62 64 80
f 62 80 81
f 62 81 67
f 62 67 65
f 65 67 66
f 67 82 83
f 67 83 84
f 67 84 85
f 67 85 68
f 67 81 86
f 67 86 82
f 68 85 87
f 68 87 88
f 68 88 89
f 68 89 90
f 71 91 72
f 72 91 92
f 72 92 73
f 73 92 93
f 73 93 94
f 73 94 76
f 73 76 74
f 76 94 93
f 76 93 95
f 76 95 96
f 76 96 97
f 76 97 98
f 76 98 99
f 76 99 100
f 76 100 101
f 76 101 102
f 76 102 103
f 76 103 77
f 77 103 104
f 77 104 78
f 78 104 105
f 80 106 81
f 81 106 107
f 81 107 86
f 82 86 108
f 82 108 109
f 82 109 83
f 83 109 110
f 83 110 84
f 84 110 87
f 84 87 85
f 86 111 112
f 86 112 134
f 86 134 113
f 86 113 108
f 86 107 111
f 87 110 114
f 87 114 88
f 88 114 115
f 88 115 89
f 89 115 116
f 89 116 117
f 89 117 118
f 89 118 119
f 89 119 90
f 91 120 92
f 92 120 93
f 93 121 122
f 93 122 123
f 93 123 96
f 93 96 95
f 93 120 121
f 96 123 98
f 96 98 97
f 98 123 124
f 98 124 125
f 98 125 99
f 99 125 126
f 99 126 100
f 100 113 101
f 100 126 127
f 100 127 128
f 100 128 116
f 100 116 108
f 100 108 113
f 101 113 129
f 101 129 130
f 101 130 102
f 102 105 103
f 103 105 104
f 106 131 107
f 107 131 132
f 107 132 133
f 107 133 111
f 108 116 109
f 109 116 115
f 109 115 110
f 110 115 114
f 113 134 135
f 113 135 129
f 116 128 136
f 116 136 117
f 117 137 138
f 117 138 118
f 117 136 127
f 117 127 139
f 117 139 140
f 117 140 137
f 122 139 141
f 122 141 123
f 123 141 142
f 123 142 124
f 124 142 125
f 125 142 126
f 126 142 139
f 126 139 127
f 127 136 128
f 129 135 143
f 129 143 130
f 139 142 141
