v 0.0879757 -0.603838 0.156284
v 7.2114e-05 -0.603838 0.179418
v 0.0892329 -0.595626 0.156284
v 0.188257 -0.603838 0.156284
v 7.2114e-05 -0.603838 0.245368
v 7.2114e-05 -0.60229 0.179562
v 0.0960021 -0.579058 0.156284
v 7.2114e-05 -0.594498 0.180343
v 0.28293 -0.513514 0.156284
v 0.281093 -0.512712 0.16214
v 0.278675 -0.510327 0.170851
v 0.183906 -0.603838 0.161955
v 0.00774394 -0.603838 0.245368
v 7.2114e-05 -0.511474 0.325843
v 0.103609 -0.563073 0.156284
v 7.2114e-05 -0.586578 0.181863
v 0.107639 -0.556045 0.156284
v 0.105672 -0.559413 0.156284
v 0.286444 -0.509617 0.156284
v 0.29028 -0.504101 0.156284
v 0.288861 -0.501606 0.162017
v 0.281286 -0.501861 0.174303
v 0.260431 -0.506358 0.198114
v 0.246215 -0.508361 0.215105
v 0.232 -0.509963 0.232014
v 0.18152 -0.603838 0.164996
v 0.00774394 -0.511474 0.325843
v 0.0135784 -0.603838 0.244813
v 7.2114e-05 -0.506631 0.328432
v 7.2114e-05 -0.578312 0.183466
v 0.113119 -0.548179 0.156284
v 0.29418 -0.497091 0.156284
v 0.294374 -0.49629 0.156778
v 0.319484 -0.417837 0.178966
v 0.315842 -0.417837 0.185356
v 0.311587 -0.421988 0.189033
v 0.277773 -0.493249 0.185089
v 0.263525 -0.496053 0.2021
v 0.267264 -0.501479 0.192978
v 0.249277 -0.498074 0.219111
v 0.242637 -0.502681 0.224124
v 0.234449 -0.501861 0.234479
v 0.224102 -0.502681 0.242676
v 0.215077 -0.508361 0.246231
v 0.170819 -0.510327 0.278692
v 0.15728 -0.603838 0.187513
v 0.164984 -0.603838 0.181534
v 0.173784 -0.603838 0.173809
v 0.176846 -0.603838 0.170461
v 0.00774394 -0.501861 0.330979
v 0.0231843 -0.510327 0.324857
v 0.0231843 -0.603838 0.24356
v 7.2114e-05 -0.501861 0.330979
v 7.2114e-05 -0.564584 0.187534
v 0.127914 -0.529882 0.156284
v 0.124594 -0.533596 0.156284
v 0.120984 -0.537838 0.156284
v 0.29447 -0.496527 0.156284
v 0.324706 -0.417837 0.167831
v 0.324094 -0.417837 0.169269
v 0.323385 -0.417837 0.170789
v 0.312941 -0.417837 0.19004
v 0.307203 -0.417837 0.197806
v 0.293858 -0.417837 0.215331
v 0.292504 -0.417837 0.217098
v 0.279256 -0.419293 0.233328
v 0.265781 -0.417837 0.251696
v 0.259238 -0.417837 0.259256
v 0.255209 -0.417837 0.262893
v 0.219074 -0.498074 0.249313
v 0.198089 -0.506358 0.260448
v 0.174268 -0.501861 0.281301
v 0.162018 -0.501606 0.288882
v 0.150575 -0.506577 0.291697
v 0.162147 -0.512712 0.281096
v 0.120049 -0.603838 0.214509
v 0.123079 -0.603838 0.21264
v 0.131621 -0.603838 0.20699
v 0.135425 -0.603838 0.204134
v 0.146449 -0.603838 0.195772
v 0.00774394 -0.417837 0.366173
v 0.0313396 -0.509672 0.324323
v 0.0373353 -0.502699 0.32687
v 0.054065 -0.499039 0.32648
v 0.054065 -0.603838 0.239471
v 0.00423038 -0.417837 0.366173
v 7.2114e-05 -0.418328 0.365947
v 7.2114e-05 -0.548179 0.193594
v 0.138906 -0.517974 0.156284
v 0.32938 -0.417837 0.156284
v 0.27961 -0.417837 0.233822
v 0.251663 -0.417837 0.26579
v 0.202086 -0.496053 0.26353
v 0.192964 -0.501479 0.267269
v 0.182004 -0.501861 0.275405
v 0.185066 -0.493249 0.277788
v 0.194898 -0.417837 0.309386
v 0.188999 -0.421988 0.311585
v 0.156796 -0.49629 0.294388
v 0.178942 -0.417837 0.319474
v 0.145933 -0.501606 0.296176
v 0.10722 -0.508962 0.308441
v 0.14026 -0.5102 0.293916
v 0.112957 -0.603838 0.217899
v 0.0695053 -0.496873 0.325453
v 0.0849457 -0.418547 0.355859
v 0.0849457 -0.417837 0.356147
v 0.0695053 -0.51497 0.313968
v 0.0416547 -0.508397 0.323603
v 0.054065 -0.506759 0.322741
v 0.0601896 -0.603838 0.237951
v 0.0849457 -0.513477 0.312448
v 7.2114e-05 -0.417837 0.366152
v 7.2114e-05 -0.536873 0.198833
v 0.248439 -0.417837 0.156284
v 0.234901 -0.417837 0.278774
v 0.233321 -0.419293 0.279247
v 0.197799 -0.417837 0.307188
v 0.217075 -0.417837 0.292519
v 0.19003 -0.417837 0.312941
v 0.170754 -0.417837 0.323398
v 0.169239 -0.417837 0.324097
v 0.167788 -0.417837 0.324713
v 0.123821 -0.494415 0.308934
v 0.115826 -0.497747 0.310598
v 0.101418 -0.503045 0.313845
v 0.0969369 -0.511456 0.310557
v 0.0854937 -0.603838 0.229219
v 0.0695053 -0.504592 0.321693
v 0.0792079 -0.495216 0.324713
v 0.0925208 -0.417837 0.355099
v 0.0893618 -0.417837 0.355551
v 0.0701823 -0.603838 0.23528
v 0.0845911 -0.500969 0.320522
v 7.2114e-05 -0.417837 0.294204
v 7.2114e-05 -0.529153 0.203004
v 7.2114e-05 -0.522125 0.207483
v 7.2114e-05 -0.515844 0.211489
v 7.2114e-05 -0.503008 0.221084
v 7.2114e-05 -0.492303 0.229939
v 0.130396 -0.417837 0.340183
v 0.126593 -0.419566 0.340964
v 0.115311 -0.417837 0.346265
v 0.101321 -0.417837 0.351873
v 0.093649 -0.417837 0.354791
v 0.0744372 -0.603838 0.233678
f 1 2 3
f 1 3 7
f 1 7 15
f 1 15 18
f 1 18 17
f 1 17 31
f 1 31 57
f 1 57 56
f 1 56 55
f 1 55 89
f 1 89 115
f 1 115 90
f 1 90 58
f 1 58 32
f 1 32 20
f 1 20 19
f 1 19 9
f 1 9 4
f 1 4 12
f 1 12 26
f 1 26 49
f 1 49 48
f 1 48 47
f 1 47 46
f 1 46 80
f 1 80 79
f 1 79 78
f 1 78 77
f 1 77 76
f 1 76 104
f 1 104 128
f 1 128 146
f 1 146 133
f 1 133 111
f 1 111 85
f 1 85 52
f 1 52 28
f 1 28 13
f 1 13 5
f 1 5 2
f 2 5 14
f 2 14 29
f 2 29 53
f 2 53 87
f 2 87 113
f 2 113 135
f 2 135 140
f 2 140 139
f 2 139 138
f 2 138 137
f 2 137 136
f 2 136 114
f 2 114 88
f 2 88 54
f 2 54 30
f 2 30 16
f 2 16 8
f 2 8 6
f 2 6 3
f 3 6 8
f 3 8 7
f 4 9 10
f 4 10 11
f 4 11 12
f 5 13 27
f 5 27 14
f 7 8 15
f 8 16 17
f 8 17 18
f 8 18 15
f 9 19 10
f 10 19 11
f 11 19 20
f 11 20 21
f 11 21 22
f 11 22 23
f 11 23 24
f 11 24 25
f 11 25 12
f 12 25 26
f 13 28 27
f 14 27 29
f 16 30 17
f 17 30 31
f 20 32 21
f 21 32 33
f 21 33 34
f 21 34 35
f 21 35 36
f 21 36 22
f 22 37 38
f 22 38 39
f 22 39 23
f 22 36 37
f 23 39 38
f 23 38 24
f 24 40 41
f 24 41 25
f 24 38 40
f 25 41 42
f 25 42 43
f 25 43 44
f 25 44 45
f 25 45 46
f 25 46 47
f 25 47 48
f 25 48 49
f 25 49 26
f 27 50 29
f 27 28 51
f 27 51 50
f 28 52 51
f 29 50 53
f 30 54 55
f 30 55 56
f 30 56 57
f 30 57 31
f 32 58 33
f 33 58 59
f 33 59 60
f 33 60 61
f 33 61 34
f 34 61 60
f 34 60 59
f 34 59 90
f 34 90 115
f 34 115 135
f 34 135 113
f 34 113 86
f 34 86 81
f 34 81 107
f 34 107 132
f 34 132 131
f 34 131 145
f 34 145 144
f 34 144 143
f 34 143 141
f 34 141 123
f 34 123 122
f 34 122 121
f 34 121 100
f 34 100 120
f 34 120 97
f 34 97 118
f 34 118 119
f 34 119 116
f 34 116 92
f 34 92 69
f 34 69 68
f 34 68 67
f 34 67 91
f 34 91 65
f 34 65 64
f 34 64 63
f 34 63 62
f 34 62 35
f 35 62 36
f 36 62 63
f 36 63 37
f 37 63 38
f 38 63 64
f 38 64 65
f 38 65 66
f 38 66 67
f 38 67 40
f 40 67 41
f 41 67 42
f 42 67 68
f 42 68 69
f 42 69 43
f 43 70 44
f 43 69 70
f 44 70 71
f 44 71 45
f 45 71 72
f 45 72 73
f 45 73 74
f 45 74 75
f 45 75 76
f 45 76 77
f 45 77 78
f 45 78 79
f 45 79 80
f 45 80 46
f 50 81 86
f 50 86 53
f 50 51 82
f 50 82 83
f 50 83 84
f 50 84 81
f 51 52 85
f 51 85 82
f 53 86 87
f 54 88 89
f 54 89 55
f 58 90 59
f 65 91 66
f 66 91 67
f 69 92 70
f 70 92 93
f 70 93 71
f 71 93 94
f 71 94 95
f 71 95 72
f 72 95 93
f 72 93 96
f 72 96 97
f 72 97 98
f 72 98 73
f 73 99 74
f 73 98 100
f 73 100 99
f 74 99 101
f 74 101 102
f 74 102 103
f 74 103 75
f 75 103 104
f 75 104 76
f 81 84 105
f 81 105 106
f 81 106 107
f 82 85 108
f 82 108 109
f 82 109 84
f 82 84 83
f 84 109 110
f 84 110 105
f 85 111 112
f 85 112 108
f 86 113 87
f 88 114 115
f 88 115 89
f 92 116 117
f 92 117 93
f 93 118 97
f 93 97 96
f 93 95 94
f 93 117 119
f 93 119 118
f 97 120 98
f 98 120 100
f 99 100 121
f 99 121 122
f 99 122 123
f 99 123 124
f 99 124 125
f 99 125 101
f 101 125 102
f 102 125 126
f 102 126 127
f 102 127 103
f 103 127 128
f 103 128 104
f 105 129 130
f 105 130 131
f 105 131 132
f 105 132 106
f 105 110 129
f 106 132 107
f 108 112 110
f 108 110 109
f 110 112 129
f 111 133 112
f 112 134 129
f 112 133 127
f 112 127 134
f 114 136 115
f 115 136 137
f 115 137 138
f 115 138 139
f 115 139 140
f 115 140 135
f 116 119 117
f 123 141 124
f 124 142 143
f 124 143 144
f 124 144 125
f 124 141 142
f 125 144 126
f 126 144 145
f 126 145 134
f 126 134 127
f 127 133 146
f 127 146 128
f 129 134 130
f 130 134 145
f 130 145 131
f 141 143 142
