v -0.402972 0.356923 -7.32645e-05
v -0.403296 0.356923 0.00860931
v -0.39755 0.393768 -7.32645e-05
v -0.326904 0.356923 -7.32645e-05
v -0.39755 0.393768 0.00772168
v -0.393508 0.356923 0.0853806
v -0.391998 0.409206 -7.32645e-05
v -0.290185 0.441294 -7.32645e-05
v -0.237476 0.441253 0.164799
v -0.28202 0.356923 0.164799
v -0.391998 0.409206 0.00772168
v -0.395553 0.393768 0.0231663
v -0.386219 0.401888 0.0785379
v -0.39195 0.356923 0.0954188
v -0.386787 0.389184 0.0962258
v -0.389612 0.413856 -7.32645e-05
v -0.23858 0.441294 0.163298
v -0.367876 0.441294 -7.32645e-05
v -0.240074 0.441294 0.164799
v -0.365181 0.356923 0.164799
v -0.387826 0.405439 0.0540556
v -0.388849 0.407521 0.038611
v -0.389352 0.410486 0.0236505
v -0.385797 0.416482 0.0291215
v -0.386479 0.417573 0.018825
v -0.387177 0.418588 0.00772168
v -0.386804 0.403226 0.0695002
v -0.393524 0.393768 0.038611
v -0.385538 0.399468 0.0888182
v -0.382599 0.407901 0.0841702
v -0.390959 0.356923 0.101083
v -0.385684 0.378331 0.106538
v -0.384515 0.394107 0.100971
v -0.387437 0.394107 0.0841702
v -0.38945 0.393768 0.0695002
v -0.387177 0.418588 -7.32645e-05
v -0.380976 0.426311 -7.32645e-05
v -0.367876 0.441294 0.00772168
v -0.327732 0.441294 0.164799
v -0.359484 0.393768 0.164799
v -0.372405 0.356923 0.148934
v -0.383119 0.410948 0.0695002
v -0.384125 0.413154 0.0540556
v -0.385164 0.415243 0.038611
v -0.374402 0.422016 0.0849288
v -0.369321 0.430912 0.0695002
v -0.380976 0.426311 0.00772168
v -0.378947 0.409206 0.100357
v -0.372876 0.420009 0.100357
v -0.386528 0.356923 0.115124
v -0.379775 0.393768 0.115802
v -0.373963 0.409305 0.115479
v -0.364548 0.441294 0.038611
v -0.330086 0.441294 0.160877
v -0.328592 0.440419 0.164799
v -0.358786 0.396428 0.164799
v -0.369791 0.398452 0.137024
v -0.371123 0.388152 0.140252
v -0.374515 0.356923 0.144109
v -0.368233 0.429731 0.0849288
v -0.362844 0.441294 0.0533616
v -0.371431 0.418052 0.110105
v -0.366447 0.427732 0.100357
v -0.373314 0.393488 0.131618
v -0.371918 0.404217 0.126728
v -0.369288 0.414517 0.120401
v -0.338981 0.429574 0.164799
v -0.336903 0.431853 0.164799
v -0.330573 0.438378 0.164799
v -0.347747 0.441294 0.117577
v -0.35463 0.431812 0.122193
v -0.356318 0.403812 0.164799
v -0.357714 0.441294 0.0849288
v -0.358428 0.441294 0.0809102
v -0.360393 0.441294 0.0688708
v -0.354727 0.416185 0.153421
v -0.35687 0.419158 0.143125
v -0.359321 0.422049 0.131247
v -0.352698 0.429764 0.131247
v -0.356708 0.433794 0.111896
v -0.347877 0.441294 0.117254
v -0.352893 0.441294 0.103101
v -0.353818 0.441294 0.100357
v -0.355993 0.441294 0.0919975
v -0.35687 0.404911 0.162136
v -0.352925 0.412633 0.162136
v -0.343802 0.423891 0.164799
v -0.353705 0.408941 0.164799
v -0.352292 0.411708 0.164799
v -0.351059 0.413881 0.164799
f 1 2 3
f 1 3 7
f 1 7 16
f 1 16 36
f 1 36 37
f 1 37 18
f 1 18 8
f 1 8 4
f 1 4 10
f 1 10 20
f 1 20 41
f 1 41 59
f 1 59 50
f 1 50 31
f 1 31 14
f 1 14 6
f 1 6 2
f 2 5 3
f 2 6 5
f 3 5 11
f 3 11 7
f 4 8 9
f 4 9 10
f 5 6 12
f 5 12 13
f 5 13 11
f 6 14 15
f 6 15 12
f 7 11 16
f 8 17 9
f 8 18 38
f 8 38 53
f 8 53 61
f 8 61 75
f 8 75 74
f 8 74 73
f 8 73 84
f 8 84 83
f 8 83 82
f 8 82 81
f 8 81 70
f 8 70 54
f 8 54 39
f 8 39 19
f 8 19 17
f 9 17 19
f 9 19 39
f 9 39 55
f 9 55 69
f 9 69 68
f 9 68 67
f 9 67 87
f 9 87 90
f 9 90 89
f 9 89 88
f 9 88 72
f 9 72 56
f 9 56 40
f 9 40 20
f 9 20 10
f 11 21 22
f 11 22 23
f 11 23 24
f 11 24 25
f 11 25 26
f 11 26 16
f 11 13 27
f 11 27 21
f 12 15 28
f 12 28 29
f 12 29 13
f 13 29 30
f 13 30 27
f 14 31 15
f 15 32 33
f 15 33 29
f 15 29 34
f 15 34 35
f 15 35 28
f 15 31 32
f 16 26 36
f 18 37 47
f 18 47 38
f 20 40 41
f 21 27 30
f 21 30 42
f 21 42 43
f 21 43 44
f 21 44 22
f 22 44 24
f 22 24 23
f 24 44 45
f 24 45 25
f 25 45 26
f 26 45 46
f 26 46 47
f 26 47 37
f 26 37 36
f 28 35 34
f 28 34 29
f 29 33 48
f 29 48 30
f 30 48 49
f 30 49 45
f 30 45 42
f 31 50 32
f 32 50 51
f 32 51 33
f 33 51 52
f 33 52 48
f 38 47 53
f 39 54 55
f 40 56 57
f 40 57 58
f 40 58 59
f 40 59 41
f 42 45 43
f 43 45 44
f 45 49 60
f 45 60 46
f 46 60 61
f 46 61 47
f 47 61 53
f 48 52 62
f 48 62 49
f 49 62 63
f 49 63 60
f 50 59 58
f 50 58 51
f 51 58 64
f 51 64 57
f 51 57 65
f 51 65 52
f 52 65 66
f 52 66 62
f 54 67 68
f 54 68 69
f 54 69 55
f 54 70 71
f 54 71 67
f 56 72 57
f 57 72 65
f 57 64 58
f 60 63 73
f 60 73 74
f 60 74 75
f 60 75 61
f 62 66 76
f 62 76 77
f 62 77 78
f 62 78 79
f 62 79 71
f 62 71 63
f 63 71 80
f 63 80 81
f 63 81 82
f 63 82 83
f 63 83 84
f 63 84 73
f 65 72 85
f 65 85 66
f 66 85 86
f 66 86 76
f 67 71 79
f 67 79 78
f 67 78 77
f 67 77 87
f 70 81 71
f 71 81 80
f 72 88 85
f 76 86 89
f 76 89 90
f 76 90 87
f 76 87 77
f 85 88 89
f 85 89 86
