v -0.136365 -0.405415 -0.266447
v -0.136365 -0.405415 -0.343158
v 7.2114e-05 -0.405415 -0.299775
v 7.2114e-05 -0.0222389 -0.390262
v -0.136365 -0.0222389 -0.36334
v -0.131277 -0.405415 -0.345269
v -0.136365 -0.404777 -0.343436
v 7.2114e-05 -0.405415 -0.371339
v 7.2114e-05 -0.0222389 -0.455587
v -0.136365 -0.0222389 -0.433571
v -0.116172 -0.405415 -0.351527
v -0.136365 -0.387224 -0.351009
v 7.2114e-05 -0.370795 -0.386133
v -0.00772737 -0.405415 -0.371339
v -0.00772737 -0.0222389 -0.455587
v 7.2114e-05 -0.0231766 -0.45555
v -0.132546 -0.0222389 -0.435145
v -0.130489 -0.0386296 -0.435256
v -0.136365 -0.0558831 -0.432034
v -0.112045 -0.405415 -0.353231
v -0.11286 -0.359731 -0.37258
v -0.136365 -0.362694 -0.361563
v -0.000715847 -0.370795 -0.386133
v 7.2114e-05 -0.347428 -0.394521
v -0.0155402 -0.405415 -0.370339
v -0.00772737 -0.404365 -0.371765
v -0.00864888 -0.0222389 -0.455475
v -0.00772737 -0.0231766 -0.45555
v 7.2114e-05 -0.0309781 -0.455235
v -0.116733 -0.0222389 -0.440348
v -0.115812 -0.0231766 -0.440607
v -0.128793 -0.0694983 -0.434534
v -0.136365 -0.0694983 -0.431405
v -0.109201 -0.402527 -0.355638
v -0.107585 -0.405415 -0.355027
v -0.123144 -0.35478 -0.370432
v -0.117121 -0.348741 -0.37545
v -0.103498 -0.336589 -0.385004
v -0.107264 -0.370008 -0.370358
v -0.136365 -0.348403 -0.367617
v -0.00661888 -0.376909 -0.38293
v -0.0110128 -0.369183 -0.385467
v -0.00661888 -0.363556 -0.388281
v -0.00772737 -0.347428 -0.394521
v 7.2114e-05 -0.326199 -0.402076
v -0.0212029 -0.405415 -0.369599
v -0.0231661 -0.367232 -0.384689
v -0.0231661 -0.0231766 -0.453568
v -0.0231661 -0.0222389 -0.453605
v -0.00772737 -0.0540827 -0.454253
v 7.2114e-05 -0.0540827 -0.454253
v -0.115812 -0.0222389 -0.440644
v -0.101295 -0.0222389 -0.443274
v -0.10036 -0.0231766 -0.443403
v -0.10036 -0.0540827 -0.442088
v -0.10036 -0.0694983 -0.441422
v -0.115812 -0.0540827 -0.439256
v -0.115812 -0.0694983 -0.43857
v -0.127297 -0.0849513 -0.433923
v -0.136365 -0.0697608 -0.431386
v -0.104166 -0.405415 -0.356249
v -0.132586 -0.348741 -0.369043
v -0.128339 -0.344465 -0.37258
v -0.136365 -0.340414 -0.370913
v -0.115224 -0.331638 -0.382652
v -0.109695 -0.326274 -0.386707
v -0.0932012 -0.340002 -0.386152
v -0.0991576 -0.346078 -0.382375
v -0.101415 -0.364082 -0.37445
v -0.109508 -0.279727 -0.402039
v -0.0969674 -0.373571 -0.371784
v -0.0993179 -0.405415 -0.357952
v -0.0231661 -0.359506 -0.387781
v -0.0231661 -0.347428 -0.392521
v -0.0849209 -0.341502 -0.386726
v -0.00895606 -0.3316 -0.399854
v -0.0046423 -0.326199 -0.402076
v 7.2114e-05 -0.27849 -0.417092
v -0.0433459 -0.405415 -0.366692
v -0.0694822 -0.362881 -0.380338
v -0.0474593 -0.35553 -0.386189
v -0.0849209 -0.0222389 -0.445477
v -0.0548181 -0.0222389 -0.449439
v -0.0231661 -0.0540827 -0.452254
v -0.0386048 -0.0694983 -0.449569
v -0.0593455 -0.0540827 -0.447495
v 7.2114e-05 -0.0618467 -0.45392
v -0.00772737 -0.0694983 -0.453587
v -0.10036 -0.0222389 -0.44344
v -0.0849209 -0.0540827 -0.444125
v -0.0568615 -0.0694983 -0.447162
v -0.0473659 -0.0785 -0.44794
v -0.10036 -0.0849513 -0.440274
v -0.115812 -0.0849513 -0.437367
v -0.136365 -0.0849513 -0.430164
v -0.136365 -0.0831885 -0.430312
v -0.124947 -0.100404 -0.432942
v -0.132666 -0.100404 -0.429757
v -0.136365 -0.0963161 -0.428739
v -0.136365 -0.337001 -0.372135
v -0.136365 -0.331675 -0.373894
v -0.127404 -0.301107 -0.387652
v -0.129928 -0.268963 -0.397169
v -0.119805 -0.273239 -0.399946
v -0.0849209 -0.349229 -0.383726
v -0.0849209 -0.362881 -0.378301
v -0.0849209 -0.384036 -0.369802
v -0.0849209 -0.405415 -0.361211
v -0.10036 -0.28239 -0.402853
v -0.0903565 -0.292405 -0.401187
v -0.0849209 -0.331975 -0.389763
v -0.0540569 -0.331975 -0.393836
v -0.0231661 -0.331975 -0.397891
v -0.123892 -0.262962 -0.401631
v -0.115117 -0.268963 -0.403187
v -0.115812 -0.254785 -0.406945
v -0.10036 -0.254785 -0.410926
v -0.10036 -0.2702 -0.406593
v -0.0887138 -0.405415 -0.360359
v -0.0386048 -0.347428 -0.390503
v -0.0694822 -0.344128 -0.387744
v -0.0694822 -0.351854 -0.384745
v -0.0149259 -0.324061 -0.401409
v -0.0116405 -0.276352 -0.416444
v -0.00699283 -0.284453 -0.414555
v -0.0013569 -0.27849 -0.417092
v 7.2114e-05 -0.254785 -0.42311
v -0.0696291 -0.405415 -0.363229
v -0.0231661 -0.0694983 -0.451587
v 7.2114e-05 -0.0694983 -0.453587
v 7.2114e-05 -0.0772998 -0.453013
v -0.00772737 -0.0849513 -0.452439
v -0.0231661 -0.0849513 -0.450439
v -0.0694822 -0.0849513 -0.444347
v -0.0431857 -0.0888146 -0.447384
v -0.0328887 -0.0947408 -0.448069
v -0.10036 -0.100404 -0.438459
v -0.108266 -0.139337 -0.432405
v -0.115812 -0.100404 -0.435497
v -0.123625 -0.108393 -0.432405
v -0.136365 -0.114995 -0.42622
v -0.136365 -0.100404 -0.42822
v -0.136365 -0.294318 -0.38617
v -0.136365 -0.269563 -0.394299
v -0.136365 -0.28254 -0.39004
v -0.0386048 -0.301107 -0.405334
v -0.0231661 -0.314572 -0.403242
v -0.0849209 -0.2702 -0.408686
v -0.0540569 -0.2702 -0.412759
v -0.0231661 -0.266187 -0.418055
v -0.136365 -0.263524 -0.396113
v -0.136365 -0.254785 -0.398706
v -0.134309 -0.254785 -0.399557
v -0.126589 -0.254785 -0.402742
v -0.115812 -0.239332 -0.410685
v -0.109722 -0.218628 -0.417462
v -0.103712 -0.228942 -0.416333
v -0.0992779 -0.238057 -0.414944
v -0.0849209 -0.242407 -0.415925
v -0.0746908 -0.245521 -0.416592
v -0.0644072 -0.248446 -0.417277
v -0.0849209 -0.254785 -0.412981
v -0.0443342 -0.261461 -0.416666
v -0.00699283 -0.270801 -0.418721
v -0.00772737 -0.254785 -0.42311
v 7.2114e-05 -0.216677 -0.432479
v 7.2114e-05 -0.0849513 -0.452439
v -0.00219829 -0.125722 -0.448088
v -0.00772737 -0.100404 -0.450624
v -0.0694822 -0.100404 -0.442533
v -0.0229123 -0.100067 -0.448699
v -0.0229123 -0.115595 -0.446717
v -0.103418 -0.149652 -0.431757
v -0.0991176 -0.160904 -0.430849
v -0.115812 -0.162142 -0.427257
v -0.114369 -0.145376 -0.429924
v -0.121114 -0.118671 -0.431701
v -0.13125 -0.162142 -0.421814
v -0.13125 -0.146726 -0.42398
v -0.136365 -0.141663 -0.422554
v -0.0340373 -0.263862 -0.417333
v -0.136365 -0.245558 -0.401076
v -0.136365 -0.243383 -0.401613
v -0.131932 -0.239332 -0.40439
v -0.123411 -0.200587 -0.416888
v -0.115812 -0.177595 -0.424498
v -0.10036 -0.177595 -0.42785
v -0.10036 -0.193048 -0.424535
v -0.10036 -0.208501 -0.421203
v -0.0992779 -0.223841 -0.418036
v -0.0695223 -0.23997 -0.418481
v -0.0231661 -0.239332 -0.424721
v -0.0694822 -0.208501 -0.425276
v -0.0231661 -0.254785 -0.42111
v -0.038952 -0.255685 -0.418814
v -0.00772737 -0.239332 -0.426702
v -0.000849399 -0.216677 -0.432479
v 7.2114e-05 -0.177595 -0.440015
v 7.2114e-05 -0.125722 -0.448088
v -0.00772737 -0.162142 -0.442681
v -0.00772737 -0.146726 -0.444681
v -0.00750033 -0.13101 -0.446736
v -0.0175969 -0.110306 -0.448088
v -0.0231661 -0.146726 -0.442699
v -0.0931344 -0.15494 -0.432423
v -0.0880327 -0.165217 -0.431757
v -0.0777358 -0.170206 -0.432442
v -0.131371 -0.176582 -0.419129
v -0.136365 -0.173019 -0.417907
v -0.136365 -0.162142 -0.419703
v -0.136365 -0.155765 -0.420591
v -0.136365 -0.146726 -0.421851
v -0.136365 -0.236631 -0.403187
v -0.126309 -0.19031 -0.418073
v -0.0849209 -0.193048 -0.426572
v -0.0241811 -0.208501 -0.431238
v -0.0111463 -0.213677 -0.431812
v -0.0300173 -0.200212 -0.432257
v -0.00772737 -0.193048 -0.4367
v -0.00772737 -0.177595 -0.440015
v 7.2114e-05 -0.162142 -0.442681
v -0.0231661 -0.162142 -0.440681
v -0.0231661 -0.177595 -0.438015
v -0.136365 -0.181308 -0.416
v -0.136365 -0.194023 -0.413056
v -0.0197204 -0.203362 -0.432923
f 1 2 6
f 1 6 11
f 1 11 20
f 1 20 35
f 1 35 61
f 1 61 72
f 1 72 119
f 1 119 108
f 1 108 128
f 1 128 79
f 1 79 46
f 1 46 25
f 1 25 14
f 1 14 8
f 1 8 3
f 1 3 4
f 1 4 5
f 1 5 10
f 1 10 19
f 1 19 33
f 1 33 60
f 1 60 96
f 1 96 95
f 1 95 99
f 1 99 142
f 1 142 141
f 1 141 180
f 1 180 212
f 1 212 211
f 1 211 210
f 1 210 209
f 1 209 224
f 1 224 225
f 1 225 213
f 1 213 183
f 1 183 182
f 1 182 152
f 1 152 151
f 1 151 144
f 1 144 145
f 1 145 143
f 1 143 101
f 1 101 100
f 1 100 64
f 1 64 40
f 1 40 22
f 1 22 12
f 1 12 7
f 1 7 2
f 2 7 6
f 3 8 13
f 3 13 24
f 3 24 45
f 3 45 78
f 3 78 127
f 3 127 166
f 3 166 198
f 3 198 221
f 3 221 199
f 3 199 167
f 3 167 131
f 3 131 130
f 3 130 87
f 3 87 51
f 3 51 29
f 3 29 16
f 3 16 9
f 3 9 4
f 4 9 15
f 4 15 27
f 4 27 49
f 4 49 83
f 4 83 82
f 4 82 89
f 4 89 53
f 4 53 52
f 4 52 30
f 4 30 17
f 4 17 10
f 4 10 5
f 6 7 11
f 7 12 11
f 8 14 23
f 8 23 13
f 9 16 28
f 9 28 15
f 10 17 18
f 10 18 19
f 11 12 21
f 11 21 20
f 12 22 21
f 13 23 44
f 13 44 24
f 14 25 26
f 14 26 23
f 15 28 27
f 16 29 28
f 17 30 18
f 18 30 31
f 18 31 32
f 18 32 19
f 19 32 33
f 20 34 35
f 20 21 34
f 21 22 36
f 21 36 37
f 21 37 38
f 21 38 39
f 21 39 34
f 22 40 36
f 23 41 42
f 23 42 43
f 23 43 44
f 23 26 41
f 24 44 77
f 24 77 45
f 25 46 47
f 25 47 26
f 26 47 41
f 27 48 49
f 27 28 50
f 27 50 48
f 28 29 50
f 29 51 50
f 30 52 31
f 31 52 53
f 31 53 54
f 31 54 55
f 31 55 56
f 31 56 57
f 31 57 32
f 32 57 58
f 32 58 59
f 32 59 60
f 32 60 33
f 34 39 35
f 35 39 61
f 36 40 62
f 36 62 37
f 37 62 63
f 37 63 64
f 37 64 65
f 37 65 66
f 37 66 38
f 38 67 68
f 38 68 69
f 38 69 39
f 38 66 70
f 38 70 67
f 39 69 71
f 39 71 72
f 39 72 61
f 40 64 63
f 40 63 62
f 41 47 42
f 42 47 73
f 42 73 43
f 43 73 44
f 44 73 74
f 44 74 75
f 44 75 76
f 44 76 77
f 45 77 126
f 45 126 78
f 46 79 47
f 47 80 81
f 47 81 73
f 47 79 80
f 48 82 83
f 48 83 49
f 48 50 84
f 48 84 85
f 48 85 86
f 48 86 82
f 50 51 87
f 50 87 88
f 50 88 129
f 50 129 84
f 53 89 54
f 54 89 82
f 54 82 86
f 54 86 90
f 54 90 55
f 55 90 91
f 55 91 56
f 56 58 57
f 56 91 92
f 56 92 93
f 56 93 58
f 58 93 94
f 58 94 59
f 59 95 96
f 59 96 60
f 59 94 97
f 59 97 98
f 59 98 99
f 59 99 95
f 64 100 65
f 65 101 66
f 65 100 101
f 66 101 102
f 66 102 103
f 66 103 104
f 66 104 70
f 67 75 105
f 67 105 106
f 67 106 107
f 67 107 108
f 67 108 71
f 67 71 68
f 67 70 109
f 67 109 110
f 67 110 111
f 67 111 112
f 67 112 113
f 67 113 75
f 68 71 69
f 70 104 114
f 70 114 115
f 70 115 116
f 70 116 117
f 70 117 118
f 70 118 109
f 71 108 119
f 71 119 72
f 73 81 74
f 74 120 121
f 74 121 75
f 74 81 122
f 74 122 120
f 75 121 122
f 75 122 105
f 75 113 76
f 76 113 123
f 76 123 77
f 77 123 124
f 77 124 125
f 77 125 126
f 78 126 165
f 78 165 127
f 79 128 80
f 80 106 81
f 80 128 107
f 80 107 106
f 81 106 122
f 84 129 85
f 85 129 92
f 85 92 91
f 85 91 90
f 85 90 86
f 87 130 88
f 88 92 129
f 88 130 131
f 88 131 132
f 88 132 92
f 92 132 133
f 92 133 134
f 92 134 93
f 93 134 135
f 93 135 136
f 93 136 137
f 93 137 138
f 93 138 94
f 94 139 140
f 94 140 97
f 94 138 139
f 97 140 98
f 98 140 141
f 98 141 142
f 98 142 99
f 101 143 102
f 102 143 103
f 103 144 114
f 103 114 104
f 103 143 145
f 103 145 144
f 105 122 106
f 107 128 108
f 109 118 110
f 110 146 147
f 110 147 112
f 110 112 111
f 110 118 148
f 110 148 149
f 110 149 150
f 110 150 146
f 112 147 123
f 112 123 113
f 114 144 151
f 114 151 152
f 114 152 153
f 114 153 154
f 114 154 116
f 114 116 115
f 116 154 155
f 116 155 156
f 116 156 117
f 117 156 157
f 117 157 158
f 117 158 159
f 117 159 160
f 117 160 161
f 117 161 162
f 117 162 163
f 117 163 118
f 118 163 148
f 120 122 121
f 123 147 124
f 124 150 164
f 124 164 126
f 124 126 125
f 124 147 150
f 126 164 165
f 127 165 197
f 127 197 166
f 131 167 132
f 132 136 133
f 132 167 199
f 132 199 168
f 132 168 169
f 132 169 136
f 133 136 135
f 133 135 134
f 136 170 137
f 136 169 171
f 136 171 172
f 136 172 170
f 137 170 173
f 137 173 138
f 138 173 174
f 138 174 175
f 138 175 176
f 138 176 177
f 138 177 140
f 138 140 139
f 140 177 175
f 140 175 178
f 140 178 179
f 140 179 141
f 141 179 180
f 146 150 147
f 148 163 181
f 148 181 149
f 149 181 150
f 150 181 165
f 150 165 164
f 152 182 153
f 153 182 154
f 154 182 183
f 154 183 184
f 154 184 155
f 155 184 185
f 155 185 156
f 156 185 186
f 156 186 187
f 156 187 157
f 157 159 158
f 157 187 188
f 157 188 189
f 157 189 190
f 157 190 159
f 159 191 192
f 159 192 160
f 159 190 193
f 159 193 191
f 160 192 161
f 161 192 165
f 161 165 194
f 161 194 195
f 161 195 163
f 161 163 162
f 163 195 194
f 163 194 165
f 163 165 181
f 165 192 196
f 165 196 197
f 166 197 220
f 166 220 198
f 168 199 221
f 168 221 200
f 168 200 201
f 168 201 202
f 168 202 169
f 169 203 171
f 169 202 203
f 170 172 204
f 170 204 173
f 171 203 172
f 172 203 204
f 173 204 205
f 173 205 206
f 173 206 174
f 174 206 207
f 174 207 187
f 174 187 175
f 175 177 176
f 175 187 186
f 175 186 178
f 178 186 208
f 178 208 209
f 178 209 210
f 178 210 179
f 179 210 211
f 179 211 212
f 179 212 180
f 183 213 184
f 184 213 185
f 185 214 186
f 185 213 214
f 186 214 208
f 187 207 188
f 188 207 215
f 188 215 193
f 188 193 189
f 189 193 190
f 191 193 192
f 192 193 216
f 192 216 217
f 192 217 196
f 193 215 207
f 193 207 218
f 193 218 216
f 196 217 197
f 197 217 219
f 197 219 220
f 198 220 200
f 198 200 221
f 200 207 222
f 200 222 204
f 200 204 201
f 200 220 207
f 201 204 202
f 202 204 203
f 204 222 206
f 204 206 205
f 206 222 207
f 207 220 223
f 207 223 218
f 208 214 209
f 209 214 224
f 213 225 214
f 214 225 224
f 216 218 223
f 216 223 226
f 216 226 219
f 216 219 217
f 219 223 220
f 219 226 223
