v -0.409875 0.00774893 0.196027
v -0.409597 -0.00472127 0.196027
v -0.401485 -0.000230516 0.216227
v -0.401508 0.00774893 0.216249
v -0.401508 0.015951 0.216249
v -0.409828 0.0102727 0.196027
v -0.409528 -0.00746768 0.196027
v -0.398203 -0.00631716 0.222385
v -0.397764 0.00774893 0.223979
v -0.408996 -0.0193812 0.196027
v -0.403958 -0.0222389 0.207863
v -0.401254 -0.010511 0.215659
v -0.400815 -0.0222389 0.215375
v -0.396724 -0.0222389 0.223826
v -0.408858 0.0386275 0.196027
v -0.409412 0.0264171 0.196027
v -0.409551 0.0229655 0.196027
v -0.398227 0.0219263 0.222407
v -0.395915 0.0540668 0.223914
v -0.39439 0.0849454 0.223914
v -0.399937 0.0849454 0.212449
v -0.389837 -0.00769037 0.236645
v -0.390045 0.00774893 0.236907
v -0.389837 0.0231882 0.236667
v -0.408858 -0.0222389 0.196027
v -0.400977 -0.0222389 0.215026
v -0.389444 -0.0222389 0.236143
v -0.407448 0.0695061 0.196027
v -0.396655 0.0386275 0.223914
v -0.388219 0.0849454 0.234527
v -0.387526 0.100385 0.23361
v -0.393096 0.100385 0.223914
v -0.399313 0.100385 0.210986
v -0.402525 0.100385 0.203277
v -0.40553 0.100385 0.196027
v -0.406385 0.0894361 0.196027
v -0.406732 0.0849454 0.196027
v -0.383944 -0.00769037 0.244354
v -0.384152 0.00774893 0.244638
v -0.389098 -0.0222389 0.236601
v -0.383089 -0.0222389 0.244463
v -0.383967 0.0231882 0.244376
v -0.389444 0.0386275 0.236121
v -0.33712 -0.0222389 0.196027
v -0.388635 0.0695061 0.235051
v -0.382326 0.0849454 0.242257
v -0.381633 0.100385 0.24134
v -0.386694 0.112335 0.232518
v -0.390114 0.116826 0.225333
v -0.387457 0.162142 0.218782
v -0.386625 0.174167 0.217275
v -0.398804 0.116084 0.207535
v -0.401878 0.11111 0.201748
v -0.385908 0.184484 0.215921
v -0.405091 0.104059 0.196027
v -0.370308 -0.00769037 0.262152
v -0.35688 0.00774893 0.280212
v -0.369915 -0.0222389 0.261649
v -0.376248 0.0231882 0.254443
v -0.382742 0.0695061 0.242782
v -0.173792 -0.0222389 0.347843
v -0.25942 0.356914 0.196027
v -0.36869 0.0849454 0.260033
v -0.354939 0.0886196 0.277678
v -0.375023 0.0695061 0.252849
v -0.34759 0.100385 0.285693
v -0.340032 0.110108 0.293816
v -0.381517 0.116826 0.238349
v -0.375254 0.146034 0.240445
v -0.375 0.162142 0.237388
v -0.373752 0.177581 0.235772
v -0.385885 0.122616 0.231404
v -0.396331 0.131263 0.208474
v -0.40375 0.114859 0.196027
v -0.383967 0.146702 0.228412
v -0.382326 0.17862 0.223018
v -0.368598 0.301095 0.212362
v -0.372342 0.301095 0.204653
v -0.376017 0.301095 0.196027
v -0.395083 0.177767 0.196027
v -0.389236 0.17862 0.20985
v -0.392079 0.162142 0.208474
v -0.337097 -0.00769037 0.305434
v -0.356279 -0.0222389 0.279425
v -0.337305 0.00774893 0.305718
v -0.350756 0.0231882 0.28768
v -0.173792 -0.0222389 0.418052
v -0.173792 0.356914 0.276281
v -0.351542 0.356914 0.196027
v -0.355216 0.0783391 0.27805
v -0.359839 0.0840546 0.271629
v -0.327044 0.100385 0.3124
v -0.334763 0.100385 0.302399
v -0.341396 0.0849454 0.295585
v -0.335456 0.0849454 0.303316
v -0.334555 0.11549 0.299844
v -0.359145 0.115824 0.26772
v -0.372781 0.115824 0.249944
v -0.325934 0.115824 0.310959
v -0.329771 0.13234 0.302573
v -0.328153 0.162142 0.298468
v -0.354939 0.168451 0.262239
v -0.369083 0.162142 0.245118
v -0.354199 0.177581 0.261278
v -0.33987 0.185857 0.278159
v -0.354662 0.305215 0.231011
v -0.359839 0.300502 0.225093
v -0.382719 0.162142 0.226491
v -0.399521 0.145626 0.196027
v -0.402664 0.122764 0.196027
v -0.359007 0.316535 0.221228
v -0.367096 0.316757 0.208103
v -0.371464 0.311784 0.202687
v -0.375485 0.304398 0.196027
v -0.329355 -0.00769037 0.315414
v -0.329586 0.00774893 0.315698
v -0.336704 -0.0222389 0.304932
v -0.328985 -0.0222389 0.314912
v -0.337097 0.0231882 0.305456
v -0.336704 0.0386275 0.30491
v -0.336288 0.0540668 0.304386
v -0.173792 -0.0115131 0.418554
v -0.174023 -0.00769037 0.418641
v -0.180471 -0.0222389 0.4153
v -0.173792 0.356914 0.362169
v -0.345556 0.356914 0.20771
v -0.364969 0.334535 0.196027
v -0.356973 0.342143 0.203823
v -0.327737 0.0849454 0.313296
v -0.321035 0.0849454 0.321026
v -0.32011 0.100385 0.320109
v -0.328153 0.0695061 0.313842
v -0.323461 0.146702 0.307771
v -0.313246 0.177581 0.313252
v -0.322213 0.162142 0.306177
v -0.320965 0.177581 0.304561
v -0.334624 0.177581 0.286785
v -0.340564 0.177581 0.279054
v -0.308092 0.301095 0.292441
v -0.340425 0.31093 0.248023
v -0.338622 0.321211 0.245664
v -0.356834 0.327149 0.218367
v -0.369915 0.322065 0.199128
v -0.372111 0.319095 0.196027
v -0.373174 0.315458 0.196027
v -0.323138 -0.00769037 0.323123
v -0.323415 0.00774893 0.323407
v -0.328615 -0.0222389 0.31537
v -0.329378 0.0231882 0.315436
v -0.328569 0.0540668 0.314366
v -0.173792 -0.00769037 0.418728
v -0.216225 -0.000230516 0.401498
v -0.209707 -0.00631716 0.403922
v -0.193044 -0.0222389 0.410103
v -0.173792 0.00774893 0.4191
v -0.178091 0.356914 0.360378
v -0.182413 0.337467 0.369353
v -0.173792 0.331974 0.375774
v -0.342251 0.356914 0.212274
v -0.353691 0.33743 0.214109
v -0.36624 0.332197 0.196027
v -0.359931 0.33216 0.20878
v -0.323161 0.0231882 0.323145
v -0.322098 0.0540668 0.322096
v -0.313315 0.0849454 0.327752
v -0.312391 0.100385 0.327032
v -0.310958 0.115824 0.325918
v -0.304533 0.177581 0.320961
v -0.292423 0.301095 0.308076
v -0.300373 0.301095 0.30039
v -0.30971 0.127886 0.324957
v -0.307769 0.146702 0.32345
v -0.306151 0.162142 0.322227
v -0.298501 0.316535 0.298512
v -0.30622 0.316535 0.290017
v -0.324386 0.324477 0.262676
v -0.310149 0.326555 0.279687
v -0.339477 0.33936 0.231339
v -0.368528 0.32778 0.196027
v -0.315419 -0.00769037 0.329368
v -0.322629 -0.0222389 0.32262
v -0.31491 -0.0222389 0.328975
v -0.315696 0.00774893 0.329587
v -0.315442 0.0231882 0.32939
v -0.222395 -0.00631716 0.398201
v -0.22332 -0.0222389 0.396978
v -0.215023 -0.0222389 0.400996
v -0.182181 0.00774893 0.415628
v -0.193044 0.00774893 0.411129
v -0.208482 0.00774893 0.40473
v -0.216248 0.00774893 0.401498
v -0.22399 0.00774893 0.397764
v -0.173792 0.0231882 0.41875
v -0.216248 0.015951 0.401498
v -0.183291 0.356914 0.358129
v -0.193599 0.332197 0.367453
v -0.188838 0.327186 0.372061
v -0.177397 0.332197 0.374179
v -0.173792 0.319986 0.380665
v -0.323022 0.356914 0.238327
v -0.303285 0.0849454 0.335461
v -0.277678 0.0886196 0.35494
v -0.302384 0.100385 0.334762
v -0.304371 0.0540668 0.336291
v -0.293809 0.110108 0.340025
v -0.299818 0.11549 0.334566
v -0.286784 0.177581 0.334631
v -0.278163 0.185857 0.33985
v -0.284727 0.301095 0.314016
v -0.231016 0.305215 0.354678
v -0.248026 0.31093 0.340418
v -0.290019 0.316535 0.306242
v -0.291614 0.131263 0.338344
v -0.280682 0.162142 0.341794
v -0.295889 0.328448 0.295913
v -0.301459 0.332642 0.28613
v -0.307006 0.336836 0.275626
v -0.305411 -0.00769037 0.337077
v -0.304903 -0.0222389 0.336706
v -0.305689 0.00774893 0.337295
v -0.305434 0.0231882 0.337099
v -0.236632 -0.00769037 0.389837
v -0.223828 -0.0222389 0.396716
v -0.222395 0.0219263 0.398223
v -0.236655 0.0231882 0.389837
v -0.236909 0.00774893 0.390034
v -0.173792 0.0276419 0.418554
v -0.181765 0.0231882 0.415453
v -0.223921 0.0386275 0.396672
v -0.209707 0.0219263 0.403944
v -0.205593 0.0695061 0.403486
v -0.213313 0.0695061 0.400276
v -0.223921 0.0849454 0.394401
v -0.19866 0.356914 0.350485
v -0.203814 0.342143 0.356971
v -0.208783 0.33216 0.359919
v -0.199122 0.322065 0.369921
v -0.173792 0.316535 0.382063
v -0.30904 0.356914 0.256234
v -0.292561 0.338766 0.292594
v -0.284195 0.0840546 0.35018
v -0.252301 0.0849454 0.374616
v -0.242248 0.0849454 0.382325
v -0.234529 0.0849454 0.388221
v -0.233604 0.100385 0.387522
v -0.241323 0.100385 0.381626
v -0.259119 0.100385 0.367978
v -0.285697 0.100385 0.347581
v -0.286067 0.0695061 0.349525
v -0.297715 0.0231882 0.343039
v -0.286599 0.0540668 0.34994
v -0.232518 0.112335 0.386692
v -0.257663 0.115824 0.366864
v -0.266122 0.131263 0.35791
v -0.235777 0.177581 0.373765
v -0.237395 0.162142 0.375009
v -0.221217 0.316535 0.359002
v -0.225099 0.300502 0.359854
v -0.253827 0.316275 0.334107
v -0.245668 0.321211 0.338628
v -0.262678 0.324477 0.324389
v -0.279688 0.326555 0.310151
v -0.240445 0.146034 0.375249
v -0.286136 0.332642 0.301481
v -0.297692 -0.00769037 0.343017
v -0.287153 -0.0222389 0.350354
v -0.297969 0.00774893 0.343235
v -0.244351 -0.00769037 0.383941
v -0.243866 -0.0222389 0.38357
v -0.236147 -0.0222389 0.389444
v -0.244628 0.00774893 0.384159
v -0.244374 0.0231882 0.383963
v -0.236123 0.0386275 0.389444
v -0.173792 0.0540668 0.417353
v -0.180078 0.0540668 0.414754
v -0.23506 0.0695061 0.388636
v -0.193044 0.0695061 0.408683
v -0.204738 0.0849454 0.403136
v -0.212457 0.0849454 0.399926
v -0.223921 0.100385 0.393091
v -0.20772 0.356914 0.34555
v -0.214121 0.33743 0.353696
v -0.218374 0.327149 0.356818
v -0.208089 0.316757 0.367104
v -0.202704 0.311784 0.371472
v -0.193599 0.316757 0.373786
v -0.173792 0.305289 0.384771
v -0.295427 0.356914 0.273529
v -0.275644 0.336836 0.307028
v -0.244513 0.356914 0.318231
v -0.268918 0.356914 0.299058
v -0.280312 0.356914 0.289558
v -0.285096 0.356914 0.285103
v -0.260575 0.0695061 0.369091
v -0.261638 0.0386275 0.369921
v -0.243311 0.0540668 0.383155
v -0.254451 0.0231882 0.376254
v -0.22533 0.116826 0.390121
v -0.231409 0.122616 0.385884
v -0.239359 0.131263 0.378438
v -0.238342 0.116826 0.381517
v -0.249944 0.115824 0.372782
v -0.223019 0.17862 0.382325
v -0.212365 0.301095 0.368589
v -0.230346 0.131263 0.385207
v -0.226486 0.162142 0.382718
v -0.279919 -0.00769037 0.356666
v -0.254428 -0.00769037 0.376232
v -0.254705 0.00774893 0.376451
v -0.173792 0.079267 0.416195
v -0.179223 0.0695061 0.414405
v -0.173792 0.0849454 0.415933
v -0.173792 0.0896959 0.415693
v -0.211001 0.100385 0.399315
v -0.215924 0.184484 0.385928
v -0.217265 0.174167 0.386627
v -0.230392 0.356914 0.329063
v -0.231339 0.33936 0.339479
v -0.204646 0.301095 0.372345
v -0.193044 0.301095 0.37728
v -0.173792 0.177581 0.404316
v -0.173792 0.0970815 0.415103
v -0.203282 0.100385 0.402525
v -0.201757 0.11111 0.401892
v -0.207535 0.116084 0.398812
v -0.208482 0.162142 0.392086
v -0.192096 0.162439 0.398834
v -0.18299 0.177581 0.400516
v -0.173792 0.150488 0.40805
v -0.176196 0.0993826 0.413859
v -0.173792 0.100793 0.414688
v -0.173792 0.115824 0.41281
v -0.194153 0.116084 0.404359
v -0.184631 0.167746 0.401193
v -0.173792 0.131263 0.410692
f 1 2 3
f 1 3 4
f 1 4 5
f 1 5 6
f 1 6 17
f 1 17 16
f 1 16 15
f 1 15 28
f 1 28 37
f 1 37 36
f 1 36 35
f 1 35 55
f 1 55 74
f 1 74 110
f 1 110 109
f 1 109 80
f 1 80 79
f 1 79 114
f 1 114 145
f 1 145 144
f 1 144 179
f 1 179 161
f 1 161 127
f 1 127 89
f 1 89 62
f 1 62 44
f 1 44 25
f 1 25 10
f 1 10 7
f 1 7 2
f 2 7 3
f 3 8 9
f 3 9 4
f 3 7 10
f 3 10 11
f 3 11 12
f 3 12 13
f 3 13 14
f 3 14 8
f 4 9 5
f 5 15 16
f 5 16 17
f 5 17 6
f 5 9 18
f 5 18 19
f 5 19 20
f 5 20 21
f 5 21 15
f 8 22 9
f 8 14 22
f 9 23 24
f 9 24 18
f 9 22 23
f 10 25 11
f 11 25 44
f 11 44 61
f 11 61 87
f 11 87 124
f 11 124 154
f 11 154 187
f 11 187 186
f 11 186 223
f 11 223 270
f 11 270 269
f 11 269 266
f 11 266 219
f 11 219 182
f 11 182 181
f 11 181 148
f 11 148 118
f 11 118 117
f 11 117 84
f 11 84 58
f 11 58 41
f 11 41 40
f 11 40 27
f 11 27 14
f 11 14 13
f 11 13 26
f 11 26 12
f 12 26 13
f 14 27 22
f 15 21 28
f 18 24 29
f 18 29 19
f 19 29 30
f 19 30 20
f 20 30 31
f 20 31 32
f 20 32 21
f 21 32 33
f 21 33 34
f 21 34 35
f 21 35 36
f 21 36 37
f 21 37 28
f 22 38 39
f 22 39 23
f 22 27 40
f 22 40 41
f 22 41 38
f 23 39 42
f 23 42 24
f 24 42 43
f 24 43 29
f 29 43 45
f 29 45 30
f 30 45 60
f 30 60 46
f 30 46 47
f 30 47 31
f 31 47 48
f 31 48 32
f 32 48 49
f 32 49 50
f 32 50 51
f 32 51 33
f 33 52 53
f 33 53 34
f 33 51 54
f 33 54 52
f 34 53 35
f 35 53 55
f 38 56 39
f 38 41 56
f 39 57 42
f 39 56 57
f 41 58 56
f 42 57 59
f 42 59 65
f 42 65 60
f 42 60 45
f 42 45 43
f 44 62 61
f 46 63 64
f 46 64 47
f 46 60 65
f 46 65 63
f 47 66 67
f 47 67 48
f 47 64 66
f 48 67 68
f 48 68 69
f 48 69 70
f 48 70 71
f 48 71 72
f 48 72 49
f 49 72 51
f 49 51 50
f 51 72 54
f 52 73 74
f 52 74 53
f 52 54 73
f 53 74 55
f 54 72 75
f 54 75 76
f 54 76 77
f 54 77 78
f 54 78 79
f 54 79 80
f 54 80 81
f 54 81 82
f 54 82 73
f 56 83 57
f 56 58 84
f 56 84 83
f 57 85 86
f 57 86 59
f 57 83 85
f 59 86 65
f 61 62 88
f 61 88 125
f 61 125 158
f 61 158 199
f 61 199 238
f 61 238 287
f 61 287 321
f 61 321 329
f 61 329 335
f 61 335 332
f 61 332 331
f 61 331 322
f 61 322 313
f 61 313 312
f 61 312 310
f 61 310 274
f 61 274 227
f 61 227 193
f 61 193 155
f 61 155 151
f 61 151 122
f 61 122 87
f 62 89 126
f 62 126 159
f 62 159 200
f 62 200 239
f 62 239 288
f 62 288 293
f 62 293 292
f 62 292 291
f 62 291 290
f 62 290 317
f 62 317 281
f 62 281 234
f 62 234 195
f 62 195 156
f 62 156 125
f 62 125 88
f 63 65 86
f 63 86 90
f 63 90 91
f 63 91 64
f 64 92 93
f 64 93 66
f 64 91 94
f 64 94 95
f 64 95 92
f 66 93 67
f 67 96 97
f 67 97 98
f 67 98 68
f 67 93 92
f 67 92 99
f 67 99 96
f 68 97 69
f 68 98 97
f 69 97 96
f 69 96 100
f 69 100 101
f 69 101 102
f 69 102 103
f 69 103 71
f 69 71 70
f 71 102 104
f 71 104 105
f 71 105 106
f 71 106 107
f 71 107 77
f 71 77 76
f 71 76 108
f 71 108 75
f 71 75 72
f 71 103 102
f 73 82 109
f 73 109 110
f 73 110 74
f 75 108 76
f 77 107 111
f 77 111 112
f 77 112 113
f 77 113 78
f 78 113 79
f 79 113 114
f 80 109 81
f 81 109 82
f 83 115 116
f 83 116 85
f 83 84 117
f 83 117 118
f 83 118 115
f 85 116 149
f 85 149 119
f 85 119 86
f 86 119 120
f 86 120 121
f 86 121 90
f 87 122 123
f 87 123 124
f 89 127 128
f 89 128 126
f 90 94 91
f 90 121 94
f 92 95 129
f 92 129 130
f 92 130 131
f 92 131 99
f 94 121 95
f 95 132 129
f 95 121 132
f 96 99 100
f 99 133 100
f 99 131 134
f 99 134 133
f 100 133 135
f 100 135 101
f 101 135 136
f 101 136 137
f 101 137 138
f 101 138 102
f 102 138 104
f 104 138 105
f 105 138 137
f 105 137 136
f 105 136 139
f 105 139 106
f 106 139 140
f 106 140 111
f 106 111 107
f 111 140 141
f 111 141 142
f 111 142 112
f 112 142 143
f 112 143 113
f 113 143 144
f 113 144 145
f 113 145 114
f 115 146 147
f 115 147 116
f 115 118 148
f 115 148 146
f 116 147 149
f 119 149 120
f 120 150 132
f 120 132 121
f 120 149 150
f 122 151 123
f 123 152 153
f 123 153 154
f 123 154 124
f 123 151 155
f 123 155 152
f 125 156 157
f 125 157 158
f 126 128 160
f 126 160 159
f 127 161 128
f 128 161 162
f 128 162 160
f 129 132 163
f 129 163 164
f 129 164 130
f 130 165 166
f 130 166 131
f 130 164 165
f 131 166 167
f 131 167 134
f 132 150 163
f 133 134 135
f 134 168 169
f 134 169 170
f 134 170 139
f 134 139 136
f 134 136 135
f 134 167 171
f 134 171 172
f 134 172 173
f 134 173 168
f 139 170 174
f 139 174 175
f 139 175 140
f 140 175 141
f 141 175 176
f 141 176 142
f 142 176 177
f 142 177 178
f 142 178 160
f 142 160 162
f 142 162 143
f 143 162 179
f 143 179 144
f 146 180 147
f 146 148 181
f 146 181 182
f 146 182 180
f 147 180 183
f 147 183 184
f 147 184 163
f 147 163 149
f 149 163 150
f 152 185 186
f 152 186 187
f 152 187 153
f 152 155 188
f 152 188 189
f 152 189 190
f 152 190 191
f 152 191 192
f 152 192 185
f 153 187 154
f 155 193 194
f 155 194 188
f 156 195 157
f 157 196 197
f 157 197 198
f 157 198 158
f 157 195 196
f 158 198 197
f 158 197 199
f 159 160 200
f 160 178 200
f 161 179 162
f 163 184 165
f 163 165 164
f 165 201 202
f 165 202 203
f 165 203 166
f 165 184 204
f 165 204 201
f 166 203 205
f 166 205 167
f 167 205 206
f 167 206 171
f 168 207 208
f 168 208 169
f 168 173 207
f 169 209 210
f 169 210 211
f 169 211 212
f 169 212 174
f 169 174 170
f 169 208 209
f 171 206 172
f 172 206 173
f 173 206 213
f 173 213 214
f 173 214 207
f 174 212 215
f 174 215 175
f 175 215 177
f 175 177 176
f 177 215 216
f 177 216 217
f 177 217 178
f 178 217 200
f 180 218 220
f 180 220 183
f 180 182 219
f 180 219 218
f 183 220 221
f 183 221 184
f 184 221 204
f 185 192 222
f 185 222 223
f 185 223 186
f 188 194 189
f 189 194 190
f 190 194 191
f 191 194 192
f 192 194 224
f 192 224 225
f 192 225 226
f 192 226 222
f 193 227 228
f 193 228 194
f 194 229 224
f 194 228 230
f 194 230 231
f 194 231 232
f 194 232 233
f 194 233 229
f 195 234 235
f 195 235 196
f 196 235 236
f 196 236 237
f 196 237 197
f 197 237 238
f 197 238 199
f 200 217 240
f 200 240 239
f 201 241 202
f 201 204 241
f 202 242 243
f 202 243 244
f 202 244 245
f 202 245 246
f 202 246 247
f 202 247 248
f 202 248 203
f 202 241 249
f 202 249 242
f 203 248 205
f 204 221 250
f 204 250 251
f 204 251 249
f 204 249 241
f 205 252 253
f 205 253 206
f 205 248 247
f 205 247 246
f 205 246 252
f 206 253 254
f 206 254 213
f 207 255 208
f 207 214 256
f 207 256 255
f 208 255 210
f 208 210 209
f 210 257 211
f 210 255 258
f 210 258 257
f 211 259 212
f 211 257 259
f 212 260 261
f 212 261 262
f 212 262 215
f 212 259 260
f 213 254 214
f 214 263 256
f 214 254 263
f 215 262 264
f 215 264 240
f 215 240 216
f 216 240 217
f 218 219 265
f 218 265 267
f 218 267 220
f 219 266 265
f 220 267 250
f 220 250 221
f 222 268 269
f 222 269 270
f 222 270 223
f 222 226 271
f 222 271 268
f 224 229 225
f 225 272 271
f 225 271 226
f 225 229 273
f 225 273 272
f 227 230 228
f 227 274 275
f 227 275 230
f 229 233 244
f 229 244 276
f 229 276 273
f 230 275 277
f 230 277 231
f 231 277 278
f 231 278 279
f 231 279 232
f 232 279 233
f 233 279 280
f 233 280 245
f 233 245 244
f 234 281 235
f 235 282 236
f 235 281 282
f 236 282 283
f 236 283 237
f 237 283 284
f 237 284 285
f 237 285 286
f 237 286 238
f 238 286 285
f 238 285 287
f 239 240 288
f 240 264 289
f 240 289 290
f 240 290 291
f 240 291 292
f 240 292 293
f 240 293 288
f 242 249 294
f 242 294 295
f 242 295 296
f 242 296 243
f 243 296 276
f 243 276 244
f 245 280 252
f 245 252 246
f 249 251 295
f 249 295 294
f 250 267 309
f 250 309 297
f 250 297 295
f 250 295 251
f 252 280 298
f 252 298 299
f 252 299 255
f 252 255 256
f 252 256 263
f 252 263 300
f 252 300 301
f 252 301 302
f 252 302 253
f 253 302 300
f 253 300 263
f 253 263 254
f 255 303 304
f 255 304 258
f 255 299 305
f 255 305 306
f 255 306 303
f 257 284 283
f 257 283 260
f 257 260 259
f 257 258 304
f 257 304 284
f 260 283 261
f 261 283 262
f 262 283 289
f 262 289 264
f 265 266 307
f 265 307 267
f 266 269 308
f 266 308 307
f 267 307 309
f 268 308 269
f 268 271 309
f 268 309 308
f 271 272 297
f 271 297 309
f 272 273 276
f 272 276 296
f 272 296 297
f 274 310 311
f 274 311 275
f 275 311 277
f 277 311 278
f 278 311 312
f 278 312 313
f 278 313 279
f 279 313 314
f 279 314 280
f 280 314 315
f 280 315 316
f 280 316 298
f 281 317 282
f 282 317 318
f 282 318 283
f 283 318 289
f 284 304 285
f 285 304 319
f 285 319 320
f 285 320 287
f 287 320 315
f 287 315 321
f 289 318 290
f 290 318 317
f 295 297 296
f 298 316 299
f 299 316 315
f 299 315 305
f 300 302 301
f 303 315 304
f 303 306 305
f 303 305 315
f 304 315 319
f 307 308 309
f 310 312 311
f 313 322 314
f 314 322 323
f 314 323 324
f 314 324 325
f 314 325 315
f 315 325 326
f 315 326 327
f 315 327 328
f 315 328 321
f 315 320 319
f 321 328 329
f 322 330 323
f 322 331 330
f 323 331 324
f 323 330 331
f 324 331 332
f 324 332 333
f 324 333 326
f 324 326 325
f 326 333 327
f 327 334 328
f 327 333 334
f 328 334 329
f 329 333 335
f 329 334 333
f 332 335 333
