v 0.222644 0.356914 0.23874
v 0.321658 0.356914 0.23874
v 0.297559 0.356914 0.131239
v 0.365476 -0.0222389 0.131239
v 0.305732 -0.0222389 0.23874
v 0.329076 0.356914 0.230364
v 0.336871 0.334201 0.23874
v 0.379474 0.356914 0.131239
v 0.435571 -0.0222389 0.131239
v 0.387458 -0.0222389 0.23874
v 0.345568 0.356914 0.207698
v 0.33947 0.33936 0.231311
v 0.353699 0.33743 0.214106
v 0.337416 0.33331 0.23874
v 0.393367 0.331974 0.131239
v 0.377546 0.356914 0.136764
v 0.436347 -0.00769037 0.131239
v 0.436347 -0.00769037 0.13126
v 0.435131 -0.0222389 0.132565
v 0.389449 -0.0222389 0.23612
v 0.388003 -0.0119584 0.23874
v 0.350492 0.356914 0.198648
v 0.356968 0.342143 0.203804
v 0.356821 0.327149 0.218357
v 0.359922 0.33216 0.208761
v 0.338129 0.332122 0.23874
v 0.386075 0.339768 0.139089
v 0.388045 0.331157 0.145224
v 0.38662 0.325442 0.15582
v 0.39934 0.317685 0.131239
v 0.374507 0.356914 0.144119
v 0.436724 0.00774893 0.131239
v 0.401498 -0.000230516 0.216211
v 0.432512 -0.0185647 0.139331
v 0.434398 -0.0222389 0.134375
v 0.39672 -0.0222389 0.223819
v 0.389826 -0.00769037 0.236625
v 0.388212 -0.00769037 0.23874
v 0.358141 0.356914 0.183285
v 0.367445 0.332197 0.193587
v 0.369918 0.322065 0.199122
v 0.342571 0.329042 0.235362
v 0.341293 0.326481 0.23874
v 0.345652 0.316312 0.23874
v 0.353091 0.316535 0.228922
v 0.359 0.316535 0.221209
v 0.367089 0.316757 0.208077
v 0.369373 0.337467 0.182401
v 0.383916 0.33576 0.149391
v 0.3647 0.356914 0.167753
v 0.372056 0.327186 0.18882
v 0.399298 0.3175 0.131513
v 0.399402 0.3175 0.131239
v 0.436368 0.0231882 0.131239
v 0.436368 0.0231882 0.13126
v 0.401498 0.015951 0.216232
v 0.418828 0.00774893 0.174446
v 0.398208 -0.00631716 0.222377
v 0.400995 -0.0222389 0.215001
v 0.415308 -0.0222389 0.180465
v 0.401498 0.00774893 0.216242
v 0.397768 0.00774893 0.223956
v 0.390035 0.00774893 0.236899
v 0.388652 0.00774893 0.23874
v 0.388548 0.00392622 0.23874
v 0.360383 0.356914 0.178076
v 0.371469 0.311784 0.202678
v 0.373795 0.316757 0.193587
v 0.386033 0.308741 0.169837
v 0.388066 0.316535 0.159314
v 0.349361 0.300539 0.23874
v 0.354663 0.305215 0.230995
v 0.35986 0.300502 0.225071
v 0.368598 0.301095 0.212349
v 0.401728 0.307516 0.131239
v 0.399465 0.31724 0.131239
v 0.435194 0.0491678 0.131239
v 0.429578 0.0231882 0.147686
v 0.434272 0.0695061 0.131239
v 0.398229 0.0219263 0.222388
v 0.41866 0.0231882 0.174046
v 0.400639 0.0540668 0.214138
v 0.389847 0.0231882 0.236646
v 0.388359 0.0191428 0.23874
v 0.372349 0.301095 0.204636
v 0.402881 0.301095 0.131239
v 0.385928 0.184484 0.215906
v 0.417173 0.186414 0.139594
v 0.421929 0.177581 0.13126
v 0.371469 0.177581 0.23874
v 0.373753 0.177581 0.235752
v 0.382324 0.17862 0.223008
v 0.432072 0.0540668 0.138258
v 0.427168 0.0849454 0.146708
v 0.43356 0.0849454 0.131239
v 0.396657 0.0386275 0.223903
v 0.394394 0.0849454 0.223903
v 0.414406 0.0695061 0.179213
v 0.408686 0.0695061 0.193018
v 0.403132 0.0849454 0.20472
v 0.399926 0.0849454 0.212433
v 0.387709 0.0337285 0.23874
v 0.388254 0.0231882 0.23874
v 0.389449 0.0386275 0.236109
v 0.421929 0.177581 0.131239
v 0.385195 0.131263 0.230322
v 0.385886 0.122616 0.231395
v 0.386641 0.174167 0.217263
v 0.399319 0.100385 0.210981
v 0.398816 0.116084 0.207508
v 0.401896 0.11111 0.201731
v 0.400513 0.131263 0.198385
v 0.398837 0.162439 0.192082
v 0.415706 0.162142 0.151464
v 0.403719 0.177581 0.175256
v 0.424067 0.162142 0.13126
v 0.373963 0.162142 0.23874
v 0.37501 0.162142 0.237372
v 0.382722 0.162142 0.226481
v 0.417026 0.0935557 0.1701
v 0.432868 0.0938897 0.131239
v 0.388631 0.0695061 0.235047
v 0.388212 0.0849454 0.23451
v 0.393095 0.100385 0.223903
v 0.387521 0.100385 0.233594
v 0.385006 0.0849454 0.23874
v 0.424067 0.162142 0.131239
v 0.386703 0.112335 0.2325
v 0.390119 0.116826 0.225313
v 0.402525 0.100385 0.203257
v 0.416439 0.103836 0.168721
v 0.430437 0.115824 0.131239
v 0.430249 0.117234 0.131239
v 0.429431 0.12321 0.131239
v 0.426225 0.146517 0.131239
v 0.380291 0.122616 0.23874
v 0.413862 0.0993826 0.176182
v 0.432344 0.100385 0.131239
v 0.430752 0.100385 0.135101
v 0.425953 0.100385 0.146708
v 0.383602 0.100385 0.23874
v 0.38444 0.0912176 0.23874
v 0.381548 0.114599 0.23874
v 0.38312 0.103873 0.23874
v 0.381297 0.116306 0.23874
f 1 2 6
f 1 6 11
f 1 11 22
f 1 22 39
f 1 39 66
f 1 66 50
f 1 50 31
f 1 31 16
f 1 16 8
f 1 8 3
f 1 3 4
f 1 4 5
f 1 5 10
f 1 10 21
f 1 21 38
f 1 38 65
f 1 65 64
f 1 64 84
f 1 84 103
f 1 103 102
f 1 102 126
f 1 126 142
f 1 142 141
f 1 141 144
f 1 144 143
f 1 143 145
f 1 145 136
f 1 136 117
f 1 117 90
f 1 90 71
f 1 71 44
f 1 44 43
f 1 43 26
f 1 26 14
f 1 14 7
f 1 7 2
f 2 7 6
f 3 8 15
f 3 15 30
f 3 30 53
f 3 53 76
f 3 76 75
f 3 75 86
f 3 86 105
f 3 105 127
f 3 127 135
f 3 135 134
f 3 134 133
f 3 133 132
f 3 132 138
f 3 138 121
f 3 121 95
f 3 95 79
f 3 79 77
f 3 77 54
f 3 54 32
f 3 32 17
f 3 17 9
f 3 9 4
f 4 9 19
f 4 19 35
f 4 35 60
f 4 60 59
f 4 59 36
f 4 36 20
f 4 20 10
f 4 10 5
f 6 7 12
f 6 12 13
f 6 13 11
f 7 14 12
f 8 16 15
f 9 17 18
f 9 18 19
f 10 20 21
f 11 13 23
f 11 23 22
f 12 14 24
f 12 24 13
f 13 24 25
f 13 25 23
f 14 26 24
f 15 27 28
f 15 28 29
f 15 29 30
f 15 16 27
f 16 31 27
f 17 32 18
f 18 33 34
f 18 34 35
f 18 35 19
f 18 32 33
f 20 36 37
f 20 37 21
f 21 37 38
f 22 23 39
f 23 25 40
f 23 40 39
f 24 41 25
f 24 26 42
f 24 42 43
f 24 43 44
f 24 44 45
f 24 45 46
f 24 46 47
f 24 47 41
f 25 41 40
f 26 43 42
f 27 48 49
f 27 49 28
f 27 31 50
f 27 50 48
f 28 51 29
f 28 49 48
f 28 48 51
f 29 51 41
f 29 41 52
f 29 52 30
f 30 52 53
f 32 54 55
f 32 55 56
f 32 56 57
f 32 57 33
f 33 58 59
f 33 59 60
f 33 60 34
f 33 57 61
f 33 61 62
f 33 62 58
f 34 60 35
f 36 59 58
f 36 58 37
f 37 58 62
f 37 62 63
f 37 63 64
f 37 64 65
f 37 65 38
f 39 40 48
f 39 48 66
f 40 41 51
f 40 51 48
f 41 47 67
f 41 67 68
f 41 68 69
f 41 69 70
f 41 70 52
f 44 71 72
f 44 72 46
f 44 46 45
f 46 72 73
f 46 73 74
f 46 74 47
f 47 74 67
f 48 50 66
f 52 70 69
f 52 69 75
f 52 75 76
f 52 76 53
f 54 77 55
f 55 78 56
f 55 77 79
f 55 79 78
f 56 80 62
f 56 62 61
f 56 61 57
f 56 78 81
f 56 81 82
f 56 82 80
f 62 80 83
f 62 83 63
f 63 83 64
f 64 83 84
f 67 69 68
f 67 74 85
f 67 85 69
f 69 86 75
f 69 85 87
f 69 87 88
f 69 88 89
f 69 89 86
f 71 90 72
f 72 90 91
f 72 91 73
f 73 91 74
f 74 91 92
f 74 92 87
f 74 87 85
f 78 93 94
f 78 94 81
f 78 79 93
f 79 95 94
f 79 94 93
f 80 96 83
f 80 82 97
f 80 97 96
f 81 94 98
f 81 98 82
f 82 98 99
f 82 99 100
f 82 100 101
f 82 101 97
f 83 102 103
f 83 103 84
f 83 96 104
f 83 104 102
f 86 89 105
f 87 92 106
f 87 106 107
f 87 107 108
f 87 108 109
f 87 109 110
f 87 110 111
f 87 111 112
f 87 112 113
f 87 113 114
f 87 114 115
f 87 115 89
f 87 89 88
f 89 115 114
f 89 114 116
f 89 116 127
f 89 127 105
f 90 117 118
f 90 118 91
f 91 118 107
f 91 107 106
f 91 106 119
f 91 119 92
f 92 119 106
f 94 95 120
f 94 120 100
f 94 100 98
f 95 121 120
f 96 122 104
f 96 97 123
f 96 123 122
f 97 101 124
f 97 124 125
f 97 125 123
f 98 100 99
f 100 120 101
f 101 120 109
f 101 109 124
f 102 104 122
f 102 122 126
f 107 128 108
f 107 118 128
f 108 128 129
f 108 129 124
f 108 124 109
f 109 130 111
f 109 111 110
f 109 120 130
f 111 130 131
f 111 131 132
f 111 132 133
f 111 133 134
f 111 134 114
f 111 114 112
f 112 114 113
f 114 135 116
f 114 134 135
f 116 135 127
f 117 136 118
f 118 136 128
f 120 137 130
f 120 121 138
f 120 138 139
f 120 139 140
f 120 140 137
f 122 123 126
f 123 125 126
f 124 129 128
f 124 128 125
f 125 128 141
f 125 141 142
f 125 142 126
f 128 143 144
f 128 144 141
f 128 136 145
f 128 145 143
f 130 137 131
f 131 137 140
f 131 140 139
f 131 139 132
f 132 139 138
