v 0.375071 0.356914 -0.142579
v 0.369599 0.390337 -0.142579
v 0.292849 0.356914 -0.142579
v 0.374514 0.356914 -0.144133
v 0.360596 0.393775 -0.16216
v 0.367392 0.393493 -0.145942
v 0.368294 0.395357 -0.142579
v 0.360385 0.356914 -0.17808
v 0.353071 0.393775 -0.180294
v 0.252132 0.441527 -0.142579
v 0.178953 0.356914 -0.272388
v 0.355221 0.401652 -0.170056
v 0.364723 0.404642 -0.142579
v 0.354376 0.356914 -0.191851
v 0.347388 0.393775 -0.193043
v 0.336792 0.441527 -0.142579
v 0.178953 0.441527 -0.226458
v 0.178953 0.356914 -0.359992
v 0.349577 0.407757 -0.176165
v 0.356872 0.404915 -0.16216
v 0.362381 0.409985 -0.142579
v 0.340343 0.402729 -0.201641
v 0.342224 0.408403 -0.192064
v 0.341744 0.393775 -0.203599
v 0.345565 0.356914 -0.207707
v 0.344682 0.433078 -0.142579
v 0.329919 0.441527 -0.160904
v 0.178953 0.441527 -0.32117
v 0.178953 0.393775 -0.353628
v 0.180296 0.393775 -0.353075
v 0.183291 0.356914 -0.35814
v 0.352936 0.412635 -0.16216
v 0.34017 0.417564 -0.186274
v 0.354741 0.416189 -0.153434
v 0.360116 0.410308 -0.147666
v 0.357371 0.418682 -0.142579
v 0.326137 0.404775 -0.218647
v 0.331743 0.4089 -0.208154
v 0.337348 0.413016 -0.196576
v 0.335985 0.393775 -0.211325
v 0.307957 0.39867 -0.245933
v 0.293713 0.402083 -0.262917
v 0.342263 0.356914 -0.212283
v 0.323008 0.356914 -0.238334
v 0.351093 0.426087 -0.142579
v 0.337905 0.430486 -0.165544
v 0.335409 0.42757 -0.177591
v 0.325484 0.433476 -0.187253
v 0.321011 0.441527 -0.179315
v 0.179317 0.441527 -0.321
v 0.187246 0.433476 -0.32547
v 0.178953 0.440392 -0.322299
v 0.178953 0.394793 -0.353351
v 0.193024 0.393775 -0.347371
v 0.198668 0.356914 -0.350478
v 0.327039 0.419941 -0.204366
v 0.331416 0.4239 -0.191915
v 0.342013 0.41985 -0.177591
v 0.356872 0.419154 -0.143154
v 0.356987 0.419295 -0.142579
v 0.323085 0.415071 -0.214667
v 0.285055 0.408253 -0.26943
v 0.309512 0.388374 -0.247976
v 0.31387 0.393617 -0.240229
v 0.295038 0.393775 -0.264662
v 0.289106 0.393775 -0.272367
v 0.27945 0.404137 -0.279454
v 0.309032 0.356914 -0.256213
v 0.35668 0.419651 -0.142579
v 0.321856 0.430237 -0.197555
v 0.3141 0.441527 -0.192191
v 0.190125 0.441527 -0.315424
v 0.178953 0.435273 -0.327364
v 0.197555 0.430237 -0.321852
v 0.191911 0.4239 -0.331408
v 0.186286 0.417564 -0.340177
v 0.178953 0.425996 -0.336154
v 0.178953 0.427222 -0.335026
v 0.178953 0.407872 -0.348286
v 0.201644 0.402729 -0.340347
v 0.203602 0.393775 -0.341731
v 0.20771 0.356914 -0.345562
v 0.307669 0.431355 -0.214646
v 0.30886 0.416959 -0.231673
v 0.294615 0.418326 -0.248678
v 0.280371 0.419585 -0.26562
v 0.28949 0.428622 -0.242016
v 0.290661 0.412379 -0.258937
v 0.275937 0.414433 -0.275921
v 0.295422 0.356914 -0.273516
v 0.281389 0.393775 -0.281391
v 0.272404 0.393775 -0.289096
v 0.26294 0.402083 -0.293715
v 0.269448 0.408253 -0.285052
v 0.293444 0.432416 -0.231715
v 0.266837 0.441527 -0.253659
v 0.21464 0.431355 -0.307677
v 0.251307 0.441527 -0.26894
v 0.20437 0.419941 -0.327045
v 0.196575 0.413016 -0.337346
v 0.192064 0.408403 -0.34222
v 0.178953 0.419494 -0.341731
v 0.211319 0.393775 -0.335984
v 0.208151 0.4089 -0.331748
v 0.218633 0.404775 -0.326151
v 0.245931 0.39867 -0.307953
v 0.230382 0.356914 -0.329067
v 0.275188 0.429881 -0.25898
v 0.270427 0.424729 -0.270409
v 0.258966 0.412379 -0.29065
v 0.248677 0.418326 -0.294608
v 0.265647 0.419585 -0.28037
v 0.285074 0.356914 -0.285073
v 0.280294 0.356914 -0.289543
v 0.26891 0.356914 -0.299035
v 0.247966 0.388374 -0.309507
v 0.214659 0.415071 -0.323086
v 0.264898 0.434188 -0.264875
v 0.260214 0.441527 -0.260193
v 0.242015 0.428622 -0.2895
v 0.259005 0.429881 -0.275176
v 0.231668 0.416959 -0.308847
v 0.221397 0.393775 -0.328258
v 0.244511 0.356914 -0.318233
f 1 2 7
f 1 7 13
f 1 13 21
f 1 21 36
f 1 36 60
f 1 60 69
f 1 69 45
f 1 45 26
f 1 26 16
f 1 16 10
f 1 10 3
f 1 3 11
f 1 11 18
f 1 18 31
f 1 31 55
f 1 55 82
f 1 82 107
f 1 107 124
f 1 124 115
f 1 115 114
f 1 114 113
f 1 113 90
f 1 90 68
f 1 68 44
f 1 44 43
f 1 43 25
f 1 25 14
f 1 14 8
f 1 8 4
f 1 4 2
f 2 5 6
f 2 6 7
f 2 4 8
f 2 8 9
f 2 9 5
f 3 10 11
f 5 12 7
f 5 7 6
f 5 9 12
f 7 12 13
f 8 14 9
f 9 14 15
f 9 15 12
f 10 16 27
f 10 27 49
f 10 49 71
f 10 71 96
f 10 96 119
f 10 119 98
f 10 98 72
f 10 72 50
f 10 50 28
f 10 28 17
f 10 17 11
f 11 17 28
f 11 28 52
f 11 52 73
f 11 73 78
f 11 78 77
f 11 77 102
f 11 102 79
f 11 79 53
f 11 53 29
f 11 29 18
f 12 19 20
f 12 20 21
f 12 21 13
f 12 15 22
f 12 22 23
f 12 23 19
f 14 24 15
f 14 25 24
f 15 24 22
f 16 26 27
f 18 29 30
f 18 30 31
f 19 32 20
f 19 23 33
f 19 33 32
f 20 32 34
f 20 34 35
f 20 35 21
f 21 35 34
f 21 34 36
f 22 37 38
f 22 38 39
f 22 39 23
f 22 24 40
f 22 40 41
f 22 41 42
f 22 42 37
f 23 39 33
f 24 25 43
f 24 43 44
f 24 44 40
f 26 45 27
f 27 45 46
f 27 46 47
f 27 47 48
f 27 48 49
f 28 50 51
f 28 51 52
f 29 53 30
f 30 53 54
f 30 54 31
f 31 54 55
f 32 33 34
f 33 39 56
f 33 56 57
f 33 57 48
f 33 48 47
f 33 47 58
f 33 58 59
f 33 59 34
f 34 59 36
f 36 59 60
f 37 61 38
f 37 42 62
f 37 62 61
f 38 61 39
f 39 61 56
f 40 44 63
f 40 63 64
f 40 64 41
f 41 64 63
f 41 63 65
f 41 65 66
f 41 66 42
f 42 66 67
f 42 67 62
f 44 68 63
f 45 69 46
f 46 69 60
f 46 60 59
f 46 59 58
f 46 58 47
f 48 57 70
f 48 70 71
f 48 71 49
f 50 72 51
f 51 73 52
f 51 72 74
f 51 74 75
f 51 75 76
f 51 76 77
f 51 77 78
f 51 78 73
f 53 79 80
f 53 80 54
f 54 80 81
f 54 81 55
f 55 81 82
f 56 83 70
f 56 70 57
f 56 61 84
f 56 84 85
f 56 85 86
f 56 86 87
f 56 87 83
f 61 62 88
f 61 88 84
f 62 67 89
f 62 89 88
f 63 68 90
f 63 90 66
f 63 66 65
f 66 90 91
f 66 91 67
f 67 91 92
f 67 92 93
f 67 93 94
f 67 94 89
f 70 83 71
f 71 83 95
f 71 95 96
f 72 97 74
f 72 98 97
f 74 99 75
f 74 97 99
f 75 99 76
f 76 99 100
f 76 100 101
f 76 101 79
f 76 79 102
f 76 102 77
f 79 101 80
f 80 103 81
f 80 101 100
f 80 100 104
f 80 104 105
f 80 105 93
f 80 93 106
f 80 106 103
f 81 103 107
f 81 107 82
f 83 87 108
f 83 108 95
f 84 88 85
f 85 88 89
f 85 89 86
f 86 89 109
f 86 109 108
f 86 108 87
f 89 94 110
f 89 110 111
f 89 111 112
f 89 112 109
f 90 113 91
f 91 113 114
f 91 114 92
f 92 114 115
f 92 115 116
f 92 116 106
f 92 106 93
f 93 105 94
f 94 105 117
f 94 117 110
f 95 108 96
f 96 108 118
f 96 118 119
f 97 120 99
f 97 98 121
f 97 121 120
f 98 119 118
f 98 118 121
f 99 111 122
f 99 122 117
f 99 117 100
f 99 120 112
f 99 112 111
f 100 117 104
f 103 123 116
f 103 116 107
f 103 106 123
f 104 117 105
f 106 116 123
f 107 116 124
f 108 109 118
f 109 112 121
f 109 121 118
f 110 122 111
f 110 117 122
f 112 120 121
f 115 124 116
