v 0.167056 -0.417837 0.240329
v 0.258818 -0.417837 0.138125
v 0.274454 -0.417837 0.240329
v 0.304477 -0.0223164 0.240329
v 0.362625 -0.0222776 0.138125
v 0.33692 -0.417837 0.138125
v 0.279631 -0.417837 0.233806
v 0.275937 -0.415087 0.240329
v 0.316627 -0.0222776 0.240329
v 0.309654 -0.0222776 0.233616
v 0.432844 -0.0222776 0.138125
v 0.337727 -0.416133 0.138125
v 0.324276 -0.416946 0.169892
v 0.324692 -0.417837 0.16782
v 0.28075 -0.417837 0.232365
v 0.279059 -0.409201 0.240329
v 0.386222 -0.0222776 0.240329
v 0.431335 -0.0553087 0.138125
v 0.404564 -0.0222776 0.206381
v 0.422854 -0.0231683 0.162147
v 0.338143 -0.415242 0.138125
v 0.321882 -0.41199 0.180187
v 0.319463 -0.417837 0.178966
v 0.323391 -0.417837 0.170772
v 0.324094 -0.417837 0.169271
v 0.338611 -0.414235 0.138125
v 0.330832 -0.409201 0.162147
v 0.331092 -0.393751 0.177586
v 0.324354 -0.401689 0.18546
v 0.292535 -0.417837 0.217077
v 0.293524 -0.417101 0.216316
v 0.281869 -0.409201 0.236697
v 0.285927 -0.395571 0.240329
v 0.389448 -0.0222776 0.236117
v 0.386196 -0.022781 0.240329
v 0.417234 -0.0695201 0.170602
v 0.430685 -0.0695201 0.138125
v 0.401129 -0.0222776 0.214656
v 0.400973 -0.0231683 0.214946
v 0.404173 -0.0231683 0.207232
v 0.400271 -0.0540695 0.213255
v 0.403471 -0.0540695 0.205531
v 0.315846 -0.417837 0.18536
v 0.357812 -0.369704 0.138125
v 0.343528 -0.394215 0.147109
v 0.337076 -0.394215 0.162678
v 0.337232 -0.378881 0.178246
v 0.339105 -0.369161 0.183829
v 0.323209 -0.383915 0.199277
v 0.316107 -0.408233 0.192384
v 0.312933 -0.417837 0.190032
v 0.341317 -0.358861 0.188612
v 0.343736 -0.347709 0.193454
v 0.338663 -0.353014 0.198897
v 0.341057 -0.342713 0.202639
v 0.293316 -0.417837 0.216056
v 0.307183 -0.417837 0.197797
v 0.307729 -0.414739 0.199317
v 0.295501 -0.409201 0.218918
v 0.294747 -0.388678 0.233355
v 0.294591 -0.3783 0.240329
v 0.396629 -0.0231683 0.2239
v 0.396707 -0.0222776 0.22382
v 0.385702 -0.032307 0.240329
v 0.383958 -0.0654929 0.240329
v 0.388615 -0.0540695 0.235016
v 0.414034 -0.0695201 0.178326
v 0.417 -0.0780005 0.170072
v 0.429436 -0.084932 0.138125
v 0.400973 -0.0222776 0.214996
v 0.396967 -0.0222776 0.2233
v 0.394365 -0.0695201 0.2239
v 0.399907 -0.0695201 0.212404
v 0.407946 -0.0695201 0.193014
v 0.360856 -0.362617 0.138125
v 0.355886 -0.356809 0.156174
v 0.343841 -0.363547 0.178246
v 0.341239 -0.374118 0.173534
v 0.351333 -0.346973 0.177115
v 0.325785 -0.373615 0.202719
v 0.353753 -0.335472 0.181948
v 0.350839 -0.33098 0.191913
v 0.309941 -0.347438 0.240329
v 0.312724 -0.347438 0.236707
v 0.320451 -0.347438 0.226642
v 0.334579 -0.347709 0.208052
v 0.355002 -0.308405 0.200398
v 0.355392 -0.278549 0.216486
v 0.343086 -0.331987 0.205511
v 0.33744 -0.331987 0.213225
v 0.322949 -0.336324 0.229934
v 0.327736 -0.361494 0.208102
v 0.301693 -0.364127 0.240329
v 0.388199 -0.0695201 0.234486
v 0.383724 -0.0695201 0.240329
v 0.399282 -0.084932 0.210904
v 0.419289 -0.0838478 0.162958
v 0.425897 -0.084932 0.146699
v 0.427485 -0.100383 0.138125
v 0.387497 -0.084932 0.233546
v 0.393012 -0.084932 0.2239
v 0.364394 -0.35433 0.138125
v 0.353753 -0.351813 0.16647
v 0.355886 -0.341513 0.171653
v 0.370456 -0.339267 0.138635
v 0.357239 -0.33098 0.177115
v 0.356875 -0.316536 0.189452
v 0.316133 -0.333304 0.240329
v 0.310175 -0.357816 0.233386
v 0.324406 -0.355453 0.216376
v 0.366423 -0.284512 0.191803
v 0.368999 -0.270223 0.196906
v 0.370378 -0.261704 0.200228
v 0.367906 -0.255857 0.208482
v 0.363119 -0.270223 0.208462
v 0.356979 -0.270223 0.218568
v 0.343346 -0.270223 0.236357
v 0.341161 -0.312587 0.218067
v 0.316835 -0.332723 0.239719
v 0.382501 -0.082841 0.240329
v 0.398762 -0.100499 0.207462
v 0.401858 -0.095426 0.201659
v 0.416401 -0.088301 0.168651
v 0.387419 -0.146735 0.218678
v 0.386586 -0.158468 0.217207
v 0.385884 -0.168768 0.215806
v 0.423946 -0.100383 0.146699
v 0.424519 -0.122068 0.138125
v 0.382293 -0.084932 0.240329
v 0.386664 -0.0966652 0.232455
v 0.390072 -0.101235 0.225271
v 0.366969 -0.348212 0.138125
v 0.35776 -0.346973 0.161647
v 0.370013 -0.3225 0.153023
v 0.370326 -0.34008 0.138125
v 0.37082 -0.338764 0.138125
v 0.373396 -0.330942 0.138125
v 0.388719 -0.284357 0.138125
v 0.385832 -0.292722 0.138465
v 0.378339 -0.285674 0.162147
v 0.372199 -0.270223 0.189202
v 0.317694 -0.329238 0.240329
v 0.38708 -0.265654 0.156925
v 0.384947 -0.258451 0.16722
v 0.374436 -0.255857 0.194255
v 0.371757 -0.251442 0.203349
v 0.369259 -0.24211 0.213645
v 0.359659 -0.254773 0.222069
v 0.353753 -0.254773 0.229794
v 0.345506 -0.255276 0.240329
v 0.340276 -0.270223 0.240329
v 0.33359 -0.287726 0.240329
v 0.339184 -0.291986 0.230924
v 0.322559 -0.316536 0.240329
v 0.396238 -0.115833 0.208462
v 0.391998 -0.146735 0.208462
v 0.41458 -0.115833 0.164199
v 0.41778 -0.115833 0.156474
v 0.404304 -0.100499 0.194085
v 0.385858 -0.106966 0.231334
v 0.383906 -0.131284 0.228313
v 0.382241 -0.163037 0.22297
v 0.378573 -0.177597 0.2239
v 0.370638 -0.23181 0.216256
v 0.384869 -0.177597 0.213465
v 0.388095 -0.177597 0.205741
v 0.41713 -0.170782 0.139485
v 0.41791 -0.169349 0.138125
v 0.41778 -0.162146 0.141046
v 0.419445 -0.130664 0.14753
v 0.422073 -0.139842 0.138125
v 0.381539 -0.0900822 0.240329
v 0.379926 -0.10108 0.240329
v 0.381461 -0.101235 0.238298
v 0.379431 -0.104216 0.240329
v 0.374957 -0.146735 0.237298
v 0.385389 -0.275954 0.152842
v 0.393533 -0.26972 0.138125
v 0.397981 -0.254773 0.138125
v 0.386326 -0.248151 0.170562
v 0.382345 -0.253882 0.176455
v 0.379093 -0.239322 0.193014
v 0.372745 -0.237928 0.208482
v 0.362833 -0.239206 0.22385
v 0.355028 -0.246563 0.231454
v 0.349356 -0.242188 0.240329
v 0.419627 -0.157577 0.138125
v 0.418847 -0.146735 0.143628
v 0.373682 -0.162146 0.235667
v 0.382658 -0.146735 0.226392
v 0.372017 -0.177597 0.233496
v 0.36788 -0.208498 0.228083
v 0.38682 -0.188711 0.202639
v 0.40139 -0.184916 0.169631
v 0.399464 -0.178875 0.177626
v 0.417468 -0.17175 0.138125
v 0.412369 -0.193861 0.138125
v 0.418977 -0.162146 0.138125
v 0.375243 -0.130355 0.240329
v 0.372615 -0.146735 0.240329
v 0.370117 -0.162146 0.240329
v 0.400479 -0.245131 0.138125
v 0.401129 -0.242381 0.138125
v 0.391894 -0.239322 0.162147
v 0.384167 -0.239322 0.180787
v 0.383022 -0.223755 0.192254
v 0.34985 -0.240406 0.240329
v 0.358748 -0.207491 0.240329
v 0.351411 -0.234637 0.240329
v 0.367308 -0.175157 0.240329
v 0.366761 -0.177597 0.240329
v 0.36468 -0.19208 0.238008
v 0.396212 -0.193048 0.177586
v 0.402326 -0.204432 0.156464
v 0.403627 -0.231616 0.138125
v 0.385389 -0.228789 0.183729
v 0.362833 -0.192312 0.240329
f 1 2 6
f 1 6 14
f 1 14 25
f 1 25 24
f 1 24 23
f 1 23 43
f 1 43 51
f 1 51 57
f 1 57 56
f 1 56 30
f 1 30 15
f 1 15 7
f 1 7 3
f 1 3 8
f 1 8 16
f 1 16 33
f 1 33 61
f 1 61 93
f 1 93 83
f 1 83 108
f 1 108 142
f 1 142 154
f 1 154 152
f 1 152 151
f 1 151 150
f 1 150 186
f 1 186 207
f 1 207 209
f 1 209 208
f 1 208 217
f 1 217 211
f 1 211 210
f 1 210 201
f 1 201 200
f 1 200 199
f 1 199 175
f 1 175 173
f 1 173 172
f 1 172 129
f 1 129 120
f 1 120 95
f 1 95 65
f 1 65 64
f 1 64 35
f 1 35 17
f 1 17 9
f 1 9 4
f 1 4 5
f 1 5 2
f 2 5 11
f 2 11 18
f 2 18 37
f 2 37 69
f 2 69 99
f 2 99 128
f 2 128 171
f 2 171 187
f 2 187 198
f 2 198 168
f 2 168 196
f 2 196 197
f 2 197 215
f 2 215 203
f 2 203 202
f 2 202 179
f 2 179 178
f 2 178 138
f 2 138 137
f 2 137 136
f 2 136 135
f 2 135 132
f 2 132 102
f 2 102 75
f 2 75 44
f 2 44 26
f 2 26 21
f 2 21 12
f 2 12 6
f 3 7 8
f 4 9 10
f 4 10 5
f 5 10 9
f 5 9 17
f 5 17 34
f 5 34 63
f 5 63 71
f 5 71 70
f 5 70 38
f 5 38 19
f 5 19 11
f 6 12 13
f 6 13 14
f 7 15 16
f 7 16 8
f 11 19 20
f 11 20 18
f 12 21 13
f 13 22 23
f 13 23 24
f 13 24 25
f 13 25 14
f 13 21 26
f 13 26 27
f 13 27 28
f 13 28 29
f 13 29 22
f 15 30 31
f 15 31 32
f 15 32 16
f 16 32 33
f 17 35 34
f 18 36 37
f 18 20 36
f 19 38 39
f 19 39 40
f 19 40 20
f 20 40 41
f 20 41 42
f 20 42 36
f 22 43 23
f 22 29 43
f 26 44 45
f 26 45 27
f 27 45 46
f 27 46 28
f 28 46 47
f 28 47 48
f 28 48 29
f 29 49 50
f 29 50 51
f 29 51 43
f 29 48 52
f 29 52 53
f 29 53 54
f 29 54 55
f 29 55 49
f 30 56 31
f 31 56 57
f 31 57 58
f 31 58 59
f 31 59 32
f 32 59 60
f 32 60 33
f 33 60 61
f 34 62 63
f 34 35 64
f 34 64 65
f 34 65 66
f 34 66 62
f 36 67 68
f 36 68 37
f 36 42 41
f 36 41 67
f 37 68 69
f 38 70 39
f 39 70 71
f 39 71 72
f 39 72 41
f 39 41 40
f 41 72 73
f 41 73 74
f 41 74 67
f 44 75 76
f 44 76 77
f 44 77 78
f 44 78 45
f 45 78 46
f 46 78 47
f 47 78 77
f 47 77 48
f 48 77 79
f 48 79 52
f 49 55 80
f 49 80 58
f 49 58 50
f 50 58 51
f 51 58 57
f 52 79 53
f 53 79 81
f 53 81 82
f 53 82 55
f 53 55 54
f 55 83 84
f 55 84 85
f 55 85 86
f 55 86 80
f 55 82 87
f 55 87 88
f 55 88 89
f 55 89 90
f 55 90 91
f 55 91 83
f 58 80 59
f 59 80 60
f 60 80 92
f 60 92 93
f 60 93 61
f 62 71 63
f 62 66 94
f 62 94 72
f 62 72 71
f 65 95 94
f 65 94 66
f 67 74 68
f 68 74 73
f 68 73 96
f 68 96 97
f 68 97 98
f 68 98 69
f 69 98 127
f 69 127 99
f 72 94 100
f 72 100 101
f 72 101 96
f 72 96 73
f 75 102 76
f 76 102 103
f 76 103 77
f 77 103 79
f 79 104 81
f 79 103 104
f 80 86 92
f 81 105 106
f 81 106 107
f 81 107 87
f 81 87 82
f 81 104 105
f 83 91 108
f 83 93 109
f 83 109 84
f 84 109 110
f 84 110 85
f 85 110 86
f 86 110 92
f 87 107 111
f 87 111 112
f 87 112 113
f 87 113 114
f 87 114 115
f 87 115 116
f 87 116 88
f 88 116 117
f 88 117 118
f 88 118 90
f 88 90 89
f 90 119 91
f 90 118 119
f 91 119 108
f 92 110 93
f 93 110 109
f 94 95 120
f 94 120 100
f 96 121 122
f 96 122 123
f 96 123 97
f 96 101 124
f 96 124 125
f 96 125 126
f 96 126 121
f 97 123 98
f 98 123 127
f 99 127 128
f 100 120 129
f 100 129 130
f 100 130 101
f 101 130 131
f 101 131 124
f 102 132 103
f 103 132 133
f 103 133 104
f 104 133 132
f 104 132 105
f 105 134 106
f 105 132 135
f 105 135 136
f 105 136 137
f 105 137 138
f 105 138 139
f 105 139 134
f 106 134 107
f 107 134 140
f 107 140 141
f 107 141 111
f 108 119 142
f 111 141 112
f 112 141 113
f 113 141 143
f 113 143 144
f 113 144 145
f 113 145 146
f 113 146 114
f 114 146 147
f 114 147 116
f 114 116 115
f 116 147 148
f 116 148 149
f 116 149 150
f 116 150 117
f 117 151 152
f 117 152 119
f 117 119 153
f 117 153 118
f 117 150 151
f 118 153 119
f 119 154 142
f 119 152 154
f 121 155 156
f 121 156 157
f 121 157 158
f 121 158 159
f 121 159 122
f 121 126 155
f 122 159 127
f 122 127 123
f 124 131 160
f 124 160 125
f 125 160 126
f 126 160 161
f 126 161 162
f 126 162 163
f 126 163 164
f 126 164 165
f 126 165 166
f 126 166 167
f 126 167 168
f 126 168 169
f 126 169 156
f 126 156 155
f 127 159 158
f 127 158 128
f 128 170 171
f 128 158 170
f 129 172 130
f 130 160 131
f 130 172 173
f 130 173 174
f 130 174 175
f 130 175 176
f 130 176 160
f 134 139 177
f 134 177 140
f 138 178 139
f 139 178 177
f 140 177 141
f 141 177 143
f 143 177 178
f 143 178 179
f 143 179 144
f 144 179 180
f 144 180 181
f 144 181 145
f 145 181 180
f 145 180 146
f 146 180 182
f 146 182 183
f 146 183 164
f 146 164 147
f 147 164 148
f 148 164 184
f 148 184 185
f 148 185 149
f 149 185 150
f 150 185 186
f 156 169 187
f 156 187 188
f 156 188 170
f 156 170 158
f 156 158 157
f 160 176 189
f 160 189 161
f 161 189 190
f 161 190 162
f 162 189 191
f 162 191 163
f 162 190 189
f 163 191 164
f 164 192 184
f 164 183 165
f 164 191 192
f 165 183 182
f 165 182 193
f 165 193 166
f 166 193 194
f 166 194 195
f 166 195 167
f 167 196 168
f 167 195 194
f 167 194 197
f 167 197 196
f 168 198 169
f 169 198 187
f 170 188 171
f 171 188 187
f 173 175 174
f 175 199 176
f 176 199 200
f 176 200 201
f 176 201 189
f 179 202 180
f 180 202 203
f 180 203 204
f 180 204 205
f 180 205 182
f 182 205 206
f 182 206 193
f 184 192 185
f 185 207 186
f 185 192 208
f 185 208 209
f 185 209 207
f 189 201 191
f 191 201 210
f 191 210 211
f 191 211 212
f 191 212 192
f 192 212 208
f 193 206 213
f 193 213 194
f 194 213 214
f 194 214 197
f 197 214 215
f 203 215 204
f 204 215 214
f 204 214 213
f 204 213 216
f 204 216 205
f 205 216 206
f 206 216 213
f 208 212 217
f 211 217 212
