v 7.2114e-05 -0.719624 0.311131
v -0.00772228 -0.719624 0.311131
v 7.2114e-05 -0.719624 0.203371
v 7.2114e-05 -0.608251 0.244705
v -0.0184737 -0.719624 0.309793
v -0.00772228 -0.608251 0.244705
v -0.146572 -0.719624 0.138983
v -0.146572 -0.686777 0.119798
v -0.146572 -0.672092 0.112429
v 7.2114e-05 -0.687159 0.190053
v 7.2114e-05 -0.608251 0.178979
v -0.0315648 -0.719624 0.308126
v -0.0231675 -0.608251 0.242749
v -0.146572 -0.719624 0.274141
v -0.146572 -0.664701 0.109527
v -0.146572 -0.656284 0.106254
v 7.2114e-05 -0.675799 0.18643
v 7.2114e-05 -0.609962 0.178814
v -0.146572 -0.609962 0.101602
v -0.146572 -0.608251 0.10189
v -0.0435507 -0.719624 0.306541
v -0.0523498 -0.608251 0.238941
v -0.146127 -0.719624 0.274347
v -0.118538 -0.608251 0.214425
v -0.119184 -0.608251 0.214096
v -0.132275 -0.608251 0.205512
v -0.145007 -0.608251 0.195879
v -0.146572 -0.608251 0.194685
v -0.146572 -0.647203 0.104133
v 7.2114e-05 -0.66808 0.184084
v 7.2114e-05 -0.671972 0.185257
v 7.2114e-05 -0.625399 0.178382
v -0.146572 -0.625399 0.10086
v -0.0562542 -0.719624 0.304832
v -0.054058 -0.608251 0.238715
v -0.13793 -0.719624 0.277908
v -0.111633 -0.608251 0.217575
v -0.146572 -0.641218 0.102816
v 7.2114e-05 -0.662237 0.182828
v 7.2114e-05 -0.640847 0.179493
v -0.0694889 -0.719624 0.303021
v -0.0704794 -0.608251 0.234372
v -0.0845322 -0.719624 0.299419
v -0.104585 -0.719624 0.29174
v -0.0990301 -0.608251 0.222782
v -0.100365 -0.719624 0.29349
v 7.2114e-05 -0.656284 0.181552
v -0.0833982 -0.608251 0.229225
v -0.0972789 -0.719624 0.294746
v -0.0911352 -0.719624 0.297031
f 1 2 5
f 1 5 12
f 1 12 21
f 1 21 34
f 1 34 41
f 1 41 43
f 1 43 50
f 1 50 49
f 1 49 46
f 1 46 44
f 1 44 36
f 1 36 23
f 1 23 14
f 1 14 7
f 1 7 3
f 1 3 10
f 1 10 17
f 1 17 31
f 1 31 30
f 1 30 39
f 1 39 47
f 1 47 40
f 1 40 32
f 1 32 18
f 1 18 11
f 1 11 4
f 1 4 6
f 1 6 2
f 2 6 5
f 3 7 8
f 3 8 9
f 3 9 10
f 4 11 20
f 4 20 28
f 4 28 27
f 4 27 26
f 4 26 25
f 4 25 24
f 4 24 37
f 4 37 45
f 4 45 48
f 4 48 42
f 4 42 35
f 4 35 22
f 4 22 13
f 4 13 6
f 5 6 13
f 5 13 12
f 7 14 28
f 7 28 20
f 7 20 19
f 7 19 33
f 7 33 38
f 7 38 29
f 7 29 16
f 7 16 15
f 7 15 9
f 7 9 8
f 9 15 10
f 10 15 16
f 10 16 17
f 11 18 19
f 11 19 20
f 12 13 22
f 12 22 21
f 14 23 24
f 14 24 25
f 14 25 26
f 14 26 27
f 14 27 28
f 16 29 30
f 16 30 31
f 16 31 17
f 18 32 33
f 18 33 19
f 21 22 35
f 21 35 34
f 23 36 37
f 23 37 24
f 29 38 30
f 30 38 39
f 32 40 33
f 33 40 38
f 34 35 41
f 35 42 43
f 35 43 41
f 36 44 37
f 37 44 46
f 37 46 45
f 38 40 47
f 38 47 39
f 42 48 49
f 42 49 50
f 42 50 43
f 45 46 48
f 46 49 48
