v -0.127351 -0.608251 0.126178
v -0.127351 -0.594511 0.127845
v 7.2114e-05 -0.594511 0.180353
v 7.2114e-05 -0.602293 0.179578
v 7.2114e-05 -0.608251 0.178991
v -0.127351 -0.608251 0.208744
v -0.127351 -0.582149 0.13064
v 7.2114e-05 -0.578313 0.183453
v 7.2114e-05 -0.58658 0.181856
v 7.2114e-05 -0.608251 0.24472
v -0.119181 -0.608251 0.214122
v -0.127351 -0.512779 0.296523
v -0.127351 -0.579058 0.131462
v 7.2114e-05 -0.564592 0.187515
v -0.00772345 -0.608251 0.24472
v 7.2114e-05 -0.511494 0.32583
v -0.118545 -0.608251 0.21445
v -0.0969046 -0.511476 0.310566
v -0.107207 -0.508962 0.308452
v -0.127351 -0.510396 0.298472
v -0.111635 -0.608251 0.217597
v -0.127351 -0.571518 0.134397
v 7.2114e-05 -0.548171 0.193597
v 7.2114e-05 -0.556345 0.190568
v -0.0231649 -0.608251 0.242771
v -0.00772345 -0.511494 0.32583
v -0.0231649 -0.510321 0.324867
v 7.2114e-05 -0.506635 0.328436
v -0.0849182 -0.513487 0.312445
v -0.084569 -0.500957 0.320523
v -0.101382 -0.503042 0.31383
v -0.100372 -0.608251 0.222247
v -0.0841449 -0.608251 0.228939
v -0.0833965 -0.608251 0.229245
v -0.0704621 -0.608251 0.234387
v -0.115814 -0.497736 0.310589
v -0.127351 -0.499989 0.304625
v -0.127351 -0.501385 0.303897
v -0.127351 -0.568297 0.135689
v 7.2114e-05 -0.53687 0.198834
v -0.127351 -0.561762 0.138413
v -0.0523515 -0.608251 0.238966
v -0.00772345 -0.501869 0.330973
v -0.0313471 -0.50967 0.324327
v 7.2114e-05 -0.501869 0.330973
v -0.0694768 -0.514976 0.313971
v -0.0540478 -0.506766 0.32273
v -0.0694768 -0.504587 0.321697
v -0.0540478 -0.608251 0.238732
v -0.0791931 -0.495222 0.324726
v -0.0938488 -0.418052 0.354596
v -0.101208 -0.418052 0.351802
v -0.123809 -0.494403 0.308946
v -0.127351 -0.497959 0.305658
v -0.127351 -0.547408 0.145645
v 7.2114e-05 -0.529163 0.202991
v -0.0540478 -0.499039 0.326464
v -0.0373341 -0.502707 0.326887
v 7.2114e-05 -0.418331 0.365962
v -0.00772345 -0.418052 0.366056
v -0.0416373 -0.508404 0.323599
v -0.0694768 -0.496879 0.325454
v -0.087999 -0.418052 0.355653
v -0.108692 -0.418052 0.348843
v -0.125006 -0.418052 0.342291
v -0.126565 -0.419579 0.340976
v -0.127351 -0.418108 0.341305
v -0.127351 -0.536628 0.152174
v 7.2114e-05 -0.522125 0.207476
v 7.2114e-05 -0.418052 0.366056
v -0.0150575 -0.418052 0.365117
v -0.0849182 -0.418052 0.356076
v -0.127314 -0.418052 0.341328
v -0.127351 -0.418052 0.330409
v -0.127351 -0.529386 0.157058
v 7.2114e-05 -0.515851 0.211491
v 7.2114e-05 -0.418052 0.294104
v -0.127351 -0.418052 0.2636
v -0.127351 -0.529181 0.157199
v 7.2114e-05 -0.503023 0.221072
v 7.2114e-05 -0.492299 0.229926
v -0.127351 -0.513058 0.169903
v -0.127351 -0.511327 0.171406
v -0.127351 -0.519407 0.164549
v 7.2114e-05 -0.498071 0.225158
f 1 2 3
f 1 3 4
f 1 4 5
f 1 5 10
f 1 10 15
f 1 15 25
f 1 25 42
f 1 42 49
f 1 49 35
f 1 35 34
f 1 34 33
f 1 33 32
f 1 32 21
f 1 21 17
f 1 17 11
f 1 11 6
f 1 6 12
f 1 12 20
f 1 20 38
f 1 38 37
f 1 37 54
f 1 54 67
f 1 67 74
f 1 74 78
f 1 78 83
f 1 83 82
f 1 82 84
f 1 84 79
f 1 79 75
f 1 75 68
f 1 68 55
f 1 55 41
f 1 41 39
f 1 39 22
f 1 22 13
f 1 13 7
f 1 7 2
f 2 7 8
f 2 8 9
f 2 9 3
f 3 9 8
f 3 8 14
f 3 14 24
f 3 24 23
f 3 23 40
f 3 40 56
f 3 56 69
f 3 69 76
f 3 76 80
f 3 80 85
f 3 85 81
f 3 81 77
f 3 77 70
f 3 70 59
f 3 59 45
f 3 45 28
f 3 28 16
f 3 16 10
f 3 10 5
f 3 5 4
f 6 11 12
f 7 13 8
f 8 13 14
f 10 16 26
f 10 26 15
f 11 17 12
f 12 18 19
f 12 19 20
f 12 17 21
f 12 21 18
f 13 22 23
f 13 23 24
f 13 24 14
f 15 26 27
f 15 27 25
f 16 28 26
f 18 29 30
f 18 30 31
f 18 31 19
f 18 21 32
f 18 32 33
f 18 33 34
f 18 34 35
f 18 35 29
f 19 31 36
f 19 36 37
f 19 37 38
f 19 38 20
f 22 39 23
f 23 39 41
f 23 41 40
f 25 27 42
f 26 28 43
f 26 43 27
f 27 43 44
f 27 44 42
f 28 45 43
f 29 46 47
f 29 47 48
f 29 48 30
f 29 35 49
f 29 49 46
f 30 48 50
f 30 50 51
f 30 51 31
f 31 51 52
f 31 52 36
f 36 53 54
f 36 54 37
f 36 52 53
f 40 41 55
f 40 55 56
f 42 44 49
f 43 57 58
f 43 58 44
f 43 45 59
f 43 59 60
f 43 60 57
f 44 58 61
f 44 61 46
f 44 46 49
f 46 61 47
f 47 61 62
f 47 62 48
f 48 62 50
f 50 62 63
f 50 63 51
f 51 63 72
f 51 72 71
f 51 71 60
f 51 60 70
f 51 70 77
f 51 77 78
f 51 78 74
f 51 74 73
f 51 73 65
f 51 65 64
f 51 64 52
f 52 64 53
f 53 64 65
f 53 65 66
f 53 66 67
f 53 67 54
f 55 68 56
f 56 68 69
f 57 62 61
f 57 61 58
f 57 60 62
f 59 70 60
f 60 71 62
f 62 71 72
f 62 72 63
f 65 73 67
f 65 67 66
f 67 73 74
f 68 75 76
f 68 76 69
f 75 79 76
f 76 79 80
f 77 81 82
f 77 82 83
f 77 83 78
f 79 84 80
f 80 84 85
f 81 85 84
f 81 84 82
