v -0.270206 0.779562 0.0231744
v -0.270206 0.779395 -7.32702e-05
v -0.277857 0.778977 -7.32702e-05
v -0.285672 0.778543 -7.32702e-05
v -0.285672 0.778543 0.00772668
v -0.270206 0.779546 0.0386084
v -0.239329 0.779495 0.131253
v -0.22389 0.778727 0.141197
v -0.262419 0.778376 -7.32702e-05
v -0.294662 0.776052 -7.32702e-05
v -0.302258 0.773946 0.00638519
v -0.285672 0.778259 0.0231744
v -0.270206 0.779245 0.06949
v -0.270206 0.779412 0.0540561
v -0.254768 0.779495 0.100372
v -0.239329 0.779362 0.141197
v -0.208178 0.77657 0.141197
v -0.254768 0.777373 -7.32702e-05
v -0.302258 0.773946 -7.32702e-05
v -0.308844 0.772108 0.000341621
v -0.299663 0.77408 0.0231744
v -0.285672 0.777222 0.0540561
v -0.285672 0.777807 0.0386084
v -0.270206 0.77886 0.084924
v -0.254768 0.779094 0.115806
v -0.254768 0.778292 0.131253
v -0.254768 0.777172 0.141197
v -0.195336 0.773863 0.141197
v -0.248729 0.775785 -7.32702e-05
v -0.308844 0.772108 -7.32702e-05
v -0.308188 0.771874 0.0106309
v -0.298624 0.773762 0.0386084
v -0.315019 0.767795 0.00638519
v -0.297586 0.773428 0.0540561
v -0.296438 0.77311 0.06949
v -0.285672 0.776537 0.06949
v -0.270206 0.777774 0.100372
v -0.270206 0.776052 0.115806
v -0.270971 0.77398 0.130894
v -0.26802 0.773512 0.141197
v -0.188778 0.771188 0.141197
v -0.242799 0.774214 -7.32702e-05
v -0.315019 0.767795 -7.32702e-05
v -0.307368 0.771589 0.0231744
v -0.320375 0.763934 -7.32702e-05
v -0.326988 0.759154 0.00772668
v -0.316549 0.765455 0.0231744
v -0.305319 0.77072 0.0540561
v -0.306357 0.771188 0.0386084
v -0.295017 0.772659 0.0821857
v -0.304171 0.770085 0.06949
v -0.287175 0.774615 0.0863761
v -0.293323 0.772074 0.0924888
v -0.276628 0.771656 0.135803
v -0.271572 0.772459 0.141197
v -0.187958 0.770804 0.141197
v -0.238974 0.772141 -7.32702e-05
v -0.177738 0.765522 0.141197
v -0.165251 0.758903 0.141197
v -0.326988 0.759154 -7.32702e-05
v -0.330895 0.755426 -7.32702e-05
v -0.334721 0.751766 0.00772668
v -0.326004 0.758234 0.0231744
v -0.315211 0.762363 0.06949
v -0.316549 0.764118 0.0386084
v -0.313708 0.760992 0.084924
v -0.300537 0.769366 0.0863761
v -0.291684 0.771489 0.100372
v -0.275398 0.771155 0.141197
v -0.235066 0.770018 -7.32702e-05
v -0.159622 0.754607 0.141197
v -0.215365 0.757399 -7.32702e-05
v -0.219573 0.76019 -7.32702e-05
v -0.22389 0.763048 -7.32702e-05
v -0.229437 0.766508 -7.32702e-05
v -0.334721 0.751766 -7.32702e-05
v -0.341743 0.74406 0.00772668
v -0.322944 0.755426 0.06949
v -0.323736 0.756145 0.0576518
v -0.321441 0.754156 0.084924
v -0.311112 0.758602 0.100372
v -0.301111 0.765739 0.100372
v -0.288377 0.769885 0.115806
v -0.285918 0.764469 0.141197
v -0.15801 0.753136 0.141197
v -0.21225 0.753203 -7.32702e-05
v -0.110846 0.707556 0.141197
v -0.103305 0.699884 0.141197
v -0.0956811 0.690624 0.141197
v -0.0895876 0.682701 0.141197
v -0.341743 0.74406 -7.32702e-05
v -0.341743 0.738244 0.00772668
v -0.34076 0.74274 0.0231744
v -0.329748 0.747704 0.06949
v -0.328545 0.746434 0.084924
v -0.326332 0.743793 0.100372
v -0.318817 0.751515 0.100372
v -0.30715 0.755209 0.119484
v -0.294935 0.757967 0.141197
v -0.296985 0.759739 0.131253
v -0.30163 0.761293 0.114921
v -0.209107 0.748924 -7.32702e-05
v -0.0820185 0.672371 0.141197
v -0.341743 0.738244 -7.32702e-05
v -0.221486 0.608806 0.00772668
v -0.219491 0.608806 0.0231744
v -0.217578 0.608806 0.0374882
v -0.34076 0.739497 0.0231744
v -0.340076 0.741754 0.0336435
v -0.32461 0.741704 0.108918
v -0.310183 0.742991 0.141197
v -0.309691 0.743526 0.141197
v -0.304718 0.752936 0.131253
v -0.295619 0.757349 0.141197
v -0.081554 0.671736 0.141197
v -0.183558 0.712603 -7.32702e-05
v -0.221486 0.608806 -7.32702e-05
v -0.217414 0.608806 0.0385807
v -0.340076 0.74055 0.0336435
v -0.216239 0.608806 0.04627
v -0.328545 0.736589 0.084924
v -0.32461 0.740617 0.108918
v -0.310183 0.739313 0.141197
v -0.302559 0.75073 0.141197
v -0.07281 0.65783 0.141197
v -0.177164 0.702591 -7.32702e-05
v -0.180389 0.707656 -7.32702e-05
v -0.155468 0.608806 -7.32702e-05
v -0.326332 0.738678 0.100372
v -0.2149 0.608806 0.0535029
v -0.210009 0.608806 0.06949
v -0.197658 0.608806 0.0989888
v -0.190171 0.608806 0.11351
v -0.189597 0.608806 0.114492
v -0.184679 0.608806 0.1216
v -0.176536 0.608806 0.132484
v -0.169623 0.608806 0.141197
v -0.0717443 0.655088 0.141197
v -0.163037 0.671736 -7.32702e-05
v -0.16801 0.683971 -7.32702e-05
v -0.171208 0.691693 -7.32702e-05
v -0.174213 0.697193 -7.32702e-05
v -0.155359 0.609742 -7.32702e-05
v -0.0637654 0.609959 0.141197
v -0.0641479 0.608806 0.141197
v -0.0666345 0.640848 0.141197
v -0.160879 0.664081 -7.32702e-05
v -0.0665799 0.64068 0.141197
v -0.155222 0.618901 -7.32702e-05
v -0.0626177 0.625403 0.141197
v -0.062809 0.622595 0.141197
v -0.158693 0.656292 -7.32702e-05
v -0.15514 0.625403 -7.32702e-05
v -0.155468 0.630652 -7.32702e-05
v -0.156042 0.639343 -7.32702e-05
v -0.15749 0.648637 -7.32702e-05
f 1 2 3
f 1 3 4
f 1 4 5
f 1 5 6
f 1 6 7
f 1 7 2
f 2 7 8
f 2 8 9
f 2 9 18
f 2 18 29
f 2 29 42
f 2 42 57
f 2 57 70
f 2 70 75
f 2 75 74
f 2 74 73
f 2 73 72
f 2 72 86
f 2 86 102
f 2 102 116
f 2 116 127
f 2 127 126
f 2 126 142
f 2 142 141
f 2 141 140
f 2 140 139
f 2 139 147
f 2 147 152
f 2 152 156
f 2 156 155
f 2 155 154
f 2 154 153
f 2 153 149
f 2 149 143
f 2 143 128
f 2 128 117
f 2 117 104
f 2 104 91
f 2 91 76
f 2 76 61
f 2 61 60
f 2 60 45
f 2 45 43
f 2 43 30
f 2 30 19
f 2 19 10
f 2 10 4
f 2 4 3
f 4 10 5
f 5 10 11
f 5 11 12
f 5 12 13
f 5 13 14
f 5 14 6
f 6 14 15
f 6 15 7
f 7 15 16
f 7 16 8
f 8 17 18
f 8 18 9
f 8 16 27
f 8 27 40
f 8 40 55
f 8 55 69
f 8 69 84
f 8 84 99
f 8 99 114
f 8 114 124
f 8 124 112
f 8 112 111
f 8 111 123
f 8 123 137
f 8 137 145
f 8 145 144
f 8 144 151
f 8 151 150
f 8 150 148
f 8 148 146
f 8 146 138
f 8 138 125
f 8 125 115
f 8 115 103
f 8 103 90
f 8 90 89
f 8 89 88
f 8 88 87
f 8 87 85
f 8 85 71
f 8 71 59
f 8 59 58
f 8 58 56
f 8 56 41
f 8 41 28
f 8 28 17
f 10 19 11
f 11 19 30
f 11 30 20
f 11 20 21
f 11 21 22
f 11 22 23
f 11 23 12
f 12 23 24
f 12 24 13
f 13 24 15
f 13 15 14
f 15 25 16
f 15 24 25
f 16 25 26
f 16 26 27
f 17 28 18
f 18 28 29
f 20 31 32
f 20 32 21
f 20 30 43
f 20 43 33
f 20 33 31
f 21 32 22
f 22 32 34
f 22 34 35
f 22 35 36
f 22 36 24
f 22 24 23
f 24 36 37
f 24 37 26
f 24 26 25
f 26 37 38
f 26 38 27
f 27 38 39
f 27 39 40
f 28 41 42
f 28 42 29
f 31 33 44
f 31 44 34
f 31 34 32
f 33 43 45
f 33 45 46
f 33 46 47
f 33 47 48
f 33 48 49
f 33 49 44
f 34 44 35
f 35 50 36
f 35 44 49
f 35 49 48
f 35 48 51
f 35 51 50
f 36 50 52
f 36 52 37
f 37 52 38
f 38 52 53
f 38 53 39
f 39 54 55
f 39 55 40
f 39 53 54
f 41 56 42
f 42 56 58
f 42 58 59
f 42 59 57
f 45 60 46
f 46 60 61
f 46 61 62
f 46 62 63
f 46 63 64
f 46 64 65
f 46 65 47
f 47 65 48
f 48 65 64
f 48 64 51
f 50 53 52
f 50 51 53
f 51 64 66
f 51 66 67
f 51 67 53
f 53 67 68
f 53 68 54
f 54 69 55
f 54 68 69
f 57 59 70
f 59 71 72
f 59 72 73
f 59 73 74
f 59 74 75
f 59 75 70
f 61 76 62
f 62 76 91
f 62 91 77
f 62 77 78
f 62 78 79
f 62 79 63
f 63 79 64
f 64 79 78
f 64 78 80
f 64 80 66
f 66 80 81
f 66 81 82
f 66 82 67
f 67 82 68
f 68 82 83
f 68 83 69
f 69 83 84
f 71 85 72
f 72 85 87
f 72 87 88
f 72 88 89
f 72 89 90
f 72 90 86
f 77 91 104
f 77 104 92
f 77 92 108
f 77 108 93
f 77 93 78
f 78 93 94
f 78 94 95
f 78 95 80
f 80 95 96
f 80 96 97
f 80 97 81
f 81 98 99
f 81 99 100
f 81 100 101
f 81 101 82
f 81 97 98
f 82 84 83
f 82 101 84
f 84 101 100
f 84 100 99
f 86 90 102
f 90 103 102
f 92 105 106
f 92 106 107
f 92 107 108
f 92 104 117
f 92 117 105
f 93 108 119
f 93 119 109
f 93 109 94
f 94 109 95
f 95 109 96
f 96 110 111
f 96 111 112
f 96 112 113
f 96 113 97
f 96 109 110
f 97 113 98
f 98 113 99
f 99 113 114
f 102 103 115
f 102 115 116
f 105 117 128
f 105 128 145
f 105 145 137
f 105 137 136
f 105 136 135
f 105 135 134
f 105 134 133
f 105 133 132
f 105 132 131
f 105 131 130
f 105 130 120
f 105 120 118
f 105 118 107
f 105 107 106
f 107 118 108
f 108 118 120
f 108 120 121
f 108 121 119
f 109 119 122
f 109 122 110
f 110 122 123
f 110 123 111
f 112 124 113
f 113 124 114
f 115 125 126
f 115 126 127
f 115 127 116
f 119 121 129
f 119 129 122
f 120 130 121
f 121 130 129
f 122 129 123
f 123 129 131
f 123 131 132
f 123 132 133
f 123 133 134
f 123 134 135
f 123 135 136
f 123 136 137
f 125 138 139
f 125 139 140
f 125 140 141
f 125 141 142
f 125 142 126
f 128 143 144
f 128 144 145
f 129 130 131
f 138 146 139
f 139 146 148
f 139 148 147
f 143 149 150
f 143 150 151
f 143 151 144
f 147 148 152
f 148 150 152
f 149 153 150
f 150 153 154
f 150 154 155
f 150 155 156
f 150 156 152
