v 0.140212 -0.417837 0.257898
v 0.167067 -0.417837 0.240339
v 0.140212 -0.417837 0.335995
v 0.140212 -0.0222776 0.361771
v 0.304475 -0.0223164 0.240339
v 0.27444 -0.417837 0.240339
v 0.167814 -0.417837 0.32472
v 0.140212 -0.413151 0.338209
v 0.140212 -0.0222776 0.43197
v 0.304065 -0.0222776 0.240883
v 0.316638 -0.0222776 0.240339
v 0.275909 -0.415087 0.240339
v 0.268178 -0.417837 0.248593
v 0.169283 -0.417837 0.32412
v 0.169885 -0.416946 0.324289
v 0.162154 -0.409201 0.330836
v 0.140212 -0.408504 0.340216
v 0.146715 -0.0222776 0.429287
v 0.140212 -0.0270019 0.431763
v 0.386244 -0.0222776 0.240339
v 0.27904 -0.409201 0.240339
v 0.265769 -0.417837 0.251708
v 0.275909 -0.409201 0.244429
v 0.26772 -0.408969 0.255197
v 0.170776 -0.417837 0.323426
v 0.180194 -0.41199 0.321907
v 0.185469 -0.401689 0.324383
v 0.176051 -0.407769 0.325696
v 0.140212 -0.380198 0.352429
v 0.140212 -0.36254 0.360045
v 0.207868 -0.0222776 0.403962
v 0.140212 -0.0386189 0.431238
v 0.140212 -0.049384 0.43075
v 0.383956 -0.0654929 0.240339
v 0.383571 -0.0222776 0.243847
v 0.383547 -0.0231683 0.243829
v 0.382728 -0.0540695 0.242759
v 0.291396 -0.3783 0.244485
v 0.30144 -0.364631 0.240339
v 0.260615 -0.413964 0.2606
v 0.259242 -0.417837 0.259249
v 0.274633 -0.395222 0.255234
v 0.263626 -0.403664 0.263639
v 0.279113 -0.372879 0.264014
v 0.277643 -0.354679 0.277652
v 0.178966 -0.417837 0.319487
v 0.190045 -0.417837 0.312958
v 0.192405 -0.408233 0.316129
v 0.199294 -0.383915 0.32322
v 0.202641 -0.342713 0.34106
v 0.198908 -0.353014 0.338659
v 0.193465 -0.347709 0.343724
v 0.188624 -0.358861 0.341323
v 0.183831 -0.369161 0.339109
v 0.177593 -0.393751 0.331099
v 0.161648 -0.362346 0.351247
v 0.156181 -0.356809 0.35588
v 0.166489 -0.351813 0.353742
v 0.140212 -0.348019 0.366198
v 0.215021 -0.0222776 0.400998
v 0.140212 -0.0695201 0.429831
v 0.178339 -0.0695201 0.414036
v 0.382319 -0.0695201 0.242215
v 0.38374 -0.0695201 0.240339
v 0.370276 -0.0222776 0.261181
v 0.337062 -0.0222776 0.30446
v 0.342602 -0.0231683 0.297181
v 0.359823 -0.0684746 0.271612
v 0.293347 -0.370517 0.247036
v 0.309942 -0.347438 0.240339
v 0.306811 -0.347438 0.244448
v 0.291974 -0.352278 0.260694
v 0.295924 -0.360216 0.250394
v 0.29012 -0.36436 0.255253
v 0.255244 -0.417837 0.262907
v 0.255196 -0.408969 0.267747
v 0.281617 -0.36285 0.267278
v 0.286097 -0.348328 0.270805
v 0.280221 -0.344379 0.28026
v 0.270779 -0.348328 0.286132
v 0.260687 -0.352278 0.292004
v 0.267263 -0.36285 0.281648
v 0.260663 -0.383179 0.276546
v 0.194934 -0.417837 0.309394
v 0.199342 -0.414739 0.307762
v 0.202738 -0.373615 0.325809
v 0.208061 -0.347709 0.334607
v 0.246959 -0.339422 0.308737
v 0.229954 -0.336324 0.322976
v 0.213239 -0.331987 0.33744
v 0.205532 -0.331987 0.343105
v 0.200426 -0.308405 0.354999
v 0.191923 -0.33098 0.350853
v 0.177135 -0.346973 0.351341
v 0.181952 -0.335472 0.353761
v 0.178243 -0.363547 0.343837
v 0.171668 -0.341513 0.355899
v 0.140212 -0.338222 0.370157
v 0.223837 -0.0222776 0.39672
v 0.204689 -0.0695201 0.403117
v 0.21242 -0.0695201 0.399909
v 0.223909 -0.0540695 0.395126
v 0.170078 -0.0780005 0.417
v 0.140212 -0.084932 0.428593
v 0.354933 -0.0729665 0.277671
v 0.381596 -0.084932 0.241277
v 0.382294 -0.084932 0.240339
v 0.336701 -0.0222776 0.304929
v 0.336267 -0.0386189 0.304366
v 0.341783 -0.0540695 0.296112
v 0.335448 -0.0695201 0.303297
v 0.316132 -0.333304 0.240339
v 0.308714 -0.339422 0.246943
v 0.294479 -0.342016 0.263958
v 0.251703 -0.417837 0.265796
v 0.255244 -0.395222 0.274651
v 0.24443 -0.409201 0.275926
v 0.216346 -0.417101 0.293504
v 0.233832 -0.417837 0.279641
v 0.274296 -0.331987 0.290597
v 0.263939 -0.342016 0.294499
v 0.290577 -0.331987 0.274313
v 0.292191 -0.290979 0.29221
v 0.218947 -0.347438 0.32639
v 0.216394 -0.355453 0.324439
v 0.250403 -0.360216 0.295943
v 0.255244 -0.36436 0.290146
v 0.255244 -0.378145 0.283243
v 0.236722 -0.409201 0.281855
v 0.197824 -0.417837 0.307218
v 0.216081 -0.417837 0.293317
v 0.226655 -0.409201 0.289584
v 0.230002 -0.398978 0.292154
v 0.247031 -0.370517 0.293373
v 0.208109 -0.361494 0.327741
v 0.254714 -0.333381 0.305117
v 0.249512 -0.32916 0.310726
v 0.223499 -0.317272 0.335226
v 0.216515 -0.278549 0.355393
v 0.189467 -0.316536 0.356875
v 0.218586 -0.270223 0.356987
v 0.20847 -0.270223 0.363122
v 0.208494 -0.255857 0.367905
v 0.200257 -0.261704 0.370382
v 0.196933 -0.270223 0.369012
v 0.15712 -0.312199 0.371714
v 0.140212 -0.324939 0.374528
v 0.22468 -0.0222776 0.396233
v 0.210927 -0.084932 0.39929
v 0.223909 -0.084932 0.393025
v 0.223909 -0.0695201 0.394357
v 0.234506 -0.0695201 0.388203
v 0.162973 -0.0838478 0.419288
v 0.203195 -0.084932 0.402498
v 0.140212 -0.100383 0.426642
v 0.168657 -0.088301 0.416418
v 0.326994 -0.084932 0.312377
v 0.334726 -0.084932 0.302359
v 0.340001 -0.0944192 0.293767
v 0.379934 -0.10108 0.240339
v 0.381548 -0.0900822 0.240339
v 0.329451 -0.0222776 0.314328
v 0.328126 -0.0540695 0.31384
v 0.327717 -0.0695201 0.313296
v 0.317697 -0.329238 0.240339
v 0.2768 -0.321958 0.292529
v 0.294455 -0.280679 0.294461
v 0.298911 -0.316691 0.271105
v 0.292504 -0.321958 0.276808
v 0.275789 -0.285674 0.307199
v 0.250306 -0.285674 0.326765
v 0.226317 -0.270223 0.351059
v 0.263361 -0.264182 0.324946
v 0.246381 -0.260775 0.339165
v 0.222078 -0.254773 0.35967
v 0.213649 -0.24211 0.369275
v 0.203364 -0.251442 0.37177
v 0.194284 -0.255857 0.374434
v 0.167236 -0.258451 0.384939
v 0.156927 -0.265654 0.387078
v 0.140212 -0.269914 0.392612
v 0.152857 -0.275954 0.385389
v 0.185878 -0.278626 0.370832
v 0.236144 -0.0222776 0.389442
v 0.235036 -0.0540695 0.388616
v 0.201678 -0.095426 0.40186
v 0.207483 -0.100499 0.398746
v 0.215816 -0.168768 0.385877
v 0.217213 -0.158468 0.386609
v 0.220609 -0.131284 0.388485
v 0.225282 -0.101235 0.390061
v 0.232483 -0.0966652 0.386665
v 0.233567 -0.084932 0.387491
v 0.277643 -0.0729665 0.354924
v 0.242214 -0.0695201 0.382313
v 0.242768 -0.0540695 0.382726
v 0.236602 -0.0222776 0.389104
v 0.140212 -0.115291 0.424597
v 0.194115 -0.100499 0.404299
v 0.320058 -0.084932 0.320087
v 0.325862 -0.100383 0.310913
v 0.320997 -0.0695201 0.321025
v 0.334485 -0.099918 0.299808
v 0.323406 -0.131284 0.307724
v 0.344215 -0.115833 0.283824
v 0.365579 -0.115833 0.255985
v 0.375189 -0.130432 0.240414
v 0.377574 -0.115833 0.240339
v 0.328969 -0.0222776 0.314928
v 0.322635 -0.0222776 0.322657
v 0.328512 -0.301008 0.240339
v 0.286483 -0.285751 0.298888
v 0.285568 -0.271579 0.30506
v 0.280365 -0.267319 0.310707
v 0.298863 -0.285751 0.286507
v 0.305053 -0.271579 0.285588
v 0.306883 -0.254773 0.290878
v 0.296454 -0.270223 0.296487
v 0.290866 -0.254773 0.306899
v 0.337423 -0.270223 0.244091
v 0.307172 -0.285674 0.275814
v 0.294479 -0.311657 0.279359
v 0.254088 -0.255276 0.334982
v 0.24048 -0.255276 0.345412
v 0.248476 -0.250474 0.340779
v 0.231472 -0.246563 0.355017
v 0.223861 -0.239206 0.36284
v 0.216274 -0.23181 0.370644
v 0.208494 -0.237928 0.372745
v 0.21348 -0.177597 0.384864
v 0.193031 -0.239322 0.379086
v 0.17056 -0.248151 0.386327
v 0.140212 -0.254773 0.397114
v 0.140212 -0.260271 0.395482
v 0.190575 -0.115833 0.403661
v 0.195729 -0.131284 0.399403
v 0.20847 -0.146735 0.391993
v 0.20847 -0.115833 0.396233
v 0.223909 -0.177597 0.37858
v 0.222994 -0.163037 0.382238
v 0.226414 -0.146735 0.382669
v 0.228341 -0.131284 0.383907
v 0.231351 -0.106966 0.385858
v 0.209795 -0.163037 0.389179
v 0.175136 -0.162146 0.403661
v 0.140212 -0.162146 0.418125
v 0.140212 -0.166871 0.417431
v 0.140212 -0.170123 0.416943
v 0.140212 -0.171479 0.416681
v 0.205748 -0.177597 0.388091
v 0.237324 -0.146735 0.374959
v 0.238312 -0.101235 0.381469
v 0.299778 -0.099918 0.334513
v 0.293757 -0.0944192 0.339991
v 0.259074 -0.084932 0.367943
v 0.251342 -0.084932 0.373871
v 0.31329 -0.0695201 0.327741
v 0.30327 -0.0695201 0.33547
v 0.302331 -0.084932 0.334738
v 0.31235 -0.084932 0.327028
v 0.243298 -0.0386189 0.383138
v 0.243852 -0.0222776 0.38357
v 0.153242 -0.135389 0.416437
v 0.160926 -0.130664 0.413904
v 0.140212 -0.150994 0.419682
v 0.143632 -0.146735 0.418857
v 0.310881 -0.100383 0.325884
v 0.313193 -0.162146 0.313202
v 0.324923 -0.112232 0.309694
v 0.322153 -0.146735 0.306111
v 0.33581 -0.146735 0.288327
v 0.369023 -0.146735 0.245029
v 0.372612 -0.146735 0.240339
v 0.315361 -0.0222776 0.328623
v 0.314879 -0.0231683 0.328979
v 0.34029 -0.270223 0.240339
v 0.324923 -0.264182 0.263376
v 0.310664 -0.267319 0.280372
v 0.299152 -0.254773 0.299188
v 0.339158 -0.260775 0.246361
v 0.320539 -0.254773 0.273094
v 0.340771 -0.250474 0.248462
v 0.308328 -0.245247 0.292773
v 0.26536 -0.254773 0.326484
v 0.292745 -0.245247 0.308362
v 0.276006 -0.239322 0.322807
v 0.245369 -0.211364 0.353854
v 0.2281 -0.208498 0.367868
v 0.230171 -0.19661 0.369481
v 0.231977 -0.18631 0.370869
v 0.233519 -0.177597 0.372033
v 0.199775 -0.199011 0.385633
v 0.197126 -0.208498 0.384545
v 0.180796 -0.239322 0.38417
v 0.140212 -0.242885 0.400153
v 0.184553 -0.152117 0.401166
v 0.235687 -0.162146 0.373702
v 0.177641 -0.178875 0.399459
v 0.140212 -0.193667 0.411559
v 0.193995 -0.193551 0.389291
v 0.261193 -0.162146 0.354136
v 0.306088 -0.146735 0.322188
v 0.307702 -0.131284 0.323426
v 0.309677 -0.112232 0.324946
v 0.3038 -0.0540695 0.335883
v 0.253895 -0.0231683 0.375822
v 0.261651 -0.0222776 0.369913
v 0.30445 -0.162146 0.320931
v 0.311507 -0.177597 0.311532
v 0.320901 -0.162146 0.304479
v 0.340482 -0.162146 0.278984
v 0.354139 -0.162146 0.261181
v 0.367771 -0.162146 0.243397
v 0.370107 -0.162146 0.240339
v 0.314904 -0.0222776 0.328998
v 0.304908 -0.0222776 0.336708
v 0.345347 -0.255741 0.240339
v 0.308425 -0.199631 0.308437
v 0.34554 -0.25516 0.240339
v 0.334967 -0.255276 0.25409
v 0.34937 -0.242188 0.240339
v 0.342337 -0.239322 0.250526
v 0.35385 -0.211364 0.245367
v 0.321021 -0.208498 0.289171
v 0.320178 -0.178952 0.300595
v 0.314711 -0.1939 0.302434
v 0.302403 -0.1939 0.31474
v 0.300573 -0.178952 0.320199
v 0.293275 -0.184993 0.324195
v 0.248596 -0.193048 0.356312
v 0.259025 -0.177597 0.352466
v 0.278077 -0.17024 0.339803
v 0.140212 -0.234327 0.402142
v 0.295057 -0.174693 0.325583
v 0.309918 -0.18933 0.309938
v 0.325549 -0.174693 0.29508
v 0.339808 -0.17024 0.278084
v 0.367313 -0.175157 0.240339
v 0.351417 -0.234637 0.240339
v 0.347419 -0.208421 0.254784
v 0.362833 -0.192312 0.240339
v 0.356306 -0.193048 0.248593
v 0.336749 -0.193048 0.274088
v 0.324176 -0.184993 0.293279
v 0.285664 -0.177597 0.332018
v 0.366109 -0.177597 0.241221
v 0.366783 -0.177597 0.240339
f 1 2 6
f 1 6 13
f 1 13 22
f 1 22 41
f 1 41 75
f 1 75 115
f 1 115 119
f 1 119 131
f 1 131 130
f 1 130 84
f 1 84 47
f 1 47 46
f 1 46 25
f 1 25 14
f 1 14 7
f 1 7 3
f 1 3 8
f 1 8 17
f 1 17 29
f 1 29 30
f 1 30 59
f 1 59 98
f 1 98 147
f 1 147 181
f 1 181 234
f 1 234 233
f 1 233 295
f 1 295 333
f 1 333 299
f 1 299 249
f 1 249 248
f 1 248 247
f 1 247 246
f 1 246 265
f 1 265 198
f 1 198 155
f 1 155 104
f 1 104 61
f 1 61 33
f 1 33 32
f 1 32 19
f 1 19 9
f 1 9 4
f 1 4 5
f 1 5 2
f 2 5 11
f 2 11 20
f 2 20 34
f 2 34 64
f 2 64 107
f 2 107 161
f 2 161 160
f 2 160 208
f 2 208 273
f 2 273 314
f 2 314 338
f 2 338 347
f 2 347 341
f 2 341 339
f 2 339 321
f 2 321 319
f 2 319 317
f 2 317 276
f 2 276 211
f 2 211 165
f 2 165 112
f 2 112 70
f 2 70 39
f 2 39 21
f 2 21 12
f 2 12 6
f 3 7 8
f 4 9 18
f 4 18 31
f 4 31 60
f 4 60 99
f 4 99 148
f 4 148 184
f 4 184 197
f 4 197 262
f 4 262 307
f 4 307 316
f 4 316 315
f 4 315 274
f 4 274 210
f 4 210 209
f 4 209 162
f 4 162 108
f 4 108 66
f 4 66 65
f 4 65 35
f 4 35 20
f 4 20 11
f 4 11 10
f 4 10 5
f 5 10 11
f 6 12 13
f 7 14 8
f 8 14 15
f 8 15 16
f 8 16 17
f 9 19 18
f 12 21 13
f 13 21 23
f 13 23 24
f 13 24 22
f 14 25 15
f 15 25 26
f 15 26 27
f 15 27 28
f 15 28 16
f 16 29 17
f 16 28 30
f 16 30 29
f 18 19 32
f 18 32 33
f 18 33 31
f 20 35 36
f 20 36 37
f 20 37 34
f 21 38 23
f 21 39 38
f 22 40 41
f 22 24 40
f 23 38 42
f 23 42 24
f 24 43 40
f 24 42 44
f 24 44 45
f 24 45 43
f 25 46 26
f 26 46 27
f 27 46 47
f 27 47 48
f 27 48 49
f 27 49 50
f 27 50 51
f 27 51 52
f 27 52 53
f 27 53 54
f 27 54 28
f 28 54 55
f 28 55 56
f 28 56 30
f 30 56 57
f 30 57 58
f 30 58 59
f 31 33 61
f 31 61 62
f 31 62 60
f 34 37 63
f 34 63 64
f 35 65 36
f 36 65 66
f 36 66 67
f 36 67 68
f 36 68 37
f 37 68 63
f 38 39 69
f 38 69 42
f 39 70 71
f 39 71 72
f 39 72 73
f 39 73 74
f 39 74 69
f 40 75 41
f 40 43 76
f 40 76 75
f 42 69 44
f 43 45 76
f 44 69 74
f 44 74 77
f 44 77 45
f 45 77 72
f 45 72 78
f 45 78 79
f 45 79 80
f 45 80 81
f 45 81 82
f 45 82 83
f 45 83 76
f 47 84 85
f 47 85 48
f 48 85 49
f 49 86 50
f 49 85 86
f 50 87 88
f 50 88 89
f 50 89 90
f 50 90 91
f 50 91 92
f 50 92 93
f 50 93 52
f 50 52 51
f 50 86 87
f 52 94 53
f 52 93 95
f 52 95 94
f 53 94 54
f 54 94 96
f 54 96 56
f 54 56 55
f 56 96 58
f 56 58 57
f 58 94 97
f 58 97 59
f 58 96 94
f 59 97 98
f 60 62 100
f 60 100 101
f 60 101 102
f 60 102 99
f 61 103 62
f 61 104 103
f 62 103 100
f 63 105 106
f 63 106 64
f 63 68 105
f 64 106 107
f 66 108 109
f 66 109 67
f 67 109 111
f 67 111 110
f 67 110 68
f 68 110 111
f 68 111 105
f 70 112 113
f 70 113 71
f 71 113 114
f 71 114 72
f 72 114 78
f 72 77 74
f 72 74 73
f 75 76 115
f 76 83 116
f 76 116 117
f 76 117 118
f 76 118 119
f 76 119 115
f 78 114 79
f 79 120 121
f 79 121 80
f 79 114 122
f 79 122 123
f 79 123 120
f 80 121 81
f 81 121 124
f 81 124 125
f 81 125 126
f 81 126 127
f 81 127 82
f 82 127 128
f 82 128 83
f 83 128 129
f 83 129 116
f 84 130 85
f 85 130 131
f 85 131 118
f 85 118 129
f 85 129 132
f 85 132 133
f 85 133 86
f 86 133 128
f 86 128 134
f 86 134 125
f 86 125 135
f 86 135 87
f 87 125 124
f 87 124 121
f 87 121 88
f 87 135 125
f 88 120 136
f 88 136 89
f 88 121 120
f 89 136 137
f 89 137 138
f 89 138 90
f 90 138 139
f 90 139 91
f 91 139 92
f 92 140 95
f 92 95 93
f 92 139 141
f 92 141 142
f 92 142 143
f 92 143 144
f 92 144 145
f 92 145 140
f 94 95 97
f 95 140 146
f 95 146 98
f 95 98 97
f 98 146 147
f 99 102 148
f 100 103 101
f 101 103 149
f 101 149 150
f 101 150 151
f 101 151 102
f 102 151 152
f 102 152 148
f 103 153 154
f 103 154 149
f 103 104 153
f 104 155 156
f 104 156 154
f 104 154 153
f 105 111 157
f 105 157 158
f 105 158 106
f 106 158 159
f 106 159 160
f 106 160 161
f 106 161 107
f 108 162 109
f 109 162 111
f 111 163 164
f 111 164 157
f 111 162 163
f 112 165 113
f 113 165 122
f 113 122 114
f 116 129 117
f 117 129 118
f 118 131 119
f 120 166 136
f 120 123 167
f 120 167 166
f 122 165 168
f 122 168 169
f 122 169 167
f 122 167 123
f 125 134 126
f 126 134 128
f 126 128 127
f 128 133 129
f 129 133 132
f 136 166 170
f 136 170 171
f 136 171 137
f 137 171 138
f 138 171 139
f 139 171 141
f 140 145 146
f 141 171 172
f 141 172 173
f 141 173 174
f 141 174 175
f 141 175 176
f 141 176 143
f 141 143 142
f 143 176 144
f 144 176 177
f 144 177 178
f 144 178 179
f 144 179 180
f 144 180 145
f 145 180 181
f 145 181 182
f 145 182 183
f 145 183 146
f 146 183 182
f 146 182 181
f 146 181 147
f 148 152 185
f 148 185 184
f 149 154 186
f 149 186 187
f 149 187 188
f 149 188 189
f 149 189 150
f 150 189 190
f 150 190 191
f 150 191 192
f 150 192 193
f 150 193 151
f 151 193 152
f 152 193 194
f 152 194 195
f 152 195 196
f 152 196 197
f 152 197 185
f 154 156 186
f 155 198 199
f 155 199 186
f 155 186 156
f 157 200 201
f 157 201 159
f 157 159 158
f 157 164 202
f 157 202 200
f 159 201 203
f 159 203 204
f 159 204 205
f 159 205 206
f 159 206 160
f 160 206 207
f 160 207 208
f 162 209 163
f 163 209 210
f 163 210 164
f 164 210 202
f 165 211 168
f 166 167 212
f 166 212 213
f 166 213 214
f 166 214 170
f 167 215 216
f 167 216 217
f 167 217 218
f 167 218 219
f 167 219 213
f 167 213 212
f 167 169 215
f 168 211 220
f 168 220 221
f 168 221 216
f 168 216 169
f 169 216 222
f 169 222 215
f 170 214 171
f 171 214 172
f 172 214 173
f 173 219 174
f 173 214 219
f 174 219 223
f 174 223 224
f 174 224 175
f 175 224 225
f 175 225 226
f 175 226 227
f 175 227 228
f 175 228 176
f 176 228 177
f 177 228 229
f 177 229 230
f 177 230 231
f 177 231 232
f 177 232 178
f 178 232 179
f 179 232 233
f 179 233 180
f 180 233 234
f 180 234 181
f 184 185 197
f 186 199 235
f 186 235 236
f 186 236 237
f 186 237 238
f 186 238 187
f 187 238 188
f 188 239 240
f 188 240 241
f 188 241 242
f 188 242 243
f 188 243 189
f 188 238 237
f 188 237 244
f 188 244 245
f 188 245 246
f 188 246 247
f 188 247 248
f 188 248 249
f 188 249 250
f 188 250 230
f 188 230 228
f 188 228 239
f 189 243 192
f 189 192 191
f 189 191 190
f 192 243 251
f 192 251 252
f 192 252 253
f 192 253 254
f 192 254 255
f 192 255 256
f 192 256 193
f 193 256 194
f 194 257 258
f 194 258 195
f 194 256 255
f 194 255 259
f 194 259 260
f 194 260 257
f 195 258 196
f 196 261 197
f 196 258 305
f 196 305 261
f 197 261 262
f 198 263 264
f 198 264 236
f 198 236 235
f 198 235 199
f 198 265 266
f 198 266 263
f 200 260 267
f 200 267 268
f 200 268 201
f 200 202 260
f 201 268 269
f 201 269 203
f 202 257 260
f 202 210 257
f 203 269 204
f 204 270 271
f 204 271 207
f 204 207 206
f 204 206 205
f 204 269 268
f 204 268 270
f 207 271 272
f 207 272 273
f 207 273 208
f 210 274 275
f 210 275 257
f 211 276 220
f 213 219 214
f 215 222 216
f 216 221 220
f 216 220 277
f 216 277 278
f 216 278 217
f 217 279 218
f 217 278 277
f 217 277 280
f 217 280 281
f 217 281 282
f 217 282 283
f 217 283 279
f 218 279 219
f 219 284 223
f 219 279 285
f 219 285 225
f 219 225 284
f 220 276 277
f 223 284 225
f 223 225 224
f 225 285 226
f 226 285 286
f 226 286 287
f 226 287 227
f 227 287 288
f 227 288 228
f 228 288 289
f 228 289 290
f 228 290 291
f 228 291 239
f 228 230 229
f 230 250 292
f 230 292 293
f 230 293 231
f 231 293 294
f 231 294 232
f 232 294 295
f 232 295 233
f 236 264 296
f 236 296 237
f 237 296 244
f 239 291 240
f 240 291 297
f 240 297 241
f 241 297 242
f 242 297 243
f 243 297 251
f 244 296 245
f 245 296 246
f 246 296 265
f 249 298 250
f 249 299 293
f 249 293 298
f 250 298 300
f 250 300 292
f 251 297 301
f 251 301 302
f 251 302 303
f 251 303 252
f 252 303 253
f 253 267 254
f 253 303 304
f 253 304 267
f 254 267 260
f 254 260 259
f 254 259 255
f 257 275 305
f 257 305 258
f 261 305 306
f 261 306 262
f 262 306 307
f 263 266 264
f 264 266 296
f 265 296 266
f 267 304 268
f 268 304 303
f 268 303 302
f 268 302 308
f 268 308 309
f 268 309 310
f 268 310 270
f 270 310 311
f 270 311 271
f 271 311 272
f 272 311 312
f 272 312 313
f 272 313 273
f 273 313 314
f 274 315 275
f 275 315 316
f 275 316 305
f 276 317 280
f 276 280 277
f 279 283 318
f 279 318 285
f 280 317 319
f 280 319 320
f 280 320 281
f 281 320 282
f 282 321 283
f 282 320 319
f 282 319 321
f 283 321 322
f 283 322 323
f 283 323 324
f 283 324 325
f 283 325 326
f 283 326 318
f 285 318 327
f 285 327 328
f 285 328 329
f 285 329 286
f 286 329 287
f 287 289 288
f 287 329 330
f 287 330 289
f 289 330 290
f 290 330 291
f 291 330 331
f 291 331 332
f 291 332 297
f 292 300 293
f 293 300 298
f 293 299 333
f 293 333 294
f 294 333 295
f 297 332 301
f 301 308 302
f 301 332 308
f 305 316 306
f 306 316 307
f 308 332 334
f 308 334 328
f 308 328 309
f 309 328 335
f 309 335 325
f 309 325 310
f 310 325 336
f 310 336 337
f 310 337 311
f 311 337 312
f 312 337 313
f 313 337 314
f 314 337 338
f 318 326 325
f 318 325 335
f 318 335 328
f 318 328 327
f 321 339 322
f 322 339 323
f 323 340 324
f 323 339 341
f 323 341 342
f 323 342 340
f 324 340 342
f 324 342 343
f 324 343 337
f 324 337 344
f 324 344 325
f 325 344 337
f 325 337 336
f 328 334 329
f 329 334 345
f 329 345 331
f 329 331 330
f 331 345 334
f 331 334 332
f 337 343 342
f 337 342 346
f 337 346 347
f 337 347 338
f 341 347 346
f 341 346 342
