v -0.127351 -0.418108 0.341307
v -0.127351 -0.418052 0.330394
v -0.131536 -0.418052 0.339463
v -0.135172 -0.418052 0.338048
v -0.167323 -0.418052 0.32482
v -0.156775 -0.496284 0.294376
v -0.127351 -0.497959 0.305653
v -0.127351 -0.418052 0.26361
v -0.171001 -0.418052 0.323191
v -0.162018 -0.501608 0.288887
v -0.150561 -0.506579 0.291696
v -0.145931 -0.501608 0.296177
v -0.178928 -0.418052 0.319396
v -0.127351 -0.499989 0.304624
v -0.127351 -0.511327 0.17142
v -0.177723 -0.508813 0.122301
v -0.265701 -0.418052 0.122301
v -0.185544 -0.418052 0.315644
v -0.174299 -0.501869 0.281298
v -0.170853 -0.51034 0.278682
v -0.140266 -0.51021 0.293904
v -0.127351 -0.501385 0.303895
v -0.162144 -0.512723 0.281105
v -0.127351 -0.513058 0.169897
v -0.173559 -0.513282 0.122301
v -0.343278 -0.418052 0.122301
v -0.190005 -0.418052 0.312878
v -0.189032 -0.42198 0.311592
v -0.185079 -0.493249 0.277782
v -0.202096 -0.49606 0.263524
v -0.192985 -0.501478 0.267255
v -0.198101 -0.506356 0.260415
v -0.145023 -0.608251 0.195882
v -0.132297 -0.608251 0.205509
v -0.127351 -0.608251 0.208746
v -0.215096 -0.508367 0.246201
v -0.232006 -0.509968 0.231987
v -0.16354 -0.608251 0.181753
v -0.15667 -0.608251 0.187028
v -0.155549 -0.608251 0.187885
v -0.131262 -0.512072 0.295705
v -0.127351 -0.510396 0.298471
v -0.127351 -0.519407 0.164559
v -0.166774 -0.521399 0.122301
v -0.343172 -0.418313 0.122301
v -0.341333 -0.418052 0.12734
v -0.197699 -0.418052 0.307154
v -0.233338 -0.419281 0.279239
v -0.251601 -0.418052 0.265732
v -0.219112 -0.498071 0.249288
v -0.208606 -0.502204 0.254863
v -0.215032 -0.418052 0.293968
v -0.127351 -0.512779 0.29652
v -0.127351 -0.608251 0.126182
v -0.224122 -0.50267 0.242642
v -0.234479 -0.501869 0.234473
v -0.24266 -0.50267 0.224118
v -0.246211 -0.508367 0.215092
v -0.278701 -0.51034 0.170862
v -0.181084 -0.608251 0.164387
v -0.173369 -0.608251 0.173371
v -0.172418 -0.608251 0.174207
v -0.164385 -0.608251 0.181089
v -0.127351 -0.529181 0.157205
v -0.164829 -0.523987 0.122301
v -0.341777 -0.421571 0.122301
v -0.340974 -0.419579 0.126589
v -0.340276 -0.418052 0.129934
v -0.23374 -0.418052 0.279561
v -0.217315 -0.418052 0.29221
v -0.259148 -0.418052 0.25915
v -0.130691 -0.608251 0.122301
v -0.127351 -0.594902 0.12779
v -0.263016 -0.418052 0.254905
v -0.249297 -0.498071 0.219101
v -0.267265 -0.501478 0.192988
v -0.260416 -0.506356 0.198112
v -0.281301 -0.501869 0.174293
v -0.288889 -0.501608 0.162008
v -0.291701 -0.506579 0.150559
v -0.29392 -0.51021 0.140268
v -0.28111 -0.512723 0.162158
v -0.212115 -0.608251 0.122301
v -0.205499 -0.608251 0.132292
v -0.205055 -0.608251 0.132893
v -0.195543 -0.608251 0.145456
v -0.19512 -0.608251 0.146014
v -0.187024 -0.608251 0.156669
v -0.127351 -0.529386 0.157055
v -0.159714 -0.531173 0.122301
v -0.309266 -0.495055 0.122301
v -0.308949 -0.494403 0.123824
v -0.324803 -0.418052 0.167325
v -0.13234 -0.594511 0.122301
v -0.127351 -0.594511 0.127854
v -0.265722 -0.418052 0.251604
v -0.265003 -0.421385 0.250296
v -0.263523 -0.49606 0.2021
v -0.277792 -0.493249 0.185077
v -0.309499 -0.418052 0.194639
v -0.311592 -0.42198 0.189043
v -0.294385 -0.496284 0.156776
v -0.319392 -0.418052 0.178923
v -0.296182 -0.501608 0.145928
v -0.305102 -0.503172 0.122301
v -0.295717 -0.512072 0.131263
v -0.297556 -0.513673 0.122301
v -0.127351 -0.536628 0.152167
v -0.154471 -0.539086 0.122301
v -0.323175 -0.418052 0.170991
v -0.13625 -0.579058 0.122301
v -0.127351 -0.582149 0.130641
v -0.278849 -0.418052 0.234666
v -0.293962 -0.418052 0.215049
v -0.312881 -0.418052 0.190008
v -0.127351 -0.547408 0.145649
v -0.153457 -0.540799 0.122301
v -0.127351 -0.571518 0.134393
v -0.127351 -0.579058 0.131478
v -0.142803 -0.561613 0.122301
v -0.127351 -0.561762 0.138403
v -0.146587 -0.553664 0.122301
v -0.149398 -0.547911 0.122301
v -0.127351 -0.568297 0.13568
f 1 2 3
f 1 3 4
f 1 4 5
f 1 5 6
f 1 6 7
f 1 7 14
f 1 14 22
f 1 22 42
f 1 42 53
f 1 53 35
f 1 35 54
f 1 54 73
f 1 73 95
f 1 95 112
f 1 112 119
f 1 119 118
f 1 118 124
f 1 124 121
f 1 121 116
f 1 116 108
f 1 108 89
f 1 89 64
f 1 64 43
f 1 43 24
f 1 24 15
f 1 15 8
f 1 8 2
f 2 8 17
f 2 17 26
f 2 26 46
f 2 46 68
f 2 68 93
f 2 93 110
f 2 110 103
f 2 103 115
f 2 115 100
f 2 100 114
f 2 114 113
f 2 113 96
f 2 96 74
f 2 74 71
f 2 71 49
f 2 49 69
f 2 69 70
f 2 70 52
f 2 52 47
f 2 47 27
f 2 27 18
f 2 18 13
f 2 13 9
f 2 9 5
f 2 5 4
f 2 4 3
f 5 9 6
f 6 10 11
f 6 11 12
f 6 12 7
f 6 9 13
f 6 13 10
f 7 12 14
f 8 15 16
f 8 16 17
f 10 13 18
f 10 18 19
f 10 19 20
f 10 20 11
f 11 21 22
f 11 22 14
f 11 14 12
f 11 20 23
f 11 23 21
f 15 24 25
f 15 25 16
f 16 25 44
f 16 44 65
f 16 65 90
f 16 90 109
f 16 109 117
f 16 117 123
f 16 123 122
f 16 122 120
f 16 120 111
f 16 111 94
f 16 94 72
f 16 72 83
f 16 83 107
f 16 107 105
f 16 105 91
f 16 91 66
f 16 66 45
f 16 45 26
f 16 26 17
f 18 27 28
f 18 28 19
f 19 28 29
f 19 29 30
f 19 30 31
f 19 31 32
f 19 32 20
f 20 33 34
f 20 34 35
f 20 35 23
f 20 32 36
f 20 36 37
f 20 37 38
f 20 38 39
f 20 39 40
f 20 40 33
f 21 41 42
f 21 42 22
f 21 23 35
f 21 35 41
f 24 43 44
f 24 44 25
f 26 45 46
f 27 47 28
f 28 47 29
f 29 47 30
f 30 48 49
f 30 49 50
f 30 50 51
f 30 51 31
f 30 47 52
f 30 52 48
f 31 51 32
f 32 51 36
f 33 40 39
f 33 39 38
f 33 38 63
f 33 63 62
f 33 62 61
f 33 61 60
f 33 60 88
f 33 88 87
f 33 87 86
f 33 86 85
f 33 85 84
f 33 84 83
f 33 83 72
f 33 72 54
f 33 54 35
f 33 35 34
f 35 53 41
f 36 51 50
f 36 50 55
f 36 55 37
f 37 55 56
f 37 56 57
f 37 57 58
f 37 58 59
f 37 59 60
f 37 60 61
f 37 61 62
f 37 62 63
f 37 63 38
f 41 53 42
f 43 64 65
f 43 65 44
f 45 66 67
f 45 67 46
f 46 67 68
f 48 69 49
f 48 52 70
f 48 70 69
f 49 71 56
f 49 56 55
f 49 55 50
f 54 72 73
f 56 71 74
f 56 74 57
f 57 75 58
f 57 74 75
f 58 75 76
f 58 76 77
f 58 77 59
f 59 78 79
f 59 79 80
f 59 80 81
f 59 81 82
f 59 82 83
f 59 83 84
f 59 84 85
f 59 85 86
f 59 86 87
f 59 87 88
f 59 88 60
f 59 77 78
f 64 89 90
f 64 90 65
f 66 91 67
f 67 92 68
f 67 91 92
f 68 92 93
f 72 94 73
f 73 94 95
f 74 96 97
f 74 97 75
f 75 98 76
f 75 97 98
f 76 98 78
f 76 78 77
f 78 99 100
f 78 100 101
f 78 101 79
f 78 98 99
f 79 102 80
f 79 101 103
f 79 103 102
f 80 102 104
f 80 104 105
f 80 105 81
f 81 105 106
f 81 106 83
f 81 83 82
f 83 106 107
f 89 108 109
f 89 109 90
f 91 105 104
f 91 104 102
f 91 102 92
f 92 102 93
f 93 102 110
f 94 111 112
f 94 112 95
f 96 113 97
f 97 113 98
f 98 100 99
f 98 113 114
f 98 114 100
f 100 115 101
f 101 115 103
f 102 103 110
f 105 107 106
f 108 116 117
f 108 117 109
f 111 118 119
f 111 119 112
f 111 120 118
f 116 121 122
f 116 122 123
f 116 123 117
f 118 120 124
f 120 122 121
f 120 121 124
