v 7.21197e-05 0.356914 -0.402987
v 7.21197e-05 0.356914 -0.326902
v 7.21197e-05 0.393775 -0.397544
v 0.00504491 0.356914 -0.402987
v 7.21197e-05 0.441527 -0.290043
v 0.178953 0.356914 -0.272417
v 0.178953 0.441527 -0.226469
v 7.21197e-05 0.409206 -0.391997
v 0.00772391 0.393775 -0.397544
v 0.00772391 0.378326 -0.399756
v 0.0755745 0.356914 -0.394762
v 7.21197e-05 0.441527 -0.367666
v 0.178953 0.356914 -0.360011
v 0.178953 0.441527 -0.321165
v 7.21197e-05 0.413853 -0.389612
v 0.00772391 0.409206 -0.391997
v 0.0694986 0.403226 -0.386813
v 0.0785337 0.401892 -0.386208
v 0.0231676 0.393775 -0.395557
v 0.0853975 0.356914 -0.393517
v 7.21197e-05 0.426311 -0.380972
v 0.00772391 0.441527 -0.367666
v 0.17806 0.356914 -0.360391
v 0.140256 0.388159 -0.371122
v 0.178953 0.393775 -0.353617
v 0.178953 0.440392 -0.322305
v 0.158729 0.441527 -0.330842
v 7.21197e-05 0.418591 -0.387176
v 0.00772391 0.418591 -0.387176
v 0.0188251 0.417572 -0.386467
v 0.0291209 0.416479 -0.385793
v 0.0236579 0.410482 -0.389353
v 0.0386112 0.407525 -0.388835
v 0.0540549 0.405437 -0.387832
v 0.0694986 0.410946 -0.383132
v 0.0841893 0.407906 -0.382596
v 0.0888294 0.399465 -0.385534
v 0.0841893 0.394106 -0.387452
v 0.0694986 0.393775 -0.389457
v 0.0962186 0.389177 -0.386778
v 0.101086 0.356914 -0.39096
v 0.00772391 0.426311 -0.380972
v 0.0502203 0.441527 -0.363294
v 0.167746 0.356914 -0.364711
v 0.144108 0.356914 -0.374509
v 0.136754 0.356914 -0.377533
v 0.123044 0.356914 -0.382942
v 0.115812 0.393775 -0.37978
v 0.131623 0.393493 -0.373317
v 0.178953 0.394793 -0.353358
v 0.178953 0.435273 -0.327369
v 0.177569 0.42757 -0.335404
v 0.16554 0.430486 -0.33791
v 0.122186 0.431819 -0.354637
v 0.11716 0.441527 -0.347759
v 0.0694986 0.430908 -0.369308
v 0.0849422 0.422012 -0.374405
v 0.0386112 0.415245 -0.385154
v 0.0540549 0.413157 -0.384134
v 0.100368 0.420007 -0.372868
v 0.100368 0.409206 -0.37895
v 0.100964 0.394106 -0.384514
v 0.106532 0.378326 -0.38569
v 0.107425 0.356914 -0.389025
v 0.0805998 0.441527 -0.358266
v 0.0849422 0.429732 -0.368236
v 0.115479 0.409305 -0.373956
v 0.126721 0.40422 -0.371917
v 0.137016 0.398446 -0.369792
v 0.17004 0.401652 -0.355224
v 0.178953 0.407872 -0.348295
v 0.178953 0.427222 -0.335024
v 0.177569 0.41985 -0.342022
v 0.178953 0.425996 -0.336164
v 0.131256 0.422045 -0.35932
v 0.131256 0.429765 -0.352701
v 0.110104 0.418053 -0.371433
v 0.100368 0.427736 -0.366439
v 0.11189 0.433799 -0.35671
v 0.116512 0.441527 -0.348001
v 0.0849422 0.441527 -0.357505
v 0.1204 0.414516 -0.369291
v 0.153423 0.416189 -0.354741
v 0.162126 0.404915 -0.356866
v 0.176133 0.407757 -0.349591
v 0.178953 0.419494 -0.341728
v 0.143127 0.419154 -0.356866
v 0.0916135 0.441527 -0.355881
v 0.100368 0.441527 -0.3536
v 0.10282 0.441527 -0.352771
f 1 2 5
f 1 5 12
f 1 12 21
f 1 21 28
f 1 28 15
f 1 15 8
f 1 8 3
f 1 3 9
f 1 9 4
f 1 4 11
f 1 11 20
f 1 20 41
f 1 41 64
f 1 64 47
f 1 47 46
f 1 46 45
f 1 45 44
f 1 44 23
f 1 23 13
f 1 13 6
f 1 6 2
f 2 6 7
f 2 7 5
f 3 8 16
f 3 16 9
f 4 9 10
f 4 10 11
f 5 7 14
f 5 14 27
f 5 27 55
f 5 55 80
f 5 80 90
f 5 90 89
f 5 89 88
f 5 88 81
f 5 81 65
f 5 65 43
f 5 43 22
f 5 22 12
f 6 13 25
f 6 25 50
f 6 50 71
f 6 71 86
f 6 86 74
f 6 74 72
f 6 72 51
f 6 51 26
f 6 26 14
f 6 14 7
f 8 15 16
f 9 16 17
f 9 17 18
f 9 18 19
f 9 19 20
f 9 20 11
f 9 11 10
f 12 22 42
f 12 42 21
f 13 23 24
f 13 24 25
f 14 26 27
f 15 28 29
f 15 29 16
f 16 29 30
f 16 30 31
f 16 31 32
f 16 32 33
f 16 33 34
f 16 34 17
f 17 34 35
f 17 35 36
f 17 36 18
f 18 36 37
f 18 37 19
f 19 37 38
f 19 38 39
f 19 39 40
f 19 40 20
f 20 40 41
f 21 42 29
f 21 29 28
f 22 43 42
f 23 44 24
f 24 45 46
f 24 46 47
f 24 47 48
f 24 48 49
f 24 49 50
f 24 50 25
f 24 44 45
f 26 51 27
f 27 51 52
f 27 52 53
f 27 53 54
f 27 54 55
f 29 42 43
f 29 43 56
f 29 56 57
f 29 57 30
f 30 57 31
f 31 57 58
f 31 58 34
f 31 34 33
f 31 33 32
f 34 58 59
f 34 59 35
f 35 57 36
f 35 59 57
f 36 57 60
f 36 60 61
f 36 61 37
f 37 61 62
f 37 62 40
f 37 40 38
f 38 40 39
f 40 62 63
f 40 63 41
f 41 63 64
f 43 65 66
f 43 66 56
f 47 64 48
f 48 64 63
f 48 63 62
f 48 62 61
f 48 61 67
f 48 67 68
f 48 68 69
f 48 69 49
f 49 69 50
f 50 70 71
f 50 69 70
f 51 72 52
f 52 73 53
f 52 72 74
f 52 74 73
f 53 73 75
f 53 75 76
f 53 76 54
f 54 76 77
f 54 77 78
f 54 78 79
f 54 79 55
f 55 79 80
f 56 66 57
f 57 66 60
f 57 59 58
f 60 78 77
f 60 77 61
f 60 66 78
f 61 77 67
f 65 81 66
f 66 81 78
f 67 77 82
f 67 82 68
f 68 82 83
f 68 83 84
f 68 84 70
f 68 70 69
f 70 84 85
f 70 85 71
f 71 85 83
f 71 83 86
f 73 74 86
f 73 86 87
f 73 87 75
f 75 87 77
f 75 77 76
f 77 87 86
f 77 86 83
f 77 83 82
f 78 81 88
f 78 88 89
f 78 89 90
f 78 90 80
f 78 80 79
f 83 85 84
