v -0.456563 0.00774893 -7.32645e-05
v -0.456389 -4.49504e-05 -7.32645e-05
v -0.456563 0.00774893 0.00773839
v -0.456235 0.0231882 -7.32645e-05
v -0.456216 -0.00769037 -7.32645e-05
v -0.456216 -0.00769037 0.00773839
v -0.454556 0.00774893 0.0231698
v -0.454247 0.0231882 0.0231698
v -0.456235 0.0231882 0.00773839
v -0.45527 0.0462729 -7.32645e-05
v -0.455888 -0.0154842 -7.32645e-05
v -0.455598 -0.0222389 0.00773839
v -0.455482 -0.0222389 0.00865967
v -0.454209 -0.00769037 0.0231698
v -0.45253 0.00774893 0.0386204
v -0.452221 0.0231882 0.0386204
v -0.451623 0.0849454 0.0231698
v -0.45361 0.0849454 0.00773839
v -0.453958 0.0771515 -7.32645e-05
v -0.455598 -0.0222389 -7.32645e-05
v -0.453475 -0.0222389 0.0240911
v -0.452182 -0.00769037 0.0386204
v -0.450503 0.00774893 0.0540517
v -0.448651 0.00774893 0.0681396
v -0.446123 0.0231882 0.0849337
v -0.449596 0.0849454 0.0386204
v -0.447956 0.0941124 0.0474493
v -0.452491 0.100385 0.00773839
v -0.45361 0.0849454 -7.32645e-05
v -0.390255 -0.0222389 -7.32645e-05
v -0.451449 -0.0222389 0.0395416
v -0.450156 -0.00769037 0.0540517
v -0.448477 -0.00769037 0.0668344
v -0.444405 0.00774893 0.100365
v -0.444077 0.0231882 0.100365
v -0.443498 0.0849454 0.0849337
v -0.440333 0.100385 0.100365
v -0.444405 0.100385 0.0695023
v -0.446625 0.0997166 0.053188
v -0.450503 0.100385 0.0231698
v -0.441453 0.0849454 0.100365
v -0.448091 0.110405 0.0331119
v -0.450716 0.115824 0.00773839
v -0.448111 0.141395 0.00242186
v -0.452491 0.100385 -7.32645e-05
v -0.337147 -0.0222389 0.196005
v -0.326919 0.356914 -7.32645e-05
v -0.259434 0.356914 0.196005
v -0.449442 -0.0222389 0.0548195
v -0.444058 -0.00769037 0.100365
v -0.448168 -0.0222389 0.0644929
v -0.441646 0.00774893 0.115796
v -0.441318 0.0231882 0.115796
v -0.437439 0.100385 0.115796
v -0.438539 0.115824 0.100365
v -0.447416 0.104393 0.0434187
v -0.438597 0.0849454 0.115796
v -0.439967 0.0540668 0.115796
v -0.440584 0.115824 0.0849337
v -0.448747 0.115675 0.0230546
v -0.448111 0.125993 0.0178149
v -0.447454 0.136274 0.0127286
v -0.444772 0.162142 0.00773839
v -0.442765 0.177581 0.00773839
v -0.42503 0.301095 0.00773839
v -0.448111 0.141395 -7.32645e-05
v -0.408858 -0.0222389 0.196005
v -0.402972 0.356914 -7.32645e-05
v -0.351563 0.356914 0.196005
v -0.441279 -0.00769037 0.115796
v -0.44344 -0.0222389 0.100365
v -0.436705 0.00774893 0.131247
v -0.436377 0.0231882 0.131247
v -0.434563 0.0849454 0.128829
v -0.433946 0.100385 0.12737
v -0.433 0.115824 0.125048
v -0.432441 0.124063 0.123685
v -0.435586 0.115824 0.115796
v -0.432441 0.155016 0.108369
v -0.43657 0.131263 0.100365
v -0.431784 0.165296 0.103647
v -0.432923 0.160954 0.0992327
v -0.440642 0.131263 0.0695023
v -0.442784 0.162142 0.0231698
v -0.440777 0.177581 0.0231698
v -0.416983 0.309075 0.0623048
v -0.422058 0.316535 0.00773839
v -0.423563 0.308741 -7.32645e-05
v -0.42503 0.301095 -7.32645e-05
v -0.415111 -0.0222389 0.180919
v -0.408993 -0.0193812 0.196005
v -0.403281 0.356914 0.00860209
v -0.414648 0.335203 -7.32645e-05
v -0.354399 0.356914 0.191821
v -0.364975 0.334535 0.196005
v -0.436339 -0.00769037 0.131247
v -0.440642 -0.0222389 0.115796
v -0.440353 -0.0222389 0.116737
v -0.432942 0.00774893 0.140345
v -0.409843 0.0102727 0.196005
v -0.415458 0.0231882 0.181744
v -0.415111 0.0386275 0.1809
v -0.432074 0.0540668 0.138253
v -0.435065 0.03911 0.132667
v -0.417253 0.0849454 0.170632
v -0.417021 0.0935557 0.170094
v -0.430762 0.100385 0.135086
v -0.416442 0.103836 0.168712
v -0.411251 0.115824 0.17758
v -0.39672 0.166039 0.196005
v -0.416462 0.151082 0.1533
v -0.417832 0.177581 0.14117
v -0.424065 0.162142 0.131247
v -0.421923 0.177581 0.131247
v -0.427365 0.177581 0.115796
v -0.431726 0.134344 0.121228
v -0.412853 0.301095 0.100365
v -0.430916 0.176468 0.0992327
v -0.43246 0.170567 0.0933595
v -0.434698 0.177581 0.0695023
v -0.436686 0.162142 0.0695023
v -0.438751 0.177581 0.0386204
v -0.432479 0.18582 0.0780625
v -0.409862 0.316535 0.100365
v -0.417542 0.311079 0.0540517
v -0.431784 0.180847 0.0883501
v -0.422058 0.316535 -7.32645e-05
v -0.419434 0.318056 0.0246477
v -0.416906 0.324217 0.0307895
v -0.417581 0.325739 0.0204827
v -0.418411 0.327483 0.00773839
v -0.418314 -0.0222389 0.173184
v -0.409534 -0.00746768 0.196005
v -0.418642 -0.00769037 0.17399
v -0.435142 -0.0222389 0.132552
v -0.393516 0.356914 0.0853943
v -0.414648 0.335203 0.00773839
v -0.418411 0.327483 -7.32645e-05
v -0.360382 0.356914 0.178059
v -0.367445 0.332197 0.193587
v -0.366248 0.332197 0.196005
v -0.429739 0.00774893 0.14808
v -0.409553 0.0229655 0.196005
v -0.409881 0.00774893 0.196005
v -0.410788 0.0231882 0.193011
v -0.40745 0.0695061 0.196005
v -0.406736 0.0849454 0.196005
v -0.406388 0.0894361 0.196005
v -0.405539 0.100385 0.196005
v -0.425956 0.100385 0.146698
v -0.405095 0.104059 0.196005
v -0.403744 0.114859 0.196005
v -0.404362 0.116084 0.194124
v -0.39508 0.177767 0.196005
v -0.402664 0.122764 0.196005
v -0.417176 0.186414 0.139577
v -0.403783 0.301095 0.129078
v -0.408936 0.301095 0.115796
v -0.432942 0.176468 0.0838973
v -0.405153 0.3175 0.11691
v -0.403204 0.327854 0.112495
v -0.404574 0.330749 0.100365
v -0.416385 0.322399 0.0386204
v -0.415362 0.318799 0.0540517
v -0.405153 0.333458 0.0862196
v -0.401409 0.339582 0.0922079
v -0.391953 0.356914 0.0954516
v -0.400773 0.338469 0.100365
v -0.374508 0.356914 0.144107
v -0.369355 0.337467 0.182397
v -0.372057 0.327186 0.188827
v -0.368526 0.32778 0.196005
v -0.409399 0.0264171 0.196005
v -0.376013 0.301095 0.196005
v -0.386029 0.308741 0.169825
v -0.402722 0.312972 0.126506
v -0.401178 0.323289 0.122783
v -0.386608 0.325442 0.155795
v -0.398978 0.332605 0.11691
v -0.386531 0.356914 0.115125
v -0.39095 0.356914 0.101075
v -0.386087 0.339768 0.139078
v -0.383925 0.33576 0.149365
v -0.372096 0.319095 0.196005
v -0.388036 0.331157 0.14522
v -0.375492 0.304398 0.196005
v -0.373176 0.315458 0.196005
v -0.373794 0.316757 0.193587
f 1 2 3
f 1 3 9
f 1 9 4
f 1 4 10
f 1 10 19
f 1 19 29
f 1 29 45
f 1 45 66
f 1 66 89
f 1 89 88
f 1 88 127
f 1 127 138
f 1 138 93
f 1 93 68
f 1 68 47
f 1 47 30
f 1 30 20
f 1 20 11
f 1 11 5
f 1 5 2
f 2 5 6
f 2 6 3
f 3 7 8
f 3 8 9
f 3 6 14
f 3 14 7
f 4 9 10
f 5 11 6
f 6 11 12
f 6 12 13
f 6 13 21
f 6 21 14
f 7 15 16
f 7 16 8
f 7 14 22
f 7 22 15
f 8 16 26
f 8 26 17
f 8 17 18
f 8 18 9
f 9 18 19
f 9 19 10
f 11 20 12
f 12 20 30
f 12 30 46
f 12 46 67
f 12 67 90
f 12 90 132
f 12 132 135
f 12 135 98
f 12 98 97
f 12 97 71
f 12 71 51
f 12 51 49
f 12 49 31
f 12 31 21
f 12 21 13
f 14 21 31
f 14 31 22
f 15 23 16
f 15 22 32
f 15 32 23
f 16 23 24
f 16 24 25
f 16 25 36
f 16 36 26
f 17 26 27
f 17 27 18
f 18 27 28
f 18 28 45
f 18 45 29
f 18 29 19
f 22 31 32
f 23 32 33
f 23 33 24
f 24 34 25
f 24 33 34
f 25 34 35
f 25 35 41
f 25 41 36
f 26 36 27
f 27 37 38
f 27 38 39
f 27 39 40
f 27 40 28
f 27 36 41
f 27 41 37
f 28 40 42
f 28 42 43
f 28 43 44
f 28 44 66
f 28 66 45
f 30 47 48
f 30 48 46
f 31 49 33
f 31 33 32
f 33 50 34
f 33 49 51
f 33 51 50
f 34 52 53
f 34 53 35
f 34 50 52
f 35 53 41
f 37 54 55
f 37 55 42
f 37 42 56
f 37 56 38
f 37 41 57
f 37 57 54
f 38 56 39
f 39 56 40
f 40 56 42
f 41 53 58
f 41 58 57
f 42 55 59
f 42 59 60
f 42 60 43
f 43 60 61
f 43 61 62
f 43 62 63
f 43 63 44
f 44 63 64
f 44 64 65
f 44 65 89
f 44 89 66
f 46 48 69
f 46 69 95
f 46 95 141
f 46 141 172
f 46 172 184
f 46 184 187
f 46 187 186
f 46 186 174
f 46 174 154
f 46 154 110
f 46 110 155
f 46 155 152
f 46 152 151
f 46 151 149
f 46 149 148
f 46 148 147
f 46 147 146
f 46 146 173
f 46 173 143
f 46 143 100
f 46 100 144
f 46 144 133
f 46 133 91
f 46 91 67
f 47 68 92
f 47 92 136
f 47 136 167
f 47 167 181
f 47 181 180
f 47 180 169
f 47 169 139
f 47 139 94
f 47 94 69
f 47 69 48
f 50 70 52
f 50 51 71
f 50 71 70
f 52 72 73
f 52 73 53
f 52 70 96
f 52 96 72
f 53 73 74
f 53 74 58
f 54 75 76
f 54 76 77
f 54 77 78
f 54 78 79
f 54 79 55
f 54 57 75
f 55 80 59
f 55 79 81
f 55 81 80
f 57 74 75
f 57 58 74
f 59 80 81
f 59 81 82
f 59 82 83
f 59 83 60
f 60 83 84
f 60 84 61
f 61 84 62
f 62 84 63
f 63 84 85
f 63 85 64
f 64 85 86
f 64 86 65
f 65 86 87
f 65 87 88
f 65 88 89
f 67 91 90
f 68 93 92
f 69 94 95
f 70 71 97
f 70 97 98
f 70 98 96
f 72 99 73
f 72 96 99
f 73 99 100
f 73 100 101
f 73 101 102
f 73 102 103
f 73 103 104
f 73 104 74
f 74 105 106
f 74 106 75
f 74 104 103
f 74 103 105
f 75 107 76
f 75 106 107
f 76 108 109
f 76 109 77
f 76 107 108
f 77 109 110
f 77 110 111
f 77 111 112
f 77 112 113
f 77 113 114
f 77 114 115
f 77 115 116
f 77 116 79
f 77 79 78
f 79 116 115
f 79 115 117
f 79 117 81
f 81 118 119
f 81 119 120
f 81 120 121
f 81 121 82
f 81 117 118
f 82 121 83
f 83 121 84
f 84 121 120
f 84 120 122
f 84 122 85
f 85 122 123
f 85 123 86
f 86 117 124
f 86 124 125
f 86 125 87
f 86 123 126
f 86 126 118
f 86 118 117
f 87 127 88
f 87 125 128
f 87 128 129
f 87 129 130
f 87 130 131
f 87 131 138
f 87 138 127
f 90 91 132
f 91 133 134
f 91 134 135
f 91 135 132
f 92 93 137
f 92 137 136
f 93 138 131
f 93 131 137
f 94 139 140
f 94 140 95
f 95 140 141
f 96 134 133
f 96 133 99
f 96 98 135
f 96 135 134
f 99 142 100
f 99 133 142
f 100 143 101
f 100 142 144
f 101 145 102
f 101 143 145
f 102 145 146
f 102 146 103
f 103 146 105
f 105 147 106
f 105 146 147
f 106 148 149
f 106 149 150
f 106 150 107
f 106 147 148
f 107 150 108
f 108 151 152
f 108 152 109
f 108 150 149
f 108 149 151
f 109 152 153
f 109 153 110
f 110 154 112
f 110 112 111
f 110 153 155
f 112 154 156
f 112 156 114
f 112 114 113
f 114 156 157
f 114 157 158
f 114 158 115
f 115 158 117
f 117 158 124
f 118 126 119
f 119 126 159
f 119 159 120
f 120 126 123
f 120 123 122
f 120 159 126
f 124 158 160
f 124 160 161
f 124 161 162
f 124 162 129
f 124 129 163
f 124 163 164
f 124 164 125
f 125 164 163
f 125 163 129
f 125 129 128
f 129 162 130
f 130 162 165
f 130 165 166
f 130 166 131
f 131 166 137
f 133 144 142
f 136 137 166
f 136 166 168
f 136 168 167
f 139 169 170
f 139 170 140
f 140 170 171
f 140 171 172
f 140 172 141
f 143 173 145
f 145 173 146
f 152 155 153
f 154 174 175
f 154 175 156
f 156 175 157
f 157 175 176
f 157 176 158
f 158 176 160
f 160 177 161
f 160 176 177
f 161 177 178
f 161 178 179
f 161 179 180
f 161 180 181
f 161 181 168
f 161 168 162
f 162 168 166
f 162 166 165
f 167 168 181
f 169 180 182
f 169 182 170
f 170 182 183
f 170 183 171
f 171 178 184
f 171 184 172
f 171 183 185
f 171 185 178
f 174 186 175
f 175 186 187
f 175 187 188
f 175 188 184
f 175 184 176
f 176 184 177
f 177 184 178
f 178 185 179
f 179 185 183
f 179 183 182
f 179 182 180
f 184 188 187
