v -0.146588 -0.719624 0.274151
v -0.146588 -0.608251 0.19467
v -0.147941 -0.719624 0.273534
v -0.146588 -0.719624 0.138972
v -0.156656 -0.608251 0.18702
v -0.168127 -0.719624 0.261159
v -0.162037 -0.719624 0.265508
v -0.160942 -0.719624 0.266233
v -0.146588 -0.608251 0.101902
v -0.146588 -0.686777 0.119806
v -0.203376 -0.719624 -7.32645e-05
v -0.190053 -0.687159 -7.32645e-05
v -0.186412 -0.675799 -7.32645e-05
v -0.185252 -0.671972 -7.32645e-05
v -0.184076 -0.66808 -7.32645e-05
v -0.181546 -0.656284 -7.32645e-05
v -0.163535 -0.608251 0.181732
v -0.203698 -0.719624 0.233834
v -0.146588 -0.608534 0.101848
v -0.178808 -0.609962 -7.32645e-05
v -0.178985 -0.608251 -7.32645e-05
v -0.146588 -0.672092 0.112424
v -0.311152 -0.719624 -7.32645e-05
v -0.1795 -0.640847 -7.32645e-05
v -0.164389 -0.608251 0.181061
v -0.212172 -0.719624 0.227284
v -0.207355 -0.719624 0.231015
v -0.146588 -0.609962 0.101607
v -0.178598 -0.617605 -7.32645e-05
v -0.244714 -0.608251 -7.32645e-05
v -0.146588 -0.664701 0.109525
v -0.311152 -0.719624 0.00773795
v -0.178937 -0.633053 -7.32645e-05
v -0.146588 -0.647203 0.104157
v -0.146588 -0.656284 0.10625
v -0.172428 -0.608251 0.174189
v -0.220162 -0.719624 0.220144
v -0.146588 -0.625399 0.100882
v -0.178389 -0.625399 -7.32645e-05
v -0.244714 -0.608251 0.00773795
v -0.309798 -0.719624 0.018475
v -0.244553 -0.608251 0.0093485
v -0.146588 -0.641218 0.102841
v -0.173363 -0.608251 0.17333
v -0.227299 -0.719624 0.212145
v -0.146588 -0.626315 0.100989
v -0.308123 -0.719624 0.0315742
v -0.238721 -0.608251 0.0540684
v -0.181079 -0.608251 0.164365
v -0.23102 -0.719624 0.20734
v -0.307189 -0.719624 0.038607
v -0.30503 -0.719624 0.0548199
v -0.303274 -0.719624 0.0678386
v -0.303032 -0.719624 0.0695029
v -0.300293 -0.719624 0.0810184
v -0.299424 -0.719624 0.0845616
v -0.238286 -0.608251 0.0557594
v -0.187024 -0.608251 0.156634
v -0.253156 -0.719624 0.178511
v -0.297039 -0.719624 0.0911381
v -0.234371 -0.608251 0.0704961
v -0.195127 -0.608251 0.145978
v -0.261146 -0.719624 0.168096
v -0.294736 -0.719624 0.0973119
v -0.233968 -0.608251 0.0715429
v -0.205502 -0.608251 0.132288
v -0.265528 -0.719624 0.162003
v -0.293479 -0.719624 0.100399
v -0.228443 -0.608251 0.08534
v -0.213589 -0.608251 0.120048
v -0.266253 -0.719624 0.160929
v -0.291739 -0.719624 0.104613
v -0.22158 -0.608251 0.102009
v -0.214121 -0.608251 0.119189
v -0.266785 -0.719624 0.160097
v -0.280671 -0.719624 0.131268
v -0.217585 -0.608251 0.111646
v -0.273535 -0.719624 0.14791
v -0.277901 -0.719624 0.137925
v -0.27434 -0.719624 0.146112
f 1 2 3
f 1 3 8
f 1 8 7
f 1 7 6
f 1 6 18
f 1 18 27
f 1 27 26
f 1 26 37
f 1 37 45
f 1 45 50
f 1 50 59
f 1 59 63
f 1 63 67
f 1 67 71
f 1 71 75
f 1 75 78
f 1 78 80
f 1 80 79
f 1 79 76
f 1 76 72
f 1 72 68
f 1 68 64
f 1 64 60
f 1 60 56
f 1 56 55
f 1 55 54
f 1 54 53
f 1 53 52
f 1 52 51
f 1 51 47
f 1 47 41
f 1 41 32
f 1 32 23
f 1 23 11
f 1 11 4
f 1 4 10
f 1 10 22
f 1 22 31
f 1 31 35
f 1 35 34
f 1 34 43
f 1 43 46
f 1 46 38
f 1 38 28
f 1 28 19
f 1 19 9
f 1 9 2
f 2 5 6
f 2 6 7
f 2 7 8
f 2 8 3
f 2 9 21
f 2 21 30
f 2 30 40
f 2 40 42
f 2 42 48
f 2 48 57
f 2 57 61
f 2 61 65
f 2 65 69
f 2 69 73
f 2 73 77
f 2 77 74
f 2 74 70
f 2 70 66
f 2 66 62
f 2 62 58
f 2 58 49
f 2 49 44
f 2 44 36
f 2 36 25
f 2 25 17
f 2 17 5
f 4 11 12
f 4 12 13
f 4 13 14
f 4 14 15
f 4 15 16
f 4 16 10
f 5 17 18
f 5 18 6
f 9 19 20
f 9 20 21
f 10 16 22
f 11 23 30
f 11 30 21
f 11 21 20
f 11 20 29
f 11 29 39
f 11 39 33
f 11 33 24
f 11 24 16
f 11 16 15
f 11 15 14
f 11 14 13
f 11 13 12
f 16 24 22
f 17 25 26
f 17 26 27
f 17 27 18
f 19 28 20
f 20 28 29
f 22 24 31
f 23 32 40
f 23 40 30
f 24 33 34
f 24 34 35
f 24 35 31
f 25 36 26
f 26 36 37
f 28 38 39
f 28 39 29
f 32 41 42
f 32 42 40
f 33 39 34
f 34 39 43
f 36 44 37
f 37 44 45
f 38 46 39
f 39 46 43
f 41 47 42
f 42 47 48
f 44 49 45
f 45 49 50
f 47 51 48
f 48 52 53
f 48 53 54
f 48 54 55
f 48 55 56
f 48 56 57
f 48 51 52
f 49 58 50
f 50 58 59
f 56 60 61
f 56 61 57
f 58 62 63
f 58 63 59
f 60 64 61
f 61 64 65
f 62 66 63
f 63 66 67
f 64 68 69
f 64 69 65
f 66 70 71
f 66 71 67
f 68 72 73
f 68 73 69
f 70 74 75
f 70 75 71
f 72 76 77
f 72 77 73
f 74 77 78
f 74 78 75
f 76 79 77
f 77 79 80
f 77 80 78
