v 0.341743 0.744046 0.00773068
v 0.341743 0.738237 0.00773068
v 0.341743 0.744046 -7.32645e-05
v 0.334728 0.75178 0.00773068
v 0.322952 0.755431 0.0695044
v 0.34076 0.742751 0.0231891
v 0.34076 0.739498 0.0231891
v 0.217198 0.610012 0.0385877
v 0.21926 0.610012 0.0231293
v 0.221245 0.610012 0.00767089
v 0.341743 0.738237 -7.32645e-05
v 0.334728 0.75178 -7.32645e-05
v 0.326999 0.759165 0.00773068
v 0.325997 0.758236 0.0231891
v 0.315223 0.762368 0.0695044
v 0.321429 0.754153 0.0849329
v 0.32856 0.746436 0.0849329
v 0.329755 0.747713 0.0695044
v 0.340066 0.741755 0.0336541
v 0.340066 0.74056 0.0336541
v 0.32856 0.736577 0.0849329
v 0.217178 0.610012 0.0387073
v 0.221245 0.610012 -7.32645e-05
v 0.326999 0.759165 -7.32645e-05
v 0.316553 0.765455 0.0231891
v 0.316553 0.764127 0.0386176
v 0.31503 0.767795 0.00638517
v 0.305316 0.770716 0.0540759
v 0.30416 0.770086 0.0695044
v 0.31372 0.760991 0.0849329
v 0.311118 0.758601 0.100391
v 0.318827 0.751514 0.100391
v 0.326344 0.74378 0.100391
v 0.324609 0.741706 0.108943
v 0.324609 0.740627 0.108943
v 0.326344 0.738685 0.100391
v 0.214673 0.610012 0.0535078
v 0.214692 0.610012 0.0534181
v 0.155349 0.610012 -7.32645e-05
v 0.31503 0.767795 -7.32645e-05
v 0.308863 0.772094 0.000345337
v 0.308207 0.771878 0.010631
v 0.307379 0.771579 0.0231891
v 0.306357 0.771181 0.0386176
v 0.29645 0.773106 0.0695044
v 0.295024 0.772658 0.082212
v 0.293328 0.772061 0.0924977
v 0.300556 0.769372 0.086398
v 0.301115 0.765737 0.100391
v 0.301654 0.761289 0.114953
v 0.29699 0.759746 0.131278
v 0.309287 0.757041 0.109212
v 0.307147 0.755199 0.119498
v 0.304719 0.752925 0.131278
v 0.310038 0.742834 0.141953
v 0.310038 0.739448 0.141953
v 0.203533 0.610012 0.0847535
v 0.209758 0.610012 0.0694446
v 0.155137 0.625397 -7.32645e-05
v 0.144845 0.610012 0.0549431
v 0.144845 0.625397 0.0537172
v 0.308863 0.772094 -7.32645e-05
v 0.308612 0.772177 -7.32645e-05
v 0.302271 0.773936 0.00638517
v 0.29965 0.774085 0.0231891
v 0.298648 0.773753 0.0386176
v 0.297588 0.773438 0.0540759
v 0.285657 0.776525 0.0695044
v 0.285657 0.777222 0.0540759
v 0.28718 0.774616 0.086398
v 0.28398 0.77387 0.100391
v 0.27099 0.773969 0.130919
v 0.276637 0.771662 0.135823
v 0.29169 0.771496 0.100391
v 0.288375 0.769886 0.11582
v 0.286737 0.762368 0.147095
v 0.292596 0.755962 0.152507
v 0.298012 0.746469 0.162135
v 0.295448 0.743763 0.172959
v 0.295448 0.738685 0.172959
v 0.197712 0.610012 0.0986272
v 0.144845 0.640848 0.0578733
v 0.156024 0.639355 -7.32645e-05
v 0.144845 0.610012 0.16668
v 0.294851 0.776011 -7.32645e-05
v 0.285657 0.77855 0.00773068
v 0.285657 0.778268 0.0231891
v 0.285657 0.777803 0.0386176
v 0.270219 0.778865 0.0849329
v 0.270219 0.777786 0.100391
v 0.270219 0.776044 0.11582
v 0.254781 0.776542 0.146707
v 0.266442 0.773256 0.146707
v 0.263917 0.772525 0.156634
v 0.274151 0.770667 0.146707
v 0.282477 0.760343 0.162135
v 0.290206 0.754186 0.162135
v 0.279644 0.757887 0.172062
v 0.285677 0.749373 0.177653
v 0.263358 0.742237 0.217301
v 0.175355 0.610012 0.13367
v 0.176126 0.610012 0.132654
v 0.183816 0.610012 0.122428
v 0.184144 0.610012 0.121979
v 0.189482 0.610012 0.114235
v 0.197481 0.610012 0.0991355
v 0.263358 0.740046 0.217301
v 0.144845 0.646342 0.0599065
v 0.158664 0.656283 -7.32645e-05
v 0.144845 0.656266 0.063644
v 0.144845 0.671734 0.0742287
v 0.145539 0.610012 0.166202
v 0.172984 0.738685 0.29543
v 0.162153 0.736627 0.298002
v 0.144845 0.737125 0.305387
v 0.285657 0.77855 -7.32645e-05
v 0.270219 0.779562 0.0231891
v 0.270219 0.779546 0.0386176
v 0.270219 0.779413 0.0540759
v 0.270219 0.779247 0.0695044
v 0.254781 0.779496 0.100391
v 0.254781 0.779098 0.11582
v 0.254781 0.778284 0.131278
v 0.239362 0.777587 0.162135
v 0.254974 0.773837 0.161926
v 0.249963 0.772824 0.173647
v 0.246012 0.771812 0.183932
v 0.260274 0.77143 0.166919
v 0.269525 0.768476 0.161926
v 0.270412 0.761372 0.177354
v 0.265401 0.758783 0.189045
v 0.26145 0.755862 0.199361
v 0.275693 0.754983 0.182348
v 0.243256 0.753738 0.22666
v 0.249095 0.743448 0.234254
v 0.165699 0.610012 0.146228
v 0.249095 0.738934 0.234254
v 0.163001 0.671734 -7.32645e-05
v 0.144845 0.68614 0.086398
v 0.144845 0.702272 0.1009
v 0.144845 0.703102 0.101677
v 0.144845 0.704513 0.103082
v 0.146213 0.610012 0.165693
v 0.217313 0.740046 0.263347
v 0.172984 0.743763 0.29543
v 0.144845 0.746452 0.305208
v 0.278025 0.778965 -7.32645e-05
v 0.270219 0.77938 -7.32645e-05
v 0.162153 0.779463 0.223879
v 0.239362 0.779496 0.131278
v 0.239362 0.779297 0.146707
v 0.223924 0.778185 0.177564
v 0.208467 0.776343 0.208451
v 0.223924 0.775679 0.193022
v 0.240287 0.774384 0.178311
v 0.234814 0.772907 0.193022
v 0.231769 0.772127 0.200916
v 0.22774 0.77075 0.211201
v 0.254974 0.769721 0.178311
v 0.255687 0.76265 0.19374
v 0.238611 0.75958 0.222444
v 0.250233 0.758983 0.208451
v 0.247207 0.756742 0.216344
v 0.232963 0.757622 0.232939
v 0.238765 0.748593 0.238739
v 0.234274 0.743448 0.249085
v 0.156872 0.610012 0.156753
v 0.234274 0.738934 0.249085
v 0.165468 0.677792 -7.32645e-05
v 0.144845 0.748676 0.150115
v 0.144845 0.751431 0.153105
v 0.156428 0.610012 0.157142
v 0.217313 0.742237 0.263347
v 0.177687 0.749373 0.285683
v 0.172078 0.757887 0.279643
v 0.162153 0.754186 0.290198
v 0.162153 0.746469 0.298002
v 0.144845 0.749921 0.301769
v 0.254781 0.777372 -7.32645e-05
v 0.144845 0.779164 0.225733
v 0.144845 0.779313 0.239337
v 0.146715 0.779297 0.239337
v 0.193029 0.778766 0.208451
v 0.208467 0.778766 0.193022
v 0.223924 0.779463 0.162135
v 0.223134 0.773123 0.207015
v 0.177591 0.778185 0.223879
v 0.162153 0.777587 0.239337
v 0.193029 0.775679 0.223879
v 0.207041 0.773123 0.223102
v 0.217448 0.772426 0.217421
v 0.223134 0.767961 0.223102
v 0.237898 0.766982 0.207015
v 0.222479 0.75958 0.23859
v 0.22668 0.753738 0.243224
v 0.167992 0.683966 -7.32645e-05
v 0.144845 0.756593 0.159713
v 0.171211 0.691683 -7.32645e-05
v 0.169611 0.687866 -7.32645e-05
v 0.182371 0.754983 0.275696
v 0.189078 0.758783 0.26538
v 0.177379 0.761372 0.270404
v 0.162153 0.760343 0.282483
v 0.152516 0.755962 0.29259
v 0.144845 0.753373 0.298151
v 0.248845 0.775811 -7.32645e-05
v 0.144845 0.777521 0.210304
v 0.144845 0.778981 0.223879
v 0.144845 0.779164 0.241191
v 0.144845 0.776757 0.254766
v 0.146715 0.776542 0.254766
v 0.161941 0.773837 0.254975
v 0.178323 0.774384 0.240264
v 0.193029 0.772907 0.234793
v 0.20095 0.772127 0.231743
v 0.211242 0.77075 0.227736
v 0.207041 0.766982 0.237872
v 0.193742 0.76265 0.255693
v 0.208467 0.758983 0.250221
v 0.216388 0.756742 0.247201
v 0.144845 0.759514 0.16354
v 0.177167 0.702604 -7.32645e-05
v 0.178323 0.769721 0.254975
v 0.161941 0.768476 0.269507
v 0.1471 0.762368 0.286729
v 0.146715 0.770667 0.274141
v 0.144845 0.762003 0.288194
v 0.144845 0.76026 0.290407
v 0.242812 0.774218 -7.32645e-05
v 0.144845 0.777156 0.208361
v 0.144845 0.776243 0.25668
v 0.146715 0.773256 0.266427
v 0.15666 0.772525 0.263915
v 0.173659 0.772824 0.249952
v 0.183951 0.771812 0.246005
v 0.166952 0.77143 0.260268
v 0.144845 0.760111 0.164617
v 0.215367 0.757389 -7.32645e-05
v 0.212225 0.753124 -7.32645e-05
v 0.209141 0.748925 -7.32645e-05
v 0.183565 0.712612 -7.32645e-05
v 0.180328 0.70755 -7.32645e-05
v 0.144845 0.770368 0.275367
v 0.144845 0.763165 0.28643
v 0.144845 0.770832 0.27456
v 0.235103 0.770019 -7.32645e-05
v 0.144845 0.774168 0.19374
v 0.144845 0.774417 0.194756
v 0.144845 0.773339 0.266965
v 0.144845 0.77299 0.268161
v 0.144845 0.768194 0.180015
v 0.223924 0.763049 -7.32645e-05
v 0.144845 0.769256 0.182108
v 0.144845 0.772907 0.19063
v 0.229552 0.766567 -7.32645e-05
f 1 2 11
f 1 11 3
f 1 3 12
f 1 12 4
f 1 4 5
f 1 5 6
f 1 6 7
f 1 7 2
f 2 7 8
f 2 8 9
f 2 9 10
f 2 10 23
f 2 23 11
f 3 11 23
f 3 23 39
f 3 39 59
f 3 59 83
f 3 83 109
f 3 109 138
f 3 138 169
f 3 169 196
f 3 196 199
f 3 199 198
f 3 198 222
f 3 222 242
f 3 242 241
f 3 241 240
f 3 240 239
f 3 239 238
f 3 238 252
f 3 252 255
f 3 255 246
f 3 246 229
f 3 229 206
f 3 206 179
f 3 179 148
f 3 148 147
f 3 147 116
f 3 116 85
f 3 85 63
f 3 63 62
f 3 62 40
f 3 40 24
f 3 24 12
f 4 12 24
f 4 24 13
f 4 13 14
f 4 14 5
f 5 15 16
f 5 16 17
f 5 17 18
f 5 18 6
f 5 14 15
f 6 19 20
f 6 20 7
f 6 18 19
f 7 20 21
f 7 21 8
f 8 22 38
f 8 38 37
f 8 37 58
f 8 58 57
f 8 57 81
f 8 81 106
f 8 106 105
f 8 105 104
f 8 104 103
f 8 103 102
f 8 102 101
f 8 101 136
f 8 136 167
f 8 167 172
f 8 172 143
f 8 143 112
f 8 112 84
f 8 84 60
f 8 60 39
f 8 39 23
f 8 23 10
f 8 10 9
f 8 21 22
f 13 25 26
f 13 26 15
f 13 15 14
f 13 24 40
f 13 40 27
f 13 27 25
f 15 28 29
f 15 29 30
f 15 30 16
f 15 26 28
f 16 30 31
f 16 31 32
f 16 32 33
f 16 33 17
f 17 33 19
f 17 19 18
f 19 33 34
f 19 34 35
f 19 35 20
f 20 35 36
f 20 36 21
f 21 36 37
f 21 37 38
f 21 38 22
f 25 27 28
f 25 28 26
f 27 40 62
f 27 62 41
f 27 41 42
f 27 42 43
f 27 43 44
f 27 44 28
f 28 45 29
f 28 44 45
f 29 45 46
f 29 46 47
f 29 47 48
f 29 48 30
f 30 48 49
f 30 49 31
f 31 49 50
f 31 50 51
f 31 51 52
f 31 52 32
f 32 52 53
f 32 53 54
f 32 54 33
f 33 54 55
f 33 55 34
f 34 55 56
f 34 56 35
f 35 56 36
f 36 57 58
f 36 58 37
f 36 56 57
f 39 60 61
f 39 61 59
f 41 62 63
f 41 63 64
f 41 64 65
f 41 65 42
f 42 65 66
f 42 66 67
f 42 67 43
f 43 67 45
f 43 45 44
f 45 68 46
f 45 67 69
f 45 69 68
f 46 68 70
f 46 70 47
f 47 70 71
f 47 71 72
f 47 72 73
f 47 73 74
f 47 74 48
f 48 74 49
f 49 74 75
f 49 75 76
f 49 76 50
f 50 76 51
f 51 76 77
f 51 77 52
f 52 77 53
f 53 77 54
f 54 77 78
f 54 78 55
f 55 78 79
f 55 79 80
f 55 80 56
f 56 80 81
f 56 81 57
f 59 61 82
f 59 82 83
f 60 84 115
f 60 115 146
f 60 146 178
f 60 178 205
f 60 205 228
f 60 228 227
f 60 227 244
f 60 244 243
f 60 243 245
f 60 245 250
f 60 250 249
f 60 249 231
f 60 231 210
f 60 210 209
f 60 209 181
f 60 181 180
f 60 180 208
f 60 208 207
f 60 207 230
f 60 230 248
f 60 248 247
f 60 247 254
f 60 254 253
f 60 253 251
f 60 251 237
f 60 237 221
f 60 221 197
f 60 197 171
f 60 171 170
f 60 170 142
f 60 142 141
f 60 141 140
f 60 140 139
f 60 139 111
f 60 111 110
f 60 110 108
f 60 108 82
f 60 82 61
f 63 85 64
f 64 85 86
f 64 86 87
f 64 87 88
f 64 88 69
f 64 69 65
f 65 69 66
f 66 69 67
f 68 69 89
f 68 89 90
f 68 90 70
f 69 88 89
f 70 90 91
f 70 91 71
f 71 91 72
f 72 91 92
f 72 92 93
f 72 93 73
f 73 93 94
f 73 94 95
f 73 95 74
f 74 95 75
f 75 95 76
f 76 95 96
f 76 96 77
f 77 96 97
f 77 97 78
f 78 97 79
f 79 97 98
f 79 98 99
f 79 99 100
f 79 100 107
f 79 107 80
f 80 101 102
f 80 102 103
f 80 103 104
f 80 104 105
f 80 105 106
f 80 106 81
f 80 107 101
f 82 108 83
f 83 108 110
f 83 110 111
f 83 111 109
f 84 112 113
f 84 113 114
f 84 114 115
f 85 116 86
f 86 116 117
f 86 117 118
f 86 118 119
f 86 119 120
f 86 120 87
f 87 120 89
f 87 89 88
f 89 121 122
f 89 122 123
f 89 123 90
f 89 120 121
f 90 123 92
f 90 92 91
f 92 124 125
f 92 125 94
f 92 94 93
f 92 123 124
f 94 125 126
f 94 126 127
f 94 127 128
f 94 128 95
f 95 128 129
f 95 129 96
f 96 129 98
f 96 98 97
f 98 130 131
f 98 131 132
f 98 132 133
f 98 133 99
f 98 129 130
f 99 133 134
f 99 134 135
f 99 135 100
f 100 135 137
f 100 137 107
f 101 107 137
f 101 137 136
f 109 111 139
f 109 139 140
f 109 140 141
f 109 141 142
f 109 142 138
f 112 143 113
f 113 144 173
f 113 173 145
f 113 145 115
f 113 115 114
f 113 143 144
f 115 145 146
f 116 147 117
f 117 147 148
f 117 148 149
f 117 149 150
f 117 150 118
f 118 150 121
f 118 121 119
f 119 121 120
f 121 150 151
f 121 151 122
f 122 151 123
f 123 151 124
f 124 151 152
f 124 152 153
f 124 153 154
f 124 154 125
f 125 154 155
f 125 155 156
f 125 156 126
f 126 156 127
f 127 156 157
f 127 157 158
f 127 158 128
f 128 158 159
f 128 159 129
f 129 159 130
f 130 159 160
f 130 160 161
f 130 161 131
f 131 161 162
f 131 162 132
f 132 162 163
f 132 163 134
f 132 134 133
f 134 163 161
f 134 161 164
f 134 164 135
f 135 164 165
f 135 165 166
f 135 166 168
f 135 168 137
f 136 137 167
f 137 168 167
f 138 142 170
f 138 170 171
f 138 171 169
f 143 172 168
f 143 168 144
f 144 168 166
f 144 166 173
f 145 174 175
f 145 175 176
f 145 176 177
f 145 177 146
f 145 173 174
f 146 177 178
f 148 179 180
f 148 180 181
f 148 181 149
f 149 181 182
f 149 182 183
f 149 183 184
f 149 184 185
f 149 185 150
f 150 185 151
f 151 185 184
f 151 184 152
f 152 184 153
f 153 186 154
f 153 184 183
f 153 183 187
f 153 187 188
f 153 188 189
f 153 189 190
f 153 190 191
f 153 191 186
f 154 186 157
f 154 157 156
f 154 156 155
f 157 186 191
f 157 191 158
f 158 191 192
f 158 192 193
f 158 193 159
f 159 193 160
f 160 193 161
f 161 192 164
f 161 163 162
f 161 193 192
f 164 194 195
f 164 195 166
f 164 166 165
f 164 192 194
f 166 195 174
f 166 174 173
f 167 168 172
f 169 171 196
f 171 197 198
f 171 198 199
f 171 199 196
f 174 195 200
f 174 200 175
f 175 200 201
f 175 201 202
f 175 202 203
f 175 203 176
f 176 203 204
f 176 204 177
f 177 204 178
f 178 204 205
f 179 206 207
f 179 207 208
f 179 208 180
f 181 209 182
f 182 209 210
f 182 210 188
f 182 188 187
f 182 187 183
f 188 210 211
f 188 211 212
f 188 212 189
f 189 212 213
f 189 213 214
f 189 214 215
f 189 215 190
f 190 215 191
f 191 215 216
f 191 216 192
f 192 216 217
f 192 217 194
f 194 217 218
f 194 218 202
f 194 202 201
f 194 201 219
f 194 219 220
f 194 220 195
f 195 220 200
f 197 221 198
f 198 221 222
f 200 220 201
f 201 220 219
f 202 218 223
f 202 223 224
f 202 224 203
f 203 225 204
f 203 224 226
f 203 226 225
f 204 225 227
f 204 227 228
f 204 228 205
f 206 229 207
f 207 229 230
f 210 231 211
f 211 231 232
f 211 232 233
f 211 233 212
f 212 234 214
f 212 214 213
f 212 233 234
f 214 234 235
f 214 235 215
f 215 235 216
f 216 235 236
f 216 236 223
f 216 223 217
f 217 223 218
f 221 237 238
f 221 238 239
f 221 239 240
f 221 240 241
f 221 241 242
f 221 242 222
f 223 236 224
f 224 236 226
f 225 226 243
f 225 243 244
f 225 244 227
f 226 236 233
f 226 233 245
f 226 245 243
f 229 246 247
f 229 247 248
f 229 248 230
f 231 249 232
f 232 249 250
f 232 250 233
f 233 250 245
f 233 236 235
f 233 235 234
f 237 251 238
f 238 251 253
f 238 253 254
f 238 254 247
f 238 247 252
f 246 255 247
f 247 255 252
