v -0.360678 -0.0222389 -0.14283
v -0.238992 -0.0222389 -0.305511
v -0.430895 -0.0222389 -0.14283
v -0.263619 -0.405415 -0.14283
v -0.238992 -0.0222389 -0.387271
v -0.238992 -0.405415 -0.178793
v -0.430482 -0.0222389 -0.143835
v -0.428735 -0.0694983 -0.14283
v -0.340466 -0.405415 -0.14283
v -0.238992 -0.0322159 -0.386744
v -0.242223 -0.0694983 -0.382318
v -0.243294 -0.0386296 -0.383131
v -0.244459 -0.0222389 -0.383107
v -0.238992 -0.405415 -0.281991
v -0.415116 -0.0222389 -0.180946
v -0.420733 -0.0694983 -0.162163
v -0.417013 -0.0779749 -0.170083
v -0.427965 -0.0791002 -0.14283
v -0.337761 -0.405415 -0.149386
v -0.353841 -0.374396 -0.14283
v -0.238992 -0.0610966 -0.385213
v -0.238992 -0.0694983 -0.384758
v -0.238992 -0.0752369 -0.384232
v -0.238992 -0.0849513 -0.383323
v -0.241284 -0.0849513 -0.381576
v -0.27767 -0.0729489 -0.354921
v -0.295571 -0.0694983 -0.341378
v -0.278026 -0.0626719 -0.355208
v -0.261646 -0.0222389 -0.369923
v -0.238992 -0.396263 -0.286585
v -0.241697 -0.405415 -0.279933
v -0.40099 -0.0222389 -0.215018
v -0.400971 -0.0231766 -0.214971
v -0.40347 -0.0540827 -0.205543
v -0.403113 -0.0694983 -0.204706
v -0.399299 -0.0849513 -0.210927
v -0.419286 -0.0838636 -0.162977
v -0.425898 -0.0849513 -0.146706
v -0.427495 -0.0849513 -0.14283
v -0.399919 -0.0694983 -0.21241
v -0.334061 -0.405415 -0.158335
v -0.355888 -0.356843 -0.156181
v -0.358988 -0.362431 -0.14283
v -0.238992 -0.0879894 -0.382892
v -0.251334 -0.0849513 -0.373871
v -0.293768 -0.0944407 -0.33999
v -0.313304 -0.0694983 -0.327716
v -0.303292 -0.0694983 -0.335444
v -0.259073 -0.0849513 -0.367937
v -0.294632 -0.0849513 -0.34066
v -0.302352 -0.0849513 -0.334726
v -0.312365 -0.0849513 -0.326998
v -0.305527 -0.0222389 -0.336234
v -0.296642 -0.0386296 -0.342192
v -0.287118 -0.0231766 -0.350327
v -0.27025 -0.0231766 -0.363272
v -0.279886 -0.0222389 -0.355926
v -0.238992 -0.363031 -0.303262
v -0.24568 -0.405415 -0.27687
v -0.255241 -0.364382 -0.290126
v -0.250394 -0.360218 -0.29594
v -0.39697 -0.0222389 -0.223321
v -0.395881 -0.0386296 -0.223919
v -0.394359 -0.0694983 -0.223919
v -0.393025 -0.0849513 -0.223919
v -0.386601 -0.158466 -0.21722
v -0.385869 -0.16878 -0.215832
v -0.398755 -0.100517 -0.207481
v -0.401854 -0.0954159 -0.201667
v -0.416412 -0.0882895 -0.168647
v -0.423945 -0.100404 -0.146706
v -0.425541 -0.100404 -0.14283
v -0.327693 -0.405415 -0.17372
v -0.365206 -0.347803 -0.14283
v -0.353747 -0.351817 -0.16647
v -0.339095 -0.369183 -0.183841
v -0.331112 -0.39375 -0.177596
v -0.238992 -0.101192 -0.38093
v -0.249868 -0.100404 -0.372723
v -0.257589 -0.100404 -0.366813
v -0.299798 -0.0999168 -0.334487
v -0.310899 -0.100404 -0.325873
v -0.292697 -0.104718 -0.339177
v -0.30254 -0.116758 -0.329702
v -0.321024 -0.0694983 -0.320992
v -0.32155 -0.0540827 -0.321543
v -0.322621 -0.0231766 -0.322595
v -0.322659 -0.0222389 -0.322619
v -0.31383 -0.0540827 -0.328146
v -0.320085 -0.0849513 -0.320059
v -0.314938 -0.0222389 -0.328984
v -0.238992 -0.352529 -0.308454
v -0.255203 -0.405415 -0.269525
v -0.26067 -0.383173 -0.276511
v -0.264013 -0.372896 -0.279096
v -0.267263 -0.362881 -0.281608
v -0.260688 -0.352304 -0.291968
v -0.24444 -0.347428 -0.306803
v -0.396726 -0.0222389 -0.223824
v -0.388198 -0.0694983 -0.234495
v -0.396632 -0.0231766 -0.223919
v -0.387484 -0.0849513 -0.233562
v -0.386676 -0.0966536 -0.232485
v -0.390057 -0.10123 -0.225283
v -0.38848 -0.131273 -0.220617
v -0.38585 -0.106968 -0.231361
v -0.384873 -0.177595 -0.213487
v -0.388104 -0.177595 -0.205759
v -0.402568 -0.174594 -0.1725
v -0.414985 -0.174031 -0.14283
v -0.417032 -0.162142 -0.14283
v -0.400464 -0.162142 -0.18286
v -0.389175 -0.163042 -0.209802
v -0.391992 -0.146726 -0.208486
v -0.396238 -0.11582 -0.208486
v -0.382675 -0.146726 -0.226408
v -0.382243 -0.163042 -0.222986
v -0.37858 -0.177595 -0.223919
v -0.370653 -0.23183 -0.216263
v -0.401159 -0.10573 -0.199968
v -0.411153 -0.100404 -0.177596
v -0.418835 -0.100404 -0.159053
v -0.418854 -0.146726 -0.143643
v -0.419174 -0.146726 -0.14283
v -0.325176 -0.405415 -0.17975
v -0.366971 -0.343528 -0.14283
v -0.355888 -0.341502 -0.171662
v -0.351343 -0.346978 -0.177118
v -0.324387 -0.401702 -0.185468
v -0.34133 -0.358868 -0.188627
v -0.238992 -0.110831 -0.379399
v -0.239368 -0.11582 -0.378322
v -0.247333 -0.124747 -0.370785
v -0.269141 -0.147289 -0.350447
v -0.298389 -0.146726 -0.328099
v -0.309697 -0.112219 -0.324916
v -0.31321 -0.162142 -0.313192
v -0.307706 -0.131273 -0.323409
v -0.308627 -0.122496 -0.324103
v -0.306109 -0.146726 -0.322165
v -0.327017 -0.0849513 -0.312354
v -0.327749 -0.0694983 -0.313288
v -0.329008 -0.0222389 -0.314915
v -0.32589 -0.100404 -0.310895
v -0.238992 -0.347428 -0.310967
v -0.260895 -0.405415 -0.264978
v -0.277651 -0.354667 -0.277636
v -0.270813 -0.348328 -0.286106
v -0.263957 -0.34199 -0.294481
v -0.246957 -0.339439 -0.308717
v -0.389907 -0.0222389 -0.235357
v -0.382318 -0.0694983 -0.242224
v -0.388611 -0.0540827 -0.235046
v -0.389024 -0.0386296 -0.235572
v -0.381586 -0.0849513 -0.241291
v -0.339997 -0.0944407 -0.293763
v -0.334512 -0.0999168 -0.299793
v -0.372738 -0.100404 -0.24988
v -0.374955 -0.146726 -0.237319
v -0.373696 -0.162142 -0.235692
v -0.386827 -0.188734 -0.202648
v -0.372738 -0.237907 -0.208486
v -0.371761 -0.251409 -0.203366
v -0.379087 -0.239332 -0.193029
v -0.413313 -0.176619 -0.145462
v -0.41166 -0.188472 -0.14283
v -0.372024 -0.177595 -0.233514
v -0.36947 -0.196611 -0.230188
v -0.36468 -0.192073 -0.238036
v -0.362839 -0.239182 -0.223872
v -0.359664 -0.254785 -0.222077
v -0.369263 -0.242107 -0.213655
v -0.323485 -0.405415 -0.183578
v -0.369657 -0.336401 -0.14283
v -0.353747 -0.335463 -0.181951
v -0.343735 -0.347691 -0.193484
v -0.323222 -0.383886 -0.199298
v -0.317023 -0.405415 -0.193077
v -0.319691 -0.405415 -0.189392
v -0.338663 -0.353017 -0.198915
v -0.341067 -0.34274 -0.202648
v -0.238992 -0.144513 -0.374015
v -0.240401 -0.130448 -0.375187
v -0.27025 -0.162142 -0.347193
v -0.296755 -0.162142 -0.32683
v -0.304475 -0.162142 -0.320896
v -0.311519 -0.177595 -0.311493
v -0.32093 -0.162142 -0.304458
v -0.322189 -0.146726 -0.306085
v -0.32495 -0.112219 -0.309675
v -0.334737 -0.0849513 -0.302329
v -0.35493 -0.0729489 -0.277636
v -0.335451 -0.0694983 -0.303262
v -0.335864 -0.0540827 -0.303812
v -0.336709 -0.0222389 -0.304913
v -0.238992 -0.345628 -0.311828
v -0.26313 -0.405415 -0.263136
v -0.263638 -0.403689 -0.263639
v -0.281633 -0.362881 -0.267252
v -0.292002 -0.352304 -0.260696
v -0.286123 -0.348328 -0.270793
v -0.280243 -0.34439 -0.28022
v -0.264971 -0.405415 -0.260911
v -0.269536 -0.405415 -0.255216
v -0.276543 -0.383173 -0.260672
v -0.279116 -0.372896 -0.264021
v -0.274307 -0.331975 -0.290581
v -0.266587 -0.331975 -0.296515
v -0.249512 -0.329162 -0.310703
v -0.239725 -0.332725 -0.316829
v -0.238992 -0.332988 -0.317283
v -0.389438 -0.0222389 -0.236146
v -0.374598 -0.0694983 -0.252297
v -0.383126 -0.0386296 -0.2433
v -0.383539 -0.0231766 -0.243827
v -0.367948 -0.0849513 -0.259068
v -0.329346 -0.131273 -0.299984
v -0.360415 -0.147289 -0.256149
v -0.360059 -0.162142 -0.253469
v -0.339809 -0.170243 -0.278067
v -0.384535 -0.208501 -0.197145
v -0.399018 -0.209138 -0.161828
v -0.407903 -0.20475 -0.14283
v -0.37039 -0.261724 -0.200255
v -0.374429 -0.255835 -0.194274
v -0.386319 -0.248146 -0.170562
v -0.387371 -0.239332 -0.173074
v -0.35247 -0.177595 -0.259021
v -0.332013 -0.177632 -0.285676
v -0.340992 -0.2055 -0.264189
v -0.308364 -0.245221 -0.292758
v -0.356414 -0.236256 -0.233275
v -0.355024 -0.246571 -0.231456
v -0.353747 -0.254785 -0.229805
v -0.33917 -0.260786 -0.246363
v -0.356997 -0.2702 -0.218584
v -0.367911 -0.255835 -0.208486
v -0.376176 -0.316597 -0.14283
v -0.357241 -0.331 -0.177118
v -0.355456 -0.325186 -0.186043
v -0.355006 -0.308383 -0.200423
v -0.350854 -0.331 -0.191929
v -0.325796 -0.373608 -0.20272
v -0.310092 -0.405415 -0.202385
v -0.311801 -0.405415 -0.200112
v -0.3554 -0.278565 -0.216502
v -0.343096 -0.331975 -0.205519
v -0.337442 -0.331975 -0.213248
v -0.322978 -0.336326 -0.229949
v -0.308739 -0.339439 -0.246961
v -0.334606 -0.347691 -0.20808
v -0.238992 -0.146726 -0.373656
v -0.243407 -0.162142 -0.36777
v -0.278083 -0.170243 -0.339799
v -0.295083 -0.174707 -0.325562
v -0.300587 -0.178945 -0.320179
v -0.309941 -0.189334 -0.309914
v -0.320198 -0.178945 -0.300558
v -0.32557 -0.174707 -0.295055
v -0.376307 -0.0222389 -0.253326
v -0.290143 -0.364382 -0.25524
v -0.295947 -0.360218 -0.250407
v -0.324443 -0.355455 -0.216406
v -0.294501 -0.34199 -0.26395
v -0.290593 -0.331975 -0.274286
v -0.292209 -0.29098 -0.292184
v -0.272504 -0.405415 -0.251364
v -0.274664 -0.395213 -0.25524
v -0.280487 -0.391049 -0.250383
v -0.27936 -0.311646 -0.294481
v -0.271095 -0.31671 -0.298907
v -0.294463 -0.280665 -0.294457
v -0.286517 -0.285766 -0.298883
v -0.245379 -0.30542 -0.322954
v -0.238992 -0.303395 -0.328625
v -0.258021 -0.285654 -0.320825
v -0.383915 -0.0222389 -0.243396
v -0.398567 -0.239332 -0.146036
v -0.399431 -0.241282 -0.14283
v -0.369019 -0.2702 -0.196929
v -0.387071 -0.265662 -0.156923
v -0.384948 -0.258423 -0.167236
v -0.388292 -0.253885 -0.162115
v -0.396031 -0.254785 -0.14283
v -0.397158 -0.250434 -0.14283
v -0.324199 -0.184984 -0.293261
v -0.314731 -0.19391 -0.302401
v -0.308439 -0.199612 -0.30843
v -0.299178 -0.254785 -0.299171
v -0.296492 -0.2702 -0.296467
v -0.306898 -0.254785 -0.290844
v -0.312834 -0.254785 -0.283139
v -0.340786 -0.250472 -0.248469
v -0.32495 -0.264199 -0.263375
v -0.36312 -0.2702 -0.208486
v -0.356715 -0.298106 -0.20339
v -0.369582 -0.30572 -0.167403
v -0.382562 -0.297168 -0.14283
v -0.389456 -0.270576 -0.147304
v -0.366427 -0.284528 -0.191833
v -0.309077 -0.405415 -0.203725
v -0.327749 -0.361494 -0.208127
v -0.329064 -0.331488 -0.224446
v -0.339189 -0.322898 -0.215521
v -0.310712 -0.329162 -0.249522
v -0.292528 -0.321961 -0.276799
v -0.296529 -0.331975 -0.266582
v -0.238992 -0.162142 -0.371144
v -0.238992 -0.177595 -0.367818
v -0.251296 -0.177595 -0.35839
v -0.270776 -0.176282 -0.343795
v -0.285691 -0.177595 -0.331999
v -0.291871 -0.193048 -0.323098
v -0.292772 -0.245221 -0.308335
v -0.302428 -0.19391 -0.314723
v -0.285672 -0.405415 -0.234232
v -0.298783 -0.405415 -0.217148
v -0.278703 -0.405415 -0.2433
v -0.277895 -0.401364 -0.247009
v -0.277801 -0.277627 -0.308717
v -0.298896 -0.285766 -0.286489
v -0.305057 -0.271588 -0.285556
v -0.290875 -0.254785 -0.306875
v -0.285578 -0.271588 -0.305033
v -0.238992 -0.286366 -0.335133
v -0.255316 -0.269675 -0.329008
v -0.391429 -0.270163 -0.14283
v -0.310693 -0.267312 -0.280364
v -0.307199 -0.285654 -0.275794
v -0.322978 -0.30542 -0.245382
v -0.238992 -0.200024 -0.361788
v -0.248591 -0.193048 -0.356309
v -0.264182 -0.2055 -0.340995
v -0.289166 -0.208501 -0.321016
v -0.24846 -0.250472 -0.34078
v -0.283155 -0.254785 -0.312809
v -0.276017 -0.239332 -0.322787
v -0.258246 -0.239332 -0.336425
v -0.238992 -0.24057 -0.350853
v -0.280375 -0.267312 -0.31068
v -0.263375 -0.264199 -0.324916
v -0.246375 -0.260786 -0.339153
v -0.238992 -0.2702 -0.341306
v -0.238992 -0.207226 -0.35985
v -0.239875 -0.207113 -0.359204
v -0.245379 -0.211351 -0.353844
v -0.238992 -0.255198 -0.346546
v -0.240476 -0.255273 -0.345398
v -0.254095 -0.255273 -0.334966
v -0.238992 -0.24237 -0.350327
v -0.238992 -0.239782 -0.351069
v -0.238992 -0.267725 -0.34224
v -0.238992 -0.256848 -0.345996
f 1 2 5
f 1 5 13
f 1 13 29
f 1 29 57
f 1 57 53
f 1 53 91
f 1 91 88
f 1 88 143
f 1 143 195
f 1 195 260
f 1 260 277
f 1 277 212
f 1 212 151
f 1 151 99
f 1 99 62
f 1 62 32
f 1 32 15
f 1 15 7
f 1 7 3
f 1 3 8
f 1 8 18
f 1 18 39
f 1 39 72
f 1 72 124
f 1 124 111
f 1 111 110
f 1 110 166
f 1 166 223
f 1 223 279
f 1 279 285
f 1 285 284
f 1 284 327
f 1 327 298
f 1 298 238
f 1 238 174
f 1 174 126
f 1 126 74
f 1 74 43
f 1 43 20
f 1 20 9
f 1 9 4
f 1 4 2
f 2 4 6
f 2 6 14
f 2 14 30
f 2 30 58
f 2 58 92
f 2 92 145
f 2 145 196
f 2 196 211
f 2 211 275
f 2 275 325
f 2 325 343
f 2 343 352
f 2 352 353
f 2 353 347
f 2 347 350
f 2 350 339
f 2 339 351
f 2 351 344
f 2 344 331
f 2 331 309
f 2 309 308
f 2 308 252
f 2 252 182
f 2 182 131
f 2 131 78
f 2 78 44
f 2 44 24
f 2 24 23
f 2 23 22
f 2 22 21
f 2 21 10
f 2 10 5
f 3 7 8
f 4 9 19
f 4 19 41
f 4 41 73
f 4 73 125
f 4 125 173
f 4 173 179
f 4 179 178
f 4 178 245
f 4 245 244
f 4 244 301
f 4 301 317
f 4 317 316
f 4 316 318
f 4 318 267
f 4 267 204
f 4 204 203
f 4 203 197
f 4 197 146
f 4 146 93
f 4 93 59
f 4 59 31
f 4 31 14
f 4 14 6
f 5 10 11
f 5 11 12
f 5 12 13
f 7 15 16
f 7 16 8
f 8 16 17
f 8 17 18
f 9 20 19
f 10 21 11
f 11 21 22
f 11 22 23
f 11 23 24
f 11 24 25
f 11 25 26
f 11 26 27
f 11 27 28
f 11 28 29
f 11 29 13
f 11 13 12
f 14 31 30
f 15 32 33
f 15 33 34
f 15 34 35
f 15 35 16
f 16 35 17
f 17 36 37
f 17 37 38
f 17 38 39
f 17 39 18
f 17 35 40
f 17 40 36
f 19 20 42
f 19 42 41
f 20 43 42
f 24 44 25
f 25 45 26
f 25 44 46
f 25 46 45
f 26 47 48
f 26 48 27
f 26 45 49
f 26 49 50
f 26 50 51
f 26 51 52
f 26 52 47
f 27 48 53
f 27 53 54
f 27 54 55
f 27 55 28
f 28 55 56
f 28 56 29
f 29 56 55
f 29 55 57
f 30 31 58
f 31 59 60
f 31 60 61
f 31 61 58
f 32 62 33
f 33 62 63
f 33 63 64
f 33 64 40
f 33 40 34
f 34 40 35
f 36 65 66
f 36 66 67
f 36 67 68
f 36 68 69
f 36 69 70
f 36 70 38
f 36 38 37
f 36 40 65
f 38 70 71
f 38 71 72
f 38 72 39
f 40 64 65
f 41 42 73
f 42 43 74
f 42 74 75
f 42 75 76
f 42 76 77
f 42 77 73
f 44 78 79
f 44 79 80
f 44 80 46
f 45 46 49
f 46 81 82
f 46 82 52
f 46 52 51
f 46 51 50
f 46 50 49
f 46 80 83
f 46 83 84
f 46 84 81
f 47 85 86
f 47 86 87
f 47 87 88
f 47 88 89
f 47 89 48
f 47 52 85
f 48 89 53
f 52 90 85
f 52 82 90
f 53 57 55
f 53 55 54
f 53 89 91
f 58 61 92
f 59 93 94
f 59 94 60
f 60 94 95
f 60 95 96
f 60 96 97
f 60 97 61
f 61 97 98
f 61 98 92
f 62 99 63
f 63 100 64
f 63 99 101
f 63 101 100
f 64 100 102
f 64 102 65
f 65 102 103
f 65 103 104
f 65 104 105
f 65 105 66
f 66 105 104
f 66 104 103
f 66 103 106
f 66 106 67
f 67 107 108
f 67 108 109
f 67 109 110
f 67 110 111
f 67 111 112
f 67 112 113
f 67 113 114
f 67 114 115
f 67 115 68
f 67 106 116
f 67 116 117
f 67 117 118
f 67 118 119
f 67 119 107
f 68 115 120
f 68 120 121
f 68 121 69
f 69 121 122
f 69 122 71
f 69 71 70
f 71 122 123
f 71 123 72
f 72 123 124
f 73 77 125
f 74 126 127
f 74 127 75
f 75 127 128
f 75 128 76
f 76 129 77
f 76 128 130
f 76 130 129
f 77 129 125
f 78 131 132
f 78 132 80
f 78 80 79
f 80 132 133
f 80 133 134
f 80 134 135
f 80 135 84
f 80 84 83
f 81 84 82
f 82 136 137
f 82 137 90
f 82 84 136
f 84 138 139
f 84 139 136
f 84 135 140
f 84 140 138
f 85 90 141
f 85 141 142
f 85 142 86
f 86 142 87
f 87 142 88
f 88 91 89
f 88 142 143
f 90 137 144
f 90 144 141
f 92 98 145
f 93 146 147
f 93 147 94
f 94 147 95
f 95 147 96
f 96 147 148
f 96 148 97
f 97 148 149
f 97 149 98
f 98 149 150
f 98 150 145
f 99 151 101
f 100 152 102
f 100 101 153
f 100 153 152
f 101 151 154
f 101 154 153
f 102 155 103
f 102 152 155
f 103 156 157
f 103 157 158
f 103 158 159
f 103 159 160
f 103 160 106
f 103 155 156
f 106 160 116
f 107 161 108
f 107 119 162
f 107 162 163
f 107 163 164
f 107 164 161
f 108 165 109
f 108 161 165
f 109 165 110
f 110 165 166
f 111 124 123
f 111 123 112
f 112 123 114
f 112 114 113
f 114 123 120
f 114 120 115
f 116 160 117
f 117 167 118
f 117 160 167
f 118 167 119
f 119 168 169
f 119 169 170
f 119 170 171
f 119 171 172
f 119 172 163
f 119 163 162
f 119 167 168
f 120 122 121
f 120 123 122
f 125 129 173
f 126 174 127
f 127 174 175
f 127 175 128
f 128 175 176
f 128 176 130
f 129 177 178
f 129 178 179
f 129 179 173
f 129 130 176
f 129 176 180
f 129 180 181
f 129 181 177
f 131 182 132
f 132 183 133
f 132 182 183
f 133 183 182
f 133 182 134
f 134 184 135
f 134 182 184
f 135 184 185
f 135 185 186
f 135 186 140
f 136 139 137
f 137 140 186
f 137 186 187
f 137 187 188
f 137 188 189
f 137 189 190
f 137 190 144
f 137 139 138
f 137 138 140
f 141 191 192
f 141 192 142
f 141 144 156
f 141 156 191
f 142 192 193
f 142 193 194
f 142 194 195
f 142 195 143
f 144 190 157
f 144 157 156
f 145 150 196
f 146 197 198
f 146 198 147
f 147 199 200
f 147 200 201
f 147 201 202
f 147 202 148
f 147 198 203
f 147 203 204
f 147 204 205
f 147 205 206
f 147 206 199
f 148 202 207
f 148 207 149
f 149 207 150
f 150 207 208
f 150 208 209
f 150 209 210
f 150 210 211
f 150 211 196
f 151 212 154
f 152 213 192
f 152 192 155
f 152 153 214
f 152 214 213
f 153 154 215
f 153 215 214
f 154 212 215
f 155 216 156
f 155 192 216
f 156 216 191
f 157 217 158
f 157 190 189
f 157 189 217
f 158 217 189
f 158 189 159
f 159 189 218
f 159 218 219
f 159 219 160
f 160 219 220
f 160 220 167
f 161 164 221
f 161 221 222
f 161 222 223
f 161 223 165
f 163 224 225
f 163 225 226
f 163 226 164
f 163 172 224
f 164 226 227
f 164 227 221
f 165 223 166
f 167 220 228
f 167 228 169
f 167 169 168
f 169 228 229
f 169 229 230
f 169 230 231
f 169 231 232
f 169 232 170
f 170 232 231
f 170 231 233
f 170 233 171
f 171 233 234
f 171 234 235
f 171 235 236
f 171 236 172
f 172 236 237
f 172 237 224
f 174 238 239
f 174 239 175
f 175 239 240
f 175 240 241
f 175 241 242
f 175 242 176
f 176 242 181
f 176 181 180
f 177 243 244
f 177 244 245
f 177 245 178
f 177 181 243
f 181 242 241
f 181 241 246
f 181 246 247
f 181 247 248
f 181 248 249
f 181 249 250
f 181 250 251
f 181 251 243
f 182 252 184
f 184 252 253
f 184 253 254
f 184 254 185
f 185 254 186
f 186 254 255
f 186 255 256
f 186 256 187
f 187 256 257
f 187 257 258
f 187 258 188
f 188 219 189
f 188 258 259
f 188 259 220
f 188 220 219
f 189 219 218
f 191 216 192
f 192 213 193
f 193 213 194
f 194 213 195
f 195 213 260
f 197 203 198
f 199 206 200
f 200 206 205
f 200 205 261
f 200 261 262
f 200 262 263
f 200 263 251
f 200 251 264
f 200 264 201
f 201 264 202
f 202 264 265
f 202 265 266
f 202 266 207
f 204 267 268
f 204 268 205
f 205 268 269
f 205 269 263
f 205 263 262
f 205 262 261
f 207 270 271
f 207 271 208
f 207 266 272
f 207 272 273
f 207 273 270
f 208 271 209
f 209 274 275
f 209 275 210
f 209 271 276
f 209 276 274
f 210 275 211
f 212 277 215
f 213 214 260
f 214 215 260
f 215 277 260
f 220 259 229
f 220 229 228
f 221 227 222
f 222 227 223
f 223 227 278
f 223 278 279
f 224 280 281
f 224 281 282
f 224 282 283
f 224 283 226
f 224 226 225
f 224 237 241
f 224 241 280
f 226 283 284
f 226 284 285
f 226 285 279
f 226 279 278
f 226 278 227
f 229 258 286
f 229 286 231
f 229 231 230
f 229 259 258
f 231 287 288
f 231 288 289
f 231 289 290
f 231 290 291
f 231 291 292
f 231 292 293
f 231 293 233
f 231 286 258
f 231 258 287
f 233 293 234
f 234 293 235
f 235 294 236
f 235 293 292
f 235 292 294
f 236 295 237
f 236 294 246
f 236 246 241
f 236 241 296
f 236 296 295
f 237 295 241
f 238 297 239
f 238 298 299
f 238 299 297
f 239 297 240
f 240 297 300
f 240 300 241
f 241 300 280
f 241 295 296
f 243 301 244
f 243 251 302
f 243 302 301
f 246 294 303
f 246 303 304
f 246 304 248
f 246 248 247
f 248 304 303
f 248 303 249
f 249 303 250
f 250 264 251
f 250 303 305
f 250 305 306
f 250 306 307
f 250 307 265
f 250 265 264
f 251 263 302
f 252 308 253
f 253 308 254
f 254 309 310
f 254 310 311
f 254 311 255
f 254 308 309
f 255 311 312
f 255 312 313
f 255 313 256
f 256 313 314
f 256 314 315
f 256 315 288
f 256 288 257
f 257 288 258
f 258 288 287
f 263 269 316
f 263 316 317
f 263 317 301
f 263 301 302
f 265 307 306
f 265 306 272
f 265 272 266
f 267 318 319
f 267 319 268
f 268 319 269
f 269 319 316
f 270 273 320
f 270 320 271
f 271 320 276
f 272 321 322
f 272 322 291
f 272 291 290
f 272 290 323
f 272 323 324
f 272 324 273
f 272 306 321
f 273 324 320
f 274 276 275
f 275 276 326
f 275 326 325
f 276 320 326
f 280 300 299
f 280 299 281
f 281 299 327
f 281 327 284
f 281 284 282
f 282 284 283
f 288 315 314
f 288 314 289
f 289 314 323
f 289 323 290
f 291 322 328
f 291 328 294
f 291 294 292
f 294 328 329
f 294 329 306
f 294 306 305
f 294 305 330
f 294 330 303
f 297 299 300
f 298 327 299
f 303 330 305
f 306 329 322
f 306 322 321
f 309 331 310
f 310 312 311
f 310 331 332
f 310 332 333
f 310 333 312
f 312 333 334
f 312 334 313
f 313 334 314
f 314 335 336
f 314 336 323
f 314 334 337
f 314 337 338
f 314 338 339
f 314 339 335
f 316 319 318
f 320 324 340
f 320 340 341
f 320 341 326
f 322 329 328
f 323 336 342
f 323 342 341
f 323 341 340
f 323 340 324
f 325 326 343
f 326 341 343
f 331 344 345
f 331 345 332
f 332 345 346
f 332 346 333
f 333 346 338
f 333 338 334
f 334 338 337
f 335 347 348
f 335 348 349
f 335 349 336
f 335 339 350
f 335 350 347
f 336 349 342
f 338 351 339
f 338 346 351
f 341 342 352
f 341 352 343
f 342 353 352
f 342 349 348
f 342 348 347
f 342 347 353
f 344 346 345
f 344 351 346
