v 0.300259 0.356914 -0.124716
v 0.32693 0.356914 -8.54656e-05
v 0.381449 0.356914 -0.124716
v 0.368197 -0.0222389 -0.124716
v 0.390262 -0.0222389 -8.54656e-05
v 0.402978 0.356914 -8.54656e-05
v 0.386529 0.356914 -0.115126
v 0.392848 0.337652 -0.124716
v 0.437727 -0.0222389 -0.124716
v 0.455599 -0.0222389 -8.54656e-05
v 0.403284 0.356914 -0.00860156
v 0.414637 0.335203 -8.54656e-05
v 0.390951 0.356914 -0.101083
v 0.403192 0.327854 -0.112491
v 0.398984 0.332605 -0.116907
v 0.395924 0.332271 -0.124716
v 0.438155 -0.0142594 -0.124716
v 0.440359 -0.0222389 -0.116736
v 0.455599 -0.0222389 -0.00772311
v 0.45589 -0.0153357 -8.54656e-05
v 0.414637 0.335203 -0.00772311
v 0.393506 0.356914 -0.0853928
v 0.41655 0.331306 -8.54656e-05
v 0.391945 0.356914 -0.0954218
v 0.400789 0.338469 -0.100363
v 0.40515 0.3175 -0.116907
v 0.401172 0.323289 -0.122788
v 0.399397 0.325256 -0.124716
v 0.404584 0.330749 -0.100363
v 0.409848 0.316535 -0.100363
v 0.438431 -0.00769032 -0.124716
v 0.441292 -0.00769032 -0.115809
v 0.44065 -0.0222389 -0.115809
v 0.453487 -0.0222389 -0.0240965
v 0.454222 -0.00769032 -0.0231692
v 0.456211 -0.00769032 -0.00772311
v 0.456211 -0.00769032 -8.54656e-05
v 0.418401 0.327483 -0.00772311
v 0.41759 0.325739 -0.020485
v 0.401417 0.339582 -0.0922008
v 0.418401 0.327483 -8.54656e-05
v 0.401968 0.317982 -0.124716
v 0.408945 0.301095 -0.115809
v 0.403773 0.310968 -0.124716
v 0.403176 0.313825 -0.124716
v 0.400759 0.32199 -0.124716
v 0.405166 0.333459 -0.0861981
v 0.416902 0.324217 -0.0307824
v 0.411914 0.316535 -0.0849292
v 0.416994 0.309075 -0.0623091
v 0.412847 0.301095 -0.100363
v 0.438645 0.00121696 -0.124716
v 0.438798 0.00774897 -0.124716
v 0.441644 0.00774897 -0.115809
v 0.444062 -0.00769032 -0.100363
v 0.443434 -0.0222389 -0.100363
v 0.447153 -0.0222389 -0.0721916
v 0.446433 0.00774897 -0.0849292
v 0.454559 0.00774897 -0.0231692
v 0.456548 0.00774897 -0.00772311
v 0.456563 0.00774897 -8.54656e-05
v 0.422058 0.316535 -0.00772311
v 0.422058 0.316535 -8.54656e-05
v 0.405487 0.301095 -0.124716
v 0.427368 0.177581 -0.115809
v 0.424231 0.177581 -0.124716
v 0.419442 0.318056 -0.0246455
v 0.417544 0.311079 -0.0540492
v 0.416382 0.322399 -0.0386153
v 0.425027 0.301095 -0.00772311
v 0.442776 0.177581 -0.00772311
v 0.440787 0.177581 -0.0231692
v 0.432479 0.18582 -0.078048
v 0.43179 0.180847 -0.0883454
v 0.430918 0.176468 -0.0992406
v 0.431775 0.165296 -0.103645
v 0.432433 0.155016 -0.108379
v 0.438461 0.0231883 -0.124716
v 0.441323 0.0231883 -0.115809
v 0.444398 0.00774897 -0.100363
v 0.447474 0.0231883 -0.074644
v 0.454253 0.0231883 -0.0231692
v 0.456242 0.0231883 -0.00772311
v 0.456242 0.0231883 -8.54656e-05
v 0.425027 0.301095 -8.54656e-05
v 0.431729 0.134344 -0.121226
v 0.432433 0.124063 -0.123691
v 0.431882 0.125028 -0.124716
v 0.448117 0.141395 -0.002428
v 0.444781 0.162142 -0.00772311
v 0.444766 0.146703 -0.0231692
v 0.436732 0.177581 -0.0540492
v 0.432953 0.176468 -0.0838921
v 0.432463 0.170567 -0.0933477
v 0.432922 0.160954 -0.0992406
v 0.438553 0.115824 -0.100363
v 0.437436 0.100385 -0.115809
v 0.435585 0.115824 -0.115809
v 0.436059 0.0800464 -0.124716
v 0.443434 0.0386275 -0.100363
v 0.444077 0.0231883 -0.100363
v 0.435845 0.0849454 -0.124716
v 0.438599 0.0849454 -0.115809
v 0.441461 0.0849454 -0.100363
v 0.447719 0.0595596 -0.0610646
v 0.445531 0.0849454 -0.0694831
v 0.448193 0.0849454 -0.0492421
v 0.451621 0.0849454 -0.0231692
v 0.454283 0.0695061 -0.00772311
v 0.455262 0.0464214 -8.54656e-05
v 0.448117 0.141395 -8.54656e-05
v 0.432861 0.117939 -0.124716
v 0.452493 0.100385 -0.00772311
v 0.450703 0.115824 -0.00772311
v 0.448759 0.131189 -0.00763771
v 0.446785 0.146591 -0.00763771
v 0.447459 0.136274 -0.0127132
v 0.438722 0.162142 -0.0540492
v 0.448117 0.125993 -0.0178131
v 0.44677 0.131189 -0.0230472
v 0.440588 0.115824 -0.0849292
v 0.448101 0.110405 -0.0331128
v 0.447428 0.104393 -0.0434102
v 0.440328 0.100385 -0.100363
v 0.434759 0.100385 -0.124716
v 0.433167 0.115267 -0.124716
v 0.444154 0.0695061 -0.0849292
v 0.435019 0.0968218 -0.124716
v 0.447948 0.0940754 -0.0474364
v 0.443496 0.0849454 -0.0849292
v 0.453625 0.0849454 -0.00772311
v 0.454283 0.0695061 -8.54656e-05
v 0.452493 0.100385 -8.54656e-05
v 0.453059 0.0927393 -8.54656e-05
v 0.450504 0.100385 -0.0231692
v 0.448744 0.115676 -0.0230472
v 0.442363 0.100385 -0.0849292
v 0.453625 0.0849454 -8.54656e-05
f 1 2 6
f 1 6 11
f 1 11 22
f 1 22 24
f 1 24 13
f 1 13 7
f 1 7 3
f 1 3 8
f 1 8 16
f 1 16 28
f 1 28 46
f 1 46 42
f 1 42 45
f 1 45 44
f 1 44 64
f 1 64 66
f 1 66 88
f 1 88 112
f 1 112 126
f 1 126 125
f 1 125 128
f 1 128 102
f 1 102 99
f 1 99 78
f 1 78 53
f 1 53 52
f 1 52 31
f 1 31 17
f 1 17 9
f 1 9 4
f 1 4 5
f 1 5 2
f 2 5 10
f 2 10 20
f 2 20 37
f 2 37 61
f 2 61 84
f 2 84 110
f 2 110 132
f 2 132 138
f 2 138 134
f 2 134 133
f 2 133 111
f 2 111 85
f 2 85 63
f 2 63 41
f 2 41 23
f 2 23 12
f 2 12 6
f 3 7 8
f 4 9 18
f 4 18 33
f 4 33 56
f 4 56 57
f 4 57 34
f 4 34 19
f 4 19 10
f 4 10 5
f 6 12 11
f 7 13 14
f 7 14 15
f 7 15 16
f 7 16 8
f 9 17 18
f 10 19 20
f 11 21 22
f 11 12 21
f 12 23 21
f 13 24 25
f 13 25 14
f 14 26 27
f 14 27 28
f 14 28 16
f 14 16 15
f 14 25 29
f 14 29 30
f 14 30 26
f 17 31 32
f 17 32 18
f 18 32 33
f 19 34 35
f 19 35 36
f 19 36 20
f 20 36 37
f 21 23 38
f 21 38 39
f 21 39 40
f 21 40 22
f 22 40 25
f 22 25 24
f 23 41 38
f 25 40 29
f 26 42 27
f 26 30 43
f 26 43 44
f 26 44 45
f 26 45 42
f 27 42 46
f 27 46 28
f 29 40 47
f 29 47 39
f 29 39 48
f 29 48 30
f 30 49 50
f 30 50 51
f 30 51 43
f 30 48 49
f 31 52 32
f 32 52 53
f 32 53 54
f 32 54 55
f 32 55 56
f 32 56 33
f 34 57 55
f 34 55 35
f 35 55 58
f 35 58 59
f 35 59 60
f 35 60 36
f 36 60 61
f 36 61 37
f 38 41 63
f 38 63 62
f 38 62 39
f 39 62 48
f 39 47 40
f 43 64 44
f 43 51 65
f 43 65 66
f 43 66 64
f 48 62 67
f 48 67 68
f 48 68 69
f 48 69 49
f 49 68 50
f 49 69 68
f 50 68 62
f 50 62 70
f 50 70 71
f 50 71 72
f 50 72 73
f 50 73 74
f 50 74 75
f 50 75 51
f 51 75 76
f 51 76 77
f 51 77 65
f 53 78 79
f 53 79 54
f 54 79 101
f 54 101 80
f 54 80 55
f 55 80 58
f 55 57 56
f 58 80 81
f 58 81 82
f 58 82 59
f 59 82 83
f 59 83 60
f 60 83 61
f 61 83 84
f 62 68 67
f 62 63 85
f 62 85 70
f 65 77 86
f 65 86 87
f 65 87 66
f 66 87 88
f 70 89 71
f 70 85 111
f 70 111 89
f 71 89 90
f 71 90 72
f 72 90 91
f 72 91 118
f 72 118 92
f 72 92 73
f 73 92 74
f 74 92 93
f 74 93 75
f 75 93 94
f 75 94 95
f 75 95 76
f 76 95 96
f 76 96 77
f 77 96 97
f 77 97 98
f 77 98 87
f 77 87 86
f 78 99 79
f 79 100 101
f 79 99 102
f 79 102 103
f 79 103 104
f 79 104 100
f 80 101 81
f 81 101 100
f 81 100 82
f 82 100 105
f 82 105 106
f 82 106 107
f 82 107 108
f 82 108 131
f 82 131 109
f 82 109 83
f 83 110 84
f 83 109 110
f 87 98 97
f 87 97 112
f 87 112 88
f 89 113 114
f 89 114 115
f 89 115 116
f 89 116 90
f 89 111 133
f 89 133 113
f 90 116 117
f 90 117 91
f 91 117 119
f 91 119 120
f 91 120 118
f 92 118 93
f 93 118 95
f 93 95 94
f 95 118 120
f 95 120 121
f 95 121 96
f 96 121 122
f 96 122 123
f 96 123 124
f 96 124 97
f 97 125 126
f 97 126 112
f 97 124 103
f 97 103 125
f 100 127 105
f 100 104 130
f 100 130 127
f 102 128 103
f 103 128 125
f 103 124 104
f 104 124 129
f 104 129 130
f 105 127 106
f 106 130 129
f 106 129 107
f 106 127 130
f 107 129 108
f 108 129 131
f 109 131 138
f 109 138 132
f 109 132 110
f 113 133 134
f 113 134 131
f 113 131 129
f 113 129 135
f 113 135 122
f 113 122 114
f 114 122 136
f 114 136 119
f 114 119 115
f 115 119 117
f 115 117 116
f 119 136 122
f 119 122 120
f 120 122 121
f 122 135 123
f 123 135 129
f 123 129 137
f 123 137 124
f 124 137 129
f 131 134 138
