v 0.460131 0.0250969 0.352793
v 0.445448 0.0250969 0.388192
v 0.460131 -0.553239 0.352793
v -0.460133 0.0250969 0.352793
v 0.440223 0.0250969 0.400734
v 0.440223 -0.553239 0.400734
v 0.454546 -0.562035 0.363077
v 0.456888 -0.563433 0.352793
v 0.440133 -0.560346 0.400483
v -0.460133 -0.553239 0.352793
v -0.440225 0.0250969 0.400734
v 0.438512 0.0250969 0.404842
v 0.437431 -0.553239 0.407413
v 0.456528 -0.563899 0.353295
v 0.456708 -0.563899 0.352793
v 0.441574 -0.562326 0.393303
v 0.429323 -0.563316 0.419954
v 0.432026 -0.553239 0.419954
v 0.427342 -0.561336 0.427793
v -0.456709 -0.563899 0.352793
v -0.454547 -0.562035 0.363077
v -0.440135 -0.560346 0.400483
v -0.440225 -0.553239 0.400734
v -0.437432 0.0250969 0.407413
v 0.437431 0.0250969 0.407413
v 0.434098 0.0250969 0.415157
v 0.444367 -0.564481 0.379977
v 0.433197 -0.567335 0.393303
v 0.446529 -0.568908 0.353295
v 0.446529 -0.568966 0.352793
v 0.419685 -0.564248 0.432653
v 0.419865 -0.568325 0.419954
v 0.429413 0.0250969 0.425159
v 0.427792 -0.553239 0.428357
v 0.432026 0.0250969 0.419954
v 0.415181 -0.562384 0.442467
v 0.422748 -0.553239 0.435005
v 0.387166 -0.56087 0.480688
v -0.447071 -0.568733 0.352793
v -0.456529 -0.563899 0.353295
v -0.429325 -0.563316 0.419954
v -0.441576 -0.562326 0.393303
v -0.432027 -0.553239 0.419954
v -0.437432 -0.553239 0.407413
v -0.427343 -0.561336 0.427793
v -0.432027 0.0250969 0.419954
v 0.433197 -0.56949 0.379977
v 0.433197 -0.569956 0.366652
v 0.433197 -0.569956 0.352793
v 0.406983 -0.56518 0.446794
v 0.362574 -0.562792 0.510067
v 0.366807 -0.564947 0.499877
v 0.406533 -0.569257 0.433311
v 0.419865 -0.569782 0.406629
v 0.379869 -0.568093 0.473289
v 0.366537 -0.569083 0.486614
v 0.427792 0.0250969 0.428357
v 0.418694 0.0250969 0.440366
v 0.374825 -0.562093 0.495393
v 0.411037 -0.553239 0.450368
v 0.404371 -0.553239 0.459054
v 0.35879 -0.553239 0.518408
v -0.44653 -0.568966 0.352793
v -0.44653 -0.568908 0.353295
v -0.433198 -0.567335 0.393303
v -0.444368 -0.564481 0.379977
v -0.419867 -0.568325 0.419954
v -0.419686 -0.564248 0.432653
v -0.427794 -0.553239 0.428357
v -0.430406 0.0250969 0.423184
v -0.422749 -0.553239 0.435005
v -0.415182 -0.562384 0.442467
v -0.387167 -0.56087 0.48072
v 0.406533 -0.569956 0.419954
v -0.433198 -0.569956 0.352793
v 0.350233 -0.563142 0.523895
v 0.354106 -0.565588 0.513987
v 0.393201 -0.569665 0.446637
v 0.353205 -0.569607 0.499971
v 0.379869 -0.569898 0.459963
v 0.411037 0.0250969 0.450368
v 0.366447 0.0250969 0.508468
v 0.35879 0.0250969 0.518408
v 0.352124 -0.553239 0.52587
v -0.433198 -0.569956 0.366652
v -0.433198 -0.56949 0.379977
v -0.406985 -0.56518 0.446794
v -0.419867 -0.569782 0.406629
v -0.406535 -0.569257 0.433311
v -0.366539 -0.569083 0.486614
v -0.379871 -0.568093 0.473289
v -0.366809 -0.564947 0.499877
v -0.362575 -0.562792 0.510067
v -0.427794 0.0250969 0.428357
v -0.411039 -0.553239 0.450368
v -0.414191 0.0250969 0.446261
v -0.420227 0.0250969 0.438328
v -0.374826 -0.562093 0.495393
v -0.404373 -0.553239 0.459054
v -0.358792 -0.553239 0.518408
v 0.366537 -0.569956 0.473289
v 0.345729 -0.553239 0.532549
v 0.337081 -0.562909 0.536217
v 0.340864 -0.565646 0.527626
v 0.339873 -0.56984 0.513266
v 0.352124 0.0250969 0.52587
v -0.406535 -0.569956 0.419954
v -0.379871 -0.569898 0.459963
v -0.393203 -0.569665 0.446637
v -0.353207 -0.569607 0.499971
v -0.354108 -0.565588 0.513987
v -0.350234 -0.563142 0.523895
v -0.404373 0.0250969 0.459054
v -0.352126 -0.553239 0.52587
v -0.358792 0.0250969 0.518408
v 0.339873 -0.569956 0.499971
v 0.339063 -0.553239 0.537722
v 0.307805 -0.561336 0.56083
v 0.322398 -0.562384 0.548539
v 0.345729 0.0250969 0.532549
v 0.312669 -0.564248 0.553086
v 0.326722 -0.565238 0.540387
v 0.299878 -0.5685 0.553243
v 0.31321 -0.569257 0.539917
v 0.326541 -0.569665 0.526591
v 0.273214 -0.569782 0.5666
v 0.286546 -0.569956 0.553243
v -0.366539 -0.569956 0.473289
v -0.339875 -0.56984 0.513266
v -0.340866 -0.565646 0.527626
v -0.34573 -0.553239 0.532549
v -0.337082 -0.562909 0.536217
v -0.349694 0.0250969 0.528441
v -0.352126 0.0250969 0.52587
v 0.339063 0.0250969 0.537722
v 0.330415 -0.553239 0.544369
v 0.255648 -0.553239 0.601748
v 0.254837 -0.561744 0.601121
v 0.26952 -0.562617 0.58883
v 0.259521 -0.564598 0.593251
v 0.273664 -0.565413 0.580552
v 0.24655 -0.568791 0.593251
v 0.259882 -0.569432 0.579925
v 0.233218 -0.569956 0.593251
v -0.339875 -0.569956 0.499971
v -0.286547 -0.569956 0.553243
v -0.273215 -0.569782 0.5666
v -0.326543 -0.569665 0.526591
v -0.313211 -0.569257 0.539917
v -0.299879 -0.5685 0.553243
v -0.326723 -0.565238 0.540387
v -0.322489 -0.562384 0.548539
v -0.307806 -0.561336 0.56083
v -0.339064 -0.553239 0.537722
v -0.343208 0.0250969 0.534524
v -0.34573 0.0250969 0.532549
v -0.312671 -0.564248 0.553086
v 0.330415 0.0250969 0.544369
v 0.255648 0.0250969 0.601748
v 0.250063 0.0250969 0.605103
v 0.24655 -0.553239 0.607204
v 0.237091 -0.553239 0.612064
v 0.229164 -0.561744 0.61429
v 0.24655 -0.563782 0.603567
v 0.233488 -0.565005 0.607423
v 0.219886 -0.568617 0.606577
v 0.206554 -0.569782 0.606577
v 0.139984 -0.56984 0.633259
v 0.166558 -0.569956 0.619902
v -0.233219 -0.569956 0.593251
v -0.259883 -0.569432 0.579925
v -0.246551 -0.568791 0.593251
v -0.273666 -0.565413 0.580552
v -0.259523 -0.564598 0.593251
v -0.269522 -0.562617 0.58883
v -0.254839 -0.561744 0.601121
v -0.32375 -0.553239 0.549511
v -0.25565 -0.553239 0.601748
v -0.339064 0.0250969 0.537722
v 0.24655 0.0250969 0.607204
v 0.240695 0.0250969 0.610214
v 0.200609 -0.56052 0.626863
v 0.237091 0.0250969 0.612064
v 0.167459 0.0250969 0.64091
v 0.142146 -0.553239 0.651382
v 0.219886 -0.563607 0.616202
v 0.13476 -0.561045 0.653859
v 0.163225 -0.562093 0.641286
v 0.17989 -0.564539 0.631127
v 0.153226 -0.563957 0.643355
v 0.193222 -0.567452 0.619902
v 0.153226 -0.568966 0.633259
v 0.17989 -0.569549 0.619902
v 0.113321 -0.569083 0.646585
v 0.0999887 -0.569549 0.646585
v 0.0866568 -0.569782 0.646585
v 0.0733248 -0.569956 0.646585
v 0.126653 -0.569956 0.633259
v -0.16656 -0.569956 0.619902
v -0.139896 -0.56984 0.633259
v -0.206556 -0.569782 0.606577
v -0.246551 -0.563782 0.603567
v -0.219888 -0.568617 0.606577
v -0.23349 -0.565005 0.607423
v -0.229166 -0.561744 0.61429
v -0.237093 -0.553239 0.612064
v -0.246551 -0.553239 0.607204
v -0.32375 0.0250969 0.549511
v -0.25565 0.0250969 0.601748
v 0.13548 -0.553239 0.654141
v 0.138003 0.0250969 0.653107
v 0.126653 -0.553239 0.656618
v 0.113321 -0.553239 0.659064
v 0.126653 -0.562676 0.654925
v 0.126653 -0.567685 0.646585
v 0.113321 -0.564073 0.656148
v 0.0199971 -0.568617 0.659911
v 0.00666519 -0.569257 0.659911
v -0.0732363 -0.569956 0.646585
v -0.126564 -0.569956 0.633259
v -0.0865682 -0.569782 0.646585
v -0.0999002 -0.569549 0.646585
v -0.113232 -0.569083 0.646585
v -0.153228 -0.568966 0.633259
v -0.179892 -0.569549 0.619902
v -0.219888 -0.563607 0.616202
v -0.193224 -0.567452 0.619902
v -0.153228 -0.563957 0.643355
v -0.179892 -0.564539 0.631127
v -0.163227 -0.562093 0.641286
v -0.134761 -0.561045 0.653859
v -0.20061 -0.56052 0.626863
v -0.237093 0.0250969 0.612064
v -0.242948 0.0250969 0.609085
v -0.142148 -0.553239 0.651382
v -0.246551 0.0250969 0.607204
v 0.13548 0.0250969 0.654141
v 0.126653 0.0250969 0.656618
v 0.113321 0.0250969 0.659064
v 0.0199971 -0.553239 0.671355
v 0.0542278 -0.560171 0.666715
v 0.046661 -0.561161 0.667216
v 0.0333291 -0.562617 0.668094
v 0.0199971 -0.563607 0.668972
v 0.00666519 -0.564248 0.669819
v -0.00657666 -0.569257 0.659911
v -0.113232 -0.564073 0.656148
v -0.126564 -0.567685 0.646585
v -0.0199086 -0.568617 0.659911
v -0.126564 -0.562676 0.654925
v -0.113232 -0.553239 0.659064
v -0.126564 -0.553239 0.656618
v -0.135482 -0.553239 0.654141
v -0.142148 0.0250969 0.651382
v 0.0199971 0.0250969 0.671355
v 0.00666519 -0.553239 0.67308
v -0.00657666 -0.564248 0.669819
v -0.0199086 -0.563607 0.668972
v -0.0332405 -0.562617 0.668094
v -0.0465724 -0.561161 0.667216
v -0.0542293 -0.560171 0.666715
v -0.113232 0.0250969 0.659064
v -0.12152 0.0250969 0.657559
v -0.0546797 -0.553239 0.666777
v -0.0613457 -0.539901 0.665899
v -0.051617 0.0250969 0.667185
v -0.126564 0.0250969 0.656618
v -0.135482 0.0250969 0.654141
v 0.00666519 0.0250969 0.67308
v -0.00657666 -0.553239 0.673048
v -0.0199086 -0.553239 0.671355
v -0.0199086 0.0250969 0.671355
v -0.00657666 0.0250969 0.673048
v -0.0148641 0.0250969 0.672013
f 1 2 3
f 1 3 8
f 1 8 15
f 1 15 30
f 1 30 49
f 1 49 75
f 1 75 63
f 1 63 39
f 1 39 20
f 1 20 10
f 1 10 4
f 1 4 11
f 1 11 24
f 1 24 46
f 1 46 70
f 1 70 94
f 1 94 97
f 1 97 96
f 1 96 113
f 1 113 115
f 1 115 134
f 1 134 133
f 1 133 156
f 1 156 155
f 1 155 179
f 1 179 208
f 1 208 209
f 1 209 236
f 1 236 234
f 1 234 233
f 1 233 254
f 1 254 268
f 1 268 267
f 1 267 263
f 1 263 262
f 1 262 266
f 1 266 272
f 1 272 274
f 1 274 273
f 1 273 269
f 1 269 255
f 1 255 239
f 1 239 238
f 1 238 237
f 1 237 211
f 1 211 184
f 1 184 183
f 1 183 181
f 1 181 180
f 1 180 160
f 1 160 159
f 1 159 158
f 1 158 135
f 1 135 120
f 1 120 106
f 1 106 83
f 1 83 82
f 1 82 81
f 1 81 58
f 1 58 57
f 1 57 33
f 1 33 35
f 1 35 26
f 1 26 25
f 1 25 12
f 1 12 5
f 1 5 2
f 2 5 6
f 2 6 3
f 3 7 8
f 3 6 9
f 3 9 7
f 4 10 23
f 4 23 11
f 5 12 6
f 6 12 13
f 6 13 9
f 7 14 15
f 7 15 8
f 7 9 16
f 7 16 17
f 7 17 14
f 9 13 18
f 9 18 19
f 9 19 17
f 9 17 16
f 10 20 21
f 10 21 22
f 10 22 23
f 11 23 44
f 11 44 24
f 12 25 13
f 13 25 26
f 13 26 18
f 14 27 28
f 14 28 29
f 14 29 15
f 14 17 27
f 15 29 30
f 17 19 31
f 17 31 32
f 17 32 27
f 18 33 34
f 18 34 19
f 18 26 35
f 18 35 33
f 19 36 31
f 19 34 37
f 19 37 38
f 19 38 36
f 20 39 40
f 20 40 21
f 21 40 41
f 21 41 42
f 21 42 22
f 22 43 44
f 22 44 23
f 22 42 41
f 22 41 45
f 22 45 43
f 24 44 43
f 24 43 46
f 27 32 28
f 28 32 29
f 29 32 47
f 29 47 30
f 30 47 48
f 30 48 49
f 31 50 32
f 31 36 51
f 31 51 52
f 31 52 50
f 32 53 54
f 32 54 47
f 32 50 55
f 32 55 56
f 32 56 53
f 33 57 34
f 34 57 58
f 34 58 37
f 36 38 59
f 36 59 51
f 37 58 60
f 37 60 38
f 38 60 61
f 38 61 62
f 38 62 59
f 39 63 64
f 39 64 40
f 40 64 65
f 40 65 66
f 40 66 41
f 41 67 68
f 41 68 45
f 41 66 67
f 43 45 69
f 43 69 70
f 43 70 46
f 45 71 69
f 45 68 72
f 45 72 73
f 45 73 71
f 47 54 48
f 48 54 74
f 48 74 101
f 48 101 116
f 48 116 127
f 48 127 144
f 48 144 169
f 48 169 198
f 48 198 197
f 48 197 219
f 48 219 220
f 48 220 199
f 48 199 170
f 48 170 146
f 48 146 145
f 48 145 128
f 48 128 107
f 48 107 85
f 48 85 75
f 48 75 49
f 50 52 55
f 51 59 62
f 51 62 76
f 51 76 77
f 51 77 52
f 52 77 55
f 53 78 54
f 53 56 79
f 53 79 78
f 54 78 80
f 54 80 74
f 55 77 56
f 56 77 79
f 58 81 60
f 60 81 82
f 60 82 61
f 61 82 62
f 62 82 83
f 62 83 106
f 62 106 84
f 62 84 76
f 63 85 86
f 63 86 64
f 63 75 85
f 64 86 67
f 64 67 65
f 65 67 66
f 67 87 68
f 67 86 88
f 67 88 89
f 67 89 90
f 67 90 91
f 67 91 87
f 68 87 92
f 68 92 93
f 68 93 72
f 69 71 97
f 69 97 94
f 69 94 70
f 71 73 95
f 71 95 96
f 71 96 97
f 72 93 98
f 72 98 73
f 73 99 95
f 73 98 100
f 73 100 99
f 74 80 101
f 76 84 102
f 76 102 103
f 76 103 104
f 76 104 77
f 77 104 105
f 77 105 79
f 78 79 80
f 79 105 80
f 80 105 101
f 84 106 120
f 84 120 102
f 85 107 88
f 85 88 86
f 87 91 92
f 88 107 108
f 88 108 109
f 88 109 89
f 89 109 110
f 89 110 90
f 90 110 111
f 90 111 91
f 91 111 92
f 92 111 93
f 93 111 112
f 93 112 100
f 93 100 98
f 95 99 96
f 96 99 113
f 99 100 115
f 99 115 113
f 100 112 114
f 100 114 134
f 100 134 115
f 101 105 116
f 102 117 118
f 102 118 119
f 102 119 103
f 102 120 135
f 102 135 117
f 103 119 121
f 103 121 122
f 103 122 104
f 104 122 123
f 104 123 124
f 104 124 125
f 104 125 105
f 105 125 126
f 105 126 127
f 105 127 116
f 107 128 108
f 108 128 129
f 108 129 110
f 108 110 109
f 110 129 111
f 111 129 130
f 111 130 112
f 112 131 114
f 112 130 132
f 112 132 131
f 114 131 133
f 114 133 134
f 117 135 158
f 117 158 136
f 117 136 118
f 118 136 137
f 118 137 138
f 118 138 119
f 119 138 139
f 119 139 121
f 121 139 140
f 121 140 122
f 122 140 141
f 122 141 123
f 123 141 142
f 123 142 124
f 124 142 143
f 124 143 125
f 125 143 126
f 126 143 144
f 126 144 127
f 128 145 129
f 129 145 146
f 129 146 147
f 129 147 148
f 129 148 130
f 130 148 149
f 130 149 150
f 130 150 151
f 130 151 132
f 131 132 152
f 131 152 153
f 131 153 154
f 131 154 155
f 131 155 156
f 131 156 133
f 132 151 157
f 132 157 152
f 136 158 159
f 136 159 137
f 137 159 160
f 137 160 161
f 137 161 138
f 138 161 162
f 138 162 163
f 138 163 164
f 138 164 140
f 138 140 139
f 140 164 142
f 140 142 141
f 142 164 165
f 142 165 166
f 142 166 167
f 142 167 144
f 142 144 143
f 144 167 168
f 144 168 169
f 146 170 147
f 147 170 171
f 147 171 148
f 148 171 149
f 149 171 172
f 149 172 150
f 150 173 151
f 150 172 173
f 151 173 174
f 151 174 157
f 152 157 175
f 152 175 176
f 152 176 153
f 153 177 154
f 153 176 178
f 153 178 177
f 154 179 155
f 154 177 208
f 154 208 179
f 157 174 175
f 160 180 161
f 161 180 181
f 161 181 162
f 162 182 163
f 162 181 183
f 162 183 184
f 162 184 185
f 162 185 182
f 163 186 164
f 163 182 187
f 163 187 188
f 163 188 186
f 164 186 165
f 165 186 166
f 166 186 189
f 166 189 190
f 166 190 191
f 166 191 192
f 166 192 193
f 166 193 167
f 167 193 168
f 168 194 195
f 168 195 196
f 168 196 197
f 168 197 198
f 168 198 169
f 168 193 192
f 168 192 194
f 170 199 200
f 170 200 201
f 170 201 203
f 170 203 172
f 170 172 171
f 172 202 174
f 172 174 173
f 172 203 204
f 172 204 202
f 174 202 176
f 174 176 175
f 176 202 205
f 176 205 206
f 176 206 207
f 176 207 178
f 177 178 209
f 177 209 208
f 178 207 236
f 178 236 209
f 182 185 210
f 182 210 187
f 184 211 185
f 185 211 210
f 186 188 190
f 186 190 189
f 187 210 212
f 187 212 213
f 187 213 214
f 187 214 190
f 187 190 188
f 190 192 191
f 190 214 215
f 190 215 192
f 192 215 194
f 194 215 216
f 194 216 217
f 194 217 218
f 194 218 195
f 195 218 196
f 196 218 197
f 197 218 246
f 197 246 219
f 199 220 200
f 200 220 219
f 200 219 221
f 200 221 222
f 200 222 223
f 200 223 224
f 200 224 225
f 200 225 201
f 201 225 203
f 202 204 226
f 202 226 205
f 203 226 204
f 203 225 224
f 203 224 227
f 203 227 228
f 203 228 229
f 203 229 226
f 205 226 230
f 205 230 231
f 205 231 232
f 205 232 206
f 206 233 234
f 206 234 207
f 206 232 235
f 206 235 254
f 206 254 233
f 207 234 236
f 210 211 237
f 210 237 238
f 210 238 212
f 212 238 239
f 212 239 213
f 213 239 255
f 213 255 240
f 213 240 241
f 213 241 214
f 214 241 216
f 214 216 215
f 216 241 242
f 216 242 243
f 216 243 244
f 216 244 245
f 216 245 217
f 217 245 218
f 218 245 257
f 218 257 246
f 219 246 221
f 221 246 222
f 222 246 223
f 223 247 248
f 223 248 224
f 223 246 249
f 223 249 247
f 224 228 227
f 224 248 228
f 226 229 228
f 226 228 230
f 228 248 250
f 228 250 231
f 228 231 230
f 231 250 251
f 231 251 252
f 231 252 253
f 231 253 232
f 232 253 235
f 235 253 268
f 235 268 254
f 240 255 269
f 240 269 256
f 240 256 241
f 241 256 242
f 242 256 243
f 243 256 244
f 244 256 245
f 245 256 257
f 246 257 249
f 247 250 248
f 247 249 257
f 247 257 258
f 247 258 259
f 247 259 260
f 247 260 261
f 247 261 250
f 250 261 251
f 251 262 263
f 251 263 252
f 251 261 264
f 251 264 265
f 251 265 266
f 251 266 262
f 252 263 267
f 252 267 268
f 252 268 253
f 256 269 273
f 256 273 270
f 256 270 257
f 257 270 258
f 258 270 259
f 259 270 260
f 260 270 261
f 261 270 271
f 261 271 264
f 264 271 266
f 264 266 265
f 266 271 272
f 270 273 274
f 270 274 271
f 271 274 272
