v -0.160706 0.192683 -0.289394
v -0.160733 0.192705 -0.289366
v -0.15983 0.192705 -0.289394
v -0.158556 0.0814605 -0.289394
v -0.201182 0.0814605 -0.27174
v -0.201182 0.166647 -0.27174
v -0.201182 0.173507 -0.271614
v -0.201182 0.179616 -0.271336
v -0.201182 0.185899 -0.269973
v -0.201182 0.188426 -0.268818
v -0.16705 0.192705 -0.285332
v 0.0699681 0.192705 -0.289394
v 0.0699681 0.0814605 -0.289394
v -0.201182 0.0814605 -0.147687
v -0.201182 0.189395 -0.265312
v -0.169704 0.192705 -0.282201
v -0.201182 0.190582 -0.260624
v -0.201182 0.191791 -0.252096
v 0.0699681 0.192705 -0.14727
v 0.0699681 0.0814605 -0.14727
v -0.201182 0.166429 -0.147353
v -0.150567 0.0814605 -0.14727
v -0.17626 0.192705 -0.263657
v -0.201182 0.191856 -0.246629
v -0.194972 0.192705 -0.14727
v -0.193644 0.179932 -0.14727
v -0.194149 0.18187 -0.14727
v -0.201182 0.179551 -0.147339
v -0.201182 0.192705 -0.170489
v -0.201182 0.192705 -0.161696
v -0.201182 0.191301 -0.152417
v -0.201182 0.191148 -0.152347
v -0.201182 0.179976 -0.147353
f 1 2 3
f 1 3 12
f 1 12 13
f 1 13 4
f 1 4 5
f 1 5 6
f 1 6 7
f 1 7 8
f 1 8 9
f 1 9 10
f 1 10 2
f 2 10 11
f 2 11 16
f 2 16 23
f 2 23 29
f 2 29 30
f 2 30 25
f 2 25 19
f 2 19 12
f 2 12 3
f 4 13 20
f 4 20 22
f 4 22 14
f 4 14 5
f 5 14 21
f 5 21 28
f 5 28 33
f 5 33 32
f 5 32 31
f 5 31 30
f 5 30 29
f 5 29 24
f 5 24 18
f 5 18 17
f 5 17 15
f 5 15 10
f 5 10 9
f 5 9 8
f 5 8 7
f 5 7 6
f 10 15 11
f 11 15 17
f 11 17 18
f 11 18 16
f 12 19 20
f 12 20 13
f 14 22 21
f 16 18 23
f 18 24 23
f 19 25 27
f 19 27 26
f 19 26 22
f 19 22 20
f 21 26 27
f 21 27 28
f 21 22 26
f 23 24 29
f 25 30 31
f 25 31 32
f 25 32 33
f 25 33 28
f 25 28 27
