v 0.35121 0.0380493 0.0416478
v 0.35121 0.0814605 0.0309544
v 0.268972 0.0814605 -0.0952981
v 0.268972 0.0380493 -0.0913527
v 0.35121 0.0380493 -0.17192
v 0.35121 0.0814605 -0.17192
v 0.268972 0.0814605 -0.236325
v 0.268972 0.0380493 -0.236325
v 0.348473 0.0380493 -0.175022
v 0.351073 0.0814605 -0.172084
v 0.296135 0.0814605 -0.215483
v 0.296135 0.0380493 -0.215483
v 0.340164 0.0380493 -0.181689
v 0.348473 0.0814605 -0.175022
v 0.302801 0.0814605 -0.210367
v 0.302801 0.0380493 -0.210367
v 0.340164 0.0814605 -0.181689
f 1 2 3
f 1 3 4
f 1 4 8
f 1 8 12
f 1 12 16
f 1 16 13
f 1 13 9
f 1 9 5
f 1 5 6
f 1 6 2
f 2 6 10
f 2 10 14
f 2 14 17
f 2 17 15
f 2 15 11
f 2 11 7
f 2 7 3
f 3 7 8
f 3 8 4
f 5 9 10
f 5 10 6
f 7 11 12
f 7 12 8
f 9 13 17
f 9 17 14
f 9 14 10
f 11 15 16
f 11 16 12
f 13 16 15
f 13 15 17
