v 0.019981 0.192022 0.214213
v 0.0331413 0.0330763 0.244514
v 0.0286972 0.188443 0.214213
v 0.0066734 0.186359 0.214213
v -0.00452265 0.0330763 0.244481
v 0.00861307 0.0330763 0.244741
v 0.019981 0.0330763 0.244789
v 0.0466453 0.0330763 0.241868
v 0.0772135 0.144102 0.214213
v 0.0725484 0.148691 0.214213
v 0.070486 0.150621 0.214213
v 0.0444601 0.174876 0.214213
v 0.0399669 0.179062 0.214213
v 0.0326502 0.185876 0.214213
v -0.000913397 0.179295 0.214213
v -0.0326601 0.149718 0.214213
v -0.0710606 0.0330763 0.231012
v 0.0998757 0.0330763 0.231141
v 0.0806754 0.138547 0.214213
v -0.0403697 0.139979 0.214213
v -0.109216 0.0330763 0.215883
v 0.13997 0.0330763 0.215595
v 0.141443 0.0330763 0.214213
v -0.109387 0.0330763 0.214213
f 1 2 3
f 1 3 14
f 1 14 13
f 1 13 12
f 1 12 11
f 1 11 10
f 1 10 9
f 1 9 19
f 1 19 23
f 1 23 24
f 1 24 20
f 1 20 16
f 1 16 15
f 1 15 4
f 1 4 5
f 1 5 6
f 1 6 7
f 1 7 2
f 2 8 9
f 2 9 10
f 2 10 11
f 2 11 12
f 2 12 13
f 2 13 14
f 2 14 3
f 2 7 6
f 2 6 5
f 2 5 17
f 2 17 21
f 2 21 24
f 2 24 23
f 2 23 22
f 2 22 18
f 2 18 8
f 4 15 5
f 5 15 16
f 5 16 17
f 8 18 9
f 9 18 19
f 16 20 17
f 17 20 21
f 18 22 19
f 19 22 23
f 20 24 21
