v 0.189602 0.0431895 0.509319
v 0.191358 0.166643 0.509319
v 0.365803 0.0431895 0.509319
v 0.00697214 0.0431895 0.557018
v 0.192026 0.179975 0.509319
v 0.365803 0.166643 0.509319
v 0.362572 0.0431895 0.513518
v 0.00697214 0.0431895 0.673045
v 0.00697214 0.166643 0.560592
v 0.196628 0.188199 0.509319
v 0.00697214 0.180295 0.560993
v 0.365698 0.17034 0.509319
v 0.358778 0.166643 0.518438
v 0.358778 0.0431895 0.518438
v 0.0200046 0.0431895 0.671345
v 0.00697214 0.166643 0.673045
v 0.198911 0.188897 0.509319
v 0.0136464 0.184953 0.560047
v 0.0225338 0.187282 0.559422
v 0.00697214 0.189087 0.567244
v 0.365382 0.179975 0.509319
v 0.358426 0.179975 0.518214
v 0.352103 0.166643 0.525907
v 0.363661 0.179975 0.511546
v 0.352103 0.0431895 0.525907
v 0.0200046 0.166643 0.671345
v 0.0333532 0.0431895 0.669598
v 0.00697214 0.179975 0.672564
v 0.054184 0.179975 0.666697
v 0.0333532 0.179975 0.669374
v 0.0200046 0.179975 0.671057
v 0.210011 0.190731 0.509319
v 0.00697214 0.189247 0.567484
v 0.362466 0.188373 0.509319
v 0.362291 0.18833 0.509751
v 0.351752 0.179975 0.525587
v 0.345499 0.179975 0.532255
v 0.345745 0.166643 0.532575
v 0.345745 0.0431895 0.532575
v 0.0333532 0.166643 0.669598
v 0.0547812 0.0431895 0.666778
v 0.00697214 0.18015 0.672516
v 0.0535166 0.18667 0.666601
v 0.0547812 0.166643 0.666778
v 0.113339 0.166643 0.659068
v 0.223922 0.191867 0.509319
v 0.00697214 0.191867 0.579938
v 0.35797 0.18964 0.509319
v 0.35386 0.189742 0.513838
v 0.349785 0.188373 0.523503
v 0.336823 0.188373 0.535877
v 0.32221 0.188053 0.548331
v 0.307596 0.187355 0.560688
v 0.33886 0.179975 0.537448
v 0.323545 0.179975 0.549356
v 0.339071 0.166643 0.537736
v 0.344024 0.0431895 0.533921
v 0.113339 0.0431895 0.659068
v 0.0466666 0.187194 0.667034
v 0.0333532 0.188097 0.667883
v 0.0200046 0.188766 0.668669
v 0.00697214 0.18913 0.669342
v 0.113339 0.179975 0.658683
v 0.134486 0.187194 0.653731
v 0.126653 0.188155 0.654692
v 0.113339 0.189028 0.655782
v 0.123175 0.0431895 0.657257
v 0.126653 0.166643 0.656616
v 0.126653 0.179975 0.656375
v 0.339949 0.191867 0.509319
v 0.00697214 0.191867 0.646582
v 0.353649 0.190411 0.509319
v 0.340757 0.189771 0.527414
v 0.326636 0.189567 0.540172
v 0.312549 0.188956 0.552979
v 0.259436 0.189188 0.593129
v 0.269272 0.188199 0.588609
v 0.254659 0.187602 0.600967
v 0.308229 0.179975 0.561185
v 0.255502 0.179975 0.601608
v 0.336823 0.0431895 0.539483
v 0.330394 0.166643 0.544404
v 0.00697214 0.189188 0.669166
v 0.162975 0.187849 0.641117
v 0.15335 0.188854 0.642784
v 0.135294 0.179975 0.654067
v 0.200386 0.186845 0.626756
v 0.22884 0.187602 0.614158
v 0.126653 0.19076 0.646582
v 0.113339 0.191634 0.646582
v 0.0200046 0.191372 0.659918
v 0.126653 0.0431895 0.656616
v 0.135505 0.166643 0.654164
v 0.339949 0.191867 0.513277
v 0.343919 0.191852 0.509319
v 0.00697214 0.19175 0.659645
v 0.0866773 0.191867 0.646582
v 0.326601 0.191852 0.526613
v 0.313287 0.191619 0.539948
v 0.299939 0.191095 0.553283
v 0.246614 0.19127 0.593257
v 0.273558 0.189654 0.580306
v 0.246614 0.188664 0.602986
v 0.246614 0.179975 0.606624
v 0.277668 0.166643 0.584858
v 0.299939 0.166643 0.567773
v 0.315044 0.166643 0.556184
v 0.246614 0.166643 0.607218
v 0.255642 0.166643 0.601736
v 0.262317 0.166643 0.596623
v 0.306191 0.0431895 0.562996
v 0.00697214 0.191736 0.659918
v 0.219952 0.188664 0.615728
v 0.15335 0.191459 0.633263
v 0.219952 0.191284 0.606592
v 0.19329 0.190629 0.619928
v 0.15335 0.166643 0.646775
v 0.171616 0.166643 0.639209
v 0.200808 0.179975 0.626932
v 0.23021 0.179975 0.614719
v 0.236849 0.179975 0.611609
v 0.180012 0.191779 0.619928
v 0.140001 0.191867 0.633263
v 0.0999907 0.191837 0.646582
v 0.135505 0.0431895 0.654164
v 0.161921 0.0431895 0.643232
v 0.273277 0.191867 0.566619
v 0.259963 0.191721 0.579938
v 0.233301 0.191867 0.593257
v 0.275946 0.0431895 0.586205
v 0.253289 0.0431895 0.603178
v 0.237095 0.166643 0.612074
v 0.246614 0.0431895 0.607218
v 0.255642 0.0431895 0.601736
v 0.206639 0.191867 0.606592
v 0.180012 0.166643 0.635731
v 0.216756 0.0431895 0.620505
v 0.237095 0.0431895 0.612074
f 1 2 5
f 1 5 10
f 1 10 17
f 1 17 32
f 1 32 46
f 1 46 70
f 1 70 95
f 1 95 72
f 1 72 48
f 1 48 34
f 1 34 21
f 1 21 12
f 1 12 6
f 1 6 3
f 1 3 7
f 1 7 14
f 1 14 25
f 1 25 39
f 1 39 57
f 1 57 81
f 1 81 111
f 1 111 130
f 1 130 134
f 1 134 131
f 1 131 133
f 1 133 138
f 1 138 137
f 1 137 126
f 1 126 125
f 1 125 92
f 1 92 67
f 1 67 58
f 1 58 41
f 1 41 27
f 1 27 15
f 1 15 8
f 1 8 4
f 1 4 2
f 2 4 5
f 3 6 7
f 4 8 16
f 4 16 28
f 4 28 42
f 4 42 62
f 4 62 83
f 4 83 112
f 4 112 96
f 4 96 71
f 4 71 47
f 4 47 33
f 4 33 20
f 4 20 11
f 4 11 9
f 4 9 5
f 5 9 11
f 5 11 10
f 6 12 13
f 6 13 7
f 7 13 14
f 8 15 26
f 8 26 16
f 10 11 18
f 10 18 19
f 10 19 17
f 11 20 18
f 12 21 13
f 13 22 23
f 13 23 25
f 13 25 14
f 13 21 24
f 13 24 22
f 15 27 40
f 15 40 26
f 16 26 29
f 16 29 30
f 16 30 31
f 16 31 28
f 17 19 33
f 17 33 32
f 18 20 19
f 19 20 33
f 21 34 35
f 21 35 24
f 22 24 35
f 22 35 36
f 22 36 23
f 23 36 37
f 23 37 38
f 23 38 39
f 23 39 25
f 26 40 29
f 27 41 44
f 27 44 40
f 28 31 43
f 28 43 42
f 29 43 30
f 29 40 44
f 29 44 45
f 29 45 43
f 30 43 31
f 32 33 46
f 33 47 46
f 34 48 35
f 35 48 49
f 35 49 50
f 35 50 36
f 36 50 37
f 37 51 52
f 37 52 53
f 37 53 54
f 37 54 38
f 37 50 51
f 38 54 55
f 38 55 56
f 38 56 57
f 38 57 39
f 41 58 45
f 41 45 44
f 42 43 59
f 42 59 60
f 42 60 61
f 42 61 62
f 43 45 63
f 43 63 64
f 43 64 65
f 43 65 66
f 43 66 59
f 45 58 67
f 45 67 68
f 45 68 69
f 45 69 63
f 46 47 71
f 46 71 97
f 46 97 123
f 46 123 135
f 46 135 129
f 46 129 127
f 46 127 94
f 46 94 70
f 48 72 49
f 49 72 73
f 49 73 50
f 50 73 51
f 51 73 74
f 51 74 52
f 52 74 75
f 52 75 76
f 52 76 77
f 52 77 78
f 52 78 53
f 53 79 55
f 53 55 54
f 53 78 80
f 53 80 79
f 55 79 56
f 56 81 57
f 56 79 82
f 56 82 81
f 59 66 60
f 60 66 61
f 61 66 62
f 62 66 83
f 63 69 64
f 64 84 85
f 64 85 65
f 64 69 86
f 64 86 87
f 64 87 88
f 64 88 84
f 65 85 89
f 65 89 66
f 66 89 90
f 66 90 91
f 66 91 83
f 67 92 68
f 68 93 86
f 68 86 69
f 68 92 125
f 68 125 93
f 70 94 95
f 71 96 97
f 72 95 73
f 73 95 94
f 73 94 98
f 73 98 99
f 73 99 74
f 74 99 100
f 74 100 101
f 74 101 102
f 74 102 76
f 74 76 75
f 76 101 103
f 76 103 78
f 76 78 77
f 76 102 101
f 78 103 88
f 78 88 104
f 78 104 80
f 79 105 106
f 79 106 107
f 79 107 82
f 79 80 105
f 80 104 108
f 80 108 109
f 80 109 110
f 80 110 105
f 81 82 111
f 82 107 111
f 83 91 112
f 84 88 113
f 84 113 85
f 85 114 89
f 85 113 115
f 85 115 116
f 85 116 114
f 86 93 117
f 86 117 118
f 86 118 119
f 86 119 87
f 87 119 120
f 87 120 88
f 88 120 121
f 88 121 104
f 88 103 113
f 89 114 90
f 90 114 122
f 90 122 123
f 90 123 124
f 90 124 112
f 90 112 91
f 93 125 126
f 93 126 117
f 94 127 98
f 96 112 124
f 96 124 97
f 97 124 123
f 98 127 128
f 98 128 99
f 99 128 101
f 99 101 100
f 101 128 129
f 101 129 115
f 101 115 103
f 103 115 113
f 104 121 108
f 105 110 130
f 105 130 106
f 106 130 107
f 107 130 111
f 108 131 109
f 108 121 132
f 108 132 138
f 108 138 133
f 108 133 131
f 109 131 134
f 109 134 130
f 109 130 110
f 114 116 115
f 114 115 122
f 115 129 135
f 115 135 122
f 117 126 118
f 118 136 119
f 118 126 136
f 119 136 132
f 119 132 120
f 120 132 121
f 122 135 123
f 126 137 132
f 126 132 136
f 127 129 128
f 132 137 138
