v -0.193076 0.166643 0.630329
v -0.193076 0.0431895 0.630329
v -0.193076 0.179975 0.63003
v -0.200815 0.179975 0.626933
v -0.237128 0.166643 0.612071
v -0.232213 0.0431895 0.614109
v -0.193076 0.0431895 0.507195
v -0.193076 0.188053 0.628156
v -0.200396 0.186845 0.626743
v -0.230226 0.179975 0.614707
v -0.236893 0.179975 0.611609
v -0.246644 0.179975 0.606637
v -0.246644 0.166643 0.607208
v -0.237128 0.0431895 0.612071
v -0.196422 0.0431895 0.503473
v -0.193076 0.166643 0.508228
v -0.193338 0.188024 0.628101
v -0.193076 0.190658 0.619923
v -0.193338 0.190629 0.619923
v -0.219978 0.188664 0.615712
v -0.228893 0.187602 0.614163
v -0.254696 0.187602 0.600959
v -0.255533 0.179975 0.601611
v -0.25569 0.166643 0.601747
v -0.249023 0.0431895 0.605795
v -0.246644 0.0431895 0.607208
v -0.33799 0.0431895 0.352762
v -0.193076 0.170165 0.508309
v -0.339402 0.167225 0.352762
v -0.193076 0.191867 0.606583
v -0.206645 0.191867 0.606583
v -0.219978 0.191284 0.606583
v -0.246644 0.188664 0.602969
v -0.259481 0.189188 0.593134
v -0.269311 0.188199 0.588596
v -0.322251 0.188053 0.548303
v -0.307637 0.187355 0.560666
v -0.308265 0.179975 0.561155
v -0.25569 0.0431895 0.601747
v -0.308421 0.166643 0.561291
v -0.460133 0.0431895 0.352762
v -0.193076 0.179975 0.508635
v -0.339977 0.179975 0.352762
v -0.193076 0.191867 0.539935
v -0.233311 0.191867 0.593242
v -0.246644 0.19127 0.593242
v -0.273572 0.189654 0.580282
v -0.326644 0.189567 0.540152
v -0.312578 0.188956 0.552949
v -0.33684 0.188373 0.53586
v -0.345519 0.179975 0.532246
v -0.323585 0.179975 0.549336
v -0.323768 0.166643 0.549499
v -0.339088 0.166643 0.537707
v -0.330408 0.166643 0.544391
v -0.308421 0.0431895 0.561291
v -0.325519 0.0431895 0.548168
v -0.460133 0.166643 0.352762
v -0.449806 0.0431895 0.377704
v -0.193076 0.181562 0.508853
v -0.340055 0.180397 0.352762
v -0.193076 0.191837 0.526595
v -0.193338 0.191852 0.526595
v -0.353284 0.191867 0.366645
v -0.273311 0.191867 0.566589
v -0.259977 0.191721 0.579929
v -0.31331 0.191619 0.539935
v -0.299977 0.191095 0.553248
v -0.340735 0.189771 0.527383
v -0.349807 0.188373 0.52347
v -0.345754 0.166643 0.532545
v -0.351741 0.179975 0.525562
v -0.352133 0.166643 0.525888
v -0.340839 0.0431895 0.536376
v -0.440263 0.166643 0.400744
v -0.440159 0.179975 0.400526
v -0.455087 0.179975 0.364418
v -0.459584 0.179975 0.352762
v -0.440263 0.0431895 0.400744
v -0.198906 0.187355 0.505837
v -0.193076 0.189116 0.513607
v -0.343585 0.188897 0.352762
v -0.353258 0.191488 0.352762
v -0.353284 0.191561 0.353305
v -0.366617 0.191867 0.352762
v -0.339951 0.191867 0.513254
v -0.326617 0.191852 0.526595
v -0.353284 0.191823 0.499941
v -0.353859 0.189742 0.513798
v -0.362277 0.18833 0.509722
v -0.347428 0.0431895 0.530806
v -0.345754 0.0431895 0.532545
v -0.358408 0.179975 0.518199
v -0.3588 0.166643 0.518417
v -0.352133 0.0431895 0.525888
v -0.438224 0.0431895 0.405661
v -0.437492 0.166643 0.4074
v -0.440028 0.186758 0.4002
v -0.432028 0.166643 0.41998
v -0.431558 0.179975 0.41998
v -0.454407 0.187791 0.36276
v -0.45642 0.188402 0.352762
v -0.433283 0.191867 0.352762
v -0.37995 0.191867 0.459974
v -0.393283 0.191852 0.446634
v -0.366617 0.191474 0.486628
v -0.406617 0.191605 0.433293
v -0.366669 0.189421 0.499724
v -0.414983 0.188039 0.442205
v -0.374695 0.187864 0.495132
v -0.387035 0.187078 0.480515
v -0.363689 0.179975 0.511515
v -0.3588 0.0431895 0.518417
v -0.375532 0.179975 0.496219
v -0.382199 0.179975 0.487606
v -0.387349 0.179975 0.480949
v -0.382355 0.166643 0.487742
v -0.437492 0.0431895 0.4074
v -0.441361 0.187937 0.393299
v -0.42727 0.18734 0.427588
v -0.432028 0.0431895 0.41998
v -0.427793 0.166643 0.428348
v -0.427688 0.179975 0.428212
v -0.456028 0.18881 0.353305
v -0.456185 0.188825 0.352762
v -0.446616 0.191444 0.352762
v -0.433283 0.191867 0.366645
v -0.41995 0.191867 0.40664
v -0.41995 0.191081 0.41998
v -0.37995 0.190877 0.473287
v -0.406826 0.189567 0.446634
v -0.419636 0.188941 0.432532
v -0.422643 0.179975 0.434869
v -0.382355 0.0431895 0.487742
v -0.4228 0.166643 0.435005
v -0.411035 0.166643 0.450356
v -0.399244 0.166643 0.465734
v -0.428839 0.188475 0.41998
v -0.427793 0.0431895 0.428348
v -0.424107 0.0431895 0.433266
v -0.446616 0.19143 0.353305
v -0.443793 0.189145 0.379959
v -0.433283 0.190542 0.393299
v -0.433283 0.191765 0.379959
v -0.399244 0.0431895 0.465734
v -0.412368 0.0431895 0.448617
v -0.4228 0.0431895 0.435005
f 1 2 7
f 1 7 16
f 1 16 28
f 1 28 42
f 1 42 60
f 1 60 81
f 1 81 62
f 1 62 44
f 1 44 30
f 1 30 18
f 1 18 8
f 1 8 3
f 1 3 4
f 1 4 5
f 1 5 6
f 1 6 2
f 2 6 14
f 2 14 26
f 2 26 25
f 2 25 39
f 2 39 56
f 2 56 57
f 2 57 74
f 2 74 92
f 2 92 91
f 2 91 95
f 2 95 113
f 2 113 134
f 2 134 145
f 2 145 146
f 2 146 147
f 2 147 140
f 2 140 139
f 2 139 121
f 2 121 118
f 2 118 96
f 2 96 79
f 2 79 59
f 2 59 41
f 2 41 27
f 2 27 15
f 2 15 7
f 3 8 9
f 3 9 4
f 4 9 10
f 4 10 5
f 5 10 11
f 5 11 12
f 5 12 13
f 5 13 26
f 5 26 14
f 5 14 6
f 7 15 16
f 8 17 9
f 8 18 19
f 8 19 20
f 8 20 21
f 8 21 17
f 9 17 21
f 9 21 10
f 10 21 11
f 11 21 12
f 12 22 23
f 12 23 13
f 12 21 22
f 13 23 24
f 13 24 25
f 13 25 26
f 15 27 16
f 16 27 29
f 16 29 28
f 18 30 31
f 18 31 32
f 18 32 19
f 19 32 20
f 20 32 33
f 20 33 21
f 21 33 22
f 22 33 34
f 22 34 35
f 22 35 36
f 22 36 37
f 22 37 23
f 23 37 38
f 23 38 40
f 23 40 24
f 24 39 25
f 24 40 56
f 24 56 39
f 27 41 58
f 27 58 78
f 27 78 102
f 27 102 125
f 27 125 126
f 27 126 103
f 27 103 85
f 27 85 83
f 27 83 82
f 27 82 61
f 27 61 43
f 27 43 29
f 28 29 42
f 29 43 42
f 30 44 64
f 30 64 85
f 30 85 103
f 30 103 127
f 30 127 128
f 30 128 104
f 30 104 86
f 30 86 65
f 30 65 45
f 30 45 31
f 31 45 32
f 32 45 46
f 32 46 33
f 33 46 34
f 34 46 47
f 34 47 48
f 34 48 49
f 34 49 36
f 34 36 35
f 36 48 50
f 36 50 51
f 36 51 37
f 36 49 48
f 37 51 52
f 37 52 38
f 38 53 40
f 38 52 54
f 38 54 55
f 38 55 53
f 40 53 57
f 40 57 56
f 41 59 58
f 42 43 60
f 43 61 60
f 44 62 63
f 44 63 64
f 45 65 66
f 45 66 46
f 46 66 67
f 46 67 68
f 46 68 48
f 46 48 47
f 48 68 67
f 48 67 69
f 48 69 50
f 50 69 70
f 50 70 51
f 51 71 52
f 51 70 72
f 51 72 73
f 51 73 71
f 52 71 54
f 53 55 57
f 54 71 74
f 54 74 55
f 55 74 57
f 58 59 75
f 58 75 76
f 58 76 77
f 58 77 78
f 59 79 75
f 60 80 81
f 60 61 82
f 60 82 80
f 62 81 83
f 62 83 84
f 62 84 63
f 63 84 85
f 63 85 64
f 65 86 87
f 65 87 66
f 66 87 67
f 67 87 69
f 69 87 86
f 69 86 88
f 69 88 89
f 69 89 70
f 70 89 90
f 70 90 72
f 71 73 91
f 71 91 92
f 71 92 74
f 72 90 93
f 72 93 73
f 73 93 94
f 73 94 113
f 73 113 95
f 73 95 91
f 75 79 96
f 75 96 97
f 75 97 76
f 76 98 77
f 76 97 99
f 76 99 100
f 76 100 98
f 77 101 78
f 77 98 101
f 78 101 102
f 80 82 81
f 81 82 83
f 83 85 84
f 86 104 105
f 86 105 88
f 88 106 89
f 88 105 107
f 88 107 106
f 89 106 108
f 89 108 90
f 90 108 109
f 90 109 110
f 90 110 93
f 93 110 111
f 93 111 112
f 93 112 94
f 94 112 114
f 94 114 115
f 94 115 116
f 94 116 117
f 94 117 134
f 94 134 113
f 96 118 97
f 97 118 121
f 97 121 99
f 98 119 101
f 98 100 120
f 98 120 119
f 99 121 139
f 99 139 122
f 99 122 123
f 99 123 100
f 100 123 120
f 101 124 125
f 101 125 102
f 101 119 124
f 103 126 127
f 104 128 105
f 105 128 107
f 106 107 129
f 106 129 130
f 106 130 108
f 107 128 129
f 108 130 131
f 108 131 132
f 108 132 109
f 109 132 120
f 109 120 110
f 110 120 111
f 111 116 115
f 111 115 114
f 111 114 112
f 111 120 133
f 111 133 116
f 116 133 135
f 116 135 136
f 116 136 137
f 116 137 117
f 117 137 145
f 117 145 134
f 119 120 138
f 119 138 124
f 120 132 138
f 120 123 133
f 122 140 135
f 122 135 123
f 122 139 140
f 123 135 133
f 124 141 125
f 124 138 142
f 124 142 143
f 124 143 141
f 125 141 126
f 126 141 144
f 126 144 127
f 127 144 128
f 128 144 129
f 129 138 132
f 129 132 131
f 129 131 130
f 129 144 141
f 129 141 143
f 129 143 138
f 135 146 136
f 135 140 147
f 135 147 146
f 136 146 137
f 137 146 145
f 138 143 142
