v 0.495505 0.0814605 0.179968
v 0.494305 0.0814605 0.19331
v 0.495322 0.0312966 0.182009
v 0.495505 0.0312966 0.179968
v 0.495025 0.0312966 0.168666
v 0.494926 0.0814605 0.166625
v 0.493937 0.0814605 0.196145
v 0.494163 0.0312966 0.194406
v 0.494305 0.0312966 0.19331
v 0.494926 0.0312966 0.166625
v 0.494163 0.0814605 0.160728
v 0.492115 0.0814605 0.209942
v 0.49155 0.0312966 0.214213
v 0.492214 0.0312966 0.209186
v 0.493217 0.0312966 0.201588
v 0.493669 0.0312966 0.156986
v 0.491635 0.0312966 0.141527
v 0.49196 0.0814605 0.143984
v 0.49155 0.0814605 0.214213
v 0.351218 0.0312966 0.214213
v 0.482653 0.0312966 0.0733016
v 0.482653 0.0814605 0.0733016
v 0.37907 0.0814605 0.214213
v 0.351218 0.0324751 0.214213
v 0.351218 0.0312966 -0.171932
v 0.480887 0.0312966 0.0599589
v 0.481579 0.0814605 0.065175
v 0.351218 0.0814605 0.03093
v 0.351218 0.0814605 -0.171932
v 0.355144 0.0312966 -0.167472
v 0.479983 0.0312966 0.053193
v 0.480887 0.0814605 0.0599589
v 0.355144 0.0814605 -0.167472
v 0.355978 0.0312966 -0.166489
v 0.479983 0.0814605 0.053193
v 0.477808 0.0312966 0.0465028
v 0.357277 0.0814605 -0.164902
v 0.360624 0.0814605 -0.160819
v 0.360624 0.0312966 -0.160819
v 0.477808 0.0814605 0.0465028
v 0.472921 0.0312966 0.0333113
v 0.474828 0.0814605 0.0384518
v 0.3615 0.0312966 -0.159686
v 0.366401 0.0814605 -0.153298
v 0.472921 0.0814605 0.0333113
v 0.468388 0.0312966 0.0223498
v 0.377516 0.0814605 -0.138821
v 0.384974 0.0312966 -0.129107
v 0.468388 0.0814605 0.0223498
v 0.434901 0.0312966 -0.0584246
v 0.397967 0.0814605 -0.112173
v 0.396753 0.0312966 -0.113761
v 0.435903 0.0814605 -0.0560055
v 0.434251 0.0312966 -0.0599743
v 0.434251 0.0814605 -0.0599743
v 0.41798 0.0814605 -0.0860927
v 0.41798 0.0312966 -0.0860927
v 0.431087 0.0814605 -0.0664378
v 0.429844 0.0312966 -0.0689702
v 0.424633 0.0814605 -0.077248
v 0.424633 0.0312966 -0.077248
v 0.429053 0.0814605 -0.0705577
v 0.429053 0.0312966 -0.0705577
v 0.425311 0.0312966 -0.0762274
f 1 2 3
f 1 3 4
f 1 4 5
f 1 5 6
f 1 6 11
f 1 11 18
f 1 18 22
f 1 22 27
f 1 27 32
f 1 32 35
f 1 35 40
f 1 40 42
f 1 42 45
f 1 45 49
f 1 49 53
f 1 53 55
f 1 55 58
f 1 58 62
f 1 62 60
f 1 60 56
f 1 56 51
f 1 51 47
f 1 47 44
f 1 44 38
f 1 38 37
f 1 37 33
f 1 33 29
f 1 29 28
f 1 28 23
f 1 23 19
f 1 19 12
f 1 12 7
f 1 7 2
f 2 7 8
f 2 8 9
f 2 9 3
f 3 9 8
f 3 8 15
f 3 15 14
f 3 14 13
f 3 13 20
f 3 20 25
f 3 25 30
f 3 30 34
f 3 34 39
f 3 39 43
f 3 43 48
f 3 48 52
f 3 52 57
f 3 57 61
f 3 61 64
f 3 64 63
f 3 63 59
f 3 59 54
f 3 54 50
f 3 50 46
f 3 46 41
f 3 41 36
f 3 36 31
f 3 31 26
f 3 26 21
f 3 21 17
f 3 17 16
f 3 16 10
f 3 10 5
f 3 5 4
f 5 10 6
f 6 10 11
f 7 12 13
f 7 13 14
f 7 14 15
f 7 15 8
f 10 16 11
f 11 16 17
f 11 17 18
f 12 19 13
f 13 19 23
f 13 23 24
f 13 24 20
f 17 21 18
f 18 21 22
f 20 24 28
f 20 28 29
f 20 29 25
f 21 26 27
f 21 27 22
f 23 28 24
f 25 29 33
f 25 33 30
f 26 31 35
f 26 35 32
f 26 32 27
f 30 33 34
f 31 36 40
f 31 40 35
f 33 37 34
f 34 37 38
f 34 38 39
f 36 41 42
f 36 42 40
f 38 43 39
f 38 44 43
f 41 45 42
f 41 46 49
f 41 49 45
f 43 44 47
f 43 47 48
f 46 50 49
f 47 51 52
f 47 52 48
f 49 50 53
f 50 54 55
f 50 55 53
f 51 56 52
f 52 56 57
f 54 58 55
f 54 59 58
f 56 60 61
f 56 61 57
f 58 59 62
f 59 63 62
f 60 62 64
f 60 64 61
f 62 63 64
