v -0.193295 0.192705 -0.479593
v -0.193295 0.189798 -0.475825
v -0.20038 0.17305 -0.453631
v -0.198211 0.192705 -0.478549
v 0.0699681 0.192705 -0.479593
v -0.193295 0.178016 -0.46047
v 0.0699681 0.189798 -0.475825
v 0.0699681 0.116851 -0.380755
v -0.201204 0.171656 -0.446611
v -0.204005 0.18052 -0.458821
v -0.207053 0.192705 -0.473117
v -0.202659 0.185333 -0.468306
v -0.193295 0.172909 -0.453798
v -0.179977 0.156074 -0.431785
v -0.161359 0.132771 -0.40071
v -0.177176 0.145054 -0.415385
v -0.189259 0.157413 -0.43006
v -0.206916 0.192705 -0.473208
v 0.0699681 0.192705 -0.325051
v -0.153313 0.137562 -0.407745
v -0.166631 0.149344 -0.423101
v 0.0699681 0.0932863 -0.350044
v -0.201204 0.171362 -0.436475
v -0.205735 0.179976 -0.446611
v -0.210568 0.192705 -0.460712
v -0.189588 0.15517 -0.419939
v -0.166631 0.144237 -0.416429
v -0.146695 0.119943 -0.37372
v -0.161771 0.131943 -0.393297
v -0.177533 0.14354 -0.406611
v -0.153313 0.132477 -0.401089
v -0.126649 0.11586 -0.379076
v -0.110859 0.104949 -0.362464
v -0.139967 0.118038 -0.376504
v 0.0699681 0.088789 -0.325051
v -0.163034 0.192705 -0.325051
v -0.139967 0.126477 -0.393297
v -0.0600022 0.0971193 -0.355036
v 0.0699681 0.0920014 -0.348364
v -0.0333381 0.0920014 -0.348364
v -0.199611 0.174575 -0.427579
v -0.202687 0.179399 -0.432526
v -0.209909 0.192705 -0.446611
v -0.18794 0.156139 -0.409818
v -0.184425 0.152339 -0.405869
v -0.146695 0.119943 -0.373236
v -0.161002 0.132041 -0.385067
v -0.175061 0.144096 -0.397291
v -0.0999846 0.103936 -0.36372
v -0.0810095 0.0930358 -0.347184
v -0.110859 0.104949 -0.356065
v 0.0699681 0.0869596 -0.339968
v 0.0616476 0.0870032 -0.325051
v -0.18275 0.192705 -0.36788
v -0.186183 0.161235 -0.400937
v -0.162787 0.192368 -0.325051
v -0.0866388 0.103784 -0.36372
v -0.0999846 0.108901 -0.370377
v -0.0466839 0.0920122 -0.348364
v 0.0599725 0.0864696 -0.339968
v 0.0466542 0.086034 -0.339968
v 0.0333084 0.08574 -0.339968
v 0.0199901 0.0856094 -0.339968
v -0.189478 0.166059 -0.405869
v -0.188545 0.192705 -0.381542
v -0.202083 0.192705 -0.420575
v -0.206449 0.192705 -0.433253
v -0.147272 0.172408 -0.325051
v -0.154054 0.18088 -0.325051
v -0.159189 0.187598 -0.325051
v -0.106246 0.107083 -0.347169
v -0.0600022 0.0920885 -0.348364
v -0.0733205 0.092524 -0.34791
v -0.0810095 0.0930358 -0.346125
v -0.00955737 0.0814605 -0.329377
v -0.0116993 0.0814605 -0.32738
v -0.0138961 0.0814605 -0.325051
v -0.0973484 0.103566 -0.343795
v 0.0599725 0.0866874 -0.325051
v 0.0485764 0.0850431 -0.325051
v 0.0205667 0.0814605 -0.325051
v 0.0205667 0.0814605 -0.325262
v 0.0202372 0.0814605 -0.326382
v 0.0188642 0.0814605 -0.327048
v 0.00664429 0.0814605 -0.332812
v 0.00664429 0.0857182 -0.339968
v -0.141038 0.166331 -0.325051
v -0.100149 0.126673 -0.325051
v 0.00409047 0.0814605 -0.332706
v -0.0184271 0.0825168 -0.325051
v -0.0200198 0.082985 -0.325051
v -0.0562676 0.0919142 -0.331843
v -0.0600846 0.0999287 -0.325051
v -0.0338599 0.088201 -0.325051
f 1 2 3
f 1 3 4
f 1 4 18
f 1 18 11
f 1 11 25
f 1 25 43
f 1 43 67
f 1 67 66
f 1 66 65
f 1 65 54
f 1 54 36
f 1 36 19
f 1 19 5
f 1 5 7
f 1 7 2
f 2 6 3
f 2 7 8
f 2 8 22
f 2 22 6
f 3 9 10
f 3 10 11
f 3 11 12
f 3 12 4
f 3 6 13
f 3 13 14
f 3 14 15
f 3 15 16
f 3 16 17
f 3 17 9
f 4 12 18
f 5 19 35
f 5 35 52
f 5 52 39
f 5 39 22
f 5 22 8
f 5 8 7
f 6 20 21
f 6 21 27
f 6 27 13
f 6 22 20
f 9 23 24
f 9 24 25
f 9 25 10
f 9 17 26
f 9 26 23
f 10 25 11
f 11 18 12
f 13 27 14
f 14 27 15
f 15 28 29
f 15 29 30
f 15 30 16
f 15 27 31
f 15 31 32
f 15 32 33
f 15 33 34
f 15 34 28
f 16 30 26
f 16 26 17
f 19 36 56
f 19 56 70
f 19 70 69
f 19 69 68
f 19 68 87
f 19 87 88
f 19 88 93
f 19 93 94
f 19 94 91
f 19 91 90
f 19 90 77
f 19 77 81
f 19 81 80
f 19 80 79
f 19 79 53
f 19 53 35
f 20 37 27
f 20 27 21
f 20 22 38
f 20 38 37
f 22 39 40
f 22 40 38
f 23 41 42
f 23 42 43
f 23 43 24
f 23 26 44
f 23 44 41
f 24 43 25
f 26 30 45
f 26 45 44
f 27 37 31
f 28 46 30
f 28 30 29
f 28 34 33
f 28 33 51
f 28 51 46
f 30 46 47
f 30 47 48
f 30 48 45
f 31 37 49
f 31 49 32
f 32 49 33
f 33 49 50
f 33 50 74
f 33 74 51
f 35 53 52
f 36 54 55
f 36 55 45
f 36 45 48
f 36 48 47
f 36 47 46
f 36 46 56
f 37 57 58
f 37 58 49
f 37 38 57
f 38 40 59
f 38 59 57
f 39 52 60
f 39 60 61
f 39 61 62
f 39 62 63
f 39 63 40
f 40 63 59
f 41 64 65
f 41 65 42
f 41 44 64
f 42 66 67
f 42 67 43
f 42 65 66
f 44 45 55
f 44 55 65
f 44 65 64
f 46 68 69
f 46 69 70
f 46 70 56
f 46 51 71
f 46 71 68
f 49 58 57
f 49 57 72
f 49 72 73
f 49 73 50
f 50 73 75
f 50 75 76
f 50 76 77
f 50 77 74
f 51 74 78
f 51 78 71
f 52 53 79
f 52 79 80
f 52 80 81
f 52 81 82
f 52 82 83
f 52 83 84
f 52 84 85
f 52 85 60
f 54 65 55
f 57 59 72
f 59 63 72
f 60 85 61
f 61 85 62
f 62 85 63
f 63 85 86
f 63 86 72
f 68 71 87
f 71 78 88
f 71 88 87
f 72 86 85
f 72 85 89
f 72 89 73
f 73 89 75
f 74 77 90
f 74 90 91
f 74 91 92
f 74 92 78
f 75 89 85
f 75 85 84
f 75 84 83
f 75 83 82
f 75 82 81
f 75 81 77
f 75 77 76
f 78 92 93
f 78 93 88
f 91 94 92
f 92 94 93
