v 0.0699681 0.192705 -0.123348
v 0.0699681 0.0814605 -0.123348
v 0.0699681 0.192705 -0.14727
v -0.19693 0.192705 -0.123348
v 0.0699681 0.0814605 -0.14727
v -0.170465 0.0814605 -0.123348
v -0.194971 0.192705 -0.14727
v -0.194161 0.18187 -0.14727
v -0.150584 0.0814605 -0.14727
v -0.194135 0.181772 -0.14727
v -0.193639 0.179932 -0.14727
v -0.16848 0.0814605 -0.125963
v -0.153118 0.0814605 -0.14442
v -0.155704 0.0814605 -0.141483
v -0.161217 0.0814605 -0.134819
f 1 2 5
f 1 5 3
f 1 3 7
f 1 7 4
f 1 4 6
f 1 6 2
f 2 6 12
f 2 12 15
f 2 15 14
f 2 14 13
f 2 13 9
f 2 9 5
f 3 5 9
f 3 9 11
f 3 11 10
f 3 10 8
f 3 8 7
f 4 7 8
f 4 8 6
f 6 8 10
f 6 10 11
f 6 11 12
f 9 13 11
f 11 13 14
f 11 14 15
f 11 15 12
