v 0.0699681 0.192705 -0.289394
v 0.0699681 0.0814605 -0.289394
v 0.0699681 0.192705 -0.32505
v -0.15983 0.192705 -0.289394
v 0.0699681 0.0814605 -0.312929
v -0.158553 0.0814605 -0.289394
v 0.0699681 0.088789 -0.32505
v -0.163046 0.192705 -0.32505
v -0.160697 0.192683 -0.289394
v 0.0599778 0.0866874 -0.32505
v 0.0616657 0.0870032 -0.32505
v 0.0205643 0.0814605 -0.32505
v 0.0485734 0.0850431 -0.32505
v -0.159192 0.187598 -0.32505
v -0.15406 0.18088 -0.32505
v -0.147263 0.172408 -0.32505
v -0.147878 0.0814605 -0.293816
v -0.0138998 0.0814605 -0.32505
v -0.144799 0.0814605 -0.29509
v -0.141036 0.166331 -0.32505
v -0.134786 0.0814605 -0.298776
v -0.139964 0.0814605 -0.29709
v -0.0184159 0.0825168 -0.32505
v -0.126644 0.0814605 -0.301411
v -0.10014 0.126673 -0.32505
v -0.0200125 0.082985 -0.32505
v -0.0600647 0.0999287 -0.32505
v -0.0338574 0.088201 -0.32505
f 1 2 5
f 1 5 7
f 1 7 3
f 1 3 8
f 1 8 4
f 1 4 9
f 1 9 6
f 1 6 2
f 2 6 17
f 2 17 19
f 2 19 22
f 2 22 21
f 2 21 24
f 2 24 18
f 2 18 12
f 2 12 5
f 3 7 11
f 3 11 10
f 3 10 13
f 3 13 12
f 3 12 18
f 3 18 23
f 3 23 26
f 3 26 28
f 3 28 27
f 3 27 25
f 3 25 20
f 3 20 16
f 3 16 15
f 3 15 14
f 3 14 8
f 4 8 9
f 5 10 11
f 5 11 7
f 5 12 13
f 5 13 10
f 6 9 8
f 6 8 14
f 6 14 15
f 6 15 16
f 6 16 17
f 16 19 17
f 16 20 21
f 16 21 22
f 16 22 19
f 18 24 23
f 20 25 24
f 20 24 21
f 23 24 26
f 24 25 27
f 24 27 28
f 24 28 26
