v -0.201182 0.179976 -0.147327
v -0.201182 0.166429 -0.147327
v -0.201182 0.191301 -0.152401
v -0.333554 0.185987 -0.0125607
v -0.333158 0.179976 -0.0125607
v -0.332737 0.166636 -0.0125607
v -0.201182 0.0814605 -0.147657
v -0.332737 0.0814605 -0.0125607
v -0.347382 0.19129 -0.0125607
v -0.339936 0.189438 -0.0125607
v -0.336547 0.188448 -0.0125607
v -0.334197 0.186956 -0.0125607
v -0.333257 0.186673 -0.0132964
v -0.201182 0.192705 -0.161687
v -0.201182 0.0814605 -0.271742
v -0.453903 0.0814605 -0.0125607
v -0.35327 0.191856 -0.0125607
v -0.201182 0.192705 -0.170465
v -0.204077 0.192705 -0.166583
v -0.433247 0.191856 -0.0125607
v -0.232772 0.0814605 -0.258651
v -0.201182 0.166636 -0.271742
v -0.453903 0.166636 -0.0125607
v -0.450662 0.0814605 -0.0204001
v -0.24665 0.191834 -0.233281
v -0.313318 0.191856 -0.179953
v -0.35327 0.191856 -0.13997
v -0.406604 0.191856 -0.0733477
v -0.201182 0.191791 -0.252081
v -0.219983 0.191845 -0.246626
v -0.433247 0.191856 -0.0200195
v -0.442375 0.190484 -0.0125607
v -0.238858 0.0814605 -0.256013
v -0.232772 0.166636 -0.258651
v -0.213378 0.174433 -0.266643
v -0.201182 0.173497 -0.27159
v -0.453754 0.178125 -0.0125607
v -0.453358 0.177439 -0.0136009
v -0.450662 0.166636 -0.0204001
v -0.445294 0.0814605 -0.0333643
v -0.273342 0.190767 -0.219937
v -0.286676 0.191399 -0.206617
v -0.299985 0.191791 -0.193298
v -0.232748 0.191137 -0.246626
v -0.233317 0.191105 -0.246601
v -0.339961 0.191235 -0.166634
v -0.366603 0.191834 -0.126676
v -0.419913 0.191595 -0.0600029
v -0.201182 0.190571 -0.26063
v -0.433247 0.191159 -0.0333643
v -0.446778 0.189504 -0.0125607
v -0.242395 0.166636 -0.254465
v -0.242395 0.0814605 -0.254465
v -0.242197 0.179976 -0.254364
v -0.213106 0.183319 -0.26644
v -0.207861 0.179322 -0.268749
v -0.201182 0.179605 -0.271311
v -0.453556 0.185573 -0.0125607
v -0.453235 0.186324 -0.0133472
v -0.441113 0.179976 -0.0429288
v -0.434261 0.166636 -0.0600029
v -0.445294 0.166636 -0.0333643
v -0.434261 0.0814605 -0.0600029
v -0.260676 0.189754 -0.233966
v -0.299663 0.18934 -0.206617
v -0.201182 0.189395 -0.265298
v -0.232748 0.191028 -0.247108
v -0.233317 0.188491 -0.255455
v -0.246131 0.189144 -0.246753
v -0.339961 0.188622 -0.177315
v -0.347654 0.187533 -0.17427
v -0.352577 0.188415 -0.165543
v -0.35327 0.190778 -0.153289
v -0.379937 0.191551 -0.113356
v -0.429808 0.188981 -0.0600029
v -0.393271 0.190996 -0.100012
v -0.420235 0.189558 -0.0734238
v -0.442177 0.188546 -0.0333643
v -0.444948 0.189242 -0.0200195
v -0.453383 0.186488 -0.0125607
v -0.24905 0.166636 -0.250812
v -0.24905 0.0814605 -0.250812
v -0.248877 0.179976 -0.250558
v -0.241332 0.18738 -0.253933
v -0.204225 0.188154 -0.268267
v -0.201182 0.185889 -0.269967
v -0.440668 0.187446 -0.0417872
v -0.433642 0.179976 -0.0600029
v -0.428918 0.179976 -0.0704301
v -0.429041 0.166636 -0.0706077
v -0.429041 0.0814605 -0.0706077
v -0.256669 0.18835 -0.242415
v -0.309583 0.188273 -0.202152
v -0.201182 0.188426 -0.2688
v -0.348322 0.179976 -0.174879
v -0.360221 0.186945 -0.160367
v -0.294988 0.187762 -0.214533
v -0.280343 0.186923 -0.226913
v -0.333257 0.185878 -0.186575
v -0.375756 0.18836 -0.136672
v -0.380085 0.189504 -0.1266
v -0.428052 0.188023 -0.0690347
v -0.392875 0.18884 -0.112494
v -0.41598 0.188371 -0.0837748
v -0.258772 0.166636 -0.24414
v -0.258772 0.0814605 -0.24414
v -0.258549 0.179976 -0.243886
v -0.424292 0.179976 -0.0771024
v -0.424613 0.166636 -0.07728
v -0.427334 0.0814605 -0.0732208
v -0.355125 0.166636 -0.167496
v -0.355001 0.179976 -0.167344
v -0.338699 0.180847 -0.182516
v -0.340159 0.166636 -0.181653
v -0.348446 0.166636 -0.175006
v -0.360493 0.179976 -0.160697
v -0.400939 0.179976 -0.108003
v -0.400519 0.187228 -0.107471
v -0.388175 0.187958 -0.122109
v -0.280665 0.179976 -0.227142
v -0.33343 0.176992 -0.186752
v -0.262853 0.0814605 -0.241019
v -0.287467 0.166636 -0.222144
v -0.417959 0.166636 -0.0861342
v -0.424613 0.0814605 -0.07728
v -0.355125 0.0814605 -0.167496
v -0.360592 0.166636 -0.160824
v -0.34523 0.0814605 -0.177619
v -0.333504 0.166636 -0.186778
v -0.340159 0.0814605 -0.181653
v -0.348446 0.0814605 -0.175006
v -0.401063 0.166636 -0.108156
v -0.277894 0.0814605 -0.229476
v -0.333504 0.0814605 -0.186778
v -0.417959 0.0814605 -0.0861342
v -0.399084 0.0814605 -0.110743
v -0.360592 0.0814605 -0.160824
f 1 2 7
f 1 7 15
f 1 15 22
f 1 22 36
f 1 36 57
f 1 57 86
f 1 86 94
f 1 94 66
f 1 66 49
f 1 49 29
f 1 29 18
f 1 18 14
f 1 14 3
f 1 3 4
f 1 4 5
f 1 5 6
f 1 6 8
f 1 8 2
f 2 8 7
f 3 9 10
f 3 10 11
f 3 11 12
f 3 12 13
f 3 13 4
f 3 14 9
f 4 13 12
f 4 12 11
f 4 11 10
f 4 10 9
f 4 9 17
f 4 17 20
f 4 20 32
f 4 32 51
f 4 51 80
f 4 80 58
f 4 58 37
f 4 37 23
f 4 23 16
f 4 16 8
f 4 8 6
f 4 6 5
f 7 8 16
f 7 16 24
f 7 24 40
f 7 40 63
f 7 63 91
f 7 91 110
f 7 110 125
f 7 125 135
f 7 135 136
f 7 136 137
f 7 137 126
f 7 126 131
f 7 131 128
f 7 128 130
f 7 130 134
f 7 134 133
f 7 133 122
f 7 122 106
f 7 106 82
f 7 82 53
f 7 53 33
f 7 33 21
f 7 21 15
f 9 14 17
f 14 18 19
f 14 19 20
f 14 20 17
f 15 21 34
f 15 34 22
f 16 23 39
f 16 39 24
f 18 25 26
f 18 26 27
f 18 27 28
f 18 28 19
f 18 29 30
f 18 30 25
f 19 28 31
f 19 31 20
f 20 31 32
f 21 33 34
f 22 34 35
f 22 35 36
f 23 37 38
f 23 38 39
f 24 39 62
f 24 62 40
f 25 41 42
f 25 42 43
f 25 43 26
f 25 30 44
f 25 44 45
f 25 45 41
f 26 43 46
f 26 46 27
f 27 47 28
f 27 46 47
f 28 48 31
f 28 47 48
f 29 49 30
f 30 49 44
f 31 48 50
f 31 50 32
f 32 50 51
f 33 52 34
f 33 53 52
f 34 52 54
f 34 54 35
f 35 55 56
f 35 56 36
f 35 54 55
f 36 56 57
f 37 58 59
f 37 59 38
f 38 59 60
f 38 60 61
f 38 61 62
f 38 62 39
f 40 62 61
f 40 61 63
f 41 45 64
f 41 64 65
f 41 65 46
f 41 46 42
f 42 46 43
f 44 49 45
f 45 49 66
f 45 66 67
f 45 67 68
f 45 68 69
f 45 69 64
f 46 65 70
f 46 70 71
f 46 71 72
f 46 72 73
f 46 73 74
f 46 74 47
f 47 74 48
f 48 75 50
f 48 74 76
f 48 76 77
f 48 77 75
f 50 75 78
f 50 78 79
f 50 79 51
f 51 79 78
f 51 78 80
f 52 53 82
f 52 82 81
f 52 81 54
f 54 81 83
f 54 83 84
f 54 84 55
f 55 85 86
f 55 86 57
f 55 57 56
f 55 84 85
f 58 80 59
f 59 80 87
f 59 87 60
f 60 87 88
f 60 88 61
f 61 88 89
f 61 89 90
f 61 90 91
f 61 91 63
f 64 69 92
f 64 92 65
f 65 93 70
f 65 92 93
f 66 94 67
f 67 94 68
f 68 84 69
f 68 94 85
f 68 85 84
f 69 84 92
f 70 93 71
f 71 95 96
f 71 96 72
f 71 93 97
f 71 97 98
f 71 98 99
f 71 99 95
f 72 96 100
f 72 100 101
f 72 101 73
f 73 101 76
f 73 76 74
f 75 77 102
f 75 102 78
f 76 101 77
f 77 101 103
f 77 103 104
f 77 104 102
f 78 102 87
f 78 87 80
f 81 82 106
f 81 106 105
f 81 105 83
f 83 105 107
f 83 107 84
f 84 107 98
f 84 98 92
f 85 94 86
f 87 102 89
f 87 89 88
f 89 102 108
f 89 108 109
f 89 109 90
f 90 110 91
f 90 109 110
f 92 98 97
f 92 97 93
f 95 111 112
f 95 112 96
f 95 99 113
f 95 113 114
f 95 114 115
f 95 115 111
f 96 112 116
f 96 116 117
f 96 117 118
f 96 118 119
f 96 119 100
f 98 120 99
f 98 107 120
f 99 120 121
f 99 121 113
f 100 119 101
f 101 119 103
f 102 104 119
f 102 119 118
f 102 118 108
f 103 119 104
f 105 106 122
f 105 122 123
f 105 123 121
f 105 121 120
f 105 120 107
f 108 118 117
f 108 117 124
f 108 124 109
f 109 124 135
f 109 135 125
f 109 125 110
f 111 126 137
f 111 137 127
f 111 127 116
f 111 116 112
f 111 115 131
f 111 131 126
f 113 121 114
f 114 128 115
f 114 121 129
f 114 129 134
f 114 134 130
f 114 130 128
f 115 128 131
f 116 127 132
f 116 132 117
f 117 132 124
f 121 123 129
f 122 133 123
f 123 133 134
f 123 134 129
f 124 132 136
f 124 136 135
f 127 136 132
f 127 137 136
