v 0.337909 0.0431895 0.352762
v 0.191937 0.0431895 0.506437
v 0.339392 0.166643 0.352762
v 0.460131 0.0431895 0.352762
v 0.18966 0.0431895 0.509302
v 0.191381 0.166643 0.509302
v 0.339974 0.179975 0.352762
v 0.460131 0.166643 0.352762
v 0.454491 0.0431895 0.366384
v 0.36579 0.0431895 0.509302
v 0.192069 0.179975 0.509302
v 0.343575 0.188897 0.352762
v 0.459575 0.179975 0.352762
v 0.455074 0.179975 0.364392
v 0.440167 0.179975 0.400524
v 0.452452 0.166643 0.371303
v 0.452452 0.0431895 0.371303
v 0.380618 0.0431895 0.489995
v 0.36579 0.166643 0.509302
v 0.19665 0.188199 0.509302
v 0.1989 0.187355 0.505855
v 0.34384 0.18897 0.352762
v 0.198953 0.188897 0.509302
v 0.456186 0.188825 0.352762
v 0.454385 0.187791 0.362768
v 0.440034 0.186758 0.400202
v 0.431561 0.179975 0.419969
v 0.432011 0.166643 0.419969
v 0.437492 0.166643 0.407389
v 0.437492 0.0431895 0.407389
v 0.387476 0.166643 0.481047
v 0.375693 0.166643 0.4964
v 0.409293 0.0431895 0.452622
v 0.365684 0.17034 0.509302
v 0.387343 0.179975 0.480909
v 0.382207 0.179975 0.487574
v 0.375534 0.179975 0.496232
v 0.35324 0.191488 0.352762
v 0.210047 0.190731 0.509302
v 0.456027 0.18881 0.353298
v 0.447104 0.191328 0.352762
v 0.446601 0.19143 0.353298
v 0.441358 0.187937 0.393291
v 0.427245 0.18734 0.427569
v 0.427696 0.179975 0.428197
v 0.427801 0.166643 0.428335
v 0.432011 0.0431895 0.419969
v 0.436063 0.0431895 0.410683
v 0.416151 0.166643 0.443674
v 0.416151 0.0431895 0.443674
v 0.365393 0.179975 0.509302
v 0.387026 0.187063 0.480495
v 0.422638 0.179975 0.434848
v 0.353822 0.191575 0.352762
v 0.223975 0.191867 0.509302
v 0.433282 0.190542 0.393291
v 0.443768 0.189145 0.37996
v 0.428861 0.188475 0.419969
v 0.446601 0.191444 0.352762
v 0.433282 0.191765 0.37996
v 0.419938 0.191081 0.419969
v 0.41962 0.188941 0.432518
v 0.414986 0.188039 0.442187
v 0.374687 0.187864 0.495129
v 0.422797 0.166643 0.434985
v 0.427801 0.0431895 0.428335
v 0.422797 0.0431895 0.434985
v 0.362481 0.188373 0.509302
v 0.353293 0.191867 0.366629
v 0.366611 0.191867 0.352762
v 0.339948 0.191867 0.509302
v 0.433812 0.191867 0.352762
v 0.433282 0.191867 0.366629
v 0.419938 0.191867 0.406622
v 0.406619 0.191605 0.433285
v 0.366611 0.191474 0.486609
v 0.379956 0.190877 0.473278
v 0.406831 0.189567 0.446616
v 0.366691 0.189421 0.499726
v 0.357979 0.18964 0.509302
v 0.34392 0.191852 0.509302
v 0.379956 0.191867 0.459947
v 0.393274 0.191852 0.446616
v 0.353293 0.191823 0.49994
v 0.353663 0.190411 0.509302
f 1 2 3
f 1 3 7
f 1 7 12
f 1 12 22
f 1 22 38
f 1 38 54
f 1 54 70
f 1 70 72
f 1 72 59
f 1 59 41
f 1 41 24
f 1 24 13
f 1 13 8
f 1 8 4
f 1 4 9
f 1 9 17
f 1 17 30
f 1 30 48
f 1 48 47
f 1 47 66
f 1 66 67
f 1 67 50
f 1 50 33
f 1 33 18
f 1 18 10
f 1 10 5
f 1 5 2
f 2 5 6
f 2 6 3
f 3 6 7
f 4 8 9
f 5 10 19
f 5 19 34
f 5 34 51
f 5 51 68
f 5 68 80
f 5 80 85
f 5 85 81
f 5 81 71
f 5 71 55
f 5 55 39
f 5 39 23
f 5 23 20
f 5 20 11
f 5 11 6
f 6 11 7
f 7 11 12
f 8 13 14
f 8 14 15
f 8 15 16
f 8 16 9
f 9 16 17
f 10 18 19
f 11 20 21
f 11 21 12
f 12 21 20
f 12 20 23
f 12 23 22
f 13 24 25
f 13 25 14
f 14 25 26
f 14 26 15
f 15 26 27
f 15 27 28
f 15 28 29
f 15 29 16
f 16 29 30
f 16 30 17
f 18 31 32
f 18 32 19
f 18 33 49
f 18 49 31
f 19 32 35
f 19 35 36
f 19 36 37
f 19 37 34
f 22 23 38
f 23 39 38
f 24 40 25
f 24 41 42
f 24 42 40
f 25 40 43
f 25 43 26
f 26 43 44
f 26 44 27
f 27 44 45
f 27 45 28
f 28 45 46
f 28 46 66
f 28 66 47
f 28 47 48
f 28 48 29
f 29 48 30
f 31 35 32
f 31 49 35
f 33 50 49
f 34 37 51
f 35 52 36
f 35 49 53
f 35 53 52
f 36 52 37
f 37 52 51
f 38 39 54
f 39 55 54
f 40 42 56
f 40 56 57
f 40 57 58
f 40 58 43
f 41 59 42
f 42 59 60
f 42 60 61
f 42 61 56
f 43 58 44
f 44 53 45
f 44 58 62
f 44 62 63
f 44 63 64
f 44 64 52
f 44 52 53
f 45 53 65
f 45 65 46
f 46 65 67
f 46 67 66
f 49 50 67
f 49 67 65
f 49 65 53
f 51 52 64
f 51 64 68
f 54 69 70
f 54 55 69
f 55 71 82
f 55 82 74
f 55 74 73
f 55 73 72
f 55 72 70
f 55 70 69
f 56 61 58
f 56 58 57
f 58 61 62
f 59 72 73
f 59 73 60
f 60 73 74
f 60 74 61
f 61 74 75
f 61 75 76
f 61 76 77
f 61 77 78
f 61 78 62
f 62 78 79
f 62 79 63
f 63 79 68
f 63 68 64
f 68 79 80
f 71 81 82
f 74 82 83
f 74 83 75
f 75 83 84
f 75 84 76
f 76 84 85
f 76 85 80
f 76 80 79
f 76 79 77
f 77 79 78
f 81 85 84
f 81 84 83
f 81 83 82
