v -0.460133 0.0250969 0.352793
v -0.440225 0.0250969 0.400734
v -0.441035 0.0431749 0.39879
v -0.460133 0.0431749 0.352793
v 0.460131 0.0250969 0.352793
v -0.437432 0.0250969 0.407413
v -0.440225 0.0431749 0.400734
v 0.460131 0.0431749 0.352793
v 0.445448 0.0250969 0.388192
v -0.437432 0.0431749 0.407413
v -0.432027 0.0250969 0.419954
v 0.439502 0.0431749 0.40249
v 0.440223 0.0250969 0.400734
v -0.432027 0.0431749 0.419954
v -0.430406 0.0250969 0.423184
v 0.437431 0.0431749 0.407413
v 0.437431 0.0250969 0.407413
v 0.438512 0.0250969 0.404842
v -0.427794 0.0431749 0.428357
v -0.427794 0.0250969 0.428357
v 0.432026 0.0431749 0.419954
v 0.434098 0.0250969 0.415157
v -0.4241 0.0431749 0.43328
v -0.420227 0.0250969 0.438328
v 0.427792 0.0431749 0.428357
v 0.429413 0.0250969 0.425159
v 0.432026 0.0250969 0.419954
v -0.414191 0.0250969 0.446261
v -0.417885 0.0431749 0.441432
v 0.427792 0.0250969 0.428357
v 0.421036 0.0431749 0.437294
v -0.411039 0.0431749 0.450368
v -0.404373 0.0250969 0.459054
v -0.377439 0.0431749 0.494171
v 0.418694 0.0250969 0.440366
v 0.411037 0.0431749 0.450368
v -0.358792 0.0250969 0.518408
v -0.358792 0.0431749 0.518408
v 0.411037 0.0250969 0.450368
v 0.404371 0.0431749 0.459054
v 0.366447 0.0250969 0.508468
v -0.352126 0.0250969 0.52587
v -0.352126 0.0431749 0.52587
v 0.362574 0.0431749 0.513485
v 0.35879 0.0431749 0.518408
v 0.35879 0.0250969 0.518408
v -0.349694 0.0250969 0.528441
v -0.34573 0.0431749 0.532549
v 0.352124 0.0431749 0.52587
v 0.352124 0.0250969 0.52587
v -0.34573 0.0250969 0.532549
v -0.343208 0.0250969 0.534524
v -0.339064 0.0431749 0.537722
v 0.345729 0.0431749 0.532549
v 0.345729 0.0250969 0.532549
v -0.339064 0.0250969 0.537722
v -0.32375 0.0431749 0.549511
v 0.344017 0.0431749 0.533897
v 0.339063 0.0250969 0.537722
v -0.32375 0.0250969 0.549511
v -0.25565 0.0431749 0.601748
v 0.339063 0.0431749 0.537722
v 0.330415 0.0250969 0.544369
v -0.25565 0.0250969 0.601748
v -0.248984 0.0431749 0.605793
v 0.330415 0.0431749 0.544369
v 0.3133 0.0431749 0.557507
v 0.255648 0.0250969 0.601748
v -0.246551 0.0250969 0.607204
v -0.246551 0.0431749 0.607204
v 0.255648 0.0431749 0.601748
v 0.253306 0.0431749 0.603159
v 0.250063 0.0250969 0.605103
v -0.242948 0.0250969 0.609085
v -0.237093 0.0431749 0.612064
v 0.24655 0.0431749 0.607204
v 0.24655 0.0250969 0.607204
v -0.237093 0.0250969 0.612064
v -0.173766 0.0431749 0.638307
v 0.244118 0.0431749 0.608489
v 0.240695 0.0250969 0.610214
v -0.142148 0.0250969 0.651382
v -0.16665 0.0431749 0.641255
v 0.237091 0.0431749 0.612064
v 0.237091 0.0250969 0.612064
v -0.135482 0.0250969 0.654141
v -0.135482 0.0431749 0.654141
v 0.205924 0.0431749 0.624982
v 0.161874 0.0431749 0.64323
v 0.167459 0.0250969 0.64091
v -0.126564 0.0250969 0.656618
v -0.126564 0.0431749 0.656618
v 0.13548 0.0431749 0.654141
v 0.138003 0.0250969 0.653107
v -0.12152 0.0250969 0.657559
v -0.113232 0.0431749 0.659064
v 0.133138 0.0431749 0.6548
v 0.13548 0.0250969 0.654141
v -0.113232 0.0250969 0.659064
v -0.0644985 0.0431749 0.665492
v 0.126653 0.0250969 0.656618
v 0.126653 0.0431749 0.656618
v -0.051617 0.0250969 0.667185
v -0.0199086 0.0250969 0.671355
v -0.0199086 0.0431749 0.671355
v 0.113321 0.0250969 0.659064
v 0.113321 0.0431749 0.659064
v -0.0148641 0.0250969 0.672013
v -0.0100898 0.0431749 0.672609
v 0.0199971 0.0250969 0.671355
v 0.0199971 0.0431749 0.671355
v -0.00657666 0.0250969 0.673048
v -0.00657666 0.0431749 0.673048
v 0.00666519 0.0250969 0.67308
v 0.00666519 0.0431749 0.67308
f 1 2 3
f 1 3 4
f 1 4 8
f 1 8 5
f 1 5 9
f 1 9 13
f 1 13 18
f 1 18 17
f 1 17 22
f 1 22 27
f 1 27 26
f 1 26 30
f 1 30 35
f 1 35 39
f 1 39 41
f 1 41 46
f 1 46 50
f 1 50 55
f 1 55 59
f 1 59 63
f 1 63 68
f 1 68 73
f 1 73 77
f 1 77 81
f 1 81 85
f 1 85 90
f 1 90 94
f 1 94 98
f 1 98 101
f 1 101 106
f 1 106 110
f 1 110 114
f 1 114 112
f 1 112 108
f 1 108 104
f 1 104 103
f 1 103 99
f 1 99 95
f 1 95 91
f 1 91 86
f 1 86 82
f 1 82 78
f 1 78 74
f 1 74 69
f 1 69 64
f 1 64 60
f 1 60 56
f 1 56 52
f 1 52 51
f 1 51 47
f 1 47 42
f 1 42 37
f 1 37 33
f 1 33 28
f 1 28 24
f 1 24 20
f 1 20 15
f 1 15 11
f 1 11 6
f 1 6 2
f 2 6 10
f 2 10 7
f 2 7 3
f 3 7 10
f 3 10 14
f 3 14 19
f 3 19 23
f 3 23 29
f 3 29 32
f 3 32 34
f 3 34 38
f 3 38 43
f 3 43 48
f 3 48 53
f 3 53 57
f 3 57 61
f 3 61 65
f 3 65 70
f 3 70 75
f 3 75 79
f 3 79 83
f 3 83 87
f 3 87 92
f 3 92 96
f 3 96 100
f 3 100 105
f 3 105 109
f 3 109 113
f 3 113 115
f 3 115 111
f 3 111 107
f 3 107 102
f 3 102 97
f 3 97 93
f 3 93 89
f 3 89 88
f 3 88 84
f 3 84 80
f 3 80 76
f 3 76 72
f 3 72 71
f 3 71 67
f 3 67 66
f 3 66 62
f 3 62 58
f 3 58 54
f 3 54 49
f 3 49 45
f 3 45 44
f 3 44 40
f 3 40 36
f 3 36 31
f 3 31 25
f 3 25 21
f 3 21 16
f 3 16 12
f 3 12 8
f 3 8 4
f 5 8 9
f 6 11 14
f 6 14 10
f 8 12 9
f 9 12 13
f 11 15 14
f 12 16 17
f 12 17 18
f 12 18 13
f 14 15 19
f 15 20 19
f 16 21 22
f 16 22 17
f 19 20 23
f 20 24 23
f 21 25 26
f 21 26 27
f 21 27 22
f 23 24 28
f 23 28 29
f 25 30 26
f 25 31 30
f 28 32 29
f 28 33 34
f 28 34 32
f 30 31 35
f 31 36 35
f 33 37 34
f 34 37 38
f 35 36 39
f 36 40 41
f 36 41 39
f 37 42 43
f 37 43 38
f 40 44 41
f 41 44 45
f 41 45 46
f 42 47 43
f 43 47 48
f 45 49 50
f 45 50 46
f 47 51 48
f 48 51 52
f 48 52 53
f 49 54 55
f 49 55 50
f 52 56 53
f 53 56 60
f 53 60 57
f 54 58 55
f 55 58 59
f 57 60 64
f 57 64 61
f 58 62 59
f 59 62 66
f 59 66 63
f 61 64 65
f 63 66 67
f 63 67 68
f 64 69 65
f 65 69 70
f 67 71 68
f 68 71 72
f 68 72 73
f 69 74 70
f 70 74 75
f 72 76 73
f 73 76 77
f 74 78 75
f 75 78 79
f 76 80 77
f 77 80 81
f 78 82 83
f 78 83 79
f 80 84 85
f 80 85 81
f 82 86 83
f 83 86 87
f 84 88 85
f 85 88 89
f 85 89 90
f 86 91 92
f 86 92 87
f 89 93 94
f 89 94 90
f 91 95 92
f 92 95 96
f 93 97 98
f 93 98 94
f 95 99 96
f 96 99 100
f 97 101 98
f 97 102 101
f 99 103 100
f 100 103 104
f 100 104 105
f 101 102 107
f 101 107 106
f 104 108 105
f 105 108 109
f 106 107 111
f 106 111 110
f 108 112 113
f 108 113 109
f 110 111 115
f 110 115 114
f 112 114 115
f 112 115 113
