v 0.249607 0.192705 -0.459339
v 0.243435 0.180531 -0.458798
v 0.249519 0.192705 -0.45988
v 0.248728 0.192705 -0.446609
v 0.244806 0.179976 -0.446609
v 0.24085 0.172092 -0.446609
v 0.240305 0.173061 -0.453605
v 0.247092 0.192705 -0.471961
v 0.248587 0.192705 -0.445977
v 0.240797 0.171929 -0.437593
v 0.229086 0.156074 -0.41994
v 0.228998 0.1575 -0.430037
v 0.233306 0.172919 -0.453785
v 0.233306 0.178016 -0.460457
v 0.233306 0.189798 -0.47582
v 0.233306 0.192705 -0.479589
v 0.242204 0.185333 -0.468301
v 0.246618 0.192705 -0.472736
v 0.216461 0.145076 -0.415378
v 0.201145 0.132782 -0.4007
v 0.206631 0.144259 -0.416423
v 0.245264 0.192705 -0.433265
v 0.241975 0.180281 -0.433193
v 0.239215 0.176034 -0.428703
v 0.233447 0.166647 -0.41994
v 0.227539 0.15725 -0.410816
v 0.223495 0.153003 -0.40647
v 0.144085 0.0814605 -0.295395
v 0.216689 0.143954 -0.406614
v 0.21996 0.161126 -0.43844
v 0.206631 0.149344 -0.423095
v 0.206631 0.156008 -0.431786
v 0.139988 0.178016 -0.460475
v 0.0699681 0.190527 -0.476776
v 0.0699681 0.192705 -0.479589
v 0.193303 0.132477 -0.401078
v 0.177407 0.117515 -0.37715
v 0.15038 0.104992 -0.362473
v 0.166645 0.115914 -0.379062
v 0.227592 0.192705 -0.382073
v 0.22877 0.166843 -0.40647
v 0.22578 0.162531 -0.401926
v 0.193408 0.192705 -0.295395
v 0.0699681 0.0814605 -0.295395
v 0.143083 0.0814605 -0.295827
v 0.120698 0.0931338 -0.347019
v 0.193303 0.137562 -0.407732
v 0.153317 0.115566 -0.37908
v 0.0699681 0.0932863 -0.350049
v 0.126659 0.178016 -0.460475
v 0.0699681 0.192705 -0.295395
v 0.139988 0.103969 -0.363717
v 0.179974 0.126488 -0.393289
v 0.0699681 0.0814605 -0.312939
v 0.139988 0.0814605 -0.29709
v 0.11333 0.0926003 -0.347795
v 0.139988 0.108901 -0.370388
v 0.126659 0.103784 -0.363717
v 0.0733267 0.0920014 -0.348372
v 0.166645 0.120684 -0.385733
v 0.0699681 0.0920014 -0.348372
v 0.100002 0.0920994 -0.348372
v 0.072676 0.0814605 -0.312633
v 0.0699681 0.0869596 -0.339969
v 0.131864 0.0814605 -0.29974
v 0.126659 0.0814605 -0.301417
v 0.0733267 0.087123 -0.339969
v 0.0866729 0.0920122 -0.348372
v 0.0783557 0.0814605 -0.311821
f 1 2 3
f 1 3 8
f 1 8 18
f 1 18 16
f 1 16 35
f 1 35 51
f 1 51 43
f 1 43 40
f 1 40 22
f 1 22 9
f 1 9 4
f 1 4 5
f 1 5 6
f 1 6 2
f 2 6 7
f 2 7 8
f 2 8 3
f 4 9 10
f 4 10 5
f 5 10 6
f 6 10 11
f 6 11 12
f 6 12 7
f 7 13 14
f 7 14 15
f 7 15 16
f 7 16 17
f 7 17 18
f 7 18 8
f 7 12 19
f 7 19 20
f 7 20 21
f 7 21 13
f 9 22 23
f 9 23 10
f 10 23 24
f 10 24 25
f 10 25 26
f 10 26 11
f 11 26 27
f 11 27 28
f 11 28 29
f 11 29 12
f 12 29 19
f 13 21 30
f 13 30 14
f 14 30 31
f 14 31 32
f 14 32 15
f 15 33 34
f 15 34 16
f 15 32 33
f 16 34 35
f 16 18 17
f 19 29 20
f 20 36 21
f 20 29 28
f 20 28 37
f 20 37 38
f 20 38 39
f 20 39 36
f 21 36 31
f 21 31 30
f 22 40 23
f 23 40 24
f 24 40 41
f 24 41 25
f 25 41 26
f 26 41 40
f 26 40 42
f 26 42 43
f 26 43 28
f 26 28 27
f 28 43 51
f 28 51 44
f 28 44 54
f 28 54 63
f 28 63 69
f 28 69 66
f 28 66 65
f 28 65 55
f 28 55 45
f 28 45 46
f 28 46 38
f 28 38 37
f 31 36 47
f 31 47 48
f 31 48 32
f 32 48 49
f 32 49 33
f 33 50 34
f 33 49 50
f 34 50 49
f 34 49 61
f 34 61 64
f 34 64 54
f 34 54 44
f 34 44 51
f 34 51 35
f 36 39 52
f 36 52 53
f 36 53 47
f 38 46 52
f 38 52 39
f 40 43 42
f 45 55 46
f 46 56 52
f 46 55 56
f 47 53 48
f 48 57 58
f 48 58 59
f 48 59 49
f 48 53 60
f 48 60 57
f 49 59 61
f 52 56 62
f 52 62 58
f 52 58 57
f 52 57 53
f 53 57 60
f 54 64 63
f 55 65 56
f 56 65 66
f 56 66 67
f 56 67 62
f 58 62 68
f 58 68 59
f 59 68 64
f 59 64 61
f 62 67 64
f 62 64 68
f 63 64 69
f 64 67 66
f 64 66 69
