v 0.00667732 0.0312966 -0.31786
v 0.00667732 0.0380493 -0.31786
v 0.0353545 0.0312966 -0.31411
v -0.00666669 0.0312966 -0.317808
v 0.0285582 0.0380493 -0.314995
v -0.00666669 0.0380493 -0.317808
v 0.0927089 0.0312966 -0.306558
v 0.0927089 0.0380493 -0.306558
v -0.0333547 0.0312966 -0.31437
v -0.011391 0.0380493 -0.317235
v 0.113264 0.0312966 -0.30385
v 0.113264 0.0380493 -0.30385
v -0.0333547 0.0380493 -0.31437
v -0.0926983 0.0312966 -0.306558
v 0.126525 0.0312966 -0.301402
v 0.126525 0.0380493 -0.301402
v -0.0926983 0.0380493 -0.306558
v -0.113253 0.0312966 -0.30385
v 0.139952 0.0312966 -0.297079
v 0.139952 0.0380493 -0.297079
v -0.113253 0.0380493 -0.30385
v -0.126597 0.0312966 -0.301402
v 0.233277 0.0312966 -0.258434
v 0.233277 0.0380493 -0.258434
v -0.126597 0.0380493 -0.301402
v -0.139941 0.0312966 -0.297079
v 0.239079 0.0380493 -0.255882
v 0.242311 0.0312966 -0.254423
v -0.139941 0.0380493 -0.297079
v -0.233266 0.0312966 -0.258434
v -0.224729 0.0380493 -0.261975
v 0.242311 0.0380493 -0.254423
v 0.248942 0.0312966 -0.250726
v -0.2423 0.0312966 -0.254423
v -0.233266 0.0380493 -0.258434
v 0.248942 0.0380493 -0.250726
v 0.250433 0.0312966 -0.249788
v -0.247936 0.0312966 -0.251351
v -0.244621 0.0380493 -0.253173
v -0.2423 0.0380493 -0.254423
v 0.255241 0.0380493 -0.246507
v 0.258722 0.0312966 -0.244111
v -0.248931 0.0380493 -0.250726
v -0.248931 0.0312966 -0.250726
v 0.258722 0.0380493 -0.244111
v 0.302732 0.0312966 -0.210362
v -0.252412 0.0380493 -0.248434
v -0.258711 0.0312966 -0.244163
v 0.302732 0.0380493 -0.210362
v 0.333481 0.0312966 -0.186769
v -0.258711 0.0380493 -0.244163
v -0.332476 0.0312966 -0.18755
v -0.261115 0.0380493 -0.24234
v 0.340112 0.0380493 -0.181665
v 0.340112 0.0312966 -0.181665
v -0.340101 0.0312966 -0.181665
v -0.340101 0.0380493 -0.181665
v -0.333471 0.0380493 -0.186769
v -0.298494 0.0380493 -0.213643
v 0.3484 0.0380493 -0.174998
v 0.3484 0.0312966 -0.174998
v -0.348472 0.0312966 -0.174946
v -0.348472 0.0380493 -0.174946
v 0.351218 0.0380493 -0.171873
v 0.351218 0.0312966 -0.171873
v -0.355103 0.0312966 -0.167498
v -0.350793 0.0380493 -0.172342
v 0.351218 0.0380493 0.0416121
v 0.351218 0.0312966 0.214213
v -0.355103 0.0380493 -0.167498
v -0.359744 0.0312966 -0.161821
v 0.351218 0.0324712 0.214213
v 0.191421 0.0380493 0.164787
v -0.491527 0.0312966 0.214213
v -0.360573 0.0380493 -0.16078
v -0.360573 0.0312966 -0.16078
v 0.152384 0.0380493 0.192078
v 0.128017 0.0380493 0.205463
v 0.127271 0.0380493 0.205827
v 0.101909 0.0380493 0.214213
v -0.491527 0.0380493 0.214213
v -0.49393 0.0380493 0.195828
v -0.494262 0.0312966 0.193276
v -0.362645 0.0380493 -0.158123
v -0.365463 0.0312966 -0.154426
v -0.36853 0.0380493 -0.150519
v -0.494262 0.0380493 0.193276
v -0.495505 0.0312966 0.179943
v -0.371431 0.0312966 -0.146665
v -0.417182 0.0312966 -0.0870832
v -0.412789 0.0380493 -0.0927081
v -0.495505 0.0380493 0.179943
v -0.494925 0.0312966 0.166557
v -0.424558 0.0312966 -0.0771875
v -0.424558 0.0380493 -0.0771875
v -0.420248 0.0380493 -0.0829166
v -0.494925 0.0380493 0.166557
v -0.484399 0.0312966 0.0866111
v -0.429034 0.0312966 -0.0705731
v -0.429034 0.0380493 -0.0705731
v -0.481498 0.0380493 0.0646845
v -0.479923 0.0312966 0.0531223
v -0.433426 0.0312966 -0.0615629
v -0.434172 0.0380493 -0.0599483
v -0.479923 0.0380493 0.0531223
v -0.477768 0.0312966 0.0465078
v -0.434172 0.0312966 -0.0599483
v -0.441217 0.0312966 -0.0431258
v -0.439394 0.0380493 -0.0474486
v -0.477768 0.0380493 0.0465078
v -0.474619 0.0380493 0.0379142
v -0.477022 0.0312966 0.0444766
v -0.466579 0.0380493 0.0180188
v -0.472878 0.0312966 0.0332789
v -0.472878 0.0380493 0.0332789
f 1 2 3
f 1 3 7
f 1 7 11
f 1 11 15
f 1 15 19
f 1 19 23
f 1 23 28
f 1 28 33
f 1 33 37
f 1 37 42
f 1 42 46
f 1 46 50
f 1 50 55
f 1 55 61
f 1 61 65
f 1 65 69
f 1 69 74
f 1 74 83
f 1 83 88
f 1 88 93
f 1 93 98
f 1 98 102
f 1 102 106
f 1 106 112
f 1 112 114
f 1 114 108
f 1 108 107
f 1 107 103
f 1 103 99
f 1 99 94
f 1 94 90
f 1 90 89
f 1 89 85
f 1 85 76
f 1 76 71
f 1 71 66
f 1 66 62
f 1 62 56
f 1 56 52
f 1 52 48
f 1 48 44
f 1 44 38
f 1 38 34
f 1 34 30
f 1 30 26
f 1 26 22
f 1 22 18
f 1 18 14
f 1 14 9
f 1 9 4
f 1 4 6
f 1 6 2
f 2 5 3
f 2 6 10
f 2 10 13
f 2 13 17
f 2 17 21
f 2 21 25
f 2 25 29
f 2 29 31
f 2 31 35
f 2 35 40
f 2 40 39
f 2 39 43
f 2 43 47
f 2 47 51
f 2 51 53
f 2 53 59
f 2 59 58
f 2 58 57
f 2 57 63
f 2 63 67
f 2 67 70
f 2 70 75
f 2 75 84
f 2 84 86
f 2 86 91
f 2 91 96
f 2 96 95
f 2 95 100
f 2 100 104
f 2 104 109
f 2 109 113
f 2 113 115
f 2 115 111
f 2 111 110
f 2 110 105
f 2 105 101
f 2 101 97
f 2 97 92
f 2 92 87
f 2 87 82
f 2 82 81
f 2 81 80
f 2 80 79
f 2 79 78
f 2 78 77
f 2 77 73
f 2 73 68
f 2 68 64
f 2 64 60
f 2 60 54
f 2 54 49
f 2 49 45
f 2 45 41
f 2 41 36
f 2 36 32
f 2 32 27
f 2 27 24
f 2 24 20
f 2 20 16
f 2 16 12
f 2 12 8
f 2 8 5
f 3 5 8
f 3 8 7
f 4 9 10
f 4 10 6
f 7 8 12
f 7 12 11
f 9 13 10
f 9 14 17
f 9 17 13
f 11 12 16
f 11 16 15
f 14 18 21
f 14 21 17
f 15 16 20
f 15 20 19
f 18 22 25
f 18 25 21
f 19 20 24
f 19 24 23
f 22 26 29
f 22 29 25
f 23 24 27
f 23 27 28
f 26 30 31
f 26 31 29
f 27 32 28
f 28 32 36
f 28 36 33
f 30 34 40
f 30 40 35
f 30 35 31
f 33 36 37
f 34 38 39
f 34 39 40
f 36 41 37
f 37 41 42
f 38 43 39
f 38 44 43
f 41 45 42
f 42 45 49
f 42 49 46
f 43 44 47
f 44 48 47
f 46 49 50
f 47 48 51
f 48 52 53
f 48 53 51
f 49 54 50
f 50 54 55
f 52 56 57
f 52 57 58
f 52 58 59
f 52 59 53
f 54 60 61
f 54 61 55
f 56 62 63
f 56 63 57
f 60 64 65
f 60 65 61
f 62 66 67
f 62 67 63
f 64 68 72
f 64 72 69
f 64 69 65
f 66 70 67
f 66 71 70
f 68 73 72
f 69 72 80
f 69 80 81
f 69 81 74
f 70 71 75
f 71 76 75
f 72 73 77
f 72 77 78
f 72 78 79
f 72 79 80
f 74 81 82
f 74 82 83
f 75 76 84
f 76 85 86
f 76 86 84
f 82 87 83
f 83 87 92
f 83 92 88
f 85 89 86
f 86 89 90
f 86 90 91
f 88 92 97
f 88 97 93
f 90 94 95
f 90 95 96
f 90 96 91
f 93 97 98
f 94 99 100
f 94 100 95
f 97 101 98
f 98 101 102
f 99 103 100
f 100 103 104
f 101 105 102
f 102 105 110
f 102 110 106
f 103 107 104
f 104 107 108
f 104 108 109
f 106 110 111
f 106 111 112
f 108 113 109
f 108 114 113
f 111 115 114
f 111 114 112
f 113 114 115
