v 0.482647 0.166645 0.073275
v 0.482647 0.0814823 0.073275
v 0.48088 0.166645 0.0599892
v 0.479953 0.174396 0.0532216
v 0.480615 0.179294 0.0590224
v 0.482426 0.179969 0.073275
v 0.440226 0.0814605 0.073275
v 0.481565 0.0814605 0.0651663
v 0.48088 0.0814605 0.0599892
v 0.480328 0.0814605 0.0558413
v 0.479975 0.166645 0.0531904
v 0.479754 0.183279 0.0539389
v 0.477811 0.166645 0.0465163
v 0.472378 0.179969 0.0333241
v 0.477789 0.179294 0.0479197
v 0.480417 0.187241 0.0628273
v 0.481079 0.18796 0.073275
v 0.368389 0.0814605 0.073275
v 0.479975 0.0814605 0.0531904
v 0.468271 0.179969 0.0225956
v 0.467631 0.18772 0.0240926
v 0.477811 0.0814605 0.0465163
v 0.472908 0.166645 0.0333241
v 0.469243 0.188754 0.0333241
v 0.47165 0.189255 0.0466411
v 0.473284 0.190561 0.073275
v 0.368389 0.16659 0.073275
v 0.257069 0.166645 -0.10443
v 0.257069 0.0814605 -0.104898
v 0.453365 0.177411 -0.0135817
v 0.453255 0.186305 -0.0133322
v 0.440667 0.187448 -0.0418062
v 0.454999 0.188199 -0.00444378
v 0.472908 0.0814605 0.0333241
v 0.468381 0.166645 0.0223773
v 0.459946 0.191367 0.0333241
v 0.442191 0.188548 -0.0333544
v 0.429824 0.188983 -0.0600196
v 0.433269 0.19116 -0.0333544
v 0.459946 0.191857 0.073275
v 0.459946 0.191857 0.0466411
v 0.368787 0.179926 0.073275
v 0.257069 0.179969 -0.10468
v 0.257069 0.0814605 -0.245335
v 0.434263 0.166645 -0.0600196
v 0.441131 0.179969 -0.0429289
v 0.465621 0.166645 0.0157032
v 0.433645 0.179969 -0.0600196
v 0.428919 0.179969 -0.070405
v 0.428058 0.188036 -0.0690327
v 0.468381 0.0814605 0.0223773
v 0.446608 0.191726 0.00665891
v 0.419953 0.191596 -0.0600196
v 0.42024 0.18956 -0.0734301
v 0.393277 0.191857 0.073275
v 0.257069 0.192673 -0.126417
v 0.433269 0.191857 -0.0200063
v 0.371194 0.18846 0.073275
v 0.257069 0.183148 -0.105865
v 0.257069 0.166645 -0.245335
v 0.258769 0.0814605 -0.24415
v 0.451753 0.0814605 -0.017792
v 0.434263 0.0814605 -0.0600196
v 0.431083 0.0814605 -0.0664754
v 0.429051 0.166645 -0.0705921
v 0.465621 0.0814605 0.0157032
v 0.424635 0.166645 -0.0772662
v 0.424304 0.179969 -0.0770791
v 0.400542 0.18723 -0.107424
v 0.388198 0.187971 -0.122051
v 0.415978 0.188384 -0.0837532
v 0.393277 0.190997 -0.0999706
v 0.379939 0.191552 -0.113319
v 0.366645 0.191846 -0.126636
v 0.406615 0.191857 -0.0733366
v 0.419953 0.191857 -0.0466714
v 0.392902 0.188831 -0.112445
v 0.380093 0.189516 -0.126542
v 0.379939 0.191846 0.0599892
v 0.379939 0.191106 0.073275
v 0.257069 0.19263 -0.135836
v 0.257069 0.192216 -0.122893
v 0.257069 0.190398 -0.112196
v 0.257069 0.179969 -0.244898
v 0.258548 0.179969 -0.2439
v 0.258769 0.166645 -0.24415
v 0.261375 0.0814605 -0.242154
v 0.429051 0.0814605 -0.0705921
v 0.426357 0.0814605 -0.0746776
v 0.424635 0.0814605 -0.0772662
v 0.417966 0.166645 -0.0860922
v 0.417657 0.179969 -0.0858739
v 0.400962 0.179969 -0.107955
v 0.360263 0.186947 -0.160349
v 0.375765 0.188362 -0.136647
v 0.353307 0.19079 -0.153301
v 0.339968 0.191236 -0.166618
v 0.353307 0.191857 -0.139984
v 0.3526 0.188417 -0.165526
v 0.257069 0.190616 -0.113475
v 0.313314 0.191857 -0.179966
v 0.257069 0.192619 -0.137052
v 0.257069 0.186512 -0.242746
v 0.280344 0.186926 -0.226903
v 0.280653 0.179969 -0.227152
v 0.333454 0.176954 -0.186734
v 0.265438 0.166645 -0.239035
v 0.318172 0.166645 -0.198585
v 0.318172 0.0814605 -0.198585
v 0.417966 0.0814605 -0.0860922
v 0.362891 0.0814605 -0.157885
v 0.360638 0.166645 -0.160817
v 0.360528 0.179969 -0.160692
v 0.355029 0.179969 -0.167366
v 0.34836 0.179969 -0.174883
v 0.347698 0.187546 -0.174259
v 0.339968 0.188624 -0.177315
v 0.299645 0.189342 -0.206631
v 0.273322 0.190768 -0.219948
v 0.286638 0.1914 -0.206631
v 0.299976 0.191792 -0.193283
v 0.259984 0.191857 -0.219948
v 0.257069 0.191857 -0.219948
v 0.257069 0.187949 -0.242247
v 0.257069 0.188504 -0.24153
v 0.294985 0.187764 -0.214553
v 0.333255 0.185837 -0.186578
v 0.338732 0.180829 -0.182523
v 0.340189 0.166645 -0.181681
v 0.340189 0.0814605 -0.181681
v 0.360638 0.0814605 -0.160817
v 0.355162 0.166645 -0.167491
v 0.348493 0.166645 -0.175007
v 0.309582 0.188286 -0.202171
v 0.260646 0.189756 -0.233951
v 0.257069 0.190289 -0.233795
v 0.348493 0.0814605 -0.175007
v 0.355162 0.0814605 -0.167491
f 1 2 9
f 1 9 3
f 1 3 4
f 1 4 5
f 1 5 6
f 1 6 17
f 1 17 26
f 1 26 40
f 1 40 55
f 1 55 80
f 1 80 58
f 1 58 42
f 1 42 27
f 1 27 18
f 1 18 7
f 1 7 2
f 2 7 8
f 2 8 9
f 3 9 10
f 3 10 11
f 3 11 4
f 4 12 5
f 4 11 13
f 4 13 14
f 4 14 15
f 4 15 12
f 5 12 6
f 6 16 17
f 6 12 16
f 7 18 29
f 7 29 44
f 7 44 61
f 7 61 87
f 7 87 109
f 7 109 130
f 7 130 137
f 7 137 138
f 7 138 131
f 7 131 111
f 7 111 110
f 7 110 90
f 7 90 89
f 7 89 88
f 7 88 64
f 7 64 63
f 7 63 62
f 7 62 66
f 7 66 51
f 7 51 34
f 7 34 22
f 7 22 19
f 7 19 10
f 7 10 9
f 7 9 8
f 10 19 11
f 11 19 22
f 11 22 13
f 12 15 14
f 12 14 20
f 12 20 21
f 12 21 16
f 13 22 34
f 13 34 23
f 13 23 14
f 14 23 20
f 16 21 24
f 16 24 25
f 16 25 17
f 17 25 26
f 18 27 28
f 18 28 29
f 20 23 30
f 20 30 31
f 20 31 21
f 21 31 32
f 21 32 33
f 21 33 24
f 23 34 51
f 23 51 35
f 23 35 30
f 24 36 25
f 24 33 37
f 24 37 38
f 24 38 39
f 24 39 36
f 25 36 26
f 26 36 41
f 26 41 40
f 27 42 43
f 27 43 28
f 28 43 59
f 28 59 83
f 28 83 100
f 28 100 82
f 28 82 56
f 28 56 81
f 28 81 102
f 28 102 123
f 28 123 136
f 28 136 125
f 28 125 124
f 28 124 103
f 28 103 84
f 28 84 60
f 28 60 44
f 28 44 29
f 30 45 46
f 30 46 31
f 30 35 47
f 30 47 45
f 31 46 32
f 32 37 33
f 32 46 48
f 32 48 49
f 32 49 50
f 32 50 37
f 35 51 66
f 35 66 47
f 36 52 41
f 36 39 53
f 36 53 52
f 37 50 38
f 38 50 54
f 38 54 53
f 38 53 39
f 40 41 56
f 40 56 55
f 41 52 57
f 41 57 56
f 42 58 59
f 42 59 43
f 44 60 86
f 44 86 61
f 45 62 63
f 45 63 64
f 45 64 65
f 45 65 49
f 45 49 48
f 45 48 46
f 45 47 62
f 47 66 62
f 49 65 67
f 49 67 68
f 49 68 50
f 50 68 69
f 50 69 70
f 50 70 71
f 50 71 54
f 52 53 57
f 53 54 72
f 53 72 73
f 53 73 74
f 53 74 75
f 53 75 76
f 53 76 57
f 54 71 77
f 54 77 78
f 54 78 72
f 55 79 80
f 55 56 79
f 56 82 80
f 56 80 79
f 56 57 76
f 56 76 75
f 56 75 81
f 58 80 83
f 58 83 59
f 60 84 85
f 60 85 86
f 61 86 87
f 64 88 65
f 65 88 89
f 65 89 67
f 67 89 90
f 67 90 110
f 67 110 91
f 67 91 68
f 68 91 92
f 68 92 69
f 69 92 93
f 69 93 94
f 69 94 70
f 70 95 78
f 70 78 77
f 70 77 71
f 70 94 95
f 72 78 96
f 72 96 73
f 73 96 97
f 73 97 74
f 74 97 98
f 74 98 81
f 74 81 75
f 78 95 99
f 78 99 96
f 80 82 100
f 80 100 83
f 81 98 101
f 81 101 102
f 84 103 85
f 85 103 104
f 85 104 105
f 85 105 86
f 86 105 106
f 86 106 107
f 86 107 87
f 87 107 108
f 87 108 109
f 91 110 111
f 91 111 112
f 91 112 113
f 91 113 93
f 91 93 92
f 93 113 94
f 94 113 114
f 94 114 115
f 94 115 116
f 94 116 99
f 94 99 95
f 96 99 97
f 97 99 116
f 97 116 117
f 97 117 118
f 97 118 119
f 97 119 120
f 97 120 121
f 97 121 101
f 97 101 98
f 101 121 122
f 101 122 102
f 102 122 123
f 103 124 104
f 104 124 125
f 104 125 126
f 104 126 116
f 104 116 127
f 104 127 105
f 105 127 106
f 106 127 128
f 106 128 129
f 106 129 108
f 106 108 107
f 108 129 130
f 108 130 109
f 111 131 112
f 112 131 138
f 112 138 132
f 112 132 113
f 113 132 114
f 114 132 133
f 114 133 115
f 115 133 129
f 115 129 128
f 115 128 127
f 115 127 116
f 116 126 134
f 116 134 117
f 117 134 118
f 118 134 125
f 118 125 135
f 118 135 119
f 119 122 120
f 119 135 136
f 119 136 122
f 120 122 121
f 122 136 123
f 125 136 135
f 125 134 126
f 129 133 137
f 129 137 130
f 132 138 137
f 132 137 133
