v 0.0066181 0.0814605 -0.3328
v 0.0333236 0.0380493 -0.314379
v 0.0199967 0.0380493 -0.316131
v 0.0152444 0.0380493 -0.316747
v 0.0066181 0.0380493 -0.317836
v -0.00665715 0.0380493 -0.317836
v 0.00413868 0.0814605 -0.332682
v 0.126612 0.0814605 -0.301404
v 0.126612 0.0380493 -0.301404
v 0.113285 0.0380493 -0.303843
v -0.0113577 0.0380493 -0.317244
v -0.0199841 0.0380493 -0.316131
v -0.0246846 0.0380493 -0.315516
v -0.104698 0.0380493 -0.304979
v -0.113272 0.0380493 -0.303843
v -0.126651 0.0380493 -0.301404
v -0.126651 0.0814605 -0.301404
v 0.131829 0.0814605 -0.299723
v 0.135238 0.0380493 -0.29861
v -0.139978 0.0380493 -0.297071
v -0.139978 0.0814605 -0.297071
v 0.139939 0.0814605 -0.297071
v 0.139939 0.0380493 -0.297071
v -0.147881 0.0380493 -0.293804
v -0.147881 0.0814605 -0.293804
v 0.143038 0.0814605 -0.295793
v 0.152181 0.0380493 -0.292028
v -0.215755 0.0380493 -0.265699
v -0.21746 0.0814605 -0.264988
v 0.159258 0.0814605 -0.289092
v 0.166644 0.0814605 -0.286037
v 0.162357 0.0380493 -0.287813
v -0.233266 0.0380493 -0.25843
v -0.233266 0.0814605 -0.25843
v 0.166644 0.0380493 -0.286037
v 0.213392 0.0814605 -0.266669
v 0.217679 0.0380493 -0.264894
v -0.242357 0.0380493 -0.254476
v -0.242357 0.0814605 -0.254476
v 0.233279 0.0814605 -0.25843
v 0.233279 0.0380493 -0.25843
v -0.249021 0.0380493 -0.250806
v -0.249021 0.0814605 -0.250806
v 0.242318 0.0814605 -0.254476
v 0.242318 0.0380493 -0.254476
v -0.258732 0.0380493 -0.244176
v -0.254961 0.0814605 -0.246757
v 0.244953 0.0814605 -0.253055
v 0.246657 0.0380493 -0.252108
v -0.258732 0.0380493 -0.0994126
v -0.258732 0.0814308 -0.244176
v -0.258732 0.0814605 -0.244105
v 0.248982 0.0814605 -0.250806
v 0.248982 0.0380493 -0.250806
v -0.258732 0.0814605 -0.103627
v -0.19716 0.0380493 -0.0909361
v -0.192201 0.0814605 -0.0909361
v 0.252804 0.0814605 -0.248225
v 0.255284 0.0380493 -0.24652
v 0.23643 0.0380493 -0.0909361
v 0.231161 0.0814605 -0.0909361
v 0.258745 0.0814605 -0.244152
v 0.258745 0.0380493 -0.244152
v 0.268972 0.0380493 -0.0913623
v 0.268972 0.0814605 -0.0952927
v 0.268972 0.0814605 -0.236315
v 0.268972 0.0380493 -0.236315
f 1 2 3
f 1 3 4
f 1 4 5
f 1 5 6
f 1 6 7
f 1 7 17
f 1 17 21
f 1 21 25
f 1 25 29
f 1 29 34
f 1 34 39
f 1 39 43
f 1 43 47
f 1 47 52
f 1 52 55
f 1 55 57
f 1 57 61
f 1 61 65
f 1 65 66
f 1 66 62
f 1 62 58
f 1 58 53
f 1 53 48
f 1 48 44
f 1 44 40
f 1 40 36
f 1 36 31
f 1 31 30
f 1 30 26
f 1 26 22
f 1 22 18
f 1 18 8
f 1 8 9
f 1 9 10
f 1 10 2
f 2 10 9
f 2 9 19
f 2 19 23
f 2 23 27
f 2 27 32
f 2 32 35
f 2 35 37
f 2 37 41
f 2 41 45
f 2 45 49
f 2 49 54
f 2 54 59
f 2 59 63
f 2 63 67
f 2 67 64
f 2 64 60
f 2 60 56
f 2 56 50
f 2 50 46
f 2 46 42
f 2 42 38
f 2 38 33
f 2 33 28
f 2 28 24
f 2 24 20
f 2 20 16
f 2 16 15
f 2 15 14
f 2 14 13
f 2 13 12
f 2 12 11
f 2 11 6
f 2 6 5
f 2 5 4
f 2 4 3
f 6 11 7
f 7 11 12
f 7 12 13
f 7 13 14
f 7 14 15
f 7 15 16
f 7 16 17
f 8 18 9
f 9 18 19
f 16 20 21
f 16 21 17
f 18 22 19
f 19 22 23
f 20 24 25
f 20 25 21
f 22 26 27
f 22 27 23
f 24 28 25
f 25 28 29
f 26 30 27
f 27 30 31
f 27 31 32
f 28 33 34
f 28 34 29
f 31 35 32
f 31 36 37
f 31 37 35
f 33 38 39
f 33 39 34
f 36 40 37
f 37 40 41
f 38 42 43
f 38 43 39
f 40 44 45
f 40 45 41
f 42 46 47
f 42 47 43
f 44 48 45
f 45 48 49
f 46 50 55
f 46 55 52
f 46 52 51
f 46 51 47
f 47 51 52
f 48 53 49
f 49 53 54
f 50 56 57
f 50 57 55
f 53 58 54
f 54 58 59
f 56 60 61
f 56 61 57
f 58 62 63
f 58 63 59
f 60 64 61
f 61 64 65
f 62 66 67
f 62 67 63
f 64 67 66
f 64 66 65
