v 0.257047 0.166647 -0.104441
v 0.257047 0.0814605 -0.10489
v 0.257047 0.179976 -0.104691
v 0.256223 0.113323 0.00664849
v 0.256223 0.0814605 0.00664849
v 0.257047 0.0814605 -0.245312
v 0.257047 0.183144 -0.105838
v 0.256277 0.166647 -0.00667034
v 0.256204 0.126662 0.00664849
v 0.255325 0.0814605 0.0199673
v 0.255893 0.0814605 0.0118363
v 0.252816 0.0814605 -0.248205
v 0.193411 0.192705 -0.295395
v 0.257047 0.166647 -0.245312
v 0.257047 0.190397 -0.112173
v 0.256277 0.192705 -0.0194404
v 0.255966 0.179976 -0.00667034
v 0.256131 0.139979 0.00664849
v 0.255289 0.0866656 0.0199673
v 0.254739 0.0814605 0.0241575
v 0.249008 0.0814605 -0.250799
v 0.144078 0.0814605 -0.295395
v 0.0699681 0.192705 -0.295395
v 0.216906 0.192705 -0.246609
v 0.257047 0.191856 -0.219971
v 0.257047 0.190288 -0.233789
v 0.257047 0.188502 -0.241521
v 0.256625 0.18836 -0.242419
v 0.257047 0.187947 -0.242219
v 0.257047 0.186509 -0.242718
v 0.257047 0.179976 -0.244913
v 0.257047 0.168945 -0.245262
v 0.242342 0.0814605 -0.25449
v 0.233296 0.0814605 -0.258431
v 0.198502 0.0814605 -0.272847
v 0.257047 0.192215 -0.122898
v 0.255344 0.192705 -0.00667034
v 0.257047 0.192673 -0.12639
v 0.256918 0.192705 -0.12639
v 0.25571 0.153308 0.00664849
v 0.253274 0.145609 0.026502
v 0.254117 0.140687 0.0212144
v 0.254556 0.126662 0.0199673
v 0.255051 0.0999941 0.0199673
v 0.253824 0.0866656 0.0303929
v 0.252908 0.0814605 0.037177
v 0.0699681 0.0814605 -0.295395
v 0.0699681 0.192705 0.208626
v 0.21773 0.192705 -0.244663
v 0.243605 0.192705 -0.176972
v 0.256735 0.192705 -0.136766
v 0.257047 0.192629 -0.137065
v 0.251846 0.192705 0.0199673
v 0.253219 0.185083 0.0126844
v 0.255014 0.166647 0.00664849
v 0.252835 0.166647 0.0231598
v 0.251498 0.166647 0.0332861
v 0.253146 0.153308 0.0255044
v 0.252084 0.153308 0.0332861
v 0.250234 0.153308 0.0466549
v 0.250546 0.139979 0.0466549
v 0.253366 0.136734 0.0271006
v 0.253586 0.113323 0.028647
v 0.251535 0.0866656 0.0466549
v 0.251571 0.0814605 0.0466549
v 0.0699681 0.0814605 0.214213
v 0.0699681 0.18995 0.209025
v 0.0733376 0.192705 0.208227
v 0.24996 0.192705 0.0332861
v 0.250765 0.179976 0.0332861
v 0.249447 0.166647 0.0466549
v 0.246718 0.153308 0.0599737
v 0.24725 0.139979 0.0599737
v 0.247762 0.126662 0.0599737
v 0.249301 0.0866656 0.0599737
v 0.250729 0.0814605 0.0518427
v 0.100037 0.0814605 0.214213
v 0.0699681 0.151108 0.214213
v 0.0704991 0.150618 0.214213
v 0.0722388 0.152371 0.213764
v 0.0860646 0.192705 0.205084
v 0.0759379 0.156194 0.212766
v 0.0772198 0.144096 0.214213
v 0.0802413 0.147297 0.213365
v 0.249832 0.192705 0.0339346
v 0.248074 0.179976 0.0466549
v 0.245528 0.166647 0.0599737
v 0.242049 0.153308 0.0712972
v 0.245052 0.0866656 0.0732925
v 0.249355 0.0814605 0.0599737
v 0.245162 0.0814605 0.0732925
v 0.247744 0.0814605 0.0651615
v 0.0993593 0.0866656 0.214213
v 0.110109 0.0814605 0.210322
v 0.0725501 0.148691 0.214213
v 0.0866689 0.192705 0.204934
v 0.0806991 0.138553 0.214213
v 0.0815964 0.139979 0.213863
v 0.246517 0.192705 0.0466549
v 0.246261 0.192705 0.0473532
v 0.242855 0.180858 0.061121
v 0.240602 0.177014 0.0681545
v 0.24139 0.166647 0.0699004
v 0.242433 0.139979 0.0721951
v 0.244283 0.0999941 0.0732925
v 0.234211 0.166647 0.0866113
v 0.228992 0.166647 0.098733
v 0.239082 0.153308 0.0779815
v 0.240034 0.121043 0.0801265
v 0.242287 0.125954 0.0743899
v 0.241042 0.0866656 0.0823713
v 0.241097 0.0814605 0.0825209
v 0.0984254 0.0894097 0.214213
v 0.121462 0.0814605 0.205932
v 0.126663 0.0866656 0.203637
v 0.132028 0.102836 0.199447
v 0.127963 0.126662 0.197901
v 0.0866689 0.166647 0.208426
v 0.0960448 0.192705 0.201443
v 0.082512 0.13484 0.214213
v 0.242012 0.192705 0.0582776
v 0.237983 0.180858 0.0728934
v 0.232435 0.179976 0.0866113
v 0.22815 0.179976 0.0967376
v 0.226007 0.166647 0.105367
v 0.226373 0.156106 0.106116
v 0.228901 0.152317 0.100978
v 0.230091 0.139979 0.09998
v 0.232435 0.0999941 0.09998
v 0.238075 0.0866656 0.0890556
v 0.233332 0.0814605 0.09998
v 0.0956786 0.0974678 0.214213
v 0.126663 0.0814605 0.203887
v 0.131369 0.0814605 0.201991
v 0.134372 0.0866656 0.200495
v 0.133475 0.0939505 0.200046
v 0.126663 0.179976 0.191366
v 0.1 0.153308 0.205184
v 0.085442 0.126662 0.214213
v 0.090661 0.126662 0.212267
v 0.10326 0.192705 0.198599
v 0.0923274 0.117058 0.212916
v 0.100421 0.178647 0.201642
v 0.111995 0.178647 0.197202
v 0.229835 0.192705 0.0876589
v 0.227271 0.190331 0.0945926
v 0.224835 0.179976 0.103422
v 0.217382 0.179377 0.113997
v 0.213592 0.174531 0.120332
v 0.220166 0.166647 0.113299
v 0.225092 0.0866656 0.11719
v 0.226666 0.147221 0.106664
v 0.228443 0.0866656 0.110505
v 0.233204 0.0866656 0.09998
v 0.228498 0.0814605 0.110655
v 0.0896172 0.114771 0.214213
v 0.134611 0.0814605 0.200644
v 0.141038 0.0866656 0.196504
v 0.136826 0.166647 0.188573
v 0.135306 0.179976 0.187725
v 0.134134 0.188676 0.187026
v 0.127981 0.192705 0.188722
v 0.228644 0.192705 0.0904025
v 0.224963 0.192705 0.0975358
v 0.223645 0.192705 0.0998304
v 0.216228 0.192705 0.110555
v 0.212511 0.183417 0.118936
v 0.200224 0.187413 0.133601
v 0.195664 0.179976 0.141184
v 0.19647 0.166647 0.142381
v 0.208611 0.166647 0.127615
v 0.214104 0.166647 0.120931
v 0.214837 0.153308 0.121829
v 0.216998 0.113323 0.124473
v 0.21773 0.0999941 0.125321
v 0.227234 0.0814605 0.113299
v 0.2174 0.0853916 0.127615
v 0.225202 0.0814605 0.117339
v 0.141276 0.0814605 0.196654
v 0.147466 0.0814605 0.192613
v 0.151183 0.0866656 0.18987
v 0.148729 0.113323 0.188124
v 0.146825 0.134186 0.186727
v 0.144902 0.153308 0.18548
v 0.143492 0.166647 0.184582
v 0.141972 0.179976 0.183734
v 0.138584 0.192705 0.183385
v 0.205882 0.192705 0.124074
v 0.203666 0.192444 0.127067
v 0.200517 0.192705 0.131007
v 0.194052 0.192705 0.139288
v 0.192294 0.192705 0.141533
v 0.187918 0.190277 0.147968
v 0.188998 0.179976 0.149065
v 0.19863 0.126662 0.145025
v 0.21079 0.126662 0.130259
v 0.186691 0.120368 0.15999
v 0.18713 0.113323 0.160439
v 0.193192 0.113323 0.153305
v 0.195316 0.0866656 0.154303
v 0.195554 0.100397 0.152208
v 0.214379 0.0814605 0.131855
v 0.217492 0.0814605 0.127715
v 0.151366 0.0814605 0.189969
v 0.167939 0.0877981 0.177748
v 0.15664 0.0999941 0.184233
v 0.174055 0.0841066 0.173807
v 0.154351 0.166266 0.177149
v 0.151916 0.179976 0.17705
v 0.150103 0.192705 0.175803
v 0.203337 0.192705 0.127366
v 0.181655 0.192705 0.152158
v 0.179311 0.192705 0.154053
v 0.173726 0.187522 0.160239
v 0.181215 0.179976 0.15575
v 0.17455 0.179976 0.160838
v 0.175777 0.166647 0.161736
v 0.177004 0.153308 0.162633
v 0.180849 0.125551 0.163531
v 0.17325 0.0929923 0.173259
v 0.179091 0.0877981 0.169567
v 0.187918 0.0999941 0.161237
v 0.195426 0.0814605 0.154453
v 0.212035 0.0814605 0.134699
v 0.18865 0.0866656 0.161985
v 0.172242 0.0814605 0.175204
v 0.17411 0.0814605 0.173857
v 0.179915 0.0814605 0.169268
v 0.166639 0.179976 0.166524
v 0.164405 0.192705 0.165277
v 0.170027 0.192705 0.161087
v 0.16717 0.192705 0.163232
v 0.166968 0.192705 0.163382
v 0.188742 0.0814605 0.162085
v 0.185647 0.0814605 0.164679
f 1 2 6
f 1 6 14
f 1 14 32
f 1 32 31
f 1 31 30
f 1 30 29
f 1 29 27
f 1 27 26
f 1 26 25
f 1 25 52
f 1 52 38
f 1 38 36
f 1 36 15
f 1 15 7
f 1 7 3
f 1 3 4
f 1 4 5
f 1 5 2
f 2 5 11
f 2 11 10
f 2 10 20
f 2 20 46
f 2 46 65
f 2 65 76
f 2 76 90
f 2 90 92
f 2 92 91
f 2 91 112
f 2 112 131
f 2 131 155
f 2 155 176
f 2 176 178
f 2 178 203
f 2 203 202
f 2 202 224
f 2 224 223
f 2 223 234
f 2 234 235
f 2 235 228
f 2 228 227
f 2 227 226
f 2 226 204
f 2 204 180
f 2 180 179
f 2 179 157
f 2 157 134
f 2 134 133
f 2 133 114
f 2 114 94
f 2 94 77
f 2 77 66
f 2 66 47
f 2 47 22
f 2 22 35
f 2 35 34
f 2 34 33
f 2 33 21
f 2 21 12
f 2 12 6
f 3 7 8
f 3 8 4
f 4 8 9
f 4 9 10
f 4 10 11
f 4 11 5
f 6 12 13
f 6 13 14
f 7 15 16
f 7 16 8
f 8 16 17
f 8 17 18
f 8 18 9
f 9 18 10
f 10 18 19
f 10 19 20
f 12 21 13
f 13 22 47
f 13 47 23
f 13 23 48
f 13 48 68
f 13 68 81
f 13 81 96
f 13 96 119
f 13 119 141
f 13 141 162
f 13 162 187
f 13 187 210
f 13 210 230
f 13 230 233
f 13 233 232
f 13 232 231
f 13 231 213
f 13 213 212
f 13 212 192
f 13 192 191
f 13 191 190
f 13 190 211
f 13 211 188
f 13 188 166
f 13 166 165
f 13 165 164
f 13 164 163
f 13 163 145
f 13 145 121
f 13 121 100
f 13 100 99
f 13 99 85
f 13 85 69
f 13 69 53
f 13 53 37
f 13 37 16
f 13 16 39
f 13 39 51
f 13 51 50
f 13 50 49
f 13 49 24
f 13 24 25
f 13 25 26
f 13 26 27
f 13 27 28
f 13 28 29
f 13 29 30
f 13 30 31
f 13 31 32
f 13 32 14
f 13 21 33
f 13 33 34
f 13 34 35
f 13 35 22
f 15 36 16
f 16 37 17
f 16 36 38
f 16 38 39
f 17 37 40
f 17 40 18
f 18 40 41
f 18 41 42
f 18 42 43
f 18 43 44
f 18 44 19
f 19 44 45
f 19 45 20
f 20 45 46
f 23 47 66
f 23 66 78
f 23 78 67
f 23 67 48
f 24 49 25
f 25 49 50
f 25 50 51
f 25 51 52
f 27 29 28
f 37 53 54
f 37 54 55
f 37 55 40
f 38 52 39
f 39 52 51
f 40 55 56
f 40 56 57
f 40 57 58
f 40 58 41
f 41 58 59
f 41 59 60
f 41 60 61
f 41 61 62
f 41 62 42
f 42 62 43
f 43 62 63
f 43 63 44
f 44 63 64
f 44 64 45
f 45 64 46
f 46 64 65
f 48 67 68
f 53 55 54
f 53 69 70
f 53 70 57
f 53 57 56
f 53 56 55
f 57 70 60
f 57 60 59
f 57 59 58
f 60 71 72
f 60 72 73
f 60 73 74
f 60 74 75
f 60 75 61
f 60 70 71
f 61 63 62
f 61 75 64
f 61 64 63
f 64 75 76
f 64 76 65
f 66 77 93
f 66 93 113
f 66 113 132
f 66 132 156
f 66 156 139
f 66 139 120
f 66 120 97
f 66 97 83
f 66 83 95
f 66 95 79
f 66 79 78
f 67 78 79
f 67 79 80
f 67 80 68
f 68 80 82
f 68 82 83
f 68 83 84
f 68 84 81
f 69 85 71
f 69 71 70
f 71 86 87
f 71 87 72
f 71 85 86
f 72 87 88
f 72 88 89
f 72 89 73
f 73 89 74
f 74 89 75
f 75 90 76
f 75 89 91
f 75 91 92
f 75 92 90
f 77 94 93
f 79 95 80
f 80 95 83
f 80 83 82
f 81 84 96
f 83 97 84
f 84 97 98
f 84 98 96
f 85 99 86
f 86 99 87
f 87 99 100
f 87 100 101
f 87 101 102
f 87 102 103
f 87 103 88
f 88 104 105
f 88 105 89
f 88 103 106
f 88 106 107
f 88 107 108
f 88 108 109
f 88 109 110
f 88 110 104
f 89 105 111
f 89 111 112
f 89 112 91
f 93 94 114
f 93 114 115
f 93 115 116
f 93 116 117
f 93 117 113
f 96 118 119
f 96 98 118
f 97 120 98
f 98 120 118
f 100 121 101
f 101 121 102
f 102 122 123
f 102 123 103
f 102 121 122
f 103 123 124
f 103 124 106
f 104 110 105
f 105 110 111
f 106 124 107
f 107 124 125
f 107 125 126
f 107 126 108
f 108 126 127
f 108 127 128
f 108 128 109
f 109 111 110
f 109 128 129
f 109 129 130
f 109 130 111
f 111 130 112
f 112 130 131
f 113 117 132
f 114 133 115
f 115 133 134
f 115 134 135
f 115 135 136
f 115 136 116
f 116 136 137
f 116 137 117
f 117 137 138
f 117 138 132
f 118 120 139
f 118 139 140
f 118 140 119
f 119 140 142
f 119 142 138
f 119 138 143
f 119 143 144
f 119 144 137
f 119 137 141
f 121 145 122
f 122 145 123
f 123 145 124
f 124 145 146
f 124 146 147
f 124 147 125
f 125 147 148
f 125 148 149
f 125 149 150
f 125 150 151
f 125 151 126
f 126 152 127
f 126 151 152
f 127 152 128
f 128 152 129
f 129 152 153
f 129 153 154
f 129 154 130
f 130 154 131
f 131 154 153
f 131 153 155
f 132 138 142
f 132 142 156
f 134 157 135
f 135 157 179
f 135 179 158
f 135 158 185
f 135 185 159
f 135 159 160
f 135 160 136
f 136 160 137
f 137 144 138
f 137 160 161
f 137 161 141
f 138 144 143
f 139 156 142
f 139 142 140
f 141 161 162
f 145 163 146
f 146 164 165
f 146 165 147
f 146 163 164
f 147 166 148
f 147 165 166
f 148 166 167
f 148 167 168
f 148 168 149
f 149 168 169
f 149 169 170
f 149 170 171
f 149 171 172
f 149 172 150
f 150 172 173
f 150 173 174
f 150 174 175
f 150 175 151
f 151 176 153
f 151 153 152
f 151 175 177
f 151 177 178
f 151 178 176
f 153 176 155
f 158 179 180
f 158 180 181
f 158 181 182
f 158 182 183
f 158 183 184
f 158 184 185
f 159 185 186
f 159 186 160
f 160 186 161
f 161 186 187
f 161 187 162
f 166 188 168
f 166 168 167
f 168 188 189
f 168 189 190
f 168 190 191
f 168 191 192
f 168 192 193
f 168 193 169
f 169 193 194
f 169 194 170
f 170 195 196
f 170 196 173
f 170 173 171
f 170 194 197
f 170 197 198
f 170 198 199
f 170 199 200
f 170 200 201
f 170 201 195
f 171 173 172
f 173 196 202
f 173 202 174
f 174 202 175
f 175 202 177
f 177 202 203
f 177 203 178
f 180 204 181
f 181 205 206
f 181 206 182
f 181 204 207
f 181 207 205
f 182 206 208
f 182 208 183
f 183 208 209
f 183 209 184
f 184 209 185
f 185 209 186
f 186 209 210
f 186 210 187
f 188 211 189
f 189 211 190
f 192 212 193
f 193 212 213
f 193 213 214
f 193 214 215
f 193 215 194
f 194 215 197
f 195 202 196
f 195 201 200
f 195 200 202
f 197 215 216
f 197 216 217
f 197 217 218
f 197 218 219
f 197 219 220
f 197 220 207
f 197 207 221
f 197 221 198
f 198 222 200
f 198 200 199
f 198 221 222
f 200 223 224
f 200 224 202
f 200 222 225
f 200 225 223
f 204 226 207
f 205 208 206
f 205 207 220
f 205 220 219
f 205 219 218
f 205 218 208
f 207 226 227
f 207 227 228
f 207 228 225
f 207 225 221
f 208 218 229
f 208 229 209
f 209 229 214
f 209 214 210
f 210 214 230
f 213 231 214
f 214 231 232
f 214 232 233
f 214 233 230
f 214 229 216
f 214 216 215
f 216 229 217
f 217 229 218
f 221 225 222
f 223 225 234
f 225 228 235
f 225 235 234
