v -0.366637 0.191867 0.352762
v -0.353269 0.191493 0.352762
v -0.366637 0.191867 0.339959
v -0.43327 0.191867 0.352762
v -0.366637 0.191835 0.326628
v -0.343605 0.188895 0.352762
v -0.383503 0.189207 0.214213
v -0.393304 0.19182 0.214213
v -0.393304 0.191867 0.219977
v -0.446603 0.191867 0.339959
v -0.446603 0.191447 0.352762
v -0.340089 0.180387 0.352762
v -0.345269 0.187978 0.343173
v -0.381142 0.183933 0.214213
v -0.40662 0.191867 0.214213
v -0.459937 0.191867 0.299965
v -0.459937 0.191835 0.313296
v -0.459937 0.190887 0.326628
v -0.4562 0.188818 0.352762
v -0.340004 0.179967 0.352762
v -0.379732 0.179967 0.214213
v -0.47327 0.191867 0.214213
v -0.47327 0.191867 0.233308
v -0.47327 0.19182 0.246653
v -0.47327 0.191587 0.259984
v -0.47327 0.191042 0.273316
v -0.47096 0.189222 0.313296
v -0.456421 0.188413 0.352762
v -0.468447 0.188273 0.326628
v -0.467003 0.187107 0.334277
v -0.318042 0.0329533 0.352762
v -0.318195 0.0329533 0.344842
v -0.358501 0.0329533 0.214213
v -0.484939 0.189253 0.214213
v -0.483003 0.189222 0.246653
v -0.482374 0.188973 0.259984
v -0.47327 0.190249 0.286634
v -0.48161 0.188444 0.273316
v -0.480795 0.187651 0.286634
v -0.480234 0.187013 0.295381
v -0.45958 0.179967 0.352762
v -0.479232 0.179967 0.30364
v -0.475886 0.179967 0.313296
v -0.470621 0.179967 0.326628
v -0.467309 0.179967 0.334982
v -0.460124 0.0329533 0.352762
v -0.491547 0.0329533 0.214213
v -0.487504 0.185567 0.214213
v -0.490765 0.179998 0.214213
v -0.485177 0.179967 0.259984
v -0.483529 0.179967 0.273316
v -0.481831 0.179967 0.286634
v -0.480455 0.179967 0.296981
v -0.460124 0.166636 0.352762
v -0.479572 0.166636 0.30421
v -0.476464 0.166636 0.313296
v -0.464642 0.166636 0.341858
v -0.461907 0.0329533 0.348463
v -0.49085 0.0329533 0.219624
v -0.491547 0.166636 0.214213
v -0.490799 0.166636 0.219977
v -0.485534 0.166636 0.259984
v -0.482018 0.166636 0.286634
v -0.48054 0.166636 0.297537
v -0.479606 0.0329533 0.30402
v -0.479572 0.0329533 0.30421
v -0.476464 0.0329533 0.313296
v -0.464642 0.0329533 0.341858
v -0.485585 0.0329533 0.259605
v -0.482069 0.0329533 0.286254
v -0.482018 0.0329533 0.286634
v -0.48054 0.0329533 0.297537
f 1 2 3
f 1 3 9
f 1 9 15
f 1 15 22
f 1 22 23
f 1 23 16
f 1 16 10
f 1 10 4
f 1 4 11
f 1 11 19
f 1 19 28
f 1 28 41
f 1 41 54
f 1 54 46
f 1 46 31
f 1 31 20
f 1 20 12
f 1 12 6
f 1 6 2
f 2 5 3
f 2 6 7
f 2 7 8
f 2 8 5
f 3 5 9
f 4 10 11
f 5 8 9
f 6 12 13
f 6 13 7
f 7 13 14
f 7 14 21
f 7 21 33
f 7 33 47
f 7 47 60
f 7 60 49
f 7 49 48
f 7 48 34
f 7 34 22
f 7 22 15
f 7 15 8
f 8 15 9
f 10 16 17
f 10 17 11
f 11 17 18
f 11 18 19
f 12 20 21
f 12 21 13
f 13 21 14
f 16 23 17
f 17 23 24
f 17 24 25
f 17 25 26
f 17 26 27
f 17 27 18
f 18 27 19
f 19 27 29
f 19 29 30
f 19 30 28
f 20 31 32
f 20 32 21
f 21 32 33
f 22 34 23
f 23 34 24
f 24 34 35
f 24 35 25
f 25 35 36
f 25 36 26
f 26 37 27
f 26 36 38
f 26 38 37
f 27 37 38
f 27 38 39
f 27 39 40
f 27 40 29
f 28 30 41
f 29 40 30
f 30 40 42
f 30 42 43
f 30 43 44
f 30 44 45
f 30 45 41
f 31 46 58
f 31 58 68
f 31 68 67
f 31 67 66
f 31 66 65
f 31 65 72
f 31 72 71
f 31 71 70
f 31 70 69
f 31 69 59
f 31 59 47
f 31 47 33
f 31 33 32
f 34 48 36
f 34 36 35
f 36 48 49
f 36 49 38
f 38 49 39
f 39 49 40
f 40 49 50
f 40 50 51
f 40 51 52
f 40 52 53
f 40 53 42
f 41 45 54
f 42 55 56
f 42 56 43
f 42 53 55
f 43 56 44
f 44 56 45
f 45 57 54
f 45 56 57
f 46 54 58
f 47 59 60
f 49 60 50
f 50 60 51
f 51 60 52
f 52 60 61
f 52 61 62
f 52 62 63
f 52 63 53
f 53 64 55
f 53 63 64
f 54 57 58
f 55 64 65
f 55 65 66
f 55 66 67
f 55 67 56
f 56 67 68
f 56 68 57
f 57 68 58
f 59 61 60
f 59 69 62
f 59 62 61
f 62 69 70
f 62 70 63
f 63 70 71
f 63 71 72
f 63 72 64
f 64 72 65
