v 0.473265 0.191867 0.233308
v 0.473265 0.191867 0.214213
v 0.459945 0.191867 0.299965
v 0.459945 0.191835 0.313296
v 0.473265 0.19182 0.246653
v 0.47863 0.190732 0.214213
v 0.399062 0.191867 0.214213
v 0.446608 0.191867 0.339959
v 0.446608 0.191447 0.352762
v 0.459945 0.190887 0.326628
v 0.470961 0.189224 0.313296
v 0.473265 0.191043 0.273316
v 0.473265 0.191587 0.259984
v 0.483003 0.189224 0.246653
v 0.484937 0.189255 0.214213
v 0.393294 0.19182 0.214213
v 0.393294 0.191867 0.219977
v 0.433809 0.191867 0.352762
v 0.447113 0.191338 0.352762
v 0.456194 0.18882 0.352762
v 0.473265 0.19025 0.286634
v 0.468455 0.188276 0.326628
v 0.480228 0.187001 0.295381
v 0.480783 0.187639 0.286634
v 0.481607 0.188431 0.273316
v 0.482381 0.188975 0.259984
v 0.490773 0.179991 0.214213
v 0.387592 0.190328 0.214213
v 0.353266 0.191493 0.352762
v 0.353838 0.191571 0.352762
v 0.366637 0.191835 0.326628
v 0.366637 0.191867 0.339959
v 0.366637 0.191867 0.352762
v 0.459575 0.179976 0.352762
v 0.467009 0.18711 0.334277
v 0.479236 0.179976 0.30364
v 0.480463 0.179976 0.296981
v 0.481826 0.179976 0.286634
v 0.483524 0.179976 0.273316
v 0.485172 0.179976 0.259984
v 0.491345 0.171987 0.214213
v 0.383505 0.189209 0.214213
v 0.343848 0.188975 0.352762
v 0.46013 0.16664 0.352762
v 0.467295 0.179976 0.334982
v 0.470625 0.179976 0.326628
v 0.475889 0.179976 0.313296
v 0.476461 0.16664 0.313296
v 0.479572 0.16664 0.30421
v 0.480547 0.16664 0.297537
v 0.482027 0.16664 0.286634
v 0.491563 0.16664 0.214213
v 0.379721 0.179976 0.214213
v 0.34526 0.187981 0.343173
v 0.343612 0.188898 0.352762
v 0.464553 0.0330763 0.342075
v 0.470944 0.16664 0.326628
v 0.46013 0.0330763 0.352762
v 0.47636 0.0330763 0.31354
v 0.476461 0.0330763 0.313296
v 0.479572 0.0330763 0.30421
v 0.480547 0.0330763 0.297537
v 0.482027 0.0330763 0.286634
v 0.491563 0.0330763 0.214213
v 0.362869 0.0330763 0.214213
v 0.359758 0.0330763 0.219977
v 0.319764 0.0330763 0.352762
v 0.340013 0.179976 0.352762
f 1 2 7
f 1 7 17
f 1 17 32
f 1 32 33
f 1 33 18
f 1 18 8
f 1 8 3
f 1 3 4
f 1 4 5
f 1 5 6
f 1 6 2
f 2 6 15
f 2 15 27
f 2 27 41
f 2 41 52
f 2 52 64
f 2 64 65
f 2 65 53
f 2 53 42
f 2 42 28
f 2 28 16
f 2 16 7
f 3 8 4
f 4 8 9
f 4 9 10
f 4 10 11
f 4 11 12
f 4 12 13
f 4 13 5
f 5 13 14
f 5 14 15
f 5 15 6
f 7 16 17
f 8 18 9
f 9 18 33
f 9 33 30
f 9 30 29
f 9 29 43
f 9 43 55
f 9 55 68
f 9 68 67
f 9 67 58
f 9 58 44
f 9 44 34
f 9 34 20
f 9 20 19
f 9 19 10
f 10 19 20
f 10 20 11
f 11 21 12
f 11 20 22
f 11 22 23
f 11 23 24
f 11 24 25
f 11 25 21
f 12 21 25
f 12 25 26
f 12 26 13
f 13 26 14
f 14 26 15
f 15 26 27
f 16 28 29
f 16 29 30
f 16 30 31
f 16 31 17
f 17 31 32
f 20 34 35
f 20 35 22
f 22 35 23
f 23 36 37
f 23 37 38
f 23 38 39
f 23 39 40
f 23 40 27
f 23 27 24
f 23 35 36
f 24 27 25
f 25 27 26
f 27 40 41
f 28 42 43
f 28 43 29
f 30 33 32
f 30 32 31
f 34 44 45
f 34 45 35
f 35 45 46
f 35 46 47
f 35 47 36
f 36 48 49
f 36 49 37
f 36 47 48
f 37 49 50
f 37 50 51
f 37 51 52
f 37 52 38
f 38 52 39
f 39 52 41
f 39 41 40
f 42 53 54
f 42 54 55
f 42 55 43
f 44 56 57
f 44 57 45
f 44 58 56
f 45 57 48
f 45 48 46
f 46 48 47
f 48 57 56
f 48 56 59
f 48 59 60
f 48 60 61
f 48 61 49
f 49 61 62
f 49 62 50
f 50 62 63
f 50 63 51
f 51 63 64
f 51 64 52
f 53 65 66
f 53 66 67
f 53 67 68
f 53 68 54
f 54 68 55
f 56 58 67
f 56 67 66
f 56 66 65
f 56 65 64
f 56 64 63
f 56 63 62
f 56 62 61
f 56 61 60
f 56 60 59
