v -0.197161 0.0380493 -0.0909124
v -0.204455 0.0380493 -0.0825197
v -0.192188 0.0814605 -0.0909124
v 0.236412 0.0380493 -0.0909124
v -0.206018 0.0814605 -0.0599698
v -0.204313 0.0814605 -0.0638526
v -0.201519 0.0814605 -0.0701546
v -0.19683 0.0814605 -0.0807276
v -0.194177 0.0814605 -0.0866414
v -0.218238 0.0380493 -0.043931
v 0.231154 0.0814605 -0.0909124
v 0.245222 0.0380493 -0.0743061
v -0.210329 0.0814605 -0.046649
v -0.22018 0.0380493 -0.0332086
v 0.242427 0.0814605 -0.0654355
v 0.245648 0.0380493 -0.07344
v -0.212507 0.0814605 -0.0344033
v -0.220512 0.0380493 -0.0311179
v 0.244843 0.0814605 -0.0599698
v 0.246548 0.0814605 -0.0547729
v 0.258389 0.0380493 -0.0337761
v -0.216439 0.0814605 -0.00665654
v -0.221459 0.0380493 -0.0178269
v -0.217433 0.0814605 0.00669417
v 0.249153 0.0814605 -0.046649
v 0.250053 0.0814605 -0.041452
v 0.251426 0.0814605 -0.0333281
v 0.260662 0.0380493 -0.0200371
v -0.221933 0.0380493 -0.00665654
v -0.216533 0.0814605 0.020015
v -0.22198 0.0380493 -0.00456583
v -0.222122 0.0380493 0.00669417
v -0.221696 0.0380493 0.020015
v -0.220891 0.0380493 0.0333359
v 0.251995 0.0814605 -0.0294155
v 0.255215 0.0814605 -0.00665654
v 0.255642 0.0814605 -0.00145962
v 0.25621 0.0814605 0.00669417
v 0.261515 0.0380493 -0.00665654
v 0.252847 0.0814605 -0.0234719
v 0.253795 0.0814605 -0.0168114
v -0.212934 0.0814605 0.0455218
v -0.218665 0.0380493 0.0470749
v -0.212555 0.0814605 0.0481202
v 0.261373 0.0380493 0.0178646
v 0.261752 0.0380493 0.00669417
v 0.255879 0.0814605 0.0118911
v -0.218523 0.0380493 0.0478215
v -0.210565 0.0814605 0.0600074
v 0.261231 0.0380493 0.020015
v 0.25531 0.0814605 0.020015
v -0.205308 0.0380493 0.0859024
v -0.20635 0.0814605 0.0732984
v 0.260426 0.0380493 0.0311257
v 0.254742 0.0814605 0.0241965
v -0.194509 0.0814605 0.09997
v -0.198724 0.0814605 0.0905319
v -0.203555 0.0814605 0.0796602
v -0.192235 0.0380493 0.112873
v -0.189109 0.0814605 0.111857
v 0.260094 0.0380493 0.0333359
v 0.251568 0.0814605 0.0466866
v -0.191572 0.0380493 0.113978
v -0.185794 0.0814605 0.118518
v 0.258152 0.0380493 0.0438791
v 0.250716 0.0814605 0.0518835
v 0.249342 0.0814605 0.0600074
v -0.164575 0.0380493 0.151282
v -0.178879 0.0814605 0.127358
v 0.245695 0.0380493 0.083752
v 0.247732 0.0814605 0.0651745
v -0.163343 0.0380493 0.152746
v -0.156002 0.0814605 0.155165
v -0.173716 0.0814605 0.13384
v -0.175042 0.0814605 0.132227
v 0.245127 0.0814605 0.0732984
v 0.243516 0.0814605 0.0769721
v 0.244985 0.0380493 0.0853648
v -0.151644 0.0380493 0.164991
v -0.149323 0.0814605 0.162662
v 0.238117 0.0814605 0.0891879
v 0.23196 0.0380493 0.112425
v 0.233333 0.0814605 0.09997
v 0.228502 0.0814605 0.110692
v -0.149513 0.0380493 0.166664
v -0.141271 0.0814605 0.169322
v 0.205483 0.0380493 0.14943
v 0.227223 0.0814605 0.113291
v 0.225186 0.0814605 0.117353
v -0.134593 0.0814605 0.17422
v -0.112711 0.0380493 0.19229
v -0.111953 0.0814605 0.190438
v -0.114558 0.0814605 0.188586
v -0.129857 0.0814605 0.177625
v 0.221918 0.0814605 0.121743
v 0.217466 0.0814605 0.127717
v 0.214624 0.0814605 0.13148
v 0.21434 0.0814605 0.131838
v 0.204251 0.0380493 0.150954
v -0.110674 0.0380493 0.193574
v -0.102148 0.073323 0.197308
v -0.101769 0.0814605 0.197099
v 0.212019 0.0814605 0.134706
v 0.191463 0.0380493 0.164812
v 0.195394 0.0814605 0.154448
v 0.192789 0.0814605 0.157435
v 0.188716 0.0814605 0.162094
v -0.0953279 0.0380493 0.202146
v -0.09547 0.073323 0.201101
v -0.0950911 0.0814605 0.200892
v 0.152388 0.0380493 0.192081
v 0.185637 0.0814605 0.164693
v 0.179906 0.0814605 0.169292
v 0.17408 0.0814605 0.173892
v 0.172233 0.0814605 0.175206
v 0.151346 0.0814605 0.18999
v -0.087797 0.0380493 0.20588
v -0.0866129 0.073323 0.204775
v -0.0866129 0.0814605 0.204386
v 0.147462 0.0814605 0.192589
v 0.141257 0.0814605 0.196681
v 0.141636 0.073323 0.19686
v 0.134957 0.073323 0.200862
v 0.12809 0.0380493 0.205491
v -0.0862813 0.0380493 0.206447
v -0.0622676 0.073323 0.214213
v -0.0733035 0.073323 0.209942
v -0.0785136 0.0814605 0.207522
v 0.138652 0.0814605 0.198234
v 0.134579 0.0814605 0.200653
v 0.13131 0.0814605 0.201997
v 0.126621 0.073323 0.204327
v 0.127284 0.0380493 0.20582
v -0.0621729 0.0380493 0.214213
v -0.0612256 0.0814605 0.214213
v 0.126621 0.0814605 0.203908
v 0.113312 0.0814605 0.209075
v 0.101992 0.0380493 0.214213
v 0.104502 0.0814605 0.21248
v 0.101045 0.073323 0.214213
v 0.100003 0.0814605 0.214213
f 1 2 3
f 1 3 11
f 1 11 4
f 1 4 12
f 1 12 16
f 1 16 21
f 1 21 28
f 1 28 39
f 1 39 46
f 1 46 45
f 1 45 50
f 1 50 54
f 1 54 61
f 1 61 65
f 1 65 70
f 1 70 78
f 1 78 82
f 1 82 87
f 1 87 99
f 1 99 104
f 1 104 111
f 1 111 124
f 1 124 133
f 1 133 138
f 1 138 134
f 1 134 125
f 1 125 117
f 1 117 108
f 1 108 100
f 1 100 91
f 1 91 85
f 1 85 79
f 1 79 72
f 1 72 68
f 1 68 63
f 1 63 59
f 1 59 52
f 1 52 48
f 1 48 43
f 1 43 34
f 1 34 33
f 1 33 32
f 1 32 31
f 1 31 29
f 1 29 23
f 1 23 18
f 1 18 14
f 1 14 10
f 1 10 2
f 2 5 6
f 2 6 7
f 2 7 8
f 2 8 9
f 2 9 3
f 2 10 5
f 3 9 8
f 3 8 7
f 3 7 6
f 3 6 5
f 3 5 13
f 3 13 17
f 3 17 22
f 3 22 24
f 3 24 30
f 3 30 42
f 3 42 44
f 3 44 49
f 3 49 53
f 3 53 58
f 3 58 57
f 3 57 56
f 3 56 60
f 3 60 64
f 3 64 69
f 3 69 75
f 3 75 74
f 3 74 73
f 3 73 80
f 3 80 86
f 3 86 90
f 3 90 94
f 3 94 93
f 3 93 92
f 3 92 102
f 3 102 110
f 3 110 119
f 3 119 128
f 3 128 135
f 3 135 141
f 3 141 139
f 3 139 137
f 3 137 136
f 3 136 131
f 3 131 130
f 3 130 129
f 3 129 121
f 3 121 120
f 3 120 116
f 3 116 115
f 3 115 114
f 3 114 113
f 3 113 112
f 3 112 107
f 3 107 106
f 3 106 105
f 3 105 103
f 3 103 98
f 3 98 97
f 3 97 96
f 3 96 95
f 3 95 89
f 3 89 88
f 3 88 84
f 3 84 83
f 3 83 81
f 3 81 77
f 3 77 76
f 3 76 71
f 3 71 67
f 3 67 66
f 3 66 62
f 3 62 55
f 3 55 51
f 3 51 47
f 3 47 38
f 3 38 37
f 3 37 36
f 3 36 41
f 3 41 40
f 3 40 35
f 3 35 27
f 3 27 26
f 3 26 25
f 3 25 20
f 3 20 19
f 3 19 15
f 3 15 11
f 4 11 12
f 5 10 13
f 10 14 13
f 11 15 16
f 11 16 12
f 13 14 17
f 14 18 17
f 15 19 16
f 16 19 20
f 16 20 21
f 17 18 22
f 18 23 24
f 18 24 22
f 20 25 21
f 21 26 27
f 21 27 28
f 21 25 26
f 23 29 24
f 24 29 31
f 24 31 32
f 24 32 33
f 24 33 34
f 24 34 30
f 27 35 28
f 28 36 37
f 28 37 38
f 28 38 39
f 28 35 40
f 28 40 41
f 28 41 36
f 30 34 42
f 34 43 44
f 34 44 42
f 38 45 46
f 38 46 39
f 38 47 45
f 43 48 49
f 43 49 44
f 45 47 50
f 47 51 50
f 48 52 53
f 48 53 49
f 50 51 54
f 51 55 54
f 52 56 57
f 52 57 58
f 52 58 53
f 52 59 60
f 52 60 56
f 54 55 62
f 54 62 61
f 59 63 64
f 59 64 60
f 61 62 66
f 61 66 67
f 61 67 65
f 63 68 64
f 64 68 69
f 65 67 71
f 65 71 70
f 68 72 73
f 68 73 74
f 68 74 75
f 68 75 69
f 70 71 76
f 70 76 77
f 70 77 78
f 72 79 80
f 72 80 73
f 77 81 78
f 78 81 83
f 78 83 84
f 78 84 82
f 79 85 86
f 79 86 80
f 82 84 88
f 82 88 89
f 82 89 87
f 85 90 86
f 85 91 92
f 85 92 93
f 85 93 94
f 85 94 90
f 87 89 95
f 87 95 96
f 87 96 97
f 87 97 98
f 87 98 99
f 91 100 101
f 91 101 92
f 92 101 102
f 98 103 99
f 99 103 105
f 99 105 106
f 99 106 107
f 99 107 104
f 100 108 109
f 100 109 101
f 101 109 110
f 101 110 102
f 104 107 112
f 104 112 113
f 104 113 114
f 104 114 115
f 104 115 116
f 104 116 111
f 108 117 109
f 109 117 110
f 110 117 118
f 110 118 119
f 111 116 120
f 111 120 121
f 111 121 122
f 111 122 123
f 111 123 124
f 117 125 126
f 117 126 127
f 117 127 118
f 118 127 119
f 119 127 128
f 121 129 123
f 121 123 122
f 123 129 130
f 123 130 124
f 124 130 131
f 124 131 132
f 124 132 133
f 125 134 126
f 126 134 138
f 126 138 140
f 126 140 141
f 126 141 135
f 126 135 128
f 126 128 127
f 131 136 132
f 132 136 137
f 132 137 133
f 133 137 139
f 133 139 140
f 133 140 138
f 139 141 140
