v -0.19305 0.0431895 0.507206
v -0.19305 0.0431895 0.630328
v -0.19305 0.166643 0.508245
v 0.00693703 0.0431895 0.55702
v -0.19305 0.166643 0.630328
v -0.135497 0.0431895 0.654164
v -0.19305 0.170165 0.508326
v 0.00693703 0.166643 0.560592
v 0.00693703 0.0431895 0.673031
v -0.164685 0.179975 0.64184
v -0.19305 0.179975 0.630036
v -0.135497 0.166643 0.654164
v -0.135262 0.179975 0.654066
v -0.128959 0.0431895 0.655982
v -0.19305 0.179975 0.508667
v 0.00693703 0.180295 0.560998
v 0.00666297 0.0431895 0.673063
v 0.00693703 0.166905 0.673031
v -0.134479 0.187194 0.653725
v -0.19305 0.188053 0.628169
v -0.126649 0.166643 0.656616
v -0.126649 0.179975 0.656388
v -0.126649 0.0431895 0.656616
v -0.19305 0.181562 0.508878
v 0.00693703 0.180776 0.561339
v -0.19305 0.189116 0.513619
v -0.00666819 0.0431895 0.673063
v 0.00666297 0.166643 0.673063
v 0.00693703 0.179975 0.67256
v 0.00666297 0.179975 0.672592
v -0.113317 0.179975 0.658678
v -0.0534936 0.18667 0.666601
v -0.126649 0.188155 0.6547
v -0.153311 0.188854 0.642782
v -0.162962 0.187849 0.641126
v -0.19305 0.190658 0.619921
v -0.179973 0.189174 0.630556
v -0.113317 0.166643 0.659067
v -0.113317 0.0431895 0.659067
v 0.00693703 0.189087 0.567249
v -0.19305 0.191837 0.526609
v 0.00693703 0.191867 0.579946
v 0.00693703 0.189247 0.567493
v -0.00666819 0.166643 0.673063
v -0.0101527 0.0431895 0.672625
v 0.00693703 0.18015 0.672511
v 0.00693703 0.18913 0.669345
v 0.00666297 0.189145 0.669345
v -0.00666819 0.179975 0.672592
v -0.0541592 0.179975 0.666699
v -0.0333305 0.179975 0.669378
v -0.0199993 0.179975 0.67105
v -0.0466617 0.187194 0.667039
v -0.113317 0.189028 0.655771
v -0.126649 0.19076 0.646581
v -0.153311 0.191459 0.633251
v -0.179973 0.191779 0.619921
v -0.19305 0.191867 0.60659
v -0.0901592 0.0431895 0.66212
v -0.0547661 0.166643 0.66678
v -0.19305 0.191867 0.539955
v -0.166642 0.191867 0.539955
v 0.00693703 0.191867 0.646581
v -0.0199993 0.166643 0.671342
v -0.0235034 0.0431895 0.670888
v 0.00693703 0.189188 0.669167
v 0.00666297 0.19175 0.659912
v -0.00666819 0.189145 0.669345
v -0.0199993 0.188766 0.668679
v -0.0333305 0.188097 0.667868
v -0.113317 0.191634 0.646581
v -0.0199993 0.191372 0.659912
v -0.166642 0.191867 0.619921
v -0.13998 0.191867 0.633251
v -0.0547661 0.0431895 0.66678
v 0.00693703 0.19175 0.659652
v -0.0866747 0.191867 0.646581
v 0.00693703 0.191736 0.659912
v -0.00666819 0.19175 0.659912
v -0.0999863 0.191837 0.646581
f 1 2 5
f 1 5 11
f 1 11 20
f 1 20 36
f 1 36 58
f 1 58 61
f 1 61 41
f 1 41 26
f 1 26 24
f 1 24 15
f 1 15 7
f 1 7 3
f 1 3 4
f 1 4 9
f 1 9 17
f 1 17 27
f 1 27 45
f 1 45 65
f 1 65 75
f 1 75 59
f 1 59 39
f 1 39 23
f 1 23 14
f 1 14 6
f 1 6 2
f 2 6 12
f 2 12 5
f 3 7 4
f 4 8 16
f 4 16 25
f 4 25 40
f 4 40 43
f 4 43 42
f 4 42 63
f 4 63 76
f 4 76 78
f 4 78 66
f 4 66 47
f 4 47 46
f 4 46 29
f 4 29 18
f 4 18 9
f 4 7 8
f 5 10 11
f 5 12 13
f 5 13 10
f 6 14 12
f 7 15 16
f 7 16 8
f 9 18 28
f 9 28 17
f 10 13 19
f 10 19 11
f 11 19 20
f 12 14 21
f 12 21 13
f 13 21 22
f 13 22 19
f 14 23 21
f 15 24 16
f 16 24 26
f 16 26 25
f 17 28 44
f 17 44 27
f 18 29 30
f 18 30 28
f 19 22 31
f 19 31 32
f 19 32 33
f 19 33 34
f 19 34 35
f 19 35 20
f 20 35 34
f 20 34 37
f 20 37 36
f 21 23 39
f 21 39 38
f 21 38 22
f 22 38 31
f 25 26 40
f 26 41 42
f 26 42 43
f 26 43 40
f 27 44 45
f 28 30 49
f 28 49 44
f 29 46 30
f 30 46 47
f 30 47 48
f 30 48 68
f 30 68 49
f 31 38 32
f 32 50 51
f 32 51 52
f 32 52 49
f 32 49 53
f 32 53 54
f 32 54 33
f 32 38 50
f 33 54 55
f 33 55 34
f 34 55 56
f 34 56 36
f 34 36 37
f 36 57 58
f 36 56 57
f 38 39 59
f 38 59 60
f 38 60 50
f 41 61 62
f 41 62 42
f 42 62 61
f 42 61 58
f 42 58 73
f 42 73 74
f 42 74 77
f 42 77 63
f 44 49 52
f 44 52 51
f 44 51 50
f 44 50 64
f 44 64 45
f 45 64 65
f 47 66 48
f 48 66 67
f 48 67 79
f 48 79 68
f 49 68 69
f 49 69 70
f 49 70 53
f 50 60 64
f 53 70 54
f 54 71 55
f 54 70 69
f 54 69 68
f 54 68 72
f 54 72 71
f 55 71 56
f 56 71 57
f 57 73 58
f 57 71 74
f 57 74 73
f 59 75 60
f 60 75 65
f 60 65 64
f 63 67 76
f 63 77 79
f 63 79 67
f 66 78 67
f 67 78 76
f 68 79 72
f 71 80 74
f 71 72 79
f 71 79 80
f 74 80 77
f 77 80 79
