v 0.0699681 0.151108 0.214213
v 0.0699681 0.0814605 0.214213
v 0.0699681 0.155834 0.213585
v 0.0347103 0.192705 0.213056
v 0.0326562 0.185867 0.214213
v -0.0612426 0.0814605 0.214213
v 0.0699681 0.0814605 -0.123348
v 0.0670135 0.160331 0.213354
v 0.0699681 0.192705 0.208662
v 0.059191 0.192705 0.210016
v 0.0341475 0.192705 0.213122
v 0.0308272 0.190527 0.213816
v 0.0286886 0.188448 0.214213
v -0.0605673 0.0866656 0.214213
v -0.0866518 0.0866656 0.204135
v -0.0866518 0.0814605 0.204366
v -0.170477 0.0814605 -0.123348
v 0.0699681 0.192705 -0.123348
v 0.0329376 0.192705 0.213254
v 0.0199938 0.192705 0.214114
v 0.0199938 0.192019 0.214213
v -0.0562058 0.0994823 0.214213
v -0.0706972 0.153308 0.201524
v -0.0908163 0.113323 0.199013
v -0.0923921 0.104012 0.199608
v -0.0937709 0.0951157 0.200203
v -0.0948402 0.0866656 0.200764
v -0.0950934 0.0814605 0.200897
v -0.196927 0.192705 -0.123348
v -0.176274 0.0814605 -0.116442
v 0.0198531 0.192705 0.214114
v 0.0185869 0.191431 0.214213
v -0.0556711 0.100985 0.214213
v -0.0542642 0.109337 0.213651
v -0.0606798 0.179344 0.201954
v -0.0722448 0.179344 0.197493
v -0.0866518 0.179976 0.191843
v -0.095825 0.179976 0.187944
v -0.0973726 0.166647 0.188836
v -0.101509 0.0866656 0.196965
v -0.101762 0.0814605 0.197097
v -0.205003 0.192705 -0.100549
v -0.178243 0.0814605 -0.114063
v -0.182914 0.0814605 -0.108115
v -0.185503 0.0814605 -0.104712
v -0.188936 0.0814605 -0.0980373
v -0.194198 0.0814605 -0.0866377
v -0.198559 0.0814605 -0.0768241
v -0.206044 0.0814605 -0.0599725
v 0.0105392 0.192705 0.213585
v 0.00665605 0.186357 0.214213
v -0.0522101 0.110655 0.214213
v -0.0527166 0.118234 0.213056
v -0.0572469 0.192705 0.201458
v -0.0655478 0.183373 0.199542
v -0.0944462 0.189417 0.187217
v -0.102494 0.179976 0.184144
v -0.104042 0.166647 0.185036
v -0.106349 0.145228 0.186457
v -0.108093 0.126662 0.18768
v -0.110542 0.0999941 0.189431
v -0.11178 0.0866656 0.19029
v -0.111948 0.0814605 0.190422
v -0.2052 0.192705 -0.0999868
v -0.210349 0.0814605 -0.0466565
v 0.00665605 0.192705 0.213354
v -0.000941391 0.179301 0.214213
v -0.00369898 0.192705 0.212098
v -0.0502685 0.116001 0.214213
v -0.0486083 0.139979 0.211635
v -0.0466667 0.179976 0.207009
v -0.0466667 0.192705 0.205291
v -0.0641409 0.192705 0.198716
v -0.0889873 0.192705 0.18877
v -0.0936865 0.192705 0.186854
v -0.0982449 0.192705 0.184243
v -0.0995393 0.192705 0.18345
v -0.110992 0.192705 0.176049
v -0.112511 0.179976 0.177503
v -0.118449 0.0866656 0.185532
v -0.131983 0.113323 0.172348
v -0.114565 0.0814605 0.188572
v -0.209168 0.192705 -0.0866377
v -0.212516 0.0814605 -0.0343978
v -0.211616 0.192705 -0.0733216
v -0.0192597 0.162226 0.214213
v -0.0333571 0.192705 0.20843
v -0.0326818 0.149714 0.214213
v -0.0462728 0.126662 0.214213
v -0.0426992 0.136038 0.214213
v -0.0419394 0.139979 0.213948
v -0.04042 0.147678 0.21342
v -0.0339481 0.192705 0.208298
v -0.127622 0.192705 0.16379
v -0.134122 0.18835 0.160552
v -0.126637 0.179976 0.167392
v -0.139975 0.113323 0.166632
v -0.134431 0.0866656 0.174099
v -0.1346 0.0814605 0.174231
v -0.216427 0.0814605 -0.00664223
v -0.216681 0.192705 -0.0333074
v -0.0363398 0.156564 0.212825
v -0.0403918 0.139979 0.214213
v -0.133081 0.192705 0.159759
v -0.138821 0.192705 0.155397
v -0.147994 0.192705 0.147996
v -0.141832 0.179976 0.156289
v -0.135163 0.179976 0.161279
v -0.138849 0.139979 0.163922
v -0.1411 0.0866656 0.169209
v -0.146278 0.131442 0.15966
v -0.147009 0.122557 0.160288
v -0.137217 0.0814605 0.172315
v -0.217412 0.0814605 0.00667382
v -0.217412 0.179976 -0.0199913
v -0.217469 0.192705 -0.0199913
v -0.148304 0.192705 0.147632
v -0.156267 0.179976 0.141949
v -0.149598 0.179976 0.149648
v -0.141269 0.0814605 0.169308
v -0.147656 0.113323 0.160915
v -0.148501 0.0999941 0.161741
v -0.149232 0.0866656 0.162534
v -0.217412 0.126662 0.00667382
v -0.217497 0.153308 -0.00664223
v -0.21654 0.0814605 0.0200229
v -0.217469 0.166647 -0.00664223
v -0.217159 0.179976 -0.00664223
v -0.21654 0.192705 -0.00664223
v -0.155789 0.192705 0.138579
v -0.160628 0.188676 0.134151
v -0.174698 0.166647 0.121694
v -0.157055 0.166647 0.143106
v -0.186516 0.171624 0.106396
v -0.149345 0.0814605 0.162667
v -0.155169 0.0999941 0.154175
v -0.155901 0.0866656 0.155034
v -0.151962 0.0814605 0.159759
v -0.217328 0.139979 0.00667382
v -0.212572 0.0814605 0.0481089
v -0.212544 0.0866656 0.0479767
v -0.216484 0.0866656 0.0200229
v -0.216906 0.153308 0.00667382
v -0.216202 0.166647 0.00667382
v -0.214795 0.192705 0.00667382
v -0.159981 0.192705 0.133325
v -0.172925 0.18505 0.11948
v -0.178131 0.180357 0.114326
v -0.176836 0.192705 0.111319
v -0.176161 0.139979 0.123445
v -0.157786 0.153308 0.143998
v -0.185475 0.179976 0.104677
v -0.18767 0.192705 0.0953264
v -0.188767 0.179976 0.0980028
v -0.193635 0.179976 0.0866363
v -0.201992 0.166647 0.0713046
v -0.202639 0.153308 0.0726594
v -0.199685 0.153308 0.0793339
v -0.190512 0.153308 0.0999854
v -0.1913 0.139979 0.0999854
v -0.193635 0.0999941 0.0999854
v -0.189048 0.0866656 0.111682
v -0.1857 0.0866656 0.118357
v -0.178131 0.0876021 0.127906
v -0.178328 0.0999941 0.126056
v -0.159728 0.117678 0.146344
v -0.156014 0.0814605 0.155166
v -0.160685 0.0999941 0.1475
v -0.16907 0.0876021 0.138942
v -0.173713 0.08378 0.133788
v -0.216259 0.0999941 0.0200229
v -0.215752 0.126662 0.0200229
v -0.215499 0.139979 0.0200229
v -0.213754 0.153308 0.0299026
v -0.215105 0.153308 0.0200229
v -0.210575 0.0814605 0.0599711
v -0.21049 0.0866656 0.0599711
v -0.211728 0.139979 0.046655
v -0.211981 0.126662 0.046655
v -0.212994 0.139979 0.0378327
v -0.213304 0.10668 0.0400135
v -0.214373 0.0999941 0.033339
v -0.213501 0.163903 0.0283165
v -0.213276 0.172789 0.0264662
v -0.211981 0.179976 0.033339
v -0.213614 0.192705 0.0156613
v -0.177174 0.192705 0.110856
v -0.173235 0.0926765 0.133226
v -0.183533 0.192705 0.101968
v -0.191468 0.192705 0.0866363
v -0.198194 0.179976 0.0756662
v -0.20672 0.166647 0.0599711
v -0.207901 0.153308 0.0599711
v -0.205481 0.0999941 0.0733202
v -0.200473 0.126662 0.0810851
v -0.198672 0.0866656 0.0904031
v -0.194395 0.0866656 0.0999854
v -0.194536 0.0814605 0.0999854
v -0.189105 0.0814605 0.111848
v -0.185813 0.0814605 0.118522
v -0.178862 0.0814605 0.127377
v -0.173741 0.0814605 0.133821
v -0.175064 0.0814605 0.132202
v -0.214064 0.126662 0.0320503
v -0.211447 0.153308 0.046655
v -0.206354 0.0814605 0.0733202
v -0.206241 0.0866656 0.0733202
v -0.208971 0.126662 0.0599711
v -0.212685 0.167671 0.0329755
v -0.210631 0.166647 0.046655
v -0.211165 0.192705 0.033339
v -0.211222 0.192705 0.0329755
v -0.212769 0.192705 0.0220385
v -0.199854 0.192705 0.0663813
v -0.200248 0.188219 0.0673065
v -0.204694 0.179976 0.0599711
v -0.207704 0.192705 0.046655
v -0.20928 0.179976 0.046655
v -0.198728 0.0814605 0.0905352
v -0.202246 0.192705 0.0605989
f 1 2 7
f 1 7 18
f 1 18 9
f 1 9 3
f 1 3 4
f 1 4 5
f 1 5 13
f 1 13 21
f 1 21 32
f 1 32 51
f 1 51 67
f 1 67 86
f 1 86 88
f 1 88 103
f 1 103 90
f 1 90 89
f 1 89 69
f 1 69 52
f 1 52 33
f 1 33 22
f 1 22 14
f 1 14 6
f 1 6 2
f 2 6 16
f 2 16 28
f 2 28 41
f 2 41 63
f 2 63 82
f 2 82 99
f 2 99 113
f 2 113 120
f 2 120 135
f 2 135 138
f 2 138 167
f 2 167 202
f 2 202 203
f 2 203 201
f 2 201 200
f 2 200 199
f 2 199 198
f 2 198 219
f 2 219 206
f 2 206 176
f 2 176 140
f 2 140 126
f 2 126 114
f 2 114 100
f 2 100 84
f 2 84 65
f 2 65 49
f 2 49 48
f 2 48 47
f 2 47 46
f 2 46 45
f 2 45 44
f 2 44 43
f 2 43 30
f 2 30 17
f 2 17 7
f 3 8 4
f 3 9 10
f 3 10 8
f 4 11 12
f 4 12 5
f 4 8 10
f 4 10 9
f 4 9 18
f 4 18 29
f 4 29 42
f 4 42 64
f 4 64 83
f 4 83 85
f 4 85 101
f 4 101 116
f 4 116 129
f 4 129 145
f 4 145 186
f 4 186 213
f 4 213 212
f 4 212 211
f 4 211 217
f 4 217 220
f 4 220 214
f 4 214 190
f 4 190 153
f 4 153 189
f 4 189 187
f 4 187 149
f 4 149 146
f 4 146 130
f 4 130 117
f 4 117 106
f 4 106 105
f 4 105 104
f 4 104 94
f 4 94 78
f 4 78 77
f 4 77 76
f 4 76 75
f 4 75 74
f 4 74 73
f 4 73 54
f 4 54 72
f 4 72 93
f 4 93 87
f 4 87 68
f 4 68 66
f 4 66 50
f 4 50 31
f 4 31 20
f 4 20 19
f 4 19 11
f 5 12 13
f 6 14 15
f 6 15 16
f 7 17 29
f 7 29 18
f 11 19 12
f 12 19 20
f 12 20 21
f 12 21 13
f 14 22 15
f 15 23 24
f 15 24 25
f 15 25 26
f 15 26 27
f 15 27 28
f 15 28 16
f 15 22 23
f 17 30 29
f 20 31 21
f 21 31 32
f 22 33 34
f 22 34 35
f 22 35 23
f 23 35 36
f 23 36 37
f 23 37 24
f 24 37 25
f 25 37 38
f 25 38 26
f 26 38 27
f 27 38 39
f 27 39 58
f 27 58 40
f 27 40 41
f 27 41 28
f 29 30 43
f 29 43 44
f 29 44 45
f 29 45 46
f 29 46 47
f 29 47 48
f 29 48 49
f 29 49 42
f 31 50 32
f 32 50 51
f 33 52 34
f 34 52 53
f 34 53 35
f 35 54 55
f 35 55 36
f 35 53 54
f 36 55 37
f 37 56 38
f 37 55 54
f 37 54 56
f 38 56 57
f 38 57 58
f 38 58 39
f 40 58 59
f 40 59 60
f 40 60 61
f 40 61 62
f 40 62 41
f 41 62 63
f 42 49 64
f 49 65 64
f 50 66 51
f 51 66 68
f 51 68 67
f 52 69 53
f 53 69 70
f 53 70 71
f 53 71 54
f 54 71 72
f 54 73 56
f 56 74 75
f 56 75 76
f 56 76 57
f 56 73 74
f 57 76 77
f 57 77 78
f 57 78 79
f 57 79 58
f 58 79 59
f 59 79 60
f 60 80 61
f 60 79 81
f 60 81 80
f 61 80 62
f 62 80 82
f 62 82 63
f 64 65 83
f 65 84 85
f 65 85 83
f 67 68 86
f 68 87 88
f 68 88 86
f 69 89 70
f 70 89 71
f 71 89 90
f 71 90 91
f 71 91 92
f 71 92 72
f 72 92 93
f 78 94 95
f 78 95 79
f 79 95 96
f 79 96 97
f 79 97 81
f 80 81 97
f 80 97 98
f 80 98 82
f 82 98 99
f 84 100 85
f 85 100 101
f 87 93 92
f 87 92 102
f 87 102 88
f 88 102 92
f 88 92 103
f 90 103 91
f 91 103 92
f 94 104 95
f 95 104 105
f 95 105 106
f 95 106 107
f 95 107 108
f 95 108 96
f 96 109 97
f 96 108 109
f 97 110 98
f 97 109 111
f 97 111 112
f 97 112 110
f 98 110 113
f 98 113 99
f 100 114 115
f 100 115 101
f 101 115 116
f 106 117 118
f 106 118 119
f 106 119 107
f 107 111 108
f 107 119 111
f 108 111 109
f 110 120 113
f 110 112 121
f 110 121 122
f 110 122 123
f 110 123 120
f 111 119 112
f 112 119 121
f 114 124 125
f 114 125 116
f 114 116 115
f 114 126 124
f 116 125 127
f 116 127 128
f 116 128 129
f 117 130 131
f 117 131 118
f 118 132 133
f 118 133 119
f 118 131 134
f 118 134 132
f 119 133 121
f 120 123 135
f 121 133 136
f 121 136 122
f 122 136 137
f 122 137 123
f 123 137 138
f 123 138 135
f 124 126 139
f 124 139 127
f 124 127 125
f 126 140 141
f 126 141 142
f 126 142 139
f 127 139 128
f 128 139 143
f 128 143 129
f 129 143 144
f 129 144 145
f 130 146 131
f 131 147 148
f 131 148 134
f 131 146 149
f 131 149 147
f 132 150 151
f 132 151 133
f 132 134 150
f 133 151 136
f 134 148 152
f 134 152 153
f 134 153 154
f 134 154 155
f 134 155 156
f 134 156 157
f 134 157 158
f 134 158 159
f 134 159 160
f 134 160 161
f 134 161 162
f 134 162 163
f 134 163 164
f 134 164 165
f 134 165 150
f 136 151 166
f 136 166 137
f 137 167 138
f 137 166 168
f 137 168 169
f 137 169 170
f 137 170 167
f 139 142 171
f 139 171 172
f 139 172 173
f 139 173 174
f 139 174 175
f 139 175 143
f 140 176 141
f 141 176 177
f 141 177 178
f 141 178 179
f 141 179 180
f 141 180 181
f 141 181 182
f 141 182 171
f 141 171 142
f 143 175 183
f 143 183 184
f 143 184 144
f 144 184 145
f 145 184 185
f 145 185 186
f 147 149 152
f 147 152 148
f 149 187 152
f 150 165 188
f 150 188 166
f 150 166 151
f 152 187 189
f 152 189 153
f 153 190 154
f 154 190 155
f 155 190 191
f 155 191 192
f 155 192 156
f 156 192 157
f 157 192 193
f 157 193 194
f 157 194 158
f 158 194 195
f 158 195 160
f 158 160 159
f 160 196 161
f 160 195 194
f 160 194 196
f 161 196 197
f 161 197 162
f 162 197 198
f 162 198 199
f 162 199 200
f 162 200 163
f 163 200 201
f 163 201 170
f 163 170 164
f 164 170 188
f 164 188 165
f 166 188 168
f 167 170 202
f 168 188 169
f 169 188 170
f 170 201 203
f 170 203 202
f 171 182 204
f 171 204 172
f 172 204 173
f 173 204 180
f 173 180 205
f 173 205 174
f 174 183 175
f 174 205 183
f 176 206 177
f 177 206 207
f 177 207 208
f 177 208 205
f 177 205 178
f 178 205 180
f 178 180 179
f 180 204 181
f 181 204 182
f 183 205 209
f 183 209 184
f 184 209 185
f 185 205 210
f 185 210 211
f 185 211 212
f 185 212 213
f 185 213 186
f 185 209 205
f 190 214 215
f 190 215 191
f 191 215 216
f 191 216 192
f 192 216 217
f 192 217 218
f 192 218 210
f 192 210 193
f 193 208 207
f 193 207 194
f 193 210 205
f 193 205 208
f 194 207 196
f 196 219 198
f 196 198 197
f 196 207 219
f 206 219 207
f 210 218 211
f 211 218 217
f 214 220 215
f 215 220 216
f 216 220 217
