v -0.115106 0.733919 0.254229
v -0.115106 0.750715 0.231439
v -0.00849491 0.703971 0.231439
v -6.01652e-05 0.703971 0.231439
v -6.01652e-05 0.750004 0.254229
v -0.115106 0.846334 0.254229
v -0.115106 0.854303 0.231439
v -6.01652e-05 0.846527 0.231439
v -6.01652e-05 0.854599 0.254229
v -0.111266 0.847816 0.254229
v -0.115106 0.847193 0.253332
v -0.115106 0.851207 0.245575
v -0.0932591 0.854406 0.245885
v -0.110252 0.854643 0.231439
v -0.0932591 0.85454 0.231439
v -6.01652e-05 0.849652 0.234897
v -6.01652e-05 0.854229 0.245885
v -0.0762995 0.85528 0.245885
v -0.00848365 0.854599 0.254229
v -0.105883 0.849267 0.254229
v -0.0932591 0.8514 0.254229
v -0.0762995 0.853044 0.254229
v -0.0424028 0.854007 0.254229
v -0.0254432 0.854406 0.254229
f 1 2 3
f 1 3 4
f 1 4 5
f 1 5 9
f 1 9 19
f 1 19 24
f 1 24 23
f 1 23 22
f 1 22 21
f 1 21 20
f 1 20 10
f 1 10 6
f 1 6 11
f 1 11 12
f 1 12 7
f 1 7 2
f 2 7 14
f 2 14 15
f 2 15 8
f 2 8 4
f 2 4 3
f 4 8 16
f 4 16 17
f 4 17 9
f 4 9 5
f 6 10 11
f 7 12 13
f 7 13 14
f 8 15 16
f 9 17 18
f 9 18 19
f 10 20 12
f 10 12 11
f 12 20 21
f 12 21 13
f 13 22 18
f 13 18 14
f 13 21 22
f 14 18 15
f 15 18 17
f 15 17 16
f 18 22 23
f 18 23 24
f 18 24 19
