v -0.00751626 0.615742 -0.339966
v -0.000971197 0.628432 -0.339271
v -6.01652e-05 0.615742 -0.339966
v -0.0103932 0.615742 -0.339598
v -0.0122632 0.622477 -0.338555
v -0.00737241 0.634815 -0.337676
v -0.00849922 0.652878 -0.335325
v -0.00849922 0.669826 -0.333209
v -0.00849922 0.686784 -0.331062
v -0.00849922 0.703742 -0.328874
v -0.00849922 0.713069 -0.327648
v -6.01652e-05 0.628432 -0.339271
v -6.01652e-05 0.615742 -0.292666
v -0.0221887 0.615742 -0.338075
v -0.0254492 0.63592 -0.335212
v -0.0254492 0.652878 -0.333137
v -0.0254492 0.669826 -0.331021
v -0.0254492 0.686784 -0.328864
v -0.0254492 0.703742 -0.326677
v -0.0178253 0.713069 -0.326441
v -6.01652e-05 0.713069 -0.327648
v -6.01652e-05 0.618962 -0.292369
v -0.171406 0.615742 -0.235532
v -0.023819 0.615742 -0.33786
v -0.0593733 0.618962 -0.3328
v -0.0423993 0.652878 -0.330909
v -0.0593733 0.63592 -0.330745
v -0.0423993 0.686784 -0.326636
v -0.0593733 0.669826 -0.326554
v -0.0720079 0.686784 -0.322741
v -0.0678842 0.695311 -0.322199
v -0.0254492 0.713069 -0.32545
v -0.0423993 0.703742 -0.324448
v -0.0498074 0.713069 -0.32225
v -6.01652e-05 0.713069 -0.288567
v -0.170951 0.618962 -0.235532
v -0.171047 0.618219 -0.235532
v -0.244984 0.615742 -0.235532
v -0.0593733 0.615742 -0.333178
v -0.0731107 0.615742 -0.331369
v -0.0763233 0.618962 -0.330561
v -0.0763233 0.652878 -0.326441
v -0.0763233 0.63592 -0.328506
v -0.0779296 0.671417 -0.323906
v -0.0846425 0.678143 -0.322168
v -0.0804709 0.686784 -0.321596
v -0.0746451 0.702075 -0.320359
v -0.0599007 0.713069 -0.320921
v -0.162536 0.713069 -0.235532
v -0.244529 0.618962 -0.235532
v -0.238128 0.649029 -0.238128
v -0.239135 0.63592 -0.23914
v -0.240429 0.618962 -0.240438
v -0.240669 0.615742 -0.240674
v -0.0763233 0.615742 -0.330939
v -0.075628 0.713069 -0.318744
v -0.0867283 0.666835 -0.322884
v -0.0927459 0.671417 -0.319971
v -0.0932733 0.686784 -0.317681
v -0.0932733 0.703742 -0.31536
v -0.0932733 0.713069 -0.314062
v -0.227507 0.713069 -0.235532
v -0.239926 0.650706 -0.235532
v -0.237193 0.660328 -0.237208
v -0.230624 0.615742 -0.249158
v -0.238823 0.615742 -0.242289
v -0.238751 0.658737 -0.235532
v -0.0932733 0.615742 -0.326799
v -0.0891257 0.652878 -0.323753
v -0.101832 0.62767 -0.32222
v -0.0999382 0.638968 -0.321483
v -0.0975887 0.652878 -0.320574
v -0.110247 0.686784 -0.310852
v -0.100849 0.713069 -0.311005
v -0.111254 0.703399 -0.308143
v -0.223239 0.713069 -0.23958
v -0.229569 0.703742 -0.235532
v -0.23048 0.653954 -0.243423
v -0.230312 0.618962 -0.248913
v -0.238224 0.662005 -0.235532
v -0.236593 0.670969 -0.235532
v -0.235514 0.676552 -0.235532
v -0.224222 0.703742 -0.240346
v -0.225997 0.686784 -0.241716
v -0.229017 0.615742 -0.250395
v -0.101305 0.615742 -0.323865
v -0.0932733 0.618962 -0.326411
v -0.103199 0.618962 -0.322782
v -0.111662 0.618962 -0.319275
v -0.140599 0.618962 -0.307284
v -0.108593 0.634357 -0.31855
v -0.110247 0.652878 -0.315432
v -0.110247 0.669826 -0.313162
v -0.119478 0.697521 -0.305546
v -0.144123 0.686784 -0.296806
v -0.108905 0.713069 -0.307744
v -0.144123 0.703742 -0.294455
v -0.121012 0.713069 -0.302735
v -0.113652 0.713069 -0.305782
v -0.218277 0.713069 -0.243403
v -0.213218 0.703742 -0.248831
v -0.227723 0.669826 -0.243055
v -0.216742 0.669826 -0.25154
v -0.218469 0.652878 -0.252859
v -0.219691 0.640636 -0.253799
v -0.227435 0.635358 -0.248627
v -0.220818 0.629337 -0.254658
v -0.214992 0.686784 -0.250191
v -0.219619 0.615742 -0.257623
v -0.103678 0.615742 -0.322986
v -0.110559 0.615742 -0.320144
v -0.149566 0.615742 -0.303972
v -0.149062 0.618962 -0.303768
v -0.137938 0.63592 -0.30618
v -0.136284 0.64638 -0.305495
v -0.134486 0.657689 -0.304749
v -0.144123 0.669826 -0.299116
v -0.155511 0.703742 -0.289609
v -0.154073 0.713069 -0.288955
v -0.151579 0.713069 -0.290018
v -0.144795 0.713069 -0.29286
v -0.208064 0.713069 -0.251254
v -0.203748 0.713069 -0.254566
v -0.185216 0.703742 -0.270319
v -0.186247 0.693939 -0.271117
v -0.206529 0.686784 -0.256703
v -0.208279 0.669826 -0.258042
v -0.210006 0.652878 -0.259371
v -0.213218 0.635358 -0.259575
v -0.181116 0.63592 -0.28413
v -0.20231 0.618962 -0.270421
v -0.202621 0.615742 -0.270667
v -0.1587 0.615742 -0.300006
v -0.161097 0.618962 -0.298554
v -0.146401 0.63592 -0.302664
v -0.161097 0.63592 -0.296305
v -0.142805 0.652373 -0.301999
v -0.158077 0.686784 -0.290785
v -0.168386 0.674342 -0.287657
v -0.16654 0.686784 -0.286675
v -0.163998 0.703742 -0.285306
v -0.161865 0.713069 -0.284927
v -0.191593 0.713069 -0.263889
v -0.180397 0.713069 -0.272476
v -0.176729 0.703742 -0.276821
v -0.179582 0.68768 -0.27723
v -0.197227 0.669826 -0.266527
v -0.190466 0.652878 -0.274357
v -0.18277 0.618962 -0.285408
v -0.193823 0.618962 -0.276933
v -0.179414 0.652878 -0.282832
v -0.16992 0.663043 -0.288515
v -0.192049 0.615742 -0.278773
v -0.16081 0.615742 -0.299086
v -0.171694 0.615742 -0.29331
v -0.172629 0.63592 -0.290386
v -0.161097 0.652878 -0.294025
v -0.16208 0.66914 -0.291347
v -0.175722 0.713069 -0.276054
v -0.169992 0.713069 -0.279877
v -0.176561 0.66914 -0.282484
v -0.183082 0.615742 -0.285643
v -0.174595 0.615742 -0.291756
v -0.174283 0.618962 -0.291541
f 1 2 12
f 1 12 3
f 1 3 13
f 1 13 23
f 1 23 38
f 1 38 54
f 1 54 66
f 1 66 65
f 1 65 85
f 1 85 109
f 1 109 132
f 1 132 153
f 1 153 162
f 1 162 163
f 1 163 155
f 1 155 154
f 1 154 133
f 1 133 112
f 1 112 111
f 1 111 110
f 1 110 86
f 1 86 68
f 1 68 55
f 1 55 40
f 1 40 39
f 1 39 24
f 1 24 14
f 1 14 4
f 1 4 5
f 1 5 2
f 2 6 7
f 2 7 8
f 2 8 9
f 2 9 10
f 2 10 11
f 2 11 21
f 2 21 12
f 2 5 6
f 3 12 21
f 3 21 35
f 3 35 22
f 3 22 13
f 4 14 5
f 5 14 15
f 5 15 7
f 5 7 6
f 7 15 16
f 7 16 17
f 7 17 8
f 8 17 9
f 9 17 18
f 9 18 19
f 9 19 10
f 10 19 20
f 10 20 11
f 11 20 32
f 11 32 34
f 11 34 48
f 11 48 56
f 11 56 61
f 11 61 74
f 11 74 96
f 11 96 99
f 11 99 98
f 11 98 121
f 11 121 120
f 11 120 119
f 11 119 142
f 11 142 160
f 11 160 159
f 11 159 144
f 11 144 143
f 11 143 123
f 11 123 122
f 11 122 100
f 11 100 76
f 11 76 62
f 11 62 49
f 11 49 35
f 11 35 21
f 13 22 23
f 14 24 25
f 14 25 15
f 15 26 16
f 15 25 27
f 15 27 42
f 15 42 26
f 16 26 17
f 17 28 18
f 17 26 42
f 17 42 29
f 17 29 30
f 17 30 28
f 18 28 31
f 18 31 19
f 19 32 20
f 19 31 33
f 19 33 34
f 19 34 32
f 22 35 36
f 22 36 37
f 22 37 23
f 23 37 36
f 23 36 49
f 23 49 62
f 23 62 77
f 23 77 82
f 23 82 81
f 23 81 80
f 23 80 67
f 23 67 63
f 23 63 50
f 23 50 38
f 24 39 25
f 25 39 40
f 25 40 41
f 25 41 43
f 25 43 27
f 27 43 42
f 28 30 31
f 29 42 44
f 29 44 30
f 30 44 45
f 30 45 31
f 31 45 46
f 31 46 47
f 31 47 48
f 31 48 34
f 31 34 33
f 35 49 36
f 38 50 51
f 38 51 52
f 38 52 53
f 38 53 54
f 40 55 41
f 41 55 45
f 41 45 43
f 42 43 45
f 42 45 44
f 45 56 46
f 45 55 57
f 45 57 58
f 45 58 59
f 45 59 60
f 45 60 61
f 45 61 56
f 46 56 47
f 47 56 48
f 50 63 51
f 51 64 65
f 51 65 66
f 51 66 52
f 51 63 67
f 51 67 64
f 52 66 53
f 53 66 54
f 55 68 57
f 57 69 70
f 57 70 71
f 57 71 72
f 57 72 58
f 57 68 69
f 58 72 59
f 59 72 73
f 59 73 60
f 60 74 61
f 60 73 75
f 60 75 74
f 62 76 77
f 64 78 79
f 64 79 65
f 64 67 80
f 64 80 81
f 64 81 82
f 64 82 76
f 64 76 83
f 64 83 84
f 64 84 78
f 65 79 85
f 68 86 87
f 68 87 69
f 69 87 70
f 70 87 88
f 70 88 89
f 70 89 90
f 70 90 91
f 70 91 92
f 70 92 71
f 71 92 93
f 71 93 72
f 72 93 73
f 73 94 75
f 73 93 117
f 73 117 95
f 73 95 94
f 74 75 96
f 75 94 97
f 75 97 98
f 75 98 99
f 75 99 96
f 76 82 77
f 76 100 101
f 76 101 83
f 78 84 102
f 78 102 103
f 78 103 104
f 78 104 105
f 78 105 106
f 78 106 79
f 79 106 107
f 79 107 85
f 83 101 84
f 84 101 108
f 84 108 103
f 84 103 102
f 85 107 109
f 86 110 88
f 86 88 87
f 88 110 111
f 88 111 89
f 89 111 90
f 90 112 113
f 90 113 135
f 90 135 114
f 90 114 91
f 90 111 112
f 91 114 115
f 91 115 92
f 92 115 116
f 92 116 93
f 93 116 117
f 94 95 97
f 95 117 118
f 95 118 119
f 95 119 120
f 95 120 97
f 97 120 121
f 97 121 98
f 100 122 101
f 101 122 123
f 101 123 124
f 101 124 125
f 101 125 126
f 101 126 108
f 103 108 126
f 103 126 127
f 103 127 128
f 103 128 104
f 104 128 105
f 105 107 106
f 105 128 107
f 107 128 129
f 107 129 130
f 107 130 131
f 107 131 132
f 107 132 109
f 112 133 134
f 112 134 113
f 113 134 136
f 113 136 135
f 114 135 115
f 115 135 137
f 115 137 116
f 116 137 117
f 117 137 135
f 117 135 136
f 117 136 138
f 117 138 118
f 118 138 139
f 118 139 119
f 119 139 140
f 119 140 141
f 119 141 142
f 123 143 124
f 124 143 144
f 124 144 145
f 124 145 125
f 125 145 146
f 125 146 126
f 126 146 147
f 126 147 127
f 127 147 128
f 128 147 148
f 128 148 130
f 128 130 129
f 130 149 150
f 130 150 131
f 130 148 151
f 130 151 152
f 130 152 149
f 131 150 132
f 132 150 149
f 132 149 153
f 133 154 134
f 134 152 136
f 134 154 155
f 134 155 156
f 134 156 152
f 136 152 157
f 136 157 138
f 138 157 158
f 138 158 152
f 138 152 139
f 139 152 159
f 139 159 160
f 139 160 140
f 140 160 141
f 141 160 142
f 144 159 145
f 145 159 152
f 145 152 146
f 146 152 161
f 146 161 147
f 147 161 148
f 148 161 151
f 149 162 153
f 149 152 162
f 151 161 152
f 152 158 157
f 152 156 162
f 155 163 164
f 155 164 156
f 156 164 162
f 162 164 163
