v -0.161081 0.855366 0.195015
v -0.195007 0.855366 0.161101
v -0.195007 0.854159 0.178061
v -0.178044 0.854159 0.195015
v -0.144146 0.855324 0.211969
v -0.110249 0.855178 0.228922
v -0.195007 0.855095 0.159009
v -0.213188 0.852785 0.159009
v -0.0932856 0.854554 0.228922
v -6.01652e-05 0.846521 0.231439
v -0.213478 0.852161 0.162611
v -0.208346 0.850059 0.178061
v -0.194166 0.850204 0.194185
v -0.178044 0.850059 0.208359
v -0.14461 0.85164 0.229582
v -0.127183 0.854887 0.228922
v -0.110278 0.854637 0.231439
v -0.0932856 0.854533 0.231439
v -0.177957 0.851328 0.159009
v -0.221916 0.850329 0.159009
v -6.01652e-05 0.703983 0.231439
v -6.01652e-05 0.841984 0.226412
v -0.204605 0.848581 0.187981
v -0.187961 0.848581 0.204601
v -0.157949 0.849788 0.224363
v -0.143653 0.851224 0.231439
v -0.127183 0.854096 0.231439
v -0.175695 0.850267 0.159009
v -6.01652e-05 0.833493 0.2184
v -0.220148 0.847728 0.169269
v -0.225512 0.848519 0.159009
v -6.01652e-05 0.669831 0.227603
v -0.177348 0.642776 0.231439
v -0.19927 0.845397 0.199276
v -0.216813 0.845022 0.178061
v -0.211333 0.839154 0.1942
v -0.194195 0.839154 0.211345
v -0.178044 0.845022 0.21684
v -0.169258 0.847728 0.220172
v -0.146437 0.850142 0.231439
v -0.160849 0.841817 0.159009
v -6.01652e-05 0.822442 0.211806
v -0.231398 0.844918 0.159009
v -6.01652e-05 0.661298 0.226043
v -0.0593591 0.642984 0.195015
v -6.01652e-05 0.643171 0.211969
v -6.01652e-05 0.643921 0.221073
v -6.01652e-05 0.648374 0.222775
v -6.01652e-05 0.65289 0.224498
v -0.244331 0.642776 0.231439
v -0.245027 0.642776 0.159009
v -0.127183 0.642922 0.161101
v -0.20678 0.834096 0.206778
v -0.241605 0.834846 0.161101
v -0.228412 0.835845 0.176884
v -0.222409 0.832931 0.189116
v -0.189092 0.832931 0.222427
v -0.176855 0.835845 0.228419
v -0.162357 0.842712 0.231439
v -0.158935 0.844939 0.231439
v -0.159747 0.840943 0.159009
v -6.01652e-05 0.816053 0.208608
v -6.01652e-05 0.80956 0.205367
v -0.240417 0.837197 0.159009
v -0.1293 0.642942 0.159009
v -6.01652e-05 0.64365 0.19961
v -0.24407 0.644607 0.231439
v -0.246535 0.642776 0.228667
v -0.296294 0.642776 0.159009
v -0.200401 0.827582 0.218081
v -0.21806 0.827582 0.200411
v -0.211825 0.821922 0.211841
v -0.238068 0.83162 0.170446
v -0.242301 0.835532 0.159009
v -0.244244 0.833784 0.159009
v -0.186424 0.823857 0.231439
v -0.174854 0.834533 0.231439
v -0.143537 0.826875 0.159009
v -6.01652e-05 0.805356 0.203616
v -0.114134 0.643546 0.159009
v -0.0332618 0.644337 0.186471
v -6.01652e-05 0.649248 0.191136
v -0.11283 0.643629 0.159009
v -0.242765 0.653348 0.231439
v -0.243403 0.653973 0.230496
v -0.252856 0.65289 0.218485
v -0.25361 0.642776 0.219492
v -0.295366 0.642776 0.161101
v -0.294003 0.65289 0.161101
v -0.2909 0.682734 0.159009
v -0.205591 0.816282 0.222073
v -0.193673 0.821006 0.227901
v -0.233718 0.82573 0.181748
v -0.22789 0.821006 0.193689
v -0.222061 0.816282 0.205601
v -0.217741 0.80548 0.217747
v -0.25129 0.825418 0.159009
v -0.250362 0.823587 0.162022
v -0.191238 0.818633 0.231439
v -6.01652e-05 0.801089 0.201843
v -0.139652 0.823045 0.159009
v -6.01652e-05 0.653515 0.188414
v -0.102681 0.650851 0.159009
v -6.01652e-05 0.657739 0.185726
v -0.242533 0.654847 0.231439
v -0.243026 0.669831 0.227745
v -0.251522 0.669831 0.216755
v -0.266514 0.669831 0.197227
v -0.274343 0.65289 0.190484
v -0.283593 0.642776 0.180437
v -0.26518 0.642776 0.204431
v -0.293423 0.642776 0.165085
v -0.288494 0.663046 0.169928
v -0.291335 0.669165 0.162093
v -0.287624 0.674347 0.168404
v -0.29032 0.686792 0.159009
v -0.200778 0.80548 0.231439
v -0.22038 0.796885 0.220385
v -0.209245 0.80548 0.224909
v -0.23772 0.814409 0.18696
v -0.224903 0.80548 0.209267
v -0.254625 0.820652 0.159009
v -6.01652e-05 0.788519 0.197624
v -0.126574 0.805793 0.159009
v -6.01652e-05 0.780111 0.195355
v -6.01652e-05 0.771558 0.193108
v -0.100709 0.65289 0.159009
v -6.01652e-05 0.663837 0.185131
v -0.0972872 0.660174 0.159009
v -0.0931696 0.669664 0.159009
v -0.240069 0.669831 0.231439
v -0.241692 0.686792 0.225994
v -0.250189 0.686792 0.215003
v -0.277214 0.687687 0.179593
v -0.282462 0.669165 0.176572
v -0.28281 0.65289 0.17943
v -0.289218 0.65289 0.170957
v -0.289914 0.642776 0.171956
v -0.276808 0.703754 0.176742
v -0.275416 0.720715 0.174927
v -0.273937 0.737677 0.172999
v -0.286638 0.686792 0.16656
v -0.287827 0.703754 0.159009
v -0.209332 0.790975 0.231439
v -0.256046 0.800673 0.171786
v -0.236067 0.793847 0.201758
v -0.229427 0.789726 0.212621
v -0.222786 0.785585 0.222789
v -0.210898 0.788124 0.231439
v -0.253349 0.811974 0.16829
v -0.258743 0.813597 0.159009
v -0.125269 0.803607 0.159009
v -6.01652e-05 0.76315 0.191406
v -6.01652e-05 0.754596 0.189683
v -6.01652e-05 0.669831 0.184549
v -0.0931116 0.669831 0.159009
v -0.238938 0.720715 0.222427
v -0.24033 0.703754 0.224228
v -0.237053 0.686792 0.231439
v -0.255321 0.703754 0.204743
v -0.270312 0.703754 0.185223
v -0.271095 0.693951 0.186265
v -0.248797 0.703754 0.213224
v -0.25361 0.724628 0.202503
v -0.248362 0.719674 0.210416
v -0.272545 0.751204 0.171183
v -0.281273 0.737677 0.161101
v -0.237952 0.732245 0.221165
v -0.25245 0.737677 0.200999
v -0.236908 0.743566 0.219825
v -0.285275 0.703754 0.164008
v -0.285014 0.72186 0.159009
v -0.285275 0.720216 0.159009
v -0.260627 0.80598 0.162022
v -0.264049 0.803108 0.159009
v -0.267993 0.790205 0.161448
v -0.258685 0.788519 0.175225
v -0.252189 0.788519 0.183705
v -0.238445 0.782546 0.204857
v -0.217799 0.771558 0.231439
v -0.213971 0.78086 0.231439
v -0.233515 0.771558 0.215429
v -0.225048 0.771558 0.225058
v -0.116338 0.788457 0.159009
v -6.01652e-05 0.738571 0.187286
v -6.01652e-05 0.686792 0.183989
v -0.0918357 0.686792 0.159009
v -0.233834 0.703754 0.231439
v -0.266688 0.755949 0.177324
v -0.271182 0.762505 0.169382
v -0.276692 0.755949 0.162675
v -0.235661 0.754596 0.218173
v -0.275474 0.771308 0.159009
v -0.282375 0.737677 0.159009
v -0.284579 0.721111 0.160051
v -0.242997 0.737801 0.213287
v -0.231427 0.715741 0.231439
v -0.230905 0.720715 0.230908
v -0.229021 0.737905 0.229043
v -0.227165 0.754596 0.227178
v -0.268892 0.792078 0.159009
v -0.270399 0.788165 0.159009
v -0.270022 0.771558 0.167744
v -0.254103 0.779071 0.186208
v -0.222641 0.754596 0.231439
v -0.255524 0.76777 0.188073
v -0.108712 0.772161 0.159009
v -6.01652e-05 0.721131 0.185471
v -0.107407 0.768894 0.159009
v -6.01652e-05 0.703754 0.184294
v -0.0924737 0.703754 0.159009
v -0.275271 0.771558 0.159264
v -0.275416 0.771558 0.159009
v -0.230181 0.721568 0.231439
v -0.226237 0.739612 0.231439
v -0.275126 0.772681 0.159009
v -6.01652e-05 0.713119 0.184925
v -0.0976062 0.737677 0.159009
v -0.0999259 0.746022 0.159009
v -0.102362 0.754596 0.159009
v -0.0944745 0.720715 0.159009
v -0.0949094 0.72315 0.159009
f 1 2 3
f 1 3 4
f 1 4 5
f 1 5 6
f 1 6 2
f 2 7 8
f 2 8 3
f 2 6 9
f 2 9 10
f 2 10 7
f 3 8 11
f 3 11 12
f 3 12 13
f 3 13 4
f 4 13 14
f 4 14 15
f 4 15 16
f 4 16 5
f 5 16 6
f 6 16 17
f 6 17 18
f 6 18 9
f 7 19 28
f 7 28 41
f 7 41 61
f 7 61 78
f 7 78 101
f 7 101 124
f 7 124 152
f 7 152 184
f 7 184 207
f 7 207 209
f 7 209 220
f 7 220 219
f 7 219 218
f 7 218 222
f 7 222 221
f 7 221 211
f 7 211 187
f 7 187 156
f 7 156 130
f 7 130 129
f 7 129 127
f 7 127 103
f 7 103 83
f 7 83 80
f 7 80 65
f 7 65 51
f 7 51 69
f 7 69 90
f 7 90 116
f 7 116 143
f 7 143 173
f 7 173 172
f 7 172 194
f 7 194 193
f 7 193 213
f 7 213 216
f 7 216 202
f 7 202 201
f 7 201 175
f 7 175 151
f 7 151 122
f 7 122 97
f 7 97 75
f 7 75 74
f 7 74 64
f 7 64 43
f 7 43 31
f 7 31 20
f 7 20 8
f 7 10 19
f 8 20 11
f 9 18 10
f 10 18 17
f 10 17 27
f 10 27 26
f 10 26 40
f 10 40 60
f 10 60 59
f 10 59 77
f 10 77 76
f 10 76 99
f 10 99 117
f 10 117 144
f 10 144 149
f 10 149 181
f 10 181 180
f 10 180 205
f 10 205 215
f 10 215 214
f 10 214 197
f 10 197 188
f 10 188 159
f 10 159 131
f 10 131 105
f 10 105 84
f 10 84 67
f 10 67 50
f 10 50 33
f 10 33 21
f 10 21 32
f 10 32 44
f 10 44 49
f 10 49 48
f 10 48 47
f 10 47 46
f 10 46 66
f 10 66 82
f 10 82 102
f 10 102 104
f 10 104 128
f 10 128 155
f 10 155 186
f 10 186 210
f 10 210 217
f 10 217 208
f 10 208 185
f 10 185 154
f 10 154 153
f 10 153 126
f 10 126 125
f 10 125 123
f 10 123 100
f 10 100 79
f 10 79 63
f 10 63 62
f 10 62 42
f 10 42 29
f 10 29 22
f 10 22 19
f 11 20 12
f 12 20 23
f 12 23 13
f 13 24 14
f 13 23 24
f 14 24 25
f 14 25 26
f 14 26 15
f 15 26 16
f 16 27 17
f 16 26 27
f 19 22 29
f 19 29 28
f 20 30 23
f 20 31 30
f 21 33 32
f 23 34 24
f 23 30 35
f 23 35 36
f 23 36 34
f 24 34 37
f 24 37 38
f 24 38 39
f 24 39 25
f 25 39 40
f 25 40 26
f 28 29 41
f 29 42 41
f 30 31 43
f 30 43 35
f 32 33 44
f 33 45 46
f 33 46 47
f 33 47 48
f 33 48 49
f 33 49 44
f 33 50 68
f 33 68 87
f 33 87 111
f 33 111 110
f 33 110 138
f 33 138 112
f 33 112 88
f 33 88 69
f 33 69 51
f 33 51 52
f 33 52 45
f 34 36 53
f 34 53 37
f 35 43 54
f 35 54 55
f 35 55 36
f 36 55 56
f 36 56 53
f 37 57 58
f 37 58 38
f 37 53 57
f 38 58 59
f 38 59 60
f 38 60 39
f 39 60 40
f 41 42 62
f 41 62 63
f 41 63 61
f 43 64 54
f 45 52 46
f 46 52 65
f 46 65 66
f 50 67 68
f 51 65 52
f 53 70 57
f 53 56 71
f 53 71 72
f 53 72 70
f 54 73 56
f 54 56 55
f 54 64 74
f 54 74 75
f 54 75 73
f 56 73 71
f 57 70 76
f 57 76 77
f 57 77 58
f 58 77 59
f 61 63 78
f 63 79 78
f 65 80 66
f 66 81 82
f 66 80 83
f 66 83 81
f 67 84 68
f 68 84 85
f 68 85 86
f 68 86 87
f 69 88 89
f 69 89 90
f 70 72 91
f 70 91 92
f 70 92 76
f 71 73 93
f 71 93 94
f 71 94 95
f 71 95 72
f 72 95 96
f 72 96 91
f 73 75 97
f 73 97 98
f 73 98 93
f 76 92 99
f 78 79 100
f 78 100 101
f 81 83 82
f 82 83 102
f 83 103 104
f 83 104 102
f 84 105 85
f 85 105 106
f 85 106 107
f 85 107 86
f 86 107 108
f 86 108 109
f 86 109 110
f 86 110 111
f 86 111 87
f 88 112 113
f 88 113 89
f 89 113 114
f 89 114 90
f 90 114 113
f 90 113 115
f 90 115 116
f 91 117 99
f 91 99 92
f 91 96 118
f 91 118 119
f 91 119 117
f 93 120 94
f 93 98 120
f 94 120 95
f 95 118 96
f 95 120 121
f 95 121 118
f 97 122 98
f 98 122 120
f 100 123 101
f 101 123 125
f 101 125 126
f 101 126 124
f 103 127 104
f 104 127 129
f 104 129 130
f 104 130 128
f 105 131 132
f 105 132 106
f 106 132 133
f 106 133 107
f 107 133 108
f 108 133 134
f 108 134 135
f 108 135 109
f 109 135 136
f 109 136 110
f 110 136 113
f 110 113 137
f 110 137 138
f 112 138 137
f 112 137 113
f 113 136 135
f 113 135 134
f 113 134 139
f 113 139 140
f 113 140 141
f 113 141 115
f 115 142 143
f 115 143 116
f 115 141 142
f 117 119 118
f 117 118 144
f 118 121 145
f 118 145 146
f 118 146 147
f 118 147 148
f 118 148 149
f 118 149 144
f 120 122 150
f 120 150 121
f 121 150 145
f 122 151 150
f 124 126 153
f 124 153 154
f 124 154 152
f 128 130 155
f 130 156 155
f 131 157 158
f 131 158 132
f 131 159 157
f 132 158 133
f 133 160 161
f 133 161 162
f 133 162 134
f 133 158 163
f 133 163 160
f 134 162 139
f 139 162 161
f 139 161 140
f 140 164 141
f 140 161 165
f 140 165 164
f 141 166 167
f 141 167 142
f 141 164 168
f 141 168 169
f 141 169 170
f 141 170 166
f 142 171 172
f 142 172 173
f 142 173 143
f 142 167 171
f 145 150 174
f 145 174 175
f 145 175 176
f 145 176 177
f 145 177 146
f 146 177 178
f 146 178 179
f 146 179 147
f 147 179 148
f 148 180 181
f 148 181 149
f 148 179 182
f 148 182 183
f 148 183 180
f 150 151 174
f 151 175 174
f 152 154 184
f 154 185 184
f 155 156 186
f 156 187 186
f 157 168 165
f 157 165 158
f 157 159 168
f 158 165 163
f 159 188 168
f 160 163 165
f 160 165 161
f 164 165 168
f 166 189 190
f 166 190 191
f 166 191 167
f 166 170 192
f 166 192 189
f 167 191 193
f 167 193 194
f 167 194 172
f 167 172 195
f 167 195 171
f 168 196 169
f 168 188 197
f 168 197 170
f 168 170 196
f 169 196 170
f 170 197 198
f 170 198 199
f 170 199 200
f 170 200 183
f 170 183 192
f 171 195 172
f 175 201 176
f 176 201 202
f 176 202 203
f 176 203 177
f 177 204 179
f 177 179 178
f 177 203 204
f 179 204 182
f 180 183 205
f 182 204 206
f 182 206 192
f 182 192 183
f 183 200 205
f 184 185 207
f 185 208 209
f 185 209 207
f 186 187 211
f 186 211 210
f 189 192 190
f 190 206 204
f 190 204 203
f 190 203 212
f 190 212 191
f 190 192 206
f 191 212 193
f 193 212 213
f 197 214 198
f 198 214 215
f 198 215 199
f 199 215 200
f 200 215 205
f 202 216 203
f 203 216 212
f 208 217 218
f 208 218 219
f 208 219 220
f 208 220 209
f 210 211 221
f 210 221 222
f 210 222 218
f 210 218 217
f 212 216 213
