v 0.192025 -0.780534 -6.14666e-05
v 0.203568 -0.76319 -6.14666e-05
v 0.192025 -0.780534 0.00413333
v 0.192025 -0.658026 -6.14666e-05
v 0.203568 -0.76319 0.000509806
v 0.221164 -0.730435 -6.14666e-05
v 0.192025 -0.78047 0.00809963
v 0.192025 -0.510113 0.166686
v 0.286685 -0.12189 0.166686
v 0.331613 -0.121826 -6.14666e-05
v 0.207055 -0.755581 0.00708765
v 0.206784 -0.751906 0.0254501
v 0.202846 -0.7619 0.0118048
v 0.195295 -0.771572 0.0254501
v 0.198655 -0.769895 0.00708765
v 0.221164 -0.730435 0.00553704
v 0.233827 -0.704837 -6.14666e-05
v 0.192025 -0.778278 0.0189049
v 0.192025 -0.659444 0.166686
v 0.298157 -0.121826 0.166686
v 0.28972 -0.121826 0.160892
v 0.376577 -0.121826 -6.14666e-05
v 0.217171 -0.736689 0.0101073
v 0.205664 -0.749972 0.0424089
v 0.201961 -0.760353 0.0254501
v 0.214678 -0.737656 0.0254501
v 0.193 -0.771572 0.0424089
v 0.192025 -0.776923 0.0254501
v 0.200823 -0.758418 0.0424089
v 0.224795 -0.722375 0.0101073
v 0.220441 -0.729145 0.0168483
v 0.233827 -0.704837 0.00849136
v 0.235887 -0.700646 -6.14666e-05
v 0.192025 -0.661766 0.165037
v 0.192278 -0.658993 0.166686
v 0.336292 -0.121826 0.166686
v 0.376559 -0.121826 0.00849136
v 0.376215 -0.127242 0.00849136
v 0.376215 -0.127242 -6.14666e-05
v 0.20458 -0.748037 0.0541282
v 0.212456 -0.737656 0.0424089
v 0.192025 -0.772797 0.0436983
v 0.192025 -0.773119 0.0424089
v 0.224253 -0.719538 0.0254501
v 0.219881 -0.728049 0.0254501
v 0.223133 -0.71741 0.0424089
v 0.237964 -0.69639 0.00849136
v 0.229943 -0.703741 0.0424089
v 0.237964 -0.69639 -6.14666e-05
v 0.202954 -0.660283 0.151914
v 0.192025 -0.668342 0.160288
v 0.195241 -0.653448 0.166686
v 0.338243 -0.121826 0.162018
v 0.336238 -0.122664 0.166686
v 0.373343 -0.121826 0.0334153
v 0.373975 -0.126791 0.0260051
v 0.372801 -0.132078 0.0320116
v 0.37356 -0.140847 0.0207167
v 0.374481 -0.145554 0.00996035
v 0.373668 -0.161157 0.00473725
v 0.37318 -0.170958 0.00103212
v 0.37318 -0.170958 -6.14666e-05
v 0.202647 -0.744684 0.0654395
v 0.199088 -0.754034 0.0596124
v 0.192025 -0.766543 0.0582251
v 0.221868 -0.71496 0.0562664
v 0.217587 -0.720634 0.0609019
v 0.220387 -0.712059 0.0675777
v 0.218761 -0.725857 0.0424089
v 0.24248 -0.686783 0.00849136
v 0.237422 -0.69523 0.0169952
v 0.254638 -0.661895 0.00214202
v 0.236682 -0.693682 0.0283065
v 0.235742 -0.691683 0.0424089
v 0.238344 -0.680271 0.0593676
v 0.234225 -0.688717 0.0593676
v 0.254638 -0.661895 -6.14666e-05
v 0.200299 -0.669825 0.148438
v 0.206802 -0.669825 0.139967
v 0.212276 -0.653448 0.14452
v 0.192025 -0.678014 0.153122
v 0.205953 -0.648999 0.155815
v 0.201437 -0.641713 0.166686
v 0.340645 -0.121826 0.156223
v 0.335912 -0.127242 0.166686
v 0.367671 -0.121826 0.07631
v 0.367327 -0.127242 0.07631
v 0.365918 -0.1442 0.07631
v 0.366532 -0.161157 0.0593676
v 0.370995 -0.161157 0.0254501
v 0.373018 -0.15213 0.0166035
v 0.371789 -0.177212 0.00741409
v 0.369911 -0.195073 0.00849136
v 0.367996 -0.212031 0.00849136
v 0.367996 -0.212031 -6.14666e-05
v 0.192025 -0.755001 0.0762284
v 0.192025 -0.761062 0.0668269
v 0.205411 -0.732434 0.07631
v 0.200461 -0.740945 0.07631
v 0.237494 -0.678401 0.0680021
v 0.21858 -0.708641 0.07631
v 0.204381 -0.713799 0.103813
v 0.212023 -0.720699 0.07631
v 0.223024 -0.70013 0.07631
v 0.239716 -0.683237 0.0424089
v 0.250935 -0.668471 0.00806698
v 0.248081 -0.669825 0.0254501
v 0.253916 -0.660283 0.013437
v 0.288402 -0.576912 0.00108109
v 0.269813 -0.62353 0.00849136
v 0.264809 -0.63591 0.00849136
v 0.257312 -0.653899 0.00806698
v 0.243203 -0.669825 0.0593676
v 0.288402 -0.576912 -6.14666e-05
v 0.20411 -0.679304 0.136457
v 0.218599 -0.657832 0.132671
v 0.221579 -0.646549 0.137143
v 0.192025 -0.684204 0.148487
v 0.202177 -0.640294 0.166686
v 0.340447 -0.127242 0.15575
v 0.35535 -0.121826 0.120755
v 0.334395 -0.1442 0.166686
v 0.336183 -0.1442 0.16241
v 0.355784 -0.131497 0.117932
v 0.364889 -0.121826 0.0932525
v 0.364509 -0.127242 0.0932525
v 0.363046 -0.1442 0.0932525
v 0.362667 -0.178115 0.07631
v 0.364907 -0.178115 0.0593676
v 0.369369 -0.178115 0.0254501
v 0.367725 -0.195073 0.0254501
v 0.36581 -0.212031 0.0254501
v 0.36366 -0.245946 0.00849136
v 0.36693 -0.220413 -6.14666e-05
v 0.192025 -0.746812 0.0882252
v 0.203605 -0.729339 0.0850261
v 0.196921 -0.736044 0.0917182
v 0.192025 -0.740945 0.0965822
v 0.25406 -0.643647 0.065619
v 0.246111 -0.652868 0.07631
v 0.239391 -0.668665 0.0747268
v 0.237874 -0.662281 0.0858912
v 0.232165 -0.668665 0.0922405
v 0.224199 -0.66989 0.110032
v 0.221507 -0.680335 0.104254
v 0.22344 -0.686332 0.0923384
v 0.231316 -0.685171 0.0747268
v 0.221001 -0.696261 0.0860707
v 0.215058 -0.702645 0.0923384
v 0.206043 -0.719925 0.0917182
v 0.2072 -0.703612 0.109771
v 0.20169 -0.709221 0.115108
v 0.201256 -0.725083 0.0963374
v 0.245859 -0.669825 0.0424089
v 0.253139 -0.658413 0.0254501
v 0.256734 -0.649966 0.0254501
v 0.277815 -0.585037 0.0593676
v 0.282278 -0.585037 0.0254501
v 0.28515 -0.583554 0.00743042
v 0.278177 -0.601994 0.00849136
v 0.273155 -0.615083 0.00849136
v 0.30531 -0.52591 0.000624066
v 0.295989 -0.551121 0.00849136
v 0.287679 -0.574785 0.012376
v 0.268711 -0.620758 0.0254501
v 0.262605 -0.63591 0.0254501
v 0.30531 -0.52591 -6.14666e-05
v 0.194644 -0.686138 0.143623
v 0.200805 -0.690652 0.132132
v 0.204923 -0.697938 0.120837
v 0.221886 -0.66428 0.121376
v 0.235724 -0.623917 0.132067
v 0.238325 -0.612569 0.137078
v 0.224271 -0.63591 0.140734
v 0.217858 -0.63591 0.149221
v 0.192025 -0.698002 0.137845
v 0.206423 -0.632041 0.166686
v 0.352984 -0.126404 0.125636
v 0.356922 -0.121826 0.116952
v 0.358855 -0.126404 0.111452
v 0.333925 -0.148778 0.166686
v 0.35871 -0.1442 0.108024
v 0.332733 -0.160384 0.166686
v 0.33089 -0.178309 0.166686
v 0.333239 -0.178115 0.161087
v 0.337954 -0.178115 0.149727
v 0.359325 -0.121826 0.111109
v 0.356958 -0.178115 0.103829
v 0.35638 -0.189334 0.102426
v 0.355802 -0.200618 0.100483
v 0.357807 -0.195008 0.0941992
v 0.359686 -0.178115 0.0932525
v 0.361023 -0.195073 0.07631
v 0.363263 -0.195073 0.0593676
v 0.365503 -0.195073 0.0424089
v 0.363588 -0.212031 0.0424089
v 0.361474 -0.245946 0.0254501
v 0.361474 -0.262904 0.00849136
v 0.36366 -0.245946 -6.14666e-05
v 0.364762 -0.237371 -6.14666e-05
v 0.192025 -0.730306 0.109052
v 0.254837 -0.645453 0.0543241
v 0.257565 -0.637135 0.0597267
v 0.264989 -0.618952 0.0593676
v 0.272089 -0.595482 0.0702545
v 0.256427 -0.632364 0.0732251
v 0.252019 -0.655769 0.0424089
v 0.252543 -0.637135 0.0778443
v 0.239933 -0.652094 0.0922405
v 0.235543 -0.657188 0.0972024
v 0.21914 -0.675564 0.115549
v 0.232761 -0.652094 0.109526
v 0.216051 -0.686332 0.110032
v 0.218653 -0.691683 0.097382
v 0.192025 -0.718377 0.121131
v 0.192025 -0.72489 0.114569
v 0.255632 -0.647322 0.0424089
v 0.273028 -0.597997 0.0593676
v 0.283741 -0.568079 0.0593676
v 0.275973 -0.601994 0.0254501
v 0.272053 -0.612311 0.0254501
v 0.322833 -0.460207 0.00849136
v 0.320539 -0.468718 0.00849136
v 0.316529 -0.48329 0.00849136
v 0.31176 -0.500248 0.00849136
v 0.306936 -0.517592 0.00715294
v 0.304588 -0.52346 0.0119353
v 0.294923 -0.534163 0.0593676
v 0.297163 -0.534163 0.0424089
v 0.299385 -0.534163 0.0254501
v 0.293803 -0.551121 0.0254501
v 0.28683 -0.572205 0.0254501
v 0.260365 -0.63591 0.0424089
v 0.322833 -0.460207 -6.14666e-05
v 0.195602 -0.704644 0.127921
v 0.192025 -0.714122 0.124803
v 0.235778 -0.640681 0.114716
v 0.238271 -0.629333 0.120772
v 0.240421 -0.618501 0.126713
v 0.239518 -0.581103 0.155358
v 0.236934 -0.592452 0.151963
v 0.234694 -0.601994 0.148944
v 0.229347 -0.619726 0.144667
v 0.247069 -0.601994 0.12717
v 0.25415 -0.575881 0.135103
v 0.253175 -0.556666 0.150527
v 0.220188 -0.626818 0.152241
v 0.192025 -0.702 0.134678
v 0.209801 -0.6254 0.166686
v 0.353453 -0.178115 0.1123
v 0.329156 -0.195073 0.166686
v 0.331486 -0.195073 0.161087
v 0.340591 -0.195073 0.139134
v 0.353092 -0.195008 0.108938
v 0.350509 -0.212031 0.110211
v 0.345848 -0.245946 0.110211
v 0.341747 -0.279862 0.108024
v 0.349244 -0.262904 0.0932525
v 0.355061 -0.212031 0.0974473
v 0.357048 -0.212031 0.0889761
v 0.35638 -0.222605 0.0859728
v 0.359108 -0.212031 0.07631
v 0.361348 -0.212031 0.0593676
v 0.357048 -0.228537 0.075951
v 0.35918 -0.228988 0.0593676
v 0.355675 -0.25104 0.0645417
v 0.359288 -0.262904 0.0254501
v 0.361474 -0.262904 -6.14666e-05
v 0.356416 -0.273349 0.036386
v 0.358999 -0.279862 0.00849136
v 0.270698 -0.608765 0.0460814
v 0.269831 -0.606443 0.0593676
v 0.267826 -0.601479 0.0760652
v 0.289178 -0.545383 0.0715766
v 0.280182 -0.568079 0.07631
v 0.274166 -0.585037 0.0760652
v 0.270246 -0.590711 0.0815495
v 0.259534 -0.620435 0.0778443
v 0.256661 -0.615857 0.0902818
v 0.254259 -0.627141 0.0845038
v 0.24678 -0.63591 0.0932525
v 0.238109 -0.645904 0.103421
v 0.290208 -0.548478 0.0593676
v 0.325489 -0.449439 0.00849136
v 0.322255 -0.458079 0.0174849
v 0.3196 -0.464785 0.0240627
v 0.314325 -0.48329 0.0254501
v 0.309556 -0.500248 0.0254501
v 0.305509 -0.509662 0.0360106
v 0.306196 -0.512047 0.0254501
v 0.303703 -0.520494 0.0254501
v 0.300216 -0.517206 0.0593676
v 0.297271 -0.517206 0.07631
v 0.325489 -0.449439 -6.14666e-05
v 0.192025 -0.707158 0.130581
v 0.247087 -0.618952 0.110211
v 0.254313 -0.610312 0.101593
v 0.228769 -0.585617 0.166686
v 0.255433 -0.545318 0.154069
v 0.241415 -0.566531 0.161039
v 0.235182 -0.571174 0.166653
v 0.226077 -0.591484 0.166686
v 0.223115 -0.597868 0.166686
v 0.219231 -0.606121 0.166686
v 0.22297 -0.615535 0.155881
v 0.254259 -0.593161 0.118405
v 0.252687 -0.58652 0.128541
v 0.256481 -0.581877 0.123808
v 0.272468 -0.579427 0.0875397
v 0.27012 -0.573173 0.0988347
v 0.280272 -0.551121 0.0932525
v 0.273173 -0.53268 0.126158
v 0.271457 -0.526039 0.135951
v 0.269162 -0.517206 0.147818
v 0.27086 -0.507276 0.151555
v 0.216431 -0.620306 0.161349
v 0.212619 -0.619726 0.166686
v 0.327097 -0.212031 0.166686
v 0.339814 -0.208355 0.137257
v 0.34191 -0.228988 0.125358
v 0.337231 -0.245946 0.131022
v 0.339038 -0.270577 0.118421
v 0.342687 -0.264065 0.111746
v 0.346679 -0.279862 0.0932525
v 0.338243 -0.279862 0.116512
v 0.340266 -0.296819 0.104466
v 0.352586 -0.262904 0.07631
v 0.350111 -0.279862 0.07631
v 0.355639 -0.233889 0.0813536
v 0.354863 -0.245559 0.075951
v 0.354899 -0.262646 0.0590738
v 0.355675 -0.268127 0.0476809
v 0.358999 -0.279862 -6.14666e-05
v 0.352351 -0.279862 0.0593676
v 0.35703 -0.279346 0.0244381
v 0.356254 -0.289211 0.0181051
v 0.356868 -0.293015 0.00849136
v 0.287769 -0.541191 0.0828716
v 0.291382 -0.535002 0.076865
v 0.259805 -0.603542 0.0948684
v 0.323484 -0.449375 0.0240627
v 0.339507 -0.391796 0.00294182
v 0.329535 -0.432481 0.00849136
v 0.321515 -0.454984 0.0287798
v 0.318823 -0.449439 0.0593676
v 0.314523 -0.466332 0.0593676
v 0.316764 -0.466332 0.0424089
v 0.312103 -0.48329 0.0424089
v 0.303974 -0.504246 0.0593676
v 0.305599 -0.493091 0.069977
v 0.289774 -0.529908 0.0883885
v 0.302673 -0.499345 0.075902
v 0.30457 -0.489545 0.0812883
v 0.339507 -0.391796 -6.14666e-05
v 0.235146 -0.571174 0.166686
v 0.257583 -0.534163 0.157089
v 0.252163 -0.529908 0.166686
v 0.251296 -0.534163 0.16556
v 0.248406 -0.551057 0.160271
v 0.243474 -0.551057 0.166686
v 0.238885 -0.562147 0.166686
v 0.2352 -0.571045 0.166686
v 0.267898 -0.585037 0.0932198
v 0.259642 -0.58652 0.111746
v 0.274383 -0.567692 0.0932198
v 0.287426 -0.523009 0.0996997
v 0.277888 -0.517206 0.12717
v 0.272848 -0.517206 0.13933
v 0.275413 -0.501022 0.145206
v 0.28123 -0.48329 0.144129
v 0.285854 -0.4673 0.144325
v 0.287227 -0.453759 0.150103
v 0.272613 -0.495928 0.154738
v 0.269108 -0.48329 0.166409
v 0.266886 -0.501022 0.160663
v 0.26013 -0.517464 0.162099
v 0.289214 -0.511661 0.104009
v 0.329427 -0.212031 0.161087
v 0.324784 -0.228988 0.166686
v 0.32399 -0.234791 0.166686
v 0.324676 -0.244592 0.161773
v 0.320557 -0.262904 0.165609
v 0.32305 -0.276251 0.154689
v 0.339399 -0.306749 0.10236
v 0.338423 -0.318097 0.0994386
v 0.339923 -0.330735 0.0874255
v 0.3392 -0.339439 0.0849445
v 0.316818 -0.296819 0.161087
v 0.321262 -0.296819 0.150364
v 0.330872 -0.296819 0.12717
v 0.335623 -0.312939 0.108905
v 0.347366 -0.296819 0.07631
v 0.356868 -0.293015 -6.14666e-05
v 0.346842 -0.313777 0.0593676
v 0.351304 -0.313777 0.0254501
v 0.355495 -0.301462 0.00849136
v 0.35349 -0.313777 0.00849136
v 0.354501 -0.307587 -6.14666e-05
v 0.331378 -0.415524 0.0254501
v 0.326916 -0.415524 0.0593676
v 0.34424 -0.36465 0.00849136
v 0.340736 -0.382253 0.00855665
v 0.338803 -0.388314 0.0142531
v 0.33752 -0.397921 0.00855665
v 0.333564 -0.415524 0.00849136
v 0.3476 -0.347693 0.00849136
v 0.316438 -0.449439 0.07631
v 0.321966 -0.423068 0.0831654
v 0.312031 -0.466332 0.07631
v 0.309863 -0.48329 0.0593676
v 0.307243 -0.483613 0.075902
v 0.30625 -0.478261 0.0872949
v 0.291707 -0.51727 0.0937258
v 0.3476 -0.347693 -6.14666e-05
v 0.255325 -0.521655 0.166686
v 0.249255 -0.537065 0.166686
v 0.283976 -0.499152 0.125913
v 0.28795 -0.473618 0.134858
v 0.297163 -0.500248 0.0932525
v 0.301065 -0.465301 0.109003
v 0.305563 -0.458982 0.10254
v 0.289576 -0.462335 0.138791
v 0.30681 -0.449439 0.105543
v 0.290949 -0.448665 0.144325
v 0.288673 -0.44254 0.153498
v 0.286721 -0.425582 0.166686
v 0.283596 -0.448665 0.159929
v 0.274528 -0.48329 0.157921
v 0.276732 -0.467171 0.162377
v 0.272848 -0.471233 0.166686
v 0.269307 -0.48213 0.166686
v 0.268693 -0.48387 0.166686
v 0.257818 -0.514691 0.166686
v 0.320991 -0.256521 0.166686
v 0.320033 -0.262904 0.166686
v 0.307442 -0.336667 0.166686
v 0.319744 -0.281087 0.16063
v 0.331938 -0.330735 0.110211
v 0.337303 -0.330735 0.0958967
v 0.339778 -0.342341 0.07631
v 0.345415 -0.347693 0.0254501
v 0.348522 -0.330735 0.0254501
v 0.34182 -0.330735 0.07631
v 0.344602 -0.313777 0.07631
v 0.335696 -0.346145 0.0916692
v 0.331378 -0.36465 0.0932525
v 0.323321 -0.411784 0.0878988
v 0.328488 -0.398566 0.07631
v 0.331974 -0.381608 0.07631
v 0.335352 -0.36465 0.07631
v 0.338098 -0.350852 0.07631
v 0.313855 -0.313777 0.161087
v 0.31978 -0.313777 0.146806
v 0.322436 -0.323578 0.136245
v 0.350708 -0.330735 0.00849136
v 0.352117 -0.322159 -6.14666e-05
v 0.35349 -0.313777 -6.14666e-05
v 0.33519 -0.398566 0.0254501
v 0.332968 -0.398566 0.0424089
v 0.330728 -0.398566 0.0593676
v 0.324315 -0.41662 0.0770282
v 0.342054 -0.36465 0.0254501
v 0.334214 -0.381608 0.0593676
v 0.349172 -0.339117 -6.14666e-05
v 0.311778 -0.449439 0.0932525
v 0.307605 -0.465301 0.0930729
v 0.303937 -0.470266 0.0986061
v 0.313548 -0.415524 0.110211
v 0.307641 -0.415524 0.124493
v 0.30522 -0.406948 0.135609
v 0.299493 -0.415524 0.144129
v 0.291798 -0.415459 0.161806
v 0.288311 -0.419908 0.166686
v 0.274835 -0.46472 0.166686
v 0.306286 -0.342534 0.166686
v 0.321424 -0.334926 0.133813
v 0.310874 -0.330735 0.161087
v 0.324839 -0.329832 0.127758
v 0.328614 -0.347693 0.110211
v 0.343193 -0.347693 0.0424089
v 0.32249 -0.391409 0.102458
v 0.327873 -0.381608 0.0932525
v 0.324441 -0.397663 0.093432
v 0.321208 -0.402692 0.0992101
v 0.319997 -0.41662 0.093432
v 0.350708 -0.330735 -6.14666e-05
v 0.318371 -0.397663 0.108954
v 0.306503 -0.395664 0.13871
v 0.303161 -0.400178 0.144276
v 0.296278 -0.398566 0.161087
v 0.292015 -0.405078 0.166686
v 0.290244 -0.4123 0.166686
v 0.307677 -0.346532 0.161332
v 0.314578 -0.347693 0.144129
v 0.320142 -0.347693 0.130696
v 0.304461 -0.351045 0.166686
v 0.30634 -0.36465 0.155277
v 0.323646 -0.347693 0.122224
v 0.323538 -0.381608 0.105004
v 0.320033 -0.381608 0.113476
v 0.314361 -0.381608 0.12717
v 0.304154 -0.385025 0.150021
v 0.301047 -0.380254 0.159586
v 0.303974 -0.353302 0.166686
f 1 2 5
f 1 5 3
f 1 3 7
f 1 7 18
f 1 18 28
f 1 28 43
f 1 43 42
f 1 42 65
f 1 65 97
f 1 97 96
f 1 96 135
f 1 135 138
f 1 138 201
f 1 201 216
f 1 216 215
f 1 215 236
f 1 236 295
f 1 295 248
f 1 248 176
f 1 176 118
f 1 118 81
f 1 81 51
f 1 51 34
f 1 34 19
f 1 19 8
f 1 8 4
f 1 4 10
f 1 10 22
f 1 22 39
f 1 39 62
f 1 62 95
f 1 95 134
f 1 134 200
f 1 200 199
f 1 199 268
f 1 268 333
f 1 333 393
f 1 393 398
f 1 398 457
f 1 457 456
f 1 456 486
f 1 486 464
f 1 464 414
f 1 414 354
f 1 354 294
f 1 294 234
f 1 234 167
f 1 167 114
f 1 114 77
f 1 77 49
f 1 49 33
f 1 33 17
f 1 17 6
f 1 6 2
f 2 6 16
f 2 16 5
f 3 5 7
f 4 8 9
f 4 9 10
f 5 11 12
f 5 12 13
f 5 13 14
f 5 14 15
f 5 15 7
f 5 16 11
f 6 17 32
f 6 32 16
f 7 15 18
f 8 19 35
f 8 35 52
f 8 52 83
f 8 83 119
f 8 119 177
f 8 177 249
f 8 249 317
f 8 317 304
f 8 304 303
f 8 303 302
f 8 302 298
f 8 298 355
f 8 355 362
f 8 362 361
f 8 361 360
f 8 360 416
f 8 416 357
f 8 357 415
f 8 415 433
f 8 433 432
f 8 432 431
f 8 431 430
f 8 430 474
f 8 474 426
f 8 426 473
f 8 473 492
f 8 492 491
f 8 491 504
f 8 504 496
f 8 496 475
f 8 475 436
f 8 436 435
f 8 435 434
f 8 434 380
f 8 380 379
f 8 379 318
f 8 318 251
f 8 251 184
f 8 184 183
f 8 183 181
f 8 181 122
f 8 122 85
f 8 85 54
f 8 54 36
f 8 36 20
f 8 20 9
f 9 20 21
f 9 21 10
f 10 21 20
f 10 20 36
f 10 36 53
f 10 53 84
f 10 84 121
f 10 121 179
f 10 179 187
f 10 187 125
f 10 125 86
f 10 86 55
f 10 55 37
f 10 37 22
f 11 16 23
f 11 23 12
f 12 24 25
f 12 25 13
f 12 23 26
f 12 26 24
f 13 25 14
f 14 27 28
f 14 28 15
f 14 25 29
f 14 29 27
f 15 28 18
f 16 30 31
f 16 31 23
f 16 32 30
f 17 33 32
f 19 34 35
f 22 37 38
f 22 38 39
f 23 31 26
f 24 40 29
f 24 29 25
f 24 26 41
f 24 41 40
f 26 31 41
f 27 42 43
f 27 43 28
f 27 29 42
f 29 40 42
f 30 44 31
f 30 32 44
f 31 45 41
f 31 44 46
f 31 46 45
f 32 33 47
f 32 47 48
f 32 48 46
f 32 46 44
f 33 49 47
f 34 50 35
f 34 51 50
f 35 50 52
f 36 54 53
f 37 55 38
f 38 55 56
f 38 56 57
f 38 57 58
f 38 58 59
f 38 59 60
f 38 60 61
f 38 61 62
f 38 62 39
f 40 63 64
f 40 64 65
f 40 65 42
f 40 41 66
f 40 66 67
f 40 67 68
f 40 68 63
f 41 45 69
f 41 69 66
f 45 46 69
f 46 66 69
f 46 48 66
f 47 70 71
f 47 71 48
f 47 49 77
f 47 77 72
f 47 72 70
f 48 71 73
f 48 73 74
f 48 74 75
f 48 75 76
f 48 76 66
f 50 51 78
f 50 78 79
f 50 79 80
f 50 80 52
f 51 81 78
f 52 80 82
f 52 82 83
f 53 54 85
f 53 85 84
f 55 86 87
f 55 87 56
f 56 87 57
f 57 88 58
f 57 87 88
f 58 88 89
f 58 89 90
f 58 90 91
f 58 91 59
f 59 91 60
f 60 91 92
f 60 92 61
f 61 92 93
f 61 93 94
f 61 94 95
f 61 95 62
f 63 96 97
f 63 97 65
f 63 65 64
f 63 68 98
f 63 98 99
f 63 99 96
f 66 68 67
f 66 76 100
f 66 100 68
f 68 101 102
f 68 102 103
f 68 103 98
f 68 100 104
f 68 104 101
f 70 105 73
f 70 73 71
f 70 72 106
f 70 106 107
f 70 107 105
f 72 108 106
f 72 77 114
f 72 114 109
f 72 109 110
f 72 110 111
f 72 111 112
f 72 112 108
f 73 105 74
f 74 105 75
f 75 100 76
f 75 105 113
f 75 113 100
f 78 81 115
f 78 115 79
f 79 116 117
f 79 117 80
f 79 115 116
f 80 117 82
f 81 118 115
f 82 117 83
f 83 117 119
f 84 85 120
f 84 120 121
f 85 122 123
f 85 123 124
f 85 124 120
f 86 125 87
f 87 125 126
f 87 126 88
f 88 126 127
f 88 127 128
f 88 128 129
f 88 129 89
f 89 129 130
f 89 130 90
f 90 130 91
f 91 130 92
f 92 130 131
f 92 131 93
f 93 131 132
f 93 132 94
f 94 132 197
f 94 197 133
f 94 133 200
f 94 200 134
f 94 134 95
f 96 99 135
f 98 103 136
f 98 136 99
f 99 136 137
f 99 137 138
f 99 138 135
f 100 113 139
f 100 139 140
f 100 140 141
f 100 141 142
f 100 142 143
f 100 143 144
f 100 144 145
f 100 145 146
f 100 146 147
f 100 147 104
f 101 104 148
f 101 148 149
f 101 149 102
f 102 150 103
f 102 149 151
f 102 151 152
f 102 152 138
f 102 138 153
f 102 153 150
f 103 150 136
f 104 147 148
f 105 107 154
f 105 154 113
f 106 108 107
f 107 108 154
f 108 155 154
f 108 112 156
f 108 156 155
f 109 157 158
f 109 158 159
f 109 159 160
f 109 160 161
f 109 161 110
f 109 114 167
f 109 167 162
f 109 162 163
f 109 163 164
f 109 164 157
f 110 161 221
f 110 221 165
f 110 165 166
f 110 166 111
f 111 166 156
f 111 156 112
f 113 154 139
f 115 118 168
f 115 168 169
f 115 169 170
f 115 170 116
f 116 170 171
f 116 171 172
f 116 172 117
f 117 172 173
f 117 173 174
f 117 174 175
f 117 175 119
f 118 176 168
f 119 175 177
f 120 178 121
f 120 124 178
f 121 178 180
f 121 180 179
f 122 181 123
f 123 182 124
f 123 181 183
f 123 183 184
f 123 184 185
f 123 185 186
f 123 186 182
f 124 182 180
f 124 180 178
f 125 187 126
f 126 187 182
f 126 182 127
f 127 182 188
f 127 188 189
f 127 189 190
f 127 190 191
f 127 191 192
f 127 192 193
f 127 193 128
f 128 193 194
f 128 194 129
f 129 194 195
f 129 195 130
f 130 195 131
f 131 195 196
f 131 196 132
f 132 196 197
f 133 197 267
f 133 267 198
f 133 198 268
f 133 268 199
f 133 199 200
f 136 153 137
f 136 150 153
f 137 153 138
f 138 152 201
f 139 202 203
f 139 203 204
f 139 204 205
f 139 205 206
f 139 206 140
f 139 154 207
f 139 207 202
f 140 206 208
f 140 208 209
f 140 209 142
f 140 142 141
f 142 210 144
f 142 144 143
f 142 209 210
f 144 211 145
f 144 210 212
f 144 212 211
f 145 213 214
f 145 214 146
f 145 211 213
f 146 214 147
f 147 214 148
f 148 214 149
f 149 214 151
f 151 214 213
f 151 213 211
f 151 211 170
f 151 170 152
f 152 215 216
f 152 216 201
f 152 170 215
f 154 155 207
f 155 156 217
f 155 217 207
f 156 166 217
f 157 205 218
f 157 218 158
f 157 164 219
f 157 219 205
f 158 218 220
f 158 220 160
f 158 160 159
f 160 220 221
f 160 221 161
f 162 167 234
f 162 234 222
f 162 222 223
f 162 223 224
f 162 224 225
f 162 225 226
f 162 226 227
f 162 227 228
f 162 228 229
f 162 229 230
f 162 230 231
f 162 231 163
f 163 231 164
f 164 231 232
f 164 232 219
f 165 204 166
f 165 221 204
f 166 233 202
f 166 202 217
f 166 204 233
f 168 176 169
f 169 176 235
f 169 235 170
f 170 235 236
f 170 236 215
f 170 211 171
f 171 211 212
f 171 212 237
f 171 237 172
f 172 237 238
f 172 238 239
f 172 239 173
f 173 240 241
f 173 241 242
f 173 242 243
f 173 243 174
f 173 239 244
f 173 244 245
f 173 245 246
f 173 246 240
f 174 243 247
f 174 247 175
f 175 247 177
f 176 248 235
f 177 247 249
f 179 180 187
f 180 182 187
f 182 250 188
f 182 186 250
f 184 251 252
f 184 252 185
f 185 252 186
f 186 252 253
f 186 253 250
f 188 250 189
f 189 253 254
f 189 254 190
f 189 250 253
f 190 255 256
f 190 256 257
f 190 257 258
f 190 258 259
f 190 259 260
f 190 260 191
f 190 254 255
f 191 260 192
f 192 260 193
f 193 260 261
f 193 261 262
f 193 262 263
f 193 263 194
f 194 263 196
f 194 196 195
f 196 263 264
f 196 264 265
f 196 265 266
f 196 266 197
f 197 266 267
f 198 267 269
f 198 269 270
f 198 270 333
f 198 333 268
f 202 233 203
f 202 207 217
f 203 233 204
f 204 221 271
f 204 271 272
f 204 272 205
f 205 273 206
f 205 272 218
f 205 219 274
f 205 274 275
f 205 275 276
f 205 276 277
f 205 277 273
f 206 278 279
f 206 279 280
f 206 280 208
f 206 273 277
f 206 277 278
f 208 281 209
f 208 280 281
f 209 212 210
f 209 281 282
f 209 282 212
f 212 282 237
f 218 272 220
f 219 232 231
f 219 231 283
f 219 283 274
f 220 272 271
f 220 271 221
f 222 234 294
f 222 294 284
f 222 284 285
f 222 285 223
f 223 285 286
f 223 286 224
f 224 286 287
f 224 287 288
f 224 288 225
f 225 288 289
f 225 289 290
f 225 290 226
f 226 290 227
f 227 290 291
f 227 291 292
f 227 292 228
f 228 292 293
f 228 293 274
f 228 274 283
f 228 283 229
f 229 283 231
f 229 231 230
f 235 248 295
f 235 295 236
f 237 282 281
f 237 281 238
f 238 280 296
f 238 296 239
f 238 281 280
f 239 296 297
f 239 297 244
f 240 298 241
f 240 246 299
f 240 299 300
f 240 300 301
f 240 301 298
f 241 298 302
f 241 302 303
f 241 303 304
f 241 304 242
f 242 304 305
f 242 305 243
f 243 305 247
f 244 297 306
f 244 306 307
f 244 307 245
f 245 307 308
f 245 308 309
f 245 309 310
f 245 310 311
f 245 311 312
f 245 312 313
f 245 313 314
f 245 314 246
f 246 314 315
f 246 315 299
f 247 305 316
f 247 316 249
f 249 316 317
f 251 318 319
f 251 319 252
f 252 319 253
f 253 319 254
f 254 319 255
f 255 319 320
f 255 320 256
f 256 320 321
f 256 321 322
f 256 322 323
f 256 323 257
f 257 324 258
f 257 323 322
f 257 322 325
f 257 325 326
f 257 326 324
f 258 327 261
f 258 261 259
f 258 324 328
f 258 328 327
f 259 261 260
f 261 327 329
f 261 329 262
f 262 329 264
f 262 264 263
f 264 329 330
f 264 330 266
f 264 266 265
f 266 327 331
f 266 331 267
f 266 330 327
f 267 331 332
f 267 332 269
f 269 328 334
f 269 334 335
f 269 335 270
f 269 332 328
f 270 335 336
f 270 336 337
f 270 337 393
f 270 393 333
f 274 338 275
f 274 293 339
f 274 339 338
f 275 338 276
f 276 309 277
f 276 338 309
f 277 309 279
f 277 279 278
f 279 296 280
f 279 309 340
f 279 340 297
f 279 297 296
f 284 341 285
f 284 294 354
f 284 354 342
f 284 342 343
f 284 343 341
f 285 344 345
f 285 345 346
f 285 346 286
f 285 341 344
f 286 346 347
f 286 347 348
f 286 348 287
f 287 348 288
f 288 348 349
f 288 349 289
f 289 292 290
f 289 349 292
f 290 292 291
f 292 349 350
f 292 350 293
f 293 351 338
f 293 338 339
f 293 350 352
f 293 352 353
f 293 353 351
f 297 340 306
f 298 301 355
f 299 356 357
f 299 357 358
f 299 358 359
f 299 359 300
f 299 315 356
f 300 359 301
f 301 359 360
f 301 360 361
f 301 361 362
f 301 362 355
f 304 317 305
f 305 317 316
f 306 363 309
f 306 309 364
f 306 364 307
f 306 340 363
f 307 364 309
f 307 309 308
f 309 363 340
f 309 338 351
f 309 351 365
f 309 365 310
f 310 365 311
f 311 365 351
f 311 351 312
f 312 351 313
f 313 351 366
f 313 366 367
f 313 367 368
f 313 368 315
f 313 315 314
f 315 369 370
f 315 370 371
f 315 371 372
f 315 372 373
f 315 373 374
f 315 374 375
f 315 375 376
f 315 376 356
f 315 368 377
f 315 377 369
f 318 378 319
f 318 379 378
f 319 378 379
f 319 379 380
f 319 380 320
f 320 380 321
f 321 380 381
f 321 381 382
f 321 382 322
f 322 383 325
f 322 382 383
f 324 326 384
f 324 384 385
f 324 385 386
f 324 386 387
f 324 387 328
f 325 383 388
f 325 388 389
f 325 389 390
f 325 390 391
f 325 391 326
f 326 391 384
f 327 330 329
f 327 328 332
f 327 332 331
f 328 387 392
f 328 392 334
f 334 392 394
f 334 394 395
f 334 395 335
f 335 395 336
f 336 396 337
f 336 395 397
f 336 397 396
f 337 396 398
f 337 398 393
f 341 345 344
f 341 343 399
f 341 399 400
f 341 400 345
f 342 401 402
f 342 402 403
f 342 403 404
f 342 404 405
f 342 405 343
f 342 354 414
f 342 414 406
f 342 406 401
f 343 405 399
f 345 407 346
f 345 400 408
f 345 408 407
f 346 409 410
f 346 410 348
f 346 348 347
f 346 407 409
f 348 410 349
f 349 410 350
f 350 353 352
f 350 410 409
f 350 409 411
f 350 411 353
f 351 353 412
f 351 412 413
f 351 413 366
f 353 411 409
f 353 409 412
f 356 376 415
f 356 415 357
f 357 416 358
f 358 416 359
f 359 416 360
f 366 413 367
f 367 413 377
f 367 377 368
f 369 417 370
f 369 377 417
f 370 412 418
f 370 418 371
f 370 417 419
f 370 419 412
f 371 418 420
f 371 420 421
f 371 421 422
f 371 422 372
f 372 422 421
f 372 421 423
f 372 423 424
f 372 424 425
f 372 425 426
f 372 426 427
f 372 427 373
f 373 428 429
f 373 429 430
f 373 430 431
f 373 431 374
f 373 427 426
f 373 426 428
f 374 431 432
f 374 432 433
f 374 433 376
f 374 376 375
f 376 433 415
f 377 413 419
f 377 419 417
f 380 434 382
f 380 382 381
f 382 434 435
f 382 435 436
f 382 436 437
f 382 437 383
f 383 437 388
f 384 391 438
f 384 438 385
f 385 438 439
f 385 439 387
f 385 387 386
f 387 440 441
f 387 441 442
f 387 442 443
f 387 443 444
f 387 444 392
f 387 439 445
f 387 445 446
f 387 446 447
f 387 447 408
f 387 408 448
f 387 448 449
f 387 449 450
f 387 450 451
f 387 451 440
f 388 437 436
f 388 436 452
f 388 452 453
f 388 453 389
f 389 453 390
f 390 453 391
f 391 453 454
f 391 454 438
f 392 444 394
f 394 444 443
f 394 443 442
f 394 442 395
f 395 442 455
f 395 455 397
f 396 397 398
f 397 455 456
f 397 456 457
f 397 457 398
f 399 405 404
f 399 404 458
f 399 458 459
f 399 459 400
f 400 459 460
f 400 460 448
f 400 448 461
f 400 461 408
f 401 462 403
f 401 403 402
f 401 406 441
f 401 441 462
f 403 463 449
f 403 449 448
f 403 448 460
f 403 460 459
f 403 459 458
f 403 458 404
f 403 462 463
f 406 414 464
f 406 464 455
f 406 455 442
f 406 442 441
f 407 408 409
f 408 461 448
f 408 447 465
f 408 465 412
f 408 412 409
f 412 465 466
f 412 466 421
f 412 421 467
f 412 467 418
f 412 419 413
f 418 467 420
f 420 467 421
f 421 466 465
f 421 465 423
f 423 465 468
f 423 468 469
f 423 469 424
f 424 469 470
f 424 470 471
f 424 471 425
f 425 471 472
f 425 472 473
f 425 473 426
f 426 474 429
f 426 429 428
f 429 474 430
f 436 475 476
f 436 476 477
f 436 477 452
f 438 454 478
f 438 478 476
f 438 476 479
f 438 479 439
f 439 479 446
f 439 446 445
f 440 480 441
f 440 451 480
f 441 480 462
f 446 481 482
f 446 482 447
f 446 479 481
f 447 482 483
f 447 483 484
f 447 484 485
f 447 485 465
f 449 463 450
f 450 463 451
f 451 463 480
f 452 477 453
f 453 477 454
f 454 477 478
f 455 464 486
f 455 486 456
f 462 480 463
f 465 485 484
f 465 484 468
f 468 484 470
f 468 470 469
f 470 484 487
f 470 487 481
f 470 481 488
f 470 488 489
f 470 489 471
f 471 489 490
f 471 490 472
f 472 490 491
f 472 491 492
f 472 492 473
f 475 493 494
f 475 494 495
f 475 495 476
f 475 496 497
f 475 497 493
f 476 495 498
f 476 498 479
f 476 478 477
f 479 498 499
f 479 499 481
f 481 499 500
f 481 500 501
f 481 501 502
f 481 502 488
f 481 487 484
f 481 484 483
f 481 483 482
f 488 502 489
f 489 502 490
f 490 502 503
f 490 503 504
f 490 504 491
f 493 497 494
f 494 497 495
f 495 497 500
f 495 500 499
f 495 499 498
f 496 504 497
f 497 504 502
f 497 502 501
f 497 501 500
f 502 504 503
