v 0.382892 0.0212191 -6.14666e-05
v 0.339745 0.0212191 -6.14666e-05
v 0.382728 0.00846336 -6.14666e-05
v 0.382728 0.00846336 -0.00849433
v 0.382879 0.0212191 -0.00849433
v 0.298725 0.0212191 -0.159895
v 0.254268 -0.337732 -0.159801
v 0.300689 -0.337732 -6.14666e-05
v 0.382501 2.98552e-05 -6.14666e-05
v 0.382262 -0.00850908 -0.00849433
v 0.380537 0.00846336 -0.0254383
v 0.380701 0.0212191 -0.0254383
v 0.345901 0.0212191 -0.159895
v 0.256044 -0.330669 -0.159895
v 0.279185 -0.337732 -0.159895
v 0.349414 -0.337732 -6.14666e-05
v 0.382262 -0.00850908 -6.14666e-05
v 0.381985 -0.0169075 -6.14666e-05
v 0.381696 -0.0254464 -0.00849433
v 0.380072 -0.00850908 -0.0254383
v 0.378309 0.00846336 -0.0423979
v 0.376785 0.0212191 -0.0551802
v 0.356893 0.0212191 -0.13336
v 0.36631 0.00846336 -0.110221
v 0.352259 0.00846336 -0.14414
v 0.345725 0.00846336 -0.159895
v 0.310006 -0.337732 -0.159895
v 0.350711 -0.330669 -6.14666e-05
v 0.349414 -0.337732 -0.00849433
v 0.381696 -0.0254464 -6.14666e-05
v 0.381117 -0.0424188 -0.00849433
v 0.379505 -0.0254464 -0.0254383
v 0.377843 -0.00850908 -0.0423979
v 0.372895 0.00846336 -0.0834983
v 0.374091 0.0212191 -0.0756287
v 0.359537 0.0212191 -0.126977
v 0.3457 0.00726862 -0.159895
v 0.366474 0.0212191 -0.110221
v 0.371271 0.00846336 -0.0932611
v 0.370792 -0.00850908 -0.0932611
v 0.365807 -0.00850908 -0.110221
v 0.345234 -0.00850908 -0.159895
v 0.321136 -0.337732 -0.13311
v 0.311152 -0.331864 -0.159895
v 0.321426 -0.334851 -0.133798
v 0.350711 -0.330669 -0.00849433
v 0.353493 -0.313697 -6.14666e-05
v 0.348142 -0.337732 -0.0183822
v 0.381117 -0.0424188 -6.14666e-05
v 0.380789 -0.0508172 -6.14666e-05
v 0.380449 -0.0593561 -0.00849433
v 0.378926 -0.0424188 -0.0254383
v 0.376697 -0.0424188 -0.0423979
v 0.372379 -0.0254464 -0.0795713
v 0.373776 -0.00850908 -0.0732663
v 0.372656 -0.00850908 -0.0817304
v 0.372971 0.0212191 -0.0840929
v 0.371435 0.0212191 -0.0932611
v 0.370201 -0.0254464 -0.0932611
v 0.344579 -0.0266411 -0.159895
v 0.369596 -0.0424188 -0.0932611
v 0.364573 -0.0424188 -0.110221
v 0.350535 -0.0424188 -0.14414
v 0.321917 -0.337732 -0.131217
v 0.311391 -0.330599 -0.159895
v 0.331939 -0.330669 -0.110221
v 0.330566 -0.337732 -0.110221
v 0.34852 -0.330669 -0.0254383
v 0.353493 -0.313697 -0.00849433
v 0.355495 -0.301433 -6.14666e-05
v 0.347223 -0.337732 -0.0254383
v 0.380449 -0.0593561 -6.14666e-05
v 0.379996 -0.0677896 -6.14666e-05
v 0.37953 -0.0763286 -0.00849433
v 0.378259 -0.0593561 -0.0254383
v 0.373059 -0.0508875 -0.0678373
v 0.372278 -0.0441055 -0.0754879
v 0.37156 -0.0593561 -0.0763171
v 0.344 -0.0424188 -0.159895
v 0.368916 -0.0593561 -0.0932611
v 0.363868 -0.0593561 -0.110221
v 0.34327 -0.0598481 -0.159895
v 0.314375 -0.313697 -0.159895
v 0.322433 -0.323571 -0.136239
v 0.324838 -0.329791 -0.127759
v 0.338423 -0.318019 -0.099441
v 0.337302 -0.330669 -0.0959051
v 0.335628 -0.312889 -0.108891
v 0.339405 -0.306704 -0.102367
v 0.336572 -0.337732 -0.0939651
v 0.340588 -0.337732 -0.0763171
v 0.346292 -0.330669 -0.0423979
v 0.351303 -0.313697 -0.0254383
v 0.355495 -0.301433 -0.00849433
v 0.359008 -0.279787 -6.14666e-05
v 0.37953 -0.0763286 -6.14666e-05
v 0.377339 -0.0763286 -0.0254383
v 0.377352 -0.110238 -0.00849433
v 0.37603 -0.0593561 -0.0423979
v 0.37399 -0.0593561 -0.0579181
v 0.370641 -0.0763286 -0.0763171
v 0.367947 -0.0763286 -0.0932611
v 0.362873 -0.0763286 -0.110221
v 0.357736 -0.0763286 -0.122627
v 0.3423 -0.0763286 -0.159895
v 0.317334 -0.296724 -0.159895
v 0.338246 -0.279787 -0.11651
v 0.339921 -0.330669 -0.0874253
v 0.339329 -0.337732 -0.0854227
v 0.338838 -0.337732 -0.0870342
v 0.346682 -0.279787 -0.0932611
v 0.341746 -0.279787 -0.10803
v 0.341822 -0.330669 -0.0763171
v 0.346846 -0.313697 -0.0593575
v 0.357031 -0.279295 -0.024437
v 0.356251 -0.289169 -0.0181006
v 0.359008 -0.279787 -0.00849433
v 0.361476 -0.262815 -6.14666e-05
v 0.377352 -0.110238 -6.14666e-05
v 0.375161 -0.110238 -0.0254383
v 0.375111 -0.0763286 -0.0423979
v 0.376785 -0.118672 -6.14666e-05
v 0.376206 -0.127211 -0.00849433
v 0.373978 -0.126754 -0.0260015
v 0.368463 -0.110238 -0.0763171
v 0.366826 -0.093301 -0.0932611
v 0.365693 -0.110238 -0.0932611
v 0.361702 -0.093301 -0.110221
v 0.34113 -0.093301 -0.159895
v 0.320053 -0.281052 -0.159895
v 0.32305 -0.276238 -0.154685
v 0.333827 -0.279787 -0.12718
v 0.339039 -0.27051 -0.118434
v 0.350119 -0.279787 -0.0763171
v 0.344604 -0.313697 -0.0763171
v 0.349238 -0.262815 -0.0932611
v 0.342691 -0.264044 -0.111754
v 0.355797 -0.200547 -0.100474
v 0.356427 -0.273286 -0.0363744
v 0.361476 -0.262815 -0.00849433
v 0.363666 -0.245877 -6.14666e-05
v 0.37321 -0.12078 -0.0350133
v 0.372832 -0.09808 -0.0490785
v 0.376206 -0.127211 -6.14666e-05
v 0.374481 -0.145554 -0.009965
v 0.37355 -0.140845 -0.0207134
v 0.372807 -0.132095 -0.032025
v 0.373197 -0.170924 -0.00103148
v 0.369559 -0.127211 -0.0593575
v 0.367317 -0.127211 -0.0763171
v 0.36451 -0.127211 -0.0932611
v 0.360531 -0.110238 -0.110221
v 0.339959 -0.110238 -0.159895
v 0.320154 -0.280455 -0.159895
v 0.321854 -0.269843 -0.159895
v 0.322924 -0.262815 -0.159895
v 0.323402 -0.259371 -0.159895
v 0.32519 -0.246475 -0.159895
v 0.33661 -0.264044 -0.126461
v 0.3318 -0.245877 -0.14414
v 0.345838 -0.245877 -0.110221
v 0.352587 -0.262815 -0.0763171
v 0.355684 -0.26805 -0.047686
v 0.355067 -0.211968 -0.097454
v 0.356376 -0.222545 -0.0859703
v 0.357799 -0.194925 -0.0941998
v 0.357056 -0.211968 -0.0889742
v 0.34818 -0.228905 -0.110221
v 0.350509 -0.211968 -0.110221
v 0.353103 -0.194925 -0.108938
v 0.356389 -0.189267 -0.102429
v 0.363049 -0.144148 -0.0932611
v 0.361375 -0.161085 -0.0932611
v 0.359285 -0.262815 -0.0254383
v 0.363666 -0.245877 -0.00849433
v 0.364762 -0.237338 -6.14666e-05
v 0.373197 -0.170924 -6.14666e-05
v 0.373021 -0.152125 -0.0165986
v 0.36592 -0.144148 -0.0763171
v 0.36801 -0.211968 -0.00849433
v 0.369924 -0.194995 -0.00849433
v 0.371787 -0.177144 -0.0074148
v 0.358706 -0.144148 -0.10803
v 0.358857 -0.126367 -0.111457
v 0.356213 -0.120183 -0.118966
v 0.338737 -0.127211 -0.159895
v 0.327607 -0.228905 -0.159895
v 0.329773 -0.213162 -0.159895
v 0.355646 -0.23386 -0.0813393
v 0.354866 -0.245526 -0.0759416
v 0.355671 -0.250973 -0.0645361
v 0.356414 -0.256771 -0.0532402
v 0.357119 -0.262569 -0.0421789
v 0.361035 -0.194995 -0.0763171
v 0.359121 -0.211968 -0.0763171
v 0.359688 -0.178023 -0.0932611
v 0.339808 -0.208313 -0.137256
v 0.340588 -0.194995 -0.139133
v 0.331989 -0.194995 -0.159895
v 0.333752 -0.178023 -0.159895
v 0.347299 -0.178023 -0.12718
v 0.357837 -0.161085 -0.105934
v 0.362672 -0.178023 -0.0763171
v 0.361476 -0.245877 -0.0254383
v 0.36801 -0.211968 -6.14666e-05
v 0.368765 -0.161085 -0.0423979
v 0.367733 -0.194995 -0.0254383
v 0.36937 -0.178023 -0.0254383
v 0.367141 -0.178023 -0.0423979
v 0.365819 -0.211968 -0.0254383
v 0.337226 -0.144148 -0.159895
v 0.355785 -0.131498 -0.117934
v 0.335653 -0.159504 -0.159895
v 0.329924 -0.212038 -0.159895
v 0.357056 -0.228483 -0.0759416
v 0.365504 -0.194995 -0.0423979
v 0.363591 -0.211968 -0.0423979
f 1 2 8
f 1 8 16
f 1 16 28
f 1 28 47
f 1 47 70
f 1 70 95
f 1 95 118
f 1 118 141
f 1 141 176
f 1 176 205
f 1 205 177
f 1 177 144
f 1 144 122
f 1 122 119
f 1 119 96
f 1 96 73
f 1 73 72
f 1 72 50
f 1 50 49
f 1 49 30
f 1 30 18
f 1 18 17
f 1 17 9
f 1 9 3
f 1 3 4
f 1 4 5
f 1 5 12
f 1 12 22
f 1 22 35
f 1 35 57
f 1 57 58
f 1 58 38
f 1 38 36
f 1 36 23
f 1 23 13
f 1 13 6
f 1 6 2
f 2 6 7
f 2 7 8
f 3 9 4
f 4 9 10
f 4 10 20
f 4 20 11
f 4 11 12
f 4 12 5
f 6 13 26
f 6 26 37
f 6 37 42
f 6 42 60
f 6 60 79
f 6 79 82
f 6 82 105
f 6 105 129
f 6 129 153
f 6 153 186
f 6 186 211
f 6 211 213
f 6 213 200
f 6 200 199
f 6 199 214
f 6 214 188
f 6 188 187
f 6 187 158
f 6 158 157
f 6 157 156
f 6 156 155
f 6 155 154
f 6 154 130
f 6 130 106
f 6 106 83
f 6 83 65
f 6 65 44
f 6 44 27
f 6 27 15
f 6 15 14
f 6 14 7
f 7 14 15
f 7 15 27
f 7 27 43
f 7 43 64
f 7 64 67
f 7 67 90
f 7 90 110
f 7 110 109
f 7 109 91
f 7 91 71
f 7 71 48
f 7 48 29
f 7 29 16
f 7 16 8
f 9 17 10
f 10 17 18
f 10 18 19
f 10 19 32
f 10 32 20
f 11 20 33
f 11 33 21
f 11 21 12
f 12 21 22
f 13 23 24
f 13 24 25
f 13 25 26
f 16 29 46
f 16 46 28
f 18 30 19
f 19 30 49
f 19 49 31
f 19 31 52
f 19 52 32
f 20 32 33
f 21 33 34
f 21 34 22
f 22 34 35
f 23 36 24
f 24 37 25
f 24 36 38
f 24 38 58
f 24 58 39
f 24 39 40
f 24 40 41
f 24 41 42
f 24 42 37
f 25 37 26
f 27 44 45
f 27 45 43
f 28 46 69
f 28 69 47
f 29 48 46
f 31 49 50
f 31 50 51
f 31 51 75
f 31 75 52
f 32 52 53
f 32 53 54
f 32 54 33
f 33 54 55
f 33 55 34
f 34 55 56
f 34 56 40
f 34 40 39
f 34 39 57
f 34 57 35
f 39 58 57
f 40 56 59
f 40 59 41
f 41 60 42
f 41 59 61
f 41 61 62
f 41 62 63
f 41 63 60
f 43 45 64
f 44 65 45
f 45 65 66
f 45 66 67
f 45 67 64
f 46 48 68
f 46 68 93
f 46 93 69
f 47 69 94
f 47 94 70
f 48 71 68
f 50 72 51
f 51 72 73
f 51 73 74
f 51 74 97
f 51 97 75
f 52 75 76
f 52 76 53
f 53 76 54
f 54 56 55
f 54 76 77
f 54 77 78
f 54 78 61
f 54 61 56
f 56 61 59
f 60 63 79
f 61 78 80
f 61 80 62
f 62 80 81
f 62 81 63
f 63 81 82
f 63 82 79
f 65 83 84
f 65 84 85
f 65 85 66
f 66 86 87
f 66 87 67
f 66 85 84
f 66 84 88
f 66 88 89
f 66 89 86
f 67 87 90
f 68 71 91
f 68 91 92
f 68 92 114
f 68 114 93
f 69 93 94
f 70 94 117
f 70 117 95
f 73 96 74
f 74 96 119
f 74 119 98
f 74 98 120
f 74 120 97
f 75 97 121
f 75 121 99
f 75 99 76
f 76 99 100
f 76 100 78
f 76 78 77
f 78 100 101
f 78 101 80
f 80 101 102
f 80 102 81
f 81 102 103
f 81 103 104
f 81 104 82
f 82 104 105
f 83 106 107
f 83 107 88
f 83 88 84
f 86 108 109
f 86 109 110
f 86 110 87
f 86 89 111
f 86 111 108
f 87 110 90
f 88 107 89
f 89 107 112
f 89 112 111
f 91 109 113
f 91 113 92
f 92 113 114
f 93 114 115
f 93 115 116
f 93 116 94
f 94 116 117
f 95 117 140
f 95 140 118
f 97 120 121
f 98 119 122
f 98 122 123
f 98 123 124
f 98 124 120
f 99 121 100
f 100 121 101
f 101 121 125
f 101 125 102
f 102 125 126
f 102 126 103
f 103 126 127
f 103 127 128
f 103 128 104
f 104 128 129
f 104 129 105
f 106 130 131
f 106 131 132
f 106 132 107
f 107 132 131
f 107 131 133
f 107 133 112
f 108 111 109
f 109 111 134
f 109 134 135
f 109 135 113
f 111 112 136
f 111 136 134
f 112 133 137
f 112 137 138
f 112 138 136
f 113 135 114
f 114 134 115
f 114 135 134
f 115 134 139
f 115 139 117
f 115 117 116
f 117 139 140
f 118 140 175
f 118 175 141
f 120 124 142
f 120 142 125
f 120 125 143
f 120 143 121
f 121 143 125
f 122 144 123
f 123 145 146
f 123 146 147
f 123 147 124
f 123 144 177
f 123 177 148
f 123 148 145
f 124 147 149
f 124 149 142
f 125 142 150
f 125 150 127
f 125 127 126
f 127 150 151
f 127 151 152
f 127 152 128
f 128 152 153
f 128 153 129
f 130 154 131
f 131 154 155
f 131 155 133
f 133 155 156
f 133 156 157
f 133 157 158
f 133 158 159
f 133 159 160
f 133 160 161
f 133 161 137
f 134 136 162
f 134 162 163
f 134 163 139
f 136 138 164
f 136 164 165
f 136 165 162
f 137 161 138
f 138 166 167
f 138 167 164
f 138 161 168
f 138 168 169
f 138 169 170
f 138 170 171
f 138 171 172
f 138 172 173
f 138 173 166
f 139 163 174
f 139 174 140
f 140 174 204
f 140 204 175
f 141 175 176
f 142 149 150
f 145 178 146
f 145 148 178
f 146 178 179
f 146 179 147
f 147 150 149
f 147 179 150
f 148 177 205
f 148 205 180
f 148 180 181
f 148 181 182
f 148 182 178
f 150 179 151
f 151 179 172
f 151 172 183
f 151 183 152
f 152 183 184
f 152 184 185
f 152 185 153
f 153 185 186
f 158 187 160
f 158 160 159
f 160 187 188
f 160 188 169
f 160 169 168
f 160 168 161
f 162 165 189
f 162 189 190
f 162 190 191
f 162 191 192
f 162 192 163
f 163 192 193
f 163 193 174
f 164 167 165
f 165 167 194
f 165 194 195
f 165 195 189
f 166 196 167
f 166 173 196
f 167 196 194
f 169 197 170
f 169 188 197
f 170 197 198
f 170 198 199
f 170 199 171
f 171 199 200
f 171 200 201
f 171 201 202
f 171 202 172
f 172 202 183
f 172 179 203
f 172 203 194
f 172 194 173
f 173 194 196
f 174 193 204
f 175 204 210
f 175 210 180
f 175 180 176
f 176 180 205
f 178 206 179
f 178 182 181
f 178 181 207
f 178 207 208
f 178 208 209
f 178 209 206
f 179 206 209
f 179 209 203
f 180 210 207
f 180 207 181
f 183 211 212
f 183 212 184
f 183 202 213
f 183 213 211
f 184 212 186
f 184 186 185
f 186 212 211
f 188 214 197
f 189 195 215
f 189 215 190
f 190 215 191
f 191 204 192
f 191 215 204
f 192 204 193
f 194 216 217
f 194 217 195
f 194 203 209
f 194 209 216
f 195 217 215
f 197 199 198
f 197 214 199
f 200 213 202
f 200 202 201
f 204 215 217
f 204 217 210
f 207 210 217
f 207 217 216
f 207 216 209
f 207 209 208
