v -0.0763145 0.85528 -0.245892
v -6.01652e-05 0.854222 -0.245892
v -6.01652e-05 0.854598 -0.254305
v -6.01652e-05 0.854974 -0.262844
v -0.00849824 0.854974 -0.262844
v -0.0254412 0.854278 -0.262844
v -0.0932798 0.854403 -0.245892
v -0.103633 0.854877 -0.235532
v -0.0866673 0.854835 -0.235532
v -6.01652e-05 0.851925 -0.240356
v -6.01652e-05 0.852705 -0.268877
v -0.00849824 0.850394 -0.274991
v -0.0254412 0.849851 -0.274008
v -0.0424064 0.853276 -0.262844
v -0.0932798 0.85006 -0.25793
v -0.127166 0.850659 -0.242394
v -0.127166 0.852816 -0.235532
v -0.120998 0.853596 -0.235532
v -0.0763145 0.851216 -0.261077
v -6.01652e-05 0.849921 -0.235532
v -6.01652e-05 0.850394 -0.274991
v -6.01652e-05 0.846858 -0.279202
v -0.00849824 0.843281 -0.283458
v -0.0424064 0.8491 -0.272899
v -0.060752 0.851313 -0.264477
v -0.104991 0.848849 -0.255712
v -0.0673199 0.847819 -0.271221
v -0.139255 0.849406 -0.239706
v -0.141459 0.850325 -0.235532
v -6.01652e-05 0.721213 -0.235532
v -6.01652e-05 0.843281 -0.283458
v -0.00849824 0.834803 -0.291402
v -0.0254412 0.842 -0.282475
v -0.0560097 0.848417 -0.272006
v -0.0763145 0.846538 -0.269562
v -0.0932798 0.843504 -0.266406
v -0.127166 0.844937 -0.25087
v -0.0763145 0.838061 -0.277849
v -0.0254412 0.833523 -0.290302
v -0.0424064 0.832117 -0.289193
v -0.0526924 0.83124 -0.288516
v -0.0639803 0.830029 -0.287723
v -0.145378 0.840135 -0.246695
v -0.150565 0.846747 -0.235676
v -0.150654 0.846775 -0.235532
v -6.01652e-05 0.713083 -0.288561
v -0.162543 0.713083 -0.235532
v -6.01652e-05 0.834803 -0.291402
v -0.00849824 0.822442 -0.299337
v -0.0932798 0.835026 -0.274982
v -0.127166 0.83646 -0.259463
v -0.140168 0.833523 -0.256623
v -0.0763145 0.827746 -0.286316
v -0.0254412 0.822442 -0.297137
v -0.0587482 0.823597 -0.292087
v -0.0763145 0.819268 -0.291321
v -0.151478 0.830001 -0.253683
v -0.161096 0.834845 -0.241636
v -0.161853 0.83955 -0.235532
v -0.150832 0.846677 -0.235532
v -6.01652e-05 0.713083 -0.327651
v -0.22751 0.713083 -0.235532
v -6.01652e-05 0.822442 -0.299337
v -6.01652e-05 0.817556 -0.301988
v -0.00849824 0.812586 -0.304684
v -0.104857 0.832465 -0.27261
v -0.143597 0.82201 -0.262718
v -0.116145 0.829179 -0.270211
v -0.127166 0.825407 -0.267939
v -0.0881813 0.816275 -0.289652
v -0.0936137 0.822136 -0.283854
v -0.0424064 0.822442 -0.2949
v -0.0593716 0.805487 -0.30068
v -0.0254412 0.809774 -0.303584
v -0.0763145 0.805487 -0.297732
v -0.156977 0.818697 -0.257506
v -0.162009 0.823583 -0.250374
v -0.170425 0.831629 -0.238074
v -0.172117 0.832743 -0.235532
v -0.168376 0.835304 -0.235532
v -6.01652e-05 0.720711 -0.326641
v -0.00849824 0.713083 -0.327651
v -0.226018 0.720711 -0.235532
v -0.222411 0.720711 -0.238958
v -0.223235 0.713083 -0.23958
v -6.01652e-05 0.812586 -0.304684
v -0.00849824 0.804109 -0.307903
v -0.135737 0.81402 -0.271357
v -0.110401 0.823082 -0.276343
v -0.0850643 0.78036 -0.305333
v -0.0936137 0.805863 -0.29215
v -0.0994914 0.811779 -0.287335
v -0.0390445 0.798889 -0.30591
v -0.0503547 0.7968 -0.305162
v -0.0593716 0.795047 -0.304576
v -0.0763145 0.791191 -0.303169
v -0.0254412 0.801297 -0.306803
v -0.148428 0.805487 -0.269436
v -0.152591 0.796995 -0.271321
v -0.162009 0.805988 -0.260653
v -0.168265 0.811988 -0.253376
v -0.186945 0.814424 -0.237732
v -0.180488 0.82453 -0.235532
v -0.183739 0.821008 -0.235532
v -0.00849824 0.720711 -0.326641
v -6.01652e-05 0.749429 -0.322826
v -0.0178269 0.713083 -0.326442
v -0.0254412 0.720711 -0.32445
v -0.223302 0.733797 -0.235532
v -0.221164 0.732251 -0.237975
v -0.210411 0.719667 -0.248372
v -0.211569 0.713083 -0.248561
v -6.01652e-05 0.804109 -0.307903
v -0.00849824 0.788518 -0.313413
v -0.139945 0.805487 -0.273106
v -0.0874243 0.771577 -0.306289
v -0.0958846 0.771577 -0.30279
v -0.133288 0.771577 -0.287299
v -0.144131 0.771577 -0.28279
v -0.121288 0.783033 -0.289337
v -0.145823 0.790216 -0.276578
v -0.116345 0.794323 -0.287299
v -0.0917435 0.787001 -0.300148
v -0.0763145 0.782713 -0.306118
v -0.0763145 0.771577 -0.308778
v -0.0763145 0.754622 -0.312231
v -0.105057 0.800476 -0.289643
v -0.0254412 0.788518 -0.311212
v -0.0593716 0.786569 -0.307407
v -0.15602 0.785692 -0.273349
v -0.16143 0.790216 -0.268002
v -0.171761 0.800684 -0.256064
v -0.177683 0.805988 -0.248985
v -0.195472 0.805487 -0.235532
v -0.188436 0.815885 -0.235532
v -0.00981182 0.739031 -0.323899
v -0.00502505 0.749429 -0.322826
v -0.0339683 0.729231 -0.322195
v -0.0254412 0.733045 -0.322754
v -6.01652e-05 0.771577 -0.318002
v -0.0254412 0.713083 -0.32545
v -0.0413822 0.713083 -0.323358
v -0.051735 0.713083 -0.321997
v -0.0452785 0.723607 -0.321456
v -0.221454 0.742553 -0.235532
v -0.202507 0.724623 -0.253611
v -0.219806 0.743555 -0.236929
v -0.213283 0.737806 -0.243007
v -0.172985 0.737666 -0.273954
v -0.174922 0.720711 -0.275432
v -0.180399 0.713083 -0.272484
v -6.01652e-05 0.788518 -0.313413
v -6.01652e-05 0.780124 -0.315694
v -0.00849824 0.771577 -0.318002
v -0.0932798 0.737666 -0.310482
v -0.0935247 0.75341 -0.307587
v -0.0993356 0.758269 -0.304233
v -0.0763145 0.737666 -0.315189
v -0.135559 0.762932 -0.288246
v -0.144086 0.756222 -0.286109
v -0.159248 0.771577 -0.275297
v -0.0593716 0.771577 -0.31133
v -0.0593716 0.754622 -0.31472
v -0.0254412 0.771577 -0.315793
v -0.167731 0.771577 -0.27004
v -0.175211 0.788518 -0.258697
v -0.20175 0.793863 -0.236082
v -0.201038 0.796216 -0.235532
v -0.0163352 0.745587 -0.322105
v -0.00981182 0.7549 -0.321158
v -0.0254412 0.741522 -0.32151
v -0.0577241 0.719055 -0.320419
v -0.0593716 0.737666 -0.317615
v -0.0599059 0.713083 -0.320915
v -0.220875 0.745142 -0.235532
v -0.218315 0.754622 -0.235532
v -0.218159 0.754622 -0.235667
v -0.171159 0.751225 -0.272556
v -0.161096 0.737666 -0.281294
v -0.161875 0.713083 -0.284918
v -0.170002 0.713083 -0.279878
v -0.175724 0.713083 -0.276055
v -0.0254412 0.754622 -0.319193
v -0.0932798 0.720711 -0.312998
v -0.103989 0.737666 -0.306154
v -0.102163 0.746965 -0.305405
v -0.138409 0.751629 -0.289418
v -0.0763145 0.720711 -0.317615
v -0.149875 0.737666 -0.287146
v -0.162655 0.755972 -0.276704
v -0.169356 0.762528 -0.271185
v -0.179531 0.77269 -0.260834
v -0.186188 0.77908 -0.254116
v -0.204845 0.78256 -0.238453
v -0.183694 0.788518 -0.252195
v -0.207361 0.784871 -0.235532
v -0.202641 0.793515 -0.235532
v -0.202106 0.79442 -0.235532
v -0.0756466 0.713083 -0.318742
v -0.218003 0.75568 -0.235532
v -0.198633 0.754622 -0.250653
v -0.177304 0.755972 -0.266695
v -0.151856 0.727003 -0.287966
v -0.160027 0.721101 -0.284594
v -0.153682 0.7157 -0.288769
v -0.154083 0.713083 -0.288958
v -0.0932798 0.713083 -0.314062
v -0.10085 0.713083 -0.311005
v -0.107061 0.720711 -0.307425
v -0.112471 0.737666 -0.302646
v -0.188058 0.767776 -0.25555
v -0.212838 0.771577 -0.235532
v -0.113651 0.713083 -0.305784
v -0.145378 0.721101 -0.291492
v -0.144799 0.713083 -0.292862
v -0.151589 0.713083 -0.290022
v -0.108909 0.713083 -0.307741
v -0.136561 0.713083 -0.29628
f 1 2 3
f 1 3 4
f 1 4 5
f 1 5 6
f 1 6 7
f 1 7 8
f 1 8 9
f 1 9 2
f 2 10 20
f 2 20 30
f 2 30 46
f 2 46 61
f 2 61 81
f 2 81 106
f 2 106 140
f 2 140 153
f 2 153 152
f 2 152 113
f 2 113 86
f 2 86 64
f 2 64 63
f 2 63 48
f 2 48 31
f 2 31 22
f 2 22 21
f 2 21 11
f 2 11 4
f 2 4 3
f 2 9 10
f 4 11 5
f 5 11 12
f 5 12 6
f 6 13 14
f 6 14 7
f 6 12 13
f 7 15 16
f 7 16 17
f 7 17 18
f 7 18 8
f 7 14 19
f 7 19 15
f 8 18 17
f 8 17 29
f 8 29 45
f 8 45 60
f 8 60 59
f 8 59 80
f 8 80 79
f 8 79 103
f 8 103 104
f 8 104 135
f 8 135 134
f 8 134 168
f 8 168 198
f 8 198 197
f 8 197 196
f 8 196 212
f 8 212 200
f 8 200 176
f 8 176 175
f 8 175 145
f 8 145 109
f 8 109 83
f 8 83 62
f 8 62 47
f 8 47 30
f 8 30 20
f 8 20 9
f 9 20 10
f 11 21 12
f 12 21 22
f 12 22 23
f 12 23 13
f 13 24 25
f 13 25 14
f 13 23 24
f 14 25 19
f 15 26 16
f 15 19 27
f 15 27 26
f 16 28 17
f 16 26 28
f 17 28 29
f 19 25 27
f 22 31 23
f 23 31 48
f 23 48 32
f 23 32 33
f 23 33 27
f 23 27 34
f 23 34 24
f 24 34 25
f 25 34 27
f 26 27 35
f 26 35 36
f 26 36 37
f 26 37 28
f 27 38 35
f 27 33 39
f 27 39 40
f 27 40 41
f 27 41 42
f 27 42 38
f 28 37 43
f 28 43 44
f 28 44 45
f 28 45 29
f 30 47 46
f 32 48 63
f 32 63 49
f 32 49 39
f 32 39 33
f 35 38 50
f 35 50 36
f 36 50 51
f 36 51 37
f 37 51 52
f 37 52 43
f 38 42 53
f 38 53 50
f 39 49 40
f 40 49 41
f 41 49 54
f 41 54 42
f 42 54 55
f 42 55 56
f 42 56 53
f 43 52 57
f 43 57 58
f 43 58 44
f 44 58 59
f 44 59 60
f 44 60 45
f 46 47 62
f 46 62 85
f 46 85 112
f 46 112 151
f 46 151 182
f 46 182 181
f 46 181 180
f 46 180 206
f 46 206 216
f 46 216 215
f 46 215 218
f 46 218 213
f 46 213 217
f 46 217 208
f 46 208 207
f 46 207 199
f 46 199 174
f 46 174 143
f 46 143 142
f 46 142 141
f 46 141 107
f 46 107 82
f 46 82 61
f 49 63 64
f 49 64 65
f 49 65 54
f 50 66 51
f 50 53 66
f 51 66 52
f 52 67 57
f 52 66 68
f 52 68 69
f 52 69 67
f 53 56 70
f 53 70 71
f 53 71 66
f 54 72 55
f 54 65 72
f 55 73 56
f 55 72 65
f 55 65 74
f 55 74 73
f 56 73 75
f 56 75 70
f 57 76 77
f 57 77 78
f 57 78 58
f 57 67 76
f 58 78 79
f 58 79 80
f 58 80 59
f 61 82 105
f 61 105 81
f 62 83 84
f 62 84 85
f 64 86 65
f 65 86 113
f 65 113 87
f 65 87 97
f 65 97 74
f 66 71 68
f 67 69 88
f 67 88 76
f 68 71 89
f 68 89 69
f 69 89 88
f 70 90 91
f 70 91 92
f 70 92 88
f 70 88 89
f 70 89 71
f 70 75 90
f 73 74 93
f 73 93 94
f 73 94 95
f 73 95 96
f 73 96 75
f 74 97 93
f 75 96 90
f 76 88 98
f 76 98 99
f 76 99 100
f 76 100 101
f 76 101 102
f 76 102 77
f 77 103 78
f 77 102 104
f 77 104 103
f 78 103 79
f 81 105 137
f 81 137 106
f 82 107 108
f 82 108 105
f 83 109 110
f 83 110 84
f 84 110 111
f 84 111 85
f 85 111 112
f 87 113 152
f 87 152 114
f 87 114 97
f 88 115 99
f 88 99 98
f 88 92 115
f 90 116 117
f 90 117 118
f 90 118 119
f 90 119 120
f 90 120 121
f 90 121 99
f 90 99 122
f 90 122 123
f 90 123 91
f 90 96 124
f 90 124 125
f 90 125 126
f 90 126 116
f 91 123 127
f 91 127 92
f 92 127 115
f 93 97 114
f 93 114 94
f 94 114 128
f 94 128 95
f 95 128 129
f 95 129 124
f 95 124 96
f 99 130 131
f 99 131 132
f 99 132 100
f 99 115 127
f 99 127 122
f 99 121 130
f 100 132 101
f 101 132 133
f 101 133 134
f 101 134 102
f 102 134 135
f 102 135 104
f 105 136 137
f 105 108 138
f 105 138 139
f 105 139 136
f 106 137 154
f 106 154 140
f 107 141 108
f 108 141 142
f 108 142 143
f 108 143 144
f 108 144 138
f 109 145 110
f 110 146 111
f 110 145 147
f 110 147 148
f 110 148 149
f 110 149 146
f 111 146 150
f 111 150 151
f 111 151 112
f 114 152 153
f 114 153 154
f 114 154 129
f 114 129 128
f 116 155 156
f 116 156 157
f 116 157 117
f 116 126 158
f 116 158 155
f 117 157 159
f 117 159 118
f 118 159 119
f 119 160 161
f 119 161 130
f 119 130 121
f 119 121 120
f 119 159 160
f 122 127 123
f 124 129 162
f 124 162 125
f 125 162 126
f 126 162 163
f 126 163 158
f 129 154 164
f 129 164 162
f 130 161 165
f 130 165 131
f 131 165 166
f 131 166 132
f 132 166 167
f 132 167 134
f 132 134 133
f 134 167 168
f 136 139 169
f 136 169 137
f 137 169 170
f 137 170 154
f 138 171 139
f 138 144 172
f 138 172 173
f 138 173 171
f 139 171 169
f 140 154 153
f 143 174 172
f 143 172 144
f 145 175 147
f 146 149 150
f 147 175 176
f 147 176 177
f 147 177 178
f 147 178 149
f 147 149 148
f 149 178 179
f 149 179 180
f 149 180 181
f 149 181 150
f 150 181 182
f 150 182 151
f 154 170 183
f 154 183 164
f 155 184 185
f 155 185 186
f 155 186 156
f 155 158 184
f 156 186 157
f 157 186 187
f 157 187 160
f 157 160 159
f 158 163 173
f 158 173 188
f 158 188 184
f 160 187 189
f 160 189 161
f 161 189 179
f 161 179 190
f 161 190 191
f 161 191 165
f 162 164 183
f 162 183 163
f 163 183 169
f 163 169 173
f 165 191 192
f 165 192 193
f 165 193 166
f 166 193 194
f 166 194 195
f 166 195 167
f 167 195 194
f 167 194 196
f 167 196 197
f 167 197 198
f 167 198 168
f 169 171 173
f 169 183 170
f 172 174 199
f 172 199 188
f 172 188 173
f 176 200 177
f 177 200 201
f 177 201 178
f 178 202 191
f 178 191 190
f 178 190 179
f 178 201 202
f 179 189 203
f 179 203 204
f 179 204 180
f 180 204 203
f 180 203 205
f 180 205 206
f 184 207 208
f 184 208 209
f 184 209 185
f 184 188 207
f 185 209 203
f 185 203 210
f 185 210 186
f 186 210 189
f 186 189 187
f 188 199 207
f 189 210 203
f 191 202 211
f 191 211 192
f 192 211 193
f 193 211 212
f 193 212 194
f 194 212 196
f 200 212 211
f 200 211 202
f 200 202 201
f 203 209 213
f 203 213 214
f 203 214 215
f 203 215 216
f 203 216 205
f 205 216 206
f 208 217 209
f 209 217 213
f 213 218 214
f 214 218 215
