v -0.251065 0.852742 0.0891046
v -0.251065 0.853885 0.0763079
v -0.261084 0.851205 0.0763079
v -0.258697 0.850353 0.0891046
v -0.251065 0.749961 0.0891046
v -0.262852 0.853262 0.042396
v -0.251065 0.854446 0.0254445
v -0.262852 0.854965 0.00848414
v -0.262852 0.854279 0.0254445
v -0.264477 0.851309 0.0607268
v -0.271221 0.847798 0.0673084
v -0.260774 0.84919 0.0891046
v -0.251065 0.749732 0.00848414
v -0.278241 0.642776 0.0891046
v -0.27401 0.849834 0.0254445
v -0.251065 0.854446 -5.2752e-05
v -0.254307 0.854591 -5.2752e-05
v -0.262852 0.854965 -5.2752e-05
v -0.268875 0.852701 -5.2752e-05
v -0.27499 0.850395 0.00848414
v -0.272896 0.849086 0.042396
v -0.272 0.848422 0.0560045
v -0.283468 0.84327 0.00848414
v -0.282488 0.841982 0.0254445
v -0.290312 0.833507 0.0254445
v -0.289198 0.832115 0.042396
v -0.279866 0.839531 0.0599848
v -0.287732 0.830017 0.063974
v -0.277847 0.838056 0.0763079
v -0.269562 0.846531 0.0763079
v -0.267175 0.844246 0.0891046
v -0.251065 0.749732 -5.2752e-05
v -0.324692 0.642776 0.0891046
v -0.293127 0.642776 -5.2752e-05
v -0.27499 0.850395 -5.2752e-05
v -0.283468 0.84327 -5.2752e-05
v -0.287414 0.839074 -5.2752e-05
v -0.29141 0.834795 0.00848414
v -0.299334 0.822435 0.00848414
v -0.28852 0.831243 0.05267
v -0.292097 0.823599 0.0587279
v -0.291326 0.819257 0.0763079
v -0.286325 0.827732 0.0763079
v -0.275686 0.835771 0.0891046
v -0.273658 0.837849 0.0891046
v -0.326585 0.642776 0.0814842
v -0.323762 0.65285 0.0891046
v -0.336646 0.642776 -5.2752e-05
v -0.29141 0.834795 -5.2752e-05
v -0.299334 0.822435 -5.2752e-05
v -0.304687 0.812589 0.00848414
v -0.29714 0.822435 0.0254445
v -0.294903 0.822435 0.042396
v -0.303582 0.809764 0.0254445
v -0.300675 0.805485 0.0593476
v -0.297734 0.805485 0.0763079
v -0.289667 0.816266 0.0881793
v -0.28867 0.817284 0.0891046
v -0.284507 0.823578 0.0891046
v -0.277763 0.833237 0.0891046
v -0.322891 0.666851 0.0867041
v -0.32217 0.678151 0.0846266
v -0.327674 0.642776 0.0763079
v -0.321718 0.668679 0.0891046
v -0.336646 0.642776 0.00785566
v -0.333212 0.669842 -5.2752e-05
v -0.304687 0.812589 -5.2752e-05
v -0.307904 0.804114 0.00848414
v -0.306807 0.801289 0.0254445
v -0.30591 0.79888 0.0390441
v -0.305165 0.796802 0.0503481
v -0.30457 0.795037 0.0593476
v -0.303163 0.791173 0.0763079
v -0.305332 0.78033 0.0850456
v -0.290094 0.81448 0.0891046
v -0.320956 0.674433 0.0891046
v -0.328788 0.669842 0.042396
v -0.323905 0.671442 0.0779053
v -0.326443 0.652871 0.0763079
v -0.319842 0.682638 0.0891046
v -0.311632 0.737664 0.0891046
v -0.315192 0.737664 0.0763079
v -0.317622 0.720714 0.0763079
v -0.320361 0.702081 0.0746407
v -0.322196 0.69533 0.0678758
v -0.32274 0.686792 0.0719871
v -0.329006 0.642776 0.0662086
v -0.334368 0.642776 0.0254445
v -0.333136 0.652871 0.0254445
v -0.335331 0.652871 0.00848414
v -0.333212 0.669842 0.00848414
v -0.331059 0.686792 -5.2752e-05
v -0.307904 0.804114 -5.2752e-05
v -0.313416 0.788514 0.00848414
v -0.311213 0.788514 0.0254445
v -0.307402 0.786562 0.0593476
v -0.30612 0.782698 0.0763079
v -0.308775 0.771564 0.0763079
v -0.312235 0.754614 0.0763079
v -0.306287 0.771564 0.0874024
v -0.305584 0.771564 0.0891046
v -0.302174 0.784401 0.0891046
v -0.293604 0.805755 0.0891046
v -0.328872 0.686792 0.0254445
v -0.331017 0.669842 0.0254445
v -0.330908 0.652871 0.042396
v -0.333471 0.642776 0.0323054
v -0.306648 0.766475 0.0891046
v -0.317613 0.737664 0.0593476
v -0.314723 0.754614 0.0593476
v -0.32042 0.719052 0.0576979
v -0.321458 0.70663 0.0622544
v -0.326686 0.703763 0.0254445
v -0.331059 0.686792 0.00848414
v -0.329978 0.695205 -5.2752e-05
v -0.313416 0.788514 -5.2752e-05
v -0.317999 0.771564 0.00848414
v -0.315795 0.771564 0.0254445
v -0.31133 0.771564 0.0593476
v -0.320311 0.736002 0.0407288
v -0.322196 0.72923 0.0339639
v -0.322112 0.745599 0.0163227
v -0.31696 0.754614 0.042396
v -0.322656 0.719052 0.0407288
v -0.322204 0.712301 0.0509417
v -0.324449 0.720714 0.0254445
v -0.326644 0.720714 0.00848414
v -0.328872 0.703763 0.00848414
v -0.328872 0.703763 -5.2752e-05
v -0.317999 0.771564 -5.2752e-05
v -0.321165 0.754884 0.00979348
v -0.319188 0.754614 0.0254445
v -0.322824 0.749421 0.00501876
v -0.322757 0.733052 0.0254445
v -0.323905 0.739035 0.00979348
v -0.326644 0.720714 -5.2752e-05
v -0.327766 0.712176 -5.2752e-05
v -0.322824 0.749421 -5.2752e-05
f 1 2 3
f 1 3 4
f 1 4 12
f 1 12 31
f 1 31 45
f 1 45 44
f 1 44 60
f 1 60 59
f 1 59 58
f 1 58 75
f 1 75 103
f 1 103 102
f 1 102 101
f 1 101 108
f 1 108 81
f 1 81 80
f 1 80 76
f 1 76 64
f 1 64 47
f 1 47 33
f 1 33 14
f 1 14 5
f 1 5 13
f 1 13 32
f 1 32 16
f 1 16 7
f 1 7 2
f 2 6 3
f 2 7 8
f 2 8 9
f 2 9 6
f 3 10 11
f 3 11 4
f 3 6 10
f 4 11 12
f 5 14 13
f 6 9 15
f 6 15 10
f 7 16 17
f 7 17 8
f 8 17 18
f 8 18 19
f 8 19 20
f 8 20 9
f 9 20 15
f 10 15 21
f 10 21 22
f 10 22 11
f 11 22 23
f 11 23 24
f 11 24 25
f 11 25 26
f 11 26 27
f 11 27 28
f 11 28 29
f 11 29 30
f 11 30 12
f 12 30 31
f 13 14 32
f 14 33 46
f 14 46 63
f 14 63 87
f 14 87 107
f 14 107 88
f 14 88 65
f 14 65 48
f 14 48 34
f 14 34 32
f 15 20 23
f 15 23 21
f 16 32 34
f 16 34 48
f 16 48 66
f 16 66 92
f 16 92 115
f 16 115 129
f 16 129 137
f 16 137 136
f 16 136 138
f 16 138 130
f 16 130 116
f 16 116 93
f 16 93 67
f 16 67 50
f 16 50 49
f 16 49 37
f 16 37 36
f 16 36 35
f 16 35 19
f 16 19 18
f 16 18 17
f 19 35 20
f 20 35 36
f 20 36 23
f 21 23 22
f 23 36 37
f 23 37 38
f 23 38 24
f 24 38 25
f 25 38 39
f 25 39 26
f 26 39 40
f 26 40 27
f 27 40 28
f 28 41 42
f 28 42 43
f 28 43 29
f 28 40 41
f 29 43 44
f 29 44 45
f 29 45 30
f 30 45 31
f 33 47 46
f 37 49 38
f 38 49 50
f 38 50 39
f 39 50 67
f 39 67 51
f 39 51 52
f 39 52 40
f 40 52 41
f 41 52 53
f 41 53 51
f 41 51 54
f 41 54 55
f 41 55 42
f 42 56 57
f 42 57 43
f 42 55 56
f 43 57 58
f 43 58 59
f 43 59 60
f 43 60 44
f 46 47 61
f 46 61 62
f 46 62 63
f 47 64 61
f 48 65 91
f 48 91 66
f 51 53 52
f 51 67 93
f 51 93 68
f 51 68 69
f 51 69 54
f 54 69 70
f 54 70 55
f 55 70 71
f 55 71 72
f 55 72 73
f 55 73 56
f 56 73 74
f 56 74 57
f 57 75 58
f 57 74 75
f 61 64 76
f 61 76 62
f 62 77 78
f 62 78 79
f 62 79 63
f 62 76 80
f 62 80 81
f 62 81 82
f 62 82 83
f 62 83 84
f 62 84 85
f 62 85 86
f 62 86 77
f 63 79 87
f 65 88 89
f 65 89 90
f 65 90 91
f 66 91 114
f 66 114 92
f 68 93 116
f 68 116 94
f 68 94 69
f 69 94 70
f 70 94 71
f 71 94 95
f 71 95 72
f 72 95 96
f 72 96 97
f 72 97 73
f 73 97 74
f 74 97 98
f 74 98 99
f 74 99 100
f 74 100 101
f 74 101 102
f 74 102 103
f 74 103 75
f 77 86 104
f 77 104 105
f 77 105 89
f 77 89 106
f 77 106 79
f 77 79 78
f 79 106 107
f 79 107 87
f 81 108 100
f 81 100 82
f 82 109 83
f 82 100 99
f 82 99 110
f 82 110 109
f 83 109 111
f 83 111 84
f 84 111 112
f 84 112 85
f 85 112 113
f 85 113 104
f 85 104 86
f 88 107 89
f 89 107 106
f 89 105 91
f 89 91 90
f 91 105 104
f 91 104 114
f 92 114 115
f 94 96 95
f 94 116 130
f 94 130 117
f 94 117 96
f 96 117 118
f 96 118 119
f 96 119 97
f 97 119 98
f 98 119 99
f 99 119 110
f 100 108 101
f 104 113 128
f 104 128 114
f 109 120 121
f 109 121 111
f 109 110 122
f 109 122 120
f 110 123 122
f 110 119 123
f 111 121 124
f 111 124 125
f 111 125 112
f 112 125 113
f 113 125 126
f 113 126 127
f 113 127 128
f 114 128 115
f 115 128 129
f 117 131 132
f 117 132 118
f 117 130 138
f 117 138 133
f 117 133 131
f 118 132 123
f 118 123 119
f 120 134 121
f 120 122 134
f 121 134 127
f 121 127 126
f 121 126 124
f 122 123 132
f 122 132 131
f 122 131 133
f 122 133 135
f 122 135 134
f 124 126 125
f 127 134 135
f 127 135 133
f 127 133 138
f 127 138 136
f 127 136 137
f 127 137 128
f 128 137 129
