v -6.01652e-05 -0.85721 -0.0947183
v -6.01652e-05 -0.85721 -6.14666e-05
v -6.01652e-05 -0.833532 -0.0947183
v 0.0579075 -0.85721 -0.0947183
v -6.01652e-05 -0.838557 -6.14666e-05
v 0.110214 -0.85721 -6.14666e-05
v -6.01652e-05 -0.833532 -0.0902801
v 0.122891 -0.833532 -0.0947183
v 0.074861 -0.857138 -0.0947183
v 0.076322 -0.857173 -0.0932636
v 0.076322 -0.85721 -0.0763077
v 0.0902774 -0.833532 -6.14666e-05
v 0.110214 -0.85721 -0.0423958
v 0.11863 -0.85676 -6.14666e-05
v 0.124017 -0.833532 -0.0932636
v 0.1221 -0.834394 -0.0947183
v 0.0919971 -0.85498 -0.0947183
v 0.0932603 -0.855145 -0.0932636
v 0.0932603 -0.857173 -0.0763077
v 0.155413 -0.833532 -6.14666e-05
v 0.110214 -0.856767 -0.0593517
v 0.127167 -0.856304 -0.00848385
v 0.127167 -0.856304 -6.14666e-05
v 0.122663 -0.83496 -0.0932636
v 0.132585 -0.833532 -0.0815057
v 0.114247 -0.843439 -0.0932636
v 0.113623 -0.842811 -0.0947183
v 0.0932603 -0.854607 -0.0947183
v 0.104324 -0.850516 -0.0947183
v 0.10577 -0.850516 -0.0932636
v 0.111447 -0.853096 -0.0773732
v 0.155033 -0.83404 -6.14666e-05
v 0.155413 -0.833532 -0.000422824
v 0.124885 -0.852103 -0.0593517
v 0.127167 -0.855532 -0.0254398
v 0.139829 -0.851642 -0.00848385
v 0.133453 -0.85399 -6.14666e-05
v 0.117914 -0.84711 -0.0837479
v 0.128248 -0.840305 -0.0779014
v 0.137759 -0.833532 -0.0720919
v 0.105207 -0.850166 -0.0947183
v 0.121689 -0.850402 -0.0724439
v 0.148306 -0.842516 -6.14666e-05
v 0.155033 -0.83404 -0.00848385
v 0.155398 -0.833532 -0.00850238
v 0.128644 -0.852634 -0.043591
v 0.137333 -0.849584 -0.0387266
v 0.138733 -0.85087 -0.0254398
v 0.144106 -0.847046 -6.14666e-05
v 0.139829 -0.851642 -6.14666e-05
v 0.148306 -0.842516 -0.00848385
v 0.137836 -0.833532 -0.0719251
v 0.133377 -0.8453 -0.0593517
v 0.135264 -0.847518 -0.0500213
v 0.154637 -0.833532 -0.0145991
v 0.14721 -0.841109 -0.0254398
v 0.153222 -0.833532 -0.0254398
v 0.144395 -0.839554 -0.0428776
v 0.150984 -0.833532 -0.0374665
v 0.143345 -0.833532 -0.0593517
v 0.140636 -0.836821 -0.0593517
v 0.14861 -0.833532 -0.0453607
f 1 2 5
f 1 5 7
f 1 7 3
f 1 3 8
f 1 8 16
f 1 16 27
f 1 27 41
f 1 41 29
f 1 29 28
f 1 28 17
f 1 17 9
f 1 9 4
f 1 4 11
f 1 11 13
f 1 13 6
f 1 6 2
f 2 6 14
f 2 14 23
f 2 23 37
f 2 37 50
f 2 50 49
f 2 49 43
f 2 43 32
f 2 32 20
f 2 20 12
f 2 12 5
f 3 7 12
f 3 12 20
f 3 20 33
f 3 33 45
f 3 45 55
f 3 55 57
f 3 57 59
f 3 59 62
f 3 62 60
f 3 60 52
f 3 52 40
f 3 40 25
f 3 25 15
f 3 15 8
f 4 9 10
f 4 10 11
f 5 12 7
f 6 13 14
f 8 15 16
f 9 17 18
f 9 18 10
f 10 18 19
f 10 19 13
f 10 13 11
f 13 21 22
f 13 22 14
f 13 19 21
f 14 22 23
f 15 24 16
f 15 25 24
f 16 24 26
f 16 26 27
f 17 28 18
f 18 28 29
f 18 29 30
f 18 30 31
f 18 31 21
f 18 21 19
f 20 32 44
f 20 44 33
f 21 31 34
f 21 34 35
f 21 35 22
f 22 35 36
f 22 36 37
f 22 37 23
f 24 25 38
f 24 38 26
f 25 39 38
f 25 40 39
f 26 38 41
f 26 41 27
f 29 41 30
f 30 41 42
f 30 42 31
f 31 42 34
f 32 43 51
f 32 51 44
f 33 44 45
f 34 46 35
f 34 42 47
f 34 47 48
f 34 48 46
f 35 46 48
f 35 48 36
f 36 49 50
f 36 50 37
f 36 48 51
f 36 51 49
f 38 39 42
f 38 42 41
f 39 40 42
f 40 52 53
f 40 53 42
f 42 53 54
f 42 54 47
f 43 49 51
f 44 55 45
f 44 51 56
f 44 56 57
f 44 57 55
f 47 54 58
f 47 58 59
f 47 59 56
f 47 56 48
f 48 56 51
f 52 60 61
f 52 61 53
f 53 61 54
f 54 61 62
f 54 62 58
f 56 59 57
f 58 62 59
f 60 62 61
