v -0.244359 0.642797 0.231439
v -0.177354 0.642797 0.231439
v -0.242916 0.642797 0.233253
v -0.237198 0.660335 0.237204
v -0.242765 0.653357 0.231439
v -0.145053 0.642797 0.254229
v -0.115119 0.750699 0.231439
v -0.238602 0.642797 0.238612
v -0.238121 0.649029 0.23813
v -0.227734 0.669839 0.243054
v -0.225988 0.686798 0.241711
v -0.224229 0.703757 0.240345
v -0.22242 0.720716 0.238951
v -0.221168 0.732249 0.237969
v -0.236223 0.669839 0.236227
v -0.237059 0.686798 0.231439
v -0.24007 0.669839 0.231439
v -0.242537 0.654848 0.231439
v -0.22867 0.642797 0.246545
v -0.230492 0.653957 0.243415
v -0.2187 0.642797 0.254229
v -0.115119 0.733926 0.254229
v -0.115119 0.854315 0.231439
v -0.216752 0.669839 0.251534
v -0.215006 0.686798 0.250188
v -0.213222 0.703757 0.248823
v -0.210413 0.71968 0.248363
v -0.202506 0.724629 0.253611
v -0.198685 0.737674 0.254229
v -0.201 0.737674 0.252453
v -0.219814 0.743555 0.23693
v -0.232706 0.703757 0.232711
v -0.234478 0.686798 0.23448
v -0.233845 0.703757 0.231439
v -0.219485 0.642797 0.253629
v -0.218473 0.652881 0.252857
v -0.216689 0.652881 0.254229
v -0.115119 0.846322 0.254229
v -0.127189 0.854087 0.231439
v -0.115119 0.851188 0.245575
v -0.213235 0.669839 0.254229
v -0.211413 0.678702 0.254229
v -0.215778 0.657374 0.254229
v -0.20973 0.686798 0.254229
v -0.206175 0.703757 0.254229
v -0.204062 0.713655 0.254229
v -0.203316 0.717133 0.254229
v -0.20181 0.724091 0.254229
v -0.201342 0.726141 0.254229
v -0.193979 0.754612 0.254229
v -0.226241 0.739621 0.231439
v -0.230176 0.721565 0.231439
v -0.198647 0.754612 0.250648
v -0.218169 0.754612 0.235665
v -0.222661 0.754612 0.231439
v -0.231428 0.715725 0.231439
v -0.115119 0.847192 0.253332
v -0.115612 0.846136 0.254229
v -0.13001 0.853611 0.231439
v -0.127189 0.85067 0.242391
v -0.190891 0.764241 0.254229
v -0.189411 0.768838 0.254229
v -0.215424 0.771571 0.233543
v -0.217815 0.771571 0.231439
v -0.139271 0.849407 0.239707
v -0.116295 0.847005 0.253057
v -0.127189 0.844935 0.250869
v -0.127189 0.841622 0.254229
v -0.143636 0.851229 0.231439
v -0.186349 0.778114 0.254229
v -0.186198 0.779067 0.254108
v -0.206947 0.771571 0.24006
v -0.204847 0.782546 0.238451
v -0.210894 0.788136 0.231439
v -0.213981 0.780868 0.231439
v -0.150582 0.846736 0.235674
v -0.145382 0.840131 0.246692
v -0.141448 0.835099 0.254229
v -0.134793 0.838246 0.254229
v -0.146432 0.850132 0.231439
v -0.186071 0.778943 0.254229
v -0.185907 0.779315 0.254229
v -0.181036 0.78853 0.254229
v -0.183692 0.78853 0.25219
v -0.201747 0.793851 0.23608
v -0.209338 0.790973 0.231439
v -0.158945 0.844935 0.231439
v -0.161109 0.83483 0.241633
v -0.151506 0.829985 0.25368
v -0.14938 0.830647 0.254229
v -0.177417 0.794928 0.254229
v -0.173318 0.802051 0.254229
v -0.200785 0.805489 0.231439
v -0.162387 0.842698 0.231439
v -0.174874 0.83454 0.231439
v -0.170446 0.83162 0.238072
v -0.162032 0.823586 0.250367
v -0.15229 0.828369 0.254229
v -0.151025 0.829508 0.254229
v -0.198255 0.805489 0.233392
v -0.169408 0.808367 0.254229
v -0.168295 0.81199 0.253374
v -0.186944 0.814413 0.237726
v -0.191258 0.818637 0.231439
v -0.186438 0.823855 0.231439
v -0.181744 0.825719 0.233735
v -0.176886 0.821019 0.240794
v -0.159299 0.820936 0.254229
v -0.167561 0.811266 0.254229
v -0.165942 0.813378 0.254229
f 1 2 6
f 1 6 21
f 1 21 35
f 1 35 19
f 1 19 8
f 1 8 3
f 1 3 4
f 1 4 5
f 1 5 18
f 1 18 17
f 1 17 16
f 1 16 34
f 1 34 56
f 1 56 52
f 1 52 51
f 1 51 55
f 1 55 64
f 1 64 75
f 1 75 74
f 1 74 86
f 1 86 93
f 1 93 104
f 1 104 105
f 1 105 95
f 1 95 94
f 1 94 87
f 1 87 80
f 1 80 69
f 1 69 59
f 1 59 39
f 1 39 23
f 1 23 7
f 1 7 2
f 2 7 6
f 3 8 9
f 3 9 4
f 4 10 11
f 4 11 12
f 4 12 13
f 4 13 14
f 4 14 15
f 4 15 16
f 4 16 17
f 4 17 18
f 4 18 5
f 4 9 19
f 4 19 20
f 4 20 10
f 6 7 22
f 6 22 38
f 6 38 58
f 6 58 68
f 6 68 79
f 6 79 78
f 6 78 90
f 6 90 99
f 6 99 98
f 6 98 108
f 6 108 110
f 6 110 109
f 6 109 101
f 6 101 92
f 6 92 91
f 6 91 83
f 6 83 82
f 6 82 81
f 6 81 70
f 6 70 62
f 6 62 61
f 6 61 50
f 6 50 29
f 6 29 49
f 6 49 48
f 6 48 47
f 6 47 46
f 6 46 45
f 6 45 44
f 6 44 42
f 6 42 41
f 6 41 43
f 6 43 37
f 6 37 21
f 7 23 40
f 7 40 57
f 7 57 38
f 7 38 22
f 8 19 9
f 10 20 24
f 10 24 11
f 11 24 25
f 11 25 12
f 12 26 13
f 12 25 26
f 13 26 27
f 13 27 14
f 14 28 29
f 14 29 30
f 14 30 31
f 14 31 32
f 14 32 33
f 14 33 15
f 14 27 28
f 15 33 34
f 15 34 16
f 19 35 36
f 19 36 20
f 20 36 24
f 21 37 35
f 23 39 40
f 24 41 42
f 24 42 25
f 24 36 43
f 24 43 41
f 25 42 44
f 25 44 45
f 25 45 26
f 26 45 46
f 26 46 27
f 27 46 47
f 27 47 28
f 28 48 49
f 28 49 29
f 28 47 48
f 29 31 30
f 29 50 31
f 31 51 52
f 31 52 32
f 31 50 53
f 31 53 54
f 31 54 55
f 31 55 51
f 32 56 34
f 32 34 33
f 32 52 56
f 35 37 36
f 36 37 43
f 38 57 58
f 39 59 60
f 39 60 40
f 40 60 57
f 50 61 53
f 53 61 54
f 54 61 62
f 54 62 63
f 54 63 64
f 54 64 55
f 57 65 66
f 57 66 58
f 57 60 65
f 58 66 67
f 58 67 68
f 59 69 65
f 59 65 60
f 62 70 71
f 62 71 72
f 62 72 63
f 63 72 71
f 63 71 73
f 63 73 74
f 63 74 75
f 63 75 64
f 65 69 76
f 65 76 77
f 65 77 67
f 65 67 66
f 67 77 78
f 67 78 79
f 67 79 68
f 69 80 76
f 70 81 71
f 71 81 82
f 71 82 83
f 71 83 73
f 73 83 84
f 73 84 85
f 73 85 74
f 74 85 86
f 76 80 87
f 76 87 88
f 76 88 77
f 77 88 89
f 77 89 78
f 78 89 90
f 83 91 85
f 83 85 84
f 85 91 92
f 85 92 93
f 85 93 86
f 87 94 88
f 88 94 95
f 88 95 96
f 88 96 89
f 89 97 98
f 89 98 99
f 89 99 90
f 89 96 97
f 92 100 93
f 92 101 102
f 92 102 100
f 93 100 102
f 93 102 103
f 93 103 104
f 95 105 96
f 96 105 106
f 96 106 97
f 97 107 103
f 97 103 108
f 97 108 98
f 97 106 107
f 101 109 102
f 102 109 110
f 102 110 103
f 103 110 108
f 103 107 104
f 104 107 106
f 104 106 105
