v -5.1438e-05 0.642466 0.293047
v 0.0891059 0.642466 0.278222
v -5.1438e-05 0.642466 0.336678
v -5.1438e-05 0.749766 0.251264
v 0.0891059 0.642466 0.324721
v 0.0831266 0.748955 0.251264
v 0.0891059 0.749163 0.251264
v 0.00783952 0.642466 0.336678
v -5.1438e-05 0.643132 0.336595
v -5.1438e-05 0.854466 0.251264
v 0.0812498 0.642466 0.326678
v 0.0891059 0.652889 0.323751
v 0.0890972 0.652889 0.323759
v 0.0891059 0.85303 0.251264
v 0.025437 0.642466 0.334412
v 0.025437 0.652889 0.333141
v 0.00848546 0.652889 0.335324
v 0.00848546 0.669843 0.333208
v -5.1438e-05 0.678247 0.332146
v -5.1438e-05 0.854611 0.254433
v 0.02006 0.854653 0.251264
v 0.0763093 0.642466 0.327714
v 0.0867054 0.666847 0.32289
v 0.0846279 0.678143 0.322171
v 0.0891059 0.668678 0.321719
v 0.0872641 0.85328 0.251264
v 0.0891059 0.850347 0.258697
v 0.0423974 0.642466 0.33218
v 0.0423974 0.652889 0.330909
v 0.0779067 0.671444 0.32391
v 0.025437 0.669843 0.331017
v 0.00848546 0.686797 0.331059
v -5.1438e-05 0.686797 0.331059
v -5.1438e-05 0.854965 0.262844
v 0.00848546 0.854965 0.262844
v 0.0370203 0.85457 0.251264
v 0.0763093 0.652889 0.326443
v 0.0891059 0.674419 0.32095
v 0.0891059 0.682636 0.319838
v 0.0891059 0.737659 0.311635
v 0.0763093 0.737659 0.315189
v 0.0763093 0.720705 0.317613
v 0.0746333 0.702087 0.320356
v 0.0804555 0.686797 0.321594
v 0.0678684 0.695326 0.322196
v 0.0719797 0.686797 0.322739
v 0.0423974 0.853259 0.262844
v 0.0763093 0.85122 0.26108
v 0.0717964 0.854133 0.251264
v 0.025437 0.854278 0.262844
v 0.0673097 0.847809 0.271223
v 0.0891059 0.849203 0.260771
v 0.0593489 0.686797 0.324403
v 0.0423974 0.686797 0.326636
v 0.025437 0.686797 0.328868
v 0.00848546 0.703751 0.328877
v -5.1438e-05 0.703751 0.328877
v -5.1438e-05 0.852677 0.268965
v 0.0539719 0.854424 0.251264
v 0.00848546 0.850388 0.274986
v 0.0891059 0.766471 0.306651
v 0.087395 0.771567 0.306283
v 0.0593489 0.737659 0.317613
v 0.0763093 0.754613 0.312229
v 0.0593489 0.754613 0.31472
v 0.0576992 0.719062 0.320423
v 0.062247 0.706622 0.32146
v 0.025437 0.703751 0.326678
v 0.025437 0.849847 0.274007
v 0.0607281 0.851304 0.264483
v 0.00848546 0.843274 0.283464
v 0.025437 0.841984 0.282486
v 0.025437 0.833517 0.290313
v 0.0423974 0.832124 0.2892
v 0.0599862 0.839529 0.279869
v 0.0639753 0.830023 0.287737
v 0.0763093 0.838052 0.277845
v 0.0763093 0.84654 0.269559
v 0.0560058 0.848412 0.272
v 0.0891059 0.844252 0.267176
v 0.00848546 0.720705 0.326644
v -5.1438e-05 0.720705 0.326644
v -5.1438e-05 0.850388 0.274986
v -5.1438e-05 0.84681 0.279258
v 0.0891059 0.771567 0.305581
v 0.0850382 0.780346 0.305339
v 0.0407301 0.735995 0.320314
v 0.0339652 0.729234 0.322196
v 0.016324 0.745606 0.322112
v 0.0763093 0.771567 0.308775
v 0.0593489 0.771567 0.311334
v 0.0423974 0.754613 0.316953
v 0.0407301 0.719062 0.322656
v 0.050943 0.712301 0.322204
v 0.025437 0.720705 0.324445
v 0.0423974 0.849099 0.272895
v -5.1438e-05 0.843274 0.283464
v -5.1438e-05 0.839009 0.28747
v 0.00848546 0.834786 0.291416
v 0.00848546 0.82243 0.299335
v 0.0526713 0.831229 0.288523
v 0.025437 0.82243 0.297136
v 0.0587292 0.823595 0.292094
v 0.0763093 0.819268 0.291324
v 0.0763093 0.827734 0.286324
v 0.0891059 0.833247 0.277762
v 0.0891059 0.835764 0.275688
v 0.025437 0.733041 0.322756
v 0.0097948 0.739032 0.323902
v 0.00502007 0.749413 0.322831
v -5.1438e-05 0.749413 0.322831
v 0.0891059 0.784402 0.302178
v 0.0763093 0.805476 0.297729
v 0.0763093 0.791184 0.303164
v 0.0763093 0.782697 0.306116
v 0.0891059 0.805767 0.293607
v 0.0891059 0.814483 0.290095
v 0.0881719 0.816272 0.289669
v 0.025437 0.754613 0.319185
v 0.0097948 0.754884 0.321159
v 0.0593489 0.786566 0.307404
v 0.025437 0.771567 0.315799
v -5.1438e-05 0.834786 0.291416
v -5.1438e-05 0.82243 0.299335
v 0.00848546 0.81259 0.304686
v 0.0423974 0.82243 0.294903
v 0.025437 0.809782 0.303583
v 0.0593489 0.805476 0.300681
v 0.0891059 0.823595 0.284501
v 0.00848546 0.771567 0.317998
v -5.1438e-05 0.771567 0.317998
v 0.0593489 0.795053 0.304569
v 0.0891059 0.817271 0.288665
v 0.025437 0.788521 0.311208
v 0.00848546 0.788521 0.313416
v -5.1438e-05 0.81259 0.304686
v 0.00848546 0.804103 0.307906
v 0.025437 0.801294 0.306802
v 0.0390455 0.798881 0.305907
v 0.0437765 0.804914 0.302981
v 0.0503407 0.796801 0.305163
v -5.1438e-05 0.779992 0.315724
v -5.1438e-05 0.79626 0.310682
v -5.1438e-05 0.788521 0.313416
v -5.1438e-05 0.804103 0.307906
f 1 2 5
f 1 5 11
f 1 11 22
f 1 22 28
f 1 28 15
f 1 15 8
f 1 8 3
f 1 3 9
f 1 9 19
f 1 19 33
f 1 33 57
f 1 57 82
f 1 82 111
f 1 111 131
f 1 131 142
f 1 142 144
f 1 144 143
f 1 143 145
f 1 145 136
f 1 136 124
f 1 124 123
f 1 123 98
f 1 98 97
f 1 97 84
f 1 84 83
f 1 83 58
f 1 58 34
f 1 34 20
f 1 20 10
f 1 10 4
f 1 4 2
f 2 4 6
f 2 6 7
f 2 7 14
f 2 14 27
f 2 27 52
f 2 52 80
f 2 80 107
f 2 107 106
f 2 106 129
f 2 129 133
f 2 133 117
f 2 117 116
f 2 116 112
f 2 112 85
f 2 85 61
f 2 61 40
f 2 40 39
f 2 39 38
f 2 38 25
f 2 25 12
f 2 12 5
f 3 8 9
f 4 10 21
f 4 21 36
f 4 36 59
f 4 59 49
f 4 49 26
f 4 26 14
f 4 14 7
f 4 7 6
f 5 12 13
f 5 13 11
f 8 15 16
f 8 16 17
f 8 17 18
f 8 18 19
f 8 19 9
f 10 20 21
f 11 13 23
f 11 23 24
f 11 24 22
f 12 25 13
f 13 25 23
f 14 26 27
f 15 28 29
f 15 29 16
f 16 29 30
f 16 30 31
f 16 31 18
f 16 18 17
f 18 31 55
f 18 55 32
f 18 32 19
f 19 32 33
f 20 34 21
f 21 34 35
f 21 35 36
f 22 24 37
f 22 37 29
f 22 29 28
f 23 25 38
f 23 38 24
f 24 30 37
f 24 38 39
f 24 39 40
f 24 40 41
f 24 41 42
f 24 42 43
f 24 43 44
f 24 44 45
f 24 45 46
f 24 46 30
f 26 47 48
f 26 48 27
f 26 49 50
f 26 50 47
f 27 48 51
f 27 51 52
f 29 37 30
f 30 46 53
f 30 53 54
f 30 54 55
f 30 55 31
f 32 55 56
f 32 56 57
f 32 57 33
f 34 58 35
f 35 59 36
f 35 58 60
f 35 60 50
f 35 50 49
f 35 49 59
f 40 61 62
f 40 62 41
f 41 63 42
f 41 62 64
f 41 64 65
f 41 65 63
f 42 63 66
f 42 66 43
f 43 45 44
f 43 66 45
f 45 55 54
f 45 54 53
f 45 53 46
f 45 66 67
f 45 67 68
f 45 68 55
f 47 50 69
f 47 69 70
f 47 70 48
f 48 70 51
f 50 60 69
f 51 71 72
f 51 72 73
f 51 73 74
f 51 74 75
f 51 75 76
f 51 76 77
f 51 77 78
f 51 78 52
f 51 70 79
f 51 79 71
f 52 78 80
f 55 68 56
f 56 68 95
f 56 95 81
f 56 81 82
f 56 82 57
f 58 83 60
f 60 83 84
f 60 84 71
f 60 71 69
f 61 85 62
f 62 85 86
f 62 86 64
f 63 87 88
f 63 88 66
f 63 65 89
f 63 89 87
f 64 86 90
f 64 90 91
f 64 91 65
f 65 92 89
f 65 91 92
f 66 88 93
f 66 93 94
f 66 94 67
f 67 94 68
f 68 94 93
f 68 93 95
f 69 96 70
f 69 71 96
f 70 96 79
f 71 79 96
f 71 84 97
f 71 97 98
f 71 98 99
f 71 99 72
f 72 99 73
f 73 99 100
f 73 100 74
f 74 101 75
f 74 100 101
f 75 101 76
f 76 101 102
f 76 102 103
f 76 103 104
f 76 104 105
f 76 105 77
f 77 105 106
f 77 106 107
f 77 107 78
f 78 107 80
f 81 95 88
f 81 88 108
f 81 108 109
f 81 109 110
f 81 110 111
f 81 111 82
f 85 112 86
f 86 113 114
f 86 114 115
f 86 115 90
f 86 112 116
f 86 116 117
f 86 117 118
f 86 118 113
f 87 89 88
f 88 95 93
f 88 89 108
f 89 92 119
f 89 119 120
f 89 120 110
f 89 110 109
f 89 109 108
f 90 115 91
f 91 115 121
f 91 121 122
f 91 122 92
f 92 122 119
f 98 123 99
f 99 123 124
f 99 124 100
f 100 124 136
f 100 136 125
f 100 125 102
f 100 102 101
f 102 126 103
f 102 125 126
f 103 126 125
f 103 125 127
f 103 127 128
f 103 128 104
f 104 118 105
f 104 128 113
f 104 113 118
f 105 118 129
f 105 129 106
f 110 120 130
f 110 130 131
f 110 131 111
f 113 128 114
f 114 128 132
f 114 132 115
f 115 132 121
f 117 133 118
f 118 133 129
f 119 122 130
f 119 130 120
f 121 134 135
f 121 135 130
f 121 130 122
f 121 132 134
f 125 136 145
f 125 145 137
f 125 137 138
f 125 138 127
f 127 138 139
f 127 139 140
f 127 140 128
f 128 140 139
f 128 139 141
f 128 141 132
f 130 135 142
f 130 142 131
f 132 141 134
f 134 141 135
f 135 141 139
f 135 139 138
f 135 138 137
f 135 137 143
f 135 143 144
f 135 144 142
f 137 145 143
