v -0.22285 0.0190472 -0.308887
v -0.22285 0.0190472 -0.254407
v -0.22285 0.025472 -0.308982
v -0.212992 0.0190472 -0.31647
v -8.19723e-05 0.0190472 -0.339756
v -0.22285 0.615742 -0.187932
v -0.204573 0.025472 -0.323022
v -0.22285 0.0424103 -0.309059
v -0.204508 0.0190472 -0.322965
v -8.19723e-05 0.0190472 -0.38285
v -8.19723e-05 0.615742 -0.29265
v -0.22285 0.615742 -0.255133
v -0.22285 0.059407 -0.309135
v -0.204617 0.0424103 -0.32306
v -0.194999 0.059407 -0.329517
v -0.194999 0.0424103 -0.32944
v -0.194999 0.025472 -0.329364
v -0.194999 0.0190472 -0.329269
v -0.00847886 0.0190472 -0.38285
v -8.19723e-05 0.025472 -0.382926
v -8.19723e-05 0.615742 -0.339966
v -0.22285 0.608266 -0.256241
v -0.222152 0.615742 -0.255687
v -0.204661 0.059407 -0.323099
v -0.22285 0.074301 -0.309154
v -0.213167 0.0763453 -0.316604
v -0.181586 0.059407 -0.337081
v -0.194999 0.0763453 -0.329536
v -0.181498 0.0424103 -0.337043
v -0.181411 0.025472 -0.337005
v -0.189786 0.0190472 -0.33221
v -0.0190568 0.0190472 -0.381494
v -0.00847886 0.025472 -0.382926
v -8.19723e-05 0.0424103 -0.383003
v -8.19723e-05 0.475972 -0.356222
v -0.00749741 0.615742 -0.339966
v -0.22285 0.602016 -0.257158
v -0.183091 0.615742 -0.285639
v -0.203243 0.6092 -0.27116
v -0.210768 0.60295 -0.266308
v -0.204682 0.0763453 -0.323099
v -0.22285 0.0763453 -0.309154
v -0.22285 0.0914729 -0.308887
v -0.21297 0.0932836 -0.316451
v -0.173101 0.059407 -0.340615
v -0.172949 0.025472 -0.340539
v -0.181607 0.0763453 -0.337081
v -0.204486 0.0932836 -0.322946
v -0.194999 0.0932836 -0.329249
v -0.181324 0.0190472 -0.336967
v -0.0254471 0.0190472 -0.380672
v -0.0254471 0.025472 -0.380749
v -0.00847886 0.0424103 -0.383003
v -8.19723e-05 0.059407 -0.38306
v -8.19723e-05 0.289651 -0.373165
v -0.000976188 0.475972 -0.356222
v -0.0175955 0.611128 -0.339221
v -0.0221974 0.615742 -0.338075
v -0.00847886 0.568081 -0.345372
v -0.00847886 0.585019 -0.343423
v -0.00847886 0.601958 -0.341456
v -0.22285 0.585019 -0.259622
v -0.174606 0.615742 -0.291752
v -0.184399 0.601958 -0.286652
v -0.196569 0.60295 -0.277196
v -0.193428 0.58391 -0.282373
v -0.22285 0.0932836 -0.308848
v -0.22285 0.11028 -0.308294
v -0.22285 0.144098 -0.307167
v -0.203287 0.148304 -0.322048
v -0.204115 0.11028 -0.322678
v -0.173123 0.0763453 -0.340615
v -0.135697 0.0634372 -0.356126
v -0.110245 0.0424103 -0.366594
v -0.135523 0.025472 -0.35605
v -0.168478 0.0190472 -0.342315
v -0.17284 0.0190472 -0.340501
v -0.178118 0.0190472 -0.338304
v -0.18128 0.0932836 -0.336967
v -0.135654 0.0850481 -0.356107
v -0.196591 0.143281 -0.326671
v -0.194999 0.127219 -0.328199
v -0.0424154 0.0190472 -0.378437
v -0.0758284 0.025472 -0.37412
v -0.0848578 0.0657151 -0.37307
v -0.0254471 0.0424103 -0.380806
v -0.00847886 0.059407 -0.38306
v -0.00847886 0.0763453 -0.383079
v -8.19723e-05 0.0763453 -0.38306
v -8.19723e-05 0.212027 -0.377902
v -0.00086714 0.289651 -0.373165
v -0.00847886 0.381526 -0.364359
v -0.00847886 0.398465 -0.362812
v -0.00847886 0.415461 -0.361207
v -0.00847886 0.4324 -0.359603
v -0.00481476 0.466334 -0.356718
v -0.00736654 0.48228 -0.35477
v -0.00847886 0.517208 -0.350968
v -0.00847886 0.534146 -0.349135
v -0.00847886 0.551084 -0.347263
v -0.0271265 0.586713 -0.340825
v -0.0301363 0.601958 -0.338648
v -0.0731022 0.615742 -0.33137
v -0.0763301 0.601958 -0.332573
v -0.0254471 0.568081 -0.343175
v -0.215609 0.568081 -0.267626
v -0.22285 0.581048 -0.260195
v -0.186711 0.577543 -0.288428
v -0.185642 0.588874 -0.287607
v -0.171684 0.615742 -0.293318
v -0.16911 0.541038 -0.305028
v -0.170419 0.529707 -0.305716
v -0.180168 0.517208 -0.301074
v -0.181891 0.500211 -0.302182
v -0.18357 0.483273 -0.30329
v -0.187583 0.568081 -0.289097
v -0.22285 0.145675 -0.307091
v -0.222349 0.161153 -0.30669
v -0.202807 0.161153 -0.321685
v -0.194345 0.161153 -0.327377
v -0.144181 0.0763453 -0.352611
v -0.110245 0.059407 -0.366651
v -0.110245 0.0763453 -0.36667
v -0.0932765 0.0424103 -0.371541
v -0.0932765 0.025472 -0.371484
v -0.110245 0.025472 -0.366518
v -0.127039 0.025472 -0.359564
v -0.144138 0.0190472 -0.352401
v -0.180713 0.11028 -0.336718
v -0.172229 0.11028 -0.340252
v -0.110245 0.0932836 -0.366422
v -0.179535 0.144157 -0.336222
v -0.080823 0.0190472 -0.373375
v -0.0840072 0.0190472 -0.372955
v -0.0843126 0.025472 -0.372993
v -0.0845307 0.0424103 -0.373031
v -0.0847052 0.0544423 -0.373051
v -0.0254471 0.059407 -0.380863
v -0.091619 0.0598159 -0.371904
v -0.0848578 0.0719647 -0.37307
v -0.0254471 0.0763453 -0.380882
v -0.00847886 0.0932836 -0.382831
v -8.19723e-05 0.0932836 -0.382831
v -8.19723e-05 0.0848728 -0.382945
v -8.19723e-05 0.186619 -0.379354
v -0.00847886 0.212027 -0.377902
v -0.00847886 0.228965 -0.376814
v -0.00847886 0.245903 -0.375591
v -0.00396417 0.279838 -0.373566
v -0.00730112 0.2959 -0.371847
v -0.00847886 0.313773 -0.370242
v -0.00847886 0.347591 -0.367377
v -0.00847886 0.364588 -0.365887
v -0.0254471 0.381526 -0.362162
v -0.0254471 0.398465 -0.360615
v -0.0254471 0.415461 -0.35903
v -0.0262105 0.432808 -0.357272
v -0.0210415 0.446242 -0.356642
v -0.0100492 0.450856 -0.357597
v -0.0132989 0.466334 -0.355629
v -0.0167449 0.457573 -0.356069
v -0.0254471 0.483273 -0.352325
v -0.0254471 0.500211 -0.350567
v -0.0254471 0.517208 -0.348772
v -0.0254471 0.534146 -0.346938
v -0.0254471 0.551084 -0.345066
v -0.0502016 0.575732 -0.339049
v -0.0593618 0.585019 -0.336776
v -0.0763301 0.585019 -0.334541
v -0.0763301 0.615742 -0.33093
v -0.0823933 0.539753 -0.33882
v -0.060147 0.569249 -0.338476
v -0.0663192 0.557801 -0.338953
v -0.22285 0.568081 -0.262048
v -0.196068 0.568081 -0.282602
v -0.197616 0.551084 -0.283786
v -0.2102 0.534146 -0.276489
v -0.22285 0.539812 -0.265983
v -0.22285 0.550383 -0.264512
v -0.160801 0.615742 -0.299087
v -0.162502 0.534905 -0.308505
v -0.161084 0.517208 -0.311141
v -0.161084 0.500211 -0.31307
v -0.161084 0.483273 -0.314961
v -0.165206 0.568081 -0.303347
v -0.156744 0.568081 -0.306938
v -0.171706 0.517208 -0.306422
v -0.186188 0.456055 -0.305009
v -0.185206 0.466334 -0.304359
v -0.161084 0.466334 -0.316814
v -0.163178 0.4324 -0.319546
v -0.165272 0.415461 -0.320405
v -0.167344 0.398465 -0.321265
v -0.168761 0.386549 -0.321857
v -0.181629 0.347591 -0.319775
v -0.190659 0.534146 -0.291446
v -0.189132 0.551084 -0.290281
v -0.22285 0.161153 -0.306289
v -0.22285 0.162263 -0.306212
v -0.22285 0.178092 -0.305104
v -0.221564 0.178092 -0.306098
v -0.211967 0.178092 -0.313471
v -0.201258 0.19503 -0.320482
v -0.191989 0.212027 -0.325811
v -0.193559 0.178092 -0.326862
v -0.0932765 0.0932836 -0.37137
v -0.091619 0.0771046 -0.371904
v -0.0932765 0.0190472 -0.371408
v -0.103854 0.0190472 -0.368313
v -0.110245 0.0190472 -0.366441
v -0.171051 0.144157 -0.339756
v -0.161084 0.144157 -0.343901
v -0.110245 0.144157 -0.36497
v -0.0932765 0.11028 -0.370911
v -0.0932765 0.144157 -0.369975
v -0.170375 0.158233 -0.339469
v -0.178052 0.178092 -0.335076
v -0.176831 0.162789 -0.336508
v -0.0847706 0.0832958 -0.373051
v -0.0780095 0.0771046 -0.373967
v -0.0254471 0.0932836 -0.380634
v -0.0254471 0.11028 -0.380195
v -0.00847886 0.127219 -0.381933
v -8.19723e-05 0.118808 -0.382162
v -8.19723e-05 0.169681 -0.380309
v -0.00847886 0.178092 -0.379832
v -0.0254471 0.212027 -0.375706
v -0.0365921 0.225402 -0.373413
v -0.0254471 0.19503 -0.37668
v -0.0269084 0.23025 -0.374349
v -0.0190349 0.257935 -0.373337
v -0.0094385 0.263309 -0.374158
v -0.0124483 0.279838 -0.372477
v -0.0157198 0.269266 -0.372898
v -0.0254471 0.296777 -0.36944
v -0.0254471 0.313773 -0.368046
v -0.0254471 0.330653 -0.366632
v -0.0254471 0.347591 -0.36518
v -0.0254471 0.364588 -0.36369
v -0.0606268 0.382578 -0.357444
v -0.0671262 0.388944 -0.356011
v -0.0637893 0.398465 -0.355572
v -0.0763301 0.415461 -0.352325
v -0.0323609 0.438708 -0.355897
v -0.0593618 0.449338 -0.351293
v -0.0593618 0.466334 -0.349593
v -0.0254471 0.466334 -0.354044
v -0.0763301 0.483273 -0.345639
v -0.0424154 0.500211 -0.348332
v -0.0424154 0.517208 -0.346537
v -0.07657 0.534088 -0.340214
v -0.0763301 0.568081 -0.33647
v -0.0932765 0.615742 -0.326804
v -0.0858393 0.528422 -0.33945
v -0.07657 0.551727 -0.338266
v -0.0763301 0.517208 -0.342067
v -0.0763301 0.500211 -0.343863
v -0.22285 0.534146 -0.266766
v -0.192163 0.517208 -0.292592
v -0.219775 0.521764 -0.270816
v -0.158707 0.615742 -0.300004
v -0.162698 0.585019 -0.302258
v -0.144138 0.551084 -0.314197
v -0.132666 0.534146 -0.320959
v -0.134476 0.521355 -0.321704
v -0.110245 0.500211 -0.33414
v -0.109176 0.483974 -0.336394
v -0.151139 0.60552 -0.304608
v -0.15284 0.594248 -0.305314
v -0.144138 0.585019 -0.310071
v -0.108347 0.585019 -0.324913
v -0.111662 0.568899 -0.325505
v -0.119928 0.563817 -0.322697
v -0.110245 0.551084 -0.328237
v -0.173407 0.500211 -0.307397
v -0.187169 0.444782 -0.305716
v -0.196438 0.48339 -0.293739
v -0.193603 0.500211 -0.29372
v -0.104465 0.466334 -0.340271
v -0.106668 0.449338 -0.341188
v -0.151837 0.454887 -0.321876
v -0.159819 0.449279 -0.319164
v -0.153298 0.443555 -0.322468
v -0.108827 0.4324 -0.342067
v -0.144138 0.415461 -0.329173
v -0.110245 0.398465 -0.344932
v -0.110245 0.381526 -0.346594
v -0.110245 0.364588 -0.348237
v -0.161084 0.364588 -0.327148
v -0.171269 0.364588 -0.322908
v -0.186297 0.304136 -0.322067
v -0.185272 0.313773 -0.32157
v -0.183461 0.330653 -0.320673
v -0.22285 0.182122 -0.304818
v -0.219993 0.212027 -0.304894
v -0.200473 0.212027 -0.31987
v -0.191117 0.228965 -0.325219
v -0.178052 0.212027 -0.332993
v -0.08392 0.0932836 -0.372936
v -0.110245 0.161153 -0.364225
v -0.0932765 0.161153 -0.369249
v -0.0787946 0.144157 -0.372267
v -0.082197 0.11028 -0.372726
v -0.169546 0.169506 -0.339144
v -0.162785 0.162789 -0.342353
v -0.166428 0.212027 -0.337845
v -0.0754359 0.0932836 -0.374063
v -0.0593618 0.0932836 -0.376183
v -0.0254471 0.144157 -0.379297
v -0.00847886 0.144157 -0.381475
v -8.19723e-05 0.135746 -0.381704
v -8.19723e-05 0.161153 -0.380787
v -0.00847886 0.161153 -0.380787
v -0.0397545 0.212027 -0.373834
v -0.0763301 0.228965 -0.367931
v -0.0423063 0.23025 -0.372325
v -0.0763301 0.212027 -0.369001
v -0.0254471 0.161153 -0.37859
v -0.0555669 0.178092 -0.373681
v -0.0335387 0.236733 -0.373012
v -0.0424154 0.245903 -0.371159
v -0.0763301 0.245903 -0.36669
v -0.0763301 0.2629 -0.36541
v -0.0424154 0.2629 -0.36988
v -0.0254471 0.279838 -0.370796
v -0.0424154 0.296777 -0.367205
v -0.0593618 0.313773 -0.363595
v -0.0424154 0.330653 -0.364397
v -0.0424154 0.347591 -0.362945
v -0.0765264 0.364062 -0.357024
v -0.082306 0.369377 -0.355782
v -0.0765264 0.382578 -0.355343
v -0.0763301 0.398465 -0.35391
v -0.0763301 0.4324 -0.350701
v -0.0763301 0.449338 -0.349058
v -0.0763301 0.466334 -0.347358
v -0.101303 0.615742 -0.323863
v -0.0932765 0.601958 -0.328485
v -0.0878676 0.517208 -0.340042
v -0.101194 0.490165 -0.338972
v -0.0963517 0.517208 -0.337444
v -0.0932765 0.551084 -0.334502
v -0.0932765 0.568081 -0.332535
v -0.0932765 0.585019 -0.330529
v -0.0855994 0.358105 -0.356279
v -0.0932765 0.4324 -0.347301
v -0.0932765 0.449338 -0.345582
v -0.22285 0.525969 -0.267874
v -0.211967 0.500211 -0.27966
v -0.22285 0.516507 -0.269135
v -0.22285 0.500211 -0.271294
v -0.149568 0.615742 -0.303958
v -0.110245 0.534146 -0.330243
v -0.110245 0.517208 -0.33221
v -0.102829 0.478834 -0.339584
v -0.148347 0.615742 -0.304474
v -0.105774 0.601958 -0.323863
v -0.144945 0.600731 -0.307779
v -0.188129 0.4324 -0.306461
v -0.196613 0.4324 -0.299966
v -0.20767 0.4324 -0.291485
v -0.214802 0.449338 -0.283958
v -0.194999 0.466334 -0.297005
v -0.210571 0.48339 -0.282908
v -0.10115 0.320548 -0.355954
v -0.111771 0.416513 -0.342468
v -0.110245 0.347591 -0.349822
v -0.135152 0.353783 -0.338934
v -0.102611 0.309276 -0.356451
v -0.161084 0.347591 -0.328753
v -0.173167 0.347591 -0.32371
v -0.194999 0.313773 -0.314483
v -0.194999 0.330653 -0.312688
v -0.193254 0.364588 -0.310357
v -0.192011 0.381526 -0.309402
v -0.190746 0.398465 -0.308447
v -0.189459 0.415461 -0.307454
v -0.174977 0.330653 -0.324493
v -0.176809 0.313773 -0.325257
v -0.179601 0.297828 -0.325467
v -0.178052 0.279838 -0.327683
v -0.178052 0.2629 -0.329116
v -0.178052 0.245903 -0.330491
v -0.187125 0.292805 -0.322583
v -0.193668 0.297828 -0.317139
v -0.22285 0.205719 -0.303137
v -0.22285 0.212027 -0.302678
v -0.22285 0.217459 -0.302258
v -0.22285 0.228965 -0.301341
v -0.219121 0.228965 -0.304207
v -0.210637 0.228965 -0.31072
v -0.199579 0.228965 -0.319202
v -0.178052 0.228965 -0.331828
v -0.190092 0.245903 -0.32455
v -0.144138 0.178092 -0.349154
v -0.110245 0.19503 -0.362162
v -0.0932765 0.212027 -0.366269
v -0.0763301 0.178092 -0.370949
v -0.0752614 0.160978 -0.372038
v -0.0689146 0.155196 -0.373203
v -0.0424154 0.144157 -0.377062
v -0.160452 0.178092 -0.342392
v -0.16501 0.228965 -0.337253
v -0.156548 0.228965 -0.340768
v -0.119492 0.224818 -0.356432
v -0.157943 0.212027 -0.34136
v -8.19723e-05 0.152684 -0.381131
v -8.19723e-05 0.144157 -0.381475
v -0.0932765 0.228965 -0.365142
v -0.0602778 0.160978 -0.374025
v -0.0763301 0.279838 -0.364092
v -0.0932765 0.245903 -0.363862
v -0.0424154 0.279838 -0.368562
v -0.0763301 0.296777 -0.362735
v -0.0763301 0.313773 -0.36136
v -0.0763301 0.330653 -0.359927
v -0.0763301 0.347591 -0.358476
v -0.10368 0.615742 -0.322984
v -0.090921 0.500211 -0.34094
v -0.0932765 0.466334 -0.343805
v -0.0932765 0.2629 -0.362525
v -0.0932765 0.279838 -0.361169
v -0.0876059 0.347591 -0.356737
v -0.0992525 0.330653 -0.355496
v -0.0960682 0.347591 -0.354712
v -0.0920552 0.364062 -0.354159
v -0.0932765 0.381526 -0.352229
v -0.0932765 0.398465 -0.350625
v -0.0932765 0.415461 -0.348963
v -0.22285 0.483273 -0.27349
v -0.11055 0.615742 -0.320138
v -0.208979 0.415461 -0.292497
v -0.22285 0.414994 -0.281914
v -0.216133 0.4324 -0.28499
v -0.22285 0.4324 -0.279832
v -0.22285 0.449338 -0.277769
v -0.22285 0.466334 -0.275649
v -0.0946069 0.314474 -0.357979
v -0.146188 0.330653 -0.336489
v -0.128565 0.347942 -0.342201
v -0.109067 0.314474 -0.353337
v -0.10392 0.296777 -0.357005
v -0.161084 0.330653 -0.3303
v -0.205293 0.313773 -0.306613
v -0.203527 0.339356 -0.305257
v -0.202741 0.350687 -0.304646
v -0.196242 0.346073 -0.31009
v -0.201738 0.364588 -0.303882
v -0.200495 0.381526 -0.302927
v -0.19923 0.398465 -0.301972
v -0.161084 0.313773 -0.331828
v -0.161084 0.296777 -0.333318
v -0.161084 0.279838 -0.33477
v -0.152513 0.270843 -0.339106
v -0.163418 0.245903 -0.336604
v -0.187976 0.279838 -0.323137
v -0.198576 0.245903 -0.318419
v -0.197529 0.2629 -0.317635
v -0.19646 0.279838 -0.316795
v -0.216002 0.279838 -0.301819
v -0.22285 0.234806 -0.300806
v -0.218118 0.245903 -0.303442
v -0.189045 0.2629 -0.323863
v -0.110245 0.212027 -0.361112
v -0.118445 0.236149 -0.356011
v -0.125948 0.2299 -0.353375
v -0.111771 0.2299 -0.35924
v -0.109045 0.245903 -0.359125
v -0.107409 0.2629 -0.358437
v -0.105686 0.279838 -0.357731
v -0.0932765 0.296777 -0.359755
v -0.0907902 0.330653 -0.357463
v -0.22285 0.398465 -0.283844
v -0.14802 0.313773 -0.337253
v -0.22285 0.29152 -0.295381
v -0.22285 0.313773 -0.293127
v -0.2126 0.330653 -0.299221
v -0.22248 0.347591 -0.289842
v -0.210288 0.346073 -0.299355
v -0.211967 0.364588 -0.29605
v -0.22285 0.389762 -0.284856
v -0.154934 0.245903 -0.340118
v -0.208587 0.2629 -0.309154
v -0.22285 0.279838 -0.296547
v -0.217071 0.2629 -0.30264
v -0.22285 0.246195 -0.299756
v -0.22285 0.253964 -0.29903
v -0.22285 0.2629 -0.298189
v -0.22285 0.32931 -0.291485
v -0.22285 0.348526 -0.289441
v -0.22285 0.364588 -0.287683
f 1 2 6
f 1 6 12
f 1 12 22
f 1 22 37
f 1 37 62
f 1 62 107
f 1 107 174
f 1 174 179
f 1 179 178
f 1 178 258
f 1 258 348
f 1 348 350
f 1 350 351
f 1 351 430
f 1 430 437
f 1 437 436
f 1 436 435
f 1 435 433
f 1 433 473
f 1 473 481
f 1 481 491
f 1 491 490
f 1 490 489
f 1 489 476
f 1 476 475
f 1 475 484
f 1 484 488
f 1 488 487
f 1 487 486
f 1 486 461
f 1 461 389
f 1 389 388
f 1 388 387
f 1 387 386
f 1 386 294
f 1 294 200
f 1 200 199
f 1 199 198
f 1 198 117
f 1 117 69
f 1 69 68
f 1 68 67
f 1 67 43
f 1 43 42
f 1 42 25
f 1 25 13
f 1 13 8
f 1 8 3
f 1 3 4
f 1 4 9
f 1 9 18
f 1 18 31
f 1 31 50
f 1 50 78
f 1 78 77
f 1 77 76
f 1 76 128
f 1 128 210
f 1 210 209
f 1 209 208
f 1 208 134
f 1 134 133
f 1 133 83
f 1 83 51
f 1 51 32
f 1 32 19
f 1 19 10
f 1 10 5
f 1 5 2
f 2 5 6
f 3 7 4
f 3 8 7
f 4 7 9
f 5 10 20
f 5 20 34
f 5 34 54
f 5 54 89
f 5 89 144
f 5 144 143
f 5 143 224
f 5 224 311
f 5 311 408
f 5 408 407
f 5 407 312
f 5 312 225
f 5 225 145
f 5 145 90
f 5 90 55
f 5 55 35
f 5 35 21
f 5 21 11
f 5 11 6
f 6 11 21
f 6 21 36
f 6 36 58
f 6 58 103
f 6 103 170
f 6 170 253
f 6 253 337
f 6 337 418
f 6 418 431
f 6 431 356
f 6 356 352
f 6 352 261
f 6 261 180
f 6 180 110
f 6 110 63
f 6 63 38
f 6 38 23
f 6 23 12
f 7 8 13
f 7 13 14
f 7 14 15
f 7 15 16
f 7 16 17
f 7 17 18
f 7 18 9
f 10 19 33
f 10 33 20
f 12 23 22
f 13 24 14
f 13 25 26
f 13 26 24
f 14 24 15
f 15 27 16
f 15 24 28
f 15 28 27
f 16 27 17
f 17 27 29
f 17 29 30
f 17 30 31
f 17 31 18
f 19 32 33
f 20 33 53
f 20 53 34
f 21 35 56
f 21 56 36
f 22 23 37
f 23 38 39
f 23 39 40
f 23 40 37
f 24 26 41
f 24 41 28
f 25 42 26
f 26 42 43
f 26 43 44
f 26 44 48
f 26 48 41
f 27 45 46
f 27 46 29
f 27 28 47
f 27 47 72
f 27 72 45
f 28 41 48
f 28 48 49
f 28 49 47
f 29 46 30
f 30 46 50
f 30 50 31
f 32 51 52
f 32 52 33
f 33 52 53
f 34 53 87
f 34 87 54
f 35 55 91
f 35 91 56
f 36 57 58
f 36 56 59
f 36 59 60
f 36 60 61
f 36 61 57
f 37 40 62
f 38 63 64
f 38 64 65
f 38 65 39
f 39 65 40
f 40 65 66
f 40 66 62
f 43 67 44
f 44 67 68
f 44 68 69
f 44 69 70
f 44 70 71
f 44 71 48
f 45 72 73
f 45 73 74
f 45 74 75
f 45 75 46
f 46 75 76
f 46 76 77
f 46 77 78
f 46 78 50
f 47 49 79
f 47 79 80
f 47 80 72
f 48 71 49
f 49 71 81
f 49 81 82
f 49 82 79
f 51 83 84
f 51 84 52
f 52 84 85
f 52 85 86
f 52 86 53
f 53 86 138
f 53 138 87
f 54 87 88
f 54 88 89
f 55 90 146
f 55 146 91
f 56 92 93
f 56 93 94
f 56 94 95
f 56 95 96
f 56 96 97
f 56 97 98
f 56 98 99
f 56 99 100
f 56 100 59
f 56 91 92
f 57 61 60
f 57 60 101
f 57 101 102
f 57 102 58
f 58 102 104
f 58 104 103
f 59 100 166
f 59 166 105
f 59 105 101
f 59 101 60
f 62 66 106
f 62 106 107
f 63 108 109
f 63 109 64
f 63 110 111
f 63 111 112
f 63 112 113
f 63 113 114
f 63 114 115
f 63 115 116
f 63 116 108
f 64 109 65
f 65 109 66
f 66 109 108
f 66 108 106
f 69 117 70
f 70 81 71
f 70 117 118
f 70 118 119
f 70 119 120
f 70 120 81
f 72 80 121
f 72 121 73
f 73 122 74
f 73 121 123
f 73 123 122
f 74 122 124
f 74 124 125
f 74 125 126
f 74 126 127
f 74 127 75
f 75 127 128
f 75 128 76
f 79 129 130
f 79 130 131
f 79 131 80
f 79 82 129
f 80 123 121
f 80 131 123
f 81 120 82
f 82 120 132
f 82 132 129
f 83 133 84
f 84 133 134
f 84 134 135
f 84 135 136
f 84 136 137
f 84 137 85
f 85 138 86
f 85 137 139
f 85 139 207
f 85 207 140
f 85 140 141
f 85 141 138
f 87 138 141
f 87 141 88
f 88 141 221
f 88 221 142
f 88 142 143
f 88 143 144
f 88 144 89
f 90 145 146
f 91 146 147
f 91 147 148
f 91 148 149
f 91 149 150
f 91 150 151
f 91 151 152
f 91 152 153
f 91 153 92
f 92 153 239
f 92 239 154
f 92 154 155
f 92 155 93
f 93 155 156
f 93 156 94
f 94 156 95
f 95 156 157
f 95 157 158
f 95 158 159
f 95 159 96
f 96 160 97
f 96 159 161
f 96 161 160
f 97 160 162
f 97 162 163
f 97 163 98
f 98 163 164
f 98 164 165
f 98 165 99
f 99 165 166
f 99 166 100
f 101 105 167
f 101 167 168
f 101 168 169
f 101 169 104
f 101 104 102
f 103 104 170
f 104 169 171
f 104 171 170
f 105 172 167
f 105 166 173
f 105 173 172
f 106 174 107
f 106 108 175
f 106 175 176
f 106 176 177
f 106 177 178
f 106 178 179
f 106 179 174
f 108 116 175
f 110 180 111
f 111 181 182
f 111 182 183
f 111 183 184
f 111 184 112
f 111 180 185
f 111 185 186
f 111 186 181
f 112 187 188
f 112 188 189
f 112 189 115
f 112 115 114
f 112 114 113
f 112 184 190
f 112 190 191
f 112 191 192
f 112 192 193
f 112 193 194
f 112 194 195
f 112 195 187
f 115 189 196
f 115 196 197
f 115 197 116
f 116 197 176
f 116 176 175
f 117 198 118
f 118 198 199
f 118 199 200
f 118 200 201
f 118 201 202
f 118 202 119
f 119 202 203
f 119 203 204
f 119 204 205
f 119 205 120
f 120 205 132
f 122 123 124
f 123 131 206
f 123 206 207
f 123 207 124
f 124 207 139
f 124 139 125
f 125 135 208
f 125 208 209
f 125 209 126
f 125 139 136
f 125 136 135
f 126 209 210
f 126 210 127
f 127 210 128
f 129 132 211
f 129 211 130
f 130 211 212
f 130 212 213
f 130 213 131
f 131 214 206
f 131 213 215
f 131 215 214
f 132 216 211
f 132 205 204
f 132 204 217
f 132 217 218
f 132 218 216
f 134 208 135
f 136 139 137
f 140 207 219
f 140 219 220
f 140 220 141
f 141 220 219
f 141 219 221
f 142 221 222
f 142 222 223
f 142 223 224
f 142 224 143
f 145 225 313
f 145 313 226
f 145 226 146
f 146 227 228
f 146 228 147
f 146 226 229
f 146 229 227
f 147 228 230
f 147 230 148
f 148 231 232
f 148 232 149
f 148 230 231
f 149 233 150
f 149 232 234
f 149 234 233
f 150 233 235
f 150 235 151
f 151 235 236
f 151 236 237
f 151 237 152
f 152 237 238
f 152 238 239
f 152 239 153
f 154 239 240
f 154 240 241
f 154 241 155
f 155 241 242
f 155 242 156
f 156 243 157
f 156 242 243
f 157 244 158
f 157 243 244
f 158 244 245
f 158 245 246
f 158 246 161
f 158 161 159
f 160 247 162
f 160 161 247
f 161 246 247
f 162 247 246
f 162 246 248
f 162 248 163
f 163 249 250
f 163 250 164
f 163 248 249
f 164 250 251
f 164 251 165
f 165 251 173
f 165 173 166
f 167 172 169
f 167 169 168
f 169 172 252
f 169 252 171
f 170 171 254
f 170 254 253
f 171 255 173
f 171 173 251
f 171 251 256
f 171 256 257
f 171 257 248
f 171 248 254
f 171 252 255
f 172 173 252
f 173 255 252
f 176 197 177
f 177 258 178
f 177 197 196
f 177 196 259
f 177 259 260
f 177 260 258
f 180 261 262
f 180 262 185
f 181 263 264
f 181 264 265
f 181 265 182
f 181 186 263
f 182 265 183
f 183 265 266
f 183 266 184
f 184 266 267
f 184 267 190
f 185 262 268
f 185 268 269
f 185 269 186
f 186 269 270
f 186 270 271
f 186 271 272
f 186 272 273
f 186 273 274
f 186 274 263
f 187 195 275
f 187 275 188
f 188 275 276
f 188 276 277
f 188 277 278
f 188 278 259
f 188 259 196
f 188 196 189
f 190 279 280
f 190 280 281
f 190 281 282
f 190 282 191
f 190 267 279
f 191 282 283
f 191 283 280
f 191 280 284
f 191 284 285
f 191 285 192
f 192 285 193
f 193 285 286
f 193 286 194
f 194 286 287
f 194 287 288
f 194 288 289
f 194 289 290
f 194 290 291
f 194 291 292
f 194 292 293
f 194 293 195
f 195 293 275
f 200 294 201
f 201 294 295
f 201 295 202
f 202 295 203
f 203 295 296
f 203 296 204
f 204 296 297
f 204 297 298
f 204 298 217
f 206 299 219
f 206 219 207
f 206 214 299
f 211 216 212
f 212 216 213
f 213 216 300
f 213 300 301
f 213 301 215
f 214 215 299
f 215 302 303
f 215 303 299
f 215 301 302
f 216 218 304
f 216 304 305
f 216 305 300
f 217 298 306
f 217 306 304
f 217 304 218
f 219 299 307
f 219 307 308
f 219 308 221
f 221 308 222
f 222 309 223
f 222 308 309
f 223 309 310
f 223 310 311
f 223 311 224
f 225 312 313
f 226 313 318
f 226 318 229
f 227 314 228
f 227 229 314
f 228 315 316
f 228 316 230
f 228 314 317
f 228 317 315
f 229 318 319
f 229 319 314
f 230 316 320
f 230 320 231
f 231 321 322
f 231 322 323
f 231 323 324
f 231 324 234
f 231 234 232
f 231 320 321
f 233 234 325
f 233 325 235
f 234 324 325
f 235 325 413
f 235 413 326
f 235 326 415
f 235 415 327
f 235 327 236
f 236 327 237
f 237 328 329
f 237 329 238
f 237 327 415
f 237 415 328
f 238 329 330
f 238 330 239
f 239 330 240
f 240 330 331
f 240 331 241
f 241 331 332
f 241 332 333
f 241 333 242
f 242 333 243
f 243 334 244
f 243 333 331
f 243 331 334
f 244 334 335
f 244 335 245
f 245 335 336
f 245 336 246
f 246 336 248
f 248 336 254
f 248 257 249
f 249 257 256
f 249 256 250
f 250 256 251
f 253 254 338
f 253 338 337
f 254 339 340
f 254 340 341
f 254 341 342
f 254 342 343
f 254 343 344
f 254 344 338
f 254 336 335
f 254 335 345
f 254 345 346
f 254 346 347
f 254 347 339
f 258 260 348
f 259 278 349
f 259 349 260
f 260 350 348
f 260 349 351
f 260 351 350
f 261 352 268
f 261 268 262
f 263 274 264
f 264 274 353
f 264 353 265
f 265 354 266
f 265 353 354
f 266 340 355
f 266 355 267
f 266 354 340
f 267 355 279
f 268 352 356
f 268 356 357
f 268 357 358
f 268 358 269
f 269 358 271
f 269 271 270
f 271 358 357
f 271 357 340
f 271 340 274
f 271 274 272
f 272 274 273
f 274 340 353
f 275 293 292
f 275 292 291
f 275 291 276
f 276 359 360
f 276 360 361
f 276 361 362
f 276 362 363
f 276 363 277
f 276 291 359
f 277 364 349
f 277 349 278
f 277 363 364
f 279 355 365
f 279 365 280
f 280 286 284
f 280 283 282
f 280 282 281
f 280 365 286
f 284 366 285
f 284 286 366
f 285 366 286
f 286 365 287
f 287 365 288
f 288 367 368
f 288 368 289
f 288 365 369
f 288 369 367
f 289 368 370
f 289 370 290
f 290 370 371
f 290 371 291
f 291 372 373
f 291 373 374
f 291 374 375
f 291 375 376
f 291 376 377
f 291 377 359
f 291 371 378
f 291 378 379
f 291 379 380
f 291 380 381
f 291 381 382
f 291 382 383
f 291 383 384
f 291 384 385
f 291 385 372
f 294 386 295
f 295 386 387
f 295 387 388
f 295 388 389
f 295 389 390
f 295 390 391
f 295 391 296
f 296 391 392
f 296 392 297
f 297 393 298
f 297 392 394
f 297 394 393
f 298 393 306
f 299 303 307
f 300 305 395
f 300 395 396
f 300 396 397
f 300 397 301
f 301 397 317
f 301 317 398
f 301 398 399
f 301 399 302
f 302 399 400
f 302 400 401
f 302 401 303
f 303 401 309
f 303 309 308
f 303 308 307
f 304 402 395
f 304 395 305
f 304 306 402
f 306 393 403
f 306 403 404
f 306 404 405
f 306 405 406
f 306 406 396
f 306 396 395
f 306 395 402
f 309 401 400
f 309 400 318
f 309 318 313
f 309 313 310
f 310 407 408
f 310 408 311
f 310 313 407
f 312 407 313
f 314 319 398
f 314 398 317
f 315 317 397
f 315 397 409
f 315 409 322
f 315 322 320
f 315 320 316
f 318 400 410
f 318 410 319
f 319 410 398
f 320 322 321
f 322 409 323
f 323 411 413
f 323 413 324
f 323 409 412
f 323 412 411
f 324 413 325
f 326 413 411
f 326 411 414
f 326 414 415
f 328 415 416
f 328 416 417
f 328 417 329
f 329 417 330
f 330 417 331
f 331 333 332
f 331 417 416
f 331 416 345
f 331 345 335
f 331 335 334
f 337 338 344
f 337 344 418
f 339 419 340
f 339 347 420
f 339 420 419
f 340 354 353
f 340 357 344
f 340 344 343
f 340 343 341
f 340 419 420
f 340 420 347
f 340 347 346
f 340 346 355
f 341 343 342
f 344 357 418
f 345 416 415
f 345 415 414
f 345 414 411
f 345 411 421
f 345 421 422
f 345 422 423
f 345 423 365
f 345 365 424
f 345 424 425
f 345 425 426
f 345 426 427
f 345 427 428
f 345 428 429
f 345 429 346
f 346 429 365
f 346 365 355
f 349 364 430
f 349 430 351
f 356 431 357
f 357 431 418
f 359 377 360
f 360 377 432
f 360 432 433
f 360 433 361
f 361 433 434
f 361 434 362
f 362 434 435
f 362 435 436
f 362 436 437
f 362 437 363
f 363 437 364
f 364 437 430
f 365 438 422
f 365 422 421
f 365 421 412
f 365 412 369
f 365 429 428
f 365 428 424
f 365 423 438
f 367 439 440
f 367 440 368
f 367 369 441
f 367 441 439
f 368 440 439
f 368 439 370
f 369 442 441
f 369 412 409
f 369 409 442
f 370 439 443
f 370 443 371
f 371 443 378
f 372 385 444
f 372 444 445
f 372 445 373
f 373 445 446
f 373 446 447
f 373 447 374
f 374 447 446
f 374 446 448
f 374 448 449
f 374 449 375
f 375 449 450
f 375 450 376
f 376 450 377
f 377 450 432
f 378 443 379
f 379 451 452
f 379 452 381
f 379 381 380
f 379 443 451
f 381 453 382
f 381 452 453
f 382 453 454
f 382 454 455
f 382 455 383
f 383 455 393
f 383 393 384
f 384 393 456
f 384 456 457
f 384 457 458
f 384 458 459
f 384 459 385
f 385 459 460
f 385 460 444
f 389 461 462
f 389 462 390
f 390 462 391
f 391 462 392
f 392 462 457
f 392 457 456
f 392 456 463
f 392 463 394
f 393 394 463
f 393 463 456
f 393 455 403
f 396 406 464
f 396 464 397
f 397 464 409
f 398 410 400
f 398 400 399
f 403 455 404
f 404 455 465
f 404 465 466
f 404 466 405
f 405 466 465
f 405 465 467
f 405 467 464
f 405 464 406
f 409 464 468
f 409 468 469
f 409 469 470
f 409 470 442
f 411 412 421
f 422 438 471
f 422 471 423
f 423 471 472
f 423 472 438
f 424 428 427
f 424 427 425
f 425 427 426
f 432 450 433
f 433 435 434
f 433 450 473
f 438 472 471
f 439 441 474
f 439 474 451
f 439 451 443
f 441 442 452
f 441 452 474
f 442 470 454
f 442 454 452
f 444 475 476
f 444 476 477
f 444 477 445
f 444 460 475
f 445 478 479
f 445 479 446
f 445 477 478
f 446 480 448
f 446 479 478
f 446 478 480
f 448 480 449
f 449 481 450
f 449 480 481
f 450 481 473
f 451 474 452
f 452 454 453
f 454 470 469
f 454 469 455
f 455 469 482
f 455 482 465
f 457 462 458
f 458 483 460
f 458 460 459
f 458 462 483
f 460 484 475
f 460 483 485
f 460 485 484
f 461 486 462
f 462 486 487
f 462 487 488
f 462 488 485
f 462 485 483
f 464 467 468
f 465 482 468
f 465 468 467
f 468 482 469
f 476 489 478
f 476 478 477
f 478 490 491
f 478 491 480
f 478 489 490
f 480 491 481
f 484 485 488
