v -6.01652e-05 0.0212542 -0.382891
v -6.01652e-05 0.0212542 -0.339743
v -6.01652e-05 0.0254484 -0.382938
v 0.00848096 0.0212542 -0.382891
v 0.254538 0.0212542 -0.222616
v -6.01652e-05 0.616374 -0.292622
v 0.00848096 0.0254484 -0.382938
v -6.01652e-05 0.0593521 -0.383063
v 0.0254421 0.0212542 -0.380692
v 0.309116 0.0212542 -0.222616
v 0.188147 0.616374 -0.222616
v -6.01652e-05 0.616374 -0.339885
v 0.00848096 0.0593521 -0.383063
v 0.0254421 0.0254484 -0.380739
v -6.01652e-05 0.0763622 -0.383079
v 0.0593642 0.0212542 -0.376231
v 0.307996 0.0212542 -0.224077
v 0.286552 0.0254484 -0.25213
v 0.309177 0.0249242 -0.222616
v 0.255204 0.616374 -0.222616
v 0.00745118 0.616374 -0.339885
v -6.01652e-05 0.475983 -0.35622
v 0.00848096 0.0763622 -0.383079
v 0.0254421 0.0593521 -0.380864
v 0.0848665 0.0657018 -0.373074
v 0.0593642 0.0254484 -0.376278
v -6.01652e-05 0.0848672 -0.382953
v 0.0843213 0.0254484 -0.372995
v 0.0777186 0.0212542 -0.373812
v 0.295093 0.0212542 -0.240884
v 0.288097 0.0212542 -0.249994
v 0.286491 0.0212542 -0.252083
v 0.280283 0.0212542 -0.260156
v 0.278253 0.0254484 -0.262858
v 0.278344 0.0424003 -0.262858
v 0.286613 0.0593521 -0.252224
v 0.301605 0.0593521 -0.2327
v 0.308117 0.0593521 -0.224218
v 0.309328 0.0569637 -0.222616
v 0.250086 0.616374 -0.229292
v 0.256022 0.610898 -0.222616
v 0.00941987 0.616374 -0.339649
v 0.00848096 0.601985 -0.341456
v 0.00848096 0.585034 -0.343435
v 0.000969618 0.475983 -0.35622
v -6.01652e-05 0.289629 -0.373168
v 0.00848096 0.093314 -0.382828
v 0.0254421 0.093314 -0.380644
v 0.0254421 0.0763622 -0.38088
v 0.0848665 0.0719349 -0.373074
v 0.0916206 0.0771195 -0.371911
v 0.0916206 0.0598181 -0.371896
v 0.0932864 0.0424003 -0.37155
v 0.0932864 0.0254484 -0.371487
v -6.01652e-05 0.093314 -0.382828
v 0.0865323 0.0212542 -0.372571
v 0.0841093 0.0212542 -0.372964
v 0.271469 0.0212542 -0.271497
v 0.271499 0.0254484 -0.271528
v 0.27159 0.0593521 -0.271607
v 0.278405 0.0593521 -0.262858
v 0.278435 0.0763622 -0.262858
v 0.286613 0.0763622 -0.25224
v 0.309359 0.0763622 -0.222616
v 0.250146 0.601985 -0.231962
v 0.249086 0.616374 -0.23058
v 0.257567 0.600413 -0.222616
v 0.0151443 0.616374 -0.338911
v 0.0175975 0.611131 -0.339225
v 0.0271382 0.586665 -0.340827
v 0.0254421 0.568024 -0.343168
v 0.00848096 0.568024 -0.345367
v 0.00848096 0.551072 -0.347267
v 0.00848096 0.53412 -0.349136
v 0.00848096 0.517168 -0.350958
v 0.00848096 0.500216 -0.352749
v 0.00739061 0.482274 -0.354759
v 0.0132967 0.466313 -0.355639
v 0.00481615 0.466313 -0.356707
v 0.00848096 0.432409 -0.359597
v 0.00848096 0.415457 -0.361215
v 0.00848096 0.398447 -0.362817
v 0.000878751 0.289629 -0.373168
v -6.01652e-05 0.211977 -0.377896
v -6.01652e-05 0.101819 -0.382608
v 0.00848096 0.110266 -0.382388
v 0.0254421 0.14417 -0.379294
v 0.0424032 0.093314 -0.378414
v 0.0847756 0.0832944 -0.373058
v 0.0780214 0.0771195 -0.373969
v 0.0932864 0.093314 -0.371377
v 0.110248 0.0763622 -0.366681
v 0.110248 0.0593521 -0.366665
v 0.110248 0.0254484 -0.366524
v 0.110248 0.0212542 -0.366477
v 0.0974661 0.0212542 -0.370215
v 0.0932864 0.0212542 -0.371424
v 0.265623 0.0212542 -0.276067
v 0.262837 0.0254484 -0.278282
v 0.262837 0.0593521 -0.278439
v 0.27159 0.0763622 -0.271622
v 0.271499 0.0902848 -0.271512
v 0.286461 0.093314 -0.252036
v 0.309056 0.093314 -0.222616
v 0.241908 0.616374 -0.239156
v 0.251388 0.585034 -0.233564
v 0.259808 0.585034 -0.222616
v 0.0256541 0.616374 -0.337544
v 0.0763253 0.616374 -0.330869
v 0.0763253 0.601985 -0.332565
v 0.0338923 0.59348 -0.339147
v 0.0763253 0.585034 -0.334544
v 0.0501871 0.575713 -0.339052
v 0.0436752 0.569247 -0.340639
v 0.0550331 0.564412 -0.339696
v 0.0254421 0.551072 -0.345068
v 0.0254421 0.53412 -0.346937
v 0.0254421 0.517168 -0.348775
v 0.0254421 0.500216 -0.350566
v 0.0254421 0.483264 -0.352325
v 0.0167495 0.457575 -0.356079
v 0.0100559 0.450875 -0.357587
v 0.0210503 0.446273 -0.356644
v 0.0261993 0.432758 -0.357272
v 0.0254421 0.415457 -0.359016
v 0.0254421 0.398447 -0.360618
v 0.0254421 0.381495 -0.362173
v 0.00848096 0.381495 -0.364356
v 0.00729974 0.29592 -0.371849
v 0.0039681 0.279842 -0.373561
v 0.00848096 0.245939 -0.375587
v 0.00848096 0.228929 -0.376812
v 0.00848096 0.211977 -0.377896
v 0.00848096 0.364543 -0.36588
v 0.00848096 0.347592 -0.367372
v 0.00848096 0.33064 -0.368817
v 0.00848096 0.313746 -0.370246
v -6.01652e-05 0.203588 -0.378383
v -6.01652e-05 0.110266 -0.382388
v -6.01652e-05 0.135723 -0.381713
v 0.00848096 0.14417 -0.381477
v 0.00848096 0.161121 -0.380786
v 0.0254421 0.161121 -0.378587
v 0.0689049 0.155179 -0.373199
v 0.0593642 0.14417 -0.374833
v 0.0839275 0.093314 -0.372948
v 0.0932864 0.127218 -0.370451
v 0.110248 0.093314 -0.366414
v 0.135689 0.085042 -0.35611
v 0.135719 0.0763622 -0.356126
v 0.135719 0.0634299 -0.356126
v 0.14417 0.0254484 -0.352482
v 0.127057 0.0254484 -0.359566
v 0.148349 0.0212542 -0.350691
v 0.254992 0.0212542 -0.284266
v 0.252054 0.0212542 -0.286528
v 0.252085 0.0254484 -0.28656
v 0.252145 0.0424003 -0.286607
v 0.252206 0.0593521 -0.286638
v 0.262837 0.0763622 -0.278455
v 0.252024 0.093314 -0.286497
v 0.264533 0.0948869 -0.27679
v 0.271287 0.101586 -0.271324
v 0.276769 0.0948869 -0.264538
v 0.286189 0.110266 -0.251674
v 0.292428 0.127218 -0.242831
v 0.307693 0.110266 -0.223669
v 0.307965 0.126169 -0.222616
v 0.240606 0.616374 -0.240632
v 0.2526 0.568024 -0.235151
v 0.253599 0.554101 -0.236423
v 0.254387 0.5428 -0.237444
v 0.262231 0.568024 -0.222616
v 0.0788998 0.616374 -0.330241
v 0.0858357 0.528411 -0.339445
v 0.0824132 0.539771 -0.338832
v 0.0763253 0.568024 -0.336476
v 0.0601517 0.551713 -0.340435
v 0.0765676 0.53412 -0.340215
v 0.0593642 0.517168 -0.344314
v 0.0763253 0.500216 -0.343874
v 0.0763253 0.483264 -0.345634
v 0.0254421 0.466313 -0.354053
v 0.0593642 0.466313 -0.349592
v 0.0763253 0.449361 -0.349058
v 0.0763253 0.432409 -0.350707
v 0.0422214 0.432758 -0.355168
v 0.0364365 0.427399 -0.35644
v 0.0518529 0.408292 -0.356236
v 0.0671179 0.388952 -0.356016
v 0.0765374 0.364077 -0.357021
v 0.0254421 0.364543 -0.363697
v 0.0606363 0.382602 -0.357445
v 0.0254421 0.296794 -0.36943
v 0.0254421 0.279842 -0.370796
v 0.0124486 0.279842 -0.372477
v 0.0157197 0.26924 -0.372901
v 0.00945016 0.263298 -0.374157
v 0.0190211 0.257939 -0.373325
v 0.0224739 0.245939 -0.373781
v 0.0269261 0.23021 -0.374346
v 0.0254421 0.211977 -0.375712
v 0.00848096 0.195025 -0.37887
v 0.0254421 0.347592 -0.365189
v 0.0254421 0.33064 -0.366634
v 0.0254421 0.313746 -0.368047
v -6.01652e-05 0.195025 -0.37887
v -6.01652e-05 0.14417 -0.381477
v -6.01652e-05 0.152733 -0.381131
v -6.01652e-05 0.161121 -0.380786
v 0.0254421 0.178073 -0.377644
v 0.0752653 0.160947 -0.372053
v 0.0787786 0.14417 -0.372273
v 0.0932864 0.14417 -0.369979
v 0.110248 0.127218 -0.365456
v 0.14417 0.110266 -0.351885
v 0.142474 0.0917412 -0.35311
v 0.181272 0.093314 -0.336963
v 0.181605 0.0763622 -0.337089
v 0.173125 0.0763622 -0.340623
v 0.181575 0.0593521 -0.337089
v 0.173094 0.0593521 -0.340607
v 0.14417 0.0424003 -0.352545
v 0.172943 0.0254484 -0.340545
v 0.174972 0.0212542 -0.339649
v 0.215739 0.0212542 -0.314392
v 0.243634 0.0254484 -0.293062
v 0.232579 0.0254484 -0.301544
v 0.213104 0.0424003 -0.31656
v 0.23267 0.0593521 -0.301623
v 0.213165 0.0763622 -0.316607
v 0.252206 0.0763622 -0.286654
v 0.232489 0.093314 -0.301481
v 0.251661 0.110266 -0.286214
v 0.261898 0.14417 -0.277167
v 0.270742 0.127218 -0.270774
v 0.271105 0.110266 -0.271135
v 0.277163 0.14417 -0.261915
v 0.277435 0.127218 -0.262292
v 0.285643 0.14417 -0.250936
v 0.300908 0.127218 -0.231774
v 0.30736 0.14417 -0.222616
v 0.237425 0.5428 -0.254392
v 0.236396 0.554101 -0.253606
v 0.235124 0.568024 -0.252632
v 0.233549 0.585034 -0.251423
v 0.231943 0.601985 -0.250182
v 0.23055 0.616374 -0.249114
v 0.254417 0.44138 -0.254439
v 0.263231 0.560858 -0.222616
v 0.264684 0.550431 -0.222616
v 0.266199 0.539479 -0.222616
v 0.266926 0.53412 -0.222616
v 0.265623 0.516527 -0.227423
v 0.254962 0.53412 -0.238213
v 0.0932864 0.616374 -0.326722
v 0.0932864 0.601985 -0.328482
v 0.0932864 0.585034 -0.330523
v 0.0932864 0.568024 -0.332534
v 0.0932864 0.551072 -0.334513
v 0.0921961 0.53412 -0.336806
v 0.0963455 0.517168 -0.337435
v 0.101192 0.490138 -0.338974
v 0.0878952 0.517168 -0.340058
v 0.0932864 0.432409 -0.347299
v 0.0855934 0.358077 -0.356283
v 0.0763253 0.517168 -0.342068
v 0.0823223 0.369378 -0.35578
v 0.0763253 0.415457 -0.352325
v 0.0763253 0.398447 -0.353927
v 0.0763253 0.347592 -0.358482
v 0.0424032 0.347592 -0.362958
v 0.0763253 0.296794 -0.362738
v 0.0424032 0.279842 -0.368566
v 0.0249877 0.263298 -0.372147
v 0.0309544 0.245939 -0.372665
v 0.0335592 0.236735 -0.373011
v 0.0593642 0.228929 -0.370168
v 0.0365879 0.225433 -0.373404
v 0.0482184 0.211977 -0.372712
v 0.0503385 0.202248 -0.372995
v 0.0763253 0.33064 -0.359927
v 0.0763253 0.313746 -0.361356
v 0.0424032 0.178073 -0.375414
v 0.0932864 0.161121 -0.369257
v 0.0763253 0.195025 -0.369979
v 0.0763253 0.178073 -0.370938
v 0.110248 0.14417 -0.364969
v 0.171641 0.127218 -0.34001
v 0.14417 0.14417 -0.350911
v 0.194992 0.093314 -0.329251
v 0.180121 0.127218 -0.336476
v 0.194992 0.127218 -0.328199
v 0.194992 0.0763622 -0.329534
v 0.194992 0.0593521 -0.329518
v 0.194992 0.0254484 -0.329377
v 0.181424 0.0254484 -0.33701
v 0.181363 0.0212542 -0.336995
v 0.206623 0.0212542 -0.321382
v 0.204533 0.0212542 -0.322984
v 0.204563 0.0254484 -0.323016
v 0.204624 0.0424003 -0.323063
v 0.204684 0.0763622 -0.32311
v 0.204654 0.0593521 -0.323094
v 0.204472 0.093314 -0.322953
v 0.203534 0.137004 -0.32223
v 0.231398 0.14417 -0.300633
v 0.250903 0.14417 -0.285649
v 0.270378 0.14417 -0.270397
v 0.250358 0.161121 -0.285224
v 0.261322 0.161121 -0.276743
v 0.276709 0.161121 -0.26135
v 0.285189 0.161121 -0.250371
v 0.300181 0.161121 -0.230847
v 0.306481 0.161121 -0.222616
v 0.238183 0.53412 -0.254988
v 0.219768 0.52177 -0.270821
v 0.218677 0.53412 -0.269973
v 0.189147 0.551072 -0.290298
v 0.196083 0.568024 -0.282601
v 0.186724 0.577577 -0.288444
v 0.223463 0.601985 -0.256701
v 0.223372 0.616374 -0.254643
v 0.259293 0.447963 -0.247088
v 0.26211 0.432409 -0.245894
v 0.265472 0.398447 -0.246774
v 0.266441 0.381495 -0.248046
v 0.26741 0.364543 -0.249287
v 0.268349 0.347592 -0.250496
v 0.255992 0.415457 -0.255994
v 0.251661 0.33064 -0.269266
v 0.250479 0.347592 -0.268355
v 0.249268 0.364543 -0.267428
v 0.248026 0.381495 -0.266455
v 0.246754 0.398447 -0.265481
v 0.24427 0.41435 -0.265528
v 0.245876 0.432409 -0.262135
v 0.247057 0.447963 -0.259308
v 0.243907 0.466313 -0.259434
v 0.242514 0.483264 -0.25835
v 0.24109 0.500216 -0.25725
v 0.239667 0.517168 -0.256135
v 0.256113 0.517168 -0.239674
v 0.257234 0.500216 -0.241119
v 0.258324 0.483264 -0.242549
v 0.259414 0.466313 -0.243946
v 0.268077 0.525615 -0.222616
v 0.269894 0.512158 -0.222616
v 0.265714 0.500216 -0.230124
v 0.268864 0.51979 -0.222616
v 0.103584 0.616374 -0.322937
v 0.105795 0.601985 -0.323848
v 0.102827 0.478837 -0.339586
v 0.0932864 0.449361 -0.345571
v 0.0932864 0.466313 -0.343812
v 0.0946494 0.484022 -0.341565
v 0.108339 0.585034 -0.324916
v 0.110248 0.551072 -0.328246
v 0.110248 0.53412 -0.330256
v 0.110248 0.517168 -0.33222
v 0.090924 0.500216 -0.340953
v 0.101161 0.320504 -0.355953
v 0.0932864 0.415457 -0.348963
v 0.0932864 0.398447 -0.350628
v 0.0932864 0.381495 -0.352231
v 0.0920749 0.364077 -0.354162
v 0.0960729 0.347592 -0.354728
v 0.0992531 0.33064 -0.355498
v 0.0875923 0.347592 -0.356738
v 0.0932864 0.279842 -0.361168
v 0.0932864 0.262891 -0.362534
v 0.0763253 0.279842 -0.364089
v 0.0593642 0.262891 -0.367655
v 0.0763253 0.245939 -0.366697
v 0.0763253 0.228929 -0.367922
v 0.0763253 0.211977 -0.369006
v 0.110248 0.161121 -0.364215
v 0.0932864 0.178073 -0.368267
v 0.170369 0.158209 -0.339476
v 0.171065 0.14417 -0.339759
v 0.196567 0.143237 -0.32666
v 0.203291 0.148306 -0.322042
v 0.179546 0.14417 -0.336225
v 0.194326 0.161121 -0.327382
v 0.197325 0.0212542 -0.327775
v 0.194992 0.0212542 -0.329314
v 0.269803 0.161121 -0.269832
v 0.230823 0.161121 -0.300209
v 0.202049 0.178073 -0.321084
v 0.227521 0.19654 -0.30024
v 0.249571 0.178073 -0.284628
v 0.260565 0.178073 -0.276146
v 0.276133 0.178073 -0.26058
v 0.284614 0.178073 -0.249601
v 0.306451 0.161704 -0.222616
v 0.213256 0.516527 -0.276507
v 0.192145 0.517168 -0.292607
v 0.190661 0.53412 -0.29146
v 0.199142 0.53412 -0.284957
v 0.230096 0.500216 -0.265732
v 0.203049 0.48909 -0.287957
v 0.185209 0.466313 -0.304371
v 0.183574 0.483264 -0.303288
v 0.181878 0.500216 -0.302204
v 0.174548 0.616374 -0.291727
v 0.17582 0.616374 -0.290816
v 0.184392 0.601985 -0.28667
v 0.203261 0.609209 -0.271151
v 0.211772 0.616374 -0.263549
v 0.268955 0.449361 -0.234334
v 0.269985 0.432409 -0.235685
v 0.267895 0.466313 -0.232952
v 0.270772 0.419302 -0.236706
v 0.265502 0.41435 -0.244292
v 0.271438 0.408001 -0.237585
v 0.271984 0.398447 -0.238308
v 0.282493 0.380388 -0.227328
v 0.282403 0.364543 -0.229763
v 0.289702 0.347883 -0.222616
v 0.290732 0.33064 -0.223669
v 0.291731 0.328834 -0.222616
v 0.285129 0.313746 -0.233313
v 0.270136 0.313746 -0.252837
v 0.256991 0.398447 -0.257015
v 0.252812 0.313746 -0.270146
v 0.244331 0.313746 -0.276664
v 0.213771 0.313746 -0.300115
v 0.21259 0.33064 -0.299235
v 0.210288 0.346077 -0.299361
v 0.211954 0.364543 -0.296062
v 0.227309 0.380388 -0.282507
v 0.238273 0.398447 -0.272015
v 0.237547 0.408001 -0.271465
v 0.235669 0.432409 -0.270004
v 0.234306 0.449361 -0.268968
v 0.232943 0.466313 -0.267915
v 0.231519 0.483264 -0.266832
v 0.266804 0.483264 -0.231554
v 0.271105 0.503012 -0.222616
v 0.272983 0.488566 -0.222616
v 0.104887 0.616374 -0.322403
v 0.114276 0.601985 -0.320345
v 0.110248 0.500216 -0.334136
v 0.109187 0.484022 -0.336398
v 0.106674 0.449361 -0.341189
v 0.127209 0.585034 -0.31711
v 0.111701 0.568897 -0.325513
v 0.130268 0.551072 -0.319953
v 0.132691 0.53412 -0.320958
v 0.134508 0.521362 -0.321696
v 0.136053 0.510061 -0.32234
v 0.127209 0.500216 -0.327115
v 0.110248 0.398447 -0.344927
v 0.110248 0.381495 -0.346592
v 0.110248 0.364543 -0.348225
v 0.102615 0.309261 -0.356456
v 0.0946191 0.314445 -0.357979
v 0.0908028 0.33064 -0.357461
v 0.0932864 0.296794 -0.359754
v 0.0932864 0.245939 -0.363854
v 0.0763253 0.262891 -0.365409
v 0.0932864 0.228929 -0.365142
v 0.0932864 0.211977 -0.366257
v 0.110248 0.178073 -0.363194
v 0.132751 0.161121 -0.354901
v 0.14417 0.161121 -0.350173
v 0.169551 0.16951 -0.339147
v 0.17682 0.162752 -0.336508
v 0.202807 0.161121 -0.32168
v 0.178031 0.178073 -0.335078
v 0.191994 0.211977 -0.325811
v 0.193569 0.178073 -0.326864
v 0.25899 0.211977 -0.274936
v 0.269046 0.178073 -0.269062
v 0.274922 0.211977 -0.259009
v 0.200474 0.211977 -0.319874
v 0.228915 0.211977 -0.298057
v 0.247996 0.211977 -0.283418
v 0.30424 0.193044 -0.222616
v 0.3053 0.178073 -0.222616
v 0.283402 0.211977 -0.248015
v 0.303665 0.201083 -0.222616
v 0.193599 0.500216 -0.293722
v 0.186179 0.45606 -0.305015
v 0.203988 0.477789 -0.28868
v 0.194992 0.466313 -0.29702
v 0.196416 0.483381 -0.293753
v 0.170429 0.529751 -0.305706
v 0.180182 0.517168 -0.301089
v 0.160858 0.616374 -0.298999
v 0.169096 0.541052 -0.305031
v 0.167673 0.551072 -0.304403
v 0.183029 0.616374 -0.285601
v 0.184997 0.616374 -0.284094
v 0.202564 0.616374 -0.270617
v 0.275467 0.449361 -0.225868
v 0.276497 0.432409 -0.227203
v 0.274407 0.466313 -0.22447
v 0.273771 0.482449 -0.222616
v 0.276345 0.41435 -0.230203
v 0.283402 0.403806 -0.222616
v 0.286582 0.375903 -0.222616
v 0.287461 0.368097 -0.222616
v 0.285068 0.389359 -0.222616
v 0.293306 0.313746 -0.222616
v 0.2937 0.30996 -0.222616
v 0.292488 0.296794 -0.225962
v 0.276315 0.295513 -0.247198
v 0.270802 0.300348 -0.253732
v 0.271378 0.289047 -0.25447
v 0.25796 0.381495 -0.257989
v 0.25372 0.300348 -0.270837
v 0.225946 0.296794 -0.292513
v 0.20529 0.313746 -0.306617
v 0.196234 0.346077 -0.310104
v 0.202716 0.350679 -0.304654
v 0.194992 0.33064 -0.312696
v 0.193236 0.364543 -0.310371
v 0.199233 0.398447 -0.301984
v 0.208985 0.415457 -0.292513
v 0.230187 0.41435 -0.276366
v 0.196598 0.432409 -0.299973
v 0.19369 0.450002 -0.300068
v 0.214801 0.449361 -0.283952
v 0.213407 0.466313 -0.2829
v 0.273316 0.483264 -0.223072
v 0.112065 0.616374 -0.319434
v 0.127209 0.616374 -0.313167
v 0.151166 0.605539 -0.304623
v 0.127209 0.601985 -0.314989
v 0.145866 0.500216 -0.319387
v 0.127209 0.483264 -0.329016
v 0.150379 0.466313 -0.321256
v 0.127209 0.466313 -0.330853
v 0.112943 0.466313 -0.336759
v 0.153347 0.443535 -0.322481
v 0.117305 0.432409 -0.338565
v 0.108824 0.432409 -0.342068
v 0.152862 0.594238 -0.305329
v 0.154256 0.585034 -0.305895
v 0.14417 0.568024 -0.312162
v 0.14417 0.551072 -0.314188
v 0.14417 0.53412 -0.316199
v 0.142686 0.516294 -0.318885
v 0.162494 0.534877 -0.308502
v 0.111792 0.416506 -0.342461
v 0.119879 0.411612 -0.339618
v 0.14417 0.398447 -0.330885
v 0.133932 0.364543 -0.338424
v 0.14417 0.381495 -0.33255
v 0.135174 0.353766 -0.338942
v 0.110248 0.347592 -0.349827
v 0.110248 0.33064 -0.351382
v 0.109066 0.314445 -0.35333
v 0.103948 0.296794 -0.357005
v 0.105704 0.279842 -0.357728
v 0.1074 0.262891 -0.358435
v 0.109066 0.245939 -0.359126
v 0.110248 0.211977 -0.361121
v 0.14417 0.178073 -0.349152
v 0.120545 0.211977 -0.356864
v 0.14417 0.211977 -0.347079
v 0.167673 0.195025 -0.338361
v 0.178031 0.211977 -0.332989
v 0.191116 0.228929 -0.32523
v 0.258112 0.228929 -0.274261
v 0.267471 0.211977 -0.267491
v 0.274225 0.228929 -0.258146
v 0.199566 0.228929 -0.319199
v 0.228915 0.228929 -0.296706
v 0.247117 0.228929 -0.282743
v 0.282705 0.228929 -0.247135
v 0.289217 0.228929 -0.238653
v 0.302483 0.216987 -0.222616
v 0.302877 0.211977 -0.222616
v 0.187148 0.444759 -0.305706
v 0.1863 0.304134 -0.322073
v 0.175093 0.483264 -0.308345
v 0.171701 0.517168 -0.306429
v 0.181636 0.347592 -0.31978
v 0.16734 0.398447 -0.321272
v 0.16528 0.415457 -0.320408
v 0.16319 0.432409 -0.319544
v 0.16107 0.466313 -0.316811
v 0.16107 0.483264 -0.314958
v 0.16107 0.500216 -0.313073
v 0.150591 0.616374 -0.30346
v 0.16522 0.568024 -0.303335
v 0.162706 0.585034 -0.302267
v 0.16107 0.517168 -0.311141
v 0.159192 0.551072 -0.307952
v 0.156739 0.568024 -0.306932
v 0.27795 0.449361 -0.222616
v 0.28001 0.432409 -0.222616
v 0.276224 0.46305 -0.222616
v 0.295033 0.296794 -0.222616
v 0.295608 0.291085 -0.222616
v 0.296729 0.279842 -0.222616
v 0.293336 0.279842 -0.227061
v 0.278889 0.279842 -0.245894
v 0.27268 0.262891 -0.256119
v 0.266592 0.228929 -0.266627
v 0.25893 0.364543 -0.258947
v 0.254447 0.289047 -0.271402
v 0.245876 0.279842 -0.27891
v 0.227037 0.279842 -0.293361
v 0.206411 0.296794 -0.307481
v 0.19366 0.297785 -0.317125
v 0.194992 0.313746 -0.314471
v 0.190752 0.398447 -0.308455
v 0.18945 0.415457 -0.307466
v 0.19793 0.415457 -0.300979
v 0.188117 0.432409 -0.30646
v 0.1495 0.616374 -0.303932
v 0.148137 0.483264 -0.32033
v 0.15471 0.432409 -0.323063
v 0.127209 0.432409 -0.334466
v 0.14417 0.415457 -0.329173
v 0.168763 0.386563 -0.321853
v 0.14417 0.364543 -0.334183
v 0.170066 0.375262 -0.322403
v 0.16107 0.364543 -0.327162
v 0.171277 0.364543 -0.322921
v 0.16107 0.347592 -0.328749
v 0.142898 0.347941 -0.336272
v 0.127209 0.33064 -0.344361
v 0.127209 0.313746 -0.345885
v 0.141353 0.296794 -0.341503
v 0.114185 0.279842 -0.354225
v 0.139566 0.313746 -0.340764
v 0.115881 0.262891 -0.354932
v 0.127209 0.245939 -0.351618
v 0.118486 0.236152 -0.356
v 0.111792 0.229861 -0.359252
v 0.119516 0.224851 -0.35644
v 0.166401 0.211977 -0.337843
v 0.165008 0.228929 -0.337262
v 0.178031 0.228929 -0.331827
v 0.190086 0.245939 -0.324555
v 0.257112 0.245939 -0.273491
v 0.273468 0.245939 -0.25714
v 0.189056 0.262891 -0.323864
v 0.198566 0.245939 -0.318429
v 0.23791 0.24157 -0.28868
v 0.244482 0.246696 -0.283151
v 0.28313 0.246696 -0.244496
v 0.299969 0.24623 -0.222616
v 0.30103 0.234405 -0.222616
v 0.301514 0.228929 -0.222616
v 0.196446 0.279842 -0.316796
v 0.187118 0.292833 -0.322576
v 0.178031 0.245939 -0.330492
v 0.178031 0.262891 -0.32911
v 0.178031 0.279842 -0.32768
v 0.179606 0.297785 -0.325466
v 0.17679 0.313746 -0.325262
v 0.173155 0.347592 -0.323722
v 0.18527 0.313746 -0.32157
v 0.298395 0.262891 -0.222616
v 0.256083 0.262891 -0.27269
v 0.255023 0.279842 -0.271858
v 0.245876 0.262891 -0.280559
v 0.228127 0.262891 -0.294177
v 0.217072 0.262891 -0.302659
v 0.207501 0.279842 -0.308329
v 0.16107 0.33064 -0.330304
v 0.16107 0.313746 -0.331843
v 0.149833 0.296794 -0.337984
v 0.15159 0.279842 -0.338723
v 0.152529 0.270813 -0.339099
v 0.15365 0.259512 -0.339555
v 0.163402 0.245939 -0.336602
v 0.14417 0.228929 -0.345916
v 0.187966 0.279842 -0.323141
v 0.197537 0.262891 -0.317628
v 0.15998 0.26423 -0.336539
v 0.16107 0.279842 -0.33478
v 0.16107 0.296794 -0.333319
f 1 2 6
f 1 6 12
f 1 12 22
f 1 22 46
f 1 46 84
f 1 84 138
f 1 138 207
f 1 207 210
f 1 210 209
f 1 209 208
f 1 208 140
f 1 140 139
f 1 139 85
f 1 85 55
f 1 55 27
f 1 27 15
f 1 15 8
f 1 8 3
f 1 3 7
f 1 7 4
f 1 4 9
f 1 9 16
f 1 16 29
f 1 29 57
f 1 57 56
f 1 56 97
f 1 97 96
f 1 96 95
f 1 95 154
f 1 154 225
f 1 225 298
f 1 298 386
f 1 386 385
f 1 385 300
f 1 300 299
f 1 299 226
f 1 226 156
f 1 156 155
f 1 155 98
f 1 98 58
f 1 58 33
f 1 33 32
f 1 32 31
f 1 31 30
f 1 30 17
f 1 17 10
f 1 10 5
f 1 5 2
f 2 5 6
f 3 8 13
f 3 13 7
f 4 7 14
f 4 14 9
f 5 10 19
f 5 19 39
f 5 39 64
f 5 64 104
f 5 104 168
f 5 168 242
f 5 242 315
f 5 315 395
f 5 395 480
f 5 480 479
f 5 479 482
f 5 482 575
f 5 575 574
f 5 574 649
f 5 649 648
f 5 648 647
f 5 647 659
f 5 659 598
f 5 598 597
f 5 597 596
f 5 596 506
f 5 506 505
f 5 505 421
f 5 421 419
f 5 419 503
f 5 503 502
f 5 502 504
f 5 504 501
f 5 501 594
f 5 594 593
f 5 593 595
f 5 595 499
f 5 499 440
f 5 440 439
f 5 439 348
f 5 348 350
f 5 350 347
f 5 347 253
f 5 253 252
f 5 252 251
f 5 251 250
f 5 250 173
f 5 173 107
f 5 107 67
f 5 67 41
f 5 41 20
f 5 20 11
f 5 11 6
f 6 11 20
f 6 20 40
f 6 40 66
f 6 66 105
f 6 105 169
f 6 169 248
f 6 248 323
f 6 323 409
f 6 409 495
f 6 495 494
f 6 494 493
f 6 493 406
f 6 406 405
f 6 405 490
f 6 490 587
f 6 587 614
f 6 614 528
f 6 528 527
f 6 527 441
f 6 441 351
f 6 351 256
f 6 256 174
f 6 174 109
f 6 109 108
f 6 108 68
f 6 68 42
f 6 42 21
f 6 21 12
f 7 13 24
f 7 24 14
f 8 15 23
f 8 23 13
f 9 14 26
f 9 26 16
f 10 17 18
f 10 18 19
f 12 21 45
f 12 45 22
f 13 23 49
f 13 49 24
f 14 24 25
f 14 25 26
f 15 27 23
f 16 26 28
f 16 28 29
f 17 30 18
f 18 30 31
f 18 31 32
f 18 32 33
f 18 33 34
f 18 34 35
f 18 35 36
f 18 36 37
f 18 37 38
f 18 38 19
f 19 38 39
f 20 41 40
f 21 42 43
f 21 43 44
f 21 44 45
f 22 45 83
f 22 83 46
f 23 27 47
f 23 47 48
f 23 48 49
f 24 49 25
f 25 49 50
f 25 50 51
f 25 51 52
f 25 52 53
f 25 53 54
f 25 54 28
f 25 28 26
f 27 55 47
f 28 54 56
f 28 56 57
f 28 57 29
f 33 58 34
f 34 58 59
f 34 59 35
f 35 59 60
f 35 60 61
f 35 61 36
f 36 61 62
f 36 62 63
f 36 63 37
f 37 63 64
f 37 64 38
f 38 64 39
f 40 65 66
f 40 41 67
f 40 67 65
f 42 68 69
f 42 69 43
f 43 69 44
f 44 69 70
f 44 70 71
f 44 71 72
f 44 72 45
f 45 72 73
f 45 73 74
f 45 74 75
f 45 75 76
f 45 76 77
f 45 77 78
f 45 78 79
f 45 79 80
f 45 80 81
f 45 81 82
f 45 82 83
f 46 83 133
f 46 133 84
f 47 55 85
f 47 85 86
f 47 86 48
f 48 86 87
f 48 87 145
f 48 145 88
f 48 88 89
f 48 89 49
f 49 89 90
f 49 90 50
f 50 90 89
f 50 89 51
f 51 89 91
f 51 91 92
f 51 92 53
f 51 53 52
f 53 93 54
f 53 92 93
f 54 93 94
f 54 94 95
f 54 95 96
f 54 96 97
f 54 97 56
f 58 98 59
f 59 98 99
f 59 99 100
f 59 100 60
f 60 100 160
f 60 160 101
f 60 101 62
f 60 62 61
f 62 101 102
f 62 102 103
f 62 103 63
f 63 103 104
f 63 104 64
f 65 105 66
f 65 67 106
f 65 106 105
f 67 107 106
f 68 108 69
f 69 108 109
f 69 109 110
f 69 110 111
f 69 111 70
f 70 111 112
f 70 112 113
f 70 113 71
f 71 113 114
f 71 114 115
f 71 115 116
f 71 116 73
f 71 73 72
f 73 116 117
f 73 117 74
f 74 117 118
f 74 118 75
f 75 118 119
f 75 119 76
f 76 119 77
f 77 120 78
f 77 119 120
f 78 121 79
f 78 120 121
f 79 121 122
f 79 122 80
f 80 122 123
f 80 123 124
f 80 124 81
f 81 124 125
f 81 125 126
f 81 126 82
f 82 126 127
f 82 127 128
f 82 128 83
f 83 129 130
f 83 130 131
f 83 131 132
f 83 132 133
f 83 128 134
f 83 134 135
f 83 135 136
f 83 136 137
f 83 137 129
f 84 133 138
f 85 139 86
f 86 139 140
f 86 140 141
f 86 141 87
f 87 141 142
f 87 142 143
f 87 143 144
f 87 144 145
f 88 146 89
f 88 145 146
f 89 146 91
f 91 146 147
f 91 147 148
f 91 148 92
f 92 148 149
f 92 149 150
f 92 150 151
f 92 151 93
f 93 152 153
f 93 153 94
f 93 151 152
f 94 153 95
f 95 153 152
f 95 152 154
f 98 155 99
f 99 155 156
f 99 156 157
f 99 157 158
f 99 158 100
f 100 158 159
f 100 159 232
f 100 232 160
f 101 160 102
f 102 160 161
f 102 161 162
f 102 162 163
f 102 163 164
f 102 164 103
f 103 164 165
f 103 165 104
f 104 165 166
f 104 166 167
f 104 167 168
f 105 106 170
f 105 170 171
f 105 171 172
f 105 172 169
f 106 107 170
f 107 173 170
f 109 174 175
f 109 175 176
f 109 176 110
f 110 112 111
f 110 176 112
f 112 177 113
f 112 176 177
f 113 177 115
f 113 115 114
f 115 178 116
f 115 177 176
f 115 176 178
f 116 176 117
f 116 178 176
f 117 176 179
f 117 179 118
f 118 179 180
f 118 180 181
f 118 181 119
f 119 181 182
f 119 182 120
f 120 182 184
f 120 184 183
f 120 183 121
f 121 183 184
f 121 184 185
f 121 185 123
f 121 123 122
f 123 186 187
f 123 187 124
f 123 185 186
f 124 187 188
f 124 188 189
f 124 189 125
f 125 189 126
f 126 189 190
f 126 190 127
f 127 191 192
f 127 192 134
f 127 134 128
f 127 190 193
f 127 193 191
f 129 194 195
f 129 195 196
f 129 196 130
f 129 137 194
f 130 196 197
f 130 197 198
f 130 198 131
f 131 199 200
f 131 200 201
f 131 201 132
f 131 198 199
f 132 201 202
f 132 202 133
f 133 202 203
f 133 203 138
f 134 192 204
f 134 204 135
f 135 204 205
f 135 205 136
f 136 205 137
f 137 205 206
f 137 206 194
f 138 203 207
f 140 208 141
f 141 208 209
f 141 209 142
f 142 209 210
f 142 210 207
f 142 207 203
f 142 203 211
f 142 211 143
f 143 212 144
f 143 211 212
f 144 212 213
f 144 213 145
f 145 213 146
f 146 213 214
f 146 214 147
f 147 214 148
f 148 214 215
f 148 215 216
f 148 216 149
f 149 216 217
f 149 217 218
f 149 218 219
f 149 219 220
f 149 220 150
f 150 220 151
f 151 220 221
f 151 221 222
f 151 222 223
f 151 223 152
f 152 223 222
f 152 222 221
f 152 221 224
f 152 224 225
f 152 225 154
f 156 226 227
f 156 227 157
f 157 227 158
f 158 227 159
f 159 227 228
f 159 228 229
f 159 229 230
f 159 230 231
f 159 231 232
f 160 232 161
f 161 232 231
f 161 231 233
f 161 233 307
f 161 307 234
f 161 234 162
f 162 234 235
f 162 235 163
f 163 236 237
f 163 237 238
f 163 238 239
f 163 239 164
f 163 235 236
f 164 239 240
f 164 240 165
f 165 240 166
f 166 240 241
f 166 241 167
f 167 241 168
f 168 241 242
f 169 243 244
f 169 244 245
f 169 245 246
f 169 246 247
f 169 247 248
f 169 172 249
f 169 249 243
f 170 173 171
f 171 173 250
f 171 250 251
f 171 251 172
f 172 251 252
f 172 252 253
f 172 253 254
f 172 254 255
f 172 255 249
f 174 256 175
f 175 256 257
f 175 257 258
f 175 258 259
f 175 259 260
f 175 260 261
f 175 261 262
f 175 262 263
f 175 263 264
f 175 264 265
f 175 265 266
f 175 266 185
f 175 185 182
f 175 182 176
f 176 182 181
f 176 181 267
f 176 267 179
f 179 267 180
f 180 267 181
f 182 185 184
f 185 266 268
f 185 268 186
f 186 269 189
f 186 189 187
f 186 268 269
f 187 189 188
f 189 269 270
f 189 270 190
f 190 270 268
f 190 268 193
f 191 271 272
f 191 272 204
f 191 204 192
f 191 193 268
f 191 268 271
f 194 273 274
f 194 274 195
f 194 206 283
f 194 283 273
f 195 274 275
f 195 275 197
f 195 197 196
f 197 275 199
f 197 199 198
f 199 275 200
f 200 276 277
f 200 277 201
f 200 275 276
f 201 277 278
f 201 278 279
f 201 279 202
f 202 280 281
f 202 281 211
f 202 211 203
f 202 279 280
f 204 272 205
f 205 282 283
f 205 283 206
f 205 272 282
f 211 284 212
f 211 281 284
f 212 285 213
f 212 284 286
f 212 286 287
f 212 287 285
f 213 285 214
f 214 285 288
f 214 288 215
f 215 288 290
f 215 290 216
f 216 289 217
f 216 290 289
f 217 289 218
f 218 291 219
f 218 289 292
f 218 292 293
f 218 293 291
f 219 291 294
f 219 294 295
f 219 295 221
f 219 221 220
f 221 295 296
f 221 296 297
f 221 297 224
f 224 297 298
f 224 298 225
f 226 299 228
f 226 228 227
f 228 299 300
f 228 300 301
f 228 301 302
f 228 302 229
f 229 302 230
f 230 303 231
f 230 302 304
f 230 304 303
f 231 303 233
f 233 303 305
f 233 305 306
f 233 306 382
f 233 382 307
f 234 307 308
f 234 308 235
f 235 309 236
f 235 308 310
f 235 310 311
f 235 311 309
f 236 309 238
f 236 238 237
f 238 240 239
f 238 309 312
f 238 312 313
f 238 313 240
f 240 242 241
f 240 313 314
f 240 314 242
f 242 314 315
f 243 316 317
f 243 317 318
f 243 318 319
f 243 319 244
f 243 249 316
f 244 319 320
f 244 320 245
f 245 320 321
f 245 321 246
f 246 321 322
f 246 322 247
f 247 322 323
f 247 323 248
f 249 324 325
f 249 325 326
f 249 326 327
f 249 327 328
f 249 328 329
f 249 329 330
f 249 330 331
f 249 331 332
f 249 332 333
f 249 333 334
f 249 334 335
f 249 335 336
f 249 336 337
f 249 337 338
f 249 338 339
f 249 339 340
f 249 340 341
f 249 341 342
f 249 342 316
f 249 255 343
f 249 343 344
f 249 344 345
f 249 345 346
f 249 346 324
f 253 347 254
f 254 348 349
f 254 349 343
f 254 343 255
f 254 347 350
f 254 350 348
f 256 351 257
f 257 351 258
f 258 351 352
f 258 352 263
f 258 263 259
f 259 263 260
f 260 263 262
f 260 262 261
f 263 353 265
f 263 265 354
f 263 354 355
f 263 355 356
f 263 356 264
f 263 352 357
f 263 357 358
f 263 358 359
f 263 359 360
f 263 360 353
f 264 356 361
f 264 361 355
f 264 355 354
f 264 354 265
f 265 353 362
f 265 362 363
f 265 363 266
f 266 363 364
f 266 364 365
f 266 365 366
f 266 366 367
f 266 367 368
f 266 368 362
f 266 362 369
f 266 369 370
f 266 370 371
f 266 371 372
f 266 372 273
f 266 273 283
f 266 283 282
f 266 282 268
f 268 282 271
f 268 270 269
f 271 282 272
f 273 372 274
f 274 372 373
f 274 373 275
f 275 373 374
f 275 374 276
f 276 374 277
f 277 374 278
f 278 375 376
f 278 376 279
f 278 374 375
f 279 376 280
f 280 376 281
f 281 376 286
f 281 286 284
f 285 377 288
f 285 287 286
f 285 286 376
f 285 376 378
f 285 378 377
f 288 377 379
f 288 379 290
f 289 290 380
f 289 380 383
f 289 383 292
f 290 379 380
f 291 293 381
f 291 381 382
f 291 382 306
f 291 306 305
f 291 305 303
f 291 303 294
f 292 383 293
f 293 383 384
f 293 384 381
f 294 303 295
f 295 303 304
f 295 304 302
f 295 302 296
f 296 301 300
f 296 300 385
f 296 385 386
f 296 386 298
f 296 298 297
f 296 302 301
f 307 382 308
f 308 382 310
f 309 311 387
f 309 387 312
f 310 382 388
f 310 388 389
f 310 389 390
f 310 390 391
f 310 391 392
f 310 392 311
f 311 392 387
f 312 387 393
f 312 393 394
f 312 394 313
f 313 394 314
f 314 394 395
f 314 395 315
f 316 342 317
f 317 396 397
f 317 397 398
f 317 398 399
f 317 399 318
f 317 342 400
f 317 400 401
f 317 401 396
f 318 399 319
f 319 321 320
f 319 399 398
f 319 398 402
f 319 402 403
f 319 403 321
f 321 403 404
f 321 404 405
f 321 405 406
f 321 406 407
f 321 407 408
f 321 408 322
f 322 408 323
f 323 408 409
f 324 410 411
f 324 411 325
f 324 346 412
f 324 412 410
f 325 411 413
f 325 413 414
f 325 414 326
f 326 414 415
f 326 415 416
f 326 416 327
f 327 416 417
f 327 417 328
f 328 417 418
f 328 418 329
f 329 418 419
f 329 419 420
f 329 420 421
f 329 421 422
f 329 422 423
f 329 423 330
f 330 423 424
f 330 424 425
f 330 425 331
f 331 425 426
f 331 426 427
f 331 427 428
f 331 428 429
f 331 429 332
f 332 429 430
f 332 430 333
f 333 430 431
f 333 431 334
f 334 432 335
f 334 431 432
f 335 432 433
f 335 433 336
f 336 433 434
f 336 434 337
f 337 434 435
f 337 435 338
f 338 435 436
f 338 436 339
f 339 436 340
f 340 436 437
f 340 437 400
f 340 400 341
f 341 400 342
f 343 349 344
f 344 349 438
f 344 438 345
f 345 438 412
f 345 412 346
f 348 439 349
f 349 439 440
f 349 440 438
f 351 441 352
f 352 441 442
f 352 442 357
f 353 360 443
f 353 443 444
f 353 444 445
f 353 445 362
f 355 361 356
f 357 442 446
f 357 446 447
f 357 447 358
f 358 448 359
f 358 447 448
f 359 448 449
f 359 449 450
f 359 450 360
f 360 450 451
f 360 451 452
f 360 452 443
f 362 445 453
f 362 453 454
f 362 454 455
f 362 455 456
f 362 456 371
f 362 371 370
f 362 370 457
f 362 457 369
f 362 368 364
f 362 364 363
f 364 368 367
f 364 367 365
f 365 367 366
f 369 457 458
f 369 458 459
f 369 459 370
f 370 459 457
f 371 456 460
f 371 460 461
f 371 461 372
f 372 461 373
f 373 461 374
f 374 461 460
f 374 460 462
f 374 462 375
f 375 462 463
f 375 463 376
f 376 463 378
f 377 378 463
f 377 463 464
f 377 464 465
f 377 465 379
f 379 383 380
f 379 465 466
f 379 466 467
f 379 467 468
f 379 468 383
f 381 384 382
f 382 384 469
f 382 469 388
f 383 468 470
f 383 470 471
f 383 471 472
f 383 472 384
f 384 472 469
f 387 392 473
f 387 473 474
f 387 474 475
f 387 475 393
f 388 469 389
f 389 469 471
f 389 471 476
f 389 476 390
f 390 476 477
f 390 477 478
f 390 478 391
f 391 478 473
f 391 473 392
f 393 475 394
f 394 479 480
f 394 480 395
f 394 475 481
f 394 481 482
f 394 482 479
f 396 401 397
f 397 401 483
f 397 483 484
f 397 484 398
f 398 484 402
f 400 437 401
f 401 437 436
f 401 436 485
f 401 485 486
f 401 486 487
f 401 487 483
f 402 488 403
f 402 484 488
f 403 488 404
f 404 488 489
f 404 489 405
f 405 489 488
f 405 488 491
f 405 491 492
f 405 492 490
f 406 493 407
f 407 493 494
f 407 494 408
f 408 494 495
f 408 495 409
f 410 496 411
f 410 412 496
f 411 496 497
f 411 497 413
f 412 498 496
f 412 438 499
f 412 499 498
f 413 500 415
f 413 415 414
f 413 497 500
f 415 500 501
f 415 501 417
f 415 417 416
f 417 502 503
f 417 503 418
f 417 501 504
f 417 504 502
f 418 503 419
f 419 421 420
f 421 505 422
f 422 505 506
f 422 506 507
f 422 507 508
f 422 508 423
f 423 509 424
f 423 508 510
f 423 510 509
f 424 509 510
f 424 510 511
f 424 511 512
f 424 512 425
f 425 512 426
f 426 512 427
f 427 512 513
f 427 513 514
f 427 514 428
f 428 514 429
f 429 515 516
f 429 516 430
f 429 514 517
f 429 517 515
f 430 516 518
f 430 518 519
f 430 519 431
f 431 519 432
f 432 519 433
f 433 519 520
f 433 520 521
f 433 521 434
f 434 522 523
f 434 523 524
f 434 524 435
f 434 521 520
f 434 520 522
f 435 524 436
f 436 525 485
f 436 524 523
f 436 523 525
f 438 526 499
f 438 440 526
f 440 499 526
f 441 527 442
f 442 527 528
f 442 528 529
f 442 529 530
f 442 530 446
f 443 452 444
f 444 452 531
f 444 531 532
f 444 532 533
f 444 533 534
f 444 534 535
f 444 535 445
f 445 535 534
f 445 534 533
f 445 533 536
f 445 536 537
f 445 537 538
f 445 538 453
f 446 530 529
f 446 529 539
f 446 539 540
f 446 540 541
f 446 541 447
f 447 541 448
f 448 541 542
f 448 542 543
f 448 543 449
f 449 543 450
f 450 544 451
f 450 543 545
f 450 545 544
f 451 544 531
f 451 531 452
f 453 538 546
f 453 546 547
f 453 547 548
f 453 548 550
f 453 550 454
f 454 549 455
f 454 550 549
f 455 549 551
f 455 551 552
f 455 552 456
f 456 552 553
f 456 553 554
f 456 554 555
f 456 555 462
f 456 462 460
f 457 459 458
f 462 555 556
f 462 556 557
f 462 557 558
f 462 558 559
f 462 559 463
f 463 559 464
f 464 560 465
f 464 559 561
f 464 561 560
f 465 560 466
f 466 560 467
f 467 470 468
f 467 560 562
f 467 562 563
f 467 563 470
f 469 472 471
f 470 563 564
f 470 564 565
f 470 565 471
f 471 565 476
f 473 478 571
f 473 571 566
f 473 566 474
f 474 566 567
f 474 567 568
f 474 568 475
f 475 568 481
f 476 565 569
f 476 569 570
f 476 570 571
f 476 571 477
f 477 571 478
f 481 568 572
f 481 572 573
f 481 573 574
f 481 574 575
f 481 575 482
f 483 487 484
f 484 576 577
f 484 577 578
f 484 578 579
f 484 579 488
f 484 487 486
f 484 486 576
f 485 525 486
f 486 525 523
f 486 523 576
f 488 579 580
f 488 580 581
f 488 581 582
f 488 582 583
f 488 583 584
f 488 584 585
f 488 585 586
f 488 586 491
f 490 529 587
f 490 492 588
f 490 588 589
f 490 589 529
f 491 586 590
f 491 590 545
f 491 545 543
f 491 543 542
f 491 542 591
f 491 591 592
f 491 592 540
f 491 540 492
f 492 540 588
f 496 593 594
f 496 594 497
f 496 498 593
f 497 594 500
f 498 499 595
f 498 595 593
f 500 594 501
f 506 596 507
f 507 596 597
f 507 597 598
f 507 598 599
f 507 599 600
f 507 600 508
f 508 600 510
f 510 600 601
f 510 601 602
f 510 602 603
f 510 603 511
f 511 603 604
f 511 604 512
f 512 604 605
f 512 605 513
f 513 605 606
f 513 606 665
f 513 665 607
f 513 607 514
f 514 607 608
f 514 608 609
f 514 609 517
f 515 518 516
f 515 517 577
f 515 577 518
f 517 609 577
f 518 577 610
f 518 610 519
f 519 610 611
f 519 611 612
f 519 612 520
f 520 612 522
f 522 613 523
f 522 612 611
f 522 611 613
f 523 613 576
f 528 614 529
f 529 614 587
f 529 589 539
f 531 586 615
f 531 615 532
f 531 544 586
f 532 615 533
f 533 584 536
f 533 615 585
f 533 585 584
f 536 583 616
f 536 616 617
f 536 617 537
f 536 584 583
f 537 617 618
f 537 618 547
f 537 547 546
f 537 546 538
f 539 589 540
f 540 589 588
f 540 592 541
f 541 592 591
f 541 591 542
f 544 590 586
f 544 545 590
f 547 618 548
f 548 618 581
f 548 581 619
f 548 619 550
f 549 620 551
f 549 550 620
f 550 619 621
f 550 621 620
f 551 620 622
f 551 622 623
f 551 623 624
f 551 624 625
f 551 625 626
f 551 626 552
f 552 626 553
f 553 626 627
f 553 627 554
f 554 627 555
f 555 628 669
f 555 669 629
f 555 629 556
f 555 627 630
f 555 630 628
f 556 629 631
f 556 631 557
f 557 631 558
f 558 631 632
f 558 632 633
f 558 633 634
f 558 634 559
f 559 634 635
f 559 635 561
f 560 561 562
f 561 635 562
f 562 636 563
f 562 635 637
f 562 637 636
f 563 636 564
f 564 636 638
f 564 638 565
f 565 638 639
f 565 639 569
f 566 571 640
f 566 640 602
f 566 602 567
f 567 602 568
f 568 602 641
f 568 641 572
f 569 639 642
f 569 642 643
f 569 643 644
f 569 644 570
f 570 644 571
f 571 644 645
f 571 645 640
f 572 641 646
f 572 646 573
f 573 646 647
f 573 647 648
f 573 648 649
f 573 649 574
f 576 613 577
f 577 613 611
f 577 611 610
f 577 609 608
f 577 608 650
f 577 650 651
f 577 651 638
f 577 638 652
f 577 652 653
f 577 653 654
f 577 654 655
f 577 655 656
f 577 656 657
f 577 657 623
f 577 623 621
f 577 621 658
f 577 658 578
f 578 658 579
f 579 658 580
f 580 658 619
f 580 619 581
f 581 618 582
f 582 618 583
f 583 618 616
f 585 615 586
f 598 659 599
f 599 659 600
f 600 659 601
f 601 659 647
f 601 647 646
f 601 646 641
f 601 641 602
f 602 640 660
f 602 660 661
f 602 661 604
f 602 604 603
f 604 661 605
f 605 661 660
f 605 660 662
f 605 662 663
f 605 663 664
f 605 664 606
f 606 664 675
f 606 675 665
f 607 665 650
f 607 650 608
f 616 618 617
f 619 658 621
f 620 621 622
f 621 623 622
f 623 657 624
f 624 657 666
f 624 666 625
f 625 666 667
f 625 667 626
f 626 667 630
f 626 630 627
f 628 630 667
f 628 667 668
f 628 668 669
f 629 669 670
f 629 670 631
f 631 670 632
f 632 670 671
f 632 671 672
f 632 672 673
f 632 673 633
f 633 673 635
f 633 635 634
f 635 673 637
f 636 637 638
f 637 673 672
f 637 672 638
f 638 672 652
f 638 651 674
f 638 674 642
f 638 642 639
f 640 645 662
f 640 662 660
f 642 674 643
f 643 674 651
f 643 651 675
f 643 675 664
f 643 664 644
f 644 664 663
f 644 663 662
f 644 662 645
f 650 665 675
f 650 675 651
f 652 672 653
f 653 672 676
f 653 676 677
f 653 677 654
f 654 677 678
f 654 678 655
f 655 678 656
f 656 678 667
f 656 667 657
f 657 667 666
f 667 678 668
f 668 678 669
f 669 678 677
f 669 677 670
f 670 677 676
f 670 676 671
f 671 676 672
