v -0.211949 0.855344 0.144136
v -0.21318 0.852785 0.158995
v -0.195035 0.855115 0.158995
v -0.228909 0.855177 0.110225
v -0.228909 0.854886 0.127177
v -0.22957 0.85164 0.144608
v -0.221911 0.850329 0.158995
v -0.177984 0.851328 0.158995
v -0.228909 0.854553 0.0932727
v -0.245869 0.854616 0.0891133
v -0.245869 0.854408 0.0932727
v -0.242381 0.850662 0.127177
v -0.239692 0.849414 0.139265
v -0.22435 0.849788 0.157955
v -0.225536 0.848519 0.158995
v -0.175727 0.850267 0.158995
v -0.21701 0.849851 0.0891133
v -0.22859 0.853929 0.0891133
v -0.25868 0.85035 0.0891133
v -0.257905 0.850059 0.0932727
v -0.255694 0.848831 0.104985
v -0.25305 0.847 0.116286
v -0.250861 0.84494 0.127177
v -0.24669 0.840134 0.145374
v -0.235657 0.84673 0.150567
v -0.231394 0.844919 0.158995
v -0.160888 0.841798 0.158995
v -0.171282 0.846834 0.154644
v -0.211152 0.84571 0.0891133
v -0.260755 0.849206 0.0891133
v -0.26716 0.844254 0.0891133
v -0.266385 0.843505 0.0932727
v -0.259455 0.836451 0.127177
v -0.256606 0.833517 0.140182
v -0.244251 0.833787 0.158995
v -0.240444 0.8372 0.158995
v -0.253665 0.830001 0.15149
v -0.159771 0.840945 0.158995
v -0.14354 0.826879 0.158995
v -0.20853 0.843359 0.0891133
v -0.273634 0.837845 0.0891133
v -0.274979 0.835015 0.0932727
v -0.272586 0.832456 0.104841
v -0.270192 0.829168 0.116149
v -0.267912 0.825402 0.127177
v -0.262692 0.822011 0.143616
v -0.251317 0.825423 0.158995
v -0.257495 0.818681 0.156977
v -0.139665 0.82303 0.158995
v -0.199982 0.834849 0.0891133
v -0.275663 0.835764 0.0891133
v -0.277737 0.833247 0.0891133
v -0.284485 0.823592 0.0891133
v -0.283847 0.822135 0.0936079
v -0.271355 0.81402 0.135735
v -0.276324 0.823093 0.110389
v -0.254623 0.820658 0.158995
v -0.258749 0.813604 0.158995
v -0.269417 0.805469 0.148425
v -0.271309 0.796979 0.152605
v -0.127629 0.807175 0.158995
v -0.193394 0.825485 0.0891133
v -0.12658 0.805781 0.158995
v -0.288656 0.817287 0.0891133
v -0.287334 0.811773 0.0994912
v -0.26406 0.803097 0.158995
v -0.270397 0.788178 0.158995
v -0.268893 0.79209 0.158995
v -0.289637 0.800475 0.105046
v -0.287289 0.794316 0.116354
v -0.284941 0.788615 0.12704
v -0.276552 0.790217 0.145826
v -0.273338 0.785681 0.156019
v -0.191707 0.822864 0.0891133
v -0.125258 0.803596 0.158995
v -0.29007 0.814478 0.0891133
v -0.292144 0.805864 0.0936079
v -0.275139 0.772697 0.158995
v -0.300145 0.787013 0.0917266
v -0.289317 0.783018 0.121301
v -0.302174 0.784391 0.0891133
v -0.282798 0.771573 0.144136
v -0.188584 0.817204 0.0891133
v -0.116322 0.788448 0.158995
v -0.293603 0.80576 0.0891133
v -0.275481 0.771303 0.158995
v -0.287289 0.771573 0.133307
v -0.30279 0.771573 0.095886
v -0.305571 0.771573 0.0891133
v -0.288223 0.762918 0.135578
v -0.286103 0.756197 0.144088
v -0.18464 0.809713 0.0891133
v -0.108731 0.772156 0.158995
v -0.287129 0.737678 0.149883
v -0.282365 0.737678 0.158995
v -0.304226 0.758257 0.099327
v -0.306642 0.766476 0.0891133
v -0.289409 0.751619 0.13841
v -0.182429 0.804948 0.0891133
v -0.107386 0.768889 0.158995
v -0.28795 0.727004 0.151867
v -0.282798 0.735244 0.158995
v -0.305388 0.746958 0.102159
v -0.296544 0.737678 0.127177
v -0.307577 0.753409 0.0935121
v -0.311634 0.737678 0.0891133
v -0.310472 0.737678 0.0932727
v -0.177551 0.79288 0.0891133
v -0.102349 0.754595 0.158995
v -0.175933 0.788615 0.0891133
v -0.291483 0.721095 0.145388
v -0.294446 0.703762 0.144136
v -0.28877 0.715706 0.153686
v -0.285009 0.721865 0.158995
v -0.306141 0.737678 0.103979
v -0.307417 0.72072 0.107051
v -0.303907 0.72072 0.115527
v -0.319841 0.682643 0.0891133
v -0.312979 0.72072 0.0932727
v -0.0999324 0.746022 0.158995
v -0.171054 0.771573 0.0891133
v -0.30475 0.708839 0.117558
v -0.305548 0.697541 0.119474
v -0.296794 0.686804 0.144136
v -0.289614 0.703762 0.15552
v -0.287836 0.703762 0.158995
v -0.29912 0.669846 0.144136
v -0.31535 0.703762 0.0932727
v -0.310859 0.686804 0.110225
v -0.308124 0.703409 0.111237
v -0.32171 0.668681 0.0891133
v -0.32057 0.652888 0.0975894
v -0.319955 0.671428 0.0927254
v -0.317675 0.686804 0.0932727
v -0.0976072 0.737678 0.158995
v -0.167635 0.7573 0.0891133
v -0.290776 0.686804 0.158078
v -0.290913 0.682747 0.158995
v -0.29032 0.686804 0.158995
v -0.296293 0.642797 0.158995
v -0.30744 0.669846 0.124044
v -0.30475 0.657695 0.13449
v -0.301992 0.652368 0.142823
v -0.302379 0.642797 0.144916
v -0.299165 0.642797 0.152359
v -0.313162 0.669846 0.110225
v -0.323761 0.652847 0.0891133
v -0.321231 0.642797 0.099286
v -0.315441 0.652888 0.110225
v -0.0948946 0.723134 0.158995
v -0.1667 0.752597 0.0891133
v -0.245049 0.642797 0.158995
v -0.30573 0.642797 0.136857
v -0.324696 0.642797 0.0891133
v -0.324035 0.642797 0.0917061
v -0.319818 0.642797 0.102754
v -0.317128 0.642797 0.109329
v -0.0944614 0.72072 0.158995
v -0.163942 0.737678 0.0891133
v -0.129293 0.642942 0.158995
v -0.278216 0.642797 0.0891133
v -0.0924782 0.703762 0.158995
v -0.161936 0.72072 0.0891133
v -0.161116 0.642921 0.127177
v -0.182224 0.643234 0.0891133
v -0.114134 0.643546 0.158995
v -0.0924326 0.702847 0.158995
v -0.160774 0.703762 0.0891133
v -0.178303 0.643421 0.0891133
v -0.112835 0.643629 0.158995
v -0.0918172 0.686804 0.158995
v -0.160523 0.691382 0.0891133
v -0.171328 0.643962 0.0891133
v -0.11728 0.64392 0.151634
v -0.102691 0.650849 0.158995
v -0.169026 0.644212 0.0891133
v -0.0919311 0.685285 0.158995
v -0.161093 0.669846 0.0891133
v -0.16091 0.674299 0.0891133
v -0.160432 0.686804 0.0891133
v -0.100685 0.652888 0.158995
v -0.165128 0.652888 0.0891133
v -0.0972881 0.660171 0.158995
v -0.0930937 0.669846 0.158995
v -0.0931621 0.66968 0.158995
f 1 2 3
f 1 3 4
f 1 4 5
f 1 5 2
f 2 5 6
f 2 6 7
f 2 7 15
f 2 15 26
f 2 26 36
f 2 36 35
f 2 35 47
f 2 47 57
f 2 57 58
f 2 58 66
f 2 66 68
f 2 68 67
f 2 67 78
f 2 78 86
f 2 86 95
f 2 95 102
f 2 102 114
f 2 114 126
f 2 126 139
f 2 139 138
f 2 138 140
f 2 140 152
f 2 152 160
f 2 160 166
f 2 166 170
f 2 170 175
f 2 175 181
f 2 181 183
f 2 183 185
f 2 185 184
f 2 184 177
f 2 177 171
f 2 171 167
f 2 167 162
f 2 162 158
f 2 158 150
f 2 150 135
f 2 135 120
f 2 120 109
f 2 109 100
f 2 100 93
f 2 93 84
f 2 84 75
f 2 75 63
f 2 63 61
f 2 61 49
f 2 49 39
f 2 39 38
f 2 38 27
f 2 27 16
f 2 16 8
f 2 8 3
f 3 8 9
f 3 9 4
f 4 9 10
f 4 10 5
f 5 10 11
f 5 11 12
f 5 12 13
f 5 13 6
f 6 14 7
f 6 13 14
f 7 14 15
f 8 16 17
f 8 17 18
f 8 18 9
f 9 18 10
f 10 18 17
f 10 17 29
f 10 29 40
f 10 40 50
f 10 50 62
f 10 62 74
f 10 74 83
f 10 83 92
f 10 92 99
f 10 99 108
f 10 108 110
f 10 110 121
f 10 121 136
f 10 136 151
f 10 151 159
f 10 159 163
f 10 163 168
f 10 168 172
f 10 172 180
f 10 180 179
f 10 179 178
f 10 178 182
f 10 182 176
f 10 176 173
f 10 173 169
f 10 169 165
f 10 165 161
f 10 161 154
f 10 154 147
f 10 147 131
f 10 131 118
f 10 118 106
f 10 106 97
f 10 97 89
f 10 89 81
f 10 81 85
f 10 85 76
f 10 76 64
f 10 64 53
f 10 53 52
f 10 52 51
f 10 51 41
f 10 41 31
f 10 31 30
f 10 30 19
f 10 19 11
f 11 19 20
f 11 20 12
f 12 20 21
f 12 21 13
f 13 21 22
f 13 22 23
f 13 23 24
f 13 24 25
f 13 25 14
f 14 25 15
f 15 25 26
f 16 27 28
f 16 28 17
f 17 28 27
f 17 27 29
f 19 30 20
f 20 30 21
f 21 30 31
f 21 31 32
f 21 32 23
f 21 23 22
f 23 32 42
f 23 42 33
f 23 33 34
f 23 34 24
f 24 35 36
f 24 36 25
f 24 34 37
f 24 37 35
f 25 36 26
f 27 38 29
f 29 38 39
f 29 39 40
f 31 41 42
f 31 42 32
f 33 42 43
f 33 43 34
f 34 43 44
f 34 44 45
f 34 45 46
f 34 46 37
f 35 37 47
f 37 46 48
f 37 48 47
f 39 49 40
f 40 49 50
f 41 51 42
f 42 51 52
f 42 52 43
f 43 52 53
f 43 53 54
f 43 54 44
f 44 55 45
f 44 54 56
f 44 56 55
f 45 55 46
f 46 55 48
f 47 48 57
f 48 58 57
f 48 55 59
f 48 59 60
f 48 60 58
f 49 61 50
f 50 61 63
f 50 63 62
f 53 64 54
f 54 64 56
f 55 60 59
f 55 56 64
f 55 64 65
f 55 65 60
f 58 60 66
f 60 67 68
f 60 68 66
f 60 65 69
f 60 69 70
f 60 70 71
f 60 71 72
f 60 72 73
f 60 73 67
f 62 63 74
f 63 75 74
f 64 76 65
f 65 76 77
f 65 77 69
f 67 73 78
f 69 77 79
f 69 79 70
f 70 79 71
f 71 80 72
f 71 79 81
f 71 81 80
f 72 80 82
f 72 82 73
f 73 82 78
f 74 75 84
f 74 84 83
f 76 85 77
f 77 85 81
f 77 81 79
f 78 82 86
f 80 87 82
f 80 81 88
f 80 88 87
f 81 89 88
f 82 87 90
f 82 90 91
f 82 91 86
f 83 84 92
f 84 93 92
f 86 91 94
f 86 94 95
f 87 88 90
f 88 89 96
f 88 96 90
f 89 97 96
f 90 96 91
f 91 96 98
f 91 98 94
f 92 93 99
f 93 100 99
f 94 101 102
f 94 102 95
f 94 98 103
f 94 103 104
f 94 104 101
f 96 97 105
f 96 105 103
f 96 103 98
f 97 106 107
f 97 107 105
f 99 100 108
f 100 109 110
f 100 110 108
f 101 111 112
f 101 112 113
f 101 113 114
f 101 114 102
f 101 104 115
f 101 115 116
f 101 116 117
f 101 117 111
f 103 105 107
f 103 107 115
f 103 115 104
f 106 118 107
f 107 118 119
f 107 119 116
f 107 116 115
f 109 120 121
f 109 121 110
f 111 117 122
f 111 122 112
f 112 122 123
f 112 123 124
f 112 124 113
f 113 125 126
f 113 126 114
f 113 124 127
f 113 127 125
f 116 119 128
f 116 128 129
f 116 129 130
f 116 130 122
f 116 122 117
f 118 131 132
f 118 132 133
f 118 133 134
f 118 134 128
f 118 128 119
f 120 135 121
f 121 135 136
f 122 130 123
f 123 130 129
f 123 129 124
f 124 129 127
f 125 137 138
f 125 138 139
f 125 139 126
f 125 127 140
f 125 140 137
f 127 129 141
f 127 141 142
f 127 142 143
f 127 143 144
f 127 144 145
f 127 145 140
f 128 134 129
f 129 146 141
f 129 134 132
f 129 132 146
f 131 147 132
f 132 147 148
f 132 148 149
f 132 149 146
f 132 134 133
f 135 150 151
f 135 151 136
f 137 140 138
f 140 145 144
f 140 144 153
f 140 153 157
f 140 157 156
f 140 156 148
f 140 148 155
f 140 155 154
f 140 154 161
f 140 161 152
f 141 146 142
f 142 153 143
f 142 146 149
f 142 149 153
f 143 153 144
f 147 154 155
f 147 155 148
f 148 156 149
f 149 156 157
f 149 157 153
f 150 158 159
f 150 159 151
f 152 161 160
f 158 162 163
f 158 163 159
f 160 164 165
f 160 165 166
f 160 161 164
f 161 165 164
f 162 167 168
f 162 168 163
f 165 169 166
f 166 169 170
f 167 171 168
f 168 171 172
f 169 173 170
f 170 174 175
f 170 173 176
f 170 176 174
f 171 177 178
f 171 178 179
f 171 179 180
f 171 180 172
f 174 176 175
f 175 176 181
f 176 182 183
f 176 183 181
f 177 184 178
f 178 184 182
f 182 184 185
f 182 185 183
