v 0.159021 0.642466 0.245009
v 0.159021 0.642466 0.296313
v 0.0891146 0.642466 0.278209
v 0.159021 0.643008 0.127374
v 0.159021 0.651532 0.295105
v 0.15209 0.642466 0.299323
v 0.0891146 0.642466 0.324724
v 0.0891146 0.643425 0.178291
v 0.0932682 0.643279 0.178063
v 0.127182 0.642925 0.161098
v 0.159021 0.643633 0.112827
v 0.144138 0.669831 0.299118
v 0.159021 0.682648 0.290909
v 0.158077 0.686796 0.290772
v 0.155525 0.703761 0.28961
v 0.144987 0.642466 0.302401
v 0.0917833 0.642466 0.32404
v 0.0891146 0.652887 0.323744
v 0.0891146 0.644196 0.16901
v 0.151631 0.643925 0.117273
v 0.159021 0.650845 0.10268
v 0.13449 0.657701 0.30475
v 0.142818 0.652366 0.301991
v 0.153691 0.715703 0.288766
v 0.144138 0.686796 0.296792
v 0.119476 0.697529 0.305548
v 0.121256 0.686796 0.306278
v 0.110225 0.669831 0.313164
v 0.159021 0.686796 0.290316
v 0.159021 0.703761 0.287831
v 0.136905 0.642466 0.305753
v 0.0993379 0.642466 0.321236
v 0.0891146 0.668685 0.321715
v 0.0975861 0.652887 0.320574
v 0.0891146 0.652887 0.165134
v 0.159021 0.66014 0.0972529
v 0.159021 0.652887 0.10065
v 0.110225 0.652887 0.315421
v 0.11741 0.642466 0.313825
v 0.132889 0.642466 0.307418
v 0.151871 0.72702 0.287968
v 0.144138 0.703761 0.294444
v 0.117554 0.708846 0.30475
v 0.10705 0.720705 0.307418
v 0.111231 0.703406 0.308125
v 0.110225 0.686796 0.310838
v 0.0932682 0.686796 0.317679
v 0.102527 0.642466 0.319959
v 0.159021 0.721851 0.285004
v 0.0891146 0.674437 0.320939
v 0.0927276 0.671436 0.319959
v 0.0891146 0.669831 0.161098
v 0.159021 0.669831 0.0930574
v 0.109301 0.642466 0.317177
v 0.159021 0.735273 0.282792
v 0.149879 0.73767 0.287147
v 0.141401 0.73767 0.290658
v 0.127182 0.73767 0.296541
v 0.103977 0.73767 0.306141
v 0.0932682 0.73767 0.310473
v 0.0932682 0.720705 0.312981
v 0.0932682 0.703761 0.315353
v 0.0891146 0.682648 0.319822
v 0.0891146 0.674312 0.160916
v 0.159021 0.686796 0.0917805
v 0.159021 0.73767 0.282359
v 0.14409 0.756197 0.286098
v 0.138411 0.751612 0.289404
v 0.102157 0.746965 0.305388
v 0.159021 0.771557 0.275404
v 0.0891146 0.73767 0.311636
v 0.0935146 0.753405 0.307577
v 0.0891146 0.766472 0.306643
v 0.0891146 0.686796 0.160414
v 0.159021 0.702823 0.0923961
v 0.0891146 0.703761 0.160779
v 0.135578 0.762929 0.288241
v 0.144138 0.771557 0.282792
v 0.0993242 0.75824 0.304226
v 0.159021 0.7726 0.27513
v 0.156017 0.785688 0.273329
v 0.0891146 0.771557 0.305571
v 0.159021 0.703761 0.0924417
v 0.0891146 0.708763 0.161121
v 0.133306 0.771557 0.287284
v 0.0958822 0.771557 0.302789
v 0.145828 0.79021 0.276567
v 0.121304 0.78302 0.289336
v 0.159021 0.788189 0.270365
v 0.159021 0.792065 0.268905
v 0.152603 0.796984 0.2713
v 0.0891146 0.784396 0.302173
v 0.159021 0.720705 0.0944255
v 0.0891146 0.720705 0.161942
v 0.127038 0.788606 0.284935
v 0.159021 0.803111 0.264026
v 0.159021 0.813553 0.258759
v 0.156975 0.81868 0.257482
v 0.148429 0.805487 0.269407
v 0.135735 0.814011 0.271345
v 0.0994884 0.811781 0.287329
v 0.105052 0.800464 0.289632
v 0.116356 0.794316 0.287284
v 0.0917286 0.787001 0.300144
v 0.0936104 0.805862 0.292141
v 0.0891146 0.805758 0.2936
v 0.159021 0.723081 0.0948587
v 0.0891146 0.73767 0.163948
v 0.0891146 0.754593 0.16689
v 0.159021 0.82066 0.254609
v 0.151487 0.829997 0.253674
v 0.143611 0.821993 0.262703
v 0.127182 0.825411 0.267925
v 0.110389 0.823077 0.276316
v 0.0891146 0.817283 0.288652
v 0.0891146 0.81447 0.290088
v 0.159021 0.73767 0.0975722
v 0.0891146 0.771557 0.171063
v 0.159021 0.825411 0.251302
v 0.140183 0.833519 0.256615
v 0.159021 0.83379 0.244234
v 0.159021 0.83554 0.242296
v 0.145377 0.840125 0.246674
v 0.116151 0.829163 0.270205
v 0.0936104 0.822119 0.283841
v 0.0891146 0.823577 0.284479
v 0.159021 0.745964 0.0998752
v 0.0891146 0.788627 0.175942
v 0.159021 0.754614 0.102315
v 0.127182 0.836457 0.259443
v 0.104846 0.832456 0.272599
v 0.139266 0.8494 0.239696
v 0.127182 0.84494 0.250869
v 0.159021 0.844919 0.231396
v 0.150571 0.846732 0.23566
v 0.0891146 0.833248 0.277753
v 0.0891146 0.792878 0.177561
v 0.159021 0.768848 0.107354
v 0.0932682 0.835019 0.274971
v 0.127182 0.850671 0.242387
v 0.104983 0.848837 0.255703
v 0.157954 0.849796 0.224351
v 0.144604 0.85163 0.229572
v 0.127182 0.854881 0.228911
v 0.0932682 0.843502 0.266397
v 0.159021 0.848504 0.225536
v 0.0891146 0.83577 0.275678
v 0.0891146 0.804945 0.182441
v 0.159021 0.772162 0.108699
v 0.0891146 0.844252 0.267172
v 0.0932682 0.854402 0.245876
v 0.0932682 0.850067 0.257915
v 0.0891146 0.849191 0.260765
v 0.159021 0.850338 0.221865
v 0.159021 0.852047 0.216689
v 0.110225 0.855173 0.228911
v 0.0891146 0.85461 0.245876
v 0.159021 0.852776 0.2132
v 0.144138 0.85534 0.211969
v 0.0891146 0.806342 0.183034
v 0.159021 0.78846 0.116315
v 0.0891146 0.853631 0.249592
v 0.0891146 0.850338 0.25869
v 0.159021 0.85536 0.197102
v 0.0891146 0.854735 0.233061
v 0.0891146 0.809718 0.18463
v 0.159021 0.803549 0.125208
v 0.0891146 0.8172 0.188574
v 0.0891146 0.822869 0.191721
v 0.159021 0.85511 0.195027
v 0.0932682 0.854569 0.228911
v 0.0891146 0.853922 0.228592
v 0.159021 0.805779 0.126553
v 0.0891146 0.825495 0.193408
v 0.159021 0.851713 0.179089
v 0.159021 0.851338 0.177972
v 0.0891146 0.850588 0.218787
v 0.159021 0.807196 0.127625
v 0.0891146 0.834832 0.199975
v 0.159021 0.850296 0.17576
v 0.0891146 0.849837 0.217008
v 0.159021 0.823036 0.139642
v 0.0891146 0.836728 0.201822
v 0.159021 0.841793 0.160847
v 0.154642 0.846816 0.171268
v 0.0891146 0.845711 0.211148
v 0.159021 0.826891 0.143541
v 0.0891146 0.843356 0.208549
v 0.159021 0.841251 0.160095
v 0.159021 0.840959 0.159753
f 1 2 6
f 1 6 16
f 1 16 31
f 1 31 40
f 1 40 39
f 1 39 54
f 1 54 48
f 1 48 32
f 1 32 17
f 1 17 7
f 1 7 3
f 1 3 4
f 1 4 11
f 1 11 21
f 1 21 37
f 1 37 36
f 1 36 53
f 1 53 65
f 1 65 75
f 1 75 83
f 1 83 93
f 1 93 107
f 1 107 117
f 1 117 127
f 1 127 129
f 1 129 138
f 1 138 149
f 1 149 161
f 1 161 167
f 1 167 173
f 1 173 178
f 1 178 182
f 1 182 187
f 1 187 190
f 1 190 189
f 1 189 184
f 1 184 180
f 1 180 176
f 1 176 175
f 1 175 170
f 1 170 164
f 1 164 158
f 1 158 155
f 1 155 154
f 1 154 146
f 1 146 134
f 1 134 122
f 1 122 121
f 1 121 119
f 1 119 110
f 1 110 97
f 1 97 96
f 1 96 90
f 1 90 89
f 1 89 80
f 1 80 70
f 1 70 66
f 1 66 55
f 1 55 49
f 1 49 30
f 1 30 29
f 1 29 13
f 1 13 5
f 1 5 2
f 2 5 6
f 3 7 18
f 3 18 33
f 3 33 50
f 3 50 63
f 3 63 71
f 3 71 73
f 3 73 82
f 3 82 92
f 3 92 106
f 3 106 116
f 3 116 115
f 3 115 126
f 3 126 136
f 3 136 147
f 3 147 150
f 3 150 153
f 3 153 163
f 3 163 162
f 3 162 157
f 3 157 165
f 3 165 172
f 3 172 177
f 3 177 181
f 3 181 186
f 3 186 188
f 3 188 183
f 3 183 179
f 3 179 174
f 3 174 169
f 3 169 168
f 3 168 166
f 3 166 160
f 3 160 148
f 3 148 137
f 3 137 128
f 3 128 118
f 3 118 109
f 3 109 108
f 3 108 94
f 3 94 84
f 3 84 76
f 3 76 74
f 3 74 64
f 3 64 52
f 3 52 35
f 3 35 19
f 3 19 8
f 3 8 9
f 3 9 10
f 3 10 4
f 4 10 9
f 4 9 11
f 5 12 6
f 5 13 14
f 5 14 15
f 5 15 12
f 6 12 16
f 7 17 18
f 8 19 11
f 8 11 9
f 11 20 21
f 11 19 20
f 12 22 23
f 12 23 16
f 12 15 24
f 12 24 25
f 12 25 26
f 12 26 27
f 12 27 28
f 12 28 22
f 13 29 15
f 13 15 14
f 15 29 30
f 15 30 24
f 16 22 31
f 16 23 22
f 17 32 18
f 18 32 34
f 18 34 33
f 19 35 36
f 19 36 37
f 19 37 21
f 19 21 20
f 22 28 38
f 22 38 39
f 22 39 40
f 22 40 31
f 24 30 41
f 24 41 25
f 25 42 26
f 25 41 42
f 26 42 41
f 26 41 43
f 26 43 44
f 26 44 45
f 26 45 46
f 26 46 28
f 26 28 27
f 28 46 62
f 28 62 47
f 28 47 34
f 28 34 48
f 28 48 38
f 30 49 41
f 32 48 34
f 33 34 51
f 33 51 50
f 34 47 51
f 35 52 53
f 35 53 36
f 38 48 54
f 38 54 39
f 41 49 55
f 41 55 56
f 41 56 57
f 41 57 58
f 41 58 59
f 41 59 44
f 41 44 43
f 44 59 60
f 44 60 61
f 44 61 62
f 44 62 46
f 44 46 45
f 47 62 63
f 47 63 50
f 47 50 51
f 52 64 65
f 52 65 53
f 55 66 56
f 56 67 68
f 56 68 69
f 56 69 57
f 56 66 70
f 56 70 67
f 57 69 58
f 58 69 59
f 59 69 60
f 60 71 63
f 60 63 61
f 60 69 72
f 60 72 73
f 60 73 71
f 61 63 62
f 64 74 65
f 65 74 76
f 65 76 75
f 67 77 68
f 67 70 78
f 67 78 77
f 68 77 69
f 69 79 72
f 69 77 79
f 70 80 81
f 70 81 78
f 72 79 73
f 73 79 82
f 75 76 83
f 76 84 83
f 77 78 85
f 77 85 86
f 77 86 79
f 78 81 87
f 78 87 88
f 78 88 85
f 79 86 82
f 80 89 81
f 81 89 90
f 81 90 91
f 81 91 87
f 82 86 88
f 82 88 92
f 83 84 94
f 83 94 93
f 85 88 86
f 87 95 88
f 87 91 95
f 88 95 92
f 90 96 91
f 91 96 97
f 91 97 98
f 91 98 99
f 91 99 100
f 91 100 101
f 91 101 102
f 91 102 103
f 91 103 95
f 92 104 105
f 92 105 106
f 92 95 104
f 93 94 108
f 93 108 109
f 93 109 107
f 95 103 104
f 97 110 98
f 98 110 111
f 98 111 112
f 98 112 99
f 99 112 100
f 100 112 113
f 100 113 114
f 100 114 115
f 100 115 101
f 101 115 116
f 101 116 105
f 101 105 102
f 102 105 104
f 102 104 103
f 105 116 106
f 107 109 117
f 109 118 117
f 110 119 111
f 111 120 112
f 111 119 121
f 111 121 122
f 111 122 123
f 111 123 120
f 112 120 113
f 113 120 124
f 113 124 114
f 114 125 115
f 114 124 125
f 115 125 126
f 117 118 127
f 118 128 129
f 118 129 127
f 120 130 131
f 120 131 124
f 120 123 132
f 120 132 133
f 120 133 130
f 122 134 135
f 122 135 123
f 123 135 132
f 124 131 125
f 125 131 126
f 126 131 136
f 128 137 138
f 128 138 129
f 130 133 145
f 130 145 139
f 130 139 131
f 131 139 136
f 132 140 141
f 132 141 133
f 132 135 142
f 132 142 143
f 132 143 144
f 132 144 140
f 133 141 145
f 134 146 142
f 134 142 135
f 136 139 147
f 137 148 138
f 138 148 149
f 139 145 150
f 139 150 147
f 140 144 151
f 140 151 152
f 140 152 141
f 141 152 153
f 141 153 150
f 141 150 145
f 142 146 154
f 142 154 143
f 143 154 155
f 143 155 144
f 144 156 157
f 144 157 151
f 144 155 158
f 144 158 159
f 144 159 156
f 148 160 149
f 149 160 161
f 151 157 162
f 151 162 152
f 152 163 153
f 152 162 163
f 156 159 164
f 156 164 165
f 156 165 157
f 158 164 159
f 160 166 161
f 161 166 168
f 161 168 169
f 161 169 167
f 164 170 171
f 164 171 165
f 165 171 172
f 167 169 173
f 169 174 173
f 170 175 171
f 171 175 172
f 172 175 176
f 172 176 177
f 173 174 179
f 173 179 178
f 176 180 181
f 176 181 177
f 178 179 182
f 179 183 182
f 180 184 185
f 180 185 181
f 181 185 184
f 181 184 186
f 182 183 187
f 183 188 187
f 184 189 186
f 186 189 190
f 186 190 187
f 186 187 188
