v -0.235548 0.849921 -6.14792e-05
v -0.234891 0.849651 -6.14792e-05
v -0.182772 0.849526 -0.146016
v -0.193003 0.852999 -0.146016
v -0.195013 0.853415 -0.146016
v -0.210092 0.855349 -0.146016
v -0.228922 0.854558 -0.0932543
v -0.235548 0.854829 -0.0866396
v -0.235548 0.725732 -6.14792e-05
v -0.230676 0.845845 -6.14792e-05
v -0.164502 0.835718 -0.146016
v -0.173113 0.843163 -0.146016
v -0.174319 0.844036 -0.146016
v -0.211968 0.855328 -0.14413
v -0.228922 0.855182 -0.110213
v -0.212126 0.855016 -0.146016
v -0.235548 0.85487 -0.103598
v -0.235548 0.721282 -9.0052e-05
v -0.235536 0.721261 -6.14792e-05
v -0.226413 0.841977 -6.14792e-05
v -0.222369 0.837714 -6.14792e-05
v -0.218399 0.833493 -6.14792e-05
v -0.153905 0.823761 -0.146016
v -0.228922 0.85487 -0.127171
v -0.228326 0.851668 -0.146016
v -0.235548 0.853602 -0.120985
v -0.235548 0.721282 -0.00973364
v -0.227607 0.669835 -6.14792e-05
v -0.215122 0.828003 -6.14792e-05
v -0.141616 0.806002 -0.146016
v -0.22958 0.851626 -0.144601
v -0.235548 0.85119 -0.136486
v -0.235548 0.852812 -0.127171
v -0.229032 0.851439 -0.146016
v -0.227607 0.669835 -0.00849069
v -0.235548 0.739457 -0.146016
v -0.226036 0.661288 -6.14792e-05
v -0.211797 0.82243 -6.14792e-05
v -0.208606 0.816046 -6.14792e-05
v -0.205366 0.809558 -6.14792e-05
v -0.132968 0.788513 -0.146016
v -0.235548 0.850316 -0.141458
v -0.235548 0.848549 -0.146016
v -0.235548 0.849921 -0.142487
v -0.224489 0.652887 -0.00849069
v -0.168875 0.652887 -0.146016
v -0.170641 0.643903 -0.137229
v -0.186962 0.644132 -0.119299
v -0.203807 0.644153 -0.0857395
v -0.220884 0.659229 -0.0525369
v -0.221651 0.656172 -0.0424076
v -0.222443 0.651701 -0.0253348
v -0.224489 0.652887 -6.14792e-05
v -0.203588 0.805295 -6.14792e-05
v -0.125477 0.771066 -0.146016
v -0.220676 0.644215 -0.0196201
v -0.221066 0.643924 -0.00849069
v -0.222771 0.648374 -6.14792e-05
v -0.158863 0.643591 -0.146016
v -0.160361 0.643508 -0.143387
v -0.176987 0.643633 -0.125843
v -0.188143 0.64382 -0.110213
v -0.204611 0.643841 -0.0762959
v -0.218764 0.645276 -0.030921
v -0.201846 0.801094 -6.14792e-05
v -0.19762 0.788513 -6.14792e-05
v -0.121872 0.760294 -0.146016
v -0.221066 0.643924 -6.14792e-05
v -0.211968 0.643175 -0.00849069
v -0.216547 0.64355 -6.14792e-05
v -0.144064 0.643175 -0.146016
v -0.161104 0.642926 -0.127171
v -0.178046 0.643071 -0.110213
v -0.195013 0.643092 -0.0762959
v -0.193101 0.771565 -6.14792e-05
v -0.120154 0.754596 -0.146016
v -0.195013 0.642988 -0.059366
v -0.211968 0.643175 -6.14792e-05
v -0.128559 0.643654 -0.146016
v -0.144149 0.643134 -0.14413
v -0.191396 0.763143 -6.14792e-05
v -0.115964 0.737669 -0.146016
v -0.118522 0.748025 -0.146016
v -0.199605 0.643654 -6.14792e-05
v -0.127255 0.643716 -0.146016
v -0.189666 0.754596 -6.14792e-05
v -0.113236 0.720721 -0.146016
v -0.195342 0.646461 -6.14792e-05
v -0.117706 0.652887 -0.146016
v -0.191128 0.649248 -6.14792e-05
v -0.188375 0.746112 -6.14792e-05
v -0.187279 0.738563 -6.14792e-05
v -0.185464 0.721137 -6.14792e-05
v -0.111616 0.703752 -0.146016
v -0.112712 0.667734 -0.146016
v -0.185707 0.657732 -6.14792e-05
v -0.188436 0.653448 -6.14792e-05
v -0.184916 0.71311 -6.14792e-05
v -0.184282 0.703752 -6.14792e-05
v -0.11158 0.702546 -0.146016
v -0.11203 0.669835 -0.146016
v -0.184538 0.669835 -6.14792e-05
v -0.183978 0.686804 -6.14792e-05
v -0.111117 0.686804 -0.146016
f 1 2 3
f 1 3 4
f 1 4 5
f 1 5 6
f 1 6 7
f 1 7 8
f 1 8 17
f 1 17 26
f 1 26 33
f 1 33 32
f 1 32 42
f 1 42 44
f 1 44 43
f 1 43 36
f 1 36 27
f 1 27 18
f 1 18 9
f 1 9 19
f 1 19 28
f 1 28 37
f 1 37 53
f 1 53 58
f 1 58 68
f 1 68 70
f 1 70 78
f 1 78 84
f 1 84 88
f 1 88 90
f 1 90 97
f 1 97 96
f 1 96 102
f 1 102 103
f 1 103 99
f 1 99 98
f 1 98 93
f 1 93 92
f 1 92 91
f 1 91 86
f 1 86 81
f 1 81 75
f 1 75 66
f 1 66 65
f 1 65 54
f 1 54 40
f 1 40 39
f 1 39 38
f 1 38 29
f 1 29 22
f 1 22 21
f 1 21 20
f 1 20 10
f 1 10 2
f 2 10 11
f 2 11 12
f 2 12 13
f 2 13 3
f 3 13 12
f 3 12 11
f 3 11 23
f 3 23 30
f 3 30 41
f 3 41 55
f 3 55 67
f 3 67 76
f 3 76 83
f 3 83 82
f 3 82 87
f 3 87 94
f 3 94 100
f 3 100 104
f 3 104 101
f 3 101 95
f 3 95 89
f 3 89 85
f 3 85 79
f 3 79 71
f 3 71 59
f 3 59 46
f 3 46 36
f 3 36 43
f 3 43 34
f 3 34 25
f 3 25 16
f 3 16 6
f 3 6 5
f 3 5 4
f 6 14 15
f 6 15 8
f 6 8 7
f 6 16 14
f 8 15 17
f 9 18 19
f 10 20 11
f 11 20 21
f 11 21 22
f 11 22 23
f 14 16 24
f 14 24 15
f 15 24 17
f 16 25 24
f 17 24 26
f 18 27 35
f 18 35 28
f 18 28 19
f 22 29 30
f 22 30 23
f 24 25 31
f 24 31 32
f 24 32 33
f 24 33 26
f 25 34 31
f 27 36 35
f 28 35 37
f 29 38 30
f 30 38 39
f 30 39 40
f 30 40 41
f 31 34 42
f 31 42 32
f 34 43 44
f 34 44 42
f 35 45 37
f 35 36 45
f 36 46 47
f 36 47 48
f 36 48 49
f 36 49 50
f 36 50 51
f 36 51 52
f 36 52 45
f 37 45 53
f 40 54 55
f 40 55 41
f 45 52 56
f 45 56 57
f 45 57 58
f 45 58 53
f 46 59 47
f 47 59 60
f 47 60 61
f 47 61 48
f 48 61 62
f 48 62 49
f 49 62 63
f 49 63 56
f 49 56 64
f 49 64 50
f 50 64 51
f 51 64 56
f 51 56 52
f 54 65 55
f 55 65 66
f 55 66 67
f 56 63 57
f 57 68 58
f 57 63 69
f 57 69 70
f 57 70 68
f 59 71 60
f 60 71 72
f 60 72 73
f 60 73 61
f 61 73 62
f 62 73 74
f 62 74 63
f 63 74 69
f 66 75 76
f 66 76 67
f 69 74 77
f 69 77 78
f 69 78 70
f 71 79 80
f 71 80 72
f 72 80 78
f 72 78 77
f 72 77 74
f 72 74 73
f 75 81 82
f 75 82 83
f 75 83 76
f 78 80 79
f 78 79 84
f 79 85 84
f 81 86 82
f 82 86 87
f 84 85 88
f 85 89 90
f 85 90 88
f 86 91 87
f 87 91 92
f 87 92 93
f 87 93 94
f 89 95 96
f 89 96 97
f 89 97 90
f 93 98 94
f 94 98 99
f 94 99 100
f 95 101 96
f 96 101 102
f 99 103 104
f 99 104 100
f 101 104 102
f 102 104 103
