v -0.292672 0.615742 -6.14792e-05
v -0.222872 0.615742 -0.187923
v -0.339954 0.615742 -6.14792e-05
v -0.339765 0.0190472 -6.14792e-05
v -0.222872 0.0190472 -0.254397
v -0.222872 0.615742 -0.255093
v -0.339954 0.615742 -0.00750454
v -0.356231 0.475972 -6.14792e-05
v -0.382859 0.0190472 -6.14792e-05
v -0.222872 0.0190472 -0.308888
v -0.222872 0.608266 -0.256212
v -0.229035 0.615742 -0.250373
v -0.339593 0.615742 -0.0104092
v -0.341459 0.601958 -0.00850301
v -0.343435 0.585019 -0.00850301
v -0.356231 0.475972 -0.000969163
v -0.373168 0.289651 -6.14792e-05
v -0.382859 0.0190472 -0.00850301
v -0.382938 0.025472 -6.14792e-05
v -0.252056 0.0190472 -0.286499
v -0.232595 0.025472 -0.301536
v -0.224111 0.025472 -0.308041
v -0.222872 0.0247712 -0.308979
v -0.222872 0.600906 -0.257301
v -0.231968 0.601958 -0.250161
v -0.230635 0.615742 -0.249132
v -0.338072 0.615742 -0.0222092
v -0.339232 0.611128 -0.0176102
v -0.340816 0.586713 -0.0271409
v -0.343168 0.568081 -0.0254466
v -0.345364 0.568081 -0.00850301
v -0.347261 0.551084 -0.00850301
v -0.349128 0.534146 -0.00850301
v -0.350962 0.517208 -0.00850301
v -0.35275 0.500211 -0.00850301
v -0.354757 0.48228 -0.00738352
v -0.355636 0.466334 -0.0132835
v -0.356718 0.466334 -0.00481173
v -0.359603 0.4324 -0.00850301
v -0.361218 0.415461 -0.00850301
v -0.362802 0.398465 -0.00850301
v -0.364355 0.381526 -0.00850301
v -0.373168 0.289651 -0.000878397
v -0.377904 0.212027 -6.14792e-05
v -0.380664 0.0190472 -0.0254466
v -0.382938 0.025472 -0.00850301
v -0.382969 0.0338828 -6.14792e-05
v -0.258752 0.0190472 -0.281325
v -0.262845 0.025472 -0.278269
v -0.252119 0.025472 -0.286529
v -0.252166 0.0424103 -0.286589
v -0.243698 0.0424103 -0.293095
v -0.222872 0.0573628 -0.30913
v -0.222872 0.581048 -0.260176
v -0.225083 0.585019 -0.257906
v -0.233567 0.585019 -0.251401
v -0.238836 0.615742 -0.242264
v -0.337523 0.615742 -0.0263845
v -0.332567 0.601958 -0.0763378
v -0.337037 0.601958 -0.0424204
v -0.338652 0.601958 -0.0301363
v -0.339765 0.601958 -0.0216645
v -0.333179 0.615742 -0.059364
v -0.33906 0.575732 -0.0501963
v -0.340644 0.569249 -0.0436912
v -0.342839 0.551084 -0.0424204
v -0.345066 0.551084 -0.0254466
v -0.346948 0.534146 -0.0254466
v -0.348767 0.517208 -0.0254466
v -0.35057 0.500211 -0.0254466
v -0.352327 0.483273 -0.0254466
v -0.354052 0.466334 -0.0254466
v -0.356075 0.457573 -0.016763
v -0.357596 0.450856 -0.0100461
v -0.356639 0.446242 -0.0210594
v -0.355902 0.438708 -0.0323753
v -0.359023 0.415461 -0.0254466
v -0.360622 0.398465 -0.0254466
v -0.362175 0.381526 -0.0254466
v -0.365892 0.364588 -0.00850301
v -0.371851 0.2959 -0.00732301
v -0.37356 0.279838 -0.00396455
v -0.375583 0.245903 -0.00850301
v -0.376822 0.228965 -0.00850301
v -0.377904 0.212027 -0.00850301
v -0.367381 0.347591 -0.00850301
v -0.368824 0.330653 -0.00850301
v -0.370251 0.313773 -0.00850301
v -0.380319 0.169564 -6.14792e-05
v -0.379833 0.0190472 -0.0318307
v -0.380742 0.025472 -0.0254466
v -0.383001 0.0424103 -0.00850301
v -0.383032 0.0508211 -6.14792e-05
v -0.263441 0.0190472 -0.277694
v -0.271533 0.025472 -0.271492
v -0.271565 0.0424103 -0.271552
v -0.262845 0.059407 -0.27842
v -0.271486 0.0190472 -0.271461
v -0.252213 0.059407 -0.28662
v -0.243745 0.059407 -0.293125
v -0.222872 0.0763453 -0.309161
v -0.224221 0.059407 -0.308102
v -0.222872 0.568081 -0.262021
v -0.226667 0.568081 -0.259117
v -0.235151 0.568081 -0.252612
v -0.240687 0.615742 -0.24066
v -0.334543 0.585019 -0.0763378
v -0.332756 0.615742 -0.0625712
v -0.330936 0.615742 -0.0763378
v -0.338824 0.539753 -0.0823891
v -0.336472 0.568081 -0.0763378
v -0.33895 0.557801 -0.066323
v -0.34044 0.551727 -0.0601507
v -0.339577 0.54647 -0.0711035
v -0.34022 0.534088 -0.0765799
v -0.344313 0.517208 -0.059364
v -0.34654 0.517208 -0.0424204
v -0.343874 0.500211 -0.0763378
v -0.347873 0.483273 -0.059364
v -0.3501 0.483273 -0.0424204
v -0.351825 0.466334 -0.0424204
v -0.351292 0.449338 -0.059364
v -0.349049 0.449338 -0.0763378
v -0.350711 0.4324 -0.0763378
v -0.352327 0.415461 -0.0763378
v -0.355698 0.419608 -0.0477455
v -0.356906 0.414527 -0.0422389
v -0.356231 0.408277 -0.0518604
v -0.353926 0.398465 -0.0763378
v -0.356012 0.388944 -0.0671399
v -0.355353 0.382578 -0.0765194
v -0.361469 0.364588 -0.0424204
v -0.363696 0.364588 -0.0254466
v -0.372901 0.269266 -0.0157343
v -0.369436 0.296777 -0.0254466
v -0.374156 0.263309 -0.00944096
v -0.373325 0.257935 -0.0190322
v -0.37378 0.245903 -0.0224815
v -0.374344 0.23025 -0.0269291
v -0.373403 0.225402 -0.0365809
v -0.375708 0.212027 -0.0254466
v -0.376681 0.19503 -0.0254466
v -0.379833 0.178092 -0.00850301
v -0.365186 0.347591 -0.0254466
v -0.366629 0.330653 -0.0254466
v -0.368056 0.313773 -0.0254466
v -0.380789 0.161153 -0.00850301
v -0.380789 0.161153 -6.14792e-05
v -0.372964 0.0190472 -0.0840229
v -0.378515 0.025472 -0.0424204
v -0.380805 0.0424103 -0.0254466
v -0.383063 0.059407 -0.00850301
v -0.383063 0.059407 -6.14792e-05
v -0.278276 0.025472 -0.262838
v -0.278355 0.0424103 -0.262838
v -0.278433 0.059407 -0.262838
v -0.271612 0.059407 -0.271582
v -0.262845 0.0763453 -0.27842
v -0.252229 0.0763453 -0.28662
v -0.274905 0.0190472 -0.267074
v -0.24376 0.0763453 -0.293125
v -0.252041 0.0932836 -0.286468
v -0.222872 0.0932836 -0.308858
v -0.222872 0.550383 -0.264502
v -0.237441 0.54279 -0.254366
v -0.254393 0.54279 -0.237423
v -0.252636 0.568081 -0.235123
v -0.251413 0.585019 -0.23355
v -0.25019 0.601958 -0.231946
v -0.249155 0.615742 -0.230615
v -0.25444 0.441394 -0.254427
v -0.330168 0.615742 -0.079545
v -0.339452 0.528422 -0.0858383
v -0.34563 0.483273 -0.0763378
v -0.342071 0.517208 -0.0763378
v -0.338276 0.551727 -0.0765799
v -0.347355 0.466334 -0.0763378
v -0.356278 0.358105 -0.0855963
v -0.355777 0.369377 -0.0822983
v -0.357016 0.364062 -0.0765194
v -0.35849 0.347591 -0.0763378
v -0.362959 0.347591 -0.0424204
v -0.368557 0.279838 -0.0424204
v -0.366331 0.279838 -0.059364
v -0.365421 0.2629 -0.0763378
v -0.367209 0.296777 -0.0424204
v -0.371161 0.245903 -0.0424204
v -0.373011 0.236733 -0.0335553
v -0.372321 0.23025 -0.0422994
v -0.36793 0.228965 -0.0763378
v -0.369012 0.212027 -0.0763378
v -0.372713 0.212027 -0.0482296
v -0.372995 0.202273 -0.0503476
v -0.37541 0.178092 -0.0424204
v -0.378594 0.161153 -0.0254466
v -0.364402 0.330653 -0.0424204
v -0.365829 0.313773 -0.0424204
v -0.381479 0.144157 -0.00850301
v -0.381479 0.144157 -6.14792e-05
v -0.372352 0.0190472 -0.087684
v -0.372995 0.025472 -0.0843255
v -0.378578 0.0424103 -0.0424204
v -0.380868 0.059407 -0.0254466
v -0.383079 0.0763453 -6.14792e-05
v -0.383063 0.0763453 -0.00850301
v -0.380883 0.0763453 -0.0254466
v -0.286557 0.025472 -0.252097
v -0.286604 0.0424103 -0.252158
v -0.286509 0.0190472 -0.252037
v -0.286635 0.059407 -0.252188
v -0.286651 0.0763453 -0.252218
v -0.278449 0.0763453 -0.262838
v -0.271612 0.0763453 -0.271582
v -0.271518 0.0902464 -0.271492
v -0.264539 0.0948606 -0.276756
v -0.271314 0.101577 -0.27131
v -0.262657 0.11028 -0.277724
v -0.251304 0.127219 -0.285924
v -0.222872 0.144098 -0.307164
v -0.222935 0.144157 -0.307134
v -0.222872 0.534146 -0.266741
v -0.238209 0.534146 -0.254972
v -0.254989 0.534146 -0.238179
v -0.262108 0.534146 -0.228921
v -0.269981 0.534146 -0.218664
v -0.284957 0.534146 -0.199148
v -0.268805 0.551084 -0.217151
v -0.259144 0.568081 -0.226652
v -0.257921 0.585019 -0.225078
v -0.256698 0.601958 -0.223475
v -0.270671 0.615742 -0.202628
v -0.255679 0.615742 -0.222143
v -0.243949 0.466334 -0.259419
v -0.247085 0.447936 -0.259298
v -0.245893 0.4324 -0.262112
v -0.246787 0.398465 -0.26547
v -0.249296 0.364588 -0.267407
v -0.250504 0.347591 -0.268345
v -0.25168 0.330653 -0.269253
v -0.256008 0.415461 -0.25597
v -0.270153 0.313773 -0.252823
v -0.268365 0.347591 -0.250463
v -0.267425 0.364588 -0.249253
v -0.266468 0.381526 -0.248013
v -0.26548 0.398465 -0.246772
v -0.26214 0.4324 -0.245864
v -0.270012 0.4324 -0.235668
v -0.268977 0.449338 -0.234306
v -0.259301 0.447936 -0.247075
v -0.259427 0.466334 -0.243928
v -0.25836 0.483273 -0.242536
v -0.256134 0.517208 -0.239662
v -0.239683 0.517208 -0.256121
v -0.241126 0.500211 -0.257241
v -0.242553 0.483273 -0.25833
v -0.326796 0.615742 -0.0932814
v -0.32849 0.601958 -0.0932814
v -0.330529 0.585019 -0.0932814
v -0.332536 0.568081 -0.0932814
v -0.334512 0.551084 -0.0932814
v -0.336801 0.534088 -0.0922224
v -0.337444 0.517208 -0.0963676
v -0.338966 0.490106 -0.101209
v -0.340048 0.517208 -0.0878958
v -0.345583 0.449338 -0.0932814
v -0.347293 0.4324 -0.0932814
v -0.348971 0.415461 -0.0932814
v -0.350617 0.398465 -0.0932814
v -0.352233 0.381526 -0.0932814
v -0.354161 0.364062 -0.0920711
v -0.354726 0.347591 -0.096065
v -0.355965 0.320548 -0.101148
v -0.356733 0.347591 -0.0875932
v -0.361171 0.279838 -0.0932814
v -0.362536 0.2629 -0.0932814
v -0.364088 0.279838 -0.0763378
v -0.362739 0.296777 -0.0763378
v -0.361359 0.313773 -0.0763378
v -0.359932 0.330653 -0.0763378
v -0.363853 0.245903 -0.0932814
v -0.365139 0.228965 -0.0932814
v -0.366691 0.245903 -0.0763378
v -0.368934 0.245903 -0.059364
v -0.366268 0.212027 -0.0932814
v -0.367272 0.19503 -0.0932814
v -0.369263 0.161153 -0.0932814
v -0.369984 0.19503 -0.0763378
v -0.376367 0.161153 -0.0424204
v -0.373199 0.155196 -0.068925
v -0.379284 0.144157 -0.0254466
v -0.381934 0.127219 -0.00850301
v -0.381715 0.135629 -6.14792e-05
v -0.371396 0.0190472 -0.0932814
v -0.37149 0.025472 -0.0932814
v -0.378641 0.059407 -0.0424204
v -0.373074 0.0658319 -0.0848399
v -0.382828 0.0932836 -6.14792e-05
v -0.382828 0.0932836 -0.00850301
v -0.380648 0.0932836 -0.0254466
v -0.373058 0.0830038 -0.0847794
v -0.373968 0.0769294 -0.0780019
v -0.373074 0.0716727 -0.0848399
v -0.301548 0.025472 -0.232582
v -0.301627 0.059407 -0.232673
v -0.301501 0.0190472 -0.232521
v -0.323111 0.0763453 -0.204685
v -0.301486 0.0932836 -0.232491
v -0.286494 0.0932836 -0.252006
v -0.276787 0.0948606 -0.264533
v -0.277179 0.144157 -0.2619
v -0.270404 0.144157 -0.270372
v -0.26192 0.144157 -0.277149
v -0.250943 0.144157 -0.285621
v -0.222872 0.161153 -0.306286
v -0.250378 0.161153 -0.285198
v -0.241894 0.161153 -0.291703
v -0.222872 0.525969 -0.267861
v -0.265652 0.516507 -0.227408
v -0.29261 0.517208 -0.192159
v -0.291465 0.534146 -0.190646
v -0.290289 0.551084 -0.189134
v -0.289113 0.568081 -0.187591
v -0.288438 0.577543 -0.186713
v -0.282369 0.58391 -0.19343
v -0.287623 0.588874 -0.185654
v -0.286666 0.601958 -0.184414
v -0.285647 0.615742 -0.183082
v -0.232956 0.466334 -0.267891
v -0.234336 0.449338 -0.26895
v -0.235684 0.4324 -0.269979
v -0.236704 0.419316 -0.270765
v -0.244294 0.414352 -0.265501
v -0.237582 0.408043 -0.271431
v -0.228941 0.398465 -0.279177
v -0.222872 0.389762 -0.284835
v -0.222872 0.376153 -0.286378
v -0.222872 0.364588 -0.287679
v -0.222872 0.348526 -0.289434
v -0.222872 0.342043 -0.290129
v -0.223672 0.330653 -0.290735
v -0.222872 0.32931 -0.291491
v -0.222872 0.313773 -0.293125
v -0.25284 0.313773 -0.27013
v -0.257012 0.398465 -0.256999
v -0.300121 0.313773 -0.213762
v -0.290759 0.330653 -0.223656
v -0.271408 0.289067 -0.254457
v -0.276332 0.29555 -0.247196
v -0.28985 0.347591 -0.222476
v -0.288925 0.364588 -0.221266
v -0.282416 0.364588 -0.229738
v -0.272976 0.381526 -0.239541
v -0.279202 0.398465 -0.228921
v -0.271455 0.408043 -0.237544
v -0.265527 0.414352 -0.244261
v -0.29998 0.4324 -0.196607
v -0.30572 0.444782 -0.187167
v -0.290461 0.449338 -0.206319
v -0.276363 0.414352 -0.230192
v -0.286008 0.415461 -0.217454
v -0.300984 0.415461 -0.197938
v -0.267911 0.466334 -0.232945
v -0.266829 0.483273 -0.231523
v -0.265731 0.500211 -0.230101
v -0.222872 0.519661 -0.268708
v -0.230117 0.500211 -0.265713
v -0.23156 0.483273 -0.266802
v -0.322986 0.615742 -0.10369
v -0.328239 0.551084 -0.110225
v -0.330246 0.534146 -0.110225
v -0.332222 0.517208 -0.110225
v -0.339593 0.478834 -0.102842
v -0.343811 0.466334 -0.0932814
v -0.341553 0.483974 -0.0946429
v -0.324915 0.585019 -0.108349
v -0.348234 0.364588 -0.110225
v -0.356467 0.309276 -0.102631
v -0.35976 0.296777 -0.0932814
v -0.357972 0.314474 -0.0946127
v -0.357455 0.330653 -0.0908004
v -0.340267 0.466334 -0.104476
v -0.341177 0.449338 -0.106685
v -0.342071 0.4324 -0.108833
v -0.344925 0.398465 -0.110225
v -0.346587 0.381526 -0.110225
v -0.357 0.296777 -0.103932
v -0.357721 0.279838 -0.105687
v -0.358443 0.2629 -0.107411
v -0.361124 0.212027 -0.110225
v -0.363194 0.178092 -0.110225
v -0.364214 0.161153 -0.110225
v -0.364966 0.144157 -0.110225
v -0.369984 0.144157 -0.0932814
v -0.372274 0.144157 -0.0787886
v -0.372039 0.160978 -0.0752789
v -0.370941 0.178092 -0.0763378
v -0.37483 0.144157 -0.059364
v -0.377057 0.144157 -0.0424204
v -0.380193 0.11028 -0.0254466
v -0.382608 0.101694 -6.14792e-05
v -0.36953 0.0190472 -0.0996655
v -0.371553 0.0424103 -0.0932814
v -0.366534 0.025472 -0.110225
v -0.371913 0.0769294 -0.0916173
v -0.371898 0.0598743 -0.0916173
v -0.372948 0.0932836 -0.0839019
v -0.377512 0.127219 -0.0424204
v -0.373842 0.11028 -0.0737358
v -0.37138 0.0932836 -0.0932814
v -0.323017 0.025472 -0.204564
v -0.323064 0.0424103 -0.204625
v -0.308119 0.059407 -0.224201
v -0.32297 0.0190472 -0.204504
v -0.329525 0.0763453 -0.195003
v -0.329243 0.0932836 -0.195003
v -0.322954 0.0932836 -0.204474
v -0.307978 0.0932836 -0.224019
v -0.323095 0.059407 -0.204655
v -0.329509 0.059407 -0.195003
v -0.322233 0.137031 -0.203536
v -0.301203 0.11028 -0.232128
v -0.286212 0.11028 -0.251643
v -0.285647 0.144157 -0.250917
v -0.285224 0.161153 -0.250342
v -0.27674 0.161153 -0.261325
v -0.26984 0.161153 -0.269827
v -0.261356 0.161153 -0.276726
v -0.222872 0.178092 -0.305106
v -0.260587 0.178092 -0.276121
v -0.259019 0.212027 -0.27491
v -0.248026 0.212027 -0.283382
v -0.272239 0.500211 -0.221629
v -0.287952 0.489114 -0.203052
v -0.293723 0.500211 -0.193612
v -0.305014 0.456055 -0.186199
v -0.304371 0.466334 -0.1852
v -0.303289 0.483273 -0.183566
v -0.291763 0.615742 -0.174611
v -0.290634 0.615742 -0.176214
v -0.302207 0.500211 -0.181872
v -0.222872 0.482922 -0.273519
v -0.224472 0.466334 -0.274396
v -0.222872 0.449338 -0.277755
v -0.225867 0.449338 -0.275455
v -0.222872 0.44414 -0.27839
v -0.227216 0.4324 -0.276484
v -0.222872 0.414994 -0.2819
v -0.222872 0.424865 -0.28072
v -0.222872 0.398465 -0.283836
v -0.253734 0.300339 -0.270826
v -0.222872 0.296777 -0.294849
v -0.225961 0.296777 -0.292489
v -0.257984 0.381526 -0.257967
v -0.317136 0.297828 -0.193672
v -0.306614 0.313773 -0.205291
v -0.300984 0.296777 -0.214882
v -0.299369 0.346073 -0.210283
v -0.266625 0.228965 -0.26659
v -0.271863 0.279838 -0.255032
v -0.28767 0.2629 -0.236606
v -0.286854 0.279838 -0.235517
v -0.301831 0.279838 -0.216001
v -0.258941 0.364588 -0.258935
v -0.304654 0.350687 -0.202719
v -0.29606 0.364588 -0.211947
v -0.2933 0.380358 -0.213248
v -0.287748 0.385264 -0.219753
v -0.293504 0.398465 -0.210283
v -0.297016 0.466334 -0.195003
v -0.306457 0.4324 -0.188135
v -0.322076 0.304136 -0.18629
v -0.301988 0.398465 -0.199209
v -0.308449 0.398465 -0.190737
v -0.307461 0.415461 -0.189436
v -0.288674 0.477782 -0.20399
v -0.306645 0.615742 -0.143144
v -0.320351 0.601958 -0.114279
v -0.323456 0.551084 -0.121783
v -0.320947 0.534146 -0.132705
v -0.32551 0.568899 -0.111677
v -0.322703 0.563817 -0.119937
v -0.3217 0.521355 -0.134491
v -0.324883 0.516273 -0.128197
v -0.322892 0.500211 -0.137395
v -0.336394 0.483974 -0.109196
v -0.323848 0.483273 -0.139664
v -0.324773 0.466334 -0.141903
v -0.305328 0.594248 -0.152856
v -0.317105 0.585019 -0.127199
v -0.322013 0.57509 -0.118303
v -0.341929 0.364588 -0.125444
v -0.338934 0.353783 -0.135156
v -0.349833 0.347591 -0.110225
v -0.341114 0.381526 -0.123477
v -0.351386 0.330653 -0.110225
v -0.35333 0.314474 -0.109075
v -0.340753 0.313773 -0.139574
v -0.337241 0.313773 -0.148045
v -0.337993 0.296777 -0.149831
v -0.341506 0.296777 -0.141359
v -0.347371 0.296777 -0.127199
v -0.34883 0.279838 -0.127199
v -0.354224 0.279838 -0.114158
v -0.322484 0.443555 -0.15334
v -0.334465 0.4324 -0.127199
v -0.339044 0.422937 -0.118485
v -0.339624 0.411606 -0.119877
v -0.342463 0.416513 -0.111798
v -0.33677 0.398465 -0.129952
v -0.339107 0.270843 -0.152523
v -0.339562 0.259512 -0.153643
v -0.35562 0.245903 -0.117547
v -0.356012 0.236149 -0.118485
v -0.359117 0.245903 -0.109045
v -0.356859 0.212027 -0.120542
v -0.357894 0.178092 -0.123054
v -0.359242 0.2299 -0.111798
v -0.356435 0.224818 -0.119514
v -0.354898 0.161153 -0.132766
v -0.339483 0.158233 -0.170375
v -0.350915 0.144157 -0.144142
v -0.35551 0.127219 -0.134249
v -0.365939 0.11028 -0.110225
v -0.366409 0.0932836 -0.110225
v -0.36644 0.0190472 -0.110225
v -0.366597 0.0424103 -0.110225
v -0.366676 0.0763453 -0.110225
v -0.36666 0.059407 -0.110225
v -0.359556 0.025472 -0.127078
v -0.349755 0.0190472 -0.150557
v -0.359525 0.0190472 -0.126957
v -0.363853 0.0190472 -0.116488
v -0.356106 0.052106 -0.135671
v -0.329368 0.025472 -0.195003
v -0.326938 0.0190472 -0.198543
v -0.329447 0.0424103 -0.195003
v -0.337084 0.0763453 -0.1816
v -0.336958 0.0932836 -0.181297
v -0.328725 0.11028 -0.195003
v -0.328208 0.127219 -0.195003
v -0.326671 0.143281 -0.196577
v -0.337084 0.059407 -0.18157
v -0.300921 0.127219 -0.231765
v -0.322045 0.148304 -0.203294
v -0.292155 0.144157 -0.242445
v -0.3002 0.161153 -0.230827
v -0.284628 0.178092 -0.249586
v -0.276144 0.178092 -0.260569
v -0.274936 0.212027 -0.258996
v -0.274262 0.228965 -0.258118
v -0.267503 0.212027 -0.267467
v -0.258141 0.228965 -0.274245
v -0.222872 0.205719 -0.30314
v -0.247132 0.228965 -0.282717
v -0.228941 0.228965 -0.296695
v -0.222872 0.217459 -0.302262
v -0.222872 0.212027 -0.302686
v -0.293755 0.48339 -0.196425
v -0.308339 0.483273 -0.175095
v -0.307398 0.500211 -0.1734
v -0.306426 0.517208 -0.171706
v -0.305704 0.529707 -0.170405
v -0.299102 0.615742 -0.160814
v -0.301094 0.517208 -0.180178
v -0.30503 0.541038 -0.169104
v -0.222872 0.463531 -0.275969
v -0.222872 0.4324 -0.279812
v -0.235543 0.279838 -0.286832
v -0.255051 0.279838 -0.271855
v -0.222872 0.279838 -0.296544
v -0.227059 0.279838 -0.293337
v -0.314486 0.313773 -0.195003
v -0.316807 0.279838 -0.196456
v -0.322578 0.292805 -0.187106
v -0.312698 0.330653 -0.195003
v -0.256118 0.2629 -0.272672
v -0.257153 0.245903 -0.273458
v -0.273493 0.245903 -0.25712
v -0.272694 0.2629 -0.256091
v -0.302662 0.2629 -0.21706
v -0.283154 0.246721 -0.244473
v -0.29388 0.246721 -0.230494
v -0.309154 0.2629 -0.208589
v -0.310095 0.346073 -0.196244
v -0.310362 0.364588 -0.193249
v -0.303885 0.364588 -0.20172
v -0.302944 0.381526 -0.20048
v -0.309421 0.381526 -0.192008
v -0.33183 0.228965 -0.17803
v -0.330497 0.245903 -0.17803
v -0.329117 0.2629 -0.17803
v -0.32769 0.279838 -0.17803
v -0.325479 0.297828 -0.179603
v -0.32526 0.313773 -0.176789
v -0.323723 0.347591 -0.173158
v -0.322923 0.364588 -0.171282
v -0.322405 0.375218 -0.170072
v -0.321574 0.313773 -0.185261
v -0.303963 0.615742 -0.149589
v -0.304622 0.60552 -0.151162
v -0.316211 0.534146 -0.144142
v -0.312165 0.568081 -0.144142
v -0.307962 0.551084 -0.15918
v -0.308511 0.534905 -0.162508
v -0.311146 0.517208 -0.161086
v -0.313075 0.500211 -0.161086
v -0.320335 0.483273 -0.148136
v -0.321261 0.466334 -0.150375
v -0.30227 0.585019 -0.16269
v -0.303336 0.568081 -0.165201
v -0.305892 0.585019 -0.154248
v -0.334183 0.364588 -0.144142
v -0.328757 0.347591 -0.161086
v -0.336268 0.347942 -0.142902
v -0.342196 0.347942 -0.128591
v -0.327157 0.364588 -0.161086
v -0.339452 0.34251 -0.136427
v -0.34436 0.330653 -0.127199
v -0.321857 0.386549 -0.168741
v -0.337601 0.381526 -0.131949
v -0.340001 0.330653 -0.137728
v -0.33183 0.313773 -0.161086
v -0.336488 0.330653 -0.1462
v -0.33332 0.296777 -0.161086
v -0.334779 0.279838 -0.161086
v -0.319175 0.449279 -0.159815
v -0.319536 0.4324 -0.163174
v -0.320414 0.415461 -0.165261
v -0.327439 0.4324 -0.144142
v -0.336504 0.416513 -0.1262
v -0.321261 0.398465 -0.167349
v -0.336535 0.264243 -0.159997
v -0.336598 0.245903 -0.163416
v -0.344595 0.245903 -0.144142
v -0.337256 0.228965 -0.165019
v -0.353377 0.2299 -0.125989
v -0.347073 0.212027 -0.144142
v -0.339138 0.169506 -0.169558
v -0.337837 0.212027 -0.166411
v -0.336237 0.144157 -0.179542
v -0.339765 0.144157 -0.17104
v -0.335076 0.178092 -0.17803
v -0.336504 0.162789 -0.176819
v -0.340252 0.11028 -0.17222
v -0.353111 0.0917066 -0.142478
v -0.355949 0.0963208 -0.135308
v -0.356106 0.0849897 -0.135701
v -0.356122 0.0763453 -0.135731
v -0.356122 0.0633787 -0.135731
v -0.340549 0.025472 -0.172946
v -0.336974 0.0190472 -0.181327
v -0.340612 0.059407 -0.173098
v -0.337021 0.025472 -0.181418
v -0.337052 0.0424103 -0.181509
v -0.329274 0.0190472 -0.195003
v -0.340612 0.0763453 -0.173128
v -0.345348 0.0932836 -0.161086
v -0.327377 0.161153 -0.194338
v -0.321684 0.161153 -0.20281
v -0.321088 0.178092 -0.202023
v -0.311397 0.212027 -0.211523
v -0.28342 0.212027 -0.248013
v -0.28273 0.228965 -0.247105
v -0.288674 0.241581 -0.237907
v -0.237927 0.241581 -0.288647
v -0.230525 0.246721 -0.293851
v -0.222872 0.234806 -0.30081
v -0.222872 0.228965 -0.301324
v -0.32068 0.330653 -0.183476
v -0.319771 0.347591 -0.18163
v -0.316807 0.466334 -0.161086
v -0.314957 0.483273 -0.161086
v -0.303383 0.615742 -0.15095
v -0.304403 0.551084 -0.167652
v -0.306943 0.568081 -0.156729
v -0.228141 0.2629 -0.294154
v -0.245893 0.2629 -0.280538
v -0.222872 0.272712 -0.29724
v -0.317622 0.2629 -0.197515
v -0.318422 0.245903 -0.198574
v -0.323143 0.279838 -0.187954
v -0.237237 0.252854 -0.288133
v -0.323864 0.2629 -0.189043
v -0.324554 0.245903 -0.190102
v -0.325228 0.228965 -0.1911
v -0.332991 0.212027 -0.17803
v -0.330309 0.330653 -0.161086
v -0.325808 0.212027 -0.191978
v -0.326342 0.19503 -0.192764
v -0.352609 0.0763453 -0.144203
v -0.319881 0.212027 -0.20045
v -0.319191 0.228965 -0.199572
v -0.304214 0.228965 -0.219118
v -0.296703 0.228965 -0.228921
v -0.222872 0.253964 -0.299025
v -0.222872 0.246195 -0.299751
v -0.222872 0.2629 -0.298178
f 1 2 6
f 1 6 12
f 1 12 26
f 1 26 57
f 1 57 106
f 1 106 170
f 1 170 232
f 1 232 231
f 1 231 327
f 1 327 439
f 1 439 438
f 1 438 563
f 1 563 673
f 1 673 599
f 1 599 476
f 1 476 368
f 1 368 256
f 1 256 172
f 1 172 109
f 1 109 108
f 1 108 63
f 1 63 58
f 1 58 27
f 1 27 13
f 1 13 7
f 1 7 3
f 1 3 8
f 1 8 17
f 1 17 44
f 1 44 89
f 1 89 148
f 1 148 199
f 1 199 292
f 1 292 400
f 1 400 297
f 1 297 204
f 1 204 153
f 1 153 93
f 1 93 47
f 1 47 19
f 1 19 9
f 1 9 4
f 1 4 5
f 1 5 2
f 2 5 10
f 2 10 23
f 2 23 53
f 2 53 101
f 2 101 163
f 2 163 219
f 2 219 314
f 2 314 428
f 2 428 553
f 2 553 557
f 2 557 556
f 2 556 668
f 2 668 667
f 2 667 696
f 2 696 695
f 2 695 697
f 2 697 678
f 2 678 570
f 2 570 451
f 2 451 342
f 2 342 341
f 2 341 339
f 2 339 338
f 2 338 337
f 2 337 336
f 2 336 335
f 2 335 449
f 2 449 447
f 2 447 448
f 2 448 567
f 2 567 445
f 2 445 443
f 2 443 566
f 2 566 441
f 2 441 365
f 2 365 317
f 2 317 221
f 2 221 164
f 2 164 103
f 2 103 54
f 2 54 24
f 2 24 11
f 2 11 6
f 3 7 16
f 3 16 8
f 4 9 18
f 4 18 45
f 4 45 90
f 4 90 149
f 4 149 200
f 4 200 293
f 4 293 401
f 4 401 525
f 4 525 532
f 4 532 531
f 4 531 530
f 4 530 651
f 4 651 655
f 4 655 535
f 4 535 413
f 4 413 305
f 4 305 209
f 4 209 160
f 4 160 98
f 4 98 94
f 4 94 48
f 4 48 20
f 4 20 10
f 4 10 5
f 6 11 12
f 7 13 14
f 7 14 15
f 7 15 16
f 8 16 43
f 8 43 17
f 9 19 46
f 9 46 18
f 10 20 21
f 10 21 22
f 10 22 23
f 11 24 25
f 11 25 12
f 12 25 26
f 13 27 28
f 13 28 14
f 14 28 15
f 15 29 30
f 15 30 31
f 15 31 16
f 15 28 29
f 16 31 32
f 16 32 33
f 16 33 34
f 16 34 35
f 16 35 36
f 16 36 37
f 16 37 38
f 16 38 39
f 16 39 40
f 16 40 41
f 16 41 42
f 16 42 43
f 17 43 85
f 17 85 44
f 18 46 91
f 18 91 45
f 19 47 46
f 20 48 49
f 20 49 50
f 20 50 21
f 21 50 51
f 21 51 52
f 21 52 53
f 21 53 22
f 22 53 23
f 24 54 55
f 24 55 56
f 24 56 25
f 25 56 57
f 25 57 26
f 27 58 28
f 28 59 60
f 28 60 61
f 28 61 62
f 28 62 29
f 28 58 63
f 28 63 59
f 29 64 30
f 29 62 61
f 29 61 64
f 30 64 65
f 30 65 66
f 30 66 67
f 30 67 32
f 30 32 31
f 32 67 68
f 32 68 33
f 33 68 34
f 34 68 69
f 34 69 70
f 34 70 35
f 35 70 36
f 36 70 71
f 36 71 37
f 37 71 72
f 37 72 73
f 37 73 38
f 38 73 74
f 38 74 39
f 39 74 75
f 39 75 76
f 39 76 77
f 39 77 40
f 40 77 78
f 40 78 41
f 41 78 79
f 41 79 42
f 42 79 80
f 42 80 43
f 43 81 82
f 43 82 83
f 43 83 84
f 43 84 85
f 43 80 86
f 43 86 87
f 43 87 88
f 43 88 81
f 44 85 89
f 45 91 90
f 46 47 93
f 46 93 92
f 46 92 151
f 46 151 91
f 48 94 49
f 49 95 96
f 49 96 97
f 49 97 51
f 49 51 50
f 49 94 98
f 49 98 95
f 51 97 99
f 51 99 100
f 51 100 52
f 52 100 53
f 53 100 102
f 53 102 101
f 54 56 55
f 54 103 104
f 54 104 105
f 54 105 56
f 56 105 57
f 57 105 106
f 59 107 60
f 59 63 108
f 59 108 109
f 59 109 110
f 59 110 107
f 60 107 64
f 60 64 61
f 64 111 112
f 64 112 65
f 64 107 111
f 65 112 113
f 65 113 66
f 66 113 68
f 66 68 67
f 68 113 114
f 68 114 115
f 68 115 116
f 68 116 117
f 68 117 69
f 69 117 70
f 70 118 119
f 70 119 120
f 70 120 71
f 70 117 116
f 70 116 118
f 71 120 121
f 71 121 72
f 72 121 73
f 73 122 76
f 73 76 75
f 73 75 74
f 73 121 122
f 76 122 123
f 76 123 124
f 76 124 125
f 76 125 126
f 76 126 127
f 76 127 77
f 77 127 128
f 77 128 78
f 78 128 129
f 78 129 130
f 78 130 79
f 79 130 131
f 79 131 132
f 79 132 133
f 79 133 80
f 80 133 144
f 80 144 86
f 81 134 82
f 81 88 135
f 81 135 134
f 82 134 136
f 82 136 83
f 83 137 138
f 83 138 84
f 83 136 134
f 83 134 137
f 84 138 139
f 84 139 140
f 84 140 141
f 84 141 85
f 85 141 142
f 85 142 143
f 85 143 89
f 86 144 145
f 86 145 87
f 87 145 146
f 87 146 88
f 88 146 135
f 89 147 148
f 89 143 147
f 90 91 150
f 90 150 149
f 91 151 202
f 91 202 150
f 92 93 152
f 92 152 203
f 92 203 151
f 93 153 152
f 95 154 96
f 95 98 154
f 96 155 156
f 96 156 157
f 96 157 97
f 96 154 155
f 97 157 213
f 97 213 158
f 97 158 159
f 97 159 99
f 98 160 154
f 99 159 161
f 99 161 100
f 100 161 101
f 100 101 102
f 101 161 162
f 101 162 163
f 103 164 104
f 104 164 105
f 105 164 165
f 105 165 106
f 106 166 167
f 106 167 168
f 106 168 169
f 106 169 170
f 106 165 171
f 106 171 166
f 107 110 111
f 109 172 173
f 109 173 110
f 110 173 174
f 110 174 118
f 110 118 175
f 110 175 115
f 110 115 176
f 110 176 111
f 111 176 112
f 112 176 113
f 113 176 114
f 114 176 115
f 115 175 116
f 116 175 118
f 118 174 119
f 119 174 177
f 119 177 121
f 119 121 120
f 121 177 122
f 122 177 123
f 123 178 124
f 123 177 173
f 123 173 178
f 124 178 179
f 124 179 125
f 125 129 128
f 125 128 127
f 125 127 126
f 125 179 129
f 129 131 130
f 129 179 131
f 131 179 132
f 132 179 180
f 132 180 181
f 132 181 182
f 132 182 144
f 132 144 133
f 134 183 184
f 134 184 185
f 134 185 137
f 134 135 186
f 134 186 183
f 135 146 197
f 135 197 186
f 137 187 138
f 137 185 187
f 138 187 188
f 138 188 139
f 139 188 189
f 139 189 190
f 139 190 140
f 140 190 191
f 140 191 192
f 140 192 141
f 141 192 193
f 141 193 142
f 142 193 194
f 142 194 288
f 142 288 195
f 142 195 147
f 142 147 143
f 144 182 196
f 144 196 145
f 145 196 197
f 145 197 146
f 147 195 290
f 147 290 198
f 147 198 199
f 147 199 148
f 149 150 201
f 149 201 200
f 150 202 201
f 151 203 295
f 151 295 202
f 152 153 204
f 152 204 205
f 152 205 206
f 152 206 203
f 154 207 208
f 154 208 155
f 154 160 209
f 154 209 207
f 155 208 156
f 156 210 211
f 156 211 212
f 156 212 157
f 156 208 210
f 157 212 213
f 158 213 214
f 158 214 159
f 159 214 162
f 159 162 161
f 162 214 215
f 162 215 216
f 162 216 217
f 162 217 218
f 162 218 163
f 163 218 220
f 163 220 219
f 164 221 222
f 164 222 165
f 165 222 171
f 166 223 224
f 166 224 225
f 166 225 226
f 166 226 227
f 166 227 228
f 166 228 167
f 166 171 223
f 167 228 229
f 167 229 168
f 168 229 230
f 168 230 169
f 169 230 231
f 169 231 232
f 169 232 170
f 171 233 234
f 171 234 235
f 171 235 236
f 171 236 237
f 171 237 238
f 171 238 239
f 171 239 240
f 171 240 241
f 171 241 242
f 171 242 243
f 171 243 244
f 171 244 245
f 171 245 246
f 171 246 247
f 171 247 248
f 171 248 249
f 171 249 250
f 171 250 251
f 171 251 252
f 171 252 223
f 171 222 253
f 171 253 254
f 171 254 255
f 171 255 233
f 172 256 173
f 173 177 174
f 173 256 257
f 173 257 258
f 173 258 259
f 173 259 260
f 173 260 261
f 173 261 262
f 173 262 263
f 173 263 264
f 173 264 265
f 173 265 266
f 173 266 267
f 173 267 178
f 178 267 268
f 178 268 269
f 178 269 270
f 178 270 271
f 178 271 272
f 178 272 273
f 178 273 274
f 178 274 275
f 178 275 276
f 178 276 277
f 178 277 278
f 178 278 279
f 178 279 181
f 178 181 179
f 179 181 180
f 181 279 196
f 181 196 182
f 183 186 184
f 184 276 185
f 184 186 277
f 184 277 276
f 185 276 275
f 185 275 280
f 185 280 281
f 185 281 282
f 185 282 283
f 185 283 187
f 186 197 278
f 186 278 277
f 187 283 188
f 188 190 189
f 188 283 190
f 190 283 282
f 190 282 281
f 190 281 284
f 190 284 191
f 191 284 285
f 191 285 286
f 191 286 287
f 191 287 193
f 191 193 192
f 193 287 194
f 194 287 396
f 194 396 288
f 195 288 289
f 195 289 290
f 196 279 278
f 196 278 197
f 198 290 399
f 198 399 291
f 198 291 292
f 198 292 199
f 200 201 294
f 200 294 293
f 201 202 295
f 201 295 296
f 201 296 294
f 203 206 295
f 204 297 298
f 204 298 205
f 205 298 299
f 205 299 206
f 206 299 300
f 206 300 301
f 206 301 302
f 206 302 296
f 206 296 295
f 207 303 208
f 207 209 305
f 207 305 303
f 208 304 210
f 208 303 304
f 210 304 211
f 211 306 307
f 211 307 308
f 211 308 214
f 211 214 212
f 211 304 306
f 212 214 213
f 214 308 309
f 214 309 216
f 214 216 215
f 216 310 311
f 216 311 312
f 216 312 217
f 216 309 310
f 217 312 218
f 218 312 313
f 218 313 220
f 219 220 314
f 220 313 315
f 220 315 316
f 220 316 314
f 221 317 222
f 222 317 253
f 223 252 318
f 223 318 224
f 224 318 225
f 225 318 319
f 225 319 226
f 226 319 320
f 226 320 321
f 226 321 227
f 227 321 322
f 227 322 228
f 228 322 323
f 228 323 229
f 229 323 324
f 229 324 325
f 229 325 230
f 230 326 231
f 230 325 326
f 231 326 327
f 233 328 329
f 233 329 234
f 233 255 367
f 233 367 328
f 234 330 235
f 234 329 330
f 235 330 331
f 235 331 332
f 235 332 236
f 236 332 331
f 236 331 333
f 236 333 334
f 236 334 335
f 236 335 237
f 237 336 337
f 237 337 238
f 237 335 336
f 238 337 338
f 238 338 339
f 238 339 340
f 238 340 239
f 239 340 341
f 239 341 342
f 239 342 343
f 239 343 344
f 239 344 240
f 240 344 241
f 241 345 346
f 241 346 242
f 241 344 347
f 241 347 348
f 241 348 345
f 242 346 349
f 242 349 350
f 242 350 351
f 242 351 243
f 243 351 244
f 244 351 350
f 244 350 352
f 244 352 353
f 244 353 245
f 245 353 354
f 245 354 247
f 245 247 355
f 245 355 246
f 246 355 247
f 247 356 357
f 247 357 358
f 247 358 248
f 247 354 359
f 247 359 360
f 247 360 361
f 247 361 356
f 248 358 362
f 248 362 249
f 249 362 250
f 250 362 251
f 251 363 364
f 251 364 252
f 251 362 363
f 252 364 318
f 253 317 365
f 253 365 366
f 253 366 254
f 254 366 367
f 254 367 255
f 256 368 257
f 257 368 258
f 258 368 263
f 258 263 259
f 259 263 262
f 259 262 260
f 260 262 261
f 263 369 370
f 263 370 371
f 263 371 372
f 263 372 265
f 263 265 373
f 263 373 374
f 263 374 264
f 263 368 375
f 263 375 369
f 264 374 373
f 264 373 265
f 265 372 266
f 266 272 267
f 266 372 272
f 267 272 268
f 268 272 269
f 269 272 271
f 269 271 270
f 272 376 377
f 272 377 275
f 272 275 274
f 272 274 378
f 272 378 379
f 272 379 380
f 272 380 273
f 272 372 381
f 272 381 382
f 272 382 383
f 272 383 384
f 272 384 385
f 272 385 376
f 273 380 378
f 273 378 274
f 275 377 280
f 280 377 281
f 281 377 386
f 281 386 387
f 281 387 388
f 281 388 389
f 281 389 284
f 284 389 390
f 284 390 391
f 284 391 285
f 285 391 286
f 286 391 392
f 286 392 393
f 286 393 394
f 286 394 395
f 286 395 396
f 286 396 287
f 288 395 289
f 288 396 395
f 289 395 394
f 289 394 397
f 289 397 398
f 289 398 290
f 290 398 407
f 290 407 399
f 291 399 299
f 291 299 298
f 291 298 400
f 291 400 292
f 293 294 401
f 294 402 526
f 294 526 403
f 294 403 401
f 294 296 402
f 296 302 404
f 296 404 405
f 296 405 402
f 297 400 298
f 299 406 300
f 299 399 407
f 299 407 408
f 299 408 406
f 300 404 302
f 300 302 301
f 300 406 409
f 300 409 404
f 303 305 413
f 303 413 410
f 303 410 411
f 303 411 304
f 304 412 306
f 304 411 412
f 306 414 415
f 306 415 416
f 306 416 417
f 306 417 307
f 306 412 418
f 306 418 419
f 306 419 414
f 307 417 420
f 307 420 421
f 307 421 422
f 307 422 308
f 308 422 309
f 309 422 423
f 309 423 310
f 310 423 424
f 310 424 425
f 310 425 311
f 311 425 426
f 311 426 427
f 311 427 312
f 312 427 315
f 312 315 313
f 314 316 428
f 315 427 429
f 315 429 430
f 315 430 431
f 315 431 428
f 315 428 316
f 318 364 432
f 318 432 319
f 319 432 433
f 319 433 434
f 319 434 435
f 319 435 320
f 320 435 436
f 320 436 437
f 320 437 321
f 321 437 322
f 322 438 439
f 322 439 323
f 322 437 440
f 322 440 438
f 323 325 324
f 323 439 325
f 325 439 326
f 326 439 327
f 328 367 441
f 328 441 442
f 328 442 443
f 328 443 444
f 328 444 329
f 329 444 445
f 329 445 330
f 330 445 446
f 330 446 331
f 331 447 333
f 331 446 448
f 331 448 447
f 333 447 449
f 333 449 334
f 334 449 335
f 339 341 340
f 342 450 343
f 342 451 452
f 342 452 450
f 343 450 344
f 344 450 453
f 344 453 347
f 345 454 455
f 345 455 346
f 345 348 456
f 345 456 454
f 346 455 457
f 346 457 349
f 347 458 459
f 347 459 460
f 347 460 461
f 347 461 462
f 347 462 348
f 347 453 463
f 347 463 458
f 348 462 456
f 349 457 350
f 350 457 464
f 350 464 465
f 350 465 466
f 350 466 352
f 352 466 467
f 352 467 353
f 353 467 468
f 353 468 361
f 353 361 359
f 353 359 354
f 356 361 357
f 357 435 469
f 357 469 358
f 357 361 470
f 357 470 471
f 357 471 435
f 358 469 362
f 359 361 360
f 361 468 472
f 361 472 473
f 361 473 474
f 361 474 470
f 362 469 475
f 362 475 433
f 362 433 363
f 363 433 364
f 364 433 432
f 365 441 366
f 366 441 367
f 368 476 477
f 368 477 375
f 369 478 479
f 369 479 370
f 369 375 480
f 369 480 481
f 369 481 478
f 370 479 371
f 371 479 482
f 371 482 483
f 371 483 484
f 371 484 485
f 371 485 372
f 372 485 486
f 372 486 487
f 372 487 381
f 375 477 488
f 375 488 489
f 375 489 490
f 375 490 480
f 376 491 492
f 376 492 493
f 376 493 377
f 376 385 494
f 376 494 491
f 377 493 495
f 377 495 496
f 377 496 497
f 377 497 498
f 377 498 499
f 377 499 500
f 377 500 501
f 377 501 502
f 377 502 503
f 377 503 386
f 378 380 379
f 381 487 504
f 381 504 382
f 382 504 383
f 383 504 505
f 383 505 506
f 383 506 507
f 383 507 508
f 383 508 384
f 384 508 507
f 384 507 509
f 384 509 494
f 384 494 385
f 386 503 387
f 387 503 388
f 388 503 502
f 388 502 510
f 388 510 511
f 388 511 512
f 388 512 513
f 388 513 514
f 388 514 389
f 389 515 516
f 389 516 390
f 389 514 517
f 389 517 518
f 389 518 515
f 390 516 391
f 391 519 392
f 391 516 519
f 392 520 521
f 392 521 522
f 392 522 523
f 392 523 393
f 392 519 520
f 393 523 524
f 393 524 409
f 393 409 406
f 393 406 394
f 394 406 408
f 394 408 407
f 394 407 397
f 397 407 398
f 401 403 525
f 402 405 404
f 402 404 527
f 402 527 528
f 402 528 526
f 403 529 530
f 403 530 531
f 403 531 532
f 403 532 525
f 403 526 533
f 403 533 529
f 404 409 527
f 409 524 527
f 410 534 411
f 410 413 535
f 410 535 534
f 411 534 536
f 411 536 419
f 411 419 418
f 411 418 412
f 414 537 415
f 414 419 537
f 415 537 538
f 415 538 539
f 415 539 416
f 416 539 540
f 416 540 541
f 416 541 420
f 416 420 417
f 419 542 537
f 419 536 542
f 420 543 421
f 420 541 544
f 420 544 543
f 421 543 423
f 421 423 422
f 423 543 545
f 423 545 544
f 423 544 424
f 424 544 546
f 424 546 547
f 424 547 548
f 424 548 425
f 425 548 426
f 426 548 549
f 426 549 550
f 426 550 551
f 426 551 552
f 426 552 430
f 426 430 429
f 426 429 427
f 428 431 553
f 430 552 431
f 431 552 554
f 431 554 555
f 431 555 556
f 431 556 557
f 431 557 553
f 433 475 469
f 433 469 558
f 433 558 434
f 434 558 435
f 435 558 469
f 435 471 559
f 435 559 560
f 435 560 561
f 435 561 562
f 435 562 436
f 436 562 437
f 437 562 440
f 438 440 564
f 438 564 562
f 438 562 565
f 438 565 563
f 440 562 564
f 441 566 442
f 442 566 443
f 443 445 444
f 445 567 446
f 446 567 448
f 450 452 568
f 450 568 569
f 450 569 453
f 451 570 452
f 452 570 571
f 452 571 568
f 453 569 463
f 454 471 572
f 454 572 455
f 454 456 462
f 454 462 573
f 454 573 574
f 454 574 471
f 455 572 575
f 455 575 457
f 457 575 464
f 458 569 576
f 458 576 577
f 458 577 552
f 458 552 551
f 458 551 578
f 458 578 579
f 458 579 459
f 458 463 569
f 459 579 460
f 460 580 462
f 460 462 461
f 460 579 581
f 460 581 582
f 460 582 580
f 462 580 583
f 462 583 573
f 464 575 584
f 464 584 585
f 464 585 586
f 464 586 465
f 465 586 587
f 465 587 466
f 466 587 472
f 466 472 468
f 466 468 467
f 470 474 471
f 471 474 473
f 471 473 588
f 471 588 585
f 471 585 575
f 471 575 572
f 471 574 589
f 471 589 590
f 471 590 591
f 471 591 592
f 471 592 593
f 471 593 594
f 471 594 595
f 471 595 596
f 471 596 597
f 471 597 598
f 471 598 560
f 471 560 559
f 472 587 588
f 472 588 473
f 476 599 600
f 476 600 477
f 477 600 488
f 478 601 479
f 478 481 601
f 479 601 482
f 480 490 602
f 480 602 481
f 481 602 603
f 481 603 601
f 482 601 604
f 482 604 605
f 482 605 606
f 482 606 484
f 482 484 483
f 484 606 486
f 484 486 485
f 486 607 608
f 486 608 487
f 486 606 607
f 487 608 504
f 488 609 610
f 488 610 611
f 488 611 489
f 488 600 609
f 489 611 602
f 489 602 490
f 491 612 492
f 491 494 612
f 492 613 614
f 492 614 615
f 492 615 493
f 492 612 616
f 492 616 613
f 493 615 617
f 493 617 618
f 493 618 495
f 494 509 619
f 494 619 620
f 494 620 597
f 494 597 612
f 495 618 496
f 496 618 621
f 496 621 497
f 497 621 623
f 497 623 498
f 498 622 499
f 498 623 622
f 499 622 624
f 499 624 625
f 499 625 510
f 499 510 500
f 500 510 502
f 500 502 501
f 504 626 627
f 504 627 628
f 504 628 629
f 504 629 505
f 504 608 626
f 505 629 630
f 505 630 506
f 506 630 507
f 507 630 628
f 507 628 509
f 509 628 631
f 509 631 619
f 510 625 591
f 510 591 632
f 510 632 511
f 511 633 634
f 511 634 512
f 511 632 633
f 512 634 513
f 513 635 636
f 513 636 518
f 513 518 517
f 513 517 514
f 513 634 633
f 513 633 635
f 515 637 638
f 515 638 516
f 515 518 637
f 516 638 519
f 518 636 635
f 518 635 639
f 518 639 637
f 519 638 520
f 520 640 641
f 520 641 521
f 520 638 642
f 520 642 643
f 520 643 640
f 521 641 522
f 522 644 645
f 522 645 646
f 522 646 523
f 522 641 644
f 523 646 647
f 523 647 524
f 524 647 527
f 526 528 533
f 527 647 648
f 527 648 649
f 527 649 528
f 528 649 533
f 529 650 530
f 529 533 650
f 530 650 651
f 533 652 650
f 533 649 652
f 534 653 654
f 534 654 536
f 534 535 655
f 534 655 653
f 536 654 542
f 537 656 647
f 537 647 538
f 537 542 652
f 537 652 656
f 538 540 539
f 538 647 657
f 538 657 644
f 538 644 640
f 538 640 540
f 540 640 658
f 540 658 541
f 541 658 544
f 542 654 652
f 543 544 545
f 544 658 659
f 544 659 546
f 546 659 547
f 547 660 661
f 547 661 662
f 547 662 549
f 547 549 548
f 547 659 660
f 549 662 550
f 550 663 664
f 550 664 578
f 550 578 551
f 550 662 663
f 552 577 554
f 554 577 665
f 554 665 555
f 555 665 666
f 555 666 667
f 555 667 668
f 555 668 556
f 560 598 669
f 560 669 561
f 561 669 670
f 561 670 631
f 561 631 562
f 562 631 628
f 562 628 627
f 562 627 671
f 562 671 672
f 562 672 565
f 563 600 673
f 563 565 674
f 563 674 610
f 563 610 609
f 563 609 600
f 565 672 606
f 565 606 605
f 565 605 604
f 565 604 603
f 565 603 675
f 565 675 674
f 568 571 676
f 568 676 677
f 568 677 569
f 569 677 576
f 570 678 571
f 571 678 676
f 573 583 679
f 573 679 574
f 574 679 680
f 574 680 681
f 574 681 589
f 575 585 584
f 576 677 577
f 577 677 682
f 577 682 665
f 578 664 581
f 578 581 579
f 580 582 680
f 580 680 583
f 581 664 582
f 582 664 680
f 583 680 679
f 585 588 587
f 585 587 586
f 589 635 633
f 589 633 590
f 589 681 683
f 589 683 684
f 589 684 685
f 589 685 686
f 589 686 639
f 589 639 635
f 590 633 591
f 591 633 632
f 591 625 592
f 592 625 624
f 592 624 593
f 593 624 594
f 594 624 622
f 594 622 687
f 594 687 595
f 595 613 596
f 595 687 613
f 596 613 616
f 596 616 597
f 597 669 598
f 597 616 612
f 597 620 619
f 597 619 669
f 599 673 600
f 601 603 604
f 602 611 675
f 602 675 603
f 606 672 607
f 607 672 608
f 608 671 626
f 608 672 671
f 610 675 611
f 610 674 675
f 613 687 623
f 613 623 614
f 614 623 617
f 614 617 615
f 617 623 621
f 617 621 618
f 619 631 670
f 619 670 669
f 622 623 687
f 626 671 627
f 628 630 629
f 637 639 638
f 638 639 686
f 638 686 642
f 640 643 642
f 640 642 688
f 640 688 689
f 640 689 658
f 640 644 641
f 642 686 685
f 642 685 688
f 644 657 645
f 645 657 647
f 645 647 646
f 647 656 690
f 647 690 648
f 648 690 649
f 649 690 656
f 649 656 652
f 650 654 653
f 650 653 651
f 650 652 654
f 651 653 655
f 658 689 659
f 659 689 688
f 659 688 660
f 660 688 691
f 660 691 661
f 661 691 692
f 661 692 693
f 661 693 694
f 661 694 662
f 662 694 663
f 663 694 664
f 664 694 680
f 665 682 666
f 666 682 676
f 666 676 695
f 666 695 696
f 666 696 667
f 676 678 697
f 676 697 695
f 676 682 677
f 680 694 693
f 680 693 692
f 680 692 683
f 680 683 681
f 683 692 684
f 684 692 685
f 685 692 691
f 685 691 688
