v -6.01652e-05 -0.766793 -0.200908
v -6.01652e-05 -0.76318 -0.203561
v 0.00405251 -0.766793 -0.200908
v -6.01652e-05 -0.640969 -0.200908
v 0.000512036 -0.76318 -0.203561
v -6.01652e-05 -0.730477 -0.221164
v 0.00963144 -0.765604 -0.200908
v 0.011813 -0.761945 -0.202848
v 0.182614 -0.456189 -0.200908
v 0.182614 -0.299629 -0.246029
v -6.01652e-05 -0.299629 -0.307935
v 0.00709231 -0.755587 -0.207048
v 0.00553665 -0.730477 -0.221164
v -6.01652e-05 -0.704864 -0.233824
v 0.0152998 -0.764369 -0.200908
v 0.0254384 -0.76039 -0.201954
v 0.0254384 -0.762128 -0.200908
v 0.0254384 -0.751928 -0.206791
v 0.182614 -0.618649 -0.200908
v 0.182614 -0.299629 -0.305342
v -6.01652e-05 -0.299629 -0.355801
v 0.0101142 -0.736743 -0.217176
v 0.0101142 -0.722336 -0.224788
v 0.0168554 -0.729105 -0.220436
v 0.00848705 -0.704864 -0.233824
v -6.01652e-05 -0.696357 -0.237963
v 0.0424077 -0.749962 -0.205669
v 0.0424077 -0.758286 -0.200908
v 0.0254384 -0.737658 -0.21469
v 0.173817 -0.632142 -0.200908
v 0.17092 -0.629443 -0.204531
v 0.152252 -0.626836 -0.220178
v 0.155882 -0.615539 -0.222968
v 0.182614 -0.606346 -0.206897
v 0.182614 -0.313671 -0.302659
v 0.182596 -0.313762 -0.302659
v 0.169936 -0.340153 -0.305433
v 0.171456 -0.330685 -0.306298
v 0.174121 -0.313762 -0.307799
v 0.17759 -0.299629 -0.308299
v 0.00848705 -0.299629 -0.355786
v 0.00848705 -0.313762 -0.353496
v -6.01652e-05 -0.313762 -0.353496
v 0.0254384 -0.719546 -0.224242
v 0.0254384 -0.728053 -0.219875
v 0.00848705 -0.696357 -0.237963
v 0.0169985 -0.695259 -0.237417
v 0.0237576 -0.702029 -0.233218
v 0.0424077 -0.703721 -0.229943
v 0.0424077 -0.717396 -0.223135
v -6.01652e-05 -0.661917 -0.254641
v 0.0541377 -0.748041 -0.204577
v 0.0424077 -0.737658 -0.212446
v 0.0577855 -0.752065 -0.200908
v 0.16754 -0.641472 -0.200908
v 0.167111 -0.64074 -0.20162
v 0.149212 -0.635892 -0.217859
v 0.144652 -0.619701 -0.229351
v 0.137142 -0.646549 -0.221573
v 0.140736 -0.635892 -0.224272
v 0.167183 -0.606574 -0.218632
v 0.148944 -0.601955 -0.234688
v 0.161353 -0.60136 -0.225561
v 0.170652 -0.595277 -0.221285
v 0.182614 -0.600628 -0.209565
v 0.182614 -0.330685 -0.299035
v 0.179932 -0.330685 -0.300915
v 0.167147 -0.35145 -0.304175
v 0.150017 -0.385021 -0.30416
v 0.161336 -0.346556 -0.307677
v 0.144134 -0.347654 -0.314576
v 0.110213 -0.347654 -0.328616
v 0.133798 -0.334893 -0.321429
v 0.161085 -0.330685 -0.310876
v 0.161085 -0.313762 -0.313863
v 0.161085 -0.299629 -0.316319
v 0.163267 -0.299629 -0.315319
v 0.17657 -0.346556 -0.299596
v 0.172619 -0.398514 -0.290378
v 0.170634 -0.40972 -0.288998
v 0.161085 -0.398514 -0.296276
v 0.0136011 -0.299629 -0.355134
v 0.0254384 -0.313762 -0.351298
v 0.0254384 -0.330685 -0.348523
v 0.00848705 -0.330685 -0.350706
v -6.01652e-05 -0.322178 -0.352117
v 0.0246517 -0.299629 -0.353709
v 0.0424077 -0.725858 -0.218753
v 0.00848705 -0.686752 -0.242481
v 0.00213922 -0.661917 -0.254641
v 0.0424077 -0.691692 -0.23575
v 0.0237576 -0.68753 -0.240162
v 0.059359 -0.680258 -0.238342
v 0.059359 -0.688765 -0.234218
v 0.0562656 -0.714927 -0.221861
v -6.01652e-05 -0.576891 -0.288407
v 0.0608968 -0.720644 -0.217586
v 0.0675844 -0.712045 -0.220376
v 0.0654387 -0.744656 -0.202651
v 0.0625955 -0.74923 -0.200908
v 0.159029 -0.653867 -0.200908
v 0.15581 -0.649019 -0.205957
v 0.137071 -0.612612 -0.238327
v 0.132672 -0.657846 -0.218602
v 0.132064 -0.623909 -0.235719
v 0.144527 -0.65341 -0.212279
v 0.139967 -0.669784 -0.206806
v 0.136445 -0.679343 -0.204107
v 0.151948 -0.592441 -0.236932
v 0.182203 -0.585032 -0.217146
v 0.182614 -0.584986 -0.216843
v 0.182614 -0.335488 -0.297989
v 0.159583 -0.380265 -0.301052
v 0.102453 -0.391379 -0.32249
v 0.113485 -0.381591 -0.320034
v 0.144277 -0.380265 -0.307556
v 0.144277 -0.400161 -0.303159
v 0.138716 -0.395633 -0.306495
v 0.10501 -0.381591 -0.323537
v 0.0932618 -0.364622 -0.331375
v 0.0958903 -0.330685 -0.337303
v 0.110213 -0.330685 -0.331936
v 0.136248 -0.323596 -0.32243
v 0.127182 -0.313762 -0.327918
v 0.152162 -0.299629 -0.320034
v 0.175462 -0.381591 -0.292333
v 0.182614 -0.362564 -0.291712
v 0.182614 -0.381591 -0.287224
v 0.182614 -0.389504 -0.285268
v 0.1618 -0.415437 -0.291803
v 0.181094 -0.398514 -0.284101
v 0.182614 -0.398514 -0.282948
v 0.182614 -0.401761 -0.282039
v 0.182614 -0.415437 -0.278203
v 0.176982 -0.415437 -0.282509
v 0.173978 -0.44942 -0.274715
v 0.17142 -0.462089 -0.272744
v 0.167934 -0.421017 -0.287406
v 0.144134 -0.415483 -0.299505
v 0.0424077 -0.313762 -0.349069
v 0.0763104 -0.313762 -0.344611
v 0.0763104 -0.330685 -0.341822
v 0.0849649 -0.339421 -0.339199
v 0.0254384 -0.347654 -0.345415
v 0.00848705 -0.347654 -0.347613
v -6.01652e-05 -0.339101 -0.349175
v -6.01652e-05 -0.330685 -0.350706
v 0.0424077 -0.299629 -0.351374
v 0.00807578 -0.668457 -0.250942
v 0.00848705 -0.623543 -0.269818
v 0.00848705 -0.635892 -0.2648
v 0.00807578 -0.653913 -0.25731
v 0.013458 -0.66027 -0.253929
v 0.00108423 -0.576891 -0.288407
v 0.0424077 -0.68323 -0.239722
v 0.0254384 -0.669784 -0.248091
v 0.059359 -0.669784 -0.243209
v 0.0680135 -0.678428 -0.237478
v -6.01652e-05 -0.525939 -0.305312
v 0.0763104 -0.700153 -0.223014
v 0.0763104 -0.708615 -0.218586
v 0.103812 -0.713829 -0.204395
v 0.0763104 -0.720689 -0.212021
v 0.0763104 -0.732444 -0.205411
v 0.0740574 -0.741683 -0.200908
v 0.067191 -0.746348 -0.200908
v 0.156919 -0.656931 -0.200908
v 0.151912 -0.660316 -0.202955
v 0.126718 -0.618512 -0.240419
v 0.127182 -0.601955 -0.247075
v 0.135104 -0.575884 -0.254141
v 0.150535 -0.556675 -0.253171
v 0.155345 -0.581144 -0.23951
v 0.121371 -0.664295 -0.221877
v 0.120835 -0.697958 -0.204926
v 0.120763 -0.629352 -0.238266
v 0.114719 -0.640649 -0.235765
v 0.149248 -0.667634 -0.200908
v 0.138877 -0.68163 -0.200908
v 0.132046 -0.690548 -0.200908
v 0.182614 -0.58366 -0.217449
v 0.182614 -0.347059 -0.29532
v 0.0932618 -0.381591 -0.327873
v 0.135604 -0.40693 -0.305221
v 0.108944 -0.397645 -0.318366
v 0.0991983 -0.402676 -0.321202
v 0.0934406 -0.397645 -0.324446
v 0.0916525 -0.346099 -0.335696
v 0.0994487 -0.318062 -0.338425
v 0.102363 -0.306764 -0.339411
v 0.103865 -0.299629 -0.340033
v 0.153486 -0.442514 -0.28868
v 0.156293 -0.432451 -0.289968
v 0.182614 -0.421017 -0.27655
v 0.182614 -0.44974 -0.267999
v 0.182614 -0.466846 -0.262556
v 0.177464 -0.467212 -0.266392
v 0.168881 -0.473432 -0.270849
v 0.162373 -0.467212 -0.276732
v 0.154737 -0.496027 -0.272608
v 0.150088 -0.453811 -0.287239
v 0.144134 -0.432451 -0.295169
v 0.120817 -0.42742 -0.306116
v 0.0621843 -0.299629 -0.348766
v 0.0763104 -0.299629 -0.346901
v 0.0879153 -0.411778 -0.323324
v 0.0831589 -0.423075 -0.32196
v 0.0763104 -0.398514 -0.328494
v 0.0763104 -0.381591 -0.331982
v 0.0763104 -0.342348 -0.339775
v 0.0933154 -0.299629 -0.343338
v 0.0874325 -0.330685 -0.339926
v 0.0424077 -0.347654 -0.343186
v 0.0254384 -0.364622 -0.342049
v 0.0142448 -0.388315 -0.338804
v 0.00855857 -0.382231 -0.34073
v 0.00294388 -0.391791 -0.339517
v -6.01652e-05 -0.347654 -0.347613
v 0.00848705 -0.615081 -0.273154
v 0.0254384 -0.620799 -0.268711
v 0.0254384 -0.635892 -0.262601
v 0.0254384 -0.649979 -0.256734
v 0.0254384 -0.658441 -0.25314
v 0.0424077 -0.669784 -0.245847
v 0.000619321 -0.525939 -0.305312
v 0.00743205 -0.568704 -0.290317
v 0.0123851 -0.574787 -0.287679
v 0.059359 -0.585032 -0.277808
v 0.0424077 -0.585032 -0.280037
v 0.0254384 -0.585032 -0.282266
v 0.00743205 -0.583522 -0.285147
v 0.00848705 -0.601955 -0.278172
v 0.0597346 -0.651809 -0.25129
v 0.0656175 -0.643667 -0.25405
v 0.0763104 -0.652861 -0.24612
v 0.074719 -0.668686 -0.239388
v 0.0859126 -0.662283 -0.237872
v 0.0793145 -0.67358 -0.235143
v 0.11556 -0.675592 -0.219132
v 0.104241 -0.680349 -0.221498
v 0.074719 -0.685151 -0.231322
v -6.01652e-05 -0.46026 -0.322824
v 0.0860914 -0.696266 -0.220997
v 0.092332 -0.702623 -0.215069
v 0.0973745 -0.691692 -0.218647
v 0.109766 -0.703629 -0.2072
v 0.115113 -0.709255 -0.201696
v 0.0963374 -0.725126 -0.201256
v 0.0850364 -0.729334 -0.203607
v 0.0844643 -0.734365 -0.200908
v 0.0763104 -0.740128 -0.200908
v 0.153468 -0.661825 -0.200908
v 0.0845179 -0.627156 -0.254262
v 0.0902935 -0.615859 -0.256658
v 0.101594 -0.610279 -0.254308
v 0.107102 -0.598982 -0.256597
v 0.118403 -0.593173 -0.254247
v 0.128541 -0.586541 -0.252685
v 0.0875398 -0.579452 -0.272472
v 0.0988407 -0.57314 -0.270121
v 0.0932082 -0.567743 -0.274382
v 0.128541 -0.56939 -0.259175
v 0.135962 -0.526076 -0.271456
v 0.147817 -0.517249 -0.269166
v 0.151554 -0.507324 -0.270849
v 0.154076 -0.545332 -0.25543
v 0.161032 -0.566508 -0.241405
v 0.166664 -0.571173 -0.235173
v 0.182614 -0.571814 -0.22268
v 0.109534 -0.652083 -0.232763
v 0.123874 -0.700839 -0.200908
v 0.115595 -0.709987 -0.200908
v 0.109534 -0.635343 -0.240268
v 0.0932618 -0.635892 -0.246772
v 0.103418 -0.645909 -0.238115
v 0.110213 -0.415483 -0.313545
v 0.0934406 -0.416626 -0.320004
v 0.0958367 -0.299629 -0.34258
v 0.182614 -0.472289 -0.260721
v 0.182614 -0.480522 -0.257871
v 0.178841 -0.483037 -0.259887
v 0.173834 -0.50028 -0.257658
v 0.171117 -0.512035 -0.255566
v 0.162087 -0.517477 -0.26013
v 0.160674 -0.501103 -0.266892
v 0.144313 -0.467395 -0.285844
v 0.138787 -0.462409 -0.289574
v 0.102542 -0.459025 -0.305555
v 0.105546 -0.44942 -0.306813
v 0.127182 -0.44942 -0.297852
v 0.0932618 -0.44942 -0.311771
v 0.0873074 -0.47828 -0.306237
v 0.071858 -0.426185 -0.322718
v 0.0770257 -0.416626 -0.32431
v 0.0763104 -0.466343 -0.312044
v 0.0763104 -0.44942 -0.316441
v 0.059359 -0.44942 -0.318836
v 0.059359 -0.415483 -0.326918
v 0.0424077 -0.398514 -0.332967
v 0.040852 -0.37999 -0.33697
v 0.0653135 -0.354469 -0.33882
v 0.0540126 -0.358219 -0.339563
v 0.0341823 -0.373267 -0.339183
v 0.0254384 -0.376148 -0.33976
v 0.0254384 -0.398514 -0.335196
v 0.00855857 -0.397874 -0.337516
v -6.01652e-05 -0.391791 -0.339517
v 0.00848705 -0.415483 -0.333574
v 0.00848705 -0.44942 -0.325492
v 0.0254384 -0.612291 -0.272062
v 0.059359 -0.618923 -0.264982
v 0.0424077 -0.635892 -0.260372
v 0.0412275 -0.617414 -0.267968
v 0.0424077 -0.647326 -0.255627
v 0.0424077 -0.655834 -0.252018
v 0.00848705 -0.46026 -0.322824
v 0.00848705 -0.468767 -0.32055
v 0.00848705 -0.483311 -0.316532
v 0.00848705 -0.50028 -0.311756
v 0.00716384 -0.517615 -0.306934
v 0.0119381 -0.523561 -0.304584
v 0.059359 -0.534126 -0.294926
v 0.0254384 -0.534126 -0.299399
v 0.00716384 -0.532617 -0.302264
v 0.0254384 -0.551095 -0.293804
v 0.0254384 -0.563718 -0.289635
v 0.0254384 -0.57218 -0.28683
v 0.059359 -0.568063 -0.283722
v 0.0702487 -0.595506 -0.272077
v 0.059359 -0.597976 -0.273017
v 0.0412275 -0.602687 -0.273639
v 0.0254384 -0.601955 -0.275974
v 0.0347903 -0.610736 -0.271441
v 0.073217 -0.63237 -0.256415
v 0.0543165 -0.645451 -0.254838
v 0.0597346 -0.637173 -0.257552
v 0.0922247 -0.652083 -0.239934
v 0.0778482 -0.637173 -0.252549
v 0.0971957 -0.657206 -0.235537
v 0.110034 -0.669875 -0.224196
v 0.110034 -0.686295 -0.216039
v -6.01652e-05 -0.454817 -0.324173
v 0.11404 -0.711405 -0.200908
v 0.0976785 -0.724623 -0.200908
v 0.0959619 -0.725995 -0.200908
v 0.0877365 -0.732032 -0.200908
v 0.0778482 -0.620478 -0.259538
v 0.0948711 -0.603556 -0.259811
v 0.0815496 -0.590749 -0.270243
v 0.0932082 -0.585078 -0.267893
v 0.0760601 -0.585078 -0.274154
v 0.0828728 -0.541215 -0.28777
v 0.088416 -0.529918 -0.289771
v 0.103687 -0.561843 -0.272138
v 0.109695 -0.567743 -0.267559
v 0.126145 -0.532708 -0.273169
v 0.099699 -0.523057 -0.287421
v 0.127182 -0.517249 -0.277884
v 0.139342 -0.517249 -0.272851
v 0.145207 -0.501103 -0.275413
v 0.144134 -0.483311 -0.281205
v 0.15708 -0.534126 -0.257583
v 0.168416 -0.523332 -0.253489
v 0.165573 -0.534126 -0.251306
v 0.160281 -0.551049 -0.248395
v 0.182614 -0.565182 -0.225424
v 0.182614 -0.483037 -0.256991
v 0.182614 -0.486376 -0.255824
v 0.182328 -0.50028 -0.251154
v 0.182614 -0.517386 -0.244786
v 0.134853 -0.473707 -0.287937
v 0.128398 -0.467395 -0.29244
v 0.108997 -0.465337 -0.301067
v 0.0986083 -0.470322 -0.303932
v 0.0930651 -0.465337 -0.307601
v 0.0930651 -0.483677 -0.302249
v 0.0932618 -0.50028 -0.297155
v 0.0937267 -0.51734 -0.291697
v 0.0812814 -0.489578 -0.304569
v 0.059359 -0.466343 -0.31453
v 0.0758992 -0.483677 -0.307253
v 0.0699805 -0.493145 -0.305615
v 0.0174813 -0.458156 -0.322263
v 0.0254384 -0.432451 -0.327342
v 0.0424077 -0.415483 -0.329146
v 0.0254384 -0.415483 -0.331375
v -6.01652e-05 -0.44942 -0.325492
v 0.059359 -0.606483 -0.269833
v 0.0240616 -0.464834 -0.319594
v 0.0254384 -0.483311 -0.314333
v 0.0254384 -0.50028 -0.309557
v 0.0254384 -0.51208 -0.306207
v 0.0254384 -0.520542 -0.303705
v 0.059359 -0.517249 -0.300218
v 0.0715719 -0.545377 -0.28918
v 0.059359 -0.548488 -0.290196
v 0.0493098 -0.558961 -0.288073
v 0.0763104 -0.517249 -0.297261
v 0.0380089 -0.561203 -0.288816
v 0.059359 -0.556949 -0.287406
v 0.0760601 -0.601497 -0.267832
v 0.0763104 -0.568063 -0.280174
v 0.0768647 -0.534995 -0.291393
v 0.104008 -0.51176 -0.28921
v 0.115309 -0.504122 -0.286875
v 0.122891 -0.483311 -0.290014
v 0.182614 -0.53001 -0.239949
v 0.182614 -0.522509 -0.242861
v 0.182614 -0.55425 -0.229943
v 0.182614 -0.499045 -0.251366
v 0.182614 -0.500966 -0.250684
v 0.0758992 -0.499365 -0.302674
v 0.059359 -0.483311 -0.309861
v 0.0424077 -0.483311 -0.312104
v 0.059359 -0.504259 -0.303963
v 0.059359 -0.495798 -0.306358
v 0.0473071 -0.507095 -0.304766
v 0.0360062 -0.509702 -0.305509
f 1 2 5
f 1 5 3
f 1 3 7
f 1 7 15
f 1 15 17
f 1 17 28
f 1 28 54
f 1 54 100
f 1 100 166
f 1 166 165
f 1 165 251
f 1 251 250
f 1 250 346
f 1 346 345
f 1 345 344
f 1 344 343
f 1 343 272
f 1 272 271
f 1 271 180
f 1 180 179
f 1 179 178
f 1 178 252
f 1 252 167
f 1 167 101
f 1 101 55
f 1 55 30
f 1 30 19
f 1 19 9
f 1 9 4
f 1 4 11
f 1 11 21
f 1 21 43
f 1 43 86
f 1 86 147
f 1 147 146
f 1 146 218
f 1 218 307
f 1 307 387
f 1 387 342
f 1 342 242
f 1 242 159
f 1 159 96
f 1 96 51
f 1 51 26
f 1 26 14
f 1 14 6
f 1 6 2
f 2 6 13
f 2 13 5
f 3 5 8
f 3 8 7
f 4 9 10
f 4 10 11
f 5 12 8
f 5 13 12
f 6 14 25
f 6 25 13
f 7 8 15
f 8 16 17
f 8 17 15
f 8 12 18
f 8 18 16
f 9 19 34
f 9 34 65
f 9 65 111
f 9 111 181
f 9 181 269
f 9 269 366
f 9 366 409
f 9 409 407
f 9 407 408
f 9 408 370
f 9 370 411
f 9 411 410
f 9 410 368
f 9 368 367
f 9 367 280
f 9 280 279
f 9 279 196
f 9 196 195
f 9 195 194
f 9 194 134
f 9 134 133
f 9 133 132
f 9 132 129
f 9 129 128
f 9 128 127
f 9 127 182
f 9 182 112
f 9 112 66
f 9 66 35
f 9 35 20
f 9 20 10
f 10 20 40
f 10 40 77
f 10 77 76
f 10 76 125
f 10 125 191
f 10 191 278
f 10 278 211
f 10 211 205
f 10 205 204
f 10 204 148
f 10 148 87
f 10 87 82
f 10 82 41
f 10 41 21
f 10 21 11
f 12 13 22
f 12 22 18
f 13 23 24
f 13 24 22
f 13 25 23
f 14 26 46
f 14 46 25
f 16 18 27
f 16 27 28
f 16 28 17
f 18 22 29
f 18 29 27
f 19 30 31
f 19 31 32
f 19 32 33
f 19 33 34
f 20 35 36
f 20 36 37
f 20 37 38
f 20 38 39
f 20 39 40
f 21 41 42
f 21 42 43
f 22 24 29
f 23 44 45
f 23 45 24
f 23 25 44
f 24 45 29
f 25 46 47
f 25 47 48
f 25 48 49
f 25 49 50
f 25 50 44
f 26 51 90
f 26 90 46
f 27 52 28
f 27 29 53
f 27 53 52
f 28 52 54
f 29 45 53
f 30 55 56
f 30 56 31
f 31 56 57
f 31 57 32
f 32 58 33
f 32 57 59
f 32 59 60
f 32 60 58
f 33 61 34
f 33 58 62
f 33 62 63
f 33 63 61
f 34 61 63
f 34 63 64
f 34 64 65
f 35 66 36
f 36 66 67
f 36 67 37
f 37 68 69
f 37 69 70
f 37 70 71
f 37 71 72
f 37 72 73
f 37 73 74
f 37 74 75
f 37 75 76
f 37 76 77
f 37 77 38
f 37 67 78
f 37 78 79
f 37 79 80
f 37 80 81
f 37 81 68
f 38 77 39
f 39 77 40
f 41 82 42
f 42 83 84
f 42 84 85
f 42 85 86
f 42 86 43
f 42 82 87
f 42 87 83
f 44 50 45
f 45 50 88
f 45 88 53
f 46 89 47
f 46 90 89
f 47 91 49
f 47 49 48
f 47 89 92
f 47 92 91
f 49 91 93
f 49 93 94
f 49 94 95
f 49 95 50
f 50 95 88
f 51 96 154
f 51 154 90
f 52 97 98
f 52 98 99
f 52 99 54
f 52 53 95
f 52 95 97
f 53 88 95
f 54 99 100
f 55 101 102
f 55 102 56
f 56 102 59
f 56 59 57
f 58 103 62
f 58 60 103
f 59 104 105
f 59 105 103
f 59 103 60
f 59 102 106
f 59 106 107
f 59 107 108
f 59 108 104
f 62 109 63
f 62 103 109
f 63 109 64
f 64 109 110
f 64 110 65
f 65 110 111
f 66 112 67
f 67 112 78
f 68 113 69
f 68 81 113
f 69 114 115
f 69 115 116
f 69 116 70
f 69 113 81
f 69 81 117
f 69 117 118
f 69 118 114
f 70 116 71
f 71 116 115
f 71 115 72
f 72 115 119
f 72 119 114
f 72 114 120
f 72 120 121
f 72 121 122
f 72 122 73
f 73 122 123
f 73 123 74
f 74 123 75
f 75 123 124
f 75 124 125
f 75 125 76
f 78 112 126
f 78 126 79
f 79 126 127
f 79 127 128
f 79 128 129
f 79 129 80
f 80 130 81
f 80 129 131
f 80 131 132
f 80 132 133
f 80 133 134
f 80 134 135
f 80 135 136
f 80 136 137
f 80 137 138
f 80 138 130
f 81 130 139
f 81 139 117
f 83 140 84
f 83 87 140
f 84 140 141
f 84 141 142
f 84 142 143
f 84 143 144
f 84 144 145
f 84 145 85
f 85 145 146
f 85 146 147
f 85 147 86
f 87 148 141
f 87 141 140
f 89 90 149
f 89 149 92
f 90 150 151
f 90 151 152
f 90 152 153
f 90 153 149
f 90 154 150
f 91 92 155
f 91 155 93
f 92 149 156
f 92 156 155
f 93 157 158
f 93 158 94
f 93 155 157
f 94 158 95
f 95 158 98
f 95 98 97
f 96 159 225
f 96 225 154
f 98 158 160
f 98 160 161
f 98 161 162
f 98 162 163
f 98 163 164
f 98 164 99
f 99 164 165
f 99 165 166
f 99 166 100
f 101 167 102
f 102 167 168
f 102 168 106
f 103 105 169
f 103 169 170
f 103 170 171
f 103 171 172
f 103 172 173
f 103 173 109
f 104 174 105
f 104 108 175
f 104 175 174
f 105 176 169
f 105 174 177
f 105 177 176
f 106 168 107
f 107 168 178
f 107 178 108
f 108 179 180
f 108 180 175
f 108 178 179
f 109 173 110
f 110 173 181
f 110 181 111
f 112 182 126
f 114 183 120
f 114 119 115
f 114 118 184
f 114 184 185
f 114 185 186
f 114 186 187
f 114 187 183
f 117 184 118
f 117 139 184
f 120 143 188
f 120 188 121
f 120 183 143
f 121 189 122
f 121 188 143
f 121 143 189
f 122 189 190
f 122 190 124
f 122 124 123
f 124 190 191
f 124 191 125
f 126 182 127
f 129 132 131
f 130 138 192
f 130 192 193
f 130 193 139
f 134 194 135
f 135 194 136
f 136 194 195
f 136 195 137
f 137 195 196
f 137 196 197
f 137 197 198
f 137 198 138
f 138 198 199
f 138 199 200
f 138 200 201
f 138 201 192
f 139 193 192
f 139 192 201
f 139 201 202
f 139 202 203
f 139 203 184
f 141 148 204
f 141 204 205
f 141 205 143
f 141 143 142
f 143 183 206
f 143 206 207
f 143 207 208
f 143 208 209
f 143 209 210
f 143 210 144
f 143 205 211
f 143 211 212
f 143 212 189
f 144 210 213
f 144 213 214
f 144 214 215
f 144 215 145
f 145 215 216
f 145 216 217
f 145 217 307
f 145 307 218
f 145 218 146
f 149 153 156
f 150 219 220
f 150 220 221
f 150 221 151
f 150 154 219
f 151 221 222
f 151 222 152
f 152 222 153
f 153 223 224
f 153 224 156
f 153 222 223
f 154 225 226
f 154 226 227
f 154 227 228
f 154 228 229
f 154 229 230
f 154 230 231
f 154 231 232
f 154 232 219
f 155 156 224
f 155 224 157
f 157 224 233
f 157 233 234
f 157 234 158
f 158 234 235
f 158 235 236
f 158 236 237
f 158 237 238
f 158 238 239
f 158 239 240
f 158 240 241
f 158 241 160
f 159 242 316
f 159 316 225
f 160 243 161
f 160 241 243
f 161 243 244
f 161 244 162
f 162 244 245
f 162 245 246
f 162 246 247
f 162 247 248
f 162 248 163
f 163 248 249
f 163 249 164
f 164 249 250
f 164 250 251
f 164 251 165
f 167 252 168
f 168 252 178
f 169 176 253
f 169 253 254
f 169 254 255
f 169 255 170
f 170 256 257
f 170 257 258
f 170 258 171
f 170 255 256
f 171 258 259
f 171 259 260
f 171 260 261
f 171 261 262
f 171 262 263
f 171 263 264
f 171 264 172
f 172 264 265
f 172 265 266
f 172 266 173
f 173 266 267
f 173 267 268
f 173 268 269
f 173 269 181
f 174 270 177
f 174 175 239
f 174 239 270
f 175 180 271
f 175 271 272
f 175 272 247
f 175 247 246
f 175 246 239
f 176 177 273
f 176 273 274
f 176 274 253
f 177 270 275
f 177 275 274
f 177 274 273
f 183 187 206
f 184 203 276
f 184 276 186
f 184 186 185
f 186 276 277
f 186 277 206
f 186 206 187
f 189 212 211
f 189 211 278
f 189 278 190
f 190 278 191
f 196 279 197
f 197 279 198
f 198 200 199
f 198 279 280
f 198 280 281
f 198 281 282
f 198 282 283
f 198 283 284
f 198 284 285
f 198 285 200
f 200 285 265
f 200 265 201
f 201 265 286
f 201 286 287
f 201 287 288
f 201 288 289
f 201 289 290
f 201 290 202
f 202 290 203
f 203 290 289
f 203 289 276
f 206 277 291
f 206 291 292
f 206 292 207
f 207 293 294
f 207 294 208
f 207 292 295
f 207 295 296
f 207 296 297
f 207 297 293
f 208 294 298
f 208 298 299
f 208 299 215
f 208 215 209
f 209 215 300
f 209 300 301
f 209 301 210
f 210 301 213
f 213 301 302
f 213 302 303
f 213 303 214
f 214 303 304
f 214 304 215
f 215 304 300
f 215 299 305
f 215 305 306
f 215 306 217
f 215 217 216
f 217 306 308
f 217 308 309
f 217 309 387
f 217 387 307
f 219 232 310
f 219 310 220
f 220 311 312
f 220 312 221
f 220 310 313
f 220 313 311
f 221 312 314
f 221 314 222
f 222 315 223
f 222 314 315
f 223 315 224
f 224 315 234
f 224 234 233
f 225 316 317
f 225 317 318
f 225 318 319
f 225 319 320
f 225 320 321
f 225 321 322
f 225 322 323
f 225 323 324
f 225 324 227
f 225 227 226
f 227 325 326
f 227 326 327
f 227 327 328
f 227 328 228
f 227 324 325
f 228 329 330
f 228 330 229
f 228 328 329
f 229 330 230
f 230 330 331
f 230 331 332
f 230 332 232
f 230 232 231
f 232 332 333
f 232 333 310
f 234 334 235
f 234 315 335
f 234 335 336
f 234 336 311
f 234 311 329
f 234 329 334
f 235 337 237
f 235 237 236
f 235 334 338
f 235 338 337
f 237 337 339
f 237 339 340
f 237 340 238
f 238 340 239
f 239 246 341
f 239 341 245
f 239 245 240
f 239 340 270
f 240 245 241
f 241 245 243
f 242 342 316
f 243 245 244
f 245 341 246
f 247 272 343
f 247 343 344
f 247 344 248
f 248 344 345
f 248 345 346
f 248 346 249
f 249 346 250
f 253 347 254
f 253 274 338
f 253 338 334
f 253 334 347
f 254 348 255
f 254 347 349
f 254 349 259
f 254 259 348
f 255 348 256
f 256 350 257
f 256 348 350
f 257 350 258
f 258 350 259
f 259 261 260
f 259 350 348
f 259 349 351
f 259 351 352
f 259 352 353
f 259 353 261
f 261 354 355
f 261 355 262
f 261 353 354
f 262 355 354
f 262 354 356
f 262 356 263
f 263 356 353
f 263 353 357
f 263 357 358
f 263 358 359
f 263 359 265
f 263 265 264
f 265 360 361
f 265 361 286
f 265 285 284
f 265 284 362
f 265 362 266
f 265 359 360
f 266 362 363
f 266 363 364
f 266 364 365
f 266 365 267
f 267 365 268
f 268 366 269
f 268 365 366
f 270 339 275
f 270 340 339
f 274 275 338
f 275 339 337
f 275 337 338
f 276 289 291
f 276 291 277
f 280 367 281
f 281 367 368
f 281 368 369
f 281 369 282
f 282 369 283
f 283 369 370
f 283 370 363
f 283 363 284
f 284 363 362
f 286 361 371
f 286 371 372
f 286 372 287
f 287 372 374
f 287 374 373
f 287 373 288
f 288 291 289
f 288 373 374
f 288 374 375
f 288 375 291
f 291 375 292
f 292 375 374
f 292 374 371
f 292 371 376
f 292 376 377
f 292 377 378
f 292 378 353
f 292 353 379
f 292 379 295
f 293 298 294
f 293 297 298
f 295 380 296
f 295 379 381
f 295 381 382
f 295 382 380
f 296 380 297
f 297 380 383
f 297 383 384
f 297 384 298
f 298 384 385
f 298 385 299
f 299 385 386
f 299 386 305
f 300 304 303
f 300 303 302
f 300 302 301
f 305 386 308
f 305 308 306
f 308 386 384
f 308 384 383
f 308 383 309
f 309 383 316
f 309 316 342
f 309 342 387
f 310 333 313
f 311 313 333
f 311 333 388
f 311 388 329
f 311 336 312
f 312 336 335
f 312 335 314
f 314 335 315
f 316 383 317
f 317 383 389
f 317 389 390
f 317 390 318
f 318 390 391
f 318 391 319
f 319 391 392
f 319 392 320
f 320 392 321
f 321 392 393
f 321 393 394
f 321 394 322
f 322 395 396
f 322 396 397
f 322 397 323
f 322 394 398
f 322 398 395
f 323 397 325
f 323 325 324
f 325 397 399
f 325 399 326
f 326 399 327
f 327 399 397
f 327 397 328
f 328 397 400
f 328 400 395
f 328 395 329
f 329 349 401
f 329 401 334
f 329 388 330
f 329 395 402
f 329 402 351
f 329 351 349
f 330 388 331
f 331 388 333
f 331 333 332
f 334 401 349
f 334 349 347
f 351 402 352
f 352 395 403
f 352 403 398
f 352 398 353
f 352 402 395
f 353 378 357
f 353 356 354
f 353 398 379
f 357 378 404
f 357 404 358
f 358 404 359
f 359 404 360
f 360 404 405
f 360 405 376
f 360 376 406
f 360 406 361
f 361 406 371
f 363 407 364
f 363 370 408
f 363 408 407
f 364 407 365
f 365 407 409
f 365 409 366
f 368 410 369
f 369 411 370
f 369 410 411
f 371 406 376
f 371 374 372
f 376 405 377
f 377 405 404
f 377 404 378
f 379 412 382
f 379 382 381
f 379 398 412
f 380 389 383
f 380 382 413
f 380 413 414
f 380 414 389
f 382 412 398
f 382 398 394
f 382 394 415
f 382 415 416
f 382 416 413
f 384 386 385
f 389 414 390
f 390 414 391
f 391 417 418
f 391 418 392
f 391 414 417
f 392 394 393
f 392 418 394
f 394 418 417
f 394 417 415
f 395 398 403
f 395 400 396
f 396 400 397
f 413 416 414
f 414 416 417
f 415 417 416
