v 0.235495 0.849896 -6.14666e-05
v 0.235495 0.854491 -0.0932613
v 0.228924 0.854554 -0.0932613
v 0.195004 0.853348 -0.145425
v 0.182987 0.849438 -0.145425
v 0.23489 0.849646 -6.14666e-05
v 0.235495 0.721072 -6.14666e-05
v 0.235495 0.853784 -0.110308
v 0.228924 0.854886 -0.127169
v 0.228924 0.855177 -0.110222
v 0.21197 0.855323 -0.14413
v 0.212067 0.855115 -0.145425
v 0.18197 0.84896 -0.145425
v 0.174528 0.843844 -0.145425
v 0.164714 0.835464 -0.145425
v 0.226407 0.841973 -6.14666e-05
v 0.227605 0.669834 -6.14666e-05
v 0.235495 0.721072 -0.00969448
v 0.235495 0.852828 -0.127169
v 0.235495 0.850332 -0.141483
v 0.229578 0.851622 -0.144599
v 0.229263 0.851518 -0.145425
v 0.163467 0.834279 -0.145425
v 0.218396 0.833509 -6.14666e-05
v 0.224495 0.652887 -6.14666e-05
v 0.227605 0.669834 -0.00848502
v 0.235495 0.740328 -0.145425
v 0.230413 0.850956 -0.145425
v 0.235495 0.847567 -0.145425
v 0.15588 0.82515 -0.145425
v 0.153193 0.82176 -0.145425
v 0.142955 0.806871 -0.145425
v 0.211801 0.822447 -6.14666e-05
v 0.224495 0.652887 -0.00848502
v 0.222801 0.648436 -6.14666e-05
v 0.22245 0.651701 -0.0253321
v 0.221651 0.656172 -0.0424069
v 0.220877 0.659229 -0.0525379
v 0.203814 0.644153 -0.0857341
v 0.186968 0.644132 -0.1193
v 0.170643 0.643903 -0.137229
v 0.167618 0.650058 -0.145425
v 0.141745 0.804834 -0.145425
v 0.139458 0.800279 -0.145425
v 0.205363 0.809575 -6.14666e-05
v 0.22107 0.643924 -0.00848502
v 0.220683 0.644215 -0.0196121
v 0.22107 0.643924 -6.14666e-05
v 0.218759 0.645276 -0.0309241
v 0.204612 0.643841 -0.0763003
v 0.188142 0.64382 -0.110222
v 0.176985 0.643633 -0.125846
v 0.160357 0.643508 -0.143376
v 0.159195 0.64357 -0.145425
v 0.133637 0.78853 -0.145425
v 0.126546 0.771728 -0.145425
v 0.201841 0.80109 -6.14666e-05
v 0.21197 0.643175 -0.00848502
v 0.21197 0.643175 -6.14666e-05
v 0.195004 0.643092 -0.0763003
v 0.17805 0.643071 -0.110222
v 0.161108 0.642905 -0.127169
v 0.158324 0.643508 -0.145425
v 0.126013 0.770356 -0.145425
v 0.199711 0.794769 -6.14666e-05
v 0.195004 0.642988 -0.0593536
v 0.199602 0.643654 -6.14666e-05
v 0.142859 0.643113 -0.145425
v 0.197618 0.78853 -6.14666e-05
v 0.120882 0.754614 -0.145425
v 0.128313 0.643695 -0.145425
v 0.128615 0.643674 -0.145425
v 0.191131 0.649247 -6.14666e-05
v 0.195318 0.779984 -6.14666e-05
v 0.118474 0.744841 -0.145425
v 0.193092 0.771562 -6.14666e-05
v 0.121257 0.648956 -0.145425
v 0.118438 0.652887 -0.145425
v 0.18571 0.657732 -6.14666e-05
v 0.116707 0.737667 -0.145425
v 0.189667 0.754614 -6.14666e-05
v 0.112786 0.669834 -0.145425
v 0.184536 0.669834 -6.14666e-05
v 0.114638 0.724899 -0.145425
v 0.187271 0.738561 -6.14666e-05
v 0.113972 0.720719 -0.145425
v 0.112641 0.672454 -0.145425
v 0.184258 0.678256 -6.14666e-05
v 0.111879 0.686803 -0.145425
v 0.185468 0.721135 -6.14666e-05
v 0.112593 0.70635 -0.145425
v 0.183979 0.686803 -6.14666e-05
v 0.184282 0.70375 -6.14666e-05
v 0.111927 0.688882 -0.145425
v 0.112363 0.70375 -0.145425
v 0.184911 0.712983 -6.14666e-05
f 1 2 3
f 1 3 4
f 1 4 5
f 1 5 6
f 1 6 16
f 1 16 24
f 1 24 33
f 1 33 45
f 1 45 57
f 1 57 65
f 1 65 69
f 1 69 74
f 1 74 76
f 1 76 81
f 1 81 85
f 1 85 90
f 1 90 96
f 1 96 93
f 1 93 92
f 1 92 88
f 1 88 83
f 1 83 79
f 1 79 73
f 1 73 67
f 1 67 59
f 1 59 48
f 1 48 35
f 1 35 25
f 1 25 17
f 1 17 7
f 1 7 18
f 1 18 27
f 1 27 29
f 1 29 20
f 1 20 19
f 1 19 8
f 1 8 2
f 2 8 9
f 2 9 10
f 2 10 3
f 3 10 11
f 3 11 4
f 4 11 12
f 4 12 22
f 4 22 28
f 4 28 29
f 4 29 27
f 4 27 42
f 4 42 54
f 4 54 63
f 4 63 68
f 4 68 72
f 4 72 71
f 4 71 77
f 4 77 78
f 4 78 82
f 4 82 87
f 4 87 89
f 4 89 94
f 4 94 95
f 4 95 91
f 4 91 86
f 4 86 84
f 4 84 80
f 4 80 75
f 4 75 70
f 4 70 64
f 4 64 56
f 4 56 55
f 4 55 44
f 4 44 43
f 4 43 32
f 4 32 31
f 4 31 30
f 4 30 23
f 4 23 15
f 4 15 14
f 4 14 13
f 4 13 5
f 5 13 6
f 6 13 14
f 6 14 15
f 6 15 16
f 7 17 26
f 7 26 18
f 8 19 9
f 9 12 11
f 9 11 10
f 9 19 20
f 9 20 21
f 9 21 12
f 12 21 22
f 15 23 16
f 16 23 24
f 17 25 34
f 17 34 26
f 18 26 27
f 20 28 22
f 20 22 21
f 20 29 28
f 23 30 24
f 24 30 31
f 24 31 32
f 24 32 33
f 25 35 34
f 26 34 27
f 27 34 36
f 27 36 37
f 27 37 38
f 27 38 39
f 27 39 40
f 27 40 41
f 27 41 42
f 32 43 33
f 33 43 44
f 33 44 45
f 34 35 46
f 34 46 47
f 34 47 36
f 35 48 46
f 36 47 37
f 37 47 49
f 37 49 38
f 38 49 39
f 39 49 47
f 39 47 50
f 39 50 51
f 39 51 40
f 40 51 52
f 40 52 41
f 41 52 53
f 41 53 54
f 41 54 42
f 44 55 45
f 45 55 56
f 45 56 57
f 46 48 59
f 46 59 58
f 46 58 50
f 46 50 47
f 50 58 60
f 50 60 51
f 51 60 61
f 51 61 52
f 52 61 62
f 52 62 53
f 53 62 63
f 53 63 54
f 56 64 57
f 57 64 65
f 58 59 66
f 58 66 60
f 59 67 68
f 59 68 62
f 59 62 66
f 60 66 62
f 60 62 61
f 62 68 63
f 64 69 65
f 64 70 69
f 67 71 72
f 67 72 68
f 67 73 71
f 69 70 74
f 70 75 76
f 70 76 74
f 71 73 77
f 73 78 77
f 73 79 78
f 75 80 76
f 76 80 81
f 78 79 82
f 79 83 82
f 80 84 81
f 81 84 86
f 81 86 85
f 82 83 87
f 83 88 89
f 83 89 87
f 85 86 90
f 86 91 90
f 88 92 89
f 89 92 93
f 89 93 94
f 90 91 95
f 90 95 96
f 93 96 95
f 93 95 94
