v 0.24621 0.716672 -0.145425
v 0.235495 0.740321 -0.145425
v 0.280043 0.716672 -0.145425
v 0.286998 0.716672 -6.14666e-05
v 0.235495 0.721055 -6.14666e-05
v 0.235495 0.721055 -0.00969448
v 0.235495 0.847574 -0.145425
v 0.291476 0.721068 -0.145425
v 0.292113 0.716672 -0.145396
v 0.327166 0.716672 -6.14666e-05
v 0.235495 0.849894 -6.14666e-05
v 0.246686 0.840111 -0.145425
v 0.235495 0.850342 -0.141483
v 0.239713 0.849419 -0.139264
v 0.291458 0.721231 -0.145425
v 0.294132 0.716672 -0.14053
v 0.326637 0.720702 -6.14666e-05
v 0.327175 0.716672 -0.00649296
v 0.240431 0.851956 -6.14666e-05
v 0.235495 0.854507 -0.0932613
v 0.246695 0.840139 -0.145368
v 0.25662 0.833518 -0.140174
v 0.260641 0.823844 -0.145425
v 0.235495 0.851549 -0.13454
v 0.235495 0.852824 -0.127169
v 0.242396 0.850667 -0.127169
v 0.255705 0.848849 -0.104972
v 0.253067 0.847004 -0.116284
v 0.250877 0.844928 -0.127169
v 0.301015 0.716672 -0.12391
v 0.28899 0.737662 -0.145425
v 0.302649 0.737662 -0.112442
v 0.307432 0.720702 -0.107035
v 0.322823 0.749425 -6.14666e-05
v 0.327175 0.716672 -0.00848502
v 0.245887 0.854235 -6.14666e-05
v 0.245887 0.85528 -0.0763003
v 0.235495 0.853788 -0.110308
v 0.259465 0.836462 -0.127169
v 0.272612 0.832473 -0.104829
v 0.270207 0.829176 -0.116141
v 0.267937 0.825418 -0.127169
v 0.262714 0.822012 -0.143603
v 0.262014 0.821564 -0.145425
v 0.245887 0.854412 -0.0932613
v 0.257931 0.85007 -0.0932613
v 0.271221 0.847818 -0.0673218
v 0.269561 0.846543 -0.0763003
v 0.266402 0.843503 -0.0932613
v 0.307593 0.716672 -0.108017
v 0.286343 0.751948 -0.145425
v 0.289412 0.751636 -0.13841
v 0.305404 0.746955 -0.10214
v 0.306158 0.737662 -0.103961
v 0.310483 0.737662 -0.0932613
v 0.312996 0.720702 -0.0932613
v 0.313561 0.716672 -0.0932613
v 0.309317 0.716672 -0.103762
v 0.318003 0.771581 -6.14666e-05
v 0.322823 0.749425 -0.00501315
v 0.324976 0.716672 -0.025446
v 0.324447 0.720702 -0.025446
v 0.326637 0.720702 -0.00848502
v 0.262848 0.854982 -6.14666e-05
v 0.262848 0.854982 -0.00848502
v 0.262848 0.854276 -0.025446
v 0.274981 0.835024 -0.0932613
v 0.286316 0.827738 -0.0763003
v 0.283857 0.822134 -0.0936028
v 0.276337 0.823084 -0.110379
v 0.271356 0.814021 -0.135735
v 0.265236 0.815798 -0.145425
v 0.261081 0.85121 -0.0763003
v 0.262848 0.853272 -0.0424069
v 0.264482 0.851318 -0.060748
v 0.272002 0.848428 -0.0560098
v 0.283462 0.843273 -0.00848502
v 0.282475 0.841997 -0.025446
v 0.290309 0.833518 -0.025446
v 0.289188 0.83212 -0.0424069
v 0.279872 0.839528 -0.0599939
v 0.287725 0.830017 -0.063978
v 0.277853 0.838063 -0.0763003
v 0.285158 0.757565 -0.145425
v 0.286109 0.756222 -0.144087
v 0.301321 0.753414 -0.108771
v 0.304228 0.758257 -0.0993086
v 0.307585 0.753414 -0.0935032
v 0.306283 0.771581 -0.0873989
v 0.315186 0.737662 -0.0763003
v 0.317618 0.720702 -0.0763003
v 0.31821 0.716672 -0.0759446
v 0.313418 0.788527 -6.14666e-05
v 0.318003 0.771581 -0.00848502
v 0.3239 0.739032 -0.00979408
v 0.322105 0.745585 -0.0163252
v 0.321162 0.754893 -0.00979408
v 0.321916 0.716672 -0.048753
v 0.322194 0.729222 -0.0339691
v 0.32276 0.733049 -0.025446
v 0.26896 0.852675 -6.14666e-05
v 0.27499 0.850396 -0.00848502
v 0.274003 0.849853 -0.025446
v 0.291323 0.819258 -0.0763003
v 0.289654 0.816273 -0.0881673
v 0.273106 0.805487 -0.139947
v 0.270737 0.805487 -0.145425
v 0.287339 0.811782 -0.0994793
v 0.272899 0.849107 -0.0424069
v 0.291404 0.834793 -0.00848502
v 0.279199 0.846868 -6.14666e-05
v 0.283462 0.843273 -6.14666e-05
v 0.287465 0.839012 -6.14666e-05
v 0.299328 0.822446 -0.00848502
v 0.288514 0.831238 -0.0526802
v 0.294904 0.822446 -0.0424069
v 0.292086 0.8236 -0.0587418
v 0.282161 0.771581 -0.145425
v 0.282798 0.771581 -0.14413
v 0.288245 0.762938 -0.135564
v 0.302792 0.771581 -0.0958794
v 0.305332 0.780359 -0.0850369
v 0.312233 0.754621 -0.0763003
v 0.314719 0.754621 -0.0593536
v 0.317609 0.737662 -0.0593536
v 0.320418 0.71906 -0.057703
v 0.320615 0.716672 -0.0585852
v 0.307899 0.804116 -6.14666e-05
v 0.313418 0.788527 -0.00848502
v 0.319188 0.754621 -0.025446
v 0.315796 0.771581 -0.025446
v 0.307405 0.786573 -0.0593536
v 0.316954 0.754621 -0.0424069
v 0.321512 0.741515 -0.025446
v 0.27499 0.850396 -6.14666e-05
v 0.297731 0.805487 -0.0763003
v 0.300674 0.805487 -0.0593536
v 0.292149 0.805867 -0.0936028
v 0.276337 0.791268 -0.145425
v 0.289645 0.800467 -0.105043
v 0.291404 0.834793 -6.14666e-05
v 0.295344 0.82866 -6.14666e-05
v 0.304686 0.812596 -0.00848502
v 0.297139 0.822446 -0.025446
v 0.299328 0.822446 -6.14666e-05
v 0.303582 0.809774 -0.025446
v 0.281775 0.773101 -0.145425
v 0.289331 0.783032 -0.121292
v 0.287303 0.771581 -0.133302
v 0.278069 0.785759 -0.145425
v 0.300145 0.787007 -0.0917245
v 0.303169 0.791186 -0.0763003
v 0.306122 0.78272 -0.0763003
v 0.308778 0.771581 -0.0763003
v 0.284943 0.788608 -0.127041
v 0.287303 0.79432 -0.116341
v 0.311327 0.771581 -0.0593536
v 0.307899 0.804116 -0.00848502
v 0.304686 0.812596 -6.14666e-05
v 0.31121 0.788527 -0.025446
v 0.305161 0.796803 -0.0503609
v 0.305906 0.798879 -0.0390489
v 0.306804 0.801294 -0.025446
v 0.313561 0.771581 -0.0424069
v 0.304569 0.795053 -0.0593536
v 0.302981 0.804917 -0.0437871
v 0.276749 0.790182 -0.145425
v 0.27692 0.789612 -0.145425
f 1 2 7
f 1 7 12
f 1 12 23
f 1 23 44
f 1 44 72
f 1 72 107
f 1 107 139
f 1 139 167
f 1 167 168
f 1 168 150
f 1 150 147
f 1 147 118
f 1 118 84
f 1 84 51
f 1 51 31
f 1 31 15
f 1 15 8
f 1 8 3
f 1 3 9
f 1 9 16
f 1 16 30
f 1 30 50
f 1 50 58
f 1 58 57
f 1 57 92
f 1 92 127
f 1 127 98
f 1 98 61
f 1 61 35
f 1 35 18
f 1 18 10
f 1 10 4
f 1 4 5
f 1 5 6
f 1 6 2
f 2 6 5
f 2 5 11
f 2 11 20
f 2 20 38
f 2 38 25
f 2 25 24
f 2 24 13
f 2 13 7
f 3 8 9
f 4 10 17
f 4 17 34
f 4 34 59
f 4 59 93
f 4 93 128
f 4 128 159
f 4 159 145
f 4 145 142
f 4 142 141
f 4 141 113
f 4 113 112
f 4 112 111
f 4 111 135
f 4 135 101
f 4 101 64
f 4 64 36
f 4 36 19
f 4 19 11
f 4 11 5
f 7 13 14
f 7 14 12
f 8 15 9
f 9 15 16
f 10 18 17
f 11 19 20
f 12 14 21
f 12 21 22
f 12 22 23
f 13 24 14
f 14 24 25
f 14 25 26
f 14 26 27
f 14 27 28
f 14 28 29
f 14 29 22
f 14 22 21
f 15 30 16
f 15 31 32
f 15 32 33
f 15 33 30
f 17 18 34
f 18 35 60
f 18 60 34
f 19 36 20
f 20 37 38
f 20 36 37
f 22 29 39
f 22 39 40
f 22 40 41
f 22 41 42
f 22 42 43
f 22 43 23
f 23 43 44
f 25 38 45
f 25 45 26
f 26 45 46
f 26 46 27
f 27 46 47
f 27 47 48
f 27 48 49
f 27 49 29
f 27 29 28
f 29 49 39
f 30 33 50
f 31 51 52
f 31 52 53
f 31 53 32
f 32 53 54
f 32 54 33
f 33 54 55
f 33 55 56
f 33 56 57
f 33 57 58
f 33 58 50
f 34 60 94
f 34 94 59
f 35 61 62
f 35 62 63
f 35 63 60
f 36 64 37
f 37 45 38
f 37 64 65
f 37 65 66
f 37 66 45
f 39 49 67
f 39 67 40
f 40 67 68
f 40 68 69
f 40 69 41
f 41 69 70
f 41 70 42
f 42 71 43
f 42 70 71
f 43 71 44
f 44 71 72
f 45 73 46
f 45 66 74
f 45 74 73
f 46 73 47
f 47 75 76
f 47 76 77
f 47 77 78
f 47 78 79
f 47 79 80
f 47 80 81
f 47 81 82
f 47 82 83
f 47 83 48
f 47 73 75
f 48 83 67
f 48 67 49
f 51 84 85
f 51 85 52
f 52 85 86
f 52 86 53
f 53 87 88
f 53 88 55
f 53 55 54
f 53 86 87
f 55 88 89
f 55 89 90
f 55 90 56
f 56 90 91
f 56 91 57
f 57 91 92
f 59 94 129
f 59 129 93
f 60 63 95
f 60 95 96
f 60 96 97
f 60 97 94
f 61 98 62
f 62 99 63
f 62 98 99
f 63 99 100
f 63 100 95
f 64 101 65
f 65 101 102
f 65 102 66
f 66 102 103
f 66 103 74
f 67 83 68
f 68 104 105
f 68 105 69
f 68 83 82
f 68 82 104
f 69 105 71
f 69 71 70
f 71 106 107
f 71 107 72
f 71 105 108
f 71 108 106
f 73 74 75
f 74 103 75
f 75 103 109
f 75 109 76
f 76 109 77
f 77 110 78
f 77 109 103
f 77 103 102
f 77 102 111
f 77 111 112
f 77 112 113
f 77 113 110
f 78 110 79
f 79 110 114
f 79 114 80
f 80 114 115
f 80 115 81
f 81 115 82
f 82 115 116
f 82 116 117
f 82 117 104
f 84 118 85
f 85 119 120
f 85 120 86
f 85 118 119
f 86 120 87
f 87 121 89
f 87 89 88
f 87 120 121
f 89 122 123
f 89 123 90
f 89 121 122
f 90 123 124
f 90 124 125
f 90 125 91
f 91 125 126
f 91 126 92
f 92 126 127
f 93 129 158
f 93 158 128
f 94 97 130
f 94 130 131
f 94 131 132
f 94 132 129
f 95 100 96
f 96 124 133
f 96 133 130
f 96 130 97
f 96 100 134
f 96 134 125
f 96 125 124
f 98 127 126
f 98 126 99
f 99 126 125
f 99 125 100
f 100 125 134
f 101 135 102
f 102 135 111
f 104 136 105
f 104 117 137
f 104 137 136
f 105 136 122
f 105 122 138
f 105 138 108
f 106 139 107
f 106 108 140
f 106 140 139
f 108 138 140
f 110 113 141
f 110 141 142
f 110 142 114
f 114 143 144
f 114 144 115
f 114 142 145
f 114 145 159
f 114 159 143
f 115 144 116
f 116 144 143
f 116 143 117
f 117 143 146
f 117 146 137
f 118 147 119
f 119 148 122
f 119 122 149
f 119 149 120
f 119 147 150
f 119 150 148
f 120 149 121
f 121 149 122
f 122 151 138
f 122 136 152
f 122 152 153
f 122 153 154
f 122 154 123
f 122 148 155
f 122 155 156
f 122 156 151
f 123 154 157
f 123 157 124
f 124 157 164
f 124 164 133
f 128 158 143
f 128 143 159
f 129 132 160
f 129 160 161
f 129 161 162
f 129 162 163
f 129 163 158
f 130 133 164
f 130 164 131
f 131 164 132
f 132 164 157
f 132 157 153
f 132 153 165
f 132 165 160
f 136 137 152
f 137 146 166
f 137 166 162
f 137 162 161
f 137 161 165
f 137 165 152
f 138 151 140
f 139 140 156
f 139 156 167
f 140 151 156
f 143 158 163
f 143 163 146
f 146 163 166
f 148 150 168
f 148 168 167
f 148 167 155
f 152 165 153
f 153 157 154
f 155 167 156
f 160 165 161
f 162 166 163
