v 0.215277 0.855239 0.140831
v 0.211971 0.855135 0.140831
v 0.22944 0.852328 0.140831
v 0.228927 0.854885 0.127177
v 0.245884 0.855259 0.0763011
v 0.247893 0.854324 -6.14603e-05
v 0.245884 0.85422 -6.14603e-05
v 0.198329 0.853409 0.140831
v 0.23674 0.850062 0.140831
v 0.245884 0.854407 0.0932644
v 0.239698 0.849418 0.139258
v 0.242386 0.850665 0.127177
v 0.247893 0.854844 0.0746185
v 0.247893 0.85476 0.057338
v 0.247893 0.854573 0.0234252
v 0.247893 0.745621 -6.14603e-05
v 0.195214 0.852432 0.140831
v 0.240429 0.851954 -6.14603e-05
v 0.1846 0.848773 0.140831
v 0.186157 0.849355 0.140831
v 0.239141 0.849044 0.140831
v 0.247893 0.853679 0.0932644
v 0.247893 0.853971 0.0910164
v 0.24149 0.847027 0.140831
v 0.247737 0.841331 0.140831
v 0.247893 0.841518 0.140114
v 0.247893 0.846944 0.127177
v 0.247893 0.851081 0.109786
v 0.247893 0.851268 0.108752
v 0.247893 0.720342 0.140831
v 0.224499 0.652884 -6.14603e-05
v 0.234887 0.849647 -6.14603e-05
v 0.176091 0.842183 0.140831
v 0.247893 0.841165 0.140831
v 0.164633 0.643674 0.140831
v 0.170636 0.643903 0.137231
v 0.186975 0.644132 0.119302
v 0.20381 0.644152 0.0857344
v 0.218765 0.645275 0.0309276
v 0.220679 0.644215 0.0196188
v 0.221071 0.643924 0.00848916
v 0.224499 0.652884 0.00848916
v 0.221071 0.643924 -6.14603e-05
v 0.226413 0.841976 -6.14603e-05
v 0.16646 0.833806 0.140831
v 0.168487 0.835614 0.140831
v 0.160474 0.643404 0.140831
v 0.176996 0.643633 0.12584
v 0.18815 0.64382 0.110214
v 0.204619 0.643841 0.0763011
v 0.211971 0.643175 0.00848916
v 0.211971 0.643175 -6.14603e-05
v 0.222437 0.837776 -6.14603e-05
v 0.2184 0.833494 -6.14603e-05
v 0.159021 0.824222 0.140831
v 0.159021 0.643487 0.140831
v 0.159021 0.643009 0.12737
v 0.161101 0.642905 0.127177
v 0.178057 0.643071 0.110214
v 0.195014 0.643092 0.0763011
v 0.195014 0.642988 0.0593653
v 0.199616 0.643653 -6.14603e-05
v 0.215077 0.827923 -6.14603e-05
v 0.211805 0.822434 -6.14603e-05
v 0.20856 0.815948 -6.14603e-05
v 0.205367 0.809566 -6.14603e-05
v 0.203618 0.805367 -6.14603e-05
v 0.201852 0.801085 -6.14603e-05
v 0.159021 0.823037 0.139617
v 0.159021 0.643633 0.112793
v 0.18647 0.644339 0.0332446
v 0.191142 0.649246 -6.14603e-05
v 0.197633 0.788528 -6.14603e-05
v 0.195327 0.779984 -6.14603e-05
v 0.193109 0.771565 -6.14603e-05
v 0.159021 0.805783 0.126529
v 0.159021 0.650846 0.102656
v 0.185722 0.657727 -6.14603e-05
v 0.189681 0.754602 -6.14603e-05
v 0.159021 0.803538 0.125191
v 0.159021 0.652884 0.100643
v 0.159021 0.660139 0.0972501
v 0.159021 0.669639 0.0931265
v 0.159021 0.669847 0.0930438
v 0.185139 0.663735 -6.14603e-05
v 0.159021 0.788445 0.116296
v 0.187288 0.738574 -6.14603e-05
v 0.159021 0.685251 0.0918853
v 0.183991 0.68679 -6.14603e-05
v 0.184548 0.669847 -6.14603e-05
v 0.159021 0.772168 0.108669
v 0.18547 0.721132 -6.14603e-05
v 0.159021 0.768842 0.107332
v 0.159021 0.68679 0.091775
v 0.159021 0.702817 0.0923818
v 0.159021 0.703753 0.0924231
v 0.184139 0.695209 -6.14603e-05
v 0.159021 0.737659 0.0975535
v 0.159021 0.745954 0.0998567
v 0.159021 0.754602 0.102298
v 0.184295 0.703753 -6.14603e-05
v 0.159021 0.720716 0.0944091
v 0.159021 0.723086 0.0948366
f 1 2 8
f 1 8 17
f 1 17 20
f 1 20 19
f 1 19 33
f 1 33 46
f 1 46 45
f 1 45 55
f 1 55 56
f 1 56 47
f 1 47 35
f 1 35 30
f 1 30 34
f 1 34 25
f 1 25 24
f 1 24 21
f 1 21 9
f 1 9 3
f 1 3 4
f 1 4 5
f 1 5 6
f 1 6 2
f 2 6 7
f 2 7 8
f 3 9 4
f 4 10 5
f 4 9 11
f 4 11 12
f 4 12 10
f 5 13 14
f 5 14 15
f 5 15 6
f 5 10 13
f 6 15 14
f 6 14 13
f 6 13 23
f 6 23 22
f 6 22 29
f 6 29 28
f 6 28 27
f 6 27 26
f 6 26 34
f 6 34 30
f 6 30 16
f 6 16 31
f 6 31 43
f 6 43 52
f 6 52 62
f 6 62 72
f 6 72 78
f 6 78 85
f 6 85 90
f 6 90 89
f 6 89 97
f 6 97 101
f 6 101 92
f 6 92 87
f 6 87 79
f 6 79 75
f 6 75 74
f 6 74 73
f 6 73 68
f 6 68 67
f 6 67 66
f 6 66 65
f 6 65 64
f 6 64 63
f 6 63 54
f 6 54 53
f 6 53 44
f 6 44 32
f 6 32 18
f 6 18 7
f 7 17 8
f 7 18 19
f 7 19 20
f 7 20 17
f 9 21 11
f 10 22 23
f 10 23 13
f 10 12 22
f 11 21 24
f 11 24 25
f 11 25 26
f 11 26 27
f 11 27 12
f 12 27 28
f 12 28 29
f 12 29 22
f 16 30 31
f 18 32 19
f 19 32 33
f 25 34 26
f 30 35 36
f 30 36 37
f 30 37 38
f 30 38 39
f 30 39 40
f 30 40 41
f 30 41 42
f 30 42 31
f 31 42 41
f 31 41 43
f 32 44 45
f 32 45 46
f 32 46 33
f 35 47 48
f 35 48 36
f 36 48 37
f 37 48 49
f 37 49 38
f 38 49 50
f 38 50 40
f 38 40 39
f 40 50 41
f 41 50 51
f 41 51 52
f 41 52 43
f 44 53 45
f 45 53 54
f 45 54 55
f 47 56 57
f 47 57 58
f 47 58 59
f 47 59 48
f 48 59 49
f 49 59 60
f 49 60 50
f 50 60 51
f 51 60 61
f 51 61 52
f 52 61 58
f 52 58 62
f 54 63 55
f 55 63 64
f 55 64 65
f 55 65 66
f 55 66 67
f 55 67 68
f 55 68 69
f 55 69 76
f 55 76 80
f 55 80 86
f 55 86 91
f 55 91 93
f 55 93 100
f 55 100 99
f 55 99 98
f 55 98 103
f 55 103 102
f 55 102 96
f 55 96 95
f 55 95 94
f 55 94 88
f 55 88 84
f 55 84 83
f 55 83 82
f 55 82 81
f 55 81 77
f 55 77 70
f 55 70 57
f 55 57 56
f 57 70 62
f 57 62 58
f 58 61 60
f 58 60 59
f 62 70 71
f 62 71 72
f 68 73 69
f 69 73 74
f 69 74 75
f 69 75 76
f 70 77 78
f 70 78 72
f 70 72 71
f 75 79 76
f 76 79 80
f 77 81 78
f 78 81 82
f 78 82 83
f 78 83 84
f 78 84 85
f 79 86 80
f 79 87 86
f 84 88 89
f 84 89 90
f 84 90 85
f 86 87 91
f 87 92 93
f 87 93 91
f 88 94 89
f 89 94 95
f 89 95 96
f 89 96 97
f 92 98 99
f 92 99 100
f 92 100 93
f 92 101 98
f 96 102 101
f 96 101 97
f 98 101 103
f 101 102 103
