v -6.01652e-05 -0.83353 -0.0947183
v -6.01652e-05 -0.83353 -0.0902801
v -6.01652e-05 -0.82647 -0.0947183
v 0.122891 -0.83353 -0.0947183
v -6.01652e-05 -0.828572 -0.0933934
v 0.0902935 -0.83353 -6.14666e-05
v 0.101863 -0.782067 -6.14666e-05
v 0.0331095 -0.788512 -0.0947183
v 0.107692 -0.772746 -6.14666e-05
v 0.182614 -0.674441 -6.14666e-05
v 0.130544 -0.825438 -0.0947183
v 0.131134 -0.826013 -0.0932636
v 0.124017 -0.83353 -0.0932636
v 0.155399 -0.83353 -6.14666e-05
v 0.182596 -0.630931 -0.0947183
v 0.182614 -0.632557 -0.0926614
v 0.182614 -0.795176 -6.14666e-05
v 0.138215 -0.816931 -0.0947183
v 0.134818 -0.830019 -0.083368
v 0.138752 -0.817545 -0.0932636
v 0.132583 -0.83353 -0.0815057
v 0.155399 -0.83353 -0.00850238
v 0.170044 -0.81461 -6.14666e-05
v 0.182614 -0.634461 -0.0947183
v 0.182614 -0.795176 -0.00855798
v 0.147549 -0.806003 -0.0947183
v 0.137804 -0.83349 -0.0720548
v 0.13775 -0.83353 -0.0720919
v 0.147817 -0.806043 -0.0942828
v 0.151072 -0.812092 -0.0814315
v 0.147853 -0.805647 -0.0947183
v 0.15531 -0.83353 -0.0092251
v 0.164572 -0.821135 -0.00901199
v 0.170044 -0.81461 -0.00371209
v 0.182614 -0.741551 -0.0947183
v 0.174621 -0.806955 -0.00901199
v 0.174425 -0.804139 -0.0254398
v 0.182614 -0.791963 -0.0248468
v 0.153557 -0.815185 -0.0701276
v 0.149105 -0.826509 -0.0593517
v 0.143347 -0.83353 -0.0593517
v 0.148086 -0.805369 -0.0947183
v 0.155363 -0.800788 -0.0893165
v 0.170562 -0.781512 -0.0869353
v 0.166986 -0.793272 -0.0763077
v 0.157902 -0.806043 -0.0759834
v 0.15463 -0.83353 -0.0145991
v 0.161461 -0.822444 -0.0254398
v 0.169311 -0.813599 -0.0150161
v 0.153933 -0.832617 -0.0254398
v 0.182614 -0.757377 -0.0946535
v 0.182578 -0.757357 -0.0947183
v 0.168631 -0.812607 -0.0254398
v 0.173066 -0.802017 -0.0423958
v 0.181541 -0.789563 -0.0423958
v 0.182614 -0.787977 -0.0423958
v 0.182614 -0.790991 -0.0291924
v 0.182614 -0.791844 -0.0254398
v 0.165001 -0.80527 -0.0602597
v 0.155792 -0.818041 -0.0593517
v 0.151447 -0.829464 -0.0470285
v 0.148604 -0.83353 -0.0453607
v 0.153664 -0.798507 -0.0947183
v 0.16856 -0.778755 -0.0947183
v 0.171957 -0.773738 -0.0947183
v 0.174228 -0.771735 -0.0928559
v 0.182614 -0.758586 -0.0932358
v 0.182614 -0.768938 -0.0778736
v 0.182614 -0.770287 -0.0757795
v 0.182614 -0.772984 -0.0715822
v 0.182614 -0.779409 -0.0613901
v 0.172815 -0.784804 -0.0763077
v 0.169024 -0.796227 -0.0665233
v 0.171367 -0.799479 -0.0552193
v 0.153217 -0.83353 -0.0254398
v 0.15311 -0.831566 -0.0357246
v 0.173834 -0.770882 -0.0947183
v 0.182113 -0.758091 -0.0947183
v 0.16704 -0.810505 -0.0423958
v 0.182614 -0.783733 -0.0544688
v 0.150982 -0.83353 -0.0374665
v 0.157688 -0.823257 -0.0417842
f 1 2 5
f 1 5 3
f 1 3 8
f 1 8 15
f 1 15 24
f 1 24 35
f 1 35 52
f 1 52 78
f 1 78 77
f 1 77 65
f 1 65 64
f 1 64 63
f 1 63 42
f 1 42 31
f 1 31 26
f 1 26 18
f 1 18 11
f 1 11 4
f 1 4 13
f 1 13 21
f 1 21 28
f 1 28 41
f 1 41 62
f 1 62 81
f 1 81 75
f 1 75 47
f 1 47 32
f 1 32 22
f 1 22 14
f 1 14 6
f 1 6 2
f 2 6 7
f 2 7 5
f 3 5 7
f 3 7 9
f 3 9 10
f 3 10 8
f 4 11 12
f 4 12 13
f 6 14 23
f 6 23 17
f 6 17 10
f 6 10 9
f 6 9 7
f 8 10 15
f 10 16 15
f 10 17 25
f 10 25 38
f 10 38 58
f 10 58 57
f 10 57 56
f 10 56 80
f 10 80 71
f 10 71 70
f 10 70 69
f 10 69 68
f 10 68 67
f 10 67 51
f 10 51 35
f 10 35 24
f 10 24 16
f 11 18 12
f 12 19 13
f 12 18 20
f 12 20 19
f 13 19 21
f 14 22 34
f 14 34 23
f 15 16 24
f 17 23 34
f 17 34 25
f 18 26 20
f 19 27 28
f 19 28 21
f 19 20 29
f 19 29 30
f 19 30 27
f 20 26 31
f 20 31 29
f 22 32 33
f 22 33 34
f 25 34 36
f 25 36 37
f 25 37 38
f 27 30 39
f 27 39 40
f 27 40 41
f 27 41 28
f 29 31 42
f 29 42 43
f 29 43 30
f 30 43 44
f 30 44 45
f 30 45 46
f 30 46 39
f 32 47 33
f 33 48 49
f 33 49 34
f 33 47 50
f 33 50 48
f 34 49 36
f 35 51 52
f 36 49 37
f 37 49 53
f 37 53 54
f 37 54 55
f 37 55 56
f 37 56 57
f 37 57 58
f 37 58 38
f 39 46 59
f 39 59 60
f 39 60 40
f 40 61 41
f 40 60 61
f 41 61 62
f 42 63 43
f 43 63 64
f 43 64 44
f 44 64 65
f 44 65 66
f 44 66 67
f 44 67 68
f 44 68 69
f 44 69 70
f 44 70 71
f 44 71 72
f 44 72 45
f 45 72 73
f 45 73 46
f 46 73 74
f 46 74 59
f 47 75 50
f 48 53 49
f 48 50 76
f 48 76 53
f 50 75 76
f 51 67 77
f 51 77 78
f 51 78 52
f 53 79 54
f 53 76 79
f 54 79 74
f 54 74 80
f 54 80 55
f 55 80 56
f 59 74 60
f 60 74 61
f 61 76 81
f 61 81 62
f 61 74 79
f 61 79 82
f 61 82 76
f 65 77 66
f 66 77 67
f 71 80 72
f 72 80 73
f 73 80 74
f 75 81 76
f 76 82 79
