v 0.00848761 -0.121826 0.376577
v -4.75939e-05 -0.121826 0.376577
v 0.00848761 -0.127214 0.376207
v 0.0320191 -0.132125 0.372817
v 0.025998 -0.126737 0.373967
v 0.0347343 -0.121826 0.373166
v -4.75939e-05 -0.121826 0.331603
v -4.75939e-05 -0.127214 0.376207
v 0.0207059 -0.140856 0.373556
v 0.00103345 -0.170935 0.373187
v 0.00995833 -0.145562 0.374481
v 0.0763042 -0.127214 0.367311
v 0.0593594 -0.127214 0.36955
v 0.0361422 -0.121826 0.372981
v 0.0763042 -0.144198 0.365914
v 0.128345 -0.121826 0.303908
v -4.75939e-05 -0.700362 0.166686
v -4.75939e-05 -0.170935 0.373187
v 0.013214 -0.161113 0.372591
v 0.0254449 -0.178097 0.369365
v 0.0593594 -0.178097 0.364907
v 0.0593594 -0.144198 0.368153
v 0.00740656 -0.17721 0.37179
v 0.00474167 -0.161113 0.373659
v 0.00848761 -0.211996 0.368009
v 0.00848761 -0.195081 0.36992
v 0.0932614 -0.127214 0.364517
v 0.0763042 -0.121826 0.367681
v 0.0932614 -0.144198 0.363058
v 0.0763042 -0.178097 0.362667
v 0.128345 -0.121826 0.352189
v 0.128345 -0.620354 0.166686
v -4.75939e-05 -0.818565 0.166686
v -4.75939e-05 -0.211996 0.368009
v 0.0254449 -0.195081 0.367722
v 0.0424022 -0.195081 0.365503
v 0.0593594 -0.195081 0.363263
v -4.75939e-05 -0.237506 0.364743
v 0.00848761 -0.22898 0.365831
v 0.0254449 -0.245895 0.361476
v 0.0254449 -0.211996 0.365811
v 0.0986164 -0.121826 0.363243
v 0.0932614 -0.121826 0.364886
v 0.108031 -0.144198 0.358702
v 0.105932 -0.161113 0.357839
v 0.0763042 -0.195081 0.361024
v 0.0932614 -0.178097 0.359688
v 0.0942042 -0.195012 0.357798
v 0.100477 -0.200605 0.355785
v 0.102425 -0.189283 0.356381
v 0.103833 -0.178097 0.356956
v 0.120753 -0.121826 0.355353
v 0.128345 -0.125714 0.351902
v 0.128345 -0.748175 0.166686
v 0.00696661 -0.818565 0.166686
v -4.75939e-05 -0.816519 0.168432
v 0.0593594 -0.211996 0.361353
v -4.75939e-05 -0.254489 0.362565
v 0.00848761 -0.262879 0.361476
v 0.0254449 -0.262879 0.359278
v 0.0421759 -0.262606 0.35712
v 0.0700316 -0.239688 0.356401
v 0.0424022 -0.22898 0.361414
v 0.111111 -0.121826 0.359319
v 0.127176 -0.144198 0.350772
v 0.117937 -0.131511 0.355785
v 0.111463 -0.126396 0.358846
v 0.112305 -0.178097 0.353463
v 0.128345 -0.159954 0.348676
v 0.0763042 -0.211996 0.359113
v 0.0859833 -0.222568 0.356381
v 0.088975 -0.211996 0.357059
v 0.0974473 -0.211996 0.355066
v 0.0932614 -0.262879 0.349231
v 0.108031 -0.279863 0.341752
v 0.111752 -0.264107 0.342697
v 0.110219 -0.245895 0.345841
v 0.110219 -0.211996 0.350505
v 0.108937 -0.195012 0.353093
v 0.118817 -0.121826 0.356155
v 0.128345 -0.126532 0.35184
v 0.128345 -0.747834 0.166953
v 0.124675 -0.752199 0.166686
v 0.0116805 -0.817747 0.166686
v 0.00371091 -0.814609 0.170055
v -4.75939e-05 -0.814609 0.170055
v -4.75939e-05 -0.262879 0.361476
v 0.00848761 -0.279863 0.35899
v 0.036381 -0.273383 0.356422
v 0.0476817 -0.268131 0.355682
v 0.0813323 -0.233891 0.355641
v 0.0763042 -0.262879 0.35258
v 0.0759271 -0.245554 0.35486
v 0.128345 -0.144198 0.350279
v 0.128345 -0.14297 0.350402
v 0.128345 -0.193648 0.345204
v 0.127176 -0.178097 0.3473
v 0.0763042 -0.279863 0.350114
v 0.0932614 -0.279863 0.346663
v 0.116516 -0.279863 0.338239
v 0.118427 -0.270586 0.33904
v 0.102362 -0.306736 0.33941
v 0.128345 -0.313762 0.327432
v 0.120325 -0.259264 0.339821
v 0.128345 -0.213156 0.342841
v 0.127176 -0.195081 0.345533
v 0.121318 -0.748925 0.171596
v 0.128345 -0.745038 0.168905
v 0.117887 -0.759566 0.166686
v 0.0254449 -0.815291 0.166686
v 0.0150116 -0.813586 0.169336
v 0.00901556 -0.806902 0.174637
v 0.00848761 -0.793056 0.184026
v 0.000505491 -0.763181 0.203565
v -4.75939e-05 -0.763181 0.203565
v -4.75939e-05 -0.279863 0.35899
v 0.00848761 -0.293027 0.356874
v 0.0181039 -0.289207 0.356257
v 0.0593594 -0.279863 0.352354
v 0.128345 -0.195081 0.34504
v 0.0763042 -0.313762 0.344608
v 0.0849525 -0.339408 0.339184
v 0.0874288 -0.330677 0.339924
v 0.099446 -0.318059 0.338424
v 0.127176 -0.279863 0.333822
v 0.128345 -0.26397 0.335835
v 0.110219 -0.330677 0.331932
v 0.127767 -0.329859 0.324823
v 0.128345 -0.328972 0.324741
v 0.128345 -0.295823 0.330555
v 0.128345 -0.256536 0.336863
v 0.128345 -0.249237 0.337869
v 0.128345 -0.22898 0.340663
v 0.128345 -0.738558 0.173363
v 0.125793 -0.736102 0.177
v 0.118968 -0.729418 0.186738
v 0.104776 -0.766182 0.171699
v 0.116076 -0.760248 0.167569
v 0.115335 -0.762226 0.166686
v 0.042377 -0.810994 0.166686
v 0.0424022 -0.810449 0.167076
v 0.0254449 -0.812563 0.168638
v 0.0254449 -0.804105 0.174452
v 0.0254449 -0.791351 0.182917
v 0.00848761 -0.784598 0.189471
v 0.0118062 -0.761953 0.202846
v 0.00709231 -0.75561 0.207057
v 0.00554617 -0.730441 0.221172
v 0.00709231 -0.769933 0.198654
v 0.0254449 -0.77157 0.195306
v -4.75939e-05 -0.730441 0.221172
v -4.75939e-05 -0.293027 0.356874
v 0.00848761 -0.313762 0.353504
v 0.0254449 -0.313762 0.351306
v 0.0593594 -0.313762 0.346848
v 0.0763042 -0.330677 0.341814
v 0.0593594 -0.330677 0.344053
v 0.0254449 -0.330677 0.348512
v 0.0763042 -0.342341 0.33978
v 0.0763042 -0.350867 0.338095
v 0.0763042 -0.38156 0.331973
v 0.0763042 -0.398544 0.328501
v 0.083155 -0.423098 0.321967
v 0.0879065 -0.411776 0.323323
v 0.0932614 -0.364644 0.331377
v 0.091665 -0.346092 0.335692
v 0.0959012 -0.330677 0.337294
v 0.110219 -0.347661 0.328624
v 0.128345 -0.279931 0.333308
v 0.128345 -0.278635 0.333514
v 0.128345 -0.330336 0.324494
v 0.128345 -0.340908 0.32246
v 0.128345 -0.735079 0.175726
v 0.128345 -0.728736 0.179917
v 0.128345 -0.722666 0.183923
v 0.128345 -0.720688 0.185218
v 0.122663 -0.720688 0.189594
v 0.120828 -0.697906 0.204941
v 0.115121 -0.709229 0.201695
v 0.101935 -0.746265 0.186656
v 0.0982393 -0.777504 0.167672
v 0.108145 -0.769524 0.166686
v 0.0589446 -0.803696 0.166686
v 0.0552364 -0.799467 0.17137
v 0.0424022 -0.801991 0.173076
v 0.0509751 -0.780096 0.186574
v 0.0424022 -0.789577 0.181561
v 0.0424022 -0.781051 0.187211
v 0.0254449 -0.782893 0.188361
v 0.0254449 -0.760384 0.201962
v 0.0254449 -0.751927 0.20679
v 0.0101092 -0.736716 0.217186
v 0.0168468 -0.729145 0.220453
v 0.0101092 -0.722324 0.224788
v 0.00848761 -0.704863 0.233828
v 0.0424022 -0.77157 0.193004
v -4.75939e-05 -0.704863 0.233828
v -4.75939e-05 -0.313762 0.353504
v 0.00848761 -0.330677 0.35071
v 0.0254449 -0.347661 0.345409
v 0.0424022 -0.347661 0.343191
v 0.0254449 -0.376172 0.339759
v 0.0254449 -0.384629 0.338075
v 0.0593594 -0.38156 0.334212
v 0.0142448 -0.388312 0.338794
v 0.0254449 -0.398544 0.335198
v 0.0593594 -0.415527 0.326919
v 0.0770207 -0.416619 0.324309
v 0.0932614 -0.449426 0.311777
v 0.0593594 -0.449426 0.318824
v 0.0763042 -0.449426 0.316441
v 0.0763042 -0.466342 0.312044
v 0.0873031 -0.47821 0.30625
v 0.0934374 -0.416619 0.319995
v 0.0992072 -0.402704 0.321207
v 0.0934374 -0.397657 0.324433
v 0.0932614 -0.38156 0.327884
v 0.102463 -0.391382 0.322481
v 0.110696 -0.363962 0.324946
v 0.113487 -0.38156 0.320036
v 0.11668 -0.369214 0.321351
v 0.128345 -0.349843 0.320652
v 0.122223 -0.347661 0.323652
v 0.128345 -0.347661 0.321104
v 0.128345 -0.71639 0.187971
v 0.128345 -0.705068 0.195038
v 0.128345 -0.693064 0.202188
v 0.128345 -0.684674 0.20679
v 0.128345 -0.667145 0.216221
v 0.128345 -0.660324 0.219857
v 0.121369 -0.66428 0.221891
v 0.115561 -0.675602 0.219138
v 0.109766 -0.703636 0.207201
v 0.128345 -0.704181 0.195573
v 0.103808 -0.713799 0.204387
v 0.0963286 -0.725121 0.201264
v 0.0917153 -0.736034 0.196929
v 0.0763042 -0.740877 0.200462
v 0.0932614 -0.749266 0.188464
v 0.082363 -0.761476 0.185547
v 0.0932614 -0.757724 0.183143
v 0.0928592 -0.771707 0.174247
v 0.086926 -0.78146 0.17059
v 0.0898675 -0.784598 0.166686
v 0.0975228 -0.779278 0.166686
v 0.100477 -0.776686 0.166686
v 0.0628791 -0.801445 0.166686
v 0.0665245 -0.796193 0.169049
v 0.0596109 -0.754041 0.199106
v 0.0541302 -0.748039 0.204572
v 0.0424022 -0.758406 0.200812
v 0.0763042 -0.784803 0.17285
v 0.0622757 -0.776481 0.184232
v 0.0710624 -0.765159 0.187889
v 0.0654183 -0.744628 0.20264
v 0.0424022 -0.749949 0.205681
v 0.0424022 -0.737603 0.212461
v 0.0424022 -0.725871 0.218768
v 0.0424022 -0.717414 0.223124
v 0.0254449 -0.719528 0.224254
v 0.0424022 -0.703704 0.229945
v 0.0169977 -0.695246 0.237423
v 0.00848761 -0.696337 0.237958
v -4.75939e-05 -0.700635 0.235883
v -4.75939e-05 -0.330677 0.35071
v -4.75939e-05 -0.339271 0.349149
v 0.00848761 -0.347661 0.347608
v 0.00848761 -0.364644 0.344238
v 0.00855046 -0.382242 0.340725
v 0.00294412 -0.391791 0.339513
v 0.00855046 -0.39793 0.33752
v 0.00848761 -0.415527 0.333575
v 0.0254449 -0.415527 0.331377
v 0.0174753 -0.458157 0.322255
v 0.0287886 -0.455019 0.321515
v 0.0930729 -0.465387 0.307606
v 0.102538 -0.459044 0.305552
v 0.105555 -0.449426 0.306805
v 0.110219 -0.415527 0.313544
v 0.0593594 -0.466342 0.31453
v 0.0699687 -0.493079 0.305613
v 0.0758893 -0.483598 0.307236
v 0.0812694 -0.489532 0.304565
v 0.0883967 -0.529911 0.289773
v 0.0937391 -0.517293 0.291704
v 0.0932614 -0.500241 0.297149
v 0.0930729 -0.483598 0.302244
v 0.110219 -0.483257 0.295258
v 0.0986038 -0.470298 0.303929
v 0.128345 -0.412526 0.306784
v 0.128345 -0.40059 0.309661
v 0.108962 -0.397657 0.318372
v 0.128345 -0.381492 0.313893
v 0.128345 -0.65173 0.224028
v 0.114719 -0.64068 0.23578
v 0.109527 -0.652071 0.23276
v 0.128345 -0.631881 0.233623
v 0.128345 -0.625675 0.236561
v 0.11003 -0.669873 0.224213
v 0.0679952 -0.678399 0.237485
v 0.104248 -0.680377 0.221501
v 0.11003 -0.686311 0.216056
v 0.0973845 -0.691631 0.218645
v 0.0923438 -0.702613 0.21507
v 0.0763042 -0.708615 0.218583
v 0.0675553 -0.712025 0.220391
v 0.0763042 -0.720688 0.212029
v 0.0850279 -0.72935 0.203606
v 0.076543 -0.755337 0.19171
v 0.0763042 -0.732419 0.205414
v 0.076543 -0.771093 0.181766
v 0.0763042 -0.79326 0.167015
v 0.0762916 -0.79367 0.166686
v 0.0737775 -0.79517 0.166686
v 0.060893 -0.720619 0.217597
v 0.0562672 -0.714958 0.221871
v 0.0593594 -0.688766 0.234218
v 0.0593594 -0.68024 0.238348
v 0.0424022 -0.691699 0.235739
v 0.0282983 -0.693677 0.236684
v 0.0237605 -0.687539 0.240156
v 0.00848761 -0.68672 0.242478
v 0.00213963 -0.661893 0.25464
v -4.75939e-05 -0.661893 0.25464
v -4.75939e-05 -0.391791 0.339513
v 0.00848761 -0.449426 0.325481
v 0.00848761 -0.460271 0.32283
v 0.00848761 -0.468797 0.32055
v 0.0240622 -0.464841 0.319584
v 0.0424022 -0.466342 0.316769
v 0.108999 -0.465387 0.301052
v 0.128345 -0.467433 0.292444
v 0.127176 -0.449426 0.297847
v 0.128345 -0.448267 0.297662
v 0.111099 -0.432852 0.308757
v 0.128345 -0.415527 0.306045
v 0.0593594 -0.483257 0.309866
v 0.0593594 -0.495739 0.306353
v 0.0593594 -0.504197 0.30397
v 0.0593594 -0.517156 0.30021
v 0.0763042 -0.517156 0.297272
v 0.0758893 -0.499354 0.302675
v 0.114995 -0.555216 0.269803
v 0.126158 -0.550169 0.266968
v 0.128345 -0.534686 0.271529
v 0.126158 -0.532639 0.273152
v 0.128345 -0.531139 0.272761
v 0.0996974 -0.523022 0.287431
v 0.0828658 -0.541165 0.287759
v 0.0875294 -0.57943 0.272453
v 0.0932112 -0.567698 0.274364
v 0.0988426 -0.573155 0.270132
v 0.127176 -0.517156 0.277877
v 0.128345 -0.516133 0.277713
v 0.103996 -0.5117 0.289198
v 0.11531 -0.504061 0.286876
v 0.128345 -0.478892 0.289054
v 0.119433 -0.492738 0.288581
v 0.109527 -0.63536 0.240279
v 0.0932614 -0.635906 0.246772
v 0.103418 -0.645864 0.238122
v 0.120765 -0.629358 0.238266
v 0.0922307 -0.652071 0.23993
v 0.0972085 -0.657186 0.235533
v 0.128345 -0.62015 0.238985
v 0.126723 -0.618513 0.240423
v 0.0858953 -0.662302 0.237875
v 0.0747077 -0.668645 0.239396
v 0.0763042 -0.652821 0.246114
v 0.0656069 -0.643613 0.254065
v 0.0593594 -0.669805 0.243197
v 0.0763042 -0.700157 0.223021
v 0.0747077 -0.685151 0.231321
v 0.0923438 -0.686311 0.223432
v 0.0860713 -0.696269 0.220987
v 0.0424022 -0.683242 0.239724
v 0.0254449 -0.669805 0.248086
v 0.00807279 -0.668441 0.250942
v 0.0134403 -0.660256 0.253921
v 0.00807279 -0.653912 0.257311
v 0.00848761 -0.635906 0.26481
v 0.00848761 -0.62356 0.269823
v 0.00107115 -0.576906 0.288396
v -4.75939e-05 -0.576906 0.288396
v -4.75939e-05 -0.449426 0.325481
v -4.75939e-05 -0.460271 0.32283
v 0.000618627 -0.525887 0.305305
v 0.00848761 -0.483257 0.316523
v 0.0254449 -0.483257 0.314324
v 0.0424022 -0.483257 0.312106
v 0.128345 -0.449358 0.297375
v 0.0419496 -0.500923 0.307195
v 0.0473171 -0.507062 0.30475
v 0.0254449 -0.520499 0.303703
v 0.0119193 -0.5235 0.304586
v 0.0593594 -0.53414 0.29493
v 0.0360039 -0.509654 0.305511
v 0.0419496 -0.516065 0.30284
v 0.0715526 -0.545394 0.289177
v 0.0768447 -0.534959 0.291375
v 0.128345 -0.567835 0.259797
v 0.128345 -0.544508 0.268056
v 0.128345 -0.517156 0.277384
v 0.0768447 -0.551056 0.28589
v 0.0763042 -0.568039 0.280158
v 0.0760528 -0.585023 0.274138
v 0.0815334 -0.590752 0.270234
v 0.0948704 -0.603575 0.259818
v 0.0932112 -0.585023 0.267892
v 0.118402 -0.593208 0.25425
v 0.128345 -0.579498 0.255544
v 0.128345 -0.569335 0.259263
v 0.128345 -0.497035 0.283589
v 0.125919 -0.49915 0.283958
v 0.0845125 -0.627107 0.254271
v 0.0778377 -0.637133 0.252545
v 0.128345 -0.617558 0.240094
v 0.127176 -0.601938 0.24708
v 0.101583 -0.61026 0.254312
v 0.0902823 -0.615853 0.256654
v 0.0948704 -0.620491 0.252791
v 0.0731993 -0.632359 0.256428
v 0.0702327 -0.595527 0.272063
v 0.0593594 -0.618922 0.264975
v 0.059724 -0.637133 0.257558
v 0.0543188 -0.645455 0.254846
v 0.0424022 -0.655822 0.252031
v 0.0424022 -0.669805 0.245847
v 0.059724 -0.651798 0.251291
v 0.0254449 -0.658414 0.253141
v 0.0254449 -0.649956 0.256736
v 0.0254449 -0.635906 0.262612
v 0.0254449 -0.620764 0.268714
v 0.0412206 -0.617421 0.267974
v 0.0347846 -0.610737 0.271446
v 0.0254449 -0.612306 0.272042
v 0.00848761 -0.615102 0.273131
v 0.00848761 -0.601938 0.278165
v 0.00743171 -0.583522 0.28515
v 0.0254449 -0.585023 0.282274
v 0.0123844 -0.574792 0.287677
v 0.00848761 -0.551124 0.295998
v -4.75939e-05 -0.525887 0.305305
v 0.0254449 -0.53414 0.299388
v 0.00715516 -0.517566 0.306928
v 0.00848761 -0.500241 0.311756
v 0.0254449 -0.500241 0.309558
v 0.0254449 -0.512041 0.306188
v 0.0254449 -0.551124 0.2938
v 0.0493158 -0.558968 0.288068
v 0.0593594 -0.548464 0.290204
v 0.0593594 -0.556921 0.28741
v 0.0593594 -0.568039 0.283712
v 0.0760528 -0.601461 0.26783
v 0.0778377 -0.620491 0.25953
v 0.11174 -0.603575 0.252832
v 0.128345 -0.588706 0.251908
v 0.128345 -0.586319 0.252853
v 0.128345 -0.601938 0.246504
v 0.0593594 -0.585023 0.277795
v 0.0593594 -0.597982 0.273008
v 0.0593594 -0.60644 0.269823
v 0.0460853 -0.608759 0.270707
v 0.0424022 -0.635906 0.260372
v 0.0412206 -0.602689 0.273624
v 0.0254449 -0.601938 0.275966
v 0.0431564 -0.567357 0.286095
f 1 2 8
f 1 8 3
f 1 3 4
f 1 4 5
f 1 5 6
f 1 6 14
f 1 14 28
f 1 28 43
f 1 43 42
f 1 42 64
f 1 64 80
f 1 80 52
f 1 52 31
f 1 31 16
f 1 16 7
f 1 7 2
f 2 7 17
f 2 17 33
f 2 33 56
f 2 56 86
f 2 86 115
f 2 115 151
f 2 151 197
f 2 197 264
f 2 264 324
f 2 324 384
f 2 384 443
f 2 443 386
f 2 386 385
f 2 385 325
f 2 325 266
f 2 266 265
f 2 265 198
f 2 198 152
f 2 152 116
f 2 116 87
f 2 87 58
f 2 58 38
f 2 38 34
f 2 34 18
f 2 18 8
f 3 9 4
f 3 8 18
f 3 18 10
f 3 10 11
f 3 11 9
f 4 12 13
f 4 13 14
f 4 14 6
f 4 6 5
f 4 9 15
f 4 15 12
f 7 16 17
f 9 11 19
f 9 19 20
f 9 20 21
f 9 21 22
f 9 22 15
f 10 23 24
f 10 24 11
f 10 18 34
f 10 34 25
f 10 25 26
f 10 26 23
f 11 24 19
f 12 27 43
f 12 43 28
f 12 28 13
f 12 15 27
f 13 28 14
f 15 29 27
f 15 22 21
f 15 21 30
f 15 30 29
f 16 31 53
f 16 53 81
f 16 81 95
f 16 95 94
f 16 94 69
f 16 69 96
f 16 96 120
f 16 120 105
f 16 105 133
f 16 133 132
f 16 132 131
f 16 131 126
f 16 126 170
f 16 170 169
f 16 169 130
f 16 130 103
f 16 103 129
f 16 129 171
f 16 171 172
f 16 172 224
f 16 224 222
f 16 222 293
f 16 293 291
f 16 291 290
f 16 290 336
f 16 336 334
f 16 334 391
f 16 391 332
f 16 332 357
f 16 357 413
f 16 413 354
f 16 354 403
f 16 403 347
f 16 347 345
f 16 345 402
f 16 402 401
f 16 401 412
f 16 412 411
f 16 411 458
f 16 458 457
f 16 457 459
f 16 459 417
f 16 417 365
f 16 365 298
f 16 298 297
f 16 297 294
f 16 294 230
f 16 230 229
f 16 229 228
f 16 228 227
f 16 227 234
f 16 234 226
f 16 226 225
f 16 225 176
f 16 176 175
f 16 175 174
f 16 174 173
f 16 173 134
f 16 134 108
f 16 108 82
f 16 82 54
f 16 54 32
f 16 32 17
f 17 32 54
f 17 54 83
f 17 83 109
f 17 109 139
f 17 139 182
f 17 182 246
f 17 246 245
f 17 245 244
f 17 244 313
f 17 313 314
f 17 314 247
f 17 247 183
f 17 183 140
f 17 140 110
f 17 110 84
f 17 84 55
f 17 55 33
f 19 24 23
f 19 23 20
f 20 23 35
f 20 35 36
f 20 36 21
f 21 36 37
f 21 37 46
f 21 46 30
f 23 26 35
f 25 34 38
f 25 38 58
f 25 58 39
f 25 39 40
f 25 40 41
f 25 41 35
f 25 35 26
f 27 42 43
f 27 29 44
f 27 44 42
f 29 45 44
f 29 30 46
f 29 46 47
f 29 47 48
f 29 48 49
f 29 49 50
f 29 50 51
f 29 51 45
f 31 52 53
f 33 55 56
f 35 41 36
f 36 41 57
f 36 57 37
f 37 57 70
f 37 70 46
f 39 58 59
f 39 59 40
f 40 59 60
f 40 60 61
f 40 61 62
f 40 62 63
f 40 63 41
f 41 63 57
f 42 44 64
f 44 65 66
f 44 66 67
f 44 67 64
f 44 45 68
f 44 68 69
f 44 69 65
f 45 51 68
f 46 70 71
f 46 71 72
f 46 72 47
f 47 72 48
f 48 72 49
f 49 72 73
f 49 73 74
f 49 74 75
f 49 75 76
f 49 76 77
f 49 77 78
f 49 78 79
f 49 79 50
f 50 68 51
f 50 79 68
f 52 80 66
f 52 66 81
f 52 81 53
f 54 82 83
f 55 84 85
f 55 85 56
f 56 85 86
f 57 63 62
f 57 62 70
f 58 87 59
f 59 87 116
f 59 116 88
f 59 88 89
f 59 89 90
f 59 90 60
f 60 90 61
f 61 90 62
f 62 91 70
f 62 90 92
f 62 92 93
f 62 93 91
f 64 67 80
f 65 94 95
f 65 95 66
f 65 69 94
f 66 95 81
f 66 80 67
f 68 79 96
f 68 96 97
f 68 97 69
f 69 97 96
f 70 91 71
f 71 73 72
f 71 91 92
f 71 92 74
f 71 74 73
f 74 92 98
f 74 98 99
f 74 99 75
f 75 100 101
f 75 101 76
f 75 99 102
f 75 102 103
f 75 103 100
f 76 101 104
f 76 104 77
f 77 104 78
f 78 105 106
f 78 106 79
f 78 104 105
f 79 106 96
f 82 107 83
f 82 108 107
f 83 107 109
f 84 110 111
f 84 111 85
f 85 111 112
f 85 112 113
f 85 113 114
f 85 114 115
f 85 115 86
f 88 116 152
f 88 152 117
f 88 117 118
f 88 118 89
f 89 119 98
f 89 98 90
f 89 118 119
f 90 98 92
f 91 93 92
f 96 106 120
f 98 119 155
f 98 155 121
f 98 121 122
f 98 122 99
f 99 122 123
f 99 123 124
f 99 124 102
f 100 125 101
f 100 103 125
f 101 126 104
f 101 125 126
f 102 124 127
f 102 127 103
f 103 127 128
f 103 128 129
f 103 130 125
f 104 131 132
f 104 132 133
f 104 133 105
f 104 126 131
f 105 120 106
f 107 108 134
f 107 134 135
f 107 135 136
f 107 136 137
f 107 137 138
f 107 138 109
f 109 138 139
f 110 140 141
f 110 141 142
f 110 142 111
f 111 142 143
f 111 143 112
f 112 143 113
f 113 143 144
f 113 144 189
f 113 189 145
f 113 145 114
f 114 146 147
f 114 147 148
f 114 148 151
f 114 151 115
f 114 145 149
f 114 149 150
f 114 150 146
f 117 152 198
f 117 198 153
f 117 153 118
f 118 153 154
f 118 154 119
f 119 154 155
f 121 155 157
f 121 157 156
f 121 156 122
f 122 156 157
f 122 157 158
f 122 158 159
f 122 159 160
f 122 160 161
f 122 161 162
f 122 162 163
f 122 163 164
f 122 164 165
f 122 165 166
f 122 166 167
f 122 167 124
f 122 124 123
f 124 167 168
f 124 168 127
f 125 130 169
f 125 169 170
f 125 170 126
f 127 171 128
f 127 168 172
f 127 172 171
f 128 171 129
f 134 173 135
f 135 173 136
f 136 173 174
f 136 174 175
f 136 175 176
f 136 176 177
f 136 177 178
f 136 178 179
f 136 179 180
f 136 180 137
f 137 181 182
f 137 182 139
f 137 139 138
f 137 180 181
f 140 183 184
f 140 184 141
f 141 185 142
f 141 184 186
f 141 186 185
f 142 185 143
f 143 185 187
f 143 187 186
f 143 186 144
f 144 186 188
f 144 188 189
f 145 189 149
f 146 190 191
f 146 191 147
f 146 150 190
f 147 191 192
f 147 192 148
f 148 192 193
f 148 193 194
f 148 194 195
f 148 195 197
f 148 197 151
f 149 189 150
f 150 196 190
f 150 189 188
f 150 188 196
f 153 198 265
f 153 265 199
f 153 199 158
f 153 158 154
f 154 158 157
f 154 157 155
f 158 199 267
f 158 267 200
f 158 200 159
f 159 200 201
f 159 201 160
f 160 201 202
f 160 202 203
f 160 203 204
f 160 204 161
f 161 204 203
f 161 203 162
f 162 203 205
f 162 205 206
f 162 206 207
f 162 207 208
f 162 208 163
f 163 209 164
f 163 208 207
f 163 207 210
f 163 210 211
f 163 211 212
f 163 212 213
f 163 213 209
f 164 209 214
f 164 214 215
f 164 215 216
f 164 216 217
f 164 217 165
f 165 217 218
f 165 218 168
f 165 168 167
f 165 167 166
f 168 219 220
f 168 220 221
f 168 221 222
f 168 222 223
f 168 223 172
f 168 218 219
f 172 223 224
f 176 225 177
f 177 225 226
f 177 226 178
f 178 227 228
f 178 228 229
f 178 229 230
f 178 230 231
f 178 231 232
f 178 232 233
f 178 233 179
f 178 226 234
f 178 234 227
f 179 233 235
f 179 235 180
f 180 235 236
f 180 236 237
f 180 237 238
f 180 238 239
f 180 239 240
f 180 240 241
f 180 241 242
f 180 242 181
f 181 243 244
f 181 244 245
f 181 245 246
f 181 246 182
f 181 242 243
f 183 247 248
f 183 248 184
f 184 248 186
f 185 186 187
f 186 249 250
f 186 250 251
f 186 251 196
f 186 196 188
f 186 248 252
f 186 252 253
f 186 253 254
f 186 254 255
f 186 255 249
f 190 196 251
f 190 251 256
f 190 256 191
f 191 256 192
f 192 256 257
f 192 257 193
f 193 258 259
f 193 259 260
f 193 260 194
f 193 257 258
f 194 260 195
f 195 260 259
f 195 259 261
f 195 261 262
f 195 262 263
f 195 263 264
f 195 264 197
f 199 265 266
f 199 266 267
f 200 267 202
f 200 202 201
f 202 267 268
f 202 268 205
f 202 205 203
f 205 268 269
f 205 269 270
f 205 270 271
f 205 271 206
f 206 271 272
f 206 272 273
f 206 273 207
f 207 273 274
f 207 274 275
f 207 275 210
f 209 276 277
f 209 277 278
f 209 278 279
f 209 279 215
f 209 215 214
f 209 213 276
f 210 275 274
f 210 274 280
f 210 280 211
f 211 280 212
f 212 280 281
f 212 281 282
f 212 282 283
f 212 283 213
f 213 283 284
f 213 284 285
f 213 285 286
f 213 286 287
f 213 287 288
f 213 288 289
f 213 289 276
f 215 279 290
f 215 290 291
f 215 291 292
f 215 292 218
f 215 218 216
f 216 218 217
f 218 292 291
f 218 291 293
f 218 293 220
f 218 220 219
f 220 293 221
f 221 293 222
f 222 224 223
f 230 294 231
f 231 295 296
f 231 296 232
f 231 294 297
f 231 297 298
f 231 298 295
f 232 299 300
f 232 300 301
f 232 301 302
f 232 302 233
f 232 296 299
f 233 302 303
f 233 303 304
f 233 304 235
f 235 304 305
f 235 305 306
f 235 306 307
f 235 307 236
f 236 307 308
f 236 308 237
f 237 308 238
f 238 255 309
f 238 309 239
f 238 308 310
f 238 310 255
f 239 309 240
f 240 309 254
f 240 254 311
f 240 311 243
f 240 243 241
f 241 243 242
f 243 311 253
f 243 253 252
f 243 252 312
f 243 312 244
f 244 312 313
f 247 314 248
f 248 314 312
f 248 312 252
f 249 255 250
f 250 255 306
f 250 306 315
f 250 315 316
f 250 316 258
f 250 258 257
f 250 257 256
f 250 256 251
f 253 311 254
f 254 309 255
f 255 310 306
f 258 316 259
f 259 316 261
f 261 316 317
f 261 317 318
f 261 318 319
f 261 319 320
f 261 320 262
f 262 320 321
f 262 321 322
f 262 322 263
f 263 322 323
f 263 323 264
f 264 323 324
f 266 325 270
f 266 270 267
f 267 270 268
f 268 270 269
f 270 325 385
f 270 385 326
f 270 326 272
f 270 272 271
f 272 326 274
f 272 274 273
f 274 326 327
f 274 327 328
f 274 328 329
f 274 329 330
f 274 330 280
f 276 289 277
f 277 289 331
f 277 331 332
f 277 332 333
f 277 333 278
f 278 334 335
f 278 335 279
f 278 333 334
f 279 336 290
f 279 335 336
f 280 330 390
f 280 390 337
f 280 337 281
f 281 283 282
f 281 337 338
f 281 338 339
f 281 339 340
f 281 340 341
f 281 341 342
f 281 342 283
f 283 342 341
f 283 341 284
f 284 343 344
f 284 344 345
f 284 345 346
f 284 346 347
f 284 347 348
f 284 348 285
f 284 341 349
f 284 349 350
f 284 350 351
f 284 351 352
f 284 352 343
f 285 348 353
f 285 353 354
f 285 354 355
f 285 355 286
f 286 355 356
f 286 356 288
f 286 288 287
f 288 357 289
f 288 356 358
f 288 358 357
f 289 357 332
f 289 332 331
f 295 359 360
f 295 360 361
f 295 361 296
f 295 298 362
f 295 362 359
f 296 363 364
f 296 364 299
f 296 361 363
f 298 365 366
f 298 366 362
f 299 364 367
f 299 367 300
f 300 368 369
f 300 369 370
f 300 370 371
f 300 371 318
f 300 318 317
f 300 317 316
f 300 316 306
f 300 306 372
f 300 372 373
f 300 373 301
f 300 367 368
f 301 373 374
f 301 374 303
f 301 303 302
f 303 374 375
f 303 375 304
f 304 375 372
f 304 372 305
f 305 372 306
f 306 316 315
f 306 310 307
f 307 310 308
f 312 314 313
f 318 371 376
f 318 376 319
f 319 376 320
f 320 376 321
f 321 376 377
f 321 377 378
f 321 378 322
f 322 378 323
f 323 379 380
f 323 380 381
f 323 381 382
f 323 382 383
f 323 383 384
f 323 384 324
f 323 378 379
f 326 385 386
f 326 386 327
f 327 386 443
f 327 443 387
f 327 387 328
f 328 387 388
f 328 388 389
f 328 389 390
f 328 390 330
f 328 330 329
f 332 391 333
f 333 391 334
f 334 336 335
f 337 390 392
f 337 392 338
f 338 392 339
f 339 392 393
f 339 393 340
f 340 394 395
f 340 395 396
f 340 396 341
f 340 393 397
f 340 397 398
f 340 398 394
f 341 396 399
f 341 399 400
f 341 400 349
f 343 352 401
f 343 401 344
f 344 402 345
f 344 401 402
f 345 347 346
f 347 403 353
f 347 353 348
f 349 400 399
f 349 399 404
f 349 404 405
f 349 405 406
f 349 406 350
f 350 406 407
f 350 407 408
f 350 408 409
f 350 409 410
f 350 410 411
f 350 411 352
f 350 352 351
f 352 411 412
f 352 412 401
f 353 403 354
f 354 413 414
f 354 414 356
f 354 356 355
f 356 414 358
f 357 358 414
f 357 414 413
f 359 362 415
f 359 415 360
f 360 416 363
f 360 363 361
f 360 415 416
f 362 366 415
f 363 369 367
f 363 367 364
f 363 416 369
f 365 417 366
f 366 417 418
f 366 418 419
f 366 419 420
f 366 420 421
f 366 421 415
f 367 369 368
f 369 416 422
f 369 422 370
f 370 422 423
f 370 423 424
f 370 424 425
f 370 425 426
f 370 426 427
f 370 427 428
f 370 428 429
f 370 429 371
f 371 428 376
f 371 429 428
f 372 375 373
f 373 375 374
f 376 428 377
f 377 428 379
f 377 379 378
f 379 430 431
f 379 431 380
f 379 428 430
f 380 431 381
f 381 431 432
f 381 432 382
f 382 433 434
f 382 434 435
f 382 435 436
f 382 436 437
f 382 437 383
f 382 432 433
f 383 437 438
f 383 438 439
f 383 439 440
f 383 440 441
f 383 441 442
f 383 442 387
f 383 387 443
f 383 443 384
f 387 442 444
f 387 444 396
f 387 396 395
f 387 395 445
f 387 445 446
f 387 446 388
f 388 446 447
f 388 447 389
f 389 447 390
f 390 447 392
f 392 447 397
f 392 397 393
f 394 398 397
f 394 397 448
f 394 448 395
f 395 448 445
f 396 444 449
f 396 449 450
f 396 450 451
f 396 451 399
f 397 447 446
f 397 446 448
f 399 451 452
f 399 452 453
f 399 453 423
f 399 423 405
f 399 405 404
f 405 423 406
f 406 423 407
f 407 423 454
f 407 454 422
f 407 422 455
f 407 455 420
f 407 420 408
f 408 420 419
f 408 419 456
f 408 456 410
f 408 410 409
f 410 457 458
f 410 458 411
f 410 456 418
f 410 418 457
f 415 421 420
f 415 420 455
f 415 455 422
f 415 422 416
f 417 459 418
f 418 456 419
f 418 459 457
f 422 454 423
f 423 453 460
f 423 460 461
f 423 461 462
f 423 462 424
f 424 462 463
f 424 463 435
f 424 435 434
f 424 434 433
f 424 433 464
f 424 464 425
f 425 464 426
f 426 464 432
f 426 432 431
f 426 431 427
f 427 431 430
f 427 430 428
f 432 464 433
f 435 463 465
f 435 465 466
f 435 466 438
f 435 438 436
f 436 438 437
f 438 466 440
f 438 440 439
f 440 460 441
f 440 466 461
f 440 461 460
f 441 460 453
f 441 453 467
f 441 467 450
f 441 450 449
f 441 449 442
f 442 449 444
f 445 448 446
f 450 467 453
f 450 453 452
f 450 452 451
f 461 466 465
f 461 465 463
f 461 463 462
