v -0.0930847 -0.85721 -5.40438e-05
v -6.01684e-05 -0.85721 -5.40438e-05
v -0.0930847 -0.85721 0.0595324
v -0.0930847 -0.829071 -5.40438e-05
v -6.01684e-05 -0.85721 0.0759164
v -6.01684e-05 -0.838556 -5.40438e-05
v -0.0766943 -0.85721 0.0759164
v -0.0930847 -0.857172 0.0759164
v -0.0930847 -0.786513 0.039229
v -6.01684e-05 -0.838441 0.0759164
v -0.0930847 -0.779946 0.0463314
v -0.0930847 -0.771037 0.0571302
v -0.0930847 -0.763789 0.0685239
v -0.0930847 -0.759132 0.0759164
v -0.0792804 -0.770355 0.0759164
v -0.0773499 -0.771987 0.0759164
f 1 2 5
f 1 5 7
f 1 7 3
f 1 3 8
f 1 8 14
f 1 14 13
f 1 13 12
f 1 12 11
f 1 11 9
f 1 9 4
f 1 4 6
f 1 6 2
f 2 6 10
f 2 10 5
f 3 7 8
f 4 9 6
f 5 10 16
f 5 16 15
f 5 15 14
f 5 14 8
f 5 8 7
f 6 9 11
f 6 11 12
f 6 12 13
f 6 13 14
f 6 14 15
f 6 15 16
f 6 16 10
