v 0.253571 0.616374 -0.145425
v 0.25347 0.617268 -0.145425
v 0.305607 0.616374 -0.145425
v 0.292612 0.616374 -6.14666e-05
v 0.253287 0.618956 -0.145425
v 0.305286 0.618956 -0.145425
v 0.319437 0.616374 -0.112044
v 0.339888 0.616374 -6.14666e-05
v 0.292373 0.618956 -6.14666e-05
v 0.246207 0.716672 -0.145425
v 0.303085 0.635921 -0.145425
v 0.322225 0.627665 -0.101813
v 0.322784 0.618956 -0.103165
v 0.322949 0.616374 -0.103563
v 0.339274 0.62843 -6.14666e-05
v 0.339897 0.616374 -0.00676331
v 0.287008 0.716672 -6.14666e-05
v 0.280048 0.716672 -0.145425
v 0.30248 0.640487 -0.145425
v 0.302003 0.652376 -0.142821
v 0.305497 0.646387 -0.13629
v 0.315438 0.652877 -0.110222
v 0.321482 0.638965 -0.0999204
v 0.322885 0.666837 -0.0867017
v 0.323756 0.652877 -0.0890922
v 0.326728 0.616374 -0.0932613
v 0.323655 0.616374 -0.101656
v 0.339274 0.62843 -0.000957893
v 0.327168 0.716672 -6.14666e-05
v 0.339897 0.616374 -0.00746053
v 0.292117 0.716672 -0.145396
v 0.293694 0.705343 -0.145425
v 0.298353 0.671383 -0.145425
v 0.299114 0.669822 -0.14413
v 0.304754 0.657687 -0.134483
v 0.313164 0.669822 -0.110222
v 0.320574 0.652877 -0.0975726
v 0.319969 0.671422 -0.0927206
v 0.32217 0.678138 -0.0846243
v 0.330864 0.616374 -0.0763003
v 0.33965 0.616374 -0.0094099
v 0.338549 0.622471 -0.0122699
v 0.337678 0.634812 -0.00736093
v 0.33533 0.652877 -0.00848502
v 0.333212 0.669822 -0.00848502
v 0.331056 0.686777 -0.00848502
v 0.328874 0.703742 -0.00848502
v 0.327168 0.716672 -0.00848502
v 0.292254 0.716672 -0.145069
v 0.294464 0.703742 -0.14413
v 0.295996 0.688692 -0.145425
v 0.296803 0.686777 -0.14413
v 0.307441 0.669822 -0.124039
v 0.306286 0.686777 -0.12125
v 0.310853 0.686777 -0.110222
v 0.317685 0.686777 -0.0932613
v 0.323903 0.671422 -0.0779082
v 0.326443 0.652877 -0.0763003
v 0.328516 0.635921 -0.0763003
v 0.330561 0.618956 -0.0763003
v 0.315365 0.703742 -0.0932613
v 0.313558 0.716672 -0.0932613
v 0.318208 0.716672 -0.0759446
v 0.320354 0.702073 -0.0746355
v 0.322197 0.695309 -0.067891
v 0.326553 0.669822 -0.0593536
v 0.331212 0.616374 -0.0737249
v 0.338916 0.616374 -0.0151442
v 0.335211 0.635921 -0.025446
v 0.333138 0.652877 -0.025446
v 0.33102 0.669822 -0.025446
v 0.328865 0.686777 -0.025446
v 0.326682 0.703742 -0.025446
v 0.325499 0.716672 -0.0214192
v 0.304204 0.716672 -0.116213
v 0.305552 0.697528 -0.119471
v 0.308138 0.703399 -0.111218
v 0.307597 0.716672 -0.108017
v 0.332799 0.618956 -0.0593536
v 0.32062 0.716672 -0.0585852
v 0.321051 0.716672 -0.0553268
v 0.326636 0.686777 -0.0424069
v 0.337916 0.616374 -0.0228278
v 0.324976 0.716672 -0.025446
f 1 2 5
f 1 5 10
f 1 10 18
f 1 18 32
f 1 32 51
f 1 51 33
f 1 33 19
f 1 19 11
f 1 11 6
f 1 6 3
f 1 3 7
f 1 7 14
f 1 14 27
f 1 27 26
f 1 26 40
f 1 40 67
f 1 67 83
f 1 83 68
f 1 68 41
f 1 41 30
f 1 30 16
f 1 16 8
f 1 8 4
f 1 4 2
f 2 4 5
f 3 6 7
f 4 8 15
f 4 15 29
f 4 29 17
f 4 17 9
f 4 9 5
f 5 9 10
f 6 11 12
f 6 12 13
f 6 13 14
f 6 14 7
f 8 16 15
f 9 17 10
f 10 17 29
f 10 29 48
f 10 48 74
f 10 74 84
f 10 84 81
f 10 81 80
f 10 80 63
f 10 63 62
f 10 62 78
f 10 78 75
f 10 75 49
f 10 49 31
f 10 31 18
f 11 19 20
f 11 20 21
f 11 21 12
f 12 22 23
f 12 23 24
f 12 24 25
f 12 25 26
f 12 26 27
f 12 27 13
f 12 21 22
f 13 27 14
f 15 16 30
f 15 30 28
f 15 28 48
f 15 48 29
f 18 31 32
f 19 33 34
f 19 34 20
f 20 34 35
f 20 35 22
f 20 22 21
f 22 36 37
f 22 37 23
f 22 35 36
f 23 37 24
f 24 26 25
f 24 37 38
f 24 38 39
f 24 39 40
f 24 40 26
f 28 30 41
f 28 41 42
f 28 42 43
f 28 43 44
f 28 44 45
f 28 45 46
f 28 46 47
f 28 47 48
f 31 49 50
f 31 50 32
f 32 50 51
f 33 51 34
f 34 51 52
f 34 52 53
f 34 53 35
f 35 53 36
f 36 53 54
f 36 54 55
f 36 55 37
f 37 56 38
f 37 55 56
f 38 56 39
f 39 57 58
f 39 58 59
f 39 59 60
f 39 60 40
f 39 56 61
f 39 61 62
f 39 62 63
f 39 63 64
f 39 64 65
f 39 65 66
f 39 66 57
f 40 60 67
f 41 68 42
f 42 68 69
f 42 69 43
f 43 69 44
f 44 69 70
f 44 70 71
f 44 71 45
f 45 71 72
f 45 72 46
f 46 72 73
f 46 73 47
f 47 73 74
f 47 74 48
f 49 75 76
f 49 76 50
f 50 52 51
f 50 76 52
f 52 76 54
f 52 54 53
f 54 76 55
f 55 76 77
f 55 77 78
f 55 78 61
f 55 61 56
f 57 66 58
f 58 66 71
f 58 71 70
f 58 70 69
f 58 69 59
f 59 79 60
f 59 69 79
f 60 79 67
f 61 78 62
f 63 80 64
f 64 80 65
f 65 80 81
f 65 81 73
f 65 73 72
f 65 72 82
f 65 82 66
f 66 82 71
f 67 79 83
f 68 83 69
f 69 83 79
f 71 82 72
f 73 84 74
f 73 81 84
f 75 78 76
f 76 78 77
