v 0.293103 0.642466 -3.92552e-05
v 0.247902 0.745626 -3.92552e-05
v 0.336678 0.642466 -3.92552e-05
v 0.247902 0.642466 0.154818
v 0.247902 0.85432 -3.92552e-05
v 0.33321 0.669843 -3.92552e-05
v 0.336686 0.642466 0.00785028
v 0.247902 0.642466 0.226979
v 0.247902 0.85457 0.0234293
v 0.254429 0.854611 -3.92552e-05
v 0.331055 0.686797 -3.92552e-05
v 0.33321 0.669843 0.00849477
v 0.335331 0.652889 0.00849477
v 0.333141 0.652889 0.0254517
v 0.33441 0.642466 0.0254517
v 0.253655 0.642466 0.219512
v 0.252865 0.652889 0.218467
v 0.247902 0.644588 0.226557
v 0.26285 0.854965 -3.92552e-05
v 0.247902 0.854778 0.0573432
v 0.32996 0.695326 -3.92552e-05
v 0.331055 0.686797 0.00849477
v 0.33102 0.669843 0.0254517
v 0.323911 0.671444 0.0779227
v 0.32644 0.652889 0.0763225
v 0.328578 0.642466 0.0697665
v 0.259496 0.642466 0.211911
v 0.251535 0.669843 0.216756
v 0.247902 0.65345 0.224779
v 0.267847 0.652889 0.198955
v 0.26896 0.852677 -3.92552e-05
v 0.247902 0.85484 0.0746335
v 0.26285 0.854965 0.00849477
v 0.328874 0.703751 -3.92552e-05
v 0.328874 0.703751 0.00849477
v 0.328865 0.686797 0.0254517
v 0.324407 0.686797 0.0593656
v 0.322199 0.695326 0.0678996
v 0.322173 0.678164 0.0846343
v 0.327709 0.642466 0.0763225
v 0.278424 0.642466 0.187243
v 0.250197 0.686797 0.215001
v 0.247902 0.681367 0.21909
v 0.247902 0.669843 0.221446
v 0.266526 0.669843 0.197221
v 0.28283 0.652889 0.17942
v 0.282491 0.669156 0.176553
v 0.274991 0.850388 -3.92552e-05
v 0.274991 0.850388 0.00849477
v 0.247902 0.853987 0.0910349
v 0.26285 0.854278 0.0254517
v 0.327752 0.712301 -3.92552e-05
v 0.32664 0.720705 0.00849477
v 0.326683 0.703751 0.0254517
v 0.32146 0.706622 0.0622547
v 0.320417 0.719062 0.057721
v 0.320357 0.702087 0.0746557
v 0.321599 0.686797 0.0804784
v 0.319974 0.671444 0.0927239
v 0.322886 0.666847 0.0867234
v 0.317619 0.720705 0.0763225
v 0.315186 0.737659 0.0763225
v 0.310484 0.737659 0.0932795
v 0.312996 0.720705 0.0932795
v 0.315368 0.703751 0.0932795
v 0.31768 0.686797 0.0932795
v 0.323755 0.652889 0.0891236
v 0.324059 0.642466 0.0917905
v 0.28363 0.642466 0.180442
v 0.271115 0.693953 0.186243
v 0.248832 0.703751 0.213223
v 0.247902 0.703751 0.214423
v 0.277233 0.687691 0.179575
v 0.288523 0.663061 0.169908
v 0.283465 0.843274 -3.92552e-05
v 0.283465 0.843274 0.00849477
v 0.274009 0.849847 0.0254517
v 0.261077 0.85122 0.0763225
v 0.26285 0.853259 0.0424087
v 0.247902 0.853675 0.0932795
v 0.257923 0.850055 0.0932795
v 0.32664 0.720705 -3.92552e-05
v 0.322825 0.749413 0.00502783
v 0.323902 0.739032 0.00980599
v 0.322755 0.733041 0.0254517
v 0.322199 0.729234 0.0339635
v 0.32445 0.720705 0.0254517
v 0.322199 0.712301 0.0509649
v 0.31761 0.737659 0.0593656
v 0.320574 0.652889 0.0975909
v 0.32206 0.642466 0.0972131
v 0.314725 0.754613 0.0593656
v 0.312231 0.754613 0.0763225
v 0.306286 0.771567 0.0874123
v 0.307581 0.753407 0.0935239
v 0.3054 0.746958 0.102169
v 0.306156 0.737659 0.103991
v 0.307434 0.720705 0.107058
v 0.310858 0.686797 0.110236
v 0.286098 0.642466 0.177175
v 0.270316 0.703751 0.18522
v 0.276825 0.703751 0.176731
v 0.247902 0.719727 0.211
v 0.268925 0.720705 0.183398
v 0.291364 0.669156 0.162085
v 0.287653 0.674357 0.168397
v 0.273948 0.737659 0.172975
v 0.275434 0.720705 0.174908
v 0.289235 0.652889 0.17093
v 0.295423 0.642466 0.161085
v 0.294024 0.652889 0.161085
v 0.287471 0.839009 -3.92552e-05
v 0.291417 0.834786 0.00849477
v 0.272897 0.849099 0.0424087
v 0.272002 0.848412 0.0560098
v 0.271219 0.847809 0.0673218
v 0.282483 0.841984 0.0254517
v 0.264484 0.851304 0.0607435
v 0.247902 0.851262 0.10877
v 0.247902 0.851096 0.109792
v 0.255706 0.848849 0.104992
v 0.322825 0.749413 -3.92552e-05
v 0.318001 0.771567 0.00849477
v 0.321165 0.754884 0.00980599
v 0.322112 0.745585 0.0163176
v 0.321512 0.741528 0.0254517
v 0.320313 0.735995 0.0407419
v 0.321252 0.642466 0.0993466
v 0.313161 0.669843 0.110236
v 0.315438 0.652889 0.110236
v 0.311327 0.771567 0.0593656
v 0.319192 0.754613 0.0254517
v 0.308781 0.771567 0.0763225
v 0.305339 0.780346 0.0850566
v 0.302793 0.771567 0.0959019
v 0.304227 0.758254 0.0993244
v 0.301324 0.753407 0.108792
v 0.289426 0.751618 0.138394
v 0.287149 0.737659 0.149862
v 0.29066 0.737659 0.141395
v 0.287975 0.727008 0.151862
v 0.308137 0.703418 0.111237
v 0.291503 0.7211 0.145373
v 0.305556 0.697552 0.119459
v 0.296805 0.686797 0.144128
v 0.299117 0.669843 0.144128
v 0.307442 0.669843 0.124038
v 0.289948 0.642466 0.171975
v 0.253612 0.724637 0.202488
v 0.247902 0.737742 0.206911
v 0.290791 0.686797 0.158063
v 0.289618 0.703751 0.155507
v 0.288775 0.715712 0.153684
v 0.286671 0.686797 0.166552
v 0.281292 0.737659 0.161085
v 0.272558 0.751202 0.171175
v 0.267439 0.737659 0.181464
v 0.302402 0.642466 0.144973
v 0.291417 0.834786 -3.92552e-05
v 0.299334 0.82243 0.00849477
v 0.295336 0.82867 -3.92552e-05
v 0.290313 0.833517 0.0254517
v 0.287732 0.830023 0.0639882
v 0.279867 0.839529 0.0600101
v 0.2892 0.832124 0.0424087
v 0.269559 0.84654 0.0763225
v 0.27785 0.838052 0.0763225
v 0.247902 0.846935 0.127171
v 0.266405 0.843503 0.0932795
v 0.253064 0.846997 0.116281
v 0.250874 0.844938 0.127171
v 0.318001 0.771567 -3.92552e-05
v 0.315794 0.771567 0.0254517
v 0.313413 0.788521 0.00849477
v 0.307407 0.786566 0.0593656
v 0.317185 0.642466 0.109303
v 0.304748 0.657694 0.134483
v 0.302002 0.652368 0.142817
v 0.305496 0.646398 0.136283
v 0.306121 0.782697 0.0763225
v 0.289661 0.816272 0.0881902
v 0.292155 0.805871 0.0936128
v 0.300142 0.787003 0.091746
v 0.287306 0.794325 0.116348
v 0.271324 0.796988 0.152595
v 0.284951 0.788605 0.127038
v 0.289339 0.783009 0.121282
v 0.282804 0.771567 0.144128
v 0.287306 0.771567 0.133305
v 0.303166 0.791184 0.0763225
v 0.297726 0.805476 0.0763225
v 0.288253 0.762913 0.135572
v 0.286115 0.756194 0.144084
v 0.275304 0.771567 0.15924
v 0.284594 0.7211 0.16004
v 0.285307 0.703751 0.163996
v 0.294458 0.703751 0.144128
v 0.252456 0.737659 0.200999
v 0.247902 0.754613 0.202222
v 0.276703 0.755965 0.162663
v 0.271185 0.762518 0.169375
v 0.250657 0.754613 0.198644
v 0.305748 0.642466 0.136905
v 0.304687 0.81259 0.00849477
v 0.299334 0.82243 -3.92552e-05
v 0.288523 0.831229 0.0526762
v 0.297135 0.82243 0.0254517
v 0.286324 0.827734 0.0763225
v 0.29133 0.819268 0.0763225
v 0.292094 0.823595 0.0587433
v 0.274982 0.835015 0.0932795
v 0.247902 0.841526 0.140106
v 0.259461 0.836451 0.127171
v 0.256619 0.833517 0.140172
v 0.313413 0.788521 -3.92552e-05
v 0.307903 0.804103 0.00849477
v 0.306808 0.801294 0.0254517
v 0.305913 0.798881 0.0390528
v 0.305165 0.796801 0.0503649
v 0.311214 0.788521 0.0254517
v 0.31064 0.796364 -3.92552e-05
v 0.304574 0.795053 0.0593656
v 0.283864 0.822118 0.0936128
v 0.276338 0.823095 0.110392
v 0.271358 0.814005 0.135727
v 0.287349 0.811779 0.0995022
v 0.289652 0.800462 0.105058
v 0.269438 0.805476 0.148417
v 0.257505 0.818685 0.156974
v 0.260651 0.805996 0.162018
v 0.256063 0.80067 0.171775
v 0.268004 0.790206 0.161441
v 0.273349 0.785692 0.156018
v 0.276573 0.790206 0.145817
v 0.273105 0.805476 0.13995
v 0.300681 0.805476 0.0593656
v 0.270037 0.771567 0.16773
v 0.25555 0.76776 0.188065
v 0.247902 0.768634 0.197688
v 0.254116 0.779056 0.186198
v 0.306304 0.808325 -3.92552e-05
v 0.304687 0.81259 -3.92552e-05
v 0.294902 0.82243 0.0424087
v 0.303584 0.809761 0.0254517
v 0.27261 0.832456 0.104858
v 0.247902 0.839321 0.144728
v 0.247902 0.838385 0.146417
v 0.25369 0.830002 0.151484
v 0.262711 0.821993 0.143617
v 0.267943 0.825404 0.127171
v 0.270211 0.82917 0.116126
v 0.307903 0.804103 -3.92552e-05
v 0.25037 0.823574 0.162018
v 0.247902 0.822929 0.165841
v 0.253377 0.811987 0.168286
v 0.248988 0.805996 0.177664
v 0.247902 0.805933 0.179109
v 0.247902 0.788438 0.189332
v 0.258696 0.788521 0.17522
v 0.247902 0.772483 0.196443
v 0.247902 0.776664 0.194599
v 0.247902 0.826757 0.161752
v 0.247902 0.807972 0.177575
f 1 2 5
f 1 5 10
f 1 10 19
f 1 19 31
f 1 31 48
f 1 48 75
f 1 75 112
f 1 112 159
f 1 159 161
f 1 161 205
f 1 205 242
f 1 242 241
f 1 241 252
f 1 252 221
f 1 221 215
f 1 215 172
f 1 172 122
f 1 122 82
f 1 82 52
f 1 52 34
f 1 34 21
f 1 21 11
f 1 11 6
f 1 6 3
f 1 3 7
f 1 7 15
f 1 15 26
f 1 26 40
f 1 40 68
f 1 68 91
f 1 91 128
f 1 128 176
f 1 176 203
f 1 203 158
f 1 158 110
f 1 110 148
f 1 148 100
f 1 100 69
f 1 69 41
f 1 41 27
f 1 27 16
f 1 16 8
f 1 8 4
f 1 4 2
f 2 4 8
f 2 8 18
f 2 18 29
f 2 29 44
f 2 44 43
f 2 43 72
f 2 72 103
f 2 103 150
f 2 150 199
f 2 199 239
f 2 239 260
f 2 260 261
f 2 261 258
f 2 258 257
f 2 257 263
f 2 263 254
f 2 254 262
f 2 262 247
f 2 247 246
f 2 246 212
f 2 212 168
f 2 168 120
f 2 120 119
f 2 119 80
f 2 80 50
f 2 50 32
f 2 32 20
f 2 20 9
f 2 9 5
f 3 6 7
f 5 9 10
f 6 11 22
f 6 22 12
f 6 12 7
f 7 12 13
f 7 13 14
f 7 14 15
f 8 16 17
f 8 17 18
f 9 19 10
f 9 20 19
f 11 21 22
f 12 22 36
f 12 36 23
f 12 23 14
f 12 14 13
f 14 23 24
f 14 24 25
f 14 25 26
f 14 26 15
f 16 27 17
f 17 28 29
f 17 29 18
f 17 27 30
f 17 30 28
f 19 20 32
f 19 32 33
f 19 33 31
f 21 34 35
f 21 35 22
f 22 35 54
f 22 54 36
f 23 36 37
f 23 37 24
f 24 37 38
f 24 38 39
f 24 39 25
f 25 39 40
f 25 40 26
f 27 41 30
f 28 42 43
f 28 43 44
f 28 44 29
f 28 30 45
f 28 45 42
f 30 41 46
f 30 46 47
f 30 47 45
f 31 33 49
f 31 49 48
f 32 50 51
f 32 51 33
f 33 51 49
f 34 52 35
f 35 53 87
f 35 87 54
f 35 52 53
f 36 54 38
f 36 38 37
f 38 55 56
f 38 56 57
f 38 57 58
f 38 58 39
f 38 54 55
f 39 59 60
f 39 60 40
f 39 58 61
f 39 61 62
f 39 62 63
f 39 63 64
f 39 64 65
f 39 65 66
f 39 66 59
f 40 60 67
f 40 67 68
f 41 69 46
f 42 70 71
f 42 71 72
f 42 72 43
f 42 45 73
f 42 73 70
f 45 47 73
f 46 74 47
f 46 69 74
f 47 74 73
f 48 49 76
f 48 76 75
f 49 51 77
f 49 77 76
f 50 78 79
f 50 79 51
f 50 80 81
f 50 81 78
f 51 79 77
f 52 82 53
f 53 82 122
f 53 122 83
f 53 83 84
f 53 84 85
f 53 85 86
f 53 86 87
f 54 87 88
f 54 88 55
f 55 88 56
f 56 86 89
f 56 89 61
f 56 61 57
f 56 88 87
f 56 87 86
f 57 61 58
f 59 66 90
f 59 90 60
f 60 90 91
f 60 91 67
f 61 89 62
f 62 89 92
f 62 92 93
f 62 93 94
f 62 94 63
f 63 95 96
f 63 96 97
f 63 97 98
f 63 98 64
f 63 94 95
f 64 98 65
f 65 90 66
f 65 98 99
f 65 99 90
f 67 91 68
f 69 100 74
f 70 101 71
f 70 73 102
f 70 102 101
f 71 103 72
f 71 101 104
f 71 104 103
f 73 74 102
f 74 105 106
f 74 106 107
f 74 107 108
f 74 108 102
f 74 100 109
f 74 109 110
f 74 110 111
f 74 111 105
f 75 76 112
f 76 113 112
f 76 77 114
f 76 114 115
f 76 115 116
f 76 116 117
f 76 117 113
f 77 79 118
f 77 118 114
f 78 116 118
f 78 118 79
f 78 81 116
f 80 119 81
f 81 119 120
f 81 120 121
f 81 121 116
f 83 123 124
f 83 124 125
f 83 125 84
f 83 122 172
f 83 172 123
f 84 125 85
f 85 125 126
f 85 126 86
f 86 127 89
f 86 126 127
f 89 127 126
f 89 126 125
f 89 125 92
f 90 128 91
f 90 99 129
f 90 129 130
f 90 130 128
f 92 131 93
f 92 125 132
f 92 132 173
f 92 173 131
f 93 133 134
f 93 134 94
f 93 131 133
f 94 134 135
f 94 135 136
f 94 136 95
f 95 136 96
f 96 136 137
f 96 137 138
f 96 138 139
f 96 139 140
f 96 140 97
f 97 140 141
f 97 141 98
f 98 142 99
f 98 141 143
f 98 143 142
f 99 142 144
f 99 144 145
f 99 145 146
f 99 146 147
f 99 147 129
f 100 148 109
f 101 102 108
f 101 108 104
f 103 149 150
f 103 104 149
f 104 108 149
f 105 111 151
f 105 151 106
f 106 151 152
f 106 152 153
f 106 153 141
f 106 141 154
f 106 154 107
f 107 154 155
f 107 155 156
f 107 156 157
f 107 157 149
f 107 149 108
f 109 148 110
f 110 151 111
f 110 158 146
f 110 146 151
f 112 113 159
f 113 160 161
f 113 161 159
f 113 117 162
f 113 162 160
f 114 118 115
f 115 118 116
f 116 163 164
f 116 164 165
f 116 165 162
f 116 162 117
f 116 121 166
f 116 166 167
f 116 167 163
f 120 168 121
f 121 169 166
f 121 168 170
f 121 170 171
f 121 171 169
f 123 173 132
f 123 132 124
f 123 172 215
f 123 215 174
f 123 174 175
f 123 175 173
f 124 132 125
f 128 130 176
f 129 147 177
f 129 177 130
f 130 177 178
f 130 178 179
f 130 179 176
f 131 175 180
f 131 180 133
f 131 173 175
f 133 180 134
f 134 181 182
f 134 182 183
f 134 183 184
f 134 184 185
f 134 185 186
f 134 186 187
f 134 187 188
f 134 188 189
f 134 189 135
f 134 180 190
f 134 190 191
f 134 191 181
f 135 189 192
f 135 192 136
f 136 192 137
f 137 192 138
f 138 192 193
f 138 193 139
f 139 194 155
f 139 155 141
f 139 141 140
f 139 193 194
f 141 155 195
f 141 195 196
f 141 196 154
f 141 153 197
f 141 197 143
f 142 143 144
f 143 197 144
f 144 197 145
f 145 197 153
f 145 153 146
f 146 158 178
f 146 178 177
f 146 177 147
f 146 153 152
f 146 152 151
f 149 157 198
f 149 198 150
f 150 198 156
f 150 156 199
f 154 196 155
f 155 194 200
f 155 200 156
f 155 196 195
f 156 200 201
f 156 201 202
f 156 202 199
f 156 198 157
f 158 203 179
f 158 179 178
f 160 204 242
f 160 242 205
f 160 205 161
f 160 162 165
f 160 165 206
f 160 206 207
f 160 207 204
f 163 167 208
f 163 208 209
f 163 209 210
f 163 210 207
f 163 207 206
f 163 206 164
f 164 206 165
f 166 169 211
f 166 211 167
f 167 211 208
f 168 212 171
f 168 171 170
f 169 171 213
f 169 213 211
f 171 212 214
f 171 214 213
f 174 216 217
f 174 217 218
f 174 218 219
f 174 219 220
f 174 220 175
f 174 215 221
f 174 221 216
f 175 222 180
f 175 220 222
f 176 179 203
f 180 222 190
f 181 191 209
f 181 209 208
f 181 208 223
f 181 223 224
f 181 224 225
f 181 225 226
f 181 226 182
f 182 226 227
f 182 227 183
f 183 227 184
f 184 227 185
f 185 228 229
f 185 229 230
f 185 230 231
f 185 231 232
f 185 232 233
f 185 233 234
f 185 234 186
f 185 227 226
f 185 226 235
f 185 235 225
f 185 225 228
f 186 234 187
f 187 234 188
f 188 234 233
f 188 233 194
f 188 194 193
f 188 193 192
f 188 192 189
f 190 222 236
f 190 236 191
f 191 236 209
f 194 233 237
f 194 237 201
f 194 201 200
f 199 202 238
f 199 238 239
f 201 237 240
f 201 240 238
f 201 238 202
f 204 216 241
f 204 241 242
f 204 207 243
f 204 243 210
f 204 210 244
f 204 244 217
f 204 217 216
f 207 210 243
f 208 211 245
f 208 245 223
f 209 236 210
f 210 236 244
f 211 213 245
f 212 246 214
f 213 214 245
f 214 246 247
f 214 247 248
f 214 248 249
f 214 249 250
f 214 250 251
f 214 251 245
f 216 221 252
f 216 252 241
f 217 244 218
f 218 244 236
f 218 236 219
f 219 236 222
f 219 222 220
f 223 245 251
f 223 251 224
f 224 251 250
f 224 250 225
f 225 250 249
f 225 249 228
f 225 235 226
f 228 249 229
f 229 249 248
f 229 248 253
f 229 253 254
f 229 254 255
f 229 255 230
f 230 255 231
f 231 255 256
f 231 256 257
f 231 257 258
f 231 258 259
f 231 259 232
f 232 259 237
f 232 237 233
f 237 259 240
f 238 240 260
f 238 260 239
f 240 258 261
f 240 261 260
f 240 259 258
f 247 262 248
f 248 262 254
f 248 254 253
f 254 263 255
f 255 263 257
f 255 257 256
