v 0.128358 -0.748231 0.166686
v 0.132164 -0.744061 0.166686
v 0.132653 -0.742712 0.167267
v 0.128358 -0.745042 0.168901
v 0.128358 -0.620325 0.166686
v 0.133772 -0.742283 0.166686
v 0.140734 -0.734373 0.166686
v 0.13766 -0.73143 0.171099
v 0.128358 -0.735048 0.175729
v 0.128358 -0.738543 0.17335
v 0.128358 -0.121826 0.303909
v 0.286661 -0.121826 0.166704
v 0.286681 -0.121887 0.166686
v 0.149059 -0.724747 0.166686
v 0.148957 -0.724808 0.166759
v 0.128358 -0.73376 0.176582
v 0.131167 -0.7207 0.183083
v 0.128358 -0.7207 0.185226
v 0.128358 -0.121826 0.352175
v 0.298141 -0.121826 0.166686
v 0.166687 -0.70206 0.166686
v 0.169455 -0.69507 0.169464
v 0.1537 -0.713464 0.170408
v 0.135034 -0.71138 0.186061
v 0.128358 -0.716408 0.187968
v 0.130861 -0.121826 0.351158
v 0.128358 -0.124033 0.352029
v 0.336307 -0.121826 0.166686
v 0.173139 -0.692494 0.166686
v 0.170574 -0.662695 0.187314
v 0.166442 -0.673977 0.184136
v 0.16231 -0.688325 0.178997
v 0.15083 -0.692862 0.185153
v 0.157567 -0.703715 0.173405
v 0.183704 -0.674406 0.166686
v 0.187307 -0.662695 0.170572
v 0.18578 -0.643196 0.185771
v 0.144764 -0.704942 0.18252
v 0.128358 -0.704512 0.195376
v 0.156244 -0.121826 0.340644
v 0.128358 -0.126486 0.351848
v 0.144153 -0.127222 0.345256
v 0.164244 -0.127222 0.33694
v 0.3359 -0.127222 0.166686
v 0.331544 -0.121826 0.178071
v 0.331157 -0.127222 0.178071
v 0.173994 -0.652823 0.189947
v 0.151929 -0.660303 0.202967
v 0.160926 -0.668949 0.191236
v 0.136479 -0.679311 0.204111
v 0.155145 -0.68158 0.188476
v 0.139512 -0.700098 0.189493
v 0.132144 -0.690655 0.200806
v 0.188894 -0.665209 0.166686
v 0.192273 -0.659016 0.166686
v 0.195245 -0.653497 0.166686
v 0.189953 -0.652823 0.173986
v 0.195265 -0.636329 0.178362
v 0.200639 -0.618915 0.182811
v 0.20298 -0.60935 0.185861
v 0.188894 -0.631914 0.188894
v 0.185861 -0.60935 0.202985
v 0.182808 -0.618915 0.200624
v 0.17835 -0.636329 0.195249
v 0.128358 -0.703286 0.196121
v 0.16862 -0.121826 0.335505
v 0.128358 -0.14298 0.350395
v 0.153944 -0.144145 0.3397
v 0.162432 -0.144145 0.336177
v 0.178065 -0.144145 0.329658
v 0.178065 -0.127222 0.331165
v 0.335636 -0.130226 0.166686
v 0.32727 -0.121826 0.18666
v 0.324888 -0.127222 0.190637
v 0.324135 -0.144145 0.189475
v 0.329651 -0.144145 0.178071
v 0.161333 -0.653927 0.199117
v 0.167134 -0.640744 0.201623
v 0.155837 -0.649021 0.205963
v 0.14454 -0.653436 0.212282
v 0.13998 -0.669807 0.206816
v 0.132693 -0.657851 0.218601
v 0.128358 -0.693107 0.202186
v 0.201433 -0.641725 0.166686
v 0.201616 -0.640744 0.16714
v 0.204547 -0.6294 0.170935
v 0.207153 -0.618915 0.174331
v 0.218633 -0.606591 0.167194
v 0.205647 -0.598068 0.189311
v 0.203876 -0.577343 0.203875
v 0.189301 -0.598068 0.205636
v 0.178269 -0.602298 0.212137
v 0.167196 -0.606591 0.218619
v 0.155898 -0.615543 0.222959
v 0.17434 -0.618915 0.207143
v 0.170941 -0.6294 0.204546
v 0.178065 -0.121826 0.331547
v 0.128358 -0.144145 0.350286
v 0.152804 -0.153404 0.339228
v 0.159522 -0.159903 0.335777
v 0.161109 -0.178114 0.333253
v 0.176416 -0.195037 0.325082
v 0.17951 -0.178788 0.325463
v 0.186146 -0.18492 0.321995
v 0.187184 -0.173638 0.322613
v 0.189485 -0.144145 0.324138
v 0.190624 -0.127222 0.324901
v 0.334394 -0.144145 0.166686
v 0.325092 -0.121826 0.190928
v 0.318822 -0.127222 0.199099
v 0.319046 -0.121826 0.199408
v 0.317947 -0.144145 0.197955
v 0.32326 -0.161129 0.188149
v 0.322608 -0.173638 0.187169
v 0.321998 -0.18492 0.186134
v 0.327901 -0.161129 0.178071
v 0.333926 -0.148805 0.166686
v 0.149242 -0.6359 0.217857
v 0.137171 -0.646507 0.221579
v 0.128358 -0.660303 0.219854
v 0.128358 -0.667171 0.216222
v 0.128358 -0.683788 0.20727
v 0.132083 -0.623882 0.235724
v 0.202166 -0.640314 0.166686
v 0.206441 -0.632037 0.166686
v 0.209799 -0.625353 0.166686
v 0.212608 -0.619712 0.166686
v 0.21843 -0.607756 0.166686
v 0.219224 -0.6061 0.166686
v 0.223112 -0.597822 0.166686
v 0.22128 -0.595247 0.170663
v 0.217147 -0.585007 0.182211
v 0.207865 -0.583781 0.194977
v 0.202736 -0.541228 0.219872
v 0.20009 -0.5511 0.217838
v 0.194451 -0.568452 0.214987
v 0.185352 -0.574338 0.219545
v 0.19498 -0.583781 0.207851
v 0.219549 -0.574338 0.185353
v 0.21499 -0.568452 0.194432
v 0.217839 -0.5511 0.200079
v 0.219875 -0.541228 0.202749
v 0.222216 -0.529884 0.205745
v 0.219753 -0.507136 0.219745
v 0.205748 -0.529884 0.222215
v 0.170656 -0.595247 0.221288
v 0.182218 -0.585007 0.217148
v 0.161374 -0.601317 0.225556
v 0.148957 -0.601992 0.234689
v 0.144683 -0.619712 0.229351
v 0.152275 -0.626825 0.220181
v 0.19093 -0.121826 0.3251
v 0.128358 -0.161068 0.348561
v 0.149751 -0.178114 0.337956
v 0.139146 -0.195037 0.340589
v 0.161109 -0.195037 0.331492
v 0.161109 -0.212022 0.32944
v 0.173974 -0.212022 0.324047
v 0.184884 -0.195037 0.321378
v 0.196365 -0.21196 0.310664
v 0.195021 -0.195037 0.314078
v 0.193698 -0.178788 0.317056
v 0.197952 -0.144145 0.317946
v 0.199113 -0.127222 0.318817
v 0.193596 -0.121826 0.323194
v 0.282345 -0.127222 0.246638
v 0.288411 -0.136848 0.237595
v 0.282569 -0.121826 0.246946
v 0.282508 -0.143164 0.244313
v 0.30093 -0.178114 0.21486
v 0.316929 -0.161129 0.196629
v 0.317051 -0.178788 0.193706
v 0.314079 -0.195037 0.195013
v 0.31066 -0.21196 0.196357
v 0.310334 -0.228945 0.193234
v 0.321367 -0.195037 0.184881
v 0.325071 -0.195037 0.176401
v 0.325458 -0.178788 0.179524
v 0.330262 -0.184307 0.166686
v 0.140754 -0.6359 0.224266
v 0.13709 -0.6126 0.238321
v 0.128358 -0.653681 0.223086
v 0.128358 -0.617566 0.240101
v 0.128358 -0.620141 0.238993
v 0.128358 -0.62566 0.23656
v 0.128358 -0.631853 0.233618
v 0.226083 -0.591446 0.166686
v 0.223641 -0.585007 0.17375
v 0.18407 -0.538039 0.235525
v 0.188406 -0.563056 0.221888
v 0.166666 -0.57115 0.23518
v 0.155369 -0.581144 0.23952
v 0.16974 -0.559868 0.237522
v 0.22877 -0.58562 0.166686
v 0.235182 -0.571089 0.166686
v 0.237503 -0.559868 0.169737
v 0.22189 -0.563056 0.188404
v 0.250469 -0.534054 0.166686
v 0.228872 -0.533931 0.194922
v 0.237828 -0.526696 0.187114
v 0.224638 -0.517192 0.208886
v 0.22875 -0.499655 0.211719
v 0.232617 -0.483284 0.214243
v 0.235528 -0.466299 0.218038
v 0.221911 -0.495854 0.221924
v 0.218043 -0.466299 0.235561
v 0.214237 -0.483284 0.232619
v 0.211733 -0.499655 0.228752
v 0.208904 -0.517192 0.22463
v 0.187103 -0.526696 0.237849
v 0.15197 -0.592427 0.236923
v 0.17375 -0.585007 0.223649
v 0.128358 -0.195037 0.345056
v 0.137273 -0.208343 0.339809
v 0.128358 -0.213187 0.342841
v 0.131045 -0.245929 0.33723
v 0.144153 -0.245929 0.331801
v 0.169781 -0.23802 0.322268
v 0.182462 -0.212022 0.320179
v 0.189688 -0.262853 0.307614
v 0.191459 -0.245929 0.308976
v 0.19323 -0.228945 0.310337
v 0.204079 -0.206258 0.305671
v 0.199947 -0.245929 0.302493
v 0.201718 -0.228945 0.303855
v 0.205036 -0.195037 0.306415
v 0.206379 -0.178114 0.307432
v 0.196629 -0.161129 0.316929
v 0.209026 -0.144145 0.309466
v 0.237584 -0.136848 0.288402
v 0.210166 -0.127222 0.310337
v 0.202899 -0.121826 0.316366
v 0.199398 -0.121826 0.319035
v 0.273857 -0.127222 0.25766
v 0.272982 -0.144145 0.256516
v 0.274081 -0.121826 0.25795
v 0.271964 -0.161129 0.255227
v 0.271415 -0.170449 0.2545
v 0.270743 -0.181732 0.253629
v 0.2763 -0.176888 0.247146
v 0.299912 -0.195037 0.213517
v 0.306405 -0.195037 0.205037
v 0.305673 -0.206258 0.204074
v 0.303861 -0.228945 0.201714
v 0.30897 -0.245929 0.191454
v 0.320166 -0.212022 0.182466
v 0.324053 -0.212022 0.173986
v 0.307606 -0.262853 0.189675
v 0.328267 -0.202395 0.166686
v 0.329142 -0.195037 0.166686
v 0.128358 -0.601992 0.246492
v 0.150545 -0.556618 0.253175
v 0.135116 -0.575871 0.254155
v 0.160295 -0.551038 0.248399
v 0.165587 -0.534115 0.251304
v 0.161048 -0.56649 0.241408
v 0.154087 -0.545336 0.255426
v 0.238867 -0.562198 0.166686
v 0.252138 -0.529884 0.166686
v 0.253482 -0.523262 0.168429
v 0.233106 -0.517192 0.1979
v 0.235569 -0.503518 0.201114
v 0.239131 -0.483284 0.205763
v 0.255191 -0.477152 0.187623
v 0.242042 -0.466299 0.209558
v 0.237096 -0.456857 0.220072
v 0.237788 -0.408294 0.237813
v 0.220079 -0.456857 0.237123
v 0.171429 -0.462069 0.272731
v 0.190034 -0.466299 0.257042
v 0.187632 -0.477152 0.255208
v 0.193983 -0.482977 0.24829
v 0.203713 -0.492175 0.237577
v 0.201107 -0.503518 0.235579
v 0.197891 -0.517192 0.23311
v 0.189423 -0.517192 0.239628
v 0.168437 -0.523262 0.253483
v 0.128358 -0.237223 0.339536
v 0.128358 -0.245929 0.338338
v 0.128358 -0.256537 0.336867
v 0.15716 -0.262853 0.324065
v 0.167908 -0.249302 0.321487
v 0.165628 -0.262853 0.320543
v 0.178065 -0.262853 0.314459
v 0.187673 -0.279837 0.306088
v 0.236668 -0.267942 0.270752
v 0.198156 -0.262853 0.301131
v 0.22301 -0.212022 0.290236
v 0.231498 -0.212022 0.283717
v 0.250998 -0.212022 0.268736
v 0.252566 -0.195037 0.269935
v 0.211 -0.245929 0.294013
v 0.227915 -0.230478 0.283517
v 0.217697 -0.262853 0.28615
v 0.2259 -0.178114 0.292451
v 0.230216 -0.143164 0.293323
v 0.244281 -0.143164 0.282501
v 0.256494 -0.144145 0.272986
v 0.257634 -0.127222 0.273857
v 0.246622 -0.127222 0.282337
v 0.218633 -0.127222 0.303837
v 0.232149 -0.121826 0.293922
v 0.266122 -0.127222 0.266122
v 0.266407 -0.121826 0.266412
v 0.264982 -0.144145 0.264978
v 0.261461 -0.195037 0.261455
v 0.269929 -0.195037 0.252575
v 0.276442 -0.195037 0.244095
v 0.268728 -0.212022 0.251014
v 0.28373 -0.212022 0.231494
v 0.287516 -0.245929 0.219473
v 0.302497 -0.245929 0.199934
v 0.30608 -0.279837 0.187659
v 0.314466 -0.262853 0.178071
v 0.320023 -0.262853 0.166686
v 0.32098 -0.256537 0.166686
v 0.321489 -0.249302 0.167903
v 0.322262 -0.23802 0.169773
v 0.325824 -0.221342 0.166686
v 0.327086 -0.212022 0.166686
v 0.301133 -0.262853 0.198155
v 0.128358 -0.588686 0.251904
v 0.151583 -0.507259 0.270843
v 0.147838 -0.517192 0.269154
v 0.13597 -0.526021 0.271442
v 0.128358 -0.569372 0.259258
v 0.128358 -0.579489 0.255535
v 0.128358 -0.586356 0.252848
v 0.157099 -0.534115 0.257587
v 0.255293 -0.521668 0.166686
v 0.257797 -0.514678 0.166686
v 0.255537 -0.51198 0.171135
v 0.257634 -0.500207 0.173859
v 0.259873 -0.482977 0.178852
v 0.270824 -0.473351 0.168901
v 0.266387 -0.467158 0.177472
v 0.272717 -0.462069 0.171425
v 0.274692 -0.449376 0.174004
v 0.268198 -0.449376 0.182484
v 0.245767 -0.449008 0.211846
v 0.249227 -0.432453 0.213771
v 0.240739 -0.432453 0.224775
v 0.242327 -0.414549 0.229623
v 0.253461 -0.403634 0.219291
v 0.248413 -0.398239 0.227717
v 0.249797 -0.381561 0.231494
v 0.251914 -0.364637 0.234235
v 0.253421 -0.352435 0.236215
v 0.254825 -0.341092 0.238031
v 0.239111 -0.398545 0.239138
v 0.238012 -0.341092 0.254845
v 0.23618 -0.352435 0.253447
v 0.231478 -0.381561 0.249815
v 0.227712 -0.398239 0.248435
v 0.219285 -0.403634 0.253483
v 0.229625 -0.414549 0.242352
v 0.224781 -0.432453 0.240772
v 0.217066 -0.415468 0.251776
v 0.213768 -0.432453 0.249252
v 0.201413 -0.452442 0.252775
v 0.162392 -0.467158 0.276726
v 0.154758 -0.495976 0.272586
v 0.168905 -0.473351 0.270825
v 0.177475 -0.467158 0.266376
v 0.173994 -0.449376 0.274692
v 0.170636 -0.409766 0.289001
v 0.167949 -0.421048 0.287403
v 0.178859 -0.482977 0.259875
v 0.173852 -0.500207 0.25766
v 0.195286 -0.498797 0.241717
v 0.171144 -0.51198 0.255572
v 0.177312 -0.517437 0.248835
v 0.162107 -0.517437 0.260111
v 0.128358 -0.263956 0.335832
v 0.154697 -0.276281 0.323048
v 0.160661 -0.281064 0.319744
v 0.169943 -0.340172 0.305435
v 0.17147 -0.33073 0.306288
v 0.178065 -0.279837 0.31159
v 0.186553 -0.288299 0.305235
v 0.193332 -0.295105 0.298662
v 0.215682 -0.279837 0.284607
v 0.226735 -0.279837 0.276127
v 0.235182 -0.279837 0.269626
v 0.247233 -0.280266 0.26022
v 0.25509 -0.274932 0.255099
v 0.244464 -0.262485 0.265631
v 0.237869 -0.256598 0.271678
v 0.230195 -0.262485 0.276617
v 0.238989 -0.245929 0.272532
v 0.247456 -0.245929 0.266013
v 0.256148 -0.262853 0.256171
v 0.257532 -0.245929 0.257551
v 0.253604 -0.181732 0.270734
v 0.247131 -0.176888 0.27629
v 0.234368 -0.178114 0.285951
v 0.258896 -0.228945 0.258913
v 0.26026 -0.212022 0.260256
v 0.245869 -0.161129 0.279141
v 0.255191 -0.161129 0.271969
v 0.260606 -0.121826 0.271696
v 0.257919 -0.121826 0.274093
v 0.246927 -0.121826 0.282573
v 0.254479 -0.170449 0.271406
v 0.267364 -0.228945 0.249252
v 0.272534 -0.245929 0.238993
v 0.270763 -0.267942 0.236687
v 0.286152 -0.262853 0.217693
v 0.299586 -0.279837 0.196139
v 0.305225 -0.288299 0.186551
v 0.311596 -0.279837 0.178071
v 0.306283 -0.33073 0.17148
v 0.319779 -0.264324 0.166686
v 0.32212 -0.248382 0.166686
v 0.323198 -0.240534 0.166686
v 0.160682 -0.501066 0.266866
v 0.150117 -0.45373 0.287222
v 0.144337 -0.467342 0.285842
v 0.144153 -0.483284 0.281211
v 0.145212 -0.501066 0.275382
v 0.128358 -0.499349 0.282882
v 0.128358 -0.516149 0.277707
v 0.139349 -0.517192 0.27284
v 0.128358 -0.517192 0.27738
v 0.128358 -0.531172 0.272768
v 0.128358 -0.534728 0.271515
v 0.269298 -0.48218 0.166686
v 0.272819 -0.471266 0.166686
v 0.287394 -0.421048 0.167957
v 0.289002 -0.409766 0.170645
v 0.2763 -0.431656 0.178798
v 0.282508 -0.415407 0.177
v 0.255741 -0.432453 0.205291
v 0.251751 -0.415468 0.217058
v 0.258265 -0.415468 0.208578
v 0.273247 -0.415468 0.189057
v 0.284096 -0.398545 0.181122
v 0.259751 -0.398239 0.212972
v 0.254947 -0.392352 0.221234
v 0.265674 -0.381561 0.210829
v 0.2706 -0.387202 0.202567
v 0.269013 -0.347653 0.217457
v 0.283994 -0.347653 0.197919
v 0.290488 -0.347653 0.189439
v 0.270478 -0.335144 0.219364
v 0.255945 -0.33073 0.239465
v 0.253807 -0.286214 0.253828
v 0.239457 -0.33073 0.255971
v 0.219366 -0.335144 0.27048
v 0.189444 -0.347653 0.29049
v 0.197932 -0.347653 0.28399
v 0.22991 -0.347101 0.259585
v 0.225758 -0.364637 0.258441
v 0.22301 -0.381561 0.256334
v 0.221239 -0.392352 0.254972
v 0.181119 -0.398545 0.284099
v 0.177007 -0.415407 0.282501
v 0.178798 -0.431656 0.276309
v 0.205301 -0.432453 0.255753
v 0.182482 -0.449376 0.268192
v 0.166422 -0.483284 0.2691
v 0.161109 -0.398545 0.296283
v 0.161822 -0.415407 0.291798
v 0.17263 -0.398545 0.290381
v 0.156305 -0.432453 0.289964
v 0.153517 -0.442447 0.288674
v 0.128358 -0.279899 0.333326
v 0.141914 -0.29676 0.324773
v 0.161109 -0.313745 0.31386
v 0.161109 -0.29676 0.31682
v 0.128358 -0.340908 0.322467
v 0.128358 -0.347653 0.321105
v 0.161354 -0.346549 0.307686
v 0.167175 -0.351454 0.304182
v 0.176579 -0.346549 0.299588
v 0.179958 -0.33073 0.300913
v 0.182604 -0.313745 0.302656
v 0.184803 -0.299642 0.304091
v 0.161109 -0.33073 0.310864
v 0.133833 -0.334899 0.321414
v 0.174137 -0.313745 0.307795
v 0.191968 -0.33073 0.292433
v 0.195958 -0.31258 0.293087
v 0.202227 -0.317424 0.287294
v 0.203733 -0.306142 0.288438
v 0.230724 -0.313745 0.266176
v 0.243935 -0.29676 0.259439
v 0.260219 -0.280266 0.247255
v 0.265634 -0.262485 0.244477
v 0.266 -0.245929 0.247473
v 0.269623 -0.279837 0.235198
v 0.284605 -0.279837 0.215677
v 0.293093 -0.31258 0.195957
v 0.292421 -0.33073 0.191963
v 0.304085 -0.299642 0.18479
v 0.305428 -0.340172 0.169955
v 0.309784 -0.322881 0.166686
v 0.144153 -0.415468 0.299497
v 0.144153 -0.432453 0.295157
v 0.144337 -0.448579 0.290944
v 0.128358 -0.449315 0.297372
v 0.13882 -0.462375 0.289564
v 0.128419 -0.467342 0.292451
v 0.134871 -0.473657 0.287948
v 0.131391 -0.483284 0.286495
v 0.128358 -0.492052 0.285097
v 0.128358 -0.497019 0.28359
v 0.286722 -0.425586 0.166686
v 0.28831 -0.419883 0.166686
v 0.290365 -0.398545 0.172642
v 0.290243 -0.41228 0.166686
v 0.292014 -0.405106 0.166686
v 0.286274 -0.381561 0.183955
v 0.282793 -0.364821 0.193942
v 0.289042 -0.359303 0.187568
v 0.300909 -0.33073 0.17996
v 0.29234 -0.381561 0.175475
v 0.285928 -0.33073 0.200443
v 0.271659 -0.323862 0.220907
v 0.265308 -0.329994 0.227499
v 0.266183 -0.313745 0.230731
v 0.257695 -0.313745 0.241717
v 0.241696 -0.313745 0.257714
v 0.220893 -0.323862 0.27166
v 0.227508 -0.329994 0.265305
v 0.17548 -0.381561 0.292324
v 0.187571 -0.359303 0.289056
v 0.217453 -0.347653 0.269009
v 0.202573 -0.387202 0.270607
v 0.183948 -0.381561 0.286278
v 0.150036 -0.385056 0.304164
v 0.144296 -0.400201 0.303165
v 0.159603 -0.380273 0.301059
v 0.128358 -0.312396 0.327661
v 0.14682 -0.313745 0.31978
v 0.136255 -0.323617 0.322431
v 0.128358 -0.3303 0.324501
v 0.128358 -0.349799 0.320651
v 0.144153 -0.364637 0.310955
v 0.259425 -0.29676 0.24395
v 0.30266 -0.313745 0.182611
v 0.299586 -0.346549 0.176582
v 0.304187 -0.351454 0.167158
v 0.306283 -0.342564 0.166686
v 0.307423 -0.336677 0.166686
v 0.135624 -0.406945 0.305217
v 0.132999 -0.415468 0.304127
v 0.128358 -0.431227 0.302021
v 0.128358 -0.467342 0.292451
v 0.128358 -0.478869 0.289074
v 0.128358 -0.483284 0.287748
v 0.303983 -0.353294 0.166686
v 0.196161 -0.381561 0.276926
v 0.128358 -0.381499 0.313897
v 0.138739 -0.395663 0.306506
v 0.128358 -0.313745 0.327425
v 0.128358 -0.329381 0.324664
v 0.304472 -0.351025 0.166686
v 0.128866 -0.400201 0.309557
v 0.128358 -0.412525 0.306797
v 0.128358 -0.400139 0.309775
f 1 2 3
f 1 3 4
f 1 4 10
f 1 10 9
f 1 9 16
f 1 16 18
f 1 18 25
f 1 25 39
f 1 39 65
f 1 65 83
f 1 83 122
f 1 122 121
f 1 121 120
f 1 120 182
f 1 182 186
f 1 186 185
f 1 185 184
f 1 184 183
f 1 183 251
f 1 251 322
f 1 322 328
f 1 328 327
f 1 327 326
f 1 326 426
f 1 426 425
f 1 425 424
f 1 424 422
f 1 422 421
f 1 421 507
f 1 507 506
f 1 506 551
f 1 551 550
f 1 550 549
f 1 549 501
f 1 501 548
f 1 548 560
f 1 560 561
f 1 561 554
f 1 554 538
f 1 538 472
f 1 472 471
f 1 471 537
f 1 537 557
f 1 557 556
f 1 556 534
f 1 534 467
f 1 467 374
f 1 374 280
f 1 280 279
f 1 279 278
f 1 278 215
f 1 215 213
f 1 213 153
f 1 153 98
f 1 98 67
f 1 67 41
f 1 41 27
f 1 27 19
f 1 19 11
f 1 11 5
f 1 5 13
f 1 13 20
f 1 20 28
f 1 28 44
f 1 44 72
f 1 72 108
f 1 108 117
f 1 117 179
f 1 179 250
f 1 250 249
f 1 249 320
f 1 320 319
f 1 319 415
f 1 415 414
f 1 414 316
f 1 316 315
f 1 315 413
f 1 413 497
f 1 497 545
f 1 545 544
f 1 544 558
f 1 558 552
f 1 552 512
f 1 512 511
f 1 511 509
f 1 509 508
f 1 508 428
f 1 428 427
f 1 427 331
f 1 331 330
f 1 330 259
f 1 259 198
f 1 198 258
f 1 258 195
f 1 195 194
f 1 194 187
f 1 187 130
f 1 130 129
f 1 129 128
f 1 128 127
f 1 127 126
f 1 126 125
f 1 125 124
f 1 124 84
f 1 84 56
f 1 56 55
f 1 55 54
f 1 54 35
f 1 35 29
f 1 29 21
f 1 21 14
f 1 14 7
f 1 7 6
f 1 6 2
f 2 6 3
f 3 6 7
f 3 7 8
f 3 8 9
f 3 9 10
f 3 10 4
f 5 11 12
f 5 12 13
f 7 14 15
f 7 15 8
f 8 16 9
f 8 15 17
f 8 17 18
f 8 18 16
f 11 19 26
f 11 26 40
f 11 40 66
f 11 66 97
f 11 97 152
f 11 152 165
f 11 165 233
f 11 233 232
f 11 232 302
f 11 302 403
f 11 403 402
f 11 402 401
f 11 401 304
f 11 304 236
f 11 236 168
f 11 168 111
f 11 111 109
f 11 109 73
f 11 73 45
f 11 45 28
f 11 28 20
f 11 20 12
f 12 20 13
f 14 21 15
f 15 21 22
f 15 22 23
f 15 23 17
f 17 23 24
f 17 24 25
f 17 25 18
f 19 27 26
f 21 29 22
f 22 30 31
f 22 31 32
f 22 32 33
f 22 33 34
f 22 34 23
f 22 29 35
f 22 35 36
f 22 36 37
f 22 37 30
f 23 34 38
f 23 38 24
f 24 38 39
f 24 39 25
f 26 27 41
f 26 41 42
f 26 42 43
f 26 43 40
f 28 45 46
f 28 46 44
f 30 47 48
f 30 48 49
f 30 49 31
f 30 37 47
f 31 49 50
f 31 50 51
f 31 51 32
f 32 51 33
f 33 52 34
f 33 51 53
f 33 53 52
f 34 52 38
f 35 54 36
f 36 54 55
f 36 55 56
f 36 56 57
f 36 57 37
f 37 58 59
f 37 59 60
f 37 60 61
f 37 61 62
f 37 62 63
f 37 63 64
f 37 64 47
f 37 57 58
f 38 52 39
f 39 52 65
f 40 43 66
f 41 67 42
f 42 67 43
f 43 67 68
f 43 68 69
f 43 69 70
f 43 70 71
f 43 71 66
f 44 46 72
f 45 73 46
f 46 74 75
f 46 75 76
f 46 76 72
f 46 73 74
f 47 77 48
f 47 64 78
f 47 78 79
f 47 79 77
f 48 77 79
f 48 79 80
f 48 80 81
f 48 81 49
f 49 81 50
f 50 53 51
f 50 81 82
f 50 82 83
f 50 83 53
f 52 53 65
f 53 83 65
f 56 84 85
f 56 85 58
f 56 58 57
f 58 85 86
f 58 86 59
f 59 86 87
f 59 87 60
f 60 87 88
f 60 88 89
f 60 89 90
f 60 90 61
f 61 90 62
f 62 91 92
f 62 92 93
f 62 93 94
f 62 94 95
f 62 95 63
f 62 90 91
f 63 95 96
f 63 96 64
f 64 96 78
f 66 71 97
f 67 98 68
f 68 98 99
f 68 99 100
f 68 100 69
f 69 100 101
f 69 101 70
f 70 101 102
f 70 102 103
f 70 103 104
f 70 104 105
f 70 105 106
f 70 106 71
f 71 106 107
f 71 107 97
f 72 76 108
f 73 109 74
f 74 110 75
f 74 109 111
f 74 111 110
f 75 112 113
f 75 113 76
f 75 110 112
f 76 113 114
f 76 114 115
f 76 115 116
f 76 116 117
f 76 117 108
f 78 96 118
f 78 118 119
f 78 119 79
f 79 119 80
f 80 119 81
f 81 119 82
f 82 120 121
f 82 121 122
f 82 122 83
f 82 119 123
f 82 123 120
f 84 124 85
f 85 124 125
f 85 125 86
f 86 126 127
f 86 127 87
f 86 125 126
f 87 127 88
f 88 127 128
f 88 128 129
f 88 129 130
f 88 130 131
f 88 131 89
f 89 131 132
f 89 132 133
f 89 133 90
f 90 134 135
f 90 135 136
f 90 136 137
f 90 137 138
f 90 138 91
f 90 133 139
f 90 139 140
f 90 140 141
f 90 141 142
f 90 142 143
f 90 143 144
f 90 144 145
f 90 145 134
f 91 146 92
f 91 138 147
f 91 147 146
f 92 146 93
f 93 146 148
f 93 148 149
f 93 149 94
f 94 150 151
f 94 151 95
f 94 149 150
f 95 151 96
f 96 151 118
f 97 107 152
f 98 153 99
f 99 153 154
f 99 154 101
f 99 101 100
f 101 154 155
f 101 155 156
f 101 156 102
f 102 156 157
f 102 157 158
f 102 158 159
f 102 159 104
f 102 104 103
f 104 159 160
f 104 160 161
f 104 161 105
f 105 161 162
f 105 162 163
f 105 163 106
f 106 163 164
f 106 164 107
f 107 164 165
f 107 165 152
f 110 166 167
f 110 167 112
f 110 111 168
f 110 168 166
f 112 167 169
f 112 169 170
f 112 170 171
f 112 171 172
f 112 172 114
f 112 114 113
f 114 172 173
f 114 173 115
f 115 173 174
f 115 174 175
f 115 175 176
f 115 176 177
f 115 177 178
f 115 178 116
f 116 178 179
f 116 179 117
f 118 151 119
f 119 151 180
f 119 180 181
f 119 181 123
f 120 123 182
f 123 181 183
f 123 183 184
f 123 184 185
f 123 185 186
f 123 186 182
f 130 187 131
f 131 187 188
f 131 188 132
f 132 188 139
f 132 139 133
f 134 189 135
f 134 145 189
f 135 189 190
f 135 190 136
f 136 190 137
f 137 191 192
f 137 192 147
f 137 147 138
f 137 190 193
f 137 193 191
f 139 188 194
f 139 194 195
f 139 195 196
f 139 196 197
f 139 197 140
f 140 197 141
f 141 197 142
f 142 197 198
f 142 198 199
f 142 199 143
f 143 199 200
f 143 200 201
f 143 201 144
f 144 201 202
f 144 202 203
f 144 203 204
f 144 204 205
f 144 205 206
f 144 206 207
f 144 207 208
f 144 208 209
f 144 209 145
f 145 209 210
f 145 210 189
f 146 211 148
f 146 147 212
f 146 212 211
f 147 192 212
f 148 211 149
f 149 211 181
f 149 181 150
f 150 181 180
f 150 180 151
f 153 213 154
f 154 213 155
f 155 213 214
f 155 214 156
f 156 214 157
f 157 215 216
f 157 216 217
f 157 217 218
f 157 218 158
f 157 214 215
f 158 219 159
f 158 218 219
f 159 219 220
f 159 220 221
f 159 221 222
f 159 222 160
f 160 223 161
f 160 222 221
f 160 221 224
f 160 224 225
f 160 225 223
f 161 226 162
f 161 223 226
f 162 226 227
f 162 227 228
f 162 228 163
f 163 229 230
f 163 230 164
f 163 228 227
f 163 227 229
f 164 230 231
f 164 231 232
f 164 232 233
f 164 233 165
f 166 234 167
f 166 168 234
f 167 235 169
f 167 234 235
f 168 236 234
f 169 235 237
f 169 237 238
f 169 238 239
f 169 239 240
f 169 240 170
f 170 240 239
f 170 239 241
f 170 241 172
f 170 172 171
f 172 241 242
f 172 242 173
f 173 242 243
f 173 243 174
f 174 243 244
f 174 244 175
f 175 244 312
f 175 312 245
f 175 245 176
f 176 246 247
f 176 247 177
f 176 245 248
f 176 248 246
f 177 247 249
f 177 249 250
f 177 250 178
f 178 250 179
f 181 251 183
f 181 211 192
f 181 192 252
f 181 252 253
f 181 253 251
f 187 194 188
f 189 254 193
f 189 193 190
f 189 210 255
f 189 255 254
f 191 256 192
f 191 193 256
f 192 256 257
f 192 257 252
f 192 211 212
f 193 254 256
f 195 258 196
f 196 258 198
f 196 198 197
f 198 259 260
f 198 260 200
f 198 200 199
f 200 260 261
f 200 261 201
f 201 261 262
f 201 262 202
f 202 262 203
f 203 263 264
f 203 264 204
f 203 262 263
f 204 265 266
f 204 266 205
f 204 264 265
f 205 266 267
f 205 267 268
f 205 268 206
f 206 268 269
f 206 269 270
f 206 270 271
f 206 271 207
f 207 271 272
f 207 272 273
f 207 273 274
f 207 274 208
f 208 274 209
f 209 274 275
f 209 275 210
f 210 275 276
f 210 276 277
f 210 277 255
f 213 215 214
f 215 278 216
f 216 278 279
f 216 279 280
f 216 280 281
f 216 281 217
f 217 281 282
f 217 282 218
f 218 282 219
f 219 282 283
f 219 283 284
f 219 284 285
f 219 285 220
f 220 285 286
f 220 286 287
f 220 287 224
f 220 224 221
f 223 288 289
f 223 289 290
f 223 290 291
f 223 291 226
f 223 225 288
f 224 292 293
f 224 293 288
f 224 288 225
f 224 287 294
f 224 294 292
f 226 291 295
f 226 295 227
f 227 295 296
f 227 296 229
f 229 296 230
f 230 296 297
f 230 297 298
f 230 298 299
f 230 299 300
f 230 300 301
f 230 301 231
f 231 301 302
f 231 302 232
f 234 303 235
f 234 236 304
f 234 304 303
f 235 303 305
f 235 305 237
f 237 239 238
f 237 305 239
f 239 306 307
f 239 307 308
f 239 308 241
f 239 305 306
f 241 308 243
f 241 243 242
f 243 308 307
f 243 307 309
f 243 309 310
f 243 310 244
f 244 311 312
f 244 310 311
f 245 312 321
f 245 321 248
f 246 248 313
f 246 313 314
f 246 314 315
f 246 315 316
f 246 316 317
f 246 317 318
f 246 318 247
f 247 318 319
f 247 319 320
f 247 320 249
f 248 321 313
f 251 253 322
f 252 257 323
f 252 323 324
f 252 324 253
f 253 324 325
f 253 325 326
f 253 326 327
f 253 327 328
f 253 328 322
f 254 255 257
f 254 257 256
f 255 277 257
f 257 277 329
f 257 329 323
f 259 330 260
f 260 330 331
f 260 331 332
f 260 332 261
f 261 332 262
f 262 332 333
f 262 333 263
f 263 334 264
f 263 333 334
f 264 334 335
f 264 335 336
f 264 336 265
f 265 336 337
f 265 337 266
f 266 337 338
f 266 338 339
f 266 339 340
f 266 340 341
f 266 341 342
f 266 342 343
f 266 343 267
f 267 344 345
f 267 345 346
f 267 346 347
f 267 347 348
f 267 348 349
f 267 349 350
f 267 350 351
f 267 351 352
f 267 352 353
f 267 353 354
f 267 354 355
f 267 355 356
f 267 356 357
f 267 357 268
f 267 343 344
f 268 357 358
f 268 358 359
f 268 359 360
f 268 360 269
f 269 361 362
f 269 362 363
f 269 363 271
f 269 271 364
f 269 364 270
f 269 360 365
f 269 365 366
f 269 366 367
f 269 367 361
f 270 364 271
f 271 368 369
f 271 369 272
f 271 363 368
f 272 369 370
f 272 370 273
f 273 370 274
f 274 371 276
f 274 276 275
f 274 370 371
f 276 372 277
f 276 371 372
f 277 372 371
f 277 371 373
f 277 373 329
f 280 374 281
f 281 374 375
f 281 375 283
f 281 283 282
f 283 375 376
f 283 376 377
f 283 377 378
f 283 378 284
f 284 378 379
f 284 379 285
f 285 379 380
f 285 380 381
f 285 381 382
f 285 382 286
f 286 382 383
f 286 383 384
f 286 384 385
f 286 385 386
f 286 386 387
f 286 387 388
f 286 388 389
f 286 389 294
f 286 294 287
f 288 293 289
f 289 293 290
f 290 293 390
f 290 390 391
f 290 391 386
f 290 386 392
f 290 392 393
f 290 393 291
f 291 306 305
f 291 305 394
f 291 394 395
f 291 395 396
f 291 396 295
f 291 393 397
f 291 397 398
f 291 398 306
f 292 294 388
f 292 388 293
f 293 388 390
f 294 389 388
f 295 396 296
f 296 396 395
f 296 395 399
f 296 399 400
f 296 400 297
f 297 400 298
f 298 305 303
f 298 303 299
f 298 400 305
f 299 303 304
f 299 304 401
f 299 401 402
f 299 402 403
f 299 403 300
f 300 403 301
f 301 403 302
f 305 400 404
f 305 404 394
f 306 398 307
f 307 398 397
f 307 397 393
f 307 393 309
f 309 393 392
f 309 392 386
f 309 386 405
f 309 405 406
f 309 406 310
f 310 406 311
f 311 406 407
f 311 407 408
f 311 408 321
f 311 321 312
f 313 407 409
f 313 409 410
f 313 410 411
f 313 411 314
f 313 321 407
f 314 411 412
f 314 412 413
f 314 413 315
f 316 414 317
f 317 414 415
f 317 415 318
f 318 415 319
f 321 408 407
f 323 416 362
f 323 362 417
f 323 417 418
f 323 418 419
f 323 419 420
f 323 420 421
f 323 421 422
f 323 422 423
f 323 423 325
f 323 325 324
f 323 329 373
f 323 373 416
f 325 423 424
f 325 424 425
f 325 425 426
f 325 426 326
f 331 427 335
f 331 335 332
f 332 335 333
f 333 335 334
f 335 428 429
f 335 429 337
f 335 337 336
f 335 427 428
f 337 429 430
f 337 430 338
f 338 431 339
f 338 430 432
f 338 432 431
f 339 431 433
f 339 433 340
f 340 433 341
f 341 433 435
f 341 435 434
f 341 434 342
f 342 434 343
f 343 434 344
f 344 434 435
f 344 435 436
f 344 436 430
f 344 430 437
f 344 437 438
f 344 438 345
f 345 438 439
f 345 439 346
f 346 440 347
f 346 439 441
f 346 441 440
f 347 440 442
f 347 442 348
f 348 442 349
f 349 443 444
f 349 444 445
f 349 445 446
f 349 446 447
f 349 447 350
f 349 442 443
f 350 447 351
f 351 447 448
f 351 448 449
f 351 449 450
f 351 450 451
f 351 451 452
f 351 452 453
f 351 453 352
f 352 453 353
f 353 453 454
f 353 454 455
f 353 455 354
f 354 455 355
f 355 456 366
f 355 366 457
f 355 457 358
f 355 358 356
f 355 455 456
f 356 358 357
f 358 457 458
f 358 458 459
f 358 459 359
f 359 459 360
f 360 459 458
f 360 458 460
f 360 460 365
f 361 367 362
f 362 461 363
f 362 367 417
f 362 416 461
f 363 461 371
f 363 371 369
f 363 369 368
f 365 460 458
f 365 458 457
f 365 457 366
f 366 462 463
f 366 463 367
f 366 456 464
f 366 464 377
f 366 377 462
f 367 465 466
f 367 466 417
f 367 463 465
f 369 371 370
f 371 461 373
f 373 461 416
f 374 467 375
f 375 467 468
f 375 468 469
f 375 469 376
f 376 469 470
f 376 470 377
f 377 471 472
f 377 472 473
f 377 473 474
f 377 474 462
f 377 464 475
f 377 475 476
f 377 476 477
f 377 477 478
f 377 478 380
f 377 380 378
f 377 470 469
f 377 469 479
f 377 479 480
f 377 480 471
f 378 380 481
f 378 481 379
f 379 481 380
f 380 478 482
f 380 482 483
f 380 483 381
f 381 483 484
f 381 484 485
f 381 485 383
f 381 383 382
f 383 485 486
f 383 486 384
f 384 486 487
f 384 487 385
f 385 487 447
f 385 447 386
f 386 391 387
f 386 447 488
f 386 488 407
f 386 407 489
f 386 489 490
f 386 490 405
f 387 391 388
f 388 391 390
f 394 404 399
f 394 399 395
f 399 404 400
f 405 490 406
f 406 490 407
f 407 488 491
f 407 491 492
f 407 492 409
f 407 490 489
f 409 492 410
f 410 493 494
f 410 494 495
f 410 495 496
f 410 496 412
f 410 412 411
f 410 492 493
f 412 496 413
f 413 496 497
f 417 466 498
f 417 498 499
f 417 499 500
f 417 500 501
f 417 501 502
f 417 502 418
f 418 502 503
f 418 503 504
f 418 504 419
f 419 504 505
f 419 505 506
f 419 506 420
f 420 507 421
f 420 506 507
f 422 424 423
f 428 508 429
f 429 508 509
f 429 509 430
f 430 510 437
f 430 436 432
f 430 509 511
f 430 511 512
f 430 512 496
f 430 496 510
f 431 432 436
f 431 436 433
f 433 436 435
f 437 510 513
f 437 513 441
f 437 441 439
f 437 439 438
f 440 441 513
f 440 513 514
f 440 514 442
f 442 514 443
f 443 514 515
f 443 515 444
f 444 516 494
f 444 494 445
f 444 515 510
f 444 510 517
f 444 517 516
f 445 494 518
f 445 518 519
f 445 519 520
f 445 520 446
f 446 520 519
f 446 519 521
f 446 521 522
f 446 522 447
f 447 522 488
f 447 487 523
f 447 523 448
f 448 486 524
f 448 524 525
f 448 525 449
f 448 523 486
f 449 482 450
f 449 525 482
f 450 526 464
f 450 464 527
f 450 527 451
f 450 482 476
f 450 476 526
f 451 528 452
f 451 527 453
f 451 453 528
f 452 528 453
f 453 527 529
f 453 529 454
f 454 529 455
f 455 529 456
f 456 529 530
f 456 530 464
f 462 531 532
f 462 532 498
f 462 498 463
f 462 474 533
f 462 533 531
f 463 498 465
f 464 530 527
f 464 526 476
f 464 476 475
f 465 498 466
f 467 534 468
f 468 534 535
f 468 535 469
f 469 535 536
f 469 536 479
f 471 480 537
f 472 538 473
f 473 538 539
f 473 539 531
f 473 531 474
f 474 531 533
f 476 482 477
f 477 482 478
f 479 536 480
f 480 536 537
f 482 525 524
f 482 524 484
f 482 484 483
f 484 524 485
f 485 524 486
f 486 523 487
f 488 522 540
f 488 540 491
f 491 540 521
f 491 521 492
f 492 521 493
f 493 521 519
f 493 519 518
f 493 518 494
f 494 516 541
f 494 541 495
f 495 541 496
f 496 541 516
f 496 516 542
f 496 542 510
f 496 512 543
f 496 543 544
f 496 544 545
f 496 545 497
f 498 532 546
f 498 546 499
f 499 546 547
f 499 547 548
f 499 548 500
f 500 548 501
f 501 549 503
f 501 503 502
f 503 549 550
f 503 550 504
f 504 550 551
f 504 551 505
f 505 551 506
f 510 515 513
f 510 542 517
f 512 552 543
f 513 515 514
f 516 517 542
f 521 540 522
f 527 530 553
f 527 553 529
f 529 553 530
f 531 539 554
f 531 554 555
f 531 555 532
f 532 555 546
f 534 556 536
f 534 536 535
f 536 556 557
f 536 557 537
f 538 554 539
f 543 552 558
f 543 558 544
f 546 555 559
f 546 559 560
f 546 560 547
f 547 560 548
f 554 561 559
f 554 559 555
f 559 561 560
