v 0.159021 0.643467 0.143451
v 0.159021 0.643592 0.145724
v 0.159021 0.643488 0.140831
v 0.160474 0.643404 0.140831
v 0.20997 0.642466 0.204269
v 0.159021 0.64751 0.152189
v 0.159021 0.824228 0.140831
v 0.164633 0.643675 0.140831
v 0.247893 0.642466 0.154829
v 0.159021 0.652887 0.156456
v 0.247893 0.642466 0.204269
v 0.159021 0.750156 0.204269
v 0.159021 0.826896 0.143538
v 0.16646 0.833815 0.140831
v 0.247893 0.720331 0.140831
v 0.247893 0.747259 0.204269
v 0.159021 0.854219 0.204269
v 0.159021 0.841256 0.160089
v 0.168487 0.835628 0.140831
v 0.247893 0.841172 0.140831
v 0.247893 0.748593 0.203902
v 0.247537 0.748947 0.204269
v 0.170323 0.853156 0.204269
v 0.178057 0.854157 0.195009
v 0.159021 0.855366 0.197083
v 0.159021 0.841777 0.160828
v 0.176091 0.842194 0.140831
v 0.247737 0.841339 0.140831
v 0.247893 0.839317 0.144749
v 0.247893 0.754595 0.202226
v 0.246327 0.754595 0.204269
v 0.178057 0.851302 0.204269
v 0.195014 0.854157 0.178055
v 0.161101 0.855366 0.195009
v 0.182712 0.850093 0.204269
v 0.194187 0.850197 0.194177
v 0.195014 0.855366 0.161101
v 0.211971 0.855136 0.140831
v 0.159021 0.855116 0.195009
v 0.159021 0.85028 0.175739
v 0.1846 0.848759 0.140831
v 0.246693 0.84013 0.145383
v 0.24149 0.847029 0.140831
v 0.247893 0.83838 0.146439
v 0.247893 0.768643 0.197686
v 0.244753 0.760952 0.204269
v 0.22958 0.851635 0.144613
v 0.22944 0.852344 0.140831
v 0.215277 0.855241 0.140831
v 0.211971 0.855324 0.144141
v 0.20836 0.850051 0.178055
v 0.188176 0.848634 0.204269
v 0.204602 0.848592 0.187973
v 0.198329 0.853407 0.140831
v 0.159021 0.851718 0.17908
v 0.159021 0.851322 0.177962
v 0.186157 0.849363 0.140831
v 0.241629 0.834836 0.161101
v 0.23567 0.846737 0.150575
v 0.239141 0.84903 0.140831
v 0.247893 0.82675 0.161766
v 0.247893 0.772478 0.196444
v 0.242325 0.770727 0.204269
v 0.22436 0.849801 0.157965
v 0.23674 0.850051 0.140831
v 0.199286 0.845403 0.199282
v 0.19718 0.842819 0.204269
v 0.220166 0.847717 0.169268
v 0.211344 0.839172 0.194196
v 0.216834 0.845028 0.178055
v 0.195214 0.852427 0.140831
v 0.228414 0.835858 0.176875
v 0.222428 0.832919 0.189109
v 0.238062 0.831627 0.170441
v 0.247893 0.822915 0.165852
v 0.247893 0.776667 0.194599
v 0.238741 0.782919 0.204269
v 0.242056 0.77179 0.204269
v 0.20769 0.835107 0.204269
v 0.218087 0.827584 0.200412
v 0.23373 0.825729 0.181744
v 0.240785 0.821018 0.176875
v 0.237723 0.814411 0.186948
v 0.247893 0.807971 0.177577
v 0.247893 0.788422 0.189327
v 0.243074 0.788338 0.195667
v 0.23607 0.793861 0.201754
v 0.234539 0.792903 0.204269
v 0.215973 0.825666 0.204269
v 0.222724 0.816808 0.204269
v 0.247893 0.805929 0.179123
v 0.228753 0.80547 0.204269
v 0.233382 0.80547 0.198263
v 0.247893 0.802761 0.180974
f 1 2 6
f 1 6 10
f 1 10 12
f 1 12 17
f 1 17 25
f 1 25 39
f 1 39 55
f 1 55 56
f 1 56 40
f 1 40 26
f 1 26 18
f 1 18 13
f 1 13 7
f 1 7 3
f 1 3 4
f 1 4 5
f 1 5 2
f 2 5 6
f 3 7 14
f 3 14 19
f 3 19 27
f 3 27 41
f 3 41 57
f 3 57 71
f 3 71 54
f 3 54 38
f 3 38 49
f 3 49 48
f 3 48 65
f 3 65 60
f 3 60 43
f 3 43 28
f 3 28 20
f 3 20 15
f 3 15 8
f 3 8 4
f 4 8 9
f 4 9 5
f 5 10 6
f 5 9 11
f 5 11 16
f 5 16 22
f 5 22 31
f 5 31 46
f 5 46 63
f 5 63 78
f 5 78 77
f 5 77 88
f 5 88 92
f 5 92 90
f 5 90 89
f 5 89 79
f 5 79 67
f 5 67 52
f 5 52 35
f 5 35 32
f 5 32 23
f 5 23 17
f 5 17 12
f 5 12 10
f 7 13 14
f 8 15 9
f 9 15 20
f 9 20 29
f 9 29 44
f 9 44 61
f 9 61 75
f 9 75 84
f 9 84 91
f 9 91 94
f 9 94 85
f 9 85 76
f 9 76 62
f 9 62 45
f 9 45 30
f 9 30 21
f 9 21 16
f 9 16 11
f 13 18 14
f 14 18 19
f 16 21 22
f 17 23 24
f 17 24 25
f 18 26 27
f 18 27 19
f 20 28 29
f 21 30 31
f 21 31 22
f 23 32 24
f 24 33 37
f 24 37 34
f 24 34 25
f 24 32 35
f 24 35 36
f 24 36 33
f 25 34 37
f 25 37 38
f 25 38 39
f 26 40 41
f 26 41 27
f 28 42 29
f 28 43 42
f 29 42 44
f 30 45 31
f 31 45 46
f 33 47 48
f 33 48 49
f 33 49 50
f 33 50 37
f 33 36 51
f 33 51 47
f 35 52 36
f 36 52 53
f 36 53 51
f 37 50 38
f 38 50 49
f 38 54 39
f 39 54 55
f 40 56 41
f 41 56 55
f 41 55 57
f 42 58 44
f 42 43 59
f 42 59 58
f 43 60 59
f 44 58 61
f 45 62 63
f 45 63 46
f 47 51 64
f 47 64 65
f 47 65 48
f 51 53 64
f 52 66 53
f 52 67 66
f 53 68 60
f 53 60 65
f 53 65 64
f 53 66 69
f 53 69 70
f 53 70 68
f 54 71 55
f 55 71 57
f 58 72 73
f 58 73 74
f 58 74 61
f 58 59 70
f 58 70 72
f 59 60 68
f 59 68 70
f 61 74 75
f 62 76 77
f 62 77 78
f 62 78 63
f 66 67 79
f 66 79 69
f 69 79 73
f 69 73 72
f 69 72 70
f 73 80 74
f 73 79 80
f 74 80 81
f 74 81 75
f 75 82 83
f 75 83 84
f 75 81 82
f 76 85 77
f 77 85 86
f 77 86 87
f 77 87 88
f 79 89 80
f 80 89 90
f 80 90 83
f 80 83 81
f 81 83 82
f 83 91 84
f 83 90 92
f 83 92 93
f 83 93 91
f 85 94 87
f 85 87 86
f 87 94 91
f 87 91 93
f 87 93 92
f 87 92 88
