v 0.123769 -0.121826 0.305827
v 0.246384 -0.121826 0.220563
v 0.123769 -0.121826 0.354105
v 0.123769 0.6189 0.263656
v 0.3028 -0.121826 0.220563
v 0.190464 0.6189 0.220563
v 0.164721 -0.121826 0.337132
v 0.123769 -0.117187 0.354435
v 0.123769 0.635883 0.263944
v 0.289076 -0.121826 0.238457
v 0.303771 -0.110155 0.220563
v 0.190922 0.635883 0.220563
v 0.178059 -0.121826 0.331562
v 0.178059 -0.110155 0.332401
v 0.165728 -0.110155 0.337545
v 0.123769 -0.110155 0.35493
v 0.123769 0.642466 0.264302
v 0.191453 0.642466 0.220563
v 0.191307 0.640671 0.220563
v 0.284624 -0.121826 0.244262
v 0.306501 -0.0762645 0.220563
v 0.305457 -0.0875613 0.220742
v 0.284422 -0.0762645 0.249351
v 0.289553 -0.110155 0.23909
v 0.190922 -0.121826 0.325097
v 0.178059 -0.0932471 0.33357
v 0.167139 -0.0932471 0.338136
v 0.123769 -0.103422 0.355398
v 0.123769 0.642466 0.311191
v 0.252852 0.642466 0.220563
v 0.282572 -0.121826 0.24693
v 0.283048 -0.110155 0.247563
v 0.306593 -0.0749179 0.220563
v 0.275939 -0.0762645 0.260327
v 0.275261 -0.0932471 0.259447
v 0.307655 -0.0592819 0.220563
v 0.291495 -0.0592819 0.241621
v 0.28499 -0.0592819 0.250094
v 0.276507 -0.0592819 0.261083
v 0.191563 -0.110155 0.325523
v 0.178059 -0.0762645 0.334739
v 0.193597 -0.121826 0.323199
v 0.200926 -0.0932471 0.320214
v 0.201806 -0.0762645 0.320888
v 0.123769 -0.0762645 0.357269
v 0.123769 -0.0889079 0.356402
v 0.16855 -0.0762645 0.338714
v 0.145005 0.642466 0.302402
v 0.123769 0.640821 0.311411
v 0.250342 0.642466 0.223823
v 0.254648 0.629299 0.220838
v 0.254813 0.629524 0.220563
v 0.276763 -0.121826 0.254468
v 0.274565 -0.110155 0.258566
v 0.268793 -0.0762645 0.268813
v 0.269544 -0.0592819 0.269556
v 0.30848 -0.0423741 0.220563
v 0.306904 -0.0423741 0.222626
v 0.3004 -0.0423741 0.231112
v 0.285412 -0.0423741 0.250644
v 0.276928 -0.0423741 0.26162
v 0.270094 -0.0423741 0.270106
v 0.19334 -0.0762645 0.326692
v 0.17663 -0.0598804 0.336307
v 0.169356 -0.0658655 0.339058
v 0.179085 -0.0423741 0.336032
v 0.199405 -0.121826 0.319045
v 0.200028 -0.110155 0.319526
v 0.248437 -0.0932471 0.283751
v 0.249334 -0.0762645 0.284425
v 0.211975 -0.0762645 0.313089
v 0.211077 -0.110155 0.311054
v 0.247557 -0.110155 0.283063
v 0.211975 -0.0592819 0.314245
v 0.202557 -0.0592819 0.321466
v 0.123769 -0.0594315 0.358259
v 0.127196 0.635883 0.310641
v 0.146435 0.635883 0.302663
v 0.161111 0.642466 0.295415
v 0.123769 0.635584 0.312099
v 0.246623 0.642466 0.228623
v 0.24862 0.635284 0.227467
v 0.248895 0.6189 0.230328
v 0.255418 0.6189 0.221856
v 0.256041 0.621369 0.220563
v 0.274088 -0.121826 0.257934
v 0.26031 -0.0762645 0.275952
v 0.258551 -0.110155 0.27459
v 0.257928 -0.121826 0.274109
v 0.260603 -0.121826 0.271716
v 0.267914 -0.0932471 0.267933
v 0.261061 -0.0592819 0.27653
v 0.309194 -0.0254663 0.220563
v 0.307619 -0.00840888 0.223561
v 0.301114 -0.00840888 0.232048
v 0.277295 -0.0253915 0.262088
v 0.286126 -0.00840888 0.251565
v 0.271267 0.00124202 0.271289
v 0.27101 -0.00840888 0.271028
v 0.270552 -0.0253915 0.270574
v 0.261611 -0.0423741 0.276942
v 0.194092 -0.0592819 0.327201
v 0.170016 -0.0545687 0.339319
v 0.179818 -0.0253915 0.336348
v 0.170602 -0.0423741 0.339567
v 0.241126 -0.121826 0.287038
v 0.250086 -0.0592819 0.285003
v 0.203106 -0.0423741 0.321892
v 0.123769 -0.0434215 0.358933
v 0.127196 0.6189 0.312842
v 0.149091 0.6189 0.303764
v 0.161111 0.6189 0.298551
v 0.161111 0.635883 0.296295
v 0.164922 0.642466 0.293558
v 0.123769 0.6189 0.314258
v 0.238634 0.642466 0.238636
v 0.250159 0.601992 0.231965
v 0.256407 0.6189 0.220563
v 0.256682 0.601992 0.223479
v 0.258881 0.602217 0.220563
v 0.266411 -0.121826 0.26642
v 0.267034 -0.110155 0.267053
v 0.309909 -0.00840888 0.220563
v 0.310074 -0.00369565 0.220563
v 0.307912 0.00849891 0.223946
v 0.292924 0.00849891 0.243478
v 0.286419 0.00849891 0.25195
v 0.277643 -0.00840888 0.262555
v 0.251551 -0.00840888 0.286144
v 0.262545 -0.00840888 0.277658
v 0.27669 0.00752634 0.264522
v 0.271432 0.0125388 0.271454
v 0.264506 0.00752634 0.276695
v 0.251936 0.00849891 0.286433
v 0.251093 -0.0253915 0.285787
v 0.250617 -0.0423741 0.285429
v 0.194623 -0.0423741 0.327559
v 0.18057 -0.00840888 0.336651
v 0.161111 -0.0423741 0.3435
v 0.124704 -0.0423741 0.358589
v 0.172086 -0.00840888 0.340186
v 0.161111 -0.00840888 0.344738
v 0.2034 -0.0319003 0.322112
v 0.123769 -0.0423741 0.358974
v 0.127196 0.601992 0.314987
v 0.151144 0.605509 0.304616
v 0.159554 0.600721 0.30159
v 0.162723 0.58501 0.302251
v 0.165234 0.568027 0.303337
v 0.167689 0.551119 0.30441
v 0.171995 0.642466 0.289954
v 0.169136 0.54102 0.305029
v 0.123769 0.601992 0.316404
v 0.253585 0.554037 0.236422
v 0.252614 0.568027 0.235142
v 0.251405 0.58501 0.233574
v 0.233009 0.642466 0.243175
v 0.231946 0.601992 0.250176
v 0.233559 0.58501 0.251414
v 0.235134 0.568027 0.252638
v 0.236399 0.554037 0.253615
v 0.237425 0.54274 0.254399
v 0.25441 0.441368 0.25444
v 0.254978 0.534137 0.23821
v 0.257909 0.58501 0.225088
v 0.261372 0.58501 0.220563
v 0.310495 0.00849891 0.220563
v 0.310752 0.0254815 0.220563
v 0.30804 0.0254815 0.224111
v 0.301536 0.0254815 0.232598
v 0.286548 0.0254815 0.252116
v 0.212524 -0.00840888 0.316088
v 0.203711 -0.0206034 0.322346
v 0.278266 0.0254815 0.262844
v 0.271505 0.0254815 0.271523
v 0.262838 0.0254815 0.278277
v 0.252101 0.0254815 0.286557
v 0.213074 0.0254815 0.316514
v 0.212891 0.00849891 0.31639
v 0.204041 -0.00840888 0.322594
v 0.195026 -0.00840888 0.328591
v 0.181174 0.00849891 0.336898
v 0.123769 -0.0253915 0.359593
v 0.172691 0.00849891 0.340433
v 0.161111 0.00849891 0.345233
v 0.123769 0.00849891 0.360707
v 0.123769 -0.00840888 0.360198
v 0.15424 0.58501 0.305896
v 0.123769 0.596381 0.317106
v 0.123769 0.581194 0.319004
v 0.15675 0.568027 0.306941
v 0.172654 0.635883 0.290394
v 0.186744 0.577529 0.288441
v 0.184436 0.601992 0.286667
v 0.182805 0.6189 0.285415
v 0.181119 0.635883 0.284136
v 0.180478 0.642466 0.283627
v 0.170437 0.529723 0.305717
v 0.16254 0.534885 0.308509
v 0.161111 0.517154 0.31115
v 0.161111 0.500246 0.313075
v 0.159205 0.551119 0.307959
v 0.259137 0.549473 0.23004
v 0.263809 0.568027 0.220563
v 0.262637 0.576257 0.220563
v 0.228612 0.642466 0.246641
v 0.230316 0.6189 0.248924
v 0.203271 0.609249 0.271152
v 0.223463 0.601992 0.256696
v 0.214045 0.58501 0.266406
v 0.215621 0.568027 0.267617
v 0.189163 0.551119 0.290298
v 0.21716 0.551119 0.2688
v 0.228923 0.534137 0.262115
v 0.238194 0.534137 0.25499
v 0.268958 0.449373 0.234345
v 0.259284 0.447952 0.247081
v 0.259412 0.466281 0.243945
v 0.258331 0.483264 0.242542
v 0.257231 0.500246 0.241126
v 0.256114 0.517154 0.239681
v 0.23966 0.517154 0.256132
v 0.241108 0.500246 0.257246
v 0.242537 0.483264 0.25836
v 0.243929 0.466281 0.259433
v 0.247062 0.447952 0.259309
v 0.235666 0.432391 0.27001
v 0.245871 0.432391 0.262129
v 0.244277 0.414361 0.265526
v 0.246769 0.3985 0.265485
v 0.248034 0.381518 0.266461
v 0.249279 0.364535 0.267424
v 0.250489 0.347627 0.26836
v 0.254959 0.432391 0.254976
v 0.269251 0.330645 0.251675
v 0.268335 0.347627 0.250506
v 0.267401 0.364535 0.249282
v 0.266448 0.381518 0.248044
v 0.265477 0.3985 0.246779
v 0.265513 0.414361 0.244303
v 0.262124 0.432391 0.245898
v 0.265623 0.516556 0.227426
v 0.268518 0.534137 0.220563
v 0.310789 0.0309429 0.220563
v 0.310917 0.0593719 0.220563
v 0.301609 0.0593719 0.232694
v 0.286621 0.0593719 0.252226
v 0.278412 0.0593719 0.262844
v 0.27156 0.0424641 0.271564
v 0.262838 0.0424641 0.278359
v 0.252211 0.0593719 0.286639
v 0.204591 0.0254815 0.32302
v 0.204646 0.0424641 0.323061
v 0.204407 0.00849891 0.322896
v 0.195026 0.00849891 0.329127
v 0.181449 0.0254815 0.337022
v 0.172966 0.0254815 0.340543
v 0.123769 0.0221149 0.360886
v 0.123769 0.566905 0.32075
v 0.126243 0.568925 0.319485
v 0.174322 0.6189 0.291536
v 0.181907 0.500246 0.302196
v 0.211975 0.6189 0.263023
v 0.220824 0.629299 0.25466
v 0.20001 0.642466 0.268648
v 0.184747 0.642466 0.280354
v 0.161111 0.483264 0.31496
v 0.161111 0.466281 0.316803
v 0.1632 0.432391 0.31954
v 0.165289 0.415408 0.320407
v 0.167359 0.3985 0.321259
v 0.181651 0.347627 0.319774
v 0.17172 0.517154 0.306432
v 0.186213 0.456032 0.305015
v 0.183593 0.483264 0.303296
v 0.130256 0.551119 0.319953
v 0.123769 0.537279 0.324285
v 0.123769 0.534137 0.324657
v 0.134488 0.521344 0.3217
v 0.136046 0.510047 0.322346
v 0.145867 0.500246 0.319389
v 0.123769 0.483413 0.33042
v 0.127196 0.483264 0.329017
v 0.148139 0.483264 0.320338
v 0.266851 0.546182 0.220563
v 0.266228 0.550671 0.220563
v 0.219524 0.642466 0.253656
v 0.227457 0.635284 0.248636
v 0.190684 0.534137 0.291453
v 0.199167 0.534137 0.284961
v 0.213276 0.516556 0.276502
v 0.227402 0.516556 0.26565
v 0.269984 0.432391 0.235693
v 0.281582 0.432391 0.220563
v 0.275463 0.449373 0.225858
v 0.267895 0.466281 0.232955
v 0.266814 0.483264 0.231553
v 0.265715 0.500246 0.230122
v 0.230096 0.500246 0.265732
v 0.231543 0.483264 0.266833
v 0.232936 0.466281 0.267906
v 0.234328 0.449373 0.268965
v 0.227201 0.432391 0.276516
v 0.237571 0.408002 0.271454
v 0.238286 0.3985 0.272005
v 0.23955 0.381518 0.272981
v 0.229748 0.364535 0.282417
v 0.202758 0.350695 0.304658
v 0.23213 0.330645 0.284246
v 0.251661 0.330645 0.269254
v 0.255986 0.415408 0.255994
v 0.275756 0.330645 0.243203
v 0.256993 0.3985 0.257012
v 0.270131 0.313662 0.252831
v 0.285119 0.313662 0.233313
v 0.283323 0.347627 0.230975
v 0.273923 0.364535 0.240809
v 0.272971 0.381518 0.239558
v 0.272 0.3985 0.238306
v 0.270772 0.419298 0.236697
v 0.270882 0.516556 0.220563
v 0.270259 0.521194 0.220563
v 0.273044 0.500246 0.220563
v 0.310935 0.0763545 0.220563
v 0.293144 0.0763545 0.243753
v 0.286621 0.0763545 0.252239
v 0.278431 0.0763545 0.262844
v 0.271596 0.0593719 0.271606
v 0.262838 0.0593719 0.278428
v 0.262838 0.0763545 0.278455
v 0.252211 0.0763545 0.286639
v 0.213184 0.0763545 0.316597
v 0.213166 0.0593719 0.316597
v 0.195026 0.0254815 0.329375
v 0.204682 0.0593719 0.323103
v 0.195026 0.0593719 0.329512
v 0.181596 0.0593719 0.337077
v 0.173112 0.0593719 0.340612
v 0.123769 0.0390227 0.360982
v 0.123769 0.0254815 0.360927
v 0.161111 0.0593719 0.345591
v 0.123769 0.558975 0.3217
v 0.21192 0.642466 0.259502
v 0.150374 0.466281 0.321259
v 0.153324 0.443538 0.322484
v 0.159828 0.449224 0.319169
v 0.154716 0.432391 0.323061
v 0.156824 0.415408 0.323928
v 0.158876 0.3985 0.324781
v 0.16877 0.38653 0.321851
v 0.183483 0.330645 0.320682
v 0.173424 0.500246 0.307395
v 0.187184 0.444735 0.305717
v 0.196455 0.483339 0.293737
v 0.193634 0.500246 0.293709
v 0.192168 0.517154 0.292595
v 0.175109 0.483264 0.308344
v 0.185297 0.313662 0.321576
v 0.186305 0.304086 0.322071
v 0.123769 0.516481 0.326692
v 0.128185 0.516256 0.324891
v 0.127196 0.500246 0.327119
v 0.123769 0.461493 0.332799
v 0.123769 0.500246 0.328536
v 0.200651 0.517154 0.286103
v 0.202117 0.500246 0.287217
v 0.211975 0.500246 0.279652
v 0.221631 0.500246 0.272238
v 0.276342 0.414361 0.230205
v 0.283634 0.415184 0.220563
v 0.280483 0.441443 0.220563
v 0.279512 0.449373 0.220563
v 0.278614 0.456555 0.220563
v 0.2744 0.466281 0.224469
v 0.273319 0.483264 0.22308
v 0.20307 0.489099 0.287946
v 0.204004 0.477802 0.288675
v 0.204957 0.466281 0.289404
v 0.214815 0.449373 0.283957
v 0.21617 0.432391 0.284989
v 0.228923 0.3985 0.279198
v 0.209006 0.415408 0.292499
v 0.219743 0.385258 0.287753
v 0.213257 0.380396 0.293283
v 0.200505 0.381518 0.302938
v 0.211975 0.364535 0.296047
v 0.196272 0.346056 0.310104
v 0.195026 0.330645 0.31269
v 0.203528 0.339398 0.305263
v 0.201751 0.364535 0.303887
v 0.193267 0.364535 0.310366
v 0.213789 0.313662 0.300105
v 0.252816 0.313662 0.270148
v 0.290744 0.330645 0.223671
v 0.253714 0.300271 0.270835
v 0.257964 0.381518 0.257989
v 0.271395 0.288974 0.254468
v 0.270827 0.300271 0.253725
v 0.294903 0.313662 0.220563
v 0.292741 0.334236 0.220563
v 0.289827 0.347627 0.222488
v 0.288911 0.364535 0.221278
v 0.28838 0.373962 0.22059
v 0.279182 0.3985 0.228939
v 0.275243 0.483264 0.220563
v 0.310624 0.0933371 0.220563
v 0.307967 0.0933371 0.224029
v 0.292979 0.0933371 0.24356
v 0.286474 0.0933371 0.252033
v 0.271505 0.0902698 0.271509
v 0.271596 0.0763545 0.271619
v 0.252028 0.0933371 0.286502
v 0.204701 0.0763545 0.323103
v 0.195026 0.0763545 0.329526
v 0.181614 0.0763545 0.337091
v 0.161111 0.0763545 0.345605
v 0.123769 0.0424641 0.360996
v 0.135716 0.0634118 0.356127
v 0.123769 0.449373 0.334106
v 0.123769 0.443463 0.334725
v 0.127196 0.432391 0.334464
v 0.123769 0.41466 0.337696
v 0.123769 0.3985 0.339333
v 0.123769 0.42865 0.336266
v 0.16232 0.381144 0.325056
v 0.170089 0.375233 0.322401
v 0.206331 0.449373 0.290463
v 0.195026 0.466281 0.296996
v 0.188155 0.432391 0.30646
v 0.196639 0.432391 0.299967
v 0.171298 0.364535 0.322924
v 0.179617 0.297727 0.325468
v 0.178059 0.279772 0.327683
v 0.178059 0.262789 0.329113
v 0.178059 0.245956 0.330489
v 0.187129 0.292789 0.32258
v 0.193689 0.297727 0.317133
v 0.195026 0.313662 0.314478
v 0.192021 0.381518 0.309417
v 0.190775 0.3985 0.308454
v 0.189474 0.415408 0.307464
v 0.173167 0.347627 0.323721
v 0.175 0.330645 0.324492
v 0.176813 0.313662 0.325262
v 0.284147 0.410845 0.220563
v 0.277386 0.466281 0.220563
v 0.210289 0.3985 0.293489
v 0.197958 0.415408 0.300972
v 0.205305 0.313662 0.306611
v 0.23442 0.296754 0.286007
v 0.255033 0.279772 0.271867
v 0.254446 0.288974 0.271399
v 0.266613 0.228974 0.266627
v 0.271853 0.279772 0.255059
v 0.278889 0.279772 0.245898
v 0.293345 0.279772 0.227055
v 0.296625 0.296754 0.220563
v 0.29133 0.347328 0.220563
v 0.289296 0.365957 0.220563
v 0.290963 0.350695 0.220563
v 0.287665 0.380396 0.220563
v 0.287171 0.384735 0.220563
v 0.286035 0.394685 0.220563
v 0.285595 0.3985 0.220563
v 0.310459 0.0984244 0.220563
v 0.301187 0.110245 0.232144
v 0.2862 0.110245 0.251675
v 0.276782 0.0949082 0.264536
v 0.271303 0.101567 0.271317
v 0.264524 0.0949082 0.276791
v 0.204499 0.0933371 0.322951
v 0.262637 0.110245 0.27774
v 0.261904 0.14421 0.277176
v 0.251295 0.127228 0.285938
v 0.203565 0.137028 0.322236
v 0.195026 0.0933371 0.329251
v 0.181303 0.0933371 0.336967
v 0.135679 0.0850329 0.356113
v 0.135716 0.0763545 0.356127
v 0.123769 0.0540602 0.361037
v 0.123769 0.0729131 0.361065
v 0.123769 0.0586986 0.361051
v 0.123769 0.432391 0.33588
v 0.123769 0.382266 0.340915
v 0.123769 0.364535 0.342634
v 0.161111 0.364535 0.32716
v 0.161111 0.347627 0.328756
v 0.161111 0.279772 0.33478
v 0.161111 0.296754 0.333322
v 0.160012 0.264211 0.336541
v 0.163438 0.245956 0.336596
v 0.178059 0.228974 0.331823
v 0.18799 0.279772 0.323144
v 0.198599 0.245956 0.318426
v 0.197555 0.262789 0.317628
v 0.196474 0.279772 0.316803
v 0.207541 0.279772 0.30833
v 0.206423 0.296754 0.307477
v 0.161111 0.330645 0.33031
v 0.161111 0.313662 0.331837
v 0.245871 0.262789 0.28056
v 0.256095 0.262789 0.272692
v 0.257122 0.245956 0.27349
v 0.258129 0.228974 0.27426
v 0.267474 0.211991 0.267493
v 0.274235 0.228974 0.25814
v 0.273465 0.245956 0.25715
v 0.272677 0.262789 0.256118
v 0.280538 0.262789 0.245898
v 0.29417 0.262789 0.228141
v 0.298311 0.279772 0.220563
v 0.297413 0.288824 0.220563
v 0.298934 0.273413 0.220563
v 0.309396 0.130594 0.220563
v 0.292429 0.127228 0.242831
v 0.285925 0.127228 0.251304
v 0.277441 0.127228 0.262294
v 0.277148 0.14421 0.261922
v 0.27112 0.110245 0.271138
v 0.270387 0.14421 0.270395
v 0.261336 0.161118 0.276736
v 0.25036 0.161118 0.285223
v 0.250928 0.14421 0.285649
v 0.203308 0.148325 0.322043
v 0.196602 0.143238 0.326665
v 0.195026 0.127228 0.328205
v 0.172819 0.0933371 0.340488
v 0.180148 0.127228 0.336472
v 0.171665 0.127228 0.340007
v 0.161111 0.0933371 0.345344
v 0.123769 0.110245 0.360336
v 0.123769 0.0921401 0.360845
v 0.123769 0.0876513 0.360914
v 0.123769 0.0763545 0.361065
v 0.123769 0.362665 0.342813
v 0.135166 0.353762 0.338934
v 0.123769 0.347852 0.344202
v 0.123769 0.343363 0.344615
v 0.141359 0.296754 0.341506
v 0.143118 0.279772 0.342235
v 0.123769 0.309772 0.347654
v 0.153635 0.259497 0.339567
v 0.154955 0.245956 0.340117
v 0.123769 0.27461 0.35068
v 0.123769 0.256879 0.352152
v 0.165032 0.228974 0.337256
v 0.191123 0.228974 0.325234
v 0.190116 0.245956 0.32456
v 0.189071 0.262789 0.323873
v 0.166443 0.211991 0.337847
v 0.178059 0.211991 0.332992
v 0.209648 0.245956 0.309953
v 0.199607 0.228974 0.319196
v 0.208603 0.262789 0.309155
v 0.217087 0.262789 0.30265
v 0.123769 0.327577 0.346059
v 0.123769 0.313812 0.347297
v 0.237205 0.252914 0.288152
v 0.244479 0.246704 0.283146
v 0.237901 0.241617 0.288675
v 0.247117 0.228974 0.282733
v 0.247997 0.211991 0.283407
v 0.25899 0.211991 0.274934
v 0.269819 0.161118 0.269831
v 0.26905 0.178101 0.269061
v 0.268262 0.195083 0.268277
v 0.274913 0.211991 0.25902
v 0.282718 0.228974 0.247136
v 0.288655 0.241617 0.237921
v 0.288123 0.252914 0.237233
v 0.293858 0.246704 0.230521
v 0.301554 0.246106 0.220563
v 0.300363 0.258674 0.220563
v 0.308938 0.143986 0.220563
v 0.307124 0.14421 0.222928
v 0.300619 0.14421 0.231415
v 0.285632 0.14421 0.250933
v 0.276727 0.161118 0.261359
v 0.260566 0.178101 0.276145
v 0.211975 0.178101 0.313474
v 0.202062 0.178101 0.321081
v 0.202832 0.161118 0.321672
v 0.248785 0.195083 0.284012
v 0.24032 0.195083 0.290518
v 0.194348 0.161118 0.32738
v 0.179562 0.14421 0.336224
v 0.171079 0.14421 0.339759
v 0.161111 0.14421 0.343899
v 0.123769 0.127228 0.359855
v 0.127196 0.296754 0.347365
v 0.127196 0.279772 0.348823
v 0.123769 0.296754 0.348782
v 0.127196 0.245956 0.351616
v 0.123769 0.231742 0.354146
v 0.156549 0.228974 0.340777
v 0.123769 0.279772 0.35024
v 0.123769 0.245956 0.353032
v 0.178059 0.195083 0.334037
v 0.192003 0.211991 0.325812
v 0.200486 0.211991 0.31987
v 0.123769 0.228151 0.354421
v 0.123769 0.211991 0.355522
v 0.123769 0.199722 0.356278
v 0.123769 0.178101 0.357599
v 0.169576 0.169497 0.33914
v 0.210655 0.228974 0.310723
v 0.238652 0.228974 0.289239
v 0.239532 0.211991 0.289913
v 0.259778 0.195083 0.275539
v 0.275517 0.195083 0.259804
v 0.284606 0.178101 0.249598
v 0.283396 0.211991 0.248017
v 0.289223 0.228974 0.238664
v 0.303111 0.228974 0.220563
v 0.308755 0.147801 0.220563
v 0.291715 0.161118 0.241896
v 0.285192 0.161118 0.250369
v 0.21366 0.196505 0.310875
v 0.201274 0.195083 0.320475
v 0.192791 0.195083 0.326335
v 0.193579 0.178101 0.326857
v 0.178059 0.178101 0.335069
v 0.17685 0.162764 0.336513
v 0.170382 0.1582 0.339484
v 0.12518 0.14421 0.358782
v 0.123769 0.142564 0.359414
v 0.211535 0.211991 0.311397
v 0.123769 0.161118 0.358617
v 0.299593 0.178101 0.230067
v 0.305109 0.203013 0.220563
v 0.289901 0.211991 0.239544
v 0.303313 0.226505 0.220563
v 0.308058 0.161118 0.220563
v 0.306684 0.161118 0.222365
v 0.306098 0.178101 0.221581
v 0.123769 0.160519 0.358644
v 0.123769 0.14421 0.359359
v 0.306867 0.178101 0.220563
v 0.304467 0.211991 0.220563
v 0.307857 0.164036 0.220563
f 1 2 5
f 1 5 10
f 1 10 20
f 1 20 31
f 1 31 53
f 1 53 86
f 1 86 121
f 1 121 90
f 1 90 89
f 1 89 106
f 1 106 67
f 1 67 42
f 1 42 25
f 1 25 13
f 1 13 7
f 1 7 3
f 1 3 8
f 1 8 16
f 1 16 28
f 1 28 46
f 1 46 45
f 1 45 76
f 1 76 109
f 1 109 144
f 1 144 183
f 1 183 187
f 1 187 186
f 1 186 258
f 1 258 340
f 1 340 339
f 1 339 417
f 1 417 480
f 1 480 482
f 1 482 481
f 1 481 534
f 1 534 533
f 1 533 532
f 1 532 531
f 1 531 589
f 1 589 626
f 1 626 637
f 1 637 636
f 1 636 628
f 1 628 604
f 1 604 603
f 1 603 602
f 1 602 601
f 1 601 594
f 1 594 597
f 1 597 545
f 1 545 544
f 1 544 596
f 1 596 592
f 1 592 541
f 1 541 557
f 1 557 556
f 1 556 538
f 1 538 537
f 1 537 535
f 1 535 485
f 1 485 484
f 1 484 423
f 1 423 422
f 1 422 424
f 1 424 483
f 1 483 420
f 1 420 419
f 1 419 363
f 1 363 282
f 1 282 364
f 1 364 360
f 1 360 278
f 1 278 277
f 1 277 342
f 1 342 259
f 1 259 190
f 1 190 189
f 1 189 153
f 1 153 115
f 1 115 80
f 1 80 49
f 1 49 29
f 1 29 17
f 1 17 9
f 1 9 4
f 1 4 2
f 2 4 6
f 2 6 12
f 2 12 19
f 2 19 18
f 2 18 30
f 2 30 52
f 2 52 85
f 2 85 118
f 2 118 120
f 2 120 166
f 2 166 205
f 2 205 204
f 2 204 286
f 2 286 285
f 2 285 243
f 2 243 322
f 2 322 321
f 2 321 323
f 2 323 405
f 2 405 446
f 2 446 373
f 2 373 372
f 2 372 371
f 2 371 294
f 2 294 370
f 2 370 445
f 2 445 464
f 2 464 463
f 2 463 462
f 2 462 461
f 2 461 459
f 2 459 460
f 2 460 458
f 2 458 400
f 2 400 399
f 2 399 457
f 2 457 512
f 2 512 511
f 2 511 513
f 2 513 573
f 2 573 572
f 2 572 614
f 2 614 632
f 2 632 639
f 2 639 630
f 2 630 638
f 2 638 640
f 2 640 633
f 2 633 615
f 2 615 574
f 2 574 514
f 2 514 465
f 2 465 406
f 2 406 324
f 2 324 245
f 2 245 244
f 2 244 168
f 2 168 167
f 2 167 124
f 2 124 123
f 2 123 93
f 2 93 57
f 2 57 36
f 2 36 33
f 2 33 21
f 2 21 11
f 2 11 5
f 3 7 8
f 4 9 6
f 5 11 10
f 6 9 12
f 7 13 14
f 7 14 15
f 7 15 8
f 8 15 16
f 9 17 18
f 9 18 19
f 9 19 12
f 10 11 20
f 11 21 22
f 11 22 23
f 11 23 24
f 11 24 20
f 13 25 14
f 14 25 26
f 14 26 27
f 14 27 15
f 15 27 16
f 16 27 28
f 17 29 48
f 17 48 79
f 17 79 114
f 17 114 151
f 17 151 197
f 17 197 266
f 17 266 265
f 17 265 343
f 17 343 287
f 17 287 206
f 17 206 157
f 17 157 116
f 17 116 81
f 17 81 50
f 17 50 30
f 17 30 18
f 20 24 32
f 20 32 31
f 21 33 23
f 21 23 22
f 23 34 35
f 23 35 32
f 23 32 24
f 23 33 36
f 23 36 37
f 23 37 38
f 23 38 39
f 23 39 34
f 25 40 41
f 25 41 26
f 25 42 43
f 25 43 44
f 25 44 40
f 26 41 27
f 27 45 46
f 27 46 28
f 27 41 47
f 27 47 45
f 29 49 48
f 30 50 51
f 30 51 52
f 31 32 53
f 32 35 54
f 32 54 53
f 34 55 35
f 34 39 56
f 34 56 55
f 35 55 54
f 36 57 58
f 36 58 59
f 36 59 60
f 36 60 37
f 37 60 38
f 38 60 39
f 39 60 61
f 39 61 62
f 39 62 56
f 40 44 63
f 40 63 41
f 41 64 65
f 41 65 47
f 41 63 66
f 41 66 64
f 42 67 68
f 42 68 43
f 43 69 70
f 43 70 71
f 43 71 44
f 43 68 72
f 43 72 73
f 43 73 69
f 44 71 74
f 44 74 75
f 44 75 63
f 45 47 65
f 45 65 76
f 48 49 77
f 48 77 78
f 48 78 79
f 49 80 77
f 50 81 82
f 50 82 51
f 51 82 83
f 51 83 84
f 51 84 85
f 51 85 52
f 53 54 86
f 54 55 86
f 55 87 88
f 55 88 89
f 55 89 90
f 55 90 91
f 55 91 86
f 55 56 87
f 56 92 87
f 56 62 92
f 57 93 58
f 58 93 94
f 58 94 95
f 58 95 59
f 59 95 60
f 60 96 61
f 60 95 97
f 60 97 96
f 61 96 98
f 61 98 99
f 61 99 100
f 61 100 62
f 62 101 92
f 62 100 101
f 63 75 102
f 63 102 66
f 64 66 103
f 64 103 65
f 65 103 76
f 66 104 105
f 66 105 103
f 66 102 104
f 67 106 72
f 67 72 68
f 69 73 88
f 69 88 70
f 70 74 71
f 70 88 87
f 70 87 92
f 70 92 107
f 70 107 74
f 72 106 73
f 73 106 89
f 73 89 88
f 74 107 108
f 74 108 75
f 75 108 102
f 76 103 109
f 77 80 110
f 77 110 111
f 77 111 78
f 78 111 112
f 78 112 113
f 78 113 79
f 79 113 114
f 80 115 110
f 81 116 83
f 81 83 82
f 83 116 117
f 83 117 84
f 84 118 85
f 84 117 119
f 84 119 120
f 84 120 118
f 86 91 122
f 86 122 121
f 90 121 122
f 90 122 91
f 92 101 107
f 93 123 94
f 94 123 124
f 94 124 125
f 94 125 95
f 95 125 126
f 95 126 127
f 95 127 97
f 96 97 128
f 96 128 98
f 97 98 128
f 97 127 98
f 98 129 130
f 98 130 101
f 98 101 100
f 98 100 99
f 98 127 131
f 98 131 132
f 98 132 133
f 98 133 134
f 98 134 129
f 101 135 136
f 101 136 107
f 101 130 135
f 102 108 137
f 102 137 138
f 102 138 104
f 103 105 139
f 103 139 140
f 103 140 109
f 104 138 141
f 104 141 105
f 105 141 142
f 105 142 139
f 107 136 108
f 108 136 135
f 108 135 143
f 108 143 137
f 109 140 144
f 110 115 153
f 110 153 145
f 110 145 146
f 110 146 111
f 111 146 112
f 112 146 147
f 112 147 148
f 112 148 149
f 112 149 150
f 112 150 113
f 113 150 114
f 114 150 152
f 114 152 151
f 116 154 155
f 116 155 156
f 116 156 117
f 116 157 158
f 116 158 159
f 116 159 160
f 116 160 161
f 116 161 162
f 116 162 163
f 116 163 164
f 116 164 154
f 117 156 119
f 119 156 165
f 119 165 166
f 119 166 120
f 124 167 125
f 125 167 168
f 125 168 169
f 125 169 170
f 125 170 126
f 126 170 127
f 127 170 171
f 127 171 132
f 127 132 131
f 129 172 173
f 129 173 135
f 129 135 130
f 129 134 172
f 132 134 133
f 132 171 174
f 132 174 175
f 132 175 176
f 132 176 134
f 134 176 177
f 134 177 178
f 134 178 179
f 134 179 172
f 135 173 143
f 137 143 173
f 137 173 180
f 137 180 181
f 137 181 138
f 138 181 182
f 138 182 184
f 138 184 141
f 139 142 140
f 140 142 183
f 140 183 144
f 141 184 142
f 142 184 185
f 142 185 186
f 142 186 187
f 142 187 183
f 145 188 146
f 145 153 189
f 145 189 190
f 145 190 188
f 146 188 149
f 146 149 148
f 146 148 147
f 149 188 150
f 150 188 191
f 150 191 152
f 151 192 193
f 151 193 194
f 151 194 195
f 151 195 196
f 151 196 197
f 151 152 198
f 151 198 192
f 152 199 200
f 152 200 201
f 152 201 198
f 152 191 202
f 152 202 199
f 154 164 203
f 154 203 155
f 155 203 204
f 155 204 156
f 156 204 205
f 156 205 165
f 157 206 207
f 157 207 158
f 158 208 209
f 158 209 159
f 158 207 208
f 159 209 208
f 159 208 210
f 159 210 160
f 160 210 193
f 160 193 211
f 160 211 212
f 160 212 213
f 160 213 161
f 161 213 162
f 162 214 215
f 162 215 163
f 162 213 212
f 162 212 214
f 163 216 217
f 163 217 218
f 163 218 219
f 163 219 220
f 163 220 221
f 163 221 164
f 163 215 222
f 163 222 223
f 163 223 224
f 163 224 225
f 163 225 226
f 163 226 227
f 163 227 228
f 163 228 229
f 163 229 230
f 163 230 231
f 163 231 232
f 163 232 233
f 163 233 234
f 163 234 235
f 163 235 236
f 163 236 237
f 163 237 238
f 163 238 239
f 163 239 240
f 163 240 241
f 163 241 216
f 164 221 242
f 164 242 243
f 164 243 203
f 165 205 166
f 168 244 169
f 169 244 170
f 170 244 245
f 170 245 246
f 170 246 247
f 170 247 171
f 171 247 174
f 172 180 173
f 172 179 254
f 172 254 180
f 174 247 248
f 174 248 249
f 174 249 175
f 175 249 176
f 176 249 250
f 176 250 251
f 176 251 177
f 177 251 178
f 178 252 254
f 178 254 179
f 178 251 253
f 178 253 252
f 180 254 181
f 181 254 255
f 181 255 182
f 182 255 256
f 182 256 184
f 184 256 257
f 184 257 185
f 185 257 258
f 185 258 186
f 188 190 191
f 190 259 260
f 190 260 191
f 191 260 202
f 192 261 193
f 192 198 262
f 192 262 261
f 193 212 211
f 193 210 194
f 193 261 262
f 193 262 212
f 194 210 208
f 194 208 195
f 195 263 264
f 195 264 265
f 195 265 196
f 195 208 263
f 196 265 266
f 196 266 197
f 198 201 267
f 198 267 268
f 198 268 269
f 198 269 270
f 198 270 271
f 198 271 272
f 198 272 273
f 198 273 274
f 198 274 275
f 198 275 262
f 199 276 277
f 199 277 278
f 199 278 279
f 199 279 200
f 199 202 276
f 200 280 201
f 200 279 280
f 201 280 281
f 201 281 282
f 201 282 283
f 201 283 284
f 201 284 267
f 202 260 276
f 203 243 285
f 203 285 286
f 203 286 204
f 206 287 288
f 206 288 207
f 207 288 264
f 207 264 263
f 207 263 208
f 212 262 275
f 212 275 289
f 212 289 290
f 212 290 214
f 214 290 291
f 214 291 292
f 214 292 215
f 215 292 222
f 216 241 293
f 216 293 294
f 216 294 295
f 216 295 374
f 216 374 296
f 216 296 218
f 216 218 217
f 218 296 297
f 218 297 219
f 219 297 220
f 220 298 221
f 220 297 298
f 221 298 242
f 222 292 299
f 222 299 223
f 223 299 300
f 223 300 224
f 224 300 301
f 224 301 225
f 225 301 302
f 225 302 226
f 226 302 227
f 227 229 228
f 227 302 303
f 227 303 304
f 227 304 229
f 229 304 230
f 230 304 305
f 230 305 306
f 230 306 231
f 231 306 232
f 232 306 307
f 232 307 233
f 233 307 308
f 233 308 309
f 233 309 310
f 233 310 234
f 234 310 311
f 234 311 235
f 235 312 236
f 235 311 313
f 235 313 314
f 235 314 315
f 235 315 312
f 236 312 394
f 236 394 316
f 236 316 402
f 236 402 317
f 236 317 237
f 237 317 238
f 238 317 318
f 238 318 319
f 238 319 239
f 239 319 240
f 240 320 293
f 240 293 241
f 240 319 320
f 242 321 322
f 242 322 243
f 242 298 323
f 242 323 321
f 245 324 325
f 245 325 246
f 246 325 247
f 247 325 326
f 247 326 327
f 247 327 248
f 248 327 328
f 248 328 249
f 249 328 250
f 250 328 329
f 250 329 251
f 251 329 330
f 251 330 331
f 251 331 332
f 251 332 333
f 251 333 253
f 252 334 254
f 252 253 334
f 253 333 335
f 253 335 336
f 253 336 334
f 254 334 255
f 255 334 256
f 256 334 337
f 256 337 338
f 256 338 257
f 257 339 340
f 257 340 258
f 257 338 341
f 257 341 339
f 259 342 260
f 260 342 276
f 264 288 287
f 264 287 343
f 264 343 265
f 267 284 344
f 267 344 268
f 268 344 345
f 268 345 346
f 268 346 269
f 269 347 348
f 269 348 270
f 269 346 345
f 269 345 347
f 270 348 271
f 271 348 349
f 271 349 350
f 271 350 272
f 272 350 351
f 272 351 273
f 273 352 274
f 273 351 352
f 274 353 354
f 274 354 355
f 274 355 356
f 274 356 289
f 274 289 275
f 274 352 357
f 274 357 358
f 274 358 359
f 274 359 353
f 276 342 277
f 278 360 279
f 279 360 361
f 279 361 280
f 280 361 360
f 280 360 362
f 280 362 281
f 281 362 282
f 282 363 283
f 282 362 364
f 283 363 344
f 283 344 284
f 289 356 365
f 289 365 290
f 290 365 291
f 291 365 366
f 291 366 367
f 291 367 368
f 291 368 292
f 292 368 299
f 293 320 369
f 293 369 294
f 294 371 295
f 294 369 370
f 295 371 372
f 295 372 373
f 295 373 374
f 296 374 375
f 296 375 297
f 297 375 298
f 298 375 323
f 299 368 300
f 300 368 376
f 300 376 377
f 300 377 378
f 300 378 301
f 301 378 302
f 302 378 379
f 302 379 303
f 303 379 380
f 303 380 304
f 304 381 305
f 304 380 382
f 304 382 381
f 305 381 306
f 306 381 383
f 306 383 384
f 306 384 307
f 307 384 385
f 307 385 386
f 307 386 308
f 308 387 388
f 308 388 389
f 308 389 309
f 308 386 390
f 308 390 391
f 308 391 387
f 309 389 392
f 309 392 310
f 310 313 311
f 310 392 393
f 310 393 313
f 312 315 394
f 313 393 395
f 313 395 396
f 313 396 397
f 313 397 398
f 313 398 314
f 314 398 315
f 315 398 399
f 315 399 394
f 316 394 400
f 316 400 401
f 316 401 402
f 317 402 403
f 317 403 318
f 318 403 319
f 319 404 369
f 319 369 320
f 319 403 404
f 323 375 405
f 324 406 407
f 324 407 325
f 325 407 408
f 325 408 409
f 325 409 326
f 326 409 410
f 326 410 327
f 327 411 328
f 327 410 411
f 328 411 330
f 328 330 329
f 330 411 410
f 330 410 412
f 330 412 331
f 331 412 332
f 332 413 335
f 332 335 333
f 332 412 413
f 334 336 337
f 335 413 414
f 335 414 336
f 336 414 415
f 336 415 337
f 337 415 338
f 338 415 416
f 338 416 341
f 339 341 417
f 341 416 418
f 341 418 417
f 344 363 419
f 344 419 345
f 345 419 420
f 345 420 421
f 345 421 347
f 347 421 348
f 348 422 423
f 348 423 349
f 348 421 424
f 348 424 422
f 349 423 425
f 349 425 350
f 350 425 426
f 350 426 351
f 351 426 358
f 351 358 352
f 352 358 357
f 353 379 427
f 353 427 378
f 353 378 428
f 353 428 354
f 353 359 429
f 353 429 430
f 353 430 380
f 353 380 379
f 354 428 377
f 354 377 376
f 354 376 355
f 355 366 365
f 355 365 356
f 355 376 366
f 358 426 431
f 358 431 359
f 359 432 433
f 359 433 434
f 359 434 435
f 359 435 436
f 359 436 437
f 359 437 438
f 359 438 388
f 359 388 387
f 359 387 391
f 359 391 439
f 359 439 440
f 359 440 441
f 359 441 429
f 359 431 442
f 359 442 443
f 359 443 444
f 359 444 432
f 360 364 362
f 366 376 367
f 367 376 368
f 369 404 445
f 369 445 370
f 373 446 375
f 373 375 374
f 375 446 405
f 377 428 378
f 378 427 379
f 380 430 382
f 381 382 447
f 381 447 385
f 381 385 383
f 382 430 448
f 382 448 440
f 382 440 447
f 383 385 384
f 385 447 440
f 385 440 439
f 385 439 391
f 385 391 390
f 385 390 386
f 388 438 389
f 389 438 449
f 389 449 392
f 392 449 450
f 392 450 395
f 392 395 393
f 394 399 400
f 395 450 451
f 395 451 452
f 395 452 396
f 396 452 451
f 396 451 453
f 396 453 454
f 396 454 397
f 397 454 455
f 397 455 456
f 397 456 457
f 397 457 398
f 398 457 399
f 400 458 401
f 401 458 402
f 402 459 403
f 402 458 460
f 402 460 459
f 403 459 461
f 403 461 462
f 403 462 463
f 403 463 404
f 404 463 464
f 404 464 445
f 406 465 407
f 407 465 466
f 407 466 467
f 407 467 408
f 408 467 409
f 409 467 468
f 409 468 410
f 410 468 469
f 410 469 470
f 410 470 412
f 412 471 413
f 412 470 472
f 412 472 473
f 412 473 474
f 412 474 475
f 412 475 471
f 413 471 476
f 413 476 414
f 414 476 415
f 415 476 477
f 415 477 478
f 415 478 416
f 416 479 418
f 416 478 479
f 417 418 480
f 418 479 534
f 418 534 481
f 418 481 482
f 418 482 480
f 420 483 421
f 421 483 424
f 423 484 425
f 425 485 486
f 425 486 426
f 425 484 485
f 426 486 431
f 429 441 448
f 429 448 430
f 431 486 487
f 431 487 442
f 432 444 433
f 433 488 434
f 433 444 489
f 433 489 488
f 434 488 490
f 434 490 435
f 435 490 491
f 435 491 492
f 435 492 436
f 436 492 493
f 436 493 494
f 436 494 495
f 436 495 496
f 436 496 437
f 437 496 497
f 437 497 498
f 437 498 449
f 437 449 438
f 440 448 441
f 442 487 499
f 442 499 443
f 443 499 444
f 444 499 500
f 444 500 489
f 449 498 450
f 450 498 497
f 450 497 451
f 451 497 501
f 451 501 502
f 451 502 453
f 453 502 503
f 453 503 504
f 453 504 505
f 453 505 506
f 453 506 507
f 453 507 508
f 453 508 454
f 454 508 509
f 454 509 455
f 455 509 510
f 455 510 456
f 456 511 512
f 456 512 457
f 456 510 513
f 456 513 511
f 465 514 466
f 466 515 467
f 466 514 515
f 467 515 516
f 467 516 468
f 468 516 517
f 468 517 469
f 469 517 518
f 469 518 519
f 469 519 473
f 469 473 470
f 470 473 472
f 471 475 476
f 473 520 521
f 473 521 522
f 473 522 523
f 473 523 474
f 473 519 520
f 474 523 475
f 475 523 524
f 475 524 525
f 475 525 526
f 475 526 476
f 476 526 477
f 477 527 478
f 477 526 528
f 477 528 529
f 477 529 527
f 478 527 530
f 478 530 531
f 478 531 532
f 478 532 533
f 478 533 534
f 478 534 479
f 485 535 486
f 486 535 536
f 486 536 487
f 487 536 537
f 487 537 538
f 487 538 499
f 488 489 539
f 488 539 540
f 488 540 490
f 489 500 541
f 489 541 539
f 490 542 543
f 490 543 491
f 490 540 544
f 490 544 545
f 490 545 542
f 491 543 595
f 491 595 546
f 491 546 492
f 492 547 548
f 492 548 549
f 492 549 493
f 492 546 550
f 492 550 551
f 492 551 547
f 493 549 494
f 494 552 554
f 494 554 495
f 494 549 553
f 494 553 606
f 494 606 552
f 495 554 497
f 495 497 496
f 497 554 555
f 497 555 501
f 499 556 557
f 499 557 500
f 499 538 556
f 500 557 541
f 501 555 558
f 501 558 559
f 501 559 503
f 501 503 502
f 503 559 560
f 503 560 504
f 504 561 562
f 504 562 563
f 504 563 564
f 504 564 565
f 504 565 566
f 504 566 505
f 504 560 561
f 505 566 506
f 506 566 565
f 506 565 567
f 506 567 612
f 506 612 568
f 506 568 507
f 507 568 569
f 507 569 509
f 507 509 508
f 509 569 570
f 509 570 510
f 510 570 571
f 510 571 572
f 510 572 573
f 510 573 513
f 514 574 575
f 514 575 576
f 514 576 515
f 515 576 516
f 516 576 577
f 516 577 518
f 516 518 517
f 518 577 578
f 518 578 520
f 518 520 519
f 520 578 564
f 520 564 521
f 521 564 579
f 521 579 522
f 522 580 581
f 522 581 582
f 522 582 524
f 522 524 523
f 522 579 609
f 522 609 583
f 522 583 584
f 522 584 580
f 524 582 585
f 524 585 525
f 525 585 526
f 526 585 586
f 526 586 528
f 527 529 530
f 528 586 587
f 528 587 529
f 529 587 588
f 529 588 530
f 530 589 531
f 530 588 589
f 535 537 536
f 539 541 590
f 539 590 591
f 539 591 540
f 540 591 544
f 541 592 590
f 542 545 543
f 543 593 594
f 543 594 595
f 543 545 593
f 544 591 596
f 545 597 593
f 546 595 550
f 547 553 548
f 547 551 598
f 547 598 599
f 547 599 600
f 547 600 553
f 548 553 549
f 550 598 551
f 550 595 601
f 550 601 602
f 550 602 603
f 550 603 604
f 550 604 605
f 550 605 598
f 552 558 555
f 552 555 554
f 552 606 560
f 552 560 558
f 553 600 627
f 553 627 606
f 558 560 559
f 560 606 607
f 560 607 561
f 561 607 608
f 561 608 562
f 562 608 584
f 562 584 583
f 562 583 609
f 562 609 563
f 563 609 564
f 564 578 610
f 564 610 567
f 564 567 565
f 564 609 579
f 567 610 611
f 567 611 612
f 568 612 631
f 568 631 613
f 568 613 569
f 569 613 614
f 569 614 572
f 569 572 571
f 569 571 570
f 574 615 575
f 575 615 576
f 576 615 616
f 576 616 577
f 577 616 617
f 577 617 578
f 578 617 611
f 578 611 610
f 580 584 618
f 580 618 581
f 581 618 619
f 581 619 599
f 581 599 582
f 582 599 620
f 582 620 621
f 582 621 585
f 584 608 618
f 585 621 586
f 586 621 620
f 586 620 599
f 586 599 622
f 586 622 623
f 586 623 624
f 586 624 587
f 587 624 588
f 588 625 626
f 588 626 589
f 588 624 625
f 590 592 596
f 590 596 591
f 593 597 594
f 594 601 595
f 598 605 623
f 598 623 622
f 598 622 599
f 599 619 600
f 600 619 627
f 604 628 624
f 604 624 605
f 605 624 623
f 606 627 608
f 606 608 607
f 608 627 618
f 611 629 630
f 611 630 631
f 611 631 612
f 611 617 616
f 611 616 629
f 613 631 632
f 613 632 614
f 615 633 634
f 615 634 616
f 616 634 635
f 616 635 629
f 618 627 619
f 624 628 636
f 624 636 625
f 625 636 637
f 625 637 626
f 629 635 630
f 630 635 638
f 630 639 631
f 631 639 632
f 633 640 634
f 634 640 635
f 635 640 638
