v -0.200887 -0.617359 0.183421
v -0.188757 -0.641024 0.183421
v -0.185749 -0.643236 0.185769
v -0.188875 -0.631897 0.188884
v -0.200593 -0.58866 0.20061
v -0.200887 -0.588471 0.200376
v -0.200887 -0.454383 0.183421
v -0.186595 -0.645165 0.183421
v -0.18339 -0.650105 0.183421
v -0.166836 -0.674617 0.183421
v -0.170552 -0.662714 0.187318
v -0.173973 -0.652834 0.18995
v -0.178337 -0.63632 0.195246
v -0.1828 -0.618912 0.200626
v -0.185848 -0.609361 0.202991
v -0.200887 -0.579485 0.205207
v -0.200887 -0.313426 0.228825
v -7.98244e-05 -0.673111 0.183421
v -0.165853 -0.676028 0.183421
v -0.166423 -0.674005 0.184137
v -0.148434 -0.669818 0.20031
v -0.151914 -0.660314 0.202958
v -0.161312 -0.653916 0.199127
v -0.155807 -0.649023 0.205956
v -0.167112 -0.640742 0.201626
v -0.170926 -0.629451 0.20454
v -0.152249 -0.626863 0.22018
v -0.155866 -0.615524 0.222962
v -0.16717 -0.606585 0.218631
v -0.161351 -0.601363 0.22556
v -0.189288 -0.598069 0.20564
v -0.19497 -0.583813 0.207855
v -0.185336 -0.574357 0.219547
v -0.200887 -0.574545 0.207372
v -0.200887 -0.313426 0.289119
v -7.98244e-05 -0.313426 0.305425
v -7.98244e-05 -0.793979 0.183421
v -0.136462 -0.679322 0.204107
v -0.158953 -0.685203 0.183421
v -0.155119 -0.68158 0.188467
v -0.139961 -0.669818 0.206806
v -0.144522 -0.653445 0.212285
v -0.13715 -0.646529 0.221579
v -0.149221 -0.635896 0.217848
v -0.140728 -0.635896 0.224261
v -0.14466 -0.619711 0.229341
v -0.148946 -0.601974 0.234687
v -0.151954 -0.592423 0.236936
v -0.17065 -0.595246 0.221279
v -0.182191 -0.585037 0.217132
v -0.194419 -0.568429 0.215
v -0.173717 -0.585037 0.223645
v -0.155355 -0.581132 0.239518
v -0.166659 -0.571157 0.23517
v -0.161037 -0.5665 0.241416
v -0.172066 -0.551162 0.239334
v -0.191588 -0.551162 0.224344
v -0.200062 -0.551162 0.217832
v -0.200887 -0.548057 0.218465
v -0.196149 -0.313426 0.292766
v -0.200887 -0.330693 0.285571
v -7.98244e-05 -0.313426 0.35356
v -7.98244e-05 -0.793085 0.18402
v -0.00851398 -0.793979 0.183421
v -0.132667 -0.657821 0.218598
v -0.132136 -0.690661 0.200793
v -0.120832 -0.697953 0.204923
v -0.154057 -0.691602 0.183421
v -0.132077 -0.623899 0.23572
v -0.137071 -0.612607 0.238318
v -0.150518 -0.556667 0.253175
v -0.154077 -0.545375 0.255424
v -0.16027 -0.551068 0.248395
v -0.165558 -0.534177 0.25131
v -0.178259 -0.533142 0.241999
v -0.184058 -0.538082 0.23552
v -0.200887 -0.531778 0.225177
v -0.200887 -0.539541 0.221979
v -0.195756 -0.313426 0.293066
v -0.191942 -0.330693 0.292433
v -0.200887 -0.347677 0.28169
v -0.197899 -0.347677 0.283989
v -0.189426 -0.347677 0.290501
v -0.00849432 -0.313426 0.35356
v -7.98244e-05 -0.330693 0.350712
v -0.00849432 -0.793085 0.18402
v -7.98244e-05 -0.763162 0.203558
v -0.00957562 -0.793791 0.183421
v -0.121363 -0.664266 0.221879
v -0.151796 -0.694519 0.183421
v -0.139509 -0.700117 0.1895
v -0.127929 -0.704681 0.195596
v -0.12266 -0.720677 0.189583
v -0.118964 -0.729476 0.186752
v -0.115111 -0.709245 0.201692
v -0.109763 -0.703646 0.207205
v -0.115543 -0.675605 0.219131
v -0.114718 -0.640648 0.23577
v -0.120773 -0.629356 0.238268
v -0.12671 -0.618535 0.240417
v -0.127182 -0.601974 0.247079
v -0.135105 -0.575909 0.254141
v -0.15156 -0.507313 0.270847
v -0.157085 -0.534177 0.257589
v -0.168409 -0.523309 0.253492
v -0.187086 -0.526744 0.237852
v -0.200887 -0.522133 0.228924
v -0.182604 -0.313755 0.30266
v -0.182643 -0.313426 0.302693
v -0.17993 -0.330693 0.300911
v -0.200887 -0.353794 0.280175
v -0.176568 -0.346548 0.299595
v -0.196149 -0.381552 0.276927
v -0.183941 -0.381552 0.286287
v -0.172616 -0.398537 0.290385
v -0.0249694 -0.313426 0.351428
v -0.00849432 -0.330693 0.350712
v -7.98244e-05 -0.347677 0.347614
v -0.00849432 -0.784616 0.189467
v -0.0179311 -0.792144 0.183421
v -0.000512346 -0.763162 0.203558
v -7.98244e-05 -0.730464 0.221163
v -0.109527 -0.652081 0.232772
v -0.142301 -0.706563 0.183421
v -0.135026 -0.711409 0.186052
v -0.130701 -0.720677 0.183421
v -0.121304 -0.731734 0.183421
v -0.11285 -0.740344 0.183421
v -0.104396 -0.748718 0.183421
v -0.101938 -0.746319 0.186652
v -0.103806 -0.713808 0.20439
v -0.0923641 -0.702658 0.215067
v -0.097397 -0.691649 0.218648
v -0.110019 -0.686332 0.216049
v -0.104239 -0.680357 0.221496
v -0.0680053 -0.678428 0.237486
v -0.0922461 -0.668689 0.232156
v -0.110019 -0.669865 0.224194
v -0.103413 -0.645917 0.238119
v -0.109527 -0.635379 0.240267
v -0.0845197 -0.627145 0.254258
v -0.0902997 -0.615853 0.256656
v -0.101585 -0.610302 0.254308
v -0.0948805 -0.603574 0.259804
v -0.118414 -0.593176 0.254258
v -0.128539 -0.586542 0.252692
v -0.0875473 -0.579438 0.272446
v -0.0988519 -0.573181 0.270114
v -0.12616 -0.550221 0.266966
v -0.13595 -0.526085 0.271447
v -0.147805 -0.51724 0.269148
v -0.115307 -0.504113 0.28687
v -0.145191 -0.501102 0.275394
v -0.144129 -0.483318 0.281207
v -0.144326 -0.467369 0.285854
v -0.150086 -0.453819 0.287237
v -0.154726 -0.496021 0.272596
v -0.160663 -0.501102 0.266883
v -0.162098 -0.517475 0.260138
v -0.139332 -0.51724 0.272846
v -0.104003 -0.511735 0.289202
v -0.171122 -0.512018 0.255574
v -0.197879 -0.51724 0.233122
v -0.200887 -0.51724 0.23079
v -0.169923 -0.340149 0.305441
v -0.171456 -0.330693 0.306291
v -0.174189 -0.313426 0.307807
v -0.200887 -0.385739 0.27223
v -0.18109 -0.398537 0.284105
v -0.170631 -0.409734 0.289002
v -0.0420737 -0.313426 0.34918
v -0.0254413 -0.330693 0.348514
v -0.00849432 -0.347677 0.347614
v -7.98244e-05 -0.391809 0.339519
v -0.00709846 -0.769937 0.198661
v -0.0254413 -0.782923 0.188367
v -0.0254413 -0.790639 0.183421
v -0.00709846 -0.755587 0.207039
v -0.0118169 -0.761939 0.202841
v -0.00554531 -0.730464 0.221163
v -7.98244e-05 -0.704869 0.233821
v -0.0972201 -0.657209 0.235537
v -0.136914 -0.713244 0.183421
v -0.0932684 -0.757328 0.183421
v -0.0927376 -0.757705 0.183421
v -0.0823768 -0.761468 0.185536
v -0.0932684 -0.749283 0.188467
v -0.0763215 -0.740908 0.20046
v -0.0917349 -0.736062 0.196912
v -0.096355 -0.7251 0.201259
v -0.0917349 -0.719972 0.206039
v -0.0675727 -0.712068 0.22038
v -0.0763215 -0.708633 0.218581
v -0.0763215 -0.700164 0.223012
v -0.0860925 -0.696259 0.220996
v -0.0923641 -0.686332 0.223428
v -0.0763215 -0.652834 0.246113
v -0.074729 -0.668689 0.239401
v -0.0859156 -0.66229 0.237869
v -0.074729 -0.685156 0.231323
v -0.0562682 -0.714938 0.221862
v -0.0593548 -0.688732 0.234221
v -0.0593548 -0.680263 0.238335
v -0.0593548 -0.669818 0.243199
v -0.0656264 -0.643659 0.254058
v -0.0778549 -0.637166 0.252542
v -0.0932684 -0.635896 0.246763
v -0.0922461 -0.652081 0.239934
v -0.0732152 -0.632368 0.256423
v -0.0778549 -0.620464 0.259538
v -0.081551 -0.59073 0.270231
v -0.0932291 -0.585037 0.267899
v -0.0932291 -0.567723 0.274362
v -0.0760659 -0.585037 0.274145
v -0.0828879 -0.541235 0.28777
v -0.0884124 -0.529943 0.289768
v -0.0932684 -0.551162 0.280241
v -0.0997169 -0.523074 0.28742
v -0.0932684 -0.500255 0.297164
v -0.0930915 -0.483694 0.302244
v -0.13137 -0.483318 0.286504
v -0.134849 -0.47372 0.287936
v -0.0986159 -0.470333 0.303926
v -0.102528 -0.459041 0.305558
v -0.138781 -0.462381 0.289568
v -0.105556 -0.449396 0.306807
v -0.126749 -0.432835 0.302277
v -0.144129 -0.432459 0.295165
v -0.144129 -0.415474 0.299495
v -0.153487 -0.44248 0.288669
v -0.167937 -0.421026 0.287403
v -0.162373 -0.46718 0.276727
v -0.171417 -0.462099 0.272729
v -0.168881 -0.473391 0.270831
v -0.166404 -0.483318 0.269098
v -0.0937403 -0.517334 0.2917
v -0.173835 -0.500255 0.257656
v -0.200887 -0.503408 0.235803
v -0.167151 -0.351441 0.304176
v -0.161331 -0.346548 0.30769
v -0.110215 -0.347677 0.32861
v -0.133807 -0.33488 0.321414
v -0.161096 -0.330693 0.310871
v -0.161096 -0.313755 0.313869
v -0.161096 -0.398537 0.296281
v -0.173855 -0.313426 0.307973
v -0.200887 -0.396937 0.269332
v -0.200632 -0.398537 0.269115
v -0.161803 -0.415427 0.2918
v -0.197526 -0.415474 0.26675
v -0.176981 -0.415427 0.282506
v -0.173973 -0.449396 0.274695
v -0.0590206 -0.313426 0.346948
v -0.0763215 -0.313755 0.344616
v -0.0763215 -0.330693 0.341818
v -0.0424079 -0.330693 0.346282
v -0.0849719 -0.339444 0.339186
v -0.0254413 -0.347677 0.345416
v -0.0142547 -0.388327 0.338803
v -0.0085533 -0.382211 0.340735
v -0.00295019 -0.391809 0.339519
v -7.98244e-05 -0.449396 0.325495
v -0.0254413 -0.771537 0.195296
v -0.0424079 -0.781088 0.187202
v -0.0509797 -0.7801 0.186585
v -0.0424079 -0.786781 0.183421
v -0.0101064 -0.736721 0.217182
v -0.0254413 -0.751918 0.206789
v -0.0254413 -0.760386 0.201959
v -0.00849432 -0.704869 0.233821
v -0.0101064 -0.722371 0.224794
v -0.0168498 -0.729146 0.220447
v -7.98244e-05 -0.700635 0.235887
v -0.0843624 -0.763397 0.183421
v -0.0791132 -0.766879 0.183421
v -0.0750829 -0.769514 0.183421
v -0.0710722 -0.765185 0.187884
v -0.0765574 -0.755305 0.191699
v -0.0654298 -0.744672 0.202642
v -0.0763215 -0.73244 0.205406
v -0.0850505 -0.729334 0.203608
v -0.0763215 -0.720677 0.212019
v -0.0541253 -0.748013 0.204574
v -0.060908 -0.72063 0.217582
v -0.0424079 -0.725853 0.218764
v -0.0424079 -0.717384 0.223128
v -0.0424079 -0.70374 0.22994
v -0.0424079 -0.683227 0.239717
v -0.0424079 -0.691696 0.235753
v -0.0424079 -0.669818 0.245847
v -0.0543219 -0.645447 0.254841
v -0.0597284 -0.637166 0.257556
v -0.0593548 -0.618912 0.264984
v -0.0702465 -0.595529 0.272063
v -0.0424079 -0.655798 0.252026
v -0.0760659 -0.601504 0.267833
v -0.0763215 -0.568052 0.280175
v -0.0768719 -0.551115 0.285904
v -0.0715834 -0.545422 0.289185
v -0.0768719 -0.535024 0.291384
v -0.0763215 -0.51724 0.297263
v -0.0812758 -0.489575 0.304559
v -0.0873114 -0.478284 0.306241
v -0.110215 -0.483318 0.295265
v -0.0930915 -0.465345 0.307607
v -0.0932684 -0.449396 0.311771
v -0.1111 -0.432835 0.308756
v -0.110215 -0.415474 0.313553
v -0.132982 -0.415474 0.304126
v -0.135616 -0.406911 0.305208
v -0.144267 -0.400183 0.30316
v -0.156279 -0.432459 0.289968
v -0.198489 -0.466381 0.250544
v -0.190015 -0.466381 0.25704
v -0.177453 -0.46718 0.2664
v -0.182466 -0.449396 0.268216
v -0.200887 -0.452125 0.253259
v -0.187617 -0.477202 0.255207
v -0.178829 -0.483036 0.259888
v -0.200887 -0.489622 0.24065
v -0.150027 -0.385034 0.304159
v -0.119593 -0.357887 0.322564
v -0.130701 -0.347677 0.320132
v -0.110707 -0.363956 0.324945
v -0.105005 -0.381552 0.323546
v -0.10245 -0.391385 0.32248
v -0.0932684 -0.364615 0.331375
v -0.0959225 -0.330693 0.337304
v -0.110215 -0.330693 0.331941
v -0.136245 -0.323588 0.32243
v -0.127182 -0.313426 0.327977
v -0.146881 -0.313426 0.319815
v -0.161096 -0.313426 0.313919
v -0.200887 -0.398537 0.268915
v -0.200887 -0.415474 0.264152
v -0.200887 -0.432129 0.259205
v -0.200887 -0.448267 0.254408
v -0.0763215 -0.313426 0.344666
v -0.0763215 -0.398537 0.328493
v -0.0763215 -0.381552 0.331974
v -0.0763215 -0.364615 0.335355
v -0.0763215 -0.342361 0.339769
v -0.087449 -0.330693 0.339919
v -0.0994613 -0.318037 0.33842
v -0.0916759 -0.346125 0.335689
v -0.0932684 -0.381552 0.327877
v -0.0879209 -0.411757 0.323313
v -0.0831631 -0.423049 0.321964
v -0.0424079 -0.347677 0.343184
v -0.0341703 -0.373272 0.339186
v -0.0254413 -0.364615 0.342051
v -0.0408547 -0.38 0.336971
v -0.0424079 -0.398537 0.332957
v -0.0254413 -0.398537 0.335189
v -0.0085533 -0.397878 0.337521
v -0.00849432 -0.415474 0.333573
v -0.00849432 -0.449396 0.325495
v -7.98244e-05 -0.454901 0.324146
v -0.0424079 -0.771537 0.192998
v -0.0622842 -0.776477 0.184237
v -0.0632869 -0.777089 0.183421
v -0.0537911 -0.783017 0.183421
v -0.0424079 -0.758457 0.200809
v -0.0596104 -0.754035 0.199094
v -0.0254413 -0.737615 0.214684
v -0.0424079 -0.749942 0.205673
v -0.00849432 -0.696353 0.237969
v -0.0169875 -0.695271 0.237419
v -0.0237702 -0.702046 0.233222
v -0.0254413 -0.719548 0.224244
v -0.0424079 -0.737615 0.212452
v -7.98244e-05 -0.696353 0.237969
v -0.0254413 -0.669818 0.248095
v -0.0237702 -0.687508 0.240151
v -0.00849432 -0.686756 0.242482
v -0.0134487 -0.660267 0.253925
v -0.0254413 -0.658432 0.253142
v -0.0424079 -0.647329 0.255624
v -0.0254413 -0.635896 0.262603
v -0.0424079 -0.635896 0.260371
v -0.0254413 -0.620794 0.268699
v -0.0412283 -0.617406 0.267966
v -0.0347798 -0.610725 0.27143
v -0.0460843 -0.608796 0.270681
v -0.0593548 -0.606491 0.269815
v -0.0593548 -0.597975 0.272996
v -0.0593548 -0.585037 0.277793
v -0.0593548 -0.568052 0.283722
v -0.0593548 -0.548527 0.290201
v -0.0593548 -0.534177 0.294932
v -0.0593548 -0.51724 0.300212
v -0.0699713 -0.493151 0.305608
v -0.0759086 -0.499361 0.302677
v -0.0759086 -0.483694 0.30724
v -0.0763215 -0.466381 0.312037
v -0.0932684 -0.432459 0.316068
v -0.0934454 -0.41665 0.319999
v -0.0992254 -0.402677 0.321198
v -0.108957 -0.397643 0.318366
v -0.128853 -0.400183 0.309555
v -0.138722 -0.39562 0.306491
v -0.200887 -0.466381 0.248695
v -0.200887 -0.483224 0.242899
v -0.0934454 -0.397643 0.324446
v -0.108937 -0.313426 0.335522
v -0.0934454 -0.313426 0.341018
v -0.0770292 -0.41665 0.324313
v -0.0593548 -0.415474 0.326911
v -0.0424079 -0.415474 0.329143
v -0.0653315 -0.354452 0.33882
v -0.0941335 -0.313426 0.340802
v -0.108033 -0.313426 0.335872
v -0.0763215 -0.449396 0.316434
v -0.0593548 -0.449396 0.318833
v -0.0254413 -0.415474 0.331375
v -0.0240651 -0.449396 0.32348
v -0.017479 -0.458147 0.322247
v -0.00849432 -0.460264 0.32283
v -7.98244e-05 -0.460264 0.32283
v -0.00214413 -0.661914 0.254641
v -7.98244e-05 -0.661914 0.254641
v -0.00808146 -0.668454 0.250944
v -0.00808146 -0.653916 0.257306
v -0.0254413 -0.649964 0.25674
v -0.00849432 -0.635896 0.264801
v -0.00849432 -0.623569 0.269798
v -0.00849432 -0.615101 0.273146
v -0.0254413 -0.612278 0.272046
v -0.00849432 -0.601974 0.278159
v -0.0254413 -0.601974 0.275961
v -0.0412283 -0.60268 0.273629
v -0.0254413 -0.585037 0.282273
v -0.012387 -0.57478 0.287686
v -0.0493086 -0.558972 0.288069
v -0.043155 -0.552479 0.291034
v -0.0424079 -0.534177 0.297164
v -0.0119348 -0.523544 0.304592
v -0.0419557 -0.516111 0.302843
v -0.0360184 -0.509712 0.305508
v -0.0473229 -0.507077 0.304759
v -0.0593548 -0.504255 0.303959
v -0.0254413 -0.520533 0.303709
v -0.0593548 -0.495786 0.306358
v -0.0593548 -0.483318 0.309872
v -0.0593548 -0.466381 0.314536
v -0.0390264 -0.44375 0.322864
v -0.0287835 -0.455042 0.321514
v -0.0240651 -0.464828 0.319599
v -0.00849432 -0.468733 0.320548
v -0.000610642 -0.525944 0.305308
v -7.98244e-05 -0.525944 0.305308
v -0.00108249 -0.576897 0.288403
v -7.98244e-05 -0.576897 0.288403
v -0.00743268 -0.583531 0.285155
v -0.00743268 -0.568711 0.290318
v -0.00849432 -0.551162 0.295998
v -0.0254413 -0.551162 0.293799
v -0.0254413 -0.534177 0.299395
v -0.00715744 -0.517616 0.306924
v -0.0254413 -0.512065 0.306208
v -0.00849432 -0.500255 0.311754
v -0.0254413 -0.500255 0.309555
v -0.0254413 -0.483318 0.314336
v -0.0424079 -0.483318 0.312104
v -0.0424079 -0.466381 0.316767
v -0.00849432 -0.483318 0.316518
f 1 2 3
f 1 3 4
f 1 4 5
f 1 5 6
f 1 6 16
f 1 16 34
f 1 34 59
f 1 59 78
f 1 78 77
f 1 77 107
f 1 107 164
f 1 164 238
f 1 238 320
f 1 320 403
f 1 403 402
f 1 402 317
f 1 317 337
f 1 337 336
f 1 336 335
f 1 335 334
f 1 334 247
f 1 247 168
f 1 168 111
f 1 111 81
f 1 81 61
f 1 61 35
f 1 35 17
f 1 17 7
f 1 7 18
f 1 18 37
f 1 37 64
f 1 64 88
f 1 88 120
f 1 120 177
f 1 177 266
f 1 266 362
f 1 362 361
f 1 361 276
f 1 276 275
f 1 275 274
f 1 274 185
f 1 185 184
f 1 184 129
f 1 129 128
f 1 128 127
f 1 127 126
f 1 126 183
f 1 183 124
f 1 124 90
f 1 90 68
f 1 68 39
f 1 39 19
f 1 19 10
f 1 10 9
f 1 9 8
f 1 8 2
f 2 8 3
f 3 8 9
f 3 9 10
f 3 10 11
f 3 11 12
f 3 12 13
f 3 13 14
f 3 14 15
f 3 15 4
f 4 15 16
f 4 16 5
f 5 16 6
f 7 17 18
f 10 19 20
f 10 20 11
f 11 20 21
f 11 21 22
f 11 22 12
f 12 22 23
f 12 23 24
f 12 24 25
f 12 25 13
f 13 25 26
f 13 26 14
f 14 26 27
f 14 27 15
f 15 28 29
f 15 29 30
f 15 30 31
f 15 31 16
f 15 27 28
f 16 32 33
f 16 33 34
f 16 31 32
f 17 35 60
f 17 60 79
f 17 79 109
f 17 109 167
f 17 167 246
f 17 246 333
f 17 333 332
f 17 332 331
f 17 331 405
f 17 405 412
f 17 412 411
f 17 411 406
f 17 406 338
f 17 338 253
f 17 253 171
f 17 171 116
f 17 116 84
f 17 84 62
f 17 62 36
f 17 36 18
f 18 36 62
f 18 62 85
f 18 85 118
f 18 118 174
f 18 174 262
f 18 262 358
f 18 358 419
f 18 419 451
f 18 451 453
f 18 453 421
f 18 421 372
f 18 372 273
f 18 273 181
f 18 181 122
f 18 122 87
f 18 87 63
f 18 63 37
f 19 38 20
f 19 39 40
f 19 40 38
f 20 38 21
f 21 38 41
f 21 41 22
f 22 42 24
f 22 24 23
f 22 41 42
f 24 43 25
f 24 42 43
f 25 43 44
f 25 44 26
f 26 44 27
f 27 44 43
f 27 43 45
f 27 45 46
f 27 46 28
f 28 47 30
f 28 30 29
f 28 46 47
f 30 48 49
f 30 49 31
f 30 47 48
f 31 49 50
f 31 50 32
f 32 50 33
f 33 51 34
f 33 50 52
f 33 52 53
f 33 53 54
f 33 54 55
f 33 55 56
f 33 56 57
f 33 57 58
f 33 58 51
f 34 51 58
f 34 58 59
f 35 61 60
f 37 63 86
f 37 86 64
f 38 65 43
f 38 43 41
f 38 40 39
f 38 39 66
f 38 66 67
f 38 67 65
f 39 68 66
f 41 43 42
f 43 69 70
f 43 70 45
f 43 65 69
f 45 70 46
f 46 70 47
f 47 70 48
f 48 70 53
f 48 53 52
f 48 52 49
f 49 52 50
f 53 55 54
f 53 70 71
f 53 71 72
f 53 72 55
f 55 72 73
f 55 73 56
f 56 73 74
f 56 74 75
f 56 75 76
f 56 76 57
f 57 76 58
f 58 76 77
f 58 77 78
f 58 78 59
f 60 61 80
f 60 80 79
f 61 81 82
f 61 82 83
f 61 83 80
f 62 84 117
f 62 117 85
f 63 87 121
f 63 121 86
f 64 86 88
f 65 89 69
f 65 67 89
f 66 68 90
f 66 90 91
f 66 91 92
f 66 92 67
f 67 92 93
f 67 93 94
f 67 94 95
f 67 95 96
f 67 96 97
f 67 97 89
f 69 89 98
f 69 98 99
f 69 99 100
f 69 100 70
f 70 100 101
f 70 101 102
f 70 102 71
f 71 102 103
f 71 103 72
f 72 104 105
f 72 105 74
f 72 74 73
f 72 103 104
f 74 105 106
f 74 106 75
f 75 106 76
f 76 106 77
f 77 106 107
f 79 80 108
f 79 108 109
f 80 110 108
f 80 83 110
f 81 111 82
f 82 111 83
f 83 112 110
f 83 111 113
f 83 113 114
f 83 114 115
f 83 115 112
f 84 116 117
f 85 117 173
f 85 173 118
f 86 119 120
f 86 120 88
f 86 121 119
f 87 122 180
f 87 180 121
f 89 97 123
f 89 123 98
f 90 124 91
f 91 124 125
f 91 125 92
f 92 125 93
f 93 125 126
f 93 126 94
f 94 126 127
f 94 127 128
f 94 128 129
f 94 129 130
f 94 130 95
f 95 131 96
f 95 130 131
f 96 132 133
f 96 133 134
f 96 134 97
f 96 131 132
f 97 135 136
f 97 136 137
f 97 137 138
f 97 138 123
f 97 134 135
f 98 139 140
f 98 140 99
f 98 123 139
f 99 140 141
f 99 141 100
f 100 142 143
f 100 143 101
f 100 141 142
f 101 143 144
f 101 144 145
f 101 145 146
f 101 146 102
f 102 146 147
f 102 147 148
f 102 148 149
f 102 149 150
f 102 150 151
f 102 151 103
f 103 152 153
f 103 153 154
f 103 154 155
f 103 155 156
f 103 156 157
f 103 157 158
f 103 158 159
f 103 159 104
f 103 151 150
f 103 150 160
f 103 160 161
f 103 161 152
f 104 159 105
f 105 159 162
f 105 162 163
f 105 163 106
f 106 163 107
f 107 163 164
f 108 110 165
f 108 165 166
f 108 166 167
f 108 167 109
f 110 112 165
f 111 168 113
f 112 115 165
f 113 168 114
f 114 168 169
f 114 169 115
f 115 169 170
f 115 170 165
f 116 171 172
f 116 172 117
f 117 172 258
f 117 258 173
f 118 173 261
f 118 261 174
f 119 175 176
f 119 176 177
f 119 177 120
f 119 121 175
f 121 178 179
f 121 179 175
f 121 180 178
f 122 181 270
f 122 270 180
f 123 138 182
f 123 182 139
f 124 183 125
f 125 183 126
f 129 184 130
f 130 184 185
f 130 185 186
f 130 186 187
f 130 187 188
f 130 188 189
f 130 189 190
f 130 190 131
f 131 191 192
f 131 192 193
f 131 193 132
f 131 190 191
f 132 194 195
f 132 195 133
f 132 193 194
f 133 195 196
f 133 196 135
f 133 135 134
f 135 196 136
f 136 197 198
f 136 198 199
f 136 199 137
f 136 196 200
f 136 200 194
f 136 194 192
f 136 192 201
f 136 201 202
f 136 202 203
f 136 203 204
f 136 204 205
f 136 205 197
f 137 199 138
f 138 199 182
f 139 206 207
f 139 207 140
f 139 182 208
f 139 208 206
f 140 207 141
f 141 207 206
f 141 206 209
f 141 209 210
f 141 210 142
f 142 211 147
f 142 147 144
f 142 144 143
f 142 210 211
f 144 147 212
f 144 212 145
f 145 212 146
f 146 212 147
f 147 213 148
f 147 211 214
f 147 214 215
f 147 215 216
f 147 216 213
f 148 213 217
f 148 217 149
f 149 217 216
f 149 216 150
f 150 216 218
f 150 218 160
f 152 219 220
f 152 220 221
f 152 221 153
f 152 161 219
f 153 221 154
f 154 221 222
f 154 222 155
f 155 222 223
f 155 223 224
f 155 224 225
f 155 225 156
f 156 226 227
f 156 227 228
f 156 228 229
f 156 229 230
f 156 230 231
f 156 231 157
f 156 225 224
f 156 224 226
f 157 232 233
f 157 233 234
f 157 234 158
f 157 231 232
f 158 234 235
f 158 235 159
f 159 235 234
f 159 234 162
f 160 218 236
f 160 236 161
f 161 236 219
f 162 234 237
f 162 237 238
f 162 238 163
f 163 238 164
f 165 239 240
f 165 240 241
f 165 241 242
f 165 242 243
f 165 243 244
f 165 244 166
f 165 170 245
f 165 245 239
f 166 244 246
f 166 246 167
f 168 247 248
f 168 248 169
f 169 248 170
f 170 231 249
f 170 249 245
f 170 248 250
f 170 250 251
f 170 251 252
f 170 252 233
f 170 233 231
f 171 253 254
f 171 254 255
f 171 255 256
f 171 256 172
f 172 256 257
f 172 257 258
f 173 258 259
f 173 259 260
f 173 260 261
f 174 261 357
f 174 357 262
f 175 263 176
f 175 179 263
f 176 263 264
f 176 264 177
f 177 264 265
f 177 265 266
f 178 180 267
f 178 267 268
f 178 268 179
f 179 268 269
f 179 269 263
f 180 270 271
f 180 271 272
f 180 272 267
f 181 273 270
f 182 199 208
f 185 274 186
f 186 274 275
f 186 275 276
f 186 276 277
f 186 277 278
f 186 278 187
f 187 278 188
f 188 278 279
f 188 279 280
f 188 280 189
f 189 280 281
f 189 281 190
f 190 281 191
f 191 282 192
f 191 281 282
f 192 194 193
f 192 282 280
f 192 280 279
f 192 279 283
f 192 283 284
f 192 284 201
f 194 200 195
f 195 200 196
f 197 208 199
f 197 199 198
f 197 205 209
f 197 209 206
f 197 206 208
f 201 284 283
f 201 283 285
f 201 285 286
f 201 286 287
f 201 287 202
f 202 287 203
f 203 288 204
f 203 287 289
f 203 289 288
f 204 288 290
f 204 290 205
f 205 291 292
f 205 292 293
f 205 293 294
f 205 294 209
f 205 290 295
f 205 295 291
f 209 294 296
f 209 296 211
f 209 211 210
f 211 296 294
f 211 294 214
f 213 216 217
f 214 297 215
f 214 294 297
f 215 298 299
f 215 299 300
f 215 300 301
f 215 301 216
f 215 297 298
f 216 301 302
f 216 302 303
f 216 303 236
f 216 236 218
f 219 303 220
f 219 236 303
f 220 304 221
f 220 303 222
f 220 222 304
f 221 304 222
f 222 303 223
f 223 303 305
f 223 305 224
f 224 305 306
f 224 306 226
f 226 307 227
f 226 306 308
f 226 308 307
f 227 307 308
f 227 308 309
f 227 309 228
f 228 309 229
f 229 309 310
f 229 310 311
f 229 311 245
f 229 245 249
f 229 249 312
f 229 312 230
f 230 312 231
f 231 312 249
f 231 233 232
f 233 313 314
f 233 314 315
f 233 315 234
f 233 252 316
f 233 316 317
f 233 317 313
f 234 315 318
f 234 318 319
f 234 319 237
f 237 319 318
f 237 318 238
f 238 318 320
f 239 321 240
f 239 245 321
f 240 321 322
f 240 322 323
f 240 323 241
f 241 323 322
f 241 322 324
f 241 324 325
f 241 325 326
f 241 326 327
f 241 327 328
f 241 328 329
f 241 329 242
f 242 329 243
f 243 329 330
f 243 330 244
f 244 330 331
f 244 331 332
f 244 332 333
f 244 333 246
f 245 311 321
f 247 334 248
f 248 334 335
f 248 335 250
f 250 335 336
f 250 336 337
f 250 337 316
f 250 316 251
f 251 316 252
f 253 338 254
f 254 257 255
f 254 338 257
f 255 257 256
f 257 339 340
f 257 340 341
f 257 341 342
f 257 342 258
f 257 338 343
f 257 343 344
f 257 344 328
f 257 328 345
f 257 345 327
f 257 327 346
f 257 346 347
f 257 347 348
f 257 348 339
f 258 349 350
f 258 350 351
f 258 351 259
f 258 342 349
f 259 350 352
f 259 352 340
f 259 340 339
f 259 339 353
f 259 353 354
f 259 354 355
f 259 355 261
f 259 261 260
f 259 351 350
f 261 355 356
f 261 356 357
f 262 357 358
f 263 269 359
f 263 359 264
f 264 359 265
f 265 360 361
f 265 361 362
f 265 362 266
f 265 359 363
f 265 363 283
f 265 283 364
f 265 364 279
f 265 279 277
f 265 277 360
f 267 365 366
f 267 366 268
f 267 272 365
f 268 366 269
f 269 366 363
f 269 363 359
f 270 273 367
f 270 367 368
f 270 368 369
f 270 369 287
f 270 287 286
f 270 286 370
f 270 370 271
f 271 370 272
f 272 370 286
f 272 286 285
f 272 285 371
f 272 371 365
f 273 372 367
f 276 361 360
f 276 360 277
f 277 279 278
f 279 364 283
f 280 282 281
f 283 363 366
f 283 366 371
f 283 371 285
f 287 369 368
f 287 368 289
f 288 373 290
f 288 289 368
f 288 368 374
f 288 374 375
f 288 375 373
f 290 373 376
f 290 376 377
f 290 377 295
f 291 378 379
f 291 379 380
f 291 380 292
f 291 295 378
f 292 380 293
f 293 380 381
f 293 381 382
f 293 382 383
f 293 383 384
f 293 384 385
f 293 385 294
f 294 385 386
f 294 386 387
f 294 387 388
f 294 388 299
f 294 299 297
f 295 377 424
f 295 424 378
f 297 299 298
f 299 389 390
f 299 390 301
f 299 301 300
f 299 388 389
f 301 390 391
f 301 391 392
f 301 392 393
f 301 393 302
f 302 393 392
f 302 392 394
f 302 394 395
f 302 395 303
f 303 395 348
f 303 348 306
f 303 306 305
f 306 348 347
f 306 347 396
f 306 396 308
f 308 397 398
f 308 398 310
f 308 310 309
f 308 396 397
f 310 398 399
f 310 399 400
f 310 400 311
f 311 400 401
f 311 401 321
f 313 317 402
f 313 402 318
f 313 318 315
f 313 315 314
f 316 337 317
f 318 402 403
f 318 403 320
f 321 401 326
f 321 326 325
f 321 325 322
f 322 325 324
f 326 401 400
f 326 400 399
f 326 399 398
f 326 398 404
f 326 404 346
f 326 346 327
f 327 345 328
f 328 344 329
f 329 344 405
f 329 405 331
f 329 331 330
f 338 406 343
f 339 348 407
f 339 407 408
f 339 408 409
f 339 409 353
f 340 352 341
f 341 352 349
f 341 349 410
f 341 410 342
f 342 410 349
f 343 406 344
f 344 406 411
f 344 411 412
f 344 412 405
f 346 404 347
f 347 398 397
f 347 397 396
f 347 404 398
f 348 395 413
f 348 413 414
f 348 414 407
f 349 352 350
f 353 409 415
f 353 415 354
f 354 415 356
f 354 356 355
f 356 415 416
f 356 416 357
f 357 416 417
f 357 417 418
f 357 418 358
f 358 418 419
f 365 371 366
f 367 372 421
f 367 421 420
f 367 420 375
f 367 375 368
f 368 375 374
f 373 422 376
f 373 375 422
f 375 420 422
f 376 420 423
f 376 423 424
f 376 424 377
f 376 422 420
f 378 424 379
f 379 424 425
f 379 425 426
f 379 426 381
f 379 381 380
f 381 426 427
f 381 427 428
f 381 428 382
f 382 428 383
f 383 428 429
f 383 429 430
f 383 430 431
f 383 431 384
f 384 431 385
f 385 431 386
f 386 431 432
f 386 432 387
f 387 432 433
f 387 433 388
f 388 433 434
f 388 434 389
f 389 434 435
f 389 435 390
f 390 436 437
f 390 437 391
f 390 435 436
f 391 438 439
f 391 439 440
f 391 440 441
f 391 441 392
f 391 437 442
f 391 442 438
f 392 443 444
f 392 444 445
f 392 445 395
f 392 395 394
f 392 441 443
f 395 445 413
f 407 414 446
f 407 446 415
f 407 415 409
f 407 409 408
f 413 445 414
f 414 445 447
f 414 447 446
f 415 446 416
f 416 446 447
f 416 447 417
f 417 445 448
f 417 448 449
f 417 449 418
f 417 447 445
f 418 449 450
f 418 450 451
f 418 451 419
f 420 421 453
f 420 453 452
f 420 452 426
f 420 426 425
f 420 425 423
f 423 425 424
f 426 452 427
f 427 452 429
f 427 429 428
f 429 452 454
f 429 454 432
f 429 432 430
f 430 432 431
f 432 454 452
f 432 452 433
f 433 452 455
f 433 455 456
f 433 456 457
f 433 457 435
f 433 435 434
f 435 457 436
f 436 457 458
f 436 458 437
f 437 458 450
f 437 450 459
f 437 459 460
f 437 460 442
f 438 460 439
f 438 442 460
f 439 460 461
f 439 461 462
f 439 462 463
f 439 463 464
f 439 464 444
f 439 444 443
f 439 443 440
f 440 443 441
f 444 464 465
f 444 465 445
f 445 465 448
f 448 465 463
f 448 463 449
f 449 463 466
f 449 466 450
f 450 458 456
f 450 456 452
f 450 452 453
f 450 453 451
f 450 466 461
f 450 461 459
f 452 456 455
f 456 458 457
f 459 461 460
f 461 466 463
f 461 463 462
f 463 465 464
