v -6.01652e-05 0.616374 -0.339897
v -6.01652e-05 0.616374 -0.292604
v -6.01652e-05 0.628441 -0.339266
v 0.00745795 0.616374 -0.339897
v 0.160326 0.616374 -0.243673
v -6.01652e-05 0.739218 -0.243673
v 0.000960812 0.628441 -0.339266
v -6.01652e-05 0.749414 -0.32283
v 0.0122612 0.622478 -0.33855
v 0.0151385 0.616374 -0.338918
v 0.236993 0.616374 -0.243673
v -6.01652e-05 0.853292 -0.243673
v 0.00736514 0.634825 -0.337674
v 0.00502152 0.749414 -0.32283
v 0.00847892 0.72072 -0.326645
v 0.00847892 0.703766 -0.328877
v 0.00847892 0.686788 -0.331062
v 0.00847892 0.669833 -0.33321
v 0.00847892 0.652879 -0.335329
v -6.01652e-05 0.77156 -0.317998
v 0.0254411 0.635924 -0.335206
v 0.0241417 0.617684 -0.337589
v 0.022819 0.616374 -0.337919
v 0.230565 0.616374 -0.249108
v 0.23683 0.617333 -0.243673
v 0.0761652 0.854859 -0.243673
v -6.01652e-05 0.854228 -0.245886
v 0.00980156 0.754886 -0.321163
v 0.0163219 0.745579 -0.322105
v 0.00980156 0.739008 -0.323904
v 0.00847892 0.77156 -0.317998
v 0.0254411 0.733044 -0.322755
v 0.0339802 0.729232 -0.322199
v 0.0254411 0.72072 -0.32445
v 0.0254411 0.703766 -0.326682
v 0.0254411 0.686788 -0.328867
v 0.0254411 0.669833 -0.331015
v 0.0254411 0.652879 -0.333134
v -6.01652e-05 0.780096 -0.31569
v 0.0763276 0.635924 -0.32851
v 0.0763276 0.61897 -0.330563
v 0.0763276 0.616374 -0.330864
v 0.223372 0.616374 -0.254637
v 0.22184 0.61897 -0.255437
v 0.23031 0.61897 -0.248919
v 0.230171 0.653931 -0.243673
v 0.233535 0.635667 -0.243673
v 0.236552 0.61897 -0.243673
v 0.0932898 0.854415 -0.243673
v 0.0763276 0.85528 -0.245886
v -6.01652e-05 0.854602 -0.254307
v 0.0254411 0.754606 -0.319185
v 0.0254411 0.77156 -0.315794
v 0.0593654 0.754606 -0.31472
v 0.0593654 0.737651 -0.317612
v 0.0254411 0.74151 -0.321511
v 0.00847892 0.788515 -0.313411
v 0.0593654 0.786574 -0.307402
v 0.0407326 0.735967 -0.320315
v 0.0577179 0.71906 -0.320419
v 0.0452806 0.72362 -0.321455
v 0.0509656 0.712301 -0.322199
v 0.0424033 0.703766 -0.32445
v 0.0678813 0.695324 -0.322199
v 0.0593654 0.686788 -0.324403
v 0.0779287 0.671447 -0.323904
v 0.0593654 0.669833 -0.32655
v 0.0763276 0.652879 -0.326437
v -6.01652e-05 0.788515 -0.313411
v 0.0846347 0.678159 -0.322171
v 0.0789033 0.616374 -0.330243
v 0.222072 0.616374 -0.255635
v 0.220819 0.629353 -0.254655
v 0.21177 0.616374 -0.263547
v 0.196339 0.616374 -0.275396
v 0.193833 0.61897 -0.276931
v 0.219705 0.640648 -0.253798
v 0.227456 0.635363 -0.248627
v 0.218476 0.652879 -0.252866
v 0.216759 0.669833 -0.251538
v 0.226945 0.669833 -0.243673
v 0.122318 0.850884 -0.243673
v 0.0932898 0.854392 -0.245886
v 0.0254411 0.854275 -0.26285
v 0.00847892 0.854976 -0.26285
v -6.01652e-05 0.854976 -0.26285
v 0.0593654 0.77156 -0.311329
v 0.0763276 0.754606 -0.312234
v 0.0763276 0.737651 -0.315191
v 0.0763276 0.72072 -0.317621
v 0.0254411 0.788515 -0.311207
v -6.01652e-05 0.796372 -0.310642
v 0.00847892 0.804113 -0.307901
v 0.0254411 0.801283 -0.306808
v 0.0390619 0.798874 -0.305904
v 0.0503623 0.796793 -0.30516
v 0.0763276 0.782692 -0.306121
v 0.0593654 0.795039 -0.304576
v 0.0746569 0.702082 -0.320362
v 0.0622659 0.706619 -0.321455
v 0.0804811 0.686788 -0.321596
v 0.0932898 0.737651 -0.310482
v 0.0932898 0.72072 -0.312997
v 0.0932898 0.703766 -0.315361
v 0.0932898 0.686788 -0.317687
v 0.0927329 0.671447 -0.319976
v 0.086723 0.66684 -0.322886
v 0.0932898 0.616374 -0.326729
v 0.192162 0.635924 -0.27565
v 0.194274 0.616374 -0.276978
v 0.182765 0.61897 -0.285408
v 0.179423 0.652879 -0.282837
v 0.176569 0.669155 -0.282489
v 0.188751 0.669833 -0.273032
v 0.179586 0.6877 -0.277233
v 0.206526 0.686788 -0.256699
v 0.214995 0.686788 -0.250191
v 0.223441 0.686788 -0.243673
v 0.226644 0.671307 -0.243673
v 0.127168 0.849785 -0.243673
v 0.104985 0.848849 -0.25571
v 0.0932898 0.850065 -0.257924
v 0.0763276 0.851211 -0.261079
v 0.0424033 0.853269 -0.26285
v 0.0254411 0.849831 -0.274011
v 0.00847892 0.850393 -0.274991
v -6.01652e-05 0.852708 -0.268878
v 0.0763276 0.77156 -0.308777
v 0.0850523 0.78033 -0.305339
v 0.0874191 0.77156 -0.30629
v -6.01652e-05 0.804113 -0.307901
v 0.00847892 0.812578 -0.30468
v 0.0254411 0.809772 -0.303587
v 0.0593654 0.805469 -0.300677
v 0.0763276 0.791181 -0.303163
v 0.0935218 0.75339 -0.307581
v 0.102177 0.746935 -0.305405
v 0.103987 0.737651 -0.306158
v 0.10705 0.72072 -0.30743
v 0.11125 0.703415 -0.308136
v 0.110229 0.686788 -0.310858
v 0.0976057 0.652879 -0.320569
v 0.0999493 0.638965 -0.321483
v 0.101829 0.627669 -0.322218
v 0.089113 0.652879 -0.323753
v 0.103175 0.61897 -0.322783
v 0.103592 0.616374 -0.322943
v 0.181094 0.635924 -0.284127
v 0.18302 0.616374 -0.285597
v 0.16991 0.663052 -0.288526
v 0.176732 0.703766 -0.276828
v 0.186245 0.693944 -0.27112
v 0.204739 0.703766 -0.255334
v 0.213208 0.703766 -0.248825
v 0.219891 0.703766 -0.243673
v 0.222467 0.691465 -0.243673
v 0.142738 0.844149 -0.243673
v 0.127168 0.84492 -0.250878
v 0.116285 0.847002 -0.253064
v 0.0673244 0.847797 -0.271223
v 0.0932898 0.843494 -0.266401
v 0.0763276 0.846534 -0.269556
v 0.0607577 0.851305 -0.264479
v 0.0424033 0.849106 -0.2729
v 0.00847892 0.843283 -0.283468
v -6.01652e-05 0.850393 -0.274991
v 0.0763276 0.805469 -0.297728
v 0.0881849 0.816273 -0.289666
v 0.0936146 0.805867 -0.292152
v 0.0917351 0.786995 -0.300149
v 0.116355 0.794314 -0.287311
v 0.121297 0.783019 -0.289346
v 0.14413 0.77156 -0.282799
v 0.133294 0.77156 -0.287311
v 0.0958886 0.77156 -0.302796
v 0.0993228 0.758254 -0.304227
v -6.01652e-05 0.812578 -0.30468
v -6.01652e-05 0.817536 -0.301986
v 0.00847892 0.822424 -0.29933
v 0.0254411 0.822424 -0.297135
v 0.0424033 0.822424 -0.294903
v 0.0587389 0.823593 -0.292086
v 0.0763276 0.819267 -0.291333
v 0.135568 0.762908 -0.288253
v 0.144083 0.756196 -0.286115
v 0.138398 0.751612 -0.289421
v 0.149861 0.737651 -0.287151
v 0.141392 0.737651 -0.290664
v 0.151857 0.727011 -0.28798
v 0.115542 0.72072 -0.303917
v 0.14413 0.703766 -0.29446
v 0.119464 0.697545 -0.305556
v 0.145383 0.721094 -0.291502
v 0.14413 0.686788 -0.296805
v 0.110229 0.669833 -0.313166
v 0.110229 0.652879 -0.315436
v 0.108581 0.634358 -0.318554
v 0.111667 0.61897 -0.31927
v 0.104869 0.616374 -0.322416
v 0.175827 0.616374 -0.290805
v 0.172624 0.635924 -0.2904
v 0.170931 0.652879 -0.289232
v 0.162067 0.669155 -0.291361
v 0.158076 0.686788 -0.290796
v 0.168401 0.67437 -0.28766
v 0.172973 0.737651 -0.273945
v 0.174922 0.72072 -0.275434
v 0.161092 0.61897 -0.298557
v 0.161092 0.635924 -0.296306
v 0.161092 0.652879 -0.294027
v 0.203718 0.71333 -0.254552
v 0.216387 0.720182 -0.243673
v 0.146798 0.841927 -0.243673
v 0.14536 0.840126 -0.246696
v 0.140185 0.833508 -0.256624
v 0.127168 0.836455 -0.259459
v 0.056024 0.848428 -0.272005
v 0.0763276 0.838045 -0.277845
v 0.063983 0.830024 -0.287735
v 0.0526827 0.83124 -0.288526
v 0.0424033 0.832129 -0.289195
v 0.0254411 0.841997 -0.282489
v 0.0932898 0.835028 -0.274982
v 0.00847892 0.834794 -0.291418
v -6.01652e-05 0.839074 -0.287415
v -6.01652e-05 0.843283 -0.283468
v 0.0763276 0.827732 -0.286331
v 0.0936146 0.82212 -0.283864
v 0.110391 0.823078 -0.276338
v 0.13573 0.814005 -0.271355
v 0.0994853 0.81176 -0.287349
v 0.105054 0.800465 -0.289656
v 0.152599 0.79698 -0.271318
v 0.145824 0.790198 -0.276573
v 0.15601 0.785685 -0.273352
v 0.159259 0.77156 -0.275302
v -6.01652e-05 0.822424 -0.29933
v 0.0254411 0.833508 -0.290316
v 0.161092 0.737651 -0.281292
v 0.160025 0.721094 -0.284598
v 0.163993 0.703766 -0.285305
v 0.166545 0.686788 -0.286671
v 0.15369 0.715716 -0.28878
v 0.14413 0.669833 -0.299113
v 0.134477 0.657696 -0.304746
v 0.142807 0.652388 -0.302005
v 0.128165 0.652388 -0.30807
v 0.136287 0.646401 -0.305499
v 0.149072 0.61897 -0.303766
v 0.149467 0.616374 -0.303935
v 0.114034 0.616374 -0.31862
v 0.17455 0.616374 -0.291719
v 0.174295 0.61897 -0.29155
v 0.155523 0.703766 -0.289619
v 0.171163 0.751215 -0.272551
v 0.181465 0.737651 -0.267446
v 0.202488 0.724626 -0.253619
v 0.16086 0.616374 -0.298991
v 0.150557 0.616374 -0.303465
v 0.146404 0.635924 -0.302664
v 0.210401 0.719668 -0.248364
v 0.21293 0.735523 -0.243673
v 0.154757 0.836969 -0.243673
v 0.151486 0.83 -0.253685
v 0.143596 0.822003 -0.262718
v 0.127168 0.825417 -0.267936
v 0.116169 0.829159 -0.270216
v 0.104845 0.832456 -0.272608
v -6.01652e-05 0.834794 -0.291418
v 0.148423 0.805469 -0.269434
v 0.13993 0.805469 -0.273107
v 0.156962 0.818682 -0.2575
v 0.161997 0.805984 -0.260655
v 0.171766 0.800675 -0.256059
v 0.16144 0.790198 -0.268002
v 0.167728 0.77156 -0.270046
v 0.169376 0.76251 -0.271186
v 0.16267 0.755962 -0.276696
v 0.177312 0.755962 -0.266693
v 0.190167 0.754606 -0.257161
v 0.207732 0.754606 -0.243673
v 0.212396 0.737768 -0.243673
v 0.161301 0.832199 -0.243673
v 0.172392 0.821792 -0.243673
v 0.161997 0.823569 -0.25037
v 0.168285 0.81197 -0.253384
v 0.177683 0.805984 -0.248985
v 0.18476 0.80568 -0.243673
v 0.194877 0.788351 -0.243673
v 0.183693 0.788515 -0.252197
v 0.1752 0.788515 -0.258696
v 0.186199 0.779067 -0.254119
v 0.179539 0.772683 -0.260834
v 0.188055 0.767748 -0.25555
v 0.202094 0.771981 -0.243673
v 0.177149 0.815735 -0.243673
v 0.195527 0.786878 -0.243673
f 1 2 6
f 1 6 12
f 1 12 27
f 1 27 51
f 1 51 86
f 1 86 127
f 1 127 166
f 1 166 226
f 1 226 225
f 1 225 269
f 1 269 237
f 1 237 178
f 1 178 177
f 1 177 131
f 1 131 92
f 1 92 69
f 1 69 39
f 1 39 20
f 1 20 8
f 1 8 3
f 1 3 7
f 1 7 4
f 1 4 10
f 1 10 23
f 1 23 42
f 1 42 71
f 1 71 108
f 1 108 147
f 1 147 199
f 1 199 251
f 1 251 250
f 1 250 259
f 1 259 258
f 1 258 252
f 1 252 200
f 1 200 149
f 1 149 110
f 1 110 75
f 1 75 74
f 1 74 72
f 1 72 43
f 1 43 24
f 1 24 11
f 1 11 5
f 1 5 2
f 2 5 6
f 3 8 14
f 3 14 7
f 4 7 9
f 4 9 10
f 5 11 25
f 5 25 48
f 5 48 47
f 5 47 46
f 5 46 81
f 5 81 119
f 5 119 118
f 5 118 156
f 5 156 155
f 5 155 212
f 5 212 262
f 5 262 282
f 5 282 281
f 5 281 295
f 5 295 297
f 5 297 289
f 5 289 288
f 5 288 296
f 5 296 284
f 5 284 283
f 5 283 263
f 5 263 213
f 5 213 157
f 5 157 120
f 5 120 82
f 5 82 49
f 5 49 26
f 5 26 12
f 5 12 6
f 7 13 9
f 7 14 15
f 7 15 16
f 7 16 17
f 7 17 18
f 7 18 19
f 7 19 13
f 8 20 31
f 8 31 14
f 9 13 19
f 9 19 21
f 9 21 10
f 10 21 22
f 10 22 23
f 11 24 25
f 12 26 27
f 14 28 29
f 14 29 30
f 14 30 15
f 14 31 28
f 15 30 32
f 15 32 33
f 15 33 34
f 15 34 35
f 15 35 16
f 16 35 36
f 16 36 17
f 17 36 37
f 17 37 18
f 18 37 38
f 18 38 19
f 19 38 21
f 20 39 31
f 21 40 22
f 21 38 68
f 21 68 40
f 22 40 41
f 22 41 23
f 23 41 42
f 24 43 44
f 24 44 45
f 24 45 46
f 24 46 47
f 24 47 48
f 24 48 25
f 26 49 50
f 26 50 27
f 27 50 51
f 28 52 29
f 28 31 53
f 28 53 52
f 29 52 54
f 29 54 55
f 29 55 56
f 29 56 32
f 29 32 30
f 31 39 57
f 31 57 58
f 31 58 53
f 32 56 33
f 33 56 59
f 33 59 55
f 33 55 60
f 33 60 61
f 33 61 34
f 34 60 62
f 34 62 63
f 34 63 35
f 34 61 60
f 35 63 64
f 35 64 36
f 36 65 66
f 36 66 37
f 36 64 65
f 37 67 68
f 37 68 38
f 37 66 67
f 39 69 57
f 40 68 70
f 40 70 41
f 41 70 42
f 42 70 71
f 43 72 44
f 44 73 45
f 44 72 74
f 44 74 75
f 44 75 76
f 44 76 73
f 45 73 77
f 45 77 78
f 45 78 46
f 46 78 79
f 46 79 80
f 46 80 81
f 49 82 83
f 49 83 50
f 50 83 84
f 50 84 85
f 50 85 86
f 50 86 51
f 52 53 87
f 52 87 54
f 53 58 87
f 54 88 89
f 54 89 55
f 54 87 88
f 55 89 90
f 55 90 60
f 55 59 56
f 57 91 58
f 57 69 92
f 57 92 93
f 57 93 94
f 57 94 95
f 57 95 96
f 57 96 91
f 58 97 87
f 58 91 98
f 58 98 97
f 60 90 99
f 60 99 64
f 60 64 100
f 60 100 62
f 62 100 64
f 62 64 63
f 64 99 101
f 64 101 70
f 64 70 65
f 65 70 66
f 66 70 68
f 66 68 67
f 70 101 99
f 70 99 90
f 70 90 89
f 70 89 102
f 70 102 103
f 70 103 104
f 70 104 105
f 70 105 106
f 70 106 107
f 70 107 71
f 71 107 108
f 73 76 109
f 73 109 77
f 75 110 76
f 76 110 111
f 76 111 148
f 76 148 109
f 77 109 112
f 77 112 79
f 77 79 78
f 79 113 80
f 79 112 113
f 80 114 115
f 80 115 116
f 80 116 117
f 80 117 118
f 80 118 119
f 80 119 81
f 80 113 114
f 82 120 121
f 82 121 122
f 82 122 83
f 83 122 123
f 83 123 124
f 83 124 84
f 84 124 125
f 84 125 126
f 84 126 85
f 85 126 127
f 85 127 86
f 87 97 128
f 87 128 88
f 88 128 129
f 88 129 130
f 88 130 89
f 89 130 102
f 91 96 98
f 92 131 93
f 93 131 177
f 93 177 132
f 93 132 133
f 93 133 94
f 94 133 95
f 95 133 134
f 95 134 96
f 96 134 98
f 97 98 135
f 97 135 129
f 97 129 128
f 98 134 135
f 102 136 137
f 102 137 138
f 102 138 103
f 102 130 136
f 103 138 139
f 103 139 104
f 104 140 141
f 104 141 105
f 104 139 140
f 105 141 142
f 105 142 106
f 106 142 107
f 107 142 143
f 107 143 144
f 107 144 145
f 107 145 108
f 108 144 146
f 108 146 147
f 108 145 144
f 109 148 112
f 110 149 111
f 111 149 150
f 111 150 148
f 112 148 150
f 112 150 113
f 113 150 115
f 113 115 114
f 115 151 152
f 115 152 116
f 115 150 151
f 116 152 153
f 116 153 154
f 116 154 117
f 117 154 155
f 117 155 156
f 117 156 118
f 120 157 158
f 120 158 159
f 120 159 121
f 121 160 122
f 121 159 158
f 121 158 161
f 121 161 162
f 121 162 160
f 122 160 123
f 123 160 163
f 123 163 124
f 124 163 164
f 124 164 125
f 125 164 165
f 125 165 126
f 126 166 127
f 126 165 226
f 126 226 166
f 129 135 167
f 129 167 168
f 129 168 169
f 129 169 170
f 129 170 171
f 129 171 172
f 129 172 173
f 129 173 174
f 129 174 175
f 129 175 130
f 130 175 176
f 130 176 136
f 132 177 178
f 132 178 179
f 132 179 180
f 132 180 181
f 132 181 182
f 132 182 133
f 133 182 134
f 134 183 167
f 134 167 135
f 134 182 183
f 136 176 137
f 137 176 184
f 137 184 185
f 137 185 186
f 137 186 187
f 137 187 188
f 137 188 138
f 138 188 189
f 138 189 139
f 139 189 190
f 139 190 140
f 140 191 192
f 140 192 141
f 140 190 193
f 140 193 191
f 141 192 194
f 141 194 244
f 141 244 195
f 141 195 142
f 142 195 143
f 143 195 196
f 143 196 144
f 144 197 198
f 144 198 146
f 144 196 197
f 146 198 199
f 146 199 147
f 149 200 201
f 149 201 202
f 149 202 150
f 150 203 204
f 150 204 205
f 150 205 206
f 150 206 207
f 150 207 151
f 150 202 208
f 150 208 209
f 150 209 210
f 150 210 203
f 151 153 152
f 151 207 211
f 151 211 153
f 153 211 154
f 154 211 212
f 154 212 155
f 157 213 214
f 157 214 215
f 157 215 158
f 158 215 216
f 158 216 223
f 158 223 161
f 160 217 163
f 160 162 218
f 160 218 219
f 160 219 220
f 160 220 221
f 160 221 222
f 160 222 165
f 160 165 217
f 161 223 162
f 162 223 218
f 163 217 164
f 164 217 165
f 165 222 224
f 165 224 225
f 165 225 226
f 167 183 168
f 168 183 227
f 168 227 228
f 168 228 229
f 168 229 230
f 168 230 231
f 168 231 169
f 169 231 232
f 169 232 170
f 170 232 171
f 171 232 233
f 171 233 172
f 172 234 173
f 172 233 234
f 173 234 235
f 173 235 236
f 173 236 185
f 173 185 184
f 173 184 174
f 174 184 175
f 175 184 176
f 178 237 179
f 179 237 269
f 179 269 224
f 179 224 238
f 179 238 221
f 179 221 220
f 179 220 180
f 180 220 219
f 180 219 181
f 181 219 182
f 182 219 183
f 183 219 227
f 185 187 186
f 185 236 187
f 187 239 189
f 187 189 188
f 187 236 239
f 189 239 240
f 189 240 241
f 189 241 242
f 189 242 205
f 189 205 243
f 189 243 191
f 189 191 193
f 189 193 190
f 191 194 192
f 191 243 194
f 194 243 244
f 195 244 245
f 195 245 196
f 196 246 247
f 196 247 248
f 196 248 197
f 196 245 246
f 197 249 198
f 197 248 249
f 198 249 250
f 198 250 251
f 198 251 199
f 200 252 253
f 200 253 201
f 201 253 208
f 201 208 202
f 203 210 204
f 204 254 205
f 204 210 209
f 204 209 244
f 204 244 254
f 205 254 243
f 205 242 239
f 205 239 206
f 206 239 255
f 206 255 256
f 206 256 207
f 207 256 257
f 207 257 211
f 208 249 209
f 208 253 258
f 208 258 259
f 208 259 249
f 209 249 260
f 209 260 244
f 211 257 261
f 211 261 212
f 212 261 257
f 212 257 262
f 213 263 214
f 214 263 264
f 214 264 215
f 215 264 265
f 215 265 266
f 215 266 267
f 215 267 268
f 215 268 216
f 216 268 223
f 218 223 227
f 218 227 219
f 221 238 222
f 222 238 224
f 223 268 227
f 224 269 225
f 227 268 228
f 228 268 267
f 228 267 229
f 229 267 266
f 229 266 230
f 230 266 265
f 230 265 270
f 230 270 233
f 230 233 271
f 230 271 231
f 231 271 233
f 231 233 232
f 233 270 272
f 233 272 273
f 233 273 274
f 233 274 275
f 233 275 235
f 233 235 234
f 235 275 276
f 235 276 236
f 236 276 277
f 236 277 278
f 236 278 239
f 239 242 241
f 239 241 240
f 239 278 255
f 243 254 244
f 244 246 245
f 244 260 246
f 246 248 247
f 246 260 248
f 248 260 249
f 249 259 250
f 252 258 253
f 255 278 277
f 255 277 279
f 255 279 280
f 255 280 281
f 255 281 282
f 255 282 256
f 256 282 262
f 256 262 257
f 263 283 264
f 264 283 284
f 264 284 285
f 264 285 272
f 264 272 265
f 265 272 270
f 272 285 284
f 272 284 286
f 272 286 273
f 273 286 274
f 274 286 287
f 274 287 288
f 274 288 289
f 274 289 290
f 274 290 291
f 274 291 275
f 275 291 292
f 275 292 276
f 276 292 293
f 276 293 277
f 277 294 281
f 277 281 280
f 277 280 279
f 277 293 294
f 281 294 295
f 284 296 286
f 286 296 288
f 286 288 287
f 289 297 292
f 289 292 290
f 290 292 291
f 292 297 295
f 292 295 294
f 292 294 293
