v 0.092216 -0.660281 0.166686
v 0.0938898 -0.661727 0.166686
v 0.0938898 -0.659007 0.166653
v -6.01652e-05 -0.70043 0.166686
v 0.0938898 -0.781829 0.166686
v 0.0938898 -0.788526 0.0355209
v -6.01652e-05 -0.772739 0.107698
v -6.01652e-05 -0.81862 0.166686
v 0.0938898 -0.827779 -6.14666e-05
v 0.089871 -0.784635 0.166686
v 0.0893192 -0.800784 0.155375
v 0.0938898 -0.798856 0.153938
v -6.01652e-05 -0.781123 0.102442
v -6.01652e-05 -0.834029 0.155032
v 0.00696585 -0.81862 0.166686
v 0.0938898 -0.83489 -6.14666e-05
v 0.0886754 -0.83489 -6.14666e-05
v -6.01652e-05 -0.78207 0.101854
v 0.0762971 -0.793708 0.166686
v 0.0814287 -0.812095 0.151082
v 0.0938898 -0.806242 0.147932
v 0.0938898 -0.805622 0.148438
v -6.01652e-05 -0.83489 0.154346
v 0.00848325 -0.834029 0.155032
v 0.00900744 -0.821134 0.164564
v 0.0116744 -0.817794 0.166686
v 0.0938898 -0.83489 0.122257
v -6.01652e-05 -0.83489 0.0886823
v 0.0628705 -0.801507 0.166686
v 0.0759845 -0.806052 0.157905
v 0.0833599 -0.830018 0.134809
v 0.0701264 -0.815194 0.153563
v 0.0593483 -0.826523 0.149107
v 0.0720576 -0.833495 0.137796
v 0.0938898 -0.810546 0.144276
v 0.00848325 -0.83489 0.154346
v 0.0215605 -0.83489 0.152649
v 0.0254413 -0.83489 0.152143
v 0.0254413 -0.832617 0.153922
v 0.0254413 -0.822442 0.161463
v 0.0254413 -0.81528 0.166686
v 0.0934391 -0.83489 0.1226
v 0.0938898 -0.825765 0.130891
v 0.0932644 -0.826023 0.131136
v 0.0589344 -0.803745 0.166686
v 0.0602587 -0.805278 0.165005
v 0.0938898 -0.817277 0.13853
v 0.0932644 -0.817536 0.138742
v 0.0732531 -0.83489 0.135853
v 0.080785 -0.83489 0.131708
v 0.0932644 -0.83489 0.12273
v 0.0593483 -0.818035 0.155799
v 0.047016 -0.829467 0.151441
v 0.0593483 -0.83489 0.142219
v 0.0667329 -0.83489 0.138987
v 0.0705586 -0.83489 0.137273
v 0.0321547 -0.83489 0.151066
v 0.0357228 -0.831567 0.153122
v 0.0423718 -0.811011 0.166686
v 0.0938898 -0.825128 0.131479
v 0.0417832 -0.823269 0.157676
v 0.0386933 -0.83489 0.149499
v 0.0447996 -0.83489 0.147654
f 1 2 3
f 1 3 4
f 1 4 8
f 1 8 15
f 1 15 26
f 1 26 41
f 1 41 59
f 1 59 45
f 1 45 29
f 1 29 19
f 1 19 10
f 1 10 5
f 1 5 2
f 2 5 12
f 2 12 22
f 2 22 21
f 2 21 35
f 2 35 47
f 2 47 60
f 2 60 43
f 2 43 27
f 2 27 16
f 2 16 9
f 2 9 6
f 2 6 3
f 3 6 4
f 4 7 13
f 4 13 18
f 4 18 28
f 4 28 23
f 4 23 14
f 4 14 8
f 4 6 9
f 4 9 7
f 5 10 11
f 5 11 12
f 7 9 13
f 8 14 24
f 8 24 15
f 9 16 17
f 9 17 18
f 9 18 13
f 10 19 20
f 10 20 11
f 11 20 21
f 11 21 22
f 11 22 12
f 14 23 36
f 14 36 24
f 15 25 26
f 15 24 25
f 16 27 42
f 16 42 51
f 16 51 50
f 16 50 49
f 16 49 56
f 16 56 55
f 16 55 54
f 16 54 63
f 16 63 62
f 16 62 57
f 16 57 38
f 16 38 37
f 16 37 36
f 16 36 23
f 16 23 28
f 16 28 17
f 17 28 18
f 19 29 30
f 19 30 20
f 20 31 21
f 20 30 32
f 20 32 33
f 20 33 34
f 20 34 31
f 21 31 35
f 24 36 37
f 24 37 38
f 24 38 39
f 24 39 25
f 25 40 26
f 25 39 40
f 26 40 41
f 27 43 44
f 27 44 42
f 29 45 30
f 30 45 46
f 30 46 32
f 31 44 47
f 31 47 48
f 31 48 35
f 31 34 49
f 31 49 50
f 31 50 51
f 31 51 42
f 31 42 44
f 32 52 33
f 32 46 52
f 33 52 53
f 33 53 54
f 33 54 55
f 33 55 34
f 34 55 56
f 34 56 49
f 35 48 47
f 38 57 58
f 38 58 39
f 39 58 40
f 40 58 41
f 41 58 59
f 43 60 44
f 44 60 47
f 45 59 53
f 45 53 52
f 45 52 46
f 53 59 61
f 53 61 58
f 53 58 62
f 53 62 63
f 53 63 54
f 57 62 58
f 58 61 59
