v -0.339757 0.0190472 -7.93506e-05
v -0.285245 0.0190472 -0.182647
v -0.382864 0.0190472 -7.93506e-05
v -0.304575 -0.318263 -7.93506e-05
v -0.241806 -0.318263 -0.182647
v -0.336222 0.0190472 -0.182647
v -0.382851 0.0190472 -0.00848024
v -0.382726 0.00844845 -0.00848024
v -0.382837 0.016868 -7.93506e-05
v -0.35275 -0.318263 -7.93506e-05
v -0.301662 -0.318263 -0.182647
v -0.336209 0.0179906 -0.182647
v -0.336982 0.0190472 -0.181324
v -0.382036 0.0190472 -0.0148792
v -0.382726 0.00844845 -7.93506e-05
v -0.380669 0.0190472 -0.0254429
v -0.380531 0.00844845 -0.0254429
v -0.380075 -0.0084897 -0.0254429
v -0.382257 -0.0084897 -0.00848024
v -0.382492 -7.01591e-05 -7.93506e-05
v -0.353496 -0.313707 -7.93506e-05
v -0.35275 -0.318263 -0.00848024
v -0.302201 -0.318263 -0.181878
v -0.30267 -0.313707 -0.182593
v -0.302629 -0.313707 -0.182647
v -0.336057 0.00844845 -0.182647
v -0.336899 0.00844845 -0.181145
v -0.340434 0.00844845 -0.172673
v -0.340503 0.0190472 -0.172852
v -0.379827 0.0190472 -0.0318419
v -0.378308 0.00844845 -0.0424056
v -0.381691 -0.0254609 -0.00848024
v -0.374014 0.00844845 -0.0750261
v -0.373779 -0.0084897 -0.0732565
v -0.377272 -0.0254609 -0.0424056
v -0.378929 -0.042399 -0.0254429
v -0.381125 -0.042399 -0.00848024
v -0.381981 -0.0170413 -7.93506e-05
v -0.382257 -0.0084897 -7.93506e-05
v -0.356188 -0.297165 -7.93506e-05
v -0.353496 -0.313707 -0.00848024
v -0.350555 -0.318263 -0.0254429
v -0.307406 -0.318263 -0.173406
v -0.302711 -0.31331 -0.182647
v -0.30684 -0.291618 -0.182647
v -0.336002 0.00663246 -0.182647
v -0.336651 -0.0084897 -0.180556
v -0.345239 0.00844845 -0.161091
v -0.340185 -0.0084897 -0.172065
v -0.345377 0.0190472 -0.161091
v -0.373655 0.0190472 -0.078726
v -0.372895 0.00844845 -0.0835163
v -0.372661 -0.0084897 -0.0817468
v -0.372288 -0.0440829 -0.0754908
v -0.373061 -0.0508846 -0.0678406
v -0.378267 -0.0593702 -0.0254429
v -0.381125 -0.042399 -7.93506e-05
v -0.380448 -0.0593702 -0.00848024
v -0.359005 -0.279797 -7.93506e-05
v -0.359005 -0.279797 -0.00848024
v -0.356865 -0.292971 -0.00848024
v -0.3513 -0.313707 -0.0254429
v -0.356257 -0.289174 -0.0180966
v -0.349961 -0.318263 -0.029983
v -0.311852 -0.318263 -0.163861
v -0.320551 -0.262826 -0.165613
v -0.311617 -0.279797 -0.178053
v -0.308152 -0.284387 -0.182647
v -0.335477 -0.0084897 -0.182647
v -0.334648 -0.0287296 -0.182647
v -0.333917 -0.0464602 -0.182647
v -0.336347 -0.0254609 -0.179805
v -0.339881 -0.0254609 -0.171333
v -0.366309 0.00844845 -0.11022
v -0.363865 0.0190472 -0.116459
v -0.349754 0.0190472 -0.150527
v -0.355691 -0.0084897 -0.134637
v -0.372951 0.0190472 -0.0839989
v -0.372343 0.0190472 -0.087681
v -0.371266 0.00844845 -0.0932578
v -0.370783 -0.0084897 -0.0932578
v -0.370189 -0.0254609 -0.0932578
v -0.369595 -0.042399 -0.0932578
v -0.372371 -0.0254609 -0.0795661
v -0.37157 -0.0593702 -0.076313
v -0.373531 -0.0763414 -0.0543992
v -0.377341 -0.0763414 -0.0254429
v -0.380448 -0.0593702 -7.93506e-05
v -0.379523 -0.0763414 -0.00848024
v -0.379993 -0.0679218 -7.93506e-05
v -0.360234 -0.271378 -7.93506e-05
v -0.361477 -0.262826 -0.00848024
v -0.356423 -0.273293 -0.0363819
v -0.357031 -0.279269 -0.0244241
v -0.349077 -0.313707 -0.0424056
v -0.355512 -0.284618 -0.029411
v -0.348332 -0.318263 -0.0424056
v -0.313067 -0.318263 -0.161091
v -0.313868 -0.313707 -0.161091
v -0.316823 -0.296735 -0.161091
v -0.319736 -0.281052 -0.160644
v -0.314462 -0.262826 -0.178053
v -0.32305 -0.276231 -0.154674
v -0.339039 -0.270519 -0.118425
v -0.32149 -0.249256 -0.167883
v -0.320178 -0.211946 -0.182432
v -0.310458 -0.270982 -0.182647
v -0.308966 -0.279797 -0.182647
v -0.336029 -0.042399 -0.179072
v -0.332315 -0.0763414 -0.182647
v -0.339564 -0.042399 -0.170582
v -0.343499 -0.042399 -0.161091
v -0.358591 -0.042399 -0.124681
v -0.364583 -0.042399 -0.11022
v -0.358895 -0.0254609 -0.125431
v -0.36954 0.0190472 -0.0996389
v -0.366447 0.0190472 -0.11022
v -0.365798 -0.0084897 -0.11022
v -0.371404 0.0190472 -0.0932578
v -0.365191 -0.0254609 -0.11022
v -0.368905 -0.0593702 -0.0932578
v -0.370645 -0.0763414 -0.076313
v -0.37244 -0.110251 -0.0461234
v -0.37516 -0.110251 -0.0254429
v -0.379523 -0.0763414 -7.93506e-05
v -0.377341 -0.110251 -0.00848024
v -0.377894 -0.101831 -7.93506e-05
v -0.378985 -0.08486 -7.93506e-05
v -0.361477 -0.262826 -7.93506e-05
v -0.359281 -0.262826 -0.0254429
v -0.36584 -0.228917 -0.00848024
v -0.361477 -0.245855 -0.0254429
v -0.35235 -0.279797 -0.0593682
v -0.354697 -0.279269 -0.0421732
v -0.355677 -0.268043 -0.0476785
v -0.350113 -0.279797 -0.076313
v -0.345501 -0.318263 -0.0639083
v -0.349602 -0.296735 -0.0593682
v -0.325384 -0.318263 -0.131366
v -0.323299 -0.313707 -0.138319
v -0.324776 -0.296735 -0.141894
v -0.338238 -0.279797 -0.116512
v -0.342698 -0.264048 -0.111758
v -0.341746 -0.279797 -0.108022
v -0.33723 -0.245855 -0.131026
v -0.324679 -0.244501 -0.16177
v -0.327109 -0.228917 -0.161091
v -0.322263 -0.237964 -0.16976
v -0.324058 -0.211946 -0.17396
v -0.322346 -0.195007 -0.182647
v -0.320275 -0.21046 -0.182647
v -0.334745 -0.0763414 -0.178053
v -0.336319 -0.0599315 -0.176605
v -0.339329 -0.0546156 -0.17001
v -0.33197 -0.0817563 -0.182647
v -0.363865 -0.0593702 -0.11022
v -0.367952 -0.0763414 -0.0932578
v -0.368463 -0.110251 -0.076313
v -0.373199 -0.120783 -0.0350235
v -0.373972 -0.12676 -0.025997
v -0.376209 -0.127189 -0.00848024
v -0.377341 -0.110251 -7.93506e-05
v -0.376775 -0.118769 -7.93506e-05
v -0.36584 -0.228917 -7.93506e-05
v -0.35489 -0.262562 -0.0590822
v -0.366917 -0.220497 -7.93506e-05
v -0.368008 -0.211946 -0.00848024
v -0.363644 -0.228917 -0.0254429
v -0.363589 -0.211946 -0.0424056
v -0.359184 -0.228917 -0.0593682
v -0.354863 -0.245525 -0.0759555
v -0.352584 -0.262826 -0.076313
v -0.346675 -0.279797 -0.0932578
v -0.343347 -0.318263 -0.079298
v -0.347365 -0.296735 -0.076313
v -0.349243 -0.262826 -0.0932578
v -0.344604 -0.313707 -0.076313
v -0.343858 -0.318263 -0.076313
v -0.33451 -0.318263 -0.109291
v -0.335615 -0.312914 -0.108898
v -0.339412 -0.306707 -0.102356
v -0.355802 -0.200554 -0.100479
v -0.345846 -0.245855 -0.11022
v -0.341911 -0.228917 -0.12536
v -0.350513 -0.211946 -0.11022
v -0.339812 -0.208314 -0.137246
v -0.329429 -0.211946 -0.161091
v -0.331486 -0.195007 -0.161091
v -0.32508 -0.195007 -0.176391
v -0.323809 -0.181668 -0.182647
v -0.330824 -0.0990907 -0.182647
v -0.32965 -0.116458 -0.182647
v -0.332398 -0.110251 -0.178053
v -0.338722 -0.0763414 -0.168526
v -0.339053 -0.0659407 -0.169348
v -0.358232 -0.0593702 -0.123823
v -0.362871 -0.0763414 -0.11022
v -0.365688 -0.110251 -0.0932578
v -0.367317 -0.127189 -0.076313
v -0.369554 -0.127189 -0.0593682
v -0.371956 -0.12676 -0.0413689
v -0.372813 -0.132075 -0.0320206
v -0.376209 -0.127189 -7.93506e-05
v -0.373558 -0.140825 -0.0207062
v -0.374483 -0.145547 -0.00996381
v -0.373185 -0.170904 -0.00104456
v -0.368008 -0.211946 -7.93506e-05
v -0.365812 -0.211946 -0.0254429
v -0.369927 -0.195007 -0.00848024
v -0.361352 -0.211946 -0.0593682
v -0.367731 -0.195007 -0.0254429
v -0.363272 -0.195007 -0.0593682
v -0.35565 -0.233836 -0.0813535
v -0.359115 -0.211946 -0.076313
v -0.356382 -0.222544 -0.0860009
v -0.338404 -0.318263 -0.0993708
v -0.34071 -0.318263 -0.0917206
v -0.355056 -0.211946 -0.0974582
v -0.338307 -0.318263 -0.0996389
v -0.357058 -0.211946 -0.0889859
v -0.357804 -0.194941 -0.0942051
v -0.36138 -0.161065 -0.0932578
v -0.363051 -0.14416 -0.0932578
v -0.356395 -0.189262 -0.102427
v -0.34818 -0.228917 -0.11022
v -0.353095 -0.194941 -0.108934
v -0.345543 -0.195007 -0.127165
v -0.337079 -0.195007 -0.147613
v -0.333254 -0.178036 -0.161091
v -0.325453 -0.178763 -0.179501
v -0.32965 -0.14416 -0.178053
v -0.325218 -0.167405 -0.182647
v -0.328863 -0.127189 -0.182647
v -0.331169 -0.127189 -0.178053
v -0.33694 -0.127189 -0.164236
v -0.337548 -0.110251 -0.165702
v -0.341649 -0.0932795 -0.158642
v -0.357735 -0.0763414 -0.122625
v -0.353054 -0.110251 -0.128273
v -0.356561 -0.110251 -0.119801
v -0.360524 -0.110251 -0.11022
v -0.364514 -0.127189 -0.0932578
v -0.365923 -0.14416 -0.076313
v -0.373185 -0.170904 -7.93506e-05
v -0.372412 -0.145547 -0.025997
v -0.37302 -0.152117 -0.0165952
v -0.371791 -0.177145 -0.00740779
v -0.369374 -0.178036 -0.0254429
v -0.362678 -0.178036 -0.076313
v -0.361035 -0.195007 -0.076313
v -0.359695 -0.178036 -0.0932578
v -0.358701 -0.14416 -0.108022
v -0.355194 -0.14416 -0.116512
v -0.343761 -0.14416 -0.144128
v -0.336181 -0.14416 -0.162413
v -0.326737 -0.151886 -0.182647
v -0.328325 -0.134057 -0.182647
v -0.327427 -0.14416 -0.182647
v -0.355788 -0.131481 -0.117942
v -0.356216 -0.120189 -0.118961
v -0.358853 -0.126396 -0.111454
v -0.368767 -0.161065 -0.0424056
f 1 2 6
f 1 6 13
f 1 13 29
f 1 29 50
f 1 50 76
f 1 76 75
f 1 75 117
f 1 117 116
f 1 116 119
f 1 119 79
f 1 79 78
f 1 78 51
f 1 51 30
f 1 30 16
f 1 16 14
f 1 14 7
f 1 7 3
f 1 3 9
f 1 9 15
f 1 15 20
f 1 20 39
f 1 39 38
f 1 38 57
f 1 57 88
f 1 88 90
f 1 90 125
f 1 125 128
f 1 128 127
f 1 127 162
f 1 162 163
f 1 163 203
f 1 203 244
f 1 244 207
f 1 207 166
f 1 166 164
f 1 164 129
f 1 129 91
f 1 91 59
f 1 59 40
f 1 40 21
f 1 21 10
f 1 10 4
f 1 4 5
f 1 5 2
f 2 5 11
f 2 11 25
f 2 25 44
f 2 44 45
f 2 45 68
f 2 68 108
f 2 108 107
f 2 107 151
f 2 151 150
f 2 150 190
f 2 190 232
f 2 232 256
f 2 256 258
f 2 258 257
f 2 257 233
f 2 233 192
f 2 192 191
f 2 191 155
f 2 155 110
f 2 110 71
f 2 71 70
f 2 70 69
f 2 69 46
f 2 46 26
f 2 26 12
f 2 12 6
f 3 7 8
f 3 8 9
f 4 10 22
f 4 22 42
f 4 42 64
f 4 64 97
f 4 97 137
f 4 137 178
f 4 178 174
f 4 174 217
f 4 217 216
f 4 216 219
f 4 219 179
f 4 179 139
f 4 139 98
f 4 98 65
f 4 65 43
f 4 43 23
f 4 23 11
f 4 11 5
f 6 12 13
f 7 14 8
f 8 15 9
f 8 14 16
f 8 16 17
f 8 17 18
f 8 18 19
f 8 19 20
f 8 20 15
f 10 21 41
f 10 41 22
f 11 23 24
f 11 24 25
f 12 26 13
f 13 26 27
f 13 27 28
f 13 28 29
f 16 30 31
f 16 31 17
f 17 31 18
f 18 32 19
f 18 31 33
f 18 33 34
f 18 34 35
f 18 35 36
f 18 36 37
f 18 37 32
f 19 32 38
f 19 38 39
f 19 39 20
f 21 40 41
f 22 41 62
f 22 62 42
f 23 43 24
f 24 44 25
f 24 43 45
f 24 45 44
f 26 46 27
f 27 46 47
f 27 47 28
f 28 48 29
f 28 47 49
f 28 49 48
f 29 48 50
f 30 51 33
f 30 33 31
f 32 37 38
f 33 51 52
f 33 52 53
f 33 53 34
f 34 53 35
f 35 53 54
f 35 54 36
f 36 54 55
f 36 55 56
f 36 56 37
f 37 57 38
f 37 56 58
f 37 58 88
f 37 88 57
f 40 59 60
f 40 60 61
f 40 61 41
f 41 61 63
f 41 63 62
f 42 62 64
f 43 65 66
f 43 66 67
f 43 67 68
f 43 68 45
f 46 69 47
f 47 69 70
f 47 70 71
f 47 71 72
f 47 72 73
f 47 73 49
f 48 74 75
f 48 75 76
f 48 76 50
f 48 49 77
f 48 77 74
f 49 73 77
f 51 78 52
f 52 78 79
f 52 79 80
f 52 80 81
f 52 81 53
f 53 81 82
f 53 82 83
f 53 83 84
f 53 84 54
f 54 83 85
f 54 85 55
f 54 84 83
f 55 85 56
f 56 85 86
f 56 86 87
f 56 87 89
f 56 89 58
f 58 89 90
f 58 90 88
f 59 91 60
f 60 91 92
f 60 92 93
f 60 93 94
f 60 94 63
f 60 63 61
f 62 95 64
f 62 63 95
f 63 94 96
f 63 96 95
f 64 95 97
f 65 98 99
f 65 99 100
f 65 100 101
f 65 101 66
f 66 102 67
f 66 101 103
f 66 103 104
f 66 104 105
f 66 105 106
f 66 106 102
f 67 102 107
f 67 107 108
f 67 108 68
f 71 109 72
f 71 110 109
f 72 109 73
f 73 109 111
f 73 111 112
f 73 112 113
f 73 113 114
f 73 114 115
f 73 115 77
f 74 80 116
f 74 116 117
f 74 117 75
f 74 77 118
f 74 118 81
f 74 81 80
f 77 115 118
f 79 119 80
f 80 119 116
f 81 118 82
f 82 118 83
f 83 118 120
f 83 120 114
f 83 114 121
f 83 121 85
f 85 121 122
f 85 122 86
f 86 122 123
f 86 123 87
f 87 123 124
f 87 124 126
f 87 126 89
f 89 125 90
f 89 126 127
f 89 127 128
f 89 128 125
f 91 129 92
f 92 130 93
f 92 129 164
f 92 164 131
f 92 131 132
f 92 132 130
f 93 133 134
f 93 134 96
f 93 96 94
f 93 130 135
f 93 135 136
f 93 136 133
f 95 137 97
f 95 96 138
f 95 138 137
f 96 134 133
f 96 133 138
f 98 139 99
f 99 139 140
f 99 140 141
f 99 141 100
f 100 141 103
f 100 103 101
f 102 106 107
f 103 141 142
f 103 142 104
f 104 143 105
f 104 142 144
f 104 144 143
f 105 145 146
f 105 146 147
f 105 147 148
f 105 148 106
f 105 143 145
f 106 148 149
f 106 149 150
f 106 150 151
f 106 151 107
f 109 110 152
f 109 152 153
f 109 153 154
f 109 154 111
f 110 155 152
f 111 154 112
f 112 154 113
f 113 154 114
f 114 120 115
f 114 154 156
f 114 156 121
f 115 120 118
f 121 156 157
f 121 157 122
f 122 157 158
f 122 158 123
f 123 158 159
f 123 159 124
f 124 159 160
f 124 160 161
f 124 161 126
f 126 162 127
f 126 161 163
f 126 163 162
f 130 165 135
f 130 132 165
f 131 164 166
f 131 166 167
f 131 167 208
f 131 208 168
f 131 168 132
f 132 168 169
f 132 169 170
f 132 170 171
f 132 171 165
f 133 136 175
f 133 175 138
f 135 165 172
f 135 172 136
f 136 173 174
f 136 174 175
f 136 172 176
f 136 176 173
f 137 177 178
f 137 138 175
f 137 175 177
f 139 179 180
f 139 180 181
f 139 181 140
f 140 181 141
f 141 181 142
f 142 181 144
f 143 144 182
f 143 182 183
f 143 183 145
f 144 173 176
f 144 176 182
f 144 181 173
f 145 183 184
f 145 184 147
f 145 147 146
f 147 184 185
f 147 185 186
f 147 186 187
f 147 187 148
f 148 187 149
f 149 187 188
f 149 188 189
f 149 189 150
f 150 189 190
f 152 155 191
f 152 191 192
f 152 192 193
f 152 193 194
f 152 194 195
f 152 195 153
f 153 195 154
f 154 195 196
f 154 196 156
f 156 196 195
f 156 195 197
f 156 197 157
f 157 197 198
f 157 198 158
f 158 198 199
f 158 199 200
f 158 200 159
f 159 200 201
f 159 201 160
f 160 201 202
f 160 202 161
f 161 203 163
f 161 202 204
f 161 204 205
f 161 205 206
f 161 206 244
f 161 244 203
f 165 171 172
f 166 207 167
f 167 207 244
f 167 244 206
f 167 206 209
f 167 209 211
f 167 211 208
f 168 208 169
f 169 210 170
f 169 208 211
f 169 211 212
f 169 212 210
f 170 213 171
f 170 210 214
f 170 214 213
f 171 213 172
f 172 213 215
f 172 215 176
f 173 181 216
f 173 216 217
f 173 217 174
f 174 178 177
f 174 177 175
f 176 215 218
f 176 218 182
f 179 219 181
f 179 181 180
f 181 219 216
f 182 218 220
f 182 220 221
f 182 221 222
f 182 222 223
f 182 223 224
f 182 224 185
f 182 185 225
f 182 225 183
f 183 225 184
f 184 225 185
f 185 224 226
f 185 226 186
f 186 226 227
f 186 227 228
f 186 228 188
f 186 188 187
f 188 228 229
f 188 229 189
f 189 230 190
f 189 229 231
f 189 231 230
f 190 230 231
f 190 231 232
f 192 233 234
f 192 234 193
f 193 234 235
f 193 235 236
f 193 236 194
f 194 237 238
f 194 238 195
f 194 236 237
f 195 238 197
f 197 238 239
f 197 239 240
f 197 240 241
f 197 241 198
f 198 241 242
f 198 242 199
f 199 242 243
f 199 243 202
f 199 202 200
f 200 202 201
f 202 243 204
f 204 243 245
f 204 245 246
f 204 246 205
f 205 246 247
f 205 247 206
f 206 247 209
f 209 247 248
f 209 248 211
f 210 212 250
f 210 250 214
f 211 248 212
f 212 248 249
f 212 249 250
f 213 214 215
f 214 250 215
f 215 250 220
f 215 220 218
f 220 250 251
f 220 251 221
f 221 251 222
f 222 251 250
f 222 250 223
f 223 243 242
f 223 242 252
f 223 252 224
f 223 250 249
f 223 249 243
f 224 229 228
f 224 228 227
f 224 227 226
f 224 252 253
f 224 253 254
f 224 254 229
f 229 254 255
f 229 255 231
f 231 255 235
f 231 235 234
f 231 234 256
f 231 256 232
f 233 257 234
f 234 257 258
f 234 258 256
f 235 255 259
f 235 259 260
f 235 260 236
f 236 260 239
f 236 239 237
f 237 239 238
f 239 260 240
f 240 260 241
f 241 260 261
f 241 261 252
f 241 252 242
f 243 249 248
f 243 248 262
f 243 262 245
f 245 262 248
f 245 248 246
f 246 248 247
f 252 261 259
f 252 259 253
f 253 259 254
f 254 259 255
f 259 261 260
