v 0.339885 0.616374 -6.14792e-05
v 0.339885 0.616374 -0.00746835
v 0.29259 0.616374 -6.14792e-05
v 0.356217 0.475983 -6.14792e-05
v 0.343434 0.585034 -0.00849225
v 0.34145 0.601985 -0.00849225
v 0.339218 0.611131 -0.0175984
v 0.338912 0.616374 -0.0151367
v 0.356217 0.475983 -0.00097644
v 0.188173 0.616374 -0.222616
v 0.339733 0.0212542 -6.14792e-05
v 0.373158 0.289629 -6.14792e-05
v 0.345361 0.568024 -0.00849225
v 0.343167 0.568024 -0.0254409
v 0.34082 0.586665 -0.0271184
v 0.33792 0.616374 -0.0228267
v 0.338645 0.601985 -0.0301465
v 0.364363 0.381495 -0.00849225
v 0.362799 0.398447 -0.00849225
v 0.361215 0.415457 -0.00849225
v 0.359593 0.432409 -0.00849225
v 0.356713 0.466313 -0.00481059
v 0.354767 0.482274 -0.00738121
v 0.352744 0.500216 -0.00849225
v 0.350951 0.517168 -0.00849225
v 0.349138 0.53412 -0.00849225
v 0.347269 0.551072 -0.00849225
v 0.373158 0.289629 -0.000867519
v 0.255234 0.616374 -0.222616
v 0.254566 0.0212542 -0.222616
v 0.382888 0.0212542 -6.14792e-05
v 0.37789 0.211977 -6.14792e-05
v 0.339046 0.575713 -0.0501886
v 0.345075 0.551072 -0.0254409
v 0.339695 0.564412 -0.0550249
v 0.336776 0.585034 -0.0593601
v 0.339141 0.59348 -0.0338935
v 0.332559 0.601985 -0.0763305
v 0.331205 0.616374 -0.0737381
v 0.334543 0.585034 -0.0763305
v 0.365889 0.364543 -0.00849225
v 0.362169 0.381495 -0.0254409
v 0.360624 0.398447 -0.0254409
v 0.359021 0.415457 -0.0254409
v 0.357266 0.432758 -0.0262034
v 0.356636 0.446215 -0.0210404
v 0.35759 0.450875 -0.0100608
v 0.355625 0.466313 -0.0132849
v 0.356064 0.457575 -0.0167487
v 0.352325 0.483264 -0.0254409
v 0.350569 0.500216 -0.0254409
v 0.348776 0.517168 -0.0254409
v 0.346944 0.53412 -0.0254409
v 0.37789 0.211977 -0.00849225
v 0.376821 0.228929 -0.00849225
v 0.375581 0.245939 -0.00849225
v 0.373559 0.279842 -0.00396099
v 0.371842 0.29592 -0.00729407
v 0.370239 0.313746 -0.00849225
v 0.367377 0.347592 -0.00849225
v 0.276983 0.616374 -0.194274
v 0.257352 0.602044 -0.222616
v 0.309112 0.0212542 -0.222616
v 0.382888 0.0212542 -0.00849225
v 0.382926 0.0254484 -6.14792e-05
v 0.378386 0.203588 -6.14792e-05
v 0.338474 0.569247 -0.0601443
v 0.338836 0.539771 -0.0824085
v 0.33958 0.54647 -0.0711022
v 0.342843 0.551072 -0.0424114
v 0.33895 0.557771 -0.0663312
v 0.330861 0.616374 -0.0763305
v 0.33647 0.568024 -0.0763305
v 0.363695 0.364543 -0.0254409
v 0.357018 0.364077 -0.0765266
v 0.359937 0.381495 -0.0424114
v 0.358391 0.398447 -0.0424114
v 0.356236 0.408292 -0.0518443
v 0.355167 0.432758 -0.0422153
v 0.355892 0.4387 -0.0323468
v 0.349043 0.449361 -0.0763305
v 0.355492 0.450875 -0.0262034
v 0.347345 0.466313 -0.0763305
v 0.351809 0.466313 -0.0424114
v 0.354042 0.466313 -0.0254409
v 0.350092 0.483264 -0.0424114
v 0.348337 0.500216 -0.0424114
v 0.346544 0.517168 -0.0424114
v 0.344712 0.53412 -0.0424114
v 0.379836 0.178073 -0.00849225
v 0.375715 0.211977 -0.0254409
v 0.373406 0.225433 -0.036573
v 0.374341 0.23021 -0.0269223
v 0.373788 0.245939 -0.0224564
v 0.37291 0.26924 -0.0157248
v 0.37415 0.263298 -0.00945079
v 0.37249 0.279842 -0.0124353
v 0.369438 0.296794 -0.0254409
v 0.368045 0.313746 -0.0254409
v 0.366633 0.33064 -0.0254409
v 0.365183 0.347592 -0.0254409
v 0.285607 0.616374 -0.183033
v 0.277212 0.602918 -0.196562
v 0.27292 0.585034 -0.205537
v 0.259813 0.585034 -0.222616
v 0.322982 0.0212542 -0.204535
v 0.30915 0.0232348 -0.222616
v 0.380694 0.0212542 -0.0254409
v 0.380751 0.0254484 -0.0254409
v 0.382926 0.0254484 -0.00849225
v 0.383003 0.0424003 -6.14792e-05
v 0.380313 0.169685 -6.14792e-05
v 0.342079 0.517168 -0.0763305
v 0.343873 0.500216 -0.0763305
v 0.345628 0.483264 -0.0763305
v 0.339447 0.528411 -0.0858288
v 0.340439 0.551713 -0.0601443
v 0.326721 0.616374 -0.0932792
v 0.362951 0.347592 -0.0424114
v 0.358487 0.347592 -0.0763305
v 0.355778 0.369378 -0.0822996
v 0.356522 0.37765 -0.0709932
v 0.356007 0.388952 -0.0671155
v 0.353908 0.398447 -0.0763305
v 0.352325 0.415457 -0.0763305
v 0.350703 0.432409 -0.0763305
v 0.356274 0.358077 -0.0856109
v 0.38079 0.161121 -0.00849225
v 0.377642 0.178073 -0.0254409
v 0.369018 0.211977 -0.0763305
v 0.372567 0.178073 -0.0640438
v 0.367931 0.228929 -0.0763305
v 0.372319 0.23021 -0.0423025
v 0.373006 0.236735 -0.0335449
v 0.366691 0.245939 -0.0763305
v 0.372147 0.263298 -0.0249834
v 0.365412 0.262891 -0.0763305
v 0.364096 0.279842 -0.0763305
v 0.36856 0.279842 -0.0424114
v 0.370793 0.279842 -0.0254409
v 0.367206 0.296794 -0.0424114
v 0.365813 0.313746 -0.0424114
v 0.364401 0.33064 -0.0424114
v 0.291712 0.616374 -0.174537
v 0.286656 0.601985 -0.184406
v 0.282364 0.583927 -0.193425
v 0.282612 0.568024 -0.196082
v 0.262236 0.568024 -0.222616
v 0.329316 0.0212542 -0.194993
v 0.309188 0.0254484 -0.222616
v 0.32302 0.0254484 -0.204578
v 0.379015 0.0212542 -0.0382287
v 0.378519 0.0254484 -0.0424114
v 0.37415 0.0424003 -0.0760691
v 0.380866 0.0593521 -0.0254409
v 0.383003 0.0424003 -0.00849225
v 0.38306 0.0593521 -6.14792e-05
v 0.38079 0.161121 -6.14792e-05
v 0.340057 0.517168 -0.0878765
v 0.33897 0.490138 -0.101187
v 0.338397 0.500216 -0.0994008
v 0.337443 0.517168 -0.0963509
v 0.336795 0.53412 -0.0922118
v 0.334505 0.551072 -0.0932792
v 0.33254 0.568024 -0.0932792
v 0.330537 0.585034 -0.0932792
v 0.328476 0.601985 -0.0932792
v 0.348967 0.415457 -0.0932792
v 0.347288 0.432409 -0.0932792
v 0.345571 0.449361 -0.0932792
v 0.32365 0.616374 -0.101688
v 0.359937 0.33064 -0.0763305
v 0.355339 0.382602 -0.0765266
v 0.361349 0.313746 -0.0763305
v 0.362741 0.296794 -0.0763305
v 0.362532 0.262891 -0.0932792
v 0.361158 0.279842 -0.0932792
v 0.359765 0.296794 -0.0932792
v 0.356732 0.347592 -0.0875933
v 0.355949 0.320504 -0.101144
v 0.355492 0.33064 -0.0992701
v 0.354728 0.347592 -0.0960677
v 0.354156 0.364077 -0.0920593
v 0.352229 0.381495 -0.0932792
v 0.350627 0.398447 -0.0932792
v 0.381133 0.152733 -6.14792e-05
v 0.381476 0.14417 -0.00849225
v 0.378596 0.161121 -0.0254409
v 0.366252 0.211977 -0.0932792
v 0.370945 0.178073 -0.0763305
v 0.369247 0.161121 -0.0932792
v 0.368274 0.178073 -0.0932792
v 0.372891 0.166481 -0.0665273
v 0.372052 0.160947 -0.0752631
v 0.365145 0.228929 -0.0932792
v 0.363867 0.245939 -0.0932792
v 0.288412 0.577577 -0.186715
v 0.292952 0.616374 -0.172206
v 0.305029 0.541052 -0.169113
v 0.305716 0.529751 -0.17042
v 0.302186 0.500216 -0.181879
v 0.303293 0.483264 -0.183578
v 0.289098 0.568024 -0.187586
v 0.290281 0.551072 -0.189133
v 0.283795 0.551072 -0.197607
v 0.264716 0.550431 -0.222616
v 0.263247 0.560858 -0.222616
v 0.336985 0.0212542 -0.181356
v 0.329373 0.0254484 -0.194993
v 0.337024 0.0254484 -0.181421
v 0.309264 0.0424003 -0.222616
v 0.323096 0.0593521 -0.204666
v 0.329449 0.0424003 -0.194993
v 0.374093 0.0212542 -0.0756334
v 0.376287 0.0254484 -0.0593601
v 0.374112 0.0254484 -0.0758295
v 0.373025 0.0424003 -0.0845435
v 0.37396 0.0598181 -0.0779644
v 0.38306 0.0593521 -0.00849225
v 0.373063 0.0657018 -0.0848484
v 0.380885 0.0763622 -0.0254409
v 0.383079 0.0763622 -6.14792e-05
v 0.340954 0.500216 -0.0909264
v 0.343816 0.466313 -0.0932792
v 0.334143 0.500216 -0.110228
v 0.332216 0.517168 -0.110228
v 0.330251 0.53412 -0.110228
v 0.328247 0.551072 -0.110228
v 0.323859 0.601985 -0.105784
v 0.341564 0.484022 -0.0946299
v 0.33958 0.478837 -0.102821
v 0.322944 0.616374 -0.103583
v 0.356465 0.309261 -0.102625
v 0.357972 0.314445 -0.0946081
v 0.348223 0.364543 -0.110228
v 0.346582 0.381495 -0.110228
v 0.344922 0.398447 -0.110228
v 0.341183 0.449361 -0.106677
v 0.340267 0.466313 -0.104477
v 0.381476 0.14417 -6.14792e-05
v 0.381705 0.135781 -6.14792e-05
v 0.381934 0.127218 -0.00849225
v 0.379282 0.14417 -0.0254409
v 0.373196 0.155179 -0.0689237
v 0.376363 0.161121 -0.0424114
v 0.36112 0.211977 -0.110228
v 0.363199 0.178073 -0.110228
v 0.36421 0.161121 -0.110228
v 0.372262 0.14417 -0.0787922
v 0.369972 0.14417 -0.0932792
v 0.364974 0.14417 -0.110228
v 0.359116 0.245939 -0.109052
v 0.35843 0.262891 -0.107396
v 0.357724 0.279842 -0.105697
v 0.356999 0.296794 -0.103932
v 0.298981 0.616374 -0.160856
v 0.30335 0.568024 -0.165213
v 0.305907 0.585034 -0.154233
v 0.306937 0.568024 -0.156739
v 0.307948 0.551072 -0.1592
v 0.308501 0.534877 -0.162512
v 0.311134 0.517168 -0.161096
v 0.313061 0.500216 -0.161096
v 0.314969 0.483264 -0.161096
v 0.307395 0.500216 -0.173404
v 0.30501 0.45606 -0.186192
v 0.304361 0.466313 -0.185212
v 0.319548 0.432409 -0.163187
v 0.320406 0.415457 -0.165278
v 0.321265 0.398447 -0.167348
v 0.321856 0.386563 -0.168764
v 0.319777 0.347592 -0.181639
v 0.291445 0.53412 -0.190658
v 0.276487 0.53412 -0.210199
v 0.266223 0.539479 -0.222616
v 0.337863 0.0212542 -0.179264
v 0.337081 0.0593521 -0.181574
v 0.34061 0.0593521 -0.173099
v 0.345456 0.0254484 -0.161096
v 0.340515 0.0212542 -0.172881
v 0.309322 0.0569637 -0.222616
v 0.329507 0.0593521 -0.194993
v 0.309341 0.0738573 -0.222616
v 0.323096 0.0763622 -0.204687
v 0.329526 0.0763622 -0.194993
v 0.372967 0.0212542 -0.0841078
v 0.372987 0.0254484 -0.0843038
v 0.371479 0.0254484 -0.0932792
v 0.371556 0.0424003 -0.0932792
v 0.383079 0.0763622 -0.00849225
v 0.371899 0.0598181 -0.0916018
v 0.373063 0.0719349 -0.0848484
v 0.376421 0.0763622 -0.0593601
v 0.378653 0.0763622 -0.0424114
v 0.373063 0.0832361 -0.0847831
v 0.380637 0.093314 -0.0254409
v 0.382831 0.093314 -6.14792e-05
v 0.336394 0.484022 -0.109182
v 0.327122 0.500216 -0.127177
v 0.321704 0.521362 -0.134475
v 0.32447 0.53412 -0.124192
v 0.320959 0.53412 -0.132666
v 0.312164 0.568024 -0.144125
v 0.322696 0.563829 -0.119922
v 0.322009 0.57513 -0.118288
v 0.3255 0.568897 -0.111666
v 0.324909 0.585034 -0.108333
v 0.304609 0.605539 -0.15114
v 0.304342 0.616374 -0.148482
v 0.319967 0.616374 -0.110773
v 0.341507 0.296794 -0.141337
v 0.333322 0.296794 -0.161096
v 0.337252 0.313746 -0.148025
v 0.353336 0.314445 -0.109052
v 0.349825 0.347592 -0.110228
v 0.338931 0.353766 -0.13515
v 0.32716 0.364543 -0.161096
v 0.336776 0.398447 -0.129921
v 0.339618 0.411612 -0.119835
v 0.342461 0.416506 -0.111753
v 0.34206 0.432409 -0.108812
v 0.323058 0.432409 -0.154713
v 0.325157 0.449244 -0.145367
v 0.321875 0.454895 -0.151837
v 0.330861 0.466313 -0.127177
v 0.381934 0.127218 -6.14792e-05
v 0.37974 0.127218 -0.0254409
v 0.382831 0.093314 -0.00849225
v 0.373387 0.14417 -0.0702961
v 0.347078 0.211977 -0.144125
v 0.356426 0.224851 -0.119486
v 0.35925 0.229861 -0.111775
v 0.35738 0.195025 -0.121774
v 0.339141 0.16951 -0.169548
v 0.35387 0.195025 -0.130248
v 0.358411 0.161121 -0.124257
v 0.339485 0.158209 -0.170376
v 0.373616 0.127218 -0.0720171
v 0.372719 0.110266 -0.0822125
v 0.372948 0.093314 -0.0839117
v 0.370449 0.127218 -0.0932792
v 0.366424 0.093314 -0.110228
v 0.340496 0.093314 -0.172816
v 0.339771 0.14417 -0.171051
v 0.351619 0.245939 -0.127177
v 0.356007 0.236152 -0.118463
v 0.350245 0.262891 -0.127177
v 0.339103 0.270813 -0.152512
v 0.342232 0.279842 -0.143101
v 0.299725 0.616374 -0.159157
v 0.302243 0.585034 -0.162708
v 0.3168 0.466313 -0.161096
v 0.320673 0.33064 -0.183469
v 0.32157 0.313746 -0.185277
v 0.322066 0.304134 -0.186301
v 0.305716 0.444759 -0.187151
v 0.293734 0.483381 -0.196431
v 0.293715 0.500216 -0.193621
v 0.29259 0.517168 -0.192161
v 0.319166 0.449244 -0.15981
v 0.323917 0.415457 -0.156804
v 0.322925 0.364543 -0.171269
v 0.269982 0.53412 -0.218673
v 0.270821 0.52177 -0.219763
v 0.268112 0.525615 -0.222616
v 0.337081 0.0763622 -0.181595
v 0.34559 0.0593521 -0.161096
v 0.34061 0.0763622 -0.173121
v 0.345609 0.0763622 -0.161096
v 0.366595 0.0424003 -0.110228
v 0.359555 0.0254484 -0.127046
v 0.359536 0.0212542 -0.126981
v 0.356026 0.0212542 -0.135455
v 0.347135 0.0212542 -0.156913
v 0.309341 0.0763622 -0.222616
v 0.322963 0.093314 -0.204491
v 0.32924 0.093314 -0.194993
v 0.371422 0.0212542 -0.0932792
v 0.367702 0.0212542 -0.106045
v 0.366519 0.0254484 -0.110228
v 0.366652 0.0593521 -0.110228
v 0.366672 0.0763622 -0.110228
v 0.371384 0.093314 -0.0932792
v 0.371899 0.0771195 -0.0916018
v 0.303922 0.616374 -0.149463
v 0.301595 0.600704 -0.159527
v 0.325252 0.313746 -0.176803
v 0.331834 0.313746 -0.161096
v 0.338722 0.279842 -0.151576
v 0.334772 0.279842 -0.161096
v 0.327675 0.279842 -0.178044
v 0.330308 0.33064 -0.161096
v 0.34 0.33064 -0.137699
v 0.328763 0.347592 -0.161096
v 0.339046 0.422914 -0.118441
v 0.337844 0.211977 -0.166411
v 0.337252 0.228929 -0.165017
v 0.345914 0.228929 -0.144125
v 0.353374 0.229861 -0.125957
v 0.335078 0.178073 -0.178044
v 0.338359 0.195025 -0.167675
v 0.336222 0.14417 -0.179548
v 0.336508 0.162752 -0.176824
v 0.356102 0.085042 -0.135673
v 0.336966 0.093314 -0.18129
v 0.336604 0.245939 -0.163427
v 0.329106 0.262891 -0.178044
v 0.325462 0.297785 -0.179591
v 0.330499 0.245939 -0.178044
v 0.322581 0.292833 -0.187107
v 0.317125 0.297785 -0.193664
v 0.314473 0.313746 -0.194993
v 0.312698 0.33064 -0.194993
v 0.310104 0.346077 -0.196257
v 0.310371 0.364543 -0.19325
v 0.309417 0.381495 -0.192009
v 0.308444 0.398447 -0.190745
v 0.307452 0.415457 -0.18946
v 0.30646 0.432409 -0.188131
v 0.323707 0.347592 -0.173165
v 0.324489 0.33064 -0.174995
v 0.284996 0.432409 -0.216146
v 0.278662 0.44371 -0.222616
v 0.283966 0.449361 -0.214796
v 0.296997 0.466313 -0.194993
v 0.282917 0.483381 -0.210569
v 0.28866 0.477789 -0.20399
v 0.271489 0.500216 -0.222616
v 0.268894 0.51979 -0.222616
v 0.356121 0.0633716 -0.135694
v 0.366462 0.0212542 -0.110228
v 0.309093 0.0911004 -0.222616
v 0.328724 0.110266 -0.194993
v 0.309054 0.093314 -0.222616
v 0.307967 0.126169 -0.222616
v 0.316838 0.143237 -0.210308
v 0.322047 0.148306 -0.203293
v 0.326664 0.143237 -0.196583
v 0.332979 0.211977 -0.178044
v 0.331815 0.228929 -0.178044
v 0.325805 0.211977 -0.191987
v 0.325233 0.228929 -0.191115
v 0.32819 0.127218 -0.194993
v 0.32737 0.161121 -0.19434
v 0.32634 0.195025 -0.192771
v 0.323153 0.279842 -0.187978
v 0.317621 0.262891 -0.197542
v 0.3168 0.279842 -0.196453
v 0.307471 0.296794 -0.206408
v 0.306612 0.313746 -0.205276
v 0.305716 0.33064 -0.204121
v 0.305258 0.339378 -0.203511
v 0.289938 0.345727 -0.222616
v 0.304647 0.350679 -0.202727
v 0.303884 0.364543 -0.201725
v 0.30293 0.381495 -0.200483
v 0.285092 0.389359 -0.222616
v 0.293486 0.398447 -0.210286
v 0.300965 0.415457 -0.197934
v 0.28099 0.424428 -0.222616
v 0.280036 0.432409 -0.222616
v 0.275839 0.466313 -0.222616
v 0.273797 0.482449 -0.222616
v 0.307376 0.143703 -0.222616
v 0.307356 0.14417 -0.222616
v 0.306899 0.153315 -0.222616
v 0.306498 0.161121 -0.222616
v 0.321684 0.161121 -0.202814
v 0.324565 0.245939 -0.190091
v 0.323859 0.262891 -0.189046
v 0.319872 0.211977 -0.200461
v 0.320482 0.195025 -0.201245
v 0.319204 0.228929 -0.19959
v 0.318422 0.245939 -0.198588
v 0.30915 0.262891 -0.208587
v 0.308329 0.279842 -0.207519
v 0.295051 0.296794 -0.222616
v 0.300107 0.313746 -0.213772
v 0.29154 0.33064 -0.222616
v 0.287877 0.364543 -0.222616
v 0.296043 0.364543 -0.211964
v 0.284043 0.398447 -0.222616
v 0.283413 0.403806 -0.222616
v 0.30646 0.161704 -0.222616
v 0.302892 0.211977 -0.222616
v 0.301538 0.228929 -0.222616
v 0.301041 0.234405 -0.222616
v 0.309951 0.245939 -0.209633
v 0.29839 0.262891 -0.222616
v 0.296749 0.279842 -0.222616
v 0.295623 0.291085 -0.222616
v 0.293315 0.313746 -0.222616
v 0.291731 0.328834 -0.222616
v 0.299954 0.24623 -0.222616
v 0.303445 0.245939 -0.218107
f 1 2 8
f 1 8 16
f 1 16 39
f 1 39 72
f 1 72 118
f 1 118 171
f 1 171 232
f 1 232 310
f 1 310 309
f 1 309 385
f 1 385 350
f 1 350 256
f 1 256 198
f 1 198 144
f 1 144 102
f 1 102 61
f 1 61 29
f 1 29 10
f 1 10 3
f 1 3 11
f 1 11 31
f 1 31 65
f 1 65 111
f 1 111 157
f 1 157 222
f 1 222 297
f 1 297 326
f 1 326 241
f 1 241 240
f 1 240 186
f 1 186 158
f 1 158 112
f 1 112 66
f 1 66 32
f 1 32 12
f 1 12 4
f 1 4 9
f 1 9 2
f 2 5 6
f 2 6 7
f 2 7 8
f 2 9 5
f 3 10 11
f 4 12 28
f 4 28 9
f 5 13 14
f 5 14 15
f 5 15 7
f 5 7 6
f 5 9 13
f 7 16 8
f 7 15 17
f 7 17 16
f 9 18 19
f 9 19 20
f 9 20 21
f 9 21 22
f 9 22 23
f 9 23 24
f 9 24 25
f 9 25 26
f 9 26 27
f 9 27 13
f 9 28 18
f 10 29 62
f 10 62 105
f 10 105 148
f 10 148 207
f 10 207 206
f 10 206 275
f 10 275 365
f 10 365 429
f 10 429 428
f 10 428 463
f 10 463 462
f 10 462 423
f 10 423 461
f 10 461 460
f 10 460 483
f 10 483 482
f 10 482 457
f 10 457 480
f 10 480 453
f 10 453 479
f 10 479 493
f 10 493 492
f 10 492 477
f 10 477 491
f 10 491 490
f 10 490 489
f 10 489 494
f 10 494 487
f 10 487 486
f 10 486 485
f 10 485 484
f 10 484 467
f 10 467 466
f 10 466 465
f 10 465 464
f 10 464 435
f 10 435 434
f 10 434 432
f 10 432 375
f 10 375 283
f 10 283 281
f 10 281 211
f 10 211 150
f 10 150 107
f 10 107 63
f 10 63 30
f 10 30 11
f 11 30 63
f 11 63 106
f 11 106 149
f 11 149 208
f 11 208 276
f 11 276 280
f 11 280 374
f 11 374 373
f 11 373 372
f 11 372 431
f 11 431 379
f 11 379 378
f 11 378 286
f 11 286 214
f 11 214 152
f 11 152 108
f 11 108 64
f 11 64 31
f 12 32 54
f 12 54 28
f 13 27 34
f 13 34 14
f 14 33 15
f 14 34 35
f 14 35 33
f 15 33 36
f 15 36 37
f 15 37 17
f 16 17 38
f 16 38 39
f 17 37 36
f 17 36 40
f 17 40 38
f 18 41 74
f 18 74 42
f 18 42 43
f 18 43 19
f 18 28 41
f 19 43 20
f 20 44 21
f 20 43 44
f 21 44 45
f 21 45 46
f 21 46 47
f 21 47 22
f 22 48 23
f 22 47 49
f 22 49 48
f 23 48 50
f 23 50 51
f 23 51 24
f 24 51 52
f 24 52 25
f 25 52 26
f 26 52 53
f 26 53 34
f 26 34 27
f 28 54 55
f 28 55 56
f 28 56 57
f 28 57 58
f 28 58 59
f 28 59 60
f 28 60 41
f 29 61 62
f 31 64 110
f 31 110 65
f 32 66 54
f 33 35 67
f 33 67 40
f 33 40 36
f 34 53 68
f 34 68 69
f 34 69 70
f 34 70 71
f 34 71 35
f 35 71 67
f 38 72 39
f 38 40 68
f 38 68 72
f 40 67 73
f 40 73 68
f 41 60 101
f 41 101 74
f 42 74 75
f 42 75 76
f 42 76 77
f 42 77 43
f 43 77 78
f 43 78 44
f 44 79 80
f 44 80 45
f 44 78 79
f 45 80 46
f 46 80 81
f 46 81 82
f 46 82 49
f 46 49 47
f 48 49 50
f 49 82 83
f 49 83 84
f 49 84 85
f 49 85 50
f 50 85 84
f 50 84 86
f 50 86 87
f 50 87 51
f 51 87 88
f 51 88 52
f 52 88 89
f 52 89 53
f 53 89 68
f 54 66 90
f 54 90 91
f 54 91 55
f 55 91 92
f 55 92 93
f 55 93 94
f 55 94 56
f 56 94 95
f 56 95 96
f 56 96 57
f 57 97 58
f 57 96 95
f 57 95 97
f 58 97 59
f 59 97 98
f 59 98 99
f 59 99 100
f 59 100 60
f 60 100 101
f 61 102 103
f 61 103 62
f 62 103 104
f 62 104 105
f 63 107 106
f 64 108 109
f 64 109 110
f 65 110 156
f 65 156 111
f 66 112 90
f 67 71 73
f 68 71 69
f 68 89 113
f 68 113 114
f 68 114 115
f 68 115 116
f 68 116 72
f 68 73 71
f 69 71 117
f 69 117 70
f 70 117 71
f 72 116 118
f 74 101 75
f 75 101 119
f 75 119 120
f 75 120 121
f 75 121 122
f 75 122 76
f 76 122 123
f 76 123 77
f 77 123 78
f 78 123 124
f 78 124 125
f 78 125 79
f 79 125 126
f 79 126 80
f 80 126 81
f 81 83 82
f 81 126 121
f 81 121 127
f 81 127 116
f 81 116 83
f 83 115 86
f 83 86 84
f 83 116 115
f 86 115 114
f 86 114 87
f 87 114 113
f 87 113 88
f 88 113 89
f 90 112 128
f 90 128 188
f 90 188 129
f 90 129 91
f 91 130 92
f 91 129 131
f 91 131 130
f 92 132 133
f 92 133 93
f 92 130 132
f 93 134 94
f 93 133 134
f 94 134 135
f 94 135 136
f 94 136 95
f 95 136 137
f 95 137 138
f 95 138 139
f 95 139 140
f 95 140 98
f 95 98 97
f 98 140 139
f 98 139 141
f 98 141 142
f 98 142 99
f 99 142 143
f 99 143 100
f 100 143 119
f 100 119 101
f 102 144 145
f 102 145 103
f 103 145 146
f 103 146 104
f 104 146 147
f 104 147 105
f 105 147 148
f 106 107 150
f 106 150 151
f 106 151 149
f 108 152 109
f 109 152 153
f 109 153 154
f 109 154 155
f 109 155 219
f 109 219 156
f 109 156 110
f 111 156 219
f 111 219 157
f 112 158 128
f 116 159 160
f 116 160 161
f 116 161 162
f 116 162 163
f 116 163 164
f 116 164 165
f 116 165 166
f 116 166 167
f 116 167 118
f 116 127 168
f 116 168 169
f 116 169 170
f 116 170 159
f 118 167 171
f 119 143 172
f 119 172 120
f 120 172 121
f 121 124 173
f 121 173 122
f 121 172 127
f 121 126 125
f 121 125 124
f 122 173 123
f 123 173 124
f 127 172 174
f 127 174 175
f 127 175 138
f 127 138 176
f 127 176 177
f 127 177 178
f 127 178 179
f 127 179 180
f 127 180 181
f 127 181 182
f 127 182 183
f 127 183 184
f 127 184 185
f 127 185 168
f 128 158 186
f 128 186 187
f 128 187 243
f 128 243 188
f 129 188 131
f 130 189 132
f 130 131 190
f 130 190 191
f 130 191 192
f 130 192 189
f 131 188 193
f 131 193 194
f 131 194 190
f 132 189 195
f 132 195 135
f 132 135 134
f 132 134 133
f 135 195 196
f 135 196 137
f 135 137 136
f 137 196 138
f 138 196 176
f 138 175 141
f 138 141 139
f 141 175 174
f 141 174 142
f 142 174 172
f 142 172 143
f 144 197 145
f 144 198 199
f 144 199 200
f 144 200 201
f 144 201 202
f 144 202 203
f 144 203 197
f 145 197 146
f 146 197 147
f 147 203 204
f 147 204 205
f 147 205 206
f 147 206 207
f 147 207 148
f 147 197 203
f 149 151 209
f 149 209 210
f 149 210 208
f 150 211 151
f 151 211 212
f 151 212 213
f 151 213 209
f 152 214 153
f 153 214 215
f 153 215 154
f 154 215 216
f 154 216 287
f 154 287 217
f 154 217 218
f 154 218 155
f 155 218 220
f 155 220 221
f 155 221 290
f 155 290 219
f 157 219 290
f 157 290 222
f 159 223 160
f 159 170 224
f 159 224 223
f 160 225 226
f 160 226 227
f 160 227 228
f 160 228 229
f 160 229 166
f 160 166 165
f 160 165 161
f 160 223 230
f 160 230 224
f 160 224 170
f 160 170 169
f 160 169 231
f 160 231 225
f 161 165 162
f 162 165 164
f 162 164 163
f 166 229 171
f 166 171 167
f 168 185 180
f 168 180 169
f 169 180 231
f 171 229 232
f 176 196 233
f 176 233 180
f 176 180 177
f 177 180 178
f 178 180 234
f 178 234 179
f 179 234 180
f 180 233 235
f 180 235 236
f 180 236 237
f 180 237 238
f 180 238 239
f 180 239 231
f 180 185 181
f 181 185 182
f 182 185 184
f 182 184 183
f 186 240 187
f 187 240 241
f 187 241 242
f 187 242 327
f 187 327 243
f 188 243 244
f 188 244 245
f 188 245 193
f 189 246 195
f 189 192 248
f 189 248 247
f 189 247 246
f 190 194 191
f 191 248 192
f 191 194 249
f 191 249 250
f 191 250 251
f 191 251 248
f 193 245 194
f 194 244 249
f 194 245 244
f 195 246 252
f 195 252 253
f 195 253 254
f 195 254 255
f 195 255 233
f 195 233 196
f 198 256 199
f 199 257 258
f 199 258 259
f 199 259 260
f 199 260 261
f 199 261 262
f 199 262 263
f 199 263 264
f 199 264 200
f 199 256 257
f 200 265 266
f 200 266 267
f 200 267 202
f 200 202 201
f 200 264 268
f 200 268 269
f 200 269 270
f 200 270 271
f 200 271 272
f 200 272 265
f 202 267 273
f 202 273 204
f 202 204 203
f 204 273 274
f 204 274 205
f 205 274 206
f 206 274 275
f 208 210 276
f 209 213 210
f 210 213 277
f 210 277 278
f 210 278 279
f 210 279 280
f 210 280 276
f 211 281 212
f 212 282 213
f 212 281 283
f 212 283 284
f 212 284 285
f 212 285 282
f 213 282 277
f 214 286 287
f 214 287 216
f 214 216 215
f 217 287 288
f 217 288 289
f 217 289 220
f 217 220 218
f 220 291 384
f 220 384 292
f 220 292 293
f 220 293 294
f 220 294 221
f 220 289 291
f 221 294 295
f 221 295 296
f 221 296 328
f 221 328 290
f 222 290 328
f 222 328 297
f 223 224 230
f 225 231 298
f 225 298 299
f 225 299 300
f 225 300 226
f 226 300 227
f 227 301 228
f 227 300 301
f 228 301 302
f 228 302 261
f 228 261 260
f 228 260 259
f 228 259 303
f 228 303 304
f 228 304 305
f 228 305 306
f 228 306 307
f 228 307 229
f 229 307 258
f 229 258 308
f 229 308 309
f 229 309 310
f 229 310 232
f 231 239 298
f 233 255 311
f 233 311 312
f 233 312 313
f 233 313 314
f 233 314 315
f 233 315 235
f 235 315 316
f 235 316 317
f 235 317 271
f 235 271 236
f 236 271 318
f 236 318 237
f 237 318 319
f 237 319 320
f 237 320 321
f 237 321 238
f 238 321 322
f 238 322 268
f 238 268 323
f 238 323 324
f 238 324 239
f 239 324 325
f 239 325 264
f 239 264 298
f 241 326 242
f 242 326 297
f 242 297 328
f 242 328 296
f 242 296 327
f 243 329 244
f 243 327 329
f 244 329 249
f 246 330 331
f 246 331 332
f 246 332 252
f 246 247 333
f 246 333 335
f 246 335 330
f 247 334 335
f 247 335 333
f 247 248 336
f 247 336 337
f 247 337 334
f 248 251 337
f 248 337 336
f 249 329 338
f 249 338 339
f 249 339 250
f 250 339 340
f 250 340 341
f 250 341 342
f 250 342 251
f 251 342 343
f 251 343 344
f 251 344 337
f 252 345 253
f 252 332 346
f 252 346 345
f 253 345 347
f 253 347 254
f 254 347 348
f 254 348 349
f 254 349 311
f 254 311 255
f 256 350 351
f 256 351 257
f 257 351 308
f 257 308 258
f 258 307 305
f 258 305 259
f 259 305 303
f 261 302 300
f 261 300 262
f 262 300 263
f 263 300 299
f 263 299 264
f 264 325 324
f 264 324 352
f 264 352 268
f 264 299 298
f 265 272 353
f 265 353 354
f 265 354 355
f 265 355 266
f 266 356 357
f 266 357 358
f 266 358 359
f 266 359 273
f 266 273 267
f 266 355 356
f 268 352 360
f 268 360 324
f 268 324 323
f 268 322 361
f 268 361 269
f 269 361 318
f 269 318 270
f 270 318 271
f 271 317 362
f 271 362 354
f 271 354 353
f 271 353 272
f 273 359 274
f 274 363 275
f 274 359 364
f 274 364 365
f 274 365 363
f 275 363 365
f 277 282 285
f 277 285 366
f 277 366 368
f 277 368 278
f 278 367 279
f 278 368 369
f 278 369 367
f 279 367 370
f 279 370 371
f 279 371 372
f 279 372 373
f 279 373 374
f 279 374 280
f 283 375 284
f 284 375 376
f 284 376 285
f 285 376 377
f 285 377 366
f 286 378 288
f 286 288 287
f 288 378 379
f 288 379 380
f 288 380 370
f 288 370 289
f 289 370 381
f 289 381 382
f 289 382 383
f 289 383 384
f 289 384 291
f 292 384 295
f 292 295 293
f 293 295 294
f 295 384 383
f 295 383 340
f 295 340 296
f 296 340 338
f 296 338 327
f 300 302 301
f 303 305 304
f 305 307 306
f 308 350 385
f 308 385 309
f 308 351 386
f 308 386 350
f 311 349 312
f 312 387 388
f 312 388 313
f 312 349 389
f 312 389 390
f 312 390 391
f 312 391 387
f 313 388 392
f 313 392 314
f 314 392 393
f 314 393 315
f 315 393 394
f 315 394 316
f 316 394 317
f 317 394 362
f 318 361 319
f 319 361 322
f 319 322 395
f 319 395 321
f 319 321 320
f 321 395 322
f 324 360 352
f 327 338 329
f 330 396 331
f 330 335 396
f 331 396 397
f 331 397 398
f 331 398 399
f 331 399 332
f 332 399 346
f 334 400 401
f 334 401 335
f 334 337 400
f 335 401 396
f 337 344 402
f 337 402 403
f 337 403 400
f 338 340 339
f 340 383 341
f 341 383 342
f 342 383 382
f 342 382 404
f 342 404 343
f 343 404 405
f 343 405 344
f 344 405 402
f 345 346 406
f 345 406 347
f 346 399 398
f 346 398 397
f 346 397 406
f 347 406 348
f 348 390 389
f 348 389 349
f 348 406 407
f 348 407 390
f 350 386 351
f 354 362 355
f 355 408 391
f 355 391 407
f 355 407 409
f 355 409 410
f 355 410 411
f 355 411 412
f 355 412 413
f 355 413 414
f 355 414 415
f 355 415 416
f 355 416 417
f 355 417 418
f 355 418 419
f 355 419 356
f 355 362 420
f 355 420 421
f 355 421 387
f 355 387 408
f 356 419 422
f 356 422 423
f 356 423 424
f 356 424 425
f 356 425 357
f 357 426 358
f 357 425 427
f 357 427 426
f 358 426 428
f 358 428 359
f 359 428 364
f 362 394 420
f 364 429 365
f 364 428 429
f 366 377 405
f 366 405 404
f 366 404 368
f 367 369 430
f 367 430 381
f 367 381 370
f 368 404 369
f 369 404 382
f 369 382 430
f 370 380 371
f 371 380 372
f 372 380 431
f 375 432 376
f 376 433 377
f 376 432 434
f 376 434 435
f 376 435 436
f 376 436 437
f 376 437 438
f 376 438 433
f 377 433 405
f 379 431 380
f 381 430 382
f 387 391 408
f 387 421 388
f 388 421 392
f 390 407 391
f 392 421 394
f 392 394 393
f 394 421 420
f 396 439 440
f 396 440 397
f 396 401 400
f 396 400 439
f 397 440 406
f 400 441 442
f 400 442 439
f 400 403 402
f 400 402 441
f 402 405 443
f 402 443 444
f 402 444 445
f 402 445 441
f 405 433 443
f 406 440 409
f 406 409 407
f 409 440 410
f 410 440 446
f 410 446 447
f 410 447 448
f 410 448 411
f 411 449 450
f 411 450 412
f 411 448 449
f 412 450 413
f 413 451 414
f 413 450 451
f 414 451 452
f 414 452 453
f 414 453 454
f 414 454 415
f 415 454 455
f 415 455 456
f 415 456 416
f 416 456 457
f 416 457 417
f 417 457 458
f 417 458 418
f 418 458 459
f 418 459 419
f 419 459 460
f 419 460 422
f 422 460 461
f 422 461 423
f 423 462 424
f 424 462 426
f 424 426 425
f 425 426 427
f 426 462 463
f 426 463 428
f 433 438 443
f 435 464 436
f 436 464 437
f 437 464 465
f 437 465 466
f 437 466 467
f 437 467 468
f 437 468 444
f 437 444 438
f 438 444 443
f 439 442 440
f 440 442 469
f 440 469 470
f 440 470 446
f 441 471 442
f 441 445 468
f 441 468 472
f 441 472 471
f 442 473 469
f 442 471 473
f 444 468 445
f 446 470 473
f 446 473 474
f 446 474 447
f 447 475 476
f 447 476 448
f 447 474 488
f 447 488 475
f 448 476 449
f 449 477 478
f 449 478 450
f 449 476 477
f 450 478 451
f 451 478 479
f 451 479 452
f 452 479 453
f 453 480 454
f 454 480 481
f 454 481 455
f 455 481 456
f 456 481 457
f 457 482 458
f 457 481 480
f 458 482 459
f 459 482 483
f 459 483 460
f 467 484 468
f 468 484 472
f 469 473 470
f 471 485 473
f 471 472 485
f 472 484 485
f 473 486 487
f 473 487 488
f 473 488 474
f 473 485 486
f 475 489 476
f 475 488 489
f 476 490 491
f 476 491 477
f 476 489 490
f 477 492 478
f 478 492 493
f 478 493 479
f 487 494 495
f 487 495 488
f 488 495 489
f 489 495 494
