v 0.345891 0.0212542 -0.159912
v 0.298706 0.0212542 -0.159912
v 0.345891 0.0202859 -0.159912
v 0.341703 0.0212542 -0.170048
v 0.182614 0.0212542 -0.285219
v 0.182614 -0.543877 -0.159912
v 0.345731 0.00845899 -0.159912
v 0.336908 0.00845899 -0.181168
v 0.34052 0.0212542 -0.172897
v 0.182614 0.0212542 -0.336295
v 0.182614 -0.685315 -0.159912
v 0.345699 0.00721407 -0.159912
v 0.340184 -0.00848595 -0.172085
v 0.336652 -0.00848595 -0.180563
v 0.32858 -0.00848595 -0.195016
v 0.329123 0.00845899 -0.195016
v 0.331233 0.0212542 -0.191614
v 0.336988 0.0212542 -0.181375
v 0.337867 0.0212542 -0.179286
v 0.195018 0.0212542 -0.329301
v 0.195018 0.00845899 -0.329129
v 0.182614 0.00845899 -0.336087
v 0.182614 -0.678191 -0.16523
v 0.184133 -0.673972 -0.166439
v 0.186642 -0.678399 -0.159912
v 0.345235 -0.00848595 -0.159912
v 0.339881 -0.0255 -0.171343
v 0.336348 -0.0255 -0.179821
v 0.327189 -0.0593899 -0.194083
v 0.327557 -0.042445 -0.194619
v 0.322602 -0.00848595 -0.204029
v 0.32289 0.00845899 -0.204409
v 0.329315 0.0212542 -0.195016
v 0.197335 0.0212542 -0.327765
v 0.204416 0.00845899 -0.322895
v 0.204033 -0.00848595 -0.322602
v 0.195018 -0.00848595 -0.328576
v 0.182614 0.00666075 -0.336035
v 0.182614 -0.652394 -0.182618
v 0.185763 -0.643195 -0.185761
v 0.187313 -0.662699 -0.170583
v 0.191437 -0.669961 -0.159912
v 0.344005 -0.042445 -0.159912
v 0.339561 -0.042445 -0.1706
v 0.336029 -0.042445 -0.179078
v 0.321467 -0.0593899 -0.202562
v 0.321883 -0.042445 -0.203114
v 0.326694 -0.0763349 -0.193324
v 0.322346 -0.0206586 -0.203701
v 0.316097 -0.00848595 -0.212525
v 0.307913 0.00845899 -0.223938
v 0.318095 0.0212542 -0.210936
v 0.322986 0.0212542 -0.204547
v 0.204544 0.0212542 -0.322982
v 0.213016 0.0212542 -0.316489
v 0.224077 0.0212542 -0.308011
v 0.226171 0.0212542 -0.306405
v 0.223949 0.00845899 -0.307908
v 0.21252 -0.00848595 -0.316092
v 0.222638 -0.042445 -0.306906
v 0.203393 -0.0320014 -0.322101
v 0.194618 -0.042445 -0.327557
v 0.182614 -0.00848595 -0.3355
v 0.182614 -0.64029 -0.189801
v 0.182614 -0.619679 -0.200403
v 0.185875 -0.609374 -0.202976
v 0.18888 -0.631921 -0.188886
v 0.202978 -0.609374 -0.185864
v 0.200628 -0.618919 -0.182808
v 0.195257 -0.636348 -0.178353
v 0.189951 -0.652808 -0.173985
v 0.200244 -0.653915 -0.159912
v 0.343957 -0.0436207 -0.159912
v 0.339321 -0.0546177 -0.170013
v 0.336316 -0.0599432 -0.176627
v 0.33475 -0.0763349 -0.17806
v 0.320892 -0.0763349 -0.201802
v 0.30649 -0.0593899 -0.222091
v 0.3004 -0.042445 -0.231121
v 0.325511 -0.110294 -0.191562
v 0.300752 -0.0255 -0.231587
v 0.301104 -0.00848595 -0.232054
v 0.301407 0.00845899 -0.232416
v 0.301503 0.0212542 -0.232554
v 0.243609 0.0212542 -0.293023
v 0.251953 0.00845899 -0.28641
v 0.243098 -0.00848595 -0.292626
v 0.251106 -0.0255 -0.285771
v 0.250642 -0.042445 -0.285409
v 0.241627 -0.0593899 -0.291504
v 0.211977 -0.0593899 -0.314245
v 0.202562 -0.0593899 -0.321462
v 0.203106 -0.042445 -0.321877
v 0.194091 -0.0593899 -0.327195
v 0.182614 -0.0286815 -0.334689
v 0.182614 -0.618919 -0.200783
v 0.182614 -0.606331 -0.206896
v 0.189311 -0.598031 -0.205635
v 0.203873 -0.577352 -0.203874
v 0.205647 -0.598031 -0.1893
v 0.212137 -0.60232 -0.178267
v 0.225563 -0.601351 -0.161362
v 0.218626 -0.606538 -0.167199
v 0.221423 -0.612348 -0.159912
v 0.218179 -0.618988 -0.159912
v 0.217028 -0.621339 -0.159912
v 0.20715 -0.618919 -0.17433
v 0.204544 -0.629431 -0.170928
v 0.201619 -0.640705 -0.16713
v 0.2044 -0.646031 -0.159912
v 0.343269 -0.059874 -0.159912
v 0.342118 -0.0599432 -0.162675
v 0.33905 -0.0659604 -0.169357
v 0.338714 -0.0763349 -0.168546
v 0.337547 -0.110294 -0.165714
v 0.3324 -0.110294 -0.17806
v 0.324904 -0.127239 -0.19063
v 0.313092 -0.0763349 -0.211972
v 0.319533 -0.110294 -0.200041
v 0.299393 -0.0763349 -0.229826
v 0.299985 -0.0593899 -0.230569
v 0.291497 -0.0593899 -0.24162
v 0.284992 -0.0593899 -0.25008
v 0.285407 -0.042445 -0.250616
v 0.286127 -0.00848595 -0.251548
v 0.292632 -0.00848595 -0.243087
v 0.29292 0.00845899 -0.243467
v 0.288125 0.0212542 -0.249977
v 0.252081 0.0212542 -0.286514
v 0.2645 0.00749071 -0.276689
v 0.271277 0.00112773 -0.271267
v 0.251569 -0.00848595 -0.286117
v 0.255022 0.0212542 -0.284252
v 0.271437 0.0124704 -0.27144
v 0.262087 -0.0255 -0.277293
v 0.261623 -0.042445 -0.276931
v 0.250099 -0.0593899 -0.284994
v 0.249347 -0.0763349 -0.284407
v 0.221343 -0.0763349 -0.305905
v 0.201811 -0.0763349 -0.320892
v 0.193323 -0.0763349 -0.326694
v 0.182614 -0.0464564 -0.333946
v 0.182614 -0.60059 -0.209572
v 0.182614 -0.58496 -0.216841
v 0.194986 -0.583784 -0.207863
v 0.222207 -0.529906 -0.205756
v 0.217827 -0.55107 -0.200092
v 0.214998 -0.56843 -0.194446
v 0.219537 -0.574308 -0.185346
v 0.207853 -0.583784 -0.194981
v 0.185347 -0.574308 -0.219535
v 0.194442 -0.56843 -0.214994
v 0.202738 -0.541179 -0.21988
v 0.205743 -0.529906 -0.222211
v 0.219745 -0.507151 -0.219742
v 0.221279 -0.595265 -0.170669
v 0.21714 -0.585029 -0.182221
v 0.233395 -0.586896 -0.159912
v 0.226634 -0.60142 -0.159912
v 0.22486 -0.605155 -0.159912
v 0.209883 -0.635449 -0.159912
v 0.342294 -0.0763349 -0.159912
v 0.34223 -0.0763349 -0.160067
v 0.342166 -0.0782714 -0.159912
v 0.339961 -0.110294 -0.159912
v 0.33694 -0.127239 -0.164246
v 0.331169 -0.127239 -0.17806
v 0.324136 -0.144184 -0.189473
v 0.318814 -0.127239 -0.199108
v 0.310342 -0.127239 -0.210159
v 0.289563 -0.110294 -0.239099
v 0.290922 -0.0763349 -0.24086
v 0.283058 -0.110294 -0.247577
v 0.27652 -0.0593899 -0.261062
v 0.276936 -0.042445 -0.261615
v 0.284416 -0.0763349 -0.249321
v 0.277639 -0.00848595 -0.262547
v 0.286414 0.00845899 -0.251928
v 0.277287 -0.0255 -0.262081
v 0.280276 0.0212542 -0.260147
v 0.27668 0.00749071 -0.264498
v 0.271022 -0.00848595 -0.271025
v 0.26255 -0.00848595 -0.277638
v 0.263237 0.0212542 -0.277897
v 0.265619 0.0212542 -0.27605
v 0.271485 0.0212542 -0.271491
v 0.277895 0.0212542 -0.263221
v 0.270558 -0.0255 -0.270559
v 0.270095 -0.042445 -0.270093
v 0.26108 -0.0593899 -0.276516
v 0.260328 -0.0763349 -0.275929
v 0.259449 -0.0932798 -0.275256
v 0.247573 -0.110294 -0.28306
v 0.220161 -0.098882 -0.305007
v 0.200037 -0.110294 -0.319528
v 0.190622 -0.127239 -0.324898
v 0.191549 -0.110294 -0.32552
v 0.192444 -0.0932798 -0.326107
v 0.182614 -0.0817296 -0.332012
v 0.182614 -0.0763349 -0.33234
v 0.182614 -0.583646 -0.217446
v 0.237855 -0.526724 -0.187108
v 0.221887 -0.563035 -0.188403
v 0.224636 -0.51718 -0.208899
v 0.228536 -0.567116 -0.177542
v 0.235186 -0.571127 -0.166681
v 0.237775 -0.577144 -0.159912
v 0.234226 -0.585098 -0.159912
v 0.223645 -0.585029 -0.173743
v 0.182614 -0.571819 -0.222678
v 0.1884 -0.563035 -0.221883
v 0.187106 -0.526724 -0.237855
v 0.208892 -0.51718 -0.224629
v 0.211721 -0.499682 -0.228756
v 0.21423 -0.48329 -0.232623
v 0.218035 -0.466276 -0.235559
v 0.221919 -0.495808 -0.221918
v 0.235553 -0.466276 -0.218033
v 0.232628 -0.48329 -0.214234
v 0.228744 -0.499682 -0.21173
v 0.33873 -0.127239 -0.159912
v 0.336188 -0.144184 -0.162433
v 0.329651 -0.144184 -0.17806
v 0.323257 -0.161129 -0.188161
v 0.317935 -0.144184 -0.197951
v 0.288412 -0.136852 -0.237596
v 0.303837 -0.127239 -0.218637
v 0.295925 -0.127239 -0.228946
v 0.282338 -0.127239 -0.246644
v 0.273867 -0.127239 -0.257643
v 0.27457 -0.110294 -0.258558
v 0.275257 -0.0932798 -0.259439
v 0.275929 -0.0763349 -0.26032
v 0.269551 -0.0593899 -0.26954
v 0.2688 -0.0763349 -0.268798
v 0.25857 -0.110294 -0.274565
v 0.257659 -0.127239 -0.273857
v 0.246646 -0.127239 -0.282335
v 0.218642 -0.127239 -0.303833
v 0.19911 -0.127239 -0.31882
v 0.189487 -0.144184 -0.324139
v 0.182614 -0.134017 -0.328369
v 0.182614 -0.127239 -0.328887
v 0.182614 -0.11638 -0.329681
v 0.182614 -0.0990203 -0.330855
v 0.253487 -0.523266 -0.168442
v 0.251297 -0.534125 -0.165576
v 0.241995 -0.533087 -0.178284
v 0.248404 -0.551001 -0.160292
v 0.237519 -0.559853 -0.169737
v 0.233108 -0.51718 -0.197899
v 0.235585 -0.503486 -0.201111
v 0.24858 -0.551277 -0.159912
v 0.241403 -0.566493 -0.161052
v 0.24102 -0.569467 -0.159912
v 0.182614 -0.554251 -0.229947
v 0.182614 -0.529906 -0.239962
v 0.182614 -0.522436 -0.242863
v 0.182614 -0.517318 -0.244779
v 0.189423 -0.51718 -0.239617
v 0.197895 -0.51718 -0.233107
v 0.201108 -0.503486 -0.235593
v 0.203713 -0.492212 -0.237579
v 0.205759 -0.48329 -0.23915
v 0.187633 -0.477134 -0.255191
v 0.182614 -0.466829 -0.262547
v 0.220081 -0.45687 -0.23713
v 0.23712 -0.45687 -0.22007
v 0.237807 -0.408248 -0.237804
v 0.250546 -0.466276 -0.198504
v 0.255213 -0.477134 -0.187626
v 0.23915 -0.48329 -0.205756
v 0.337227 -0.144184 -0.159912
v 0.335165 -0.16431 -0.159912
v 0.333247 -0.178074 -0.161103
v 0.325463 -0.178765 -0.179527
v 0.321995 -0.184921 -0.186141
v 0.322602 -0.173647 -0.187177
v 0.316928 -0.161129 -0.196639
v 0.309463 -0.144184 -0.209019
v 0.279142 -0.161129 -0.245902
v 0.282498 -0.143146 -0.244313
v 0.272988 -0.144184 -0.256504
v 0.266115 -0.127239 -0.266121
v 0.267026 -0.110294 -0.267037
v 0.267921 -0.0932798 -0.267917
v 0.256524 -0.144184 -0.272994
v 0.237599 -0.136852 -0.288413
v 0.197959 -0.144184 -0.31794
v 0.188161 -0.161129 -0.323258
v 0.182614 -0.151861 -0.326763
v 0.260137 -0.517456 -0.162105
v 0.259018 -0.524788 -0.159912
v 0.256572 -0.531427 -0.159912
v 0.255517 -0.534125 -0.159912
v 0.253343 -0.539658 -0.159912
v 0.255565 -0.511993 -0.171136
v 0.248836 -0.550655 -0.159912
v 0.251154 -0.500235 -0.182342
v 0.182614 -0.500927 -0.250667
v 0.185028 -0.488477 -0.253206
v 0.182614 -0.483013 -0.25697
v 0.182614 -0.472224 -0.2607
v 0.182614 -0.449331 -0.26809
v 0.195465 -0.447809 -0.258697
v 0.182614 -0.434807 -0.272424
v 0.208588 -0.415441 -0.258265
v 0.21706 -0.415441 -0.251755
v 0.229623 -0.414542 -0.242345
v 0.251761 -0.415441 -0.217066
v 0.249251 -0.432386 -0.213768
v 0.252768 -0.452443 -0.201405
v 0.274698 -0.449331 -0.174002
v 0.272732 -0.462057 -0.171429
v 0.242346 -0.414542 -0.229619
v 0.239134 -0.398496 -0.239133
v 0.254846 -0.341022 -0.238028
v 0.253439 -0.352364 -0.236215
v 0.249811 -0.381482 -0.231484
v 0.248436 -0.39815 -0.22772
v 0.253471 -0.403614 -0.219293
v 0.219297 -0.403614 -0.253465
v 0.227705 -0.39815 -0.248423
v 0.231493 -0.381482 -0.249804
v 0.236208 -0.352364 -0.25343
v 0.238031 -0.341022 -0.254829
v 0.266386 -0.467175 -0.177473
v 0.27083 -0.47333 -0.168891
v 0.259881 -0.483013 -0.178854
v 0.257659 -0.500235 -0.173864
v 0.333743 -0.178074 -0.159912
v 0.331489 -0.195019 -0.161103
v 0.32508 -0.195019 -0.176402
v 0.321371 -0.195019 -0.18488
v 0.310342 -0.228978 -0.193237
v 0.310662 -0.211964 -0.196363
v 0.314067 -0.195019 -0.195016
v 0.317056 -0.178765 -0.193704
v 0.307433 -0.178074 -0.206378
v 0.292456 -0.178074 -0.225907
v 0.285951 -0.178074 -0.234385
v 0.276296 -0.176898 -0.247145
v 0.271421 -0.170466 -0.254483
v 0.26498 -0.144184 -0.264982
v 0.244312 -0.143146 -0.282508
v 0.25451 -0.170466 -0.271422
v 0.20902 -0.144184 -0.309462
v 0.206366 -0.178074 -0.307441
v 0.196632 -0.161129 -0.316921
v 0.193707 -0.178765 -0.317042
v 0.18717 -0.173647 -0.322602
v 0.186147 -0.184921 -0.321997
v 0.182614 -0.167353 -0.325244
v 0.269104 -0.48329 -0.166422
v 0.266866 -0.501065 -0.160689
v 0.267217 -0.501549 -0.159912
v 0.182614 -0.415372 -0.278191
v 0.189056 -0.415441 -0.273235
v 0.197527 -0.415441 -0.266743
v 0.258266 -0.415441 -0.208588
v 0.255757 -0.432386 -0.20529
v 0.282514 -0.415372 -0.177006
v 0.289004 -0.409701 -0.170635
v 0.287405 -0.420974 -0.167958
v 0.275481 -0.476166 -0.159912
v 0.273851 -0.481492 -0.159912
v 0.253823 -0.286245 -0.25381
v 0.255965 -0.330716 -0.239478
v 0.265315 -0.330025 -0.227512
v 0.270478 -0.335074 -0.219362
v 0.29244 -0.330716 -0.19196
v 0.29049 -0.347592 -0.189439
v 0.259593 -0.347039 -0.229912
v 0.270606 -0.387153 -0.202579
v 0.256332 -0.381482 -0.223006
v 0.254974 -0.392271 -0.221244
v 0.259769 -0.39815 -0.212974
v 0.284113 -0.398496 -0.181116
v 0.182614 -0.398496 -0.282939
v 0.192157 -0.398496 -0.275636
v 0.200644 -0.398496 -0.269126
v 0.221247 -0.392271 -0.25495
v 0.202562 -0.387153 -0.270594
v 0.210826 -0.381482 -0.265672
v 0.197927 -0.347592 -0.283993
v 0.208972 -0.347592 -0.275515
v 0.185731 -0.370554 -0.287653
v 0.189439 -0.347592 -0.290502
v 0.191965 -0.330716 -0.292436
v 0.219361 -0.335074 -0.270473
v 0.227513 -0.330025 -0.26531
v 0.239469 -0.330716 -0.255951
v 0.271054 -0.490345 -0.159912
v 0.331985 -0.195019 -0.159912
v 0.331841 -0.196264 -0.159912
v 0.324057 -0.212033 -0.173985
v 0.320172 -0.212033 -0.182463
v 0.307625 -0.262867 -0.18968
v 0.303853 -0.228978 -0.201715
v 0.305675 -0.206292 -0.204081
v 0.30641 -0.195019 -0.205031
v 0.299905 -0.195019 -0.213526
v 0.284928 -0.195019 -0.233055
v 0.269935 -0.195019 -0.252567
v 0.261479 -0.195019 -0.261459
v 0.252576 -0.195019 -0.269937
v 0.233044 -0.195019 -0.284925
v 0.214854 -0.178074 -0.300932
v 0.20504 -0.195019 -0.306405
v 0.195018 -0.195019 -0.314072
v 0.19636 -0.211964 -0.31067
v 0.193228 -0.228978 -0.310342
v 0.184884 -0.195019 -0.321376
v 0.182614 -0.195019 -0.32236
v 0.182614 -0.18167 -0.323828
v 0.290378 -0.398496 -0.172638
v 0.305435 -0.340053 -0.169944
v 0.304188 -0.351396 -0.167164
v 0.296276 -0.398496 -0.161103
v 0.291801 -0.415372 -0.161829
v 0.291161 -0.42132 -0.159912
v 0.289163 -0.428859 -0.159912
v 0.28699 -0.436743 -0.159912
v 0.283585 -0.448639 -0.159912
v 0.241723 -0.313771 -0.257695
v 0.247253 -0.280297 -0.260216
v 0.255102 -0.274902 -0.255088
v 0.260232 -0.280297 -0.247266
v 0.257707 -0.313771 -0.241723
v 0.266178 -0.313771 -0.230724
v 0.271661 -0.323869 -0.220899
v 0.287293 -0.317437 -0.202233
v 0.305227 -0.288319 -0.186555
v 0.304093 -0.299662 -0.184794
v 0.302654 -0.313771 -0.182618
v 0.300912 -0.330716 -0.179959
v 0.287645 -0.370554 -0.185726
v 0.286286 -0.381482 -0.183948
v 0.182614 -0.389436 -0.285271
v 0.183957 -0.381482 -0.286289
v 0.182614 -0.381482 -0.287222
v 0.182614 -0.362531 -0.291711
v 0.182614 -0.34697 -0.29532
v 0.182614 -0.335419 -0.297979
v 0.182614 -0.330716 -0.299032
v 0.182614 -0.313702 -0.302658
v 0.184804 -0.299662 -0.304092
v 0.186546 -0.288319 -0.305231
v 0.195961 -0.312596 -0.293092
v 0.21041 -0.312596 -0.282007
v 0.230726 -0.313771 -0.266173
v 0.329923 -0.212102 -0.159912
v 0.322266 -0.238038 -0.169771
v 0.320556 -0.262867 -0.165627
v 0.314466 -0.262867 -0.17806
v 0.306091 -0.279812 -0.18766
v 0.27075 -0.267916 -0.236698
v 0.301135 -0.262867 -0.198158
v 0.289132 -0.225796 -0.221573
v 0.294023 -0.245923 -0.210988
v 0.283729 -0.212033 -0.231484
v 0.275241 -0.212033 -0.242535
v 0.268736 -0.212033 -0.250996
v 0.257547 -0.245923 -0.257522
v 0.258906 -0.228978 -0.258904
v 0.26028 -0.212033 -0.260251
v 0.25101 -0.212033 -0.268729
v 0.204081 -0.206292 -0.305663
v 0.210634 -0.211964 -0.29974
v 0.199941 -0.245923 -0.302503
v 0.189679 -0.262867 -0.307614
v 0.182614 -0.210857 -0.320253
v 0.299601 -0.346486 -0.176592
v 0.308264 -0.346555 -0.159912
v 0.307689 -0.346486 -0.161345
v 0.306298 -0.330716 -0.171481
v 0.319741 -0.281127 -0.160655
v 0.316816 -0.296826 -0.161103
v 0.313859 -0.313771 -0.161103
v 0.31087 -0.330716 -0.161103
v 0.311381 -0.330647 -0.159912
v 0.305499 -0.359419 -0.159912
v 0.303661 -0.367788 -0.159912
v 0.301167 -0.379061 -0.159912
v 0.300097 -0.383834 -0.159912
v 0.296772 -0.398565 -0.159912
v 0.296516 -0.399672 -0.159912
v 0.232964 -0.296826 -0.2679
v 0.243945 -0.296826 -0.259422
v 0.235201 -0.279812 -0.269627
v 0.236688 -0.267916 -0.270749
v 0.244472 -0.262522 -0.265638
v 0.247477 -0.245923 -0.266001
v 0.249251 -0.228978 -0.267382
v 0.256172 -0.262867 -0.256141
v 0.267377 -0.228978 -0.249234
v 0.266003 -0.245923 -0.247473
v 0.265635 -0.262522 -0.244486
v 0.267905 -0.296826 -0.232969
v 0.259433 -0.296826 -0.243951
v 0.269615 -0.279812 -0.235213
v 0.272684 -0.313771 -0.222246
v 0.27441 -0.296826 -0.224491
v 0.289387 -0.296826 -0.204962
v 0.284608 -0.279812 -0.215684
v 0.311605 -0.279812 -0.17806
v 0.182614 -0.291708 -0.306854
v 0.20496 -0.296826 -0.289397
v 0.182614 -0.284377 -0.308184
v 0.187665 -0.279812 -0.306077
v 0.196153 -0.279812 -0.299585
v 0.224492 -0.296826 -0.27441
v 0.327605 -0.228978 -0.159912
v 0.32468 -0.244539 -0.161794
v 0.323401 -0.259409 -0.159912
v 0.322922 -0.262867 -0.159912
v 0.321851 -0.269922 -0.159912
v 0.320156 -0.280504 -0.159912
v 0.271677 -0.256643 -0.237873
v 0.276616 -0.262522 -0.230206
v 0.273883 -0.228978 -0.240773
v 0.242538 -0.212033 -0.275238
v 0.219473 -0.245923 -0.287515
v 0.230199 -0.262522 -0.27662
v 0.198167 -0.262867 -0.301139
v 0.182614 -0.212033 -0.320064
v 0.307961 -0.348007 -0.159912
v 0.317072 -0.29821 -0.159912
v 0.314178 -0.314809 -0.159912
v 0.237887 -0.256643 -0.271664
v 0.182614 -0.279812 -0.308978
v 0.182614 -0.27096 -0.31048
v 0.324424 -0.252009 -0.159912
f 1 2 6
f 1 6 11
f 1 11 25
f 1 25 42
f 1 42 72
f 1 72 110
f 1 110 161
f 1 161 106
f 1 106 105
f 1 105 104
f 1 104 160
f 1 160 159
f 1 159 158
f 1 158 208
f 1 208 207
f 1 207 255
f 1 255 253
f 1 253 298
f 1 298 296
f 1 296 295
f 1 295 294
f 1 294 293
f 1 293 356
f 1 356 393
f 1 393 366
f 1 366 365
f 1 365 424
f 1 424 423
f 1 423 422
f 1 422 421
f 1 421 487
f 1 487 486
f 1 486 485
f 1 485 484
f 1 484 483
f 1 483 482
f 1 482 527
f 1 527 474
f 1 474 481
f 1 481 529
f 1 529 528
f 1 528 518
f 1 518 517
f 1 517 516
f 1 516 515
f 1 515 533
f 1 533 513
f 1 513 452
f 1 452 395
f 1 395 394
f 1 394 331
f 1 331 274
f 1 274 273
f 1 273 221
f 1 221 165
f 1 165 164
f 1 164 162
f 1 162 111
f 1 111 73
f 1 73 43
f 1 43 26
f 1 26 12
f 1 12 7
f 1 7 3
f 1 3 4
f 1 4 9
f 1 9 19
f 1 19 18
f 1 18 17
f 1 17 33
f 1 33 53
f 1 53 52
f 1 52 84
f 1 84 128
f 1 128 180
f 1 180 187
f 1 187 186
f 1 186 185
f 1 185 184
f 1 184 133
f 1 133 129
f 1 129 85
f 1 85 57
f 1 57 56
f 1 56 55
f 1 55 54
f 1 54 34
f 1 34 20
f 1 20 10
f 1 10 5
f 1 5 2
f 2 5 6
f 3 7 4
f 4 7 8
f 4 8 9
f 5 10 22
f 5 22 38
f 5 38 63
f 5 63 95
f 5 95 142
f 5 142 200
f 5 200 199
f 5 199 245
f 5 245 244
f 5 244 243
f 5 243 242
f 5 242 291
f 5 291 353
f 5 353 415
f 5 415 414
f 5 414 472
f 5 472 526
f 5 526 532
f 5 532 531
f 5 531 509
f 5 509 507
f 5 507 446
f 5 446 445
f 5 445 444
f 5 444 443
f 5 443 442
f 5 442 441
f 5 441 439
f 5 439 379
f 5 379 357
f 5 357 306
f 5 306 304
f 5 304 266
f 5 266 303
f 5 303 302
f 5 302 300
f 5 300 259
f 5 259 258
f 5 258 257
f 5 257 256
f 5 256 210
f 5 210 201
f 5 201 144
f 5 144 143
f 5 143 97
f 5 97 96
f 5 96 65
f 5 65 64
f 5 64 39
f 5 39 23
f 5 23 11
f 5 11 6
f 7 12 8
f 8 12 13
f 8 13 14
f 8 14 15
f 8 15 16
f 8 16 17
f 8 17 18
f 8 18 19
f 8 19 9
f 10 20 21
f 10 21 22
f 11 23 24
f 11 24 25
f 12 26 13
f 13 27 28
f 13 28 14
f 13 26 27
f 14 28 29
f 14 29 30
f 14 30 15
f 15 31 16
f 15 30 31
f 16 32 33
f 16 33 17
f 16 31 32
f 20 34 21
f 21 34 35
f 21 35 36
f 21 36 37
f 21 37 38
f 21 38 22
f 23 39 40
f 23 40 24
f 24 41 42
f 24 42 25
f 24 40 41
f 26 43 27
f 27 43 44
f 27 44 45
f 27 45 28
f 28 45 29
f 29 46 47
f 29 47 30
f 29 45 48
f 29 48 46
f 30 47 49
f 30 49 31
f 31 49 50
f 31 50 32
f 32 51 52
f 32 52 53
f 32 53 33
f 32 50 51
f 34 54 35
f 35 54 55
f 35 55 56
f 35 56 57
f 35 57 58
f 35 58 59
f 35 59 36
f 36 59 60
f 36 60 61
f 36 61 62
f 36 62 37
f 37 63 38
f 37 62 63
f 39 64 40
f 40 64 65
f 40 65 66
f 40 66 67
f 40 67 68
f 40 68 69
f 40 69 70
f 40 70 71
f 40 71 41
f 41 72 42
f 41 71 72
f 43 73 74
f 43 74 44
f 44 74 45
f 45 74 75
f 45 75 76
f 45 76 48
f 46 48 77
f 46 77 78
f 46 78 47
f 47 78 79
f 47 79 50
f 47 50 49
f 48 76 80
f 48 80 77
f 50 79 81
f 50 81 82
f 50 82 83
f 50 83 51
f 51 83 52
f 52 83 84
f 57 85 58
f 58 85 86
f 58 86 87
f 58 87 59
f 59 87 88
f 59 88 60
f 60 88 89
f 60 89 90
f 60 90 91
f 60 91 92
f 60 92 93
f 60 93 61
f 61 93 62
f 62 93 94
f 62 94 63
f 63 94 95
f 65 96 66
f 66 96 97
f 66 97 98
f 66 98 99
f 66 99 67
f 67 99 68
f 68 100 101
f 68 101 102
f 68 102 103
f 68 103 104
f 68 104 105
f 68 105 106
f 68 106 107
f 68 107 69
f 68 99 100
f 69 107 108
f 69 108 70
f 70 109 110
f 70 110 72
f 70 72 71
f 70 108 109
f 73 111 74
f 74 111 112
f 74 112 75
f 75 112 113
f 75 113 76
f 76 113 114
f 76 114 115
f 76 115 116
f 76 116 117
f 76 117 80
f 77 118 78
f 77 80 117
f 77 117 119
f 77 119 118
f 78 118 120
f 78 120 121
f 78 121 79
f 79 121 122
f 79 122 123
f 79 123 124
f 79 124 125
f 79 125 126
f 79 126 81
f 81 126 82
f 82 126 83
f 83 127 128
f 83 128 84
f 83 126 127
f 85 129 86
f 86 130 131
f 86 131 132
f 86 132 87
f 86 129 133
f 86 133 134
f 86 134 130
f 87 132 88
f 88 135 136
f 88 136 89
f 88 132 183
f 88 183 135
f 89 136 190
f 89 190 137
f 89 137 90
f 90 137 138
f 90 138 139
f 90 139 140
f 90 140 91
f 91 140 92
f 92 94 93
f 92 140 141
f 92 141 94
f 94 141 142
f 94 142 95
f 97 143 98
f 98 143 144
f 98 144 145
f 98 145 99
f 99 146 147
f 99 147 148
f 99 148 149
f 99 149 150
f 99 150 100
f 99 145 151
f 99 151 152
f 99 152 153
f 99 153 154
f 99 154 155
f 99 155 146
f 100 156 101
f 100 150 157
f 100 157 156
f 101 156 102
f 102 156 158
f 102 158 159
f 102 159 160
f 102 160 103
f 103 160 104
f 106 108 107
f 106 161 108
f 108 161 110
f 108 110 109
f 111 162 113
f 111 113 112
f 113 162 163
f 113 163 114
f 114 163 164
f 114 164 165
f 114 165 115
f 115 165 166
f 115 166 116
f 116 166 167
f 116 167 117
f 117 167 168
f 117 168 169
f 117 169 119
f 118 119 120
f 119 169 170
f 119 170 171
f 119 171 120
f 120 172 121
f 120 171 173
f 120 173 172
f 121 172 122
f 122 172 176
f 122 176 123
f 123 174 175
f 123 175 124
f 123 176 174
f 124 175 125
f 125 177 131
f 125 131 178
f 125 178 127
f 125 127 126
f 125 175 179
f 125 179 177
f 127 178 128
f 128 178 134
f 128 134 180
f 130 134 131
f 131 134 181
f 131 181 178
f 131 177 179
f 131 179 175
f 131 175 182
f 131 182 136
f 131 136 135
f 131 135 183
f 131 183 132
f 133 184 134
f 134 184 185
f 134 185 186
f 134 186 187
f 134 187 180
f 134 178 181
f 136 182 188
f 136 188 189
f 136 189 190
f 137 190 191
f 137 191 138
f 138 191 192
f 138 192 193
f 138 193 139
f 139 193 140
f 140 193 194
f 140 194 195
f 140 195 196
f 140 196 197
f 140 197 198
f 140 198 141
f 141 199 200
f 141 200 142
f 141 198 199
f 144 201 145
f 145 201 151
f 146 202 203
f 146 203 147
f 146 155 204
f 146 204 202
f 147 203 148
f 148 205 149
f 148 203 205
f 149 205 206
f 149 206 207
f 149 207 208
f 149 208 209
f 149 209 157
f 149 157 150
f 151 210 152
f 151 201 210
f 152 210 211
f 152 211 153
f 153 212 154
f 153 211 212
f 154 212 213
f 154 213 155
f 155 214 215
f 155 215 216
f 155 216 217
f 155 217 218
f 155 218 219
f 155 219 220
f 155 220 204
f 155 213 214
f 156 157 208
f 156 208 158
f 157 209 208
f 162 164 163
f 165 221 166
f 166 221 222
f 166 222 167
f 167 222 223
f 167 223 224
f 167 224 168
f 168 224 225
f 168 225 169
f 169 225 226
f 169 226 170
f 170 226 227
f 170 227 173
f 170 173 171
f 172 173 176
f 173 227 228
f 173 228 229
f 173 229 230
f 173 230 231
f 173 231 232
f 173 232 233
f 173 233 176
f 174 234 189
f 174 189 175
f 174 176 233
f 174 233 234
f 175 189 188
f 175 188 182
f 189 234 190
f 190 234 191
f 191 234 235
f 191 235 192
f 192 236 193
f 192 235 236
f 193 236 237
f 193 237 238
f 193 238 239
f 193 239 240
f 193 240 195
f 193 195 194
f 195 240 196
f 196 240 241
f 196 241 242
f 196 242 243
f 196 243 244
f 196 244 245
f 196 245 199
f 196 199 197
f 197 199 198
f 202 246 247
f 202 247 248
f 202 248 249
f 202 249 250
f 202 250 203
f 202 204 251
f 202 251 246
f 203 250 205
f 204 220 252
f 204 252 251
f 205 250 206
f 206 250 253
f 206 253 254
f 206 254 255
f 206 255 207
f 210 256 211
f 211 256 212
f 212 257 258
f 212 258 259
f 212 259 260
f 212 260 261
f 212 261 213
f 212 256 257
f 213 261 262
f 213 262 214
f 214 262 263
f 214 263 215
f 215 263 264
f 215 264 216
f 216 264 265
f 216 265 266
f 216 266 267
f 216 267 217
f 217 268 218
f 217 267 269
f 217 269 268
f 218 270 271
f 218 271 219
f 218 268 270
f 219 271 272
f 219 272 252
f 219 252 220
f 221 273 222
f 222 273 274
f 222 274 275
f 222 275 223
f 223 275 276
f 223 276 277
f 223 277 278
f 223 278 224
f 224 278 225
f 225 278 279
f 225 279 280
f 225 280 226
f 226 280 281
f 226 281 282
f 226 282 283
f 226 283 230
f 226 230 229
f 226 229 228
f 226 228 227
f 230 283 284
f 230 284 285
f 230 285 286
f 230 286 235
f 230 235 231
f 231 235 232
f 232 235 233
f 233 235 234
f 235 286 237
f 235 237 236
f 237 284 287
f 237 287 288
f 237 288 238
f 237 286 285
f 237 285 284
f 238 288 239
f 239 288 240
f 240 288 289
f 240 289 241
f 241 290 242
f 241 289 290
f 242 290 291
f 246 292 293
f 246 293 294
f 246 294 295
f 246 295 296
f 246 296 247
f 246 251 297
f 246 297 292
f 247 296 298
f 247 298 249
f 247 249 248
f 249 253 250
f 249 298 253
f 251 252 297
f 252 299 297
f 252 272 299
f 253 255 254
f 259 300 262
f 259 262 260
f 260 262 261
f 262 300 263
f 263 301 264
f 263 300 301
f 264 301 265
f 265 302 303
f 265 303 266
f 265 301 302
f 266 304 267
f 267 304 305
f 267 305 306
f 267 306 307
f 267 307 308
f 267 308 309
f 267 309 269
f 268 310 311
f 268 311 312
f 268 312 313
f 268 313 314
f 268 314 270
f 268 269 315
f 268 315 310
f 269 316 317
f 269 317 318
f 269 318 319
f 269 319 320
f 269 320 321
f 269 321 315
f 269 309 322
f 269 322 323
f 269 323 324
f 269 324 325
f 269 325 326
f 269 326 316
f 270 327 271
f 270 314 327
f 271 328 329
f 271 329 272
f 271 327 328
f 272 329 330
f 272 330 299
f 274 331 275
f 275 331 394
f 275 394 332
f 275 332 276
f 276 332 333
f 276 333 277
f 277 333 334
f 277 334 335
f 277 335 336
f 277 336 337
f 277 337 278
f 278 337 338
f 278 338 279
f 279 338 339
f 279 339 280
f 280 339 340
f 280 340 281
f 281 283 282
f 281 340 341
f 281 341 342
f 281 342 343
f 281 343 283
f 283 344 284
f 283 343 344
f 284 344 287
f 287 345 288
f 287 344 346
f 287 346 345
f 288 347 289
f 288 345 346
f 288 346 347
f 289 347 348
f 289 348 349
f 289 349 350
f 289 350 351
f 289 351 290
f 290 351 291
f 291 351 352
f 291 352 353
f 292 297 354
f 292 354 355
f 292 355 356
f 292 356 293
f 297 299 330
f 297 330 328
f 297 328 354
f 300 302 301
f 304 306 305
f 306 357 358
f 306 358 359
f 306 359 307
f 307 359 322
f 307 322 308
f 308 322 309
f 310 360 361
f 310 361 311
f 310 315 321
f 310 321 360
f 311 361 312
f 312 361 362
f 312 362 313
f 313 362 363
f 313 363 314
f 314 363 364
f 314 364 365
f 314 365 366
f 314 366 328
f 314 328 327
f 316 326 367
f 316 367 317
f 317 368 369
f 317 369 370
f 317 370 371
f 317 371 372
f 317 372 373
f 317 373 318
f 317 367 368
f 318 373 374
f 318 374 375
f 318 375 319
f 319 375 376
f 319 376 320
f 320 376 321
f 321 363 362
f 321 362 360
f 321 376 377
f 321 377 378
f 321 378 363
f 322 379 380
f 322 380 381
f 322 381 382
f 322 382 323
f 322 359 358
f 322 358 357
f 322 357 379
f 323 382 324
f 324 382 383
f 324 383 384
f 324 384 325
f 325 385 386
f 325 386 326
f 325 384 387
f 325 387 385
f 326 386 385
f 326 385 388
f 326 388 389
f 326 389 390
f 326 390 391
f 326 391 392
f 326 392 367
f 328 366 393
f 328 393 354
f 328 330 329
f 332 394 395
f 332 395 333
f 333 395 396
f 333 396 334
f 334 396 397
f 334 397 398
f 334 398 335
f 335 399 400
f 335 400 336
f 335 398 458
f 335 458 399
f 336 400 337
f 337 400 401
f 337 401 338
f 338 401 402
f 338 402 339
f 339 402 403
f 339 403 340
f 340 403 341
f 341 403 342
f 342 403 404
f 342 404 343
f 343 404 405
f 343 405 344
f 344 405 346
f 346 405 406
f 346 406 407
f 346 407 408
f 346 408 347
f 347 408 348
f 348 408 409
f 348 409 350
f 348 350 349
f 350 409 410
f 350 410 351
f 351 410 352
f 352 410 411
f 352 411 412
f 352 412 413
f 352 413 414
f 352 414 415
f 352 415 353
f 354 393 355
f 355 393 356
f 360 362 361
f 363 378 416
f 363 416 417
f 363 417 418
f 363 418 419
f 363 419 420
f 363 420 364
f 364 420 421
f 364 421 422
f 364 422 423
f 364 423 424
f 364 424 365
f 367 425 426
f 367 426 427
f 367 427 428
f 367 428 429
f 367 429 368
f 367 392 425
f 368 429 430
f 368 430 369
f 369 431 371
f 369 371 370
f 369 430 431
f 371 431 432
f 371 432 433
f 371 433 434
f 371 434 435
f 371 435 436
f 371 436 372
f 372 436 416
f 372 416 437
f 372 437 373
f 373 437 374
f 374 437 438
f 374 438 378
f 374 378 376
f 374 376 375
f 376 378 377
f 378 438 416
f 379 439 383
f 379 383 380
f 380 383 382
f 380 382 381
f 383 439 440
f 383 440 384
f 384 440 387
f 385 387 388
f 387 440 441
f 387 441 442
f 387 442 388
f 388 442 443
f 388 443 444
f 388 444 445
f 388 445 389
f 389 391 390
f 389 445 446
f 389 446 447
f 389 447 448
f 389 448 449
f 389 449 391
f 391 449 450
f 391 450 451
f 391 451 392
f 392 451 425
f 395 452 396
f 396 452 453
f 396 453 397
f 397 453 454
f 397 454 455
f 397 455 456
f 397 456 398
f 398 456 457
f 398 457 458
f 399 459 400
f 399 458 460
f 399 460 459
f 400 404 403
f 400 403 402
f 400 402 401
f 400 459 461
f 400 461 462
f 400 462 463
f 400 463 404
f 404 463 464
f 404 464 465
f 404 465 466
f 404 466 405
f 405 466 406
f 406 466 465
f 406 465 464
f 406 464 467
f 406 467 468
f 406 468 407
f 407 468 409
f 407 409 408
f 409 468 410
f 410 468 411
f 411 468 469
f 411 469 470
f 411 470 412
f 412 470 525
f 412 525 471
f 412 471 413
f 413 472 414
f 413 471 472
f 416 438 437
f 416 436 473
f 416 473 417
f 417 474 475
f 417 475 418
f 417 473 436
f 417 436 435
f 417 435 434
f 417 434 433
f 417 433 476
f 417 476 454
f 417 454 477
f 417 477 478
f 417 478 479
f 417 479 480
f 417 480 481
f 417 481 474
f 418 475 482
f 418 482 483
f 418 483 484
f 418 484 485
f 418 485 419
f 419 485 486
f 419 486 487
f 419 487 420
f 420 487 421
f 425 451 488
f 425 488 489
f 425 489 426
f 426 489 490
f 426 490 491
f 426 491 427
f 427 491 492
f 427 492 493
f 427 493 494
f 427 494 467
f 427 467 495
f 427 495 463
f 427 463 496
f 427 496 497
f 427 497 498
f 427 498 457
f 427 457 428
f 428 499 500
f 428 500 429
f 428 457 501
f 428 501 499
f 429 500 499
f 429 499 430
f 430 499 503
f 430 503 502
f 430 502 431
f 431 502 432
f 432 502 503
f 432 503 504
f 432 504 433
f 433 504 503
f 433 503 505
f 433 505 456
f 433 456 506
f 433 506 476
f 439 441 440
f 446 507 447
f 447 507 448
f 448 508 449
f 448 507 509
f 448 509 510
f 448 510 511
f 448 511 508
f 449 508 450
f 450 508 512
f 450 512 451
f 451 512 488
f 452 513 453
f 453 513 514
f 453 514 454
f 454 515 516
f 454 516 517
f 454 517 518
f 454 518 477
f 454 476 455
f 454 514 515
f 455 476 506
f 455 506 456
f 456 505 457
f 457 505 501
f 457 498 519
f 457 519 520
f 457 520 458
f 458 520 460
f 459 460 520
f 459 520 519
f 459 519 461
f 461 519 521
f 461 521 462
f 462 521 496
f 462 496 463
f 463 495 464
f 464 495 467
f 467 494 522
f 467 522 468
f 468 522 469
f 469 522 494
f 469 494 470
f 470 523 524
f 470 524 525
f 470 494 523
f 471 525 510
f 471 510 526
f 471 526 472
f 474 527 475
f 475 527 482
f 477 518 528
f 477 528 529
f 477 529 478
f 478 529 479
f 479 529 480
f 480 529 481
f 488 512 490
f 488 490 489
f 490 511 491
f 490 512 508
f 490 508 511
f 491 511 525
f 491 525 524
f 491 524 530
f 491 530 492
f 492 530 494
f 492 494 493
f 494 530 523
f 496 521 519
f 496 519 498
f 496 498 497
f 499 501 505
f 499 505 503
f 509 531 510
f 510 532 526
f 510 525 511
f 510 531 532
f 513 533 514
f 514 533 515
f 523 530 524
