v -0.16042 -0.338264 -0.309683
v -0.16042 -0.338264 -0.253697
v -0.16042 -0.330639 -0.311175
v -0.133798 -0.334871 -0.321429
v -0.132982 -0.338264 -0.321088
v -6.01652e-05 -0.338264 -0.30058
v -6.01652e-05 0.0190472 -0.339762
v -0.16042 0.0190472 -0.298531
v -0.16042 -0.314305 -0.314058
v -0.110221 -0.330674 -0.331949
v -0.110221 -0.338264 -0.330457
v -6.01652e-05 -0.338264 -0.349321
v -6.01652e-05 0.0190472 -0.382852
v -0.16042 0.0190472 -0.345654
v -0.16042 -0.297552 -0.316978
v -0.108903 -0.312906 -0.335628
v -0.0994376 -0.318013 -0.338422
v -0.0959058 -0.330674 -0.337297
v -0.102373 -0.306716 -0.339408
v -0.0938181 -0.338264 -0.336513
v -0.00848944 -0.338264 -0.349321
v -6.01652e-05 -0.330674 -0.350712
v -0.00210077 0.0190472 -0.382865
v -6.01652e-05 0.0169836 -0.382839
v -0.16042 0.00844956 -0.345515
v -0.126939 0.0190472 -0.359524
v -0.16042 -0.281219 -0.319811
v -0.116516 -0.279785 -0.338245
v -0.104461 -0.296748 -0.340281
v -0.0874137 -0.330674 -0.339927
v -0.0852633 -0.338264 -0.339295
v -0.086362 -0.338264 -0.338953
v -0.093253 -0.279785 -0.346678
v -0.0254422 -0.338264 -0.347134
v -0.00848944 -0.330674 -0.350712
v -6.01652e-05 -0.313711 -0.353493
v -0.00848944 0.0190472 -0.382865
v -6.01652e-05 0.00844956 -0.382725
v -0.00848944 0.00844956 -0.382725
v -0.110221 0.00844956 -0.366301
v -0.110221 -0.00851361 -0.365808
v -0.144127 -0.00851361 -0.351761
v -0.16042 -0.00851361 -0.345009
v -0.120707 0.0190472 -0.362104
v -0.16042 -0.269222 -0.321732
v -0.154675 -0.276217 -0.323047
v -0.118431 -0.270516 -0.339042
v -0.108024 -0.279785 -0.341747
v -0.076316 -0.279785 -0.350117
v -0.076316 -0.313711 -0.344605
v -0.076316 -0.330674 -0.341823
v -0.076316 -0.338264 -0.340483
v -0.093253 -0.262821 -0.349245
v -0.0254422 -0.330674 -0.348512
v -0.0254422 -0.313711 -0.351306
v -0.00848944 -0.313711 -0.353493
v -6.01652e-05 -0.30752 -0.354505
v -0.0190535 0.0190472 -0.381499
v -0.0254422 0.00844956 -0.380538
v -6.01652e-05 5.54147e-05 -0.382498
v -0.00848944 -0.00851361 -0.382258
v -0.110221 0.0190472 -0.36644
v -0.103833 0.0190472 -0.368312
v -0.093253 0.00844956 -0.37127
v -0.093253 -0.00851361 -0.37079
v -0.16042 -0.0261413 -0.344377
v -0.16042 -0.0254418 -0.344403
v -0.093253 -0.042405 -0.369601
v -0.110221 -0.042405 -0.364582
v -0.16042 -0.262821 -0.322706
v -0.16042 -0.245928 -0.325045
v -0.120315 -0.259184 -0.339826
v -0.110221 -0.245858 -0.345844
v -0.111744 -0.264045 -0.342696
v -0.100474 -0.200565 -0.355795
v -0.076316 -0.262821 -0.352583
v -0.0476847 -0.268068 -0.355681
v -0.0363829 -0.273314 -0.356427
v -0.0593633 -0.279785 -0.352355
v -0.0593633 -0.313711 -0.346843
v -0.0423949 -0.330674 -0.346286
v -0.0423949 -0.313711 -0.349081
v -0.0974598 -0.211967 -0.355061
v -0.0859696 -0.222529 -0.356376
v -0.0294135 -0.284611 -0.355516
v -0.018096 -0.289193 -0.35625
v -0.00848944 -0.29297 -0.356869
v -6.01652e-05 -0.29297 -0.356869
v -0.0254422 0.0190472 -0.380665
v -0.0254422 -0.00851361 -0.38007
v -0.0423949 -0.00851361 -0.377845
v -0.0750288 0.00844956 -0.374014
v -0.0529746 0.0190472 -0.377048
v -0.0423949 0.0190472 -0.378439
v -6.01652e-05 -0.00851361 -0.382258
v -6.01652e-05 -0.0169078 -0.38198
v -6.01652e-05 -0.0338709 -0.381411
v -0.00848944 -0.042405 -0.38112
v -0.093253 0.0190472 -0.371409
v -0.0839918 0.0190472 -0.372952
v -0.0834895 0.00844956 -0.372889
v -0.0817314 -0.00851361 -0.372661
v -0.144127 -0.042405 -0.350535
v -0.16042 -0.0431045 -0.343758
v -0.0754841 -0.0440838 -0.372282
v -0.076316 -0.0593682 -0.371561
v -0.093253 -0.0593682 -0.368906
v -0.0795653 -0.0254418 -0.37237
v -0.110221 -0.0593682 -0.363861
v -0.132307 -0.0593682 -0.35472
v -0.16042 -0.229594 -0.327296
v -0.110221 -0.211967 -0.350509
v -0.0941948 -0.194934 -0.357805
v -0.0889677 -0.211967 -0.357059
v -0.102436 -0.189268 -0.356389
v -0.093253 -0.144149 -0.363052
v -0.081339 -0.233862 -0.355655
v -0.0759393 -0.245543 -0.354872
v -0.0590807 -0.262576 -0.354897
v -0.0421751 -0.262576 -0.357122
v -0.0254422 -0.262821 -0.359284
v -0.00848944 -0.262821 -0.361471
v -0.00848944 -0.279785 -0.359006
v -0.0244375 -0.279295 -0.357021
v -0.076316 -0.195004 -0.361029
v -0.076316 -0.211967 -0.35912
v -6.01652e-05 -0.279785 -0.359006
v -0.0254422 -0.042405 -0.378932
v -0.0678396 -0.0508691 -0.373066
v -0.0710889 -0.0254418 -0.373496
v -0.0807896 0.0190472 -0.373382
v -0.0755311 0.0190472 -0.374077
v -6.01652e-05 -0.042405 -0.38112
v -6.01652e-05 -0.0508341 -0.380791
v -0.00848944 -0.0593682 -0.38045
v -0.16042 -0.0598578 -0.34305
v -0.0663955 -0.0593682 -0.372876
v -0.076316 -0.0763313 -0.370638
v -0.093253 -0.0763313 -0.367958
v -0.110221 -0.0763313 -0.362875
v -0.143405 -0.213156 -0.336601
v -0.16042 -0.212002 -0.329711
v -0.137252 -0.208294 -0.339813
v -0.108934 -0.194934 -0.353101
v -0.093253 -0.17804 -0.359689
v -0.127174 -0.195004 -0.345541
v -0.16042 -0.195004 -0.331772
v -0.16042 -0.17804 -0.333529
v -0.141254 -0.17804 -0.341469
v -0.103833 -0.17804 -0.35697
v -0.10592 -0.161077 -0.357843
v -0.108024 -0.144149 -0.358703
v -0.093253 -0.127186 -0.364506
v -0.076316 -0.144149 -0.365922
v -0.076316 -0.17804 -0.362673
v -0.0700529 -0.239667 -0.356401
v -0.0593633 -0.211967 -0.361358
v -0.0532415 -0.256771 -0.356414
v -0.0254422 -0.245858 -0.361471
v -0.00848944 -0.245858 -0.363659
v -6.01652e-05 -0.262821 -0.361471
v -0.0593633 -0.195004 -0.363267
v -0.0254422 -0.0593682 -0.378262
v -6.01652e-05 -0.0593682 -0.38045
v -6.01652e-05 -0.0677973 -0.379994
v -0.00848944 -0.0763313 -0.379527
v -0.16042 -0.0740579 -0.342215
v -0.0254422 -0.0763313 -0.377339
v -0.0628794 -0.0763313 -0.372408
v -0.0582488 -0.0927699 -0.371966
v -0.076316 -0.110258 -0.368463
v -0.093253 -0.110258 -0.365694
v -0.110221 -0.110258 -0.360523
v -0.119797 -0.110258 -0.356566
v -0.157234 -0.110258 -0.341065
v -0.16042 -0.0932945 -0.340913
v -0.144127 -0.0763313 -0.348828
v -0.16042 -0.154957 -0.335906
v -0.153937 -0.144149 -0.339699
v -0.1165 -0.144149 -0.3552
v -0.117944 -0.131488 -0.355795
v -0.111461 -0.126381 -0.358854
v -0.076316 -0.127186 -0.367326
v -0.0320192 -0.132082 -0.372813
v -0.0207174 -0.140826 -0.373559
v -0.0593633 -0.17804 -0.364911
v -0.0254422 -0.211967 -0.365821
v -0.0423949 -0.195004 -0.365505
v -6.01652e-05 -0.237324 -0.364759
v -6.01652e-05 -0.245858 -0.363659
v -0.00848944 -0.211967 -0.368008
v -6.01652e-05 -0.0763313 -0.379527
v -0.00848944 -0.110258 -0.377352
v -0.16042 -0.0763313 -0.342076
v -0.0254422 -0.0932945 -0.376252
v -0.0254422 -0.110258 -0.375152
v -0.0350173 -0.120785 -0.373205
v -0.118965 -0.120191 -0.356212
v -0.16042 -0.110258 -0.339737
v -0.16042 -0.127186 -0.338523
v -0.16042 -0.146073 -0.336816
v -0.16042 -0.144149 -0.337006
v -0.0259915 -0.126731 -0.373976
v -0.00848944 -0.127186 -0.376214
v -0.00996495 -0.145548 -0.374482
v -0.0165891 -0.152158 -0.373015
v -0.0254422 -0.17804 -0.369374
v -0.0254422 -0.195004 -0.36773
v -6.01652e-05 -0.220361 -0.366934
v -0.00848944 -0.195004 -0.369917
v -0.00103338 -0.170905 -0.373192
v -6.01652e-05 -0.211967 -0.368008
v -6.01652e-05 -0.110258 -0.377352
v -6.01652e-05 -0.127186 -0.376214
v -0.00740634 -0.177166 -0.371789
v -6.01652e-05 -0.170905 -0.373192
f 1 2 8
f 1 8 14
f 1 14 25
f 1 25 43
f 1 43 67
f 1 67 66
f 1 66 104
f 1 104 136
f 1 136 167
f 1 167 194
f 1 194 176
f 1 176 199
f 1 199 200
f 1 200 202
f 1 202 201
f 1 201 178
f 1 178 148
f 1 148 147
f 1 147 142
f 1 142 111
f 1 111 71
f 1 71 70
f 1 70 45
f 1 45 27
f 1 27 15
f 1 15 9
f 1 9 3
f 1 3 4
f 1 4 5
f 1 5 11
f 1 11 20
f 1 20 32
f 1 32 31
f 1 31 52
f 1 52 34
f 1 34 21
f 1 21 12
f 1 12 6
f 1 6 2
f 2 6 7
f 2 7 8
f 3 9 10
f 3 10 4
f 4 10 11
f 4 11 5
f 6 12 22
f 6 22 36
f 6 36 57
f 6 57 88
f 6 88 127
f 6 127 161
f 6 161 190
f 6 190 189
f 6 189 209
f 6 209 212
f 6 212 216
f 6 216 214
f 6 214 213
f 6 213 192
f 6 192 165
f 6 165 164
f 6 164 134
f 6 134 133
f 6 133 97
f 6 97 96
f 6 96 95
f 6 95 60
f 6 60 38
f 6 38 24
f 6 24 13
f 6 13 7
f 7 13 23
f 7 23 37
f 7 37 58
f 7 58 89
f 7 89 94
f 7 94 93
f 7 93 132
f 7 132 131
f 7 131 100
f 7 100 99
f 7 99 63
f 7 63 62
f 7 62 44
f 7 44 26
f 7 26 14
f 7 14 8
f 9 15 16
f 9 16 10
f 10 17 18
f 10 18 11
f 10 16 19
f 10 19 17
f 11 18 20
f 12 21 35
f 12 35 22
f 13 24 23
f 14 26 25
f 15 27 28
f 15 28 29
f 15 29 16
f 16 29 19
f 17 30 31
f 17 31 32
f 17 32 18
f 17 19 33
f 17 33 30
f 18 32 20
f 19 29 33
f 21 34 35
f 22 35 56
f 22 56 36
f 23 24 37
f 24 38 39
f 24 39 37
f 25 26 40
f 25 40 41
f 25 41 42
f 25 42 43
f 26 44 40
f 27 45 46
f 27 46 47
f 27 47 28
f 28 47 48
f 28 48 29
f 29 48 33
f 30 33 31
f 31 33 49
f 31 49 50
f 31 50 51
f 31 51 52
f 33 48 53
f 33 53 49
f 34 52 54
f 34 54 35
f 35 54 55
f 35 55 56
f 36 56 57
f 37 39 59
f 37 59 58
f 38 60 39
f 39 60 61
f 39 61 90
f 39 90 59
f 40 44 62
f 40 62 63
f 40 63 64
f 40 64 65
f 40 65 41
f 41 66 67
f 41 67 42
f 41 65 68
f 41 68 69
f 41 69 66
f 42 67 43
f 45 47 46
f 45 70 47
f 47 70 71
f 47 71 72
f 47 72 73
f 47 73 74
f 47 74 48
f 48 74 75
f 48 75 53
f 49 53 76
f 49 76 77
f 49 77 78
f 49 78 79
f 49 79 80
f 49 80 50
f 50 80 51
f 51 81 52
f 51 80 82
f 51 82 81
f 52 81 54
f 53 75 83
f 53 83 84
f 53 84 76
f 54 81 82
f 54 82 55
f 55 82 85
f 55 85 86
f 55 86 56
f 56 86 87
f 56 87 57
f 57 87 88
f 58 59 89
f 59 90 91
f 59 91 92
f 59 92 93
f 59 93 94
f 59 94 89
f 60 95 61
f 61 95 96
f 61 96 97
f 61 97 98
f 61 98 128
f 61 128 90
f 63 99 64
f 64 99 100
f 64 100 101
f 64 101 65
f 65 101 102
f 65 102 68
f 66 69 103
f 66 103 104
f 68 105 106
f 68 106 107
f 68 107 69
f 68 102 108
f 68 108 105
f 69 107 109
f 69 109 110
f 69 110 104
f 69 104 103
f 71 73 72
f 71 111 73
f 73 111 112
f 73 112 75
f 73 75 74
f 75 113 114
f 75 114 83
f 75 112 115
f 75 115 116
f 75 116 113
f 76 84 117
f 76 117 118
f 76 118 119
f 76 119 77
f 77 119 120
f 77 120 121
f 77 121 78
f 78 121 122
f 78 122 123
f 78 123 124
f 78 124 85
f 78 85 79
f 79 85 82
f 79 82 80
f 83 114 84
f 84 114 125
f 84 125 126
f 84 126 117
f 85 124 86
f 86 124 123
f 86 123 87
f 87 123 127
f 87 127 88
f 90 128 91
f 91 128 129
f 91 129 130
f 91 130 102
f 91 102 92
f 92 102 101
f 92 101 131
f 92 131 132
f 92 132 93
f 97 133 98
f 98 133 134
f 98 134 135
f 98 135 163
f 98 163 128
f 100 131 101
f 102 130 129
f 102 129 105
f 102 105 108
f 104 110 136
f 105 129 106
f 106 129 137
f 106 137 138
f 106 138 107
f 107 138 139
f 107 139 109
f 109 139 140
f 109 140 110
f 110 140 136
f 111 141 112
f 111 142 141
f 112 142 143
f 112 143 144
f 112 144 115
f 112 141 142
f 113 145 114
f 113 116 145
f 114 145 125
f 115 144 146
f 115 146 147
f 115 147 148
f 115 148 149
f 115 149 150
f 115 150 116
f 116 151 152
f 116 152 153
f 116 153 154
f 116 154 155
f 116 155 125
f 116 125 145
f 116 150 151
f 117 156 118
f 117 126 157
f 117 157 156
f 118 156 158
f 118 158 119
f 119 158 120
f 120 158 159
f 120 159 121
f 121 159 160
f 121 160 122
f 122 160 190
f 122 190 161
f 122 161 127
f 122 127 123
f 125 162 157
f 125 157 126
f 125 155 186
f 125 186 162
f 128 163 129
f 129 163 137
f 134 164 135
f 135 164 165
f 135 165 166
f 135 166 168
f 135 168 163
f 136 140 167
f 137 163 168
f 137 168 169
f 137 169 138
f 138 169 170
f 138 170 171
f 138 171 139
f 139 171 172
f 139 172 140
f 140 172 173
f 140 173 174
f 140 174 175
f 140 175 176
f 140 176 177
f 140 177 167
f 142 147 143
f 143 147 146
f 143 146 144
f 148 178 149
f 149 178 150
f 150 178 179
f 150 179 180
f 150 180 151
f 151 180 152
f 152 180 181
f 152 181 182
f 152 182 173
f 152 173 153
f 153 183 154
f 153 173 172
f 153 172 183
f 154 183 184
f 154 184 185
f 154 185 186
f 154 186 155
f 156 159 158
f 156 157 187
f 156 187 159
f 157 162 188
f 157 188 187
f 159 187 191
f 159 191 160
f 160 189 190
f 160 191 189
f 162 186 188
f 165 192 166
f 166 192 213
f 166 213 193
f 166 193 195
f 166 195 168
f 167 177 194
f 168 195 170
f 168 170 169
f 170 195 171
f 171 195 196
f 171 196 197
f 171 197 183
f 171 183 172
f 173 182 198
f 173 198 174
f 174 198 175
f 175 199 176
f 175 198 200
f 175 200 199
f 176 194 177
f 178 201 179
f 179 202 181
f 179 181 180
f 179 201 202
f 181 200 198
f 181 198 182
f 181 202 200
f 183 197 184
f 184 197 203
f 184 203 204
f 184 204 185
f 185 204 205
f 185 205 206
f 185 206 207
f 185 207 186
f 186 207 188
f 187 188 208
f 187 208 210
f 187 210 191
f 188 207 208
f 189 191 209
f 191 210 211
f 191 211 216
f 191 216 212
f 191 212 209
f 193 196 195
f 193 213 214
f 193 214 204
f 193 204 203
f 193 203 197
f 193 197 196
f 204 214 216
f 204 216 211
f 204 211 205
f 205 211 206
f 206 211 215
f 206 215 207
f 207 215 208
f 208 215 210
f 210 215 211
