v -0.262849 0.854975 -6.14792e-05
v -0.254304 0.8546 -6.14792e-05
v -0.245892 0.85528 -0.0762959
v -0.262849 0.854975 -0.00849069
v -0.274991 0.850403 -6.14792e-05
v -0.245892 0.854225 -6.14792e-05
v -0.235559 0.854835 -0.0866396
v -0.235559 0.854882 -0.103598
v -0.245892 0.854413 -0.0932543
v -0.262849 0.854272 -0.0254491
v -0.274991 0.850403 -0.00849069
v -0.279264 0.846816 -6.14792e-05
v -0.240352 0.851927 -6.14792e-05
v -0.235559 0.849911 -6.14792e-05
v -0.235559 0.853592 -0.120985
v -0.235559 0.852795 -0.127171
v -0.242396 0.850661 -0.127171
v -0.257922 0.850051 -0.0932543
v -0.26108 0.8512 -0.0762959
v -0.262849 0.853264 -0.0424076
v -0.27401 0.84984 -0.0254491
v -0.283464 0.843275 -0.00849069
v -0.283464 0.843275 -6.14792e-05
v -0.235559 0.725733 -6.14792e-05
v -0.235559 0.851177 -0.136486
v -0.239708 0.849418 -0.139258
v -0.255714 0.848832 -0.10497
v -0.27122 0.847801 -0.0673238
v -0.264484 0.851318 -0.0607376
v -0.272896 0.84909 -0.0424076
v -0.272007 0.84841 -0.0560086
v -0.282483 0.841986 -0.0254491
v -0.291406 0.834787 -0.00849069
v -0.291406 0.834787 -6.14792e-05
v -0.292663 0.615765 -6.14792e-05
v -0.235559 0.721278 -9.0052e-05
v -0.235559 0.850309 -0.141458
v -0.237306 0.847824 -0.146016
v -0.246699 0.840133 -0.145373
v -0.25088 0.84494 -0.127171
v -0.253067 0.847003 -0.116285
v -0.266406 0.84351 -0.0932543
v -0.269564 0.846534 -0.0762959
v -0.281379 0.840602 -0.0424076
v -0.277853 0.838046 -0.0762959
v -0.287737 0.830027 -0.0639807
v -0.288514 0.831247 -0.0526798
v -0.289188 0.832114 -0.0424076
v -0.290302 0.833521 -0.0254491
v -0.299327 0.82243 -0.00849069
v -0.295392 0.828574 -6.14792e-05
v -0.339956 0.615765 -6.14792e-05
v -0.253282 0.615765 -0.146016
v -0.235559 0.721302 -0.00973364
v -0.235559 0.848551 -0.146016
v -0.24535 0.84093 -0.146016
v -0.246495 0.839922 -0.146016
v -0.247425 0.839078 -0.146016
v -0.256624 0.833521 -0.140187
v -0.259465 0.836452 -0.127171
v -0.274981 0.835022 -0.0932543
v -0.286326 0.82773 -0.0762959
v -0.291314 0.819265 -0.0762959
v -0.292081 0.823603 -0.0587374
v -0.294902 0.82243 -0.0424076
v -0.29713 0.82243 -0.0254491
v -0.304683 0.812583 -0.00849069
v -0.302026 0.817483 -6.14792e-05
v -0.299327 0.82243 -6.14792e-05
v -0.339956 0.615765 -0.0075049
v -0.339271 0.628427 -6.14792e-05
v -0.235559 0.739427 -0.146016
v -0.30545 0.615765 -0.146016
v -0.255111 0.831692 -0.146016
v -0.262716 0.822008 -0.143615
v -0.267939 0.825408 -0.127171
v -0.270208 0.82916 -0.116142
v -0.27261 0.832466 -0.104827
v -0.283863 0.822126 -0.0935972
v -0.289658 0.816264 -0.0881682
v -0.297733 0.805478 -0.0762959
v -0.300677 0.805478 -0.059366
v -0.303579 0.809769 -0.0254491
v -0.307903 0.804118 -0.00849069
v -0.304683 0.812583 -6.14792e-05
v -0.339598 0.615765 -0.0104051
v -0.339271 0.628427 -0.000961544
v -0.339751 0.617688 -0.00736204
v -0.322825 0.749415 -6.14792e-05
v -0.306646 0.615765 -0.14313
v -0.305041 0.618978 -0.146016
v -0.259966 0.824423 -0.146016
v -0.261775 0.821399 -0.146016
v -0.266058 0.813778 -0.146016
v -0.271363 0.814013 -0.135729
v -0.27634 0.823087 -0.110384
v -0.287348 0.811762 -0.0994834
v -0.292152 0.805853 -0.0935972
v -0.305337 0.780342 -0.0850394
v -0.30316 0.791175 -0.0762959
v -0.304571 0.795044 -0.059366
v -0.305164 0.796802 -0.0503511
v -0.30591 0.798889 -0.0390502
v -0.306799 0.801281 -0.0254491
v -0.307903 0.804118 -6.14792e-05
v -0.313412 0.788526 -0.00849069
v -0.338075 0.615765 -0.0221917
v -0.338556 0.622471 -0.0122624
v -0.335326 0.652882 -0.00849069
v -0.337677 0.634828 -0.00736204
v -0.322825 0.749415 -0.005019
v -0.326638 0.720716 -0.00849069
v -0.328876 0.703763 -0.00849069
v -0.331064 0.686787 -0.00849069
v -0.33321 0.669835 -0.00849069
v -0.318001 0.771573 -6.14792e-05
v -0.322325 0.615765 -0.10527
v -0.322785 0.618978 -0.103169
v -0.322222 0.627676 -0.101812
v -0.302782 0.636352 -0.146016
v -0.269799 0.807096 -0.146016
v -0.272252 0.801398 -0.146016
v -0.289638 0.80046 -0.105041
v -0.300145 0.787001 -0.0917257
v -0.306114 0.782711 -0.0762959
v -0.287307 0.794317 -0.116342
v -0.276432 0.790401 -0.146016
v -0.289331 0.783015 -0.121299
v -0.2828 0.771573 -0.14413
v -0.287307 0.771573 -0.1333
v -0.302792 0.771573 -0.0958688
v -0.306288 0.771573 -0.0873968
v -0.312226 0.754597 -0.0762959
v -0.308782 0.771573 -0.0762959
v -0.311204 0.788526 -0.0254491
v -0.307402 0.786556 -0.059366
v -0.313412 0.788526 -6.14792e-05
v -0.318001 0.771573 -0.00849069
v -0.333179 0.615765 -0.059366
v -0.335213 0.63593 -0.0254491
v -0.335029 0.618978 -0.0424076
v -0.333138 0.652882 -0.0254491
v -0.321159 0.754879 -0.0097908
v -0.32211 0.74557 -0.0163199
v -0.323899 0.739005 -0.0097908
v -0.322202 0.729227 -0.0339784
v -0.324451 0.720716 -0.0254491
v -0.322754 0.733049 -0.0254491
v -0.326679 0.703763 -0.0254491
v -0.328866 0.686787 -0.0254491
v -0.331023 0.669835 -0.0254491
v -0.322989 0.615765 -0.103655
v -0.326413 0.618978 -0.0932543
v -0.326801 0.615765 -0.0932543
v -0.323756 0.652882 -0.0890969
v -0.322887 0.666857 -0.0866967
v -0.321486 0.638978 -0.0999263
v -0.315436 0.652882 -0.110213
v -0.318553 0.634359 -0.10857
v -0.302005 0.65239 -0.142815
v -0.299113 0.669835 -0.14413
v -0.298551 0.667959 -0.146016
v -0.311327 0.771573 -0.059366
v -0.276514 0.79012 -0.146016
v -0.276575 0.790214 -0.145816
v -0.288238 0.762921 -0.135572
v -0.28187 0.771573 -0.146016
v -0.286122 0.756192 -0.144087
v -0.304233 0.758255 -0.099312
v -0.307586 0.753401 -0.0934972
v -0.310478 0.737645 -0.0932543
v -0.31519 0.737645 -0.0762959
v -0.31472 0.754597 -0.059366
v -0.315793 0.771573 -0.0254491
v -0.319187 0.754597 -0.0254491
v -0.330941 0.615765 -0.0762959
v -0.330563 0.618978 -0.0762959
v -0.330747 0.63593 -0.059366
v -0.328672 0.652882 -0.059366
v -0.316959 0.754597 -0.0424076
v -0.317613 0.737645 -0.059366
v -0.320423 0.719074 -0.0577088
v -0.322202 0.712322 -0.0509654
v -0.324451 0.703763 -0.0424076
v -0.322202 0.695322 -0.067881
v -0.326638 0.686787 -0.0424076
v -0.326556 0.669835 -0.059366
v -0.330174 0.615765 -0.0795104
v -0.322171 0.678159 -0.0846251
v -0.319974 0.671429 -0.0927115
v -0.320567 0.652882 -0.097569
v -0.313167 0.669835 -0.110213
v -0.304744 0.657689 -0.134486
v -0.303927 0.669835 -0.132515
v -0.296803 0.686787 -0.14413
v -0.295995 0.686787 -0.146016
v -0.286459 0.750048 -0.146016
v -0.289413 0.751619 -0.138401
v -0.305399 0.746953 -0.102155
v -0.306155 0.737645 -0.103969
v -0.307433 0.720716 -0.107041
v -0.312993 0.720716 -0.0932543
v -0.317613 0.720716 -0.0762959
v -0.328508 0.63593 -0.0762959
v -0.326433 0.652882 -0.0762959
v -0.323909 0.671429 -0.0779103
v -0.320362 0.702098 -0.0746386
v -0.321599 0.686787 -0.0804677
v -0.317684 0.686787 -0.0932543
v -0.315364 0.703763 -0.0932543
v -0.310857 0.686787 -0.110213
v -0.306288 0.686787 -0.121242
v -0.307443 0.669835 -0.124028
v -0.305552 0.69755 -0.119471
v -0.294462 0.703763 -0.14413
v -0.293665 0.703763 -0.146016
v -0.28791 0.742358 -0.146016
v -0.288749 0.737645 -0.146016
v -0.302649 0.737645 -0.112456
v -0.289474 0.732979 -0.146016
v -0.291151 0.721677 -0.146016
v -0.302046 0.703412 -0.125943
v -0.308138 0.703412 -0.111227
f 1 2 3
f 1 3 4
f 1 4 11
f 1 11 5
f 1 5 12
f 1 12 23
f 1 23 34
f 1 34 51
f 1 51 69
f 1 69 68
f 1 68 85
f 1 85 105
f 1 105 137
f 1 137 116
f 1 116 89
f 1 89 71
f 1 71 52
f 1 52 35
f 1 35 24
f 1 24 14
f 1 14 13
f 1 13 6
f 1 6 2
f 2 6 3
f 3 7 8
f 3 8 9
f 3 9 10
f 3 10 4
f 3 6 7
f 4 10 11
f 5 11 12
f 6 13 7
f 7 13 14
f 7 14 24
f 7 24 36
f 7 36 54
f 7 54 72
f 7 72 55
f 7 55 37
f 7 37 25
f 7 25 16
f 7 16 15
f 7 15 8
f 8 15 9
f 9 15 16
f 9 16 17
f 9 17 18
f 9 18 19
f 9 19 20
f 9 20 10
f 10 20 21
f 10 21 11
f 11 21 22
f 11 22 12
f 12 22 23
f 16 25 26
f 16 26 17
f 17 26 27
f 17 27 18
f 18 27 28
f 18 28 19
f 19 28 29
f 19 29 20
f 20 29 21
f 21 30 22
f 21 29 30
f 22 30 31
f 22 31 28
f 22 28 32
f 22 32 33
f 22 33 34
f 22 34 23
f 24 35 36
f 25 37 26
f 26 38 39
f 26 39 40
f 26 40 41
f 26 41 27
f 26 37 38
f 27 41 40
f 27 40 42
f 27 42 43
f 27 43 28
f 28 44 32
f 28 31 29
f 28 43 45
f 28 45 46
f 28 46 47
f 28 47 48
f 28 48 49
f 28 49 44
f 29 31 30
f 32 44 49
f 32 49 33
f 33 49 50
f 33 50 51
f 33 51 34
f 35 52 70
f 35 70 86
f 35 86 107
f 35 107 139
f 35 139 176
f 35 176 188
f 35 188 154
f 35 154 152
f 35 152 117
f 35 117 90
f 35 90 73
f 35 73 53
f 35 53 36
f 36 53 54
f 37 55 38
f 38 55 72
f 38 72 53
f 38 53 73
f 38 73 91
f 38 91 120
f 38 120 162
f 38 162 196
f 38 196 216
f 38 216 221
f 38 221 220
f 38 220 218
f 38 218 217
f 38 217 197
f 38 197 167
f 38 167 164
f 38 164 127
f 38 127 122
f 38 122 121
f 38 121 94
f 38 94 93
f 38 93 92
f 38 92 74
f 38 74 58
f 38 58 57
f 38 57 56
f 38 56 39
f 39 56 57
f 39 57 58
f 39 58 59
f 39 59 40
f 40 59 60
f 40 60 42
f 42 60 61
f 42 61 43
f 43 61 45
f 45 61 62
f 45 62 46
f 46 62 63
f 46 63 64
f 46 64 65
f 46 65 66
f 46 66 47
f 47 66 50
f 47 50 48
f 48 50 49
f 50 66 67
f 50 67 68
f 50 68 69
f 50 69 51
f 52 71 87
f 52 87 70
f 53 72 54
f 58 74 59
f 59 74 75
f 59 75 76
f 59 76 77
f 59 77 78
f 59 78 60
f 60 78 61
f 61 78 62
f 62 78 79
f 62 79 80
f 62 80 63
f 63 80 81
f 63 81 82
f 63 82 64
f 64 82 83
f 64 83 67
f 64 67 65
f 65 67 66
f 67 83 84
f 67 84 105
f 67 105 85
f 67 85 68
f 70 87 88
f 70 88 86
f 71 89 111
f 71 111 87
f 73 90 91
f 74 92 75
f 75 92 93
f 75 93 94
f 75 94 95
f 75 95 76
f 76 95 96
f 76 96 77
f 77 96 79
f 77 79 78
f 79 96 95
f 79 95 80
f 80 95 97
f 80 97 98
f 80 98 99
f 80 99 81
f 81 100 82
f 81 99 100
f 82 100 101
f 82 101 102
f 82 102 103
f 82 103 83
f 83 103 104
f 83 104 84
f 84 104 106
f 84 106 137
f 84 137 105
f 86 88 87
f 86 87 108
f 86 108 107
f 87 109 110
f 87 110 108
f 87 111 112
f 87 112 113
f 87 113 114
f 87 114 115
f 87 115 109
f 89 116 138
f 89 138 111
f 90 117 91
f 91 117 118
f 91 118 119
f 91 119 120
f 94 121 95
f 95 121 122
f 95 122 97
f 97 122 123
f 97 123 98
f 98 123 124
f 98 124 99
f 99 125 100
f 99 124 126
f 99 126 127
f 99 127 128
f 99 128 129
f 99 129 130
f 99 130 131
f 99 131 132
f 99 132 133
f 99 133 134
f 99 134 125
f 100 125 101
f 101 135 102
f 101 125 136
f 101 136 135
f 102 135 106
f 102 106 103
f 103 106 104
f 106 135 136
f 106 136 138
f 106 138 116
f 106 116 137
f 107 108 140
f 107 140 141
f 107 141 139
f 108 110 109
f 108 109 140
f 109 142 140
f 109 115 151
f 109 151 142
f 111 138 143
f 111 143 144
f 111 144 145
f 111 145 112
f 112 146 147
f 112 147 113
f 112 145 148
f 112 148 146
f 113 147 149
f 113 149 150
f 113 150 114
f 114 150 151
f 114 151 115
f 117 152 118
f 118 153 119
f 118 152 154
f 118 154 153
f 119 155 156
f 119 156 157
f 119 157 158
f 119 158 159
f 119 159 120
f 119 153 155
f 120 159 160
f 120 160 161
f 120 161 162
f 122 127 126
f 122 126 123
f 123 126 124
f 125 134 163
f 125 163 136
f 127 164 129
f 127 129 165
f 127 165 128
f 128 165 129
f 129 166 130
f 129 164 167
f 129 167 168
f 129 168 166
f 130 166 131
f 131 166 169
f 131 169 132
f 132 169 170
f 132 170 171
f 132 171 172
f 132 172 133
f 133 173 163
f 133 163 134
f 133 172 173
f 136 163 174
f 136 174 138
f 138 174 175
f 138 175 143
f 139 141 177
f 139 177 176
f 140 178 141
f 140 142 179
f 140 179 178
f 141 178 177
f 142 151 187
f 142 187 179
f 143 175 144
f 144 148 145
f 144 175 180
f 144 180 173
f 144 173 181
f 144 181 146
f 144 146 148
f 146 182 147
f 146 181 182
f 147 182 183
f 147 183 149
f 149 183 184
f 149 184 185
f 149 185 150
f 150 185 186
f 150 186 151
f 151 186 185
f 151 185 187
f 153 154 155
f 154 188 156
f 154 156 155
f 156 189 190
f 156 190 191
f 156 191 157
f 156 188 189
f 157 191 192
f 157 192 158
f 158 193 160
f 158 160 159
f 158 192 193
f 160 193 161
f 161 193 194
f 161 194 195
f 161 195 196
f 161 196 162
f 163 173 180
f 163 180 174
f 166 168 169
f 167 197 168
f 168 197 198
f 168 198 199
f 168 199 169
f 169 199 170
f 170 199 171
f 171 199 200
f 171 200 201
f 171 201 202
f 171 202 189
f 171 189 172
f 172 181 173
f 172 189 203
f 172 203 181
f 174 180 175
f 176 177 189
f 176 189 188
f 177 178 204
f 177 204 189
f 178 179 205
f 178 205 204
f 179 187 206
f 179 206 205
f 181 203 182
f 182 203 207
f 182 207 185
f 182 185 183
f 183 185 184
f 185 207 208
f 185 208 189
f 185 189 187
f 187 189 206
f 189 209 190
f 189 204 205
f 189 205 206
f 189 208 203
f 189 202 210
f 189 210 209
f 190 209 191
f 191 209 192
f 192 209 211
f 192 211 212
f 192 212 213
f 192 213 193
f 193 213 194
f 194 213 212
f 194 212 195
f 195 212 214
f 195 214 215
f 195 215 216
f 195 216 196
f 197 217 198
f 198 217 199
f 199 217 218
f 199 218 219
f 199 219 200
f 200 219 201
f 201 210 202
f 201 219 220
f 201 220 221
f 201 221 215
f 201 215 222
f 201 222 214
f 201 214 223
f 201 223 211
f 201 211 210
f 203 208 207
f 209 210 211
f 211 223 214
f 211 214 212
f 214 222 215
f 215 221 216
f 218 220 219
