v -6.01652e-05 -0.85721 -0.110227
v -6.01652e-05 -0.85721 -0.0947287
v -6.01652e-05 -0.856739 -0.118771
v 0.0424077 -0.85721 -0.110227
v 0.0579107 -0.85721 -0.0947287
v -6.01652e-05 -0.826471 -0.0947287
v -6.01652e-05 -0.856268 -0.127191
v 0.00848705 -0.856268 -0.127191
v 0.059359 -0.856739 -0.110227
v 0.074862 -0.857131 -0.0947287
v 0.0331095 -0.788508 -0.0947287
v -6.01652e-05 -0.788037 -0.100747
v -6.01652e-05 -0.853951 -0.133562
v 0.00848705 -0.851635 -0.139841
v 0.0254384 -0.855522 -0.127191
v 0.0919922 -0.854972 -0.0947287
v 0.059359 -0.852067 -0.124904
v 0.0773833 -0.853088 -0.111453
v 0.182596 -0.630964 -0.0947287
v -6.01652e-05 -0.782658 -0.101755
v -6.01652e-05 -0.851635 -0.139841
v -6.01652e-05 -0.847042 -0.144113
v 0.00848705 -0.842488 -0.148312
v 0.0254384 -0.85085 -0.138749
v 0.0435878 -0.852617 -0.128656
v 0.0932618 -0.850497 -0.105788
v 0.0932618 -0.85458 -0.0947287
v 0.0387242 -0.849555 -0.137346
v 0.0724481 -0.850379 -0.121702
v 0.182614 -0.634458 -0.0947287
v 0.182614 -0.630925 -0.0947391
v -6.01652e-05 -0.782069 -0.10187
v -6.01652e-05 -0.842488 -0.148312
v -6.01652e-05 -0.838209 -0.151701
v 0.00848705 -0.834008 -0.155027
v 0.0254384 -0.841075 -0.147221
v 0.105206 -0.850143 -0.0947287
v 0.104312 -0.850497 -0.0947287
v 0.102238 -0.848298 -0.102265
v 0.0357201 -0.831574 -0.153125
v 0.0428726 -0.839544 -0.144404
v 0.0500429 -0.847513 -0.135277
v 0.059359 -0.845275 -0.133386
v 0.0720726 -0.833459 -0.137814
v 0.0779197 -0.84029 -0.128261
v 0.0837669 -0.847081 -0.117929
v 0.182614 -0.741555 -0.0947287
v 0.182614 -0.456147 -0.200897
v -6.01652e-05 -0.781245 -0.102369
v -6.01652e-05 -0.834008 -0.155027
v 0.0254384 -0.832595 -0.153935
v 0.00371277 -0.814615 -0.170047
v 0.00902348 -0.821132 -0.164569
v 0.113628 -0.842802 -0.0947287
v 0.0932618 -0.84343 -0.11426
v 0.102345 -0.831417 -0.119187
v 0.120012 -0.8154 -0.120018
v 0.119172 -0.831417 -0.102369
v 0.0254384 -0.822427 -0.161471
v 0.0254384 -0.812612 -0.168633
v 0.0424077 -0.810492 -0.167053
v 0.0417818 -0.823251 -0.157688
v 0.0470389 -0.829454 -0.151451
v 0.059359 -0.836796 -0.140641
v 0.0833735 -0.830004 -0.13483
v 0.059359 -0.82651 -0.149112
v 0.0814423 -0.812063 -0.151077
v 0.0932618 -0.83495 -0.122679
v 0.182578 -0.757337 -0.0947287
v 0.182614 -0.75137 -0.101516
v 0.182614 -0.618676 -0.200897
v -6.01652e-05 -0.641014 -0.200897
v -6.01652e-05 -0.772726 -0.107711
v -6.01652e-05 -0.814615 -0.170047
v 0.00848705 -0.793101 -0.184006
v 0.00902348 -0.806959 -0.17462
v 0.0150137 -0.813594 -0.169319
v 0.122104 -0.834362 -0.0947287
v 0.0932618 -0.826 -0.131151
v 0.10771 -0.820346 -0.125257
v 0.125233 -0.820346 -0.107722
v 0.113056 -0.808922 -0.131327
v 0.119368 -0.797616 -0.136192
v 0.136338 -0.780892 -0.136358
v 0.136177 -0.797616 -0.119384
v 0.131313 -0.808922 -0.113075
v 0.130544 -0.82545 -0.0947287
v 0.0254384 -0.804133 -0.174433
v 0.0424077 -0.802013 -0.173072
v 0.0509728 -0.780107 -0.186563
v 0.0552285 -0.799461 -0.171367
v 0.059359 -0.81803 -0.155796
v 0.0932618 -0.81752 -0.13876
v 0.094281 -0.806056 -0.147823
v 0.0701414 -0.815164 -0.153561
v 0.0760064 -0.806056 -0.157906
v 0.0869497 -0.78152 -0.170566
v 0.0893279 -0.800756 -0.15537
v 0.182113 -0.758083 -0.0947287
v 0.182614 -0.749328 -0.104998
v 0.182614 -0.61899 -0.200762
v 0.182417 -0.61899 -0.200897
v -6.01652e-05 -0.766837 -0.200897
v -6.01652e-05 -0.793101 -0.184006
v 0.00405251 -0.766837 -0.200897
v 0.00848705 -0.784621 -0.189453
v 0.0254384 -0.791374 -0.182915
v 0.101755 -0.813947 -0.135683
v 0.135658 -0.813947 -0.101766
v 0.108532 -0.804133 -0.138905
v 0.100611 -0.796006 -0.151815
v 0.111447 -0.789607 -0.148697
v 0.125877 -0.78733 -0.139425
v 0.148854 -0.772765 -0.128334
v 0.152019 -0.779243 -0.117929
v 0.139413 -0.78733 -0.125902
v 0.11792 -0.779243 -0.152012
v 0.128327 -0.772765 -0.148852
v 0.134746 -0.762126 -0.151919
v 0.151268 -0.744617 -0.151264
v 0.151912 -0.762126 -0.134758
v 0.151805 -0.796006 -0.100633
v 0.138895 -0.804133 -0.108543
v 0.156347 -0.7847 -0.10662
v 0.138215 -0.816931 -0.0947287
v 0.0424077 -0.789568 -0.181543
v 0.0424077 -0.781088 -0.187187
v 0.0424077 -0.771548 -0.192987
v 0.0424077 -0.758436 -0.200804
v 0.0424077 -0.758279 -0.200897
v 0.0577855 -0.752037 -0.200897
v 0.0625955 -0.74925 -0.200897
v 0.067191 -0.746344 -0.200897
v 0.057714 -0.771116 -0.189443
v 0.0710712 -0.765188 -0.187873
v 0.0622916 -0.776495 -0.184214
v 0.0763104 -0.784778 -0.172822
v 0.0665473 -0.796202 -0.169028
v 0.060271 -0.805271 -0.165005
v 0.0763104 -0.793258 -0.166991
v 0.0765608 -0.771116 -0.181751
v 0.0823721 -0.761459 -0.185524
v 0.0932618 -0.757769 -0.183123
v 0.101934 -0.746305 -0.186647
v 0.0928505 -0.771745 -0.174225
v 0.0982328 -0.777516 -0.167656
v 0.173834 -0.770881 -0.0947287
v 0.171689 -0.766209 -0.10478
v 0.182614 -0.741398 -0.113044
v 0.182614 -0.640347 -0.189775
v 0.178341 -0.636382 -0.195243
v 0.173817 -0.632181 -0.200897
v 0.0152998 -0.764403 -0.200897
v 0.00709231 -0.769939 -0.198642
v 0.0254384 -0.782894 -0.188351
v 0.106601 -0.7847 -0.156347
v 0.156257 -0.767937 -0.123449
v 0.161943 -0.772726 -0.11136
v 0.11134 -0.772726 -0.161949
v 0.123445 -0.767937 -0.156253
v 0.116078 -0.760281 -0.167562
v 0.121317 -0.748975 -0.171585
v 0.13995 -0.75082 -0.155941
v 0.144438 -0.738022 -0.161347
v 0.148944 -0.724792 -0.166752
v 0.155435 -0.733311 -0.155443
v 0.166736 -0.724792 -0.148936
v 0.161336 -0.738022 -0.144456
v 0.155935 -0.75082 -0.139965
v 0.171581 -0.748975 -0.121338
v 0.167558 -0.760281 -0.116089
v 0.153664 -0.798479 -0.0947287
v 0.148086 -0.80535 -0.0947287
v 0.147853 -0.805624 -0.0947287
v 0.167648 -0.777516 -0.098242
v 0.0254384 -0.771548 -0.195284
v 0.0274054 -0.761694 -0.200897
v 0.0740574 -0.741712 -0.200897
v 0.0765608 -0.755335 -0.191688
v 0.0932618 -0.749289 -0.188455
v 0.104759 -0.766209 -0.171689
v 0.0763104 -0.740927 -0.20045
v 0.0917061 -0.736059 -0.196906
v 0.0959619 -0.726009 -0.200897
v 0.11404 -0.711405 -0.200897
v 0.115595 -0.709991 -0.200897
v 0.118957 -0.729463 -0.18673
v 0.171957 -0.773707 -0.0947287
v 0.182614 -0.732251 -0.121869
v 0.182614 -0.652439 -0.182614
v 0.169436 -0.695073 -0.169444
v 0.170562 -0.662724 -0.187301
v 0.173978 -0.65287 -0.189942
v 0.16754 -0.641525 -0.200897
v 0.168363 -0.640308 -0.200897
v 0.132618 -0.742733 -0.167251
v 0.137625 -0.731426 -0.171086
v 0.122658 -0.720669 -0.189567
v 0.143615 -0.719767 -0.17408
v 0.153682 -0.713485 -0.1704
v 0.170401 -0.713485 -0.153676
v 0.182614 -0.721847 -0.130756
v 0.171081 -0.731426 -0.137647
v 0.174067 -0.719767 -0.143634
v 0.182614 -0.72063 -0.131785
v 0.167236 -0.742733 -0.132637
v 0.176982 -0.736098 -0.125808
v 0.162802 -0.786388 -0.0947287
v 0.16856 -0.778733 -0.0947287
v 0.0763104 -0.740142 -0.200897
v 0.0844643 -0.734371 -0.200897
v 0.0877365 -0.732054 -0.200897
v 0.123874 -0.700844 -0.200897
v 0.182614 -0.678231 -0.165213
v 0.157545 -0.70371 -0.173394
v 0.150803 -0.692914 -0.185139
v 0.162283 -0.688321 -0.178976
v 0.166432 -0.674031 -0.184121
v 0.182614 -0.685769 -0.159548
v 0.182614 -0.691029 -0.155526
v 0.182614 -0.704888 -0.144684
v 0.173387 -0.70371 -0.157553
v 0.149248 -0.667632 -0.200897
v 0.153468 -0.661821 -0.200897
v 0.156919 -0.656914 -0.200897
v 0.161318 -0.65397 -0.19911
v 0.159869 -0.652674 -0.200897
v 0.135014 -0.711405 -0.186044
v 0.127933 -0.704691 -0.195586
v 0.144742 -0.704966 -0.18251
v 0.132046 -0.690558 -0.200897
v 0.139503 -0.700098 -0.189484
v 0.132136 -0.690637 -0.200783
v 0.138877 -0.681647 -0.200897
v 0.155131 -0.681607 -0.188455
v 0.148443 -0.669791 -0.200294
v 0.159029 -0.653891 -0.200897
f 1 2 6
f 1 6 12
f 1 12 20
f 1 20 32
f 1 32 49
f 1 49 73
f 1 73 72
f 1 72 103
f 1 103 104
f 1 104 74
f 1 74 50
f 1 50 34
f 1 34 33
f 1 33 22
f 1 22 21
f 1 21 13
f 1 13 7
f 1 7 3
f 1 3 4
f 1 4 5
f 1 5 2
f 2 5 10
f 2 10 16
f 2 16 27
f 2 27 38
f 2 38 37
f 2 37 54
f 2 54 78
f 2 78 87
f 2 87 125
f 2 125 174
f 2 174 173
f 2 173 172
f 2 172 208
f 2 208 209
f 2 209 188
f 2 188 147
f 2 147 99
f 2 99 69
f 2 69 47
f 2 47 30
f 2 30 19
f 2 19 11
f 2 11 6
f 3 7 8
f 3 8 4
f 4 8 9
f 4 9 10
f 4 10 5
f 6 11 12
f 7 13 8
f 8 13 14
f 8 14 15
f 8 15 9
f 9 16 10
f 9 15 17
f 9 17 18
f 9 18 16
f 11 19 12
f 12 19 20
f 13 21 14
f 14 21 22
f 14 22 23
f 14 23 24
f 14 24 15
f 15 24 25
f 15 25 17
f 16 18 26
f 16 26 27
f 17 25 24
f 17 24 28
f 17 28 29
f 17 29 18
f 18 29 26
f 19 30 31
f 19 31 32
f 19 32 20
f 22 33 23
f 23 33 34
f 23 34 35
f 23 35 51
f 23 51 36
f 23 36 24
f 24 36 28
f 26 37 38
f 26 38 27
f 26 29 39
f 26 39 37
f 28 36 40
f 28 40 41
f 28 41 42
f 28 42 29
f 29 42 43
f 29 43 44
f 29 44 45
f 29 45 46
f 29 46 39
f 30 47 70
f 30 70 100
f 30 100 149
f 30 149 189
f 30 189 202
f 30 202 205
f 30 205 221
f 30 221 220
f 30 220 219
f 30 219 214
f 30 214 190
f 30 190 150
f 30 150 101
f 30 101 71
f 30 71 48
f 30 48 31
f 31 48 49
f 31 49 32
f 34 50 35
f 35 50 74
f 35 74 52
f 35 52 53
f 35 53 51
f 36 51 40
f 37 39 54
f 39 46 55
f 39 55 56
f 39 56 57
f 39 57 58
f 39 58 54
f 40 51 59
f 40 59 60
f 40 60 61
f 40 61 62
f 40 62 63
f 40 63 41
f 41 63 42
f 42 63 64
f 42 64 43
f 43 64 44
f 44 65 45
f 44 64 66
f 44 66 67
f 44 67 65
f 45 65 46
f 46 65 68
f 46 68 55
f 47 69 70
f 48 71 102
f 48 102 152
f 48 152 195
f 48 195 194
f 48 194 227
f 48 227 237
f 48 237 225
f 48 225 224
f 48 224 223
f 48 223 234
f 48 234 231
f 48 231 213
f 48 213 186
f 48 186 185
f 48 185 184
f 48 184 212
f 48 212 211
f 48 211 210
f 48 210 178
f 48 178 133
f 48 133 132
f 48 132 131
f 48 131 130
f 48 130 177
f 48 177 153
f 48 153 105
f 48 105 103
f 48 103 72
f 48 72 73
f 48 73 49
f 51 53 59
f 52 74 104
f 52 104 75
f 52 75 76
f 52 76 77
f 52 77 53
f 53 77 59
f 54 58 78
f 55 68 56
f 56 68 65
f 56 65 79
f 56 79 80
f 56 80 57
f 57 81 58
f 57 80 82
f 57 82 83
f 57 83 84
f 57 84 85
f 57 85 86
f 57 86 81
f 58 81 87
f 58 87 78
f 59 77 60
f 60 77 88
f 60 88 89
f 60 89 61
f 61 89 90
f 61 90 91
f 61 91 63
f 61 63 62
f 63 66 64
f 63 91 92
f 63 92 66
f 65 93 79
f 65 67 94
f 65 94 93
f 66 92 95
f 66 95 67
f 67 96 97
f 67 97 98
f 67 98 94
f 67 95 96
f 69 99 100
f 69 100 70
f 71 101 102
f 75 104 103
f 75 103 105
f 75 105 106
f 75 106 107
f 75 107 88
f 75 88 76
f 76 88 77
f 79 93 108
f 79 108 80
f 80 108 82
f 81 86 109
f 81 109 87
f 82 108 83
f 83 108 110
f 83 110 111
f 83 111 112
f 83 112 113
f 83 113 84
f 84 114 115
f 84 115 116
f 84 116 85
f 84 113 117
f 84 117 118
f 84 118 119
f 84 119 120
f 84 120 121
f 84 121 114
f 85 122 123
f 85 123 86
f 85 116 124
f 85 124 122
f 86 123 109
f 87 109 125
f 88 107 90
f 88 90 126
f 88 126 89
f 89 126 90
f 90 127 128
f 90 128 129
f 90 129 130
f 90 130 131
f 90 131 132
f 90 132 133
f 90 133 134
f 90 134 135
f 90 135 136
f 90 136 97
f 90 97 137
f 90 137 138
f 90 138 91
f 90 107 127
f 91 138 96
f 91 96 139
f 91 139 92
f 92 139 95
f 93 94 108
f 94 98 111
f 94 111 108
f 95 139 96
f 96 138 140
f 96 140 97
f 97 136 141
f 97 141 142
f 97 142 143
f 97 143 144
f 97 144 145
f 97 145 146
f 97 146 98
f 97 140 137
f 98 146 111
f 99 147 100
f 100 148 149
f 100 147 148
f 101 150 151
f 101 151 152
f 101 152 102
f 105 153 154
f 105 154 106
f 106 155 107
f 106 154 155
f 107 155 127
f 108 111 110
f 109 123 122
f 109 122 125
f 111 146 156
f 111 156 112
f 112 156 117
f 112 117 113
f 114 121 115
f 115 121 157
f 115 157 158
f 115 158 124
f 115 124 116
f 117 159 160
f 117 160 119
f 117 119 118
f 117 156 159
f 119 160 161
f 119 161 162
f 119 162 163
f 119 163 120
f 120 163 164
f 120 164 165
f 120 165 166
f 120 166 167
f 120 167 168
f 120 168 169
f 120 169 121
f 121 169 170
f 121 170 171
f 121 171 157
f 122 172 173
f 122 173 174
f 122 174 125
f 122 124 175
f 122 175 172
f 124 158 148
f 124 148 175
f 127 155 176
f 127 176 128
f 128 176 177
f 128 177 129
f 129 177 130
f 133 178 179
f 133 179 135
f 133 135 134
f 135 179 142
f 135 142 141
f 135 141 136
f 137 140 138
f 142 179 180
f 142 180 144
f 142 144 143
f 144 181 146
f 144 146 145
f 144 180 182
f 144 182 183
f 144 183 184
f 144 184 185
f 144 185 186
f 144 186 187
f 144 187 181
f 146 181 156
f 147 188 175
f 147 175 148
f 148 171 170
f 148 170 189
f 148 189 149
f 148 158 171
f 150 190 191
f 150 191 192
f 150 192 193
f 150 193 151
f 151 193 194
f 151 194 195
f 151 195 152
f 153 177 176
f 153 176 154
f 154 176 155
f 156 181 159
f 157 171 158
f 159 181 161
f 159 161 160
f 161 181 162
f 162 196 163
f 162 181 187
f 162 187 196
f 163 196 164
f 164 197 165
f 164 196 197
f 165 197 187
f 165 187 198
f 165 198 199
f 165 199 200
f 165 200 166
f 166 201 167
f 166 200 191
f 166 191 201
f 167 202 203
f 167 203 168
f 167 201 204
f 167 204 205
f 167 205 202
f 168 203 206
f 168 206 169
f 169 206 170
f 170 206 207
f 170 207 189
f 172 175 208
f 175 188 209
f 175 209 208
f 178 210 182
f 178 182 179
f 179 182 180
f 182 210 211
f 182 211 212
f 182 212 183
f 183 212 184
f 186 213 187
f 187 213 198
f 187 197 196
f 189 207 203
f 189 203 202
f 190 214 191
f 191 215 216
f 191 216 217
f 191 217 218
f 191 218 192
f 191 214 219
f 191 219 220
f 191 220 221
f 191 221 222
f 191 222 201
f 191 200 215
f 192 223 224
f 192 224 225
f 192 225 226
f 192 226 193
f 192 218 223
f 193 226 194
f 194 226 227
f 198 228 200
f 198 200 199
f 198 213 229
f 198 229 228
f 200 228 230
f 200 230 215
f 201 221 205
f 201 205 204
f 201 222 221
f 203 207 206
f 213 231 229
f 215 230 216
f 216 230 232
f 216 232 229
f 216 229 233
f 216 233 234
f 216 234 235
f 216 235 217
f 217 235 218
f 218 235 234
f 218 234 236
f 218 236 223
f 223 236 234
f 225 237 226
f 226 237 227
f 228 229 230
f 229 231 233
f 229 232 230
f 231 234 233
