v -6.01652e-05 -0.121826 0.331616
v 0.123751 -0.121826 0.305838
v -6.01652e-05 -0.121826 0.376567
v -6.01652e-05 0.6189 0.292382
v 0.123751 0.6189 0.263647
v 0.123751 -0.121826 0.354098
v 0.00848398 -0.121826 0.376567
v -6.01652e-05 -0.118758 0.376778
v -6.01652e-05 0.635883 0.292675
v 0.123751 0.622865 0.263717
v 0.123751 -0.117187 0.354437
v 0.120746 -0.121826 0.355349
v 0.0138407 -0.121826 0.375878
v 0.00848398 -0.110155 0.377351
v -6.01652e-05 -0.110155 0.377351
v -6.01652e-05 0.642466 0.293049
v 0.123751 0.642466 0.264301
v 0.123751 0.640072 0.264173
v 0.123751 0.637454 0.264032
v 0.123751 0.635883 0.263951
v 0.123751 -0.115018 0.354589
v 0.118964 -0.120105 0.356214
v 0.118806 -0.121826 0.356155
v 0.0361404 -0.121826 0.37299
v 0.0350133 -0.120704 0.373212
v 0.025439 -0.110155 0.375153
v 0.025439 -0.0932471 0.376252
v 0.00848398 -0.0932471 0.378438
v -6.01652e-05 -0.0932471 0.378438
v -6.01652e-05 0.642466 0.336679
v 0.123751 0.642466 0.311204
v 0.123751 -0.110155 0.354928
v 0.1198 -0.110155 0.356565
v 0.110214 -0.110155 0.360528
v 0.111111 -0.121826 0.359324
v 0.0763039 -0.121826 0.367682
v 0.0763039 -0.110155 0.368466
v 0.0461146 -0.110155 0.372441
v 0.0430241 -0.0927234 0.373972
v 0.025439 -0.0762645 0.377339
v 0.00848398 -0.0762645 0.379525
v -6.01652e-05 -0.0762645 0.379525
v 0.00784166 0.642466 0.336679
v -6.01652e-05 0.628401 0.339262
v 0.117401 0.642466 0.313835
v 0.123751 0.640821 0.311427
v 0.123751 -0.103422 0.355395
v 0.121218 -0.0932471 0.357149
v 0.0932589 -0.121826 0.364888
v 0.0986156 -0.121826 0.363252
v 0.110214 -0.0932471 0.361697
v 0.0816607 -0.121826 0.366806
v 0.0932589 -0.110155 0.365695
v 0.0932589 -0.0762645 0.367951
v 0.0763039 -0.0932471 0.369553
v 0.0543921 -0.0762645 0.373528
v 0.0424061 -0.0762645 0.375106
v 0.025439 -0.0592819 0.378263
v 0.00848398 -0.0592819 0.38046
v -6.01652e-05 -0.0678854 0.379993
v 0.000957861 0.628401 0.339262
v 0.0122652 0.622416 0.338549
v 0.0150284 0.642466 0.335755
v -6.01652e-05 0.475932 0.356225
v 0.109293 0.642466 0.31719
v 0.101815 0.627653 0.322229
v 0.123751 0.632142 0.312561
v 0.123751 -0.0889079 0.356401
v 0.110214 -0.0762645 0.362866
v 0.110214 -0.0592819 0.36386
v 0.0932589 -0.0592819 0.36891
v 0.0763039 -0.0762645 0.37064
v 0.0663781 -0.0592819 0.372873
v 0.0424061 -0.0592819 0.37603
v 0.0678203 -0.050828 0.37306
v 0.025439 -0.0423741 0.378929
v -6.01652e-05 -0.0509028 0.380788
v -6.01652e-05 -0.0592819 0.38046
v 0.00848398 -0.0423741 0.381115
v 0.00848398 0.58501 0.343424
v 0.00848398 0.601992 0.34146
v 0.00735688 0.617628 0.339753
v 0.000969978 0.475932 0.356225
v 0.00848398 0.551119 0.347259
v 0.00848398 0.568027 0.345365
v 0.025439 0.642466 0.334411
v 0.0175977 0.61112 0.339227
v -6.01652e-05 0.289572 0.373165
v 0.102518 0.642466 0.319973
v 0.123751 0.6189 0.314267
v 0.0999245 0.63895 0.321492
v 0.0917803 0.642466 0.324053
v 0.0932589 0.6189 0.326414
v 0.0932589 0.601992 0.328483
v 0.103173 0.6189 0.32279
v 0.111644 0.6189 0.319283
v 0.123751 -0.0762645 0.357266
v 0.122624 -0.0762645 0.357734
v 0.123751 -0.0743194 0.357383
v 0.123751 -0.0594315 0.35826
v 0.110214 -0.0423741 0.364573
v 0.0763039 -0.0592819 0.371564
v 0.0932589 -0.0423741 0.3696
v 0.0754798 -0.04402 0.372289
v 0.025439 -0.00840888 0.380075
v -6.01652e-05 -0.0423741 0.381115
v 0.00848398 -0.00840888 0.382261
v -6.01652e-05 -0.0170124 0.38198
v -6.01652e-05 -0.0339202 0.381407
v 0.0216456 0.601992 0.339765
v 0.025439 0.568027 0.343179
v 0.007369 0.482291 0.354764
v 0.00848398 0.500246 0.352753
v 0.00848398 0.517154 0.350965
v 0.00848398 0.534137 0.349141
v 0.000860905 0.289572 0.373165
v 0.00848398 0.381518 0.364362
v 0.00848398 0.3985 0.362807
v 0.00848398 0.415408 0.361217
v 0.00848398 0.432391 0.359604
v 0.0047997 0.466281 0.356716
v 0.0132832 0.466281 0.355641
v 0.025439 0.551119 0.345073
v 0.0424061 0.642466 0.332178
v 0.0241301 0.617628 0.33759
v 0.059361 0.601992 0.334796
v 0.0763039 0.601992 0.332563
v 0.0763039 0.6189 0.330564
v 0.059361 0.6189 0.332797
v -6.01652e-05 0.211991 0.3779
v 0.0993307 0.642466 0.321258
v 0.123751 0.614411 0.31484
v 0.0812486 0.642466 0.326671
v 0.0858176 0.528451 0.339449
v 0.0932589 0.58501 0.330529
v 0.101185 0.490147 0.33897
v 0.105766 0.601992 0.323854
v 0.11425 0.601992 0.320358
v 0.123751 -0.0423741 0.358973
v 0.110214 -0.0253915 0.365192
v 0.110214 -0.00840888 0.3658
v 0.0932589 -0.00840888 0.370792
v 0.0817334 -0.00840888 0.372663
v 0.0795519 -0.0253915 0.37237
v 0.0424061 -0.00840888 0.377842
v 0.025439 0.00849891 0.380542
v -6.01652e-05 -0.00840888 0.382261
v 0.00848398 0.00849891 0.382728
v -6.01652e-05 -2.9792e-05 0.382495
v 0.0271236 0.586656 0.340817
v 0.0388793 0.582167 0.3398
v 0.0338862 0.593464 0.339145
v 0.0550223 0.564436 0.339695
v 0.0501867 0.575733 0.339052
v 0.025439 0.483264 0.352332
v 0.025439 0.500246 0.350567
v 0.025439 0.517154 0.348778
v 0.025439 0.534137 0.346943
v 0.00396346 0.279772 0.373563
v 0.00729628 0.295857 0.371856
v 0.00848398 0.313662 0.370243
v 0.00848398 0.330645 0.368816
v 0.00848398 0.347627 0.367378
v 0.00848398 0.364535 0.365894
v 0.00848398 0.211991 0.3779
v 0.00848398 0.228974 0.376825
v 0.00848398 0.245956 0.375585
v 0.025439 0.381518 0.362176
v 0.025439 0.3985 0.360621
v 0.025439 0.415408 0.359031
v 0.0261904 0.432765 0.357278
v 0.0210396 0.446231 0.356646
v 0.0100474 0.45087 0.357593
v 0.0167494 0.457528 0.356073
v 0.0424061 0.551119 0.34284
v 0.0765584 0.534137 0.340221
v 0.059361 0.642466 0.329945
v 0.0424061 0.6189 0.33503
v 0.059361 0.58501 0.336772
v 0.0763039 0.58501 0.334539
v 0.0823757 0.539748 0.33883
v 0.0763039 0.642466 0.327712
v -6.01652e-05 0.203462 0.378391
v 0.123751 0.601992 0.316419
v 0.0921924 0.534137 0.336807
v 0.0932589 0.551119 0.334504
v 0.0932589 0.568027 0.33254
v 0.0763039 0.483264 0.345634
v 0.0763039 0.466281 0.347352
v 0.0763039 0.449373 0.349059
v 0.0855873 0.358101 0.356284
v 0.0932589 0.415408 0.348977
v 0.0932589 0.432391 0.347294
v 0.0932589 0.449373 0.345575
v 0.0878658 0.517154 0.340057
v 0.0993792 0.500246 0.338397
v 0.0963372 0.517154 0.337438
v 0.0946162 0.484012 0.341565
v 0.0932589 0.466281 0.343822
v 0.102809 0.47885 0.33959
v 0.110214 0.517154 0.332224
v 0.110214 0.534137 0.33026
v 0.110214 0.551119 0.32825
v 0.108323 0.58501 0.324918
v 0.0909077 0.500246 0.340946
v 0.118285 0.575134 0.32203
v 0.123751 0.581194 0.319014
v 0.123751 0.596381 0.31712
v 0.123751 -0.0253915 0.359592
v 0.123751 -0.0110273 0.360107
v 0.123751 -0.00840888 0.3602
v 0.110214 0.00849891 0.366303
v 0.0932589 0.00849891 0.371271
v 0.0834907 0.00849891 0.372896
v 0.059361 0.00849891 0.376076
v 0.0424061 0.00849891 0.378309
v 0.025439 0.0254815 0.380753
v -6.01652e-05 0.00849891 0.382728
v 0.00848398 0.0254815 0.382939
v -6.01652e-05 0.0169528 0.382834
v 0.0710805 0.546481 0.339578
v 0.0765584 0.551718 0.338269
v 0.0763039 0.568027 0.33648
v 0.0424061 0.483264 0.3501
v 0.025439 0.466281 0.354051
v 0.0424061 0.500246 0.348334
v 0.0424061 0.517154 0.346546
v 0.0124349 0.279772 0.372487
v 0.00944141 0.263238 0.374159
v 0.0157314 0.269223 0.372908
v 0.025439 0.296754 0.369436
v 0.025439 0.313662 0.368057
v 0.025439 0.330645 0.36663
v 0.025439 0.347627 0.365181
v 0.025439 0.364535 0.363696
v 0.00848398 0.195083 0.37887
v 0.025439 0.211991 0.375714
v 0.0365766 0.225457 0.373411
v 0.0269054 0.230245 0.374346
v 0.0224576 0.245956 0.373785
v 0.0190157 0.258001 0.373329
v 0.0764978 0.364086 0.35702
v 0.0424061 0.381518 0.359943
v 0.0671174 0.388924 0.356015
v 0.0553132 0.3985 0.356693
v 0.051847 0.408301 0.356237
v 0.0763039 0.432391 0.350707
v 0.032347 0.438675 0.355898
v 0.0424061 0.449373 0.353525
v 0.059361 0.517154 0.344313
v 0.0763039 0.517154 0.34208
v 0.0763039 0.500246 0.343868
v -6.01652e-05 0.195083 0.37887
v 0.059361 0.483264 0.347867
v 0.059361 0.466281 0.349585
v 0.059361 0.449373 0.351292
v 0.0822909 0.369398 0.355781
v 0.0763039 0.347627 0.358493
v 0.0763039 0.330645 0.359931
v 0.0763039 0.313662 0.361358
v 0.0763039 0.296754 0.362737
v 0.0763039 0.279772 0.364093
v 0.0932589 0.262789 0.362538
v 0.0932589 0.279772 0.361171
v 0.0875749 0.347627 0.35674
v 0.101136 0.320545 0.355957
v 0.0992458 0.330645 0.355501
v 0.0960585 0.347627 0.354729
v 0.0920469 0.364086 0.354168
v 0.0932589 0.3985 0.350626
v 0.123751 0.479149 0.33088
v 0.123751 0.483413 0.330412
v 0.109172 0.484012 0.336386
v 0.110214 0.500246 0.334142
v 0.104457 0.466281 0.340268
v 0.123751 0.466281 0.332283
v 0.123751 0.500246 0.328542
v 0.123751 0.516481 0.326695
v 0.123751 0.533613 0.324719
v 0.123751 0.537279 0.324286
v 0.123751 0.551119 0.32265
v 0.123751 0.568925 0.320522
v 0.111668 0.568925 0.325514
v 0.123751 0.00849891 0.360703
v 0.110214 0.0254815 0.366525
v 0.0932589 0.0254815 0.371494
v 0.0842906 0.0254815 0.373002
v 0.059361 0.0254815 0.376287
v 0.0424061 0.0254815 0.37852
v 0.025439 0.0593719 0.38087
v 0.00848398 0.0593719 0.383056
v -6.01652e-05 0.0508432 0.383032
v -6.01652e-05 0.0254815 0.382939
v 0.0424061 0.466281 0.351818
v 0.059361 0.500246 0.346101
v 0.0249784 0.263238 0.372148
v 0.0763039 0.262789 0.365414
v 0.059361 0.279772 0.366326
v 0.0424061 0.279772 0.368559
v 0.025439 0.279772 0.370792
v 0.0424061 0.296754 0.367203
v 0.0424061 0.313662 0.365824
v 0.0424061 0.330645 0.364397
v 0.059361 0.347627 0.360726
v 0.00848398 0.178101 0.379841
v 0.0397398 0.211991 0.373832
v 0.025439 0.178101 0.377643
v 0.0527802 0.190968 0.373317
v 0.059361 0.211991 0.371248
v 0.0763039 0.211991 0.369015
v 0.0763039 0.228974 0.367928
v 0.042297 0.230245 0.372324
v 0.0335347 0.236754 0.373013
v 0.0309411 0.245956 0.372674
v 0.0763039 0.3985 0.353922
v 0.0763039 0.415408 0.352332
v -6.01652e-05 0.178101 0.379841
v 0.059361 0.330645 0.362164
v 0.059361 0.313662 0.363591
v 0.059361 0.296754 0.36497
v 0.0932589 0.245956 0.36386
v 0.0932589 0.296754 0.359768
v 0.0907623 0.330645 0.357465
v 0.094592 0.31441 0.357979
v 0.102603 0.309173 0.356459
v 0.110214 0.364535 0.348229
v 0.110214 0.381518 0.346592
v 0.110214 0.3985 0.344932
v 0.106651 0.449373 0.34118
v 0.0932589 0.381518 0.352227
v 0.115134 0.449373 0.337672
v 0.123751 0.449373 0.334107
v 0.123751 0.0254815 0.360925
v 0.123751 0.0390227 0.360984
v 0.110214 0.0593719 0.366665
v 0.0932589 0.0424641 0.371552
v 0.0915985 0.0598208 0.371903
v 0.0848359 0.065731 0.373072
v 0.07794 0.0598208 0.37396
v 0.0424061 0.0593719 0.378637
v 0.025439 0.0763545 0.380881
v 0.00848398 0.0763545 0.383067
v -6.01652e-05 0.0678258 0.383067
v -6.01652e-05 0.0593719 0.383056
v 0.0424061 0.245956 0.371166
v 0.059361 0.245956 0.368933
v 0.0763039 0.245956 0.3667
v -6.01652e-05 0.169572 0.38032
v 0.00848398 0.161118 0.380788
v 0.025439 0.161118 0.378602
v 0.0555556 0.178101 0.37368
v 0.0763039 0.178101 0.370944
v 0.0932589 0.211991 0.366268
v 0.0932589 0.161118 0.369261
v 0.0932589 0.178101 0.368267
v 0.0932589 0.228974 0.365146
v 0.103912 0.296754 0.356997
v 0.112395 0.296754 0.35349
v 0.123751 0.309772 0.347656
v 0.109038 0.31441 0.353338
v 0.110214 0.347627 0.349831
v 0.123751 0.364535 0.342629
v 0.123751 0.378974 0.341238
v 0.123751 0.381518 0.340992
v 0.123751 0.3985 0.339332
v 0.119849 0.411593 0.339625
v 0.111765 0.41653 0.342465
v 0.108796 0.432391 0.342068
v 0.117279 0.432391 0.338561
v 0.123751 0.432391 0.335884
v 0.123751 0.0540602 0.361042
v 0.123751 0.0763545 0.361077
v 0.110214 0.0763545 0.366677
v 0.123751 0.0586986 0.361054
v 0.0915985 0.0771027 0.371914
v 0.0848359 0.0719405 0.373072
v 0.0424061 0.0763545 0.378648
v 0.0847632 0.0833122 0.37306
v 0.025439 0.0933371 0.380647
v 0.00848398 0.0933371 0.382834
v -6.01652e-05 0.0763545 0.383067
v -6.01652e-05 0.161118 0.380788
v 0.00848398 0.14421 0.381489
v 0.025439 0.14421 0.379291
v 0.068899 0.155208 0.3732
v 0.0424061 0.161118 0.376369
v 0.0752495 0.160968 0.372043
v 0.110214 0.195083 0.362164
v 0.110214 0.211991 0.361124
v 0.110214 0.161118 0.364222
v 0.0787641 0.14421 0.372277
v 0.0932589 0.14421 0.369985
v 0.110214 0.14421 0.36497
v 0.109038 0.245956 0.359125
v 0.107378 0.262789 0.358435
v 0.105669 0.279772 0.357734
v 0.114153 0.279772 0.354226
v 0.123751 0.296754 0.34879
v 0.123751 0.313812 0.347294
v 0.123751 0.327577 0.346055
v 0.123751 0.343363 0.344617
v 0.123751 0.347852 0.344207
v 0.123751 0.41653 0.337509
v 0.123751 0.0876513 0.360913
v 0.110214 0.0933371 0.36642
v 0.0932589 0.0933371 0.371377
v 0.0838906 0.0933371 0.372943
v 0.0754192 0.0933371 0.374066
v 0.059361 0.0933371 0.376182
v 0.0424061 0.0933371 0.378415
v 0.00848398 0.110245 0.382389
v 0.025439 0.127228 0.379747
v -6.01652e-05 0.0933371 0.382834
v -6.01652e-05 0.14421 0.381489
v 0.123751 0.195083 0.356565
v 0.123751 0.16815 0.358201
v 0.123751 0.211991 0.355524
v 0.119497 0.224859 0.356436
v 0.111765 0.229871 0.359253
v 0.123751 0.161118 0.358622
v 0.0424061 0.127228 0.377514
v 0.110214 0.110245 0.36594
v 0.123751 0.14421 0.35937
v 0.117522 0.245956 0.355618
v 0.118455 0.236156 0.356003
v 0.123751 0.262789 0.351666
v 0.123751 0.279772 0.35024
v 0.123751 0.292266 0.349176
v 0.123751 0.0921401 0.360843
v 0.123751 0.107552 0.360411
v -6.01652e-05 0.110245 0.382389
v 0.123751 0.228151 0.354425
v 0.123751 0.229871 0.354297
v 0.123751 0.231742 0.354156
v 0.123751 0.142564 0.359417
v 0.123751 0.245956 0.353034
f 1 2 6
f 1 6 12
f 1 12 23
f 1 23 35
f 1 35 50
f 1 50 49
f 1 49 52
f 1 52 36
f 1 36 24
f 1 24 13
f 1 13 7
f 1 7 3
f 1 3 8
f 1 8 15
f 1 15 29
f 1 29 42
f 1 42 60
f 1 60 78
f 1 78 77
f 1 77 106
f 1 106 109
f 1 109 108
f 1 108 147
f 1 147 149
f 1 149 218
f 1 218 220
f 1 220 293
f 1 293 292
f 1 292 344
f 1 344 343
f 1 343 381
f 1 381 413
f 1 413 431
f 1 431 414
f 1 414 382
f 1 382 348
f 1 348 317
f 1 317 253
f 1 253 183
f 1 183 130
f 1 130 88
f 1 88 64
f 1 64 44
f 1 44 30
f 1 30 16
f 1 16 9
f 1 9 4
f 1 4 5
f 1 5 2
f 2 5 10
f 2 10 20
f 2 20 19
f 2 19 18
f 2 18 17
f 2 17 31
f 2 31 46
f 2 46 67
f 2 67 90
f 2 90 132
f 2 132 184
f 2 184 208
f 2 208 207
f 2 207 282
f 2 282 281
f 2 281 280
f 2 280 279
f 2 279 278
f 2 278 277
f 2 277 272
f 2 272 271
f 2 271 276
f 2 276 332
f 2 332 370
f 2 370 403
f 2 403 365
f 2 365 364
f 2 364 363
f 2 363 362
f 2 362 402
f 2 402 401
f 2 401 400
f 2 400 399
f 2 399 359
f 2 359 398
f 2 398 428
f 2 428 427
f 2 427 426
f 2 426 436
f 2 436 434
f 2 434 433
f 2 433 432
f 2 432 417
f 2 417 415
f 2 415 416
f 2 416 420
f 2 420 423
f 2 423 435
f 2 435 430
f 2 430 429
f 2 429 404
f 2 404 372
f 2 372 374
f 2 374 371
f 2 371 334
f 2 334 333
f 2 333 284
f 2 284 211
f 2 211 210
f 2 210 209
f 2 209 139
f 2 139 100
f 2 100 99
f 2 99 97
f 2 97 68
f 2 68 47
f 2 47 32
f 2 32 21
f 2 21 11
f 2 11 6
f 3 7 8
f 4 9 5
f 5 9 10
f 6 11 12
f 7 13 14
f 7 14 8
f 8 14 15
f 9 16 17
f 9 17 18
f 9 18 19
f 9 19 20
f 9 20 10
f 11 21 22
f 11 22 23
f 11 23 12
f 13 24 25
f 13 25 14
f 14 25 26
f 14 26 27
f 14 27 28
f 14 28 29
f 14 29 15
f 16 30 43
f 16 43 63
f 16 63 86
f 16 86 124
f 16 124 177
f 16 177 182
f 16 182 133
f 16 133 92
f 16 92 131
f 16 131 89
f 16 89 65
f 16 65 45
f 16 45 31
f 16 31 17
f 21 32 33
f 21 33 22
f 22 33 34
f 22 34 35
f 22 35 23
f 24 36 37
f 24 37 25
f 25 37 38
f 25 38 27
f 25 27 26
f 27 39 40
f 27 40 41
f 27 41 28
f 27 38 39
f 28 41 42
f 28 42 29
f 30 44 61
f 30 61 43
f 31 45 46
f 32 47 33
f 33 47 48
f 33 48 34
f 34 49 50
f 34 50 35
f 34 48 51
f 34 51 49
f 36 52 53
f 36 53 37
f 37 53 54
f 37 54 55
f 37 55 39
f 37 39 38
f 39 55 56
f 39 56 57
f 39 57 40
f 40 57 74
f 40 74 58
f 40 58 59
f 40 59 41
f 41 59 60
f 41 60 42
f 43 61 62
f 43 62 63
f 44 64 83
f 44 83 61
f 45 65 46
f 46 66 67
f 46 65 66
f 47 68 48
f 48 68 69
f 48 69 51
f 49 51 53
f 49 53 52
f 51 69 53
f 53 69 54
f 54 69 70
f 54 70 71
f 54 71 72
f 54 72 55
f 55 72 56
f 56 72 73
f 56 73 74
f 56 74 57
f 58 74 75
f 58 75 76
f 58 76 59
f 59 77 78
f 59 78 60
f 59 76 79
f 59 79 77
f 61 80 81
f 61 81 82
f 61 82 62
f 61 83 84
f 61 84 85
f 61 85 80
f 62 86 63
f 62 82 87
f 62 87 86
f 64 88 116
f 64 116 83
f 65 89 66
f 66 90 67
f 66 89 91
f 66 91 92
f 66 92 93
f 66 93 94
f 66 94 95
f 66 95 96
f 66 96 90
f 68 97 98
f 68 98 69
f 69 98 99
f 69 99 100
f 69 100 70
f 70 100 101
f 70 101 71
f 71 102 72
f 71 101 103
f 71 103 102
f 72 102 73
f 73 102 75
f 73 75 74
f 75 102 104
f 75 104 76
f 76 105 107
f 76 107 79
f 76 104 105
f 77 79 106
f 79 107 108
f 79 108 109
f 79 109 106
f 80 110 81
f 80 85 111
f 80 111 110
f 81 110 87
f 81 87 82
f 83 112 113
f 83 113 114
f 83 114 115
f 83 115 84
f 83 116 117
f 83 117 118
f 83 118 119
f 83 119 120
f 83 120 121
f 83 121 122
f 83 122 112
f 84 115 123
f 84 123 111
f 84 111 85
f 86 87 125
f 86 125 124
f 87 126 127
f 87 127 128
f 87 128 129
f 87 129 125
f 87 110 126
f 88 130 165
f 88 165 116
f 89 131 91
f 90 96 132
f 91 131 92
f 92 133 134
f 92 134 135
f 92 135 94
f 92 94 93
f 94 135 95
f 95 135 136
f 95 136 137
f 95 137 138
f 95 138 96
f 96 138 132
f 97 99 98
f 100 139 101
f 101 139 209
f 101 209 140
f 101 140 103
f 102 103 104
f 103 140 141
f 103 141 142
f 103 142 143
f 103 143 144
f 103 144 104
f 104 144 143
f 104 143 145
f 104 145 105
f 105 145 216
f 105 216 146
f 105 146 148
f 105 148 107
f 107 147 108
f 107 148 149
f 107 149 147
f 110 111 150
f 110 150 151
f 110 151 152
f 110 152 126
f 111 123 153
f 111 153 154
f 111 154 151
f 111 151 150
f 112 122 155
f 112 155 156
f 112 156 113
f 113 156 157
f 113 157 114
f 114 157 115
f 115 158 123
f 115 157 158
f 116 159 160
f 116 160 161
f 116 161 162
f 116 162 163
f 116 163 164
f 116 164 117
f 116 165 166
f 116 166 167
f 116 167 159
f 117 164 168
f 117 168 169
f 117 169 118
f 118 169 170
f 118 170 119
f 119 170 120
f 120 171 172
f 120 172 173
f 120 173 121
f 120 170 171
f 121 173 122
f 122 173 174
f 122 174 155
f 123 175 153
f 123 158 176
f 123 176 175
f 124 125 178
f 124 178 129
f 124 129 177
f 125 129 178
f 126 152 179
f 126 179 180
f 126 180 127
f 127 180 181
f 127 181 128
f 128 181 133
f 128 133 182
f 128 182 177
f 128 177 129
f 130 183 165
f 132 138 184
f 133 181 134
f 134 185 186
f 134 186 187
f 134 187 135
f 134 181 188
f 134 188 189
f 134 189 190
f 134 190 191
f 134 191 192
f 134 192 193
f 134 193 194
f 134 194 195
f 134 195 136
f 134 136 196
f 134 196 197
f 134 197 185
f 135 187 136
f 136 198 199
f 136 199 194
f 136 194 193
f 136 193 200
f 136 200 201
f 136 201 202
f 136 202 203
f 136 203 204
f 136 204 137
f 136 187 196
f 136 195 205
f 136 205 198
f 137 204 138
f 138 204 206
f 138 206 207
f 138 207 208
f 138 208 184
f 140 209 210
f 140 210 141
f 141 210 211
f 141 211 284
f 141 284 212
f 141 212 142
f 142 212 213
f 142 213 214
f 142 214 143
f 143 214 215
f 143 215 216
f 143 216 145
f 146 216 289
f 146 289 217
f 146 217 219
f 146 219 148
f 148 218 149
f 148 219 220
f 148 220 218
f 151 154 180
f 151 180 179
f 151 179 152
f 153 175 221
f 153 221 222
f 153 222 223
f 153 223 154
f 154 223 180
f 155 224 226
f 155 226 156
f 155 174 225
f 155 225 294
f 155 294 224
f 156 226 227
f 156 227 157
f 157 227 176
f 157 176 158
f 159 228 160
f 159 167 229
f 159 229 230
f 159 230 228
f 160 228 231
f 160 231 232
f 160 232 161
f 161 232 233
f 161 233 162
f 162 233 163
f 163 233 234
f 163 234 235
f 163 235 164
f 164 235 168
f 165 183 236
f 165 236 237
f 165 237 166
f 166 237 238
f 166 238 239
f 166 239 240
f 166 240 167
f 167 240 241
f 167 241 230
f 167 230 229
f 168 235 242
f 168 242 243
f 168 243 244
f 168 244 245
f 168 245 169
f 169 245 246
f 169 246 170
f 170 246 171
f 171 247 248
f 171 248 172
f 171 246 247
f 172 248 249
f 172 249 174
f 172 174 173
f 174 249 225
f 175 176 221
f 176 181 221
f 176 227 250
f 176 250 251
f 176 251 181
f 180 223 181
f 181 223 222
f 181 222 221
f 181 251 252
f 181 252 188
f 183 253 236
f 185 197 186
f 186 197 187
f 187 197 196
f 188 252 295
f 188 295 254
f 188 254 255
f 188 255 189
f 189 255 256
f 189 256 190
f 190 256 248
f 190 248 247
f 190 247 257
f 190 257 191
f 191 257 258
f 191 258 259
f 191 259 260
f 191 260 261
f 191 261 262
f 191 262 263
f 191 263 264
f 191 264 265
f 191 265 266
f 191 266 267
f 191 267 268
f 191 268 269
f 191 269 270
f 191 270 192
f 192 270 266
f 192 266 193
f 193 266 200
f 194 199 195
f 195 199 205
f 198 205 199
f 200 271 272
f 200 272 273
f 200 273 274
f 200 274 201
f 200 266 275
f 200 275 276
f 200 276 271
f 201 274 277
f 201 277 278
f 201 278 279
f 201 279 202
f 202 279 280
f 202 280 281
f 202 281 203
f 203 281 282
f 203 282 283
f 203 283 204
f 204 283 206
f 206 283 282
f 206 282 207
f 212 284 333
f 212 333 285
f 212 285 286
f 212 286 213
f 213 286 287
f 213 287 214
f 214 287 215
f 215 287 288
f 215 288 289
f 215 289 216
f 217 289 340
f 217 340 290
f 217 290 291
f 217 291 219
f 219 291 292
f 219 292 293
f 219 293 220
f 224 254 295
f 224 295 226
f 224 294 255
f 224 255 254
f 225 249 294
f 226 295 250
f 226 250 227
f 228 230 231
f 230 241 296
f 230 296 297
f 230 297 262
f 230 262 298
f 230 298 299
f 230 299 300
f 230 300 231
f 231 300 299
f 231 299 301
f 231 301 302
f 231 302 232
f 232 302 303
f 232 303 233
f 233 303 304
f 233 304 234
f 234 304 235
f 235 304 242
f 236 253 317
f 236 317 305
f 236 305 237
f 237 306 238
f 237 305 307
f 237 307 308
f 237 308 306
f 238 306 309
f 238 309 310
f 238 310 311
f 238 311 312
f 238 312 239
f 239 312 313
f 239 313 240
f 240 314 241
f 240 313 314
f 241 314 296
f 242 258 257
f 242 257 243
f 242 304 258
f 243 257 244
f 244 315 245
f 244 257 315
f 245 315 246
f 246 315 316
f 246 316 247
f 247 316 257
f 248 256 249
f 249 256 255
f 249 255 294
f 250 295 252
f 250 252 251
f 257 316 315
f 258 304 318
f 258 318 259
f 259 318 319
f 259 319 260
f 260 319 320
f 260 320 261
f 261 320 298
f 261 298 262
f 262 297 321
f 262 321 263
f 263 321 266
f 263 266 264
f 264 266 322
f 264 322 265
f 265 322 323
f 265 323 324
f 265 324 266
f 266 324 322
f 266 321 325
f 266 325 326
f 266 326 327
f 266 327 328
f 266 328 329
f 266 329 275
f 266 270 267
f 267 270 268
f 268 270 330
f 268 330 269
f 269 330 270
f 272 277 273
f 273 277 274
f 275 329 331
f 275 331 332
f 275 332 276
f 285 333 334
f 285 334 335
f 285 335 286
f 286 336 337
f 286 337 338
f 286 338 287
f 286 335 336
f 287 338 339
f 287 339 288
f 288 339 289
f 289 339 340
f 290 340 338
f 290 338 341
f 290 341 342
f 290 342 291
f 291 342 343
f 291 343 344
f 291 344 292
f 296 314 345
f 296 345 346
f 296 346 347
f 296 347 297
f 297 347 321
f 298 320 301
f 298 301 299
f 301 320 319
f 301 319 302
f 302 319 318
f 302 318 303
f 303 318 304
f 305 317 348
f 305 348 349
f 305 349 350
f 305 350 307
f 306 308 309
f 307 350 351
f 307 351 308
f 308 351 352
f 308 352 310
f 308 310 309
f 310 353 311
f 310 352 354
f 310 354 355
f 310 355 353
f 311 356 347
f 311 347 313
f 311 313 312
f 311 353 356
f 313 346 345
f 313 345 314
f 313 347 346
f 321 347 356
f 321 356 325
f 322 324 323
f 325 357 358
f 325 358 359
f 325 359 360
f 325 360 361
f 325 361 326
f 325 356 357
f 326 361 362
f 326 362 363
f 326 363 327
f 327 364 365
f 327 365 328
f 327 363 364
f 328 365 366
f 328 366 367
f 328 367 368
f 328 368 329
f 329 368 369
f 329 369 331
f 331 369 370
f 331 370 332
f 334 371 335
f 335 372 373
f 335 373 336
f 335 371 374
f 335 374 372
f 336 373 375
f 336 375 337
f 337 375 338
f 338 376 341
f 338 340 339
f 338 375 376
f 341 376 377
f 341 377 378
f 341 378 379
f 341 379 380
f 341 380 342
f 342 380 413
f 342 413 381
f 342 381 343
f 348 382 349
f 349 382 414
f 349 414 383
f 349 383 350
f 350 383 384
f 350 384 385
f 350 385 386
f 350 386 351
f 351 386 352
f 352 386 387
f 352 387 354
f 353 388 389
f 353 389 356
f 353 355 390
f 353 390 388
f 354 387 391
f 354 391 392
f 354 392 393
f 354 393 390
f 354 390 355
f 356 394 395
f 356 395 396
f 356 396 357
f 356 389 394
f 357 396 397
f 357 397 358
f 358 397 398
f 358 398 359
f 359 399 360
f 360 399 400
f 360 400 361
f 361 401 402
f 361 402 362
f 361 400 401
f 365 403 366
f 366 403 367
f 367 403 369
f 367 369 368
f 369 403 370
f 372 404 373
f 373 404 405
f 373 405 406
f 373 406 375
f 375 378 376
f 375 406 378
f 376 378 377
f 378 406 407
f 378 407 408
f 378 408 409
f 378 409 410
f 378 410 379
f 379 411 380
f 379 410 421
f 379 421 412
f 379 412 383
f 379 383 411
f 380 411 431
f 380 431 413
f 383 412 384
f 383 414 431
f 383 431 411
f 384 412 391
f 384 391 385
f 385 391 387
f 385 387 386
f 388 415 417
f 388 417 389
f 388 390 416
f 388 416 415
f 389 417 418
f 389 418 419
f 389 419 394
f 390 420 416
f 390 393 423
f 390 423 420
f 391 412 421
f 391 421 410
f 391 410 409
f 391 409 408
f 391 408 407
f 391 407 392
f 392 407 406
f 392 406 405
f 392 405 422
f 392 422 393
f 393 422 423
f 394 424 426
f 394 426 395
f 394 419 425
f 394 425 424
f 395 426 397
f 395 397 396
f 397 427 428
f 397 428 398
f 397 426 427
f 404 429 405
f 405 429 430
f 405 430 422
f 417 432 418
f 418 432 433
f 418 433 434
f 418 434 419
f 419 434 425
f 422 430 435
f 422 435 423
f 424 425 434
f 424 434 436
f 424 436 426
