v 0.145547 0.714613 -0.182312
v 0.159927 0.618971 -0.243673
v 0.16034 0.616374 -0.243673
v 0.22712 0.616374 -0.182312
v 0.145547 0.848999 -0.182312
v 0.145547 0.724019 -0.243673
v 0.236986 0.616374 -0.243673
v 0.286098 0.616374 -0.182312
v 0.147295 0.849701 -0.182312
v 0.145547 0.849467 -0.182955
v 0.145547 0.842636 -0.243673
v 0.236835 0.617333 -0.243673
v 0.240619 0.616374 -0.240621
v 0.285589 0.616374 -0.183039
v 0.285768 0.618807 -0.182312
v 0.160753 0.852626 -0.182312
v 0.145547 0.853351 -0.195017
v 0.145547 0.847923 -0.237468
v 0.150584 0.84673 -0.235672
v 0.146813 0.841934 -0.243673
v 0.23656 0.618971 -0.243673
v 0.239133 0.635933 -0.239138
v 0.240427 0.618971 -0.240429
v 0.241913 0.616374 -0.239144
v 0.278406 0.616374 -0.192404
v 0.27692 0.618971 -0.19384
v 0.285396 0.618971 -0.182787
v 0.285025 0.623837 -0.182312
v 0.178063 0.854965 -0.182312
v 0.16111 0.855387 -0.195017
v 0.145547 0.855082 -0.212089
v 0.145547 0.851503 -0.22922
v 0.157973 0.849795 -0.224367
v 0.187985 0.848578 -0.20461
v 0.16927 0.847713 -0.220174
v 0.178063 0.845022 -0.21684
v 0.16111 0.834845 -0.241631
v 0.154767 0.836974 -0.243673
v 0.233546 0.635652 -0.243673
v 0.238115 0.649035 -0.238123
v 0.249096 0.616374 -0.230566
v 0.271512 0.616374 -0.20139
v 0.263008 0.618971 -0.211974
v 0.283208 0.635933 -0.182312
v 0.194796 0.853117 -0.182312
v 0.178063 0.854147 -0.195017
v 0.178063 0.850052 -0.208364
v 0.204621 0.848578 -0.187977
v 0.199282 0.845396 -0.199288
v 0.194205 0.83915 -0.21135
v 0.194191 0.850193 -0.194188
v 0.17688 0.835851 -0.228415
v 0.189113 0.832926 -0.222427
v 0.170454 0.831616 -0.238068
v 0.161317 0.832201 -0.243673
v 0.23034 0.653059 -0.243673
v 0.237193 0.660335 -0.237197
v 0.248903 0.618971 -0.23032
v 0.250087 0.616374 -0.22928
v 0.265168 0.616374 -0.209656
v 0.255426 0.618971 -0.221844
v 0.253788 0.640659 -0.219705
v 0.269131 0.635933 -0.200651
v 0.255618 0.616374 -0.22209
v 0.259361 0.652872 -0.21001
v 0.274347 0.652872 -0.190482
v 0.282878 0.638086 -0.182312
v 0.206754 0.849421 -0.182312
v 0.211612 0.846543 -0.182312
v 0.21135 0.83915 -0.1942
v 0.206796 0.834096 -0.206784
v 0.200424 0.827569 -0.218083
v 0.181751 0.825721 -0.233731
v 0.172422 0.82179 -0.243673
v 0.230175 0.653925 -0.243673
v 0.243413 0.653971 -0.2305
v 0.227739 0.669834 -0.243054
v 0.225992 0.686796 -0.241709
v 0.22423 0.703758 -0.240339
v 0.222428 0.72072 -0.238945
v 0.221162 0.732254 -0.237966
v 0.236216 0.669834 -0.236224
v 0.237963 0.732254 -0.221165
v 0.23894 0.72072 -0.222432
v 0.240344 0.703758 -0.224229
v 0.241706 0.686796 -0.225995
v 0.243055 0.669834 -0.227743
v 0.248614 0.635372 -0.227454
v 0.252852 0.652872 -0.218486
v 0.25804 0.669834 -0.208286
v 0.279796 0.658112 -0.182312
v 0.280608 0.652872 -0.182312
v 0.273026 0.669834 -0.188758
v 0.215396 0.843478 -0.182312
v 0.225758 0.834564 -0.182312
v 0.222428 0.832926 -0.189118
v 0.218079 0.827569 -0.200423
v 0.21186 0.82193 -0.211848
v 0.205612 0.816269 -0.222072
v 0.186967 0.81442 -0.23772
v 0.177169 0.81573 -0.243673
v 0.226941 0.669834 -0.243673
v 0.251531 0.669834 -0.216756
v 0.226638 0.671308 -0.243673
v 0.223446 0.686796 -0.243673
v 0.21991 0.703758 -0.243673
v 0.216401 0.720182 -0.243673
v 0.212933 0.735529 -0.243673
v 0.212424 0.737775 -0.243673
v 0.213304 0.737799 -0.242994
v 0.219813 0.743531 -0.236927
v 0.232707 0.703758 -0.23271
v 0.234468 0.686796 -0.234476
v 0.236918 0.743531 -0.219819
v 0.252453 0.737635 -0.201006
v 0.266792 0.737635 -0.182312
v 0.253609 0.724627 -0.202514
v 0.254545 0.713327 -0.203733
v 0.248821 0.703758 -0.213224
v 0.250183 0.686796 -0.215008
v 0.256692 0.686796 -0.206532
v 0.271113 0.693955 -0.186265
v 0.278021 0.669483 -0.182312
v 0.276947 0.676291 -0.182312
v 0.232872 0.826259 -0.182312
v 0.23345 0.82551 -0.182312
v 0.237716 0.81442 -0.186956
v 0.22207 0.816269 -0.205607
v 0.217749 0.805483 -0.217747
v 0.220377 0.796897 -0.220384
v 0.209273 0.805483 -0.224907
v 0.198278 0.805483 -0.233389
v 0.184765 0.805694 -0.243673
v 0.212011 0.739273 -0.243673
v 0.207745 0.754597 -0.243673
v 0.218176 0.754597 -0.23566
v 0.225056 0.771559 -0.225064
v 0.227175 0.754597 -0.227184
v 0.229047 0.737892 -0.229046
v 0.230904 0.72072 -0.230908
v 0.235652 0.754597 -0.218174
v 0.24216 0.754597 -0.209704
v 0.257146 0.754597 -0.190175
v 0.26298 0.755439 -0.182312
v 0.266448 0.739273 -0.182312
v 0.268072 0.730336 -0.182312
v 0.269751 0.72072 -0.182312
v 0.270218 0.717912 -0.182312
v 0.259334 0.719667 -0.196122
v 0.272544 0.703758 -0.182312
v 0.255329 0.703758 -0.204754
v 0.274732 0.690258 -0.182312
v 0.239133 0.817462 -0.182312
v 0.243358 0.810186 -0.182312
v 0.233381 0.805483 -0.198273
v 0.224905 0.805483 -0.209271
v 0.245504 0.805787 -0.182312
v 0.236064 0.793855 -0.201763
v 0.229432 0.789714 -0.212629
v 0.222785 0.785573 -0.222793
v 0.21263 0.789714 -0.229437
v 0.201759 0.793855 -0.236074
v 0.193861 0.790112 -0.243673
v 0.206562 0.758294 -0.243673
v 0.215437 0.771559 -0.233539
v 0.233533 0.771559 -0.215428
v 0.255536 0.767769 -0.188073
v 0.261508 0.761429 -0.182312
v 0.253252 0.788521 -0.182312
v 0.238445 0.782555 -0.204862
v 0.204869 0.782555 -0.238447
v 0.195677 0.788334 -0.243072
v 0.194893 0.788334 -0.243673
v 0.202117 0.77198 -0.243673
v 0.206961 0.771559 -0.240057
v 0.240055 0.771559 -0.206953
v 0.254105 0.779069 -0.186205
v 0.259114 0.771091 -0.182312
v 0.25804 0.775326 -0.182312
v 0.195539 0.786883 -0.243673
f 1 2 3
f 1 3 4
f 1 4 8
f 1 8 15
f 1 15 28
f 1 28 44
f 1 44 67
f 1 67 92
f 1 92 91
f 1 91 123
f 1 123 124
f 1 124 152
f 1 152 150
f 1 150 148
f 1 148 147
f 1 147 146
f 1 146 116
f 1 116 145
f 1 145 144
f 1 144 168
f 1 168 178
f 1 178 179
f 1 179 169
f 1 169 157
f 1 157 154
f 1 154 153
f 1 153 126
f 1 126 125
f 1 125 95
f 1 95 94
f 1 94 69
f 1 69 68
f 1 68 45
f 1 45 29
f 1 29 16
f 1 16 9
f 1 9 5
f 1 5 10
f 1 10 17
f 1 17 31
f 1 31 32
f 1 32 18
f 1 18 11
f 1 11 6
f 1 6 2
f 2 6 11
f 2 11 20
f 2 20 38
f 2 38 55
f 2 55 74
f 2 74 101
f 2 101 133
f 2 133 163
f 2 163 173
f 2 173 180
f 2 180 174
f 2 174 164
f 2 164 135
f 2 135 134
f 2 134 109
f 2 109 108
f 2 108 107
f 2 107 106
f 2 106 105
f 2 105 104
f 2 104 102
f 2 102 75
f 2 75 56
f 2 56 39
f 2 39 21
f 2 21 12
f 2 12 7
f 2 7 3
f 3 7 13
f 3 13 24
f 3 24 41
f 3 41 59
f 3 59 64
f 3 64 60
f 3 60 42
f 3 42 25
f 3 25 14
f 3 14 8
f 3 8 4
f 5 9 10
f 7 12 13
f 8 14 15
f 9 16 17
f 9 17 10
f 11 18 19
f 11 19 20
f 12 21 22
f 12 22 23
f 12 23 13
f 13 23 24
f 14 25 26
f 14 26 27
f 14 27 15
f 15 27 28
f 16 29 17
f 17 29 30
f 17 30 31
f 18 32 33
f 18 33 34
f 18 34 35
f 18 35 19
f 19 36 37
f 19 37 20
f 19 35 36
f 20 37 38
f 21 39 40
f 21 40 22
f 22 40 41
f 22 41 24
f 22 24 23
f 25 42 43
f 25 43 26
f 26 43 44
f 26 44 27
f 27 44 28
f 29 45 46
f 29 46 30
f 30 46 31
f 31 46 32
f 32 46 47
f 32 47 33
f 33 47 34
f 34 48 49
f 34 49 50
f 34 50 36
f 34 36 35
f 34 47 51
f 34 51 48
f 36 50 37
f 37 50 52
f 37 52 53
f 37 53 54
f 37 54 55
f 37 55 38
f 39 56 40
f 40 56 57
f 40 57 41
f 41 57 58
f 41 58 59
f 42 60 43
f 43 61 62
f 43 62 63
f 43 63 44
f 43 60 64
f 43 64 61
f 44 63 62
f 44 62 65
f 44 65 66
f 44 66 67
f 45 68 51
f 45 51 46
f 46 51 47
f 48 51 68
f 48 68 69
f 48 69 70
f 48 70 49
f 49 70 71
f 49 71 50
f 50 71 53
f 50 53 52
f 53 71 72
f 53 72 54
f 54 72 73
f 54 73 74
f 54 74 55
f 56 75 57
f 57 76 58
f 57 75 77
f 57 77 78
f 57 78 79
f 57 79 80
f 57 80 81
f 57 81 82
f 57 82 83
f 57 83 84
f 57 84 85
f 57 85 86
f 57 86 87
f 57 87 76
f 58 88 62
f 58 62 61
f 58 61 59
f 58 76 88
f 59 61 64
f 62 88 76
f 62 76 89
f 62 89 65
f 65 89 90
f 65 90 93
f 65 93 66
f 66 91 92
f 66 92 67
f 66 93 91
f 69 94 70
f 70 94 95
f 70 95 96
f 70 96 71
f 71 96 97
f 71 97 98
f 71 98 72
f 72 98 99
f 72 99 100
f 72 100 73
f 73 100 74
f 74 100 101
f 75 102 77
f 76 87 103
f 76 103 89
f 77 102 78
f 78 102 104
f 78 104 105
f 78 105 79
f 79 105 106
f 79 106 80
f 80 106 107
f 80 107 81
f 81 107 108
f 81 108 109
f 81 109 110
f 81 110 111
f 81 111 112
f 81 112 113
f 81 113 82
f 82 113 83
f 83 114 115
f 83 115 116
f 83 116 117
f 83 117 84
f 83 113 112
f 83 112 114
f 84 117 118
f 84 118 119
f 84 119 85
f 85 119 120
f 85 120 86
f 86 120 103
f 86 103 87
f 89 103 90
f 90 103 120
f 90 120 121
f 90 121 122
f 90 122 93
f 91 93 123
f 93 122 124
f 93 124 123
f 95 125 96
f 96 125 97
f 97 125 126
f 97 126 127
f 97 127 128
f 97 128 98
f 98 128 129
f 98 129 99
f 99 129 130
f 99 130 131
f 99 131 100
f 100 131 132
f 100 132 133
f 100 133 101
f 109 134 111
f 109 111 110
f 111 135 136
f 111 136 137
f 111 137 138
f 111 138 139
f 111 139 140
f 111 140 112
f 111 134 135
f 112 140 114
f 114 138 137
f 114 137 141
f 114 141 142
f 114 142 143
f 114 143 144
f 114 144 145
f 114 145 116
f 114 116 115
f 114 140 139
f 114 139 138
f 116 146 117
f 117 146 147
f 117 147 148
f 117 148 149
f 117 149 118
f 118 149 148
f 118 148 150
f 118 150 151
f 118 151 119
f 119 151 120
f 120 151 122
f 120 122 121
f 122 152 124
f 122 151 150
f 122 150 152
f 126 153 127
f 127 153 154
f 127 154 155
f 127 155 156
f 127 156 128
f 128 156 130
f 128 130 129
f 130 132 131
f 130 156 155
f 130 155 157
f 130 157 158
f 130 158 159
f 130 159 160
f 130 160 161
f 130 161 162
f 130 162 133
f 130 133 132
f 133 162 163
f 135 164 136
f 136 164 165
f 136 165 137
f 137 166 141
f 137 165 160
f 137 160 166
f 141 167 142
f 141 166 167
f 142 167 144
f 142 144 143
f 144 167 168
f 154 157 155
f 157 169 158
f 158 169 170
f 158 170 159
f 159 170 160
f 160 170 166
f 160 165 171
f 160 171 161
f 161 171 162
f 162 171 172
f 162 172 173
f 162 173 163
f 164 174 175
f 164 175 165
f 165 175 174
f 165 174 171
f 166 176 167
f 166 170 177
f 166 177 176
f 167 178 168
f 167 176 177
f 167 177 179
f 167 179 178
f 169 179 177
f 169 177 170
f 171 174 180
f 171 180 173
f 171 173 172
