v -0.344217 0.0763126 0.164458
v -0.337096 0.0763126 0.181621
v -0.340494 0.0932864 0.17282
v -0.344141 0.0811797 0.164458
v -0.344198 0.0593996 0.164458
v -0.340609 0.0593996 0.173112
v -0.329534 0.0763126 0.195022
v -0.329246 0.0932864 0.195022
v -0.336962 0.0932864 0.18131
v -0.337077 0.0593996 0.181602
v -0.329514 0.0593996 0.195022
v -0.343949 0.0932864 0.164458
v -0.339764 0.144147 0.171086
v -0.342509 0.144147 0.164458
v -0.342989 0.127234 0.164458
v -0.344083 0.0302582 0.164458
v -0.340551 0.025452 0.172966
v -0.323103 0.0763126 0.204699
v -0.32295 0.0932864 0.204498
v -0.323103 0.0593996 0.204681
v -0.322681 0.11026 0.204133
v -0.328727 0.11026 0.195022
v -0.32819 0.127234 0.195022
v -0.336232 0.144147 0.179557
v -0.337019 0.025452 0.181438
v -0.323065 0.0424258 0.204644
v -0.329361 0.025452 0.195022
v -0.323027 0.025452 0.204589
v -0.339476 0.158201 0.170392
v -0.342298 0.149257 0.164458
v -0.344064 0.025452 0.164458
v -0.344026 0.0224709 0.164458
v -0.341703 0.021315 0.170045
v -0.337864 0.021315 0.179284
v -0.286633 0.0763126 0.252243
v -0.307978 0.0932864 0.224034
v -0.316596 0.0593996 0.213171
v -0.326654 0.143234 0.19661
v -0.316174 0.11026 0.212623
v -0.322048 0.148284 0.203311
v -0.327365 0.161121 0.194365
v -0.326865 0.178095 0.19358
v -0.32581 0.211982 0.192009
v -0.335062 0.178095 0.17806
v -0.336501 0.162764 0.176855
v -0.336981 0.021315 0.181383
v -0.329303 0.021315 0.195022
v -0.308035 0.025452 0.224125
v -0.322988 0.021315 0.204553
v -0.295117 0.021315 0.240886
v -0.341722 0.16179 0.164458
v -0.338881 0.178095 0.16895
v -0.344006 0.021315 0.164458
v -0.278437 0.0763126 0.262832
v -0.271489 0.0902445 0.271505
v -0.28648 0.0932864 0.252042
v -0.293121 0.0593996 0.243753
v -0.286614 0.0593996 0.252225
v -0.278418 0.0593996 0.262832
v -0.285923 0.127234 0.251312
v -0.301567 0.0424258 0.232652
v -0.307133 0.144147 0.222939
v -0.285194 0.161121 0.25038
v -0.306692 0.161121 0.222373
v -0.321683 0.161121 0.202836
v -0.285635 0.144147 0.250946
v -0.319879 0.211982 0.200481
v -0.325234 0.228955 0.191133
v -0.321088 0.178095 0.202051
v -0.334025 0.195069 0.17806
v -0.293044 0.025452 0.243643
v -0.286518 0.021315 0.252079
v -0.286537 0.025452 0.252115
v -0.338363 0.195069 0.16769
v -0.338939 0.207358 0.164458
v -0.332989 0.211982 0.17806
v -0.296384 0.021315 0.164458
v -0.271604 0.0763126 0.271596
v -0.252025 0.0932864 0.286477
v -0.264521 0.0948682 0.276763
v -0.271297 0.10156 0.271304
v -0.276767 0.0948682 0.264531
v -0.262832 0.0763126 0.278443
v -0.278265 0.025452 0.262832
v -0.271585 0.0593996 0.271596
v -0.271508 0.025452 0.271505
v -0.277727 0.11026 0.262632
v -0.277439 0.127234 0.262266
v -0.291106 0.178095 0.241124
v -0.276729 0.161121 0.261335
v -0.276134 0.178095 0.260568
v -0.284004 0.195069 0.24881
v -0.313468 0.178095 0.211984
v -0.277151 0.144147 0.261901
v -0.310876 0.196529 0.213664
v -0.304888 0.211982 0.220017
v -0.304216 0.228955 0.219141
v -0.310723 0.228955 0.210651
v -0.319188 0.228955 0.199605
v -0.324562 0.245929 0.190111
v -0.331818 0.228955 0.17806
v -0.28028 0.021315 0.260149
v -0.337845 0.211982 0.16643
v -0.338651 0.211982 0.164458
v -0.337595 0.227617 0.164458
v -0.148125 0.021315 0.303895
v -0.240643 0.614912 0.164458
v -0.252217 0.0763126 0.286623
v -0.243752 0.0763126 0.293141
v -0.212983 0.0932864 0.316456
v -0.251661 0.11026 0.286203
v -0.262275 0.127234 0.277439
v -0.261911 0.144147 0.277165
v -0.271124 0.11026 0.271122
v -0.262832 0.0593996 0.278425
v -0.252198 0.0593996 0.286623
v -0.271489 0.021315 0.271487
v -0.262832 0.025452 0.278261
v -0.290511 0.195069 0.240339
v -0.269819 0.161121 0.269825
v -0.270376 0.144147 0.270391
v -0.274925 0.211982 0.258998
v -0.28339 0.211982 0.248025
v -0.270759 0.127234 0.270757
v -0.298035 0.211982 0.228946
v -0.296691 0.228955 0.228946
v -0.303448 0.245929 0.218137
v -0.309955 0.245929 0.209647
v -0.31842 0.245929 0.198601
v -0.323871 0.262903 0.18907
v -0.323142 0.279816 0.187993
v -0.322585 0.292835 0.187135
v -0.330493 0.245929 0.17806
v -0.337499 0.228955 0.164458
v -0.148125 0.021315 0.350763
v -0.148125 0.618927 0.25175
v -0.240374 0.618927 0.164458
v -0.213175 0.0763126 0.316603
v -0.243752 0.0593996 0.293123
v -0.232696 0.0593996 0.301613
v -0.204691 0.0593996 0.323102
v -0.204499 0.0932864 0.322956
v -0.212254 0.127234 0.31589
v -0.242831 0.127234 0.292429
v -0.250912 0.144147 0.285637
v -0.250355 0.161121 0.285199
v -0.261335 0.161121 0.276727
v -0.252102 0.025452 0.28655
v -0.25216 0.0424258 0.286586
v -0.265615 0.021315 0.276051
v -0.260567 0.178095 0.276124
v -0.25978 0.195069 0.275522
v -0.258993 0.211982 0.274919
v -0.258129 0.228955 0.274244
v -0.269051 0.178095 0.26904
v -0.274234 0.228955 0.258122
v -0.282718 0.228955 0.247149
v -0.288649 0.241549 0.237928
v -0.283121 0.24672 0.244501
v -0.288131 0.252865 0.237235
v -0.302642 0.262903 0.217096
v -0.317633 0.262903 0.19756
v -0.316807 0.279816 0.196464
v -0.317134 0.297824 0.193689
v -0.322067 0.304151 0.186313
v -0.329111 0.262903 0.17806
v -0.336175 0.245929 0.164458
v -0.148125 0.0214975 0.350782
v -0.148336 0.021315 0.35069
v -0.240662 0.635293 0.164458
v -0.148125 0.635901 0.252079
v -0.204691 0.0763126 0.323102
v -0.224116 0.025452 0.308039
v -0.224174 0.0424258 0.308076
v -0.195017 0.0593996 0.329511
v -0.195017 0.0763126 0.329529
v -0.204634 0.0424258 0.323066
v -0.195017 0.025452 0.329365
v -0.195017 0.0932864 0.329255
v -0.19661 0.143234 0.326663
v -0.20377 0.127234 0.32239
v -0.210315 0.143234 0.31684
v -0.23141 0.144147 0.300627
v -0.203309 0.148284 0.322043
v -0.242466 0.144147 0.292137
v -0.230854 0.161121 0.300188
v -0.241123 0.178095 0.291114
v -0.255001 0.021315 0.284249
v -0.252064 0.021315 0.286513
v -0.232562 0.021315 0.301503
v -0.240336 0.195069 0.290512
v -0.239549 0.211982 0.289909
v -0.247131 0.228955 0.282716
v -0.244501 0.24672 0.283135
v -0.257131 0.245929 0.273477
v -0.266594 0.228955 0.266612
v -0.267477 0.211982 0.26747
v -0.268264 0.195069 0.268255
v -0.273466 0.245929 0.257154
v -0.272679 0.262903 0.256114
v -0.271854 0.279816 0.255055
v -0.301816 0.279816 0.216019
v -0.307479 0.29679 0.206433
v -0.306615 0.313764 0.205301
v -0.314485 0.313764 0.195022
v -0.325464 0.297824 0.179612
v -0.327691 0.279816 0.17806
v -0.3127 0.330677 0.195022
v -0.310358 0.364563 0.193269
v -0.309418 0.381537 0.192028
v -0.308439 0.39845 0.190768
v -0.30746 0.415424 0.189472
v -0.306462 0.432398 0.188157
v -0.305713 0.444748 0.187171
v -0.305003 0.456064 0.186203
v -0.308343 0.483258 0.175102
v -0.321568 0.313764 0.18529
v -0.322911 0.364563 0.171305
v -0.323718 0.34759 0.173185
v -0.324485 0.330677 0.175011
v -0.325253 0.313764 0.176819
v -0.334697 0.263937 0.164458
v -0.333372 0.279816 0.164458
v -0.172905 0.021315 0.340521
v -0.148125 0.025452 0.350836
v -0.241238 0.642776 0.164458
v -0.148125 0.642776 0.252498
v -0.148125 0.642228 0.252462
v -0.204595 0.025452 0.323011
v -0.1816 0.0593996 0.337088
v -0.181619 0.0763126 0.337088
v -0.19734 0.021315 0.327776
v -0.195017 0.021315 0.32931
v -0.181447 0.025452 0.337015
v -0.181312 0.0932864 0.33696
v -0.195017 0.127234 0.328196
v -0.194365 0.161121 0.327375
v -0.202829 0.161121 0.321678
v -0.211985 0.161121 0.314667
v -0.221583 0.178095 0.306104
v -0.220431 0.20316 0.305209
v -0.204538 0.021315 0.322993
v -0.211544 0.211982 0.311399
v -0.238666 0.228955 0.289234
v -0.245902 0.262903 0.280543
v -0.237917 0.241549 0.288668
v -0.198607 0.245929 0.318428
v -0.256095 0.262903 0.272674
v -0.271393 0.289063 0.25447
v -0.255039 0.279816 0.271852
v -0.258935 0.364563 0.258925
v -0.270817 0.300318 0.25374
v -0.291624 0.313764 0.224837
v -0.290741 0.330677 0.223669
v -0.305713 0.330677 0.204151
v -0.330436 0.313764 0.164458
v -0.331895 0.296972 0.164458
v -0.304657 0.350692 0.202745
v -0.310109 0.346069 0.196264
v -0.303889 0.364563 0.201759
v -0.30293 0.381537 0.200518
v -0.30197 0.39845 0.19924
v -0.300972 0.415424 0.197943
v -0.292488 0.415424 0.209008
v -0.284983 0.432398 0.216165
v -0.290453 0.449372 0.206342
v -0.296999 0.466285 0.195022
v -0.293735 0.48338 0.196446
v -0.293716 0.500232 0.193634
v -0.292584 0.517206 0.192174
v -0.304369 0.466285 0.185236
v -0.305713 0.529739 0.170447
v -0.306423 0.517206 0.171725
v -0.307383 0.500232 0.173423
v -0.320685 0.330677 0.183483
v -0.321856 0.386526 0.168785
v -0.325368 0.368579 0.164458
v -0.325752 0.364563 0.164458
v -0.326827 0.353187 0.164458
v -0.328478 0.335361 0.164458
v -0.18137 0.021315 0.336979
v -0.172962 0.025452 0.340539
v -0.148125 0.0587304 0.350964
v -0.173116 0.0593996 0.340612
v -0.293735 0.642776 0.164458
v -0.148125 0.642776 0.300992
v -0.173135 0.0763126 0.340612
v -0.184786 0.021315 0.335061
v -0.172828 0.0932864 0.340484
v -0.172252 0.11026 0.340247
v -0.180717 0.11026 0.336723
v -0.179565 0.144147 0.33623
v -0.193578 0.178095 0.326864
v -0.192004 0.211982 0.325823
v -0.202062 0.178095 0.321076
v -0.201275 0.195069 0.320473
v -0.200488 0.211982 0.319871
v -0.210661 0.228955 0.310723
v -0.228147 0.262903 0.294163
v -0.216016 0.279816 0.301813
v -0.245902 0.279816 0.278881
v -0.199605 0.228955 0.319195
v -0.189067 0.262903 0.323869
v -0.187992 0.279816 0.323139
v -0.187128 0.292835 0.322573
v -0.197551 0.262903 0.317625
v -0.208607 0.262903 0.309153
v -0.256997 0.39845 0.257008
v -0.254444 0.289063 0.271396
v -0.270126 0.313764 0.252845
v -0.27575 0.330677 0.243205
v -0.289839 0.34759 0.2225
v -0.29936 0.346069 0.210304
v -0.273927 0.364563 0.240813
v -0.28838 0.373932 0.220602
v -0.272967 0.381537 0.239572
v -0.279186 0.39845 0.228946
v -0.293486 0.39845 0.210304
v -0.276345 0.41439 0.230205
v -0.276499 0.432398 0.227211
v -0.268955 0.449372 0.23435
v -0.267899 0.466285 0.232962
v -0.266824 0.483258 0.231556
v -0.287939 0.489099 0.203056
v -0.272218 0.500232 0.221642
v -0.265634 0.516537 0.22743
v -0.270798 0.521769 0.21978
v -0.284944 0.534119 0.199167
v -0.291451 0.534119 0.190677
v -0.303294 0.483258 0.183592
v -0.302181 0.500232 0.181913
v -0.301068 0.517206 0.180196
v -0.290376 0.635901 0.172656
v -0.289916 0.642776 0.171962
v -0.305041 0.541055 0.169132
v -0.310972 0.505586 0.164458
v -0.320071 0.422116 0.164458
v -0.320416 0.415424 0.165298
v -0.321261 0.39845 0.167361
v -0.319783 0.34759 0.181657
v -0.32247 0.39845 0.164458
v -0.323986 0.382936 0.164458
v -0.148125 0.0763126 0.350964
v -0.1611 0.0763126 0.345596
v -0.293889 0.641681 0.164458
v -0.293428 0.642776 0.165097
v -0.15348 0.642776 0.298673
v -0.148125 0.635901 0.301923
v -0.148125 0.0921914 0.350745
v -0.1611 0.11026 0.344866
v -0.171657 0.127234 0.340009
v -0.171081 0.144147 0.339754
v -0.17039 0.158201 0.33948
v -0.176859 0.162764 0.336504
v -0.178068 0.178095 0.335061
v -0.178068 0.211982 0.332998
v -0.191121 0.228955 0.32522
v -0.196476 0.279816 0.316803
v -0.234443 0.29679 0.285984
v -0.253715 0.300318 0.27083
v -0.190123 0.245929 0.324563
v -0.178068 0.228955 0.33183
v -0.186303 0.304151 0.32208
v -0.252812 0.313764 0.270136
v -0.25598 0.415424 0.256004
v -0.269243 0.330677 0.251677
v -0.268341 0.34759 0.250508
v -0.2674 0.364563 0.249285
v -0.266441 0.381537 0.248043
v -0.271988 0.39845 0.238312
v -0.271431 0.408002 0.237582
v -0.269992 0.432398 0.235683
v -0.254425 0.441341 0.254434
v -0.259281 0.447972 0.247094
v -0.262122 0.432398 0.245889
v -0.259415 0.466285 0.243935
v -0.25834 0.483258 0.242548
v -0.257227 0.500232 0.241124
v -0.265711 0.500232 0.230114
v -0.256114 0.517206 0.239681
v -0.262103 0.534119 0.228946
v -0.254386 0.542758 0.237454
v -0.29028 0.551093 0.189161
v -0.28909 0.568067 0.187609
v -0.291528 0.618927 0.174317
v -0.288419 0.577557 0.186733
v -0.286653 0.601954 0.184432
v -0.285386 0.618927 0.182789
v -0.284119 0.635901 0.181128
v -0.283581 0.642776 0.180434
v -0.304408 0.551093 0.16769
v -0.305751 0.551093 0.164458
v -0.307479 0.536674 0.164458
v -0.309187 0.521708 0.164458
v -0.320973 0.413234 0.164458
v -0.148125 0.0870201 0.350818
v -0.303007 0.573238 0.164458
v -0.303333 0.568067 0.165225
v -0.1611 0.642776 0.295368
v -0.1611 0.635901 0.2963
v -0.149084 0.618927 0.303767
v -0.148125 0.625011 0.303365
v -0.148125 0.123219 0.349869
v -0.1611 0.144147 0.343898
v -0.148125 0.144147 0.349266
v -0.148125 0.157166 0.3487
v -0.148125 0.161486 0.348499
v -0.168951 0.178095 0.338877
v -0.167684 0.195069 0.338366
v -0.166436 0.211982 0.337837
v -0.165035 0.228955 0.337252
v -0.214903 0.29679 0.300974
v -0.193674 0.297824 0.317132
v -0.205306 0.313764 0.306615
v -0.233311 0.313764 0.285126
v -0.244367 0.313764 0.276636
v -0.163442 0.245929 0.336595
v -0.178068 0.245929 0.330497
v -0.178068 0.262903 0.329109
v -0.178068 0.279816 0.327685
v -0.179623 0.297824 0.325476
v -0.176821 0.313764 0.325257
v -0.174997 0.330677 0.32449
v -0.173174 0.34759 0.323705
v -0.171293 0.364563 0.32292
v -0.168778 0.386526 0.321861
v -0.185305 0.313764 0.321569
v -0.173423 0.500232 0.3074
v -0.186207 0.456064 0.305009
v -0.187186 0.444748 0.305702
v -0.188145 0.432398 0.306451
v -0.18947 0.415424 0.307455
v -0.190775 0.39845 0.308441
v -0.192023 0.381537 0.309409
v -0.19327 0.364563 0.310358
v -0.195017 0.330677 0.312695
v -0.195017 0.313764 0.314485
v -0.243196 0.330677 0.275759
v -0.251661 0.330677 0.269241
v -0.254962 0.432398 0.254982
v -0.265462 0.39845 0.246784
v -0.2655 0.41439 0.244301
v -0.25049 0.34759 0.268346
v -0.249281 0.364563 0.267415
v -0.248033 0.381537 0.266448
v -0.246766 0.39845 0.265462
v -0.245902 0.432398 0.26212
v -0.234347 0.449372 0.268949
v -0.247073 0.447972 0.25929
v -0.243944 0.466285 0.259418
v -0.242543 0.483258 0.258341
v -0.241123 0.500232 0.257246
v -0.239683 0.517206 0.256132
v -0.238205 0.534119 0.254982
v -0.237437 0.542758 0.254397
v -0.238627 0.642776 0.238622
v -0.253599 0.554074 0.236431
v -0.282583 0.568067 0.196099
v -0.25262 0.568067 0.235153
v -0.282353 0.583945 0.193452
v -0.271143 0.609254 0.203275
v -0.276921 0.618927 0.193854
v -0.259569 0.635354 0.213225
v -0.275117 0.642776 0.191498
v -0.280165 0.642776 0.184907
v -0.303659 0.568067 0.164458
v -0.171964 0.642776 0.289909
v -0.1611 0.618927 0.298545
v -0.169143 0.541055 0.305027
v -0.167684 0.551093 0.304406
v -0.165227 0.568067 0.303347
v -0.148125 0.620387 0.303968
v -0.151157 0.605543 0.304625
v -0.148125 0.609376 0.305374
v -0.148125 0.174809 0.347696
v -0.148125 0.20754 0.345706
v -0.157952 0.211982 0.34136
v -0.156551 0.228955 0.340776
v -0.20354 0.339376 0.305264
v -0.212619 0.330677 0.299221
v -0.148125 0.240454 0.343369
v -0.148125 0.245929 0.342931
v -0.148125 0.259557 0.341835
v -0.160006 0.264241 0.33654
v -0.1611 0.279816 0.334769
v -0.1611 0.29679 0.333309
v -0.1611 0.313764 0.33183
v -0.1611 0.34759 0.328762
v -0.1611 0.364563 0.327156
v -0.181658 0.34759 0.319779
v -0.162329 0.381111 0.325056
v -0.148125 0.377522 0.331282
v -0.148125 0.394678 0.329602
v -0.158874 0.39845 0.324782
v -0.167358 0.39845 0.321258
v -0.170448 0.529739 0.305702
v -0.171715 0.517206 0.306433
v -0.185228 0.466285 0.30437
v -0.192176 0.517206 0.292593
v -0.193635 0.500232 0.293707
v -0.196457 0.48338 0.293743
v -0.193712 0.44998 0.300061
v -0.21617 0.432398 0.28498
v -0.19663 0.432398 0.299951
v -0.197954 0.415424 0.300974
v -0.19924 0.39845 0.30196
v -0.200507 0.381537 0.302927
v -0.201755 0.364563 0.303895
v -0.202753 0.350692 0.304662
v -0.196265 0.346069 0.310103
v -0.242025 0.34759 0.274846
v -0.22976 0.364563 0.282405
v -0.239568 0.381537 0.272966
v -0.238301 0.39845 0.271998
v -0.237591 0.408002 0.271432
v -0.24429 0.41439 0.265498
v -0.236708 0.419318 0.270775
v -0.235691 0.432398 0.26999
v -0.225863 0.449372 0.275467
v -0.232965 0.466285 0.26789
v -0.231564 0.483258 0.266813
v -0.230124 0.500232 0.265717
v -0.20066 0.517206 0.286093
v -0.228934 0.534119 0.262102
v -0.210219 0.534119 0.276471
v -0.23642 0.554074 0.253612
v -0.235153 0.568067 0.252626
v -0.233579 0.58498 0.251421
v -0.231967 0.601954 0.25018
v -0.230335 0.618927 0.24892
v -0.228685 0.642776 0.246565
v -0.242927 0.642776 0.233254
v -0.248897 0.618927 0.230333
v -0.250164 0.601954 0.231958
v -0.251411 0.58498 0.233565
v -0.257918 0.58498 0.225093
v -0.255423 0.618927 0.221861
v -0.263005 0.618927 0.211984
v -0.254636 0.629331 0.220839
v -0.253619 0.642776 0.219506
v -0.177013 0.642776 0.286185
v -0.18279 0.618927 0.285399
v -0.185669 0.588873 0.287609
v -0.172655 0.635901 0.290384
v -0.159545 0.600737 0.301594
v -0.1611 0.483258 0.314959
v -0.1611 0.500232 0.31306
v -0.1611 0.517206 0.311143
v -0.16254 0.53491 0.308496
v -0.148125 0.551093 0.312549
v -0.159219 0.551093 0.307948
v -0.156762 0.568067 0.306944
v -0.154248 0.58498 0.305903
v -0.148125 0.598121 0.306798
v -0.148125 0.211982 0.345432
v -0.148125 0.228955 0.344263
v -0.148125 0.266553 0.341269
v -0.15252 0.270812 0.339096
v -0.148125 0.279816 0.340155
v -0.148125 0.29679 0.338695
v -0.148125 0.313764 0.337216
v -0.148125 0.328486 0.335883
v -0.148125 0.347833 0.334112
v -0.148125 0.360548 0.332907
v -0.148125 0.364563 0.332524
v -0.148125 0.415424 0.327521
v -0.15682 0.415424 0.323924
v -0.165304 0.415424 0.3204
v -0.181907 0.500232 0.302197
v -0.183596 0.483258 0.303292
v -0.163192 0.432398 0.319542
v -0.1611 0.466285 0.316803
v -0.174325 0.618927 0.291534
v -0.190679 0.534119 0.291443
v -0.202119 0.500232 0.287207
v -0.20306 0.489099 0.287937
v -0.22308 0.483258 0.273331
v -0.21878 0.39845 0.286988
v -0.213252 0.380381 0.293287
v -0.199163 0.534119 0.284943
v -0.189163 0.551093 0.290274
v -0.207148 0.568067 0.274116
v -0.186744 0.577557 0.28843
v -0.223483 0.601954 0.256698
v -0.221851 0.618927 0.255438
v -0.220834 0.62927 0.254671
v -0.223675 0.642776 0.250435
v -0.246536 0.642776 0.22869
v -0.248609 0.635354 0.227467
v -0.180448 0.642776 0.283592
v -0.18112 0.635901 0.284121
v -0.203271 0.609254 0.27114
v -0.148144 0.483258 0.320327
v -0.148125 0.500232 0.318447
v -0.15037 0.466285 0.321258
v -0.148125 0.516537 0.316584
v -0.148125 0.534302 0.314539
v -0.148125 0.563565 0.311052
v -0.148125 0.568067 0.310504
v -0.148125 0.58498 0.308423
v -0.148125 0.595322 0.307145
v -0.148125 0.427044 0.326334
v -0.148125 0.432398 0.325786
v -0.153326 0.443531 0.322482
v -0.159833 0.44925 0.319177
v -0.218012 0.642776 0.254781
v -0.148125 0.483319 0.320327
v -0.148125 0.459167 0.322956
v -0.148125 0.447303 0.324234
f 1 2 3
f 1 3 4
f 1 4 12
f 1 12 15
f 1 15 14
f 1 14 30
f 1 30 51
f 1 51 75
f 1 75 104
f 1 104 105
f 1 105 134
f 1 134 167
f 1 167 222
f 1 222 223
f 1 223 257
f 1 257 256
f 1 256 280
f 1 280 279
f 1 279 278
f 1 278 277
f 1 277 342
f 1 342 341
f 1 341 395
f 1 395 337
f 1 337 336
f 1 336 394
f 1 394 393
f 1 393 392
f 1 392 466
f 1 466 397
f 1 397 345
f 1 345 285
f 1 285 226
f 1 226 170
f 1 170 137
f 1 137 107
f 1 107 77
f 1 77 53
f 1 53 32
f 1 32 31
f 1 31 16
f 1 16 5
f 1 5 6
f 1 6 2
f 2 7 8
f 2 8 9
f 2 9 3
f 2 6 10
f 2 10 11
f 2 11 7
f 3 12 4
f 3 9 13
f 3 13 14
f 3 14 15
f 3 15 12
f 5 16 17
f 5 17 6
f 6 17 10
f 7 18 19
f 7 19 8
f 7 11 20
f 7 20 18
f 8 19 21
f 8 21 22
f 8 22 9
f 9 22 23
f 9 23 24
f 9 24 13
f 10 17 25
f 10 25 11
f 11 26 20
f 11 25 27
f 11 27 28
f 11 28 26
f 13 24 29
f 13 29 14
f 14 29 30
f 16 31 17
f 17 31 32
f 17 32 33
f 17 33 34
f 17 34 25
f 18 35 36
f 18 36 19
f 18 20 37
f 18 37 35
f 19 36 21
f 20 26 37
f 21 38 22
f 21 36 39
f 21 39 40
f 21 40 38
f 22 38 23
f 23 38 41
f 23 41 24
f 24 41 42
f 24 42 43
f 24 43 44
f 24 44 45
f 24 45 29
f 25 34 46
f 25 46 47
f 25 47 27
f 26 28 48
f 26 48 61
f 26 61 37
f 27 47 28
f 28 47 49
f 28 49 50
f 28 50 48
f 29 51 30
f 29 45 52
f 29 52 51
f 32 53 33
f 33 53 77
f 33 77 106
f 33 106 135
f 33 135 169
f 33 169 224
f 33 224 281
f 33 281 288
f 33 288 233
f 33 233 232
f 33 232 242
f 33 242 190
f 33 190 189
f 33 189 188
f 33 188 150
f 33 150 117
f 33 117 102
f 33 102 72
f 33 72 50
f 33 50 49
f 33 49 47
f 33 47 46
f 33 46 34
f 35 54 55
f 35 55 56
f 35 56 36
f 35 37 57
f 35 57 58
f 35 58 59
f 35 59 54
f 36 56 60
f 36 60 39
f 37 61 57
f 38 40 41
f 39 60 62
f 39 62 40
f 40 63 64
f 40 64 65
f 40 65 41
f 40 62 66
f 40 66 63
f 41 65 42
f 42 65 43
f 43 67 68
f 43 68 44
f 43 65 69
f 43 69 67
f 44 68 70
f 44 70 52
f 44 52 45
f 48 71 57
f 48 57 61
f 48 50 71
f 50 72 73
f 50 73 71
f 51 52 74
f 51 74 75
f 52 70 76
f 52 76 74
f 54 78 55
f 54 59 85
f 54 85 78
f 55 79 80
f 55 80 81
f 55 81 82
f 55 82 56
f 55 78 83
f 55 83 79
f 56 82 60
f 57 71 73
f 57 73 58
f 58 84 59
f 58 73 84
f 59 84 86
f 59 86 85
f 60 87 88
f 60 88 94
f 60 94 66
f 60 66 62
f 60 82 87
f 63 89 64
f 63 66 90
f 63 90 91
f 63 91 92
f 63 92 119
f 63 119 89
f 64 89 93
f 64 93 65
f 65 93 69
f 66 94 90
f 67 95 96
f 67 96 97
f 67 97 98
f 67 98 99
f 67 99 68
f 67 69 95
f 68 99 100
f 68 100 101
f 68 101 76
f 68 76 70
f 69 93 95
f 72 102 84
f 72 84 73
f 74 76 103
f 74 103 75
f 75 103 104
f 76 101 105
f 76 105 103
f 77 107 106
f 78 85 83
f 79 83 108
f 79 108 109
f 79 109 110
f 79 110 111
f 79 111 80
f 80 111 112
f 80 112 81
f 81 112 113
f 81 113 114
f 81 114 94
f 81 94 88
f 81 88 87
f 81 87 82
f 83 85 115
f 83 115 116
f 83 116 108
f 84 102 117
f 84 117 86
f 85 86 115
f 86 117 118
f 86 118 115
f 89 119 93
f 90 120 91
f 90 94 121
f 90 121 120
f 91 120 122
f 91 122 92
f 92 122 123
f 92 123 119
f 93 119 95
f 94 114 124
f 94 124 121
f 95 119 96
f 96 125 126
f 96 126 97
f 96 119 125
f 97 126 127
f 97 127 128
f 97 128 98
f 98 128 129
f 98 129 99
f 99 129 130
f 99 130 100
f 100 130 101
f 101 130 131
f 101 131 132
f 101 132 133
f 101 133 167
f 101 167 134
f 101 134 105
f 103 105 104
f 106 107 136
f 106 136 171
f 106 171 228
f 106 228 227
f 106 227 286
f 106 286 348
f 106 348 402
f 106 402 472
f 106 472 474
f 106 474 554
f 106 554 601
f 106 601 600
f 106 600 599
f 106 599 598
f 106 598 550
f 106 550 597
f 106 597 596
f 106 596 594
f 106 594 607
f 106 607 608
f 106 608 609
f 106 609 603
f 106 603 602
f 106 602 566
f 106 566 493
f 106 493 492
f 106 492 565
f 106 565 564
f 106 564 563
f 106 563 562
f 106 562 561
f 106 561 560
f 106 560 559
f 106 559 557
f 106 557 483
f 106 483 482
f 106 482 481
f 106 481 556
f 106 556 555
f 106 555 476
f 106 476 475
f 106 475 407
f 106 407 406
f 106 406 405
f 106 405 403
f 106 403 349
f 106 349 396
f 106 396 343
f 106 343 283
f 106 283 225
f 106 225 168
f 106 168 135
f 107 137 136
f 108 116 109
f 109 138 110
f 109 116 139
f 109 139 140
f 109 140 141
f 109 141 138
f 110 138 172
f 110 172 142
f 110 142 181
f 110 181 143
f 110 143 144
f 110 144 111
f 111 144 145
f 111 145 113
f 111 113 112
f 113 145 146
f 113 146 147
f 113 147 121
f 113 121 124
f 113 124 114
f 115 118 148
f 115 148 149
f 115 149 116
f 116 149 139
f 117 150 118
f 118 150 148
f 119 123 125
f 120 147 151
f 120 151 152
f 120 152 153
f 120 153 154
f 120 154 155
f 120 155 122
f 120 121 147
f 122 156 157
f 122 157 123
f 122 155 156
f 123 157 126
f 123 126 125
f 126 157 127
f 127 157 158
f 127 158 159
f 127 159 160
f 127 160 161
f 127 161 162
f 127 162 128
f 128 162 129
f 129 162 132
f 129 132 131
f 129 131 130
f 132 162 163
f 132 163 164
f 132 164 165
f 132 165 133
f 133 165 166
f 133 166 167
f 135 168 169
f 136 137 170
f 136 170 171
f 138 141 172
f 139 149 140
f 140 149 148
f 140 148 173
f 140 173 174
f 140 174 141
f 141 175 176
f 141 176 172
f 141 174 173
f 141 173 177
f 141 177 178
f 141 178 175
f 142 172 176
f 142 176 179
f 142 179 180
f 142 180 181
f 143 182 183
f 143 183 144
f 143 181 184
f 143 184 182
f 144 183 185
f 144 185 145
f 145 185 146
f 146 185 184
f 146 184 186
f 146 186 187
f 146 187 151
f 146 151 147
f 148 150 188
f 148 188 189
f 148 189 190
f 148 190 173
f 151 187 191
f 151 191 152
f 152 191 192
f 152 192 153
f 153 192 154
f 154 193 194
f 154 194 195
f 154 195 196
f 154 196 197
f 154 197 198
f 154 198 155
f 154 192 193
f 155 198 156
f 156 198 197
f 156 197 199
f 156 199 157
f 157 199 159
f 157 159 158
f 159 200 160
f 159 199 200
f 160 200 161
f 161 200 201
f 161 201 202
f 161 202 162
f 162 202 163
f 163 202 203
f 163 203 164
f 164 203 204
f 164 204 205
f 164 205 165
f 165 206 207
f 165 207 166
f 165 205 208
f 165 208 209
f 165 209 210
f 165 210 211
f 165 211 212
f 165 212 213
f 165 213 214
f 165 214 215
f 165 215 216
f 165 216 217
f 165 217 218
f 165 218 219
f 165 219 220
f 165 220 221
f 165 221 206
f 166 222 167
f 166 207 223
f 166 223 222
f 168 224 169
f 168 225 224
f 170 226 227
f 170 227 228
f 170 228 171
f 173 190 229
f 173 229 177
f 175 178 230
f 175 230 176
f 176 230 231
f 176 231 179
f 177 229 178
f 178 229 232
f 178 232 233
f 178 233 234
f 178 234 230
f 179 231 235
f 179 235 236
f 179 236 180
f 180 236 237
f 180 237 184
f 180 184 181
f 182 184 183
f 183 184 185
f 184 237 238
f 184 238 239
f 184 239 186
f 186 239 187
f 187 239 240
f 187 240 241
f 187 241 191
f 190 242 229
f 191 241 192
f 192 243 298
f 192 298 244
f 192 244 193
f 192 241 243
f 193 244 194
f 194 245 195
f 194 244 246
f 194 246 247
f 194 247 245
f 195 245 248
f 195 248 196
f 196 249 201
f 196 201 200
f 196 200 199
f 196 199 197
f 196 248 250
f 196 250 251
f 196 251 249
f 201 249 202
f 202 249 203
f 203 252 253
f 203 253 204
f 203 249 252
f 204 253 311
f 204 311 254
f 204 254 255
f 204 255 205
f 205 255 208
f 206 221 207
f 207 221 256
f 207 256 257
f 207 257 223
f 208 255 258
f 208 258 259
f 208 259 209
f 209 259 260
f 209 260 210
f 210 260 261
f 210 261 262
f 210 262 211
f 211 262 212
f 212 262 263
f 212 263 213
f 213 263 264
f 213 264 265
f 213 265 266
f 213 266 214
f 214 266 267
f 214 267 268
f 214 268 215
f 215 268 269
f 215 269 270
f 215 270 271
f 215 271 272
f 215 272 273
f 215 273 274
f 215 274 216
f 216 274 217
f 217 274 275
f 217 275 276
f 217 276 218
f 218 276 277
f 218 277 278
f 218 278 279
f 218 279 219
f 219 279 280
f 219 280 256
f 219 256 220
f 220 256 221
f 224 225 282
f 224 282 234
f 224 234 281
f 225 283 284
f 225 284 282
f 226 285 346
f 226 346 334
f 226 334 390
f 226 390 465
f 226 465 464
f 226 464 540
f 226 540 588
f 226 588 532
f 226 532 456
f 226 456 531
f 226 531 587
f 226 587 606
f 226 606 590
f 226 590 541
f 226 541 467
f 226 467 399
f 226 399 347
f 226 347 286
f 226 286 227
f 229 242 232
f 230 284 287
f 230 287 231
f 230 234 282
f 230 282 284
f 231 287 289
f 231 289 235
f 233 288 234
f 234 288 281
f 235 289 290
f 235 290 351
f 235 351 291
f 235 291 292
f 235 292 236
f 236 292 237
f 237 292 293
f 237 293 238
f 238 293 294
f 238 294 295
f 238 295 239
f 239 295 240
f 240 295 241
f 241 295 243
f 243 295 296
f 243 296 297
f 243 297 302
f 243 302 298
f 244 298 246
f 245 247 299
f 245 299 300
f 245 300 301
f 245 301 250
f 245 250 248
f 246 298 247
f 247 298 302
f 247 302 303
f 247 303 304
f 247 304 305
f 247 305 306
f 247 306 307
f 247 307 299
f 249 251 308
f 249 308 252
f 250 301 309
f 250 309 251
f 251 309 308
f 252 308 310
f 252 310 253
f 253 310 311
f 254 311 312
f 254 312 313
f 254 313 255
f 255 313 258
f 258 314 260
f 258 260 259
f 258 313 312
f 258 312 314
f 260 314 315
f 260 315 261
f 261 316 317
f 261 317 318
f 261 318 262
f 261 315 316
f 262 318 264
f 262 264 263
f 264 319 265
f 264 318 317
f 264 317 319
f 265 319 320
f 265 320 321
f 265 321 266
f 266 321 322
f 266 322 267
f 267 322 323
f 267 323 268
f 268 324 269
f 268 323 324
f 269 324 325
f 269 325 326
f 269 326 270
f 270 326 327
f 270 327 328
f 270 328 329
f 270 329 271
f 271 330 272
f 271 329 330
f 272 330 331
f 272 331 332
f 272 332 333
f 272 333 334
f 272 334 335
f 272 335 336
f 272 336 337
f 272 337 338
f 272 338 339
f 272 339 276
f 272 276 340
f 272 340 273
f 273 340 275
f 273 275 274
f 275 340 276
f 276 339 341
f 276 341 342
f 276 342 277
f 283 343 344
f 283 344 287
f 283 287 284
f 285 345 346
f 286 347 348
f 287 344 349
f 287 349 289
f 289 349 350
f 289 350 290
f 290 350 351
f 291 351 292
f 292 352 353
f 292 353 354
f 292 354 355
f 292 355 294
f 292 294 293
f 292 351 352
f 294 297 296
f 294 296 295
f 294 355 356
f 294 356 357
f 294 357 297
f 297 357 302
f 299 307 358
f 299 358 300
f 300 358 412
f 300 412 359
f 300 359 301
f 301 359 360
f 301 360 309
f 302 357 361
f 302 361 303
f 303 361 362
f 303 362 304
f 304 362 305
f 305 363 358
f 305 358 306
f 305 362 363
f 306 358 307
f 308 309 360
f 308 360 364
f 308 364 365
f 308 365 310
f 310 365 366
f 310 366 311
f 311 366 367
f 311 367 312
f 312 367 314
f 314 368 369
f 314 369 316
f 314 316 315
f 314 367 368
f 316 369 441
f 316 441 370
f 316 370 317
f 317 370 371
f 317 371 319
f 319 371 372
f 319 372 320
f 320 372 321
f 321 373 374
f 321 374 322
f 321 372 375
f 321 375 373
f 322 374 376
f 322 376 377
f 322 377 323
f 323 377 378
f 323 378 380
f 323 380 379
f 323 379 325
f 323 325 324
f 325 379 326
f 326 380 381
f 326 381 327
f 326 379 380
f 327 381 328
f 328 381 382
f 328 382 383
f 328 383 329
f 329 383 330
f 330 383 384
f 330 384 385
f 330 385 331
f 331 385 332
f 332 385 333
f 333 385 386
f 333 386 334
f 334 387 388
f 334 388 389
f 334 389 390
f 334 346 335
f 334 386 387
f 335 391 392
f 335 392 393
f 335 393 394
f 335 394 336
f 335 346 345
f 335 345 391
f 337 395 338
f 338 395 341
f 338 341 339
f 343 396 344
f 344 396 349
f 345 397 398
f 345 398 391
f 347 399 400
f 347 400 348
f 348 400 401
f 348 401 402
f 349 403 350
f 350 403 404
f 350 404 351
f 351 404 352
f 352 404 353
f 353 404 405
f 353 405 406
f 353 406 407
f 353 407 408
f 353 408 354
f 354 408 356
f 354 356 355
f 356 408 409
f 356 409 410
f 356 410 411
f 356 411 362
f 356 362 361
f 356 361 357
f 358 363 413
f 358 413 414
f 358 414 412
f 359 412 414
f 359 414 415
f 359 415 360
f 360 415 416
f 360 416 364
f 362 411 417
f 362 417 418
f 362 418 363
f 363 418 419
f 363 419 420
f 363 420 421
f 363 421 422
f 363 422 423
f 363 423 424
f 363 424 425
f 363 425 426
f 363 426 427
f 363 427 428
f 363 428 429
f 363 429 430
f 363 430 431
f 363 431 432
f 363 432 433
f 363 433 434
f 363 434 435
f 363 435 436
f 363 436 437
f 363 437 413
f 364 416 438
f 364 438 439
f 364 439 365
f 365 440 366
f 365 439 440
f 366 440 367
f 367 440 373
f 367 373 368
f 368 373 369
f 369 373 441
f 370 441 371
f 371 442 372
f 371 441 442
f 372 442 375
f 373 377 376
f 373 376 374
f 373 375 442
f 373 442 441
f 373 440 443
f 373 443 444
f 373 444 445
f 373 445 446
f 373 446 447
f 373 447 448
f 373 448 449
f 373 449 450
f 373 450 451
f 373 451 452
f 373 452 453
f 373 453 454
f 373 454 455
f 373 455 456
f 373 456 382
f 373 382 380
f 373 380 378
f 373 378 377
f 380 382 381
f 382 456 457
f 382 457 383
f 383 457 458
f 383 458 384
f 384 458 386
f 384 386 385
f 386 458 459
f 386 459 460
f 386 460 387
f 387 461 462
f 387 462 388
f 387 460 461
f 388 462 389
f 389 463 464
f 389 464 465
f 389 465 390
f 389 462 463
f 391 398 466
f 391 466 392
f 397 466 398
f 399 467 400
f 400 468 401
f 400 467 469
f 400 469 470
f 400 470 471
f 400 471 468
f 401 472 402
f 401 468 473
f 401 473 474
f 401 474 472
f 403 405 404
f 407 475 408
f 408 475 476
f 408 476 409
f 409 476 477
f 409 477 410
f 410 477 478
f 410 478 411
f 411 478 417
f 413 437 414
f 414 438 415
f 414 437 479
f 414 479 480
f 414 480 438
f 415 438 416
f 417 478 481
f 417 481 482
f 417 482 483
f 417 483 484
f 417 484 418
f 418 484 419
f 419 484 420
f 420 484 485
f 420 485 486
f 420 486 421
f 421 486 487
f 421 487 422
f 422 487 423
f 423 487 488
f 423 488 424
f 424 488 425
f 425 488 489
f 425 489 426
f 426 490 427
f 426 489 491
f 426 491 492
f 426 492 493
f 426 493 494
f 426 494 495
f 426 495 496
f 426 496 497
f 426 497 490
f 427 490 428
f 428 497 429
f 428 490 497
f 429 497 496
f 429 496 498
f 429 498 499
f 429 499 500
f 429 500 501
f 429 501 430
f 430 501 502
f 430 502 503
f 430 503 504
f 430 504 431
f 431 504 505
f 431 505 432
f 432 505 433
f 433 505 506
f 433 506 507
f 433 507 434
f 434 507 508
f 434 508 435
f 435 508 509
f 435 509 510
f 435 510 436
f 436 510 509
f 436 509 479
f 436 479 437
f 438 480 479
f 438 479 509
f 438 509 511
f 438 511 443
f 438 443 439
f 439 443 440
f 443 511 512
f 443 512 444
f 444 512 513
f 444 513 445
f 445 513 514
f 445 514 446
f 446 514 515
f 446 515 516
f 446 516 447
f 447 516 515
f 447 515 517
f 447 517 518
f 447 518 448
f 448 518 519
f 448 519 520
f 448 520 450
f 448 450 449
f 450 520 521
f 450 521 451
f 451 521 452
f 452 522 453
f 452 521 522
f 453 522 523
f 453 523 524
f 453 524 454
f 454 524 455
f 455 524 525
f 455 525 526
f 455 526 456
f 456 526 527
f 456 527 528
f 456 528 529
f 456 529 530
f 456 530 531
f 456 532 533
f 456 533 534
f 456 534 535
f 456 535 459
f 456 459 457
f 457 459 458
f 459 535 536
f 459 536 460
f 460 536 461
f 461 536 535
f 461 535 534
f 461 534 537
f 461 537 538
f 461 538 462
f 462 538 539
f 462 539 463
f 463 539 540
f 463 540 464
f 467 541 542
f 467 542 543
f 467 543 544
f 467 544 469
f 468 545 473
f 468 471 545
f 469 496 546
f 469 546 547
f 469 547 548
f 469 548 549
f 469 549 550
f 469 550 551
f 469 551 552
f 469 552 470
f 469 544 496
f 470 552 471
f 471 552 553
f 471 553 473
f 471 473 545
f 473 553 554
f 473 554 474
f 476 555 477
f 477 555 478
f 478 556 481
f 478 555 556
f 483 557 484
f 484 557 558
f 484 558 485
f 485 558 559
f 485 559 560
f 485 560 486
f 486 560 561
f 486 561 487
f 487 561 562
f 487 562 488
f 488 562 563
f 488 563 489
f 489 563 564
f 489 564 565
f 489 565 492
f 489 492 491
f 493 566 494
f 494 566 567
f 494 567 568
f 494 568 495
f 495 568 496
f 496 569 570
f 496 570 498
f 496 568 571
f 496 571 572
f 496 572 546
f 496 544 573
f 496 573 569
f 498 570 574
f 498 574 499
f 499 574 580
f 499 580 523
f 499 523 575
f 499 575 500
f 500 575 501
f 501 575 576
f 501 576 577
f 501 577 520
f 501 520 502
f 502 520 519
f 502 519 503
f 503 518 517
f 503 517 505
f 503 505 504
f 503 519 518
f 505 515 578
f 505 578 506
f 505 517 515
f 506 578 507
f 507 579 508
f 507 578 579
f 508 512 509
f 508 579 513
f 508 513 512
f 509 512 511
f 513 579 578
f 513 578 514
f 514 578 515
f 520 577 521
f 521 577 522
f 522 576 575
f 522 575 523
f 522 577 576
f 523 580 525
f 523 525 524
f 525 580 581
f 525 581 526
f 526 581 582
f 526 582 527
f 527 582 583
f 527 583 528
f 528 584 529
f 528 583 584
f 529 584 585
f 529 585 530
f 530 585 586
f 530 586 587
f 530 587 531
f 532 588 533
f 533 537 534
f 533 588 589
f 533 589 539
f 533 539 537
f 537 539 538
f 539 589 540
f 540 589 588
f 541 590 591
f 541 591 542
f 542 586 592
f 542 592 543
f 542 591 586
f 543 592 584
f 543 584 583
f 543 583 544
f 544 583 573
f 546 593 594
f 546 594 547
f 546 572 595
f 546 595 593
f 547 594 548
f 548 594 596
f 548 596 597
f 548 597 549
f 549 597 550
f 550 598 552
f 550 552 551
f 552 598 599
f 552 599 553
f 553 600 601
f 553 601 554
f 553 599 600
f 557 559 558
f 566 602 567
f 567 602 603
f 567 603 571
f 567 571 568
f 569 573 583
f 569 583 570
f 570 583 581
f 570 581 574
f 571 603 604
f 571 604 605
f 571 605 572
f 572 605 595
f 574 581 580
f 581 583 582
f 584 592 585
f 585 592 586
f 586 591 590
f 586 590 606
f 586 606 587
f 593 607 594
f 593 595 608
f 593 608 607
f 595 605 608
f 603 609 604
f 604 609 605
f 605 609 608
