v 0.192015 -0.510181 0.166686
v 0.0965987 -0.656908 0.166686
v 0.192015 -0.65949 0.166686
v 0.192015 -0.658097 -6.14666e-05
v 0.107703 -0.772754 -6.14666e-05
v 0.0938898 -0.659014 0.166653
v 0.0938898 -0.661732 0.166686
v 0.188874 -0.665265 0.166686
v 0.192015 -0.6618 0.165037
v 0.192015 -0.780534 -6.14666e-05
v 0.102372 -0.781247 -6.14666e-05
v 0.101872 -0.782063 -6.14666e-05
v 0.101767 -0.782572 -6.14666e-05
v 0.0938898 -0.788518 0.0355209
v 0.0938898 -0.781825 0.166686
v 0.191218 -0.668968 0.160908
v 0.192015 -0.668391 0.160288
v 0.184311 -0.673385 0.166686
v 0.192015 -0.780534 0.00809963
v 0.189451 -0.784645 -6.14666e-05
v 0.100748 -0.788042 -6.14666e-05
v 0.0938898 -0.82779 -6.14666e-05
v 0.0938898 -0.798845 0.153938
v 0.0975401 -0.779277 0.166686
v 0.192015 -0.678073 0.153122
v 0.184119 -0.674064 0.166425
v 0.188461 -0.68164 0.15513
v 0.17312 -0.692477 0.166686
v 0.192015 -0.778292 0.0189049
v 0.189451 -0.784645 0.00849136
v 0.184014 -0.793104 -6.14666e-05
v 0.0938898 -0.85721 -6.14666e-05
v 0.100633 -0.795991 0.151816
v 0.0938898 -0.805606 0.148438
v 0.0942932 -0.806047 0.147818
v 0.100489 -0.776695 0.166686
v 0.192015 -0.684222 0.148487
v 0.17898 -0.688333 0.162279
v 0.192015 -0.687993 0.145598
v 0.185147 -0.692919 0.150805
v 0.166684 -0.702091 0.166686
v 0.170402 -0.713506 0.153677
v 0.173389 -0.703722 0.157546
v 0.192015 -0.776899 0.0254501
v 0.188355 -0.782912 0.0254501
v 0.182909 -0.791405 0.0254501
v 0.184014 -0.793104 0.00849136
v 0.170046 -0.814608 -6.14666e-05
v 0.11023 -0.85721 -6.14666e-05
v 0.0938898 -0.85721 0.0424089
v 0.101767 -0.813963 0.135674
v 0.108549 -0.804145 0.138889
v 0.119384 -0.797622 0.13618
v 0.111459 -0.789605 0.148699
v 0.106618 -0.784713 0.156338
v 0.0938898 -0.806217 0.147932
v 0.0938898 -0.810532 0.144276
v 0.0938898 -0.817258 0.13853
v 0.108164 -0.769561 0.166686
v 0.192015 -0.697981 0.137845
v 0.182515 -0.704945 0.144749
v 0.189479 -0.700121 0.139493
v 0.149057 -0.724751 0.166686
v 0.155445 -0.733312 0.15544
v 0.174081 -0.719757 0.143623
v 0.186732 -0.729473 0.11896
v 0.18605 -0.711434 0.135021
v 0.166751 -0.724785 0.148944
v 0.192015 -0.775404 0.0322891
v 0.187193 -0.781078 0.0424089
v 0.174436 -0.804111 0.0254501
v 0.186569 -0.780092 0.050978
v 0.174619 -0.806965 0.00901366
v 0.170046 -0.814608 0.00370895
v 0.155032 -0.834007 -6.14666e-05
v 0.127184 -0.856293 -6.14666e-05
v 0.11023 -0.85721 0.0424089
v 0.0938898 -0.857176 0.0593676
v 0.0938898 -0.82514 0.131479
v 0.107722 -0.82035 0.125244
v 0.113073 -0.808935 0.131316
v 0.125897 -0.787328 0.139412
v 0.120018 -0.81539 0.120005
v 0.136348 -0.780908 0.136343
v 0.117924 -0.779243 0.152012
v 0.111354 -0.77272 0.161953
v 0.11534 -0.762223 0.166686
v 0.192015 -0.702024 0.134678
v 0.148884 -0.724955 0.166686
v 0.144446 -0.738 0.161349
v 0.151267 -0.744625 0.151262
v 0.186646 -0.746324 0.101936
v 0.192015 -0.724921 0.114569
v 0.192015 -0.718364 0.121131
v 0.189566 -0.720674 0.122665
v 0.171093 -0.73141 0.137633
v 0.176992 -0.736098 0.125799
v 0.171583 -0.748974 0.121327
v 0.171689 -0.766198 0.104776
v 0.192015 -0.707187 0.130581
v 0.161343 -0.738 0.144439
v 0.192015 -0.773162 0.0424089
v 0.173072 -0.802005 0.0424089
v 0.168634 -0.812604 0.0254501
v 0.169316 -0.813589 0.0150202
v 0.181545 -0.789571 0.0424089
v 0.192015 -0.772856 0.0436983
v 0.192015 -0.766571 0.0582251
v 0.189441 -0.771124 0.0577191
v 0.187866 -0.765178 0.0710706
v 0.184215 -0.776491 0.0622893
v 0.170575 -0.781519 0.0869358
v 0.172823 -0.784781 0.07631
v 0.169028 -0.796229 0.0665331
v 0.171362 -0.799457 0.0552381
v 0.167049 -0.810498 0.0424089
v 0.164571 -0.821131 0.00901366
v 0.155032 -0.834007 0.00849136
v 0.151651 -0.838287 -6.14666e-05
v 0.139845 -0.851638 -6.14666e-05
v 0.127184 -0.856293 0.00849136
v 0.11023 -0.856734 0.0593676
v 0.0938898 -0.857006 0.076359
v 0.0938898 -0.834312 0.122779
v 0.102362 -0.831391 0.119172
v 0.102257 -0.848309 0.102246
v 0.119182 -0.831391 0.102344
v 0.125253 -0.82035 0.107698
v 0.131324 -0.808935 0.113068
v 0.136195 -0.797622 0.119368
v 0.152016 -0.779243 0.117915
v 0.148855 -0.772788 0.128329
v 0.15192 -0.762121 0.134743
v 0.134754 -0.762121 0.151914
v 0.128337 -0.772788 0.148846
v 0.139422 -0.787328 0.125881
v 0.123457 -0.76793 0.156256
v 0.117895 -0.759573 0.166686
v 0.140729 -0.734399 0.166686
v 0.133774 -0.742281 0.166686
v 0.13997 -0.750808 0.155946
v 0.155945 -0.750808 0.13995
v 0.188461 -0.749279 0.0932525
v 0.192015 -0.746799 0.0882252
v 0.192015 -0.740922 0.0965822
v 0.192015 -0.730289 0.109052
v 0.167654 -0.77751 0.0982307
v 0.174235 -0.771735 0.0928444
v 0.18313 -0.757772 0.0932525
v 0.185531 -0.761475 0.0823819
v 0.192015 -0.714152 0.124803
v 0.167251 -0.742723 0.132622
v 0.167558 -0.760286 0.116071
v 0.161958 -0.77272 0.111337
v 0.156348 -0.784713 0.106604
v 0.153121 -0.831561 0.0357331
v 0.161468 -0.822422 0.0254501
v 0.192015 -0.761068 0.0668269
v 0.191689 -0.755326 0.0765712
v 0.181747 -0.771124 0.0765712
v 0.155368 -0.800782 0.0893188
v 0.151074 -0.812094 0.0814352
v 0.166992 -0.793274 0.07631
v 0.157904 -0.806047 0.0759999
v 0.165013 -0.805266 0.0602817
v 0.155801 -0.81804 0.0593676
v 0.151449 -0.829454 0.047028
v 0.157683 -0.823271 0.0417886
v 0.153937 -0.832614 0.0254501
v 0.148318 -0.8425 0.00849136
v 0.148318 -0.8425 -6.14666e-05
v 0.139845 -0.851638 0.00849136
v 0.127184 -0.855511 0.0254501
v 0.124908 -0.85208 0.0593676
v 0.111459 -0.853065 0.0773873
v 0.0938898 -0.8549 0.0932525
v 0.0938898 -0.834686 0.12242
v 0.0938898 -0.842602 0.114586
v 0.0938898 -0.843145 0.113982
v 0.0938898 -0.850347 0.105527
v 0.105782 -0.850517 0.0932525
v 0.121699 -0.850381 0.072458
v 0.117924 -0.847086 0.0837366
v 0.114264 -0.843417 0.0932525
v 0.122679 -0.834958 0.0932525
v 0.131152 -0.826023 0.0932525
v 0.135676 -0.813963 0.101756
v 0.138904 -0.804145 0.10853
v 0.151814 -0.795991 0.100614
v 0.124677 -0.752235 0.166686
v 0.13216 -0.744047 0.166686
v 0.192015 -0.754783 0.0765549
v 0.144389 -0.839544 0.0428822
v 0.137347 -0.849566 0.0387364
v 0.147213 -0.841107 0.0254501
v 0.147828 -0.806047 0.0942808
v 0.153562 -0.815186 0.0701403
v 0.134831 -0.829998 0.0833612
v 0.137818 -0.833463 0.0720663
v 0.149115 -0.826499 0.0593676
v 0.140642 -0.836792 0.0593676
v 0.135282 -0.847494 0.0500313
v 0.13874 -0.850857 0.0254501
v 0.128654 -0.852624 0.0435841
v 0.13338 -0.845286 0.0593676
v 0.12826 -0.840292 0.0779096
v 0.13876 -0.81753 0.0932525
f 1 2 7
f 1 7 15
f 1 15 24
f 1 24 36
f 1 36 59
f 1 59 87
f 1 87 138
f 1 138 190
f 1 190 191
f 1 191 140
f 1 140 139
f 1 139 89
f 1 89 63
f 1 63 41
f 1 41 28
f 1 28 18
f 1 18 8
f 1 8 3
f 1 3 9
f 1 9 17
f 1 17 25
f 1 25 37
f 1 37 39
f 1 39 60
f 1 60 88
f 1 88 100
f 1 100 151
f 1 151 94
f 1 94 93
f 1 93 146
f 1 146 145
f 1 145 144
f 1 144 192
f 1 192 158
f 1 158 108
f 1 108 107
f 1 107 102
f 1 102 69
f 1 69 44
f 1 44 29
f 1 29 19
f 1 19 10
f 1 10 4
f 1 4 5
f 1 5 6
f 1 6 2
f 2 6 7
f 3 8 9
f 4 10 20
f 4 20 31
f 4 31 48
f 4 48 75
f 4 75 119
f 4 119 171
f 4 171 120
f 4 120 76
f 4 76 49
f 4 49 32
f 4 32 22
f 4 22 21
f 4 21 13
f 4 13 12
f 4 12 11
f 4 11 5
f 5 11 6
f 6 11 12
f 6 12 13
f 6 13 14
f 6 14 22
f 6 22 32
f 6 32 50
f 6 50 78
f 6 78 123
f 6 123 176
f 6 176 180
f 6 180 179
f 6 179 178
f 6 178 177
f 6 177 124
f 6 124 79
f 6 79 58
f 6 58 57
f 6 57 56
f 6 56 34
f 6 34 23
f 6 23 15
f 6 15 7
f 8 16 17
f 8 17 9
f 8 18 16
f 10 19 30
f 10 30 20
f 13 21 14
f 14 21 22
f 15 23 24
f 16 18 25
f 16 25 17
f 18 26 27
f 18 27 25
f 18 28 26
f 19 29 30
f 20 30 47
f 20 47 31
f 23 33 24
f 23 34 35
f 23 35 33
f 24 33 36
f 25 27 37
f 26 28 38
f 26 38 27
f 27 39 37
f 27 38 40
f 27 40 39
f 28 41 42
f 28 42 43
f 28 43 40
f 28 40 38
f 29 44 45
f 29 45 30
f 30 45 46
f 30 46 47
f 31 47 74
f 31 74 48
f 32 49 77
f 32 77 50
f 33 35 51
f 33 51 52
f 33 52 53
f 33 53 54
f 33 54 55
f 33 55 36
f 34 56 35
f 35 56 57
f 35 57 58
f 35 58 51
f 36 55 59
f 39 40 60
f 40 43 61
f 40 61 62
f 40 62 60
f 41 63 64
f 41 64 42
f 42 65 66
f 42 66 67
f 42 67 61
f 42 61 43
f 42 64 68
f 42 68 65
f 44 69 45
f 45 69 70
f 45 70 46
f 46 71 47
f 46 70 72
f 46 72 71
f 47 71 73
f 47 73 74
f 48 74 118
f 48 118 75
f 49 76 121
f 49 121 77
f 50 77 78
f 51 58 79
f 51 79 80
f 51 80 81
f 51 81 53
f 51 53 52
f 53 82 54
f 53 81 83
f 53 83 84
f 53 84 82
f 54 82 55
f 55 82 85
f 55 85 86
f 55 86 59
f 59 86 87
f 60 62 88
f 61 67 62
f 62 67 88
f 63 89 90
f 63 90 91
f 63 91 64
f 64 91 68
f 65 68 66
f 66 92 93
f 66 93 94
f 66 94 95
f 66 95 67
f 66 68 96
f 66 96 97
f 66 97 98
f 66 98 99
f 66 99 92
f 67 100 88
f 67 95 100
f 68 91 101
f 68 101 96
f 69 102 70
f 70 102 72
f 71 103 104
f 71 104 105
f 71 105 73
f 71 72 106
f 71 106 103
f 72 102 107
f 72 107 108
f 72 108 109
f 72 109 110
f 72 110 111
f 72 111 112
f 72 112 113
f 72 113 114
f 72 114 115
f 72 115 116
f 72 116 103
f 72 103 106
f 73 105 74
f 74 105 117
f 74 117 118
f 75 118 119
f 76 120 172
f 76 172 121
f 77 121 122
f 77 122 123
f 77 123 78
f 79 124 125
f 79 125 80
f 80 83 81
f 80 125 83
f 82 84 85
f 83 125 126
f 83 126 127
f 83 127 128
f 83 128 129
f 83 129 130
f 83 130 84
f 84 131 132
f 84 132 133
f 84 133 91
f 84 91 134
f 84 134 135
f 84 135 85
f 84 130 136
f 84 136 131
f 85 135 137
f 85 137 86
f 86 137 87
f 87 137 134
f 87 134 138
f 89 139 90
f 90 140 141
f 90 141 91
f 90 139 140
f 91 141 134
f 91 133 142
f 91 142 101
f 92 143 144
f 92 144 145
f 92 145 146
f 92 146 93
f 92 99 147
f 92 147 148
f 92 148 112
f 92 112 149
f 92 149 150
f 92 150 143
f 94 151 95
f 95 151 100
f 96 101 152
f 96 152 97
f 97 152 98
f 98 152 142
f 98 142 133
f 98 133 153
f 98 153 99
f 99 153 154
f 99 154 155
f 99 155 147
f 101 142 152
f 103 116 104
f 104 116 156
f 104 156 157
f 104 157 105
f 105 157 117
f 108 158 110
f 108 110 109
f 110 158 159
f 110 159 150
f 110 150 160
f 110 160 111
f 111 160 112
f 112 161 162
f 112 162 163
f 112 163 113
f 112 160 150
f 112 150 149
f 112 148 147
f 112 147 161
f 113 163 114
f 114 163 164
f 114 164 165
f 114 165 115
f 115 165 166
f 115 166 167
f 115 167 116
f 116 167 168
f 116 168 156
f 117 157 169
f 117 169 118
f 118 169 170
f 118 170 119
f 119 170 171
f 120 171 170
f 120 170 172
f 121 172 173
f 121 173 122
f 122 173 174
f 122 174 175
f 122 175 176
f 122 176 123
f 124 177 125
f 125 177 178
f 125 178 126
f 126 178 179
f 126 179 180
f 126 180 181
f 126 181 182
f 126 182 183
f 126 183 184
f 126 184 127
f 127 184 185
f 127 185 186
f 127 186 128
f 128 187 129
f 128 186 187
f 129 187 188
f 129 188 130
f 130 189 155
f 130 155 136
f 130 188 189
f 131 154 132
f 131 136 155
f 131 155 154
f 132 154 133
f 133 154 153
f 134 137 135
f 134 141 138
f 138 141 190
f 140 191 141
f 141 191 190
f 143 150 159
f 143 159 144
f 144 159 192
f 147 155 189
f 147 189 161
f 156 193 194
f 156 194 195
f 156 195 169
f 156 169 157
f 156 168 167
f 156 167 193
f 158 192 159
f 161 189 196
f 161 196 162
f 162 197 164
f 162 164 163
f 162 196 198
f 162 198 199
f 162 199 197
f 164 197 165
f 165 197 166
f 166 197 200
f 166 200 167
f 167 200 201
f 167 201 202
f 167 202 193
f 169 195 170
f 170 195 203
f 170 203 172
f 172 203 173
f 173 203 204
f 173 204 174
f 174 204 203
f 174 203 194
f 174 194 182
f 174 182 175
f 175 182 181
f 175 181 176
f 176 181 180
f 182 194 202
f 182 202 205
f 182 205 199
f 182 199 206
f 182 206 183
f 183 206 198
f 183 198 185
f 183 185 184
f 185 198 186
f 186 198 207
f 186 207 187
f 187 207 196
f 187 196 189
f 187 189 188
f 193 202 194
f 194 203 195
f 196 207 198
f 197 199 200
f 198 206 199
f 199 205 201
f 199 201 200
f 201 205 202
