v 0.194987 0.855387 -0.1611
v 0.212075 0.855106 -0.145425
v 0.194987 0.854147 -0.178054
v 0.178038 0.854965 -0.182306
v 0.178038 0.855246 -0.178054
v 0.194987 0.853351 -0.145425
v 0.229246 0.851526 -0.145425
v 0.208346 0.850052 -0.178054
v 0.194792 0.853117 -0.182306
v 0.160755 0.852626 -0.182306
v 0.147285 0.849701 -0.182306
v 0.182992 0.849444 -0.145425
v 0.230415 0.850965 -0.145425
v 0.224348 0.849795 -0.157963
v 0.206731 0.849421 -0.182306
v 0.14414 0.848461 -0.182306
v 0.181962 0.848976 -0.145425
v 0.246668 0.840109 -0.145425
v 0.235648 0.84673 -0.150573
v 0.220174 0.847713 -0.169263
v 0.211574 0.846543 -0.182306
v 0.131728 0.841677 -0.182306
v 0.174531 0.843852 -0.145425
v 0.122293 0.835289 -0.182306
v 0.241631 0.834845 -0.1611
v 0.260612 0.823825 -0.145425
v 0.253682 0.830002 -0.151493
v 0.22958 0.844133 -0.162609
v 0.216834 0.845022 -0.178054
v 0.215387 0.843478 -0.182306
v 0.164707 0.835477 -0.145425
v 0.108907 0.823919 -0.182306
v 0.238069 0.831616 -0.17044
v 0.22574 0.834564 -0.182306
v 0.228412 0.835851 -0.176877
v 0.262003 0.821556 -0.145425
v 0.257495 0.818678 -0.156985
v 0.250342 0.823568 -0.162021
v 0.163455 0.834283 -0.145425
v 0.103313 0.818866 -0.182306
v 0.233727 0.825721 -0.181743
v 0.233449 0.82551 -0.182306
v 0.232864 0.826259 -0.182306
v 0.265231 0.815801 -0.145425
v 0.253348 0.811987 -0.168284
v 0.239126 0.817462 -0.182306
v 0.269406 0.805483 -0.148432
v 0.271299 0.79699 -0.152609
v 0.260639 0.805998 -0.162021
v 0.155885 0.825159 -0.145425
v 0.0895922 0.805132 -0.182306
v 0.0754264 0.78934 -0.182306
v 0.270714 0.805483 -0.145425
v 0.256047 0.800664 -0.171779
v 0.248978 0.805998 -0.177682
v 0.2455 0.805787 -0.182306
v 0.243357 0.810186 -0.182306
v 0.276308 0.791258 -0.145425
v 0.276559 0.790206 -0.145833
v 0.27333 0.78569 -0.156021
v 0.267987 0.790206 -0.161443
v 0.153213 0.821767 -0.145425
v 0.0625409 0.771232 -0.182306
v 0.253237 0.788521 -0.182306
v 0.251428 0.792569 -0.182306
v 0.258691 0.788521 -0.17522
v 0.276726 0.790182 -0.145425
v 0.281763 0.77308 -0.145425
v 0.275278 0.771559 -0.159263
v 0.270018 0.771559 -0.167739
v 0.282153 0.771559 -0.145425
v 0.142971 0.806863 -0.145425
v 0.0511859 0.754737 -0.182306
v 0.258023 0.775326 -0.182306
v 0.27667 0.755954 -0.162678
v 0.271159 0.762505 -0.169375
v 0.285158 0.757545 -0.145425
v 0.287134 0.737635 -0.149883
v 0.28129 0.737635 -0.1611
v 0.260806 0.772682 -0.179552
v 0.141747 0.804851 -0.145425
v 0.0300903 0.72072 -0.182306
v 0.259109 0.771091 -0.182306
v 0.272523 0.751205 -0.171176
v 0.266679 0.755954 -0.177317
v 0.261502 0.761429 -0.182306
v 0.286327 0.75193 -0.145425
v 0.288971 0.737635 -0.145425
v 0.287969 0.727013 -0.151876
v 0.284574 0.721094 -0.16005
v 0.285297 0.703758 -0.164003
v 0.286661 0.686796 -0.166559
v 0.273942 0.737635 -0.172992
v 0.139465 0.800289 -0.145425
v 0.0235779 0.703758 -0.182306
v 0.126551 0.771746 -0.145425
v 0.133648 0.788521 -0.145425
v 0.26679 0.737635 -0.182306
v 0.262977 0.755439 -0.182306
v 0.291476 0.721071 -0.145425
v 0.288748 0.715713 -0.153696
v 0.287635 0.674349 -0.1684
v 0.293674 0.705372 -0.145425
v 0.295984 0.688714 -0.145425
v 0.275418 0.72072 -0.174924
v 0.26807 0.730336 -0.182306
v 0.288498 0.663049 -0.169923
v 0.0212958 0.686796 -0.182306
v 0.113972 0.72072 -0.145425
v 0.11464 0.724908 -0.145425
v 0.116699 0.737635 -0.145425
v 0.120902 0.754597 -0.145425
v 0.126023 0.770366 -0.145425
v 0.289611 0.703758 -0.15553
v 0.29835 0.671401 -0.145425
v 0.276809 0.703758 -0.176739
v 0.270213 0.717912 -0.182306
v 0.26974 0.72072 -0.182306
v 0.29078 0.686796 -0.158082
v 0.291337 0.669155 -0.162093
v 0.294008 0.652872 -0.1611
v 0.296291 0.635933 -0.1611
v 0.298545 0.618971 -0.1611
v 0.289222 0.652872 -0.170949
v 0.285771 0.618807 -0.182306
v 0.285019 0.623837 -0.182306
v 0.28321 0.635933 -0.182306
v 0.28282 0.652872 -0.179429
v 0.282459 0.669155 -0.176566
v 0.276948 0.676291 -0.182306
v 0.275418 0.685954 -0.182306
v 0.0254704 0.669834 -0.182306
v 0.112803 0.669834 -0.145425
v 0.111885 0.686796 -0.145425
v 0.11194 0.688878 -0.145425
v 0.112358 0.703758 -0.145425
v 0.303081 0.635933 -0.145425
v 0.302664 0.635933 -0.146425
v 0.273887 0.695452 -0.182306
v 0.303749 0.618971 -0.149082
v 0.303916 0.616374 -0.149479
v 0.299714 0.616374 -0.159179
v 0.298962 0.616374 -0.16088
v 0.292951 0.616374 -0.172212
v 0.291531 0.618971 -0.174306
v 0.29039 0.635933 -0.172635
v 0.286105 0.616374 -0.182306
v 0.279787 0.658112 -0.182306
v 0.0344597 0.660897 -0.182306
v 0.121264 0.648965 -0.145425
v 0.118453 0.652872 -0.145425
v 0.30528 0.618971 -0.145425
v 0.304334 0.616374 -0.148497
v 0.291698 0.616374 -0.174555
v 0.227104 0.616374 -0.182306
v 0.043449 0.653925 -0.182306
v 0.128305 0.643701 -0.145425
v 0.305586 0.616374 -0.145425
v 0.253543 0.616374 -0.145425
v 0.0677174 0.643771 -0.182306
v 0.0448684 0.652872 -0.182306
v 0.0518539 0.648965 -0.182306
v 0.0847775 0.644402 -0.169562
f 1 2 3
f 1 3 4
f 1 4 5
f 1 5 6
f 1 6 2
f 2 7 3
f 2 6 12
f 2 12 17
f 2 17 23
f 2 23 31
f 2 31 39
f 2 39 50
f 2 50 62
f 2 62 72
f 2 72 81
f 2 81 94
f 2 94 97
f 2 97 96
f 2 96 113
f 2 113 112
f 2 112 111
f 2 111 110
f 2 110 109
f 2 109 136
f 2 136 135
f 2 135 134
f 2 134 133
f 2 133 151
f 2 151 150
f 2 150 157
f 2 157 159
f 2 159 158
f 2 158 152
f 2 152 137
f 2 137 115
f 2 115 104
f 2 104 103
f 2 103 100
f 2 100 88
f 2 88 87
f 2 87 77
f 2 77 71
f 2 71 68
f 2 68 67
f 2 67 58
f 2 58 53
f 2 53 44
f 2 44 36
f 2 36 26
f 2 26 18
f 2 18 13
f 2 13 7
f 3 7 8
f 3 8 9
f 3 9 4
f 4 9 15
f 4 15 21
f 4 21 30
f 4 30 34
f 4 34 43
f 4 43 42
f 4 42 46
f 4 46 57
f 4 57 56
f 4 56 65
f 4 65 64
f 4 64 74
f 4 74 83
f 4 83 86
f 4 86 99
f 4 99 98
f 4 98 106
f 4 106 118
f 4 118 117
f 4 117 139
f 4 139 131
f 4 131 130
f 4 130 148
f 4 148 127
f 4 127 126
f 4 126 125
f 4 125 147
f 4 147 155
f 4 155 160
f 4 160 162
f 4 162 161
f 4 161 156
f 4 156 149
f 4 149 132
f 4 132 108
f 4 108 95
f 4 95 82
f 4 82 73
f 4 73 63
f 4 63 52
f 4 52 51
f 4 51 40
f 4 40 32
f 4 32 24
f 4 24 22
f 4 22 16
f 4 16 11
f 4 11 10
f 4 10 5
f 5 10 6
f 6 10 11
f 6 11 12
f 7 13 14
f 7 14 8
f 8 14 15
f 8 15 9
f 11 16 12
f 12 16 17
f 13 18 19
f 13 19 14
f 14 20 15
f 14 19 20
f 15 20 21
f 16 22 17
f 17 22 24
f 17 24 23
f 18 25 19
f 18 26 27
f 18 27 25
f 19 25 28
f 19 28 29
f 19 29 20
f 20 29 21
f 21 29 30
f 23 24 32
f 23 32 31
f 25 33 34
f 25 34 35
f 25 35 30
f 25 30 29
f 25 29 28
f 25 27 33
f 26 36 27
f 27 36 37
f 27 37 38
f 27 38 33
f 30 35 34
f 31 32 40
f 31 40 39
f 33 38 41
f 33 41 42
f 33 42 43
f 33 43 34
f 36 44 37
f 37 45 46
f 37 46 38
f 37 44 47
f 37 47 48
f 37 48 49
f 37 49 45
f 38 46 42
f 38 42 41
f 39 40 51
f 39 51 52
f 39 52 50
f 44 53 47
f 45 49 54
f 45 54 55
f 45 55 56
f 45 56 57
f 45 57 46
f 47 53 48
f 48 53 58
f 48 58 59
f 48 59 60
f 48 60 61
f 48 61 54
f 48 54 49
f 50 52 62
f 52 63 62
f 54 64 65
f 54 65 56
f 54 56 55
f 54 61 66
f 54 66 64
f 58 67 59
f 59 67 68
f 59 68 60
f 60 69 70
f 60 70 61
f 60 68 71
f 60 71 69
f 61 70 66
f 62 63 73
f 62 73 72
f 64 66 74
f 66 70 74
f 69 75 76
f 69 76 70
f 69 71 77
f 69 77 78
f 69 78 79
f 69 79 75
f 70 76 80
f 70 80 74
f 72 73 82
f 72 82 81
f 74 80 83
f 75 84 76
f 75 79 84
f 76 84 85
f 76 85 86
f 76 86 83
f 76 83 80
f 77 87 78
f 78 87 88
f 78 88 89
f 78 89 79
f 79 89 90
f 79 90 91
f 79 91 92
f 79 92 93
f 79 93 84
f 81 82 94
f 82 95 96
f 82 96 97
f 82 97 94
f 84 98 99
f 84 99 85
f 84 93 98
f 85 99 86
f 88 100 89
f 89 101 102
f 89 102 92
f 89 92 91
f 89 91 90
f 89 100 103
f 89 103 104
f 89 104 101
f 92 102 93
f 93 105 106
f 93 106 98
f 93 102 107
f 93 107 105
f 95 108 109
f 95 109 110
f 95 110 111
f 95 111 112
f 95 112 113
f 95 113 96
f 101 104 114
f 101 114 102
f 102 114 107
f 104 115 114
f 105 116 117
f 105 117 118
f 105 118 106
f 105 107 116
f 107 114 119
f 107 119 120
f 107 120 121
f 107 121 122
f 107 122 123
f 107 123 124
f 107 124 125
f 107 125 126
f 107 126 127
f 107 127 128
f 107 128 129
f 107 129 130
f 107 130 131
f 107 131 116
f 108 132 133
f 108 133 134
f 108 134 135
f 108 135 136
f 108 136 109
f 114 115 119
f 115 122 119
f 115 137 138
f 115 138 122
f 116 131 139
f 116 139 117
f 119 122 121
f 119 121 120
f 122 138 123
f 123 138 140
f 123 140 141
f 123 141 142
f 123 142 143
f 123 143 144
f 123 144 145
f 123 145 146
f 123 146 124
f 124 146 125
f 125 146 145
f 125 145 147
f 127 148 128
f 128 148 130
f 128 130 129
f 132 149 150
f 132 150 151
f 132 151 133
f 137 152 138
f 138 152 153
f 138 153 140
f 140 153 141
f 141 153 158
f 141 158 159
f 141 159 155
f 141 155 147
f 141 147 154
f 141 154 144
f 141 144 143
f 141 143 142
f 144 154 145
f 145 154 147
f 149 156 150
f 150 156 157
f 152 158 153
f 155 159 160
f 156 161 157
f 157 161 162
f 157 162 163
f 157 163 159
f 159 163 160
f 160 163 162
