v -6.01652e-05 0.643183 -0.211974
v 0.00849075 0.643183 -0.211974
v 0.0593544 0.642975 -0.195017
v -6.01652e-05 0.643412 -0.205841
v -6.01652e-05 0.643557 -0.216552
v 0.0762995 0.6431 -0.195017
v 0.00849075 0.643932 -0.221075
v 0.0762995 0.643849 -0.204622
v 0.105501 0.643225 -0.182312
v 0.0890118 0.643225 -0.182312
v -6.01652e-05 0.643661 -0.199618
v -6.01652e-05 0.643932 -0.221075
v 0.110218 0.643391 -0.182312
v 0.110218 0.643828 -0.188145
v 0.00849075 0.65287 -0.224499
v 0.0196212 0.644202 -0.220684
v 0.085734 0.64416 -0.203823
v 0.0677201 0.643765 -0.182312
v 0.0423951 0.644056 -0.186061
v 0.0332456 0.644347 -0.186475
v -6.01652e-05 0.646426 -0.195407
v -6.01652e-05 0.65287 -0.224499
v 0.118398 0.643724 -0.182312
v 0.119311 0.64414 -0.186974
v 0.145533 0.724027 -0.243673
v 0.0309226 0.645262 -0.218762
v 0.0518439 0.648962 -0.182312
v -6.01652e-05 0.649253 -0.191136
v -6.01652e-05 0.657735 -0.185724
v -6.01652e-05 0.653452 -0.188451
v -6.01652e-05 0.739244 -0.243673
v 0.12236 0.643911 -0.182312
v 0.145533 0.71461 -0.182312
v 0.134945 0.669833 -0.182312
v 0.129586 0.65287 -0.182312
v 0.145533 0.842622 -0.243673
v 0.0448464 0.65287 -0.182312
v 0.0434355 0.653931 -0.182312
v 0.034457 0.660895 -0.182312
v -6.01652e-05 0.663742 -0.185142
v -6.01652e-05 0.853307 -0.243673
v 0.145533 0.849004 -0.182312
v 0.142726 0.844139 -0.243673
v 0.145533 0.843204 -0.243
v 0.0254501 0.669833 -0.182312
v -6.01652e-05 0.669833 -0.184553
v -6.01652e-05 0.849648 -0.234891
v 0.145533 0.849461 -0.182955
v 0.145533 0.853369 -0.195017
v 0.144137 0.855323 -0.211974
v 0.110218 0.855178 -0.228926
v 0.076157 0.854845 -0.243673
v -6.01652e-05 0.841977 -0.226415
v -6.01652e-05 0.837716 -0.222378
v -6.01652e-05 0.833496 -0.218402
v 0.144137 0.848463 -0.182312
v 0.127177 0.849793 -0.243673
v 0.139263 0.849419 -0.239702
v 0.145533 0.847923 -0.237468
v 0.0213029 0.686796 -0.182312
v -6.01652e-05 0.686796 -0.183988
v -6.01652e-05 0.678252 -0.184271
v 0.145533 0.855094 -0.212089
v 0.127177 0.854887 -0.228926
v 0.0932588 0.854429 -0.243673
v -6.01652e-05 0.827925 -0.215074
v -6.01652e-05 0.822437 -0.211806
v 0.131695 0.841686 -0.182312
v 0.122318 0.850875 -0.243673
v 0.127177 0.850667 -0.242387
v 0.144607 0.851623 -0.229581
v 0.145533 0.851498 -0.22922
v 0.0235831 0.703759 -0.182312
v -6.01652e-05 0.703759 -0.184289
v -6.01652e-05 0.809569 -0.205379
v 0.122289 0.835284 -0.182312
v -6.01652e-05 0.805308 -0.203601
v -6.01652e-05 0.801088 -0.201853
v 0.0300676 0.720701 -0.182312
v -6.01652e-05 0.721138 -0.185472
v 0.0511883 0.754752 -0.182312
v 0.108878 0.823933 -0.182312
v -6.01652e-05 0.794768 -0.199726
v -6.01652e-05 0.788511 -0.197636
v -6.01652e-05 0.779988 -0.195329
v -6.01652e-05 0.738579 -0.187286
v 0.0625325 0.771236 -0.182312
v 0.0754159 0.789343 -0.182312
v 0.103306 0.818882 -0.182312
v -6.01652e-05 0.771569 -0.193107
v 0.0895677 0.805141 -0.182312
v -6.01652e-05 0.754606 -0.189683
f 1 2 3
f 1 3 4
f 1 4 11
f 1 11 21
f 1 21 28
f 1 28 30
f 1 30 29
f 1 29 40
f 1 40 46
f 1 46 62
f 1 62 61
f 1 61 74
f 1 74 80
f 1 80 86
f 1 86 92
f 1 92 90
f 1 90 85
f 1 85 84
f 1 84 83
f 1 83 78
f 1 78 77
f 1 77 75
f 1 75 67
f 1 67 66
f 1 66 55
f 1 55 54
f 1 54 53
f 1 53 47
f 1 47 41
f 1 41 31
f 1 31 22
f 1 22 12
f 1 12 5
f 1 5 2
f 2 6 3
f 2 5 7
f 2 7 8
f 2 8 6
f 3 6 9
f 3 9 10
f 3 10 11
f 3 11 4
f 5 12 7
f 6 13 9
f 6 8 14
f 6 14 13
f 7 12 22
f 7 22 15
f 7 15 16
f 7 16 8
f 8 16 17
f 8 17 14
f 9 13 23
f 9 23 32
f 9 32 35
f 9 35 34
f 9 34 33
f 9 33 42
f 9 42 56
f 9 56 68
f 9 68 76
f 9 76 82
f 9 82 89
f 9 89 91
f 9 91 88
f 9 88 87
f 9 87 81
f 9 81 79
f 9 79 73
f 9 73 60
f 9 60 45
f 9 45 39
f 9 39 38
f 9 38 37
f 9 37 27
f 9 27 18
f 9 18 10
f 10 18 11
f 11 18 19
f 11 19 20
f 11 20 21
f 13 14 23
f 14 17 24
f 14 24 23
f 15 22 25
f 15 25 16
f 16 26 17
f 16 25 26
f 17 26 25
f 17 25 24
f 18 27 20
f 18 20 19
f 20 28 21
f 20 27 29
f 20 29 30
f 20 30 28
f 22 31 25
f 23 24 32
f 24 25 32
f 25 33 34
f 25 34 35
f 25 35 32
f 25 31 41
f 25 41 52
f 25 52 65
f 25 65 69
f 25 69 57
f 25 57 43
f 25 43 36
f 25 36 44
f 25 44 59
f 25 59 72
f 25 72 63
f 25 63 49
f 25 49 48
f 25 48 42
f 25 42 33
f 27 37 29
f 29 37 38
f 29 38 39
f 29 39 40
f 36 43 44
f 39 45 46
f 39 46 40
f 41 47 48
f 41 48 49
f 41 49 50
f 41 50 51
f 41 51 52
f 42 48 47
f 42 47 53
f 42 53 54
f 42 54 55
f 42 55 56
f 43 57 58
f 43 58 44
f 44 58 59
f 45 60 61
f 45 61 62
f 45 62 46
f 49 63 50
f 50 63 64
f 50 64 51
f 51 64 52
f 52 64 65
f 55 66 56
f 56 66 67
f 56 67 68
f 57 69 70
f 57 70 58
f 58 70 64
f 58 64 71
f 58 71 72
f 58 72 59
f 60 73 61
f 61 73 74
f 63 72 71
f 63 71 64
f 64 70 69
f 64 69 65
f 67 75 68
f 68 75 77
f 68 77 78
f 68 78 76
f 73 79 74
f 74 79 81
f 74 81 80
f 76 78 83
f 76 83 84
f 76 84 85
f 76 85 82
f 80 81 87
f 80 87 88
f 80 88 86
f 82 85 90
f 82 90 89
f 86 88 91
f 86 91 92
f 89 90 92
f 89 92 91
