v 0.02006 0.854657 0.251255
v 0.0370203 0.854574 0.251255
v 0.0763093 0.855259 0.245883
v -5.1438e-05 0.85447 0.251255
v 0.0539719 0.854428 0.251255
v 0.0717964 0.854116 0.251255
v 0.0891059 0.854615 0.245883
v 0.0891059 0.85474 0.233078
v -5.1438e-05 0.85422 0.245883
v -5.1438e-05 0.749751 0.251255
v 0.0872641 0.853264 0.251255
v 0.0891059 0.853618 0.249601
v 0.0891059 0.853929 0.228587
v 0.0891059 0.850584 0.218796
v -5.1438e-05 0.851955 0.240423
v 0.0831266 0.748982 0.251255
v -5.1438e-05 0.652888 0.224496
v 0.0891059 0.853015 0.251255
v 0.0891059 0.849835 0.217008
v -5.1438e-05 0.849648 0.234892
v 0.0891059 0.749169 0.251255
v 0.00848546 0.652888 0.224496
v -5.1438e-05 0.643931 0.221072
v 0.0891059 0.8457 0.211166
v 0.0891059 0.843352 0.208542
v -5.1438e-05 0.84198 0.226408
v 0.0196148 0.644202 0.220681
v 0.0423974 0.656172 0.221659
v 0.0525229 0.659227 0.220877
v 0.0857365 0.64416 0.20382
v 0.0891059 0.646571 0.202877
v 0.00848546 0.643931 0.221072
v -5.1438e-05 0.643183 0.211966
v 0.0891059 0.836743 0.201828
v 0.0891059 0.834831 0.199978
v -5.1438e-05 0.833501 0.218395
v 0.0763093 0.643848 0.204629
v 0.0309188 0.645261 0.21876
v 0.0891059 0.64389 0.198831
v 0.00848546 0.643183 0.211966
v -5.1438e-05 0.643412 0.20575
v 0.0593489 0.642975 0.195016
v 0.0891059 0.825479 0.193389
v 0.0891059 0.822882 0.191708
v -5.1438e-05 0.828015 0.215123
v 0.0763093 0.6431 0.195016
v 0.0891059 0.643557 0.194474
v -5.1438e-05 0.643661 0.199623
v 0.0891059 0.643412 0.178297
v 0.0891059 0.817208 0.188578
v -5.1438e-05 0.822445 0.211806
v -5.1438e-05 0.646467 0.195345
v 0.0332407 0.644347 0.18647
v 0.0847501 0.644389 0.169574
v 0.0891059 0.644202 0.169004
v 0.0891059 0.809727 0.18462
v -5.1438e-05 0.816045 0.208604
v -5.1438e-05 0.649251 0.191139
v -5.1438e-05 0.653512 0.188409
v -5.1438e-05 0.65773 0.185723
v 0.0891059 0.652888 0.165118
v 0.0891059 0.80634 0.183028
v -5.1438e-05 0.809561 0.205376
v -5.1438e-05 0.669846 0.184549
v 0.0891059 0.669846 0.161081
v 0.0891059 0.804947 0.182433
v -5.1438e-05 0.805363 0.203624
v 0.0891059 0.686804 0.160414
v -5.1438e-05 0.686804 0.183989
v 0.0891059 0.792894 0.177542
v -5.1438e-05 0.801082 0.201855
v 0.0891059 0.703762 0.160761
v -5.1438e-05 0.695345 0.18414
v -5.1438e-05 0.703762 0.184291
v 0.0891059 0.788613 0.175932
v -5.1438e-05 0.794847 0.199756
v -5.1438e-05 0.721135 0.185474
v 0.0891059 0.720719 0.161935
v 0.0891059 0.771572 0.171041
v -5.1438e-05 0.78853 0.197631
v -5.1438e-05 0.738571 0.187288
v 0.0891059 0.737677 0.163935
v -5.1438e-05 0.771572 0.193113
v -5.1438e-05 0.780092 0.195363
v 0.0891059 0.754593 0.166879
v -5.1438e-05 0.754614 0.18968
f 1 2 3
f 1 3 4
f 1 4 10
f 1 10 16
f 1 16 21
f 1 21 18
f 1 18 11
f 1 11 6
f 1 6 5
f 1 5 2
f 2 5 3
f 3 5 6
f 3 6 7
f 3 7 8
f 3 8 9
f 3 9 4
f 4 9 15
f 4 15 20
f 4 20 26
f 4 26 36
f 4 36 45
f 4 45 51
f 4 51 57
f 4 57 63
f 4 63 67
f 4 67 71
f 4 71 76
f 4 76 80
f 4 80 84
f 4 84 83
f 4 83 86
f 4 86 81
f 4 81 77
f 4 77 74
f 4 74 73
f 4 73 69
f 4 69 64
f 4 64 60
f 4 60 59
f 4 59 58
f 4 58 52
f 4 52 48
f 4 48 41
f 4 41 33
f 4 33 23
f 4 23 17
f 4 17 10
f 6 11 12
f 6 12 7
f 7 12 18
f 7 18 21
f 7 21 31
f 7 31 39
f 7 39 47
f 7 47 49
f 7 49 55
f 7 55 61
f 7 61 65
f 7 65 68
f 7 68 72
f 7 72 78
f 7 78 82
f 7 82 85
f 7 85 79
f 7 79 75
f 7 75 70
f 7 70 66
f 7 66 62
f 7 62 56
f 7 56 50
f 7 50 44
f 7 44 43
f 7 43 35
f 7 35 34
f 7 34 25
f 7 25 24
f 7 24 19
f 7 19 14
f 7 14 13
f 7 13 8
f 8 13 9
f 9 13 14
f 9 14 15
f 10 17 16
f 11 18 12
f 14 19 20
f 14 20 15
f 16 17 22
f 16 22 21
f 17 23 32
f 17 32 22
f 19 24 20
f 20 24 25
f 20 25 26
f 21 22 27
f 21 27 28
f 21 28 29
f 21 29 30
f 21 30 31
f 22 32 27
f 23 33 40
f 23 40 32
f 25 34 26
f 26 34 35
f 26 35 36
f 27 32 37
f 27 37 30
f 27 30 38
f 27 38 28
f 28 38 29
f 29 38 30
f 30 37 39
f 30 39 31
f 32 40 37
f 33 41 42
f 33 42 40
f 35 43 36
f 36 43 44
f 36 44 45
f 37 40 46
f 37 46 39
f 39 46 47
f 40 42 46
f 41 48 42
f 42 49 46
f 42 48 49
f 44 50 51
f 44 51 45
f 46 49 47
f 48 52 53
f 48 53 54
f 48 54 55
f 48 55 49
f 50 56 51
f 51 56 57
f 52 58 53
f 53 58 54
f 54 58 59
f 54 59 60
f 54 60 61
f 54 61 55
f 56 62 63
f 56 63 57
f 60 64 65
f 60 65 61
f 62 66 63
f 63 66 67
f 64 68 65
f 64 69 68
f 66 70 71
f 66 71 67
f 68 69 73
f 68 73 74
f 68 74 72
f 70 75 71
f 71 75 76
f 72 74 77
f 72 77 78
f 75 79 80
f 75 80 76
f 77 81 78
f 78 81 82
f 79 83 84
f 79 84 80
f 79 85 83
f 81 86 82
f 82 86 85
f 83 85 86
