v -0.291419 0.615765 -0.175096
v -0.290607 0.615765 -0.176226
v -0.232568 0.615765 -0.175096
v -0.291161 0.617642 -0.175096
v -0.285633 0.615765 -0.1831
v -0.289177 0.63181 -0.175096
v -0.171424 0.615765 -0.235526
v -0.159788 0.724727 -0.175096
v -0.283752 0.615765 -0.185561
v -0.287141 0.645955 -0.175096
v -0.285401 0.618955 -0.182786
v -0.244978 0.615765 -0.235526
v -0.170973 0.618955 -0.235526
v -0.159788 0.720105 -0.235526
v -0.159788 0.850085 -0.175096
v -0.27066 0.615765 -0.202634
v -0.285414 0.65752 -0.175096
v -0.284113 0.635915 -0.181118
v -0.24914 0.615765 -0.230627
v -0.24454 0.618955 -0.235526
v -0.159788 0.840819 -0.235526
v -0.159788 0.850882 -0.176516
v -0.161682 0.851094 -0.175096
v -0.254436 0.615765 -0.223759
v -0.253792 0.640654 -0.219701
v -0.254642 0.629347 -0.220825
v -0.255428 0.618955 -0.221842
v -0.283816 0.667795 -0.175096
v -0.282476 0.669155 -0.176575
v -0.282824 0.652875 -0.179432
v -0.248908 0.618955 -0.23032
v -0.238741 0.65874 -0.235526
v -0.239926 0.650717 -0.235526
v -0.161862 0.839552 -0.235526
v -0.159788 0.844737 -0.231012
v -0.159788 0.851445 -0.177687
v -0.162906 0.851563 -0.175096
v -0.274345 0.652875 -0.190483
v -0.267838 0.652875 -0.19896
v -0.252851 0.652875 -0.218482
v -0.248624 0.635376 -0.227456
v -0.275556 0.719097 -0.175096
v -0.276819 0.703755 -0.176746
v -0.26651 0.669835 -0.197233
v -0.251524 0.669835 -0.216755
v -0.277219 0.68771 -0.179592
v -0.271111 0.69395 -0.186265
v -0.256691 0.686795 -0.206526
v -0.250184 0.686795 -0.215004
v -0.243406 0.653954 -0.230497
v -0.238225 0.662024 -0.235526
v -0.17806 0.845042 -0.216838
v -0.168396 0.835307 -0.235526
v -0.169272 0.847716 -0.220174
v -0.159788 0.847575 -0.226403
v -0.159788 0.851633 -0.178279
v -0.181024 0.855269 -0.175096
v -0.243045 0.669835 -0.22774
v -0.275337 0.720434 -0.175096
v -0.254539 0.713326 -0.203728
v -0.262799 0.703755 -0.195014
v -0.241705 0.686795 -0.225995
v -0.255325 0.703755 -0.204752
v -0.248818 0.703755 -0.213223
v -0.240339 0.703755 -0.224226
v -0.238947 0.720715 -0.222428
v -0.237968 0.732257 -0.221168
v -0.236589 0.670985 -0.235526
v -0.176888 0.835846 -0.228415
v -0.194207 0.839154 -0.211348
v -0.187983 0.848584 -0.20461
v -0.172146 0.832726 -0.235526
v -0.189117 0.832937 -0.222428
v -0.159788 0.850718 -0.220121
v -0.159788 0.855199 -0.195014
v -0.161102 0.855386 -0.195014
v -0.195018 0.854354 -0.175096
v -0.253598 0.724633 -0.20251
v -0.259333 0.71966 -0.196121
v -0.272928 0.73425 -0.175096
v -0.248354 0.71966 -0.210413
v -0.267438 0.737652 -0.181473
v -0.258959 0.737652 -0.192524
v -0.236924 0.74354 -0.219819
v -0.23271 0.703755 -0.23271
v -0.234475 0.686795 -0.234479
v -0.235519 0.676568 -0.235526
v -0.199284 0.845393 -0.199285
v -0.206783 0.834087 -0.206781
v -0.17806 0.850038 -0.20836
v -0.204618 0.848584 -0.18798
v -0.194194 0.850202 -0.194186
v -0.20043 0.827589 -0.218086
v -0.180509 0.824516 -0.235526
v -0.181759 0.825712 -0.233733
v -0.159788 0.852079 -0.216027
v -0.159788 0.855363 -0.196339
v -0.17806 0.854143 -0.195014
v -0.195018 0.854143 -0.17806
v -0.198562 0.853768 -0.175096
v -0.272322 0.737652 -0.175096
v -0.229038 0.737886 -0.229048
v -0.230906 0.720715 -0.230905
v -0.270595 0.74605 -0.175096
v -0.268804 0.754236 -0.175096
v -0.250648 0.754612 -0.198652
v -0.235661 0.754612 -0.218175
v -0.225069 0.771572 -0.225061
v -0.227182 0.754612 -0.227178
v -0.221461 0.742531 -0.235526
v -0.223329 0.733805 -0.235526
v -0.211358 0.839154 -0.194198
v -0.211848 0.821936 -0.211845
v -0.218097 0.827589 -0.200421
v -0.22244 0.832937 -0.189116
v -0.208368 0.850038 -0.17806
v -0.216847 0.845042 -0.17806
v -0.217968 0.845933 -0.175096
v -0.188459 0.815884 -0.235526
v -0.205611 0.816282 -0.222073
v -0.159788 0.852642 -0.213265
v -0.209348 0.85046 -0.175096
v -0.267941 0.757802 -0.175096
v -0.255531 0.767748 -0.188069
v -0.233535 0.771572 -0.21543
v -0.21543 0.771572 -0.233538
v -0.218265 0.754823 -0.235526
v -0.220881 0.745111 -0.235526
v -0.222801 0.785576 -0.222795
v -0.228419 0.835846 -0.176882
v -0.217762 0.805468 -0.217749
v -0.222079 0.816282 -0.205604
v -0.23628 0.829184 -0.175096
v -0.237723 0.814406 -0.186957
v -0.24079 0.821021 -0.176882
v -0.233728 0.825712 -0.181751
v -0.231086 0.834673 -0.175096
v -0.229901 0.835729 -0.175096
v -0.219283 0.844854 -0.175096
v -0.195482 0.805468 -0.235526
v -0.198279 0.805468 -0.233384
v -0.209283 0.805468 -0.224907
v -0.220391 0.796883 -0.220387
v -0.264294 0.772252 -0.175096
v -0.260815 0.772674 -0.179556
v -0.240055 0.771572 -0.206946
v -0.254101 0.779055 -0.186206
v -0.238444 0.78255 -0.204858
v -0.212853 0.771572 -0.235526
v -0.218007 0.755644 -0.235526
v -0.207376 0.784872 -0.235526
v -0.229424 0.789728 -0.21262
v -0.212634 0.789728 -0.229432
v -0.224914 0.805468 -0.209265
v -0.241937 0.821326 -0.175096
v -0.250184 0.807626 -0.175096
v -0.201062 0.796202 -0.235526
v -0.202131 0.79442 -0.235526
v -0.20266 0.793505 -0.235526
v -0.236073 0.793857 -0.201764
v -0.252078 0.803662 -0.175096
v -0.258766 0.788532 -0.175096
v -0.258688 0.788508 -0.175226
v -0.23338 0.805468 -0.198268
v -0.254977 0.797305 -0.175096
v -0.258701 0.788696 -0.175096
f 1 2 5
f 1 5 9
f 1 9 16
f 1 16 24
f 1 24 19
f 1 19 12
f 1 12 7
f 1 7 3
f 1 3 8
f 1 8 15
f 1 15 23
f 1 23 37
f 1 37 57
f 1 57 77
f 1 77 100
f 1 100 122
f 1 122 118
f 1 118 139
f 1 139 138
f 1 138 137
f 1 137 133
f 1 133 155
f 1 155 156
f 1 156 161
f 1 161 165
f 1 165 166
f 1 166 162
f 1 162 144
f 1 144 123
f 1 123 105
f 1 105 104
f 1 104 101
f 1 101 80
f 1 80 59
f 1 59 42
f 1 42 28
f 1 28 17
f 1 17 10
f 1 10 6
f 1 6 4
f 1 4 2
f 2 4 6
f 2 6 5
f 3 7 8
f 5 6 10
f 5 10 11
f 5 11 9
f 7 12 20
f 7 20 33
f 7 33 32
f 7 32 51
f 7 51 68
f 7 68 87
f 7 87 111
f 7 111 110
f 7 110 128
f 7 128 127
f 7 127 150
f 7 150 149
f 7 149 151
f 7 151 159
f 7 159 158
f 7 158 157
f 7 157 140
f 7 140 119
f 7 119 94
f 7 94 72
f 7 72 53
f 7 53 34
f 7 34 21
f 7 21 14
f 7 14 13
f 7 13 8
f 8 13 14
f 8 14 21
f 8 21 35
f 8 35 55
f 8 55 74
f 8 74 96
f 8 96 121
f 8 121 97
f 8 97 75
f 8 75 56
f 8 56 36
f 8 36 22
f 8 22 15
f 9 11 16
f 10 17 11
f 11 17 18
f 11 18 16
f 12 19 20
f 15 22 23
f 16 18 25
f 16 25 26
f 16 26 27
f 16 27 24
f 17 28 29
f 17 29 30
f 17 30 18
f 18 30 25
f 19 24 31
f 19 31 32
f 19 32 33
f 19 33 20
f 21 34 35
f 22 36 23
f 23 36 37
f 24 27 26
f 24 26 31
f 25 30 38
f 25 38 39
f 25 39 40
f 25 40 41
f 25 41 26
f 26 41 31
f 28 42 43
f 28 43 29
f 29 44 45
f 29 45 40
f 29 40 39
f 29 39 38
f 29 38 30
f 29 43 46
f 29 46 47
f 29 47 48
f 29 48 49
f 29 49 44
f 31 41 50
f 31 50 32
f 32 50 51
f 34 52 35
f 34 53 52
f 35 52 54
f 35 54 55
f 36 56 37
f 37 56 57
f 40 45 58
f 40 58 50
f 40 50 41
f 42 59 43
f 43 59 60
f 43 60 61
f 43 61 47
f 43 47 46
f 44 49 45
f 45 49 62
f 45 62 58
f 47 61 63
f 47 63 64
f 47 64 49
f 47 49 48
f 49 64 65
f 49 65 62
f 50 58 51
f 51 58 62
f 51 62 65
f 51 65 66
f 51 66 67
f 51 67 68
f 52 53 69
f 52 69 70
f 52 70 71
f 52 71 54
f 53 72 73
f 53 73 69
f 54 71 74
f 54 74 55
f 56 75 57
f 57 75 76
f 57 76 77
f 59 78 79
f 59 79 60
f 59 80 78
f 60 79 81
f 60 81 66
f 60 66 64
f 60 64 63
f 60 63 61
f 64 66 65
f 66 81 78
f 66 78 67
f 67 80 82
f 67 82 83
f 67 83 84
f 67 84 85
f 67 85 86
f 67 86 87
f 67 87 68
f 67 78 80
f 69 73 70
f 70 88 71
f 70 73 89
f 70 89 88
f 71 90 74
f 71 88 91
f 71 91 92
f 71 92 90
f 72 93 73
f 72 94 95
f 72 95 93
f 73 93 89
f 74 90 96
f 75 97 76
f 76 97 98
f 76 98 99
f 76 99 77
f 77 99 100
f 78 81 79
f 80 101 82
f 82 101 84
f 82 84 83
f 84 102 103
f 84 103 85
f 84 101 104
f 84 104 105
f 84 105 106
f 84 106 107
f 84 107 108
f 84 108 109
f 84 109 102
f 85 103 110
f 85 110 111
f 85 111 86
f 86 111 87
f 88 89 112
f 88 112 91
f 89 93 113
f 89 113 114
f 89 114 115
f 89 115 112
f 90 92 98
f 90 98 96
f 91 116 92
f 91 112 117
f 91 117 118
f 91 118 116
f 92 116 99
f 92 99 98
f 93 95 119
f 93 119 120
f 93 120 113
f 94 119 95
f 96 98 121
f 97 121 98
f 99 116 122
f 99 122 100
f 102 109 110
f 102 110 103
f 105 123 106
f 106 123 124
f 106 124 107
f 107 124 125
f 107 125 108
f 108 126 127
f 108 127 128
f 108 128 109
f 108 125 129
f 108 129 126
f 109 128 110
f 112 115 130
f 112 130 117
f 113 120 131
f 113 131 132
f 113 132 114
f 114 133 115
f 114 132 134
f 114 134 135
f 114 135 136
f 114 136 133
f 115 133 137
f 115 137 130
f 116 118 122
f 117 130 138
f 117 138 139
f 117 139 118
f 119 140 141
f 119 141 142
f 119 142 120
f 120 142 143
f 120 143 131
f 123 144 145
f 123 145 124
f 124 146 125
f 124 145 147
f 124 147 146
f 125 146 147
f 125 147 148
f 125 148 129
f 126 149 150
f 126 150 127
f 126 129 151
f 126 151 149
f 129 148 152
f 129 152 143
f 129 143 153
f 129 153 151
f 130 137 138
f 131 143 132
f 132 143 154
f 132 154 134
f 133 136 155
f 134 154 156
f 134 156 155
f 134 155 135
f 135 155 136
f 140 157 141
f 141 157 143
f 141 143 142
f 143 157 158
f 143 158 159
f 143 159 153
f 143 152 160
f 143 160 161
f 143 161 154
f 144 162 163
f 144 163 147
f 144 147 145
f 147 163 148
f 148 163 160
f 148 160 152
f 151 153 159
f 154 161 164
f 154 164 156
f 156 164 161
f 160 163 165
f 160 165 161
f 162 166 163
f 163 166 165
