v 0.43616 -0.605981 0.246516
v 0.424904 -0.605981 0.24426
v 0.43616 -0.619931 0.244053
v 0.43616 -0.594714 0.24475
v 0.398548 -0.34172 0.207338
v 0.398548 -0.35528 0.209387
v 0.398548 -0.369229 0.211327
v 0.398548 -0.38313 0.21319
v 0.398548 -0.39708 0.21489
v 0.398548 -0.605981 0.237612
v 0.398548 -0.611346 0.237046
v 0.424904 -0.619931 0.241721
v 0.398548 -0.4062 0.215937
v 0.398548 -0.41098 0.216482
v 0.398548 -0.675631 0.220666
v 0.43616 -0.621638 0.243345
v 0.43616 -0.59208 0.244336
v 0.398548 -0.331429 0.205649
v 0.398548 -0.619931 0.235411
v 0.398548 -0.622613 0.234888
v 0.398548 -0.678168 0.219435
v 0.43616 -0.630173 0.239203
v 0.43616 -0.58135 0.239509
v 0.40301 -0.24383 0.177511
v 0.398548 -0.24383 0.187864
v 0.398548 -0.244415 0.188027
v 0.398548 -0.271534 0.194174
v 0.398548 -0.28563 0.197236
v 0.398548 -0.29953 0.200048
v 0.398548 -0.309919 0.201998
v 0.398548 -0.31348 0.202641
v 0.398548 -0.326991 0.204919
v 0.398548 -0.687435 0.213474
v 0.43616 -0.631637 0.237787
v 0.43616 -0.574424 0.23297
v 0.421645 -0.31348 0.135184
v 0.420651 -0.302896 0.135184
v 0.420335 -0.29953 0.135184
v 0.418983 -0.285776 0.135184
v 0.41881 -0.28402 0.135184
v 0.418177 -0.277826 0.135184
v 0.417533 -0.27168 0.135184
v 0.417046 -0.267193 0.135184
v 0.415901 -0.256755 0.135184
v 0.414432 -0.24383 0.135184
v 0.404347 -0.235538 0.168433
v 0.4016 -0.230466 0.173501
v 0.398548 -0.229636 0.180399
v 0.398548 -0.6908 0.209125
v 0.43616 -0.638611 0.230812
v 0.43616 -0.569205 0.226006
v 0.42514 -0.35528 0.135184
v 0.424271 -0.344159 0.135184
v 0.424046 -0.34133 0.135184
v 0.422861 -0.327381 0.135184
v 0.412344 -0.232709 0.135184
v 0.411811 -0.22988 0.135184
v 0.405385 -0.230466 0.15966
v 0.403132 -0.226222 0.163932
v 0.398548 -0.223686 0.174252
v 0.398548 -0.694117 0.204461
v 0.43616 -0.642367 0.225505
v 0.43616 -0.564669 0.215937
v 0.427997 -0.39708 0.135184
v 0.427297 -0.385959 0.135184
v 0.427117 -0.38313 0.135184
v 0.426149 -0.369229 0.135184
v 0.425346 -0.358109 0.135184
v 0.406589 -0.216565 0.135184
v 0.405507 -0.220028 0.146289
v 0.404384 -0.222174 0.154636
v 0.398548 -0.216272 0.163998
v 0.398548 -0.697531 0.198173
v 0.403415 -0.696019 0.193967
v 0.43616 -0.646123 0.216144
v 0.405488 -0.697726 0.184682
v 0.41409 -0.691288 0.174143
v 0.43616 -0.561743 0.201846
v 0.429577 -0.42493 0.135184
v 0.429091 -0.415858 0.135184
v 0.428881 -0.412005 0.135184
v 0.428166 -0.399909 0.135184
v 0.403817 -0.211492 0.135184
v 0.403073 -0.210517 0.136012
v 0.401652 -0.213053 0.146289
v 0.400098 -0.216906 0.15966
v 0.398548 -0.209005 0.146289
v 0.398548 -0.699921 0.188572
v 0.43616 -0.647049 0.213256
v 0.41599 -0.694312 0.160216
v 0.417312 -0.695922 0.151269
v 0.426049 -0.689093 0.135184
v 0.407123 -0.698799 0.174143
v 0.418593 -0.697092 0.141973
v 0.43616 -0.563157 0.188082
v 0.430295 -0.439952 0.135184
v 0.429687 -0.427222 0.135184
v 0.403187 -0.21037 0.135184
v 0.401954 -0.209054 0.135184
v 0.398548 -0.205493 0.135184
v 0.398548 -0.702067 0.174143
v 0.43616 -0.648903 0.201998
v 0.430435 -0.677192 0.135184
v 0.430991 -0.675631 0.135184
v 0.424363 -0.691434 0.135184
v 0.409023 -0.699677 0.160216
v 0.419433 -0.697726 0.135184
v 0.43616 -0.567254 0.174481
v 0.430876 -0.45278 0.135184
v 0.398548 -0.703774 0.135184
v 0.398548 -0.703043 0.160216
v 0.411181 -0.701433 0.135184
v 0.43616 -0.649293 0.199492
v 0.431064 -0.674461 0.135184
v 0.43616 -0.622857 0.152315
v 0.43616 -0.632612 0.161535
v 0.43616 -0.637246 0.166352
v 0.43616 -0.643879 0.176072
v 0.43616 -0.646854 0.184289
v 0.43616 -0.647488 0.188136
v 0.43616 -0.571449 0.167169
v 0.431418 -0.466681 0.135184
v 0.398548 -0.703628 0.14631
v 0.431856 -0.661731 0.135184
v 0.43616 -0.619589 0.150615
v 0.43616 -0.578765 0.156936
v 0.431757 -0.476875 0.135184
v 0.43616 -0.584179 0.149907
v 0.434408 -0.605981 0.135184
v 0.43616 -0.605981 0.145994
v 0.431878 -0.480631 0.135184
v 0.43616 -0.594422 0.147858
v 0.432478 -0.502091 0.135184
v 0.432298 -0.494531 0.135184
v 0.434507 -0.594909 0.135184
v 0.43616 -0.605689 0.145973
v 0.434242 -0.58096 0.135184
v 0.432629 -0.508481 0.135184
f 1 2 3
f 1 3 16
f 1 16 22
f 1 22 34
f 1 34 50
f 1 50 62
f 1 62 75
f 1 75 89
f 1 89 102
f 1 102 113
f 1 113 120
f 1 120 119
f 1 119 118
f 1 118 117
f 1 117 116
f 1 116 115
f 1 115 125
f 1 125 130
f 1 130 136
f 1 136 132
f 1 132 128
f 1 128 126
f 1 126 121
f 1 121 108
f 1 108 95
f 1 95 78
f 1 78 63
f 1 63 51
f 1 51 35
f 1 35 23
f 1 23 17
f 1 17 4
f 1 4 5
f 1 5 6
f 1 6 7
f 1 7 8
f 1 8 9
f 1 9 2
f 2 10 11
f 2 11 12
f 2 12 3
f 2 9 13
f 2 13 14
f 2 14 10
f 3 12 15
f 3 15 16
f 4 17 5
f 5 18 32
f 5 32 31
f 5 31 30
f 5 30 29
f 5 29 28
f 5 28 27
f 5 27 26
f 5 26 25
f 5 25 48
f 5 48 60
f 5 60 72
f 5 72 87
f 5 87 100
f 5 100 110
f 5 110 123
f 5 123 111
f 5 111 101
f 5 101 88
f 5 88 73
f 5 73 61
f 5 61 49
f 5 49 33
f 5 33 21
f 5 21 15
f 5 15 20
f 5 20 19
f 5 19 11
f 5 11 10
f 5 10 14
f 5 14 13
f 5 13 9
f 5 9 8
f 5 8 7
f 5 7 6
f 5 17 18
f 11 19 12
f 12 19 20
f 12 20 15
f 15 21 22
f 15 22 16
f 17 23 24
f 17 24 25
f 17 25 26
f 17 26 27
f 17 27 28
f 17 28 29
f 17 29 30
f 17 30 31
f 17 31 32
f 17 32 18
f 21 33 22
f 22 33 34
f 23 35 36
f 23 36 37
f 23 37 38
f 23 38 39
f 23 39 40
f 23 40 41
f 23 41 42
f 23 42 43
f 23 43 44
f 23 44 45
f 23 45 46
f 23 46 24
f 24 46 47
f 24 47 48
f 24 48 25
f 33 49 50
f 33 50 34
f 35 51 52
f 35 52 53
f 35 53 54
f 35 54 55
f 35 55 36
f 36 55 54
f 36 54 53
f 36 53 52
f 36 52 68
f 36 68 67
f 36 67 66
f 36 66 65
f 36 65 64
f 36 64 82
f 36 82 81
f 36 81 80
f 36 80 79
f 36 79 97
f 36 97 96
f 36 96 109
f 36 109 122
f 36 122 127
f 36 127 131
f 36 131 134
f 36 134 133
f 36 133 138
f 36 138 137
f 36 137 135
f 36 135 129
f 36 129 124
f 36 124 114
f 36 114 104
f 36 104 103
f 36 103 92
f 36 92 105
f 36 105 107
f 36 107 112
f 36 112 110
f 36 110 100
f 36 100 99
f 36 99 98
f 36 98 83
f 36 83 69
f 36 69 57
f 36 57 56
f 36 56 45
f 36 45 44
f 36 44 43
f 36 43 42
f 36 42 41
f 36 41 40
f 36 40 39
f 36 39 38
f 36 38 37
f 45 56 46
f 46 56 57
f 46 57 58
f 46 58 59
f 46 59 47
f 47 59 60
f 47 60 48
f 49 61 50
f 50 61 62
f 51 63 64
f 51 64 65
f 51 65 66
f 51 66 67
f 51 67 68
f 51 68 52
f 57 69 70
f 57 70 71
f 57 71 59
f 57 59 58
f 59 71 60
f 60 71 72
f 61 73 74
f 61 74 62
f 62 74 76
f 62 76 77
f 62 77 75
f 63 78 79
f 63 79 80
f 63 80 81
f 63 81 82
f 63 82 64
f 69 83 84
f 69 84 70
f 70 84 85
f 70 85 86
f 70 86 71
f 71 86 72
f 72 86 85
f 72 85 84
f 72 84 87
f 73 76 74
f 73 88 76
f 75 77 90
f 75 90 91
f 75 91 92
f 75 92 89
f 76 88 93
f 76 93 94
f 76 94 91
f 76 91 90
f 76 90 77
f 78 95 96
f 78 96 97
f 78 97 79
f 83 98 84
f 84 98 87
f 87 98 99
f 87 99 100
f 88 101 93
f 89 92 103
f 89 103 104
f 89 104 102
f 91 94 105
f 91 105 92
f 93 101 106
f 93 106 107
f 93 107 94
f 94 107 105
f 95 108 109
f 95 109 96
f 101 111 112
f 101 112 106
f 102 104 113
f 104 114 115
f 104 115 116
f 104 116 117
f 104 117 118
f 104 118 119
f 104 119 120
f 104 120 113
f 106 112 107
f 108 121 122
f 108 122 109
f 110 112 123
f 111 123 112
f 114 124 115
f 115 124 125
f 121 126 122
f 122 126 128
f 122 128 127
f 124 129 130
f 124 130 125
f 127 128 131
f 128 132 133
f 128 133 134
f 128 134 131
f 129 135 136
f 129 136 130
f 132 136 137
f 132 137 138
f 132 138 133
f 135 137 136
