v 0.50163 -0.610526 0.278682
v 0.501368 -0.610526 0.278682
v 0.50163 -0.613168 0.278682
v 0.506579 -0.605952 0.273005
v 0.514532 -0.592086 0.263664
v 0.507571 -0.592086 0.269679
v 0.505382 -0.583333 0.266782
v 0.490777 -0.542721 0.251465
v 0.501368 -0.613168 0.278682
v 0.485294 -0.542721 0.251465
v 0.495857 -0.605952 0.275837
v 0.436173 -0.606018 0.246515
v 0.506224 -0.618662 0.271823
v 0.51428 -0.619937 0.26317
v 0.514719 -0.606018 0.263417
v 0.490889 -0.669959 0.251685
v 0.505139 -0.62936 0.267301
v 0.518902 -0.592086 0.2567
v 0.529652 -0.584713 0.23733
v 0.517798 -0.58144 0.254803
v 0.500058 -0.545441 0.249607
v 0.503286 -0.54251 0.240318
v 0.495071 -0.541985 0.244488
v 0.436173 -0.619937 0.244059
v 0.485079 -0.669959 0.251685
v 0.480653 -0.541985 0.244007
v 0.472298 -0.54251 0.239512
v 0.475591 -0.550291 0.249178
v 0.436173 -0.592086 0.244345
v 0.483638 -0.594965 0.266964
v 0.517049 -0.633868 0.253491
v 0.529484 -0.627086 0.236992
v 0.518612 -0.619937 0.256207
v 0.495146 -0.671944 0.244813
v 0.504315 -0.671155 0.24085
v 0.515524 -0.6409 0.250854
v 0.529755 -0.606018 0.23746
v 0.525863 -0.592086 0.24454
v 0.529802 -0.592086 0.237577
v 0.531738 -0.606018 0.22986
v 0.530485 -0.592021 0.230704
v 0.529652 -0.584713 0.235914
v 0.509096 -0.550291 0.22986
v 0.504081 -0.542103 0.22986
v 0.494557 -0.540868 0.22986
v 0.480634 -0.540868 0.22986
v 0.436173 -0.621645 0.243345
v 0.471447 -0.670971 0.240227
v 0.480522 -0.671839 0.244436
v 0.436173 -0.630201 0.239201
v 0.471662 -0.542103 0.22986
v 0.436173 -0.561778 0.201863
v 0.436173 -0.564722 0.215932
v 0.436173 -0.569217 0.226001
v 0.436173 -0.574435 0.232965
v 0.436173 -0.581401 0.239499
v 0.529484 -0.627086 0.23616
v 0.530391 -0.620528 0.230847
v 0.529605 -0.619937 0.2372
v 0.525573 -0.619937 0.244176
v 0.505606 -0.672364 0.22986
v 0.494557 -0.675124 0.22986
v 0.530775 -0.61627 0.221454
v 0.531383 -0.606018 0.22083
v 0.530662 -0.596621 0.221584
v 0.503174 -0.54251 0.220441
v 0.49363 -0.542248 0.215855
v 0.481701 -0.542248 0.216127
v 0.472373 -0.54251 0.220908
v 0.436173 -0.638639 0.230808
v 0.436173 -0.642411 0.225507
v 0.436173 -0.646144 0.21614
v 0.436173 -0.647051 0.213256
v 0.470511 -0.67197 0.22986
v 0.480634 -0.674743 0.22986
v 0.436173 -0.631634 0.237784
v 0.436173 -0.563198 0.188078
v 0.528052 -0.625562 0.226871
v 0.504184 -0.671129 0.219557
v 0.481701 -0.671326 0.215725
v 0.493621 -0.671536 0.215322
v 0.460341 -0.614009 0.166811
v 0.436173 -0.606018 0.145998
v 0.436173 -0.605716 0.145973
v 0.436173 -0.594452 0.147856
v 0.436173 -0.584187 0.149909
v 0.497887 -0.550291 0.210931
v 0.505167 -0.550291 0.217881
v 0.488372 -0.543168 0.208813
v 0.487043 -0.543168 0.208813
v 0.436173 -0.567272 0.174476
v 0.436173 -0.648917 0.202005
v 0.47169 -0.670787 0.22022
v 0.436173 -0.649298 0.199498
v 0.436173 -0.647524 0.188143
v 0.436173 -0.646854 0.184298
v 0.488353 -0.668987 0.208787
v 0.436173 -0.622867 0.152312
v 0.436173 -0.619582 0.150624
v 0.487034 -0.668987 0.208787
v 0.436173 -0.643896 0.176074
v 0.436173 -0.578785 0.156937
v 0.436173 -0.571491 0.167162
v 0.436173 -0.637246 0.166356
v 0.436173 -0.63262 0.161536
v 0.436173 -0.639178 0.169163
f 1 2 9
f 1 9 3
f 1 3 4
f 1 4 5
f 1 5 6
f 1 6 7
f 1 7 8
f 1 8 10
f 1 10 2
f 2 10 11
f 2 11 12
f 2 12 9
f 3 13 14
f 3 14 15
f 3 15 4
f 3 9 25
f 3 25 16
f 3 16 17
f 3 17 13
f 4 15 5
f 5 15 18
f 5 18 19
f 5 19 20
f 5 20 7
f 5 7 6
f 7 20 21
f 7 21 8
f 8 21 22
f 8 22 23
f 8 23 10
f 9 24 25
f 9 12 24
f 10 23 26
f 10 26 27
f 10 27 28
f 10 28 29
f 10 29 30
f 10 30 11
f 11 30 29
f 11 29 12
f 12 29 56
f 12 56 55
f 12 55 54
f 12 54 53
f 12 53 52
f 12 52 77
f 12 77 91
f 12 91 103
f 12 103 102
f 12 102 86
f 12 86 85
f 12 85 84
f 12 84 83
f 12 83 99
f 12 99 98
f 12 98 105
f 12 105 104
f 12 104 106
f 12 106 101
f 12 101 96
f 12 96 95
f 12 95 94
f 12 94 92
f 12 92 73
f 12 73 72
f 12 72 71
f 12 71 70
f 12 70 76
f 12 76 50
f 12 50 47
f 12 47 24
f 13 17 31
f 13 31 14
f 14 31 32
f 14 32 33
f 14 33 15
f 15 33 18
f 16 25 34
f 16 34 35
f 16 35 17
f 17 35 36
f 17 36 31
f 18 37 38
f 18 38 19
f 18 33 37
f 19 38 39
f 19 39 40
f 19 40 41
f 19 41 42
f 19 42 43
f 19 43 44
f 19 44 22
f 19 22 21
f 19 21 20
f 22 44 45
f 22 45 23
f 23 45 46
f 23 46 26
f 24 47 25
f 25 48 49
f 25 49 34
f 25 47 50
f 25 50 48
f 26 46 27
f 27 46 51
f 27 51 52
f 27 52 53
f 27 53 54
f 27 54 55
f 27 55 56
f 27 56 28
f 28 56 29
f 31 36 32
f 32 57 58
f 32 58 40
f 32 40 59
f 32 59 60
f 32 60 33
f 32 36 35
f 32 35 61
f 32 61 57
f 33 60 37
f 34 49 62
f 34 62 35
f 35 62 61
f 37 40 39
f 37 39 38
f 37 60 59
f 37 59 40
f 40 58 63
f 40 63 64
f 40 64 65
f 40 65 41
f 41 65 42
f 42 65 66
f 42 66 43
f 43 66 44
f 44 66 45
f 45 66 67
f 45 67 46
f 46 67 68
f 46 68 69
f 46 69 51
f 48 70 71
f 48 71 72
f 48 72 73
f 48 73 74
f 48 74 75
f 48 75 49
f 48 50 76
f 48 76 70
f 49 75 62
f 51 69 52
f 52 69 77
f 57 78 63
f 57 63 58
f 57 61 79
f 57 79 78
f 61 62 79
f 62 75 80
f 62 80 81
f 62 81 79
f 63 78 79
f 63 79 82
f 63 82 83
f 63 83 64
f 64 84 65
f 64 83 84
f 65 84 85
f 65 85 86
f 65 86 87
f 65 87 88
f 65 88 66
f 66 89 67
f 66 88 87
f 66 87 89
f 67 89 90
f 67 90 68
f 68 90 69
f 69 90 91
f 69 91 77
f 73 92 74
f 74 93 75
f 74 92 94
f 74 94 95
f 74 95 96
f 74 96 93
f 75 93 80
f 79 81 97
f 79 97 98
f 79 98 99
f 79 99 82
f 80 100 81
f 80 93 101
f 80 101 100
f 81 100 97
f 82 99 83
f 86 102 89
f 86 89 87
f 89 103 90
f 89 102 103
f 90 103 91
f 93 96 101
f 97 100 104
f 97 104 105
f 97 105 98
f 100 101 106
f 100 106 104
