v 0.398548 -0.205522 0.135184
v 0.40195 -0.20905 0.135184
v 0.398548 -0.204564 0.13268
v 0.398548 -0.703728 0.135184
v 0.40319 -0.21036 0.135184
v 0.398548 -0.203657 0.130247
v 0.398548 -0.70393 0.132328
v 0.410977 -0.702922 0.118399
v 0.410977 -0.701813 0.132328
v 0.411182 -0.70141 0.135184
v 0.417373 -0.209906 0.0815506
v 0.404371 -0.208546 0.126686
v 0.40382 -0.211469 0.135184
v 0.398548 -0.203203 0.128696
v 0.410977 -0.703678 0.104471
v 0.398548 -0.704081 0.118399
v 0.410977 -0.704131 0.0905424
v 0.424908 -0.702972 0.0626856
v 0.424908 -0.702166 0.076614
v 0.423553 -0.699847 0.104471
v 0.421579 -0.699091 0.118399
v 0.419788 -0.697982 0.132328
v 0.419436 -0.69773 0.135184
v 0.419972 -0.219029 0.0905424
v 0.421484 -0.215098 0.0767903
v 0.418643 -0.208142 0.0722768
v 0.405447 -0.207286 0.118399
v 0.406587 -0.216559 0.135184
v 0.398548 -0.200179 0.117518
v 0.40727 -0.20527 0.104471
v 0.398548 -0.704232 0.076614
v 0.410977 -0.704232 0.076614
v 0.424908 -0.703174 0.0487572
v 0.435825 -0.699343 0.0487572
v 0.435457 -0.699142 0.0626856
v 0.434213 -0.698335 0.076614
v 0.432847 -0.697378 0.0875804
v 0.431666 -0.69637 0.0968542
v 0.430516 -0.695009 0.104471
v 0.424367 -0.69143 0.135184
v 0.41867 -0.221498 0.100204
v 0.427565 -0.229915 0.076614
v 0.424829 -0.215954 0.0626856
v 0.41951 -0.207084 0.0626856
v 0.412594 -0.200078 0.0626856
v 0.411024 -0.201792 0.0769313
v 0.41742 -0.224875 0.109513
v 0.411812 -0.229915 0.135184
v 0.400228 -0.198314 0.104471
v 0.398548 -0.197004 0.104471
v 0.402134 -0.19655 0.0905424
v 0.398548 -0.704232 -0.0890458
v 0.410977 -0.704232 -0.0765984
v 0.424908 -0.703224 -0.0069917
v 0.435856 -0.699394 -0.0069917
v 0.44284 -0.692842 -0.0348485
v 0.442809 -0.692791 0.0208651
v 0.442793 -0.692741 0.0487572
v 0.44242 -0.692186 0.0626856
v 0.441785 -0.689011 0.0768608
v 0.446526 -0.683971 0.0723473
v 0.433362 -0.685282 0.118399
v 0.428542 -0.692237 0.118399
v 0.426047 -0.689062 0.135184
v 0.419956 -0.229663 0.104718
v 0.418633 -0.234149 0.113991
v 0.431666 -0.238635 0.0681159
v 0.430432 -0.230318 0.063144
v 0.430705 -0.227446 0.0487572
v 0.425827 -0.215954 0.0487572
v 0.420035 -0.206429 0.0487572
v 0.413219 -0.199423 0.0487572
v 0.405626 -0.193879 0.0626856
v 0.404676 -0.194585 0.0722768
v 0.403415 -0.195492 0.0815859
v 0.412347 -0.232738 0.135184
v 0.398548 -0.194181 0.0905424
v 0.398548 -0.704081 -0.130831
v 0.410977 -0.704131 -0.0905268
v 0.424908 -0.703224 -0.0487416
v 0.435882 -0.699394 -0.0487416
v 0.435867 -0.699394 -0.0209201
v 0.442845 -0.692842 -0.0487416
v 0.447545 -0.685886 -0.0487416
v 0.447519 -0.685836 0.0069367
v 0.447493 -0.685786 0.0487572
v 0.447188 -0.685231 0.0626856
v 0.432249 -0.683316 0.126791
v 0.44922 -0.675655 0.0626856
v 0.447214 -0.675655 0.0749214
v 0.430432 -0.677218 0.135184
v 0.414432 -0.243826 0.135184
v 0.417509 -0.243826 0.123759
v 0.430327 -0.243473 0.075944
v 0.432264 -0.235207 0.0588068
v 0.432201 -0.247908 0.0708663
v 0.435998 -0.271697 0.0626856
v 0.434496 -0.257736 0.0626856
v 0.432853 -0.243473 0.063144
v 0.432464 -0.234401 0.0487572
v 0.432475 -0.23435 0.0347935
v 0.43071 -0.227395 0.0347935
v 0.430731 -0.227294 -0.0069917
v 0.430747 -0.227244 -0.0348485
v 0.42589 -0.215954 -0.0069917
v 0.420045 -0.206378 0.0347935
v 0.413256 -0.199373 -0.0209201
v 0.406267 -0.193425 0.0208651
v 0.406251 -0.193476 0.0487572
v 0.398548 -0.189998 0.0603935
v 0.398548 -0.190149 0.0626856
v 0.398548 -0.191863 0.0764729
v 0.398548 -0.703829 -0.144759
v 0.410977 -0.703678 -0.104455
v 0.424908 -0.702972 -0.06267
v 0.435457 -0.699142 -0.06267
v 0.44242 -0.692186 -0.06267
v 0.447188 -0.685181 -0.06267
v 0.449929 -0.675655 -0.0487416
v 0.449824 -0.675655 0.0487572
v 0.432753 -0.675655 0.12866
v 0.430989 -0.675655 0.135184
v 0.450076 -0.661694 0.0626856
v 0.447309 -0.661341 0.0777776
v 0.445707 -0.665726 0.0832079
v 0.415902 -0.256779 0.135184
v 0.417919 -0.250983 0.125275
v 0.43384 -0.243826 0.0487572
v 0.430883 -0.257736 0.0798933
v 0.432758 -0.257736 0.0729115
v 0.436092 -0.299568 0.076614
v 0.438755 -0.299568 0.0626856
v 0.437405 -0.285608 0.0626856
v 0.436838 -0.271697 0.0487572
v 0.435363 -0.257736 0.0487572
v 0.432511 -0.234199 -0.0348485
v 0.433856 -0.243826 0.0347935
v 0.433945 -0.243826 -0.0487416
v 0.430757 -0.227244 -0.0487416
v 0.425932 -0.215954 -0.0487416
v 0.420087 -0.206328 -0.0487416
v 0.413271 -0.199373 -0.0487416
v 0.406298 -0.193425 -0.0348485
v 0.398548 -0.189393 0.0464651
v 0.398548 -0.189444 0.0487572
v 0.398548 -0.703174 -0.158829
v 0.410977 -0.702922 -0.118384
v 0.424908 -0.702115 -0.0765984
v 0.43416 -0.698285 -0.0765984
v 0.441722 -0.688961 -0.0767747
v 0.446484 -0.68387 -0.072226
v 0.432816 -0.697327 -0.0874943
v 0.43164 -0.696319 -0.0967682
v 0.449215 -0.675655 -0.06267
v 0.450071 -0.661694 -0.06267
v 0.450774 -0.661694 -0.0487416
v 0.450732 -0.661694 -0.0069917
v 0.450669 -0.661694 0.0487572
v 0.431855 -0.661694 0.135184
v 0.450501 -0.647784 0.0626856
v 0.448049 -0.647784 0.076614
v 0.434407 -0.606002 0.135184
v 0.420024 -0.256476 0.119739
v 0.417047 -0.267211 0.135184
v 0.418439 -0.260307 0.127215
v 0.435441 -0.257736 -0.0209201
v 0.431472 -0.268471 0.0820795
v 0.424272 -0.257736 0.104471
v 0.433246 -0.272554 0.0771076
v 0.434722 -0.285608 0.076614
v 0.431172 -0.299568 0.0949148
v 0.431634 -0.309195 0.0966074
v 0.437405 -0.313479 0.076614
v 0.439542 -0.299568 0.0487572
v 0.438219 -0.285608 0.0487572
v 0.440041 -0.313479 0.0626856
v 0.438314 -0.285608 -0.0348485
v 0.436854 -0.271697 0.0347935
v 0.432517 -0.234199 -0.0487416
v 0.435468 -0.257736 -0.0487416
v 0.432307 -0.235056 -0.0587207
v 0.430406 -0.230218 -0.0630932
v 0.424829 -0.215954 -0.06267
v 0.419515 -0.207034 -0.06267
v 0.412599 -0.200078 -0.06267
v 0.405631 -0.193879 -0.06267
v 0.406303 -0.193425 -0.0487416
v 0.398548 -0.189393 -0.0487416
v 0.398548 -0.702266 -0.172369
v 0.410977 -0.701813 -0.132347
v 0.423527 -0.699847 -0.104455
v 0.421573 -0.699091 -0.118384
v 0.40718 -0.698839 -0.174132
v 0.419799 -0.697982 -0.132347
v 0.435189 -0.688054 -0.104455
v 0.433351 -0.685231 -0.118384
v 0.418964 -0.684425 -0.174132
v 0.432249 -0.683316 -0.126776
v 0.447146 -0.675655 -0.0746943
v 0.418607 -0.697126 -0.142009
v 0.417336 -0.695966 -0.151318
v 0.430484 -0.695009 -0.104455
v 0.447235 -0.660686 -0.0777268
v 0.447928 -0.647784 -0.0765984
v 0.450496 -0.647784 -0.06267
v 0.451194 -0.647784 -0.0487416
v 0.451089 -0.647784 0.0487572
v 0.450837 -0.633873 0.0626856
v 0.44839 -0.633873 0.076614
v 0.448994 -0.592041 0.076614
v 0.434507 -0.594914 0.135184
v 0.448648 -0.619912 0.076614
v 0.448868 -0.606002 0.076614
v 0.417362 -0.270084 0.135184
v 0.436943 -0.271697 -0.0487416
v 0.43197 -0.277745 0.0839484
v 0.419126 -0.28717 0.135184
v 0.420339 -0.299568 0.135184
v 0.420654 -0.302895 0.135184
v 0.421647 -0.313479 0.135184
v 0.432049 -0.318469 0.0981589
v 0.438618 -0.327389 0.076614
v 0.439621 -0.299568 -0.0209201
v 0.440808 -0.313479 0.0487572
v 0.441233 -0.327389 0.0626856
v 0.439647 -0.299568 -0.0487416
v 0.438324 -0.285608 -0.0487416
v 0.434496 -0.257736 -0.06267
v 0.435993 -0.271697 -0.06267
v 0.431624 -0.238987 -0.0679946
v 0.432879 -0.243725 -0.0630932
v 0.42746 -0.229915 -0.0765984
v 0.421421 -0.215148 -0.0767042
v 0.418607 -0.208193 -0.0721555
v 0.403389 -0.195492 -0.0814646
v 0.404644 -0.194585 -0.0721907
v 0.398548 -0.190351 -0.0645389
v 0.398548 -0.190149 -0.06267
v 0.398548 -0.189494 -0.0511747
v 0.398548 -0.702115 -0.174132
v 0.409071 -0.699696 -0.160204
v 0.405531 -0.69773 -0.184605
v 0.398548 -0.700049 -0.18799
v 0.420801 -0.687398 -0.160204
v 0.418013 -0.682762 -0.181291
v 0.416034 -0.694354 -0.160204
v 0.414143 -0.69143 -0.174132
v 0.432753 -0.675655 -0.12868
v 0.44567 -0.664668 -0.0830866
v 0.425202 -0.661694 -0.160204
v 0.445823 -0.655344 -0.0836508
v 0.445938 -0.647784 -0.0840739
v 0.44827 -0.633873 -0.0765984
v 0.450832 -0.633873 -0.06267
v 0.45152 -0.633873 -0.0487416
v 0.45151 -0.633873 -0.0348485
v 0.451415 -0.633873 0.0487572
v 0.451089 -0.619912 0.0626856
v 0.451431 -0.592041 0.0626856
v 0.449073 -0.578131 0.076614
v 0.449078 -0.56422 0.076614
v 0.448994 -0.550259 0.076614
v 0.448879 -0.536349 0.076614
v 0.448674 -0.522388 0.076614
v 0.434239 -0.580953 0.135184
v 0.451305 -0.606002 0.0626856
v 0.417535 -0.271697 0.135184
v 0.437405 -0.285608 -0.06267
v 0.418181 -0.277846 0.135184
v 0.418817 -0.284045 0.135184
v 0.421878 -0.3161 0.135184
v 0.422865 -0.327389 0.135184
v 0.434874 -0.327389 0.0905424
v 0.439805 -0.34135 0.076614
v 0.440855 -0.313479 0.0069367
v 0.440913 -0.313479 -0.0487416
v 0.441984 -0.327389 0.0487572
v 0.442399 -0.34135 0.0626856
v 0.43875 -0.299568 -0.06267
v 0.440036 -0.313479 -0.06267
v 0.432159 -0.248261 -0.0707097
v 0.404381 -0.235409 -0.168561
v 0.418622 -0.234199 -0.113976
v 0.430264 -0.243725 -0.0758579
v 0.417409 -0.224875 -0.109462
v 0.418649 -0.221498 -0.100153
v 0.419935 -0.219079 -0.0905268
v 0.417346 -0.209957 -0.0814293
v 0.404376 -0.208546 -0.126741
v 0.405447 -0.207286 -0.118384
v 0.407254 -0.20532 -0.104455
v 0.402103 -0.19655 -0.0905268
v 0.398548 -0.197508 -0.107135
v 0.398548 -0.195139 -0.0961334
v 0.398548 -0.193476 -0.0867891
v 0.398548 -0.192014 -0.0771626
v 0.403368 -0.695966 -0.193914
v 0.410825 -0.689364 -0.187602
v 0.398548 -0.699948 -0.188484
v 0.415582 -0.675655 -0.189225
v 0.418365 -0.675655 -0.182243
v 0.420623 -0.675655 -0.174132
v 0.406261 -0.685886 -0.201989
v 0.404187 -0.682913 -0.209253
v 0.421484 -0.661694 -0.174132
v 0.42192 -0.647784 -0.174132
v 0.444079 -0.647784 -0.0910558
v 0.444247 -0.633873 -0.0916905
v 0.448532 -0.619912 -0.0765984
v 0.451084 -0.619912 -0.06267
v 0.451772 -0.619912 -0.0487416
v 0.451699 -0.619912 0.0208651
v 0.451667 -0.619912 0.0487572
v 0.452003 -0.592041 0.0487572
v 0.45151 -0.578131 0.0626856
v 0.451515 -0.56422 0.0626856
v 0.451431 -0.550259 0.0626856
v 0.451321 -0.536349 0.0626856
v 0.451116 -0.522388 0.0626856
v 0.450837 -0.508477 0.0626856
v 0.44839 -0.508477 0.076614
v 0.433567 -0.508477 0.131693
v 0.432627 -0.508477 0.135184
v 0.451877 -0.606002 0.0487572
v 0.435982 -0.299568 -0.0765984
v 0.432695 -0.257736 -0.0727196
v 0.424052 -0.34135 0.135184
v 0.431587 -0.352237 0.110395
v 0.440897 -0.355261 0.076614
v 0.445607 -0.393414 0.0676222
v 0.442031 -0.327389 0.0069367
v 0.442089 -0.327389 -0.0487416
v 0.441233 -0.327389 -0.06267
v 0.443129 -0.34135 0.0487572
v 0.443475 -0.355261 0.0626856
v 0.43729 -0.313479 -0.0765984
v 0.438508 -0.327389 -0.0765984
v 0.430836 -0.257736 -0.0797015
v 0.417924 -0.250983 -0.125295
v 0.41522 -0.243826 -0.132347
v 0.40164 -0.230419 -0.173568
v 0.403169 -0.226085 -0.164012
v 0.40497 -0.243826 -0.170747
v 0.403063 -0.243826 -0.177694
v 0.404408 -0.222103 -0.154703
v 0.405537 -0.219986 -0.146276
v 0.40309 -0.210511 -0.136015
v 0.398548 -0.206933 -0.141586
v 0.398548 -0.203657 -0.130302
v 0.398548 -0.210461 -0.151212
v 0.398548 -0.200179 -0.117537
v 0.400212 -0.198314 -0.104455
v 0.398548 -0.695009 -0.201989
v 0.398548 -0.690775 -0.208971
v 0.398548 -0.688356 -0.212145
v 0.398548 -0.699696 -0.18926
v 0.409228 -0.675655 -0.201989
v 0.416076 -0.661694 -0.190388
v 0.418785 -0.661694 -0.183406
v 0.398548 -0.687348 -0.213379
v 0.398548 -0.675655 -0.220537
v 0.404623 -0.675655 -0.210029
v 0.419 -0.647784 -0.184006
v 0.422261 -0.633873 -0.174132
v 0.446238 -0.619912 -0.0852023
v 0.431892 -0.614066 -0.139364
v 0.446348 -0.606002 -0.0856254
v 0.448748 -0.606002 -0.0765984
v 0.451299 -0.606002 -0.06267
v 0.451982 -0.606002 -0.0487416
v 0.451956 -0.606002 -0.0209201
v 0.45205 -0.592041 0.0069367
v 0.452155 -0.578131 -0.0209201
v 0.452077 -0.578131 0.0487572
v 0.452082 -0.56422 0.0487572
v 0.452003 -0.550259 0.0487572
v 0.451893 -0.536349 0.0487572
v 0.451693 -0.522388 0.0487572
v 0.451415 -0.508477 0.0487572
v 0.4511 -0.494517 0.0487572
v 0.450512 -0.494517 0.0626856
v 0.44806 -0.494517 0.076614
v 0.444121 -0.494517 0.0912476
v 0.432296 -0.494517 0.135184
v 0.431613 -0.309396 -0.0965213
v 0.433 -0.299568 -0.0878117
v 0.434612 -0.285608 -0.0765984
v 0.43144 -0.268723 -0.0819582
v 0.433178 -0.272705 -0.0770216
v 0.425144 -0.355261 0.135184
v 0.441905 -0.369222 0.076614
v 0.44588 -0.402687 0.0699495
v 0.447093 -0.411003 0.0626856
v 0.446301 -0.397647 0.0628619
v 0.446048 -0.386307 0.0583131
v 0.445345 -0.382275 0.0628619
v 0.444463 -0.369222 0.0626856
v 0.443145 -0.34135 0.0347935
v 0.443234 -0.34135 -0.0487416
v 0.442394 -0.34135 -0.06267
v 0.439689 -0.34135 -0.0765984
v 0.444184 -0.355261 0.0487572
v 0.422429 -0.313479 -0.132347
v 0.432028 -0.318721 -0.0980729
v 0.423648 -0.327389 -0.132347
v 0.435977 -0.34135 -0.0905268
v 0.418439 -0.260256 -0.127234
v 0.420014 -0.256476 -0.119759
v 0.413077 -0.257736 -0.146276
v 0.409359 -0.257736 -0.160204
v 0.398548 -0.235812 -0.1839
v 0.398548 -0.229663 -0.180444
v 0.398548 -0.226387 -0.177659
v 0.398548 -0.219986 -0.170007
v 0.405516 -0.25819 -0.174767
v 0.403662 -0.253805 -0.179845
v 0.398548 -0.243826 -0.187814
v 0.398548 -0.216257 -0.164153
v 0.40016 -0.216862 -0.15971
v 0.398548 -0.215148 -0.161791
v 0.410194 -0.661694 -0.201989
v 0.416317 -0.647784 -0.190988
v 0.398548 -0.661795 -0.222194
v 0.405096 -0.661694 -0.21084
v 0.416506 -0.633873 -0.191446
v 0.419174 -0.633873 -0.184499
v 0.422519 -0.619912 -0.174132
v 0.422734 -0.606002 -0.174132
v 0.422865 -0.592041 -0.174132
v 0.448879 -0.592041 -0.0765984
v 0.451426 -0.592041 -0.06267
v 0.452108 -0.592041 -0.0487416
v 0.452182 -0.578131 -0.0487416
v 0.452192 -0.56422 -0.0487416
v 0.45205 -0.550259 0.0069367
v 0.451998 -0.536349 -0.0487416
v 0.451798 -0.522388 -0.0487416
v 0.45151 -0.508477 -0.0348485
v 0.451131 -0.494517 0.0208651
v 0.450696 -0.480606 0.0487572
v 0.450102 -0.480606 0.0626856
v 0.447429 -0.466696 0.0756619
v 0.447324 -0.480808 0.0778129
v 0.445865 -0.485596 0.0838074
v 0.432144 -0.489376 0.135184
v 0.416748 -0.299568 -0.148744
v 0.421122 -0.299568 -0.132347
v 0.419258 -0.313479 -0.144231
v 0.411276 -0.313479 -0.174132
v 0.416291 -0.285708 -0.145359
v 0.432312 -0.285608 -0.0852376
v 0.431939 -0.278048 -0.0838271
v 0.40717 -0.271697 -0.174132
v 0.426147 -0.369222 0.135184
v 0.426347 -0.372044 0.135184
v 0.442877 -0.383132 0.076614
v 0.428163 -0.399915 0.135184
v 0.428883 -0.412011 0.135184
v 0.446127 -0.411003 0.0708663
v 0.44849 -0.438875 0.0626856
v 0.447834 -0.424914 0.0626856
v 0.444116 -0.397647 0.0753798
v 0.440005 -0.397093 0.0905424
v 0.427995 -0.397093 0.135184
v 0.448469 -0.424914 0.0487572
v 0.447739 -0.411003 0.0487572
v 0.446941 -0.397093 0.0487572
v 0.446174 -0.384392 0.0487572
v 0.445723 -0.377437 0.0487572
v 0.445156 -0.369222 0.0487572
v 0.4442 -0.355261 0.0347935
v 0.444289 -0.355261 -0.0487416
v 0.446085 -0.385702 -0.0582623
v 0.44347 -0.355261 -0.06267
v 0.445565 -0.394119 -0.0675714
v 0.440787 -0.355261 -0.0765984
v 0.431577 -0.352388 -0.110344
v 0.445187 -0.369222 0.0208651
v 0.417787 -0.322299 -0.152658
v 0.424829 -0.34135 -0.132347
v 0.418601 -0.34135 -0.155691
v 0.413681 -0.34135 -0.174132
v 0.416417 -0.327137 -0.159358
v 0.398548 -0.244027 -0.187885
v 0.404198 -0.263079 -0.181467
v 0.398548 -0.656251 -0.222547
v 0.405337 -0.647784 -0.211263
v 0.410672 -0.647784 -0.201989
v 0.411056 -0.633873 -0.201989
v 0.416648 -0.619912 -0.191799
v 0.4193 -0.619912 -0.184852
v 0.41941 -0.606002 -0.185134
v 0.419473 -0.592041 -0.18531
v 0.422944 -0.578131 -0.174132
v 0.446448 -0.578131 -0.0860133
v 0.448958 -0.578131 -0.0765984
v 0.451504 -0.578131 -0.06267
v 0.45151 -0.56422 -0.06267
v 0.452108 -0.550259 -0.0487416
v 0.451426 -0.550259 -0.06267
v 0.45131 -0.536349 -0.06267
v 0.45111 -0.522388 -0.06267
v 0.45152 -0.508477 -0.0487416
v 0.451205 -0.494517 -0.0487416
v 0.450801 -0.480606 -0.0487416
v 0.450711 -0.480606 0.0347935
v 0.450323 -0.466696 -0.0209201
v 0.450244 -0.466696 0.0487572
v 0.449645 -0.466696 0.0626856
v 0.447156 -0.452735 0.0746746
v 0.431419 -0.466696 0.135184
v 0.431881 -0.480606 0.135184
v 0.409969 -0.299568 -0.174132
v 0.408598 -0.285608 -0.174132
v 0.412494 -0.327389 -0.174132
v 0.405379 -0.285608 -0.184041
v 0.40466 -0.271697 -0.18249
v 0.417698 -0.281172 -0.138377
v 0.427118 -0.383132 0.135184
v 0.427297 -0.385954 0.135184
v 0.431871 -0.417959 0.125381
v 0.429576 -0.424914 0.135184
v 0.446505 -0.424914 0.0722415
v 0.44911 -0.452735 0.0626856
v 0.44911 -0.438875 0.0487572
v 0.449173 -0.438875 -0.0069917
v 0.448501 -0.424914 0.0208651
v 0.447771 -0.411003 0.0208651
v 0.446988 -0.397093 0.0069367
v 0.446211 -0.383787 -0.0209201
v 0.445775 -0.37658 -0.0487416
v 0.445739 -0.377185 0.0208651
v 0.446227 -0.383586 -0.0487416
v 0.447046 -0.397093 -0.0487416
v 0.447844 -0.411003 -0.0487416
v 0.448574 -0.424914 -0.0487416
v 0.447829 -0.424914 -0.06267
v 0.447088 -0.411003 -0.06267
v 0.446327 -0.398101 -0.0628111
v 0.445319 -0.381872 -0.0628111
v 0.444457 -0.369222 -0.06267
v 0.445838 -0.403443 -0.0697576
v 0.44179 -0.369222 -0.0765984
v 0.422209 -0.355261 -0.146276
v 0.414773 -0.355261 -0.174132
v 0.409816 -0.355261 -0.188061
v 0.408661 -0.34135 -0.188061
v 0.406062 -0.299568 -0.185487
v 0.398548 -0.244481 -0.18799
v 0.400811 -0.25819 -0.186897
v 0.401924 -0.285608 -0.190988
v 0.401126 -0.271697 -0.189436
v 0.398548 -0.647784 -0.223041
v 0.398548 -0.633873 -0.223711
v 0.401514 -0.633873 -0.218562
v 0.401661 -0.619912 -0.218809
v 0.411339 -0.619912 -0.201989
v 0.416769 -0.606002 -0.192116
v 0.416842 -0.592041 -0.192292
v 0.419515 -0.578131 -0.185416
v 0.419515 -0.56422 -0.185452
v 0.422949 -0.56422 -0.174132
v 0.446453 -0.56422 -0.0860133
v 0.448963 -0.56422 -0.0765984
v 0.448879 -0.550259 -0.0765984
v 0.448763 -0.536349 -0.0765984
v 0.448553 -0.522388 -0.0765984
v 0.450832 -0.508477 -0.06267
v 0.450507 -0.494517 -0.06267
v 0.450092 -0.480606 -0.06267
v 0.450349 -0.466696 -0.0487416
v 0.449829 -0.452735 -0.0487416
v 0.44974 -0.452735 0.0347935
v 0.449724 -0.452735 0.0487572
v 0.446841 -0.438875 0.0735109
v 0.430857 -0.452382 0.135184
v 0.439138 -0.452735 0.104471
v 0.431335 -0.464528 0.135184
v 0.403415 -0.313479 -0.193879
v 0.402691 -0.299568 -0.192469
v 0.432044 -0.424914 0.126016
v 0.444631 -0.424914 0.0792233
v 0.430243 -0.438875 0.135184
v 0.449215 -0.438875 -0.0487416
v 0.448485 -0.438875 -0.06267
v 0.446064 -0.411003 -0.0706039
v 0.444048 -0.398101 -0.0752937
v 0.442761 -0.383132 -0.0765984
v 0.418008 -0.37527 -0.167397
v 0.423212 -0.369222 -0.146276
v 0.417677 -0.365996 -0.166163
v 0.416175 -0.370078 -0.172863
v 0.416417 -0.383132 -0.175367
v 0.410882 -0.369222 -0.188061
v 0.405363 -0.355261 -0.19737
v 0.404754 -0.34135 -0.196312
v 0.404287 -0.331472 -0.195501
v 0.403846 -0.322198 -0.19469
v 0.406828 -0.327087 -0.18926
v 0.406718 -0.313479 -0.186897
v 0.398548 -0.267111 -0.193139
v 0.398548 -0.285608 -0.197088
v 0.398548 -0.279912 -0.195889
v 0.398548 -0.619912 -0.224204
v 0.398548 -0.606002 -0.224627
v 0.401782 -0.606002 -0.219021
v 0.411586 -0.606002 -0.201989
v 0.411728 -0.592041 -0.201989
v 0.416884 -0.578131 -0.192398
v 0.416889 -0.56422 -0.192398
v 0.416842 -0.550259 -0.192292
v 0.419473 -0.550259 -0.18531
v 0.422865 -0.550259 -0.174132
v 0.444494 -0.536349 -0.0926073
v 0.431902 -0.52773 -0.139435
v 0.444389 -0.522388 -0.0922194
v 0.444247 -0.508477 -0.0916905
v 0.44827 -0.508477 -0.0765984
v 0.447944 -0.494517 -0.0765984
v 0.447361 -0.466696 -0.0754701
v 0.44964 -0.466696 -0.06267
v 0.449105 -0.452735 -0.06267
v 0.430873 -0.452735 0.135184
v 0.39881 -0.313479 -0.201989
v 0.398548 -0.30229 -0.200367
v 0.398548 -0.291152 -0.198216
v 0.444205 -0.411003 -0.0775858
v 0.446442 -0.424914 -0.0720144
v 0.431871 -0.418009 -0.125365
v 0.43311 -0.397093 -0.116092
v 0.424183 -0.383132 -0.146276
v 0.420465 -0.383132 -0.160204
v 0.416858 -0.397093 -0.177024
v 0.411906 -0.383132 -0.188061
v 0.405925 -0.369222 -0.198357
v 0.401352 -0.355261 -0.204352
v 0.400743 -0.34135 -0.203294
v 0.400774 -0.327087 -0.200896
v 0.398548 -0.598593 -0.224768
v 0.405868 -0.592041 -0.21218
v 0.411817 -0.578131 -0.201989
v 0.411822 -0.56422 -0.201989
v 0.411728 -0.550259 -0.201989
v 0.411602 -0.536349 -0.201989
v 0.416779 -0.536349 -0.192116
v 0.419415 -0.536349 -0.185169
v 0.42275 -0.536349 -0.174132
v 0.422545 -0.522388 -0.174132
v 0.422261 -0.508477 -0.174132
v 0.445943 -0.494517 -0.0841092
v 0.445833 -0.486654 -0.083686
v 0.447251 -0.481413 -0.0777268
v 0.445229 -0.452735 -0.0814293
v 0.447088 -0.452735 -0.0744475
v 0.424766 -0.466696 -0.160204
v 0.446773 -0.438875 -0.0732838
v 0.398548 -0.313479 -0.202448
v 0.398548 -0.311009 -0.201989
v 0.417268 -0.411003 -0.178575
v 0.42506 -0.397093 -0.146276
v 0.444583 -0.424914 -0.0789962
v 0.430521 -0.423553 -0.131466
v 0.422923 -0.424914 -0.160204
v 0.41764 -0.424914 -0.179986
v 0.406466 -0.383132 -0.199274
v 0.412836 -0.397093 -0.188061
v 0.402454 -0.383132 -0.206256
v 0.398548 -0.374967 -0.211933
v 0.398548 -0.369222 -0.211157
v 0.398548 -0.355261 -0.209218
v 0.398548 -0.341703 -0.207138
v 0.398548 -0.337318 -0.206432
v 0.398548 -0.323458 -0.20414
v 0.398548 -0.592041 -0.224874
v 0.40591 -0.578131 -0.21225
v 0.401898 -0.56422 -0.219232
v 0.405868 -0.550259 -0.21218
v 0.405799 -0.536349 -0.212074
v 0.411371 -0.522388 -0.201989
v 0.416664 -0.522388 -0.191834
v 0.419315 -0.522388 -0.184887
v 0.419174 -0.508477 -0.184499
v 0.419011 -0.494517 -0.184041
v 0.42193 -0.494517 -0.174132
v 0.425228 -0.480606 -0.160204
v 0.433194 -0.480606 -0.130337
v 0.420507 -0.452735 -0.174132
v 0.421048 -0.466696 -0.174132
v 0.42359 -0.438875 -0.160204
v 0.417856 -0.433734 -0.180762
v 0.413707 -0.411003 -0.188061
v 0.406955 -0.397093 -0.20012
v 0.402948 -0.397093 -0.207102
v 0.398548 -0.383132 -0.213026
v 0.398548 -0.578131 -0.225015
v 0.398548 -0.56422 -0.22505
v 0.398548 -0.550259 -0.224874
v 0.398548 -0.542951 -0.224768
v 0.398548 -0.536349 -0.224663
v 0.405684 -0.522388 -0.211863
v 0.401514 -0.508477 -0.218562
v 0.411056 -0.508477 -0.201989
v 0.416506 -0.508477 -0.191446
v 0.416322 -0.494517 -0.190988
v 0.418801 -0.480606 -0.183442
v 0.42151 -0.480606 -0.174132
v 0.418297 -0.452735 -0.182066
v 0.418076 -0.443008 -0.181467
v 0.419536 -0.438572 -0.175331
v 0.418565 -0.466696 -0.182807
v 0.4145 -0.424914 -0.188061
v 0.407417 -0.411003 -0.200931
v 0.403405 -0.411003 -0.207913
v 0.398548 -0.411003 -0.216341
v 0.398548 -0.398807 -0.21493
v 0.398548 -0.529343 -0.224451
v 0.398548 -0.522388 -0.224239
v 0.398548 -0.515886 -0.223993
v 0.398548 -0.508477 -0.223711
v 0.398548 -0.494517 -0.223076
v 0.401331 -0.494517 -0.218245
v 0.410688 -0.494517 -0.201989
v 0.410221 -0.480606 -0.201989
v 0.409701 -0.466696 -0.201989
v 0.416086 -0.480606 -0.190423
v 0.415524 -0.452735 -0.189013
v 0.415829 -0.466696 -0.189789
v 0.415676 -0.438572 -0.186862
v 0.408393 -0.438875 -0.201989
v 0.407075 -0.426275 -0.203118
v 0.403762 -0.422545 -0.208513
v 0.398548 -0.425972 -0.217892
v 0.398548 -0.475717 -0.221947
v 0.405111 -0.480606 -0.210875
v 0.404854 -0.466696 -0.210417
v 0.409097 -0.452735 -0.201989
v 0.404198 -0.438875 -0.209288
v 0.404014 -0.431869 -0.208971
v 0.400501 -0.426275 -0.214542
v 0.398548 -0.438875 -0.219091
v 0.398548 -0.466696 -0.221348
v 0.398548 -0.462311 -0.221031
v 0.404549 -0.452735 -0.209888
v 0.398548 -0.448955 -0.219973
v 0.398548 -0.452735 -0.22029
f 1 2 3
f 1 3 6
f 1 6 14
f 1 14 29
f 1 29 50
f 1 50 77
f 1 77 112
f 1 112 111
f 1 111 110
f 1 110 145
f 1 145 144
f 1 144 188
f 1 188 239
f 1 239 238
f 1 238 237
f 1 237 296
f 1 296 295
f 1 295 294
f 1 294 293
f 1 293 351
f 1 351 349
f 1 349 348
f 1 348 350
f 1 350 420
f 1 420 418
f 1 418 414
f 1 414 413
f 1 413 412
f 1 412 411
f 1 411 417
f 1 417 484
f 1 484 549
f 1 549 601
f 1 601 603
f 1 603 602
f 1 602 626
f 1 626 625
f 1 625 658
f 1 658 657
f 1 657 673
f 1 673 672
f 1 672 671
f 1 671 670
f 1 670 669
f 1 669 668
f 1 668 694
f 1 694 715
f 1 715 714
f 1 714 732
f 1 732 740
f 1 740 744
f 1 744 745
f 1 745 742
f 1 742 741
f 1 741 733
f 1 733 720
f 1 720 719
f 1 719 718
f 1 718 717
f 1 717 716
f 1 716 699
f 1 699 698
f 1 698 697
f 1 697 696
f 1 696 695
f 1 695 674
f 1 674 639
f 1 639 605
f 1 605 604
f 1 604 554
f 1 554 553
f 1 553 486
f 1 486 423
f 1 423 361
f 1 361 360
f 1 360 355
f 1 355 354
f 1 354 353
f 1 353 356
f 1 356 299
f 1 299 243
f 1 243 240
f 1 240 189
f 1 189 146
f 1 146 113
f 1 113 78
f 1 78 52
f 1 52 31
f 1 31 16
f 1 16 7
f 1 7 4
f 1 4 10
f 1 10 23
f 1 23 40
f 1 40 64
f 1 64 91
f 1 91 122
f 1 122 159
f 1 159 162
f 1 162 211
f 1 211 265
f 1 265 323
f 1 323 384
f 1 384 445
f 1 445 512
f 1 512 511
f 1 511 578
f 1 578 623
f 1 623 576
f 1 576 583
f 1 583 522
f 1 522 458
f 1 458 457
f 1 457 464
f 1 464 520
f 1 520 519
f 1 519 455
f 1 455 454
f 1 454 390
f 1 390 327
f 1 327 272
f 1 272 271
f 1 271 220
f 1 220 219
f 1 219 218
f 1 218 217
f 1 217 270
f 1 270 269
f 1 269 267
f 1 267 214
f 1 214 164
f 1 164 126
f 1 126 92
f 1 92 76
f 1 76 48
f 1 48 28
f 1 28 13
f 1 13 5
f 1 5 2
f 2 5 6
f 2 6 3
f 4 7 8
f 4 8 9
f 4 9 10
f 5 11 12
f 5 12 6
f 5 13 11
f 6 12 14
f 7 15 8
f 7 16 17
f 7 17 15
f 8 15 18
f 8 18 19
f 8 19 9
f 9 19 20
f 9 20 21
f 9 21 10
f 10 21 22
f 10 22 23
f 11 13 24
f 11 24 25
f 11 25 26
f 11 26 12
f 12 26 27
f 12 27 14
f 13 28 24
f 14 27 30
f 14 30 29
f 15 17 18
f 16 31 32
f 16 32 17
f 17 32 33
f 17 33 18
f 18 33 34
f 18 34 35
f 18 35 19
f 19 35 36
f 19 36 20
f 20 36 21
f 21 36 22
f 22 36 37
f 22 37 23
f 23 37 38
f 23 38 39
f 23 39 40
f 24 28 41
f 24 41 42
f 24 42 25
f 25 43 26
f 25 42 43
f 26 44 45
f 26 45 46
f 26 46 30
f 26 30 27
f 26 43 44
f 28 47 41
f 28 48 47
f 29 30 49
f 29 49 50
f 30 46 51
f 30 51 49
f 31 52 53
f 31 53 32
f 32 53 80
f 32 80 54
f 32 54 33
f 33 54 55
f 33 55 34
f 34 56 57
f 34 57 58
f 34 58 35
f 34 55 56
f 35 58 59
f 35 59 36
f 36 59 37
f 37 59 38
f 38 59 60
f 38 60 61
f 38 61 62
f 38 62 39
f 39 63 64
f 39 64 40
f 39 62 63
f 41 47 42
f 42 65 66
f 42 66 67
f 42 67 68
f 42 68 43
f 42 47 65
f 43 68 69
f 43 69 70
f 43 70 44
f 44 71 72
f 44 72 45
f 44 70 71
f 45 72 73
f 45 73 74
f 45 74 46
f 46 74 75
f 46 75 51
f 47 48 66
f 47 66 65
f 48 76 66
f 49 51 50
f 50 51 75
f 50 75 77
f 52 78 53
f 53 78 79
f 53 79 80
f 54 80 81
f 54 81 82
f 54 82 55
f 55 82 56
f 56 83 84
f 56 84 85
f 56 85 57
f 56 82 81
f 56 81 83
f 57 85 86
f 57 86 58
f 58 86 87
f 58 87 59
f 59 87 61
f 59 61 60
f 61 88 62
f 61 87 89
f 61 89 90
f 61 90 88
f 62 88 64
f 62 64 63
f 64 88 91
f 66 76 92
f 66 92 93
f 66 93 94
f 66 94 67
f 67 95 68
f 67 94 96
f 67 96 97
f 67 97 98
f 67 98 99
f 67 99 95
f 68 95 69
f 69 95 100
f 69 100 101
f 69 101 102
f 69 102 70
f 70 102 103
f 70 103 104
f 70 104 105
f 70 105 106
f 70 106 71
f 71 106 72
f 72 106 107
f 72 107 108
f 72 108 109
f 72 109 73
f 73 109 110
f 73 110 111
f 73 111 112
f 73 112 74
f 74 112 77
f 74 77 75
f 78 113 79
f 79 113 114
f 79 114 115
f 79 115 80
f 80 115 81
f 81 115 116
f 81 116 83
f 83 116 117
f 83 117 118
f 83 118 84
f 84 118 119
f 84 119 85
f 85 119 86
f 86 119 120
f 86 120 87
f 87 120 89
f 88 90 121
f 88 121 122
f 88 122 91
f 89 120 123
f 89 123 90
f 90 123 124
f 90 124 125
f 90 125 121
f 92 126 127
f 92 127 93
f 93 127 96
f 93 96 94
f 95 99 98
f 95 98 128
f 95 128 100
f 96 127 129
f 96 129 130
f 96 130 131
f 96 131 132
f 96 132 133
f 96 133 97
f 97 134 135
f 97 135 98
f 97 133 134
f 98 135 128
f 100 128 101
f 101 136 103
f 101 103 102
f 101 128 137
f 101 137 138
f 101 138 136
f 103 136 104
f 104 136 139
f 104 139 140
f 104 140 105
f 105 140 106
f 106 141 107
f 106 140 141
f 107 141 142
f 107 142 108
f 108 143 144
f 108 144 109
f 108 142 143
f 109 144 145
f 109 145 110
f 113 146 114
f 114 146 147
f 114 147 115
f 115 147 148
f 115 148 116
f 116 149 117
f 116 148 149
f 117 150 151
f 117 151 118
f 117 149 152
f 117 152 153
f 117 153 150
f 118 151 154
f 118 154 119
f 119 154 155
f 119 155 156
f 119 156 157
f 119 157 120
f 120 157 158
f 120 158 123
f 121 125 122
f 122 125 159
f 123 158 160
f 123 160 161
f 123 161 124
f 124 161 162
f 124 162 125
f 125 162 159
f 126 163 127
f 126 164 165
f 126 165 163
f 127 163 129
f 128 135 166
f 128 166 137
f 129 165 167
f 129 167 130
f 129 163 168
f 129 168 165
f 130 167 169
f 130 169 170
f 130 170 131
f 131 170 171
f 131 171 172
f 131 172 173
f 131 173 132
f 132 174 175
f 132 175 133
f 132 173 176
f 132 176 174
f 133 175 134
f 134 175 177
f 134 177 178
f 134 178 166
f 134 166 135
f 136 179 139
f 136 138 179
f 137 166 138
f 138 166 180
f 138 180 181
f 138 181 179
f 139 179 181
f 139 181 182
f 139 182 183
f 139 183 140
f 140 183 184
f 140 184 141
f 141 184 142
f 142 184 185
f 142 185 186
f 142 186 187
f 142 187 143
f 143 187 144
f 144 187 188
f 146 189 147
f 147 189 190
f 147 190 148
f 148 190 191
f 148 191 149
f 149 191 192
f 149 192 193
f 149 193 194
f 149 194 152
f 150 153 151
f 151 153 195
f 151 195 196
f 151 196 197
f 151 197 198
f 151 198 199
f 151 199 154
f 152 200 153
f 152 194 200
f 153 200 201
f 153 201 202
f 153 202 195
f 154 199 155
f 155 203 204
f 155 204 205
f 155 205 156
f 155 199 203
f 156 205 206
f 156 206 157
f 157 206 207
f 157 207 158
f 158 207 160
f 160 207 208
f 160 208 209
f 160 209 161
f 161 209 162
f 162 210 211
f 162 209 212
f 162 212 213
f 162 213 210
f 163 165 168
f 164 214 165
f 165 214 167
f 166 178 215
f 166 215 180
f 167 214 216
f 167 216 169
f 169 216 170
f 170 216 217
f 170 217 171
f 171 217 218
f 171 218 172
f 172 218 219
f 172 219 220
f 172 220 173
f 173 221 222
f 173 222 176
f 173 220 221
f 174 223 177
f 174 177 175
f 174 176 224
f 174 224 223
f 176 222 225
f 176 225 224
f 177 223 226
f 177 226 227
f 177 227 215
f 177 215 178
f 180 228 181
f 180 215 229
f 180 229 228
f 181 230 182
f 181 228 231
f 181 231 230
f 182 230 232
f 182 232 183
f 183 232 233
f 183 233 234
f 183 234 184
f 184 234 185
f 185 234 235
f 185 235 236
f 185 236 186
f 186 236 237
f 186 237 238
f 186 238 187
f 187 238 239
f 187 239 188
f 189 240 190
f 190 240 241
f 190 241 191
f 191 241 192
f 192 241 193
f 193 242 200
f 193 200 194
f 193 241 240
f 193 240 243
f 193 243 242
f 195 244 196
f 195 202 244
f 196 244 197
f 197 245 198
f 197 244 246
f 197 246 247
f 197 247 245
f 198 245 199
f 199 245 248
f 199 248 249
f 199 249 203
f 200 242 201
f 201 246 244
f 201 244 202
f 201 242 246
f 203 249 250
f 203 250 251
f 203 251 204
f 204 251 252
f 204 252 253
f 204 253 205
f 205 253 254
f 205 254 206
f 206 254 255
f 206 255 256
f 206 256 207
f 207 256 257
f 207 257 208
f 208 257 313
f 208 313 258
f 208 258 212
f 208 212 209
f 210 259 315
f 210 315 260
f 210 260 211
f 210 213 266
f 210 266 259
f 211 260 261
f 211 261 262
f 211 262 263
f 211 263 264
f 211 264 265
f 212 258 213
f 213 258 266
f 214 267 216
f 215 227 268
f 215 268 229
f 216 269 270
f 216 270 217
f 216 267 269
f 220 271 221
f 221 271 272
f 221 272 273
f 221 273 222
f 222 273 274
f 222 274 225
f 223 224 275
f 223 275 276
f 223 276 226
f 224 225 277
f 224 277 331
f 224 331 275
f 225 274 278
f 225 278 277
f 226 279 227
f 226 276 280
f 226 280 279
f 227 279 268
f 228 229 230
f 228 230 231
f 229 281 230
f 229 268 281
f 230 282 283
f 230 283 232
f 230 281 284
f 230 284 282
f 232 285 286
f 232 286 287
f 232 287 233
f 232 283 285
f 233 288 234
f 233 287 288
f 234 289 290
f 234 290 291
f 234 291 292
f 234 292 235
f 234 288 289
f 235 292 293
f 235 293 294
f 235 294 236
f 236 294 295
f 236 295 296
f 236 296 237
f 242 297 298
f 242 298 247
f 242 247 246
f 242 243 299
f 242 299 297
f 245 300 301
f 245 301 302
f 245 302 248
f 245 247 298
f 245 298 303
f 245 303 304
f 245 304 300
f 248 302 249
f 249 305 250
f 249 302 305
f 250 305 306
f 250 306 251
f 251 306 307
f 251 307 252
f 252 307 253
f 253 307 308
f 253 308 309
f 253 309 254
f 254 309 310
f 254 310 311
f 254 311 255
f 255 311 256
f 256 311 312
f 256 312 313
f 256 313 257
f 258 313 266
f 259 314 315
f 259 266 324
f 259 324 314
f 260 315 316
f 260 316 261
f 261 316 317
f 261 317 262
f 262 317 318
f 262 318 263
f 263 318 319
f 263 319 264
f 264 319 320
f 264 320 321
f 264 321 265
f 265 321 322
f 265 322 323
f 266 313 324
f 268 279 325
f 268 325 326
f 268 326 281
f 272 327 273
f 273 327 274
f 274 327 328
f 274 328 329
f 274 329 330
f 274 330 278
f 275 331 332
f 275 332 276
f 276 332 333
f 276 333 280
f 277 278 334
f 277 334 331
f 278 335 334
f 278 330 335
f 279 280 336
f 279 336 325
f 280 333 337
f 280 337 336
f 281 326 338
f 281 338 339
f 281 339 340
f 281 340 284
f 282 341 342
f 282 342 285
f 282 285 283
f 282 284 340
f 282 340 343
f 282 343 344
f 282 344 341
f 285 342 345
f 285 345 286
f 286 345 346
f 286 346 287
f 287 346 347
f 287 347 288
f 288 347 289
f 289 348 349
f 289 349 290
f 289 347 350
f 289 350 348
f 290 349 351
f 290 351 291
f 291 351 352
f 291 352 292
f 292 352 293
f 293 352 351
f 297 353 354
f 297 354 355
f 297 355 303
f 297 303 298
f 297 299 356
f 297 356 353
f 300 304 357
f 300 357 358
f 300 358 301
f 301 358 359
f 301 359 305
f 301 305 302
f 303 355 304
f 304 355 360
f 304 360 361
f 304 361 362
f 304 362 357
f 305 359 306
f 306 359 363
f 306 363 364
f 306 364 307
f 307 364 308
f 308 364 309
f 309 365 366
f 309 366 367
f 309 367 368
f 309 368 369
f 309 369 310
f 309 364 365
f 310 369 311
f 311 369 370
f 311 370 371
f 311 371 312
f 312 371 313
f 313 371 324
f 314 372 373
f 314 373 374
f 314 374 315
f 314 324 371
f 314 371 372
f 315 374 375
f 315 375 316
f 316 375 376
f 316 376 317
f 317 376 377
f 317 377 318
f 318 377 378
f 318 378 319
f 319 378 379
f 319 379 320
f 320 379 380
f 320 380 381
f 320 381 321
f 321 381 382
f 321 382 383
f 321 383 322
f 322 383 384
f 322 384 323
f 325 336 385
f 325 385 386
f 325 386 387
f 325 387 326
f 326 388 338
f 326 387 389
f 326 389 388
f 327 390 328
f 328 390 329
f 329 390 391
f 329 391 392
f 329 392 330
f 330 392 393
f 330 393 394
f 330 394 395
f 330 395 396
f 330 396 397
f 330 397 335
f 331 334 398
f 331 398 399
f 331 399 332
f 332 399 400
f 332 400 333
f 333 400 401
f 333 401 337
f 334 335 402
f 334 402 471
f 334 471 398
f 335 397 395
f 335 395 402
f 336 403 385
f 336 337 404
f 336 404 403
f 337 405 404
f 337 401 406
f 337 406 405
f 338 388 407
f 338 407 408
f 338 408 339
f 339 343 340
f 339 408 409
f 339 409 410
f 339 410 343
f 341 344 411
f 341 411 412
f 341 412 413
f 341 413 342
f 342 413 414
f 342 414 345
f 343 410 415
f 343 415 416
f 343 416 344
f 344 416 417
f 344 417 411
f 345 414 418
f 345 418 419
f 345 419 346
f 346 419 347
f 347 419 418
f 347 418 420
f 347 420 350
f 357 362 421
f 357 421 358
f 358 421 422
f 358 422 359
f 359 422 363
f 361 423 362
f 362 423 424
f 362 424 421
f 363 422 425
f 363 425 426
f 363 426 364
f 364 426 427
f 364 427 365
f 365 427 366
f 366 428 367
f 366 427 428
f 367 428 429
f 367 429 430
f 367 430 368
f 368 430 369
f 369 430 431
f 369 431 432
f 369 432 370
f 370 432 371
f 371 432 372
f 372 432 373
f 373 432 433
f 373 433 434
f 373 434 374
f 374 434 375
f 375 434 376
f 376 434 435
f 376 435 377
f 377 435 436
f 377 436 437
f 377 437 378
f 378 437 438
f 378 438 379
f 379 438 380
f 380 438 439
f 380 439 440
f 380 440 381
f 381 440 441
f 381 441 442
f 381 442 382
f 382 442 443
f 382 443 444
f 382 444 383
f 383 444 384
f 384 444 445
f 385 446 447
f 385 447 386
f 385 403 448
f 385 448 449
f 385 449 446
f 386 447 450
f 386 450 451
f 386 451 387
f 387 451 452
f 387 452 389
f 388 389 452
f 388 452 453
f 388 453 407
f 390 454 391
f 391 454 455
f 391 455 456
f 391 456 392
f 392 457 458
f 392 458 459
f 392 459 460
f 392 460 461
f 392 461 393
f 392 456 462
f 392 462 463
f 392 463 464
f 392 464 457
f 393 395 394
f 393 461 395
f 395 461 465
f 395 465 466
f 395 466 467
f 395 467 468
f 395 468 469
f 395 469 470
f 395 470 402
f 395 397 396
f 398 471 472
f 398 472 399
f 399 472 473
f 399 473 474
f 399 474 400
f 400 474 475
f 400 475 476
f 400 476 401
f 401 476 477
f 401 477 406
f 402 470 478
f 402 478 471
f 403 404 479
f 403 479 448
f 404 405 479
f 405 406 480
f 405 480 481
f 405 481 482
f 405 482 483
f 405 483 479
f 406 477 480
f 407 410 409
f 407 409 408
f 407 453 410
f 410 453 415
f 415 453 416
f 416 484 417
f 416 453 485
f 416 485 484
f 421 424 486
f 421 486 487
f 421 487 488
f 421 488 422
f 422 488 425
f 423 486 424
f 425 489 490
f 425 490 426
f 425 488 489
f 426 490 491
f 426 491 427
f 427 491 428
f 428 492 429
f 428 491 492
f 429 493 494
f 429 494 495
f 429 495 430
f 429 492 493
f 430 495 496
f 430 496 497
f 430 497 431
f 431 497 432
f 432 497 433
f 433 497 434
f 434 497 498
f 434 498 500
f 434 500 499
f 434 499 435
f 435 499 436
f 436 499 500
f 436 500 501
f 436 501 502
f 436 502 437
f 437 502 568
f 437 568 503
f 437 503 438
f 438 503 504
f 438 504 439
f 439 504 505
f 439 505 506
f 439 506 440
f 440 506 507
f 440 507 508
f 440 508 441
f 441 508 509
f 441 509 510
f 441 510 442
f 442 511 443
f 442 510 511
f 443 511 512
f 443 512 444
f 444 512 445
f 446 449 513
f 446 513 514
f 446 514 450
f 446 450 447
f 448 479 449
f 449 479 515
f 449 515 516
f 449 516 517
f 449 517 485
f 449 485 513
f 450 514 518
f 450 518 452
f 450 452 451
f 452 518 453
f 453 518 514
f 453 514 485
f 455 519 456
f 456 519 520
f 456 520 464
f 456 464 463
f 456 463 462
f 458 521 459
f 458 522 521
f 459 521 523
f 459 523 524
f 459 524 460
f 460 524 525
f 460 525 465
f 460 465 461
f 465 525 526
f 465 526 527
f 465 527 528
f 465 528 466
f 466 528 529
f 466 529 467
f 467 529 468
f 468 529 530
f 468 530 531
f 468 531 532
f 468 532 469
f 469 532 470
f 470 532 531
f 470 531 478
f 471 478 531
f 471 531 472
f 472 531 473
f 473 533 534
f 473 534 535
f 473 535 536
f 473 536 537
f 473 537 538
f 473 538 539
f 473 539 475
f 473 475 540
f 473 540 541
f 473 541 474
f 473 531 533
f 474 541 475
f 475 539 538
f 475 538 542
f 475 542 476
f 475 541 540
f 476 543 590
f 476 590 544
f 476 544 477
f 476 542 543
f 477 482 481
f 477 481 480
f 477 544 545
f 477 545 482
f 479 483 515
f 482 515 483
f 482 545 546
f 482 546 547
f 482 547 548
f 482 548 515
f 484 485 550
f 484 550 549
f 485 514 513
f 485 517 551
f 485 551 552
f 485 552 550
f 486 553 487
f 487 553 554
f 487 554 555
f 487 555 489
f 487 489 488
f 489 555 556
f 489 556 557
f 489 557 558
f 489 558 490
f 490 558 491
f 491 558 492
f 492 558 559
f 492 559 493
f 493 559 609
f 493 609 560
f 493 560 494
f 494 560 561
f 494 561 562
f 494 562 563
f 494 563 495
f 495 563 564
f 495 564 496
f 496 564 498
f 496 498 497
f 498 564 565
f 498 565 500
f 500 565 566
f 500 566 501
f 501 566 502
f 502 567 568
f 502 566 567
f 503 568 504
f 504 568 569
f 504 569 505
f 505 570 621
f 505 621 571
f 505 571 507
f 505 507 506
f 505 569 570
f 507 571 572
f 507 572 573
f 507 573 574
f 507 574 508
f 508 574 509
f 509 574 524
f 509 524 575
f 509 575 510
f 510 575 576
f 510 576 577
f 510 577 578
f 510 578 511
f 515 548 516
f 516 548 579
f 516 579 580
f 516 580 517
f 517 580 551
f 521 522 581
f 521 581 582
f 521 582 523
f 522 583 581
f 523 582 575
f 523 575 524
f 524 574 525
f 525 574 526
f 526 574 573
f 526 573 572
f 526 572 584
f 526 584 536
f 526 536 527
f 527 536 535
f 527 535 528
f 528 535 529
f 529 534 530
f 529 535 534
f 530 534 533
f 530 533 531
f 536 584 585
f 536 585 537
f 537 585 542
f 537 542 538
f 542 585 586
f 542 586 587
f 542 587 588
f 542 588 543
f 543 588 589
f 543 589 590
f 544 590 591
f 544 591 545
f 545 591 592
f 545 592 593
f 545 593 594
f 545 594 546
f 546 595 596
f 546 596 547
f 546 594 595
f 547 596 597
f 547 597 598
f 547 598 599
f 547 599 600
f 547 600 548
f 548 600 579
f 549 550 552
f 549 552 601
f 551 602 603
f 551 603 601
f 551 601 552
f 551 580 602
f 554 604 556
f 554 556 555
f 556 604 605
f 556 605 606
f 556 606 607
f 556 607 557
f 557 607 558
f 558 607 559
f 559 608 609
f 559 607 608
f 560 609 561
f 561 610 611
f 561 611 612
f 561 612 613
f 561 613 562
f 561 609 610
f 562 613 563
f 563 613 565
f 563 565 564
f 565 613 614
f 565 614 566
f 566 614 615
f 566 615 567
f 567 616 617
f 567 617 618
f 567 618 568
f 567 615 616
f 568 618 619
f 568 619 569
f 569 619 620
f 569 620 570
f 570 620 621
f 571 621 572
f 572 621 622
f 572 622 584
f 575 582 581
f 575 581 583
f 575 583 576
f 576 623 577
f 577 623 578
f 579 624 625
f 579 625 626
f 579 626 580
f 579 600 598
f 579 598 624
f 580 626 602
f 584 622 585
f 585 622 586
f 586 627 587
f 586 622 628
f 586 628 629
f 586 629 627
f 587 627 630
f 587 630 588
f 588 631 589
f 588 630 631
f 589 592 591
f 589 591 590
f 589 631 632
f 589 632 593
f 589 593 592
f 593 632 633
f 593 633 594
f 594 633 634
f 594 634 635
f 594 635 595
f 595 636 637
f 595 637 596
f 595 635 636
f 596 637 638
f 596 638 597
f 597 638 598
f 598 638 624
f 598 600 599
f 605 639 606
f 606 639 640
f 606 640 607
f 607 640 608
f 608 640 641
f 608 641 609
f 609 641 642
f 609 642 610
f 610 642 643
f 610 643 611
f 611 643 644
f 611 644 645
f 611 645 646
f 611 646 612
f 612 646 613
f 613 646 647
f 613 647 614
f 614 647 615
f 615 647 648
f 615 648 616
f 616 648 617
f 617 649 650
f 617 650 618
f 617 648 649
f 618 650 619
f 619 650 651
f 619 651 652
f 619 652 620
f 620 653 654
f 620 654 621
f 620 652 655
f 620 655 653
f 621 654 656
f 621 656 622
f 622 656 628
f 624 657 658
f 624 658 625
f 624 638 657
f 627 659 660
f 627 660 630
f 627 629 659
f 628 656 661
f 628 661 629
f 629 661 662
f 629 662 663
f 629 663 664
f 629 664 659
f 630 660 631
f 631 660 633
f 631 633 632
f 633 660 659
f 633 659 634
f 634 665 635
f 634 659 666
f 634 666 665
f 635 665 667
f 635 667 668
f 635 668 669
f 635 669 670
f 635 670 636
f 636 670 637
f 637 671 672
f 637 672 638
f 637 670 671
f 638 673 657
f 638 672 673
f 639 674 640
f 640 674 675
f 640 675 641
f 641 675 676
f 641 676 642
f 642 676 677
f 642 677 643
f 643 677 644
f 644 677 678
f 644 678 679
f 644 679 645
f 645 679 680
f 645 680 681
f 645 681 646
f 646 681 647
f 647 681 648
f 648 681 682
f 648 682 649
f 649 682 683
f 649 683 684
f 649 684 650
f 650 684 651
f 651 685 686
f 651 686 652
f 651 684 685
f 652 686 655
f 653 687 656
f 653 656 654
f 653 655 687
f 655 686 685
f 655 685 706
f 655 706 688
f 655 688 687
f 656 689 661
f 656 687 689
f 659 664 666
f 661 663 662
f 661 689 663
f 663 690 664
f 663 689 690
f 664 690 691
f 664 691 666
f 665 666 692
f 665 692 693
f 665 693 667
f 666 691 692
f 667 693 694
f 667 694 668
f 674 695 675
f 675 695 696
f 675 696 676
f 676 696 677
f 677 697 698
f 677 698 699
f 677 699 678
f 677 696 697
f 678 699 700
f 678 700 679
f 679 700 701
f 679 701 702
f 679 702 680
f 680 702 703
f 680 703 682
f 680 682 681
f 682 703 683
f 683 704 705
f 683 705 684
f 683 703 704
f 684 705 706
f 684 706 685
f 687 707 708
f 687 708 690
f 687 690 709
f 687 709 689
f 687 688 707
f 688 710 707
f 688 706 710
f 689 709 690
f 690 711 691
f 690 708 711
f 691 712 692
f 691 711 712
f 692 712 693
f 693 712 713
f 693 713 714
f 693 714 715
f 693 715 694
f 699 716 700
f 700 717 718
f 700 718 719
f 700 719 701
f 700 716 717
f 701 719 720
f 701 720 721
f 701 721 702
f 702 721 722
f 702 722 703
f 703 722 704
f 704 722 723
f 704 723 724
f 704 724 725
f 704 725 705
f 705 725 710
f 705 710 706
f 707 726 708
f 707 710 727
f 707 727 726
f 708 728 711
f 708 726 728
f 710 725 727
f 711 728 726
f 711 726 729
f 711 729 712
f 712 729 730
f 712 730 731
f 712 731 713
f 713 731 714
f 714 731 732
f 720 733 734
f 720 734 721
f 721 734 722
f 722 734 723
f 723 734 724
f 724 735 736
f 724 736 727
f 724 727 725
f 724 734 735
f 726 736 729
f 726 727 736
f 729 737 738
f 729 738 730
f 729 736 737
f 730 738 739
f 730 739 731
f 731 739 732
f 732 739 740
f 733 741 735
f 733 735 734
f 735 741 742
f 735 742 743
f 735 743 736
f 736 743 737
f 737 740 738
f 737 743 744
f 737 744 740
f 738 740 739
f 742 745 743
f 743 745 744
