v -0.0487567 -0.18293 -0.225322
v -0.062652 -0.18293 -0.225278
v -0.0487567 -0.145125 -0.215706
v -0.0345967 -0.145125 -0.215706
v -0.0209219 -0.18293 -0.225278
v -0.062652 -0.145125 -0.215662
v -0.0765914 -0.18293 -0.224705
v -0.0206572 -0.145125 -0.215662
v -0.0148344 -0.18293 -0.225102
v -0.0754886 -0.145125 -0.214956
v -0.0889428 -0.145125 -0.214118
v -0.0905309 -0.18293 -0.223426
v -0.101559 -0.145125 -0.213015
v -0.00689426 -0.145125 -0.214868
v -0.0016008 -0.18293 -0.224484
v -0.104603 -0.18293 -0.219632
v -0.113116 -0.145125 -0.210633
v 0.00695695 -0.145125 -0.213192
v 0.0117211 -0.18293 -0.223426
v -0.133011 -0.18293 -0.208737
v -0.14298 -0.145125 -0.198723
v 0.0208964 -0.145125 -0.210898
v 0.0249106 -0.18293 -0.21972
v -0.160713 -0.18293 -0.192812
v -0.169756 -0.145125 -0.183681
v 0.0485547 -0.145125 -0.199914
v 0.053804 -0.18293 -0.208781
v -0.187666 -0.18293 -0.17627
v -0.185637 -0.145125 -0.171683
v 0.07661 -0.145125 -0.184078
v 0.0643909 -0.18293 -0.203664
v -0.201605 -0.18293 -0.162375
v -0.19962 -0.145125 -0.157788
v 0.0905053 -0.145125 -0.173491
v 0.106915 -0.18293 -0.176579
v -0.218103 -0.18293 -0.145877
v -0.213471 -0.145125 -0.143804
v 0.104268 -0.145125 -0.16017
v 0.120854 -0.18293 -0.16264
v -0.234513 -0.18293 -0.118925
v -0.225382 -0.145125 -0.127836
v 0.118384 -0.145125 -0.146054
v 0.13475 -0.18293 -0.148701
v -0.250393 -0.18293 -0.091223
v -0.240468 -0.145125 -0.101148
v 0.131794 -0.145125 -0.132291
v 0.142337 -0.145125 -0.118396
v 0.151071 -0.18293 -0.12338
v -0.261289 -0.18293 -0.0627269
v -0.25229 -0.145125 -0.0711522
v 0.158129 -0.145125 -0.0903408
v 0.161967 -0.18293 -0.106265
v -0.265083 -0.18293 -0.0487435
v -0.25476 -0.145125 -0.0596832
v 0.16929 -0.145125 -0.0626828
v 0.167128 -0.18293 -0.0956342
v -0.266406 -0.18293 -0.0348042
v -0.255907 -0.145125 -0.0471554
v 0.171451 -0.145125 -0.0487435
v 0.181729 -0.18293 -0.0535075
v 0.178068 -0.18293 -0.0668734
v -0.266979 -0.18293 -0.0208649
v -0.257319 -0.145125 -0.0208649
v -0.256657 -0.145125 -0.0336132
v 0.173171 -0.145125 -0.0348924
v 0.182744 -0.18293 -0.040274
v -0.267023 -0.18293 0.00692547
v -0.257363 -0.145125 -0.0069256
v 0.174054 -0.145125 -0.0208649
v 0.183405 -0.18293 -0.0270846
v -0.266979 -0.18293 0.0208648
v -0.257363 -0.145125 0.00736659
v 0.174098 -0.145125 -0.00696971
v 0.183582 -0.18293 -0.0208649
v -0.266803 -0.18293 0.0268639
v -0.257319 -0.145125 0.0208648
v 0.174098 -0.145125 0.00688136
v 0.183626 -0.18293 -0.0069256
v -0.266229 -0.18293 0.0401416
v -0.256569 -0.145125 0.0348923
v 0.183582 -0.18293 0.0208648
v 0.174054 -0.145125 0.0208648
v -0.265038 -0.18293 0.0534633
v -0.254893 -0.145125 0.0487433
v 0.183008 -0.18293 0.0348041
v 0.17326 -0.145125 0.0337895
v -0.261289 -0.18293 0.0664762
v -0.252422 -0.145125 0.0626826
v 0.181773 -0.18293 0.0487433
v 0.172377 -0.145125 0.0472435
v 0.171319 -0.145125 0.0598595
v -0.250129 -0.18293 0.0972221
v -0.240865 -0.145125 0.0905171
v 0.178068 -0.18293 0.0629473
v 0.169113 -0.145125 0.0715932
v -0.23438 -0.18293 0.123072
v -0.225646 -0.145125 0.118396
v 0.167393 -0.18293 0.0905171
v 0.157644 -0.145125 0.101942
v -0.218015 -0.18293 0.148392
v -0.215103 -0.145125 0.132291
v 0.162011 -0.18293 0.103618
v 0.142072 -0.145125 0.128144
v -0.201958 -0.145125 0.145833
v -0.190224 -0.18293 0.17627
v 0.134838 -0.18293 0.146098
v 0.129942 -0.145125 0.143892
v -0.187622 -0.145125 0.160169
v -0.164904 -0.18293 0.192636
v -0.160184 -0.145125 0.183902
v -0.174079 -0.145125 0.173359
v 0.11609 -0.145125 0.157876
v 0.118252 -0.18293 0.162684
v -0.139231 -0.18293 0.208516
v -0.132305 -0.145125 0.199208
v 0.102107 -0.145125 0.171771
v 0.104312 -0.18293 0.176579
v -0.108396 -0.18293 0.219632
v -0.10447 -0.145125 0.210766
v 0.0863147 -0.145125 0.183857
v 0.061656 -0.18293 0.203619
v -0.095295 -0.18293 0.223337
v -0.0905309 -0.145125 0.213148
v 0.0601121 -0.145125 0.199429
v 0.0487311 -0.18293 0.209001
v -0.0819731 -0.18293 0.224484
v -0.0766796 -0.145125 0.214824
v 0.0296306 -0.145125 0.210766
v 0.0210728 -0.18293 0.219764
v -0.0687836 -0.18293 0.225102
v -0.062652 -0.145125 0.215662
v 0.0180291 -0.145125 0.213059
v 0.00695695 -0.18293 0.22347
v -0.062652 -0.18293 0.225278
v -0.0489772 -0.145125 0.215706
v 0.00541303 -0.145125 0.214162
v -0.00698248 -0.18293 0.224705
v -0.0348613 -0.18293 0.225322
v -0.0348613 -0.145125 0.215706
v -0.00808528 -0.145125 0.214956
v -0.0209219 -0.145125 0.215662
v -0.0209219 -0.18293 0.225278
f 1 2 6
f 1 6 3
f 1 3 4
f 1 4 5
f 1 5 9
f 1 9 15
f 1 15 19
f 1 19 23
f 1 23 27
f 1 27 31
f 1 31 35
f 1 35 39
f 1 39 43
f 1 43 48
f 1 48 52
f 1 52 56
f 1 56 61
f 1 61 60
f 1 60 66
f 1 66 70
f 1 70 74
f 1 74 78
f 1 78 81
f 1 81 85
f 1 85 89
f 1 89 94
f 1 94 98
f 1 98 102
f 1 102 106
f 1 106 113
f 1 113 117
f 1 117 121
f 1 121 125
f 1 125 129
f 1 129 133
f 1 133 137
f 1 137 142
f 1 142 138
f 1 138 134
f 1 134 130
f 1 130 126
f 1 126 122
f 1 122 118
f 1 118 114
f 1 114 109
f 1 109 105
f 1 105 100
f 1 100 96
f 1 96 92
f 1 92 87
f 1 87 83
f 1 83 79
f 1 79 75
f 1 75 71
f 1 71 67
f 1 67 62
f 1 62 57
f 1 57 53
f 1 53 49
f 1 49 44
f 1 44 40
f 1 40 36
f 1 36 32
f 1 32 28
f 1 28 24
f 1 24 20
f 1 20 16
f 1 16 12
f 1 12 7
f 1 7 2
f 2 7 6
f 3 6 10
f 3 10 11
f 3 11 13
f 3 13 17
f 3 17 21
f 3 21 25
f 3 25 29
f 3 29 33
f 3 33 37
f 3 37 41
f 3 41 45
f 3 45 50
f 3 50 54
f 3 54 58
f 3 58 64
f 3 64 63
f 3 63 68
f 3 68 72
f 3 72 76
f 3 76 80
f 3 80 84
f 3 84 88
f 3 88 93
f 3 93 97
f 3 97 101
f 3 101 104
f 3 104 108
f 3 108 111
f 3 111 110
f 3 110 115
f 3 115 119
f 3 119 123
f 3 123 127
f 3 127 131
f 3 131 135
f 3 135 139
f 3 139 141
f 3 141 140
f 3 140 136
f 3 136 132
f 3 132 128
f 3 128 124
f 3 124 120
f 3 120 116
f 3 116 112
f 3 112 107
f 3 107 103
f 3 103 99
f 3 99 95
f 3 95 91
f 3 91 90
f 3 90 86
f 3 86 82
f 3 82 77
f 3 77 73
f 3 73 69
f 3 69 65
f 3 65 59
f 3 59 55
f 3 55 51
f 3 51 47
f 3 47 46
f 3 46 42
f 3 42 38
f 3 38 34
f 3 34 30
f 3 30 26
f 3 26 22
f 3 22 18
f 3 18 14
f 3 14 8
f 3 8 4
f 4 8 5
f 5 8 9
f 6 7 10
f 7 11 10
f 7 12 13
f 7 13 11
f 8 14 15
f 8 15 9
f 12 16 17
f 12 17 13
f 14 18 19
f 14 19 15
f 16 20 17
f 17 20 21
f 18 22 19
f 19 22 23
f 20 24 25
f 20 25 21
f 22 26 27
f 22 27 23
f 24 28 25
f 25 28 29
f 26 30 31
f 26 31 27
f 28 32 33
f 28 33 29
f 30 34 35
f 30 35 31
f 32 36 33
f 33 36 37
f 34 38 35
f 35 38 42
f 35 42 39
f 36 40 41
f 36 41 37
f 39 42 43
f 40 44 41
f 41 44 45
f 42 46 43
f 43 46 47
f 43 47 48
f 44 49 50
f 44 50 45
f 47 51 52
f 47 52 48
f 49 53 50
f 50 53 54
f 51 55 56
f 51 56 52
f 53 57 54
f 54 57 58
f 55 59 60
f 55 60 61
f 55 61 56
f 57 62 63
f 57 63 64
f 57 64 58
f 59 65 60
f 60 65 66
f 62 67 68
f 62 68 63
f 65 69 66
f 66 69 70
f 67 71 72
f 67 72 68
f 69 73 74
f 69 74 70
f 71 75 76
f 71 76 72
f 73 77 78
f 73 78 74
f 75 79 76
f 76 79 80
f 77 81 78
f 77 82 81
f 79 83 80
f 80 83 84
f 81 82 85
f 82 86 85
f 83 87 88
f 83 88 84
f 85 86 90
f 85 90 91
f 85 91 89
f 87 92 88
f 88 92 93
f 89 91 95
f 89 95 94
f 92 96 97
f 92 97 93
f 94 95 99
f 94 99 98
f 96 100 97
f 97 100 101
f 98 99 102
f 99 103 102
f 100 104 101
f 100 105 104
f 102 103 106
f 103 107 106
f 104 105 108
f 105 109 110
f 105 110 111
f 105 111 108
f 106 107 112
f 106 112 113
f 109 114 110
f 110 114 115
f 112 116 117
f 112 117 113
f 114 118 119
f 114 119 115
f 116 120 117
f 117 120 121
f 118 122 119
f 119 122 123
f 120 124 121
f 121 124 125
f 122 126 127
f 122 127 123
f 124 128 129
f 124 129 125
f 126 130 131
f 126 131 127
f 128 132 133
f 128 133 129
f 130 134 131
f 131 134 135
f 132 136 137
f 132 137 133
f 134 138 135
f 135 138 139
f 136 140 137
f 137 140 141
f 137 141 142
f 138 142 141
f 138 141 139
